<?xml version='1.0' encoding='utf-8'?>
<svg viewBox="0 -44.0 19.85 50.0" version="1.1" xmlns="http://www.w3.org/2000/svg"><rect x="-1000" y="-1000" width="2000" height="2000" stroke="white" fill="white" /><g style="fill:none;stroke:#000000;stroke-width:1"><path d="M 9.9 20.5 C 14.7 20.5 17.7 24.1 17.7 29.5 C 17.7 34.8 14.7 38.2 10.0 38.2 C 5.2 38.2 2.1 34.8 2.1 29.5 C 2.1 24.1 5.2 20.5 9.9 20.5 Z " transform="scale(1,-1)" stroke-dasharray="53.17090881438873" stroke-dashoffset="53.17090881438873"><animate attributeName="stroke-dashoffset" from="53.17090881438873" to="0" dur="1.5951272644316619s" begin="0s; 15s; 30s; 45s; 60s" fill="freeze" id="anim0" /></path><path d="M 9.9 23.3 C 7.2 23.3 5.7 25.5 5.7 29.5 C 5.7 33.4 7.3 35.5 10.0 35.5 C 12.6 35.5 14.2 33.4 14.2 29.5 C 14.2 25.5 12.6 23.3 9.9 23.3 Z" transform="scale(1,-1)" stroke-dasharray="33.54903795326631" stroke-dashoffset="33.54903795326631"><animate attributeName="stroke-dashoffset" from="33.54903795326631" to="0" dur="1.0064711385979892s" begin="anim0.end" fill="freeze" id="anim_end" /></path></g></svg>