<?xml version='1.0' encoding='utf-8'?>
<svg viewBox="0 -44.0 50.0 50.0" version="1.1" xmlns="http://www.w3.org/2000/svg"><rect x="-1000" y="-1000" width="2000" height="2000" stroke="white" fill="white" /><g style="fill:none;stroke:#000000;stroke-width:1"><path d="M 37.4 4.8 L 37.4 31.4 C 37.4 35.9 35.9 37.5 31.6 37.5 L 20.2 37.5 C 15.8 37.5 14.3 35.9 14.3 31.2 L 14.3 26.8 C 14.3 15.1 13.3 9.8 11.0 4.8 L 10.5 4.8 C 8.7 4.8 7.3 3.5 7.3 1.9 L 7.3 -4.0 C 7.3 -5.1 8.0 -6.0 9.3 -6.0 C 10.8 -6.0 11.5 -5.1 11.5 -4.0 L 11.5 -0.4 C 11.5 0.7 12.0 1.2 13.0 1.2 L 35.6 1.2 C 36.6 1.2 37.1 0.7 37.1 -0.4 L 37.1 -4.0 C 37.1 -5.1 37.8 -6.0 39.2 -6.0 C 40.6 -6.0 41.2 -5.1 41.2 -4.0 L 41.2 1.9 C 41.2 3.5 39.8 4.8 38.0 4.8 Z " transform="scale(1,-1)" stroke-dasharray="155.22354892015227" stroke-dashoffset="155.22354892015227"><animate attributeName="stroke-dashoffset" from="155.22354892015227" to="0" dur="4.656706467604568s" begin="0s; 15s; 30s; 45s; 60s" fill="freeze" id="anim0" /></path><path d="M 32.9 4.8 L 15.6 4.8 C 17.8 9.5 18.9 15.3 18.9 26.7 L 18.9 31.3 C 18.9 32.9 19.6 33.8 21.1 33.8 L 30.6 33.8 C 32.1 33.8 32.9 32.9 32.9 31.3 Z" transform="scale(1,-1)" stroke-dasharray="87.90924923320729" stroke-dashoffset="87.90924923320729"><animate attributeName="stroke-dashoffset" from="87.90924923320729" to="0" dur="2.6372774769962186s" begin="anim0.end" fill="freeze" id="anim_end" /></path></g></svg>