<?xml version='1.0' encoding='utf-8'?>
<svg viewBox="0 -44.0 50.0 50.0" version="1.1" xmlns="http://www.w3.org/2000/svg"><rect x="-1000" y="-1000" width="2000" height="2000" stroke="white" fill="white" /><g style="fill:none;stroke:#000000;stroke-width:1"><path d="M 24.0 0.5 C 33.1 1.0 39.1 6.1 39.1 14.9 C 39.1 20.9 35.2 24.9 29.7 26.1 L 32.0 36.2 C 32.0 36.5 32.0 36.6 32.0 36.9 C 32.0 37.6 31.2 38.2 30.1 38.2 C 28.7 38.2 28.1 37.6 27.8 36.4 L 25.5 26.2 C 16.8 25.7 10.9 20.5 10.9 11.9 C 10.9 6.0 14.3 2.0 19.8 0.8 L 18.0 -7.2 C 17.9 -7.4 17.9 -7.6 17.9 -7.8 C 17.9 -8.6 18.8 -9.2 19.9 -9.2 C 21.2 -9.2 21.9 -8.7 22.2 -7.3 Z " transform="scale(1,-1)" stroke-dasharray="127.7919419695491" stroke-dashoffset="127.7919419695491"><animate attributeName="stroke-dashoffset" from="127.7919419695491" to="0" dur="3.8337582590864727s" begin="0s; 15s; 30s; 45s; 60s" fill="freeze" id="anim0" /></path><path d="M 28.9 22.6 C 32.5 21.9 34.8 18.9 34.8 14.6 C 34.8 8.3 31.2 4.5 24.7 3.9 Z " transform="scale(1,-1)" stroke-dasharray="46.47604485613692" stroke-dashoffset="46.47604485613692"><animate attributeName="stroke-dashoffset" from="46.47604485613692" to="0" dur="1.3942813456841077s" begin="anim0.end" fill="freeze" id="anim1" /></path><path d="M 20.6 4.2 C 17.2 4.7 15.2 7.7 15.2 12.2 C 15.2 18.4 18.6 22.1 24.7 22.7 Z" transform="scale(1,-1)" stroke-dasharray="45.37907257183344" stroke-dashoffset="45.37907257183344"><animate attributeName="stroke-dashoffset" from="45.37907257183344" to="0" dur="1.3613721771550031s" begin="anim1.end" fill="freeze" id="anim_end" /></path></g></svg>