<?xml version='1.0' encoding='utf-8'?>
<svg viewBox="0 -44.0 21.85 50.0" version="1.1" xmlns="http://www.w3.org/2000/svg"><rect x="-1000" y="-1000" width="2000" height="2000" stroke="white" fill="white" /><g style="fill:none;stroke:#000000;stroke-width:1"><path d="M 7.2 13.7 L 2.5 7.2 C 2.3 6.9 2.2 6.7 2.2 6.4 C 2.2 5.8 3.0 5.1 3.8 5.1 C 4.2 5.1 4.5 5.3 4.8 5.7 L 10.2 11.5 C 10.8 12.2 11.2 12.9 11.2 13.7 C 11.2 14.4 10.8 15.2 10.2 15.9 L 4.8 21.7 C 4.5 22.0 4.2 22.2 3.8 22.2 C 3.0 22.2 2.2 21.6 2.2 20.9 C 2.2 20.7 2.3 20.5 2.5 20.2 Z " transform="scale(1,-1)" stroke-dasharray="45.338395550722254" stroke-dashoffset="45.338395550722254"><animate attributeName="stroke-dashoffset" from="45.338395550722254" to="0" dur="1.3601518665216676s" begin="0s; 15s; 30s; 45s; 60s" fill="freeze" id="anim0" /></path><path d="M 15.5 13.7 L 10.7 7.2 C 10.5 6.9 10.5 6.7 10.5 6.4 C 10.5 5.8 11.2 5.1 12.0 5.1 C 12.4 5.1 12.7 5.3 13.0 5.7 L 18.4 11.5 C 19.0 12.2 19.4 12.9 19.4 13.7 C 19.4 14.4 19.0 15.2 18.4 15.9 L 13.0 21.7 C 12.7 22.0 12.4 22.2 12.0 22.2 C 11.2 22.2 10.5 21.6 10.5 20.9 C 10.5 20.7 10.5 20.5 10.7 20.2 Z" transform="scale(1,-1)" stroke-dasharray="45.2546067775343" stroke-dashoffset="45.2546067775343"><animate attributeName="stroke-dashoffset" from="45.2546067775343" to="0" dur="1.357638203326029s" begin="anim0.end" fill="freeze" id="anim_end" /></path></g></svg>