<?xml version='1.0' encoding='utf-8'?>
<svg viewBox="0 -44.0 50.0 50.0" version="1.1" xmlns="http://www.w3.org/2000/svg"><rect x="-1000" y="-1000" width="2000" height="2000" stroke="white" fill="white" /><g style="fill:none;stroke:#000000;stroke-width:1"><path d="M 25.0 43.1 C 11.7 43.1 0.9 32.3 0.9 19.0 C 0.9 5.7 11.7 -5.1 25.0 -5.1 C 38.3 -5.1 49.1 5.7 49.1 19.0 C 49.1 32.3 38.3 43.1 25.0 43.1 Z " transform="scale(1,-1)" stroke-dasharray="151.42853538357596" stroke-dashoffset="151.42853538357596"><animate attributeName="stroke-dashoffset" from="151.42853538357596" to="0" dur="4.542856061507279s" begin="0s; 15s; 30s; 45s; 60s" fill="freeze" id="anim0" /></path><path d="M 25.0 41.0 C 37.1 41.0 47.0 31.2 47.0 19.0 C 47.0 6.9 37.1 -3.0 25.0 -3.0 C 12.9 -3.0 3.1 6.9 3.1 19.0 C 3.1 31.2 12.9 41.0 25.0 41.0 Z" transform="scale(1,-1)" stroke-dasharray="138.07262399110482" stroke-dashoffset="138.07262399110482"><animate attributeName="stroke-dashoffset" from="138.07262399110482" to="0" dur="4.1421787197331446s" begin="anim0.end" fill="freeze" id="anim_end" /></path></g></svg>