<?xml version='1.0' encoding='utf-8'?>
<svg viewBox="0 -44.0 50.0 50.0" version="1.1" xmlns="http://www.w3.org/2000/svg"><rect x="-1000" y="-1000" width="2000" height="2000" stroke="white" fill="white" /><g style="fill:none;stroke:#000000;stroke-width:1"><path d="M 35.2 2.1 C 40.4 2.1 42.2 4.2 42.2 8.3 L 42.2 27.7 C 42.2 31.9 40.4 33.9 35.2 33.9 L 14.8 33.9 C 9.7 33.9 7.8 31.9 7.8 27.7 L 7.8 8.3 C 7.9 3.5 10.3 2.2 14.8 2.1 Z " transform="scale(1,-1)" stroke-dasharray="122.92874711908715" stroke-dashoffset="122.92874711908715"><animate attributeName="stroke-dashoffset" from="122.92874711908715" to="0" dur="3.6878624135726144s" begin="0s; 15s; 30s; 45s; 60s" fill="freeze" id="anim0" /></path><path d="M 15.6 5.7 C 12.5 5.7 11.7 6.6 11.7 9.1 L 11.7 26.9 C 11.7 29.5 12.5 30.4 15.6 30.4 L 34.5 30.4 C 37.6 30.4 38.3 29.5 38.3 26.9 L 38.3 9.1 C 38.2 6.2 37.2 5.7 34.5 5.7 Z" transform="scale(1,-1)" stroke-dasharray="97.85936025313998" stroke-dashoffset="97.85936025313998"><animate attributeName="stroke-dashoffset" from="97.85936025313998" to="0" dur="2.9357808075941993s" begin="anim0.end" fill="freeze" id="anim_end" /></path></g></svg>