<?xml version='1.0' encoding='utf-8'?>
<svg viewBox="0 -44.0 50.0 50.0" version="1.1" xmlns="http://www.w3.org/2000/svg"><rect x="-1000" y="-1000" width="2000" height="2000" stroke="white" fill="white" /><g style="fill:none;stroke:#000000;stroke-width:1"><path d="M 36.3 29.2 C 33.9 22.6 31.2 15.0 29.1 8.1 C 28.9 7.6 28.8 7.2 28.8 6.9 C 28.8 5.8 29.5 5.2 30.7 5.2 C 31.7 5.2 32.1 5.7 32.5 6.7 C 34.8 14.5 37.1 21.8 39.6 28.0 C 40.0 29.0 40.0 29.6 40.0 30.1 C 40.0 31.6 39.1 32.4 37.6 32.4 L 27.3 32.4 C 26.4 32.4 25.8 31.9 25.8 30.9 C 25.8 29.9 26.4 29.2 27.3 29.2 Z " transform="scale(1,-1)" stroke-dasharray="81.63492588872379" stroke-dashoffset="81.63492588872379"><animate attributeName="stroke-dashoffset" from="81.63492588872379" to="0" dur="2.4490477766617134s" begin="0s; 15s; 30s; 45s; 60s" fill="freeze" id="anim0" /></path><path d="M 13.8 8.7 C 15.8 11.0 18.2 14.0 19.8 16.2 C 22.4 19.9 23.4 22.3 23.4 25.4 C 23.4 30.3 21.0 33.1 16.9 33.1 C 14.2 33.1 12.1 32.0 10.5 29.7 C 10.2 29.2 10.0 29.0 10.0 28.5 C 10.0 27.5 10.9 26.8 11.8 26.8 C 12.4 26.8 12.9 27.1 13.1 27.5 C 14.5 29.5 15.4 30.0 16.8 30.0 C 18.6 30.0 19.8 28.4 19.8 25.5 C 19.8 23.2 19.2 21.4 17.4 18.6 C 15.7 15.9 13.6 13.4 10.8 9.9 C 10.2 9.2 9.9 8.5 9.9 7.6 C 9.9 6.3 10.7 5.6 11.6 5.6 L 22.2 5.6 C 23.2 5.6 23.8 6.0 23.8 7.1 C 23.8 8.2 23.2 8.7 22.2 8.7 Z " transform="scale(1,-1)" stroke-dasharray="102.96786228318759" stroke-dashoffset="102.96786228318759"><animate attributeName="stroke-dashoffset" from="102.96786228318759" to="0" dur="3.0890358684956274s" begin="anim0.end" fill="freeze" id="anim1" /></path><path d="M 25.0 43.1 C 11.7 43.1 0.9 32.3 0.9 19.0 C 0.9 5.7 11.7 -5.1 25.0 -5.1 C 38.3 -5.1 49.1 5.7 49.1 19.0 C 49.1 32.3 38.3 43.1 25.0 43.1 Z " transform="scale(1,-1)" stroke-dasharray="151.42853538357596" stroke-dashoffset="151.42853538357596"><animate attributeName="stroke-dashoffset" from="151.42853538357596" to="0" dur="4.542856061507279s" begin="anim1.end" fill="freeze" id="anim2" /></path><path d="M 25.0 41.0 C 37.1 41.0 47.0 31.2 47.0 19.0 C 47.0 6.9 37.1 -3.0 25.0 -3.0 C 12.9 -3.0 3.1 6.9 3.1 19.0 C 3.1 31.2 12.9 41.0 25.0 41.0 Z" transform="scale(1,-1)" stroke-dasharray="138.07262399110482" stroke-dashoffset="138.07262399110482"><animate attributeName="stroke-dashoffset" from="138.07262399110482" to="0" dur="4.1421787197331446s" begin="anim2.end" fill="freeze" id="anim_end" /></path></g></svg>