<?xml version='1.0' encoding='utf-8'?>
<svg viewBox="0 -44.0 50.0 50.0" version="1.1" xmlns="http://www.w3.org/2000/svg"><rect x="-1000" y="-1000" width="2000" height="2000" stroke="white" fill="white" /><g style="fill:none;stroke:#000000;stroke-width:1"><path d="M 32.4 12.0 C 29.5 12.9 26.5 13.4 23.3 13.4 C 14.0 13.4 10.7 9.3 10.7 5.2 C 10.7 0.5 15.1 -3.0 25.0 -3.0 C 27.1 -3.0 28.7 -2.9 30.1 -2.7 C 31.2 -2.6 31.8 -1.7 31.8 -0.9 C 31.8 0.1 31.1 1.1 29.8 1.0 C 28.5 0.9 26.9 0.8 24.9 0.8 C 17.0 0.8 14.6 2.9 14.6 5.3 C 14.6 8.0 17.2 10.1 23.4 10.1 C 27.0 10.1 30.8 9.5 34.5 8.1 C 34.8 8.0 35.1 8.0 35.4 8.0 C 36.6 8.0 37.5 8.9 37.5 10.1 C 37.5 10.7 37.3 11.2 36.8 11.8 C 34.6 14.3 32.0 17.8 30.4 20.6 C 33.8 21.3 37.0 22.1 39.8 23.0 C 40.8 23.2 41.3 24.0 41.3 24.7 C 41.3 25.6 40.6 26.4 39.5 26.4 C 39.2 26.4 39.0 26.4 38.7 26.3 C 35.7 25.4 32.3 24.5 28.8 23.8 C 27.8 25.8 26.9 27.9 26.1 30.0 C 29.2 30.6 32.2 31.3 34.7 32.1 C 35.9 32.4 36.3 33.1 36.3 33.9 C 36.3 34.6 35.6 35.4 34.6 35.4 C 34.3 35.4 34.0 35.4 33.7 35.2 C 31.3 34.5 28.2 33.8 25.0 33.1 C 24.4 35.0 23.8 36.9 23.4 38.8 C 23.2 39.8 22.4 40.2 21.5 40.2 C 20.5 40.2 19.4 39.5 19.7 38.2 C 20.2 36.4 20.7 34.4 21.4 32.5 C 17.9 32.0 14.6 31.5 11.7 31.4 C 10.4 31.3 9.8 30.5 9.8 29.7 C 9.8 28.8 10.5 27.9 11.8 28.0 C 15.2 28.2 18.9 28.7 22.6 29.2 C 23.4 27.2 24.2 25.2 25.3 23.2 C 20.8 22.4 16.0 21.9 11.4 21.6 C 10.1 21.6 9.5 20.7 9.5 19.9 C 9.5 19.0 10.3 18.1 11.7 18.2 C 16.8 18.4 22.0 19.1 26.9 20.0 C 28.6 16.9 30.6 14.2 32.5 12.1 Z " transform="scale(1,-1)" stroke-dasharray="264.4877169491013" stroke-dashoffset="264.4877169491013"><animate attributeName="stroke-dashoffset" from="264.4877169491013" to="0" dur="7.934631508473038s" begin="0s; 15s; 30s; 45s; 60s" fill="freeze" id="anim0" /></path><path d="M 37.5 37.1 C 38.7 35.9 40.2 34.0 41.3 32.1 C 41.7 31.6 42.1 31.4 42.6 31.4 C 43.4 31.4 44.1 32.1 44.1 33.0 C 44.1 33.3 44.0 33.6 43.8 34.1 C 42.7 35.8 41.1 37.9 39.6 39.2 C 39.2 39.5 38.9 39.7 38.5 39.7 C 37.7 39.7 37.0 39.0 37.0 38.2 C 37.0 37.9 37.1 37.5 37.5 37.1 Z " transform="scale(1,-1)" stroke-dasharray="22.85313439023849" stroke-dashoffset="22.85313439023849"><animate attributeName="stroke-dashoffset" from="22.85313439023849" to="0" dur="0.6855940317071547s" begin="anim0.end" fill="freeze" id="anim1" /></path><path d="M 42.1 40.7 C 43.3 39.5 45.0 37.4 46.1 35.8 C 46.4 35.2 46.9 35.1 47.2 35.1 C 48.0 35.1 48.8 35.7 48.8 36.6 C 48.8 37.0 48.7 37.4 48.4 37.7 C 47.4 39.3 45.6 41.4 44.3 42.6 C 44.0 43.0 43.6 43.1 43.2 43.1 C 42.4 43.1 41.7 42.4 41.7 41.7 C 41.7 41.3 41.8 41.0 42.1 40.7 Z" transform="scale(1,-1)" stroke-dasharray="22.377428419972674" stroke-dashoffset="22.377428419972674"><animate attributeName="stroke-dashoffset" from="22.377428419972674" to="0" dur="0.6713228525991802s" begin="anim1.end" fill="freeze" id="anim_end" /></path></g></svg>