<?xml version='1.0' encoding='utf-8'?>
<svg viewBox="0 -44.0 50.0 50.0" version="1.1" xmlns="http://www.w3.org/2000/svg"><rect x="-1000" y="-1000" width="2000" height="2000" stroke="white" fill="white" /><g style="fill:none;stroke:#000000;stroke-width:1"><path d="M 33.4 32.8 C 33.5 31.7 33.6 30.6 33.6 29.5 C 34.0 26.0 34.6 22.5 35.5 19.1 C 36.1 16.4 37.0 13.8 38.0 11.2 C 35.5 6.5 32.3 2.5 28.8 -0.6 C 28.2 -1.1 28.1 -1.6 28.1 -2.1 C 28.1 -3.0 28.9 -3.7 29.8 -3.7 C 30.2 -3.7 30.6 -3.6 31.0 -3.2 C 34.1 -0.4 37.1 3.2 39.6 7.3 C 41.2 3.9 43.0 0.9 45.0 -1.7 C 45.5 -2.3 46.1 -2.6 46.6 -2.6 C 47.6 -2.6 48.5 -1.8 48.5 -0.8 C 48.5 -0.3 48.2 0.2 47.9 0.7 C 45.5 3.6 43.4 7.0 41.6 11.0 C 44.4 16.6 46.3 23.2 47.1 30.7 C 47.2 31.1 47.2 31.5 47.2 31.9 C 47.2 34.7 45.6 35.9 42.2 35.9 L 32.2 35.9 C 31.2 35.9 30.8 35.1 30.8 34.4 C 30.8 33.6 31.2 32.8 32.2 32.8 Z " transform="scale(1,-1)" stroke-dasharray="130.58948818763335" stroke-dashoffset="130.58948818763335"><animate attributeName="stroke-dashoffset" from="130.58948818763335" to="0" dur="3.9176846456290004s" begin="0s; 15s; 30s; 45s; 60s" fill="freeze" id="anim0" /></path><path d="M 41.8 32.8 C 43.4 32.8 43.8 32.2 43.7 30.9 C 43.2 25.2 41.8 20.0 39.9 15.3 C 38.0 21.0 36.9 26.9 36.5 32.8 Z " transform="scale(1,-1)" stroke-dasharray="42.50376206837255" stroke-dashoffset="42.50376206837255"><animate attributeName="stroke-dashoffset" from="42.50376206837255" to="0" dur="1.2751128620511765s" begin="anim0.end" fill="freeze" id="anim1" /></path><path d="M 6.6 -2.7 C 6.6 -3.8 7.5 -4.2 8.3 -4.2 C 9.2 -4.2 10.1 -3.8 10.1 -2.7 L 10.1 25.4 C 10.1 26.4 9.3 26.9 8.4 27.0 C 10.1 31.0 11.5 35.5 12.4 39.5 C 12.7 40.9 11.6 41.7 10.6 41.7 C 9.8 41.7 9.0 41.2 8.8 40.2 C 7.3 33.0 4.7 25.2 1.5 19.9 C 1.2 19.5 1.2 19.2 1.2 18.9 C 1.2 18.0 1.9 17.4 2.7 17.4 C 3.2 17.4 3.8 17.7 4.2 18.4 C 5.1 19.7 5.8 21.2 6.6 22.8 Z " transform="scale(1,-1)" stroke-dasharray="112.37066460812004" stroke-dashoffset="112.37066460812004"><animate attributeName="stroke-dashoffset" from="112.37066460812004" to="0" dur="3.371119938243601s" begin="anim1.end" fill="freeze" id="anim2" /></path><path d="M 20.7 20.7 L 20.7 1.4 C 20.7 0.2 20.2 0.0 19.4 0.0 C 18.8 0.0 18.0 0.1 17.2 0.2 C 16.0 0.4 15.2 -0.5 15.2 -1.5 C 15.2 -2.2 15.8 -3.0 16.9 -3.2 C 17.7 -3.4 18.6 -3.4 19.5 -3.4 C 22.5 -3.4 24.1 -2.2 24.1 1.1 L 24.1 20.7 L 30.7 20.7 C 31.7 20.7 32.1 21.4 32.1 22.2 C 32.1 22.9 31.7 23.7 30.7 23.7 L 23.6 23.7 L 23.6 30.9 L 28.4 30.9 C 29.4 30.9 29.8 31.6 29.8 32.4 C 29.8 33.1 29.3 33.9 28.4 33.9 L 23.6 33.9 L 23.6 40.3 C 23.6 41.4 22.7 41.9 21.9 41.9 C 21.0 41.9 20.2 41.4 20.2 40.3 L 20.2 23.7 L 13.7 23.7 C 12.7 23.7 12.2 22.9 12.2 22.2 C 12.2 21.4 12.7 20.7 13.7 20.7 Z " transform="scale(1,-1)" stroke-dasharray="145.27852501144505" stroke-dashoffset="145.27852501144505"><animate attributeName="stroke-dashoffset" from="145.27852501144505" to="0" dur="4.358355750343351s" begin="anim2.end" fill="freeze" id="anim3" /></path><path d="M 29.3 16.2 C 28.9 16.9 28.4 17.1 27.8 17.1 C 27.0 17.1 26.2 16.5 26.2 15.6 C 26.2 15.4 26.2 15.0 26.5 14.7 C 27.4 13.2 28.3 10.9 29.0 8.8 C 29.3 7.9 30.0 7.5 30.7 7.5 C 31.5 7.5 32.4 8.1 32.4 9.2 C 32.4 9.5 32.3 9.7 32.2 10.0 C 31.5 12.2 30.2 14.7 29.3 16.2 Z " transform="scale(1,-1)" stroke-dasharray="24.340471852712703" stroke-dashoffset="24.340471852712703"><animate attributeName="stroke-dashoffset" from="24.340471852712703" to="0" dur="0.730214155581381s" begin="anim3.end" fill="freeze" id="anim4" /></path><path d="M 15.1 15.7 C 14.3 12.3 13.1 8.8 11.8 6.3 C 11.6 5.9 11.5 5.6 11.5 5.2 C 11.5 4.3 12.2 3.7 13.0 3.7 C 13.7 3.7 14.3 4.0 14.8 4.9 C 16.2 7.7 17.6 11.5 18.4 14.8 C 18.7 16.2 17.7 17.1 16.7 17.1 C 16.0 17.1 15.2 16.6 15.1 15.7 Z" transform="scale(1,-1)" stroke-dasharray="31.969263942541776" stroke-dashoffset="31.969263942541776"><animate attributeName="stroke-dashoffset" from="31.969263942541776" to="0" dur="0.9590779182762532s" begin="anim4.end" fill="freeze" id="anim_end" /></path></g></svg>