<?xml version='1.0' encoding='utf-8'?>
<svg viewBox="0 -44.0 50.0 50.0" version="1.1" xmlns="http://www.w3.org/2000/svg"><rect x="-1000" y="-1000" width="2000" height="2000" stroke="white" fill="white" /><g style="fill:none;stroke:#000000;stroke-width:1"><path d="M 38.8 26.4 C 42.5 26.4 44.2 27.9 44.2 30.8 L 44.2 35.0 C 44.2 37.9 42.5 39.4 38.8 39.4 L 24.1 39.4 C 20.4 39.4 18.7 37.8 18.7 34.9 L 18.7 29.2 C 18.7 18.9 16.9 12.5 13.6 7.0 C 13.4 6.6 13.2 6.2 13.2 5.8 C 13.2 4.9 14.0 4.2 14.9 4.2 C 15.5 4.2 16.1 4.5 16.5 5.2 C 19.8 10.6 21.8 17.4 22.1 26.4 L 34.4 26.4 C 36.0 18.9 39.7 12.0 44.8 7.1 C 45.3 6.6 45.9 6.4 46.4 6.4 C 47.3 6.4 48.1 7.2 48.1 8.1 C 48.1 8.7 47.8 9.3 47.2 9.9 C 42.4 14.4 39.2 20.2 37.7 26.4 Z " transform="scale(1,-1)" stroke-dasharray="161.17507687532395" stroke-dashoffset="161.17507687532395"><animate attributeName="stroke-dashoffset" from="161.17507687532395" to="0" dur="4.835252306259719s" begin="0s; 15s; 30s; 45s; 60s" fill="freeze" id="anim0" /></path><path d="M 22.1 29.5 L 22.1 34.3 C 22.1 35.6 22.8 36.2 24.7 36.2 L 38.2 36.2 C 40.2 36.2 40.8 35.6 40.8 34.4 L 40.8 31.4 C 40.8 29.8 39.7 29.5 38.2 29.5 Z " transform="scale(1,-1)" stroke-dasharray="48.48293702031639" stroke-dashoffset="48.48293702031639"><animate attributeName="stroke-dashoffset" from="48.48293702031639" to="0" dur="1.4544881106094918s" begin="anim0.end" fill="freeze" id="anim1" /></path><path d="M 7.9 -2.7 C 7.9 -3.7 8.8 -4.2 9.7 -4.2 C 10.6 -4.2 11.4 -3.7 11.4 -2.7 L 11.4 25.7 C 11.4 26.7 10.6 27.2 9.7 27.2 C 11.4 31.1 13.0 35.3 13.9 39.2 C 14.0 39.4 14.0 39.6 14.0 39.8 C 14.0 40.9 13.1 41.5 12.2 41.5 C 11.4 41.5 10.7 41.1 10.4 40.1 C 8.6 32.6 5.3 24.8 1.8 19.7 C 1.5 19.3 1.4 18.9 1.4 18.6 C 1.4 17.7 2.1 17.1 2.9 17.1 C 3.4 17.1 4.0 17.4 4.5 18.0 C 5.6 19.6 6.8 21.6 7.9 23.7 Z " transform="scale(1,-1)" stroke-dasharray="115.44079127115914" stroke-dashoffset="115.44079127115914"><animate attributeName="stroke-dashoffset" from="115.44079127115914" to="0" dur="3.4632237381347744s" begin="anim1.end" fill="freeze" id="anim2" /></path><path d="M 27.0 19.4 C 26.8 19.5 26.5 19.6 26.2 19.6 C 25.2 19.6 24.6 18.7 24.6 17.9 C 24.6 17.3 24.9 16.7 25.6 16.4 C 28.0 15.2 30.5 13.7 32.6 12.1 C 33.0 11.8 33.4 11.6 33.8 11.6 C 34.7 11.6 35.4 12.5 35.4 13.4 C 35.4 14.0 35.1 14.7 34.5 15.2 C 32.4 16.8 29.5 18.4 27.0 19.4 Z " transform="scale(1,-1)" stroke-dasharray="28.241305064642876" stroke-dashoffset="28.241305064642876"><animate attributeName="stroke-dashoffset" from="28.241305064642876" to="0" dur="0.8472391519392862s" begin="anim2.end" fill="freeze" id="anim3" /></path><path d="M 24.5 8.2 C 24.2 8.4 23.9 8.5 23.6 8.5 C 22.6 8.5 21.9 7.6 21.9 6.8 C 21.9 6.2 22.2 5.6 23.0 5.2 C 27.0 3.2 31.6 0.2 35.9 -3.3 C 36.3 -3.7 36.8 -3.8 37.1 -3.8 C 38.1 -3.8 38.9 -2.9 38.9 -1.9 C 38.9 -1.4 38.6 -0.8 38.1 -0.4 C 33.6 3.4 28.6 6.5 24.5 8.2 Z" transform="scale(1,-1)" stroke-dasharray="43.282645052268265" stroke-dashoffset="43.282645052268265"><animate attributeName="stroke-dashoffset" from="43.282645052268265" to="0" dur="1.298479351568048s" begin="anim3.end" fill="freeze" id="anim_end" /></path></g></svg>