<?xml version='1.0' encoding='utf-8'?>
<svg viewBox="0 -44.0 50.0 50.0" version="1.1" xmlns="http://www.w3.org/2000/svg"><rect x="-1000" y="-1000" width="2000" height="2000" stroke="white" fill="white" /><g style="fill:none;stroke:#000000;stroke-width:1"><path d="M 35.8 8.2 C 37.6 7.4 39.6 6.2 41.2 4.9 C 41.7 4.5 42.1 4.5 42.5 4.5 C 43.5 4.5 44.2 5.2 44.2 6.2 C 44.2 6.9 44.0 7.5 43.2 8.0 C 41.1 9.5 38.6 10.9 35.8 11.8 L 35.8 15.2 L 46.2 15.2 C 47.2 15.2 47.6 16.0 47.6 16.7 C 47.6 17.5 47.2 18.2 46.2 18.2 L 24.4 18.2 C 23.4 18.2 22.9 17.5 22.9 16.7 C 22.9 16.0 23.4 15.2 24.4 15.2 L 32.2 15.2 L 32.2 -2.5 C 32.2 -3.5 33.1 -4.0 34.0 -4.0 C 34.9 -4.0 35.8 -3.5 35.8 -2.5 Z " transform="scale(1,-1)" stroke-dasharray="107.39407544256875" stroke-dashoffset="107.39407544256875"><animate attributeName="stroke-dashoffset" from="107.39407544256875" to="0" dur="3.2218222632770623s" begin="0s; 15s; 30s; 45s; 60s" fill="freeze" id="anim0" /></path><path d="M 35.8 25.6 L 35.8 31.6 L 42.4 31.6 C 43.4 31.6 43.8 32.4 43.8 33.1 C 43.8 33.9 43.4 34.6 42.4 34.6 L 35.8 34.6 L 35.8 40.2 C 35.8 41.4 34.9 41.9 34.0 41.9 C 33.1 41.9 32.2 41.4 32.2 40.2 L 32.2 25.6 L 24.2 25.6 C 23.2 25.6 22.7 24.8 22.7 24.0 C 22.7 23.2 23.2 22.5 24.2 22.5 L 46.0 22.5 C 47.0 22.5 47.4 23.2 47.4 24.0 C 47.4 24.8 47.0 25.6 46.0 25.6 Z " transform="scale(1,-1)" stroke-dasharray="99.19310303346859" stroke-dashoffset="99.19310303346859"><animate attributeName="stroke-dashoffset" from="99.19310303346859" to="0" dur="2.9757930910040575s" begin="anim0.end" fill="freeze" id="anim1" /></path><path d="M 14.2 8.4 L 14.2 39.9 C 14.2 40.9 13.4 41.5 12.6 41.5 C 11.7 41.5 10.9 40.9 10.9 39.9 L 10.9 8.4 L 9.2 8.4 C 7.9 8.4 7.5 8.8 7.5 10.6 L 7.5 31.7 C 7.5 32.8 6.7 33.2 5.8 33.2 C 5.0 33.2 4.1 32.8 4.1 31.7 L 4.1 10.0 C 4.1 6.6 5.9 5.3 8.8 5.3 L 16.3 5.3 C 19.3 5.3 21.1 6.6 21.1 10.0 L 21.1 31.7 C 21.1 32.8 20.2 33.2 19.4 33.2 C 18.5 33.2 17.7 32.8 17.7 31.7 L 17.7 10.6 C 17.7 8.8 17.3 8.4 16.0 8.4 Z" transform="scale(1,-1)" stroke-dasharray="196.95772010231005" stroke-dashoffset="196.95772010231005"><animate attributeName="stroke-dashoffset" from="196.95772010231005" to="0" dur="5.908731603069302s" begin="anim1.end" fill="freeze" id="anim_end" /></path></g></svg>