<?xml version='1.0' encoding='utf-8'?>
<svg viewBox="0 -44.0 50.0 50.0" version="1.1" xmlns="http://www.w3.org/2000/svg"><rect x="-1000" y="-1000" width="2000" height="2000" stroke="white" fill="white" /><g style="fill:none;stroke:#000000;stroke-width:1"><path d="M 23.2 38.2 L 11.7 38.2 C 7.7 38.2 6.2 36.8 6.2 34.1 L 6.2 26.6 C 6.2 23.9 7.7 22.5 11.7 22.5 L 38.6 22.5 C 42.6 22.5 44.1 23.9 44.1 26.6 L 44.1 34.1 C 44.1 36.8 42.6 38.2 38.6 38.2 L 26.7 38.2 L 26.7 40.4 C 26.7 41.4 25.8 42.0 24.9 42.0 C 24.1 42.0 23.2 41.4 23.2 40.4 Z " transform="scale(1,-1)" stroke-dasharray="106.51187314608869" stroke-dashoffset="106.51187314608869"><animate attributeName="stroke-dashoffset" from="106.51187314608869" to="0" dur="3.1953561943826605s" begin="0s; 15s; 30s; 45s; 60s" fill="freeze" id="anim0" /></path><path d="M 12.2 25.4 C 10.2 25.4 9.7 25.9 9.7 27.2 L 9.7 29.0 L 23.2 29.0 L 23.2 25.4 Z " transform="scale(1,-1)" stroke-dasharray="33.506869500697704" stroke-dashoffset="33.506869500697704"><animate attributeName="stroke-dashoffset" from="33.506869500697704" to="0" dur="1.005206085020931s" begin="anim0.end" fill="freeze" id="anim1" /></path><path d="M 9.7 31.8 L 9.7 33.5 C 9.7 34.8 10.2 35.3 12.2 35.3 L 23.2 35.3 L 23.2 31.8 Z " transform="scale(1,-1)" stroke-dasharray="33.306869500697694" stroke-dashoffset="33.306869500697694"><animate attributeName="stroke-dashoffset" from="33.306869500697694" to="0" dur="0.9992060850209308s" begin="anim1.end" fill="freeze" id="anim2" /></path><path d="M 26.7 35.3 L 38.1 35.3 C 40.1 35.3 40.6 34.8 40.6 33.5 L 40.6 31.8 L 26.7 31.8 Z " transform="scale(1,-1)" stroke-dasharray="34.1068695006977" stroke-dashoffset="34.1068695006977"><animate attributeName="stroke-dashoffset" from="34.1068695006977" to="0" dur="1.0232060850209308s" begin="anim2.end" fill="freeze" id="anim3" /></path><path d="M 40.6 29.0 L 40.6 27.2 C 40.6 25.9 40.1 25.4 38.1 25.4 L 26.7 25.4 L 26.7 29.0 Z " transform="scale(1,-1)" stroke-dasharray="34.30686950069771" stroke-dashoffset="34.30686950069771"><animate attributeName="stroke-dashoffset" from="34.30686950069771" to="0" dur="1.0292060850209312s" begin="anim3.end" fill="freeze" id="anim4" /></path><path d="M 10.5 -3.0 C 10.5 -3.9 11.4 -4.4 12.2 -4.4 C 13.2 -4.4 14.1 -3.9 14.1 -3.0 L 14.1 14.7 C 14.1 16.0 14.5 16.6 16.6 16.6 L 33.8 16.6 C 35.8 16.6 36.2 16.0 36.2 14.7 L 36.2 0.6 C 36.2 -0.7 35.8 -1.1 34.8 -1.1 C 34.1 -1.1 33.2 -1.0 32.5 -0.9 C 31.2 -0.6 30.5 -1.5 30.5 -2.4 C 30.5 -3.0 30.9 -3.7 31.8 -3.9 C 32.8 -4.1 33.7 -4.2 35.0 -4.2 C 37.9 -4.2 39.9 -3.1 39.9 0.1 L 39.9 15.2 C 39.9 17.9 38.6 19.5 34.4 19.5 L 15.9 19.5 C 11.7 19.5 10.5 17.9 10.5 15.2 Z " transform="scale(1,-1)" stroke-dasharray="149.85735462809916" stroke-dashoffset="149.85735462809916"><animate attributeName="stroke-dashoffset" from="149.85735462809916" to="0" dur="4.4957206388429745s" begin="anim4.end" fill="freeze" id="anim5" /></path><path d="M 33.2 10.3 C 34.1 10.3 34.5 11.1 34.5 11.8 C 34.5 12.5 34.1 13.2 33.2 13.2 L 17.2 13.2 C 16.3 13.2 15.9 12.5 15.9 11.8 C 15.9 11.1 16.3 10.3 17.2 10.3 Z " transform="scale(1,-1)" stroke-dasharray="40.74443824680249" stroke-dashoffset="40.74443824680249"><animate attributeName="stroke-dashoffset" from="40.74443824680249" to="0" dur="1.2223331474040746s" begin="anim5.end" fill="freeze" id="anim6" /></path><path d="M 33.2 4.0 C 34.1 4.0 34.5 4.8 34.5 5.5 C 34.5 6.2 34.1 6.9 33.2 6.9 L 17.2 6.9 C 16.3 6.9 15.9 6.2 15.9 5.5 C 15.9 4.8 16.3 4.0 17.2 4.0 Z" transform="scale(1,-1)" stroke-dasharray="40.74443824680249" stroke-dashoffset="40.74443824680249"><animate attributeName="stroke-dashoffset" from="40.74443824680249" to="0" dur="1.2223331474040746s" begin="anim6.end" fill="freeze" id="anim_end" /></path></g></svg>