<?xml version='1.0' encoding='utf-8'?>
<svg viewBox="0 -44.0 50.0 50.0" version="1.1" xmlns="http://www.w3.org/2000/svg"><rect x="-1000" y="-1000" width="2000" height="2000" stroke="white" fill="white" /><g style="fill:none;stroke:#000000;stroke-width:1"><path d="M 40.5 -3.2 C 43.9 -3.2 45.1 -1.9 45.1 1.1 L 45.1 8.2 C 45.1 11.2 43.9 12.7 40.5 12.7 L 34.1 12.7 C 30.7 12.7 29.5 11.2 29.5 8.2 L 29.5 1.1 C 29.6 -2.2 31.0 -3.2 34.1 -3.2 Z " transform="scale(1,-1)" stroke-dasharray="56.581438184951395" stroke-dashoffset="56.581438184951395"><animate attributeName="stroke-dashoffset" from="56.581438184951395" to="0" dur="1.6974431455485417s" begin="0s; 15s; 30s; 45s; 60s" fill="freeze" id="anim0" /></path><path d="M 34.9 -0.5 C 33.1 -0.5 32.6 -0.1 32.6 1.2 L 32.6 3.4 L 42.0 3.4 L 42.0 1.2 C 42.0 -0.4 41.1 -0.4 39.8 -0.5 Z " transform="scale(1,-1)" stroke-dasharray="25.31238882660448" stroke-dashoffset="25.31238882660448"><animate attributeName="stroke-dashoffset" from="25.31238882660448" to="0" dur="0.7593716647981343s" begin="anim0.end" fill="freeze" id="anim1" /></path><path d="M 42.0 6.2 L 32.6 6.2 L 32.6 8.2 C 32.6 9.5 33.1 9.9 34.9 9.9 L 39.8 9.9 C 41.6 9.9 42.0 9.5 42.0 8.2 Z " transform="scale(1,-1)" stroke-dasharray="24.960327852003836" stroke-dashoffset="24.960327852003836"><animate attributeName="stroke-dashoffset" from="24.960327852003836" to="0" dur="0.748809835560115s" begin="anim1.end" fill="freeze" id="anim2" /></path><path d="M 8.7 11.9 C 11.2 11.9 12.3 13.0 12.3 15.9 L 12.3 35.1 C 12.3 38.0 11.2 39.1 8.7 39.1 L 6.3 39.1 C 3.9 39.1 2.7 38.0 2.7 35.1 L 2.7 15.9 C 2.8 13.2 3.6 12.0 6.3 11.9 Z " transform="scale(1,-1)" stroke-dasharray="68.11915928218728" stroke-dashoffset="68.11915928218728"><animate attributeName="stroke-dashoffset" from="68.11915928218728" to="0" dur="2.0435747784656186s" begin="anim2.end" fill="freeze" id="anim3" /></path><path d="M 7.0 14.7 C 6.1 14.7 5.8 15.0 5.8 16.2 L 5.8 34.7 C 5.8 36.0 6.1 36.2 7.0 36.2 L 8.1 36.2 C 9.0 36.2 9.3 36.0 9.3 34.7 L 9.3 16.2 C 9.3 15.2 9.2 14.7 8.1 14.7 Z " transform="scale(1,-1)" stroke-dasharray="48.338041704524684" stroke-dashoffset="48.338041704524684"><animate attributeName="stroke-dashoffset" from="48.338041704524684" to="0" dur="1.4501412511357405s" begin="anim3.end" fill="freeze" id="anim4" /></path><path d="M 21.7 8.1 C 24.8 8.1 26.0 9.2 26.0 12.3 L 26.0 30.6 C 26.1 30.0 26.6 29.6 27.2 29.6 C 27.7 29.6 28.2 29.8 28.8 30.3 C 30.2 31.6 31.9 33.8 33.0 35.5 C 33.2 35.9 33.3 36.2 33.3 36.6 C 33.3 37.5 32.5 38.1 31.7 38.1 C 31.1 38.1 30.5 37.8 30.1 37.1 C 29.2 35.4 27.8 33.6 26.5 32.3 C 26.2 32.0 26.1 31.7 26.0 31.4 L 26.0 36.1 C 26.0 39.2 24.8 40.4 21.7 40.4 L 19.2 40.4 C 16.2 40.4 15.0 39.2 15.0 36.1 L 15.0 12.3 C 15.1 9.2 16.2 8.1 19.2 8.1 Z " transform="scale(1,-1)" stroke-dasharray="102.64972132301236" stroke-dashoffset="102.64972132301236"><animate attributeName="stroke-dashoffset" from="102.64972132301236" to="0" dur="3.0794916396903704s" begin="anim4.end" fill="freeze" id="anim5" /></path><path d="M 19.7 11.0 C 18.4 11.0 18.1 11.2 18.1 12.8 L 18.1 18.5 L 22.9 18.5 L 22.9 12.8 C 22.9 11.5 22.7 11.0 21.2 11.0 Z " transform="scale(1,-1)" stroke-dasharray="23.58379650597068" stroke-dashoffset="23.58379650597068"><animate attributeName="stroke-dashoffset" from="23.58379650597068" to="0" dur="0.7075138951791203s" begin="anim5.end" fill="freeze" id="anim6" /></path><path d="M 18.1 28.0 L 22.9 28.0 L 22.9 21.4 L 18.1 21.4 Z " transform="scale(1,-1)" stroke-dasharray="22.799999999999997" stroke-dashoffset="22.799999999999997"><animate attributeName="stroke-dashoffset" from="22.799999999999997" to="0" dur="0.6839999999999999s" begin="anim6.end" fill="freeze" id="anim7" /></path><path d="M 22.9 30.9 L 18.1 30.9 L 18.1 35.6 C 18.1 37.2 18.4 37.4 19.7 37.4 L 21.2 37.4 C 22.5 37.4 22.9 37.2 22.9 35.6 Z " transform="scale(1,-1)" stroke-dasharray="21.60635051462974" stroke-dashoffset="21.60635051462974"><animate attributeName="stroke-dashoffset" from="21.60635051462974" to="0" dur="0.6481905154388922s" begin="anim7.end" fill="freeze" id="anim8" /></path><path d="M 34.1 25.1 C 33.8 25.7 33.4 25.9 32.9 25.9 C 32.4 25.9 31.8 25.5 31.8 24.9 C 31.8 24.7 31.9 24.6 31.9 24.4 C 32.2 23.6 32.6 22.2 33.0 21.1 C 33.1 20.4 33.6 20.1 34.1 20.1 C 34.8 20.1 35.4 20.7 35.2 21.6 C 35.0 22.9 34.4 24.4 34.1 25.1 Z " transform="scale(1,-1)" stroke-dasharray="14.637644308634098" stroke-dashoffset="14.637644308634098"><animate attributeName="stroke-dashoffset" from="14.637644308634098" to="0" dur="0.4391293292590229s" begin="anim8.end" fill="freeze" id="anim9" /></path><path d="M 40.4 25.2 C 40.1 24.0 39.7 22.7 39.2 21.8 C 39.2 21.6 39.1 21.4 39.1 21.2 C 39.1 20.6 39.6 20.2 40.2 20.2 C 40.6 20.2 41.0 20.4 41.2 20.9 C 41.7 21.8 42.2 23.2 42.6 24.6 C 42.8 25.4 42.1 26.0 41.4 26.0 C 41.0 26.0 40.6 25.8 40.4 25.2 Z " transform="scale(1,-1)" stroke-dasharray="14.657923804456267" stroke-dashoffset="14.657923804456267"><animate attributeName="stroke-dashoffset" from="14.657923804456267" to="0" dur="0.439737714133688s" begin="anim9.end" fill="freeze" id="anim10" /></path><path d="M 42.1 15.4 C 44.7 15.4 46.1 16.6 46.1 19.1 L 46.1 26.8 C 46.1 29.3 44.7 30.5 42.1 30.5 L 32.4 30.5 C 29.8 30.5 28.4 29.3 28.4 26.8 L 28.4 19.1 C 28.5 16.4 29.9 15.5 32.4 15.4 Z " transform="scale(1,-1)" stroke-dasharray="59.74183726783096" stroke-dashoffset="59.74183726783096"><animate attributeName="stroke-dashoffset" from="59.74183726783096" to="0" dur="1.7922551180349287s" begin="anim10.end" fill="freeze" id="anim11" /></path><path d="M 38.5 27.9 L 41.6 27.9 C 42.9 27.9 43.2 27.6 43.2 26.4 L 43.2 19.6 C 43.2 18.2 42.8 18.0 41.6 18.0 L 38.5 18.0 Z " transform="scale(1,-1)" stroke-dasharray="28.241425554391487" stroke-dashoffset="28.241425554391487"><animate attributeName="stroke-dashoffset" from="28.241425554391487" to="0" dur="0.8472427666317446s" begin="anim11.end" fill="freeze" id="anim12" /></path><path d="M 35.8 27.9 L 35.8 18.0 L 32.9 18.0 C 31.6 18.0 31.2 18.4 31.2 19.6 L 31.2 26.4 C 31.2 27.6 31.6 27.9 32.9 27.9 Z " transform="scale(1,-1)" stroke-dasharray="27.9438083651875" stroke-dashoffset="27.9438083651875"><animate attributeName="stroke-dashoffset" from="27.9438083651875" to="0" dur="0.838314250955625s" begin="anim12.end" fill="freeze" id="anim13" /></path><path d="M 35.8 40.1 C 34.8 40.1 34.4 39.3 34.4 38.6 C 34.4 37.8 34.9 37.0 35.8 37.0 L 39.2 37.0 C 40.2 37.0 40.8 36.6 41.2 35.9 C 42.2 34.1 44.1 31.8 45.9 30.1 C 46.4 29.6 46.9 29.3 47.4 29.3 C 48.2 29.3 48.9 30.1 48.9 31.0 C 48.9 31.5 48.7 32.1 48.1 32.6 C 46.6 34.1 44.6 36.2 43.4 38.1 C 42.5 39.6 41.2 40.1 39.6 40.1 Z " transform="scale(1,-1)" stroke-dasharray="39.64404860804471" stroke-dashoffset="39.64404860804471"><animate attributeName="stroke-dashoffset" from="39.64404860804471" to="0" dur="1.1893214582413414s" begin="anim13.end" fill="freeze" id="anim14" /></path><path d="M 24.2 6.2 C 23.9 6.7 23.4 6.9 22.9 6.9 C 22.2 6.9 21.5 6.4 21.5 5.6 C 21.5 5.3 21.5 5.0 21.7 4.7 C 22.4 3.4 23.2 1.8 23.8 0.1 C 24.0 -0.8 24.6 -1.1 25.2 -1.1 C 26.1 -1.1 26.9 -0.5 26.9 0.6 C 26.9 0.9 26.8 1.2 26.7 1.5 C 26.1 3.1 25.2 4.9 24.2 6.2 Z " transform="scale(1,-1)" stroke-dasharray="20.654920827616895" stroke-dashoffset="20.654920827616895"><animate attributeName="stroke-dashoffset" from="20.654920827616895" to="0" dur="0.6196476248285068s" begin="anim14.end" fill="freeze" id="anim15" /></path><path d="M 16.3 5.7 C 15.3 3.6 14.0 1.5 12.8 -0.1 C 12.4 -0.6 12.2 -1.1 12.2 -1.5 C 12.2 -2.3 12.9 -3.0 13.8 -3.0 C 14.4 -3.0 15.0 -2.7 15.5 -2.0 C 16.8 -0.4 18.4 2.2 19.3 4.2 C 19.5 4.5 19.5 4.8 19.5 5.1 C 19.5 6.0 18.7 6.6 17.8 6.6 C 17.2 6.6 16.7 6.4 16.3 5.7 Z" transform="scale(1,-1)" stroke-dasharray="25.420915066328785" stroke-dashoffset="25.420915066328785"><animate attributeName="stroke-dashoffset" from="25.420915066328785" to="0" dur="0.7626274519898635s" begin="anim15.end" fill="freeze" id="anim_end" /></path></g></svg>