<?xml version='1.0' encoding='utf-8'?>
<svg viewBox="0 -44.0 50.0 50.0" version="1.1" xmlns="http://www.w3.org/2000/svg"><rect x="-1000" y="-1000" width="2000" height="2000" stroke="white" fill="white" /><g style="fill:none;stroke:#000000;stroke-width:1"><path d="M 22.3 13.0 C 21.4 13.0 20.9 12.2 20.9 11.4 C 20.9 10.7 21.4 10.0 22.3 10.0 L 28.1 10.1 C 26.5 5.1 23.4 1.7 18.8 -0.7 C 18.0 -1.1 17.7 -1.7 17.7 -2.2 C 17.7 -3.1 18.4 -3.8 19.4 -3.8 C 19.6 -3.8 19.9 -3.8 20.2 -3.6 C 26.1 -0.8 29.8 3.8 31.6 10.1 L 37.1 10.2 C 38.6 10.2 39.0 9.9 39.0 8.7 C 38.9 6.7 38.5 4.7 38.0 3.1 C 37.4 1.1 36.5 0.6 35.2 0.6 C 34.4 0.6 33.6 0.7 32.7 0.9 C 32.5 0.9 32.3 1.0 32.1 1.0 C 31.1 1.0 30.5 0.2 30.5 -0.7 C 30.5 -1.4 30.9 -2.1 32.0 -2.4 C 32.9 -2.7 34.1 -2.8 35.3 -2.8 C 38.1 -2.8 40.1 -1.7 41.2 2.1 C 41.8 4.2 42.2 6.4 42.3 9.0 C 42.5 11.8 41.1 13.2 37.6 13.2 L 32.2 13.1 C 32.4 14.3 32.6 15.5 32.6 16.8 C 32.8 17.9 31.8 18.6 31.0 18.6 C 30.2 18.6 29.4 18.1 29.3 17.1 C 29.2 15.7 29.1 14.3 28.8 13.1 Z " transform="scale(1,-1)" stroke-dasharray="126.27375497793959" stroke-dashoffset="126.27375497793959"><animate attributeName="stroke-dashoffset" from="126.27375497793959" to="0" dur="3.7882126493381874s" begin="0s; 15s; 30s; 45s; 60s" fill="freeze" id="anim0" /></path><path d="M 37.5 21.3 C 39.6 18.2 42.1 15.6 45.2 13.2 C 45.6 12.9 46.1 12.8 46.5 12.8 C 47.4 12.8 48.2 13.6 48.2 14.5 C 48.2 15.1 47.9 15.7 47.1 16.2 C 44.9 17.8 43.0 19.4 41.2 21.3 L 45.9 21.3 C 46.9 21.3 47.4 22.1 47.4 22.8 C 47.4 23.6 46.9 24.3 45.9 24.3 L 39.0 24.3 C 38.1 25.7 37.4 27.2 36.7 28.7 L 43.9 28.7 C 44.9 28.7 45.4 29.4 45.4 30.2 C 45.4 30.9 44.9 31.7 43.9 31.7 L 31.9 31.7 C 32.6 34.2 33.1 36.9 33.5 39.7 C 33.6 41.0 32.7 41.7 31.9 41.7 C 31.1 41.7 30.3 41.2 30.2 40.1 C 29.9 37.1 29.4 34.3 28.6 31.7 L 21.6 31.7 C 20.7 31.7 20.2 30.9 20.2 30.2 C 20.2 29.4 20.7 28.7 21.6 28.7 L 27.6 28.7 C 27.1 27.2 26.4 25.7 25.6 24.3 L 19.3 24.3 C 18.4 24.3 17.9 23.6 17.9 22.8 C 17.9 22.1 18.4 21.3 19.4 21.3 L 23.7 21.3 C 22.1 19.0 20.2 17.0 18.0 15.3 C 17.4 14.9 17.2 14.4 17.2 13.9 C 17.2 13.1 17.9 12.5 18.7 12.5 C 19.0 12.5 19.4 12.6 19.8 12.9 C 22.8 15.2 25.3 18.1 27.4 21.3 Z " transform="scale(1,-1)" stroke-dasharray="165.3196845055791" stroke-dashoffset="165.3196845055791"><animate attributeName="stroke-dashoffset" from="165.3196845055791" to="0" dur="4.959590535167372s" begin="anim0.end" fill="freeze" id="anim1" /></path><path d="M 29.1 24.3 C 29.8 25.7 30.4 27.2 30.9 28.7 L 33.8 28.7 C 34.4 27.2 35.0 25.7 35.8 24.3 Z " transform="scale(1,-1)" stroke-dasharray="19.195239480624565" stroke-dashoffset="19.195239480624565"><animate attributeName="stroke-dashoffset" from="19.195239480624565" to="0" dur="0.5758571844187369s" begin="anim1.end" fill="freeze" id="anim2" /></path><path d="M 12.9 13.8 L 12.9 2.4 C 12.9 1.1 12.5 0.8 11.5 0.8 C 11.0 0.8 10.5 0.9 9.9 1.0 C 8.7 1.2 8.0 0.3 8.0 -0.7 C 8.0 -1.4 8.4 -2.1 9.3 -2.3 C 10.2 -2.5 10.9 -2.6 11.9 -2.6 C 14.5 -2.6 16.1 -1.2 16.1 2.0 L 16.1 35.6 C 16.1 38.8 14.8 40.0 11.7 40.0 L 9.1 40.0 C 6.0 40.0 4.7 38.8 4.7 35.6 L 4.7 23.7 C 4.7 11.2 3.7 4.7 1.9 0.0 C 1.8 -0.4 1.8 -0.7 1.8 -0.9 C 1.8 -1.9 2.5 -2.5 3.2 -2.5 C 4.0 -2.5 4.7 -2.1 5.0 -1.1 C 6.4 2.5 7.2 7.0 7.7 13.8 Z " transform="scale(1,-1)" stroke-dasharray="143.18133386656538" stroke-dashoffset="143.18133386656538"><animate attributeName="stroke-dashoffset" from="143.18133386656538" to="0" dur="4.295440015996961s" begin="anim2.end" fill="freeze" id="anim3" /></path><path d="M 12.9 28.5 L 7.9 28.5 L 7.9 35.1 C 7.9 36.6 8.2 37.0 9.5 37.0 L 11.3 37.0 C 12.6 37.0 12.9 36.6 12.9 35.1 Z " transform="scale(1,-1)" stroke-dasharray="25.92336394925541" stroke-dashoffset="25.92336394925541"><animate attributeName="stroke-dashoffset" from="25.92336394925541" to="0" dur="0.7777009184776623s" begin="anim3.end" fill="freeze" id="anim4" /></path><path d="M 12.9 25.6 L 12.9 16.8 L 7.8 16.8 C 7.9 19.1 7.9 21.4 7.9 23.7 L 7.9 25.6 Z " transform="scale(1,-1)" stroke-dasharray="27.701304005593602" stroke-dashoffset="27.701304005593602"><animate attributeName="stroke-dashoffset" from="27.701304005593602" to="0" dur="0.831039120167808s" begin="anim4.end" fill="freeze" id="anim5" /></path><path d="M 23.9 39.2 C 23.4 39.7 23.0 39.8 22.5 39.8 C 21.7 39.8 20.9 39.2 20.9 38.4 C 20.9 38.1 21.0 37.8 21.2 37.5 C 22.1 36.5 23.0 35.4 23.8 33.9 C 24.2 33.2 24.7 33.0 25.2 33.0 C 26.1 33.0 26.9 33.6 26.9 34.5 C 26.9 34.8 26.8 35.2 26.6 35.6 C 25.9 36.8 24.8 38.2 23.9 39.2 Z " transform="scale(1,-1)" stroke-dasharray="19.273056124106326" stroke-dashoffset="19.273056124106326"><animate attributeName="stroke-dashoffset" from="19.273056124106326" to="0" dur="0.5781916837231897s" begin="anim5.end" fill="freeze" id="anim6" /></path><path d="M 39.3 33.5 C 40.2 34.7 41.2 36.5 41.9 38.0 C 42.0 38.2 42.1 38.6 42.1 38.8 C 42.1 39.7 41.3 40.2 40.5 40.2 C 40.0 40.2 39.4 40.0 39.1 39.3 C 38.3 37.6 37.6 36.3 36.7 35.0 C 36.5 34.6 36.4 34.3 36.4 34.0 C 36.4 33.2 37.1 32.6 37.9 32.6 C 38.4 32.6 38.9 32.9 39.3 33.5 Z" transform="scale(1,-1)" stroke-dasharray="20.176627878951216" stroke-dashoffset="20.176627878951216"><animate attributeName="stroke-dashoffset" from="20.176627878951216" to="0" dur="0.6052988363685364s" begin="anim6.end" fill="freeze" id="anim_end" /></path></g></svg>