<?xml version='1.0' encoding='utf-8'?>
<svg viewBox="0 -44.0 50.0 50.0" version="1.1" xmlns="http://www.w3.org/2000/svg"><rect x="-1000" y="-1000" width="2000" height="2000" stroke="white" fill="white" /><g style="fill:none;stroke:#000000;stroke-width:1"><path d="M 26.6 34.5 L 26.6 40.9 C 26.6 42.0 25.7 42.5 24.8 42.5 C 24.0 42.5 23.1 42.0 23.1 40.9 L 23.1 34.5 L 12.7 34.5 C 11.0 34.5 10.7 34.8 10.7 35.9 L 10.7 39.2 C 10.7 40.2 9.8 40.8 8.9 40.8 C 8.1 40.8 7.2 40.2 7.2 39.2 L 7.2 35.1 C 7.2 32.7 8.6 31.7 11.8 31.7 L 38.4 31.7 C 41.6 31.7 43.0 32.7 43.0 35.1 L 43.0 39.2 C 43.0 40.2 42.2 40.8 41.2 40.8 C 40.4 40.8 39.5 40.2 39.5 39.2 L 39.5 35.9 C 39.5 34.8 39.2 34.5 37.5 34.5 Z " transform="scale(1,-1)" stroke-dasharray="110.366198510544" stroke-dashoffset="110.366198510544"><animate attributeName="stroke-dashoffset" from="110.366198510544" to="0" dur="3.31098595531632s" begin="0s; 15s; 30s; 45s; 60s" fill="freeze" id="anim0" /></path><path d="M 12.8 17.7 L 12.8 13.1 L 6.2 13.1 C 5.2 13.1 4.8 12.4 4.8 11.6 C 4.8 10.9 5.2 10.2 6.2 10.2 L 23.2 10.2 L 23.2 6.2 L 7.0 6.2 C 6.1 6.2 5.7 5.5 5.7 4.7 C 5.7 4.0 6.1 3.2 7.0 3.2 L 23.2 3.2 L 23.2 -3.1 C 23.2 -4.0 24.1 -4.5 24.9 -4.5 C 25.7 -4.5 26.5 -4.0 26.5 -3.1 L 26.5 3.2 L 43.2 3.2 C 44.2 3.2 44.6 4.0 44.6 4.7 C 44.6 5.5 44.2 6.2 43.2 6.2 L 26.5 6.2 L 26.5 10.2 L 43.8 10.2 C 44.7 10.2 45.2 10.9 45.2 11.6 C 45.2 12.4 44.7 13.1 43.8 13.1 L 37.2 13.1 L 37.2 17.7 L 46.8 17.7 C 47.7 17.7 48.1 18.4 48.1 19.2 C 48.1 19.9 47.7 20.6 46.8 20.6 L 37.2 20.6 L 37.2 25.1 L 43.6 25.1 C 44.5 25.1 44.9 25.9 44.9 26.6 C 44.9 27.3 44.5 28.0 43.6 28.0 L 6.4 28.0 C 5.5 28.0 5.1 27.3 5.1 26.6 C 5.1 25.9 5.5 25.1 6.4 25.1 L 12.8 25.1 L 12.8 20.6 L 3.2 20.6 C 2.4 20.6 1.9 19.9 1.9 19.2 C 1.9 18.4 2.4 17.7 3.2 17.7 Z " transform="scale(1,-1)" stroke-dasharray="280.97322646941484" stroke-dashoffset="280.97322646941484"><animate attributeName="stroke-dashoffset" from="280.97322646941484" to="0" dur="8.429196794082445s" begin="anim0.end" fill="freeze" id="anim1" /></path><path d="M 16.1 17.7 L 23.2 17.7 L 23.2 13.1 L 16.1 13.1 Z " transform="scale(1,-1)" stroke-dasharray="23.399999999999995" stroke-dashoffset="23.399999999999995"><animate attributeName="stroke-dashoffset" from="23.399999999999995" to="0" dur="0.7019999999999998s" begin="anim1.end" fill="freeze" id="anim2" /></path><path d="M 26.5 17.7 L 33.9 17.7 L 33.9 13.1 L 26.5 13.1 Z " transform="scale(1,-1)" stroke-dasharray="23.999999999999996" stroke-dashoffset="23.999999999999996"><animate attributeName="stroke-dashoffset" from="23.999999999999996" to="0" dur="0.7199999999999999s" begin="anim2.end" fill="freeze" id="anim3" /></path><path d="M 33.9 20.6 L 26.5 20.6 L 26.5 25.1 L 33.9 25.1 Z " transform="scale(1,-1)" stroke-dasharray="23.799999999999997" stroke-dashoffset="23.799999999999997"><animate attributeName="stroke-dashoffset" from="23.799999999999997" to="0" dur="0.7139999999999999s" begin="anim3.end" fill="freeze" id="anim4" /></path><path d="M 23.2 20.6 L 16.1 20.6 L 16.1 25.1 L 23.2 25.1 Z" transform="scale(1,-1)" stroke-dasharray="23.199999999999996" stroke-dashoffset="23.199999999999996"><animate attributeName="stroke-dashoffset" from="23.199999999999996" to="0" dur="0.6959999999999998s" begin="anim4.end" fill="freeze" id="anim_end" /></path></g></svg>