<?xml version='1.0' encoding='utf-8'?>
<svg viewBox="0 -44.0 50.0 50.0" version="1.1" xmlns="http://www.w3.org/2000/svg"><rect x="-1000" y="-1000" width="2000" height="2000" stroke="white" fill="white" /><g style="fill:none;stroke:#000000;stroke-width:1"><path d="M 8.6 35.2 L 8.6 26.2 L 8.6 23.2 L 3.3 23.2 C 2.4 23.2 1.9 22.5 1.9 21.7 C 1.9 20.9 2.4 20.1 3.3 20.1 L 8.5 20.1 C 8.0 10.5 6.4 4.2 3.2 -0.2 C 2.9 -0.7 2.8 -1.2 2.8 -1.6 C 2.8 -2.5 3.6 -3.2 4.5 -3.2 C 5.1 -3.2 5.8 -2.9 6.3 -2.1 C 9.7 2.5 11.6 9.5 12.1 20.1 L 18.0 20.1 L 18.0 -2.2 C 18.0 -3.2 18.9 -3.8 19.8 -3.8 C 20.7 -3.8 21.6 -3.2 21.6 -2.2 L 21.6 20.1 L 26.4 20.1 C 27.4 20.1 27.9 20.9 27.9 21.7 C 27.9 22.5 27.4 23.2 26.4 23.2 L 21.6 23.2 L 21.6 35.2 L 25.4 35.2 C 26.4 35.2 26.9 36.1 26.9 36.9 C 26.9 37.6 26.4 38.5 25.4 38.5 L 4.8 38.5 C 3.9 38.5 3.4 37.6 3.4 36.9 C 3.4 36.1 3.9 35.2 4.8 35.2 Z " transform="scale(1,-1)" stroke-dasharray="198.2512874579124" stroke-dashoffset="198.2512874579124"><animate attributeName="stroke-dashoffset" from="198.2512874579124" to="0" dur="5.947538623737372s" begin="0s; 15s; 30s; 45s; 60s" fill="freeze" id="anim0" /></path><path d="M 12.2 23.2 L 12.2 26.1 L 12.2 35.2 L 18.0 35.2 L 18.0 23.2 Z " transform="scale(1,-1)" stroke-dasharray="35.60000000000001" stroke-dashoffset="35.60000000000001"><animate attributeName="stroke-dashoffset" from="35.60000000000001" to="0" dur="1.0680000000000003s" begin="anim0.end" fill="freeze" id="anim1" /></path><path d="M 44.5 14.7 C 40.6 9.0 34.0 3.5 27.5 0.1 C 26.6 -0.4 26.2 -1.0 26.2 -1.6 C 26.2 -2.5 27.0 -3.2 28.0 -3.2 C 28.2 -3.2 28.6 -3.2 28.9 -3.0 C 36.2 0.7 43.0 6.2 47.5 12.7 C 47.8 13.1 48.0 13.6 48.0 13.9 C 48.0 15.0 47.1 15.7 46.2 15.7 C 45.6 15.7 45.0 15.4 44.5 14.7 Z " transform="scale(1,-1)" stroke-dasharray="59.254897908267566" stroke-dashoffset="59.254897908267566"><animate attributeName="stroke-dashoffset" from="59.254897908267566" to="0" dur="1.7776469372480268s" begin="anim1.end" fill="freeze" id="anim2" /></path><path d="M 40.3 39.7 C 37.1 34.8 33.1 30.6 28.5 27.5 C 27.9 27.1 27.6 26.6 27.6 26.1 C 27.6 25.2 28.4 24.4 29.4 24.4 C 29.7 24.4 30.1 24.5 30.4 24.8 C 35.5 28.1 39.9 32.6 43.4 37.9 C 43.6 38.2 43.7 38.6 43.7 39.0 C 43.7 40.0 42.9 40.7 42.0 40.7 C 41.4 40.7 40.8 40.4 40.3 39.7 Z " transform="scale(1,-1)" stroke-dasharray="47.13799929037761" stroke-dashoffset="47.13799929037761"><animate attributeName="stroke-dashoffset" from="47.13799929037761" to="0" dur="1.4141399787113282s" begin="anim2.end" fill="freeze" id="anim3" /></path><path d="M 42.9 28.0 C 39.3 22.7 33.9 17.8 28.6 14.7 C 27.8 14.2 27.5 13.6 27.5 13.0 C 27.5 12.2 28.2 11.5 29.2 11.5 C 29.5 11.5 29.9 11.6 30.2 11.8 C 36.2 15.2 41.8 20.2 45.9 26.0 C 46.2 26.4 46.3 26.8 46.3 27.1 C 46.3 28.1 45.4 28.9 44.4 28.9 C 43.9 28.9 43.3 28.7 42.9 28.0 Z" transform="scale(1,-1)" stroke-dasharray="52.64175309987612" stroke-dashoffset="52.64175309987612"><animate attributeName="stroke-dashoffset" from="52.64175309987612" to="0" dur="1.5792525929962835s" begin="anim3.end" fill="freeze" id="anim_end" /></path></g></svg>