<?xml version='1.0' encoding='utf-8'?>
<svg viewBox="0 -44.0 50.0 50.0" version="1.1" xmlns="http://www.w3.org/2000/svg"><rect x="-1000" y="-1000" width="2000" height="2000" stroke="white" fill="white" /><g style="fill:none;stroke:#000000;stroke-width:1"><path d="M 33.1 2.1 L 33.1 20.2 L 44.4 20.2 C 45.4 20.2 45.9 21.1 45.9 21.9 C 45.9 22.7 45.4 23.5 44.4 23.5 L 33.1 23.5 L 33.1 39.0 C 33.1 40.2 32.2 40.7 31.2 40.7 C 30.4 40.7 29.4 40.2 29.4 39.0 L 29.4 23.5 L 19.4 23.5 C 18.4 23.5 17.9 22.7 17.9 21.9 C 17.9 21.1 18.4 20.2 19.4 20.2 L 29.4 20.2 L 29.4 2.1 L 16.1 2.1 C 15.1 2.1 14.6 1.3 14.6 0.5 C 14.6 -0.3 15.1 -1.1 16.2 -1.1 L 46.0 -1.1 C 47.0 -1.1 47.5 -0.3 47.5 0.5 C 47.5 1.3 47.0 2.1 46.0 2.1 Z " transform="scale(1,-1)" stroke-dasharray="191.35639962716593" stroke-dashoffset="191.35639962716593"><animate attributeName="stroke-dashoffset" from="191.35639962716593" to="0" dur="5.740691988814977s" begin="0s; 15s; 30s; 45s; 60s" fill="freeze" id="anim0" /></path><path d="M 9.5 40.2 C 9.2 40.5 8.8 40.6 8.5 40.6 C 7.5 40.6 6.6 39.8 6.6 38.9 C 6.6 38.4 6.9 37.8 7.5 37.4 C 8.5 36.6 10.1 35.0 11.3 33.6 C 11.8 33.0 12.4 32.8 12.9 32.8 C 13.8 32.8 14.6 33.6 14.6 34.6 C 14.6 35.1 14.5 35.6 14.0 36.2 C 12.9 37.6 11.0 39.2 9.5 40.2 Z " transform="scale(1,-1)" stroke-dasharray="23.496499389597748" stroke-dashoffset="23.496499389597748"><animate attributeName="stroke-dashoffset" from="23.496499389597748" to="0" dur="0.7048949816879324s" begin="anim0.end" fill="freeze" id="anim1" /></path><path d="M 10.5 13.4 C 9.1 9.0 6.7 3.9 4.3 0.7 C 4.0 0.2 3.9 -0.2 3.9 -0.7 C 3.9 -1.7 4.7 -2.4 5.7 -2.4 C 6.3 -2.4 7.0 -2.1 7.5 -1.2 C 9.8 2.2 12.5 7.9 13.9 12.2 C 14.0 12.6 14.1 12.9 14.1 13.1 C 14.1 14.2 13.2 14.9 12.3 14.9 C 11.6 14.9 10.8 14.4 10.5 13.4 Z " transform="scale(1,-1)" stroke-dasharray="41.85775817752365" stroke-dashoffset="41.85775817752365"><animate attributeName="stroke-dashoffset" from="41.85775817752365" to="0" dur="1.2557327453257094s" begin="anim1.end" fill="freeze" id="anim2" /></path><path d="M 5.6 28.4 C 5.2 28.6 4.8 28.8 4.4 28.8 C 3.4 28.8 2.6 28.0 2.6 27.1 C 2.6 26.6 2.8 26.0 3.5 25.6 C 4.5 24.8 6.4 23.3 7.7 21.8 C 8.2 21.3 8.7 21.1 9.2 21.1 C 10.1 21.1 10.9 22.0 10.9 23.0 C 10.9 23.5 10.7 24.0 10.2 24.5 C 9.0 25.9 7.0 27.5 5.6 28.4 Z" transform="scale(1,-1)" stroke-dasharray="23.79118429825586" stroke-dashoffset="23.79118429825586"><animate attributeName="stroke-dashoffset" from="23.79118429825586" to="0" dur="0.7137355289476758s" begin="anim2.end" fill="freeze" id="anim_end" /></path></g></svg>