<?xml version='1.0' encoding='utf-8'?>
<svg viewBox="0 -44.0 50.0 50.0" version="1.1" xmlns="http://www.w3.org/2000/svg"><rect x="-1000" y="-1000" width="2000" height="2000" stroke="white" fill="white" /><g style="fill:none;stroke:#000000;stroke-width:1"><path d="M 38.9 29.7 C 42.2 29.7 43.6 31.1 43.6 33.5 L 43.6 36.4 C 43.6 38.8 42.2 40.2 38.9 40.2 L 28.4 40.2 C 25.0 40.2 23.6 38.8 23.6 36.4 L 23.6 33.5 C 23.7 30.5 25.8 29.8 28.4 29.7 Z " transform="scale(1,-1)" stroke-dasharray="54.581834691771775" stroke-dashoffset="54.581834691771775"><animate attributeName="stroke-dashoffset" from="54.581834691771775" to="0" dur="1.6374550407531532s" begin="0s; 15s; 30s; 45s; 60s" fill="freeze" id="anim0" /></path><path d="M 28.9 32.6 C 27.5 32.6 27.0 33.1 27.0 34.0 L 27.0 35.9 C 27.0 36.8 27.5 37.2 28.9 37.2 L 38.4 37.2 C 39.7 37.2 40.2 36.8 40.2 35.9 L 40.2 34.0 C 40.2 32.9 39.4 32.6 38.4 32.6 Z " transform="scale(1,-1)" stroke-dasharray="33.330599655329365" stroke-dashoffset="33.330599655329365"><animate attributeName="stroke-dashoffset" from="33.330599655329365" to="0" dur="0.9999179896598809s" begin="anim0.end" fill="freeze" id="anim1" /></path><path d="M 40.0 4.6 C 43.6 4.6 45.4 5.9 45.4 8.8 L 45.4 22.7 C 45.4 25.7 43.6 27.0 40.0 27.0 L 27.4 27.0 C 23.9 27.0 22.0 25.6 22.0 22.6 L 22.0 8.8 C 22.1 5.5 24.4 4.7 27.4 4.6 Z " transform="scale(1,-1)" stroke-dasharray="84.40953625953435" stroke-dashoffset="84.40953625953435"><animate attributeName="stroke-dashoffset" from="84.40953625953435" to="0" dur="2.5322860877860305s" begin="anim1.end" fill="freeze" id="anim2" /></path><path d="M 28.0 7.6 C 26.1 7.6 25.5 8.0 25.5 9.6 L 25.5 11.4 L 42.0 11.4 L 42.0 9.6 C 41.9 7.8 41.0 7.7 39.5 7.6 Z " transform="scale(1,-1)" stroke-dasharray="39.081194121158376" stroke-dashoffset="39.081194121158376"><animate attributeName="stroke-dashoffset" from="39.081194121158376" to="0" dur="1.1724358236347512s" begin="anim2.end" fill="freeze" id="anim3" /></path><path d="M 25.5 17.7 L 42.0 17.7 L 42.0 14.2 L 25.5 14.2 Z " transform="scale(1,-1)" stroke-dasharray="40.0" stroke-dashoffset="40.0"><animate attributeName="stroke-dashoffset" from="40.0" to="0" dur="1.2s" begin="anim3.end" fill="freeze" id="anim4" /></path><path d="M 42.0 20.5 L 25.5 20.5 L 25.5 22.0 C 25.5 23.6 26.1 24.0 28.0 24.0 L 39.5 24.0 C 41.3 24.0 42.0 23.6 42.0 22.0 Z " transform="scale(1,-1)" stroke-dasharray="38.54980202605271" stroke-dashoffset="38.54980202605271"><animate attributeName="stroke-dashoffset" from="38.54980202605271" to="0" dur="1.1564940607815812s" begin="anim4.end" fill="freeze" id="anim5" /></path><path d="M 10.2 28.6 C 10.8 31.0 11.2 33.5 11.6 35.9 L 19.2 35.9 C 20.2 35.9 20.6 36.7 20.6 37.5 C 20.6 38.2 20.2 39.0 19.2 39.0 L 3.7 39.0 C 2.8 39.0 2.2 38.2 2.2 37.5 C 2.2 36.7 2.8 35.9 3.7 35.9 L 8.2 35.9 C 7.1 28.2 5.0 21.3 2.1 16.9 C 1.8 16.4 1.7 16.1 1.7 15.7 C 1.7 14.9 2.4 14.4 3.1 14.4 C 3.7 14.4 4.2 14.7 4.7 15.3 C 6.6 18.0 8.2 21.6 9.3 25.7 L 13.3 25.7 C 14.8 25.7 15.1 25.2 14.9 23.8 C 14.5 21.0 13.9 18.2 13.1 15.7 C 11.9 16.9 10.8 17.8 10.0 18.3 C 9.7 18.5 9.3 18.6 9.0 18.6 C 8.2 18.6 7.5 17.9 7.5 17.2 C 7.5 16.7 7.8 16.2 8.4 15.7 C 9.1 15.2 10.4 14.1 11.9 12.5 C 10.0 7.9 7.3 3.9 3.9 0.7 C 3.4 0.2 3.2 -0.3 3.2 -0.8 C 3.2 -1.6 3.9 -2.3 4.8 -2.3 C 5.2 -2.3 5.7 -2.1 6.1 -1.7 C 12.6 4.3 17.1 13.3 18.4 23.9 C 18.8 26.9 17.4 28.6 14.0 28.6 Z " transform="scale(1,-1)" stroke-dasharray="171.03178237562565" stroke-dashoffset="171.03178237562565"><animate attributeName="stroke-dashoffset" from="171.03178237562565" to="0" dur="5.13095347126877s" begin="anim5.end" fill="freeze" id="anim6" /></path><path d="M 27.8 3.5 C 25.3 1.9 22.2 0.4 19.2 -0.6 C 18.1 -1.0 17.7 -1.7 17.7 -2.4 C 17.7 -3.2 18.4 -4.0 19.5 -4.0 C 19.8 -4.0 20.1 -4.0 20.4 -3.9 C 23.6 -2.8 27.2 -1.0 29.8 0.8 C 30.5 1.2 30.7 1.7 30.7 2.1 C 30.7 3.1 29.8 3.9 28.9 3.9 C 28.5 3.9 28.1 3.8 27.8 3.5 Z " transform="scale(1,-1)" stroke-dasharray="31.856472861370204" stroke-dashoffset="31.856472861370204"><animate attributeName="stroke-dashoffset" from="31.856472861370204" to="0" dur="0.9556941858411061s" begin="anim6.end" fill="freeze" id="anim7" /></path><path d="M 39.2 3.5 C 38.7 3.8 38.3 3.9 37.9 3.9 C 37.0 3.9 36.2 3.2 36.2 2.3 C 36.2 1.8 36.5 1.2 37.2 0.7 C 39.4 -0.8 42.2 -2.4 44.9 -3.6 C 45.2 -3.7 45.6 -3.8 45.9 -3.8 C 47.0 -3.8 47.6 -3.0 47.6 -2.1 C 47.6 -1.4 47.2 -0.7 46.3 -0.3 C 43.8 0.8 41.0 2.2 39.2 3.5 Z" transform="scale(1,-1)" stroke-dasharray="28.897834543263095" stroke-dashoffset="28.897834543263095"><animate attributeName="stroke-dashoffset" from="28.897834543263095" to="0" dur="0.8669350362978928s" begin="anim7.end" fill="freeze" id="anim_end" /></path></g></svg>