<?xml version='1.0' encoding='utf-8'?>
<svg viewBox="0 -44.0 50.0 50.0" version="1.1" xmlns="http://www.w3.org/2000/svg"><rect x="-1000" y="-1000" width="2000" height="2000" stroke="white" fill="white" /><g style="fill:none;stroke:#000000;stroke-width:1"><path d="M 33.4 25.5 L 33.4 32.1 L 42.6 32.1 C 43.6 32.1 44.0 32.9 44.0 33.6 C 44.0 34.4 43.6 35.1 42.6 35.1 L 33.4 35.1 L 33.4 40.3 C 33.4 41.4 32.5 41.9 31.7 41.9 C 30.8 41.9 29.9 41.4 29.9 40.3 L 29.9 35.1 L 21.5 35.1 C 20.6 35.1 20.1 34.4 20.1 33.6 C 20.1 32.9 20.6 32.1 21.5 32.1 L 29.9 32.1 L 29.9 25.5 L 19.2 25.5 C 18.3 25.5 17.8 24.7 17.8 23.9 C 17.8 23.2 18.3 22.4 19.2 22.4 L 35.5 22.4 L 35.5 15.8 L 19.1 15.8 C 18.1 15.8 17.6 15.1 17.6 14.2 C 17.6 13.5 18.1 12.7 19.1 12.7 L 35.5 12.7 L 35.5 2.2 C 35.5 0.8 35.0 0.3 33.6 0.3 C 32.6 0.3 31.7 0.4 30.8 0.6 C 29.4 0.9 28.6 -0.1 28.6 -1.1 C 28.6 -1.9 29.0 -2.6 30.1 -2.9 C 31.2 -3.1 32.4 -3.2 33.9 -3.2 C 37.2 -3.2 39.1 -1.9 39.1 1.8 L 39.1 12.7 L 45.1 12.7 C 46.1 12.7 46.6 13.5 46.6 14.2 C 46.6 15.1 46.1 15.8 45.1 15.8 L 39.1 15.8 L 39.1 22.4 L 46.4 22.4 C 47.4 22.4 47.9 23.2 47.9 23.9 C 47.9 24.7 47.4 25.5 46.4 25.5 Z " transform="scale(1,-1)" stroke-dasharray="243.11817186507898" stroke-dashoffset="243.11817186507898"><animate attributeName="stroke-dashoffset" from="243.11817186507898" to="0" dur="7.293545155952369s" begin="0s; 15s; 30s; 45s; 60s" fill="freeze" id="anim0" /></path><path d="M 11.5 40.3 C 11.5 41.4 10.6 41.9 9.8 41.9 C 8.9 41.9 8.1 41.4 8.1 40.3 L 8.1 -2.5 C 8.1 -3.5 8.9 -4.0 9.8 -4.0 C 10.6 -4.0 11.5 -3.5 11.5 -2.5 Z " transform="scale(1,-1)" stroke-dasharray="95.93160652090666" stroke-dashoffset="95.93160652090666"><animate attributeName="stroke-dashoffset" from="95.93160652090666" to="0" dur="2.8779481956271997s" begin="anim0.end" fill="freeze" id="anim1" /></path><path d="M 3.4 29.6 C 3.1 27.2 2.5 24.4 1.9 22.8 C 1.8 22.5 1.7 22.2 1.7 22.0 C 1.7 21.1 2.4 20.6 3.1 20.6 C 3.7 20.6 4.4 21.0 4.7 21.9 C 5.5 23.6 6.1 26.7 6.4 29.2 C 6.5 30.4 5.7 31.0 4.9 31.0 C 4.2 31.0 3.5 30.6 3.4 29.6 Z " transform="scale(1,-1)" stroke-dasharray="24.681527344173453" stroke-dashoffset="24.681527344173453"><animate attributeName="stroke-dashoffset" from="24.681527344173453" to="0" dur="0.7404458203252036s" begin="anim1.end" fill="freeze" id="anim2" /></path><path d="M 15.4 31.7 C 15.1 32.2 14.5 32.5 14.0 32.5 C 13.3 32.5 12.6 32.0 12.6 31.2 C 12.6 31.0 12.7 30.7 12.9 30.4 C 13.4 29.4 14.1 27.5 14.5 26.2 C 14.8 25.3 15.4 24.9 16.0 24.9 C 16.7 24.9 17.4 25.5 17.4 26.5 C 17.4 26.7 17.4 26.9 17.3 27.2 C 16.9 28.5 16.1 30.4 15.4 31.7 Z " transform="scale(1,-1)" stroke-dasharray="19.26358785204281" stroke-dashoffset="19.26358785204281"><animate attributeName="stroke-dashoffset" from="19.26358785204281" to="0" dur="0.5779076355612843s" begin="anim2.end" fill="freeze" id="anim3" /></path><path d="M 24.8 10.1 C 24.4 10.4 24.0 10.5 23.6 10.5 C 22.7 10.5 21.9 9.8 21.9 8.9 C 21.9 8.4 22.1 8.0 22.6 7.5 C 23.6 6.6 24.8 5.3 25.8 4.0 C 26.2 3.4 26.8 3.2 27.3 3.2 C 28.2 3.2 29.1 4.0 29.1 5.0 C 29.1 5.5 28.9 6.0 28.5 6.5 C 27.4 7.9 26.1 9.2 24.8 10.1 Z" transform="scale(1,-1)" stroke-dasharray="21.646977875495708" stroke-dashoffset="21.646977875495708"><animate attributeName="stroke-dashoffset" from="21.646977875495708" to="0" dur="0.6494093362648712s" begin="anim3.end" fill="freeze" id="anim_end" /></path></g></svg>