<?xml version='1.0' encoding='utf-8'?>
<svg viewBox="0 -44.0 50.0 50.0" version="1.1" xmlns="http://www.w3.org/2000/svg"><rect x="-1000" y="-1000" width="2000" height="2000" stroke="white" fill="white" /><g style="fill:none;stroke:#000000;stroke-width:1"><path d="M 19.6 23.8 C 19.6 12.4 17.0 5.6 12.4 0.5 C 11.9 -0.1 11.7 -0.7 11.7 -1.2 C 11.7 -2.1 12.4 -2.9 13.4 -2.9 C 13.9 -2.9 14.5 -2.6 15.0 -2.0 C 20.6 4.1 23.2 11.5 23.2 23.4 L 23.2 38.5 C 23.2 39.5 22.3 40.1 21.4 40.1 C 20.5 40.1 19.6 39.5 19.6 38.5 Z " transform="scale(1,-1)" stroke-dasharray="93.97414508082588" stroke-dashoffset="93.97414508082588"><animate attributeName="stroke-dashoffset" from="93.97414508082588" to="0" dur="2.819224352424776s" begin="0s; 15s; 30s; 45s; 60s" fill="freeze" id="anim0" /></path><path d="M 41.6 -1.5 C 41.6 -2.5 42.5 -3.1 43.3 -3.1 C 44.2 -3.1 45.1 -2.5 45.1 -1.5 L 45.1 38.6 C 45.1 39.7 44.2 40.2 43.3 40.2 C 42.5 40.2 41.6 39.7 41.6 38.6 Z " transform="scale(1,-1)" stroke-dasharray="90.79571291666556" stroke-dashoffset="90.79571291666556"><animate attributeName="stroke-dashoffset" from="90.79571291666556" to="0" dur="2.7238713874999667s" begin="anim0.end" fill="freeze" id="anim1" /></path><path d="M 30.5 0.6 C 30.5 -0.5 31.4 -1.1 32.2 -1.1 C 33.1 -1.1 33.9 -0.5 33.9 0.6 L 33.9 37.0 C 33.9 38.1 33.1 38.6 32.2 38.6 C 31.4 38.6 30.5 38.1 30.5 37.0 Z " transform="scale(1,-1)" stroke-dasharray="83.42771838953503" stroke-dashoffset="83.42771838953503"><animate attributeName="stroke-dashoffset" from="83.42771838953503" to="0" dur="2.5028315516860506s" begin="anim1.end" fill="freeze" id="anim2" /></path><path d="M 24.7 24.4 C 25.4 22.9 25.9 21.2 26.4 19.3 C 26.5 18.4 27.1 18.1 27.7 18.1 C 28.7 18.1 29.6 18.9 29.4 20.0 C 29.0 22.0 28.2 23.9 27.5 25.6 C 27.2 26.3 26.6 26.6 26.0 26.6 C 25.2 26.6 24.5 26.1 24.5 25.2 C 24.5 25.0 24.6 24.7 24.7 24.4 Z " transform="scale(1,-1)" stroke-dasharray="21.242472098150976" stroke-dashoffset="21.242472098150976"><animate attributeName="stroke-dashoffset" from="21.242472098150976" to="0" dur="0.6372741629445293s" begin="anim2.end" fill="freeze" id="anim3" /></path><path d="M 35.6 24.9 C 36.3 23.3 36.8 21.8 37.2 19.8 C 37.5 18.9 38.0 18.6 38.7 18.6 C 39.6 18.6 40.5 19.4 40.2 20.5 C 39.9 22.5 39.2 24.4 38.4 26.1 C 38.1 26.8 37.5 27.0 36.9 27.0 C 36.1 27.0 35.4 26.5 35.4 25.6 C 35.4 25.4 35.5 25.2 35.6 24.9 Z " transform="scale(1,-1)" stroke-dasharray="21.05580710994442" stroke-dashoffset="21.05580710994442"><animate attributeName="stroke-dashoffset" from="21.05580710994442" to="0" dur="0.6316742132983326s" begin="anim3.end" fill="freeze" id="anim4" /></path><path d="M 4.9 28.2 C 4.5 28.4 4.0 28.5 3.7 28.5 C 2.7 28.5 1.9 27.8 1.9 27.0 C 1.9 26.5 2.1 25.9 2.8 25.5 C 3.7 24.8 5.4 23.3 6.5 22.0 C 7.0 21.5 7.5 21.2 8.0 21.2 C 8.9 21.2 9.7 22.1 9.7 23.1 C 9.7 23.6 9.5 24.1 9.1 24.6 C 7.9 25.8 6.1 27.3 4.9 28.2 Z " transform="scale(1,-1)" stroke-dasharray="22.515330342200137" stroke-dashoffset="22.515330342200137"><animate attributeName="stroke-dashoffset" from="22.515330342200137" to="0" dur="0.675459910266004s" begin="anim4.end" fill="freeze" id="anim5" /></path><path d="M 14.8 25.2 C 14.3 23.2 13.6 21.0 12.8 19.4 C 12.7 19.1 12.6 18.8 12.6 18.5 C 12.6 17.6 13.3 17.0 14.1 17.0 C 14.7 17.0 15.4 17.4 15.7 18.2 C 16.4 19.8 17.3 22.2 17.8 24.4 C 18.1 25.7 17.2 26.4 16.3 26.4 C 15.7 26.4 15.0 26.0 14.8 25.2 Z " transform="scale(1,-1)" stroke-dasharray="23.109964346493594" stroke-dashoffset="23.109964346493594"><animate attributeName="stroke-dashoffset" from="23.109964346493594" to="0" dur="0.6932989303948078s" begin="anim5.end" fill="freeze" id="anim6" /></path><path d="M 8.1 40.4 C 7.8 40.6 7.4 40.7 7.0 40.7 C 6.1 40.7 5.2 40.0 5.2 39.1 C 5.2 38.6 5.5 38.1 6.0 37.6 C 7.0 36.8 8.5 35.4 9.5 34.1 C 10.0 33.5 10.5 33.2 11.0 33.2 C 12.0 33.2 12.8 34.1 12.8 35.1 C 12.8 35.6 12.6 36.1 12.2 36.6 C 11.2 37.8 9.3 39.5 8.1 40.4 Z " transform="scale(1,-1)" stroke-dasharray="22.469191674136386" stroke-dashoffset="22.469191674136386"><animate attributeName="stroke-dashoffset" from="22.469191674136386" to="0" dur="0.6740757502240916s" begin="anim6.end" fill="freeze" id="anim7" /></path><path d="M 8.7 13.0 C 7.5 8.8 5.4 3.6 3.4 0.4 C 3.1 -0.1 3.0 -0.5 3.0 -0.9 C 3.0 -1.9 3.8 -2.5 4.7 -2.5 C 5.3 -2.5 6.0 -2.2 6.5 -1.4 C 8.6 2.2 10.9 7.7 12.1 12.1 C 12.2 12.3 12.2 12.6 12.2 12.8 C 12.2 13.9 11.4 14.5 10.5 14.5 C 9.8 14.5 9.0 14.1 8.7 13.0 Z" transform="scale(1,-1)" stroke-dasharray="40.494314105404854" stroke-dashoffset="40.494314105404854"><animate attributeName="stroke-dashoffset" from="40.494314105404854" to="0" dur="1.2148294231621455s" begin="anim7.end" fill="freeze" id="anim_end" /></path></g></svg>