<?xml version='1.0' encoding='utf-8'?>
<svg viewBox="0 -44.0 50.0 50.0" version="1.1" xmlns="http://www.w3.org/2000/svg"><rect x="-1000" y="-1000" width="2000" height="2000" stroke="white" fill="white" /><g style="fill:none;stroke:#000000;stroke-width:1"><path d="M 27.2 18.2 C 26.6 10.1 23.1 3.9 17.6 0.5 C 16.8 -0.1 16.4 -0.7 16.4 -1.3 C 16.4 -2.2 17.2 -3.0 18.2 -3.0 C 18.6 -3.0 18.9 -2.9 19.4 -2.7 C 25.9 1.3 30.1 8.7 30.8 18.2 L 36.3 18.2 C 38.0 18.2 38.6 17.4 38.6 16.2 C 38.6 11.5 38.1 6.9 37.4 3.9 C 37.0 2.0 36.1 1.2 35.0 1.2 C 34.1 1.2 33.1 1.4 32.1 1.7 C 30.9 2.0 30.0 1.0 30.0 -0.1 C 30.0 -0.8 30.4 -1.5 31.4 -1.8 C 32.5 -2.1 33.6 -2.3 34.9 -2.3 C 38.0 -2.3 40.0 -1.0 40.9 3.2 C 41.5 6.4 42.1 11.6 42.2 16.5 C 42.2 19.6 40.7 21.3 36.9 21.3 L 24.6 21.3 C 23.6 21.3 23.1 20.5 23.1 19.8 C 23.1 18.9 23.6 18.2 24.6 18.2 Z " transform="scale(1,-1)" stroke-dasharray="139.66284594688705" stroke-dashoffset="139.66284594688705"><animate attributeName="stroke-dashoffset" from="139.66284594688705" to="0" dur="4.189885378406611s" begin="0s; 15s; 30s; 45s; 60s" fill="freeze" id="anim0" /></path><path d="M 12.3 13.9 C 13.9 14.5 15.2 15.1 16.5 15.7 C 17.4 16.1 17.7 16.7 17.7 17.2 C 17.7 18.0 17.0 18.8 16.1 18.8 C 15.9 18.8 15.6 18.7 15.3 18.6 C 14.4 18.2 13.4 17.8 12.3 17.4 L 12.3 27.9 L 15.8 27.9 C 16.7 27.9 17.2 28.7 17.2 29.4 C 17.2 30.2 16.7 30.9 15.8 30.9 L 12.3 30.9 L 12.3 39.9 C 12.3 41.0 11.5 41.5 10.6 41.5 C 9.7 41.5 8.8 41.0 8.8 39.9 L 8.8 30.9 L 4.0 30.9 C 3.1 30.9 2.6 30.2 2.6 29.4 C 2.6 28.7 3.1 27.9 4.0 27.9 L 8.8 27.9 L 8.8 16.2 C 7.1 15.6 5.2 15.1 3.5 14.6 C 2.4 14.3 2.0 13.6 2.0 12.9 C 2.0 12.0 2.6 11.2 3.7 11.2 C 3.9 11.2 4.0 11.2 4.3 11.2 C 5.8 11.7 7.3 12.2 8.8 12.7 L 8.8 2.0 C 8.8 0.5 8.3 0.2 7.2 0.2 C 6.6 0.2 6.0 0.2 5.1 0.4 C 3.8 0.6 2.9 -0.3 2.9 -1.3 C 2.9 -2.1 3.5 -2.8 4.5 -3.1 C 5.6 -3.3 6.7 -3.4 7.5 -3.4 C 10.7 -3.4 12.3 -1.8 12.3 1.7 Z " transform="scale(1,-1)" stroke-dasharray="145.20504269294256" stroke-dashoffset="145.20504269294256"><animate attributeName="stroke-dashoffset" from="145.20504269294256" to="0" dur="4.356151280788277s" begin="anim0.end" fill="freeze" id="anim1" /></path><path d="M 25.2 39.8 C 24.2 39.8 23.6 39.0 23.6 38.1 C 23.6 37.4 24.2 36.6 25.2 36.6 L 33.6 36.6 C 35.6 36.6 36.2 36.1 36.8 34.6 C 38.1 29.9 41.1 24.6 44.2 21.0 C 44.8 20.3 45.5 20.0 46.1 20.0 C 47.0 20.0 47.9 20.9 47.9 21.9 C 47.9 22.5 47.6 23.1 47.0 23.7 C 44.0 26.8 41.2 31.4 39.9 35.7 C 39.0 38.6 37.5 39.8 34.2 39.8 Z " transform="scale(1,-1)" stroke-dasharray="71.08042322299255" stroke-dashoffset="71.08042322299255"><animate attributeName="stroke-dashoffset" from="71.08042322299255" to="0" dur="2.1324126966897765s" begin="anim1.end" fill="freeze" id="anim2" /></path><path d="M 24.1 32.9 C 22.8 29.0 20.7 25.1 18.2 22.3 C 17.9 21.9 17.7 21.4 17.7 21.0 C 17.7 20.2 18.4 19.5 19.4 19.5 C 19.9 19.5 20.4 19.7 20.9 20.2 C 23.4 23.1 25.8 27.6 27.3 31.8 C 27.4 32.0 27.5 32.3 27.5 32.5 C 27.5 33.6 26.6 34.1 25.7 34.1 C 25.1 34.1 24.4 33.8 24.1 32.9 Z" transform="scale(1,-1)" stroke-dasharray="36.7507262413448" stroke-dashoffset="36.7507262413448"><animate attributeName="stroke-dashoffset" from="36.7507262413448" to="0" dur="1.1025217872403439s" begin="anim2.end" fill="freeze" id="anim_end" /></path></g></svg>