<?xml version='1.0' encoding='utf-8'?>
<svg viewBox="0 -44.0 50.0 50.0" version="1.1" xmlns="http://www.w3.org/2000/svg"><rect x="-1000" y="-1000" width="2000" height="2000" stroke="white" fill="white" /><g style="fill:none;stroke:#000000;stroke-width:1"><path d="M 20.5 11.8 C 18.4 9.6 16.0 7.6 13.5 5.9 C 10.2 3.8 6.9 2.1 3.3 0.6 C 2.5 0.2 2.1 -0.4 2.1 -1.0 C 2.1 -1.8 2.7 -2.6 3.7 -2.6 C 3.9 -2.6 4.2 -2.5 4.5 -2.4 C 11.7 0.3 18.8 5.1 23.2 10.1 L 23.1 4.5 L 23.1 -2.9 C 23.1 -4.0 24.0 -4.5 24.9 -4.5 C 25.8 -4.5 26.7 -4.0 26.7 -2.9 L 26.7 4.5 L 26.5 10.2 C 30.7 5.4 37.8 0.6 45.4 -1.8 C 45.7 -1.9 45.9 -1.9 46.1 -1.9 C 47.2 -1.9 48.0 -1.0 48.0 0.0 C 48.0 0.8 47.5 1.6 46.4 1.9 C 39.6 3.9 33.3 7.5 28.8 11.8 L 35.5 11.8 C 39.3 11.8 41.4 13.2 41.4 16.4 L 41.4 24.9 C 41.4 28.0 39.3 29.4 35.5 29.4 L 26.7 29.4 L 26.7 33.2 L 46.0 33.2 C 47.1 33.2 47.6 34.0 47.6 34.8 C 47.6 35.6 47.1 36.3 46.0 36.3 L 26.7 36.3 L 26.7 40.8 C 26.7 41.9 25.8 42.4 24.9 42.4 C 24.0 42.4 23.1 41.9 23.1 40.8 L 23.1 36.3 L 4.1 36.3 C 3.1 36.3 2.6 35.6 2.6 34.8 C 2.6 34.0 3.1 33.2 4.1 33.2 L 23.1 33.2 L 23.1 29.4 L 14.7 29.4 C 10.8 29.4 8.8 28.0 8.8 24.9 L 8.8 16.4 C 8.8 12.7 11.4 11.9 14.7 11.8 Z " transform="scale(1,-1)" stroke-dasharray="319.02186968463303" stroke-dashoffset="319.02186968463303"><animate attributeName="stroke-dashoffset" from="319.02186968463303" to="0" dur="9.570656090538991s" begin="0s; 15s; 30s; 45s; 60s" fill="freeze" id="anim0" /></path><path d="M 15.6 14.6 C 12.9 14.6 12.4 15.2 12.4 16.9 L 12.4 19.4 L 23.1 19.4 L 23.1 14.6 Z " transform="scale(1,-1)" stroke-dasharray="30.157062200440198" stroke-dashoffset="30.157062200440198"><animate attributeName="stroke-dashoffset" from="30.157062200440198" to="0" dur="0.9047118660132059s" begin="anim0.end" fill="freeze" id="anim1" /></path><path d="M 26.7 14.6 L 26.7 19.4 L 37.8 19.4 L 37.8 16.9 C 37.7 14.7 36.4 14.6 34.6 14.6 Z " transform="scale(1,-1)" stroke-dasharray="30.89015679557796" stroke-dashoffset="30.89015679557796"><animate attributeName="stroke-dashoffset" from="30.89015679557796" to="0" dur="0.9267047038673387s" begin="anim1.end" fill="freeze" id="anim2" /></path><path d="M 37.8 22.2 L 26.7 22.2 L 26.7 26.5 L 34.6 26.5 C 37.2 26.5 37.8 25.9 37.8 24.3 Z " transform="scale(1,-1)" stroke-dasharray="29.947332142480924" stroke-dashoffset="29.947332142480924"><animate attributeName="stroke-dashoffset" from="29.947332142480924" to="0" dur="0.8984199642744277s" begin="anim2.end" fill="freeze" id="anim3" /></path><path d="M 23.1 26.5 L 23.1 22.2 L 12.4 22.2 L 12.4 24.3 C 12.4 25.9 12.9 26.5 15.6 26.5 Z" transform="scale(1,-1)" stroke-dasharray="29.170034253542756" stroke-dashoffset="29.170034253542756"><animate attributeName="stroke-dashoffset" from="29.170034253542756" to="0" dur="0.8751010276062826s" begin="anim3.end" fill="freeze" id="anim_end" /></path></g></svg>