<?xml version='1.0' encoding='utf-8'?>
<svg viewBox="0 -44.0 50.0 50.0" version="1.1" xmlns="http://www.w3.org/2000/svg"><rect x="-1000" y="-1000" width="2000" height="2000" stroke="white" fill="white" /><g style="fill:none;stroke:#000000;stroke-width:1"><path d="M 30.2 32.0 C 31.1 34.1 32.1 36.4 32.8 38.8 C 32.9 39.1 33.0 39.4 33.0 39.6 C 33.0 40.7 32.1 41.2 31.2 41.2 C 30.5 41.2 29.7 40.8 29.4 39.9 C 28.7 37.1 27.8 34.6 26.7 32.0 L 23.8 32.0 C 19.7 32.0 18.0 30.6 18.0 27.1 L 18.0 1.9 L 15.2 1.9 C 14.2 1.9 13.7 1.1 13.7 0.3 C 13.7 -0.5 14.2 -1.2 15.2 -1.2 L 47.2 -1.2 C 48.2 -1.2 48.8 -0.5 48.8 0.3 C 48.8 1.1 48.2 1.9 47.2 1.9 L 44.8 1.9 L 44.8 27.1 C 44.8 30.6 43.2 32.0 39.0 32.0 Z " transform="scale(1,-1)" stroke-dasharray="148.31768111695143" stroke-dashoffset="148.31768111695143"><animate attributeName="stroke-dashoffset" from="148.31768111695143" to="0" dur="4.449530433508543s" begin="0s; 15s; 30s; 45s; 60s" fill="freeze" id="anim0" /></path><path d="M 36.9 29.0 L 38.6 29.0 C 40.8 29.0 41.3 28.5 41.3 26.6 L 41.3 1.9 L 36.9 1.9 Z " transform="scale(1,-1)" stroke-dasharray="62.21661309302418" stroke-dashoffset="62.21661309302418"><animate attributeName="stroke-dashoffset" from="62.21661309302418" to="0" dur="1.8664983927907253s" begin="anim0.end" fill="freeze" id="anim1" /></path><path d="M 33.5 29.0 L 33.5 1.9 L 29.1 1.9 L 29.1 29.0 Z " transform="scale(1,-1)" stroke-dasharray="63.0" stroke-dashoffset="63.0"><animate attributeName="stroke-dashoffset" from="63.0" to="0" dur="1.89s" begin="anim1.end" fill="freeze" id="anim2" /></path><path d="M 25.7 29.0 L 25.7 1.9 L 21.5 1.9 L 21.5 26.6 C 21.5 28.5 22.0 29.0 24.2 29.0 Z " transform="scale(1,-1)" stroke-dasharray="61.81661309302418" stroke-dashoffset="61.81661309302418"><animate attributeName="stroke-dashoffset" from="61.81661309302418" to="0" dur="1.8544983927907253s" begin="anim2.end" fill="freeze" id="anim3" /></path><path d="M 10.8 40.5 C 10.8 41.5 9.9 42.0 9.1 42.0 C 8.2 42.0 7.4 41.5 7.4 40.5 L 7.4 -2.4 C 7.4 -3.4 8.2 -4.0 9.1 -4.0 C 9.9 -4.0 10.8 -3.4 10.8 -2.4 Z " transform="scale(1,-1)" stroke-dasharray="96.08309286935429" stroke-dashoffset="96.08309286935429"><animate attributeName="stroke-dashoffset" from="96.08309286935429" to="0" dur="2.8824927860806286s" begin="anim3.end" fill="freeze" id="anim4" /></path><path d="M 3.0 29.6 C 2.8 27.3 2.2 24.6 1.6 22.9 C 1.5 22.7 1.5 22.4 1.5 22.2 C 1.5 21.4 2.1 20.9 2.8 20.9 C 3.4 20.9 4.0 21.2 4.4 22.2 C 5.1 23.8 5.7 26.9 5.9 29.2 C 6.0 30.4 5.2 31.0 4.5 31.0 C 3.8 31.0 3.1 30.5 3.0 29.6 Z " transform="scale(1,-1)" stroke-dasharray="23.84814439355231" stroke-dashoffset="23.84814439355231"><animate attributeName="stroke-dashoffset" from="23.84814439355231" to="0" dur="0.7154443318065693s" begin="anim4.end" fill="freeze" id="anim5" /></path><path d="M 14.5 31.0 C 14.2 31.5 13.7 31.8 13.2 31.8 C 12.5 31.8 11.8 31.2 11.8 30.5 C 11.8 30.2 11.9 30.0 12.0 29.7 C 12.5 28.7 13.2 26.9 13.6 25.6 C 13.8 24.7 14.4 24.2 15.0 24.2 C 15.7 24.2 16.4 24.9 16.4 25.9 C 16.4 26.1 16.4 26.3 16.4 26.6 C 16.0 28.0 15.2 29.7 14.5 31.0 Z" transform="scale(1,-1)" stroke-dasharray="19.006826268015367" stroke-dashoffset="19.006826268015367"><animate attributeName="stroke-dashoffset" from="19.006826268015367" to="0" dur="0.5702047880404609s" begin="anim5.end" fill="freeze" id="anim_end" /></path></g></svg>