<?xml version='1.0' encoding='utf-8'?>
<svg viewBox="0 -44.0 50.0 50.0" version="1.1" xmlns="http://www.w3.org/2000/svg"><rect x="-1000" y="-1000" width="2000" height="2000" stroke="white" fill="white" /><g style="fill:none;stroke:#000000;stroke-width:1"><path d="M 25.5 10.5 C 26.4 8.2 27.6 6.0 29.1 4.0 C 25.0 2.0 20.3 0.5 16.0 -0.4 C 14.9 -0.6 14.4 -1.2 14.4 -2.0 C 14.4 -2.9 15.2 -3.8 16.5 -3.5 C 21.3 -2.7 26.7 -1.0 31.5 1.5 C 34.6 -1.5 38.3 -3.0 42.0 -3.0 C 44.9 -3.0 46.9 -1.2 47.7 2.9 C 47.9 4.2 47.0 4.9 46.0 4.9 C 45.3 4.9 44.6 4.5 44.4 3.6 C 43.9 1.2 43.0 0.6 41.7 0.6 C 39.5 0.6 37.0 1.5 34.6 3.2 C 37.0 4.7 39.0 6.2 40.6 7.9 C 41.0 8.3 41.2 8.8 41.2 9.2 C 41.2 10.2 40.4 10.9 39.5 10.9 C 39.0 10.9 38.6 10.8 38.2 10.4 C 36.5 8.7 34.5 7.1 32.1 5.7 C 30.9 7.2 29.8 9.1 29.1 11.0 L 44.1 12.8 C 45.0 12.9 45.4 13.6 45.4 14.3 C 45.4 15.2 44.8 16.1 43.7 15.9 L 28.0 14.0 C 27.5 15.4 27.2 17.0 26.9 18.7 C 26.7 19.7 26.0 20.1 25.2 20.1 C 24.2 20.1 23.3 19.4 23.5 18.2 C 23.8 16.5 24.1 15.0 24.5 13.5 L 17.7 12.7 C 16.8 12.6 16.4 11.9 16.4 11.2 C 16.4 10.3 17.0 9.5 18.1 9.6 Z " transform="scale(1,-1)" stroke-dasharray="177.8416193783719" stroke-dashoffset="177.8416193783719"><animate attributeName="stroke-dashoffset" from="177.8416193783719" to="0" dur="5.3352485813511565s" begin="0s; 15s; 30s; 45s; 60s" fill="freeze" id="anim0" /></path><path d="M 43.2 34.2 C 44.1 34.3 44.5 35.0 44.5 35.7 C 44.5 36.6 43.9 37.5 42.8 37.3 L 29.1 35.6 C 28.6 37.1 28.2 38.8 27.9 40.6 C 27.7 41.6 26.9 42.1 26.2 42.1 C 25.2 42.1 24.3 41.4 24.5 40.1 C 24.8 38.4 25.2 36.7 25.7 35.1 L 17.9 34.2 C 17.1 34.1 16.7 33.4 16.7 32.7 C 16.7 31.9 17.3 31.0 18.4 31.2 L 26.7 32.1 C 27.5 30.3 28.5 28.5 29.7 26.8 C 25.9 24.9 21.7 23.2 17.6 22.2 C 16.7 22.0 16.2 21.3 16.2 20.7 C 16.2 19.8 17.0 18.9 18.4 19.2 C 22.8 20.3 27.6 22.2 31.8 24.3 C 34.9 21.2 38.3 19.8 41.6 19.8 C 44.1 19.8 46.4 21.2 47.2 25.7 C 47.4 26.9 46.5 27.6 45.6 27.6 C 44.9 27.6 44.2 27.2 44.0 26.3 C 43.6 24.0 42.5 23.3 41.3 23.3 C 39.2 23.3 37.0 24.2 34.9 26.0 C 36.8 27.0 38.4 28.1 39.9 29.2 C 40.6 29.7 40.8 30.3 40.8 30.9 C 40.8 31.7 40.0 32.5 39.1 32.5 C 38.7 32.5 38.2 32.3 37.9 32.0 C 36.3 30.8 34.6 29.6 32.6 28.4 C 31.7 29.7 30.9 31.1 30.2 32.6 Z " transform="scale(1,-1)" stroke-dasharray="166.9971722057563" stroke-dashoffset="166.9971722057563"><animate attributeName="stroke-dashoffset" from="166.9971722057563" to="0" dur="5.009915166172688s" begin="anim0.end" fill="freeze" id="anim1" /></path><path d="M 31.6 21.0 C 31.4 21.1 31.1 21.1 30.9 21.1 C 29.9 21.1 29.2 20.3 29.2 19.5 C 29.2 19.1 29.5 18.6 30.1 18.3 C 31.0 17.9 32.4 17.1 33.2 16.5 C 33.6 16.2 34.0 16.1 34.3 16.1 C 35.2 16.1 35.9 16.9 35.9 17.7 C 35.9 18.2 35.6 18.7 35.1 19.1 C 34.1 19.8 32.6 20.6 31.6 21.0 Z " transform="scale(1,-1)" stroke-dasharray="17.811018791682017" stroke-dashoffset="17.811018791682017"><animate attributeName="stroke-dashoffset" from="17.811018791682017" to="0" dur="0.5343305637504605s" begin="anim1.end" fill="freeze" id="anim2" /></path><path d="M 9.2 40.2 C 8.9 40.5 8.6 40.6 8.2 40.6 C 7.2 40.6 6.4 39.8 6.4 38.9 C 6.4 38.4 6.6 37.8 7.2 37.4 C 8.2 36.6 9.9 35.0 11.1 33.6 C 11.6 33.0 12.1 32.8 12.6 32.8 C 13.6 32.8 14.4 33.6 14.4 34.6 C 14.4 35.1 14.2 35.6 13.8 36.2 C 12.7 37.6 10.7 39.2 9.2 40.2 Z " transform="scale(1,-1)" stroke-dasharray="23.518991209540413" stroke-dashoffset="23.518991209540413"><animate attributeName="stroke-dashoffset" from="23.518991209540413" to="0" dur="0.7055697362862123s" begin="anim2.end" fill="freeze" id="anim3" /></path><path d="M 10.5 12.9 C 9.1 8.5 6.7 3.4 4.3 0.2 C 4.0 -0.3 3.9 -0.8 3.9 -1.2 C 3.9 -2.1 4.7 -2.9 5.7 -2.9 C 6.3 -2.9 7.0 -2.6 7.5 -1.8 C 9.8 1.8 12.5 7.4 13.9 11.8 C 14.0 12.1 14.1 12.4 14.1 12.6 C 14.1 13.7 13.2 14.4 12.3 14.4 C 11.6 14.4 10.8 13.9 10.5 12.9 Z " transform="scale(1,-1)" stroke-dasharray="41.84367821881247" stroke-dashoffset="41.84367821881247"><animate attributeName="stroke-dashoffset" from="41.84367821881247" to="0" dur="1.255310346564374s" begin="anim3.end" fill="freeze" id="anim4" /></path><path d="M 5.6 28.1 C 5.2 28.4 4.8 28.5 4.4 28.5 C 3.4 28.5 2.6 27.7 2.6 26.8 C 2.6 26.3 2.8 25.8 3.5 25.3 C 4.5 24.6 6.4 23.1 7.7 21.6 C 8.2 21.1 8.7 20.9 9.2 20.9 C 10.1 20.9 10.9 21.7 10.9 22.7 C 10.9 23.2 10.7 23.8 10.2 24.2 C 9.0 25.6 7.0 27.2 5.6 28.1 Z " transform="scale(1,-1)" stroke-dasharray="23.667628273994755" stroke-dashoffset="23.667628273994755"><animate attributeName="stroke-dashoffset" from="23.667628273994755" to="0" dur="0.7100288482198426s" begin="anim4.end" fill="freeze" id="anim5" /></path><path d="M 33.1 42.1 C 32.9 42.1 32.7 42.2 32.5 42.2 C 31.6 42.2 30.9 41.4 30.9 40.6 C 30.9 40.1 31.1 39.7 31.7 39.4 C 32.6 38.9 34.0 38.2 34.8 37.6 C 35.1 37.4 35.5 37.3 35.9 37.3 C 36.7 37.3 37.4 38.1 37.4 38.9 C 37.4 39.4 37.1 39.9 36.5 40.4 C 35.5 41.1 34.1 41.7 33.1 42.1 Z" transform="scale(1,-1)" stroke-dasharray="17.414265903135984" stroke-dashoffset="17.414265903135984"><animate attributeName="stroke-dashoffset" from="17.414265903135984" to="0" dur="0.5224279770940795s" begin="anim5.end" fill="freeze" id="anim_end" /></path></g></svg>