<?xml version='1.0' encoding='utf-8'?>
<svg viewBox="0 -44.0 50.0 50.0" version="1.1" xmlns="http://www.w3.org/2000/svg"><rect x="-1000" y="-1000" width="2000" height="2000" stroke="white" fill="white" /><g style="fill:none;stroke:#000000;stroke-width:1"><path d="M 30.8 14.2 C 30.7 13.0 30.5 11.8 30.1 10.7 L 19.9 10.7 C 18.9 10.7 18.4 10.0 18.4 9.2 C 18.4 8.4 18.9 7.6 19.9 7.6 L 28.9 7.6 C 26.8 3.7 22.9 1.1 17.8 -0.7 C 16.8 -1.0 16.4 -1.6 16.4 -2.2 C 16.4 -3.1 17.1 -3.9 18.1 -3.9 C 18.3 -3.9 18.5 -3.8 18.8 -3.8 C 24.7 -1.9 29.5 1.5 32.1 6.5 C 35.1 1.6 40.5 -2.4 45.7 -3.5 C 47.1 -3.8 48.0 -2.8 48.0 -1.8 C 48.0 -1.0 47.5 -0.2 46.3 0.2 C 41.7 1.3 37.6 4.0 34.9 7.6 L 46.0 7.6 C 46.9 7.6 47.4 8.4 47.4 9.2 C 47.4 10.0 46.9 10.7 46.0 10.7 L 33.7 10.7 C 34.0 11.9 34.2 13.0 34.2 14.2 L 39.5 14.2 C 43.2 14.2 44.5 15.9 44.5 18.6 L 44.5 24.9 C 44.5 27.6 43.2 29.3 39.5 29.3 L 26.7 29.3 C 23.0 29.3 21.7 27.6 21.7 24.9 L 21.7 18.6 C 21.8 15.3 23.6 14.2 26.7 14.2 Z " transform="scale(1,-1)" stroke-dasharray="199.01407949934145" stroke-dashoffset="199.01407949934145"><animate attributeName="stroke-dashoffset" from="199.01407949934145" to="0" dur="5.970422384980243s" begin="0s; 15s; 30s; 45s; 60s" fill="freeze" id="anim0" /></path><path d="M 27.3 16.9 C 25.6 16.9 25.2 17.6 25.2 18.9 L 25.2 20.4 L 41.0 20.4 L 41.0 18.9 C 41.0 17.6 40.6 16.9 38.9 16.9 Z " transform="scale(1,-1)" stroke-dasharray="37.18787117937506" stroke-dashoffset="37.18787117937506"><animate attributeName="stroke-dashoffset" from="37.18787117937506" to="0" dur="1.1156361353812516s" begin="anim0.end" fill="freeze" id="anim1" /></path><path d="M 41.0 23.2 L 25.2 23.2 L 25.2 24.5 C 25.2 25.8 25.6 26.4 27.3 26.4 L 38.9 26.4 C 40.6 26.4 41.0 25.8 41.0 24.5 Z " transform="scale(1,-1)" stroke-dasharray="36.65733692202622" stroke-dashoffset="36.65733692202622"><animate attributeName="stroke-dashoffset" from="36.65733692202622" to="0" dur="1.0997201076607865s" begin="anim1.end" fill="freeze" id="anim2" /></path><path d="M 8.4 22.0 C 6.7 16.4 4.2 10.8 1.7 7.4 C 1.4 7.1 1.2 6.7 1.2 6.3 C 1.2 5.6 1.9 5.0 2.6 5.0 C 3.1 5.0 3.6 5.2 4.0 5.8 C 5.9 8.3 7.7 11.6 9.1 15.0 L 8.8 7.0 L 8.8 -2.8 C 8.8 -3.8 9.7 -4.2 10.5 -4.2 C 11.3 -4.2 12.1 -3.8 12.1 -2.8 L 12.1 15.2 C 13.3 14.3 14.4 13.2 15.6 12.0 C 16.0 11.5 16.4 11.4 16.9 11.4 C 17.7 11.4 18.4 12.1 18.4 13.0 C 18.4 13.5 18.2 14.1 17.7 14.6 C 16.1 16.1 14.2 17.4 12.1 18.6 L 12.1 22.0 L 17.1 22.0 C 18.1 22.0 18.6 22.8 18.6 23.6 C 18.6 24.3 18.1 25.1 17.1 25.1 L 12.1 25.1 L 12.1 40.5 C 12.1 41.5 11.3 41.9 10.5 41.9 C 9.7 41.9 8.8 41.5 8.8 40.5 L 8.8 25.1 L 3.3 25.1 C 2.4 25.1 1.9 24.3 1.9 23.6 C 1.9 22.8 2.4 22.0 3.3 22.0 Z " transform="scale(1,-1)" stroke-dasharray="158.89629600016562" stroke-dashoffset="158.89629600016562"><animate attributeName="stroke-dashoffset" from="158.89629600016562" to="0" dur="4.766888880004968s" begin="anim2.end" fill="freeze" id="anim3" /></path><path d="M 29.7 34.4 L 35.8 34.4 L 35.8 31.9 C 35.8 31.0 36.6 30.5 37.4 30.5 C 38.2 30.5 39.0 31.0 39.0 31.9 L 39.0 34.4 L 45.9 34.4 C 46.8 34.4 47.2 35.1 47.2 35.9 C 47.2 36.6 46.8 37.4 45.9 37.4 L 39.0 37.4 L 39.0 40.2 C 39.0 41.2 38.2 41.7 37.4 41.7 C 36.6 41.7 35.8 41.2 35.8 40.2 L 35.8 37.4 L 29.7 37.4 L 29.7 40.2 C 29.7 41.2 28.9 41.7 28.1 41.7 C 27.3 41.7 26.5 41.2 26.5 40.2 L 26.5 37.4 L 21.2 37.4 C 20.2 37.4 19.8 36.6 19.8 35.9 C 19.8 35.1 20.2 34.4 21.2 34.4 L 26.5 34.4 L 26.5 31.9 C 26.5 31.0 27.3 30.5 28.1 30.5 C 28.9 30.5 29.7 31.0 29.7 31.9 Z " transform="scale(1,-1)" stroke-dasharray="86.22588020562893" stroke-dashoffset="86.22588020562893"><animate attributeName="stroke-dashoffset" from="86.22588020562893" to="0" dur="2.586776406168868s" begin="anim3.end" fill="freeze" id="anim4" /></path><path d="M 16.0 35.1 C 15.4 33.1 14.5 31.0 13.8 29.6 C 13.6 29.3 13.6 29.0 13.6 28.8 C 13.6 27.9 14.2 27.4 14.9 27.4 C 15.5 27.4 16.0 27.7 16.4 28.3 C 17.2 29.8 18.2 32.1 18.8 34.1 C 18.9 34.3 18.9 34.5 18.9 34.6 C 18.9 35.6 18.1 36.2 17.3 36.2 C 16.8 36.2 16.2 35.9 16.0 35.1 Z " transform="scale(1,-1)" stroke-dasharray="21.906886166518497" stroke-dashoffset="21.906886166518497"><animate attributeName="stroke-dashoffset" from="21.906886166518497" to="0" dur="0.6572065849955548s" begin="anim4.end" fill="freeze" id="anim5" /></path><path d="M 5.5 34.7 C 5.2 35.5 4.5 35.8 4.0 35.8 C 3.2 35.8 2.5 35.2 2.5 34.4 C 2.5 34.1 2.6 33.9 2.7 33.6 C 3.2 32.3 3.9 30.2 4.2 28.8 C 4.5 27.8 5.1 27.4 5.8 27.4 C 6.7 27.4 7.6 28.3 7.3 29.8 C 6.9 31.4 6.2 33.4 5.5 34.7 Z" transform="scale(1,-1)" stroke-dasharray="20.900925289526665" stroke-dashoffset="20.900925289526665"><animate attributeName="stroke-dashoffset" from="20.900925289526665" to="0" dur="0.6270277586858s" begin="anim5.end" fill="freeze" id="anim_end" /></path></g></svg>