<?xml version='1.0' encoding='utf-8'?>
<svg viewBox="0 -44.0 50.0 50.0" version="1.1" xmlns="http://www.w3.org/2000/svg"><rect x="-1000" y="-1000" width="2000" height="2000" stroke="white" fill="white" /><g style="fill:none;stroke:#000000;stroke-width:1"><path d="M 47.0 27.3 C 48.0 27.3 48.4 28.1 48.4 28.9 C 48.4 29.6 48.0 30.4 47.0 30.4 L 38.6 30.4 C 39.5 33.2 40.2 36.3 40.6 39.2 C 40.7 40.4 39.8 41.1 38.9 41.1 C 38.1 41.1 37.3 40.6 37.1 39.6 C 36.2 33.4 34.4 26.3 31.8 21.4 C 31.6 21.0 31.5 20.6 31.5 20.3 C 31.5 19.5 32.1 18.9 32.8 18.9 C 33.4 18.9 34.1 19.2 34.5 20.1 C 34.6 20.4 34.8 20.7 35.0 21.0 C 35.8 16.9 36.7 12.9 38.4 9.2 C 36.6 5.1 34.4 1.8 31.7 -1.1 C 31.2 -1.5 31.1 -2.0 31.1 -2.4 C 31.1 -3.2 31.8 -3.8 32.6 -3.8 C 33.0 -3.8 33.5 -3.6 34.0 -3.1 C 36.4 -0.8 38.5 2.1 40.2 5.5 C 41.7 2.9 43.4 0.4 45.4 -1.9 C 45.9 -2.4 46.4 -2.7 46.9 -2.7 C 47.8 -2.7 48.5 -1.9 48.5 -0.9 C 48.5 -0.3 48.3 0.3 47.8 0.9 C 45.4 3.3 43.4 6.0 41.8 9.0 C 44.2 14.8 45.2 21.1 45.7 27.3 Z " transform="scale(1,-1)" stroke-dasharray="139.46610340177583" stroke-dashoffset="139.46610340177583"><animate attributeName="stroke-dashoffset" from="139.46610340177583" to="0" dur="4.183983102053275s" begin="0s; 15s; 30s; 45s; 60s" fill="freeze" id="anim0" /></path><path d="M 42.4 27.3 C 42.2 24.9 42.0 22.6 41.6 20.2 C 41.2 17.8 40.6 15.5 39.9 13.1 C 38.4 17.1 37.5 21.2 37.0 25.4 C 37.1 26.1 37.4 26.7 37.6 27.3 Z " transform="scale(1,-1)" stroke-dasharray="33.91685527298787" stroke-dashoffset="33.91685527298787"><animate attributeName="stroke-dashoffset" from="33.91685527298787" to="0" dur="1.017505658189636s" begin="anim0.end" fill="freeze" id="anim1" /></path><path d="M 10.3 1.3 C 13.4 1.3 14.6 2.6 14.6 5.8 L 14.6 35.0 C 14.6 38.2 13.4 39.5 10.3 39.5 L 7.7 39.5 C 4.5 39.5 3.4 38.2 3.4 35.0 L 3.4 5.8 C 3.4 2.7 4.5 1.4 7.7 1.3 Z " transform="scale(1,-1)" stroke-dasharray="92.5884913379838" stroke-dashoffset="92.5884913379838"><animate attributeName="stroke-dashoffset" from="92.5884913379838" to="0" dur="2.7776547401395137s" begin="anim1.end" fill="freeze" id="anim2" /></path><path d="M 8.0 4.3 C 6.9 4.3 6.6 4.5 6.6 6.1 L 6.6 14.2 L 11.4 14.2 L 11.4 6.1 C 11.4 5.0 11.2 4.3 10.0 4.3 Z " transform="scale(1,-1)" stroke-dasharray="28.404091384600818" stroke-dashoffset="28.404091384600818"><animate attributeName="stroke-dashoffset" from="28.404091384600818" to="0" dur="0.8521227415380245s" begin="anim2.end" fill="freeze" id="anim3" /></path><path d="M 6.6 25.2 L 11.4 25.2 L 11.4 17.2 L 6.6 17.2 Z " transform="scale(1,-1)" stroke-dasharray="25.6" stroke-dashoffset="25.6"><animate attributeName="stroke-dashoffset" from="25.6" to="0" dur="0.768s" begin="anim3.end" fill="freeze" id="anim4" /></path><path d="M 11.4 28.1 L 6.6 28.1 L 6.6 34.6 C 6.6 36.2 6.9 36.5 8.0 36.5 L 10.0 36.5 C 11.1 36.5 11.4 36.2 11.4 34.6 Z " transform="scale(1,-1)" stroke-dasharray="25.421292318278816" stroke-dashoffset="25.421292318278816"><animate attributeName="stroke-dashoffset" from="25.421292318278816" to="0" dur="0.7626387695483644s" begin="anim4.end" fill="freeze" id="anim5" /></path><path d="M 18.4 28.7 L 18.4 5.2 C 17.9 5.1 17.3 5.0 16.8 4.9 C 15.9 4.7 15.4 4.0 15.4 3.3 C 15.4 2.4 16.2 1.4 17.5 1.7 C 20.8 2.5 24.2 3.5 27.0 4.5 L 27.0 -2.7 C 27.0 -3.7 27.8 -4.2 28.6 -4.2 C 29.4 -4.2 30.2 -3.7 30.2 -2.7 L 30.2 28.7 L 32.1 28.7 C 33.1 28.7 33.6 29.4 33.6 30.2 C 33.6 30.9 33.1 31.6 32.1 31.6 L 25.9 31.6 L 25.9 36.6 L 30.1 36.6 C 31.0 36.6 31.5 37.3 31.5 38.1 C 31.5 38.8 31.0 39.6 30.1 39.6 L 18.2 39.6 C 17.2 39.6 16.8 38.8 16.8 38.1 C 16.8 37.3 17.2 36.6 18.2 36.6 L 22.6 36.6 L 22.6 31.6 L 16.9 31.6 C 15.9 31.6 15.5 30.9 15.5 30.2 C 15.5 29.4 15.9 28.7 16.9 28.7 Z " transform="scale(1,-1)" stroke-dasharray="148.1780591120715" stroke-dashoffset="148.1780591120715"><animate attributeName="stroke-dashoffset" from="148.1780591120715" to="0" dur="4.445341773362145s" begin="anim5.end" fill="freeze" id="anim6" /></path><path d="M 21.6 12.8 L 27.0 12.8 L 27.0 7.5 C 25.2 6.9 23.4 6.4 21.6 6.0 Z " transform="scale(1,-1)" stroke-dasharray="23.10694653903509" stroke-dashoffset="23.10694653903509"><animate attributeName="stroke-dashoffset" from="23.10694653903509" to="0" dur="0.6932083961710527s" begin="anim6.end" fill="freeze" id="anim7" /></path><path d="M 21.6 15.6 L 21.6 20.9 L 27.0 20.9 L 27.0 15.6 Z " transform="scale(1,-1)" stroke-dasharray="21.399999999999995" stroke-dashoffset="21.399999999999995"><animate attributeName="stroke-dashoffset" from="21.399999999999995" to="0" dur="0.6419999999999998s" begin="anim7.end" fill="freeze" id="anim8" /></path><path d="M 21.6 23.7 L 21.6 28.7 L 27.0 28.7 L 27.0 23.7 Z" transform="scale(1,-1)" stroke-dasharray="20.799999999999997" stroke-dashoffset="20.799999999999997"><animate attributeName="stroke-dashoffset" from="20.799999999999997" to="0" dur="0.6239999999999999s" begin="anim8.end" fill="freeze" id="anim_end" /></path></g></svg>