<?xml version='1.0' encoding='utf-8'?>
<svg viewBox="0 -44.0 50.0 50.0" version="1.1" xmlns="http://www.w3.org/2000/svg"><rect x="-1000" y="-1000" width="2000" height="2000" stroke="white" fill="white" /><g style="fill:none;stroke:#000000;stroke-width:1"><path d="M 31.9 32.1 L 27.2 32.1 C 23.4 32.1 21.8 30.4 21.8 27.4 L 21.8 18.6 C 21.8 15.0 24.0 13.9 27.2 13.9 L 31.4 13.9 C 31.2 12.0 30.7 10.1 29.9 8.2 C 29.0 9.2 28.2 10.2 27.5 11.2 C 27.1 11.9 26.4 12.2 25.9 12.2 C 25.1 12.2 24.3 11.6 24.3 10.8 C 24.3 10.5 24.4 10.1 24.7 9.8 C 25.7 8.2 26.8 6.9 28.2 5.6 C 25.9 2.7 22.5 0.5 18.4 -0.9 C 17.4 -1.2 17.1 -1.8 17.1 -2.4 C 17.1 -3.2 17.7 -4.0 18.7 -4.0 C 18.9 -4.0 19.1 -4.0 19.2 -4.0 C 23.7 -2.6 27.9 0.1 30.7 3.4 C 34.9 0.2 40.3 -2.0 46.5 -3.0 C 47.8 -3.2 48.5 -2.2 48.5 -1.3 C 48.5 -0.5 48.0 0.3 47.0 0.5 C 41.2 1.5 36.2 3.4 32.5 6.0 C 33.9 8.5 34.6 11.1 35.0 13.9 L 40.6 13.9 C 44.4 13.9 46.1 15.5 46.1 18.6 L 46.1 27.4 C 46.1 30.4 44.4 32.1 40.6 32.1 L 35.4 32.1 L 35.4 36.1 L 46.7 36.1 C 47.6 36.1 48.1 36.9 48.1 37.6 C 48.1 38.4 47.6 39.2 46.7 39.2 L 21.9 39.2 C 21.0 39.2 20.5 38.4 20.5 37.6 C 20.5 36.9 21.0 36.1 21.9 36.1 L 31.9 36.1 Z " transform="scale(1,-1)" stroke-dasharray="232.11536693794312" stroke-dashoffset="232.11536693794312"><animate attributeName="stroke-dashoffset" from="232.11536693794312" to="0" dur="6.963461008138293s" begin="0s; 15s; 30s; 45s; 60s" fill="freeze" id="anim0" /></path><path d="M 35.4 21.7 L 42.6 21.7 L 42.6 18.9 C 42.5 17.2 41.8 16.9 40.2 16.9 L 35.2 16.9 C 35.4 18.3 35.4 19.8 35.4 21.2 Z " transform="scale(1,-1)" stroke-dasharray="23.452598430535993" stroke-dashoffset="23.452598430535993"><animate attributeName="stroke-dashoffset" from="23.452598430535993" to="0" dur="0.7035779529160797s" begin="anim0.end" fill="freeze" id="anim1" /></path><path d="M 31.9 21.7 C 31.9 20.1 31.8 18.4 31.7 16.9 L 27.6 16.9 C 25.9 16.9 25.2 17.2 25.2 18.9 L 25.2 21.7 Z " transform="scale(1,-1)" stroke-dasharray="22.10525026741329" stroke-dashoffset="22.10525026741329"><animate attributeName="stroke-dashoffset" from="22.10525026741329" to="0" dur="0.6631575080223987s" begin="anim1.end" fill="freeze" id="anim2" /></path><path d="M 35.4 29.1 L 40.2 29.1 C 41.9 29.1 42.6 28.7 42.6 27.0 L 42.6 24.6 L 35.4 24.6 Z " transform="scale(1,-1)" stroke-dasharray="22.65828924840733" stroke-dashoffset="22.65828924840733"><animate attributeName="stroke-dashoffset" from="22.65828924840733" to="0" dur="0.6797486774522198s" begin="anim2.end" fill="freeze" id="anim3" /></path><path d="M 31.9 29.1 L 31.9 24.6 L 25.2 24.6 L 25.2 27.0 C 25.2 28.7 25.9 29.1 27.6 29.1 Z " transform="scale(1,-1)" stroke-dasharray="21.65828924840732" stroke-dashoffset="21.65828924840732"><animate attributeName="stroke-dashoffset" from="21.65828924840732" to="0" dur="0.6497486774522196s" begin="anim3.end" fill="freeze" id="anim4" /></path><path d="M 17.1 35.4 C 18.1 35.4 18.6 36.2 18.6 37.0 C 18.6 37.8 18.1 38.5 17.1 38.5 L 3.5 38.5 C 2.5 38.5 2.0 37.8 2.0 37.0 C 2.0 36.2 2.5 35.4 3.5 35.4 L 8.2 35.4 C 7.2 28.9 4.9 20.9 1.7 16.1 C 1.4 15.7 1.2 15.2 1.2 14.9 C 1.2 14.0 2.0 13.4 2.8 13.4 C 3.3 13.4 4.0 13.7 4.4 14.5 C 5.1 15.6 5.8 16.8 6.4 18.1 L 6.2 12.8 L 6.2 5.8 C 6.2 2.7 7.5 1.7 10.5 1.7 L 13.8 1.7 C 16.5 1.7 18.0 2.6 18.0 5.8 L 18.0 20.4 C 18.0 23.6 16.5 24.5 13.8 24.5 L 10.5 24.5 C 10.0 24.5 9.5 24.4 9.0 24.3 C 10.2 27.9 11.2 31.6 11.8 35.4 Z " transform="scale(1,-1)" stroke-dasharray="130.7977810625287" stroke-dashoffset="130.7977810625287"><animate attributeName="stroke-dashoffset" from="130.7977810625287" to="0" dur="3.923933431875861s" begin="anim4.end" fill="freeze" id="anim5" /></path><path d="M 10.8 4.8 C 9.9 4.8 9.6 5.2 9.6 6.1 L 9.6 20.1 C 9.6 21.0 9.9 21.5 10.8 21.5 L 13.5 21.5 C 14.4 21.5 14.6 21.0 14.6 20.1 L 14.6 6.1 C 14.6 5.2 14.4 4.8 13.5 4.8 Z" transform="scale(1,-1)" stroke-dasharray="41.67239923559922" stroke-dashoffset="41.67239923559922"><animate attributeName="stroke-dashoffset" from="41.67239923559922" to="0" dur="1.2501719770679767s" begin="anim5.end" fill="freeze" id="anim_end" /></path></g></svg>