<?xml version='1.0' encoding='utf-8'?>
<svg viewBox="0 -44.0 50.0 50.0" version="1.1" xmlns="http://www.w3.org/2000/svg"><rect x="-1000" y="-1000" width="2000" height="2000" stroke="white" fill="white" /><g style="fill:none;stroke:#000000;stroke-width:1"><path d="M 28.7 19.1 C 27.5 17.4 25.7 16.0 23.4 14.7 C 22.7 14.3 22.4 13.8 22.4 13.2 C 22.4 12.4 23.0 11.7 23.9 11.7 C 24.1 11.7 24.5 11.8 24.8 12.0 C 28.3 13.8 30.9 16.1 32.5 19.1 L 39.9 19.1 C 43.6 19.1 45.2 20.6 45.2 23.6 L 45.2 32.2 C 45.2 35.1 43.6 36.6 39.9 36.6 L 32.6 36.6 C 33.1 37.5 33.6 38.4 34.0 39.4 C 34.1 39.7 34.1 40.0 34.1 40.2 C 34.1 41.2 33.2 41.9 32.3 41.9 C 31.6 41.9 30.8 41.5 30.5 40.6 C 30.1 39.0 29.6 37.9 29.0 36.6 L 26.4 36.6 C 22.6 36.6 21.1 35.1 21.1 32.2 L 21.1 23.6 C 21.1 20.1 23.2 19.2 26.4 19.1 Z " transform="scale(1,-1)" stroke-dasharray="104.79851363561122" stroke-dashoffset="104.79851363561122"><animate attributeName="stroke-dashoffset" from="104.79851363561122" to="0" dur="3.143955409068336s" begin="0s; 15s; 30s; 45s; 60s" fill="freeze" id="anim0" /></path><path d="M 27.0 22.0 C 25.1 22.0 24.4 22.5 24.4 24.1 L 24.4 26.6 L 31.2 26.6 C 31.1 25.1 30.8 23.5 30.2 22.0 Z " transform="scale(1,-1)" stroke-dasharray="21.140508640768" stroke-dashoffset="21.140508640768"><animate attributeName="stroke-dashoffset" from="21.140508640768" to="0" dur="0.63421525922304s" begin="anim0.end" fill="freeze" id="anim1" /></path><path d="M 33.6 22.0 C 34.1 23.5 34.4 25.1 34.5 26.6 L 41.8 26.6 L 41.8 24.1 C 41.8 22.2 40.8 22.1 39.2 22.0 Z " transform="scale(1,-1)" stroke-dasharray="24.005881368348867" stroke-dashoffset="24.005881368348867"><animate attributeName="stroke-dashoffset" from="24.005881368348867" to="0" dur="0.720176441050466s" begin="anim1.end" fill="freeze" id="anim2" /></path><path d="M 41.8 29.4 L 34.6 29.4 L 34.6 33.8 L 39.2 33.8 C 41.1 33.8 41.8 33.3 41.8 31.7 Z " transform="scale(1,-1)" stroke-dasharray="22.41391212100698" stroke-dashoffset="22.41391212100698"><animate attributeName="stroke-dashoffset" from="22.41391212100698" to="0" dur="0.6724173636302094s" begin="anim2.end" fill="freeze" id="anim3" /></path><path d="M 31.2 33.8 L 31.2 29.4 L 24.4 29.4 L 24.4 31.7 C 24.4 33.3 25.1 33.8 27.0 33.8 Z " transform="scale(1,-1)" stroke-dasharray="21.61391212100699" stroke-dashoffset="21.61391212100699"><animate attributeName="stroke-dashoffset" from="21.61391212100699" to="0" dur="0.6484173636302096s" begin="anim3.end" fill="freeze" id="anim4" /></path><path d="M 12.2 -0.8 C 15.5 -0.8 16.8 0.8 16.8 3.8 L 16.8 34.7 C 16.8 37.8 15.5 39.2 12.2 39.2 L 8.5 39.2 C 5.4 39.2 4.0 37.8 4.0 34.7 L 4.0 3.8 C 4.0 0.7 5.3 -0.7 8.5 -0.8 Z " transform="scale(1,-1)" stroke-dasharray="98.93718474677374" stroke-dashoffset="98.93718474677374"><animate attributeName="stroke-dashoffset" from="98.93718474677374" to="0" dur="2.968115542403212s" begin="anim4.end" fill="freeze" id="anim5" /></path><path d="M 9.1 2.4 C 7.7 2.4 7.4 2.8 7.4 4.4 L 7.4 12.9 L 13.5 12.9 L 13.5 4.4 C 13.5 3.0 13.2 2.4 11.7 2.4 Z " transform="scale(1,-1)" stroke-dasharray="32.02203289627613" stroke-dashoffset="32.02203289627613"><animate attributeName="stroke-dashoffset" from="32.02203289627613" to="0" dur="0.9606609868882838s" begin="anim5.end" fill="freeze" id="anim6" /></path><path d="M 7.4 24.2 L 13.5 24.2 L 13.5 15.9 L 7.4 15.9 Z " transform="scale(1,-1)" stroke-dasharray="28.799999999999997" stroke-dashoffset="28.799999999999997"><animate attributeName="stroke-dashoffset" from="28.799999999999997" to="0" dur="0.8639999999999999s" begin="anim6.end" fill="freeze" id="anim7" /></path><path d="M 13.5 27.2 L 7.4 27.2 L 7.4 34.1 C 7.4 35.7 7.7 36.1 9.1 36.1 L 11.7 36.1 C 13.1 36.1 13.5 35.7 13.5 34.1 Z " transform="scale(1,-1)" stroke-dasharray="28.84272755784963" stroke-dashoffset="28.84272755784963"><animate attributeName="stroke-dashoffset" from="28.84272755784963" to="0" dur="0.8652818267354889s" begin="anim7.end" fill="freeze" id="anim8" /></path><path d="M 34.4 7.8 L 34.4 -2.5 C 34.4 -3.6 35.2 -4.1 36.1 -4.1 C 37.0 -4.1 37.9 -3.6 37.9 -2.5 L 37.9 7.8 L 46.2 7.8 C 47.2 7.8 47.8 8.6 47.8 9.3 C 47.8 10.1 47.2 10.9 46.2 10.9 L 37.9 10.9 L 37.9 15.8 C 37.9 16.8 37.0 17.4 36.1 17.4 C 35.2 17.4 34.4 16.8 34.4 15.8 L 34.4 10.9 L 19.8 10.9 C 18.8 10.9 18.3 10.1 18.3 9.3 C 18.3 8.6 18.8 7.8 19.8 7.8 Z" transform="scale(1,-1)" stroke-dasharray="96.61777870377571" stroke-dashoffset="96.61777870377571"><animate attributeName="stroke-dashoffset" from="96.61777870377571" to="0" dur="2.8985333611132713s" begin="anim8.end" fill="freeze" id="anim_end" /></path></g></svg>