<?xml version='1.0' encoding='utf-8'?>
<svg viewBox="0 -44.0 50.0 50.0" version="1.1" xmlns="http://www.w3.org/2000/svg"><rect x="-1000" y="-1000" width="2000" height="2000" stroke="white" fill="white" /><g style="fill:none;stroke:#000000;stroke-width:1"><path d="M 39.5 30.2 C 43.0 30.2 44.1 31.2 44.1 33.5 L 44.1 36.7 C 44.1 38.9 43.0 40.0 39.5 40.0 L 10.9 40.0 C 7.4 40.0 6.2 38.9 6.2 36.7 L 6.2 33.5 C 6.3 30.6 8.3 30.2 10.9 30.2 Z " transform="scale(1,-1)" stroke-dasharray="89.91249894092148" stroke-dashoffset="89.91249894092148"><animate attributeName="stroke-dashoffset" from="89.91249894092148" to="0" dur="2.697374968227644s" begin="0s; 15s; 30s; 45s; 60s" fill="freeze" id="anim0" /></path><path d="M 32.1 32.8 L 32.1 37.4 L 39.0 37.4 C 40.3 37.4 40.7 37.1 40.7 36.1 L 40.7 34.0 C 40.7 32.9 39.9 32.8 39.0 32.8 Z " transform="scale(1,-1)" stroke-dasharray="25.430157809292" stroke-dashoffset="25.430157809292"><animate attributeName="stroke-dashoffset" from="25.430157809292" to="0" dur="0.76290473427876s" begin="anim0.end" fill="freeze" id="anim1" /></path><path d="M 28.9 37.4 L 28.9 32.8 L 20.7 32.8 L 20.7 37.4 Z " transform="scale(1,-1)" stroke-dasharray="25.6" stroke-dashoffset="25.6"><animate attributeName="stroke-dashoffset" from="25.6" to="0" dur="0.768s" begin="anim1.end" fill="freeze" id="anim2" /></path><path d="M 17.4 37.4 L 17.4 32.8 L 11.4 32.8 C 10.0 32.8 9.6 33.1 9.6 34.0 L 9.6 36.1 C 9.6 37.1 10.0 37.4 11.4 37.4 Z " transform="scale(1,-1)" stroke-dasharray="23.831851581371986" stroke-dashoffset="23.831851581371986"><animate attributeName="stroke-dashoffset" from="23.831851581371986" to="0" dur="0.7149555474411595s" begin="anim2.end" fill="freeze" id="anim3" /></path><path d="M 17.4 -3.3 C 20.6 -3.3 21.8 -2.1 21.8 0.0 L 21.8 3.0 C 21.8 5.1 20.6 6.2 17.4 6.2 L 10.1 6.2 C 6.9 6.2 5.8 5.1 5.8 3.0 L 5.8 0.0 C 5.8 -2.7 7.8 -3.2 10.1 -3.3 Z " transform="scale(1,-1)" stroke-dasharray="45.51158797857205" stroke-dashoffset="45.51158797857205"><animate attributeName="stroke-dashoffset" from="45.51158797857205" to="0" dur="1.3653476393571615s" begin="anim3.end" fill="freeze" id="anim4" /></path><path d="M 10.7 -0.7 C 9.5 -0.7 9.2 -0.4 9.2 0.4 L 9.2 2.6 C 9.2 3.3 9.5 3.7 10.7 3.7 L 16.9 3.7 C 18.0 3.7 18.4 3.3 18.4 2.6 L 18.4 0.4 C 18.3 -0.6 17.6 -0.7 16.9 -0.7 Z " transform="scale(1,-1)" stroke-dasharray="25.378317824789498" stroke-dashoffset="25.378317824789498"><animate attributeName="stroke-dashoffset" from="25.378317824789498" to="0" dur="0.7613495347436849s" begin="anim4.end" fill="freeze" id="anim5" /></path><path d="M 41.5 17.5 L 46.6 17.5 C 47.6 17.5 48.1 18.2 48.1 19.0 C 48.1 19.8 47.6 20.5 46.6 20.5 L 41.5 20.5 L 41.5 26.7 C 41.5 27.7 40.6 28.2 39.7 28.2 C 38.8 28.2 37.9 27.7 37.9 26.7 L 37.9 20.5 L 26.9 20.5 C 25.9 20.5 25.5 19.8 25.5 19.0 C 25.5 18.2 25.9 17.5 26.9 17.5 L 37.9 17.5 L 37.9 1.6 C 37.9 0.4 37.5 0.0 36.2 0.0 C 35.4 0.0 34.6 0.1 33.8 0.2 C 32.4 0.5 31.7 -0.5 31.7 -1.5 C 31.7 -2.2 32.1 -3.1 33.2 -3.2 C 34.2 -3.5 35.2 -3.6 36.2 -3.6 C 39.6 -3.6 41.5 -2.2 41.5 1.2 Z " transform="scale(1,-1)" stroke-dasharray="113.56904621790474" stroke-dashoffset="113.56904621790474"><animate attributeName="stroke-dashoffset" from="113.56904621790474" to="0" dur="3.407071386537142s" begin="anim5.end" fill="freeze" id="anim6" /></path><path d="M 19.5 24.6 C 20.4 24.6 20.9 25.2 20.9 26.0 C 20.9 26.7 20.4 27.4 19.5 27.4 L 7.9 27.4 C 7.1 27.4 6.6 26.7 6.6 26.0 C 6.6 25.2 7.1 24.6 7.9 24.6 Z " transform="scale(1,-1)" stroke-dasharray="31.918118505377905" stroke-dashoffset="31.918118505377905"><animate attributeName="stroke-dashoffset" from="31.918118505377905" to="0" dur="0.9575435551613372s" begin="anim6.end" fill="freeze" id="anim7" /></path><path d="M 22.6 19.2 C 23.5 19.2 24.0 20.0 24.0 20.7 C 24.0 21.5 23.5 22.2 22.6 22.2 L 3.9 22.2 C 3.0 22.2 2.5 21.5 2.5 20.7 C 2.5 20.0 3.0 19.2 3.9 19.2 Z " transform="scale(1,-1)" stroke-dasharray="46.569172063595026" stroke-dashoffset="46.569172063595026"><animate attributeName="stroke-dashoffset" from="46.569172063595026" to="0" dur="1.3970751619078507s" begin="anim7.end" fill="freeze" id="anim8" /></path><path d="M 19.5 14.0 C 20.4 14.0 20.9 14.7 20.9 15.4 C 20.9 16.1 20.4 16.8 19.5 16.8 L 7.9 16.8 C 7.1 16.8 6.6 16.1 6.6 15.4 C 6.6 14.7 7.1 14.0 7.9 14.0 Z " transform="scale(1,-1)" stroke-dasharray="31.875915345185273" stroke-dashoffset="31.875915345185273"><animate attributeName="stroke-dashoffset" from="31.875915345185273" to="0" dur="0.9562774603555582s" begin="anim8.end" fill="freeze" id="anim9" /></path><path d="M 19.8 8.7 C 20.7 8.7 21.2 9.4 21.2 10.1 C 21.2 10.8 20.7 11.5 19.8 11.5 L 7.7 11.5 C 6.9 11.5 6.4 10.8 6.4 10.1 C 6.4 9.4 6.9 8.7 7.7 8.7 Z " transform="scale(1,-1)" stroke-dasharray="32.87591534518528" stroke-dashoffset="32.87591534518528"><animate attributeName="stroke-dashoffset" from="32.87591534518528" to="0" dur="0.9862774603555583s" begin="anim9.end" fill="freeze" id="anim10" /></path><path d="M 27.2 11.1 C 28.6 9.9 29.7 8.7 30.8 7.2 C 31.3 6.4 32.0 6.1 32.6 6.1 C 33.5 6.1 34.2 6.9 34.2 7.9 C 34.2 8.3 34.1 8.8 33.7 9.3 C 32.6 10.8 31.3 12.0 29.9 13.2 C 29.4 13.7 28.9 13.9 28.4 13.9 C 27.4 13.9 26.6 13.2 26.6 12.4 C 26.6 12.0 26.8 11.5 27.2 11.1 Z" transform="scale(1,-1)" stroke-dasharray="22.936924131233923" stroke-dashoffset="22.936924131233923"><animate attributeName="stroke-dashoffset" from="22.936924131233923" to="0" dur="0.6881077239370177s" begin="anim10.end" fill="freeze" id="anim_end" /></path></g></svg>