<?xml version='1.0' encoding='utf-8'?>
<svg viewBox="0 -44.0 50.0 50.0" version="1.1" xmlns="http://www.w3.org/2000/svg"><rect x="-1000" y="-1000" width="2000" height="2000" stroke="white" fill="white" /><g style="fill:none;stroke:#000000;stroke-width:1"><path d="M 22.4 13.5 L 29.0 13.5 C 26.0 8.7 22.0 4.7 17.9 2.1 C 17.2 1.6 16.9 1.0 16.9 0.5 C 16.9 -0.4 17.7 -1.1 18.6 -1.1 C 18.9 -1.1 19.4 -1.0 19.8 -0.8 C 24.1 2.0 28.0 6.2 30.7 10.3 L 30.6 4.2 L 30.6 -2.6 C 30.6 -3.5 31.4 -4.0 32.2 -4.0 C 33.0 -4.0 33.8 -3.5 33.8 -2.6 L 33.8 13.5 L 41.9 13.5 C 43.2 13.5 43.7 13.0 43.7 12.2 C 43.7 10.4 43.4 8.1 43.0 6.7 C 42.6 5.5 41.9 4.9 40.5 4.9 C 40.1 4.9 39.4 4.9 38.7 5.1 C 37.4 5.4 36.6 4.5 36.6 3.6 C 36.6 2.8 37.1 2.1 38.3 1.8 C 39.1 1.7 40.0 1.6 40.8 1.6 C 43.9 1.6 45.5 3.0 46.2 5.9 C 46.7 7.6 47.0 10.1 47.1 12.0 C 47.2 14.8 45.6 16.4 42.6 16.4 L 33.8 16.4 L 33.8 21.7 L 40.6 21.7 C 43.7 21.7 45.0 23.2 45.0 25.2 L 45.0 29.2 C 45.0 31.2 43.7 32.7 40.6 32.7 L 36.9 32.7 C 38.2 34.6 39.5 36.9 40.5 39.1 C 40.6 39.4 40.7 39.7 40.7 40.0 C 40.7 41.0 39.7 41.6 38.8 41.6 C 38.1 41.6 37.4 41.2 37.1 40.4 C 36.1 38.0 34.6 35.1 33.1 32.7 L 20.4 32.7 C 19.4 32.7 18.9 32.0 18.9 31.2 C 18.9 30.5 19.4 29.7 20.4 29.7 L 30.6 29.7 L 30.6 24.7 L 25.4 24.7 C 22.5 24.7 21.2 23.7 20.7 21.1 L 18.9 13.0 C 18.6 11.9 19.5 11.2 20.5 11.2 C 21.2 11.2 22.0 11.7 22.2 12.6 Z " transform="scale(1,-1)" stroke-dasharray="250.58531624496533" stroke-dashoffset="250.58531624496533"><animate attributeName="stroke-dashoffset" from="250.58531624496533" to="0" dur="7.51755948734896s" begin="0s; 15s; 30s; 45s; 60s" fill="freeze" id="anim0" /></path><path d="M 23.0 16.4 L 23.8 20.4 C 24.0 21.3 24.6 21.7 25.9 21.7 L 30.6 21.7 L 30.6 16.4 Z " transform="scale(1,-1)" stroke-dasharray="24.402864359986005" stroke-dashoffset="24.402864359986005"><animate attributeName="stroke-dashoffset" from="24.402864359986005" to="0" dur="0.7320859307995801s" begin="anim0.end" fill="freeze" id="anim1" /></path><path d="M 33.8 29.7 L 40.1 29.7 C 41.4 29.7 41.7 29.4 41.7 28.5 L 41.7 25.9 C 41.7 25.1 41.4 24.7 40.1 24.7 L 33.8 24.7 Z " transform="scale(1,-1)" stroke-dasharray="24.89302625781699" stroke-dashoffset="24.89302625781699"><animate attributeName="stroke-dashoffset" from="24.89302625781699" to="0" dur="0.7467907877345097s" begin="anim1.end" fill="freeze" id="anim2" /></path><path d="M 11.6 -0.6 C 14.7 -0.6 16.0 1.0 16.0 4.0 L 16.0 34.8 C 16.0 37.9 14.7 39.3 11.6 39.3 L 8.2 39.3 C 5.1 39.3 3.8 37.9 3.8 34.8 L 3.8 4.0 C 3.9 0.9 5.1 -0.5 8.2 -0.6 Z " transform="scale(1,-1)" stroke-dasharray="97.59680491672722" stroke-dashoffset="97.59680491672722"><animate attributeName="stroke-dashoffset" from="97.59680491672722" to="0" dur="2.9279041475018164s" begin="anim2.end" fill="freeze" id="anim3" /></path><path d="M 8.7 2.6 C 7.5 2.6 7.1 3.0 7.1 4.5 L 7.1 13.1 L 12.7 13.1 L 12.7 4.5 C 12.7 3.2 12.5 2.6 11.1 2.6 Z " transform="scale(1,-1)" stroke-dasharray="31.078383412808595" stroke-dashoffset="31.078383412808595"><animate attributeName="stroke-dashoffset" from="31.078383412808595" to="0" dur="0.9323515023842578s" begin="anim3.end" fill="freeze" id="anim4" /></path><path d="M 7.1 24.4 L 12.7 24.4 L 12.7 16.1 L 7.1 16.1 Z " transform="scale(1,-1)" stroke-dasharray="27.799999999999994" stroke-dashoffset="27.799999999999994"><animate attributeName="stroke-dashoffset" from="27.799999999999994" to="0" dur="0.8339999999999997s" begin="anim4.end" fill="freeze" id="anim5" /></path><path d="M 12.7 27.4 L 7.1 27.4 L 7.1 34.3 C 7.1 35.8 7.5 36.2 8.7 36.2 L 11.1 36.2 C 12.3 36.2 12.7 35.8 12.7 34.3 Z " transform="scale(1,-1)" stroke-dasharray="27.667743694216984" stroke-dashoffset="27.667743694216984"><animate attributeName="stroke-dashoffset" from="27.667743694216984" to="0" dur="0.8300323108265095s" begin="anim5.end" fill="freeze" id="anim6" /></path><path d="M 26.8 40.4 C 26.3 41.0 25.8 41.2 25.2 41.2 C 24.4 41.2 23.6 40.6 23.6 39.7 C 23.6 39.3 23.8 38.9 24.1 38.5 C 24.7 37.6 25.6 36.2 26.3 34.9 C 26.7 34.1 27.2 33.9 27.8 33.9 C 28.7 33.9 29.6 34.6 29.6 35.6 C 29.6 36.0 29.5 36.3 29.3 36.6 C 28.8 37.8 27.7 39.4 26.8 40.4 Z" transform="scale(1,-1)" stroke-dasharray="20.126586384982264" stroke-dashoffset="20.126586384982264"><animate attributeName="stroke-dashoffset" from="20.126586384982264" to="0" dur="0.6037975915494679s" begin="anim6.end" fill="freeze" id="anim_end" /></path></g></svg>