<?xml version='1.0' encoding='utf-8'?>
<svg viewBox="0 -44.0 50.0 50.0" version="1.1" xmlns="http://www.w3.org/2000/svg"><rect x="-1000" y="-1000" width="2000" height="2000" stroke="white" fill="white" /><g style="fill:none;stroke:#000000;stroke-width:1"><path d="M 34.3 11.5 C 36.2 11.7 37.0 12.6 37.1 14.5 L 37.1 17.6 C 37.0 19.5 36.2 20.4 34.3 20.6 L 34.3 25.0 L 36.1 25.0 C 36.9 25.0 37.4 25.7 37.4 26.4 C 37.4 27.0 36.9 27.7 36.1 27.7 L 30.5 27.7 C 27.2 27.7 26.5 26.5 26.5 24.2 L 26.5 7.1 C 26.5 4.2 27.6 3.6 30.4 3.6 L 35.6 3.6 C 35.9 3.6 36.1 3.6 36.3 3.8 C 34.8 2.0 33.1 0.5 31.2 -0.9 C 30.4 -1.4 30.1 -2.0 30.1 -2.5 C 30.1 -3.2 30.7 -3.9 31.5 -3.9 C 31.9 -3.9 32.2 -3.7 32.6 -3.5 C 35.8 -1.3 38.5 1.3 40.6 4.2 C 42.0 -1.4 43.5 -3.1 45.2 -3.1 C 47.2 -3.1 48.8 -1.4 49.2 4.5 C 49.3 5.5 48.6 6.1 47.8 6.1 C 47.2 6.1 46.5 5.6 46.4 4.5 C 46.2 1.2 45.7 0.9 45.2 0.9 C 44.8 0.9 44.1 1.7 42.9 8.0 C 45.1 11.9 46.6 16.5 47.7 21.8 C 47.9 23.1 47.0 23.8 46.1 23.8 C 45.4 23.8 44.7 23.3 44.5 22.4 C 44.0 19.1 43.2 16.2 42.1 13.5 C 41.8 15.8 41.7 18.1 41.5 20.4 C 41.2 24.2 41.2 27.9 41.1 31.7 L 46.4 31.7 C 47.3 31.7 47.8 32.5 47.8 33.2 C 47.8 34.0 47.3 34.7 46.4 34.7 L 41.1 34.7 C 41.0 36.5 41.0 38.3 41.0 40.2 C 41.0 41.2 40.2 41.8 39.4 41.8 C 38.6 41.8 37.8 41.2 37.8 40.2 C 37.8 38.4 37.8 36.6 37.9 34.7 L 26.1 34.7 C 22.9 34.7 21.6 33.2 21.6 30.4 L 21.6 24.7 L 20.6 24.7 C 19.9 24.7 19.6 24.9 19.6 25.8 L 19.6 34.0 C 19.6 35.0 18.8 35.5 18.1 35.5 C 17.3 35.5 16.6 35.0 16.6 34.0 L 16.6 25.1 C 16.6 23.2 17.4 21.9 20.1 21.9 L 21.6 21.9 L 21.6 18.9 C 21.6 18.4 21.6 17.9 21.6 17.4 L 16.1 17.4 C 15.2 17.4 14.8 16.8 14.8 16.1 C 14.8 15.5 15.2 14.8 16.1 14.8 L 16.9 14.8 L 16.9 14.6 C 16.9 11.2 16.2 8.1 15.1 6.0 C 14.9 5.7 14.8 5.4 14.8 5.1 C 14.8 4.3 15.5 3.7 16.2 3.7 C 16.7 3.7 17.3 4.0 17.7 4.8 C 18.9 7.5 19.6 10.6 19.6 14.4 L 19.6 14.8 L 21.5 14.8 C 21.1 7.5 19.8 2.6 17.5 -1.8 C 17.3 -2.1 17.2 -2.5 17.2 -2.7 C 17.2 -3.6 17.9 -4.1 18.7 -4.1 C 19.2 -4.1 20.0 -3.8 20.4 -3.0 C 23.2 2.4 24.7 8.7 24.7 18.9 L 24.7 29.9 C 24.7 31.2 25.2 31.7 26.8 31.7 L 37.9 31.7 C 38.1 26.2 38.2 20.7 38.8 15.2 C 39.1 13.0 39.4 10.8 39.7 8.6 C 38.9 7.1 37.9 5.6 36.8 4.2 C 36.9 4.5 36.9 4.7 36.9 4.9 C 36.9 5.6 36.5 6.2 35.6 6.2 L 34.3 6.2 Z " transform="scale(1,-1)" stroke-dasharray="406.8054987853547" stroke-dashoffset="406.8054987853547"><animate attributeName="stroke-dashoffset" from="406.8054987853547" to="0" dur="12.20416496356064s" begin="0s; 15s; 30s; 45s; 60s" fill="freeze" id="anim0" /></path><path d="M 31.6 11.5 L 31.6 6.2 L 30.4 6.2 C 29.5 6.2 29.2 6.4 29.2 7.3 L 29.2 11.5 Z " transform="scale(1,-1)" stroke-dasharray="15.034813498055131" stroke-dashoffset="15.034813498055131"><animate attributeName="stroke-dashoffset" from="15.034813498055131" to="0" dur="0.45104440494165393s" begin="anim0.end" fill="freeze" id="anim1" /></path><path d="M 31.6 20.6 L 29.2 20.6 L 29.2 23.7 C 29.2 24.8 29.5 25.0 30.5 25.0 L 31.6 25.0 Z " transform="scale(1,-1)" stroke-dasharray="13.202893680973146" stroke-dashoffset="13.202893680973146"><animate attributeName="stroke-dashoffset" from="13.202893680973146" to="0" dur="0.39608681042919436s" begin="anim1.end" fill="freeze" id="anim2" /></path><path d="M 29.2 14.0 L 29.2 18.0 L 33.2 18.0 C 34.2 18.0 34.4 17.9 34.4 16.9 L 34.4 15.1 C 34.4 14.1 34.2 14.0 33.2 14.0 Z " transform="scale(1,-1)" stroke-dasharray="17.776576817779155" stroke-dashoffset="17.776576817779155"><animate attributeName="stroke-dashoffset" from="17.776576817779155" to="0" dur="0.5332973045333746s" begin="anim2.end" fill="freeze" id="anim3" /></path><path d="M 10.2 8.1 C 13.2 8.1 14.4 9.2 14.4 12.3 L 14.4 36.1 C 14.4 39.2 13.2 40.4 10.2 40.4 L 7.5 40.4 C 4.4 40.4 3.2 39.2 3.2 36.1 L 3.2 12.3 C 3.2 9.2 4.4 8.1 7.5 8.1 Z " transform="scale(1,-1)" stroke-dasharray="81.06769928679986" stroke-dashoffset="81.06769928679986"><animate attributeName="stroke-dashoffset" from="81.06769928679986" to="0" dur="2.4320309786039958s" begin="anim3.end" fill="freeze" id="anim4" /></path><path d="M 7.9 11.0 C 6.7 11.0 6.3 11.2 6.3 12.8 L 6.3 18.6 L 11.3 18.6 L 11.3 12.8 C 11.3 11.5 11.2 11.0 9.7 11.0 Z " transform="scale(1,-1)" stroke-dasharray="24.199032797240072" stroke-dashoffset="24.199032797240072"><animate attributeName="stroke-dashoffset" from="24.199032797240072" to="0" dur="0.7259709839172022s" begin="anim4.end" fill="freeze" id="anim5" /></path><path d="M 6.3 28.0 L 11.3 28.0 L 11.3 21.5 L 6.3 21.5 Z " transform="scale(1,-1)" stroke-dasharray="23.0" stroke-dashoffset="23.0"><animate attributeName="stroke-dashoffset" from="23.0" to="0" dur="0.69s" begin="anim5.end" fill="freeze" id="anim6" /></path><path d="M 11.3 30.9 L 6.3 30.9 L 6.3 35.6 C 6.3 37.2 6.7 37.4 7.9 37.4 L 9.7 37.4 C 11.0 37.4 11.3 37.2 11.3 35.6 Z " transform="scale(1,-1)" stroke-dasharray="22.01615024002054" stroke-dashoffset="22.01615024002054"><animate attributeName="stroke-dashoffset" from="22.01615024002054" to="0" dur="0.6604845072006161s" begin="anim6.end" fill="freeze" id="anim7" /></path><path d="M 4.6 5.5 C 3.8 3.4 2.9 1.5 1.7 -0.5 C 1.4 -0.8 1.3 -1.2 1.3 -1.5 C 1.3 -2.4 2.1 -3.1 2.9 -3.1 C 3.4 -3.1 4.0 -2.8 4.5 -2.1 C 5.6 -0.4 6.9 2.2 7.6 4.1 C 7.7 4.4 7.7 4.6 7.7 4.8 C 7.7 5.8 6.8 6.4 6.0 6.4 C 5.4 6.4 4.9 6.1 4.6 5.5 Z " transform="scale(1,-1)" stroke-dasharray="24.24085983672363" stroke-dashoffset="24.24085983672363"><animate attributeName="stroke-dashoffset" from="24.24085983672363" to="0" dur="0.7272257951017088s" begin="anim7.end" fill="freeze" id="anim8" /></path><path d="M 12.7 6.2 C 12.4 6.7 11.9 6.9 11.4 6.9 C 10.6 6.9 9.9 6.4 9.9 5.6 C 9.9 5.3 10.0 5.0 10.2 4.7 C 10.9 3.4 11.7 1.8 12.2 0.1 C 12.5 -0.8 13.1 -1.1 13.7 -1.1 C 14.5 -1.1 15.3 -0.5 15.3 0.6 C 15.3 0.9 15.2 1.2 15.1 1.5 C 14.6 3.1 13.6 4.9 12.7 6.2 Z " transform="scale(1,-1)" stroke-dasharray="20.65205392049692" stroke-dashoffset="20.65205392049692"><animate attributeName="stroke-dashoffset" from="20.65205392049692" to="0" dur="0.6195616176149076s" begin="anim8.end" fill="freeze" id="anim9" /></path><path d="M 44.5 40.5 C 44.2 40.8 43.8 41.0 43.4 41.0 C 42.7 41.0 42.1 40.4 42.1 39.7 C 42.1 39.3 42.2 38.9 42.6 38.6 C 43.2 38.0 43.8 37.4 44.3 36.7 C 44.7 36.2 45.1 36.0 45.5 36.0 C 46.2 36.0 46.9 36.6 46.9 37.5 C 46.9 37.8 46.8 38.1 46.5 38.5 C 46.0 39.2 45.2 39.9 44.5 40.5 Z" transform="scale(1,-1)" stroke-dasharray="14.73339939895735" stroke-dashoffset="14.73339939895735"><animate attributeName="stroke-dashoffset" from="14.73339939895735" to="0" dur="0.4420019819687205s" begin="anim9.end" fill="freeze" id="anim_end" /></path></g></svg>