<?xml version='1.0' encoding='utf-8'?>
<svg viewBox="0 -44.0 50.0 50.0" version="1.1" xmlns="http://www.w3.org/2000/svg"><rect x="-1000" y="-1000" width="2000" height="2000" stroke="white" fill="white" /><g style="fill:none;stroke:#000000;stroke-width:1"><path d="M 24.7 14.3 C 24.7 17.1 23.4 18.2 20.4 18.2 L 17.9 18.2 C 16.9 18.2 16.4 17.5 16.4 16.7 C 16.4 16.0 16.9 15.2 17.9 15.2 L 19.8 15.2 C 21.1 15.2 21.4 15.0 21.4 13.9 L 21.4 4.6 C 20.0 3.1 18.1 1.6 16.2 0.2 C 15.5 -0.2 15.2 -0.8 15.2 -1.4 C 15.2 -2.2 16.0 -3.0 16.9 -3.0 C 17.3 -3.0 17.7 -2.8 18.2 -2.5 C 20.1 -1.1 22.0 0.6 23.5 2.2 C 26.3 -0.8 30.5 -2.2 38.1 -2.2 C 41.5 -2.2 44.7 -2.1 47.2 -1.9 C 48.4 -1.8 48.9 -1.1 48.9 -0.2 C 48.9 0.7 48.2 1.6 46.9 1.5 C 44.5 1.3 41.3 1.2 38.1 1.2 C 30.0 1.2 27.0 2.4 24.7 5.2 Z " transform="scale(1,-1)" stroke-dasharray="110.42684530340102" stroke-dashoffset="110.42684530340102"><animate attributeName="stroke-dashoffset" from="110.42684530340102" to="0" dur="3.3128053591020308s" begin="0s; 15s; 30s; 45s; 60s" fill="freeze" id="anim0" /></path><path d="M 33.9 22.9 C 31.9 18.1 29.4 13.9 26.7 10.7 C 26.3 10.2 26.2 9.7 26.2 9.3 C 26.2 8.5 26.8 7.9 27.6 7.9 C 28.1 7.9 28.7 8.2 29.2 8.8 C 31.4 11.4 33.5 14.9 35.0 18.0 L 34.8 9.5 L 34.8 4.3 C 34.8 3.3 35.6 2.8 36.5 2.8 C 37.3 2.8 38.1 3.3 38.1 4.3 L 38.1 16.4 C 40.2 14.9 42.0 13.2 43.6 11.4 C 44.1 10.9 44.6 10.6 45.1 10.6 C 46.0 10.6 46.6 11.3 46.6 12.2 C 46.6 12.8 46.4 13.4 45.8 14.0 C 43.9 16.0 41.1 18.2 38.1 19.8 L 38.1 22.9 L 45.7 22.9 C 46.6 22.9 47.1 23.7 47.1 24.4 C 47.1 25.2 46.6 25.9 45.7 25.9 L 38.1 25.9 L 38.1 40.0 C 38.1 41.1 37.3 41.6 36.5 41.6 C 35.6 41.6 34.8 41.1 34.8 40.0 L 34.8 25.9 L 27.5 25.9 C 26.6 25.9 26.1 25.2 26.1 24.4 C 26.1 23.7 26.6 22.9 27.5 22.9 Z " transform="scale(1,-1)" stroke-dasharray="159.45522105611334" stroke-dashoffset="159.45522105611334"><animate attributeName="stroke-dashoffset" from="159.45522105611334" to="0" dur="4.7836566316834s" begin="anim0.end" fill="freeze" id="anim1" /></path><path d="M 11.1 -2.7 C 14.2 -2.7 15.3 -1.4 15.3 1.5 L 15.3 8.0 C 15.3 10.8 14.2 12.1 11.2 12.1 L 7.2 12.1 C 4.2 12.1 3.1 10.8 3.1 8.0 L 3.1 1.5 C 3.1 -1.5 4.2 -2.6 7.2 -2.7 Z " transform="scale(1,-1)" stroke-dasharray="48.10603652516521" stroke-dashoffset="48.10603652516521"><animate attributeName="stroke-dashoffset" from="48.10603652516521" to="0" dur="1.4431810957549562s" begin="anim1.end" fill="freeze" id="anim2" /></path><path d="M 7.8 0.2 C 6.7 0.2 6.2 0.8 6.2 1.9 L 6.2 7.5 C 6.2 8.6 6.7 9.2 7.8 9.2 L 10.5 9.2 C 11.6 9.2 12.1 8.6 12.1 7.5 L 12.1 1.9 C 12.1 0.9 11.6 0.3 10.5 0.2 Z " transform="scale(1,-1)" stroke-dasharray="27.264460135036813" stroke-dashoffset="27.264460135036813"><animate attributeName="stroke-dashoffset" from="27.264460135036813" to="0" dur="0.8179338040511044s" begin="anim2.end" fill="freeze" id="anim3" /></path><path d="M 20.6 36.5 C 20.1 36.9 19.6 37.1 19.1 37.1 C 18.2 37.1 17.4 36.4 17.4 35.6 C 17.4 35.1 17.6 34.7 18.1 34.3 C 19.3 33.1 20.9 31.5 22.0 30.0 C 22.5 29.4 23.0 29.1 23.5 29.1 C 24.4 29.1 25.1 29.9 25.1 30.9 C 25.1 31.3 25.0 31.8 24.6 32.3 C 23.4 33.9 21.9 35.4 20.6 36.5 Z " transform="scale(1,-1)" stroke-dasharray="23.306740512256336" stroke-dashoffset="23.306740512256336"><animate attributeName="stroke-dashoffset" from="23.306740512256336" to="0" dur="0.6992022153676901s" begin="anim3.end" fill="freeze" id="anim4" /></path><path d="M 42.7 35.9 C 42.1 34.1 41.1 31.9 40.2 30.4 C 40.1 30.0 40.0 29.7 40.0 29.4 C 40.0 28.5 40.6 27.9 41.4 27.9 C 42.0 27.9 42.6 28.2 43.0 29.0 C 43.9 30.7 45.1 32.9 45.7 35.0 C 45.8 35.2 45.8 35.4 45.8 35.6 C 45.8 36.6 45.1 37.1 44.2 37.1 C 43.6 37.1 43.0 36.8 42.7 35.9 Z " transform="scale(1,-1)" stroke-dasharray="23.183096573563436" stroke-dashoffset="23.183096573563436"><animate attributeName="stroke-dashoffset" from="23.183096573563436" to="0" dur="0.695492897206903s" begin="anim4.end" fill="freeze" id="anim5" /></path><path d="M 30.4 35.6 C 30.0 36.4 29.4 36.6 28.8 36.6 C 28.0 36.6 27.2 36.1 27.2 35.2 C 27.2 35.0 27.3 34.6 27.5 34.3 C 28.2 32.9 29.2 30.9 29.7 29.5 C 30.0 28.6 30.7 28.2 31.4 28.2 C 32.2 28.2 33.0 28.8 33.0 29.8 C 33.0 30.1 32.9 30.4 32.8 30.7 C 32.3 32.0 31.4 34.1 30.4 35.6 Z " transform="scale(1,-1)" stroke-dasharray="21.829208672369322" stroke-dashoffset="21.829208672369322"><animate attributeName="stroke-dashoffset" from="21.829208672369322" to="0" dur="0.6548762601710797s" begin="anim5.end" fill="freeze" id="anim6" /></path><path d="M 15.6 29.9 C 16.6 29.9 17.0 30.7 17.0 31.5 C 17.0 32.2 16.6 33.0 15.6 33.0 L 2.6 33.0 C 1.7 33.0 1.2 32.2 1.2 31.5 C 1.2 30.7 1.7 29.9 2.6 29.9 Z " transform="scale(1,-1)" stroke-dasharray="35.36111770712591" stroke-dashoffset="35.36111770712591"><animate attributeName="stroke-dashoffset" from="35.36111770712591" to="0" dur="1.0608335312137773s" begin="anim6.end" fill="freeze" id="anim7" /></path><path d="M 13.5 36.8 C 14.4 36.8 14.9 37.6 14.9 38.3 C 14.9 39.1 14.4 39.9 13.5 39.9 L 4.8 39.9 C 3.9 39.9 3.4 39.1 3.4 38.3 C 3.4 37.6 3.9 36.8 4.8 36.8 Z " transform="scale(1,-1)" stroke-dasharray="26.710890414937356" stroke-dashoffset="26.710890414937356"><animate attributeName="stroke-dashoffset" from="26.710890414937356" to="0" dur="0.8013267124481207s" begin="anim7.end" fill="freeze" id="anim8" /></path><path d="M 13.5 22.9 C 14.4 22.9 14.9 23.7 14.9 24.4 C 14.9 25.2 14.4 26.0 13.5 26.0 L 4.8 26.0 C 3.9 26.0 3.4 25.2 3.4 24.4 C 3.4 23.7 3.9 22.9 4.8 22.9 Z " transform="scale(1,-1)" stroke-dasharray="26.710890414937356" stroke-dashoffset="26.710890414937356"><animate attributeName="stroke-dashoffset" from="26.710890414937356" to="0" dur="0.8013267124481207s" begin="anim8.end" fill="freeze" id="anim9" /></path><path d="M 13.5 16.0 C 14.4 16.0 14.9 16.8 14.9 17.6 C 14.9 18.4 14.4 19.1 13.5 19.1 L 4.8 19.1 C 3.9 19.1 3.4 18.4 3.4 17.6 C 3.4 16.8 3.9 16.0 4.8 16.0 Z" transform="scale(1,-1)" stroke-dasharray="26.751131487675643" stroke-dashoffset="26.751131487675643"><animate attributeName="stroke-dashoffset" from="26.751131487675643" to="0" dur="0.8025339446302693s" begin="anim9.end" fill="freeze" id="anim_end" /></path></g></svg>