<?xml version='1.0' encoding='utf-8'?>
<svg viewBox="0 -44.0 50.0 50.0" version="1.1" xmlns="http://www.w3.org/2000/svg"><rect x="-1000" y="-1000" width="2000" height="2000" stroke="white" fill="white" /><g style="fill:none;stroke:#000000;stroke-width:1"><path d="M 13.0 8.7 C 16.2 8.7 17.6 10.0 17.6 13.1 L 17.6 35.0 C 17.6 38.1 16.2 39.5 13.0 39.5 L 9.0 39.5 C 5.8 39.5 4.4 38.1 4.4 35.0 L 4.4 13.1 C 4.4 9.8 5.9 8.7 9.0 8.7 Z " transform="scale(1,-1)" stroke-dasharray="81.46761642859181" stroke-dashoffset="81.46761642859181"><animate attributeName="stroke-dashoffset" from="81.46761642859181" to="0" dur="2.444028492857754s" begin="0s; 15s; 30s; 45s; 60s" fill="freeze" id="anim0" /></path><path d="M 9.5 11.6 C 8.1 11.6 7.7 12.0 7.7 13.5 L 7.7 18.2 L 14.3 18.2 L 14.3 13.5 C 14.2 12.1 14.0 11.6 12.5 11.6 Z " transform="scale(1,-1)" stroke-dasharray="25.191639887094816" stroke-dashoffset="25.191639887094816"><animate attributeName="stroke-dashoffset" from="25.191639887094816" to="0" dur="0.7557491966128445s" begin="anim0.end" fill="freeze" id="anim1" /></path><path d="M 7.7 27.5 L 14.3 27.5 L 14.3 21.2 L 7.7 21.2 Z " transform="scale(1,-1)" stroke-dasharray="25.800000000000004" stroke-dashoffset="25.800000000000004"><animate attributeName="stroke-dashoffset" from="25.800000000000004" to="0" dur="0.7740000000000001s" begin="anim1.end" fill="freeze" id="anim2" /></path><path d="M 14.3 30.4 L 7.7 30.4 L 7.7 34.6 C 7.7 36.1 8.1 36.5 9.5 36.5 L 12.5 36.5 C 13.9 36.5 14.3 36.1 14.3 34.6 Z " transform="scale(1,-1)" stroke-dasharray="24.22271006883518" stroke-dashoffset="24.22271006883518"><animate attributeName="stroke-dashoffset" from="24.22271006883518" to="0" dur="0.7266813020650554s" begin="anim2.end" fill="freeze" id="anim3" /></path><path d="M 38.4 1.2 L 38.4 15.5 L 44.6 15.5 C 45.6 15.5 46.0 16.3 46.0 17.1 C 46.0 17.9 45.6 18.6 44.6 18.6 L 38.4 18.6 L 38.4 27.2 C 38.4 28.2 37.5 28.8 36.6 28.8 C 35.8 28.8 34.9 28.2 34.9 27.2 L 34.9 18.6 L 29.5 18.6 C 28.5 18.6 28.0 17.9 28.0 17.1 C 28.0 16.3 28.5 15.5 29.5 15.5 L 34.9 15.5 L 34.9 1.2 L 26.2 1.2 C 25.3 1.2 24.8 0.5 24.8 -0.3 C 24.8 -1.1 25.3 -1.9 26.2 -1.9 L 46.8 -1.9 C 47.8 -1.9 48.2 -1.1 48.2 -0.3 C 48.2 0.5 47.8 1.2 46.8 1.2 Z " transform="scale(1,-1)" stroke-dasharray="130.948857115556" stroke-dashoffset="130.948857115556"><animate attributeName="stroke-dashoffset" from="130.948857115556" to="0" dur="3.9284657134666796s" begin="anim3.end" fill="freeze" id="anim4" /></path><path d="M 37.1 34.6 L 37.1 40.2 C 37.1 41.2 36.2 41.8 35.3 41.8 C 34.5 41.8 33.6 41.2 33.6 40.2 L 33.6 34.6 L 28.0 34.6 C 24.1 34.6 22.5 32.8 22.5 29.8 L 22.5 24.6 C 22.5 10.9 21.2 4.6 18.2 -0.8 C 17.9 -1.2 17.9 -1.7 17.9 -2.1 C 17.9 -3.0 18.6 -3.6 19.5 -3.6 C 20.1 -3.6 20.8 -3.2 21.2 -2.5 C 24.7 3.5 26.1 10.7 26.1 24.5 L 26.1 29.2 C 26.1 30.9 26.8 31.5 29.0 31.5 L 46.2 31.5 C 47.2 31.5 47.7 32.3 47.7 33.1 C 47.7 33.9 47.2 34.6 46.2 34.6 Z " transform="scale(1,-1)" stroke-dasharray="135.57248904112967" stroke-dashoffset="135.57248904112967"><animate attributeName="stroke-dashoffset" from="135.57248904112967" to="0" dur="4.06717467123389s" begin="anim4.end" fill="freeze" id="anim5" /></path><path d="M 6.2 5.9 C 5.2 3.8 3.9 1.7 2.5 -0.2 C 2.1 -0.6 2.0 -1.1 2.0 -1.5 C 2.0 -2.4 2.7 -3.1 3.6 -3.1 C 4.1 -3.1 4.7 -2.8 5.2 -2.1 C 6.6 -0.6 8.3 2.1 9.3 4.2 C 9.5 4.5 9.6 4.9 9.6 5.2 C 9.6 6.2 8.7 6.9 7.8 6.9 C 7.2 6.9 6.6 6.6 6.2 5.9 Z " transform="scale(1,-1)" stroke-dasharray="26.377735289220713" stroke-dashoffset="26.377735289220713"><animate attributeName="stroke-dashoffset" from="26.377735289220713" to="0" dur="0.7913320586766214s" begin="anim5.end" fill="freeze" id="anim6" /></path><path d="M 15.4 6.5 C 15.0 7.0 14.5 7.2 14.0 7.2 C 13.1 7.2 12.4 6.6 12.4 5.8 C 12.4 5.5 12.5 5.2 12.7 4.9 C 13.7 3.4 14.0 2.5 14.7 0.8 C 15.0 0.1 15.6 -0.2 16.2 -0.2 C 17.1 -0.2 17.9 0.5 17.9 1.6 C 17.9 1.9 17.9 2.2 17.8 2.6 C 17.1 4.1 16.5 5.0 15.4 6.5 Z" transform="scale(1,-1)" stroke-dasharray="19.80240503900917" stroke-dashoffset="19.80240503900917"><animate attributeName="stroke-dashoffset" from="19.80240503900917" to="0" dur="0.594072151170275s" begin="anim6.end" fill="freeze" id="anim_end" /></path></g></svg>