<?xml version='1.0' encoding='utf-8'?>
<svg viewBox="0 -44.0 50.0 50.0" version="1.1" xmlns="http://www.w3.org/2000/svg"><rect x="-1000" y="-1000" width="2000" height="2000" stroke="white" fill="white" /><g style="fill:none;stroke:#000000;stroke-width:1"><path d="M 15.6 -2.2 C 19.1 -2.2 20.3 -0.9 20.3 2.0 L 20.3 7.8 C 20.3 10.7 19.1 12.0 15.6 12.0 L 10.3 12.0 C 7.0 12.0 5.6 10.7 5.6 7.8 L 5.6 2.0 C 5.7 -1.2 7.2 -2.2 10.3 -2.2 Z " transform="scale(1,-1)" stroke-dasharray="51.45985665562448" stroke-dashoffset="51.45985665562448"><animate attributeName="stroke-dashoffset" from="51.45985665562448" to="0" dur="1.5437956996687343s" begin="0s; 15s; 30s; 45s; 60s" fill="freeze" id="anim0" /></path><path d="M 10.9 0.8 C 9.5 0.8 9.0 1.2 9.0 2.5 L 9.0 7.2 C 9.0 8.5 9.5 9.0 10.9 9.0 L 15.0 9.0 C 16.4 9.0 16.9 8.5 16.9 7.2 L 16.9 2.5 C 16.9 1.1 16.2 0.8 15.0 0.8 Z " transform="scale(1,-1)" stroke-dasharray="29.698355376898057" stroke-dashoffset="29.698355376898057"><animate attributeName="stroke-dashoffset" from="29.698355376898057" to="0" dur="0.8909506613069417s" begin="anim0.end" fill="freeze" id="anim1" /></path><path d="M 37.0 21.2 L 47.1 21.2 C 48.1 21.2 48.6 22.1 48.6 22.9 C 48.6 23.8 48.1 24.6 47.1 24.6 L 37.0 24.6 L 37.0 39.6 C 37.0 40.6 36.1 41.2 35.1 41.2 C 34.2 41.2 33.2 40.6 33.2 39.6 L 33.2 24.6 L 24.4 24.6 C 23.4 24.6 22.9 23.8 22.9 22.9 C 22.9 22.1 23.4 21.2 24.4 21.2 L 33.2 21.2 L 33.2 -2.0 C 33.2 -3.1 34.2 -3.6 35.1 -3.6 C 36.1 -3.6 37.0 -3.1 37.0 -2.0 Z " transform="scale(1,-1)" stroke-dasharray="135.46636517793905" stroke-dashoffset="135.46636517793905"><animate attributeName="stroke-dashoffset" from="135.46636517793905" to="0" dur="4.063990955338172s" begin="anim1.end" fill="freeze" id="anim2" /></path><path d="M 21.4 29.4 C 22.4 29.4 22.8 30.2 22.8 31.0 C 22.8 31.8 22.4 32.5 21.4 32.5 L 4.0 32.5 C 3.0 32.5 2.5 31.8 2.5 31.0 C 2.5 30.2 3.0 29.4 4.0 29.4 Z " transform="scale(1,-1)" stroke-dasharray="44.37409201318565" stroke-dashoffset="44.37409201318565"><animate attributeName="stroke-dashoffset" from="44.37409201318565" to="0" dur="1.3312227603955695s" begin="anim2.end" fill="freeze" id="anim3" /></path><path d="M 18.4 36.1 C 19.4 36.1 19.8 37.0 19.8 37.7 C 19.8 38.5 19.4 39.2 18.4 39.2 L 7.3 39.2 C 6.4 39.2 5.9 38.5 5.9 37.7 C 5.9 37.0 6.4 36.1 7.3 36.1 Z " transform="scale(1,-1)" stroke-dasharray="31.563771661485003" stroke-dashoffset="31.563771661485003"><animate attributeName="stroke-dashoffset" from="31.563771661485003" to="0" dur="0.94691314984455s" begin="anim3.end" fill="freeze" id="anim4" /></path><path d="M 18.4 22.5 C 19.4 22.5 19.8 23.2 19.8 24.0 C 19.8 24.8 19.4 25.6 18.4 25.6 L 7.3 25.6 C 6.4 25.6 5.9 24.8 5.9 24.0 C 5.9 23.2 6.4 22.5 7.3 22.5 Z " transform="scale(1,-1)" stroke-dasharray="31.60146499295169" stroke-dashoffset="31.60146499295169"><animate attributeName="stroke-dashoffset" from="31.60146499295169" to="0" dur="0.9480439497885507s" begin="anim4.end" fill="freeze" id="anim5" /></path><path d="M 18.4 15.8 C 19.4 15.8 19.8 16.6 19.8 17.3 C 19.8 18.1 19.4 18.9 18.4 18.9 L 7.3 18.9 C 6.4 18.9 5.9 18.1 5.9 17.3 C 5.9 16.6 6.4 15.8 7.3 15.8 Z" transform="scale(1,-1)" stroke-dasharray="31.561117707125902" stroke-dashoffset="31.561117707125902"><animate attributeName="stroke-dashoffset" from="31.561117707125902" to="0" dur="0.946833531213777s" begin="anim5.end" fill="freeze" id="anim_end" /></path></g></svg>