<?xml version='1.0' encoding='utf-8'?>
<svg viewBox="0 -44.0 50.0 50.0" version="1.1" xmlns="http://www.w3.org/2000/svg"><rect x="-1000" y="-1000" width="2000" height="2000" stroke="white" fill="white" /><g style="fill:none;stroke:#000000;stroke-width:1"><path d="M 32.1 29.5 L 32.1 2.0 C 32.1 0.7 31.7 0.2 30.7 0.2 C 29.8 0.2 29.0 0.4 28.1 0.6 C 26.8 0.8 26.1 -0.2 26.1 -1.2 C 26.1 -2.0 26.5 -2.8 27.5 -3.0 C 28.5 -3.2 29.7 -3.4 31.0 -3.4 C 33.9 -3.4 35.7 -2.1 35.7 1.0 L 35.7 29.5 L 45.4 29.5 C 46.4 29.5 46.9 30.3 46.9 31.1 C 46.9 31.9 46.4 32.7 45.4 32.7 L 28.2 32.7 C 29.1 34.8 29.9 37.0 30.5 38.9 C 30.6 39.2 30.6 39.5 30.6 39.7 C 30.6 40.8 29.8 41.5 28.9 41.5 C 28.1 41.5 27.4 41.1 27.1 40.1 C 25.7 35.1 23.1 29.7 20.4 26.0 C 20.0 25.5 19.9 25.0 19.9 24.6 C 19.9 23.7 20.6 23.0 21.5 23.0 C 22.0 23.0 22.6 23.2 23.0 23.9 C 24.2 25.5 25.5 27.5 26.6 29.5 Z " transform="scale(1,-1)" stroke-dasharray="155.97345589971803" stroke-dashoffset="155.97345589971803"><animate attributeName="stroke-dashoffset" from="155.97345589971803" to="0" dur="4.67920367699154s" begin="0s; 15s; 30s; 45s; 60s" fill="freeze" id="anim0" /></path><path d="M 8.6 -2.6 C 8.6 -3.7 9.5 -4.2 10.4 -4.2 C 11.2 -4.2 12.1 -3.7 12.1 -2.6 L 12.1 13.0 C 13.5 12.0 14.9 10.8 16.0 9.6 C 16.4 9.1 16.8 9.0 17.2 9.0 C 18.2 9.0 18.9 9.8 18.9 10.7 C 18.9 11.2 18.8 11.7 18.2 12.2 C 17.5 12.9 16.6 13.6 15.6 14.2 C 16.9 15.4 18.1 16.7 19.3 18.2 C 19.6 18.7 19.8 19.1 19.8 19.4 C 19.8 20.2 19.1 20.9 18.2 20.9 C 17.8 20.9 17.2 20.6 16.8 20.0 C 15.8 18.4 14.6 16.9 13.2 15.6 C 12.9 15.8 12.5 16.0 12.1 16.2 L 12.1 19.8 C 14.3 22.5 16.2 25.4 17.4 28.2 C 17.7 29.0 17.9 29.7 17.9 30.3 C 17.9 32.1 16.4 33.3 13.9 33.3 L 12.1 33.3 L 12.1 40.4 C 12.1 41.5 11.2 42.0 10.4 42.0 C 9.5 42.0 8.6 41.5 8.6 40.4 L 8.6 33.3 L 3.8 33.3 C 2.8 33.3 2.3 32.5 2.3 31.8 C 2.3 31.0 2.8 30.2 3.8 30.2 L 13.2 30.2 C 13.8 30.2 14.1 30.0 14.1 29.7 C 14.1 29.5 14.1 29.3 14.0 29.1 C 12.1 24.5 7.3 18.4 2.5 14.9 C 1.9 14.5 1.6 13.9 1.6 13.4 C 1.6 12.6 2.2 11.9 3.2 11.9 C 3.5 11.9 3.9 12.0 4.3 12.2 C 5.8 13.2 7.2 14.5 8.6 15.9 Z " transform="scale(1,-1)" stroke-dasharray="164.5888027129754" stroke-dashoffset="164.5888027129754"><animate attributeName="stroke-dashoffset" from="164.5888027129754" to="0" dur="4.937664081389261s" begin="anim0.end" fill="freeze" id="anim1" /></path><path d="M 24.9 20.2 C 23.8 16.1 22.1 11.7 19.9 8.3 C 19.6 7.9 19.5 7.5 19.5 7.1 C 19.5 6.2 20.2 5.5 21.1 5.5 C 21.7 5.5 22.4 5.8 22.9 6.6 C 25.2 10.2 27.2 14.8 28.4 19.2 C 28.4 19.4 28.5 19.7 28.5 19.9 C 28.5 21.0 27.6 21.7 26.7 21.7 C 25.9 21.7 25.1 21.2 24.9 20.2 Z " transform="scale(1,-1)" stroke-dasharray="38.85599839853925" stroke-dashoffset="38.85599839853925"><animate attributeName="stroke-dashoffset" from="38.85599839853925" to="0" dur="1.1656799519561774s" begin="anim1.end" fill="freeze" id="anim2" /></path><path d="M 42.5 20.7 C 42.0 21.5 41.4 21.8 40.7 21.8 C 39.9 21.8 39.1 21.2 39.1 20.2 C 39.1 19.9 39.2 19.6 39.4 19.2 C 41.1 16.2 43.0 11.6 44.1 7.9 C 44.4 6.8 45.1 6.3 45.8 6.3 C 46.7 6.3 47.6 7.1 47.6 8.2 C 47.6 8.5 47.6 8.8 47.5 9.1 C 46.3 12.9 44.2 17.6 42.5 20.7 Z" transform="scale(1,-1)" stroke-dasharray="37.022658458636485" stroke-dashoffset="37.022658458636485"><animate attributeName="stroke-dashoffset" from="37.022658458636485" to="0" dur="1.1106797537590944s" begin="anim2.end" fill="freeze" id="anim_end" /></path></g></svg>