<?xml version='1.0' encoding='utf-8'?>
<svg viewBox="0 -44.0 50.0 50.0" version="1.1" xmlns="http://www.w3.org/2000/svg"><rect x="-1000" y="-1000" width="2000" height="2000" stroke="white" fill="white" /><g style="fill:none;stroke:#000000;stroke-width:1"><path d="M 37.0 37.8 L 33.7 37.8 L 33.7 40.5 C 33.7 41.4 33.0 41.9 32.2 41.9 C 31.6 41.9 30.8 41.4 30.8 40.5 L 30.8 37.8 L 28.9 37.8 C 25.8 37.8 24.7 36.4 24.7 34.1 L 24.7 27.0 C 24.8 24.2 26.3 23.4 28.9 23.3 L 42.1 23.3 C 45.2 23.3 46.3 24.7 46.3 27.0 L 46.3 34.1 C 46.3 36.4 45.2 37.8 42.1 37.8 L 39.9 37.8 L 39.9 40.5 C 39.9 41.4 39.2 41.9 38.4 41.9 C 37.7 41.9 37.0 41.4 37.0 40.5 Z " transform="scale(1,-1)" stroke-dasharray="80.33747324850428" stroke-dashoffset="80.33747324850428"><animate attributeName="stroke-dashoffset" from="80.33747324850428" to="0" dur="2.4101241974551284s" begin="0s; 15s; 30s; 45s; 60s" fill="freeze" id="anim0" /></path><path d="M 39.9 29.3 L 43.3 29.3 L 43.3 27.5 C 43.2 26.2 42.7 26.0 41.6 26.0 L 39.9 26.0 Z " transform="scale(1,-1)" stroke-dasharray="12.839647509303525" stroke-dashoffset="12.839647509303525"><animate attributeName="stroke-dashoffset" from="12.839647509303525" to="0" dur="0.3851894252791057s" begin="anim0.end" fill="freeze" id="anim1" /></path><path d="M 37.0 29.3 L 37.0 26.0 L 33.7 26.0 L 33.7 29.3 Z " transform="scale(1,-1)" stroke-dasharray="13.199999999999996" stroke-dashoffset="13.199999999999996"><animate attributeName="stroke-dashoffset" from="13.199999999999996" to="0" dur="0.39599999999999985s" begin="anim1.end" fill="freeze" id="anim2" /></path><path d="M 39.9 35.1 L 41.6 35.1 C 43.0 35.1 43.3 34.6 43.3 33.6 L 43.3 31.8 L 39.9 31.8 Z " transform="scale(1,-1)" stroke-dasharray="12.862941594428543" stroke-dashoffset="12.862941594428543"><animate attributeName="stroke-dashoffset" from="12.862941594428543" to="0" dur="0.3858882478328563s" begin="anim2.end" fill="freeze" id="anim3" /></path><path d="M 37.0 35.1 L 37.0 31.8 L 33.7 31.8 L 33.7 35.1 Z " transform="scale(1,-1)" stroke-dasharray="13.199999999999996" stroke-dashoffset="13.199999999999996"><animate attributeName="stroke-dashoffset" from="13.199999999999996" to="0" dur="0.39599999999999985s" begin="anim3.end" fill="freeze" id="anim4" /></path><path d="M 30.8 35.1 L 30.8 31.8 L 27.7 31.8 L 27.7 33.6 C 27.7 34.6 28.0 35.1 29.4 35.1 Z " transform="scale(1,-1)" stroke-dasharray="12.262941594428547" stroke-dashoffset="12.262941594428547"><animate attributeName="stroke-dashoffset" from="12.262941594428547" to="0" dur="0.3678882478328564s" begin="anim4.end" fill="freeze" id="anim5" /></path><path d="M 27.7 29.3 L 30.8 29.3 L 30.8 26.0 L 29.4 26.0 C 28.0 26.0 27.7 26.5 27.7 27.5 Z " transform="scale(1,-1)" stroke-dasharray="12.262941594428547" stroke-dashoffset="12.262941594428547"><animate attributeName="stroke-dashoffset" from="12.262941594428547" to="0" dur="0.3678882478328564s" begin="anim5.end" fill="freeze" id="anim6" /></path><path d="M 40.2 6.0 C 43.4 6.0 44.4 7.5 44.4 9.8 L 44.4 12.1 C 44.4 14.4 43.4 15.7 40.2 15.7 L 30.6 15.7 C 27.5 15.7 26.5 14.4 26.5 12.1 L 26.5 9.7 C 26.5 6.9 28.0 6.1 30.6 6.0 Z " transform="scale(1,-1)" stroke-dasharray="49.51053864930317" stroke-dashoffset="49.51053864930317"><animate attributeName="stroke-dashoffset" from="49.51053864930317" to="0" dur="1.4853161594790951s" begin="anim6.end" fill="freeze" id="anim7" /></path><path d="M 31.1 8.8 C 30.0 8.8 29.7 9.2 29.7 10.1 L 29.7 11.7 C 29.7 12.5 30.0 12.9 31.1 12.9 L 39.8 12.9 C 40.9 12.9 41.2 12.5 41.2 11.7 L 41.2 10.1 C 41.2 9.1 40.7 8.8 39.8 8.8 Z " transform="scale(1,-1)" stroke-dasharray="29.36172728822028" stroke-dashoffset="29.36172728822028"><animate attributeName="stroke-dashoffset" from="29.36172728822028" to="0" dur="0.8808518186466083s" begin="anim7.end" fill="freeze" id="anim8" /></path><path d="M 16.1 31.0 L 16.1 36.2 L 21.6 36.2 C 22.6 36.2 23.1 37.0 23.1 37.8 C 23.1 38.6 22.6 39.3 21.6 39.3 L 2.9 39.3 C 1.9 39.3 1.4 38.6 1.4 37.8 C 1.4 37.0 1.9 36.2 2.9 36.2 L 8.6 36.2 L 8.6 31.0 L 7.5 31.0 C 4.5 31.0 3.0 29.9 3.0 26.3 L 3.0 2.5 C 3.1 -0.7 4.2 -2.2 7.5 -2.2 L 17.2 -2.2 C 20.2 -2.2 21.7 -0.9 21.7 2.5 L 21.7 26.3 C 21.7 29.9 20.2 31.0 17.2 31.0 Z " transform="scale(1,-1)" stroke-dasharray="139.71537440281656" stroke-dashoffset="139.71537440281656"><animate attributeName="stroke-dashoffset" from="139.71537440281656" to="0" dur="4.191461232084497s" begin="anim8.end" fill="freeze" id="anim9" /></path><path d="M 16.1 28.1 L 17.1 28.1 C 18.2 28.1 18.6 27.7 18.6 25.9 L 18.6 19.1 C 18.1 19.1 17.6 19.1 17.1 19.1 C 16.4 19.1 16.1 19.2 16.1 20.1 Z " transform="scale(1,-1)" stroke-dasharray="22.114158721905472" stroke-dashoffset="22.114158721905472"><animate attributeName="stroke-dashoffset" from="22.114158721905472" to="0" dur="0.6634247616571641s" begin="anim9.end" fill="freeze" id="anim10" /></path><path d="M 18.6 9.6 L 6.1 9.6 L 6.1 25.9 C 6.1 27.7 6.5 28.1 7.7 28.1 L 8.6 28.1 C 8.5 21.8 7.9 18.4 6.8 16.1 C 6.6 15.8 6.6 15.6 6.6 15.3 C 6.6 14.6 7.1 14.1 7.8 14.1 C 8.2 14.1 8.8 14.4 9.1 15.1 C 10.5 17.7 11.2 21.7 11.3 28.1 L 13.4 28.1 L 13.4 19.6 C 13.4 17.2 14.4 16.3 16.9 16.3 C 17.4 16.3 18.1 16.3 18.6 16.4 Z " transform="scale(1,-1)" stroke-dasharray="87.60970814791261" stroke-dashoffset="87.60970814791261"><animate attributeName="stroke-dashoffset" from="87.60970814791261" to="0" dur="2.6282912444373783s" begin="anim10.end" fill="freeze" id="anim11" /></path><path d="M 13.4 31.0 L 11.3 31.0 L 11.3 36.2 L 13.4 36.2 Z " transform="scale(1,-1)" stroke-dasharray="14.600000000000005" stroke-dashoffset="14.600000000000005"><animate attributeName="stroke-dashoffset" from="14.600000000000005" to="0" dur="0.4380000000000001s" begin="anim11.end" fill="freeze" id="anim12" /></path><path d="M 8.0 0.7 C 6.6 0.7 6.1 1.2 6.1 2.9 L 6.1 6.7 L 18.6 6.7 L 18.6 2.9 C 18.6 1.5 18.2 0.7 16.8 0.7 Z " transform="scale(1,-1)" stroke-dasharray="35.61310095602365" stroke-dashoffset="35.61310095602365"><animate attributeName="stroke-dashoffset" from="35.61310095602365" to="0" dur="1.0683930286807095s" begin="anim12.end" fill="freeze" id="anim13" /></path><path d="M 32.6 0.5 C 33.0 0.8 33.1 1.2 33.1 1.6 C 33.1 1.9 33.1 2.1 33.0 2.4 C 32.7 3.0 32.4 3.6 32.0 4.2 C 31.6 4.9 31.0 5.2 30.4 5.2 C 29.6 5.2 28.9 4.6 28.9 3.8 C 28.9 3.6 28.9 3.2 29.1 3.0 C 29.5 2.3 29.8 1.7 30.1 1.1 C 30.2 0.9 30.4 0.7 30.5 0.5 L 23.8 0.5 C 22.9 0.5 22.4 -0.2 22.4 -1.0 C 22.4 -1.7 22.9 -2.4 23.8 -2.4 L 47.2 -2.4 C 48.1 -2.4 48.6 -1.7 48.6 -1.0 C 48.6 -0.2 48.1 0.5 47.2 0.5 L 40.2 0.5 C 40.7 1.3 41.1 2.1 41.5 3.2 C 41.6 3.4 41.6 3.7 41.6 3.9 C 41.6 4.8 40.8 5.3 40.1 5.3 C 39.4 5.3 38.8 5.0 38.6 4.2 C 38.1 2.9 37.6 1.6 37.1 0.5 Z " transform="scale(1,-1)" stroke-dasharray="74.75294219815451" stroke-dashoffset="74.75294219815451"><animate attributeName="stroke-dashoffset" from="74.75294219815451" to="0" dur="2.2425882659446352s" begin="anim13.end" fill="freeze" id="anim14" /></path><path d="M 46.4 18.0 C 47.3 18.0 47.8 18.8 47.8 19.5 C 47.8 20.2 47.3 20.9 46.4 20.9 L 24.7 20.9 C 23.8 20.9 23.2 20.2 23.2 19.5 C 23.2 18.8 23.8 18.0 24.7 18.0 Z" transform="scale(1,-1)" stroke-dasharray="52.51749671528455" stroke-dashoffset="52.51749671528455"><animate attributeName="stroke-dashoffset" from="52.51749671528455" to="0" dur="1.5755249014585364s" begin="anim14.end" fill="freeze" id="anim_end" /></path></g></svg>