<?xml version='1.0' encoding='utf-8'?>
<svg viewBox="0 -44.0 50.0 50.0" version="1.1" xmlns="http://www.w3.org/2000/svg"><rect x="-1000" y="-1000" width="2000" height="2000" stroke="white" fill="white" /><g style="fill:none;stroke:#000000;stroke-width:1"><path d="M 25.0 37.5 C 17.8 37.5 13.0 32.1 13.0 18.9 C 13.0 5.7 17.8 0.4 25.0 0.4 C 32.2 0.4 37.1 5.7 37.1 18.9 C 37.1 32.1 32.2 37.5 25.0 37.5 Z " transform="scale(1,-1)" stroke-dasharray="99.92330620927649" stroke-dashoffset="99.92330620927649"><animate attributeName="stroke-dashoffset" from="99.92330620927649" to="0" dur="2.9976991862782945s" begin="0s; 15s; 30s; 45s; 60s" fill="freeze" id="anim0" /></path><path d="M 25.0 33.6 C 29.5 33.6 32.2 30.0 32.2 18.9 C 32.2 7.9 29.5 4.2 25.0 4.2 C 20.5 4.2 17.8 7.9 17.8 18.9 C 17.8 30.0 20.5 33.6 25.0 33.6 Z" transform="scale(1,-1)" stroke-dasharray="73.18596979139079" stroke-dashoffset="73.18596979139079"><animate attributeName="stroke-dashoffset" from="73.18596979139079" to="0" dur="2.1955790937417237s" begin="anim0.end" fill="freeze" id="anim_end" /></path></g></svg>