<?xml version='1.0' encoding='utf-8'?>
<svg viewBox="0 -44.0 25.0 50.0" version="1.1" xmlns="http://www.w3.org/2000/svg"><rect x="-1000" y="-1000" width="2000" height="2000" stroke="white" fill="white" /><g style="fill:none;stroke:#000000;stroke-width:1"><path d="M 21.8 21.3 C 22.9 21.3 23.4 22.2 23.4 23.0 C 23.4 23.9 22.9 24.7 21.8 24.7 L 3.2 24.7 C 2.2 24.7 1.7 23.9 1.7 23.0 C 1.7 22.2 2.2 21.3 3.2 21.3 L 11.0 21.3 C 10.9 14.5 10.2 7.2 5.2 2.2 C 4.5 1.7 4.3 1.0 4.3 0.5 C 4.3 -0.6 5.1 -1.4 6.1 -1.4 C 6.6 -1.4 7.2 -1.1 7.7 -0.6 C 13.4 5.2 14.5 13.4 14.6 21.3 Z " transform="scale(1,-1)" stroke-dasharray="94.73117981752334" stroke-dashoffset="94.73117981752334"><animate attributeName="stroke-dashoffset" from="94.73117981752334" to="0" dur="2.8419353945257s" begin="0s; 15s; 30s; 45s; 60s" fill="freeze" id="anim0" /></path><path d="M 6.2 36.2 C 5.2 36.2 4.7 35.4 4.7 34.5 C 4.7 33.6 5.2 32.8 6.2 32.8 L 18.5 32.8 C 19.6 32.8 20.1 33.6 20.1 34.5 C 20.1 35.4 19.6 36.2 18.5 36.2 Z" transform="scale(1,-1)" stroke-dasharray="34.97134941804526" stroke-dashoffset="34.97134941804526"><animate attributeName="stroke-dashoffset" from="34.97134941804526" to="0" dur="1.0491404825413577s" begin="anim0.end" fill="freeze" id="anim_end" /></path></g></svg>