<?xml version='1.0' encoding='utf-8'?>
<svg viewBox="0 -44.0 15.200000000000001 50.0" version="1.1" xmlns="http://www.w3.org/2000/svg"><rect x="-1000" y="-1000" width="2000" height="2000" stroke="white" fill="white" /><g style="fill:none;stroke:#000000;stroke-width:1"><path d="M 5.2 3.2 C 5.2 1.7 6.2 0.8 7.6 0.8 C 9.0 0.8 10.0 1.7 10.0 3.2 L 10.0 35.5 C 10.0 37.0 9.0 37.8 7.6 37.8 C 6.2 37.8 5.2 37.0 5.2 35.5 Z " transform="scale(1,-1)" stroke-dasharray="79.7750463029924" stroke-dashoffset="79.7750463029924"><animate attributeName="stroke-dashoffset" from="79.7750463029924" to="0" dur="2.3932513890897718s" begin="0s; 15s; 30s; 45s; 60s" fill="freeze" id="anim0" /></path><path d="M 0.8 42.9 C 0.6 42.7 0.4 42.4 0.4 42.0 C 0.4 41.5 1.1 40.9 1.7 40.9 C 2.0 40.9 2.2 41.0 2.6 41.3 L 7.7 46.2 L 12.8 41.3 C 13.2 41.0 13.5 40.9 13.8 40.9 C 14.4 40.9 15.0 41.5 15.0 42.0 C 15.0 42.4 14.8 42.7 14.6 42.9 L 9.6 49.7 C 9.1 50.2 8.5 50.5 7.7 50.5 C 6.9 50.5 6.3 50.2 5.9 49.7 Z" transform="scale(1,-1)" stroke-dasharray="42.98639577620852" stroke-dashoffset="42.98639577620852"><animate attributeName="stroke-dashoffset" from="42.98639577620852" to="0" dur="1.2895918732862555s" begin="anim0.end" fill="freeze" id="anim_end" /></path></g></svg>