<?xml version='1.0' encoding='utf-8'?>
<svg viewBox="0 -44.0 50.0 50.0" version="1.1" xmlns="http://www.w3.org/2000/svg"><rect x="-1000" y="-1000" width="2000" height="2000" stroke="white" fill="white" /><g style="fill:none;stroke:#000000;stroke-width:1"><path d="M 27.2 9.0 C 33.8 9.1 37.5 11.9 38.9 18.9 L 40.3 26.4 C 40.9 29.1 41.3 30.1 42.2 30.1 C 43.3 30.1 43.7 29.2 44.0 28.1 C 44.1 27.4 44.7 27.0 45.4 27.0 C 46.6 27.0 47.3 27.4 47.3 28.6 C 47.3 29.1 47.2 29.5 47.0 30.0 C 46.3 32.1 44.3 33.9 42.1 33.9 C 38.8 33.9 37.0 32.2 36.0 27.1 L 34.7 19.9 C 33.6 14.2 31.6 12.7 27.2 12.7 L 27.2 35.5 C 27.2 37.0 26.3 37.8 24.9 37.8 C 23.5 37.8 22.6 37.0 22.6 35.5 L 22.6 12.7 C 18.4 12.7 16.2 14.2 15.2 19.9 L 13.9 27.1 C 13.0 32.2 11.2 33.9 7.9 33.9 C 5.7 33.9 3.8 32.1 3.0 30.0 C 2.8 29.5 2.7 29.1 2.7 28.6 C 2.7 27.4 3.4 27.0 4.5 27.0 C 5.2 27.0 5.8 27.4 6.0 28.1 C 6.2 29.2 6.6 30.1 7.7 30.1 C 8.6 30.1 9.1 29.1 9.6 26.4 L 11.1 18.9 C 12.5 11.9 16.1 9.1 22.6 9.0 L 22.6 3.2 C 22.6 1.7 23.5 0.8 24.9 0.8 C 26.3 0.8 27.2 1.7 27.2 3.2 Z" transform="scale(1,-1)" stroke-dasharray="219.79933993378714" stroke-dashoffset="219.79933993378714"><animate attributeName="stroke-dashoffset" from="219.79933993378714" to="0" dur="6.593980198013614s" begin="0s; 15s; 30s; 45s; 60s" fill="freeze" id="anim0" /></path></g></svg>