<?xml version='1.0' encoding='utf-8'?>
<svg viewBox="0 -44.0 50.0 50.0" version="1.1" xmlns="http://www.w3.org/2000/svg"><rect x="-1000" y="-1000" width="2000" height="2000" stroke="white" fill="white" /><g style="fill:none;stroke:#000000;stroke-width:1"><path d="M 20.2 7.0 C 20.2 2.5 21.9 0.8 26.2 0.8 L 33.1 0.8 C 41.1 0.8 45.8 4.8 45.8 11.5 C 45.8 18.0 41.8 21.9 33.0 21.9 L 24.8 21.9 L 24.8 31.2 C 24.8 35.7 23.1 37.5 18.8 37.5 L 6.0 37.5 C 4.8 37.5 3.9 36.9 3.9 35.6 C 3.9 34.4 4.8 33.8 6.0 33.8 L 17.8 33.8 C 19.2 33.8 20.2 32.6 20.2 31.1 Z " transform="scale(1,-1)" stroke-dasharray="141.28532784169727" stroke-dashoffset="141.28532784169727"><animate attributeName="stroke-dashoffset" from="141.28532784169727" to="0" dur="4.238559835250918s" begin="0s; 15s; 30s; 45s; 60s" fill="freeze" id="anim0" /></path><path d="M 27.2 4.4 C 25.6 4.4 24.8 5.3 24.8 7.0 L 24.8 18.4 L 33.0 18.4 C 38.2 18.4 41.1 16.1 41.1 11.2 C 41.1 7.2 38.1 4.4 33.1 4.4 Z" transform="scale(1,-1)" stroke-dasharray="53.78060588331113" stroke-dashoffset="53.78060588331113"><animate attributeName="stroke-dashoffset" from="53.78060588331113" to="0" dur="1.6134181764993338s" begin="anim0.end" fill="freeze" id="anim_end" /></path></g></svg>