<?xml version='1.0' encoding='utf-8'?>
<svg viewBox="0 -44.0 26.150000000000002 50.0" version="1.1" xmlns="http://www.w3.org/2000/svg"><rect x="-1000" y="-1000" width="2000" height="2000" stroke="white" fill="white" /><g style="fill:none;stroke:#000000;stroke-width:1"><path d="M 19.7 12.2 C 22.2 12.2 23.7 13.5 23.7 16.2 C 23.7 21.8 19.2 26.3 13.7 26.3 C 7.4 26.3 2.7 21.4 2.7 13.5 C 2.7 5.2 7.2 0.5 14.1 0.5 C 17.2 0.5 20.5 1.6 22.7 3.5 C 23.2 3.8 23.4 4.2 23.4 4.7 C 23.4 5.7 22.6 6.6 21.5 6.6 C 20.9 6.6 20.6 6.4 20.2 6.1 C 18.4 4.5 16.4 4.0 14.1 4.0 C 10.2 4.0 7.2 7.0 7.0 12.2 Z " transform="scale(1,-1)" stroke-dasharray="107.34090615830635" stroke-dashoffset="107.34090615830635"><animate attributeName="stroke-dashoffset" from="107.34090615830635" to="0" dur="3.2202271847491906s" begin="0s; 15s; 30s; 45s; 60s" fill="freeze" id="anim0" /></path><path d="M 7.1 15.6 C 7.4 19.8 10.0 23.0 13.7 23.0 C 17.4 23.0 19.6 19.7 19.6 16.9 C 19.6 16.2 19.1 15.6 18.2 15.6 Z " transform="scale(1,-1)" stroke-dasharray="33.61053796185603" stroke-dashoffset="33.61053796185603"><animate attributeName="stroke-dashoffset" from="33.61053796185603" to="0" dur="1.008316138855681s" begin="anim0.end" fill="freeze" id="anim1" /></path><path d="M 9.2 35.4 C 7.7 35.4 6.4 34.1 6.4 32.6 C 6.4 31.0 7.7 29.7 9.2 29.7 C 10.7 29.7 12.0 31.0 12.0 32.6 C 12.0 34.1 10.7 35.4 9.2 35.4 Z " transform="scale(1,-1)" stroke-dasharray="17.69209177651608" stroke-dashoffset="17.69209177651608"><animate attributeName="stroke-dashoffset" from="17.69209177651608" to="0" dur="0.5307627532954824s" begin="anim1.end" fill="freeze" id="anim2" /></path><path d="M 18.2 35.4 C 16.7 35.4 15.4 34.1 15.4 32.6 C 15.4 31.0 16.7 29.7 18.2 29.7 C 19.8 29.7 21.1 31.0 21.1 32.6 C 21.1 34.1 19.8 35.4 18.2 35.4 Z" transform="scale(1,-1)" stroke-dasharray="17.868480319507402" stroke-dashoffset="17.868480319507402"><animate attributeName="stroke-dashoffset" from="17.868480319507402" to="0" dur="0.536054409585222s" begin="anim2.end" fill="freeze" id="anim_end" /></path></g></svg>