<?xml version='1.0' encoding='utf-8'?>
<svg viewBox="0 -44.0 50.0 50.0" version="1.1" xmlns="http://www.w3.org/2000/svg"><rect x="-1000" y="-1000" width="2000" height="2000" stroke="white" fill="white" /><g style="fill:none;stroke:#000000;stroke-width:1"><path d="M 29.0 12.0 C 30.2 12.0 31.0 12.8 31.0 13.9 C 31.0 14.8 30.5 15.5 29.4 15.5 L 26.0 15.5 C 22.5 15.5 21.1 16.8 21.1 19.1 C 21.1 21.4 23.0 22.8 26.8 22.9 C 28.8 23.0 30.4 22.5 32.0 21.1 C 32.8 20.4 33.2 20.4 33.6 20.4 C 34.6 20.4 35.5 21.2 35.5 22.1 C 35.5 23.0 35.1 23.5 34.4 24.1 C 32.1 25.7 29.4 26.3 26.8 26.3 C 20.5 26.3 16.9 23.5 16.9 19.1 C 16.9 16.6 18.4 14.9 21.0 14.2 C 16.2 13.5 13.9 11.1 13.9 7.7 C 13.9 3.4 16.9 0.5 24.2 0.5 C 27.4 0.5 29.7 0.9 32.7 2.4 C 33.9 3.0 34.2 3.5 34.2 4.5 C 34.2 5.5 33.4 6.2 32.4 6.2 C 31.9 6.2 31.5 6.1 30.7 5.6 C 28.6 4.3 26.6 3.9 24.3 3.9 C 20.2 3.9 18.4 5.4 18.4 7.9 C 18.4 10.5 20.4 12.0 25.6 12.0 Z" transform="scale(1,-1)" stroke-dasharray="133.66525349483805" stroke-dashoffset="133.66525349483805"><animate attributeName="stroke-dashoffset" from="133.66525349483805" to="0" dur="4.009957604845141s" begin="0s; 15s; 30s; 45s; 60s" fill="freeze" id="anim0" /></path></g></svg>