<?xml version='1.0' encoding='utf-8'?>
<svg viewBox="0 -44.0 14.8 50.0" version="1.1" xmlns="http://www.w3.org/2000/svg"><rect x="-1000" y="-1000" width="2000" height="2000" stroke="white" fill="white" /><g style="fill:none;stroke:#000000;stroke-width:1"><path d="M 4.6 34.6 C 5.1 27.1 5.5 19.7 5.7 12.1 C 5.7 11.1 6.4 10.5 7.4 10.5 C 8.3 10.5 9.1 11.1 9.2 12.1 C 9.3 19.7 9.7 27.1 10.2 34.6 L 10.2 35.1 C 10.2 36.6 9.1 37.8 7.5 37.8 C 5.9 37.8 4.6 36.6 4.6 35.1 Z " transform="scale(1,-1)" stroke-dasharray="60.00848501959871" stroke-dashoffset="60.00848501959871"><animate attributeName="stroke-dashoffset" from="60.00848501959871" to="0" dur="1.8002545505879612s" begin="0s; 15s; 30s; 45s; 60s" fill="freeze" id="anim0" /></path><path d="M 7.4 7.5 C 5.6 7.5 4.0 6.0 4.0 4.2 C 4.0 2.3 5.6 0.8 7.4 0.8 C 9.2 0.8 10.7 2.3 10.7 4.2 C 10.7 6.0 9.2 7.5 7.4 7.5 Z" transform="scale(1,-1)" stroke-dasharray="21.008959082379413" stroke-dashoffset="21.008959082379413"><animate attributeName="stroke-dashoffset" from="21.008959082379413" to="0" dur="0.6302687724713824s" begin="anim0.end" fill="freeze" id="anim_end" /></path></g></svg>