<?xml version='1.0' encoding='utf-8'?>
<svg viewBox="0 -44.0 50.0 50.0" version="1.1" xmlns="http://www.w3.org/2000/svg"><rect x="-1000" y="-1000" width="2000" height="2000" stroke="white" fill="white" /><g style="fill:none;stroke:#000000;stroke-width:1"><path d="M 11.9 35.5 C 11.9 37.0 11.0 37.8 9.6 37.8 C 8.2 37.8 7.4 37.0 7.4 35.5 L 7.4 7.0 C 7.4 2.5 9.0 0.8 13.4 0.8 L 19.2 0.8 C 27.2 0.8 31.9 4.8 31.9 11.5 C 31.9 18.0 27.9 21.9 19.1 21.9 L 11.9 21.9 Z " transform="scale(1,-1)" stroke-dasharray="110.13541871687744" stroke-dashoffset="110.13541871687744"><animate attributeName="stroke-dashoffset" from="110.13541871687744" to="0" dur="3.304062561506323s" begin="0s; 15s; 30s; 45s; 60s" fill="freeze" id="anim0" /></path><path d="M 14.3 4.4 C 12.7 4.4 11.9 5.3 11.9 7.0 L 11.9 18.4 L 19.1 18.4 C 24.3 18.4 27.2 16.1 27.2 11.2 C 27.2 7.2 24.2 4.4 19.2 4.4 Z " transform="scale(1,-1)" stroke-dasharray="51.780605883311125" stroke-dashoffset="51.780605883311125"><animate attributeName="stroke-dashoffset" from="51.780605883311125" to="0" dur="1.5534181764993338s" begin="anim0.end" fill="freeze" id="anim1" /></path><path d="M 38.1 3.2 C 38.1 1.7 39.0 0.8 40.3 0.8 C 41.8 0.8 42.7 1.7 42.7 3.2 L 42.7 35.5 C 42.7 37.0 41.8 37.8 40.3 37.8 C 39.0 37.8 38.1 37.0 38.1 35.5 Z" transform="scale(1,-1)" stroke-dasharray="79.50975581938066" stroke-dashoffset="79.50975581938066"><animate attributeName="stroke-dashoffset" from="79.50975581938066" to="0" dur="2.38529267458142s" begin="anim1.end" fill="freeze" id="anim_end" /></path></g></svg>