<?xml version='1.0' encoding='utf-8'?>
<svg viewBox="0 -44.0 23.5 50.0" version="1.1" xmlns="http://www.w3.org/2000/svg"><rect x="-1000" y="-1000" width="2000" height="2000" stroke="white" fill="white" /><g style="fill:none;stroke:#000000;stroke-width:1"><path d="M 5.2 -5.2 C 8.2 -3.1 10.0 -0.4 10.0 3.3 C 10.0 6.2 8.2 7.9 6.2 7.9 C 4.2 7.9 2.8 6.6 2.8 4.7 C 2.8 2.8 4.2 1.7 5.8 1.7 C 6.4 1.7 6.7 1.5 6.7 1.0 C 6.7 -0.9 5.5 -2.5 3.6 -3.8 C 3.2 -4.0 3.1 -4.2 3.1 -4.6 C 3.1 -5.2 3.7 -5.7 4.2 -5.7 C 4.5 -5.7 4.8 -5.5 5.2 -5.2 Z " transform="scale(1,-1)" stroke-dasharray="37.96910127884737" stroke-dashoffset="37.96910127884737"><animate attributeName="stroke-dashoffset" from="37.96910127884737" to="0" dur="1.139073038365421s" begin="0s; 15s; 30s; 45s; 60s" fill="freeze" id="anim0" /></path><path d="M 15.7 -5.2 C 18.8 -3.1 20.5 -0.4 20.5 3.3 C 20.5 6.2 18.8 7.9 16.7 7.9 C 14.8 7.9 13.2 6.6 13.2 4.7 C 13.2 2.8 14.7 1.7 16.3 1.7 C 16.9 1.7 17.2 1.5 17.2 1.0 C 17.2 -0.9 16.0 -2.5 14.1 -3.8 C 13.8 -4.0 13.6 -4.2 13.6 -4.6 C 13.6 -5.2 14.2 -5.7 14.7 -5.7 C 15.1 -5.7 15.3 -5.5 15.7 -5.2 Z" transform="scale(1,-1)" stroke-dasharray="38.11384166490344" stroke-dashoffset="38.11384166490344"><animate attributeName="stroke-dashoffset" from="38.11384166490344" to="0" dur="1.143415249947103s" begin="anim0.end" fill="freeze" id="anim_end" /></path></g></svg>