<?xml version='1.0' encoding='utf-8'?>
<svg viewBox="0 -44.0 50.0 50.0" version="1.1" xmlns="http://www.w3.org/2000/svg"><rect x="-1000" y="-1000" width="2000" height="2000" stroke="white" fill="white" /><g style="fill:none;stroke:#000000;stroke-width:1"><path d="M 28.1 32.5 C 31.6 33.1 35.0 33.9 37.8 34.9 C 39.1 35.2 39.6 36.1 39.6 37.0 C 39.6 38.0 38.9 38.9 37.6 38.9 C 37.4 38.9 37.1 38.8 36.8 38.7 C 30.1 36.4 20.5 34.7 12.4 34.2 C 11.0 34.2 10.3 33.2 10.3 32.4 C 10.3 31.4 11.1 30.4 12.5 30.5 C 16.2 30.7 20.2 31.2 24.2 31.8 L 24.2 25.1 C 24.2 24.3 24.2 23.6 24.2 22.9 L 6.8 22.9 C 5.6 22.9 5.0 22.0 5.0 21.0 C 5.0 20.1 5.6 19.1 6.8 19.1 L 23.9 19.1 C 22.8 10.9 19.2 5.6 13.4 1.9 C 12.5 1.4 12.2 0.6 12.2 -0.1 C 12.2 -1.1 13.0 -1.9 14.0 -1.9 C 14.5 -1.9 14.9 -1.8 15.4 -1.5 C 22.2 2.8 26.6 9.2 27.8 19.1 L 43.9 19.1 C 45.1 19.1 45.7 20.1 45.7 21.0 C 45.7 22.0 45.1 22.9 43.9 22.9 L 28.1 22.9 C 28.1 23.6 28.1 24.2 28.1 24.9 Z" transform="scale(1,-1)" stroke-dasharray="209.15875703426104" stroke-dashoffset="209.15875703426104"><animate attributeName="stroke-dashoffset" from="209.15875703426104" to="0" dur="6.274762711027831s" begin="0s; 15s; 30s; 45s; 60s" fill="freeze" id="anim0" /></path></g></svg>