<?xml version='1.0' encoding='utf-8'?>
<svg viewBox="0 -44.0 50.0 50.0" version="1.1" xmlns="http://www.w3.org/2000/svg"><rect x="-1000" y="-1000" width="2000" height="2000" stroke="white" fill="white" /><g style="fill:none;stroke:#000000;stroke-width:1"><path d="M 18.1 24.6 C 19.7 24.7 21.2 24.8 22.7 24.8 C 25.7 24.8 26.8 23.8 26.8 17.9 C 26.8 13.7 26.2 9.3 25.1 6.2 C 24.2 3.7 22.9 2.9 20.8 2.9 C 20.0 2.9 19.5 3.0 18.7 3.1 C 17.2 3.4 16.4 2.3 16.4 1.2 C 16.4 0.4 16.9 -0.4 18.0 -0.6 C 18.9 -0.8 20.0 -0.9 20.9 -0.9 C 24.8 -0.9 27.2 0.8 28.8 5.2 C 29.9 8.4 30.6 13.4 30.6 17.9 C 30.6 25.7 28.3 28.1 22.6 28.1 C 21.5 28.1 20.2 28.1 18.8 28.0 C 19.4 31.0 19.9 33.9 20.2 36.9 C 20.4 38.2 19.4 39.0 18.4 39.0 C 17.4 39.0 16.6 38.4 16.4 37.1 C 16.1 34.0 15.6 30.8 14.9 27.7 C 12.0 27.3 9.0 26.9 6.5 26.2 C 5.4 26.0 4.9 25.2 4.9 24.4 C 4.9 23.5 5.5 22.7 6.5 22.7 C 6.6 22.7 6.8 22.8 7.0 22.8 C 9.2 23.3 11.7 23.8 14.1 24.1 C 12.2 16.5 9.5 9.2 6.2 3.5 C 6.0 3.1 5.9 2.7 5.9 2.3 C 5.9 1.3 6.7 0.6 7.7 0.6 C 8.3 0.6 9.1 1.0 9.5 1.8 C 13.1 8.2 16.1 16.2 18.1 24.6 Z " transform="scale(1,-1)" stroke-dasharray="184.60703146821024" stroke-dashoffset="184.60703146821024"><animate attributeName="stroke-dashoffset" from="184.60703146821024" to="0" dur="5.538210944046307s" begin="0s; 15s; 30s; 45s; 60s" fill="freeze" id="anim0" /></path><path d="M 37.6 31.4 C 37.1 31.8 36.6 32.0 36.1 32.0 C 35.1 32.0 34.1 31.2 34.1 30.2 C 34.1 29.9 34.4 29.4 34.8 29.0 C 37.3 26.4 40.4 21.8 41.9 18.3 C 42.3 17.4 43.0 16.9 43.7 16.9 C 44.8 16.9 45.8 17.9 45.8 19.2 C 45.8 19.5 45.8 19.9 45.6 20.3 C 44.1 23.7 40.2 28.9 37.6 31.4 Z " transform="scale(1,-1)" stroke-dasharray="39.66085490611509" stroke-dashoffset="39.66085490611509"><animate attributeName="stroke-dashoffset" from="39.66085490611509" to="0" dur="1.1898256471834527s" begin="anim0.end" fill="freeze" id="anim1" /></path><path d="M 43.0 40.4 C 44.2 39.2 46.0 37.2 47.2 35.7 C 47.5 35.2 47.9 35.1 48.3 35.1 C 49.1 35.1 49.8 35.8 49.8 36.6 C 49.8 37.0 49.6 37.4 49.4 37.8 C 48.2 39.3 46.4 41.4 45.1 42.5 C 44.7 42.8 44.3 42.9 44.0 42.9 C 43.2 42.9 42.5 42.2 42.5 41.5 C 42.5 41.1 42.6 40.8 43.0 40.4 Z " transform="scale(1,-1)" stroke-dasharray="22.320274926036927" stroke-dashoffset="22.320274926036927"><animate attributeName="stroke-dashoffset" from="22.320274926036927" to="0" dur="0.6696082477811077s" begin="anim1.end" fill="freeze" id="anim2" /></path><path d="M 38.5 36.7 C 39.7 35.5 41.3 33.7 42.6 31.9 C 42.9 31.4 43.4 31.2 43.8 31.2 C 44.6 31.2 45.3 31.9 45.3 32.8 C 45.3 33.1 45.2 33.5 44.9 33.9 C 43.8 35.6 42.0 37.6 40.5 38.8 C 40.2 39.1 39.8 39.2 39.5 39.2 C 38.7 39.2 38.0 38.6 38.0 37.8 C 38.0 37.5 38.1 37.1 38.5 36.7 Z" transform="scale(1,-1)" stroke-dasharray="22.62782136574902" stroke-dashoffset="22.62782136574902"><animate attributeName="stroke-dashoffset" from="22.62782136574902" to="0" dur="0.6788346409724706s" begin="anim2.end" fill="freeze" id="anim_end" /></path></g></svg>