<?xml version='1.0' encoding='utf-8'?>
<svg viewBox="0 -44.0 50.0 50.0" version="1.1" xmlns="http://www.w3.org/2000/svg"><rect x="-1000" y="-1000" width="2000" height="2000" stroke="white" fill="white" /><g style="fill:none;stroke:#000000;stroke-width:1"><path d="M 38.1 8.0 C 38.1 5.6 38.2 4.0 38.6 2.5 C 38.9 1.3 39.5 0.8 40.6 0.8 C 42.1 0.8 43.0 1.6 43.0 2.4 C 43.0 2.6 43.0 2.9 43.0 3.1 C 42.6 4.5 42.5 6.2 42.5 8.0 L 42.5 15.9 C 42.5 20.1 41.8 22.2 40.2 24.0 C 38.9 25.6 36.9 26.3 34.3 26.3 C 31.5 26.3 28.4 24.9 26.6 21.2 C 26.2 22.3 25.7 23.2 25.0 24.0 C 23.6 25.6 21.6 26.3 19.1 26.3 C 16.2 26.3 13.0 24.2 11.8 21.2 L 11.8 23.9 C 11.8 25.2 11.0 26.0 9.8 26.0 C 8.6 26.0 7.8 25.2 7.8 23.9 L 7.8 3.0 C 7.8 1.6 8.5 0.8 9.8 0.8 C 11.2 0.8 12.0 1.6 12.0 3.0 L 12.0 14.9 C 12.0 19.4 15.2 22.7 18.7 22.7 C 19.9 22.7 20.9 22.3 21.7 21.4 C 22.6 20.4 23.0 18.7 23.0 15.6 L 23.0 3.0 C 23.0 1.6 23.7 0.8 25.0 0.8 C 26.4 0.8 27.2 1.6 27.2 3.0 L 27.2 15.0 C 27.2 19.4 30.4 22.7 33.9 22.7 C 35.1 22.7 36.1 22.3 36.9 21.4 C 37.8 20.4 38.1 18.7 38.1 15.6 Z " transform="scale(1,-1)" stroke-dasharray="198.9616644026293" stroke-dashoffset="198.9616644026293"><animate attributeName="stroke-dashoffset" from="198.9616644026293" to="0" dur="5.9688499320788795s" begin="0s; 15s; 30s; 45s; 60s" fill="freeze" id="anim0" /></path><path d="M 40.2 36.9 C 39.5 36.9 39.1 36.6 39.1 36.0 C 39.1 35.4 39.6 35.0 40.2 35.0 L 41.2 35.0 C 42.8 35.0 43.5 34.4 43.5 33.1 C 43.5 31.7 42.7 31.0 41.2 31.0 C 40.4 31.0 39.7 31.2 38.9 31.7 C 38.5 32.0 38.2 32.1 38.1 32.1 C 37.5 32.1 37.0 31.6 37.0 31.0 C 37.0 30.7 37.1 30.5 37.5 30.2 C 38.6 29.4 39.9 29.0 41.2 29.0 C 44.1 29.0 46.0 30.7 46.0 33.1 C 46.0 34.5 45.4 35.4 43.8 36.1 C 45.1 36.8 45.6 37.6 45.6 38.7 C 45.6 40.8 43.8 42.2 41.2 42.2 C 39.9 42.2 38.6 41.7 37.7 40.8 C 37.4 40.6 37.3 40.4 37.3 40.1 C 37.3 39.6 37.8 39.1 38.4 39.1 C 38.7 39.1 39.0 39.2 39.2 39.4 C 40.0 40.1 40.4 40.2 41.2 40.2 C 42.6 40.2 43.2 39.7 43.2 38.6 C 43.2 37.5 42.5 36.9 41.2 36.9 Z" transform="scale(1,-1)" stroke-dasharray="58.41012817038045" stroke-dashoffset="58.41012817038045"><animate attributeName="stroke-dashoffset" from="58.41012817038045" to="0" dur="1.7523038451114135s" begin="anim0.end" fill="freeze" id="anim_end" /></path></g></svg>