<?xml version='1.0' encoding='utf-8'?>
<svg viewBox="0 -44.0 50.0 50.0" version="1.1" xmlns="http://www.w3.org/2000/svg"><rect x="-1000" y="-1000" width="2000" height="2000" stroke="white" fill="white" /><g style="fill:none;stroke:#000000;stroke-width:1"><path d="M 24.9 37.6 C 30.0 31.0 37.9 24.7 45.3 21.3 C 45.7 21.2 46.0 21.1 46.3 21.1 C 47.5 21.1 48.2 22.0 48.2 23.0 C 48.2 23.7 47.8 24.5 46.8 24.9 C 39.4 28.1 31.9 33.7 26.8 40.2 C 26.9 40.5 27.0 40.8 27.0 41.0 C 27.0 41.9 26.1 42.6 25.2 42.6 C 24.6 42.6 24.0 42.2 23.6 41.7 C 18.6 34.6 10.7 27.9 2.9 23.6 C 2.1 23.1 1.7 22.5 1.7 21.9 C 1.7 21.1 2.4 20.2 3.4 20.2 C 3.8 20.2 4.1 20.4 4.5 20.6 C 12.1 24.7 19.8 31.2 24.9 37.6 Z " transform="scale(1,-1)" stroke-dasharray="124.13193189094571" stroke-dashoffset="124.13193189094571"><animate attributeName="stroke-dashoffset" from="124.13193189094571" to="0" dur="3.723957956728371s" begin="0s; 15s; 30s; 45s; 60s" fill="freeze" id="anim0" /></path><path d="M 24.9 13.6 L 34.1 13.6 C 36.6 13.6 37.2 13.0 37.2 11.5 L 37.2 5.7 C 37.2 4.5 36.7 3.9 35.8 3.9 C 34.6 3.9 33.6 4.0 32.8 4.2 C 31.6 4.4 30.8 3.4 30.8 2.5 C 30.8 1.8 31.2 1.0 32.2 0.8 C 33.3 0.6 34.6 0.5 35.9 0.5 C 39.1 0.5 40.8 2.1 40.8 5.4 L 40.8 12.1 C 40.8 15.0 39.4 16.7 34.9 16.7 L 7.4 16.7 C 6.3 16.7 5.8 15.9 5.8 15.1 C 5.8 14.4 6.3 13.6 7.4 13.6 L 21.2 13.6 L 21.2 -3.0 C 21.2 -4.0 22.2 -4.5 23.1 -4.5 C 24.0 -4.5 24.9 -4.0 24.9 -3.0 Z " transform="scale(1,-1)" stroke-dasharray="142.1818344018362" stroke-dashoffset="142.1818344018362"><animate attributeName="stroke-dashoffset" from="142.1818344018362" to="0" dur="4.265455032055086s" begin="anim0.end" fill="freeze" id="anim1" /></path><path d="M 32.9 22.6 C 33.8 22.6 34.3 23.4 34.3 24.2 C 34.3 25.0 33.8 25.8 32.9 25.8 L 16.4 25.8 C 15.5 25.8 15.1 25.0 15.1 24.2 C 15.1 23.4 15.5 22.6 16.4 22.6 Z" transform="scale(1,-1)" stroke-dasharray="42.37541453684791" stroke-dashoffset="42.37541453684791"><animate attributeName="stroke-dashoffset" from="42.37541453684791" to="0" dur="1.2712624361054374s" begin="anim1.end" fill="freeze" id="anim_end" /></path></g></svg>