<?xml version='1.0' encoding='utf-8'?>
<svg viewBox="0 -44.0 50.0 50.0" version="1.1" xmlns="http://www.w3.org/2000/svg"><rect x="-1000" y="-1000" width="2000" height="2000" stroke="white" fill="white" /><g style="fill:none;stroke:#000000;stroke-width:1"><path d="M 35.3 31.5 C 36.9 33.8 38.2 36.3 39.5 38.9 C 39.6 39.2 39.7 39.5 39.7 39.8 C 39.7 40.9 38.8 41.5 37.8 41.5 C 37.1 41.5 36.4 41.2 36.1 40.2 C 34.9 37.3 33.5 34.3 31.7 31.5 L 17.9 31.5 C 16.9 31.5 16.4 30.7 16.4 29.9 C 16.4 29.2 16.9 28.4 17.9 28.4 L 29.0 28.4 L 29.0 22.5 L 20.2 22.5 C 19.2 22.5 18.7 21.7 18.7 21.0 C 18.7 20.2 19.2 19.4 20.2 19.4 L 29.0 19.4 L 29.0 12.7 L 16.1 12.7 C 15.1 12.7 14.6 11.9 14.6 11.1 C 14.6 10.3 15.1 9.5 16.1 9.5 L 29.0 9.5 L 29.0 -2.3 C 29.0 -3.4 29.9 -3.9 30.8 -3.9 C 31.7 -3.9 32.6 -3.4 32.6 -2.3 L 32.6 9.5 L 46.2 9.5 C 47.3 9.5 47.8 10.3 47.8 11.1 C 47.8 11.9 47.3 12.7 46.2 12.7 L 32.6 12.7 L 32.6 19.4 L 42.0 19.4 C 43.1 19.4 43.6 20.2 43.6 21.0 C 43.6 21.7 43.1 22.5 42.0 22.5 L 32.6 22.5 L 32.6 28.4 L 44.8 28.4 C 45.8 28.4 46.2 29.2 46.2 29.9 C 46.2 30.7 45.8 31.5 44.8 31.5 Z " transform="scale(1,-1)" stroke-dasharray="243.96579041989986" stroke-dashoffset="243.96579041989986"><animate attributeName="stroke-dashoffset" from="243.96579041989986" to="0" dur="7.318973712596995s" begin="0s; 15s; 30s; 45s; 60s" fill="freeze" id="anim0" /></path><path d="M 7.9 -2.7 C 7.9 -3.7 8.8 -4.2 9.7 -4.2 C 10.6 -4.2 11.4 -3.7 11.4 -2.7 L 11.4 25.7 C 11.4 26.7 10.6 27.2 9.7 27.2 C 11.4 31.1 13.0 35.3 13.9 39.2 C 14.0 39.4 14.0 39.6 14.0 39.8 C 14.0 40.9 13.1 41.5 12.2 41.5 C 11.4 41.5 10.7 41.1 10.4 40.1 C 8.6 32.6 5.3 24.8 1.8 19.7 C 1.5 19.3 1.4 18.9 1.4 18.6 C 1.4 17.7 2.1 17.1 2.9 17.1 C 3.4 17.1 4.0 17.4 4.5 18.0 C 5.6 19.6 6.8 21.6 7.9 23.7 Z " transform="scale(1,-1)" stroke-dasharray="115.44079127115914" stroke-dashoffset="115.44079127115914"><animate attributeName="stroke-dashoffset" from="115.44079127115914" to="0" dur="3.4632237381347744s" begin="anim0.end" fill="freeze" id="anim1" /></path><path d="M 24.6 40.4 C 24.2 40.9 23.7 41.1 23.2 41.1 C 22.2 41.1 21.5 40.4 21.5 39.5 C 21.5 39.2 21.6 38.8 21.9 38.5 C 22.7 37.3 23.6 35.9 24.5 34.2 C 24.9 33.4 25.5 33.1 26.1 33.1 C 27.0 33.1 27.9 33.9 27.9 34.9 C 27.9 35.2 27.8 35.6 27.6 36.0 C 26.7 37.6 25.6 39.2 24.6 40.4 Z" transform="scale(1,-1)" stroke-dasharray="21.707721595330167" stroke-dashoffset="21.707721595330167"><animate attributeName="stroke-dashoffset" from="21.707721595330167" to="0" dur="0.651231647859905s" begin="anim1.end" fill="freeze" id="anim_end" /></path></g></svg>