<?xml version='1.0' encoding='utf-8'?>
<svg viewBox="0 -44.0 50.0 50.0" version="1.1" xmlns="http://www.w3.org/2000/svg"><rect x="-1000" y="-1000" width="2000" height="2000" stroke="white" fill="white" /><g style="fill:none;stroke:#000000;stroke-width:1"><path d="M 38.2 22.4 C 41.9 22.4 43.2 23.8 43.2 26.2 L 43.2 31.2 C 43.2 33.6 41.9 35.1 38.2 35.1 L 22.9 35.1 C 19.2 35.1 17.9 33.6 17.9 31.2 L 17.9 26.2 C 18.0 23.1 20.1 22.4 22.9 22.4 Z " transform="scale(1,-1)" stroke-dasharray="69.54436802974487" stroke-dashoffset="69.54436802974487"><animate attributeName="stroke-dashoffset" from="69.54436802974487" to="0" dur="2.0863310408923463s" begin="0s; 15s; 30s; 45s; 60s" fill="freeze" id="anim0" /></path><path d="M 31.9 25.0 L 31.9 27.6 L 39.9 27.6 L 39.9 26.4 C 39.9 25.0 38.7 25.0 37.6 25.0 Z " transform="scale(1,-1)" stroke-dasharray="20.615021182550922" stroke-dashoffset="20.615021182550922"><animate attributeName="stroke-dashoffset" from="20.615021182550922" to="0" dur="0.6184506354765277s" begin="anim0.end" fill="freeze" id="anim1" /></path><path d="M 39.9 29.9 L 31.9 29.9 L 31.9 32.5 L 37.6 32.5 C 39.4 32.5 39.9 32.1 39.9 31.1 Z " transform="scale(1,-1)" stroke-dasharray="20.608377071052665" stroke-dashoffset="20.608377071052665"><animate attributeName="stroke-dashoffset" from="20.608377071052665" to="0" dur="0.6182513121315799s" begin="anim1.end" fill="freeze" id="anim2" /></path><path d="M 28.7 32.5 L 28.7 29.9 L 21.2 29.9 L 21.2 31.1 C 21.2 32.1 21.8 32.5 23.6 32.5 Z " transform="scale(1,-1)" stroke-dasharray="19.582542909385868" stroke-dashoffset="19.582542909385868"><animate attributeName="stroke-dashoffset" from="19.582542909385868" to="0" dur="0.587476287281576s" begin="anim2.end" fill="freeze" id="anim3" /></path><path d="M 21.2 27.6 L 28.7 27.6 L 28.7 25.0 L 23.6 25.0 C 21.8 25.0 21.2 25.3 21.2 26.4 Z " transform="scale(1,-1)" stroke-dasharray="19.61338777981512" stroke-dashoffset="19.61338777981512"><animate attributeName="stroke-dashoffset" from="19.61338777981512" to="0" dur="0.5884016333944536s" begin="anim3.end" fill="freeze" id="anim4" /></path><path d="M 38.2 2.6 C 41.9 2.6 43.2 4.0 43.2 6.4 L 43.2 11.8 C 43.2 14.2 41.9 15.6 38.2 15.6 L 22.9 15.6 C 19.2 15.6 17.9 14.2 17.9 11.8 L 17.9 6.4 C 18.0 3.2 20.1 2.6 22.9 2.6 Z " transform="scale(1,-1)" stroke-dasharray="70.25202459978107" stroke-dashoffset="70.25202459978107"><animate attributeName="stroke-dashoffset" from="70.25202459978107" to="0" dur="2.107560737993432s" begin="anim4.end" fill="freeze" id="anim5" /></path><path d="M 31.9 5.2 L 31.9 8.0 L 39.9 8.0 L 39.9 6.6 C 39.9 5.2 38.7 5.2 37.6 5.2 Z " transform="scale(1,-1)" stroke-dasharray="21.015021182550917" stroke-dashoffset="21.015021182550917"><animate attributeName="stroke-dashoffset" from="21.015021182550917" to="0" dur="0.6304506354765275s" begin="anim5.end" fill="freeze" id="anim6" /></path><path d="M 39.9 10.3 L 31.9 10.3 L 31.9 13.0 L 37.6 13.0 C 39.4 13.0 39.9 12.7 39.9 11.6 Z " transform="scale(1,-1)" stroke-dasharray="20.838863932545223" stroke-dashoffset="20.838863932545223"><animate attributeName="stroke-dashoffset" from="20.838863932545223" to="0" dur="0.6251659179763567s" begin="anim6.end" fill="freeze" id="anim7" /></path><path d="M 28.7 13.0 L 28.7 10.3 L 21.2 10.3 L 21.2 11.6 C 21.2 12.7 21.8 13.0 23.6 13.0 Z " transform="scale(1,-1)" stroke-dasharray="19.813387779815116" stroke-dashoffset="19.813387779815116"><animate attributeName="stroke-dashoffset" from="19.813387779815116" to="0" dur="0.5944016333944535s" begin="anim7.end" fill="freeze" id="anim8" /></path><path d="M 21.2 8.0 L 28.7 8.0 L 28.7 5.2 L 23.6 5.2 C 21.8 5.2 21.2 5.5 21.2 6.6 Z " transform="scale(1,-1)" stroke-dasharray="20.01338777981512" stroke-dashoffset="20.01338777981512"><animate attributeName="stroke-dashoffset" from="20.01338777981512" to="0" dur="0.6004016333944535s" begin="anim8.end" fill="freeze" id="anim9" /></path><path d="M 7.1 -2.7 C 7.1 -3.8 8.0 -4.2 8.8 -4.2 C 9.7 -4.2 10.6 -3.8 10.6 -2.7 L 10.6 25.7 C 10.6 26.7 9.7 27.2 8.8 27.2 C 10.5 31.2 12.0 35.6 12.9 39.6 C 13.2 41.0 12.1 41.9 11.1 41.9 C 10.3 41.9 9.6 41.4 9.3 40.4 C 7.8 33.1 4.9 25.2 1.6 20.0 C 1.4 19.6 1.2 19.2 1.2 18.9 C 1.2 18.1 2.0 17.5 2.8 17.5 C 3.2 17.5 3.9 17.8 4.3 18.4 C 5.2 19.9 6.2 21.6 7.1 23.4 Z " transform="scale(1,-1)" stroke-dasharray="114.26855337664115" stroke-dashoffset="114.26855337664115"><animate attributeName="stroke-dashoffset" from="114.26855337664115" to="0" dur="3.4280566012992346s" begin="anim9.end" fill="freeze" id="anim10" /></path><path d="M 45.2 37.0 C 46.2 37.0 46.6 37.8 46.6 38.5 C 46.6 39.2 46.2 39.9 45.2 39.9 L 16.7 39.9 C 15.8 39.9 15.3 39.2 15.3 38.5 C 15.3 37.8 15.8 37.0 16.7 37.0 Z " transform="scale(1,-1)" stroke-dasharray="66.0378073152745" stroke-dashoffset="66.0378073152745"><animate attributeName="stroke-dashoffset" from="66.0378073152745" to="0" dur="1.981134219458235s" begin="anim10.end" fill="freeze" id="anim11" /></path><path d="M 46.1 17.6 C 47.0 17.6 47.5 18.3 47.5 19.0 C 47.5 19.7 47.0 20.4 46.1 20.4 L 14.9 20.4 C 14.0 20.4 13.5 19.7 13.5 19.0 C 13.5 18.3 14.0 17.6 14.9 17.6 Z " transform="scale(1,-1)" stroke-dasharray="71.24925531507206" stroke-dashoffset="71.24925531507206"><animate attributeName="stroke-dashoffset" from="71.24925531507206" to="0" dur="2.137477659452162s" begin="anim11.end" fill="freeze" id="anim12" /></path><path d="M 46.8 -2.4 C 47.7 -2.4 48.2 -1.7 48.2 -1.0 C 48.2 -0.2 47.7 0.5 46.8 0.5 L 14.6 0.5 C 13.7 0.5 13.2 -0.2 13.2 -1.0 C 13.2 -1.7 13.7 -2.4 14.6 -2.4 Z" transform="scale(1,-1)" stroke-dasharray="73.42933422570269" stroke-dashoffset="73.42933422570269"><animate attributeName="stroke-dashoffset" from="73.42933422570269" to="0" dur="2.2028800267710804s" begin="anim12.end" fill="freeze" id="anim_end" /></path></g></svg>