<?xml version='1.0' encoding='utf-8'?>
<svg viewBox="0 -44.0 50.0 50.0" version="1.1" xmlns="http://www.w3.org/2000/svg"><rect x="-1000" y="-1000" width="2000" height="2000" stroke="white" fill="white" /><g style="fill:none;stroke:#000000;stroke-width:1"><path d="M 28.0 35.5 L 28.0 40.8 C 28.0 41.7 27.1 42.2 26.2 42.2 C 25.2 42.2 24.3 41.7 24.3 40.8 L 24.3 35.5 L 12.9 35.5 C 8.5 35.5 7.0 33.6 7.0 30.1 L 7.0 24.9 C 7.0 14.5 5.3 6.9 2.1 1.2 C 1.8 0.8 1.7 0.4 1.7 -0.1 C 1.7 -1.1 2.5 -1.8 3.4 -1.8 C 4.0 -1.8 4.8 -1.4 5.2 -0.6 C 8.8 5.6 10.7 13.8 10.7 24.1 L 10.7 29.5 C 10.7 31.5 11.2 32.2 13.7 32.2 L 44.9 32.2 C 45.9 32.2 46.4 33.1 46.4 33.9 C 46.4 34.6 45.9 35.5 44.9 35.5 Z " transform="scale(1,-1)" stroke-dasharray="161.29078845025234" stroke-dashoffset="161.29078845025234"><animate attributeName="stroke-dashoffset" from="161.29078845025234" to="0" dur="4.83872365350757s" begin="0s; 15s; 30s; 45s; 60s" fill="freeze" id="anim0" /></path><path d="M 26.4 18.6 L 16.0 18.6 C 15.0 18.6 14.5 17.8 14.5 16.9 C 14.5 16.2 15.0 15.4 16.0 15.4 L 26.4 15.4 L 26.4 1.9 L 11.5 1.9 C 10.5 1.9 10.0 1.1 10.0 0.3 C 10.0 -0.6 10.5 -1.4 11.5 -1.4 L 45.9 -1.4 C 46.9 -1.4 47.4 -0.6 47.4 0.3 C 47.4 1.1 46.9 1.9 45.9 1.9 L 30.1 1.9 L 30.1 15.4 L 42.0 15.4 C 43.0 15.4 43.5 16.2 43.5 16.9 C 43.5 17.8 43.0 18.6 42.0 18.6 L 30.1 18.6 L 30.1 27.7 C 30.1 28.8 29.2 29.4 28.2 29.4 C 27.4 29.4 26.4 28.8 26.4 27.7 Z" transform="scale(1,-1)" stroke-dasharray="180.36019455509793" stroke-dashoffset="180.36019455509793"><animate attributeName="stroke-dashoffset" from="180.36019455509793" to="0" dur="5.410805836652938s" begin="anim0.end" fill="freeze" id="anim_end" /></path></g></svg>