<?xml version='1.0' encoding='utf-8'?>
<svg viewBox="0 -44.0 50.0 50.0" version="1.1" xmlns="http://www.w3.org/2000/svg"><rect x="-1000" y="-1000" width="2000" height="2000" stroke="white" fill="white" /><g style="fill:none;stroke:#000000;stroke-width:1"><path d="M 32.6 29.1 L 32.6 1.9 C 32.6 0.6 32.1 0.1 31.2 0.1 C 30.2 0.1 29.5 0.2 28.6 0.4 C 27.3 0.6 26.5 -0.4 26.5 -1.4 C 26.5 -2.1 27.0 -2.9 28.0 -3.2 C 29.0 -3.4 30.2 -3.5 31.5 -3.5 C 34.4 -3.5 36.2 -2.2 36.2 0.9 L 36.2 29.1 L 45.4 29.1 C 46.4 29.1 46.9 29.9 46.9 30.7 C 46.9 31.5 46.4 32.3 45.4 32.3 L 28.2 32.3 C 29.2 34.5 30.0 36.6 30.6 38.6 C 30.6 38.9 30.7 39.1 30.7 39.3 C 30.7 40.5 29.8 41.1 28.9 41.1 C 28.1 41.1 27.3 40.7 27.1 39.7 C 25.7 34.8 23.2 29.2 20.5 25.4 C 20.2 24.9 20.0 24.5 20.0 24.0 C 20.0 23.1 20.8 22.5 21.6 22.5 C 22.1 22.5 22.7 22.7 23.2 23.3 C 24.4 25.0 25.6 27.0 26.7 29.1 Z " transform="scale(1,-1)" stroke-dasharray="155.61390586283787" stroke-dashoffset="155.61390586283787"><animate attributeName="stroke-dashoffset" from="155.61390586283787" to="0" dur="4.668417175885136s" begin="0s; 15s; 30s; 45s; 60s" fill="freeze" id="anim0" /></path><path d="M 6.7 15.2 L 12.4 15.2 C 13.9 15.2 14.4 14.7 14.3 13.4 C 14.2 9.9 13.7 5.7 13.0 2.9 C 12.4 0.8 11.4 0.2 9.5 0.2 C 8.6 0.2 7.6 0.4 6.7 0.6 C 5.4 1.0 4.5 -0.1 4.5 -1.1 C 4.5 -1.8 5.0 -2.5 5.8 -2.8 C 7.0 -3.2 8.3 -3.4 9.6 -3.4 C 13.3 -3.4 15.2 -2.0 16.4 2.2 C 17.2 5.1 17.7 9.5 17.9 13.8 C 17.9 16.7 16.5 18.2 13.2 18.2 L 7.2 18.2 L 8.2 24.4 C 8.3 25.2 8.8 25.6 9.9 25.6 L 13.2 25.6 C 16.6 25.6 17.9 26.8 17.9 29.6 L 17.9 35.3 C 17.9 38.1 16.6 39.2 13.2 39.2 L 5.0 39.2 C 4.0 39.2 3.6 38.5 3.6 37.8 C 3.6 37.1 4.0 36.3 5.0 36.3 L 12.5 36.3 C 14.0 36.3 14.4 36.0 14.4 34.7 L 14.4 30.2 C 14.4 28.9 14.0 28.6 12.5 28.6 L 9.3 28.6 C 6.5 28.6 5.5 27.7 5.1 25.2 L 3.4 15.1 C 3.1 13.9 4.0 13.2 4.8 13.2 C 5.6 13.2 6.5 13.7 6.7 14.8 Z " transform="scale(1,-1)" stroke-dasharray="159.30524786400557" stroke-dashoffset="159.30524786400557"><animate attributeName="stroke-dashoffset" from="159.30524786400557" to="0" dur="4.779157435920167s" begin="anim0.end" fill="freeze" id="anim1" /></path><path d="M 25.4 19.9 C 24.2 15.7 22.5 11.7 20.2 8.4 C 20.0 7.9 19.8 7.5 19.8 7.1 C 19.8 6.1 20.6 5.4 21.5 5.4 C 22.1 5.4 22.8 5.7 23.3 6.4 C 25.6 9.8 27.6 14.2 28.9 18.9 C 28.9 19.2 29.0 19.4 29.0 19.6 C 29.0 20.8 28.1 21.5 27.2 21.5 C 26.4 21.5 25.7 21.0 25.4 19.9 Z " transform="scale(1,-1)" stroke-dasharray="38.85004247528358" stroke-dashoffset="38.85004247528358"><animate attributeName="stroke-dashoffset" from="38.85004247528358" to="0" dur="1.1655012742585074s" begin="anim1.end" fill="freeze" id="anim2" /></path><path d="M 42.9 20.4 C 42.4 21.2 41.8 21.5 41.1 21.5 C 40.2 21.5 39.5 20.9 39.5 20.0 C 39.5 19.7 39.6 19.4 39.8 19.0 C 41.4 15.9 43.2 11.4 44.2 7.8 C 44.6 6.7 45.2 6.2 46.0 6.2 C 46.9 6.2 47.8 7.0 47.8 8.2 C 47.8 8.5 47.8 8.8 47.7 9.1 C 46.6 12.7 44.7 17.2 42.9 20.4 Z" transform="scale(1,-1)" stroke-dasharray="36.554105615962754" stroke-dashoffset="36.554105615962754"><animate attributeName="stroke-dashoffset" from="36.554105615962754" to="0" dur="1.0966231684788825s" begin="anim2.end" fill="freeze" id="anim_end" /></path></g></svg>