<?xml version='1.0' encoding='utf-8'?>
<svg viewBox="0 -44.0 50.0 50.0" version="1.1" xmlns="http://www.w3.org/2000/svg"><rect x="-1000" y="-1000" width="2000" height="2000" stroke="white" fill="white" /><g style="fill:none;stroke:#000000;stroke-width:1"><path d="M 26.7 29.9 L 26.7 34.1 L 45.2 34.1 C 46.2 34.1 46.6 34.9 46.6 35.6 C 46.6 36.5 46.2 37.2 45.2 37.2 L 26.7 37.2 L 26.7 40.7 C 26.7 41.8 25.8 42.4 24.9 42.4 C 24.0 42.4 23.1 41.8 23.1 40.7 L 23.1 37.2 L 5.0 37.2 C 4.0 37.2 3.6 36.5 3.6 35.6 C 3.6 34.9 4.0 34.1 5.0 34.1 L 23.1 34.1 L 23.1 29.9 L 9.1 29.9 C 8.1 29.9 7.6 29.2 7.6 28.4 C 7.6 27.6 8.1 26.8 9.1 26.8 L 41.0 26.8 C 42.0 26.8 42.4 27.6 42.4 28.4 C 42.4 29.2 42.0 29.9 41.0 29.9 Z " transform="scale(1,-1)" stroke-dasharray="173.3609230190145" stroke-dashoffset="173.3609230190145"><animate attributeName="stroke-dashoffset" from="173.3609230190145" to="0" dur="5.200827690570435s" begin="0s; 15s; 30s; 45s; 60s" fill="freeze" id="anim0" /></path><path d="M 37.4 10.9 C 41.0 10.9 42.4 12.4 42.4 15.1 L 42.4 18.9 C 42.4 21.4 40.9 23.0 37.4 23.0 L 14.7 23.0 C 10.3 23.0 8.9 21.5 8.9 18.4 L 8.9 15.3 C 8.9 8.1 7.0 2.7 3.2 -1.5 C 2.8 -2.0 2.6 -2.4 2.6 -2.8 C 2.6 -3.7 3.4 -4.5 4.3 -4.5 C 4.8 -4.5 5.4 -4.2 5.9 -3.7 C 9.5 0.1 11.8 5.1 12.4 10.9 Z " transform="scale(1,-1)" stroke-dasharray="118.46974658533796" stroke-dashoffset="118.46974658533796"><animate attributeName="stroke-dashoffset" from="118.46974658533796" to="0" dur="3.554092397560139s" begin="anim0.end" fill="freeze" id="anim1" /></path><path d="M 27.0 20.0 L 36.4 20.0 C 38.2 20.0 38.7 19.7 38.7 18.3 L 38.7 15.5 C 38.6 14.0 37.6 14.0 36.4 13.9 L 27.0 13.9 Z " transform="scale(1,-1)" stroke-dasharray="34.28751360028593" stroke-dashoffset="34.28751360028593"><animate attributeName="stroke-dashoffset" from="34.28751360028593" to="0" dur="1.028625408008578s" begin="anim1.end" fill="freeze" id="anim2" /></path><path d="M 23.5 20.0 L 23.5 13.9 L 12.6 13.9 C 12.6 14.2 12.6 14.4 12.6 14.6 L 12.6 17.9 C 12.6 19.6 13.2 20.0 15.5 20.0 Z" transform="scale(1,-1)" stroke-dasharray="33.24223668086123" stroke-dashoffset="33.24223668086123"><animate attributeName="stroke-dashoffset" from="33.24223668086123" to="0" dur="0.9972671004258369s" begin="anim2.end" fill="freeze" id="anim_end" /></path></g></svg>