<?xml version='1.0' encoding='utf-8'?>
<svg viewBox="0 -44.0 50.0 50.0" version="1.1" xmlns="http://www.w3.org/2000/svg"><rect x="-1000" y="-1000" width="2000" height="2000" stroke="white" fill="white" /><g style="fill:none;stroke:#000000;stroke-width:1"><path d="M 35.4 21.8 L 39.4 21.8 C 43.2 21.8 44.9 23.2 44.9 26.3 L 44.9 35.6 C 44.9 38.8 43.2 40.1 39.4 40.1 L 28.5 40.1 C 24.8 40.1 23.1 38.8 23.1 35.6 L 23.1 26.3 C 23.1 22.7 25.2 21.9 28.5 21.8 L 32.1 21.8 L 32.1 17.7 L 26.6 17.7 C 22.7 17.7 21.2 16.3 21.2 13.2 L 21.2 -2.2 C 21.2 -3.2 22.1 -3.8 23.0 -3.8 C 23.8 -3.8 24.7 -3.2 24.7 -2.2 L 24.7 12.6 C 24.7 14.2 25.3 14.7 27.4 14.7 L 32.1 14.7 L 32.1 8.3 C 30.8 8.2 29.4 8.1 27.8 8.0 C 26.8 7.9 26.3 7.1 26.3 6.4 C 26.3 5.5 27.0 4.5 28.1 4.7 C 32.2 5.2 35.3 5.7 39.0 6.7 C 39.2 6.2 39.3 5.8 39.4 5.4 C 39.6 4.5 40.2 4.0 40.9 4.0 C 41.7 4.0 42.4 4.7 42.4 5.6 C 42.4 5.8 42.4 6.0 42.3 6.2 C 41.8 8.1 40.7 10.5 39.9 11.9 C 39.6 12.5 39.0 12.7 38.5 12.7 C 37.8 12.7 37.1 12.2 37.1 11.5 C 37.1 11.2 37.2 11.0 37.4 10.6 C 37.6 10.2 37.9 9.8 38.1 9.2 C 37.1 9.1 36.3 8.9 35.4 8.8 L 35.4 14.7 L 40.5 14.7 C 42.6 14.7 43.2 14.2 43.2 12.6 L 43.2 2.2 C 43.2 0.9 42.7 0.4 41.6 0.4 C 40.9 0.4 40.3 0.5 39.7 0.6 C 38.4 0.8 37.7 -0.1 37.7 -1.0 C 37.7 -1.8 38.1 -2.6 39.2 -2.8 C 39.9 -2.9 40.8 -3.0 41.7 -3.0 C 44.9 -3.0 46.7 -1.6 46.7 2.0 L 46.7 13.2 C 46.7 16.3 45.2 17.7 41.4 17.7 L 35.4 17.7 Z " transform="scale(1,-1)" stroke-dasharray="256.22370647284873" stroke-dashoffset="256.22370647284873"><animate attributeName="stroke-dashoffset" from="256.22370647284873" to="0" dur="7.686711194185461s" begin="0s; 15s; 30s; 45s; 60s" fill="freeze" id="anim0" /></path><path d="M 35.4 29.7 L 41.5 29.7 L 41.5 26.8 C 41.4 24.9 40.6 24.8 38.9 24.7 L 35.4 24.7 Z " transform="scale(1,-1)" stroke-dasharray="21.39194011270475" stroke-dashoffset="21.39194011270475"><animate attributeName="stroke-dashoffset" from="21.39194011270475" to="0" dur="0.6417582033811424s" begin="anim0.end" fill="freeze" id="anim1" /></path><path d="M 32.1 29.7 L 32.1 24.7 L 29.0 24.7 C 27.0 24.7 26.5 25.2 26.5 26.8 L 26.5 29.7 Z " transform="scale(1,-1)" stroke-dasharray="20.46931264201696" stroke-dashoffset="20.46931264201696"><animate attributeName="stroke-dashoffset" from="20.46931264201696" to="0" dur="0.6140793792605087s" begin="anim1.end" fill="freeze" id="anim2" /></path><path d="M 35.4 37.2 L 38.9 37.2 C 41.0 37.2 41.5 36.7 41.5 35.1 L 41.5 32.5 L 35.4 32.5 Z " transform="scale(1,-1)" stroke-dasharray="20.860503553559646" stroke-dashoffset="20.860503553559646"><animate attributeName="stroke-dashoffset" from="20.860503553559646" to="0" dur="0.6258151066067893s" begin="anim2.end" fill="freeze" id="anim3" /></path><path d="M 32.1 37.2 L 32.1 32.5 L 26.5 32.5 L 26.5 35.1 C 26.5 36.7 27.0 37.2 29.0 37.2 Z " transform="scale(1,-1)" stroke-dasharray="19.869312642016965" stroke-dashoffset="19.869312642016965"><animate attributeName="stroke-dashoffset" from="19.869312642016965" to="0" dur="0.5960793792605089s" begin="anim3.end" fill="freeze" id="anim4" /></path><path d="M 12.8 8.5 L 12.8 39.9 C 12.8 40.9 12.0 41.4 11.2 41.4 C 10.4 41.4 9.6 40.9 9.6 39.9 L 9.6 8.5 L 8.3 8.5 C 7.2 8.5 6.9 8.9 6.9 10.4 L 6.9 31.8 C 6.9 32.8 6.1 33.3 5.2 33.3 C 4.4 33.3 3.6 32.8 3.6 31.8 L 3.6 9.8 C 3.6 6.6 5.3 5.5 8.2 5.5 L 14.2 5.5 C 17.1 5.5 18.8 6.6 18.8 9.8 L 18.8 31.8 C 18.8 32.8 18.0 33.3 17.2 33.3 C 16.4 33.3 15.6 32.8 15.6 31.8 L 15.6 10.4 C 15.6 8.9 15.2 8.5 14.1 8.5 Z" transform="scale(1,-1)" stroke-dasharray="193.22069821787994" stroke-dashoffset="193.22069821787994"><animate attributeName="stroke-dashoffset" from="193.22069821787994" to="0" dur="5.7966209465363985s" begin="anim4.end" fill="freeze" id="anim_end" /></path></g></svg>