<?xml version='1.0' encoding='utf-8'?>
<svg viewBox="0 -44.0 50.0 50.0" version="1.1" xmlns="http://www.w3.org/2000/svg"><rect x="-1000" y="-1000" width="2000" height="2000" stroke="white" fill="white" /><g style="fill:none;stroke:#000000;stroke-width:1"><path d="M 29.0 18.0 L 29.0 10.5 L 17.6 10.5 C 18.7 11.8 19.8 13.2 20.7 14.5 C 21.0 14.9 21.1 15.2 21.1 15.6 C 21.1 16.5 20.2 17.2 19.2 17.2 C 18.6 17.2 17.9 16.9 17.6 16.2 C 16.2 14.2 14.8 12.3 13.2 10.5 L 3.5 10.5 C 2.6 10.5 2.1 9.8 2.1 9.0 C 2.1 8.2 2.6 7.4 3.5 7.4 L 29.0 7.4 L 29.0 -2.8 C 29.0 -3.8 29.9 -4.4 30.8 -4.4 C 31.7 -4.4 32.6 -3.8 32.6 -2.8 L 32.6 7.4 L 46.7 7.4 C 47.6 7.4 48.1 8.2 48.1 9.0 C 48.1 9.8 47.6 10.5 46.7 10.5 L 32.6 10.5 L 32.6 18.0 L 36.1 18.0 C 39.9 18.0 41.6 19.5 41.6 22.6 L 41.6 32.5 C 41.6 35.6 39.9 37.1 36.1 37.1 L 23.2 37.1 C 23.8 37.9 24.2 38.8 24.7 39.9 C 24.8 40.2 24.9 40.5 24.9 40.8 C 24.9 41.8 24.0 42.4 23.1 42.4 C 22.4 42.4 21.7 42.1 21.3 41.2 C 20.7 39.5 20.2 38.4 19.5 37.1 L 14.0 37.1 C 10.1 37.1 8.4 35.6 8.4 32.5 L 8.4 22.6 C 8.5 18.9 10.7 18.1 14.0 18.0 Z " transform="scale(1,-1)" stroke-dasharray="246.5498406382809" stroke-dashoffset="246.5498406382809"><animate attributeName="stroke-dashoffset" from="246.5498406382809" to="0" dur="7.396495219148426s" begin="0s; 15s; 30s; 45s; 60s" fill="freeze" id="anim0" /></path><path d="M 23.1 26.2 L 23.1 21.0 L 14.6 21.0 C 13.1 21.1 11.9 21.2 11.9 23.1 L 11.9 26.2 Z " transform="scale(1,-1)" stroke-dasharray="31.962046335988234" stroke-dashoffset="31.962046335988234"><animate attributeName="stroke-dashoffset" from="31.962046335988234" to="0" dur="0.958861390079647s" begin="anim0.end" fill="freeze" id="anim1" /></path><path d="M 26.5 26.2 L 38.1 26.2 L 38.1 23.1 C 38.1 21.2 37.0 21.1 35.4 21.0 L 26.5 21.0 Z " transform="scale(1,-1)" stroke-dasharray="32.78076288723485" stroke-dashoffset="32.78076288723485"><animate attributeName="stroke-dashoffset" from="32.78076288723485" to="0" dur="0.9834228866170455s" begin="anim1.end" fill="freeze" id="anim2" /></path><path d="M 26.5 34.1 L 35.4 34.1 C 37.5 34.1 38.1 33.5 38.1 32.0 L 38.1 29.2 L 26.5 29.2 Z " transform="scale(1,-1)" stroke-dasharray="32.20064084717281" stroke-dashoffset="32.20064084717281"><animate attributeName="stroke-dashoffset" from="32.20064084717281" to="0" dur="0.9660192254151841s" begin="anim2.end" fill="freeze" id="anim3" /></path><path d="M 23.1 34.1 L 23.1 29.2 L 11.9 29.2 L 11.9 32.0 C 11.9 33.5 12.6 34.1 14.6 34.1 Z" transform="scale(1,-1)" stroke-dasharray="31.3779720735762" stroke-dashoffset="31.3779720735762"><animate attributeName="stroke-dashoffset" from="31.3779720735762" to="0" dur="0.941339162207286s" begin="anim3.end" fill="freeze" id="anim_end" /></path></g></svg>