<?xml version='1.0' encoding='utf-8'?>
<svg viewBox="0 -44.0 50.0 50.0" version="1.1" xmlns="http://www.w3.org/2000/svg"><rect x="-1000" y="-1000" width="2000" height="2000" stroke="white" fill="white" /><g style="fill:none;stroke:#000000;stroke-width:1"><path d="M 14.1 21.2 L 11.6 21.2 C 9.9 21.2 9.5 21.4 9.5 22.7 L 9.5 27.5 C 9.5 28.5 8.7 29.0 7.9 29.0 C 7.1 29.0 6.2 28.5 6.2 27.5 L 6.2 22.1 C 6.2 18.9 7.5 18.2 10.9 18.2 L 14.1 18.2 L 14.1 13.3 L 4.2 13.3 C 3.2 13.3 2.8 12.6 2.8 11.8 C 2.8 11.1 3.2 10.3 4.2 10.3 L 7.2 10.3 C 7.0 5.1 5.6 1.7 3.0 -1.2 C 2.6 -1.7 2.5 -2.1 2.5 -2.5 C 2.5 -3.4 3.1 -4.0 4.0 -4.0 C 4.5 -4.0 5.0 -3.8 5.5 -3.2 C 8.5 -0.1 10.2 4.4 10.6 10.3 L 14.1 10.3 L 14.1 -2.9 C 14.1 -3.9 15.0 -4.4 15.8 -4.4 C 16.6 -4.4 17.4 -3.9 17.4 -2.9 L 17.4 31.0 C 17.4 32.1 16.6 32.6 15.8 32.6 C 15.0 32.6 14.1 32.1 14.1 31.0 Z " transform="scale(1,-1)" stroke-dasharray="157.00306331052536" stroke-dashoffset="157.00306331052536"><animate attributeName="stroke-dashoffset" from="157.00306331052536" to="0" dur="4.710091899315761s" begin="0s; 15s; 30s; 45s; 60s" fill="freeze" id="anim0" /></path><path d="M 42.0 24.1 L 45.8 24.1 C 46.8 24.1 47.2 24.8 47.2 25.5 C 47.2 26.2 46.8 26.9 45.8 26.9 L 42.0 26.9 L 42.0 28.2 C 42.0 31.0 40.3 32.0 37.0 32.0 L 24.8 32.0 C 23.9 32.0 23.4 31.2 23.4 30.6 C 23.4 29.9 23.9 29.2 24.8 29.2 L 36.6 29.2 C 38.1 29.2 38.7 28.8 38.7 27.8 L 38.7 26.9 L 20.6 26.9 C 19.8 26.9 19.3 26.2 19.3 25.5 C 19.3 24.8 19.8 24.1 20.6 24.1 L 38.7 24.1 L 38.7 23.2 C 38.7 22.0 38.1 21.7 36.6 21.7 L 24.8 21.7 C 23.9 21.7 23.4 21.0 23.4 20.3 C 23.4 19.6 23.9 18.9 24.8 18.9 L 37.0 18.9 C 40.3 18.9 42.0 19.9 42.0 22.6 Z " transform="scale(1,-1)" stroke-dasharray="134.25507240902505" stroke-dashoffset="134.25507240902505"><animate attributeName="stroke-dashoffset" from="134.25507240902505" to="0" dur="4.027652172270751s" begin="anim0.end" fill="freeze" id="anim1" /></path><path d="M 26.6 8.3 C 28.0 6.2 29.7 4.2 31.6 2.7 C 28.5 1.0 24.7 -0.2 21.0 -1.0 C 20.1 -1.2 19.7 -1.8 19.7 -2.4 C 19.7 -3.3 20.4 -4.2 21.6 -3.9 C 25.8 -3.1 30.2 -1.6 34.1 0.7 C 37.4 -1.4 41.0 -2.9 44.8 -3.7 C 46.2 -4.0 47.2 -2.9 47.2 -1.9 C 47.2 -1.1 46.7 -0.4 45.5 -0.2 C 42.4 0.4 39.6 1.3 37.0 2.7 C 38.3 3.7 39.5 4.8 40.5 6.1 C 41.2 6.9 41.6 7.8 41.6 8.6 C 41.6 10.1 40.1 11.2 37.4 11.2 L 25.5 11.2 C 24.5 11.2 24.0 10.5 24.0 9.8 C 24.0 9.1 24.5 8.3 25.5 8.3 Z " transform="scale(1,-1)" stroke-dasharray="94.66198781890112" stroke-dashoffset="94.66198781890112"><animate attributeName="stroke-dashoffset" from="94.66198781890112" to="0" dur="2.8398596345670337s" begin="anim1.end" fill="freeze" id="anim2" /></path><path d="M 36.7 8.3 C 37.3 8.3 37.6 8.2 37.6 7.9 C 37.6 7.7 37.5 7.5 37.2 7.2 C 36.5 6.2 35.5 5.2 34.3 4.4 C 32.8 5.5 31.3 6.8 30.2 8.3 Z " transform="scale(1,-1)" stroke-dasharray="18.158534747277383" stroke-dashoffset="18.158534747277383"><animate attributeName="stroke-dashoffset" from="18.158534747277383" to="0" dur="0.5447560424183214s" begin="anim2.end" fill="freeze" id="anim3" /></path><path d="M 26.7 38.1 L 26.7 41.1 C 26.7 42.1 25.8 42.7 24.9 42.7 C 24.1 42.7 23.2 42.1 23.2 41.1 L 23.2 38.1 L 9.2 38.1 C 5.4 38.1 4.0 36.4 4.0 33.9 L 4.0 31.2 C 4.0 30.1 4.9 29.6 5.7 29.6 C 6.6 29.6 7.5 30.1 7.5 31.2 L 7.5 33.4 C 7.5 34.4 7.9 35.0 9.8 35.0 L 40.3 35.0 C 42.2 35.0 42.7 34.4 42.7 33.2 L 42.7 30.9 C 42.7 29.8 43.6 29.3 44.4 29.3 C 45.3 29.3 46.2 29.8 46.2 30.9 L 46.2 33.9 C 46.2 36.4 44.8 38.1 41.0 38.1 Z " transform="scale(1,-1)" stroke-dasharray="112.93329277304692" stroke-dashoffset="112.93329277304692"><animate attributeName="stroke-dashoffset" from="112.93329277304692" to="0" dur="3.3879987831914073s" begin="anim3.end" fill="freeze" id="anim4" /></path><path d="M 24.6 16.4 C 20.9 16.4 19.5 15.2 19.5 12.5 L 19.5 9.9 C 19.5 8.8 20.3 8.3 21.1 8.3 C 22.0 8.3 22.8 8.8 22.8 9.9 L 22.8 12.0 C 22.8 13.2 23.2 13.7 25.1 13.7 L 41.0 13.7 C 42.9 13.7 43.4 13.2 43.4 11.9 L 43.4 10.2 C 43.4 9.1 44.2 8.6 45.0 8.6 C 45.9 8.6 46.7 9.1 46.7 10.2 L 46.7 12.5 C 46.7 15.2 45.2 16.4 41.6 16.4 Z" transform="scale(1,-1)" stroke-dasharray="73.65639993079512" stroke-dashoffset="73.65639993079512"><animate attributeName="stroke-dashoffset" from="73.65639993079512" to="0" dur="2.2096919979238536s" begin="anim4.end" fill="freeze" id="anim_end" /></path></g></svg>