<?xml version='1.0' encoding='utf-8'?>
<svg viewBox="0 -44.0 50.0 50.0" version="1.1" xmlns="http://www.w3.org/2000/svg"><rect x="-1000" y="-1000" width="2000" height="2000" stroke="white" fill="white" /><g style="fill:none;stroke:#000000;stroke-width:1"><path d="M 33.4 24.3 L 39.4 24.3 C 40.3 24.3 40.8 25.1 40.8 25.8 C 40.8 26.6 40.3 27.3 39.4 27.3 L 33.4 27.3 L 33.4 33.6 C 33.4 34.6 32.6 35.1 31.8 35.1 C 31.0 35.1 30.2 34.6 30.2 33.6 L 30.2 27.3 L 24.7 27.3 C 23.8 27.3 23.3 26.6 23.3 25.8 C 23.3 25.1 23.8 24.3 24.7 24.3 L 29.7 24.3 C 28.0 19.5 25.6 15.2 23.2 12.2 C 22.9 11.8 22.8 11.4 22.8 11.1 C 22.8 10.2 23.4 9.7 24.2 9.7 C 24.7 9.7 25.2 9.9 25.7 10.5 C 27.5 13.0 29.2 15.7 30.3 18.2 L 30.2 11.5 L 30.2 4.7 C 30.2 3.7 31.0 3.2 31.8 3.2 C 32.6 3.2 33.4 3.7 33.4 4.7 L 33.4 17.2 C 35.3 15.6 37.0 13.5 38.1 11.9 C 38.5 11.2 39.0 10.9 39.5 10.9 C 40.3 10.9 41.1 11.6 41.1 12.6 C 41.1 13.0 40.9 13.5 40.6 14.0 C 39.0 16.2 36.4 18.7 33.4 20.9 Z " transform="scale(1,-1)" stroke-dasharray="134.4783861689751" stroke-dashoffset="134.4783861689751"><animate attributeName="stroke-dashoffset" from="134.4783861689751" to="0" dur="4.034351585069253s" begin="0s; 15s; 30s; 45s; 60s" fill="freeze" id="anim0" /></path><path d="M 40.3 -2.0 C 44.4 -2.0 46.2 -0.2 46.2 3.6 L 46.2 34.6 C 46.2 38.4 44.4 40.1 40.3 40.1 L 23.6 40.1 C 19.5 40.1 17.7 38.4 17.7 34.6 L 17.7 3.6 C 17.8 -0.5 19.7 -1.9 23.6 -2.0 Z " transform="scale(1,-1)" stroke-dasharray="132.7976009092583" stroke-dashoffset="132.7976009092583"><animate attributeName="stroke-dashoffset" from="132.7976009092583" to="0" dur="3.983928027277749s" begin="anim0.end" fill="freeze" id="anim1" /></path><path d="M 24.2 1.1 C 22.0 1.1 21.2 2.0 21.2 4.0 L 21.2 34.1 C 21.2 36.2 22.0 37.1 24.2 37.1 L 39.7 37.1 C 41.9 37.1 42.7 36.2 42.7 34.1 L 42.7 4.0 C 42.6 1.9 41.9 1.1 39.7 1.1 Z " transform="scale(1,-1)" stroke-dasharray="110.78445474175628" stroke-dashoffset="110.78445474175628"><animate attributeName="stroke-dashoffset" from="110.78445474175628" to="0" dur="3.323533642252688s" begin="anim1.end" fill="freeze" id="anim2" /></path><path d="M 10.8 40.5 C 10.8 41.5 9.9 42.0 9.1 42.0 C 8.2 42.0 7.4 41.5 7.4 40.5 L 7.4 -2.4 C 7.4 -3.4 8.2 -4.0 9.1 -4.0 C 9.9 -4.0 10.8 -3.4 10.8 -2.4 Z " transform="scale(1,-1)" stroke-dasharray="96.08309286935429" stroke-dashoffset="96.08309286935429"><animate attributeName="stroke-dashoffset" from="96.08309286935429" to="0" dur="2.8824927860806286s" begin="anim2.end" fill="freeze" id="anim3" /></path><path d="M 3.0 29.6 C 2.8 27.3 2.2 24.6 1.6 22.9 C 1.5 22.7 1.5 22.4 1.5 22.2 C 1.5 21.4 2.1 20.9 2.8 20.9 C 3.4 20.9 4.0 21.2 4.4 22.2 C 5.1 23.8 5.7 26.9 5.9 29.2 C 6.0 30.4 5.2 31.0 4.5 31.0 C 3.8 31.0 3.1 30.5 3.0 29.6 Z " transform="scale(1,-1)" stroke-dasharray="23.84814439355231" stroke-dashoffset="23.84814439355231"><animate attributeName="stroke-dashoffset" from="23.84814439355231" to="0" dur="0.7154443318065693s" begin="anim3.end" fill="freeze" id="anim4" /></path><path d="M 14.5 31.0 C 14.2 31.5 13.7 31.8 13.2 31.8 C 12.5 31.8 11.8 31.2 11.8 30.5 C 11.8 30.2 11.9 30.0 12.0 29.7 C 12.5 28.7 13.2 26.9 13.6 25.6 C 13.8 24.7 14.4 24.2 15.0 24.2 C 15.7 24.2 16.4 24.9 16.4 25.9 C 16.4 26.1 16.4 26.3 16.4 26.6 C 16.0 28.0 15.2 29.7 14.5 31.0 Z" transform="scale(1,-1)" stroke-dasharray="19.006826268015367" stroke-dashoffset="19.006826268015367"><animate attributeName="stroke-dashoffset" from="19.006826268015367" to="0" dur="0.5702047880404609s" begin="anim4.end" fill="freeze" id="anim_end" /></path></g></svg>