<?xml version='1.0' encoding='utf-8'?>
<svg viewBox="0 -44.0 50.0 50.0" version="1.1" xmlns="http://www.w3.org/2000/svg"><rect x="-1000" y="-1000" width="2000" height="2000" stroke="white" fill="white" /><g style="fill:none;stroke:#000000;stroke-width:1"><path d="M 35.4 2.2 C 35.4 2.1 35.4 2.0 35.4 1.9 C 35.0 -0.1 34.1 -0.6 32.6 -0.6 C 31.7 -0.6 30.7 -0.5 29.7 -0.4 C 28.5 -0.1 27.8 -1.1 27.8 -2.0 C 27.8 -2.7 28.2 -3.3 29.1 -3.5 C 30.3 -3.7 31.5 -3.8 32.6 -3.8 C 36.6 -3.8 38.1 -2.2 38.9 1.5 C 38.9 1.7 39.0 2.0 39.0 2.2 L 45.5 2.2 C 46.5 2.2 47.0 3.0 47.0 3.7 C 47.0 4.4 46.5 5.1 45.5 5.1 L 39.5 5.1 C 39.8 6.8 40.0 8.6 40.2 10.4 L 46.8 10.4 C 47.8 10.4 48.2 11.1 48.2 11.8 C 48.2 12.5 47.8 13.2 46.8 13.2 L 40.4 13.2 C 40.5 14.4 40.5 15.5 40.5 16.6 C 40.5 19.4 39.4 20.8 35.9 20.8 L 15.9 20.8 C 12.5 20.8 11.0 19.8 10.7 16.9 C 10.5 15.7 10.4 14.5 10.2 13.2 L 3.4 13.2 C 2.4 13.2 1.9 12.5 1.9 11.8 C 1.9 11.1 2.4 10.4 3.4 10.4 L 9.7 10.4 C 9.2 7.6 8.6 4.4 7.9 1.0 C 7.6 -0.3 8.5 -0.9 9.5 -0.9 C 10.3 -0.9 11.2 -0.5 11.4 0.5 C 11.6 1.1 11.7 1.7 11.8 2.2 Z " transform="scale(1,-1)" stroke-dasharray="165.77111271127845" stroke-dashoffset="165.77111271127845"><animate attributeName="stroke-dashoffset" from="165.77111271127845" to="0" dur="4.973133381338354s" begin="0s; 15s; 30s; 45s; 60s" fill="freeze" id="anim0" /></path><path d="M 26.6 13.2 C 26.7 14.8 26.9 16.4 26.9 18.0 L 34.9 18.0 C 36.6 18.0 36.9 17.8 36.9 16.4 C 36.9 15.5 36.9 14.4 36.8 13.2 Z " transform="scale(1,-1)" stroke-dasharray="29.32016166890223" stroke-dashoffset="29.32016166890223"><animate attributeName="stroke-dashoffset" from="29.32016166890223" to="0" dur="0.8796048500670669s" begin="anim0.end" fill="freeze" id="anim1" /></path><path d="M 13.7 13.2 C 13.9 14.3 14.0 15.4 14.2 16.4 C 14.4 17.7 14.9 18.0 16.7 18.0 L 23.4 18.0 C 23.3 16.4 23.2 14.8 23.1 13.2 Z " transform="scale(1,-1)" stroke-dasharray="27.53770564283734" stroke-dashoffset="27.53770564283734"><animate attributeName="stroke-dashoffset" from="27.53770564283734" to="0" dur="0.8261311692851202s" begin="anim1.end" fill="freeze" id="anim2" /></path><path d="M 36.6 10.4 C 36.4 8.6 36.2 6.9 36.0 5.1 L 25.6 5.1 C 25.9 6.9 26.1 8.6 26.2 10.4 Z " transform="scale(1,-1)" stroke-dasharray="31.47046856382795" stroke-dashoffset="31.47046856382795"><animate attributeName="stroke-dashoffset" from="31.47046856382795" to="0" dur="0.9441140569148385s" begin="anim2.end" fill="freeze" id="anim3" /></path><path d="M 22.7 10.4 C 22.6 8.6 22.2 6.9 22.0 5.1 L 12.4 5.1 C 12.7 6.8 13.0 8.6 13.3 10.4 Z " transform="scale(1,-1)" stroke-dasharray="29.72387727730441" stroke-dashoffset="29.72387727730441"><animate attributeName="stroke-dashoffset" from="29.72387727730441" to="0" dur="0.8917163183191322s" begin="anim3.end" fill="freeze" id="anim4" /></path><path d="M 26.6 26.4 L 26.6 29.4 L 39.9 29.4 C 40.9 29.4 41.4 30.2 41.4 30.9 C 41.4 31.6 40.9 32.3 39.9 32.3 L 26.6 32.3 L 26.6 35.2 L 44.1 35.2 C 45.1 35.2 45.6 36.0 45.6 36.7 C 45.6 37.4 45.1 38.1 44.1 38.1 L 26.6 38.1 L 26.6 40.8 C 26.6 41.9 25.8 42.4 24.9 42.4 C 24.0 42.4 23.1 41.9 23.1 40.8 L 23.1 38.1 L 7.3 38.1 C 6.3 38.1 5.8 37.4 5.8 36.7 C 5.8 36.0 6.3 35.2 7.3 35.2 L 23.1 35.2 L 23.1 32.3 L 10.9 32.3 C 9.9 32.3 9.3 31.6 9.3 30.9 C 9.3 30.2 9.9 29.4 10.9 29.4 L 23.1 29.4 L 23.1 26.4 L 4.2 26.4 C 3.2 26.4 2.7 25.7 2.7 24.9 C 2.7 24.2 3.2 23.5 4.2 23.5 L 45.9 23.5 C 47.0 23.5 47.5 24.2 47.5 24.9 C 47.5 25.7 47.0 26.4 45.9 26.4 Z" transform="scale(1,-1)" stroke-dasharray="248.4013561553799" stroke-dashoffset="248.4013561553799"><animate attributeName="stroke-dashoffset" from="248.4013561553799" to="0" dur="7.452040684661396s" begin="anim4.end" fill="freeze" id="anim_end" /></path></g></svg>