<?xml version='1.0' encoding='utf-8'?>
<svg viewBox="0 -44.0 50.0 50.0" version="1.1" xmlns="http://www.w3.org/2000/svg"><rect x="-1000" y="-1000" width="2000" height="2000" stroke="white" fill="white" /><g style="fill:none;stroke:#000000;stroke-width:1"><path d="M 8.2 27.7 C 6.7 21.2 4.4 15.0 1.5 10.6 C 1.2 10.2 1.1 9.8 1.1 9.5 C 1.1 8.6 1.8 8.1 2.5 8.1 C 3.1 8.1 3.6 8.3 4.0 9.0 C 6.0 12.1 7.7 15.9 8.9 19.7 L 8.7 9.4 L 8.7 -2.7 C 8.7 -3.7 9.5 -4.2 10.3 -4.2 C 11.2 -4.2 12.0 -3.7 12.0 -2.7 L 12.0 18.8 C 13.1 17.7 14.2 16.3 14.9 15.2 C 15.3 14.5 15.9 14.2 16.4 14.2 C 17.2 14.2 17.9 14.9 17.9 15.9 C 17.9 16.3 17.8 16.8 17.4 17.2 C 16.1 19.1 14.2 20.9 12.0 22.5 L 12.0 27.7 L 15.9 27.7 C 16.8 27.7 17.2 28.4 17.2 29.2 C 17.2 29.9 16.8 30.7 15.9 30.7 L 12.0 30.7 L 12.0 40.5 C 12.0 41.5 11.2 42.0 10.3 42.0 C 9.5 42.0 8.7 41.5 8.7 40.5 L 8.7 30.7 L 3.5 30.7 C 2.6 30.7 2.1 29.9 2.1 29.2 C 2.1 28.4 2.6 27.7 3.5 27.7 Z " transform="scale(1,-1)" stroke-dasharray="159.0508122313771" stroke-dashoffset="159.0508122313771"><animate attributeName="stroke-dashoffset" from="159.0508122313771" to="0" dur="4.771524366941313s" begin="0s; 15s; 30s; 45s; 60s" fill="freeze" id="anim0" /></path><path d="M 26.8 27.1 L 26.8 0.7 L 17.7 0.7 C 16.8 0.7 16.2 -0.1 16.2 -0.9 C 16.2 -1.7 16.8 -2.5 17.7 -2.5 L 46.5 -2.5 C 47.4 -2.5 47.9 -1.7 47.9 -0.9 C 47.9 -0.1 47.4 0.7 46.5 0.7 L 37.6 0.7 L 37.6 27.1 L 45.9 27.1 C 46.8 27.1 47.2 27.9 47.2 28.7 C 47.2 29.4 46.8 30.2 45.9 30.2 L 36.9 30.2 C 38.5 33.0 39.7 35.6 40.8 38.6 C 40.9 38.9 41.0 39.1 41.0 39.4 C 41.0 40.5 40.1 41.2 39.2 41.2 C 38.4 41.2 37.7 40.8 37.4 39.8 C 36.5 36.5 35.1 33.2 33.6 30.2 L 20.3 30.2 C 19.4 30.2 18.9 29.4 18.9 28.7 C 18.9 27.9 19.4 27.1 20.3 27.1 Z " transform="scale(1,-1)" stroke-dasharray="181.25061982463708" stroke-dashoffset="181.25061982463708"><animate attributeName="stroke-dashoffset" from="181.25061982463708" to="0" dur="5.437518594739112s" begin="anim0.end" fill="freeze" id="anim1" /></path><path d="M 30.3 27.1 L 34.1 27.1 L 34.1 0.7 L 30.3 0.7 Z " transform="scale(1,-1)" stroke-dasharray="60.400000000000006" stroke-dashoffset="60.400000000000006"><animate attributeName="stroke-dashoffset" from="60.400000000000006" to="0" dur="1.812s" begin="anim1.end" fill="freeze" id="anim2" /></path><path d="M 26.2 39.8 C 25.8 40.4 25.2 40.6 24.8 40.6 C 23.9 40.6 23.1 40.0 23.1 39.1 C 23.1 38.7 23.2 38.2 23.5 37.9 C 24.6 36.5 25.8 34.1 26.5 32.5 C 26.8 31.7 27.5 31.3 28.1 31.3 C 29.0 31.3 29.8 32.0 29.8 33.1 C 29.8 33.5 29.8 33.9 29.6 34.2 C 28.9 35.7 27.4 38.4 26.2 39.8 Z " transform="scale(1,-1)" stroke-dasharray="24.279019606950218" stroke-dashoffset="24.279019606950218"><animate attributeName="stroke-dashoffset" from="24.279019606950218" to="0" dur="0.7283705882085065s" begin="anim2.end" fill="freeze" id="anim3" /></path><path d="M 42.5 9.1 C 43.6 11.7 44.4 14.7 45.6 18.9 C 45.6 19.1 45.7 19.3 45.7 19.5 C 45.7 20.7 44.8 21.3 43.9 21.3 C 43.2 21.3 42.4 20.8 42.2 19.8 C 41.3 16.0 40.5 13.1 39.4 10.2 C 39.2 9.9 39.2 9.7 39.2 9.4 C 39.2 8.4 40.0 7.8 40.8 7.8 C 41.4 7.8 42.1 8.2 42.5 9.1 Z " transform="scale(1,-1)" stroke-dasharray="31.83892057064569" stroke-dashoffset="31.83892057064569"><animate attributeName="stroke-dashoffset" from="31.83892057064569" to="0" dur="0.9551676171193707s" begin="anim3.end" fill="freeze" id="anim4" /></path><path d="M 22.1 19.5 C 21.7 20.4 21.0 20.7 20.4 20.7 C 19.5 20.7 18.7 20.1 18.7 19.1 C 18.7 18.8 18.7 18.5 18.9 18.2 C 20.1 15.5 21.0 12.6 21.6 9.5 C 21.8 8.3 22.5 7.9 23.2 7.9 C 24.2 7.9 25.2 8.9 24.9 10.6 C 24.3 13.8 23.5 16.8 22.1 19.5 Z" transform="scale(1,-1)" stroke-dasharray="30.391584978641124" stroke-dashoffset="30.391584978641124"><animate attributeName="stroke-dashoffset" from="30.391584978641124" to="0" dur="0.9117475493592336s" begin="anim4.end" fill="freeze" id="anim_end" /></path></g></svg>