<?xml version='1.0' encoding='utf-8'?>
<svg viewBox="0 -44.0 50.0 50.0" version="1.1" xmlns="http://www.w3.org/2000/svg"><rect x="-1000" y="-1000" width="2000" height="2000" stroke="white" fill="white" /><g style="fill:none;stroke:#000000;stroke-width:1"><path d="M 18.1 12.5 L 15.6 12.5 L 15.6 22.5 C 15.6 23.4 14.9 23.8 14.2 23.8 C 13.4 23.8 12.7 23.4 12.7 22.5 L 12.7 12.5 L 7.9 12.5 L 7.7 18.6 L 10.2 18.6 C 11.2 18.6 11.6 19.3 11.6 20.0 C 11.6 20.7 11.2 21.4 10.2 21.4 L 7.6 21.4 L 7.4 27.2 L 10.1 27.2 C 11.0 27.2 11.4 27.9 11.4 28.6 C 11.4 29.3 11.0 30.0 10.1 30.0 L 7.2 30.0 L 7.1 34.2 C 8.4 34.9 9.7 35.7 11.0 36.6 C 11.7 37.1 11.9 37.6 11.9 38.1 C 11.9 38.9 11.2 39.7 10.3 39.7 C 9.9 39.7 9.5 39.5 9.1 39.2 C 8.2 38.5 7.4 37.9 6.5 37.4 C 6.2 37.6 5.9 37.6 5.5 37.6 C 4.7 37.6 3.9 37.1 3.9 36.1 L 4.9 12.5 L 2.5 12.5 C 1.7 12.5 1.2 11.8 1.2 11.0 C 1.2 10.2 1.7 9.5 2.5 9.5 L 30.7 9.5 C 31.6 9.5 32.0 10.2 32.0 11.0 C 32.0 11.8 31.6 12.5 30.7 12.5 L 28.5 12.5 L 29.3 34.2 C 29.4 37.1 28.2 38.1 25.3 38.1 L 23.3 38.1 C 22.4 38.1 21.9 37.3 21.9 36.6 C 21.9 35.8 22.4 35.1 23.3 35.1 L 24.8 35.1 C 26.0 35.1 26.2 34.7 26.2 33.8 L 26.1 29.7 L 23.3 29.7 C 22.5 29.7 22.0 29.0 22.0 28.3 C 22.0 27.6 22.5 26.9 23.3 26.9 L 26.0 26.9 L 25.8 21.4 L 23.2 21.4 C 22.4 21.4 22.0 20.7 22.0 20.0 C 22.0 19.3 22.4 18.6 23.2 18.6 L 25.7 18.6 L 25.5 12.5 L 21.0 12.5 L 21.0 26.2 C 21.0 28.6 20.2 29.5 17.9 29.5 L 16.8 29.5 C 15.9 29.5 15.6 29.6 15.6 30.5 L 15.6 34.0 L 19.9 34.0 C 20.8 34.0 21.2 34.7 21.2 35.4 C 21.2 36.1 20.8 36.9 19.9 36.9 L 15.6 36.9 L 15.6 40.2 C 15.6 41.1 14.9 41.6 14.2 41.6 C 13.4 41.6 12.7 41.1 12.7 40.2 L 12.7 29.8 C 12.7 27.6 13.6 26.9 15.6 26.9 L 16.8 26.9 C 17.8 26.9 18.1 26.6 18.1 25.6 Z " transform="scale(1,-1)" stroke-dasharray="305.2620284230716" stroke-dashoffset="305.2620284230716"><animate attributeName="stroke-dashoffset" from="305.2620284230716" to="0" dur="9.15786085269215s" begin="0s; 15s; 30s; 45s; 60s" fill="freeze" id="anim0" /></path><path d="M 39.6 26.3 C 39.6 27.3 38.8 27.8 38.0 27.8 C 37.2 27.8 36.4 27.3 36.4 26.3 L 36.4 25.5 C 36.4 13.2 32.5 4.5 27.1 -1.2 C 26.7 -1.7 26.5 -2.1 26.5 -2.6 C 26.5 -3.4 27.1 -4.0 28.0 -4.0 C 28.4 -4.0 28.9 -3.9 29.4 -3.4 C 33.4 0.8 36.6 6.6 38.3 13.9 C 39.6 7.8 42.1 2.4 45.5 -2.1 C 46.0 -2.8 46.5 -3.1 47.1 -3.1 C 48.0 -3.1 48.8 -2.3 48.8 -1.4 C 48.8 -1.0 48.6 -0.5 48.2 0.0 C 43.5 6.0 40.2 13.4 39.5 22.1 C 39.6 23.2 39.6 24.4 39.6 25.6 Z " transform="scale(1,-1)" stroke-dasharray="111.95968642264785" stroke-dashoffset="111.95968642264785"><animate attributeName="stroke-dashoffset" from="111.95968642264785" to="0" dur="3.3587905926794352s" begin="anim0.end" fill="freeze" id="anim1" /></path><path d="M 43.6 29.9 C 44.5 29.9 44.6 29.6 44.5 29.1 C 44.1 27.9 43.5 26.6 42.6 25.2 C 42.3 24.8 42.2 24.4 42.2 24.1 C 42.2 23.2 42.9 22.7 43.6 22.7 C 44.2 22.7 44.9 23.0 45.4 23.8 C 46.2 25.2 47.1 26.8 47.6 28.3 C 47.8 28.9 47.9 29.5 47.9 30.0 C 47.9 31.7 46.7 32.8 44.2 32.8 L 36.6 32.8 C 37.2 35.1 37.8 37.4 38.2 39.2 C 38.5 40.7 37.6 41.5 36.6 41.5 C 35.9 41.5 35.1 40.9 34.9 39.8 C 34.1 35.1 32.4 29.0 30.3 25.0 C 30.1 24.5 30.0 24.1 30.0 23.7 C 30.0 22.8 30.6 22.2 31.4 22.2 C 32.0 22.2 32.7 22.6 33.1 23.5 C 34.0 25.2 34.9 27.5 35.7 29.9 Z " transform="scale(1,-1)" stroke-dasharray="79.78939843826896" stroke-dashoffset="79.78939843826896"><animate attributeName="stroke-dashoffset" from="79.78939843826896" to="0" dur="2.393681953148069s" begin="anim1.end" fill="freeze" id="anim2" /></path><path d="M 10.1 6.6 C 8.3 4.1 6.1 1.8 3.9 0.2 C 3.2 -0.2 3.0 -0.8 3.0 -1.4 C 3.0 -2.2 3.6 -2.9 4.5 -2.9 C 5.0 -2.9 5.5 -2.7 6.0 -2.4 C 8.3 -0.7 11.2 2.2 12.9 4.5 C 13.2 5.0 13.4 5.5 13.4 5.9 C 13.4 6.9 12.6 7.5 11.7 7.5 C 11.1 7.5 10.5 7.2 10.1 6.6 Z " transform="scale(1,-1)" stroke-dasharray="30.662995947285776" stroke-dashoffset="30.662995947285776"><animate attributeName="stroke-dashoffset" from="30.662995947285776" to="0" dur="0.9198898784185733s" begin="anim2.end" fill="freeze" id="anim3" /></path><path d="M 21.8 7.6 C 21.4 7.9 21.0 8.0 20.6 8.0 C 19.7 8.0 18.9 7.2 18.9 6.4 C 18.9 5.9 19.2 5.4 19.8 5.0 C 21.0 4.2 23.2 2.2 24.2 1.1 C 24.7 0.5 25.2 0.3 25.7 0.3 C 26.6 0.3 27.5 1.1 27.5 2.1 C 27.5 2.6 27.2 3.1 26.7 3.7 C 25.6 4.7 23.2 6.7 21.8 7.6 Z" transform="scale(1,-1)" stroke-dasharray="24.13940028280348" stroke-dashoffset="24.13940028280348"><animate attributeName="stroke-dashoffset" from="24.13940028280348" to="0" dur="0.7241820084841043s" begin="anim3.end" fill="freeze" id="anim_end" /></path></g></svg>