<?xml version='1.0' encoding='utf-8'?>
<svg viewBox="0 -44.0 50.0 50.0" version="1.1" xmlns="http://www.w3.org/2000/svg"><rect x="-1000" y="-1000" width="2000" height="2000" stroke="white" fill="white" /><g style="fill:none;stroke:#000000;stroke-width:1"><path d="M 12.0 23.6 L 9.9 23.6 C 6.7 23.6 5.5 22.4 5.5 19.9 L 5.5 16.1 C 5.5 13.5 6.8 12.2 10.0 12.2 L 17.7 12.2 C 20.9 12.2 22.2 13.5 22.2 16.1 L 22.2 19.9 C 22.2 22.4 21.0 23.6 17.8 23.6 L 15.3 23.6 L 15.3 28.4 L 22.4 28.4 C 23.4 28.4 23.9 29.1 23.9 29.9 C 23.9 30.6 23.4 31.4 22.4 31.4 L 15.3 31.4 L 15.3 36.6 C 17.2 37.0 19.1 37.4 20.7 37.9 C 21.6 38.2 22.0 38.8 22.0 39.5 C 22.0 40.2 21.4 41.1 20.3 41.1 C 20.1 41.1 19.9 41.0 19.7 41.0 C 15.6 39.7 10.4 38.7 6.1 38.4 C 5.0 38.2 4.5 37.6 4.5 36.8 C 4.5 36.0 5.2 35.1 6.4 35.2 C 8.2 35.4 10.1 35.6 12.0 36.0 L 12.0 31.4 L 4.0 31.4 C 3.1 31.4 2.6 30.6 2.6 29.9 C 2.6 29.1 3.1 28.4 4.0 28.4 L 12.0 28.4 Z " transform="scale(1,-1)" stroke-dasharray="141.67813981391052" stroke-dashoffset="141.67813981391052"><animate attributeName="stroke-dashoffset" from="141.67813981391052" to="0" dur="4.250344194417315s" begin="0s; 15s; 30s; 45s; 60s" fill="freeze" id="anim0" /></path><path d="M 10.7 15.1 C 9.2 15.1 8.8 15.4 8.8 16.6 L 8.8 19.4 C 8.8 20.6 9.2 20.9 10.7 20.9 L 17.1 20.9 C 18.4 20.9 18.9 20.6 18.9 19.4 L 18.9 16.6 C 18.9 15.2 18.2 15.1 17.1 15.1 Z " transform="scale(1,-1)" stroke-dasharray="29.68275239365988" stroke-dashoffset="29.68275239365988"><animate attributeName="stroke-dashoffset" from="29.68275239365988" to="0" dur="0.8904825718097963s" begin="anim0.end" fill="freeze" id="anim1" /></path><path d="M 27.8 31.5 L 27.8 16.0 C 27.8 13.1 29.2 12.1 32.1 12.1 L 38.5 12.1 C 41.3 12.1 42.8 13.1 42.8 16.0 L 42.8 31.5 L 46.6 31.5 C 47.5 31.5 48.0 32.2 48.0 33.0 C 48.0 33.7 47.5 34.5 46.6 34.5 L 42.8 34.5 L 42.8 39.5 C 42.8 40.5 41.9 41.0 41.1 41.0 C 40.2 41.0 39.4 40.5 39.4 39.5 L 39.4 34.5 L 31.2 34.5 L 31.2 39.5 C 31.2 40.5 30.4 41.0 29.5 41.0 C 28.7 41.0 27.8 40.5 27.8 39.5 L 27.8 34.5 L 24.9 34.5 C 24.0 34.5 23.5 33.7 23.5 33.0 C 23.5 32.2 24.0 31.5 24.9 31.5 Z " transform="scale(1,-1)" stroke-dasharray="111.79326209797564" stroke-dashoffset="111.79326209797564"><animate attributeName="stroke-dashoffset" from="111.79326209797564" to="0" dur="3.353797862939269s" begin="anim1.end" fill="freeze" id="anim2" /></path><path d="M 31.2 31.5 L 39.4 31.5 L 39.4 25.2 L 31.2 25.2 Z " transform="scale(1,-1)" stroke-dasharray="29.0" stroke-dashoffset="29.0"><animate attributeName="stroke-dashoffset" from="29.0" to="0" dur="0.87s" begin="anim2.end" fill="freeze" id="anim3" /></path><path d="M 31.2 22.2 L 39.4 22.2 L 39.4 16.6 C 39.4 15.5 39.0 15.1 37.9 15.1 L 32.7 15.1 C 31.6 15.1 31.2 15.4 31.2 16.6 Z " transform="scale(1,-1)" stroke-dasharray="29.593458505791823" stroke-dashoffset="29.593458505791823"><animate attributeName="stroke-dashoffset" from="29.593458505791823" to="0" dur="0.8878037551737546s" begin="anim3.end" fill="freeze" id="anim4" /></path><path d="M 14.4 0.9 C 14.4 -2.3 15.8 -3.2 24.7 -3.2 C 34.1 -3.2 36.5 -1.8 37.0 3.1 C 37.1 4.2 36.2 5.0 35.2 5.0 C 34.5 5.0 33.6 4.5 33.6 3.5 C 33.2 0.4 32.3 -0.2 24.7 -0.2 C 18.5 -0.2 18.0 0.2 18.0 1.8 L 18.0 7.9 C 18.0 9.0 17.1 9.5 16.2 9.5 C 15.3 9.5 14.4 9.0 14.4 7.9 Z " transform="scale(1,-1)" stroke-dasharray="70.84391894195912" stroke-dashoffset="70.84391894195912"><animate attributeName="stroke-dashoffset" from="70.84391894195912" to="0" dur="2.1253175682587733s" begin="anim4.end" fill="freeze" id="anim5" /></path><path d="M 7.2 7.2 C 6.4 5.1 5.2 3.2 4.0 1.7 C 3.6 1.2 3.5 0.8 3.5 0.4 C 3.5 -0.6 4.2 -1.2 5.2 -1.2 C 5.7 -1.2 6.3 -1.0 6.8 -0.4 C 8.1 1.2 9.5 3.6 10.4 5.8 C 10.6 6.1 10.6 6.4 10.6 6.7 C 10.6 7.7 9.8 8.3 8.9 8.3 C 8.2 8.3 7.6 8.0 7.2 7.2 Z " transform="scale(1,-1)" stroke-dasharray="25.182007540323873" stroke-dashoffset="25.182007540323873"><animate attributeName="stroke-dashoffset" from="25.182007540323873" to="0" dur="0.7554602262097162s" begin="anim5.end" fill="freeze" id="anim6" /></path><path d="M 41.5 8.3 C 41.0 8.8 40.4 9.0 40.0 9.0 C 39.0 9.0 38.2 8.2 38.2 7.4 C 38.2 7.1 38.4 6.6 38.8 6.2 C 40.2 4.8 41.8 2.9 42.7 1.3 C 43.2 0.6 43.9 0.2 44.5 0.2 C 45.4 0.2 46.2 1.0 46.2 2.0 C 46.2 2.4 46.1 2.9 45.8 3.4 C 44.7 5.0 42.9 7.0 41.5 8.3 Z " transform="scale(1,-1)" stroke-dasharray="24.931867124690193" stroke-dashoffset="24.931867124690193"><animate attributeName="stroke-dashoffset" from="24.931867124690193" to="0" dur="0.7479560137407057s" begin="anim6.end" fill="freeze" id="anim7" /></path><path d="M 24.5 10.6 C 24.0 10.9 23.6 11.0 23.2 11.0 C 22.2 11.0 21.6 10.3 21.6 9.6 C 21.6 9.1 21.8 8.6 22.4 8.2 C 23.4 7.4 24.7 6.2 25.8 5.1 C 26.2 4.7 26.6 4.5 27.1 4.5 C 28.0 4.5 28.8 5.2 28.8 6.2 C 28.8 6.6 28.6 7.1 28.2 7.6 C 27.1 8.7 25.7 9.8 24.5 10.6 Z" transform="scale(1,-1)" stroke-dasharray="20.503705654716377" stroke-dashoffset="20.503705654716377"><animate attributeName="stroke-dashoffset" from="20.503705654716377" to="0" dur="0.6151111696414913s" begin="anim7.end" fill="freeze" id="anim_end" /></path></g></svg>