<?xml version='1.0' encoding='utf-8'?>
<svg viewBox="0 -44.0 50.0 50.0" version="1.1" xmlns="http://www.w3.org/2000/svg"><rect x="-1000" y="-1000" width="2000" height="2000" stroke="white" fill="white" /><g style="fill:none;stroke:#000000;stroke-width:1"><path d="M 46.5 23.0 C 47.5 23.0 48.0 23.8 48.0 24.6 C 48.0 25.4 47.5 26.1 46.5 26.1 L 37.9 26.1 C 40.7 29.5 43.2 33.0 45.1 36.5 C 45.4 36.9 45.5 37.2 45.5 37.6 C 45.5 38.7 44.6 39.4 43.6 39.4 C 43.0 39.4 42.4 39.1 42.1 38.4 C 39.6 34.0 36.6 29.9 33.4 26.1 L 31.0 26.1 L 31.0 32.0 L 35.8 32.0 C 36.8 32.0 37.2 32.8 37.2 33.6 C 37.2 34.4 36.8 35.1 35.8 35.1 L 31.0 35.1 L 31.0 40.3 C 31.0 41.4 30.1 41.9 29.2 41.9 C 28.4 41.9 27.5 41.4 27.5 40.3 L 27.5 35.1 L 21.5 35.1 C 20.6 35.1 20.1 34.4 20.1 33.6 C 20.1 32.8 20.6 32.0 21.5 32.0 L 27.5 32.0 L 27.5 26.1 L 18.9 26.1 C 17.9 26.1 17.4 25.4 17.4 24.6 C 17.4 23.8 17.9 23.0 18.9 23.0 L 30.5 23.0 C 26.4 18.9 21.9 15.2 17.2 12.4 C 16.5 12.0 16.2 11.4 16.2 10.8 C 16.2 10.0 16.9 9.3 17.8 9.3 C 18.1 9.3 18.4 9.4 18.9 9.7 C 20.7 10.8 22.6 12.0 24.4 13.4 C 24.2 12.7 24.1 12.1 24.1 11.4 L 24.1 1.1 C 24.2 -2.1 25.9 -3.3 28.9 -3.4 L 38.7 -3.4 C 42.1 -3.4 43.5 -1.5 43.5 1.1 L 43.5 11.4 C 43.5 13.9 42.1 15.8 38.7 15.8 L 28.9 15.8 C 28.4 15.8 27.9 15.8 27.3 15.7 C 30.1 17.9 32.6 20.4 35.1 23.0 Z " transform="scale(1,-1)" stroke-dasharray="250.81919266901193" stroke-dashoffset="250.81919266901193"><animate attributeName="stroke-dashoffset" from="250.81919266901193" to="0" dur="7.524575780070357s" begin="0s; 15s; 30s; 45s; 60s" fill="freeze" id="anim0" /></path><path d="M 29.7 -0.4 C 28.0 -0.4 27.5 0.2 27.5 1.5 L 27.5 5.0 L 40.0 5.0 L 40.0 1.5 C 40.0 0.0 39.2 -0.4 37.8 -0.4 Z " transform="scale(1,-1)" stroke-dasharray="34.37254786472874" stroke-dashoffset="34.37254786472874"><animate attributeName="stroke-dashoffset" from="34.37254786472874" to="0" dur="1.031176435941862s" begin="anim0.end" fill="freeze" id="anim1" /></path><path d="M 40.0 8.0 L 27.5 8.0 L 27.5 10.9 C 27.5 12.2 28.0 12.8 29.7 12.8 L 37.8 12.8 C 39.5 12.8 40.0 12.2 40.0 10.9 Z " transform="scale(1,-1)" stroke-dasharray="33.18742245408346" stroke-dashoffset="33.18742245408346"><animate attributeName="stroke-dashoffset" from="33.18742245408346" to="0" dur="0.9956226736225038s" begin="anim1.end" fill="freeze" id="anim2" /></path><path d="M 8.4 27.6 C 6.9 21.1 4.5 14.9 1.6 10.5 C 1.2 10.1 1.2 9.7 1.2 9.3 C 1.2 8.5 1.8 7.9 2.6 7.9 C 3.1 7.9 3.7 8.2 4.1 8.8 C 6.1 11.9 7.9 15.8 9.2 19.7 L 8.9 9.3 L 8.9 -2.6 C 8.9 -3.6 9.8 -4.1 10.6 -4.1 C 11.4 -4.1 12.2 -3.6 12.2 -2.6 L 12.2 19.5 C 13.5 18.5 14.7 17.3 15.6 16.2 C 16.1 15.7 16.6 15.5 17.0 15.5 C 17.9 15.5 18.6 16.2 18.6 17.1 C 18.6 17.6 18.4 18.1 17.9 18.6 C 16.3 20.2 14.4 21.7 12.2 23.0 L 12.2 27.6 L 16.3 27.6 C 17.2 27.6 17.7 28.3 17.7 29.1 C 17.7 29.9 17.2 30.6 16.3 30.6 L 12.2 30.6 L 12.2 40.4 C 12.2 41.4 11.4 41.9 10.6 41.9 C 9.8 41.9 8.9 41.4 8.9 40.4 L 8.9 30.6 L 3.6 30.6 C 2.7 30.6 2.2 29.9 2.2 29.1 C 2.2 28.3 2.7 27.6 3.6 27.6 Z " transform="scale(1,-1)" stroke-dasharray="159.77986179475818" stroke-dashoffset="159.77986179475818"><animate attributeName="stroke-dashoffset" from="159.77986179475818" to="0" dur="4.793395853842745s" begin="anim2.end" fill="freeze" id="anim3" /></path><path d="M 37.5 21.9 C 37.1 22.1 36.7 22.2 36.4 22.2 C 35.6 22.2 35.0 21.6 35.0 20.9 C 35.0 20.5 35.1 20.0 35.6 19.6 C 36.5 18.9 37.5 17.9 38.4 16.9 C 38.7 16.6 39.1 16.4 39.5 16.4 C 40.3 16.4 41.1 17.1 41.1 17.9 C 41.1 18.4 40.9 18.8 40.5 19.2 C 39.7 20.1 38.6 21.1 37.5 21.9 Z" transform="scale(1,-1)" stroke-dasharray="17.820890327320047" stroke-dashoffset="17.820890327320047"><animate attributeName="stroke-dashoffset" from="17.820890327320047" to="0" dur="0.5346267098196014s" begin="anim3.end" fill="freeze" id="anim_end" /></path></g></svg>