<?xml version='1.0' encoding='utf-8'?>
<svg viewBox="0 -44.0 50.0 50.0" version="1.1" xmlns="http://www.w3.org/2000/svg"><rect x="-1000" y="-1000" width="2000" height="2000" stroke="white" fill="white" /><g style="fill:none;stroke:#000000;stroke-width:1"><path d="M 38.8 27.0 C 42.2 27.0 43.5 28.5 43.5 31.0 L 43.5 36.7 C 43.5 39.2 42.1 40.7 38.6 40.7 L 25.0 40.7 C 21.5 40.7 20.1 39.2 20.1 36.7 L 20.1 31.0 C 20.1 28.5 21.2 27.0 24.8 27.0 L 25.4 27.0 L 25.4 23.9 L 20.4 23.9 C 19.5 23.9 19.1 23.2 19.1 22.4 C 19.1 21.7 19.5 21.0 20.4 21.0 L 25.4 21.0 L 25.4 17.6 L 18.1 17.6 C 17.2 17.6 16.8 16.9 16.8 16.2 C 16.8 15.5 17.2 14.8 18.1 14.8 L 24.1 14.8 C 21.9 12.0 19.1 9.5 16.5 8.0 C 15.8 7.5 15.5 7.0 15.5 6.5 C 15.5 5.7 16.2 5.0 17.1 5.0 C 17.4 5.0 17.8 5.1 18.2 5.4 C 19.9 6.5 21.7 7.9 23.4 9.5 L 23.4 9.3 C 23.4 9.0 23.6 8.7 23.9 8.3 C 24.5 7.7 25.2 6.9 25.8 6.1 C 26.1 5.7 26.5 5.5 26.9 5.5 C 27.7 5.5 28.5 6.1 28.5 7.0 C 28.5 7.3 28.4 7.7 28.1 8.1 C 27.6 8.8 26.8 9.6 26.1 10.3 C 25.7 10.6 25.4 10.7 25.0 10.7 C 24.9 10.7 24.7 10.7 24.6 10.7 C 25.8 12.0 27.0 13.4 28.0 14.8 L 35.9 14.8 C 36.8 13.5 37.9 12.2 39.0 11.1 C 38.8 11.2 38.6 11.2 38.4 11.2 C 37.9 11.2 37.5 11.1 37.1 10.6 C 36.5 9.6 36.0 9.1 35.1 8.2 C 34.9 8.0 34.8 7.7 34.8 7.4 C 34.8 6.6 35.5 5.9 36.2 5.9 C 36.6 5.9 36.9 6.0 37.2 6.3 C 38.1 7.1 38.8 7.9 39.6 8.8 C 39.8 9.2 39.9 9.5 39.9 9.8 C 39.9 10.0 39.9 10.2 39.8 10.4 C 41.7 8.6 43.9 7.0 45.9 6.0 C 46.2 5.8 46.6 5.8 46.9 5.8 C 47.9 5.8 48.6 6.5 48.6 7.4 C 48.6 8.0 48.2 8.7 47.2 9.1 C 44.5 10.4 41.6 12.5 39.5 14.8 L 46.5 14.8 C 47.4 14.8 47.9 15.5 47.9 16.2 C 47.9 16.9 47.4 17.6 46.5 17.6 L 37.7 17.6 L 37.7 21.0 L 43.7 21.0 C 44.6 21.0 45.1 21.7 45.1 22.4 C 45.1 23.2 44.6 23.9 43.7 23.9 L 37.7 23.9 L 37.7 27.0 Z " transform="scale(1,-1)" stroke-dasharray="229.11786438025356" stroke-dashoffset="229.11786438025356"><animate attributeName="stroke-dashoffset" from="229.11786438025356" to="0" dur="6.8735359314076065s" begin="0s; 15s; 30s; 45s; 60s" fill="freeze" id="anim0" /></path><path d="M 25.7 29.8 C 23.8 29.8 23.4 30.2 23.4 31.4 L 23.4 32.6 L 40.2 32.6 L 40.2 31.4 C 40.1 29.8 39.2 29.9 37.9 29.8 Z " transform="scale(1,-1)" stroke-dasharray="37.94269994607233" stroke-dashoffset="37.94269994607233"><animate attributeName="stroke-dashoffset" from="37.94269994607233" to="0" dur="1.1382809983821698s" begin="anim0.end" fill="freeze" id="anim1" /></path><path d="M 40.2 35.2 L 23.4 35.2 L 23.4 36.4 C 23.4 37.5 23.8 37.9 25.7 37.9 L 37.9 37.9 C 39.8 37.9 40.2 37.5 40.2 36.4 Z " transform="scale(1,-1)" stroke-dasharray="37.82911417019771" stroke-dashoffset="37.82911417019771"><animate attributeName="stroke-dashoffset" from="37.82911417019771" to="0" dur="1.1348734251059314s" begin="anim1.end" fill="freeze" id="anim2" /></path><path d="M 28.6 27.0 L 34.5 27.0 L 34.5 23.9 L 28.6 23.9 Z " transform="scale(1,-1)" stroke-dasharray="18.0" stroke-dashoffset="18.0"><animate attributeName="stroke-dashoffset" from="18.0" to="0" dur="0.54s" begin="anim2.end" fill="freeze" id="anim3" /></path><path d="M 28.6 17.6 L 28.6 21.0 L 34.5 21.0 L 34.5 17.6 Z " transform="scale(1,-1)" stroke-dasharray="18.599999999999994" stroke-dashoffset="18.599999999999994"><animate attributeName="stroke-dashoffset" from="18.599999999999994" to="0" dur="0.5579999999999998s" begin="anim3.end" fill="freeze" id="anim4" /></path><path d="M 10.9 3.9 C 14.0 3.9 15.3 5.3 15.3 8.5 L 15.3 34.4 C 15.3 37.5 14.0 38.9 10.9 38.9 L 7.5 38.9 C 4.4 38.9 3.0 37.5 3.0 34.4 L 3.0 8.5 C 3.1 5.4 4.3 4.0 7.5 3.9 Z " transform="scale(1,-1)" stroke-dasharray="87.99671100251638" stroke-dashoffset="87.99671100251638"><animate attributeName="stroke-dashoffset" from="87.99671100251638" to="0" dur="2.6399013300754914s" begin="anim4.end" fill="freeze" id="anim5" /></path><path d="M 7.9 7.0 C 6.8 7.0 6.5 7.3 6.5 8.8 L 6.5 20.8 L 11.9 20.8 L 11.9 8.8 C 11.9 7.6 11.7 7.0 10.4 7.0 Z " transform="scale(1,-1)" stroke-dasharray="37.384784936022704" stroke-dashoffset="37.384784936022704"><animate attributeName="stroke-dashoffset" from="37.384784936022704" to="0" dur="1.121543548080681s" begin="anim5.end" fill="freeze" id="anim6" /></path><path d="M 11.9 23.9 L 6.5 23.9 L 6.5 34.0 C 6.5 35.5 6.9 35.8 8.0 35.8 L 10.4 35.8 C 11.5 35.8 11.9 35.5 11.9 34.0 Z " transform="scale(1,-1)" stroke-dasharray="33.55839280345921" stroke-dashoffset="33.55839280345921"><animate attributeName="stroke-dashoffset" from="33.55839280345921" to="0" dur="1.0067517841037763s" begin="anim6.end" fill="freeze" id="anim7" /></path><path d="M 33.3 11.7 C 33.3 12.7 32.5 13.2 31.7 13.2 C 30.9 13.2 30.1 12.7 30.1 11.7 L 30.1 0.7 C 30.1 -0.6 29.7 -0.9 28.8 -0.9 C 28.2 -0.9 27.7 -0.9 27.1 -0.7 C 25.9 -0.5 25.1 -1.3 25.1 -2.2 C 25.1 -2.9 25.5 -3.6 26.6 -3.8 C 27.5 -4.0 28.3 -4.0 29.1 -4.0 C 31.9 -4.0 33.3 -2.8 33.3 0.3 Z " transform="scale(1,-1)" stroke-dasharray="46.19905284557991" stroke-dashoffset="46.19905284557991"><animate attributeName="stroke-dashoffset" from="46.19905284557991" to="0" dur="1.385971585367397s" begin="anim7.end" fill="freeze" id="anim8" /></path><path d="M 36.9 4.5 C 36.6 4.7 36.4 4.7 36.1 4.7 C 35.2 4.7 34.6 4.0 34.6 3.2 C 34.6 2.7 34.9 2.1 35.6 1.8 C 37.3 1.0 40.1 -0.5 41.6 -1.7 C 42.0 -2.0 42.4 -2.1 42.8 -2.1 C 43.7 -2.1 44.4 -1.4 44.4 -0.5 C 44.4 0.1 44.1 0.6 43.4 1.1 C 41.5 2.5 39.0 3.7 36.9 4.5 Z " transform="scale(1,-1)" stroke-dasharray="25.12095378903733" stroke-dashoffset="25.12095378903733"><animate attributeName="stroke-dashoffset" from="25.12095378903733" to="0" dur="0.7536286136711199s" begin="anim8.end" fill="freeze" id="anim9" /></path><path d="M 26.5 4.6 C 24.4 3.6 21.4 2.4 19.2 1.7 C 18.3 1.5 17.9 0.8 17.9 0.2 C 17.9 -0.6 18.5 -1.4 19.6 -1.4 C 19.8 -1.4 20.0 -1.4 20.2 -1.2 C 22.6 -0.5 25.7 0.7 27.9 2.0 C 28.5 2.3 28.8 2.9 28.8 3.4 C 28.8 4.1 28.2 4.8 27.2 4.8 C 27.1 4.8 26.8 4.7 26.5 4.6 Z" transform="scale(1,-1)" stroke-dasharray="26.47442174559212" stroke-dashoffset="26.47442174559212"><animate attributeName="stroke-dashoffset" from="26.47442174559212" to="0" dur="0.7942326523677636s" begin="anim9.end" fill="freeze" id="anim_end" /></path></g></svg>