<?xml version='1.0' encoding='utf-8'?>
<svg viewBox="0 -44.0 50.0 50.0" version="1.1" xmlns="http://www.w3.org/2000/svg"><rect x="-1000" y="-1000" width="2000" height="2000" stroke="white" fill="white" /><g style="fill:none;stroke:#000000;stroke-width:1"><path d="M 38.4 14.5 L 44.4 14.5 C 45.4 14.5 45.9 15.2 45.9 16.0 C 45.9 16.8 45.4 17.6 44.4 17.6 L 38.4 17.6 L 38.4 25.2 C 38.4 26.2 37.5 26.8 36.6 26.8 C 35.8 26.8 35.0 26.2 35.0 25.2 L 35.0 17.6 L 29.4 17.6 C 28.4 17.6 27.9 16.8 27.9 16.0 C 27.9 15.2 28.4 14.5 29.4 14.5 L 35.0 14.5 L 35.0 2.2 L 27.4 2.2 C 26.4 2.2 25.9 1.5 25.9 0.7 C 25.9 -0.1 26.4 -0.9 27.4 -0.9 L 46.0 -0.9 C 47.0 -0.9 47.5 -0.1 47.5 0.7 C 47.5 1.5 47.0 2.2 46.0 2.2 L 38.4 2.2 Z " transform="scale(1,-1)" stroke-dasharray="121.396487722708" stroke-dashoffset="121.396487722708"><animate attributeName="stroke-dashoffset" from="121.396487722708" to="0" dur="3.64189463168124s" begin="0s; 15s; 30s; 45s; 60s" fill="freeze" id="anim0" /></path><path d="M 19.1 34.0 C 18.1 34.0 17.6 33.2 17.6 32.4 C 17.6 31.6 18.1 30.8 19.1 30.8 L 25.9 30.8 C 25.0 28.5 23.9 26.4 22.8 24.2 C 22.6 24.3 22.2 24.4 22.0 24.4 C 21.1 24.4 20.2 23.8 20.2 22.8 L 20.2 19.9 C 18.7 17.4 16.9 15.2 15.1 13.1 C 14.7 12.6 14.6 12.2 14.6 11.7 C 14.6 10.9 15.2 10.2 16.1 10.2 C 16.5 10.2 17.0 10.4 17.4 10.9 C 18.4 12.0 19.4 13.1 20.2 14.2 L 20.2 -2.0 C 20.2 -3.1 21.1 -3.6 22.0 -3.6 C 22.8 -3.6 23.7 -3.1 23.7 -2.0 L 23.7 19.1 C 26.0 22.8 28.0 26.8 29.6 30.8 L 46.2 30.8 C 47.2 30.8 47.8 31.6 47.8 32.4 C 47.8 33.2 47.2 34.0 46.2 34.0 L 30.8 34.0 C 31.5 35.9 32.0 37.8 32.5 39.6 C 32.8 41.1 31.7 41.9 30.7 41.9 C 29.9 41.9 29.1 41.5 28.9 40.5 C 28.4 38.3 27.8 36.1 27.1 34.0 Z " transform="scale(1,-1)" stroke-dasharray="162.93740191703932" stroke-dashoffset="162.93740191703932"><animate attributeName="stroke-dashoffset" from="162.93740191703932" to="0" dur="4.88812205751118s" begin="anim0.end" fill="freeze" id="anim1" /></path><path d="M 11.5 40.4 C 11.5 41.5 10.6 42.0 9.8 42.0 C 8.9 42.0 8.1 41.5 8.1 40.4 L 8.1 -2.4 C 8.1 -3.4 8.9 -3.9 9.8 -3.9 C 10.6 -3.9 11.5 -3.4 11.5 -2.4 Z " transform="scale(1,-1)" stroke-dasharray="95.93160652090666" stroke-dashoffset="95.93160652090666"><animate attributeName="stroke-dashoffset" from="95.93160652090666" to="0" dur="2.8779481956271997s" begin="anim1.end" fill="freeze" id="anim2" /></path><path d="M 3.4 29.6 C 3.1 27.2 2.5 24.4 1.9 22.8 C 1.8 22.5 1.7 22.2 1.7 22.0 C 1.7 21.1 2.4 20.6 3.1 20.6 C 3.7 20.6 4.4 21.0 4.7 21.9 C 5.5 23.6 6.1 26.7 6.4 29.2 C 6.5 30.4 5.7 31.0 4.9 31.0 C 4.2 31.0 3.5 30.6 3.4 29.6 Z " transform="scale(1,-1)" stroke-dasharray="24.681527344173453" stroke-dashoffset="24.681527344173453"><animate attributeName="stroke-dashoffset" from="24.681527344173453" to="0" dur="0.7404458203252036s" begin="anim2.end" fill="freeze" id="anim3" /></path><path d="M 15.4 31.0 C 15.0 31.5 14.5 31.8 14.0 31.8 C 13.2 31.8 12.6 31.2 12.6 30.5 C 12.6 30.2 12.7 29.9 12.9 29.6 C 13.4 28.7 14.1 26.8 14.5 25.5 C 14.8 24.6 15.4 24.2 16.0 24.2 C 16.7 24.2 17.4 24.8 17.4 25.8 C 17.4 26.1 17.4 26.3 17.3 26.6 C 16.9 27.9 16.1 29.7 15.4 31.0 Z" transform="scale(1,-1)" stroke-dasharray="19.26266087507788" stroke-dashoffset="19.26266087507788"><animate attributeName="stroke-dashoffset" from="19.26266087507788" to="0" dur="0.5778798262523364s" begin="anim3.end" fill="freeze" id="anim_end" /></path></g></svg>