<?xml version='1.0' encoding='utf-8'?>
<svg viewBox="0 -44.0 50.0 50.0" version="1.1" xmlns="http://www.w3.org/2000/svg"><rect x="-1000" y="-1000" width="2000" height="2000" stroke="white" fill="white" /><g style="fill:none;stroke:#000000;stroke-width:1"><path d="M 31.9 31.7 L 40.6 31.7 C 42.2 31.7 42.9 31.5 42.9 30.5 L 42.9 29.4 C 42.9 28.4 43.7 27.8 44.6 27.8 C 45.4 27.8 46.2 28.4 46.2 29.4 L 46.2 30.8 C 46.2 33.2 44.9 34.5 41.2 34.5 L 32.9 34.5 L 32.9 36.6 L 42.2 36.6 C 43.2 36.6 43.7 37.2 43.7 38.0 C 43.7 38.7 43.2 39.4 42.2 39.4 L 32.9 39.4 L 32.9 40.8 C 32.9 41.8 32.1 42.2 31.2 42.2 C 30.4 42.2 29.6 41.8 29.6 40.8 L 29.6 34.5 L 23.6 34.5 C 19.9 34.5 18.5 32.6 18.5 29.9 L 18.5 23.5 C 18.5 11.9 17.0 5.2 14.1 -0.2 C 13.8 -0.6 13.7 -1.0 13.7 -1.3 C 13.7 -2.2 14.5 -2.8 15.3 -2.8 C 16.0 -2.8 16.6 -2.5 17.1 -1.7 C 20.2 4.1 22.0 11.4 22.0 23.4 L 22.0 29.4 C 22.0 31.0 22.6 31.7 24.2 31.7 L 28.9 31.7 L 28.9 29.2 L 25.2 28.8 C 24.5 28.7 24.2 28.1 24.2 27.5 C 24.2 26.8 24.6 26.0 25.5 26.1 L 28.9 26.5 L 28.9 25.7 C 28.9 22.9 30.1 22.4 35.4 22.4 C 41.6 22.4 42.7 23.4 43.2 26.1 C 43.4 27.1 42.6 27.6 41.7 27.6 C 41.1 27.6 40.5 27.3 40.4 26.6 C 40.1 25.4 39.6 25.0 35.4 25.0 C 32.2 25.0 31.9 25.2 31.9 26.2 L 31.9 26.9 L 38.5 27.6 C 39.2 27.7 39.7 28.4 39.7 29.0 C 39.7 29.6 39.2 30.3 38.2 30.2 L 31.9 29.5 Z " transform="scale(1,-1)" stroke-dasharray="230.1446357831117" stroke-dashoffset="230.1446357831117"><animate attributeName="stroke-dashoffset" from="230.1446357831117" to="0" dur="6.904339073493351s" begin="0s; 15s; 30s; 45s; 60s" fill="freeze" id="anim0" /></path><path d="M 23.5 -0.2 L 21.1 -0.2 C 20.1 -0.2 19.6 -1.0 19.6 -1.7 C 19.6 -2.4 20.1 -3.1 21.1 -3.1 L 46.9 -3.1 C 47.8 -3.1 48.2 -2.4 48.2 -1.7 C 48.2 -1.0 47.8 -0.2 46.9 -0.2 L 45.2 -0.2 L 45.2 3.2 C 45.2 5.6 44.0 6.8 41.0 6.8 L 27.7 6.8 C 24.7 6.8 23.5 5.6 23.5 3.2 Z " transform="scale(1,-1)" stroke-dasharray="71.80628028450876" stroke-dashoffset="71.80628028450876"><animate attributeName="stroke-dashoffset" from="71.80628028450876" to="0" dur="2.1541884085352625s" begin="anim0.end" fill="freeze" id="anim1" /></path><path d="M 38.5 4.2 L 40.6 4.2 C 41.8 4.2 42.2 3.9 42.2 2.8 L 42.2 -0.2 L 38.5 -0.2 Z " transform="scale(1,-1)" stroke-dasharray="15.711884153683151" stroke-dashoffset="15.711884153683151"><animate attributeName="stroke-dashoffset" from="15.711884153683151" to="0" dur="0.4713565246104945s" begin="anim1.end" fill="freeze" id="anim2" /></path><path d="M 35.8 4.2 L 35.8 -0.2 L 32.5 -0.2 L 32.5 4.2 Z " transform="scale(1,-1)" stroke-dasharray="15.399999999999995" stroke-dashoffset="15.399999999999995"><animate attributeName="stroke-dashoffset" from="15.399999999999995" to="0" dur="0.46199999999999986s" begin="anim2.end" fill="freeze" id="anim3" /></path><path d="M 29.8 4.2 L 29.8 -0.2 L 26.5 -0.2 L 26.5 2.8 C 26.5 3.9 26.9 4.2 28.1 4.2 Z " transform="scale(1,-1)" stroke-dasharray="14.911884153683149" stroke-dashoffset="14.911884153683149"><animate attributeName="stroke-dashoffset" from="14.911884153683149" to="0" dur="0.44735652461049447s" begin="anim3.end" fill="freeze" id="anim4" /></path><path d="M 39.8 8.7 C 43.1 8.7 44.3 9.8 44.3 12.2 L 44.3 17.1 C 44.3 19.6 43.1 20.7 39.8 20.7 L 29.4 20.7 C 26.2 20.7 24.9 19.6 24.9 17.1 L 24.9 12.2 C 25.0 9.3 26.8 8.7 29.4 8.7 Z " transform="scale(1,-1)" stroke-dasharray="57.09610555119275" stroke-dashoffset="57.09610555119275"><animate attributeName="stroke-dashoffset" from="57.09610555119275" to="0" dur="1.7128831665357824s" begin="anim4.end" fill="freeze" id="anim5" /></path><path d="M 41.4 13.5 L 41.4 12.7 C 41.4 11.6 41.0 11.2 39.2 11.2 L 35.8 11.2 L 35.8 13.5 Z " transform="scale(1,-1)" stroke-dasharray="15.221936623277337" stroke-dashoffset="15.221936623277337"><animate attributeName="stroke-dashoffset" from="15.221936623277337" to="0" dur="0.4566580986983201s" begin="anim5.end" fill="freeze" id="anim6" /></path><path d="M 41.4 15.9 L 35.8 15.9 L 35.8 18.2 L 39.2 18.2 C 41.0 18.2 41.4 17.8 41.4 16.7 Z " transform="scale(1,-1)" stroke-dasharray="15.221936623277333" stroke-dashoffset="15.221936623277333"><animate attributeName="stroke-dashoffset" from="15.221936623277333" to="0" dur="0.45665809869831997s" begin="anim6.end" fill="freeze" id="anim7" /></path><path d="M 33.0 18.2 L 33.0 15.9 L 27.9 15.9 L 27.9 16.7 C 27.9 17.8 28.2 18.2 30.0 18.2 Z " transform="scale(1,-1)" stroke-dasharray="14.25287914192933" stroke-dashoffset="14.25287914192933"><animate attributeName="stroke-dashoffset" from="14.25287914192933" to="0" dur="0.4275863742578799s" begin="anim7.end" fill="freeze" id="anim8" /></path><path d="M 27.9 13.5 L 33.0 13.5 L 33.0 11.2 L 30.0 11.2 C 28.2 11.2 27.9 11.6 27.9 12.7 Z " transform="scale(1,-1)" stroke-dasharray="14.252879141929334" stroke-dashoffset="14.252879141929334"><animate attributeName="stroke-dashoffset" from="14.252879141929334" to="0" dur="0.42758637425788s" begin="anim8.end" fill="freeze" id="anim9" /></path><path d="M 7.7 27.8 C 6.4 21.2 4.1 15.2 1.4 10.9 C 1.2 10.5 1.1 10.1 1.1 9.7 C 1.1 8.9 1.7 8.3 2.4 8.3 C 2.9 8.3 3.5 8.7 3.9 9.3 C 5.7 12.3 7.2 16.0 8.4 19.7 L 8.2 9.5 L 8.2 -2.8 C 8.2 -3.8 9.0 -4.2 9.8 -4.2 C 10.6 -4.2 11.4 -3.8 11.4 -2.8 L 11.4 19.7 C 12.4 18.7 13.3 17.6 14.0 16.6 C 14.4 15.9 15.0 15.7 15.5 15.7 C 16.2 15.7 16.9 16.3 16.9 17.2 C 16.9 17.6 16.8 18.1 16.4 18.6 C 15.1 20.2 13.2 22.0 11.4 23.4 L 11.4 27.8 L 15.4 27.8 C 16.3 27.8 16.8 28.5 16.8 29.2 C 16.8 30.0 16.3 30.8 15.4 30.8 L 11.4 30.8 L 11.4 40.5 C 11.4 41.5 10.6 42.0 9.8 42.0 C 9.0 42.0 8.2 41.5 8.2 40.5 L 8.2 30.8 L 3.2 30.8 C 2.2 30.8 1.8 30.0 1.8 29.2 C 1.8 28.5 2.2 27.8 3.2 27.8 Z" transform="scale(1,-1)" stroke-dasharray="156.59242396416408" stroke-dashoffset="156.59242396416408"><animate attributeName="stroke-dashoffset" from="156.59242396416408" to="0" dur="4.697772718924923s" begin="anim9.end" fill="freeze" id="anim_end" /></path></g></svg>