<?xml version='1.0' encoding='utf-8'?>
<svg viewBox="0 -44.0 50.0 50.0" version="1.1" xmlns="http://www.w3.org/2000/svg"><rect x="-1000" y="-1000" width="2000" height="2000" stroke="white" fill="white" /><g style="fill:none;stroke:#000000;stroke-width:1"><path d="M 27.5 38.7 L 27.5 41.3 C 27.5 42.2 26.7 42.8 25.8 42.8 C 24.9 42.8 24.0 42.2 24.0 41.3 L 24.0 38.7 L 11.5 38.7 C 7.2 38.7 5.8 36.8 5.8 33.7 L 5.8 26.3 C 5.8 14.9 4.2 7.2 1.7 2.2 C 1.5 1.8 1.4 1.4 1.4 1.0 C 1.4 0.0 2.1 -0.7 2.9 -0.7 C 3.6 -0.7 4.4 -0.2 4.9 0.8 C 7.5 6.2 9.3 14.4 9.3 25.5 L 9.3 33.2 C 9.3 35.0 9.9 35.7 12.4 35.7 L 45.4 35.7 C 46.3 35.7 46.8 36.5 46.8 37.2 C 46.8 37.9 46.3 38.7 45.4 38.7 Z " transform="scale(1,-1)" stroke-dasharray="163.15441371740638" stroke-dashoffset="163.15441371740638"><animate attributeName="stroke-dashoffset" from="163.15441371740638" to="0" dur="4.894632411522191s" begin="0s; 15s; 30s; 45s; 60s" fill="freeze" id="anim0" /></path><path d="M 18.4 31.2 L 13.0 31.2 C 12.1 31.2 11.6 30.5 11.6 29.8 C 11.6 29.1 12.1 28.4 13.0 28.4 L 17.2 28.4 C 15.4 25.9 13.4 23.9 11.4 22.4 C 10.9 21.9 10.6 21.4 10.6 21.0 C 10.6 20.2 11.2 19.6 12.0 19.6 C 12.3 19.6 12.8 19.8 13.2 20.1 C 15.2 21.8 17.1 23.8 18.6 25.9 L 18.4 22.5 L 18.4 19.4 C 18.4 18.4 19.2 17.9 20.0 17.9 C 20.7 17.9 21.4 18.4 21.4 19.4 L 21.4 24.0 C 22.1 23.6 22.7 23.2 23.7 22.6 C 24.1 22.2 24.5 22.1 24.9 22.1 C 25.6 22.1 26.1 22.7 26.1 23.5 C 26.1 24.0 25.8 24.6 25.2 25.0 C 24.0 25.7 22.9 26.3 21.4 26.9 L 21.4 28.4 L 25.7 28.4 C 26.6 28.4 27.1 29.1 27.1 29.8 C 27.1 30.5 26.6 31.2 25.7 31.2 L 21.4 31.2 L 21.4 33.5 C 21.4 34.5 20.7 34.9 20.0 34.9 C 19.2 34.9 18.4 34.5 18.4 33.5 Z " transform="scale(1,-1)" stroke-dasharray="87.30951623329679" stroke-dashoffset="87.30951623329679"><animate attributeName="stroke-dashoffset" from="87.30951623329679" to="0" dur="2.6192854869989035s" begin="anim0.end" fill="freeze" id="anim1" /></path><path d="M 43.9 28.4 C 44.9 28.4 45.4 29.1 45.4 29.8 C 45.4 30.5 44.9 31.2 43.9 31.2 L 38.1 31.2 L 38.1 33.5 C 38.1 34.5 37.3 34.9 36.6 34.9 C 35.9 34.9 35.1 34.5 35.1 33.5 L 35.1 31.2 L 30.0 31.2 C 29.1 31.2 28.6 30.5 28.6 29.8 C 28.6 29.1 29.1 28.4 30.0 28.4 L 33.6 28.4 C 31.9 26.1 30.0 24.3 27.8 22.8 C 27.2 22.4 27.0 21.9 27.0 21.4 C 27.0 20.7 27.7 20.1 28.4 20.1 C 28.8 20.1 29.2 20.2 29.5 20.5 C 31.6 22.1 33.6 24.0 35.2 26.1 L 35.1 23.1 L 35.1 20.5 C 35.1 19.5 35.9 19.0 36.6 19.0 C 37.3 19.0 38.1 19.5 38.1 20.5 L 38.1 23.1 L 38.0 26.2 C 40.0 23.9 42.7 21.6 45.1 20.1 C 45.4 19.9 45.8 19.8 46.1 19.8 C 47.1 19.8 47.8 20.6 47.8 21.4 C 47.8 22.0 47.4 22.6 46.6 23.0 C 44.3 24.2 41.5 26.2 39.2 28.4 Z " transform="scale(1,-1)" stroke-dasharray="98.91713395251968" stroke-dashoffset="98.91713395251968"><animate attributeName="stroke-dashoffset" from="98.91713395251968" to="0" dur="2.9675140185755904s" begin="anim1.end" fill="freeze" id="anim2" /></path><path d="M 26.7 11.2 L 14.4 11.2 C 13.5 11.2 13.0 10.6 13.0 9.8 C 13.0 9.1 13.5 8.3 14.4 8.3 L 26.7 8.3 L 26.7 5.6 L 10.8 5.6 C 9.9 5.6 9.4 4.9 9.4 4.2 C 9.4 3.5 9.9 2.7 10.8 2.7 L 26.7 2.7 L 26.7 0.7 C 26.7 -0.5 26.2 -0.8 25.2 -0.8 C 24.5 -0.8 23.8 -0.7 23.0 -0.6 C 21.7 -0.4 21.0 -1.2 21.0 -2.1 C 21.0 -2.9 21.4 -3.7 22.5 -3.9 C 23.4 -4.0 24.3 -4.1 25.4 -4.1 C 28.7 -4.1 30.0 -2.8 30.0 0.3 L 30.0 2.7 L 45.7 2.7 C 46.6 2.7 47.1 3.5 47.1 4.2 C 47.1 4.9 46.6 5.6 45.7 5.6 L 30.0 5.6 L 30.0 8.3 L 42.7 8.3 C 43.6 8.3 44.1 9.1 44.1 9.8 C 44.1 10.6 43.6 11.2 42.7 11.2 L 30.0 11.2 L 30.0 14.3 C 33.4 14.6 36.6 15.1 39.5 15.6 C 40.5 15.8 41.0 16.4 41.0 17.1 C 41.0 17.9 40.2 18.8 38.9 18.6 C 32.4 17.4 23.9 16.5 16.3 16.2 C 15.2 16.2 14.7 15.5 14.7 14.8 C 14.7 14.1 15.2 13.3 16.4 13.4 C 19.7 13.5 23.2 13.7 26.7 14.0 Z" transform="scale(1,-1)" stroke-dasharray="220.1817816818807" stroke-dashoffset="220.1817816818807"><animate attributeName="stroke-dashoffset" from="220.1817816818807" to="0" dur="6.60545345045642s" begin="anim2.end" fill="freeze" id="anim_end" /></path></g></svg>