<?xml version='1.0' encoding='utf-8'?>
<svg viewBox="0 -44.0 50.0 50.0" version="1.1" xmlns="http://www.w3.org/2000/svg"><rect x="-1000" y="-1000" width="2000" height="2000" stroke="white" fill="white" /><g style="fill:none;stroke:#000000;stroke-width:1"><path d="M 22.5 12.8 C 21.7 13.9 20.8 15.0 19.9 16.0 C 21.8 19.1 23.1 22.0 24.4 25.3 C 24.5 25.6 24.5 25.8 24.5 26.0 C 24.5 27.0 23.6 27.6 22.8 27.6 C 22.0 27.6 21.3 27.2 21.0 26.3 C 20.1 23.6 18.9 21.0 17.7 18.4 C 17.4 18.7 17.1 18.9 16.8 19.2 C 16.4 19.6 16.0 19.8 15.5 19.8 C 14.7 19.8 13.9 19.0 13.9 18.2 C 13.9 17.7 14.1 17.2 14.6 16.8 C 15.9 15.5 18.2 12.9 20.9 9.4 C 19.6 6.8 18.1 4.3 16.6 1.8 C 15.7 1.8 14.8 1.7 14.1 1.7 C 13.0 1.6 12.5 0.9 12.5 0.2 C 12.5 -0.8 13.2 -1.7 14.3 -1.6 C 17.9 -1.2 22.4 -0.7 27.1 0.2 C 27.2 -0.1 27.2 -0.4 27.3 -0.6 C 27.6 -1.5 28.2 -1.9 28.9 -1.9 C 29.8 -1.9 30.6 -1.2 30.6 -0.2 C 30.6 -0.1 30.6 0.2 30.5 0.4 C 29.8 2.4 28.6 4.9 27.5 6.6 C 27.2 7.1 26.6 7.4 26.1 7.4 C 25.3 7.4 24.6 6.8 24.6 6.0 C 24.6 5.8 24.7 5.5 24.8 5.2 C 25.2 4.5 25.7 3.7 26.0 2.9 C 24.1 2.6 22.2 2.4 20.3 2.1 C 23.3 6.8 26.1 12.2 28.3 17.4 C 28.5 17.7 28.5 17.9 28.5 18.2 C 28.5 19.2 27.7 19.9 26.8 19.9 C 26.1 19.9 25.4 19.5 25.1 18.7 C 24.3 16.8 23.5 14.8 22.5 12.8 Z " transform="scale(1,-1)" stroke-dasharray="130.55085215442656" stroke-dashoffset="130.55085215442656"><animate attributeName="stroke-dashoffset" from="130.55085215442656" to="0" dur="3.916525564632797s" begin="0s; 15s; 30s; 45s; 60s" fill="freeze" id="anim0" /></path><path d="M 39.0 12.9 C 38.1 14.0 37.2 15.0 36.4 16.0 C 38.1 19.2 39.4 22.2 40.5 25.4 C 40.5 25.7 40.6 25.9 40.6 26.1 C 40.6 27.1 39.7 27.7 38.8 27.7 C 38.1 27.7 37.4 27.4 37.1 26.5 C 36.3 23.6 35.1 20.8 34.1 18.3 C 33.9 18.5 33.6 18.7 33.5 18.9 C 33.1 19.2 32.6 19.4 32.2 19.4 C 31.4 19.4 30.6 18.7 30.6 17.8 C 30.6 17.4 30.8 17.0 31.2 16.6 C 32.8 15.1 35.0 12.6 37.4 9.5 C 36.1 7.0 34.8 4.6 33.4 2.2 C 33.1 2.1 32.7 2.1 32.4 2.1 C 31.4 2.0 30.9 1.3 30.9 0.6 C 30.9 -0.4 31.6 -1.3 32.7 -1.2 C 36.2 -0.8 39.9 -0.2 44.0 0.7 C 44.1 0.2 44.2 -0.3 44.4 -0.8 C 44.7 -1.7 45.3 -2.0 46.0 -2.0 C 46.8 -2.0 47.7 -1.4 47.7 -0.3 C 47.7 -0.1 47.6 0.2 47.5 0.5 C 47.0 2.1 45.5 5.1 44.3 6.9 C 43.9 7.5 43.4 7.8 42.9 7.8 C 42.1 7.8 41.4 7.2 41.4 6.5 C 41.4 6.2 41.5 6.0 41.6 5.7 C 42.0 5.0 42.5 4.2 42.9 3.4 C 40.9 3.0 38.9 2.8 37.0 2.5 C 39.7 7.0 42.4 12.3 44.7 17.6 C 44.9 17.9 44.9 18.2 44.9 18.4 C 44.9 19.4 44.1 20.0 43.2 20.0 C 42.5 20.0 41.8 19.7 41.5 18.8 C 40.7 16.9 39.9 14.9 39.0 12.9 Z " transform="scale(1,-1)" stroke-dasharray="127.10545441134016" stroke-dashoffset="127.10545441134016"><animate attributeName="stroke-dashoffset" from="127.10545441134016" to="0" dur="3.8131636323402045s" begin="anim0.end" fill="freeze" id="anim1" /></path><path d="M 36.2 32.6 C 37.5 34.5 38.7 36.5 39.6 38.5 C 39.8 38.8 39.8 39.1 39.8 39.4 C 39.8 40.5 38.8 41.2 37.8 41.2 C 37.1 41.2 36.4 40.8 36.1 40.0 C 35.1 37.5 33.9 35.0 32.4 32.6 L 15.9 32.6 C 15.0 32.6 14.5 31.8 14.5 31.0 C 14.5 30.2 15.0 29.5 15.9 29.5 L 46.2 29.5 C 47.2 29.5 47.7 30.2 47.7 31.0 C 47.7 31.8 47.2 32.6 46.2 32.6 Z " transform="scale(1,-1)" stroke-dasharray="87.57369731351801" stroke-dashoffset="87.57369731351801"><animate attributeName="stroke-dashoffset" from="87.57369731351801" to="0" dur="2.6272109194055404s" begin="anim1.end" fill="freeze" id="anim2" /></path><path d="M 24.8 40.1 C 24.4 40.7 23.8 40.9 23.2 40.9 C 22.4 40.9 21.5 40.2 21.5 39.3 C 21.5 39.0 21.6 38.7 21.9 38.3 C 22.7 37.2 23.5 35.9 24.2 34.6 C 24.6 33.8 25.2 33.5 25.9 33.5 C 26.8 33.5 27.7 34.1 27.7 35.2 C 27.7 35.6 27.6 36.0 27.4 36.4 C 26.7 37.5 25.6 39.1 24.8 40.1 Z " transform="scale(1,-1)" stroke-dasharray="20.582158143013626" stroke-dashoffset="20.582158143013626"><animate attributeName="stroke-dashoffset" from="20.582158143013626" to="0" dur="0.6174647442904088s" begin="anim2.end" fill="freeze" id="anim3" /></path><path d="M 8.7 40.3 C 8.3 40.6 8.0 40.7 7.6 40.7 C 6.7 40.7 5.8 39.9 5.8 39.0 C 5.8 38.5 6.1 38.0 6.7 37.5 C 7.7 36.6 9.2 35.2 10.3 33.8 C 10.8 33.2 11.3 33.0 11.9 33.0 C 12.8 33.0 13.6 33.8 13.6 34.9 C 13.6 35.4 13.5 35.9 13.0 36.4 C 12.0 37.6 10.1 39.4 8.7 40.3 Z " transform="scale(1,-1)" stroke-dasharray="23.06624830976176" stroke-dashoffset="23.06624830976176"><animate attributeName="stroke-dashoffset" from="23.06624830976176" to="0" dur="0.6919874492928528s" begin="anim3.end" fill="freeze" id="anim4" /></path><path d="M 5.2 28.2 C 4.9 28.5 4.4 28.7 4.0 28.7 C 3.1 28.7 2.2 27.9 2.2 27.0 C 2.2 26.5 2.5 26.0 3.1 25.5 C 4.1 24.8 5.9 23.3 7.2 21.9 C 7.6 21.4 8.1 21.2 8.6 21.2 C 9.5 21.2 10.3 22.0 10.3 23.0 C 10.3 23.5 10.1 24.1 9.7 24.6 C 8.5 25.9 6.6 27.4 5.2 28.2 Z " transform="scale(1,-1)" stroke-dasharray="23.20760845378206" stroke-dashoffset="23.20760845378206"><animate attributeName="stroke-dashoffset" from="23.20760845378206" to="0" dur="0.6962282536134619s" begin="anim4.end" fill="freeze" id="anim5" /></path><path d="M 9.6 13.2 C 8.3 8.9 6.1 3.8 3.9 0.5 C 3.6 0.1 3.5 -0.4 3.5 -0.8 C 3.5 -1.8 4.2 -2.5 5.2 -2.5 C 5.8 -2.5 6.5 -2.1 7.0 -1.4 C 9.2 2.2 11.7 7.8 13.0 12.2 C 13.1 12.5 13.2 12.7 13.2 13.0 C 13.2 14.1 12.3 14.7 11.4 14.7 C 10.7 14.7 9.9 14.2 9.6 13.2 Z" transform="scale(1,-1)" stroke-dasharray="41.235911069807585" stroke-dashoffset="41.235911069807585"><animate attributeName="stroke-dashoffset" from="41.235911069807585" to="0" dur="1.2370773320942274s" begin="anim5.end" fill="freeze" id="anim_end" /></path></g></svg>