<?xml version='1.0' encoding='utf-8'?>
<svg viewBox="0 -44.0 50.0 50.0" version="1.1" xmlns="http://www.w3.org/2000/svg"><rect x="-1000" y="-1000" width="2000" height="2000" stroke="white" fill="white" /><g style="fill:none;stroke:#000000;stroke-width:1"><path d="M 39.3 29.7 C 38.5 30.8 37.7 31.8 37.0 32.9 C 38.6 33.9 40.2 35.1 41.7 36.5 C 42.1 36.9 42.2 37.4 42.2 37.8 C 42.2 38.8 41.5 39.6 40.6 39.6 C 40.1 39.6 39.6 39.4 39.2 38.9 C 38.0 37.6 36.7 36.5 35.5 35.4 C 34.6 36.9 34.0 38.4 33.4 40.0 C 33.1 40.8 32.5 41.2 31.8 41.2 C 31.0 41.2 30.2 40.6 30.2 39.7 C 30.2 39.5 30.2 39.2 30.3 39.0 C 33.3 31.2 38.6 24.2 44.7 19.4 C 45.2 18.9 45.7 18.8 46.2 18.8 C 47.2 18.8 47.9 19.6 47.9 20.6 C 47.9 21.2 47.6 21.9 46.9 22.4 C 44.9 23.9 43.0 25.6 41.2 27.5 C 42.8 28.5 44.4 29.8 45.8 31.1 C 46.2 31.5 46.4 31.9 46.4 32.4 C 46.4 33.3 45.6 34.1 44.7 34.1 C 44.2 34.1 43.8 33.9 43.3 33.4 C 42.1 32.1 40.7 30.8 39.3 29.7 Z " transform="scale(1,-1)" stroke-dasharray="86.92194041519308" stroke-dashoffset="86.92194041519308"><animate attributeName="stroke-dashoffset" from="86.92194041519308" to="0" dur="2.6076582124557923s" begin="0s; 15s; 30s; 45s; 60s" fill="freeze" id="anim0" /></path><path d="M 36.1 8.4 C 39.4 8.4 40.7 9.7 40.7 12.2 L 40.7 15.4 C 40.7 17.9 39.4 19.2 36.1 19.2 L 24.2 19.2 C 21.0 19.2 19.7 17.9 19.7 15.4 L 19.7 12.2 C 19.8 9.2 21.6 8.5 24.2 8.4 Z " transform="scale(1,-1)" stroke-dasharray="57.45015651763158" stroke-dashoffset="57.45015651763158"><animate attributeName="stroke-dashoffset" from="57.45015651763158" to="0" dur="1.7235046955289473s" begin="anim0.end" fill="freeze" id="anim1" /></path><path d="M 25.0 11.3 C 23.6 11.3 23.1 11.6 23.1 12.6 L 23.1 15.0 C 23.1 16.0 23.6 16.3 25.0 16.3 L 35.4 16.3 C 36.8 16.3 37.3 16.0 37.3 15.0 L 37.3 12.6 C 37.3 11.4 36.4 11.3 35.4 11.3 Z " transform="scale(1,-1)" stroke-dasharray="36.308209364898794" stroke-dashoffset="36.308209364898794"><animate attributeName="stroke-dashoffset" from="36.308209364898794" to="0" dur="1.0892462809469639s" begin="anim1.end" fill="freeze" id="anim2" /></path><path d="M 18.6 39.4 C 17.6 39.4 17.1 38.6 17.1 37.9 C 17.1 37.1 17.6 36.2 18.6 36.2 L 23.7 36.2 C 24.4 36.2 24.8 36.1 24.8 35.6 C 24.8 35.5 24.8 35.2 24.6 34.9 C 23.9 33.0 22.8 31.1 21.4 29.1 C 20.0 30.5 18.7 31.6 17.6 32.2 C 17.2 32.5 16.9 32.6 16.5 32.6 C 15.7 32.6 15.0 32.0 15.0 31.2 C 15.0 30.7 15.2 30.2 15.8 29.8 C 16.8 29.1 18.0 28.0 19.5 26.5 C 17.9 24.6 16.1 22.7 14.0 21.0 C 13.4 20.6 13.2 20.1 13.2 19.6 C 13.2 18.8 13.8 18.1 14.7 18.1 C 15.1 18.1 15.5 18.2 15.9 18.5 C 21.6 23.1 25.6 28.6 28.2 34.4 C 28.5 35.1 28.7 35.9 28.7 36.5 C 28.7 38.2 27.3 39.4 24.8 39.4 Z " transform="scale(1,-1)" stroke-dasharray="81.10576142552776" stroke-dashoffset="81.10576142552776"><animate attributeName="stroke-dashoffset" from="81.10576142552776" to="0" dur="2.4331728427658326s" begin="anim2.end" fill="freeze" id="anim3" /></path><path d="M 34.9 0.7 C 35.7 2.1 36.5 3.5 37.1 5.0 C 37.2 5.2 37.3 5.5 37.3 5.8 C 37.3 6.7 36.4 7.3 35.5 7.3 C 34.8 7.3 34.1 7.0 33.9 6.2 C 33.2 4.4 32.4 2.5 31.4 0.7 L 15.9 0.7 C 14.9 0.7 14.4 -0.1 14.4 -0.9 C 14.4 -1.7 14.9 -2.5 15.9 -2.5 L 44.5 -2.5 C 45.5 -2.5 46.0 -1.7 46.0 -0.9 C 46.0 -0.1 45.5 0.7 44.5 0.7 Z " transform="scale(1,-1)" stroke-dasharray="79.9516009429765" stroke-dashoffset="79.9516009429765"><animate attributeName="stroke-dashoffset" from="79.9516009429765" to="0" dur="2.398548028289295s" begin="anim3.end" fill="freeze" id="anim4" /></path><path d="M 25.4 6.6 C 25.0 7.1 24.5 7.2 24.0 7.2 C 23.1 7.2 22.3 6.6 22.3 5.8 C 22.3 5.5 22.4 5.2 22.6 4.9 C 23.2 4.0 23.8 3.0 24.4 1.8 C 24.7 1.2 25.2 0.9 25.7 0.9 C 26.6 0.9 27.5 1.6 27.5 2.6 C 27.5 2.9 27.5 3.2 27.3 3.5 C 26.8 4.5 26.1 5.6 25.4 6.6 Z " transform="scale(1,-1)" stroke-dasharray="17.561047050126454" stroke-dashoffset="17.561047050126454"><animate attributeName="stroke-dashoffset" from="17.561047050126454" to="0" dur="0.5268314115037936s" begin="anim4.end" fill="freeze" id="anim5" /></path><path d="M 9.2 13.1 C 7.9 8.8 5.7 3.7 3.6 0.4 C 3.3 -0.1 3.2 -0.5 3.2 -0.8 C 3.2 -1.8 4.0 -2.5 4.9 -2.5 C 5.5 -2.5 6.2 -2.2 6.7 -1.4 C 8.8 2.1 11.2 7.7 12.5 12.1 C 12.6 12.4 12.6 12.6 12.6 12.9 C 12.6 14.0 11.8 14.6 11.0 14.6 C 10.2 14.6 9.5 14.1 9.2 13.1 Z " transform="scale(1,-1)" stroke-dasharray="40.74715865680425" stroke-dashoffset="40.74715865680425"><animate attributeName="stroke-dashoffset" from="40.74715865680425" to="0" dur="1.2224147597041275s" begin="anim5.end" fill="freeze" id="anim6" /></path><path d="M 5.0 28.2 C 4.6 28.5 4.2 28.6 3.8 28.6 C 2.9 28.6 2.1 27.8 2.1 27.0 C 2.1 26.5 2.3 25.9 2.9 25.5 C 3.9 24.7 5.6 23.2 6.8 21.9 C 7.2 21.4 7.8 21.2 8.2 21.2 C 9.2 21.2 10.0 22.0 10.0 23.0 C 10.0 23.5 9.8 24.1 9.3 24.6 C 8.2 25.8 6.3 27.3 5.0 28.2 Z " transform="scale(1,-1)" stroke-dasharray="22.79334177481472" stroke-dashoffset="22.79334177481472"><animate attributeName="stroke-dashoffset" from="22.79334177481472" to="0" dur="0.6838002532444416s" begin="anim6.end" fill="freeze" id="anim7" /></path><path d="M 8.3 40.3 C 8.0 40.6 7.7 40.7 7.3 40.7 C 6.4 40.7 5.5 39.9 5.5 39.0 C 5.5 38.5 5.7 38.0 6.3 37.5 C 7.3 36.7 8.8 35.2 9.9 33.9 C 10.3 33.4 10.9 33.1 11.4 33.1 C 12.4 33.1 13.2 34.0 13.2 35.0 C 13.2 35.5 13.0 36.0 12.6 36.5 C 11.6 37.7 9.7 39.4 8.3 40.3 Z " transform="scale(1,-1)" stroke-dasharray="22.74405807642259" stroke-dashoffset="22.74405807642259"><animate attributeName="stroke-dashoffset" from="22.74405807642259" to="0" dur="0.6823217422926777s" begin="anim7.end" fill="freeze" id="anim8" /></path><path d="M 35.2 22.6 C 36.2 22.6 36.6 23.4 36.6 24.1 C 36.6 24.9 36.2 25.7 35.2 25.7 L 25.2 25.7 C 24.3 25.7 23.8 24.9 23.8 24.1 C 23.8 23.4 24.3 22.6 25.2 22.6 Z" transform="scale(1,-1)" stroke-dasharray="29.36111770712591" stroke-dashoffset="29.36111770712591"><animate attributeName="stroke-dashoffset" from="29.36111770712591" to="0" dur="0.8808335312137773s" begin="anim8.end" fill="freeze" id="anim_end" /></path></g></svg>