<?xml version='1.0' encoding='utf-8'?>
<svg viewBox="0 -44.0 50.0 50.0" version="1.1" xmlns="http://www.w3.org/2000/svg"><rect x="-1000" y="-1000" width="2000" height="2000" stroke="white" fill="white" /><g style="fill:none;stroke:#000000;stroke-width:1"><path d="M 27.2 15.4 C 27.9 16.4 28.6 17.6 29.2 18.7 L 46.6 18.7 C 47.6 18.7 48.1 19.5 48.1 20.2 C 48.1 21.0 47.6 21.7 46.6 21.7 L 19.2 21.7 C 18.3 21.7 17.8 21.0 17.8 20.2 C 17.8 19.5 18.3 18.7 19.2 18.7 L 25.2 18.7 C 23.0 14.8 19.8 11.2 16.4 8.9 C 15.6 8.4 15.3 7.8 15.3 7.2 C 15.3 6.4 16.0 5.7 16.8 5.7 C 17.2 5.7 17.6 5.8 17.9 6.1 C 20.6 7.9 22.9 10.1 25.0 12.6 L 29.1 12.6 C 26.6 8.7 23.1 5.0 19.5 2.8 C 18.8 2.4 18.5 1.8 18.5 1.2 C 18.5 0.4 19.2 -0.4 20.1 -0.4 C 20.4 -0.4 20.9 -0.2 21.2 0.1 C 25.9 3.2 30.1 7.7 32.9 12.6 L 36.7 12.6 C 34.6 7.4 30.8 2.6 26.8 -0.3 C 26.1 -0.8 25.8 -1.4 25.8 -1.9 C 25.8 -2.6 26.5 -3.2 27.4 -3.2 C 27.7 -3.2 28.1 -3.2 28.5 -2.9 C 33.5 0.7 38.0 6.4 40.1 12.6 C 42.2 12.6 42.6 12.1 42.5 10.6 C 42.5 8.2 42.1 5.2 41.6 3.1 C 41.0 0.4 40.2 -0.2 38.8 -0.2 C 38.1 -0.2 37.6 -0.1 36.8 0.1 C 35.5 0.4 34.6 -0.6 34.6 -1.5 C 34.6 -2.2 35.1 -3.0 36.1 -3.2 C 37.2 -3.5 38.0 -3.6 39.0 -3.6 C 42.2 -3.6 44.0 -2.1 45.0 2.5 C 45.6 5.0 45.9 7.9 46.0 10.9 C 46.0 13.8 44.5 15.4 40.9 15.4 Z " transform="scale(1,-1)" stroke-dasharray="244.99027913637224" stroke-dashoffset="244.99027913637224"><animate attributeName="stroke-dashoffset" from="244.99027913637224" to="0" dur="7.349708374091167s" begin="0s; 15s; 30s; 45s; 60s" fill="freeze" id="anim0" /></path><path d="M 8.2 27.7 C 6.7 21.2 4.4 15.0 1.5 10.6 C 1.2 10.2 1.1 9.8 1.1 9.5 C 1.1 8.6 1.8 8.1 2.5 8.1 C 3.1 8.1 3.6 8.3 4.0 9.0 C 6.0 12.1 7.7 15.9 8.9 19.7 L 8.7 9.4 L 8.7 -2.7 C 8.7 -3.7 9.5 -4.2 10.3 -4.2 C 11.2 -4.2 12.0 -3.7 12.0 -2.7 L 12.0 18.2 C 13.1 17.2 14.2 15.8 14.9 14.7 C 15.3 14.0 15.9 13.8 16.4 13.8 C 17.2 13.8 17.9 14.4 17.9 15.4 C 17.9 15.8 17.8 16.2 17.4 16.8 C 16.1 18.6 14.2 20.4 12.0 22.0 L 12.0 27.7 L 15.9 27.7 C 16.8 27.7 17.2 28.4 17.2 29.2 C 17.2 29.9 16.8 30.7 15.9 30.7 L 12.0 30.7 L 12.0 40.4 C 12.0 41.4 11.2 41.9 10.3 41.9 C 9.5 41.9 8.7 41.4 8.7 40.4 L 8.7 30.7 L 3.5 30.7 C 2.6 30.7 2.1 29.9 2.1 29.2 C 2.1 28.4 2.6 27.7 3.5 27.7 Z " transform="scale(1,-1)" stroke-dasharray="158.56538227968943" stroke-dashoffset="158.56538227968943"><animate attributeName="stroke-dashoffset" from="158.56538227968943" to="0" dur="4.756961468390683s" begin="anim0.end" fill="freeze" id="anim1" /></path><path d="M 37.5 24.5 C 40.9 24.5 42.5 26.0 42.5 28.7 L 42.5 36.6 C 42.5 39.4 40.9 40.9 37.5 40.9 L 27.0 40.9 C 23.6 40.9 22.0 39.4 22.0 36.6 L 22.0 28.7 C 22.1 25.5 24.2 24.5 27.0 24.5 Z " transform="scale(1,-1)" stroke-dasharray="66.81638805255767" stroke-dashoffset="66.81638805255767"><animate attributeName="stroke-dashoffset" from="66.81638805255767" to="0" dur="2.00449164157673s" begin="anim1.end" fill="freeze" id="anim2" /></path><path d="M 27.5 27.4 C 26.0 27.4 25.4 27.8 25.4 29.2 L 25.4 31.2 L 39.2 31.2 L 39.2 29.2 C 39.2 27.7 38.4 27.4 37.1 27.4 Z " transform="scale(1,-1)" stroke-dasharray="33.87367945440061" stroke-dashoffset="33.87367945440061"><animate attributeName="stroke-dashoffset" from="33.87367945440061" to="0" dur="1.0162103836320182s" begin="anim2.end" fill="freeze" id="anim3" /></path><path d="M 39.2 34.1 L 25.4 34.1 L 25.4 36.1 C 25.4 37.5 26.0 38.0 27.5 38.0 L 37.1 38.0 C 38.6 38.0 39.2 37.5 39.2 36.1 Z" transform="scale(1,-1)" stroke-dasharray="34.01090249677611" stroke-dashoffset="34.01090249677611"><animate attributeName="stroke-dashoffset" from="34.01090249677611" to="0" dur="1.0203270749032833s" begin="anim3.end" fill="freeze" id="anim_end" /></path></g></svg>