<?xml version='1.0' encoding='utf-8'?>
<svg viewBox="0 -44.0 50.0 50.0" version="1.1" xmlns="http://www.w3.org/2000/svg"><rect x="-1000" y="-1000" width="2000" height="2000" stroke="white" fill="white" /><g style="fill:none;stroke:#000000;stroke-width:1"><path d="M 14.9 1.2 C 17.7 1.2 19.2 2.1 19.2 5.3 L 19.2 20.0 C 19.2 23.2 17.7 24.1 14.9 24.1 L 11.1 24.1 C 10.6 24.1 10.1 24.0 9.6 23.9 C 10.9 27.4 12.0 31.1 12.5 34.8 L 18.8 34.8 C 19.8 34.8 20.2 35.6 20.2 36.4 C 20.2 37.1 19.8 37.9 18.8 37.9 L 3.8 37.9 C 2.8 37.9 2.3 37.1 2.3 36.4 C 2.3 35.6 2.8 34.8 3.8 34.8 L 9.0 34.8 C 7.9 28.1 5.3 20.2 1.8 15.4 C 1.5 14.9 1.4 14.5 1.4 14.2 C 1.4 13.2 2.1 12.6 3.0 12.6 C 3.5 12.6 4.1 12.9 4.6 13.6 C 5.4 14.9 6.2 16.3 7.0 17.9 L 6.8 12.2 L 6.8 5.3 C 6.9 2.2 8.2 1.2 11.1 1.2 Z " transform="scale(1,-1)" stroke-dasharray="136.04507606110923" stroke-dashoffset="136.04507606110923"><animate attributeName="stroke-dashoffset" from="136.04507606110923" to="0" dur="4.081352281833277s" begin="0s; 15s; 30s; 45s; 60s" fill="freeze" id="anim0" /></path><path d="M 11.4 4.3 C 10.5 4.3 10.2 4.8 10.2 5.7 L 10.2 19.7 C 10.2 20.6 10.5 21.1 11.4 21.1 L 14.6 21.1 C 15.5 21.1 15.7 20.6 15.7 19.7 L 15.7 5.7 C 15.7 4.8 15.5 4.3 14.6 4.3 Z " transform="scale(1,-1)" stroke-dasharray="42.81246487171651" stroke-dashoffset="42.81246487171651"><animate attributeName="stroke-dashoffset" from="42.81246487171651" to="0" dur="1.2843739461514951s" begin="anim0.end" fill="freeze" id="anim1" /></path><path d="M 39.0 31.2 C 41.3 31.2 41.8 30.7 41.8 28.6 C 41.8 23.9 41.5 18.9 41.0 14.8 C 40.6 11.7 39.7 11.0 37.9 11.0 C 37.1 11.0 36.5 11.1 35.7 11.2 C 34.5 11.5 33.7 10.5 33.7 9.5 C 33.7 8.8 34.1 8.1 35.0 7.9 C 35.9 7.6 36.9 7.5 38.1 7.5 C 41.6 7.5 43.6 9.0 44.4 14.2 C 45.0 18.6 45.2 23.8 45.2 29.2 C 45.2 32.4 43.9 34.2 39.6 34.2 L 28.0 34.2 C 28.7 35.9 29.4 37.5 30.0 39.2 C 30.1 39.5 30.2 39.7 30.2 39.9 C 30.2 41.0 29.2 41.6 28.4 41.6 C 27.7 41.6 27.0 41.2 26.7 40.2 C 25.0 35.1 22.7 30.9 20.0 27.4 C 19.6 26.9 19.4 26.5 19.4 26.0 C 19.4 25.2 20.1 24.6 20.9 24.6 C 21.4 24.6 22.0 24.8 22.4 25.3 C 23.8 27.0 25.2 29.0 26.4 31.2 Z " transform="scale(1,-1)" stroke-dasharray="131.309401764321" stroke-dashoffset="131.309401764321"><animate attributeName="stroke-dashoffset" from="131.309401764321" to="0" dur="3.9392820529296295s" begin="anim1.end" fill="freeze" id="anim2" /></path><path d="M 27.4 12.4 C 27.4 13.9 27.7 14.3 29.2 14.3 L 32.4 14.3 C 35.6 14.3 36.8 15.4 36.8 17.9 L 36.8 22.9 C 36.8 25.5 35.6 26.6 32.3 26.6 L 26.7 26.6 C 25.8 26.6 25.2 25.9 25.2 25.1 C 25.2 24.3 25.8 23.6 26.7 23.6 L 31.4 23.6 C 33.1 23.6 33.4 23.2 33.4 22.2 L 33.4 18.7 C 33.4 17.7 33.1 17.3 31.6 17.3 L 28.5 17.3 C 25.1 17.3 23.9 15.9 23.9 13.0 L 23.9 2.8 C 23.9 -1.2 25.7 -2.5 34.5 -2.5 C 44.9 -2.5 47.0 -0.7 47.7 4.6 C 47.9 5.9 47.0 6.6 46.1 6.6 C 45.2 6.6 44.5 6.1 44.4 5.1 C 43.9 1.9 42.7 0.8 34.5 0.8 C 28.2 0.8 27.4 1.5 27.4 3.5 Z" transform="scale(1,-1)" stroke-dasharray="135.0504402582584" stroke-dashoffset="135.0504402582584"><animate attributeName="stroke-dashoffset" from="135.0504402582584" to="0" dur="4.051513207747751s" begin="anim2.end" fill="freeze" id="anim_end" /></path></g></svg>