<?xml version='1.0' encoding='utf-8'?>
<svg viewBox="0 -44.0 50.0 50.0" version="1.1" xmlns="http://www.w3.org/2000/svg"><rect x="-1000" y="-1000" width="2000" height="2000" stroke="white" fill="white" /><g style="fill:none;stroke:#000000;stroke-width:1"><path d="M 29.0 29.3 L 26.1 29.3 C 23.0 29.3 21.7 27.8 21.7 25.2 L 21.7 16.0 C 21.7 13.4 23.1 12.0 26.2 12.0 L 40.2 12.0 C 43.3 12.0 44.7 13.4 44.7 16.0 L 44.7 25.2 C 44.7 27.8 43.4 29.3 40.2 29.3 L 36.5 29.3 L 36.5 31.8 L 38.9 31.8 C 39.7 31.8 40.2 32.5 40.2 33.1 C 40.2 33.8 39.7 34.5 38.9 34.5 L 27.4 34.5 C 26.5 34.5 26.1 33.9 26.1 33.1 C 26.1 32.5 26.5 31.8 27.4 31.8 L 29.0 31.8 Z " transform="scale(1,-1)" stroke-dasharray="95.6130160882015" stroke-dashoffset="95.6130160882015"><animate attributeName="stroke-dashoffset" from="95.6130160882015" to="0" dur="2.868390482646045s" begin="0s; 15s; 30s; 45s; 60s" fill="freeze" id="anim0" /></path><path d="M 28.8 26.8 C 28.4 25.0 27.6 23.8 26.5 22.9 C 26.1 22.5 25.9 22.1 25.9 21.8 C 25.9 21.1 26.4 20.5 27.1 20.5 C 27.4 20.5 27.7 20.6 28.1 20.9 C 29.9 22.3 31.0 24.1 31.4 26.8 L 34.0 26.8 L 34.0 23.9 C 34.0 21.7 35.0 21.2 37.4 21.2 C 39.8 21.2 40.9 22.0 41.1 24.4 C 41.1 25.1 40.5 25.5 39.8 25.5 C 39.3 25.5 38.8 25.2 38.8 24.6 C 38.7 23.8 38.2 23.5 37.5 23.5 C 36.8 23.5 36.5 23.7 36.5 24.4 L 36.5 26.8 L 39.7 26.8 C 41.2 26.8 41.7 26.3 41.7 24.9 L 41.7 19.7 L 24.8 19.7 L 24.8 24.9 C 24.8 26.3 25.2 26.8 26.8 26.8 Z " transform="scale(1,-1)" stroke-dasharray="80.41167956232441" stroke-dashoffset="80.41167956232441"><animate attributeName="stroke-dashoffset" from="80.41167956232441" to="0" dur="2.4123503868697322s" begin="anim0.end" fill="freeze" id="anim1" /></path><path d="M 31.5 29.3 L 31.5 31.8 L 34.0 31.8 L 34.0 29.3 Z " transform="scale(1,-1)" stroke-dasharray="10.0" stroke-dashoffset="10.0"><animate attributeName="stroke-dashoffset" from="10.0" to="0" dur="0.3s" begin="anim1.end" fill="freeze" id="anim2" /></path><path d="M 26.9 14.6 C 25.4 14.6 24.8 14.9 24.8 16.2 L 24.8 17.2 L 41.7 17.2 L 41.7 16.2 C 41.6 14.8 40.8 14.7 39.6 14.6 Z " transform="scale(1,-1)" stroke-dasharray="37.707955289277294" stroke-dashoffset="37.707955289277294"><animate attributeName="stroke-dashoffset" from="37.707955289277294" to="0" dur="1.1312386586783187s" begin="anim2.end" fill="freeze" id="anim3" /></path><path d="M 9.1 32.2 L 9.1 24.6 L 3.0 24.6 C 2.1 24.6 1.6 23.9 1.6 23.1 C 1.6 22.4 2.1 21.6 3.0 21.6 L 9.1 21.6 L 9.1 2.8 L 8.2 2.8 C 6.8 2.8 6.5 3.2 6.5 4.8 L 6.5 16.2 C 6.5 17.2 5.7 17.7 4.9 17.7 C 4.0 17.7 3.2 17.2 3.2 16.2 L 3.2 4.2 C 3.2 0.8 5.0 -0.2 8.1 -0.2 L 13.4 -0.2 C 16.5 -0.2 18.2 0.8 18.2 4.2 L 18.2 16.2 C 18.2 17.2 17.4 17.7 16.6 17.7 C 15.8 17.7 15.0 17.2 15.0 16.2 L 15.0 4.8 C 15.0 3.2 14.7 2.8 13.2 2.8 L 12.3 2.8 L 12.3 21.6 L 17.7 21.6 C 18.7 21.6 19.2 22.4 19.2 23.1 C 19.2 23.9 18.7 24.6 17.7 24.6 L 12.3 24.6 L 12.3 32.2 L 16.6 32.2 C 17.5 32.2 18.0 33.0 18.0 33.7 C 18.0 34.5 17.5 35.1 16.6 35.1 L 7.7 35.1 C 8.2 36.6 8.5 38.1 8.8 39.5 C 9.0 40.8 8.1 41.6 7.1 41.6 C 6.4 41.6 5.7 41.1 5.5 40.1 C 4.8 36.2 3.5 32.1 2.1 29.2 C 1.9 29.0 1.8 28.6 1.8 28.4 C 1.8 27.5 2.6 26.9 3.3 26.9 C 3.9 26.9 4.6 27.2 5.0 28.1 C 5.6 29.2 6.2 30.7 6.8 32.2 Z " transform="scale(1,-1)" stroke-dasharray="221.93898679821976" stroke-dashoffset="221.93898679821976"><animate attributeName="stroke-dashoffset" from="221.93898679821976" to="0" dur="6.658169603946592s" begin="anim3.end" fill="freeze" id="anim4" /></path><path d="M 40.3 5.7 L 46.2 5.7 C 47.2 5.7 47.7 6.5 47.7 7.2 C 47.7 7.9 47.2 8.6 46.2 8.6 L 40.3 8.6 L 40.3 9.9 C 40.3 10.9 39.5 11.3 38.8 11.3 C 38.0 11.3 37.1 10.9 37.1 9.9 L 37.1 8.6 L 21.2 8.6 C 20.3 8.6 19.9 7.9 19.9 7.2 C 19.9 6.5 20.3 5.7 21.2 5.7 L 37.1 5.7 L 37.1 0.7 C 37.1 -0.6 36.8 -1.1 35.7 -1.1 C 35.3 -1.1 35.0 -1.0 34.2 -0.9 C 33.1 -0.6 32.4 -1.5 32.4 -2.4 C 32.4 -3.0 32.8 -3.7 33.6 -3.9 C 34.5 -4.1 35.0 -4.2 35.9 -4.2 C 39.0 -4.2 40.3 -2.8 40.3 0.3 Z " transform="scale(1,-1)" stroke-dasharray="89.03118476867249" stroke-dashoffset="89.03118476867249"><animate attributeName="stroke-dashoffset" from="89.03118476867249" to="0" dur="2.6709355430601747s" begin="anim4.end" fill="freeze" id="anim5" /></path><path d="M 31.5 41.2 C 30.5 41.2 30.1 40.5 30.1 39.8 C 30.1 39.0 30.6 38.2 31.5 38.2 L 36.2 38.2 C 37.5 38.2 38.0 37.9 38.6 37.1 C 39.9 35.2 42.4 32.9 44.9 31.1 C 45.2 30.8 45.6 30.7 46.0 30.7 C 46.9 30.7 47.7 31.5 47.7 32.4 C 47.7 33.0 47.4 33.6 46.7 34.0 C 44.5 35.5 42.1 37.6 40.7 39.3 C 39.7 40.7 38.5 41.2 36.6 41.2 Z " transform="scale(1,-1)" stroke-dasharray="44.5185140040209" stroke-dashoffset="44.5185140040209"><animate attributeName="stroke-dashoffset" from="44.5185140040209" to="0" dur="1.335555420120627s" begin="anim5.end" fill="freeze" id="anim6" /></path><path d="M 25.0 39.5 C 23.5 37.0 21.2 34.4 19.2 32.6 C 18.6 32.2 18.4 31.7 18.4 31.2 C 18.4 30.4 19.0 29.7 19.9 29.7 C 20.2 29.7 20.8 29.8 21.2 30.2 C 23.6 32.2 26.2 35.1 27.9 37.9 C 28.2 38.3 28.2 38.7 28.2 39.0 C 28.2 39.9 27.5 40.5 26.6 40.5 C 26.0 40.5 25.4 40.2 25.0 39.5 Z " transform="scale(1,-1)" stroke-dasharray="30.37176564050903" stroke-dashoffset="30.37176564050903"><animate attributeName="stroke-dashoffset" from="30.37176564050903" to="0" dur="0.9111529692152708s" begin="anim6.end" fill="freeze" id="anim7" /></path><path d="M 28.1 4.3 C 27.6 4.7 27.2 4.8 26.8 4.8 C 25.9 4.8 25.2 4.1 25.2 3.3 C 25.2 3.0 25.4 2.6 25.8 2.2 C 26.5 1.5 27.5 0.5 28.2 -0.6 C 28.6 -1.1 29.0 -1.2 29.5 -1.2 C 30.3 -1.2 31.2 -0.5 31.2 0.5 C 31.2 0.8 31.1 1.2 30.7 1.7 C 30.0 2.5 28.9 3.6 28.1 4.3 Z" transform="scale(1,-1)" stroke-dasharray="17.98493871095275" stroke-dashoffset="17.98493871095275"><animate attributeName="stroke-dashoffset" from="17.98493871095275" to="0" dur="0.5395481613285825s" begin="anim7.end" fill="freeze" id="anim_end" /></path></g></svg>