<?xml version='1.0' encoding='utf-8'?>
<svg viewBox="0 -44.0 50.0 50.0" version="1.1" xmlns="http://www.w3.org/2000/svg"><rect x="-1000" y="-1000" width="2000" height="2000" stroke="white" fill="white" /><g style="fill:none;stroke:#000000;stroke-width:1"><path d="M 10.1 28.1 L 10.1 -2.7 C 10.1 -3.7 10.9 -4.2 11.8 -4.2 C 12.6 -4.2 13.5 -3.7 13.5 -2.7 L 13.5 28.1 L 19.1 28.1 C 20.1 28.1 20.6 28.9 20.6 29.6 C 20.6 30.4 20.1 31.1 19.1 31.1 L 3.9 31.1 C 2.9 31.1 2.5 30.4 2.5 29.6 C 2.5 28.9 2.9 28.1 3.9 28.1 Z " transform="scale(1,-1)" stroke-dasharray="103.0721169620883" stroke-dashoffset="103.0721169620883"><animate attributeName="stroke-dashoffset" from="103.0721169620883" to="0" dur="3.092163508862649s" begin="0s; 15s; 30s; 45s; 60s" fill="freeze" id="anim0" /></path><path d="M 27.0 31.1 L 27.0 12.1 L 22.8 12.1 C 21.8 12.1 21.4 11.3 21.4 10.6 C 21.4 9.8 21.8 9.1 22.8 9.1 L 47.1 9.1 C 48.1 9.1 48.6 9.8 48.6 10.6 C 48.6 11.3 48.1 12.1 47.1 12.1 L 42.0 12.1 L 42.0 31.1 L 46.2 31.1 C 47.1 31.1 47.6 31.8 47.6 32.6 C 47.6 33.3 47.1 34.1 46.2 34.1 L 42.0 34.1 L 42.0 40.0 C 42.0 41.0 41.1 41.5 40.3 41.5 C 39.5 41.5 38.6 41.0 38.6 40.0 L 38.6 34.1 L 30.3 34.1 L 30.3 40.0 C 30.3 41.0 29.5 41.5 28.7 41.5 C 27.8 41.5 27.0 41.0 27.0 40.0 L 27.0 34.1 L 23.1 34.1 C 22.2 34.1 21.7 33.3 21.7 32.6 C 21.7 31.8 22.2 31.1 23.1 31.1 Z " transform="scale(1,-1)" stroke-dasharray="148.33048391531847" stroke-dashoffset="148.33048391531847"><animate attributeName="stroke-dashoffset" from="148.33048391531847" to="0" dur="4.449914517459554s" begin="anim0.end" fill="freeze" id="anim1" /></path><path d="M 30.3 23.9 L 38.6 23.9 L 38.6 19.6 L 30.3 19.6 Z " transform="scale(1,-1)" stroke-dasharray="25.199999999999996" stroke-dashoffset="25.199999999999996"><animate attributeName="stroke-dashoffset" from="25.199999999999996" to="0" dur="0.7559999999999999s" begin="anim1.end" fill="freeze" id="anim2" /></path><path d="M 38.6 26.7 L 30.3 26.7 L 30.3 31.1 L 38.6 31.1 Z " transform="scale(1,-1)" stroke-dasharray="25.400000000000006" stroke-dashoffset="25.400000000000006"><animate attributeName="stroke-dashoffset" from="25.400000000000006" to="0" dur="0.7620000000000001s" begin="anim2.end" fill="freeze" id="anim3" /></path><path d="M 30.3 16.8 L 38.6 16.8 L 38.6 12.1 L 30.3 12.1 Z " transform="scale(1,-1)" stroke-dasharray="26.000000000000004" stroke-dashoffset="26.000000000000004"><animate attributeName="stroke-dashoffset" from="26.000000000000004" to="0" dur="0.78s" begin="anim3.end" fill="freeze" id="anim4" /></path><path d="M 19.7 22.9 C 19.7 23.9 18.9 24.4 18.0 24.4 C 17.2 24.4 16.4 23.9 16.4 22.9 L 16.4 5.2 C 16.4 4.2 17.2 3.7 18.0 3.7 C 18.9 3.7 19.7 4.2 19.7 5.2 Z " transform="scale(1,-1)" stroke-dasharray="45.41728123870807" stroke-dashoffset="45.41728123870807"><animate attributeName="stroke-dashoffset" from="45.41728123870807" to="0" dur="1.362518437161242s" begin="anim4.end" fill="freeze" id="anim5" /></path><path d="M 4.2 16.7 C 4.2 10.2 3.6 6.1 2.5 2.9 C 2.4 2.6 2.4 2.4 2.4 2.1 C 2.4 1.2 3.2 0.6 4.0 0.6 C 4.6 0.6 5.3 1.0 5.6 1.9 C 6.9 5.4 7.5 9.9 7.5 16.7 L 7.5 22.9 C 7.5 23.9 6.7 24.4 5.8 24.4 C 5.0 24.4 4.2 23.9 4.2 22.9 Z " transform="scale(1,-1)" stroke-dasharray="51.821200380999215" stroke-dashoffset="51.821200380999215"><animate attributeName="stroke-dashoffset" from="51.821200380999215" to="0" dur="1.5546360114299764s" begin="anim5.end" fill="freeze" id="anim6" /></path><path d="M 17.8 36.1 C 18.8 36.1 19.2 36.9 19.2 37.6 C 19.2 38.4 18.8 39.2 17.8 39.2 L 5.3 39.2 C 4.4 39.2 3.9 38.4 3.9 37.6 C 3.9 36.9 4.4 36.1 5.3 36.1 Z " transform="scale(1,-1)" stroke-dasharray="34.361117707125906" stroke-dashoffset="34.361117707125906"><animate attributeName="stroke-dashoffset" from="34.361117707125906" to="0" dur="1.030833531213777s" begin="anim6.end" fill="freeze" id="anim7" /></path><path d="M 28.1 6.4 C 26.5 4.2 23.5 1.6 20.8 -0.2 C 20.1 -0.7 19.8 -1.2 19.8 -1.8 C 19.8 -2.7 20.6 -3.5 21.6 -3.5 C 22.0 -3.5 22.4 -3.4 22.9 -3.1 C 25.7 -1.2 28.9 1.7 30.9 4.2 C 31.2 4.7 31.4 5.2 31.4 5.6 C 31.4 6.6 30.5 7.2 29.6 7.2 C 29.0 7.2 28.5 7.0 28.1 6.4 Z " transform="scale(1,-1)" stroke-dasharray="32.80403789488197" stroke-dashoffset="32.80403789488197"><animate attributeName="stroke-dashoffset" from="32.80403789488197" to="0" dur="0.9841211368464591s" begin="anim7.end" fill="freeze" id="anim8" /></path><path d="M 40.3 6.4 C 39.9 7.0 39.2 7.2 38.7 7.2 C 37.9 7.2 37.1 6.6 37.1 5.6 C 37.1 5.2 37.2 4.9 37.5 4.5 C 39.1 2.1 41.7 -0.7 43.8 -2.7 C 44.2 -3.2 44.7 -3.3 45.2 -3.3 C 46.2 -3.3 47.0 -2.5 47.0 -1.5 C 47.0 -0.9 46.8 -0.4 46.2 0.2 C 44.3 1.8 41.7 4.4 40.3 6.4 Z" transform="scale(1,-1)" stroke-dasharray="30.088657821447075" stroke-dashoffset="30.088657821447075"><animate attributeName="stroke-dashoffset" from="30.088657821447075" to="0" dur="0.9026597346434122s" begin="anim8.end" fill="freeze" id="anim_end" /></path></g></svg>