<?xml version='1.0' encoding='utf-8'?>
<svg viewBox="0 -44.0 50.0 50.0" version="1.1" xmlns="http://www.w3.org/2000/svg"><rect x="-1000" y="-1000" width="2000" height="2000" stroke="white" fill="white" /><g style="fill:none;stroke:#000000;stroke-width:1"><path d="M 21.2 27.9 C 19.5 21.6 17.1 16.3 14.0 12.2 C 13.6 11.8 13.5 11.3 13.5 11.0 C 13.5 10.2 14.1 9.6 14.9 9.6 C 15.4 9.6 15.9 9.9 16.2 10.4 C 18.9 14.1 21.0 18.2 22.2 21.8 L 22.0 9.7 L 22.0 -2.4 C 22.0 -3.4 22.8 -3.9 23.6 -3.9 C 24.4 -3.9 25.2 -3.4 25.2 -2.4 L 25.2 19.8 C 26.2 18.8 27.2 17.6 27.9 16.4 C 28.3 15.8 28.9 15.5 29.4 15.5 C 30.2 15.5 30.9 16.2 30.9 17.1 C 30.9 17.5 30.7 17.9 30.4 18.4 C 29.2 20.2 27.3 22.0 25.2 23.5 L 25.2 27.9 L 28.8 27.9 C 29.7 27.9 30.2 28.6 30.2 29.4 C 30.2 30.1 29.7 30.9 28.8 30.9 L 25.2 30.9 L 25.2 40.2 C 25.2 41.2 24.4 41.8 23.6 41.8 C 22.8 41.8 22.0 41.2 22.0 40.2 L 22.0 30.9 L 16.9 30.9 C 16.1 30.9 15.6 30.1 15.6 29.4 C 15.6 28.6 16.1 27.9 16.9 27.9 Z " transform="scale(1,-1)" stroke-dasharray="157.74297342517906" stroke-dashoffset="157.74297342517906"><animate attributeName="stroke-dashoffset" from="157.74297342517906" to="0" dur="4.732289202755371s" begin="0s; 15s; 30s; 45s; 60s" fill="freeze" id="anim0" /></path><path d="M 45.7 27.9 C 46.7 27.9 47.1 28.6 47.1 29.4 C 47.1 30.1 46.7 30.9 45.7 30.9 L 40.2 30.9 L 40.2 40.2 C 40.2 41.2 39.5 41.8 38.6 41.8 C 37.8 41.8 37.0 41.2 37.0 40.2 L 37.0 30.9 L 32.8 30.9 C 31.9 30.9 31.4 30.1 31.4 29.4 C 31.4 28.6 31.9 27.9 32.8 27.9 L 36.2 27.9 C 34.6 21.1 32.0 14.7 28.5 9.6 C 28.2 9.2 28.1 8.8 28.1 8.5 C 28.1 7.7 28.8 7.1 29.5 7.1 C 30.0 7.1 30.6 7.4 31.1 8.1 C 33.8 12.2 35.9 16.9 37.2 21.1 L 37.0 12.2 L 37.0 -2.4 C 37.0 -3.4 37.8 -3.9 38.6 -3.9 C 39.5 -3.9 40.2 -3.4 40.2 -2.4 L 40.2 12.2 L 40.0 21.5 C 41.5 16.8 43.3 12.6 45.4 9.1 C 45.8 8.3 46.4 8.1 47.0 8.1 C 47.8 8.1 48.6 8.8 48.6 9.8 C 48.6 10.2 48.5 10.6 48.2 11.0 C 45.0 15.7 42.3 21.5 40.7 27.9 Z " transform="scale(1,-1)" stroke-dasharray="181.0525427440747" stroke-dashoffset="181.0525427440747"><animate attributeName="stroke-dashoffset" from="181.0525427440747" to="0" dur="5.431576282322241s" begin="anim0.end" fill="freeze" id="anim1" /></path><path d="M 7.4 35.1 L 7.4 24.4 L 3.9 24.4 C 3.0 24.4 2.5 23.7 2.5 22.9 C 2.5 22.1 3.0 21.4 3.9 21.4 L 7.4 21.4 L 7.4 6.9 C 6.0 6.6 4.5 6.2 3.1 6.1 C 2.0 5.9 1.6 5.2 1.6 4.4 C 1.6 3.4 2.2 2.5 3.5 2.7 C 7.0 3.3 11.4 4.5 14.9 5.8 C 15.8 6.1 16.1 6.7 16.1 7.3 C 16.1 8.1 15.5 8.8 14.6 8.8 C 14.4 8.8 14.1 8.8 13.9 8.7 C 12.9 8.3 11.8 8.1 10.7 7.7 L 10.7 21.4 L 14.1 21.4 C 15.1 21.4 15.5 22.1 15.5 22.9 C 15.5 23.7 15.1 24.4 14.1 24.4 L 10.7 24.4 L 10.7 35.1 L 14.7 35.1 C 15.7 35.1 16.1 35.9 16.1 36.6 C 16.1 37.4 15.7 38.1 14.7 38.1 L 3.5 38.1 C 2.5 38.1 2.1 37.4 2.1 36.6 C 2.1 35.9 2.5 35.1 3.5 35.1 Z" transform="scale(1,-1)" stroke-dasharray="131.20244410334078" stroke-dashoffset="131.20244410334078"><animate attributeName="stroke-dashoffset" from="131.20244410334078" to="0" dur="3.9360733231002234s" begin="anim1.end" fill="freeze" id="anim_end" /></path></g></svg>