<?xml version='1.0' encoding='utf-8'?>
<svg viewBox="0 -44.0 50.0 50.0" version="1.1" xmlns="http://www.w3.org/2000/svg"><rect x="-1000" y="-1000" width="2000" height="2000" stroke="white" fill="white" /><g style="fill:none;stroke:#000000;stroke-width:1"><path d="M 23.5 13.9 L 23.5 20.2 L 24.6 20.2 C 27.6 20.2 28.8 21.3 28.8 24.0 L 28.8 27.2 C 28.8 29.7 27.6 30.8 24.6 30.8 L 23.5 30.8 L 23.5 36.6 L 28.2 36.6 C 29.2 36.6 29.7 37.4 29.7 38.1 C 29.7 38.9 29.2 39.7 28.2 39.7 L 17.6 39.7 C 14.1 39.7 12.6 38.3 12.6 35.2 L 12.6 15.4 C 12.6 12.3 14.1 10.9 17.6 10.9 L 28.2 10.9 C 29.2 10.9 29.7 11.6 29.7 12.4 C 29.7 13.1 29.2 13.9 28.2 13.9 Z " transform="scale(1,-1)" stroke-dasharray="106.03474164532248" stroke-dashoffset="106.03474164532248"><animate attributeName="stroke-dashoffset" from="106.03474164532248" to="0" dur="3.1810422493596744s" begin="0s; 15s; 30s; 45s; 60s" fill="freeze" id="anim0" /></path><path d="M 20.2 13.9 L 18.0 13.9 C 16.4 13.9 15.9 14.4 15.9 15.9 L 15.9 20.2 L 20.2 20.2 Z " transform="scale(1,-1)" stroke-dasharray="20.518436889671516" stroke-dashoffset="20.518436889671516"><animate attributeName="stroke-dashoffset" from="20.518436889671516" to="0" dur="0.6155531066901455s" begin="anim0.end" fill="freeze" id="anim1" /></path><path d="M 20.2 36.6 L 20.2 30.8 L 15.9 30.8 L 15.9 34.7 C 15.9 36.1 16.4 36.6 18.0 36.6 Z " transform="scale(1,-1)" stroke-dasharray="19.52948463542455" stroke-dashoffset="19.52948463542455"><animate attributeName="stroke-dashoffset" from="19.52948463542455" to="0" dur="0.5858845390627364s" begin="anim1.end" fill="freeze" id="anim2" /></path><path d="M 15.9 28.0 L 24.2 28.0 C 25.3 28.0 25.7 27.7 25.7 26.7 L 25.7 24.3 C 25.7 23.4 25.4 23.1 24.2 23.1 L 15.9 23.1 Z " transform="scale(1,-1)" stroke-dasharray="28.5016681046429" stroke-dashoffset="28.5016681046429"><animate attributeName="stroke-dashoffset" from="28.5016681046429" to="0" dur="0.8550500431392869s" begin="anim2.end" fill="freeze" id="anim3" /></path><path d="M 34.9 24.2 L 40.9 24.2 C 44.7 24.2 45.7 25.8 45.7 28.6 L 45.7 35.4 C 45.7 38.1 44.7 39.7 40.9 39.7 L 36.3 39.7 C 32.5 39.7 31.6 38.1 31.6 35.3 L 31.6 15.1 C 31.6 11.7 32.9 10.7 38.8 10.7 C 44.8 10.7 47.2 12.5 47.7 17.6 C 47.8 18.7 46.9 19.3 46.0 19.3 C 45.2 19.3 44.4 18.9 44.3 17.9 C 44.0 14.6 42.8 13.8 38.8 13.8 C 35.5 13.8 34.9 14.2 34.9 15.4 Z " transform="scale(1,-1)" stroke-dasharray="109.61653514469137" stroke-dashoffset="109.61653514469137"><animate attributeName="stroke-dashoffset" from="109.61653514469137" to="0" dur="3.288496054340741s" begin="anim3.end" fill="freeze" id="anim4" /></path><path d="M 34.9 27.2 L 34.9 35.0 C 34.9 36.3 35.2 36.7 36.6 36.7 L 40.6 36.7 C 42.0 36.7 42.4 36.4 42.4 35.1 L 42.4 28.8 C 42.4 27.3 41.7 27.2 40.4 27.2 Z " transform="scale(1,-1)" stroke-dasharray="32.38549725794148" stroke-dashoffset="32.38549725794148"><animate attributeName="stroke-dashoffset" from="32.38549725794148" to="0" dur="0.9715649177382444s" begin="anim4.end" fill="freeze" id="anim5" /></path><path d="M 9.2 39.4 C 9.2 40.5 8.4 41.0 7.6 41.0 C 6.7 41.0 5.9 40.5 5.9 39.4 L 5.9 26.8 C 5.9 18.7 4.7 14.6 2.4 11.1 C 2.1 10.6 2.0 10.2 2.0 9.9 C 2.0 9.0 2.7 8.3 3.5 8.3 C 4.0 8.3 4.7 8.7 5.2 9.4 C 7.9 13.4 9.2 18.2 9.2 26.4 Z " transform="scale(1,-1)" stroke-dasharray="70.65762677182568" stroke-dashoffset="70.65762677182568"><animate attributeName="stroke-dashoffset" from="70.65762677182568" to="0" dur="2.11972880315477s" begin="anim5.end" fill="freeze" id="anim6" /></path><path d="M 20.5 6.0 C 20.1 7.0 19.3 7.5 18.6 7.5 C 17.8 7.5 16.9 6.8 16.9 5.8 C 16.9 5.6 17.0 5.3 17.1 5.0 C 17.8 2.8 18.2 1.0 18.6 -1.1 C 18.8 -2.2 19.6 -2.8 20.5 -2.8 C 21.5 -2.8 22.6 -1.8 22.3 -0.2 C 21.9 1.8 21.3 4.0 20.5 6.0 Z " transform="scale(1,-1)" stroke-dasharray="25.19564707022427" stroke-dashoffset="25.19564707022427"><animate attributeName="stroke-dashoffset" from="25.19564707022427" to="0" dur="0.755869412106728s" begin="anim6.end" fill="freeze" id="anim7" /></path><path d="M 8.7 6.5 C 7.8 4.1 6.3 1.7 4.9 -0.2 C 4.5 -0.8 4.3 -1.2 4.3 -1.7 C 4.3 -2.7 5.1 -3.4 6.1 -3.4 C 6.7 -3.4 7.5 -3.1 8.0 -2.2 C 9.6 -0.1 11.0 2.7 12.0 5.1 C 12.2 5.5 12.2 5.8 12.2 6.1 C 12.2 7.1 11.4 7.8 10.5 7.8 C 9.8 7.8 9.1 7.4 8.7 6.5 Z " transform="scale(1,-1)" stroke-dasharray="28.89825894969804" stroke-dashoffset="28.89825894969804"><animate attributeName="stroke-dashoffset" from="28.89825894969804" to="0" dur="0.8669477684909411s" begin="anim7.end" fill="freeze" id="anim8" /></path><path d="M 30.7 6.7 C 30.2 7.5 29.6 7.8 28.9 7.8 C 28.1 7.8 27.3 7.2 27.3 6.2 C 27.3 6.0 27.4 5.6 27.6 5.2 C 28.5 3.4 29.4 1.0 30.0 -1.0 C 30.2 -2.0 31.0 -2.5 31.8 -2.5 C 32.7 -2.5 33.6 -1.7 33.6 -0.5 C 33.6 -0.2 33.6 0.2 33.5 0.5 C 32.9 2.4 31.8 4.9 30.7 6.7 Z " transform="scale(1,-1)" stroke-dasharray="25.803791714774743" stroke-dashoffset="25.803791714774743"><animate attributeName="stroke-dashoffset" from="25.803791714774743" to="0" dur="0.7741137514432422s" begin="anim8.end" fill="freeze" id="anim9" /></path><path d="M 40.9 7.4 C 40.3 7.9 39.8 8.2 39.2 8.2 C 38.2 8.2 37.4 7.4 37.4 6.5 C 37.4 6.2 37.6 5.8 37.9 5.4 C 39.4 3.2 40.8 1.4 41.9 -1.0 C 42.3 -1.9 43.1 -2.2 43.8 -2.2 C 44.8 -2.2 45.7 -1.6 45.7 -0.4 C 45.7 0.0 45.6 0.5 45.3 1.0 C 44.2 3.1 42.4 5.4 40.9 7.4 Z" transform="scale(1,-1)" stroke-dasharray="28.026611436083222" stroke-dashoffset="28.026611436083222"><animate attributeName="stroke-dashoffset" from="28.026611436083222" to="0" dur="0.8407983430824967s" begin="anim9.end" fill="freeze" id="anim_end" /></path></g></svg>