<?xml version='1.0' encoding='utf-8'?>
<svg viewBox="0 -44.0 50.0 50.0" version="1.1" xmlns="http://www.w3.org/2000/svg"><rect x="-1000" y="-1000" width="2000" height="2000" stroke="white" fill="white" /><g style="fill:none;stroke:#000000;stroke-width:1"><path d="M 12.8 33.0 C 13.9 31.2 14.7 29.7 15.4 27.8 C 15.8 27.0 16.4 26.6 17.1 26.6 C 17.9 26.6 18.7 27.2 18.7 28.2 C 18.7 28.5 18.6 28.8 18.4 29.1 C 17.8 30.5 17.1 31.8 16.3 33.0 L 22.3 33.0 C 23.3 33.0 23.8 33.7 23.8 34.5 C 23.8 35.1 23.3 35.9 22.3 35.9 L 11.4 35.9 C 12.0 37.0 12.5 38.1 13.0 39.2 C 13.1 39.6 13.1 39.8 13.1 40.1 C 13.1 41.0 12.4 41.6 11.5 41.6 C 10.8 41.6 10.1 41.2 9.8 40.3 C 8.2 36.4 5.9 32.5 3.4 29.8 C 2.8 29.2 2.6 28.7 2.6 28.2 C 2.6 27.5 3.2 26.9 4.1 26.9 C 4.7 26.9 5.2 27.2 5.8 27.7 C 7.2 29.3 8.6 31.1 9.8 33.0 Z " transform="scale(1,-1)" stroke-dasharray="74.81618623482005" stroke-dashoffset="74.81618623482005"><animate attributeName="stroke-dashoffset" from="74.81618623482005" to="0" dur="2.2444855870446014s" begin="0s; 15s; 30s; 45s; 60s" fill="freeze" id="anim0" /></path><path d="M 32.7 33.0 C 33.5 31.7 34.2 30.4 34.7 29.2 C 35.1 28.4 35.8 28.0 36.4 28.0 C 37.2 28.0 38.0 28.6 38.0 29.6 C 38.0 29.9 37.9 30.2 37.7 30.6 C 37.3 31.3 36.8 32.1 36.2 33.0 L 45.6 33.0 C 46.6 33.0 47.1 33.7 47.1 34.5 C 47.1 35.1 46.6 35.9 45.6 35.9 L 31.0 35.9 C 31.6 37.0 32.1 38.1 32.6 39.2 C 32.7 39.6 32.8 39.8 32.8 40.1 C 32.8 41.0 32.0 41.5 31.2 41.5 C 30.5 41.5 29.8 41.2 29.4 40.4 C 28.0 36.6 26.0 33.1 23.7 30.4 C 23.2 29.9 23.0 29.4 23.0 29.0 C 23.0 28.2 23.7 27.6 24.5 27.6 C 25.0 27.6 25.6 27.9 26.1 28.5 C 27.2 29.8 28.4 31.3 29.4 33.0 Z " transform="scale(1,-1)" stroke-dasharray="76.98923503514114" stroke-dashoffset="76.98923503514114"><animate attributeName="stroke-dashoffset" from="76.98923503514114" to="0" dur="2.309677051054234s" begin="anim0.end" fill="freeze" id="anim1" /></path><path d="M 11.1 20.0 C 11.1 11.3 8.5 4.4 3.1 -0.4 C 2.5 -0.9 2.2 -1.5 2.2 -2.0 C 2.2 -2.9 3.0 -3.6 3.9 -3.6 C 4.3 -3.6 4.8 -3.4 5.2 -3.1 C 11.4 2.4 14.6 10.4 14.6 19.7 L 14.6 20.8 C 17.4 21.0 20.2 21.2 23.0 21.6 L 23.0 -2.8 C 23.0 -3.8 23.9 -4.2 24.8 -4.2 C 25.7 -4.2 26.6 -3.8 26.6 -2.8 L 26.6 22.1 C 29.1 22.5 31.6 22.9 34.1 23.4 C 35.1 12.9 38.7 3.9 44.2 -2.2 C 44.7 -2.9 45.3 -3.1 45.9 -3.1 C 46.9 -3.1 47.8 -2.3 47.8 -1.3 C 47.8 -0.8 47.6 -0.2 47.1 0.2 C 41.6 5.9 38.2 13.9 37.1 24.1 C 37.8 24.2 38.4 24.4 39.0 24.5 C 40.2 24.8 40.7 25.5 40.7 26.2 C 40.7 27.1 40.0 27.9 38.9 27.9 C 38.7 27.9 38.5 27.9 38.2 27.8 C 31.2 25.9 21.9 24.4 14.2 23.9 C 13.9 24.2 13.4 24.4 12.9 24.4 C 12.0 24.4 11.1 23.9 11.1 22.8 Z" transform="scale(1,-1)" stroke-dasharray="225.8149475790278" stroke-dashoffset="225.8149475790278"><animate attributeName="stroke-dashoffset" from="225.8149475790278" to="0" dur="6.774448427370833s" begin="anim1.end" fill="freeze" id="anim_end" /></path></g></svg>