<?xml version='1.0' encoding='utf-8'?>
<svg viewBox="0 -44.0 50.0 50.0" version="1.1" xmlns="http://www.w3.org/2000/svg"><rect x="-1000" y="-1000" width="2000" height="2000" stroke="white" fill="white" /><g style="fill:none;stroke:#000000;stroke-width:1"><path d="M 17.6 10.3 C 21.0 10.3 22.2 11.8 22.2 14.5 L 22.2 21.8 C 22.2 24.5 21.0 26.0 17.6 26.0 L 14.6 26.0 L 14.6 29.0 L 19.2 29.0 C 20.2 29.0 20.7 29.7 20.7 30.4 C 20.7 31.2 20.2 31.9 19.2 31.9 L 14.6 31.9 L 14.6 34.8 C 14.6 35.8 13.8 36.2 13.0 36.2 C 12.2 36.2 11.4 35.8 11.4 34.8 L 11.4 31.9 L 7.1 31.9 C 6.2 31.9 5.7 31.2 5.7 30.4 C 5.7 29.7 6.2 29.0 7.1 29.0 L 11.4 29.0 L 11.4 26.0 L 8.8 26.0 C 5.5 26.0 4.2 24.5 4.2 21.8 L 4.2 14.5 C 4.2 11.8 5.5 10.3 8.8 10.3 L 11.4 10.3 L 11.4 7.0 L 2.8 7.0 C 1.9 7.0 1.4 6.2 1.4 5.5 C 1.4 4.7 1.9 4.0 2.8 4.0 L 11.4 4.0 L 11.4 -2.8 C 11.4 -3.8 12.2 -4.2 13.0 -4.2 C 13.8 -4.2 14.6 -3.8 14.6 -2.8 L 14.6 4.0 L 21.6 4.0 C 22.6 4.0 23.1 4.7 23.1 5.5 C 23.1 6.2 22.6 7.0 21.6 7.0 L 14.6 7.0 L 14.6 10.3 Z " transform="scale(1,-1)" stroke-dasharray="163.6876577443671" stroke-dashoffset="163.6876577443671"><animate attributeName="stroke-dashoffset" from="163.6876577443671" to="0" dur="4.910629732331013s" begin="0s; 15s; 30s; 45s; 60s" fill="freeze" id="anim0" /></path><path d="M 14.6 13.1 L 14.6 16.9 L 19.1 16.9 L 19.1 14.9 C 19.0 13.4 18.5 13.2 17.1 13.1 Z " transform="scale(1,-1)" stroke-dasharray="15.914682342605179" stroke-dashoffset="15.914682342605179"><animate attributeName="stroke-dashoffset" from="15.914682342605179" to="0" dur="0.47744047027815534s" begin="anim0.end" fill="freeze" id="anim1" /></path><path d="M 19.1 19.6 L 14.6 19.6 L 14.6 23.2 L 17.1 23.2 C 18.7 23.2 19.1 22.8 19.1 21.4 Z " transform="scale(1,-1)" stroke-dasharray="15.601701357904187" stroke-dashoffset="15.601701357904187"><animate attributeName="stroke-dashoffset" from="15.601701357904187" to="0" dur="0.46805104073712556s" begin="anim1.end" fill="freeze" id="anim2" /></path><path d="M 11.4 23.2 L 11.4 19.6 L 7.4 19.6 L 7.4 21.4 C 7.4 22.8 7.8 23.2 9.4 23.2 Z " transform="scale(1,-1)" stroke-dasharray="14.601701357904183" stroke-dashoffset="14.601701357904183"><animate attributeName="stroke-dashoffset" from="14.601701357904183" to="0" dur="0.4380510407371255s" begin="anim2.end" fill="freeze" id="anim3" /></path><path d="M 7.4 16.9 L 11.4 16.9 L 11.4 13.1 L 9.4 13.1 C 7.8 13.1 7.4 13.5 7.4 14.9 Z " transform="scale(1,-1)" stroke-dasharray="15.001701357904185" stroke-dashoffset="15.001701357904185"><animate attributeName="stroke-dashoffset" from="15.001701357904185" to="0" dur="0.45005104073712554s" begin="anim3.end" fill="freeze" id="anim4" /></path><path d="M 38.7 22.2 L 38.7 31.5 L 43.3 31.5 C 44.2 31.5 44.4 31.2 44.2 30.7 C 44.0 29.8 43.5 28.7 42.9 27.7 C 42.6 27.3 42.5 27.0 42.5 26.6 C 42.5 25.8 43.2 25.1 44.1 25.1 C 44.7 25.1 45.2 25.4 45.7 26.2 C 46.5 27.4 47.1 28.9 47.5 30.2 C 47.7 30.7 47.7 31.1 47.7 31.5 C 47.7 33.1 46.6 34.5 44.2 34.5 L 38.7 34.5 L 38.7 40.7 C 38.7 41.7 37.8 42.2 37.0 42.2 C 36.1 42.2 35.3 41.7 35.3 40.7 L 35.3 34.5 L 30.9 34.5 C 27.4 34.5 26.2 33.0 26.2 30.1 L 26.2 25.3 C 26.2 12.5 24.5 4.8 20.7 -1.0 C 20.5 -1.4 20.3 -1.8 20.3 -2.1 C 20.3 -3.1 21.1 -3.6 21.9 -3.6 C 22.5 -3.6 23.1 -3.4 23.5 -2.7 C 27.0 2.6 28.9 9.3 29.4 19.2 L 31.5 19.2 C 31.6 18.4 31.8 17.7 31.9 16.9 C 32.3 15.1 33.0 13.2 33.7 11.4 C 34.4 9.7 35.2 8.0 36.2 6.4 C 33.8 3.4 30.9 0.9 27.8 -0.8 C 27.1 -1.2 26.9 -1.7 26.9 -2.2 C 26.9 -3.0 27.5 -3.8 28.4 -3.8 C 28.7 -3.8 29.0 -3.8 29.2 -3.6 C 32.5 -2.0 35.5 0.6 38.1 3.6 C 40.3 0.8 42.8 -1.5 45.6 -3.0 C 46.0 -3.2 46.4 -3.4 46.7 -3.4 C 47.7 -3.4 48.4 -2.5 48.4 -1.6 C 48.4 -1.0 48.1 -0.3 47.3 0.2 C 44.6 1.7 42.2 3.7 40.2 6.3 C 42.7 9.8 44.6 13.9 45.5 17.9 C 45.6 18.4 45.7 18.8 45.7 19.1 C 45.7 21.0 44.4 22.2 41.8 22.2 Z " transform="scale(1,-1)" stroke-dasharray="222.67657920299908" stroke-dashoffset="222.67657920299908"><animate attributeName="stroke-dashoffset" from="222.67657920299908" to="0" dur="6.680297376089972s" begin="anim4.end" fill="freeze" id="anim5" /></path><path d="M 35.3 22.2 L 29.5 22.2 C 29.6 23.1 29.6 24.0 29.6 25.0 L 29.6 29.9 C 29.6 31.0 30.0 31.5 31.3 31.5 L 35.3 31.5 Z " transform="scale(1,-1)" stroke-dasharray="29.530547283602957" stroke-dashoffset="29.530547283602957"><animate attributeName="stroke-dashoffset" from="29.530547283602957" to="0" dur="0.8859164185080887s" begin="anim5.end" fill="freeze" id="anim6" /></path><path d="M 41.2 19.2 C 42.1 19.2 42.2 18.9 42.1 18.2 C 41.4 15.1 40.0 12.0 38.2 9.2 C 36.5 12.4 35.3 15.8 34.6 19.2 Z " transform="scale(1,-1)" stroke-dasharray="28.794294119743775" stroke-dashoffset="28.794294119743775"><animate attributeName="stroke-dashoffset" from="28.794294119743775" to="0" dur="0.8638288235923132s" begin="anim6.end" fill="freeze" id="anim7" /></path><path d="M 6.6 40.2 C 3.4 40.2 2.1 38.7 2.1 36.5 L 2.1 33.1 C 2.1 32.1 3.0 31.7 3.8 31.7 C 4.7 31.7 5.5 32.1 5.5 33.1 L 5.5 36.1 C 5.5 36.9 5.8 37.2 7.2 37.2 L 18.9 37.2 C 20.4 37.2 20.7 36.9 20.7 36.1 L 20.7 33.1 C 20.7 32.1 21.6 31.7 22.4 31.7 C 23.2 31.7 24.0 32.1 24.0 33.1 L 24.0 36.5 C 24.0 38.7 22.8 40.2 19.6 40.2 Z" transform="scale(1,-1)" stroke-dasharray="65.37903125509287" stroke-dashoffset="65.37903125509287"><animate attributeName="stroke-dashoffset" from="65.37903125509287" to="0" dur="1.961370937652786s" begin="anim7.end" fill="freeze" id="anim_end" /></path></g></svg>