<?xml version='1.0' encoding='utf-8'?>
<svg viewBox="0 -44.0 50.0 50.0" version="1.1" xmlns="http://www.w3.org/2000/svg"><rect x="-1000" y="-1000" width="2000" height="2000" stroke="white" fill="white" /><g style="fill:none;stroke:#000000;stroke-width:1"><path d="M 23.0 -2.9 C 23.0 -3.9 23.9 -4.5 24.8 -4.5 C 25.7 -4.5 26.5 -3.9 26.5 -2.9 L 26.5 8.7 C 31.1 9.0 35.6 9.6 40.1 10.1 C 41.0 9.2 41.9 8.2 42.7 7.4 C 43.2 6.9 43.7 6.7 44.2 6.7 C 45.1 6.7 45.9 7.4 45.9 8.3 C 45.9 8.7 45.7 9.1 45.3 9.6 C 43.4 11.7 40.2 14.6 37.8 16.2 C 37.4 16.4 37.0 16.5 36.6 16.5 C 35.8 16.5 35.0 15.9 35.0 15.1 C 35.0 14.8 35.2 14.4 35.6 14.0 C 36.2 13.5 36.9 13.0 37.6 12.5 C 33.9 12.1 30.2 11.8 26.6 11.6 C 28.7 13.6 30.8 15.9 32.6 18.2 C 32.9 18.6 33.1 18.9 33.1 19.3 C 33.1 20.2 32.2 21.0 31.4 21.0 C 30.9 21.0 30.4 20.7 30.0 20.2 C 28.2 17.9 26.6 15.7 24.6 13.8 C 23.6 14.7 22.5 15.6 21.4 16.4 C 22.9 17.9 24.2 19.6 25.4 21.1 C 25.7 21.5 25.8 21.9 25.8 22.2 C 25.8 23.2 25.0 23.8 24.1 23.8 C 23.6 23.8 23.0 23.6 22.6 22.9 C 21.5 21.2 20.2 19.6 18.9 18.2 C 18.2 18.7 17.6 19.1 16.9 19.5 C 16.5 19.7 16.2 19.8 15.8 19.8 C 14.9 19.8 14.2 19.1 14.2 18.4 C 14.2 17.9 14.5 17.4 15.1 17.1 C 17.2 15.7 19.8 13.9 22.4 11.6 C 22.2 11.5 22.2 11.5 22.1 11.4 C 16.4 11.2 10.9 11.1 6.1 11.1 C 4.9 11.1 4.3 10.3 4.3 9.5 C 4.3 8.7 4.9 7.8 6.1 7.8 C 11.2 7.9 17.0 8.1 23.0 8.5 Z " transform="scale(1,-1)" stroke-dasharray="180.10888339415342" stroke-dashoffset="180.10888339415342"><animate attributeName="stroke-dashoffset" from="180.10888339415342" to="0" dur="5.403266501824603s" begin="0s; 15s; 30s; 45s; 60s" fill="freeze" id="anim0" /></path><path d="M 14.2 25.7 C 12.8 25.4 11.4 25.1 10.0 24.9 L 10.0 35.0 C 10.0 36.1 9.1 36.6 8.2 36.6 C 7.4 36.6 6.6 36.1 6.6 35.0 L 6.6 24.4 C 5.8 24.2 4.9 24.1 4.1 24.0 C 3.0 23.9 2.6 23.2 2.6 22.5 C 2.6 21.6 3.3 20.6 4.5 20.8 C 11.2 21.8 18.2 23.2 24.2 25.0 C 25.1 25.2 25.5 25.9 25.5 26.5 C 25.5 27.2 25.0 27.9 24.1 27.9 C 23.9 27.9 23.7 27.9 23.5 27.8 C 21.5 27.3 19.6 26.8 17.6 26.4 L 17.6 32.0 L 23.0 32.0 C 24.0 32.0 24.5 32.8 24.5 33.5 C 24.5 34.2 24.0 34.9 23.0 34.9 L 17.6 34.9 L 17.6 39.7 C 17.6 40.8 16.8 41.2 15.9 41.2 C 15.0 41.2 14.2 40.8 14.2 39.7 Z " transform="scale(1,-1)" stroke-dasharray="114.26361522448418" stroke-dashoffset="114.26361522448418"><animate attributeName="stroke-dashoffset" from="114.26361522448418" to="0" dur="3.4279084567345253s" begin="anim0.end" fill="freeze" id="anim1" /></path><path d="M 31.1 30.9 C 35.0 31.8 39.2 33.1 42.8 34.8 C 43.6 35.1 44.0 35.8 44.0 36.4 C 44.0 37.1 43.3 38.0 42.3 38.0 C 42.0 38.0 41.7 37.9 41.3 37.7 C 38.4 36.2 34.6 34.9 31.1 33.9 L 31.1 39.8 C 31.1 40.8 30.2 41.2 29.4 41.2 C 28.5 41.2 27.7 40.8 27.7 39.8 L 27.7 26.6 C 27.7 23.4 28.9 22.5 36.5 22.5 C 44.8 22.5 47.0 23.8 47.5 28.6 C 47.6 29.7 46.7 30.4 45.8 30.4 C 45.1 30.4 44.3 29.9 44.2 29.0 C 43.9 26.1 42.9 25.6 36.5 25.6 C 31.6 25.6 31.1 26.0 31.1 27.6 Z " transform="scale(1,-1)" stroke-dasharray="103.13427990514549" stroke-dashoffset="103.13427990514549"><animate attributeName="stroke-dashoffset" from="103.13427990514549" to="0" dur="3.0940283971543647s" begin="anim1.end" fill="freeze" id="anim2" /></path><path d="M 15.0 6.2 C 12.8 4.0 9.3 1.9 6.2 0.4 C 5.6 0.1 5.2 -0.5 5.2 -1.1 C 5.2 -1.9 5.9 -2.7 6.9 -2.7 C 7.1 -2.7 7.4 -2.6 7.7 -2.5 C 11.2 -0.9 14.6 1.5 17.2 3.9 C 17.6 4.2 17.8 4.7 17.8 5.1 C 17.8 6.0 17.0 6.7 16.1 6.7 C 15.7 6.7 15.3 6.5 15.0 6.2 Z " transform="scale(1,-1)" stroke-dasharray="32.60767477811496" stroke-dashoffset="32.60767477811496"><animate attributeName="stroke-dashoffset" from="32.60767477811496" to="0" dur="0.9782302433434489s" begin="anim2.end" fill="freeze" id="anim3" /></path><path d="M 34.5 6.5 C 34.1 6.9 33.6 7.0 33.2 7.0 C 32.4 7.0 31.8 6.4 31.8 5.6 C 31.8 5.1 31.9 4.7 32.4 4.2 C 34.7 2.1 38.4 -0.2 42.0 -1.9 C 42.2 -2.0 42.6 -2.1 42.8 -2.1 C 43.8 -2.1 44.5 -1.2 44.5 -0.4 C 44.5 0.2 44.2 0.9 43.3 1.3 C 40.1 2.8 36.6 4.8 34.5 6.5 Z" transform="scale(1,-1)" stroke-dasharray="32.5609904076037" stroke-dashoffset="32.5609904076037"><animate attributeName="stroke-dashoffset" from="32.5609904076037" to="0" dur="0.9768297122281109s" begin="anim3.end" fill="freeze" id="anim_end" /></path></g></svg>