<?xml version='1.0' encoding='utf-8'?>
<svg viewBox="0 -44.0 50.0 50.0" version="1.1" xmlns="http://www.w3.org/2000/svg"><rect x="-1000" y="-1000" width="2000" height="2000" stroke="white" fill="white" /><g style="fill:none;stroke:#000000;stroke-width:1"><path d="M 36.9 29.0 L 21.5 29.0 C 20.5 29.0 20.0 28.2 20.0 27.4 C 20.0 26.6 20.5 25.8 21.5 25.8 L 34.8 25.8 C 31.7 19.0 26.1 11.8 20.9 7.8 C 20.2 7.3 20.0 6.7 20.0 6.2 C 20.0 5.2 20.7 4.5 21.7 4.5 C 22.1 4.5 22.5 4.6 22.9 5.0 C 28.5 9.3 34.1 16.4 37.1 23.1 L 36.9 14.3 L 36.9 2.5 C 36.9 1.2 36.4 0.8 35.2 0.8 C 34.5 0.8 33.5 0.9 32.5 1.1 C 31.2 1.3 30.4 0.4 30.4 -0.7 C 30.4 -1.4 30.9 -2.1 32.0 -2.4 C 33.1 -2.7 34.1 -2.8 35.4 -2.8 C 38.8 -2.8 40.5 -1.5 40.5 2.3 L 40.5 25.8 L 46.6 25.8 C 47.6 25.8 48.1 26.6 48.1 27.4 C 48.1 28.2 47.6 29.0 46.6 29.0 L 40.5 29.0 L 40.5 39.6 C 40.5 40.6 39.6 41.1 38.7 41.1 C 37.8 41.1 36.9 40.6 36.9 39.6 Z " transform="scale(1,-1)" stroke-dasharray="196.43521361277539" stroke-dashoffset="196.43521361277539"><animate attributeName="stroke-dashoffset" from="196.43521361277539" to="0" dur="5.893056408383261s" begin="0s; 15s; 30s; 45s; 60s" fill="freeze" id="anim0" /></path><path d="M 12.6 30.4 C 14.9 33.1 17.1 36.1 18.6 38.9 C 18.8 39.2 18.9 39.6 18.9 39.9 C 18.9 40.8 18.1 41.5 17.3 41.5 C 16.8 41.5 16.2 41.2 15.8 40.5 C 14.5 38.1 12.8 35.5 10.8 33.1 C 9.7 34.6 8.5 36.1 7.2 37.6 C 6.7 38.1 6.2 38.3 5.7 38.3 C 4.9 38.3 4.2 37.7 4.2 36.9 C 4.2 36.5 4.4 36.1 4.8 35.7 C 6.2 34.0 7.5 32.4 8.6 30.7 C 7.1 29.0 5.4 27.5 3.8 26.2 C 3.1 25.8 2.8 25.2 2.8 24.7 C 2.8 23.9 3.4 23.2 4.2 23.2 C 4.5 23.2 5.0 23.4 5.4 23.7 C 7.0 24.8 8.7 26.2 10.2 27.9 C 11.2 26.2 11.8 24.5 12.4 22.6 C 9.9 17.9 6.5 13.7 3.4 11.2 C 2.8 10.7 2.6 10.1 2.6 9.6 C 2.6 8.8 3.2 8.1 4.1 8.1 C 4.5 8.1 5.0 8.2 5.4 8.6 C 8.3 11.0 11.2 14.5 13.4 18.1 C 13.7 16.2 13.9 14.1 13.9 11.8 C 13.9 2.2 11.8 0.3 9.3 0.3 C 8.7 0.3 7.7 0.5 7.1 0.7 C 6.9 0.7 6.7 0.8 6.5 0.8 C 5.5 0.8 4.9 -0.1 4.9 -0.9 C 4.9 -1.6 5.3 -2.4 6.2 -2.7 C 7.2 -3.0 8.4 -3.1 9.6 -3.1 C 14.0 -3.1 17.3 0.3 17.3 11.4 C 17.3 18.9 15.8 25.0 12.6 30.4 Z" transform="scale(1,-1)" stroke-dasharray="168.5946205893895" stroke-dashoffset="168.5946205893895"><animate attributeName="stroke-dashoffset" from="168.5946205893895" to="0" dur="5.057838617681685s" begin="anim0.end" fill="freeze" id="anim_end" /></path></g></svg>