<?xml version='1.0' encoding='utf-8'?>
<svg viewBox="0 -44.0 50.0 50.0" version="1.1" xmlns="http://www.w3.org/2000/svg"><rect x="-1000" y="-1000" width="2000" height="2000" stroke="white" fill="white" /><g style="fill:none;stroke:#000000;stroke-width:1"><path d="M 33.6 8.2 C 36.6 10.0 39.6 12.2 41.9 14.6 C 42.3 15.0 42.5 15.5 42.5 16.0 C 42.5 16.9 41.7 17.6 40.8 17.6 C 40.3 17.6 39.8 17.4 39.4 16.9 C 37.2 14.5 34.5 12.2 32.0 10.6 C 30.7 12.6 29.9 14.8 29.3 17.1 C 29.4 17.9 29.5 18.7 29.6 19.5 C 29.7 20.7 28.8 21.2 27.8 21.2 C 27.0 21.2 26.1 20.7 26.1 19.6 C 25.5 9.4 19.9 2.6 11.2 -0.7 C 10.3 -1.0 9.9 -1.7 9.9 -2.2 C 9.9 -3.0 10.6 -3.8 11.6 -3.8 C 11.8 -3.8 12.1 -3.7 12.3 -3.6 C 19.6 -1.0 25.5 4.4 28.1 12.1 C 31.0 4.7 37.0 -0.6 44.7 -3.1 C 45.0 -3.2 45.2 -3.2 45.5 -3.2 C 46.5 -3.2 47.2 -2.4 47.2 -1.5 C 47.2 -0.8 46.8 0.1 45.7 0.4 C 40.9 2.0 36.6 4.6 33.6 8.2 Z " transform="scale(1,-1)" stroke-dasharray="140.21977150676713" stroke-dashoffset="140.21977150676713"><animate attributeName="stroke-dashoffset" from="140.21977150676713" to="0" dur="4.206593145203014s" begin="0s; 15s; 30s; 45s; 60s" fill="freeze" id="anim0" /></path><path d="M 27.1 33.0 L 27.1 40.7 C 27.1 41.8 26.2 42.2 25.3 42.2 C 24.5 42.2 23.6 41.8 23.6 40.7 L 23.6 33.0 L 14.0 33.0 C 12.2 33.0 11.8 33.2 11.8 34.4 L 11.8 38.7 C 11.8 39.7 11.0 40.2 10.1 40.2 C 9.2 40.2 8.3 39.7 8.3 38.7 L 8.3 33.6 C 8.3 31.1 9.9 30.0 13.0 30.0 L 38.3 30.0 C 41.5 30.0 43.0 31.1 43.0 33.6 L 43.0 38.7 C 43.0 39.7 42.1 40.2 41.2 40.2 C 40.4 40.2 39.5 39.7 39.5 38.7 L 39.5 34.4 C 39.5 33.2 39.1 33.0 37.4 33.0 Z " transform="scale(1,-1)" stroke-dasharray="114.61094546018157" stroke-dashoffset="114.61094546018157"><animate attributeName="stroke-dashoffset" from="114.61094546018157" to="0" dur="3.438328363805447s" begin="anim0.end" fill="freeze" id="anim1" /></path><path d="M 12.2 25.8 C 8.0 25.8 6.6 24.5 6.6 21.2 L 6.6 18.2 C 6.6 10.6 5.0 4.4 2.1 0.0 C 1.8 -0.5 1.6 -0.9 1.6 -1.3 C 1.6 -2.2 2.4 -2.9 3.2 -2.9 C 3.9 -2.9 4.5 -2.6 5.1 -1.8 C 8.2 3.2 10.2 9.8 10.2 18.1 L 10.2 20.7 C 10.2 22.1 10.6 22.7 12.7 22.7 L 44.6 22.7 C 45.6 22.7 46.1 23.5 46.1 24.2 C 46.1 25.0 45.6 25.8 44.6 25.8 Z " transform="scale(1,-1)" stroke-dasharray="132.97911805058243" stroke-dashoffset="132.97911805058243"><animate attributeName="stroke-dashoffset" from="132.97911805058243" to="0" dur="3.9893735415174727s" begin="anim1.end" fill="freeze" id="anim2" /></path><path d="M 20.2 14.7 C 20.2 15.0 20.3 15.2 20.3 15.5 C 20.3 16.4 19.5 17.1 18.7 17.1 C 18.0 17.1 17.3 16.7 17.0 15.9 C 16.2 13.9 15.1 11.9 13.8 10.6 C 13.3 10.1 13.1 9.5 13.1 9.1 C 13.1 8.2 13.8 7.6 14.7 7.6 C 15.2 7.6 15.9 7.9 16.4 8.5 C 17.9 10.2 19.2 12.5 20.2 14.7 Z" transform="scale(1,-1)" stroke-dasharray="25.183005953880738" stroke-dashoffset="25.183005953880738"><animate attributeName="stroke-dashoffset" from="25.183005953880738" to="0" dur="0.7554901786164221s" begin="anim2.end" fill="freeze" id="anim_end" /></path></g></svg>