<?xml version='1.0' encoding='utf-8'?>
<svg viewBox="0 -44.0 50.0 50.0" version="1.1" xmlns="http://www.w3.org/2000/svg"><rect x="-1000" y="-1000" width="2000" height="2000" stroke="white" fill="white" /><g style="fill:none;stroke:#000000;stroke-width:1"><path d="M 15.6 11.9 C 18.9 11.9 20.3 13.2 20.3 16.1 L 20.3 25.0 C 20.3 28.0 18.9 29.3 15.6 29.3 L 13.5 29.3 L 13.5 32.7 L 20.3 32.7 C 21.2 32.7 21.8 33.5 21.8 34.2 C 21.8 35.1 21.2 35.8 20.3 35.8 L 13.5 35.8 L 13.5 40.5 C 13.5 41.5 12.7 42.0 11.9 42.0 C 11.0 42.0 10.2 41.5 10.2 40.5 L 10.2 35.8 L 3.2 35.8 C 2.2 35.8 1.8 35.1 1.8 34.2 C 1.8 33.5 2.2 32.7 3.2 32.7 L 10.2 32.7 L 10.2 29.3 L 8.2 29.3 C 5.0 29.3 3.6 28.0 3.6 25.0 L 3.6 16.1 C 3.6 13.2 5.0 11.9 8.2 11.9 L 10.2 11.9 L 10.2 8.1 L 2.8 8.1 C 1.9 8.1 1.4 7.4 1.4 6.6 C 1.4 5.8 1.9 5.0 2.8 5.0 L 10.2 5.0 L 10.2 -2.8 C 10.2 -3.8 11.0 -4.2 11.9 -4.2 C 12.7 -4.2 13.5 -3.8 13.5 -2.8 L 13.5 5.0 L 20.6 5.0 C 21.6 5.0 22.1 5.8 22.1 6.6 C 22.1 7.4 21.6 8.1 20.6 8.1 L 13.5 8.1 L 13.5 11.9 Z " transform="scale(1,-1)" stroke-dasharray="180.10997072190452" stroke-dashoffset="180.10997072190452"><animate attributeName="stroke-dashoffset" from="180.10997072190452" to="0" dur="5.4032991216571356s" begin="0s; 15s; 30s; 45s; 60s" fill="freeze" id="anim0" /></path><path d="M 13.5 14.8 L 13.5 19.4 L 17.2 19.4 L 17.2 16.4 C 17.2 15.0 16.6 14.8 15.3 14.8 Z " transform="scale(1,-1)" stroke-dasharray="16.044511565700102" stroke-dashoffset="16.044511565700102"><animate attributeName="stroke-dashoffset" from="16.044511565700102" to="0" dur="0.48133534697100305s" begin="anim0.end" fill="freeze" id="anim1" /></path><path d="M 17.2 22.2 L 13.5 22.2 L 13.5 26.4 L 15.3 26.4 C 16.8 26.4 17.2 26.1 17.2 24.8 Z " transform="scale(1,-1)" stroke-dasharray="15.261681974627702" stroke-dashoffset="15.261681974627702"><animate attributeName="stroke-dashoffset" from="15.261681974627702" to="0" dur="0.45785045923883105s" begin="anim1.end" fill="freeze" id="anim2" /></path><path d="M 10.2 26.4 L 10.2 22.2 L 6.7 22.2 L 6.7 24.8 C 6.7 26.1 7.1 26.4 8.6 26.4 Z " transform="scale(1,-1)" stroke-dasharray="14.861681974627702" stroke-dashoffset="14.861681974627702"><animate attributeName="stroke-dashoffset" from="14.861681974627702" to="0" dur="0.44585045923883104s" begin="anim2.end" fill="freeze" id="anim3" /></path><path d="M 6.7 19.4 L 10.2 19.4 L 10.2 14.8 L 8.6 14.8 C 7.1 14.8 6.7 15.1 6.7 16.4 Z " transform="scale(1,-1)" stroke-dasharray="15.6616819746277" stroke-dashoffset="15.6616819746277"><animate attributeName="stroke-dashoffset" from="15.6616819746277" to="0" dur="0.46985045923883095s" begin="anim3.end" fill="freeze" id="anim4" /></path><path d="M 40.8 -3.0 C 44.2 -3.0 46.0 -1.6 46.0 1.8 L 46.0 13.2 C 46.0 16.6 44.2 17.9 40.8 17.9 L 29.2 17.9 C 25.8 17.9 24.0 16.6 24.0 13.2 L 24.0 1.8 C 24.0 -1.8 25.9 -2.9 29.2 -3.0 Z " transform="scale(1,-1)" stroke-dasharray="78.48963949361004" stroke-dashoffset="78.48963949361004"><animate attributeName="stroke-dashoffset" from="78.48963949361004" to="0" dur="2.354689184808301s" begin="anim4.end" fill="freeze" id="anim5" /></path><path d="M 42.6 6.4 L 42.6 2.2 C 42.6 0.5 41.9 0.1 40.2 0.1 L 36.4 0.1 L 36.4 6.4 Z " transform="scale(1,-1)" stroke-dasharray="24.25828924840733" stroke-dashoffset="24.25828924840733"><animate attributeName="stroke-dashoffset" from="24.25828924840733" to="0" dur="0.7277486774522198s" begin="anim5.end" fill="freeze" id="anim6" /></path><path d="M 42.6 9.3 L 36.4 9.3 L 36.4 15.0 L 40.2 15.0 C 41.9 15.0 42.6 14.5 42.6 12.8 Z " transform="scale(1,-1)" stroke-dasharray="23.018421794376177" stroke-dashoffset="23.018421794376177"><animate attributeName="stroke-dashoffset" from="23.018421794376177" to="0" dur="0.6905526538312853s" begin="anim6.end" fill="freeze" id="anim7" /></path><path d="M 33.1 15.0 L 33.1 9.3 L 27.4 9.3 L 27.4 12.8 C 27.4 14.5 28.1 15.0 29.8 15.0 Z " transform="scale(1,-1)" stroke-dasharray="22.018421794376177" stroke-dashoffset="22.018421794376177"><animate attributeName="stroke-dashoffset" from="22.018421794376177" to="0" dur="0.6605526538312853s" begin="anim7.end" fill="freeze" id="anim8" /></path><path d="M 27.4 6.4 L 33.1 6.4 L 33.1 0.1 L 29.8 0.1 C 28.1 0.1 27.4 0.5 27.4 2.2 Z " transform="scale(1,-1)" stroke-dasharray="23.25828924840733" stroke-dashoffset="23.25828924840733"><animate attributeName="stroke-dashoffset" from="23.25828924840733" to="0" dur="0.6977486774522199s" begin="anim8.end" fill="freeze" id="anim9" /></path><path d="M 31.5 32.0 C 30.7 32.0 30.0 31.4 30.0 30.6 C 30.0 30.2 30.2 29.8 30.5 29.3 C 32.0 27.5 33.6 25.0 34.8 22.2 C 35.1 21.5 35.8 21.1 36.4 21.1 C 37.3 21.1 38.1 21.8 38.1 22.9 C 38.1 23.2 38.1 23.6 37.9 24.0 C 36.8 26.2 35.5 28.2 34.1 30.0 C 35.6 32.5 36.9 35.4 37.8 38.0 C 37.9 38.3 38.0 38.6 38.0 38.8 C 38.0 39.8 37.1 40.4 36.2 40.4 C 35.6 40.4 34.8 40.0 34.5 39.1 C 33.7 36.6 32.7 34.1 31.6 32.0 Z " transform="scale(1,-1)" stroke-dasharray="47.472140146149" stroke-dashoffset="47.472140146149"><animate attributeName="stroke-dashoffset" from="47.472140146149" to="0" dur="1.42416420438447s" begin="anim9.end" fill="freeze" id="anim10" /></path><path d="M 23.7 31.8 C 22.8 31.8 22.0 31.2 22.0 30.4 C 22.0 30.0 22.2 29.6 22.5 29.2 C 24.1 27.3 25.7 24.6 26.8 22.0 C 27.2 21.1 27.9 20.7 28.6 20.7 C 29.5 20.7 30.3 21.4 30.3 22.5 C 30.3 22.8 30.2 23.2 30.1 23.6 C 29.0 25.9 27.6 28.1 26.1 29.9 C 27.8 32.6 28.9 35.2 29.9 38.2 C 30.0 38.5 30.0 38.7 30.0 38.9 C 30.0 39.9 29.2 40.6 28.3 40.6 C 27.7 40.6 27.0 40.2 26.8 39.2 C 26.0 36.5 24.9 34.1 23.8 31.8 Z " transform="scale(1,-1)" stroke-dasharray="48.76276256478896" stroke-dashoffset="48.76276256478896"><animate attributeName="stroke-dashoffset" from="48.76276256478896" to="0" dur="1.4628828769436686s" begin="anim10.end" fill="freeze" id="anim11" /></path><path d="M 42.2 30.0 C 43.9 32.5 45.3 35.4 46.3 38.1 C 46.4 38.3 46.5 38.5 46.5 38.8 C 46.5 39.7 45.6 40.3 44.7 40.3 C 44.0 40.3 43.2 39.9 43.0 39.0 C 42.2 36.6 41.2 34.3 39.9 32.0 C 39.7 32.1 39.5 32.1 39.4 32.1 C 38.5 32.1 37.8 31.5 37.8 30.8 C 37.8 30.4 38.0 29.9 38.4 29.4 C 40.0 27.7 41.8 25.1 43.2 22.5 C 43.6 21.7 44.2 21.4 44.8 21.4 C 45.7 21.4 46.6 22.1 46.6 23.2 C 46.6 23.6 46.5 24.0 46.2 24.4 C 45.1 26.4 43.7 28.4 42.2 30.0 Z" transform="scale(1,-1)" stroke-dasharray="48.26619906241847" stroke-dashoffset="48.26619906241847"><animate attributeName="stroke-dashoffset" from="48.26619906241847" to="0" dur="1.447985971872554s" begin="anim11.end" fill="freeze" id="anim_end" /></path></g></svg>