<?xml version='1.0' encoding='utf-8'?>
<svg viewBox="0 -44.0 50.0 50.0" version="1.1" xmlns="http://www.w3.org/2000/svg"><rect x="-1000" y="-1000" width="2000" height="2000" stroke="white" fill="white" /><g style="fill:none;stroke:#000000;stroke-width:1"><path d="M 32.0 14.8 L 32.0 1.4 C 32.0 0.1 31.5 -0.4 30.5 -0.4 C 29.9 -0.4 29.2 -0.2 28.4 -0.1 C 27.2 0.2 26.4 -0.8 26.4 -1.9 C 26.4 -2.6 26.8 -3.3 27.8 -3.6 C 28.8 -3.9 29.7 -3.9 30.6 -3.9 C 33.8 -3.9 35.6 -2.5 35.6 0.9 L 35.6 14.8 L 38.7 14.8 C 42.4 14.8 43.8 16.2 43.8 19.1 L 43.8 23.8 C 43.8 26.6 42.4 28.1 38.7 28.1 L 28.8 28.1 C 25.1 28.1 23.7 26.6 23.7 23.8 L 23.7 19.1 C 23.8 15.7 25.7 14.9 28.8 14.8 Z " transform="scale(1,-1)" stroke-dasharray="104.79203879053793" stroke-dashoffset="104.79203879053793"><animate attributeName="stroke-dashoffset" from="104.79203879053793" to="0" dur="3.1437611637161376s" begin="0s; 15s; 30s; 45s; 60s" fill="freeze" id="anim0" /></path><path d="M 29.5 17.8 C 27.6 17.8 27.1 18.3 27.1 19.5 L 27.1 23.4 C 27.1 24.5 27.6 25.1 29.5 25.1 L 37.9 25.1 C 39.8 25.1 40.4 24.5 40.4 23.4 L 40.4 19.5 C 40.4 18.3 39.8 17.8 37.8 17.8 Z " transform="scale(1,-1)" stroke-dasharray="38.39097776486207" stroke-dashoffset="38.39097776486207"><animate attributeName="stroke-dashoffset" from="38.39097776486207" to="0" dur="1.1517293329458622s" begin="anim0.end" fill="freeze" id="anim1" /></path><path d="M 13.2 -2.5 C 16.7 -2.5 17.9 -1.2 17.9 1.7 L 17.9 7.9 C 17.9 10.7 16.7 12.0 13.2 12.0 L 8.8 12.0 C 5.5 12.0 4.2 10.7 4.2 7.9 L 4.2 1.7 C 4.2 -1.6 5.9 -2.4 8.8 -2.5 Z " transform="scale(1,-1)" stroke-dasharray="50.13077144662192" stroke-dashoffset="50.13077144662192"><animate attributeName="stroke-dashoffset" from="50.13077144662192" to="0" dur="1.5039231433986575s" begin="anim1.end" fill="freeze" id="anim2" /></path><path d="M 9.4 0.5 C 8.0 0.5 7.6 1.0 7.6 2.1 L 7.6 7.4 C 7.6 8.5 8.0 9.0 9.4 9.0 L 12.8 9.0 C 14.1 9.0 14.6 8.5 14.6 7.4 L 14.6 2.1 C 14.6 0.9 14.0 0.5 12.8 0.5 Z " transform="scale(1,-1)" stroke-dasharray="28.62277380158977" stroke-dashoffset="28.62277380158977"><animate attributeName="stroke-dashoffset" from="28.62277380158977" to="0" dur="0.8586832140476931s" begin="anim2.end" fill="freeze" id="anim3" /></path><path d="M 35.3 35.2 L 35.3 40.2 C 35.3 41.2 34.4 41.7 33.6 41.7 C 32.6 41.7 31.8 41.2 31.8 40.2 L 31.8 35.2 L 22.0 35.2 C 21.0 35.2 20.5 34.4 20.5 33.6 C 20.5 32.8 21.0 32.0 22.0 32.0 L 46.5 32.0 C 47.5 32.0 48.0 32.8 48.0 33.6 C 48.0 34.4 47.5 35.2 46.5 35.2 Z " transform="scale(1,-1)" stroke-dasharray="70.50698565404518" stroke-dashoffset="70.50698565404518"><animate attributeName="stroke-dashoffset" from="70.50698565404518" to="0" dur="2.1152095696213555s" begin="anim3.end" fill="freeze" id="anim4" /></path><path d="M 17.9 29.7 C 18.9 29.7 19.4 30.5 19.4 31.2 C 19.4 32.0 18.9 32.8 17.9 32.8 L 3.0 32.8 C 2.1 32.8 1.6 32.0 1.6 31.2 C 1.6 30.5 2.1 29.7 3.0 29.7 Z " transform="scale(1,-1)" stroke-dasharray="39.28260729842387" stroke-dashoffset="39.28260729842387"><animate attributeName="stroke-dashoffset" from="39.28260729842387" to="0" dur="1.178478218952716s" begin="anim4.end" fill="freeze" id="anim5" /></path><path d="M 16.2 36.4 C 17.2 36.4 17.7 37.2 17.7 38.0 C 17.7 38.8 17.2 39.5 16.2 39.5 L 5.9 39.5 C 5.0 39.5 4.5 38.8 4.5 38.0 C 4.5 37.2 5.0 36.4 5.9 36.4 Z " transform="scale(1,-1)" stroke-dasharray="30.123758507909596" stroke-dashoffset="30.123758507909596"><animate attributeName="stroke-dashoffset" from="30.123758507909596" to="0" dur="0.9037127552372879s" begin="anim5.end" fill="freeze" id="anim6" /></path><path d="M 16.2 22.7 C 17.2 22.7 17.7 23.5 17.7 24.2 C 17.7 25.0 17.2 25.8 16.2 25.8 L 5.9 25.8 C 5.0 25.8 4.5 25.0 4.5 24.2 C 4.5 23.5 5.0 22.7 5.9 22.7 Z " transform="scale(1,-1)" stroke-dasharray="30.082607298423877" stroke-dashoffset="30.082607298423877"><animate attributeName="stroke-dashoffset" from="30.082607298423877" to="0" dur="0.9024782189527163s" begin="anim6.end" fill="freeze" id="anim7" /></path><path d="M 16.2 15.9 C 17.2 15.9 17.7 16.7 17.7 17.4 C 17.7 18.2 17.2 18.9 16.2 18.9 L 5.9 18.9 C 5.0 18.9 4.5 18.2 4.5 17.4 C 4.5 16.7 5.0 15.9 5.9 15.9 Z " transform="scale(1,-1)" stroke-dasharray="29.942331617995926" stroke-dashoffset="29.942331617995926"><animate attributeName="stroke-dashoffset" from="29.942331617995926" to="0" dur="0.8982699485398777s" begin="anim7.end" fill="freeze" id="anim8" /></path><path d="M 41.6 10.8 C 41.2 11.4 40.6 11.7 40.1 11.7 C 39.2 11.7 38.5 11.0 38.4 10.1 C 38.4 9.8 38.5 9.5 38.7 9.2 C 40.2 6.6 42.7 3.2 44.7 1.1 C 45.2 0.6 45.8 0.3 46.2 0.3 C 47.2 0.3 48.0 1.1 48.0 2.1 C 48.0 2.6 47.8 3.1 47.3 3.7 C 45.4 5.7 43.1 8.6 41.6 10.8 Z " transform="scale(1,-1)" stroke-dasharray="30.90432100849988" stroke-dashoffset="30.90432100849988"><animate attributeName="stroke-dashoffset" from="30.90432100849988" to="0" dur="0.9271296302549964s" begin="anim8.end" fill="freeze" id="anim9" /></path><path d="M 25.5 10.6 C 24.1 7.6 21.9 4.5 19.8 2.5 C 19.3 2.0 19.1 1.4 19.1 1.0 C 19.1 0.1 19.9 -0.7 20.8 -0.7 C 21.2 -0.7 21.8 -0.5 22.2 0.0 C 24.5 2.2 27.0 5.8 28.5 9.0 C 28.7 9.3 28.8 9.7 28.8 9.9 C 28.8 10.9 27.9 11.6 27.0 11.6 C 26.4 11.6 25.8 11.2 25.5 10.6 Z" transform="scale(1,-1)" stroke-dasharray="32.55708334822825" stroke-dashoffset="32.55708334822825"><animate attributeName="stroke-dashoffset" from="32.55708334822825" to="0" dur="0.9767125004468473s" begin="anim9.end" fill="freeze" id="anim_end" /></path></g></svg>