<?xml version='1.0' encoding='utf-8'?>
<svg viewBox="0 -44.0 50.0 50.0" version="1.1" xmlns="http://www.w3.org/2000/svg"><rect x="-1000" y="-1000" width="2000" height="2000" stroke="white" fill="white" /><g style="fill:none;stroke:#000000;stroke-width:1"><path d="M 15.1 15.2 C 15.4 15.7 15.7 16.2 16.0 16.7 C 16.2 17.0 16.2 17.2 16.2 17.5 C 16.2 18.4 15.4 19.1 14.6 19.1 C 14.0 19.1 13.4 18.8 13.0 18.1 C 11.1 14.7 7.8 11.0 4.8 8.7 C 4.2 8.2 3.9 7.7 3.9 7.2 C 3.9 6.4 4.5 5.8 5.4 5.8 C 5.8 5.8 6.2 5.9 6.6 6.2 C 8.8 7.9 11.1 10.2 13.1 12.6 L 19.1 12.6 C 19.7 12.6 19.9 12.4 19.9 12.1 C 19.9 11.9 19.9 11.7 19.8 11.5 C 19.0 9.9 17.9 8.2 16.4 6.6 C 15.5 7.5 14.6 8.2 13.9 8.8 C 13.5 9.1 13.1 9.2 12.7 9.2 C 11.8 9.2 11.2 8.6 11.2 7.9 C 11.2 7.5 11.4 7.0 11.9 6.7 C 12.7 6.1 13.5 5.3 14.3 4.5 C 12.0 2.4 9.1 0.4 5.8 -1.0 C 4.9 -1.4 4.5 -2.0 4.5 -2.6 C 4.5 -3.4 5.2 -4.1 6.2 -4.1 C 6.4 -4.1 6.7 -4.0 6.9 -4.0 C 14.3 -0.7 20.2 4.8 23.0 10.6 C 23.4 11.2 23.5 11.9 23.5 12.5 C 23.5 14.1 22.3 15.2 19.9 15.2 Z " transform="scale(1,-1)" stroke-dasharray="108.98742461254524" stroke-dashoffset="108.98742461254524"><animate attributeName="stroke-dashoffset" from="108.98742461254524" to="0" dur="3.269622738376357s" begin="0s; 15s; 30s; 45s; 60s" fill="freeze" id="anim0" /></path><path d="M 30.0 38.5 L 19.6 38.5 L 19.6 40.8 C 19.6 41.8 18.7 42.2 17.9 42.2 C 17.1 42.2 16.2 41.8 16.2 40.8 L 16.2 38.5 L 4.5 38.5 C 3.6 38.5 3.1 37.8 3.1 37.1 C 3.1 36.4 3.6 35.7 4.5 35.7 L 16.2 35.7 L 16.2 34.0 C 16.2 33.1 17.1 32.6 17.9 32.6 C 18.7 32.6 19.6 33.1 19.6 34.0 L 19.6 35.7 L 30.0 35.7 L 30.0 34.6 C 30.0 33.6 30.8 33.1 31.7 33.1 C 32.5 33.1 33.3 33.6 33.3 34.6 L 33.3 35.7 L 45.4 35.7 C 46.3 35.7 46.8 36.4 46.8 37.1 C 46.8 37.8 46.3 38.5 45.4 38.5 L 33.3 38.5 L 33.3 40.8 C 33.3 41.8 32.5 42.2 31.7 42.2 C 30.8 42.2 30.0 41.8 30.0 40.8 Z " transform="scale(1,-1)" stroke-dasharray="111.78465900939857" stroke-dashoffset="111.78465900939857"><animate attributeName="stroke-dashoffset" from="111.78465900939857" to="0" dur="3.353539770281957s" begin="anim0.end" fill="freeze" id="anim1" /></path><path d="M 35.1 23.2 C 36.1 24.5 37.0 25.9 37.6 27.1 C 37.8 27.4 37.9 27.7 37.9 28.0 C 37.9 28.9 37.0 29.4 36.1 29.4 C 35.6 29.4 34.9 29.1 34.6 28.4 C 33.6 26.4 32.8 24.9 31.6 23.2 L 26.6 23.2 C 26.7 23.4 26.8 23.7 26.8 24.0 C 26.8 24.3 26.7 24.6 26.6 24.9 C 26.1 25.8 25.7 26.5 25.0 27.4 C 24.5 28.0 23.9 28.2 23.3 28.2 C 22.5 28.2 21.8 27.7 21.8 27.0 C 21.8 26.7 21.9 26.4 22.1 26.1 C 22.7 25.2 23.2 24.5 23.6 23.6 C 23.7 23.4 23.8 23.2 23.9 23.2 L 17.4 23.2 C 17.4 23.3 17.4 23.5 17.4 23.7 C 17.4 23.9 17.4 24.2 17.2 24.5 C 16.7 25.5 16.1 26.2 15.4 27.0 C 15.0 27.5 14.4 27.7 13.9 27.7 C 13.1 27.7 12.4 27.1 12.4 26.4 C 12.4 26.1 12.5 25.8 12.7 25.5 C 13.2 24.7 13.7 24.1 14.2 23.2 L 9.2 23.2 C 5.3 23.2 4.0 22.0 4.0 19.2 L 4.0 16.8 C 4.0 15.7 5.0 15.2 5.8 15.2 C 6.7 15.2 7.6 15.7 7.6 16.8 L 7.6 18.9 C 7.6 20.0 8.0 20.4 9.8 20.4 L 40.2 20.4 C 42.1 20.4 42.5 20.0 42.5 18.9 L 42.5 17.2 C 42.5 16.2 43.4 15.7 44.2 15.7 C 45.1 15.7 46.0 16.2 46.0 17.2 L 46.0 19.2 C 46.0 22.0 44.7 23.2 40.8 23.2 Z " transform="scale(1,-1)" stroke-dasharray="134.22694536127366" stroke-dashoffset="134.22694536127366"><animate attributeName="stroke-dashoffset" from="134.22694536127366" to="0" dur="4.02680836083821s" begin="anim1.end" fill="freeze" id="anim2" /></path><path d="M 34.5 14.7 L 26.9 14.7 C 26.0 14.7 25.5 14.0 25.5 13.2 C 25.5 12.6 26.0 11.9 26.9 11.9 L 34.5 11.9 L 34.5 6.5 L 28.6 6.5 C 28.8 7.2 28.9 7.9 29.1 8.5 C 29.3 9.7 28.5 10.3 27.6 10.3 C 26.9 10.3 26.2 9.9 26.0 9.1 C 25.4 7.0 24.7 5.0 23.7 2.8 C 23.6 2.6 23.6 2.3 23.6 2.1 C 23.6 1.2 24.3 0.7 25.2 0.7 C 25.8 0.7 26.5 1.0 26.8 1.8 C 27.1 2.4 27.4 3.1 27.7 3.7 L 34.5 3.7 L 34.5 -2.6 C 34.5 -3.6 35.4 -4.1 36.2 -4.1 C 37.0 -4.1 37.9 -3.6 37.9 -2.6 L 37.9 3.7 L 45.2 3.7 C 46.1 3.7 46.5 4.4 46.5 5.1 C 46.5 5.8 46.1 6.5 45.2 6.5 L 37.9 6.5 L 37.9 11.9 L 42.9 11.9 C 43.8 11.9 44.2 12.6 44.2 13.2 C 44.2 14.0 43.8 14.7 42.9 14.7 L 37.9 14.7 L 37.9 17.6 C 37.9 18.6 37.0 19.1 36.2 19.1 C 35.4 19.1 34.5 18.6 34.5 17.6 Z " transform="scale(1,-1)" stroke-dasharray="125.79067826699587" stroke-dashoffset="125.79067826699587"><animate attributeName="stroke-dashoffset" from="125.79067826699587" to="0" dur="3.773720348009876s" begin="anim2.end" fill="freeze" id="anim3" /></path><path d="M 10.0 30.9 C 9.0 30.9 8.5 30.2 8.5 29.5 C 8.5 28.8 9.0 28.1 10.1 28.1 C 19.6 28.2 28.4 28.8 37.5 30.3 C 38.6 30.5 39.1 31.2 39.1 32.0 C 39.1 32.8 38.4 33.6 37.0 33.3 C 28.2 31.7 19.5 31.1 10.0 30.9 Z" transform="scale(1,-1)" stroke-dasharray="64.77037994201893" stroke-dashoffset="64.77037994201893"><animate attributeName="stroke-dashoffset" from="64.77037994201893" to="0" dur="1.943111398260568s" begin="anim3.end" fill="freeze" id="anim_end" /></path></g></svg>