<?xml version='1.0' encoding='utf-8'?>
<svg viewBox="0 -44.0 50.0 50.0" version="1.1" xmlns="http://www.w3.org/2000/svg"><rect x="-1000" y="-1000" width="2000" height="2000" stroke="white" fill="white" /><g style="fill:none;stroke:#000000;stroke-width:1"><path d="M 18.0 4.2 L 43.6 4.2 C 44.6 4.2 45.0 5.0 45.0 5.7 C 45.0 6.5 44.6 7.2 43.6 7.2 L 18.0 7.2 L 18.0 9.2 C 18.0 10.5 18.4 10.9 20.5 10.9 L 40.2 10.9 C 41.2 10.9 41.7 11.7 41.7 12.5 C 41.7 13.2 41.2 14.0 40.2 14.0 L 20.1 14.0 C 16.1 14.0 14.6 12.6 14.6 9.7 L 14.6 1.6 C 14.6 -1.3 16.1 -2.7 20.1 -2.7 L 40.7 -2.7 C 41.7 -2.7 42.2 -2.0 42.2 -1.2 C 42.2 -0.4 41.7 0.4 40.7 0.4 L 20.5 0.4 C 18.4 0.4 18.0 0.8 18.0 2.1 Z " transform="scale(1,-1)" stroke-dasharray="181.56921184117664" stroke-dashoffset="181.56921184117664"><animate attributeName="stroke-dashoffset" from="181.56921184117664" to="0" dur="5.447076355235299s" begin="0s; 15s; 30s; 45s; 60s" fill="freeze" id="anim0" /></path><path d="M 24.0 22.9 L 35.1 23.9 C 36.1 24.0 36.5 24.7 36.5 25.3 C 36.5 26.1 36.0 26.8 35.0 26.7 L 24.0 25.8 L 24.0 28.1 C 24.0 29.0 23.2 29.5 22.4 29.5 C 21.6 29.5 20.7 29.0 20.7 28.1 L 20.7 25.5 L 14.4 24.9 C 13.5 24.9 13.1 24.2 13.1 23.5 C 13.1 22.7 13.6 22.0 14.6 22.1 L 20.7 22.6 L 20.7 20.7 C 20.7 17.6 22.1 16.8 30.3 16.8 C 38.8 16.8 40.8 17.9 41.5 22.1 C 41.6 23.2 40.7 23.9 39.8 23.9 C 39.1 23.9 38.4 23.5 38.2 22.6 C 37.8 20.3 37.0 19.7 30.3 19.7 C 24.4 19.7 24.0 20.1 24.0 21.3 Z " transform="scale(1,-1)" stroke-dasharray="104.05503669217812" stroke-dashoffset="104.05503669217812"><animate attributeName="stroke-dashoffset" from="104.05503669217812" to="0" dur="3.1216511007653436s" begin="anim0.end" fill="freeze" id="anim1" /></path><path d="M 26.6 33.4 L 26.6 36.1 L 39.3 36.1 C 40.2 36.1 40.8 36.9 40.8 37.6 C 40.8 38.4 40.2 39.2 39.3 39.2 L 26.6 39.2 L 26.6 41.2 C 26.6 42.2 25.7 42.7 24.9 42.7 C 24.0 42.7 23.1 42.2 23.1 41.2 L 23.1 33.4 L 12.7 33.4 C 8.6 33.4 7.0 31.7 7.0 28.4 L 7.0 23.7 C 7.0 13.4 5.4 6.3 2.5 0.8 C 2.3 0.4 2.2 0.1 2.2 -0.3 C 2.2 -1.2 3.0 -1.9 3.9 -1.9 C 4.5 -1.9 5.2 -1.6 5.7 -0.7 C 8.8 5.2 10.6 12.9 10.6 23.2 L 10.6 28.0 C 10.6 29.7 11.2 30.4 13.5 30.4 L 39.1 30.4 C 41.0 30.4 41.3 30.1 41.3 28.8 L 41.3 27.0 C 41.3 25.9 42.2 25.4 43.1 25.4 C 44.0 25.4 44.8 25.9 44.8 27.0 L 44.8 29.5 C 44.8 31.9 43.4 33.4 40.2 33.4 Z" transform="scale(1,-1)" stroke-dasharray="194.11301914726403" stroke-dashoffset="194.11301914726403"><animate attributeName="stroke-dashoffset" from="194.11301914726403" to="0" dur="5.82339057441792s" begin="anim1.end" fill="freeze" id="anim_end" /></path></g></svg>