<?xml version='1.0' encoding='utf-8'?>
<svg viewBox="0 -44.0 50.0 50.0" version="1.1" xmlns="http://www.w3.org/2000/svg"><rect x="-1000" y="-1000" width="2000" height="2000" stroke="white" fill="white" /><g style="fill:none;stroke:#000000;stroke-width:1"><path d="M 30.2 35.2 L 19.3 35.2 L 19.3 39.8 C 19.3 40.9 18.4 41.4 17.6 41.4 C 16.7 41.4 15.8 40.9 15.8 39.8 L 15.8 35.2 L 4.6 35.2 C 3.7 35.2 3.2 34.5 3.2 33.6 C 3.2 32.9 3.7 32.1 4.6 32.1 L 15.8 32.1 L 15.8 27.9 C 15.8 26.9 16.7 26.3 17.6 26.3 C 18.4 26.3 19.3 26.9 19.3 27.9 L 19.3 32.1 L 30.2 32.1 L 30.2 28.1 C 30.2 27.1 31.2 26.6 32.0 26.6 C 32.9 26.6 33.8 27.1 33.8 28.1 L 33.8 32.1 L 45.5 32.1 C 46.4 32.1 46.9 32.9 46.9 33.6 C 46.9 34.5 46.4 35.2 45.5 35.2 L 33.8 35.2 L 33.8 39.8 C 33.8 40.9 32.9 41.4 32.0 41.4 C 31.2 41.4 30.2 40.9 30.2 39.8 Z " transform="scale(1,-1)" stroke-dasharray="132.96700654233996" stroke-dashoffset="132.96700654233996"><animate attributeName="stroke-dashoffset" from="132.96700654233996" to="0" dur="3.9890101962701987s" begin="0s; 15s; 30s; 45s; 60s" fill="freeze" id="anim0" /></path><path d="M 18.5 19.4 C 18.5 20.5 17.6 21.0 16.6 21.0 C 15.7 21.0 14.7 20.5 14.7 19.4 L 14.7 2.2 C 14.7 -1.7 16.4 -2.8 25.0 -2.8 C 34.6 -2.8 37.1 -0.5 37.9 5.5 C 38.0 6.8 37.0 7.6 36.1 7.6 C 35.2 7.6 34.4 7.1 34.3 6.0 C 33.8 1.6 32.5 0.5 25.0 0.5 C 19.2 0.5 18.5 0.9 18.5 2.8 Z " transform="scale(1,-1)" stroke-dasharray="96.05181608564139" stroke-dashoffset="96.05181608564139"><animate attributeName="stroke-dashoffset" from="96.05181608564139" to="0" dur="2.881554482569242s" begin="anim0.end" fill="freeze" id="anim1" /></path><path d="M 41.9 16.8 C 41.4 17.4 40.7 17.7 40.1 17.7 C 39.1 17.7 38.2 16.9 38.2 16.1 C 38.2 15.7 38.4 15.3 38.7 15.0 C 40.2 13.0 42.2 10.1 43.5 7.3 C 44.0 6.3 44.7 5.9 45.5 5.9 C 46.4 5.9 47.4 6.8 47.4 8.0 C 47.4 8.3 47.2 8.8 47.0 9.2 C 45.7 11.8 43.7 14.9 41.9 16.8 Z " transform="scale(1,-1)" stroke-dasharray="31.28843302876914" stroke-dashoffset="31.28843302876914"><animate attributeName="stroke-dashoffset" from="31.28843302876914" to="0" dur="0.9386529908630742s" begin="anim1.end" fill="freeze" id="anim2" /></path><path d="M 6.8 15.2 C 5.8 11.9 4.4 9.0 2.8 6.5 C 2.6 6.1 2.4 5.7 2.4 5.3 C 2.4 4.3 3.3 3.6 4.3 3.6 C 5.0 3.6 5.7 3.9 6.2 4.8 C 8.0 7.4 9.4 10.8 10.4 14.2 C 10.4 14.4 10.5 14.7 10.5 14.9 C 10.5 16.0 9.6 16.6 8.6 16.6 C 7.9 16.6 7.1 16.2 6.8 15.2 Z " transform="scale(1,-1)" stroke-dasharray="32.44204760653744" stroke-dashoffset="32.44204760653744"><animate attributeName="stroke-dashoffset" from="32.44204760653744" to="0" dur="0.9732614281961233s" begin="anim2.end" fill="freeze" id="anim3" /></path><path d="M 24.8 25.1 C 24.3 25.4 23.8 25.6 23.4 25.6 C 22.4 25.6 21.6 24.8 21.6 24.0 C 21.6 23.5 21.8 23.0 22.3 22.6 C 23.9 21.2 25.6 19.6 27.1 17.7 C 27.6 17.1 28.2 16.8 28.8 16.8 C 29.8 16.8 30.7 17.7 30.7 18.7 C 30.7 19.2 30.5 19.7 30.1 20.2 C 28.5 22.0 26.5 23.7 24.8 25.1 Z" transform="scale(1,-1)" stroke-dasharray="26.47363103206792" stroke-dashoffset="26.47363103206792"><animate attributeName="stroke-dashoffset" from="26.47363103206792" to="0" dur="0.7942089309620376s" begin="anim3.end" fill="freeze" id="anim_end" /></path></g></svg>