<?xml version='1.0' encoding='utf-8'?>
<svg viewBox="0 -44.0 50.0 50.0" version="1.1" xmlns="http://www.w3.org/2000/svg"><rect x="-1000" y="-1000" width="2000" height="2000" stroke="white" fill="white" /><g style="fill:none;stroke:#000000;stroke-width:1"><path d="M 31.4 28.0 L 26.0 28.0 C 22.1 28.0 20.8 26.6 20.8 23.8 L 20.8 19.7 C 20.8 16.9 22.1 15.5 26.0 15.5 L 40.8 15.5 C 43.9 15.5 46.0 16.2 46.0 19.7 L 46.0 23.8 C 46.0 26.6 44.7 28.0 40.8 28.0 L 34.9 28.0 L 34.9 32.1 L 46.1 32.1 C 47.1 32.1 47.6 32.9 47.6 33.6 C 47.6 34.4 47.1 35.1 46.1 35.1 L 34.9 35.1 L 34.9 40.2 C 34.9 41.2 34.0 41.8 33.1 41.8 C 32.2 41.8 31.4 41.2 31.4 40.2 L 31.4 35.1 L 21.7 35.1 C 20.7 35.1 20.2 34.4 20.2 33.6 C 20.2 32.9 20.7 32.1 21.7 32.1 L 31.4 32.1 Z " transform="scale(1,-1)" stroke-dasharray="140.29966138220925" stroke-dashoffset="140.29966138220925"><animate attributeName="stroke-dashoffset" from="140.29966138220925" to="0" dur="4.208989841466277s" begin="0s; 15s; 30s; 45s; 60s" fill="freeze" id="anim0" /></path><path d="M 38.4 25.1 L 40.2 25.1 C 42.2 25.1 42.7 24.7 42.7 23.2 L 42.7 20.2 C 42.7 18.8 42.2 18.4 40.2 18.4 L 38.4 18.4 Z " transform="scale(1,-1)" stroke-dasharray="20.65813916053346" stroke-dashoffset="20.65813916053346"><animate attributeName="stroke-dashoffset" from="20.65813916053346" to="0" dur="0.6197441748160037s" begin="anim0.end" fill="freeze" id="anim1" /></path><path d="M 35.2 25.1 L 35.2 18.4 L 31.2 18.4 L 31.2 25.1 Z " transform="scale(1,-1)" stroke-dasharray="21.400000000000013" stroke-dashoffset="21.400000000000013"><animate attributeName="stroke-dashoffset" from="21.400000000000013" to="0" dur="0.6420000000000003s" begin="anim1.end" fill="freeze" id="anim2" /></path><path d="M 28.1 25.1 L 28.1 18.4 L 26.5 18.4 C 24.6 18.4 24.1 18.8 24.1 20.2 L 24.1 23.2 C 24.1 24.7 24.6 25.1 26.5 25.1 Z " transform="scale(1,-1)" stroke-dasharray="20.073808584770656" stroke-dashoffset="20.073808584770656"><animate attributeName="stroke-dashoffset" from="20.073808584770656" to="0" dur="0.6022142575431196s" begin="anim2.end" fill="freeze" id="anim3" /></path><path d="M 5.1 36.1 L 5.1 9.3 C 4.2 9.2 3.4 9.1 2.6 8.9 C 1.7 8.8 1.2 8.0 1.2 7.2 C 1.2 6.3 1.9 5.4 3.1 5.6 C 6.6 6.2 10.1 7.2 13.5 8.3 L 13.5 -2.6 C 13.5 -3.6 14.4 -4.1 15.2 -4.1 C 16.0 -4.1 16.8 -3.6 16.8 -2.6 L 16.8 36.1 L 18.7 36.1 C 19.6 36.1 20.1 36.9 20.1 37.6 C 20.1 38.4 19.6 39.2 18.7 39.2 L 3.2 39.2 C 2.2 39.2 1.8 38.4 1.8 37.6 C 1.8 36.9 2.2 36.1 3.2 36.1 Z " transform="scale(1,-1)" stroke-dasharray="128.61129621359873" stroke-dashoffset="128.61129621359873"><animate attributeName="stroke-dashoffset" from="128.61129621359873" to="0" dur="3.858338886407962s" begin="anim3.end" fill="freeze" id="anim4" /></path><path d="M 8.3 17.7 L 13.5 17.7 L 13.5 11.2 C 11.8 10.8 10.1 10.4 8.3 10.0 Z " transform="scale(1,-1)" stroke-dasharray="24.73670314884481" stroke-dashoffset="24.73670314884481"><animate attributeName="stroke-dashoffset" from="24.73670314884481" to="0" dur="0.7421010944653443s" begin="anim4.end" fill="freeze" id="anim5" /></path><path d="M 8.3 20.5 L 8.3 27.1 L 13.5 27.1 L 13.5 20.5 Z " transform="scale(1,-1)" stroke-dasharray="23.6" stroke-dashoffset="23.6"><animate attributeName="stroke-dashoffset" from="23.6" to="0" dur="0.708s" begin="anim5.end" fill="freeze" id="anim6" /></path><path d="M 8.3 29.9 L 8.3 36.1 L 13.5 36.1 L 13.5 29.9 Z " transform="scale(1,-1)" stroke-dasharray="22.800000000000004" stroke-dashoffset="22.800000000000004"><animate attributeName="stroke-dashoffset" from="22.800000000000004" to="0" dur="0.684s" begin="anim6.end" fill="freeze" id="anim7" /></path><path d="M 44.4 10.2 C 43.9 10.7 43.4 10.9 42.9 10.9 C 42.0 10.9 41.2 10.2 41.2 9.4 C 41.2 9.0 41.5 8.6 41.9 8.1 C 43.0 6.8 44.5 4.4 45.2 2.7 C 45.5 1.8 46.2 1.5 46.8 1.5 C 47.7 1.5 48.6 2.2 48.6 3.4 C 48.6 3.7 48.5 4.0 48.3 4.5 C 47.5 6.4 45.9 8.7 44.4 10.2 Z " transform="scale(1,-1)" stroke-dasharray="25.210648413286915" stroke-dashoffset="25.210648413286915"><animate attributeName="stroke-dashoffset" from="25.210648413286915" to="0" dur="0.7563194523986074s" begin="anim7.end" fill="freeze" id="anim8" /></path><path d="M 34.0 13.5 C 33.6 13.8 33.1 13.9 32.8 13.9 C 31.9 13.9 31.2 13.2 31.2 12.4 C 31.2 12.0 31.4 11.6 31.8 11.2 C 33.0 10.1 34.0 9.0 35.0 7.7 C 35.4 7.1 36.0 6.9 36.5 6.9 C 37.4 6.9 38.1 7.6 38.1 8.5 C 38.1 8.9 38.0 9.3 37.6 9.8 C 36.6 11.1 35.2 12.5 34.0 13.5 Z " transform="scale(1,-1)" stroke-dasharray="20.731771674137125" stroke-dashoffset="20.731771674137125"><animate attributeName="stroke-dashoffset" from="20.731771674137125" to="0" dur="0.6219531502241137s" begin="anim8.end" fill="freeze" id="anim9" /></path><path d="M 21.2 9.0 C 20.7 6.6 19.9 4.2 18.9 2.5 C 18.8 2.1 18.7 1.7 18.7 1.4 C 18.7 0.4 19.4 -0.2 20.2 -0.2 C 20.8 -0.2 21.5 0.2 22.0 1.1 C 22.9 2.8 23.9 5.6 24.4 8.2 C 24.7 9.5 23.7 10.2 22.8 10.2 C 22.1 10.2 21.4 9.9 21.2 9.0 Z " transform="scale(1,-1)" stroke-dasharray="25.511129833178497" stroke-dashoffset="25.511129833178497"><animate attributeName="stroke-dashoffset" from="25.511129833178497" to="0" dur="0.7653338949953549s" begin="anim9.end" fill="freeze" id="anim10" /></path><path d="M 30.0 9.2 C 30.0 10.3 29.1 10.9 28.2 10.9 C 27.4 10.9 26.5 10.3 26.5 9.2 L 26.5 1.0 C 26.5 -2.4 28.0 -3.3 33.4 -3.3 C 39.7 -3.3 41.3 -2.0 41.9 2.9 C 42.1 4.2 41.2 5.0 40.2 5.0 C 39.5 5.0 38.8 4.5 38.6 3.4 C 38.2 0.6 37.4 -0.1 33.4 -0.1 C 30.2 -0.1 30.0 0.2 30.0 1.8 Z" transform="scale(1,-1)" stroke-dasharray="60.13925520787228" stroke-dashoffset="60.13925520787228"><animate attributeName="stroke-dashoffset" from="60.13925520787228" to="0" dur="1.8041776562361684s" begin="anim10.end" fill="freeze" id="anim_end" /></path></g></svg>