<?xml version='1.0' encoding='utf-8'?>
<svg viewBox="0 -44.0 50.0 50.0" version="1.1" xmlns="http://www.w3.org/2000/svg"><rect x="-1000" y="-1000" width="2000" height="2000" stroke="white" fill="white" /><g style="fill:none;stroke:#000000;stroke-width:1"><path d="M 31.1 33.8 L 23.7 33.8 C 20.2 33.8 18.9 32.4 18.9 30.2 L 18.9 27.2 C 18.9 26.2 19.8 25.8 20.6 25.8 C 21.4 25.8 22.2 26.2 22.2 27.2 L 22.2 29.7 C 22.2 30.6 22.8 31.0 24.2 31.0 L 31.1 31.0 L 31.1 18.6 C 31.1 17.8 31.9 17.3 32.8 17.3 C 33.6 17.3 34.4 17.8 34.4 18.6 L 34.4 31.0 L 41.8 31.0 C 43.2 31.0 43.7 30.6 43.7 29.7 L 43.7 27.5 C 43.7 26.5 44.6 26.1 45.4 26.1 C 46.2 26.1 47.1 26.5 47.1 27.5 L 47.1 30.2 C 47.1 32.4 45.8 33.8 42.4 33.8 L 34.4 33.8 L 34.4 37.0 L 43.7 37.0 C 44.7 37.0 45.2 37.7 45.2 38.5 C 45.2 39.2 44.7 40.0 43.7 40.0 L 22.6 40.0 C 21.7 40.0 21.2 39.2 21.2 38.5 C 21.2 37.7 21.7 37.0 22.6 37.0 L 31.1 37.0 Z " transform="scale(1,-1)" stroke-dasharray="153.02036935815937" stroke-dashoffset="153.02036935815937"><animate attributeName="stroke-dashoffset" from="153.02036935815937" to="0" dur="4.590611080744781s" begin="0s; 15s; 30s; 45s; 60s" fill="freeze" id="anim0" /></path><path d="M 39.7 5.4 L 39.7 2.1 C 39.7 0.8 39.1 0.4 37.0 0.4 L 23.9 0.4 C 23.0 0.4 22.5 -0.4 22.5 -1.1 C 22.5 -1.9 23.0 -2.6 23.9 -2.6 L 37.9 -2.6 C 41.5 -2.6 43.1 -1.2 43.1 1.6 L 43.1 5.4 L 46.6 5.4 C 47.5 5.4 48.0 6.1 48.0 6.9 C 48.0 7.6 47.5 8.3 46.6 8.3 L 43.1 8.3 L 43.1 11.3 C 43.1 14.1 41.5 15.5 37.9 15.5 L 24.2 15.5 C 23.2 15.5 22.7 14.7 22.7 14.0 C 22.7 13.2 23.2 12.5 24.2 12.5 L 37.0 12.5 C 39.1 12.5 39.7 12.1 39.7 10.8 L 39.7 8.3 L 20.0 8.3 C 19.1 8.3 18.6 7.6 18.6 6.9 C 18.6 6.1 19.1 5.4 20.0 5.4 Z " transform="scale(1,-1)" stroke-dasharray="153.75122287461687" stroke-dashoffset="153.75122287461687"><animate attributeName="stroke-dashoffset" from="153.75122287461687" to="0" dur="4.6125366862385055s" begin="anim0.end" fill="freeze" id="anim1" /></path><path d="M 13.5 13.5 L 13.5 2.0 C 13.5 0.7 13.1 0.4 12.1 0.4 C 11.6 0.4 10.9 0.4 10.3 0.5 C 9.1 0.7 8.4 -0.2 8.4 -1.1 C 8.4 -1.9 8.8 -2.6 9.8 -2.8 C 10.6 -3.0 11.4 -3.1 12.4 -3.1 C 15.2 -3.1 16.8 -1.7 16.8 1.6 L 16.8 35.6 C 16.8 38.8 15.5 40.1 12.2 40.1 L 9.5 40.1 C 6.2 40.1 5.0 38.8 5.0 35.6 L 5.0 23.2 C 5.0 10.8 3.9 4.2 2.1 -0.5 C 2.0 -0.8 1.9 -1.2 1.9 -1.5 C 1.9 -2.5 2.6 -3.1 3.4 -3.1 C 4.0 -3.1 4.8 -2.6 5.2 -1.6 C 6.6 2.1 7.5 6.6 8.0 13.5 Z " transform="scale(1,-1)" stroke-dasharray="145.98522390960326" stroke-dashoffset="145.98522390960326"><animate attributeName="stroke-dashoffset" from="145.98522390960326" to="0" dur="4.379556717288097s" begin="anim1.end" fill="freeze" id="anim2" /></path><path d="M 13.5 28.1 L 8.2 28.1 L 8.2 35.1 C 8.2 36.6 8.5 37.0 9.9 37.0 L 11.9 37.0 C 13.2 37.0 13.5 36.6 13.5 35.1 Z " transform="scale(1,-1)" stroke-dasharray="27.311422423057948" stroke-dashoffset="27.311422423057948"><animate attributeName="stroke-dashoffset" from="27.311422423057948" to="0" dur="0.8193426726917384s" begin="anim2.end" fill="freeze" id="anim3" /></path><path d="M 13.5 25.2 L 13.5 16.4 L 8.1 16.4 C 8.2 18.6 8.2 20.9 8.2 23.1 L 8.2 25.2 Z " transform="scale(1,-1)" stroke-dasharray="28.301348715685204" stroke-dashoffset="28.301348715685204"><animate attributeName="stroke-dashoffset" from="28.301348715685204" to="0" dur="0.8490404614705561s" begin="anim3.end" fill="freeze" id="anim4" /></path><path d="M 28.2 25.1 C 29.1 25.1 29.5 25.8 29.5 26.4 C 29.5 27.1 29.1 27.8 28.2 27.8 L 24.8 27.8 C 24.0 27.8 23.5 27.1 23.5 26.4 C 23.5 25.8 24.0 25.1 24.8 25.1 Z " transform="scale(1,-1)" stroke-dasharray="15.170611293301757" stroke-dashoffset="15.170611293301757"><animate attributeName="stroke-dashoffset" from="15.170611293301757" to="0" dur="0.4551183387990527s" begin="anim4.end" fill="freeze" id="anim5" /></path><path d="M 41.2 25.1 C 42.1 25.1 42.5 25.8 42.5 26.4 C 42.5 27.1 42.1 27.8 41.2 27.8 L 37.2 27.8 C 36.4 27.8 35.9 27.1 35.9 26.4 C 35.9 25.8 36.4 25.1 37.2 25.1 Z " transform="scale(1,-1)" stroke-dasharray="16.37061129330176" stroke-dashoffset="16.37061129330176"><animate attributeName="stroke-dashoffset" from="16.37061129330176" to="0" dur="0.49111833879905276s" begin="anim5.end" fill="freeze" id="anim6" /></path><path d="M 28.2 19.6 C 29.1 19.6 29.5 20.2 29.5 20.9 C 29.5 21.6 29.1 22.2 28.2 22.2 L 23.1 22.2 C 22.2 22.2 21.8 21.6 21.8 20.9 C 21.8 20.2 22.2 19.6 23.1 19.6 Z " transform="scale(1,-1)" stroke-dasharray="18.52105030202851" stroke-dashoffset="18.52105030202851"><animate attributeName="stroke-dashoffset" from="18.52105030202851" to="0" dur="0.5556315090608552s" begin="anim6.end" fill="freeze" id="anim7" /></path><path d="M 42.9 19.6 C 43.8 19.6 44.2 20.2 44.2 20.9 C 44.2 21.6 43.8 22.2 42.9 22.2 L 37.2 22.2 C 36.4 22.2 35.9 21.6 35.9 20.9 C 35.9 20.2 36.4 19.6 37.2 19.6 Z" transform="scale(1,-1)" stroke-dasharray="19.67392192726241" stroke-dashoffset="19.67392192726241"><animate attributeName="stroke-dashoffset" from="19.67392192726241" to="0" dur="0.5902176578178723s" begin="anim7.end" fill="freeze" id="anim_end" /></path></g></svg>