<?xml version='1.0' encoding='utf-8'?>
<svg viewBox="0 -44.0 50.0 50.0" version="1.1" xmlns="http://www.w3.org/2000/svg"><rect x="-1000" y="-1000" width="2000" height="2000" stroke="white" fill="white" /><g style="fill:none;stroke:#000000;stroke-width:1"><path d="M 14.2 15.1 L 14.2 23.1 L 21.5 23.1 C 22.5 23.1 22.9 23.9 22.9 24.7 C 22.9 25.5 22.5 26.2 21.5 26.2 L 14.2 26.2 L 14.2 34.7 C 16.2 35.2 18.0 35.8 19.7 36.4 C 20.5 36.6 20.9 37.2 20.9 37.9 C 20.9 38.8 20.1 39.7 19.1 39.7 C 18.9 39.7 18.7 39.7 18.4 39.6 C 14.3 37.9 8.8 36.6 4.5 36.1 C 3.5 36.1 3.1 35.4 3.1 34.6 C 3.1 33.8 3.7 32.9 4.7 33.0 C 6.6 33.1 8.7 33.5 10.8 34.0 L 10.8 26.2 L 3.1 26.2 C 2.1 26.2 1.6 25.5 1.6 24.7 C 1.6 23.9 2.1 23.1 3.1 23.1 L 10.8 23.1 L 10.8 15.1 L 9.0 15.1 C 5.6 15.1 4.2 13.6 4.2 10.3 L 4.2 2.7 C 4.3 -0.7 5.8 -2.1 9.1 -2.1 L 16.0 -2.1 C 19.4 -2.1 20.8 -0.6 20.8 2.7 L 20.8 10.3 C 20.8 13.6 19.5 15.1 16.1 15.1 Z " transform="scale(1,-1)" stroke-dasharray="165.90755397768174" stroke-dashoffset="165.90755397768174"><animate attributeName="stroke-dashoffset" from="165.90755397768174" to="0" dur="4.977226619330452s" begin="0s; 15s; 30s; 45s; 60s" fill="freeze" id="anim0" /></path><path d="M 9.8 1.1 C 8.3 1.1 7.7 1.5 7.7 3.0 L 7.7 10.1 C 7.7 11.6 8.2 12.0 9.7 12.0 L 15.4 12.0 C 16.8 12.0 17.4 11.6 17.4 10.1 L 17.4 3.0 C 17.4 1.5 16.7 1.2 15.3 1.1 Z " transform="scale(1,-1)" stroke-dasharray="38.516360843014915" stroke-dashoffset="38.516360843014915"><animate attributeName="stroke-dashoffset" from="38.516360843014915" to="0" dur="1.1554908252904474s" begin="anim0.end" fill="freeze" id="anim1" /></path><path d="M 25.6 1.5 C 24.9 1.3 24.1 1.2 23.4 1.0 C 22.3 0.8 21.8 0.1 21.8 -0.7 C 21.8 -1.7 22.7 -2.7 24.1 -2.4 C 28.5 -1.5 32.9 0.1 36.4 1.6 C 37.1 1.9 37.4 2.5 37.4 3.1 C 37.4 3.9 36.8 4.7 35.9 4.7 C 35.6 4.7 35.4 4.7 35.1 4.5 C 33.1 3.8 31.2 3.1 29.1 2.5 L 29.1 20.5 L 35.8 20.5 C 36.5 13.7 37.7 8.0 39.6 3.2 C 41.3 -1.2 43.4 -2.3 45.0 -2.3 C 47.2 -2.3 48.7 -0.4 49.4 4.9 C 49.5 6.1 48.7 6.8 47.8 6.8 C 47.1 6.8 46.4 6.2 46.2 5.2 C 45.9 2.0 45.4 1.4 44.9 1.4 C 44.5 1.4 43.9 1.7 42.6 4.9 C 40.9 9.1 39.8 14.2 39.1 20.5 L 46.2 20.5 C 47.2 20.5 47.7 21.3 47.7 22.1 C 47.7 22.9 47.2 23.7 46.2 23.7 L 38.9 23.7 C 38.5 27.7 38.4 31.7 38.4 35.7 C 40.1 36.1 41.8 36.6 43.5 37.2 C 44.5 37.5 44.9 38.2 44.9 38.9 C 44.9 39.8 44.2 40.6 43.1 40.6 C 42.8 40.6 42.6 40.6 42.2 40.5 C 38.4 38.9 33.5 37.6 28.6 36.8 C 28.2 37.1 27.8 37.2 27.4 37.2 C 26.5 37.2 25.6 36.6 25.6 35.6 Z " transform="scale(1,-1)" stroke-dasharray="217.21317010314164" stroke-dashoffset="217.21317010314164"><animate attributeName="stroke-dashoffset" from="217.21317010314164" to="0" dur="6.516395103094249s" begin="anim1.end" fill="freeze" id="anim2" /></path><path d="M 29.1 33.9 C 31.1 34.2 33.1 34.6 35.0 35.0 C 35.1 31.2 35.2 27.4 35.5 23.7 L 29.1 23.7 Z" transform="scale(1,-1)" stroke-dasharray="33.91508161852727" stroke-dashoffset="33.91508161852727"><animate attributeName="stroke-dashoffset" from="33.91508161852727" to="0" dur="1.017452448555818s" begin="anim2.end" fill="freeze" id="anim_end" /></path></g></svg>