<?xml version='1.0' encoding='utf-8'?>
<svg viewBox="0 -44.0 50.0 50.0" version="1.1" xmlns="http://www.w3.org/2000/svg"><rect x="-1000" y="-1000" width="2000" height="2000" stroke="white" fill="white" /><g style="fill:none;stroke:#000000;stroke-width:1"><path d="M 32.4 36.1 C 32.9 37.1 33.2 38.0 33.6 38.8 C 33.7 39.1 33.8 39.4 33.8 39.6 C 33.8 40.6 32.9 41.2 32.0 41.2 C 31.3 41.2 30.6 40.9 30.2 40.0 C 28.7 35.9 25.9 31.0 22.9 27.9 C 22.4 27.4 22.2 26.9 22.2 26.5 C 22.2 25.7 22.9 25.0 23.8 25.0 C 24.2 25.0 24.7 25.2 25.2 25.7 C 26.5 27.0 27.8 28.6 28.9 30.2 C 30.2 28.0 31.8 25.9 33.6 24.0 C 30.4 21.1 26.6 18.7 22.7 16.9 C 21.9 16.6 21.5 16.0 21.5 15.4 C 21.5 14.6 22.2 13.8 23.1 13.8 C 23.3 13.8 23.6 13.9 23.9 14.0 C 28.1 15.8 32.3 18.4 35.9 21.6 C 38.9 18.9 42.2 16.5 45.8 15.0 C 46.1 14.8 46.4 14.8 46.7 14.8 C 47.8 14.8 48.5 15.6 48.5 16.5 C 48.5 17.2 48.1 17.9 47.2 18.2 C 44.0 19.7 41.0 21.6 38.3 23.9 C 40.2 26.0 42.0 28.2 43.2 30.5 C 43.7 31.4 43.9 32.2 43.9 33.1 C 43.9 34.9 42.4 36.1 39.7 36.1 Z " transform="scale(1,-1)" stroke-dasharray="127.57825514632982" stroke-dashoffset="127.57825514632982"><animate attributeName="stroke-dashoffset" from="127.57825514632982" to="0" dur="3.8273476543898948s" begin="0s; 15s; 30s; 45s; 60s" fill="freeze" id="anim0" /></path><path d="M 30.8 33.2 L 38.7 33.2 C 39.6 33.2 40.1 33.0 40.1 32.5 C 40.1 32.2 40.0 32.0 39.8 31.6 C 38.8 29.8 37.5 27.9 35.9 26.2 C 34.9 27.2 34.0 28.2 33.1 29.2 C 32.2 30.5 31.5 31.7 30.7 33.0 Z " transform="scale(1,-1)" stroke-dasharray="26.106985385768876" stroke-dashoffset="26.106985385768876"><animate attributeName="stroke-dashoffset" from="26.106985385768876" to="0" dur="0.7832095615730662s" begin="anim0.end" fill="freeze" id="anim1" /></path><path d="M 39.7 -2.8 C 43.2 -2.8 44.8 -1.2 44.8 1.8 L 44.8 9.3 C 44.8 12.4 43.2 13.9 39.7 13.9 L 31.1 13.9 C 27.6 13.9 26.0 12.4 26.0 9.3 L 26.0 1.8 C 26.1 -1.6 28.0 -2.7 31.1 -2.8 Z " transform="scale(1,-1)" stroke-dasharray="63.730989528638986" stroke-dashoffset="63.730989528638986"><animate attributeName="stroke-dashoffset" from="63.730989528638986" to="0" dur="1.9119296858591694s" begin="anim1.end" fill="freeze" id="anim2" /></path><path d="M 31.8 0.4 C 30.0 0.4 29.5 0.9 29.5 2.3 L 29.5 8.8 C 29.5 10.3 30.0 10.8 31.8 10.8 L 39.0 10.8 C 40.8 10.8 41.3 10.3 41.3 8.8 L 41.3 2.3 C 41.3 0.7 40.5 0.4 39.0 0.4 Z " transform="scale(1,-1)" stroke-dasharray="41.60920232173062" stroke-dashoffset="41.60920232173062"><animate attributeName="stroke-dashoffset" from="41.60920232173062" to="0" dur="1.2482760696519186s" begin="anim2.end" fill="freeze" id="anim3" /></path><path d="M 16.8 14.0 C 12.8 9.5 7.7 5.9 3.1 4.0 C 2.3 3.7 2.0 3.1 2.0 2.6 C 2.0 1.8 2.6 1.0 3.5 1.0 C 3.8 1.0 4.0 1.1 4.2 1.2 C 8.9 3.1 14.1 6.5 17.4 10.2 C 17.4 9.9 17.4 9.5 17.4 9.1 C 17.4 1.6 15.7 0.1 13.4 0.1 C 12.6 0.1 11.7 0.2 11.0 0.4 C 10.8 0.5 10.6 0.5 10.4 0.5 C 9.4 0.5 8.8 -0.4 8.8 -1.2 C 8.8 -1.9 9.2 -2.5 10.0 -2.8 C 11.1 -3.2 12.4 -3.3 13.5 -3.3 C 18.2 -3.3 20.9 0.1 20.9 9.1 C 20.9 14.4 18.8 19.9 14.9 24.5 C 17.7 26.6 20.2 28.9 22.1 31.2 C 22.4 31.6 22.6 32.0 22.6 32.4 C 22.6 33.3 21.8 34.0 20.9 34.0 C 20.4 34.0 19.9 33.8 19.5 33.2 C 15.6 28.4 8.8 23.5 3.8 21.3 C 3.0 21.0 2.6 20.4 2.6 19.8 C 2.6 18.9 3.2 18.2 4.1 18.2 C 4.3 18.2 4.6 18.3 4.9 18.4 C 7.2 19.4 9.9 21.0 12.6 22.8 C 13.1 22.0 13.7 21.2 14.1 20.4 C 11.0 17.1 7.3 14.6 3.7 12.9 C 2.9 12.6 2.6 12.0 2.6 11.4 C 2.6 10.6 3.1 9.9 4.0 9.9 C 4.2 9.9 4.5 9.9 4.8 10.0 C 8.8 11.8 12.6 14.5 15.6 17.6 C 16.1 16.4 16.4 15.2 16.8 14.0 Z " transform="scale(1,-1)" stroke-dasharray="182.30785741534788" stroke-dashoffset="182.30785741534788"><animate attributeName="stroke-dashoffset" from="182.30785741534788" to="0" dur="5.469235722460437s" begin="anim3.end" fill="freeze" id="anim4" /></path><path d="M 15.9 41.1 C 12.6 39.0 7.5 37.1 3.8 36.3 C 2.8 36.1 2.3 35.4 2.3 34.7 C 2.3 33.8 3.1 32.9 4.2 33.1 C 8.2 33.9 13.8 36.0 17.4 38.1 C 18.2 38.6 18.6 39.2 18.6 39.8 C 18.6 40.7 17.9 41.4 17.0 41.4 C 16.7 41.4 16.3 41.3 15.9 41.1 Z " transform="scale(1,-1)" stroke-dasharray="38.30080235554451" stroke-dashoffset="38.30080235554451"><animate attributeName="stroke-dashoffset" from="38.30080235554451" to="0" dur="1.1490240706663353s" begin="anim4.end" fill="freeze" id="anim5" /></path><path d="M 7.1 31.2 C 6.7 31.7 6.2 31.9 5.8 31.9 C 5.0 31.9 4.2 31.2 4.2 30.5 C 4.2 30.2 4.3 29.9 4.5 29.6 C 5.1 28.9 6.1 27.3 6.6 26.2 C 6.9 25.7 7.4 25.4 7.9 25.4 C 8.8 25.4 9.6 26.1 9.6 27.0 C 9.6 27.2 9.6 27.5 9.4 27.8 C 8.8 29.0 7.8 30.5 7.1 31.2 Z " transform="scale(1,-1)" stroke-dasharray="17.960183764919716" stroke-dashoffset="17.960183764919716"><animate attributeName="stroke-dashoffset" from="17.960183764919716" to="0" dur="0.5388055129475915s" begin="anim5.end" fill="freeze" id="anim6" /></path><path d="M 12.8 33.8 C 12.4 34.2 12.0 34.4 11.5 34.4 C 10.8 34.4 10.0 33.8 10.0 33.1 C 10.0 32.8 10.2 32.5 10.4 32.2 C 10.9 31.6 11.6 30.5 11.9 29.9 C 12.2 29.3 12.8 29.0 13.2 29.0 C 14.1 29.0 14.8 29.7 14.8 30.6 C 14.8 30.8 14.7 31.2 14.5 31.5 C 14.2 32.1 13.3 33.2 12.8 33.8 Z" transform="scale(1,-1)" stroke-dasharray="15.395756602577755" stroke-dashoffset="15.395756602577755"><animate attributeName="stroke-dashoffset" from="15.395756602577755" to="0" dur="0.46187269807733267s" begin="anim6.end" fill="freeze" id="anim_end" /></path></g></svg>