<?xml version='1.0' encoding='utf-8'?>
<svg viewBox="0 -44.0 50.0 50.0" version="1.1" xmlns="http://www.w3.org/2000/svg"><rect x="-1000" y="-1000" width="2000" height="2000" stroke="white" fill="white" /><g style="fill:none;stroke:#000000;stroke-width:1"><path d="M 23.2 31.1 L 23.2 28.6 C 17.8 28.5 12.4 28.5 7.0 28.5 C 5.9 28.5 5.4 27.8 5.4 27.1 C 5.4 26.2 6.0 25.5 7.0 25.5 C 16.6 25.5 29.4 26.0 39.4 26.9 C 40.1 26.3 40.8 25.7 41.5 25.1 C 42.0 24.7 42.4 24.5 42.8 24.5 C 43.6 24.5 44.2 25.2 44.2 25.9 C 44.2 26.4 44.0 27.0 43.4 27.5 C 41.8 28.8 39.8 30.2 37.9 31.2 C 39.6 31.5 40.2 32.4 40.3 34.1 L 40.3 35.9 C 40.3 38.0 39.3 38.9 36.1 38.9 L 26.5 38.9 L 26.5 41.0 C 26.5 42.0 25.7 42.5 24.9 42.5 C 24.1 42.5 23.2 42.0 23.2 41.0 L 23.2 38.9 L 14.0 38.9 C 10.9 38.9 9.9 38.0 9.9 35.9 L 9.9 34.1 C 9.9 31.4 11.7 31.1 14.0 31.1 Z " transform="scale(1,-1)" stroke-dasharray="133.72365436958233" stroke-dashoffset="133.72365436958233"><animate attributeName="stroke-dashoffset" from="133.72365436958233" to="0" dur="4.01170963108747s" begin="0s; 15s; 30s; 45s; 60s" fill="freeze" id="anim0" /></path><path d="M 14.5 33.6 C 13.4 33.6 13.2 33.8 13.2 34.4 L 13.2 35.6 C 13.2 36.1 13.4 36.4 14.5 36.4 L 23.2 36.4 L 23.2 33.6 Z " transform="scale(1,-1)" stroke-dasharray="24.949563434234612" stroke-dashoffset="24.949563434234612"><animate attributeName="stroke-dashoffset" from="24.949563434234612" to="0" dur="0.7484869030270384s" begin="anim0.end" fill="freeze" id="anim1" /></path><path d="M 26.5 33.6 L 26.5 36.4 L 35.6 36.4 C 36.8 36.4 37.0 36.1 37.0 35.6 L 37.0 34.4 C 37.0 33.6 36.3 33.6 35.6 33.6 Z " transform="scale(1,-1)" stroke-dasharray="25.913322393658163" stroke-dashoffset="25.913322393658163"><animate attributeName="stroke-dashoffset" from="25.913322393658163" to="0" dur="0.7773996718097449s" begin="anim1.end" fill="freeze" id="anim2" /></path><path d="M 26.5 31.1 L 34.5 31.1 C 34.5 31.0 34.5 30.9 34.5 30.8 C 34.5 30.3 34.8 29.9 35.4 29.6 C 35.6 29.4 36.0 29.2 36.3 29.0 C 33.1 28.9 29.8 28.8 26.5 28.7 Z " transform="scale(1,-1)" stroke-dasharray="23.175414555784542" stroke-dashoffset="23.175414555784542"><animate attributeName="stroke-dashoffset" from="23.175414555784542" to="0" dur="0.6952624366735363s" begin="anim2.end" fill="freeze" id="anim3" /></path><path d="M 12.2 14.5 L 12.2 11.8 C 9.6 11.6 7.0 11.5 4.4 11.4 C 3.3 11.4 2.8 10.7 2.8 10.0 C 2.8 9.2 3.4 8.4 4.5 8.5 C 9.3 8.7 15.4 9.3 21.2 10.4 C 21.6 10.0 21.9 9.7 22.2 9.3 C 22.6 8.8 23.1 8.6 23.5 8.6 C 24.2 8.6 24.9 9.2 24.9 10.0 C 24.9 10.4 24.7 10.8 24.3 11.2 C 23.2 12.4 21.9 13.7 20.7 14.6 C 22.2 14.8 23.1 15.6 23.1 17.2 L 23.1 19.4 C 23.1 21.2 22.2 22.1 19.3 22.1 L 15.2 22.1 L 15.2 23.4 C 15.2 24.4 14.5 24.8 13.8 24.8 C 13.0 24.8 12.2 24.4 12.2 23.4 L 12.2 22.1 L 8.4 22.1 C 5.6 22.1 4.6 21.2 4.6 19.4 L 4.6 17.2 C 4.7 14.8 6.4 14.6 8.4 14.5 Z " transform="scale(1,-1)" stroke-dasharray="87.17846444691747" stroke-dashoffset="87.17846444691747"><animate attributeName="stroke-dashoffset" from="87.17846444691747" to="0" dur="2.615353933407524s" begin="anim3.end" fill="freeze" id="anim4" /></path><path d="M 8.9 16.9 C 7.9 16.9 7.6 17.2 7.6 17.7 L 7.6 18.9 C 7.6 19.4 7.9 19.7 8.9 19.7 L 12.2 19.7 L 12.2 16.9 Z " transform="scale(1,-1)" stroke-dasharray="14.078215082504448" stroke-dashoffset="14.078215082504448"><animate attributeName="stroke-dashoffset" from="14.078215082504448" to="0" dur="0.4223464524751334s" begin="anim4.end" fill="freeze" id="anim5" /></path><path d="M 15.2 16.9 L 15.2 19.7 L 18.8 19.7 C 19.9 19.7 20.1 19.4 20.1 18.9 L 20.1 17.7 C 20.1 16.9 19.4 16.9 18.8 16.9 Z " transform="scale(1,-1)" stroke-dasharray="14.724152992529463" stroke-dashoffset="14.724152992529463"><animate attributeName="stroke-dashoffset" from="14.724152992529463" to="0" dur="0.44172458977588386s" begin="anim5.end" fill="freeze" id="anim6" /></path><path d="M 15.2 14.5 L 18.2 14.5 C 18.1 14.3 18.0 14.1 18.0 13.9 C 18.0 13.6 18.2 13.2 18.5 13.0 C 18.7 12.8 18.9 12.7 19.0 12.5 C 17.8 12.4 16.5 12.2 15.2 12.1 Z " transform="scale(1,-1)" stroke-dasharray="11.637008846748389" stroke-dashoffset="11.637008846748389"><animate attributeName="stroke-dashoffset" from="11.637008846748389" to="0" dur="0.34911026540245166s" begin="anim6.end" fill="freeze" id="anim7" /></path><path d="M 45.4 19.4 C 45.4 21.2 44.4 22.1 41.6 22.1 L 37.2 22.1 L 37.2 23.9 C 37.2 24.9 36.5 25.3 35.8 25.3 C 35.0 25.3 34.2 24.9 34.2 23.9 L 34.2 22.1 L 30.4 22.1 C 27.6 22.1 26.6 21.2 26.6 19.4 L 26.6 17.2 C 26.6 15.4 27.6 14.5 30.4 14.5 L 34.2 14.5 L 34.2 12.0 C 31.8 11.8 29.5 11.7 27.2 11.6 C 26.2 11.6 25.7 10.9 25.7 10.2 C 25.7 9.5 26.2 8.7 27.4 8.7 C 32.0 9.0 37.4 9.5 43.1 10.5 C 43.6 9.9 44.1 9.3 44.6 8.8 C 45.0 8.2 45.5 8.1 45.9 8.1 C 46.6 8.1 47.2 8.7 47.2 9.4 C 47.2 9.8 47.1 10.2 46.7 10.7 C 45.7 11.9 44.1 13.5 42.7 14.6 C 44.7 14.8 45.4 15.6 45.4 17.2 Z " transform="scale(1,-1)" stroke-dasharray="88.00242374824161" stroke-dashoffset="88.00242374824161"><animate attributeName="stroke-dashoffset" from="88.00242374824161" to="0" dur="2.6400727124472483s" begin="anim7.end" fill="freeze" id="anim8" /></path><path d="M 37.2 16.9 L 37.2 19.7 L 41.1 19.7 C 42.1 19.7 42.4 19.4 42.4 18.9 L 42.4 17.7 C 42.4 16.9 41.6 16.9 41.1 16.9 Z " transform="scale(1,-1)" stroke-dasharray="15.288863994379195" stroke-dashoffset="15.288863994379195"><animate attributeName="stroke-dashoffset" from="15.288863994379195" to="0" dur="0.45866591983137583s" begin="anim8.end" fill="freeze" id="anim9" /></path><path d="M 34.2 19.7 L 34.2 16.9 L 30.9 16.9 C 29.9 16.9 29.6 17.2 29.6 17.7 L 29.6 18.9 C 29.6 19.4 29.9 19.7 30.9 19.7 Z " transform="scale(1,-1)" stroke-dasharray="14.078215082504453" stroke-dashoffset="14.078215082504453"><animate attributeName="stroke-dashoffset" from="14.078215082504453" to="0" dur="0.4223464524751336s" begin="anim9.end" fill="freeze" id="anim10" /></path><path d="M 37.2 14.5 L 40.4 14.5 C 40.2 14.3 40.1 14.1 40.1 13.9 C 40.1 13.6 40.2 13.2 40.6 12.9 L 40.9 12.7 C 39.7 12.5 38.5 12.4 37.2 12.2 Z " transform="scale(1,-1)" stroke-dasharray="11.444305759912313" stroke-dashoffset="11.444305759912313"><animate attributeName="stroke-dashoffset" from="11.444305759912313" to="0" dur="0.34332917279736935s" begin="anim10.end" fill="freeze" id="anim11" /></path><path d="M 8.5 -0.3 L 4.1 -0.3 C 3.2 -0.3 2.9 -1.0 2.9 -1.6 C 2.9 -2.3 3.2 -3.0 4.1 -3.0 L 46.0 -3.0 C 46.9 -3.0 47.3 -2.3 47.3 -1.6 C 47.3 -1.0 46.9 -0.3 46.0 -0.3 L 41.6 -0.3 L 41.6 3.6 C 41.6 6.1 40.3 7.2 36.9 7.2 L 13.2 7.2 C 9.8 7.2 8.5 6.1 8.5 3.6 Z " transform="scale(1,-1)" stroke-dasharray="104.18567170454209" stroke-dashoffset="104.18567170454209"><animate attributeName="stroke-dashoffset" from="104.18567170454209" to="0" dur="3.1255701511362624s" begin="anim11.end" fill="freeze" id="anim12" /></path><path d="M 11.8 -0.3 L 11.8 3.1 C 11.8 4.2 12.3 4.6 13.8 4.6 L 18.1 4.6 L 18.1 -0.3 Z " transform="scale(1,-1)" stroke-dasharray="21.815074204939958" stroke-dashoffset="21.815074204939958"><animate attributeName="stroke-dashoffset" from="21.815074204939958" to="0" dur="0.6544522261481988s" begin="anim12.end" fill="freeze" id="anim13" /></path><path d="M 38.3 -0.3 L 31.7 -0.3 L 31.7 4.6 L 36.4 4.6 C 37.8 4.6 38.3 4.2 38.3 3.1 Z " transform="scale(1,-1)" stroke-dasharray="22.42308068211352" stroke-dashoffset="22.42308068211352"><animate attributeName="stroke-dashoffset" from="22.42308068211352" to="0" dur="0.6726924204634055s" begin="anim13.end" fill="freeze" id="anim14" /></path><path d="M 28.5 -0.3 L 21.4 -0.3 L 21.4 4.6 L 28.5 4.6 Z" transform="scale(1,-1)" stroke-dasharray="24.0" stroke-dashoffset="24.0"><animate attributeName="stroke-dashoffset" from="24.0" to="0" dur="0.72s" begin="anim14.end" fill="freeze" id="anim_end" /></path></g></svg>