<?xml version='1.0' encoding='utf-8'?>
<svg viewBox="0 -44.0 50.0 50.0" version="1.1" xmlns="http://www.w3.org/2000/svg"><rect x="-1000" y="-1000" width="2000" height="2000" stroke="white" fill="white" /><g style="fill:none;stroke:#000000;stroke-width:1"><path d="M 13.7 14.4 C 16.6 14.4 17.9 15.9 17.9 18.7 L 17.9 28.1 C 17.9 30.9 16.6 32.4 13.7 32.4 L 12.0 32.4 L 12.0 40.1 C 12.0 41.1 11.2 41.6 10.4 41.6 C 9.6 41.6 8.8 41.1 8.8 40.1 L 8.8 32.4 L 7.2 32.4 C 4.3 32.4 2.9 30.9 2.9 28.1 L 2.9 18.7 C 2.9 15.9 4.3 14.4 7.2 14.4 L 8.8 14.4 L 8.8 4.2 C 6.7 3.6 4.6 3.2 2.7 2.8 C 1.9 2.7 1.5 2.0 1.5 1.2 C 1.5 0.2 2.2 -0.8 3.4 -0.6 C 7.5 0.4 12.0 1.7 16.4 3.4 C 16.5 3.0 16.6 2.7 16.7 2.2 C 16.9 1.4 17.6 1.0 18.2 1.0 C 19.0 1.0 19.8 1.6 19.8 2.7 C 19.8 2.9 19.8 3.1 19.7 3.4 C 19.0 5.7 17.8 8.6 16.9 10.1 C 16.5 10.7 16.0 11.0 15.5 11.0 C 14.8 11.0 14.1 10.4 14.1 9.6 C 14.1 9.4 14.1 9.2 14.2 9.0 C 14.6 8.2 15.0 7.2 15.4 6.2 C 14.2 5.8 13.2 5.4 12.0 5.1 L 12.0 14.4 Z " transform="scale(1,-1)" stroke-dasharray="143.1203903883665" stroke-dashoffset="143.1203903883665"><animate attributeName="stroke-dashoffset" from="143.1203903883665" to="0" dur="4.293611711650995s" begin="0s; 15s; 30s; 45s; 60s" fill="freeze" id="anim0" /></path><path d="M 12.0 17.2 L 12.0 29.6 L 13.1 29.6 C 14.6 29.6 14.9 29.2 14.9 27.6 L 14.9 19.2 C 14.9 17.7 14.6 17.2 13.1 17.2 Z " transform="scale(1,-1)" stroke-dasharray="29.43387186630526" stroke-dashoffset="29.43387186630526"><animate attributeName="stroke-dashoffset" from="29.43387186630526" to="0" dur="0.8830161559891577s" begin="anim0.end" fill="freeze" id="anim1" /></path><path d="M 8.8 29.6 L 8.8 17.2 L 7.8 17.2 C 6.4 17.2 6.0 17.6 6.0 19.2 L 6.0 27.6 C 6.0 29.2 6.4 29.6 7.8 29.6 Z " transform="scale(1,-1)" stroke-dasharray="29.203402715808377" stroke-dashoffset="29.203402715808377"><animate attributeName="stroke-dashoffset" from="29.203402715808377" to="0" dur="0.8761020814742513s" begin="anim1.end" fill="freeze" id="anim2" /></path><path d="M 46.0 24.5 C 47.0 24.5 47.4 25.2 47.4 26.1 C 47.4 26.8 46.9 27.7 45.9 27.6 L 38.4 27.5 C 38.2 31.2 38.1 35.4 38.1 39.7 C 38.1 40.8 37.3 41.2 36.5 41.2 C 35.6 41.2 34.8 40.8 34.8 39.8 C 34.8 35.6 34.9 31.6 35.0 27.5 L 28.8 27.4 L 28.8 35.5 C 29.9 36.2 31.0 37.1 32.0 37.9 C 32.3 38.2 32.5 38.7 32.5 39.1 C 32.5 40.0 31.7 40.8 30.7 40.8 C 30.3 40.8 29.9 40.7 29.5 40.2 C 27.3 38.2 23.9 36.1 21.2 35.0 C 20.4 34.6 20.1 34.1 20.1 33.6 C 20.1 32.8 20.8 32.0 21.7 32.0 C 22.0 32.0 22.2 32.0 22.5 32.1 C 23.4 32.5 24.4 32.9 25.5 33.5 L 25.5 27.2 L 20.8 27.2 C 19.9 27.2 19.4 26.5 19.4 25.7 C 19.4 24.9 19.9 24.1 20.9 24.1 L 25.5 24.2 L 25.5 14.2 C 23.7 13.7 21.9 13.2 20.2 12.8 C 19.4 12.6 19.0 12.0 19.0 11.3 C 19.0 10.4 19.8 9.4 21.1 9.7 C 22.5 10.0 24.0 10.4 25.5 10.9 L 25.5 1.6 C 25.5 0.2 25.1 -0.4 24.0 -0.4 C 23.1 -0.4 22.4 -0.2 21.5 -0.1 C 20.4 0.1 19.8 -0.8 19.8 -1.7 C 19.8 -2.4 20.2 -3.1 21.2 -3.3 C 22.1 -3.5 23.0 -3.7 24.0 -3.7 C 27.8 -3.7 28.8 -2.0 28.8 1.3 L 28.8 12.0 C 30.4 12.5 31.9 13.2 33.2 13.8 C 33.9 14.1 34.1 14.6 34.1 15.1 C 34.1 15.9 33.5 16.7 32.6 16.7 C 32.5 16.7 32.2 16.7 32.0 16.6 C 31.0 16.1 29.9 15.7 28.8 15.3 L 28.8 24.2 L 35.1 24.4 C 35.5 18.9 36.0 14.4 36.7 10.7 C 36.9 9.8 37.1 9.0 37.2 8.2 C 35.4 5.6 33.4 3.2 31.2 1.5 C 30.8 1.1 30.6 0.6 30.6 0.1 C 30.6 -0.7 31.2 -1.4 32.1 -1.4 C 32.5 -1.4 32.9 -1.2 33.3 -0.9 C 35.0 0.5 36.7 2.3 38.4 4.3 C 40.1 -0.8 42.1 -2.8 44.3 -2.8 C 46.7 -2.8 48.3 -0.9 48.6 4.6 C 48.7 5.8 47.9 6.4 47.1 6.4 C 46.3 6.4 45.5 5.9 45.5 4.9 C 45.3 1.3 44.8 1.0 44.2 1.0 C 43.6 1.0 42.2 2.6 40.8 7.6 C 43.1 11.1 45.1 15.0 46.5 18.8 C 46.6 18.9 46.6 19.2 46.6 19.4 C 46.6 20.4 45.6 21.2 44.7 21.2 C 44.1 21.2 43.6 20.9 43.2 20.1 C 42.3 17.3 41.1 14.7 39.7 12.2 C 39.3 14.2 39.1 16.4 38.9 18.6 C 38.7 20.5 38.6 22.5 38.5 24.4 Z " transform="scale(1,-1)" stroke-dasharray="319.8837693105537" stroke-dashoffset="319.8837693105537"><animate attributeName="stroke-dashoffset" from="319.8837693105537" to="0" dur="9.59651307931661s" begin="anim2.end" fill="freeze" id="anim3" /></path><path d="M 43.0 37.5 C 42.6 38.0 42.1 38.1 41.7 38.1 C 40.8 38.1 40.1 37.4 40.1 36.6 C 40.1 36.3 40.2 36.0 40.4 35.8 C 41.2 34.6 42.2 33.1 43.0 31.4 C 43.2 30.7 43.8 30.4 44.4 30.4 C 45.2 30.4 46.1 31.2 46.1 32.2 C 46.1 32.6 46.0 33.0 45.8 33.4 C 45.1 34.6 44.0 36.3 43.0 37.5 Z" transform="scale(1,-1)" stroke-dasharray="20.705585440739135" stroke-dashoffset="20.705585440739135"><animate attributeName="stroke-dashoffset" from="20.705585440739135" to="0" dur="0.621167563222174s" begin="anim3.end" fill="freeze" id="anim_end" /></path></g></svg>