<?xml version='1.0' encoding='utf-8'?>
<svg viewBox="0 -44.0 50.0 50.0" version="1.1" xmlns="http://www.w3.org/2000/svg"><rect x="-1000" y="-1000" width="2000" height="2000" stroke="white" fill="white" /><g style="fill:none;stroke:#000000;stroke-width:1"><path d="M 9.8 -3.1 C 9.8 -4.0 10.7 -4.5 11.5 -4.5 C 12.4 -4.5 13.2 -4.0 13.2 -3.1 L 13.2 13.0 C 14.5 13.1 15.8 13.2 17.1 13.4 C 17.2 13.1 17.4 12.7 17.5 12.4 C 17.8 11.5 18.4 11.2 19.1 11.2 C 20.0 11.2 20.8 11.8 20.8 12.7 C 20.8 13.0 20.7 13.2 20.6 13.5 C 19.9 15.4 18.8 17.5 17.7 18.9 C 17.3 19.6 16.7 19.8 16.2 19.8 C 15.4 19.8 14.7 19.2 14.7 18.6 C 14.7 18.2 14.8 17.9 15.0 17.7 C 15.3 17.2 15.6 16.7 15.9 16.1 C 14.1 15.9 12.2 15.7 10.4 15.6 C 12.7 18.4 15.2 22.0 17.1 25.2 C 17.2 25.7 17.4 26.0 17.4 26.3 C 17.4 27.2 16.6 27.9 15.7 27.9 C 15.1 27.9 14.5 27.6 14.1 26.9 C 13.2 25.3 12.2 23.7 11.2 22.0 C 10.4 22.8 9.6 23.5 8.7 24.2 C 10.2 26.2 11.4 28.1 12.6 30.5 C 12.7 30.8 12.8 31.1 12.8 31.3 C 12.8 32.2 11.9 32.9 11.0 32.9 C 10.4 32.9 9.8 32.6 9.5 31.9 C 8.5 29.6 7.5 27.9 6.2 26.1 C 6.0 26.3 5.8 26.5 5.6 26.6 C 5.2 26.9 4.8 27.0 4.5 27.0 C 3.6 27.0 3.0 26.3 3.0 25.5 C 3.0 25.0 3.2 24.5 3.8 24.1 C 5.3 23.0 7.2 21.4 9.5 19.4 C 8.6 18.0 7.6 16.7 6.5 15.4 C 5.5 15.4 4.5 15.3 3.5 15.3 C 2.5 15.3 2.0 14.6 2.0 13.8 C 2.0 13.0 2.5 12.2 3.5 12.2 C 5.5 12.3 7.6 12.5 9.8 12.6 Z " transform="scale(1,-1)" stroke-dasharray="144.20810582375998" stroke-dashoffset="144.20810582375998"><animate attributeName="stroke-dashoffset" from="144.20810582375998" to="0" dur="4.3262431747128s" begin="0s; 15s; 30s; 45s; 60s" fill="freeze" id="anim0" /></path><path d="M 22.2 -0.4 L 19.4 -0.4 C 18.5 -0.4 18.0 -1.1 18.0 -1.8 C 18.0 -2.5 18.5 -3.2 19.4 -3.2 L 47.0 -3.2 C 47.9 -3.2 48.4 -2.5 48.4 -1.8 C 48.4 -1.1 47.9 -0.4 47.0 -0.4 L 44.8 -0.4 L 44.8 7.8 C 44.8 10.8 43.3 12.2 39.8 12.2 L 27.1 12.2 C 23.7 12.2 22.2 10.8 22.2 7.8 Z " transform="scale(1,-1)" stroke-dasharray="85.83894352099396" stroke-dashoffset="85.83894352099396"><animate attributeName="stroke-dashoffset" from="85.83894352099396" to="0" dur="2.575168305629819s" begin="anim0.end" fill="freeze" id="anim1" /></path><path d="M 25.6 -0.4 L 25.6 7.2 C 25.6 9.0 26.0 9.5 27.6 9.5 L 28.6 9.5 L 28.6 -0.4 Z " transform="scale(1,-1)" stroke-dasharray="25.12655949016921" stroke-dashoffset="25.12655949016921"><animate attributeName="stroke-dashoffset" from="25.12655949016921" to="0" dur="0.7537967847050763s" begin="anim1.end" fill="freeze" id="anim2" /></path><path d="M 41.5 -0.4 L 38.0 -0.4 L 38.0 9.5 L 39.5 9.5 C 41.0 9.5 41.5 9.0 41.5 7.2 Z " transform="scale(1,-1)" stroke-dasharray="26.099189586899346" stroke-dashoffset="26.099189586899346"><animate attributeName="stroke-dashoffset" from="26.099189586899346" to="0" dur="0.7829756876069803s" begin="anim2.end" fill="freeze" id="anim3" /></path><path d="M 34.9 -0.4 L 31.8 -0.4 L 31.8 9.5 L 34.9 9.5 Z " transform="scale(1,-1)" stroke-dasharray="25.999999999999996" stroke-dashoffset="25.999999999999996"><animate attributeName="stroke-dashoffset" from="25.999999999999996" to="0" dur="0.7799999999999999s" begin="anim3.end" fill="freeze" id="anim4" /></path><path d="M 33.0 22.4 C 34.3 21.6 35.5 20.5 36.6 19.4 C 36.9 19.0 37.3 18.9 37.7 18.9 C 38.5 18.9 39.1 19.5 39.1 20.2 C 39.1 20.6 39.0 21.0 38.6 21.4 C 37.5 22.5 36.0 23.6 34.4 24.6 C 34.6 25.0 34.9 25.4 35.1 25.9 C 35.2 26.1 35.2 26.4 35.2 26.6 C 35.2 27.4 34.5 28.0 33.8 28.0 C 33.2 28.0 32.6 27.7 32.4 27.0 C 31.2 24.8 29.9 22.8 28.2 21.0 C 28.0 20.6 27.8 20.2 27.8 20.0 C 27.8 19.2 28.5 18.7 29.2 18.7 C 29.7 18.7 30.2 18.9 30.6 19.3 C 31.5 20.2 32.2 21.3 33.0 22.4 Z " transform="scale(1,-1)" stroke-dasharray="36.98624375646963" stroke-dashoffset="36.98624375646963"><animate attributeName="stroke-dashoffset" from="36.98624375646963" to="0" dur="1.1095873126940887s" begin="anim4.end" fill="freeze" id="anim5" /></path><path d="M 38.7 15.1 C 42.4 15.1 43.8 16.7 43.8 19.4 L 43.8 26.8 C 43.8 29.6 42.4 31.1 38.7 31.1 L 28.3 31.1 C 24.6 31.1 23.2 29.6 23.2 26.8 L 23.2 19.4 C 23.2 16.0 25.3 15.2 28.3 15.1 Z " transform="scale(1,-1)" stroke-dasharray="66.31285319425254" stroke-dashoffset="66.31285319425254"><animate attributeName="stroke-dashoffset" from="66.31285319425254" to="0" dur="1.9893855958275761s" begin="anim5.end" fill="freeze" id="anim6" /></path><path d="M 28.5 17.9 C 27.1 17.9 26.5 18.4 26.5 19.9 L 26.5 26.3 C 26.5 27.8 27.1 28.2 29.0 28.2 L 38.0 28.2 C 39.9 28.2 40.5 27.8 40.5 26.3 L 40.5 19.9 C 40.5 18.2 39.5 17.9 38.0 17.9 Z " transform="scale(1,-1)" stroke-dasharray="45.732555090748825" stroke-dashoffset="45.732555090748825"><animate attributeName="stroke-dashoffset" from="45.732555090748825" to="0" dur="1.3719766527224646s" begin="anim6.end" fill="freeze" id="anim7" /></path><path d="M 30.0 38.1 L 19.5 38.1 L 19.5 40.6 C 19.5 41.6 18.7 42.1 17.9 42.1 C 17.0 42.1 16.2 41.6 16.2 40.6 L 16.2 38.1 L 4.0 38.1 C 3.1 38.1 2.7 37.4 2.7 36.6 C 2.7 35.9 3.1 35.2 4.0 35.2 L 16.2 35.2 L 16.2 33.1 C 16.2 32.1 17.0 31.7 17.9 31.7 C 18.7 31.7 19.5 32.1 19.5 33.1 L 19.5 35.2 L 30.0 35.2 L 30.0 33.5 C 30.0 32.5 30.9 32.0 31.7 32.0 C 32.5 32.0 33.4 32.5 33.4 33.5 L 33.4 35.2 L 45.9 35.2 C 46.8 35.2 47.2 35.9 47.2 36.6 C 47.2 37.4 46.8 38.1 45.9 38.1 L 33.4 38.1 L 33.4 40.6 C 33.4 41.6 32.5 42.1 31.7 42.1 C 30.9 42.1 30.0 41.6 30.0 40.6 Z " transform="scale(1,-1)" stroke-dasharray="116.80282085823775" stroke-dashoffset="116.80282085823775"><animate attributeName="stroke-dashoffset" from="116.80282085823775" to="0" dur="3.5040846257471325s" begin="anim7.end" fill="freeze" id="anim8" /></path><path d="M 17.9 9.2 C 17.5 9.8 16.9 10.0 16.4 10.0 C 15.6 10.0 14.9 9.5 14.9 8.7 C 14.9 8.5 15.0 8.3 15.1 8.1 C 15.7 6.8 16.4 5.0 16.8 3.3 C 17.1 2.4 17.7 2.0 18.4 2.0 C 19.2 2.0 20.0 2.6 20.0 3.7 C 20.0 3.8 20.0 4.0 19.9 4.2 C 19.5 6.0 18.7 8.0 17.9 9.2 Z " transform="scale(1,-1)" stroke-dasharray="20.48129903004892" stroke-dashoffset="20.48129903004892"><animate attributeName="stroke-dashoffset" from="20.48129903004892" to="0" dur="0.6144389709014676s" begin="anim8.end" fill="freeze" id="anim9" /></path><path d="M 4.7 8.6 C 4.2 5.9 3.6 3.7 2.5 1.7 C 2.4 1.4 2.2 1.0 2.2 0.8 C 2.2 -0.2 3.1 -0.8 3.9 -0.8 C 4.5 -0.8 5.1 -0.5 5.5 0.3 C 6.7 2.6 7.5 5.4 8.0 8.1 C 8.2 9.2 7.3 9.8 6.4 9.8 C 5.6 9.8 4.9 9.4 4.7 8.6 Z" transform="scale(1,-1)" stroke-dasharray="26.045662696868984" stroke-dashoffset="26.045662696868984"><animate attributeName="stroke-dashoffset" from="26.045662696868984" to="0" dur="0.7813698809060695s" begin="anim9.end" fill="freeze" id="anim_end" /></path></g></svg>