<?xml version='1.0' encoding='utf-8'?>
<svg viewBox="0 -44.0 50.0 50.0" version="1.1" xmlns="http://www.w3.org/2000/svg"><rect x="-1000" y="-1000" width="2000" height="2000" stroke="white" fill="white" /><g style="fill:none;stroke:#000000;stroke-width:1"><path d="M 20.8 17.4 C 23.9 19.2 26.9 21.4 29.7 23.8 L 45.6 23.8 C 46.6 23.8 47.2 24.6 47.2 25.4 C 47.2 26.1 46.6 26.9 45.6 26.9 L 33.4 26.9 C 36.6 30.0 39.6 33.1 41.8 36.2 C 42.2 36.7 42.2 37.1 42.2 37.5 C 42.2 38.5 41.5 39.2 40.5 39.2 C 39.9 39.2 39.3 38.9 38.9 38.2 C 35.9 34.0 32.3 30.2 28.4 26.9 L 25.3 26.9 L 25.3 32.4 L 32.1 32.4 C 33.1 32.4 33.6 33.2 33.6 34.0 C 33.6 34.8 33.1 35.6 32.1 35.6 L 25.3 35.6 L 25.3 40.5 C 25.3 41.6 24.5 42.1 23.6 42.1 C 22.7 42.1 21.8 41.6 21.8 40.5 L 21.8 35.6 L 9.8 35.6 C 8.8 35.6 8.2 34.8 8.2 34.0 C 8.2 33.2 8.8 32.4 9.8 32.4 L 21.8 32.4 L 21.8 26.9 L 4.3 26.9 C 3.3 26.9 2.8 26.1 2.8 25.4 C 2.8 24.6 3.3 23.8 4.3 23.8 L 24.5 23.8 C 17.9 18.8 10.5 14.6 3.8 12.0 C 2.8 11.6 2.4 10.9 2.4 10.3 C 2.4 9.5 3.1 8.7 4.1 8.7 C 4.4 8.7 4.7 8.7 4.9 8.8 C 8.2 10.1 11.6 11.7 15.0 13.6 C 15.0 13.3 15.0 13.1 15.0 12.8 L 15.0 1.8 C 15.0 -2.0 17.4 -2.8 20.7 -2.8 L 35.5 -2.8 C 39.6 -2.8 41.2 -1.3 41.2 1.8 L 41.2 12.8 C 41.2 15.8 39.6 17.4 35.5 17.4 Z " transform="scale(1,-1)" stroke-dasharray="315.9385490810806" stroke-dashoffset="315.9385490810806"><animate attributeName="stroke-dashoffset" from="315.9385490810806" to="0" dur="9.478156472432419s" begin="0s; 15s; 30s; 45s; 60s" fill="freeze" id="anim0" /></path><path d="M 21.2 0.2 C 19.2 0.2 18.6 0.9 18.6 2.3 L 18.6 6.0 L 37.5 6.0 L 37.5 2.3 C 37.5 0.5 36.5 0.2 34.9 0.2 Z " transform="scale(1,-1)" stroke-dasharray="47.78985467772376" stroke-dashoffset="47.78985467772376"><animate attributeName="stroke-dashoffset" from="47.78985467772376" to="0" dur="1.4336956403317127s" begin="anim0.end" fill="freeze" id="anim1" /></path><path d="M 37.5 9.0 L 18.6 9.0 L 18.6 12.2 C 18.6 13.8 19.2 14.4 21.2 14.4 L 34.9 14.4 C 37.0 14.4 37.5 13.8 37.5 12.2 Z" transform="scale(1,-1)" stroke-dasharray="47.01857483583666" stroke-dashoffset="47.01857483583666"><animate attributeName="stroke-dashoffset" from="47.01857483583666" to="0" dur="1.4105572450750998s" begin="anim1.end" fill="freeze" id="anim_end" /></path></g></svg>