<?xml version='1.0' encoding='utf-8'?>
<svg viewBox="0 -44.0 50.0 50.0" version="1.1" xmlns="http://www.w3.org/2000/svg"><rect x="-1000" y="-1000" width="2000" height="2000" stroke="white" fill="white" /><g style="fill:none;stroke:#000000;stroke-width:1"><path d="M 16.0 13.8 C 12.2 9.5 7.2 6.1 3.0 4.2 C 2.2 3.9 1.9 3.3 1.9 2.8 C 1.9 2.0 2.5 1.2 3.4 1.2 C 3.6 1.2 3.9 1.3 4.1 1.4 C 8.6 3.2 13.2 6.5 16.5 10.0 C 16.6 9.6 16.6 9.2 16.6 8.9 C 16.6 1.6 14.9 0.1 12.7 0.1 C 11.8 0.1 11.0 0.2 10.3 0.5 C 10.1 0.5 9.9 0.6 9.8 0.6 C 8.8 0.6 8.2 -0.3 8.2 -1.2 C 8.2 -1.8 8.6 -2.5 9.4 -2.8 C 10.5 -3.1 11.7 -3.2 12.8 -3.2 C 17.4 -3.2 20.0 0.0 20.0 8.9 C 20.0 14.2 18.0 19.6 14.2 24.2 C 16.8 26.1 19.1 28.2 20.9 30.4 C 21.2 30.8 21.4 31.2 21.4 31.7 C 21.4 32.6 20.6 33.2 19.8 33.2 C 19.3 33.2 18.8 33.1 18.4 32.5 C 14.5 27.7 8.2 23.3 3.5 21.2 C 2.7 20.8 2.4 20.2 2.4 19.6 C 2.4 18.8 3.0 18.1 3.8 18.1 C 4.0 18.1 4.3 18.2 4.6 18.2 C 6.8 19.2 9.3 20.7 11.9 22.5 C 12.4 21.8 12.9 21.0 13.4 20.2 C 10.5 17.1 7.0 14.5 3.5 12.9 C 2.7 12.6 2.4 12.0 2.4 11.4 C 2.4 10.6 3.0 9.9 3.9 9.9 C 4.1 9.9 4.4 10.0 4.7 10.1 C 8.5 11.8 12.0 14.4 14.8 17.3 C 15.2 16.2 15.6 15.0 16.0 13.8 Z " transform="scale(1,-1)" stroke-dasharray="175.81418232265162" stroke-dashoffset="175.81418232265162"><animate attributeName="stroke-dashoffset" from="175.81418232265162" to="0" dur="5.2744254696795485s" begin="0s; 15s; 30s; 45s; 60s" fill="freeze" id="anim0" /></path><path d="M 35.7 16.4 L 35.7 1.0 C 35.7 -2.0 37.1 -2.9 41.4 -2.9 C 46.1 -2.9 47.9 -1.2 48.2 3.8 C 48.4 5.0 47.5 5.6 46.6 5.6 C 45.9 5.6 45.1 5.1 45.0 4.1 C 44.7 1.0 43.8 0.2 41.5 0.2 C 39.6 0.2 39.2 0.8 39.2 1.9 L 39.2 16.4 L 40.5 16.4 C 44.0 16.4 45.6 17.5 45.6 20.6 L 45.6 32.6 C 45.6 35.6 44.1 37.0 40.6 37.0 L 36.3 37.0 C 35.4 37.0 34.9 36.2 34.9 35.5 C 34.9 34.6 35.4 33.9 36.3 33.9 L 40.0 33.9 C 41.7 33.9 42.2 33.5 42.2 32.1 L 42.2 28.9 L 37.0 28.9 C 36.0 28.9 35.6 28.2 35.6 27.4 C 35.6 26.7 36.0 25.9 37.0 25.9 L 42.2 25.9 L 42.2 21.2 C 42.2 19.7 41.6 19.4 39.9 19.4 L 29.0 19.4 C 27.2 19.4 26.6 19.7 26.6 21.2 L 26.6 25.9 L 31.4 25.9 C 32.3 25.9 32.8 26.7 32.8 27.4 C 32.8 28.2 32.3 28.9 31.4 28.9 L 26.6 28.9 L 26.6 33.5 C 29.0 34.8 31.2 36.2 33.1 37.9 C 33.6 38.2 33.8 38.8 33.8 39.2 C 33.8 40.1 33.0 41.0 32.1 41.0 C 31.6 41.0 31.1 40.8 30.7 40.3 C 29.2 39.0 27.6 37.6 25.8 36.6 C 25.5 36.7 25.2 36.8 24.9 36.8 C 24.1 36.8 23.2 36.2 23.2 35.1 L 23.2 20.6 C 23.2 17.5 24.9 16.4 28.4 16.4 L 28.8 16.4 C 28.3 8.5 25.4 2.8 20.0 -0.5 C 19.2 -1.0 18.8 -1.7 18.8 -2.2 C 18.8 -3.1 19.5 -3.8 20.4 -3.8 C 20.8 -3.8 21.2 -3.7 21.6 -3.5 C 28.1 0.5 31.7 7.3 32.2 16.4 Z " transform="scale(1,-1)" stroke-dasharray="271.4968106556716" stroke-dashoffset="271.4968106556716"><animate attributeName="stroke-dashoffset" from="271.4968106556716" to="0" dur="8.144904319670147s" begin="anim0.end" fill="freeze" id="anim1" /></path><path d="M 15.7 40.8 C 12.4 38.7 7.2 36.8 3.5 36.0 C 2.5 35.8 2.1 35.1 2.1 34.4 C 2.1 33.5 2.8 32.5 4.0 32.8 C 8.0 33.6 13.6 35.6 17.3 37.8 C 18.1 38.2 18.4 38.9 18.4 39.5 C 18.4 40.3 17.7 41.1 16.8 41.1 C 16.4 41.1 16.1 41.0 15.7 40.8 Z " transform="scale(1,-1)" stroke-dasharray="38.43528590667037" stroke-dashoffset="38.43528590667037"><animate attributeName="stroke-dashoffset" from="38.43528590667037" to="0" dur="1.1530585772001112s" begin="anim1.end" fill="freeze" id="anim2" /></path><path d="M 6.7 30.9 C 6.3 31.3 5.9 31.5 5.4 31.5 C 4.6 31.5 3.9 30.9 3.9 30.2 C 3.9 29.9 4.0 29.6 4.2 29.2 C 4.8 28.5 5.8 27.0 6.2 26.1 C 6.5 25.4 7.0 25.2 7.5 25.2 C 8.3 25.2 9.2 25.8 9.2 26.7 C 9.2 27.0 9.1 27.2 9.0 27.5 C 8.5 28.6 7.4 30.2 6.7 30.9 Z " transform="scale(1,-1)" stroke-dasharray="17.561938474477525" stroke-dashoffset="17.561938474477525"><animate attributeName="stroke-dashoffset" from="17.561938474477525" to="0" dur="0.5268581542343257s" begin="anim2.end" fill="freeze" id="anim3" /></path><path d="M 12.2 33.5 C 11.9 33.9 11.5 34.0 11.1 34.0 C 10.2 34.0 9.6 33.5 9.6 32.8 C 9.6 32.5 9.7 32.1 10.0 31.8 C 10.5 31.2 11.1 30.2 11.4 29.7 C 11.8 29.0 12.2 28.8 12.8 28.8 C 13.5 28.8 14.2 29.4 14.2 30.2 C 14.2 30.5 14.1 30.8 14.0 31.1 C 13.7 31.8 12.8 32.9 12.2 33.5 Z" transform="scale(1,-1)" stroke-dasharray="14.933697973165764" stroke-dashoffset="14.933697973165764"><animate attributeName="stroke-dashoffset" from="14.933697973165764" to="0" dur="0.44801093919497287s" begin="anim3.end" fill="freeze" id="anim_end" /></path></g></svg>