<?xml version='1.0' encoding='utf-8'?>
<svg viewBox="0 -44.0 50.0 50.0" version="1.1" xmlns="http://www.w3.org/2000/svg"><rect x="-1000" y="-1000" width="2000" height="2000" stroke="white" fill="white" /><g style="fill:none;stroke:#000000;stroke-width:1"><path d="M 13.5 27.7 C 12.2 27.6 11.1 27.4 9.9 27.3 C 11.5 29.2 13.3 31.7 15.1 34.4 C 15.2 34.6 15.3 34.9 15.3 35.1 C 15.3 36.0 14.6 36.6 13.7 36.6 C 13.2 36.6 12.7 36.4 12.3 35.8 C 11.6 34.6 10.9 33.4 10.1 32.2 C 9.5 32.8 9.0 33.4 8.3 33.9 C 9.7 35.8 10.9 37.8 11.7 39.4 C 11.8 39.7 11.9 39.9 11.9 40.2 C 11.9 41.1 11.1 41.6 10.4 41.6 C 9.8 41.6 9.2 41.2 8.8 40.6 C 8.0 38.8 7.1 37.2 6.1 35.8 C 6.0 35.8 5.9 35.9 5.8 36.0 C 5.5 36.2 5.1 36.3 4.8 36.3 C 4.0 36.3 3.4 35.7 3.4 35.0 C 3.4 34.6 3.6 34.1 4.0 33.8 C 5.4 32.7 6.9 31.4 8.3 29.8 C 7.7 28.8 7.0 27.9 6.2 27.0 C 5.5 26.9 4.8 26.9 4.0 26.9 C 3.1 26.8 2.6 26.2 2.6 25.5 C 2.6 24.8 3.2 24.0 4.2 24.1 C 6.5 24.3 9.1 24.6 11.6 25.0 C 9.5 22.4 6.8 20.5 3.8 19.2 C 3.0 18.9 2.6 18.3 2.6 17.8 C 2.6 17.1 3.2 16.4 4.0 16.4 C 4.3 16.4 4.5 16.4 4.8 16.6 C 10.0 18.8 14.4 22.5 16.8 27.5 C 16.9 27.8 16.9 28.0 16.9 28.2 C 16.9 29.1 16.2 29.7 15.4 29.7 C 14.9 29.7 14.2 29.4 14.0 28.7 C 13.8 28.4 13.6 28.1 13.5 27.7 Z " transform="scale(1,-1)" stroke-dasharray="107.04911183532361" stroke-dashoffset="107.04911183532361"><animate attributeName="stroke-dashoffset" from="107.04911183532361" to="0" dur="3.211473355059708s" begin="0s; 15s; 30s; 45s; 60s" fill="freeze" id="anim0" /></path><path d="M 18.4 24.2 C 17.9 24.1 17.3 24.1 16.8 24.0 C 15.6 23.9 15.1 23.2 15.1 22.6 C 15.1 21.8 15.8 21.1 16.9 21.2 C 21.2 21.6 25.2 22.2 29.5 23.4 C 29.9 22.9 30.1 22.5 30.3 22.1 C 30.7 21.4 31.4 21.1 31.9 21.1 C 32.7 21.1 33.4 21.6 33.4 22.4 C 33.4 22.8 33.2 23.1 33.1 23.5 C 32.2 25.0 30.4 27.2 29.1 28.2 C 29.0 28.4 28.9 28.5 28.7 28.6 C 30.9 28.6 32.2 29.3 32.3 31.7 L 32.3 37.4 C 32.3 39.5 31.3 40.5 28.3 40.5 L 22.5 40.5 C 19.5 40.5 18.4 39.5 18.4 37.4 Z " transform="scale(1,-1)" stroke-dasharray="75.01723513657092" stroke-dashoffset="75.01723513657092"><animate attributeName="stroke-dashoffset" from="75.01723513657092" to="0" dur="2.2505170540971275s" begin="anim0.end" fill="freeze" id="anim1" /></path><path d="M 21.5 28.6 L 26.9 28.6 C 26.5 28.4 26.3 28.0 26.3 27.7 C 26.3 27.3 26.5 27.0 26.8 26.6 C 27.1 26.3 27.5 26.0 27.8 25.6 C 25.7 25.1 23.6 24.8 21.5 24.5 Z " transform="scale(1,-1)" stroke-dasharray="19.68063199423134" stroke-dashoffset="19.68063199423134"><animate attributeName="stroke-dashoffset" from="19.68063199423134" to="0" dur="0.5904189598269401s" begin="anim1.end" fill="freeze" id="anim2" /></path><path d="M 21.5 31.1 L 21.5 33.4 L 29.3 33.4 L 29.3 32.1 C 29.3 31.1 28.7 31.1 27.8 31.1 Z " transform="scale(1,-1)" stroke-dasharray="19.829965996907728" stroke-dashoffset="19.829965996907728"><animate attributeName="stroke-dashoffset" from="19.829965996907728" to="0" dur="0.5948989799072318s" begin="anim2.end" fill="freeze" id="anim3" /></path><path d="M 29.3 35.7 L 21.5 35.7 L 21.5 37.0 C 21.5 37.8 21.7 38.0 23.0 38.0 L 27.8 38.0 C 29.1 38.0 29.3 37.8 29.3 37.0 Z " transform="scale(1,-1)" stroke-dasharray="19.49432803196267" stroke-dashoffset="19.49432803196267"><animate attributeName="stroke-dashoffset" from="19.49432803196267" to="0" dur="0.5848298409588801s" begin="anim3.end" fill="freeze" id="anim4" /></path><path d="M 34.0 15.5 L 40.4 15.5 C 41.2 15.5 41.7 16.1 41.7 16.8 C 41.7 17.4 41.2 18.1 40.4 18.1 L 26.5 18.1 L 26.5 20.0 C 26.5 21.0 25.7 21.5 24.9 21.5 C 24.1 21.5 23.2 21.0 23.2 20.0 L 23.2 18.1 L 10.2 18.1 C 9.3 18.1 8.9 17.4 8.9 16.8 C 8.9 16.1 9.3 15.5 10.2 15.5 L 15.4 15.5 L 15.4 15.3 C 15.4 15.1 15.5 14.8 15.7 14.4 C 16.1 13.8 16.5 13.2 16.9 12.6 L 4.3 12.6 C 3.5 12.6 3.0 11.9 3.0 11.2 C 3.0 10.6 3.5 10.0 4.3 10.0 L 45.7 10.0 C 46.6 10.0 47.0 10.6 47.0 11.2 C 47.0 11.9 46.6 12.6 45.7 12.6 L 32.8 12.6 C 33.1 13.2 33.5 13.9 33.8 14.6 C 33.9 14.9 34.0 15.1 34.0 15.4 Z " transform="scale(1,-1)" stroke-dasharray="137.1402276238028" stroke-dashoffset="137.1402276238028"><animate attributeName="stroke-dashoffset" from="137.1402276238028" to="0" dur="4.114206828714083s" begin="anim4.end" fill="freeze" id="anim5" /></path><path d="M 30.9 15.5 C 30.5 14.5 30.0 13.5 29.4 12.6 L 20.3 12.6 C 20.3 12.8 20.2 13.0 20.1 13.2 C 19.7 14.0 19.1 14.8 18.6 15.5 Z " transform="scale(1,-1)" stroke-dasharray="28.057923312154887" stroke-dashoffset="28.057923312154887"><animate attributeName="stroke-dashoffset" from="28.057923312154887" to="0" dur="0.8417376993646466s" begin="anim5.end" fill="freeze" id="anim6" /></path><path d="M 34.6 -3.8 C 38.1 -3.8 39.4 -2.8 39.4 -0.6 L 39.4 4.7 C 39.4 6.9 38.1 8.0 34.6 8.0 L 15.6 8.0 C 12.1 8.0 10.9 6.9 10.9 4.8 L 10.9 -0.6 C 10.9 -3.5 13.2 -3.7 15.6 -3.8 Z " transform="scale(1,-1)" stroke-dasharray="75.04852961825218" stroke-dashoffset="75.04852961825218"><animate attributeName="stroke-dashoffset" from="75.04852961825218" to="0" dur="2.2514558885475653s" begin="anim6.end" fill="freeze" id="anim7" /></path><path d="M 15.9 -1.3 C 14.3 -1.3 14.0 -1.1 14.0 -0.2 L 14.0 1.0 L 36.2 1.0 L 36.2 -0.2 C 36.1 -1.4 35.2 -1.3 34.4 -1.3 Z " transform="scale(1,-1)" stroke-dasharray="48.11840668245331" stroke-dashoffset="48.11840668245331"><animate attributeName="stroke-dashoffset" from="48.11840668245331" to="0" dur="1.4435522004735992s" begin="anim7.end" fill="freeze" id="anim8" /></path><path d="M 36.2 3.4 L 14.0 3.4 L 14.0 4.5 C 14.0 5.2 14.3 5.6 15.9 5.6 L 34.4 5.6 C 35.9 5.6 36.2 5.2 36.2 4.5 Z " transform="scale(1,-1)" stroke-dasharray="47.85241197124379" stroke-dashoffset="47.85241197124379"><animate attributeName="stroke-dashoffset" from="47.85241197124379" to="0" dur="1.4355723591373137s" begin="anim8.end" fill="freeze" id="anim9" /></path><path d="M 38.6 40.7 C 35.6 40.7 35.0 39.6 35.0 37.1 L 35.0 20.5 C 35.0 19.7 35.7 19.2 36.5 19.2 C 37.2 19.2 38.0 19.7 38.0 20.5 L 38.0 36.7 C 38.0 37.9 38.3 38.2 39.2 38.2 L 42.1 38.2 C 42.8 38.2 43.1 38.1 43.1 37.6 C 43.1 37.5 43.1 37.3 43.0 37.1 C 42.4 35.9 41.7 34.7 40.9 33.7 C 40.4 33.1 40.1 32.5 40.1 32.0 C 40.1 31.3 40.5 30.8 41.2 30.3 C 43.0 29.1 44.0 27.7 44.0 26.4 C 44.0 25.1 43.5 24.7 42.4 24.7 C 41.8 24.7 41.2 24.8 40.8 24.9 C 39.9 25.0 39.2 24.2 39.2 23.5 C 39.2 22.9 39.7 22.2 40.5 22.1 C 41.1 22.0 41.5 21.9 42.4 21.9 C 45.0 21.9 47.0 23.3 47.0 26.4 C 47.0 28.8 45.7 30.6 43.1 32.2 C 43.9 33.4 44.9 34.9 45.8 36.6 C 46.1 37.1 46.2 37.8 46.2 38.2 C 46.2 39.7 45.1 40.7 43.0 40.7 Z" transform="scale(1,-1)" stroke-dasharray="104.46349072491809" stroke-dashoffset="104.46349072491809"><animate attributeName="stroke-dashoffset" from="104.46349072491809" to="0" dur="3.1339047217475424s" begin="anim9.end" fill="freeze" id="anim_end" /></path></g></svg>