<?xml version='1.0' encoding='utf-8'?>
<svg viewBox="0 -44.0 50.0 50.0" version="1.1" xmlns="http://www.w3.org/2000/svg"><rect x="-1000" y="-1000" width="2000" height="2000" stroke="white" fill="white" /><g style="fill:none;stroke:#000000;stroke-width:1"><path d="M 12.1 28.2 L 3.6 28.2 C 2.7 28.2 2.2 27.5 2.2 26.8 C 2.2 26.1 2.7 25.4 3.6 25.4 L 10.2 25.4 C 7.8 22.5 4.8 19.8 2.1 18.2 C 1.4 17.8 1.2 17.2 1.2 16.8 C 1.2 16.0 1.7 15.3 2.5 15.3 C 2.8 15.3 3.1 15.4 3.5 15.6 C 6.6 17.4 9.8 20.2 12.2 23.1 L 12.1 20.5 L 12.1 17.7 C 12.1 16.8 12.9 16.3 13.7 16.3 C 14.5 16.3 15.2 16.8 15.2 17.7 L 15.2 21.3 C 17.4 20.2 19.6 18.8 21.0 17.6 C 21.5 17.2 21.9 17.0 22.3 17.0 C 23.2 17.0 23.8 17.8 23.8 18.6 C 23.8 19.1 23.6 19.7 22.9 20.2 C 21.0 21.6 18.1 23.1 15.2 24.2 L 15.2 25.4 L 23.1 25.4 C 24.0 25.4 24.5 26.1 24.5 26.8 C 24.5 27.5 24.0 28.2 23.1 28.2 L 15.2 28.2 L 15.2 36.1 C 17.4 36.5 19.4 36.9 21.2 37.4 C 22.2 37.6 22.7 38.3 22.7 38.9 C 22.7 39.7 22.0 40.5 21.0 40.5 C 20.8 40.5 20.6 40.5 20.4 40.4 C 16.2 39.1 9.4 38.0 4.5 37.6 C 3.7 37.6 3.2 36.9 3.2 36.1 C 3.2 35.4 3.8 34.6 4.8 34.7 C 7.0 34.9 9.6 35.1 12.1 35.6 Z " transform="scale(1,-1)" stroke-dasharray="158.5503332282713" stroke-dashoffset="158.5503332282713"><animate attributeName="stroke-dashoffset" from="158.5503332282713" to="0" dur="4.7565099968481395s" begin="0s; 15s; 30s; 45s; 60s" fill="freeze" id="anim0" /></path><path d="M 18.2 -2.1 C 21.4 -2.1 23.0 -0.7 23.0 2.1 L 23.0 10.8 C 23.0 13.6 21.4 15.0 18.2 15.0 L 9.5 15.0 C 6.3 15.0 4.7 13.6 4.7 10.8 L 4.7 2.1 C 4.8 -1.0 6.6 -2.1 9.5 -2.1 Z " transform="scale(1,-1)" stroke-dasharray="64.02398536425709" stroke-dashoffset="64.02398536425709"><animate attributeName="stroke-dashoffset" from="64.02398536425709" to="0" dur="1.9207195609277126s" begin="anim0.end" fill="freeze" id="anim1" /></path><path d="M 15.2 5.2 L 19.8 5.2 L 19.8 2.6 C 19.8 1.0 19.2 0.8 17.8 0.7 L 15.2 0.7 Z " transform="scale(1,-1)" stroke-dasharray="17.535700305861806" stroke-dashoffset="17.535700305861806"><animate attributeName="stroke-dashoffset" from="17.535700305861806" to="0" dur="0.5260710091758541s" begin="anim1.end" fill="freeze" id="anim2" /></path><path d="M 12.2 5.2 L 12.2 0.7 L 9.9 0.7 C 8.2 0.7 7.8 1.1 7.8 2.6 L 7.8 5.2 Z " transform="scale(1,-1)" stroke-dasharray="17.181147027636527" stroke-dashoffset="17.181147027636527"><animate attributeName="stroke-dashoffset" from="17.181147027636527" to="0" dur="0.5154344108290958s" begin="anim2.end" fill="freeze" id="anim3" /></path><path d="M 15.2 12.2 L 17.8 12.2 C 19.5 12.2 19.8 11.8 19.8 10.3 L 19.8 7.9 L 15.2 7.9 Z " transform="scale(1,-1)" stroke-dasharray="17.217022047636434" stroke-dashoffset="17.217022047636434"><animate attributeName="stroke-dashoffset" from="17.217022047636434" to="0" dur="0.516510661429093s" begin="anim3.end" fill="freeze" id="anim4" /></path><path d="M 12.2 12.2 L 12.2 7.9 L 7.8 7.9 L 7.8 10.3 C 7.8 11.8 8.2 12.2 9.9 12.2 Z " transform="scale(1,-1)" stroke-dasharray="16.781147027636525" stroke-dashoffset="16.781147027636525"><animate attributeName="stroke-dashoffset" from="16.781147027636525" to="0" dur="0.5034344108290957s" begin="anim4.end" fill="freeze" id="anim5" /></path><path d="M 30.1 22.9 L 39.4 22.9 C 42.9 22.9 44.4 24.2 44.4 26.9 L 44.4 33.2 C 44.4 35.8 43.0 37.2 39.4 37.2 L 36.2 37.2 C 36.6 38.1 36.8 39.1 37.0 40.0 C 37.3 41.2 36.4 41.9 35.4 41.9 C 34.6 41.9 34.0 41.5 33.8 40.6 C 33.5 39.5 33.2 38.4 32.8 37.2 L 31.8 37.2 C 28.1 37.2 26.8 35.8 26.8 33.1 L 26.8 14.8 C 26.8 12.1 28.0 10.9 31.2 10.9 L 42.6 10.9 C 44.1 10.9 44.6 10.5 44.5 9.3 C 44.5 7.0 44.0 3.9 43.4 2.0 C 42.9 0.4 42.0 -0.2 40.7 -0.2 C 40.1 -0.2 39.3 -0.1 38.4 0.1 C 37.3 0.4 36.6 -0.6 36.6 -1.5 C 36.6 -2.2 37.1 -3.0 38.1 -3.2 C 39.0 -3.4 39.9 -3.5 40.9 -3.5 C 43.8 -3.5 45.5 -2.1 46.5 1.1 C 47.2 3.4 47.7 6.6 47.9 9.5 C 48.0 12.1 46.8 13.8 43.4 13.8 L 31.7 13.8 C 30.5 13.8 30.1 14.2 30.1 15.2 L 30.1 17.0 L 47.0 17.0 C 47.9 17.0 48.4 17.8 48.4 18.4 C 48.4 19.2 47.9 19.9 47.0 19.9 L 30.1 19.9 Z " transform="scale(1,-1)" stroke-dasharray="195.6502501662379" stroke-dashoffset="195.6502501662379"><animate attributeName="stroke-dashoffset" from="195.6502501662379" to="0" dur="5.869507504987137s" begin="anim5.end" fill="freeze" id="anim6" /></path><path d="M 30.1 25.7 L 30.1 28.8 L 41.1 28.8 L 41.1 27.2 C 41.1 25.8 40.1 25.8 38.8 25.7 Z " transform="scale(1,-1)" stroke-dasharray="27.563443278537758" stroke-dashoffset="27.563443278537758"><animate attributeName="stroke-dashoffset" from="27.563443278537758" to="0" dur="0.8269032983561327s" begin="anim6.end" fill="freeze" id="anim7" /></path><path d="M 41.1 31.5 L 30.1 31.5 L 30.1 32.9 C 30.1 34.1 30.6 34.5 32.2 34.5 L 38.8 34.5 C 40.6 34.5 41.1 34.1 41.1 32.9 Z " transform="scale(1,-1)" stroke-dasharray="26.772110981017203" stroke-dashoffset="26.772110981017203"><animate attributeName="stroke-dashoffset" from="26.772110981017203" to="0" dur="0.803163329430516s" begin="anim7.end" fill="freeze" id="anim8" /></path><path d="M 8.2 33.8 C 8.0 34.1 7.5 34.4 7.1 34.4 C 6.4 34.4 5.6 33.8 5.6 33.1 C 5.6 32.9 5.7 32.6 5.9 32.3 C 6.4 31.5 6.9 30.7 7.3 29.7 C 7.6 29.1 8.1 28.8 8.6 28.8 C 9.3 28.8 10.1 29.4 10.1 30.2 C 10.1 30.5 10.1 30.8 9.9 31.1 C 9.5 32.0 8.9 32.9 8.2 33.8 Z " transform="scale(1,-1)" stroke-dasharray="15.351830294216363" stroke-dashoffset="15.351830294216363"><animate attributeName="stroke-dashoffset" from="15.351830294216363" to="0" dur="0.46055490882649086s" begin="anim8.end" fill="freeze" id="anim9" /></path><path d="M 25.5 6.6 C 25.2 4.5 24.7 2.4 24.0 0.5 C 23.9 0.2 23.9 0.0 23.9 -0.2 C 23.9 -1.1 24.6 -1.6 25.4 -1.6 C 26.0 -1.6 26.6 -1.2 26.9 -0.5 C 27.6 1.4 28.2 4.0 28.4 6.2 C 28.5 7.4 27.7 8.0 26.9 8.0 C 26.2 8.0 25.6 7.5 25.5 6.6 Z " transform="scale(1,-1)" stroke-dasharray="23.00772277392635" stroke-dashoffset="23.00772277392635"><animate attributeName="stroke-dashoffset" from="23.00772277392635" to="0" dur="0.6902316832177905s" begin="anim9.end" fill="freeze" id="anim10" /></path><path d="M 32.1 7.1 C 31.9 7.8 31.2 8.1 30.8 8.1 C 30.1 8.1 29.5 7.6 29.5 6.9 C 29.5 6.7 29.5 6.5 29.6 6.3 C 29.9 5.1 30.3 3.6 30.6 1.8 C 30.7 0.9 31.4 0.5 32.0 0.5 C 32.9 0.5 33.6 1.2 33.5 2.5 C 33.2 3.8 32.6 5.9 32.1 7.1 Z " transform="scale(1,-1)" stroke-dasharray="18.708426743332854" stroke-dashoffset="18.708426743332854"><animate attributeName="stroke-dashoffset" from="18.708426743332854" to="0" dur="0.5612528022999856s" begin="anim10.end" fill="freeze" id="anim11" /></path><path d="M 40.0 9.5 C 39.7 9.9 39.3 10.0 39.0 10.0 C 38.3 10.0 37.8 9.6 37.8 8.9 C 37.8 8.7 37.8 8.3 38.1 8.1 C 38.7 7.2 39.4 6.0 40.0 4.9 C 40.2 4.3 40.8 4.0 41.2 4.0 C 42.0 4.0 42.6 4.5 42.6 5.4 C 42.6 5.6 42.5 6.0 42.3 6.3 C 41.8 7.2 40.9 8.6 40.0 9.5 Z " transform="scale(1,-1)" stroke-dasharray="16.35094866208142" stroke-dashoffset="16.35094866208142"><animate attributeName="stroke-dashoffset" from="16.35094866208142" to="0" dur="0.49052845986244265s" begin="anim11.end" fill="freeze" id="anim12" /></path><path d="M 19.0 34.6 C 18.5 33.5 17.8 32.2 17.2 31.2 C 16.9 30.9 16.9 30.6 16.9 30.4 C 16.9 29.6 17.6 29.1 18.2 29.1 C 18.7 29.1 19.2 29.2 19.5 29.8 C 20.2 30.7 21.1 32.1 21.8 33.5 C 21.9 33.7 21.9 33.9 21.9 34.1 C 21.9 34.9 21.2 35.6 20.4 35.6 C 19.9 35.6 19.4 35.2 19.0 34.6 Z " transform="scale(1,-1)" stroke-dasharray="17.447192128466295" stroke-dashoffset="17.447192128466295"><animate attributeName="stroke-dashoffset" from="17.447192128466295" to="0" dur="0.5234157638539888s" begin="anim12.end" fill="freeze" id="anim13" /></path><path d="M 36.1 8.2 C 35.8 8.7 35.3 8.9 34.9 8.9 C 34.2 8.9 33.6 8.5 33.6 7.8 C 33.6 7.6 33.6 7.2 33.8 7.0 C 34.5 5.9 35.0 4.6 35.5 3.4 C 35.7 2.6 36.2 2.2 36.8 2.2 C 37.6 2.2 38.2 2.8 38.2 3.7 C 38.2 3.9 38.2 4.1 38.1 4.4 C 37.6 5.6 36.9 7.0 36.1 8.2 Z" transform="scale(1,-1)" stroke-dasharray="17.421676380686176" stroke-dashoffset="17.421676380686176"><animate attributeName="stroke-dashoffset" from="17.421676380686176" to="0" dur="0.5226502914205853s" begin="anim13.end" fill="freeze" id="anim_end" /></path></g></svg>