<?xml version='1.0' encoding='utf-8'?>
<svg viewBox="0 -44.0 50.0 50.0" version="1.1" xmlns="http://www.w3.org/2000/svg"><rect x="-1000" y="-1000" width="2000" height="2000" stroke="white" fill="white" /><g style="fill:none;stroke:#000000;stroke-width:1"><path d="M 20.9 25.7 C 17.4 25.5 16.4 24.0 16.4 21.5 L 16.4 5.4 C 16.4 4.5 17.3 4.0 18.2 4.0 C 19.1 4.0 19.9 4.5 19.9 5.4 L 19.9 20.9 C 19.9 22.3 20.5 22.9 22.4 22.9 L 40.0 22.9 C 41.9 22.9 42.5 22.3 42.5 20.9 L 42.5 8.8 C 42.5 7.5 42.0 7.0 41.0 7.0 C 40.1 7.0 39.3 7.1 38.6 7.2 C 37.3 7.6 36.6 6.7 36.6 5.8 C 36.6 5.1 37.0 4.4 37.9 4.2 C 38.8 4.0 39.9 3.9 41.2 3.9 C 44.1 3.9 46.0 5.1 46.0 8.2 L 46.0 21.5 C 46.0 24.0 44.9 25.6 41.2 25.7 L 41.2 36.0 C 41.2 39.1 39.9 40.6 36.2 40.6 L 25.9 40.6 C 22.2 40.6 20.9 39.1 20.9 36.0 Z " transform="scale(1,-1)" stroke-dasharray="169.0740322810966" stroke-dashoffset="169.0740322810966"><animate attributeName="stroke-dashoffset" from="169.0740322810966" to="0" dur="5.072220968432898s" begin="0s; 15s; 30s; 45s; 60s" fill="freeze" id="anim0" /></path><path d="M 24.2 25.7 L 24.2 35.6 C 24.2 37.1 24.9 37.7 26.7 37.7 L 35.4 37.7 C 37.2 37.7 37.8 37.1 37.8 35.6 L 37.8 33.9 L 33.1 33.9 C 30.1 33.9 29.1 32.6 29.1 30.3 L 29.1 25.7 Z " transform="scale(1,-1)" stroke-dasharray="48.247278945191844" stroke-dashoffset="48.247278945191844"><animate attributeName="stroke-dashoffset" from="48.247278945191844" to="0" dur="1.4474183683557553s" begin="anim0.end" fill="freeze" id="anim1" /></path><path d="M 37.8 25.7 L 32.2 25.7 L 32.2 29.8 C 32.2 30.8 32.7 31.1 33.9 31.1 L 37.8 31.1 Z " transform="scale(1,-1)" stroke-dasharray="21.49441647356582" stroke-dashoffset="21.49441647356582"><animate attributeName="stroke-dashoffset" from="21.49441647356582" to="0" dur="0.6448324942069746s" begin="anim1.end" fill="freeze" id="anim2" /></path><path d="M 12.1 16.7 C 12.1 19.5 10.9 20.7 7.7 20.7 L 3.8 20.7 C 2.8 20.7 2.2 19.9 2.2 19.1 C 2.2 18.3 2.8 17.5 3.8 17.5 L 7.0 17.5 C 8.3 17.5 8.7 17.2 8.7 16.1 L 8.7 5.7 C 6.9 3.6 4.9 1.8 2.8 0.3 C 2.0 -0.2 1.7 -0.9 1.7 -1.5 C 1.7 -2.4 2.4 -3.1 3.4 -3.1 C 3.8 -3.1 4.2 -3.0 4.6 -2.7 C 6.9 -1.0 8.8 1.0 10.6 3.1 C 14.2 -1.0 20.2 -2.6 33.2 -2.6 C 38.7 -2.6 42.9 -2.4 46.8 -2.1 C 48.0 -2.0 48.5 -1.1 48.5 -0.2 C 48.5 0.7 47.8 1.6 46.5 1.5 C 42.7 1.1 38.4 0.9 33.1 0.9 C 20.0 0.9 15.2 2.4 12.1 5.7 Z " transform="scale(1,-1)" stroke-dasharray="144.48964601550622" stroke-dashoffset="144.48964601550622"><animate attributeName="stroke-dashoffset" from="144.48964601550622" to="0" dur="4.3346893804651865s" begin="anim2.end" fill="freeze" id="anim3" /></path><path d="M 33.6 8.3 C 36.6 8.3 37.8 9.5 37.8 11.8 L 37.8 16.2 C 37.8 18.5 36.6 19.6 33.6 19.6 L 28.6 19.6 C 25.5 19.6 24.4 18.5 24.4 16.2 L 24.4 11.8 C 24.4 9.0 26.1 8.4 28.6 8.3 Z " transform="scale(1,-1)" stroke-dasharray="43.87801425036029" stroke-dashoffset="43.87801425036029"><animate attributeName="stroke-dashoffset" from="43.87801425036029" to="0" dur="1.3163404275108086s" begin="anim3.end" fill="freeze" id="anim4" /></path><path d="M 29.1 11.1 C 28.0 11.1 27.6 11.4 27.6 12.2 L 27.6 15.7 C 27.6 16.6 28.0 16.9 29.1 16.9 L 33.1 16.9 C 34.2 16.9 34.6 16.6 34.6 15.7 L 34.6 12.2 C 34.6 11.2 33.9 11.1 33.1 11.1 Z " transform="scale(1,-1)" stroke-dasharray="23.811174884004885" stroke-dashoffset="23.811174884004885"><animate attributeName="stroke-dashoffset" from="23.811174884004885" to="0" dur="0.7143352465201465s" begin="anim4.end" fill="freeze" id="anim5" /></path><path d="M 7.5 38.8 C 7.1 39.1 6.7 39.2 6.3 39.2 C 5.4 39.2 4.6 38.4 4.6 37.6 C 4.6 37.1 4.8 36.6 5.4 36.1 C 6.6 35.1 8.2 33.6 9.3 32.1 C 9.8 31.5 10.4 31.2 10.9 31.2 C 11.9 31.2 12.7 32.1 12.7 33.1 C 12.7 33.6 12.5 34.1 12.1 34.6 C 10.9 36.0 9.1 37.6 7.5 38.8 Z" transform="scale(1,-1)" stroke-dasharray="23.892236600461338" stroke-dashoffset="23.892236600461338"><animate attributeName="stroke-dashoffset" from="23.892236600461338" to="0" dur="0.7167670980138401s" begin="anim5.end" fill="freeze" id="anim_end" /></path></g></svg>