<?xml version='1.0' encoding='utf-8'?>
<svg viewBox="0 -44.0 50.0 50.0" version="1.1" xmlns="http://www.w3.org/2000/svg"><rect x="-1000" y="-1000" width="2000" height="2000" stroke="white" fill="white" /><g style="fill:none;stroke:#000000;stroke-width:1"><path d="M 31.2 9.7 L 31.2 13.4 L 39.1 13.4 C 40.1 13.4 40.6 14.1 40.6 14.8 C 40.6 15.5 40.1 16.2 39.1 16.2 L 31.2 16.2 L 31.2 20.5 C 33.0 20.8 34.8 21.2 36.6 21.6 C 37.5 21.9 37.9 22.4 37.9 23.0 C 37.9 23.8 37.2 24.7 36.1 24.7 C 36.0 24.7 35.8 24.6 35.6 24.6 C 31.5 23.5 26.9 22.9 23.2 22.6 C 22.0 22.5 21.5 21.8 21.5 21.1 C 21.5 20.3 22.2 19.5 23.4 19.6 C 24.8 19.7 26.4 19.9 28.0 20.1 L 28.0 16.2 L 20.5 16.2 C 19.5 16.2 19.1 15.5 19.1 14.8 C 19.1 14.1 19.5 13.4 20.5 13.4 L 28.0 13.4 L 28.0 9.7 L 26.3 9.7 C 23.0 9.7 21.8 8.6 21.8 6.2 L 21.8 2.1 C 21.8 -0.9 23.7 -1.4 26.3 -1.5 L 33.1 -1.5 C 36.4 -1.5 37.6 -0.2 37.6 2.1 L 37.6 6.2 C 37.6 8.6 36.4 9.7 33.1 9.7 Z " transform="scale(1,-1)" stroke-dasharray="133.80712115410972" stroke-dashoffset="133.80712115410972"><animate attributeName="stroke-dashoffset" from="133.80712115410972" to="0" dur="4.0142136346232915s" begin="0s; 15s; 30s; 45s; 60s" fill="freeze" id="anim0" /></path><path d="M 26.9 1.3 C 25.4 1.3 25.1 1.6 25.1 2.6 L 25.1 5.8 C 25.1 6.8 25.4 7.1 26.9 7.1 L 32.5 7.1 C 34.0 7.1 34.3 6.8 34.3 5.8 L 34.3 2.6 C 34.3 1.3 33.6 1.3 32.5 1.3 Z " transform="scale(1,-1)" stroke-dasharray="28.135316869873762" stroke-dashoffset="28.135316869873762"><animate attributeName="stroke-dashoffset" from="28.135316869873762" to="0" dur="0.8440595060962128s" begin="anim0.end" fill="freeze" id="anim1" /></path><path d="M 7.6 26.6 L 17.2 26.6 C 20.8 26.6 22.1 28.0 22.1 30.7 L 22.1 36.1 C 22.1 38.8 20.8 40.2 17.2 40.2 L 9.2 40.2 C 5.4 40.2 4.1 38.9 4.1 36.1 L 4.1 -2.5 C 4.1 -3.5 5.0 -4.0 5.9 -4.0 C 6.8 -4.0 7.6 -3.5 7.6 -2.5 Z " transform="scale(1,-1)" stroke-dasharray="118.22557798583229" stroke-dashoffset="118.22557798583229"><animate attributeName="stroke-dashoffset" from="118.22557798583229" to="0" dur="3.5467673395749686s" begin="anim1.end" fill="freeze" id="anim2" /></path><path d="M 7.6 29.2 L 7.6 32.1 L 18.7 32.1 L 18.7 30.8 C 18.7 29.2 17.9 29.2 16.6 29.2 Z " transform="scale(1,-1)" stroke-dasharray="27.452839054241103" stroke-dashoffset="27.452839054241103"><animate attributeName="stroke-dashoffset" from="27.452839054241103" to="0" dur="0.8235851716272331s" begin="anim2.end" fill="freeze" id="anim3" /></path><path d="M 18.7 34.8 L 7.6 34.8 L 7.6 35.9 C 7.6 37.1 8.0 37.6 10.0 37.6 L 16.6 37.6 C 18.4 37.6 18.7 37.1 18.7 36.0 Z " transform="scale(1,-1)" stroke-dasharray="26.56376609041344" stroke-dashoffset="26.56376609041344"><animate attributeName="stroke-dashoffset" from="26.56376609041344" to="0" dur="0.7969129827124032s" begin="anim3.end" fill="freeze" id="anim4" /></path><path d="M 42.5 26.6 L 42.5 2.0 C 42.5 0.4 42.1 -0.1 40.9 -0.1 C 40.4 -0.1 39.6 0.0 38.9 0.2 C 37.4 0.5 36.5 -0.6 36.5 -1.6 C 36.5 -2.2 37.0 -3.0 38.1 -3.2 C 39.2 -3.5 40.2 -3.6 41.2 -3.6 C 44.7 -3.6 46.0 -1.9 46.0 1.6 L 46.0 36.1 C 46.0 38.9 44.7 40.2 40.9 40.2 L 32.1 40.2 C 28.6 40.2 27.2 38.8 27.2 36.1 L 27.2 30.7 C 27.4 27.7 29.4 26.6 32.1 26.6 Z " transform="scale(1,-1)" stroke-dasharray="128.2150180486844" stroke-dashoffset="128.2150180486844"><animate attributeName="stroke-dashoffset" from="128.2150180486844" to="0" dur="3.8464505414605323s" begin="anim4.end" fill="freeze" id="anim5" /></path><path d="M 42.5 29.2 L 32.8 29.2 C 31.0 29.2 30.6 29.6 30.6 30.8 L 30.6 32.1 L 42.5 32.1 Z " transform="scale(1,-1)" stroke-dasharray="29.008522370780735" stroke-dashoffset="29.008522370780735"><animate attributeName="stroke-dashoffset" from="29.008522370780735" to="0" dur="0.8702556711234221s" begin="anim5.end" fill="freeze" id="anim6" /></path><path d="M 42.5 34.8 L 30.6 34.8 L 30.6 36.0 C 30.6 37.1 31.0 37.6 32.8 37.6 L 40.1 37.6 C 42.1 37.6 42.5 37.1 42.5 35.9 Z " transform="scale(1,-1)" stroke-dasharray="28.131145665184757" stroke-dashoffset="28.131145665184757"><animate attributeName="stroke-dashoffset" from="28.131145665184757" to="0" dur="0.8439343699555427s" begin="anim6.end" fill="freeze" id="anim7" /></path><path d="M 15.9 8.9 C 14.7 5.9 13.2 3.0 11.7 0.9 C 11.3 0.4 11.2 -0.1 11.2 -0.5 C 11.2 -1.4 11.9 -2.0 12.7 -2.0 C 13.2 -2.0 14.0 -1.7 14.5 -1.0 C 16.2 1.4 17.8 4.6 18.9 7.7 C 19.1 8.0 19.1 8.2 19.1 8.5 C 19.1 9.5 18.4 10.0 17.5 10.0 C 16.9 10.0 16.2 9.7 15.9 8.9 Z " transform="scale(1,-1)" stroke-dasharray="30.238503406355115" stroke-dashoffset="30.238503406355115"><animate attributeName="stroke-dashoffset" from="30.238503406355115" to="0" dur="0.9071551021906534s" begin="anim7.end" fill="freeze" id="anim8" /></path><path d="M 16.0 24.2 C 15.7 24.5 15.2 24.6 14.9 24.6 C 14.1 24.6 13.3 24.0 13.3 23.2 C 13.3 22.8 13.6 22.2 14.1 21.8 C 14.9 21.2 15.8 20.4 16.4 19.6 C 16.9 18.9 17.6 18.7 18.1 18.7 C 18.9 18.7 19.6 19.3 19.6 20.2 C 19.6 20.6 19.4 21.1 18.9 21.6 C 18.2 22.5 17.1 23.5 16.0 24.2 Z " transform="scale(1,-1)" stroke-dasharray="18.279526755955892" stroke-dashoffset="18.279526755955892"><animate attributeName="stroke-dashoffset" from="18.279526755955892" to="0" dur="0.5483858026786768s" begin="anim8.end" fill="freeze" id="anim9" /></path><path d="M 12.6 17.5 C 12.1 17.8 11.7 17.9 11.2 17.9 C 10.4 17.9 9.8 17.3 9.8 16.5 C 9.8 16.1 10.0 15.5 10.6 15.0 C 11.4 14.4 12.1 13.7 12.7 13.0 C 13.2 12.5 13.7 12.2 14.2 12.2 C 15.1 12.2 15.8 12.9 15.8 13.8 C 15.8 14.2 15.6 14.8 15.2 15.2 C 14.4 16.1 13.5 16.8 12.6 17.5 Z" transform="scale(1,-1)" stroke-dasharray="17.645206298682652" stroke-dashoffset="17.645206298682652"><animate attributeName="stroke-dashoffset" from="17.645206298682652" to="0" dur="0.5293561889604795s" begin="anim9.end" fill="freeze" id="anim_end" /></path></g></svg>