<?xml version='1.0' encoding='utf-8'?>
<svg viewBox="0 -44.0 50.0 50.0" version="1.1" xmlns="http://www.w3.org/2000/svg"><rect x="-1000" y="-1000" width="2000" height="2000" stroke="white" fill="white" /><g style="fill:none;stroke:#000000;stroke-width:1"><path d="M 16.5 30.8 L 16.5 36.1 L 21.2 36.1 C 22.2 36.1 22.7 36.9 22.7 37.7 C 22.7 38.5 22.2 39.2 21.2 39.2 L 2.9 39.2 C 1.9 39.2 1.5 38.5 1.5 37.7 C 1.5 36.9 1.9 36.1 2.9 36.1 L 8.8 36.1 L 8.8 30.8 L 7.6 30.8 C 4.5 30.8 3.1 29.7 3.1 26.1 L 3.1 2.6 C 3.1 -0.7 4.3 -2.2 7.7 -2.2 L 17.8 -2.2 C 20.8 -2.2 22.3 -0.9 22.3 2.6 L 22.3 26.1 C 22.3 29.7 20.9 30.8 17.8 30.8 Z " transform="scale(1,-1)" stroke-dasharray="139.24295945714366" stroke-dashoffset="139.24295945714366"><animate attributeName="stroke-dashoffset" from="139.24295945714366" to="0" dur="4.177288783714309s" begin="0s; 15s; 30s; 45s; 60s" fill="freeze" id="anim0" /></path><path d="M 16.5 27.9 L 17.6 27.9 C 18.8 27.9 19.2 27.5 19.2 25.7 L 19.2 19.2 C 18.7 19.1 18.1 19.1 17.6 19.1 C 16.8 19.1 16.5 19.2 16.5 20.1 Z " transform="scale(1,-1)" stroke-dasharray="21.998215441896043" stroke-dashoffset="21.998215441896043"><animate attributeName="stroke-dashoffset" from="21.998215441896043" to="0" dur="0.6599464632568813s" begin="anim0.end" fill="freeze" id="anim1" /></path><path d="M 19.2 9.6 L 6.2 9.6 L 6.2 25.7 C 6.2 27.5 6.6 27.9 7.8 27.9 L 8.8 27.9 C 8.8 21.8 8.1 18.4 7.0 16.1 C 6.8 15.8 6.8 15.5 6.8 15.2 C 6.8 14.5 7.3 14.1 8.0 14.1 C 8.4 14.1 8.9 14.3 9.2 14.9 C 10.7 17.6 11.5 21.6 11.6 27.9 L 13.8 27.9 L 13.8 19.5 C 13.8 17.2 14.8 16.2 17.4 16.2 C 17.9 16.2 18.6 16.2 19.2 16.3 Z " transform="scale(1,-1)" stroke-dasharray="87.75487712462831" stroke-dashoffset="87.75487712462831"><animate attributeName="stroke-dashoffset" from="87.75487712462831" to="0" dur="2.632646313738849s" begin="anim1.end" fill="freeze" id="anim2" /></path><path d="M 13.8 30.8 L 11.6 30.8 L 11.6 36.1 L 13.8 36.1 Z " transform="scale(1,-1)" stroke-dasharray="15.000000000000004" stroke-dashoffset="15.000000000000004"><animate attributeName="stroke-dashoffset" from="15.000000000000004" to="0" dur="0.45000000000000007s" begin="anim2.end" fill="freeze" id="anim3" /></path><path d="M 8.1 0.7 C 6.7 0.7 6.2 1.3 6.2 3.0 L 6.2 6.6 L 19.2 6.6 L 19.2 3.0 C 19.2 1.5 18.9 0.8 17.2 0.7 Z " transform="scale(1,-1)" stroke-dasharray="36.339300462346614" stroke-dashoffset="36.339300462346614"><animate attributeName="stroke-dashoffset" from="36.339300462346614" to="0" dur="1.0901790138703984s" begin="anim3.end" fill="freeze" id="anim4" /></path><path d="M 39.9 22.1 C 43.0 22.1 44.2 23.3 44.2 25.6 L 44.2 28.2 C 44.2 30.6 43.0 31.8 39.9 31.8 L 31.2 31.8 C 28.1 31.8 26.9 30.6 26.9 28.2 L 26.9 25.6 C 26.9 22.9 28.7 22.1 31.2 22.1 Z " transform="scale(1,-1)" stroke-dasharray="48.30082335315822" stroke-dashoffset="48.30082335315822"><animate attributeName="stroke-dashoffset" from="48.30082335315822" to="0" dur="1.4490247005947465s" begin="anim4.end" fill="freeze" id="anim5" /></path><path d="M 31.7 24.9 C 30.5 24.9 30.1 25.2 30.1 26.1 L 30.1 27.8 C 30.1 28.6 30.5 29.0 31.7 29.0 L 39.4 29.0 C 40.6 29.0 41.0 28.6 41.0 27.8 L 41.0 26.1 C 41.0 25.1 40.3 24.9 39.4 24.9 Z " transform="scale(1,-1)" stroke-dasharray="28.063789559243155" stroke-dashoffset="28.063789559243155"><animate attributeName="stroke-dashoffset" from="28.063789559243155" to="0" dur="0.8419136867772946s" begin="anim5.end" fill="freeze" id="anim6" /></path><path d="M 33.8 9.3 L 25.2 9.3 C 24.2 9.3 23.8 8.6 23.8 7.9 C 23.8 7.1 24.2 6.4 25.2 6.4 L 33.8 6.4 L 33.8 1.4 C 33.8 0.2 33.5 -0.2 32.4 -0.2 C 31.7 -0.2 31.1 -0.1 30.4 0.1 C 29.2 0.3 28.5 -0.7 28.5 -1.6 C 28.5 -2.3 28.9 -3.0 29.8 -3.2 C 30.7 -3.4 31.6 -3.5 32.5 -3.5 C 35.6 -3.5 37.1 -2.3 37.1 1.0 L 37.1 6.4 L 46.7 6.4 C 47.7 6.4 48.2 7.1 48.2 7.9 C 48.2 8.6 47.7 9.3 46.7 9.3 L 37.1 9.3 L 37.1 11.0 C 39.2 11.9 41.3 13.2 42.8 14.6 C 43.6 15.3 44.0 16.2 44.0 16.9 C 44.0 18.3 42.9 19.5 40.7 19.5 L 27.5 19.5 C 26.5 19.5 26.0 18.7 26.0 17.9 C 26.0 17.2 26.5 16.4 27.5 16.4 L 39.2 16.4 C 39.5 16.4 39.7 16.3 39.7 16.1 C 39.7 16.0 39.7 15.9 39.5 15.7 C 38.9 15.1 37.8 14.4 36.5 13.8 C 36.2 13.9 35.9 14.0 35.5 14.0 C 34.6 14.0 33.8 13.5 33.8 12.5 Z " transform="scale(1,-1)" stroke-dasharray="132.9862622925052" stroke-dashoffset="132.9862622925052"><animate attributeName="stroke-dashoffset" from="132.9862622925052" to="0" dur="3.9895878687751556s" begin="anim6.end" fill="freeze" id="anim7" /></path><path d="M 37.1 37.4 L 37.1 40.4 C 37.1 41.4 36.3 41.9 35.5 41.9 C 34.6 41.9 33.8 41.4 33.8 40.4 L 33.8 37.4 L 25.4 37.4 C 24.5 37.4 24.0 36.6 24.0 35.9 C 24.0 35.1 24.5 34.4 25.4 34.4 L 46.4 34.4 C 47.3 34.4 47.8 35.1 47.8 35.9 C 47.8 36.6 47.3 37.4 46.4 37.4 Z" transform="scale(1,-1)" stroke-dasharray="58.877812682949056" stroke-dashoffset="58.877812682949056"><animate attributeName="stroke-dashoffset" from="58.877812682949056" to="0" dur="1.7663343804884717s" begin="anim7.end" fill="freeze" id="anim_end" /></path></g></svg>