<?xml version='1.0' encoding='utf-8'?>
<svg viewBox="0 -44.0 50.0 50.0" version="1.1" xmlns="http://www.w3.org/2000/svg"><rect x="-1000" y="-1000" width="2000" height="2000" stroke="white" fill="white" /><g style="fill:none;stroke:#000000;stroke-width:1"><path d="M 29.2 29.5 C 28.9 14.4 25.7 5.8 17.2 -0.2 C 16.5 -0.7 16.2 -1.2 16.2 -1.8 C 16.2 -2.6 16.9 -3.3 17.9 -3.3 C 18.2 -3.3 18.7 -3.2 19.1 -2.9 C 26.0 1.9 30.2 8.8 31.9 18.9 L 37.7 18.9 C 39.5 18.9 40.0 18.4 39.9 16.8 C 39.8 12.0 39.3 7.4 38.2 3.5 C 37.7 1.5 36.7 0.7 35.3 0.7 C 34.4 0.7 33.5 0.9 32.4 1.1 C 31.2 1.4 30.4 0.4 30.4 -0.6 C 30.4 -1.4 30.9 -2.1 31.9 -2.3 C 33.1 -2.6 34.1 -2.8 35.4 -2.8 C 38.7 -2.8 40.7 -1.3 41.8 2.7 C 42.8 6.7 43.4 11.8 43.5 17.2 C 43.6 20.1 41.9 21.9 38.5 21.9 L 32.3 21.9 C 32.6 24.4 32.8 26.9 32.8 29.5 L 46.2 29.5 C 47.2 29.5 47.6 30.2 47.6 31.1 C 47.6 31.9 47.2 32.6 46.2 32.6 L 33.5 32.6 L 33.5 40.1 C 33.5 41.1 32.6 41.6 31.7 41.6 C 30.8 41.6 29.9 41.1 29.9 40.1 L 29.9 32.6 L 21.1 32.6 C 20.2 32.6 19.7 31.9 19.7 31.1 C 19.7 30.2 20.2 29.5 21.1 29.5 Z " transform="scale(1,-1)" stroke-dasharray="222.76501426451" stroke-dashoffset="222.76501426451"><animate attributeName="stroke-dashoffset" from="222.76501426451" to="0" dur="6.6829504279353s" begin="0s; 15s; 30s; 45s; 60s" fill="freeze" id="anim0" /></path><path d="M 9.6 40.4 C 6.1 40.4 4.8 39.0 4.8 35.8 L 4.8 -2.4 C 4.8 -3.4 5.7 -4.0 6.6 -4.0 C 7.4 -4.0 8.3 -3.4 8.3 -2.4 L 8.3 35.2 C 8.3 36.7 8.7 37.2 10.1 37.2 L 13.1 37.2 C 14.1 37.2 14.5 36.9 14.5 36.1 C 14.5 35.9 14.5 35.6 14.4 35.3 C 13.6 32.5 12.4 29.2 10.9 26.7 C 10.6 26.1 10.4 25.5 10.4 24.9 C 10.4 24.0 10.8 23.2 11.6 22.5 C 14.5 20.0 15.7 16.9 15.7 14.0 C 15.7 11.2 14.8 10.1 13.5 10.1 C 12.7 10.1 12.1 10.2 11.5 10.3 C 10.2 10.6 9.5 9.6 9.5 8.6 C 9.5 7.8 9.9 7.1 10.8 6.8 C 11.7 6.6 12.6 6.5 13.6 6.5 C 17.1 6.5 19.2 9.1 19.2 14.0 C 19.2 18.2 17.7 21.5 13.7 25.0 C 15.4 28.0 16.8 31.6 17.8 34.9 C 18.1 35.6 18.2 36.2 18.2 36.9 C 18.2 39.1 16.6 40.4 13.6 40.4 Z" transform="scale(1,-1)" stroke-dasharray="183.5510694069449" stroke-dashoffset="183.5510694069449"><animate attributeName="stroke-dashoffset" from="183.5510694069449" to="0" dur="5.506532082208347s" begin="anim0.end" fill="freeze" id="anim_end" /></path></g></svg>