<?xml version='1.0' encoding='utf-8'?>
<svg viewBox="0 -44.0 50.0 50.0" version="1.1" xmlns="http://www.w3.org/2000/svg"><rect x="-1000" y="-1000" width="2000" height="2000" stroke="white" fill="white" /><g style="fill:none;stroke:#000000;stroke-width:1"><path d="M 40.0 5.8 C 43.4 5.8 44.9 7.2 44.9 10.2 L 44.9 27.7 C 44.9 30.7 43.6 32.1 40.2 32.1 L 36.1 32.1 C 36.6 33.5 37.0 34.9 37.4 36.3 L 46.5 36.3 C 47.5 36.3 47.9 37.1 47.9 37.8 C 47.9 38.6 47.5 39.3 46.5 39.3 L 25.4 39.3 C 24.5 39.3 24.1 38.6 24.1 37.8 C 24.1 37.1 24.5 36.3 25.4 36.3 L 34.1 36.3 C 33.6 34.9 33.2 33.5 32.7 32.1 L 31.5 32.1 C 28.1 32.1 26.7 30.8 26.7 27.8 L 26.7 10.2 C 26.8 6.9 28.5 5.8 31.7 5.8 Z " transform="scale(1,-1)" stroke-dasharray="135.72746921150875" stroke-dashoffset="135.72746921150875"><animate attributeName="stroke-dashoffset" from="135.72746921150875" to="0" dur="4.071824076345262s" begin="0s; 15s; 30s; 45s; 60s" fill="freeze" id="anim0" /></path><path d="M 32.3 8.7 C 30.7 8.7 30.1 9.1 30.1 10.7 L 30.1 13.9 L 41.5 13.9 L 41.5 10.7 C 41.5 9.1 40.9 8.7 39.4 8.7 Z " transform="scale(1,-1)" stroke-dasharray="31.83153757302065" stroke-dashoffset="31.83153757302065"><animate attributeName="stroke-dashoffset" from="31.83153757302065" to="0" dur="0.9549461271906194s" begin="anim0.end" fill="freeze" id="anim1" /></path><path d="M 30.1 21.6 L 41.5 21.6 L 41.5 16.8 L 30.1 16.8 Z " transform="scale(1,-1)" stroke-dasharray="32.4" stroke-dashoffset="32.4"><animate attributeName="stroke-dashoffset" from="32.4" to="0" dur="0.972s" begin="anim1.end" fill="freeze" id="anim2" /></path><path d="M 41.5 24.5 L 30.1 24.5 L 30.1 27.2 C 30.1 28.8 30.6 29.2 32.2 29.2 L 39.5 29.2 C 41.1 29.2 41.5 28.8 41.5 27.2 Z " transform="scale(1,-1)" stroke-dasharray="30.92519366630193" stroke-dashoffset="30.92519366630193"><animate attributeName="stroke-dashoffset" from="30.92519366630193" to="0" dur="0.9277558099890578s" begin="anim2.end" fill="freeze" id="anim3" /></path><path d="M 13.9 34.4 L 13.9 40.2 C 13.9 41.3 13.0 41.8 12.1 41.8 C 11.2 41.8 10.4 41.3 10.4 40.2 L 10.4 34.4 L 3.2 34.4 C 2.2 34.4 1.8 33.6 1.8 32.9 C 1.8 32.1 2.2 31.3 3.2 31.3 L 21.9 31.3 C 22.9 31.3 23.3 32.1 23.3 32.9 C 23.3 33.6 22.9 34.4 21.9 34.4 Z " transform="scale(1,-1)" stroke-dasharray="60.254054973981084" stroke-dashoffset="60.254054973981084"><animate attributeName="stroke-dashoffset" from="60.254054973981084" to="0" dur="1.8076216492194324s" begin="anim3.end" fill="freeze" id="anim4" /></path><path d="M 30.2 4.0 C 28.3 2.4 25.2 0.5 22.8 -0.6 C 21.9 -1.0 21.5 -1.7 21.5 -2.2 C 21.5 -3.1 22.2 -3.9 23.2 -3.9 C 23.6 -3.9 23.9 -3.8 24.2 -3.7 C 26.9 -2.5 30.2 -0.3 32.5 1.7 C 33.0 2.1 33.1 2.6 33.1 3.0 C 33.1 3.8 32.4 4.5 31.5 4.5 C 31.1 4.5 30.6 4.4 30.2 4.0 Z " transform="scale(1,-1)" stroke-dasharray="29.888024280137166" stroke-dashoffset="29.888024280137166"><animate attributeName="stroke-dashoffset" from="29.888024280137166" to="0" dur="0.896640728404115s" begin="anim4.end" fill="freeze" id="anim5" /></path><path d="M 41.0 4.0 C 40.5 4.5 40.0 4.7 39.5 4.7 C 38.6 4.7 37.9 4.0 37.9 3.2 C 37.9 2.8 38.0 2.4 38.4 2.0 C 40.1 0.2 42.6 -2.0 44.7 -3.3 C 45.1 -3.6 45.5 -3.7 45.9 -3.7 C 46.8 -3.7 47.6 -2.9 47.6 -2.0 C 47.6 -1.5 47.2 -0.8 46.5 -0.3 C 44.5 0.9 42.4 2.6 41.0 4.0 Z " transform="scale(1,-1)" stroke-dasharray="26.755822146064887" stroke-dashoffset="26.755822146064887"><animate attributeName="stroke-dashoffset" from="26.755822146064887" to="0" dur="0.8026746643819466s" begin="anim5.end" fill="freeze" id="anim6" /></path><path d="M 15.1 6.2 C 15.1 3.3 16.2 2.7 19.7 2.7 C 23.6 2.7 25.1 4.3 25.4 9.6 C 25.4 10.6 24.6 11.2 23.7 11.2 C 22.9 11.2 22.1 10.7 22.1 9.6 C 21.8 6.4 21.2 5.7 20.0 5.7 C 18.9 5.7 18.5 5.9 18.5 6.9 L 18.5 23.0 C 18.5 25.8 17.2 27.0 13.9 27.0 L 10.4 27.0 C 7.1 27.0 5.8 25.8 5.8 23.0 L 5.8 18.8 C 5.8 10.2 4.5 5.1 1.9 1.1 C 1.5 0.6 1.4 0.1 1.4 -0.3 C 1.4 -1.2 2.1 -1.7 2.9 -1.7 C 3.5 -1.7 4.1 -1.4 4.6 -0.7 C 7.6 3.8 9.2 9.6 9.2 18.6 L 9.2 22.4 C 9.2 23.7 9.6 24.0 10.8 24.0 L 13.5 24.0 C 14.8 24.0 15.1 23.6 15.1 22.4 Z" transform="scale(1,-1)" stroke-dasharray="139.95162244558296" stroke-dashoffset="139.95162244558296"><animate attributeName="stroke-dashoffset" from="139.95162244558296" to="0" dur="4.198548673367489s" begin="anim6.end" fill="freeze" id="anim_end" /></path></g></svg>