<?xml version='1.0' encoding='utf-8'?>
<svg viewBox="0 -44.0 50.0 50.0" version="1.1" xmlns="http://www.w3.org/2000/svg"><rect x="-1000" y="-1000" width="2000" height="2000" stroke="white" fill="white" /><g style="fill:none;stroke:#000000;stroke-width:1"><path d="M 40.8 5.8 C 44.1 5.8 45.6 7.2 45.6 10.2 L 45.6 27.7 C 45.6 30.7 44.3 32.1 41.0 32.1 L 37.9 32.1 C 38.4 33.5 38.8 34.9 39.2 36.3 L 46.8 36.3 C 47.7 36.3 48.1 37.1 48.1 37.8 C 48.1 38.6 47.7 39.3 46.8 39.3 L 28.7 39.3 C 27.8 39.3 27.4 38.6 27.4 37.8 C 27.4 37.1 27.8 36.3 28.7 36.3 L 35.9 36.3 C 35.6 34.9 35.1 33.5 34.6 32.1 L 34.0 32.1 C 30.7 32.1 29.4 30.9 29.4 27.9 L 29.4 10.2 C 29.4 7.0 31.0 5.8 34.1 5.8 Z " transform="scale(1,-1)" stroke-dasharray="125.80832844976855" stroke-dashoffset="125.80832844976855"><animate attributeName="stroke-dashoffset" from="125.80832844976855" to="0" dur="3.7742498534930564s" begin="0s; 15s; 30s; 45s; 60s" fill="freeze" id="anim0" /></path><path d="M 34.7 8.7 C 33.2 8.7 32.6 9.1 32.6 10.6 L 32.6 13.9 L 42.2 13.9 L 42.2 10.6 C 42.2 9.2 41.7 8.7 40.2 8.7 Z " transform="scale(1,-1)" stroke-dasharray="28.27156313471962" stroke-dashoffset="28.27156313471962"><animate attributeName="stroke-dashoffset" from="28.27156313471962" to="0" dur="0.8481468940415886s" begin="anim0.end" fill="freeze" id="anim1" /></path><path d="M 32.6 21.6 L 42.2 21.6 L 42.2 16.7 L 32.6 16.7 Z " transform="scale(1,-1)" stroke-dasharray="29.000000000000007" stroke-dashoffset="29.000000000000007"><animate attributeName="stroke-dashoffset" from="29.000000000000007" to="0" dur="0.8700000000000002s" begin="anim1.end" fill="freeze" id="anim2" /></path><path d="M 42.2 24.4 L 32.6 24.4 L 32.6 27.2 C 32.6 28.8 33.1 29.2 34.6 29.2 L 40.4 29.2 C 41.9 29.2 42.2 28.8 42.2 27.2 Z " transform="scale(1,-1)" stroke-dasharray="27.58375782793807" stroke-dashoffset="27.58375782793807"><animate attributeName="stroke-dashoffset" from="27.58375782793807" to="0" dur="0.827512734838142s" begin="anim2.end" fill="freeze" id="anim3" /></path><path d="M 20.0 19.1 C 23.7 19.1 25.2 20.5 25.2 23.6 L 25.2 34.7 C 25.2 37.8 23.7 39.2 20.0 39.2 L 9.2 39.2 C 5.5 39.2 4.0 37.8 4.0 34.7 L 4.0 23.6 C 4.1 20.0 6.0 19.1 9.2 19.1 Z " transform="scale(1,-1)" stroke-dasharray="75.6273898625787" stroke-dashoffset="75.6273898625787"><animate attributeName="stroke-dashoffset" from="75.6273898625787" to="0" dur="2.2688216958773606s" begin="anim3.end" fill="freeze" id="anim4" /></path><path d="M 16.1 27.8 L 21.8 27.8 L 21.8 24.1 C 21.8 22.4 21.0 22.1 19.5 22.1 L 16.1 22.1 Z " transform="scale(1,-1)" stroke-dasharray="22.08555921950502" stroke-dashoffset="22.08555921950502"><animate attributeName="stroke-dashoffset" from="22.08555921950502" to="0" dur="0.6625667765851505s" begin="anim4.end" fill="freeze" id="anim5" /></path><path d="M 12.8 27.8 L 12.8 22.1 L 9.8 22.1 C 7.9 22.1 7.4 22.7 7.4 24.1 L 7.4 27.8 Z " transform="scale(1,-1)" stroke-dasharray="21.46313703271048" stroke-dashoffset="21.46313703271048"><animate attributeName="stroke-dashoffset" from="21.46313703271048" to="0" dur="0.6438941109813144s" begin="anim5.end" fill="freeze" id="anim6" /></path><path d="M 16.1 36.2 L 19.5 36.2 C 21.3 36.2 21.8 35.6 21.8 34.2 L 21.8 30.7 L 16.1 30.7 Z " transform="scale(1,-1)" stroke-dasharray="21.67268705328234" stroke-dashoffset="21.67268705328234"><animate attributeName="stroke-dashoffset" from="21.67268705328234" to="0" dur="0.6501806115984702s" begin="anim6.end" fill="freeze" id="anim7" /></path><path d="M 12.8 36.2 L 12.8 30.7 L 7.4 30.7 L 7.4 34.2 C 7.4 35.6 7.9 36.2 9.8 36.2 Z " transform="scale(1,-1)" stroke-dasharray="21.063137032710486" stroke-dashoffset="21.063137032710486"><animate attributeName="stroke-dashoffset" from="21.063137032710486" to="0" dur="0.6318941109813145s" begin="anim7.end" fill="freeze" id="anim8" /></path><path d="M 8.8 1.9 C 8.8 -1.3 10.1 -2.2 15.0 -2.2 C 19.9 -2.2 22.2 -0.8 22.7 4.0 C 22.8 5.2 21.9 5.8 21.1 5.8 C 20.3 5.8 19.6 5.3 19.5 4.3 C 19.2 1.7 18.2 1.0 14.9 1.0 C 12.6 1.0 12.2 1.3 12.2 2.6 L 12.2 12.2 C 12.2 13.3 11.3 13.8 10.5 13.8 C 9.7 13.8 8.8 13.3 8.8 12.2 Z " transform="scale(1,-1)" stroke-dasharray="60.50055288969278" stroke-dashoffset="60.50055288969278"><animate attributeName="stroke-dashoffset" from="60.50055288969278" to="0" dur="1.8150165866907833s" begin="anim8.end" fill="freeze" id="anim9" /></path><path d="M 3.8 10.4 C 3.4 8.6 2.5 6.2 1.9 4.9 C 1.7 4.5 1.6 4.2 1.6 3.9 C 1.6 3.0 2.4 2.4 3.2 2.4 C 3.8 2.4 4.5 2.8 5.0 3.7 C 5.6 5.2 6.5 7.7 6.9 9.8 C 7.2 11.1 6.3 11.8 5.4 11.8 C 4.7 11.8 4.0 11.4 3.8 10.4 Z " transform="scale(1,-1)" stroke-dasharray="23.28621235868103" stroke-dashoffset="23.28621235868103"><animate attributeName="stroke-dashoffset" from="23.28621235868103" to="0" dur="0.6985863707604308s" begin="anim9.end" fill="freeze" id="anim10" /></path><path d="M 32.1 3.9 C 30.4 2.1 28.2 0.4 26.2 -0.7 C 25.4 -1.2 25.0 -1.9 25.0 -2.5 C 25.0 -3.2 25.7 -4.0 26.7 -4.0 C 27.1 -4.0 27.5 -3.9 28.0 -3.6 C 30.2 -2.2 32.9 -0.2 34.5 1.7 C 34.9 2.1 35.1 2.6 35.1 3.1 C 35.1 3.9 34.4 4.5 33.5 4.5 C 33.1 4.5 32.6 4.4 32.1 3.9 Z " transform="scale(1,-1)" stroke-dasharray="27.555097976044223" stroke-dashoffset="27.555097976044223"><animate attributeName="stroke-dashoffset" from="27.555097976044223" to="0" dur="0.8266529392813267s" begin="anim10.end" fill="freeze" id="anim11" /></path><path d="M 42.2 3.9 C 41.8 4.5 41.2 4.7 40.8 4.7 C 39.9 4.7 39.2 4.0 39.2 3.2 C 39.2 2.8 39.3 2.4 39.7 2.0 C 41.2 0.2 43.4 -1.8 45.2 -3.1 C 45.7 -3.5 46.2 -3.6 46.6 -3.6 C 47.5 -3.6 48.2 -2.9 48.2 -2.0 C 48.2 -1.4 47.9 -0.8 47.2 -0.2 C 45.5 0.9 43.6 2.5 42.2 3.9 Z " transform="scale(1,-1)" stroke-dasharray="25.606459283958017" stroke-dashoffset="25.606459283958017"><animate attributeName="stroke-dashoffset" from="25.606459283958017" to="0" dur="0.7681937785187405s" begin="anim11.end" fill="freeze" id="anim12" /></path><path d="M 15.1 17.5 C 14.7 17.8 14.2 17.9 13.9 17.9 C 13.0 17.9 12.2 17.3 12.2 16.4 C 12.2 16.1 12.4 15.7 12.8 15.3 C 14.0 14.2 15.1 13.0 16.1 11.7 C 16.5 11.1 17.1 10.8 17.6 10.8 C 18.4 10.8 19.2 11.5 19.2 12.5 C 19.2 13.0 19.1 13.5 18.7 14.0 C 17.8 15.1 16.2 16.6 15.1 17.5 Z " transform="scale(1,-1)" stroke-dasharray="21.029531905178363" stroke-dashoffset="21.029531905178363"><animate attributeName="stroke-dashoffset" from="21.029531905178363" to="0" dur="0.6308859571553509s" begin="anim12.end" fill="freeze" id="anim13" /></path><path d="M 24.7 12.4 C 24.2 13.0 23.7 13.2 23.1 13.2 C 22.2 13.2 21.6 12.7 21.6 11.9 C 21.6 11.7 21.7 11.3 21.9 11.0 C 22.9 9.6 23.9 7.6 24.6 6.1 C 25.0 5.1 25.6 4.7 26.2 4.7 C 27.0 4.7 27.8 5.5 27.8 6.5 C 27.8 6.8 27.8 7.1 27.6 7.4 C 26.8 9.2 25.7 11.1 24.7 12.4 Z" transform="scale(1,-1)" stroke-dasharray="22.30230242741897" stroke-dashoffset="22.30230242741897"><animate attributeName="stroke-dashoffset" from="22.30230242741897" to="0" dur="0.669069072822569s" begin="anim13.end" fill="freeze" id="anim_end" /></path></g></svg>