<?xml version='1.0' encoding='utf-8'?>
<svg viewBox="0 -44.0 50.0 50.0" version="1.1" xmlns="http://www.w3.org/2000/svg"><rect x="-1000" y="-1000" width="2000" height="2000" stroke="white" fill="white" /><g style="fill:none;stroke:#000000;stroke-width:1"><path d="M 17.1 10.3 C 20.2 10.3 21.7 11.9 21.7 14.6 L 21.7 25.0 C 21.7 27.7 20.2 29.2 17.1 29.2 L 14.7 29.2 C 15.4 30.6 16.0 31.9 16.3 32.8 C 16.5 33.3 16.6 33.8 16.6 34.2 C 16.6 36.0 15.3 37.1 12.7 37.1 L 10.0 37.1 C 10.4 38.0 10.8 38.9 11.2 39.8 C 11.2 40.0 11.3 40.2 11.3 40.5 C 11.3 41.5 10.5 42.1 9.6 42.1 C 9.0 42.1 8.3 41.7 8.0 40.9 C 6.5 36.9 4.3 32.8 1.9 30.0 C 1.5 29.6 1.4 29.1 1.4 28.8 C 1.4 27.9 2.1 27.2 2.9 27.2 C 3.3 27.2 3.8 27.4 4.2 27.9 C 5.7 29.7 7.2 31.8 8.5 34.1 L 12.2 34.1 C 13.0 34.1 13.3 33.8 13.1 33.1 C 12.8 32.1 12.2 30.8 11.4 29.2 L 9.0 29.2 C 5.9 29.2 4.5 27.7 4.5 25.0 L 4.5 14.6 C 4.5 11.6 6.2 10.4 9.0 10.3 Z " transform="scale(1,-1)" stroke-dasharray="119.20701269966678" stroke-dashoffset="119.20701269966678"><animate attributeName="stroke-dashoffset" from="119.20701269966678" to="0" dur="3.576210380990003s" begin="0s; 15s; 30s; 45s; 60s" fill="freeze" id="anim0" /></path><path d="M 18.6 18.7 L 18.6 14.9 C 18.6 13.7 18.2 13.1 16.6 13.1 L 14.5 13.1 L 14.5 18.7 Z " transform="scale(1,-1)" stroke-dasharray="18.749586523941996" stroke-dashoffset="18.749586523941996"><animate attributeName="stroke-dashoffset" from="18.749586523941996" to="0" dur="0.5624875957182599s" begin="anim0.end" fill="freeze" id="anim1" /></path><path d="M 18.6 21.6 L 14.5 21.6 L 14.5 26.5 L 16.6 26.5 C 18.2 26.5 18.6 26.0 18.6 24.7 Z " transform="scale(1,-1)" stroke-dasharray="17.37516559454995" stroke-dashoffset="17.37516559454995"><animate attributeName="stroke-dashoffset" from="17.37516559454995" to="0" dur="0.5212549678364985s" begin="anim1.end" fill="freeze" id="anim2" /></path><path d="M 11.5 26.5 L 11.5 21.6 L 7.6 21.6 L 7.6 24.7 C 7.6 26.0 7.9 26.5 9.6 26.5 Z " transform="scale(1,-1)" stroke-dasharray="17.00088676370605" stroke-dashoffset="17.00088676370605"><animate attributeName="stroke-dashoffset" from="17.00088676370605" to="0" dur="0.5100266029111814s" begin="anim2.end" fill="freeze" id="anim3" /></path><path d="M 7.6 18.7 L 11.5 18.7 L 11.5 13.1 L 9.6 13.1 C 7.9 13.1 7.6 13.7 7.6 14.9 Z " transform="scale(1,-1)" stroke-dasharray="18.375364371956344" stroke-dashoffset="18.375364371956344"><animate attributeName="stroke-dashoffset" from="18.375364371956344" to="0" dur="0.5512609311586903s" begin="anim3.end" fill="freeze" id="anim4" /></path><path d="M 33.9 26.5 L 33.9 16.3 L 26.8 16.3 C 25.9 16.3 25.4 15.5 25.4 14.7 C 25.4 13.9 25.9 13.1 26.8 13.1 L 33.9 13.1 L 33.9 0.9 L 23.2 0.9 C 22.3 0.9 21.8 0.1 21.8 -0.8 C 21.8 -1.6 22.3 -2.4 23.2 -2.4 L 46.7 -2.4 C 47.7 -2.4 48.1 -1.6 48.1 -0.8 C 48.1 0.1 47.7 0.9 46.7 0.9 L 37.4 0.9 L 37.4 13.1 L 44.0 13.1 C 45.0 13.1 45.5 13.9 45.5 14.7 C 45.5 15.5 45.0 16.3 44.0 16.3 L 37.4 16.3 L 37.4 26.5 L 45.7 26.5 C 46.7 26.5 47.2 27.2 47.2 28.0 C 47.2 28.8 46.7 29.6 45.7 29.6 L 37.4 29.6 L 37.4 40.0 C 37.4 41.0 36.6 41.5 35.6 41.5 C 34.8 41.5 33.9 41.0 33.9 40.0 L 33.9 29.6 L 29.0 29.6 C 29.6 31.6 30.0 33.6 30.4 35.5 C 30.6 36.9 29.6 37.6 28.6 37.6 C 27.8 37.6 27.1 37.1 26.9 36.1 C 26.2 32.0 24.8 26.7 23.1 23.4 C 22.9 23.0 22.9 22.7 22.9 22.4 C 22.9 21.4 23.6 20.8 24.5 20.8 C 25.1 20.8 25.8 21.1 26.2 21.9 C 26.9 23.4 27.5 24.9 28.0 26.5 Z " transform="scale(1,-1)" stroke-dasharray="228.9920589212777" stroke-dashoffset="228.9920589212777"><animate attributeName="stroke-dashoffset" from="228.9920589212777" to="0" dur="6.869761767638331s" begin="anim4.end" fill="freeze" id="anim5" /></path><path d="M 4.5 7.1 C 4.0 4.9 3.2 2.3 2.1 0.0 C 2.1 -0.2 2.0 -0.5 2.0 -0.8 C 2.0 -1.6 2.8 -2.1 3.6 -2.1 C 4.1 -2.1 4.7 -1.9 5.1 -1.2 C 6.2 1.0 7.1 4.1 7.6 6.6 C 7.8 7.7 6.9 8.4 6.1 8.4 C 5.4 8.4 4.7 8.0 4.5 7.1 Z " transform="scale(1,-1)" stroke-dasharray="25.57618337079729" stroke-dashoffset="25.57618337079729"><animate attributeName="stroke-dashoffset" from="25.57618337079729" to="0" dur="0.7672855011239186s" begin="anim5.end" fill="freeze" id="anim6" /></path><path d="M 11.9 6.7 C 11.7 7.5 11.0 7.9 10.4 7.9 C 9.6 7.9 8.8 7.3 9.0 6.2 C 9.3 4.7 9.5 2.6 9.5 0.5 C 9.5 -0.6 10.2 -1.1 11.0 -1.1 C 11.8 -1.1 12.7 -0.5 12.7 0.8 C 12.7 2.7 12.2 5.3 11.9 6.7 Z " transform="scale(1,-1)" stroke-dasharray="21.639912498015814" stroke-dashoffset="21.639912498015814"><animate attributeName="stroke-dashoffset" from="21.639912498015814" to="0" dur="0.6491973749404744s" begin="anim6.end" fill="freeze" id="anim7" /></path><path d="M 16.4 7.5 C 16.1 8.1 15.5 8.3 15.0 8.3 C 14.3 8.3 13.6 7.9 13.6 7.1 C 13.6 7.0 13.7 6.7 13.8 6.5 C 14.4 5.0 14.9 3.5 15.2 1.5 C 15.4 0.6 16.0 0.2 16.6 0.2 C 17.4 0.2 18.4 0.9 18.1 2.2 C 17.8 4.0 17.1 6.2 16.4 7.5 Z " transform="scale(1,-1)" stroke-dasharray="20.164486052245827" stroke-dashoffset="20.164486052245827"><animate attributeName="stroke-dashoffset" from="20.164486052245827" to="0" dur="0.6049345815673748s" begin="anim7.end" fill="freeze" id="anim8" /></path><path d="M 20.9 8.6 C 20.5 9.1 20.0 9.3 19.5 9.3 C 18.8 9.3 18.2 8.8 18.2 8.1 C 18.2 7.9 18.2 7.6 18.4 7.3 C 19.1 6.0 19.8 4.7 20.4 3.0 C 20.6 2.2 21.2 1.9 21.7 1.9 C 22.5 1.9 23.2 2.6 23.2 3.5 C 23.2 3.8 23.2 4.0 23.1 4.2 C 22.5 5.8 21.6 7.5 20.9 8.6 Z" transform="scale(1,-1)" stroke-dasharray="19.09427052902499" stroke-dashoffset="19.09427052902499"><animate attributeName="stroke-dashoffset" from="19.09427052902499" to="0" dur="0.5728281158707497s" begin="anim8.end" fill="freeze" id="anim_end" /></path></g></svg>