<?xml version='1.0' encoding='utf-8'?>
<svg viewBox="0 -44.0 50.0 50.0" version="1.1" xmlns="http://www.w3.org/2000/svg"><rect x="-1000" y="-1000" width="2000" height="2000" stroke="white" fill="white" /><g style="fill:none;stroke:#000000;stroke-width:1"><path d="M 23.2 35.4 L 8.6 35.4 C 5.0 35.4 4.0 34.0 4.0 31.9 L 4.0 28.5 C 4.0 27.5 4.9 27.0 5.7 27.0 C 6.6 27.0 7.5 27.5 7.5 28.5 L 7.5 31.6 C 7.5 32.4 7.8 32.8 9.2 32.8 L 23.2 32.8 L 23.2 23.8 C 23.2 22.9 24.0 22.4 24.9 22.4 C 25.7 22.4 26.5 22.9 26.5 23.8 L 26.5 32.8 L 40.9 32.8 C 42.2 32.8 42.5 32.4 42.5 31.6 L 42.5 28.7 C 42.5 27.8 43.4 27.2 44.2 27.2 C 45.2 27.2 46.0 27.8 46.0 28.7 L 46.0 31.9 C 46.0 34.0 45.0 35.4 41.4 35.4 L 26.5 35.4 L 26.5 37.6 L 41.4 37.6 C 42.4 37.6 42.9 38.2 42.9 39.0 C 42.9 39.7 42.4 40.4 41.4 40.4 L 9.2 40.4 C 8.2 40.4 7.8 39.7 7.8 39.0 C 7.8 38.2 8.2 37.6 9.2 37.6 L 23.2 37.6 Z " transform="scale(1,-1)" stroke-dasharray="196.28946061599115" stroke-dashoffset="196.28946061599115"><animate attributeName="stroke-dashoffset" from="196.28946061599115" to="0" dur="5.888683818479734s" begin="0s; 15s; 30s; 45s; 60s" fill="freeze" id="anim0" /></path><path d="M 18.1 7.0 C 15.9 2.7 10.7 0.1 4.0 -0.8 C 3.0 -1.0 2.5 -1.6 2.5 -2.3 C 2.5 -3.2 3.2 -4.0 4.5 -3.8 C 12.5 -2.8 19.2 0.7 22.0 7.0 L 27.7 7.0 L 27.7 0.7 C 27.7 -2.2 28.9 -3.0 36.3 -3.0 C 44.6 -3.0 47.0 -1.7 47.6 2.9 C 47.7 4.0 46.8 4.8 45.9 4.8 C 45.1 4.8 44.4 4.3 44.2 3.3 C 43.8 0.5 42.8 -0.1 36.3 -0.1 C 31.7 -0.1 31.2 0.2 31.2 1.5 L 31.2 7.0 L 36.9 7.0 C 40.4 7.0 41.8 7.9 41.8 10.6 L 41.8 16.9 C 41.8 19.6 40.4 20.6 36.9 20.6 L 27.8 20.6 C 26.8 20.6 26.3 19.9 26.3 19.2 C 26.3 18.4 26.8 17.8 27.8 17.8 L 36.3 17.8 C 37.9 17.8 38.4 17.4 38.4 16.3 L 38.4 15.2 L 28.6 15.2 C 27.6 15.2 27.1 14.5 27.1 13.8 C 27.1 13.2 27.6 12.5 28.6 12.5 L 38.4 12.5 L 38.4 11.2 C 38.4 10.1 37.9 9.8 36.3 9.8 L 13.7 9.8 C 12.1 9.8 11.6 10.1 11.6 11.2 L 11.6 12.6 L 20.9 12.6 C 21.9 12.6 22.4 13.2 22.4 13.9 C 22.4 14.6 21.9 15.2 20.9 15.2 L 11.6 15.2 L 11.6 17.0 C 14.8 17.6 18.0 18.4 20.7 19.3 C 21.6 19.6 21.9 20.2 21.9 20.8 C 21.9 21.5 21.4 22.2 20.5 22.2 C 20.3 22.2 20.1 22.1 19.8 22.0 C 17.0 21.0 14.2 20.2 10.9 19.6 C 10.6 19.8 10.2 19.9 9.9 19.9 C 9.0 19.9 8.2 19.4 8.2 18.4 L 8.2 10.6 C 8.2 7.9 9.6 7.0 13.1 7.0 Z " transform="scale(1,-1)" stroke-dasharray="286.83736638634866" stroke-dashoffset="286.83736638634866"><animate attributeName="stroke-dashoffset" from="286.83736638634866" to="0" dur="8.605120991590459s" begin="anim0.end" fill="freeze" id="anim1" /></path><path d="M 19.2 23.8 C 20.0 23.8 20.5 24.4 20.5 25.1 C 20.5 25.7 20.0 26.2 19.2 26.2 L 10.6 26.2 C 9.7 26.2 9.3 25.7 9.3 25.1 C 9.3 24.4 9.7 23.8 10.6 23.8 Z " transform="scale(1,-1)" stroke-dasharray="25.165009691979733" stroke-dashoffset="25.165009691979733"><animate attributeName="stroke-dashoffset" from="25.165009691979733" to="0" dur="0.754950290759392s" begin="anim1.end" fill="freeze" id="anim2" /></path><path d="M 39.5 23.8 C 40.3 23.8 40.8 24.4 40.8 25.1 C 40.8 25.7 40.3 26.2 39.5 26.2 L 30.4 26.2 C 29.6 26.2 29.2 25.7 29.2 25.1 C 29.2 24.4 29.6 23.8 30.4 23.8 Z " transform="scale(1,-1)" stroke-dasharray="25.988896249590827" stroke-dashoffset="25.988896249590827"><animate attributeName="stroke-dashoffset" from="25.988896249590827" to="0" dur="0.7796668874877247s" begin="anim2.end" fill="freeze" id="anim3" /></path><path d="M 19.2 28.3 C 20.0 28.3 20.5 28.9 20.5 29.6 C 20.5 30.2 20.0 30.8 19.2 30.8 L 11.4 30.8 C 10.6 30.8 10.2 30.2 10.2 29.6 C 10.2 28.9 10.6 28.3 11.4 28.3 Z " transform="scale(1,-1)" stroke-dasharray="23.521043605126597" stroke-dashoffset="23.521043605126597"><animate attributeName="stroke-dashoffset" from="23.521043605126597" to="0" dur="0.7056313081537978s" begin="anim3.end" fill="freeze" id="anim4" /></path><path d="M 38.1 28.3 C 39.0 28.3 39.5 28.9 39.5 29.6 C 39.5 30.2 39.0 30.8 38.1 30.8 L 30.4 30.8 C 29.6 30.8 29.2 30.2 29.2 29.6 C 29.2 28.9 29.6 28.3 30.4 28.3 Z" transform="scale(1,-1)" stroke-dasharray="23.498153644346427" stroke-dashoffset="23.498153644346427"><animate attributeName="stroke-dashoffset" from="23.498153644346427" to="0" dur="0.7049446093303928s" begin="anim4.end" fill="freeze" id="anim_end" /></path></g></svg>