<?xml version='1.0' encoding='utf-8'?>
<svg viewBox="0 -44.0 50.0 50.0" version="1.1" xmlns="http://www.w3.org/2000/svg"><rect x="-1000" y="-1000" width="2000" height="2000" stroke="white" fill="white" /><g style="fill:none;stroke:#000000;stroke-width:1"><path d="M 10.3 22.2 C 13.2 22.2 14.2 23.2 14.2 25.6 L 14.2 36.8 C 14.2 39.1 13.2 40.2 10.3 40.2 L 7.4 40.2 C 4.5 40.2 3.5 39.1 3.5 36.8 L 3.5 25.6 C 3.6 22.9 4.8 22.2 7.4 22.2 Z " transform="scale(1,-1)" stroke-dasharray="52.26087203087853" stroke-dashoffset="52.26087203087853"><animate attributeName="stroke-dashoffset" from="52.26087203087853" to="0" dur="1.567826160926356s" begin="0s; 15s; 30s; 45s; 60s" fill="freeze" id="anim0" /></path><path d="M 7.8 24.7 C 6.7 24.7 6.4 25.0 6.4 25.9 L 6.4 27.6 L 11.2 27.6 L 11.2 25.9 C 11.2 25.0 10.8 24.7 9.9 24.7 Z " transform="scale(1,-1)" stroke-dasharray="14.540662507176519" stroke-dashoffset="14.540662507176519"><animate attributeName="stroke-dashoffset" from="14.540662507176519" to="0" dur="0.43621987521529554s" begin="anim0.end" fill="freeze" id="anim1" /></path><path d="M 6.4 32.6 L 11.2 32.6 L 11.2 30.0 L 6.4 30.0 Z " transform="scale(1,-1)" stroke-dasharray="14.8" stroke-dashoffset="14.8"><animate attributeName="stroke-dashoffset" from="14.8" to="0" dur="0.444s" begin="anim1.end" fill="freeze" id="anim2" /></path><path d="M 11.2 35.0 L 6.4 35.0 L 6.4 36.5 C 6.4 37.4 6.7 37.6 7.8 37.6 L 9.9 37.6 C 11.0 37.6 11.2 37.4 11.2 36.5 Z " transform="scale(1,-1)" stroke-dasharray="14.068915249371424" stroke-dashoffset="14.068915249371424"><animate attributeName="stroke-dashoffset" from="14.068915249371424" to="0" dur="0.4220674574811427s" begin="anim2.end" fill="freeze" id="anim3" /></path><path d="M 23.8 22.2 C 26.7 22.2 27.7 23.2 27.7 25.6 L 27.7 36.8 C 27.7 39.1 26.7 40.2 23.8 40.2 L 20.8 40.2 C 17.9 40.2 16.9 39.1 16.9 36.8 L 16.9 25.6 C 16.9 22.9 18.2 22.2 20.8 22.2 Z " transform="scale(1,-1)" stroke-dasharray="52.49462934076741" stroke-dashoffset="52.49462934076741"><animate attributeName="stroke-dashoffset" from="52.49462934076741" to="0" dur="1.5748388802230222s" begin="anim3.end" fill="freeze" id="anim4" /></path><path d="M 21.2 24.7 C 20.1 24.7 19.8 25.0 19.8 25.9 L 19.8 27.6 L 24.8 27.6 L 24.8 25.9 C 24.8 25.0 24.3 24.7 23.4 24.7 Z " transform="scale(1,-1)" stroke-dasharray="14.909471100384557" stroke-dashoffset="14.909471100384557"><animate attributeName="stroke-dashoffset" from="14.909471100384557" to="0" dur="0.4472841330115367s" begin="anim4.end" fill="freeze" id="anim5" /></path><path d="M 19.8 32.6 L 24.8 32.6 L 24.8 30.0 L 19.8 30.0 Z " transform="scale(1,-1)" stroke-dasharray="15.200000000000003" stroke-dashoffset="15.200000000000003"><animate attributeName="stroke-dashoffset" from="15.200000000000003" to="0" dur="0.45600000000000007s" begin="anim5.end" fill="freeze" id="anim6" /></path><path d="M 24.8 35.0 L 19.8 35.0 L 19.8 36.5 C 19.8 37.4 20.1 37.6 21.2 37.6 L 23.4 37.6 C 24.5 37.6 24.8 37.4 24.8 36.5 Z " transform="scale(1,-1)" stroke-dasharray="14.436297672469786" stroke-dashoffset="14.436297672469786"><animate attributeName="stroke-dashoffset" from="14.436297672469786" to="0" dur="0.43308893017409356s" begin="anim6.end" fill="freeze" id="anim7" /></path><path d="M 27.3 9.8 C 28.2 9.8 28.8 10.5 28.8 11.2 C 28.8 11.9 28.2 12.6 27.3 12.6 L 14.8 12.6 C 15.0 12.9 15.2 13.2 15.3 13.5 C 15.5 13.7 15.5 13.9 15.5 14.2 C 15.5 14.9 14.8 15.5 14.0 15.5 C 13.4 15.5 12.9 15.2 12.5 14.6 C 12.1 13.9 11.7 13.2 11.3 12.6 L 3.5 12.6 C 2.6 12.6 2.1 11.9 2.1 11.2 C 2.1 10.5 2.6 9.8 3.5 9.8 L 9.5 9.8 C 8.3 8.3 7.2 6.9 6.1 5.7 C 5.7 5.3 5.6 4.9 5.6 4.5 C 5.6 3.7 6.2 3.1 7.1 3.1 C 7.6 3.1 8.2 3.3 8.6 3.8 C 8.8 4.0 9.0 4.2 9.1 4.4 C 10.7 3.9 12.2 3.3 13.8 2.7 C 11.1 1.0 8.0 0.0 4.4 -0.5 C 3.2 -0.7 2.8 -1.4 2.8 -2.1 C 2.8 -3.0 3.5 -3.8 4.7 -3.6 C 9.3 -2.9 13.5 -1.5 16.9 1.2 C 18.5 0.5 20.2 -0.5 21.8 -1.6 C 22.2 -1.8 22.5 -1.9 22.8 -1.9 C 23.8 -1.9 24.5 -1.1 24.5 -0.2 C 24.5 0.4 24.2 1.0 23.4 1.5 C 22.2 2.2 20.8 2.9 19.4 3.6 C 21.0 5.4 22.2 7.5 23.2 9.8 Z " transform="scale(1,-1)" stroke-dasharray="115.8552144286474" stroke-dashoffset="115.8552144286474"><animate attributeName="stroke-dashoffset" from="115.8552144286474" to="0" dur="3.475656432859422s" begin="anim7.end" fill="freeze" id="anim8" /></path><path d="M 19.7 9.8 C 18.8 8.0 17.8 6.2 16.4 4.9 C 14.6 5.6 12.8 6.2 11.0 6.8 C 11.7 7.8 12.4 8.7 13.1 9.8 Z " transform="scale(1,-1)" stroke-dasharray="21.927322294681485" stroke-dashoffset="21.927322294681485"><animate attributeName="stroke-dashoffset" from="21.927322294681485" to="0" dur="0.6578196688404445s" begin="anim8.end" fill="freeze" id="anim9" /></path><path d="M 33.6 23.1 L 40.9 23.1 C 44.4 23.1 45.8 24.4 45.8 27.1 L 45.8 33.4 C 45.8 36.1 44.4 37.4 40.9 37.4 L 39.1 37.4 C 39.4 38.2 39.6 39.1 39.8 40.0 C 40.0 41.2 39.1 41.9 38.1 41.9 C 37.4 41.9 36.6 41.4 36.5 40.5 C 36.2 39.5 36.0 38.5 35.7 37.4 L 35.3 37.4 C 31.8 37.4 30.4 36.0 30.4 33.2 L 30.4 15.0 C 30.4 12.7 31.5 11.4 34.6 11.4 L 43.2 11.4 C 44.7 11.4 45.1 10.9 45.1 9.8 C 45.0 7.4 44.7 4.2 44.0 2.0 C 43.5 0.4 42.6 -0.2 41.3 -0.2 C 40.7 -0.2 39.9 -0.1 39.0 0.1 C 37.9 0.4 37.2 -0.6 37.2 -1.5 C 37.2 -2.2 37.6 -3.0 38.7 -3.2 C 39.6 -3.4 40.5 -3.5 41.5 -3.5 C 44.4 -3.5 46.2 -2.2 47.1 1.1 C 47.9 3.8 48.2 7.1 48.3 10.0 C 48.4 12.7 47.4 14.2 43.9 14.2 L 35.1 14.2 C 34.0 14.2 33.6 14.6 33.6 15.4 L 33.6 17.2 L 47.4 17.2 C 48.4 17.2 48.8 18.0 48.8 18.7 C 48.8 19.5 48.4 20.2 47.4 20.2 L 33.6 20.2 Z " transform="scale(1,-1)" stroke-dasharray="179.23318298198154" stroke-dashoffset="179.23318298198154"><animate attributeName="stroke-dashoffset" from="179.23318298198154" to="0" dur="5.376995489459446s" begin="anim9.end" fill="freeze" id="anim10" /></path><path d="M 33.6 25.9 L 33.6 29.0 L 42.6 29.0 L 42.6 27.6 C 42.5 26.0 41.6 25.9 40.2 25.9 Z " transform="scale(1,-1)" stroke-dasharray="23.51499457547737" stroke-dashoffset="23.51499457547737"><animate attributeName="stroke-dashoffset" from="23.51499457547737" to="0" dur="0.7054498372643211s" begin="anim10.end" fill="freeze" id="anim11" /></path><path d="M 42.6 31.6 L 33.6 31.6 L 33.6 32.9 C 33.6 34.2 34.1 34.6 36.0 34.6 L 40.2 34.6 C 42.0 34.6 42.6 34.2 42.6 32.9 Z " transform="scale(1,-1)" stroke-dasharray="22.692267092231425" stroke-dashoffset="22.692267092231425"><animate attributeName="stroke-dashoffset" from="22.692267092231425" to="0" dur="0.6807680127669428s" begin="anim11.end" fill="freeze" id="anim12" /></path><path d="M 28.4 7.0 C 28.1 4.9 27.6 2.8 26.9 1.1 C 26.8 0.8 26.8 0.6 26.8 0.3 C 26.8 -0.6 27.5 -1.1 28.2 -1.1 C 28.8 -1.1 29.5 -0.7 29.8 0.2 C 30.4 1.7 31.0 4.3 31.2 6.6 C 31.4 7.7 30.6 8.3 29.8 8.3 C 29.2 8.3 28.5 7.9 28.4 7.0 Z " transform="scale(1,-1)" stroke-dasharray="22.548364225386212" stroke-dashoffset="22.548364225386212"><animate attributeName="stroke-dashoffset" from="22.548364225386212" to="0" dur="0.6764509267615864s" begin="anim12.end" fill="freeze" id="anim13" /></path><path d="M 34.6 7.6 C 34.4 8.2 33.9 8.5 33.4 8.5 C 32.7 8.5 32.1 8.1 32.1 7.3 C 32.1 7.2 32.1 7.0 32.2 6.8 C 32.6 5.6 33.0 4.2 33.2 2.4 C 33.4 1.5 34.0 1.1 34.6 1.1 C 35.5 1.1 36.3 1.8 36.1 3.1 C 35.8 4.4 35.1 6.4 34.6 7.6 Z " transform="scale(1,-1)" stroke-dasharray="18.344058460738406" stroke-dashoffset="18.344058460738406"><animate attributeName="stroke-dashoffset" from="18.344058460738406" to="0" dur="0.5503217538221522s" begin="anim13.end" fill="freeze" id="anim14" /></path><path d="M 41.9 10.0 C 41.6 10.4 41.2 10.5 40.9 10.5 C 40.2 10.5 39.7 10.1 39.7 9.5 C 39.7 9.2 39.8 9.0 40.0 8.7 C 40.7 7.7 41.1 6.9 41.6 5.8 C 41.9 5.2 42.4 4.9 42.9 4.9 C 43.6 4.9 44.2 5.4 44.2 6.2 C 44.2 6.5 44.1 6.8 43.9 7.1 C 43.4 8.0 42.7 9.1 41.9 10.0 Z " transform="scale(1,-1)" stroke-dasharray="15.314855305714323" stroke-dashoffset="15.314855305714323"><animate attributeName="stroke-dashoffset" from="15.314855305714323" to="0" dur="0.45944565917142965s" begin="anim14.end" fill="freeze" id="anim15" /></path><path d="M 12.3 21.0 C 12.0 21.4 11.6 21.5 11.2 21.5 C 10.4 21.5 9.8 20.9 9.8 20.2 C 9.8 19.9 10.0 19.5 10.2 19.2 C 10.9 18.4 11.4 17.9 11.9 17.2 C 12.2 16.6 12.8 16.4 13.2 16.4 C 14.0 16.4 14.7 16.9 14.7 17.8 C 14.7 18.1 14.5 18.5 14.2 18.9 C 13.5 19.8 13.0 20.3 12.3 21.0 Z " transform="scale(1,-1)" stroke-dasharray="15.066426966591422" stroke-dashoffset="15.066426966591422"><animate attributeName="stroke-dashoffset" from="15.066426966591422" to="0" dur="0.45199280899774263s" begin="anim15.end" fill="freeze" id="anim16" /></path><path d="M 5.2 20.6 C 4.2 19.2 3.4 18.2 2.2 17.2 C 1.7 16.8 1.5 16.3 1.5 15.9 C 1.5 15.1 2.1 14.5 2.9 14.5 C 3.3 14.5 3.9 14.7 4.4 15.2 C 5.4 16.1 6.8 17.7 7.8 18.9 C 8.1 19.3 8.2 19.7 8.2 20.0 C 8.2 20.8 7.5 21.4 6.7 21.4 C 6.2 21.4 5.7 21.2 5.2 20.6 Z " transform="scale(1,-1)" stroke-dasharray="20.238562158358313" stroke-dashoffset="20.238562158358313"><animate attributeName="stroke-dashoffset" from="20.238562158358313" to="0" dur="0.6071568647507494s" begin="anim16.end" fill="freeze" id="anim17" /></path><path d="M 18.3 20.5 C 17.7 19.5 16.9 18.5 16.1 17.8 C 15.6 17.4 15.4 16.9 15.4 16.4 C 15.4 15.7 16.0 15.1 16.7 15.1 C 17.1 15.1 17.6 15.3 18.1 15.8 C 19.0 16.6 20.0 17.8 20.8 19.0 C 21.0 19.4 21.1 19.7 21.1 20.1 C 21.1 20.8 20.5 21.4 19.8 21.4 C 19.2 21.4 18.7 21.1 18.3 20.5 Z " transform="scale(1,-1)" stroke-dasharray="17.969400960609665" stroke-dashoffset="17.969400960609665"><animate attributeName="stroke-dashoffset" from="17.969400960609665" to="0" dur="0.5390820288182899s" begin="anim17.end" fill="freeze" id="anim18" /></path><path d="M 25.6 20.9 C 25.2 21.2 24.7 21.4 24.3 21.4 C 23.6 21.4 23.0 20.9 23.0 20.2 C 23.0 19.8 23.1 19.5 23.4 19.1 C 24.1 18.4 24.9 17.4 25.7 16.4 C 26.1 15.9 26.5 15.7 27.0 15.7 C 27.7 15.7 28.4 16.2 28.4 17.1 C 28.4 17.4 28.2 17.9 28.0 18.2 C 27.2 19.2 26.2 20.3 25.6 20.9 Z " transform="scale(1,-1)" stroke-dasharray="16.67083035476127" stroke-dashoffset="16.67083035476127"><animate attributeName="stroke-dashoffset" from="16.67083035476127" to="0" dur="0.5001249106428381s" begin="anim18.end" fill="freeze" id="anim19" /></path><path d="M 38.3 8.7 C 38.0 9.2 37.6 9.3 37.1 9.3 C 36.5 9.3 35.9 8.9 35.9 8.2 C 35.9 8.0 35.9 7.8 36.1 7.5 C 36.7 6.4 37.2 5.2 37.6 4.0 C 37.9 3.2 38.5 3.0 39.0 3.0 C 39.7 3.0 40.4 3.5 40.4 4.4 C 40.4 4.6 40.3 4.9 40.2 5.1 C 39.8 6.2 39.1 7.6 38.3 8.7 Z" transform="scale(1,-1)" stroke-dasharray="16.662459755235016" stroke-dashoffset="16.662459755235016"><animate attributeName="stroke-dashoffset" from="16.662459755235016" to="0" dur="0.49987379265705045s" begin="anim19.end" fill="freeze" id="anim_end" /></path></g></svg>