<?xml version='1.0' encoding='utf-8'?>
<svg viewBox="0 -44.0 50.0 50.0" version="1.1" xmlns="http://www.w3.org/2000/svg"><rect x="-1000" y="-1000" width="2000" height="2000" stroke="white" fill="white" /><g style="fill:none;stroke:#000000;stroke-width:1"><path d="M 15.7 31.0 L 15.7 36.4 L 20.7 36.4 C 21.7 36.4 22.2 37.1 22.2 37.9 C 22.2 38.6 21.7 39.4 20.7 39.4 L 3.2 39.4 C 2.2 39.4 1.8 38.6 1.8 37.9 C 1.8 37.1 2.2 36.4 3.2 36.4 L 8.5 36.4 L 8.5 31.0 L 7.5 31.0 C 4.7 31.0 3.2 30.0 3.2 26.5 L 3.2 2.4 C 3.2 -0.7 4.4 -2.2 7.5 -2.2 L 16.6 -2.2 C 19.4 -2.2 20.9 -1.0 20.9 2.4 L 20.9 26.5 C 20.9 30.0 19.4 31.0 16.6 31.0 Z " transform="scale(1,-1)" stroke-dasharray="136.26868942125324" stroke-dashoffset="136.26868942125324"><animate attributeName="stroke-dashoffset" from="136.26868942125324" to="0" dur="4.088060682637597s" begin="0s; 15s; 30s; 45s; 60s" fill="freeze" id="anim0" /></path><path d="M 15.7 28.2 L 16.5 28.2 C 17.6 28.2 17.9 27.9 17.9 26.1 L 17.9 19.2 C 17.4 19.1 17.1 19.1 16.6 19.1 C 16.0 19.1 15.7 19.2 15.7 20.1 Z " transform="scale(1,-1)" stroke-dasharray="21.703100627331857" stroke-dashoffset="21.703100627331857"><animate attributeName="stroke-dashoffset" from="21.703100627331857" to="0" dur="0.6510930188199556s" begin="anim0.end" fill="freeze" id="anim1" /></path><path d="M 17.9 9.6 L 6.2 9.6 L 6.2 26.1 C 6.2 27.9 6.6 28.2 7.7 28.2 L 8.5 28.2 C 8.5 21.9 7.9 18.4 6.8 16.1 C 6.7 15.9 6.7 15.6 6.7 15.4 C 6.7 14.6 7.2 14.2 7.8 14.2 C 8.2 14.2 8.8 14.5 9.1 15.2 C 10.4 17.7 11.0 21.8 11.1 28.2 L 13.0 28.2 L 13.0 19.6 C 13.0 17.2 14.0 16.3 16.4 16.3 C 16.9 16.3 17.4 16.4 17.9 16.4 Z " transform="scale(1,-1)" stroke-dasharray="86.21468958038369" stroke-dashoffset="86.21468958038369"><animate attributeName="stroke-dashoffset" from="86.21468958038369" to="0" dur="2.5864406874115105s" begin="anim1.end" fill="freeze" id="anim2" /></path><path d="M 13.0 31.0 L 11.1 31.0 L 11.1 36.4 L 13.0 36.4 Z " transform="scale(1,-1)" stroke-dasharray="14.599999999999998" stroke-dashoffset="14.599999999999998"><animate attributeName="stroke-dashoffset" from="14.599999999999998" to="0" dur="0.43799999999999994s" begin="anim2.end" fill="freeze" id="anim3" /></path><path d="M 8.0 0.7 C 6.8 0.7 6.2 1.2 6.2 2.8 L 6.2 6.7 L 17.9 6.7 L 17.9 2.8 C 17.9 1.5 17.5 0.7 16.2 0.7 Z " transform="scale(1,-1)" stroke-dasharray="34.030098864721744" stroke-dashoffset="34.030098864721744"><animate attributeName="stroke-dashoffset" from="34.030098864721744" to="0" dur="1.0209029659416522s" begin="anim3.end" fill="freeze" id="anim4" /></path><path d="M 25.1 0.4 L 22.8 0.4 C 21.9 0.4 21.4 -0.3 21.4 -1.0 C 21.4 -1.7 21.9 -2.4 22.8 -2.4 L 46.5 -2.4 C 47.5 -2.4 47.9 -1.7 47.9 -1.0 C 47.9 -0.3 47.5 0.4 46.5 0.4 L 44.9 0.4 L 44.9 7.5 C 44.9 10.1 43.9 11.4 40.5 11.4 L 29.5 11.4 C 26.1 11.4 25.1 10.1 25.1 7.5 Z " transform="scale(1,-1)" stroke-dasharray="75.39859221997418" stroke-dashoffset="75.39859221997418"><animate attributeName="stroke-dashoffset" from="75.39859221997418" to="0" dur="2.261957766599225s" begin="anim4.end" fill="freeze" id="anim5" /></path><path d="M 39.1 8.7 L 40.2 8.7 C 41.4 8.7 41.8 8.5 41.8 7.1 L 41.8 0.4 L 39.1 0.4 Z " transform="scale(1,-1)" stroke-dasharray="21.5161309106828" stroke-dashoffset="21.5161309106828"><animate attributeName="stroke-dashoffset" from="21.5161309106828" to="0" dur="0.645483927320484s" begin="anim5.end" fill="freeze" id="anim6" /></path><path d="M 36.2 8.7 L 36.2 0.4 L 33.6 0.4 L 33.6 8.7 Z " transform="scale(1,-1)" stroke-dasharray="21.8" stroke-dashoffset="21.8"><animate attributeName="stroke-dashoffset" from="21.8" to="0" dur="0.654s" begin="anim6.end" fill="freeze" id="anim7" /></path><path d="M 30.7 8.7 L 30.7 0.4 L 28.2 0.4 L 28.2 7.2 C 28.2 8.5 28.5 8.7 29.8 8.7 Z " transform="scale(1,-1)" stroke-dasharray="21.152879144717705" stroke-dashoffset="21.152879144717705"><animate attributeName="stroke-dashoffset" from="21.152879144717705" to="0" dur="0.6345863743415311s" begin="anim7.end" fill="freeze" id="anim8" /></path><path d="M 45.8 34.1 C 46.8 34.1 47.2 34.9 47.2 35.6 C 47.2 36.4 46.8 37.1 45.8 37.1 L 36.3 37.1 L 36.3 40.0 C 36.3 41.0 35.5 41.5 34.6 41.5 C 33.8 41.5 33.0 41.0 33.0 40.0 L 33.0 37.1 L 24.5 37.1 C 23.6 37.1 23.1 36.4 23.1 35.6 C 23.1 34.9 23.6 34.1 24.5 34.1 L 30.6 34.1 C 29.8 32.5 28.9 30.8 27.9 29.2 C 27.0 29.1 26.1 29.1 25.2 29.0 C 24.1 29.0 23.5 28.2 23.5 27.4 C 23.5 26.6 24.2 25.8 25.4 25.9 C 30.5 26.2 36.2 26.8 41.8 27.9 C 42.2 27.5 42.5 27.0 42.9 26.5 C 43.3 26.0 43.8 25.7 44.3 25.7 C 45.2 25.7 45.9 26.4 45.9 27.3 C 45.9 27.7 45.8 28.1 45.5 28.5 C 44.2 30.0 42.4 32.0 40.7 33.1 C 40.2 33.4 39.9 33.6 39.5 33.6 C 38.6 33.6 37.9 32.9 37.9 32.1 C 37.9 31.8 38.1 31.5 38.5 31.1 C 38.8 30.8 39.2 30.5 39.5 30.2 C 36.9 29.8 34.1 29.5 31.4 29.4 C 32.5 30.9 33.3 32.5 34.1 34.1 Z " transform="scale(1,-1)" stroke-dasharray="119.79833111161265" stroke-dashoffset="119.79833111161265"><animate attributeName="stroke-dashoffset" from="119.79833111161265" to="0" dur="3.5939499333483793s" begin="anim8.end" fill="freeze" id="anim9" /></path><path d="M 42.7 23.7 C 42.7 24.7 41.9 25.2 41.1 25.2 C 40.3 25.2 39.5 24.7 39.5 23.7 L 39.5 16.6 C 39.5 14.1 40.6 13.2 43.5 13.2 C 46.6 13.2 48.2 14.5 48.4 18.1 C 48.4 19.2 47.7 19.7 46.9 19.7 C 46.2 19.7 45.6 19.3 45.5 18.4 C 45.4 16.5 45.0 16.1 43.8 16.1 C 42.9 16.1 42.7 16.2 42.7 17.1 Z " transform="scale(1,-1)" stroke-dasharray="42.409603410126074" stroke-dashoffset="42.409603410126074"><animate attributeName="stroke-dashoffset" from="42.409603410126074" to="0" dur="1.2722881023037822s" begin="anim9.end" fill="freeze" id="anim10" /></path><path d="M 26.9 23.2 C 26.9 18.7 25.7 16.2 23.4 14.5 C 22.8 14.0 22.6 13.5 22.6 13.0 C 22.6 12.2 23.2 11.4 24.2 11.4 C 24.5 11.4 24.9 11.6 25.3 11.9 C 28.9 14.5 30.1 17.8 30.1 23.2 C 30.1 24.2 29.3 24.8 28.5 24.8 C 27.7 24.8 26.9 24.2 26.9 23.2 Z " transform="scale(1,-1)" stroke-dasharray="33.16381557047261" stroke-dashoffset="33.16381557047261"><animate attributeName="stroke-dashoffset" from="33.16381557047261" to="0" dur="0.9949144671141782s" begin="anim10.end" fill="freeze" id="anim11" /></path><path d="M 33.1 15.4 C 33.1 14.4 34.0 13.9 34.7 13.9 C 35.5 13.9 36.2 14.4 36.2 15.4 L 36.2 22.9 C 36.2 23.9 35.5 24.3 34.7 24.3 C 34.0 24.3 33.1 23.9 33.1 22.9 Z" transform="scale(1,-1)" stroke-dasharray="24.535473517675122" stroke-dashoffset="24.535473517675122"><animate attributeName="stroke-dashoffset" from="24.535473517675122" to="0" dur="0.7360642055302536s" begin="anim11.end" fill="freeze" id="anim_end" /></path></g></svg>