<?xml version='1.0' encoding='utf-8'?>
<svg viewBox="0 -44.0 50.0 50.0" version="1.1" xmlns="http://www.w3.org/2000/svg"><rect x="-1000" y="-1000" width="2000" height="2000" stroke="white" fill="white" /><g style="fill:none;stroke:#000000;stroke-width:1"><path d="M 39.4 25.6 C 43.0 25.6 43.9 26.8 43.9 29.0 L 43.9 31.2 C 43.9 33.4 43.0 34.5 39.4 34.5 L 35.5 34.5 L 35.5 37.0 L 45.2 37.0 C 46.2 37.0 46.7 37.8 46.7 38.5 C 46.7 39.2 46.2 39.9 45.2 39.9 L 15.9 39.9 C 14.9 39.9 14.4 39.2 14.4 38.5 C 14.4 37.8 14.9 37.0 15.9 37.0 L 24.6 37.0 L 24.6 34.5 L 21.2 34.5 C 17.7 34.5 16.8 33.4 16.8 31.2 L 16.8 29.0 C 16.8 26.0 18.7 25.7 21.2 25.6 L 26.1 25.6 C 25.7 24.8 25.2 24.0 24.6 23.2 L 15.2 23.2 C 14.3 23.2 13.9 22.5 13.9 21.8 C 13.9 21.1 14.3 20.3 15.2 20.3 L 22.3 20.3 C 20.1 17.9 17.5 15.8 14.5 14.1 C 13.8 13.7 13.5 13.1 13.5 12.6 C 13.5 11.8 14.1 11.1 15.0 11.1 C 15.3 11.1 15.7 11.2 16.1 11.5 C 18.6 13.0 21.0 14.8 23.1 16.9 C 23.1 16.8 23.1 16.7 23.1 16.6 C 23.1 15.9 23.6 15.2 24.5 15.2 L 31.0 15.2 C 32.2 15.2 32.4 15.0 32.4 14.4 L 32.4 13.3 C 32.4 12.7 32.2 12.5 31.0 12.5 L 24.5 12.5 C 22.0 12.5 20.7 11.6 20.7 9.5 L 20.7 7.1 C 20.7 4.0 21.8 3.2 30.2 3.2 C 39.4 3.2 41.4 4.5 42.1 9.2 C 42.2 10.5 41.3 11.2 40.4 11.2 C 39.7 11.2 38.9 10.7 38.8 9.7 C 38.4 6.7 37.0 6.1 30.2 6.1 C 24.5 6.1 24.1 6.4 24.1 7.6 L 24.1 8.8 C 24.1 9.5 24.2 9.8 25.4 9.8 L 31.7 9.8 C 34.4 9.8 35.7 10.9 35.7 12.7 L 35.7 15.0 C 35.7 16.8 34.5 18.0 31.7 18.0 L 24.5 18.0 C 24.4 18.0 24.3 18.0 24.2 18.0 C 24.9 18.8 25.6 19.5 26.2 20.3 L 33.8 20.3 C 36.8 16.4 41.1 13.2 45.1 11.6 C 45.4 11.5 45.7 11.4 46.0 11.4 C 47.0 11.4 47.6 12.2 47.6 13.0 C 47.6 13.7 47.2 14.4 46.2 14.8 C 43.2 15.8 39.9 17.9 37.5 20.3 L 45.9 20.3 C 46.9 20.3 47.3 21.1 47.3 21.8 C 47.3 22.5 46.9 23.2 45.9 23.2 L 28.3 23.2 C 28.8 24.0 29.2 24.8 29.7 25.6 Z " transform="scale(1,-1)" stroke-dasharray="345.2626201371444" stroke-dashoffset="345.2626201371444"><animate attributeName="stroke-dashoffset" from="345.2626201371444" to="0" dur="10.357878604114331s" begin="0s; 15s; 30s; 45s; 60s" fill="freeze" id="anim0" /></path><path d="M 35.5 31.9 L 38.9 31.9 C 40.2 31.9 40.7 31.6 40.7 30.7 L 40.7 29.4 C 40.7 28.6 40.2 28.2 38.9 28.2 L 35.5 28.2 Z " transform="scale(1,-1)" stroke-dasharray="16.775985662976332" stroke-dashoffset="16.775985662976332"><animate attributeName="stroke-dashoffset" from="16.775985662976332" to="0" dur="0.5032795698892899s" begin="anim0.end" fill="freeze" id="anim1" /></path><path d="M 32.5 37.0 L 32.5 34.5 L 27.6 34.5 L 27.6 37.0 Z " transform="scale(1,-1)" stroke-dasharray="14.799999999999997" stroke-dashoffset="14.799999999999997"><animate attributeName="stroke-dashoffset" from="14.799999999999997" to="0" dur="0.4439999999999999s" begin="anim1.end" fill="freeze" id="anim2" /></path><path d="M 32.5 31.9 L 32.5 28.2 L 27.6 28.2 L 27.6 31.9 Z " transform="scale(1,-1)" stroke-dasharray="17.199999999999996" stroke-dashoffset="17.199999999999996"><animate attributeName="stroke-dashoffset" from="17.199999999999996" to="0" dur="0.5159999999999999s" begin="anim2.end" fill="freeze" id="anim3" /></path><path d="M 24.6 31.9 L 24.6 28.2 L 21.8 28.2 C 20.4 28.2 20.0 28.6 20.0 29.4 L 20.0 30.7 C 20.0 31.6 20.4 31.9 21.8 31.9 Z " transform="scale(1,-1)" stroke-dasharray="15.617203021240268" stroke-dashoffset="15.617203021240268"><animate attributeName="stroke-dashoffset" from="15.617203021240268" to="0" dur="0.468516090637208s" begin="anim3.end" fill="freeze" id="anim4" /></path><path d="M 12.1 16.7 C 12.1 19.5 10.9 20.7 7.7 20.7 L 3.8 20.7 C 2.8 20.7 2.2 19.9 2.2 19.1 C 2.2 18.3 2.8 17.5 3.8 17.5 L 7.0 17.5 C 8.3 17.5 8.7 17.2 8.7 16.1 L 8.7 5.7 C 6.9 3.6 4.9 1.8 2.8 0.3 C 2.0 -0.2 1.7 -0.9 1.7 -1.5 C 1.7 -2.4 2.4 -3.1 3.4 -3.1 C 3.8 -3.1 4.2 -3.0 4.6 -2.7 C 7.0 -0.9 9.0 1.2 10.8 3.4 C 14.5 -0.9 20.4 -2.6 33.2 -2.6 C 38.7 -2.6 42.9 -2.4 46.8 -2.1 C 48.0 -2.0 48.5 -1.1 48.5 -0.3 C 48.5 0.6 47.8 1.5 46.5 1.4 C 42.7 1.0 38.4 0.8 33.1 0.8 C 19.8 0.8 15.2 2.4 12.1 6.2 Z " transform="scale(1,-1)" stroke-dasharray="144.47307367570917" stroke-dashoffset="144.47307367570917"><animate attributeName="stroke-dashoffset" from="144.47307367570917" to="0" dur="4.334192210271275s" begin="anim4.end" fill="freeze" id="anim5" /></path><path d="M 7.5 38.8 C 7.1 39.1 6.7 39.2 6.3 39.2 C 5.4 39.2 4.6 38.4 4.6 37.6 C 4.6 37.1 4.8 36.6 5.4 36.1 C 6.6 35.1 8.2 33.6 9.3 32.1 C 9.8 31.5 10.4 31.2 10.9 31.2 C 11.9 31.2 12.7 32.1 12.7 33.1 C 12.7 33.6 12.5 34.1 12.1 34.6 C 10.9 36.0 9.1 37.6 7.5 38.8 Z" transform="scale(1,-1)" stroke-dasharray="23.892236600461338" stroke-dashoffset="23.892236600461338"><animate attributeName="stroke-dashoffset" from="23.892236600461338" to="0" dur="0.7167670980138401s" begin="anim5.end" fill="freeze" id="anim_end" /></path></g></svg>