<?xml version='1.0' encoding='utf-8'?>
<svg viewBox="0 -44.0 50.0 50.0" version="1.1" xmlns="http://www.w3.org/2000/svg"><rect x="-1000" y="-1000" width="2000" height="2000" stroke="white" fill="white" /><g style="fill:none;stroke:#000000;stroke-width:1"><path d="M 30.5 10.0 C 33.5 10.0 34.9 11.5 34.9 14.2 L 34.9 23.8 C 34.9 26.6 33.5 28.0 30.5 28.0 L 26.7 28.0 C 23.7 28.0 22.3 26.6 22.3 23.8 L 22.3 14.2 C 22.4 11.3 23.8 10.1 26.7 10.0 Z " transform="scale(1,-1)" stroke-dasharray="54.69773539505773" stroke-dashoffset="54.69773539505773"><animate attributeName="stroke-dashoffset" from="54.69773539505773" to="0" dur="1.6409320618517318s" begin="0s; 15s; 30s; 45s; 60s" fill="freeze" id="anim0" /></path><path d="M 27.2 13.0 C 26.1 13.0 25.7 13.6 25.7 14.8 L 25.7 23.2 C 25.7 24.4 26.1 25.0 27.2 25.0 L 29.9 25.0 C 31.1 25.0 31.5 24.4 31.5 23.2 L 31.5 14.8 C 31.5 13.7 31.1 13.1 29.9 13.0 Z " transform="scale(1,-1)" stroke-dasharray="33.15662570173838" stroke-dashoffset="33.15662570173838"><animate attributeName="stroke-dashoffset" from="33.15662570173838" to="0" dur="0.9946987710521513s" begin="anim0.end" fill="freeze" id="anim1" /></path><path d="M 40.1 34.5 L 40.1 2.2 C 40.1 1.1 39.5 0.6 38.2 0.6 C 37.4 0.6 36.6 0.8 35.9 0.9 C 34.6 1.2 33.8 0.2 33.8 -0.8 C 33.8 -1.6 34.2 -2.3 35.3 -2.6 C 36.4 -2.8 37.2 -2.9 38.5 -2.9 C 42.1 -2.9 43.7 -1.4 43.7 1.8 L 43.7 34.5 L 46.9 34.5 C 48.0 34.5 48.5 35.2 48.5 36.1 C 48.5 36.9 48.0 37.6 46.9 37.6 L 21.7 37.6 C 20.7 37.6 20.2 36.9 20.2 36.1 C 20.2 35.2 20.7 34.5 21.7 34.5 Z " transform="scale(1,-1)" stroke-dasharray="143.88907930667307" stroke-dashoffset="143.88907930667307"><animate attributeName="stroke-dashoffset" from="143.88907930667307" to="0" dur="4.316672379200192s" begin="anim1.end" fill="freeze" id="anim2" /></path><path d="M 9.3 40.2 C 5.9 40.2 4.6 38.7 4.6 35.6 L 4.6 -2.4 C 4.6 -3.4 5.5 -4.0 6.4 -4.0 C 7.2 -4.0 8.2 -3.4 8.2 -2.4 L 8.2 35.0 C 8.2 36.4 8.6 37.0 9.9 37.0 L 13.4 37.0 C 14.2 37.0 14.8 36.6 14.8 35.9 C 14.8 35.6 14.7 35.4 14.6 35.1 C 13.8 32.3 12.4 29.0 10.7 26.2 C 10.3 25.5 10.2 24.9 10.2 24.4 C 10.2 23.5 10.6 22.8 11.4 22.0 C 14.1 19.5 15.4 16.7 15.4 13.8 C 15.4 11.0 14.5 9.8 13.1 9.8 C 12.4 9.8 11.8 9.9 11.2 10.1 C 10.0 10.4 9.2 9.3 9.2 8.3 C 9.2 7.6 9.7 6.8 10.6 6.6 C 11.5 6.4 12.4 6.2 13.3 6.2 C 16.7 6.2 18.9 8.8 18.9 13.8 C 18.9 17.7 17.4 21.0 13.4 24.5 C 15.2 27.5 16.9 31.2 18.0 34.6 C 18.2 35.4 18.4 36.1 18.4 36.6 C 18.4 38.9 16.8 40.2 13.9 40.2 Z" transform="scale(1,-1)" stroke-dasharray="184.29743490448647" stroke-dashoffset="184.29743490448647"><animate attributeName="stroke-dashoffset" from="184.29743490448647" to="0" dur="5.528923047134594s" begin="anim2.end" fill="freeze" id="anim_end" /></path></g></svg>