<?xml version='1.0' encoding='utf-8'?>
<svg viewBox="0 -44.0 50.0 50.0" version="1.1" xmlns="http://www.w3.org/2000/svg"><rect x="-1000" y="-1000" width="2000" height="2000" stroke="white" fill="white" /><g style="fill:none;stroke:#000000;stroke-width:1"><path d="M 24.8 18.7 C 30.3 14.5 38.2 10.9 45.5 9.1 C 45.7 9.0 45.9 9.0 46.1 9.0 C 47.2 9.0 47.9 9.8 47.9 10.7 C 47.9 11.4 47.4 12.1 46.3 12.4 C 39.5 13.9 32.0 17.0 26.9 20.5 C 27.0 20.7 27.0 20.8 27.0 21.0 C 27.0 21.7 26.2 22.4 25.3 22.4 C 24.9 22.4 24.5 22.2 24.1 22.0 C 18.6 17.6 10.9 13.8 3.4 11.6 C 2.4 11.2 2.0 10.7 2.0 10.0 C 2.0 9.2 2.6 8.5 3.6 8.5 C 3.8 8.5 4.0 8.6 4.2 8.6 C 11.5 10.7 18.9 14.4 24.8 18.7 Z " transform="scale(1,-1)" stroke-dasharray="105.90345898421411" stroke-dashoffset="105.90345898421411"><animate attributeName="stroke-dashoffset" from="105.90345898421411" to="0" dur="3.1771037695264233s" begin="0s; 15s; 30s; 45s; 60s" fill="freeze" id="anim0" /></path><path d="M 43.2 21.2 C 45.7 21.2 46.7 22.2 46.7 24.0 L 46.7 26.4 C 46.7 28.2 45.7 29.2 43.2 29.2 L 30.0 29.2 C 27.5 29.2 26.5 28.2 26.5 26.4 L 26.5 24.0 C 26.6 21.8 28.0 21.3 30.0 21.2 Z " transform="scale(1,-1)" stroke-dasharray="51.71890076417395" stroke-dashoffset="51.71890076417395"><animate attributeName="stroke-dashoffset" from="51.71890076417395" to="0" dur="1.5515670229252185s" begin="anim0.end" fill="freeze" id="anim1" /></path><path d="M 35.1 27.0 L 38.0 27.0 L 38.0 23.5 L 35.1 23.5 Z " transform="scale(1,-1)" stroke-dasharray="12.799999999999997" stroke-dashoffset="12.799999999999997"><animate attributeName="stroke-dashoffset" from="12.799999999999997" to="0" dur="0.3839999999999999s" begin="anim1.end" fill="freeze" id="anim2" /></path><path d="M 32.4 27.0 L 32.4 23.5 L 30.4 23.5 C 29.6 23.5 29.4 23.8 29.4 24.4 L 29.4 26.0 C 29.4 26.7 29.6 27.0 30.4 27.0 Z " transform="scale(1,-1)" stroke-dasharray="12.339608178345488" stroke-dashoffset="12.339608178345488"><animate attributeName="stroke-dashoffset" from="12.339608178345488" to="0" dur="0.3701882453503646s" begin="anim2.end" fill="freeze" id="anim3" /></path><path d="M 40.7 23.5 L 40.7 27.0 L 42.8 27.0 C 43.6 27.0 43.8 26.7 43.8 26.0 L 43.8 24.4 C 43.8 23.7 43.5 23.5 42.8 23.5 Z " transform="scale(1,-1)" stroke-dasharray="12.541493906903725" stroke-dashoffset="12.541493906903725"><animate attributeName="stroke-dashoffset" from="12.541493906903725" to="0" dur="0.3762448172071117s" begin="anim3.end" fill="freeze" id="anim4" /></path><path d="M 16.0 26.6 L 19.6 26.6 C 21.9 26.6 22.7 27.5 22.7 29.2 L 22.7 31.8 C 22.7 33.6 21.9 34.6 19.6 34.6 L 16.0 34.6 L 16.0 37.4 L 23.0 37.4 C 23.9 37.4 24.4 38.1 24.4 38.8 C 24.4 39.5 23.9 40.1 23.0 40.1 L 8.5 40.1 C 5.2 40.1 4.1 39.1 4.1 36.4 L 4.1 24.7 C 4.1 22.0 5.2 21.0 8.5 21.0 L 21.2 21.0 C 22.2 21.0 22.6 21.7 22.6 22.3 C 22.6 23.0 22.2 23.7 21.2 23.7 L 16.0 23.7 Z " transform="scale(1,-1)" stroke-dasharray="98.30213110993849" stroke-dashoffset="98.30213110993849"><animate attributeName="stroke-dashoffset" from="98.30213110993849" to="0" dur="2.9490639332981545s" begin="anim4.end" fill="freeze" id="anim5" /></path><path d="M 7.4 34.6 L 7.4 36.0 C 7.4 37.1 7.7 37.4 9.1 37.4 L 12.8 37.4 L 12.8 34.6 Z " transform="scale(1,-1)" stroke-dasharray="15.927348021947385" stroke-dashoffset="15.927348021947385"><animate attributeName="stroke-dashoffset" from="15.927348021947385" to="0" dur="0.4778204406584215s" begin="anim5.end" fill="freeze" id="anim6" /></path><path d="M 7.4 32.0 L 18.9 32.0 C 19.6 32.0 19.8 31.8 19.8 31.2 L 19.8 29.9 C 19.8 29.3 19.6 29.1 18.9 29.1 L 7.4 29.1 Z " transform="scale(1,-1)" stroke-dasharray="30.04309054460441" stroke-dashoffset="30.04309054460441"><animate attributeName="stroke-dashoffset" from="30.04309054460441" to="0" dur="0.9012927163381322s" begin="anim6.end" fill="freeze" id="anim7" /></path><path d="M 7.4 26.6 L 12.8 26.6 L 12.8 23.7 L 9.1 23.7 C 7.7 23.7 7.4 24.0 7.4 25.1 Z " transform="scale(1,-1)" stroke-dasharray="16.127348021947395" stroke-dashoffset="16.127348021947395"><animate attributeName="stroke-dashoffset" from="16.127348021947395" to="0" dur="0.48382044065842184s" begin="anim7.end" fill="freeze" id="anim8" /></path><path d="M 46.4 35.8 C 47.2 35.8 47.7 36.5 47.7 37.1 C 47.7 37.9 47.2 38.5 46.4 38.5 L 31.7 38.5 C 31.9 39.0 32.1 39.4 32.2 39.8 C 32.4 40.1 32.4 40.2 32.4 40.5 C 32.4 41.3 31.6 41.9 30.9 41.9 C 30.2 41.9 29.7 41.6 29.4 40.9 C 28.5 38.8 26.8 36.1 25.4 34.5 C 25.0 34.0 24.8 33.6 24.8 33.2 C 24.8 32.4 25.5 31.9 26.2 31.9 C 26.8 31.9 27.3 32.1 27.8 32.6 C 28.5 33.5 29.4 34.6 30.1 35.8 Z " transform="scale(1,-1)" stroke-dasharray="58.40805822041468" stroke-dashoffset="58.40805822041468"><animate attributeName="stroke-dashoffset" from="58.40805822041468" to="0" dur="1.7522417466124403s" begin="anim8.end" fill="freeze" id="anim9" /></path><path d="M 23.2 10.9 L 23.2 8.1 L 10.2 8.1 C 9.2 8.1 8.8 7.4 8.8 6.7 C 8.8 6.1 9.2 5.4 10.2 5.4 L 23.2 5.4 L 23.2 -0.2 L 18.5 -0.2 C 18.7 0.0 18.8 0.2 18.8 0.6 C 18.8 0.9 18.7 1.2 18.4 1.7 C 17.9 2.6 17.3 3.3 16.7 4.0 C 16.2 4.5 15.7 4.8 15.2 4.8 C 14.3 4.8 13.6 4.2 13.6 3.4 C 13.6 3.1 13.7 2.7 13.9 2.4 C 14.5 1.6 15.0 0.9 15.6 -0.1 C 15.6 -0.2 15.6 -0.2 15.7 -0.2 L 5.7 -0.2 C 4.8 -0.2 4.3 -1.0 4.3 -1.7 C 4.3 -2.4 4.8 -3.1 5.7 -3.1 L 44.3 -3.1 C 45.2 -3.1 45.7 -2.4 45.7 -1.7 C 45.7 -1.0 45.2 -0.2 44.3 -0.2 L 34.0 -0.2 C 34.7 0.7 35.4 1.7 35.8 2.6 C 36.0 2.9 36.0 3.2 36.0 3.4 C 36.0 4.3 35.2 4.9 34.5 4.9 C 33.9 4.9 33.3 4.6 33.0 3.9 C 32.5 2.9 31.9 2.1 31.2 1.2 C 31.1 0.9 31.0 0.6 31.0 0.3 C 31.0 0.1 31.0 -0.1 31.1 -0.2 L 26.5 -0.2 L 26.5 5.4 L 39.9 5.4 C 40.8 5.4 41.2 6.1 41.2 6.7 C 41.2 7.4 40.8 8.1 39.9 8.1 L 26.5 8.1 L 26.5 10.9 L 30.8 10.9 C 31.7 10.9 32.1 11.6 32.1 12.2 C 32.1 12.9 31.7 13.6 30.8 13.6 L 18.8 13.6 C 17.9 13.6 17.4 12.9 17.4 12.2 C 17.4 11.6 17.9 10.9 18.8 10.9 Z " transform="scale(1,-1)" stroke-dasharray="211.06798732675975" stroke-dashoffset="211.06798732675975"><animate attributeName="stroke-dashoffset" from="211.06798732675975" to="0" dur="6.332039619802792s" begin="anim9.end" fill="freeze" id="anim10" /></path><path d="M 42.7 31.2 C 43.6 31.2 44.0 31.8 44.0 32.5 C 44.0 33.1 43.6 33.8 42.7 33.8 L 31.2 33.8 C 30.5 33.8 30.0 33.1 30.0 32.5 C 30.0 31.8 30.5 31.2 31.2 31.2 Z" transform="scale(1,-1)" stroke-dasharray="31.058396578238163" stroke-dashoffset="31.058396578238163"><animate attributeName="stroke-dashoffset" from="31.058396578238163" to="0" dur="0.9317518973471448s" begin="anim10.end" fill="freeze" id="anim_end" /></path></g></svg>