<?xml version='1.0' encoding='utf-8'?>
<svg viewBox="0 -44.0 50.0 50.0" version="1.1" xmlns="http://www.w3.org/2000/svg"><rect x="-1000" y="-1000" width="2000" height="2000" stroke="white" fill="white" /><g style="fill:none;stroke:#000000;stroke-width:1"><path d="M 27.5 20.0 C 27.9 20.2 28.1 20.7 28.1 21.2 C 28.1 21.6 28.0 22.0 27.8 22.4 C 27.2 23.2 26.6 24.2 25.8 25.2 C 25.4 25.7 24.8 25.9 24.4 25.9 C 23.6 25.9 22.8 25.3 22.8 24.5 C 22.8 24.2 23.0 23.9 23.2 23.5 C 23.9 22.5 24.5 21.6 24.9 20.8 C 25.1 20.4 25.2 20.2 25.5 20.0 L 19.0 20.0 C 18.1 20.0 17.6 19.2 17.6 18.5 C 17.6 17.8 18.1 17.0 19.0 17.0 L 29.3 17.0 L 29.3 12.6 L 16.7 12.6 C 15.8 12.6 15.3 11.8 15.3 11.1 C 15.3 10.3 15.8 9.6 16.7 9.6 L 29.3 9.6 L 29.3 4.2 C 29.3 3.2 30.2 2.6 31.0 2.6 C 31.9 2.6 32.7 3.2 32.7 4.2 L 32.7 9.6 L 45.7 9.6 C 46.7 9.6 47.1 10.3 47.1 11.1 C 47.1 11.8 46.7 12.6 45.7 12.6 L 32.7 12.6 L 32.7 17.0 L 43.8 17.0 C 44.8 17.0 45.2 17.8 45.2 18.5 C 45.2 19.2 44.8 20.0 43.8 20.0 L 36.8 20.0 C 37.4 21.0 38.0 22.1 38.6 23.4 C 38.8 23.7 38.9 24.1 38.9 24.4 C 38.9 25.2 38.1 25.8 37.2 25.8 C 36.6 25.8 35.9 25.4 35.5 24.5 C 34.9 23.0 34.2 21.5 33.4 20.0 Z " transform="scale(1,-1)" stroke-dasharray="165.13540897970904" stroke-dashoffset="165.13540897970904"><animate attributeName="stroke-dashoffset" from="165.13540897970904" to="0" dur="4.9540622693912715s" begin="0s; 15s; 30s; 45s; 60s" fill="freeze" id="anim0" /></path><path d="M 12.8 14.0 C 12.8 16.7 11.6 18.0 8.2 18.0 L 4.0 18.0 C 3.1 18.0 2.6 17.2 2.6 16.4 C 2.6 15.6 3.1 14.8 4.0 14.8 L 7.4 14.8 C 9.0 14.8 9.3 14.6 9.3 13.5 L 9.3 6.0 C 7.4 3.6 5.0 1.7 2.8 0.2 C 2.0 -0.2 1.7 -0.9 1.7 -1.5 C 1.7 -2.4 2.4 -3.2 3.4 -3.2 C 3.8 -3.2 4.2 -3.1 4.6 -2.8 C 7.2 -1.0 9.5 1.2 11.3 3.4 C 14.9 -0.8 20.2 -2.4 32.5 -2.4 C 38.0 -2.4 42.2 -2.2 46.5 -1.9 C 47.6 -1.8 48.1 -0.9 48.1 -0.1 C 48.1 0.9 47.5 1.8 46.1 1.7 C 41.9 1.4 37.9 1.2 32.3 1.2 C 19.9 1.2 15.6 2.7 12.8 6.2 Z " transform="scale(1,-1)" stroke-dasharray="138.5477147284119" stroke-dashoffset="138.5477147284119"><animate attributeName="stroke-dashoffset" from="138.5477147284119" to="0" dur="4.156431441852357s" begin="anim0.end" fill="freeze" id="anim1" /></path><path d="M 32.7 29.5 L 32.7 33.8 L 42.4 33.8 C 43.4 33.8 43.8 34.5 43.8 35.2 C 43.8 36.0 43.4 36.8 42.4 36.8 L 32.7 36.8 L 32.7 40.5 C 32.7 41.6 31.9 42.1 31.0 42.1 C 30.2 42.1 29.3 41.6 29.3 40.5 L 29.3 36.8 L 20.4 36.8 C 19.5 36.8 18.9 36.0 18.9 35.2 C 18.9 34.5 19.5 33.8 20.4 33.8 L 29.3 33.8 L 29.3 29.5 L 16.6 29.5 C 15.6 29.5 15.1 28.8 15.1 28.0 C 15.1 27.2 15.6 26.5 16.6 26.5 L 45.9 26.5 C 46.9 26.5 47.3 27.2 47.3 28.0 C 47.3 28.8 46.9 29.5 45.9 29.5 Z " transform="scale(1,-1)" stroke-dasharray="132.4321111956276" stroke-dashoffset="132.4321111956276"><animate attributeName="stroke-dashoffset" from="132.4321111956276" to="0" dur="3.9729633358688283s" begin="anim1.end" fill="freeze" id="anim2" /></path><path d="M 9.1 40.4 C 8.7 40.6 8.3 40.7 8.0 40.7 C 7.1 40.7 6.4 40.0 6.4 39.2 C 6.4 38.6 6.7 38.1 7.3 37.6 C 8.8 36.7 9.8 35.9 11.4 34.4 C 11.8 34.0 12.3 33.8 12.8 33.8 C 13.7 33.8 14.4 34.5 14.4 35.5 C 14.4 36.0 14.2 36.6 13.7 37.1 C 12.1 38.5 10.8 39.5 9.1 40.4 Z " transform="scale(1,-1)" stroke-dasharray="22.33620322366024" stroke-dashoffset="22.33620322366024"><animate attributeName="stroke-dashoffset" from="22.33620322366024" to="0" dur="0.6700860967098072s" begin="anim2.end" fill="freeze" id="anim3" /></path><path d="M 6.2 30.2 C 5.9 30.5 5.5 30.6 5.2 30.6 C 4.2 30.6 3.5 29.8 3.5 29.0 C 3.5 28.5 3.8 27.9 4.5 27.5 C 6.0 26.6 6.9 25.8 8.5 24.2 C 9.0 23.8 9.5 23.6 9.9 23.6 C 10.8 23.6 11.6 24.4 11.6 25.3 C 11.6 25.8 11.4 26.4 10.8 26.9 C 9.2 28.4 7.9 29.4 6.2 30.2 Z" transform="scale(1,-1)" stroke-dasharray="22.521117888044586" stroke-dashoffset="22.521117888044586"><animate attributeName="stroke-dashoffset" from="22.521117888044586" to="0" dur="0.6756335366413375s" begin="anim3.end" fill="freeze" id="anim_end" /></path></g></svg>