<?xml version='1.0' encoding='utf-8'?>
<svg viewBox="0 -44.0 50.0 50.0" version="1.1" xmlns="http://www.w3.org/2000/svg"><rect x="-1000" y="-1000" width="2000" height="2000" stroke="white" fill="white" /><g style="fill:none;stroke:#000000;stroke-width:1"><path d="M 17.3 19.0 C 17.3 28.2 13.2 36.1 5.2 42.8 C 4.9 43.1 4.6 43.2 4.1 43.2 C 3.4 43.2 2.8 42.6 2.8 41.9 C 2.8 41.4 3.0 41.0 3.2 40.8 C 10.6 34.4 13.7 27.5 13.7 19.0 C 13.7 10.6 10.6 3.6 3.2 -2.8 C 3.0 -3.0 2.8 -3.4 2.8 -3.9 C 2.8 -4.5 3.4 -5.2 4.1 -5.2 C 4.6 -5.2 4.9 -5.1 5.2 -4.8 C 13.2 1.9 17.3 9.8 17.3 19.0 Z" transform="scale(1,-1)" stroke-dasharray="114.22292342482604" stroke-dashoffset="114.22292342482604"><animate attributeName="stroke-dashoffset" from="114.22292342482604" to="0" dur="3.426687702744781s" begin="0s; 15s; 30s; 45s; 60s" fill="freeze" id="anim0" /></path></g></svg>