<?xml version='1.0' encoding='utf-8'?>
<svg viewBox="0.0 -6.0 50.0 50.0" version="1.1" xmlns="http://www.w3.org/2000/svg"><rect x="-1000" y="-1000" width="2000" height="2000" stroke="white" fill="white" /><g style="fill:none;stroke:#000000;stroke-width:1"><path d="M 29.6 -3.2 L 18.6 -34.8 C 18.2 -35.7 17.7 -36.0 17.0 -36.0 C 16.3 -36.0 15.8 -35.7 15.4 -34.8 L 4.2 -3.2 " transform="translate(0.0 38.0)" stroke-dasharray="71.27012083669116" stroke-dashoffset="71.27012083669116"><animate attributeName="stroke-dashoffset" from="71.27012083669116" to="0" dur="2.138103625100735s" begin="0s; anim_end.end" fill="freeze" id="anim0" /></path><path d="M 9.3 -15.7 L 24.7 -15.7 " transform="translate(0.0 38.0)" stroke-dasharray="15.399999999999999" stroke-dashoffset="15.399999999999999"><animate attributeName="stroke-dashoffset" from="15.399999999999999" to="0" dur="0.46199999999999997s" begin="anim0.end" fill="freeze" id="anim1" /></path><path d="M 12.5 -42.6 C 13.3 -42.6 13.9 -43.2 13.9 -44.1 C 13.9 -44.9 13.3 -45.5 12.5 -45.5 C 11.7 -45.5 11.1 -44.9 11.1 -44.1 C 11.1 -43.2 11.7 -42.6 12.5 -42.6 Z " transform="translate(0.0 38.0)" stroke-dasharray="9.02232666077559" stroke-dashoffset="9.02232666077559"><animate attributeName="stroke-dashoffset" from="9.02232666077559" to="0" dur="0.2706697998232677s" begin="anim1.end" fill="freeze" id="anim2" /></path><path d="M 22.1 -42.6 C 22.9 -42.6 23.5 -43.2 23.5 -44.1 C 23.5 -44.9 22.9 -45.5 22.1 -45.5 C 21.2 -45.5 20.6 -44.9 20.6 -44.1 C 20.6 -43.2 21.2 -42.6 22.1 -42.6 Z" transform="translate(0.0 38.0)" stroke-dasharray="9.199441415722422" stroke-dashoffset="9.199441415722422"><animate attributeName="stroke-dashoffset" from="9.199441415722422" to="0" dur="0.27598324247167266s" begin="anim2.end" fill="freeze" id="anim_end" /></path></g></svg>