<?xml version='1.0' encoding='utf-8'?>
<svg viewBox="0.0 -6.0 50.0 50.0" version="1.1" xmlns="http://www.w3.org/2000/svg"><rect x="-1000" y="-1000" width="2000" height="2000" stroke="white" fill="white" /><g style="fill:none;stroke:#000000;stroke-width:1"><path d="M 21.9 -1.5 C 31.9 -1.5 39.8 -9.4 39.8 -19.3 C 39.8 -29.2 31.9 -37.1 21.9 -37.1 C 12.0 -37.1 4.2 -29.2 4.2 -19.3 C 4.2 -9.4 12.0 -1.5 21.9 -1.5 Z " transform="translate(0.0 38.0)" stroke-dasharray="112.02089191308207" stroke-dashoffset="112.02089191308207"><animate attributeName="stroke-dashoffset" from="112.02089191308207" to="0" dur="3.360626757392462s" begin="0s; 15s; 30s; 45s" fill="freeze" id="anim0" /></path><path d="M 16.6 -9.9 L 16.6 -26.9 C 16.6 -28.4 17.1 -29.6 18.9 -29.6 C 20.8 -29.6 20.2 -29.6 23.2 -29.6 C 27.1 -29.6 29.1 -27.9 29.1 -24.7 C 29.1 -21.9 26.9 -19.6 23.1 -19.6 L 16.8 -19.6 " transform="translate(0.0 38.0)" stroke-dasharray="49.256149287694534" stroke-dashoffset="49.256149287694534"><animate attributeName="stroke-dashoffset" from="49.256149287694534" to="0" dur="1.4776844786308359s" begin="anim0.end" fill="freeze" id="anim1" /></path><path d="M 24.5 -19.5 L 30.1 -9.7" transform="translate(0.0 38.0)" stroke-dasharray="11.28716084761797" stroke-dashoffset="11.28716084761797"><animate attributeName="stroke-dashoffset" from="11.28716084761797" to="0" dur="0.3386148254285391s" begin="anim1.end" fill="freeze" id="anim_end" /></path></g></svg>