<?xml version='1.0' encoding='utf-8'?>
<svg viewBox="0.0 -6.0 50.0 50.0" version="1.1" xmlns="http://www.w3.org/2000/svg"><rect x="-1000" y="-1000" width="2000" height="2000" stroke="white" fill="white" /><g style="fill:none;stroke:#000000;stroke-width:1"><path d="M 8.9 -42.0 C 4.5 -34.4 2.8 -27.6 2.8 -19.0 C 2.8 -10.4 4.6 -3.6 9.1 4.0 " transform="translate(0.0 38.0)" stroke-dasharray="48.27466542197335" stroke-dashoffset="48.27466542197335"><animate attributeName="stroke-dashoffset" from="48.27466542197335" to="0" dur="1.4482399626592006s" begin="0s" fill="freeze" /></path><path d="M 41.0 -42.0 C 45.4 -34.5 47.2 -27.6 47.2 -19.0 C 47.2 -10.4 45.4 -3.6 40.9 4.0 " transform="translate(0.0 38.0)" stroke-dasharray="48.30439953283786" stroke-dashoffset="48.30439953283786"><animate attributeName="stroke-dashoffset" from="48.30439953283786" to="0" dur="1.449131985985136s" begin="1.4482399626592006s" fill="freeze" /></path><path d="M 11.6 -29.1 L 16.1 -9.2 C 16.4 -8.0 16.9 -7.7 17.6 -7.7 C 18.1 -7.7 18.8 -8.0 19.1 -9.2 L 23.6 -26.9 C 23.9 -27.9 24.2 -28.2 24.8 -28.2 C 25.1 -28.2 25.6 -28.0 25.9 -27.1 L 30.2 -9.2 C 30.6 -8.0 31.1 -7.7 31.9 -7.7 C 32.5 -7.7 33.0 -8.0 33.4 -9.2 L 38.3 -29.2" transform="translate(0.0 38.0)" stroke-dasharray="90.65081681910902" stroke-dashoffset="90.65081681910902"><animate attributeName="stroke-dashoffset" from="90.65081681910902" to="0" dur="2.7195245045732706s" begin="2.8973719486443366s" fill="freeze" /></path></g></svg>