<?xml version='1.0' encoding='utf-8'?>
<svg viewBox="0.0 -6.0 50.0 50.0" version="1.1" xmlns="http://www.w3.org/2000/svg"><rect x="-1000" y="-1000" width="2000" height="2000" stroke="white" fill="white" /><g style="fill:none;stroke:#000000;stroke-width:1"><path d="M 16.6 0.6 L 33.4 0.6 C 37.5 0.6 38.7 -0.8 38.7 -4.1 L 38.7 -28.9 C 38.7 -32.2 37.5 -33.5 33.4 -33.5 L 16.6 -33.5 C 12.5 -33.5 11.3 -32.2 11.3 -28.9 L 11.3 -4.1 C 11.3 -0.8 12.5 0.6 16.6 0.6 Z " transform="translate(0.0 38.0)" stroke-dasharray="116.26518852316843" stroke-dashoffset="116.26518852316843"><animate attributeName="stroke-dashoffset" from="116.26518852316843" to="0" dur="3.487955655695053s" begin="0s; 15s; 30s; 45s" fill="freeze" id="anim0" /></path><path d="M 38.4 -11.4 L 11.8 -11.4 " transform="translate(0.0 38.0)" stroke-dasharray="26.599999999999998" stroke-dashoffset="26.599999999999998"><animate attributeName="stroke-dashoffset" from="26.599999999999998" to="0" dur="0.7979999999999999s" begin="anim0.end" fill="freeze" id="anim1" /></path><path d="M 38.4 -22.5 L 11.8 -22.5 " transform="translate(0.0 38.0)" stroke-dasharray="26.599999999999998" stroke-dashoffset="26.599999999999998"><animate attributeName="stroke-dashoffset" from="26.599999999999998" to="0" dur="0.7979999999999999s" begin="anim1.end" fill="freeze" id="anim2" /></path><path d="M 22.6 -34.1 C 23.5 -36.0 24.3 -38.0 25.0 -40.3" transform="translate(0.0 38.0)" stroke-dasharray="6.654457583650398" stroke-dashoffset="6.654457583650398"><animate attributeName="stroke-dashoffset" from="6.654457583650398" to="0" dur="0.19963372750951194s" begin="anim2.end" fill="freeze" id="anim_end" /></path></g></svg>