<?xml version='1.0' encoding='utf-8'?>
<svg viewBox="0.0 -6.0 50.0 50.0" version="1.1" xmlns="http://www.w3.org/2000/svg"><rect x="-1000" y="-1000" width="2000" height="2000" stroke="white" fill="white" /><g style="fill:none;stroke:#000000;stroke-width:1"><path d="M 5.1 -28.9 C 11.1 -29.4 19.0 -29.8 26.7 -30.1 L 27.1 -30.1 C 33.3 -30.3 39.3 -30.4 44.1 -30.4 " transform="translate(0.0 38.0)" stroke-dasharray="39.03822296449226" stroke-dashoffset="39.03822296449226"><animate attributeName="stroke-dashoffset" from="39.03822296449226" to="0" dur="1.171146688934768s" begin="0s; 15s; 30s; 45s" fill="freeze" id="anim0" /></path><path d="M 22.6 -8.8 C 24.0 -8.8 28.6 -10.4 28.6 -14.3 C 28.6 -19.1 25.6 -21.5 21.8 -21.5 C 18.9 -21.5 16.7 -19.0 16.7 -15.7 C 16.7 -11.4 19.4 -8.8 22.6 -8.8 Z " transform="translate(0.0 38.0)" stroke-dasharray="38.85150182400819" stroke-dashoffset="38.85150182400819"><animate attributeName="stroke-dashoffset" from="38.85150182400819" to="0" dur="1.1655450547202457s" begin="anim0.end" fill="freeze" id="anim1" /></path><path d="M 37.8 -39.9 C 38.9 -38.5 39.8 -36.8 40.5 -35.0 " transform="translate(0.0 38.0)" stroke-dasharray="5.614594113398773" stroke-dashoffset="5.614594113398773"><animate attributeName="stroke-dashoffset" from="5.614594113398773" to="0" dur="0.1684378234019632s" begin="anim1.end" fill="freeze" id="anim2" /></path><path d="M 46.5 -37.1 C 45.7 -38.9 44.5 -40.8 43.5 -42.0 " transform="translate(0.0 38.0)" stroke-dasharray="5.761303183909211" stroke-dashoffset="5.761303183909211"><animate attributeName="stroke-dashoffset" from="5.761303183909211" to="0" dur="0.17283909551727633s" begin="anim2.end" fill="freeze" id="anim3" /></path><path d="M 26.9 -39.5 C 26.9 -36.5 26.9 -34.0 26.9 -31.9 L 26.9 -29.8 C 26.9 -26.8 27.0 -22.3 27.2 -19.2 C 28.0 -17.9 28.9 -16.1 28.9 -13.2 C 28.9 -7.5 27.1 -1.9 20.1 1.7" transform="translate(0.0 38.0)" stroke-dasharray="44.98278881418838" stroke-dashoffset="44.98278881418838"><animate attributeName="stroke-dashoffset" from="44.98278881418838" to="0" dur="1.3494836644256514s" begin="anim3.end" fill="freeze" id="anim_end" /></path></g></svg>