<?xml version='1.0' encoding='utf-8'?>
<svg viewBox="0.0 -6.0 50.0 50.0" version="1.1" xmlns="http://www.w3.org/2000/svg"><rect x="-1000" y="-1000" width="2000" height="2000" stroke="white" fill="white" /><g style="fill:none;stroke:#000000;stroke-width:1"><path d="M 13.2 -3.9 L 13.2 -23.4 " transform="translate(0.0 38.0)" stroke-dasharray="19.5" stroke-dashoffset="19.5"><animate attributeName="stroke-dashoffset" from="19.5" to="0" dur="0.585s" begin="0s; 15s; 30s; 45s" fill="freeze" id="anim0" /></path><path d="M 18.6 -7.7 C 21.8 -9.1 24.4 -11.2 26.6 -14.1 " transform="translate(0.0 38.0)" stroke-dasharray="10.361448401298606" stroke-dashoffset="10.361448401298606"><animate attributeName="stroke-dashoffset" from="10.361448401298606" to="0" dur="0.3108434520389582s" begin="anim0.end" fill="freeze" id="anim1" /></path><path d="M 18.1 -3.8 C 23.9 -4.3 29.6 -6.6 32.9 -9.4 C 34.0 -10.4 33.4 -11.4 32.0 -11.4 L 24.6 -11.4 " transform="translate(0.0 38.0)" stroke-dasharray="26.615935027051627" stroke-dashoffset="26.615935027051627"><animate attributeName="stroke-dashoffset" from="26.615935027051627" to="0" dur="0.7984780508115488s" begin="anim1.end" fill="freeze" id="anim2" /></path><path d="M 19.2 -14.3 C 20.0 -15.2 20.7 -16.2 21.2 -17.2 " transform="translate(0.0 38.0)" stroke-dasharray="3.5326784448598114" stroke-dashoffset="3.5326784448598114"><animate attributeName="stroke-dashoffset" from="3.5326784448598114" to="0" dur="0.10598035334579434s" begin="anim2.end" fill="freeze" id="anim3" /></path><path d="M 8.9 -19.2 C 11.2 -22.8 13.7 -28.4 14.8 -33.4 " transform="translate(0.0 38.0)" stroke-dasharray="15.445660088362956" stroke-dashoffset="15.445660088362956"><animate attributeName="stroke-dashoffset" from="15.445660088362956" to="0" dur="0.4633698026508887s" begin="anim3.end" fill="freeze" id="anim4" /></path><path d="M 38.2 -4.3 C 31.5 -4.8 27.4 -6.7 23.4 -10.4 " transform="translate(0.0 38.0)" stroke-dasharray="16.36452553057283" stroke-dashoffset="16.36452553057283"><animate attributeName="stroke-dashoffset" from="16.36452553057283" to="0" dur="0.4909357659171849s" begin="anim4.end" fill="freeze" id="anim5" /></path><path d="M 32.6 -16.5 C 32.4 -15.0 31.6 -14.4 28.5 -14.4 C 25.1 -14.4 24.4 -14.8 24.4 -15.9 L 24.4 -17.9 " transform="translate(0.0 38.0)" stroke-dasharray="12.02973598541644" stroke-dashoffset="12.02973598541644"><animate attributeName="stroke-dashoffset" from="12.02973598541644" to="0" dur="0.3608920795624932s" begin="anim5.end" fill="freeze" id="anim6" /></path><path d="M 39.0 -17.4 L 39.0 -18.9 C 39.0 -20.1 38.5 -20.6 36.9 -20.6 L 19.5 -20.6 C 17.9 -20.6 17.4 -19.9 17.4 -18.6 L 17.4 -17.1 " transform="translate(0.0 38.0)" stroke-dasharray="26.9214424636879" stroke-dashoffset="26.9214424636879"><animate attributeName="stroke-dashoffset" from="26.9214424636879" to="0" dur="0.807643273910637s" begin="anim6.end" fill="freeze" id="anim7" /></path><path d="M 37.0 -15.1 C 36.5 -15.9 35.8 -16.8 35.2 -17.4 " transform="translate(0.0 38.0)" stroke-dasharray="2.9260522231370376" stroke-dashoffset="2.9260522231370376"><animate attributeName="stroke-dashoffset" from="2.9260522231370376" to="0" dur="0.08778156669411112s" begin="anim7.end" fill="freeze" id="anim8" /></path><path d="M 34.5 -20.6 L 34.5 -27.6 C 34.5 -28.8 34.1 -29.4 32.3 -29.4 L 24.1 -29.4 C 22.3 -29.4 21.8 -28.8 21.8 -27.6 L 21.8 -20.6 " transform="translate(0.0 38.0)" stroke-dasharray="28.925517074381077" stroke-dashoffset="28.925517074381077"><animate attributeName="stroke-dashoffset" from="28.925517074381077" to="0" dur="0.8677655122314323s" begin="anim8.end" fill="freeze" id="anim9" /></path><path d="M 26.9 -29.2 C 27.4 -30.4 27.8 -31.6 28.2 -33.0 " transform="translate(0.0 38.0)" stroke-dasharray="4.018578167283622" stroke-dashoffset="4.018578167283622"><animate attributeName="stroke-dashoffset" from="4.018578167283622" to="0" dur="0.12055734501850866s" begin="anim9.end" fill="freeze" id="anim10" /></path><path d="M 38.0 -32.8 L 18.8 -32.8 " transform="translate(0.0 38.0)" stroke-dasharray="19.2" stroke-dashoffset="19.2"><animate attributeName="stroke-dashoffset" from="19.2" to="0" dur="0.576s" begin="anim10.end" fill="freeze" id="anim11" /></path><path d="M 25.0 4.0 C 12.3 4.0 1.9 -6.3 1.9 -19.1 C 1.9 -31.8 12.3 -42.1 25.0 -42.1 C 37.8 -42.1 48.0 -31.8 48.0 -19.1 C 48.0 -6.3 37.8 4.0 25.0 4.0 Z " transform="translate(0.0 38.0)" stroke-dasharray="144.88245316471753" stroke-dashoffset="144.88245316471753"><animate attributeName="stroke-dashoffset" from="144.88245316471753" to="0" dur="4.346473594941526s" begin="anim11.end" fill="freeze" id="anim12" /></path><path d="M 27.4 -18.4 C 28.1 -17.9 28.8 -17.4 29.4 -16.9 " transform="translate(0.0 38.0)" stroke-dasharray="2.5005874246517914" stroke-dashoffset="2.5005874246517914"><animate attributeName="stroke-dashoffset" from="2.5005874246517914" to="0" dur="0.07501762273955374s" begin="anim12.end" fill="freeze" id="anim13" /></path><path d="M 34.1 -26.3 L 22.5 -26.3 " transform="translate(0.0 38.0)" stroke-dasharray="11.600000000000001" stroke-dashoffset="11.600000000000001"><animate attributeName="stroke-dashoffset" from="11.600000000000001" to="0" dur="0.34800000000000003s" begin="anim13.end" fill="freeze" id="anim14" /></path><path d="M 34.1 -23.5 L 22.5 -23.5" transform="translate(0.0 38.0)" stroke-dasharray="11.600000000000001" stroke-dashoffset="11.600000000000001"><animate attributeName="stroke-dashoffset" from="11.600000000000001" to="0" dur="0.34800000000000003s" begin="anim14.end" fill="freeze" id="anim_end" /></path></g></svg>