<?xml version='1.0' encoding='utf-8'?>
<svg viewBox="0.0 -6.0 50.0 50.0" version="1.1" xmlns="http://www.w3.org/2000/svg"><rect x="-1000" y="-1000" width="2000" height="2000" stroke="white" fill="white" /><g style="fill:none;stroke:#000000;stroke-width:1"><path d="M 44.6 -11.8 L 44.6 -15.6 C 44.6 -17.4 43.7 -18.1 41.1 -18.1 L 8.8 -18.1 C 6.3 -18.1 5.3 -17.4 5.3 -15.6 L 5.3 -11.4 " transform="translate(0.0 38.0)" stroke-dasharray="50.25596525995353" stroke-dashoffset="50.25596525995353"><animate attributeName="stroke-dashoffset" from="50.25596525995353" to="0" dur="1.5076789577986058s" begin="0s" fill="freeze" /></path><path d="M 18.9 2.4 C 19.9 2.6 20.8 2.7 21.7 2.7 C 24.0 2.7 25.0 1.9 25.0 -0.6 L 25.0 -10.9 " transform="translate(0.0 38.0)" stroke-dasharray="18.575767071711248" stroke-dashoffset="18.575767071711248"><animate attributeName="stroke-dashoffset" from="18.575767071711248" to="0" dur="0.5572730121513374s" begin="1.5076789577986058s" fill="freeze" /></path><path d="M 38.4 -11.4 L 11.7 -11.4 " transform="translate(0.0 38.0)" stroke-dasharray="26.7" stroke-dashoffset="26.7"><animate attributeName="stroke-dashoffset" from="26.7" to="0" dur="0.8009999999999999s" begin="2.0649519699499432s" fill="freeze" /></path><path d="M 17.3 -23.8 L 32.7 -23.8 C 35.2 -23.8 36.1 -24.6 36.1 -26.2 L 36.1 -28.4 C 36.1 -29.9 35.2 -30.8 32.7 -30.8 L 17.3 -30.8 C 14.8 -30.8 13.9 -29.9 13.9 -28.4 L 13.9 -26.2 C 13.9 -24.6 14.8 -23.8 17.3 -23.8 Z " transform="translate(0.0 38.0)" stroke-dasharray="54.274036283778514" stroke-dashoffset="54.274036283778514"><animate attributeName="stroke-dashoffset" from="54.274036283778514" to="0" dur="1.6282210885133555s" begin="2.8659519699499434s" fill="freeze" /></path><path d="M 45.4 -36.4 L 4.6 -36.4 " transform="translate(0.0 38.0)" stroke-dasharray="40.8" stroke-dashoffset="40.8"><animate attributeName="stroke-dashoffset" from="40.8" to="0" dur="1.224s" begin="4.494173058463299s" fill="freeze" /></path><path d="M 24.9 -36.8 L 24.9 -40.7" transform="translate(0.0 38.0)" stroke-dasharray="3.9000000000000057" stroke-dashoffset="3.9000000000000057"><animate attributeName="stroke-dashoffset" from="3.9000000000000057" to="0" dur="0.11700000000000016s" begin="5.718173058463299s" fill="freeze" /></path></g></svg>