<?xml version='1.0' encoding='utf-8'?>
<svg viewBox="0.0 -6.0 50.0 50.0" version="1.1" xmlns="http://www.w3.org/2000/svg"><rect x="-1000" y="-1000" width="2000" height="2000" stroke="white" fill="white" /><g style="fill:none;stroke:#000000;stroke-width:1"><path d="M 14.7 1.6 C 21.1 -1.6 26.2 -8.0 26.2 -18.1 L 26.2 -22.1 C 26.2 -24.1 27.1 -24.9 29.5 -24.9 L 33.2 -24.9 C 35.5 -24.9 36.5 -24.1 36.5 -22.1 L 36.5 -2.1 C 36.5 -0.1 37.2 0.7 41.0 0.7 C 44.9 0.7 46.1 -0.8 46.5 -4.9 " transform="translate(0.0 38.0)" stroke-dasharray="77.07506649054102" stroke-dashoffset="77.07506649054102"><animate attributeName="stroke-dashoffset" from="77.07506649054102" to="0" dur="2.3122519947162306s" begin="0s; anim_end.end" fill="freeze" id="anim0" /></path><path d="M 8.9 -13.0 L 11.8 -13.0 C 14.1 -13.0 15.1 -13.9 15.1 -16.3 L 15.1 -33.5 C 15.1 -35.9 14.1 -36.8 11.8 -36.8 L 8.9 -36.8 C 6.5 -36.8 5.5 -35.9 5.5 -33.5 L 5.5 -16.3 C 5.5 -13.9 6.5 -13.0 8.9 -13.0 Z " transform="translate(0.0 38.0)" stroke-dasharray="62.09855669971099" stroke-dashoffset="62.09855669971099"><animate attributeName="stroke-dashoffset" from="62.09855669971099" to="0" dur="1.8629567009913297s" begin="anim0.end" fill="freeze" id="anim1" /></path><path d="M 46.0 -32.6 L 20.6 -32.6 " transform="translate(0.0 38.0)" stroke-dasharray="25.4" stroke-dashoffset="25.4"><animate attributeName="stroke-dashoffset" from="25.4" to="0" dur="0.7619999999999999s" begin="anim1.end" fill="freeze" id="anim2" /></path><path d="M 31.9 -32.9 L 31.9 -40.0" transform="translate(0.0 38.0)" stroke-dasharray="7.100000000000001" stroke-dashoffset="7.100000000000001"><animate attributeName="stroke-dashoffset" from="7.100000000000001" to="0" dur="0.21300000000000002s" begin="anim2.end" fill="freeze" id="anim_end" /></path></g></svg>