<?xml version='1.0' encoding='utf-8'?>
<svg viewBox="0.0 -6.0 50.0 50.0" version="1.1" xmlns="http://www.w3.org/2000/svg"><rect x="-1000" y="-1000" width="2000" height="2000" stroke="white" fill="white" /><g style="fill:none;stroke:#000000;stroke-width:1"><path d="M 42.0 -15.1 L 42.0 -26.6 C 42.0 -28.6 41.0 -29.6 38.1 -29.6 L 22.6 -29.6 C 19.8 -29.6 18.8 -28.6 18.8 -26.6 L 18.8 -14.6 " transform="translate(0.0 38.0)" stroke-dasharray="50.2750095508014" stroke-dashoffset="50.2750095508014"><animate attributeName="stroke-dashoffset" from="50.2750095508014" to="0" dur="1.508250286524042s" begin="0s; 15s; 30s; 45s" fill="freeze" id="anim0" /></path><path d="M 9.2 2.6 L 9.2 -25.6 " transform="translate(0.0 38.0)" stroke-dasharray="28.200000000000003" stroke-dashoffset="28.200000000000003"><animate attributeName="stroke-dashoffset" from="28.200000000000003" to="0" dur="0.8460000000000001s" begin="anim0.end" fill="freeze" id="anim1" /></path><path d="M 25.1 -2.0 C 24.1 -3.1 22.8 -4.2 21.6 -5.0 " transform="translate(0.0 38.0)" stroke-dasharray="4.620410140812354" stroke-dashoffset="4.620410140812354"><animate attributeName="stroke-dashoffset" from="4.620410140812354" to="0" dur="0.13861230422437062s" begin="anim1.end" fill="freeze" id="anim2" /></path><path d="M 3.0 -18.9 C 6.5 -24.1 9.9 -32.3 11.7 -39.7 " transform="translate(0.0 38.0)" stroke-dasharray="22.647369512583317" stroke-dashoffset="22.647369512583317"><animate attributeName="stroke-dashoffset" from="22.647369512583317" to="0" dur="0.6794210853774995s" begin="anim2.end" fill="freeze" id="anim3" /></path><path d="M 30.5 2.0 C 31.3 2.2 31.9 2.3 32.9 2.3 C 35.0 2.3 36.0 1.5 36.0 -0.6 L 36.0 -12.7 " transform="translate(0.0 38.0)" stroke-dasharray="19.44656596263371" stroke-dashoffset="19.44656596263371"><animate attributeName="stroke-dashoffset" from="19.44656596263371" to="0" dur="0.5833969788790112s" begin="anim3.end" fill="freeze" id="anim4" /></path><path d="M 46.4 -9.2 L 15.0 -9.2 " transform="translate(0.0 38.0)" stroke-dasharray="31.4" stroke-dashoffset="31.4"><animate attributeName="stroke-dashoffset" from="31.4" to="0" dur="0.942s" begin="anim4.end" fill="freeze" id="anim5" /></path><path d="M 41.3 -18.9 L 19.7 -18.9 " transform="translate(0.0 38.0)" stroke-dasharray="21.599999999999998" stroke-dashoffset="21.599999999999998"><animate attributeName="stroke-dashoffset" from="21.599999999999998" to="0" dur="0.6479999999999999s" begin="anim5.end" fill="freeze" id="anim6" /></path><path d="M 41.3 -24.1 L 19.7 -24.1 " transform="translate(0.0 38.0)" stroke-dasharray="21.599999999999998" stroke-dashoffset="21.599999999999998"><animate attributeName="stroke-dashoffset" from="21.599999999999998" to="0" dur="0.6479999999999999s" begin="anim6.end" fill="freeze" id="anim7" /></path><path d="M 30.1 -15.1 L 30.1 -40.5 " transform="translate(0.0 38.0)" stroke-dasharray="25.4" stroke-dashoffset="25.4"><animate attributeName="stroke-dashoffset" from="25.4" to="0" dur="0.7619999999999999s" begin="anim7.end" fill="freeze" id="anim8" /></path><path d="M 46.2 -34.9 L 15.9 -34.9 " transform="translate(0.0 38.0)" stroke-dasharray="30.300000000000004" stroke-dashoffset="30.300000000000004"><animate attributeName="stroke-dashoffset" from="30.300000000000004" to="0" dur="0.9090000000000001s" begin="anim8.end" fill="freeze" id="anim9" /></path><path d="M 40.1 -38.8 C 39.2 -39.5 37.9 -40.4 37.0 -40.8" transform="translate(0.0 38.0)" stroke-dasharray="3.6963118533376083" stroke-dashoffset="3.6963118533376083"><animate attributeName="stroke-dashoffset" from="3.6963118533376083" to="0" dur="0.11088935560012825s" begin="anim9.end" fill="freeze" id="anim_end" /></path></g></svg>