<?xml version='1.0' encoding='utf-8'?>
<svg viewBox="0.0 -6.0 50.0 50.0" version="1.1" xmlns="http://www.w3.org/2000/svg"><rect x="-1000" y="-1000" width="2000" height="2000" stroke="white" fill="white" /><g style="fill:none;stroke:#000000;stroke-width:1"><path d="M 47.4 -5.6 C 46.9 -1.2 45.8 0.2 44.4 0.2 C 43.0 0.2 41.8 -1.0 40.9 -4.9 C 39.9 -9.6 39.2 -16.2 39.2 -27.9 L 39.2 -33.7 C 39.2 -36.1 38.0 -37.7 35.1 -37.7 L 13.2 -37.7 C 10.2 -37.7 9.1 -36.2 9.1 -33.7 L 9.1 -23.8 C 9.1 -12.2 7.0 -5.0 3.6 0.5 " transform="translate(0.0 38.0)" stroke-dasharray="112.80686795952712" stroke-dashoffset="112.80686795952712"><animate attributeName="stroke-dashoffset" from="112.80686795952712" to="0" dur="3.3842060387858135s" begin="0s; anim_end.end" fill="freeze" id="anim0" /></path><path d="M 36.2 -2.4 L 11.2 -2.4 " transform="translate(0.0 38.0)" stroke-dasharray="25.000000000000004" stroke-dashoffset="25.000000000000004"><animate attributeName="stroke-dashoffset" from="25.000000000000004" to="0" dur="0.7500000000000001s" begin="anim0.end" fill="freeze" id="anim1" /></path><path d="M 17.1 -2.4 L 17.1 -23.6 " transform="translate(0.0 38.0)" stroke-dasharray="21.200000000000003" stroke-dashoffset="21.200000000000003"><animate attributeName="stroke-dashoffset" from="21.200000000000003" to="0" dur="0.636s" begin="anim1.end" fill="freeze" id="anim2" /></path><path d="M 25.8 -2.4 L 25.8 -32.4 " transform="translate(0.0 38.0)" stroke-dasharray="30.0" stroke-dashoffset="30.0"><animate attributeName="stroke-dashoffset" from="30.0" to="0" dur="0.8999999999999999s" begin="anim2.end" fill="freeze" id="anim3" /></path><path d="M 33.6 -18.4 L 26.6 -18.4" transform="translate(0.0 38.0)" stroke-dasharray="7.0" stroke-dashoffset="7.0"><animate attributeName="stroke-dashoffset" from="7.0" to="0" dur="0.21s" begin="anim3.end" fill="freeze" id="anim_end" /></path></g></svg>