<?xml version='1.0' encoding='utf-8'?>
<svg viewBox="0.0 -6.0 50.0 50.0" version="1.1" xmlns="http://www.w3.org/2000/svg"><rect x="-1000" y="-1000" width="2000" height="2000" stroke="white" fill="white" /><g style="fill:none;stroke:#000000;stroke-width:1"><path d="M 18.9 -16.0 L 37.5 -16.0 C 40.1 -16.0 41.1 -16.8 41.1 -18.8 L 41.1 -26.2 C 41.1 -28.2 40.1 -29.1 37.5 -29.1 L 18.9 -29.1 " transform="translate(0.0 38.0)" stroke-dasharray="55.238052768180495" stroke-dashoffset="55.238052768180495"><animate attributeName="stroke-dashoffset" from="55.238052768180495" to="0" dur="1.6571415830454148s" begin="0s; 15s; 30s; 45s" fill="freeze" id="anim0" /></path><path d="M 8.8 2.7 L 8.8 -25.4 " transform="translate(0.0 38.0)" stroke-dasharray="28.099999999999998" stroke-dashoffset="28.099999999999998"><animate attributeName="stroke-dashoffset" from="28.099999999999998" to="0" dur="0.8429999999999999s" begin="anim0.end" fill="freeze" id="anim1" /></path><path d="M 14.5 1.8 C 17.6 -1.6 20.1 -6.5 21.4 -11.3 " transform="translate(0.0 38.0)" stroke-dasharray="14.936060838282128" stroke-dashoffset="14.936060838282128"><animate attributeName="stroke-dashoffset" from="14.936060838282128" to="0" dur="0.4480818251484638s" begin="anim1.end" fill="freeze" id="anim2" /></path><path d="M 3.0 -19.0 C 6.2 -24.1 9.5 -32.4 11.1 -39.8 " transform="translate(0.0 38.0)" stroke-dasharray="22.416437606707976" stroke-dashoffset="22.416437606707976"><animate attributeName="stroke-dashoffset" from="22.416437606707976" to="0" dur="0.6724931282012393s" begin="anim2.end" fill="freeze" id="anim3" /></path><path d="M 45.8 0.5 C 43.0 0.8 40.1 0.9 36.8 0.9 C 27.6 0.9 23.1 -1.2 20.6 -7.4 " transform="translate(0.0 38.0)" stroke-dasharray="28.63307352267037" stroke-dashoffset="28.63307352267037"><animate attributeName="stroke-dashoffset" from="28.63307352267037" to="0" dur="0.858992205680111s" begin="anim3.end" fill="freeze" id="anim4" /></path><path d="M 41.2 -8.1 L 29.3 -8.1 " transform="translate(0.0 38.0)" stroke-dasharray="11.900000000000002" stroke-dashoffset="11.900000000000002"><animate attributeName="stroke-dashoffset" from="11.900000000000002" to="0" dur="0.35700000000000004s" begin="anim4.end" fill="freeze" id="anim5" /></path><path d="M 29.6 -0.3 L 29.6 -40.4 " transform="translate(0.0 38.0)" stroke-dasharray="40.1" stroke-dashoffset="40.1"><animate attributeName="stroke-dashoffset" from="40.1" to="0" dur="1.203s" begin="anim5.end" fill="freeze" id="anim6" /></path><path d="M 46.8 -22.6 L 14.3 -22.6 " transform="translate(0.0 38.0)" stroke-dasharray="32.5" stroke-dashoffset="32.5"><animate attributeName="stroke-dashoffset" from="32.5" to="0" dur="0.975s" begin="anim6.end" fill="freeze" id="anim7" /></path><path d="M 45.6 -35.5 L 16.6 -35.5" transform="translate(0.0 38.0)" stroke-dasharray="29.0" stroke-dashoffset="29.0"><animate attributeName="stroke-dashoffset" from="29.0" to="0" dur="0.87s" begin="anim7.end" fill="freeze" id="anim_end" /></path></g></svg>