<?xml version='1.0' encoding='utf-8'?>
<svg viewBox="0.0 -6.0 50.0 50.0" version="1.1" xmlns="http://www.w3.org/2000/svg"><rect x="-1000" y="-1000" width="2000" height="2000" stroke="white" fill="white" /><g style="fill:none;stroke:#000000;stroke-width:1"><path d="M 4.2 0.2 C 11.0 -5.0 15.7 -14.7 16.4 -26.1 C 16.4 -28.2 15.4 -29.2 13.0 -29.2 L 3.5 -29.2 " transform="translate(0.0 38.0)" stroke-dasharray="44.67344269093152" stroke-dashoffset="44.67344269093152"><animate attributeName="stroke-dashoffset" from="44.67344269093152" to="0" dur="1.3402032807279456s" begin="0s" fill="freeze" /></path><path d="M 17.7 -6.2 C 14.7 -8.9 9.8 -11.8 6.0 -13.4 " transform="translate(0.0 38.0)" stroke-dasharray="13.790801151619899" stroke-dashoffset="13.790801151619899"><animate attributeName="stroke-dashoffset" from="13.790801151619899" to="0" dur="0.41372403454859696s" begin="1.3402032807279456s" fill="freeze" /></path><path d="M 18.5 1.8 C 26.6 -0.8 31.9 -6.5 32.7 -17.7 " transform="translate(0.0 38.0)" stroke-dasharray="25.880903791232136" stroke-dashoffset="25.880903791232136"><animate attributeName="stroke-dashoffset" from="25.880903791232136" to="0" dur="0.776427113736964s" begin="1.7539273152765427s" fill="freeze" /></path><path d="M 5.2 -12.0 C 7.5 -19.9 9.3 -29.2 10.7 -39.8 " transform="translate(0.0 38.0)" stroke-dasharray="28.365389106359256" stroke-dashoffset="28.365389106359256"><animate attributeName="stroke-dashoffset" from="28.365389106359256" to="0" dur="0.8509616731907776s" begin="2.5303544290135065s" fill="freeze" /></path><path d="M 35.6 0.6 C 36.6 0.8 37.6 0.9 38.6 0.9 C 41.0 0.9 42.5 0.1 43.1 -2.5 C 43.6 -4.7 44.0 -6.7 44.1 -9.6 C 44.2 -11.7 43.3 -12.7 40.4 -12.7 L 21.9 -12.4 " transform="translate(0.0 38.0)" stroke-dasharray="40.61416710792314" stroke-dashoffset="40.61416710792314"><animate attributeName="stroke-dashoffset" from="40.61416710792314" to="0" dur="1.2184250132376941s" begin="3.381316102204284s" fill="freeze" /></path><path d="M 33.2 -22.0 L 33.2 -37.9 " transform="translate(0.0 38.0)" stroke-dasharray="15.899999999999999" stroke-dashoffset="15.899999999999999"><animate attributeName="stroke-dashoffset" from="15.899999999999999" to="0" dur="0.4769999999999999s" begin="4.5997411154419785s" fill="freeze" /></path><path d="M 43.0 -30.2 L 23.4 -30.2 " transform="translate(0.0 38.0)" stroke-dasharray="19.6" stroke-dashoffset="19.6"><animate attributeName="stroke-dashoffset" from="19.6" to="0" dur="0.588s" begin="5.076741115441979s" fill="freeze" /></path><path d="M 27.3 -22.0 L 39.9 -22.0 C 43.0 -22.0 44.1 -23.1 44.1 -25.6 L 44.1 -34.6 C 44.1 -37.1 43.0 -38.2 39.9 -38.2 L 27.3 -38.2 C 24.2 -38.2 23.1 -37.1 23.1 -34.6 L 23.1 -25.6 C 23.1 -23.1 24.2 -22.0 27.3 -22.0 Z" transform="translate(0.0 38.0)" stroke-dasharray="68.92806365479365" stroke-dashoffset="68.92806365479365"><animate attributeName="stroke-dashoffset" from="68.92806365479365" to="0" dur="2.067841909643809s" begin="5.664741115441979s" fill="freeze" /></path></g></svg>