<?xml version='1.0' encoding='utf-8'?>
<svg viewBox="0.0 -6.0 50.0 50.0" version="1.1" xmlns="http://www.w3.org/2000/svg"><rect x="-1000" y="-1000" width="2000" height="2000" stroke="white" fill="white" /><g style="fill:none;stroke:#000000;stroke-width:1"><path d="M 15.4 -1.1 C 23.4 -5.4 31.6 -12.7 36.0 -19.9 " transform="translate(0.0 38.0)" stroke-dasharray="28.178421050930595" stroke-dashoffset="28.178421050930595"><animate attributeName="stroke-dashoffset" from="28.178421050930595" to="0" dur="0.8453526315279178s" begin="0s" fill="freeze" /></path><path d="M 9.0 -13.1 L 11.9 -13.1 C 14.3 -13.1 15.3 -14.1 15.3 -16.4 L 15.3 -32.9 C 15.3 -35.2 14.3 -36.1 11.9 -36.1 L 9.0 -36.1 C 6.6 -36.1 5.6 -35.2 5.6 -32.9 L 5.6 -16.4 C 5.6 -14.1 6.6 -13.1 9.0 -13.1 Z " transform="translate(0.0 38.0)" stroke-dasharray="60.65052178083114" stroke-dashoffset="60.65052178083114"><animate attributeName="stroke-dashoffset" from="60.65052178083114" to="0" dur="1.8195156534249342s" begin="0.8453526315279178s" fill="freeze" /></path><path d="M 22.6 -17.9 C 24.1 -21.9 25.1 -26.4 25.8 -30.8 " transform="translate(0.0 38.0)" stroke-dasharray="13.31288136614109" stroke-dashoffset="13.31288136614109"><animate attributeName="stroke-dashoffset" from="13.31288136614109" to="0" dur="0.3993864409842327s" begin="2.6648682849528518s" fill="freeze" /></path><path d="M 31.6 1.7 C 32.6 1.9 33.8 1.9 34.7 1.9 C 37.1 1.9 38.0 0.9 38.0 -1.2 L 38.0 -37.0 " transform="translate(0.0 38.0)" stroke-dasharray="44.162454154279025" stroke-dashoffset="44.162454154279025"><animate attributeName="stroke-dashoffset" from="44.162454154279025" to="0" dur="1.3248736246283708s" begin="3.0642547259370847s" fill="freeze" /></path><path d="M 46.4 -22.4 L 24.0 -22.4 " transform="translate(0.0 38.0)" stroke-dasharray="22.4" stroke-dashoffset="22.4"><animate attributeName="stroke-dashoffset" from="22.4" to="0" dur="0.6719999999999999s" begin="4.389128350565455s" fill="freeze" /></path><path d="M 45.1 -37.1 L 21.9 -37.1" transform="translate(0.0 38.0)" stroke-dasharray="23.200000000000003" stroke-dashoffset="23.200000000000003"><animate attributeName="stroke-dashoffset" from="23.200000000000003" to="0" dur="0.6960000000000001s" begin="5.061128350565455s" fill="freeze" /></path></g></svg>