<?xml version='1.0' encoding='utf-8'?>
<svg viewBox="0.0 -6.0 50.0 50.0" version="1.1" xmlns="http://www.w3.org/2000/svg"><rect x="-1000" y="-1000" width="2000" height="2000" stroke="white" fill="white" /><g style="fill:none;stroke:#000000;stroke-width:1"><path d="M 30.6 1.9 C 34.0 -3.4 35.8 -9.9 35.8 -23.1 L 35.8 -36.6 " transform="translate(0.0 38.0)" stroke-dasharray="39.39982219666365" stroke-dashoffset="39.39982219666365"><animate attributeName="stroke-dashoffset" from="39.39982219666365" to="0" dur="1.1819946658999094s" begin="0s" fill="freeze" /></path><path d="M 13.8 0.8 C 15.9 -1.1 17.9 -3.5 19.4 -6.2 " transform="translate(0.0 38.0)" stroke-dasharray="9.003850237031406" stroke-dashoffset="9.003850237031406"><animate attributeName="stroke-dashoffset" from="9.003850237031406" to="0" dur="0.2701155071109422s" begin="1.1819946658999094s" fill="freeze" /></path><path d="M 28.6 -3.3 C 27.8 -4.5 26.9 -5.5 26.0 -6.5 " transform="translate(0.0 38.0)" stroke-dasharray="4.127080324676954" stroke-dashoffset="4.127080324676954"><animate attributeName="stroke-dashoffset" from="4.127080324676954" to="0" dur="0.12381240974030862s" begin="1.4521101730108517s" fill="freeze" /></path><path d="M 7.0 -12.2 L 9.0 -12.2 C 10.8 -12.2 11.6 -12.9 11.6 -15.0 L 11.6 -33.9 C 11.6 -36.0 10.8 -36.8 9.0 -36.8 L 7.0 -36.8 C 5.1 -36.8 4.3 -36.0 4.3 -33.9 L 4.3 -15.0 C 4.3 -12.9 5.1 -12.2 7.0 -12.2 Z " transform="translate(0.0 38.0)" stroke-dasharray="59.933981615419654" stroke-dashoffset="59.933981615419654"><animate attributeName="stroke-dashoffset" from="59.933981615419654" to="0" dur="1.7980194484625895s" begin="1.5759225827511603s" fill="freeze" /></path><path d="M 30.9 -10.6 L 14.5 -10.6 " transform="translate(0.0 38.0)" stroke-dasharray="16.4" stroke-dashoffset="16.4"><animate attributeName="stroke-dashoffset" from="16.4" to="0" dur="0.49199999999999994s" begin="3.37394203121375s" fill="freeze" /></path><path d="M 27.1 -18.2 L 19.1 -18.2 " transform="translate(0.0 38.0)" stroke-dasharray="8.0" stroke-dashoffset="8.0"><animate attributeName="stroke-dashoffset" from="8.0" to="0" dur="0.24s" begin="3.86594203121375s" fill="freeze" /></path><path d="M 19.1 -11.2 L 19.1 -39.9 " transform="translate(0.0 38.0)" stroke-dasharray="28.7" stroke-dashoffset="28.7"><animate attributeName="stroke-dashoffset" from="28.7" to="0" dur="0.861s" begin="4.10594203121375s" fill="freeze" /></path><path d="M 27.1 -25.6 L 19.1 -25.6 " transform="translate(0.0 38.0)" stroke-dasharray="8.0" stroke-dashoffset="8.0"><animate attributeName="stroke-dashoffset" from="8.0" to="0" dur="0.24s" begin="4.966942031213749s" fill="freeze" /></path><path d="M 42.6 2.0 L 42.6 -23.1 " transform="translate(0.0 38.0)" stroke-dasharray="25.1" stroke-dashoffset="25.1"><animate attributeName="stroke-dashoffset" from="25.1" to="0" dur="0.753s" begin="5.2069420312137495s" fill="freeze" /></path><path d="M 27.9 -11.2 L 27.9 -39.9 " transform="translate(0.0 38.0)" stroke-dasharray="28.7" stroke-dashoffset="28.7"><animate attributeName="stroke-dashoffset" from="28.7" to="0" dur="0.861s" begin="5.95994203121375s" fill="freeze" /></path><path d="M 31.1 -32.8 L 15.8 -32.8 " transform="translate(0.0 38.0)" stroke-dasharray="15.3" stroke-dashoffset="15.3"><animate attributeName="stroke-dashoffset" from="15.3" to="0" dur="0.459s" begin="6.820942031213749s" fill="freeze" /></path><path d="M 46.8 -23.9 L 35.5 -23.9 " transform="translate(0.0 38.0)" stroke-dasharray="11.299999999999997" stroke-dashoffset="11.299999999999997"><animate attributeName="stroke-dashoffset" from="11.299999999999997" to="0" dur="0.3389999999999999s" begin="7.279942031213749s" fill="freeze" /></path><path d="M 35.6 -35.6 C 39.1 -36.5 42.1 -37.5 44.7 -38.8" transform="translate(0.0 38.0)" stroke-dasharray="9.664227145227006" stroke-dashoffset="9.664227145227006"><animate attributeName="stroke-dashoffset" from="9.664227145227006" to="0" dur="0.28992681435681017s" begin="7.618942031213749s" fill="freeze" /></path></g></svg>