<?xml version='1.0' encoding='utf-8'?>
<svg viewBox="0.0 -6.0 50.0 50.0" version="1.1" xmlns="http://www.w3.org/2000/svg"><rect x="-1000" y="-1000" width="2000" height="2000" stroke="white" fill="white" /><g style="fill:none;stroke:#000000;stroke-width:1"><path d="M 10.7 -0.6 C 16.4 -7.2 19.5 -15.9 19.5 -28.4 L 19.5 -35.9 C 19.5 -37.9 20.3 -39.0 23.1 -39.0 L 39.9 -39.0 C 42.9 -39.0 43.6 -38.3 43.6 -36.5 L 43.6 -34.8 C 43.6 -33.0 42.9 -32.4 39.9 -32.4 L 19.7 -32.4 " transform="translate(0.0 38.0)" stroke-dasharray="91.91729051691411" stroke-dashoffset="91.91729051691411"><animate attributeName="stroke-dashoffset" from="91.91729051691411" to="0" dur="2.7575187155074232s" begin="0s" fill="freeze" /></path><path d="M 7.5 -15.0 L 9.8 -15.0 C 11.8 -15.0 12.7 -15.8 12.7 -18.0 L 12.7 -33.8 C 12.7 -36.0 11.8 -36.8 9.8 -36.8 L 7.5 -36.8 C 5.5 -36.8 4.6 -36.0 4.6 -33.8 L 4.6 -18.0 C 4.6 -15.8 5.5 -15.0 7.5 -15.0 Z " transform="translate(0.0 38.0)" stroke-dasharray="55.61344136732696" stroke-dashoffset="55.61344136732696"><animate attributeName="stroke-dashoffset" from="55.61344136732696" to="0" dur="1.6684032410198089s" begin="2.7575187155074232s" fill="freeze" /></path><path d="M 27.6 -2.4 C 31.7 -2.8 36.0 -3.5 40.1 -4.5 " transform="translate(0.0 38.0)" stroke-dasharray="12.685594269300685" stroke-dashoffset="12.685594269300685"><animate attributeName="stroke-dashoffset" from="12.685594269300685" to="0" dur="0.3805678280790205s" begin="4.425921956527232s" fill="freeze" /></path><path d="M 39.8 1.9 C 40.7 2.1 41.3 2.1 42.0 2.1 C 43.9 2.1 44.9 1.4 44.9 -0.9 L 44.9 -7.0 C 44.9 -9.0 44.0 -9.9 41.7 -9.9 L 25.8 -9.9 C 23.4 -9.9 22.6 -9.0 22.6 -7.0 L 22.6 2.7 " transform="translate(0.0 38.0)" stroke-dasharray="48.81005862770127" stroke-dashoffset="48.81005862770127"><animate attributeName="stroke-dashoffset" from="48.81005862770127" to="0" dur="1.4643017588310379s" begin="4.806489784606253s" fill="freeze" /></path><path d="M 40.6 -2.5 C 40.0 -4.0 39.4 -5.2 38.5 -6.5 " transform="translate(0.0 38.0)" stroke-dasharray="4.528214148062063" stroke-dashoffset="4.528214148062063"><animate attributeName="stroke-dashoffset" from="4.528214148062063" to="0" dur="0.1358464244418619s" begin="6.270791543437291s" fill="freeze" /></path><path d="M 33.6 -4.1 L 33.6 -27.4 " transform="translate(0.0 38.0)" stroke-dasharray="23.299999999999997" stroke-dashoffset="23.299999999999997"><animate attributeName="stroke-dashoffset" from="23.299999999999997" to="0" dur="0.6989999999999998s" begin="6.406637967879153s" fill="freeze" /></path><path d="M 28.2 -15.0 L 39.3 -15.0 C 41.5 -15.0 42.1 -15.8 42.1 -17.4 L 42.1 -19.2 C 42.1 -20.7 41.5 -21.6 39.3 -21.6 L 28.2 -21.6 C 26.1 -21.6 25.4 -20.7 25.4 -19.2 L 25.4 -17.4 C 25.4 -15.8 26.1 -15.0 28.2 -15.0 Z " transform="translate(0.0 38.0)" stroke-dasharray="42.91161600948455" stroke-dashoffset="42.91161600948455"><animate attributeName="stroke-dashoffset" from="42.91161600948455" to="0" dur="1.2873484802845363s" begin="7.105637967879153s" fill="freeze" /></path><path d="M 24.7 -26.0 C 30.3 -26.3 36.8 -27.1 41.9 -28.2" transform="translate(0.0 38.0)" stroke-dasharray="17.35648282947686" stroke-dashoffset="17.35648282947686"><animate attributeName="stroke-dashoffset" from="17.35648282947686" to="0" dur="0.5206944848843058s" begin="8.39298644816369s" fill="freeze" /></path></g></svg>