<?xml version='1.0' encoding='utf-8'?>
<svg viewBox="0.0 -6.0 50.0 50.0" version="1.1" xmlns="http://www.w3.org/2000/svg"><rect x="-1000" y="-1000" width="2000" height="2000" stroke="white" fill="white" /><g style="fill:none;stroke:#000000;stroke-width:1"><path d="M 15.9 -3.4 L 33.8 -3.4 C 36.6 -3.4 37.4 -4.2 37.4 -5.8 L 37.4 -14.3 C 37.4 -16.0 36.6 -16.7 33.8 -16.7 L 15.9 -16.7 C 13.2 -16.7 12.3 -16.0 12.3 -14.3 L 12.3 -5.8 C 12.3 -4.2 13.2 -3.4 15.9 -3.4 Z " transform="translate(0.0 38.0)" stroke-dasharray="72.7683252858907" stroke-dashoffset="72.7683252858907"><animate attributeName="stroke-dashoffset" from="72.7683252858907" to="0" dur="2.183049758576721s" begin="0s" fill="freeze" /></path><path d="M 6.2 2.8 C 10.2 2.2 15.3 1.1 19.1 -0.4 " transform="translate(0.0 38.0)" stroke-dasharray="13.316242236328215" stroke-dashoffset="13.316242236328215"><animate attributeName="stroke-dashoffset" from="13.316242236328215" to="0" dur="0.39948726708984644s" begin="2.183049758576721s" fill="freeze" /></path><path d="M 36.7 -7.8 L 12.9 -7.8 " transform="translate(0.0 38.0)" stroke-dasharray="23.800000000000004" stroke-dashoffset="23.800000000000004"><animate attributeName="stroke-dashoffset" from="23.800000000000004" to="0" dur="0.7140000000000001s" begin="2.5825370256665674s" fill="freeze" /></path><path d="M 5.5 -19.4 C 10.8 -19.9 15.7 -20.6 20.1 -21.8 " transform="translate(0.0 38.0)" stroke-dasharray="14.814050409238025" stroke-dashoffset="14.814050409238025"><animate attributeName="stroke-dashoffset" from="14.814050409238025" to="0" dur="0.4444215122771407s" begin="3.2965370256665674s" fill="freeze" /></path><path d="M 43.4 2.6 C 38.9 1.9 34.3 0.7 30.6 -0.6 " transform="translate(0.0 38.0)" stroke-dasharray="13.211354585297695" stroke-dashoffset="13.211354585297695"><animate attributeName="stroke-dashoffset" from="13.211354585297695" to="0" dur="0.39634063755893084s" begin="3.7409585379437083s" fill="freeze" /></path><path d="M 36.7 -12.2 L 12.9 -12.2 " transform="translate(0.0 38.0)" stroke-dasharray="23.800000000000004" stroke-dashoffset="23.800000000000004"><animate attributeName="stroke-dashoffset" from="23.800000000000004" to="0" dur="0.7140000000000001s" begin="4.137299175502639s" fill="freeze" /></path><path d="M 13.9 -21.1 L 13.9 -30.8 " transform="translate(0.0 38.0)" stroke-dasharray="9.7" stroke-dashoffset="9.7"><animate attributeName="stroke-dashoffset" from="9.7" to="0" dur="0.291s" begin="4.851299175502639s" fill="freeze" /></path><path d="M 19.6 -26.2 L 8.2 -26.2 " transform="translate(0.0 38.0)" stroke-dasharray="11.400000000000002" stroke-dashoffset="11.400000000000002"><animate attributeName="stroke-dashoffset" from="11.400000000000002" to="0" dur="0.342s" begin="5.1422991755026395s" fill="freeze" /></path><path d="M 20.8 -31.2 L 8.6 -31.2 " transform="translate(0.0 38.0)" stroke-dasharray="12.200000000000001" stroke-dashoffset="12.200000000000001"><animate attributeName="stroke-dashoffset" from="12.200000000000001" to="0" dur="0.366s" begin="5.484299175502639s" fill="freeze" /></path><path d="M 24.4 -21.4 C 25.8 -22.4 27.3 -23.9 28.4 -25.1 " transform="translate(0.0 38.0)" stroke-dasharray="5.457846227516504" stroke-dashoffset="5.457846227516504"><animate attributeName="stroke-dashoffset" from="5.457846227516504" to="0" dur="0.16373538682549513s" begin="5.850299175502639s" fill="freeze" /></path><path d="M 29.8 -20.6 C 30.4 -20.4 30.9 -20.4 31.6 -20.4 C 33.3 -20.4 34.1 -20.9 34.1 -22.8 L 34.1 -30.2 " transform="translate(0.0 38.0)" stroke-dasharray="13.282022642779586" stroke-dashoffset="13.282022642779586"><animate attributeName="stroke-dashoffset" from="13.282022642779586" to="0" dur="0.3984606792833876s" begin="6.014034562328134s" fill="freeze" /></path><path d="M 24.8 -27.9 C 26.4 -29.5 27.9 -31.4 28.9 -33.1 " transform="translate(0.0 38.0)" stroke-dasharray="6.638359542827442" stroke-dashoffset="6.638359542827442"><animate attributeName="stroke-dashoffset" from="6.638359542827442" to="0" dur="0.19915078628482324s" begin="6.412495241611522s" fill="freeze" /></path><path d="M 44.6 -31.7 L 44.6 -33.9 C 44.6 -35.6 43.8 -36.8 40.9 -36.8 L 9.2 -36.8 C 6.3 -36.8 5.4 -35.6 5.4 -33.9 L 5.4 -32.2 " transform="translate(0.0 38.0)" stroke-dasharray="46.48160580445165" stroke-dashoffset="46.48160580445165"><animate attributeName="stroke-dashoffset" from="46.48160580445165" to="0" dur="1.3944481741335493s" begin="6.611646027896345s" fill="freeze" /></path><path d="M 40.8 -30.0 L 26.6 -30.0 " transform="translate(0.0 38.0)" stroke-dasharray="14.199999999999996" stroke-dashoffset="14.199999999999996"><animate attributeName="stroke-dashoffset" from="14.199999999999996" to="0" dur="0.4259999999999999s" begin="8.006094202029894s" fill="freeze" /></path><path d="M 43.1 -21.8 C 42.2 -22.9 40.8 -24.1 39.7 -25.0 " transform="translate(0.0 38.0)" stroke-dasharray="4.676077253799401" stroke-dashoffset="4.676077253799401"><animate attributeName="stroke-dashoffset" from="4.676077253799401" to="0" dur="0.14028231761398202s" begin="8.432094202029894s" fill="freeze" /></path><path d="M 24.9 -37.0 L 24.9 -41.0" transform="translate(0.0 38.0)" stroke-dasharray="4.0" stroke-dashoffset="4.0"><animate attributeName="stroke-dashoffset" from="4.0" to="0" dur="0.12s" begin="8.572376519643877s" fill="freeze" /></path></g></svg>