<?xml version='1.0' encoding='utf-8'?>
<svg viewBox="0.0 -6.0 50.0 50.0" version="1.1" xmlns="http://www.w3.org/2000/svg"><rect x="-1000" y="-1000" width="2000" height="2000" stroke="white" fill="white" /><g style="fill:none;stroke:#000000;stroke-width:1"><path d="M 36.3 0.7 C 37.3 0.9 38.1 1.0 39.0 1.0 C 41.5 1.0 43.0 -0.2 43.6 -4.4 C 44.4 -9.5 44.9 -15.9 44.9 -25.1 C 44.9 -27.2 44.1 -28.3 41.6 -28.2 L 28.4 -27.9 " transform="translate(0.0 38.0)" stroke-dasharray="49.93918738683624" stroke-dashoffset="49.93918738683624"><animate attributeName="stroke-dashoffset" from="49.93918738683624" to="0" dur="1.498175621605087s" begin="0s; anim_end.end" fill="freeze" id="anim0" /></path><path d="M 11.6 -5.8 C 13.6 -8.0 14.3 -10.3 14.4 -14.3 " transform="translate(0.0 38.0)" stroke-dasharray="9.175619712510303" stroke-dashoffset="9.175619712510303"><animate attributeName="stroke-dashoffset" from="9.175619712510303" to="0" dur="0.27526859137530907s" begin="anim0.end" fill="freeze" id="anim1" /></path><path d="M 22.4 -0.5 L 10.7 -0.5 C 8.2 -0.5 7.0 -1.2 7.0 -3.8 L 7.0 -14.6 " transform="translate(0.0 38.0)" stroke-dasharray="28.297773045862222" stroke-dashoffset="28.297773045862222"><animate attributeName="stroke-dashoffset" from="28.297773045862222" to="0" dur="0.8489331913758666s" begin="anim1.end" fill="freeze" id="anim2" /></path><path d="M 27.4 -15.2 L 3.0 -15.2 " transform="translate(0.0 38.0)" stroke-dasharray="24.4" stroke-dashoffset="24.4"><animate attributeName="stroke-dashoffset" from="24.4" to="0" dur="0.732s" begin="anim2.end" fill="freeze" id="anim3" /></path><path d="M 26.1 -9.5 C 25.7 -7.4 24.9 -6.7 22.6 -6.7 C 20.6 -6.7 20.0 -7.0 20.0 -8.6 L 20.0 -14.3 " transform="translate(0.0 38.0)" stroke-dasharray="14.580799807780544" stroke-dashoffset="14.580799807780544"><animate attributeName="stroke-dashoffset" from="14.580799807780544" to="0" dur="0.43742399423341627s" begin="anim3.end" fill="freeze" id="anim4" /></path><path d="M 20.6 -21.9 L 9.8 -21.9 " transform="translate(0.0 38.0)" stroke-dasharray="10.8" stroke-dashoffset="10.8"><animate attributeName="stroke-dashoffset" from="10.8" to="0" dur="0.324s" begin="anim4.end" fill="freeze" id="anim5" /></path><path d="M 9.5 -15.8 L 9.5 -40.2 " transform="translate(0.0 38.0)" stroke-dasharray="24.400000000000002" stroke-dashoffset="24.400000000000002"><animate attributeName="stroke-dashoffset" from="24.400000000000002" to="0" dur="0.732s" begin="anim5.end" fill="freeze" id="anim6" /></path><path d="M 20.6 -28.3 L 9.8 -28.3 " transform="translate(0.0 38.0)" stroke-dasharray="10.8" stroke-dashoffset="10.8"><animate attributeName="stroke-dashoffset" from="10.8" to="0" dur="0.324s" begin="anim6.end" fill="freeze" id="anim7" /></path><path d="M 25.9 2.0 C 32.5 -4.5 35.8 -14.0 35.8 -29.1 L 35.8 -39.8 " transform="translate(0.0 38.0)" stroke-dasharray="44.24605132883216" stroke-dashoffset="44.24605132883216"><animate attributeName="stroke-dashoffset" from="44.24605132883216" to="0" dur="1.3273815398649647s" begin="anim7.end" fill="freeze" id="anim8" /></path><path d="M 20.9 -15.8 L 20.9 -40.2 " transform="translate(0.0 38.0)" stroke-dasharray="24.400000000000002" stroke-dashoffset="24.400000000000002"><animate attributeName="stroke-dashoffset" from="24.400000000000002" to="0" dur="0.732s" begin="anim8.end" fill="freeze" id="anim9" /></path><path d="M 26.4 -34.6 L 4.2 -34.6" transform="translate(0.0 38.0)" stroke-dasharray="22.2" stroke-dashoffset="22.2"><animate attributeName="stroke-dashoffset" from="22.2" to="0" dur="0.6659999999999999s" begin="anim9.end" fill="freeze" id="anim_end" /></path></g></svg>