<?xml version='1.0' encoding='utf-8'?>
<svg viewBox="0.0 -6.0 50.0 50.0" version="1.1" xmlns="http://www.w3.org/2000/svg"><rect x="-1000" y="-1000" width="2000" height="2000" stroke="white" fill="white" /><g style="fill:none;stroke:#000000;stroke-width:1"><path d="M 35.1 2.0 C 36.0 2.1 36.6 2.2 37.4 2.2 C 39.5 2.2 40.3 1.3 40.3 -1.1 L 40.3 -11.8 C 40.3 -13.9 39.2 -14.9 36.3 -14.9 L 13.7 -14.9 C 10.8 -14.9 9.7 -13.9 9.7 -11.8 L 9.7 2.6 " transform="translate(0.0 38.0)" stroke-dasharray="66.81420739941746" stroke-dashoffset="66.81420739941746"><animate attributeName="stroke-dashoffset" from="66.81420739941746" to="0" dur="2.0044262219825235s" begin="0s; 15s; 30s; 45s" fill="freeze" id="anim0" /></path><path d="M 19.8 1.2 L 19.8 -14.6 " transform="translate(0.0 38.0)" stroke-dasharray="15.799999999999999" stroke-dashoffset="15.799999999999999"><animate attributeName="stroke-dashoffset" from="15.799999999999999" to="0" dur="0.474s" begin="anim0.end" fill="freeze" id="anim1" /></path><path d="M 39.5 -7.2 L 10.4 -7.2 " transform="translate(0.0 38.0)" stroke-dasharray="29.1" stroke-dashoffset="29.1"><animate attributeName="stroke-dashoffset" from="29.1" to="0" dur="0.873s" begin="anim1.end" fill="freeze" id="anim2" /></path><path d="M 29.8 1.2 L 29.8 -14.6 " transform="translate(0.0 38.0)" stroke-dasharray="15.799999999999999" stroke-dashoffset="15.799999999999999"><animate attributeName="stroke-dashoffset" from="15.799999999999999" to="0" dur="0.474s" begin="anim2.end" fill="freeze" id="anim3" /></path><path d="M 3.5 -17.8 C 11.2 -20.9 19.3 -26.0 25.1 -31.8 " transform="translate(0.0 38.0)" stroke-dasharray="25.901862843197023" stroke-dashoffset="25.901862843197023"><animate attributeName="stroke-dashoffset" from="25.901862843197023" to="0" dur="0.7770558852959106s" begin="anim3.end" fill="freeze" id="anim4" /></path><path d="M 31.6 -20.9 L 18.0 -20.9 " transform="translate(0.0 38.0)" stroke-dasharray="13.600000000000001" stroke-dashoffset="13.600000000000001"><animate attributeName="stroke-dashoffset" from="13.600000000000001" to="0" dur="0.40800000000000003s" begin="anim4.end" fill="freeze" id="anim5" /></path><path d="M 9.0 -38.9 L 9.0 -34.5 C 9.0 -32.7 9.9 -32.0 12.4 -32.0 L 37.9 -32.0 C 40.4 -32.0 41.2 -32.7 41.2 -34.5 L 41.2 -38.9 " transform="translate(0.0 38.0)" stroke-dasharray="44.021845361779505" stroke-dashoffset="44.021845361779505"><animate attributeName="stroke-dashoffset" from="44.021845361779505" to="0" dur="1.320655360853385s" begin="anim5.end" fill="freeze" id="anim6" /></path><path d="M 46.3 -18.7 C 38.5 -21.4 30.4 -26.1 25.2 -31.1 " transform="translate(0.0 38.0)" stroke-dasharray="24.645488488688716" stroke-dashoffset="24.645488488688716"><animate attributeName="stroke-dashoffset" from="24.645488488688716" to="0" dur="0.7393646546606615s" begin="anim6.end" fill="freeze" id="anim7" /></path><path d="M 24.8 -31.9 L 24.8 -40.8" transform="translate(0.0 38.0)" stroke-dasharray="8.899999999999999" stroke-dashoffset="8.899999999999999"><animate attributeName="stroke-dashoffset" from="8.899999999999999" to="0" dur="0.26699999999999996s" begin="anim7.end" fill="freeze" id="anim_end" /></path></g></svg>