<?xml version='1.0' encoding='utf-8'?>
<svg viewBox="0.0 -6.0 50.0 50.0" version="1.1" xmlns="http://www.w3.org/2000/svg"><rect x="-1000" y="-1000" width="2000" height="2000" stroke="white" fill="white" /><g style="fill:none;stroke:#000000;stroke-width:1"><path d="M 43.6 -23.0 L 43.6 -25.9 C 43.6 -27.4 42.9 -28.1 40.5 -28.1 L 4.5 -28.1 " transform="translate(0.0 38.0)" stroke-dasharray="43.304461001192564" stroke-dashoffset="43.304461001192564"><animate attributeName="stroke-dashoffset" from="43.304461001192564" to="0" dur="1.2991338300357769s" begin="0s; 15s; 30s; 45s" fill="freeze" id="anim0" /></path><path d="M 11.7 0.9 L 16.9 0.9 C 19.1 0.9 19.9 0.2 19.9 -1.6 L 19.9 -5.8 C 19.9 -7.7 19.1 -8.3 16.9 -8.3 L 11.7 -8.3 C 9.3 -8.3 8.6 -7.7 8.6 -5.8 L 8.6 -1.6 C 8.6 0.2 9.3 0.9 11.7 0.9 Z " transform="translate(0.0 38.0)" stroke-dasharray="37.287893623268616" stroke-dashoffset="37.287893623268616"><animate attributeName="stroke-dashoffset" from="37.287893623268616" to="0" dur="1.1186368086980585s" begin="anim0.end" fill="freeze" id="anim1" /></path><path d="M 29.6 -1.3 C 28.8 -2.1 27.9 -3.0 27.0 -3.9 " transform="translate(0.0 38.0)" stroke-dasharray="3.6769552621700483" stroke-dashoffset="3.6769552621700483"><animate attributeName="stroke-dashoffset" from="3.6769552621700483" to="0" dur="0.11030865786510144s" begin="anim1.end" fill="freeze" id="anim2" /></path><path d="M 46.5 -13.4 L 3.3 -13.4 " transform="translate(0.0 38.0)" stroke-dasharray="43.2" stroke-dashoffset="43.2"><animate attributeName="stroke-dashoffset" from="43.2" to="0" dur="1.296s" begin="anim2.end" fill="freeze" id="anim3" /></path><path d="M 32.6 2.3 C 33.5 2.5 34.1 2.5 35.0 2.5 C 37.2 2.5 37.8 1.6 37.8 -0.6 L 37.8 -10.2 " transform="translate(0.0 38.0)" stroke-dasharray="16.923324582071743" stroke-dashoffset="16.923324582071743"><animate attributeName="stroke-dashoffset" from="16.923324582071743" to="0" dur="0.5076997374621522s" begin="anim3.end" fill="freeze" id="anim4" /></path><path d="M 40.7 -18.3 L 6.7 -18.3 " transform="translate(0.0 38.0)" stroke-dasharray="34.0" stroke-dashoffset="34.0"><animate attributeName="stroke-dashoffset" from="34.0" to="0" dur="1.02s" begin="anim4.end" fill="freeze" id="anim5" /></path><path d="M 45.4 -7.5 L 24.9 -7.5 " transform="translate(0.0 38.0)" stroke-dasharray="20.5" stroke-dashoffset="20.5"><animate attributeName="stroke-dashoffset" from="20.5" to="0" dur="0.615s" begin="anim5.end" fill="freeze" id="anim6" /></path><path d="M 37.1 -23.2 L 10.4 -23.2 " transform="translate(0.0 38.0)" stroke-dasharray="26.700000000000003" stroke-dashoffset="26.700000000000003"><animate attributeName="stroke-dashoffset" from="26.700000000000003" to="0" dur="0.801s" begin="anim6.end" fill="freeze" id="anim7" /></path><path d="M 40.8 -32.9 L 9.2 -32.9 " transform="translate(0.0 38.0)" stroke-dasharray="31.599999999999998" stroke-dashoffset="31.599999999999998"><animate attributeName="stroke-dashoffset" from="31.599999999999998" to="0" dur="0.948s" begin="anim7.end" fill="freeze" id="anim8" /></path><path d="M 24.9 -32.9 L 24.9 -40.9 " transform="translate(0.0 38.0)" stroke-dasharray="8.0" stroke-dashoffset="8.0"><animate attributeName="stroke-dashoffset" from="8.0" to="0" dur="0.24s" begin="anim8.end" fill="freeze" id="anim9" /></path><path d="M 45.2 -37.8 L 5.0 -37.8 " transform="translate(0.0 38.0)" stroke-dasharray="40.2" stroke-dashoffset="40.2"><animate attributeName="stroke-dashoffset" from="40.2" to="0" dur="1.206s" begin="anim9.end" fill="freeze" id="anim10" /></path><path d="M 24.1 -18.8 L 24.1 -23.0" transform="translate(0.0 38.0)" stroke-dasharray="4.199999999999999" stroke-dashoffset="4.199999999999999"><animate attributeName="stroke-dashoffset" from="4.199999999999999" to="0" dur="0.12599999999999997s" begin="anim10.end" fill="freeze" id="anim_end" /></path></g></svg>