<?xml version='1.0' encoding='utf-8'?>
<svg viewBox="0.0 -6.0 50.0 50.0" version="1.1" xmlns="http://www.w3.org/2000/svg"><rect x="-1000" y="-1000" width="2000" height="2000" stroke="white" fill="white" /><g style="fill:none;stroke:#000000;stroke-width:1"><path d="M 28.1 1.4 C 35.1 -2.1 41.8 -7.7 46.0 -13.7 " transform="translate(0.0 38.0)" stroke-dasharray="23.6432214072443" stroke-dashoffset="23.6432214072443"><animate attributeName="stroke-dashoffset" from="23.6432214072443" to="0" dur="0.709296642217329s" begin="0s; 15s; 30s; 45s" fill="freeze" id="anim0" /></path><path d="M 4.8 1.2 C 8.7 -4.2 10.4 -12.6 10.4 -26.1 L 10.4 -36.5 " transform="translate(0.0 38.0)" stroke-dasharray="38.691119466422165" stroke-dashoffset="38.691119466422165"><animate attributeName="stroke-dashoffset" from="38.691119466422165" to="0" dur="1.160733583992665s" begin="anim0.end" fill="freeze" id="anim1" /></path><path d="M 19.8 2.2 L 19.8 -36.6 " transform="translate(0.0 38.0)" stroke-dasharray="38.800000000000004" stroke-dashoffset="38.800000000000004"><animate attributeName="stroke-dashoffset" from="38.800000000000004" to="0" dur="1.1640000000000001s" begin="anim1.end" fill="freeze" id="anim2" /></path><path d="M 26.4 -21.6 L 3.3 -21.6 " transform="translate(0.0 38.0)" stroke-dasharray="23.099999999999998" stroke-dashoffset="23.099999999999998"><animate attributeName="stroke-dashoffset" from="23.099999999999998" to="0" dur="0.693s" begin="anim2.end" fill="freeze" id="anim3" /></path><path d="M 25.4 -36.9 L 4.8 -36.9 " transform="translate(0.0 38.0)" stroke-dasharray="20.599999999999998" stroke-dashoffset="20.599999999999998"><animate attributeName="stroke-dashoffset" from="20.599999999999998" to="0" dur="0.6179999999999999s" begin="anim3.end" fill="freeze" id="anim4" /></path><path d="M 29.4 -13.2 C 35.0 -16.4 40.5 -21.4 44.4 -27.0 " transform="translate(0.0 38.0)" stroke-dasharray="20.54086147684547" stroke-dashoffset="20.54086147684547"><animate attributeName="stroke-dashoffset" from="20.54086147684547" to="0" dur="0.6162258443053641s" begin="anim4.end" fill="freeze" id="anim5" /></path><path d="M 29.4 -26.1 C 34.3 -29.4 38.5 -33.6 41.9 -38.8" transform="translate(0.0 38.0)" stroke-dasharray="17.940343821439562" stroke-dashoffset="17.940343821439562"><animate attributeName="stroke-dashoffset" from="17.940343821439562" to="0" dur="0.5382103146431868s" begin="anim5.end" fill="freeze" id="anim_end" /></path></g></svg>