<?xml version='1.0' encoding='utf-8'?>
<svg viewBox="0.0 -6.0 50.0 50.0" version="1.1" xmlns="http://www.w3.org/2000/svg"><rect x="-1000" y="-1000" width="2000" height="2000" stroke="white" fill="white" /><g style="fill:none;stroke:#000000;stroke-width:1"><path d="M 17.1 1.4 C 27.2 -2.8 36.4 -11.2 40.4 -21.4 C 41.2 -23.6 40.5 -24.8 37.9 -24.8 L 26.9 -24.8 " transform="translate(0.0 38.0)" stroke-dasharray="49.84339019850787" stroke-dashoffset="49.84339019850787"><animate attributeName="stroke-dashoffset" from="49.84339019850787" to="0" dur="1.495301705955236s" begin="0s; anim_end.end" fill="freeze" id="anim0" /></path><path d="M 10.7 2.6 L 10.7 -18.1 " transform="translate(0.0 38.0)" stroke-dasharray="20.700000000000003" stroke-dashoffset="20.700000000000003"><animate attributeName="stroke-dashoffset" from="20.700000000000003" to="0" dur="0.6210000000000001s" begin="anim0.end" fill="freeze" id="anim1" /></path><path d="M 3.8 -13.6 C 7.7 -17.4 11.9 -23.7 14.4 -30.0 " transform="translate(0.0 38.0)" stroke-dasharray="19.65464666618354" stroke-dashoffset="19.65464666618354"><animate attributeName="stroke-dashoffset" from="19.65464666618354" to="0" dur="0.5896393999855062s" begin="anim1.end" fill="freeze" id="anim2" /></path><path d="M 45.6 1.1 C 35.4 -2.3 26.2 -9.4 22.1 -19.6 " transform="translate(0.0 38.0)" stroke-dasharray="32.31342249005068" stroke-dashoffset="32.31342249005068"><animate attributeName="stroke-dashoffset" from="32.31342249005068" to="0" dur="0.9694026747015203s" begin="anim2.end" fill="freeze" id="anim3" /></path><path d="M 17.6 -15.1 C 22.1 -18.9 26.2 -23.9 29.1 -29.8 " transform="translate(0.0 38.0)" stroke-dasharray="18.795301999167528" stroke-dashoffset="18.795301999167528"><animate attributeName="stroke-dashoffset" from="18.795301999167528" to="0" dur="0.5638590599750258s" begin="anim3.end" fill="freeze" id="anim4" /></path><path d="M 32.0 -16.3 C 31.1 -17.5 30.1 -18.6 29.0 -19.6 " transform="translate(0.0 38.0)" stroke-dasharray="4.466523154105356" stroke-dashoffset="4.466523154105356"><animate attributeName="stroke-dashoffset" from="4.466523154105356" to="0" dur="0.13399569462316066s" begin="anim4.end" fill="freeze" id="anim5" /></path><path d="M 45.6 -35.0 L 4.5 -35.0 " transform="translate(0.0 38.0)" stroke-dasharray="41.1" stroke-dashoffset="41.1"><animate attributeName="stroke-dashoffset" from="41.1" to="0" dur="1.233s" begin="anim5.end" fill="freeze" id="anim6" /></path><path d="M 24.8 -35.0 L 24.8 -40.5" transform="translate(0.0 38.0)" stroke-dasharray="5.5" stroke-dashoffset="5.5"><animate attributeName="stroke-dashoffset" from="5.5" to="0" dur="0.16499999999999998s" begin="anim6.end" fill="freeze" id="anim_end" /></path></g></svg>