<?xml version='1.0' encoding='utf-8'?>
<svg viewBox="0.0 -6.0 50.0 50.0" version="1.1" xmlns="http://www.w3.org/2000/svg"><rect x="-1000" y="-1000" width="2000" height="2000" stroke="white" fill="white" /><g style="fill:none;stroke:#000000;stroke-width:1"><path d="M 37.2 1.4 C 38.2 1.6 39.1 1.7 40.0 1.7 C 42.0 1.7 43.4 0.8 44.1 -1.8 C 44.8 -3.9 45.3 -6.6 45.4 -9.2 C 45.5 -11.1 44.5 -12.2 42.0 -12.2 L 28.9 -12.2 C 26.4 -12.2 25.5 -12.9 25.5 -15.1 L 25.5 -33.5 C 25.5 -35.2 26.3 -36.2 29.0 -36.2 L 37.5 -36.2 C 40.3 -36.2 41.2 -35.3 41.2 -33.5 L 41.2 -27.1 C 41.2 -25.3 40.2 -24.5 37.6 -24.5 L 25.4 -24.5 " transform="translate(0.0 38.0)" stroke-dasharray="100.8701956575038" stroke-dashoffset="100.8701956575038"><animate attributeName="stroke-dashoffset" from="100.8701956575038" to="0" dur="3.026105869725114s" begin="0s" fill="freeze" /></path><path d="M 20.9 0.0 C 21.8 -1.9 22.4 -4.2 22.9 -6.3 " transform="translate(0.0 38.0)" stroke-dasharray="6.621640493552372" stroke-dashoffset="6.621640493552372"><animate attributeName="stroke-dashoffset" from="6.621640493552372" to="0" dur="0.19864921480657113s" begin="3.026105869725114s" fill="freeze" /></path><path d="M 5.6 -31.9 L 5.6 -10.7 C 5.6 -8.3 6.7 -7.5 8.7 -7.5 L 15.2 -7.5 C 17.2 -7.5 18.2 -8.3 18.2 -10.7 L 18.2 -31.9 " transform="translate(0.0 38.0)" stroke-dasharray="59.15894992428025" stroke-dashoffset="59.15894992428025"><animate attributeName="stroke-dashoffset" from="59.15894992428025" to="0" dur="1.7747684977284075s" begin="3.2247550845316852s" fill="freeze" /></path><path d="M 28.7 -1.6 C 28.5 -3.2 27.9 -5.3 27.6 -6.6 " transform="translate(0.0 38.0)" stroke-dasharray="5.12233445190375" stroke-dashoffset="5.12233445190375"><animate attributeName="stroke-dashoffset" from="5.12233445190375" to="0" dur="0.1536700335571125s" begin="4.9995235822600925s" fill="freeze" /></path><path d="M 11.8 -7.2 L 11.8 -40.0 " transform="translate(0.0 38.0)" stroke-dasharray="32.8" stroke-dashoffset="32.8"><animate attributeName="stroke-dashoffset" from="32.8" to="0" dur="0.9839999999999999s" begin="5.153193615817205s" fill="freeze" /></path><path d="M 34.3 -3.4 C 33.9 -4.7 33.3 -6.0 32.6 -7.3 " transform="translate(0.0 38.0)" stroke-dasharray="4.261160130511141" stroke-dashoffset="4.261160130511141"><animate attributeName="stroke-dashoffset" from="4.261160130511141" to="0" dur="0.12783480391533422s" begin="6.137193615817205s" fill="freeze" /></path><path d="M 39.6 -5.1 C 39.1 -6.2 38.3 -7.4 37.6 -8.5 " transform="translate(0.0 38.0)" stroke-dasharray="3.9479219939845285" stroke-dashoffset="3.9479219939845285"><animate attributeName="stroke-dashoffset" from="3.9479219939845285" to="0" dur="0.11843765981953586s" begin="6.265028419732539s" fill="freeze" /></path><path d="M 46.3 -18.5 L 25.9 -18.5 " transform="translate(0.0 38.0)" stroke-dasharray="20.4" stroke-dashoffset="20.4"><animate attributeName="stroke-dashoffset" from="20.4" to="0" dur="0.612s" begin="6.3834660795520755s" fill="freeze" /></path><path d="M 40.6 -30.4 L 25.9 -30.4 " transform="translate(0.0 38.0)" stroke-dasharray="14.700000000000003" stroke-dashoffset="14.700000000000003"><animate attributeName="stroke-dashoffset" from="14.700000000000003" to="0" dur="0.44100000000000006s" begin="6.9954660795520756s" fill="freeze" /></path><path d="M 31.2 -36.0 C 31.9 -37.5 32.4 -38.8 32.8 -40.4" transform="translate(0.0 38.0)" stroke-dasharray="4.689739390111984" stroke-dashoffset="4.689739390111984"><animate attributeName="stroke-dashoffset" from="4.689739390111984" to="0" dur="0.1406921817033595s" begin="7.436466079552075s" fill="freeze" /></path></g></svg>