<?xml version='1.0' encoding='utf-8'?>
<svg viewBox="0.0 -6.0 50.0 50.0" version="1.1" xmlns="http://www.w3.org/2000/svg"><rect x="-1000" y="-1000" width="2000" height="2000" stroke="white" fill="white" /><g style="fill:none;stroke:#000000;stroke-width:1"><path d="M 3.1 -0.1 C 5.7 -5.5 7.2 -13.4 7.2 -24.4 L 7.2 -31.9 C 7.2 -34.5 8.2 -35.7 11.5 -35.7 L 46.0 -35.7 " transform="translate(0.0 38.0)" stroke-dasharray="73.53341672499472" stroke-dashoffset="73.53341672499472"><animate attributeName="stroke-dashoffset" from="73.53341672499472" to="0" dur="2.2060025017498415s" begin="0s; anim_end.end" fill="freeze" id="anim0" /></path><path d="M 23.2 1.1 C 24.0 1.2 24.6 1.4 25.4 1.4 C 27.2 1.4 28.2 0.6 28.2 -1.7 L 28.2 -17.4 C 28.2 -19.3 27.4 -20.2 25.0 -20.2 L 15.7 -20.2 C 13.2 -20.2 12.4 -19.3 12.4 -17.4 L 12.4 2.3 " transform="translate(0.0 38.0)" stroke-dasharray="61.73061574879819" stroke-dashoffset="61.73061574879819"><animate attributeName="stroke-dashoffset" from="61.73061574879819" to="0" dur="1.8519184724639457s" begin="anim0.end" fill="freeze" id="anim1" /></path><path d="M 19.5 -4.6 L 21.1 -4.6 C 22.5 -4.6 23.0 -5.2 23.0 -6.7 L 23.0 -12.7 C 23.0 -14.2 22.5 -14.8 21.1 -14.8 L 19.5 -14.8 C 18.1 -14.8 17.6 -14.2 17.6 -12.7 L 17.6 -6.7 C 17.6 -5.2 18.1 -4.6 19.5 -4.6 Z " transform="translate(0.0 38.0)" stroke-dasharray="28.42180499355221" stroke-dashoffset="28.42180499355221"><animate attributeName="stroke-dashoffset" from="28.42180499355221" to="0" dur="0.8526541498065663s" begin="anim1.end" fill="freeze" id="anim2" /></path><path d="M 14.8 -25.2 C 14.2 -26.6 13.2 -28.0 12.4 -29.1 " transform="translate(0.0 38.0)" stroke-dasharray="4.588869433652406" stroke-dashoffset="4.588869433652406"><animate attributeName="stroke-dashoffset" from="4.588869433652406" to="0" dur="0.13766608300957217s" begin="anim2.end" fill="freeze" id="anim3" /></path><path d="M 32.0 1.9 C 39.2 -4.2 42.6 -10.8 43.4 -23.8 " transform="translate(0.0 38.0)" stroke-dasharray="29.061298966193867" stroke-dashoffset="29.061298966193867"><animate attributeName="stroke-dashoffset" from="29.061298966193867" to="0" dur="0.871838968985816s" begin="anim3.end" fill="freeze" id="anim4" /></path><path d="M 20.1 -20.5 L 20.1 -31.4 " transform="translate(0.0 38.0)" stroke-dasharray="10.899999999999999" stroke-dashoffset="10.899999999999999"><animate attributeName="stroke-dashoffset" from="10.899999999999999" to="0" dur="0.32699999999999996s" begin="anim4.end" fill="freeze" id="anim5" /></path><path d="M 46.2 0.8 C 39.6 -4.9 36.4 -11.9 34.9 -21.5 " transform="translate(0.0 38.0)" stroke-dasharray="25.580346335549784" stroke-dashoffset="25.580346335549784"><animate attributeName="stroke-dashoffset" from="25.580346335549784" to="0" dur="0.7674103900664935s" begin="anim5.end" fill="freeze" id="anim6" /></path><path d="M 25.3 -24.5 C 26.4 -26.0 27.4 -27.6 28.2 -29.5 " transform="translate(0.0 38.0)" stroke-dasharray="5.793888168118821" stroke-dashoffset="5.793888168118821"><animate attributeName="stroke-dashoffset" from="5.793888168118821" to="0" dur="0.17381664504356462s" begin="anim6.end" fill="freeze" id="anim7" /></path><path d="M 32.2 -17.0 C 34.6 -21.1 36.4 -26.1 37.2 -30.8 " transform="translate(0.0 38.0)" stroke-dasharray="14.753436312395204" stroke-dashoffset="14.753436312395204"><animate attributeName="stroke-dashoffset" from="14.753436312395204" to="0" dur="0.4426030893718561s" begin="anim7.end" fill="freeze" id="anim8" /></path><path d="M 46.5 -23.9 L 35.1 -23.9 " transform="translate(0.0 38.0)" stroke-dasharray="11.399999999999999" stroke-dashoffset="11.399999999999999"><animate attributeName="stroke-dashoffset" from="11.399999999999999" to="0" dur="0.34199999999999997s" begin="anim8.end" fill="freeze" id="anim9" /></path><path d="M 25.9 -36.0 L 25.9 -41.2" transform="translate(0.0 38.0)" stroke-dasharray="5.200000000000003" stroke-dashoffset="5.200000000000003"><animate attributeName="stroke-dashoffset" from="5.200000000000003" to="0" dur="0.15600000000000008s" begin="anim9.end" fill="freeze" id="anim_end" /></path></g></svg>