<?xml version='1.0' encoding='utf-8'?>
<svg viewBox="0.0 -6.0 50.0 50.0" version="1.1" xmlns="http://www.w3.org/2000/svg"><rect x="-1000" y="-1000" width="2000" height="2000" stroke="white" fill="white" /><g style="fill:none;stroke:#000000;stroke-width:1"><path d="M 4.8 1.8 C 17.6 -1.2 24.8 -8.3 25.3 -20.4 " transform="translate(0.0 38.0)" stroke-dasharray="32.895111377734615" stroke-dashoffset="32.895111377734615"><animate attributeName="stroke-dashoffset" from="32.895111377734615" to="0" dur="0.9868533413320384s" begin="0s" fill="freeze" /></path><path d="M 6.5 -20.3 C 11.4 -22.9 16.7 -27.4 19.8 -31.4 " transform="translate(0.0 38.0)" stroke-dasharray="17.43499122694893" stroke-dashoffset="17.43499122694893"><animate attributeName="stroke-dashoffset" from="17.43499122694893" to="0" dur="0.5230497368084679s" begin="0.9868533413320384s" fill="freeze" /></path><path d="M 45.4 -3.8 C 44.9 0.4 43.1 1.4 35.5 1.4 C 28.4 1.4 27.5 0.8 27.5 -1.9 L 27.5 -11.1 " transform="translate(0.0 38.0)" stroke-dasharray="31.85719366591979" stroke-dashoffset="31.85719366591979"><animate attributeName="stroke-dashoffset" from="31.85719366591979" to="0" dur="0.9557158099775936s" begin="1.5099030781405063s" fill="freeze" /></path><path d="M 37.8 -4.2 C 36.8 -5.3 35.3 -6.6 34.3 -7.3 " transform="translate(0.0 38.0)" stroke-dasharray="4.68310655199232" stroke-dashoffset="4.68310655199232"><animate attributeName="stroke-dashoffset" from="4.68310655199232" to="0" dur="0.14049319655976958s" begin="2.4656188881181s" fill="freeze" /></path><path d="M 16.0 -11.8 L 36.0 -11.8 C 38.7 -11.8 39.6 -12.7 39.6 -14.6 L 39.6 -17.8 C 39.6 -19.6 38.7 -20.4 36.0 -20.4 L 16.0 -20.4 C 13.2 -20.4 12.3 -19.6 12.3 -17.8 L 12.3 -14.6 C 12.3 -12.7 13.2 -11.8 16.0 -11.8 Z " transform="translate(0.0 38.0)" stroke-dasharray="67.42903366590551" stroke-dashoffset="67.42903366590551"><animate attributeName="stroke-dashoffset" from="67.42903366590551" to="0" dur="2.022871009977165s" begin="2.6061120846778696s" fill="freeze" /></path><path d="M 24.5 -20.4 C 25.9 -21.6 27.1 -23.0 28.1 -24.6 C 29.2 -26.4 28.4 -27.6 26.1 -27.6 L 16.9 -27.6 " transform="translate(0.0 38.0)" stroke-dasharray="19.5829636236315" stroke-dashoffset="19.5829636236315"><animate attributeName="stroke-dashoffset" from="19.5829636236315" to="0" dur="0.587488908708945s" begin="4.628983094655035s" fill="freeze" /></path><path d="M 44.0 -28.9 L 44.0 -32.2 C 44.0 -34.0 43.0 -35.2 40.1 -35.2 L 9.9 -35.2 C 7.0 -35.2 6.2 -34.0 6.2 -32.2 L 6.2 -28.4 " transform="translate(0.0 38.0)" stroke-dasharray="48.425832001139455" stroke-dashoffset="48.425832001139455"><animate attributeName="stroke-dashoffset" from="48.425832001139455" to="0" dur="1.4527749600341835s" begin="5.21647200336398s" fill="freeze" /></path><path d="M 24.9 -35.5 L 24.9 -40.6" transform="translate(0.0 38.0)" stroke-dasharray="5.100000000000001" stroke-dashoffset="5.100000000000001"><animate attributeName="stroke-dashoffset" from="5.100000000000001" to="0" dur="0.15300000000000002s" begin="6.669246963398163s" fill="freeze" /></path></g></svg>