<?xml version='1.0' encoding='utf-8'?>
<svg viewBox="0.0 -6.0 50.0 50.0" version="1.1" xmlns="http://www.w3.org/2000/svg"><rect x="-1000" y="-1000" width="2000" height="2000" stroke="white" fill="white" /><g style="fill:none;stroke:#000000;stroke-width:1"><path d="M 24.4 -4.6 L 9.6 -4.6 C 6.8 -4.6 6.0 -5.3 6.0 -7.5 L 6.0 -19.5 " transform="translate(0.0 38.0)" stroke-dasharray="32.24929572499604" stroke-dashoffset="32.24929572499604"><animate attributeName="stroke-dashoffset" from="32.24929572499604" to="0" dur="0.9674788717498811s" begin="0s; anim_end.end" fill="freeze" id="anim0" /></path><path d="M 5.2 2.5 C 7.3 1.5 9.4 0.3 11.1 -1.1 " transform="translate(0.0 38.0)" stroke-dasharray="6.92832790208791" stroke-dashoffset="6.92832790208791"><animate attributeName="stroke-dashoffset" from="6.92832790208791" to="0" dur="0.2078498370626373s" begin="anim0.end" fill="freeze" id="anim1" /></path><path d="M 22.0 1.1 C 20.6 0.1 19.6 -0.6 18.2 -1.3 " transform="translate(0.0 38.0)" stroke-dasharray="4.499834029595366" stroke-dashoffset="4.499834029595366"><animate attributeName="stroke-dashoffset" from="4.499834029595366" to="0" dur="0.13499502088786097s" begin="anim1.end" fill="freeze" id="anim2" /></path><path d="M 26.2 2.3 C 28.1 1.4 30.5 0.1 32.4 -1.4 " transform="translate(0.0 38.0)" stroke-dasharray="7.234533176286707" stroke-dashoffset="7.234533176286707"><animate attributeName="stroke-dashoffset" from="7.234533176286707" to="0" dur="0.2170359952886012s" begin="anim2.end" fill="freeze" id="anim3" /></path><path d="M 21.7 -12.7 L 12.2 -12.7 " transform="translate(0.0 38.0)" stroke-dasharray="9.5" stroke-dashoffset="9.5"><animate attributeName="stroke-dashoffset" from="9.5" to="0" dur="0.285s" begin="anim3.end" fill="freeze" id="anim4" /></path><path d="M 21.9 -10.7 L 21.9 -18.6 C 21.9 -19.9 21.2 -20.5 19.3 -20.5 L 14.8 -20.5 C 12.8 -20.5 12.2 -19.9 12.2 -18.6 L 12.2 -10.7 C 12.2 -9.4 12.8 -8.7 14.8 -8.7 L 19.3 -8.7 C 21.2 -8.7 21.9 -9.4 21.9 -10.7 Z " transform="translate(0.0 38.0)" stroke-dasharray="39.81569198043154" stroke-dashoffset="39.81569198043154"><animate attributeName="stroke-dashoffset" from="39.81569198043154" to="0" dur="1.194470759412946s" begin="anim4.end" fill="freeze" id="anim5" /></path><path d="M 21.7 -16.6 L 12.2 -16.6 " transform="translate(0.0 38.0)" stroke-dasharray="9.5" stroke-dashoffset="9.5"><animate attributeName="stroke-dashoffset" from="9.5" to="0" dur="0.285s" begin="anim5.end" fill="freeze" id="anim6" /></path><path d="M 45.6 1.9 C 43.5 0.9 41.5 -0.3 40.0 -1.4 " transform="translate(0.0 38.0)" stroke-dasharray="6.508976328045389" stroke-dashoffset="6.508976328045389"><animate attributeName="stroke-dashoffset" from="6.508976328045389" to="0" dur="0.19526928984136166s" begin="anim6.end" fill="freeze" id="anim7" /></path><path d="M 8.1 -31.1 L 8.1 -26.9 C 8.1 -25.1 8.8 -24.6 15.1 -24.6 C 21.6 -24.6 22.6 -25.2 22.9 -27.8 " transform="translate(0.0 38.0)" stroke-dasharray="21.935177927769146" stroke-dashoffset="21.935177927769146"><animate attributeName="stroke-dashoffset" from="21.935177927769146" to="0" dur="0.6580553378330743s" begin="anim7.end" fill="freeze" id="anim8" /></path><path d="M 8.4 -28.6 C 12.8 -29.1 16.6 -29.8 19.9 -30.8 " transform="translate(0.0 38.0)" stroke-dasharray="11.724310285320948" stroke-dashoffset="11.724310285320948"><animate attributeName="stroke-dashoffset" from="11.724310285320948" to="0" dur="0.3517293085596284s" begin="anim8.end" fill="freeze" id="anim9" /></path><path d="M 43.5 -11.4 L 29.7 -11.4 " transform="translate(0.0 38.0)" stroke-dasharray="13.8" stroke-dashoffset="13.8"><animate attributeName="stroke-dashoffset" from="13.8" to="0" dur="0.414s" begin="anim9.end" fill="freeze" id="anim10" /></path><path d="M 29.6 -20.8 L 29.6 -7.9 C 29.6 -5.9 30.4 -5.0 32.8 -5.0 L 40.5 -5.0 C 43.0 -5.0 43.9 -5.9 43.9 -7.9 L 43.9 -20.8 C 43.9 -22.8 43.0 -23.6 40.5 -23.6 L 32.8 -23.6 C 30.4 -23.6 29.6 -22.8 29.6 -20.8 Z " transform="translate(0.0 38.0)" stroke-dasharray="61.52071251818012" stroke-dashoffset="61.52071251818012"><animate attributeName="stroke-dashoffset" from="61.52071251818012" to="0" dur="1.8456213755454034s" begin="anim10.end" fill="freeze" id="anim11" /></path><path d="M 43.5 -17.6 L 29.7 -17.6 " transform="translate(0.0 38.0)" stroke-dasharray="13.8" stroke-dashoffset="13.8"><animate attributeName="stroke-dashoffset" from="13.8" to="0" dur="0.414s" begin="anim11.end" fill="freeze" id="anim12" /></path><path d="M 35.0 -23.7 C 35.9 -25.9 36.3 -27.1 36.9 -29.6 " transform="translate(0.0 38.0)" stroke-dasharray="6.2064279511273615" stroke-dashoffset="6.2064279511273615"><animate attributeName="stroke-dashoffset" from="6.2064279511273615" to="0" dur="0.18619283853382085s" begin="anim12.end" fill="freeze" id="anim13" /></path><path d="M 8.8 -40.0 L 8.8 -37.5 C 8.8 -35.9 9.6 -35.2 11.9 -35.2 L 38.1 -35.2 C 40.5 -35.2 41.3 -35.9 41.3 -37.5 L 41.3 -40.0 " transform="translate(0.0 38.0)" stroke-dasharray="40.229994662099784" stroke-dashoffset="40.229994662099784"><animate attributeName="stroke-dashoffset" from="40.229994662099784" to="0" dur="1.2068998398629935s" begin="anim13.end" fill="freeze" id="anim14" /></path><path d="M 24.8 -35.5 L 24.8 -41.1 " transform="translate(0.0 38.0)" stroke-dasharray="5.600000000000001" stroke-dashoffset="5.600000000000001"><animate attributeName="stroke-dashoffset" from="5.600000000000001" to="0" dur="0.16800000000000004s" begin="anim14.end" fill="freeze" id="anim15" /></path><path d="M 46.2 -29.8 L 27.5 -29.8" transform="translate(0.0 38.0)" stroke-dasharray="18.700000000000003" stroke-dashoffset="18.700000000000003"><animate attributeName="stroke-dashoffset" from="18.700000000000003" to="0" dur="0.561s" begin="anim15.end" fill="freeze" id="anim_end" /></path></g></svg>