<?xml version='1.0' encoding='utf-8'?>
<svg viewBox="0.0 -6.0 50.0 50.0" version="1.1" xmlns="http://www.w3.org/2000/svg"><rect x="-1000" y="-1000" width="2000" height="2000" stroke="white" fill="white" /><g style="fill:none;stroke:#000000;stroke-width:1"><path d="M 16.1 -9.2 C 24.6 -11.9 33.5 -17.4 38.1 -23.5 C 39.6 -25.4 38.6 -26.9 36.4 -26.9 L 26.8 -26.9 " transform="translate(0.0 38.0)" stroke-dasharray="41.38885000100438" stroke-dashoffset="41.38885000100438"><animate attributeName="stroke-dashoffset" from="41.38885000100438" to="0" dur="1.2416655000301313s" begin="0s" fill="freeze" /></path><path d="M 8.1 -13.1 L 10.5 -13.1 C 12.6 -13.1 13.4 -13.9 13.4 -16.1 L 13.4 -32.9 C 13.4 -35.1 12.6 -36.0 10.5 -36.0 L 8.1 -36.0 C 6.0 -36.0 5.0 -35.1 5.0 -32.9 L 5.0 -16.1 C 5.0 -13.9 6.0 -13.1 8.1 -13.1 Z " transform="translate(0.0 38.0)" stroke-dasharray="58.30363282691525" stroke-dashoffset="58.30363282691525"><animate attributeName="stroke-dashoffset" from="58.30363282691525" to="0" dur="1.7491089848074575s" begin="1.2416655000301313s" fill="freeze" /></path><path d="M 28.2 1.9 L 36.4 1.9 C 38.9 1.9 39.8 1.0 39.8 -1.1 L 39.8 -5.7 C 39.8 -7.8 38.8 -8.7 36.1 -8.7 L 28.2 -8.7 C 25.6 -8.7 24.7 -7.8 24.7 -5.7 L 24.7 -1.1 C 24.7 1.0 25.6 1.9 28.2 1.9 Z " transform="translate(0.0 38.0)" stroke-dasharray="46.84159501266952" stroke-dashoffset="46.84159501266952"><animate attributeName="stroke-dashoffset" from="46.84159501266952" to="0" dur="1.4052478503800856s" begin="2.990774484837589s" fill="freeze" /></path><path d="M 21.1 -19.8 C 24.1 -22.3 27.2 -26.2 29.1 -30.2 " transform="translate(0.0 38.0)" stroke-dasharray="13.214342417038596" stroke-dashoffset="13.214342417038596"><animate attributeName="stroke-dashoffset" from="13.214342417038596" to="0" dur="0.39643027251115787s" begin="4.396022335217674s" fill="freeze" /></path><path d="M 46.1 -10.5 C 38.6 -13.2 30.9 -18.3 26.2 -24.7 " transform="translate(0.0 38.0)" stroke-dasharray="24.782803545053895" stroke-dashoffset="24.782803545053895"><animate attributeName="stroke-dashoffset" from="24.782803545053895" to="0" dur="0.7434841063516168s" begin="4.7924526077288325s" fill="freeze" /></path><path d="M 44.5 -29.7 L 44.5 -31.9 C 44.5 -33.8 43.5 -35.0 40.8 -35.0 L 23.8 -35.0 C 21.0 -35.0 20.1 -33.8 20.1 -31.9 L 20.1 -29.4 " transform="translate(0.0 38.0)" stroke-dasharray="32.797327114568745" stroke-dashoffset="32.797327114568745"><animate attributeName="stroke-dashoffset" from="32.797327114568745" to="0" dur="0.9839198134370624s" begin="5.535936714080449s" fill="freeze" /></path><path d="M 31.9 -34.9 L 31.9 -40.0" transform="translate(0.0 38.0)" stroke-dasharray="5.100000000000001" stroke-dashoffset="5.100000000000001"><animate attributeName="stroke-dashoffset" from="5.100000000000001" to="0" dur="0.15300000000000002s" begin="6.519856527517511s" fill="freeze" /></path></g></svg>