<?xml version='1.0' encoding='utf-8'?>
<svg viewBox="0.0 -6.0 50.0 50.0" version="1.1" xmlns="http://www.w3.org/2000/svg"><rect x="-1000" y="-1000" width="2000" height="2000" stroke="white" fill="white" /><g style="fill:none;stroke:#000000;stroke-width:1"><path d="M 28.9 1.1 L 40.4 1.1 C 43.1 1.1 44.3 0.1 44.3 -2.6 L 44.3 -25.8 C 44.3 -28.4 43.1 -29.5 40.4 -29.5 L 28.9 -29.5 C 26.1 -29.5 25.0 -28.4 25.0 -25.8 L 25.0 -2.6 C 25.0 0.1 26.2 1.1 28.9 1.1 Z " transform="translate(0.0 38.0)" stroke-dasharray="94.37778850533914" stroke-dashoffset="94.37778850533914"><animate attributeName="stroke-dashoffset" from="94.37778850533914" to="0" dur="2.831333655160174s" begin="0s; anim_end.end" fill="freeze" id="anim0" /></path><path d="M 5.3 -31.4 L 5.3 -9.6 C 5.3 -7.2 6.4 -6.3 8.4 -6.3 L 15.1 -6.3 C 17.1 -6.3 18.2 -7.2 18.2 -9.6 L 18.2 -31.4 " transform="translate(0.0 38.0)" stroke-dasharray="60.7528956905285" stroke-dashoffset="60.7528956905285"><animate attributeName="stroke-dashoffset" from="60.7528956905285" to="0" dur="1.8225868707158548s" begin="anim0.end" fill="freeze" id="anim1" /></path><path d="M 11.7 -6.0 L 11.7 -39.5 " transform="translate(0.0 38.0)" stroke-dasharray="33.5" stroke-dashoffset="33.5"><animate attributeName="stroke-dashoffset" from="33.5" to="0" dur="1.005s" begin="anim1.end" fill="freeze" id="anim2" /></path><path d="M 44.0 -15.2 L 25.8 -15.2 " transform="translate(0.0 38.0)" stroke-dasharray="18.2" stroke-dashoffset="18.2"><animate attributeName="stroke-dashoffset" from="18.2" to="0" dur="0.5459999999999999s" begin="anim2.end" fill="freeze" id="anim3" /></path><path d="M 34.4 0.0 L 34.4 -40.0" transform="translate(0.0 38.0)" stroke-dasharray="40.0" stroke-dashoffset="40.0"><animate attributeName="stroke-dashoffset" from="40.0" to="0" dur="1.2s" begin="anim3.end" fill="freeze" id="anim_end" /></path></g></svg>