<?xml version='1.0' encoding='utf-8'?>
<svg viewBox="0.0 -6.0 50.0 50.0" version="1.1" xmlns="http://www.w3.org/2000/svg"><rect x="-1000" y="-1000" width="2000" height="2000" stroke="white" fill="white" /><g style="fill:none;stroke:#000000;stroke-width:1"><path d="M 36.5 0.2 C 37.5 0.5 38.5 0.6 39.3 0.6 C 41.6 0.6 42.8 -0.3 42.8 -3.1 L 42.8 -38.4 " transform="translate(0.0 38.0)" stroke-dasharray="44.05479733114878" stroke-dashoffset="44.05479733114878"><animate attributeName="stroke-dashoffset" from="44.05479733114878" to="0" dur="1.3216439199344632s" begin="0s; 15s; 30s; 45s" fill="freeze" id="anim0" /></path><path d="M 4.2 -3.0 C 8.2 -6.5 11.7 -11.3 13.8 -15.8 " transform="translate(0.0 38.0)" stroke-dasharray="16.10721683711256" stroke-dashoffset="16.10721683711256"><animate attributeName="stroke-dashoffset" from="16.10721683711256" to="0" dur="0.48321650511337677s" begin="anim0.end" fill="freeze" id="anim1" /></path><path d="M 15.5 2.5 L 15.5 -25.2 " transform="translate(0.0 38.0)" stroke-dasharray="27.7" stroke-dashoffset="27.7"><animate attributeName="stroke-dashoffset" from="27.7" to="0" dur="0.831s" begin="anim1.end" fill="freeze" id="anim2" /></path><path d="M 24.2 -7.3 C 22.2 -9.1 19.3 -11.1 16.6 -12.2 " transform="translate(0.0 38.0)" stroke-dasharray="9.082926949951496" stroke-dashoffset="9.082926949951496"><animate attributeName="stroke-dashoffset" from="9.082926949951496" to="0" dur="0.27248780849854487s" begin="anim2.end" fill="freeze" id="anim3" /></path><path d="M 24.1 -18.8 L 5.5 -18.8 " transform="translate(0.0 38.0)" stroke-dasharray="18.6" stroke-dashoffset="18.6"><animate attributeName="stroke-dashoffset" from="18.6" to="0" dur="0.558s" begin="anim3.end" fill="freeze" id="anim4" /></path><path d="M 4.5 -26.1 C 10.4 -28.5 18.2 -33.2 22.8 -38.9 " transform="translate(0.0 38.0)" stroke-dasharray="22.542234138835028" stroke-dashoffset="22.542234138835028"><animate attributeName="stroke-dashoffset" from="22.542234138835028" to="0" dur="0.6762670241650508s" begin="anim4.end" fill="freeze" id="anim5" /></path><path d="M 23.2 -28.3 C 19.1 -31.6 12.6 -35.1 7.8 -37.0 " transform="translate(0.0 38.0)" stroke-dasharray="17.742362538652287" stroke-dashoffset="17.742362538652287"><animate attributeName="stroke-dashoffset" from="17.742362538652287" to="0" dur="0.5322708761595686s" begin="anim5.end" fill="freeze" id="anim6" /></path><path d="M 32.5 -9.8 L 32.5 -35.6" transform="translate(0.0 38.0)" stroke-dasharray="25.8" stroke-dashoffset="25.8"><animate attributeName="stroke-dashoffset" from="25.8" to="0" dur="0.774s" begin="anim6.end" fill="freeze" id="anim_end" /></path></g></svg>