<?xml version='1.0' encoding='utf-8'?>
<svg viewBox="0.0 -6.0 50.0 50.0" version="1.1" xmlns="http://www.w3.org/2000/svg"><rect x="-1000" y="-1000" width="2000" height="2000" stroke="white" fill="white" /><g style="fill:none;stroke:#000000;stroke-width:1"><path d="M 4.5 0.1 C 10.4 -5.6 14.7 -16.1 15.1 -27.1 C 15.2 -29.1 14.2 -29.9 12.2 -29.9 L 3.4 -29.9 " transform="translate(0.0 38.0)" stroke-dasharray="43.35623054646889" stroke-dashoffset="43.35623054646889"><animate attributeName="stroke-dashoffset" from="43.35623054646889" to="0" dur="1.3006869163940669s" begin="0s; anim_end.end" fill="freeze" id="anim0" /></path><path d="M 15.4 -7.3 C 12.8 -9.8 9.3 -12.1 5.8 -13.8 " transform="translate(0.0 38.0)" stroke-dasharray="11.638361937404495" stroke-dashoffset="11.638361937404495"><animate attributeName="stroke-dashoffset" from="11.638361937404495" to="0" dur="0.34915085812213487s" begin="anim0.end" fill="freeze" id="anim1" /></path><path d="M 17.8 -2.5 C 22.1 -5.3 26.4 -9.4 29.8 -14.3 " transform="translate(0.0 38.0)" stroke-dasharray="16.931514181891682" stroke-dashoffset="16.931514181891682"><animate attributeName="stroke-dashoffset" from="16.931514181891682" to="0" dur="0.5079454254567505s" begin="anim1.end" fill="freeze" id="anim2" /></path><path d="M 4.5 -12.4 C 6.8 -20.3 8.8 -30.4 9.9 -40.2 " transform="translate(0.0 38.0)" stroke-dasharray="28.35168437440953" stroke-dashoffset="28.35168437440953"><animate attributeName="stroke-dashoffset" from="28.35168437440953" to="0" dur="0.8505505312322859s" begin="anim2.end" fill="freeze" id="anim3" /></path><path d="M 21.4 1.4 C 22.2 1.7 23.3 1.9 24.5 1.9 C 26.4 1.9 28.1 0.8 28.7 -2.3 C 29.4 -6.2 29.9 -13.1 30.1 -18.9 C 30.1 -20.8 29.4 -21.8 27.2 -21.8 L 21.1 -21.8 " transform="translate(0.0 38.0)" stroke-dasharray="37.211295391647475" stroke-dashoffset="37.211295391647475"><animate attributeName="stroke-dashoffset" from="37.211295391647475" to="0" dur="1.1163388617494243s" begin="anim3.end" fill="freeze" id="anim4" /></path><path d="M 19.6 -11.8 C 22.6 -14.0 25.4 -17.4 27.6 -21.1 " transform="translate(0.0 38.0)" stroke-dasharray="12.345672292564842" stroke-dashoffset="12.345672292564842"><animate attributeName="stroke-dashoffset" from="12.345672292564842" to="0" dur="0.37037016877694523s" begin="anim4.end" fill="freeze" id="anim5" /></path><path d="M 34.0 -3.6 C 38.1 -6.5 42.0 -10.5 44.5 -14.7 " transform="translate(0.0 38.0)" stroke-dasharray="15.384692203165265" stroke-dashoffset="15.384692203165265"><animate attributeName="stroke-dashoffset" from="15.384692203165265" to="0" dur="0.4615407660949579s" begin="anim5.end" fill="freeze" id="anim6" /></path><path d="M 36.6 1.3 C 37.5 1.5 38.5 1.7 39.6 1.7 C 41.6 1.7 43.3 0.7 43.9 -2.5 C 44.6 -6.5 45.1 -13.2 45.2 -18.9 C 45.2 -20.8 44.5 -21.8 42.3 -21.8 L 35.9 -21.8 " transform="translate(0.0 38.0)" stroke-dasharray="37.29703252641811" stroke-dashoffset="37.29703252641811"><animate attributeName="stroke-dashoffset" from="37.29703252641811" to="0" dur="1.118910975792543s" begin="anim6.end" fill="freeze" id="anim7" /></path><path d="M 34.5 -11.7 C 37.5 -14.1 40.4 -17.6 42.5 -21.2 " transform="translate(0.0 38.0)" stroke-dasharray="12.485359476956976" stroke-dashoffset="12.485359476956976"><animate attributeName="stroke-dashoffset" from="12.485359476956976" to="0" dur="0.37456078430870926s" begin="anim7.end" fill="freeze" id="anim8" /></path><path d="M 20.2 -20.2 L 21.2 -27.6 C 21.4 -29.2 22.1 -29.8 23.9 -29.8 L 26.3 -29.8 C 28.6 -29.8 29.4 -30.5 29.4 -32.3 L 29.4 -35.8 C 29.4 -37.7 28.6 -38.4 26.3 -38.4 L 19.7 -38.4 " transform="translate(0.0 38.0)" stroke-dasharray="33.296846614356554" stroke-dashoffset="33.296846614356554"><animate attributeName="stroke-dashoffset" from="33.296846614356554" to="0" dur="0.9989053984306966s" begin="anim8.end" fill="freeze" id="anim9" /></path><path d="M 35.0 -20.2 L 36.0 -27.6 C 36.1 -29.2 36.9 -29.8 38.6 -29.8 L 41.2 -29.8 C 43.5 -29.8 44.3 -30.5 44.3 -32.3 L 44.3 -35.8 C 44.3 -37.7 43.5 -38.4 41.2 -38.4 L 34.8 -38.4" transform="translate(0.0 38.0)" stroke-dasharray="33.235875673170156" stroke-dashoffset="33.235875673170156"><animate attributeName="stroke-dashoffset" from="33.235875673170156" to="0" dur="0.9970762701951047s" begin="anim9.end" fill="freeze" id="anim_end" /></path></g></svg>