<?xml version='1.0' encoding='utf-8'?>
<svg viewBox="0.0 -6.0 50.0 50.0" version="1.1" xmlns="http://www.w3.org/2000/svg"><rect x="-1000" y="-1000" width="2000" height="2000" stroke="white" fill="white" /><g style="fill:none;stroke:#000000;stroke-width:1"><path d="M 18.4 2.8 L 18.4 -16.6 C 18.4 -18.4 19.1 -19.1 21.4 -19.1 L 26.1 -19.1 C 28.4 -19.1 29.1 -18.4 29.1 -16.6 L 29.1 -11.9 C 29.1 -10.2 28.4 -9.5 26.1 -9.5 L 18.8 -9.5 " transform="translate(0.0 38.0)" stroke-dasharray="49.73533090817349" stroke-dashoffset="49.73533090817349"><animate attributeName="stroke-dashoffset" from="49.73533090817349" to="0" dur="1.4920599272452046s" begin="0s; anim_end.end" fill="freeze" id="anim0" /></path><path d="M 29.4 -0.6 L 18.6 -0.6 " transform="translate(0.0 38.0)" stroke-dasharray="10.799999999999997" stroke-dashoffset="10.799999999999997"><animate attributeName="stroke-dashoffset" from="10.799999999999997" to="0" dur="0.3239999999999999s" begin="anim0.end" fill="freeze" id="anim1" /></path><path d="M 29.4 -5.0 L 18.6 -5.0 " transform="translate(0.0 38.0)" stroke-dasharray="10.799999999999997" stroke-dashoffset="10.799999999999997"><animate attributeName="stroke-dashoffset" from="10.799999999999997" to="0" dur="0.3239999999999999s" begin="anim1.end" fill="freeze" id="anim2" /></path><path d="M 11.8 -14.2 L 11.8 -32.1 C 11.8 -34.2 11.1 -35.0 9.2 -35.0 L 7.2 -35.0 C 5.3 -35.0 4.5 -34.2 4.5 -32.1 L 4.5 -14.2 C 4.5 -12.2 5.3 -11.4 7.2 -11.4 L 9.2 -11.4 C 11.1 -11.4 11.8 -12.2 11.8 -14.2 Z " transform="translate(0.0 38.0)" stroke-dasharray="57.936593870473324" stroke-dashoffset="57.936593870473324"><animate attributeName="stroke-dashoffset" from="57.936593870473324" to="0" dur="1.7380978161141996s" begin="anim2.end" fill="freeze" id="anim3" /></path><path d="M 28.9 -14.4 L 18.8 -14.4 " transform="translate(0.0 38.0)" stroke-dasharray="10.099999999999998" stroke-dashoffset="10.099999999999998"><animate attributeName="stroke-dashoffset" from="10.099999999999998" to="0" dur="0.30299999999999994s" begin="anim3.end" fill="freeze" id="anim4" /></path><path d="M 37.1 -5.9 C 36.4 -6.9 35.5 -8.0 34.6 -8.8 " transform="translate(0.0 38.0)" stroke-dasharray="3.836885981771264" stroke-dashoffset="3.836885981771264"><animate attributeName="stroke-dashoffset" from="3.836885981771264" to="0" dur="0.11510657945313792s" begin="anim4.end" fill="freeze" id="anim5" /></path><path d="M 38.2 1.6 C 38.9 1.6 39.5 1.7 40.1 1.7 C 41.9 1.7 42.6 1.1 42.6 -1.1 L 42.6 -19.4 " transform="translate(0.0 38.0)" stroke-dasharray="24.62058570854116" stroke-dashoffset="24.62058570854116"><animate attributeName="stroke-dashoffset" from="24.62058570854116" to="0" dur="0.7386175712562347s" begin="anim5.end" fill="freeze" id="anim6" /></path><path d="M 16.8 -30.4 C 18.8 -32.5 20.6 -35.2 21.9 -38.0 " transform="translate(0.0 38.0)" stroke-dasharray="9.191636296365504" stroke-dashoffset="9.191636296365504"><animate attributeName="stroke-dashoffset" from="9.191636296365504" to="0" dur="0.2757490888909651s" begin="anim6.end" fill="freeze" id="anim7" /></path><path d="M 27.6 -23.9 L 27.6 -29.9 " transform="translate(0.0 38.0)" stroke-dasharray="6.0" stroke-dashoffset="6.0"><animate attributeName="stroke-dashoffset" from="6.0" to="0" dur="0.18s" begin="anim7.end" fill="freeze" id="anim8" /></path><path d="M 47.3 -14.7 L 33.0 -14.7 " transform="translate(0.0 38.0)" stroke-dasharray="14.299999999999997" stroke-dashoffset="14.299999999999997"><animate attributeName="stroke-dashoffset" from="14.299999999999997" to="0" dur="0.4289999999999999s" begin="anim8.end" fill="freeze" id="anim9" /></path><path d="M 20.1 -27.9 L 20.1 -25.8 C 20.1 -24.4 20.8 -23.7 22.9 -23.7 L 40.2 -23.7 C 42.4 -23.7 43.0 -24.4 43.0 -25.8 L 43.0 -27.9 C 43.0 -29.2 42.4 -29.9 40.2 -29.9 L 22.9 -29.9 C 20.8 -29.9 20.1 -29.2 20.1 -27.9 Z " transform="translate(0.0 38.0)" stroke-dasharray="54.84068603850046" stroke-dashoffset="54.84068603850046"><animate attributeName="stroke-dashoffset" from="54.84068603850046" to="0" dur="1.6452205811550136s" begin="anim9.end" fill="freeze" id="anim10" /></path><path d="M 35.4 -23.9 L 35.4 -29.9 " transform="translate(0.0 38.0)" stroke-dasharray="6.0" stroke-dashoffset="6.0"><animate attributeName="stroke-dashoffset" from="6.0" to="0" dur="0.18s" begin="anim10.end" fill="freeze" id="anim11" /></path><path d="M 22.0 -37.5 C 27.8 -37.8 35.6 -38.5 41.4 -39.7 " transform="translate(0.0 38.0)" stroke-dasharray="19.54074439966662" stroke-dashoffset="19.54074439966662"><animate attributeName="stroke-dashoffset" from="19.54074439966662" to="0" dur="0.5862223319899986s" begin="anim11.end" fill="freeze" id="anim12" /></path><path d="M 45.8 -32.6 C 44.5 -33.9 43.1 -35.1 41.9 -36.1 " transform="translate(0.0 38.0)" stroke-dasharray="5.2420528606069485" stroke-dashoffset="5.2420528606069485"><animate attributeName="stroke-dashoffset" from="5.2420528606069485" to="0" dur="0.15726158581820845s" begin="anim12.end" fill="freeze" id="anim13" /></path><path d="M 32.0 -32.9 C 31.5 -33.7 31.0 -34.5 30.3 -35.4" transform="translate(0.0 38.0)" stroke-dasharray="3.024771316447112" stroke-dashoffset="3.024771316447112"><animate attributeName="stroke-dashoffset" from="3.024771316447112" to="0" dur="0.09074313949341335s" begin="anim13.end" fill="freeze" id="anim_end" /></path></g></svg>