<?xml version='1.0' encoding='utf-8'?>
<svg viewBox="0.0 -6.0 50.0 50.0" version="1.1" xmlns="http://www.w3.org/2000/svg"><rect x="-1000" y="-1000" width="2000" height="2000" stroke="white" fill="white" /><g style="fill:none;stroke:#000000;stroke-width:1"><path d="M 44.6 1.0 L 25.4 1.0 C 22.7 1.0 21.4 0.1 21.4 -2.5 L 21.4 -14.1 " transform="translate(0.0 38.0)" stroke-dasharray="36.96955103221883" stroke-dashoffset="36.96955103221883"><animate attributeName="stroke-dashoffset" from="36.96955103221883" to="0" dur="1.109086530966565s" begin="0s; 15s; 30s; 45s" fill="freeze" id="anim0" /></path><path d="M 2.8 -9.8 C 5.6 -14.2 8.0 -20.4 9.2 -26.2 " transform="translate(0.0 38.0)" stroke-dasharray="17.691938281887836" stroke-dashoffset="17.691938281887836"><animate attributeName="stroke-dashoffset" from="17.691938281887836" to="0" dur="0.530758148456635s" begin="anim0.end" fill="freeze" id="anim1" /></path><path d="M 16.1 -18.4 C 14.9 -20.0 13.2 -21.7 11.2 -23.1 " transform="translate(0.0 38.0)" stroke-dasharray="6.816943682139513" stroke-dashoffset="6.816943682139513"><animate attributeName="stroke-dashoffset" from="6.816943682139513" to="0" dur="0.20450831046418538s" begin="anim1.end" fill="freeze" id="anim2" /></path><path d="M 26.2 -4.5 C 28.9 -6.5 30.2 -9.3 30.4 -13.4 " transform="translate(0.0 38.0)" stroke-dasharray="10.208025538623485" stroke-dashoffset="10.208025538623485"><animate attributeName="stroke-dashoffset" from="10.208025538623485" to="0" dur="0.30624076615870455s" begin="anim2.end" fill="freeze" id="anim3" /></path><path d="M 15.8 -29.4 L 3.5 -29.4 " transform="translate(0.0 38.0)" stroke-dasharray="12.3" stroke-dashoffset="12.3"><animate attributeName="stroke-dashoffset" from="12.3" to="0" dur="0.369s" begin="anim3.end" fill="freeze" id="anim4" /></path><path d="M 46.5 -13.8 L 17.6 -13.8 " transform="translate(0.0 38.0)" stroke-dasharray="28.9" stroke-dashoffset="28.9"><animate attributeName="stroke-dashoffset" from="28.9" to="0" dur="0.8669999999999999s" begin="anim4.end" fill="freeze" id="anim5" /></path><path d="M 44.1 -8.9 C 43.6 -6.2 42.5 -5.4 40.0 -5.4 C 37.2 -5.4 36.6 -5.8 36.6 -7.5 L 36.6 -13.8 " transform="translate(0.0 38.0)" stroke-dasharray="17.078580317503448" stroke-dashoffset="17.078580317503448"><animate attributeName="stroke-dashoffset" from="17.078580317503448" to="0" dur="0.5123574095251034s" begin="anim5.end" fill="freeze" id="anim6" /></path><path d="M 38.0 -20.8 L 25.6 -20.8 " transform="translate(0.0 38.0)" stroke-dasharray="12.399999999999999" stroke-dashoffset="12.399999999999999"><animate attributeName="stroke-dashoffset" from="12.399999999999999" to="0" dur="0.37199999999999994s" begin="anim6.end" fill="freeze" id="anim7" /></path><path d="M 25.4 -13.8 L 25.4 -40.2 " transform="translate(0.0 38.0)" stroke-dasharray="26.400000000000002" stroke-dashoffset="26.400000000000002"><animate attributeName="stroke-dashoffset" from="26.400000000000002" to="0" dur="0.792s" begin="anim7.end" fill="freeze" id="anim8" /></path><path d="M 38.0 -27.4 L 25.6 -27.4 " transform="translate(0.0 38.0)" stroke-dasharray="12.399999999999999" stroke-dashoffset="12.399999999999999"><animate attributeName="stroke-dashoffset" from="12.399999999999999" to="0" dur="0.37199999999999994s" begin="anim8.end" fill="freeze" id="anim9" /></path><path d="M 38.2 -13.8 L 38.2 -40.2 " transform="translate(0.0 38.0)" stroke-dasharray="26.400000000000002" stroke-dashoffset="26.400000000000002"><animate attributeName="stroke-dashoffset" from="26.400000000000002" to="0" dur="0.792s" begin="anim9.end" fill="freeze" id="anim10" /></path><path d="M 45.3 -34.1 L 19.2 -34.1 " transform="translate(0.0 38.0)" stroke-dasharray="26.099999999999998" stroke-dashoffset="26.099999999999998"><animate attributeName="stroke-dashoffset" from="26.099999999999998" to="0" dur="0.7829999999999999s" begin="anim10.end" fill="freeze" id="anim11" /></path><path d="M 10.3 2.6 L 10.3 -40.3" transform="translate(0.0 38.0)" stroke-dasharray="42.9" stroke-dashoffset="42.9"><animate attributeName="stroke-dashoffset" from="42.9" to="0" dur="1.287s" begin="anim11.end" fill="freeze" id="anim_end" /></path></g></svg>