<?xml version='1.0' encoding='utf-8'?>
<svg viewBox="0.0 -6.0 50.0 50.0" version="1.1" xmlns="http://www.w3.org/2000/svg"><rect x="-1000" y="-1000" width="2000" height="2000" stroke="white" fill="white" /><g style="fill:none;stroke:#000000;stroke-width:1"><path d="M 29.1 1.2 C 36.0 -2.5 41.8 -9.0 43.8 -16.2 C 44.2 -18.1 43.2 -19.1 41.2 -19.1 L 31.8 -19.1 " transform="translate(0.0 38.0)" stroke-dasharray="37.45040492050135" stroke-dashoffset="37.45040492050135"><animate attributeName="stroke-dashoffset" from="37.45040492050135" to="0" dur="1.1235121476150405s" begin="0s" fill="freeze" /></path><path d="M 2.6 -10.1 C 5.3 -14.4 7.5 -20.4 8.7 -26.2 " transform="translate(0.0 38.0)" stroke-dasharray="17.30043878029177" stroke-dashoffset="17.30043878029177"><animate attributeName="stroke-dashoffset" from="17.30043878029177" to="0" dur="0.5190131634087531s" begin="1.1235121476150405s" fill="freeze" /></path><path d="M 9.8 2.8 L 9.8 -40.5 " transform="translate(0.0 38.0)" stroke-dasharray="43.3" stroke-dashoffset="43.3"><animate attributeName="stroke-dashoffset" from="43.3" to="0" dur="1.299s" begin="1.6425253110237936s" fill="freeze" /></path><path d="M 15.9 -5.3 C 20.4 -6.3 25.6 -8.1 29.1 -9.7 " transform="translate(0.0 38.0)" stroke-dasharray="13.936019094418912" stroke-dashoffset="13.936019094418912"><animate attributeName="stroke-dashoffset" from="13.936019094418912" to="0" dur="0.41808057283256733s" begin="2.9415253110237938s" fill="freeze" /></path><path d="M 15.0 -17.7 C 13.7 -19.4 11.9 -21.2 9.9 -22.6 " transform="translate(0.0 38.0)" stroke-dasharray="7.098944710617434" stroke-dashoffset="7.098944710617434"><animate attributeName="stroke-dashoffset" from="7.098944710617434" to="0" dur="0.212968341318523s" begin="3.359605883856361s" fill="freeze" /></path><path d="M 20.1 2.3 L 20.1 -36.5 " transform="translate(0.0 38.0)" stroke-dasharray="38.8" stroke-dashoffset="38.8"><animate attributeName="stroke-dashoffset" from="38.8" to="0" dur="1.164s" begin="3.572574225174884s" fill="freeze" /></path><path d="M 14.8 -29.2 L 3.1 -29.2 " transform="translate(0.0 38.0)" stroke-dasharray="11.700000000000001" stroke-dashoffset="11.700000000000001"><animate attributeName="stroke-dashoffset" from="11.700000000000001" to="0" dur="0.35100000000000003s" begin="4.736574225174884s" fill="freeze" /></path><path d="M 27.4 -18.2 L 20.8 -18.2 " transform="translate(0.0 38.0)" stroke-dasharray="6.599999999999998" stroke-dashoffset="6.599999999999998"><animate attributeName="stroke-dashoffset" from="6.599999999999998" to="0" dur="0.19799999999999993s" begin="5.087574225174884s" fill="freeze" /></path><path d="M 45.8 0.2 C 40.0 -3.9 35.7 -10.2 34.0 -18.4 " transform="translate(0.0 38.0)" stroke-dasharray="22.565968731515067" stroke-dashoffset="22.565968731515067"><animate attributeName="stroke-dashoffset" from="22.565968731515067" to="0" dur="0.676979061945452s" begin="5.285574225174884s" fill="freeze" /></path><path d="M 27.4 -27.6 L 20.8 -27.6 " transform="translate(0.0 38.0)" stroke-dasharray="6.599999999999998" stroke-dashoffset="6.599999999999998"><animate attributeName="stroke-dashoffset" from="6.599999999999998" to="0" dur="0.19799999999999993s" begin="5.962553287120335s" fill="freeze" /></path><path d="M 21.2 -36.0 C 24.0 -37.1 26.4 -38.1 28.4 -39.5 " transform="translate(0.0 38.0)" stroke-dasharray="8.024597528364076" stroke-dashoffset="8.024597528364076"><animate attributeName="stroke-dashoffset" from="8.024597528364076" to="0" dur="0.24073792585092227s" begin="6.160553287120335s" fill="freeze" /></path><path d="M 31.2 -24.4 C 33.2 -26.4 34.4 -29.1 34.4 -33.4 L 34.4 -36.0 C 34.4 -37.9 34.8 -38.6 37.0 -38.6 L 39.1 -38.6 C 41.2 -38.6 41.6 -37.9 41.6 -36.0 L 41.6 -27.9 C 41.6 -26.4 42.0 -25.6 44.1 -25.6 C 46.2 -25.6 47.1 -26.4 47.4 -29.8" transform="translate(0.0 38.0)" stroke-dasharray="41.40831879457138" stroke-dashoffset="41.40831879457138"><animate attributeName="stroke-dashoffset" from="41.40831879457138" to="0" dur="1.2422495638371414s" begin="6.401291212971257s" fill="freeze" /></path></g></svg>