<?xml version='1.0' encoding='utf-8'?>
<svg viewBox="0.0 -6.0 50.0 50.0" version="1.1" xmlns="http://www.w3.org/2000/svg"><rect x="-1000" y="-1000" width="2000" height="2000" stroke="white" fill="white" /><g style="fill:none;stroke:#000000;stroke-width:1"><path d="M 42.5 -5.3 C 42.0 -0.6 40.4 0.6 35.8 0.6 C 31.1 0.6 30.2 -0.4 30.2 -3.0 L 30.2 -28.8 " transform="translate(0.0 38.0)" stroke-dasharray="43.89476950115411" stroke-dashoffset="43.89476950115411"><animate attributeName="stroke-dashoffset" from="43.89476950115411" to="0" dur="1.316843085034623s" begin="0s" fill="freeze" /></path><path d="M 3.1 -6.9 C 7.2 -7.6 11.9 -8.8 16.4 -10.2 " transform="translate(0.0 38.0)" stroke-dasharray="13.712766466411649" stroke-dashoffset="13.712766466411649"><animate attributeName="stroke-dashoffset" from="13.712766466411649" to="0" dur="0.41138299399234945s" begin="1.316843085034623s" fill="freeze" /></path><path d="M 7.5 -8.7 L 7.5 -36.8 " transform="translate(0.0 38.0)" stroke-dasharray="28.099999999999998" stroke-dashoffset="28.099999999999998"><animate attributeName="stroke-dashoffset" from="28.099999999999998" to="0" dur="0.8429999999999999s" begin="1.7282260790269726s" fill="freeze" /></path><path d="M 16.8 -18.8 L 8.0 -18.8 " transform="translate(0.0 38.0)" stroke-dasharray="8.8" stroke-dashoffset="8.8"><animate attributeName="stroke-dashoffset" from="8.8" to="0" dur="0.264s" begin="2.5712260790269723s" fill="freeze" /></path><path d="M 16.9 2.2 L 16.9 -37.0 " transform="translate(0.0 38.0)" stroke-dasharray="39.2" stroke-dashoffset="39.2"><animate attributeName="stroke-dashoffset" from="39.2" to="0" dur="1.176s" begin="2.835226079026972s" fill="freeze" /></path><path d="M 22.2 -11.0 C 23.2 -13.2 24.1 -16.2 24.4 -19.2 " transform="translate(0.0 38.0)" stroke-dasharray="8.525239322789728" stroke-dashoffset="8.525239322789728"><animate attributeName="stroke-dashoffset" from="8.525239322789728" to="0" dur="0.2557571796836918s" begin="4.011226079026972s" fill="freeze" /></path><path d="M 16.8 -28.1 L 8.0 -28.1 " transform="translate(0.0 38.0)" stroke-dasharray="8.8" stroke-dashoffset="8.8"><animate attributeName="stroke-dashoffset" from="8.8" to="0" dur="0.264s" begin="4.266983258710664s" fill="freeze" /></path><path d="M 21.6 -37.3 L 3.5 -37.3 " transform="translate(0.0 38.0)" stroke-dasharray="18.1" stroke-dashoffset="18.1"><animate attributeName="stroke-dashoffset" from="18.1" to="0" dur="0.543s" begin="4.530983258710664s" fill="freeze" /></path><path d="M 46.4 -13.9 C 45.3 -16.5 43.8 -18.9 42.2 -21.0 " transform="translate(0.0 38.0)" stroke-dasharray="8.270728758472362" stroke-dashoffset="8.270728758472362"><animate attributeName="stroke-dashoffset" from="8.270728758472362" to="0" dur="0.24812186275417086s" begin="5.073983258710665s" fill="freeze" /></path><path d="M 37.6 -33.2 C 36.1 -34.9 34.0 -36.9 32.2 -38.1" transform="translate(0.0 38.0)" stroke-dasharray="7.309459656914099" stroke-dashoffset="7.309459656914099"><animate attributeName="stroke-dashoffset" from="7.309459656914099" to="0" dur="0.21928378970742296s" begin="5.322105121464835s" fill="freeze" /></path></g></svg>