<?xml version='1.0' encoding='utf-8'?>
<svg viewBox="0.0 -6.0 50.0 50.0" version="1.1" xmlns="http://www.w3.org/2000/svg"><rect x="-1000" y="-1000" width="2000" height="2000" stroke="white" fill="white" /><g style="fill:none;stroke:#000000;stroke-width:1"><path d="M 34.3 0.9 C 35.3 1.2 36.5 1.4 37.8 1.4 C 40.0 1.4 41.4 0.5 42.2 -2.4 C 43.0 -5.1 43.5 -8.3 43.5 -12.2 C 43.6 -14.2 42.5 -15.4 39.8 -15.3 L 21.8 -15.1 " transform="translate(0.0 38.0)" stroke-dasharray="43.48137461451251" stroke-dashoffset="43.48137461451251"><animate attributeName="stroke-dashoffset" from="43.48137461451251" to="0" dur="1.3044412384353752s" begin="0s; 15s; 30s; 45s" fill="freeze" id="anim0" /></path><path d="M 3.0 -9.5 C 6.0 -14.1 8.4 -20.2 9.8 -26.2 " transform="translate(0.0 38.0)" stroke-dasharray="18.11697594429347" stroke-dashoffset="18.11697594429347"><animate attributeName="stroke-dashoffset" from="18.11697594429347" to="0" dur="0.543509278328804s" begin="anim0.end" fill="freeze" id="anim1" /></path><path d="M 10.8 2.6 L 10.8 -40.3 " transform="translate(0.0 38.0)" stroke-dasharray="42.9" stroke-dashoffset="42.9"><animate attributeName="stroke-dashoffset" from="42.9" to="0" dur="1.287s" begin="anim1.end" fill="freeze" id="anim2" /></path><path d="M 16.9 -16.2 C 15.7 -17.9 13.8 -19.8 11.8 -21.1 " transform="translate(0.0 38.0)" stroke-dasharray="7.1111056698304" stroke-dashoffset="7.1111056698304"><animate attributeName="stroke-dashoffset" from="7.1111056698304" to="0" dur="0.213333170094912s" begin="anim2.end" fill="freeze" id="anim3" /></path><path d="M 19.2 1.6 C 27.1 -3.0 30.9 -10.7 31.2 -21.1 " transform="translate(0.0 38.0)" stroke-dasharray="26.9294618686814" stroke-dashoffset="26.9294618686814"><animate attributeName="stroke-dashoffset" from="26.9294618686814" to="0" dur="0.807883856060442s" begin="anim3.end" fill="freeze" id="anim4" /></path><path d="M 17.0 -29.0 L 3.4 -29.0 " transform="translate(0.0 38.0)" stroke-dasharray="13.6" stroke-dashoffset="13.6"><animate attributeName="stroke-dashoffset" from="13.6" to="0" dur="0.408s" begin="anim4.end" fill="freeze" id="anim5" /></path><path d="M 27.4 -25.8 L 38.3 -25.8 C 40.9 -25.8 42.0 -26.8 42.0 -29.0 L 42.0 -35.0 C 42.0 -37.2 40.9 -38.2 38.3 -38.2 L 27.4 -38.2 C 24.9 -38.2 23.8 -37.2 23.8 -35.0 L 23.8 -29.0 C 23.8 -26.8 24.9 -25.8 27.4 -25.8 Z" transform="translate(0.0 38.0)" stroke-dasharray="56.23099038755558" stroke-dashoffset="56.23099038755558"><animate attributeName="stroke-dashoffset" from="56.23099038755558" to="0" dur="1.6869297116266673s" begin="anim5.end" fill="freeze" id="anim_end" /></path></g></svg>