<?xml version='1.0' encoding='utf-8'?>
<svg viewBox="0.0 -6.0 50.0 50.0" version="1.1" xmlns="http://www.w3.org/2000/svg"><rect x="-1000" y="-1000" width="2000" height="2000" stroke="white" fill="white" /><g style="fill:none;stroke:#000000;stroke-width:1"><path d="M 45.0 0.6 C 39.1 -2.2 33.9 -7.2 31.1 -13.7 " transform="translate(0.0 38.0)" stroke-dasharray="20.37522574211153" stroke-dashoffset="20.37522574211153"><animate attributeName="stroke-dashoffset" from="20.37522574211153" to="0" dur="0.611256772263346s" begin="0s; 15s; 30s; 45s" fill="freeze" id="anim0" /></path><path d="M 5.1 0.6 C 7.2 -2.9 9.5 -8.2 10.8 -12.6 " transform="translate(0.0 38.0)" stroke-dasharray="14.410531246177447" stroke-dashoffset="14.410531246177447"><animate attributeName="stroke-dashoffset" from="14.410531246177447" to="0" dur="0.4323159373853234s" begin="anim0.end" fill="freeze" id="anim1" /></path><path d="M 17.9 1.4 C 23.1 0.8 28.6 -0.4 33.0 -1.9 " transform="translate(0.0 38.0)" stroke-dasharray="15.48366966724128" stroke-dashoffset="15.48366966724128"><animate attributeName="stroke-dashoffset" from="15.48366966724128" to="0" dur="0.46451009001723836s" begin="anim1.end" fill="freeze" id="anim2" /></path><path d="M 24.1 0.4 L 24.1 -6.3 " transform="translate(0.0 38.0)" stroke-dasharray="6.7" stroke-dashoffset="6.7"><animate attributeName="stroke-dashoffset" from="6.7" to="0" dur="0.20099999999999998s" begin="anim2.end" fill="freeze" id="anim3" /></path><path d="M 14.8 -4.3 C 19.7 -6.2 25.4 -9.8 29.0 -13.6 " transform="translate(0.0 38.0)" stroke-dasharray="17.09560847336178" stroke-dashoffset="17.09560847336178"><animate attributeName="stroke-dashoffset" from="17.09560847336178" to="0" dur="0.5128682542008534s" begin="anim3.end" fill="freeze" id="anim4" /></path><path d="M 8.0 -23.3 C 6.9 -24.4 5.2 -25.9 3.9 -26.8 " transform="translate(0.0 38.0)" stroke-dasharray="5.3966345126685455" stroke-dashoffset="5.3966345126685455"><animate attributeName="stroke-dashoffset" from="5.3966345126685455" to="0" dur="0.16189903538005637s" begin="anim4.end" fill="freeze" id="anim5" /></path><path d="M 14.9 -22.1 C 17.8 -24.1 20.6 -26.9 22.4 -29.3 " transform="translate(0.0 38.0)" stroke-dasharray="10.43756210202526" stroke-dashoffset="10.43756210202526"><animate attributeName="stroke-dashoffset" from="10.43756210202526" to="0" dur="0.31312686306075777s" begin="anim5.end" fill="freeze" id="anim6" /></path><path d="M 11.2 -35.2 C 10.1 -36.5 8.4 -38.0 7.3 -38.9 " transform="translate(0.0 38.0)" stroke-dasharray="5.38227797038058" stroke-dashoffset="5.38227797038058"><animate attributeName="stroke-dashoffset" from="5.38227797038058" to="0" dur="0.1614683391114174s" begin="anim6.end" fill="freeze" id="anim7" /></path><path d="M 38.4 -17.2 L 38.4 -19.9 C 38.4 -21.7 37.6 -22.5 34.6 -22.5 L 25.1 -22.5 C 22.2 -22.5 21.4 -21.7 21.4 -19.9 L 21.4 -17.2 C 21.4 -15.4 22.1 -14.6 25.1 -14.6 L 34.8 -14.6 C 37.6 -14.6 38.4 -15.4 38.4 -17.2 Z " transform="translate(0.0 38.0)" stroke-dasharray="45.63219966901496" stroke-dashoffset="45.63219966901496"><animate attributeName="stroke-dashoffset" from="45.63219966901496" to="0" dur="1.3689659900704487s" begin="anim7.end" fill="freeze" id="anim8" /></path><path d="M 36.1 -7.3 C 38.2 -8.3 40.4 -9.7 42.5 -11.3 " transform="translate(0.0 38.0)" stroke-dasharray="7.56019537700097" stroke-dashoffset="7.56019537700097"><animate attributeName="stroke-dashoffset" from="7.56019537700097" to="0" dur="0.2268058613100291s" begin="anim8.end" fill="freeze" id="anim9" /></path><path d="M 44.6 -23.1 C 42.1 -24.6 39.3 -26.9 37.7 -28.6 C 36.5 -30.0 35.5 -30.4 34.0 -30.4 L 27.4 -30.4 " transform="translate(0.0 38.0)" stroke-dasharray="19.726000945350215" stroke-dashoffset="19.726000945350215"><animate attributeName="stroke-dashoffset" from="19.726000945350215" to="0" dur="0.5917800283605065s" begin="anim9.end" fill="freeze" id="anim10" /></path><path d="M 44.7 -35.8 L 16.6 -35.8 " transform="translate(0.0 38.0)" stroke-dasharray="28.1" stroke-dashoffset="28.1"><animate attributeName="stroke-dashoffset" from="28.1" to="0" dur="0.843s" begin="anim10.end" fill="freeze" id="anim11" /></path><path d="M 29.9 -35.4 L 29.9 -40.2" transform="translate(0.0 38.0)" stroke-dasharray="4.800000000000004" stroke-dashoffset="4.800000000000004"><animate attributeName="stroke-dashoffset" from="4.800000000000004" to="0" dur="0.14400000000000013s" begin="anim11.end" fill="freeze" id="anim_end" /></path></g></svg>