<?xml version='1.0' encoding='utf-8'?>
<svg viewBox="0.0 -6.0 50.0 50.0" version="1.1" xmlns="http://www.w3.org/2000/svg"><rect x="-1000" y="-1000" width="2000" height="2000" stroke="white" fill="white" /><g style="fill:none;stroke:#000000;stroke-width:1"><path d="M 46.5 1.4 C 39.8 -1.4 33.8 -6.5 31.1 -12.9 " transform="translate(0.0 38.0)" stroke-dasharray="21.531792346950166" stroke-dashoffset="21.531792346950166"><animate attributeName="stroke-dashoffset" from="21.531792346950166" to="0" dur="0.645953770408505s" begin="0s" fill="freeze" /></path><path d="M 18.6 1.8 C 23.9 1.1 28.9 0.0 33.0 -1.4 " transform="translate(0.0 38.0)" stroke-dasharray="14.774240446627338" stroke-dashoffset="14.774240446627338"><animate attributeName="stroke-dashoffset" from="14.774240446627338" to="0" dur="0.44322721339882015s" begin="0.645953770408505s" fill="freeze" /></path><path d="M 24.3 0.9 L 24.3 -6.0 " transform="translate(0.0 38.0)" stroke-dasharray="6.9" stroke-dashoffset="6.9"><animate attributeName="stroke-dashoffset" from="6.9" to="0" dur="0.207s" begin="1.0891809838073252s" fill="freeze" /></path><path d="M 9.1 2.6 L 9.1 -40.7 " transform="translate(0.0 38.0)" stroke-dasharray="43.300000000000004" stroke-dashoffset="43.300000000000004"><animate attributeName="stroke-dashoffset" from="43.300000000000004" to="0" dur="1.2990000000000002s" begin="1.2961809838073253s" fill="freeze" /></path><path d="M 3.0 -22.4 C 3.7 -24.1 4.2 -27.0 4.5 -29.4 " transform="translate(0.0 38.0)" stroke-dasharray="7.175841090418517" stroke-dashoffset="7.175841090418517"><animate attributeName="stroke-dashoffset" from="7.175841090418517" to="0" dur="0.2152752327125555s" begin="2.5951809838073254s" fill="freeze" /></path><path d="M 14.6 -4.1 C 20.1 -5.9 25.6 -9.2 29.6 -12.8 " transform="translate(0.0 38.0)" stroke-dasharray="17.457733319922294" stroke-dashoffset="17.457733319922294"><animate attributeName="stroke-dashoffset" from="17.457733319922294" to="0" dur="0.5237319995976688s" begin="2.810456216519881s" fill="freeze" /></path><path d="M 14.9 -26.0 C 14.6 -27.4 13.9 -29.2 13.3 -30.3 " transform="translate(0.0 38.0)" stroke-dasharray="4.600888900557539" stroke-dashoffset="4.600888900557539"><animate attributeName="stroke-dashoffset" from="4.600888900557539" to="0" dur="0.13802666701672617s" begin="3.33418821611755s" fill="freeze" /></path><path d="M 15.5 -13.6 L 46.2 -13.6 " transform="translate(0.0 38.0)" stroke-dasharray="30.700000000000003" stroke-dashoffset="30.700000000000003"><animate attributeName="stroke-dashoffset" from="30.700000000000003" to="0" dur="0.921s" begin="3.472214883134276s" fill="freeze" /></path><path d="M 31.2 -13.6 L 31.2 -17.3 " transform="translate(0.0 38.0)" stroke-dasharray="3.700000000000001" stroke-dashoffset="3.700000000000001"><animate attributeName="stroke-dashoffset" from="3.700000000000001" to="0" dur="0.11100000000000003s" begin="4.393214883134276s" fill="freeze" /></path><path d="M 36.1 -5.5 C 38.2 -6.5 40.1 -7.8 42.2 -9.4 " transform="translate(0.0 38.0)" stroke-dasharray="7.253548028105013" stroke-dashoffset="7.253548028105013"><animate attributeName="stroke-dashoffset" from="7.253548028105013" to="0" dur="0.21760644084315037s" begin="4.504214883134276s" fill="freeze" /></path><path d="M 27.6 -21.6 L 27.6 -29.1 " transform="translate(0.0 38.0)" stroke-dasharray="7.5" stroke-dashoffset="7.5"><animate attributeName="stroke-dashoffset" from="7.5" to="0" dur="0.22499999999999998s" begin="4.7218213239774265s" fill="freeze" /></path><path d="M 23.7 -21.0 L 39.5 -21.0 C 42.3 -21.0 43.1 -21.9 43.1 -23.8 L 43.1 -26.6 C 43.1 -28.6 42.3 -29.4 39.5 -29.4 L 23.7 -29.4 C 20.9 -29.4 20.1 -28.6 20.1 -26.6 L 20.1 -23.8 C 20.1 -21.9 20.9 -21.0 23.7 -21.0 Z " transform="translate(0.0 38.0)" stroke-dasharray="58.48225151243952" stroke-dashoffset="58.48225151243952"><animate attributeName="stroke-dashoffset" from="58.48225151243952" to="0" dur="1.7544675453731855s" begin="4.946821323977426s" fill="freeze" /></path><path d="M 35.1 -21.6 L 35.1 -29.1 " transform="translate(0.0 38.0)" stroke-dasharray="7.5" stroke-dashoffset="7.5"><animate attributeName="stroke-dashoffset" from="7.5" to="0" dur="0.22499999999999998s" begin="6.701288869350612s" fill="freeze" /></path><path d="M 31.2 -29.1 L 31.2 -40.5 " transform="translate(0.0 38.0)" stroke-dasharray="11.399999999999999" stroke-dashoffset="11.399999999999999"><animate attributeName="stroke-dashoffset" from="11.399999999999999" to="0" dur="0.34199999999999997s" begin="6.9262888693506115s" fill="freeze" /></path><path d="M 16.9 -35.4 L 45.8 -35.4" transform="translate(0.0 38.0)" stroke-dasharray="28.9" stroke-dashoffset="28.9"><animate attributeName="stroke-dashoffset" from="28.9" to="0" dur="0.8669999999999999s" begin="7.268288869350611s" fill="freeze" /></path></g></svg>