<?xml version='1.0' encoding='utf-8'?>
<svg viewBox="0.0 -6.0 50.0 50.0" version="1.1" xmlns="http://www.w3.org/2000/svg"><rect x="-1000" y="-1000" width="2000" height="2000" stroke="white" fill="white" /><g style="fill:none;stroke:#000000;stroke-width:1"><path d="M 46.6 -3.0 C 46.2 0.6 44.3 1.7 38.4 1.7 C 33.0 1.7 31.9 1.0 31.9 -1.6 L 31.9 -19.9 " transform="translate(0.0 38.0)" stroke-dasharray="37.44389966577398" stroke-dashoffset="37.44389966577398"><animate attributeName="stroke-dashoffset" from="37.44389966577398" to="0" dur="1.1233169899732194s" begin="0s" fill="freeze" /></path><path d="M 2.9 -10.3 C 5.8 -14.8 8.2 -20.9 9.5 -26.9 " transform="translate(0.0 38.0)" stroke-dasharray="17.9531109876986" stroke-dashoffset="17.9531109876986"><animate attributeName="stroke-dashoffset" from="17.9531109876986" to="0" dur="0.538593329630958s" begin="1.1233169899732194s" fill="freeze" /></path><path d="M 10.6 2.9 L 10.6 -40.6 " transform="translate(0.0 38.0)" stroke-dasharray="43.5" stroke-dashoffset="43.5"><animate attributeName="stroke-dashoffset" from="43.5" to="0" dur="1.305s" begin="1.6619103196041773s" fill="freeze" /></path><path d="M 16.5 -17.1 C 15.2 -18.8 13.4 -20.6 11.4 -22.0 " transform="translate(0.0 38.0)" stroke-dasharray="7.098944710617431" stroke-dashoffset="7.098944710617431"><animate attributeName="stroke-dashoffset" from="7.098944710617431" to="0" dur="0.21296834131852294s" begin="2.9669103196041773s" fill="freeze" /></path><path d="M 16.5 -29.7 L 3.3 -29.7 " transform="translate(0.0 38.0)" stroke-dasharray="13.2" stroke-dashoffset="13.2"><animate attributeName="stroke-dashoffset" from="13.2" to="0" dur="0.39599999999999996s" begin="3.1798786609227s" fill="freeze" /></path><path d="M 26.1 -6.4 L 38.6 -6.4 C 41.5 -6.4 42.5 -7.5 42.5 -9.8 L 42.5 -16.9 C 42.5 -19.2 41.5 -20.3 38.6 -20.3 L 26.1 -20.3 C 23.2 -20.3 22.1 -19.2 22.1 -16.9 L 22.1 -9.8 C 22.1 -7.5 23.2 -6.4 26.1 -6.4 Z " transform="translate(0.0 38.0)" stroke-dasharray="63.36492885989499" stroke-dashoffset="63.36492885989499"><animate attributeName="stroke-dashoffset" from="63.36492885989499" to="0" dur="1.9009478657968495s" begin="3.5758786609227s" fill="freeze" /></path><path d="M 42.0 -13.6 L 22.6 -13.6 " transform="translate(0.0 38.0)" stroke-dasharray="19.4" stroke-dashoffset="19.4"><animate attributeName="stroke-dashoffset" from="19.4" to="0" dur="0.582s" begin="5.47682652671955s" fill="freeze" /></path><path d="M 27.5 -29.9 C 27.1 -30.8 26.6 -31.6 25.9 -32.5 " transform="translate(0.0 38.0)" stroke-dasharray="3.0607962189142337" stroke-dashoffset="3.0607962189142337"><animate attributeName="stroke-dashoffset" from="3.0607962189142337" to="0" dur="0.091823886567427s" begin="6.05882652671955s" fill="freeze" /></path><path d="M 46.8 -26.2 L 18.6 -26.2 " transform="translate(0.0 38.0)" stroke-dasharray="28.199999999999996" stroke-dashoffset="28.199999999999996"><animate attributeName="stroke-dashoffset" from="28.199999999999996" to="0" dur="0.8459999999999999s" begin="6.150650413286977s" fill="freeze" /></path><path d="M 35.0 -25.8 C 36.5 -28.4 37.1 -29.6 38.1 -32.2 " transform="translate(0.0 38.0)" stroke-dasharray="7.121165171770333" stroke-dashoffset="7.121165171770333"><animate attributeName="stroke-dashoffset" from="7.121165171770333" to="0" dur="0.21363495515310996s" begin="6.996650413286977s" fill="freeze" /></path><path d="M 44.1 -36.1 L 21.2 -36.1 " transform="translate(0.0 38.0)" stroke-dasharray="22.900000000000002" stroke-dashoffset="22.900000000000002"><animate attributeName="stroke-dashoffset" from="22.900000000000002" to="0" dur="0.687s" begin="7.210285368440087s" fill="freeze" /></path><path d="M 32.1 -36.1 L 32.1 -40.5" transform="translate(0.0 38.0)" stroke-dasharray="4.399999999999999" stroke-dashoffset="4.399999999999999"><animate attributeName="stroke-dashoffset" from="4.399999999999999" to="0" dur="0.13199999999999995s" begin="7.897285368440087s" fill="freeze" /></path></g></svg>