<?xml version='1.0' encoding='utf-8'?>
<svg viewBox="0.0 -6.0 50.0 50.0" version="1.1" xmlns="http://www.w3.org/2000/svg"><rect x="-1000" y="-1000" width="2000" height="2000" stroke="white" fill="white" /><g style="fill:none;stroke:#000000;stroke-width:1"><path d="M 22.3 0.8 C 23.1 1.0 23.9 1.1 24.7 1.1 C 27.2 1.1 28.7 -0.3 29.1 -3.8 C 29.8 -10.9 30.2 -22.9 30.2 -35.0 C 30.2 -37.2 29.3 -38.0 26.6 -38.0 L 17.2 -38.0 " transform="translate(0.0 38.0)" stroke-dasharray="55.91987153099563" stroke-dashoffset="55.91987153099563"><animate attributeName="stroke-dashoffset" from="55.91987153099563" to="0" dur="1.6775961459298687s" begin="0s; anim_end.end" fill="freeze" id="anim0" /></path><path d="M 2.5 -10.2 C 5.1 -14.5 7.2 -20.4 8.4 -26.2 " transform="translate(0.0 38.0)" stroke-dasharray="17.128821566786318" stroke-dashoffset="17.128821566786318"><animate attributeName="stroke-dashoffset" from="17.128821566786318" to="0" dur="0.5138646470035895s" begin="anim0.end" fill="freeze" id="anim1" /></path><path d="M 9.4 2.6 L 9.4 -40.6 " transform="translate(0.0 38.0)" stroke-dasharray="43.2" stroke-dashoffset="43.2"><animate attributeName="stroke-dashoffset" from="43.2" to="0" dur="1.296s" begin="anim1.end" fill="freeze" id="anim2" /></path><path d="M 14.8 -19.3 C 13.7 -20.9 11.9 -22.8 10.1 -24.1 " transform="translate(0.0 38.0)" stroke-dasharray="6.746965137678631" stroke-dashoffset="6.746965137678631"><animate attributeName="stroke-dashoffset" from="6.746965137678631" to="0" dur="0.20240895413035892s" begin="anim2.end" fill="freeze" id="anim3" /></path><path d="M 15.1 0.9 C 19.9 -5.5 22.4 -14.1 22.4 -30.9 L 22.4 -37.0 " transform="translate(0.0 38.0)" stroke-dasharray="39.3059179622806" stroke-dashoffset="39.3059179622806"><animate attributeName="stroke-dashoffset" from="39.3059179622806" to="0" dur="1.179177538868418s" begin="anim3.end" fill="freeze" id="anim4" /></path><path d="M 29.1 -14.5 L 16.6 -14.5 " transform="translate(0.0 38.0)" stroke-dasharray="12.5" stroke-dashoffset="12.5"><animate attributeName="stroke-dashoffset" from="12.5" to="0" dur="0.375s" begin="anim4.end" fill="freeze" id="anim5" /></path><path d="M 14.3 -29.4 L 3.0 -29.4 " transform="translate(0.0 38.0)" stroke-dasharray="11.3" stroke-dashoffset="11.3"><animate attributeName="stroke-dashoffset" from="11.3" to="0" dur="0.339s" begin="anim5.end" fill="freeze" id="anim6" /></path><path d="M 29.9 -26.4 L 17.3 -26.4 " transform="translate(0.0 38.0)" stroke-dasharray="12.599999999999998" stroke-dashoffset="12.599999999999998"><animate attributeName="stroke-dashoffset" from="12.599999999999998" to="0" dur="0.37799999999999995s" begin="anim6.end" fill="freeze" id="anim7" /></path><path d="M 40.9 -5.3 C 41.5 -5.2 42.0 -5.1 42.8 -5.1 C 44.9 -5.1 46.2 -6.8 46.2 -10.7 C 46.2 -15.2 44.8 -18.8 41.5 -22.3 L 41.6 -23.1 C 43.0 -26.5 44.5 -30.9 45.3 -34.5 C 45.9 -36.8 45.0 -38.0 42.9 -38.0 L 39.5 -38.0 C 37.4 -38.0 36.5 -37.4 36.5 -35.0 L 36.5 2.1" transform="translate(0.0 38.0)" stroke-dasharray="85.62280093645732" stroke-dashoffset="85.62280093645732"><animate attributeName="stroke-dashoffset" from="85.62280093645732" to="0" dur="2.5686840280937195s" begin="anim7.end" fill="freeze" id="anim_end" /></path></g></svg>