<?xml version='1.0' encoding='utf-8'?>
<svg viewBox="0.0 -6.0 50.0 50.0" version="1.1" xmlns="http://www.w3.org/2000/svg"><rect x="-1000" y="-1000" width="2000" height="2000" stroke="white" fill="white" /><g style="fill:none;stroke:#000000;stroke-width:1"><path d="M 26.5 -16.4 L 38.6 -16.4 C 41.4 -16.4 42.3 -17.3 42.3 -19.3 L 42.3 -29.7 C 42.3 -31.7 41.4 -32.5 38.6 -32.5 L 26.5 -32.5 C 23.8 -32.5 22.8 -31.7 22.8 -29.7 L 22.8 -19.3 C 22.8 -17.3 23.8 -16.4 26.5 -16.4 Z " transform="translate(0.0 38.0)" stroke-dasharray="66.68743933924878" stroke-dashoffset="66.68743933924878"><animate attributeName="stroke-dashoffset" from="66.68743933924878" to="0" dur="2.000623180177463s" begin="0s; anim_end.end" fill="freeze" id="anim0" /></path><path d="M 2.9 -9.7 C 5.8 -14.2 8.2 -20.4 9.5 -26.2 " transform="translate(0.0 38.0)" stroke-dasharray="17.854875741272984" stroke-dashoffset="17.854875741272984"><animate attributeName="stroke-dashoffset" from="17.854875741272984" to="0" dur="0.5356462722381895s" begin="anim0.end" fill="freeze" id="anim1" /></path><path d="M 10.6 2.6 L 10.6 -40.3 " transform="translate(0.0 38.0)" stroke-dasharray="42.9" stroke-dashoffset="42.9"><animate attributeName="stroke-dashoffset" from="42.9" to="0" dur="1.287s" begin="anim1.end" fill="freeze" id="anim2" /></path><path d="M 17.4 2.2 C 25.4 0.9 33.8 -2.5 38.2 -7.5 C 39.8 -9.3 39.0 -10.9 36.5 -10.9 L 27.1 -10.9 " transform="translate(0.0 38.0)" stroke-dasharray="38.109103582236216" stroke-dashoffset="38.109103582236216"><animate attributeName="stroke-dashoffset" from="38.109103582236216" to="0" dur="1.1432731074670863s" begin="anim2.end" fill="freeze" id="anim3" /></path><path d="M 16.5 -16.5 C 15.3 -18.2 13.4 -20.1 11.5 -21.5 " transform="translate(0.0 38.0)" stroke-dasharray="7.098332652281335" stroke-dashoffset="7.098332652281335"><animate attributeName="stroke-dashoffset" from="7.098332652281335" to="0" dur="0.21294997956844003s" begin="anim3.end" fill="freeze" id="anim4" /></path><path d="M 17.9 -4.8 C 22.8 -7.3 27.9 -11.6 30.9 -16.0 " transform="translate(0.0 38.0)" stroke-dasharray="17.320440662758802" stroke-dashoffset="17.320440662758802"><animate attributeName="stroke-dashoffset" from="17.320440662758802" to="0" dur="0.5196132198827641s" begin="anim4.end" fill="freeze" id="anim5" /></path><path d="M 3.6 -29.1 L 16.3 -29.1 " transform="translate(0.0 38.0)" stroke-dasharray="12.700000000000001" stroke-dashoffset="12.700000000000001"><animate attributeName="stroke-dashoffset" from="12.700000000000001" to="0" dur="0.381s" begin="anim5.end" fill="freeze" id="anim6" /></path><path d="M 46.4 1.6 C 38.2 0.2 30.6 -4.0 26.3 -9.7 " transform="translate(0.0 38.0)" stroke-dasharray="23.584998859348957" stroke-dashoffset="23.584998859348957"><animate attributeName="stroke-dashoffset" from="23.584998859348957" to="0" dur="0.7075499657804687s" begin="anim6.end" fill="freeze" id="anim7" /></path><path d="M 23.8 -21.9 L 41.2 -21.9 " transform="translate(0.0 38.0)" stroke-dasharray="17.400000000000002" stroke-dashoffset="17.400000000000002"><animate attributeName="stroke-dashoffset" from="17.400000000000002" to="0" dur="0.522s" begin="anim7.end" fill="freeze" id="anim8" /></path><path d="M 23.8 -27.1 L 41.2 -27.1 " transform="translate(0.0 38.0)" stroke-dasharray="17.400000000000002" stroke-dashoffset="17.400000000000002"><animate attributeName="stroke-dashoffset" from="17.400000000000002" to="0" dur="0.522s" begin="anim8.end" fill="freeze" id="anim9" /></path><path d="M 30.8 -32.9 C 31.4 -34.1 32.2 -35.9 32.9 -37.9 " transform="translate(0.0 38.0)" stroke-dasharray="5.426486419134434" stroke-dashoffset="5.426486419134434"><animate attributeName="stroke-dashoffset" from="5.426486419134434" to="0" dur="0.16279459257403303s" begin="anim9.end" fill="freeze" id="anim10" /></path><path d="M 19.3 -38.5 L 46.6 -38.5" transform="translate(0.0 38.0)" stroke-dasharray="27.3" stroke-dashoffset="27.3"><animate attributeName="stroke-dashoffset" from="27.3" to="0" dur="0.819s" begin="anim10.end" fill="freeze" id="anim_end" /></path></g></svg>