<?xml version='1.0' encoding='utf-8'?>
<svg viewBox="0.0 -6.0 50.0 50.0" version="1.1" xmlns="http://www.w3.org/2000/svg"><rect x="-1000" y="-1000" width="2000" height="2000" stroke="white" fill="white" /><g style="fill:none;stroke:#000000;stroke-width:1"><path d="M 44.5 -10.2 L 25.3 -10.2 C 23.0 -10.2 22.3 -10.9 22.3 -12.6 L 22.3 -20.6 C 22.3 -22.1 23.0 -22.8 25.3 -22.8 L 43.8 -22.8 " transform="translate(0.0 38.0)" stroke-dasharray="54.49909805567705" stroke-dashoffset="54.49909805567705"><animate attributeName="stroke-dashoffset" from="54.49909805567705" to="0" dur="1.6349729416703116s" begin="0s; anim_end.end" fill="freeze" id="anim0" /></path><path d="M 3.5 -13.4 C 7.5 -14.6 10.9 -15.8 14.0 -17.4 " transform="translate(0.0 38.0)" stroke-dasharray="11.252433822482494" stroke-dashoffset="11.252433822482494"><animate attributeName="stroke-dashoffset" from="11.252433822482494" to="0" dur="0.3375730146744748s" begin="anim0.end" fill="freeze" id="anim1" /></path><path d="M 4.3 1.6 C 5.2 1.8 6.0 1.9 6.5 1.9 C 8.6 1.9 9.6 1.0 9.6 -1.4 L 9.6 -40.4 " transform="translate(0.0 38.0)" stroke-dasharray="46.475076533637754" stroke-dashoffset="46.475076533637754"><animate attributeName="stroke-dashoffset" from="46.475076533637754" to="0" dur="1.3942522960091326s" begin="anim1.end" fill="freeze" id="anim2" /></path><path d="M 16.4 2.6 C 24.6 2.2 32.5 0.6 38.0 -3.1 C 39.8 -4.3 39.0 -5.8 37.0 -5.8 L 19.1 -5.8 " transform="translate(0.0 38.0)" stroke-dasharray="44.94046986915185" stroke-dashoffset="44.94046986915185"><animate attributeName="stroke-dashoffset" from="44.94046986915185" to="0" dur="1.3482140960745554s" begin="anim2.end" fill="freeze" id="anim3" /></path><path d="M 45.8 2.0 C 37.2 1.8 29.0 -0.7 24.3 -5.7 " transform="translate(0.0 38.0)" stroke-dasharray="23.409037480933687" stroke-dashoffset="23.409037480933687"><animate attributeName="stroke-dashoffset" from="23.409037480933687" to="0" dur="0.7022711244280105s" begin="anim3.end" fill="freeze" id="anim4" /></path><path d="M 3.8 -29.3 L 14.2 -29.3 " transform="translate(0.0 38.0)" stroke-dasharray="10.399999999999999" stroke-dashoffset="10.399999999999999"><animate attributeName="stroke-dashoffset" from="10.399999999999999" to="0" dur="0.31199999999999994s" begin="anim4.end" fill="freeze" id="anim5" /></path><path d="M 18.7 -17.8 C 20.9 -19.9 23.2 -23.2 24.6 -25.6 " transform="translate(0.0 38.0)" stroke-dasharray="9.807474343819171" stroke-dashoffset="9.807474343819171"><animate attributeName="stroke-dashoffset" from="9.807474343819171" to="0" dur="0.2942242303145751s" begin="anim5.end" fill="freeze" id="anim6" /></path><path d="M 22.1 -14.6 L 41.5 -14.6 " transform="translate(0.0 38.0)" stroke-dasharray="19.4" stroke-dashoffset="19.4"><animate attributeName="stroke-dashoffset" from="19.4" to="0" dur="0.582s" begin="anim6.end" fill="freeze" id="anim7" /></path><path d="M 32.1 -10.8 L 32.1 -22.4 " transform="translate(0.0 38.0)" stroke-dasharray="11.599999999999998" stroke-dashoffset="11.599999999999998"><animate attributeName="stroke-dashoffset" from="11.599999999999998" to="0" dur="0.3479999999999999s" begin="anim7.end" fill="freeze" id="anim8" /></path><path d="M 22.1 -18.6 L 41.5 -18.6 " transform="translate(0.0 38.0)" stroke-dasharray="19.4" stroke-dashoffset="19.4"><animate attributeName="stroke-dashoffset" from="19.4" to="0" dur="0.582s" begin="anim8.end" fill="freeze" id="anim9" /></path><path d="M 31.4 -22.6 C 32.0 -23.8 32.5 -24.8 32.9 -25.8 " transform="translate(0.0 38.0)" stroke-dasharray="3.5351747744983895" stroke-dashoffset="3.5351747744983895"><animate attributeName="stroke-dashoffset" from="3.5351747744983895" to="0" dur="0.10605524323495168s" begin="anim9.end" fill="freeze" id="anim10" /></path><path d="M 20.5 -32.0 L 28.4 -32.0 " transform="translate(0.0 38.0)" stroke-dasharray="7.899999999999999" stroke-dashoffset="7.899999999999999"><animate attributeName="stroke-dashoffset" from="7.899999999999999" to="0" dur="0.23699999999999996s" begin="anim10.end" fill="freeze" id="anim11" /></path><path d="M 22.6 -27.8 L 26.2 -27.8 C 28.2 -27.8 29.0 -28.5 29.0 -30.1 L 29.0 -37.9 C 29.0 -39.5 28.2 -40.1 26.2 -40.1 L 22.6 -40.1 C 20.6 -40.1 19.8 -39.5 19.8 -37.9 L 19.8 -30.1 C 19.8 -28.5 20.6 -27.8 22.6 -27.8 Z " transform="translate(0.0 38.0)" stroke-dasharray="39.456518463069656" stroke-dashoffset="39.456518463069656"><animate attributeName="stroke-dashoffset" from="39.456518463069656" to="0" dur="1.1836955538920897s" begin="anim11.end" fill="freeze" id="anim12" /></path><path d="M 20.5 -36.0 L 28.4 -36.0 " transform="translate(0.0 38.0)" stroke-dasharray="7.899999999999999" stroke-dashoffset="7.899999999999999"><animate attributeName="stroke-dashoffset" from="7.899999999999999" to="0" dur="0.23699999999999996s" begin="anim12.end" fill="freeze" id="anim13" /></path><path d="M 35.6 -32.0 L 43.3 -32.0 " transform="translate(0.0 38.0)" stroke-dasharray="7.699999999999996" stroke-dashoffset="7.699999999999996"><animate attributeName="stroke-dashoffset" from="7.699999999999996" to="0" dur="0.23099999999999987s" begin="anim13.end" fill="freeze" id="anim14" /></path><path d="M 37.6 -27.8 L 41.4 -27.8 C 43.5 -27.8 44.2 -28.5 44.2 -30.1 L 44.2 -37.9 C 44.2 -39.5 43.5 -40.1 41.4 -40.1 L 37.6 -40.1 C 35.5 -40.1 34.8 -39.5 34.8 -37.9 L 34.8 -30.1 C 34.8 -28.5 35.5 -27.8 37.6 -27.8 Z " transform="translate(0.0 38.0)" stroke-dasharray="39.94654599711978" stroke-dashoffset="39.94654599711978"><animate attributeName="stroke-dashoffset" from="39.94654599711978" to="0" dur="1.1983963799135933s" begin="anim14.end" fill="freeze" id="anim15" /></path><path d="M 35.6 -36.0 L 43.3 -36.0" transform="translate(0.0 38.0)" stroke-dasharray="7.699999999999996" stroke-dashoffset="7.699999999999996"><animate attributeName="stroke-dashoffset" from="7.699999999999996" to="0" dur="0.23099999999999987s" begin="anim15.end" fill="freeze" id="anim_end" /></path></g></svg>