<?xml version='1.0' encoding='utf-8'?>
<svg viewBox="0.0 -6.0 50.0 50.0" version="1.1" xmlns="http://www.w3.org/2000/svg"><rect x="-1000" y="-1000" width="2000" height="2000" stroke="white" fill="white" /><g style="fill:none;stroke:#000000;stroke-width:1"><path d="M 16.4 -12.2 C 21.2 -14.4 27.1 -18.8 30.6 -22.8 " transform="translate(0.0 38.0)" stroke-dasharray="17.8293450196179" stroke-dashoffset="17.8293450196179"><animate attributeName="stroke-dashoffset" from="17.8293450196179" to="0" dur="0.534880350588537s" begin="0s" fill="freeze" /></path><path d="M 5.5 0.5 C 7.7 -3.0 10.0 -8.3 11.3 -12.7 " transform="translate(0.0 38.0)" stroke-dasharray="14.456242471614317" stroke-dashoffset="14.456242471614317"><animate attributeName="stroke-dashoffset" from="14.456242471614317" to="0" dur="0.4336872741484295s" begin="0.534880350588537s" fill="freeze" /></path><path d="M 16.5 -1.1 C 19.9 -2.1 23.6 -3.5 25.8 -4.5 " transform="translate(0.0 38.0)" stroke-dasharray="9.90879242354013" stroke-dashoffset="9.90879242354013"><animate attributeName="stroke-dashoffset" from="9.90879242354013" to="0" dur="0.29726377270620385s" begin="0.9685676247369666s" fill="freeze" /></path><path d="M 8.4 -23.2 C 7.2 -24.6 5.3 -26.1 4.2 -26.9 " transform="translate(0.0 38.0)" stroke-dasharray="5.608257130601457" stroke-dashoffset="5.608257130601457"><animate attributeName="stroke-dashoffset" from="5.608257130601457" to="0" dur="0.1682477139180437s" begin="1.2658313974431703s" fill="freeze" /></path><path d="M 25.1 -9.1 C 24.4 -9.8 23.5 -10.4 22.6 -11.1 " transform="translate(0.0 38.0)" stroke-dasharray="3.2040976725448505" stroke-dashoffset="3.2040976725448505"><animate attributeName="stroke-dashoffset" from="3.2040976725448505" to="0" dur="0.09612293017634552s" begin="1.434079111361214s" fill="freeze" /></path><path d="M 25.6 1.6 C 26.4 1.7 27.2 1.8 28.2 1.8 C 29.9 1.8 30.9 1.1 30.9 -1.1 L 30.9 -14.6 " transform="translate(0.0 38.0)" stroke-dasharray="20.695153603914825" stroke-dashoffset="20.695153603914825"><animate attributeName="stroke-dashoffset" from="20.695153603914825" to="0" dur="0.6208546081174448s" begin="1.5302020415375595s" fill="freeze" /></path><path d="M 43.2 -0.5 C 41.2 -2.0 38.5 -3.5 36.5 -4.4 " transform="translate(0.0 38.0)" stroke-dasharray="7.766013067745828" stroke-dashoffset="7.766013067745828"><animate attributeName="stroke-dashoffset" from="7.766013067745828" to="0" dur="0.23298039203237483s" begin="2.151056649655004s" fill="freeze" /></path><path d="M 11.7 -35.1 C 10.6 -36.5 8.8 -38.0 7.7 -38.9 " transform="translate(0.0 38.0)" stroke-dasharray="5.527400052414648" stroke-dashoffset="5.527400052414648"><animate attributeName="stroke-dashoffset" from="5.527400052414648" to="0" dur="0.16582200157243943s" begin="2.384037041687379s" fill="freeze" /></path><path d="M 36.0 -9.3 C 37.0 -9.9 38.0 -10.6 39.0 -11.3 " transform="translate(0.0 38.0)" stroke-dasharray="3.606326205966485" stroke-dashoffset="3.606326205966485"><animate attributeName="stroke-dashoffset" from="3.606326205966485" to="0" dur="0.10818978617899454s" begin="2.5498590432598185s" fill="freeze" /></path><path d="M 16.2 -23.3 C 20.5 -25.4 25.9 -29.1 28.9 -32.6 " transform="translate(0.0 38.0)" stroke-dasharray="15.831797488426142" stroke-dashoffset="15.831797488426142"><animate attributeName="stroke-dashoffset" from="15.831797488426142" to="0" dur="0.47495392465278424s" begin="2.658048829438813s" fill="freeze" /></path><path d="M 46.1 -13.7 C 41.2 -15.2 34.8 -18.6 30.8 -22.1 " transform="translate(0.0 38.0)" stroke-dasharray="17.561904790505523" stroke-dashoffset="17.561904790505523"><animate attributeName="stroke-dashoffset" from="17.561904790505523" to="0" dur="0.5268571437151657s" begin="3.1330027540915975s" fill="freeze" /></path><path d="M 30.9 -26.4 L 30.9 -40.3 " transform="translate(0.0 38.0)" stroke-dasharray="13.899999999999999" stroke-dashoffset="13.899999999999999"><animate attributeName="stroke-dashoffset" from="13.899999999999999" to="0" dur="0.4169999999999999s" begin="3.659859897806763s" fill="freeze" /></path><path d="M 44.5 -34.5 L 18.3 -34.5 " transform="translate(0.0 38.0)" stroke-dasharray="26.2" stroke-dashoffset="26.2"><animate attributeName="stroke-dashoffset" from="26.2" to="0" dur="0.7859999999999999s" begin="4.076859897806763s" fill="freeze" /></path><path d="M 45.4 -24.3 C 40.8 -26.3 36.4 -29.1 32.6 -32.6" transform="translate(0.0 38.0)" stroke-dasharray="15.326098696829144" stroke-dashoffset="15.326098696829144"><animate attributeName="stroke-dashoffset" from="15.326098696829144" to="0" dur="0.4597829609048743s" begin="4.8628598978067625s" fill="freeze" /></path></g></svg>