<?xml version='1.0' encoding='utf-8'?>
<svg viewBox="0.0 -6.0 50.0 50.0" version="1.1" xmlns="http://www.w3.org/2000/svg"><rect x="-1000" y="-1000" width="2000" height="2000" stroke="white" fill="white" /><g style="fill:none;stroke:#000000;stroke-width:1"><path d="M 17.1 -19.1 C 21.7 -21.7 26.4 -25.6 29.6 -29.8 " transform="translate(0.0 38.0)" stroke-dasharray="16.5591181499075" stroke-dashoffset="16.5591181499075"><animate attributeName="stroke-dashoffset" from="16.5591181499075" to="0" dur="0.496773544497225s" begin="0s; anim_end.end" fill="freeze" id="anim0" /></path><path d="M 9.1 2.5 L 9.1 -40.5 " transform="translate(0.0 38.0)" stroke-dasharray="43.0" stroke-dashoffset="43.0"><animate attributeName="stroke-dashoffset" from="43.0" to="0" dur="1.29s" begin="anim0.end" fill="freeze" id="anim1" /></path><path d="M 3.0 -22.6 C 3.7 -24.2 4.2 -27.1 4.5 -29.4 " transform="translate(0.0 38.0)" stroke-dasharray="6.9814929848274865" stroke-dashoffset="6.9814929848274865"><animate attributeName="stroke-dashoffset" from="6.9814929848274865" to="0" dur="0.2094447895448246s" begin="anim1.end" fill="freeze" id="anim2" /></path><path d="M 25.6 1.6 C 26.4 1.8 27.4 1.9 28.2 1.9 C 30.4 1.9 31.4 1.1 31.4 -1.1 L 31.4 -12.0 " transform="translate(0.0 38.0)" stroke-dasharray="18.622199642468203" stroke-dashoffset="18.622199642468203"><animate attributeName="stroke-dashoffset" from="18.622199642468203" to="0" dur="0.5586659892740461s" begin="anim2.end" fill="freeze" id="anim3" /></path><path d="M 46.1 -8.0 L 16.1 -8.0 " transform="translate(0.0 38.0)" stroke-dasharray="30.0" stroke-dashoffset="30.0"><animate attributeName="stroke-dashoffset" from="30.0" to="0" dur="0.8999999999999999s" begin="anim3.end" fill="freeze" id="anim4" /></path><path d="M 14.9 -26.1 C 14.6 -27.4 13.8 -29.2 13.2 -30.3 " transform="translate(0.0 38.0)" stroke-dasharray="4.542190960717608" stroke-dashoffset="4.542190960717608"><animate attributeName="stroke-dashoffset" from="4.542190960717608" to="0" dur="0.13626572882152824s" begin="anim4.end" fill="freeze" id="anim5" /></path><path d="M 31.4 -11.4 C 33.6 -12.4 35.5 -13.6 36.9 -14.8 C 38.3 -15.9 37.8 -17.6 35.5 -17.6 L 23.9 -17.6 " transform="translate(0.0 38.0)" stroke-dasharray="22.615451210574683" stroke-dashoffset="22.615451210574683"><animate attributeName="stroke-dashoffset" from="22.615451210574683" to="0" dur="0.6784635363172404s" begin="anim5.end" fill="freeze" id="anim6" /></path><path d="M 31.4 -22.1 L 31.4 -37.6 " transform="translate(0.0 38.0)" stroke-dasharray="15.5" stroke-dashoffset="15.5"><animate attributeName="stroke-dashoffset" from="15.5" to="0" dur="0.46499999999999997s" begin="anim6.end" fill="freeze" id="anim7" /></path><path d="M 45.5 -30.7 L 18.4 -30.7 " transform="translate(0.0 38.0)" stroke-dasharray="27.1" stroke-dashoffset="27.1"><animate attributeName="stroke-dashoffset" from="27.1" to="0" dur="0.8130000000000001s" begin="anim7.end" fill="freeze" id="anim8" /></path><path d="M 46.2 -20.3 C 40.8 -22.6 36.2 -25.7 32.8 -29.7 " transform="translate(0.0 38.0)" stroke-dasharray="16.51613037574137" stroke-dashoffset="16.51613037574137"><animate attributeName="stroke-dashoffset" from="16.51613037574137" to="0" dur="0.49548391127224106s" begin="anim8.end" fill="freeze" id="anim9" /></path><path d="M 21.0 -36.5 C 27.4 -37.0 34.5 -38.0 40.5 -39.6" transform="translate(0.0 38.0)" stroke-dasharray="19.77061615016117" stroke-dashoffset="19.77061615016117"><animate attributeName="stroke-dashoffset" from="19.77061615016117" to="0" dur="0.5931184845048351s" begin="anim9.end" fill="freeze" id="anim_end" /></path></g></svg>