<?xml version='1.0' encoding='utf-8'?>
<svg viewBox="0.0 -6.0 50.0 50.0" version="1.1" xmlns="http://www.w3.org/2000/svg"><rect x="-1000" y="-1000" width="2000" height="2000" stroke="white" fill="white" /><g style="fill:none;stroke:#000000;stroke-width:1"><path d="M 46.1 -3.1 C 45.5 0.2 44.0 1.4 42.1 1.4 C 37.1 1.4 29.9 -5.3 27.4 -18.2 " transform="translate(0.0 38.0)" stroke-dasharray="32.714762608054365" stroke-dashoffset="32.714762608054365"><animate attributeName="stroke-dashoffset" from="32.714762608054365" to="0" dur="0.9814428782416309s" begin="0s" fill="freeze" /></path><path d="M 4.7 1.2 C 10.9 -4.7 14.9 -13.2 16.2 -23.4 C 16.5 -25.5 15.6 -26.6 13.2 -26.6 L 7.9 -26.6 " transform="translate(0.0 38.0)" stroke-dasharray="38.229772206947416" stroke-dashoffset="38.229772206947416"><animate attributeName="stroke-dashoffset" from="38.229772206947416" to="0" dur="1.1468931662084225s" begin="0.9814428782416309s" fill="freeze" /></path><path d="M 12.8 -13.1 C 11.3 -14.6 9.9 -15.8 9.1 -16.4 " transform="translate(0.0 38.0)" stroke-dasharray="4.961245399521002" stroke-dashoffset="4.961245399521002"><animate attributeName="stroke-dashoffset" from="4.961245399521002" to="0" dur="0.14883736198563005s" begin="2.1283360444500534s" fill="freeze" /></path><path d="M 3.4 -15.4 C 6.5 -20.4 8.8 -27.9 9.7 -36.5 " transform="translate(0.0 38.0)" stroke-dasharray="22.192696388756605" stroke-dashoffset="22.192696388756605"><animate attributeName="stroke-dashoffset" from="22.192696388756605" to="0" dur="0.6657808916626982s" begin="2.2771734064356837s" fill="freeze" /></path><path d="M 17.9 2.2 C 26.1 0.5 35.2 -3.8 40.3 -8.7 " transform="translate(0.0 38.0)" stroke-dasharray="25.192367145940363" stroke-dashoffset="25.192367145940363"><animate attributeName="stroke-dashoffset" from="25.192367145940363" to="0" dur="0.7557710143782108s" begin="2.942954298098382s" fill="freeze" /></path><path d="M 21.2 -11.2 L 44.5 -14.2 " transform="translate(0.0 38.0)" stroke-dasharray="23.492339176846567" stroke-dashoffset="23.492339176846567"><animate attributeName="stroke-dashoffset" from="23.492339176846567" to="0" dur="0.704770175305397s" begin="3.6987253124765926s" fill="freeze" /></path><path d="M 18.8 -36.8 L 3.6 -36.8 " transform="translate(0.0 38.0)" stroke-dasharray="15.200000000000001" stroke-dashoffset="15.200000000000001"><animate attributeName="stroke-dashoffset" from="15.200000000000001" to="0" dur="0.456s" begin="4.403495487781989s" fill="freeze" /></path><path d="M 35.7 -17.6 C 34.9 -18.2 33.5 -19.0 32.5 -19.4 " transform="translate(0.0 38.0)" stroke-dasharray="3.6796229673492142" stroke-dashoffset="3.6796229673492142"><animate attributeName="stroke-dashoffset" from="3.6796229673492142" to="0" dur="0.11038868902047642s" begin="4.85949548778199s" fill="freeze" /></path><path d="M 21.1 -21.1 C 27.3 -22.9 34.1 -25.9 39.5 -30.4 " transform="translate(0.0 38.0)" stroke-dasharray="20.758926967812016" stroke-dashoffset="20.758926967812016"><animate attributeName="stroke-dashoffset" from="20.758926967812016" to="0" dur="0.6227678090343605s" begin="4.969884176802466s" fill="freeze" /></path><path d="M 21.8 -32.8 L 43.6 -35.5 " transform="translate(0.0 38.0)" stroke-dasharray="21.966565503054866" stroke-dashoffset="21.966565503054866"><animate attributeName="stroke-dashoffset" from="21.966565503054866" to="0" dur="0.658996965091646s" begin="5.592651985836827s" fill="freeze" /></path><path d="M 46.0 -25.7 C 45.4 -22.3 44.0 -21.3 42.0 -21.3 C 36.8 -21.3 29.3 -27.1 27.2 -40.1 " transform="translate(0.0 38.0)" stroke-dasharray="32.34547599003445" stroke-dashoffset="32.34547599003445"><animate attributeName="stroke-dashoffset" from="32.34547599003445" to="0" dur="0.9703642797010334s" begin="6.251648950928473s" fill="freeze" /></path><path d="M 36.1 -38.8 C 35.2 -39.4 34.0 -40.0 33.0 -40.5" transform="translate(0.0 38.0)" stroke-dasharray="3.537724068129419" stroke-dashoffset="3.537724068129419"><animate attributeName="stroke-dashoffset" from="3.537724068129419" to="0" dur="0.10613172204388256s" begin="7.222013230629507s" fill="freeze" /></path></g></svg>