<?xml version='1.0' encoding='utf-8'?>
<svg viewBox="0.0 -6.0 50.0 50.0" version="1.1" xmlns="http://www.w3.org/2000/svg"><rect x="-1000" y="-1000" width="2000" height="2000" stroke="white" fill="white" /><g style="fill:none;stroke:#000000;stroke-width:1"><path d="M 6.8 2.6 C 19.6 1.8 29.5 -2.2 34.8 -11.7 " transform="translate(0.0 38.0)" stroke-dasharray="32.898195448251336" stroke-dashoffset="32.898195448251336"><animate attributeName="stroke-dashoffset" from="32.898195448251336" to="0" dur="0.9869458634475401s" begin="0s" fill="freeze" /></path><path d="M 13.3 -5.0 C 16.8 -8.5 20.2 -13.1 22.6 -17.2 " transform="translate(0.0 38.0)" stroke-dasharray="15.378882903374492" stroke-dashoffset="15.378882903374492"><animate attributeName="stroke-dashoffset" from="15.378882903374492" to="0" dur="0.46136648710123473s" begin="0.9869458634475401s" fill="freeze" /></path><path d="M 40.0 1.9 C 32.4 -1.4 23.1 -4.4 14.3 -5.9 " transform="translate(0.0 38.0)" stroke-dasharray="26.91861806277488" stroke-dashoffset="26.91861806277488"><animate attributeName="stroke-dashoffset" from="26.91861806277488" to="0" dur="0.8075585418832464s" begin="1.448312350548775s" fill="freeze" /></path><path d="M 45.6 -11.9 L 4.2 -11.9 " transform="translate(0.0 38.0)" stroke-dasharray="41.4" stroke-dashoffset="41.4"><animate attributeName="stroke-dashoffset" from="41.4" to="0" dur="1.242s" begin="2.2558708924320214s" fill="freeze" /></path><path d="M 44.0 -16.2 L 44.0 -18.6 C 44.0 -20.5 43.0 -21.6 40.2 -21.6 L 9.9 -21.6 C 7.1 -21.6 6.2 -20.5 6.2 -18.7 L 6.2 -16.3 " transform="translate(0.0 38.0)" stroke-dasharray="46.075170647498794" stroke-dashoffset="46.075170647498794"><animate attributeName="stroke-dashoffset" from="46.075170647498794" to="0" dur="1.3822551194249637s" begin="3.4978708924320214s" fill="freeze" /></path><path d="M 15.7 -27.3 L 34.6 -27.3 C 37.4 -27.3 38.1 -28.1 38.1 -29.9 L 38.1 -36.6 C 38.1 -38.5 37.2 -39.2 34.5 -39.2 L 15.7 -39.2 C 12.9 -39.2 11.9 -38.5 11.9 -36.6 L 11.9 -29.9 C 11.9 -28.1 12.9 -27.3 15.7 -27.3 Z " transform="translate(0.0 38.0)" stroke-dasharray="71.99127694451313" stroke-dashoffset="71.99127694451313"><animate attributeName="stroke-dashoffset" from="71.99127694451313" to="0" dur="2.159738308335394s" begin="4.880126011856985s" fill="freeze" /></path><path d="M 24.9 -22.2 L 24.9 -26.2 " transform="translate(0.0 38.0)" stroke-dasharray="4.0" stroke-dashoffset="4.0"><animate attributeName="stroke-dashoffset" from="4.0" to="0" dur="0.12s" begin="7.039864320192379s" fill="freeze" /></path><path d="M 38.5 -33.4 L 12.7 -33.4" transform="translate(0.0 38.0)" stroke-dasharray="25.8" stroke-dashoffset="25.8"><animate attributeName="stroke-dashoffset" from="25.8" to="0" dur="0.774s" begin="7.159864320192379s" fill="freeze" /></path></g></svg>