<?xml version='1.0' encoding='utf-8'?>
<svg viewBox="0.0 -6.0 50.0 50.0" version="1.1" xmlns="http://www.w3.org/2000/svg"><rect x="-1000" y="-1000" width="2000" height="2000" stroke="white" fill="white" /><g style="fill:none;stroke:#000000;stroke-width:1"><path d="M 39.0 1.8 C 39.5 1.9 40.0 1.9 40.4 1.9 C 42.2 1.9 43.0 1.1 43.0 -0.9 L 43.0 -15.4 C 43.0 -17.6 42.0 -18.6 39.5 -18.6 L 24.2 -18.6 C 21.6 -18.6 20.6 -17.6 20.6 -15.4 L 20.6 2.2 " transform="translate(0.0 38.0)" stroke-dasharray="64.31905015810206" stroke-dashoffset="64.31905015810206"><animate attributeName="stroke-dashoffset" from="64.31905015810206" to="0" dur="1.9295715047430617s" begin="0s; 15s; 30s; 45s" fill="freeze" id="anim0" /></path><path d="M 2.7 -10.0 C 5.5 -14.3 7.8 -20.4 8.9 -26.3 " transform="translate(0.0 38.0)" stroke-dasharray="17.5418666739681" stroke-dashoffset="17.5418666739681"><animate attributeName="stroke-dashoffset" from="17.5418666739681" to="0" dur="0.5262560002190431s" begin="anim0.end" fill="freeze" id="anim1" /></path><path d="M 15.8 -16.4 C 14.6 -18.2 12.8 -20.1 10.9 -21.6 " transform="translate(0.0 38.0)" stroke-dasharray="7.172294100313259" stroke-dashoffset="7.172294100313259"><animate attributeName="stroke-dashoffset" from="7.172294100313259" to="0" dur="0.21516882300939777s" begin="anim1.end" fill="freeze" id="anim2" /></path><path d="M 28.1 1.1 L 28.1 -17.9 " transform="translate(0.0 38.0)" stroke-dasharray="19.0" stroke-dashoffset="19.0"><animate attributeName="stroke-dashoffset" from="19.0" to="0" dur="0.57s" begin="anim2.end" fill="freeze" id="anim3" /></path><path d="M 15.3 -29.2 L 3.3 -29.2 " transform="translate(0.0 38.0)" stroke-dasharray="12.0" stroke-dashoffset="12.0"><animate attributeName="stroke-dashoffset" from="12.0" to="0" dur="0.36s" begin="anim3.end" fill="freeze" id="anim4" /></path><path d="M 42.5 -9.9 L 21.4 -9.9 " transform="translate(0.0 38.0)" stroke-dasharray="21.1" stroke-dashoffset="21.1"><animate attributeName="stroke-dashoffset" from="21.1" to="0" dur="0.633s" begin="anim4.end" fill="freeze" id="anim5" /></path><path d="M 35.3 1.1 L 35.3 -17.9 " transform="translate(0.0 38.0)" stroke-dasharray="19.0" stroke-dashoffset="19.0"><animate attributeName="stroke-dashoffset" from="19.0" to="0" dur="0.57s" begin="anim5.end" fill="freeze" id="anim6" /></path><path d="M 18.1 -24.7 C 23.1 -28.4 28.2 -34.1 31.4 -39.6 " transform="translate(0.0 38.0)" stroke-dasharray="20.09685147358228" stroke-dashoffset="20.09685147358228"><animate attributeName="stroke-dashoffset" from="20.09685147358228" to="0" dur="0.6029055442074683s" begin="anim6.end" fill="freeze" id="anim7" /></path><path d="M 37.1 -25.4 L 26.6 -25.4 " transform="translate(0.0 38.0)" stroke-dasharray="10.5" stroke-dashoffset="10.5"><animate attributeName="stroke-dashoffset" from="10.5" to="0" dur="0.315s" begin="anim7.end" fill="freeze" id="anim8" /></path><path d="M 46.0 -25.7 C 40.7 -28.9 35.0 -33.9 31.5 -39.0 " transform="translate(0.0 38.0)" stroke-dasharray="19.81018504153537" stroke-dashoffset="19.81018504153537"><animate attributeName="stroke-dashoffset" from="19.81018504153537" to="0" dur="0.5943055512460611s" begin="anim8.end" fill="freeze" id="anim9" /></path><path d="M 10.1 2.6 L 10.1 -40.4" transform="translate(0.0 38.0)" stroke-dasharray="43.0" stroke-dashoffset="43.0"><animate attributeName="stroke-dashoffset" from="43.0" to="0" dur="1.29s" begin="anim9.end" fill="freeze" id="anim_end" /></path></g></svg>