<?xml version='1.0' encoding='utf-8'?>
<svg viewBox="0.0 -6.0 50.0 50.0" version="1.1" xmlns="http://www.w3.org/2000/svg"><rect x="-1000" y="-1000" width="2000" height="2000" stroke="white" fill="white" /><g style="fill:none;stroke:#000000;stroke-width:1"><path d="M 29.1 2.1 C 30.1 2.4 31.1 2.5 32.5 2.5 C 35.4 2.5 36.7 1.2 37.2 -2.0 C 38.2 -7.8 38.9 -16.1 39.0 -23.8 C 39.1 -26.1 38.1 -27.1 35.0 -27.1 L 17.6 -27.1 C 14.7 -27.1 13.7 -26.1 13.4 -23.8 C 12.8 -17.4 11.6 -9.8 9.8 -2.5 " transform="translate(0.0 38.0)" stroke-dasharray="83.81632567318135" stroke-dashoffset="83.81632567318135"><animate attributeName="stroke-dashoffset" from="83.81632567318135" to="0" dur="2.5144897701954405s" begin="0s; anim_end.end" fill="freeze" id="anim0" /></path><path d="M 45.8 -4.7 L 10.2 -4.7 " transform="translate(0.0 38.0)" stroke-dasharray="35.599999999999994" stroke-dashoffset="35.599999999999994"><animate attributeName="stroke-dashoffset" from="35.599999999999994" to="0" dur="1.0679999999999998s" begin="anim0.end" fill="freeze" id="anim1" /></path><path d="M 23.4 -4.1 C 24.6 -11.7 25.4 -19.2 25.8 -26.9 " transform="translate(0.0 38.0)" stroke-dasharray="22.93656488847244" stroke-dashoffset="22.93656488847244"><animate attributeName="stroke-dashoffset" from="22.93656488847244" to="0" dur="0.6880969466541732s" begin="anim1.end" fill="freeze" id="anim2" /></path><path d="M 46.8 -16.4 L 3.4 -16.4 " transform="translate(0.0 38.0)" stroke-dasharray="43.4" stroke-dashoffset="43.4"><animate attributeName="stroke-dashoffset" from="43.4" to="0" dur="1.3019999999999998s" begin="anim2.end" fill="freeze" id="anim3" /></path><path d="M 5.5 -26.1 C 9.2 -29.6 12.8 -34.5 15.8 -40.6 " transform="translate(0.0 38.0)" stroke-dasharray="17.87766414308235" stroke-dashoffset="17.87766414308235"><animate attributeName="stroke-dashoffset" from="17.87766414308235" to="0" dur="0.5363299242924704s" begin="anim3.end" fill="freeze" id="anim4" /></path><path d="M 45.1 -34.8 L 12.6 -34.8" transform="translate(0.0 38.0)" stroke-dasharray="32.5" stroke-dashoffset="32.5"><animate attributeName="stroke-dashoffset" from="32.5" to="0" dur="0.975s" begin="anim4.end" fill="freeze" id="anim_end" /></path></g></svg>