<?xml version='1.0' encoding='utf-8'?>
<svg viewBox="0.0 -6.0 50.0 50.0" version="1.1" xmlns="http://www.w3.org/2000/svg"><rect x="-1000" y="-1000" width="2000" height="2000" stroke="white" fill="white" /><g style="fill:none;stroke:#000000;stroke-width:1"><path d="M 33.2 1.5 C 34.5 1.7 35.6 1.8 36.6 1.8 C 39.2 1.8 40.7 0.7 41.5 -3.0 C 42.2 -6.3 42.6 -10.3 42.6 -14.4 C 42.7 -16.8 41.8 -18.1 38.5 -18.1 L 15.0 -18.1 " transform="translate(0.0 38.0)" stroke-dasharray="52.491332210374445" stroke-dashoffset="52.491332210374445"><animate attributeName="stroke-dashoffset" from="52.491332210374445" to="0" dur="1.5747399663112334s" begin="0s; anim_end.end" fill="freeze" id="anim0" /></path><path d="M 4.5 -10.7 C 10.4 -14.0 16.6 -19.6 19.9 -24.7 " transform="translate(0.0 38.0)" stroke-dasharray="20.989997792319652" stroke-dashoffset="20.989997792319652"><animate attributeName="stroke-dashoffset" from="20.989997792319652" to="0" dur="0.6296999337695895s" begin="anim0.end" fill="freeze" id="anim1" /></path><path d="M 34.6 -3.0 L 15.9 -3.0 C 13.5 -3.0 12.6 -3.9 12.6 -5.8 L 12.6 -12.4 " transform="translate(0.0 38.0)" stroke-dasharray="30.31097874892989" stroke-dashoffset="30.31097874892989"><animate attributeName="stroke-dashoffset" from="30.31097874892989" to="0" dur="0.9093293624678966s" begin="anim1.end" fill="freeze" id="anim2" /></path><path d="M 19.9 -7.2 C 22.4 -9.1 25.6 -12.5 27.1 -15.1 " transform="translate(0.0 38.0)" stroke-dasharray="10.74374111617741" stroke-dashoffset="10.74374111617741"><animate attributeName="stroke-dashoffset" from="10.74374111617741" to="0" dur="0.3223122334853223s" begin="anim2.end" fill="freeze" id="anim3" /></path><path d="M 31.9 -7.4 C 30.1 -8.9 27.9 -10.5 25.7 -11.7 " transform="translate(0.0 38.0)" stroke-dasharray="7.556638405932717" stroke-dashoffset="7.556638405932717"><animate attributeName="stroke-dashoffset" from="7.556638405932717" to="0" dur="0.2266991521779815s" begin="anim3.end" fill="freeze" id="anim4" /></path><path d="M 16.1 -24.9 L 34.1 -24.9 C 37.0 -24.9 38.0 -25.8 38.0 -27.8 L 38.0 -35.9 C 38.0 -38.0 37.0 -38.9 34.1 -38.9 L 16.1 -38.9 C 13.2 -38.9 12.2 -38.0 12.2 -35.9 L 12.2 -27.8 C 12.2 -25.8 13.2 -24.9 16.1 -24.9 Z " transform="translate(0.0 38.0)" stroke-dasharray="74.8683167872693" stroke-dashoffset="74.8683167872693"><animate attributeName="stroke-dashoffset" from="74.8683167872693" to="0" dur="2.2460495036180785s" begin="anim4.end" fill="freeze" id="anim5" /></path><path d="M 38.2 -31.9 L 12.9 -31.9" transform="translate(0.0 38.0)" stroke-dasharray="25.300000000000004" stroke-dashoffset="25.300000000000004"><animate attributeName="stroke-dashoffset" from="25.300000000000004" to="0" dur="0.7590000000000001s" begin="anim5.end" fill="freeze" id="anim_end" /></path></g></svg>