<?xml version='1.0' encoding='utf-8'?>
<svg viewBox="0.0 -6.0 50.0 50.0" version="1.1" xmlns="http://www.w3.org/2000/svg"><rect x="-1000" y="-1000" width="2000" height="2000" stroke="white" fill="white" /><g style="fill:none;stroke:#000000;stroke-width:1"><path d="M 4.2 1.4 C 5.1 1.6 5.9 1.6 6.5 1.6 C 8.6 1.6 9.6 0.8 9.6 -1.6 L 9.6 -40.1 " transform="translate(0.0 38.0)" stroke-dasharray="46.000191501334676" stroke-dashoffset="46.000191501334676"><animate attributeName="stroke-dashoffset" from="46.000191501334676" to="0" dur="1.3800057450400403s" begin="0s" fill="freeze" /></path><path d="M 3.5 -13.2 C 7.2 -14.2 11.5 -15.8 14.6 -17.3 " transform="translate(0.0 38.0)" stroke-dasharray="11.848030187979335" stroke-dashoffset="11.848030187979335"><animate attributeName="stroke-dashoffset" from="11.848030187979335" to="0" dur="0.35544090563938s" begin="1.3800057450400403s" fill="freeze" /></path><path d="M 16.1 -1.3 C 21.2 -1.9 28.6 -3.5 33.2 -5.2 " transform="translate(0.0 38.0)" stroke-dasharray="17.571142724281945" stroke-dashoffset="17.571142724281945"><animate attributeName="stroke-dashoffset" from="17.571142724281945" to="0" dur="0.5271342817284583s" begin="1.7354466506794202s" fill="freeze" /></path><path d="M 24.9 -3.3 L 24.9 -19.0 " transform="translate(0.0 38.0)" stroke-dasharray="15.7" stroke-dashoffset="15.7"><animate attributeName="stroke-dashoffset" from="15.7" to="0" dur="0.471s" begin="2.2625809324078787s" fill="freeze" /></path><path d="M 32.0 -12.8 L 17.9 -12.8 " transform="translate(0.0 38.0)" stroke-dasharray="14.100000000000001" stroke-dashoffset="14.100000000000001"><animate attributeName="stroke-dashoffset" from="14.100000000000001" to="0" dur="0.42300000000000004s" begin="2.733580932407879s" fill="freeze" /></path><path d="M 14.2 -29.3 L 3.8 -29.3 " transform="translate(0.0 38.0)" stroke-dasharray="10.399999999999999" stroke-dashoffset="10.399999999999999"><animate attributeName="stroke-dashoffset" from="10.399999999999999" to="0" dur="0.31199999999999994s" begin="3.156580932407879s" fill="freeze" /></path><path d="M 33.3 -23.9 L 16.8 -23.9 " transform="translate(0.0 38.0)" stroke-dasharray="16.499999999999996" stroke-dashoffset="16.499999999999996"><animate attributeName="stroke-dashoffset" from="16.499999999999996" to="0" dur="0.4949999999999999s" begin="3.4685809324078787s" fill="freeze" /></path><path d="M 24.9 -24.2 L 24.9 -39.7 " transform="translate(0.0 38.0)" stroke-dasharray="15.500000000000004" stroke-dashoffset="15.500000000000004"><animate attributeName="stroke-dashoffset" from="15.500000000000004" to="0" dur="0.4650000000000001s" begin="3.9635809324078783s" fill="freeze" /></path><path d="M 31.5 -32.7 L 18.8 -32.7 " transform="translate(0.0 38.0)" stroke-dasharray="12.7" stroke-dashoffset="12.7"><animate attributeName="stroke-dashoffset" from="12.7" to="0" dur="0.38099999999999995s" begin="4.428580932407878s" fill="freeze" /></path><path d="M 39.2 2.5 L 39.2 -40.5 " transform="translate(0.0 38.0)" stroke-dasharray="43.0" stroke-dashoffset="43.0"><animate attributeName="stroke-dashoffset" from="43.0" to="0" dur="1.29s" begin="4.809580932407878s" fill="freeze" /></path><path d="M 47.0 -18.6 C 45.0 -20.4 42.2 -22.2 39.9 -23.4" transform="translate(0.0 38.0)" stroke-dasharray="8.590419598603514" stroke-dashoffset="8.590419598603514"><animate attributeName="stroke-dashoffset" from="8.590419598603514" to="0" dur="0.2577125879581054s" begin="6.0995809324078785s" fill="freeze" /></path></g></svg>