<?xml version='1.0' encoding='utf-8'?>
<svg viewBox="0.0 -6.0 50.0 50.0" version="1.1" xmlns="http://www.w3.org/2000/svg"><rect x="-1000" y="-1000" width="2000" height="2000" stroke="white" fill="white" /><g style="fill:none;stroke:#000000;stroke-width:1"><path d="M 3.5 -27.6 C 11.2 -30.6 19.3 -35.8 25.1 -41.5 " transform="translate(0.0 38.0)" stroke-dasharray="25.848034539240356" stroke-dashoffset="25.848034539240356"><animate attributeName="stroke-dashoffset" from="25.848034539240356" to="0" dur="0.7754410361772106s" begin="0s; 15s; 30s; 45s" fill="freeze" id="anim0" /></path><path d="M 5.8 -0.1 C 7.0 -1.5 8.3 -3.5 9.1 -5.4 " transform="translate(0.0 38.0)" stroke-dasharray="6.265937876187334" stroke-dashoffset="6.265937876187334"><animate attributeName="stroke-dashoffset" from="6.265937876187334" to="0" dur="0.18797813628562002s" begin="anim0.end" fill="freeze" id="anim1" /></path><path d="M 16.1 -6.5 L 16.1 -1.2 C 16.1 1.1 17.1 1.8 24.6 1.8 C 33.2 1.8 34.8 0.9 35.1 -3.0 " transform="translate(0.0 38.0)" stroke-dasharray="28.560833826725204" stroke-dashoffset="28.560833826725204"><animate attributeName="stroke-dashoffset" from="28.560833826725204" to="0" dur="0.8568250148017561s" begin="anim1.end" fill="freeze" id="anim2" /></path><path d="M 26.8 -4.8 C 25.6 -5.8 24.7 -6.7 23.6 -7.3 " transform="translate(0.0 38.0)" stroke-dasharray="4.0683456450013855" stroke-dashoffset="4.0683456450013855"><animate attributeName="stroke-dashoffset" from="4.0683456450013855" to="0" dur="0.12205036935004156s" begin="anim2.end" fill="freeze" id="anim3" /></path><path d="M 21.8 -16.3 L 9.8 -16.3 " transform="translate(0.0 38.0)" stroke-dasharray="12.0" stroke-dashoffset="12.0"><animate attributeName="stroke-dashoffset" from="12.0" to="0" dur="0.36s" begin="anim3.end" fill="freeze" id="anim4" /></path><path d="M 17.0 -11.3 C 17.9 -11.1 18.8 -11.0 19.4 -11.0 C 21.4 -11.0 22.5 -11.8 22.5 -13.4 L 22.5 -23.2 C 22.5 -24.9 21.8 -25.6 19.6 -25.6 L 12.1 -25.6 C 9.9 -25.6 9.2 -24.9 9.2 -23.2 L 9.2 -10.6 " transform="translate(0.0 38.0)" stroke-dasharray="45.578229243638646" stroke-dashoffset="45.578229243638646"><animate attributeName="stroke-dashoffset" from="45.578229243638646" to="0" dur="1.3673468773091593s" begin="anim4.end" fill="freeze" id="anim5" /></path><path d="M 21.8 -20.9 L 9.8 -20.9 " transform="translate(0.0 38.0)" stroke-dasharray="12.0" stroke-dashoffset="12.0"><animate attributeName="stroke-dashoffset" from="12.0" to="0" dur="0.36s" begin="anim5.end" fill="freeze" id="anim6" /></path><path d="M 43.9 -1.6 C 42.9 -3.0 41.2 -4.8 39.9 -6.2 " transform="translate(0.0 38.0)" stroke-dasharray="6.099666810461294" stroke-dashoffset="6.099666810461294"><animate attributeName="stroke-dashoffset" from="6.099666810461294" to="0" dur="0.1829900043138388s" begin="anim6.end" fill="freeze" id="anim7" /></path><path d="M 31.0 -16.6 L 31.0 -24.7 " transform="translate(0.0 38.0)" stroke-dasharray="8.099999999999998" stroke-dashoffset="8.099999999999998"><animate attributeName="stroke-dashoffset" from="8.099999999999998" to="0" dur="0.24299999999999994s" begin="anim7.end" fill="freeze" id="anim8" /></path><path d="M 30.3 -31.0 L 18.7 -31.0 " transform="translate(0.0 38.0)" stroke-dasharray="11.600000000000001" stroke-dashoffset="11.600000000000001"><animate attributeName="stroke-dashoffset" from="11.600000000000001" to="0" dur="0.34800000000000003s" begin="anim8.end" fill="freeze" id="anim9" /></path><path d="M 36.0 -11.6 C 36.7 -11.4 37.4 -11.3 38.0 -11.3 C 40.0 -11.3 41.0 -12.2 41.0 -14.4 L 41.0 -25.5 " transform="translate(0.0 38.0)" stroke-dasharray="18.111626091440414" stroke-dashoffset="18.111626091440414"><animate attributeName="stroke-dashoffset" from="18.111626091440414" to="0" dur="0.5433487827432124s" begin="anim9.end" fill="freeze" id="anim10" /></path><path d="M 46.2 -28.4 C 38.3 -31.1 30.4 -35.8 25.2 -40.9" transform="translate(0.0 38.0)" stroke-dasharray="24.62473627695829" stroke-dashoffset="24.62473627695829"><animate attributeName="stroke-dashoffset" from="24.62473627695829" to="0" dur="0.7387420883087488s" begin="anim10.end" fill="freeze" id="anim_end" /></path></g></svg>