<?xml version='1.0' encoding='utf-8'?>
<svg viewBox="0.0 -6.0 50.0 50.0" version="1.1" xmlns="http://www.w3.org/2000/svg"><rect x="-1000" y="-1000" width="2000" height="2000" stroke="white" fill="white" /><g style="fill:none;stroke:#000000;stroke-width:1"><path d="M 3.8 -9.2 C 9.2 -11.7 14.8 -15.8 18.6 -20.6 " transform="translate(0.0 38.0)" stroke-dasharray="18.841475479816435" stroke-dashoffset="18.841475479816435"><animate attributeName="stroke-dashoffset" from="18.841475479816435" to="0" dur="0.565244264394493s" begin="0s" fill="freeze" /></path><path d="M 8.3 0.1 C 13.8 -2.2 19.4 -6.0 23.1 -10.2 " transform="translate(0.0 38.0)" stroke-dasharray="18.17353749446488" stroke-dashoffset="18.17353749446488"><animate attributeName="stroke-dashoffset" from="18.17353749446488" to="0" dur="0.5452061248339464s" begin="0.565244264394493s" fill="freeze" /></path><path d="M 24.9 2.8 L 24.9 -16.7 " transform="translate(0.0 38.0)" stroke-dasharray="19.5" stroke-dashoffset="19.5"><animate attributeName="stroke-dashoffset" from="19.5" to="0" dur="0.585s" begin="1.1104503892284394s" fill="freeze" /></path><path d="M 34.8 -11.6 L 15.1 -11.6 " transform="translate(0.0 38.0)" stroke-dasharray="19.699999999999996" stroke-dashoffset="19.699999999999996"><animate attributeName="stroke-dashoffset" from="19.699999999999996" to="0" dur="0.5909999999999999s" begin="1.6954503892284394s" fill="freeze" /></path><path d="M 41.9 -0.5 C 36.2 -2.4 30.1 -6.4 26.2 -10.3 " transform="translate(0.0 38.0)" stroke-dasharray="18.654434012450423" stroke-dashoffset="18.654434012450423"><animate attributeName="stroke-dashoffset" from="18.654434012450423" to="0" dur="0.5596330203735127s" begin="2.286450389228439s" fill="freeze" /></path><path d="M 45.8 -20.9 L 4.3 -20.9 " transform="translate(0.0 38.0)" stroke-dasharray="41.5" stroke-dashoffset="41.5"><animate attributeName="stroke-dashoffset" from="41.5" to="0" dur="1.2449999999999999s" begin="2.8460834096019516s" fill="freeze" /></path><path d="M 16.8 -21.1 L 16.8 -40.9 " transform="translate(0.0 38.0)" stroke-dasharray="19.799999999999997" stroke-dashoffset="19.799999999999997"><animate attributeName="stroke-dashoffset" from="19.799999999999997" to="0" dur="0.5939999999999999s" begin="4.091083409601952s" fill="freeze" /></path><path d="M 32.4 -26.3 L 17.2 -26.3 " transform="translate(0.0 38.0)" stroke-dasharray="15.2" stroke-dashoffset="15.2"><animate attributeName="stroke-dashoffset" from="15.2" to="0" dur="0.45599999999999996s" begin="4.685083409601951s" fill="freeze" /></path><path d="M 46.2 -10.1 C 40.5 -12.2 34.5 -16.1 31.1 -20.6 " transform="translate(0.0 38.0)" stroke-dasharray="18.618208605611517" stroke-dashoffset="18.618208605611517"><animate attributeName="stroke-dashoffset" from="18.618208605611517" to="0" dur="0.5585462581683455s" begin="5.141083409601951s" fill="freeze" /></path><path d="M 32.4 -31.4 L 17.2 -31.4 " transform="translate(0.0 38.0)" stroke-dasharray="15.2" stroke-dashoffset="15.2"><animate attributeName="stroke-dashoffset" from="15.2" to="0" dur="0.45599999999999996s" begin="5.699629667770296s" fill="freeze" /></path><path d="M 43.6 -36.6 L 6.7 -36.6 " transform="translate(0.0 38.0)" stroke-dasharray="36.9" stroke-dashoffset="36.9"><animate attributeName="stroke-dashoffset" from="36.9" to="0" dur="1.107s" begin="6.155629667770295s" fill="freeze" /></path><path d="M 33.0 -21.1 L 33.0 -40.9" transform="translate(0.0 38.0)" stroke-dasharray="19.799999999999997" stroke-dashoffset="19.799999999999997"><animate attributeName="stroke-dashoffset" from="19.799999999999997" to="0" dur="0.5939999999999999s" begin="7.2626296677702955s" fill="freeze" /></path></g></svg>