<?xml version='1.0' encoding='utf-8'?>
<svg viewBox="0.0 -6.0 50.0 50.0" version="1.1" xmlns="http://www.w3.org/2000/svg"><rect x="-1000" y="-1000" width="2000" height="2000" stroke="white" fill="white" /><g style="fill:none;stroke:#000000;stroke-width:1"><path d="M 16.3 1.9 C 21.9 -1.4 26.5 -6.8 28.4 -12.5 C 28.9 -14.4 28.2 -15.5 26.1 -15.5 L 20.9 -15.5 " transform="translate(0.0 38.0)" stroke-dasharray="29.03945828077668" stroke-dashoffset="29.03945828077668"><animate attributeName="stroke-dashoffset" from="29.03945828077668" to="0" dur="0.8711837484233004s" begin="0s" fill="freeze" /></path><path d="M 9.1 2.4 L 9.1 -40.5 " transform="translate(0.0 38.0)" stroke-dasharray="42.9" stroke-dashoffset="42.9"><animate attributeName="stroke-dashoffset" from="42.9" to="0" dur="1.287s" begin="0.8711837484233004s" fill="freeze" /></path><path d="M 3.0 -22.6 C 3.6 -24.2 4.2 -27.1 4.5 -29.4 " transform="translate(0.0 38.0)" stroke-dasharray="6.975039297265854" stroke-dashoffset="6.975039297265854"><animate attributeName="stroke-dashoffset" from="6.975039297265854" to="0" dur="0.20925117891797562s" begin="2.1581837484233004s" fill="freeze" /></path><path d="M 24.6 -6.2 C 23.5 -7.2 22.1 -8.3 21.3 -8.9 " transform="translate(0.0 38.0)" stroke-dasharray="4.265163454579253" stroke-dashoffset="4.265163454579253"><animate attributeName="stroke-dashoffset" from="4.265163454579253" to="0" dur="0.12795490363737758s" begin="2.367434927341276s" fill="freeze" /></path><path d="M 16.1 -8.6 C 18.9 -11.4 21.5 -15.3 22.9 -19.1 " transform="translate(0.0 38.0)" stroke-dasharray="12.599880514437242" stroke-dashoffset="12.599880514437242"><animate attributeName="stroke-dashoffset" from="12.599880514437242" to="0" dur="0.37799641543311724s" begin="2.4953898309786537s" fill="freeze" /></path><path d="M 14.9 -26.1 C 14.6 -27.4 13.8 -29.2 13.2 -30.3 " transform="translate(0.0 38.0)" stroke-dasharray="4.542190960717608" stroke-dashoffset="4.542190960717608"><animate attributeName="stroke-dashoffset" from="4.542190960717608" to="0" dur="0.13626572882152824s" begin="2.873386246411771s" fill="freeze" /></path><path d="M 46.5 -5.5 L 30.6 -5.5 " transform="translate(0.0 38.0)" stroke-dasharray="15.899999999999999" stroke-dashoffset="15.899999999999999"><animate attributeName="stroke-dashoffset" from="15.899999999999999" to="0" dur="0.4769999999999999s" begin="3.0096519752332993s" fill="freeze" /></path><path d="M 17.2 -21.0 C 22.1 -23.2 26.9 -26.6 29.8 -29.9 " transform="translate(0.0 38.0)" stroke-dasharray="15.531709576382044" stroke-dashoffset="15.531709576382044"><animate attributeName="stroke-dashoffset" from="15.531709576382044" to="0" dur="0.4659512872914613s" begin="3.486651975233299s" fill="freeze" /></path><path d="M 40.5 2.4 L 40.5 -18.9 " transform="translate(0.0 38.0)" stroke-dasharray="21.299999999999997" stroke-dashoffset="21.299999999999997"><animate attributeName="stroke-dashoffset" from="21.299999999999997" to="0" dur="0.6389999999999999s" begin="3.9526032625247605s" fill="freeze" /></path><path d="M 33.7 -5.4 L 33.7 -12.0 C 33.7 -13.8 34.5 -14.4 36.5 -14.4 L 45.5 -14.4 " transform="translate(0.0 38.0)" stroke-dasharray="19.908106514390354" stroke-dashoffset="19.908106514390354"><animate attributeName="stroke-dashoffset" from="19.908106514390354" to="0" dur="0.5972431954317106s" begin="4.59160326252476s" fill="freeze" /></path><path d="M 24.8 -35.1 C 24.4 -35.9 23.4 -37.1 22.6 -38.0 " transform="translate(0.0 38.0)" stroke-dasharray="3.6480328044770434" stroke-dashoffset="3.6480328044770434"><animate attributeName="stroke-dashoffset" from="3.6480328044770434" to="0" dur="0.1094409841343113s" begin="5.188846457956471s" fill="freeze" /></path><path d="M 31.1 -20.4 L 31.1 -40.6 " transform="translate(0.0 38.0)" stroke-dasharray="20.200000000000003" stroke-dashoffset="20.200000000000003"><animate attributeName="stroke-dashoffset" from="20.200000000000003" to="0" dur="0.6060000000000001s" begin="5.298287442090782s" fill="freeze" /></path><path d="M 45.6 -30.7 L 18.9 -30.7 " transform="translate(0.0 38.0)" stroke-dasharray="26.700000000000003" stroke-dashoffset="26.700000000000003"><animate attributeName="stroke-dashoffset" from="26.700000000000003" to="0" dur="0.801s" begin="5.904287442090782s" fill="freeze" /></path><path d="M 45.6 -22.1 C 40.9 -23.8 36.0 -26.4 32.6 -29.6 " transform="translate(0.0 38.0)" stroke-dasharray="15.10574602120188" stroke-dashoffset="15.10574602120188"><animate attributeName="stroke-dashoffset" from="15.10574602120188" to="0" dur="0.45317238063605636s" begin="6.705287442090782s" fill="freeze" /></path><path d="M 37.5 -34.9 C 38.2 -35.6 39.3 -37.1 40.0 -38.3" transform="translate(0.0 38.0)" stroke-dasharray="4.228683077398927" stroke-dashoffset="4.228683077398927"><animate attributeName="stroke-dashoffset" from="4.228683077398927" to="0" dur="0.1268604923219678s" begin="7.158459822726838s" fill="freeze" /></path></g></svg>