<?xml version='1.0' encoding='utf-8'?>
<svg viewBox="0.0 -6.0 50.0 50.0" version="1.1" xmlns="http://www.w3.org/2000/svg"><rect x="-1000" y="-1000" width="2000" height="2000" stroke="white" fill="white" /><g style="fill:none;stroke:#000000;stroke-width:1"><path d="M 24.0 -22.9 C 27.9 -25.6 31.5 -29.5 33.7 -33.2 " transform="translate(0.0 38.0)" stroke-dasharray="14.248513487967944" stroke-dashoffset="14.248513487967944"><animate attributeName="stroke-dashoffset" from="14.248513487967944" to="0" dur="0.4274554046390383s" begin="0s; 15s; 30s; 45s" fill="freeze" id="anim0" /></path><path d="M 24.4 3.0 L 24.4 -15.2 " transform="translate(0.0 38.0)" stroke-dasharray="18.2" stroke-dashoffset="18.2"><animate attributeName="stroke-dashoffset" from="18.2" to="0" dur="0.5459999999999999s" begin="anim0.end" fill="freeze" id="anim1" /></path><path d="M 4.0 -22.5 C 7.3 -24.9 10.8 -28.6 13.1 -32.4 " transform="translate(0.0 38.0)" stroke-dasharray="13.527846332541172" stroke-dashoffset="13.527846332541172"><animate attributeName="stroke-dashoffset" from="13.527846332541172" to="0" dur="0.40583538997623514s" begin="anim1.end" fill="freeze" id="anim2" /></path><path d="M 37.9 -4.5 C 34.2 -6.7 29.4 -8.8 25.3 -10.1 " transform="translate(0.0 38.0)" stroke-dasharray="13.815526808035235" stroke-dashoffset="13.815526808035235"><animate attributeName="stroke-dashoffset" from="13.815526808035235" to="0" dur="0.41446580424105706s" begin="anim2.end" fill="freeze" id="anim3" /></path><path d="M 46.1 -15.7 L 4.1 -15.7 " transform="translate(0.0 38.0)" stroke-dasharray="42.0" stroke-dashoffset="42.0"><animate attributeName="stroke-dashoffset" from="42.0" to="0" dur="1.26s" begin="anim3.end" fill="freeze" id="anim4" /></path><path d="M 14.6 -20.6 L 14.6 -40.5 " transform="translate(0.0 38.0)" stroke-dasharray="19.9" stroke-dashoffset="19.9"><animate attributeName="stroke-dashoffset" from="19.9" to="0" dur="0.597s" begin="anim4.end" fill="freeze" id="anim5" /></path><path d="M 20.6 -26.9 C 19.1 -28.1 17.1 -29.2 15.3 -30.1 " transform="translate(0.0 38.0)" stroke-dasharray="6.201969886058893" stroke-dashoffset="6.201969886058893"><animate attributeName="stroke-dashoffset" from="6.201969886058893" to="0" dur="0.18605909658176678s" begin="anim5.end" fill="freeze" id="anim6" /></path><path d="M 22.1 -34.4 L 4.8 -34.4 " transform="translate(0.0 38.0)" stroke-dasharray="17.3" stroke-dashoffset="17.3"><animate attributeName="stroke-dashoffset" from="17.3" to="0" dur="0.519s" begin="anim6.end" fill="freeze" id="anim7" /></path><path d="M 34.9 -20.8 L 34.9 -40.5 " transform="translate(0.0 38.0)" stroke-dasharray="19.7" stroke-dashoffset="19.7"><animate attributeName="stroke-dashoffset" from="19.7" to="0" dur="0.591s" begin="anim7.end" fill="freeze" id="anim8" /></path><path d="M 46.0 -23.8 C 42.2 -26.0 38.4 -29.5 35.9 -33.1 " transform="translate(0.0 38.0)" stroke-dasharray="13.831209467661882" stroke-dashoffset="13.831209467661882"><animate attributeName="stroke-dashoffset" from="13.831209467661882" to="0" dur="0.41493628402985644s" begin="anim8.end" fill="freeze" id="anim9" /></path><path d="M 45.2 -34.4 L 27.1 -34.4" transform="translate(0.0 38.0)" stroke-dasharray="18.1" stroke-dashoffset="18.1"><animate attributeName="stroke-dashoffset" from="18.1" to="0" dur="0.543s" begin="anim9.end" fill="freeze" id="anim_end" /></path></g></svg>