<?xml version='1.0' encoding='utf-8'?>
<svg viewBox="0.0 -6.0 50.0 50.0" version="1.1" xmlns="http://www.w3.org/2000/svg"><rect x="-1000" y="-1000" width="2000" height="2000" stroke="white" fill="white" /><g style="fill:none;stroke:#000000;stroke-width:1"><path d="M 17.7 -14.3 C 26.1 -17.8 34.7 -23.8 38.9 -30.4 C 40.4 -32.6 39.5 -34.2 36.6 -34.2 L 26.7 -34.2 " transform="translate(0.0 38.0)" stroke-dasharray="42.941012108155405" stroke-dashoffset="42.941012108155405"><animate attributeName="stroke-dashoffset" from="42.941012108155405" to="0" dur="1.2882303632446621s" begin="0s; 15s; 30s; 45s" fill="freeze" id="anim0" /></path><path d="M 6.2 0.3 C 8.6 -3.1 11.2 -8.4 12.7 -12.9 " transform="translate(0.0 38.0)" stroke-dasharray="14.758112978284684" stroke-dashoffset="14.758112978284684"><animate attributeName="stroke-dashoffset" from="14.758112978284684" to="0" dur="0.4427433893485405s" begin="anim0.end" fill="freeze" id="anim1" /></path><path d="M 9.3 -23.1 C 8.0 -24.6 6.0 -26.1 4.8 -27.0 " transform="translate(0.0 38.0)" stroke-dasharray="5.965654673386671" stroke-dashoffset="5.965654673386671"><animate attributeName="stroke-dashoffset" from="5.965654673386671" to="0" dur="0.1789696402016001s" begin="anim1.end" fill="freeze" id="anim2" /></path><path d="M 27.6 1.1 L 37.4 1.1 C 40.1 1.1 41.1 0.1 41.1 -2.2 L 41.1 -9.1 C 41.1 -11.4 40.1 -12.4 37.4 -12.4 L 27.6 -12.4 C 24.9 -12.4 23.8 -11.4 23.8 -9.1 L 23.8 -2.2 C 23.8 0.1 24.9 1.1 27.6 1.1 Z " transform="translate(0.0 38.0)" stroke-dasharray="56.59186494317294" stroke-dashoffset="56.59186494317294"><animate attributeName="stroke-dashoffset" from="56.59186494317294" to="0" dur="1.6977559482951883s" begin="anim2.end" fill="freeze" id="anim3" /></path><path d="M 13.1 -34.5 C 11.8 -36.0 9.8 -37.9 8.7 -38.7 " transform="translate(0.0 38.0)" stroke-dasharray="6.091958620902852" stroke-dashoffset="6.091958620902852"><animate attributeName="stroke-dashoffset" from="6.091958620902852" to="0" dur="0.18275875862708554s" begin="anim3.end" fill="freeze" id="anim4" /></path><path d="M 18.9 -25.8 C 22.6 -29.2 26.4 -35.0 28.2 -39.4 " transform="translate(0.0 38.0)" stroke-dasharray="16.584750572475173" stroke-dashoffset="16.584750572475173"><animate attributeName="stroke-dashoffset" from="16.584750572475173" to="0" dur="0.4975425171742552s" begin="anim4.end" fill="freeze" id="anim5" /></path><path d="M 45.9 -15.8 C 38.1 -18.7 30.1 -24.8 25.8 -32.3" transform="translate(0.0 38.0)" stroke-dasharray="26.494479584771458" stroke-dashoffset="26.494479584771458"><animate attributeName="stroke-dashoffset" from="26.494479584771458" to="0" dur="0.7948343875431437s" begin="anim5.end" fill="freeze" id="anim_end" /></path></g></svg>