<?xml version='1.0' encoding='utf-8'?>
<svg viewBox="0.0 -6.0 50.0 50.0" version="1.1" xmlns="http://www.w3.org/2000/svg"><rect x="-1000" y="-1000" width="2000" height="2000" stroke="white" fill="white" /><g style="fill:none;stroke:#000000;stroke-width:1"><path d="M 4.0 1.0 C 10.1 -5.0 14.1 -13.7 15.2 -24.2 C 15.3 -26.2 14.4 -27.1 12.2 -27.1 L 7.5 -27.1 " transform="translate(0.0 38.0)" stroke-dasharray="37.71882874389481" stroke-dashoffset="37.71882874389481"><animate attributeName="stroke-dashoffset" from="37.71882874389481" to="0" dur="1.1315648623168444s" begin="0s" fill="freeze" /></path><path d="M 19.4 2.8 C 22.4 2.0 25.8 0.7 28.2 -0.8 " transform="translate(0.0 38.0)" stroke-dasharray="9.539273462394233" stroke-dashoffset="9.539273462394233"><animate attributeName="stroke-dashoffset" from="9.539273462394233" to="0" dur="0.28617820387182696s" begin="1.1315648623168444s" fill="freeze" /></path><path d="M 12.2 -13.8 C 10.9 -15.1 9.6 -16.1 8.7 -16.8 " transform="translate(0.0 38.0)" stroke-dasharray="4.61312450438023" stroke-dashoffset="4.61312450438023"><animate attributeName="stroke-dashoffset" from="4.61312450438023" to="0" dur="0.1383937351314069s" begin="1.4177430661886714s" fill="freeze" /></path><path d="M 3.2 -15.7 C 6.1 -20.9 8.2 -28.1 8.9 -36.9 " transform="translate(0.0 38.0)" stroke-dasharray="22.115252750864165" stroke-dashoffset="22.115252750864165"><animate attributeName="stroke-dashoffset" from="22.115252750864165" to="0" dur="0.6634575825259249s" begin="1.5561368013200783s" fill="freeze" /></path><path d="M 45.1 2.4 C 42.8 1.6 40.1 0.3 38.0 -0.9 " transform="translate(0.0 38.0)" stroke-dasharray="7.839339024494183" stroke-dashoffset="7.839339024494183"><animate attributeName="stroke-dashoffset" from="7.839339024494183" to="0" dur="0.2351801707348255s" begin="2.2195943838460033s" fill="freeze" /></path><path d="M 41.5 -9.3 L 25.8 -9.3 " transform="translate(0.0 38.0)" stroke-dasharray="15.7" stroke-dashoffset="15.7"><animate attributeName="stroke-dashoffset" from="15.7" to="0" dur="0.471s" begin="2.454774554580829s" fill="freeze" /></path><path d="M 28.4 -4.5 L 39.2 -4.5 C 41.8 -4.5 42.8 -5.2 42.8 -7.0 L 42.8 -16.1 C 42.8 -17.9 41.8 -18.7 39.2 -18.7 L 28.4 -18.7 C 25.8 -18.7 24.8 -17.9 24.8 -16.1 L 24.8 -7.0 C 24.8 -5.2 25.8 -4.5 28.4 -4.5 Z " transform="translate(0.0 38.0)" stroke-dasharray="60.15492882531149" stroke-dashoffset="60.15492882531149"><animate attributeName="stroke-dashoffset" from="60.15492882531149" to="0" dur="1.8046478647593445s" begin="2.925774554580829s" fill="freeze" /></path><path d="M 21.2 -22.1 C 22.8 -22.9 24.4 -24.2 25.6 -25.4 " transform="translate(0.0 38.0)" stroke-dasharray="5.522065868526804" stroke-dashoffset="5.522065868526804"><animate attributeName="stroke-dashoffset" from="5.522065868526804" to="0" dur="0.1656619760558041s" begin="4.730422419340173s" fill="freeze" /></path><path d="M 16.8 -37.3 L 3.4 -37.3 " transform="translate(0.0 38.0)" stroke-dasharray="13.4" stroke-dashoffset="13.4"><animate attributeName="stroke-dashoffset" from="13.4" to="0" dur="0.40199999999999997s" begin="4.896084395395977s" fill="freeze" /></path><path d="M 41.5 -13.9 L 25.8 -13.9 " transform="translate(0.0 38.0)" stroke-dasharray="15.7" stroke-dashoffset="15.7"><animate attributeName="stroke-dashoffset" from="15.7" to="0" dur="0.471s" begin="5.2980843953959775s" fill="freeze" /></path><path d="M 18.8 -16.4 C 26.4 -18.5 35.2 -22.1 41.0 -25.9 " transform="translate(0.0 38.0)" stroke-dasharray="24.230921601852856" stroke-dashoffset="24.230921601852856"><animate attributeName="stroke-dashoffset" from="24.230921601852856" to="0" dur="0.7269276480555856s" begin="5.769084395395978s" fill="freeze" /></path><path d="M 32.1 -21.1 L 32.1 -29.9 " transform="translate(0.0 38.0)" stroke-dasharray="8.799999999999997" stroke-dashoffset="8.799999999999997"><animate attributeName="stroke-dashoffset" from="8.799999999999997" to="0" dur="0.2639999999999999s" begin="6.496012043451564s" fill="freeze" /></path><path d="M 39.8 -29.9 L 25.4 -29.9 " transform="translate(0.0 38.0)" stroke-dasharray="14.399999999999999" stroke-dashoffset="14.399999999999999"><animate attributeName="stroke-dashoffset" from="14.399999999999999" to="0" dur="0.43199999999999994s" begin="6.760012043451564s" fill="freeze" /></path><path d="M 44.9 -31.3 L 44.9 -33.1 C 44.9 -35.0 43.9 -36.0 41.4 -36.0 L 24.6 -36.0 C 21.7 -36.0 20.8 -35.0 20.8 -33.1 L 20.8 -30.8 " transform="translate(0.0 38.0)" stroke-dasharray="31.658525681680636" stroke-dashoffset="31.658525681680636"><animate attributeName="stroke-dashoffset" from="31.658525681680636" to="0" dur="0.949755770450419s" begin="7.192012043451564s" fill="freeze" /></path><path d="M 32.4 -36.1 L 32.4 -40.1" transform="translate(0.0 38.0)" stroke-dasharray="4.0" stroke-dashoffset="4.0"><animate attributeName="stroke-dashoffset" from="4.0" to="0" dur="0.12s" begin="8.141767813901984s" fill="freeze" /></path></g></svg>