<?xml version='1.0' encoding='utf-8'?>
<svg viewBox="0.0 -6.0 50.0 50.0" version="1.1" xmlns="http://www.w3.org/2000/svg"><rect x="-1000" y="-1000" width="2000" height="2000" stroke="white" fill="white" /><g style="fill:none;stroke:#000000;stroke-width:1"><path d="M 39.5 1.8 C 40.1 1.9 40.5 1.9 41.1 1.9 C 43.3 1.9 44.1 1.2 44.1 -0.8 L 44.1 -8.6 C 44.1 -10.7 43.4 -11.7 41.0 -11.7 L 23.1 -11.7 C 20.6 -11.7 19.9 -10.6 19.9 -8.6 L 19.9 2.4 " transform="translate(0.0 38.0)" stroke-dasharray="53.342801038220934" stroke-dashoffset="53.342801038220934"><animate attributeName="stroke-dashoffset" from="53.342801038220934" to="0" dur="1.600284031146628s" begin="0s; 15s; 30s; 45s" fill="freeze" id="anim0" /></path><path d="M 3.6 -13.4 C 7.6 -14.7 11.6 -16.1 14.7 -17.6 " transform="translate(0.0 38.0)" stroke-dasharray="11.876618601292646" stroke-dashoffset="11.876618601292646"><animate attributeName="stroke-dashoffset" from="11.876618601292646" to="0" dur="0.35629855803877936s" begin="anim0.end" fill="freeze" id="anim1" /></path><path d="M 4.3 1.9 C 5.2 2.0 6.0 2.1 6.7 2.1 C 8.7 2.1 9.8 1.2 9.8 -1.2 L 9.8 -40.4 " transform="translate(0.0 38.0)" stroke-dasharray="46.836000688037366" stroke-dashoffset="46.836000688037366"><animate attributeName="stroke-dashoffset" from="46.836000688037366" to="0" dur="1.405080020641121s" begin="anim1.end" fill="freeze" id="anim2" /></path><path d="M 29.3 1.1 L 33.9 1.1 C 35.5 1.1 36.1 0.7 36.1 -0.7 L 36.1 -1.9 C 36.1 -3.2 35.5 -3.8 33.9 -3.8 L 29.3 -3.8 C 27.6 -3.8 27.0 -3.2 27.0 -1.9 L 27.0 -0.7 C 27.0 0.7 27.6 1.1 29.3 1.1 Z " transform="translate(0.0 38.0)" stroke-dasharray="25.195838183791608" stroke-dashoffset="25.195838183791608"><animate attributeName="stroke-dashoffset" from="25.195838183791608" to="0" dur="0.7558751455137482s" begin="anim2.end" fill="freeze" id="anim3" /></path><path d="M 23.9 -5.3 C 26.8 -6.3 28.4 -8.1 29.0 -11.1 " transform="translate(0.0 38.0)" stroke-dasharray="8.148576400539737" stroke-dashoffset="8.148576400539737"><animate attributeName="stroke-dashoffset" from="8.148576400539737" to="0" dur="0.2444572920161921s" begin="anim3.end" fill="freeze" id="anim4" /></path><path d="M 14.9 -29.4 L 3.8 -29.4 " transform="translate(0.0 38.0)" stroke-dasharray="11.100000000000001" stroke-dashoffset="11.100000000000001"><animate attributeName="stroke-dashoffset" from="11.100000000000001" to="0" dur="0.333s" begin="anim4.end" fill="freeze" id="anim5" /></path><path d="M 40.6 -8.3 C 40.5 -6.9 39.5 -6.5 37.2 -6.5 C 34.9 -6.5 34.4 -7.0 34.4 -8.5 L 34.4 -11.1 " transform="translate(0.0 38.0)" stroke-dasharray="10.991543411089395" stroke-dashoffset="10.991543411089395"><animate attributeName="stroke-dashoffset" from="10.991543411089395" to="0" dur="0.3297463023326819s" begin="anim5.end" fill="freeze" id="anim6" /></path><path d="M 17.9 -23.7 C 19.9 -25.9 22.1 -28.6 23.7 -31.6 " transform="translate(0.0 38.0)" stroke-dasharray="9.825501691660861" stroke-dashoffset="9.825501691660861"><animate attributeName="stroke-dashoffset" from="9.825501691660861" to="0" dur="0.29476505074982584s" begin="anim6.end" fill="freeze" id="anim7" /></path><path d="M 41.8 -20.4 L 22.7 -20.4 " transform="translate(0.0 38.0)" stroke-dasharray="19.099999999999998" stroke-dashoffset="19.099999999999998"><animate attributeName="stroke-dashoffset" from="19.099999999999998" to="0" dur="0.573s" begin="anim7.end" fill="freeze" id="anim8" /></path><path d="M 32.4 -16.7 L 32.4 -28.2 " transform="translate(0.0 38.0)" stroke-dasharray="11.5" stroke-dashoffset="11.5"><animate attributeName="stroke-dashoffset" from="11.5" to="0" dur="0.345s" begin="anim8.end" fill="freeze" id="anim9" /></path><path d="M 45.0 -16.2 L 25.3 -16.2 C 23.1 -16.2 22.4 -16.9 22.4 -18.7 L 22.4 -26.4 C 22.4 -28.1 23.1 -28.8 25.3 -28.8 L 44.2 -28.8 " transform="translate(0.0 38.0)" stroke-dasharray="55.17898344709858" stroke-dashoffset="55.17898344709858"><animate attributeName="stroke-dashoffset" from="55.17898344709858" to="0" dur="1.6553695034129574s" begin="anim9.end" fill="freeze" id="anim10" /></path><path d="M 41.8 -24.6 L 22.7 -24.6 " transform="translate(0.0 38.0)" stroke-dasharray="19.099999999999998" stroke-dashoffset="19.099999999999998"><animate attributeName="stroke-dashoffset" from="19.099999999999998" to="0" dur="0.573s" begin="anim10.end" fill="freeze" id="anim11" /></path><path d="M 31.6 -28.3 C 32.3 -29.5 32.8 -30.4 33.2 -31.6 " transform="translate(0.0 38.0)" stroke-dasharray="3.6749062500388776" stroke-dashoffset="3.6749062500388776"><animate attributeName="stroke-dashoffset" from="3.6749062500388776" to="0" dur="0.11024718750116633s" begin="anim11.end" fill="freeze" id="anim12" /></path><path d="M 21.3 -39.4 L 21.3 -37.6 C 21.3 -35.6 21.9 -35.0 24.5 -35.0 L 40.2 -35.0 C 42.7 -35.0 43.4 -35.6 43.4 -37.6 L 43.4 -39.4 " transform="translate(0.0 38.0)" stroke-dasharray="29.068092259159624" stroke-dashoffset="29.068092259159624"><animate attributeName="stroke-dashoffset" from="29.068092259159624" to="0" dur="0.8720427677747887s" begin="anim12.end" fill="freeze" id="anim13" /></path><path d="M 32.1 -35.2 L 32.1 -40.6" transform="translate(0.0 38.0)" stroke-dasharray="5.399999999999999" stroke-dashoffset="5.399999999999999"><animate attributeName="stroke-dashoffset" from="5.399999999999999" to="0" dur="0.16199999999999995s" begin="anim13.end" fill="freeze" id="anim_end" /></path></g></svg>