<?xml version='1.0' encoding='utf-8'?>
<svg viewBox="0.0 -6.0 50.0 50.0" version="1.1" xmlns="http://www.w3.org/2000/svg"><rect x="-1000" y="-1000" width="2000" height="2000" stroke="white" fill="white" /><g style="fill:none;stroke:#000000;stroke-width:1"><path d="M 39.0 1.1 C 40.0 1.4 40.7 1.4 41.6 1.4 C 43.9 1.4 44.8 0.5 44.8 -1.9 L 44.8 -23.1 C 44.8 -25.8 43.6 -26.9 40.5 -26.9 L 25.2 -26.9 C 22.1 -26.9 20.9 -25.8 20.9 -23.1 L 20.9 1.9 " transform="translate(0.0 38.0)" stroke-dasharray="82.844777161502" stroke-dashoffset="82.844777161502"><animate attributeName="stroke-dashoffset" from="82.844777161502" to="0" dur="2.4853433148450597s" begin="0s" fill="freeze" /></path><path d="M 2.8 -9.8 C 5.6 -14.2 8.0 -20.4 9.2 -26.2 " transform="translate(0.0 38.0)" stroke-dasharray="17.691938281887836" stroke-dashoffset="17.691938281887836"><animate attributeName="stroke-dashoffset" from="17.691938281887836" to="0" dur="0.530758148456635s" begin="2.4853433148450597s" fill="freeze" /></path><path d="M 10.3 2.9 L 10.3 -40.6 " transform="translate(0.0 38.0)" stroke-dasharray="43.5" stroke-dashoffset="43.5"><animate attributeName="stroke-dashoffset" from="43.5" to="0" dur="1.305s" begin="3.0161014633016947s" fill="freeze" /></path><path d="M 15.6 -17.1 C 14.4 -18.9 12.6 -20.7 10.7 -22.2 " transform="translate(0.0 38.0)" stroke-dasharray="7.099980101121778" stroke-dashoffset="7.099980101121778"><animate attributeName="stroke-dashoffset" from="7.099980101121778" to="0" dur="0.21299940303365333s" begin="4.321101463301694s" fill="freeze" /></path><path d="M 32.3 1.2 L 32.3 -14.6 " transform="translate(0.0 38.0)" stroke-dasharray="15.799999999999999" stroke-dashoffset="15.799999999999999"><animate attributeName="stroke-dashoffset" from="15.799999999999999" to="0" dur="0.474s" begin="4.534100866335348s" fill="freeze" /></path><path d="M 15.8 -29.1 L 3.5 -29.1 " transform="translate(0.0 38.0)" stroke-dasharray="12.3" stroke-dashoffset="12.3"><animate attributeName="stroke-dashoffset" from="12.3" to="0" dur="0.369s" begin="5.008100866335348s" fill="freeze" /></path><path d="M 40.2 -8.2 L 25.6 -8.2 " transform="translate(0.0 38.0)" stroke-dasharray="14.600000000000001" stroke-dashoffset="14.600000000000001"><animate attributeName="stroke-dashoffset" from="14.600000000000001" to="0" dur="0.438s" begin="5.377100866335348s" fill="freeze" /></path><path d="M 39.5 -15.3 L 26.3 -15.3 " transform="translate(0.0 38.0)" stroke-dasharray="13.2" stroke-dashoffset="13.2"><animate attributeName="stroke-dashoffset" from="13.2" to="0" dur="0.39599999999999996s" begin="5.815100866335348s" fill="freeze" /></path><path d="M 29.4 -19.4 C 28.9 -20.5 28.1 -21.8 27.6 -22.6 " transform="translate(0.0 38.0)" stroke-dasharray="3.6739949905714333" stroke-dashoffset="3.6739949905714333"><animate attributeName="stroke-dashoffset" from="3.6739949905714333" to="0" dur="0.11021984971714299s" begin="6.2111008663353475s" fill="freeze" /></path><path d="M 33.5 -15.2 C 34.8 -17.1 36.1 -19.9 37.0 -22.6 " transform="translate(0.0 38.0)" stroke-dasharray="8.20944078150319" stroke-dashoffset="8.20944078150319"><animate attributeName="stroke-dashoffset" from="8.20944078150319" to="0" dur="0.24628322344509568s" begin="6.32132071605249s" fill="freeze" /></path><path d="M 32.3 -27.1 L 32.3 -40.4 " transform="translate(0.0 38.0)" stroke-dasharray="13.299999999999997" stroke-dashoffset="13.299999999999997"><animate attributeName="stroke-dashoffset" from="13.299999999999997" to="0" dur="0.3989999999999999s" begin="6.567603939497586s" fill="freeze" /></path><path d="M 46.6 -34.5 L 19.3 -34.5" transform="translate(0.0 38.0)" stroke-dasharray="27.3" stroke-dashoffset="27.3"><animate attributeName="stroke-dashoffset" from="27.3" to="0" dur="0.819s" begin="6.966603939497586s" fill="freeze" /></path></g></svg>