<?xml version='1.0' encoding='utf-8'?>
<svg viewBox="0.0 -6.0 50.0 50.0" version="1.1" xmlns="http://www.w3.org/2000/svg"><rect x="-1000" y="-1000" width="2000" height="2000" stroke="white" fill="white" /><g style="fill:none;stroke:#000000;stroke-width:1"><path d="M 16.9 1.9 C 26.1 -1.0 35.4 -7.0 39.9 -14.4 C 41.3 -16.6 40.4 -18.2 37.5 -18.2 L 19.4 -18.2 " transform="translate(0.0 38.0)" stroke-dasharray="52.89169511856945" stroke-dashoffset="52.89169511856945"><animate attributeName="stroke-dashoffset" from="52.89169511856945" to="0" dur="1.5867508535570836s" begin="0s; 15s; 30s; 45s" fill="freeze" id="anim0" /></path><path d="M 5.9 0.3 C 8.2 -3.1 10.8 -8.4 12.2 -12.8 " transform="translate(0.0 38.0)" stroke-dasharray="14.577943560051143" stroke-dashoffset="14.577943560051143"><animate attributeName="stroke-dashoffset" from="14.577943560051143" to="0" dur="0.43733830680153424s" begin="anim0.end" fill="freeze" id="anim1" /></path><path d="M 9.1 -23.1 C 7.8 -24.6 5.8 -26.1 4.5 -27.0 " transform="translate(0.0 38.0)" stroke-dasharray="6.044995348618125" stroke-dashoffset="6.044995348618125"><animate attributeName="stroke-dashoffset" from="6.044995348618125" to="0" dur="0.18134986045854373s" begin="anim1.end" fill="freeze" id="anim2" /></path><path d="M 44.9 0.6 C 35.2 -2.5 27.4 -9.2 23.3 -17.6 " transform="translate(0.0 38.0)" stroke-dasharray="29.020436339074887" stroke-dashoffset="29.020436339074887"><animate attributeName="stroke-dashoffset" from="29.020436339074887" to="0" dur="0.8706130901722466s" begin="anim2.end" fill="freeze" id="anim3" /></path><path d="M 12.9 -34.7 C 11.7 -36.1 9.8 -37.9 8.6 -38.8 " transform="translate(0.0 38.0)" stroke-dasharray="5.950275392021779" stroke-dashoffset="5.950275392021779"><animate attributeName="stroke-dashoffset" from="5.950275392021779" to="0" dur="0.17850826176065338s" begin="anim3.end" fill="freeze" id="anim4" /></path><path d="M 19.2 -24.4 C 23.1 -28.2 26.6 -34.1 28.3 -39.3 " transform="translate(0.0 38.0)" stroke-dasharray="17.609561432293077" stroke-dashoffset="17.609561432293077"><animate attributeName="stroke-dashoffset" from="17.609561432293077" to="0" dur="0.5282868429687922s" begin="anim4.end" fill="freeze" id="anim5" /></path><path d="M 31.9 -25.2 C 33.0 -25.1 34.0 -24.9 35.2 -24.9 C 37.0 -24.9 38.2 -25.6 39.0 -27.6 C 39.6 -29.1 40.0 -30.7 40.4 -32.4 C 40.6 -34.1 39.7 -35.2 37.2 -35.2 L 26.5 -35.2" transform="translate(0.0 38.0)" stroke-dasharray="29.032906010748732" stroke-dashoffset="29.032906010748732"><animate attributeName="stroke-dashoffset" from="29.032906010748732" to="0" dur="0.8709871803224619s" begin="anim5.end" fill="freeze" id="anim_end" /></path></g></svg>