<?xml version='1.0' encoding='utf-8'?>
<svg viewBox="0.0 -6.0 50.0 50.0" version="1.1" xmlns="http://www.w3.org/2000/svg"><rect x="-1000" y="-1000" width="2000" height="2000" stroke="white" fill="white" /><g style="fill:none;stroke:#000000;stroke-width:1"><path d="M 27.1 1.6 C 31.4 -1.6 35.6 -6.9 38.0 -11.9 C 40.6 -17.8 42.1 -26.3 42.4 -37.0 " transform="translate(0.0 38.0)" stroke-dasharray="43.13130502778655" stroke-dashoffset="43.13130502778655"><animate attributeName="stroke-dashoffset" from="43.13130502778655" to="0" dur="1.2939391508335965s" begin="0s" fill="freeze" /></path><path d="M 2.5 -10.4 C 5.0 -14.6 7.0 -20.6 8.2 -26.2 " transform="translate(0.0 38.0)" stroke-dasharray="16.863575284085034" stroke-dashoffset="16.863575284085034"><animate attributeName="stroke-dashoffset" from="16.863575284085034" to="0" dur="0.505907258522551s" begin="1.2939391508335965s" fill="freeze" /></path><path d="M 14.9 -3.6 C 19.2 -5.2 23.4 -7.2 27.6 -9.9 " transform="translate(0.0 38.0)" stroke-dasharray="14.204709611225676" stroke-dashoffset="14.204709611225676"><animate attributeName="stroke-dashoffset" from="14.204709611225676" to="0" dur="0.42614128833677023s" begin="1.7998464093561475s" fill="freeze" /></path><path d="M 9.2 2.7 L 9.2 -40.5 " transform="translate(0.0 38.0)" stroke-dasharray="43.2" stroke-dashoffset="43.2"><animate attributeName="stroke-dashoffset" from="43.2" to="0" dur="1.296s" begin="2.2259876976929176s" fill="freeze" /></path><path d="M 14.2 -18.0 C 12.9 -19.7 11.2 -21.6 9.2 -22.9 " transform="translate(0.0 38.0)" stroke-dasharray="7.034063481815332" stroke-dashoffset="7.034063481815332"><animate attributeName="stroke-dashoffset" from="7.034063481815332" to="0" dur="0.21102190445445995s" begin="3.521987697692918s" fill="freeze" /></path><path d="M 13.9 -29.4 L 2.9 -29.4 " transform="translate(0.0 38.0)" stroke-dasharray="11.0" stroke-dashoffset="11.0"><animate attributeName="stroke-dashoffset" from="11.0" to="0" dur="0.32999999999999996s" begin="3.7330096021473778s" fill="freeze" /></path><path d="M 29.7 -7.8 C 28.4 -10.3 26.6 -13.2 25.1 -15.1 " transform="translate(0.0 38.0)" stroke-dasharray="8.639324513443094" stroke-dashoffset="8.639324513443094"><animate attributeName="stroke-dashoffset" from="8.639324513443094" to="0" dur="0.2591797354032928s" begin="4.063009602147377s" fill="freeze" /></path><path d="M 18.4 -4.5 L 18.4 -35.8 C 18.4 -37.6 19.1 -38.5 21.5 -38.5 L 24.7 -38.5 C 27.1 -38.5 27.8 -37.6 27.8 -35.8 L 27.8 -24.2 C 27.8 -22.5 27.0 -21.4 24.6 -21.4 L 18.8 -21.4 " transform="translate(0.0 38.0)" stroke-dasharray="66.37247959549741" stroke-dashoffset="66.37247959549741"><animate attributeName="stroke-dashoffset" from="66.37247959549741" to="0" dur="1.9911743878649222s" begin="4.32218933755067s" fill="freeze" /></path><path d="M 47.5 -3.0 C 47.2 0.8 46.0 1.8 43.6 1.8 C 41.2 1.8 40.7 1.1 40.7 -0.8 L 40.7 -14.1 " transform="translate(0.0 38.0)" stroke-dasharray="24.986622639523326" stroke-dashoffset="24.986622639523326"><animate attributeName="stroke-dashoffset" from="24.986622639523326" to="0" dur="0.7495986791856998s" begin="6.313363725415592s" fill="freeze" /></path><path d="M 27.5 -30.3 L 18.8 -30.3 " transform="translate(0.0 38.0)" stroke-dasharray="8.7" stroke-dashoffset="8.7"><animate attributeName="stroke-dashoffset" from="8.7" to="0" dur="0.26099999999999995s" begin="7.062962404601292s" fill="freeze" /></path><path d="M 46.9 -22.3 L 31.8 -22.3 " transform="translate(0.0 38.0)" stroke-dasharray="15.099999999999998" stroke-dashoffset="15.099999999999998"><animate attributeName="stroke-dashoffset" from="15.099999999999998" to="0" dur="0.4529999999999999s" begin="7.323962404601292s" fill="freeze" /></path><path d="M 35.4 -23.1 L 35.4 -37.2 " transform="translate(0.0 38.0)" stroke-dasharray="14.100000000000001" stroke-dashoffset="14.100000000000001"><animate attributeName="stroke-dashoffset" from="14.100000000000001" to="0" dur="0.42300000000000004s" begin="7.776962404601292s" fill="freeze" /></path><path d="M 45.9 -38.1 L 32.4 -38.1" transform="translate(0.0 38.0)" stroke-dasharray="13.5" stroke-dashoffset="13.5"><animate attributeName="stroke-dashoffset" from="13.5" to="0" dur="0.40499999999999997s" begin="8.199962404601292s" fill="freeze" /></path></g></svg>