<?xml version='1.0' encoding='utf-8'?>
<svg viewBox="0.0 -6.0 50.0 50.0" version="1.1" xmlns="http://www.w3.org/2000/svg"><rect x="-1000" y="-1000" width="2000" height="2000" stroke="white" fill="white" /><g style="fill:none;stroke:#000000;stroke-width:1"><path d="M 25.6 1.6 L 38.6 1.6 C 41.5 1.6 42.6 0.7 42.6 -1.6 L 42.6 -11.7 C 42.6 -14.0 41.5 -14.9 38.6 -14.9 L 25.6 -14.9 C 22.6 -14.9 21.5 -14.0 21.5 -11.7 L 21.5 -1.6 C 21.5 0.7 22.6 1.6 25.6 1.6 Z " transform="translate(0.0 38.0)" stroke-dasharray="70.19689249610137" stroke-dashoffset="70.19689249610137"><animate attributeName="stroke-dashoffset" from="70.19689249610137" to="0" dur="2.105906774883041s" begin="0s" fill="freeze" /></path><path d="M 2.6 -10.1 C 5.3 -14.4 7.5 -20.4 8.7 -26.2 " transform="translate(0.0 38.0)" stroke-dasharray="17.30043878029177" stroke-dashoffset="17.30043878029177"><animate attributeName="stroke-dashoffset" from="17.30043878029177" to="0" dur="0.5190131634087531s" begin="2.105906774883041s" fill="freeze" /></path><path d="M 9.8 2.7 L 9.8 -40.4 " transform="translate(0.0 38.0)" stroke-dasharray="43.1" stroke-dashoffset="43.1"><animate attributeName="stroke-dashoffset" from="43.1" to="0" dur="1.293s" begin="2.624919938291794s" fill="freeze" /></path><path d="M 15.4 -16.9 C 14.2 -18.7 12.5 -20.6 10.6 -22.0 " transform="translate(0.0 38.0)" stroke-dasharray="7.037024093354078" stroke-dashoffset="7.037024093354078"><animate attributeName="stroke-dashoffset" from="7.037024093354078" to="0" dur="0.21111072280062232s" begin="3.917919938291794s" fill="freeze" /></path><path d="M 14.8 -29.2 L 3.1 -29.2 " transform="translate(0.0 38.0)" stroke-dasharray="11.700000000000001" stroke-dashoffset="11.700000000000001"><animate attributeName="stroke-dashoffset" from="11.700000000000001" to="0" dur="0.35100000000000003s" begin="4.129030661092417s" fill="freeze" /></path><path d="M 31.8 0.6 L 31.8 -14.4 " transform="translate(0.0 38.0)" stroke-dasharray="15.0" stroke-dashoffset="15.0"><animate attributeName="stroke-dashoffset" from="15.0" to="0" dur="0.44999999999999996s" begin="4.4800306610924165s" fill="freeze" /></path><path d="M 42.0 -6.8 L 22.1 -6.8 " transform="translate(0.0 38.0)" stroke-dasharray="19.9" stroke-dashoffset="19.9"><animate attributeName="stroke-dashoffset" from="19.9" to="0" dur="0.597s" begin="4.930030661092417s" fill="freeze" /></path><path d="M 17.8 -21.6 C 21.2 -22.8 25.1 -24.4 28.9 -26.5 " transform="translate(0.0 38.0)" stroke-dasharray="12.147192605429492" stroke-dashoffset="12.147192605429492"><animate attributeName="stroke-dashoffset" from="12.147192605429492" to="0" dur="0.36441577816288473s" begin="5.527030661092416s" fill="freeze" /></path><path d="M 20.1 -22.9 L 20.1 -36.4 " transform="translate(0.0 38.0)" stroke-dasharray="13.5" stroke-dashoffset="13.5"><animate attributeName="stroke-dashoffset" from="13.5" to="0" dur="0.40499999999999997s" begin="5.891446439255301s" fill="freeze" /></path><path d="M 30.1 -24.9 C 29.2 -26.8 27.9 -28.9 26.9 -30.4 " transform="translate(0.0 38.0)" stroke-dasharray="6.368325804933274" stroke-dashoffset="6.368325804933274"><animate attributeName="stroke-dashoffset" from="6.368325804933274" to="0" dur="0.19104977414799823s" begin="6.296446439255301s" fill="freeze" /></path><path d="M 31.4 -20.2 C 35.5 -23.9 37.3 -28.6 37.5 -36.2 " transform="translate(0.0 38.0)" stroke-dasharray="17.661832326421607" stroke-dashoffset="17.661832326421607"><animate attributeName="stroke-dashoffset" from="17.661832326421607" to="0" dur="0.5298549697926482s" begin="6.4874962134033s" fill="freeze" /></path><path d="M 20.9 -35.5 C 23.5 -36.5 26.5 -38.0 28.7 -39.4 " transform="translate(0.0 38.0)" stroke-dasharray="8.733444837287694" stroke-dashoffset="8.733444837287694"><animate attributeName="stroke-dashoffset" from="8.733444837287694" to="0" dur="0.2620033451186308s" begin="7.017351183195948s" fill="freeze" /></path><path d="M 39.0 -21.2 C 39.9 -21.1 40.5 -21.0 41.1 -21.0 C 42.9 -21.0 44.0 -21.8 44.4 -24.2 C 45.0 -27.3 45.2 -30.0 45.3 -33.8 C 45.4 -35.4 44.5 -36.3 42.4 -36.3 L 32.6 -36.3" transform="translate(0.0 38.0)" stroke-dasharray="31.139997677166736" stroke-dashoffset="31.139997677166736"><animate attributeName="stroke-dashoffset" from="31.139997677166736" to="0" dur="0.934199930315002s" begin="7.279354528314578s" fill="freeze" /></path></g></svg>