<?xml version='1.0' encoding='utf-8'?>
<svg viewBox="0.0 -6.0 50.0 50.0" version="1.1" xmlns="http://www.w3.org/2000/svg"><rect x="-1000" y="-1000" width="2000" height="2000" stroke="white" fill="white" /><g style="fill:none;stroke:#000000;stroke-width:1"><path d="M 16.3 1.4 C 23.1 -2.4 28.2 -9.4 29.8 -17.9 C 30.1 -19.9 29.5 -20.9 27.3 -20.9 L 22.8 -20.9 " transform="translate(0.0 38.0)" stroke-dasharray="33.54451349511333" stroke-dashoffset="33.54451349511333"><animate attributeName="stroke-dashoffset" from="33.54451349511333" to="0" dur="1.0063354048534s" begin="0s" fill="freeze" /></path><path d="M 2.6 -10.1 C 5.3 -14.4 7.5 -20.4 8.7 -26.2 " transform="translate(0.0 38.0)" stroke-dasharray="17.30043878029177" stroke-dashoffset="17.30043878029177"><animate attributeName="stroke-dashoffset" from="17.30043878029177" to="0" dur="0.5190131634087531s" begin="1.0063354048534s" fill="freeze" /></path><path d="M 9.8 2.7 L 9.8 -40.4 " transform="translate(0.0 38.0)" stroke-dasharray="43.1" stroke-dashoffset="43.1"><animate attributeName="stroke-dashoffset" from="43.1" to="0" dur="1.293s" begin="1.525348568262153s" fill="freeze" /></path><path d="M 14.8 -18.2 C 13.7 -20.1 12.1 -21.7 10.2 -23.1 " transform="translate(0.0 38.0)" stroke-dasharray="6.768767474759063" stroke-dashoffset="6.768767474759063"><animate attributeName="stroke-dashoffset" from="6.768767474759063" to="0" dur="0.20306302424277187s" begin="2.818348568262153s" fill="freeze" /></path><path d="M 26.4 -8.1 C 25.6 -9.1 23.9 -10.9 22.8 -11.9 " transform="translate(0.0 38.0)" stroke-dasharray="5.238243540099941" stroke-dashoffset="5.238243540099941"><animate attributeName="stroke-dashoffset" from="5.238243540099941" to="0" dur="0.15714730620299824s" begin="3.021411592504925s" fill="freeze" /></path><path d="M 14.8 -29.2 L 3.1 -29.2 " transform="translate(0.0 38.0)" stroke-dasharray="11.700000000000001" stroke-dashoffset="11.700000000000001"><animate attributeName="stroke-dashoffset" from="11.700000000000001" to="0" dur="0.35100000000000003s" begin="3.1785588987079234s" fill="freeze" /></path><path d="M 17.8 -12.6 C 20.6 -15.8 23.6 -21.4 24.9 -26.1 " transform="translate(0.0 38.0)" stroke-dasharray="15.35909781145257" stroke-dashoffset="15.35909781145257"><animate attributeName="stroke-dashoffset" from="15.35909781145257" to="0" dur="0.4607729343435771s" begin="3.5295588987079234s" fill="freeze" /></path><path d="M 39.4 -10.2 C 40.0 -10.1 40.5 -10.1 41.1 -10.1 C 42.5 -10.1 43.4 -10.8 43.4 -12.4 L 43.4 -20.9 C 43.4 -23.1 42.6 -23.8 40.5 -23.8 L 37.8 -23.8 C 35.7 -23.8 34.9 -23.1 34.9 -20.9 L 34.9 -2.0 C 34.9 0.2 35.9 0.8 39.5 0.8 C 44.2 0.8 45.8 -0.2 46.2 -3.8 " transform="translate(0.0 38.0)" stroke-dasharray="60.73206940427553" stroke-dashoffset="60.73206940427553"><animate attributeName="stroke-dashoffset" from="60.73206940427553" to="0" dur="1.8219620821282658s" begin="3.9903318330515005s" fill="freeze" /></path><path d="M 44.8 -28.1 L 44.8 -30.8 C 44.8 -32.6 43.8 -33.8 41.0 -33.8 L 23.8 -33.8 C 20.9 -33.8 19.9 -32.6 19.9 -30.9 L 19.9 -27.6 " transform="translate(0.0 38.0)" stroke-dasharray="34.283021868304914" stroke-dashoffset="34.283021868304914"><animate attributeName="stroke-dashoffset" from="34.283021868304914" to="0" dur="1.0284906560491474s" begin="5.812293915179766s" fill="freeze" /></path><path d="M 32.0 -34.6 L 32.0 -40.2" transform="translate(0.0 38.0)" stroke-dasharray="5.600000000000001" stroke-dashoffset="5.600000000000001"><animate attributeName="stroke-dashoffset" from="5.600000000000001" to="0" dur="0.16800000000000004s" begin="6.840784571228913s" fill="freeze" /></path></g></svg>