<?xml version='1.0' encoding='utf-8'?>
<svg viewBox="0.0 -6.0 50.0 50.0" version="1.1" xmlns="http://www.w3.org/2000/svg"><rect x="-1000" y="-1000" width="2000" height="2000" stroke="white" fill="white" /><g style="fill:none;stroke:#000000;stroke-width:1"><path d="M 13.2 -17.1 L 37.4 -17.1 C 40.1 -17.1 41.1 -18.1 41.1 -20.1 L 41.1 -26.9 C 41.1 -28.9 40.1 -29.9 37.4 -29.9 L 13.2 -29.9 C 10.4 -29.9 9.3 -28.9 9.3 -26.9 L 9.3 -20.1 C 9.3 -18.1 10.4 -17.1 13.2 -17.1 Z " transform="translate(0.0 38.0)" stroke-dasharray="84.32382735277741" stroke-dashoffset="84.32382735277741"><animate attributeName="stroke-dashoffset" from="84.32382735277741" to="0" dur="2.5297148205833224s" begin="0s; 15s; 30s; 45s" fill="freeze" id="anim0" /></path><path d="M 16.7 1.8 L 33.5 1.8 C 36.4 1.8 37.4 0.9 37.4 -0.9 L 37.4 -9.0 C 37.4 -10.8 36.4 -11.7 33.5 -11.7 L 16.7 -11.7 C 13.8 -11.7 12.9 -10.8 12.9 -9.0 L 12.9 -0.9 C 12.9 0.9 13.8 1.8 16.7 1.8 Z " transform="translate(0.0 38.0)" stroke-dasharray="71.46581634905222" stroke-dashoffset="71.46581634905222"><animate attributeName="stroke-dashoffset" from="71.46581634905222" to="0" dur="2.1439744904715665s" begin="anim0.end" fill="freeze" id="anim1" /></path><path d="M 36.9 -5.2 L 13.4 -5.2 " transform="translate(0.0 38.0)" stroke-dasharray="23.5" stroke-dashoffset="23.5"><animate attributeName="stroke-dashoffset" from="23.5" to="0" dur="0.705s" begin="anim1.end" fill="freeze" id="anim2" /></path><path d="M 40.5 -23.6 L 10.3 -23.6 " transform="translate(0.0 38.0)" stroke-dasharray="30.2" stroke-dashoffset="30.2"><animate attributeName="stroke-dashoffset" from="30.2" to="0" dur="0.9059999999999999s" begin="anim2.end" fill="freeze" id="anim3" /></path><path d="M 19.8 -17.9 L 19.8 -40.5 " transform="translate(0.0 38.0)" stroke-dasharray="22.6" stroke-dashoffset="22.6"><animate attributeName="stroke-dashoffset" from="22.6" to="0" dur="0.678s" begin="anim3.end" fill="freeze" id="anim4" /></path><path d="M 30.2 -17.9 L 30.2 -40.5 " transform="translate(0.0 38.0)" stroke-dasharray="22.6" stroke-dashoffset="22.6"><animate attributeName="stroke-dashoffset" from="22.6" to="0" dur="0.678s" begin="anim4.end" fill="freeze" id="anim5" /></path><path d="M 46.4 -36.0 L 3.9 -36.0" transform="translate(0.0 38.0)" stroke-dasharray="42.5" stroke-dashoffset="42.5"><animate attributeName="stroke-dashoffset" from="42.5" to="0" dur="1.275s" begin="anim5.end" fill="freeze" id="anim_end" /></path></g></svg>