<?xml version='1.0' encoding='utf-8'?>
<svg viewBox="0.0 -6.0 50.0 50.0" version="1.1" xmlns="http://www.w3.org/2000/svg"><rect x="-1000" y="-1000" width="2000" height="2000" stroke="white" fill="white" /><g style="fill:none;stroke:#000000;stroke-width:1"><path d="M 17.5 -27.1 L 17.5 -3.1 C 17.5 0.2 18.6 1.2 22.5 1.2 L 39.0 1.2 C 42.9 1.2 44.0 0.2 44.0 -3.1 L 44.0 -27.6 " transform="translate(0.0 38.0)" stroke-dasharray="80.60503540656335" stroke-dashoffset="80.60503540656335"><animate attributeName="stroke-dashoffset" from="80.60503540656335" to="0" dur="2.4181510621969005s" begin="0s; 15s; 30s; 45s" fill="freeze" id="anim0" /></path><path d="M 5.2 0.5 C 7.3 -2.9 9.6 -8.2 10.8 -12.6 " transform="translate(0.0 38.0)" stroke-dasharray="14.287769544241664" stroke-dashoffset="14.287769544241664"><animate attributeName="stroke-dashoffset" from="14.287769544241664" to="0" dur="0.4286330863272499s" begin="anim0.end" fill="freeze" id="anim1" /></path><path d="M 8.1 -23.2 C 6.9 -24.6 5.1 -26.0 4.0 -26.9 " transform="translate(0.0 38.0)" stroke-dasharray="5.530145808110436" stroke-dashoffset="5.530145808110436"><animate attributeName="stroke-dashoffset" from="5.530145808110436" to="0" dur="0.16590437424331309s" begin="anim1.end" fill="freeze" id="anim2" /></path><path d="M 21.9 -10.9 C 23.8 -11.8 25.4 -12.6 27.1 -13.8 " transform="translate(0.0 38.0)" stroke-dasharray="5.962212395200715" stroke-dashoffset="5.962212395200715"><animate attributeName="stroke-dashoffset" from="5.962212395200715" to="0" dur="0.17886637185602144s" begin="anim2.end" fill="freeze" id="anim3" /></path><path d="M 24.8 -5.2 C 25.6 -5.0 26.2 -5.0 26.9 -5.0 C 29.2 -5.0 30.4 -6.0 30.8 -8.8 C 31.4 -14.0 31.8 -20.7 31.8 -27.2 C 31.8 -28.8 31.1 -29.4 29.2 -29.4 L 25.8 -29.4 " transform="translate(0.0 38.0)" stroke-dasharray="34.051067522291106" stroke-dashoffset="34.051067522291106"><animate attributeName="stroke-dashoffset" from="34.051067522291106" to="0" dur="1.0215320256687332s" begin="anim3.end" fill="freeze" id="anim4" /></path><path d="M 25.9 -19.9 C 25.1 -20.9 24.1 -21.9 23.0 -22.9 " transform="translate(0.0 38.0)" stroke-dasharray="4.176794172619621" stroke-dashoffset="4.176794172619621"><animate attributeName="stroke-dashoffset" from="4.176794172619621" to="0" dur="0.12530382517858862s" begin="anim4.end" fill="freeze" id="anim5" /></path><path d="M 11.2 -35.2 C 10.2 -36.5 8.5 -38.0 7.3 -38.9 " transform="translate(0.0 38.0)" stroke-dasharray="5.389574209665458" stroke-dashoffset="5.389574209665458"><animate attributeName="stroke-dashoffset" from="5.389574209665458" to="0" dur="0.16168722628996374s" begin="anim5.end" fill="freeze" id="anim6" /></path><path d="M 39.8 -10.2 C 38.7 -11.7 37.5 -12.8 36.0 -14.1 " transform="translate(0.0 38.0)" stroke-dasharray="5.457831661991389" stroke-dashoffset="5.457831661991389"><animate attributeName="stroke-dashoffset" from="5.457831661991389" to="0" dur="0.16373494985974169s" begin="anim6.end" fill="freeze" id="anim7" /></path><path d="M 24.9 -27.8 C 26.3 -30.8 27.6 -34.1 28.6 -37.5 " transform="translate(0.0 38.0)" stroke-dasharray="10.391402500982917" stroke-dashoffset="10.391402500982917"><animate attributeName="stroke-dashoffset" from="10.391402500982917" to="0" dur="0.3117420750294875s" begin="anim7.end" fill="freeze" id="anim8" /></path><path d="M 36.3 -20.4 C 37.3 -21.4 38.3 -22.7 39.0 -23.8 " transform="translate(0.0 38.0)" stroke-dasharray="4.349503893685307" stroke-dashoffset="4.349503893685307"><animate attributeName="stroke-dashoffset" from="4.349503893685307" to="0" dur="0.13048511681055922s" begin="anim8.end" fill="freeze" id="anim9" /></path><path d="M 46.0 -37.8 L 16.2 -37.8" transform="translate(0.0 38.0)" stroke-dasharray="29.8" stroke-dashoffset="29.8"><animate attributeName="stroke-dashoffset" from="29.8" to="0" dur="0.894s" begin="anim9.end" fill="freeze" id="anim_end" /></path></g></svg>