<?xml version='1.0' encoding='utf-8'?>
<svg viewBox="0.0 -6.0 50.0 50.0" version="1.1" xmlns="http://www.w3.org/2000/svg"><rect x="-1000" y="-1000" width="2000" height="2000" stroke="white" fill="white" /><g style="fill:none;stroke:#000000;stroke-width:1"><path d="M 26.4 1.2 L 35.8 1.2 C 38.5 1.2 39.8 0.2 39.8 -2.2 L 39.8 -9.2 C 39.8 -11.6 38.5 -12.6 35.8 -12.6 L 26.4 -12.6 C 23.6 -12.6 22.4 -11.6 22.4 -9.2 L 22.4 -2.2 C 22.4 0.2 23.6 1.2 26.4 1.2 Z " transform="translate(0.0 38.0)" stroke-dasharray="57.0681049859627" stroke-dashoffset="57.0681049859627"><animate attributeName="stroke-dashoffset" from="57.0681049859627" to="0" dur="1.7120431495788808s" begin="0s; 15s; 30s; 45s" fill="freeze" id="anim0" /></path><path d="M 5.9 0.3 C 8.2 -3.1 10.6 -8.1 11.9 -12.5 " transform="translate(0.0 38.0)" stroke-dasharray="14.185057913603412" stroke-dashoffset="14.185057913603412"><animate attributeName="stroke-dashoffset" from="14.185057913603412" to="0" dur="0.42555173740810237s" begin="anim0.end" fill="freeze" id="anim1" /></path><path d="M 8.9 -23.1 C 7.7 -24.6 5.7 -26.1 4.5 -26.9 " transform="translate(0.0 38.0)" stroke-dasharray="5.8336786267192275" stroke-dashoffset="5.8336786267192275"><animate attributeName="stroke-dashoffset" from="5.8336786267192275" to="0" dur="0.1750103588015768s" begin="anim1.end" fill="freeze" id="anim2" /></path><path d="M 17.1 -14.8 C 22.3 -18.4 27.2 -23.9 30.6 -29.8 " transform="translate(0.0 38.0)" stroke-dasharray="20.336314892801255" stroke-dashoffset="20.336314892801255"><animate attributeName="stroke-dashoffset" from="20.336314892801255" to="0" dur="0.6100894467840376s" begin="anim2.end" fill="freeze" id="anim3" /></path><path d="M 12.4 -34.9 C 11.2 -36.3 9.5 -37.9 8.2 -38.8 " transform="translate(0.0 38.0)" stroke-dasharray="5.744494932853801" stroke-dashoffset="5.744494932853801"><animate attributeName="stroke-dashoffset" from="5.744494932853801" to="0" dur="0.17233484798561402s" begin="anim3.end" fill="freeze" id="anim4" /></path><path d="M 18.1 -28.8 C 20.9 -31.4 23.4 -34.5 25.2 -38.0 " transform="translate(0.0 38.0)" stroke-dasharray="11.679343455290727" stroke-dashoffset="11.679343455290727"><animate attributeName="stroke-dashoffset" from="11.679343455290727" to="0" dur="0.3503803036587218s" begin="anim4.end" fill="freeze" id="anim5" /></path><path d="M 45.8 -15.3 C 40.1 -18.8 34.5 -23.8 30.2 -29.8 " transform="translate(0.0 38.0)" stroke-dasharray="21.435541094368585" stroke-dashoffset="21.435541094368585"><animate attributeName="stroke-dashoffset" from="21.435541094368585" to="0" dur="0.6430662328310576s" begin="anim5.end" fill="freeze" id="anim6" /></path><path d="M 43.9 -30.4 C 41.0 -32.7 38.2 -35.6 36.2 -38.3" transform="translate(0.0 38.0)" stroke-dasharray="11.061305211030165" stroke-dashoffset="11.061305211030165"><animate attributeName="stroke-dashoffset" from="11.061305211030165" to="0" dur="0.33183915633090494s" begin="anim6.end" fill="freeze" id="anim_end" /></path></g></svg>