<?xml version='1.0' encoding='utf-8'?>
<svg viewBox="0.0 -6.0 50.0 50.0" version="1.1" xmlns="http://www.w3.org/2000/svg"><rect x="-1000" y="-1000" width="2000" height="2000" stroke="white" fill="white" /><g style="fill:none;stroke:#000000;stroke-width:1"><path d="M 3.6 -15.8 C 8.6 -19.0 13.4 -24.3 16.3 -29.7 " transform="translate(0.0 38.0)" stroke-dasharray="19.015236928597744" stroke-dashoffset="19.015236928597744"><animate attributeName="stroke-dashoffset" from="19.015236928597744" to="0" dur="0.5704571078579324s" begin="0s; anim_end.end" fill="freeze" id="anim0" /></path><path d="M 19.1 2.2 C 20.0 2.4 20.8 2.5 21.9 2.5 C 23.9 2.5 24.9 1.6 24.9 -0.5 L 24.9 -22.0 " transform="translate(0.0 38.0)" stroke-dasharray="29.21619898419877" stroke-dashoffset="29.21619898419877"><animate attributeName="stroke-dashoffset" from="29.21619898419877" to="0" dur="0.876485969525963s" begin="anim0.end" fill="freeze" id="anim1" /></path><path d="M 44.5 -7.8 L 5.4 -7.8 " transform="translate(0.0 38.0)" stroke-dasharray="39.1" stroke-dashoffset="39.1"><animate attributeName="stroke-dashoffset" from="39.1" to="0" dur="1.173s" begin="anim1.end" fill="freeze" id="anim2" /></path><path d="M 38.2 -15.1 L 11.6 -15.1 " transform="translate(0.0 38.0)" stroke-dasharray="26.6" stroke-dashoffset="26.6"><animate attributeName="stroke-dashoffset" from="26.6" to="0" dur="0.798s" begin="anim2.end" fill="freeze" id="anim3" /></path><path d="M 17.1 -21.7 C 21.9 -21.9 26.9 -22.6 31.4 -23.8 " transform="translate(0.0 38.0)" stroke-dasharray="14.481312857626785" stroke-dashoffset="14.481312857626785"><animate attributeName="stroke-dashoffset" from="14.481312857626785" to="0" dur="0.43443938572880353s" begin="anim3.end" fill="freeze" id="anim4" /></path><path d="M 15.3 -34.9 C 14.6 -36.4 13.5 -38.1 12.6 -39.4 " transform="translate(0.0 38.0)" stroke-dasharray="5.253594590220674" stroke-dashoffset="5.253594590220674"><animate attributeName="stroke-dashoffset" from="5.253594590220674" to="0" dur="0.1576078377066202s" begin="anim4.end" fill="freeze" id="anim5" /></path><path d="M 45.8 -30.1 L 4.2 -30.1 " transform="translate(0.0 38.0)" stroke-dasharray="41.599999999999994" stroke-dashoffset="41.599999999999994"><animate attributeName="stroke-dashoffset" from="41.599999999999994" to="0" dur="1.2479999999999998s" begin="anim5.end" fill="freeze" id="anim6" /></path><path d="M 25.6 -35.5 C 25.1 -37.1 24.1 -39.1 23.3 -40.5 " transform="translate(0.0 38.0)" stroke-dasharray="5.512872037037325" stroke-dashoffset="5.512872037037325"><animate attributeName="stroke-dashoffset" from="5.512872037037325" to="0" dur="0.16538616111111976s" begin="anim6.end" fill="freeze" id="anim7" /></path><path d="M 46.4 -16.7 C 41.2 -19.8 36.4 -24.4 33.3 -29.7 " transform="translate(0.0 38.0)" stroke-dasharray="18.64495455444646" stroke-dashoffset="18.64495455444646"><animate attributeName="stroke-dashoffset" from="18.64495455444646" to="0" dur="0.5593486366333938s" begin="anim7.end" fill="freeze" id="anim8" /></path><path d="M 32.3 -30.8 C 34.1 -33.5 35.7 -36.2 37.1 -39.6" transform="translate(0.0 38.0)" stroke-dasharray="10.041536260591354" stroke-dashoffset="10.041536260591354"><animate attributeName="stroke-dashoffset" from="10.041536260591354" to="0" dur="0.3012460878177406s" begin="anim8.end" fill="freeze" id="anim_end" /></path></g></svg>