<?xml version='1.0' encoding='utf-8'?>
<svg viewBox="0.0 -6.0 50.0 50.0" version="1.1" xmlns="http://www.w3.org/2000/svg"><rect x="-1000" y="-1000" width="2000" height="2000" stroke="white" fill="white" /><g style="fill:none;stroke:#000000;stroke-width:1"><path d="M 45.0 -2.8 C 44.5 1.1 43.2 1.6 38.3 1.6 C 34.5 1.6 33.8 1.0 33.9 -1.0 L 34.2 -7.3 C 34.4 -9.0 33.8 -9.9 31.1 -9.9 L 17.1 -9.9 " transform="translate(0.0 38.0)" stroke-dasharray="40.49185490282828" stroke-dashoffset="40.49185490282828"><animate attributeName="stroke-dashoffset" from="40.49185490282828" to="0" dur="1.2147556470848484s" begin="0s" fill="freeze" /></path><path d="M 5.0 1.6 C 13.2 1.4 24.4 0.2 33.4 -1.2 " transform="translate(0.0 38.0)" stroke-dasharray="28.55485352712263" stroke-dashoffset="28.55485352712263"><animate attributeName="stroke-dashoffset" from="28.55485352712263" to="0" dur="0.8566456058136789s" begin="1.2147556470848484s" fill="freeze" /></path><path d="M 13.1 0.6 C 15.1 -4.3 16.8 -9.7 18.1 -15.1 " transform="translate(0.0 38.0)" stroke-dasharray="16.492308082125497" stroke-dashoffset="16.492308082125497"><animate attributeName="stroke-dashoffset" from="16.492308082125497" to="0" dur="0.4947692424637649s" begin="2.0714012528985273s" fill="freeze" /></path><path d="M 25.9 -3.9 C 25.1 -4.8 24.1 -5.7 23.1 -6.5 " transform="translate(0.0 38.0)" stroke-dasharray="3.825381050321436" stroke-dashoffset="3.825381050321436"><animate attributeName="stroke-dashoffset" from="3.825381050321436" to="0" dur="0.11476143150964307s" begin="2.566170495362292s" fill="freeze" /></path><path d="M 13.4 -20.4 L 18.0 -20.4 C 20.2 -20.4 20.9 -21.1 20.9 -22.5 L 20.9 -25.4 C 20.9 -26.9 20.2 -27.4 18.0 -27.4 L 13.4 -27.4 C 11.2 -27.4 10.6 -26.9 10.6 -25.4 L 10.6 -22.5 C 10.6 -21.1 11.2 -20.4 13.4 -20.4 Z " transform="translate(0.0 38.0)" stroke-dasharray="31.33810780715392" stroke-dashoffset="31.33810780715392"><animate attributeName="stroke-dashoffset" from="31.33810780715392" to="0" dur="0.9401432342146177s" begin="2.6809319268719354s" fill="freeze" /></path><path d="M 44.9 -15.5 L 5.2 -15.5 " transform="translate(0.0 38.0)" stroke-dasharray="39.699999999999996" stroke-dashoffset="39.699999999999996"><animate attributeName="stroke-dashoffset" from="39.699999999999996" to="0" dur="1.1909999999999998s" begin="3.6210751610865533s" fill="freeze" /></path><path d="M 3.9 -21.6 C 6.0 -25.1 7.2 -29.4 7.2 -35.3 L 7.2 -37.4 C 7.2 -38.9 8.0 -39.5 10.2 -39.5 L 16.9 -39.5 C 19.2 -39.5 19.9 -38.9 19.9 -37.4 L 19.9 -35.0 C 19.9 -33.5 19.2 -32.9 16.9 -32.9 L 7.5 -32.9 " transform="translate(0.0 38.0)" stroke-dasharray="47.61315058144684" stroke-dashoffset="47.61315058144684"><animate attributeName="stroke-dashoffset" from="47.61315058144684" to="0" dur="1.4283945174434052s" begin="4.812075161086553s" fill="freeze" /></path><path d="M 35.4 -19.6 L 35.4 -29.6 " transform="translate(0.0 38.0)" stroke-dasharray="10.0" stroke-dashoffset="10.0"><animate attributeName="stroke-dashoffset" from="10.0" to="0" dur="0.3s" begin="6.2404696785299585s" fill="freeze" /></path><path d="M 44.1 -24.1 L 27.4 -24.1 " transform="translate(0.0 38.0)" stroke-dasharray="16.700000000000003" stroke-dashoffset="16.700000000000003"><animate attributeName="stroke-dashoffset" from="16.700000000000003" to="0" dur="0.5010000000000001s" begin="6.540469678529958s" fill="freeze" /></path><path d="M 31.9 -32.2 C 31.4 -33.1 31.1 -33.7 30.6 -34.5 " transform="translate(0.0 38.0)" stroke-dasharray="2.6424019038460456" stroke-dashoffset="2.6424019038460456"><animate attributeName="stroke-dashoffset" from="2.6424019038460456" to="0" dur="0.07927205711538136s" begin="7.041469678529959s" fill="freeze" /></path><path d="M 46.6 -29.9 L 24.9 -29.9 " transform="translate(0.0 38.0)" stroke-dasharray="21.700000000000003" stroke-dashoffset="21.700000000000003"><animate attributeName="stroke-dashoffset" from="21.700000000000003" to="0" dur="0.651s" begin="7.12074173564534s" fill="freeze" /></path><path d="M 44.9 -37.0 L 26.4 -37.0 " transform="translate(0.0 38.0)" stroke-dasharray="18.5" stroke-dashoffset="18.5"><animate attributeName="stroke-dashoffset" from="18.5" to="0" dur="0.5549999999999999s" begin="7.77174173564534s" fill="freeze" /></path><path d="M 38.0 -30.4 C 39.0 -31.9 39.5 -32.9 40.2 -34.5 " transform="translate(0.0 38.0)" stroke-dasharray="4.660419997582021" stroke-dashoffset="4.660419997582021"><animate attributeName="stroke-dashoffset" from="4.660419997582021" to="0" dur="0.13981259992746062s" begin="8.32674173564534s" fill="freeze" /></path><path d="M 35.4 -36.9 L 35.4 -40.8" transform="translate(0.0 38.0)" stroke-dasharray="3.8999999999999986" stroke-dashoffset="3.8999999999999986"><animate attributeName="stroke-dashoffset" from="3.8999999999999986" to="0" dur="0.11699999999999995s" begin="8.4665543355728s" fill="freeze" /></path></g></svg>