<?xml version='1.0' encoding='utf-8'?>
<svg viewBox="0.0 -6.0 50.0 50.0" version="1.1" xmlns="http://www.w3.org/2000/svg"><rect x="-1000" y="-1000" width="2000" height="2000" stroke="white" fill="white" /><g style="fill:none;stroke:#000000;stroke-width:1"><path d="M 18.1 1.1 C 21.7 -4.7 23.6 -11.8 23.6 -24.0 L 23.6 -28.4 C 23.6 -30.9 24.6 -32.0 27.9 -32.0 L 45.5 -32.0 " transform="translate(0.0 38.0)" stroke-dasharray="54.591478591551834" stroke-dashoffset="54.591478591551834"><animate attributeName="stroke-dashoffset" from="54.591478591551834" to="0" dur="1.637744357746555s" begin="0s; 15s; 30s; 45s" fill="freeze" id="anim0" /></path><path d="M 3.6 -2.5 C 4.6 -5.0 5.4 -8.9 5.5 -11.8 " transform="translate(0.0 38.0)" stroke-dasharray="9.530618636602119" stroke-dashoffset="9.530618636602119"><animate attributeName="stroke-dashoffset" from="9.530618636602119" to="0" dur="0.2859185590980636s" begin="anim0.end" fill="freeze" id="anim1" /></path><path d="M 10.7 2.6 L 10.7 -18.7 " transform="translate(0.0 38.0)" stroke-dasharray="21.3" stroke-dashoffset="21.3"><animate attributeName="stroke-dashoffset" from="21.3" to="0" dur="0.639s" begin="anim1.end" fill="freeze" id="anim2" /></path><path d="M 17.2 -6.6 C 16.9 -8.8 16.1 -11.3 15.4 -12.8 " transform="translate(0.0 38.0)" stroke-dasharray="6.4764962287537085" stroke-dashoffset="6.4764962287537085"><animate attributeName="stroke-dashoffset" from="6.4764962287537085" to="0" dur="0.19429488686261126s" begin="anim2.end" fill="freeze" id="anim3" /></path><path d="M 3.1 -18.5 C 7.4 -18.6 12.3 -19.1 16.4 -19.8 " transform="translate(0.0 38.0)" stroke-dasharray="13.374283333014924" stroke-dashoffset="13.374283333014924"><animate attributeName="stroke-dashoffset" from="13.374283333014924" to="0" dur="0.4012284999904477s" begin="anim3.end" fill="freeze" id="anim4" /></path><path d="M 25.5 -0.1 C 31.2 -0.7 37.5 -1.7 43.5 -3.1 " transform="translate(0.0 38.0)" stroke-dasharray="18.25965652036154" stroke-dashoffset="18.25965652036154"><animate attributeName="stroke-dashoffset" from="18.25965652036154" to="0" dur="0.5477896956108461s" begin="anim4.end" fill="freeze" id="anim5" /></path><path d="M 18.1 -17.4 C 17.4 -19.4 16.2 -21.6 15.1 -23.2 " transform="translate(0.0 38.0)" stroke-dasharray="6.5471744591065" stroke-dashoffset="6.5471744591065"><animate attributeName="stroke-dashoffset" from="6.5471744591065" to="0" dur="0.196415233773195s" begin="anim5.end" fill="freeze" id="anim6" /></path><path d="M 10.2 -26.2 C 8.1 -29.2 6.0 -31.5 4.7 -32.7 " transform="translate(0.0 38.0)" stroke-dasharray="8.528903808767392" stroke-dashoffset="8.528903808767392"><animate attributeName="stroke-dashoffset" from="8.528903808767392" to="0" dur="0.2558671142630218s" begin="anim6.end" fill="freeze" id="anim7" /></path><path d="M 6.5 -19.1 C 9.6 -23.1 13.2 -28.8 15.3 -33.2 " transform="translate(0.0 38.0)" stroke-dasharray="16.647323208341923" stroke-dashoffset="16.647323208341923"><animate attributeName="stroke-dashoffset" from="16.647323208341923" to="0" dur="0.49941969625025767s" begin="anim7.end" fill="freeze" id="anim8" /></path><path d="M 7.0 -31.2 C 8.6 -33.9 10.0 -36.9 11.1 -39.9 " transform="translate(0.0 38.0)" stroke-dasharray="9.630893320662942" stroke-dashoffset="9.630893320662942"><animate attributeName="stroke-dashoffset" from="9.630893320662942" to="0" dur="0.28892679961988826s" begin="anim8.end" fill="freeze" id="anim9" /></path><path d="M 29.1 -0.9 C 31.6 -7.8 33.6 -15.7 35.2 -24.5 " transform="translate(0.0 38.0)" stroke-dasharray="24.40374468415245" stroke-dashoffset="24.40374468415245"><animate attributeName="stroke-dashoffset" from="24.40374468415245" to="0" dur="0.7321123405245735s" begin="anim9.end" fill="freeze" id="anim10" /></path><path d="M 45.4 0.4 C 43.8 -3.6 41.8 -7.2 39.6 -10.2 " transform="translate(0.0 38.0)" stroke-dasharray="12.114611670935824" stroke-dashoffset="12.114611670935824"><animate attributeName="stroke-dashoffset" from="12.114611670935824" to="0" dur="0.36343835012807474s" begin="anim10.end" fill="freeze" id="anim11" /></path><path d="M 34.8 -32.6 L 34.8 -39.6" transform="translate(0.0 38.0)" stroke-dasharray="7.0" stroke-dashoffset="7.0"><animate attributeName="stroke-dashoffset" from="7.0" to="0" dur="0.21s" begin="anim11.end" fill="freeze" id="anim_end" /></path></g></svg>