<?xml version='1.0' encoding='utf-8'?>
<svg viewBox="0.0 -6.0 50.0 50.0" version="1.1" xmlns="http://www.w3.org/2000/svg"><rect x="-1000" y="-1000" width="2000" height="2000" stroke="white" fill="white" /><g style="fill:none;stroke:#000000;stroke-width:1"><path d="M 5.5 0.9 C 14.3 -1.2 23.1 -5.3 29.3 -10.6 " transform="translate(0.0 38.0)" stroke-dasharray="26.664991865489768" stroke-dashoffset="26.664991865489768"><animate attributeName="stroke-dashoffset" from="26.664991865489768" to="0" dur="0.799949755964693s" begin="0s; anim_end.end" fill="freeze" id="anim0" /></path><path d="M 24.9 2.0 C 26.2 2.3 27.3 2.5 28.4 2.5 C 30.5 2.5 31.4 1.5 31.4 -0.7 L 31.4 -20.6 " transform="translate(0.0 38.0)" stroke-dasharray="28.51689174503324" stroke-dashoffset="28.51689174503324"><animate attributeName="stroke-dashoffset" from="28.51689174503324" to="0" dur="0.8555067523509973s" begin="anim0.end" fill="freeze" id="anim1" /></path><path d="M 45.8 -12.1 L 4.5 -12.1 " transform="translate(0.0 38.0)" stroke-dasharray="41.3" stroke-dashoffset="41.3"><animate attributeName="stroke-dashoffset" from="41.3" to="0" dur="1.2389999999999999s" begin="anim1.end" fill="freeze" id="anim2" /></path><path d="M 6.5 -23.5 C 11.9 -25.3 16.8 -28.8 19.1 -33.2 " transform="translate(0.0 38.0)" stroke-dasharray="16.27502766232452" stroke-dashoffset="16.27502766232452"><animate attributeName="stroke-dashoffset" from="16.27502766232452" to="0" dur="0.48825082986973556s" begin="anim2.end" fill="freeze" id="anim3" /></path><path d="M 13.5 -12.4 L 13.5 -18.4 C 13.5 -20.4 14.6 -21.4 17.3 -21.4 L 41.7 -21.4 " transform="translate(0.0 38.0)" stroke-dasharray="35.96970012041298" stroke-dashoffset="35.96970012041298"><animate attributeName="stroke-dashoffset" from="35.96970012041298" to="0" dur="1.0790910036123893s" begin="anim3.end" fill="freeze" id="anim4" /></path><path d="M 44.2 -31.9 L 44.2 -33.5 C 44.2 -35.3 43.2 -36.2 40.5 -36.2 L 9.5 -36.2 C 6.7 -36.2 5.8 -35.3 5.8 -33.5 L 5.8 -30.6 " transform="translate(0.0 38.0)" stroke-dasharray="46.05647184283692" stroke-dashoffset="46.05647184283692"><animate attributeName="stroke-dashoffset" from="46.05647184283692" to="0" dur="1.3816941552851076s" begin="anim4.end" fill="freeze" id="anim5" /></path><path d="M 24.9 -36.8 L 24.9 -41.0 " transform="translate(0.0 38.0)" stroke-dasharray="4.200000000000003" stroke-dashoffset="4.200000000000003"><animate attributeName="stroke-dashoffset" from="4.200000000000003" to="0" dur="0.12600000000000008s" begin="anim5.end" fill="freeze" id="anim6" /></path><path d="M 40.0 -30.2 C 39.5 -27.4 38.3 -26.8 33.5 -26.8 C 29.5 -26.8 28.6 -27.3 28.6 -29.4 L 28.6 -35.1" transform="translate(0.0 38.0)" stroke-dasharray="20.423011924465015" stroke-dashoffset="20.423011924465015"><animate attributeName="stroke-dashoffset" from="20.423011924465015" to="0" dur="0.6126903577339504s" begin="anim6.end" fill="freeze" id="anim_end" /></path></g></svg>