<?xml version='1.0' encoding='utf-8'?>
<svg viewBox="0.0 -6.0 50.0 50.0" version="1.1" xmlns="http://www.w3.org/2000/svg"><rect x="-1000" y="-1000" width="2000" height="2000" stroke="white" fill="white" /><g style="fill:none;stroke:#000000;stroke-width:1"><path d="M 8.2 -1.3 L 11.2 -1.3 C 13.3 -1.3 14.2 -2.3 14.2 -4.5 L 14.2 -35.0 C 14.2 -37.2 13.3 -38.2 11.2 -38.2 L 8.2 -38.2 C 5.9 -38.2 5.0 -37.2 5.0 -35.0 L 5.0 -4.5 C 5.0 -2.3 5.9 -1.3 8.2 -1.3 Z " transform="translate(0.0 38.0)" stroke-dasharray="87.64911981019272" stroke-dashoffset="87.64911981019272"><animate attributeName="stroke-dashoffset" from="87.64911981019272" to="0" dur="2.6294735943057814s" begin="0s; anim_end.end" fill="freeze" id="anim0" /></path><path d="M 16.4 2.3 C 19.9 -0.8 22.9 -5.6 24.2 -11.1 " transform="translate(0.0 38.0)" stroke-dasharray="15.740521456161451" stroke-dashoffset="15.740521456161451"><animate attributeName="stroke-dashoffset" from="15.740521456161451" to="0" dur="0.47221564368484353s" begin="anim0.end" fill="freeze" id="anim1" /></path><path d="M 14.9 -14.9 L 5.3 -14.9 " transform="translate(0.0 38.0)" stroke-dasharray="9.600000000000001" stroke-dashoffset="9.600000000000001"><animate attributeName="stroke-dashoffset" from="9.600000000000001" to="0" dur="0.28800000000000003s" begin="anim1.end" fill="freeze" id="anim2" /></path><path d="M 14.9 -26.2 L 5.3 -26.2 " transform="translate(0.0 38.0)" stroke-dasharray="9.600000000000001" stroke-dashoffset="9.600000000000001"><animate attributeName="stroke-dashoffset" from="9.600000000000001" to="0" dur="0.28800000000000003s" begin="anim2.end" fill="freeze" id="anim3" /></path><path d="M 46.2 0.6 C 43.5 0.9 40.9 1.1 37.8 1.1 C 29.8 1.1 25.1 -1.1 22.8 -6.8 " transform="translate(0.0 38.0)" stroke-dasharray="26.615792416480623" stroke-dashoffset="26.615792416480623"><animate attributeName="stroke-dashoffset" from="26.615792416480623" to="0" dur="0.7984737724944186s" begin="anim3.end" fill="freeze" id="anim4" /></path><path d="M 41.9 -8.1 L 31.5 -8.1 " transform="translate(0.0 38.0)" stroke-dasharray="10.399999999999999" stroke-dashoffset="10.399999999999999"><animate attributeName="stroke-dashoffset" from="10.399999999999999" to="0" dur="0.31199999999999994s" begin="anim4.end" fill="freeze" id="anim5" /></path><path d="M 31.4 -0.3 L 31.4 -40.6 " transform="translate(0.0 38.0)" stroke-dasharray="40.300000000000004" stroke-dashoffset="40.300000000000004"><animate attributeName="stroke-dashoffset" from="40.300000000000004" to="0" dur="1.209s" begin="anim5.end" fill="freeze" id="anim6" /></path><path d="M 21.9 -16.1 L 38.2 -16.1 C 40.8 -16.1 41.9 -16.9 41.9 -18.9 L 41.9 -26.4 C 41.9 -28.5 40.8 -29.3 38.2 -29.3 L 21.9 -29.3 " transform="translate(0.0 38.0)" stroke-dasharray="50.905509276824304" stroke-dashoffset="50.905509276824304"><animate attributeName="stroke-dashoffset" from="50.905509276824304" to="0" dur="1.5271652783047291s" begin="anim6.end" fill="freeze" id="anim7" /></path><path d="M 47.0 -22.8 L 18.8 -22.8 " transform="translate(0.0 38.0)" stroke-dasharray="28.2" stroke-dashoffset="28.2"><animate attributeName="stroke-dashoffset" from="28.2" to="0" dur="0.846s" begin="anim7.end" fill="freeze" id="anim8" /></path><path d="M 45.8 -35.8 L 19.8 -35.8" transform="translate(0.0 38.0)" stroke-dasharray="25.999999999999996" stroke-dashoffset="25.999999999999996"><animate attributeName="stroke-dashoffset" from="25.999999999999996" to="0" dur="0.7799999999999999s" begin="anim8.end" fill="freeze" id="anim_end" /></path></g></svg>