<?xml version='1.0' encoding='utf-8'?>
<svg viewBox="0.0 -6.0 50.0 50.0" version="1.1" xmlns="http://www.w3.org/2000/svg"><rect x="-1000" y="-1000" width="2000" height="2000" stroke="white" fill="white" /><g style="fill:none;stroke:#000000;stroke-width:1"><path d="M 32.8 2.1 C 34.0 2.3 35.0 2.4 36.0 2.4 C 38.5 2.4 39.9 1.4 40.8 -2.4 C 41.9 -7.2 42.5 -14.2 42.5 -20.8 C 42.5 -23.3 41.4 -24.6 37.9 -24.6 L 11.8 -24.6 " transform="translate(0.0 38.0)" stroke-dasharray="62.27004229732544" stroke-dashoffset="62.27004229732544"><animate attributeName="stroke-dashoffset" from="62.27004229732544" to="0" dur="1.8681012689197631s" begin="0s" fill="freeze" /></path><path d="M 4.3 -16.1 C 8.0 -19.4 11.2 -23.8 13.4 -28.1 " transform="translate(0.0 38.0)" stroke-dasharray="15.141955611979585" stroke-dashoffset="15.141955611979585"><animate attributeName="stroke-dashoffset" from="15.141955611979585" to="0" dur="0.4542586683593875s" begin="1.8681012689197631s" fill="freeze" /></path><path d="M 28.6 -10.2 L 13.6 -10.2 " transform="translate(0.0 38.0)" stroke-dasharray="15.000000000000002" stroke-dashoffset="15.000000000000002"><animate attributeName="stroke-dashoffset" from="15.000000000000002" to="0" dur="0.45s" begin="2.322359937279151s" fill="freeze" /></path><path d="M 17.2 -2.2 L 25.7 -2.2 C 28.3 -2.2 29.2 -3.2 29.2 -5.2 L 29.2 -14.8 C 29.2 -16.8 28.3 -17.8 25.7 -17.8 L 17.2 -17.8 C 14.7 -17.8 13.8 -16.8 13.8 -14.8 L 13.8 -5.2 C 13.8 -3.2 14.7 -2.2 17.2 -2.2 Z " transform="translate(0.0 38.0)" stroke-dasharray="57.38875287338381" stroke-dashoffset="57.38875287338381"><animate attributeName="stroke-dashoffset" from="57.38875287338381" to="0" dur="1.7216625862015142s" begin="2.772359937279151s" fill="freeze" /></path><path d="M 4.6 -30.2 C 7.2 -32.9 9.4 -36.4 11.1 -40.1 " transform="translate(0.0 38.0)" stroke-dasharray="11.89734221029117" stroke-dashoffset="11.89734221029117"><animate attributeName="stroke-dashoffset" from="11.89734221029117" to="0" dur="0.3569202663087351s" begin="4.494022523480665s" fill="freeze" /></path><path d="M 16.9 -30.6 C 16.1 -32.6 15.2 -34.0 14.1 -35.5 " transform="translate(0.0 38.0)" stroke-dasharray="5.660525592110675" stroke-dashoffset="5.660525592110675"><animate attributeName="stroke-dashoffset" from="5.660525592110675" to="0" dur="0.16981576776332025s" begin="4.8509427897894s" fill="freeze" /></path><path d="M 22.1 -35.6 L 9.0 -35.6 " transform="translate(0.0 38.0)" stroke-dasharray="13.100000000000001" stroke-dashoffset="13.100000000000001"><animate attributeName="stroke-dashoffset" from="13.100000000000001" to="0" dur="0.393s" begin="5.02075855755272s" fill="freeze" /></path><path d="M 24.9 -30.9 C 27.1 -33.3 29.2 -36.7 30.8 -40.1 " transform="translate(0.0 38.0)" stroke-dasharray="10.967769751968175" stroke-dashoffset="10.967769751968175"><animate attributeName="stroke-dashoffset" from="10.967769751968175" to="0" dur="0.3290330925590452s" begin="5.41375855755272s" fill="freeze" /></path><path d="M 37.2 -30.3 C 36.3 -31.9 35.3 -33.6 34.1 -35.1 " transform="translate(0.0 38.0)" stroke-dasharray="5.720450850788251" stroke-dashoffset="5.720450850788251"><animate attributeName="stroke-dashoffset" from="5.720450850788251" to="0" dur="0.17161352552364753s" begin="5.742791650111766s" fill="freeze" /></path><path d="M 45.6 -35.6 L 28.2 -35.6" transform="translate(0.0 38.0)" stroke-dasharray="17.400000000000002" stroke-dashoffset="17.400000000000002"><animate attributeName="stroke-dashoffset" from="17.400000000000002" to="0" dur="0.522s" begin="5.914405175635413s" fill="freeze" /></path></g></svg>