<?xml version='1.0' encoding='utf-8'?>
<svg viewBox="0.0 -6.0 50.0 50.0" version="1.1" xmlns="http://www.w3.org/2000/svg"><rect x="-1000" y="-1000" width="2000" height="2000" stroke="white" fill="white" /><g style="fill:none;stroke:#000000;stroke-width:1"><path d="M 45.2 -13.3 L 26.1 -13.3 C 23.6 -13.3 23.0 -14.1 23.0 -15.9 L 23.0 -25.8 C 23.0 -27.5 23.6 -28.4 26.1 -28.4 L 44.5 -28.4 " transform="translate(0.0 38.0)" stroke-dasharray="56.87572278934445" stroke-dashoffset="56.87572278934445"><animate attributeName="stroke-dashoffset" from="56.87572278934445" to="0" dur="1.7062716836803336s" begin="0s" fill="freeze" /></path><path d="M 2.6 -8.4 C 5.5 -13.2 7.5 -18.9 8.8 -24.6 " transform="translate(0.0 38.0)" stroke-dasharray="17.41807536418626" stroke-dashoffset="17.41807536418626"><animate attributeName="stroke-dashoffset" from="17.41807536418626" to="0" dur="0.5225422609255879s" begin="1.7062716836803336s" fill="freeze" /></path><path d="M 9.8 3.0 L 9.8 -37.3 " transform="translate(0.0 38.0)" stroke-dasharray="40.3" stroke-dashoffset="40.3"><animate attributeName="stroke-dashoffset" from="40.3" to="0" dur="1.2089999999999999s" begin="2.228813944605921s" fill="freeze" /></path><path d="M 15.4 -16.2 C 14.3 -17.7 12.4 -19.6 10.7 -21.1 " transform="translate(0.0 38.0)" stroke-dasharray="6.800736726686139" stroke-dashoffset="6.800736726686139"><animate attributeName="stroke-dashoffset" from="6.800736726686139" to="0" dur="0.20402210180058417s" begin="3.437813944605921s" fill="freeze" /></path><path d="M 17.6 2.3 C 26.6 1.6 35.2 -1.4 39.7 -5.3 C 41.5 -6.8 40.6 -8.3 38.5 -8.3 L 20.6 -8.3 " transform="translate(0.0 38.0)" stroke-dasharray="46.398810218167064" stroke-dashoffset="46.398810218167064"><animate attributeName="stroke-dashoffset" from="46.398810218167064" to="0" dur="1.3919643065450118s" begin="3.641836046406505s" fill="freeze" /></path><path d="M 15.9 -27.4 L 3.0 -27.4 " transform="translate(0.0 38.0)" stroke-dasharray="12.9" stroke-dashoffset="12.9"><animate attributeName="stroke-dashoffset" from="12.9" to="0" dur="0.387s" begin="5.033800352951516s" fill="freeze" /></path><path d="M 45.6 1.9 C 37.4 0.8 29.6 -2.4 25.6 -8.0 " transform="translate(0.0 38.0)" stroke-dasharray="22.914793071788946" stroke-dashoffset="22.914793071788946"><animate attributeName="stroke-dashoffset" from="22.914793071788946" to="0" dur="0.6874437921536684s" begin="5.420800352951517s" fill="freeze" /></path><path d="M 3.6 -35.8 C 7.0 -36.4 11.6 -37.9 15.1 -39.4 " transform="translate(0.0 38.0)" stroke-dasharray="12.072765200627304" stroke-dashoffset="12.072765200627304"><animate attributeName="stroke-dashoffset" from="12.072765200627304" to="0" dur="0.3621829560188191s" begin="6.108244145105185s" fill="freeze" /></path><path d="M 18.4 -22.2 C 20.9 -24.8 23.1 -28.6 24.5 -31.6 " transform="translate(0.0 38.0)" stroke-dasharray="11.25155475190421" stroke-dashoffset="11.25155475190421"><animate attributeName="stroke-dashoffset" from="11.25155475190421" to="0" dur="0.3375466425571263s" begin="6.470427101124004s" fill="freeze" /></path><path d="M 42.1 -18.4 L 23.2 -18.4 " transform="translate(0.0 38.0)" stroke-dasharray="18.900000000000002" stroke-dashoffset="18.900000000000002"><animate attributeName="stroke-dashoffset" from="18.900000000000002" to="0" dur="0.5670000000000001s" begin="6.8079737436811305s" fill="freeze" /></path><path d="M 33.3 -13.8 L 33.3 -28.3 " transform="translate(0.0 38.0)" stroke-dasharray="14.5" stroke-dashoffset="14.5"><animate attributeName="stroke-dashoffset" from="14.5" to="0" dur="0.435s" begin="7.374973743681131s" fill="freeze" /></path><path d="M 42.1 -23.4 L 23.2 -23.4 " transform="translate(0.0 38.0)" stroke-dasharray="18.900000000000002" stroke-dashoffset="18.900000000000002"><animate attributeName="stroke-dashoffset" from="18.900000000000002" to="0" dur="0.5670000000000001s" begin="7.80997374368113s" fill="freeze" /></path><path d="M 32.4 -27.8 C 33.0 -29.1 33.5 -30.3 34.0 -31.6 " transform="translate(0.0 38.0)" stroke-dasharray="4.123870783158498" stroke-dashoffset="4.123870783158498"><animate attributeName="stroke-dashoffset" from="4.123870783158498" to="0" dur="0.12371612349475494s" begin="8.37697374368113s" fill="freeze" /></path><path d="M 27.8 -34.0 L 27.8 -40.5 " transform="translate(0.0 38.0)" stroke-dasharray="6.5" stroke-dashoffset="6.5"><animate attributeName="stroke-dashoffset" from="6.5" to="0" dur="0.195s" begin="8.500689867175886s" fill="freeze" /></path><path d="M 46.0 -37.0 L 19.7 -37.0 " transform="translate(0.0 38.0)" stroke-dasharray="26.3" stroke-dashoffset="26.3"><animate attributeName="stroke-dashoffset" from="26.3" to="0" dur="0.789s" begin="8.695689867175886s" fill="freeze" /></path><path d="M 37.8 -34.0 L 37.8 -40.5" transform="translate(0.0 38.0)" stroke-dasharray="6.5" stroke-dashoffset="6.5"><animate attributeName="stroke-dashoffset" from="6.5" to="0" dur="0.195s" begin="9.484689867175886s" fill="freeze" /></path></g></svg>