<?xml version='1.0' encoding='utf-8'?>
<svg viewBox="0.0 -6.0 50.0 50.0" version="1.1" xmlns="http://www.w3.org/2000/svg"><rect x="-1000" y="-1000" width="2000" height="2000" stroke="white" fill="white" /><g style="fill:none;stroke:#000000;stroke-width:1"><path d="M 46.0 1.4 C 41.0 -0.8 35.5 -5.5 32.5 -12.2 " transform="translate(0.0 38.0)" stroke-dasharray="19.5805348312664" stroke-dashoffset="19.5805348312664"><animate attributeName="stroke-dashoffset" from="19.5805348312664" to="0" dur="0.587416044937992s" begin="0s; anim_end.end" fill="freeze" id="anim0" /></path><path d="M 2.7 -8.2 C 5.6 -13.1 7.7 -18.9 8.9 -24.6 " transform="translate(0.0 38.0)" stroke-dasharray="17.608551206402257" stroke-dashoffset="17.608551206402257"><animate attributeName="stroke-dashoffset" from="17.608551206402257" to="0" dur="0.5282565361920677s" begin="anim0.end" fill="freeze" id="anim1" /></path><path d="M 10.1 2.9 L 10.1 -37.2 " transform="translate(0.0 38.0)" stroke-dasharray="40.1" stroke-dashoffset="40.1"><animate attributeName="stroke-dashoffset" from="40.1" to="0" dur="1.203s" begin="anim1.end" fill="freeze" id="anim2" /></path><path d="M 20.2 2.0 C 24.2 1.5 30.0 0.2 33.6 -0.9 " transform="translate(0.0 38.0)" stroke-dasharray="13.723374303870557" stroke-dashoffset="13.723374303870557"><animate attributeName="stroke-dashoffset" from="13.723374303870557" to="0" dur="0.4117012291161167s" begin="anim2.end" fill="freeze" id="anim3" /></path><path d="M 25.8 0.6 L 25.8 -5.2 " transform="translate(0.0 38.0)" stroke-dasharray="5.8" stroke-dashoffset="5.8"><animate attributeName="stroke-dashoffset" from="5.8" to="0" dur="0.174s" begin="anim3.end" fill="freeze" id="anim4" /></path><path d="M 16.1 -3.5 C 21.8 -5.4 27.6 -8.7 31.4 -12.3 " transform="translate(0.0 38.0)" stroke-dasharray="17.777860936074266" stroke-dashoffset="17.777860936074266"><animate attributeName="stroke-dashoffset" from="17.777860936074266" to="0" dur="0.5333358280822279s" begin="anim4.end" fill="freeze" id="anim5" /></path><path d="M 15.4 -27.4 L 3.1 -27.4 " transform="translate(0.0 38.0)" stroke-dasharray="12.3" stroke-dashoffset="12.3"><animate attributeName="stroke-dashoffset" from="12.3" to="0" dur="0.369s" begin="anim5.end" fill="freeze" id="anim6" /></path><path d="M 46.2 -12.7 L 18.8 -12.7 " transform="translate(0.0 38.0)" stroke-dasharray="27.400000000000002" stroke-dashoffset="27.400000000000002"><animate attributeName="stroke-dashoffset" from="27.400000000000002" to="0" dur="0.8220000000000001s" begin="anim6.end" fill="freeze" id="anim7" /></path><path d="M 4.0 -35.8 C 7.2 -36.4 11.8 -37.8 15.2 -39.4 " transform="translate(0.0 38.0)" stroke-dasharray="11.790899580322723" stroke-dashoffset="11.790899580322723"><animate attributeName="stroke-dashoffset" from="11.790899580322723" to="0" dur="0.35372698740968167s" begin="anim7.end" fill="freeze" id="anim8" /></path><path d="M 37.8 -4.8 C 39.4 -5.8 41.1 -7.2 42.8 -8.7 " transform="translate(0.0 38.0)" stroke-dasharray="6.3479744538656355" stroke-dashoffset="6.3479744538656355"><animate attributeName="stroke-dashoffset" from="6.3479744538656355" to="0" dur="0.19043923361596907s" begin="anim8.end" fill="freeze" id="anim9" /></path><path d="M 27.9 -13.6 L 27.9 -28.1 " transform="translate(0.0 38.0)" stroke-dasharray="14.500000000000002" stroke-dashoffset="14.500000000000002"><animate attributeName="stroke-dashoffset" from="14.500000000000002" to="0" dur="0.43500000000000005s" begin="anim9.end" fill="freeze" id="anim10" /></path><path d="M 42.6 -18.6 L 21.7 -18.6 " transform="translate(0.0 38.0)" stroke-dasharray="20.900000000000002" stroke-dashoffset="20.900000000000002"><animate attributeName="stroke-dashoffset" from="20.900000000000002" to="0" dur="0.627s" begin="anim10.end" fill="freeze" id="anim11" /></path><path d="M 20.1 -28.8 C 22.2 -29.8 24.6 -31.2 26.4 -32.7 " transform="translate(0.0 38.0)" stroke-dasharray="7.427227984532345" stroke-dashoffset="7.427227984532345"><animate attributeName="stroke-dashoffset" from="7.427227984532345" to="0" dur="0.22281683953597034s" begin="anim11.end" fill="freeze" id="anim12" /></path><path d="M 44.5 -24.4 L 20.2 -24.4 " transform="translate(0.0 38.0)" stroke-dasharray="24.3" stroke-dashoffset="24.3"><animate attributeName="stroke-dashoffset" from="24.3" to="0" dur="0.729s" begin="anim12.end" fill="freeze" id="anim13" /></path><path d="M 36.5 -13.6 L 36.5 -28.1 " transform="translate(0.0 38.0)" stroke-dasharray="14.500000000000002" stroke-dashoffset="14.500000000000002"><animate attributeName="stroke-dashoffset" from="14.500000000000002" to="0" dur="0.43500000000000005s" begin="anim13.end" fill="freeze" id="anim14" /></path><path d="M 46.0 -36.8 L 19.4 -36.8 " transform="translate(0.0 38.0)" stroke-dasharray="26.6" stroke-dashoffset="26.6"><animate attributeName="stroke-dashoffset" from="26.6" to="0" dur="0.798s" begin="anim14.end" fill="freeze" id="anim15" /></path><path d="M 32.2 -36.6 L 32.2 -40.5 " transform="translate(0.0 38.0)" stroke-dasharray="3.8999999999999986" stroke-dashoffset="3.8999999999999986"><animate attributeName="stroke-dashoffset" from="3.8999999999999986" to="0" dur="0.11699999999999995s" begin="anim15.end" fill="freeze" id="anim16" /></path><path d="M 44.0 -29.2 C 42.1 -30.1 39.4 -31.8 37.9 -32.9 " transform="translate(0.0 38.0)" stroke-dasharray="7.142588989059243" stroke-dashoffset="7.142588989059243"><animate attributeName="stroke-dashoffset" from="7.142588989059243" to="0" dur="0.2142776696717773s" begin="anim16.end" fill="freeze" id="anim17" /></path><path d="M 10.8 -22.2 C 12.6 -20.5 14.4 -18.8 16.2 -17.0" transform="translate(0.0 38.0)" stroke-dasharray="7.496941340465311" stroke-dashoffset="7.496941340465311"><animate attributeName="stroke-dashoffset" from="7.496941340465311" to="0" dur="0.2249082402139593s" begin="anim17.end" fill="freeze" id="anim_end" /></path></g></svg>