<?xml version='1.0' encoding='utf-8'?>
<svg viewBox="0.0 -6.0 50.0 50.0" version="1.1" xmlns="http://www.w3.org/2000/svg"><rect x="-1000" y="-1000" width="2000" height="2000" stroke="white" fill="white" /><g style="fill:none;stroke:#000000;stroke-width:1"><path d="M 25.4 -16.4 L 25.4 -24.5 C 25.4 -26.6 24.5 -27.4 22.0 -27.4 L 17.0 -27.4 C 14.5 -27.4 13.7 -26.6 13.7 -24.5 L 13.7 -16.4 C 13.7 -14.3 14.5 -13.4 17.0 -13.4 L 22.0 -13.4 C 24.5 -13.4 25.4 -14.3 25.4 -16.4 Z " transform="translate(0.0 38.0)" stroke-dasharray="47.0542448343592" stroke-dashoffset="47.0542448343592"><animate attributeName="stroke-dashoffset" from="47.0542448343592" to="0" dur="1.4116273450307761s" begin="0s; anim_end.end" fill="freeze" id="anim0" /></path><path d="M 4.1 1.0 C 6.0 -2.5 8.0 -7.8 9.1 -12.1 " transform="translate(0.0 38.0)" stroke-dasharray="14.051629820705873" stroke-dashoffset="14.051629820705873"><animate attributeName="stroke-dashoffset" from="14.051629820705873" to="0" dur="0.4215488946211762s" begin="anim0.end" fill="freeze" id="anim1" /></path><path d="M 19.5 2.5 L 19.5 -13.6 " transform="translate(0.0 38.0)" stroke-dasharray="16.1" stroke-dashoffset="16.1"><animate attributeName="stroke-dashoffset" from="16.1" to="0" dur="0.48300000000000004s" begin="anim1.end" fill="freeze" id="anim2" /></path><path d="M 25.6 -6.5 L 12.1 -6.5 " transform="translate(0.0 38.0)" stroke-dasharray="13.500000000000002" stroke-dashoffset="13.500000000000002"><animate attributeName="stroke-dashoffset" from="13.500000000000002" to="0" dur="0.405s" begin="anim2.end" fill="freeze" id="anim3" /></path><path d="M 7.1 -23.1 C 6.1 -24.3 4.3 -25.9 3.2 -26.6 " transform="translate(0.0 38.0)" stroke-dasharray="5.255235102929749" stroke-dashoffset="5.255235102929749"><animate attributeName="stroke-dashoffset" from="5.255235102929749" to="0" dur="0.15765705308789246s" begin="anim3.end" fill="freeze" id="anim4" /></path><path d="M 28.1 -3.0 C 31.0 -6.0 33.6 -10.2 35.2 -14.3 " transform="translate(0.0 38.0)" stroke-dasharray="13.426749307949212" stroke-dashoffset="13.426749307949212"><animate attributeName="stroke-dashoffset" from="13.426749307949212" to="0" dur="0.40280247923847634s" begin="anim4.end" fill="freeze" id="anim5" /></path><path d="M 25.5 -20.6 L 14.2 -20.6 " transform="translate(0.0 38.0)" stroke-dasharray="11.3" stroke-dashoffset="11.3"><animate attributeName="stroke-dashoffset" from="11.3" to="0" dur="0.339s" begin="anim5.end" fill="freeze" id="anim6" /></path><path d="M 31.2 1.6 C 31.9 1.7 32.8 1.8 33.4 1.8 C 34.9 1.8 35.7 1.1 35.7 -1.1 L 35.7 -22.9 C 35.7 -24.4 35.0 -25.0 33.4 -25.0 L 30.0 -25.0 " transform="translate(0.0 38.0)" stroke-dasharray="35.30511715615218" stroke-dashoffset="35.30511715615218"><animate attributeName="stroke-dashoffset" from="35.30511715615218" to="0" dur="1.0591535146845654s" begin="anim6.end" fill="freeze" id="anim7" /></path><path d="M 9.4 -35.9 C 8.5 -37.0 6.9 -38.5 5.9 -39.3 " transform="translate(0.0 38.0)" stroke-dasharray="4.886322863729587" stroke-dashoffset="4.886322863729587"><animate attributeName="stroke-dashoffset" from="4.886322863729587" to="0" dur="0.14658968591188762s" begin="anim7.end" fill="freeze" id="anim8" /></path><path d="M 29.2 -13.9 C 31.3 -16.6 33.0 -20.4 34.1 -24.0 " transform="translate(0.0 38.0)" stroke-dasharray="11.283361755770361" stroke-dashoffset="11.283361755770361"><animate attributeName="stroke-dashoffset" from="11.283361755770361" to="0" dur="0.3385008526731108s" begin="anim8.end" fill="freeze" id="anim9" /></path><path d="M 38.9 -5.0 C 41.0 -7.5 43.0 -10.9 44.6 -14.8 " transform="translate(0.0 38.0)" stroke-dasharray="11.380386278790183" stroke-dashoffset="11.380386278790183"><animate attributeName="stroke-dashoffset" from="11.380386278790183" to="0" dur="0.3414115883637055s" begin="anim9.end" fill="freeze" id="anim10" /></path><path d="M 40.6 1.6 C 41.2 1.7 42.1 1.8 42.8 1.8 C 44.2 1.8 45.1 1.1 45.1 -1.1 L 45.1 -22.9 C 45.1 -24.4 44.5 -25.0 42.8 -25.0 L 39.4 -25.0 " transform="translate(0.0 38.0)" stroke-dasharray="35.303489899350595" stroke-dashoffset="35.303489899350595"><animate attributeName="stroke-dashoffset" from="35.303489899350595" to="0" dur="1.0591046969805178s" begin="anim10.end" fill="freeze" id="anim11" /></path><path d="M 19.5 -27.1 L 19.5 -40.4 " transform="translate(0.0 38.0)" stroke-dasharray="13.299999999999997" stroke-dashoffset="13.299999999999997"><animate attributeName="stroke-dashoffset" from="13.299999999999997" to="0" dur="0.3989999999999999s" begin="anim11.end" fill="freeze" id="anim12" /></path><path d="M 26.6 -34.5 L 13.4 -34.5 " transform="translate(0.0 38.0)" stroke-dasharray="13.200000000000001" stroke-dashoffset="13.200000000000001"><animate attributeName="stroke-dashoffset" from="13.200000000000001" to="0" dur="0.396s" begin="anim12.end" fill="freeze" id="anim13" /></path><path d="M 39.1 -15.4 C 40.9 -17.8 42.5 -20.9 43.5 -24.5 " transform="translate(0.0 38.0)" stroke-dasharray="10.165535816943455" stroke-dashoffset="10.165535816943455"><animate attributeName="stroke-dashoffset" from="10.165535816943455" to="0" dur="0.30496607450830365s" begin="anim13.end" fill="freeze" id="anim14" /></path><path d="M 28.9 -28.7 C 32.3 -31.6 35.5 -35.9 37.6 -40.0 " transform="translate(0.0 38.0)" stroke-dasharray="14.344701506131969" stroke-dashoffset="14.344701506131969"><animate attributeName="stroke-dashoffset" from="14.344701506131969" to="0" dur="0.43034104518395905s" begin="anim14.end" fill="freeze" id="anim15" /></path><path d="M 47.1 -29.2 C 43.8 -31.6 40.2 -35.5 38.1 -39.0" transform="translate(0.0 38.0)" stroke-dasharray="13.383064579784023" stroke-dashoffset="13.383064579784023"><animate attributeName="stroke-dashoffset" from="13.383064579784023" to="0" dur="0.4014919373935207s" begin="anim15.end" fill="freeze" id="anim_end" /></path></g></svg>