<?xml version='1.0' encoding='utf-8'?>
<svg viewBox="0.0 -6.0 50.0 50.0" version="1.1" xmlns="http://www.w3.org/2000/svg"><rect x="-1000" y="-1000" width="2000" height="2000" stroke="white" fill="white" /><g style="fill:none;stroke:#000000;stroke-width:1"><path d="M 17.8 1.2 C 20.9 -3.8 22.6 -10.4 22.6 -20.6 L 22.6 -26.9 C 22.6 -29.5 23.8 -30.7 26.8 -30.7 L 45.4 -30.7 " transform="translate(0.0 38.0)" stroke-dasharray="54.073151060595926" stroke-dashoffset="54.073151060595926"><animate attributeName="stroke-dashoffset" from="54.073151060595926" to="0" dur="1.6221945318178776s" begin="0s" fill="freeze" /></path><path d="M 14.9 -14.8 L 5.8 -14.8 " transform="translate(0.0 38.0)" stroke-dasharray="9.100000000000001" stroke-dashoffset="9.100000000000001"><animate attributeName="stroke-dashoffset" from="9.100000000000001" to="0" dur="0.273s" begin="1.6221945318178776s" fill="freeze" /></path><path d="M 8.4 -1.2 L 11.3 -1.2 C 13.5 -1.2 14.3 -2.2 14.3 -4.5 L 14.3 -34.8 C 14.3 -37.0 13.5 -38.0 11.3 -38.0 L 8.4 -38.0 C 6.3 -38.0 5.5 -37.0 5.5 -34.8 L 5.5 -4.5 C 5.5 -2.2 6.3 -1.2 8.4 -1.2 Z " transform="translate(0.0 38.0)" stroke-dasharray="86.80182499059131" stroke-dashoffset="86.80182499059131"><animate attributeName="stroke-dashoffset" from="86.80182499059131" to="0" dur="2.6040547497177395s" begin="1.8951945318178778s" fill="freeze" /></path><path d="M 30.9 2.0 L 40.2 2.0 C 42.4 2.0 43.0 1.4 43.0 0.0 L 43.0 -1.5 C 43.0 -2.9 42.4 -3.5 40.2 -3.5 L 30.9 -3.5 C 28.8 -3.5 28.0 -2.9 28.0 -1.5 L 28.0 0.0 C 28.0 1.4 28.8 2.0 30.9 2.0 Z " transform="translate(0.0 38.0)" stroke-dasharray="37.72177897089014" stroke-dashoffset="37.72177897089014"><animate attributeName="stroke-dashoffset" from="37.72177897089014" to="0" dur="1.1316533691267041s" begin="4.499249281535617s" fill="freeze" /></path><path d="M 14.9 -26.1 L 5.8 -26.1 " transform="translate(0.0 38.0)" stroke-dasharray="9.100000000000001" stroke-dashoffset="9.100000000000001"><animate attributeName="stroke-dashoffset" from="9.100000000000001" to="0" dur="0.273s" begin="5.630902650662321s" fill="freeze" /></path><path d="M 42.4 -8.0 L 28.6 -8.0 " transform="translate(0.0 38.0)" stroke-dasharray="13.799999999999997" stroke-dashoffset="13.799999999999997"><animate attributeName="stroke-dashoffset" from="13.799999999999997" to="0" dur="0.4139999999999999s" begin="5.903902650662321s" fill="freeze" /></path><path d="M 42.4 -12.3 L 28.6 -12.3 " transform="translate(0.0 38.0)" stroke-dasharray="13.799999999999997" stroke-dashoffset="13.799999999999997"><animate attributeName="stroke-dashoffset" from="13.799999999999997" to="0" dur="0.4139999999999999s" begin="6.317902650662321s" fill="freeze" /></path><path d="M 46.2 -16.8 L 23.4 -16.8 " transform="translate(0.0 38.0)" stroke-dasharray="22.800000000000004" stroke-dashoffset="22.800000000000004"><animate attributeName="stroke-dashoffset" from="22.800000000000004" to="0" dur="0.684s" begin="6.73190265066232s" fill="freeze" /></path><path d="M 27.1 -24.1 C 30.2 -25.2 32.1 -27.4 32.5 -30.4 " transform="translate(0.0 38.0)" stroke-dasharray="8.767571903767674" stroke-dashoffset="8.767571903767674"><animate attributeName="stroke-dashoffset" from="8.767571903767674" to="0" dur="0.2630271571130302s" begin="7.4159026506623205s" fill="freeze" /></path><path d="M 41.6 -21.2 L 29.6 -21.2 " transform="translate(0.0 38.0)" stroke-dasharray="12.0" stroke-dashoffset="12.0"><animate attributeName="stroke-dashoffset" from="12.0" to="0" dur="0.36s" begin="7.678929807775351s" fill="freeze" /></path><path d="M 18.7 -28.9 C 22.1 -31.9 25.4 -36.1 27.4 -40.2 " transform="translate(0.0 38.0)" stroke-dasharray="14.346204943460076" stroke-dashoffset="14.346204943460076"><animate attributeName="stroke-dashoffset" from="14.346204943460076" to="0" dur="0.4303861483038023s" begin="8.03892980777535s" fill="freeze" /></path><path d="M 33.0 -30.8 C 33.9 -31.7 34.5 -32.5 35.2 -33.5 C 36.2 -35.2 35.7 -36.5 33.3 -36.5 L 25.1 -36.5 " transform="translate(0.0 38.0)" stroke-dasharray="16.445131131489454" stroke-dashoffset="16.445131131489454"><animate attributeName="stroke-dashoffset" from="16.445131131489454" to="0" dur="0.4933539339446836s" begin="8.469315956079152s" fill="freeze" /></path><path d="M 45.5 -27.6 C 45.3 -25.8 44.2 -25.1 41.4 -25.1 C 38.8 -25.1 38.2 -25.6 38.2 -27.1 L 38.2 -30.1" transform="translate(0.0 38.0)" stroke-dasharray="12.812226124496036" stroke-dashoffset="12.812226124496036"><animate attributeName="stroke-dashoffset" from="12.812226124496036" to="0" dur="0.38436678373488103s" begin="8.962669890023836s" fill="freeze" /></path></g></svg>