<?xml version='1.0' encoding='utf-8'?>
<svg viewBox="0.0 -6.0 50.0 50.0" version="1.1" xmlns="http://www.w3.org/2000/svg"><rect x="-1000" y="-1000" width="2000" height="2000" stroke="white" fill="white" /><g style="fill:none;stroke:#000000;stroke-width:1"><path d="M 37.0 -13.9 C 37.8 -13.8 38.4 -13.8 39.0 -13.8 C 41.0 -13.8 41.8 -14.4 41.8 -16.5 L 41.8 -28.2 C 41.8 -30.2 40.9 -31.0 38.0 -31.0 L 12.3 -31.0 C 9.5 -31.0 8.4 -30.2 8.4 -28.2 L 8.4 -13.4 " transform="translate(0.0 38.0)" stroke-dasharray="69.81597648523216" stroke-dashoffset="69.81597648523216"><animate attributeName="stroke-dashoffset" from="69.81597648523216" to="0" dur="2.094479294556965s" begin="0s; anim_end.end" fill="freeze" id="anim0" /></path><path d="M 46.0 1.6 L 4.1 1.6 " transform="translate(0.0 38.0)" stroke-dasharray="41.9" stroke-dashoffset="41.9"><animate attributeName="stroke-dashoffset" from="41.9" to="0" dur="1.257s" begin="anim0.end" fill="freeze" id="anim1" /></path><path d="M 24.8 1.6 L 24.8 -9.7 " transform="translate(0.0 38.0)" stroke-dasharray="11.299999999999999" stroke-dashoffset="11.299999999999999"><animate attributeName="stroke-dashoffset" from="11.299999999999999" to="0" dur="0.33899999999999997s" begin="anim1.end" fill="freeze" id="anim2" /></path><path d="M 40.1 -4.2 L 9.9 -4.2 " transform="translate(0.0 38.0)" stroke-dasharray="30.200000000000003" stroke-dashoffset="30.200000000000003"><animate attributeName="stroke-dashoffset" from="30.200000000000003" to="0" dur="0.906s" begin="anim2.end" fill="freeze" id="anim3" /></path><path d="M 43.2 -9.5 L 6.6 -9.5 " transform="translate(0.0 38.0)" stroke-dasharray="36.6" stroke-dashoffset="36.6"><animate attributeName="stroke-dashoffset" from="36.6" to="0" dur="1.098s" begin="anim3.end" fill="freeze" id="anim4" /></path><path d="M 12.8 -15.3 C 15.4 -16.6 18.6 -18.6 20.3 -20.4 " transform="translate(0.0 38.0)" stroke-dasharray="9.107543867430557" stroke-dashoffset="9.107543867430557"><animate attributeName="stroke-dashoffset" from="9.107543867430557" to="0" dur="0.2732263160229167s" begin="anim4.end" fill="freeze" id="anim5" /></path><path d="M 19.6 -16.2 C 17.8 -17.5 15.9 -18.6 14.2 -19.4 " transform="translate(0.0 38.0)" stroke-dasharray="6.285625530574563" stroke-dashoffset="6.285625530574563"><animate attributeName="stroke-dashoffset" from="6.285625530574563" to="0" dur="0.1885687659172369s" begin="anim5.end" fill="freeze" id="anim6" /></path><path d="M 34.5 -0.5 C 34.0 -1.1 33.5 -1.8 32.9 -2.2 " transform="translate(0.0 38.0)" stroke-dasharray="2.3431817313565446" stroke-dashoffset="2.3431817313565446"><animate attributeName="stroke-dashoffset" from="2.3431817313565446" to="0" dur="0.07029545194069634s" begin="anim6.end" fill="freeze" id="anim7" /></path><path d="M 12.8 -23.0 C 15.3 -24.1 18.4 -26.1 20.3 -27.8 " transform="translate(0.0 38.0)" stroke-dasharray="8.93487960105594" stroke-dashoffset="8.93487960105594"><animate attributeName="stroke-dashoffset" from="8.93487960105594" to="0" dur="0.2680463880316782s" begin="anim7.end" fill="freeze" id="anim8" /></path><path d="M 19.6 -23.9 C 17.8 -25.2 15.9 -26.2 14.2 -27.1 " transform="translate(0.0 38.0)" stroke-dasharray="6.282427180978261" stroke-dashoffset="6.282427180978261"><animate attributeName="stroke-dashoffset" from="6.282427180978261" to="0" dur="0.18847281542934782s" begin="anim8.end" fill="freeze" id="anim9" /></path><path d="M 4.4 -31.6 C 7.9 -32.5 12.4 -34.2 15.7 -36.1 " transform="translate(0.0 38.0)" stroke-dasharray="12.195334062804076" stroke-dashoffset="12.195334062804076"><animate attributeName="stroke-dashoffset" from="12.195334062804076" to="0" dur="0.36586002188412226s" begin="anim9.end" fill="freeze" id="anim10" /></path><path d="M 24.9 -13.8 L 24.9 -37.9 " transform="translate(0.0 38.0)" stroke-dasharray="24.099999999999998" stroke-dashoffset="24.099999999999998"><animate attributeName="stroke-dashoffset" from="24.099999999999998" to="0" dur="0.7229999999999999s" begin="anim10.end" fill="freeze" id="anim11" /></path><path d="M 29.0 -16.3 C 31.6 -17.4 34.4 -19.1 36.5 -20.7 " transform="translate(0.0 38.0)" stroke-dasharray="8.716137312980361" stroke-dashoffset="8.716137312980361"><animate attributeName="stroke-dashoffset" from="8.716137312980361" to="0" dur="0.26148411938941085s" begin="anim11.end" fill="freeze" id="anim12" /></path><path d="M 36.0 -16.9 C 34.2 -18.2 32.2 -19.2 30.4 -20.1 " transform="translate(0.0 38.0)" stroke-dasharray="6.4573186406887055" stroke-dashoffset="6.4573186406887055"><animate attributeName="stroke-dashoffset" from="6.4573186406887055" to="0" dur="0.19371955922066117s" begin="anim12.end" fill="freeze" id="anim13" /></path><path d="M 29.0 -23.6 C 31.6 -24.6 34.4 -26.3 36.5 -27.9 " transform="translate(0.0 38.0)" stroke-dasharray="8.67168739792818" stroke-dashoffset="8.67168739792818"><animate attributeName="stroke-dashoffset" from="8.67168739792818" to="0" dur="0.2601506219378454s" begin="anim13.end" fill="freeze" id="anim14" /></path><path d="M 36.0 -24.2 C 34.2 -25.4 32.2 -26.5 30.4 -27.3 " transform="translate(0.0 38.0)" stroke-dasharray="6.408057500279566" stroke-dashoffset="6.408057500279566"><animate attributeName="stroke-dashoffset" from="6.408057500279566" to="0" dur="0.19224172500838696s" begin="anim14.end" fill="freeze" id="anim15" /></path><path d="M 44.9 -38.5 L 5.2 -38.5 " transform="translate(0.0 38.0)" stroke-dasharray="39.699999999999996" stroke-dashoffset="39.699999999999996"><animate attributeName="stroke-dashoffset" from="39.699999999999996" to="0" dur="1.1909999999999998s" begin="anim15.end" fill="freeze" id="anim16" /></path><path d="M 45.6 -32.2 C 41.5 -33.1 37.1 -34.6 34.2 -36.1" transform="translate(0.0 38.0)" stroke-dasharray="12.078274133541097" stroke-dashoffset="12.078274133541097"><animate attributeName="stroke-dashoffset" from="12.078274133541097" to="0" dur="0.3623482240062329s" begin="anim16.end" fill="freeze" id="anim_end" /></path></g></svg>