<?xml version='1.0' encoding='utf-8'?>
<svg viewBox="0.0 -6.0 50.0 50.0" version="1.1" xmlns="http://www.w3.org/2000/svg"><rect x="-1000" y="-1000" width="2000" height="2000" stroke="white" fill="white" /><g style="fill:none;stroke:#000000;stroke-width:1"><path d="M 5.0 2.5 C 16.2 1.8 23.4 -1.8 25.1 -8.4 " transform="translate(0.0 38.0)" stroke-dasharray="24.445084504704507" stroke-dashoffset="24.445084504704507"><animate attributeName="stroke-dashoffset" from="24.445084504704507" to="0" dur="0.7333525351411352s" begin="0s; 15s; 30s; 45s" fill="freeze" id="anim0" /></path><path d="M 45.2 -4.7 L 4.8 -4.7 " transform="translate(0.0 38.0)" stroke-dasharray="40.400000000000006" stroke-dashoffset="40.400000000000006"><animate attributeName="stroke-dashoffset" from="40.400000000000006" to="0" dur="1.2120000000000002s" begin="anim0.end" fill="freeze" id="anim1" /></path><path d="M 7.0 -21.3 C 8.0 -22.2 9.2 -23.6 10.1 -25.2 " transform="translate(0.0 38.0)" stroke-dasharray="5.002377262382298" stroke-dashoffset="5.002377262382298"><animate attributeName="stroke-dashoffset" from="5.002377262382298" to="0" dur="0.15007131787146893s" begin="anim1.end" fill="freeze" id="anim2" /></path><path d="M 43.3 -9.2 L 6.8 -9.2 " transform="translate(0.0 38.0)" stroke-dasharray="36.5" stroke-dashoffset="36.5"><animate attributeName="stroke-dashoffset" from="36.5" to="0" dur="1.095s" begin="anim2.end" fill="freeze" id="anim3" /></path><path d="M 45.0 2.0 C 37.2 1.8 29.0 -0.2 24.1 -3.5 " transform="translate(0.0 38.0)" stroke-dasharray="21.864401666159644" stroke-dashoffset="21.864401666159644"><animate attributeName="stroke-dashoffset" from="21.864401666159644" to="0" dur="0.6559320499847893s" begin="anim3.end" fill="freeze" id="anim4" /></path><path d="M 17.8 -19.6 C 17.4 -20.2 16.9 -20.9 16.3 -21.6 " transform="translate(0.0 38.0)" stroke-dasharray="2.501528876980909" stroke-dashoffset="2.501528876980909"><animate attributeName="stroke-dashoffset" from="2.501528876980909" to="0" dur="0.07504586630942728s" begin="anim4.end" fill="freeze" id="anim5" /></path><path d="M 24.9 -8.4 L 24.9 -17.6 " transform="translate(0.0 38.0)" stroke-dasharray="9.200000000000001" stroke-dashoffset="9.200000000000001"><animate attributeName="stroke-dashoffset" from="9.200000000000001" to="0" dur="0.276s" begin="anim5.end" fill="freeze" id="anim6" /></path><path d="M 38.8 -13.5 L 10.6 -13.5 " transform="translate(0.0 38.0)" stroke-dasharray="28.199999999999996" stroke-dashoffset="28.199999999999996"><animate attributeName="stroke-dashoffset" from="28.199999999999996" to="0" dur="0.8459999999999999s" begin="anim6.end" fill="freeze" id="anim7" /></path><path d="M 42.9 -17.8 L 8.0 -17.8 " transform="translate(0.0 38.0)" stroke-dasharray="34.9" stroke-dashoffset="34.9"><animate attributeName="stroke-dashoffset" from="34.9" to="0" dur="1.047s" begin="anim7.end" fill="freeze" id="anim8" /></path><path d="M 21.1 -22.6 C 20.6 -23.5 20.1 -24.3 19.4 -25.2 " transform="translate(0.0 38.0)" stroke-dasharray="3.1097827029618927" stroke-dashoffset="3.1097827029618927"><animate attributeName="stroke-dashoffset" from="3.1097827029618927" to="0" dur="0.09329348108885678s" begin="anim8.end" fill="freeze" id="anim9" /></path><path d="M 30.1 -22.9 C 29.5 -23.8 28.9 -24.6 28.4 -25.3 " transform="translate(0.0 38.0)" stroke-dasharray="2.9412835910731125" stroke-dashoffset="2.9412835910731125"><animate attributeName="stroke-dashoffset" from="2.9412835910731125" to="0" dur="0.08823850773219337s" begin="anim9.end" fill="freeze" id="anim10" /></path><path d="M 31.4 -17.4 C 32.3 -18.7 33.0 -19.9 33.9 -21.4 " transform="translate(0.0 38.0)" stroke-dasharray="4.717963729531664" stroke-dashoffset="4.717963729531664"><animate attributeName="stroke-dashoffset" from="4.717963729531664" to="0" dur="0.14153891188594991s" begin="anim10.end" fill="freeze" id="anim11" /></path><path d="M 45.6 -28.8 L 4.4 -28.8 " transform="translate(0.0 38.0)" stroke-dasharray="41.2" stroke-dashoffset="41.2"><animate attributeName="stroke-dashoffset" from="41.2" to="0" dur="1.236s" begin="anim11.end" fill="freeze" id="anim12" /></path><path d="M 24.9 -28.9 L 24.9 -36.6 " transform="translate(0.0 38.0)" stroke-dasharray="7.700000000000003" stroke-dashoffset="7.700000000000003"><animate attributeName="stroke-dashoffset" from="7.700000000000003" to="0" dur="0.23100000000000007s" begin="anim12.end" fill="freeze" id="anim13" /></path><path d="M 39.9 -33.0 L 10.1 -33.0 " transform="translate(0.0 38.0)" stroke-dasharray="29.799999999999997" stroke-dashoffset="29.799999999999997"><animate attributeName="stroke-dashoffset" from="29.799999999999997" to="0" dur="0.8939999999999999s" begin="anim13.end" fill="freeze" id="anim14" /></path><path d="M 19.2 -39.5 C 18.8 -40.0 18.1 -40.9 17.4 -41.5 " transform="translate(0.0 38.0)" stroke-dasharray="2.694695663045012" stroke-dashoffset="2.694695663045012"><animate attributeName="stroke-dashoffset" from="2.694695663045012" to="0" dur="0.08084086989135036s" begin="anim14.end" fill="freeze" id="anim15" /></path><path d="M 44.2 -37.3 L 6.7 -37.3 " transform="translate(0.0 38.0)" stroke-dasharray="37.5" stroke-dashoffset="37.5"><animate attributeName="stroke-dashoffset" from="37.5" to="0" dur="1.125s" begin="anim15.end" fill="freeze" id="anim16" /></path><path d="M 43.2 -22.1 C 42.1 -23.2 40.8 -24.4 39.5 -25.4 " transform="translate(0.0 38.0)" stroke-dasharray="4.961165070127555" stroke-dashoffset="4.961165070127555"><animate attributeName="stroke-dashoffset" from="4.961165070127555" to="0" dur="0.14883495210382663s" begin="anim16.end" fill="freeze" id="anim17" /></path><path d="M 29.3 -37.0 C 30.4 -38.4 31.2 -39.8 32.1 -41.5" transform="translate(0.0 38.0)" stroke-dasharray="5.307690745442003" stroke-dashoffset="5.307690745442003"><animate attributeName="stroke-dashoffset" from="5.307690745442003" to="0" dur="0.15923072236326008s" begin="anim17.end" fill="freeze" id="anim_end" /></path></g></svg>