<?xml version='1.0' encoding='utf-8'?>
<svg viewBox="0.0 -6.0 50.0 50.0" version="1.1" xmlns="http://www.w3.org/2000/svg"><rect x="-1000" y="-1000" width="2000" height="2000" stroke="white" fill="white" /><g style="fill:none;stroke:#000000;stroke-width:1"><path d="M 3.3 -1.4 C 5.9 -6.6 7.6 -14.6 7.6 -25.6 L 7.6 -33.2 C 7.6 -35.6 8.7 -37.0 12.1 -37.0 L 45.4 -37.0 " transform="translate(0.0 38.0)" stroke-dasharray="72.48410320129912" stroke-dashoffset="72.48410320129912"><animate attributeName="stroke-dashoffset" from="72.48410320129912" to="0" dur="2.1745230960389734s" begin="0s; 15s; 30s; 45s" fill="freeze" id="anim0" /></path><path d="M 10.6 -0.4 C 15.3 -3.3 19.6 -8.3 22.1 -13.1 " transform="translate(0.0 38.0)" stroke-dasharray="17.32223289264737" stroke-dashoffset="17.32223289264737"><animate attributeName="stroke-dashoffset" from="17.32223289264737" to="0" dur="0.5196669867794211s" begin="anim0.end" fill="freeze" id="anim1" /></path><path d="M 23.2 1.5 L 37.5 1.5 C 40.3 1.5 41.2 0.7 41.2 -1.1 L 41.2 -4.0 C 41.2 -5.8 40.3 -6.5 37.5 -6.5 L 23.2 -6.5 C 20.3 -6.5 19.4 -5.7 19.4 -4.0 L 19.4 -1.1 C 19.4 0.6 20.3 1.5 23.2 1.5 Z " transform="translate(0.0 38.0)" stroke-dasharray="55.33756815679297" stroke-dashoffset="55.33756815679297"><animate attributeName="stroke-dashoffset" from="55.33756815679297" to="0" dur="1.660127044703789s" begin="anim1.end" fill="freeze" id="anim2" /></path><path d="M 12.4 -20.4 C 14.6 -22.2 16.6 -24.5 18.4 -27.2 " transform="translate(0.0 38.0)" stroke-dasharray="9.101871742670687" stroke-dashoffset="9.101871742670687"><animate attributeName="stroke-dashoffset" from="9.101871742670687" to="0" dur="0.2730561522801206s" begin="anim2.end" fill="freeze" id="anim3" /></path><path d="M 44.8 -13.2 L 12.4 -13.2 " transform="translate(0.0 38.0)" stroke-dasharray="32.4" stroke-dashoffset="32.4"><animate attributeName="stroke-dashoffset" from="32.4" to="0" dur="0.972s" begin="anim3.end" fill="freeze" id="anim4" /></path><path d="M 19.9 -17.9 L 19.9 -33.0 " transform="translate(0.0 38.0)" stroke-dasharray="15.100000000000001" stroke-dashoffset="15.100000000000001"><animate attributeName="stroke-dashoffset" from="15.100000000000001" to="0" dur="0.453s" begin="anim4.end" fill="freeze" id="anim5" /></path><path d="M 25.6 -29.1 L 12.9 -29.1 " transform="translate(0.0 38.0)" stroke-dasharray="12.700000000000001" stroke-dashoffset="12.700000000000001"><animate attributeName="stroke-dashoffset" from="12.700000000000001" to="0" dur="0.381s" begin="anim5.end" fill="freeze" id="anim6" /></path><path d="M 28.7 -20.8 C 31.2 -22.8 33.6 -25.1 35.5 -28.1 " transform="translate(0.0 38.0)" stroke-dasharray="10.024010886110348" stroke-dashoffset="10.024010886110348"><animate attributeName="stroke-dashoffset" from="10.024010886110348" to="0" dur="0.30072032658331044s" begin="anim6.end" fill="freeze" id="anim7" /></path><path d="M 36.6 -18.1 L 36.6 -33.0 " transform="translate(0.0 38.0)" stroke-dasharray="14.899999999999999" stroke-dashoffset="14.899999999999999"><animate attributeName="stroke-dashoffset" from="14.899999999999999" to="0" dur="0.44699999999999995s" begin="anim7.end" fill="freeze" id="anim8" /></path><path d="M 25.8 -36.4 L 25.8 -41.2 " transform="translate(0.0 38.0)" stroke-dasharray="4.800000000000004" stroke-dashoffset="4.800000000000004"><animate attributeName="stroke-dashoffset" from="4.800000000000004" to="0" dur="0.14400000000000013s" begin="anim8.end" fill="freeze" id="anim9" /></path><path d="M 43.9 -29.1 L 29.9 -29.1 " transform="translate(0.0 38.0)" stroke-dasharray="14.0" stroke-dashoffset="14.0"><animate attributeName="stroke-dashoffset" from="14.0" to="0" dur="0.42s" begin="anim9.end" fill="freeze" id="anim10" /></path><path d="M 45.7 -20.8 C 43.2 -22.3 40.2 -24.7 38.0 -27.4 " transform="translate(0.0 38.0)" stroke-dasharray="10.188053596725387" stroke-dashoffset="10.188053596725387"><animate attributeName="stroke-dashoffset" from="10.188053596725387" to="0" dur="0.3056416079017616s" begin="anim10.end" fill="freeze" id="anim11" /></path><path d="M 20.9 -25.1 C 22.1 -24.3 23.2 -23.6 24.7 -22.6" transform="translate(0.0 38.0)" stroke-dasharray="4.548645389321562" stroke-dashoffset="4.548645389321562"><animate attributeName="stroke-dashoffset" from="4.548645389321562" to="0" dur="0.13645936167964687s" begin="anim11.end" fill="freeze" id="anim_end" /></path></g></svg>