<?xml version='1.0' encoding='utf-8'?>
<svg viewBox="0.0 -6.0 50.0 50.0" version="1.1" xmlns="http://www.w3.org/2000/svg"><rect x="-1000" y="-1000" width="2000" height="2000" stroke="white" fill="white" /><g style="fill:none;stroke:#000000;stroke-width:1"><path d="M 21.8 -22.0 L 38.6 -22.0 C 41.1 -22.0 42.2 -22.9 42.2 -24.9 L 42.2 -32.5 C 42.2 -34.5 41.1 -35.4 38.6 -35.4 L 22.4 -35.4 " transform="translate(0.0 38.0)" stroke-dasharray="51.253508946541494" stroke-dashoffset="51.253508946541494"><animate attributeName="stroke-dashoffset" from="51.253508946541494" to="0" dur="1.5376052683962447s" begin="0s; anim_end.end" fill="freeze" id="anim0" /></path><path d="M 3.6 -7.1 C 7.5 -8.1 12.8 -10.0 16.4 -11.6 " transform="translate(0.0 38.0)" stroke-dasharray="13.580885457334606" stroke-dashoffset="13.580885457334606"><animate attributeName="stroke-dashoffset" from="13.580885457334606" to="0" dur="0.40742656372003816s" begin="anim0.end" fill="freeze" id="anim1" /></path><path d="M 9.8 -8.6 L 9.8 -36.7 " transform="translate(0.0 38.0)" stroke-dasharray="28.1" stroke-dashoffset="28.1"><animate attributeName="stroke-dashoffset" from="28.1" to="0" dur="0.843s" begin="anim1.end" fill="freeze" id="anim2" /></path><path d="M 15.2 -23.9 L 4.2 -23.9 " transform="translate(0.0 38.0)" stroke-dasharray="11.0" stroke-dashoffset="11.0"><animate attributeName="stroke-dashoffset" from="11.0" to="0" dur="0.32999999999999996s" begin="anim2.end" fill="freeze" id="anim3" /></path><path d="M 46.1 -6.9 L 18.1 -6.9 " transform="translate(0.0 38.0)" stroke-dasharray="28.0" stroke-dashoffset="28.0"><animate attributeName="stroke-dashoffset" from="28.0" to="0" dur="0.84s" begin="anim3.end" fill="freeze" id="anim4" /></path><path d="M 15.8 -36.8 L 3.6 -36.8 " transform="translate(0.0 38.0)" stroke-dasharray="12.200000000000001" stroke-dashoffset="12.200000000000001"><animate attributeName="stroke-dashoffset" from="12.200000000000001" to="0" dur="0.366s" begin="anim4.end" fill="freeze" id="anim5" /></path><path d="M 43.5 -14.6 L 21.4 -14.6 " transform="translate(0.0 38.0)" stroke-dasharray="22.1" stroke-dashoffset="22.1"><animate attributeName="stroke-dashoffset" from="22.1" to="0" dur="0.663s" begin="anim5.end" fill="freeze" id="anim6" /></path><path d="M 31.6 2.8 L 31.6 -40.5 " transform="translate(0.0 38.0)" stroke-dasharray="43.3" stroke-dashoffset="43.3"><animate attributeName="stroke-dashoffset" from="43.3" to="0" dur="1.299s" begin="anim6.end" fill="freeze" id="anim7" /></path><path d="M 47.0 -28.8 L 17.9 -28.8" transform="translate(0.0 38.0)" stroke-dasharray="29.1" stroke-dashoffset="29.1"><animate attributeName="stroke-dashoffset" from="29.1" to="0" dur="0.873s" begin="anim7.end" fill="freeze" id="anim_end" /></path></g></svg>