<?xml version='1.0' encoding='utf-8'?>
<svg viewBox="0.0 -6.0 50.0 50.0" version="1.1" xmlns="http://www.w3.org/2000/svg"><rect x="-1000" y="-1000" width="2000" height="2000" stroke="white" fill="white" /><g style="fill:none;stroke:#000000;stroke-width:1"><path d="M 16.9 1.6 C 26.9 -5.1 35.0 -16.4 37.7 -28.6 C 38.2 -31.2 37.1 -32.3 34.5 -32.3 L 26.8 -32.3 " transform="translate(0.0 38.0)" stroke-dasharray="51.17392467760979" stroke-dashoffset="51.17392467760979"><animate attributeName="stroke-dashoffset" from="51.17392467760979" to="0" dur="1.5352177403282936s" begin="0s; anim_end.end" fill="freeze" id="anim0" /></path><path d="M 3.9 -6.5 C 8.1 -7.5 13.8 -9.4 17.9 -11.1 " transform="translate(0.0 38.0)" stroke-dasharray="14.749294212210591" stroke-dashoffset="14.749294212210591"><animate attributeName="stroke-dashoffset" from="14.749294212210591" to="0" dur="0.44247882636631775s" begin="anim0.end" fill="freeze" id="anim1" /></path><path d="M 10.6 -8.3 L 10.6 -36.4 " transform="translate(0.0 38.0)" stroke-dasharray="28.099999999999998" stroke-dashoffset="28.099999999999998"><animate attributeName="stroke-dashoffset" from="28.099999999999998" to="0" dur="0.8429999999999999s" begin="anim1.end" fill="freeze" id="anim2" /></path><path d="M 16.4 -23.8 L 4.5 -23.8 " transform="translate(0.0 38.0)" stroke-dasharray="11.899999999999999" stroke-dashoffset="11.899999999999999"><animate attributeName="stroke-dashoffset" from="11.899999999999999" to="0" dur="0.35699999999999993s" begin="anim2.end" fill="freeze" id="anim3" /></path><path d="M 17.2 -36.5 L 3.9 -36.5 " transform="translate(0.0 38.0)" stroke-dasharray="13.299999999999999" stroke-dashoffset="13.299999999999999"><animate attributeName="stroke-dashoffset" from="13.299999999999999" to="0" dur="0.39899999999999997s" begin="anim3.end" fill="freeze" id="anim4" /></path><path d="M 46.4 0.6 C 42.0 -5.0 37.7 -13.9 36.5 -22.5 " transform="translate(0.0 38.0)" stroke-dasharray="25.393790247209044" stroke-dashoffset="25.393790247209044"><animate attributeName="stroke-dashoffset" from="25.393790247209044" to="0" dur="0.7618137074162713s" begin="anim4.end" fill="freeze" id="anim5" /></path><path d="M 21.3 -20.8 C 24.9 -25.5 27.9 -32.8 29.4 -39.5" transform="translate(0.0 38.0)" stroke-dasharray="20.52022268951192" stroke-dashoffset="20.52022268951192"><animate attributeName="stroke-dashoffset" from="20.52022268951192" to="0" dur="0.6156066806853576s" begin="anim5.end" fill="freeze" id="anim_end" /></path></g></svg>