<?xml version='1.0' encoding='utf-8'?>
<svg viewBox="0.0 -6.0 50.0 50.0" version="1.1" xmlns="http://www.w3.org/2000/svg"><rect x="-1000" y="-1000" width="2000" height="2000" stroke="white" fill="white" /><g style="fill:none;stroke:#000000;stroke-width:1"><path d="M 45.7 -8.1 C 37.1 -12.9 29.6 -23.4 26.6 -32.7 " transform="translate(0.0 38.0)" stroke-dasharray="31.787526510390013" stroke-dashoffset="31.787526510390013"><animate attributeName="stroke-dashoffset" from="31.787526510390013" to="0" dur="0.9536257953117003s" begin="0s; anim_end.end" fill="freeze" id="anim0" /></path><path d="M 13.5 -16.9 C 11.6 -18.9 9.5 -20.5 7.8 -21.6 " transform="translate(0.0 38.0)" stroke-dasharray="7.404539206945532" stroke-dashoffset="7.404539206945532"><animate attributeName="stroke-dashoffset" from="7.404539206945532" to="0" dur="0.22213617620836593s" begin="anim0.end" fill="freeze" id="anim1" /></path><path d="M 4.3 -6.8 C 11.6 -11.8 17.2 -19.5 20.2 -27.1 C 20.9 -29.1 20.0 -30.4 17.7 -30.4 L 8.7 -30.4 " transform="translate(0.0 38.0)" stroke-dasharray="40.28713860306896" stroke-dashoffset="40.28713860306896"><animate attributeName="stroke-dashoffset" from="40.28713860306896" to="0" dur="1.2086141580920688s" begin="anim1.end" fill="freeze" id="anim2" /></path><path d="M 35.1 -17.4 C 37.8 -18.9 40.5 -20.9 43.0 -23.2 " transform="translate(0.0 38.0)" stroke-dasharray="9.822932759828017" stroke-dashoffset="9.822932759828017"><animate attributeName="stroke-dashoffset" from="9.822932759828017" to="0" dur="0.2946879827948405s" begin="anim2.end" fill="freeze" id="anim3" /></path><path d="M 30.4 -24.1 C 33.0 -25.7 35.5 -27.6 38.0 -30.0" transform="translate(0.0 38.0)" stroke-dasharray="9.639977807587218" stroke-dashoffset="9.639977807587218"><animate attributeName="stroke-dashoffset" from="9.639977807587218" to="0" dur="0.28919933422761657s" begin="anim3.end" fill="freeze" id="anim_end" /></path></g></svg>