<?xml version='1.0' encoding='utf-8'?>
<svg viewBox="0.0 -6.0 50.0 50.0" version="1.1" xmlns="http://www.w3.org/2000/svg"><rect x="-1000" y="-1000" width="2000" height="2000" stroke="white" fill="white" /><g style="fill:none;stroke:#000000;stroke-width:1"><path d="M 7.8 -28.7 L 7.8 -25.9 C 7.8 -23.6 8.8 -23.0 11.4 -23.0 L 38.8 -23.0 C 41.4 -23.0 42.4 -23.6 42.4 -25.9 L 42.4 -28.7 " transform="translate(0.0 38.0)" stroke-dasharray="43.86357075706829" stroke-dashoffset="43.86357075706829"><animate attributeName="stroke-dashoffset" from="43.86357075706829" to="0" dur="1.3159071227120487s" begin="0s; 15s; 30s; 45s" fill="freeze" id="anim0" /></path><path d="M 5.7 1.4 C 9.1 -0.2 12.3 -2.4 14.9 -4.8 " transform="translate(0.0 38.0)" stroke-dasharray="11.13612228127594" stroke-dashoffset="11.13612228127594"><animate attributeName="stroke-dashoffset" from="11.13612228127594" to="0" dur="0.3340836684382782s" begin="anim0.end" fill="freeze" id="anim1" /></path><path d="M 19.4 2.2 C 20.3 2.5 21.1 2.5 21.9 2.5 C 24.1 2.5 25.1 1.8 25.1 -0.6 L 25.1 -10.4 " transform="translate(0.0 38.0)" stroke-dasharray="17.54397183950346" stroke-dashoffset="17.54397183950346"><animate attributeName="stroke-dashoffset" from="17.54397183950346" to="0" dur="0.5263191551851037s" begin="anim1.end" fill="freeze" id="anim2" /></path><path d="M 46.0 -10.0 L 4.0 -10.0 " transform="translate(0.0 38.0)" stroke-dasharray="42.0" stroke-dashoffset="42.0"><animate attributeName="stroke-dashoffset" from="42.0" to="0" dur="1.26s" begin="anim2.end" fill="freeze" id="anim3" /></path><path d="M 43.8 0.8 C 40.5 -0.8 37.2 -2.9 34.8 -5.0 " transform="translate(0.0 38.0)" stroke-dasharray="10.736508728927747" stroke-dashoffset="10.736508728927747"><animate attributeName="stroke-dashoffset" from="10.736508728927747" to="0" dur="0.3220952618678324s" begin="anim3.end" fill="freeze" id="anim4" /></path><path d="M 39.9 -16.4 L 10.3 -16.4 " transform="translate(0.0 38.0)" stroke-dasharray="29.599999999999998" stroke-dashoffset="29.599999999999998"><animate attributeName="stroke-dashoffset" from="29.599999999999998" to="0" dur="0.8879999999999999s" begin="anim4.end" fill="freeze" id="anim5" /></path><path d="M 24.9 -22.9 L 24.9 -40.4 " transform="translate(0.0 38.0)" stroke-dasharray="17.5" stroke-dashoffset="17.5"><animate attributeName="stroke-dashoffset" from="17.5" to="0" dur="0.525s" begin="anim5.end" fill="freeze" id="anim6" /></path><path d="M 10.8 -38.9 L 10.8 -36.1 C 10.8 -33.9 11.8 -33.1 14.4 -33.1 L 35.8 -33.1 C 38.5 -33.1 39.4 -33.9 39.4 -36.1 L 39.4 -38.9" transform="translate(0.0 38.0)" stroke-dasharray="37.94889031818186" stroke-dashoffset="37.94889031818186"><animate attributeName="stroke-dashoffset" from="37.94889031818186" to="0" dur="1.1384667095454557s" begin="anim6.end" fill="freeze" id="anim_end" /></path></g></svg>