<?xml version='1.0' encoding='utf-8'?>
<svg viewBox="0.0 -6.0 50.0 50.0" version="1.1" xmlns="http://www.w3.org/2000/svg"><rect x="-1000" y="-1000" width="2000" height="2000" stroke="white" fill="white" /><g style="fill:none;stroke:#000000;stroke-width:1"><path d="M 4.0 -0.1 C 8.0 -6.2 10.2 -13.6 10.2 -24.4 L 10.2 -32.6 C 10.2 -35.1 11.3 -36.2 14.5 -36.2 L 46.4 -36.2 " transform="translate(0.0 38.0)" stroke-dasharray="72.07688412624914" stroke-dashoffset="72.07688412624914"><animate attributeName="stroke-dashoffset" from="72.07688412624914" to="0" dur="2.1623065237874743s" begin="0s; 15s; 30s; 45s" fill="freeze" id="anim0" /></path><path d="M 11.9 -1.2 C 14.9 -4.1 17.4 -7.5 19.4 -11.2 " transform="translate(0.0 38.0)" stroke-dasharray="12.549138846780979" stroke-dashoffset="12.549138846780979"><animate attributeName="stroke-dashoffset" from="12.549138846780979" to="0" dur="0.3764741654034294s" begin="anim0.end" fill="freeze" id="anim1" /></path><path d="M 3.3 -14.2 C 5.7 -15.2 8.1 -16.6 10.5 -18.4 " transform="translate(0.0 38.0)" stroke-dasharray="8.356966382479234" stroke-dashoffset="8.356966382479234"><animate attributeName="stroke-dashoffset" from="8.356966382479234" to="0" dur="0.25070899147437703s" begin="anim1.end" fill="freeze" id="anim2" /></path><path d="M 26.9 -5.2 C 25.4 -6.3 23.8 -7.3 21.7 -8.3 " transform="translate(0.0 38.0)" stroke-dasharray="6.063408713439728" stroke-dashoffset="6.063408713439728"><animate attributeName="stroke-dashoffset" from="6.063408713439728" to="0" dur="0.18190226140319182s" begin="anim2.end" fill="freeze" id="anim3" /></path><path d="M 29.1 2.0 C 30.9 1.2 32.9 0.1 34.6 -1.2 " transform="translate(0.0 38.0)" stroke-dasharray="6.377148647655893" stroke-dashoffset="6.377148647655893"><animate attributeName="stroke-dashoffset" from="6.377148647655893" to="0" dur="0.1913144594296768s" begin="anim3.end" fill="freeze" id="anim4" /></path><path d="M 6.8 -25.9 C 6.0 -27.1 4.9 -28.3 4.0 -29.1 " transform="translate(0.0 38.0)" stroke-dasharray="4.262507199008279" stroke-dashoffset="4.262507199008279"><animate attributeName="stroke-dashoffset" from="4.262507199008279" to="0" dur="0.12787521597024834s" begin="anim4.end" fill="freeze" id="anim5" /></path><path d="M 20.9 2.9 L 20.9 -32.0 " transform="translate(0.0 38.0)" stroke-dasharray="34.9" stroke-dashoffset="34.9"><animate attributeName="stroke-dashoffset" from="34.9" to="0" dur="1.047s" begin="anim5.end" fill="freeze" id="anim6" /></path><path d="M 26.8 -15.7 L 26.8 -19.3 C 26.8 -20.9 26.0 -21.6 23.9 -21.6 L 18.0 -21.6 C 15.9 -21.6 15.1 -20.9 15.1 -19.3 L 15.1 -15.7 C 15.1 -14.1 15.9 -13.4 18.0 -13.4 L 23.9 -13.4 C 26.0 -13.4 26.8 -14.1 26.8 -15.7 Z " transform="translate(0.0 38.0)" stroke-dasharray="36.141356191162494" stroke-dashoffset="36.141356191162494"><animate attributeName="stroke-dashoffset" from="36.141356191162494" to="0" dur="1.0842406857348748s" begin="anim6.end" fill="freeze" id="anim7" /></path><path d="M 46.2 1.6 C 44.5 0.8 42.8 -0.2 41.5 -1.2 " transform="translate(0.0 38.0)" stroke-dasharray="5.480745420090958" stroke-dashoffset="5.480745420090958"><animate attributeName="stroke-dashoffset" from="5.480745420090958" to="0" dur="0.16442236260272874s" begin="anim7.end" fill="freeze" id="anim8" /></path><path d="M 43.7 -9.8 L 33.4 -9.8 " transform="translate(0.0 38.0)" stroke-dasharray="10.300000000000004" stroke-dashoffset="10.300000000000004"><animate attributeName="stroke-dashoffset" from="10.300000000000004" to="0" dur="0.3090000000000001s" begin="anim8.end" fill="freeze" id="anim9" /></path><path d="M 27.2 -27.6 L 14.3 -27.6 " transform="translate(0.0 38.0)" stroke-dasharray="12.899999999999999" stroke-dashoffset="12.899999999999999"><animate attributeName="stroke-dashoffset" from="12.899999999999999" to="0" dur="0.38699999999999996s" begin="anim9.end" fill="freeze" id="anim10" /></path><path d="M 35.7 -4.8 L 41.5 -4.8 C 43.7 -4.8 44.5 -5.5 44.5 -7.2 L 44.5 -17.4 C 44.5 -19.1 43.7 -19.9 41.5 -19.9 L 35.7 -19.9 C 33.5 -19.9 32.6 -19.1 32.6 -17.4 L 32.6 -7.2 C 32.6 -5.5 33.5 -4.8 35.7 -4.8 Z " transform="translate(0.0 38.0)" stroke-dasharray="50.114803825978626" stroke-dashoffset="50.114803825978626"><animate attributeName="stroke-dashoffset" from="50.114803825978626" to="0" dur="1.5034441147793587s" begin="anim10.end" fill="freeze" id="anim11" /></path><path d="M 43.7 -14.8 L 33.4 -14.8 " transform="translate(0.0 38.0)" stroke-dasharray="10.300000000000004" stroke-dashoffset="10.300000000000004"><animate attributeName="stroke-dashoffset" from="10.300000000000004" to="0" dur="0.3090000000000001s" begin="anim11.end" fill="freeze" id="anim12" /></path><path d="M 31.0 -22.9 C 33.9 -24.6 35.9 -27.3 36.5 -30.4 " transform="translate(0.0 38.0)" stroke-dasharray="9.587798923844119" stroke-dashoffset="9.587798923844119"><animate attributeName="stroke-dashoffset" from="9.587798923844119" to="0" dur="0.28763396771532357s" begin="anim12.end" fill="freeze" id="anim13" /></path><path d="M 39.2 -24.1 C 40.0 -23.9 40.6 -23.8 41.4 -23.8 C 43.0 -23.8 43.9 -24.6 44.2 -25.9 C 44.5 -26.8 44.6 -27.4 44.7 -28.6 C 44.8 -30.0 44.0 -30.6 42.0 -30.6 L 31.4 -30.6 " transform="translate(0.0 38.0)" stroke-dasharray="23.338436666148674" stroke-dashoffset="23.338436666148674"><animate attributeName="stroke-dashoffset" from="23.338436666148674" to="0" dur="0.7001530999844602s" begin="anim13.end" fill="freeze" id="anim14" /></path><path d="M 28.1 -36.2 L 28.1 -41.4" transform="translate(0.0 38.0)" stroke-dasharray="5.199999999999996" stroke-dashoffset="5.199999999999996"><animate attributeName="stroke-dashoffset" from="5.199999999999996" to="0" dur="0.15599999999999986s" begin="anim14.end" fill="freeze" id="anim_end" /></path></g></svg>