<?xml version='1.0' encoding='utf-8'?>
<svg viewBox="0.0 -6.0 50.0 50.0" version="1.1" xmlns="http://www.w3.org/2000/svg"><rect x="-1000" y="-1000" width="2000" height="2000" stroke="white" fill="white" /><g style="fill:none;stroke:#000000;stroke-width:1"><path d="M 5.9 1.6 C 10.1 -2.9 12.3 -9.4 12.3 -18.9 L 12.3 -31.1 " transform="translate(0.0 38.0)" stroke-dasharray="34.203006752848665" stroke-dashoffset="34.203006752848665"><animate attributeName="stroke-dashoffset" from="34.203006752848665" to="0" dur="1.02609020258546s" begin="0s; 15s; 30s; 45s" fill="freeze" id="anim0" /></path><path d="M 3.7 -11.0 C 8.1 -11.6 14.9 -13.2 18.8 -14.5 " transform="translate(0.0 38.0)" stroke-dasharray="15.516840686154138" stroke-dashoffset="15.516840686154138"><animate attributeName="stroke-dashoffset" from="15.516840686154138" to="0" dur="0.4655052205846241s" begin="anim0.end" fill="freeze" id="anim1" /></path><path d="M 18.2 -22.4 L 6.0 -22.4 " transform="translate(0.0 38.0)" stroke-dasharray="12.2" stroke-dashoffset="12.2"><animate attributeName="stroke-dashoffset" from="12.2" to="0" dur="0.366s" begin="anim1.end" fill="freeze" id="anim2" /></path><path d="M 32.2 2.5 L 32.2 -15.2 " transform="translate(0.0 38.0)" stroke-dasharray="17.7" stroke-dashoffset="17.7"><animate attributeName="stroke-dashoffset" from="17.7" to="0" dur="0.5309999999999999s" begin="anim2.end" fill="freeze" id="anim3" /></path><path d="M 37.8 -3.8 C 38.5 -3.6 39.1 -3.5 39.9 -3.5 C 42.0 -3.5 43.0 -4.3 43.0 -6.7 L 43.0 -12.8 C 43.0 -14.7 42.0 -15.7 39.5 -15.7 L 23.8 -15.7 " transform="translate(0.0 38.0)" stroke-dasharray="34.346796366568704" stroke-dashoffset="34.346796366568704"><animate attributeName="stroke-dashoffset" from="34.346796366568704" to="0" dur="1.030403890997061s" begin="anim3.end" fill="freeze" id="anim4" /></path><path d="M 20.4 -31.2 L 4.3 -31.2 " transform="translate(0.0 38.0)" stroke-dasharray="16.099999999999998" stroke-dashoffset="16.099999999999998"><animate attributeName="stroke-dashoffset" from="16.099999999999998" to="0" dur="0.48299999999999993s" begin="anim4.end" fill="freeze" id="anim5" /></path><path d="M 8.6 -36.0 C 8.2 -37.0 7.4 -38.5 6.9 -39.4 " transform="translate(0.0 38.0)" stroke-dasharray="3.8033448241949457" stroke-dashoffset="3.8033448241949457"><animate attributeName="stroke-dashoffset" from="3.8033448241949457" to="0" dur="0.11410034472584836s" begin="anim5.end" fill="freeze" id="anim6" /></path><path d="M 14.1 -32.0 C 15.3 -34.1 16.4 -37.0 17.4 -39.6 " transform="translate(0.0 38.0)" stroke-dasharray="8.293081333502963" stroke-dashoffset="8.293081333502963"><animate attributeName="stroke-dashoffset" from="8.293081333502963" to="0" dur="0.24879244000508888s" begin="anim6.end" fill="freeze" id="anim7" /></path><path d="M 38.9 -23.4 L 29.1 -23.4 " transform="translate(0.0 38.0)" stroke-dasharray="9.799999999999997" stroke-dashoffset="9.799999999999997"><animate attributeName="stroke-dashoffset" from="9.799999999999997" to="0" dur="0.29399999999999993s" begin="anim7.end" fill="freeze" id="anim8" /></path><path d="M 22.4 -23.6 C 26.8 -27.6 31.1 -33.7 33.6 -39.5 " transform="translate(0.0 38.0)" stroke-dasharray="19.581336004526804" stroke-dashoffset="19.581336004526804"><animate attributeName="stroke-dashoffset" from="19.581336004526804" to="0" dur="0.5874400801358041s" begin="anim8.end" fill="freeze" id="anim9" /></path><path d="M 46.3 -24.6 C 41.6 -28.1 36.8 -33.5 33.6 -38.7" transform="translate(0.0 38.0)" stroke-dasharray="19.079121867492024" stroke-dashoffset="19.079121867492024"><animate attributeName="stroke-dashoffset" from="19.079121867492024" to="0" dur="0.5723736560247606s" begin="anim9.end" fill="freeze" id="anim_end" /></path></g></svg>