<?xml version='1.0' encoding='utf-8'?>
<svg viewBox="0.0 -6.0 50.0 50.0" version="1.1" xmlns="http://www.w3.org/2000/svg"><rect x="-1000" y="-1000" width="2000" height="2000" stroke="white" fill="white" /><g style="fill:none;stroke:#000000;stroke-width:1"><path d="M 19.5 2.1 L 19.5 -35.4 C 19.5 -37.6 20.4 -38.5 22.6 -38.5 L 26.1 -38.5 C 28.2 -38.5 29.2 -37.6 29.2 -35.4 L 29.2 -30.2 C 29.2 -28.1 28.2 -27.2 26.1 -27.2 L 20.2 -27.2 " transform="translate(0.0 38.0)" stroke-dasharray="67.25275185034157" stroke-dashoffset="67.25275185034157"><animate attributeName="stroke-dashoffset" from="67.25275185034157" to="0" dur="2.017582555510247s" begin="0s; 15s; 30s; 45s" fill="freeze" id="anim0" /></path><path d="M 14.3 -5.0 C 13.0 -7.1 11.1 -9.4 8.9 -11.4 " transform="translate(0.0 38.0)" stroke-dasharray="8.399479418640697" stroke-dashoffset="8.399479418640697"><animate attributeName="stroke-dashoffset" from="8.399479418640697" to="0" dur="0.2519843825592209s" begin="anim0.end" fill="freeze" id="anim1" /></path><path d="M 3.2 0.8 C 7.2 -4.8 9.3 -13.2 9.3 -24.7 L 9.3 -40.2 " transform="translate(0.0 38.0)" stroke-dasharray="42.12542223282722" stroke-dashoffset="42.12542223282722"><animate attributeName="stroke-dashoffset" from="42.12542223282722" to="0" dur="1.2637626669848165s" begin="anim1.end" fill="freeze" id="anim2" /></path><path d="M 3.1 -21.9 C 3.8 -23.6 4.4 -26.4 4.8 -28.9 " transform="translate(0.0 38.0)" stroke-dasharray="7.216610757732516" stroke-dashoffset="7.216610757732516"><animate attributeName="stroke-dashoffset" from="7.216610757732516" to="0" dur="0.21649832273197547s" begin="anim2.end" fill="freeze" id="anim3" /></path><path d="M 28.6 -8.2 L 19.6 -8.2 " transform="translate(0.0 38.0)" stroke-dasharray="9.0" stroke-dashoffset="9.0"><animate attributeName="stroke-dashoffset" from="9.0" to="0" dur="0.27s" begin="anim3.end" fill="freeze" id="anim4" /></path><path d="M 10.2 -24.9 C 12.2 -26.6 13.8 -28.7 14.9 -30.6 " transform="translate(0.0 38.0)" stroke-dasharray="7.422615129461467" stroke-dashoffset="7.422615129461467"><animate attributeName="stroke-dashoffset" from="7.422615129461467" to="0" dur="0.222678453883844s" begin="anim4.end" fill="freeze" id="anim5" /></path><path d="M 28.2 -17.7 L 19.6 -17.7 " transform="translate(0.0 38.0)" stroke-dasharray="8.599999999999998" stroke-dashoffset="8.599999999999998"><animate attributeName="stroke-dashoffset" from="8.599999999999998" to="0" dur="0.25799999999999995s" begin="anim5.end" fill="freeze" id="anim6" /></path><path d="M 29.1 1.3 C 36.5 -2.2 42.3 -8.6 44.4 -16.1 C 45.0 -18.2 43.9 -19.3 41.8 -19.3 L 32.7 -19.3 " transform="translate(0.0 38.0)" stroke-dasharray="38.01346714015493" stroke-dashoffset="38.01346714015493"><animate attributeName="stroke-dashoffset" from="38.01346714015493" to="0" dur="1.1404040142046479s" begin="anim6.end" fill="freeze" id="anim7" /></path><path d="M 46.0 0.7 C 40.1 -3.7 36.2 -10.0 35.0 -18.6 " transform="translate(0.0 38.0)" stroke-dasharray="22.84172080536266" stroke-dashoffset="22.84172080536266"><animate attributeName="stroke-dashoffset" from="22.84172080536266" to="0" dur="0.6852516241608797s" begin="anim7.end" fill="freeze" id="anim8" /></path><path d="M 34.9 -27.2 L 41.1 -27.2 C 43.2 -27.2 44.1 -28.1 44.1 -30.2 L 44.1 -35.5 C 44.1 -37.6 43.2 -38.4 41.1 -38.4 L 34.9 -38.4" transform="translate(0.0 38.0)" stroke-dasharray="27.472062172474793" stroke-dashoffset="27.472062172474793"><animate attributeName="stroke-dashoffset" from="27.472062172474793" to="0" dur="0.8241618651742437s" begin="anim8.end" fill="freeze" id="anim_end" /></path></g></svg>