<?xml version='1.0' encoding='utf-8'?>
<svg viewBox="0.0 -6.0 50.0 50.0" version="1.1" xmlns="http://www.w3.org/2000/svg"><rect x="-1000" y="-1000" width="2000" height="2000" stroke="white" fill="white" /><g style="fill:none;stroke:#000000;stroke-width:1"><path d="M 25.0 2.1 C 33.5 -4.3 39.3 -15.3 41.5 -28.0 C 42.0 -30.6 41.1 -31.5 38.7 -31.5 L 32.5 -31.5 " transform="translate(0.0 38.0)" stroke-dasharray="46.84880620205668" stroke-dashoffset="46.84880620205668"><animate attributeName="stroke-dashoffset" from="46.84880620205668" to="0" dur="1.4054641860617003s" begin="0s; anim_end.end" fill="freeze" id="anim0" /></path><path d="M 9.9 -0.8 L 18.9 -0.8 C 21.4 -0.8 22.5 -1.7 22.5 -4.3 L 22.5 -22.4 C 22.5 -25.0 21.4 -25.9 18.9 -25.9 L 9.9 -25.9 C 7.3 -25.9 6.3 -25.0 6.3 -22.4 L 6.3 -4.3 C 6.3 -1.7 7.3 -0.8 9.9 -0.8 Z " transform="translate(0.0 38.0)" stroke-dasharray="77.66057167575032" stroke-dashoffset="77.66057167575032"><animate attributeName="stroke-dashoffset" from="77.66057167575032" to="0" dur="2.3298171502725094s" begin="anim0.end" fill="freeze" id="anim1" /></path><path d="M 14.3 -1.9 L 14.3 -25.4 " transform="translate(0.0 38.0)" stroke-dasharray="23.5" stroke-dashoffset="23.5"><animate attributeName="stroke-dashoffset" from="23.5" to="0" dur="0.705s" begin="anim1.end" fill="freeze" id="anim2" /></path><path d="M 22.1 -14.2 L 7.2 -14.2 " transform="translate(0.0 38.0)" stroke-dasharray="14.900000000000002" stroke-dashoffset="14.900000000000002"><animate attributeName="stroke-dashoffset" from="14.900000000000002" to="0" dur="0.44700000000000006s" begin="anim2.end" fill="freeze" id="anim3" /></path><path d="M 25.2 -33.5 L 3.9 -33.5 " transform="translate(0.0 38.0)" stroke-dasharray="21.3" stroke-dashoffset="21.3"><animate attributeName="stroke-dashoffset" from="21.3" to="0" dur="0.639s" begin="anim3.end" fill="freeze" id="anim4" /></path><path d="M 14.2 -34.1 L 14.2 -40.0 " transform="translate(0.0 38.0)" stroke-dasharray="5.899999999999999" stroke-dashoffset="5.899999999999999"><animate attributeName="stroke-dashoffset" from="5.899999999999999" to="0" dur="0.17699999999999996s" begin="anim4.end" fill="freeze" id="anim5" /></path><path d="M 46.6 0.7 C 43.2 -5.0 40.5 -13.4 39.6 -21.4 " transform="translate(0.0 38.0)" stroke-dasharray="23.33965624963642" stroke-dashoffset="23.33965624963642"><animate attributeName="stroke-dashoffset" from="23.33965624963642" to="0" dur="0.7001896874890926s" begin="anim5.end" fill="freeze" id="anim6" /></path><path d="M 28.4 -22.4 C 31.4 -26.9 34.0 -34.0 35.2 -40.1" transform="translate(0.0 38.0)" stroke-dasharray="19.066266709570062" stroke-dashoffset="19.066266709570062"><animate attributeName="stroke-dashoffset" from="19.066266709570062" to="0" dur="0.5719880012871018s" begin="anim6.end" fill="freeze" id="anim_end" /></path></g></svg>