<?xml version='1.0' encoding='utf-8'?>
<svg viewBox="0.0 -6.0 50.0 50.0" version="1.1" xmlns="http://www.w3.org/2000/svg"><rect x="-1000" y="-1000" width="2000" height="2000" stroke="white" fill="white" /><g style="fill:none;stroke:#000000;stroke-width:1"><path d="M 26.1 0.7 L 40.0 0.7 C 43.3 0.7 44.5 -0.6 44.5 -3.3 L 44.5 -33.9 C 44.5 -36.5 43.3 -37.9 40.0 -37.9 L 26.1 -37.9 C 22.8 -37.9 21.6 -36.5 21.6 -33.9 L 21.6 -3.3 C 21.6 -0.6 22.8 0.7 26.1 0.7 Z " transform="translate(0.0 38.0)" stroke-dasharray="116.87428374595284" stroke-dashoffset="116.87428374595284"><animate attributeName="stroke-dashoffset" from="116.87428374595284" to="0" dur="3.506228512378585s" begin="0s; 15s; 30s; 45s" fill="freeze" id="anim0" /></path><path d="M 15.7 -4.1 C 14.3 -6.3 12.3 -8.8 10.1 -10.9 " transform="translate(0.0 38.0)" stroke-dasharray="8.829200835328791" stroke-dashoffset="8.829200835328791"><animate attributeName="stroke-dashoffset" from="8.829200835328791" to="0" dur="0.26487602505986374s" begin="anim0.end" fill="freeze" id="anim1" /></path><path d="M 3.8 1.0 C 8.2 -4.5 10.7 -13.3 10.7 -25.3 L 10.7 -40.0 " transform="translate(0.0 38.0)" stroke-dasharray="42.38386076132721" stroke-dashoffset="42.38386076132721"><animate attributeName="stroke-dashoffset" from="42.38386076132721" to="0" dur="1.2715158228398165s" begin="anim1.end" fill="freeze" id="anim2" /></path><path d="M 3.9 -21.4 C 4.6 -23.2 5.3 -26.1 5.7 -28.7 " transform="translate(0.0 38.0)" stroke-dasharray="7.5309464222242966" stroke-dashoffset="7.5309464222242966"><animate attributeName="stroke-dashoffset" from="7.5309464222242966" to="0" dur="0.2259283926667289s" begin="anim2.end" fill="freeze" id="anim3" /></path><path d="M 11.4 -23.9 C 13.7 -26.0 15.5 -28.1 16.8 -30.4 " transform="translate(0.0 38.0)" stroke-dasharray="8.486200137174059" stroke-dashoffset="8.486200137174059"><animate attributeName="stroke-dashoffset" from="8.486200137174059" to="0" dur="0.25458600411522175s" begin="anim3.end" fill="freeze" id="anim4" /></path><path d="M 26.8 -6.3 C 30.6 -11.2 32.8 -18.1 32.8 -25.7 L 32.8 -32.1 " transform="translate(0.0 38.0)" stroke-dasharray="27.070041186510526" stroke-dashoffset="27.070041186510526"><animate attributeName="stroke-dashoffset" from="27.070041186510526" to="0" dur="0.8121012355953158s" begin="anim4.end" fill="freeze" id="anim5" /></path><path d="M 38.9 -8.1 C 37.4 -11.2 34.9 -15.3 32.5 -18.4 " transform="translate(0.0 38.0)" stroke-dasharray="12.145216796465881" stroke-dashoffset="12.145216796465881"><animate attributeName="stroke-dashoffset" from="12.145216796465881" to="0" dur="0.36435650389397645s" begin="anim5.end" fill="freeze" id="anim6" /></path><path d="M 39.6 -24.3 L 26.4 -24.3" transform="translate(0.0 38.0)" stroke-dasharray="13.200000000000003" stroke-dashoffset="13.200000000000003"><animate attributeName="stroke-dashoffset" from="13.200000000000003" to="0" dur="0.3960000000000001s" begin="anim6.end" fill="freeze" id="anim_end" /></path></g></svg>