<?xml version='1.0' encoding='utf-8'?>
<svg viewBox="0.0 -6.0 50.0 50.0" version="1.1" xmlns="http://www.w3.org/2000/svg"><rect x="-1000" y="-1000" width="2000" height="2000" stroke="white" fill="white" /><g style="fill:none;stroke:#000000;stroke-width:1"><path d="M 35.2 0.8 C 36.4 1.1 37.6 1.4 39.0 1.4 C 42.0 1.4 43.0 0.1 43.0 -2.6 L 43.0 -32.6 C 43.0 -36.3 41.8 -37.7 37.9 -37.7 L 12.2 -37.7 C 8.4 -37.7 7.1 -36.3 7.1 -32.6 L 7.1 1.5 " transform="translate(0.0 38.0)" stroke-dasharray="117.16712989928713" stroke-dashoffset="117.16712989928713"><animate attributeName="stroke-dashoffset" from="117.16712989928713" to="0" dur="3.5150138969786138s" begin="0s; 15s; 30s; 45s" fill="freeze" id="anim0" /></path><path d="M 34.7 -6.3 C 31.1 -5.7 27.8 -5.3 24.1 -5.3 C 17.4 -5.3 16.1 -6.2 16.1 -9.0 L 16.1 -13.9 C 16.1 -15.8 17.0 -16.9 19.6 -16.9 L 35.2 -16.9 " transform="translate(0.0 38.0)" stroke-dasharray="46.558476066219136" stroke-dashoffset="46.558476066219136"><animate attributeName="stroke-dashoffset" from="46.558476066219136" to="0" dur="1.396754281986574s" begin="anim0.end" fill="freeze" id="anim1" /></path><path d="M 24.9 -17.0 L 24.9 -21.1 " transform="translate(0.0 38.0)" stroke-dasharray="4.100000000000001" stroke-dashoffset="4.100000000000001"><animate attributeName="stroke-dashoffset" from="4.100000000000001" to="0" dur="0.12300000000000004s" begin="anim1.end" fill="freeze" id="anim2" /></path><path d="M 20.4 -29.5 C 19.8 -30.6 18.9 -31.9 17.9 -33.1 " transform="translate(0.0 38.0)" stroke-dasharray="4.389368309790788" stroke-dashoffset="4.389368309790788"><animate attributeName="stroke-dashoffset" from="4.389368309790788" to="0" dur="0.13168104929372362s" begin="anim2.end" fill="freeze" id="anim3" /></path><path d="M 37.7 -25.3 L 12.8 -25.3 " transform="translate(0.0 38.0)" stroke-dasharray="24.900000000000002" stroke-dashoffset="24.900000000000002"><animate attributeName="stroke-dashoffset" from="24.900000000000002" to="0" dur="0.747s" begin="anim3.end" fill="freeze" id="anim4" /></path><path d="M 27.9 -26.4 C 29.3 -28.4 30.7 -31.0 31.6 -33.2" transform="translate(0.0 38.0)" stroke-dasharray="7.7557018361748735" stroke-dashoffset="7.7557018361748735"><animate attributeName="stroke-dashoffset" from="7.7557018361748735" to="0" dur="0.2326710550852462s" begin="anim4.end" fill="freeze" id="anim_end" /></path></g></svg>