<?xml version='1.0' encoding='utf-8'?>
<svg viewBox="0.0 -6.0 50.0 50.0" version="1.1" xmlns="http://www.w3.org/2000/svg"><rect x="-1000" y="-1000" width="2000" height="2000" stroke="white" fill="white" /><g style="fill:none;stroke:#000000;stroke-width:1"><path d="M 45.4 -3.2 C 44.9 0.8 43.5 1.8 34.3 1.8 C 26.0 1.8 24.8 1.1 24.8 -1.2 L 24.8 -20.2 " transform="translate(0.0 38.0)" stroke-dasharray="43.82757605583191" stroke-dashoffset="43.82757605583191"><animate attributeName="stroke-dashoffset" from="43.82757605583191" to="0" dur="1.3148272816749573s" begin="0s; 15s; 30s; 45s" fill="freeze" id="anim0" /></path><path d="M 3.8 -12.9 C 11.0 -16.3 18.4 -22.4 22.5 -28.8 " transform="translate(0.0 38.0)" stroke-dasharray="24.83510762862741" stroke-dashoffset="24.83510762862741"><animate attributeName="stroke-dashoffset" from="24.83510762862741" to="0" dur="0.7450532288588222s" begin="anim0.end" fill="freeze" id="anim1" /></path><path d="M 16.6 -4.5 L 33.6 -4.5 C 36.5 -4.5 37.4 -5.3 37.4 -7.2 L 37.4 -13.8 C 37.4 -15.6 36.5 -16.4 33.6 -16.4 L 16.6 -16.4 C 13.8 -16.4 12.8 -15.6 12.8 -13.8 L 12.8 -7.2 C 12.8 -5.3 13.8 -4.5 16.6 -4.5 Z " transform="translate(0.0 38.0)" stroke-dasharray="68.62215956572635" stroke-dashoffset="68.62215956572635"><animate attributeName="stroke-dashoffset" from="68.62215956572635" to="0" dur="2.0586647869717902s" begin="anim1.end" fill="freeze" id="anim2" /></path><path d="M 38.0 -10.6 L 13.3 -10.6 " transform="translate(0.0 38.0)" stroke-dasharray="24.7" stroke-dashoffset="24.7"><animate attributeName="stroke-dashoffset" from="24.7" to="0" dur="0.741s" begin="anim2.end" fill="freeze" id="anim3" /></path><path d="M 45.4 -24.8 L 4.5 -24.8 " transform="translate(0.0 38.0)" stroke-dasharray="40.9" stroke-dashoffset="40.9"><animate attributeName="stroke-dashoffset" from="40.9" to="0" dur="1.2269999999999999s" begin="anim3.end" fill="freeze" id="anim4" /></path><path d="M 19.3 -31.5 L 19.3 -38.9 " transform="translate(0.0 38.0)" stroke-dasharray="7.399999999999999" stroke-dashoffset="7.399999999999999"><animate attributeName="stroke-dashoffset" from="7.399999999999999" to="0" dur="0.22199999999999995s" begin="anim4.end" fill="freeze" id="anim5" /></path><path d="M 46.0 -14.3 C 40.9 -16.1 34.5 -20.2 30.8 -24.6 " transform="translate(0.0 38.0)" stroke-dasharray="18.54518098094442" stroke-dashoffset="18.54518098094442"><animate attributeName="stroke-dashoffset" from="18.54518098094442" to="0" dur="0.5563554294283326s" begin="anim5.end" fill="freeze" id="anim6" /></path><path d="M 11.9 -31.7 L 38.5 -31.7 C 40.9 -31.7 41.6 -32.5 41.6 -34.0 L 41.6 -36.9 C 41.6 -38.5 40.9 -39.1 38.5 -39.1 L 11.9 -39.1 C 9.4 -39.1 8.7 -38.5 8.7 -36.9 L 8.7 -34.0 C 8.7 -32.5 9.4 -31.7 11.9 -31.7 Z " transform="translate(0.0 38.0)" stroke-dasharray="76.97693742478256" stroke-dashoffset="76.97693742478256"><animate attributeName="stroke-dashoffset" from="76.97693742478256" to="0" dur="2.309308122743477s" begin="anim6.end" fill="freeze" id="anim7" /></path><path d="M 30.2 -31.5 L 30.2 -38.9" transform="translate(0.0 38.0)" stroke-dasharray="7.399999999999999" stroke-dashoffset="7.399999999999999"><animate attributeName="stroke-dashoffset" from="7.399999999999999" to="0" dur="0.22199999999999995s" begin="anim7.end" fill="freeze" id="anim_end" /></path></g></svg>