<?xml version='1.0' encoding='utf-8'?>
<svg viewBox="0.0 -6.0 50.0 50.0" version="1.1" xmlns="http://www.w3.org/2000/svg"><rect x="-1000" y="-1000" width="2000" height="2000" stroke="white" fill="white" /><g style="fill:none;stroke:#000000;stroke-width:1"><path d="M 46.6 -4.9 C 46.0 -0.6 44.8 0.7 43.4 0.7 C 42.1 0.7 40.8 -0.7 39.5 -4.1 C 36.5 -12.0 35.0 -21.4 35.0 -36.2 " transform="translate(0.0 38.0)" stroke-dasharray="46.07759873986099" stroke-dashoffset="46.07759873986099"><animate attributeName="stroke-dashoffset" from="46.07759873986099" to="0" dur="1.3823279621958295s" begin="0s; anim_end.end" fill="freeze" id="anim0" /></path><path d="M 10.2 2.5 L 10.2 -20.1 " transform="translate(0.0 38.0)" stroke-dasharray="22.6" stroke-dashoffset="22.6"><animate attributeName="stroke-dashoffset" from="22.6" to="0" dur="0.678s" begin="anim0.end" fill="freeze" id="anim1" /></path><path d="M 19.1 0.8 C 23.9 -0.1 29.4 -1.6 33.5 -3.3 " transform="translate(0.0 38.0)" stroke-dasharray="14.996259496591001" stroke-dashoffset="14.996259496591001"><animate attributeName="stroke-dashoffset" from="14.996259496591001" to="0" dur="0.44988778489773s" begin="anim1.end" fill="freeze" id="anim2" /></path><path d="M 17.1 -14.8 C 15.2 -16.2 13.4 -17.4 11.3 -18.4 " transform="translate(0.0 38.0)" stroke-dasharray="6.837365214927999" stroke-dashoffset="6.837365214927999"><animate attributeName="stroke-dashoffset" from="6.837365214927999" to="0" dur="0.20512095644783995s" begin="anim2.end" fill="freeze" id="anim3" /></path><path d="M 3.4 -13.3 C 8.3 -16.9 13.4 -23.6 15.6 -28.6 C 16.4 -30.5 15.8 -31.6 13.6 -31.6 L 3.8 -31.6 " transform="translate(0.0 38.0)" stroke-dasharray="34.21174712883593" stroke-dashoffset="34.21174712883593"><animate attributeName="stroke-dashoffset" from="34.21174712883593" to="0" dur="1.026352413865078s" begin="anim3.end" fill="freeze" id="anim4" /></path><path d="M 24.1 -0.4 L 24.1 -35.7 " transform="translate(0.0 38.0)" stroke-dasharray="35.300000000000004" stroke-dashoffset="35.300000000000004"><animate attributeName="stroke-dashoffset" from="35.300000000000004" to="0" dur="1.0590000000000002s" begin="anim4.end" fill="freeze" id="anim5" /></path><path d="M 10.2 -31.6 L 10.2 -40.4 " transform="translate(0.0 38.0)" stroke-dasharray="8.799999999999997" stroke-dashoffset="8.799999999999997"><animate attributeName="stroke-dashoffset" from="8.799999999999997" to="0" dur="0.2639999999999999s" begin="anim5.end" fill="freeze" id="anim6" /></path><path d="M 45.1 -22.2 L 24.4 -22.2 " transform="translate(0.0 38.0)" stroke-dasharray="20.700000000000003" stroke-dashoffset="20.700000000000003"><animate attributeName="stroke-dashoffset" from="20.700000000000003" to="0" dur="0.6210000000000001s" begin="anim6.end" fill="freeze" id="anim7" /></path><path d="M 25.4 -35.1 C 30.6 -36.0 37.2 -37.3 41.9 -38.8" transform="translate(0.0 38.0)" stroke-dasharray="16.921417569791718" stroke-dashoffset="16.921417569791718"><animate attributeName="stroke-dashoffset" from="16.921417569791718" to="0" dur="0.5076425270937515s" begin="anim7.end" fill="freeze" id="anim_end" /></path></g></svg>