<?xml version='1.0' encoding='utf-8'?>
<svg viewBox="0.0 -6.0 50.0 50.0" version="1.1" xmlns="http://www.w3.org/2000/svg"><rect x="-1000" y="-1000" width="2000" height="2000" stroke="white" fill="white" /><g style="fill:none;stroke:#000000;stroke-width:1"><path d="M 20.2 2.1 C 28.1 -0.5 32.9 -5.5 33.4 -14.4 " transform="translate(0.0 38.0)" stroke-dasharray="22.699315548500508" stroke-dashoffset="22.699315548500508"><animate attributeName="stroke-dashoffset" from="22.699315548500508" to="0" dur="0.6809794664550152s" begin="0s; 15s; 30s; 45s" fill="freeze" id="anim0" /></path><path d="M 3.2 -2.4 C 4.5 -5.8 5.0 -10.1 5.0 -16.6 L 5.0 -22.9 " transform="translate(0.0 38.0)" stroke-dasharray="20.690327432016144" stroke-dashoffset="20.690327432016144"><animate attributeName="stroke-dashoffset" from="20.690327432016144" to="0" dur="0.6207098229604843s" begin="anim0.end" fill="freeze" id="anim1" /></path><path d="M 10.6 2.7 L 10.6 -29.4 " transform="translate(0.0 38.0)" stroke-dasharray="32.1" stroke-dashoffset="32.1"><animate attributeName="stroke-dashoffset" from="32.1" to="0" dur="0.963s" begin="anim1.end" fill="freeze" id="anim2" /></path><path d="M 16.2 -3.7 L 16.2 -22.9 " transform="translate(0.0 38.0)" stroke-dasharray="19.2" stroke-dashoffset="19.2"><animate attributeName="stroke-dashoffset" from="19.2" to="0" dur="0.576s" begin="anim2.end" fill="freeze" id="anim3" /></path><path d="M 17.2 -29.7 L 3.0 -29.7 " transform="translate(0.0 38.0)" stroke-dasharray="14.2" stroke-dashoffset="14.2"><animate attributeName="stroke-dashoffset" from="14.2" to="0" dur="0.426s" begin="anim3.end" fill="freeze" id="anim4" /></path><path d="M 45.8 1.4 C 40.8 -0.1 36.2 -4.2 33.9 -8.8 " transform="translate(0.0 38.0)" stroke-dasharray="16.08290451215383" stroke-dashoffset="16.08290451215383"><animate attributeName="stroke-dashoffset" from="16.08290451215383" to="0" dur="0.4824871353646149s" begin="anim4.end" fill="freeze" id="anim5" /></path><path d="M 45.1 -10.2 L 22.8 -10.2 " transform="translate(0.0 38.0)" stroke-dasharray="22.3" stroke-dashoffset="22.3"><animate attributeName="stroke-dashoffset" from="22.3" to="0" dur="0.669s" begin="anim5.end" fill="freeze" id="anim6" /></path><path d="M 16.1 -37.8 L 4.4 -37.8 " transform="translate(0.0 38.0)" stroke-dasharray="11.700000000000001" stroke-dashoffset="11.700000000000001"><animate attributeName="stroke-dashoffset" from="11.700000000000001" to="0" dur="0.35100000000000003s" begin="anim6.end" fill="freeze" id="anim7" /></path><path d="M 20.8 -21.6 C 24.1 -21.9 28.2 -22.8 31.5 -23.8 " transform="translate(0.0 38.0)" stroke-dasharray="10.940557686897822" stroke-dashoffset="10.940557686897822"><animate attributeName="stroke-dashoffset" from="10.940557686897822" to="0" dur="0.3282167306069347s" begin="anim7.end" fill="freeze" id="anim8" /></path><path d="M 26.2 -17.1 L 26.2 -40.2 " transform="translate(0.0 38.0)" stroke-dasharray="23.1" stroke-dashoffset="23.1"><animate attributeName="stroke-dashoffset" from="23.1" to="0" dur="0.6930000000000001s" begin="anim8.end" fill="freeze" id="anim9" /></path><path d="M 30.9 -29.4 L 21.6 -29.4 " transform="translate(0.0 38.0)" stroke-dasharray="9.299999999999997" stroke-dashoffset="9.299999999999997"><animate attributeName="stroke-dashoffset" from="9.299999999999997" to="0" dur="0.2789999999999999s" begin="anim9.end" fill="freeze" id="anim10" /></path><path d="M 33.0 -18.8 C 37.0 -22.4 39.1 -27.5 39.2 -35.6 " transform="translate(0.0 38.0)" stroke-dasharray="18.467641196945014" stroke-dashoffset="18.467641196945014"><animate attributeName="stroke-dashoffset" from="18.467641196945014" to="0" dur="0.5540292359083504s" begin="anim10.end" fill="freeze" id="anim11" /></path><path d="M 31.6 -36.0 L 20.6 -36.0 " transform="translate(0.0 38.0)" stroke-dasharray="11.0" stroke-dashoffset="11.0"><animate attributeName="stroke-dashoffset" from="11.0" to="0" dur="0.32999999999999996s" begin="anim11.end" fill="freeze" id="anim12" /></path><path d="M 39.6 -19.4 C 40.2 -19.3 40.8 -19.2 41.5 -19.2 C 43.1 -19.2 44.2 -20.1 44.8 -22.7 C 45.4 -25.9 45.6 -29.9 45.6 -34.0 C 45.6 -35.9 44.9 -36.6 42.9 -36.6 L 35.5 -36.6" transform="translate(0.0 38.0)" stroke-dasharray="30.32394941485028" stroke-dashoffset="30.32394941485028"><animate attributeName="stroke-dashoffset" from="30.32394941485028" to="0" dur="0.9097184824455083s" begin="anim12.end" fill="freeze" id="anim_end" /></path></g></svg>