<?xml version='1.0' encoding='utf-8'?>
<svg viewBox="0.0 -6.0 50.0 50.0" version="1.1" xmlns="http://www.w3.org/2000/svg"><rect x="-1000" y="-1000" width="2000" height="2000" stroke="white" fill="white" /><g style="fill:none;stroke:#000000;stroke-width:1"><path d="M 36.6 1.8 C 37.5 1.9 38.3 2.0 39.1 2.0 C 41.1 2.0 42.1 1.2 42.1 -0.9 L 42.1 -15.6 C 42.1 -17.6 41.2 -18.6 38.5 -18.6 L 28.6 -18.6 C 25.9 -18.6 24.9 -17.6 24.9 -15.6 L 24.9 2.6 " transform="translate(0.0 38.0)" stroke-dasharray="61.073037988197335" stroke-dashoffset="61.073037988197335"><animate attributeName="stroke-dashoffset" from="61.073037988197335" to="0" dur="1.83219113964592s" begin="0s; 15s; 30s; 45s" fill="freeze" id="anim0" /></path><path d="M 2.9 -6.5 C 5.5 -10.2 8.1 -15.7 9.6 -20.9 " transform="translate(0.0 38.0)" stroke-dasharray="15.947069651215164" stroke-dashoffset="15.947069651215164"><animate attributeName="stroke-dashoffset" from="15.947069651215164" to="0" dur="0.4784120895364549s" begin="anim0.end" fill="freeze" id="anim1" /></path><path d="M 17.2 -12.3 C 15.6 -14.0 13.7 -15.6 11.4 -16.8 " transform="translate(0.0 38.0)" stroke-dasharray="7.375813225289922" stroke-dashoffset="7.375813225289922"><animate attributeName="stroke-dashoffset" from="7.375813225289922" to="0" dur="0.22127439675869764s" begin="anim1.end" fill="freeze" id="anim2" /></path><path d="M 10.5 2.8 L 10.5 -40.5 " transform="translate(0.0 38.0)" stroke-dasharray="43.3" stroke-dashoffset="43.3"><animate attributeName="stroke-dashoffset" from="43.3" to="0" dur="1.299s" begin="anim2.end" fill="freeze" id="anim3" /></path><path d="M 16.9 -23.5 L 3.3 -23.5 " transform="translate(0.0 38.0)" stroke-dasharray="13.599999999999998" stroke-dashoffset="13.599999999999998"><animate attributeName="stroke-dashoffset" from="13.599999999999998" to="0" dur="0.4079999999999999s" begin="anim3.end" fill="freeze" id="anim4" /></path><path d="M 5.8 -29.3 C 5.4 -30.9 4.7 -32.9 4.2 -34.2 " transform="translate(0.0 38.0)" stroke-dasharray="5.157373590313908" stroke-dashoffset="5.157373590313908"><animate attributeName="stroke-dashoffset" from="5.157373590313908" to="0" dur="0.15472120770941722s" begin="anim4.end" fill="freeze" id="anim5" /></path><path d="M 41.5 -6.2 L 25.6 -6.2 " transform="translate(0.0 38.0)" stroke-dasharray="15.899999999999999" stroke-dashoffset="15.899999999999999"><animate attributeName="stroke-dashoffset" from="15.899999999999999" to="0" dur="0.4769999999999999s" begin="anim5.end" fill="freeze" id="anim6" /></path><path d="M 41.5 -12.3 L 25.6 -12.3 " transform="translate(0.0 38.0)" stroke-dasharray="15.899999999999999" stroke-dashoffset="15.899999999999999"><animate attributeName="stroke-dashoffset" from="15.899999999999999" to="0" dur="0.4769999999999999s" begin="anim6.end" fill="freeze" id="anim7" /></path><path d="M 15.1 -29.0 C 15.8 -30.4 16.9 -32.7 17.4 -34.6 " transform="translate(0.0 38.0)" stroke-dasharray="6.0636717310809924" stroke-dashoffset="6.0636717310809924"><animate attributeName="stroke-dashoffset" from="6.0636717310809924" to="0" dur="0.18191015193242976s" begin="anim7.end" fill="freeze" id="anim8" /></path><path d="M 46.7 -24.4 L 20.9 -24.4 " transform="translate(0.0 38.0)" stroke-dasharray="25.800000000000004" stroke-dashoffset="25.800000000000004"><animate attributeName="stroke-dashoffset" from="25.800000000000004" to="0" dur="0.7740000000000001s" begin="anim8.end" fill="freeze" id="anim9" /></path><path d="M 42.6 -30.4 L 24.6 -30.4 " transform="translate(0.0 38.0)" stroke-dasharray="18.0" stroke-dashoffset="18.0"><animate attributeName="stroke-dashoffset" from="18.0" to="0" dur="0.54s" begin="anim9.end" fill="freeze" id="anim10" /></path><path d="M 33.2 -24.0 L 33.2 -40.4 " transform="translate(0.0 38.0)" stroke-dasharray="16.4" stroke-dashoffset="16.4"><animate attributeName="stroke-dashoffset" from="16.4" to="0" dur="0.49199999999999994s" begin="anim10.end" fill="freeze" id="anim11" /></path><path d="M 45.0 -36.1 L 22.3 -36.1" transform="translate(0.0 38.0)" stroke-dasharray="22.7" stroke-dashoffset="22.7"><animate attributeName="stroke-dashoffset" from="22.7" to="0" dur="0.6809999999999999s" begin="anim11.end" fill="freeze" id="anim_end" /></path></g></svg>