<?xml version='1.0' encoding='utf-8'?>
<svg viewBox="0.0 -6.0 50.0 50.0" version="1.1" xmlns="http://www.w3.org/2000/svg"><rect x="-1000" y="-1000" width="2000" height="2000" stroke="white" fill="white" /><g style="fill:none;stroke:#000000;stroke-width:1"><path d="M 4.0 -16.2 C 6.5 -19.1 7.8 -23.1 7.8 -27.6 L 7.8 -30.0 C 7.8 -31.8 8.6 -32.4 11.1 -32.4 L 17.9 -32.4 C 20.1 -32.4 21.1 -31.9 21.1 -30.0 L 21.1 -27.7 C 21.1 -25.8 20.1 -25.4 17.8 -25.4 L 8.1 -25.4 " transform="translate(0.0 38.0)" stroke-dasharray="47.60386762208817" stroke-dashoffset="47.60386762208817"><animate attributeName="stroke-dashoffset" from="47.60386762208817" to="0" dur="1.4281160286626449s" begin="0s; anim_end.end" fill="freeze" id="anim0" /></path><path d="M 7.2 1.2 C 10.6 -0.3 14.0 -2.4 16.4 -4.6 " transform="translate(0.0 38.0)" stroke-dasharray="10.920320240935121" stroke-dashoffset="10.920320240935121"><animate attributeName="stroke-dashoffset" from="10.920320240935121" to="0" dur="0.3276096072280536s" begin="anim0.end" fill="freeze" id="anim1" /></path><path d="M 24.8 2.9 L 24.8 -9.0 " transform="translate(0.0 38.0)" stroke-dasharray="11.9" stroke-dashoffset="11.9"><animate attributeName="stroke-dashoffset" from="11.9" to="0" dur="0.357s" begin="anim1.end" fill="freeze" id="anim2" /></path><path d="M 6.7 -8.8 C 16.7 -8.9 29.4 -9.6 40.2 -10.9 " transform="translate(0.0 38.0)" stroke-dasharray="33.580923848951365" stroke-dashoffset="33.580923848951365"><animate attributeName="stroke-dashoffset" from="33.580923848951365" to="0" dur="1.007427715468541s" begin="anim2.end" fill="freeze" id="anim3" /></path><path d="M 24.1 -11.3 C 21.3 -13.8 18.4 -16.0 16.1 -17.4 " transform="translate(0.0 38.0)" stroke-dasharray="10.07287218439463" stroke-dashoffset="10.07287218439463"><animate attributeName="stroke-dashoffset" from="10.07287218439463" to="0" dur="0.30218616553183886s" begin="anim3.end" fill="freeze" id="anim4" /></path><path d="M 42.4 0.7 C 39.0 -0.8 35.3 -3.1 33.1 -5.0 " transform="translate(0.0 38.0)" stroke-dasharray="10.941507587299581" stroke-dashoffset="10.941507587299581"><animate attributeName="stroke-dashoffset" from="10.941507587299581" to="0" dur="0.32824522761898745s" begin="anim4.end" fill="freeze" id="anim5" /></path><path d="M 19.0 -16.0 C 20.6 -17.6 22.1 -19.4 23.4 -21.1 " transform="translate(0.0 38.0)" stroke-dasharray="6.740568381128597" stroke-dashoffset="6.740568381128597"><animate attributeName="stroke-dashoffset" from="6.740568381128597" to="0" dur="0.2022170514338579s" begin="anim5.end" fill="freeze" id="anim6" /></path><path d="M 22.4 -9.6 C 25.6 -12.0 28.4 -14.8 31.1 -18.1 " transform="translate(0.0 38.0)" stroke-dasharray="12.193357337023652" stroke-dashoffset="12.193357337023652"><animate attributeName="stroke-dashoffset" from="12.193357337023652" to="0" dur="0.3658007201107096s" begin="anim6.end" fill="freeze" id="anim7" /></path><path d="M 43.5 -8.0 C 41.5 -10.2 38.7 -12.8 36.3 -14.4 " transform="translate(0.0 38.0)" stroke-dasharray="9.654101691750252" stroke-dashoffset="9.654101691750252"><animate attributeName="stroke-dashoffset" from="9.654101691750252" to="0" dur="0.28962305075250755s" begin="anim7.end" fill="freeze" id="anim8" /></path><path d="M 23.6 -38.0 L 4.8 -38.0 " transform="translate(0.0 38.0)" stroke-dasharray="18.8" stroke-dashoffset="18.8"><animate attributeName="stroke-dashoffset" from="18.8" to="0" dur="0.564s" begin="anim8.end" fill="freeze" id="anim9" /></path><path d="M 27.9 -21.3 C 34.2 -23.4 39.5 -28.2 41.7 -34.4 " transform="translate(0.0 38.0)" stroke-dasharray="19.686458873119044" stroke-dashoffset="19.686458873119044"><animate attributeName="stroke-dashoffset" from="19.686458873119044" to="0" dur="0.5905937661935713s" begin="anim9.end" fill="freeze" id="anim10" /></path><path d="M 26.9 -29.4 C 29.4 -32.2 31.5 -36.1 33.0 -40.2 " transform="translate(0.0 38.0)" stroke-dasharray="12.473868639688316" stroke-dashoffset="12.473868639688316"><animate attributeName="stroke-dashoffset" from="12.473868639688316" to="0" dur="0.3742160591906495s" begin="anim10.end" fill="freeze" id="anim11" /></path><path d="M 45.8 -19.9 C 39.3 -22.1 33.4 -26.7 30.2 -32.9 " transform="translate(0.0 38.0)" stroke-dasharray="20.803258001368295" stroke-dashoffset="20.803258001368295"><animate attributeName="stroke-dashoffset" from="20.803258001368295" to="0" dur="0.6240977400410488s" begin="anim11.end" fill="freeze" id="anim12" /></path><path d="M 45.8 -35.0 L 31.0 -35.0" transform="translate(0.0 38.0)" stroke-dasharray="14.799999999999997" stroke-dashoffset="14.799999999999997"><animate attributeName="stroke-dashoffset" from="14.799999999999997" to="0" dur="0.4439999999999999s" begin="anim12.end" fill="freeze" id="anim_end" /></path></g></svg>