<?xml version='1.0' encoding='utf-8'?>
<svg viewBox="0.0 -6.0 50.0 50.0" version="1.1" xmlns="http://www.w3.org/2000/svg"><rect x="-1000" y="-1000" width="2000" height="2000" stroke="white" fill="white" /><g style="fill:none;stroke:#000000;stroke-width:1"><path d="M 3.2 -0.9 C 5.7 -6.2 7.2 -14.1 7.2 -25.1 L 7.2 -32.9 C 7.2 -35.5 8.1 -36.7 11.4 -36.7 L 45.8 -36.7 " transform="translate(0.0 38.0)" stroke-dasharray="73.54370651722726" stroke-dashoffset="73.54370651722726"><animate attributeName="stroke-dashoffset" from="73.54370651722726" to="0" dur="2.2063111955168178s" begin="0s; anim_end.end" fill="freeze" id="anim0" /></path><path d="M 39.5 -3.8 L 16.8 -3.8 " transform="translate(0.0 38.0)" stroke-dasharray="22.7" stroke-dashoffset="22.7"><animate attributeName="stroke-dashoffset" from="22.7" to="0" dur="0.6809999999999999s" begin="anim0.end" fill="freeze" id="anim1" /></path><path d="M 35.0 1.9 C 35.8 2.1 36.3 2.2 37.1 2.2 C 39.1 2.2 40.0 1.6 40.0 -0.5 L 40.0 -10.9 C 40.0 -12.7 39.3 -13.4 36.6 -13.4 L 19.3 -13.4 C 16.6 -13.4 15.8 -12.7 15.8 -10.9 L 15.8 2.6 " transform="translate(0.0 38.0)" stroke-dasharray="57.91724691630715" stroke-dashoffset="57.91724691630715"><animate attributeName="stroke-dashoffset" from="57.91724691630715" to="0" dur="1.7375174074892143s" begin="anim1.end" fill="freeze" id="anim2" /></path><path d="M 39.5 -8.6 L 16.8 -8.6 " transform="translate(0.0 38.0)" stroke-dasharray="22.7" stroke-dashoffset="22.7"><animate attributeName="stroke-dashoffset" from="22.7" to="0" dur="0.6809999999999999s" begin="anim2.end" fill="freeze" id="anim3" /></path><path d="M 15.9 -17.4 L 15.9 -26.4 " transform="translate(0.0 38.0)" stroke-dasharray="9.0" stroke-dashoffset="9.0"><animate attributeName="stroke-dashoffset" from="9.0" to="0" dur="0.27s" begin="anim3.end" fill="freeze" id="anim4" /></path><path d="M 11.7 -24.6 C 13.6 -26.6 15.8 -29.8 17.1 -32.7 " transform="translate(0.0 38.0)" stroke-dasharray="9.774922651962283" stroke-dashoffset="9.774922651962283"><animate attributeName="stroke-dashoffset" from="9.774922651962283" to="0" dur="0.2932476795588685s" begin="anim4.end" fill="freeze" id="anim5" /></path><path d="M 20.4 -25.4 C 22.2 -27.4 24.1 -30.1 25.4 -32.9 " transform="translate(0.0 38.0)" stroke-dasharray="9.04525245907564" stroke-dashoffset="9.04525245907564"><animate attributeName="stroke-dashoffset" from="9.04525245907564" to="0" dur="0.27135757377226916s" begin="anim5.end" fill="freeze" id="anim6" /></path><path d="M 41.9 -22.1 L 24.9 -22.1 " transform="translate(0.0 38.0)" stroke-dasharray="17.0" stroke-dashoffset="17.0"><animate attributeName="stroke-dashoffset" from="17.0" to="0" dur="0.51s" begin="anim6.end" fill="freeze" id="anim7" /></path><path d="M 33.0 -18.6 L 33.0 -29.6 " transform="translate(0.0 38.0)" stroke-dasharray="11.0" stroke-dashoffset="11.0"><animate attributeName="stroke-dashoffset" from="11.0" to="0" dur="0.32999999999999996s" begin="anim7.end" fill="freeze" id="anim8" /></path><path d="M 44.9 -17.9 L 27.1 -17.9 C 24.7 -17.9 24.0 -18.5 24.0 -20.1 L 24.0 -27.6 C 24.0 -29.2 24.6 -30.1 26.9 -30.1 L 44.0 -30.1 " transform="translate(0.0 38.0)" stroke-dasharray="51.28885955401745" stroke-dashoffset="51.28885955401745"><animate attributeName="stroke-dashoffset" from="51.28885955401745" to="0" dur="1.5386657866205233s" begin="anim8.end" fill="freeze" id="anim9" /></path><path d="M 41.9 -26.1 L 24.9 -26.1 " transform="translate(0.0 38.0)" stroke-dasharray="17.0" stroke-dashoffset="17.0"><animate attributeName="stroke-dashoffset" from="17.0" to="0" dur="0.51s" begin="anim9.end" fill="freeze" id="anim10" /></path><path d="M 32.5 -29.5 C 33.1 -30.8 33.6 -31.9 34.0 -33.1 " transform="translate(0.0 38.0)" stroke-dasharray="3.902140678153378" stroke-dashoffset="3.902140678153378"><animate attributeName="stroke-dashoffset" from="3.902140678153378" to="0" dur="0.11706422034460134s" begin="anim10.end" fill="freeze" id="anim11" /></path><path d="M 25.8 -36.6 L 25.8 -41.5" transform="translate(0.0 38.0)" stroke-dasharray="4.899999999999999" stroke-dashoffset="4.899999999999999"><animate attributeName="stroke-dashoffset" from="4.899999999999999" to="0" dur="0.14699999999999996s" begin="anim11.end" fill="freeze" id="anim_end" /></path></g></svg>