<?xml version='1.0' encoding='utf-8'?>
<svg viewBox="0.0 -6.0 50.0 50.0" version="1.1" xmlns="http://www.w3.org/2000/svg"><rect x="-1000" y="-1000" width="2000" height="2000" stroke="white" fill="white" /><g style="fill:none;stroke:#000000;stroke-width:1"><path d="M 10.1 -14.1 L 34.4 -14.1 C 37.2 -14.1 38.1 -14.8 38.1 -16.3 L 38.1 -22.6 C 38.1 -24.1 37.2 -24.8 34.4 -24.8 L 10.6 -24.8 " transform="translate(0.0 38.0)" stroke-dasharray="64.24175359792912" stroke-dashoffset="64.24175359792912"><animate attributeName="stroke-dashoffset" from="64.24175359792912" to="0" dur="1.9272526079378736s" begin="0s" fill="freeze" /></path><path d="M 7.0 2.8 C 18.9 2.4 28.8 -0.8 34.6 -8.4 " transform="translate(0.0 38.0)" stroke-dasharray="30.800601436893157" stroke-dashoffset="30.800601436893157"><animate attributeName="stroke-dashoffset" from="30.800601436893157" to="0" dur="0.9240180431067947s" begin="1.9272526079378736s" fill="freeze" /></path><path d="M 13.6 -3.6 C 16.7 -6.2 19.8 -9.2 22.1 -12.2 " transform="translate(0.0 38.0)" stroke-dasharray="12.114692707391828" stroke-dashoffset="12.114692707391828"><animate attributeName="stroke-dashoffset" from="12.114692707391828" to="0" dur="0.3634407812217548s" begin="2.8512706510446684s" fill="freeze" /></path><path d="M 40.0 2.2 C 31.9 -0.7 23.0 -2.9 14.3 -4.1 " transform="translate(0.0 38.0)" stroke-dasharray="26.506818022936088" stroke-dashoffset="26.506818022936088"><animate attributeName="stroke-dashoffset" from="26.506818022936088" to="0" dur="0.7952045406880826s" begin="3.214711432266423s" fill="freeze" /></path><path d="M 45.6 -8.7 L 4.2 -8.7 " transform="translate(0.0 38.0)" stroke-dasharray="41.4" stroke-dashoffset="41.4"><animate attributeName="stroke-dashoffset" from="41.4" to="0" dur="1.242s" begin="4.009915972954506s" fill="freeze" /></path><path d="M 46.0 -19.4 L 4.0 -19.4 " transform="translate(0.0 38.0)" stroke-dasharray="42.0" stroke-dashoffset="42.0"><animate attributeName="stroke-dashoffset" from="42.0" to="0" dur="1.26s" begin="5.251915972954506s" fill="freeze" /></path><path d="M 24.6 -14.2 L 24.6 -33.0 " transform="translate(0.0 38.0)" stroke-dasharray="18.8" stroke-dashoffset="18.8"><animate attributeName="stroke-dashoffset" from="18.8" to="0" dur="0.564s" begin="6.5119159729545055s" fill="freeze" /></path><path d="M 17.4 -34.0 L 17.4 -40.8 " transform="translate(0.0 38.0)" stroke-dasharray="6.799999999999997" stroke-dashoffset="6.799999999999997"><animate attributeName="stroke-dashoffset" from="6.799999999999997" to="0" dur="0.2039999999999999s" begin="7.075915972954506s" fill="freeze" /></path><path d="M 44.9 -30.0 L 5.1 -30.0 " transform="translate(0.0 38.0)" stroke-dasharray="39.8" stroke-dashoffset="39.8"><animate attributeName="stroke-dashoffset" from="39.8" to="0" dur="1.194s" begin="7.279915972954505s" fill="freeze" /></path><path d="M 45.4 -37.1 L 4.5 -37.1 " transform="translate(0.0 38.0)" stroke-dasharray="40.9" stroke-dashoffset="40.9"><animate attributeName="stroke-dashoffset" from="40.9" to="0" dur="1.2269999999999999s" begin="8.473915972954504s" fill="freeze" /></path><path d="M 32.1 -34.0 L 32.1 -40.8" transform="translate(0.0 38.0)" stroke-dasharray="6.799999999999997" stroke-dashoffset="6.799999999999997"><animate attributeName="stroke-dashoffset" from="6.799999999999997" to="0" dur="0.2039999999999999s" begin="9.700915972954505s" fill="freeze" /></path></g></svg>