<?xml version='1.0' encoding='utf-8'?>
<svg viewBox="0.0 -6.0 50.0 50.0" version="1.1" xmlns="http://www.w3.org/2000/svg"><rect x="-1000" y="-1000" width="2000" height="2000" stroke="white" fill="white" /><g style="fill:none;stroke:#000000;stroke-width:1"><path d="M 46.6 -4.4 C 46.1 -0.1 44.7 1.2 37.7 1.2 C 31.4 1.2 30.3 0.2 30.3 -2.8 L 30.3 -22.0 C 30.3 -24.2 31.2 -25.1 33.8 -25.1 L 41.7 -25.1 C 44.2 -25.1 45.1 -24.4 45.1 -22.1 L 45.1 -16.6 C 45.1 -14.3 44.2 -13.6 41.7 -13.6 L 30.9 -13.6 " transform="translate(0.0 38.0)" stroke-dasharray="81.3829334284878" stroke-dashoffset="81.3829334284878"><animate attributeName="stroke-dashoffset" from="81.3829334284878" to="0" dur="2.441488002854634s" begin="0s; 15s; 30s; 45s" fill="freeze" id="anim0" /></path><path d="M 10.8 -2.1 C 10.3 -3.0 9.9 -3.5 9.3 -4.3 " transform="translate(0.0 38.0)" stroke-dasharray="2.6654707712734327" stroke-dashoffset="2.6654707712734327"><animate attributeName="stroke-dashoffset" from="2.6654707712734327" to="0" dur="0.07996412313820297s" begin="anim0.end" fill="freeze" id="anim1" /></path><path d="M 3.4 1.2 C 9.8 0.7 18.7 -0.8 24.8 -2.3 " transform="translate(0.0 38.0)" stroke-dasharray="21.703880357134143" stroke-dashoffset="21.703880357134143"><animate attributeName="stroke-dashoffset" from="21.703880357134143" to="0" dur="0.6511164107140243s" begin="anim1.end" fill="freeze" id="anim2" /></path><path d="M 16.9 -0.5 C 17.7 -1.7 18.3 -3.0 18.9 -4.7 " transform="translate(0.0 38.0)" stroke-dasharray="4.6644369207010286" stroke-dashoffset="4.6644369207010286"><animate attributeName="stroke-dashoffset" from="4.6644369207010286" to="0" dur="0.13993310762103084s" begin="anim2.end" fill="freeze" id="anim3" /></path><path d="M 9.9 -8.2 L 19.5 -8.2 C 21.4 -8.2 22.1 -9.1 22.1 -10.3 L 22.1 -12.4 C 22.1 -13.7 21.4 -14.6 19.5 -14.6 L 9.9 -14.6 C 8.1 -14.6 7.3 -13.7 7.3 -12.4 L 7.3 -10.3 C 7.3 -9.1 8.1 -8.2 9.9 -8.2 Z " transform="translate(0.0 38.0)" stroke-dasharray="38.76492641069271" stroke-dashoffset="38.76492641069271"><animate attributeName="stroke-dashoffset" from="38.76492641069271" to="0" dur="1.1629477923207812s" begin="anim3.end" fill="freeze" id="anim4" /></path><path d="M 25.4 -19.7 L 3.2 -19.7 " transform="translate(0.0 38.0)" stroke-dasharray="22.2" stroke-dashoffset="22.2"><animate attributeName="stroke-dashoffset" from="22.2" to="0" dur="0.6659999999999999s" begin="anim4.end" fill="freeze" id="anim5" /></path><path d="M 11.9 -29.1 L 7.8 -29.1 " transform="translate(0.0 38.0)" stroke-dasharray="4.1000000000000005" stroke-dashoffset="4.1000000000000005"><animate attributeName="stroke-dashoffset" from="4.1000000000000005" to="0" dur="0.12300000000000001s" begin="anim5.end" fill="freeze" id="anim6" /></path><path d="M 9.9 -25.1 L 9.9 -38.6 " transform="translate(0.0 38.0)" stroke-dasharray="13.5" stroke-dashoffset="13.5"><animate attributeName="stroke-dashoffset" from="13.5" to="0" dur="0.40499999999999997s" begin="anim6.end" fill="freeze" id="anim7" /></path><path d="M 11.9 -32.6 L 7.8 -32.6 " transform="translate(0.0 38.0)" stroke-dasharray="4.1000000000000005" stroke-dashoffset="4.1000000000000005"><animate attributeName="stroke-dashoffset" from="4.1000000000000005" to="0" dur="0.12300000000000001s" begin="anim7.end" fill="freeze" id="anim8" /></path><path d="M 11.9 -36.1 L 7.8 -36.1 " transform="translate(0.0 38.0)" stroke-dasharray="4.1000000000000005" stroke-dashoffset="4.1000000000000005"><animate attributeName="stroke-dashoffset" from="4.1000000000000005" to="0" dur="0.12300000000000001s" begin="anim8.end" fill="freeze" id="anim9" /></path><path d="M 4.8 -39.0 L 4.8 -27.3 C 4.8 -25.7 5.7 -25.1 7.7 -25.1 L 21.9 -25.1 C 23.9 -25.1 24.8 -25.7 24.8 -27.3 L 24.8 -39.0 " transform="translate(0.0 38.0)" stroke-dasharray="46.01019592891321" stroke-dashoffset="46.01019592891321"><animate attributeName="stroke-dashoffset" from="46.01019592891321" to="0" dur="1.3803058778673962s" begin="anim9.end" fill="freeze" id="anim10" /></path><path d="M 14.7 -25.9 L 14.7 -40.4 " transform="translate(0.0 38.0)" stroke-dasharray="14.5" stroke-dashoffset="14.5"><animate attributeName="stroke-dashoffset" from="14.5" to="0" dur="0.435s" begin="anim10.end" fill="freeze" id="anim11" /></path><path d="M 21.9 -29.1 L 17.5 -29.1 " transform="translate(0.0 38.0)" stroke-dasharray="4.399999999999999" stroke-dashoffset="4.399999999999999"><animate attributeName="stroke-dashoffset" from="4.399999999999999" to="0" dur="0.13199999999999995s" begin="anim11.end" fill="freeze" id="anim12" /></path><path d="M 19.7 -25.1 L 19.7 -38.6 " transform="translate(0.0 38.0)" stroke-dasharray="13.5" stroke-dashoffset="13.5"><animate attributeName="stroke-dashoffset" from="13.5" to="0" dur="0.40499999999999997s" begin="anim12.end" fill="freeze" id="anim13" /></path><path d="M 21.9 -32.6 L 17.5 -32.6 " transform="translate(0.0 38.0)" stroke-dasharray="4.399999999999999" stroke-dashoffset="4.399999999999999"><animate attributeName="stroke-dashoffset" from="4.399999999999999" to="0" dur="0.13199999999999995s" begin="anim13.end" fill="freeze" id="anim14" /></path><path d="M 21.9 -36.1 L 17.5 -36.1 " transform="translate(0.0 38.0)" stroke-dasharray="4.399999999999999" stroke-dashoffset="4.399999999999999"><animate attributeName="stroke-dashoffset" from="4.399999999999999" to="0" dur="0.13199999999999995s" begin="anim14.end" fill="freeze" id="anim15" /></path><path d="M 37.6 -14.1 L 37.6 -24.5 " transform="translate(0.0 38.0)" stroke-dasharray="10.4" stroke-dashoffset="10.4"><animate attributeName="stroke-dashoffset" from="10.4" to="0" dur="0.312s" begin="anim15.end" fill="freeze" id="anim16" /></path><path d="M 28.4 -27.6 C 31.0 -30.9 33.4 -35.5 34.9 -39.8 " transform="translate(0.0 38.0)" stroke-dasharray="13.881276194854134" stroke-dashoffset="13.881276194854134"><animate attributeName="stroke-dashoffset" from="13.881276194854134" to="0" dur="0.41643828584562403s" begin="anim16.end" fill="freeze" id="anim17" /></path><path d="M 37.1 -25.2 C 38.2 -27.1 39.3 -28.9 40.1 -31.0 C 41.0 -33.1 40.2 -34.4 38.0 -34.4 L 32.5 -34.4" transform="translate(0.0 38.0)" stroke-dasharray="17.123982044507724" stroke-dashoffset="17.123982044507724"><animate attributeName="stroke-dashoffset" from="17.123982044507724" to="0" dur="0.5137194613352317s" begin="anim17.end" fill="freeze" id="anim_end" /></path></g></svg>