<?xml version='1.0' encoding='utf-8'?>
<svg viewBox="0.0 -6.0 50.0 50.0" version="1.1" xmlns="http://www.w3.org/2000/svg"><rect x="-1000" y="-1000" width="2000" height="2000" stroke="white" fill="white" /><g style="fill:none;stroke:#000000;stroke-width:1"><path d="M 3.5 -0.1 C 6.5 -5.9 8.3 -13.6 8.3 -24.1 L 8.3 -28.6 C 8.3 -31.2 9.4 -32.4 12.7 -32.4 L 39.9 -32.4 C 42.3 -32.4 43.1 -31.5 43.1 -29.8 L 43.1 -27.7 " transform="translate(0.0 38.0)" stroke-dasharray="70.03757447514094" stroke-dashoffset="70.03757447514094"><animate attributeName="stroke-dashoffset" from="70.03757447514094" to="0" dur="2.1011272342542284s" begin="0s" fill="freeze" /></path><path d="M 12.2 2.5 C 18.1 -0.3 23.1 -6.2 24.6 -11.8 C 25.1 -13.8 24.4 -14.9 22.1 -14.9 L 17.4 -14.9 " transform="translate(0.0 38.0)" stroke-dasharray="29.075126478920623" stroke-dashoffset="29.075126478920623"><animate attributeName="stroke-dashoffset" from="29.075126478920623" to="0" dur="0.8722537943676186s" begin="2.1011272342542284s" fill="freeze" /></path><path d="M 11.7 -7.5 C 14.3 -10.3 17.1 -15.0 18.5 -18.6 " transform="translate(0.0 38.0)" stroke-dasharray="13.080388939105072" stroke-dashoffset="13.080388939105072"><animate attributeName="stroke-dashoffset" from="13.080388939105072" to="0" dur="0.39241166817315215s" begin="2.973381028621847s" fill="freeze" /></path><path d="M 46.0 0.8 C 42.4 1.1 39.2 1.2 35.1 1.2 C 24.9 1.2 18.4 -3.2 15.7 -12.4 " transform="translate(0.0 38.0)" stroke-dasharray="36.66508012423153" stroke-dashoffset="36.66508012423153"><animate attributeName="stroke-dashoffset" from="36.66508012423153" to="0" dur="1.099952403726946s" begin="3.365792696794999s" fill="freeze" /></path><path d="M 28.6 -4.2 C 30.8 -6.5 31.8 -9.4 31.8 -13.6 C 31.8 -15.2 32.4 -15.9 34.2 -15.9 L 36.5 -15.9 C 38.5 -15.9 39.1 -15.1 39.1 -13.4 L 39.1 -7.2 C 39.1 -5.7 39.5 -5.1 41.8 -5.1 C 44.1 -5.1 45.0 -6.1 45.1 -9.2 " transform="translate(0.0 38.0)" stroke-dasharray="36.9334151763316" stroke-dashoffset="36.9334151763316"><animate attributeName="stroke-dashoffset" from="36.9334151763316" to="0" dur="1.108002455289948s" begin="4.465745100521945s" fill="freeze" /></path><path d="M 14.3 -25.9 L 34.1 -27.4 " transform="translate(0.0 38.0)" stroke-dasharray="19.856736892047497" stroke-dashoffset="19.856736892047497"><animate attributeName="stroke-dashoffset" from="19.856736892047497" to="0" dur="0.5957021067614249s" begin="5.5737475558118925s" fill="freeze" /></path><path d="M 39.4 -25.0 C 38.8 -21.9 37.5 -21.1 30.1 -21.1 C 23.1 -21.1 22.3 -21.6 22.3 -23.7 L 22.3 -30.9 " transform="translate(0.0 38.0)" stroke-dasharray="27.657952594294873" stroke-dashoffset="27.657952594294873"><animate attributeName="stroke-dashoffset" from="27.657952594294873" to="0" dur="0.8297385778288462s" begin="6.169449662573317s" fill="freeze" /></path><path d="M 24.9 -32.6 L 24.9 -41.3 " transform="translate(0.0 38.0)" stroke-dasharray="8.699999999999996" stroke-dashoffset="8.699999999999996"><animate attributeName="stroke-dashoffset" from="8.699999999999996" to="0" dur="0.26099999999999984s" begin="6.999188240402163s" fill="freeze" /></path><path d="M 39.1 -38.0 L 25.1 -38.0" transform="translate(0.0 38.0)" stroke-dasharray="14.0" stroke-dashoffset="14.0"><animate attributeName="stroke-dashoffset" from="14.0" to="0" dur="0.42s" begin="7.260188240402163s" fill="freeze" /></path></g></svg>