<?xml version='1.0' encoding='utf-8'?>
<svg viewBox="0.0 -6.0 50.0 50.0" version="1.1" xmlns="http://www.w3.org/2000/svg"><rect x="-1000" y="-1000" width="2000" height="2000" stroke="white" fill="white" /><g style="fill:none;stroke:#000000;stroke-width:1"><path d="M 13.2 0.7 L 36.9 0.7 C 40.8 0.7 42.0 -0.6 42.0 -3.6 L 42.0 -23.3 C 42.0 -26.4 40.8 -27.7 36.9 -27.7 L 13.0 -27.7 C 9.4 -27.7 8.1 -26.4 8.1 -23.3 L 8.1 -3.6 C 8.1 -0.6 9.4 0.7 13.2 0.7 Z " transform="translate(0.0 38.0)" stroke-dasharray="118.10328192867867" stroke-dashoffset="118.10328192867867"><animate attributeName="stroke-dashoffset" from="118.10328192867867" to="0" dur="3.54309845786036s" begin="0s; anim_end.end" fill="freeze" id="anim0" /></path><path d="M 14.2 -4.7 C 21.3 -8.0 24.8 -13.5 24.8 -23.1 " transform="translate(0.0 38.0)" stroke-dasharray="22.664963430545143" stroke-dashoffset="22.664963430545143"><animate attributeName="stroke-dashoffset" from="22.664963430545143" to="0" dur="0.6799489029163542s" begin="anim0.end" fill="freeze" id="anim1" /></path><path d="M 34.0 -5.3 C 31.1 -8.2 27.1 -10.8 23.6 -12.4 " transform="translate(0.0 38.0)" stroke-dasharray="12.653384107763165" stroke-dashoffset="12.653384107763165"><animate attributeName="stroke-dashoffset" from="12.653384107763165" to="0" dur="0.3796015232328949s" begin="anim1.end" fill="freeze" id="anim2" /></path><path d="M 35.7 -17.7 L 14.6 -17.7 " transform="translate(0.0 38.0)" stroke-dasharray="21.1" stroke-dashoffset="21.1"><animate attributeName="stroke-dashoffset" from="21.1" to="0" dur="0.633s" begin="anim2.end" fill="freeze" id="anim3" /></path><path d="M 17.8 -31.8 L 17.8 -40.4 " transform="translate(0.0 38.0)" stroke-dasharray="8.599999999999998" stroke-dashoffset="8.599999999999998"><animate attributeName="stroke-dashoffset" from="8.599999999999998" to="0" dur="0.25799999999999995s" begin="anim3.end" fill="freeze" id="anim4" /></path><path d="M 45.9 -35.9 L 4.1 -35.9 " transform="translate(0.0 38.0)" stroke-dasharray="41.8" stroke-dashoffset="41.8"><animate attributeName="stroke-dashoffset" from="41.8" to="0" dur="1.2539999999999998s" begin="anim4.end" fill="freeze" id="anim5" /></path><path d="M 31.8 -31.9 L 31.8 -40.4" transform="translate(0.0 38.0)" stroke-dasharray="8.5" stroke-dashoffset="8.5"><animate attributeName="stroke-dashoffset" from="8.5" to="0" dur="0.255s" begin="anim5.end" fill="freeze" id="anim_end" /></path></g></svg>