<?xml version='1.0' encoding='utf-8'?>
<svg viewBox="0.0 -6.0 50.0 50.0" version="1.1" xmlns="http://www.w3.org/2000/svg"><rect x="-1000" y="-1000" width="2000" height="2000" stroke="white" fill="white" /><g style="fill:none;stroke:#000000;stroke-width:1"><path d="M 36.6 0.9 C 37.6 1.1 38.3 1.2 39.4 1.2 C 41.9 1.2 43.2 -0.1 43.9 -3.4 C 44.5 -6.0 44.9 -9.4 45.0 -12.9 C 45.0 -15.3 44.2 -16.6 41.3 -16.6 L 26.2 -16.6 " transform="translate(0.0 38.0)" stroke-dasharray="40.72257375756827" stroke-dashoffset="40.72257375756827"><animate attributeName="stroke-dashoffset" from="40.72257375756827" to="0" dur="1.221677212727048s" begin="0s; 15s; 30s; 45s" fill="freeze" id="anim0" /></path><path d="M 3.9 1.4 C 5.5 -0.7 6.9 -3.0 7.8 -5.0 " transform="translate(0.0 38.0)" stroke-dasharray="7.509850946492507" stroke-dashoffset="7.509850946492507"><animate attributeName="stroke-dashoffset" from="7.509850946492507" to="0" dur="0.22529552839477518s" begin="anim0.end" fill="freeze" id="anim1" /></path><path d="M 16.8 -0.7 C 16.1 -2.3 15.1 -4.2 13.9 -5.7 " transform="translate(0.0 38.0)" stroke-dasharray="5.795795069673461" stroke-dashoffset="5.795795069673461"><animate attributeName="stroke-dashoffset" from="5.795795069673461" to="0" dur="0.1738738520902038s" begin="anim1.end" fill="freeze" id="anim2" /></path><path d="M 15.3 -19.8 L 6.2 -19.8 " transform="translate(0.0 38.0)" stroke-dasharray="9.100000000000001" stroke-dashoffset="9.100000000000001"><animate attributeName="stroke-dashoffset" from="9.100000000000001" to="0" dur="0.273s" begin="anim2.end" fill="freeze" id="anim3" /></path><path d="M 9.3 -10.0 L 12.7 -10.0 C 14.9 -10.0 15.8 -10.8 15.8 -13.2 L 15.8 -35.2 C 15.8 -37.5 14.9 -38.5 12.7 -38.5 L 9.3 -38.5 C 7.0 -38.5 6.1 -37.5 6.1 -35.2 L 6.1 -13.2 C 6.1 -10.8 7.0 -10.0 9.3 -10.0 Z " transform="translate(0.0 38.0)" stroke-dasharray="71.90471792183308" stroke-dashoffset="71.90471792183308"><animate attributeName="stroke-dashoffset" from="71.90471792183308" to="0" dur="2.1571415376549923s" begin="anim3.end" fill="freeze" id="anim4" /></path><path d="M 22.8 -4.3 C 26.9 -7.1 30.9 -11.7 33.0 -16.2 " transform="translate(0.0 38.0)" stroke-dasharray="15.842215905568425" stroke-dashoffset="15.842215905568425"><animate attributeName="stroke-dashoffset" from="15.842215905568425" to="0" dur="0.4752664771670527s" begin="anim4.end" fill="freeze" id="anim5" /></path><path d="M 27.3 1.1 C 33.4 -3.0 38.0 -9.3 40.1 -16.2 " transform="translate(0.0 38.0)" stroke-dasharray="21.935658412859567" stroke-dashoffset="21.935658412859567"><animate attributeName="stroke-dashoffset" from="21.935658412859567" to="0" dur="0.658069752385787s" begin="anim5.end" fill="freeze" id="anim6" /></path><path d="M 15.3 -29.1 L 6.2 -29.1 " transform="translate(0.0 38.0)" stroke-dasharray="9.100000000000001" stroke-dashoffset="9.100000000000001"><animate attributeName="stroke-dashoffset" from="9.100000000000001" to="0" dur="0.273s" begin="anim6.end" fill="freeze" id="anim7" /></path><path d="M 20.6 -11.2 C 24.5 -14.2 28.1 -18.9 30.4 -23.4 " transform="translate(0.0 38.0)" stroke-dasharray="15.76603670727096" stroke-dashoffset="15.76603670727096"><animate attributeName="stroke-dashoffset" from="15.76603670727096" to="0" dur="0.47298110121812875s" begin="anim7.end" fill="freeze" id="anim8" /></path><path d="M 28.4 -24.0 L 38.2 -24.0 C 41.1 -24.0 42.2 -25.0 42.2 -27.1 L 42.2 -35.4 C 42.2 -37.5 41.1 -38.5 38.2 -38.5 L 28.4 -38.5 C 25.5 -38.5 24.4 -37.5 24.4 -35.4 L 24.4 -27.1 C 24.4 -25.0 25.5 -24.0 28.4 -24.0 Z " transform="translate(0.0 38.0)" stroke-dasharray="59.557719350192045" stroke-dashoffset="59.557719350192045"><animate attributeName="stroke-dashoffset" from="59.557719350192045" to="0" dur="1.7867315805057613s" begin="anim8.end" fill="freeze" id="anim9" /></path><path d="M 41.7 -31.4 L 24.9 -31.4" transform="translate(0.0 38.0)" stroke-dasharray="16.800000000000004" stroke-dashoffset="16.800000000000004"><animate attributeName="stroke-dashoffset" from="16.800000000000004" to="0" dur="0.5040000000000001s" begin="anim9.end" fill="freeze" id="anim_end" /></path></g></svg>