<?xml version='1.0' encoding='utf-8'?>
<svg viewBox="0.0 -6.0 50.0 50.0" version="1.1" xmlns="http://www.w3.org/2000/svg"><rect x="-1000" y="-1000" width="2000" height="2000" stroke="white" fill="white" /><g style="fill:none;stroke:#000000;stroke-width:1"><path d="M 16.4 -4.3 L 33.5 -4.3 C 36.4 -4.3 37.3 -5.2 37.3 -7.0 L 37.3 -17.1 C 37.3 -18.9 36.4 -19.8 33.5 -19.8 L 16.4 -19.8 C 13.4 -19.8 12.6 -18.9 12.6 -17.1 L 12.6 -7.0 C 12.6 -5.2 13.4 -4.3 16.4 -4.3 Z " transform="translate(0.0 38.0)" stroke-dasharray="75.9678293968501" stroke-dashoffset="75.9678293968501"><animate attributeName="stroke-dashoffset" from="75.9678293968501" to="0" dur="2.279034881905503s" begin="0s; anim_end.end" fill="freeze" id="anim0" /></path><path d="M 6.4 2.6 C 10.3 2.0 14.9 0.7 18.6 -0.9 " transform="translate(0.0 38.0)" stroke-dasharray="12.723410091603531" stroke-dashoffset="12.723410091603531"><animate attributeName="stroke-dashoffset" from="12.723410091603531" to="0" dur="0.3817023027481059s" begin="anim0.end" fill="freeze" id="anim1" /></path><path d="M 36.6 -9.4 L 13.2 -9.4 " transform="translate(0.0 38.0)" stroke-dasharray="23.400000000000002" stroke-dashoffset="23.400000000000002"><animate attributeName="stroke-dashoffset" from="23.400000000000002" to="0" dur="0.7020000000000001s" begin="anim1.end" fill="freeze" id="anim2" /></path><path d="M 43.2 2.5 C 38.8 1.6 34.4 0.2 31.1 -1.1 " transform="translate(0.0 38.0)" stroke-dasharray="12.638973202112798" stroke-dashoffset="12.638973202112798"><animate attributeName="stroke-dashoffset" from="12.638973202112798" to="0" dur="0.3791691960633839s" begin="anim2.end" fill="freeze" id="anim3" /></path><path d="M 4.2 -19.5 C 11.3 -22.0 19.5 -26.8 24.1 -31.2 " transform="translate(0.0 38.0)" stroke-dasharray="23.22855571352031" stroke-dashoffset="23.22855571352031"><animate attributeName="stroke-dashoffset" from="23.22855571352031" to="0" dur="0.6968566714056094s" begin="anim3.end" fill="freeze" id="anim4" /></path><path d="M 36.6 -14.6 L 13.2 -14.6 " transform="translate(0.0 38.0)" stroke-dasharray="23.400000000000002" stroke-dashoffset="23.400000000000002"><animate attributeName="stroke-dashoffset" from="23.400000000000002" to="0" dur="0.7020000000000001s" begin="anim4.end" fill="freeze" id="anim5" /></path><path d="M 8.0 -26.5 C 10.1 -28.3 12.4 -31.1 13.8 -33.5 " transform="translate(0.0 38.0)" stroke-dasharray="9.127057964533646" stroke-dashoffset="9.127057964533646"><animate attributeName="stroke-dashoffset" from="9.127057964533646" to="0" dur="0.2738117389360094s" begin="anim5.end" fill="freeze" id="anim6" /></path><path d="M 16.1 -28.2 C 14.9 -29.1 13.4 -30.1 11.9 -30.9 " transform="translate(0.0 38.0)" stroke-dasharray="4.997650438229637" stroke-dashoffset="4.997650438229637"><animate attributeName="stroke-dashoffset" from="4.997650438229637" to="0" dur="0.1499295131468891s" begin="anim6.end" fill="freeze" id="anim7" /></path><path d="M 24.9 -23.3 L 24.9 -41.1 " transform="translate(0.0 38.0)" stroke-dasharray="17.8" stroke-dashoffset="17.8"><animate attributeName="stroke-dashoffset" from="17.8" to="0" dur="0.534s" begin="anim7.end" fill="freeze" id="anim8" /></path><path d="M 45.5 -20.2 C 38.9 -22.3 31.1 -26.4 25.8 -31.3 " transform="translate(0.0 38.0)" stroke-dasharray="22.774061487530535" stroke-dashoffset="22.774061487530535"><animate attributeName="stroke-dashoffset" from="22.774061487530535" to="0" dur="0.6832218446259161s" begin="anim8.end" fill="freeze" id="anim9" /></path><path d="M 45.1 -37.2 L 5.0 -37.2 " transform="translate(0.0 38.0)" stroke-dasharray="40.1" stroke-dashoffset="40.1"><animate attributeName="stroke-dashoffset" from="40.1" to="0" dur="1.203s" begin="anim9.end" fill="freeze" id="anim10" /></path><path d="M 32.1 -27.8 C 33.8 -29.4 35.4 -31.3 36.8 -33.6 " transform="translate(0.0 38.0)" stroke-dasharray="7.488032014342761" stroke-dashoffset="7.488032014342761"><animate attributeName="stroke-dashoffset" from="7.488032014342761" to="0" dur="0.22464096043028284s" begin="anim10.end" fill="freeze" id="anim11" /></path><path d="M 41.4 -27.2 C 40.0 -28.5 38.0 -29.9 36.0 -31.0" transform="translate(0.0 38.0)" stroke-dasharray="6.618122457551425" stroke-dashoffset="6.618122457551425"><animate attributeName="stroke-dashoffset" from="6.618122457551425" to="0" dur="0.19854367372654275s" begin="anim11.end" fill="freeze" id="anim_end" /></path></g></svg>