<?xml version='1.0' encoding='utf-8'?>
<svg viewBox="0.0 -6.0 50.0 50.0" version="1.1" xmlns="http://www.w3.org/2000/svg"><rect x="-1000" y="-1000" width="2000" height="2000" stroke="white" fill="white" /><g style="fill:none;stroke:#000000;stroke-width:1"><path d="M 47.4 -5.2 C 46.9 -0.2 45.8 1.1 44.5 1.1 C 42.5 1.1 40.0 -1.4 38.2 -11.2 C 37.1 -17.1 36.7 -26.5 36.7 -40.2 " transform="translate(0.0 38.0)" stroke-dasharray="51.13591907116707" stroke-dashoffset="51.13591907116707"><animate attributeName="stroke-dashoffset" from="51.13591907116707" to="0" dur="1.5340775721350122s" begin="0s" fill="freeze" /></path><path d="M 7.8 0.7 L 11.3 0.7 C 13.4 0.7 14.2 -0.2 14.2 -2.2 L 14.2 -8.1 C 14.2 -10.1 13.4 -11.0 11.3 -11.0 L 7.8 -11.0 C 5.7 -11.0 4.9 -10.1 4.9 -8.1 L 4.9 -2.2 C 4.9 -0.2 5.7 0.7 7.8 0.7 Z " transform="translate(0.0 38.0)" stroke-dasharray="37.85659429717956" stroke-dashoffset="37.85659429717956"><animate attributeName="stroke-dashoffset" from="37.85659429717956" to="0" dur="1.1356978289153867s" begin="1.5340775721350122s" fill="freeze" /></path><path d="M 14.2 -17.8 L 5.3 -17.8 " transform="translate(0.0 38.0)" stroke-dasharray="8.899999999999999" stroke-dashoffset="8.899999999999999"><animate attributeName="stroke-dashoffset" from="8.899999999999999" to="0" dur="0.26699999999999996s" begin="2.6697754010503987s" fill="freeze" /></path><path d="M 18.4 1.2 C 21.5 -3.0 23.1 -9.0 23.1 -21.0 L 23.1 -25.1 " transform="translate(0.0 38.0)" stroke-dasharray="27.166668926133983" stroke-dashoffset="27.166668926133983"><animate attributeName="stroke-dashoffset" from="27.166668926133983" to="0" dur="0.8150000677840195s" begin="2.9367754010503986s" fill="freeze" /></path><path d="M 14.2 -24.5 L 5.3 -24.5 " transform="translate(0.0 38.0)" stroke-dasharray="8.899999999999999" stroke-dashoffset="8.899999999999999"><animate attributeName="stroke-dashoffset" from="8.899999999999999" to="0" dur="0.26699999999999996s" begin="3.751775468834418s" fill="freeze" /></path><path d="M 16.1 -31.4 L 2.8 -31.4 " transform="translate(0.0 38.0)" stroke-dasharray="13.3" stroke-dashoffset="13.3"><animate attributeName="stroke-dashoffset" from="13.3" to="0" dur="0.399s" begin="4.018775468834418s" fill="freeze" /></path><path d="M 33.6 -17.2 L 18.9 -17.2 " transform="translate(0.0 38.0)" stroke-dasharray="14.700000000000003" stroke-dashoffset="14.700000000000003"><animate attributeName="stroke-dashoffset" from="14.700000000000003" to="0" dur="0.44100000000000006s" begin="4.417775468834418s" fill="freeze" /></path><path d="M 27.1 2.0 C 35.8 -2.4 41.6 -10.2 44.9 -21.5 " transform="translate(0.0 38.0)" stroke-dasharray="30.374038684998887" stroke-dashoffset="30.374038684998887"><animate attributeName="stroke-dashoffset" from="30.374038684998887" to="0" dur="0.9112211605499666s" begin="4.858775468834418s" fill="freeze" /></path><path d="M 30.0 -6.7 L 30.0 -25.1 " transform="translate(0.0 38.0)" stroke-dasharray="18.400000000000002" stroke-dashoffset="18.400000000000002"><animate attributeName="stroke-dashoffset" from="18.400000000000002" to="0" dur="0.552s" begin="5.7699966293843845s" fill="freeze" /></path><path d="M 14.2 -38.1 L 5.3 -38.1 " transform="translate(0.0 38.0)" stroke-dasharray="8.899999999999999" stroke-dashoffset="8.899999999999999"><animate attributeName="stroke-dashoffset" from="8.899999999999999" to="0" dur="0.26699999999999996s" begin="6.321996629384385s" fill="freeze" /></path><path d="M 46.1 -30.8 L 20.6 -30.8 " transform="translate(0.0 38.0)" stroke-dasharray="25.5" stroke-dashoffset="25.5"><animate attributeName="stroke-dashoffset" from="25.5" to="0" dur="0.765s" begin="6.588996629384385s" fill="freeze" /></path><path d="M 44.4 -36.0 C 43.9 -37.0 42.8 -38.2 42.0 -39.0" transform="translate(0.0 38.0)" stroke-dasharray="3.8559405197917753" stroke-dashoffset="3.8559405197917753"><animate attributeName="stroke-dashoffset" from="3.8559405197917753" to="0" dur="0.11567821559375326s" begin="7.353996629384385s" fill="freeze" /></path></g></svg>