<?xml version='1.0' encoding='utf-8'?>
<svg viewBox="0.0 -6.0 50.0 50.0" version="1.1" xmlns="http://www.w3.org/2000/svg"><rect x="-1000" y="-1000" width="2000" height="2000" stroke="white" fill="white" /><g style="fill:none;stroke:#000000;stroke-width:1"><path d="M 43.9 -14.8 L 14.6 -14.8 C 12.1 -14.8 11.2 -15.8 11.2 -17.8 L 11.2 -26.1 C 11.2 -27.9 12.1 -28.9 14.6 -28.9 L 42.5 -28.9 " transform="translate(0.0 38.0)" stroke-dasharray="75.82781201842006" stroke-dashoffset="75.82781201842006"><animate attributeName="stroke-dashoffset" from="75.82781201842006" to="0" dur="2.274834360552602s" begin="0s; 15s; 30s; 45s" fill="freeze" id="anim0" /></path><path d="M 21.1 -4.3 L 8.9 -4.3 " transform="translate(0.0 38.0)" stroke-dasharray="12.200000000000001" stroke-dashoffset="12.200000000000001"><animate attributeName="stroke-dashoffset" from="12.200000000000001" to="0" dur="0.366s" begin="anim0.end" fill="freeze" id="anim1" /></path><path d="M 9.9 -8.7 C 13.8 -9.2 17.2 -9.9 20.9 -11.1 " transform="translate(0.0 38.0)" stroke-dasharray="11.276114277565483" stroke-dashoffset="11.276114277565483"><animate attributeName="stroke-dashoffset" from="11.276114277565483" to="0" dur="0.3382834283269645s" begin="anim1.end" fill="freeze" id="anim2" /></path><path d="M 9.3 -8.9 L 9.3 -1.1 C 9.3 0.8 10.3 1.4 12.8 1.4 L 37.4 1.4 C 39.9 1.4 40.9 0.8 40.9 -1.1 L 40.9 -7.2 C 40.9 -9.1 39.9 -9.7 37.4 -9.7 L 27.8 -9.7 " transform="translate(0.0 38.0)" stroke-dasharray="63.08898333540763" stroke-dashoffset="63.08898333540763"><animate attributeName="stroke-dashoffset" from="63.08898333540763" to="0" dur="1.892669500062229s" begin="anim2.end" fill="freeze" id="anim3" /></path><path d="M 4.8 -22.1 C 8.2 -24.8 11.4 -28.8 13.6 -32.5 " transform="translate(0.0 38.0)" stroke-dasharray="13.692461845269104" stroke-dashoffset="13.692461845269104"><animate attributeName="stroke-dashoffset" from="13.692461845269104" to="0" dur="0.4107738553580731s" begin="anim3.end" fill="freeze" id="anim4" /></path><path d="M 41.0 -4.3 L 28.8 -4.3 " transform="translate(0.0 38.0)" stroke-dasharray="12.2" stroke-dashoffset="12.2"><animate attributeName="stroke-dashoffset" from="12.2" to="0" dur="0.366s" begin="anim4.end" fill="freeze" id="anim5" /></path><path d="M 39.4 -19.6 L 11.7 -19.6 " transform="translate(0.0 38.0)" stroke-dasharray="27.7" stroke-dashoffset="27.7"><animate attributeName="stroke-dashoffset" from="27.7" to="0" dur="0.831s" begin="anim5.end" fill="freeze" id="anim6" /></path><path d="M 25.4 -15.1 L 25.4 -28.2 " transform="translate(0.0 38.0)" stroke-dasharray="13.1" stroke-dashoffset="13.1"><animate attributeName="stroke-dashoffset" from="13.1" to="0" dur="0.39299999999999996s" begin="anim6.end" fill="freeze" id="anim7" /></path><path d="M 39.4 -24.2 L 11.7 -24.2 " transform="translate(0.0 38.0)" stroke-dasharray="27.7" stroke-dashoffset="27.7"><animate attributeName="stroke-dashoffset" from="27.7" to="0" dur="0.831s" begin="anim7.end" fill="freeze" id="anim8" /></path><path d="M 17.9 -34.0 L 17.9 -40.8 " transform="translate(0.0 38.0)" stroke-dasharray="6.799999999999997" stroke-dashoffset="6.799999999999997"><animate attributeName="stroke-dashoffset" from="6.799999999999997" to="0" dur="0.2039999999999999s" begin="anim8.end" fill="freeze" id="anim9" /></path><path d="M 24.9 -28.8 C 25.6 -29.8 26.2 -30.9 26.7 -32.1 " transform="translate(0.0 38.0)" stroke-dasharray="3.7663262282389502" stroke-dashoffset="3.7663262282389502"><animate attributeName="stroke-dashoffset" from="3.7663262282389502" to="0" dur="0.1129897868471685s" begin="anim9.end" fill="freeze" id="anim10" /></path><path d="M 45.9 -37.1 L 4.0 -37.1 " transform="translate(0.0 38.0)" stroke-dasharray="41.9" stroke-dashoffset="41.9"><animate attributeName="stroke-dashoffset" from="41.9" to="0" dur="1.257s" begin="anim10.end" fill="freeze" id="anim11" /></path><path d="M 31.6 -34.0 L 31.6 -40.8" transform="translate(0.0 38.0)" stroke-dasharray="6.799999999999997" stroke-dashoffset="6.799999999999997"><animate attributeName="stroke-dashoffset" from="6.799999999999997" to="0" dur="0.2039999999999999s" begin="anim11.end" fill="freeze" id="anim_end" /></path></g></svg>