<?xml version='1.0' encoding='utf-8'?>
<svg viewBox="0.0 -6.0 50.0 50.0" version="1.1" xmlns="http://www.w3.org/2000/svg"><rect x="-1000" y="-1000" width="2000" height="2000" stroke="white" fill="white" /><g style="fill:none;stroke:#000000;stroke-width:1"><path d="M 41.3 -18.5 C 36.6 -17.9 31.1 -17.6 23.7 -17.6 C 13.3 -17.6 12.3 -18.4 12.3 -21.6 L 12.3 -25.7 " transform="translate(0.0 38.0)" stroke-dasharray="35.39470243420912" stroke-dashoffset="35.39470243420912"><animate attributeName="stroke-dashoffset" from="35.39470243420912" to="0" dur="1.0618410730262737s" begin="0s; 15s; 30s; 45s" fill="freeze" id="anim0" /></path><path d="M 5.2 2.0 C 10.9 -1.1 14.1 -5.7 14.1 -12.7 " transform="translate(0.0 38.0)" stroke-dasharray="18.168722473102893" stroke-dashoffset="18.168722473102893"><animate attributeName="stroke-dashoffset" from="18.168722473102893" to="0" dur="0.5450616741930867s" begin="anim0.end" fill="freeze" id="anim1" /></path><path d="M 24.6 0.4 L 24.6 -12.7 " transform="translate(0.0 38.0)" stroke-dasharray="13.1" stroke-dashoffset="13.1"><animate attributeName="stroke-dashoffset" from="13.1" to="0" dur="0.39299999999999996s" begin="anim1.end" fill="freeze" id="anim2" /></path><path d="M 46.0 -4.0 C 45.5 0.5 44.0 1.1 40.4 1.1 C 36.5 1.1 35.5 0.6 35.5 -1.8 L 35.5 -12.8 " transform="translate(0.0 38.0)" stroke-dasharray="26.464026895170473" stroke-dashoffset="26.464026895170473"><animate attributeName="stroke-dashoffset" from="26.464026895170473" to="0" dur="0.7939208068551141s" begin="anim2.end" fill="freeze" id="anim3" /></path><path d="M 44.8 -26.8 L 5.5 -26.8 " transform="translate(0.0 38.0)" stroke-dasharray="39.3" stroke-dashoffset="39.3"><animate attributeName="stroke-dashoffset" from="39.3" to="0" dur="1.1789999999999998s" begin="anim3.end" fill="freeze" id="anim4" /></path><path d="M 17.8 -32.2 L 17.8 -40.5 " transform="translate(0.0 38.0)" stroke-dasharray="8.299999999999997" stroke-dashoffset="8.299999999999997"><animate attributeName="stroke-dashoffset" from="8.299999999999997" to="0" dur="0.24899999999999992s" begin="anim4.end" fill="freeze" id="anim5" /></path><path d="M 24.9 -26.5 L 24.9 -30.9 " transform="translate(0.0 38.0)" stroke-dasharray="4.399999999999999" stroke-dashoffset="4.399999999999999"><animate attributeName="stroke-dashoffset" from="4.399999999999999" to="0" dur="0.13199999999999995s" begin="anim5.end" fill="freeze" id="anim6" /></path><path d="M 45.9 -36.1 L 4.0 -36.1 " transform="translate(0.0 38.0)" stroke-dasharray="41.9" stroke-dashoffset="41.9"><animate attributeName="stroke-dashoffset" from="41.9" to="0" dur="1.257s" begin="anim6.end" fill="freeze" id="anim7" /></path><path d="M 31.8 -32.4 L 31.8 -40.5" transform="translate(0.0 38.0)" stroke-dasharray="8.100000000000001" stroke-dashoffset="8.100000000000001"><animate attributeName="stroke-dashoffset" from="8.100000000000001" to="0" dur="0.24300000000000002s" begin="anim7.end" fill="freeze" id="anim_end" /></path></g></svg>