<?xml version='1.0' encoding='utf-8'?>
<svg viewBox="0.0 -6.0 50.0 50.0" version="1.1" xmlns="http://www.w3.org/2000/svg"><rect x="-1000" y="-1000" width="2000" height="2000" stroke="white" fill="white" /><g style="fill:none;stroke:#000000;stroke-width:1"><path d="M 11.0 0.2 C 11.7 0.4 12.5 0.5 13.3 0.5 C 15.4 0.5 16.4 -0.5 16.4 -2.9 L 16.4 -34.9 C 16.4 -37.4 15.7 -38.2 13.2 -38.2 L 10.4 -38.2 C 7.9 -38.2 7.1 -37.4 7.1 -34.9 L 7.1 -23.4 C 7.1 -11.1 6.0 -4.2 4.0 0.8 " transform="translate(0.0 38.0)" stroke-dasharray="89.42547881590698" stroke-dashoffset="89.42547881590698"><animate attributeName="stroke-dashoffset" from="89.42547881590698" to="0" dur="2.6827643644772095s" begin="0s" fill="freeze" /></path><path d="M 15.9 -15.1 L 6.5 -15.1 " transform="translate(0.0 38.0)" stroke-dasharray="9.4" stroke-dashoffset="9.4"><animate attributeName="stroke-dashoffset" from="9.4" to="0" dur="0.282s" begin="2.6827643644772095s" fill="freeze" /></path><path d="M 19.9 1.9 C 25.9 -1.8 29.2 -7.8 29.7 -16.2 " transform="translate(0.0 38.0)" stroke-dasharray="21.46579042807044" stroke-dashoffset="21.46579042807044"><animate attributeName="stroke-dashoffset" from="21.46579042807044" to="0" dur="0.6439737128421132s" begin="2.9647643644772095s" fill="freeze" /></path><path d="M 15.9 -26.6 L 6.8 -26.6 " transform="translate(0.0 38.0)" stroke-dasharray="9.100000000000001" stroke-dashoffset="9.100000000000001"><animate attributeName="stroke-dashoffset" from="9.100000000000001" to="0" dur="0.273s" begin="3.6087380773193227s" fill="freeze" /></path><path d="M 46.1 -3.8 C 45.9 0.1 44.4 1.2 40.6 1.2 C 37.5 1.2 36.6 0.5 36.6 -1.6 L 36.6 -17.5 " transform="translate(0.0 38.0)" stroke-dasharray="30.24558851931823" stroke-dashoffset="30.24558851931823"><animate attributeName="stroke-dashoffset" from="30.24558851931823" to="0" dur="0.9073676555795468s" begin="3.881738077319323s" fill="freeze" /></path><path d="M 28.0 -17.4 L 39.2 -17.4 C 41.8 -17.4 42.8 -18.2 42.8 -20.6 L 42.8 -25.9 C 42.8 -28.2 41.8 -29.1 39.2 -29.1 L 28.0 -29.1 C 25.4 -29.1 24.4 -28.2 24.4 -25.9 L 24.4 -20.6 C 24.4 -18.2 25.4 -17.4 28.0 -17.4 Z " transform="translate(0.0 38.0)" stroke-dasharray="55.49941425641601" stroke-dashoffset="55.49941425641601"><animate attributeName="stroke-dashoffset" from="55.49941425641601" to="0" dur="1.6649824276924803s" begin="4.78910573289887s" fill="freeze" /></path><path d="M 29.4 -34.2 C 28.6 -36.0 27.4 -37.7 26.4 -39.0 " transform="translate(0.0 38.0)" stroke-dasharray="5.673498239313727" stroke-dashoffset="5.673498239313727"><animate attributeName="stroke-dashoffset" from="5.673498239313727" to="0" dur="0.17020494717941181s" begin="6.4540881605913505s" fill="freeze" /></path><path d="M 35.9 -29.5 C 37.6 -32.3 39.5 -36.0 40.7 -39.3" transform="translate(0.0 38.0)" stroke-dasharray="10.928291395196295" stroke-dashoffset="10.928291395196295"><animate attributeName="stroke-dashoffset" from="10.928291395196295" to="0" dur="0.32784874185588886s" begin="6.624293107770763s" fill="freeze" /></path></g></svg>