<?xml version='1.0' encoding='utf-8'?>
<svg viewBox="0.0 -6.0 50.0 50.0" version="1.1" xmlns="http://www.w3.org/2000/svg"><rect x="-1000" y="-1000" width="2000" height="2000" stroke="white" fill="white" /><g style="fill:none;stroke:#000000;stroke-width:1"><path d="M 45.1 0.5 C 36.8 -3.1 29.5 -10.6 26.1 -19.9 " transform="translate(0.0 38.0)" stroke-dasharray="28.62953962963559" stroke-dashoffset="28.62953962963559"><animate attributeName="stroke-dashoffset" from="28.62953962963559" to="0" dur="0.8588861888890676s" begin="0s" fill="freeze" /></path><path d="M 8.7 1.5 C 14.9 0.8 22.9 -0.8 28.9 -2.6 " transform="translate(0.0 38.0)" stroke-dasharray="20.635520259543256" stroke-dashoffset="20.635520259543256"><animate attributeName="stroke-dashoffset" from="20.635520259543256" to="0" dur="0.6190656077862976s" begin="0.8588861888890676s" fill="freeze" /></path><path d="M 17.4 -0.5 L 17.4 -10.9 " transform="translate(0.0 38.0)" stroke-dasharray="10.4" stroke-dashoffset="10.4"><animate attributeName="stroke-dashoffset" from="10.4" to="0" dur="0.312s" begin="1.4779517966753652s" fill="freeze" /></path><path d="M 4.5 -7.3 C 11.7 -10.1 18.4 -14.6 23.1 -19.7 " transform="translate(0.0 38.0)" stroke-dasharray="22.539138786432154" stroke-dashoffset="22.539138786432154"><animate attributeName="stroke-dashoffset" from="22.539138786432154" to="0" dur="0.6761741635929646s" begin="1.7899517966753653s" fill="freeze" /></path><path d="M 45.9 -20.6 L 4.2 -20.6 " transform="translate(0.0 38.0)" stroke-dasharray="41.699999999999996" stroke-dashoffset="41.699999999999996"><animate attributeName="stroke-dashoffset" from="41.699999999999996" to="0" dur="1.251s" begin="2.4661259602683296s" fill="freeze" /></path><path d="M 32.0 -10.3 C 34.5 -11.7 37.4 -13.8 39.4 -15.6 " transform="translate(0.0 38.0)" stroke-dasharray="9.118431001181756" stroke-dashoffset="9.118431001181756"><animate attributeName="stroke-dashoffset" from="9.118431001181756" to="0" dur="0.27355293003545267s" begin="3.7171259602683295s" fill="freeze" /></path><path d="M 39.7 -27.9 L 11.1 -27.9 " transform="translate(0.0 38.0)" stroke-dasharray="28.6" stroke-dashoffset="28.6"><animate attributeName="stroke-dashoffset" from="28.6" to="0" dur="0.858s" begin="3.990678890303782s" fill="freeze" /></path><path d="M 24.9 -20.8 L 24.9 -40.6 " transform="translate(0.0 38.0)" stroke-dasharray="19.8" stroke-dashoffset="19.8"><animate attributeName="stroke-dashoffset" from="19.8" to="0" dur="0.594s" begin="4.848678890303782s" fill="freeze" /></path><path d="M 44.0 -35.1 L 7.3 -35.1" transform="translate(0.0 38.0)" stroke-dasharray="36.7" stroke-dashoffset="36.7"><animate attributeName="stroke-dashoffset" from="36.7" to="0" dur="1.101s" begin="5.442678890303783s" fill="freeze" /></path></g></svg>