<?xml version='1.0' encoding='utf-8'?>
<svg viewBox="0.0 -6.0 50.0 50.0" version="1.1" xmlns="http://www.w3.org/2000/svg"><rect x="-1000" y="-1000" width="2000" height="2000" stroke="white" fill="white" /><g style="fill:none;stroke:#000000;stroke-width:1"><path d="M 26.4 2.9 L 26.4 -14.8 C 26.4 -16.6 27.1 -17.5 29.4 -17.5 L 45.5 -17.5 " transform="translate(0.0 38.0)" stroke-dasharray="38.49946826484578" stroke-dashoffset="38.49946826484578"><animate attributeName="stroke-dashoffset" from="38.49946826484578" to="0" dur="1.1549840479453735s" begin="0s" fill="freeze" /></path><path d="M 4.7 0.8 C 5.5 -0.8 6.4 -2.8 7.0 -4.5 " transform="translate(0.0 38.0)" stroke-dasharray="5.780904781901665" stroke-dashoffset="5.780904781901665"><animate attributeName="stroke-dashoffset" from="5.780904781901665" to="0" dur="0.17342714345704993s" begin="1.1549840479453735s" fill="freeze" /></path><path d="M 12.1 3.1 L 12.1 -9.1 " transform="translate(0.0 38.0)" stroke-dasharray="12.2" stroke-dashoffset="12.2"><animate attributeName="stroke-dashoffset" from="12.2" to="0" dur="0.366s" begin="1.3284111914024235s" fill="freeze" /></path><path d="M 4.2 -9.0 C 9.0 -9.1 14.2 -9.5 18.6 -10.1 " transform="translate(0.0 38.0)" stroke-dasharray="14.449346736959896" stroke-dashoffset="14.449346736959896"><animate attributeName="stroke-dashoffset" from="14.449346736959896" to="0" dur="0.43348040210879685s" begin="1.6944111914024234s" fill="freeze" /></path><path d="M 19.0 -1.1 C 18.5 -2.3 17.8 -3.8 16.9 -5.0 " transform="translate(0.0 38.0)" stroke-dasharray="4.440517749327162" stroke-dashoffset="4.440517749327162"><animate attributeName="stroke-dashoffset" from="4.440517749327162" to="0" dur="0.13321553247981485s" begin="2.12789159351122s" fill="freeze" /></path><path d="M 11.3 -13.0 C 9.2 -15.3 7.8 -16.8 6.2 -18.2 " transform="translate(0.0 38.0)" stroke-dasharray="7.2875456449299145" stroke-dashoffset="7.2875456449299145"><animate attributeName="stroke-dashoffset" from="7.2875456449299145" to="0" dur="0.21862636934789742s" begin="2.261107125991035s" fill="freeze" /></path><path d="M 8.6 -9.4 C 11.1 -11.8 14.1 -15.4 16.1 -18.6 " transform="translate(0.0 38.0)" stroke-dasharray="11.89587453618535" stroke-dashoffset="11.89587453618535"><animate attributeName="stroke-dashoffset" from="11.89587453618535" to="0" dur="0.35687623608556046s" begin="2.4797334953389325s" fill="freeze" /></path><path d="M 19.9 -8.3 C 19.2 -9.8 18.4 -11.3 17.5 -12.6 " transform="translate(0.0 38.0)" stroke-dasharray="4.930165158579316" stroke-dashoffset="4.930165158579316"><animate attributeName="stroke-dashoffset" from="4.930165158579316" to="0" dur="0.14790495475737947s" begin="2.836609731424493s" fill="freeze" /></path><path d="M 8.1 -16.9 C 9.5 -18.5 10.7 -20.1 11.9 -22.1 " transform="translate(0.0 38.0)" stroke-dasharray="6.44957474492393" stroke-dashoffset="6.44957474492393"><animate attributeName="stroke-dashoffset" from="6.44957474492393" to="0" dur="0.19348724234771789s" begin="2.9845146861818725s" fill="freeze" /></path><path d="M 46.4 0.3 L 26.9 0.3 " transform="translate(0.0 38.0)" stroke-dasharray="19.5" stroke-dashoffset="19.5"><animate attributeName="stroke-dashoffset" from="19.5" to="0" dur="0.585s" begin="3.1780019285295906s" fill="freeze" /></path><path d="M 43.9 -5.8 L 26.4 -5.8 " transform="translate(0.0 38.0)" stroke-dasharray="17.5" stroke-dashoffset="17.5"><animate attributeName="stroke-dashoffset" from="17.5" to="0" dur="0.525s" begin="3.7630019285295906s" fill="freeze" /></path><path d="M 22.1 -13.1 C 24.4 -15.4 27.0 -18.9 28.6 -21.8 " transform="translate(0.0 38.0)" stroke-dasharray="10.890458893081515" stroke-dashoffset="10.890458893081515"><animate attributeName="stroke-dashoffset" from="10.890458893081515" to="0" dur="0.32671376679244546s" begin="4.2880019285295905s" fill="freeze" /></path><path d="M 35.5 0.0 L 35.5 -16.9 " transform="translate(0.0 38.0)" stroke-dasharray="16.9" stroke-dashoffset="16.9"><animate attributeName="stroke-dashoffset" from="16.9" to="0" dur="0.5069999999999999s" begin="4.614715695322036s" fill="freeze" /></path><path d="M 19.2 -25.2 L 19.2 -31.2 " transform="translate(0.0 38.0)" stroke-dasharray="6.0" stroke-dashoffset="6.0"><animate attributeName="stroke-dashoffset" from="6.0" to="0" dur="0.18s" begin="5.1217156953220355s" fill="freeze" /></path><path d="M 43.9 -11.7 L 26.4 -11.7 " transform="translate(0.0 38.0)" stroke-dasharray="17.5" stroke-dashoffset="17.5"><animate attributeName="stroke-dashoffset" from="17.5" to="0" dur="0.525s" begin="5.301715695322035s" fill="freeze" /></path><path d="M 11.7 -25.4 L 38.5 -25.4 C 41.0 -25.4 41.5 -26.1 41.5 -27.6 L 41.5 -29.4 C 41.5 -30.9 41.0 -31.5 38.5 -31.5 L 11.7 -31.5 C 9.3 -31.5 8.7 -30.9 8.7 -29.4 L 8.7 -27.6 C 8.7 -26.1 9.3 -25.4 11.7 -25.4 Z " transform="translate(0.0 38.0)" stroke-dasharray="74.46847349534572" stroke-dashoffset="74.46847349534572"><animate attributeName="stroke-dashoffset" from="74.46847349534572" to="0" dur="2.2340542048603713s" begin="5.826715695322036s" fill="freeze" /></path><path d="M 17.9 -34.9 L 17.9 -40.9 " transform="translate(0.0 38.0)" stroke-dasharray="6.0" stroke-dashoffset="6.0"><animate attributeName="stroke-dashoffset" from="6.0" to="0" dur="0.18s" begin="8.060769900182407s" fill="freeze" /></path><path d="M 34.6 -17.5 C 35.5 -18.8 36.1 -20.0 37.0 -21.6 " transform="translate(0.0 38.0)" stroke-dasharray="4.752980354405876" stroke-dashoffset="4.752980354405876"><animate attributeName="stroke-dashoffset" from="4.752980354405876" to="0" dur="0.14258941063217628s" begin="8.240769900182407s" fill="freeze" /></path><path d="M 30.2 -25.2 L 30.2 -31.2 " transform="translate(0.0 38.0)" stroke-dasharray="6.0" stroke-dashoffset="6.0"><animate attributeName="stroke-dashoffset" from="6.0" to="0" dur="0.18s" begin="8.383359310814583s" fill="freeze" /></path><path d="M 45.9 -37.6 L 3.9 -37.6 " transform="translate(0.0 38.0)" stroke-dasharray="42.0" stroke-dashoffset="42.0"><animate attributeName="stroke-dashoffset" from="42.0" to="0" dur="1.26s" begin="8.563359310814583s" fill="freeze" /></path><path d="M 31.6 -34.9 L 31.6 -40.9" transform="translate(0.0 38.0)" stroke-dasharray="6.0" stroke-dashoffset="6.0"><animate attributeName="stroke-dashoffset" from="6.0" to="0" dur="0.18s" begin="9.823359310814583s" fill="freeze" /></path></g></svg>