<?xml version='1.0' encoding='utf-8'?>
<svg viewBox="0.0 -6.0 50.0 50.0" version="1.1" xmlns="http://www.w3.org/2000/svg"><rect x="-1000" y="-1000" width="2000" height="2000" stroke="white" fill="white" /><g style="fill:none;stroke:#000000;stroke-width:1"><path d="M 10.3 0.6 C 11.0 0.8 11.8 0.8 12.5 0.8 C 14.4 0.8 15.5 -0.1 15.5 -2.4 L 15.5 -35.2 C 15.5 -37.7 14.7 -38.5 12.3 -38.5 L 9.8 -38.5 C 7.5 -38.5 6.7 -37.7 6.7 -35.2 L 6.7 -23.6 C 6.7 -11.2 5.7 -4.4 3.8 0.5 " transform="translate(0.0 38.0)" stroke-dasharray="89.30742768653683" stroke-dashoffset="89.30742768653683"><animate attributeName="stroke-dashoffset" from="89.30742768653683" to="0" dur="2.6792228305961046s" begin="0s" fill="freeze" /></path><path d="M 15.1 -15.2 L 6.2 -15.2 " transform="translate(0.0 38.0)" stroke-dasharray="8.899999999999999" stroke-dashoffset="8.899999999999999"><animate attributeName="stroke-dashoffset" from="8.899999999999999" to="0" dur="0.26699999999999996s" begin="2.6792228305961046s" fill="freeze" /></path><path d="M 46.3 1.1 L 19.6 1.1 " transform="translate(0.0 38.0)" stroke-dasharray="26.699999999999996" stroke-dashoffset="26.699999999999996"><animate attributeName="stroke-dashoffset" from="26.699999999999996" to="0" dur="0.8009999999999998s" begin="2.9462228305961045s" fill="freeze" /></path><path d="M 15.1 -27.0 L 6.5 -27.0 " transform="translate(0.0 38.0)" stroke-dasharray="8.6" stroke-dashoffset="8.6"><animate attributeName="stroke-dashoffset" from="8.6" to="0" dur="0.258s" begin="3.747222830596104s" fill="freeze" /></path><path d="M 43.1 -5.3 L 22.8 -5.3 " transform="translate(0.0 38.0)" stroke-dasharray="20.3" stroke-dashoffset="20.3"><animate attributeName="stroke-dashoffset" from="20.3" to="0" dur="0.609s" begin="4.005222830596104s" fill="freeze" /></path><path d="M 32.7 1.9 L 32.7 -37.0 " transform="translate(0.0 38.0)" stroke-dasharray="38.9" stroke-dashoffset="38.9"><animate attributeName="stroke-dashoffset" from="38.9" to="0" dur="1.1669999999999998s" begin="4.614222830596104s" fill="freeze" /></path><path d="M 27.0 -11.6 L 39.0 -11.6 C 42.0 -11.6 43.1 -12.4 43.1 -14.8 L 43.1 -21.2 C 43.1 -23.6 42.0 -24.4 39.0 -24.4 L 27.0 -24.4 C 24.0 -24.4 22.9 -23.6 22.9 -21.2 L 22.9 -14.8 C 22.9 -12.4 24.0 -11.6 27.0 -11.6 Z " transform="translate(0.0 38.0)" stroke-dasharray="61.09180344614369" stroke-dashoffset="61.09180344614369"><animate attributeName="stroke-dashoffset" from="61.09180344614369" to="0" dur="1.8327541033843107s" begin="5.7812228305961035s" fill="freeze" /></path><path d="M 42.5 -18.1 L 23.4 -18.1 " transform="translate(0.0 38.0)" stroke-dasharray="19.1" stroke-dashoffset="19.1"><animate attributeName="stroke-dashoffset" from="19.1" to="0" dur="0.5730000000000001s" begin="7.613976933980414s" fill="freeze" /></path><path d="M 46.2 -30.6 L 20.3 -30.6 " transform="translate(0.0 38.0)" stroke-dasharray="25.900000000000002" stroke-dashoffset="25.900000000000002"><animate attributeName="stroke-dashoffset" from="25.900000000000002" to="0" dur="0.777s" begin="8.186976933980414s" fill="freeze" /></path><path d="M 23.4 -36.5 C 29.3 -36.9 36.2 -37.9 42.0 -39.1" transform="translate(0.0 38.0)" stroke-dasharray="18.794132561683742" stroke-dashoffset="18.794132561683742"><animate attributeName="stroke-dashoffset" from="18.794132561683742" to="0" dur="0.5638239768505122s" begin="8.963976933980414s" fill="freeze" /></path></g></svg>