<?xml version='1.0' encoding='utf-8'?>
<svg viewBox="0.0 -6.0 50.0 50.0" version="1.1" xmlns="http://www.w3.org/2000/svg"><rect x="-1000" y="-1000" width="2000" height="2000" stroke="white" fill="white" /><g style="fill:none;stroke:#000000;stroke-width:1"><path d="M 37.5 0.5 C 38.5 0.7 39.5 0.8 40.7 0.8 C 43.2 0.8 44.5 -0.3 44.5 -2.6 L 44.5 -34.5 C 44.5 -37.1 43.4 -38.4 40.4 -38.4 L 27.1 -38.4 C 24.1 -38.4 23.0 -37.1 23.0 -34.5 L 23.0 2.1 " transform="translate(0.0 38.0)" stroke-dasharray="103.98251801767512" stroke-dashoffset="103.98251801767512"><animate attributeName="stroke-dashoffset" from="103.98251801767512" to="0" dur="3.1194755405302534s" begin="0s" fill="freeze" /></path><path d="M 14.8 -15.2 L 5.8 -15.2 " transform="translate(0.0 38.0)" stroke-dasharray="9.0" stroke-dashoffset="9.0"><animate attributeName="stroke-dashoffset" from="9.0" to="0" dur="0.27s" begin="3.1194755405302534s" fill="freeze" /></path><path d="M 10.1 0.1 C 10.8 0.2 11.5 0.3 12.3 0.3 C 14.2 0.3 15.3 -0.6 15.3 -3.0 L 15.3 -34.9 C 15.3 -37.3 14.5 -38.1 12.2 -38.1 L 9.6 -38.1 C 7.2 -38.1 6.3 -37.3 6.3 -34.9 L 6.3 -23.6 C 6.3 -11.2 5.3 -4.5 3.3 0.6 " transform="translate(0.0 38.0)" stroke-dasharray="88.29541355331443" stroke-dashoffset="88.29541355331443"><animate attributeName="stroke-dashoffset" from="88.29541355331443" to="0" dur="2.648862406599433s" begin="3.3894755405302535s" fill="freeze" /></path><path d="M 14.8 -26.8 L 6.0 -26.8 " transform="translate(0.0 38.0)" stroke-dasharray="8.8" stroke-dashoffset="8.8"><animate attributeName="stroke-dashoffset" from="8.8" to="0" dur="0.264s" begin="6.038337947129687s" fill="freeze" /></path><path d="M 32.5 -10.4 L 35.0 -10.4 C 37.0 -10.4 37.8 -11.2 37.8 -13.2 L 37.8 -19.4 C 37.8 -21.3 37.0 -22.1 35.0 -22.1 L 32.5 -22.1 C 30.6 -22.1 29.7 -21.3 29.7 -19.4 L 29.7 -13.2 C 29.7 -11.2 30.6 -10.4 32.5 -10.4 Z " transform="translate(0.0 38.0)" stroke-dasharray="35.61282091813623" stroke-dashoffset="35.61282091813623"><animate attributeName="stroke-dashoffset" from="35.61282091813623" to="0" dur="1.068384627544087s" begin="6.302337947129687s" fill="freeze" /></path><path d="M 39.1 -30.0 L 28.4 -30.0" transform="translate(0.0 38.0)" stroke-dasharray="10.700000000000003" stroke-dashoffset="10.700000000000003"><animate attributeName="stroke-dashoffset" from="10.700000000000003" to="0" dur="0.32100000000000006s" begin="7.370722574673774s" fill="freeze" /></path></g></svg>