<?xml version='1.0' encoding='utf-8'?>
<svg viewBox="0.0 -6.0 50.0 50.0" version="1.1" xmlns="http://www.w3.org/2000/svg"><rect x="-1000" y="-1000" width="2000" height="2000" stroke="white" fill="white" /><g style="fill:none;stroke:#000000;stroke-width:1"><path d="M 10.1 0.1 C 10.8 0.3 11.5 0.3 12.2 0.3 C 14.2 0.3 15.2 -0.5 15.2 -2.8 L 15.2 -35.4 C 15.2 -37.8 14.3 -38.5 12.1 -38.5 L 9.7 -38.5 C 7.3 -38.5 6.6 -37.8 6.6 -35.4 L 6.6 -23.6 C 6.6 -11.1 5.5 -4.4 3.6 0.6 " transform="translate(0.0 38.0)" stroke-dasharray="88.78249175907436" stroke-dashoffset="88.78249175907436"><animate attributeName="stroke-dashoffset" from="88.78249175907436" to="0" dur="2.6634747527722307s" begin="0s" fill="freeze" /></path><path d="M 14.8 -15.3 L 6.1 -15.3 " transform="translate(0.0 38.0)" stroke-dasharray="8.700000000000001" stroke-dashoffset="8.700000000000001"><animate attributeName="stroke-dashoffset" from="8.700000000000001" to="0" dur="0.261s" begin="2.6634747527722307s" fill="freeze" /></path><path d="M 14.8 -27.1 L 6.3 -27.1 " transform="translate(0.0 38.0)" stroke-dasharray="8.5" stroke-dashoffset="8.5"><animate attributeName="stroke-dashoffset" from="8.5" to="0" dur="0.255s" begin="2.924474752772231s" fill="freeze" /></path><path d="M 27.3 1.4 L 38.1 1.4 C 41.2 1.4 42.4 0.5 42.4 -1.9 L 42.4 -10.2 C 42.4 -12.7 41.2 -13.6 38.1 -13.6 L 27.3 -13.6 C 24.2 -13.6 23.1 -12.7 23.1 -10.2 L 23.1 -1.9 C 23.1 0.5 24.2 1.4 27.3 1.4 Z " transform="translate(0.0 38.0)" stroke-dasharray="63.40753201555298" stroke-dashoffset="63.40753201555298"><animate attributeName="stroke-dashoffset" from="63.40753201555298" to="0" dur="1.9022259604665894s" begin="3.1794747527722307s" fill="freeze" /></path><path d="M 41.5 -6.3 L 23.9 -6.3 " transform="translate(0.0 38.0)" stroke-dasharray="17.6" stroke-dashoffset="17.6"><animate attributeName="stroke-dashoffset" from="17.6" to="0" dur="0.528s" begin="5.0817007132388206s" fill="freeze" /></path><path d="M 32.5 0.3 L 32.5 -13.0 " transform="translate(0.0 38.0)" stroke-dasharray="13.3" stroke-dashoffset="13.3"><animate attributeName="stroke-dashoffset" from="13.3" to="0" dur="0.399s" begin="5.609700713238821s" fill="freeze" /></path><path d="M 19.4 -16.2 C 23.4 -18.4 27.8 -21.8 30.8 -25.4 " transform="translate(0.0 38.0)" stroke-dasharray="14.726732398546055" stroke-dashoffset="14.726732398546055"><animate attributeName="stroke-dashoffset" from="14.726732398546055" to="0" dur="0.44180197195638166s" begin="6.008700713238821s" fill="freeze" /></path><path d="M 26.6 -30.3 C 26.0 -31.2 25.4 -32.0 24.8 -32.9 " transform="translate(0.0 38.0)" stroke-dasharray="3.162379382680497" stroke-dashoffset="3.162379382680497"><animate attributeName="stroke-dashoffset" from="3.162379382680497" to="0" dur="0.0948713814804149s" begin="6.450502685195203s" fill="freeze" /></path><path d="M 32.5 -17.6 L 32.5 -36.6 " transform="translate(0.0 38.0)" stroke-dasharray="19.0" stroke-dashoffset="19.0"><animate attributeName="stroke-dashoffset" from="19.0" to="0" dur="0.57s" begin="6.545374066675618s" fill="freeze" /></path><path d="M 46.1 -26.8 L 20.1 -26.8 " transform="translate(0.0 38.0)" stroke-dasharray="26.0" stroke-dashoffset="26.0"><animate attributeName="stroke-dashoffset" from="26.0" to="0" dur="0.78s" begin="7.115374066675618s" fill="freeze" /></path><path d="M 46.5 -16.8 C 42.0 -18.8 37.5 -21.8 34.4 -25.2 " transform="translate(0.0 38.0)" stroke-dasharray="14.828356699176522" stroke-dashoffset="14.828356699176522"><animate attributeName="stroke-dashoffset" from="14.828356699176522" to="0" dur="0.44485070097529567s" begin="7.895374066675618s" fill="freeze" /></path><path d="M 21.6 -36.6 C 28.0 -36.9 36.2 -37.8 42.0 -39.1 " transform="translate(0.0 38.0)" stroke-dasharray="20.574433450449447" stroke-dashoffset="20.574433450449447"><animate attributeName="stroke-dashoffset" from="20.574433450449447" to="0" dur="0.6172330035134834s" begin="8.340224767650914s" fill="freeze" /></path><path d="M 38.8 -30.1 C 39.5 -31.3 40.2 -32.5 40.8 -33.8" transform="translate(0.0 38.0)" stroke-dasharray="4.207684798879808" stroke-dashoffset="4.207684798879808"><animate attributeName="stroke-dashoffset" from="4.207684798879808" to="0" dur="0.12623054396639424s" begin="8.957457771164398s" fill="freeze" /></path></g></svg>