<?xml version='1.0' encoding='utf-8'?>
<svg viewBox="0.0 -6.0 50.0 50.0" version="1.1" xmlns="http://www.w3.org/2000/svg"><rect x="-1000" y="-1000" width="2000" height="2000" stroke="white" fill="white" /><g style="fill:none;stroke:#000000;stroke-width:1"><path d="M 16.0 -4.8 L 33.9 -4.8 C 36.9 -4.8 37.8 -5.7 37.8 -7.5 L 37.8 -18.4 C 37.8 -20.2 36.9 -21.1 33.9 -21.1 L 16.0 -21.1 C 13.1 -21.1 12.1 -20.2 12.1 -18.4 L 12.1 -7.5 C 12.1 -5.7 13.1 -4.8 16.0 -4.8 Z " transform="translate(0.0 38.0)" stroke-dasharray="79.45012204571151" stroke-dashoffset="79.45012204571151"><animate attributeName="stroke-dashoffset" from="79.45012204571151" to="0" dur="2.3835036613713454s" begin="0s" fill="freeze" /></path><path d="M 5.8 2.5 C 9.8 1.9 14.8 0.5 18.6 -1.2 " transform="translate(0.0 38.0)" stroke-dasharray="13.360044127200762" stroke-dashoffset="13.360044127200762"><animate attributeName="stroke-dashoffset" from="13.360044127200762" to="0" dur="0.40080132381602285s" begin="2.3835036613713454s" fill="freeze" /></path><path d="M 37.1 -10.2 L 12.6 -10.2 " transform="translate(0.0 38.0)" stroke-dasharray="24.5" stroke-dashoffset="24.5"><animate attributeName="stroke-dashoffset" from="24.5" to="0" dur="0.735s" begin="2.7843049851873682s" fill="freeze" /></path><path d="M 43.7 2.4 C 39.3 1.5 34.7 0.1 31.1 -1.5 " transform="translate(0.0 38.0)" stroke-dasharray="13.213581101445335" stroke-dashoffset="13.213581101445335"><animate attributeName="stroke-dashoffset" from="13.213581101445335" to="0" dur="0.39640743304336007s" begin="3.519304985187368s" fill="freeze" /></path><path d="M 37.1 -15.7 L 12.6 -15.7 " transform="translate(0.0 38.0)" stroke-dasharray="24.5" stroke-dashoffset="24.5"><animate attributeName="stroke-dashoffset" from="24.5" to="0" dur="0.735s" begin="3.9157124182307284s" fill="freeze" /></path><path d="M 45.9 -26.4 L 4.2 -26.4 " transform="translate(0.0 38.0)" stroke-dasharray="41.699999999999996" stroke-dashoffset="41.699999999999996"><animate attributeName="stroke-dashoffset" from="41.699999999999996" to="0" dur="1.251s" begin="4.650712418230729s" fill="freeze" /></path><path d="M 40.0 -31.8 L 10.8 -31.8 " transform="translate(0.0 38.0)" stroke-dasharray="29.2" stroke-dashoffset="29.2"><animate attributeName="stroke-dashoffset" from="29.2" to="0" dur="0.876s" begin="5.901712418230728s" fill="freeze" /></path><path d="M 24.9 -26.1 L 24.9 -40.9 " transform="translate(0.0 38.0)" stroke-dasharray="14.799999999999997" stroke-dashoffset="14.799999999999997"><animate attributeName="stroke-dashoffset" from="14.799999999999997" to="0" dur="0.4439999999999999s" begin="6.7777124182307285s" fill="freeze" /></path><path d="M 44.0 -37.1 L 7.3 -37.1" transform="translate(0.0 38.0)" stroke-dasharray="36.7" stroke-dashoffset="36.7"><animate attributeName="stroke-dashoffset" from="36.7" to="0" dur="1.101s" begin="7.221712418230728s" fill="freeze" /></path></g></svg>