<?xml version='1.0' encoding='utf-8'?>
<svg viewBox="0.0 -6.0 50.0 50.0" version="1.1" xmlns="http://www.w3.org/2000/svg"><rect x="-1000" y="-1000" width="2000" height="2000" stroke="white" fill="white" /><g style="fill:none;stroke:#000000;stroke-width:1"><path d="M 25.8 -35.5 L 25.8 -17.7 C 25.8 -15.2 26.9 -14.2 29.6 -14.2 L 38.5 -14.2 C 41.2 -14.2 42.4 -15.2 42.4 -17.7 L 42.4 -35.5 C 42.4 -38.0 41.1 -39.0 38.5 -39.0 L 29.6 -39.0 C 26.9 -39.0 25.8 -38.0 25.8 -35.5 Z " transform="translate(0.0 38.0)" stroke-dasharray="77.54244336381329" stroke-dashoffset="77.54244336381329"><animate attributeName="stroke-dashoffset" from="77.54244336381329" to="0" dur="2.3262733009143988s" begin="0s; anim_end.end" fill="freeze" id="anim0" /></path><path d="M 3.9 -2.5 C 8.9 -3.5 14.2 -4.8 19.4 -6.8 " transform="translate(0.0 38.0)" stroke-dasharray="16.10503212868538" stroke-dashoffset="16.10503212868538"><animate attributeName="stroke-dashoffset" from="16.10503212868538" to="0" dur="0.4831509638605614s" begin="anim0.end" fill="freeze" id="anim1" /></path><path d="M 20.4 -4.5 C 19.6 -6.5 18.3 -9.2 17.4 -10.8 " transform="translate(0.0 38.0)" stroke-dasharray="6.981762889953758" stroke-dashoffset="6.981762889953758"><animate attributeName="stroke-dashoffset" from="6.981762889953758" to="0" dur="0.20945288669861273s" begin="anim1.end" fill="freeze" id="anim2" /></path><path d="M 20.4 1.9 C 26.2 -0.8 30.0 -5.8 30.8 -13.3 " transform="translate(0.0 38.0)" stroke-dasharray="19.335047261000838" stroke-dashoffset="19.335047261000838"><animate attributeName="stroke-dashoffset" from="19.335047261000838" to="0" dur="0.5800514178300251s" begin="anim2.end" fill="freeze" id="anim3" /></path><path d="M 11.8 -4.2 L 11.8 -40.1 " transform="translate(0.0 38.0)" stroke-dasharray="35.9" stroke-dashoffset="35.9"><animate attributeName="stroke-dashoffset" from="35.9" to="0" dur="1.077s" begin="anim3.end" fill="freeze" id="anim4" /></path><path d="M 18.4 -19.9 L 18.4 -28.1 C 18.4 -30.5 17.4 -31.4 15.1 -31.4 L 8.7 -31.4 C 6.2 -31.4 5.3 -30.5 5.3 -28.1 L 5.3 -19.9 C 5.3 -17.6 6.2 -16.6 8.7 -16.6 L 15.1 -16.6 C 17.4 -16.6 18.4 -17.6 18.4 -19.9 Z " transform="translate(0.0 38.0)" stroke-dasharray="51.09781640455558" stroke-dashoffset="51.09781640455558"><animate attributeName="stroke-dashoffset" from="51.09781640455558" to="0" dur="1.5329344921366674s" begin="anim4.end" fill="freeze" id="anim5" /></path><path d="M 46.4 -3.6 C 45.9 0.4 44.6 1.4 41.0 1.4 C 37.8 1.4 37.0 0.8 37.0 -1.1 L 37.0 -14.2 " transform="translate(0.0 38.0)" stroke-dasharray="27.059722749458665" stroke-dashoffset="27.059722749458665"><animate attributeName="stroke-dashoffset" from="27.059722749458665" to="0" dur="0.8117916824837599s" begin="anim5.end" fill="freeze" id="anim6" /></path><path d="M 41.8 -22.9 L 26.1 -22.9 " transform="translate(0.0 38.0)" stroke-dasharray="15.699999999999996" stroke-dashoffset="15.699999999999996"><animate attributeName="stroke-dashoffset" from="15.699999999999996" to="0" dur="0.47099999999999986s" begin="anim6.end" fill="freeze" id="anim7" /></path><path d="M 41.8 -30.8 L 26.1 -30.8" transform="translate(0.0 38.0)" stroke-dasharray="15.699999999999996" stroke-dashoffset="15.699999999999996"><animate attributeName="stroke-dashoffset" from="15.699999999999996" to="0" dur="0.47099999999999986s" begin="anim7.end" fill="freeze" id="anim_end" /></path></g></svg>