<?xml version='1.0' encoding='utf-8'?>
<svg viewBox="0.0 -6.0 50.0 50.0" version="1.1" xmlns="http://www.w3.org/2000/svg"><rect x="-1000" y="-1000" width="2000" height="2000" stroke="white" fill="white" /><g style="fill:none;stroke:#000000;stroke-width:1"><path d="M 44.1 -27.5 L 44.1 -30.9 C 44.1 -32.6 43.1 -33.5 40.6 -33.5 L 9.5 -33.5 C 6.9 -33.5 6.0 -32.6 6.0 -30.9 L 6.0 -26.9 " transform="translate(0.0 38.0)" stroke-dasharray="48.516489653256514" stroke-dashoffset="48.516489653256514"><animate attributeName="stroke-dashoffset" from="48.516489653256514" to="0" dur="1.4554946895976955s" begin="0s; 15s; 30s; 45s" fill="freeze" id="anim0" /></path><path d="M 9.6 2.1 C 15.1 1.6 22.9 0.2 28.2 -1.4 " transform="translate(0.0 38.0)" stroke-dasharray="18.952628750987234" stroke-dashoffset="18.952628750987234"><animate attributeName="stroke-dashoffset" from="18.952628750987234" to="0" dur="0.568578862529617s" begin="anim0.end" fill="freeze" id="anim1" /></path><path d="M 17.0 0.9 L 17.0 -5.2 " transform="translate(0.0 38.0)" stroke-dasharray="6.1000000000000005" stroke-dashoffset="6.1000000000000005"><animate attributeName="stroke-dashoffset" from="6.1000000000000005" to="0" dur="0.183s" begin="anim1.end" fill="freeze" id="anim2" /></path><path d="M 4.2 -3.4 C 11.3 -5.2 19.4 -9.2 24.0 -13.2 " transform="translate(0.0 38.0)" stroke-dasharray="22.261231447220087" stroke-dashoffset="22.261231447220087"><animate attributeName="stroke-dashoffset" from="22.261231447220087" to="0" dur="0.6678369434166026s" begin="anim2.end" fill="freeze" id="anim3" /></path><path d="M 45.6 -13.5 L 4.5 -13.5 " transform="translate(0.0 38.0)" stroke-dasharray="41.1" stroke-dashoffset="41.1"><animate attributeName="stroke-dashoffset" from="41.1" to="0" dur="1.233s" begin="anim3.end" fill="freeze" id="anim4" /></path><path d="M 45.0 1.9 C 37.0 -0.8 30.0 -5.9 26.2 -13.4 " transform="translate(0.0 38.0)" stroke-dasharray="24.864220782298005" stroke-dashoffset="24.864220782298005"><animate attributeName="stroke-dashoffset" from="24.864220782298005" to="0" dur="0.7459266234689401s" begin="anim4.end" fill="freeze" id="anim5" /></path><path d="M 24.8 -13.8 L 24.8 -19.4 " transform="translate(0.0 38.0)" stroke-dasharray="5.599999999999998" stroke-dashoffset="5.599999999999998"><animate attributeName="stroke-dashoffset" from="5.599999999999998" to="0" dur="0.16799999999999993s" begin="anim5.end" fill="freeze" id="anim6" /></path><path d="M 33.4 -4.5 C 35.7 -5.9 38.0 -7.7 39.9 -9.4 " transform="translate(0.0 38.0)" stroke-dasharray="8.150864438415748" stroke-dashoffset="8.150864438415748"><animate attributeName="stroke-dashoffset" from="8.150864438415748" to="0" dur="0.24452593315247245s" begin="anim6.end" fill="freeze" id="anim7" /></path><path d="M 18.6 -20.1 L 31.4 -20.1 C 34.0 -20.1 34.9 -20.8 34.9 -22.4 L 34.9 -25.2 C 34.9 -26.9 34.0 -27.6 31.4 -27.6 L 18.6 -27.6 C 15.9 -27.6 15.2 -26.9 15.2 -25.2 L 15.2 -22.4 C 15.2 -20.8 15.9 -20.1 18.6 -20.1 Z " transform="translate(0.0 38.0)" stroke-dasharray="50.54236002220751" stroke-dashoffset="50.54236002220751"><animate attributeName="stroke-dashoffset" from="50.54236002220751" to="0" dur="1.5162708006662253s" begin="anim7.end" fill="freeze" id="anim8" /></path><path d="M 16.3 -36.8 C 15.7 -37.8 14.8 -38.9 13.9 -39.8 " transform="translate(0.0 38.0)" stroke-dasharray="3.850688176296893" stroke-dashoffset="3.850688176296893"><animate attributeName="stroke-dashoffset" from="3.850688176296893" to="0" dur="0.11552064528890678s" begin="anim8.end" fill="freeze" id="anim9" /></path><path d="M 24.9 -33.7 L 24.9 -41.0 " transform="translate(0.0 38.0)" stroke-dasharray="7.299999999999997" stroke-dashoffset="7.299999999999997"><animate attributeName="stroke-dashoffset" from="7.299999999999997" to="0" dur="0.21899999999999992s" begin="anim9.end" fill="freeze" id="anim10" /></path><path d="M 33.5 -36.5 C 34.5 -37.5 35.4 -38.8 36.0 -39.9" transform="translate(0.0 38.0)" stroke-dasharray="4.233480025532005" stroke-dashoffset="4.233480025532005"><animate attributeName="stroke-dashoffset" from="4.233480025532005" to="0" dur="0.12700440076596015s" begin="anim10.end" fill="freeze" id="anim_end" /></path></g></svg>