<?xml version='1.0' encoding='utf-8'?>
<svg viewBox="0.0 -6.0 50.0 50.0" version="1.1" xmlns="http://www.w3.org/2000/svg"><rect x="-1000" y="-1000" width="2000" height="2000" stroke="white" fill="white" /><g style="fill:none;stroke:#000000;stroke-width:1"><path d="M 20.6 -16.4 L 29.6 -16.4 C 31.8 -16.4 32.7 -17.3 32.7 -19.2 L 32.7 -26.2 C 32.7 -28.1 31.8 -29.0 29.6 -29.0 L 20.6 -29.0 C 18.4 -29.0 17.5 -28.1 17.5 -26.2 L 17.5 -19.2 C 17.5 -17.3 18.4 -16.4 20.6 -16.4 Z " transform="translate(0.0 38.0)" stroke-dasharray="51.320469278026" stroke-dashoffset="51.320469278026"><animate attributeName="stroke-dashoffset" from="51.320469278026" to="0" dur="1.5396140783407801s" begin="0s; 15s; 30s; 45s" fill="freeze" id="anim0" /></path><path d="M 8.4 2.7 L 8.4 -19.8 " transform="translate(0.0 38.0)" stroke-dasharray="22.5" stroke-dashoffset="22.5"><animate attributeName="stroke-dashoffset" from="22.5" to="0" dur="0.6749999999999999s" begin="anim0.end" fill="freeze" id="anim1" /></path><path d="M 15.2 1.1 C 20.9 -1.5 24.4 -6.4 24.8 -12.7 " transform="translate(0.0 38.0)" stroke-dasharray="17.712789885523804" stroke-dashoffset="17.712789885523804"><animate attributeName="stroke-dashoffset" from="17.712789885523804" to="0" dur="0.5313836965657142s" begin="anim1.end" fill="freeze" id="anim2" /></path><path d="M 3.1 -16.4 C 6.0 -19.4 9.2 -24.5 11.2 -29.0 " transform="translate(0.0 38.0)" stroke-dasharray="15.043548715304663" stroke-dashoffset="15.043548715304663"><animate attributeName="stroke-dashoffset" from="15.043548715304663" to="0" dur="0.4513064614591399s" begin="anim2.end" fill="freeze" id="anim3" /></path><path d="M 30.7 -0.3 C 28.4 -2.0 25.9 -3.6 23.3 -4.9 " transform="translate(0.0 38.0)" stroke-dasharray="8.723955678061573" stroke-dashoffset="8.723955678061573"><animate attributeName="stroke-dashoffset" from="8.723955678061573" to="0" dur="0.2617186703418472s" begin="anim3.end" fill="freeze" id="anim4" /></path><path d="M 33.8 -9.0 L 15.1 -9.0 " transform="translate(0.0 38.0)" stroke-dasharray="18.699999999999996" stroke-dashoffset="18.699999999999996"><animate attributeName="stroke-dashoffset" from="18.699999999999996" to="0" dur="0.5609999999999998s" begin="anim4.end" fill="freeze" id="anim5" /></path><path d="M 3.5 -30.6 C 5.8 -32.7 8.5 -36.4 10.2 -39.6 " transform="translate(0.0 38.0)" stroke-dasharray="11.265614538767144" stroke-dashoffset="11.265614538767144"><animate attributeName="stroke-dashoffset" from="11.265614538767144" to="0" dur="0.3379684361630143s" begin="anim5.end" fill="freeze" id="anim6" /></path><path d="M 32.0 -22.8 L 18.0 -22.8 " transform="translate(0.0 38.0)" stroke-dasharray="14.0" stroke-dashoffset="14.0"><animate attributeName="stroke-dashoffset" from="14.0" to="0" dur="0.42s" begin="anim6.end" fill="freeze" id="anim7" /></path><path d="M 25.0 -17.0 L 25.0 -28.5 " transform="translate(0.0 38.0)" stroke-dasharray="11.5" stroke-dashoffset="11.5"><animate attributeName="stroke-dashoffset" from="11.5" to="0" dur="0.345s" begin="anim7.end" fill="freeze" id="anim8" /></path><path d="M 36.9 1.4 C 37.6 1.6 38.5 1.7 39.4 1.7 C 41.8 1.7 42.6 0.8 42.6 -1.4 L 42.6 -24.9 " transform="translate(0.0 38.0)" stroke-dasharray="31.236571741925072" stroke-dashoffset="31.236571741925072"><animate attributeName="stroke-dashoffset" from="31.236571741925072" to="0" dur="0.9370971522577521s" begin="anim8.end" fill="freeze" id="anim9" /></path><path d="M 14.4 -29.3 C 17.1 -32.1 19.6 -36.3 21.1 -39.9 " transform="translate(0.0 38.0)" stroke-dasharray="12.604358240779897" stroke-dashoffset="12.604358240779897"><animate attributeName="stroke-dashoffset" from="12.604358240779897" to="0" dur="0.3781307472233969s" begin="anim9.end" fill="freeze" id="anim10" /></path><path d="M 24.4 -29.3 C 25.2 -30.8 25.9 -32.1 26.4 -33.2 C 27.1 -34.8 26.5 -36.0 24.3 -36.0 L 19.1 -36.0 " transform="translate(0.0 38.0)" stroke-dasharray="14.044458139705792" stroke-dashoffset="14.044458139705792"><animate attributeName="stroke-dashoffset" from="14.044458139705792" to="0" dur="0.42133374419117375s" begin="anim10.end" fill="freeze" id="anim11" /></path><path d="M 47.2 -25.0 L 37.0 -25.0 " transform="translate(0.0 38.0)" stroke-dasharray="10.200000000000003" stroke-dashoffset="10.200000000000003"><animate attributeName="stroke-dashoffset" from="10.200000000000003" to="0" dur="0.30600000000000005s" begin="anim11.end" fill="freeze" id="anim12" /></path><path d="M 46.0 -37.3 L 38.0 -37.3" transform="translate(0.0 38.0)" stroke-dasharray="8.0" stroke-dashoffset="8.0"><animate attributeName="stroke-dashoffset" from="8.0" to="0" dur="0.24s" begin="anim12.end" fill="freeze" id="anim_end" /></path></g></svg>