<?xml version='1.0' encoding='utf-8'?>
<svg viewBox="0.0 -6.0 50.0 50.0" version="1.1" xmlns="http://www.w3.org/2000/svg"><rect x="-1000" y="-1000" width="2000" height="2000" stroke="white" fill="white" /><g style="fill:none;stroke:#000000;stroke-width:1"><path d="M 40.0 2.2 C 40.8 2.4 41.5 2.5 42.2 2.5 C 44.0 2.5 45.1 1.7 45.1 -0.6 L 45.1 -28.5 C 45.1 -30.2 44.4 -31.1 42.1 -31.1 L 38.6 -31.1 C 36.1 -31.1 35.5 -30.2 35.5 -28.5 L 35.5 -24.2 C 35.5 -22.4 36.1 -21.6 38.6 -21.6 L 44.1 -21.6 " transform="translate(0.0 38.0)" stroke-dasharray="62.40620345035617" stroke-dashoffset="62.40620345035617"><animate attributeName="stroke-dashoffset" from="62.40620345035617" to="0" dur="1.872186103510685s" begin="0s; anim_end.end" fill="freeze" id="anim0" /></path><path d="M 2.6 0.1 C 6.6 -0.8 11.9 -2.3 15.2 -3.7 " transform="translate(0.0 38.0)" stroke-dasharray="13.174790367980068" stroke-dashoffset="13.174790367980068"><animate attributeName="stroke-dashoffset" from="13.174790367980068" to="0" dur="0.39524371103940203s" begin="anim0.end" fill="freeze" id="anim1" /></path><path d="M 4.9 0.1 L 4.9 -18.7 " transform="translate(0.0 38.0)" stroke-dasharray="18.8" stroke-dashoffset="18.8"><animate attributeName="stroke-dashoffset" from="18.8" to="0" dur="0.564s" begin="anim1.end" fill="freeze" id="anim2" /></path><path d="M 10.2 -1.8 L 10.2 -25.7 " transform="translate(0.0 38.0)" stroke-dasharray="23.9" stroke-dashoffset="23.9"><animate attributeName="stroke-dashoffset" from="23.9" to="0" dur="0.717s" begin="anim2.end" fill="freeze" id="anim3" /></path><path d="M 14.6 -16.3 L 10.3 -16.3 " transform="translate(0.0 38.0)" stroke-dasharray="4.299999999999999" stroke-dashoffset="4.299999999999999"><animate attributeName="stroke-dashoffset" from="4.299999999999999" to="0" dur="0.12899999999999998s" begin="anim3.end" fill="freeze" id="anim4" /></path><path d="M 40.0 -2.0 L 26.9 -2.0 " transform="translate(0.0 38.0)" stroke-dasharray="13.100000000000001" stroke-dashoffset="13.100000000000001"><animate attributeName="stroke-dashoffset" from="13.100000000000001" to="0" dur="0.393s" begin="anim4.end" fill="freeze" id="anim5" /></path><path d="M 19.6 2.8 L 19.6 -28.5 C 19.6 -30.2 20.3 -31.1 22.6 -31.1 L 25.9 -31.1 C 28.2 -31.1 28.9 -30.2 28.9 -28.5 L 28.9 -24.2 C 28.9 -22.4 28.2 -21.6 25.9 -21.6 L 20.6 -21.6 " transform="translate(0.0 38.0)" stroke-dasharray="58.057157060499236" stroke-dashoffset="58.057157060499236"><animate attributeName="stroke-dashoffset" from="58.057157060499236" to="0" dur="1.741714711814977s" begin="anim5.end" fill="freeze" id="anim6" /></path><path d="M 23.4 -10.8 C 25.2 -13.0 26.9 -15.9 27.9 -18.6 " transform="translate(0.0 38.0)" stroke-dasharray="9.042805299388384" stroke-dashoffset="9.042805299388384"><animate attributeName="stroke-dashoffset" from="9.042805299388384" to="0" dur="0.2712841589816515s" begin="anim6.end" fill="freeze" id="anim7" /></path><path d="M 38.5 -6.7 L 26.9 -6.7 " transform="translate(0.0 38.0)" stroke-dasharray="11.600000000000001" stroke-dashoffset="11.600000000000001"><animate attributeName="stroke-dashoffset" from="11.600000000000001" to="0" dur="0.34800000000000003s" begin="anim7.end" fill="freeze" id="anim8" /></path><path d="M 26.6 0.6 L 26.6 -13.2 C 26.6 -14.8 27.2 -15.7 29.4 -15.7 L 39.7 -15.7 " transform="translate(0.0 38.0)" stroke-dasharray="28.466525465321467" stroke-dashoffset="28.466525465321467"><animate attributeName="stroke-dashoffset" from="28.466525465321467" to="0" dur="0.8539957639596439s" begin="anim8.end" fill="freeze" id="anim9" /></path><path d="M 10.8 -39.1 L 7.8 -39.1 C 5.6 -39.1 4.8 -38.4 4.8 -36.3 L 4.8 -29.1 C 4.8 -27.0 5.5 -26.3 7.7 -26.3 L 10.9 -26.3 C 13.0 -26.3 13.8 -27.0 13.8 -29.1 L 13.8 -36.3 C 13.8 -38.4 12.9 -39.1 10.8 -39.1 Z " transform="translate(0.0 38.0)" stroke-dasharray="39.6813339678189" stroke-dashoffset="39.6813339678189"><animate attributeName="stroke-dashoffset" from="39.6813339678189" to="0" dur="1.190440019034567s" begin="anim9.end" fill="freeze" id="anim10" /></path><path d="M 33.2 -2.4 L 33.2 -15.2 " transform="translate(0.0 38.0)" stroke-dasharray="12.799999999999999" stroke-dashoffset="12.799999999999999"><animate attributeName="stroke-dashoffset" from="12.799999999999999" to="0" dur="0.38399999999999995s" begin="anim10.end" fill="freeze" id="anim11" /></path><path d="M 38.5 -11.1 L 26.9 -11.1 " transform="translate(0.0 38.0)" stroke-dasharray="11.600000000000001" stroke-dashoffset="11.600000000000001"><animate attributeName="stroke-dashoffset" from="11.600000000000001" to="0" dur="0.34800000000000003s" begin="anim11.end" fill="freeze" id="anim12" /></path><path d="M 28.6 -26.4 L 20.0 -26.4 " transform="translate(0.0 38.0)" stroke-dasharray="8.600000000000001" stroke-dashoffset="8.600000000000001"><animate attributeName="stroke-dashoffset" from="8.600000000000001" to="0" dur="0.258s" begin="anim12.end" fill="freeze" id="anim13" /></path><path d="M 32.8 -15.1 C 33.4 -16.4 33.8 -17.4 34.2 -18.6 " transform="translate(0.0 38.0)" stroke-dasharray="3.771755556370032" stroke-dashoffset="3.771755556370032"><animate attributeName="stroke-dashoffset" from="3.771755556370032" to="0" dur="0.11315266669110095s" begin="anim13.end" fill="freeze" id="anim14" /></path><path d="M 27.0 -34.4 L 27.0 -40.6 " transform="translate(0.0 38.0)" stroke-dasharray="6.200000000000003" stroke-dashoffset="6.200000000000003"><animate attributeName="stroke-dashoffset" from="6.200000000000003" to="0" dur="0.18600000000000008s" begin="anim14.end" fill="freeze" id="anim15" /></path><path d="M 45.4 -26.4 L 36.0 -26.4 " transform="translate(0.0 38.0)" stroke-dasharray="9.399999999999999" stroke-dashoffset="9.399999999999999"><animate attributeName="stroke-dashoffset" from="9.399999999999999" to="0" dur="0.282s" begin="anim15.end" fill="freeze" id="anim16" /></path><path d="M 46.9 -37.2 L 18.3 -37.2 " transform="translate(0.0 38.0)" stroke-dasharray="28.599999999999998" stroke-dashoffset="28.599999999999998"><animate attributeName="stroke-dashoffset" from="28.599999999999998" to="0" dur="0.8579999999999999s" begin="anim16.end" fill="freeze" id="anim17" /></path><path d="M 36.8 -34.5 L 36.8 -40.6" transform="translate(0.0 38.0)" stroke-dasharray="6.100000000000001" stroke-dashoffset="6.100000000000001"><animate attributeName="stroke-dashoffset" from="6.100000000000001" to="0" dur="0.18300000000000002s" begin="anim17.end" fill="freeze" id="anim_end" /></path></g></svg>