<?xml version='1.0' encoding='utf-8'?>
<svg viewBox="0.0 -6.0 50.0 50.0" version="1.1" xmlns="http://www.w3.org/2000/svg"><rect x="-1000" y="-1000" width="2000" height="2000" stroke="white" fill="white" /><g style="fill:none;stroke:#000000;stroke-width:1"><path d="M 15.8 -27.9 L 8.6 -27.9 C 6.2 -27.9 5.2 -27.0 5.2 -24.9 L 5.2 -16.4 C 5.2 -14.2 6.2 -13.3 8.6 -13.3 L 15.8 -13.3 C 18.2 -13.3 19.2 -14.2 19.2 -16.4 L 19.2 -24.9 C 19.2 -27.0 18.2 -27.9 15.8 -27.9 Z " transform="translate(0.0 38.0)" stroke-dasharray="52.593401027909074" stroke-dashoffset="52.593401027909074"><animate attributeName="stroke-dashoffset" from="52.593401027909074" to="0" dur="1.5778020308372722s" begin="0s; anim_end.end" fill="freeze" id="anim0" /></path><path d="M 20.4 -6.5 L 2.8 -6.5 " transform="translate(0.0 38.0)" stroke-dasharray="17.599999999999998" stroke-dashoffset="17.599999999999998"><animate attributeName="stroke-dashoffset" from="17.599999999999998" to="0" dur="0.5279999999999999s" begin="anim0.end" fill="freeze" id="anim1" /></path><path d="M 12.1 2.7 L 12.1 -40.5 " transform="translate(0.0 38.0)" stroke-dasharray="43.2" stroke-dashoffset="43.2"><animate attributeName="stroke-dashoffset" from="43.2" to="0" dur="1.296s" begin="anim1.end" fill="freeze" id="anim2" /></path><path d="M 18.6 -20.8 L 5.5 -20.8 " transform="translate(0.0 38.0)" stroke-dasharray="13.100000000000001" stroke-dashoffset="13.100000000000001"><animate attributeName="stroke-dashoffset" from="13.100000000000001" to="0" dur="0.393s" begin="anim2.end" fill="freeze" id="anim3" /></path><path d="M 23.6 -3.0 C 30.6 -3.4 39.7 -4.7 46.6 -6.5 " transform="translate(0.0 38.0)" stroke-dasharray="23.297606380796616" stroke-dashoffset="23.297606380796616"><animate attributeName="stroke-dashoffset" from="23.297606380796616" to="0" dur="0.6989281914238984s" begin="anim3.end" fill="freeze" id="anim4" /></path><path d="M 28.2 -4.2 L 28.2 -23.9 " transform="translate(0.0 38.0)" stroke-dasharray="19.7" stroke-dashoffset="19.7"><animate attributeName="stroke-dashoffset" from="19.7" to="0" dur="0.591s" begin="anim4.end" fill="freeze" id="anim5" /></path><path d="M 40.3 -11.3 L 28.1 -11.3 " transform="translate(0.0 38.0)" stroke-dasharray="12.199999999999996" stroke-dashoffset="12.199999999999996"><animate attributeName="stroke-dashoffset" from="12.199999999999996" to="0" dur="0.3659999999999999s" begin="anim5.end" fill="freeze" id="anim6" /></path><path d="M 21.1 -34.3 L 3.2 -34.3 " transform="translate(0.0 38.0)" stroke-dasharray="17.900000000000002" stroke-dashoffset="17.900000000000002"><animate attributeName="stroke-dashoffset" from="17.900000000000002" to="0" dur="0.537s" begin="anim6.end" fill="freeze" id="anim7" /></path><path d="M 41.4 2.7 L 41.4 -24.1 " transform="translate(0.0 38.0)" stroke-dasharray="26.8" stroke-dashoffset="26.8"><animate attributeName="stroke-dashoffset" from="26.8" to="0" dur="0.8039999999999999s" begin="anim7.end" fill="freeze" id="anim8" /></path><path d="M 40.3 -17.9 L 28.1 -17.9 " transform="translate(0.0 38.0)" stroke-dasharray="12.199999999999996" stroke-dashoffset="12.199999999999996"><animate attributeName="stroke-dashoffset" from="12.199999999999996" to="0" dur="0.3659999999999999s" begin="anim8.end" fill="freeze" id="anim9" /></path><path d="M 46.6 -24.6 L 24.1 -24.6 " transform="translate(0.0 38.0)" stroke-dasharray="22.5" stroke-dashoffset="22.5"><animate attributeName="stroke-dashoffset" from="22.5" to="0" dur="0.6749999999999999s" begin="anim9.end" fill="freeze" id="anim10" /></path><path d="M 39.2 -39.0 L 30.6 -39.0 C 28.3 -39.0 27.4 -38.0 27.4 -36.4 L 27.4 -33.4 C 27.4 -31.8 28.3 -30.8 30.6 -30.8 L 39.2 -30.8 C 41.6 -30.8 42.4 -31.8 42.4 -33.4 L 42.4 -36.4 C 42.4 -38.0 41.6 -39.0 39.2 -39.0 Z" transform="translate(0.0 38.0)" stroke-dasharray="42.12214428267416" stroke-dashoffset="42.12214428267416"><animate attributeName="stroke-dashoffset" from="42.12214428267416" to="0" dur="1.2636643284802247s" begin="anim10.end" fill="freeze" id="anim_end" /></path></g></svg>