<?xml version='1.0' encoding='utf-8'?>
<svg viewBox="0.0 -6.0 50.0 50.0" version="1.1" xmlns="http://www.w3.org/2000/svg"><rect x="-1000" y="-1000" width="2000" height="2000" stroke="white" fill="white" /><g style="fill:none;stroke:#000000;stroke-width:1"><path d="M 33.4 1.8 C 34.4 1.9 35.3 2.0 36.1 2.0 C 38.1 2.0 39.3 1.4 39.3 -1.1 L 39.3 -22.8 C 39.3 -24.7 38.4 -25.8 35.1 -25.8 L 15.1 -25.8 C 11.9 -25.8 10.9 -24.7 10.9 -22.8 L 10.9 2.5 " transform="translate(0.0 38.0)" stroke-dasharray="86.7858583562858" stroke-dashoffset="86.7858583562858"><animate attributeName="stroke-dashoffset" from="86.7858583562858" to="0" dur="2.6035757506885737s" begin="0s; 15s; 30s; 45s" fill="freeze" id="anim0" /></path><path d="M 46.8 -9.8 L 3.2 -9.8 " transform="translate(0.0 38.0)" stroke-dasharray="43.599999999999994" stroke-dashoffset="43.599999999999994"><animate attributeName="stroke-dashoffset" from="43.599999999999994" to="0" dur="1.3079999999999998s" begin="anim0.end" fill="freeze" id="anim1" /></path><path d="M 38.9 -17.9 L 11.3 -17.9 " transform="translate(0.0 38.0)" stroke-dasharray="27.599999999999998" stroke-dashoffset="27.599999999999998"><animate attributeName="stroke-dashoffset" from="27.599999999999998" to="0" dur="0.828s" begin="anim1.end" fill="freeze" id="anim2" /></path><path d="M 24.8 -9.8 L 24.8 -30.1 " transform="translate(0.0 38.0)" stroke-dasharray="20.3" stroke-dashoffset="20.3"><animate attributeName="stroke-dashoffset" from="20.3" to="0" dur="0.609s" begin="anim2.end" fill="freeze" id="anim3" /></path><path d="M 17.7 -31.1 L 17.7 -40.5 " transform="translate(0.0 38.0)" stroke-dasharray="9.399999999999999" stroke-dashoffset="9.399999999999999"><animate attributeName="stroke-dashoffset" from="9.399999999999999" to="0" dur="0.282s" begin="anim3.end" fill="freeze" id="anim4" /></path><path d="M 45.2 -35.6 L 4.7 -35.6 " transform="translate(0.0 38.0)" stroke-dasharray="40.5" stroke-dashoffset="40.5"><animate attributeName="stroke-dashoffset" from="40.5" to="0" dur="1.2149999999999999s" begin="anim4.end" fill="freeze" id="anim5" /></path><path d="M 31.9 -31.2 L 31.9 -40.5" transform="translate(0.0 38.0)" stroke-dasharray="9.3" stroke-dashoffset="9.3"><animate attributeName="stroke-dashoffset" from="9.3" to="0" dur="0.279s" begin="anim5.end" fill="freeze" id="anim_end" /></path></g></svg>