<?xml version='1.0' encoding='utf-8'?>
<svg viewBox="0.0 -6.0 50.0 50.0" version="1.1" xmlns="http://www.w3.org/2000/svg"><rect x="-1000" y="-1000" width="2000" height="2000" stroke="white" fill="white" /><g style="fill:none;stroke:#000000;stroke-width:1"><path d="M 15.3 -1.7 L 15.3 -7.7 C 15.3 -9.7 14.5 -10.6 12.2 -10.6 L 8.4 -10.6 C 6.2 -10.6 5.3 -9.7 5.3 -7.7 L 5.3 -1.7 C 5.3 0.3 6.2 1.2 8.4 1.2 L 12.2 1.2 C 14.5 1.2 15.3 0.3 15.3 -1.7 Z " transform="translate(0.0 38.0)" stroke-dasharray="39.32311892906568" stroke-dashoffset="39.32311892906568"><animate attributeName="stroke-dashoffset" from="39.32311892906568" to="0" dur="1.1796935678719702s" begin="0s; anim_end.end" fill="freeze" id="anim0" /></path><path d="M 15.0 -17.5 L 5.5 -17.5 " transform="translate(0.0 38.0)" stroke-dasharray="9.5" stroke-dashoffset="9.5"><animate attributeName="stroke-dashoffset" from="9.5" to="0" dur="0.285s" begin="anim0.end" fill="freeze" id="anim1" /></path><path d="M 19.9 -0.2 C 24.1 -2.6 28.2 -6.2 30.9 -9.9 " transform="translate(0.0 38.0)" stroke-dasharray="14.766704015301281" stroke-dashoffset="14.766704015301281"><animate attributeName="stroke-dashoffset" from="14.766704015301281" to="0" dur="0.4430011204590384s" begin="anim1.end" fill="freeze" id="anim2" /></path><path d="M 15.0 -24.2 L 5.5 -24.2 " transform="translate(0.0 38.0)" stroke-dasharray="9.5" stroke-dashoffset="9.5"><animate attributeName="stroke-dashoffset" from="9.5" to="0" dur="0.285s" begin="anim2.end" fill="freeze" id="anim3" /></path><path d="M 32.8 2.4 L 32.8 -16.0 " transform="translate(0.0 38.0)" stroke-dasharray="18.4" stroke-dashoffset="18.4"><animate attributeName="stroke-dashoffset" from="18.4" to="0" dur="0.5519999999999999s" begin="anim3.end" fill="freeze" id="anim4" /></path><path d="M 17.2 -31.3 L 2.9 -31.3 " transform="translate(0.0 38.0)" stroke-dasharray="14.299999999999999" stroke-dashoffset="14.299999999999999"><animate attributeName="stroke-dashoffset" from="14.299999999999999" to="0" dur="0.42899999999999994s" begin="anim4.end" fill="freeze" id="anim5" /></path><path d="M 45.1 -12.1 L 21.4 -12.1 " transform="translate(0.0 38.0)" stroke-dasharray="23.700000000000003" stroke-dashoffset="23.700000000000003"><animate attributeName="stroke-dashoffset" from="23.700000000000003" to="0" dur="0.7110000000000001s" begin="anim5.end" fill="freeze" id="anim6" /></path><path d="M 45.9 -0.7 C 41.5 -3.1 37.1 -6.7 34.4 -10.2 " transform="translate(0.0 38.0)" stroke-dasharray="15.012714506404985" stroke-dashoffset="15.012714506404985"><animate attributeName="stroke-dashoffset" from="15.012714506404985" to="0" dur="0.4503814351921495s" begin="anim6.end" fill="freeze" id="anim7" /></path><path d="M 29.7 -21.4 L 29.7 -24.2 C 29.7 -25.9 28.8 -26.6 26.9 -26.6 L 23.5 -26.6 C 21.6 -26.6 20.8 -25.9 20.8 -24.2 L 20.8 -21.4 C 20.8 -19.7 21.6 -18.9 23.5 -18.9 L 26.9 -18.9 C 28.8 -18.9 29.7 -19.7 29.7 -21.4 Z " transform="translate(0.0 38.0)" stroke-dasharray="29.42273774456" stroke-dashoffset="29.42273774456"><animate attributeName="stroke-dashoffset" from="29.42273774456" to="0" dur="0.8826821323367999s" begin="anim7.end" fill="freeze" id="anim8" /></path><path d="M 15.0 -38.1 L 5.5 -38.1 " transform="translate(0.0 38.0)" stroke-dasharray="9.5" stroke-dashoffset="9.5"><animate attributeName="stroke-dashoffset" from="9.5" to="0" dur="0.285s" begin="anim8.end" fill="freeze" id="anim9" /></path><path d="M 35.9 -24.2 L 35.9 -21.4 C 35.9 -19.7 36.8 -18.9 38.6 -18.9 L 42.5 -18.9 C 44.4 -18.9 45.2 -19.7 45.2 -21.4 L 45.2 -24.2 C 45.2 -25.9 44.4 -26.6 42.5 -26.6 L 38.6 -26.6 C 36.8 -26.6 35.9 -25.9 35.9 -24.2 Z " transform="translate(0.0 38.0)" stroke-dasharray="30.241365080336482" stroke-dashoffset="30.241365080336482"><animate attributeName="stroke-dashoffset" from="30.241365080336482" to="0" dur="0.9072409524100944s" begin="anim9.end" fill="freeze" id="anim10" /></path><path d="M 36.3 -39.0 L 29.2 -39.0 C 27.2 -39.0 26.4 -38.2 26.4 -36.5 L 26.4 -33.9 C 26.4 -32.2 27.2 -31.4 29.2 -31.4 L 36.3 -31.4 C 38.3 -31.4 39.2 -32.2 39.2 -33.9 L 39.2 -36.5 C 39.2 -38.2 38.3 -39.0 36.3 -39.0 Z" transform="translate(0.0 38.0)" stroke-dasharray="36.90847440023167" stroke-dashoffset="36.90847440023167"><animate attributeName="stroke-dashoffset" from="36.90847440023167" to="0" dur="1.10725423200695s" begin="anim10.end" fill="freeze" id="anim_end" /></path></g></svg>