<?xml version='1.0' encoding='utf-8'?>
<svg viewBox="0.0 -6.0 50.0 50.0" version="1.1" xmlns="http://www.w3.org/2000/svg"><rect x="-1000" y="-1000" width="2000" height="2000" stroke="white" fill="white" /><g style="fill:none;stroke:#000000;stroke-width:1"><path d="M 32.0 -13.9 L 39.4 -13.9 C 42.0 -13.9 43.1 -14.9 43.1 -17.4 L 43.1 -35.6 C 43.1 -38.1 42.0 -39.0 39.4 -39.0 L 32.0 -39.0 C 29.4 -39.0 28.2 -38.1 28.2 -35.6 L 28.2 -17.4 C 28.2 -14.9 29.4 -13.9 32.0 -13.9 Z " transform="translate(0.0 38.0)" stroke-dasharray="74.87935171036203" stroke-dashoffset="74.87935171036203"><animate attributeName="stroke-dashoffset" from="74.87935171036203" to="0" dur="2.246380551310861s" begin="0s; anim_end.end" fill="freeze" id="anim0" /></path><path d="M 21.1 -1.4 L 8.1 -1.4 " transform="translate(0.0 38.0)" stroke-dasharray="13.000000000000002" stroke-dashoffset="13.000000000000002"><animate attributeName="stroke-dashoffset" from="13.000000000000002" to="0" dur="0.39s" begin="anim0.end" fill="freeze" id="anim1" /></path><path d="M 21.6 -8.0 L 8.2 -8.0 " transform="translate(0.0 38.0)" stroke-dasharray="13.400000000000002" stroke-dashoffset="13.400000000000002"><animate attributeName="stroke-dashoffset" from="13.400000000000002" to="0" dur="0.402s" begin="anim1.end" fill="freeze" id="anim2" /></path><path d="M 7.8 2.0 L 7.8 -17.4 C 7.8 -19.6 8.8 -20.5 11.3 -20.5 L 22.9 -20.5 " transform="translate(0.0 38.0)" stroke-dasharray="36.432914220819654" stroke-dashoffset="36.432914220819654"><animate attributeName="stroke-dashoffset" from="36.432914220819654" to="0" dur="1.0929874266245896s" begin="anim2.end" fill="freeze" id="anim3" /></path><path d="M 15.5 -1.4 L 15.5 -20.1 " transform="translate(0.0 38.0)" stroke-dasharray="18.700000000000003" stroke-dashoffset="18.700000000000003"><animate attributeName="stroke-dashoffset" from="18.700000000000003" to="0" dur="0.561s" begin="anim3.end" fill="freeze" id="anim4" /></path><path d="M 21.6 -14.2 L 8.2 -14.2 " transform="translate(0.0 38.0)" stroke-dasharray="13.400000000000002" stroke-dashoffset="13.400000000000002"><animate attributeName="stroke-dashoffset" from="13.400000000000002" to="0" dur="0.402s" begin="anim4.end" fill="freeze" id="anim5" /></path><path d="M 3.2 -15.1 C 7.7 -20.2 11.2 -27.6 13.1 -35.6 " transform="translate(0.0 38.0)" stroke-dasharray="22.98225398987467" stroke-dashoffset="22.98225398987467"><animate attributeName="stroke-dashoffset" from="22.98225398987467" to="0" dur="0.6894676196962402s" begin="anim5.end" fill="freeze" id="anim6" /></path><path d="M 23.5 2.2 C 28.7 -1.1 31.9 -6.4 32.6 -13.3 " transform="translate(0.0 38.0)" stroke-dasharray="18.636387719517693" stroke-dashoffset="18.636387719517693"><animate attributeName="stroke-dashoffset" from="18.636387719517693" to="0" dur="0.5590916315855308s" begin="anim6.end" fill="freeze" id="anim7" /></path><path d="M 14.7 -20.5 C 15.4 -21.9 15.9 -22.9 16.4 -24.1 " transform="translate(0.0 38.0)" stroke-dasharray="3.9820941566046404" stroke-dashoffset="3.9820941566046404"><animate attributeName="stroke-dashoffset" from="3.9820941566046404" to="0" dur="0.11946282469813921s" begin="anim7.end" fill="freeze" id="anim8" /></path><path d="M 23.4 -28.1 L 3.4 -28.1 " transform="translate(0.0 38.0)" stroke-dasharray="20.0" stroke-dashoffset="20.0"><animate attributeName="stroke-dashoffset" from="20.0" to="0" dur="0.6s" begin="anim8.end" fill="freeze" id="anim9" /></path><path d="M 4.7 -32.2 C 6.0 -34.3 7.5 -37.1 8.8 -40.4 " transform="translate(0.0 38.0)" stroke-dasharray="9.17987720704375" stroke-dashoffset="9.17987720704375"><animate attributeName="stroke-dashoffset" from="9.17987720704375" to="0" dur="0.2753963162113125s" begin="anim9.end" fill="freeze" id="anim10" /></path><path d="M 46.7 -3.5 C 46.2 0.5 45.0 1.5 41.9 1.5 C 39.1 1.5 38.3 0.8 38.3 -1.0 L 38.3 -14.2 " transform="translate(0.0 38.0)" stroke-dasharray="26.238430430305257" stroke-dashoffset="26.238430430305257"><animate attributeName="stroke-dashoffset" from="26.238430430305257" to="0" dur="0.7871529129091577s" begin="anim10.end" fill="freeze" id="anim11" /></path><path d="M 21.4 -35.8 L 6.8 -35.8 " transform="translate(0.0 38.0)" stroke-dasharray="14.599999999999998" stroke-dashoffset="14.599999999999998"><animate attributeName="stroke-dashoffset" from="14.599999999999998" to="0" dur="0.43799999999999994s" begin="anim11.end" fill="freeze" id="anim12" /></path><path d="M 42.6 -22.8 L 28.6 -22.8 " transform="translate(0.0 38.0)" stroke-dasharray="14.0" stroke-dashoffset="14.0"><animate attributeName="stroke-dashoffset" from="14.0" to="0" dur="0.42s" begin="anim12.end" fill="freeze" id="anim13" /></path><path d="M 42.6 -30.8 L 28.6 -30.8" transform="translate(0.0 38.0)" stroke-dasharray="14.0" stroke-dashoffset="14.0"><animate attributeName="stroke-dashoffset" from="14.0" to="0" dur="0.42s" begin="anim13.end" fill="freeze" id="anim_end" /></path></g></svg>