<?xml version='1.0' encoding='utf-8'?>
<svg viewBox="0.0 -6.0 50.0 50.0" version="1.1" xmlns="http://www.w3.org/2000/svg"><rect x="-1000" y="-1000" width="2000" height="2000" stroke="white" fill="white" /><g style="fill:none;stroke:#000000;stroke-width:1"><path d="M 46.8 0.5 C 42.6 0.9 38.1 1.1 32.5 1.1 C 18.1 1.1 13.1 -0.6 9.9 -5.0 " transform="translate(0.0 38.0)" stroke-dasharray="38.61814465536054" stroke-dashoffset="38.61814465536054"><animate attributeName="stroke-dashoffset" from="38.61814465536054" to="0" dur="1.1585443396608162s" begin="0s; 15s; 30s; 45s" fill="freeze" id="anim0" /></path><path d="M 3.5 1.4 C 6.0 -0.5 8.2 -2.5 10.0 -5.0 " transform="translate(0.0 38.0)" stroke-dasharray="9.156757984364015" stroke-dashoffset="9.156757984364015"><animate attributeName="stroke-dashoffset" from="9.156757984364015" to="0" dur="0.27470273953092045s" begin="anim0.end" fill="freeze" id="anim1" /></path><path d="M 9.8 -4.2 L 9.8 -13.2 C 9.8 -15.2 9.1 -15.8 6.8 -15.8 L 3.6 -15.8 " transform="translate(0.0 38.0)" stroke-dasharray="16.889477448288545" stroke-dashoffset="16.889477448288545"><animate attributeName="stroke-dashoffset" from="16.889477448288545" to="0" dur="0.5066843234486563s" begin="anim1.end" fill="freeze" id="anim2" /></path><path d="M 18.2 -3.2 C 22.8 -4.5 26.4 -7.5 27.4 -12.4 " transform="translate(0.0 38.0)" stroke-dasharray="13.735370601118689" stroke-dashoffset="13.735370601118689"><animate attributeName="stroke-dashoffset" from="13.735370601118689" to="0" dur="0.41206111803356066s" begin="anim2.end" fill="freeze" id="anim3" /></path><path d="M 8.8 -25.3 C 7.5 -26.6 6.1 -27.7 4.7 -28.5 " transform="translate(0.0 38.0)" stroke-dasharray="5.216026447245966" stroke-dashoffset="5.216026447245966"><animate attributeName="stroke-dashoffset" from="5.216026447245966" to="0" dur="0.15648079341737897s" begin="anim3.end" fill="freeze" id="anim4" /></path><path d="M 32.8 -3.5 C 33.6 -3.4 34.6 -3.2 35.6 -3.2 C 37.8 -3.2 38.7 -3.6 39.1 -5.0 C 39.4 -5.7 39.5 -6.2 39.5 -6.9 C 39.5 -8.1 38.8 -8.7 37.0 -8.7 L 25.7 -8.7 " transform="translate(0.0 38.0)" stroke-dasharray="23.9289051778225" stroke-dashoffset="23.9289051778225"><animate attributeName="stroke-dashoffset" from="23.9289051778225" to="0" dur="0.7178671553346749s" begin="anim4.end" fill="freeze" id="anim5" /></path><path d="M 19.6 -16.1 C 22.1 -16.9 24.6 -18.4 26.1 -20.3 " transform="translate(0.0 38.0)" stroke-dasharray="7.84522379100727" stroke-dashoffset="7.84522379100727"><animate attributeName="stroke-dashoffset" from="7.84522379100727" to="0" dur="0.2353567137302181s" begin="anim5.end" fill="freeze" id="anim6" /></path><path d="M 45.4 -12.9 L 15.4 -12.9 " transform="translate(0.0 38.0)" stroke-dasharray="30.0" stroke-dashoffset="30.0"><animate attributeName="stroke-dashoffset" from="30.0" to="0" dur="0.8999999999999999s" begin="anim6.end" fill="freeze" id="anim7" /></path><path d="M 29.6 -13.2 L 29.6 -16.2 " transform="translate(0.0 38.0)" stroke-dasharray="3.0" stroke-dashoffset="3.0"><animate attributeName="stroke-dashoffset" from="3.0" to="0" dur="0.09s" begin="anim7.end" fill="freeze" id="anim8" /></path><path d="M 11.3 -35.5 C 9.9 -36.9 8.8 -37.8 7.2 -38.8 " transform="translate(0.0 38.0)" stroke-dasharray="5.276195349502586" stroke-dashoffset="5.276195349502586"><animate attributeName="stroke-dashoffset" from="5.276195349502586" to="0" dur="0.1582858604850776s" begin="anim8.end" fill="freeze" id="anim9" /></path><path d="M 44.9 -19.2 L 44.9 -20.6 C 44.9 -21.9 44.1 -22.7 41.8 -22.7 L 19.4 -22.7 C 16.9 -22.7 16.1 -21.9 16.1 -20.2 L 16.1 -18.8 " transform="translate(0.0 38.0)" stroke-dasharray="34.26779497626811" stroke-dashoffset="34.26779497626811"><animate attributeName="stroke-dashoffset" from="34.26779497626811" to="0" dur="1.0280338492880432s" begin="anim9.end" fill="freeze" id="anim10" /></path><path d="M 41.2 -19.2 C 41.1 -17.6 40.1 -17.1 37.0 -17.1 C 34.4 -17.1 33.7 -17.5 33.7 -19.0 L 33.7 -22.5 " transform="translate(0.0 38.0)" stroke-dasharray="13.230059254876096" stroke-dashoffset="13.230059254876096"><animate attributeName="stroke-dashoffset" from="13.230059254876096" to="0" dur="0.39690177764628287s" begin="anim10.end" fill="freeze" id="anim11" /></path><path d="M 38.9 -30.5 L 21.9 -30.5 " transform="translate(0.0 38.0)" stroke-dasharray="17.0" stroke-dashoffset="17.0"><animate attributeName="stroke-dashoffset" from="17.0" to="0" dur="0.51s" begin="anim11.end" fill="freeze" id="anim12" /></path><path d="M 24.0 -26.6 L 36.6 -26.6 C 39.1 -26.6 39.8 -27.4 39.8 -28.8 L 39.8 -36.0 C 39.8 -37.4 39.1 -38.2 36.6 -38.2 L 24.0 -38.2 C 21.5 -38.2 20.8 -37.4 20.8 -36.0 L 20.8 -28.8 C 20.8 -27.4 21.5 -26.6 24.0 -26.6 Z " transform="translate(0.0 38.0)" stroke-dasharray="57.474823927927886" stroke-dashoffset="57.474823927927886"><animate attributeName="stroke-dashoffset" from="57.474823927927886" to="0" dur="1.7242447178378366s" begin="anim12.end" fill="freeze" id="anim13" /></path><path d="M 38.9 -34.2 L 21.9 -34.2 " transform="translate(0.0 38.0)" stroke-dasharray="17.0" stroke-dashoffset="17.0"><animate attributeName="stroke-dashoffset" from="17.0" to="0" dur="0.51s" begin="anim13.end" fill="freeze" id="anim14" /></path><path d="M 29.1 -37.9 C 29.5 -38.9 29.8 -39.7 30.1 -41.0 " transform="translate(0.0 38.0)" stroke-dasharray="3.261240667370013" stroke-dashoffset="3.261240667370013"><animate attributeName="stroke-dashoffset" from="3.261240667370013" to="0" dur="0.09783722002110039s" begin="anim14.end" fill="freeze" id="anim15" /></path><path d="M 30.1 -26.4 L 30.1 -22.8" transform="translate(0.0 38.0)" stroke-dasharray="3.599999999999998" stroke-dashoffset="3.599999999999998"><animate attributeName="stroke-dashoffset" from="3.599999999999998" to="0" dur="0.10799999999999993s" begin="anim15.end" fill="freeze" id="anim_end" /></path></g></svg>