<?xml version='1.0' encoding='utf-8'?>
<svg viewBox="0.0 -6.0 50.0 50.0" version="1.1" xmlns="http://www.w3.org/2000/svg"><rect x="-1000" y="-1000" width="2000" height="2000" stroke="white" fill="white" /><g style="fill:none;stroke:#000000;stroke-width:1"><path d="M 46.3 -0.4 C 42.2 0.0 38.2 0.1 32.5 0.1 C 19.5 0.1 15.1 -1.6 11.8 -6.5 " transform="translate(0.0 38.0)" stroke-dasharray="36.56117377198327" stroke-dashoffset="36.56117377198327"><animate attributeName="stroke-dashoffset" from="36.56117377198327" to="0" dur="1.096835213159498s" begin="0s" fill="freeze" /></path><path d="M 4.0 0.8 C 6.6 -0.9 9.3 -3.2 11.2 -5.8 " transform="translate(0.0 38.0)" stroke-dasharray="9.81786616519587" stroke-dashoffset="9.81786616519587"><animate attributeName="stroke-dashoffset" from="9.81786616519587" to="0" dur="0.2945359849558761s" begin="1.096835213159498s" fill="freeze" /></path><path d="M 11.6 -5.2 L 11.6 -16.1 C 11.6 -18.1 10.9 -18.8 8.4 -18.8 L 4.1 -18.8 " transform="translate(0.0 38.0)" stroke-dasharray="20.132393066434606" stroke-dashoffset="20.132393066434606"><animate attributeName="stroke-dashoffset" from="20.132393066434606" to="0" dur="0.6039717919930382s" begin="1.3913711981153742s" fill="freeze" /></path><path d="M 26.4 -12.4 C 26.1 -13.3 25.2 -15.1 24.2 -16.6 " transform="translate(0.0 38.0)" stroke-dasharray="4.751417544135363" stroke-dashoffset="4.751417544135363"><animate attributeName="stroke-dashoffset" from="4.751417544135363" to="0" dur="0.1425425263240609s" begin="1.9953429901084125s" fill="freeze" /></path><path d="M 45.4 -8.1 L 17.8 -8.1 " transform="translate(0.0 38.0)" stroke-dasharray="27.599999999999998" stroke-dashoffset="27.599999999999998"><animate attributeName="stroke-dashoffset" from="27.599999999999998" to="0" dur="0.828s" begin="2.1378855164324735s" fill="freeze" /></path><path d="M 12.2 -33.2 C 10.8 -34.7 8.7 -36.6 7.2 -37.7 " transform="translate(0.0 38.0)" stroke-dasharray="6.734649885358992" stroke-dashoffset="6.734649885358992"><animate attributeName="stroke-dashoffset" from="6.734649885358992" to="0" dur="0.20203949656076975s" begin="2.9658855164324733s" fill="freeze" /></path><path d="M 33.5 -9.1 C 34.8 -11.1 36.0 -13.7 37.0 -16.6 " transform="translate(0.0 38.0)" stroke-dasharray="8.296093636414815" stroke-dashoffset="8.296093636414815"><animate attributeName="stroke-dashoffset" from="8.296093636414815" to="0" dur="0.24888280909244445s" begin="3.1679250129932433s" fill="freeze" /></path><path d="M 25.5 -21.4 L 36.5 -21.4 C 39.4 -21.4 40.4 -22.4 40.4 -24.1 L 40.4 -28.4 C 40.4 -30.1 39.4 -31.1 36.5 -31.1 L 25.5 -31.1 C 22.7 -31.1 21.8 -30.1 21.8 -28.4 L 21.8 -24.1 C 21.8 -22.4 22.7 -21.4 25.5 -21.4 Z " transform="translate(0.0 38.0)" stroke-dasharray="51.97209180611354" stroke-dashoffset="51.97209180611354"><animate attributeName="stroke-dashoffset" from="51.97209180611354" to="0" dur="1.559162754183406s" begin="3.416807822085688s" fill="freeze" /></path><path d="M 44.8 -37.7 L 18.1 -37.7" transform="translate(0.0 38.0)" stroke-dasharray="26.699999999999996" stroke-dashoffset="26.699999999999996"><animate attributeName="stroke-dashoffset" from="26.699999999999996" to="0" dur="0.8009999999999998s" begin="4.975970576269094s" fill="freeze" /></path></g></svg>