<?xml version='1.0' encoding='utf-8'?>
<svg viewBox="0.0 -6.0 50.0 50.0" version="1.1" xmlns="http://www.w3.org/2000/svg"><rect x="-1000" y="-1000" width="2000" height="2000" stroke="white" fill="white" /><g style="fill:none;stroke:#000000;stroke-width:1"><path d="M 25.6 -34.5 L 25.6 -26.4 C 25.6 -24.2 26.7 -23.1 29.6 -23.1 L 39.2 -23.1 C 42.1 -23.1 43.2 -24.2 43.2 -26.4 L 43.2 -34.5 C 43.2 -36.6 42.1 -37.8 39.2 -37.8 L 29.6 -37.8 C 26.7 -37.8 25.6 -36.6 25.6 -34.5 Z " transform="translate(0.0 38.0)" stroke-dasharray="59.29656519985279" stroke-dashoffset="59.29656519985279"><animate attributeName="stroke-dashoffset" from="59.29656519985279" to="0" dur="1.7788969559955838s" begin="0s" fill="freeze" /></path><path d="M 3.5 1.2 C 4.5 -1.0 5.3 -3.7 5.7 -6.0 " transform="translate(0.0 38.0)" stroke-dasharray="7.547156759695348" stroke-dashoffset="7.547156759695348"><animate attributeName="stroke-dashoffset" from="7.547156759695348" to="0" dur="0.22641470279086043s" begin="1.7788969559955838s" fill="freeze" /></path><path d="M 10.5 -0.2 C 10.4 -2.2 10.2 -4.5 9.8 -6.0 " transform="translate(0.0 38.0)" stroke-dasharray="5.851130646217573" stroke-dashoffset="5.851130646217573"><animate attributeName="stroke-dashoffset" from="5.851130646217573" to="0" dur="0.17553391938652718s" begin="2.0053116587864444s" fill="freeze" /></path><path d="M 15.6 -1.5 C 15.2 -3.4 14.7 -5.1 14.1 -6.5 " transform="translate(0.0 38.0)" stroke-dasharray="5.228343992797278" stroke-dashoffset="5.228343992797278"><animate attributeName="stroke-dashoffset" from="5.228343992797278" to="0" dur="0.15685031978391833s" begin="2.1808455781729714s" fill="freeze" /></path><path d="M 20.4 -3.0 C 19.8 -4.5 19.0 -6.2 18.4 -7.3 " transform="translate(0.0 38.0)" stroke-dasharray="4.74471559264964" stroke-dashoffset="4.74471559264964"><animate attributeName="stroke-dashoffset" from="4.74471559264964" to="0" dur="0.1423414677794892s" begin="2.33769589795689s" fill="freeze" /></path><path d="M 23.1 0.8 C 26.4 0.1 30.0 -1.0 32.8 -2.1 " transform="translate(0.0 38.0)" stroke-dasharray="10.13474273513798" stroke-dashoffset="10.13474273513798"><animate attributeName="stroke-dashoffset" from="10.13474273513798" to="0" dur="0.3040422820541394s" begin="2.4800373657363792s" fill="freeze" /></path><path d="M 18.8 -14.2 L 18.8 -24.9 C 18.8 -26.8 17.9 -27.8 15.7 -27.8 L 8.8 -27.8 C 6.5 -27.8 5.8 -26.8 5.8 -24.9 L 5.8 -14.2 C 5.8 -12.2 6.5 -11.2 8.8 -11.2 L 15.7 -11.2 C 17.9 -11.2 18.8 -12.2 18.8 -14.2 Z " transform="translate(0.0 38.0)" stroke-dasharray="54.87505160334739" stroke-dashoffset="54.87505160334739"><animate attributeName="stroke-dashoffset" from="54.87505160334739" to="0" dur="1.6462515481004216s" begin="2.7840796477905188s" fill="freeze" /></path><path d="M 12.2 -11.9 L 12.2 -26.9 " transform="translate(0.0 38.0)" stroke-dasharray="14.999999999999998" stroke-dashoffset="14.999999999999998"><animate attributeName="stroke-dashoffset" from="14.999999999999998" to="0" dur="0.44999999999999996s" begin="4.430331195890941s" fill="freeze" /></path><path d="M 18.0 -19.8 L 6.2 -19.8 " transform="translate(0.0 38.0)" stroke-dasharray="11.8" stroke-dashoffset="11.8"><animate attributeName="stroke-dashoffset" from="11.8" to="0" dur="0.354s" begin="4.880331195890941s" fill="freeze" /></path><path d="M 26.2 -0.8 L 26.2 -18.1 " transform="translate(0.0 38.0)" stroke-dasharray="17.3" stroke-dashoffset="17.3"><animate attributeName="stroke-dashoffset" from="17.3" to="0" dur="0.519s" begin="5.234331195890941s" fill="freeze" /></path><path d="M 3.0 -28.8 C 5.3 -31.7 7.5 -35.8 9.1 -39.9 " transform="translate(0.0 38.0)" stroke-dasharray="12.708836184652657" stroke-dashoffset="12.708836184652657"><animate attributeName="stroke-dashoffset" from="12.708836184652657" to="0" dur="0.3812650855395797s" begin="5.753331195890941s" fill="freeze" /></path><path d="M 32.4 -11.6 L 26.8 -11.6 " transform="translate(0.0 38.0)" stroke-dasharray="5.599999999999998" stroke-dashoffset="5.599999999999998"><animate attributeName="stroke-dashoffset" from="5.599999999999998" to="0" dur="0.16799999999999993s" begin="6.134596281430521s" fill="freeze" /></path><path d="M 12.0 -28.4 C 12.9 -30.1 13.7 -31.8 14.0 -32.8 C 14.5 -34.2 13.8 -35.4 11.8 -35.4 L 7.2 -35.4 " transform="translate(0.0 38.0)" stroke-dasharray="13.609134442266871" stroke-dashoffset="13.609134442266871"><animate attributeName="stroke-dashoffset" from="13.609134442266871" to="0" dur="0.4082740332680061s" begin="6.302596281430521s" fill="freeze" /></path><path d="M 46.8 -4.0 C 46.4 -0.1 44.6 0.7 41.5 0.7 C 38.4 0.7 37.5 0.0 37.5 -2.2 L 37.5 -18.2 " transform="translate(0.0 38.0)" stroke-dasharray="29.898315058333868" stroke-dashoffset="29.898315058333868"><animate attributeName="stroke-dashoffset" from="29.898315058333868" to="0" dur="0.896949451750016s" begin="6.710870314698527s" fill="freeze" /></path><path d="M 38.5 -10.6 C 40.8 -11.4 43.2 -12.8 45.1 -14.2 " transform="translate(0.0 38.0)" stroke-dasharray="7.544370589808349" stroke-dashoffset="7.544370589808349"><animate attributeName="stroke-dashoffset" from="7.544370589808349" to="0" dur="0.22633111769425046s" begin="7.607819766448543s" fill="freeze" /></path><path d="M 43.3 -30.6 L 25.6 -30.6" transform="translate(0.0 38.0)" stroke-dasharray="17.699999999999996" stroke-dashoffset="17.699999999999996"><animate attributeName="stroke-dashoffset" from="17.699999999999996" to="0" dur="0.5309999999999998s" begin="7.834150884142794s" fill="freeze" /></path></g></svg>