<?xml version='1.0' encoding='utf-8'?>
<svg viewBox="0.0 -6.0 50.0 50.0" version="1.1" xmlns="http://www.w3.org/2000/svg"><rect x="-1000" y="-1000" width="2000" height="2000" stroke="white" fill="white" /><g style="fill:none;stroke:#000000;stroke-width:1"><path d="M 37.5 1.4 C 38.5 1.6 39.6 1.8 40.6 1.8 C 42.8 1.8 44.0 0.6 44.0 -2.1 L 44.0 -39.2 " transform="translate(0.0 38.0)" stroke-dasharray="46.16655177564479" stroke-dashoffset="46.16655177564479"><animate attributeName="stroke-dashoffset" from="46.16655177564479" to="0" dur="1.3849965532693438s" begin="0s" fill="freeze" /></path><path d="M 13.7 -0.6 C 16.1 -2.2 18.4 -4.0 19.9 -5.9 " transform="translate(0.0 38.0)" stroke-dasharray="8.18826277827608" stroke-dashoffset="8.18826277827608"><animate attributeName="stroke-dashoffset" from="8.18826277827608" to="0" dur="0.2456478833482824s" begin="1.3849965532693438s" fill="freeze" /></path><path d="M 6.1 2.2 L 6.1 -39.2 " transform="translate(0.0 38.0)" stroke-dasharray="41.400000000000006" stroke-dashoffset="41.400000000000006"><animate attributeName="stroke-dashoffset" from="41.400000000000006" to="0" dur="1.2420000000000002s" begin="1.6306444366176263s" fill="freeze" /></path><path d="M 33.8 -1.6 C 32.1 -2.9 30.1 -4.8 28.8 -6.2 " transform="translate(0.0 38.0)" stroke-dasharray="6.801006192719055" stroke-dashoffset="6.801006192719055"><animate attributeName="stroke-dashoffset" from="6.801006192719055" to="0" dur="0.20403018578157164s" begin="2.8726444366176267s" fill="freeze" /></path><path d="M 38.5 -10.6 L 11.6 -10.6 " transform="translate(0.0 38.0)" stroke-dasharray="26.9" stroke-dashoffset="26.9"><animate attributeName="stroke-dashoffset" from="26.9" to="0" dur="0.8069999999999999s" begin="3.0766746223991985s" fill="freeze" /></path><path d="M 19.6 -10.2 L 19.6 -22.3 " transform="translate(0.0 38.0)" stroke-dasharray="12.100000000000001" stroke-dashoffset="12.100000000000001"><animate attributeName="stroke-dashoffset" from="12.100000000000001" to="0" dur="0.36300000000000004s" begin="3.8836746223991985s" fill="freeze" /></path><path d="M 36.1 -17.8 L 13.8 -17.8 " transform="translate(0.0 38.0)" stroke-dasharray="22.3" stroke-dashoffset="22.3"><animate attributeName="stroke-dashoffset" from="22.3" to="0" dur="0.669s" begin="4.2466746223991985s" fill="freeze" /></path><path d="M 22.3 -27.0 L 10.8 -27.0 " transform="translate(0.0 38.0)" stroke-dasharray="11.5" stroke-dashoffset="11.5"><animate attributeName="stroke-dashoffset" from="11.5" to="0" dur="0.345s" begin="4.915674622399198s" fill="freeze" /></path><path d="M 29.6 -10.2 L 29.6 -22.3 " transform="translate(0.0 38.0)" stroke-dasharray="12.100000000000001" stroke-dashoffset="12.100000000000001"><animate attributeName="stroke-dashoffset" from="12.100000000000001" to="0" dur="0.36300000000000004s" begin="5.260674622399198s" fill="freeze" /></path><path d="M 16.3 -27.0 L 16.3 -37.7 " transform="translate(0.0 38.0)" stroke-dasharray="10.700000000000003" stroke-dashoffset="10.700000000000003"><animate attributeName="stroke-dashoffset" from="10.700000000000003" to="0" dur="0.32100000000000006s" begin="5.623674622399198s" fill="freeze" /></path><path d="M 20.6 -32.6 L 12.3 -32.6 " transform="translate(0.0 38.0)" stroke-dasharray="8.3" stroke-dashoffset="8.3"><animate attributeName="stroke-dashoffset" from="8.3" to="0" dur="0.249s" begin="5.944674622399198s" fill="freeze" /></path><path d="M 22.3 -38.1 L 10.8 -38.1 " transform="translate(0.0 38.0)" stroke-dasharray="11.5" stroke-dashoffset="11.5"><animate attributeName="stroke-dashoffset" from="11.5" to="0" dur="0.345s" begin="6.193674622399198s" fill="freeze" /></path><path d="M 39.4 -27.0 L 27.4 -27.0 " transform="translate(0.0 38.0)" stroke-dasharray="12.0" stroke-dashoffset="12.0"><animate attributeName="stroke-dashoffset" from="12.0" to="0" dur="0.36s" begin="6.538674622399197s" fill="freeze" /></path><path d="M 33.2 -27.0 L 33.2 -37.7 " transform="translate(0.0 38.0)" stroke-dasharray="10.700000000000003" stroke-dashoffset="10.700000000000003"><animate attributeName="stroke-dashoffset" from="10.700000000000003" to="0" dur="0.32100000000000006s" begin="6.898674622399198s" fill="freeze" /></path><path d="M 37.5 -32.6 L 28.9 -32.6 " transform="translate(0.0 38.0)" stroke-dasharray="8.600000000000001" stroke-dashoffset="8.600000000000001"><animate attributeName="stroke-dashoffset" from="8.600000000000001" to="0" dur="0.258s" begin="7.219674622399197s" fill="freeze" /></path><path d="M 39.1 -38.1 L 27.4 -38.1" transform="translate(0.0 38.0)" stroke-dasharray="11.700000000000003" stroke-dashoffset="11.700000000000003"><animate attributeName="stroke-dashoffset" from="11.700000000000003" to="0" dur="0.3510000000000001s" begin="7.4776746223991974s" fill="freeze" /></path></g></svg>