<?xml version='1.0' encoding='utf-8'?>
<svg viewBox="0.0 -6.0 50.0 50.0" version="1.1" xmlns="http://www.w3.org/2000/svg"><rect x="-1000" y="-1000" width="2000" height="2000" stroke="white" fill="white" /><g style="fill:none;stroke:#000000;stroke-width:1"><path d="M 44.3 -28.3 L 44.3 -31.4 C 44.3 -32.9 43.5 -33.9 41.1 -33.9 L 8.9 -33.9 C 6.5 -33.9 5.7 -32.9 5.7 -31.4 L 5.7 -28.1 " transform="translate(0.0 38.0)" stroke-dasharray="47.908192560266244" stroke-dashoffset="47.908192560266244"><animate attributeName="stroke-dashoffset" from="47.908192560266244" to="0" dur="1.4372457768079872s" begin="0s; anim_end.end" fill="freeze" id="anim0" /></path><path d="M 8.1 2.2 C 10.2 -0.1 12.4 -3.0 13.8 -5.5 " transform="translate(0.0 38.0)" stroke-dasharray="9.598980111139573" stroke-dashoffset="9.598980111139573"><animate attributeName="stroke-dashoffset" from="9.598980111139573" to="0" dur="0.2879694033341872s" begin="anim0.end" fill="freeze" id="anim1" /></path><path d="M 10.1 -10.6 C 8.8 -11.7 7.5 -12.7 6.5 -13.3 " transform="translate(0.0 38.0)" stroke-dasharray="4.504273449467433" stroke-dashoffset="4.504273449467433"><animate attributeName="stroke-dashoffset" from="4.504273449467433" to="0" dur="0.13512820348402296s" begin="anim1.end" fill="freeze" id="anim2" /></path><path d="M 14.1 -16.9 C 13.0 -17.9 11.6 -18.9 10.4 -19.6 " transform="translate(0.0 38.0)" stroke-dasharray="4.588018959807407" stroke-dashoffset="4.588018959807407"><animate attributeName="stroke-dashoffset" from="4.588018959807407" to="0" dur="0.1376405687942222s" begin="anim2.end" fill="freeze" id="anim3" /></path><path d="M 24.3 1.7 L 37.8 1.7 C 40.4 1.7 41.1 0.8 41.1 -1.1 L 41.1 -4.8 C 41.1 -6.7 40.1 -7.5 37.5 -7.5 L 24.3 -7.5 C 21.7 -7.5 20.9 -6.7 20.9 -4.8 L 20.9 -1.1 C 20.9 0.8 21.7 1.7 24.3 1.7 Z " transform="translate(0.0 38.0)" stroke-dasharray="54.550304367286515" stroke-dashoffset="54.550304367286515"><animate attributeName="stroke-dashoffset" from="54.550304367286515" to="0" dur="1.6365091310185953s" begin="anim3.end" fill="freeze" id="anim4" /></path><path d="M 19.1 -24.4 L 10.4 -24.4 " transform="translate(0.0 38.0)" stroke-dasharray="8.700000000000001" stroke-dashoffset="8.700000000000001"><animate attributeName="stroke-dashoffset" from="8.700000000000001" to="0" dur="0.261s" begin="anim4.end" fill="freeze" id="anim5" /></path><path d="M 19.1 -29.1 L 11.4 -29.1 " transform="translate(0.0 38.0)" stroke-dasharray="7.700000000000001" stroke-dashoffset="7.700000000000001"><animate attributeName="stroke-dashoffset" from="7.700000000000001" to="0" dur="0.231s" begin="anim5.end" fill="freeze" id="anim6" /></path><path d="M 30.2 -8.3 L 30.2 -19.4 " transform="translate(0.0 38.0)" stroke-dasharray="11.099999999999998" stroke-dashoffset="11.099999999999998"><animate attributeName="stroke-dashoffset" from="11.099999999999998" to="0" dur="0.3329999999999999s" begin="anim6.end" fill="freeze" id="anim7" /></path><path d="M 44.8 -14.9 L 30.6 -14.9 " transform="translate(0.0 38.0)" stroke-dasharray="14.199999999999996" stroke-dashoffset="14.199999999999996"><animate attributeName="stroke-dashoffset" from="14.199999999999996" to="0" dur="0.4259999999999999s" begin="anim7.end" fill="freeze" id="anim8" /></path><path d="M 24.9 -22.4 L 24.9 -38.8 " transform="translate(0.0 38.0)" stroke-dasharray="16.4" stroke-dashoffset="16.4"><animate attributeName="stroke-dashoffset" from="16.4" to="0" dur="0.49199999999999994s" begin="anim8.end" fill="freeze" id="anim9" /></path><path d="M 39.6 -24.4 L 30.4 -24.4 " transform="translate(0.0 38.0)" stroke-dasharray="9.200000000000003" stroke-dashoffset="9.200000000000003"><animate attributeName="stroke-dashoffset" from="9.200000000000003" to="0" dur="0.2760000000000001s" begin="anim9.end" fill="freeze" id="anim10" /></path><path d="M 38.1 -29.1 L 30.4 -29.1 " transform="translate(0.0 38.0)" stroke-dasharray="7.700000000000003" stroke-dashoffset="7.700000000000003"><animate attributeName="stroke-dashoffset" from="7.700000000000003" to="0" dur="0.23100000000000007s" begin="anim10.end" fill="freeze" id="anim11" /></path><path d="M 41.5 -38.9 L 9.2 -38.9" transform="translate(0.0 38.0)" stroke-dasharray="32.3" stroke-dashoffset="32.3"><animate attributeName="stroke-dashoffset" from="32.3" to="0" dur="0.9689999999999999s" begin="anim11.end" fill="freeze" id="anim_end" /></path></g></svg>