<?xml version='1.0' encoding='utf-8'?>
<svg viewBox="0.0 -6.0 50.0 50.0" version="1.1" xmlns="http://www.w3.org/2000/svg"><rect x="-1000" y="-1000" width="2000" height="2000" stroke="white" fill="white" /><g style="fill:none;stroke:#000000;stroke-width:1"><path d="M 6.5 2.2 L 6.5 -22.1 C 6.5 -23.9 7.4 -24.8 9.7 -24.8 L 14.5 -24.8 C 16.8 -24.8 17.6 -23.9 17.6 -22.1 L 17.6 -16.3 C 17.6 -14.5 16.8 -13.7 14.4 -13.7 L 7.5 -13.7 " transform="translate(0.0 38.0)" stroke-dasharray="56.19185348583335" stroke-dashoffset="56.19185348583335"><animate attributeName="stroke-dashoffset" from="56.19185348583335" to="0" dur="1.6857556045750004s" begin="0s; 15s; 30s; 45s" fill="freeze" id="anim0" /></path><path d="M 18.2 -2.5 L 7.3 -2.5 " transform="translate(0.0 38.0)" stroke-dasharray="10.899999999999999" stroke-dashoffset="10.899999999999999"><animate attributeName="stroke-dashoffset" from="10.899999999999999" to="0" dur="0.32699999999999996s" begin="anim0.end" fill="freeze" id="anim1" /></path><path d="M 18.2 -8.0 L 7.3 -8.0 " transform="translate(0.0 38.0)" stroke-dasharray="10.899999999999999" stroke-dashoffset="10.899999999999999"><animate attributeName="stroke-dashoffset" from="10.899999999999999" to="0" dur="0.32699999999999996s" begin="anim1.end" fill="freeze" id="anim2" /></path><path d="M 16.9 -19.2 L 7.3 -19.2 " transform="translate(0.0 38.0)" stroke-dasharray="9.599999999999998" stroke-dashoffset="9.599999999999998"><animate attributeName="stroke-dashoffset" from="9.599999999999998" to="0" dur="0.2879999999999999s" begin="anim2.end" fill="freeze" id="anim3" /></path><path d="M 22.0 1.9 C 31.3 0.6 37.1 -3.5 40.2 -12.6 " transform="translate(0.0 38.0)" stroke-dasharray="24.76310088181638" stroke-dashoffset="24.76310088181638"><animate attributeName="stroke-dashoffset" from="24.76310088181638" to="0" dur="0.7428930264544914s" begin="anim3.end" fill="freeze" id="anim4" /></path><path d="M 44.5 1.1 C 39.5 -1.9 33.6 -4.8 27.7 -6.8 " transform="translate(0.0 38.0)" stroke-dasharray="18.598728016499763" stroke-dashoffset="18.598728016499763"><animate attributeName="stroke-dashoffset" from="18.598728016499763" to="0" dur="0.5579618404949929s" begin="anim4.end" fill="freeze" id="anim5" /></path><path d="M 26.2 -5.9 C 28.9 -9.3 31.2 -13.8 33.0 -17.9 " transform="translate(0.0 38.0)" stroke-dasharray="13.828857692596786" stroke-dashoffset="13.828857692596786"><animate attributeName="stroke-dashoffset" from="13.828857692596786" to="0" dur="0.41486573077790356s" begin="anim5.end" fill="freeze" id="anim6" /></path><path d="M 3.5 -29.5 C 6.3 -31.7 9.8 -35.6 12.1 -39.7 " transform="translate(0.0 38.0)" stroke-dasharray="13.417029656884873" stroke-dashoffset="13.417029656884873"><animate attributeName="stroke-dashoffset" from="13.417029656884873" to="0" dur="0.4025108897065462s" begin="anim6.end" fill="freeze" id="anim7" /></path><path d="M 15.2 -29.9 L 9.6 -29.9 " transform="translate(0.0 38.0)" stroke-dasharray="5.6" stroke-dashoffset="5.6"><animate attributeName="stroke-dashoffset" from="5.6" to="0" dur="0.16799999999999998s" begin="anim7.end" fill="freeze" id="anim8" /></path><path d="M 46.2 -13.2 L 22.9 -13.2 " transform="translate(0.0 38.0)" stroke-dasharray="23.300000000000004" stroke-dashoffset="23.300000000000004"><animate attributeName="stroke-dashoffset" from="23.300000000000004" to="0" dur="0.6990000000000001s" begin="anim8.end" fill="freeze" id="anim9" /></path><path d="M 22.4 -20.2 C 26.1 -22.2 29.8 -25.5 32.5 -29.4 " transform="translate(0.0 38.0)" stroke-dasharray="13.781871663922788" stroke-dashoffset="13.781871663922788"><animate attributeName="stroke-dashoffset" from="13.781871663922788" to="0" dur="0.4134561499176836s" begin="anim9.end" fill="freeze" id="anim10" /></path><path d="M 18.4 -32.9 C 16.9 -34.5 14.3 -36.4 11.9 -37.8 " transform="translate(0.0 38.0)" stroke-dasharray="8.163954847999564" stroke-dashoffset="8.163954847999564"><animate attributeName="stroke-dashoffset" from="8.163954847999564" to="0" dur="0.24491864543998693s" begin="anim10.end" fill="freeze" id="anim11" /></path><path d="M 34.0 -21.8 L 34.0 -37.2 " transform="translate(0.0 38.0)" stroke-dasharray="15.400000000000002" stroke-dashoffset="15.400000000000002"><animate attributeName="stroke-dashoffset" from="15.400000000000002" to="0" dur="0.462s" begin="anim11.end" fill="freeze" id="anim12" /></path><path d="M 45.6 -30.2 L 23.3 -30.2 " transform="translate(0.0 38.0)" stroke-dasharray="22.3" stroke-dashoffset="22.3"><animate attributeName="stroke-dashoffset" from="22.3" to="0" dur="0.669s" begin="anim12.end" fill="freeze" id="anim13" /></path><path d="M 46.6 -20.9 C 42.5 -22.7 38.3 -25.8 35.7 -28.9 " transform="translate(0.0 38.0)" stroke-dasharray="13.627456597397593" stroke-dashoffset="13.627456597397593"><animate attributeName="stroke-dashoffset" from="13.627456597397593" to="0" dur="0.4088236979219278s" begin="anim13.end" fill="freeze" id="anim14" /></path><path d="M 25.3 -36.5 C 30.8 -36.8 37.1 -37.7 42.0 -39.0" transform="translate(0.0 38.0)" stroke-dasharray="16.91264440547426" stroke-dashoffset="16.91264440547426"><animate attributeName="stroke-dashoffset" from="16.91264440547426" to="0" dur="0.5073793321642278s" begin="anim14.end" fill="freeze" id="anim_end" /></path></g></svg>