<?xml version='1.0' encoding='utf-8'?>
<svg viewBox="0.0 -6.0 50.0 50.0" version="1.1" xmlns="http://www.w3.org/2000/svg"><rect x="-1000" y="-1000" width="2000" height="2000" stroke="white" fill="white" /><g style="fill:none;stroke:#000000;stroke-width:1"><path d="M 32.0 -7.2 L 39.7 -7.2 C 42.2 -7.2 43.2 -8.2 43.2 -10.4 L 43.2 -27.4 C 43.2 -29.7 42.3 -30.6 39.8 -30.6 L 31.9 -30.6 C 29.4 -30.6 28.4 -29.8 28.4 -27.5 L 28.4 -10.4 C 28.4 -8.2 29.5 -7.2 32.0 -7.2 Z " transform="translate(0.0 38.0)" stroke-dasharray="71.67217903281403" stroke-dashoffset="71.67217903281403"><animate attributeName="stroke-dashoffset" from="71.67217903281403" to="0" dur="2.150165370984421s" begin="0s" fill="freeze" /></path><path d="M 4.4 1.4 C 9.9 -1.9 13.4 -6.5 13.8 -15.4 " transform="translate(0.0 38.0)" stroke-dasharray="20.206276202011267" stroke-dashoffset="20.206276202011267"><animate attributeName="stroke-dashoffset" from="20.206276202011267" to="0" dur="0.606188286060338s" begin="2.150165370984421s" fill="freeze" /></path><path d="M 19.9 -1.4 C 17.7 -3.2 15.1 -4.8 12.2 -6.2 " transform="translate(0.0 38.0)" stroke-dasharray="9.094486652205955" stroke-dashoffset="9.094486652205955"><animate attributeName="stroke-dashoffset" from="9.094486652205955" to="0" dur="0.2728345995661786s" begin="2.756353657044759s" fill="freeze" /></path><path d="M 22.8 -10.8 L 4.5 -10.8 " transform="translate(0.0 38.0)" stroke-dasharray="18.3" stroke-dashoffset="18.3"><animate attributeName="stroke-dashoffset" from="18.3" to="0" dur="0.549s" begin="3.0291882566109374s" fill="freeze" /></path><path d="M 24.4 2.1 C 26.8 0.9 29.4 -1.0 31.3 -2.8 " transform="translate(0.0 38.0)" stroke-dasharray="8.49048615925498" stroke-dashoffset="8.49048615925498"><animate attributeName="stroke-dashoffset" from="8.49048615925498" to="0" dur="0.25471458477764936s" begin="3.5781882566109373s" fill="freeze" /></path><path d="M 4.0 -19.4 C 7.0 -21.6 10.3 -24.7 12.3 -27.6 " transform="translate(0.0 38.0)" stroke-dasharray="11.715636658626478" stroke-dashoffset="11.715636658626478"><animate attributeName="stroke-dashoffset" from="11.715636658626478" to="0" dur="0.3514690997587943s" begin="3.8329028413885866s" fill="freeze" /></path><path d="M 21.5 -20.9 C 19.5 -22.6 16.8 -24.4 14.3 -25.5 " transform="translate(0.0 38.0)" stroke-dasharray="8.571124777606993" stroke-dashoffset="8.571124777606993"><animate attributeName="stroke-dashoffset" from="8.571124777606993" to="0" dur="0.25713374332820976s" begin="4.184371941147381s" fill="freeze" /></path><path d="M 8.2 -33.9 C 7.8 -34.5 6.8 -35.8 6.2 -36.5 " transform="translate(0.0 38.0)" stroke-dasharray="3.281475646887395" stroke-dashoffset="3.281475646887395"><animate attributeName="stroke-dashoffset" from="3.281475646887395" to="0" dur="0.09844426940662185s" begin="4.441505684475591s" fill="freeze" /></path><path d="M 23.3 -29.2 L 3.5 -29.2 " transform="translate(0.0 38.0)" stroke-dasharray="19.8" stroke-dashoffset="19.8"><animate attributeName="stroke-dashoffset" from="19.8" to="0" dur="0.594s" begin="4.539949953882213s" fill="freeze" /></path><path d="M 45.5 1.8 C 43.5 0.6 41.2 -1.4 39.7 -3.0 " transform="translate(0.0 38.0)" stroke-dasharray="7.549172184856916" stroke-dashoffset="7.549172184856916"><animate attributeName="stroke-dashoffset" from="7.549172184856916" to="0" dur="0.22647516554570746s" begin="5.1339499538822135s" fill="freeze" /></path><path d="M 13.8 -19.6 L 13.8 -39.9 " transform="translate(0.0 38.0)" stroke-dasharray="20.299999999999997" stroke-dashoffset="20.299999999999997"><animate attributeName="stroke-dashoffset" from="20.299999999999997" to="0" dur="0.6089999999999999s" begin="5.360425119427921s" fill="freeze" /></path><path d="M 43.4 -15.3 L 28.3 -15.3 " transform="translate(0.0 38.0)" stroke-dasharray="15.099999999999998" stroke-dashoffset="15.099999999999998"><animate attributeName="stroke-dashoffset" from="15.099999999999998" to="0" dur="0.4529999999999999s" begin="5.969425119427921s" fill="freeze" /></path><path d="M 19.0 -33.6 C 19.7 -34.4 20.8 -35.8 21.4 -37.0 " transform="translate(0.0 38.0)" stroke-dasharray="4.1713426739649755" stroke-dashoffset="4.1713426739649755"><animate attributeName="stroke-dashoffset" from="4.1713426739649755" to="0" dur="0.12514028021894927s" begin="6.422425119427921s" fill="freeze" /></path><path d="M 43.4 -23.1 L 28.3 -23.1 " transform="translate(0.0 38.0)" stroke-dasharray="15.099999999999998" stroke-dashoffset="15.099999999999998"><animate attributeName="stroke-dashoffset" from="15.099999999999998" to="0" dur="0.4529999999999999s" begin="6.547565399646871s" fill="freeze" /></path><path d="M 34.0 -31.0 C 34.9 -33.1 35.6 -35.5 36.1 -38.0 " transform="translate(0.0 38.0)" stroke-dasharray="7.321047307400497" stroke-dashoffset="7.321047307400497"><animate attributeName="stroke-dashoffset" from="7.321047307400497" to="0" dur="0.2196314192220149s" begin="7.000565399646871s" fill="freeze" /></path><path d="M 46.5 -37.8 L 26.4 -37.8" transform="translate(0.0 38.0)" stroke-dasharray="20.1" stroke-dashoffset="20.1"><animate attributeName="stroke-dashoffset" from="20.1" to="0" dur="0.603s" begin="7.220196818868886s" fill="freeze" /></path></g></svg>