<?xml version='1.0' encoding='utf-8'?>
<svg viewBox="0.0 -6.0 50.0 50.0" version="1.1" xmlns="http://www.w3.org/2000/svg"><rect x="-1000" y="-1000" width="2000" height="2000" stroke="white" fill="white" /><g style="fill:none;stroke:#000000;stroke-width:1"><path d="M 29.6 -12.4 L 38.4 -12.4 C 41.1 -12.4 42.2 -13.2 42.2 -15.4 L 42.2 -26.4 C 42.2 -28.6 41.2 -29.4 38.6 -29.4 L 29.3 -29.4 C 26.6 -29.4 25.6 -28.6 25.6 -26.4 L 25.6 -15.4 C 25.6 -13.2 26.7 -12.4 29.6 -12.4 Z " transform="translate(0.0 38.0)" stroke-dasharray="62.549797315322536" stroke-dashoffset="62.549797315322536"><animate attributeName="stroke-dashoffset" from="62.549797315322536" to="0" dur="1.876493919459676s" begin="0s; 15s; 30s; 45s" fill="freeze" id="anim0" /></path><path d="M 3.5 -0.7 C 8.6 -1.4 14.3 -2.6 18.8 -4.3 " transform="translate(0.0 38.0)" stroke-dasharray="15.74829734142977" stroke-dashoffset="15.74829734142977"><animate attributeName="stroke-dashoffset" from="15.74829734142977" to="0" dur="0.4724489202428931s" begin="anim0.end" fill="freeze" id="anim1" /></path><path d="M 7.0 -7.0 C 6.6 -8.8 5.5 -11.3 4.8 -12.4 " transform="translate(0.0 38.0)" stroke-dasharray="5.851722177897445" stroke-dashoffset="5.851722177897445"><animate attributeName="stroke-dashoffset" from="5.851722177897445" to="0" dur="0.17555166533692335s" begin="anim1.end" fill="freeze" id="anim2" /></path><path d="M 20.0 2.3 C 22.9 1.2 26.2 -0.5 28.4 -2.1 " transform="translate(0.0 38.0)" stroke-dasharray="9.506855195454275" stroke-dashoffset="9.506855195454275"><animate attributeName="stroke-dashoffset" from="9.506855195454275" to="0" dur="0.2852056558636282s" begin="anim2.end" fill="freeze" id="anim3" /></path><path d="M 11.8 -2.8 L 11.8 -26.1 " transform="translate(0.0 38.0)" stroke-dasharray="23.3" stroke-dashoffset="23.3"><animate attributeName="stroke-dashoffset" from="23.3" to="0" dur="0.699s" begin="anim3.end" fill="freeze" id="anim4" /></path><path d="M 16.4 -8.5 C 17.1 -9.8 17.9 -11.6 18.4 -13.4 " transform="translate(0.0 38.0)" stroke-dasharray="5.302670575770688" stroke-dashoffset="5.302670575770688"><animate attributeName="stroke-dashoffset" from="5.302670575770688" to="0" dur="0.15908011727312063s" begin="anim4.end" fill="freeze" id="anim5" /></path><path d="M 19.2 -18.6 L 3.4 -18.6 " transform="translate(0.0 38.0)" stroke-dasharray="15.799999999999999" stroke-dashoffset="15.799999999999999"><animate attributeName="stroke-dashoffset" from="15.799999999999999" to="0" dur="0.474s" begin="anim5.end" fill="freeze" id="anim6" /></path><path d="M 17.2 -26.1 L 6.8 -26.1 " transform="translate(0.0 38.0)" stroke-dasharray="10.399999999999999" stroke-dashoffset="10.399999999999999"><animate attributeName="stroke-dashoffset" from="10.399999999999999" to="0" dur="0.31199999999999994s" begin="anim6.end" fill="freeze" id="anim7" /></path><path d="M 46.2 -7.1 L 21.9 -7.1 " transform="translate(0.0 38.0)" stroke-dasharray="24.300000000000004" stroke-dashoffset="24.300000000000004"><animate attributeName="stroke-dashoffset" from="24.300000000000004" to="0" dur="0.7290000000000001s" begin="anim7.end" fill="freeze" id="anim8" /></path><path d="M 3.0 -28.6 C 6.5 -31.4 9.9 -35.4 12.4 -39.5 " transform="translate(0.0 38.0)" stroke-dasharray="14.46175244826423" stroke-dashoffset="14.46175244826423"><animate attributeName="stroke-dashoffset" from="14.46175244826423" to="0" dur="0.4338525734479269s" begin="anim8.end" fill="freeze" id="anim9" /></path><path d="M 45.5 1.9 C 42.8 0.8 39.8 -0.9 37.9 -2.3 " transform="translate(0.0 38.0)" stroke-dasharray="8.702312184473133" stroke-dashoffset="8.702312184473133"><animate attributeName="stroke-dashoffset" from="8.702312184473133" to="0" dur="0.26106936553419396s" begin="anim9.end" fill="freeze" id="anim10" /></path><path d="M 18.8 -31.8 C 17.1 -33.7 14.8 -35.9 12.6 -37.5 " transform="translate(0.0 38.0)" stroke-dasharray="8.436364871597222" stroke-dashoffset="8.436364871597222"><animate attributeName="stroke-dashoffset" from="8.436364871597222" to="0" dur="0.25309094614791666s" begin="anim10.end" fill="freeze" id="anim11" /></path><path d="M 41.8 -18.1 L 26.4 -18.1 " transform="translate(0.0 38.0)" stroke-dasharray="15.399999999999999" stroke-dashoffset="15.399999999999999"><animate attributeName="stroke-dashoffset" from="15.399999999999999" to="0" dur="0.46199999999999997s" begin="anim11.end" fill="freeze" id="anim12" /></path><path d="M 41.8 -23.8 L 26.4 -23.8 " transform="translate(0.0 38.0)" stroke-dasharray="15.399999999999999" stroke-dashoffset="15.399999999999999"><animate attributeName="stroke-dashoffset" from="15.399999999999999" to="0" dur="0.46199999999999997s" begin="anim12.end" fill="freeze" id="anim13" /></path><path d="M 32.8 -29.6 C 33.5 -32.5 34.2 -36.5 34.8 -40.1 " transform="translate(0.0 38.0)" stroke-dasharray="10.690808898182668" stroke-dashoffset="10.690808898182668"><animate attributeName="stroke-dashoffset" from="10.690808898182668" to="0" dur="0.32072426694548006s" begin="anim13.end" fill="freeze" id="anim14" /></path><path d="M 45.8 -35.4 L 23.6 -35.4" transform="translate(0.0 38.0)" stroke-dasharray="22.199999999999996" stroke-dashoffset="22.199999999999996"><animate attributeName="stroke-dashoffset" from="22.199999999999996" to="0" dur="0.6659999999999998s" begin="anim14.end" fill="freeze" id="anim_end" /></path></g></svg>