<?xml version='1.0' encoding='utf-8'?>
<svg viewBox="0.0 -6.0 50.0 50.0" version="1.1" xmlns="http://www.w3.org/2000/svg"><rect x="-1000" y="-1000" width="2000" height="2000" stroke="white" fill="white" /><g style="fill:none;stroke:#000000;stroke-width:1"><path d="M 46.4 -5.0 C 45.8 -0.7 44.1 0.6 35.2 0.6 C 27.8 0.6 26.8 -0.4 26.8 -3.3 L 26.8 -35.2 " transform="translate(0.0 38.0)" stroke-dasharray="56.70601589272533" stroke-dashoffset="56.70601589272533"><animate attributeName="stroke-dashoffset" from="56.70601589272533" to="0" dur="1.70118047678176s" begin="0s" fill="freeze" /></path><path d="M 4.2 -0.2 C 9.1 -0.8 15.2 -2.1 19.6 -3.5 " transform="translate(0.0 38.0)" stroke-dasharray="15.769090415486579" stroke-dashoffset="15.769090415486579"><animate attributeName="stroke-dashoffset" from="15.769090415486579" to="0" dur="0.47307271246459737s" begin="1.70118047678176s" fill="freeze" /></path><path d="M 7.2 -6.8 C 6.8 -8.5 6.0 -10.4 5.2 -11.8 " transform="translate(0.0 38.0)" stroke-dasharray="5.401890823589405" stroke-dashoffset="5.401890823589405"><animate attributeName="stroke-dashoffset" from="5.401890823589405" to="0" dur="0.16205672470768215s" begin="2.1742531892463575s" fill="freeze" /></path><path d="M 12.1 -2.0 L 12.1 -25.9 " transform="translate(0.0 38.0)" stroke-dasharray="23.9" stroke-dashoffset="23.9"><animate attributeName="stroke-dashoffset" from="23.9" to="0" dur="0.717s" begin="2.3363099139540395s" fill="freeze" /></path><path d="M 16.9 -8.0 C 17.5 -9.2 18.1 -10.9 18.6 -12.6 " transform="translate(0.0 38.0)" stroke-dasharray="4.909806512017713" stroke-dashoffset="4.909806512017713"><animate attributeName="stroke-dashoffset" from="4.909806512017713" to="0" dur="0.1472941953605314s" begin="3.0533099139540396s" fill="freeze" /></path><path d="M 19.2 -18.2 L 3.9 -18.2 " transform="translate(0.0 38.0)" stroke-dasharray="15.299999999999999" stroke-dashoffset="15.299999999999999"><animate attributeName="stroke-dashoffset" from="15.299999999999999" to="0" dur="0.45899999999999996s" begin="3.200604109314571s" fill="freeze" /></path><path d="M 17.4 -25.8 L 7.2 -25.8 " transform="translate(0.0 38.0)" stroke-dasharray="10.2" stroke-dashoffset="10.2"><animate attributeName="stroke-dashoffset" from="10.2" to="0" dur="0.306s" begin="3.659604109314571s" fill="freeze" /></path><path d="M 3.1 -28.4 C 6.7 -31.3 10.2 -35.4 12.7 -39.5 " transform="translate(0.0 38.0)" stroke-dasharray="14.743480756846328" stroke-dashoffset="14.743480756846328"><animate attributeName="stroke-dashoffset" from="14.743480756846328" to="0" dur="0.44230442270538983s" begin="3.965604109314571s" fill="freeze" /></path><path d="M 19.1 -31.6 C 17.5 -33.6 15.1 -35.8 12.8 -37.4 " transform="translate(0.0 38.0)" stroke-dasharray="8.589881603654437" stroke-dashoffset="8.589881603654437"><animate attributeName="stroke-dashoffset" from="8.589881603654437" to="0" dur="0.2576964481096331s" begin="4.407908532019961s" fill="freeze" /></path><path d="M 39.1 -9.8 C 39.8 -9.8 40.0 -9.7 40.5 -9.7 C 42.2 -9.7 43.2 -10.6 43.6 -13.9 C 44.0 -16.9 44.3 -20.8 44.3 -24.9 C 44.3 -26.9 43.0 -27.9 40.6 -27.2 L 22.2 -22.2 " transform="translate(0.0 38.0)" stroke-dasharray="42.64695430251667" stroke-dashoffset="42.64695430251667"><animate attributeName="stroke-dashoffset" from="42.64695430251667" to="0" dur="1.2794086290755s" begin="4.6656049801295945s" fill="freeze" /></path><path d="M 35.0 -7.5 L 35.0 -39.8" transform="translate(0.0 38.0)" stroke-dasharray="32.3" stroke-dashoffset="32.3"><animate attributeName="stroke-dashoffset" from="32.3" to="0" dur="0.9689999999999999s" begin="5.945013609205095s" fill="freeze" /></path></g></svg>