<?xml version='1.0' encoding='utf-8'?>
<svg viewBox="0.0 -6.0 50.0 50.0" version="1.1" xmlns="http://www.w3.org/2000/svg"><rect x="-1000" y="-1000" width="2000" height="2000" stroke="white" fill="white" /><g style="fill:none;stroke:#000000;stroke-width:1"><path d="M 36.5 0.7 L 41.4 0.7 C 43.9 0.7 44.9 -0.1 44.9 -2.5 L 44.9 -14.2 C 44.9 -16.6 43.9 -17.4 41.4 -17.4 L 36.5 -17.4 C 34.0 -17.4 33.0 -16.6 33.0 -14.2 L 33.0 -2.5 C 33.0 -0.1 34.1 0.7 36.5 0.7 Z " transform="translate(0.0 38.0)" stroke-dasharray="55.36558119168433" stroke-dashoffset="55.36558119168433"><animate attributeName="stroke-dashoffset" from="55.36558119168433" to="0" dur="1.6609674357505297s" begin="0s; 15s; 30s; 45s" fill="freeze" id="anim0" /></path><path d="M 3.4 -0.6 C 8.0 -1.1 13.9 -2.4 18.3 -4.0 " transform="translate(0.0 38.0)" stroke-dasharray="15.31479557195604" stroke-dashoffset="15.31479557195604"><animate attributeName="stroke-dashoffset" from="15.31479557195604" to="0" dur="0.4594438671586812s" begin="anim0.end" fill="freeze" id="anim1" /></path><path d="M 6.5 -7.0 C 6.2 -8.9 5.2 -11.3 4.5 -12.6 " transform="translate(0.0 38.0)" stroke-dasharray="5.969300949052965" stroke-dashoffset="5.969300949052965"><animate attributeName="stroke-dashoffset" from="5.969300949052965" to="0" dur="0.17907902847158894s" begin="anim1.end" fill="freeze" id="anim2" /></path><path d="M 11.2 -2.4 L 11.2 -26.4 " transform="translate(0.0 38.0)" stroke-dasharray="24.0" stroke-dashoffset="24.0"><animate attributeName="stroke-dashoffset" from="24.0" to="0" dur="0.72s" begin="anim2.end" fill="freeze" id="anim3" /></path><path d="M 15.6 -8.3 C 16.2 -9.6 16.9 -11.4 17.5 -13.3 " transform="translate(0.0 38.0)" stroke-dasharray="5.352099934709373" stroke-dashoffset="5.352099934709373"><animate attributeName="stroke-dashoffset" from="5.352099934709373" to="0" dur="0.16056299804128119s" begin="anim3.end" fill="freeze" id="anim4" /></path><path d="M 18.1 -18.8 L 3.3 -18.8 " transform="translate(0.0 38.0)" stroke-dasharray="14.8" stroke-dashoffset="14.8"><animate attributeName="stroke-dashoffset" from="14.8" to="0" dur="0.444s" begin="anim4.end" fill="freeze" id="anim5" /></path><path d="M 25.8 1.9 L 25.8 -17.2 " transform="translate(0.0 38.0)" stroke-dasharray="19.099999999999998" stroke-dashoffset="19.099999999999998"><animate attributeName="stroke-dashoffset" from="19.099999999999998" to="0" dur="0.573s" begin="anim5.end" fill="freeze" id="anim6" /></path><path d="M 16.3 -26.4 L 6.5 -26.4 " transform="translate(0.0 38.0)" stroke-dasharray="9.8" stroke-dashoffset="9.8"><animate attributeName="stroke-dashoffset" from="9.8" to="0" dur="0.294s" begin="anim6.end" fill="freeze" id="anim7" /></path><path d="M 3.0 -28.9 C 6.2 -31.6 9.5 -35.6 11.8 -39.5 " transform="translate(0.0 38.0)" stroke-dasharray="13.836144581889453" stroke-dashoffset="13.836144581889453"><animate attributeName="stroke-dashoffset" from="13.836144581889453" to="0" dur="0.41508433745668355s" begin="anim7.end" fill="freeze" id="anim8" /></path><path d="M 21.8 -15.4 C 23.9 -18.4 26.4 -23.1 27.9 -27.4 " transform="translate(0.0 38.0)" stroke-dasharray="13.498061325051795" stroke-dashoffset="13.498061325051795"><animate attributeName="stroke-dashoffset" from="13.498061325051795" to="0" dur="0.40494183975155384s" begin="anim8.end" fill="freeze" id="anim9" /></path><path d="M 44.8 -8.6 L 33.0 -8.6 " transform="translate(0.0 38.0)" stroke-dasharray="11.799999999999997" stroke-dashoffset="11.799999999999997"><animate attributeName="stroke-dashoffset" from="11.799999999999997" to="0" dur="0.3539999999999999s" begin="anim9.end" fill="freeze" id="anim10" /></path><path d="M 17.8 -32.0 C 16.2 -34.0 13.9 -36.0 11.9 -37.5 " transform="translate(0.0 38.0)" stroke-dasharray="8.08570636453405" stroke-dashoffset="8.08570636453405"><animate attributeName="stroke-dashoffset" from="8.08570636453405" to="0" dur="0.24257119093602147s" begin="anim10.end" fill="freeze" id="anim11" /></path><path d="M 37.4 -17.8 C 38.0 -19.6 38.6 -22.1 39.1 -24.6 " transform="translate(0.0 38.0)" stroke-dasharray="7.013276624329677" stroke-dashoffset="7.013276624329677"><animate attributeName="stroke-dashoffset" from="7.013276624329677" to="0" dur="0.2103982987298903s" begin="anim11.end" fill="freeze" id="anim12" /></path><path d="M 46.2 -25.1 L 32.0 -25.1 " transform="translate(0.0 38.0)" stroke-dasharray="14.200000000000003" stroke-dashoffset="14.200000000000003"><animate attributeName="stroke-dashoffset" from="14.200000000000003" to="0" dur="0.42600000000000005s" begin="anim12.end" fill="freeze" id="anim13" /></path><path d="M 45.8 -29.8 L 45.8 -32.1 C 45.8 -34.0 44.9 -35.0 42.1 -35.0 L 26.9 -35.0 C 24.1 -35.0 23.1 -34.0 23.1 -32.2 L 23.1 -29.3 " transform="translate(0.0 38.0)" stroke-dasharray="31.254223876643373" stroke-dashoffset="31.254223876643373"><animate attributeName="stroke-dashoffset" from="31.254223876643373" to="0" dur="0.9376267162993012s" begin="anim13.end" fill="freeze" id="anim14" /></path><path d="M 34.1 -35.5 L 34.1 -40.4" transform="translate(0.0 38.0)" stroke-dasharray="4.899999999999999" stroke-dashoffset="4.899999999999999"><animate attributeName="stroke-dashoffset" from="4.899999999999999" to="0" dur="0.14699999999999996s" begin="anim14.end" fill="freeze" id="anim_end" /></path></g></svg>