<?xml version='1.0' encoding='utf-8'?>
<svg viewBox="0.0 -6.0 50.0 50.0" version="1.1" xmlns="http://www.w3.org/2000/svg"><rect x="-1000" y="-1000" width="2000" height="2000" stroke="white" fill="white" /><g style="fill:none;stroke:#000000;stroke-width:1"><path d="M 12.2 1.2 C 12.8 1.4 13.6 1.4 14.6 1.4 C 16.6 1.4 18.0 0.6 18.8 -2.0 C 19.6 -4.8 20.0 -8.6 20.1 -12.2 C 20.1 -14.0 19.4 -15.1 16.9 -15.1 L 8.3 -15.1 C 6.2 -15.1 5.3 -15.8 5.3 -17.9 L 5.3 -35.1 C 5.3 -37.4 6.2 -38.3 8.7 -38.3 L 19.8 -38.3 " transform="translate(0.0 38.0)" stroke-dasharray="70.77331930889314" stroke-dashoffset="70.77331930889314"><animate attributeName="stroke-dashoffset" from="70.77331930889314" to="0" dur="2.123199579266794s" begin="0s; 15s; 30s; 45s" fill="freeze" id="anim0" /></path><path d="M 2.9 -1.6 C 3.5 -3.5 4.0 -6.0 4.3 -8.2 " transform="translate(0.0 38.0)" stroke-dasharray="6.754144063695054" stroke-dashoffset="6.754144063695054"><animate attributeName="stroke-dashoffset" from="6.754144063695054" to="0" dur="0.2026243219108516s" begin="anim0.end" fill="freeze" id="anim1" /></path><path d="M 8.5 -3.5 C 8.4 -5.3 8.1 -7.5 7.7 -8.8 " transform="translate(0.0 38.0)" stroke-dasharray="5.370437917109568" stroke-dashoffset="5.370437917109568"><animate attributeName="stroke-dashoffset" from="5.370437917109568" to="0" dur="0.161113137513287s" begin="anim1.end" fill="freeze" id="anim2" /></path><path d="M 12.7 -5.7 C 12.3 -7.2 11.7 -8.7 11.2 -9.8 " transform="translate(0.0 38.0)" stroke-dasharray="4.370538952674702" stroke-dashoffset="4.370538952674702"><animate attributeName="stroke-dashoffset" from="4.370538952674702" to="0" dur="0.13111616858024105s" begin="anim2.end" fill="freeze" id="anim3" /></path><path d="M 16.2 -7.8 C 15.8 -8.8 15.1 -10.2 14.4 -11.1 " transform="translate(0.0 38.0)" stroke-dasharray="3.769316089913813" stroke-dashoffset="3.769316089913813"><animate attributeName="stroke-dashoffset" from="3.769316089913813" to="0" dur="0.11307948269741439s" begin="anim3.end" fill="freeze" id="anim4" /></path><path d="M 18.8 -23.3 L 6.1 -23.3 " transform="translate(0.0 38.0)" stroke-dasharray="12.700000000000001" stroke-dashoffset="12.700000000000001"><animate attributeName="stroke-dashoffset" from="12.700000000000001" to="0" dur="0.381s" begin="anim4.end" fill="freeze" id="anim5" /></path><path d="M 12.7 -15.1 L 12.7 -37.9 " transform="translate(0.0 38.0)" stroke-dasharray="22.799999999999997" stroke-dashoffset="22.799999999999997"><animate attributeName="stroke-dashoffset" from="22.799999999999997" to="0" dur="0.6839999999999999s" begin="anim5.end" fill="freeze" id="anim6" /></path><path d="M 34.9 2.6 L 34.9 -17.2 " transform="translate(0.0 38.0)" stroke-dasharray="19.8" stroke-dashoffset="19.8"><animate attributeName="stroke-dashoffset" from="19.8" to="0" dur="0.594s" begin="anim6.end" fill="freeze" id="anim7" /></path><path d="M 18.8 -30.7 L 6.1 -30.7 " transform="translate(0.0 38.0)" stroke-dasharray="12.700000000000001" stroke-dashoffset="12.700000000000001"><animate attributeName="stroke-dashoffset" from="12.700000000000001" to="0" dur="0.381s" begin="anim7.end" fill="freeze" id="anim8" /></path><path d="M 46.5 -9.6 L 24.7 -9.6 " transform="translate(0.0 38.0)" stroke-dasharray="21.8" stroke-dashoffset="21.8"><animate attributeName="stroke-dashoffset" from="21.8" to="0" dur="0.654s" begin="anim8.end" fill="freeze" id="anim9" /></path><path d="M 44.5 -17.7 L 26.2 -17.7 " transform="translate(0.0 38.0)" stroke-dasharray="18.3" stroke-dashoffset="18.3"><animate attributeName="stroke-dashoffset" from="18.3" to="0" dur="0.549s" begin="anim9.end" fill="freeze" id="anim10" /></path><path d="M 30.3 -24.6 L 40.1 -24.6 C 43.1 -24.6 44.0 -25.7 44.0 -27.9 L 44.0 -35.1 C 44.0 -37.2 43.1 -38.4 40.1 -38.4 L 30.3 -38.4 C 27.4 -38.4 26.4 -37.2 26.4 -35.1 L 26.4 -27.9 C 26.4 -25.7 27.4 -24.6 30.3 -24.6 Z " transform="translate(0.0 38.0)" stroke-dasharray="57.67375174648994" stroke-dashoffset="57.67375174648994"><animate attributeName="stroke-dashoffset" from="57.67375174648994" to="0" dur="1.730212552394698s" begin="anim10.end" fill="freeze" id="anim11" /></path><path d="M 44.0 -31.6 L 26.5 -31.6" transform="translate(0.0 38.0)" stroke-dasharray="17.5" stroke-dashoffset="17.5"><animate attributeName="stroke-dashoffset" from="17.5" to="0" dur="0.525s" begin="anim11.end" fill="freeze" id="anim_end" /></path></g></svg>