<?xml version='1.0' encoding='utf-8'?>
<svg viewBox="0.0 -6.0 50.0 50.0" version="1.1" xmlns="http://www.w3.org/2000/svg"><rect x="-1000" y="-1000" width="2000" height="2000" stroke="white" fill="white" /><g style="fill:none;stroke:#000000;stroke-width:1"><path d="M 4.1 0.3 C 7.4 -5.2 9.2 -13.6 9.2 -24.4 L 9.2 -28.9 C 9.2 -30.9 10.0 -31.8 12.9 -31.8 L 37.9 -31.8 C 40.0 -31.8 40.8 -30.9 40.8 -29.6 L 40.8 -27.6 C 40.8 -26.1 40.0 -25.3 37.9 -25.3 L 9.5 -25.3 " transform="translate(0.0 38.0)" stroke-dasharray="99.29597567948358" stroke-dashoffset="99.29597567948358"><animate attributeName="stroke-dashoffset" from="99.29597567948358" to="0" dur="2.9788792703845073s" begin="0s; 15s; 30s; 45s" fill="freeze" id="anim0" /></path><path d="M 44.6 0.5 L 17.9 0.5 " transform="translate(0.0 38.0)" stroke-dasharray="26.700000000000003" stroke-dashoffset="26.700000000000003"><animate attributeName="stroke-dashoffset" from="26.700000000000003" to="0" dur="0.801s" begin="anim0.end" fill="freeze" id="anim1" /></path><path d="M 13.1 -9.8 C 15.8 -13.0 18.8 -17.6 20.2 -21.3 " transform="translate(0.0 38.0)" stroke-dasharray="13.569913178296796" stroke-dashoffset="13.569913178296796"><animate attributeName="stroke-dashoffset" from="13.569913178296796" to="0" dur="0.4070973953489039s" begin="anim1.end" fill="freeze" id="anim2" /></path><path d="M 41.5 -5.6 L 18.6 -5.6 " transform="translate(0.0 38.0)" stroke-dasharray="22.9" stroke-dashoffset="22.9"><animate attributeName="stroke-dashoffset" from="22.9" to="0" dur="0.6869999999999999s" begin="anim2.end" fill="freeze" id="anim3" /></path><path d="M 17.8 3.0 L 17.8 -13.9 C 17.8 -16.1 18.9 -17.0 21.8 -17.0 L 43.5 -17.0 " transform="translate(0.0 38.0)" stroke-dasharray="44.46668871470113" stroke-dashoffset="44.46668871470113"><animate attributeName="stroke-dashoffset" from="44.46668871470113" to="0" dur="1.3340006614410338s" begin="anim3.end" fill="freeze" id="anim4" /></path><path d="M 30.1 0.7 L 30.1 -16.2 " transform="translate(0.0 38.0)" stroke-dasharray="16.9" stroke-dashoffset="16.9"><animate attributeName="stroke-dashoffset" from="16.9" to="0" dur="0.5069999999999999s" begin="anim4.end" fill="freeze" id="anim5" /></path><path d="M 41.4 -11.3 L 18.4 -11.3 " transform="translate(0.0 38.0)" stroke-dasharray="23.0" stroke-dashoffset="23.0"><animate attributeName="stroke-dashoffset" from="23.0" to="0" dur="0.69s" begin="anim5.end" fill="freeze" id="anim6" /></path><path d="M 29.2 -16.1 C 30.0 -17.5 30.8 -19.2 31.5 -21.1 " transform="translate(0.0 38.0)" stroke-dasharray="5.509810728855036" stroke-dashoffset="5.509810728855036"><animate attributeName="stroke-dashoffset" from="5.509810728855036" to="0" dur="0.16529432186565107s" begin="anim6.end" fill="freeze" id="anim7" /></path><path d="M 44.5 -37.9 L 5.7 -37.9" transform="translate(0.0 38.0)" stroke-dasharray="38.8" stroke-dashoffset="38.8"><animate attributeName="stroke-dashoffset" from="38.8" to="0" dur="1.164s" begin="anim7.end" fill="freeze" id="anim_end" /></path></g></svg>