<?xml version='1.0' encoding='utf-8'?>
<svg viewBox="0.0 -6.0 50.0 50.0" version="1.1" xmlns="http://www.w3.org/2000/svg"><rect x="-1000" y="-1000" width="2000" height="2000" stroke="white" fill="white" /><g style="fill:none;stroke:#000000;stroke-width:1"><path d="M 13.9 1.3 L 13.9 -10.1 C 13.9 -11.7 14.7 -12.3 17.2 -12.3 L 31.8 -12.3 C 34.4 -12.3 35.1 -11.7 35.1 -10.1 L 35.1 -7.0 C 35.1 -5.3 34.4 -4.7 31.8 -4.7 L 14.5 -4.7 " transform="translate(0.0 38.0)" stroke-dasharray="60.31884256634254" stroke-dashoffset="60.31884256634254"><animate attributeName="stroke-dashoffset" from="60.31884256634254" to="0" dur="1.8095652769902761s" begin="0s" fill="freeze" /></path><path d="M 5.5 2.5 C 11.2 2.2 18.3 1.2 23.1 0.2 " transform="translate(0.0 38.0)" stroke-dasharray="17.764198284210476" stroke-dashoffset="17.764198284210476"><animate attributeName="stroke-dashoffset" from="17.764198284210476" to="0" dur="0.5329259485263143s" begin="1.8095652769902761s" fill="freeze" /></path><path d="M 3.8 -11.8 C 11.3 -13.8 19.6 -17.6 24.5 -21.8 " transform="translate(0.0 38.0)" stroke-dasharray="23.154252404797578" stroke-dashoffset="23.154252404797578"><animate attributeName="stroke-dashoffset" from="23.154252404797578" to="0" dur="0.6946275721439273s" begin="2.34249122551659s" fill="freeze" /></path><path d="M 35.8 -8.5 L 14.9 -8.5 " transform="translate(0.0 38.0)" stroke-dasharray="20.9" stroke-dashoffset="20.9"><animate attributeName="stroke-dashoffset" from="20.9" to="0" dur="0.6269999999999999s" begin="3.0371187976605176s" fill="freeze" /></path><path d="M 7.1 -24.8 C 8.2 -26.6 9.1 -28.6 9.9 -30.7 " transform="translate(0.0 38.0)" stroke-dasharray="6.539969865329172" stroke-dashoffset="6.539969865329172"><animate attributeName="stroke-dashoffset" from="6.539969865329172" to="0" dur="0.19619909595987514s" begin="3.6641187976605174s" fill="freeze" /></path><path d="M 44.6 2.8 C 36.5 2.2 29.1 -0.2 23.6 -4.5 " transform="translate(0.0 38.0)" stroke-dasharray="22.552927263680463" stroke-dashoffset="22.552927263680463"><animate attributeName="stroke-dashoffset" from="22.552927263680463" to="0" dur="0.6765878179104139s" begin="3.8603178936203926s" fill="freeze" /></path><path d="M 12.1 -20.6 C 12.8 -20.4 13.7 -20.3 14.2 -20.3 C 15.6 -20.3 16.5 -20.8 17.1 -22.0 C 17.6 -22.8 17.9 -23.6 18.1 -24.4 C 18.3 -25.6 17.9 -26.4 16.1 -26.4 L 8.1 -26.4 " transform="translate(0.0 38.0)" stroke-dasharray="19.725781575995384" stroke-dashoffset="19.725781575995384"><animate attributeName="stroke-dashoffset" from="19.725781575995384" to="0" dur="0.5917734472798615s" begin="4.536905711530807s" fill="freeze" /></path><path d="M 27.8 -16.0 L 21.6 -16.0 " transform="translate(0.0 38.0)" stroke-dasharray="6.199999999999999" stroke-dashoffset="6.199999999999999"><animate attributeName="stroke-dashoffset" from="6.199999999999999" to="0" dur="0.18599999999999997s" begin="5.128679158810668s" fill="freeze" /></path><path d="M 32.7 -0.1 C 35.6 -1.4 38.1 -3.0 40.2 -4.8 " transform="translate(0.0 38.0)" stroke-dasharray="8.881485898194455" stroke-dashoffset="8.881485898194455"><animate attributeName="stroke-dashoffset" from="8.881485898194455" to="0" dur="0.2664445769458337s" begin="5.314679158810668s" fill="freeze" /></path><path d="M 22.1 -30.6 L 3.2 -30.6 " transform="translate(0.0 38.0)" stroke-dasharray="18.900000000000002" stroke-dashoffset="18.900000000000002"><animate attributeName="stroke-dashoffset" from="18.900000000000002" to="0" dur="0.5670000000000001s" begin="5.581123735756501s" fill="freeze" /></path><path d="M 16.2 -40.0 L 9.3 -40.0 C 7.5 -40.0 6.8 -39.4 6.8 -38.0 L 6.8 -36.6 C 6.8 -35.2 7.5 -34.6 9.3 -34.6 L 16.2 -34.6 C 18.2 -34.6 18.8 -35.2 18.8 -36.6 L 18.8 -38.0 C 18.8 -39.4 18.2 -40.0 16.2 -40.0 Z " transform="translate(0.0 38.0)" stroke-dasharray="31.659516828005824" stroke-dashoffset="31.659516828005824"><animate attributeName="stroke-dashoffset" from="31.659516828005824" to="0" dur="0.9497855048401747s" begin="6.148123735756501s" fill="freeze" /></path><path d="M 29.7 -19.1 C 31.4 -20.4 32.5 -22.2 32.7 -24.3 " transform="translate(0.0 38.0)" stroke-dasharray="6.181012244053504" stroke-dashoffset="6.181012244053504"><animate attributeName="stroke-dashoffset" from="6.181012244053504" to="0" dur="0.1854303673216051s" begin="7.0979092405966755s" fill="freeze" /></path><path d="M 46.0 -12.8 C 38.2 -14.3 30.5 -17.4 25.0 -21.3 " transform="translate(0.0 38.0)" stroke-dasharray="22.81573101642558" stroke-dashoffset="22.81573101642558"><animate attributeName="stroke-dashoffset" from="22.81573101642558" to="0" dur="0.6844719304927673s" begin="7.283339607918281s" fill="freeze" /></path><path d="M 25.1 -24.1 C 26.2 -25.9 26.8 -28.1 26.8 -31.2 L 26.8 -32.5 C 26.8 -34.1 27.4 -34.8 29.6 -34.8 L 42.2 -34.8 C 44.0 -34.8 44.8 -34.2 44.8 -32.9 L 44.8 -31.8 " transform="translate(0.0 38.0)" stroke-dasharray="30.32941666934925" stroke-dashoffset="30.32941666934925"><animate attributeName="stroke-dashoffset" from="30.32941666934925" to="0" dur="0.9098825000804774s" begin="7.967811538411048s" fill="freeze" /></path><path d="M 45.8 -21.9 C 45.5 -19.8 44.7 -19.1 41.4 -19.1 C 38.6 -19.1 38.0 -19.4 38.0 -20.9 L 38.0 -24.3 " transform="translate(0.0 38.0)" stroke-dasharray="13.831074882666146" stroke-dashoffset="13.831074882666146"><animate attributeName="stroke-dashoffset" from="13.831074882666146" to="0" dur="0.41493224647998433s" begin="8.877694038491526s" fill="freeze" /></path><path d="M 30.6 -30.4 L 39.6 -31.2 " transform="translate(0.0 38.0)" stroke-dasharray="9.035485598461214" stroke-dashoffset="9.035485598461214"><animate attributeName="stroke-dashoffset" from="9.035485598461214" to="0" dur="0.27106456795383643s" begin="9.292626284971512s" fill="freeze" /></path><path d="M 42.5 -29.9 C 42.0 -27.9 41.2 -27.2 37.4 -27.2 C 34.4 -27.2 33.8 -27.6 33.8 -28.9 L 33.8 -34.1 " transform="translate(0.0 38.0)" stroke-dasharray="16.190337532154466" stroke-dashoffset="16.190337532154466"><animate attributeName="stroke-dashoffset" from="16.190337532154466" to="0" dur="0.485710125964634s" begin="9.563690852925347s" fill="freeze" /></path><path d="M 34.4 -35.0 L 34.4 -40.7 " transform="translate(0.0 38.0)" stroke-dasharray="5.700000000000003" stroke-dashoffset="5.700000000000003"><animate attributeName="stroke-dashoffset" from="5.700000000000003" to="0" dur="0.17100000000000007s" begin="10.049400978889981s" fill="freeze" /></path><path d="M 42.8 -38.6 L 34.6 -38.6" transform="translate(0.0 38.0)" stroke-dasharray="8.199999999999996" stroke-dashoffset="8.199999999999996"><animate attributeName="stroke-dashoffset" from="8.199999999999996" to="0" dur="0.24599999999999986s" begin="10.22040097888998s" fill="freeze" /></path></g></svg>