<?xml version='1.0' encoding='utf-8'?>
<svg viewBox="0.0 -6.0 50.0 50.0" version="1.1" xmlns="http://www.w3.org/2000/svg"><rect x="-1000" y="-1000" width="2000" height="2000" stroke="white" fill="white" /><g style="fill:none;stroke:#000000;stroke-width:1"><path d="M 39.4 1.2 C 40.8 -1.9 42.2 -6.4 43.0 -10.3 C 43.5 -12.8 42.5 -13.9 39.8 -13.9 L 28.4 -13.9 " transform="translate(0.0 38.0)" stroke-dasharray="29.355296901322767" stroke-dashoffset="29.355296901322767"><animate attributeName="stroke-dashoffset" from="29.355296901322767" to="0" dur="0.880658907039683s" begin="0s; 15s; 30s; 45s" fill="freeze" id="anim0" /></path><path d="M 4.1 1.1 C 4.8 -0.6 5.5 -3.0 6.0 -5.2 " transform="translate(0.0 38.0)" stroke-dasharray="6.586981217770719" stroke-dashoffset="6.586981217770719"><animate attributeName="stroke-dashoffset" from="6.586981217770719" to="0" dur="0.19760943653312157s" begin="anim0.end" fill="freeze" id="anim1" /></path><path d="M 11.6 -0.2 C 11.4 -2.1 11.1 -4.3 10.8 -5.5 " transform="translate(0.0 38.0)" stroke-dasharray="5.3632952532347" stroke-dashoffset="5.3632952532347"><animate attributeName="stroke-dashoffset" from="5.3632952532347" to="0" dur="0.16089885759704098s" begin="anim1.end" fill="freeze" id="anim2" /></path><path d="M 17.4 -1.5 C 17.1 -3.2 16.2 -5.2 15.7 -6.4 " transform="translate(0.0 38.0)" stroke-dasharray="5.197267895462896" stroke-dashoffset="5.197267895462896"><animate attributeName="stroke-dashoffset" from="5.197267895462896" to="0" dur="0.15591803686388686s" begin="anim2.end" fill="freeze" id="anim3" /></path><path d="M 3.6 -10.6 C 9.7 -10.8 17.6 -11.7 23.4 -12.9 " transform="translate(0.0 38.0)" stroke-dasharray="19.953853223834347" stroke-dashoffset="19.953853223834347"><animate attributeName="stroke-dashoffset" from="19.953853223834347" to="0" dur="0.5986155967150304s" begin="anim3.end" fill="freeze" id="anim4" /></path><path d="M 23.1 -3.1 C 22.4 -4.6 21.2 -6.5 20.4 -7.5 " transform="translate(0.0 38.0)" stroke-dasharray="5.171725688806245" stroke-dashoffset="5.171725688806245"><animate attributeName="stroke-dashoffset" from="5.171725688806245" to="0" dur="0.15515177066418737s" begin="anim4.end" fill="freeze" id="anim5" /></path><path d="M 21.9 -18.3 L 5.3 -18.3 " transform="translate(0.0 38.0)" stroke-dasharray="16.599999999999998" stroke-dashoffset="16.599999999999998"><animate attributeName="stroke-dashoffset" from="16.599999999999998" to="0" dur="0.49799999999999994s" begin="anim5.end" fill="freeze" id="anim6" /></path><path d="M 13.7 -12.1 L 13.7 -38.1 " transform="translate(0.0 38.0)" stroke-dasharray="26.0" stroke-dashoffset="26.0"><animate attributeName="stroke-dashoffset" from="26.0" to="0" dur="0.78s" begin="anim6.end" fill="freeze" id="anim7" /></path><path d="M 10.2 -30.1 C 9.9 -31.2 9.4 -32.6 9.1 -33.5 " transform="translate(0.0 38.0)" stroke-dasharray="3.5740443700628886" stroke-dashoffset="3.5740443700628886"><animate attributeName="stroke-dashoffset" from="3.5740443700628886" to="0" dur="0.10722133110188665s" begin="anim7.end" fill="freeze" id="anim8" /></path><path d="M 18.5 -38.5 L 8.9 -38.5 C 6.4 -38.5 5.5 -37.6 5.5 -35.5 L 5.5 -28.1 C 5.5 -25.9 6.4 -25.0 8.9 -25.0 L 18.5 -25.0 C 21.1 -25.0 21.9 -25.9 21.9 -28.1 L 21.9 -35.5 C 21.9 -37.6 21.1 -38.5 18.5 -38.5 Z " transform="translate(0.0 38.0)" stroke-dasharray="55.336193454837215" stroke-dashoffset="55.336193454837215"><animate attributeName="stroke-dashoffset" from="55.336193454837215" to="0" dur="1.6600858036451165s" begin="anim8.end" fill="freeze" id="anim9" /></path><path d="M 16.9 -29.8 C 17.5 -30.9 18.1 -32.5 18.4 -33.8 " transform="translate(0.0 38.0)" stroke-dasharray="4.283270663596025" stroke-dashoffset="4.283270663596025"><animate attributeName="stroke-dashoffset" from="4.283270663596025" to="0" dur="0.12849811990788074s" begin="anim9.end" fill="freeze" id="anim10" /></path><path d="M 41.1 -21.4 L 31.4 -21.4 " transform="translate(0.0 38.0)" stroke-dasharray="9.700000000000003" stroke-dashoffset="9.700000000000003"><animate attributeName="stroke-dashoffset" from="9.700000000000003" to="0" dur="0.2910000000000001s" begin="anim10.end" fill="freeze" id="anim11" /></path><path d="M 25.6 -22.9 C 29.9 -26.9 33.7 -32.8 36.0 -38.6 " transform="translate(0.0 38.0)" stroke-dasharray="18.975954125505663" stroke-dashoffset="18.975954125505663"><animate attributeName="stroke-dashoffset" from="18.975954125505663" to="0" dur="0.5692786237651698s" begin="anim11.end" fill="freeze" id="anim12" /></path><path d="M 46.9 -24.4 C 42.4 -28.1 38.1 -33.5 35.8 -38.5" transform="translate(0.0 38.0)" stroke-dasharray="18.08248246104427" stroke-dashoffset="18.08248246104427"><animate attributeName="stroke-dashoffset" from="18.08248246104427" to="0" dur="0.5424744738313281s" begin="anim12.end" fill="freeze" id="anim_end" /></path></g></svg>