<?xml version='1.0' encoding='utf-8'?>
<svg viewBox="0.0 -6.0 50.0 50.0" version="1.1" xmlns="http://www.w3.org/2000/svg"><rect x="-1000" y="-1000" width="2000" height="2000" stroke="white" fill="white" /><g style="fill:none;stroke:#000000;stroke-width:1"><path d="M 38.2 1.6 C 39.1 1.7 39.9 1.8 40.4 1.8 C 42.5 1.8 43.5 1.0 44.3 -1.2 C 44.8 -2.7 45.1 -4.3 45.2 -5.9 C 45.4 -7.8 44.6 -8.7 42.3 -8.7 L 27.2 -8.7 C 24.9 -8.7 24.1 -9.4 24.1 -11.2 L 24.1 -21.1 C 24.1 -22.8 25.1 -23.7 27.3 -23.7 L 43.8 -23.7 " transform="translate(0.0 38.0)" stroke-dasharray="68.03142687503143" stroke-dashoffset="68.03142687503143"><animate attributeName="stroke-dashoffset" from="68.03142687503143" to="0" dur="2.0409428062509427s" begin="0s; 15s; 30s; 45s" fill="freeze" id="anim0" /></path><path d="M 19.2 1.1 C 20.1 -0.5 20.9 -2.2 21.4 -4.1 " transform="translate(0.0 38.0)" stroke-dasharray="5.661998940907694" stroke-dashoffset="5.661998940907694"><animate attributeName="stroke-dashoffset" from="5.661998940907694" to="0" dur="0.1698599682272308s" begin="anim0.end" fill="freeze" id="anim1" /></path><path d="M 27.6 -0.1 C 27.3 -1.4 26.9 -2.9 26.4 -4.0 " transform="translate(0.0 38.0)" stroke-dasharray="4.086607599899443" stroke-dashoffset="4.086607599899443"><animate attributeName="stroke-dashoffset" from="4.086607599899443" to="0" dur="0.12259822799698328s" begin="anim1.end" fill="freeze" id="anim2" /></path><path d="M 10.4 -8.2 C 11.2 -8.1 11.8 -8.0 12.6 -8.0 C 14.9 -8.0 16.4 -9.8 16.4 -13.6 C 16.4 -17.4 14.9 -20.6 11.1 -24.0 L 11.2 -24.8 C 12.8 -27.8 14.3 -31.6 15.2 -35.0 C 15.9 -37.3 14.9 -38.5 12.6 -38.5 L 9.2 -38.5 C 7.0 -38.5 6.1 -37.6 6.1 -35.3 L 6.1 2.4 " transform="translate(0.0 38.0)" stroke-dasharray="85.37587207555879" stroke-dashoffset="85.37587207555879"><animate attributeName="stroke-dashoffset" from="85.37587207555879" to="0" dur="2.5612761622667635s" begin="anim2.end" fill="freeze" id="anim3" /></path><path d="M 33.8 -1.2 C 33.2 -2.5 32.6 -3.6 32.0 -4.5 " transform="translate(0.0 38.0)" stroke-dasharray="3.762689496960488" stroke-dashoffset="3.762689496960488"><animate attributeName="stroke-dashoffset" from="3.762689496960488" to="0" dur="0.11288068490881463s" begin="anim3.end" fill="freeze" id="anim4" /></path><path d="M 39.2 -2.9 C 38.8 -3.8 38.1 -4.6 37.5 -5.2 " transform="translate(0.0 38.0)" stroke-dasharray="2.8758509374337757" stroke-dashoffset="2.8758509374337757"><animate attributeName="stroke-dashoffset" from="2.8758509374337757" to="0" dur="0.08627552812301327s" begin="anim4.end" fill="freeze" id="anim5" /></path><path d="M 41.9 -13.8 L 23.9 -13.8 " transform="translate(0.0 38.0)" stroke-dasharray="18.0" stroke-dashoffset="18.0"><animate attributeName="stroke-dashoffset" from="18.0" to="0" dur="0.54s" begin="anim5.end" fill="freeze" id="anim6" /></path><path d="M 33.3 -8.7 L 33.3 -23.1 " transform="translate(0.0 38.0)" stroke-dasharray="14.400000000000002" stroke-dashoffset="14.400000000000002"><animate attributeName="stroke-dashoffset" from="14.400000000000002" to="0" dur="0.43200000000000005s" begin="anim6.end" fill="freeze" id="anim7" /></path><path d="M 41.9 -18.7 L 23.9 -18.7 " transform="translate(0.0 38.0)" stroke-dasharray="18.0" stroke-dashoffset="18.0"><animate attributeName="stroke-dashoffset" from="18.0" to="0" dur="0.54s" begin="anim7.end" fill="freeze" id="anim8" /></path><path d="M 20.2 -31.6 C 22.2 -33.0 24.1 -34.8 25.6 -36.8 " transform="translate(0.0 38.0)" stroke-dasharray="7.52720934435507" stroke-dashoffset="7.52720934435507"><animate attributeName="stroke-dashoffset" from="7.52720934435507" to="0" dur="0.2258162803306521s" begin="anim8.end" fill="freeze" id="anim9" /></path><path d="M 19.3 -23.2 C 26.6 -25.0 33.8 -28.1 38.6 -31.9 " transform="translate(0.0 38.0)" stroke-dasharray="21.318323644842682" stroke-dashoffset="21.318323644842682"><animate attributeName="stroke-dashoffset" from="21.318323644842682" to="0" dur="0.6395497093452804s" begin="anim9.end" fill="freeze" id="anim10" /></path><path d="M 28.2 -31.9 C 28.9 -31.8 29.6 -31.8 30.1 -31.8 C 32.0 -31.8 32.9 -32.5 32.9 -34.6 L 32.9 -39.6 " transform="translate(0.0 38.0)" stroke-dasharray="11.51494211128707" stroke-dashoffset="11.51494211128707"><animate attributeName="stroke-dashoffset" from="11.51494211128707" to="0" dur="0.34544826333861206s" begin="anim10.end" fill="freeze" id="anim11" /></path><path d="M 45.2 -33.1 C 43.5 -34.9 41.7 -36.1 39.9 -37.1" transform="translate(0.0 38.0)" stroke-dasharray="6.667691264609648" stroke-dashoffset="6.667691264609648"><animate attributeName="stroke-dashoffset" from="6.667691264609648" to="0" dur="0.20003073793828943s" begin="anim11.end" fill="freeze" id="anim_end" /></path></g></svg>