<?xml version='1.0' encoding='utf-8'?>
<svg viewBox="0.0 -6.0 50.0 50.0" version="1.1" xmlns="http://www.w3.org/2000/svg"><rect x="-1000" y="-1000" width="2000" height="2000" stroke="white" fill="white" /><g style="fill:none;stroke:#000000;stroke-width:1"><path d="M 28.4 -27.5 L 28.4 -10.4 C 28.4 -8.2 29.5 -7.2 32.0 -7.2 L 39.7 -7.2 C 42.2 -7.2 43.2 -8.2 43.2 -10.4 L 43.2 -27.4 C 43.2 -29.7 42.3 -30.6 39.8 -30.6 L 31.9 -30.6 C 29.4 -30.6 28.4 -29.8 28.4 -27.5 Z " transform="translate(0.0 38.0)" stroke-dasharray="71.67217903281403" stroke-dashoffset="71.67217903281403"><animate attributeName="stroke-dashoffset" from="71.67217903281403" to="0" dur="2.150165370984421s" begin="0s" fill="freeze" /></path><path d="M 10.3 -0.1 L 17.4 -0.1 C 19.9 -0.1 21.0 -0.9 21.0 -3.3 L 21.0 -9.2 C 21.0 -11.6 19.9 -12.3 17.4 -12.3 L 10.3 -12.3 C 7.8 -12.3 6.7 -11.6 6.7 -9.2 L 6.7 -3.3 C 6.7 -0.9 7.8 -0.1 10.3 -0.1 Z " transform="translate(0.0 38.0)" stroke-dasharray="48.33912410915344" stroke-dashoffset="48.33912410915344"><animate attributeName="stroke-dashoffset" from="48.33912410915344" to="0" dur="1.450173723274603s" begin="2.150165370984421s" fill="freeze" /></path><path d="M 24.4 2.1 C 26.8 0.9 29.4 -1.0 31.3 -2.8 " transform="translate(0.0 38.0)" stroke-dasharray="8.49048615925498" stroke-dashoffset="8.49048615925498"><animate attributeName="stroke-dashoffset" from="8.49048615925498" to="0" dur="0.25471458477764936s" begin="3.6003390942590237s" fill="freeze" /></path><path d="M 15.2 -12.4 C 16.9 -14.7 18.1 -16.9 19.0 -18.9 C 19.8 -21.0 18.9 -21.9 16.7 -21.9 L 6.4 -21.9 " transform="translate(0.0 38.0)" stroke-dasharray="22.698410421947827" stroke-dashoffset="22.698410421947827"><animate attributeName="stroke-dashoffset" from="22.698410421947827" to="0" dur="0.6809523126584348s" begin="3.855053679036673s" fill="freeze" /></path><path d="M 17.4 -27.9 L 9.7 -27.9 " transform="translate(0.0 38.0)" stroke-dasharray="7.699999999999999" stroke-dashoffset="7.699999999999999"><animate attributeName="stroke-dashoffset" from="7.699999999999999" to="0" dur="0.23099999999999998s" begin="4.536005991695108s" fill="freeze" /></path><path d="M 3.3 -27.7 C 7.2 -30.8 10.8 -35.2 13.4 -39.8 " transform="translate(0.0 38.0)" stroke-dasharray="15.853876765557963" stroke-dashoffset="15.853876765557963"><animate attributeName="stroke-dashoffset" from="15.853876765557963" to="0" dur="0.4756163029667389s" begin="4.7670059916951075s" fill="freeze" /></path><path d="M 45.5 1.8 C 43.5 0.6 41.2 -1.4 39.7 -3.0 " transform="translate(0.0 38.0)" stroke-dasharray="7.549172184856916" stroke-dashoffset="7.549172184856916"><animate attributeName="stroke-dashoffset" from="7.549172184856916" to="0" dur="0.22647516554570746s" begin="5.242622294661847s" fill="freeze" /></path><path d="M 43.4 -15.3 L 28.3 -15.3 " transform="translate(0.0 38.0)" stroke-dasharray="15.099999999999998" stroke-dashoffset="15.099999999999998"><animate attributeName="stroke-dashoffset" from="15.099999999999998" to="0" dur="0.4529999999999999s" begin="5.469097460207554s" fill="freeze" /></path><path d="M 22.4 -30.0 C 19.9 -32.8 16.4 -35.7 13.1 -37.9 " transform="translate(0.0 38.0)" stroke-dasharray="12.232446353249138" stroke-dashoffset="12.232446353249138"><animate attributeName="stroke-dashoffset" from="12.232446353249138" to="0" dur="0.36697339059747414s" begin="5.922097460207555s" fill="freeze" /></path><path d="M 43.4 -23.1 L 28.3 -23.1 " transform="translate(0.0 38.0)" stroke-dasharray="15.099999999999998" stroke-dashoffset="15.099999999999998"><animate attributeName="stroke-dashoffset" from="15.099999999999998" to="0" dur="0.4529999999999999s" begin="6.289070850805029s" fill="freeze" /></path><path d="M 34.0 -31.0 C 34.9 -33.1 35.6 -35.5 36.1 -38.0 " transform="translate(0.0 38.0)" stroke-dasharray="7.321047307400497" stroke-dashoffset="7.321047307400497"><animate attributeName="stroke-dashoffset" from="7.321047307400497" to="0" dur="0.2196314192220149s" begin="6.742070850805029s" fill="freeze" /></path><path d="M 46.5 -37.8 L 25.4 -37.8" transform="translate(0.0 38.0)" stroke-dasharray="21.1" stroke-dashoffset="21.1"><animate attributeName="stroke-dashoffset" from="21.1" to="0" dur="0.633s" begin="6.961702270027044s" fill="freeze" /></path></g></svg>