<?xml version='1.0' encoding='utf-8'?>
<svg viewBox="0.0 -6.0 50.0 50.0" version="1.1" xmlns="http://www.w3.org/2000/svg"><rect x="-1000" y="-1000" width="2000" height="2000" stroke="white" fill="white" /><g style="fill:none;stroke:#000000;stroke-width:1"><path d="M 9.6 0.8 L 20.5 0.8 C 23.1 0.8 24.1 -0.3 24.1 -3.0 L 24.1 -25.3 C 24.1 -28.1 23.1 -29.0 20.8 -29.0 L 9.3 -29.0 C 6.8 -29.0 6.0 -28.1 6.0 -25.3 L 6.0 -3.0 C 6.0 -0.3 7.0 0.8 9.6 0.8 Z " transform="translate(0.0 38.0)" stroke-dasharray="90.82192570850374" stroke-dashoffset="90.82192570850374"><animate attributeName="stroke-dashoffset" from="90.82192570850374" to="0" dur="2.7246577712551123s" begin="0s" fill="freeze" /></path><path d="M 23.9 -8.1 L 6.6 -8.1 " transform="translate(0.0 38.0)" stroke-dasharray="17.299999999999997" stroke-dashoffset="17.299999999999997"><animate attributeName="stroke-dashoffset" from="17.299999999999997" to="0" dur="0.5189999999999999s" begin="2.7246577712551123s" fill="freeze" /></path><path d="M 9.7 -15.3 C 11.4 -18.1 12.2 -22.0 12.2 -29.2 L 12.2 -37.5 " transform="translate(0.0 38.0)" stroke-dasharray="22.59097555305118" stroke-dashoffset="22.59097555305118"><animate attributeName="stroke-dashoffset" from="22.59097555305118" to="0" dur="0.6777292665915354s" begin="3.243657771255112s" fill="freeze" /></path><path d="M 34.0 -12.4 C 33.2 -14.2 32.0 -15.9 30.8 -17.3 " transform="translate(0.0 38.0)" stroke-dasharray="5.872354709740821" stroke-dashoffset="5.872354709740821"><animate attributeName="stroke-dashoffset" from="5.872354709740821" to="0" dur="0.17617064129222462s" begin="3.9213870378466473s" fill="freeze" /></path><path d="M 23.4 -17.9 C 22.2 -17.6 21.2 -17.6 20.2 -17.6 C 18.4 -17.6 17.7 -18.1 17.7 -19.6 L 17.7 -37.5 " transform="translate(0.0 38.0)" stroke-dasharray="24.85876523142164" stroke-dashoffset="24.85876523142164"><animate attributeName="stroke-dashoffset" from="24.85876523142164" to="0" dur="0.7457629569426492s" begin="4.097557679138872s" fill="freeze" /></path><path d="M 25.7 -37.5 L 4.0 -37.5 " transform="translate(0.0 38.0)" stroke-dasharray="21.7" stroke-dashoffset="21.7"><animate attributeName="stroke-dashoffset" from="21.7" to="0" dur="0.6509999999999999s" begin="4.843320636081522s" fill="freeze" /></path><path d="M 33.8 1.0 C 35.0 1.2 36.0 1.4 36.9 1.4 C 39.3 1.4 40.6 0.6 40.6 -2.0 L 40.6 -39.7 " transform="translate(0.0 38.0)" stroke-dasharray="46.664590672233054" stroke-dashoffset="46.664590672233054"><animate attributeName="stroke-dashoffset" from="46.664590672233054" to="0" dur="1.3999377201669916s" begin="5.494320636081522s" fill="freeze" /></path><path d="M 47.2 -25.6 L 28.8 -25.6" transform="translate(0.0 38.0)" stroke-dasharray="18.400000000000002" stroke-dashoffset="18.400000000000002"><animate attributeName="stroke-dashoffset" from="18.400000000000002" to="0" dur="0.552s" begin="6.894258356248513s" fill="freeze" /></path></g></svg>