<?xml version='1.0' encoding='utf-8'?>
<svg viewBox="0.0 -6.0 50.0 50.0" version="1.1" xmlns="http://www.w3.org/2000/svg"><rect x="-1000" y="-1000" width="2000" height="2000" stroke="white" fill="white" /><g style="fill:none;stroke:#000000;stroke-width:1"><path d="M 6.4 2.9 L 6.4 -22.1 C 6.4 -23.9 7.2 -24.8 9.6 -24.8 L 13.8 -24.8 C 16.1 -24.8 16.9 -23.9 16.9 -22.1 L 16.9 -16.3 C 16.9 -14.5 16.1 -13.7 13.7 -13.7 L 7.2 -13.7 " transform="translate(0.0 38.0)" stroke-dasharray="55.91500752217046" stroke-dashoffset="55.91500752217046"><animate attributeName="stroke-dashoffset" from="55.91500752217046" to="0" dur="1.6774502256651138s" begin="0s; anim_end.end" fill="freeze" id="anim0" /></path><path d="M 17.5 -2.5 L 7.2 -2.5 " transform="translate(0.0 38.0)" stroke-dasharray="10.3" stroke-dashoffset="10.3"><animate attributeName="stroke-dashoffset" from="10.3" to="0" dur="0.309s" begin="anim0.end" fill="freeze" id="anim1" /></path><path d="M 17.5 -8.0 L 7.2 -8.0 " transform="translate(0.0 38.0)" stroke-dasharray="10.3" stroke-dashoffset="10.3"><animate attributeName="stroke-dashoffset" from="10.3" to="0" dur="0.309s" begin="anim1.end" fill="freeze" id="anim2" /></path><path d="M 16.1 -19.2 L 7.2 -19.2 " transform="translate(0.0 38.0)" stroke-dasharray="8.900000000000002" stroke-dashoffset="8.900000000000002"><animate attributeName="stroke-dashoffset" from="8.900000000000002" to="0" dur="0.26700000000000007s" begin="anim2.end" fill="freeze" id="anim3" /></path><path d="M 29.6 -2.5 C 29.2 -3.2 28.9 -3.9 28.4 -4.5 " transform="translate(0.0 38.0)" stroke-dasharray="2.3364366743405447" stroke-dashoffset="2.3364366743405447"><animate attributeName="stroke-dashoffset" from="2.3364366743405447" to="0" dur="0.07009310023021634s" begin="anim3.end" fill="freeze" id="anim4" /></path><path d="M 46.5 1.3 L 21.2 1.3 " transform="translate(0.0 38.0)" stroke-dasharray="25.3" stroke-dashoffset="25.3"><animate attributeName="stroke-dashoffset" from="25.3" to="0" dur="0.759s" begin="anim4.end" fill="freeze" id="anim5" /></path><path d="M 35.9 1.1 C 36.8 -0.6 37.5 -2.5 38.1 -4.2 " transform="translate(0.0 38.0)" stroke-dasharray="5.743768719255954" stroke-dashoffset="5.743768719255954"><animate attributeName="stroke-dashoffset" from="5.743768719255954" to="0" dur="0.17231306157767862s" begin="anim5.end" fill="freeze" id="anim6" /></path><path d="M 14.8 -29.9 L 9.1 -29.9 " transform="translate(0.0 38.0)" stroke-dasharray="5.700000000000001" stroke-dashoffset="5.700000000000001"><animate attributeName="stroke-dashoffset" from="5.700000000000001" to="0" dur="0.171s" begin="anim6.end" fill="freeze" id="anim7" /></path><path d="M 3.4 -29.7 C 6.2 -31.9 9.3 -35.6 11.6 -39.8 " transform="translate(0.0 38.0)" stroke-dasharray="13.090058409457143" stroke-dashoffset="13.090058409457143"><animate attributeName="stroke-dashoffset" from="13.090058409457143" to="0" dur="0.3927017522837143s" begin="anim7.end" fill="freeze" id="anim8" /></path><path d="M 29.1 -8.3 L 38.8 -8.3 C 41.0 -8.3 41.8 -9.2 41.8 -10.8 L 41.8 -12.8 C 41.8 -14.4 41.0 -15.2 38.8 -15.2 L 29.1 -15.2 C 27.0 -15.2 26.1 -14.4 26.1 -12.8 L 26.1 -10.8 C 26.1 -9.2 27.0 -8.3 29.1 -8.3 Z " transform="translate(0.0 38.0)" stroke-dasharray="41.22629969703587" stroke-dashoffset="41.22629969703587"><animate attributeName="stroke-dashoffset" from="41.22629969703587" to="0" dur="1.236788990911076s" begin="anim8.end" fill="freeze" id="anim9" /></path><path d="M 17.8 -33.0 C 16.3 -34.6 13.8 -36.5 11.3 -38.0 " transform="translate(0.0 38.0)" stroke-dasharray="8.223286719341269" stroke-dashoffset="8.223286719341269"><animate attributeName="stroke-dashoffset" from="8.223286719341269" to="0" dur="0.24669860158023807s" begin="anim9.end" fill="freeze" id="anim10" /></path><path d="M 40.0 -20.4 L 28.3 -20.4 " transform="translate(0.0 38.0)" stroke-dasharray="11.7" stroke-dashoffset="11.7"><animate attributeName="stroke-dashoffset" from="11.7" to="0" dur="0.351s" begin="anim10.end" fill="freeze" id="anim11" /></path><path d="M 45.7 -20.0 L 45.7 -22.9 C 45.7 -24.6 44.9 -25.6 42.2 -25.6 L 26.1 -25.6 C 23.5 -25.6 22.6 -24.6 22.6 -22.9 L 22.6 -20.0 " transform="translate(0.0 38.0)" stroke-dasharray="32.08082837182831" stroke-dashoffset="32.08082837182831"><animate attributeName="stroke-dashoffset" from="32.08082837182831" to="0" dur="0.9624248511548493s" begin="anim11.end" fill="freeze" id="anim12" /></path><path d="M 43.8 -30.8 L 25.4 -30.8 " transform="translate(0.0 38.0)" stroke-dasharray="18.4" stroke-dashoffset="18.4"><animate attributeName="stroke-dashoffset" from="18.4" to="0" dur="0.5519999999999999s" begin="anim12.end" fill="freeze" id="anim13" /></path><path d="M 34.1 -30.9 L 34.1 -40.3 " transform="translate(0.0 38.0)" stroke-dasharray="9.399999999999999" stroke-dashoffset="9.399999999999999"><animate attributeName="stroke-dashoffset" from="9.399999999999999" to="0" dur="0.282s" begin="anim13.end" fill="freeze" id="anim14" /></path><path d="M 46.2 -36.3 L 22.9 -36.3" transform="translate(0.0 38.0)" stroke-dasharray="23.300000000000004" stroke-dashoffset="23.300000000000004"><animate attributeName="stroke-dashoffset" from="23.300000000000004" to="0" dur="0.6990000000000001s" begin="anim14.end" fill="freeze" id="anim_end" /></path></g></svg>