<?xml version='1.0' encoding='utf-8'?>
<svg viewBox="0.0 -6.0 50.0 50.0" version="1.1" xmlns="http://www.w3.org/2000/svg"><rect x="-1000" y="-1000" width="2000" height="2000" stroke="white" fill="white" /><g style="fill:none;stroke:#000000;stroke-width:1"><path d="M 3.8 -17.4 C 13.8 -20.3 24.2 -25.8 30.4 -33.1 " transform="translate(0.0 38.0)" stroke-dasharray="31.296141427407495" stroke-dashoffset="31.296141427407495"><animate attributeName="stroke-dashoffset" from="31.296141427407495" to="0" dur="0.9388842428222248s" begin="0s" fill="freeze" /></path><path d="M 16.2 -3.0 C 15.6 -4.0 14.8 -5.1 14.2 -6.0 " transform="translate(0.0 38.0)" stroke-dasharray="3.6060665039322566" stroke-dashoffset="3.6060665039322566"><animate attributeName="stroke-dashoffset" from="3.6060665039322566" to="0" dur="0.1081819951179677s" begin="0.9388842428222248s" fill="freeze" /></path><path d="M 45.5 0.8 L 4.8 0.8 " transform="translate(0.0 38.0)" stroke-dasharray="40.7" stroke-dashoffset="40.7"><animate attributeName="stroke-dashoffset" from="40.7" to="0" dur="1.221s" begin="1.0470662379401925s" fill="freeze" /></path><path d="M 24.9 1.1 L 24.9 -16.8 " transform="translate(0.0 38.0)" stroke-dasharray="17.900000000000002" stroke-dashoffset="17.900000000000002"><animate attributeName="stroke-dashoffset" from="17.900000000000002" to="0" dur="0.537s" begin="2.2680662379401926s" fill="freeze" /></path><path d="M 41.8 -10.1 L 8.2 -10.1 " transform="translate(0.0 38.0)" stroke-dasharray="33.599999999999994" stroke-dashoffset="33.599999999999994"><animate attributeName="stroke-dashoffset" from="33.599999999999994" to="0" dur="1.0079999999999998s" begin="2.8050662379401925s" fill="freeze" /></path><path d="M 33.6 -2.7 C 34.4 -3.8 35.1 -4.8 35.8 -6.0 " transform="translate(0.0 38.0)" stroke-dasharray="3.9679371894629116" stroke-dashoffset="3.9679371894629116"><animate attributeName="stroke-dashoffset" from="3.9679371894629116" to="0" dur="0.11903811568388735s" begin="3.813066237940192s" fill="freeze" /></path><path d="M 35.4 -17.4 L 14.3 -17.4 " transform="translate(0.0 38.0)" stroke-dasharray="21.099999999999998" stroke-dashoffset="21.099999999999998"><animate attributeName="stroke-dashoffset" from="21.099999999999998" to="0" dur="0.6329999999999999s" begin="3.9321043536240796s" fill="freeze" /></path><path d="M 14.5 -28.4 C 16.4 -29.9 18.4 -31.6 20.1 -33.7 " transform="translate(0.0 38.0)" stroke-dasharray="7.726831711747877" stroke-dashoffset="7.726831711747877"><animate attributeName="stroke-dashoffset" from="7.726831711747877" to="0" dur="0.2318049513524363s" begin="4.565104353624079s" fill="freeze" /></path><path d="M 8.2 -32.4 C 11.3 -34.2 14.4 -36.9 16.9 -39.8 " transform="translate(0.0 38.0)" stroke-dasharray="11.47161524719086" stroke-dashoffset="11.47161524719086"><animate attributeName="stroke-dashoffset" from="11.47161524719086" to="0" dur="0.34414845741572575s" begin="4.7969093049765155s" fill="freeze" /></path><path d="M 46.0 -19.1 C 36.5 -21.1 26.6 -25.8 20.1 -32.9 " transform="translate(0.0 38.0)" stroke-dasharray="29.80050433823076" stroke-dashoffset="29.80050433823076"><animate attributeName="stroke-dashoffset" from="29.80050433823076" to="0" dur="0.8940151301469227s" begin="5.141057762392241s" fill="freeze" /></path><path d="M 40.9 -34.4 C 38.0 -36.0 34.8 -38.0 32.5 -40.0" transform="translate(0.0 38.0)" stroke-dasharray="10.112786803927357" stroke-dashoffset="10.112786803927357"><animate attributeName="stroke-dashoffset" from="10.112786803927357" to="0" dur="0.30338360411782067s" begin="6.035072892539164s" fill="freeze" /></path></g></svg>