<?xml version='1.0' encoding='utf-8'?>
<svg viewBox="0.0 -6.0 50.0 50.0" version="1.1" xmlns="http://www.w3.org/2000/svg"><rect x="-1000" y="-1000" width="2000" height="2000" stroke="white" fill="white" /><g style="fill:none;stroke:#000000;stroke-width:1"><path d="M 38.5 -40.5 C 42.9 -40.5 46.5 -37.0 46.5 -32.5 C 46.5 -28.1 42.9 -24.6 38.5 -24.6 C 34.0 -24.6 30.4 -28.1 30.4 -32.5 C 30.4 -37.0 34.0 -40.5 38.5 -40.5 Z " transform="translate(0.0 38.0)" stroke-dasharray="50.32877645430122" stroke-dashoffset="50.32877645430122"><animate attributeName="stroke-dashoffset" from="50.32877645430122" to="0" dur="1.5098632936290366s" begin="0s; 15s; 30s; 45s" fill="freeze" id="anim0" /></path><path d="M 38.5 -37.8 C 35.5 -37.8 33.1 -35.5 33.1 -32.5 C 33.1 -29.6 35.4 -27.2 38.5 -27.2 C 41.4 -27.2 43.7 -29.6 43.7 -32.5 C 43.7 -35.5 41.5 -37.8 38.5 -37.8 Z" transform="translate(0.0 38.0)" stroke-dasharray="33.39028834951394" stroke-dashoffset="33.39028834951394"><animate attributeName="stroke-dashoffset" from="33.39028834951394" to="0" dur="1.001708650485418s" begin="anim0.end" fill="freeze" id="anim_end" /></path></g></svg>