<?xml version='1.0' encoding='utf-8'?>
<svg viewBox="0.0 -6.0 50.0 50.0" version="1.1" xmlns="http://www.w3.org/2000/svg"><rect x="-1000" y="-1000" width="2000" height="2000" stroke="white" fill="white" /><g style="fill:none;stroke:#000000;stroke-width:1"><path d="M 25.0 -32.4 C 20.2 -32.4 16.9 -28.8 16.9 -18.9 C 16.9 -9.1 20.3 -5.2 25.0 -5.2 C 29.6 -5.2 32.9 -8.9 32.9 -19.0 C 32.9 -29.1 29.8 -32.4 25.0 -32.4 Z " transform="translate(0.0 38.0)" stroke-dasharray="71.00616892954594" stroke-dashoffset="71.00616892954594"><animate attributeName="stroke-dashoffset" from="71.00616892954594" to="0" dur="2.130185067886378s" begin="0s; anim_end.end" fill="freeze" id="anim0" /></path><path d="M 25.0 -42.0 C 12.3 -42.0 1.9 -31.8 1.9 -19.0 C 1.9 -6.3 12.3 4.0 25.0 4.0 C 37.8 4.0 48.0 -6.3 48.0 -19.0 C 48.0 -31.8 37.8 -42.0 25.0 -42.0 Z" transform="translate(0.0 38.0)" stroke-dasharray="144.74944890517503" stroke-dashoffset="144.74944890517503"><animate attributeName="stroke-dashoffset" from="144.74944890517503" to="0" dur="4.342483467155251s" begin="anim0.end" fill="freeze" id="anim_end" /></path></g></svg>