<?xml version='1.0' encoding='utf-8'?>
<svg viewBox="0.0 -6.0 50.0 50.0" version="1.1" xmlns="http://www.w3.org/2000/svg"><rect x="-1000" y="-1000" width="2000" height="2000" stroke="white" fill="white" /><g style="fill:none;stroke:#000000;stroke-width:1"><path d="M 22.0 1.8 L 22.0 -2.4 L 28.0 -2.4 L 28.0 1.8 Z " transform="translate(0.0 38.0)" stroke-dasharray="20.4" stroke-dashoffset="20.4"><animate attributeName="stroke-dashoffset" from="20.4" to="0" dur="0.612s" begin="0s" fill="freeze" /></path><path d="M 22.0 -6.5 L 22.0 -10.7 L 28.0 -10.7 L 28.0 -6.5 Z " transform="translate(0.0 38.0)" stroke-dasharray="20.4" stroke-dashoffset="20.4"><animate attributeName="stroke-dashoffset" from="20.4" to="0" dur="0.612s" begin="0.612s" fill="freeze" /></path><path d="M 22.0 -14.8 L 22.0 -19.0 L 28.0 -19.0 L 28.0 -14.8 Z " transform="translate(0.0 38.0)" stroke-dasharray="20.4" stroke-dashoffset="20.4"><animate attributeName="stroke-dashoffset" from="20.4" to="0" dur="0.612s" begin="1.224s" fill="freeze" /></path><path d="M 22.0 -23.2 L 22.0 -27.4 L 28.0 -27.4 L 28.0 -23.2 Z " transform="translate(0.0 38.0)" stroke-dasharray="20.4" stroke-dashoffset="20.4"><animate attributeName="stroke-dashoffset" from="20.4" to="0" dur="0.612s" begin="1.8359999999999999s" fill="freeze" /></path><path d="M 22.0 -31.5 L 22.0 -35.6 L 28.0 -35.6 L 28.0 -31.5 Z " transform="translate(0.0 38.0)" stroke-dasharray="20.200000000000003" stroke-dashoffset="20.200000000000003"><animate attributeName="stroke-dashoffset" from="20.200000000000003" to="0" dur="0.6060000000000001s" begin="2.448s" fill="freeze" /></path><path d="M 22.0 -39.9 L 22.0 -44.0 L 28.0 -44.0 L 28.0 -39.9 Z" transform="translate(0.0 38.0)" stroke-dasharray="20.200000000000003" stroke-dashoffset="20.200000000000003"><animate attributeName="stroke-dashoffset" from="20.200000000000003" to="0" dur="0.6060000000000001s" begin="3.0540000000000003s" fill="freeze" /></path></g></svg>