<?xml version='1.0' encoding='utf-8'?>
<svg viewBox="0.0 -6.0 50.0 50.0" version="1.1" xmlns="http://www.w3.org/2000/svg"><rect x="-1000" y="-1000" width="2000" height="2000" stroke="white" fill="white" /><g style="fill:none;stroke:#000000;stroke-width:1"><path d="M 3.5 -1.2 C 6.3 -6.9 8.1 -14.8 8.1 -25.6 L 8.1 -30.9 C 8.1 -33.6 9.1 -34.9 12.4 -34.9 L 45.5 -34.9 " transform="translate(0.0 38.0)" stroke-dasharray="70.29028064236962" stroke-dashoffset="70.29028064236962"><animate attributeName="stroke-dashoffset" from="70.29028064236962" to="0" dur="2.1087084192710885s" begin="0s" fill="freeze" /></path><path d="M 11.3 -5.5 C 14.4 -9.6 17.0 -14.9 18.6 -20.2 " transform="translate(0.0 38.0)" stroke-dasharray="16.49436769922277" stroke-dashoffset="16.49436769922277"><animate attributeName="stroke-dashoffset" from="16.49436769922277" to="0" dur="0.49483103097668313s" begin="2.1087084192710885s" fill="freeze" /></path><path d="M 25.4 -12.3 C 24.1 -13.9 22.2 -15.7 20.1 -17.1 " transform="translate(0.0 38.0)" stroke-dasharray="7.175652939313831" stroke-dashoffset="7.175652939313831"><animate attributeName="stroke-dashoffset" from="7.175652939313831" to="0" dur="0.2152695881794149s" begin="2.6035394502477716s" fill="freeze" /></path><path d="M 12.9 -22.3 L 25.9 -22.3 " transform="translate(0.0 38.0)" stroke-dasharray="12.999999999999998" stroke-dashoffset="12.999999999999998"><animate attributeName="stroke-dashoffset" from="12.999999999999998" to="0" dur="0.38999999999999996s" begin="2.8188090384271867s" fill="freeze" /></path><path d="M 27.2 -4.8 C 30.9 -9.2 34.1 -15.1 35.9 -20.4 " transform="translate(0.0 38.0)" stroke-dasharray="17.956407263001406" stroke-dashoffset="17.956407263001406"><animate attributeName="stroke-dashoffset" from="17.956407263001406" to="0" dur="0.5386922178900422s" begin="3.208809038427187s" fill="freeze" /></path><path d="M 37.1 2.5 L 37.1 -29.9 " transform="translate(0.0 38.0)" stroke-dasharray="32.4" stroke-dashoffset="32.4"><animate attributeName="stroke-dashoffset" from="32.4" to="0" dur="0.972s" begin="3.747501256317229s" fill="freeze" /></path><path d="M 46.6 -5.7 C 43.0 -9.9 39.9 -16.0 38.1 -21.8 " transform="translate(0.0 38.0)" stroke-dasharray="18.321543957448775" stroke-dashoffset="18.321543957448775"><animate attributeName="stroke-dashoffset" from="18.321543957448775" to="0" dur="0.5496463187234633s" begin="4.719501256317229s" fill="freeze" /></path><path d="M 30.0 -22.3 L 45.2 -22.3 " transform="translate(0.0 38.0)" stroke-dasharray="15.200000000000003" stroke-dashoffset="15.200000000000003"><animate attributeName="stroke-dashoffset" from="15.200000000000003" to="0" dur="0.45600000000000007s" begin="5.269147575040693s" fill="freeze" /></path><path d="M 26.0 -35.5 L 26.0 -41.0 " transform="translate(0.0 38.0)" stroke-dasharray="5.5" stroke-dashoffset="5.5"><animate attributeName="stroke-dashoffset" from="5.5" to="0" dur="0.16499999999999998s" begin="5.725147575040693s" fill="freeze" /></path><path d="M 19.5 2.5 L 19.5 -29.9" transform="translate(0.0 38.0)" stroke-dasharray="32.4" stroke-dashoffset="32.4"><animate attributeName="stroke-dashoffset" from="32.4" to="0" dur="0.972s" begin="5.890147575040693s" fill="freeze" /></path></g></svg>