<?xml version='1.0' encoding='utf-8'?>
<svg viewBox="0.0 -6.0 50.0 50.0" version="1.1" xmlns="http://www.w3.org/2000/svg"><rect x="-1000" y="-1000" width="2000" height="2000" stroke="white" fill="white" /><g style="fill:none;stroke:#000000;stroke-width:1"><path d="M 13.2 -33.3 C 14.0 -33.3 14.6 -33.9 14.6 -34.8 C 14.6 -35.5 14.0 -36.1 13.2 -36.1 C 12.4 -36.1 11.8 -35.5 11.8 -34.8 C 11.8 -33.9 12.4 -33.3 13.2 -33.3 Z " transform="translate(0.0 38.0)" stroke-dasharray="8.846335830075608" stroke-dashoffset="8.846335830075608"><animate attributeName="stroke-dashoffset" from="8.846335830075608" to="0" dur="0.26539007490226824s" begin="0s" fill="freeze" /></path><path d="M 13.1 -23.9 L 13.1 -2.8 " transform="translate(0.0 38.0)" stroke-dasharray="21.099999999999998" stroke-dashoffset="21.099999999999998"><animate attributeName="stroke-dashoffset" from="21.099999999999998" to="0" dur="0.6329999999999999s" begin="0.26539007490226824s" fill="freeze" /></path><path d="M 23.8 -23.9 L 23.8 -2.9 " transform="translate(0.0 38.0)" stroke-dasharray="21.0" stroke-dashoffset="21.0"><animate attributeName="stroke-dashoffset" from="21.0" to="0" dur="0.63s" begin="0.8983900749022682s" fill="freeze" /></path><path d="M 40.1 -2.5 C 39.6 -3.9 39.5 -6.0 39.5 -8.0 C 39.5 -12.6 39.5 -13.3 39.5 -15.8 C 39.5 -19.2 39.2 -20.9 38.0 -22.6 C 37.0 -23.9 35.3 -24.6 33.3 -24.6 C 29.5 -24.6 24.1 -19.4 23.9 -13.9" transform="translate(0.0 38.0)" stroke-dasharray="41.10370500906305" stroke-dashoffset="41.10370500906305"><animate attributeName="stroke-dashoffset" from="41.10370500906305" to="0" dur="1.2331111502718914s" begin="1.5283900749022683s" fill="freeze" /></path></g></svg>