<?xml version='1.0' encoding='utf-8'?>
<svg viewBox="0.0 -6.0 50.0 50.0" version="1.1" xmlns="http://www.w3.org/2000/svg"><rect x="-1000" y="-1000" width="2000" height="2000" stroke="white" fill="white" /><g style="fill:none;stroke:#000000;stroke-width:1"><path d="M 33.9 -32.2 C 31.1 -31.8 27.9 -31.6 24.8 -31.6 C 21.1 -31.6 17.6 -31.9 14.8 -32.5 " transform="translate(0.0 38.0)" stroke-dasharray="19.18502950102343" stroke-dashoffset="19.18502950102343"><animate attributeName="stroke-dashoffset" from="19.18502950102343" to="0" dur="0.5755508850307028s" begin="0s; 15s; 30s; 45s" fill="freeze" id="anim0" /></path><path d="M 11.0 -12.4 C 10.8 -11.7 10.7 -10.8 10.7 -9.8 C 10.7 -5.3 13.9 -2.8 23.9 -2.8 C 29.4 -2.8 34.0 -3.1 38.2 -4.1 " transform="translate(0.0 38.0)" stroke-dasharray="33.87162766469071" stroke-dashoffset="33.87162766469071"><animate attributeName="stroke-dashoffset" from="33.87162766469071" to="0" dur="1.0161488299407213s" begin="anim0.end" fill="freeze" id="anim1" /></path><path d="M 37.5 -37.8 C 38.9 -36.5 40.5 -34.6 41.8 -32.9 " transform="translate(0.0 38.0)" stroke-dasharray="6.526156763942653" stroke-dashoffset="6.526156763942653"><animate attributeName="stroke-dashoffset" from="6.526156763942653" to="0" dur="0.1957847029182796s" begin="anim1.end" fill="freeze" id="anim2" /></path><path d="M 42.0 -41.5 C 43.3 -40.3 45.1 -38.3 46.2 -36.8" transform="translate(0.0 38.0)" stroke-dasharray="6.310870304143297" stroke-dashoffset="6.310870304143297"><animate attributeName="stroke-dashoffset" from="6.310870304143297" to="0" dur="0.1893261091242989s" begin="anim2.end" fill="freeze" id="anim_end" /></path></g></svg>