<?xml version='1.0' encoding='utf-8'?>
<svg viewBox="0.0 -6.0 50.0 50.0" version="1.1" xmlns="http://www.w3.org/2000/svg"><rect x="-1000" y="-1000" width="2000" height="2000" stroke="white" fill="white" /><g style="fill:none;stroke:#000000;stroke-width:1"><path d="M 19.4 -37.6 C 19.5 -31.2 20.1 -25.2 21.2 -20.4 " transform="translate(0.0 38.0)" stroke-dasharray="17.32377970323587" stroke-dashoffset="17.32377970323587"><animate attributeName="stroke-dashoffset" from="17.32377970323587" to="0" dur="0.5197133910970761s" begin="0s; anim_end.end" fill="freeze" id="anim0" /></path><path d="M 36.7 -1.6 C 34.1 -1.0 30.2 -0.6 26.1 -0.6 C 16.2 -0.6 12.9 -3.2 12.9 -8.1 C 12.9 -11.4 15.2 -15.3 20.8 -18.8 C 25.4 -21.5 29.8 -23.4 33.8 -24.6 " transform="translate(0.0 38.0)" stroke-dasharray="56.011666696321015" stroke-dashoffset="56.011666696321015"><animate attributeName="stroke-dashoffset" from="56.011666696321015" to="0" dur="1.6803500008896304s" begin="anim0.end" fill="freeze" id="anim1" /></path><path d="M 33.4 -35.4 C 34.8 -34.2 36.5 -32.5 37.9 -30.8 " transform="translate(0.0 38.0)" stroke-dasharray="6.442375524260824" stroke-dashoffset="6.442375524260824"><animate attributeName="stroke-dashoffset" from="6.442375524260824" to="0" dur="0.19327126572782471s" begin="anim1.end" fill="freeze" id="anim2" /></path><path d="M 37.6 -39.4 C 39.0 -38.3 41.0 -36.4 42.1 -34.9" transform="translate(0.0 38.0)" stroke-dasharray="6.379492153847755" stroke-dashoffset="6.379492153847755"><animate attributeName="stroke-dashoffset" from="6.379492153847755" to="0" dur="0.19138476461543263s" begin="anim2.end" fill="freeze" id="anim_end" /></path></g></svg>