<?xml version='1.0' encoding='utf-8'?>
<svg viewBox="0.0 -6.0 50.0 50.0" version="1.1" xmlns="http://www.w3.org/2000/svg"><rect x="-1000" y="-1000" width="2000" height="2000" stroke="white" fill="white" /><g style="fill:none;stroke:#000000;stroke-width:1"><path d="M 3.2 -18.8 C 6.9 -23.8 10.8 -32.1 12.7 -39.6 " transform="translate(0.0 38.0)" stroke-dasharray="22.98927850116117" stroke-dashoffset="22.98927850116117"><animate attributeName="stroke-dashoffset" from="22.98927850116117" to="0" dur="0.6896783550348351s" begin="0s; anim_end.end" fill="freeze" id="anim0" /></path><path d="M 10.1 2.6 L 10.1 -25.8 " transform="translate(0.0 38.0)" stroke-dasharray="28.400000000000002" stroke-dashoffset="28.400000000000002"><animate attributeName="stroke-dashoffset" from="28.400000000000002" to="0" dur="0.852s" begin="anim0.end" fill="freeze" id="anim1" /></path><path d="M 18.4 -16.4 C 20.2 -18.8 21.9 -22.0 23.1 -25.0 " transform="translate(0.0 38.0)" stroke-dasharray="9.826498132999976" stroke-dashoffset="9.826498132999976"><animate attributeName="stroke-dashoffset" from="9.826498132999976" to="0" dur="0.2947949439899993s" begin="anim1.end" fill="freeze" id="anim2" /></path><path d="M 46.1 -10.9 L 16.2 -10.9 " transform="translate(0.0 38.0)" stroke-dasharray="29.900000000000002" stroke-dashoffset="29.900000000000002"><animate attributeName="stroke-dashoffset" from="29.900000000000002" to="0" dur="0.897s" begin="anim2.end" fill="freeze" id="anim3" /></path><path d="M 31.4 2.2 L 31.4 -26.3 " transform="translate(0.0 38.0)" stroke-dasharray="28.5" stroke-dashoffset="28.5"><animate attributeName="stroke-dashoffset" from="28.5" to="0" dur="0.855s" begin="anim3.end" fill="freeze" id="anim4" /></path><path d="M 43.0 -20.0 L 20.4 -20.0 " transform="translate(0.0 38.0)" stroke-dasharray="22.6" stroke-dashoffset="22.6"><animate attributeName="stroke-dashoffset" from="22.6" to="0" dur="0.678s" begin="anim4.end" fill="freeze" id="anim5" /></path><path d="M 18.1 -30.3 C 25.9 -30.4 34.2 -31.1 41.7 -32.0 " transform="translate(0.0 38.0)" stroke-dasharray="23.67199430237749" stroke-dashoffset="23.67199430237749"><animate attributeName="stroke-dashoffset" from="23.67199430237749" to="0" dur="0.7101598290713247s" begin="anim5.end" fill="freeze" id="anim6" /></path><path d="M 23.3 -30.8 C 25.1 -33.5 26.8 -36.2 28.4 -39.8 " transform="translate(0.0 38.0)" stroke-dasharray="10.358476798704517" stroke-dashoffset="10.358476798704517"><animate attributeName="stroke-dashoffset" from="10.358476798704517" to="0" dur="0.3107543039611355s" begin="anim6.end" fill="freeze" id="anim7" /></path><path d="M 44.4 -29.4 C 42.0 -32.2 39.3 -34.8 37.1 -36.5" transform="translate(0.0 38.0)" stroke-dasharray="10.199289027925552" stroke-dashoffset="10.199289027925552"><animate attributeName="stroke-dashoffset" from="10.199289027925552" to="0" dur="0.30597867083776653s" begin="anim7.end" fill="freeze" id="anim_end" /></path></g></svg>