<?xml version='1.0' encoding='utf-8'?>
<svg viewBox="0.0 -6.0 50.0 50.0" version="1.1" xmlns="http://www.w3.org/2000/svg"><rect x="-1000" y="-1000" width="2000" height="2000" stroke="white" fill="white" /><g style="fill:none;stroke:#000000;stroke-width:1"><path d="M 16.2 1.8 C 28.9 -0.7 35.5 -7.8 38.1 -17.4 " transform="translate(0.0 38.0)" stroke-dasharray="30.893678225409666" stroke-dashoffset="30.893678225409666"><animate attributeName="stroke-dashoffset" from="30.893678225409666" to="0" dur="0.9268103467622899s" begin="0s; 15s; 30s; 45s" fill="freeze" id="anim0" /></path><path d="M 9.2 2.6 L 9.2 -25.6 " transform="translate(0.0 38.0)" stroke-dasharray="28.200000000000003" stroke-dashoffset="28.200000000000003"><animate attributeName="stroke-dashoffset" from="28.200000000000003" to="0" dur="0.8460000000000001s" begin="anim0.end" fill="freeze" id="anim1" /></path><path d="M 42.0 0.6 C 36.5 -3.8 29.3 -7.4 21.8 -9.2 " transform="translate(0.0 38.0)" stroke-dasharray="22.6256159336563" stroke-dashoffset="22.6256159336563"><animate attributeName="stroke-dashoffset" from="22.6256159336563" to="0" dur="0.678768478009689s" begin="anim1.end" fill="freeze" id="anim2" /></path><path d="M 3.0 -18.9 C 6.5 -24.1 9.9 -32.3 11.7 -39.7 " transform="translate(0.0 38.0)" stroke-dasharray="22.647369512583317" stroke-dashoffset="22.647369512583317"><animate attributeName="stroke-dashoffset" from="22.647369512583317" to="0" dur="0.6794210853774995s" begin="anim2.end" fill="freeze" id="anim3" /></path><path d="M 20.1 -7.9 C 23.7 -12.5 26.8 -17.9 28.6 -22.9 " transform="translate(0.0 38.0)" stroke-dasharray="17.30963620640019" stroke-dashoffset="17.30963620640019"><animate attributeName="stroke-dashoffset" from="17.30963620640019" to="0" dur="0.5192890861920056s" begin="anim3.end" fill="freeze" id="anim4" /></path><path d="M 45.8 -17.6 L 15.2 -17.6 " transform="translate(0.0 38.0)" stroke-dasharray="30.599999999999998" stroke-dashoffset="30.599999999999998"><animate attributeName="stroke-dashoffset" from="30.599999999999998" to="0" dur="0.9179999999999999s" begin="anim4.end" fill="freeze" id="anim5" /></path><path d="M 45.3 -28.0 L 16.4 -28.0 " transform="translate(0.0 38.0)" stroke-dasharray="28.9" stroke-dashoffset="28.9"><animate attributeName="stroke-dashoffset" from="28.9" to="0" dur="0.8669999999999999s" begin="anim5.end" fill="freeze" id="anim6" /></path><path d="M 40.9 -37.4 L 20.4 -37.4" transform="translate(0.0 38.0)" stroke-dasharray="20.5" stroke-dashoffset="20.5"><animate attributeName="stroke-dashoffset" from="20.5" to="0" dur="0.615s" begin="anim6.end" fill="freeze" id="anim_end" /></path></g></svg>