<?xml version='1.0' encoding='utf-8'?>
<svg viewBox="0.0 -6.0 50.0 50.0" version="1.1" xmlns="http://www.w3.org/2000/svg"><rect x="-1000" y="-1000" width="2000" height="2000" stroke="white" fill="white" /><g style="fill:none;stroke:#000000;stroke-width:1"><path d="M 14.6 2.2 C 19.7 0.7 24.4 -2.3 26.9 -5.8 C 29.2 -9.2 30.2 -13.6 30.2 -21.9 L 30.2 -36.9 " transform="translate(0.0 38.0)" stroke-dasharray="46.604037407428635" stroke-dashoffset="46.604037407428635"><animate attributeName="stroke-dashoffset" from="46.604037407428635" to="0" dur="1.398121122222859s" begin="0s" fill="freeze" /></path><path d="M 8.8 2.7 L 8.8 -25.1 " transform="translate(0.0 38.0)" stroke-dasharray="27.8" stroke-dashoffset="27.8"><animate attributeName="stroke-dashoffset" from="27.8" to="0" dur="0.834s" begin="1.398121122222859s" fill="freeze" /></path><path d="M 3.0 -18.8 C 6.2 -23.9 9.5 -32.1 11.1 -39.5 " transform="translate(0.0 38.0)" stroke-dasharray="22.323677030816487" stroke-dashoffset="22.323677030816487"><animate attributeName="stroke-dashoffset" from="22.323677030816487" to="0" dur="0.6697103109244946s" begin="2.2321211222228587s" fill="freeze" /></path><path d="M 45.8 1.2 C 34.9 0.1 26.6 -4.0 21.6 -10.9 " transform="translate(0.0 38.0)" stroke-dasharray="27.897028453038857" stroke-dashoffset="27.897028453038857"><animate attributeName="stroke-dashoffset" from="27.897028453038857" to="0" dur="0.8369108535911657s" begin="2.901831433147353s" fill="freeze" /></path><path d="M 41.8 -23.2 L 18.8 -23.2 " transform="translate(0.0 38.0)" stroke-dasharray="22.999999999999996" stroke-dashoffset="22.999999999999996"><animate attributeName="stroke-dashoffset" from="22.999999999999996" to="0" dur="0.6899999999999998s" begin="3.738742286738519s" fill="freeze" /></path><path d="M 22.4 -15.7 L 38.8 -15.7 C 41.5 -15.7 42.7 -16.6 42.7 -18.9 L 42.7 -27.1 C 42.7 -29.4 41.5 -30.4 38.8 -30.4 L 22.4 -30.4 C 19.6 -30.4 18.4 -29.4 18.4 -27.1 L 18.4 -18.9 C 18.4 -16.6 19.6 -15.7 22.4 -15.7 Z " transform="translate(0.0 38.0)" stroke-dasharray="72.86169002903296" stroke-dashoffset="72.86169002903296"><animate attributeName="stroke-dashoffset" from="72.86169002903296" to="0" dur="2.1858507008709886s" begin="4.428742286738519s" fill="freeze" /></path><path d="M 46.0 -37.4 L 16.3 -37.4" transform="translate(0.0 38.0)" stroke-dasharray="29.7" stroke-dashoffset="29.7"><animate attributeName="stroke-dashoffset" from="29.7" to="0" dur="0.8909999999999999s" begin="6.614592987609507s" fill="freeze" /></path></g></svg>