<?xml version='1.0' encoding='utf-8'?>
<svg viewBox="0.0 -6.0 50.0 50.0" version="1.1" xmlns="http://www.w3.org/2000/svg"><rect x="-1000" y="-1000" width="2000" height="2000" stroke="white" fill="white" /><g style="fill:none;stroke:#000000;stroke-width:1"><path d="M 35.4 1.4 C 36.0 1.5 36.9 1.6 37.5 1.6 C 39.6 1.6 40.6 0.8 40.6 -1.9 L 40.6 -20.3 C 40.6 -22.6 39.6 -23.6 36.7 -23.6 L 28.4 -23.6 C 25.4 -23.6 24.4 -22.5 24.4 -20.3 L 24.4 2.2 " transform="translate(0.0 38.0)" stroke-dasharray="68.72187371945633" stroke-dashoffset="68.72187371945633"><animate attributeName="stroke-dashoffset" from="68.72187371945633" to="0" dur="2.06165621158369s" begin="0s; 15s; 30s; 45s" fill="freeze" id="anim0" /></path><path d="M 9.7 2.6 L 9.7 -25.9 " transform="translate(0.0 38.0)" stroke-dasharray="28.5" stroke-dashoffset="28.5"><animate attributeName="stroke-dashoffset" from="28.5" to="0" dur="0.855s" begin="anim0.end" fill="freeze" id="anim1" /></path><path d="M 3.1 -19.1 C 6.7 -24.1 10.3 -32.4 12.2 -39.8 " transform="translate(0.0 38.0)" stroke-dasharray="22.722432311061215" stroke-dashoffset="22.722432311061215"><animate attributeName="stroke-dashoffset" from="22.722432311061215" to="0" dur="0.6816729693318364s" begin="anim1.end" fill="freeze" id="anim2" /></path><path d="M 39.9 -8.6 L 25.1 -8.6 " transform="translate(0.0 38.0)" stroke-dasharray="14.799999999999997" stroke-dashoffset="14.799999999999997"><animate attributeName="stroke-dashoffset" from="14.799999999999997" to="0" dur="0.4439999999999999s" begin="anim2.end" fill="freeze" id="anim3" /></path><path d="M 39.9 -16.1 L 25.1 -16.1 " transform="translate(0.0 38.0)" stroke-dasharray="14.799999999999997" stroke-dashoffset="14.799999999999997"><animate attributeName="stroke-dashoffset" from="14.799999999999997" to="0" dur="0.4439999999999999s" begin="anim3.end" fill="freeze" id="anim4" /></path><path d="M 15.8 -15.8 C 21.6 -21.3 26.8 -31.1 29.1 -39.7 " transform="translate(0.0 38.0)" stroke-dasharray="27.649212019967273" stroke-dashoffset="27.649212019967273"><animate attributeName="stroke-dashoffset" from="27.649212019967273" to="0" dur="0.8294763605990182s" begin="anim4.end" fill="freeze" id="anim5" /></path><path d="M 46.0 -32.9 L 17.1 -32.9" transform="translate(0.0 38.0)" stroke-dasharray="28.9" stroke-dashoffset="28.9"><animate attributeName="stroke-dashoffset" from="28.9" to="0" dur="0.8669999999999999s" begin="anim5.end" fill="freeze" id="anim_end" /></path></g></svg>