<?xml version='1.0' encoding='utf-8'?>
<svg viewBox="0.0 -6.0 50.0 50.0" version="1.1" xmlns="http://www.w3.org/2000/svg"><rect x="-1000" y="-1000" width="2000" height="2000" stroke="white" fill="white" /><g style="fill:none;stroke:#000000;stroke-width:1"><path d="M 3.7 -21.6 C 11.9 -26.1 20.1 -33.5 25.0 -40.7 " transform="translate(0.0 38.0)" stroke-dasharray="28.848176789559922" stroke-dashoffset="28.848176789559922"><animate attributeName="stroke-dashoffset" from="28.848176789559922" to="0" dur="0.8654453036867976s" begin="0s; anim_end.end" fill="freeze" id="anim0" /></path><path d="M 6.0 -0.7 C 9.6 -2.9 12.6 -5.8 15.0 -8.9 " transform="translate(0.0 38.0)" stroke-dasharray="12.242464260888905" stroke-dashoffset="12.242464260888905"><animate attributeName="stroke-dashoffset" from="12.242464260888905" to="0" dur="0.3672739278266671s" begin="anim0.end" fill="freeze" id="anim1" /></path><path d="M 18.6 1.9 C 19.6 2.1 20.6 2.2 21.6 2.2 C 23.9 2.2 24.9 1.4 24.9 -1.1 L 24.9 -24.2 " transform="translate(0.0 38.0)" stroke-dasharray="31.574929152161687" stroke-dashoffset="31.574929152161687"><animate attributeName="stroke-dashoffset" from="31.574929152161687" to="0" dur="0.9472478745648506s" begin="anim1.end" fill="freeze" id="anim2" /></path><path d="M 44.0 -15.5 L 5.7 -15.5 " transform="translate(0.0 38.0)" stroke-dasharray="38.3" stroke-dashoffset="38.3"><animate attributeName="stroke-dashoffset" from="38.3" to="0" dur="1.1489999999999998s" begin="anim2.end" fill="freeze" id="anim3" /></path><path d="M 43.1 -1.3 C 39.8 -3.5 36.9 -6.1 34.5 -9.1 " transform="translate(0.0 38.0)" stroke-dasharray="11.656556361525693" stroke-dashoffset="11.656556361525693"><animate attributeName="stroke-dashoffset" from="11.656556361525693" to="0" dur="0.34969669084577076s" begin="anim3.end" fill="freeze" id="anim4" /></path><path d="M 34.4 -23.9 L 15.4 -23.9 " transform="translate(0.0 38.0)" stroke-dasharray="19.0" stroke-dashoffset="19.0"><animate attributeName="stroke-dashoffset" from="19.0" to="0" dur="0.57s" begin="anim4.end" fill="freeze" id="anim5" /></path><path d="M 46.0 -22.6 C 38.2 -26.1 30.2 -32.7 25.1 -39.8" transform="translate(0.0 38.0)" stroke-dasharray="27.353498345938153" stroke-dashoffset="27.353498345938153"><animate attributeName="stroke-dashoffset" from="27.353498345938153" to="0" dur="0.8206049503781445s" begin="anim5.end" fill="freeze" id="anim_end" /></path></g></svg>