<?xml version='1.0' encoding='utf-8'?>
<svg viewBox="0.0 -6.0 50.0 50.0" version="1.1" xmlns="http://www.w3.org/2000/svg"><rect x="-1000" y="-1000" width="2000" height="2000" stroke="white" fill="white" /><g style="fill:none;stroke:#000000;stroke-width:1"><path d="M 20.7 1.6 C 30.2 -1.1 39.6 -6.8 43.9 -13.3 C 45.3 -15.5 44.4 -17.3 41.8 -17.3 L 32.9 -17.3 " transform="translate(0.0 38.0)" stroke-dasharray="42.93011156304505" stroke-dashoffset="42.93011156304505"><animate attributeName="stroke-dashoffset" from="42.93011156304505" to="0" dur="1.2879033468913514s" begin="0s; 15s; 30s; 45s" fill="freeze" id="anim0" /></path><path d="M 9.7 2.6 L 9.7 -25.6 " transform="translate(0.0 38.0)" stroke-dasharray="28.200000000000003" stroke-dashoffset="28.200000000000003"><animate attributeName="stroke-dashoffset" from="28.200000000000003" to="0" dur="0.8460000000000001s" begin="anim0.end" fill="freeze" id="anim1" /></path><path d="M 3.1 -18.9 C 6.7 -23.9 10.3 -32.2 12.2 -39.6 " transform="translate(0.0 38.0)" stroke-dasharray="22.722432311061223" stroke-dashoffset="22.722432311061223"><animate attributeName="stroke-dashoffset" from="22.722432311061223" to="0" dur="0.6816729693318366s" begin="anim1.end" fill="freeze" id="anim2" /></path><path d="M 35.8 -6.3 C 34.1 -8.1 32.5 -9.6 31.4 -10.4 " transform="translate(0.0 38.0)" stroke-dasharray="6.021142849495244" stroke-dashoffset="6.021142849495244"><animate attributeName="stroke-dashoffset" from="6.021142849495244" to="0" dur="0.18063428548485733s" begin="anim2.end" fill="freeze" id="anim3" /></path><path d="M 21.6 -10.4 C 26.9 -12.8 32.5 -17.2 35.7 -21.4 " transform="translate(0.0 38.0)" stroke-dasharray="18.042607081201673" stroke-dashoffset="18.042607081201673"><animate attributeName="stroke-dashoffset" from="18.042607081201673" to="0" dur="0.5412782124360501s" begin="anim3.end" fill="freeze" id="anim4" /></path><path d="M 16.8 -17.0 C 24.3 -19.9 32.8 -25.6 36.9 -31.4 C 38.6 -33.8 37.7 -35.5 35.0 -35.5 L 26.7 -35.5 " transform="translate(0.0 38.0)" stroke-dasharray="39.495084796375764" stroke-dashoffset="39.495084796375764"><animate attributeName="stroke-dashoffset" from="39.495084796375764" to="0" dur="1.184852543891273s" begin="anim4.end" fill="freeze" id="anim5" /></path><path d="M 29.6 -24.6 C 28.0 -26.2 26.4 -27.6 25.4 -28.3 " transform="translate(0.0 38.0)" stroke-dasharray="5.60293403394215" stroke-dashoffset="5.60293403394215"><animate attributeName="stroke-dashoffset" from="5.60293403394215" to="0" dur="0.16808802101826448s" begin="anim5.end" fill="freeze" id="anim6" /></path><path d="M 17.9 -28.4 C 22.1 -31.1 26.7 -35.5 29.6 -40.0" transform="translate(0.0 38.0)" stroke-dasharray="16.588314730505772" stroke-dashoffset="16.588314730505772"><animate attributeName="stroke-dashoffset" from="16.588314730505772" to="0" dur="0.49764944191517313s" begin="anim6.end" fill="freeze" id="anim_end" /></path></g></svg>