<?xml version='1.0' encoding='utf-8'?>
<svg viewBox="0.0 -6.0 50.0 50.0" version="1.1" xmlns="http://www.w3.org/2000/svg"><rect x="-1000" y="-1000" width="2000" height="2000" stroke="white" fill="white" /><g style="fill:none;stroke:#000000;stroke-width:1"><path d="M 31.4 0.1 C 32.3 0.3 33.5 0.5 34.6 0.5 C 37.7 0.5 39.7 -1.2 40.5 -5.8 C 41.8 -12.7 42.5 -23.9 42.5 -33.5 C 42.5 -36.0 41.5 -37.0 38.3 -37.0 L 19.4 -37.0 " transform="translate(0.0 38.0)" stroke-dasharray="65.89816447043579" stroke-dashoffset="65.89816447043579"><animate attributeName="stroke-dashoffset" from="65.89816447043579" to="0" dur="1.9769449341130736s" begin="0s" fill="freeze" /></path><path d="M 9.7 2.6 L 9.7 -25.4 " transform="translate(0.0 38.0)" stroke-dasharray="28.0" stroke-dashoffset="28.0"><animate attributeName="stroke-dashoffset" from="28.0" to="0" dur="0.84s" begin="1.9769449341130736s" fill="freeze" /></path><path d="M 3.1 -18.6 C 6.7 -23.6 10.3 -31.9 12.2 -39.4 " transform="translate(0.0 38.0)" stroke-dasharray="22.816741191870754" stroke-dashoffset="22.816741191870754"><animate attributeName="stroke-dashoffset" from="22.816741191870754" to="0" dur="0.6845022357561226s" begin="2.8169449341130735s" fill="freeze" /></path><path d="M 16.8 0.9 C 26.4 -7.8 30.2 -20.0 30.2 -35.9 " transform="translate(0.0 38.0)" stroke-dasharray="40.40573149976038" stroke-dashoffset="40.40573149976038"><animate attributeName="stroke-dashoffset" from="40.40573149976038" to="0" dur="1.2121719449928112s" begin="3.501447169869196s" fill="freeze" /></path><path d="M 17.1 -23.0 C 18.7 -24.9 20.4 -27.8 21.5 -30.5 " transform="translate(0.0 38.0)" stroke-dasharray="8.726586051614584" stroke-dashoffset="8.726586051614584"><animate attributeName="stroke-dashoffset" from="8.726586051614584" to="0" dur="0.2617975815484375s" begin="4.7136191148620075s" fill="freeze" /></path><path d="M 45.7 -4.5 C 33.7 -9.9 25.9 -17.9 21.5 -29.0" transform="translate(0.0 38.0)" stroke-dasharray="35.3752310204469" stroke-dashoffset="35.3752310204469"><animate attributeName="stroke-dashoffset" from="35.3752310204469" to="0" dur="1.061256930613407s" begin="4.975416696410445s" fill="freeze" /></path></g></svg>