<?xml version='1.0' encoding='utf-8'?>
<svg viewBox="0.0 -6.0 50.0 50.0" version="1.1" xmlns="http://www.w3.org/2000/svg"><rect x="-1000" y="-1000" width="2000" height="2000" stroke="white" fill="white" /><g style="fill:none;stroke:#000000;stroke-width:1"><path d="M 31.9 1.9 L 31.9 -37.2 " transform="translate(0.0 38.0)" stroke-dasharray="39.1" stroke-dashoffset="39.1"><animate attributeName="stroke-dashoffset" from="39.1" to="0" dur="1.173s" begin="0s; anim_end.end" fill="freeze" id="anim0" /></path><path d="M 4.2 -6.4 C 7.8 -7.6 12.8 -9.6 16.1 -11.4 " transform="translate(0.0 38.0)" stroke-dasharray="12.921642929962095" stroke-dashoffset="12.921642929962095"><animate attributeName="stroke-dashoffset" from="12.921642929962095" to="0" dur="0.3876492878988628s" begin="anim0.end" fill="freeze" id="anim1" /></path><path d="M 10.4 -8.4 L 10.4 -38.9 " transform="translate(0.0 38.0)" stroke-dasharray="30.5" stroke-dashoffset="30.5"><animate attributeName="stroke-dashoffset" from="30.5" to="0" dur="0.9149999999999999s" begin="anim1.end" fill="freeze" id="anim2" /></path><path d="M 16.1 -26.9 L 4.2 -26.9 " transform="translate(0.0 38.0)" stroke-dasharray="11.900000000000002" stroke-dashoffset="11.900000000000002"><animate attributeName="stroke-dashoffset" from="11.900000000000002" to="0" dur="0.35700000000000004s" begin="anim2.end" fill="freeze" id="anim3" /></path><path d="M 46.2 -17.6 L 18.1 -17.6 " transform="translate(0.0 38.0)" stroke-dasharray="28.1" stroke-dashoffset="28.1"><animate attributeName="stroke-dashoffset" from="28.1" to="0" dur="0.843s" begin="anim3.end" fill="freeze" id="anim4" /></path><path d="M 25.4 -24.4 C 24.9 -26.0 23.5 -28.4 22.5 -30.1 " transform="translate(0.0 38.0)" stroke-dasharray="6.406591619890282" stroke-dashoffset="6.406591619890282"><animate attributeName="stroke-dashoffset" from="6.406591619890282" to="0" dur="0.19219774859670846s" begin="anim4.end" fill="freeze" id="anim5" /></path><path d="M 38.2 -23.9 C 39.5 -25.6 40.8 -27.9 41.8 -30.2 " transform="translate(0.0 38.0)" stroke-dasharray="7.272495867533234" stroke-dashoffset="7.272495867533234"><animate attributeName="stroke-dashoffset" from="7.272495867533234" to="0" dur="0.218174876025997s" begin="anim5.end" fill="freeze" id="anim6" /></path><path d="M 44.5 -37.0 L 19.9 -37.0" transform="translate(0.0 38.0)" stroke-dasharray="24.6" stroke-dashoffset="24.6"><animate attributeName="stroke-dashoffset" from="24.6" to="0" dur="0.738s" begin="anim6.end" fill="freeze" id="anim_end" /></path></g></svg>