<?xml version='1.0' encoding='utf-8'?>
<svg viewBox="0.0 -6.0 50.0 50.0" version="1.1" xmlns="http://www.w3.org/2000/svg"><rect x="-1000" y="-1000" width="2000" height="2000" stroke="white" fill="white" /><g style="fill:none;stroke:#000000;stroke-width:1"><path d="M 3.9 0.7 C 6.7 -4.4 8.0 -10.4 8.0 -18.6 L 8.0 -23.8 C 8.0 -25.9 8.9 -26.9 11.8 -26.9 L 44.9 -26.9 " transform="translate(0.0 38.0)" stroke-dasharray="63.94950565818613" stroke-dashoffset="63.94950565818613"><animate attributeName="stroke-dashoffset" from="63.94950565818613" to="0" dur="1.918485169745584s" begin="0s; 15s; 30s; 45s" fill="freeze" id="anim0" /></path><path d="M 46.2 1.3 L 10.2 1.3 " transform="translate(0.0 38.0)" stroke-dasharray="36.0" stroke-dashoffset="36.0"><animate attributeName="stroke-dashoffset" from="36.0" to="0" dur="1.08s" begin="anim0.end" fill="freeze" id="anim1" /></path><path d="M 27.8 1.8 L 27.8 -8.9 " transform="translate(0.0 38.0)" stroke-dasharray="10.700000000000001" stroke-dashoffset="10.700000000000001"><animate attributeName="stroke-dashoffset" from="10.700000000000001" to="0" dur="0.321s" begin="anim1.end" fill="freeze" id="anim2" /></path><path d="M 40.9 -5.7 L 15.8 -5.7 " transform="translate(0.0 38.0)" stroke-dasharray="25.099999999999998" stroke-dashoffset="25.099999999999998"><animate attributeName="stroke-dashoffset" from="25.099999999999998" to="0" dur="0.7529999999999999s" begin="anim2.end" fill="freeze" id="anim3" /></path><path d="M 44.9 -12.9 L 12.7 -12.9 " transform="translate(0.0 38.0)" stroke-dasharray="32.2" stroke-dashoffset="32.2"><animate attributeName="stroke-dashoffset" from="32.2" to="0" dur="0.9660000000000001s" begin="anim3.end" fill="freeze" id="anim4" /></path><path d="M 27.8 -12.5 L 27.8 -22.7 " transform="translate(0.0 38.0)" stroke-dasharray="10.2" stroke-dashoffset="10.2"><animate attributeName="stroke-dashoffset" from="10.2" to="0" dur="0.306s" begin="anim4.end" fill="freeze" id="anim5" /></path><path d="M 40.4 -19.4 L 16.6 -19.4 " transform="translate(0.0 38.0)" stroke-dasharray="23.799999999999997" stroke-dashoffset="23.799999999999997"><animate attributeName="stroke-dashoffset" from="23.799999999999997" to="0" dur="0.7139999999999999s" begin="anim5.end" fill="freeze" id="anim6" /></path><path d="M 9.9 -39.2 L 9.9 -35.5 C 9.9 -33.8 10.8 -33.1 13.2 -33.1 L 38.0 -33.1 C 40.4 -33.1 41.2 -33.8 41.2 -35.5 L 41.2 -39.2 " transform="translate(0.0 38.0)" stroke-dasharray="41.56517032119116" stroke-dashoffset="41.56517032119116"><animate attributeName="stroke-dashoffset" from="41.56517032119116" to="0" dur="1.2469551096357347s" begin="anim6.end" fill="freeze" id="anim7" /></path><path d="M 25.3 -33.0 L 25.3 -40.9" transform="translate(0.0 38.0)" stroke-dasharray="7.899999999999999" stroke-dashoffset="7.899999999999999"><animate attributeName="stroke-dashoffset" from="7.899999999999999" to="0" dur="0.23699999999999996s" begin="anim7.end" fill="freeze" id="anim_end" /></path></g></svg>