<?xml version='1.0' encoding='utf-8'?>
<svg viewBox="0.0 -6.0 50.0 50.0" version="1.1" xmlns="http://www.w3.org/2000/svg"><rect x="-1000" y="-1000" width="2000" height="2000" stroke="white" fill="white" /><g style="fill:none;stroke:#000000;stroke-width:1"><path d="M 3.1 1.7 C 5.5 -2.5 6.8 -8.4 6.8 -15.2 L 6.8 -19.4 C 6.8 -21.6 7.7 -22.6 10.6 -22.6 L 45.5 -22.6 " transform="translate(0.0 38.0)" stroke-dasharray="62.376221804189214" stroke-dashoffset="62.376221804189214"><animate attributeName="stroke-dashoffset" from="62.376221804189214" to="0" dur="1.8712866541256763s" begin="0s" fill="freeze" /></path><path d="M 9.2 0.9 C 13.3 0.6 17.9 -0.1 22.2 -1.0 " transform="translate(0.0 38.0)" stroke-dasharray="13.147358271158401" stroke-dashoffset="13.147358271158401"><animate attributeName="stroke-dashoffset" from="13.147358271158401" to="0" dur="0.39442074813475203s" begin="1.8712866541256763s" fill="freeze" /></path><path d="M 13.4 -0.3 L 13.4 -14.2 " transform="translate(0.0 38.0)" stroke-dasharray="13.899999999999999" stroke-dashoffset="13.899999999999999"><animate attributeName="stroke-dashoffset" from="13.899999999999999" to="0" dur="0.4169999999999999s" begin="2.2657074022604284s" fill="freeze" /></path><path d="M 22.4 -4.8 L 13.7 -4.8 " transform="translate(0.0 38.0)" stroke-dasharray="8.7" stroke-dashoffset="8.7"><animate attributeName="stroke-dashoffset" from="8.7" to="0" dur="0.26099999999999995s" begin="2.6827074022604283s" fill="freeze" /></path><path d="M 22.3 -9.2 L 13.6 -9.2 " transform="translate(0.0 38.0)" stroke-dasharray="8.700000000000001" stroke-dashoffset="8.700000000000001"><animate attributeName="stroke-dashoffset" from="8.700000000000001" to="0" dur="0.261s" begin="2.9437074022604284s" fill="freeze" /></path><path d="M 23.2 2.9 L 23.2 -14.2 " transform="translate(0.0 38.0)" stroke-dasharray="17.099999999999998" stroke-dashoffset="17.099999999999998"><animate attributeName="stroke-dashoffset" from="17.099999999999998" to="0" dur="0.5129999999999999s" begin="3.2047074022604285s" fill="freeze" /></path><path d="M 27.6 -13.7 L 7.5 -13.7 " transform="translate(0.0 38.0)" stroke-dasharray="20.1" stroke-dashoffset="20.1"><animate attributeName="stroke-dashoffset" from="20.1" to="0" dur="0.603s" begin="3.7177074022604284s" fill="freeze" /></path><path d="M 24.7 -18.1 L 12.4 -18.1 " transform="translate(0.0 38.0)" stroke-dasharray="12.299999999999999" stroke-dashoffset="12.299999999999999"><animate attributeName="stroke-dashoffset" from="12.299999999999999" to="0" dur="0.36899999999999994s" begin="4.320707402260428s" fill="freeze" /></path><path d="M 27.6 2.5 C 34.5 -0.2 40.2 -6.2 41.8 -13.8 " transform="translate(0.0 38.0)" stroke-dasharray="22.514539021963817" stroke-dashoffset="22.514539021963817"><animate attributeName="stroke-dashoffset" from="22.514539021963817" to="0" dur="0.6754361706589145s" begin="4.689707402260428s" fill="freeze" /></path><path d="M 45.3 1.8 C 39.0 -0.8 34.0 -6.0 31.9 -12.2 " transform="translate(0.0 38.0)" stroke-dasharray="19.967586292345125" stroke-dashoffset="19.967586292345125"><animate attributeName="stroke-dashoffset" from="19.967586292345125" to="0" dur="0.5990275887703537s" begin="5.365143572919342s" fill="freeze" /></path><path d="M 21.1 -28.4 L 21.1 -29.8 C 21.1 -31.0 20.6 -31.6 18.6 -31.6 L 11.9 -31.6 C 10.0 -31.6 9.4 -31.0 9.4 -29.8 L 9.4 -28.4 C 9.4 -27.2 10.0 -26.6 11.9 -26.6 L 18.6 -26.6 C 20.6 -26.6 21.1 -27.2 21.1 -28.4 Z " transform="translate(0.0 38.0)" stroke-dasharray="30.47099448481172" stroke-dashoffset="30.47099448481172"><animate attributeName="stroke-dashoffset" from="30.47099448481172" to="0" dur="0.9141298345443515s" begin="5.964171161689696s" fill="freeze" /></path><path d="M 28.8 -8.1 C 31.1 -10.8 33.4 -14.8 34.7 -18.5 " transform="translate(0.0 38.0)" stroke-dasharray="12.017009353586406" stroke-dashoffset="12.017009353586406"><animate attributeName="stroke-dashoffset" from="12.017009353586406" to="0" dur="0.36051028060759216s" begin="6.878300996234048s" fill="freeze" /></path><path d="M 45.5 -14.5 L 33.3 -14.5 " transform="translate(0.0 38.0)" stroke-dasharray="12.200000000000003" stroke-dashoffset="12.200000000000003"><animate attributeName="stroke-dashoffset" from="12.200000000000003" to="0" dur="0.36600000000000005s" begin="7.2388112768416395s" fill="freeze" /></path><path d="M 8.8 -40.1 L 8.8 -37.9 C 8.8 -36.1 9.6 -35.6 11.9 -35.6 L 38.2 -35.6 C 40.5 -35.6 41.4 -36.1 41.4 -37.9 L 41.4 -40.1 " transform="translate(0.0 38.0)" stroke-dasharray="39.823247907970554" stroke-dashoffset="39.823247907970554"><animate attributeName="stroke-dashoffset" from="39.823247907970554" to="0" dur="1.1946974372391166s" begin="7.604811276841639s" fill="freeze" /></path><path d="M 28.6 -29.8 L 28.6 -28.4 C 28.6 -27.2 29.2 -26.6 31.1 -26.6 L 38.4 -26.6 C 40.3 -26.6 40.8 -27.2 40.8 -28.4 L 40.8 -29.8 C 40.8 -31.0 40.3 -31.6 38.4 -31.6 L 31.1 -31.6 C 29.2 -31.6 28.6 -31.0 28.6 -29.8 Z " transform="translate(0.0 38.0)" stroke-dasharray="31.487964793250647" stroke-dashoffset="31.487964793250647"><animate attributeName="stroke-dashoffset" from="31.487964793250647" to="0" dur="0.9446389437975193s" begin="8.799508714080755s" fill="freeze" /></path><path d="M 24.8 -35.5 L 24.8 -41.1 " transform="translate(0.0 38.0)" stroke-dasharray="5.600000000000001" stroke-dashoffset="5.600000000000001"><animate attributeName="stroke-dashoffset" from="5.600000000000001" to="0" dur="0.16800000000000004s" begin="9.744147657878274s" fill="freeze" /></path><path d="M 18.4 -18.1 L 18.4 -14.0" transform="translate(0.0 38.0)" stroke-dasharray="4.100000000000001" stroke-dashoffset="4.100000000000001"><animate attributeName="stroke-dashoffset" from="4.100000000000001" to="0" dur="0.12300000000000004s" begin="9.912147657878274s" fill="freeze" /></path></g></svg>