<?xml version='1.0' encoding='utf-8'?>
<svg viewBox="0.0 -6.0 50.0 50.0" version="1.1" xmlns="http://www.w3.org/2000/svg"><rect x="-1000" y="-1000" width="2000" height="2000" stroke="white" fill="white" /><g style="fill:none;stroke:#000000;stroke-width:1"><path d="M 34.2 0.2 C 35.2 0.5 36.2 0.6 37.3 0.6 C 40.1 0.6 42.0 -0.9 42.7 -5.8 C 43.7 -12.6 44.5 -23.6 44.5 -33.2 C 44.5 -35.7 43.2 -36.9 40.1 -36.9 L 26.2 -36.9 " transform="translate(0.0 38.0)" stroke-dasharray="60.474236791197114" stroke-dashoffset="60.474236791197114"><animate attributeName="stroke-dashoffset" from="60.474236791197114" to="0" dur="1.8142271037359134s" begin="0s; 15s; 30s; 45s" fill="freeze" id="anim0" /></path><path d="M 4.8 1.7 C 10.2 -2.1 13.5 -7.7 13.5 -17.4 L 13.5 -26.7 " transform="translate(0.0 38.0)" stroke-dasharray="31.221557749361626" stroke-dashoffset="31.221557749361626"><animate attributeName="stroke-dashoffset" from="31.221557749361626" to="0" dur="0.9366467324808487s" begin="anim0.end" fill="freeze" id="anim1" /></path><path d="M 19.2 -2.5 C 17.6 -4.1 15.0 -6.1 12.4 -7.5 " transform="translate(0.0 38.0)" stroke-dasharray="8.466555401961454" stroke-dashoffset="8.466555401961454"><animate attributeName="stroke-dashoffset" from="8.466555401961454" to="0" dur="0.25399666205884364s" begin="anim1.end" fill="freeze" id="anim2" /></path><path d="M 21.8 -14.7 L 21.8 -18.1 C 21.8 -19.8 21.1 -20.6 18.6 -20.6 L 8.8 -20.6 C 6.5 -20.6 5.7 -19.8 5.7 -18.1 L 5.7 -14.7 C 5.7 -12.9 6.5 -12.2 8.8 -12.2 L 18.6 -12.2 C 21.1 -12.2 21.8 -12.9 21.8 -14.7 Z " transform="translate(0.0 38.0)" stroke-dasharray="45.14427532656534" stroke-dashoffset="45.14427532656534"><animate attributeName="stroke-dashoffset" from="45.14427532656534" to="0" dur="1.3543282597969601s" begin="anim2.end" fill="freeze" id="anim3" /></path><path d="M 18.6 -27.0 L 9.2 -27.0 " transform="translate(0.0 38.0)" stroke-dasharray="9.400000000000002" stroke-dashoffset="9.400000000000002"><animate attributeName="stroke-dashoffset" from="9.400000000000002" to="0" dur="0.28200000000000003s" begin="anim3.end" fill="freeze" id="anim4" /></path><path d="M 3.5 -27.4 C 7.2 -30.1 11.3 -34.6 13.9 -39.5 " transform="translate(0.0 38.0)" stroke-dasharray="16.079291538624435" stroke-dashoffset="16.079291538624435"><animate attributeName="stroke-dashoffset" from="16.079291538624435" to="0" dur="0.48237874615873305s" begin="anim4.end" fill="freeze" id="anim5" /></path><path d="M 23.2 1.2 C 31.1 -6.3 35.2 -16.5 35.2 -35.6 " transform="translate(0.0 38.0)" stroke-dasharray="39.890054569456346" stroke-dashoffset="39.890054569456346"><animate attributeName="stroke-dashoffset" from="39.890054569456346" to="0" dur="1.1967016370836903s" begin="anim5.end" fill="freeze" id="anim6" /></path><path d="M 21.6 -31.4 C 19.7 -33.5 16.4 -36.1 13.2 -37.8 " transform="translate(0.0 38.0)" stroke-dasharray="10.605580677933775" stroke-dashoffset="10.605580677933775"><animate attributeName="stroke-dashoffset" from="10.605580677933775" to="0" dur="0.3181674203380132s" begin="anim6.end" fill="freeze" id="anim7" /></path><path d="M 24.6 -23.7 C 25.9 -25.4 27.6 -28.1 28.6 -30.4 " transform="translate(0.0 38.0)" stroke-dasharray="7.819370991790108" stroke-dashoffset="7.819370991790108"><animate attributeName="stroke-dashoffset" from="7.819370991790108" to="0" dur="0.23458112975370324s" begin="anim7.end" fill="freeze" id="anim8" /></path><path d="M 46.6 -3.4 C 37.7 -9.7 31.4 -18.6 28.2 -28.9" transform="translate(0.0 38.0)" stroke-dasharray="32.01876336082434" stroke-dashoffset="32.01876336082434"><animate attributeName="stroke-dashoffset" from="32.01876336082434" to="0" dur="0.9605629008247301s" begin="anim8.end" fill="freeze" id="anim_end" /></path></g></svg>