<?xml version='1.0' encoding='utf-8'?>
<svg viewBox="0.0 -6.0 50.0 50.0" version="1.1" xmlns="http://www.w3.org/2000/svg"><rect x="-1000" y="-1000" width="2000" height="2000" stroke="white" fill="white" /><g style="fill:none;stroke:#000000;stroke-width:1"><path d="M 35.1 1.4 C 36.0 1.6 36.9 1.6 37.8 1.6 C 39.8 1.6 40.9 0.8 40.9 -1.3 L 40.9 -21.2 C 40.9 -23.3 40.0 -24.2 37.3 -24.2 L 31.4 -24.2 C 28.6 -24.2 27.8 -23.3 27.8 -21.2 L 27.8 -16.4 C 27.8 -7.8 25.2 -2.0 20.6 1.9 " transform="translate(0.0 38.0)" stroke-dasharray="69.49151814717922" stroke-dashoffset="69.49151814717922"><animate attributeName="stroke-dashoffset" from="69.49151814717922" to="0" dur="2.0847455444153766s" begin="0s; 15s; 30s; 45s" fill="freeze" id="anim0" /></path><path d="M 11.7 -4.3 L 15.8 -4.3 C 18.2 -4.3 19.1 -5.2 19.1 -7.2 L 19.1 -20.3 C 19.1 -22.4 18.2 -23.2 15.8 -23.2 L 11.7 -23.2 C 9.2 -23.2 8.4 -22.4 8.4 -20.3 L 8.4 -7.2 C 8.4 -5.2 9.2 -4.3 11.7 -4.3 Z " transform="translate(0.0 38.0)" stroke-dasharray="54.89585516024434" stroke-dashoffset="54.89585516024434"><animate attributeName="stroke-dashoffset" from="54.89585516024434" to="0" dur="1.64687565480733s" begin="anim0.end" fill="freeze" id="anim1" /></path><path d="M 18.7 -14.1 L 8.5 -14.1 " transform="translate(0.0 38.0)" stroke-dasharray="10.2" stroke-dashoffset="10.2"><animate attributeName="stroke-dashoffset" from="10.2" to="0" dur="0.306s" begin="anim1.end" fill="freeze" id="anim2" /></path><path d="M 40.5 -8.7 L 27.6 -8.7 " transform="translate(0.0 38.0)" stroke-dasharray="12.899999999999999" stroke-dashoffset="12.899999999999999"><animate attributeName="stroke-dashoffset" from="12.899999999999999" to="0" dur="0.38699999999999996s" begin="anim2.end" fill="freeze" id="anim3" /></path><path d="M 3.8 -24.2 C 11.2 -27.7 19.0 -33.9 23.2 -40.8 " transform="translate(0.0 38.0)" stroke-dasharray="25.861144667709883" stroke-dashoffset="25.861144667709883"><animate attributeName="stroke-dashoffset" from="25.861144667709883" to="0" dur="0.7758343400312965s" begin="anim3.end" fill="freeze" id="anim4" /></path><path d="M 40.0 -16.4 L 28.2 -16.4 " transform="translate(0.0 38.0)" stroke-dasharray="11.8" stroke-dashoffset="11.8"><animate attributeName="stroke-dashoffset" from="11.8" to="0" dur="0.354s" begin="anim4.end" fill="freeze" id="anim5" /></path><path d="M 45.1 -35.7 L 4.8 -35.7 " transform="translate(0.0 38.0)" stroke-dasharray="40.300000000000004" stroke-dashoffset="40.300000000000004"><animate attributeName="stroke-dashoffset" from="40.300000000000004" to="0" dur="1.209s" begin="anim5.end" fill="freeze" id="anim6" /></path><path d="M 46.1 -25.6 C 40.5 -27.4 33.9 -31.1 29.6 -35.5" transform="translate(0.0 38.0)" stroke-dasharray="19.41112876385385" stroke-dashoffset="19.41112876385385"><animate attributeName="stroke-dashoffset" from="19.41112876385385" to="0" dur="0.5823338629156155s" begin="anim6.end" fill="freeze" id="anim_end" /></path></g></svg>