<?xml version='1.0' encoding='utf-8'?>
<svg viewBox="0.0 -6.0 50.0 50.0" version="1.1" xmlns="http://www.w3.org/2000/svg"><rect x="-1000" y="-1000" width="2000" height="2000" stroke="white" fill="white" /><g style="fill:none;stroke:#000000;stroke-width:1"><path d="M 15.3 1.9 C 16.0 2.1 16.9 2.1 17.6 2.1 C 19.8 2.1 20.9 1.4 20.9 -0.6 L 20.9 -31.0 C 20.9 -33.2 20.0 -34.2 17.4 -34.2 L 12.2 -34.2 C 9.7 -34.2 8.7 -33.2 8.7 -31.0 L 8.7 -12.2 " transform="translate(0.0 38.0)" stroke-dasharray="72.66382681442542" stroke-dashoffset="72.66382681442542"><animate attributeName="stroke-dashoffset" from="72.66382681442542" to="0" dur="2.1799148044327623s" begin="0s; anim_end.end" fill="freeze" id="anim0" /></path><path d="M 4.5 -11.8 C 9.7 -12.4 15.5 -13.7 20.6 -15.4 " transform="translate(0.0 38.0)" stroke-dasharray="16.525261672025426" stroke-dashoffset="16.525261672025426"><animate attributeName="stroke-dashoffset" from="16.525261672025426" to="0" dur="0.49575785016076274s" begin="anim0.end" fill="freeze" id="anim1" /></path><path d="M 4.2 -0.6 C 11.5 -4.2 21.1 -12.2 26.1 -19.9 " transform="translate(0.0 38.0)" stroke-dasharray="29.477082692425995" stroke-dashoffset="29.477082692425995"><animate attributeName="stroke-dashoffset" from="29.477082692425995" to="0" dur="0.8843124807727798s" begin="anim1.end" fill="freeze" id="anim2" /></path><path d="M 20.4 -20.9 L 9.1 -20.9 " transform="translate(0.0 38.0)" stroke-dasharray="11.299999999999999" stroke-dashoffset="11.299999999999999"><animate attributeName="stroke-dashoffset" from="11.299999999999999" to="0" dur="0.33899999999999997s" begin="anim2.end" fill="freeze" id="anim3" /></path><path d="M 20.4 -27.4 L 9.1 -27.4 " transform="translate(0.0 38.0)" stroke-dasharray="11.299999999999999" stroke-dashoffset="11.299999999999999"><animate attributeName="stroke-dashoffset" from="11.299999999999999" to="0" dur="0.33899999999999997s" begin="anim3.end" fill="freeze" id="anim4" /></path><path d="M 33.5 -11.2 C 32.6 -12.9 31.3 -14.8 30.0 -16.1 " transform="translate(0.0 38.0)" stroke-dasharray="6.041678293247449" stroke-dashoffset="6.041678293247449"><animate attributeName="stroke-dashoffset" from="6.041678293247449" to="0" dur="0.18125034879742347s" begin="anim4.end" fill="freeze" id="anim5" /></path><path d="M 14.3 -35.1 C 14.9 -36.8 15.4 -38.5 15.8 -39.8 " transform="translate(0.0 38.0)" stroke-dasharray="4.933981442456811" stroke-dashoffset="4.933981442456811"><animate attributeName="stroke-dashoffset" from="4.933981442456811" to="0" dur="0.1480194432737043s" begin="anim5.end" fill="freeze" id="anim6" /></path><path d="M 33.2 1.2 C 34.5 1.4 35.5 1.6 36.4 1.6 C 38.8 1.6 40.1 0.8 40.1 -1.9 L 40.1 -39.9 " transform="translate(0.0 38.0)" stroke-dasharray="47.1507781388291" stroke-dashoffset="47.1507781388291"><animate attributeName="stroke-dashoffset" from="47.1507781388291" to="0" dur="1.4145233441648728s" begin="anim6.end" fill="freeze" id="anim7" /></path><path d="M 46.9 -26.0 L 27.4 -26.0" transform="translate(0.0 38.0)" stroke-dasharray="19.5" stroke-dashoffset="19.5"><animate attributeName="stroke-dashoffset" from="19.5" to="0" dur="0.585s" begin="anim7.end" fill="freeze" id="anim_end" /></path></g></svg>