<?xml version='1.0' encoding='utf-8'?>
<svg viewBox="0.0 -6.0 50.0 50.0" version="1.1" xmlns="http://www.w3.org/2000/svg"><rect x="-1000" y="-1000" width="2000" height="2000" stroke="white" fill="white" /><g style="fill:none;stroke:#000000;stroke-width:1"><path d="M 13.2 -9.9 C 13.6 -9.9 13.8 -9.9 14.2 -9.9 C 15.6 -9.9 16.3 -10.7 16.3 -12.4 L 16.3 -28.6 C 16.3 -30.6 15.5 -31.4 13.4 -31.4 L 7.0 -31.4 C 4.8 -31.4 4.1 -30.6 4.1 -28.6 L 4.1 -8.6 " transform="translate(0.0 38.0)" stroke-dasharray="56.77012482716862" stroke-dashoffset="56.77012482716862"><animate attributeName="stroke-dashoffset" from="56.77012482716862" to="0" dur="1.7031037448150586s" begin="0s; anim_end.end" fill="freeze" id="anim0" /></path><path d="M 10.2 2.7 L 10.2 -40.4 " transform="translate(0.0 38.0)" stroke-dasharray="43.1" stroke-dashoffset="43.1"><animate attributeName="stroke-dashoffset" from="43.1" to="0" dur="1.293s" begin="anim0.end" fill="freeze" id="anim1" /></path><path d="M 19.6 1.8 C 27.2 0.5 35.8 -3.0 39.9 -7.2 C 41.6 -9.0 40.8 -10.5 38.4 -10.5 L 22.5 -10.5 " transform="translate(0.0 38.0)" stroke-dasharray="43.62431113564442" stroke-dashoffset="43.62431113564442"><animate attributeName="stroke-dashoffset" from="43.62431113564442" to="0" dur="1.3087293340693325s" begin="anim1.end" fill="freeze" id="anim2" /></path><path d="M 45.8 1.2 C 38.0 -0.1 30.3 -3.9 26.6 -10.3 " transform="translate(0.0 38.0)" stroke-dasharray="23.094286814187253" stroke-dashoffset="23.094286814187253"><animate attributeName="stroke-dashoffset" from="23.094286814187253" to="0" dur="0.6928286044256176s" begin="anim2.end" fill="freeze" id="anim3" /></path><path d="M 29.5 -16.5 L 29.5 -23.6 " transform="translate(0.0 38.0)" stroke-dasharray="7.100000000000001" stroke-dashoffset="7.100000000000001"><animate attributeName="stroke-dashoffset" from="7.100000000000001" to="0" dur="0.21300000000000002s" begin="anim3.end" fill="freeze" id="anim4" /></path><path d="M 41.5 -23.4 L 25.4 -23.4 C 22.9 -23.4 22.0 -22.6 22.0 -20.8 L 22.0 -18.4 C 22.0 -16.6 22.9 -15.8 25.4 -15.8 L 41.5 -15.8 C 44.1 -15.8 45.0 -16.6 45.0 -18.4 L 45.0 -20.8 C 45.0 -22.6 44.1 -23.4 41.5 -23.4 Z " transform="translate(0.0 38.0)" stroke-dasharray="57.00167284325538" stroke-dashoffset="57.00167284325538"><animate attributeName="stroke-dashoffset" from="57.00167284325538" to="0" dur="1.7100501852976613s" begin="anim4.end" fill="freeze" id="anim5" /></path><path d="M 37.0 -16.5 L 37.0 -23.6 " transform="translate(0.0 38.0)" stroke-dasharray="7.100000000000001" stroke-dashoffset="7.100000000000001"><animate attributeName="stroke-dashoffset" from="7.100000000000001" to="0" dur="0.21300000000000002s" begin="anim5.end" fill="freeze" id="anim6" /></path><path d="M 28.1 -28.6 L 38.6 -28.6 C 41.1 -28.6 42.0 -29.4 42.0 -31.3 L 42.0 -36.4 C 42.0 -38.2 41.1 -39.1 38.6 -39.1 L 28.1 -39.1 C 25.4 -39.1 24.6 -38.2 24.6 -36.4 L 24.6 -31.3 C 24.6 -29.4 25.4 -28.6 28.1 -28.6 Z " transform="translate(0.0 38.0)" stroke-dasharray="51.53933553255685" stroke-dashoffset="51.53933553255685"><animate attributeName="stroke-dashoffset" from="51.53933553255685" to="0" dur="1.5461800659767053s" begin="anim6.end" fill="freeze" id="anim7" /></path><path d="M 41.5 -33.9 L 25.2 -33.9" transform="translate(0.0 38.0)" stroke-dasharray="16.3" stroke-dashoffset="16.3"><animate attributeName="stroke-dashoffset" from="16.3" to="0" dur="0.489s" begin="anim7.end" fill="freeze" id="anim_end" /></path></g></svg>