<?xml version='1.0' encoding='utf-8'?>
<svg viewBox="0.0 -6.0 50.0 50.0" version="1.1" xmlns="http://www.w3.org/2000/svg"><rect x="-1000" y="-1000" width="2000" height="2000" stroke="white" fill="white" /><g style="fill:none;stroke:#000000;stroke-width:1"><path d="M 45.9 -4.6 C 45.2 -0.5 43.8 1.0 41.8 1.0 C 39.6 1.0 37.0 -0.9 34.4 -6.3 C 31.9 -11.6 30.4 -19.8 30.3 -27.7 " transform="translate(0.0 38.0)" stroke-dasharray="40.426573970447876" stroke-dashoffset="40.426573970447876"><animate attributeName="stroke-dashoffset" from="40.426573970447876" to="0" dur="1.2127972191134362s" begin="0s" fill="freeze" /></path><path d="M 9.3 1.6 C 10.2 1.8 11.1 1.9 12.1 1.9 C 14.3 1.9 15.4 1.0 15.4 -1.4 L 15.4 -25.4 " transform="translate(0.0 38.0)" stroke-dasharray="32.22739047743932" stroke-dashoffset="32.22739047743932"><animate attributeName="stroke-dashoffset" from="32.22739047743932" to="0" dur="0.9668217143231796s" begin="1.2127972191134362s" fill="freeze" /></path><path d="M 4.3 -6.8 C 10.3 -7.5 17.9 -9.2 23.2 -11.2 " transform="translate(0.0 38.0)" stroke-dasharray="19.44642843259402" stroke-dashoffset="19.44642843259402"><animate attributeName="stroke-dashoffset" from="19.44642843259402" to="0" dur="0.5833928529778205s" begin="2.1796189334366156s" fill="freeze" /></path><path d="M 22.6 0.3 C 29.9 -2.1 37.1 -6.8 41.5 -12.6 " transform="translate(0.0 38.0)" stroke-dasharray="23.211250481203848" stroke-dashoffset="23.211250481203848"><animate attributeName="stroke-dashoffset" from="23.211250481203848" to="0" dur="0.6963375144361155s" begin="2.7630117864144363s" fill="freeze" /></path><path d="M 7.0 -23.9 C 11.8 -24.5 16.9 -25.8 21.1 -27.5 " transform="translate(0.0 38.0)" stroke-dasharray="14.59091157571538" stroke-dashoffset="14.59091157571538"><animate attributeName="stroke-dashoffset" from="14.59091157571538" to="0" dur="0.4377273472714614s" begin="3.459349300850552s" fill="freeze" /></path><path d="M 4.5 -18.1 L 45.6 -18.8 " transform="translate(0.0 38.0)" stroke-dasharray="41.105960638330785" stroke-dashoffset="41.105960638330785"><animate attributeName="stroke-dashoffset" from="41.105960638330785" to="0" dur="1.2331788191499236s" begin="3.8970766481220136s" fill="freeze" /></path><path d="M 8.8 -38.9 L 8.8 -34.5 C 8.8 -32.7 9.7 -32.0 12.2 -32.0 L 38.1 -32.0 C 40.6 -32.0 41.5 -32.7 41.5 -34.5 L 41.5 -38.9 " transform="translate(0.0 38.0)" stroke-dasharray="44.49208347402918" stroke-dashoffset="44.49208347402918"><animate attributeName="stroke-dashoffset" from="44.49208347402918" to="0" dur="1.3347625042208753s" begin="5.130255467271937s" fill="freeze" /></path><path d="M 24.8 -31.9 L 24.8 -40.8 " transform="translate(0.0 38.0)" stroke-dasharray="8.899999999999999" stroke-dashoffset="8.899999999999999"><animate attributeName="stroke-dashoffset" from="8.899999999999999" to="0" dur="0.26699999999999996s" begin="6.465017971492812s" fill="freeze" /></path><path d="M 40.8 -23.8 C 39.8 -24.9 38.5 -25.9 37.1 -26.9" transform="translate(0.0 38.0)" stroke-dasharray="4.836022219644294" stroke-dashoffset="4.836022219644294"><animate attributeName="stroke-dashoffset" from="4.836022219644294" to="0" dur="0.1450806665893288s" begin="6.732017971492812s" fill="freeze" /></path></g></svg>