<?xml version='1.0' encoding='utf-8'?>
<svg viewBox="0.0 -6.0 50.0 50.0" version="1.1" xmlns="http://www.w3.org/2000/svg"><rect x="-1000" y="-1000" width="2000" height="2000" stroke="white" fill="white" /><g style="fill:none;stroke:#000000;stroke-width:1"><path d="M 44.4 -4.7 C 44.0 0.2 42.2 1.2 36.4 1.2 C 31.5 1.2 30.3 0.6 30.3 -2.2 L 30.3 -23.5 " transform="translate(0.0 38.0)" stroke-dasharray="41.02101811959959" stroke-dashoffset="41.02101811959959"><animate attributeName="stroke-dashoffset" from="41.02101811959959" to="0" dur="1.2306305435879876s" begin="0s; anim_end.end" fill="freeze" id="anim0" /></path><path d="M 14.0 -14.8 L 14.0 -32.6 C 14.0 -34.9 13.1 -35.8 10.8 -35.8 L 8.1 -35.8 C 5.8 -35.8 4.9 -34.9 4.9 -32.6 L 4.9 -14.8 C 4.9 -12.6 5.8 -11.7 8.1 -11.7 L 10.8 -11.7 C 13.1 -11.7 14.0 -12.6 14.0 -14.8 Z " transform="translate(0.0 38.0)" stroke-dasharray="61.92379482944397" stroke-dashoffset="61.92379482944397"><animate attributeName="stroke-dashoffset" from="61.92379482944397" to="0" dur="1.857713844883319s" begin="anim0.end" fill="freeze" id="anim1" /></path><path d="M 19.1 -11.8 L 44.9 -15.4 " transform="translate(0.0 38.0)" stroke-dasharray="26.04995201531089" stroke-dashoffset="26.04995201531089"><animate attributeName="stroke-dashoffset" from="26.04995201531089" to="0" dur="0.7814985604593266s" begin="anim1.end" fill="freeze" id="anim2" /></path><path d="M 21.4 -21.4 C 26.8 -22.5 33.5 -24.8 38.1 -27.3 " transform="translate(0.0 38.0)" stroke-dasharray="17.767130918566703" stroke-dashoffset="17.767130918566703"><animate attributeName="stroke-dashoffset" from="17.767130918566703" to="0" dur="0.533013927557001s" begin="anim2.end" fill="freeze" id="anim3" /></path><path d="M 44.1 -27.9 L 44.1 -30.9 C 44.1 -32.8 43.1 -33.9 40.4 -33.9 L 24.3 -33.9 C 21.6 -33.9 20.6 -32.8 20.6 -30.9 L 20.6 -27.4 " transform="translate(0.0 38.0)" stroke-dasharray="33.549267112569794" stroke-dashoffset="33.549267112569794"><animate attributeName="stroke-dashoffset" from="33.549267112569794" to="0" dur="1.0064780133770939s" begin="anim3.end" fill="freeze" id="anim4" /></path><path d="M 31.8 -33.7 L 31.8 -39.9" transform="translate(0.0 38.0)" stroke-dasharray="6.199999999999996" stroke-dashoffset="6.199999999999996"><animate attributeName="stroke-dashoffset" from="6.199999999999996" to="0" dur="0.18599999999999986s" begin="anim4.end" fill="freeze" id="anim_end" /></path></g></svg>