<?xml version='1.0' encoding='utf-8'?>
<svg viewBox="0.0 -6.0 50.0 50.0" version="1.1" xmlns="http://www.w3.org/2000/svg"><rect x="-1000" y="-1000" width="2000" height="2000" stroke="white" fill="white" /><g style="fill:none;stroke:#000000;stroke-width:1"><path d="M 5.0 1.4 C 13.9 -2.0 19.0 -8.9 19.4 -19.9 " transform="translate(0.0 38.0)" stroke-dasharray="27.471389065602647" stroke-dashoffset="27.471389065602647"><animate attributeName="stroke-dashoffset" from="27.471389065602647" to="0" dur="0.8241416719680794s" begin="0s; anim_end.end" fill="freeze" id="anim0" /></path><path d="M 15.9 -28.5 C 14.7 -30.9 12.8 -33.5 11.3 -35.3 " transform="translate(0.0 38.0)" stroke-dasharray="8.22617427611236" stroke-dashoffset="8.22617427611236"><animate attributeName="stroke-dashoffset" from="8.22617427611236" to="0" dur="0.2467852282833708s" begin="anim0.end" fill="freeze" id="anim1" /></path><path d="M 45.6 -21.1 L 4.5 -21.1 " transform="translate(0.0 38.0)" stroke-dasharray="41.1" stroke-dashoffset="41.1"><animate attributeName="stroke-dashoffset" from="41.1" to="0" dur="1.233s" begin="anim1.end" fill="freeze" id="anim2" /></path><path d="M 45.2 -5.4 C 44.8 -0.8 42.9 0.5 36.5 0.5 C 31.0 0.5 29.9 -0.3 29.9 -2.6 L 29.9 -20.4 " transform="translate(0.0 38.0)" stroke-dasharray="38.24603105378286" stroke-dashoffset="38.24603105378286"><animate attributeName="stroke-dashoffset" from="38.24603105378286" to="0" dur="1.1473809316134858s" begin="anim2.end" fill="freeze" id="anim3" /></path><path d="M 24.9 -22.3 L 24.9 -40.2 " transform="translate(0.0 38.0)" stroke-dasharray="17.900000000000002" stroke-dashoffset="17.900000000000002"><animate attributeName="stroke-dashoffset" from="17.900000000000002" to="0" dur="0.537s" begin="anim3.end" fill="freeze" id="anim4" /></path><path d="M 33.0 -27.6 C 34.8 -29.9 36.9 -33.3 38.2 -36.0" transform="translate(0.0 38.0)" stroke-dasharray="9.895301108684475" stroke-dashoffset="9.895301108684475"><animate attributeName="stroke-dashoffset" from="9.895301108684475" to="0" dur="0.29685903326053426s" begin="anim4.end" fill="freeze" id="anim_end" /></path></g></svg>