<?xml version='1.0' encoding='utf-8'?>
<svg viewBox="0.0 -6.0 50.0 50.0" version="1.1" xmlns="http://www.w3.org/2000/svg"><rect x="-1000" y="-1000" width="2000" height="2000" stroke="white" fill="white" /><g style="fill:none;stroke:#000000;stroke-width:1"><path d="M 3.5 0.2 C 7.0 -6.5 8.7 -15.3 8.7 -28.5 L 8.7 -36.0 C 8.7 -38.1 9.5 -39.0 12.6 -39.0 L 38.4 -39.0 C 41.0 -39.0 41.8 -38.4 41.8 -36.8 L 41.8 -35.9 C 41.8 -34.0 41.1 -33.6 38.4 -33.6 L 9.3 -33.6 " transform="translate(0.0 38.0)" stroke-dasharray="108.0480585614118" stroke-dashoffset="108.0480585614118"><animate attributeName="stroke-dashoffset" from="108.0480585614118" to="0" dur="3.241441756842354s" begin="0s; 15s; 30s; 45s" fill="freeze" id="anim0" /></path><path d="M 12.8 3.0 C 23.4 2.4 31.7 -0.4 36.2 -6.8 " transform="translate(0.0 38.0)" stroke-dasharray="26.257014565842294" stroke-dashoffset="26.257014565842294"><animate attributeName="stroke-dashoffset" from="26.257014565842294" to="0" dur="0.7877104369752688s" begin="anim0.end" fill="freeze" id="anim1" /></path><path d="M 19.5 -2.4 C 22.2 -5.0 24.5 -7.8 26.6 -11.1 " transform="translate(0.0 38.0)" stroke-dasharray="11.256696028575696" stroke-dashoffset="11.256696028575696"><animate attributeName="stroke-dashoffset" from="11.256696028575696" to="0" dur="0.3377008808572709s" begin="anim1.end" fill="freeze" id="anim2" /></path><path d="M 41.9 2.4 C 34.8 -0.1 27.4 -1.9 19.8 -2.8 " transform="translate(0.0 38.0)" stroke-dasharray="22.749696401179527" stroke-dashoffset="22.749696401179527"><animate attributeName="stroke-dashoffset" from="22.749696401179527" to="0" dur="0.6824908920353858s" begin="anim2.end" fill="freeze" id="anim3" /></path><path d="M 45.4 -6.8 L 11.4 -6.8 " transform="translate(0.0 38.0)" stroke-dasharray="34.0" stroke-dashoffset="34.0"><animate attributeName="stroke-dashoffset" from="34.0" to="0" dur="1.02s" begin="anim3.end" fill="freeze" id="anim4" /></path><path d="M 37.6 -15.9 L 18.8 -15.9 C 16.4 -15.9 15.9 -15.3 15.9 -14.1 L 15.9 -12.9 C 15.9 -11.7 16.4 -11.1 18.8 -11.1 L 37.6 -11.1 C 40.0 -11.1 40.5 -11.7 40.5 -12.9 L 40.5 -14.1 C 40.5 -15.3 40.0 -15.9 37.6 -15.9 Z " transform="translate(0.0 38.0)" stroke-dasharray="55.79100853905255" stroke-dashoffset="55.79100853905255"><animate attributeName="stroke-dashoffset" from="55.79100853905255" to="0" dur="1.6737302561715763s" begin="anim4.end" fill="freeze" id="anim5" /></path><path d="M 27.9 -10.9 L 27.9 -33.2 " transform="translate(0.0 38.0)" stroke-dasharray="22.300000000000004" stroke-dashoffset="22.300000000000004"><animate attributeName="stroke-dashoffset" from="22.300000000000004" to="0" dur="0.6690000000000002s" begin="anim5.end" fill="freeze" id="anim6" /></path><path d="M 45.5 -24.6 L 9.3 -24.6 " transform="translate(0.0 38.0)" stroke-dasharray="36.2" stroke-dashoffset="36.2"><animate attributeName="stroke-dashoffset" from="36.2" to="0" dur="1.086s" begin="anim6.end" fill="freeze" id="anim7" /></path><path d="M 20.1 -20.1 L 36.3 -20.1 C 38.6 -20.1 39.5 -20.8 39.5 -22.4 L 39.5 -26.9 C 39.5 -28.6 38.6 -29.1 36.3 -29.1 L 20.1 -29.1 C 17.8 -29.1 16.9 -28.6 16.9 -26.9 L 16.9 -22.4 C 16.9 -20.8 17.8 -20.1 20.1 -20.1 Z" transform="translate(0.0 38.0)" stroke-dasharray="59.50521604676546" stroke-dashoffset="59.50521604676546"><animate attributeName="stroke-dashoffset" from="59.50521604676546" to="0" dur="1.7851564814029637s" begin="anim7.end" fill="freeze" id="anim_end" /></path></g></svg>