<?xml version='1.0' encoding='utf-8'?>
<svg viewBox="0.0 -6.0 50.0 50.0" version="1.1" xmlns="http://www.w3.org/2000/svg"><rect x="-1000" y="-1000" width="2000" height="2000" stroke="white" fill="white" /><g style="fill:none;stroke:#000000;stroke-width:1"><path d="M 13.1 0.8 C 15.1 -3.7 16.1 -8.7 16.1 -21.4 L 16.1 -25.3 C 16.1 -27.4 17.0 -28.5 19.7 -28.5 L 45.8 -28.5 " transform="translate(0.0 38.0)" stroke-dasharray="58.153049854910954" stroke-dashoffset="58.153049854910954"><animate attributeName="stroke-dashoffset" from="58.153049854910954" to="0" dur="1.7445914956473285s" begin="0s; anim_end.end" fill="freeze" id="anim0" /></path><path d="M 8.8 2.7 L 8.8 -25.6 " transform="translate(0.0 38.0)" stroke-dasharray="28.3" stroke-dashoffset="28.3"><animate attributeName="stroke-dashoffset" from="28.3" to="0" dur="0.849s" begin="anim0.end" fill="freeze" id="anim1" /></path><path d="M 18.4 -0.8 C 22.1 -1.4 25.9 -2.5 29.9 -3.6 " transform="translate(0.0 38.0)" stroke-dasharray="11.842063631480444" stroke-dashoffset="11.842063631480444"><animate attributeName="stroke-dashoffset" from="11.842063631480444" to="0" dur="0.35526190894441334s" begin="anim1.end" fill="freeze" id="anim2" /></path><path d="M 21.8 -2.4 L 21.8 -18.3 " transform="translate(0.0 38.0)" stroke-dasharray="15.9" stroke-dashoffset="15.9"><animate attributeName="stroke-dashoffset" from="15.9" to="0" dur="0.477s" begin="anim2.end" fill="freeze" id="anim3" /></path><path d="M 29.0 -8.0 L 22.4 -8.0 " transform="translate(0.0 38.0)" stroke-dasharray="6.600000000000001" stroke-dashoffset="6.600000000000001"><animate attributeName="stroke-dashoffset" from="6.600000000000001" to="0" dur="0.19800000000000004s" begin="anim3.end" fill="freeze" id="anim4" /></path><path d="M 3.0 -19.2 C 6.2 -24.4 9.5 -32.6 11.1 -40.0 " transform="translate(0.0 38.0)" stroke-dasharray="22.41311887539798" stroke-dashoffset="22.41311887539798"><animate attributeName="stroke-dashoffset" from="22.41311887539798" to="0" dur="0.6723935662619394s" begin="anim4.end" fill="freeze" id="anim5" /></path><path d="M 29.6 2.6 L 29.6 -18.4 " transform="translate(0.0 38.0)" stroke-dasharray="21.0" stroke-dashoffset="21.0"><animate attributeName="stroke-dashoffset" from="21.0" to="0" dur="0.63s" begin="anim5.end" fill="freeze" id="anim6" /></path><path d="M 29.0 -13.3 L 22.4 -13.3 " transform="translate(0.0 38.0)" stroke-dasharray="6.600000000000001" stroke-dashoffset="6.600000000000001"><animate attributeName="stroke-dashoffset" from="6.600000000000001" to="0" dur="0.19800000000000004s" begin="anim6.end" fill="freeze" id="anim7" /></path><path d="M 32.8 -18.4 L 16.8 -18.4 " transform="translate(0.0 38.0)" stroke-dasharray="15.999999999999996" stroke-dashoffset="15.999999999999996"><animate attributeName="stroke-dashoffset" from="15.999999999999996" to="0" dur="0.47999999999999987s" begin="anim7.end" fill="freeze" id="anim8" /></path><path d="M 33.6 1.6 C 39.4 -2.3 43.2 -9.2 43.8 -17.6 " transform="translate(0.0 38.0)" stroke-dasharray="22.509033612920586" stroke-dashoffset="22.509033612920586"><animate attributeName="stroke-dashoffset" from="22.509033612920586" to="0" dur="0.6752710083876176s" begin="anim8.end" fill="freeze" id="anim9" /></path><path d="M 46.2 0.6 C 41.4 -3.0 37.6 -8.5 36.3 -15.4 " transform="translate(0.0 38.0)" stroke-dasharray="19.255192818189744" stroke-dashoffset="19.255192818189744"><animate attributeName="stroke-dashoffset" from="19.255192818189744" to="0" dur="0.5776557845456923s" begin="anim9.end" fill="freeze" id="anim10" /></path><path d="M 30.5 -23.6 L 20.9 -23.6 " transform="translate(0.0 38.0)" stroke-dasharray="9.600000000000001" stroke-dashoffset="9.600000000000001"><animate attributeName="stroke-dashoffset" from="9.600000000000001" to="0" dur="0.28800000000000003s" begin="anim10.end" fill="freeze" id="anim11" /></path><path d="M 34.0 -11.4 C 36.0 -14.7 37.9 -19.6 38.8 -23.8 " transform="translate(0.0 38.0)" stroke-dasharray="13.350004836761334" stroke-dashoffset="13.350004836761334"><animate attributeName="stroke-dashoffset" from="13.350004836761334" to="0" dur="0.40050014510284s" begin="anim11.end" fill="freeze" id="anim12" /></path><path d="M 27.8 -35.5 L 27.8 -37.1 C 27.8 -38.6 27.1 -39.4 25.1 -39.4 L 21.1 -39.4 C 19.2 -39.4 18.4 -38.6 18.4 -37.1 L 18.4 -35.5 C 18.4 -33.9 19.2 -33.1 21.1 -33.1 L 25.1 -33.1 C 27.1 -33.1 27.8 -33.9 27.8 -35.5 Z " transform="translate(0.0 38.0)" stroke-dasharray="27.73012647967036" stroke-dashoffset="27.73012647967036"><animate attributeName="stroke-dashoffset" from="27.73012647967036" to="0" dur="0.8319037943901108s" begin="anim12.end" fill="freeze" id="anim13" /></path><path d="M 46.4 -18.5 L 37.2 -18.5 " transform="translate(0.0 38.0)" stroke-dasharray="9.199999999999996" stroke-dashoffset="9.199999999999996"><animate attributeName="stroke-dashoffset" from="9.199999999999996" to="0" dur="0.27599999999999986s" begin="anim13.end" fill="freeze" id="anim14" /></path><path d="M 33.9 -37.1 L 33.9 -35.5 C 33.9 -33.9 34.6 -33.1 36.5 -33.1 L 40.6 -33.1 C 42.6 -33.1 43.4 -33.9 43.4 -35.5 L 43.4 -37.1 C 43.4 -38.6 42.6 -39.4 40.6 -39.4 L 36.5 -39.4 C 34.6 -39.4 33.9 -38.6 33.9 -37.1 Z " transform="translate(0.0 38.0)" stroke-dasharray="27.931274485539355" stroke-dashoffset="27.931274485539355"><animate attributeName="stroke-dashoffset" from="27.931274485539355" to="0" dur="0.8379382345661807s" begin="anim14.end" fill="freeze" id="anim15" /></path><path d="M 25.7 -23.0 L 25.7 -18.8" transform="translate(0.0 38.0)" stroke-dasharray="4.199999999999999" stroke-dashoffset="4.199999999999999"><animate attributeName="stroke-dashoffset" from="4.199999999999999" to="0" dur="0.12599999999999997s" begin="anim15.end" fill="freeze" id="anim_end" /></path></g></svg>