<?xml version='1.0' encoding='utf-8'?>
<svg viewBox="0.0 -6.0 50.0 50.0" version="1.1" xmlns="http://www.w3.org/2000/svg"><rect x="-1000" y="-1000" width="2000" height="2000" stroke="white" fill="white" /><g style="fill:none;stroke:#000000;stroke-width:1"><path d="M 16.5 1.8 L 33.8 1.8 C 36.7 1.8 37.6 1.0 37.6 -1.1 L 37.6 -7.8 C 37.6 -9.8 36.7 -10.6 33.8 -10.6 L 16.5 -10.6 C 13.6 -10.6 12.7 -9.8 12.7 -7.8 L 12.7 -1.1 C 12.7 1.0 13.6 1.8 16.5 1.8 Z " transform="translate(0.0 38.0)" stroke-dasharray="70.15409620236538" stroke-dashoffset="70.15409620236538"><animate attributeName="stroke-dashoffset" from="70.15409620236538" to="0" dur="2.1046228860709615s" begin="0s; 15s; 30s; 45s" fill="freeze" id="anim0" /></path><path d="M 4.2 -10.2 C 11.8 -12.8 17.9 -16.2 23.1 -21.4 " transform="translate(0.0 38.0)" stroke-dasharray="22.171204060907762" stroke-dashoffset="22.171204060907762"><animate attributeName="stroke-dashoffset" from="22.171204060907762" to="0" dur="0.6651361218272328s" begin="anim0.end" fill="freeze" id="anim1" /></path><path d="M 36.5 -4.5 L 13.2 -4.5 " transform="translate(0.0 38.0)" stroke-dasharray="23.3" stroke-dashoffset="23.3"><animate attributeName="stroke-dashoffset" from="23.3" to="0" dur="0.699s" begin="anim1.end" fill="freeze" id="anim2" /></path><path d="M 24.9 0.9 L 24.9 -10.0 " transform="translate(0.0 38.0)" stroke-dasharray="10.9" stroke-dashoffset="10.9"><animate attributeName="stroke-dashoffset" from="10.9" to="0" dur="0.327s" begin="anim2.end" fill="freeze" id="anim3" /></path><path d="M 16.1 -23.9 C 15.6 -24.7 15.2 -25.2 14.5 -26.0 " transform="translate(0.0 38.0)" stroke-dasharray="2.643532554225502" stroke-dashoffset="2.643532554225502"><animate attributeName="stroke-dashoffset" from="2.643532554225502" to="0" dur="0.07930597662676506s" begin="anim3.end" fill="freeze" id="anim4" /></path><path d="M 24.9 -14.3 L 24.9 -30.0 " transform="translate(0.0 38.0)" stroke-dasharray="15.7" stroke-dashoffset="15.7"><animate attributeName="stroke-dashoffset" from="15.7" to="0" dur="0.471s" begin="anim4.end" fill="freeze" id="anim5" /></path><path d="M 45.2 -21.5 L 5.0 -21.5 " transform="translate(0.0 38.0)" stroke-dasharray="40.2" stroke-dashoffset="40.2"><animate attributeName="stroke-dashoffset" from="40.2" to="0" dur="1.206s" begin="anim5.end" fill="freeze" id="anim6" /></path><path d="M 45.8 -11.0 C 38.5 -13.2 31.7 -16.6 26.5 -21.4 " transform="translate(0.0 38.0)" stroke-dasharray="22.109543783019884" stroke-dashoffset="22.109543783019884"><animate attributeName="stroke-dashoffset" from="22.109543783019884" to="0" dur="0.6632863134905965s" begin="anim6.end" fill="freeze" id="anim7" /></path><path d="M 12.1 -29.4 C 20.0 -29.6 28.8 -30.4 36.5 -31.8 " transform="translate(0.0 38.0)" stroke-dasharray="24.54068635005126" stroke-dashoffset="24.54068635005126"><animate attributeName="stroke-dashoffset" from="24.54068635005126" to="0" dur="0.7362205905015378s" begin="anim7.end" fill="freeze" id="anim8" /></path><path d="M 43.9 -30.6 L 43.9 -33.4 C 43.9 -35.1 43.0 -36.3 40.1 -36.3 L 10.0 -36.3 C 7.2 -36.3 6.2 -35.1 6.2 -33.4 L 6.2 -30.1 " transform="translate(0.0 38.0)" stroke-dasharray="47.12694368473718" stroke-dashoffset="47.12694368473718"><animate attributeName="stroke-dashoffset" from="47.12694368473718" to="0" dur="1.4138083105421153s" begin="anim8.end" fill="freeze" id="anim9" /></path><path d="M 33.5 -23.9 C 34.2 -24.8 34.8 -25.7 35.4 -26.7 " transform="translate(0.0 38.0)" stroke-dasharray="3.385911065880491" stroke-dashoffset="3.385911065880491"><animate attributeName="stroke-dashoffset" from="3.385911065880491" to="0" dur="0.10157733197641472s" begin="anim9.end" fill="freeze" id="anim10" /></path><path d="M 24.9 -36.6 L 24.9 -41.0" transform="translate(0.0 38.0)" stroke-dasharray="4.399999999999999" stroke-dashoffset="4.399999999999999"><animate attributeName="stroke-dashoffset" from="4.399999999999999" to="0" dur="0.13199999999999995s" begin="anim10.end" fill="freeze" id="anim_end" /></path></g></svg>