<?xml version='1.0' encoding='utf-8'?>
<svg viewBox="0.0 -6.0 50.0 50.0" version="1.1" xmlns="http://www.w3.org/2000/svg"><rect x="-1000" y="-1000" width="2000" height="2000" stroke="white" fill="white" /><g style="fill:none;stroke:#000000;stroke-width:1"><path d="M 5.2 -30.9 L 5.2 -8.8 C 5.2 -6.6 6.2 -5.8 8.2 -5.8 L 13.9 -5.8 C 16.0 -5.8 16.9 -6.6 16.9 -8.8 L 16.9 -30.9 " transform="translate(0.0 38.0)" stroke-dasharray="59.7616272197781" stroke-dashoffset="59.7616272197781"><animate attributeName="stroke-dashoffset" from="59.7616272197781" to="0" dur="1.792848816593343s" begin="0s; 15s; 30s; 45s" fill="freeze" id="anim0" /></path><path d="M 19.8 1.3 C 22.9 -1.6 25.6 -5.4 27.2 -9.1 " transform="translate(0.0 38.0)" stroke-dasharray="12.848688266278154" stroke-dashoffset="12.848688266278154"><animate attributeName="stroke-dashoffset" from="12.848688266278154" to="0" dur="0.3854606479883446s" begin="anim0.end" fill="freeze" id="anim1" /></path><path d="M 30.3 -1.7 C 29.3 -2.8 27.8 -4.2 26.4 -5.2 " transform="translate(0.0 38.0)" stroke-dasharray="5.248914504513477" stroke-dashoffset="5.248914504513477"><animate attributeName="stroke-dashoffset" from="5.248914504513477" to="0" dur="0.15746743513540432s" begin="anim1.end" fill="freeze" id="anim2" /></path><path d="M 11.0 -5.8 L 11.0 -39.0 " transform="translate(0.0 38.0)" stroke-dasharray="33.2" stroke-dashoffset="33.2"><animate attributeName="stroke-dashoffset" from="33.2" to="0" dur="0.996s" begin="anim2.end" fill="freeze" id="anim3" /></path><path d="M 33.3 1.4 C 36.1 -1.4 38.4 -5.2 39.9 -9.1 " transform="translate(0.0 38.0)" stroke-dasharray="12.488954424516248" stroke-dashoffset="12.488954424516248"><animate attributeName="stroke-dashoffset" from="12.488954424516248" to="0" dur="0.3746686327354874s" begin="anim3.end" fill="freeze" id="anim4" /></path><path d="M 44.8 0.7 C 43.1 -1.4 41.1 -3.2 39.0 -4.8 " transform="translate(0.0 38.0)" stroke-dasharray="8.012338183829923" stroke-dashoffset="8.012338183829923"><animate attributeName="stroke-dashoffset" from="8.012338183829923" to="0" dur="0.2403701455148977s" begin="anim4.end" fill="freeze" id="anim5" /></path><path d="M 30.5 -15.8 L 30.5 -19.3 C 30.5 -20.9 29.8 -21.6 28.1 -21.6 L 25.6 -21.6 C 23.9 -21.6 23.1 -20.9 23.1 -19.3 L 23.1 -15.8 C 23.1 -14.2 23.9 -13.4 25.6 -13.4 L 28.1 -13.4 C 29.8 -13.4 30.5 -14.2 30.5 -15.8 Z " transform="translate(0.0 38.0)" stroke-dasharray="27.681748836625328" stroke-dashoffset="27.681748836625328"><animate attributeName="stroke-dashoffset" from="27.681748836625328" to="0" dur="0.8304524650987598s" begin="anim5.end" fill="freeze" id="anim6" /></path><path d="M 36.3 -19.3 L 36.3 -15.8 C 36.3 -14.2 37.0 -13.4 38.8 -13.4 L 41.4 -13.4 C 43.0 -13.4 43.8 -14.2 43.8 -15.8 L 43.8 -19.3 C 43.8 -20.9 43.0 -21.6 41.4 -21.6 L 38.8 -21.6 C 37.0 -21.6 36.3 -20.9 36.3 -19.3 Z " transform="translate(0.0 38.0)" stroke-dasharray="27.88124077005055" stroke-dashoffset="27.88124077005055"><animate attributeName="stroke-dashoffset" from="27.88124077005055" to="0" dur="0.8364372231015165s" begin="anim6.end" fill="freeze" id="anim7" /></path><path d="M 21.1 -26.1 C 25.7 -29.5 30.2 -34.5 33.4 -39.5 " transform="translate(0.0 38.0)" stroke-dasharray="18.28312877433541" stroke-dashoffset="18.28312877433541"><animate attributeName="stroke-dashoffset" from="18.28312877433541" to="0" dur="0.5484938632300622s" begin="anim7.end" fill="freeze" id="anim8" /></path><path d="M 38.0 -27.1 L 29.2 -27.1 " transform="translate(0.0 38.0)" stroke-dasharray="8.8" stroke-dashoffset="8.8"><animate attributeName="stroke-dashoffset" from="8.8" to="0" dur="0.264s" begin="anim8.end" fill="freeze" id="anim9" /></path><path d="M 46.5 -27.1 C 41.8 -29.9 37.0 -34.1 33.3 -39.0" transform="translate(0.0 38.0)" stroke-dasharray="17.8782152255977" stroke-dashoffset="17.8782152255977"><animate attributeName="stroke-dashoffset" from="17.8782152255977" to="0" dur="0.536346456767931s" begin="anim9.end" fill="freeze" id="anim_end" /></path></g></svg>