<?xml version='1.0' encoding='utf-8'?>
<svg viewBox="0.0 -6.0 50.0 50.0" version="1.1" xmlns="http://www.w3.org/2000/svg"><rect x="-1000" y="-1000" width="2000" height="2000" stroke="white" fill="white" /><g style="fill:none;stroke:#000000;stroke-width:1"><path d="M 8.8 -27.6 L 8.8 -1.9 C 8.8 0.5 9.8 1.1 12.2 1.1 L 16.6 1.1 C 19.1 1.1 20.0 0.5 20.0 -1.9 L 20.0 -27.6 " transform="translate(0.0 38.0)" stroke-dasharray="66.49302014346924" stroke-dashoffset="66.49302014346924"><animate attributeName="stroke-dashoffset" from="66.49302014346924" to="0" dur="1.994790604304077s" begin="0s; 15s; 30s; 45s" fill="freeze" id="anim0" /></path><path d="M 19.2 -10.8 L 9.6 -10.8 " transform="translate(0.0 38.0)" stroke-dasharray="9.6" stroke-dashoffset="9.6"><animate attributeName="stroke-dashoffset" from="9.6" to="0" dur="0.288s" begin="anim0.end" fill="freeze" id="anim1" /></path><path d="M 24.6 -21.1 L 3.4 -21.1 " transform="translate(0.0 38.0)" stroke-dasharray="21.200000000000003" stroke-dashoffset="21.200000000000003"><animate attributeName="stroke-dashoffset" from="21.200000000000003" to="0" dur="0.636s" begin="anim1.end" fill="freeze" id="anim2" /></path><path d="M 24.8 1.6 C 31.1 -2.7 35.6 -10.3 35.9 -20.8 " transform="translate(0.0 38.0)" stroke-dasharray="25.977456740544998" stroke-dashoffset="25.977456740544998"><animate attributeName="stroke-dashoffset" from="25.977456740544998" to="0" dur="0.77932370221635s" begin="anim2.end" fill="freeze" id="anim3" /></path><path d="M 26.6 -14.8 C 28.9 -18.1 31.4 -23.4 32.7 -27.9 " transform="translate(0.0 38.0)" stroke-dasharray="14.504795463724749" stroke-dashoffset="14.504795463724749"><animate attributeName="stroke-dashoffset" from="14.504795463724749" to="0" dur="0.4351438639117425s" begin="anim3.end" fill="freeze" id="anim4" /></path><path d="M 45.6 0.3 C 40.2 -5.0 37.1 -11.6 36.4 -20.6 " transform="translate(0.0 38.0)" stroke-dasharray="23.372536009930773" stroke-dashoffset="23.372536009930773"><animate attributeName="stroke-dashoffset" from="23.372536009930773" to="0" dur="0.7011760802979231s" begin="anim4.end" fill="freeze" id="anim5" /></path><path d="M 43.4 -15.4 C 44.0 -16.6 44.6 -17.9 45.0 -19.0 C 45.6 -20.6 45.0 -21.7 43.0 -21.7 L 30.3 -21.7 " transform="translate(0.0 38.0)" stroke-dasharray="20.865102265576063" stroke-dashoffset="20.865102265576063"><animate attributeName="stroke-dashoffset" from="20.865102265576063" to="0" dur="0.6259530679672819s" begin="anim5.end" fill="freeze" id="anim6" /></path><path d="M 8.9 -39.1 L 8.9 -35.4 C 8.9 -33.5 9.8 -32.9 12.3 -32.9 L 38.0 -32.9 C 40.4 -32.9 41.2 -33.5 41.2 -35.4 L 41.2 -39.1 " transform="translate(0.0 38.0)" stroke-dasharray="42.78651766920465" stroke-dashoffset="42.78651766920465"><animate attributeName="stroke-dashoffset" from="42.78651766920465" to="0" dur="1.2835955300761395s" begin="anim6.end" fill="freeze" id="anim7" /></path><path d="M 24.8 -32.6 L 24.8 -40.8" transform="translate(0.0 38.0)" stroke-dasharray="8.199999999999996" stroke-dashoffset="8.199999999999996"><animate attributeName="stroke-dashoffset" from="8.199999999999996" to="0" dur="0.24599999999999986s" begin="anim7.end" fill="freeze" id="anim_end" /></path></g></svg>