<?xml version='1.0' encoding='utf-8'?>
<svg viewBox="0.0 -6.0 50.0 50.0" version="1.1" xmlns="http://www.w3.org/2000/svg"><rect x="-1000" y="-1000" width="2000" height="2000" stroke="white" fill="white" /><g style="fill:none;stroke:#000000;stroke-width:1"><path d="M 23.1 1.1 L 35.9 1.1 C 39.6 1.1 40.6 -0.2 40.6 -2.7 L 40.6 -10.3 C 40.6 -12.8 39.6 -14.1 35.9 -14.1 L 23.1 -14.1 C 19.3 -14.1 18.3 -12.8 18.3 -10.3 L 18.3 -2.7 C 18.3 -0.2 19.3 1.1 23.1 1.1 Z " transform="translate(0.0 38.0)" stroke-dasharray="69.11187707621438" stroke-dashoffset="69.11187707621438"><animate attributeName="stroke-dashoffset" from="69.11187707621438" to="0" dur="2.0733563122864314s" begin="0s; 15s; 30s; 45s" fill="freeze" id="anim0" /></path><path d="M 4.4 0.8 C 8.2 -4.7 10.2 -11.9 10.2 -26.1 L 10.2 -34.8 " transform="translate(0.0 38.0)" stroke-dasharray="36.64890737209019" stroke-dashoffset="36.64890737209019"><animate attributeName="stroke-dashoffset" from="36.64890737209019" to="0" dur="1.0994672211627057s" begin="anim0.end" fill="freeze" id="anim1" /></path><path d="M 45.6 -24.8 L 11.1 -24.8 " transform="translate(0.0 38.0)" stroke-dasharray="34.5" stroke-dashoffset="34.5"><animate attributeName="stroke-dashoffset" from="34.5" to="0" dur="1.035s" begin="anim1.end" fill="freeze" id="anim2" /></path><path d="M 11.0 -34.4 C 19.6 -35.0 30.4 -36.9 38.3 -39.2" transform="translate(0.0 38.0)" stroke-dasharray="27.764080892226094" stroke-dashoffset="27.764080892226094"><animate attributeName="stroke-dashoffset" from="27.764080892226094" to="0" dur="0.8329224267667827s" begin="anim2.end" fill="freeze" id="anim_end" /></path></g></svg>