<?xml version='1.0' encoding='utf-8'?>
<svg viewBox="0.0 -6.0 50.0 50.0" version="1.1" xmlns="http://www.w3.org/2000/svg"><rect x="-1000" y="-1000" width="2000" height="2000" stroke="white" fill="white" /><g style="fill:none;stroke:#000000;stroke-width:1"><path d="M 3.9 -4.5 C 13.4 -12.4 19.9 -23.6 21.4 -37.5 " transform="translate(0.0 38.0)" stroke-dasharray="38.31920454330557" stroke-dashoffset="38.31920454330557"><animate attributeName="stroke-dashoffset" from="38.31920454330557" to="0" dur="1.149576136299167s" begin="0s; 15s; 30s; 45s" fill="freeze" id="anim0" /></path><path d="M 19.9 1.2 L 35.2 1.2 C 38.3 1.2 39.3 0.2 39.3 -1.9 L 39.3 -8.5 C 39.3 -10.7 38.3 -11.8 35.2 -11.8 L 19.9 -11.8 C 16.9 -11.8 15.8 -10.7 15.8 -8.5 L 15.8 -1.9 C 15.8 0.2 16.9 1.2 19.9 1.2 Z " transform="translate(0.0 38.0)" stroke-dasharray="67.8631886530464" stroke-dashoffset="67.8631886530464"><animate attributeName="stroke-dashoffset" from="67.8631886530464" to="0" dur="2.0358956595913917s" begin="anim0.end" fill="freeze" id="anim1" /></path><path d="M 7.6 -21.1 L 33.5 -21.1 C 36.5 -21.1 37.6 -22.1 37.6 -24.2 L 37.6 -34.8 C 37.6 -36.9 36.5 -37.9 33.5 -37.9 L 9.2 -37.9 " transform="translate(0.0 38.0)" stroke-dasharray="72.66224786094892" stroke-dashoffset="72.66224786094892"><animate attributeName="stroke-dashoffset" from="72.66224786094892" to="0" dur="2.1798674358284678s" begin="anim1.end" fill="freeze" id="anim2" /></path><path d="M 46.1 -29.6 L 3.9 -29.6" transform="translate(0.0 38.0)" stroke-dasharray="42.2" stroke-dashoffset="42.2"><animate attributeName="stroke-dashoffset" from="42.2" to="0" dur="1.266s" begin="anim2.end" fill="freeze" id="anim_end" /></path></g></svg>