<?xml version='1.0' encoding='utf-8'?>
<svg viewBox="0.0 -6.0 50.0 50.0" version="1.1" xmlns="http://www.w3.org/2000/svg"><rect x="-1000" y="-1000" width="2000" height="2000" stroke="white" fill="white" /><g style="fill:none;stroke:#000000;stroke-width:1"><path d="M 14.9 -7.2 C 20.4 -11.8 26.0 -19.6 29.0 -27.1 " transform="translate(0.0 38.0)" stroke-dasharray="24.60797783696473" stroke-dashoffset="24.60797783696473"><animate attributeName="stroke-dashoffset" from="24.60797783696473" to="0" dur="0.7382393351089418s" begin="0s" fill="freeze" /></path><path d="M 8.1 -13.6 L 10.5 -13.6 C 12.6 -13.6 13.4 -14.4 13.4 -16.6 L 13.4 -33.4 C 13.4 -35.6 12.6 -36.5 10.5 -36.5 L 8.1 -36.5 C 6.0 -36.5 5.0 -35.6 5.0 -33.4 L 5.0 -16.6 C 5.0 -14.4 6.0 -13.6 8.1 -13.6 Z " transform="translate(0.0 38.0)" stroke-dasharray="58.30363282691525" stroke-dashoffset="58.30363282691525"><animate attributeName="stroke-dashoffset" from="58.30363282691525" to="0" dur="1.7491089848074575s" begin="0.7382393351089418s" fill="freeze" /></path><path d="M 38.0 -2.0 C 38.6 -1.9 39.2 -1.8 39.8 -1.8 C 41.4 -1.8 42.1 -2.5 42.1 -4.3 L 42.1 -10.8 C 42.1 -12.9 41.3 -13.8 38.6 -13.8 L 27.7 -13.8 C 25.1 -13.8 24.1 -12.8 24.1 -10.8 L 24.1 -1.3 " transform="translate(0.0 38.0)" stroke-dasharray="43.46014254603007" stroke-dashoffset="43.46014254603007"><animate attributeName="stroke-dashoffset" from="43.46014254603007" to="0" dur="1.3038042763809021s" begin="2.487348319916399s" fill="freeze" /></path><path d="M 32.9 2.8 L 32.9 -18.1 " transform="translate(0.0 38.0)" stroke-dasharray="20.900000000000002" stroke-dashoffset="20.900000000000002"><animate attributeName="stroke-dashoffset" from="20.900000000000002" to="0" dur="0.627s" begin="3.791152596297301s" fill="freeze" /></path><path d="M 45.9 -22.8 L 18.2 -22.8 " transform="translate(0.0 38.0)" stroke-dasharray="27.7" stroke-dashoffset="27.7"><animate attributeName="stroke-dashoffset" from="27.7" to="0" dur="0.831s" begin="4.418152596297301s" fill="freeze" /></path><path d="M 21.2 -29.2 C 27.9 -31.6 34.5 -35.4 39.2 -39.8 " transform="translate(0.0 38.0)" stroke-dasharray="21.02604749272173" stroke-dashoffset="21.02604749272173"><animate attributeName="stroke-dashoffset" from="21.02604749272173" to="0" dur="0.6307814247816519s" begin="5.249152596297302s" fill="freeze" /></path><path d="M 39.4 -30.1 C 35.1 -32.8 29.6 -35.6 24.1 -37.6" transform="translate(0.0 38.0)" stroke-dasharray="17.069357372238585" stroke-dashoffset="17.069357372238585"><animate attributeName="stroke-dashoffset" from="17.069357372238585" to="0" dur="0.5120807211671575s" begin="5.879934021078954s" fill="freeze" /></path></g></svg>