<?xml version='1.0' encoding='utf-8'?>
<svg viewBox="0.0 -6.0 50.0 50.0" version="1.1" xmlns="http://www.w3.org/2000/svg"><rect x="-1000" y="-1000" width="2000" height="2000" stroke="white" fill="white" /><g style="fill:none;stroke:#000000;stroke-width:1"><path d="M 5.0 -31.1 L 5.0 -8.6 C 5.0 -6.4 5.9 -5.7 8.0 -5.7 L 13.3 -5.7 C 15.3 -5.7 16.3 -6.4 16.3 -8.6 L 16.3 -31.1 " transform="translate(0.0 38.0)" stroke-dasharray="60.03548801625668" stroke-dashoffset="60.03548801625668"><animate attributeName="stroke-dashoffset" from="60.03548801625668" to="0" dur="1.8010646404877002s" begin="0s" fill="freeze" /></path><path d="M 19.6 -3.6 C 23.6 -4.5 28.4 -5.8 31.6 -7.0 " transform="translate(0.0 38.0)" stroke-dasharray="12.48058061458237" stroke-dashoffset="12.48058061458237"><animate attributeName="stroke-dashoffset" from="12.48058061458237" to="0" dur="0.3744174184374711s" begin="1.8010646404877002s" fill="freeze" /></path><path d="M 22.1 1.9 C 22.8 2.0 23.4 2.0 23.9 2.0 C 25.9 2.0 26.8 1.2 26.8 -1.0 L 26.8 -17.4 " transform="translate(0.0 38.0)" stroke-dasharray="23.057855630351348" stroke-dashoffset="23.057855630351348"><animate attributeName="stroke-dashoffset" from="23.057855630351348" to="0" dur="0.6917356689105404s" begin="2.175482058925171s" fill="freeze" /></path><path d="M 10.7 -5.6 L 10.7 -39.0 " transform="translate(0.0 38.0)" stroke-dasharray="33.4" stroke-dashoffset="33.4"><animate attributeName="stroke-dashoffset" from="33.4" to="0" dur="1.002s" begin="2.8672177278357114s" fill="freeze" /></path><path d="M 32.6 1.1 C 36.2 -1.0 40.5 -4.8 42.8 -8.2 " transform="translate(0.0 38.0)" stroke-dasharray="13.899398283049221" stroke-dashoffset="13.899398283049221"><animate attributeName="stroke-dashoffset" from="13.899398283049221" to="0" dur="0.41698194849147663s" begin="3.8692177278357116s" fill="freeze" /></path><path d="M 21.9 -16.9 C 24.7 -17.5 27.4 -18.1 30.2 -19.1 " transform="translate(0.0 38.0)" stroke-dasharray="8.59339761725667" stroke-dashoffset="8.59339761725667"><animate attributeName="stroke-dashoffset" from="8.59339761725667" to="0" dur="0.2578019285177001s" begin="4.286199676327188s" fill="freeze" /></path><path d="M 20.6 -12.2 L 46.0 -12.7 " transform="translate(0.0 38.0)" stroke-dasharray="25.404920783186867" stroke-dashoffset="25.404920783186867"><animate attributeName="stroke-dashoffset" from="25.404920783186867" to="0" dur="0.7621476234956059s" begin="4.544001604844888s" fill="freeze" /></path><path d="M 46.5 -3.2 C 46.0 0.2 45.0 1.1 43.8 1.1 C 42.6 1.1 41.4 0.1 40.0 -2.3 C 37.6 -6.7 36.2 -12.6 35.9 -19.1 " transform="translate(0.0 38.0)" stroke-dasharray="28.289242666827906" stroke-dashoffset="28.289242666827906"><animate attributeName="stroke-dashoffset" from="28.289242666827906" to="0" dur="0.8486772800048371s" begin="5.306149228340494s" fill="freeze" /></path><path d="M 46.4 -23.3 L 20.6 -23.3 " transform="translate(0.0 38.0)" stroke-dasharray="25.799999999999997" stroke-dashoffset="25.799999999999997"><animate attributeName="stroke-dashoffset" from="25.799999999999997" to="0" dur="0.7739999999999999s" begin="6.154826508345331s" fill="freeze" /></path><path d="M 42.9 -16.9 C 42.3 -17.6 41.4 -18.5 40.8 -19.1 " transform="translate(0.0 38.0)" stroke-dasharray="3.0420616092772277" stroke-dashoffset="3.0420616092772277"><animate attributeName="stroke-dashoffset" from="3.0420616092772277" to="0" dur="0.09126184827831682s" begin="6.928826508345331s" fill="freeze" /></path><path d="M 32.9 -23.2 L 32.9 -33.6 " transform="translate(0.0 38.0)" stroke-dasharray="10.400000000000002" stroke-dashoffset="10.400000000000002"><animate attributeName="stroke-dashoffset" from="10.400000000000002" to="0" dur="0.31200000000000006s" begin="7.020088356623648s" fill="freeze" /></path><path d="M 41.6 -28.9 L 24.5 -28.9 " transform="translate(0.0 38.0)" stroke-dasharray="17.1" stroke-dashoffset="17.1"><animate attributeName="stroke-dashoffset" from="17.1" to="0" dur="0.513s" begin="7.3320883566236486s" fill="freeze" /></path><path d="M 29.0 -37.5 C 28.4 -38.4 27.9 -39.1 27.4 -39.9 " transform="translate(0.0 38.0)" stroke-dasharray="2.884603918832083" stroke-dashoffset="2.884603918832083"><animate attributeName="stroke-dashoffset" from="2.884603918832083" to="0" dur="0.08653811756496249s" begin="7.8450883566236485s" fill="freeze" /></path><path d="M 44.9 -34.4 L 22.0 -34.4 " transform="translate(0.0 38.0)" stroke-dasharray="22.9" stroke-dashoffset="22.9"><animate attributeName="stroke-dashoffset" from="22.9" to="0" dur="0.6869999999999999s" begin="7.931626474188611s" fill="freeze" /></path><path d="M 35.7 -34.6 C 37.0 -36.2 38.0 -38.0 38.9 -40.0" transform="translate(0.0 38.0)" stroke-dasharray="6.294958652698763" stroke-dashoffset="6.294958652698763"><animate attributeName="stroke-dashoffset" from="6.294958652698763" to="0" dur="0.18884875958096287s" begin="8.618626474188611s" fill="freeze" /></path></g></svg>