<?xml version='1.0' encoding='utf-8'?>
<svg viewBox="0.0 -6.0 50.0 50.0" version="1.1" xmlns="http://www.w3.org/2000/svg"><rect x="-1000" y="-1000" width="2000" height="2000" stroke="white" fill="white" /><g style="fill:none;stroke:#000000;stroke-width:1"><path d="M 39.2 1.8 C 39.9 1.9 40.5 1.9 41.0 1.9 C 42.6 1.9 43.4 1.1 43.4 -0.9 L 43.4 -17.4 C 43.4 -19.8 42.4 -20.6 39.7 -20.6 L 28.8 -20.6 C 26.1 -20.6 25.1 -19.8 25.1 -17.4 L 25.1 2.3 " transform="translate(0.0 38.0)" stroke-dasharray="64.61804433632946" stroke-dashoffset="64.61804433632946"><animate attributeName="stroke-dashoffset" from="64.61804433632946" to="0" dur="1.9385413300898837s" begin="0s; 15s; 30s; 45s" fill="freeze" id="anim0" /></path><path d="M 8.8 2.7 L 8.8 -25.1 " transform="translate(0.0 38.0)" stroke-dasharray="27.8" stroke-dashoffset="27.8"><animate attributeName="stroke-dashoffset" from="27.8" to="0" dur="0.834s" begin="anim0.end" fill="freeze" id="anim1" /></path><path d="M 14.2 1.5 C 17.2 -4.0 18.9 -10.8 18.9 -22.3 L 18.9 -26.4 " transform="translate(0.0 38.0)" stroke-dasharray="28.622309643864817" stroke-dashoffset="28.622309643864817"><animate attributeName="stroke-dashoffset" from="28.622309643864817" to="0" dur="0.8586692893159444s" begin="anim1.end" fill="freeze" id="anim2" /></path><path d="M 3.0 -18.8 C 6.2 -23.9 9.5 -32.1 11.1 -39.5 " transform="translate(0.0 38.0)" stroke-dasharray="22.323677030816487" stroke-dashoffset="22.323677030816487"><animate attributeName="stroke-dashoffset" from="22.323677030816487" to="0" dur="0.6697103109244946s" begin="anim2.end" fill="freeze" id="anim3" /></path><path d="M 42.7 -6.8 L 25.6 -6.8 " transform="translate(0.0 38.0)" stroke-dasharray="17.1" stroke-dashoffset="17.1"><animate attributeName="stroke-dashoffset" from="17.1" to="0" dur="0.513s" begin="anim3.end" fill="freeze" id="anim4" /></path><path d="M 33.9 1.2 L 33.9 -20.2 " transform="translate(0.0 38.0)" stroke-dasharray="21.4" stroke-dashoffset="21.4"><animate attributeName="stroke-dashoffset" from="21.4" to="0" dur="0.6419999999999999s" begin="anim4.end" fill="freeze" id="anim5" /></path><path d="M 42.7 -13.7 L 25.6 -13.7 " transform="translate(0.0 38.0)" stroke-dasharray="17.1" stroke-dashoffset="17.1"><animate attributeName="stroke-dashoffset" from="17.1" to="0" dur="0.513s" begin="anim5.end" fill="freeze" id="anim6" /></path><path d="M 46.1 -27.1 L 14.0 -27.1 " transform="translate(0.0 38.0)" stroke-dasharray="32.1" stroke-dashoffset="32.1"><animate attributeName="stroke-dashoffset" from="32.1" to="0" dur="0.963s" begin="anim6.end" fill="freeze" id="anim7" /></path><path d="M 24.4 -27.3 L 24.4 -40.3 " transform="translate(0.0 38.0)" stroke-dasharray="12.999999999999996" stroke-dashoffset="12.999999999999996"><animate attributeName="stroke-dashoffset" from="12.999999999999996" to="0" dur="0.3899999999999999s" begin="anim7.end" fill="freeze" id="anim8" /></path><path d="M 43.7 -35.1 L 16.6 -35.1 " transform="translate(0.0 38.0)" stroke-dasharray="27.1" stroke-dashoffset="27.1"><animate attributeName="stroke-dashoffset" from="27.1" to="0" dur="0.8130000000000001s" begin="anim8.end" fill="freeze" id="anim9" /></path><path d="M 35.2 -27.6 L 35.2 -40.3" transform="translate(0.0 38.0)" stroke-dasharray="12.699999999999996" stroke-dashoffset="12.699999999999996"><animate attributeName="stroke-dashoffset" from="12.699999999999996" to="0" dur="0.38099999999999984s" begin="anim9.end" fill="freeze" id="anim_end" /></path></g></svg>