<?xml version='1.0' encoding='utf-8'?>
<svg viewBox="0.0 -6.0 50.0 50.0" version="1.1" xmlns="http://www.w3.org/2000/svg"><rect x="-1000" y="-1000" width="2000" height="2000" stroke="white" fill="white" /><g style="fill:none;stroke:#000000;stroke-width:1"><path d="M 3.5 -0.7 C 6.0 -6.0 7.5 -13.8 7.5 -25.6 L 7.5 -34.1 C 7.5 -36.9 8.7 -38.2 12.4 -38.2 L 45.5 -38.2 " transform="translate(0.0 38.0)" stroke-dasharray="74.44020282540578" stroke-dashoffset="74.44020282540578"><animate attributeName="stroke-dashoffset" from="74.44020282540578" to="0" dur="2.2332060847621733s" begin="0s; 15s; 30s; 45s" fill="freeze" id="anim0" /></path><path d="M 11.3 1.4 C 13.2 -0.3 15.0 -2.5 16.1 -4.6 " transform="translate(0.0 38.0)" stroke-dasharray="7.721858052212991" stroke-dashoffset="7.721858052212991"><animate attributeName="stroke-dashoffset" from="7.721858052212991" to="0" dur="0.23165574156638974s" begin="anim0.end" fill="freeze" id="anim1" /></path><path d="M 25.8 -2.0 C 25.0 -3.1 24.1 -4.2 23.1 -5.2 " transform="translate(0.0 38.0)" stroke-dasharray="4.191146267667184" stroke-dashoffset="4.191146267667184"><animate attributeName="stroke-dashoffset" from="4.191146267667184" to="0" dur="0.12573438803001552s" begin="anim1.end" fill="freeze" id="anim2" /></path><path d="M 28.7 -9.4 L 11.0 -9.4 " transform="translate(0.0 38.0)" stroke-dasharray="17.7" stroke-dashoffset="17.7"><animate attributeName="stroke-dashoffset" from="17.7" to="0" dur="0.5309999999999999s" begin="anim2.end" fill="freeze" id="anim3" /></path><path d="M 24.9 -15.9 L 15.6 -15.9 " transform="translate(0.0 38.0)" stroke-dasharray="9.299999999999999" stroke-dashoffset="9.299999999999999"><animate attributeName="stroke-dashoffset" from="9.299999999999999" to="0" dur="0.27899999999999997s" begin="anim3.end" fill="freeze" id="anim4" /></path><path d="M 15.7 -9.9 L 15.7 -33.1 " transform="translate(0.0 38.0)" stroke-dasharray="23.200000000000003" stroke-dashoffset="23.200000000000003"><animate attributeName="stroke-dashoffset" from="23.200000000000003" to="0" dur="0.6960000000000001s" begin="anim4.end" fill="freeze" id="anim5" /></path><path d="M 24.9 -22.2 L 15.6 -22.2 " transform="translate(0.0 38.0)" stroke-dasharray="9.299999999999999" stroke-dashoffset="9.299999999999999"><animate attributeName="stroke-dashoffset" from="9.299999999999999" to="0" dur="0.27899999999999997s" begin="anim5.end" fill="freeze" id="anim6" /></path><path d="M 29.2 1.5 C 32.6 -4.1 34.0 -10.0 34.0 -21.3 L 34.0 -30.4 " transform="translate(0.0 38.0)" stroke-dasharray="32.72313466690383" stroke-dashoffset="32.72313466690383"><animate attributeName="stroke-dashoffset" from="32.72313466690383" to="0" dur="0.9816940400071149s" begin="anim6.end" fill="freeze" id="anim7" /></path><path d="M 25.1 -9.9 L 25.1 -33.1 " transform="translate(0.0 38.0)" stroke-dasharray="23.200000000000003" stroke-dashoffset="23.200000000000003"><animate attributeName="stroke-dashoffset" from="23.200000000000003" to="0" dur="0.6960000000000001s" begin="anim7.end" fill="freeze" id="anim8" /></path><path d="M 28.9 -28.4 L 11.9 -28.4 " transform="translate(0.0 38.0)" stroke-dasharray="17.0" stroke-dashoffset="17.0"><animate attributeName="stroke-dashoffset" from="17.0" to="0" dur="0.51s" begin="anim8.end" fill="freeze" id="anim9" /></path><path d="M 41.8 2.4 L 41.8 -19.4 " transform="translate(0.0 38.0)" stroke-dasharray="21.799999999999997" stroke-dashoffset="21.799999999999997"><animate attributeName="stroke-dashoffset" from="21.799999999999997" to="0" dur="0.6539999999999999s" begin="anim9.end" fill="freeze" id="anim10" /></path><path d="M 46.1 -19.8 L 33.5 -19.8 " transform="translate(0.0 38.0)" stroke-dasharray="12.600000000000001" stroke-dashoffset="12.600000000000001"><animate attributeName="stroke-dashoffset" from="12.600000000000001" to="0" dur="0.378s" begin="anim10.end" fill="freeze" id="anim11" /></path><path d="M 34.2 -29.6 C 37.5 -30.3 40.5 -31.2 43.4 -32.5" transform="translate(0.0 38.0)" stroke-dasharray="9.664840558543112" stroke-dashoffset="9.664840558543112"><animate attributeName="stroke-dashoffset" from="9.664840558543112" to="0" dur="0.28994521675629337s" begin="anim11.end" fill="freeze" id="anim_end" /></path></g></svg>