<?xml version='1.0' encoding='utf-8'?>
<svg viewBox="0.0 -6.0 50.0 50.0" version="1.1" xmlns="http://www.w3.org/2000/svg"><rect x="-1000" y="-1000" width="2000" height="2000" stroke="white" fill="white" /><g style="fill:none;stroke:#000000;stroke-width:1"><path d="M 46.4 -14.8 C 46.0 -10.9 44.8 -10.3 36.9 -10.3 C 30.4 -10.3 29.4 -10.7 29.4 -12.9 L 29.4 -25.8 C 29.4 -27.4 29.9 -28.1 32.6 -28.1 L 40.4 -28.1 C 42.6 -28.1 43.1 -28.6 43.1 -29.8 L 43.1 -31.4 C 43.1 -32.6 42.6 -33.1 40.4 -33.1 L 33.0 -33.1 C 30.8 -33.1 29.9 -33.6 29.9 -35.2 L 29.9 -40.5 " transform="translate(0.0 38.0)" stroke-dasharray="72.39046108694271" stroke-dashoffset="72.39046108694271"><animate attributeName="stroke-dashoffset" from="72.39046108694271" to="0" dur="2.171713832608281s" begin="0s; anim_end.end" fill="freeze" id="anim0" /></path><path d="M 45.4 1.6 L 4.5 1.6 " transform="translate(0.0 38.0)" stroke-dasharray="40.9" stroke-dashoffset="40.9"><animate attributeName="stroke-dashoffset" from="40.9" to="0" dur="1.2269999999999999s" begin="anim0.end" fill="freeze" id="anim1" /></path><path d="M 40.0 -4.5 L 10.0 -4.5 " transform="translate(0.0 38.0)" stroke-dasharray="30.0" stroke-dashoffset="30.0"><animate attributeName="stroke-dashoffset" from="30.0" to="0" dur="0.8999999999999999s" begin="anim1.end" fill="freeze" id="anim2" /></path><path d="M 24.9 1.4 L 24.9 -8.2 " transform="translate(0.0 38.0)" stroke-dasharray="9.6" stroke-dashoffset="9.6"><animate attributeName="stroke-dashoffset" from="9.6" to="0" dur="0.288s" begin="anim2.end" fill="freeze" id="anim3" /></path><path d="M 20.4 -16.0 L 8.2 -16.0 " transform="translate(0.0 38.0)" stroke-dasharray="12.2" stroke-dashoffset="12.2"><animate attributeName="stroke-dashoffset" from="12.2" to="0" dur="0.366s" begin="anim3.end" fill="freeze" id="anim4" /></path><path d="M 15.8 -10.3 C 16.7 -10.2 17.6 -10.1 18.4 -10.1 C 20.3 -10.1 21.3 -10.8 21.3 -12.4 L 21.3 -23.4 C 21.3 -25.1 20.6 -25.8 18.2 -25.8 L 10.6 -25.8 C 8.2 -25.8 7.5 -25.1 7.5 -23.6 L 7.5 -9.3 " transform="translate(0.0 38.0)" stroke-dasharray="48.73380482221118" stroke-dashoffset="48.73380482221118"><animate attributeName="stroke-dashoffset" from="48.73380482221118" to="0" dur="1.4620141446663353s" begin="anim4.end" fill="freeze" id="anim5" /></path><path d="M 20.4 -20.9 L 8.2 -20.9 " transform="translate(0.0 38.0)" stroke-dasharray="12.2" stroke-dashoffset="12.2"><animate attributeName="stroke-dashoffset" from="12.2" to="0" dur="0.366s" begin="anim5.end" fill="freeze" id="anim6" /></path><path d="M 11.1 -31.3 C 10.6 -32.9 9.7 -35.0 8.7 -36.6 " transform="translate(0.0 38.0)" stroke-dasharray="5.831971032620722" stroke-dashoffset="5.831971032620722"><animate attributeName="stroke-dashoffset" from="5.831971032620722" to="0" dur="0.17495913097862167s" begin="anim6.end" fill="freeze" id="anim7" /></path><path d="M 24.8 -30.8 L 3.2 -30.8 " transform="translate(0.0 38.0)" stroke-dasharray="21.6" stroke-dashoffset="21.6"><animate attributeName="stroke-dashoffset" from="21.6" to="0" dur="0.648s" begin="anim7.end" fill="freeze" id="anim8" /></path><path d="M 22.9 -37.0 L 5.2 -37.0 " transform="translate(0.0 38.0)" stroke-dasharray="17.7" stroke-dashoffset="17.7"><animate attributeName="stroke-dashoffset" from="17.7" to="0" dur="0.5309999999999999s" begin="anim8.end" fill="freeze" id="anim9" /></path><path d="M 41.6 -15.1 L 29.9 -15.1 " transform="translate(0.0 38.0)" stroke-dasharray="11.700000000000003" stroke-dashoffset="11.700000000000003"><animate attributeName="stroke-dashoffset" from="11.700000000000003" to="0" dur="0.3510000000000001s" begin="anim9.end" fill="freeze" id="anim10" /></path><path d="M 16.8 -31.1 C 17.7 -32.6 18.7 -34.9 19.4 -36.6 " transform="translate(0.0 38.0)" stroke-dasharray="6.088449094125318" stroke-dashoffset="6.088449094125318"><animate attributeName="stroke-dashoffset" from="6.088449094125318" to="0" dur="0.18265347282375954s" begin="anim10.end" fill="freeze" id="anim11" /></path><path d="M 14.2 -37.4 L 14.2 -40.7 " transform="translate(0.0 38.0)" stroke-dasharray="3.3000000000000043" stroke-dashoffset="3.3000000000000043"><animate attributeName="stroke-dashoffset" from="3.3000000000000043" to="0" dur="0.09900000000000013s" begin="anim11.end" fill="freeze" id="anim12" /></path><path d="M 41.9 -19.4 L 29.9 -19.4 " transform="translate(0.0 38.0)" stroke-dasharray="12.0" stroke-dashoffset="12.0"><animate attributeName="stroke-dashoffset" from="12.0" to="0" dur="0.36s" begin="anim12.end" fill="freeze" id="anim13" /></path><path d="M 41.9 -23.7 L 29.9 -23.7 " transform="translate(0.0 38.0)" stroke-dasharray="12.0" stroke-dashoffset="12.0"><animate attributeName="stroke-dashoffset" from="12.0" to="0" dur="0.36s" begin="anim13.end" fill="freeze" id="anim14" /></path><path d="M 45.5 -37.9 L 30.6 -37.9" transform="translate(0.0 38.0)" stroke-dasharray="14.899999999999999" stroke-dashoffset="14.899999999999999"><animate attributeName="stroke-dashoffset" from="14.899999999999999" to="0" dur="0.44699999999999995s" begin="anim14.end" fill="freeze" id="anim_end" /></path></g></svg>