<?xml version='1.0' encoding='utf-8'?>
<svg viewBox="0.0 -6.0 50.0 50.0" version="1.1" xmlns="http://www.w3.org/2000/svg"><rect x="-1000" y="-1000" width="2000" height="2000" stroke="white" fill="white" /><g style="fill:none;stroke:#000000;stroke-width:1"><path d="M 5.5 -31.4 L 5.5 -10.2 C 5.5 -7.8 6.5 -7.0 8.6 -7.0 L 15.0 -7.0 C 17.1 -7.0 18.1 -7.8 18.1 -10.2 L 18.1 -31.4 " transform="translate(0.0 38.0)" stroke-dasharray="59.172681837608316" stroke-dashoffset="59.172681837608316"><animate attributeName="stroke-dashoffset" from="59.172681837608316" to="0" dur="1.7751804551282495s" begin="0s; anim_end.end" fill="freeze" id="anim0" /></path><path d="M 29.7 -5.5 C 28.9 -6.8 27.6 -8.1 26.6 -9.1 " transform="translate(0.0 38.0)" stroke-dasharray="4.761414441220345" stroke-dashoffset="4.761414441220345"><animate attributeName="stroke-dashoffset" from="4.761414441220345" to="0" dur="0.14284243323661033s" begin="anim0.end" fill="freeze" id="anim1" /></path><path d="M 11.8 -6.8 L 11.8 -39.5 " transform="translate(0.0 38.0)" stroke-dasharray="32.7" stroke-dashoffset="32.7"><animate attributeName="stroke-dashoffset" from="32.7" to="0" dur="0.9810000000000001s" begin="anim1.end" fill="freeze" id="anim2" /></path><path d="M 32.0 1.2 C 33.0 1.4 34.0 1.5 35.0 1.5 C 37.5 1.5 38.5 0.6 38.5 -2.0 L 38.5 -23.6 " transform="translate(0.0 38.0)" stroke-dasharray="30.407335145524698" stroke-dashoffset="30.407335145524698"><animate attributeName="stroke-dashoffset" from="30.407335145524698" to="0" dur="0.9122200543657409s" begin="anim2.end" fill="freeze" id="anim3" /></path><path d="M 46.0 -14.4 L 23.5 -14.4 " transform="translate(0.0 38.0)" stroke-dasharray="22.5" stroke-dashoffset="22.5"><animate attributeName="stroke-dashoffset" from="22.5" to="0" dur="0.6749999999999999s" begin="anim3.end" fill="freeze" id="anim4" /></path><path d="M 46.5 -23.9 L 23.0 -23.9 " transform="translate(0.0 38.0)" stroke-dasharray="23.5" stroke-dashoffset="23.5"><animate attributeName="stroke-dashoffset" from="23.5" to="0" dur="0.705s" begin="anim4.end" fill="freeze" id="anim5" /></path><path d="M 43.1 -33.5 L 25.6 -33.5 " transform="translate(0.0 38.0)" stroke-dasharray="17.5" stroke-dashoffset="17.5"><animate attributeName="stroke-dashoffset" from="17.5" to="0" dur="0.525s" begin="anim5.end" fill="freeze" id="anim6" /></path><path d="M 34.2 -24.9 L 34.2 -40.2" transform="translate(0.0 38.0)" stroke-dasharray="15.300000000000004" stroke-dashoffset="15.300000000000004"><animate attributeName="stroke-dashoffset" from="15.300000000000004" to="0" dur="0.45900000000000013s" begin="anim6.end" fill="freeze" id="anim_end" /></path></g></svg>