<?xml version='1.0' encoding='utf-8'?>
<svg viewBox="0.0 -6.0 50.0 50.0" version="1.1" xmlns="http://www.w3.org/2000/svg"><rect x="-1000" y="-1000" width="2000" height="2000" stroke="white" fill="white" /><g style="fill:none;stroke:#000000;stroke-width:1"><path d="M 42.5 -15.2 L 42.5 -25.1 C 42.5 -27.3 41.5 -28.2 38.9 -28.2 L 24.6 -28.2 C 22.0 -28.2 20.9 -27.3 20.9 -25.1 L 20.9 -14.9 " transform="translate(0.0 38.0)" stroke-dasharray="45.515634705512696" stroke-dashoffset="45.515634705512696"><animate attributeName="stroke-dashoffset" from="45.515634705512696" to="0" dur="1.365469041165381s" begin="0s; 15s; 30s; 45s" fill="freeze" id="anim0" /></path><path d="M 15.1 2.2 C 24.6 -0.5 30.0 -6.0 30.9 -14.8 " transform="translate(0.0 38.0)" stroke-dasharray="24.8755973224319" stroke-dashoffset="24.8755973224319"><animate attributeName="stroke-dashoffset" from="24.8755973224319" to="0" dur="0.746267919672957s" begin="anim0.end" fill="freeze" id="anim1" /></path><path d="M 7.8 -11.5 L 10.0 -11.5 C 12.1 -11.5 12.9 -12.3 12.9 -14.6 L 12.9 -32.2 C 12.9 -34.5 12.1 -35.2 10.0 -35.2 L 7.8 -35.2 C 5.8 -35.2 4.9 -34.5 4.9 -32.2 L 4.9 -14.6 C 4.9 -12.3 5.8 -11.5 7.8 -11.5 Z " transform="translate(0.0 38.0)" stroke-dasharray="59.29301485416259" stroke-dashoffset="59.29301485416259"><animate attributeName="stroke-dashoffset" from="59.29301485416259" to="0" dur="1.7787904456248778s" begin="anim1.end" fill="freeze" id="anim2" /></path><path d="M 46.0 -9.9 L 16.6 -9.9 " transform="translate(0.0 38.0)" stroke-dasharray="29.4" stroke-dashoffset="29.4"><animate attributeName="stroke-dashoffset" from="29.4" to="0" dur="0.8819999999999999s" begin="anim2.end" fill="freeze" id="anim3" /></path><path d="M 45.9 1.5 C 39.9 -0.2 34.0 -4.3 31.1 -9.0 " transform="translate(0.0 38.0)" stroke-dasharray="18.52663240003965" stroke-dashoffset="18.52663240003965"><animate attributeName="stroke-dashoffset" from="18.52663240003965" to="0" dur="0.5557989720011894s" begin="anim3.end" fill="freeze" id="anim4" /></path><path d="M 25.1 -18.1 C 27.1 -19.9 28.4 -22.6 28.5 -27.6 " transform="translate(0.0 38.0)" stroke-dasharray="10.394957949819517" stroke-dashoffset="10.394957949819517"><animate attributeName="stroke-dashoffset" from="10.394957949819517" to="0" dur="0.3118487384945855s" begin="anim4.end" fill="freeze" id="anim5" /></path><path d="M 17.9 -29.4 C 21.3 -32.1 24.4 -36.2 26.6 -40.2 " transform="translate(0.0 38.0)" stroke-dasharray="13.953182209108144" stroke-dashoffset="13.953182209108144"><animate attributeName="stroke-dashoffset" from="13.953182209108144" to="0" dur="0.4185954662732443s" begin="anim5.end" fill="freeze" id="anim6" /></path><path d="M 39.8 -21.2 C 39.5 -19.2 38.6 -18.7 36.6 -18.7 C 34.8 -18.7 34.1 -19.1 34.1 -20.8 L 34.1 -27.9 " transform="translate(0.0 38.0)" stroke-dasharray="15.560680081748105" stroke-dashoffset="15.560680081748105"><animate attributeName="stroke-dashoffset" from="15.560680081748105" to="0" dur="0.4668204024524431s" begin="anim6.end" fill="freeze" id="anim7" /></path><path d="M 30.5 -28.1 C 31.7 -29.7 32.8 -31.4 33.5 -32.9 C 34.4 -34.8 33.6 -36.0 31.4 -36.0 L 24.9 -36.0" transform="translate(0.0 38.0)" stroke-dasharray="16.999416714255098" stroke-dashoffset="16.999416714255098"><animate attributeName="stroke-dashoffset" from="16.999416714255098" to="0" dur="0.5099825014276529s" begin="anim7.end" fill="freeze" id="anim_end" /></path></g></svg>