<?xml version='1.0' encoding='utf-8'?>
<svg viewBox="0.0 -6.0 50.0 50.0" version="1.1" xmlns="http://www.w3.org/2000/svg"><rect x="-1000" y="-1000" width="2000" height="2000" stroke="white" fill="white" /><g style="fill:none;stroke:#000000;stroke-width:1"><path d="M 23.9 1.9 C 31.4 -4.3 34.8 -13.7 34.8 -28.6 L 34.8 -39.5 " transform="translate(0.0 38.0)" stroke-dasharray="44.43286867719033" stroke-dashoffset="44.43286867719033"><animate attributeName="stroke-dashoffset" from="44.43286867719033" to="0" dur="1.3329860603157098s" begin="0s" fill="freeze" /></path><path d="M 3.5 -2.2 C 9.3 -2.6 18.8 -4.2 24.4 -5.5 " transform="translate(0.0 38.0)" stroke-dasharray="21.175299527603265" stroke-dashoffset="21.175299527603265"><animate attributeName="stroke-dashoffset" from="21.175299527603265" to="0" dur="0.6352589858280979s" begin="1.3329860603157098s" fill="freeze" /></path><path d="M 13.9 -4.2 L 13.9 -14.7 " transform="translate(0.0 38.0)" stroke-dasharray="10.5" stroke-dashoffset="10.5"><animate attributeName="stroke-dashoffset" from="10.5" to="0" dur="0.315s" begin="1.9682450461438077s" fill="freeze" /></path><path d="M 22.9 -15.1 L 5.1 -15.1 " transform="translate(0.0 38.0)" stroke-dasharray="17.799999999999997" stroke-dashoffset="17.799999999999997"><animate attributeName="stroke-dashoffset" from="17.799999999999997" to="0" dur="0.5339999999999999s" begin="2.283245046143808s" fill="freeze" /></path><path d="M 7.5 -20.9 C 6.8 -22.9 5.5 -25.1 4.2 -26.6 " transform="translate(0.0 38.0)" stroke-dasharray="6.6211024700462815" stroke-dashoffset="6.6211024700462815"><animate attributeName="stroke-dashoffset" from="6.6211024700462815" to="0" dur="0.19863307410138845s" begin="2.8172450461438077s" fill="freeze" /></path><path d="M 14.8 -21.2 C 13.9 -23.1 12.7 -25.1 11.3 -26.8 " transform="translate(0.0 38.0)" stroke-dasharray="6.619938445707332" stroke-dashoffset="6.619938445707332"><animate attributeName="stroke-dashoffset" from="6.619938445707332" to="0" dur="0.19859815337121994s" begin="3.0158781202451963s" fill="freeze" /></path><path d="M 5.2 -25.9 C 6.5 -28.0 7.8 -30.5 8.8 -32.9 " transform="translate(0.0 38.0)" stroke-dasharray="7.879356378782807" stroke-dashoffset="7.879356378782807"><animate attributeName="stroke-dashoffset" from="7.879356378782807" to="0" dur="0.23638069136348422s" begin="3.214476273616416s" fill="freeze" /></path><path d="M 22.2 -21.3 C 21.3 -23.2 19.9 -25.3 18.6 -26.8 " transform="translate(0.0 38.0)" stroke-dasharray="6.591449266614448" stroke-dashoffset="6.591449266614448"><animate attributeName="stroke-dashoffset" from="6.591449266614448" to="0" dur="0.19774347799843342s" begin="3.4508569649799004s" fill="freeze" /></path><path d="M 12.2 -26.1 C 13.6 -28.1 14.9 -30.5 15.8 -32.7 " transform="translate(0.0 38.0)" stroke-dasharray="7.53247888118272" stroke-dashoffset="7.53247888118272"><animate attributeName="stroke-dashoffset" from="7.53247888118272" to="0" dur="0.22597436643548158s" begin="3.6486004429783336s" fill="freeze" /></path><path d="M 35.1 1.1 C 36.1 1.4 37.1 1.5 38.2 1.5 C 40.9 1.5 42.4 0.2 43.0 -4.0 C 43.9 -8.9 44.4 -15.4 44.4 -24.6 C 44.4 -26.7 43.6 -27.8 41.1 -27.8 L 27.5 -27.5 " transform="translate(0.0 38.0)" stroke-dasharray="50.941995745352045" stroke-dashoffset="50.941995745352045"><animate attributeName="stroke-dashoffset" from="50.941995745352045" to="0" dur="1.5282598723605614s" begin="3.874574809413815s" fill="freeze" /></path><path d="M 24.4 -37.2 L 4.0 -37.2 " transform="translate(0.0 38.0)" stroke-dasharray="20.4" stroke-dashoffset="20.4"><animate attributeName="stroke-dashoffset" from="20.4" to="0" dur="0.612s" begin="5.402834681774376s" fill="freeze" /></path><path d="M 19.4 -26.1 C 20.9 -28.1 22.2 -30.4 23.3 -32.7" transform="translate(0.0 38.0)" stroke-dasharray="7.678393932195487" stroke-dashoffset="7.678393932195487"><animate attributeName="stroke-dashoffset" from="7.678393932195487" to="0" dur="0.2303518179658646s" begin="6.014834681774376s" fill="freeze" /></path></g></svg>