<?xml version='1.0' encoding='utf-8'?>
<svg viewBox="0.0 -6.0 50.0 50.0" version="1.1" xmlns="http://www.w3.org/2000/svg"><rect x="-1000" y="-1000" width="2000" height="2000" stroke="white" fill="white" /><g style="fill:none;stroke:#000000;stroke-width:1"><path d="M 39.0 -10.7 L 39.0 -16.9 C 39.0 -18.6 38.1 -19.4 35.5 -19.4 L 13.8 -19.4 C 11.2 -19.4 10.0 -20.3 10.0 -22.6 L 10.0 -37.5 " transform="translate(0.0 38.0)" stroke-dasharray="53.50832388821159" stroke-dashoffset="53.50832388821159"><animate attributeName="stroke-dashoffset" from="53.50832388821159" to="0" dur="1.6052497166463477s" begin="0s; 15s; 30s; 45s" fill="freeze" id="anim0" /></path><path d="M 5.8 1.8 C 9.8 0.1 14.6 -2.8 17.9 -5.8 " transform="translate(0.0 38.0)" stroke-dasharray="14.347815170372886" stroke-dashoffset="14.347815170372886"><animate attributeName="stroke-dashoffset" from="14.347815170372886" to="0" dur="0.43043445511118655s" begin="anim0.end" fill="freeze" id="anim1" /></path><path d="M 46.2 -10.8 L 3.8 -10.8 " transform="translate(0.0 38.0)" stroke-dasharray="42.400000000000006" stroke-dashoffset="42.400000000000006"><animate attributeName="stroke-dashoffset" from="42.400000000000006" to="0" dur="1.272s" begin="anim1.end" fill="freeze" id="anim2" /></path><path d="M 43.9 1.4 C 39.6 -0.6 35.1 -3.4 32.1 -5.8 " transform="translate(0.0 38.0)" stroke-dasharray="13.852261459658205" stroke-dashoffset="13.852261459658205"><animate attributeName="stroke-dashoffset" from="13.852261459658205" to="0" dur="0.41556784378974615s" begin="anim2.end" fill="freeze" id="anim3" /></path><path d="M 23.3 -27.6 L 33.5 -27.6 C 36.5 -27.6 37.5 -28.4 37.5 -30.6 L 37.5 -35.6 C 37.5 -37.8 36.5 -38.7 33.5 -38.7 L 23.3 -38.7 C 20.4 -38.7 19.4 -37.8 19.4 -35.6 L 19.4 -30.6 C 19.4 -28.4 20.4 -27.6 23.3 -27.6 Z" transform="translate(0.0 38.0)" stroke-dasharray="53.654349040890054" stroke-dashoffset="53.654349040890054"><animate attributeName="stroke-dashoffset" from="53.654349040890054" to="0" dur="1.6096304712267016s" begin="anim3.end" fill="freeze" id="anim_end" /></path></g></svg>