<?xml version='1.0' encoding='utf-8'?>
<svg viewBox="0.0 -6.0 50.0 50.0" version="1.1" xmlns="http://www.w3.org/2000/svg"><rect x="-1000" y="-1000" width="2000" height="2000" stroke="white" fill="white" /><g style="fill:none;stroke:#000000;stroke-width:1"><path d="M 42.7 -11.5 L 16.7 -11.5 C 14.2 -11.5 13.3 -12.4 13.3 -14.4 L 13.3 -24.6 " transform="translate(0.0 38.0)" stroke-dasharray="41.389583252349" stroke-dashoffset="41.389583252349"><animate attributeName="stroke-dashoffset" from="41.389583252349" to="0" dur="1.24168749757047s" begin="0s; 15s; 30s; 45s" fill="freeze" id="anim0" /></path><path d="M 19.4 0.2 C 18.3 -0.8 16.7 -1.9 15.9 -2.4 " transform="translate(0.0 38.0)" stroke-dasharray="4.364757651269395" stroke-dashoffset="4.364757651269395"><animate attributeName="stroke-dashoffset" from="4.364757651269395" to="0" dur="0.13094272953808184s" begin="anim0.end" fill="freeze" id="anim1" /></path><path d="M 46.3 -6.2 L 3.6 -6.2 " transform="translate(0.0 38.0)" stroke-dasharray="42.699999999999996" stroke-dashoffset="42.699999999999996"><animate attributeName="stroke-dashoffset" from="42.699999999999996" to="0" dur="1.281s" begin="anim1.end" fill="freeze" id="anim2" /></path><path d="M 27.9 2.7 C 28.6 2.9 29.4 3.0 30.1 3.0 C 32.3 3.0 33.3 2.2 33.3 0.1 L 33.3 -11.0 " transform="translate(0.0 38.0)" stroke-dasharray="18.338181310906258" stroke-dashoffset="18.338181310906258"><animate attributeName="stroke-dashoffset" from="18.338181310906258" to="0" dur="0.5501454393271877s" begin="anim2.end" fill="freeze" id="anim3" /></path><path d="M 6.2 -19.8 C 10.4 -22.3 15.9 -27.2 18.7 -31.3 " transform="translate(0.0 38.0)" stroke-dasharray="17.091290541030745" stroke-dashoffset="17.091290541030745"><animate attributeName="stroke-dashoffset" from="17.091290541030745" to="0" dur="0.5127387162309223s" begin="anim3.end" fill="freeze" id="anim4" /></path><path d="M 37.9 -16.8 L 13.2 -16.8 " transform="translate(0.0 38.0)" stroke-dasharray="24.7" stroke-dashoffset="24.7"><animate attributeName="stroke-dashoffset" from="24.7" to="0" dur="0.741s" begin="anim4.end" fill="freeze" id="anim5" /></path><path d="M 25.7 -11.1 L 25.7 -27.1 " transform="translate(0.0 38.0)" stroke-dasharray="16.0" stroke-dashoffset="16.0"><animate attributeName="stroke-dashoffset" from="16.0" to="0" dur="0.48s" begin="anim5.end" fill="freeze" id="anim6" /></path><path d="M 3.6 -26.0 C 10.4 -29.2 17.6 -34.9 21.9 -40.8 " transform="translate(0.0 38.0)" stroke-dasharray="23.756515935463515" stroke-dashoffset="23.756515935463515"><animate attributeName="stroke-dashoffset" from="23.756515935463515" to="0" dur="0.7126954780639054s" begin="anim6.end" fill="freeze" id="anim7" /></path><path d="M 37.9 -21.9 L 13.2 -21.9 " transform="translate(0.0 38.0)" stroke-dasharray="24.7" stroke-dashoffset="24.7"><animate attributeName="stroke-dashoffset" from="24.7" to="0" dur="0.741s" begin="anim7.end" fill="freeze" id="anim8" /></path><path d="M 38.0 -27.0 L 15.7 -27.0 " transform="translate(0.0 38.0)" stroke-dasharray="22.3" stroke-dashoffset="22.3"><animate attributeName="stroke-dashoffset" from="22.3" to="0" dur="0.669s" begin="anim8.end" fill="freeze" id="anim9" /></path><path d="M 25.1 -26.9 C 25.9 -28.2 26.9 -29.9 27.5 -31.2 " transform="translate(0.0 38.0)" stroke-dasharray="4.9269637628633225" stroke-dashoffset="4.9269637628633225"><animate attributeName="stroke-dashoffset" from="4.9269637628633225" to="0" dur="0.14780891288589967s" begin="anim9.end" fill="freeze" id="anim10" /></path><path d="M 45.2 -35.7 L 4.7 -35.7 " transform="translate(0.0 38.0)" stroke-dasharray="40.5" stroke-dashoffset="40.5"><animate attributeName="stroke-dashoffset" from="40.5" to="0" dur="1.2149999999999999s" begin="anim10.end" fill="freeze" id="anim11" /></path><path d="M 46.1 -26.5 C 41.5 -28.1 36.0 -31.4 31.6 -35.7" transform="translate(0.0 38.0)" stroke-dasharray="17.299577704672334" stroke-dashoffset="17.299577704672334"><animate attributeName="stroke-dashoffset" from="17.299577704672334" to="0" dur="0.51898733114017s" begin="anim11.end" fill="freeze" id="anim_end" /></path></g></svg>