<?xml version='1.0' encoding='utf-8'?>
<svg viewBox="0.0 -6.0 50.0 50.0" version="1.1" xmlns="http://www.w3.org/2000/svg"><rect x="-1000" y="-1000" width="2000" height="2000" stroke="white" fill="white" /><g style="fill:none;stroke:#000000;stroke-width:1"><path d="M 16.4 -14.9 L 33.7 -14.9 C 36.5 -14.9 37.4 -15.8 37.4 -17.6 L 37.4 -28.9 C 37.4 -30.8 36.5 -31.6 33.7 -31.6 L 16.4 -31.6 C 13.5 -31.6 12.7 -30.8 12.7 -28.9 L 12.7 -17.6 C 12.7 -15.8 13.5 -14.9 16.4 -14.9 Z " transform="translate(0.0 38.0)" stroke-dasharray="78.45587323746028" stroke-dashoffset="78.45587323746028"><animate attributeName="stroke-dashoffset" from="78.45587323746028" to="0" dur="2.3536761971238085s" begin="0s; 15s; 30s; 45s" fill="freeze" id="anim0" /></path><path d="M 5.1 2.4 C 15.8 1.4 26.4 -1.8 32.5 -6.3 C 34.4 -7.8 33.8 -9.4 31.4 -9.4 L 17.6 -9.4 " transform="translate(0.0 38.0)" stroke-dasharray="47.8940016098313" stroke-dashoffset="47.8940016098313"><animate attributeName="stroke-dashoffset" from="47.8940016098313" to="0" dur="1.436820048294939s" begin="anim0.end" fill="freeze" id="anim1" /></path><path d="M 6.7 -4.2 C 12.6 -6.2 18.8 -9.9 22.6 -14.2 " transform="translate(0.0 38.0)" stroke-dasharray="18.975941898344242" stroke-dashoffset="18.975941898344242"><animate attributeName="stroke-dashoffset" from="18.975941898344242" to="0" dur="0.5692782569503273s" begin="anim1.end" fill="freeze" id="anim2" /></path><path d="M 44.9 1.8 C 34.0 0.8 23.2 -2.5 16.4 -8.2 " transform="translate(0.0 38.0)" stroke-dasharray="30.632947799865388" stroke-dashoffset="30.632947799865388"><animate attributeName="stroke-dashoffset" from="30.632947799865388" to="0" dur="0.9189884339959616s" begin="anim2.end" fill="freeze" id="anim3" /></path><path d="M 13.8 -20.6 L 36.2 -20.6 " transform="translate(0.0 38.0)" stroke-dasharray="22.400000000000002" stroke-dashoffset="22.400000000000002"><animate attributeName="stroke-dashoffset" from="22.400000000000002" to="0" dur="0.672s" begin="anim3.end" fill="freeze" id="anim4" /></path><path d="M 13.8 -26.1 L 36.2 -26.1 " transform="translate(0.0 38.0)" stroke-dasharray="22.400000000000002" stroke-dashoffset="22.400000000000002"><animate attributeName="stroke-dashoffset" from="22.400000000000002" to="0" dur="0.672s" begin="anim4.end" fill="freeze" id="anim5" /></path><path d="M 23.1 -31.9 C 23.8 -33.3 24.8 -35.8 25.5 -37.8 " transform="translate(0.0 38.0)" stroke-dasharray="6.37272327597118" stroke-dashoffset="6.37272327597118"><animate attributeName="stroke-dashoffset" from="6.37272327597118" to="0" dur="0.1911816982791354s" begin="anim5.end" fill="freeze" id="anim6" /></path><path d="M 5.3 -37.7 L 44.8 -37.7" transform="translate(0.0 38.0)" stroke-dasharray="39.5" stroke-dashoffset="39.5"><animate attributeName="stroke-dashoffset" from="39.5" to="0" dur="1.185s" begin="anim6.end" fill="freeze" id="anim_end" /></path></g></svg>