<?xml version='1.0' encoding='utf-8'?>
<svg viewBox="0.0 -6.0 50.0 50.0" version="1.1" xmlns="http://www.w3.org/2000/svg"><rect x="-1000" y="-1000" width="2000" height="2000" stroke="white" fill="white" /><g style="fill:none;stroke:#000000;stroke-width:1"><path d="M 34.2 0.4 C 35.2 0.7 36.4 0.8 37.4 0.8 C 39.5 0.8 41.0 -0.1 41.9 -2.6 C 42.5 -4.9 43.0 -7.2 43.2 -9.9 C 43.5 -11.8 42.6 -12.8 40.0 -12.8 L 22.0 -12.6 " transform="translate(0.0 38.0)" stroke-dasharray="39.92583015892387" stroke-dashoffset="39.92583015892387"><animate attributeName="stroke-dashoffset" from="39.92583015892387" to="0" dur="1.1977749047677162s" begin="0s" fill="freeze" /></path><path d="M 2.8 -6.0 C 6.5 -10.2 9.6 -16.1 11.3 -21.4 " transform="translate(0.0 38.0)" stroke-dasharray="17.70386023005584" stroke-dashoffset="17.70386023005584"><animate attributeName="stroke-dashoffset" from="17.70386023005584" to="0" dur="0.5311158069016753s" begin="1.1977749047677162s" fill="freeze" /></path><path d="M 7.5 1.6 C 8.0 1.7 8.8 1.9 9.7 1.9 C 11.8 1.9 12.8 0.9 12.8 -1.4 L 12.8 -24.4 " transform="translate(0.0 38.0)" stroke-dasharray="30.451891760767953" stroke-dashoffset="30.451891760767953"><animate attributeName="stroke-dashoffset" from="30.451891760767953" to="0" dur="0.9135567528230386s" begin="1.7288907116693915s" fill="freeze" /></path><path d="M 17.8 -17.9 C 18.6 -18.9 19.6 -20.3 20.2 -21.7 C 20.9 -23.2 20.4 -24.6 18.1 -24.6 L 3.6 -24.6 " transform="translate(0.0 38.0)" stroke-dasharray="23.55900008115386" stroke-dashoffset="23.55900008115386"><animate attributeName="stroke-dashoffset" from="23.55900008115386" to="0" dur="0.7067700024346159s" begin="2.64244746449243s" fill="freeze" /></path><path d="M 20.4 1.6 C 28.1 -2.0 32.5 -8.6 33.0 -17.6 " transform="translate(0.0 38.0)" stroke-dasharray="24.23038431969816" stroke-dashoffset="24.23038431969816"><animate attributeName="stroke-dashoffset" from="24.23038431969816" to="0" dur="0.7269115295909447s" begin="3.349217466927046s" fill="freeze" /></path><path d="M 13.2 -28.5 C 11.9 -30.1 10.2 -31.9 8.9 -33.0 " transform="translate(0.0 38.0)" stroke-dasharray="6.231698571959466" stroke-dashoffset="6.231698571959466"><animate attributeName="stroke-dashoffset" from="6.231698571959466" to="0" dur="0.186950957158784s" begin="4.0761289965179905s" fill="freeze" /></path><path d="M 12.2 -30.6 C 14.1 -31.8 15.9 -33.3 17.2 -34.8 C 18.7 -36.5 17.9 -38.1 15.8 -38.1 L 5.2 -38.1 " transform="translate(0.0 38.0)" stroke-dasharray="22.08133205639984" stroke-dashoffset="22.08133205639984"><animate attributeName="stroke-dashoffset" from="22.08133205639984" to="0" dur="0.6624399616919951s" begin="4.263079953676774s" fill="freeze" /></path><path d="M 24.2 -18.9 C 31.2 -21.6 37.8 -26.9 40.7 -33.8 " transform="translate(0.0 38.0)" stroke-dasharray="22.81764495974039" stroke-dashoffset="22.81764495974039"><animate attributeName="stroke-dashoffset" from="22.81764495974039" to="0" dur="0.6845293487922117s" begin="4.92551991536877s" fill="freeze" /></path><path d="M 24.1 -28.9 C 27.0 -31.6 29.9 -35.8 31.6 -39.6 " transform="translate(0.0 38.0)" stroke-dasharray="13.14391120713217" stroke-dashoffset="13.14391120713217"><animate attributeName="stroke-dashoffset" from="13.14391120713217" to="0" dur="0.3943173362139651s" begin="5.610049264160981s" fill="freeze" /></path><path d="M 46.0 -19.4 C 38.7 -21.9 32.5 -26.2 28.4 -32.5 " transform="translate(0.0 38.0)" stroke-dasharray="22.356964219194083" stroke-dashoffset="22.356964219194083"><animate attributeName="stroke-dashoffset" from="22.356964219194083" to="0" dur="0.6707089265758225s" begin="6.004366600374946s" fill="freeze" /></path><path d="M 45.5 -34.5 L 28.9 -34.5" transform="translate(0.0 38.0)" stroke-dasharray="16.6" stroke-dashoffset="16.6"><animate attributeName="stroke-dashoffset" from="16.6" to="0" dur="0.498s" begin="6.675075526950769s" fill="freeze" /></path></g></svg>