<?xml version='1.0' encoding='utf-8'?>
<svg viewBox="0.0 -6.0 50.0 50.0" version="1.1" xmlns="http://www.w3.org/2000/svg"><rect x="-1000" y="-1000" width="2000" height="2000" stroke="white" fill="white" /><g style="fill:none;stroke:#000000;stroke-width:1"><path d="M 5.4 -31.6 L 5.4 -10.2 C 5.4 -7.6 6.5 -6.7 8.7 -6.7 L 15.9 -6.7 C 18.1 -6.7 19.2 -7.6 19.2 -10.2 L 19.2 -31.6 " transform="translate(0.0 38.0)" stroke-dasharray="61.167336089811556" stroke-dashoffset="61.167336089811556"><animate attributeName="stroke-dashoffset" from="61.167336089811556" to="0" dur="1.8350200826943466s" begin="0s" fill="freeze" /></path><path d="M 12.2 -6.2 L 12.2 -39.8 " transform="translate(0.0 38.0)" stroke-dasharray="33.599999999999994" stroke-dashoffset="33.599999999999994"><animate attributeName="stroke-dashoffset" from="33.599999999999994" to="0" dur="1.0079999999999998s" begin="1.8350200826943466s" fill="freeze" /></path><path d="M 29.5 0.9 L 39.4 0.9 C 42.0 0.9 43.2 -0.2 43.2 -2.5 L 43.2 -12.2 C 43.2 -14.4 42.1 -15.6 39.5 -15.6 L 29.4 -15.6 C 26.8 -15.6 25.7 -14.4 25.7 -12.2 L 25.7 -2.5 C 25.7 -0.2 26.9 0.9 29.5 0.9 Z " transform="translate(0.0 38.0)" stroke-dasharray="62.69934112157458" stroke-dashoffset="62.69934112157458"><animate attributeName="stroke-dashoffset" from="62.69934112157458" to="0" dur="1.8809802336472372s" begin="2.8430200826943466s" fill="freeze" /></path><path d="M 34.0 -15.4 L 34.0 -39.8 " transform="translate(0.0 38.0)" stroke-dasharray="24.4" stroke-dashoffset="24.4"><animate attributeName="stroke-dashoffset" from="24.4" to="0" dur="0.732s" begin="4.724000316341584s" fill="freeze" /></path><path d="M 46.0 -28.8 L 34.0 -28.8" transform="translate(0.0 38.0)" stroke-dasharray="12.0" stroke-dashoffset="12.0"><animate attributeName="stroke-dashoffset" from="12.0" to="0" dur="0.36s" begin="5.456000316341584s" fill="freeze" /></path></g></svg>