<?xml version='1.0' encoding='utf-8'?>
<svg viewBox="0.0 -6.0 50.0 50.0" version="1.1" xmlns="http://www.w3.org/2000/svg"><rect x="-1000" y="-1000" width="2000" height="2000" stroke="white" fill="white" /><g style="fill:none;stroke:#000000;stroke-width:1"><path d="M 37.6 -1.8 C 38.4 -1.6 39.0 -1.6 39.7 -1.6 C 41.7 -1.6 42.6 -2.5 42.6 -4.8 L 42.6 -12.2 C 42.6 -14.3 41.6 -15.4 38.9 -15.4 L 26.4 -15.4 C 23.6 -15.4 22.6 -14.3 22.6 -12.2 L 22.6 -1.1 " transform="translate(0.0 38.0)" stroke-dasharray="49.515956207033604" stroke-dashoffset="49.515956207033604"><animate attributeName="stroke-dashoffset" from="49.515956207033604" to="0" dur="1.485478686211008s" begin="0s" fill="freeze" /></path><path d="M 13.4 -15.2 L 13.4 -33.0 C 13.4 -35.2 12.6 -36.1 10.4 -36.1 L 8.1 -36.1 C 5.8 -36.1 5.0 -35.2 5.0 -33.0 L 5.0 -15.2 C 5.0 -12.9 5.8 -12.1 8.1 -12.1 L 10.4 -12.1 C 12.6 -12.1 13.4 -12.9 13.4 -15.2 Z " transform="translate(0.0 38.0)" stroke-dasharray="60.5586493220977" stroke-dashoffset="60.5586493220977"><animate attributeName="stroke-dashoffset" from="60.5586493220977" to="0" dur="1.816759479662931s" begin="1.485478686211008s" fill="freeze" /></path><path d="M 32.2 2.5 L 32.2 -20.6 " transform="translate(0.0 38.0)" stroke-dasharray="23.1" stroke-dashoffset="23.1"><animate attributeName="stroke-dashoffset" from="23.1" to="0" dur="0.6930000000000001s" begin="3.302238165873939s" fill="freeze" /></path><path d="M 45.7 -19.8 L 45.7 -22.7 C 45.7 -24.2 44.9 -25.2 42.2 -25.2 L 22.4 -25.2 C 20.1 -25.2 19.2 -24.2 19.2 -22.7 L 19.2 -19.5 " transform="translate(0.0 38.0)" stroke-dasharray="35.459203330946394" stroke-dashoffset="35.459203330946394"><animate attributeName="stroke-dashoffset" from="35.459203330946394" to="0" dur="1.0637760999283918s" begin="3.995238165873939s" fill="freeze" /></path><path d="M 27.8 -28.9 C 27.3 -29.8 26.8 -30.7 26.1 -31.6 " transform="translate(0.0 38.0)" stroke-dasharray="3.194136525288236" stroke-dashoffset="3.194136525288236"><animate attributeName="stroke-dashoffset" from="3.194136525288236" to="0" dur="0.09582409575864707s" begin="5.059014265802331s" fill="freeze" /></path><path d="M 35.5 -25.9 C 36.6 -27.6 37.5 -29.2 38.4 -31.3 " transform="translate(0.0 38.0)" stroke-dasharray="6.137466362466299" stroke-dashoffset="6.137466362466299"><animate attributeName="stroke-dashoffset" from="6.137466362466299" to="0" dur="0.18412399087398895s" begin="5.154838361560977s" fill="freeze" /></path><path d="M 45.2 -35.5 L 20.2 -35.5 " transform="translate(0.0 38.0)" stroke-dasharray="25.000000000000004" stroke-dashoffset="25.000000000000004"><animate attributeName="stroke-dashoffset" from="25.000000000000004" to="0" dur="0.7500000000000001s" begin="5.338962352434966s" fill="freeze" /></path><path d="M 32.3 -35.8 L 32.3 -40.5" transform="translate(0.0 38.0)" stroke-dasharray="4.700000000000003" stroke-dashoffset="4.700000000000003"><animate attributeName="stroke-dashoffset" from="4.700000000000003" to="0" dur="0.14100000000000007s" begin="6.088962352434966s" fill="freeze" /></path></g></svg>