<?xml version='1.0' encoding='utf-8'?>
<svg viewBox="0.0 -6.0 50.0 50.0" version="1.1" xmlns="http://www.w3.org/2000/svg"><rect x="-1000" y="-1000" width="2000" height="2000" stroke="white" fill="white" /><g style="fill:none;stroke:#000000;stroke-width:1"><path d="M 31.4 1.3 C 32.5 1.5 33.9 1.6 35.0 1.6 C 37.5 1.6 38.8 0.7 39.6 -1.6 C 40.2 -3.5 40.5 -5.7 40.7 -8.2 C 40.8 -9.8 40.0 -10.7 37.2 -10.7 L 7.5 -10.7 " transform="translate(0.0 38.0)" stroke-dasharray="51.132505424597056" stroke-dashoffset="51.132505424597056"><animate attributeName="stroke-dashoffset" from="51.132505424597056" to="0" dur="1.5339751627379117s" begin="0s; 15s; 30s; 45s" fill="freeze" id="anim0" /></path><path d="M 5.2 2.5 C 13.4 0.7 19.8 -3.7 22.4 -10.4 " transform="translate(0.0 38.0)" stroke-dasharray="22.414025668686484" stroke-dashoffset="22.414025668686484"><animate attributeName="stroke-dashoffset" from="22.414025668686484" to="0" dur="0.6724207700605945s" begin="anim0.end" fill="freeze" id="anim1" /></path><path d="M 14.2 -16.2 L 17.9 -16.2 C 20.2 -16.2 20.9 -16.9 20.9 -18.5 L 20.9 -22.6 C 20.9 -24.1 20.2 -24.8 17.9 -24.8 L 14.2 -24.8 C 11.9 -24.8 11.2 -24.1 11.2 -22.6 L 11.2 -18.5 C 11.2 -16.9 11.9 -16.2 14.2 -16.2 Z " transform="translate(0.0 38.0)" stroke-dasharray="33.02358801057852" stroke-dashoffset="33.02358801057852"><animate attributeName="stroke-dashoffset" from="33.02358801057852" to="0" dur="0.9907076403173556s" begin="anim1.end" fill="freeze" id="anim2" /></path><path d="M 3.6 -17.9 C 6.0 -21.9 7.3 -26.6 7.3 -34.2 L 7.3 -36.5 C 7.3 -38.2 8.1 -39.0 10.3 -39.0 L 16.9 -39.0 C 19.1 -39.0 19.9 -38.3 19.9 -36.7 L 19.9 -33.5 C 19.9 -31.9 19.1 -31.2 16.9 -31.2 L 7.7 -31.2 " transform="translate(0.0 38.0)" stroke-dasharray="51.51234015233135" stroke-dashoffset="51.51234015233135"><animate attributeName="stroke-dashoffset" from="51.51234015233135" to="0" dur="1.5453702045699405s" begin="anim2.end" fill="freeze" id="anim3" /></path><path d="M 35.4 -15.6 L 35.4 -27.4 " transform="translate(0.0 38.0)" stroke-dasharray="11.799999999999999" stroke-dashoffset="11.799999999999999"><animate attributeName="stroke-dashoffset" from="11.799999999999999" to="0" dur="0.354s" begin="anim3.end" fill="freeze" id="anim4" /></path><path d="M 44.0 -21.4 L 27.5 -21.4 " transform="translate(0.0 38.0)" stroke-dasharray="16.5" stroke-dashoffset="16.5"><animate attributeName="stroke-dashoffset" from="16.5" to="0" dur="0.495s" begin="anim4.end" fill="freeze" id="anim5" /></path><path d="M 32.0 -30.8 C 31.6 -31.6 31.1 -32.5 30.4 -33.4 " transform="translate(0.0 38.0)" stroke-dasharray="3.0580259262107155" stroke-dashoffset="3.0580259262107155"><animate attributeName="stroke-dashoffset" from="3.0580259262107155" to="0" dur="0.09174077778632146s" begin="anim5.end" fill="freeze" id="anim6" /></path><path d="M 46.5 -28.1 L 25.0 -28.1 " transform="translate(0.0 38.0)" stroke-dasharray="21.5" stroke-dashoffset="21.5"><animate attributeName="stroke-dashoffset" from="21.5" to="0" dur="0.645s" begin="anim6.end" fill="freeze" id="anim7" /></path><path d="M 38.0 -28.8 C 38.9 -30.3 39.6 -31.8 40.3 -33.4 " transform="translate(0.0 38.0)" stroke-dasharray="5.146661629396902" stroke-dashoffset="5.146661629396902"><animate attributeName="stroke-dashoffset" from="5.146661629396902" to="0" dur="0.15439984888190705s" begin="anim7.end" fill="freeze" id="anim8" /></path><path d="M 44.8 -36.0 L 26.5 -36.0 " transform="translate(0.0 38.0)" stroke-dasharray="18.299999999999997" stroke-dashoffset="18.299999999999997"><animate attributeName="stroke-dashoffset" from="18.299999999999997" to="0" dur="0.5489999999999999s" begin="anim8.end" fill="freeze" id="anim9" /></path><path d="M 35.4 -35.9 L 35.4 -40.4" transform="translate(0.0 38.0)" stroke-dasharray="4.5" stroke-dashoffset="4.5"><animate attributeName="stroke-dashoffset" from="4.5" to="0" dur="0.135s" begin="anim9.end" fill="freeze" id="anim_end" /></path></g></svg>