<?xml version='1.0' encoding='utf-8'?>
<svg viewBox="0.0 -6.0 50.0 50.0" version="1.1" xmlns="http://www.w3.org/2000/svg"><rect x="-1000" y="-1000" width="2000" height="2000" stroke="white" fill="white" /><g style="fill:none;stroke:#000000;stroke-width:1"><path d="M 23.4 -20.2 L 38.5 -20.2 C 41.2 -20.2 42.1 -21.1 42.1 -23.1 L 42.1 -28.5 C 42.1 -30.4 41.2 -31.3 38.5 -31.3 L 23.4 -31.3 C 20.6 -31.3 19.6 -30.4 19.6 -28.5 L 19.6 -23.1 C 19.6 -21.1 20.6 -20.2 23.4 -20.2 Z " transform="translate(0.0 38.0)" stroke-dasharray="62.63311482701968" stroke-dashoffset="62.63311482701968"><animate attributeName="stroke-dashoffset" from="62.63311482701968" to="0" dur="1.8789934448105905s" begin="0s; anim_end.end" fill="freeze" id="anim0" /></path><path d="M 9.2 2.6 L 9.2 -25.8 " transform="translate(0.0 38.0)" stroke-dasharray="28.400000000000002" stroke-dashoffset="28.400000000000002"><animate attributeName="stroke-dashoffset" from="28.400000000000002" to="0" dur="0.852s" begin="anim0.end" fill="freeze" id="anim1" /></path><path d="M 26.1 -1.3 C 25.3 -2.2 24.1 -3.5 23.4 -4.0 " transform="translate(0.0 38.0)" stroke-dasharray="3.8238175898194693" stroke-dashoffset="3.8238175898194693"><animate attributeName="stroke-dashoffset" from="3.8238175898194693" to="0" dur="0.11471452769458407s" begin="anim1.end" fill="freeze" id="anim2" /></path><path d="M 3.0 -19.2 C 6.5 -24.3 9.9 -32.5 11.7 -40.0 " transform="translate(0.0 38.0)" stroke-dasharray="22.65408409329979" stroke-dashoffset="22.65408409329979"><animate attributeName="stroke-dashoffset" from="22.65408409329979" to="0" dur="0.6796225227989937s" begin="anim2.end" fill="freeze" id="anim3" /></path><path d="M 46.0 -7.8 L 14.9 -7.8 " transform="translate(0.0 38.0)" stroke-dasharray="31.1" stroke-dashoffset="31.1"><animate attributeName="stroke-dashoffset" from="31.1" to="0" dur="0.933s" begin="anim3.end" fill="freeze" id="anim4" /></path><path d="M 31.6 1.9 C 32.3 2.1 33.0 2.2 33.9 2.2 C 36.0 2.2 37.0 1.5 37.0 -0.6 L 37.0 -11.2 " transform="translate(0.0 38.0)" stroke-dasharray="17.78632313840638" stroke-dashoffset="17.78632313840638"><animate attributeName="stroke-dashoffset" from="17.78632313840638" to="0" dur="0.5335896941521914s" begin="anim4.end" fill="freeze" id="anim5" /></path><path d="M 17.4 -13.8 C 23.6 -13.9 33.4 -14.5 41.4 -15.5 " transform="translate(0.0 38.0)" stroke-dasharray="24.069890249505043" stroke-dashoffset="24.069890249505043"><animate attributeName="stroke-dashoffset" from="24.069890249505043" to="0" dur="0.7220967074851513s" begin="anim5.end" fill="freeze" id="anim6" /></path><path d="M 41.9 -25.8 L 20.1 -25.8 " transform="translate(0.0 38.0)" stroke-dasharray="21.799999999999997" stroke-dashoffset="21.799999999999997"><animate attributeName="stroke-dashoffset" from="21.799999999999997" to="0" dur="0.6539999999999999s" begin="anim6.end" fill="freeze" id="anim7" /></path><path d="M 43.6 -13.8 C 42.5 -15.3 41.0 -16.9 39.6 -18.1 " transform="translate(0.0 38.0)" stroke-dasharray="5.884567028219973" stroke-dashoffset="5.884567028219973"><animate attributeName="stroke-dashoffset" from="5.884567028219973" to="0" dur="0.17653701084659917s" begin="anim7.end" fill="freeze" id="anim8" /></path><path d="M 30.6 -14.3 L 30.6 -40.7 " transform="translate(0.0 38.0)" stroke-dasharray="26.400000000000002" stroke-dashoffset="26.400000000000002"><animate attributeName="stroke-dashoffset" from="26.400000000000002" to="0" dur="0.792s" begin="anim8.end" fill="freeze" id="anim9" /></path><path d="M 45.6 -36.6 L 16.9 -36.6" transform="translate(0.0 38.0)" stroke-dasharray="28.700000000000003" stroke-dashoffset="28.700000000000003"><animate attributeName="stroke-dashoffset" from="28.700000000000003" to="0" dur="0.8610000000000001s" begin="anim9.end" fill="freeze" id="anim_end" /></path></g></svg>