<?xml version='1.0' encoding='utf-8'?>
<svg viewBox="0.0 -6.0 50.0 50.0" version="1.1" xmlns="http://www.w3.org/2000/svg"><rect x="-1000" y="-1000" width="2000" height="2000" stroke="white" fill="white" /><g style="fill:none;stroke:#000000;stroke-width:1"><path d="M 38.8 1.3 C 39.7 1.4 40.6 1.6 41.3 1.6 C 43.8 1.6 44.6 0.5 44.6 -2.0 L 44.6 -39.4 " transform="translate(0.0 38.0)" stroke-dasharray="45.62222550985944" stroke-dashoffset="45.62222550985944"><animate attributeName="stroke-dashoffset" from="45.62222550985944" to="0" dur="1.3686667652957831s" begin="0s" fill="freeze" /></path><path d="M 3.5 -1.0 C 8.2 -4.0 12.9 -8.6 16.3 -13.3 " transform="translate(0.0 38.0)" stroke-dasharray="17.849266098647135" stroke-dashoffset="17.849266098647135"><animate attributeName="stroke-dashoffset" from="17.849266098647135" to="0" dur="0.5354779829594141s" begin="1.3686667652957831s" fill="freeze" /></path><path d="M 3.6 -15.8 C 5.9 -16.4 8.6 -17.2 11.0 -18.2 " transform="translate(0.0 38.0)" stroke-dasharray="7.785567525677204" stroke-dashoffset="7.785567525677204"><animate attributeName="stroke-dashoffset" from="7.785567525677204" to="0" dur="0.23356702577031613s" begin="1.9041447482551972s" fill="freeze" /></path><path d="M 10.9 -22.8 L 3.6 -22.8 " transform="translate(0.0 38.0)" stroke-dasharray="7.300000000000001" stroke-dashoffset="7.300000000000001"><animate attributeName="stroke-dashoffset" from="7.300000000000001" to="0" dur="0.219s" begin="2.1377117740255134s" fill="freeze" /></path><path d="M 28.0 -2.5 C 25.3 -5.0 21.4 -7.8 17.6 -9.7 " transform="translate(0.0 38.0)" stroke-dasharray="12.687312208098422" stroke-dashoffset="12.687312208098422"><animate attributeName="stroke-dashoffset" from="12.687312208098422" to="0" dur="0.3806193662429527s" begin="2.3567117740255132s" fill="freeze" /></path><path d="M 11.1 -13.9 L 11.1 -25.7 " transform="translate(0.0 38.0)" stroke-dasharray="11.799999999999999" stroke-dashoffset="11.799999999999999"><animate attributeName="stroke-dashoffset" from="11.799999999999999" to="0" dur="0.354s" begin="2.737331140268466s" fill="freeze" /></path><path d="M 17.2 2.5 L 17.2 -37.1 " transform="translate(0.0 38.0)" stroke-dasharray="39.6" stroke-dashoffset="39.6"><animate attributeName="stroke-dashoffset" from="39.6" to="0" dur="1.188s" begin="3.091331140268466s" fill="freeze" /></path><path d="M 31.2 -30.1 L 3.5 -30.1 " transform="translate(0.0 38.0)" stroke-dasharray="27.7" stroke-dashoffset="27.7"><animate attributeName="stroke-dashoffset" from="27.7" to="0" dur="0.831s" begin="4.279331140268466s" fill="freeze" /></path><path d="M 31.9 -18.5 C 31.6 -15.3 30.4 -14.6 26.8 -14.6 C 24.2 -14.6 23.4 -15.1 23.4 -16.9 L 23.4 -25.6 " transform="translate(0.0 38.0)" stroke-dasharray="20.945671852344873" stroke-dashoffset="20.945671852344873"><animate attributeName="stroke-dashoffset" from="20.945671852344873" to="0" dur="0.6283701555703461s" begin="5.110331140268466s" fill="freeze" /></path><path d="M 23.1 -20.6 C 25.6 -21.5 27.9 -22.6 30.3 -24.3 " transform="translate(0.0 38.0)" stroke-dasharray="8.121346583208833" stroke-dashoffset="8.121346583208833"><animate attributeName="stroke-dashoffset" from="8.121346583208833" to="0" dur="0.24364039749626498s" begin="5.738701295838812s" fill="freeze" /></path><path d="M 7.0 -36.0 C 13.7 -36.5 21.0 -37.7 26.8 -39.1 " transform="translate(0.0 38.0)" stroke-dasharray="20.061444848069605" stroke-dashoffset="20.061444848069605"><animate attributeName="stroke-dashoffset" from="20.061444848069605" to="0" dur="0.6018433454420882s" begin="5.982341693335077s" fill="freeze" /></path><path d="M 36.8 -8.8 L 36.8 -36.1" transform="translate(0.0 38.0)" stroke-dasharray="27.3" stroke-dashoffset="27.3"><animate attributeName="stroke-dashoffset" from="27.3" to="0" dur="0.819s" begin="6.584185038777165s" fill="freeze" /></path></g></svg>