<?xml version='1.0' encoding='utf-8'?>
<svg viewBox="0.0 -6.0 50.0 50.0" version="1.1" xmlns="http://www.w3.org/2000/svg"><rect x="-1000" y="-1000" width="2000" height="2000" stroke="white" fill="white" /><g style="fill:none;stroke:#000000;stroke-width:1"><path d="M 22.4 1.6 C 32.5 -4.4 39.5 -14.7 41.0 -28.8 " transform="translate(0.0 38.0)" stroke-dasharray="37.015702847093316" stroke-dashoffset="37.015702847093316"><animate attributeName="stroke-dashoffset" from="37.015702847093316" to="0" dur="1.1104710854127995s" begin="0s" fill="freeze" /></path><path d="M 9.9 -1.4 L 15.8 -1.4 C 18.4 -1.4 19.4 -2.6 19.4 -4.7 L 19.4 -14.3 C 19.4 -16.4 18.5 -17.6 15.9 -17.6 L 9.8 -17.6 C 7.2 -17.6 6.3 -16.4 6.3 -14.3 L 6.3 -4.7 C 6.3 -2.6 7.3 -1.4 9.9 -1.4 Z " transform="translate(0.0 38.0)" stroke-dasharray="53.5672290842696" stroke-dashoffset="53.5672290842696"><animate attributeName="stroke-dashoffset" from="53.5672290842696" to="0" dur="1.607016872528088s" begin="1.1104710854127995s" fill="freeze" /></path><path d="M 12.8 -17.2 L 12.8 -40.0 " transform="translate(0.0 38.0)" stroke-dasharray="22.8" stroke-dashoffset="22.8"><animate attributeName="stroke-dashoffset" from="22.8" to="0" dur="0.6839999999999999s" begin="2.7174879579408877s" fill="freeze" /></path><path d="M 21.9 -29.5 L 3.8 -29.5 " transform="translate(0.0 38.0)" stroke-dasharray="18.099999999999998" stroke-dashoffset="18.099999999999998"><animate attributeName="stroke-dashoffset" from="18.099999999999998" to="0" dur="0.5429999999999999s" begin="3.401487957940888s" fill="freeze" /></path><path d="M 45.5 0.3 C 37.0 -5.5 30.4 -15.1 28.0 -26.6 " transform="translate(0.0 38.0)" stroke-dasharray="32.87907742564337" stroke-dashoffset="32.87907742564337"><animate attributeName="stroke-dashoffset" from="32.87907742564337" to="0" dur="0.9863723227693012s" begin="3.944487957940888s" fill="freeze" /></path><path d="M 24.1 -20.6 C 27.6 -25.6 30.4 -32.7 31.9 -39.1 " transform="translate(0.0 38.0)" stroke-dasharray="20.186810990043355" stroke-dashoffset="20.186810990043355"><animate attributeName="stroke-dashoffset" from="20.186810990043355" to="0" dur="0.6056043297013006s" begin="4.930860280710189s" fill="freeze" /></path><path d="M 45.8 -29.5 L 28.2 -29.5" transform="translate(0.0 38.0)" stroke-dasharray="17.599999999999998" stroke-dashoffset="17.599999999999998"><animate attributeName="stroke-dashoffset" from="17.599999999999998" to="0" dur="0.5279999999999999s" begin="5.53646461041149s" fill="freeze" /></path></g></svg>