<?xml version='1.0' encoding='utf-8'?>
<svg viewBox="0.0 -6.0 50.0 50.0" version="1.1" xmlns="http://www.w3.org/2000/svg"><rect x="-1000" y="-1000" width="2000" height="2000" stroke="white" fill="white" /><g style="fill:none;stroke:#000000;stroke-width:1"><path d="M 39.0 1.8 C 39.5 1.9 40.1 1.9 40.6 1.9 C 42.4 1.9 43.2 0.9 43.2 -1.4 L 43.2 -35.0 C 43.2 -37.5 42.2 -38.5 39.6 -38.5 L 24.6 -38.5 C 22.1 -38.5 21.1 -37.5 21.1 -35.0 L 21.1 2.2 " transform="translate(0.0 38.0)" stroke-dasharray="103.86100367489504" stroke-dashoffset="103.86100367489504"><animate attributeName="stroke-dashoffset" from="103.86100367489504" to="0" dur="3.115830110246851s" begin="0s" fill="freeze" /></path><path d="M 2.7 -10.0 C 5.5 -14.3 7.8 -20.4 8.9 -26.3 " transform="translate(0.0 38.0)" stroke-dasharray="17.5418666739681" stroke-dashoffset="17.5418666739681"><animate attributeName="stroke-dashoffset" from="17.5418666739681" to="0" dur="0.5262560002190431s" begin="3.115830110246851s" fill="freeze" /></path><path d="M 10.1 2.6 L 10.1 -40.4 " transform="translate(0.0 38.0)" stroke-dasharray="43.0" stroke-dashoffset="43.0"><animate attributeName="stroke-dashoffset" from="43.0" to="0" dur="1.29s" begin="3.642086110465894s" fill="freeze" /></path><path d="M 15.8 -15.6 C 14.6 -17.4 12.8 -19.2 10.9 -20.7 " transform="translate(0.0 38.0)" stroke-dasharray="7.09998010112178" stroke-dashoffset="7.09998010112178"><animate attributeName="stroke-dashoffset" from="7.09998010112178" to="0" dur="0.2129994030336534s" begin="4.932086110465894s" fill="freeze" /></path><path d="M 15.6 -29.2 L 3.3 -29.2 " transform="translate(0.0 38.0)" stroke-dasharray="12.3" stroke-dashoffset="12.3"><animate attributeName="stroke-dashoffset" from="12.3" to="0" dur="0.369s" begin="5.145085513499548s" fill="freeze" /></path><path d="M 28.3 -0.9 L 28.3 -38.4 " transform="translate(0.0 38.0)" stroke-dasharray="37.5" stroke-dashoffset="37.5"><animate attributeName="stroke-dashoffset" from="37.5" to="0" dur="1.125s" begin="5.5140855134995475s" fill="freeze" /></path><path d="M 47.5 -20.6 L 16.9 -20.6 " transform="translate(0.0 38.0)" stroke-dasharray="30.6" stroke-dashoffset="30.6"><animate attributeName="stroke-dashoffset" from="30.6" to="0" dur="0.918s" begin="6.6390855134995475s" fill="freeze" /></path><path d="M 35.4 -1.1 L 35.4 -38.4" transform="translate(0.0 38.0)" stroke-dasharray="37.3" stroke-dashoffset="37.3"><animate attributeName="stroke-dashoffset" from="37.3" to="0" dur="1.1189999999999998s" begin="7.557085513499548s" fill="freeze" /></path></g></svg>