<?xml version='1.0' encoding='utf-8'?>
<svg viewBox="0.0 -6.0 50.0 50.0" version="1.1" xmlns="http://www.w3.org/2000/svg"><rect x="-1000" y="-1000" width="2000" height="2000" stroke="white" fill="white" /><g style="fill:none;stroke:#000000;stroke-width:1"><path d="M 16.6 -15.1 C 24.9 -19.6 29.9 -26.4 30.7 -36.2 " transform="translate(0.0 38.0)" stroke-dasharray="26.57311578402128" stroke-dashoffset="26.57311578402128"><animate attributeName="stroke-dashoffset" from="26.57311578402128" to="0" dur="0.7971934735206384s" begin="0s; anim_end.end" fill="freeze" id="anim0" /></path><path d="M 5.5 0.5 C 7.7 -3.0 10.0 -8.3 11.3 -12.7 " transform="translate(0.0 38.0)" stroke-dasharray="14.456242471614317" stroke-dashoffset="14.456242471614317"><animate attributeName="stroke-dashoffset" from="14.456242471614317" to="0" dur="0.4336872741484295s" begin="anim0.end" fill="freeze" id="anim1" /></path><path d="M 17.2 -3.4 C 18.6 -5.0 19.9 -7.2 20.7 -9.1 " transform="translate(0.0 38.0)" stroke-dasharray="6.7145623645059285" stroke-dashoffset="6.7145623645059285"><animate attributeName="stroke-dashoffset" from="6.7145623645059285" to="0" dur="0.20143687093517784s" begin="anim1.end" fill="freeze" id="anim2" /></path><path d="M 8.4 -23.2 C 7.2 -24.6 5.3 -26.1 4.2 -26.9 " transform="translate(0.0 38.0)" stroke-dasharray="5.608257130601457" stroke-dashoffset="5.608257130601457"><animate attributeName="stroke-dashoffset" from="5.608257130601457" to="0" dur="0.1682477139180437s" begin="anim2.end" fill="freeze" id="anim3" /></path><path d="M 22.4 1.8 C 23.2 1.9 24.0 1.9 24.8 1.9 C 26.5 1.9 27.6 1.1 27.6 -1.2 L 27.6 -15.8 " transform="translate(0.0 38.0)" stroke-dasharray="21.808261763505012" stroke-dashoffset="21.808261763505012"><animate attributeName="stroke-dashoffset" from="21.808261763505012" to="0" dur="0.6542478529051503s" begin="anim3.end" fill="freeze" id="anim4" /></path><path d="M 36.9 -3.7 C 36.0 -5.8 34.6 -8.3 33.5 -9.8 " transform="translate(0.0 38.0)" stroke-dasharray="6.995886688500143" stroke-dashoffset="6.995886688500143"><animate attributeName="stroke-dashoffset" from="6.995886688500143" to="0" dur="0.20987660065500427s" begin="anim4.end" fill="freeze" id="anim5" /></path><path d="M 11.7 -35.1 C 10.6 -36.5 8.8 -38.0 7.7 -38.9 " transform="translate(0.0 38.0)" stroke-dasharray="5.527400052414648" stroke-dashoffset="5.527400052414648"><animate attributeName="stroke-dashoffset" from="5.527400052414648" to="0" dur="0.16582200157243943s" begin="anim5.end" fill="freeze" id="anim6" /></path><path d="M 45.1 -4.2 C 44.0 -6.2 42.2 -8.9 41.0 -10.4 " transform="translate(0.0 38.0)" stroke-dasharray="7.440011742918997" stroke-dashoffset="7.440011742918997"><animate attributeName="stroke-dashoffset" from="7.440011742918997" to="0" dur="0.2232003522875699s" begin="anim6.end" fill="freeze" id="anim7" /></path><path d="M 45.3 -28.1 L 16.4 -28.1 " transform="translate(0.0 38.0)" stroke-dasharray="28.9" stroke-dashoffset="28.9"><animate attributeName="stroke-dashoffset" from="28.9" to="0" dur="0.8669999999999999s" begin="anim7.end" fill="freeze" id="anim8" /></path><path d="M 46.0 -14.8 C 39.5 -17.3 33.9 -21.9 30.7 -27.4 " transform="translate(0.0 38.0)" stroke-dasharray="20.190512895482577" stroke-dashoffset="20.190512895482577"><animate attributeName="stroke-dashoffset" from="20.190512895482577" to="0" dur="0.6057153868644772s" begin="anim8.end" fill="freeze" id="anim9" /></path><path d="M 20.3 -35.3 C 26.8 -35.9 34.5 -37.2 40.5 -39.0" transform="translate(0.0 38.0)" stroke-dasharray="20.566557485798977" stroke-dashoffset="20.566557485798977"><animate attributeName="stroke-dashoffset" from="20.566557485798977" to="0" dur="0.6169967245739693s" begin="anim9.end" fill="freeze" id="anim_end" /></path></g></svg>