<?xml version='1.0' encoding='utf-8'?>
<svg viewBox="0.0 -6.0 50.0 50.0" version="1.1" xmlns="http://www.w3.org/2000/svg"><rect x="-1000" y="-1000" width="2000" height="2000" stroke="white" fill="white" /><g style="fill:none;stroke:#000000;stroke-width:1"><path d="M 40.6 -5.0 C 41.4 -4.8 42.0 -4.7 42.6 -4.7 C 45.1 -4.7 46.3 -6.5 46.3 -10.8 C 46.3 -15.6 44.9 -18.4 41.1 -22.4 L 41.1 -23.2 C 42.8 -26.7 44.0 -30.8 45.0 -34.5 C 45.6 -36.8 44.8 -38.2 42.1 -38.2 L 39.2 -38.2 C 36.9 -38.2 36.0 -37.4 36.0 -35.1 L 36.0 2.6 " transform="translate(0.0 38.0)" stroke-dasharray="87.60270845979525" stroke-dashoffset="87.60270845979525"><animate attributeName="stroke-dashoffset" from="87.60270845979525" to="0" dur="2.6280812537938574s" begin="0s" fill="freeze" /></path><path d="M 2.5 -10.2 C 5.1 -14.5 7.2 -20.4 8.4 -26.2 " transform="translate(0.0 38.0)" stroke-dasharray="17.128821566786318" stroke-dashoffset="17.128821566786318"><animate attributeName="stroke-dashoffset" from="17.128821566786318" to="0" dur="0.5138646470035895s" begin="2.6280812537938574s" fill="freeze" /></path><path d="M 15.8 -2.1 C 19.7 -3.0 23.9 -4.5 28.6 -6.5 " transform="translate(0.0 38.0)" stroke-dasharray="13.552259456914975" stroke-dashoffset="13.552259456914975"><animate attributeName="stroke-dashoffset" from="13.552259456914975" to="0" dur="0.4065677837074492s" begin="3.141945900797447s" fill="freeze" /></path><path d="M 9.4 2.7 L 9.4 -40.5 " transform="translate(0.0 38.0)" stroke-dasharray="43.2" stroke-dashoffset="43.2"><animate attributeName="stroke-dashoffset" from="43.2" to="0" dur="1.296s" begin="3.548513684504896s" fill="freeze" /></path><path d="M 15.1 -16.9 C 13.8 -18.6 12.2 -20.6 10.3 -22.1 " transform="translate(0.0 38.0)" stroke-dasharray="7.095416756580944" stroke-dashoffset="7.095416756580944"><animate attributeName="stroke-dashoffset" from="7.095416756580944" to="0" dur="0.21286250269742832s" begin="4.844513684504896s" fill="freeze" /></path><path d="M 31.1 -3.1 C 29.9 -5.8 27.9 -8.9 26.2 -11.2 " transform="translate(0.0 38.0)" stroke-dasharray="9.48354266322763" stroke-dashoffset="9.48354266322763"><animate attributeName="stroke-dashoffset" from="9.48354266322763" to="0" dur="0.28450627989682886s" begin="5.057376187202324s" fill="freeze" /></path><path d="M 14.6 -29.4 L 3.0 -29.4 " transform="translate(0.0 38.0)" stroke-dasharray="11.6" stroke-dashoffset="11.6"><animate attributeName="stroke-dashoffset" from="11.6" to="0" dur="0.348s" begin="5.341882467099153s" fill="freeze" /></path><path d="M 19.2 -17.8 L 26.9 -17.8 C 29.2 -17.8 29.9 -18.8 29.9 -20.5 L 29.9 -31.0 C 29.9 -32.9 29.4 -33.8 27.0 -33.8 L 22.4 -33.8 C 20.1 -33.8 19.4 -32.9 19.4 -31.0 L 19.4 -3.4 " transform="translate(0.0 38.0)" stroke-dasharray="64.6147665635297" stroke-dashoffset="64.6147665635297"><animate attributeName="stroke-dashoffset" from="64.6147665635297" to="0" dur="1.938442996905891s" begin="5.689882467099153s" fill="freeze" /></path><path d="M 28.9 -25.9 L 20.1 -25.9 " transform="translate(0.0 38.0)" stroke-dasharray="8.799999999999997" stroke-dashoffset="8.799999999999997"><animate attributeName="stroke-dashoffset" from="8.799999999999997" to="0" dur="0.2639999999999999s" begin="7.628325464005044s" fill="freeze" /></path><path d="M 24.6 -33.1 L 24.6 -40.3" transform="translate(0.0 38.0)" stroke-dasharray="7.199999999999996" stroke-dashoffset="7.199999999999996"><animate attributeName="stroke-dashoffset" from="7.199999999999996" to="0" dur="0.21599999999999986s" begin="7.892325464005045s" fill="freeze" /></path></g></svg>