<?xml version='1.0' encoding='utf-8'?>
<svg viewBox="0.0 -6.0 50.0 50.0" version="1.1" xmlns="http://www.w3.org/2000/svg"><rect x="-1000" y="-1000" width="2000" height="2000" stroke="white" fill="white" /><g style="fill:none;stroke:#000000;stroke-width:1"><path d="M 23.6 1.4 C 27.7 -4.2 29.8 -11.6 29.8 -23.8 L 29.8 -36.0 " transform="translate(0.0 38.0)" stroke-dasharray="38.60121057649158" stroke-dashoffset="38.60121057649158"><animate attributeName="stroke-dashoffset" from="38.60121057649158" to="0" dur="1.1580363172947474s" begin="0s; 15s; 30s; 45s" fill="freeze" id="anim0" /></path><path d="M 23.1 -6.7 L 3.1 -6.7 " transform="translate(0.0 38.0)" stroke-dasharray="20.0" stroke-dashoffset="20.0"><animate attributeName="stroke-dashoffset" from="20.0" to="0" dur="0.6s" begin="anim0.end" fill="freeze" id="anim1" /></path><path d="M 13.6 2.6 L 13.6 -40.4 " transform="translate(0.0 38.0)" stroke-dasharray="43.0" stroke-dashoffset="43.0"><animate attributeName="stroke-dashoffset" from="43.0" to="0" dur="1.29s" begin="anim1.end" fill="freeze" id="anim2" /></path><path d="M 9.7 -13.5 L 16.1 -13.5 L 16.1 -13.5 L 17.6 -13.5 C 20.2 -13.5 21.2 -14.4 21.2 -16.6 L 21.2 -24.7 C 21.2 -26.9 20.2 -27.7 17.6 -27.7 L 9.7 -27.7 C 7.1 -27.7 6.2 -26.9 6.2 -24.7 L 6.2 -16.6 C 6.2 -14.4 7.1 -13.5 9.7 -13.5 Z " transform="translate(0.0 38.0)" stroke-dasharray="53.83797674087948" stroke-dashoffset="53.83797674087948"><animate attributeName="stroke-dashoffset" from="53.83797674087948" to="0" dur="1.6151393022263845s" begin="anim2.end" fill="freeze" id="anim3" /></path><path d="M 20.8 -20.8 L 6.3 -20.8 " transform="translate(0.0 38.0)" stroke-dasharray="14.5" stroke-dashoffset="14.5"><animate attributeName="stroke-dashoffset" from="14.5" to="0" dur="0.435s" begin="anim3.end" fill="freeze" id="anim4" /></path><path d="M 23.5 -34.3 L 3.7 -34.3 " transform="translate(0.0 38.0)" stroke-dasharray="19.8" stroke-dashoffset="19.8"><animate attributeName="stroke-dashoffset" from="19.8" to="0" dur="0.594s" begin="anim4.end" fill="freeze" id="anim5" /></path><path d="M 39.9 2.4 L 39.9 -23.1 " transform="translate(0.0 38.0)" stroke-dasharray="25.5" stroke-dashoffset="25.5"><animate attributeName="stroke-dashoffset" from="25.5" to="0" dur="0.765s" begin="anim5.end" fill="freeze" id="anim6" /></path><path d="M 46.8 -23.6 L 30.2 -23.6 " transform="translate(0.0 38.0)" stroke-dasharray="16.599999999999998" stroke-dashoffset="16.599999999999998"><animate attributeName="stroke-dashoffset" from="16.599999999999998" to="0" dur="0.49799999999999994s" begin="anim6.end" fill="freeze" id="anim7" /></path><path d="M 29.9 -35.0 C 34.6 -36.0 39.1 -37.2 42.9 -38.9" transform="translate(0.0 38.0)" stroke-dasharray="13.596987469036367" stroke-dashoffset="13.596987469036367"><animate attributeName="stroke-dashoffset" from="13.596987469036367" to="0" dur="0.407909624071091s" begin="anim7.end" fill="freeze" id="anim_end" /></path></g></svg>