<?xml version='1.0' encoding='utf-8'?>
<svg viewBox="0.0 -6.0 50.0 50.0" version="1.1" xmlns="http://www.w3.org/2000/svg"><rect x="-1000" y="-1000" width="2000" height="2000" stroke="white" fill="white" /><g style="fill:none;stroke:#000000;stroke-width:1"><path d="M 14.3 0.1 C 18.5 -5.2 20.8 -12.6 20.8 -23.2 L 20.8 -28.2 C 20.8 -30.4 21.6 -31.2 24.4 -31.2 L 40.0 -31.2 C 42.2 -31.2 43.0 -30.3 43.0 -28.8 L 43.0 -25.8 C 43.0 -24.4 42.2 -23.4 40.0 -23.4 L 20.6 -23.4 " transform="translate(0.0 38.0)" stroke-dasharray="81.96042051402753" stroke-dashoffset="81.96042051402753"><animate attributeName="stroke-dashoffset" from="81.96042051402753" to="0" dur="2.458812615420826s" begin="0s" fill="freeze" /></path><path d="M 5.7 0.4 C 8.0 -3.0 10.4 -8.3 11.8 -12.8 " transform="translate(0.0 38.0)" stroke-dasharray="14.585409967392582" stroke-dashoffset="14.585409967392582"><animate attributeName="stroke-dashoffset" from="14.585409967392582" to="0" dur="0.43756229902177746s" begin="2.458812615420826s" fill="freeze" /></path><path d="M 8.9 -22.9 C 7.6 -24.3 5.5 -26.1 4.3 -26.9 " transform="translate(0.0 38.0)" stroke-dasharray="6.105939078722909" stroke-dashoffset="6.105939078722909"><animate attributeName="stroke-dashoffset" from="6.105939078722909" to="0" dur="0.18317817236168726s" begin="2.896374914442603s" fill="freeze" /></path><path d="M 21.0 1.9 C 28.4 -1.8 33.0 -7.7 33.0 -18.1 " transform="translate(0.0 38.0)" stroke-dasharray="24.780926098132053" stroke-dashoffset="24.780926098132053"><animate attributeName="stroke-dashoffset" from="24.780926098132053" to="0" dur="0.7434277829439615s" begin="3.0795530868042906s" fill="freeze" /></path><path d="M 46.0 1.2 C 40.1 -1.6 35.3 -6.7 33.2 -12.3 " transform="translate(0.0 38.0)" stroke-dasharray="19.048236784724818" stroke-dashoffset="19.048236784724818"><animate attributeName="stroke-dashoffset" from="19.048236784724818" to="0" dur="0.5714471035417445s" begin="3.8229808697482524s" fill="freeze" /></path><path d="M 45.4 -12.5 L 20.1 -12.5 " transform="translate(0.0 38.0)" stroke-dasharray="25.299999999999997" stroke-dashoffset="25.299999999999997"><animate attributeName="stroke-dashoffset" from="25.299999999999997" to="0" dur="0.7589999999999999s" begin="4.3944279732899965s" fill="freeze" /></path><path d="M 12.1 -35.0 C 10.9 -36.3 9.2 -38.0 8.0 -38.9 " transform="translate(0.0 38.0)" stroke-dasharray="5.664781075346097" stroke-dashoffset="5.664781075346097"><animate attributeName="stroke-dashoffset" from="5.664781075346097" to="0" dur="0.16994343226038292s" begin="5.153427973289997s" fill="freeze" /></path><path d="M 45.9 -38.0 L 18.1 -38.0" transform="translate(0.0 38.0)" stroke-dasharray="27.799999999999997" stroke-dashoffset="27.799999999999997"><animate attributeName="stroke-dashoffset" from="27.799999999999997" to="0" dur="0.8339999999999999s" begin="5.32337140555038s" fill="freeze" /></path></g></svg>