<?xml version='1.0' encoding='utf-8'?>
<svg viewBox="0.0 -6.0 50.0 50.0" version="1.1" xmlns="http://www.w3.org/2000/svg"><rect x="-1000" y="-1000" width="2000" height="2000" stroke="white" fill="white" /><g style="fill:none;stroke:#000000;stroke-width:1"><path d="M 30.5 1.1 L 38.9 1.1 C 41.5 1.1 42.6 -0.1 42.6 -2.5 L 42.6 -15.8 C 42.6 -18.1 41.5 -19.4 38.9 -19.4 L 30.5 -19.4 C 27.8 -19.4 26.7 -18.1 26.7 -15.8 L 26.7 -2.5 C 26.7 -0.1 27.8 1.1 30.5 1.1 Z " transform="translate(0.0 38.0)" stroke-dasharray="67.3579008151971" stroke-dashoffset="67.3579008151971"><animate attributeName="stroke-dashoffset" from="67.3579008151971" to="0" dur="2.020737024455913s" begin="0s" fill="freeze" /></path><path d="M 3.0 -9.4 C 6.1 -14.0 8.7 -20.3 10.1 -26.2 " transform="translate(0.0 38.0)" stroke-dasharray="18.32902521613057" stroke-dashoffset="18.32902521613057"><animate attributeName="stroke-dashoffset" from="18.32902521613057" to="0" dur="0.5498707564839171s" begin="2.020737024455913s" fill="freeze" /></path><path d="M 11.1 2.5 L 11.1 -40.3 " transform="translate(0.0 38.0)" stroke-dasharray="42.8" stroke-dashoffset="42.8"><animate attributeName="stroke-dashoffset" from="42.8" to="0" dur="1.2839999999999998s" begin="2.57060778093983s" fill="freeze" /></path><path d="M 17.2 -17.1 C 16.0 -18.8 14.2 -20.6 12.1 -21.9 " transform="translate(0.0 38.0)" stroke-dasharray="7.0484027647680065" stroke-dashoffset="7.0484027647680065"><animate attributeName="stroke-dashoffset" from="7.0484027647680065" to="0" dur="0.2114520829430402s" begin="3.85460778093983s" fill="freeze" /></path><path d="M 17.2 -29.0 L 3.9 -29.0 " transform="translate(0.0 38.0)" stroke-dasharray="13.299999999999999" stroke-dashoffset="13.299999999999999"><animate attributeName="stroke-dashoffset" from="13.299999999999999" to="0" dur="0.39899999999999997s" begin="4.06605986388287s" fill="freeze" /></path><path d="M 19.1 -10.1 C 24.2 -15.8 28.8 -25.6 30.4 -35.2 " transform="translate(0.0 38.0)" stroke-dasharray="27.849562249820057" stroke-dashoffset="27.849562249820057"><animate attributeName="stroke-dashoffset" from="27.849562249820057" to="0" dur="0.8354868674946017s" begin="4.46505986388287s" fill="freeze" /></path><path d="M 45.1 -36.1 L 20.4 -36.1" transform="translate(0.0 38.0)" stroke-dasharray="24.700000000000003" stroke-dashoffset="24.700000000000003"><animate attributeName="stroke-dashoffset" from="24.700000000000003" to="0" dur="0.7410000000000001s" begin="5.300546731377472s" fill="freeze" /></path></g></svg>