<?xml version='1.0' encoding='utf-8'?>
<svg viewBox="0.0 -6.0 50.0 50.0" version="1.1" xmlns="http://www.w3.org/2000/svg"><rect x="-1000" y="-1000" width="2000" height="2000" stroke="white" fill="white" /><g style="fill:none;stroke:#000000;stroke-width:1"><path d="M 5.7 1.3 C 6.5 1.5 7.4 1.6 8.2 1.6 C 10.4 1.6 11.6 0.7 11.6 -2.1 L 11.6 -40.1 " transform="translate(0.0 38.0)" stroke-dasharray="46.35100807041599" stroke-dashoffset="46.35100807041599"><animate attributeName="stroke-dashoffset" from="46.35100807041599" to="0" dur="1.3905302421124797s" begin="0s; anim_end.end" fill="freeze" id="anim0" /></path><path d="M 4.4 -13.5 C 8.7 -14.7 14.2 -16.5 17.6 -18.1 " transform="translate(0.0 38.0)" stroke-dasharray="13.991783075864415" stroke-dashoffset="13.991783075864415"><animate attributeName="stroke-dashoffset" from="13.991783075864415" to="0" dur="0.41975349227593245s" begin="anim0.end" fill="freeze" id="anim1" /></path><path d="M 17.6 -29.5 L 4.5 -29.5 " transform="translate(0.0 38.0)" stroke-dasharray="13.100000000000001" stroke-dashoffset="13.100000000000001"><animate attributeName="stroke-dashoffset" from="13.100000000000001" to="0" dur="0.393s" begin="anim1.end" fill="freeze" id="anim2" /></path><path d="M 33.0 1.6 L 33.0 -27.7 " transform="translate(0.0 38.0)" stroke-dasharray="29.3" stroke-dashoffset="29.3"><animate attributeName="stroke-dashoffset" from="29.3" to="0" dur="0.879s" begin="anim2.end" fill="freeze" id="anim3" /></path><path d="M 43.0 -15.8 C 41.2 -17.4 39.4 -18.9 37.5 -19.9 " transform="translate(0.0 38.0)" stroke-dasharray="6.876801351247325" stroke-dashoffset="6.876801351247325"><animate attributeName="stroke-dashoffset" from="6.876801351247325" to="0" dur="0.20630404053741974s" begin="anim3.end" fill="freeze" id="anim4" /></path><path d="M 46.5 -28.9 L 22.5 -28.9 " transform="translate(0.0 38.0)" stroke-dasharray="24.0" stroke-dashoffset="24.0"><animate attributeName="stroke-dashoffset" from="24.0" to="0" dur="0.72s" begin="anim4.end" fill="freeze" id="anim5" /></path><path d="M 33.2 -28.8 L 33.2 -39.7" transform="translate(0.0 38.0)" stroke-dasharray="10.900000000000002" stroke-dashoffset="10.900000000000002"><animate attributeName="stroke-dashoffset" from="10.900000000000002" to="0" dur="0.32700000000000007s" begin="anim5.end" fill="freeze" id="anim_end" /></path></g></svg>