<?xml version='1.0' encoding='utf-8'?>
<svg viewBox="0.0 -6.0 50.0 50.0" version="1.1" xmlns="http://www.w3.org/2000/svg"><rect x="-1000" y="-1000" width="2000" height="2000" stroke="white" fill="white" /><g style="fill:none;stroke:#000000;stroke-width:1"><path d="M 32.6 -0.2 C 33.5 0.0 34.6 0.1 35.8 0.1 C 39.0 0.1 40.9 -1.5 41.6 -6.0 C 42.6 -12.6 43.4 -22.9 43.3 -32.8 C 43.3 -35.3 42.1 -36.5 39.0 -36.5 L 21.9 -36.5 " transform="translate(0.0 38.0)" stroke-dasharray="63.15756074087206" stroke-dashoffset="63.15756074087206"><animate attributeName="stroke-dashoffset" from="63.15756074087206" to="0" dur="1.8947268222261617s" begin="0s; anim_end.end" fill="freeze" id="anim0" /></path><path d="M 3.5 -8.9 C 6.8 -13.6 9.7 -20.1 11.2 -26.2 " transform="translate(0.0 38.0)" stroke-dasharray="19.03547871190136" stroke-dashoffset="19.03547871190136"><animate attributeName="stroke-dashoffset" from="19.03547871190136" to="0" dur="0.5710643613570408s" begin="anim0.end" fill="freeze" id="anim1" /></path><path d="M 19.1 -15.8 C 17.6 -17.7 15.5 -19.6 13.3 -20.9 " transform="translate(0.0 38.0)" stroke-dasharray="7.76445923445136" stroke-dashoffset="7.76445923445136"><animate attributeName="stroke-dashoffset" from="7.76445923445136" to="0" dur="0.2329337770335408s" begin="anim1.end" fill="freeze" id="anim2" /></path><path d="M 19.4 -28.8 L 4.4 -28.8 " transform="translate(0.0 38.0)" stroke-dasharray="14.999999999999998" stroke-dashoffset="14.999999999999998"><animate attributeName="stroke-dashoffset" from="14.999999999999998" to="0" dur="0.44999999999999996s" begin="anim2.end" fill="freeze" id="anim3" /></path><path d="M 19.1 1.0 C 27.4 -6.5 31.4 -18.4 31.4 -35.8 " transform="translate(0.0 38.0)" stroke-dasharray="39.97699316329729" stroke-dashoffset="39.97699316329729"><animate attributeName="stroke-dashoffset" from="39.97699316329729" to="0" dur="1.1993097948989186s" begin="anim3.end" fill="freeze" id="anim4" /></path><path d="M 12.3 2.6 L 12.3 -40.5" transform="translate(0.0 38.0)" stroke-dasharray="43.1" stroke-dashoffset="43.1"><animate attributeName="stroke-dashoffset" from="43.1" to="0" dur="1.293s" begin="anim4.end" fill="freeze" id="anim_end" /></path></g></svg>