<?xml version='1.0' encoding='utf-8'?>
<svg viewBox="0.0 -6.0 50.0 50.0" version="1.1" xmlns="http://www.w3.org/2000/svg"><rect x="-1000" y="-1000" width="2000" height="2000" stroke="white" fill="white" /><g style="fill:none;stroke:#000000;stroke-width:1"><path d="M 13.7 1.1 C 17.5 -4.3 19.1 -10.8 19.1 -22.4 L 19.1 -39.0 " transform="translate(0.0 38.0)" stroke-dasharray="41.11751318532232" stroke-dashoffset="41.11751318532232"><animate attributeName="stroke-dashoffset" from="41.11751318532232" to="0" dur="1.2335253955596697s" begin="0s" fill="freeze" /></path><path d="M 5.5 0.5 C 7.7 -3.0 10.0 -8.3 11.3 -12.7 " transform="translate(0.0 38.0)" stroke-dasharray="14.456242471614317" stroke-dashoffset="14.456242471614317"><animate attributeName="stroke-dashoffset" from="14.456242471614317" to="0" dur="0.4336872741484295s" begin="1.2335253955596697s" fill="freeze" /></path><path d="M 27.1 0.9 L 27.1 -10.4 C 27.1 -12.6 26.1 -13.7 23.5 -13.7 L 18.9 -13.7 " transform="translate(0.0 38.0)" stroke-dasharray="21.548957256731914" stroke-dashoffset="21.548957256731914"><animate attributeName="stroke-dashoffset" from="21.548957256731914" to="0" dur="0.6464687177019574s" begin="1.6672126697080991s" fill="freeze" /></path><path d="M 8.4 -23.2 C 7.2 -24.6 5.3 -26.1 4.2 -26.9 " transform="translate(0.0 38.0)" stroke-dasharray="5.608257130601457" stroke-dashoffset="5.608257130601457"><animate attributeName="stroke-dashoffset" from="5.608257130601457" to="0" dur="0.1682477139180437s" begin="2.3136813874100564s" fill="freeze" /></path><path d="M 35.6 0.9 L 35.6 -10.4 C 35.6 -12.6 36.6 -13.7 39.2 -13.7 L 43.9 -13.7 " transform="translate(0.0 38.0)" stroke-dasharray="21.648957256731908" stroke-dashoffset="21.648957256731908"><animate attributeName="stroke-dashoffset" from="21.648957256731908" to="0" dur="0.6494687177019572s" begin="2.4819291013281s" fill="freeze" /></path><path d="M 11.7 -35.1 C 10.6 -36.5 8.8 -38.0 7.7 -38.9 " transform="translate(0.0 38.0)" stroke-dasharray="5.527400052414648" stroke-dashoffset="5.527400052414648"><animate attributeName="stroke-dashoffset" from="5.527400052414648" to="0" dur="0.16582200157243943s" begin="3.1313978190300573s" fill="freeze" /></path><path d="M 43.0 -21.1 L 19.1 -21.1 " transform="translate(0.0 38.0)" stroke-dasharray="23.9" stroke-dashoffset="23.9"><animate attributeName="stroke-dashoffset" from="23.9" to="0" dur="0.717s" begin="3.2972198206024967s" fill="freeze" /></path><path d="M 18.9 -28.1 L 23.5 -28.1 C 26.1 -28.1 27.1 -29.1 27.1 -31.3 L 27.1 -39.4 " transform="translate(0.0 38.0)" stroke-dasharray="18.285700017871616" stroke-dashoffset="18.285700017871616"><animate attributeName="stroke-dashoffset" from="18.285700017871616" to="0" dur="0.5485710005361485s" begin="4.014219820602497s" fill="freeze" /></path><path d="M 44.0 1.8 L 44.0 -39.0 " transform="translate(0.0 38.0)" stroke-dasharray="40.8" stroke-dashoffset="40.8"><animate attributeName="stroke-dashoffset" from="40.8" to="0" dur="1.224s" begin="4.562790821138646s" fill="freeze" /></path><path d="M 43.9 -28.1 L 39.2 -28.1 C 36.6 -28.1 35.6 -29.1 35.6 -31.3 L 35.6 -39.4" transform="translate(0.0 38.0)" stroke-dasharray="18.38570001787161" stroke-dashoffset="18.38570001787161"><animate attributeName="stroke-dashoffset" from="18.38570001787161" to="0" dur="0.5515710005361483s" begin="5.786790821138646s" fill="freeze" /></path></g></svg>