<?xml version='1.0' encoding='utf-8'?>
<svg viewBox="0.0 -6.0 50.0 50.0" version="1.1" xmlns="http://www.w3.org/2000/svg"><rect x="-1000" y="-1000" width="2000" height="2000" stroke="white" fill="white" /><g style="fill:none;stroke:#000000;stroke-width:1"><path d="M 19.5 -20.2 C 27.6 -22.9 36.5 -28.8 40.5 -34.5 C 42.1 -36.6 41.1 -38.3 38.4 -38.3 L 19.9 -38.3 " transform="translate(0.0 38.0)" stroke-dasharray="50.190187415734506" stroke-dashoffset="50.190187415734506"><animate attributeName="stroke-dashoffset" from="50.190187415734506" to="0" dur="1.505705622472035s" begin="0s; anim_end.end" fill="freeze" id="anim0" /></path><path d="M 3.8 -13.4 C 8.0 -14.7 12.2 -16.1 15.2 -17.6 " transform="translate(0.0 38.0)" stroke-dasharray="12.161261997770946" stroke-dashoffset="12.161261997770946"><animate attributeName="stroke-dashoffset" from="12.161261997770946" to="0" dur="0.3648378599331284s" begin="anim0.end" fill="freeze" id="anim1" /></path><path d="M 4.5 1.6 C 5.5 1.8 6.3 1.9 7.0 1.9 C 9.1 1.9 10.2 1.0 10.2 -1.5 L 10.2 -40.2 " transform="translate(0.0 38.0)" stroke-dasharray="46.62695723555261" stroke-dashoffset="46.62695723555261"><animate attributeName="stroke-dashoffset" from="46.62695723555261" to="0" dur="1.3988087170665782s" begin="anim1.end" fill="freeze" id="anim2" /></path><path d="M 18.5 0.8 C 26.0 0.5 35.2 -0.5 42.9 -1.6 " transform="translate(0.0 38.0)" stroke-dasharray="24.527329054817024" stroke-dashoffset="24.527329054817024"><animate attributeName="stroke-dashoffset" from="24.527329054817024" to="0" dur="0.7358198716445107s" begin="anim2.end" fill="freeze" id="anim3" /></path><path d="M 15.0 -29.4 L 3.9 -29.4 " transform="translate(0.0 38.0)" stroke-dasharray="11.1" stroke-dashoffset="11.1"><animate attributeName="stroke-dashoffset" from="11.1" to="0" dur="0.33299999999999996s" begin="anim3.end" fill="freeze" id="anim4" /></path><path d="M 31.9 -0.8 L 31.9 -19.9 " transform="translate(0.0 38.0)" stroke-dasharray="19.099999999999998" stroke-dashoffset="19.099999999999998"><animate attributeName="stroke-dashoffset" from="19.099999999999998" to="0" dur="0.573s" begin="anim4.end" fill="freeze" id="anim5" /></path><path d="M 25.4 -8.1 L 38.7 -8.1 C 41.3 -8.1 42.2 -8.8 42.2 -10.7 L 42.2 -13.7 C 42.2 -15.6 41.3 -16.3 38.8 -16.3 L 25.5 -16.3 C 22.9 -16.3 21.9 -15.6 21.9 -13.7 L 21.9 -10.7 C 21.9 -8.8 22.9 -8.1 25.4 -8.1 Z " transform="translate(0.0 38.0)" stroke-dasharray="52.8548357838566" stroke-dashoffset="52.8548357838566"><animate attributeName="stroke-dashoffset" from="52.8548357838566" to="0" dur="1.585645073515698s" begin="anim5.end" fill="freeze" id="anim6" /></path><path d="M 45.2 1.2 C 43.9 -0.8 42.2 -2.9 40.7 -4.3 " transform="translate(0.0 38.0)" stroke-dasharray="7.121923661212974" stroke-dashoffset="7.121923661212974"><animate attributeName="stroke-dashoffset" from="7.121923661212974" to="0" dur="0.2136577098363892s" begin="anim6.end" fill="freeze" id="anim7" /></path><path d="M 20.2 -26.9 C 21.0 -28.2 21.7 -29.9 22.1 -31.3 " transform="translate(0.0 38.0)" stroke-dasharray="4.806066109980562" stroke-dashoffset="4.806066109980562"><animate attributeName="stroke-dashoffset" from="4.806066109980562" to="0" dur="0.14418198329941687s" begin="anim7.end" fill="freeze" id="anim8" /></path><path d="M 45.9 -21.2 C 36.7 -23.4 27.9 -29.4 23.6 -37.7 " transform="translate(0.0 38.0)" stroke-dasharray="28.57153791873209" stroke-dashoffset="28.57153791873209"><animate attributeName="stroke-dashoffset" from="28.57153791873209" to="0" dur="0.8571461375619627s" begin="anim8.end" fill="freeze" id="anim9" /></path><path d="M 33.5 -32.9 C 33.0 -33.6 32.3 -34.4 31.6 -35.0" transform="translate(0.0 38.0)" stroke-dasharray="2.83826872105065" stroke-dashoffset="2.83826872105065"><animate attributeName="stroke-dashoffset" from="2.83826872105065" to="0" dur="0.0851480616315195s" begin="anim9.end" fill="freeze" id="anim_end" /></path></g></svg>