<?xml version='1.0' encoding='utf-8'?>
<svg viewBox="0.0 -6.0 50.0 50.0" version="1.1" xmlns="http://www.w3.org/2000/svg"><rect x="-1000" y="-1000" width="2000" height="2000" stroke="white" fill="white" /><g style="fill:none;stroke:#000000;stroke-width:1"><path d="M 18.0 -12.5 L 19.6 -21.7 C 19.9 -23.4 20.8 -24.1 23.1 -24.1 L 40.7 -24.1 C 43.0 -24.1 43.9 -25.1 43.9 -26.5 L 43.9 -30.5 C 43.9 -31.9 43.0 -32.9 40.7 -32.9 L 18.1 -32.9 " transform="translate(0.0 38.0)" stroke-dasharray="67.37975018917706" stroke-dashoffset="67.37975018917706"><animate attributeName="stroke-dashoffset" from="67.37975018917706" to="0" dur="2.021392505675312s" begin="0s" fill="freeze" /></path><path d="M 3.6 -13.4 C 7.0 -14.4 11.3 -15.9 14.2 -17.4 " transform="translate(0.0 38.0)" stroke-dasharray="11.344316585826775" stroke-dashoffset="11.344316585826775"><animate attributeName="stroke-dashoffset" from="11.344316585826775" to="0" dur="0.34032949757480324s" begin="2.021392505675312s" fill="freeze" /></path><path d="M 4.3 1.5 C 5.2 1.7 6.0 1.8 6.7 1.8 C 8.7 1.8 9.8 0.9 9.8 -1.6 L 9.8 -40.2 " transform="translate(0.0 38.0)" stroke-dasharray="46.33923339149255" stroke-dashoffset="46.33923339149255"><animate attributeName="stroke-dashoffset" from="46.33923339149255" to="0" dur="1.3901770017447763s" begin="2.361722003250115s" fill="freeze" /></path><path d="M 14.9 -29.4 L 3.8 -29.4 " transform="translate(0.0 38.0)" stroke-dasharray="11.100000000000001" stroke-dashoffset="11.100000000000001"><animate attributeName="stroke-dashoffset" from="11.100000000000001" to="0" dur="0.333s" begin="3.7518990049948915s" fill="freeze" /></path><path d="M 16.4 1.6 C 23.1 -3.1 27.4 -9.9 27.4 -23.9 L 27.4 -40.1 " transform="translate(0.0 38.0)" stroke-dasharray="45.23643739622109" stroke-dashoffset="45.23643739622109"><animate attributeName="stroke-dashoffset" from="45.23643739622109" to="0" dur="1.3570931218866327s" begin="4.084899004994892s" fill="freeze" /></path><path d="M 39.6 -3.9 C 40.6 -3.8 41.0 -3.7 41.7 -3.7 C 43.5 -3.7 44.5 -4.5 45.0 -6.8 C 45.4 -8.3 45.5 -10.2 45.5 -12.1 C 45.5 -13.8 44.6 -14.8 42.5 -14.8 L 18.6 -14.8 " transform="translate(0.0 38.0)" stroke-dasharray="40.99573915069856" stroke-dashoffset="40.99573915069856"><animate attributeName="stroke-dashoffset" from="40.99573915069856" to="0" dur="1.2298721745209569s" begin="5.441992126881525s" fill="freeze" /></path><path d="M 35.5 2.2 L 35.5 -40.2" transform="translate(0.0 38.0)" stroke-dasharray="42.400000000000006" stroke-dashoffset="42.400000000000006"><animate attributeName="stroke-dashoffset" from="42.400000000000006" to="0" dur="1.272s" begin="6.671864301402482s" fill="freeze" /></path></g></svg>