<?xml version='1.0' encoding='utf-8'?>
<svg viewBox="0.0 -6.0 50.0 50.0" version="1.1" xmlns="http://www.w3.org/2000/svg"><rect x="-1000" y="-1000" width="2000" height="2000" stroke="white" fill="white" /><g style="fill:none;stroke:#000000;stroke-width:1"><path d="M 44.2 -17.1 L 44.2 -20.0 C 44.2 -21.4 43.6 -22.3 41.2 -22.3 L 8.8 -22.3 C 6.3 -22.3 5.7 -21.4 5.7 -20.0 L 5.7 -16.9 " transform="translate(0.0 38.0)" stroke-dasharray="47.22861104907997" stroke-dashoffset="47.22861104907997"><animate attributeName="stroke-dashoffset" from="47.22861104907997" to="0" dur="1.416858331472399s" begin="0s" fill="freeze" /></path><path d="M 15.3 1.8 C 16.8 -0.6 17.9 -2.7 19.1 -5.0 " transform="translate(0.0 38.0)" stroke-dasharray="7.791983464043451" stroke-dashoffset="7.791983464043451"><animate attributeName="stroke-dashoffset" from="7.791983464043451" to="0" dur="0.2337595039213035s" begin="1.416858331472399s" fill="freeze" /></path><path d="M 7.7 1.9 C 17.3 1.9 29.1 1.3 37.7 0.3 " transform="translate(0.0 38.0)" stroke-dasharray="30.057018951011486" stroke-dashoffset="30.057018951011486"><animate attributeName="stroke-dashoffset" from="30.057018951011486" to="0" dur="0.9017105685303446s" begin="1.6506178353937027s" fill="freeze" /></path><path d="M 19.2 -14.0 L 11.3 -14.0 " transform="translate(0.0 38.0)" stroke-dasharray="7.899999999999999" stroke-dashoffset="7.899999999999999"><animate attributeName="stroke-dashoffset" from="7.899999999999999" to="0" dur="0.23699999999999996s" begin="2.5523284039240473s" fill="freeze" /></path><path d="M 45.4 -4.7 L 4.7 -4.7 " transform="translate(0.0 38.0)" stroke-dasharray="40.699999999999996" stroke-dashoffset="40.699999999999996"><animate attributeName="stroke-dashoffset" from="40.699999999999996" to="0" dur="1.2209999999999999s" begin="2.7893284039240474s" fill="freeze" /></path><path d="M 19.2 -18.1 L 11.3 -18.1 " transform="translate(0.0 38.0)" stroke-dasharray="7.899999999999999" stroke-dashoffset="7.899999999999999"><animate attributeName="stroke-dashoffset" from="7.899999999999999" to="0" dur="0.23699999999999996s" begin="4.010328403924047s" fill="freeze" /></path><path d="M 41.0 -9.5 L 9.5 -9.5 " transform="translate(0.0 38.0)" stroke-dasharray="31.5" stroke-dashoffset="31.5"><animate attributeName="stroke-dashoffset" from="31.5" to="0" dur="0.945s" begin="4.2473284039240475s" fill="freeze" /></path><path d="M 39.9 2.5 C 37.7 0.4 35.1 -1.4 32.6 -2.8 " transform="translate(0.0 38.0)" stroke-dasharray="9.04428822387133" stroke-dashoffset="9.04428822387133"><animate attributeName="stroke-dashoffset" from="9.04428822387133" to="0" dur="0.2713286467161399s" begin="5.192328403924048s" fill="freeze" /></path><path d="M 24.9 -13.3 L 24.9 -26.6 " transform="translate(0.0 38.0)" stroke-dasharray="13.3" stroke-dashoffset="13.3"><animate attributeName="stroke-dashoffset" from="13.3" to="0" dur="0.399s" begin="5.463657050640188s" fill="freeze" /></path><path d="M 38.2 -14.0 L 30.4 -14.0 " transform="translate(0.0 38.0)" stroke-dasharray="7.800000000000004" stroke-dashoffset="7.800000000000004"><animate attributeName="stroke-dashoffset" from="7.800000000000004" to="0" dur="0.23400000000000012s" begin="5.862657050640188s" fill="freeze" /></path><path d="M 41.4 -26.7 L 9.2 -26.7 " transform="translate(0.0 38.0)" stroke-dasharray="32.2" stroke-dashoffset="32.2"><animate attributeName="stroke-dashoffset" from="32.2" to="0" dur="0.9660000000000001s" begin="6.096657050640188s" fill="freeze" /></path><path d="M 38.2 -18.1 L 30.4 -18.1 " transform="translate(0.0 38.0)" stroke-dasharray="7.800000000000004" stroke-dashoffset="7.800000000000004"><animate attributeName="stroke-dashoffset" from="7.800000000000004" to="0" dur="0.23400000000000012s" begin="7.062657050640188s" fill="freeze" /></path><path d="M 15.8 -30.9 L 34.1 -30.9 C 36.8 -30.9 37.5 -31.6 37.5 -33.1 L 37.5 -37.7 C 37.5 -39.3 36.8 -40.0 34.1 -40.0 L 15.8 -40.0 C 13.2 -40.0 12.4 -39.3 12.4 -37.7 L 12.4 -33.1 C 12.4 -31.6 13.2 -30.9 15.8 -30.9 Z " transform="translate(0.0 38.0)" stroke-dasharray="64.65607884952054" stroke-dashoffset="64.65607884952054"><animate attributeName="stroke-dashoffset" from="64.65607884952054" to="0" dur="1.9396823654856161s" begin="7.296657050640188s" fill="freeze" /></path><path d="M 38.0 -35.5 L 12.9 -35.5" transform="translate(0.0 38.0)" stroke-dasharray="25.1" stroke-dashoffset="25.1"><animate attributeName="stroke-dashoffset" from="25.1" to="0" dur="0.753s" begin="9.236339416125803s" fill="freeze" /></path></g></svg>