<?xml version='1.0' encoding='utf-8'?>
<svg viewBox="0.0 -6.0 50.0 50.0" version="1.1" xmlns="http://www.w3.org/2000/svg"><rect x="-1000" y="-1000" width="2000" height="2000" stroke="white" fill="white" /><g style="fill:none;stroke:#000000;stroke-width:1"><path d="M 36.1 -0.3 C 37.6 -8.2 38.8 -15.9 39.4 -21.9 C 39.6 -24.9 38.9 -26.1 35.3 -26.1 L 24.9 -26.1 " transform="translate(0.0 38.0)" stroke-dasharray="39.33998881064447" stroke-dashoffset="39.33998881064447"><animate attributeName="stroke-dashoffset" from="39.33998881064447" to="0" dur="1.180199664319334s" begin="0s; anim_end.end" fill="freeze" id="anim0" /></path><path d="M 5.9 0.3 C 8.2 -3.1 10.8 -8.4 12.2 -12.8 " transform="translate(0.0 38.0)" stroke-dasharray="14.577943560051143" stroke-dashoffset="14.577943560051143"><animate attributeName="stroke-dashoffset" from="14.577943560051143" to="0" dur="0.43733830680153424s" begin="anim0.end" fill="freeze" id="anim1" /></path><path d="M 46.6 -0.1 L 15.0 -0.1 " transform="translate(0.0 38.0)" stroke-dasharray="31.6" stroke-dashoffset="31.6"><animate attributeName="stroke-dashoffset" from="31.6" to="0" dur="0.948s" begin="anim1.end" fill="freeze" id="anim2" /></path><path d="M 8.9 -23.1 C 7.7 -24.6 5.7 -26.1 4.5 -26.9 " transform="translate(0.0 38.0)" stroke-dasharray="5.8336786267192275" stroke-dashoffset="5.8336786267192275"><animate attributeName="stroke-dashoffset" from="5.8336786267192275" to="0" dur="0.1750103588015768s" begin="anim2.end" fill="freeze" id="anim3" /></path><path d="M 37.5 -12.8 L 21.9 -12.8 " transform="translate(0.0 38.0)" stroke-dasharray="15.600000000000001" stroke-dashoffset="15.600000000000001"><animate attributeName="stroke-dashoffset" from="15.600000000000001" to="0" dur="0.468s" begin="anim3.end" fill="freeze" id="anim4" /></path><path d="M 20.7 -9.9 C 23.1 -17.8 25.2 -27.9 26.6 -36.2 " transform="translate(0.0 38.0)" stroke-dasharray="26.970123321189188" stroke-dashoffset="26.970123321189188"><animate attributeName="stroke-dashoffset" from="26.970123321189188" to="0" dur="0.8091036996356756s" begin="anim4.end" fill="freeze" id="anim5" /></path><path d="M 12.4 -34.9 C 11.2 -36.3 9.5 -37.9 8.2 -38.8 " transform="translate(0.0 38.0)" stroke-dasharray="5.744494932853801" stroke-dashoffset="5.744494932853801"><animate attributeName="stroke-dashoffset" from="5.744494932853801" to="0" dur="0.17233484798561402s" begin="anim5.end" fill="freeze" id="anim6" /></path><path d="M 45.7 -36.8 L 17.9 -36.8" transform="translate(0.0 38.0)" stroke-dasharray="27.800000000000004" stroke-dashoffset="27.800000000000004"><animate attributeName="stroke-dashoffset" from="27.800000000000004" to="0" dur="0.8340000000000001s" begin="anim6.end" fill="freeze" id="anim_end" /></path></g></svg>