<?xml version='1.0' encoding='utf-8'?>
<svg viewBox="0.0 -6.0 50.0 50.0" version="1.1" xmlns="http://www.w3.org/2000/svg"><rect x="-1000" y="-1000" width="2000" height="2000" stroke="white" fill="white" /><g style="fill:none;stroke:#000000;stroke-width:1"><path d="M 15.8 0.1 C 19.3 -6.0 21.2 -14.4 21.2 -26.6 L 21.2 -35.5 C 21.2 -37.5 22.1 -38.5 25.0 -38.5 L 39.9 -38.5 C 42.8 -38.5 43.6 -37.8 43.6 -35.9 L 43.6 -33.9 C 43.6 -31.9 42.8 -31.1 39.9 -31.1 L 21.6 -31.1 " transform="translate(0.0 38.0)" stroke-dasharray="87.96428379335939" stroke-dashoffset="87.96428379335939"><animate attributeName="stroke-dashoffset" from="87.96428379335939" to="0" dur="2.6389285138007814s" begin="0s; 15s; 30s; 45s" fill="freeze" id="anim0" /></path><path d="M 3.8 -13.4 C 8.2 -14.7 12.4 -16.1 15.5 -17.6 " transform="translate(0.0 38.0)" stroke-dasharray="12.443607440457034" stroke-dashoffset="12.443607440457034"><animate attributeName="stroke-dashoffset" from="12.443607440457034" to="0" dur="0.37330822321371104s" begin="anim0.end" fill="freeze" id="anim1" /></path><path d="M 4.7 1.4 C 5.6 1.6 6.5 1.6 7.1 1.6 C 9.3 1.6 10.3 0.8 10.3 -1.8 L 10.3 -40.1 " transform="translate(0.0 38.0)" stroke-dasharray="46.167940152287734" stroke-dashoffset="46.167940152287734"><animate attributeName="stroke-dashoffset" from="46.167940152287734" to="0" dur="1.385038204568632s" begin="anim1.end" fill="freeze" id="anim2" /></path><path d="M 46.2 0.7 L 22.1 0.7 " transform="translate(0.0 38.0)" stroke-dasharray="24.1" stroke-dashoffset="24.1"><animate attributeName="stroke-dashoffset" from="24.1" to="0" dur="0.723s" begin="anim2.end" fill="freeze" id="anim3" /></path><path d="M 15.3 -29.4 L 3.9 -29.4 " transform="translate(0.0 38.0)" stroke-dasharray="11.4" stroke-dashoffset="11.4"><animate attributeName="stroke-dashoffset" from="11.4" to="0" dur="0.34199999999999997s" begin="anim3.end" fill="freeze" id="anim4" /></path><path d="M 34.2 1.2 L 34.2 -10.7 " transform="translate(0.0 38.0)" stroke-dasharray="11.899999999999999" stroke-dashoffset="11.899999999999999"><animate attributeName="stroke-dashoffset" from="11.899999999999999" to="0" dur="0.35699999999999993s" begin="anim4.end" fill="freeze" id="anim5" /></path><path d="M 43.1 -6.8 L 26.1 -6.8 " transform="translate(0.0 38.0)" stroke-dasharray="17.0" stroke-dashoffset="17.0"><animate attributeName="stroke-dashoffset" from="17.0" to="0" dur="0.51s" begin="anim5.end" fill="freeze" id="anim6" /></path><path d="M 25.9 -14.9 C 30.8 -15.2 35.8 -15.7 40.8 -16.6 " transform="translate(0.0 38.0)" stroke-dasharray="15.005283379778117" stroke-dashoffset="15.005283379778117"><animate attributeName="stroke-dashoffset" from="15.005283379778117" to="0" dur="0.4501585013933435s" begin="anim6.end" fill="freeze" id="anim7" /></path><path d="M 28.9 -15.6 C 30.2 -18.1 31.2 -20.9 32.2 -23.7 " transform="translate(0.0 38.0)" stroke-dasharray="8.753493286341502" stroke-dashoffset="8.753493286341502"><animate attributeName="stroke-dashoffset" from="8.753493286341502" to="0" dur="0.26260479859024505s" begin="anim7.end" fill="freeze" id="anim8" /></path><path d="M 43.1 -14.2 C 42.0 -15.9 40.0 -18.4 38.5 -19.9 " transform="translate(0.0 38.0)" stroke-dasharray="7.33506744351439" stroke-dashoffset="7.33506744351439"><animate attributeName="stroke-dashoffset" from="7.33506744351439" to="0" dur="0.2200520233054317s" begin="anim8.end" fill="freeze" id="anim9" /></path><path d="M 45.3 -24.4 L 21.6 -24.4" transform="translate(0.0 38.0)" stroke-dasharray="23.699999999999996" stroke-dashoffset="23.699999999999996"><animate attributeName="stroke-dashoffset" from="23.699999999999996" to="0" dur="0.7109999999999999s" begin="anim9.end" fill="freeze" id="anim_end" /></path></g></svg>