<?xml version='1.0' encoding='utf-8'?>
<svg viewBox="0.0 -6.0 50.0 50.0" version="1.1" xmlns="http://www.w3.org/2000/svg"><rect x="-1000" y="-1000" width="2000" height="2000" stroke="white" fill="white" /><g style="fill:none;stroke:#000000;stroke-width:1"><path d="M 23.6 2.1 C 31.8 -1.1 38.8 -7.5 41.9 -15.0 C 42.8 -17.1 41.8 -18.3 39.5 -18.3 L 25.9 -18.3 " transform="translate(0.0 38.0)" stroke-dasharray="44.50221911996017" stroke-dashoffset="44.50221911996017"><animate attributeName="stroke-dashoffset" from="44.50221911996017" to="0" dur="1.3350665735988052s" begin="0s" fill="freeze" /></path><path d="M 11.9 0.9 C 12.9 1.2 13.9 1.4 14.9 1.4 C 16.9 1.4 18.0 0.6 18.8 -1.8 C 19.4 -4.0 19.7 -6.3 19.7 -8.9 C 19.8 -10.8 19.0 -11.7 16.4 -11.7 L 7.2 -11.7 " transform="translate(0.0 38.0)" stroke-dasharray="30.030533813430093" stroke-dashoffset="30.030533813430093"><animate attributeName="stroke-dashoffset" from="30.030533813430093" to="0" dur="0.9009160144029028s" begin="1.3350665735988052s" fill="freeze" /></path><path d="M 3.0 0.8 C 6.0 -5.2 7.4 -12.5 7.4 -23.5 L 7.4 -36.7 " transform="translate(0.0 38.0)" stroke-dasharray="38.12144081246772" stroke-dashoffset="38.12144081246772"><animate attributeName="stroke-dashoffset" from="38.12144081246772" to="0" dur="1.1436432243740315s" begin="2.235982588001708s" fill="freeze" /></path><path d="M 19.2 -24.8 L 8.1 -24.8 " transform="translate(0.0 38.0)" stroke-dasharray="11.1" stroke-dashoffset="11.1"><animate attributeName="stroke-dashoffset" from="11.1" to="0" dur="0.33299999999999996s" begin="3.37962581237574s" fill="freeze" /></path><path d="M 7.7 -18.4 L 16.9 -18.4 C 19.2 -18.4 20.2 -19.1 20.2 -20.9 L 20.2 -28.5 C 20.2 -30.4 19.2 -30.9 16.9 -30.9 L 7.7 -30.9 " transform="translate(0.0 38.0)" stroke-dasharray="35.53706772395324" stroke-dashoffset="35.53706772395324"><animate attributeName="stroke-dashoffset" from="35.53706772395324" to="0" dur="1.0661120317185973s" begin="3.71262581237574s" fill="freeze" /></path><path d="M 45.5 1.1 C 38.0 -2.4 31.9 -8.8 29.4 -17.9 " transform="translate(0.0 38.0)" stroke-dasharray="25.72394046411814" stroke-dashoffset="25.72394046411814"><animate attributeName="stroke-dashoffset" from="25.72394046411814" to="0" dur="0.7717182139235442s" begin="4.778737844094337s" fill="freeze" /></path><path d="M 8.1 -36.1 C 12.1 -36.8 16.0 -37.8 19.9 -39.1 " transform="translate(0.0 38.0)" stroke-dasharray="12.186676001865882" stroke-dashoffset="12.186676001865882"><animate attributeName="stroke-dashoffset" from="12.186676001865882" to="0" dur="0.36560028005597645s" begin="5.550456058017882s" fill="freeze" /></path><path d="M 25.8 -23.0 C 28.6 -25.6 30.1 -29.1 30.1 -33.5 L 30.1 -35.2 C 30.1 -37.0 30.7 -37.9 33.0 -37.9 L 36.1 -37.9 C 38.5 -37.9 39.0 -37.0 39.0 -35.2 L 39.0 -27.2 C 39.0 -25.6 39.6 -24.9 42.4 -24.9 C 45.0 -24.9 46.0 -25.9 46.3 -29.5" transform="translate(0.0 38.0)" stroke-dasharray="45.51283694648885" stroke-dashoffset="45.51283694648885"><animate attributeName="stroke-dashoffset" from="45.51283694648885" to="0" dur="1.3653851083946653s" begin="5.916056338073858s" fill="freeze" /></path></g></svg>