<?xml version='1.0' encoding='utf-8'?>
<svg viewBox="0.0 -6.0 50.0 50.0" version="1.1" xmlns="http://www.w3.org/2000/svg"><rect x="-1000" y="-1000" width="2000" height="2000" stroke="white" fill="white" /><g style="fill:none;stroke:#000000;stroke-width:1"><path d="M 4.1 -19.0 C 10.9 -22.1 18.2 -27.4 23.1 -33.4 " transform="translate(0.0 38.0)" stroke-dasharray="24.03258666907799" stroke-dashoffset="24.03258666907799"><animate attributeName="stroke-dashoffset" from="24.03258666907799" to="0" dur="0.7209776000723397s" begin="0s; 15s; 30s; 45s" fill="freeze" id="anim0" /></path><path d="M 18.9 2.2 C 19.8 2.4 20.8 2.5 21.8 2.5 C 24.1 2.5 25.1 1.7 25.1 -0.7 L 25.1 -12.7 " transform="translate(0.0 38.0)" stroke-dasharray="20.287429077348442" stroke-dashoffset="20.287429077348442"><animate attributeName="stroke-dashoffset" from="20.287429077348442" to="0" dur="0.6086228723204532s" begin="anim0.end" fill="freeze" id="anim1" /></path><path d="M 45.4 -8.6 L 4.7 -8.6 " transform="translate(0.0 38.0)" stroke-dasharray="40.699999999999996" stroke-dashoffset="40.699999999999996"><animate attributeName="stroke-dashoffset" from="40.699999999999996" to="0" dur="1.2209999999999999s" begin="anim1.end" fill="freeze" id="anim2" /></path><path d="M 25.7 -12.0 C 28.4 -13.0 31.1 -14.3 33.4 -15.9 C 35.1 -17.1 34.5 -18.9 32.1 -18.9 L 14.1 -18.9 " transform="translate(0.0 38.0)" stroke-dasharray="31.537103397069384" stroke-dashoffset="31.537103397069384"><animate attributeName="stroke-dashoffset" from="31.537103397069384" to="0" dur="0.9461131019120814s" begin="anim2.end" fill="freeze" id="anim3" /></path><path d="M 24.9 -23.4 L 24.9 -40.9 " transform="translate(0.0 38.0)" stroke-dasharray="17.5" stroke-dashoffset="17.5"><animate attributeName="stroke-dashoffset" from="17.5" to="0" dur="0.525s" begin="anim3.end" fill="freeze" id="anim4" /></path><path d="M 44.2 -34.5 L 6.3 -34.5 " transform="translate(0.0 38.0)" stroke-dasharray="37.900000000000006" stroke-dashoffset="37.900000000000006"><animate attributeName="stroke-dashoffset" from="37.900000000000006" to="0" dur="1.1370000000000002s" begin="anim4.end" fill="freeze" id="anim5" /></path><path d="M 45.9 -19.7 C 38.6 -22.5 30.9 -27.9 26.3 -33.4" transform="translate(0.0 38.0)" stroke-dasharray="24.14173923317146" stroke-dashoffset="24.14173923317146"><animate attributeName="stroke-dashoffset" from="24.14173923317146" to="0" dur="0.7242521769951438s" begin="anim5.end" fill="freeze" id="anim_end" /></path></g></svg>