<?xml version='1.0' encoding='utf-8'?>
<svg viewBox="0.0 -6.0 50.0 50.0" version="1.1" xmlns="http://www.w3.org/2000/svg"><rect x="-1000" y="-1000" width="2000" height="2000" stroke="white" fill="white" /><g style="fill:none;stroke:#000000;stroke-width:1"><path d="M 9.8 2.4 L 9.8 -40.4 " transform="translate(0.0 38.0)" stroke-dasharray="42.8" stroke-dashoffset="42.8"><animate attributeName="stroke-dashoffset" from="42.8" to="0" dur="1.2839999999999998s" begin="0s; 15s; 30s; 45s" fill="freeze" id="anim0" /></path><path d="M 3.3 -22.3 C 4.0 -24.0 4.6 -26.9 4.9 -29.4 " transform="translate(0.0 38.0)" stroke-dasharray="7.295858684700026" stroke-dashoffset="7.295858684700026"><animate attributeName="stroke-dashoffset" from="7.295858684700026" to="0" dur="0.21887576054100077s" begin="anim0.end" fill="freeze" id="anim1" /></path><path d="M 31.0 2.4 L 31.0 -15.3 " transform="translate(0.0 38.0)" stroke-dasharray="17.7" stroke-dashoffset="17.7"><animate attributeName="stroke-dashoffset" from="17.7" to="0" dur="0.5309999999999999s" begin="anim1.end" fill="freeze" id="anim2" /></path><path d="M 46.5 -10.4 L 16.1 -10.4 " transform="translate(0.0 38.0)" stroke-dasharray="30.4" stroke-dashoffset="30.4"><animate attributeName="stroke-dashoffset" from="30.4" to="0" dur="0.9119999999999999s" begin="anim2.end" fill="freeze" id="anim3" /></path><path d="M 15.9 -26.0 C 15.5 -27.4 14.8 -29.2 14.1 -30.3 " transform="translate(0.0 38.0)" stroke-dasharray="4.674792069270356" stroke-dashoffset="4.674792069270356"><animate attributeName="stroke-dashoffset" from="4.674792069270356" to="0" dur="0.14024376207811068s" begin="anim3.end" fill="freeze" id="anim4" /></path><path d="M 18.4 -18.2 C 21.1 -21.2 23.8 -25.7 25.4 -29.6 " transform="translate(0.0 38.0)" stroke-dasharray="13.435168549231987" stroke-dashoffset="13.435168549231987"><animate attributeName="stroke-dashoffset" from="13.435168549231987" to="0" dur="0.4030550564769596s" begin="anim4.end" fill="freeze" id="anim5" /></path><path d="M 27.9 -20.9 C 26.6 -22.1 25.1 -23.3 23.5 -24.1 " transform="translate(0.0 38.0)" stroke-dasharray="5.4582843332478" stroke-dashoffset="5.4582843332478"><animate attributeName="stroke-dashoffset" from="5.4582843332478" to="0" dur="0.163748529997434s" begin="anim5.end" fill="freeze" id="anim6" /></path><path d="M 32.8 -19.3 C 35.0 -21.9 37.4 -25.9 38.9 -29.6 " transform="translate(0.0 38.0)" stroke-dasharray="12.014641200152695" stroke-dashoffset="12.014641200152695"><animate attributeName="stroke-dashoffset" from="12.014641200152695" to="0" dur="0.36043923600458083s" begin="anim6.end" fill="freeze" id="anim7" /></path><path d="M 43.6 -18.5 C 41.9 -20.2 39.2 -22.4 36.7 -23.8 " transform="translate(0.0 38.0)" stroke-dasharray="8.724303433345945" stroke-dashoffset="8.724303433345945"><animate attributeName="stroke-dashoffset" from="8.724303433345945" to="0" dur="0.2617291030003783s" begin="anim7.end" fill="freeze" id="anim8" /></path><path d="M 45.1 -34.2 L 18.4 -34.2 " transform="translate(0.0 38.0)" stroke-dasharray="26.700000000000003" stroke-dashoffset="26.700000000000003"><animate attributeName="stroke-dashoffset" from="26.700000000000003" to="0" dur="0.801s" begin="anim8.end" fill="freeze" id="anim9" /></path><path d="M 31.0 -35.1 L 31.0 -40.5" transform="translate(0.0 38.0)" stroke-dasharray="5.399999999999999" stroke-dashoffset="5.399999999999999"><animate attributeName="stroke-dashoffset" from="5.399999999999999" to="0" dur="0.16199999999999995s" begin="anim9.end" fill="freeze" id="anim_end" /></path></g></svg>