<?xml version='1.0' encoding='utf-8'?>
<svg viewBox="0.0 -6.0 50.0 50.0" version="1.1" xmlns="http://www.w3.org/2000/svg"><rect x="-1000" y="-1000" width="2000" height="2000" stroke="white" fill="white" /><g style="fill:none;stroke:#000000;stroke-width:1"><path d="M 4.1 0.3 C 7.4 -5.2 9.2 -13.6 9.2 -24.4 L 9.2 -28.9 C 9.2 -30.9 10.0 -31.8 12.9 -31.8 L 38.4 -31.8 C 40.5 -31.8 41.2 -30.9 41.2 -29.6 L 41.2 -27.6 C 41.2 -26.1 40.5 -25.3 38.4 -25.3 L 9.0 -25.3 " transform="translate(0.0 38.0)" stroke-dasharray="100.6590344933979" stroke-dashoffset="100.6590344933979"><animate attributeName="stroke-dashoffset" from="100.6590344933979" to="0" dur="3.019771034801937s" begin="0s; anim_end.end" fill="freeze" id="anim0" /></path><path d="M 12.9 -4.2 C 16.6 -4.7 20.4 -5.6 23.9 -6.7 " transform="translate(0.0 38.0)" stroke-dasharray="11.293792765554919" stroke-dashoffset="11.293792765554919"><animate attributeName="stroke-dashoffset" from="11.293792765554919" to="0" dur="0.33881378296664755s" begin="anim0.end" fill="freeze" id="anim1" /></path><path d="M 16.1 2.6 C 22.1 -0.1 25.1 -4.3 25.1 -11.8 L 25.1 -21.1 " transform="translate(0.0 38.0)" stroke-dasharray="27.476101364199845" stroke-dashoffset="27.476101364199845"><animate attributeName="stroke-dashoffset" from="27.476101364199845" to="0" dur="0.8242830409259954s" begin="anim1.end" fill="freeze" id="anim2" /></path><path d="M 24.1 -11.7 L 15.1 -11.7 " transform="translate(0.0 38.0)" stroke-dasharray="9.000000000000002" stroke-dashoffset="9.000000000000002"><animate attributeName="stroke-dashoffset" from="9.000000000000002" to="0" dur="0.27s" begin="anim2.end" fill="freeze" id="anim3" /></path><path d="M 24.5 -17.5 L 14.3 -17.5 " transform="translate(0.0 38.0)" stroke-dasharray="10.2" stroke-dashoffset="10.2"><animate attributeName="stroke-dashoffset" from="10.2" to="0" dur="0.306s" begin="anim3.end" fill="freeze" id="anim4" /></path><path d="M 33.1 2.4 L 33.1 -21.1 " transform="translate(0.0 38.0)" stroke-dasharray="23.5" stroke-dashoffset="23.5"><animate attributeName="stroke-dashoffset" from="23.5" to="0" dur="0.705s" begin="anim4.end" fill="freeze" id="anim5" /></path><path d="M 45.5 -5.1 L 33.6 -5.1 " transform="translate(0.0 38.0)" stroke-dasharray="11.899999999999999" stroke-dashoffset="11.899999999999999"><animate attributeName="stroke-dashoffset" from="11.899999999999999" to="0" dur="0.35699999999999993s" begin="anim5.end" fill="freeze" id="anim6" /></path><path d="M 43.5 -11.3 L 33.2 -11.3 " transform="translate(0.0 38.0)" stroke-dasharray="10.299999999999997" stroke-dashoffset="10.299999999999997"><animate attributeName="stroke-dashoffset" from="10.299999999999997" to="0" dur="0.3089999999999999s" begin="anim6.end" fill="freeze" id="anim7" /></path><path d="M 44.5 -17.5 L 33.6 -17.5 " transform="translate(0.0 38.0)" stroke-dasharray="10.899999999999999" stroke-dashoffset="10.899999999999999"><animate attributeName="stroke-dashoffset" from="10.899999999999999" to="0" dur="0.32699999999999996s" begin="anim7.end" fill="freeze" id="anim8" /></path><path d="M 44.5 -37.9 L 5.7 -37.9" transform="translate(0.0 38.0)" stroke-dasharray="38.8" stroke-dashoffset="38.8"><animate attributeName="stroke-dashoffset" from="38.8" to="0" dur="1.164s" begin="anim8.end" fill="freeze" id="anim_end" /></path></g></svg>