<?xml version='1.0' encoding='utf-8'?>
<svg viewBox="0.0 -6.0 50.0 50.0" version="1.1" xmlns="http://www.w3.org/2000/svg"><rect x="-1000" y="-1000" width="2000" height="2000" stroke="white" fill="white" /><g style="fill:none;stroke:#000000;stroke-width:1"><path d="M 46.5 0.9 L 23.8 0.9 C 20.8 0.9 19.6 -0.3 19.6 -2.8 L 19.6 -35.0 C 19.6 -37.5 20.8 -38.6 23.8 -38.6 L 45.7 -38.6 " transform="translate(0.0 38.0)" stroke-dasharray="89.67974782336205" stroke-dashoffset="89.67974782336205"><animate attributeName="stroke-dashoffset" from="89.67974782336205" to="0" dur="2.690392434700861s" begin="0s; 15s; 30s; 45s" fill="freeze" id="anim0" /></path><path d="M 2.6 -10.1 C 5.3 -14.4 7.5 -20.4 8.7 -26.2 " transform="translate(0.0 38.0)" stroke-dasharray="17.30043878029177" stroke-dashoffset="17.30043878029177"><animate attributeName="stroke-dashoffset" from="17.30043878029177" to="0" dur="0.5190131634087531s" begin="anim0.end" fill="freeze" id="anim1" /></path><path d="M 15.2 -18.0 C 13.8 -19.7 12.0 -21.4 9.9 -22.7 " transform="translate(0.0 38.0)" stroke-dasharray="7.1149452794189285" stroke-dashoffset="7.1149452794189285"><animate attributeName="stroke-dashoffset" from="7.1149452794189285" to="0" dur="0.21344835838256784s" begin="anim1.end" fill="freeze" id="anim2" /></path><path d="M 14.8 -29.2 L 3.1 -29.2 " transform="translate(0.0 38.0)" stroke-dasharray="11.700000000000001" stroke-dashoffset="11.700000000000001"><animate attributeName="stroke-dashoffset" from="11.700000000000001" to="0" dur="0.35100000000000003s" begin="anim2.end" fill="freeze" id="anim3" /></path><path d="M 24.6 -12.3 C 26.8 -13.1 28.8 -13.9 30.8 -15.0 " transform="translate(0.0 38.0)" stroke-dasharray="6.7694670073677035" stroke-dashoffset="6.7694670073677035"><animate attributeName="stroke-dashoffset" from="6.7694670073677035" to="0" dur="0.2030840102210311s" begin="anim3.end" fill="freeze" id="anim4" /></path><path d="M 25.9 -4.0 C 30.1 -8.4 31.6 -13.2 31.6 -24.1 L 31.6 -33.9 " transform="translate(0.0 38.0)" stroke-dasharray="31.290282785206713" stroke-dashoffset="31.290282785206713"><animate attributeName="stroke-dashoffset" from="31.290282785206713" to="0" dur="0.9387084835562014s" begin="anim4.end" fill="freeze" id="anim5" /></path><path d="M 31.9 -21.4 L 25.6 -21.4 " transform="translate(0.0 38.0)" stroke-dasharray="6.299999999999997" stroke-dashoffset="6.299999999999997"><animate attributeName="stroke-dashoffset" from="6.299999999999997" to="0" dur="0.18899999999999992s" begin="anim5.end" fill="freeze" id="anim6" /></path><path d="M 45.6 -12.8 L 38.5 -12.8 " transform="translate(0.0 38.0)" stroke-dasharray="7.100000000000001" stroke-dashoffset="7.100000000000001"><animate attributeName="stroke-dashoffset" from="7.100000000000001" to="0" dur="0.21300000000000002s" begin="anim6.end" fill="freeze" id="anim7" /></path><path d="M 32.0 -28.6 L 24.9 -28.6 " transform="translate(0.0 38.0)" stroke-dasharray="7.100000000000001" stroke-dashoffset="7.100000000000001"><animate attributeName="stroke-dashoffset" from="7.100000000000001" to="0" dur="0.21300000000000002s" begin="anim7.end" fill="freeze" id="anim8" /></path><path d="M 38.1 -4.0 L 38.1 -33.8 " transform="translate(0.0 38.0)" stroke-dasharray="29.799999999999997" stroke-dashoffset="29.799999999999997"><animate attributeName="stroke-dashoffset" from="29.799999999999997" to="0" dur="0.8939999999999999s" begin="anim8.end" fill="freeze" id="anim9" /></path><path d="M 44.4 -21.2 L 38.5 -21.2 " transform="translate(0.0 38.0)" stroke-dasharray="5.899999999999999" stroke-dashoffset="5.899999999999999"><animate attributeName="stroke-dashoffset" from="5.899999999999999" to="0" dur="0.17699999999999996s" begin="anim9.end" fill="freeze" id="anim10" /></path><path d="M 45.0 -28.6 L 38.5 -28.6 " transform="translate(0.0 38.0)" stroke-dasharray="6.5" stroke-dashoffset="6.5"><animate attributeName="stroke-dashoffset" from="6.5" to="0" dur="0.195s" begin="anim10.end" fill="freeze" id="anim11" /></path><path d="M 9.8 2.6 L 9.8 -40.4" transform="translate(0.0 38.0)" stroke-dasharray="43.0" stroke-dashoffset="43.0"><animate attributeName="stroke-dashoffset" from="43.0" to="0" dur="1.29s" begin="anim11.end" fill="freeze" id="anim_end" /></path></g></svg>