<?xml version='1.0' encoding='utf-8'?>
<svg viewBox="0.0 -6.0 50.0 50.0" version="1.1" xmlns="http://www.w3.org/2000/svg"><rect x="-1000" y="-1000" width="2000" height="2000" stroke="white" fill="white" /><g style="fill:none;stroke:#000000;stroke-width:1"><path d="M 24.2 -23.5 L 40.2 -23.5 C 42.9 -23.5 43.6 -24.4 43.6 -26.1 L 43.6 -29.1 C 43.6 -30.8 42.9 -31.6 40.2 -31.6 L 24.2 -31.6 C 21.6 -31.6 20.9 -30.8 20.9 -29.1 L 20.9 -26.1 C 20.9 -24.4 21.6 -23.5 24.2 -23.5 Z " transform="translate(0.0 38.0)" stroke-dasharray="57.58749949718959" stroke-dashoffset="57.58749949718959"><animate attributeName="stroke-dashoffset" from="57.58749949718959" to="0" dur="1.7276249849156877s" begin="0s; anim_end.end" fill="freeze" id="anim0" /></path><path d="M 2.7 -10.0 C 5.5 -14.3 7.8 -20.4 8.9 -26.3 " transform="translate(0.0 38.0)" stroke-dasharray="17.5418666739681" stroke-dashoffset="17.5418666739681"><animate attributeName="stroke-dashoffset" from="17.5418666739681" to="0" dur="0.5262560002190431s" begin="anim0.end" fill="freeze" id="anim1" /></path><path d="M 18.0 -0.8 C 20.1 -2.2 22.4 -4.3 24.0 -6.3 " transform="translate(0.0 38.0)" stroke-dasharray="8.168234386494602" stroke-dashoffset="8.168234386494602"><animate attributeName="stroke-dashoffset" from="8.168234386494602" to="0" dur="0.24504703159483804s" begin="anim1.end" fill="freeze" id="anim2" /></path><path d="M 10.1 2.6 L 10.1 -40.5 " transform="translate(0.0 38.0)" stroke-dasharray="43.1" stroke-dashoffset="43.1"><animate attributeName="stroke-dashoffset" from="43.1" to="0" dur="1.293s" begin="anim2.end" fill="freeze" id="anim3" /></path><path d="M 26.4 1.6 C 27.2 1.8 28.0 1.9 28.8 1.9 C 31.0 1.9 32.0 1.0 32.0 -1.3 L 32.0 -10.9 " transform="translate(0.0 38.0)" stroke-dasharray="17.275791105271363" stroke-dashoffset="17.275791105271363"><animate attributeName="stroke-dashoffset" from="17.275791105271363" to="0" dur="0.5182737331581408s" begin="anim3.end" fill="freeze" id="anim4" /></path><path d="M 15.8 -17.2 C 14.6 -19.0 12.8 -20.9 10.9 -22.3 " transform="translate(0.0 38.0)" stroke-dasharray="7.105518918592044" stroke-dashoffset="7.105518918592044"><animate attributeName="stroke-dashoffset" from="7.105518918592044" to="0" dur="0.2131655675577613s" begin="anim4.end" fill="freeze" id="anim5" /></path><path d="M 15.3 -29.2 L 3.3 -29.2 " transform="translate(0.0 38.0)" stroke-dasharray="12.0" stroke-dashoffset="12.0"><animate attributeName="stroke-dashoffset" from="12.0" to="0" dur="0.36s" begin="anim5.end" fill="freeze" id="anim6" /></path><path d="M 46.0 -11.5 L 17.9 -11.5 " transform="translate(0.0 38.0)" stroke-dasharray="28.1" stroke-dashoffset="28.1"><animate attributeName="stroke-dashoffset" from="28.1" to="0" dur="0.843s" begin="anim6.end" fill="freeze" id="anim7" /></path><path d="M 45.0 -1.6 C 43.5 -2.7 41.1 -4.8 39.6 -6.2 " transform="translate(0.0 38.0)" stroke-dasharray="7.096723958923219" stroke-dashoffset="7.096723958923219"><animate attributeName="stroke-dashoffset" from="7.096723958923219" to="0" dur="0.21290171876769656s" begin="anim7.end" fill="freeze" id="anim8" /></path><path d="M 41.8 -17.6 L 22.3 -17.6 " transform="translate(0.0 38.0)" stroke-dasharray="19.499999999999996" stroke-dashoffset="19.499999999999996"><animate attributeName="stroke-dashoffset" from="19.499999999999996" to="0" dur="0.5849999999999999s" begin="anim8.end" fill="freeze" id="anim9" /></path><path d="M 28.4 -24.2 L 28.4 -37.8 " transform="translate(0.0 38.0)" stroke-dasharray="13.599999999999998" stroke-dashoffset="13.599999999999998"><animate attributeName="stroke-dashoffset" from="13.599999999999998" to="0" dur="0.4079999999999999s" begin="anim9.end" fill="freeze" id="anim10" /></path><path d="M 35.8 -24.2 L 35.8 -37.8 " transform="translate(0.0 38.0)" stroke-dasharray="13.599999999999998" stroke-dashoffset="13.599999999999998"><animate attributeName="stroke-dashoffset" from="13.599999999999998" to="0" dur="0.4079999999999999s" begin="anim10.end" fill="freeze" id="anim11" /></path><path d="M 45.9 -38.1 L 18.8 -38.1" transform="translate(0.0 38.0)" stroke-dasharray="27.099999999999998" stroke-dashoffset="27.099999999999998"><animate attributeName="stroke-dashoffset" from="27.099999999999998" to="0" dur="0.813s" begin="anim11.end" fill="freeze" id="anim_end" /></path></g></svg>