<?xml version='1.0' encoding='utf-8'?>
<svg viewBox="0.0 -6.0 50.0 50.0" version="1.1" xmlns="http://www.w3.org/2000/svg"><rect x="-1000" y="-1000" width="2000" height="2000" stroke="white" fill="white" /><g style="fill:none;stroke:#000000;stroke-width:1"><path d="M 4.3 1.8 C 5.2 2.0 6.0 2.0 6.7 2.0 C 8.7 2.0 9.8 1.2 9.8 -1.2 L 9.8 -40.4 " transform="translate(0.0 38.0)" stroke-dasharray="46.77592180914958" stroke-dashoffset="46.77592180914958"><animate attributeName="stroke-dashoffset" from="46.77592180914958" to="0" dur="1.4032776542744874s" begin="0s; anim_end.end" fill="freeze" id="anim0" /></path><path d="M 3.6 -13.4 C 7.6 -14.7 11.6 -16.1 14.7 -17.6 " transform="translate(0.0 38.0)" stroke-dasharray="11.876618601292646" stroke-dashoffset="11.876618601292646"><animate attributeName="stroke-dashoffset" from="11.876618601292646" to="0" dur="0.35629855803877936s" begin="anim0.end" fill="freeze" id="anim1" /></path><path d="M 21.4 2.5 C 28.5 1.1 35.6 -1.8 41.4 -5.7 " transform="translate(0.0 38.0)" stroke-dasharray="21.753387868280434" stroke-dashoffset="21.753387868280434"><animate attributeName="stroke-dashoffset" from="21.753387868280434" to="0" dur="0.652601636048413s" begin="anim1.end" fill="freeze" id="anim2" /></path><path d="M 22.4 -4.0 C 27.6 -5.4 32.5 -7.7 36.8 -10.7 " transform="translate(0.0 38.0)" stroke-dasharray="15.961485043633298" stroke-dashoffset="15.961485043633298"><animate attributeName="stroke-dashoffset" from="15.961485043633298" to="0" dur="0.4788445513089989s" begin="anim2.end" fill="freeze" id="anim3" /></path><path d="M 14.4 -29.4 L 3.8 -29.4 " transform="translate(0.0 38.0)" stroke-dasharray="10.600000000000001" stroke-dashoffset="10.600000000000001"><animate attributeName="stroke-dashoffset" from="10.600000000000001" to="0" dur="0.318s" begin="anim3.end" fill="freeze" id="anim4" /></path><path d="M 21.9 -9.7 C 25.5 -10.9 29.2 -12.9 32.2 -15.2 " transform="translate(0.0 38.0)" stroke-dasharray="11.727528849419222" stroke-dashoffset="11.727528849419222"><animate attributeName="stroke-dashoffset" from="11.727528849419222" to="0" dur="0.35182586548257666s" begin="anim4.end" fill="freeze" id="anim5" /></path><path d="M 18.2 -14.2 C 23.1 -16.2 28.3 -19.8 32.1 -23.4 " transform="translate(0.0 38.0)" stroke-dasharray="16.755880312300633" stroke-dashoffset="16.755880312300633"><animate attributeName="stroke-dashoffset" from="16.755880312300633" to="0" dur="0.5026764093690189s" begin="anim5.end" fill="freeze" id="anim6" /></path><path d="M 19.4 -23.5 C 22.9 -25.6 26.3 -28.4 28.9 -31.6 " transform="translate(0.0 38.0)" stroke-dasharray="12.545580329833678" stroke-dashoffset="12.545580329833678"><animate attributeName="stroke-dashoffset" from="12.545580329833678" to="0" dur="0.37636740989501033s" begin="anim6.end" fill="freeze" id="anim7" /></path><path d="M 29.1 -26.1 L 29.1 -36.2 C 29.1 -38.3 28.2 -38.8 26.0 -38.8 L 18.2 -38.8 " transform="translate(0.0 38.0)" stroke-dasharray="22.662343140800047" stroke-dashoffset="22.662343140800047"><animate attributeName="stroke-dashoffset" from="22.662343140800047" to="0" dur="0.6798702942240014s" begin="anim7.end" fill="freeze" id="anim8" /></path><path d="M 19.0 -30.5 C 22.1 -32.5 25.1 -35.1 27.4 -37.8 " transform="translate(0.0 38.0)" stroke-dasharray="11.166595746255625" stroke-dashoffset="11.166595746255625"><animate attributeName="stroke-dashoffset" from="11.166595746255625" to="0" dur="0.33499787238766876s" begin="anim8.end" fill="freeze" id="anim9" /></path><path d="M 45.9 -13.8 C 40.9 -15.9 35.8 -19.2 32.2 -22.4 " transform="translate(0.0 38.0)" stroke-dasharray="16.24226403715648" stroke-dashoffset="16.24226403715648"><animate attributeName="stroke-dashoffset" from="16.24226403715648" to="0" dur="0.4872679211146944s" begin="anim9.end" fill="freeze" id="anim10" /></path><path d="M 35.5 -26.1 C 38.3 -27.8 41.4 -30.2 44.0 -32.9 " transform="translate(0.0 38.0)" stroke-dasharray="10.914025636934271" stroke-dashoffset="10.914025636934271"><animate attributeName="stroke-dashoffset" from="10.914025636934271" to="0" dur="0.32742076910802814s" begin="anim10.end" fill="freeze" id="anim11" /></path><path d="M 44.1 -24.9 L 44.1 -36.2 C 44.1 -38.3 43.2 -38.8 41.0 -38.8 L 34.0 -38.8 " transform="translate(0.0 38.0)" stroke-dasharray="23.062343140800046" stroke-dashoffset="23.062343140800046"><animate attributeName="stroke-dashoffset" from="23.062343140800046" to="0" dur="0.6918702942240014s" begin="anim11.end" fill="freeze" id="anim12" /></path><path d="M 34.2 -31.9 C 36.9 -33.4 39.7 -35.6 42.0 -38.1" transform="translate(0.0 38.0)" stroke-dasharray="10.004471134877424" stroke-dashoffset="10.004471134877424"><animate attributeName="stroke-dashoffset" from="10.004471134877424" to="0" dur="0.3001341340463227s" begin="anim12.end" fill="freeze" id="anim_end" /></path></g></svg>