<?xml version='1.0' encoding='utf-8'?>
<svg viewBox="0.0 -6.0 50.0 50.0" version="1.1" xmlns="http://www.w3.org/2000/svg"><rect x="-1000" y="-1000" width="2000" height="2000" stroke="white" fill="white" /><g style="fill:none;stroke:#000000;stroke-width:1"><path d="M 26.5 1.9 C 32.5 -3.8 36.4 -12.1 36.4 -23.5 L 36.4 -25.4 " transform="translate(0.0 38.0)" stroke-dasharray="29.956796355147702" stroke-dashoffset="29.956796355147702"><animate attributeName="stroke-dashoffset" from="29.956796355147702" to="0" dur="0.898703890654431s" begin="0s; anim_end.end" fill="freeze" id="anim0" /></path><path d="M 4.1 1.6 C 6.5 -1.1 8.8 -5.4 9.9 -9.4 " transform="translate(0.0 38.0)" stroke-dasharray="12.531446988965" stroke-dashoffset="12.531446988965"><animate attributeName="stroke-dashoffset" from="12.531446988965" to="0" dur="0.37594340966894996s" begin="anim0.end" fill="freeze" id="anim1" /></path><path d="M 12.6 -2.2 C 11.7 -3.3 10.6 -4.5 9.3 -5.3 " transform="translate(0.0 38.0)" stroke-dasharray="4.548632147518628" stroke-dashoffset="4.548632147518628"><animate attributeName="stroke-dashoffset" from="4.548632147518628" to="0" dur="0.13645896442555883s" begin="anim1.end" fill="freeze" id="anim2" /></path><path d="M 14.1 2.2 C 16.7 -0.8 18.7 -4.9 20.0 -9.3 " transform="translate(0.0 38.0)" stroke-dasharray="13.019973152316648" stroke-dashoffset="13.019973152316648"><animate attributeName="stroke-dashoffset" from="13.019973152316648" to="0" dur="0.39059919456949943s" begin="anim2.end" fill="freeze" id="anim3" /></path><path d="M 23.4 -1.4 C 22.4 -2.7 20.9 -4.2 19.4 -5.3 " transform="translate(0.0 38.0)" stroke-dasharray="5.603307667467159" stroke-dashoffset="5.603307667467159"><animate attributeName="stroke-dashoffset" from="5.603307667467159" to="0" dur="0.16809923002401475s" begin="anim3.end" fill="freeze" id="anim4" /></path><path d="M 12.1 -16.0 L 12.1 -19.9 C 12.1 -21.4 11.3 -22.2 9.7 -22.2 L 8.0 -22.2 C 6.3 -22.2 5.5 -21.4 5.5 -19.9 L 5.5 -16.0 C 5.5 -14.4 6.3 -13.6 8.0 -13.6 L 9.7 -13.6 C 11.3 -13.6 12.1 -14.4 12.1 -16.0 Z " transform="translate(0.0 38.0)" stroke-dasharray="26.784126289259465" stroke-dashoffset="26.784126289259465"><animate attributeName="stroke-dashoffset" from="26.784126289259465" to="0" dur="0.803523788677784s" begin="anim4.end" fill="freeze" id="anim5" /></path><path d="M 17.4 -19.9 L 17.4 -16.0 C 17.4 -14.4 18.1 -13.6 19.8 -13.6 L 21.6 -13.6 C 23.3 -13.6 24.1 -14.4 24.1 -16.0 L 24.1 -19.9 C 24.1 -21.4 23.3 -22.2 21.6 -22.2 L 19.8 -22.2 C 18.1 -22.2 17.4 -21.4 17.4 -19.9 Z " transform="translate(0.0 38.0)" stroke-dasharray="27.032188591188" stroke-dashoffset="27.032188591188"><animate attributeName="stroke-dashoffset" from="27.032188591188" to="0" dur="0.81096565773564s" begin="anim5.end" fill="freeze" id="anim6" /></path><path d="M 19.2 -27.6 L 10.4 -27.6 " transform="translate(0.0 38.0)" stroke-dasharray="8.799999999999999" stroke-dashoffset="8.799999999999999"><animate attributeName="stroke-dashoffset" from="8.799999999999999" to="0" dur="0.26399999999999996s" begin="anim6.end" fill="freeze" id="anim7" /></path><path d="M 3.5 -27.4 C 7.5 -30.2 11.8 -34.8 14.7 -39.8 " transform="translate(0.0 38.0)" stroke-dasharray="16.82974758112442" stroke-dashoffset="16.82974758112442"><animate attributeName="stroke-dashoffset" from="16.82974758112442" to="0" dur="0.5048924274337325s" begin="anim7.end" fill="freeze" id="anim8" /></path><path d="M 46.2 0.6 C 40.7 -5.5 37.2 -13.2 36.6 -22.6 " transform="translate(0.0 38.0)" stroke-dasharray="25.601479268754833" stroke-dashoffset="25.601479268754833"><animate attributeName="stroke-dashoffset" from="25.601479268754833" to="0" dur="0.7680443780626449s" begin="anim8.end" fill="freeze" id="anim9" /></path><path d="M 23.8 -30.8 C 21.4 -33.2 17.6 -35.9 14.7 -37.4 " transform="translate(0.0 38.0)" stroke-dasharray="11.278074790886219" stroke-dashoffset="11.278074790886219"><animate attributeName="stroke-dashoffset" from="11.278074790886219" to="0" dur="0.33834224372658656s" begin="anim9.end" fill="freeze" id="anim10" /></path><path d="M 28.2 -24.1 C 30.8 -28.2 32.9 -33.8 34.1 -39.1 " transform="translate(0.0 38.0)" stroke-dasharray="16.191049126885538" stroke-dashoffset="16.191049126885538"><animate attributeName="stroke-dashoffset" from="16.191049126885538" to="0" dur="0.4857314738065661s" begin="anim10.end" fill="freeze" id="anim11" /></path><path d="M 43.2 -23.3 C 44.1 -24.8 44.8 -26.2 45.2 -27.6 C 45.8 -29.2 45.2 -30.2 43.1 -30.2 L 30.9 -30.2" transform="translate(0.0 38.0)" stroke-dasharray="21.193175814912646" stroke-dashoffset="21.193175814912646"><animate attributeName="stroke-dashoffset" from="21.193175814912646" to="0" dur="0.6357952744473794s" begin="anim11.end" fill="freeze" id="anim_end" /></path></g></svg>