<?xml version='1.0' encoding='utf-8'?>
<svg viewBox="0.0 -6.0 50.0 50.0" version="1.1" xmlns="http://www.w3.org/2000/svg"><rect x="-1000" y="-1000" width="2000" height="2000" stroke="white" fill="white" /><g style="fill:none;stroke:#000000;stroke-width:1"><path d="M 18.8 2.2 C 26.6 1.1 34.8 -1.6 40.6 -5.0 " transform="translate(0.0 38.0)" stroke-dasharray="23.090587172534153" stroke-dashoffset="23.090587172534153"><animate attributeName="stroke-dashoffset" from="23.090587172534153" to="0" dur="0.6927176151760246s" begin="0s; anim_end.end" fill="freeze" id="anim0" /></path><path d="M 8.7 2.6 L 8.7 -40.4 " transform="translate(0.0 38.0)" stroke-dasharray="43.0" stroke-dashoffset="43.0"><animate attributeName="stroke-dashoffset" from="43.0" to="0" dur="1.29s" begin="anim0.end" fill="freeze" id="anim1" /></path><path d="M 2.9 -23.1 C 3.5 -24.8 4.0 -27.6 4.2 -29.9 " transform="translate(0.0 38.0)" stroke-dasharray="6.937939769584611" stroke-dashoffset="6.937939769584611"><animate attributeName="stroke-dashoffset" from="6.937939769584611" to="0" dur="0.20813819308753834s" begin="anim1.end" fill="freeze" id="anim2" /></path><path d="M 20.1 -4.2 C 25.3 -5.2 31.1 -7.5 35.5 -10.2 " transform="translate(0.0 38.0)" stroke-dasharray="16.609126555710183" stroke-dashoffset="16.609126555710183"><animate attributeName="stroke-dashoffset" from="16.609126555710183" to="0" dur="0.4982737966713055s" begin="anim2.end" fill="freeze" id="anim3" /></path><path d="M 19.9 -10.0 C 23.7 -11.1 27.4 -12.8 30.6 -14.8 " transform="translate(0.0 38.0)" stroke-dasharray="11.763922979874526" stroke-dashoffset="11.763922979874526"><animate attributeName="stroke-dashoffset" from="11.763922979874526" to="0" dur="0.35291768939623575s" begin="anim3.end" fill="freeze" id="anim4" /></path><path d="M 14.8 -14.1 C 20.5 -16.1 26.8 -19.4 30.4 -22.4 " transform="translate(0.0 38.0)" stroke-dasharray="17.748708473110966" stroke-dashoffset="17.748708473110966"><animate attributeName="stroke-dashoffset" from="17.748708473110966" to="0" dur="0.532461254193329s" begin="anim4.end" fill="freeze" id="anim5" /></path><path d="M 14.4 -27.4 C 14.1 -28.7 13.4 -30.4 12.8 -31.6 " transform="translate(0.0 38.0)" stroke-dasharray="4.5032958784663535" stroke-dashoffset="4.5032958784663535"><animate attributeName="stroke-dashoffset" from="4.5032958784663535" to="0" dur="0.1350988763539906s" begin="anim5.end" fill="freeze" id="anim6" /></path><path d="M 16.4 -24.0 C 19.4 -24.2 23.9 -24.8 27.9 -25.6 " transform="translate(0.0 38.0)" stroke-dasharray="11.617802270323006" stroke-dashoffset="11.617802270323006"><animate attributeName="stroke-dashoffset" from="11.617802270323006" to="0" dur="0.3485340681096902s" begin="anim6.end" fill="freeze" id="anim7" /></path><path d="M 18.1 -24.1 C 19.4 -25.9 20.4 -28.1 21.1 -30.1 " transform="translate(0.0 38.0)" stroke-dasharray="6.73063149236953" stroke-dashoffset="6.73063149236953"><animate attributeName="stroke-dashoffset" from="6.73063149236953" to="0" dur="0.20191894477108588s" begin="anim7.end" fill="freeze" id="anim8" /></path><path d="M 28.6 -25.0 C 27.9 -26.2 26.8 -27.7 25.8 -28.8 " transform="translate(0.0 38.0)" stroke-dasharray="4.727632985610312" stroke-dashoffset="4.727632985610312"><animate attributeName="stroke-dashoffset" from="4.727632985610312" to="0" dur="0.14182898956830936s" begin="anim8.end" fill="freeze" id="anim9" /></path><path d="M 45.8 -14.0 C 40.2 -15.6 34.5 -18.5 30.4 -21.7 " transform="translate(0.0 38.0)" stroke-dasharray="17.31583603211184" stroke-dashoffset="17.31583603211184"><animate attributeName="stroke-dashoffset" from="17.31583603211184" to="0" dur="0.5194750809633552s" begin="anim9.end" fill="freeze" id="anim10" /></path><path d="M 32.8 -25.0 C 36.2 -25.2 39.9 -25.6 43.5 -26.3 " transform="translate(0.0 38.0)" stroke-dasharray="10.786525023284351" stroke-dashoffset="10.786525023284351"><animate attributeName="stroke-dashoffset" from="10.786525023284351" to="0" dur="0.3235957506985305s" begin="anim10.end" fill="freeze" id="anim11" /></path><path d="M 19.4 -34.2 C 26.2 -34.4 32.6 -34.9 39.1 -35.6 " transform="translate(0.0 38.0)" stroke-dasharray="19.754808732793272" stroke-dashoffset="19.754808732793272"><animate attributeName="stroke-dashoffset" from="19.754808732793272" to="0" dur="0.5926442619837982s" begin="anim11.end" fill="freeze" id="anim12" /></path><path d="M 33.6 -24.8 C 34.9 -26.8 35.9 -28.9 36.7 -30.8 " transform="translate(0.0 38.0)" stroke-dasharray="6.7624955724656415" stroke-dashoffset="6.7624955724656415"><animate attributeName="stroke-dashoffset" from="6.7624955724656415" to="0" dur="0.20287486717396924s" begin="anim12.end" fill="freeze" id="anim13" /></path><path d="M 24.4 -34.2 C 25.7 -36.2 26.8 -38.2 27.6 -40.2 " transform="translate(0.0 38.0)" stroke-dasharray="6.81080861411946" stroke-dashoffset="6.81080861411946"><animate attributeName="stroke-dashoffset" from="6.81080861411946" to="0" dur="0.2043242584235838s" begin="anim13.end" fill="freeze" id="anim14" /></path><path d="M 44.9 -24.6 C 44.0 -26.1 42.8 -27.9 41.7 -29.0 " transform="translate(0.0 38.0)" stroke-dasharray="5.45235991007748" stroke-dashoffset="5.45235991007748"><animate attributeName="stroke-dashoffset" from="5.45235991007748" to="0" dur="0.1635707973023244s" begin="anim14.end" fill="freeze" id="anim15" /></path><path d="M 41.5 -33.9 C 40.1 -35.5 38.0 -37.5 36.2 -38.7" transform="translate(0.0 38.0)" stroke-dasharray="7.168172470364522" stroke-dashoffset="7.168172470364522"><animate attributeName="stroke-dashoffset" from="7.168172470364522" to="0" dur="0.21504517411093566s" begin="anim15.end" fill="freeze" id="anim_end" /></path></g></svg>