<?xml version='1.0' encoding='utf-8'?>
<svg viewBox="0.0 -6.0 50.0 50.0" version="1.1" xmlns="http://www.w3.org/2000/svg"><rect x="-1000" y="-1000" width="2000" height="2000" stroke="white" fill="white" /><g style="fill:none;stroke:#000000;stroke-width:1"><path d="M 23.0 1.2 C 23.8 1.4 24.6 1.5 25.4 1.5 C 27.2 1.5 28.2 0.7 28.2 -1.8 L 28.2 -26.1 C 28.2 -28.0 27.6 -28.9 25.6 -28.9 L 19.1 -28.9 C 17.2 -28.9 16.5 -28.0 16.5 -26.1 L 16.5 -20.0 C 16.5 -8.4 15.5 -3.0 13.2 1.7 " transform="translate(0.0 38.0)" stroke-dasharray="75.37105929040361" stroke-dashoffset="75.37105929040361"><animate attributeName="stroke-dashoffset" from="75.37105929040361" to="0" dur="2.2611317787121084s" begin="0s; 15s; 30s; 45s" fill="freeze" id="anim0" /></path><path d="M 7.7 2.5 L 7.7 -40.5 " transform="translate(0.0 38.0)" stroke-dasharray="43.0" stroke-dashoffset="43.0"><animate attributeName="stroke-dashoffset" from="43.0" to="0" dur="1.29s" begin="anim0.end" fill="freeze" id="anim1" /></path><path d="M 2.4 -22.9 C 3.0 -24.5 3.4 -27.4 3.5 -29.4 " transform="translate(0.0 38.0)" stroke-dasharray="6.61210566109866" stroke-dashoffset="6.61210566109866"><animate attributeName="stroke-dashoffset" from="6.61210566109866" to="0" dur="0.1983631698329598s" begin="anim1.end" fill="freeze" id="anim2" /></path><path d="M 27.8 -11.7 L 17.1 -11.7 " transform="translate(0.0 38.0)" stroke-dasharray="10.7" stroke-dashoffset="10.7"><animate attributeName="stroke-dashoffset" from="10.7" to="0" dur="0.32099999999999995s" begin="anim2.end" fill="freeze" id="anim3" /></path><path d="M 13.0 -25.9 C 12.7 -27.2 12.1 -29.0 11.6 -30.1 " transform="translate(0.0 38.0)" stroke-dasharray="4.432958375653071" stroke-dashoffset="4.432958375653071"><animate attributeName="stroke-dashoffset" from="4.432958375653071" to="0" dur="0.13298875126959211s" begin="anim3.end" fill="freeze" id="anim4" /></path><path d="M 22.4 -11.9 L 22.4 -28.0 " transform="translate(0.0 38.0)" stroke-dasharray="16.1" stroke-dashoffset="16.1"><animate attributeName="stroke-dashoffset" from="16.1" to="0" dur="0.48300000000000004s" begin="anim4.end" fill="freeze" id="anim5" /></path><path d="M 27.8 -20.5 L 17.1 -20.5 " transform="translate(0.0 38.0)" stroke-dasharray="10.7" stroke-dashoffset="10.7"><animate attributeName="stroke-dashoffset" from="10.7" to="0" dur="0.32099999999999995s" begin="anim5.end" fill="freeze" id="anim6" /></path><path d="M 47.1 -9.0 L 32.6 -9.0 " transform="translate(0.0 38.0)" stroke-dasharray="14.5" stroke-dashoffset="14.5"><animate attributeName="stroke-dashoffset" from="14.5" to="0" dur="0.435s" begin="anim6.end" fill="freeze" id="anim7" /></path><path d="M 40.1 2.5 L 40.1 -23.8 " transform="translate(0.0 38.0)" stroke-dasharray="26.3" stroke-dashoffset="26.3"><animate attributeName="stroke-dashoffset" from="26.3" to="0" dur="0.789s" begin="anim7.end" fill="freeze" id="anim8" /></path><path d="M 32.4 -14.5 C 33.6 -16.6 34.7 -19.6 35.2 -21.9 " transform="translate(0.0 38.0)" stroke-dasharray="7.938048310527761" stroke-dashoffset="7.938048310527761"><animate attributeName="stroke-dashoffset" from="7.938048310527761" to="0" dur="0.2381414493158328s" begin="anim8.end" fill="freeze" id="anim9" /></path><path d="M 15.0 -31.8 C 16.6 -33.9 18.2 -37.0 19.6 -40.2 " transform="translate(0.0 38.0)" stroke-dasharray="9.597468013869843" stroke-dashoffset="9.597468013869843"><animate attributeName="stroke-dashoffset" from="9.597468013869843" to="0" dur="0.28792404041609526s" begin="anim9.end" fill="freeze" id="anim10" /></path><path d="M 22.7 -29.6 C 23.5 -31.1 24.0 -32.3 24.4 -33.4 C 24.9 -35.0 24.2 -36.0 22.3 -36.0 L 18.6 -36.0 " transform="translate(0.0 38.0)" stroke-dasharray="11.993309854868624" stroke-dashoffset="11.993309854868624"><animate attributeName="stroke-dashoffset" from="11.993309854868624" to="0" dur="0.3597992956460587s" begin="anim10.end" fill="freeze" id="anim11" /></path><path d="M 46.0 -17.6 L 34.1 -17.6 " transform="translate(0.0 38.0)" stroke-dasharray="11.899999999999999" stroke-dashoffset="11.899999999999999"><animate attributeName="stroke-dashoffset" from="11.899999999999999" to="0" dur="0.35699999999999993s" begin="anim11.end" fill="freeze" id="anim12" /></path><path d="M 32.2 -27.6 C 35.2 -29.9 37.0 -33.1 37.4 -37.4 " transform="translate(0.0 38.0)" stroke-dasharray="11.438361680995994" stroke-dashoffset="11.438361680995994"><animate attributeName="stroke-dashoffset" from="11.438361680995994" to="0" dur="0.3431508504298798s" begin="anim12.end" fill="freeze" id="anim13" /></path><path d="M 39.8 -28.3 C 40.4 -28.1 41.0 -28.1 41.7 -28.1 C 43.2 -28.1 44.1 -28.6 44.6 -30.6 C 45.0 -32.0 45.2 -33.9 45.2 -35.5 C 45.3 -37.4 44.5 -38.1 42.5 -38.1 L 32.2 -38.1" transform="translate(0.0 38.0)" stroke-dasharray="25.837997222763807" stroke-dashoffset="25.837997222763807"><animate attributeName="stroke-dashoffset" from="25.837997222763807" to="0" dur="0.7751399166829142s" begin="anim13.end" fill="freeze" id="anim_end" /></path></g></svg>