<?xml version='1.0' encoding='utf-8'?>
<svg viewBox="0.0 -6.0 50.0 50.0" version="1.1" xmlns="http://www.w3.org/2000/svg"><rect x="-1000" y="-1000" width="2000" height="2000" stroke="white" fill="white" /><g style="fill:none;stroke:#000000;stroke-width:1"><path d="M 43.5 -8.7 L 43.5 -13.3 C 43.5 -15.2 42.6 -16.1 40.2 -16.1 L 33.1 -16.1 C 30.6 -16.1 29.7 -15.2 29.7 -13.3 L 29.7 -8.7 C 29.7 -6.7 30.6 -5.8 33.1 -5.8 L 40.2 -5.8 C 42.6 -5.8 43.5 -6.7 43.5 -8.7 Z " transform="translate(0.0 38.0)" stroke-dasharray="43.80137742724383" stroke-dashoffset="43.80137742724383"><animate attributeName="stroke-dashoffset" from="43.80137742724383" to="0" dur="1.314041322817315s" begin="0s; anim_end.end" fill="freeze" id="anim0" /></path><path d="M 14.7 1.1 C 17.0 -0.5 19.6 -2.8 21.5 -5.0 " transform="translate(0.0 38.0)" stroke-dasharray="9.156587410499561" stroke-dashoffset="9.156587410499561"><animate attributeName="stroke-dashoffset" from="9.156587410499561" to="0" dur="0.27469762231498684s" begin="anim0.end" fill="freeze" id="anim1" /></path><path d="M 9.1 2.4 L 9.1 -40.5 " transform="translate(0.0 38.0)" stroke-dasharray="42.9" stroke-dashoffset="42.9"><animate attributeName="stroke-dashoffset" from="42.9" to="0" dur="1.287s" begin="anim1.end" fill="freeze" id="anim2" /></path><path d="M 21.4 -3.8 L 21.4 -13.2 C 21.4 -15.2 20.8 -15.8 18.6 -15.8 L 15.3 -15.8 " transform="translate(0.0 38.0)" stroke-dasharray="17.232763220835643" stroke-dashoffset="17.232763220835643"><animate attributeName="stroke-dashoffset" from="17.232763220835643" to="0" dur="0.5169828966250692s" begin="anim2.end" fill="freeze" id="anim3" /></path><path d="M 3.0 -22.6 C 3.6 -24.2 4.2 -27.1 4.5 -29.4 " transform="translate(0.0 38.0)" stroke-dasharray="6.975039297265854" stroke-dashoffset="6.975039297265854"><animate attributeName="stroke-dashoffset" from="6.975039297265854" to="0" dur="0.20925117891797562s" begin="anim3.end" fill="freeze" id="anim4" /></path><path d="M 46.8 0.3 C 44.0 0.6 40.8 0.7 36.8 0.7 C 27.8 0.7 24.4 -1.1 21.6 -5.0 " transform="translate(0.0 38.0)" stroke-dasharray="27.006899293820847" stroke-dashoffset="27.006899293820847"><animate attributeName="stroke-dashoffset" from="27.006899293820847" to="0" dur="0.8102069788146254s" begin="anim4.end" fill="freeze" id="anim5" /></path><path d="M 14.9 -24.7 C 14.6 -26.1 13.8 -27.9 13.3 -28.9 " transform="translate(0.0 38.0)" stroke-dasharray="4.504480525714048" stroke-dashoffset="4.504480525714048"><animate attributeName="stroke-dashoffset" from="4.504480525714048" to="0" dur="0.13513441577142143s" begin="anim5.end" fill="freeze" id="anim6" /></path><path d="M 21.7 -25.2 C 20.4 -26.5 19.1 -27.6 17.9 -28.4 " transform="translate(0.0 38.0)" stroke-dasharray="4.975643554393966" stroke-dashoffset="4.975643554393966"><animate attributeName="stroke-dashoffset" from="4.975643554393966" to="0" dur="0.14926930663181898s" begin="anim6.end" fill="freeze" id="anim7" /></path><path d="M 22.4 -35.6 C 21.4 -36.8 20.1 -37.9 18.8 -38.7 " transform="translate(0.0 38.0)" stroke-dasharray="4.770667493191671" stroke-dashoffset="4.770667493191671"><animate attributeName="stroke-dashoffset" from="4.770667493191671" to="0" dur="0.14312002479575012s" begin="anim7.end" fill="freeze" id="anim8" /></path><path d="M 46.5 -25.2 L 27.5 -25.2 " transform="translate(0.0 38.0)" stroke-dasharray="19.0" stroke-dashoffset="19.0"><animate attributeName="stroke-dashoffset" from="19.0" to="0" dur="0.57s" begin="anim8.end" fill="freeze" id="anim9" /></path><path d="M 27.5 -29.9 C 29.2 -32.4 30.6 -35.5 31.4 -38.2 " transform="translate(0.0 38.0)" stroke-dasharray="9.204395594883188" stroke-dashoffset="9.204395594883188"><animate attributeName="stroke-dashoffset" from="9.204395594883188" to="0" dur="0.2761318678464956s" begin="anim9.end" fill="freeze" id="anim10" /></path><path d="M 37.0 -20.9 L 37.0 -40.4 " transform="translate(0.0 38.0)" stroke-dasharray="19.5" stroke-dashoffset="19.5"><animate attributeName="stroke-dashoffset" from="19.5" to="0" dur="0.585s" begin="anim10.end" fill="freeze" id="anim11" /></path><path d="M 44.7 -33.5 L 29.5 -33.5" transform="translate(0.0 38.0)" stroke-dasharray="15.200000000000003" stroke-dashoffset="15.200000000000003"><animate attributeName="stroke-dashoffset" from="15.200000000000003" to="0" dur="0.45600000000000007s" begin="anim11.end" fill="freeze" id="anim_end" /></path></g></svg>