<?xml version='1.0' encoding='utf-8'?>
<svg viewBox="0.0 -6.0 50.0 50.0" version="1.1" xmlns="http://www.w3.org/2000/svg"><rect x="-1000" y="-1000" width="2000" height="2000" stroke="white" fill="white" /><g style="fill:none;stroke:#000000;stroke-width:1"><path d="M 18.6 -12.7 C 25.1 -19.1 30.0 -29.2 31.7 -39.9 " transform="translate(0.0 38.0)" stroke-dasharray="30.672625302019497" stroke-dashoffset="30.672625302019497"><animate attributeName="stroke-dashoffset" from="30.672625302019497" to="0" dur="0.9201787590605849s" begin="0s; 15s; 30s; 45s" fill="freeze" id="anim0" /></path><path d="M 8.2 -5.0 L 11.3 -5.0 C 13.4 -5.0 14.3 -5.9 14.3 -8.2 L 14.3 -33.6 C 14.3 -35.9 13.4 -36.8 11.3 -36.8 L 8.2 -36.8 C 6.2 -36.8 5.3 -35.9 5.3 -33.6 L 5.3 -8.2 C 5.3 -5.9 6.2 -5.0 8.2 -5.0 Z " transform="translate(0.0 38.0)" stroke-dasharray="77.21210218382416" stroke-dashoffset="77.21210218382416"><animate attributeName="stroke-dashoffset" from="77.21210218382416" to="0" dur="2.3163630655147247s" begin="anim0.end" fill="freeze" id="anim1" /></path><path d="M 13.9 -21.9 L 5.4 -21.9 " transform="translate(0.0 38.0)" stroke-dasharray="8.5" stroke-dashoffset="8.5"><animate attributeName="stroke-dashoffset" from="8.5" to="0" dur="0.255s" begin="anim1.end" fill="freeze" id="anim2" /></path><path d="M 28.9 1.3 L 35.5 1.3 C 38.1 1.3 39.1 0.2 39.1 -1.9 L 39.1 -11.5 C 39.1 -13.6 38.1 -14.7 35.5 -14.7 L 28.9 -14.7 C 26.1 -14.7 25.2 -13.6 25.2 -11.5 L 25.2 -1.9 C 25.2 0.2 26.1 1.3 28.9 1.3 Z " transform="translate(0.0 38.0)" stroke-dasharray="54.868831591811194" stroke-dashoffset="54.868831591811194"><animate attributeName="stroke-dashoffset" from="54.868831591811194" to="0" dur="1.6460649477543357s" begin="anim2.end" fill="freeze" id="anim3" /></path><path d="M 38.2 -7.0 L 25.6 -7.0 " transform="translate(0.0 38.0)" stroke-dasharray="12.600000000000001" stroke-dashoffset="12.600000000000001"><animate attributeName="stroke-dashoffset" from="12.600000000000001" to="0" dur="0.378s" begin="anim3.end" fill="freeze" id="anim4" /></path><path d="M 46.3 -21.6 L 18.9 -21.6 " transform="translate(0.0 38.0)" stroke-dasharray="27.4" stroke-dashoffset="27.4"><animate attributeName="stroke-dashoffset" from="27.4" to="0" dur="0.822s" begin="anim4.end" fill="freeze" id="anim5" /></path><path d="M 42.9 -28.6 L 21.8 -28.6 " transform="translate(0.0 38.0)" stroke-dasharray="21.099999999999998" stroke-dashoffset="21.099999999999998"><animate attributeName="stroke-dashoffset" from="21.099999999999998" to="0" dur="0.6329999999999999s" begin="anim5.end" fill="freeze" id="anim6" /></path><path d="M 46.6 -13.4 C 41.9 -16.8 37.5 -22.1 35.2 -28.1 " transform="translate(0.0 38.0)" stroke-dasharray="18.850811578391014" stroke-dashoffset="18.850811578391014"><animate attributeName="stroke-dashoffset" from="18.850811578391014" to="0" dur="0.5655243473517304s" begin="anim6.end" fill="freeze" id="anim7" /></path><path d="M 44.9 -35.0 L 20.1 -35.0" transform="translate(0.0 38.0)" stroke-dasharray="24.799999999999997" stroke-dashoffset="24.799999999999997"><animate attributeName="stroke-dashoffset" from="24.799999999999997" to="0" dur="0.7439999999999999s" begin="anim7.end" fill="freeze" id="anim_end" /></path></g></svg>