<?xml version='1.0' encoding='utf-8'?>
<svg viewBox="0.0 -6.0 50.0 50.0" version="1.1" xmlns="http://www.w3.org/2000/svg"><rect x="-1000" y="-1000" width="2000" height="2000" stroke="white" fill="white" /><g style="fill:none;stroke:#000000;stroke-width:1"><path d="M 20.6 0.5 L 38.8 0.5 C 42.5 0.5 43.5 -0.6 43.5 -3.8 L 43.5 -17.6 C 43.5 -20.8 42.5 -21.8 38.8 -21.8 L 21.6 -21.8 " transform="translate(0.0 38.0)" stroke-dasharray="64.19478497990812" stroke-dashoffset="64.19478497990812"><animate attributeName="stroke-dashoffset" from="64.19478497990812" to="0" dur="1.9258435493972437s" begin="0s; anim_end.end" fill="freeze" id="anim0" /></path><path d="M 3.0 -9.5 C 6.0 -14.1 8.4 -20.2 9.8 -26.2 " transform="translate(0.0 38.0)" stroke-dasharray="18.11697594429347" stroke-dashoffset="18.11697594429347"><animate attributeName="stroke-dashoffset" from="18.11697594429347" to="0" dur="0.543509278328804s" begin="anim0.end" fill="freeze" id="anim1" /></path><path d="M 16.9 -16.3 C 15.7 -18.0 13.8 -19.8 11.8 -21.2 " transform="translate(0.0 38.0)" stroke-dasharray="7.104739273997794" stroke-dashoffset="7.104739273997794"><animate attributeName="stroke-dashoffset" from="7.104739273997794" to="0" dur="0.2131421782199338s" begin="anim1.end" fill="freeze" id="anim2" /></path><path d="M 16.8 -29.0 L 3.8 -29.0 " transform="translate(0.0 38.0)" stroke-dasharray="13.0" stroke-dashoffset="13.0"><animate attributeName="stroke-dashoffset" from="13.0" to="0" dur="0.39s" begin="anim2.end" fill="freeze" id="anim3" /></path><path d="M 43.1 -11.3 L 23.4 -11.3 " transform="translate(0.0 38.0)" stroke-dasharray="19.700000000000003" stroke-dashoffset="19.700000000000003"><animate attributeName="stroke-dashoffset" from="19.700000000000003" to="0" dur="0.5910000000000001s" begin="anim3.end" fill="freeze" id="anim4" /></path><path d="M 25.3 -29.1 C 24.4 -31.1 23.0 -33.5 21.7 -35.4 " transform="translate(0.0 38.0)" stroke-dasharray="7.264454361836018" stroke-dashoffset="7.264454361836018"><animate attributeName="stroke-dashoffset" from="7.264454361836018" to="0" dur="0.21793363085508052s" begin="anim4.end" fill="freeze" id="anim5" /></path><path d="M 32.4 -22.4 L 32.4 -39.8 " transform="translate(0.0 38.0)" stroke-dasharray="17.4" stroke-dashoffset="17.4"><animate attributeName="stroke-dashoffset" from="17.4" to="0" dur="0.5219999999999999s" begin="anim5.end" fill="freeze" id="anim6" /></path><path d="M 39.0 -28.2 C 40.6 -30.2 42.2 -33.0 43.5 -36.0 " transform="translate(0.0 38.0)" stroke-dasharray="9.029596230619687" stroke-dashoffset="9.029596230619687"><animate attributeName="stroke-dashoffset" from="9.029596230619687" to="0" dur="0.2708878869185906s" begin="anim6.end" fill="freeze" id="anim7" /></path><path d="M 10.9 2.6 L 10.9 -40.5" transform="translate(0.0 38.0)" stroke-dasharray="43.1" stroke-dashoffset="43.1"><animate attributeName="stroke-dashoffset" from="43.1" to="0" dur="1.293s" begin="anim7.end" fill="freeze" id="anim_end" /></path></g></svg>