<?xml version='1.0' encoding='utf-8'?>
<svg viewBox="0.0 -6.0 50.0 50.0" version="1.1" xmlns="http://www.w3.org/2000/svg"><rect x="-1000" y="-1000" width="2000" height="2000" stroke="white" fill="white" /><g style="fill:none;stroke:#000000;stroke-width:1"><path d="M 44.8 -28.5 L 44.8 -31.5 C 44.8 -33.3 43.9 -34.2 41.4 -34.2 L 24.2 -34.2 C 21.7 -34.2 20.8 -33.3 20.8 -31.5 L 20.8 -27.7 " transform="translate(0.0 38.0)" stroke-dasharray="34.02880044110918" stroke-dashoffset="34.02880044110918"><animate attributeName="stroke-dashoffset" from="34.02880044110918" to="0" dur="1.0208640132332754s" begin="0s" fill="freeze" /></path><path d="M 2.8 -9.8 C 5.6 -14.2 8.0 -20.4 9.2 -26.2 " transform="translate(0.0 38.0)" stroke-dasharray="17.691938281887836" stroke-dashoffset="17.691938281887836"><animate attributeName="stroke-dashoffset" from="17.691938281887836" to="0" dur="0.530758148456635s" begin="1.0208640132332754s" fill="freeze" /></path><path d="M 10.3 2.6 L 10.3 -40.5 " transform="translate(0.0 38.0)" stroke-dasharray="43.1" stroke-dashoffset="43.1"><animate attributeName="stroke-dashoffset" from="43.1" to="0" dur="1.293s" begin="1.5516221616899104s" fill="freeze" /></path><path d="M 45.9 0.8 L 18.4 0.8 " transform="translate(0.0 38.0)" stroke-dasharray="27.5" stroke-dashoffset="27.5"><animate attributeName="stroke-dashoffset" from="27.5" to="0" dur="0.825s" begin="2.8446221616899106s" fill="freeze" /></path><path d="M 15.8 -16.6 C 14.7 -18.3 12.8 -20.1 10.9 -21.6 " transform="translate(0.0 38.0)" stroke-dasharray="7.029132879106554" stroke-dashoffset="7.029132879106554"><animate attributeName="stroke-dashoffset" from="7.029132879106554" to="0" dur="0.21087398637319663s" begin="3.6696221616899107s" fill="freeze" /></path><path d="M 31.8 0.8 L 31.8 -12.1 " transform="translate(0.0 38.0)" stroke-dasharray="12.9" stroke-dashoffset="12.9"><animate attributeName="stroke-dashoffset" from="12.9" to="0" dur="0.387s" begin="3.8804961480631075s" fill="freeze" /></path><path d="M 15.8 -29.1 L 3.5 -29.1 " transform="translate(0.0 38.0)" stroke-dasharray="12.3" stroke-dashoffset="12.3"><animate attributeName="stroke-dashoffset" from="12.3" to="0" dur="0.369s" begin="4.267496148063108s" fill="freeze" /></path><path d="M 42.4 -11.8 L 22.1 -11.8 " transform="translate(0.0 38.0)" stroke-dasharray="20.299999999999997" stroke-dashoffset="20.299999999999997"><animate attributeName="stroke-dashoffset" from="20.299999999999997" to="0" dur="0.6089999999999999s" begin="4.636496148063108s" fill="freeze" /></path><path d="M 20.9 -17.1 C 25.1 -19.6 27.9 -23.4 28.4 -29.0 " transform="translate(0.0 38.0)" stroke-dasharray="14.65592800616755" stroke-dashoffset="14.65592800616755"><animate attributeName="stroke-dashoffset" from="14.65592800616755" to="0" dur="0.4396778401850265s" begin="5.245496148063108s" fill="freeze" /></path><path d="M 45.8 -23.2 C 45.2 -19.7 43.8 -18.9 39.9 -18.9 C 36.8 -18.9 36.1 -19.5 36.1 -21.9 L 36.1 -29.1 " transform="translate(0.0 38.0)" stroke-dasharray="21.275157629932785" stroke-dashoffset="21.275157629932785"><animate attributeName="stroke-dashoffset" from="21.275157629932785" to="0" dur="0.6382547288979835s" begin="5.685173988248134s" fill="freeze" /></path><path d="M 32.1 -34.1 L 32.1 -40.3" transform="translate(0.0 38.0)" stroke-dasharray="6.199999999999996" stroke-dashoffset="6.199999999999996"><animate attributeName="stroke-dashoffset" from="6.199999999999996" to="0" dur="0.18599999999999986s" begin="6.323428717146117s" fill="freeze" /></path></g></svg>