<?xml version='1.0' encoding='utf-8'?>
<svg viewBox="0.0 -6.0 50.0 50.0" version="1.1" xmlns="http://www.w3.org/2000/svg"><rect x="-1000" y="-1000" width="2000" height="2000" stroke="white" fill="white" /><g style="fill:none;stroke:#000000;stroke-width:1"><path d="M 19.9 2.4 L 19.9 -35.8 C 19.9 -37.9 20.7 -38.6 22.9 -38.6 L 25.6 -38.6 C 27.8 -38.6 28.6 -37.9 28.6 -35.8 L 28.6 -26.5 C 28.6 -24.4 27.8 -23.6 25.6 -23.6 L 20.8 -23.6 " transform="translate(0.0 38.0)" stroke-dasharray="69.50887006376144" stroke-dashoffset="69.50887006376144"><animate attributeName="stroke-dashoffset" from="69.50887006376144" to="0" dur="2.085266101912843s" begin="0s; anim_end.end" fill="freeze" id="anim0" /></path><path d="M 2.6 -10.1 C 5.3 -14.4 7.5 -20.4 8.7 -26.2 " transform="translate(0.0 38.0)" stroke-dasharray="17.30043878029177" stroke-dashoffset="17.30043878029177"><animate attributeName="stroke-dashoffset" from="17.30043878029177" to="0" dur="0.5190131634087531s" begin="anim0.end" fill="freeze" id="anim1" /></path><path d="M 15.2 -17.4 C 13.9 -19.1 12.2 -21.0 10.3 -22.5 " transform="translate(0.0 38.0)" stroke-dasharray="7.090196130937481" stroke-dashoffset="7.090196130937481"><animate attributeName="stroke-dashoffset" from="7.090196130937481" to="0" dur="0.21270588392812442s" begin="anim1.end" fill="freeze" id="anim2" /></path><path d="M 14.9 -29.2 L 3.0 -29.2 " transform="translate(0.0 38.0)" stroke-dasharray="11.9" stroke-dashoffset="11.9"><animate attributeName="stroke-dashoffset" from="11.9" to="0" dur="0.357s" begin="anim2.end" fill="freeze" id="anim3" /></path><path d="M 27.8 -31.3 L 20.0 -31.3 " transform="translate(0.0 38.0)" stroke-dasharray="7.800000000000001" stroke-dashoffset="7.800000000000001"><animate attributeName="stroke-dashoffset" from="7.800000000000001" to="0" dur="0.234s" begin="anim3.end" fill="freeze" id="anim4" /></path><path d="M 37.3 0.9 C 38.3 1.1 39.4 1.2 40.3 1.2 C 42.9 1.2 44.0 0.2 44.0 -2.4 L 44.0 -35.8 C 44.0 -37.9 43.1 -38.6 41.0 -38.6 L 38.0 -38.6 C 35.9 -38.6 35.0 -37.9 35.0 -35.8 L 35.0 -26.5 C 35.0 -24.4 35.9 -23.6 38.0 -23.6 L 43.1 -23.6 " transform="translate(0.0 38.0)" stroke-dasharray="74.26231906648837" stroke-dashoffset="74.26231906648837"><animate attributeName="stroke-dashoffset" from="74.26231906648837" to="0" dur="2.2278695719946513s" begin="anim4.end" fill="freeze" id="anim5" /></path><path d="M 43.9 -31.3 L 35.5 -31.3 " transform="translate(0.0 38.0)" stroke-dasharray="8.399999999999999" stroke-dashoffset="8.399999999999999"><animate attributeName="stroke-dashoffset" from="8.399999999999999" to="0" dur="0.25199999999999995s" begin="anim5.end" fill="freeze" id="anim6" /></path><path d="M 9.7 2.6 L 9.7 -40.4" transform="translate(0.0 38.0)" stroke-dasharray="43.0" stroke-dashoffset="43.0"><animate attributeName="stroke-dashoffset" from="43.0" to="0" dur="1.29s" begin="anim6.end" fill="freeze" id="anim_end" /></path></g></svg>