<?xml version='1.0' encoding='utf-8'?>
<svg viewBox="0.0 -6.0 50.0 50.0" version="1.1" xmlns="http://www.w3.org/2000/svg"><rect x="-1000" y="-1000" width="2000" height="2000" stroke="white" fill="white" /><g style="fill:none;stroke:#000000;stroke-width:1"><path d="M 8.1 -5.3 L 10.8 -5.3 C 12.9 -5.3 13.7 -6.2 13.7 -8.4 L 13.7 -34.4 C 13.7 -36.6 12.8 -37.5 10.8 -37.5 L 8.1 -37.5 C 6.0 -37.5 5.1 -36.6 5.1 -34.4 L 5.1 -8.4 C 5.1 -6.2 6.0 -5.3 8.1 -5.3 Z " transform="translate(0.0 38.0)" stroke-dasharray="77.27789707767094" stroke-dashoffset="77.27789707767094"><animate attributeName="stroke-dashoffset" from="77.27789707767094" to="0" dur="2.3183369123301283s" begin="0s" fill="freeze" /></path><path d="M 13.2 -22.4 L 5.2 -22.4 " transform="translate(0.0 38.0)" stroke-dasharray="7.999999999999999" stroke-dashoffset="7.999999999999999"><animate attributeName="stroke-dashoffset" from="7.999999999999999" to="0" dur="0.23999999999999996s" begin="2.3183369123301283s" fill="freeze" /></path><path d="M 17.6 -10.2 C 20.1 -14.6 22.1 -20.6 23.1 -26.4 " transform="translate(0.0 38.0)" stroke-dasharray="17.186656966709016" stroke-dashoffset="17.186656966709016"><animate attributeName="stroke-dashoffset" from="17.186656966709016" to="0" dur="0.5155997090012705s" begin="2.558336912330128s" fill="freeze" /></path><path d="M 24.1 2.8 L 24.1 -40.3 " transform="translate(0.0 38.0)" stroke-dasharray="43.099999999999994" stroke-dashoffset="43.099999999999994"><animate attributeName="stroke-dashoffset" from="43.099999999999994" to="0" dur="1.2929999999999997s" begin="3.0739366213313986s" fill="freeze" /></path><path d="M 29.6 -17.4 C 28.5 -19.1 26.9 -20.9 25.0 -22.4 " transform="translate(0.0 38.0)" stroke-dasharray="6.823393179574035" stroke-dashoffset="6.823393179574035"><animate attributeName="stroke-dashoffset" from="6.823393179574035" to="0" dur="0.20470179538722105s" begin="4.366936621331398s" fill="freeze" /></path><path d="M 29.6 1.8 C 32.9 -3.8 34.9 -11.8 34.9 -23.2 L 34.9 -37.0 " transform="translate(0.0 38.0)" stroke-dasharray="39.649770796385425" stroke-dashoffset="39.649770796385425"><animate attributeName="stroke-dashoffset" from="39.649770796385425" to="0" dur="1.1894931238915627s" begin="4.571638416718619s" fill="freeze" /></path><path d="M 42.5 2.5 L 42.5 -23.4 " transform="translate(0.0 38.0)" stroke-dasharray="25.9" stroke-dashoffset="25.9"><animate attributeName="stroke-dashoffset" from="25.9" to="0" dur="0.7769999999999999s" begin="5.761131540610181s" fill="freeze" /></path><path d="M 29.6 -29.4 L 18.1 -29.4 " transform="translate(0.0 38.0)" stroke-dasharray="11.5" stroke-dashoffset="11.5"><animate attributeName="stroke-dashoffset" from="11.5" to="0" dur="0.345s" begin="6.538131540610181s" fill="freeze" /></path><path d="M 47.0 -24.4 L 34.9 -24.4 " transform="translate(0.0 38.0)" stroke-dasharray="12.100000000000001" stroke-dashoffset="12.100000000000001"><animate attributeName="stroke-dashoffset" from="12.100000000000001" to="0" dur="0.36300000000000004s" begin="6.883131540610181s" fill="freeze" /></path><path d="M 35.0 -36.0 C 38.5 -36.9 41.9 -37.9 44.6 -39.1" transform="translate(0.0 38.0)" stroke-dasharray="10.099123493375759" stroke-dashoffset="10.099123493375759"><animate attributeName="stroke-dashoffset" from="10.099123493375759" to="0" dur="0.3029737048012727s" begin="7.246131540610182s" fill="freeze" /></path></g></svg>