<?xml version='1.0' encoding='utf-8'?>
<svg viewBox="0.0 -6.0 50.0 50.0" version="1.1" xmlns="http://www.w3.org/2000/svg"><rect x="-1000" y="-1000" width="2000" height="2000" stroke="white" fill="white" /><g style="fill:none;stroke:#000000;stroke-width:1"><path d="M 16.6 1.6 C 22.9 -3.8 27.8 -12.9 29.4 -22.9 C 29.6 -25.2 28.8 -26.3 26.3 -26.3 L 20.3 -26.3 " transform="translate(0.0 38.0)" stroke-dasharray="39.655052876540054" stroke-dashoffset="39.655052876540054"><animate attributeName="stroke-dashoffset" from="39.655052876540054" to="0" dur="1.1896515862962016s" begin="0s" fill="freeze" /></path><path d="M 5.5 0.5 C 7.7 -3.0 10.0 -8.3 11.3 -12.7 " transform="translate(0.0 38.0)" stroke-dasharray="14.456242471614317" stroke-dashoffset="14.456242471614317"><animate attributeName="stroke-dashoffset" from="14.456242471614317" to="0" dur="0.4336872741484295s" begin="1.1896515862962016s" fill="freeze" /></path><path d="M 8.4 -23.2 C 7.2 -24.6 5.3 -26.1 4.2 -26.9 " transform="translate(0.0 38.0)" stroke-dasharray="5.608257130601457" stroke-dashoffset="5.608257130601457"><animate attributeName="stroke-dashoffset" from="5.608257130601457" to="0" dur="0.1682477139180437s" begin="1.623338860444631s" fill="freeze" /></path><path d="M 25.4 -12.4 C 23.9 -14.2 22.3 -15.4 21.3 -16.1 " transform="translate(0.0 38.0)" stroke-dasharray="5.539412611451957" stroke-dashoffset="5.539412611451957"><animate attributeName="stroke-dashoffset" from="5.539412611451957" to="0" dur="0.1661823783435587s" begin="1.7915865743626747s" fill="freeze" /></path><path d="M 15.8 -16.0 C 19.1 -21.1 21.4 -28.2 22.5 -36.2 " transform="translate(0.0 38.0)" stroke-dasharray="21.44381916375552" stroke-dashoffset="21.44381916375552"><animate attributeName="stroke-dashoffset" from="21.44381916375552" to="0" dur="0.6433145749126656s" begin="1.9577689527062334s" fill="freeze" /></path><path d="M 11.2 -35.1 C 10.1 -36.4 8.3 -38.0 7.2 -38.9 " transform="translate(0.0 38.0)" stroke-dasharray="5.523533672002198" stroke-dashoffset="5.523533672002198"><animate attributeName="stroke-dashoffset" from="5.523533672002198" to="0" dur="0.16570601016006595s" begin="2.601083527618899s" fill="freeze" /></path><path d="M 36.8 -8.8 L 36.8 -35.8 " transform="translate(0.0 38.0)" stroke-dasharray="26.999999999999996" stroke-dashoffset="26.999999999999996"><animate attributeName="stroke-dashoffset" from="26.999999999999996" to="0" dur="0.8099999999999998s" begin="2.7667895377789646s" fill="freeze" /></path><path d="M 38.9 1.0 C 39.8 1.1 40.7 1.2 41.4 1.2 C 43.9 1.2 44.6 0.2 44.6 -2.3 L 44.6 -39.4 " transform="translate(0.0 38.0)" stroke-dasharray="45.18315357914105" stroke-dashoffset="45.18315357914105"><animate attributeName="stroke-dashoffset" from="45.18315357914105" to="0" dur="1.3554946073742313s" begin="3.5767895377789642s" fill="freeze" /></path><path d="M 31.6 -37.1 L 16.3 -37.1" transform="translate(0.0 38.0)" stroke-dasharray="15.3" stroke-dashoffset="15.3"><animate attributeName="stroke-dashoffset" from="15.3" to="0" dur="0.459s" begin="4.932284145153195s" fill="freeze" /></path></g></svg>