<?xml version='1.0' encoding='utf-8'?>
<svg viewBox="0.0 -6.0 50.0 50.0" version="1.1" xmlns="http://www.w3.org/2000/svg"><rect x="-1000" y="-1000" width="2000" height="2000" stroke="white" fill="white" /><g style="fill:none;stroke:#000000;stroke-width:1"><path d="M 5.5 1.4 C 6.3 1.6 7.2 1.7 7.9 1.7 C 10.2 1.7 11.3 0.8 11.3 -1.9 L 11.3 -39.9 " transform="translate(0.0 38.0)" stroke-dasharray="46.18660349234798" stroke-dashoffset="46.18660349234798"><animate attributeName="stroke-dashoffset" from="46.18660349234798" to="0" dur="1.3855981047704393s" begin="0s" fill="freeze" /></path><path d="M 4.2 -13.4 C 8.6 -14.6 13.8 -16.4 17.2 -18.0 " transform="translate(0.0 38.0)" stroke-dasharray="13.804317944503858" stroke-dashoffset="13.804317944503858"><animate attributeName="stroke-dashoffset" from="13.804317944503858" to="0" dur="0.41412953833511573s" begin="1.3855981047704393s" fill="freeze" /></path><path d="M 28.4 1.2 L 38.1 1.2 C 41.2 1.2 42.3 0.1 42.3 -2.3 L 42.3 -9.0 C 42.3 -11.3 41.3 -12.4 38.1 -12.4 L 28.4 -12.4 C 25.1 -12.4 24.2 -11.3 24.2 -9.0 L 24.2 -2.3 C 24.2 0.1 25.1 1.2 28.4 1.2 Z " transform="translate(0.0 38.0)" stroke-dasharray="58.117855901024384" stroke-dashoffset="58.117855901024384"><animate attributeName="stroke-dashoffset" from="58.117855901024384" to="0" dur="1.7435356770307315s" begin="1.799727643105555s" fill="freeze" /></path><path d="M 17.1 -29.4 L 4.4 -29.4 " transform="translate(0.0 38.0)" stroke-dasharray="12.700000000000001" stroke-dashoffset="12.700000000000001"><animate attributeName="stroke-dashoffset" from="12.700000000000001" to="0" dur="0.381s" begin="3.543263320136287s" fill="freeze" /></path><path d="M 46.1 -24.0 L 20.6 -24.0 " transform="translate(0.0 38.0)" stroke-dasharray="25.5" stroke-dashoffset="25.5"><animate attributeName="stroke-dashoffset" from="25.5" to="0" dur="0.765s" begin="3.924263320136287s" fill="freeze" /></path><path d="M 33.1 -12.8 L 33.1 -35.8 " transform="translate(0.0 38.0)" stroke-dasharray="22.999999999999996" stroke-dashoffset="22.999999999999996"><animate attributeName="stroke-dashoffset" from="22.999999999999996" to="0" dur="0.6899999999999998s" begin="4.689263320136287s" fill="freeze" /></path><path d="M 22.9 -34.8 C 29.1 -35.3 36.5 -36.8 41.8 -38.5" transform="translate(0.0 38.0)" stroke-dasharray="19.295588150267886" stroke-dashoffset="19.295588150267886"><animate attributeName="stroke-dashoffset" from="19.295588150267886" to="0" dur="0.5788676445080365s" begin="5.379263320136286s" fill="freeze" /></path></g></svg>