<?xml version='1.0' encoding='utf-8'?>
<svg viewBox="0.0 -6.0 50.0 50.0" version="1.1" xmlns="http://www.w3.org/2000/svg"><rect x="-1000" y="-1000" width="2000" height="2000" stroke="white" fill="white" /><g style="fill:none;stroke:#000000;stroke-width:1"><path d="M 35.2 1.1 C 36.1 1.2 37.0 1.4 38.0 1.4 C 40.7 1.4 42.5 -0.2 43.0 -4.3 C 43.9 -10.7 44.4 -20.4 44.4 -29.0 C 44.4 -31.6 43.3 -33.0 39.7 -33.0 L 22.6 -33.0 " transform="translate(0.0 38.0)" stroke-dasharray="60.29088473701627" stroke-dashoffset="60.29088473701627"><animate attributeName="stroke-dashoffset" from="60.29088473701627" to="0" dur="1.8087265421104881s" begin="0s; 15s; 30s; 45s" fill="freeze" id="anim0" /></path><path d="M 3.8 -13.4 C 7.8 -14.8 11.7 -16.4 14.8 -18.1 " transform="translate(0.0 38.0)" stroke-dasharray="11.974800781233952" stroke-dashoffset="11.974800781233952"><animate attributeName="stroke-dashoffset" from="11.974800781233952" to="0" dur="0.35924402343701856s" begin="anim0.end" fill="freeze" id="anim1" /></path><path d="M 4.5 1.6 C 5.3 1.9 6.2 1.9 6.8 1.9 C 8.9 1.9 9.9 1.0 9.9 -1.4 L 9.9 -40.3 " transform="translate(0.0 38.0)" stroke-dasharray="46.48356389369724" stroke-dashoffset="46.48356389369724"><animate attributeName="stroke-dashoffset" from="46.48356389369724" to="0" dur="1.394506916810917s" begin="anim1.end" fill="freeze" id="anim2" /></path><path d="M 17.8 -3.6 C 21.9 -7.0 25.6 -11.2 27.9 -15.4 " transform="translate(0.0 38.0)" stroke-dasharray="15.61965147600178" stroke-dashoffset="15.61965147600178"><animate attributeName="stroke-dashoffset" from="15.61965147600178" to="0" dur="0.4685895442800534s" begin="anim2.end" fill="freeze" id="anim3" /></path><path d="M 14.7 -29.4 L 3.8 -29.4 " transform="translate(0.0 38.0)" stroke-dasharray="10.899999999999999" stroke-dashoffset="10.899999999999999"><animate attributeName="stroke-dashoffset" from="10.899999999999999" to="0" dur="0.32699999999999996s" begin="anim3.end" fill="freeze" id="anim4" /></path><path d="M 29.3 -0.1 L 29.3 -27.9 " transform="translate(0.0 38.0)" stroke-dasharray="27.799999999999997" stroke-dashoffset="27.799999999999997"><animate attributeName="stroke-dashoffset" from="27.799999999999997" to="0" dur="0.8339999999999999s" begin="anim4.end" fill="freeze" id="anim5" /></path><path d="M 36.5 -7.2 C 34.7 -9.1 32.6 -10.7 30.2 -12.1 " transform="translate(0.0 38.0)" stroke-dasharray="8.008516809106997" stroke-dashoffset="8.008516809106997"><animate attributeName="stroke-dashoffset" from="8.008516809106997" to="0" dur="0.24025550427320988s" begin="anim5.end" fill="freeze" id="anim6" /></path><path d="M 38.0 -16.9 L 19.9 -16.9 " transform="translate(0.0 38.0)" stroke-dasharray="18.1" stroke-dashoffset="18.1"><animate attributeName="stroke-dashoffset" from="18.1" to="0" dur="0.543s" begin="anim6.end" fill="freeze" id="anim7" /></path><path d="M 24.1 -21.4 C 23.6 -22.5 22.9 -23.9 22.2 -25.0 " transform="translate(0.0 38.0)" stroke-dasharray="4.0736522553228145" stroke-dashoffset="4.0736522553228145"><animate attributeName="stroke-dashoffset" from="4.0736522553228145" to="0" dur="0.12220956765968444s" begin="anim7.end" fill="freeze" id="anim8" /></path><path d="M 17.6 -25.7 C 20.7 -29.4 23.6 -34.8 25.4 -39.6 " transform="translate(0.0 38.0)" stroke-dasharray="16.006931010555206" stroke-dashoffset="16.006931010555206"><animate attributeName="stroke-dashoffset" from="16.006931010555206" to="0" dur="0.48020793031665615s" begin="anim8.end" fill="freeze" id="anim9" /></path><path d="M 34.4 -21.1 C 35.4 -22.4 36.4 -24.1 37.0 -25.6" transform="translate(0.0 38.0)" stroke-dasharray="5.2118883291520826" stroke-dashoffset="5.2118883291520826"><animate attributeName="stroke-dashoffset" from="5.2118883291520826" to="0" dur="0.15635664987456246s" begin="anim9.end" fill="freeze" id="anim_end" /></path></g></svg>