<?xml version='1.0' encoding='utf-8'?>
<svg viewBox="0.0 -6.0 50.0 50.0" version="1.1" xmlns="http://www.w3.org/2000/svg"><rect x="-1000" y="-1000" width="2000" height="2000" stroke="white" fill="white" /><g style="fill:none;stroke:#000000;stroke-width:1"><path d="M 24.6 0.7 L 38.3 0.7 C 41.0 0.7 42.1 -0.5 42.1 -2.7 L 42.1 -11.5 C 42.1 -13.8 41.0 -14.9 38.3 -14.9 L 24.6 -14.9 C 21.9 -14.9 20.7 -13.8 20.7 -11.5 L 20.7 -2.7 C 20.7 -0.5 21.9 0.7 24.6 0.7 Z " transform="translate(0.0 38.0)" stroke-dasharray="68.65966329344715" stroke-dashoffset="68.65966329344715"><animate attributeName="stroke-dashoffset" from="68.65966329344715" to="0" dur="2.0597898988034147s" begin="0s" fill="freeze" /></path><path d="M 6.2 0.3 C 8.6 -3.1 11.2 -8.4 12.7 -12.9 " transform="translate(0.0 38.0)" stroke-dasharray="14.758112978284684" stroke-dashoffset="14.758112978284684"><animate attributeName="stroke-dashoffset" from="14.758112978284684" to="0" dur="0.4427433893485405s" begin="2.0597898988034147s" fill="freeze" /></path><path d="M 9.3 -23.1 C 8.0 -24.6 6.0 -26.1 4.8 -27.0 " transform="translate(0.0 38.0)" stroke-dasharray="5.965654673386671" stroke-dashoffset="5.965654673386671"><animate attributeName="stroke-dashoffset" from="5.965654673386671" to="0" dur="0.1789696402016001s" begin="2.5025332881519553s" fill="freeze" /></path><path d="M 13.3 -34.8 C 12.2 -36.2 10.3 -37.9 9.1 -38.8 " transform="translate(0.0 38.0)" stroke-dasharray="5.812998091031105" stroke-dashoffset="5.812998091031105"><animate attributeName="stroke-dashoffset" from="5.812998091031105" to="0" dur="0.17438994273093314s" begin="2.6815029283535554s" fill="freeze" /></path><path d="M 30.8 -14.8 L 30.8 -39.8 " transform="translate(0.0 38.0)" stroke-dasharray="24.999999999999996" stroke-dashoffset="24.999999999999996"><animate attributeName="stroke-dashoffset" from="24.999999999999996" to="0" dur="0.7499999999999999s" begin="2.8558928710844884s" fill="freeze" /></path><path d="M 46.2 -28.8 L 30.6 -28.8" transform="translate(0.0 38.0)" stroke-dasharray="15.600000000000001" stroke-dashoffset="15.600000000000001"><animate attributeName="stroke-dashoffset" from="15.600000000000001" to="0" dur="0.468s" begin="3.6058928710844884s" fill="freeze" /></path></g></svg>