<?xml version='1.0' encoding='utf-8'?>
<svg viewBox="0.0 -6.0 50.0 50.0" version="1.1" xmlns="http://www.w3.org/2000/svg"><rect x="-1000" y="-1000" width="2000" height="2000" stroke="white" fill="white" /><g style="fill:none;stroke:#000000;stroke-width:1"><path d="M 6.0 1.6 C 6.8 1.8 7.6 1.9 8.3 1.9 C 10.7 1.9 11.8 0.9 11.8 -1.9 L 11.8 -39.9 " transform="translate(0.0 38.0)" stroke-dasharray="46.3313835487847" stroke-dashoffset="46.3313835487847"><animate attributeName="stroke-dashoffset" from="46.3313835487847" to="0" dur="1.389941506463541s" begin="0s; 15s; 30s; 45s" fill="freeze" id="anim0" /></path><path d="M 4.5 -13.4 C 8.8 -14.6 14.6 -16.5 18.0 -18.1 " transform="translate(0.0 38.0)" stroke-dasharray="14.30781183829474" stroke-dashoffset="14.30781183829474"><animate attributeName="stroke-dashoffset" from="14.30781183829474" to="0" dur="0.4292343551488422s" begin="anim0.end" fill="freeze" id="anim1" /></path><path d="M 17.9 -29.4 L 4.7 -29.4 " transform="translate(0.0 38.0)" stroke-dasharray="13.2" stroke-dashoffset="13.2"><animate attributeName="stroke-dashoffset" from="13.2" to="0" dur="0.39599999999999996s" begin="anim1.end" fill="freeze" id="anim2" /></path><path d="M 19.5 -9.2 L 46.5 -14.7 " transform="translate(0.0 38.0)" stroke-dasharray="27.55449146690971" stroke-dashoffset="27.55449146690971"><animate attributeName="stroke-dashoffset" from="27.55449146690971" to="0" dur="0.8266347440072913s" begin="anim2.end" fill="freeze" id="anim3" /></path><path d="M 29.9 -19.6 C 28.6 -21.1 26.8 -22.6 25.1 -23.8 " transform="translate(0.0 38.0)" stroke-dasharray="6.392576476571853" stroke-dashoffset="6.392576476571853"><animate attributeName="stroke-dashoffset" from="6.392576476571853" to="0" dur="0.1917772942971556s" begin="anim3.end" fill="freeze" id="anim4" /></path><path d="M 39.1 2.3 L 39.1 -39.9 " transform="translate(0.0 38.0)" stroke-dasharray="42.199999999999996" stroke-dashoffset="42.199999999999996"><animate attributeName="stroke-dashoffset" from="42.199999999999996" to="0" dur="1.2659999999999998s" begin="anim4.end" fill="freeze" id="anim5" /></path><path d="M 31.8 -30.3 C 30.4 -31.8 28.8 -33.2 27.2 -34.4" transform="translate(0.0 38.0)" stroke-dasharray="6.1697939889308495" stroke-dashoffset="6.1697939889308495"><animate attributeName="stroke-dashoffset" from="6.1697939889308495" to="0" dur="0.18509381966792549s" begin="anim5.end" fill="freeze" id="anim_end" /></path></g></svg>