<?xml version='1.0' encoding='utf-8'?>
<svg viewBox="0.0 -6.0 50.0 50.0" version="1.1" xmlns="http://www.w3.org/2000/svg"><rect x="-1000" y="-1000" width="2000" height="2000" stroke="white" fill="white" /><g style="fill:none;stroke:#000000;stroke-width:1"><path d="M 15.1 0.4 C 20.2 -2.1 25.4 -6.2 29.9 -11.1 " transform="translate(0.0 38.0)" stroke-dasharray="18.846516614523996" stroke-dashoffset="18.846516614523996"><animate attributeName="stroke-dashoffset" from="18.846516614523996" to="0" dur="0.5653954984357198s" begin="0s" fill="freeze" /></path><path d="M 5.7 0.4 C 8.0 -3.0 10.4 -8.3 11.8 -12.8 " transform="translate(0.0 38.0)" stroke-dasharray="14.585409967392582" stroke-dashoffset="14.585409967392582"><animate attributeName="stroke-dashoffset" from="14.585409967392582" to="0" dur="0.43756229902177746s" begin="0.5653954984357198s" fill="freeze" /></path><path d="M 8.7 -23.1 C 7.5 -24.6 5.5 -26.1 4.3 -26.9 " transform="translate(0.0 38.0)" stroke-dasharray="5.8336786267192275" stroke-dashoffset="5.8336786267192275"><animate attributeName="stroke-dashoffset" from="5.8336786267192275" to="0" dur="0.1750103588015768s" begin="1.0029577974574972s" fill="freeze" /></path><path d="M 30.6 2.3 L 30.6 -16.0 " transform="translate(0.0 38.0)" stroke-dasharray="18.3" stroke-dashoffset="18.3"><animate attributeName="stroke-dashoffset" from="18.3" to="0" dur="0.549s" begin="1.177968156259074s" fill="freeze" /></path><path d="M 44.4 -11.9 L 17.9 -11.9 " transform="translate(0.0 38.0)" stroke-dasharray="26.5" stroke-dashoffset="26.5"><animate attributeName="stroke-dashoffset" from="26.5" to="0" dur="0.7949999999999999s" begin="1.726968156259074s" fill="freeze" /></path><path d="M 45.6 -0.1 C 40.6 -2.5 35.6 -6.2 31.5 -11.1 " transform="translate(0.0 38.0)" stroke-dasharray="18.017383215814764" stroke-dashoffset="18.017383215814764"><animate attributeName="stroke-dashoffset" from="18.017383215814764" to="0" dur="0.5405214964744429s" begin="2.521968156259074s" fill="freeze" /></path><path d="M 27.2 -21.1 L 27.2 -23.9 C 27.2 -25.6 26.3 -26.3 24.4 -26.3 L 20.1 -26.3 C 18.1 -26.3 17.2 -25.6 17.2 -23.9 L 17.2 -21.1 C 17.2 -19.4 18.1 -18.6 20.1 -18.6 L 24.4 -18.6 C 26.3 -18.6 27.2 -19.4 27.2 -21.1 Z " transform="translate(0.0 38.0)" stroke-dasharray="31.539931873568378" stroke-dashoffset="31.539931873568378"><animate attributeName="stroke-dashoffset" from="31.539931873568378" to="0" dur="0.9461979562070513s" begin="3.062489652733517s" fill="freeze" /></path><path d="M 12.1 -35.0 C 10.9 -36.3 9.2 -38.0 8.0 -38.9 " transform="translate(0.0 38.0)" stroke-dasharray="5.664781075346097" stroke-dashoffset="5.664781075346097"><animate attributeName="stroke-dashoffset" from="5.664781075346097" to="0" dur="0.16994343226038292s" begin="4.008687608940568s" fill="freeze" /></path><path d="M 34.0 -23.9 L 34.0 -21.1 C 34.0 -19.4 35.0 -18.6 36.9 -18.6 L 41.8 -18.6 C 43.7 -18.6 44.6 -19.4 44.6 -21.1 L 44.6 -23.9 C 44.6 -25.6 43.7 -26.3 41.8 -26.3 L 36.9 -26.3 C 35.0 -26.3 34.0 -25.6 34.0 -23.9 Z " transform="translate(0.0 38.0)" stroke-dasharray="32.69601517233758" stroke-dashoffset="32.69601517233758"><animate attributeName="stroke-dashoffset" from="32.69601517233758" to="0" dur="0.9808804551701275s" begin="4.178631041200951s" fill="freeze" /></path><path d="M 26.6 -31.1 L 34.7 -31.1 C 36.8 -31.1 37.6 -31.9 37.6 -33.6 L 37.6 -36.2 C 37.6 -37.9 36.8 -38.7 34.7 -38.7 L 26.6 -38.7 C 24.5 -38.7 23.6 -37.9 23.6 -36.2 L 23.6 -33.6 C 23.6 -31.9 24.5 -31.1 26.6 -31.1 Z" transform="translate(0.0 38.0)" stroke-dasharray="39.27117364626958" stroke-dashoffset="39.27117364626958"><animate attributeName="stroke-dashoffset" from="39.27117364626958" to="0" dur="1.1781352093880875s" begin="5.159511496371079s" fill="freeze" /></path></g></svg>