<?xml version='1.0' encoding='utf-8'?>
<svg viewBox="0.0 -6.0 50.0 50.0" version="1.1" xmlns="http://www.w3.org/2000/svg"><rect x="-1000" y="-1000" width="2000" height="2000" stroke="white" fill="white" /><g style="fill:none;stroke:#000000;stroke-width:1"><path d="M 46.5 -3.0 C 45.9 0.2 44.4 1.4 42.5 1.4 C 37.1 1.4 29.3 -5.4 26.9 -18.4 " transform="translate(0.0 38.0)" stroke-dasharray="33.471920111996184" stroke-dashoffset="33.471920111996184"><animate attributeName="stroke-dashoffset" from="33.471920111996184" to="0" dur="1.0041576033598856s" begin="0s" fill="freeze" /></path><path d="M 2.9 -9.7 C 5.8 -14.2 8.2 -20.4 9.5 -26.2 " transform="translate(0.0 38.0)" stroke-dasharray="17.854875741272984" stroke-dashoffset="17.854875741272984"><animate attributeName="stroke-dashoffset" from="17.854875741272984" to="0" dur="0.5356462722381895s" begin="1.0041576033598856s" fill="freeze" /></path><path d="M 16.2 -16.8 C 15.0 -18.5 13.2 -20.3 11.2 -21.8 " transform="translate(0.0 38.0)" stroke-dasharray="7.098062700501288" stroke-dashoffset="7.098062700501288"><animate attributeName="stroke-dashoffset" from="7.098062700501288" to="0" dur="0.21294188101503864s" begin="1.539803875598075s" fill="freeze" /></path><path d="M 18.7 1.9 C 25.9 0.2 35.5 -3.9 40.5 -9.2 " transform="translate(0.0 38.0)" stroke-dasharray="24.753265347998724" stroke-dashoffset="24.753265347998724"><animate attributeName="stroke-dashoffset" from="24.753265347998724" to="0" dur="0.7425979604399617s" begin="1.7527457566131135s" fill="freeze" /></path><path d="M 16.3 -29.1 L 3.6 -29.1 " transform="translate(0.0 38.0)" stroke-dasharray="12.700000000000001" stroke-dashoffset="12.700000000000001"><animate attributeName="stroke-dashoffset" from="12.700000000000001" to="0" dur="0.381s" begin="2.4953437170530752s" fill="freeze" /></path><path d="M 20.3 -11.3 L 44.8 -14.4 " transform="translate(0.0 38.0)" stroke-dasharray="24.695343690663627" stroke-dashoffset="24.695343690663627"><animate attributeName="stroke-dashoffset" from="24.695343690663627" to="0" dur="0.7408603107199088s" begin="2.876343717053075s" fill="freeze" /></path><path d="M 35.4 -17.8 C 34.5 -18.4 33.1 -19.2 32.1 -19.6 " transform="translate(0.0 38.0)" stroke-dasharray="3.76435055653668" stroke-dashoffset="3.76435055653668"><animate attributeName="stroke-dashoffset" from="3.76435055653668" to="0" dur="0.1129305166961004s" begin="3.617204027772984s" fill="freeze" /></path><path d="M 20.5 -21.1 C 26.9 -22.9 34.4 -26.4 39.6 -30.8 " transform="translate(0.0 38.0)" stroke-dasharray="21.569860298355692" stroke-dashoffset="21.569860298355692"><animate attributeName="stroke-dashoffset" from="21.569860298355692" to="0" dur="0.6470958089506708s" begin="3.7301345444690845s" fill="freeze" /></path><path d="M 20.4 -32.8 L 43.9 -35.8 " transform="translate(0.0 38.0)" stroke-dasharray="23.69071548096427" stroke-dashoffset="23.69071548096427"><animate attributeName="stroke-dashoffset" from="23.69071548096427" to="0" dur="0.710721464428928s" begin="4.377230353419756s" fill="freeze" /></path><path d="M 46.1 -25.9 C 45.5 -22.6 43.9 -21.4 42.1 -21.4 C 36.4 -21.4 29.1 -27.7 26.9 -40.5 " transform="translate(0.0 38.0)" stroke-dasharray="32.85986690661277" stroke-dashoffset="32.85986690661277"><animate attributeName="stroke-dashoffset" from="32.85986690661277" to="0" dur="0.9857960071983831s" begin="5.087951817848683s" fill="freeze" /></path><path d="M 36.4 -39.0 C 35.5 -39.6 34.2 -40.2 33.3 -40.6 " transform="translate(0.0 38.0)" stroke-dasharray="3.4923396094390693" stroke-dashoffset="3.4923396094390693"><animate attributeName="stroke-dashoffset" from="3.4923396094390693" to="0" dur="0.10477018828317207s" begin="6.073747825047066s" fill="freeze" /></path><path d="M 10.6 2.6 L 10.6 -40.4" transform="translate(0.0 38.0)" stroke-dasharray="43.0" stroke-dashoffset="43.0"><animate attributeName="stroke-dashoffset" from="43.0" to="0" dur="1.29s" begin="6.178518013330239s" fill="freeze" /></path></g></svg>