<?xml version='1.0' encoding='utf-8'?>
<svg viewBox="0.0 -6.0 50.0 50.0" version="1.1" xmlns="http://www.w3.org/2000/svg"><rect x="-1000" y="-1000" width="2000" height="2000" stroke="white" fill="white" /><g style="fill:none;stroke:#000000;stroke-width:1"><path d="M 4.7 1.4 C 5.6 1.6 6.5 1.6 7.1 1.6 C 9.3 1.6 10.3 0.8 10.3 -1.8 L 10.3 -39.9 " transform="translate(0.0 38.0)" stroke-dasharray="45.96794015228773" stroke-dashoffset="45.96794015228773"><animate attributeName="stroke-dashoffset" from="45.96794015228773" to="0" dur="1.3790382045686318s" begin="0s; 15s; 30s; 45s" fill="freeze" id="anim0" /></path><path d="M 3.8 -13.4 C 7.8 -14.4 12.1 -15.9 15.2 -17.4 " transform="translate(0.0 38.0)" stroke-dasharray="12.10036756733617" stroke-dashoffset="12.10036756733617"><animate attributeName="stroke-dashoffset" from="12.10036756733617" to="0" dur="0.3630110270200851s" begin="anim0.end" fill="freeze" id="anim1" /></path><path d="M 18.6 -1.6 C 20.7 -3.3 22.9 -5.5 24.5 -8.0 " transform="translate(0.0 38.0)" stroke-dasharray="8.740921759325799" stroke-dashoffset="8.740921759325799"><animate attributeName="stroke-dashoffset" from="8.740921759325799" to="0" dur="0.26222765277977395s" begin="anim1.end" fill="freeze" id="anim2" /></path><path d="M 27.2 1.3 C 27.9 1.4 28.8 1.6 29.4 1.6 C 31.5 1.6 32.5 0.7 32.5 -1.6 L 32.5 -13.8 " transform="translate(0.0 38.0)" stroke-dasharray="19.583916954022772" stroke-dashoffset="19.583916954022772"><animate attributeName="stroke-dashoffset" from="19.583916954022772" to="0" dur="0.5875175086206832s" begin="anim2.end" fill="freeze" id="anim3" /></path><path d="M 15.3 -29.4 L 3.9 -29.4 " transform="translate(0.0 38.0)" stroke-dasharray="11.4" stroke-dashoffset="11.4"><animate attributeName="stroke-dashoffset" from="11.4" to="0" dur="0.34199999999999997s" begin="anim3.end" fill="freeze" id="anim4" /></path><path d="M 44.2 -13.9 L 20.4 -13.9 " transform="translate(0.0 38.0)" stroke-dasharray="23.800000000000004" stroke-dashoffset="23.800000000000004"><animate attributeName="stroke-dashoffset" from="23.800000000000004" to="0" dur="0.7140000000000001s" begin="anim4.end" fill="freeze" id="anim5" /></path><path d="M 44.7 -2.9 C 42.9 -4.4 41.0 -6.3 39.5 -8.0 " transform="translate(0.0 38.0)" stroke-dasharray="7.29010643439127" stroke-dashoffset="7.29010643439127"><animate attributeName="stroke-dashoffset" from="7.29010643439127" to="0" dur="0.2187031930317381s" begin="anim5.end" fill="freeze" id="anim6" /></path><path d="M 37.9 -21.4 L 27.2 -21.4 " transform="translate(0.0 38.0)" stroke-dasharray="10.7" stroke-dashoffset="10.7"><animate attributeName="stroke-dashoffset" from="10.7" to="0" dur="0.32099999999999995s" begin="anim6.end" fill="freeze" id="anim7" /></path><path d="M 19.6 -19.8 C 25.2 -24.4 29.7 -31.6 31.8 -39.6 " transform="translate(0.0 38.0)" stroke-dasharray="23.625289941061183" stroke-dashoffset="23.625289941061183"><animate attributeName="stroke-dashoffset" from="23.625289941061183" to="0" dur="0.7087586982318355s" begin="anim7.end" fill="freeze" id="anim8" /></path><path d="M 45.1 -33.0 L 20.4 -33.0 " transform="translate(0.0 38.0)" stroke-dasharray="24.700000000000003" stroke-dashoffset="24.700000000000003"><animate attributeName="stroke-dashoffset" from="24.700000000000003" to="0" dur="0.7410000000000001s" begin="anim8.end" fill="freeze" id="anim9" /></path><path d="M 46.5 -20.6 C 42.5 -23.4 38.4 -27.9 36.0 -32.5" transform="translate(0.0 38.0)" stroke-dasharray="16.008378283074087" stroke-dashoffset="16.008378283074087"><animate attributeName="stroke-dashoffset" from="16.008378283074087" to="0" dur="0.4802513484922226s" begin="anim9.end" fill="freeze" id="anim_end" /></path></g></svg>