<?xml version='1.0' encoding='utf-8'?>
<svg viewBox="0.0 -6.0 50.0 50.0" version="1.1" xmlns="http://www.w3.org/2000/svg"><rect x="-1000" y="-1000" width="2000" height="2000" stroke="white" fill="white" /><g style="fill:none;stroke:#000000;stroke-width:1"><path d="M 3.8 -18.2 C 11.3 -20.9 19.1 -25.5 24.9 -30.8 " transform="translate(0.0 38.0)" stroke-dasharray="24.72522293028586" stroke-dashoffset="24.72522293028586"><animate attributeName="stroke-dashoffset" from="24.72522293028586" to="0" dur="0.7417566879085757s" begin="0s" fill="freeze" /></path><path d="M 6.9 2.5 C 10.4 0.5 13.7 -2.2 16.2 -5.4 " transform="translate(0.0 38.0)" stroke-dasharray="12.2778516769646" stroke-dashoffset="12.2778516769646"><animate attributeName="stroke-dashoffset" from="12.2778516769646" to="0" dur="0.368335550308938s" begin="0.7417566879085757s" fill="freeze" /></path><path d="M 21.1 0.9 C 19.3 -0.8 17.4 -2.2 15.1 -3.5 " transform="translate(0.0 38.0)" stroke-dasharray="7.459477418063572" stroke-dashoffset="7.459477418063572"><animate attributeName="stroke-dashoffset" from="7.459477418063572" to="0" dur="0.22378432254190714s" begin="1.1100922382175138s" fill="freeze" /></path><path d="M 20.8 -11.6 L 20.8 -13.7 C 20.8 -15.3 20.1 -16.1 17.6 -16.1 L 12.8 -16.1 C 10.3 -16.1 9.6 -15.3 9.6 -13.7 L 9.6 -11.6 C 9.6 -9.8 10.3 -9.0 12.8 -9.0 L 17.6 -9.0 C 20.1 -9.0 20.8 -9.8 20.8 -11.6 Z " transform="translate(0.0 38.0)" stroke-dasharray="32.719136462926635" stroke-dashoffset="32.719136462926635"><animate attributeName="stroke-dashoffset" from="32.719136462926635" to="0" dur="0.981574093887799s" begin="1.333876560759421s" fill="freeze" /></path><path d="M 25.8 2.4 C 28.9 0.6 32.0 -2.1 34.5 -5.2 " transform="translate(0.0 38.0)" stroke-dasharray="11.613957202623698" stroke-dashoffset="11.613957202623698"><animate attributeName="stroke-dashoffset" from="11.613957202623698" to="0" dur="0.34841871607871094s" begin="2.31545065464722s" fill="freeze" /></path><path d="M 42.3 2.0 C 39.9 0.1 36.6 -1.9 33.2 -3.6 " transform="translate(0.0 38.0)" stroke-dasharray="10.702417982651093" stroke-dashoffset="10.702417982651093"><animate attributeName="stroke-dashoffset" from="10.702417982651093" to="0" dur="0.3210725394795328s" begin="2.6638693707259313s" fill="freeze" /></path><path d="M 4.6 -30.6 C 7.1 -33.2 9.2 -36.6 10.9 -40.2 " transform="translate(0.0 38.0)" stroke-dasharray="11.53173951750361" stroke-dashoffset="11.53173951750361"><animate attributeName="stroke-dashoffset" from="11.53173951750361" to="0" dur="0.34595218552510826s" begin="2.984941910205464s" fill="freeze" /></path><path d="M 31.1 -21.2 L 18.9 -21.2 " transform="translate(0.0 38.0)" stroke-dasharray="12.200000000000003" stroke-dashoffset="12.200000000000003"><animate attributeName="stroke-dashoffset" from="12.200000000000003" to="0" dur="0.36600000000000005s" begin="3.330894095730572s" fill="freeze" /></path><path d="M 28.9 -13.7 L 28.9 -11.6 C 28.9 -9.8 29.6 -9.0 32.1 -9.0 L 37.2 -9.0 C 39.8 -9.0 40.5 -9.8 40.5 -11.6 L 40.5 -13.7 C 40.5 -15.3 39.8 -16.1 37.2 -16.1 L 32.1 -16.1 C 29.6 -16.1 28.9 -15.3 28.9 -13.7 Z " transform="translate(0.0 38.0)" stroke-dasharray="33.50169310884041" stroke-dashoffset="33.50169310884041"><animate attributeName="stroke-dashoffset" from="33.50169310884041" to="0" dur="1.0050507932652124s" begin="3.6968940957305723s" fill="freeze" /></path><path d="M 16.4 -31.2 C 15.6 -32.9 14.8 -34.2 13.7 -35.6 " transform="translate(0.0 38.0)" stroke-dasharray="5.174443081616947" stroke-dashoffset="5.174443081616947"><animate attributeName="stroke-dashoffset" from="5.174443081616947" to="0" dur="0.15523329244850842s" begin="4.701944888995785s" fill="freeze" /></path><path d="M 22.1 -35.8 L 8.9 -35.8 " transform="translate(0.0 38.0)" stroke-dasharray="13.200000000000001" stroke-dashoffset="13.200000000000001"><animate attributeName="stroke-dashoffset" from="13.200000000000001" to="0" dur="0.396s" begin="4.857178181444293s" fill="freeze" /></path><path d="M 46.0 -19.4 C 38.2 -21.8 30.5 -25.9 25.1 -30.1 " transform="translate(0.0 38.0)" stroke-dasharray="23.598362064518064" stroke-dashoffset="23.598362064518064"><animate attributeName="stroke-dashoffset" from="23.598362064518064" to="0" dur="0.7079508619355419s" begin="5.253178181444293s" fill="freeze" /></path><path d="M 26.1 -33.6 C 27.9 -35.4 29.5 -37.8 30.7 -40.3 " transform="translate(0.0 38.0)" stroke-dasharray="8.164207245382563" stroke-dashoffset="8.164207245382563"><animate attributeName="stroke-dashoffset" from="8.164207245382563" to="0" dur="0.2449262173614769s" begin="5.9611290433798345s" fill="freeze" /></path><path d="M 36.8 -31.4 C 36.2 -32.6 35.1 -34.3 34.0 -35.7 " transform="translate(0.0 38.0)" stroke-dasharray="5.138629839602819" stroke-dashoffset="5.138629839602819"><animate attributeName="stroke-dashoffset" from="5.138629839602819" to="0" dur="0.15415889518808457s" begin="6.206055260741311s" fill="freeze" /></path><path d="M 45.6 -35.8 L 28.1 -35.8" transform="translate(0.0 38.0)" stroke-dasharray="17.5" stroke-dashoffset="17.5"><animate attributeName="stroke-dashoffset" from="17.5" to="0" dur="0.525s" begin="6.360214155929396s" fill="freeze" /></path></g></svg>