<?xml version='1.0' encoding='utf-8'?>
<svg viewBox="0.0 -6.0 50.0 50.0" version="1.1" xmlns="http://www.w3.org/2000/svg"><rect x="-1000" y="-1000" width="2000" height="2000" stroke="white" fill="white" /><g style="fill:none;stroke:#000000;stroke-width:1"><path d="M 47.5 -4.5 C 47.1 -0.5 46.1 0.5 45.0 0.5 C 43.8 0.5 42.7 -0.5 42.0 -4.8 C 41.2 -9.1 40.7 -16.4 40.8 -23.6 C 40.8 -25.4 39.8 -26.2 37.6 -26.2 L 30.6 -26.2 " transform="translate(0.0 38.0)" stroke-dasharray="43.23091898011721" stroke-dashoffset="43.23091898011721"><animate attributeName="stroke-dashoffset" from="43.23091898011721" to="0" dur="1.2969275694035163s" begin="0s; 15s; 30s; 45s" fill="freeze" id="anim0" /></path><path d="M 4.3 1.9 C 7.4 -2.4 9.2 -8.6 9.2 -17.8 L 9.2 -29.4 " transform="translate(0.0 38.0)" stroke-dasharray="32.22961155310898" stroke-dashoffset="32.22961155310898"><animate attributeName="stroke-dashoffset" from="32.22961155310898" to="0" dur="0.9668883465932694s" begin="anim0.end" fill="freeze" id="anim1" /></path><path d="M 17.2 1.8 L 17.2 -29.5 " transform="translate(0.0 38.0)" stroke-dasharray="31.3" stroke-dashoffset="31.3"><animate attributeName="stroke-dashoffset" from="31.3" to="0" dur="0.939s" begin="anim1.end" fill="freeze" id="anim2" /></path><path d="M 23.2 -17.2 L 3.1 -17.2 " transform="translate(0.0 38.0)" stroke-dasharray="20.099999999999998" stroke-dashoffset="20.099999999999998"><animate attributeName="stroke-dashoffset" from="20.099999999999998" to="0" dur="0.6029999999999999s" begin="anim2.end" fill="freeze" id="anim3" /></path><path d="M 23.4 1.1 C 29.7 -0.1 36.0 -1.8 41.9 -4.0 " transform="translate(0.0 38.0)" stroke-dasharray="19.212577141531064" stroke-dashoffset="19.212577141531064"><animate attributeName="stroke-dashoffset" from="19.212577141531064" to="0" dur="0.5763773142459319s" begin="anim3.end" fill="freeze" id="anim4" /></path><path d="M 22.4 -30.0 L 4.3 -30.0 " transform="translate(0.0 38.0)" stroke-dasharray="18.099999999999998" stroke-dashoffset="18.099999999999998"><animate attributeName="stroke-dashoffset" from="18.099999999999998" to="0" dur="0.5429999999999999s" begin="anim4.end" fill="freeze" id="anim5" /></path><path d="M 9.7 -35.5 C 9.1 -36.9 8.2 -38.4 7.6 -39.2 " transform="translate(0.0 38.0)" stroke-dasharray="4.262619027038819" stroke-dashoffset="4.262619027038819"><animate attributeName="stroke-dashoffset" from="4.262619027038819" to="0" dur="0.12787857081116458s" begin="anim5.end" fill="freeze" id="anim6" /></path><path d="M 27.3 -0.3 C 29.1 -12.6 30.3 -24.9 30.9 -37.3 " transform="translate(0.0 38.0)" stroke-dasharray="37.18933376725301" stroke-dashoffset="37.18933376725301"><animate attributeName="stroke-dashoffset" from="37.18933376725301" to="0" dur="1.1156800130175903s" begin="anim6.end" fill="freeze" id="anim7" /></path><path d="M 36.4 -12.7 C 35.8 -14.0 34.9 -15.7 34.1 -16.9 " transform="translate(0.0 38.0)" stroke-dasharray="4.792643390006366" stroke-dashoffset="4.792643390006366"><animate attributeName="stroke-dashoffset" from="4.792643390006366" to="0" dur="0.14377930170019096s" begin="anim7.end" fill="freeze" id="anim8" /></path><path d="M 14.9 -30.6 C 16.3 -33.2 17.7 -36.6 18.6 -39.4 " transform="translate(0.0 38.0)" stroke-dasharray="9.557972037986648" stroke-dashoffset="9.557972037986648"><animate attributeName="stroke-dashoffset" from="9.557972037986648" to="0" dur="0.2867391611395994s" begin="anim8.end" fill="freeze" id="anim9" /></path><path d="M 45.8 -37.1 L 24.9 -37.1" transform="translate(0.0 38.0)" stroke-dasharray="20.9" stroke-dashoffset="20.9"><animate attributeName="stroke-dashoffset" from="20.9" to="0" dur="0.6269999999999999s" begin="anim9.end" fill="freeze" id="anim_end" /></path></g></svg>