<?xml version='1.0' encoding='utf-8'?>
<svg viewBox="0.0 -6.0 50.0 50.0" version="1.1" xmlns="http://www.w3.org/2000/svg"><rect x="-1000" y="-1000" width="2000" height="2000" stroke="white" fill="white" /><g style="fill:none;stroke:#000000;stroke-width:1"><path d="M 46.5 0.6 L 30.5 0.6 C 27.4 0.6 26.2 -0.6 26.2 -3.1 L 26.2 -33.7 C 26.2 -36.2 27.4 -37.3 30.5 -37.3 L 46.0 -37.3 " transform="translate(0.0 38.0)" stroke-dasharray="75.16113956604147" stroke-dashoffset="75.16113956604147"><animate attributeName="stroke-dashoffset" from="75.16113956604147" to="0" dur="2.254834186981244s" begin="0s; 15s; 30s; 45s" fill="freeze" id="anim0" /></path><path d="M 4.5 0.6 C 9.8 -4.8 12.4 -11.6 12.4 -23.8 L 12.4 -31.6 " transform="translate(0.0 38.0)" stroke-dasharray="34.17683458837632" stroke-dashoffset="34.17683458837632"><animate attributeName="stroke-dashoffset" from="34.17683458837632" to="0" dur="1.0253050376512896s" begin="anim0.end" fill="freeze" id="anim1" /></path><path d="M 19.4 -4.0 C 17.8 -6.1 14.9 -8.9 12.1 -10.8 " transform="translate(0.0 38.0)" stroke-dasharray="10.013065476034521" stroke-dashoffset="10.013065476034521"><animate attributeName="stroke-dashoffset" from="10.013065476034521" to="0" dur="0.30039196428103565s" begin="anim1.end" fill="freeze" id="anim2" /></path><path d="M 20.7 -19.9 L 3.5 -19.9 " transform="translate(0.0 38.0)" stroke-dasharray="17.2" stroke-dashoffset="17.2"><animate attributeName="stroke-dashoffset" from="17.2" to="0" dur="0.516s" begin="anim2.end" fill="freeze" id="anim3" /></path><path d="M 4.0 -26.5 C 5.9 -29.9 7.7 -35.2 8.7 -39.6 " transform="translate(0.0 38.0)" stroke-dasharray="13.957498946503545" stroke-dashoffset="13.957498946503545"><animate attributeName="stroke-dashoffset" from="13.957498946503545" to="0" dur="0.4187249683951063s" begin="anim3.end" fill="freeze" id="anim4" /></path><path d="M 19.2 -32.4 L 6.5 -32.4 " transform="translate(0.0 38.0)" stroke-dasharray="12.7" stroke-dashoffset="12.7"><animate attributeName="stroke-dashoffset" from="12.7" to="0" dur="0.38099999999999995s" begin="anim4.end" fill="freeze" id="anim5" /></path><path d="M 26.9 -13.6 L 40.3 -13.6 C 42.6 -13.6 43.5 -14.6 43.5 -16.5 L 43.5 -22.5 C 43.5 -24.4 42.6 -25.4 40.3 -25.4 L 26.9 -25.4" transform="translate(0.0 38.0)" stroke-dasharray="42.76707929436389" stroke-dashoffset="42.76707929436389"><animate attributeName="stroke-dashoffset" from="42.76707929436389" to="0" dur="1.2830123788309167s" begin="anim5.end" fill="freeze" id="anim_end" /></path></g></svg>