<?xml version='1.0' encoding='utf-8'?>
<svg viewBox="0.0 -6.0 50.0 50.0" version="1.1" xmlns="http://www.w3.org/2000/svg"><rect x="-1000" y="-1000" width="2000" height="2000" stroke="white" fill="white" /><g style="fill:none;stroke:#000000;stroke-width:1"><path d="M 46.5 -5.5 C 45.9 -0.3 44.0 0.9 30.3 0.9 C 19.5 0.9 17.4 -0.1 17.6 -3.8 L 18.6 -24.6 C 18.6 -26.1 17.6 -27.0 15.6 -27.0 L 9.2 -27.0 " transform="translate(0.0 38.0)" stroke-dasharray="66.47115255198342" stroke-dashoffset="66.47115255198342"><animate attributeName="stroke-dashoffset" from="66.47115255198342" to="0" dur="1.9941345765595027s" begin="0s; anim_end.end" fill="freeze" id="anim0" /></path><path d="M 2.9 1.2 C 7.5 0.2 12.4 -1.4 17.1 -3.1 " transform="translate(0.0 38.0)" stroke-dasharray="14.847483582479137" stroke-dashoffset="14.847483582479137"><animate attributeName="stroke-dashoffset" from="14.847483582479137" to="0" dur="0.4454245074743741s" begin="anim0.end" fill="freeze" id="anim1" /></path><path d="M 5.7 -0.3 C 7.5 -12.7 8.9 -24.6 9.8 -36.9 " transform="translate(0.0 38.0)" stroke-dasharray="36.8368644983387" stroke-dashoffset="36.8368644983387"><animate attributeName="stroke-dashoffset" from="36.8368644983387" to="0" dur="1.1051059349501609s" begin="anim1.end" fill="freeze" id="anim2" /></path><path d="M 13.8 -13.4 C 13.4 -14.7 12.8 -16.1 12.1 -17.4 " transform="translate(0.0 38.0)" stroke-dasharray="4.352911100803562" stroke-dashoffset="4.352911100803562"><animate attributeName="stroke-dashoffset" from="4.352911100803562" to="0" dur="0.13058733302410686s" begin="anim2.end" fill="freeze" id="anim3" /></path><path d="M 21.6 -37.1 L 3.9 -37.1 " transform="translate(0.0 38.0)" stroke-dasharray="17.700000000000003" stroke-dashoffset="17.700000000000003"><animate attributeName="stroke-dashoffset" from="17.700000000000003" to="0" dur="0.531s" begin="anim3.end" fill="freeze" id="anim4" /></path><path d="M 23.9 -17.1 L 44.9 -19.9 " transform="translate(0.0 38.0)" stroke-dasharray="21.18584433059018" stroke-dashoffset="21.18584433059018"><animate attributeName="stroke-dashoffset" from="21.18584433059018" to="0" dur="0.6355753299177054s" begin="anim4.end" fill="freeze" id="anim5" /></path><path d="M 43.5 -12.2 C 43.0 -7.8 41.4 -6.6 36.9 -6.6 C 32.9 -6.6 32.1 -7.3 32.1 -9.5 L 32.1 -35.4 " transform="translate(0.0 38.0)" stroke-dasharray="42.413174209287405" stroke-dashoffset="42.413174209287405"><animate attributeName="stroke-dashoffset" from="42.413174209287405" to="0" dur="1.272395226278622s" begin="anim5.end" fill="freeze" id="anim6" /></path><path d="M 24.8 -25.9 L 42.1 -28.1 " transform="translate(0.0 38.0)" stroke-dasharray="17.43932338137005" stroke-dashoffset="17.43932338137005"><animate attributeName="stroke-dashoffset" from="17.43932338137005" to="0" dur="0.5231797014411015s" begin="anim6.end" fill="freeze" id="anim7" /></path><path d="M 25.4 -33.9 C 30.4 -35.0 36.3 -37.0 40.5 -39.1" transform="translate(0.0 38.0)" stroke-dasharray="16.00568813749626" stroke-dashoffset="16.00568813749626"><animate attributeName="stroke-dashoffset" from="16.00568813749626" to="0" dur="0.4801706441248878s" begin="anim7.end" fill="freeze" id="anim_end" /></path></g></svg>