<?xml version='1.0' encoding='utf-8'?>
<svg viewBox="0.0 -6.0 50.0 50.0" version="1.1" xmlns="http://www.w3.org/2000/svg"><rect x="-1000" y="-1000" width="2000" height="2000" stroke="white" fill="white" /><g style="fill:none;stroke:#000000;stroke-width:1"><path d="M 3.8 -11.1 C 13.7 -17.8 21.1 -28.4 24.6 -40.5 " transform="translate(0.0 38.0)" stroke-dasharray="36.737340338817916" stroke-dashoffset="36.737340338817916"><animate attributeName="stroke-dashoffset" from="36.737340338817916" to="0" dur="1.1021202101645373s" begin="0s" fill="freeze" /></path><path d="M 6.8 0.7 C 12.9 -1.4 19.4 -4.9 23.3 -8.7 " transform="translate(0.0 38.0)" stroke-dasharray="19.12511188093556" stroke-dashoffset="19.12511188093556"><animate attributeName="stroke-dashoffset" from="19.12511188093556" to="0" dur="0.5737533564280668s" begin="1.1021202101645373s" fill="freeze" /></path><path d="M 24.9 2.8 L 24.9 -16.1 " transform="translate(0.0 38.0)" stroke-dasharray="18.900000000000002" stroke-dashoffset="18.900000000000002"><animate attributeName="stroke-dashoffset" from="18.900000000000002" to="0" dur="0.5670000000000001s" begin="1.6758735665926041s" fill="freeze" /></path><path d="M 38.5 -9.6 L 11.1 -9.6 " transform="translate(0.0 38.0)" stroke-dasharray="27.4" stroke-dashoffset="27.4"><animate attributeName="stroke-dashoffset" from="27.4" to="0" dur="0.822s" begin="2.2428735665926043s" fill="freeze" /></path><path d="M 43.0 0.1 C 37.0 -1.6 30.1 -5.1 25.7 -9.1 " transform="translate(0.0 38.0)" stroke-dasharray="19.747459526926956" stroke-dashoffset="19.747459526926956"><animate attributeName="stroke-dashoffset" from="19.747459526926956" to="0" dur="0.5924237858078086s" begin="3.0648735665926043s" fill="freeze" /></path><path d="M 16.2 -15.1 C 21.0 -15.4 26.8 -16.2 31.4 -17.4 " transform="translate(0.0 38.0)" stroke-dasharray="15.39435757658111" stroke-dashoffset="15.39435757658111"><animate attributeName="stroke-dashoffset" from="15.39435757658111" to="0" dur="0.46183072729743324s" begin="3.657297352400413s" fill="freeze" /></path><path d="M 46.0 -22.8 L 4.0 -22.8 " transform="translate(0.0 38.0)" stroke-dasharray="42.0" stroke-dashoffset="42.0"><animate attributeName="stroke-dashoffset" from="42.0" to="0" dur="1.26s" begin="4.1191280796978464s" fill="freeze" /></path><path d="M 41.1 -29.6 L 9.2 -29.6 " transform="translate(0.0 38.0)" stroke-dasharray="31.900000000000002" stroke-dashoffset="31.900000000000002"><animate attributeName="stroke-dashoffset" from="31.900000000000002" to="0" dur="0.9570000000000001s" begin="5.379128079697846s" fill="freeze" /></path><path d="M 45.8 -12.4 C 38.8 -16.1 32.4 -22.1 28.7 -29.5 " transform="translate(0.0 38.0)" stroke-dasharray="24.564744910414387" stroke-dashoffset="24.564744910414387"><animate attributeName="stroke-dashoffset" from="24.564744910414387" to="0" dur="0.7369423473124316s" begin="6.336128079697846s" fill="freeze" /></path><path d="M 43.5 -36.1 L 6.4 -36.1" transform="translate(0.0 38.0)" stroke-dasharray="37.1" stroke-dashoffset="37.1"><animate attributeName="stroke-dashoffset" from="37.1" to="0" dur="1.113s" begin="7.073070427010277s" fill="freeze" /></path></g></svg>