<?xml version='1.0' encoding='utf-8'?>
<svg viewBox="0.0 -6.0 50.0 50.0" version="1.1" xmlns="http://www.w3.org/2000/svg"><rect x="-1000" y="-1000" width="2000" height="2000" stroke="white" fill="white" /><g style="fill:none;stroke:#000000;stroke-width:1"><path d="M 34.8 1.6 C 35.8 1.8 36.6 1.9 37.7 1.9 C 40.0 1.9 41.4 0.9 41.4 -1.4 L 41.4 -36.1 " transform="translate(0.0 38.0)" stroke-dasharray="43.294527561946055" stroke-dashoffset="43.294527561946055"><animate attributeName="stroke-dashoffset" from="43.294527561946055" to="0" dur="1.2988358268583815s" begin="0s; anim_end.end" fill="freeze" id="anim0" /></path><path d="M 3.9 -5.0 C 7.9 -6.0 13.5 -7.8 17.4 -9.5 " transform="translate(0.0 38.0)" stroke-dasharray="14.243718950734563" stroke-dashoffset="14.243718950734563"><animate attributeName="stroke-dashoffset" from="14.243718950734563" to="0" dur="0.42731156852203683s" begin="anim0.end" fill="freeze" id="anim1" /></path><path d="M 10.3 -6.8 L 10.3 -36.5 " transform="translate(0.0 38.0)" stroke-dasharray="29.7" stroke-dashoffset="29.7"><animate attributeName="stroke-dashoffset" from="29.7" to="0" dur="0.8909999999999999s" begin="anim1.end" fill="freeze" id="anim2" /></path><path d="M 4.5 -22.8 L 15.9 -22.8 " transform="translate(0.0 38.0)" stroke-dasharray="11.4" stroke-dashoffset="11.4"><animate attributeName="stroke-dashoffset" from="11.4" to="0" dur="0.34199999999999997s" begin="anim2.end" fill="freeze" id="anim3" /></path><path d="M 25.9 -11.6 L 29.4 -11.6 C 31.5 -11.6 32.5 -12.6 32.5 -14.6 L 32.5 -23.4 C 32.5 -25.4 31.5 -26.4 29.4 -26.4 L 25.9 -26.4 C 23.8 -26.4 22.9 -25.4 22.9 -23.4 L 22.9 -14.6 C 22.9 -12.6 23.8 -11.6 25.9 -11.6 Z " transform="translate(0.0 38.0)" stroke-dasharray="44.30570436536268" stroke-dashoffset="44.30570436536268"><animate attributeName="stroke-dashoffset" from="44.30570436536268" to="0" dur="1.3291711309608802s" begin="anim3.end" fill="freeze" id="anim4" /></path><path d="M 3.8 -36.5 L 16.6 -36.5 " transform="translate(0.0 38.0)" stroke-dasharray="12.8" stroke-dashoffset="12.8"><animate attributeName="stroke-dashoffset" from="12.8" to="0" dur="0.384s" begin="anim4.end" fill="freeze" id="anim5" /></path><path d="M 20.6 -36.5 L 46.7 -36.5" transform="translate(0.0 38.0)" stroke-dasharray="26.1" stroke-dashoffset="26.1"><animate attributeName="stroke-dashoffset" from="26.1" to="0" dur="0.783s" begin="anim5.end" fill="freeze" id="anim_end" /></path></g></svg>