<?xml version='1.0' encoding='utf-8'?>
<svg viewBox="0.0 -6.0 50.0 50.0" version="1.1" xmlns="http://www.w3.org/2000/svg"><rect x="-1000" y="-1000" width="2000" height="2000" stroke="white" fill="white" /><g style="fill:none;stroke:#000000;stroke-width:1"><path d="M 46.1 -3.2 C 45.7 0.9 44.0 1.8 34.6 1.8 C 25.7 1.8 24.7 1.1 24.7 -1.1 L 24.7 -15.4 " transform="translate(0.0 38.0)" stroke-dasharray="39.8821393229563" stroke-dashoffset="39.8821393229563"><animate attributeName="stroke-dashoffset" from="39.8821393229563" to="0" dur="1.196464179688689s" begin="0s" fill="freeze" /></path><path d="M 14.4 -4.3 L 35.6 -4.3 C 38.2 -4.3 39.0 -5.1 39.0 -6.8 L 39.0 -12.5 C 39.0 -14.2 38.2 -15.0 35.6 -15.0 L 14.4 -15.0 C 11.9 -15.0 11.0 -14.2 11.0 -12.5 L 11.0 -6.8 C 11.0 -5.1 11.9 -4.3 14.4 -4.3 Z " transform="translate(0.0 38.0)" stroke-dasharray="73.31612167971817" stroke-dashoffset="73.31612167971817"><animate attributeName="stroke-dashoffset" from="73.31612167971817" to="0" dur="2.199483650391545s" begin="1.196464179688689s" fill="freeze" /></path><path d="M 39.5 -9.8 L 11.3 -9.8 " transform="translate(0.0 38.0)" stroke-dasharray="28.2" stroke-dashoffset="28.2"><animate attributeName="stroke-dashoffset" from="28.2" to="0" dur="0.846s" begin="3.395947830080234s" fill="freeze" /></path><path d="M 18.6 -22.8 C 18.2 -23.6 17.7 -24.3 17.1 -24.9 " transform="translate(0.0 38.0)" stroke-dasharray="2.591968783859796" stroke-dashoffset="2.591968783859796"><animate attributeName="stroke-dashoffset" from="2.591968783859796" to="0" dur="0.07775906351579387s" begin="4.241947830080234s" fill="freeze" /></path><path d="M 4.5 -31.6 C 7.0 -34.0 9.1 -37.0 10.7 -40.4 " transform="translate(0.0 38.0)" stroke-dasharray="10.824719999237375" stroke-dashoffset="10.824719999237375"><animate attributeName="stroke-dashoffset" from="10.824719999237375" to="0" dur="0.32474159997712126s" begin="4.319706893596027s" fill="freeze" /></path><path d="M 46.2 -20.4 L 3.8 -20.4 " transform="translate(0.0 38.0)" stroke-dasharray="42.400000000000006" stroke-dashoffset="42.400000000000006"><animate attributeName="stroke-dashoffset" from="42.400000000000006" to="0" dur="1.272s" begin="4.644448493573149s" fill="freeze" /></path><path d="M 16.2 -32.3 C 15.4 -33.9 14.7 -35.0 13.7 -36.4 " transform="translate(0.0 38.0)" stroke-dasharray="4.807795812184993" stroke-dashoffset="4.807795812184993"><animate attributeName="stroke-dashoffset" from="4.807795812184993" to="0" dur="0.14423387436554977s" begin="5.916448493573149s" fill="freeze" /></path><path d="M 22.0 -36.4 L 8.8 -36.4 " transform="translate(0.0 38.0)" stroke-dasharray="13.2" stroke-dashoffset="13.2"><animate attributeName="stroke-dashoffset" from="13.2" to="0" dur="0.39599999999999996s" begin="6.060682367938699s" fill="freeze" /></path><path d="M 41.9 -27.5 L 8.5 -27.5 " transform="translate(0.0 38.0)" stroke-dasharray="33.4" stroke-dashoffset="33.4"><animate attributeName="stroke-dashoffset" from="33.4" to="0" dur="1.002s" begin="6.456682367938699s" fill="freeze" /></path><path d="M 24.9 -27.9 L 24.9 -30.6 " transform="translate(0.0 38.0)" stroke-dasharray="2.700000000000003" stroke-dashoffset="2.700000000000003"><animate attributeName="stroke-dashoffset" from="2.700000000000003" to="0" dur="0.08100000000000009s" begin="7.458682367938699s" fill="freeze" /></path><path d="M 30.1 -20.6 C 31.3 -22.1 31.9 -23.2 32.6 -24.8 " transform="translate(0.0 38.0)" stroke-dasharray="4.904737359015112" stroke-dashoffset="4.904737359015112"><animate attributeName="stroke-dashoffset" from="4.904737359015112" to="0" dur="0.14714212077045336s" begin="7.539682367938699s" fill="freeze" /></path><path d="M 25.5 -33.2 C 27.4 -35.2 29.1 -37.8 30.6 -40.5 " transform="translate(0.0 38.0)" stroke-dasharray="8.927993743461874" stroke-dashoffset="8.927993743461874"><animate attributeName="stroke-dashoffset" from="8.927993743461874" to="0" dur="0.26783981230385623s" begin="7.686824488709153s" fill="freeze" /></path><path d="M 36.6 -32.4 C 36.1 -33.6 35.1 -35.1 34.0 -36.4 " transform="translate(0.0 38.0)" stroke-dasharray="4.787234799812146" stroke-dashoffset="4.787234799812146"><animate attributeName="stroke-dashoffset" from="4.787234799812146" to="0" dur="0.14361704399436437s" begin="7.954664301013009s" fill="freeze" /></path><path d="M 45.5 -36.4 L 28.1 -36.4" transform="translate(0.0 38.0)" stroke-dasharray="17.4" stroke-dashoffset="17.4"><animate attributeName="stroke-dashoffset" from="17.4" to="0" dur="0.5219999999999999s" begin="8.098281345007374s" fill="freeze" /></path></g></svg>