<?xml version='1.0' encoding='utf-8'?>
<svg viewBox="0.0 -6.0 50.0 50.0" version="1.1" xmlns="http://www.w3.org/2000/svg"><rect x="-1000" y="-1000" width="2000" height="2000" stroke="white" fill="white" /><g style="fill:none;stroke:#000000;stroke-width:1"><path d="M 8.2 -2.4 L 10.8 -2.4 C 12.9 -2.4 13.8 -3.2 13.8 -5.5 L 13.8 -35.2 C 13.8 -37.5 12.9 -38.4 10.8 -38.4 L 8.2 -38.4 C 6.0 -38.4 5.2 -37.5 5.2 -35.2 L 5.2 -5.5 C 5.2 -3.2 6.0 -2.4 8.2 -2.4 Z " transform="translate(0.0 38.0)" stroke-dasharray="84.90978820434688" stroke-dashoffset="84.90978820434688"><animate attributeName="stroke-dashoffset" from="84.90978820434688" to="0" dur="2.5472936461304063s" begin="0s; anim_end.end" fill="freeze" id="anim0" /></path><path d="M 13.8 -15.7 L 5.5 -15.7 " transform="translate(0.0 38.0)" stroke-dasharray="8.3" stroke-dashoffset="8.3"><animate attributeName="stroke-dashoffset" from="8.3" to="0" dur="0.249s" begin="anim0.end" fill="freeze" id="anim1" /></path><path d="M 46.0 1.5 L 17.0 1.5 " transform="translate(0.0 38.0)" stroke-dasharray="29.0" stroke-dashoffset="29.0"><animate attributeName="stroke-dashoffset" from="29.0" to="0" dur="0.87s" begin="anim1.end" fill="freeze" id="anim2" /></path><path d="M 42.7 -4.5 L 20.9 -4.5 " transform="translate(0.0 38.0)" stroke-dasharray="21.800000000000004" stroke-dashoffset="21.800000000000004"><animate attributeName="stroke-dashoffset" from="21.800000000000004" to="0" dur="0.6540000000000001s" begin="anim2.end" fill="freeze" id="anim3" /></path><path d="M 13.8 -26.8 L 5.5 -26.8 " transform="translate(0.0 38.0)" stroke-dasharray="8.3" stroke-dashoffset="8.3"><animate attributeName="stroke-dashoffset" from="8.3" to="0" dur="0.249s" begin="anim3.end" fill="freeze" id="anim4" /></path><path d="M 31.6 1.3 L 31.6 -21.5 " transform="translate(0.0 38.0)" stroke-dasharray="22.8" stroke-dashoffset="22.8"><animate attributeName="stroke-dashoffset" from="22.8" to="0" dur="0.6839999999999999s" begin="anim4.end" fill="freeze" id="anim5" /></path><path d="M 25.6 -10.2 L 38.2 -10.2 C 40.9 -10.2 42.0 -11.2 42.0 -13.2 L 42.0 -19.1 C 42.0 -21.2 40.9 -22.1 38.2 -22.1 L 25.6 -22.1 C 22.8 -22.1 21.8 -21.2 21.8 -19.1 L 21.8 -13.2 C 21.8 -11.2 22.8 -10.2 25.6 -10.2 Z " transform="translate(0.0 38.0)" stroke-dasharray="59.37684067029095" stroke-dashoffset="59.37684067029095"><animate attributeName="stroke-dashoffset" from="59.37684067029095" to="0" dur="1.7813052201087285s" begin="anim5.end" fill="freeze" id="anim6" /></path><path d="M 41.1 -16.2 L 22.9 -16.2 " transform="translate(0.0 38.0)" stroke-dasharray="18.200000000000003" stroke-dashoffset="18.200000000000003"><animate attributeName="stroke-dashoffset" from="18.200000000000003" to="0" dur="0.546s" begin="anim6.end" fill="freeze" id="anim7" /></path><path d="M 26.9 -30.4 C 26.6 -31.1 26.2 -31.8 25.7 -32.6 " transform="translate(0.0 38.0)" stroke-dasharray="2.5084800388807063" stroke-dashoffset="2.5084800388807063"><animate attributeName="stroke-dashoffset" from="2.5084800388807063" to="0" dur="0.07525440116642118s" begin="anim7.end" fill="freeze" id="anim8" /></path><path d="M 46.6 -27.8 L 18.2 -27.8 " transform="translate(0.0 38.0)" stroke-dasharray="28.400000000000002" stroke-dashoffset="28.400000000000002"><animate attributeName="stroke-dashoffset" from="28.400000000000002" to="0" dur="0.852s" begin="anim8.end" fill="freeze" id="anim9" /></path><path d="M 35.2 -27.5 C 36.0 -28.9 36.8 -30.6 37.5 -32.5 " transform="translate(0.0 38.0)" stroke-dasharray="5.509810728855034" stroke-dashoffset="5.509810728855034"><animate attributeName="stroke-dashoffset" from="5.509810728855034" to="0" dur="0.16529432186565102s" begin="anim9.end" fill="freeze" id="anim10" /></path><path d="M 43.9 -36.1 L 20.4 -36.1 " transform="translate(0.0 38.0)" stroke-dasharray="23.5" stroke-dashoffset="23.5"><animate attributeName="stroke-dashoffset" from="23.5" to="0" dur="0.705s" begin="anim10.end" fill="freeze" id="anim11" /></path><path d="M 31.6 -36.0 L 31.6 -40.3" transform="translate(0.0 38.0)" stroke-dasharray="4.299999999999997" stroke-dashoffset="4.299999999999997"><animate attributeName="stroke-dashoffset" from="4.299999999999997" to="0" dur="0.12899999999999992s" begin="anim11.end" fill="freeze" id="anim_end" /></path></g></svg>