<?xml version='1.0' encoding='utf-8'?>
<svg viewBox="0.0 -6.0 50.0 50.0" version="1.1" xmlns="http://www.w3.org/2000/svg"><rect x="-1000" y="-1000" width="2000" height="2000" stroke="white" fill="white" /><g style="fill:none;stroke:#000000;stroke-width:1"><path d="M 39.6 1.4 C 40.4 1.6 41.4 1.6 42.0 1.6 C 44.5 1.6 45.2 0.6 45.2 -1.9 L 45.2 -39.2 " transform="translate(0.0 38.0)" stroke-dasharray="45.28819394483819" stroke-dashoffset="45.28819394483819"><animate attributeName="stroke-dashoffset" from="45.28819394483819" to="0" dur="1.3586458183451458s" begin="0s; 15s; 30s; 45s" fill="freeze" id="anim0" /></path><path d="M 9.1 -4.3 L 11.0 -4.3 C 12.8 -4.3 13.7 -5.0 13.7 -7.0 L 13.7 -20.8 C 13.7 -22.9 12.8 -23.5 11.0 -23.5 L 9.1 -23.5 C 7.2 -23.5 6.5 -22.6 6.5 -20.8 L 6.5 -7.0 C 6.5 -5.0 7.2 -4.3 9.1 -4.3 Z " transform="translate(0.0 38.0)" stroke-dasharray="49.024476587078425" stroke-dashoffset="49.024476587078425"><animate attributeName="stroke-dashoffset" from="49.024476587078425" to="0" dur="1.4707342976123527s" begin="anim0.end" fill="freeze" id="anim1" /></path><path d="M 2.6 -17.6 C 5.5 -22.2 7.8 -30.4 8.4 -37.0 " transform="translate(0.0 38.0)" stroke-dasharray="20.400201910840295" stroke-dashoffset="20.400201910840295"><animate attributeName="stroke-dashoffset" from="20.400201910840295" to="0" dur="0.6120060573252089s" begin="anim1.end" fill="freeze" id="anim2" /></path><path d="M 15.8 1.7 C 19.6 -3.5 22.0 -11.4 22.0 -24.0 L 22.0 -37.1 " transform="translate(0.0 38.0)" stroke-dasharray="39.966706322495526" stroke-dashoffset="39.966706322495526"><animate attributeName="stroke-dashoffset" from="39.966706322495526" to="0" dur="1.1990011896748658s" begin="anim2.end" fill="freeze" id="anim3" /></path><path d="M 14.2 -37.2 L 2.9 -37.2 " transform="translate(0.0 38.0)" stroke-dasharray="11.299999999999999" stroke-dashoffset="11.299999999999999"><animate attributeName="stroke-dashoffset" from="11.299999999999999" to="0" dur="0.33899999999999997s" begin="anim3.end" fill="freeze" id="anim4" /></path><path d="M 29.5 2.0 L 29.5 -37.1 " transform="translate(0.0 38.0)" stroke-dasharray="39.1" stroke-dashoffset="39.1"><animate attributeName="stroke-dashoffset" from="39.1" to="0" dur="1.173s" begin="anim4.end" fill="freeze" id="anim5" /></path><path d="M 33.8 -21.6 L 17.6 -21.6 " transform="translate(0.0 38.0)" stroke-dasharray="16.199999999999996" stroke-dashoffset="16.199999999999996"><animate attributeName="stroke-dashoffset" from="16.199999999999996" to="0" dur="0.4859999999999999s" begin="anim5.end" fill="freeze" id="anim6" /></path><path d="M 38.0 -8.4 L 38.0 -35.4 " transform="translate(0.0 38.0)" stroke-dasharray="27.0" stroke-dashoffset="27.0"><animate attributeName="stroke-dashoffset" from="27.0" to="0" dur="0.8099999999999999s" begin="anim6.end" fill="freeze" id="anim7" /></path><path d="M 33.0 -37.8 L 18.4 -37.8" transform="translate(0.0 38.0)" stroke-dasharray="14.600000000000001" stroke-dashoffset="14.600000000000001"><animate attributeName="stroke-dashoffset" from="14.600000000000001" to="0" dur="0.438s" begin="anim7.end" fill="freeze" id="anim_end" /></path></g></svg>