<?xml version='1.0' encoding='utf-8'?>
<svg viewBox="0.0 -6.0 50.0 50.0" version="1.1" xmlns="http://www.w3.org/2000/svg"><rect x="-1000" y="-1000" width="2000" height="2000" stroke="white" fill="white" /><g style="fill:none;stroke:#000000;stroke-width:1"><path d="M 47.2 -4.7 C 47.0 -0.2 45.7 1.2 44.4 1.2 C 42.6 1.2 40.9 -1.4 39.0 -11.0 C 37.9 -16.9 37.2 -26.9 37.2 -40.5 " transform="translate(0.0 38.0)" stroke-dasharray="50.64209289381401" stroke-dashoffset="50.64209289381401"><animate attributeName="stroke-dashoffset" from="50.64209289381401" to="0" dur="1.5192627868144202s" begin="0s; anim_end.end" fill="freeze" id="anim0" /></path><path d="M 2.8 -2.6 C 3.7 -5.0 4.5 -8.8 4.7 -11.9 " transform="translate(0.0 38.0)" stroke-dasharray="9.520410782184872" stroke-dashoffset="9.520410782184872"><animate attributeName="stroke-dashoffset" from="9.520410782184872" to="0" dur="0.28561232346554616s" begin="anim0.end" fill="freeze" id="anim1" /></path><path d="M 9.3 2.9 L 9.3 -18.8 " transform="translate(0.0 38.0)" stroke-dasharray="21.7" stroke-dashoffset="21.7"><animate attributeName="stroke-dashoffset" from="21.7" to="0" dur="0.6509999999999999s" begin="anim1.end" fill="freeze" id="anim2" /></path><path d="M 14.9 -7.0 C 14.7 -8.9 14.2 -11.4 13.6 -12.8 " transform="translate(0.0 38.0)" stroke-dasharray="5.961071804777245" stroke-dashoffset="5.961071804777245"><animate attributeName="stroke-dashoffset" from="5.961071804777245" to="0" dur="0.17883215414331735s" begin="anim2.end" fill="freeze" id="anim3" /></path><path d="M 2.6 -18.5 C 6.7 -18.6 11.1 -19.1 14.7 -19.7 " transform="translate(0.0 38.0)" stroke-dasharray="12.168795912110026" stroke-dashoffset="12.168795912110026"><animate attributeName="stroke-dashoffset" from="12.168795912110026" to="0" dur="0.36506387736330076s" begin="anim3.end" fill="freeze" id="anim4" /></path><path d="M 16.6 -1.6 C 21.3 -2.1 28.4 -3.5 33.0 -5.0 " transform="translate(0.0 38.0)" stroke-dasharray="16.7726163551372" stroke-dashoffset="16.7726163551372"><animate attributeName="stroke-dashoffset" from="16.7726163551372" to="0" dur="0.5031784906541159s" begin="anim4.end" fill="freeze" id="anim5" /></path><path d="M 23.2 -8.8 L 18.3 -8.8 " transform="translate(0.0 38.0)" stroke-dasharray="4.899999999999999" stroke-dashoffset="4.899999999999999"><animate attributeName="stroke-dashoffset" from="4.899999999999999" to="0" dur="0.14699999999999996s" begin="anim5.end" fill="freeze" id="anim6" /></path><path d="M 23.1 -14.2 L 18.8 -14.2 " transform="translate(0.0 38.0)" stroke-dasharray="4.300000000000001" stroke-dashoffset="4.300000000000001"><animate attributeName="stroke-dashoffset" from="4.300000000000001" to="0" dur="0.129s" begin="anim6.end" fill="freeze" id="anim7" /></path><path d="M 15.3 -17.6 C 14.8 -19.8 13.9 -21.6 12.9 -23.2 " transform="translate(0.0 38.0)" stroke-dasharray="6.122532223724686" stroke-dashoffset="6.122532223724686"><animate attributeName="stroke-dashoffset" from="6.122532223724686" to="0" dur="0.18367596671174058s" begin="anim7.end" fill="freeze" id="anim8" /></path><path d="M 9.2 -26.2 C 7.0 -29.2 5.0 -31.4 3.6 -32.7 " transform="translate(0.0 38.0)" stroke-dasharray="8.591201219359792" stroke-dashoffset="8.591201219359792"><animate attributeName="stroke-dashoffset" from="8.591201219359792" to="0" dur="0.25773603658079375s" begin="anim8.end" fill="freeze" id="anim9" /></path><path d="M 23.2 -3.0 L 23.2 -24.8 " transform="translate(0.0 38.0)" stroke-dasharray="21.8" stroke-dashoffset="21.8"><animate attributeName="stroke-dashoffset" from="21.8" to="0" dur="0.654s" begin="anim9.end" fill="freeze" id="anim10" /></path><path d="M 5.3 -19.1 C 8.2 -23.1 11.4 -28.8 13.6 -33.5 " transform="translate(0.0 38.0)" stroke-dasharray="16.642279967143278" stroke-dashoffset="16.642279967143278"><animate attributeName="stroke-dashoffset" from="16.642279967143278" to="0" dur="0.4992683990142983s" begin="anim10.end" fill="freeze" id="anim11" /></path><path d="M 23.5 -19.9 L 18.8 -19.9 " transform="translate(0.0 38.0)" stroke-dasharray="4.699999999999999" stroke-dashoffset="4.699999999999999"><animate attributeName="stroke-dashoffset" from="4.699999999999999" to="0" dur="0.141s" begin="anim11.end" fill="freeze" id="anim12" /></path><path d="M 34.2 -9.6 L 29.4 -9.6 " transform="translate(0.0 38.0)" stroke-dasharray="4.800000000000004" stroke-dashoffset="4.800000000000004"><animate attributeName="stroke-dashoffset" from="4.800000000000004" to="0" dur="0.14400000000000013s" begin="anim12.end" fill="freeze" id="anim13" /></path><path d="M 28.6 -4.0 L 28.6 -24.8 " transform="translate(0.0 38.0)" stroke-dasharray="20.8" stroke-dashoffset="20.8"><animate attributeName="stroke-dashoffset" from="20.8" to="0" dur="0.624s" begin="anim13.end" fill="freeze" id="anim14" /></path><path d="M 28.0 2.7 C 35.5 -0.8 41.6 -6.4 45.4 -17.4 " transform="translate(0.0 38.0)" stroke-dasharray="27.39859251263686" stroke-dashoffset="27.39859251263686"><animate attributeName="stroke-dashoffset" from="27.39859251263686" to="0" dur="0.8219577753791057s" begin="anim14.end" fill="freeze" id="anim15" /></path><path d="M 5.8 -31.2 C 7.3 -33.9 8.6 -36.9 9.7 -40.2 " transform="translate(0.0 38.0)" stroke-dasharray="9.822702439200043" stroke-dashoffset="9.822702439200043"><animate attributeName="stroke-dashoffset" from="9.822702439200043" to="0" dur="0.2946810731760013s" begin="anim15.end" fill="freeze" id="anim16" /></path><path d="M 33.5 -14.8 L 29.1 -14.8 " transform="translate(0.0 38.0)" stroke-dasharray="4.399999999999999" stroke-dashoffset="4.399999999999999"><animate attributeName="stroke-dashoffset" from="4.399999999999999" to="0" dur="0.13199999999999995s" begin="anim16.end" fill="freeze" id="anim17" /></path><path d="M 33.7 -19.9 L 29.0 -19.9 " transform="translate(0.0 38.0)" stroke-dasharray="4.700000000000003" stroke-dashoffset="4.700000000000003"><animate attributeName="stroke-dashoffset" from="4.700000000000003" to="0" dur="0.14100000000000007s" begin="anim17.end" fill="freeze" id="anim18" /></path><path d="M 18.2 -29.2 C 19.6 -31.5 21.1 -35.4 21.9 -39.0 " transform="translate(0.0 38.0)" stroke-dasharray="10.514374993647632" stroke-dashoffset="10.514374993647632"><animate attributeName="stroke-dashoffset" from="10.514374993647632" to="0" dur="0.31543124980942894s" begin="anim18.end" fill="freeze" id="anim19" /></path><path d="M 46.1 -25.4 L 17.1 -25.4 " transform="translate(0.0 38.0)" stroke-dasharray="29.0" stroke-dashoffset="29.0"><animate attributeName="stroke-dashoffset" from="29.0" to="0" dur="0.87s" begin="anim19.end" fill="freeze" id="anim20" /></path><path d="M 27.4 -29.1 C 28.8 -31.4 30.2 -35.0 30.9 -38.7 " transform="translate(0.0 38.0)" stroke-dasharray="10.267165554632802" stroke-dashoffset="10.267165554632802"><animate attributeName="stroke-dashoffset" from="10.267165554632802" to="0" dur="0.30801496663898403s" begin="anim20.end" fill="freeze" id="anim21" /></path><path d="M 45.1 -31.2 C 44.4 -32.6 43.3 -34.5 42.4 -35.5 " transform="translate(0.0 38.0)" stroke-dasharray="5.08935854397988" stroke-dashoffset="5.08935854397988"><animate attributeName="stroke-dashoffset" from="5.08935854397988" to="0" dur="0.15268075631939637s" begin="anim21.end" fill="freeze" id="anim22" /></path><path d="M 21.1 -34.0 C 22.4 -32.8 23.6 -31.4 24.4 -30.4 " transform="translate(0.0 38.0)" stroke-dasharray="4.888037798757966" stroke-dashoffset="4.888037798757966"><animate attributeName="stroke-dashoffset" from="4.888037798757966" to="0" dur="0.14664113396273898s" begin="anim22.end" fill="freeze" id="anim23" /></path><path d="M 30.2 -33.6 C 31.6 -32.4 32.5 -31.3 33.5 -30.2" transform="translate(0.0 38.0)" stroke-dasharray="4.742341214342862" stroke-dashoffset="4.742341214342862"><animate attributeName="stroke-dashoffset" from="4.742341214342862" to="0" dur="0.14227023643028586s" begin="anim23.end" fill="freeze" id="anim_end" /></path></g></svg>