<?xml version='1.0' encoding='utf-8'?>
<svg viewBox="0.0 -6.0 50.0 50.0" version="1.1" xmlns="http://www.w3.org/2000/svg"><rect x="-1000" y="-1000" width="2000" height="2000" stroke="white" fill="white" /><g style="fill:none;stroke:#000000;stroke-width:1"><path d="M 26.8 1.2 L 39.9 1.2 C 42.6 1.2 44.0 0.4 44.0 -2.2 L 44.0 -13.2 C 44.0 -15.7 42.6 -16.6 39.9 -16.6 L 26.7 -16.6 C 23.9 -16.6 22.6 -15.7 22.6 -13.2 L 22.6 -2.2 C 22.6 0.4 23.9 1.2 26.8 1.2 Z " transform="translate(0.0 38.0)" stroke-dasharray="73.10059477766434" stroke-dashoffset="73.10059477766434"><animate attributeName="stroke-dashoffset" from="73.10059477766434" to="0" dur="2.19301784332993s" begin="0s" fill="freeze" /></path><path d="M 10.3 -3.2 L 13.2 -3.2 C 15.1 -3.2 15.9 -4.0 15.9 -6.0 L 15.9 -20.2 C 15.9 -22.3 15.1 -22.9 13.2 -22.9 L 10.3 -22.9 C 8.6 -22.9 7.7 -22.1 7.7 -20.2 L 7.7 -6.0 C 7.7 -4.0 8.6 -3.2 10.3 -3.2 Z " transform="translate(0.0 38.0)" stroke-dasharray="51.926941265190244" stroke-dashoffset="51.926941265190244"><animate attributeName="stroke-dashoffset" from="51.926941265190244" to="0" dur="1.5578082379557072s" begin="2.19301784332993s" fill="freeze" /></path><path d="M 3.0 -15.5 C 6.3 -20.7 9.1 -29.4 9.9 -36.5 " transform="translate(0.0 38.0)" stroke-dasharray="22.26152516329041" stroke-dashoffset="22.26152516329041"><animate attributeName="stroke-dashoffset" from="22.26152516329041" to="0" dur="0.6678457548987123s" begin="3.7508260812856373s" fill="freeze" /></path><path d="M 27.7 -3.2 C 31.5 -5.2 35.2 -8.7 37.6 -12.2 " transform="translate(0.0 38.0)" stroke-dasharray="13.500093444976894" stroke-dashoffset="13.500093444976894"><animate attributeName="stroke-dashoffset" from="13.500093444976894" to="0" dur="0.40500280334930683s" begin="4.41867183618435s" fill="freeze" /></path><path d="M 38.3 -4.6 C 35.3 -7.2 32.0 -9.4 28.9 -11.1 " transform="translate(0.0 38.0)" stroke-dasharray="11.449510275377255" stroke-dashoffset="11.449510275377255"><animate attributeName="stroke-dashoffset" from="11.449510275377255" to="0" dur="0.3434853082613176s" begin="4.823674639533657s" fill="freeze" /></path><path d="M 17.2 -37.0 L 3.4 -37.0 " transform="translate(0.0 38.0)" stroke-dasharray="13.799999999999999" stroke-dashoffset="13.799999999999999"><animate attributeName="stroke-dashoffset" from="13.799999999999999" to="0" dur="0.414s" begin="5.167159947794975s" fill="freeze" /></path><path d="M 26.4 -23.3 C 25.0 -25.9 23.1 -28.7 21.2 -30.6 " transform="translate(0.0 38.0)" stroke-dasharray="8.991363803505845" stroke-dashoffset="8.991363803505845"><animate attributeName="stroke-dashoffset" from="8.991363803505845" to="0" dur="0.2697409141051753s" begin="5.5811599477949745s" fill="freeze" /></path><path d="M 29.6 -16.4 C 30.4 -17.8 31.1 -19.1 31.7 -20.9 " transform="translate(0.0 38.0)" stroke-dasharray="4.975162637772084" stroke-dashoffset="4.975162637772084"><animate attributeName="stroke-dashoffset" from="4.975162637772084" to="0" dur="0.14925487913316252s" begin="5.85090086190015s" fill="freeze" /></path><path d="M 34.8 -24.2 C 33.6 -26.4 31.8 -29.1 30.0 -30.9 " transform="translate(0.0 38.0)" stroke-dasharray="8.26676070269499" stroke-dashoffset="8.26676070269499"><animate attributeName="stroke-dashoffset" from="8.26676070269499" to="0" dur="0.2480028210808497s" begin="6.000155741033312s" fill="freeze" /></path><path d="M 22.1 -29.8 C 23.7 -32.5 25.2 -35.6 26.3 -38.8 " transform="translate(0.0 38.0)" stroke-dasharray="9.94858161989369" stroke-dashoffset="9.94858161989369"><animate attributeName="stroke-dashoffset" from="9.94858161989369" to="0" dur="0.29845744859681067s" begin="6.248158562114162s" fill="freeze" /></path><path d="M 44.3 -23.9 C 42.8 -26.4 40.8 -28.9 38.9 -30.7 " transform="translate(0.0 38.0)" stroke-dasharray="8.708015025674685" stroke-dashoffset="8.708015025674685"><animate attributeName="stroke-dashoffset" from="8.708015025674685" to="0" dur="0.26124045077024055s" begin="6.546616010710973s" fill="freeze" /></path><path d="M 30.9 -30.1 C 32.6 -32.9 33.9 -35.6 35.0 -38.5 " transform="translate(0.0 38.0)" stroke-dasharray="9.360715195036352" stroke-dashoffset="9.360715195036352"><animate attributeName="stroke-dashoffset" from="9.360715195036352" to="0" dur="0.2808214558510906s" begin="6.807856461481213s" fill="freeze" /></path><path d="M 39.8 -29.8 C 41.5 -32.4 42.9 -35.2 44.0 -38.4" transform="translate(0.0 38.0)" stroke-dasharray="9.595882351749413" stroke-dashoffset="9.595882351749413"><animate attributeName="stroke-dashoffset" from="9.595882351749413" to="0" dur="0.2878764705524824s" begin="7.088677917332304s" fill="freeze" /></path></g></svg>