<?xml version='1.0' encoding='utf-8'?>
<svg viewBox="0.0 -6.0 50.0 50.0" version="1.1" xmlns="http://www.w3.org/2000/svg"><rect x="-1000" y="-1000" width="2000" height="2000" stroke="white" fill="white" /><g style="fill:none;stroke:#000000;stroke-width:1"><path d="M 31.9 -25.4 L 40.4 -25.4 C 42.5 -25.4 43.5 -26.4 43.5 -28.1 L 43.5 -31.9 C 43.5 -33.7 42.5 -34.6 40.4 -34.6 L 34.9 -34.6 C 32.6 -34.6 31.7 -33.7 31.7 -31.7 L 31.7 -10.1 C 31.7 -8.1 32.6 -7.2 34.9 -7.2 L 41.6 -7.2 C 43.8 -7.2 44.7 -8.1 44.7 -9.8 L 44.7 -14.3 C 44.7 -16.1 43.8 -17.0 41.6 -17.0 L 31.8 -17.0 " transform="translate(0.0 38.0)" stroke-dasharray="89.22665655692799" stroke-dashoffset="89.22665655692799"><animate attributeName="stroke-dashoffset" from="89.22665655692799" to="0" dur="2.67679969670784s" begin="0s" fill="freeze" /></path><path d="M 3.1 -2.6 C 4.0 -5.0 4.8 -8.8 5.0 -11.8 " transform="translate(0.0 38.0)" stroke-dasharray="9.42150353114107" stroke-dashoffset="9.42150353114107"><animate attributeName="stroke-dashoffset" from="9.42150353114107" to="0" dur="0.2826451059342321s" begin="2.67679969670784s" fill="freeze" /></path><path d="M 9.9 2.9 L 9.9 -18.8 " transform="translate(0.0 38.0)" stroke-dasharray="21.7" stroke-dashoffset="21.7"><animate attributeName="stroke-dashoffset" from="21.7" to="0" dur="0.6509999999999999s" begin="2.959444802642072s" fill="freeze" /></path><path d="M 18.3 1.1 C 20.8 -0.7 23.1 -2.8 24.9 -5.0 " transform="translate(0.0 38.0)" stroke-dasharray="9.012069219175784" stroke-dashoffset="9.012069219175784"><animate attributeName="stroke-dashoffset" from="9.012069219175784" to="0" dur="0.2703620765752735s" begin="3.6104448026420717s" fill="freeze" /></path><path d="M 16.4 -6.2 C 16.1 -8.3 15.1 -11.2 14.3 -12.6 " transform="translate(0.0 38.0)" stroke-dasharray="6.764786738798823" stroke-dashoffset="6.764786738798823"><animate attributeName="stroke-dashoffset" from="6.764786738798823" to="0" dur="0.20294360216396468s" begin="3.8808068792173454s" fill="freeze" /></path><path d="M 2.8 -18.5 C 6.9 -18.6 11.5 -19.1 15.2 -19.7 " transform="translate(0.0 38.0)" stroke-dasharray="12.466817080963983" stroke-dashoffset="12.466817080963983"><animate attributeName="stroke-dashoffset" from="12.466817080963983" to="0" dur="0.37400451242891947s" begin="4.08375048138131s" fill="freeze" /></path><path d="M 24.6 -3.8 L 24.6 -11.6 C 24.6 -13.6 23.9 -14.2 21.8 -14.2 L 19.7 -14.2 " transform="translate(0.0 38.0)" stroke-dasharray="14.407883456335774" stroke-dashoffset="14.407883456335774"><animate attributeName="stroke-dashoffset" from="14.407883456335774" to="0" dur="0.4322365036900732s" begin="4.457754993810229s" fill="freeze" /></path><path d="M 16.8 -17.2 C 16.1 -19.4 14.9 -21.6 13.8 -23.1 " transform="translate(0.0 38.0)" stroke-dasharray="6.645381047945275" stroke-dashoffset="6.645381047945275"><animate attributeName="stroke-dashoffset" from="6.645381047945275" to="0" dur="0.19936143143835824s" begin="4.8899914975003025s" fill="freeze" /></path><path d="M 9.7 -26.2 C 7.5 -29.2 5.5 -31.4 4.0 -32.7 " transform="translate(0.0 38.0)" stroke-dasharray="8.661261356060065" stroke-dashoffset="8.661261356060065"><animate attributeName="stroke-dashoffset" from="8.661261356060065" to="0" dur="0.25983784068180193s" begin="5.089352928938661s" fill="freeze" /></path><path d="M 5.9 -19.1 C 8.8 -23.1 12.2 -28.8 14.3 -33.4 " transform="translate(0.0 38.0)" stroke-dasharray="16.60791748438848" stroke-dashoffset="16.60791748438848"><animate attributeName="stroke-dashoffset" from="16.60791748438848" to="0" dur="0.4982375245316544s" begin="5.349190769620463s" fill="freeze" /></path><path d="M 47.1 0.2 C 44.6 0.4 41.8 0.5 38.6 0.5 C 30.6 0.5 27.2 -1.2 24.5 -5.0 " transform="translate(0.0 38.0)" stroke-dasharray="24.3547829911761" stroke-dashoffset="24.3547829911761"><animate attributeName="stroke-dashoffset" from="24.3547829911761" to="0" dur="0.730643489735283s" begin="5.847428294152117s" fill="freeze" /></path><path d="M 6.3 -31.2 C 7.8 -33.9 9.2 -36.9 10.3 -40.1 " transform="translate(0.0 38.0)" stroke-dasharray="9.770098628166652" stroke-dashoffset="9.770098628166652"><animate attributeName="stroke-dashoffset" from="9.770098628166652" to="0" dur="0.29310295884499954s" begin="6.5780717838874s" fill="freeze" /></path><path d="M 24.7 -23.9 C 23.5 -25.2 22.3 -26.3 21.1 -27.3 " transform="translate(0.0 38.0)" stroke-dasharray="4.955372725242378" stroke-dashoffset="4.955372725242378"><animate attributeName="stroke-dashoffset" from="4.955372725242378" to="0" dur="0.14866118175727133s" begin="6.871174742732399s" fill="freeze" /></path><path d="M 25.6 -35.0 C 24.5 -36.1 23.2 -37.2 22.1 -38.2 " transform="translate(0.0 38.0)" stroke-dasharray="4.74299797638993" stroke-dashoffset="4.74299797638993"><animate attributeName="stroke-dashoffset" from="4.74299797638993" to="0" dur="0.1422899392916979s" begin="7.01983592448967s" fill="freeze" /></path><path d="M 36.5 -34.6 C 37.2 -36.8 37.5 -38.0 38.0 -39.8" transform="translate(0.0 38.0)" stroke-dasharray="5.412519125839506" stroke-dashoffset="5.412519125839506"><animate attributeName="stroke-dashoffset" from="5.412519125839506" to="0" dur="0.16237557377518516s" begin="7.162125863781368s" fill="freeze" /></path></g></svg>