<?xml version='1.0' encoding='utf-8'?>
<svg viewBox="0.0 -6.0 50.0 50.0" version="1.1" xmlns="http://www.w3.org/2000/svg"><rect x="-1000" y="-1000" width="2000" height="2000" stroke="white" fill="white" /><g style="fill:none;stroke:#000000;stroke-width:1"><path d="M 21.6 -18.4 L 9.9 -18.4 C 7.1 -18.4 6.3 -19.1 6.3 -21.1 L 6.3 -35.9 C 6.3 -37.8 7.1 -38.6 9.9 -38.6 L 22.4 -38.6 " transform="translate(0.0 38.0)" stroke-dasharray="49.52217458650699" stroke-dashoffset="49.52217458650699"><animate attributeName="stroke-dashoffset" from="49.52217458650699" to="0" dur="1.4856652375952097s" begin="0s; 15s; 30s; 45s" fill="freeze" id="anim0" /></path><path d="M 18.4 -3.2 C 17.9 -4.5 17.1 -5.9 16.3 -7.0 " transform="translate(0.0 38.0)" stroke-dasharray="4.353069613056802" stroke-dashoffset="4.353069613056802"><animate attributeName="stroke-dashoffset" from="4.353069613056802" to="0" dur="0.13059208839170405s" begin="anim0.end" fill="freeze" id="anim1" /></path><path d="M 45.5 1.2 L 4.5 1.2 " transform="translate(0.0 38.0)" stroke-dasharray="41.0" stroke-dashoffset="41.0"><animate attributeName="stroke-dashoffset" from="41.0" to="0" dur="1.23s" begin="anim1.end" fill="freeze" id="anim2" /></path><path d="M 29.6 0.5 C 31.1 -1.8 32.5 -4.5 33.5 -6.8 " transform="translate(0.0 38.0)" stroke-dasharray="8.285484996933691" stroke-dashoffset="8.285484996933691"><animate attributeName="stroke-dashoffset" from="8.285484996933691" to="0" dur="0.24856454990801075s" begin="anim2.end" fill="freeze" id="anim3" /></path><path d="M 42.0 -11.4 L 7.9 -11.4 " transform="translate(0.0 38.0)" stroke-dasharray="34.1" stroke-dashoffset="34.1"><animate attributeName="stroke-dashoffset" from="34.1" to="0" dur="1.023s" begin="anim3.end" fill="freeze" id="anim4" /></path><path d="M 14.8 -19.2 L 14.8 -24.9 " transform="translate(0.0 38.0)" stroke-dasharray="5.699999999999999" stroke-dashoffset="5.699999999999999"><animate attributeName="stroke-dashoffset" from="5.699999999999999" to="0" dur="0.17099999999999999s" begin="anim4.end" fill="freeze" id="anim5" /></path><path d="M 24.9 -11.9 L 24.9 -15.4 " transform="translate(0.0 38.0)" stroke-dasharray="3.5" stroke-dashoffset="3.5"><animate attributeName="stroke-dashoffset" from="3.5" to="0" dur="0.105s" begin="anim5.end" fill="freeze" id="anim6" /></path><path d="M 6.7 -25.4 L 18.9 -25.4 C 21.1 -25.4 21.8 -26.1 21.8 -27.4 L 21.8 -29.9 C 21.8 -31.2 21.1 -31.9 18.9 -31.9 L 6.7 -31.9 " transform="translate(0.0 38.0)" stroke-dasharray="34.9960103790854" stroke-dashoffset="34.9960103790854"><animate attributeName="stroke-dashoffset" from="34.9960103790854" to="0" dur="1.0498803113725619s" begin="anim6.end" fill="freeze" id="anim7" /></path><path d="M 14.8 -32.4 L 14.8 -37.7 " transform="translate(0.0 38.0)" stroke-dasharray="5.300000000000004" stroke-dashoffset="5.300000000000004"><animate attributeName="stroke-dashoffset" from="5.300000000000004" to="0" dur="0.1590000000000001s" begin="anim7.end" fill="freeze" id="anim8" /></path><path d="M 27.6 -19.4 C 33.5 -22.1 39.5 -27.8 42.0 -34.0 C 43.0 -36.1 42.2 -37.5 39.6 -37.5 L 27.1 -37.5 " transform="translate(0.0 38.0)" stroke-dasharray="38.945454672238874" stroke-dashoffset="38.945454672238874"><animate attributeName="stroke-dashoffset" from="38.945454672238874" to="0" dur="1.1683636401671662s" begin="anim8.end" fill="freeze" id="anim9" /></path><path d="M 46.0 -18.1 C 38.4 -21.9 32.1 -28.6 29.8 -37.0" transform="translate(0.0 38.0)" stroke-dasharray="25.63213937152961" stroke-dashoffset="25.63213937152961"><animate attributeName="stroke-dashoffset" from="25.63213937152961" to="0" dur="0.7689641811458883s" begin="anim9.end" fill="freeze" id="anim_end" /></path></g></svg>