<?xml version='1.0' encoding='utf-8'?>
<svg viewBox="0.0 -6.0 50.0 50.0" version="1.1" xmlns="http://www.w3.org/2000/svg"><rect x="-1000" y="-1000" width="2000" height="2000" stroke="white" fill="white" /><g style="fill:none;stroke:#000000;stroke-width:1"><path d="M 45.8 -0.3 C 39.0 -4.0 33.5 -10.2 30.4 -18.2 " transform="translate(0.0 38.0)" stroke-dasharray="24.108970330357334" stroke-dashoffset="24.108970330357334"><animate attributeName="stroke-dashoffset" from="24.108970330357334" to="0" dur="0.72326910991072s" begin="0s; anim_end.end" fill="freeze" id="anim0" /></path><path d="M 5.2 1.9 C 12.8 0.4 21.4 -3.0 27.4 -7.3 " transform="translate(0.0 38.0)" stroke-dasharray="24.19514125436423" stroke-dashoffset="24.19514125436423"><animate attributeName="stroke-dashoffset" from="24.19514125436423" to="0" dur="0.7258542376309269s" begin="anim0.end" fill="freeze" id="anim1" /></path><path d="M 5.7 -4.4 C 12.2 -5.7 19.4 -8.4 25.0 -11.9 " transform="translate(0.0 38.0)" stroke-dasharray="20.810375896680714" stroke-dashoffset="20.810375896680714"><animate attributeName="stroke-dashoffset" from="20.810375896680714" to="0" dur="0.6243112769004214s" begin="anim1.end" fill="freeze" id="anim2" /></path><path d="M 6.3 -10.6 C 13.1 -12.1 20.1 -14.7 25.1 -18.1 " transform="translate(0.0 38.0)" stroke-dasharray="20.35340496522738" stroke-dashoffset="20.35340496522738"><animate attributeName="stroke-dashoffset" from="20.35340496522738" to="0" dur="0.6106021489568214s" begin="anim2.end" fill="freeze" id="anim3" /></path><path d="M 22.1 2.5 C 23.1 2.6 24.0 2.8 24.9 2.8 C 27.8 2.8 29.4 1.1 29.4 -3.4 C 29.4 -8.2 27.1 -12.1 22.1 -15.3 " transform="translate(0.0 38.0)" stroke-dasharray="26.225532554000523" stroke-dashoffset="26.225532554000523"><animate attributeName="stroke-dashoffset" from="26.225532554000523" to="0" dur="0.7867659766200157s" begin="anim3.end" fill="freeze" id="anim4" /></path><path d="M 14.2 -22.6 C 15.7 -24.9 17.2 -27.8 18.4 -30.7 " transform="translate(0.0 38.0)" stroke-dasharray="9.136444888480618" stroke-dashoffset="9.136444888480618"><animate attributeName="stroke-dashoffset" from="9.136444888480618" to="0" dur="0.27409334665441853s" begin="anim4.end" fill="freeze" id="anim5" /></path><path d="M 45.2 -18.4 L 4.9 -18.4 " transform="translate(0.0 38.0)" stroke-dasharray="40.300000000000004" stroke-dashoffset="40.300000000000004"><animate attributeName="stroke-dashoffset" from="40.300000000000004" to="0" dur="1.209s" begin="anim5.end" fill="freeze" id="anim6" /></path><path d="M 5.3 -31.6 C 7.5 -33.8 9.7 -36.8 11.3 -40.3 " transform="translate(0.0 38.0)" stroke-dasharray="10.62276421685021" stroke-dashoffset="10.62276421685021"><animate attributeName="stroke-dashoffset" from="10.62276421685021" to="0" dur="0.31868292650550634s" begin="anim6.end" fill="freeze" id="anim7" /></path><path d="M 32.9 -23.2 L 14.8 -23.2 " transform="translate(0.0 38.0)" stroke-dasharray="18.099999999999998" stroke-dashoffset="18.099999999999998"><animate attributeName="stroke-dashoffset" from="18.099999999999998" to="0" dur="0.5429999999999999s" begin="anim7.end" fill="freeze" id="anim8" /></path><path d="M 16.4 -32.8 C 15.8 -33.9 15.0 -35.2 14.0 -36.5 " transform="translate(0.0 38.0)" stroke-dasharray="4.414655434131454" stroke-dashoffset="4.414655434131454"><animate attributeName="stroke-dashoffset" from="4.414655434131454" to="0" dur="0.1324396630239436s" begin="anim8.end" fill="freeze" id="anim9" /></path><path d="M 31.6 -18.6 C 32.6 -20.9 33.7 -23.8 34.4 -26.1 C 34.9 -27.6 34.2 -28.6 32.2 -28.6 L 18.0 -28.6 " transform="translate(0.0 38.0)" stroke-dasharray="26.33089784281618" stroke-dashoffset="26.33089784281618"><animate attributeName="stroke-dashoffset" from="26.33089784281618" to="0" dur="0.7899269352844854s" begin="anim9.end" fill="freeze" id="anim10" /></path><path d="M 22.1 -36.4 L 8.8 -36.4 " transform="translate(0.0 38.0)" stroke-dasharray="13.3" stroke-dashoffset="13.3"><animate attributeName="stroke-dashoffset" from="13.3" to="0" dur="0.399s" begin="anim10.end" fill="freeze" id="anim11" /></path><path d="M 35.5 -9.1 C 38.0 -10.5 40.6 -12.2 42.4 -13.8 " transform="translate(0.0 38.0)" stroke-dasharray="8.363292065464748" stroke-dashoffset="8.363292065464748"><animate attributeName="stroke-dashoffset" from="8.363292065464748" to="0" dur="0.25089876196394245s" begin="anim11.end" fill="freeze" id="anim12" /></path><path d="M 25.7 -32.9 C 27.6 -34.9 29.2 -37.5 30.6 -40.4 " transform="translate(0.0 38.0)" stroke-dasharray="8.994056921681663" stroke-dashoffset="8.994056921681663"><animate attributeName="stroke-dashoffset" from="8.994056921681663" to="0" dur="0.2698217076504499s" begin="anim12.end" fill="freeze" id="anim13" /></path><path d="M 37.0 -31.9 C 36.1 -33.5 35.1 -35.0 34.0 -36.4 " transform="translate(0.0 38.0)" stroke-dasharray="5.413656597684085" stroke-dashoffset="5.413656597684085"><animate attributeName="stroke-dashoffset" from="5.413656597684085" to="0" dur="0.16240969793052254s" begin="anim13.end" fill="freeze" id="anim14" /></path><path d="M 45.0 -36.4 L 28.1 -36.4" transform="translate(0.0 38.0)" stroke-dasharray="16.9" stroke-dashoffset="16.9"><animate attributeName="stroke-dashoffset" from="16.9" to="0" dur="0.5069999999999999s" begin="anim14.end" fill="freeze" id="anim_end" /></path></g></svg>