<?xml version='1.0' encoding='utf-8'?>
<svg viewBox="0.0 -6.0 50.0 50.0" version="1.1" xmlns="http://www.w3.org/2000/svg"><rect x="-1000" y="-1000" width="2000" height="2000" stroke="white" fill="white" /><g style="fill:none;stroke:#000000;stroke-width:1"><path d="M 44.2 -31.8 L 44.2 -34.2 C 44.2 -36.0 43.4 -36.9 40.5 -36.9 L 9.4 -36.9 C 6.5 -36.9 5.7 -36.0 5.7 -34.2 L 5.7 -31.6 " transform="translate(0.0 38.0)" stroke-dasharray="46.722331949665495" stroke-dashoffset="46.722331949665495"><animate attributeName="stroke-dashoffset" from="46.722331949665495" to="0" dur="1.4016699584899648s" begin="0s; 15s; 30s; 45s" fill="freeze" id="anim0" /></path><path d="M 15.1 1.8 L 35.1 1.8 C 37.8 1.8 38.7 0.9 38.7 -0.9 L 38.7 -3.9 C 38.7 -5.8 37.8 -6.6 35.1 -6.6 L 15.1 -6.6 C 12.4 -6.6 11.6 -5.8 11.6 -3.9 L 11.6 -0.9 C 11.6 0.9 12.4 1.8 15.1 1.8 Z " transform="translate(0.0 38.0)" stroke-dasharray="66.7056696969307" stroke-dashoffset="66.7056696969307"><animate attributeName="stroke-dashoffset" from="66.7056696969307" to="0" dur="2.001170090907921s" begin="anim0.end" fill="freeze" id="anim1" /></path><path d="M 10.4 -18.1 C 12.2 -19.9 14.3 -22.8 15.4 -24.9 " transform="translate(0.0 38.0)" stroke-dasharray="8.466238605453997" stroke-dashoffset="8.466238605453997"><animate attributeName="stroke-dashoffset" from="8.466238605453997" to="0" dur="0.2539871581636199s" begin="anim1.end" fill="freeze" id="anim2" /></path><path d="M 45.2 -13.9 L 4.8 -13.9 " transform="translate(0.0 38.0)" stroke-dasharray="40.400000000000006" stroke-dashoffset="40.400000000000006"><animate attributeName="stroke-dashoffset" from="40.400000000000006" to="0" dur="1.2120000000000002s" begin="anim2.end" fill="freeze" id="anim3" /></path><path d="M 6.1 -25.5 C 11.4 -26.9 16.4 -29.9 18.9 -33.9 " transform="translate(0.0 38.0)" stroke-dasharray="15.653935958563011" stroke-dashoffset="15.653935958563011"><animate attributeName="stroke-dashoffset" from="15.653935958563011" to="0" dur="0.4696180787568903s" begin="anim3.end" fill="freeze" id="anim4" /></path><path d="M 24.9 -10.4 L 24.9 -25.6 " transform="translate(0.0 38.0)" stroke-dasharray="15.200000000000001" stroke-dashoffset="15.200000000000001"><animate attributeName="stroke-dashoffset" from="15.200000000000001" to="0" dur="0.456s" begin="anim4.end" fill="freeze" id="anim5" /></path><path d="M 40.0 -21.0 L 12.9 -21.0 " transform="translate(0.0 38.0)" stroke-dasharray="27.1" stroke-dashoffset="27.1"><animate attributeName="stroke-dashoffset" from="27.1" to="0" dur="0.8130000000000001s" begin="anim5.end" fill="freeze" id="anim6" /></path><path d="M 24.9 -37.3 L 24.9 -41.1 " transform="translate(0.0 38.0)" stroke-dasharray="3.8000000000000043" stroke-dashoffset="3.8000000000000043"><animate attributeName="stroke-dashoffset" from="3.8000000000000043" to="0" dur="0.11400000000000013s" begin="anim6.end" fill="freeze" id="anim7" /></path><path d="M 39.9 -31.4 C 39.5 -29.0 38.2 -28.4 33.5 -28.4 C 29.7 -28.4 28.9 -28.9 28.9 -30.8 L 28.9 -36.0" transform="translate(0.0 38.0)" stroke-dasharray="19.112822029438483" stroke-dashoffset="19.112822029438483"><animate attributeName="stroke-dashoffset" from="19.112822029438483" to="0" dur="0.5733846608831544s" begin="anim7.end" fill="freeze" id="anim_end" /></path></g></svg>