<?xml version='1.0' encoding='utf-8'?>
<svg viewBox="0.0 -6.0 50.0 50.0" version="1.1" xmlns="http://www.w3.org/2000/svg"><rect x="-1000" y="-1000" width="2000" height="2000" stroke="white" fill="white" /><g style="fill:none;stroke:#000000;stroke-width:1"><path d="M 26.6 -6.8 L 38.6 -6.8 C 41.4 -6.8 42.5 -7.7 42.5 -9.9 L 42.5 -21.6 C 42.5 -23.9 41.4 -24.8 38.6 -24.8 L 26.6 -24.8 C 23.8 -24.8 22.6 -23.9 22.6 -21.6 L 22.6 -9.9 C 22.6 -7.7 23.8 -6.8 26.6 -6.8 Z " transform="translate(0.0 38.0)" stroke-dasharray="70.81302074013374" stroke-dashoffset="70.81302074013374"><animate attributeName="stroke-dashoffset" from="70.81302074013374" to="0" dur="2.124390622204012s" begin="0s" fill="freeze" /></path><path d="M 15.6 -5.5 C 14.1 -7.7 11.9 -9.8 9.7 -11.8 " transform="translate(0.0 38.0)" stroke-dasharray="8.650753258800792" stroke-dashoffset="8.650753258800792"><animate attributeName="stroke-dashoffset" from="8.650753258800792" to="0" dur="0.25952259776402375s" begin="2.124390622204012s" fill="freeze" /></path><path d="M 17.6 2.2 C 20.8 1.2 24.4 -0.7 27.0 -2.4 " transform="translate(0.0 38.0)" stroke-dasharray="10.494896774016606" stroke-dashoffset="10.494896774016606"><animate attributeName="stroke-dashoffset" from="10.494896774016606" to="0" dur="0.3148469032204982s" begin="2.3839132199680355s" fill="freeze" /></path><path d="M 3.6 0.5 C 7.8 -4.9 10.2 -13.7 10.2 -25.1 L 10.2 -40.1 " transform="translate(0.0 38.0)" stroke-dasharray="41.88969861437337" stroke-dashoffset="41.88969861437337"><animate attributeName="stroke-dashoffset" from="41.88969861437337" to="0" dur="1.2566909584312012s" begin="2.6987601231885336s" fill="freeze" /></path><path d="M 3.6 -21.6 C 4.3 -23.4 5.0 -26.2 5.3 -28.8 " transform="translate(0.0 38.0)" stroke-dasharray="7.415321656558122" stroke-dashoffset="7.415321656558122"><animate attributeName="stroke-dashoffset" from="7.415321656558122" to="0" dur="0.22245964969674364s" begin="3.955451081619735s" fill="freeze" /></path><path d="M 45.3 1.8 C 42.4 0.7 39.0 -1.1 37.0 -2.6 " transform="translate(0.0 38.0)" stroke-dasharray="9.41942736478717" stroke-dashoffset="9.41942736478717"><animate attributeName="stroke-dashoffset" from="9.41942736478717" to="0" dur="0.2825828209436151s" begin="4.177910731316478s" fill="freeze" /></path><path d="M 10.9 -25.3 C 13.1 -27.3 14.8 -29.4 16.1 -31.5 " transform="translate(0.0 38.0)" stroke-dasharray="8.118312814783751" stroke-dashoffset="8.118312814783751"><animate attributeName="stroke-dashoffset" from="8.118312814783751" to="0" dur="0.2435493844435125s" begin="4.460493552260093s" fill="freeze" /></path><path d="M 41.2 -12.9 L 23.4 -12.9 " transform="translate(0.0 38.0)" stroke-dasharray="17.800000000000004" stroke-dashoffset="17.800000000000004"><animate attributeName="stroke-dashoffset" from="17.800000000000004" to="0" dur="0.5340000000000001s" begin="4.704042936703606s" fill="freeze" /></path><path d="M 41.2 -18.8 L 23.4 -18.8 " transform="translate(0.0 38.0)" stroke-dasharray="17.800000000000004" stroke-dashoffset="17.800000000000004"><animate attributeName="stroke-dashoffset" from="17.800000000000004" to="0" dur="0.5340000000000001s" begin="5.238042936703605s" fill="freeze" /></path><path d="M 46.5 -30.9 L 19.8 -30.9 " transform="translate(0.0 38.0)" stroke-dasharray="26.7" stroke-dashoffset="26.7"><animate attributeName="stroke-dashoffset" from="26.7" to="0" dur="0.8009999999999999s" begin="5.772042936703605s" fill="freeze" /></path><path d="M 32.1 -31.0 L 32.1 -38.1 " transform="translate(0.0 38.0)" stroke-dasharray="7.100000000000001" stroke-dashoffset="7.100000000000001"><animate attributeName="stroke-dashoffset" from="7.100000000000001" to="0" dur="0.21300000000000002s" begin="6.573042936703605s" fill="freeze" /></path><path d="M 43.0 -38.2 L 22.4 -38.2" transform="translate(0.0 38.0)" stroke-dasharray="20.6" stroke-dashoffset="20.6"><animate attributeName="stroke-dashoffset" from="20.6" to="0" dur="0.618s" begin="6.7860429367036055s" fill="freeze" /></path></g></svg>