<?xml version='1.0' encoding='utf-8'?>
<svg viewBox="0.0 -6.0 50.0 50.0" version="1.1" xmlns="http://www.w3.org/2000/svg"><rect x="-1000" y="-1000" width="2000" height="2000" stroke="white" fill="white" /><g style="fill:none;stroke:#000000;stroke-width:1"><path d="M 34.5 -13.2 L 15.8 -13.2 C 13.1 -13.2 12.0 -12.2 12.0 -10.2 L 12.0 -1.4 C 12.0 0.6 13.1 1.4 15.8 1.4 L 34.5 1.4 C 37.2 1.4 38.2 0.6 38.2 -1.4 L 38.2 -10.2 C 38.2 -12.2 37.2 -13.2 34.5 -13.2 Z " transform="translate(0.0 38.0)" stroke-dasharray="76.90371548248635" stroke-dashoffset="76.90371548248635"><animate attributeName="stroke-dashoffset" from="76.90371548248635" to="0" dur="2.3071114644745903s" begin="0s; anim_end.end" fill="freeze" id="anim0" /></path><path d="M 24.8 0.6 L 24.8 -12.9 " transform="translate(0.0 38.0)" stroke-dasharray="13.5" stroke-dashoffset="13.5"><animate attributeName="stroke-dashoffset" from="13.5" to="0" dur="0.40499999999999997s" begin="anim0.end" fill="freeze" id="anim1" /></path><path d="M 38.4 -6.0 L 12.6 -6.0 " transform="translate(0.0 38.0)" stroke-dasharray="25.799999999999997" stroke-dashoffset="25.799999999999997"><animate attributeName="stroke-dashoffset" from="25.799999999999997" to="0" dur="0.7739999999999999s" begin="anim1.end" fill="freeze" id="anim2" /></path><path d="M 3.9 -13.6 C 11.3 -16.4 18.3 -20.8 23.1 -26.1 " transform="translate(0.0 38.0)" stroke-dasharray="23.115150634322976" stroke-dashoffset="23.115150634322976"><animate attributeName="stroke-dashoffset" from="23.115150634322976" to="0" dur="0.6934545190296892s" begin="anim2.end" fill="freeze" id="anim3" /></path><path d="M 16.6 -29.9 C 16.1 -30.9 15.5 -31.6 14.7 -32.5 " transform="translate(0.0 38.0)" stroke-dasharray="3.230934735853234" stroke-dashoffset="3.230934735853234"><animate attributeName="stroke-dashoffset" from="3.230934735853234" to="0" dur="0.096928042075597s" begin="anim3.end" fill="freeze" id="anim4" /></path><path d="M 24.8 -17.2 L 24.8 -36.7 " transform="translate(0.0 38.0)" stroke-dasharray="19.500000000000004" stroke-dashoffset="19.500000000000004"><animate attributeName="stroke-dashoffset" from="19.500000000000004" to="0" dur="0.5850000000000001s" begin="anim4.end" fill="freeze" id="anim5" /></path><path d="M 45.2 -26.8 L 4.7 -26.8 " transform="translate(0.0 38.0)" stroke-dasharray="40.5" stroke-dashoffset="40.5"><animate attributeName="stroke-dashoffset" from="40.5" to="0" dur="1.2149999999999999s" begin="anim5.end" fill="freeze" id="anim6" /></path><path d="M 45.8 -14.7 C 38.6 -17.0 30.9 -21.3 26.2 -25.9 " transform="translate(0.0 38.0)" stroke-dasharray="22.754341877568194" stroke-dashoffset="22.754341877568194"><animate attributeName="stroke-dashoffset" from="22.754341877568194" to="0" dur="0.6826302563270458s" begin="anim6.end" fill="freeze" id="anim7" /></path><path d="M 9.2 -36.1 C 19.2 -36.5 30.5 -37.6 38.9 -39.3 " transform="translate(0.0 38.0)" stroke-dasharray="29.899911085792603" stroke-dashoffset="29.899911085792603"><animate attributeName="stroke-dashoffset" from="29.899911085792603" to="0" dur="0.896997332573778s" begin="anim7.end" fill="freeze" id="anim8" /></path><path d="M 33.0 -29.6 C 34.0 -30.9 34.9 -32.4 35.5 -33.6" transform="translate(0.0 38.0)" stroke-dasharray="4.723674323007928" stroke-dashoffset="4.723674323007928"><animate attributeName="stroke-dashoffset" from="4.723674323007928" to="0" dur="0.14171022969023783s" begin="anim8.end" fill="freeze" id="anim_end" /></path></g></svg>