<?xml version='1.0' encoding='utf-8'?>
<svg viewBox="0.0 -6.0 50.0 50.0" version="1.1" xmlns="http://www.w3.org/2000/svg"><rect x="-1000" y="-1000" width="2000" height="2000" stroke="white" fill="white" /><g style="fill:none;stroke:#000000;stroke-width:1"><path d="M 25.8 -11.7 L 10.8 -11.7 C 8.0 -11.7 6.9 -12.7 6.9 -14.8 L 6.9 -34.7 C 6.9 -36.9 8.0 -37.9 10.8 -37.9 L 25.3 -37.9 " transform="translate(0.0 38.0)" stroke-dasharray="60.98292419827879" stroke-dashoffset="60.98292419827879"><animate attributeName="stroke-dashoffset" from="60.98292419827879" to="0" dur="1.8294877259483635s" begin="0s; 15s; 30s; 45s" fill="freeze" id="anim0" /></path><path d="M 6.5 1.4 C 8.0 -0.7 9.3 -3.2 10.3 -5.6 " transform="translate(0.0 38.0)" stroke-dasharray="7.9811478447797395" stroke-dashoffset="7.9811478447797395"><animate attributeName="stroke-dashoffset" from="7.9811478447797395" to="0" dur="0.23943443534339218s" begin="anim0.end" fill="freeze" id="anim1" /></path><path d="M 20.5 0.8 C 20.1 -1.3 19.6 -3.3 18.9 -5.3 " transform="translate(0.0 38.0)" stroke-dasharray="6.312261304498248" stroke-dashoffset="6.312261304498248"><animate attributeName="stroke-dashoffset" from="6.312261304498248" to="0" dur="0.18936783913494745s" begin="anim1.end" fill="freeze" id="anim2" /></path><path d="M 31.6 0.3 C 31.1 -1.6 30.1 -4.0 29.1 -5.8 " transform="translate(0.0 38.0)" stroke-dasharray="6.6072248394939" stroke-dashoffset="6.6072248394939"><animate attributeName="stroke-dashoffset" from="6.6072248394939" to="0" dur="0.198216745184817s" begin="anim2.end" fill="freeze" id="anim3" /></path><path d="M 12.4 -19.4 L 12.4 -30.8 " transform="translate(0.0 38.0)" stroke-dasharray="11.400000000000002" stroke-dashoffset="11.400000000000002"><animate attributeName="stroke-dashoffset" from="11.400000000000002" to="0" dur="0.342s" begin="anim3.end" fill="freeze" id="anim4" /></path><path d="M 43.6 0.1 C 42.5 -2.1 41.0 -4.2 39.4 -6.1 " transform="translate(0.0 38.0)" stroke-dasharray="7.505845060249573" stroke-dashoffset="7.505845060249573"><animate attributeName="stroke-dashoffset" from="7.505845060249573" to="0" dur="0.22517535180748718s" begin="anim4.end" fill="freeze" id="anim5" /></path><path d="M 17.9 -11.9 L 17.9 -18.4 C 17.9 -20.1 18.6 -20.6 20.1 -20.6 L 21.4 -20.6 C 23.1 -20.6 23.8 -21.2 23.8 -22.7 L 23.8 -27.4 C 23.8 -28.9 23.1 -29.5 21.4 -29.5 L 20.1 -29.5 C 18.6 -29.5 17.9 -30.0 17.9 -31.8 L 17.9 -37.1 " transform="translate(0.0 38.0)" stroke-dasharray="33.87121868755555" stroke-dashoffset="33.87121868755555"><animate attributeName="stroke-dashoffset" from="33.87121868755555" to="0" dur="1.0161365606266664s" begin="anim5.end" fill="freeze" id="anim6" /></path><path d="M 32.1 -26.1 L 39.6 -26.1 C 42.2 -26.1 43.1 -26.9 43.1 -29.0 L 43.1 -35.0 C 43.1 -37.0 42.2 -37.9 39.7 -37.9 L 34.5 -37.9 C 31.9 -37.9 31.1 -37.0 31.1 -34.9 L 31.1 -15.2 C 31.1 -12.5 32.2 -11.8 37.5 -11.8 C 43.6 -11.8 45.2 -12.8 45.6 -17.2" transform="translate(0.0 38.0)" stroke-dasharray="73.90198533464402" stroke-dashoffset="73.90198533464402"><animate attributeName="stroke-dashoffset" from="73.90198533464402" to="0" dur="2.2170595600393206s" begin="anim6.end" fill="freeze" id="anim_end" /></path></g></svg>