<?xml version='1.0' encoding='utf-8'?>
<svg viewBox="0.0 -6.0 50.0 50.0" version="1.1" xmlns="http://www.w3.org/2000/svg"><rect x="-1000" y="-1000" width="2000" height="2000" stroke="white" fill="white" /><g style="fill:none;stroke:#000000;stroke-width:1"><path d="M 4.8 -0.1 C 8.9 -6.0 11.1 -13.4 11.1 -24.1 L 11.1 -32.4 C 11.1 -34.9 12.2 -36.0 15.4 -36.0 L 45.7 -36.0 " transform="translate(0.0 38.0)" stroke-dasharray="70.3390669826816" stroke-dashoffset="70.3390669826816"><animate attributeName="stroke-dashoffset" from="70.3390669826816" to="0" dur="2.110172009480448s" begin="0s; 15s; 30s; 45s" fill="freeze" id="anim0" /></path><path d="M 3.3 -13.9 C 5.7 -15.0 8.2 -16.3 10.7 -18.0 " transform="translate(0.0 38.0)" stroke-dasharray="8.470041376684327" stroke-dashoffset="8.470041376684327"><animate attributeName="stroke-dashoffset" from="8.470041376684327" to="0" dur="0.2541012413005298s" begin="anim0.end" fill="freeze" id="anim1" /></path><path d="M 46.8 1.1 L 12.1 1.1 " transform="translate(0.0 38.0)" stroke-dasharray="34.699999999999996" stroke-dashoffset="34.699999999999996"><animate attributeName="stroke-dashoffset" from="34.699999999999996" to="0" dur="1.041s" begin="anim1.end" fill="freeze" id="anim2" /></path><path d="M 25.6 0.1 L 25.6 -10.2 " transform="translate(0.0 38.0)" stroke-dasharray="10.299999999999999" stroke-dashoffset="10.299999999999999"><animate attributeName="stroke-dashoffset" from="10.299999999999999" to="0" dur="0.30899999999999994s" begin="anim2.end" fill="freeze" id="anim3" /></path><path d="M 6.8 -25.8 C 6.0 -27.0 5.0 -28.2 4.1 -29.1 " transform="translate(0.0 38.0)" stroke-dasharray="4.270216767544571" stroke-dashoffset="4.270216767544571"><animate attributeName="stroke-dashoffset" from="4.270216767544571" to="0" dur="0.1281065030263371s" begin="anim3.end" fill="freeze" id="anim4" /></path><path d="M 41.8 0.0 L 41.8 -7.6 C 41.8 -9.8 40.9 -10.7 38.0 -10.7 L 21.4 -10.7 C 18.6 -10.7 17.6 -9.8 17.6 -7.6 L 17.6 0.0 " transform="translate(0.0 38.0)" stroke-dasharray="43.23477679064066" stroke-dashoffset="43.23477679064066"><animate attributeName="stroke-dashoffset" from="43.23477679064066" to="0" dur="1.2970433037192197s" begin="anim4.end" fill="freeze" id="anim5" /></path><path d="M 33.5 0.1 L 33.5 -10.2 " transform="translate(0.0 38.0)" stroke-dasharray="10.299999999999999" stroke-dashoffset="10.299999999999999"><animate attributeName="stroke-dashoffset" from="10.299999999999999" to="0" dur="0.30899999999999994s" begin="anim5.end" fill="freeze" id="anim6" /></path><path d="M 25.2 -20.4 C 27.0 -21.9 29.1 -24.3 30.4 -26.5 " transform="translate(0.0 38.0)" stroke-dasharray="8.0494480523361" stroke-dashoffset="8.0494480523361"><animate attributeName="stroke-dashoffset" from="8.0494480523361" to="0" dur="0.24148344157008297s" begin="anim6.end" fill="freeze" id="anim7" /></path><path d="M 23.4 -16.7 L 35.8 -16.7 C 38.6 -16.7 39.5 -17.7 39.5 -19.8 L 39.5 -26.9 C 39.5 -29.1 38.6 -30.0 35.8 -30.0 L 23.4 -30.0 C 20.6 -30.0 19.6 -29.1 19.6 -26.9 L 19.6 -19.8 C 19.6 -17.7 20.6 -16.7 23.4 -16.7 Z " transform="translate(0.0 38.0)" stroke-dasharray="61.63441224654029" stroke-dashoffset="61.63441224654029"><animate attributeName="stroke-dashoffset" from="61.63441224654029" to="0" dur="1.8490323673962088s" begin="anim7.end" fill="freeze" id="anim8" /></path><path d="M 33.5 -20.7 C 31.9 -22.1 30.5 -23.1 28.8 -24.2 " transform="translate(0.0 38.0)" stroke-dasharray="5.865704074087873" stroke-dashoffset="5.865704074087873"><animate attributeName="stroke-dashoffset" from="5.865704074087873" to="0" dur="0.17597112222263617s" begin="anim8.end" fill="freeze" id="anim9" /></path><path d="M 28.1 -36.0 L 28.1 -41.3" transform="translate(0.0 38.0)" stroke-dasharray="5.299999999999997" stroke-dashoffset="5.299999999999997"><animate attributeName="stroke-dashoffset" from="5.299999999999997" to="0" dur="0.15899999999999992s" begin="anim9.end" fill="freeze" id="anim_end" /></path></g></svg>