<?xml version='1.0' encoding='utf-8'?>
<svg viewBox="0.0 -6.0 50.0 50.0" version="1.1" xmlns="http://www.w3.org/2000/svg"><rect x="-1000" y="-1000" width="2000" height="2000" stroke="white" fill="white" /><g style="fill:none;stroke:#000000;stroke-width:1"><path d="M 16.8 -10.9 L 16.8 -33.3 C 16.8 -35.7 15.9 -36.6 13.6 -36.6 L 7.5 -36.6 C 5.1 -36.6 4.3 -35.7 4.3 -33.3 L 4.3 -10.9 C 4.3 -8.5 5.1 -7.5 7.5 -7.5 L 13.6 -7.5 C 15.9 -7.5 16.8 -8.5 16.8 -10.9 Z " transform="translate(0.0 38.0)" stroke-dasharray="78.64323799771739" stroke-dashoffset="78.64323799771739"><animate attributeName="stroke-dashoffset" from="78.64323799771739" to="0" dur="2.3592971399315217s" begin="0s; anim_end.end" fill="freeze" id="anim0" /></path><path d="M 10.5 -8.2 L 10.5 -35.8 " transform="translate(0.0 38.0)" stroke-dasharray="27.599999999999998" stroke-dashoffset="27.599999999999998"><animate attributeName="stroke-dashoffset" from="27.599999999999998" to="0" dur="0.828s" begin="anim0.end" fill="freeze" id="anim1" /></path><path d="M 16.1 -22.7 L 5.0 -22.7 " transform="translate(0.0 38.0)" stroke-dasharray="11.100000000000001" stroke-dashoffset="11.100000000000001"><animate attributeName="stroke-dashoffset" from="11.100000000000001" to="0" dur="0.333s" begin="anim1.end" fill="freeze" id="anim2" /></path><path d="M 18.2 2.0 C 26.9 -0.2 35.0 -4.8 39.1 -11.1 C 40.4 -13.0 39.6 -14.7 37.1 -14.7 L 28.2 -14.7 " transform="translate(0.0 38.0)" stroke-dasharray="39.57948463671533" stroke-dashoffset="39.57948463671533"><animate attributeName="stroke-dashoffset" from="39.57948463671533" to="0" dur="1.18738453910146s" begin="anim2.end" fill="freeze" id="anim3" /></path><path d="M 21.4 -7.5 C 24.9 -9.9 28.6 -14.6 30.6 -18.8 " transform="translate(0.0 38.0)" stroke-dasharray="14.713775076963882" stroke-dashoffset="14.713775076963882"><animate attributeName="stroke-dashoffset" from="14.713775076963882" to="0" dur="0.4414132523089165s" begin="anim3.end" fill="freeze" id="anim4" /></path><path d="M 45.3 1.2 C 37.9 -1.1 31.2 -6.0 27.8 -12.7 " transform="translate(0.0 38.0)" stroke-dasharray="22.940506895734075" stroke-dashoffset="22.940506895734075"><animate attributeName="stroke-dashoffset" from="22.940506895734075" to="0" dur="0.6882152068720222s" begin="anim4.end" fill="freeze" id="anim5" /></path><path d="M 21.2 -18.6 C 25.0 -20.3 27.6 -23.4 28.4 -27.3 " transform="translate(0.0 38.0)" stroke-dasharray="11.741860747989012" stroke-dashoffset="11.741860747989012"><animate attributeName="stroke-dashoffset" from="11.741860747989012" to="0" dur="0.35225582243967035s" begin="anim5.end" fill="freeze" id="anim6" /></path><path d="M 22.1 -31.1 C 28.8 -31.3 35.2 -31.8 42.0 -32.7 " transform="translate(0.0 38.0)" stroke-dasharray="19.973089532464225" stroke-dashoffset="19.973089532464225"><animate attributeName="stroke-dashoffset" from="19.973089532464225" to="0" dur="0.5991926859739267s" begin="anim6.end" fill="freeze" id="anim7" /></path><path d="M 26.9 -31.9 C 28.6 -34.5 29.8 -36.9 31.0 -39.6 " transform="translate(0.0 38.0)" stroke-dasharray="8.733714768737633" stroke-dashoffset="8.733714768737633"><animate attributeName="stroke-dashoffset" from="8.733714768737633" to="0" dur="0.262011443062129s" begin="anim7.end" fill="freeze" id="anim8" /></path><path d="M 45.8 -25.6 C 45.5 -22.8 44.1 -21.9 40.4 -21.9 C 37.1 -21.9 36.3 -22.4 36.3 -24.4 L 36.3 -31.3 " transform="translate(0.0 38.0)" stroke-dasharray="19.983032165710778" stroke-dashoffset="19.983032165710778"><animate attributeName="stroke-dashoffset" from="19.983032165710778" to="0" dur="0.5994909649713234s" begin="anim8.end" fill="freeze" id="anim9" /></path><path d="M 43.9 -30.9 C 42.3 -32.9 40.2 -34.8 38.5 -36.1" transform="translate(0.0 38.0)" stroke-dasharray="7.5136751418804995" stroke-dashoffset="7.5136751418804995"><animate attributeName="stroke-dashoffset" from="7.5136751418804995" to="0" dur="0.22541025425641498s" begin="anim9.end" fill="freeze" id="anim_end" /></path></g></svg>