<?xml version='1.0' encoding='utf-8'?>
<svg viewBox="0.0 -6.0 50.0 50.0" version="1.1" xmlns="http://www.w3.org/2000/svg"><rect x="-1000" y="-1000" width="2000" height="2000" stroke="white" fill="white" /><g style="fill:none;stroke:#000000;stroke-width:1"><path d="M 3.7 0.5 C 8.1 -4.9 10.4 -13.8 10.4 -25.2 L 10.4 -40.0 " transform="translate(0.0 38.0)" stroke-dasharray="41.84496575837154" stroke-dashoffset="41.84496575837154"><animate attributeName="stroke-dashoffset" from="41.84496575837154" to="0" dur="1.2553489727511462s" begin="0s" fill="freeze" /></path><path d="M 15.2 -5.0 C 13.8 -7.1 11.7 -9.4 9.7 -11.1 " transform="translate(0.0 38.0)" stroke-dasharray="8.237280810717225" stroke-dashoffset="8.237280810717225"><animate attributeName="stroke-dashoffset" from="8.237280810717225" to="0" dur="0.24711842432151673s" begin="1.2553489727511462s" fill="freeze" /></path><path d="M 16.5 2.0 C 22.6 0.1 26.4 -3.8 27.5 -9.7 " transform="translate(0.0 38.0)" stroke-dasharray="16.969151286862214" stroke-dashoffset="16.969151286862214"><animate attributeName="stroke-dashoffset" from="16.969151286862214" to="0" dur="0.5090745386058664s" begin="1.502467397072663s" fill="freeze" /></path><path d="M 3.8 -22.0 C 4.4 -23.8 5.2 -26.6 5.5 -29.2 " transform="translate(0.0 38.0)" stroke-dasharray="7.410179308101949" stroke-dashoffset="7.410179308101949"><animate attributeName="stroke-dashoffset" from="7.410179308101949" to="0" dur="0.22230537924305846s" begin="2.0115419356785296s" fill="freeze" /></path><path d="M 18.4 -14.7 C 21.9 -15.2 25.9 -16.2 29.1 -17.2 " transform="translate(0.0 38.0)" stroke-dasharray="10.999023350712303" stroke-dashoffset="10.999023350712303"><animate attributeName="stroke-dashoffset" from="10.999023350712303" to="0" dur="0.32997070052136906s" begin="2.233847314921588s" fill="freeze" /></path><path d="M 45.3 -9.9 L 18.6 -9.9 " transform="translate(0.0 38.0)" stroke-dasharray="26.699999999999996" stroke-dashoffset="26.699999999999996"><animate attributeName="stroke-dashoffset" from="26.699999999999996" to="0" dur="0.8009999999999998s" begin="2.563818015442957s" fill="freeze" /></path><path d="M 11.2 -25.1 C 13.4 -27.1 15.2 -29.3 16.4 -31.4 " transform="translate(0.0 38.0)" stroke-dasharray="8.20118236357518" stroke-dashoffset="8.20118236357518"><animate attributeName="stroke-dashoffset" from="8.20118236357518" to="0" dur="0.2460354709072554s" begin="3.3648180154429568s" fill="freeze" /></path><path d="M 46.0 -3.0 C 45.6 0.3 44.1 1.4 39.9 1.4 C 36.1 1.4 35.2 0.8 35.2 -1.4 L 35.2 -9.8 " transform="translate(0.0 38.0)" stroke-dasharray="23.35928549116159" stroke-dashoffset="23.35928549116159"><animate attributeName="stroke-dashoffset" from="23.35928549116159" to="0" dur="0.7007785647348477s" begin="3.610853486350212s" fill="freeze" /></path><path d="M 24.4 -16.4 L 24.4 -25.6 " transform="translate(0.0 38.0)" stroke-dasharray="9.200000000000003" stroke-dashoffset="9.200000000000003"><animate attributeName="stroke-dashoffset" from="9.200000000000003" to="0" dur="0.2760000000000001s" begin="4.31163205108506s" fill="freeze" /></path><path d="M 29.4 -22.2 L 19.6 -22.2 " transform="translate(0.0 38.0)" stroke-dasharray="9.799999999999997" stroke-dashoffset="9.799999999999997"><animate attributeName="stroke-dashoffset" from="9.799999999999997" to="0" dur="0.29399999999999993s" begin="4.58763205108506s" fill="freeze" /></path><path d="M 45.8 -15.7 L 32.9 -15.7 " transform="translate(0.0 38.0)" stroke-dasharray="12.899999999999999" stroke-dashoffset="12.899999999999999"><animate attributeName="stroke-dashoffset" from="12.899999999999999" to="0" dur="0.38699999999999996s" begin="4.8816320510850595s" fill="freeze" /></path><path d="M 38.9 -15.7 L 38.9 -25.6 " transform="translate(0.0 38.0)" stroke-dasharray="9.900000000000002" stroke-dashoffset="9.900000000000002"><animate attributeName="stroke-dashoffset" from="9.900000000000002" to="0" dur="0.29700000000000004s" begin="5.268632051085059s" fill="freeze" /></path><path d="M 44.1 -22.2 L 34.4 -22.2 " transform="translate(0.0 38.0)" stroke-dasharray="9.700000000000003" stroke-dashoffset="9.700000000000003"><animate attributeName="stroke-dashoffset" from="9.700000000000003" to="0" dur="0.2910000000000001s" begin="5.565632051085059s" fill="freeze" /></path><path d="M 45.9 -29.8 L 20.2 -29.8 " transform="translate(0.0 38.0)" stroke-dasharray="25.7" stroke-dashoffset="25.7"><animate attributeName="stroke-dashoffset" from="25.7" to="0" dur="0.7709999999999999s" begin="5.856632051085059s" fill="freeze" /></path><path d="M 42.0 -36.0 L 22.9 -36.0 " transform="translate(0.0 38.0)" stroke-dasharray="19.1" stroke-dashoffset="19.1"><animate attributeName="stroke-dashoffset" from="19.1" to="0" dur="0.5730000000000001s" begin="6.627632051085059s" fill="freeze" /></path><path d="M 32.1 -29.9 L 32.1 -40.5" transform="translate(0.0 38.0)" stroke-dasharray="10.600000000000001" stroke-dashoffset="10.600000000000001"><animate attributeName="stroke-dashoffset" from="10.600000000000001" to="0" dur="0.318s" begin="7.200632051085059s" fill="freeze" /></path></g></svg>