<?xml version='1.0' encoding='utf-8'?>
<svg viewBox="0.0 -6.0 50.0 50.0" version="1.1" xmlns="http://www.w3.org/2000/svg"><rect x="-1000" y="-1000" width="2000" height="2000" stroke="white" fill="white" /><g style="fill:none;stroke:#000000;stroke-width:1"><path d="M 20.4 1.9 L 34.9 1.9 C 38.0 1.9 39.0 1.0 39.0 -1.0 L 39.0 -13.6 C 39.0 -15.6 38.0 -16.5 34.9 -16.5 L 20.4 -16.5 C 17.2 -16.5 16.2 -15.6 16.2 -13.6 L 16.2 -1.0 C 16.2 1.0 17.2 1.9 20.4 1.9 Z " transform="translate(0.0 38.0)" stroke-dasharray="77.61713850816285" stroke-dashoffset="77.61713850816285"><animate attributeName="stroke-dashoffset" from="77.61713850816285" to="0" dur="2.3285141552448856s" begin="0s" fill="freeze" /></path><path d="M 4.5 -4.0 C 9.6 -8.4 13.8 -15.1 16.4 -22.6 " transform="translate(0.0 38.0)" stroke-dasharray="22.325855613719035" stroke-dashoffset="22.325855613719035"><animate attributeName="stroke-dashoffset" from="22.325855613719035" to="0" dur="0.669775668411571s" begin="2.3285141552448856s" fill="freeze" /></path><path d="M 38.5 -4.5 L 16.9 -4.5 " transform="translate(0.0 38.0)" stroke-dasharray="21.6" stroke-dashoffset="21.6"><animate attributeName="stroke-dashoffset" from="21.6" to="0" dur="0.648s" begin="2.9982898236564566s" fill="freeze" /></path><path d="M 38.5 -10.5 L 16.9 -10.5 " transform="translate(0.0 38.0)" stroke-dasharray="21.6" stroke-dashoffset="21.6"><animate attributeName="stroke-dashoffset" from="21.6" to="0" dur="0.648s" begin="3.6462898236564567s" fill="freeze" /></path><path d="M 45.5 -23.2 L 4.5 -23.2 " transform="translate(0.0 38.0)" stroke-dasharray="41.0" stroke-dashoffset="41.0"><animate attributeName="stroke-dashoffset" from="41.0" to="0" dur="1.23s" begin="4.294289823656457s" fill="freeze" /></path><path d="M 24.9 -23.1 L 24.9 -34.5 " transform="translate(0.0 38.0)" stroke-dasharray="11.399999999999999" stroke-dashoffset="11.399999999999999"><animate attributeName="stroke-dashoffset" from="11.399999999999999" to="0" dur="0.34199999999999997s" begin="5.524289823656456s" fill="freeze" /></path><path d="M 39.7 -29.4 L 10.2 -29.4 " transform="translate(0.0 38.0)" stroke-dasharray="29.500000000000004" stroke-dashoffset="29.500000000000004"><animate attributeName="stroke-dashoffset" from="29.500000000000004" to="0" dur="0.8850000000000001s" begin="5.866289823656456s" fill="freeze" /></path><path d="M 19.2 -38.3 C 18.6 -39.1 17.9 -40.1 17.1 -41.0 " transform="translate(0.0 38.0)" stroke-dasharray="3.421768509134394" stroke-dashoffset="3.421768509134394"><animate attributeName="stroke-dashoffset" from="3.421768509134394" to="0" dur="0.10265305527403182s" begin="6.751289823656456s" fill="freeze" /></path><path d="M 44.0 -35.2 L 6.8 -35.2 " transform="translate(0.0 38.0)" stroke-dasharray="37.2" stroke-dashoffset="37.2"><animate attributeName="stroke-dashoffset" from="37.2" to="0" dur="1.116s" begin="6.8539428789304875s" fill="freeze" /></path><path d="M 28.9 -35.0 C 30.2 -36.9 31.4 -38.9 32.4 -41.0" transform="translate(0.0 38.0)" stroke-dasharray="6.953243598032306" stroke-dashoffset="6.953243598032306"><animate attributeName="stroke-dashoffset" from="6.953243598032306" to="0" dur="0.20859730794096917s" begin="7.969942878930487s" fill="freeze" /></path></g></svg>