<?xml version='1.0' encoding='utf-8'?>
<svg viewBox="0.0 -6.0 50.0 50.0" version="1.1" xmlns="http://www.w3.org/2000/svg"><rect x="-1000" y="-1000" width="2000" height="2000" stroke="white" fill="white" /><g style="fill:none;stroke:#000000;stroke-width:1"><path d="M 20.4 -2.0 C 27.4 -10.5 31.0 -22.6 31.1 -39.5 " transform="translate(0.0 38.0)" stroke-dasharray="39.7695090565017" stroke-dashoffset="39.7695090565017"><animate attributeName="stroke-dashoffset" from="39.7695090565017" to="0" dur="1.1930852716950509s" begin="0s; 15s; 30s; 45s" fill="freeze" id="anim0" /></path><path d="M 3.8 -3.9 C 4.9 -7.2 5.5 -11.6 5.5 -18.1 L 5.5 -22.9 " transform="translate(0.0 38.0)" stroke-dasharray="19.1601169343368" stroke-dashoffset="19.1601169343368"><animate attributeName="stroke-dashoffset" from="19.1601169343368" to="0" dur="0.5748035080301039s" begin="anim0.end" fill="freeze" id="anim1" /></path><path d="M 11.4 2.6 L 11.4 -29.4 " transform="translate(0.0 38.0)" stroke-dasharray="32.0" stroke-dashoffset="32.0"><animate attributeName="stroke-dashoffset" from="32.0" to="0" dur="0.96s" begin="anim1.end" fill="freeze" id="anim2" /></path><path d="M 17.6 -7.2 L 17.6 -22.9 " transform="translate(0.0 38.0)" stroke-dasharray="15.7" stroke-dashoffset="15.7"><animate attributeName="stroke-dashoffset" from="15.7" to="0" dur="0.471s" begin="anim2.end" fill="freeze" id="anim3" /></path><path d="M 18.6 -29.6 L 3.5 -29.6 " transform="translate(0.0 38.0)" stroke-dasharray="15.100000000000001" stroke-dashoffset="15.100000000000001"><animate attributeName="stroke-dashoffset" from="15.100000000000001" to="0" dur="0.453s" begin="anim3.end" fill="freeze" id="anim4" /></path><path d="M 25.8 2.0 C 33.3 -2.5 39.6 -11.0 41.9 -21.9 " transform="translate(0.0 38.0)" stroke-dasharray="29.626922447986477" stroke-dashoffset="29.626922447986477"><animate attributeName="stroke-dashoffset" from="29.626922447986477" to="0" dur="0.8888076734395943s" begin="anim4.end" fill="freeze" id="anim5" /></path><path d="M 17.3 -37.6 L 5.0 -37.6 " transform="translate(0.0 38.0)" stroke-dasharray="12.3" stroke-dashoffset="12.3"><animate attributeName="stroke-dashoffset" from="12.3" to="0" dur="0.369s" begin="anim5.end" fill="freeze" id="anim6" /></path><path d="M 46.0 1.1 C 38.2 -3.9 32.4 -12.2 30.4 -24.1 " transform="translate(0.0 38.0)" stroke-dasharray="30.551090112856283" stroke-dashoffset="30.551090112856283"><animate attributeName="stroke-dashoffset" from="30.551090112856283" to="0" dur="0.9165327033856885s" begin="anim6.end" fill="freeze" id="anim7" /></path><path d="M 46.2 -28.4 L 23.1 -28.4 " transform="translate(0.0 38.0)" stroke-dasharray="23.1" stroke-dashoffset="23.1"><animate attributeName="stroke-dashoffset" from="23.1" to="0" dur="0.6930000000000001s" begin="anim7.end" fill="freeze" id="anim8" /></path><path d="M 40.7 -33.8 C 39.8 -35.0 38.8 -36.0 37.8 -37.0" transform="translate(0.0 38.0)" stroke-dasharray="4.322542845582335" stroke-dashoffset="4.322542845582335"><animate attributeName="stroke-dashoffset" from="4.322542845582335" to="0" dur="0.12967628536747006s" begin="anim8.end" fill="freeze" id="anim_end" /></path></g></svg>