<?xml version='1.0' encoding='utf-8'?>
<svg viewBox="0.0 -6.0 50.0 50.0" version="1.1" xmlns="http://www.w3.org/2000/svg"><rect x="-1000" y="-1000" width="2000" height="2000" stroke="white" fill="white" /><g style="fill:none;stroke:#000000;stroke-width:1"><path d="M 28.9 -14.0 L 39.2 -14.0 C 42.4 -14.0 43.5 -15.1 43.5 -17.4 L 43.5 -24.4 C 43.5 -26.8 42.4 -27.9 39.2 -27.9 L 28.9 -27.9 C 25.8 -27.9 24.7 -26.8 24.7 -24.4 L 24.7 -17.4 C 24.7 -15.1 25.8 -14.0 28.9 -14.0 Z " transform="translate(0.0 38.0)" stroke-dasharray="59.98347310658207" stroke-dashoffset="59.98347310658207"><animate attributeName="stroke-dashoffset" from="59.98347310658207" to="0" dur="1.799504193197462s" begin="0s; anim_end.end" fill="freeze" id="anim0" /></path><path d="M 4.0 -2.5 C 5.0 -5.1 5.8 -9.0 5.9 -11.8 " transform="translate(0.0 38.0)" stroke-dasharray="9.527466546640927" stroke-dashoffset="9.527466546640927"><animate attributeName="stroke-dashoffset" from="9.527466546640927" to="0" dur="0.2858239963992278s" begin="anim0.end" fill="freeze" id="anim1" /></path><path d="M 11.2 2.6 L 11.2 -18.6 " transform="translate(0.0 38.0)" stroke-dasharray="21.200000000000003" stroke-dashoffset="21.200000000000003"><animate attributeName="stroke-dashoffset" from="21.200000000000003" to="0" dur="0.636s" begin="anim1.end" fill="freeze" id="anim2" /></path><path d="M 18.2 -6.7 C 17.8 -8.9 16.9 -11.1 16.1 -12.6 " transform="translate(0.0 38.0)" stroke-dasharray="6.285785122122782" stroke-dashoffset="6.285785122122782"><animate attributeName="stroke-dashoffset" from="6.285785122122782" to="0" dur="0.18857355366368345s" begin="anim2.end" fill="freeze" id="anim3" /></path><path d="M 3.1 -18.5 C 7.5 -18.6 12.7 -19.1 16.9 -19.8 " transform="translate(0.0 38.0)" stroke-dasharray="13.871642392256625" stroke-dashoffset="13.871642392256625"><animate attributeName="stroke-dashoffset" from="13.871642392256625" to="0" dur="0.4161492717676987s" begin="anim3.end" fill="freeze" id="anim4" /></path><path d="M 10.7 -26.2 C 8.4 -29.2 6.4 -31.5 4.8 -32.9 " transform="translate(0.0 38.0)" stroke-dasharray="8.94013076883862" stroke-dashoffset="8.94013076883862"><animate attributeName="stroke-dashoffset" from="8.94013076883862" to="0" dur="0.26820392306515856s" begin="anim4.end" fill="freeze" id="anim5" /></path><path d="M 19.1 -17.4 C 18.4 -19.4 17.1 -21.6 16.0 -23.2 " transform="translate(0.0 38.0)" stroke-dasharray="6.594044494293693" stroke-dashoffset="6.594044494293693"><animate attributeName="stroke-dashoffset" from="6.594044494293693" to="0" dur="0.19782133482881079s" begin="anim5.end" fill="freeze" id="anim6" /></path><path d="M 33.6 2.6 L 33.6 -13.2 " transform="translate(0.0 38.0)" stroke-dasharray="15.799999999999999" stroke-dashoffset="15.799999999999999"><animate attributeName="stroke-dashoffset" from="15.799999999999999" to="0" dur="0.474s" begin="anim6.end" fill="freeze" id="anim7" /></path><path d="M 7.0 -19.1 C 10.2 -23.1 13.8 -28.8 16.2 -33.3 " transform="translate(0.0 38.0)" stroke-dasharray="16.940421107161434" stroke-dashoffset="16.940421107161434"><animate attributeName="stroke-dashoffset" from="16.940421107161434" to="0" dur="0.508212633214843s" begin="anim7.end" fill="freeze" id="anim8" /></path><path d="M 46.9 -6.5 L 22.4 -6.5 " transform="translate(0.0 38.0)" stroke-dasharray="24.5" stroke-dashoffset="24.5"><animate attributeName="stroke-dashoffset" from="24.5" to="0" dur="0.735s" begin="anim8.end" fill="freeze" id="anim9" /></path><path d="M 7.6 -31.4 C 9.0 -33.9 10.5 -36.9 11.6 -39.9 " transform="translate(0.0 38.0)" stroke-dasharray="9.403741470040613" stroke-dashoffset="9.403741470040613"><animate attributeName="stroke-dashoffset" from="9.403741470040613" to="0" dur="0.2821122441012184s" begin="anim9.end" fill="freeze" id="anim10" /></path><path d="M 42.6 -21.1 L 25.1 -21.1 " transform="translate(0.0 38.0)" stroke-dasharray="17.5" stroke-dashoffset="17.5"><animate attributeName="stroke-dashoffset" from="17.5" to="0" dur="0.525s" begin="anim10.end" fill="freeze" id="anim11" /></path><path d="M 33.6 -28.1 L 33.6 -40.1 " transform="translate(0.0 38.0)" stroke-dasharray="12.0" stroke-dashoffset="12.0"><animate attributeName="stroke-dashoffset" from="12.0" to="0" dur="0.36s" begin="anim11.end" fill="freeze" id="anim12" /></path><path d="M 45.5 -35.0 L 34.9 -35.0" transform="translate(0.0 38.0)" stroke-dasharray="10.600000000000001" stroke-dashoffset="10.600000000000001"><animate attributeName="stroke-dashoffset" from="10.600000000000001" to="0" dur="0.318s" begin="anim12.end" fill="freeze" id="anim_end" /></path></g></svg>