<?xml version='1.0' encoding='utf-8'?>
<svg viewBox="0.0 -6.0 50.0 50.0" version="1.1" xmlns="http://www.w3.org/2000/svg"><rect x="-1000" y="-1000" width="2000" height="2000" stroke="white" fill="white" /><g style="fill:none;stroke:#000000;stroke-width:1"><path d="M 4.8 1.9 C 16.9 -0.6 24.0 -6.5 24.9 -19.2 " transform="translate(0.0 38.0)" stroke-dasharray="31.853924755360516" stroke-dashoffset="31.853924755360516"><animate attributeName="stroke-dashoffset" from="31.853924755360516" to="0" dur="0.9556177426608155s" begin="0s; anim_end.end" fill="freeze" id="anim0" /></path><path d="M 44.7 -12.7 L 5.5 -12.7 " transform="translate(0.0 38.0)" stroke-dasharray="39.2" stroke-dashoffset="39.2"><animate attributeName="stroke-dashoffset" from="39.2" to="0" dur="1.176s" begin="anim0.end" fill="freeze" id="anim1" /></path><path d="M 7.1 -20.1 C 13.1 -22.2 17.6 -26.5 19.4 -32.4 " transform="translate(0.0 38.0)" stroke-dasharray="18.07163055275812" stroke-dashoffset="18.07163055275812"><animate attributeName="stroke-dashoffset" from="18.07163055275812" to="0" dur="0.5421489165827436s" begin="anim1.end" fill="freeze" id="anim2" /></path><path d="M 45.0 1.2 C 36.2 -0.2 28.9 -4.7 24.9 -10.9 " transform="translate(0.0 38.0)" stroke-dasharray="24.1533344159266" stroke-dashoffset="24.1533344159266"><animate attributeName="stroke-dashoffset" from="24.1533344159266" to="0" dur="0.724600032477798s" begin="anim2.end" fill="freeze" id="anim3" /></path><path d="M 44.1 -30.3 L 44.1 -32.6 C 44.1 -34.5 43.2 -35.5 40.4 -35.5 L 9.8 -35.5 C 7.0 -35.5 6.0 -34.5 6.0 -32.6 L 6.0 -28.8 " transform="translate(0.0 38.0)" stroke-dasharray="47.640794893920486" stroke-dashoffset="47.640794893920486"><animate attributeName="stroke-dashoffset" from="47.640794893920486" to="0" dur="1.4292238468176146s" begin="anim3.end" fill="freeze" id="anim4" /></path><path d="M 41.2 -26.6 C 40.8 -23.3 39.5 -22.6 34.6 -22.6 C 30.1 -22.6 29.1 -23.1 29.1 -25.6 L 29.1 -34.5 " transform="translate(0.0 38.0)" stroke-dasharray="25.081560438412037" stroke-dashoffset="25.081560438412037"><animate attributeName="stroke-dashoffset" from="25.081560438412037" to="0" dur="0.7524468131523611s" begin="anim4.end" fill="freeze" id="anim5" /></path><path d="M 24.9 -36.0 L 24.9 -40.9" transform="translate(0.0 38.0)" stroke-dasharray="4.899999999999999" stroke-dashoffset="4.899999999999999"><animate attributeName="stroke-dashoffset" from="4.899999999999999" to="0" dur="0.14699999999999996s" begin="anim5.end" fill="freeze" id="anim_end" /></path></g></svg>