<?xml version='1.0' encoding='utf-8'?>
<svg viewBox="0.0 -6.0 50.0 50.0" version="1.1" xmlns="http://www.w3.org/2000/svg"><rect x="-1000" y="-1000" width="2000" height="2000" stroke="white" fill="white" /><g style="fill:none;stroke:#000000;stroke-width:1"><path d="M 4.8 2.1 C 16.4 -1.1 23.3 -7.2 24.8 -19.6 " transform="translate(0.0 38.0)" stroke-dasharray="31.716038823331367" stroke-dashoffset="31.716038823331367"><animate attributeName="stroke-dashoffset" from="31.716038823331367" to="0" dur="0.9514811646999409s" begin="0s" fill="freeze" /></path><path d="M 8.8 -10.1 C 10.3 -11.8 12.0 -14.4 12.8 -16.6 " transform="translate(0.0 38.0)" stroke-dasharray="7.670098536689883" stroke-dashoffset="7.670098536689883"><animate attributeName="stroke-dashoffset" from="7.670098536689883" to="0" dur="0.23010295610069648s" begin="0.9514811646999409s" fill="freeze" /></path><path d="M 45.0 1.2 C 34.8 -2.2 27.4 -8.1 24.8 -18.6 " transform="translate(0.0 38.0)" stroke-dasharray="29.665899981994" stroke-dashoffset="29.665899981994"><animate attributeName="stroke-dashoffset" from="29.665899981994" to="0" dur="0.8899769994598199s" begin="1.1815841208006375s" fill="freeze" /></path><path d="M 36.1 -11.8 C 38.0 -13.1 39.9 -14.9 41.4 -16.8 " transform="translate(0.0 38.0)" stroke-dasharray="7.312643151989498" stroke-dashoffset="7.312643151989498"><animate attributeName="stroke-dashoffset" from="7.312643151989498" to="0" dur="0.21937929455968494s" begin="2.0715611202604576s" fill="freeze" /></path><path d="M 15.0 -24.3 L 35.1 -24.3 C 38.0 -24.3 39.1 -25.1 39.1 -27.2 L 39.1 -35.7 C 39.1 -37.8 38.0 -38.8 35.1 -38.8 L 15.0 -38.8 C 12.2 -38.8 11.1 -37.8 11.1 -35.7 L 11.1 -27.2 C 11.1 -25.1 12.2 -24.3 15.0 -24.3 Z " transform="translate(0.0 38.0)" stroke-dasharray="80.14018892221804" stroke-dashoffset="80.14018892221804"><animate attributeName="stroke-dashoffset" from="80.14018892221804" to="0" dur="2.4042056676665413s" begin="2.2909404148201427s" fill="freeze" /></path><path d="M 39.2 -31.6 L 11.9 -31.6" transform="translate(0.0 38.0)" stroke-dasharray="27.300000000000004" stroke-dashoffset="27.300000000000004"><animate attributeName="stroke-dashoffset" from="27.300000000000004" to="0" dur="0.8190000000000001s" begin="4.6951460824866835s" fill="freeze" /></path></g></svg>