<?xml version='1.0' encoding='utf-8'?>
<svg viewBox="0.0 -6.0 50.0 50.0" version="1.1" xmlns="http://www.w3.org/2000/svg"><rect x="-1000" y="-1000" width="2000" height="2000" stroke="white" fill="white" /><g style="fill:none;stroke:#000000;stroke-width:1"><path d="M 4.8 -19.1 C 16.6 -21.6 29.5 -26.9 36.0 -33.4 C 37.8 -35.1 37.0 -36.6 34.5 -36.6 L 20.7 -36.6 " transform="translate(0.0 38.0)" stroke-dasharray="53.75858492103118" stroke-dashoffset="53.75858492103118"><animate attributeName="stroke-dashoffset" from="53.75858492103118" to="0" dur="1.6127575476309353s" begin="0s; 15s; 30s; 45s" fill="freeze" id="anim0" /></path><path d="M 4.8 2.1 C 16.6 -1.1 23.8 -7.3 24.8 -20.9 " transform="translate(0.0 38.0)" stroke-dasharray="33.025650390968636" stroke-dashoffset="33.025650390968636"><animate attributeName="stroke-dashoffset" from="33.025650390968636" to="0" dur="0.990769511729059s" begin="anim0.end" fill="freeze" id="anim1" /></path><path d="M 10.3 -9.2 C 11.8 -10.9 13.2 -13.1 14.0 -15.1 " transform="translate(0.0 38.0)" stroke-dasharray="6.995373360199683" stroke-dashoffset="6.995373360199683"><animate attributeName="stroke-dashoffset" from="6.995373360199683" to="0" dur="0.2098612008059905s" begin="anim1.end" fill="freeze" id="anim2" /></path><path d="M 19.5 -23.5 C 17.9 -25.4 16.6 -26.8 15.4 -27.9 " transform="translate(0.0 38.0)" stroke-dasharray="6.018211303284356" stroke-dashoffset="6.018211303284356"><animate attributeName="stroke-dashoffset" from="6.018211303284356" to="0" dur="0.18054633909853066s" begin="anim2.end" fill="freeze" id="anim3" /></path><path d="M 45.0 1.2 C 34.8 -2.4 27.4 -8.6 24.9 -19.2 " transform="translate(0.0 38.0)" stroke-dasharray="30.00608506123338" stroke-dashoffset="30.00608506123338"><animate attributeName="stroke-dashoffset" from="30.00608506123338" to="0" dur="0.9001825518370015s" begin="anim3.end" fill="freeze" id="anim4" /></path><path d="M 30.6 -9.4 C 33.8 -11.2 37.0 -13.8 39.5 -16.7 " transform="translate(0.0 38.0)" stroke-dasharray="11.56605044992218" stroke-dashoffset="11.56605044992218"><animate attributeName="stroke-dashoffset" from="11.56605044992218" to="0" dur="0.3469815134976654s" begin="anim4.end" fill="freeze" id="anim5" /></path><path d="M 7.5 -29.6 C 14.1 -32.0 21.1 -36.3 25.1 -40.5 " transform="translate(0.0 38.0)" stroke-dasharray="20.860287972834183" stroke-dashoffset="20.860287972834183"><animate attributeName="stroke-dashoffset" from="20.860287972834183" to="0" dur="0.6258086391850255s" begin="anim5.end" fill="freeze" id="anim6" /></path><path d="M 26.9 -27.4 C 25.3 -29.3 23.9 -30.7 22.8 -31.6" transform="translate(0.0 38.0)" stroke-dasharray="5.877090630357892" stroke-dashoffset="5.877090630357892"><animate attributeName="stroke-dashoffset" from="5.877090630357892" to="0" dur="0.17631271891073674s" begin="anim6.end" fill="freeze" id="anim_end" /></path></g></svg>