<?xml version='1.0' encoding='utf-8'?>
<svg viewBox="0.0 -6.0 50.0 50.0" version="1.1" xmlns="http://www.w3.org/2000/svg"><rect x="-1000" y="-1000" width="2000" height="2000" stroke="white" fill="white" /><g style="fill:none;stroke:#000000;stroke-width:1"><path d="M 18.5 2.0 C 25.6 -1.9 29.3 -9.0 29.6 -21.2 " transform="translate(0.0 38.0)" stroke-dasharray="27.057920482525212" stroke-dashoffset="27.057920482525212"><animate attributeName="stroke-dashoffset" from="27.057920482525212" to="0" dur="0.8117376144757563s" begin="0s; 15s; 30s; 45s" fill="freeze" id="anim0" /></path><path d="M 4.0 -2.5 C 5.0 -5.0 5.8 -9.0 6.0 -11.8 " transform="translate(0.0 38.0)" stroke-dasharray="9.542632907847509" stroke-dashoffset="9.542632907847509"><animate attributeName="stroke-dashoffset" from="9.542632907847509" to="0" dur="0.2862789872354252s" begin="anim0.end" fill="freeze" id="anim1" /></path><path d="M 11.3 2.6 L 11.3 -18.6 " transform="translate(0.0 38.0)" stroke-dasharray="21.200000000000003" stroke-dashoffset="21.200000000000003"><animate attributeName="stroke-dashoffset" from="21.200000000000003" to="0" dur="0.636s" begin="anim1.end" fill="freeze" id="anim2" /></path><path d="M 18.4 -6.2 C 17.9 -8.6 17.1 -11.0 16.2 -12.6 " transform="translate(0.0 38.0)" stroke-dasharray="6.791057761709344" stroke-dashoffset="6.791057761709344"><animate attributeName="stroke-dashoffset" from="6.791057761709344" to="0" dur="0.20373173285128032s" begin="anim2.end" fill="freeze" id="anim3" /></path><path d="M 3.4 -18.5 C 7.8 -18.6 13.0 -19.1 17.4 -19.8 " transform="translate(0.0 38.0)" stroke-dasharray="14.069975493313311" stroke-dashoffset="14.069975493313311"><animate attributeName="stroke-dashoffset" from="14.069975493313311" to="0" dur="0.42209926479939935s" begin="anim3.end" fill="freeze" id="anim4" /></path><path d="M 10.8 -26.2 C 8.6 -29.2 6.5 -31.5 5.1 -32.7 " transform="translate(0.0 38.0)" stroke-dasharray="8.661035134148943" stroke-dashoffset="8.661035134148943"><animate attributeName="stroke-dashoffset" from="8.661035134148943" to="0" dur="0.25983105402446827s" begin="anim4.end" fill="freeze" id="anim5" /></path><path d="M 19.2 -17.4 C 18.5 -19.4 17.1 -21.6 16.0 -23.2 " transform="translate(0.0 38.0)" stroke-dasharray="6.642286189641358" stroke-dashoffset="6.642286189641358"><animate attributeName="stroke-dashoffset" from="6.642286189641358" to="0" dur="0.19926858568924075s" begin="anim5.end" fill="freeze" id="anim6" /></path><path d="M 7.0 -19.0 C 10.2 -23.1 13.9 -28.8 16.2 -33.1 " transform="translate(0.0 38.0)" stroke-dasharray="16.85331342089623" stroke-dashoffset="16.85331342089623"><animate attributeName="stroke-dashoffset" from="16.85331342089623" to="0" dur="0.505599402626887s" begin="anim6.end" fill="freeze" id="anim7" /></path><path d="M 7.5 -31.1 C 9.2 -33.8 10.6 -36.9 11.8 -39.7 " transform="translate(0.0 38.0)" stroke-dasharray="9.625019491477246" stroke-dashoffset="9.625019491477246"><animate attributeName="stroke-dashoffset" from="9.625019491477246" to="0" dur="0.28875058474431736s" begin="anim7.end" fill="freeze" id="anim8" /></path><path d="M 46.6 -4.2 C 46.2 0.0 44.7 1.1 41.2 1.1 C 37.7 1.1 36.8 0.3 36.8 -2.1 L 36.8 -21.2 " transform="translate(0.0 38.0)" stroke-dasharray="34.19413958694412" stroke-dashoffset="34.19413958694412"><animate attributeName="stroke-dashoffset" from="34.19413958694412" to="0" dur="1.0258241876083236s" begin="anim8.end" fill="freeze" id="anim9" /></path><path d="M 46.4 -21.6 L 22.4 -21.6 " transform="translate(0.0 38.0)" stroke-dasharray="24.0" stroke-dashoffset="24.0"><animate attributeName="stroke-dashoffset" from="24.0" to="0" dur="0.72s" begin="anim9.end" fill="freeze" id="anim10" /></path><path d="M 27.1 -28.2 C 26.4 -30.8 25.2 -33.1 23.9 -35.1 " transform="translate(0.0 38.0)" stroke-dasharray="7.637511906816267" stroke-dashoffset="7.637511906816267"><animate attributeName="stroke-dashoffset" from="7.637511906816267" to="0" dur="0.229125357204488s" begin="anim10.end" fill="freeze" id="anim11" /></path><path d="M 33.4 -22.4 L 33.4 -40.0 " transform="translate(0.0 38.0)" stroke-dasharray="17.6" stroke-dashoffset="17.6"><animate attributeName="stroke-dashoffset" from="17.6" to="0" dur="0.528s" begin="anim11.end" fill="freeze" id="anim12" /></path><path d="M 39.2 -27.2 C 40.6 -29.4 42.1 -32.5 43.2 -35.6" transform="translate(0.0 38.0)" stroke-dasharray="9.321669869186458" stroke-dashoffset="9.321669869186458"><animate attributeName="stroke-dashoffset" from="9.321669869186458" to="0" dur="0.2796500960755937s" begin="anim12.end" fill="freeze" id="anim_end" /></path></g></svg>