<?xml version='1.0' encoding='utf-8'?>
<svg viewBox="0.0 -6.0 50.0 50.0" version="1.1" xmlns="http://www.w3.org/2000/svg"><rect x="-1000" y="-1000" width="2000" height="2000" stroke="white" fill="white" /><g style="fill:none;stroke:#000000;stroke-width:1"><path d="M 14.7 0.7 C 19.0 -4.3 20.9 -10.3 20.9 -22.4 L 20.9 -27.1 C 20.9 -29.3 21.9 -30.6 24.9 -30.6 L 41.2 -30.6 C 44.0 -30.6 45.0 -29.7 45.0 -27.8 L 45.0 -25.7 " transform="translate(0.0 38.0)" stroke-dasharray="59.16022049341277" stroke-dashoffset="59.16022049341277"><animate attributeName="stroke-dashoffset" from="59.16022049341277" to="0" dur="1.774806614802383s" begin="0s; 15s; 30s; 45s" fill="freeze" id="anim0" /></path><path d="M 3.5 -6.6 C 7.4 -7.6 11.9 -9.1 15.4 -10.7 " transform="translate(0.0 38.0)" stroke-dasharray="12.601445463910782" stroke-dashoffset="12.601445463910782"><animate attributeName="stroke-dashoffset" from="12.601445463910782" to="0" dur="0.37804336391732346s" begin="anim0.end" fill="freeze" id="anim1" /></path><path d="M 22.1 1.9 C 26.6 -0.5 29.4 -4.7 29.9 -10.5 " transform="translate(0.0 38.0)" stroke-dasharray="15.318948920221613" stroke-dashoffset="15.318948920221613"><animate attributeName="stroke-dashoffset" from="15.318948920221613" to="0" dur="0.4595684676066484s" begin="anim1.end" fill="freeze" id="anim2" /></path><path d="M 9.9 -8.4 L 9.9 -37.2 " transform="translate(0.0 38.0)" stroke-dasharray="28.800000000000004" stroke-dashoffset="28.800000000000004"><animate attributeName="stroke-dashoffset" from="28.800000000000004" to="0" dur="0.8640000000000001s" begin="anim2.end" fill="freeze" id="anim3" /></path><path d="M 15.2 -24.1 L 4.3 -24.1 " transform="translate(0.0 38.0)" stroke-dasharray="10.899999999999999" stroke-dashoffset="10.899999999999999"><animate attributeName="stroke-dashoffset" from="10.899999999999999" to="0" dur="0.32699999999999996s" begin="anim3.end" fill="freeze" id="anim4" /></path><path d="M 46.5 -3.7 C 46.0 0.3 44.5 1.1 41.0 1.1 C 37.6 1.1 36.9 0.6 36.9 -1.5 L 36.9 -10.8 " transform="translate(0.0 38.0)" stroke-dasharray="23.418800226255982" stroke-dashoffset="23.418800226255982"><animate attributeName="stroke-dashoffset" from="23.418800226255982" to="0" dur="0.7025640067876794s" begin="anim4.end" fill="freeze" id="anim5" /></path><path d="M 15.8 -37.3 L 3.6 -37.3 " transform="translate(0.0 38.0)" stroke-dasharray="12.200000000000001" stroke-dashoffset="12.200000000000001"><animate attributeName="stroke-dashoffset" from="12.200000000000001" to="0" dur="0.366s" begin="anim5.end" fill="freeze" id="anim6" /></path><path d="M 25.8 -21.6 L 39.1 -23.2 " transform="translate(0.0 38.0)" stroke-dasharray="13.39589489358587" stroke-dashoffset="13.39589489358587"><animate attributeName="stroke-dashoffset" from="13.39589489358587" to="0" dur="0.40187684680757607s" begin="anim6.end" fill="freeze" id="anim7" /></path><path d="M 43.9 -20.2 C 43.3 -17.0 42.0 -16.1 36.9 -16.1 C 32.4 -16.1 31.4 -16.7 31.4 -18.8 L 31.4 -26.8 " transform="translate(0.0 38.0)" stroke-dasharray="24.20465229999694" stroke-dashoffset="24.20465229999694"><animate attributeName="stroke-dashoffset" from="24.20465229999694" to="0" dur="0.7261395689999082s" begin="anim7.end" fill="freeze" id="anim8" /></path><path d="M 31.9 -30.6 L 31.9 -40.5 " transform="translate(0.0 38.0)" stroke-dasharray="9.899999999999999" stroke-dashoffset="9.899999999999999"><animate attributeName="stroke-dashoffset" from="9.899999999999999" to="0" dur="0.29699999999999993s" begin="anim8.end" fill="freeze" id="anim9" /></path><path d="M 43.5 -36.5 L 32.6 -36.5" transform="translate(0.0 38.0)" stroke-dasharray="10.899999999999999" stroke-dashoffset="10.899999999999999"><animate attributeName="stroke-dashoffset" from="10.899999999999999" to="0" dur="0.32699999999999996s" begin="anim9.end" fill="freeze" id="anim_end" /></path></g></svg>