<?xml version='1.0' encoding='utf-8'?>
<svg viewBox="0.0 -6.0 50.0 50.0" version="1.1" xmlns="http://www.w3.org/2000/svg"><rect x="-1000" y="-1000" width="2000" height="2000" stroke="white" fill="white" /><g style="fill:none;stroke:#000000;stroke-width:1"><path d="M 18.9 1.2 C 21.8 -3.5 23.2 -10.1 23.2 -20.5 L 23.2 -26.9 C 23.2 -29.4 24.4 -30.7 27.4 -30.7 L 45.5 -30.7 " transform="translate(0.0 38.0)" stroke-dasharray="53.42961888950751" stroke-dashoffset="53.42961888950751"><animate attributeName="stroke-dashoffset" from="53.42961888950751" to="0" dur="1.6028885666852253s" begin="0s; anim_end.end" fill="freeze" id="anim0" /></path><path d="M 14.5 -15.6 L 6.0 -15.6 " transform="translate(0.0 38.0)" stroke-dasharray="8.5" stroke-dashoffset="8.5"><animate attributeName="stroke-dashoffset" from="8.5" to="0" dur="0.255s" begin="anim0.end" fill="freeze" id="anim1" /></path><path d="M 9.8 1.1 C 10.6 1.2 11.2 1.4 12.0 1.4 C 13.8 1.4 14.8 0.5 14.8 -1.8 L 14.8 -35.5 C 14.8 -37.9 14.1 -38.7 11.8 -38.7 L 9.5 -38.7 C 7.2 -38.7 6.5 -37.9 6.5 -35.5 L 6.5 -23.4 C 6.5 -10.6 5.5 -3.9 3.5 1.0 " transform="translate(0.0 38.0)" stroke-dasharray="90.29070176829384" stroke-dashoffset="90.29070176829384"><animate attributeName="stroke-dashoffset" from="90.29070176829384" to="0" dur="2.7087210530488153s" begin="anim1.end" fill="freeze" id="anim2" /></path><path d="M 31.6 2.0 L 40.4 2.0 C 42.5 2.0 43.2 1.4 43.2 0.0 L 43.2 -1.5 C 43.2 -2.9 42.5 -3.5 40.4 -3.5 L 31.6 -3.5 C 29.4 -3.5 28.6 -2.9 28.6 -1.5 L 28.6 0.0 C 28.6 1.4 29.4 2.0 31.6 2.0 Z " transform="translate(0.0 38.0)" stroke-dasharray="36.863980834268034" stroke-dashoffset="36.863980834268034"><animate attributeName="stroke-dashoffset" from="36.863980834268034" to="0" dur="1.105919425028041s" begin="anim2.end" fill="freeze" id="anim3" /></path><path d="M 14.5 -27.2 L 6.2 -27.2 " transform="translate(0.0 38.0)" stroke-dasharray="8.3" stroke-dashoffset="8.3"><animate attributeName="stroke-dashoffset" from="8.3" to="0" dur="0.249s" begin="anim3.end" fill="freeze" id="anim4" /></path><path d="M 42.6 -8.0 L 29.1 -8.0 " transform="translate(0.0 38.0)" stroke-dasharray="13.5" stroke-dashoffset="13.5"><animate attributeName="stroke-dashoffset" from="13.5" to="0" dur="0.40499999999999997s" begin="anim4.end" fill="freeze" id="anim5" /></path><path d="M 42.6 -12.3 L 29.1 -12.3 " transform="translate(0.0 38.0)" stroke-dasharray="13.5" stroke-dashoffset="13.5"><animate attributeName="stroke-dashoffset" from="13.5" to="0" dur="0.40499999999999997s" begin="anim5.end" fill="freeze" id="anim6" /></path><path d="M 46.4 -16.8 L 24.1 -16.8 " transform="translate(0.0 38.0)" stroke-dasharray="22.299999999999997" stroke-dashoffset="22.299999999999997"><animate attributeName="stroke-dashoffset" from="22.299999999999997" to="0" dur="0.6689999999999999s" begin="anim6.end" fill="freeze" id="anim7" /></path><path d="M 27.6 -24.1 C 30.6 -25.3 32.5 -27.4 32.9 -30.4 " transform="translate(0.0 38.0)" stroke-dasharray="8.667957276393222" stroke-dashoffset="8.667957276393222"><animate attributeName="stroke-dashoffset" from="8.667957276393222" to="0" dur="0.26003871829179664s" begin="anim7.end" fill="freeze" id="anim8" /></path><path d="M 41.8 -21.2 L 30.2 -21.2 " transform="translate(0.0 38.0)" stroke-dasharray="11.599999999999998" stroke-dashoffset="11.599999999999998"><animate attributeName="stroke-dashoffset" from="11.599999999999998" to="0" dur="0.3479999999999999s" begin="anim8.end" fill="freeze" id="anim9" /></path><path d="M 19.4 -28.9 C 22.9 -31.9 26.0 -36.1 28.0 -40.2 " transform="translate(0.0 38.0)" stroke-dasharray="14.293159994109812" stroke-dashoffset="14.293159994109812"><animate attributeName="stroke-dashoffset" from="14.293159994109812" to="0" dur="0.4287947998232944s" begin="anim9.end" fill="freeze" id="anim10" /></path><path d="M 33.5 -30.8 C 34.3 -31.7 35.0 -32.5 35.6 -33.5 C 36.7 -35.2 36.1 -36.5 33.8 -36.5 L 25.6 -36.5 " transform="translate(0.0 38.0)" stroke-dasharray="16.35253837635626" stroke-dashoffset="16.35253837635626"><animate attributeName="stroke-dashoffset" from="16.35253837635626" to="0" dur="0.4905761512906878s" begin="anim10.end" fill="freeze" id="anim11" /></path><path d="M 45.7 -27.6 C 45.5 -25.8 44.4 -25.2 41.6 -25.2 C 39.1 -25.2 38.5 -25.6 38.5 -27.1 L 38.5 -30.1" transform="translate(0.0 38.0)" stroke-dasharray="12.61287285298176" stroke-dashoffset="12.61287285298176"><animate attributeName="stroke-dashoffset" from="12.61287285298176" to="0" dur="0.37838618558945275s" begin="anim11.end" fill="freeze" id="anim_end" /></path></g></svg>