<?xml version='1.0' encoding='utf-8'?>
<svg viewBox="0.0 -6.0 50.0 50.0" version="1.1" xmlns="http://www.w3.org/2000/svg"><rect x="-1000" y="-1000" width="2000" height="2000" stroke="white" fill="white" /><g style="fill:none;stroke:#000000;stroke-width:1"><path d="M 39.9 1.4 C 40.6 1.5 41.5 1.6 42.1 1.6 C 44.0 1.6 45.0 0.7 45.0 -1.6 L 45.0 -35.2 C 45.0 -37.6 44.2 -38.5 42.0 -38.5 L 39.2 -38.5 C 37.2 -38.5 36.4 -37.6 36.4 -35.2 L 36.4 -22.5 C 36.4 -9.7 34.6 -3.2 30.8 2.0 " transform="translate(0.0 38.0)" stroke-dasharray="92.11813729315405" stroke-dashoffset="92.11813729315405"><animate attributeName="stroke-dashoffset" from="92.11813729315405" to="0" dur="2.7635441187946213s" begin="0s" fill="freeze" /></path><path d="M 3.1 -1.0 C 7.2 -1.9 12.2 -3.3 16.8 -5.0 " transform="translate(0.0 38.0)" stroke-dasharray="14.2825748242187" stroke-dashoffset="14.2825748242187"><animate attributeName="stroke-dashoffset" from="14.2825748242187" to="0" dur="0.428477244726561s" begin="2.7635441187946213s" fill="freeze" /></path><path d="M 18.1 -2.2 C 17.3 -4.7 16.0 -7.5 15.1 -9.1 " transform="translate(0.0 38.0)" stroke-dasharray="7.534682686932549" stroke-dashoffset="7.534682686932549"><animate attributeName="stroke-dashoffset" from="7.534682686932549" to="0" dur="0.22604048060797646s" begin="3.1920213635211825s" fill="freeze" /></path><path d="M 10.2 -3.1 L 10.2 -40.1 " transform="translate(0.0 38.0)" stroke-dasharray="37.0" stroke-dashoffset="37.0"><animate attributeName="stroke-dashoffset" from="37.0" to="0" dur="1.1099999999999999s" begin="3.418061844129159s" fill="freeze" /></path><path d="M 15.9 -18.8 L 15.9 -27.9 C 15.9 -30.1 15.1 -31.0 13.0 -31.0 L 7.4 -31.0 C 5.2 -31.0 4.5 -30.1 4.5 -27.9 L 4.5 -18.8 C 4.5 -16.6 5.2 -15.8 7.4 -15.8 L 13.0 -15.8 C 15.1 -15.8 15.9 -16.6 15.9 -18.8 Z " transform="translate(0.0 38.0)" stroke-dasharray="49.096612712742555" stroke-dashoffset="49.096612712742555"><animate attributeName="stroke-dashoffset" from="49.096612712742555" to="0" dur="1.4728983813822767s" begin="4.528061844129159s" fill="freeze" /></path><path d="M 23.9 -5.2 L 27.2 -5.2 C 28.9 -5.2 29.9 -6.0 29.9 -7.8 L 29.9 -17.0 C 29.9 -18.8 29.2 -19.6 27.3 -19.6 L 23.8 -19.6 C 21.9 -19.6 21.2 -18.8 21.2 -17.0 L 21.2 -7.8 C 21.2 -6.0 22.1 -5.2 23.9 -5.2 Z " transform="translate(0.0 38.0)" stroke-dasharray="42.36795061543847" stroke-dashoffset="42.36795061543847"><animate attributeName="stroke-dashoffset" from="42.36795061543847" to="0" dur="1.2710385184631539s" begin="6.000960225511435s" fill="freeze" /></path><path d="M 44.6 -15.3 L 36.0 -15.3 " transform="translate(0.0 38.0)" stroke-dasharray="8.600000000000001" stroke-dashoffset="8.600000000000001"><animate attributeName="stroke-dashoffset" from="8.600000000000001" to="0" dur="0.258s" begin="7.2719987439745895s" fill="freeze" /></path><path d="M 31.7 -30.4 L 19.6 -30.4 " transform="translate(0.0 38.0)" stroke-dasharray="12.099999999999998" stroke-dashoffset="12.099999999999998"><animate attributeName="stroke-dashoffset" from="12.099999999999998" to="0" dur="0.36299999999999993s" begin="7.5299987439745895s" fill="freeze" /></path><path d="M 25.6 -19.3 L 25.6 -40.1 " transform="translate(0.0 38.0)" stroke-dasharray="20.8" stroke-dashoffset="20.8"><animate attributeName="stroke-dashoffset" from="20.8" to="0" dur="0.624s" begin="7.892998743974589s" fill="freeze" /></path><path d="M 44.9 -27.0 L 36.1 -27.0" transform="translate(0.0 38.0)" stroke-dasharray="8.799999999999997" stroke-dashoffset="8.799999999999997"><animate attributeName="stroke-dashoffset" from="8.799999999999997" to="0" dur="0.2639999999999999s" begin="8.51699874397459s" fill="freeze" /></path></g></svg>