<?xml version='1.0' encoding='utf-8'?>
<svg viewBox="0.0 -6.0 50.0 50.0" version="1.1" xmlns="http://www.w3.org/2000/svg"><rect x="-1000" y="-1000" width="2000" height="2000" stroke="white" fill="white" /><g style="fill:none;stroke:#000000;stroke-width:1"><path d="M 26.9 -16.5 L 40.0 -16.5 C 43.2 -16.5 44.0 -17.6 44.0 -20.1 L 44.0 -31.9 C 44.0 -34.4 43.2 -35.4 40.0 -35.4 L 26.9 -35.4 C 23.7 -35.4 22.8 -34.4 22.8 -31.9 L 22.8 -20.1 C 22.8 -17.6 23.6 -16.5 26.9 -16.5 Z " transform="translate(0.0 38.0)" stroke-dasharray="75.12720605755473" stroke-dashoffset="75.12720605755473"><animate attributeName="stroke-dashoffset" from="75.12720605755473" to="0" dur="2.2538161817266418s" begin="0s" fill="freeze" /></path><path d="M 2.9 -7.2 C 6.8 -7.8 11.1 -8.9 15.1 -10.2 " transform="translate(0.0 38.0)" stroke-dasharray="12.57648386427512" stroke-dashoffset="12.57648386427512"><animate attributeName="stroke-dashoffset" from="12.57648386427512" to="0" dur="0.3772945159282536s" begin="2.2538161817266418s" fill="freeze" /></path><path d="M 20.6 -1.4 C 21.8 -3.3 22.6 -5.2 23.2 -7.6 " transform="translate(0.0 38.0)" stroke-dasharray="6.75362965833007" stroke-dashoffset="6.75362965833007"><animate attributeName="stroke-dashoffset" from="6.75362965833007" to="0" dur="0.20260888974990207s" begin="2.6311106976548952s" fill="freeze" /></path><path d="M 6.8 -8.4 L 6.8 -37.5 " transform="translate(0.0 38.0)" stroke-dasharray="29.1" stroke-dashoffset="29.1"><animate attributeName="stroke-dashoffset" from="29.1" to="0" dur="0.873s" begin="2.833719587404797s" fill="freeze" /></path><path d="M 15.4 -19.1 L 7.1 -19.1 " transform="translate(0.0 38.0)" stroke-dasharray="8.3" stroke-dashoffset="8.3"><animate attributeName="stroke-dashoffset" from="8.3" to="0" dur="0.249s" begin="3.7067195874047973s" fill="freeze" /></path><path d="M 15.5 2.5 L 15.5 -37.2 " transform="translate(0.0 38.0)" stroke-dasharray="39.7" stroke-dashoffset="39.7"><animate attributeName="stroke-dashoffset" from="39.7" to="0" dur="1.191s" begin="3.9557195874047975s" fill="freeze" /></path><path d="M 40.5 -2.8 C 40.0 0.8 38.6 1.8 33.9 1.8 C 29.6 1.8 28.3 1.1 28.3 -1.3 L 28.3 -9.6 " transform="translate(0.0 38.0)" stroke-dasharray="24.87763336046178" stroke-dashoffset="24.87763336046178"><animate attributeName="stroke-dashoffset" from="24.87763336046178" to="0" dur="0.7463290008138533s" begin="5.146719587404798s" fill="freeze" /></path><path d="M 15.4 -28.4 L 7.1 -28.4 " transform="translate(0.0 38.0)" stroke-dasharray="8.3" stroke-dashoffset="8.3"><animate attributeName="stroke-dashoffset" from="8.3" to="0" dur="0.249s" begin="5.893048588218651s" fill="freeze" /></path><path d="M 36.2 -9.1 C 35.3 -10.2 34.1 -11.4 33.0 -12.4 " transform="translate(0.0 38.0)" stroke-dasharray="4.600569752716585" stroke-dashoffset="4.600569752716585"><animate attributeName="stroke-dashoffset" from="4.600569752716585" to="0" dur="0.13801709258149755s" begin="6.142048588218651s" fill="freeze" /></path><path d="M 19.6 -37.6 L 3.2 -37.6 " transform="translate(0.0 38.0)" stroke-dasharray="16.400000000000002" stroke-dashoffset="16.400000000000002"><animate attributeName="stroke-dashoffset" from="16.400000000000002" to="0" dur="0.49200000000000005s" begin="6.280065680800148s" fill="freeze" /></path><path d="M 46.8 -3.5 C 45.9 -5.2 44.4 -7.3 43.1 -8.8 " transform="translate(0.0 38.0)" stroke-dasharray="6.475607974038458" stroke-dashoffset="6.475607974038458"><animate attributeName="stroke-dashoffset" from="6.475607974038458" to="0" dur="0.19426823922115374s" begin="6.772065680800148s" fill="freeze" /></path><path d="M 38.4 -21.3 C 35.1 -24.0 30.7 -26.9 27.1 -28.8 " transform="translate(0.0 38.0)" stroke-dasharray="13.58226248397328" stroke-dashoffset="13.58226248397328"><animate attributeName="stroke-dashoffset" from="13.58226248397328" to="0" dur="0.40746787451919836s" begin="6.966333920021302s" fill="freeze" /></path><path d="M 30.1 -19.5 C 33.2 -21.4 36.1 -24.4 37.9 -27.7 C 38.2 -28.4 38.3 -29.0 38.0 -29.4 C 37.8 -29.9 37.1 -30.1 36.1 -30.1 L 32.4 -30.1 " transform="translate(0.0 38.0)" stroke-dasharray="19.056834443241456" stroke-dashoffset="19.056834443241456"><animate attributeName="stroke-dashoffset" from="19.056834443241456" to="0" dur="0.5717050332972436s" begin="7.3738017945405s" fill="freeze" /></path><path d="M 27.9 -24.9 C 30.1 -27.1 32.1 -30.2 33.2 -32.5 " transform="translate(0.0 38.0)" stroke-dasharray="9.304410915839217" stroke-dashoffset="9.304410915839217"><animate attributeName="stroke-dashoffset" from="9.304410915839217" to="0" dur="0.27913232747517647s" begin="7.945506827837744s" fill="freeze" /></path><path d="M 31.1 -35.5 C 31.9 -36.6 32.6 -38.2 33.2 -40.0" transform="translate(0.0 38.0)" stroke-dasharray="4.983810153149255" stroke-dashoffset="4.983810153149255"><animate attributeName="stroke-dashoffset" from="4.983810153149255" to="0" dur="0.14951430459447765s" begin="8.224639155312921s" fill="freeze" /></path></g></svg>