<?xml version='1.0' encoding='utf-8'?>
<svg viewBox="0.0 -6.0 50.0 50.0" version="1.1" xmlns="http://www.w3.org/2000/svg"><rect x="-1000" y="-1000" width="2000" height="2000" stroke="white" fill="white" /><g style="fill:none;stroke:#000000;stroke-width:1"><path d="M 17.4 -15.8 C 18.1 -15.7 18.6 -15.7 19.2 -15.7 C 21.4 -15.7 22.4 -16.4 22.4 -18.6 L 22.4 -30.2 C 22.4 -31.9 21.6 -32.8 19.6 -32.8 L 10.4 -32.8 C 8.4 -32.8 7.7 -31.9 7.7 -30.2 L 7.7 -27.9 C 7.7 -21.9 6.9 -18.1 4.7 -14.3 " transform="translate(0.0 38.0)" stroke-dasharray="52.79895310078325" stroke-dashoffset="52.79895310078325"><animate attributeName="stroke-dashoffset" from="52.79895310078325" to="0" dur="1.5839685930234975s" begin="0s" fill="freeze" /></path><path d="M 5.3 2.0 C 15.2 1.9 29.6 1.1 39.7 -0.2 " transform="translate(0.0 38.0)" stroke-dasharray="34.4864881443753" stroke-dashoffset="34.4864881443753"><animate attributeName="stroke-dashoffset" from="34.4864881443753" to="0" dur="1.034594644331259s" begin="1.5839685930234975s" fill="freeze" /></path><path d="M 24.9 1.4 L 24.9 -14.1 " transform="translate(0.0 38.0)" stroke-dasharray="15.5" stroke-dashoffset="15.5"><animate attributeName="stroke-dashoffset" from="15.5" to="0" dur="0.46499999999999997s" begin="2.6185632373547563s" fill="freeze" /></path><path d="M 14.0 -4.8 L 36.4 -4.8 C 38.8 -4.8 39.5 -5.6 39.5 -7.2 L 39.5 -8.7 C 39.5 -10.2 38.8 -10.9 36.4 -10.9 L 14.0 -10.9 C 11.6 -10.9 10.9 -10.2 10.9 -8.7 L 10.9 -7.2 C 10.9 -5.6 11.6 -4.8 14.0 -4.8 Z " transform="translate(0.0 38.0)" stroke-dasharray="65.71064361883028" stroke-dashoffset="65.71064361883028"><animate attributeName="stroke-dashoffset" from="65.71064361883028" to="0" dur="1.9713193085649081s" begin="3.083563237354756s" fill="freeze" /></path><path d="M 22.4 -22.1 L 7.8 -22.1 " transform="translate(0.0 38.0)" stroke-dasharray="14.599999999999998" stroke-dashoffset="14.599999999999998"><animate attributeName="stroke-dashoffset" from="14.599999999999998" to="0" dur="0.43799999999999994s" begin="5.054882545919664s" fill="freeze" /></path><path d="M 43.2 2.4 C 41.0 0.2 38.6 -1.6 36.4 -2.9 " transform="translate(0.0 38.0)" stroke-dasharray="8.643616068386912" stroke-dashoffset="8.643616068386912"><animate attributeName="stroke-dashoffset" from="8.643616068386912" to="0" dur="0.25930848205160734s" begin="5.492882545919664s" fill="freeze" /></path><path d="M 14.9 -21.9 L 14.9 -32.5 " transform="translate(0.0 38.0)" stroke-dasharray="10.600000000000001" stroke-dashoffset="10.600000000000001"><animate attributeName="stroke-dashoffset" from="10.600000000000001" to="0" dur="0.318s" begin="5.752191027971271s" fill="freeze" /></path><path d="M 22.4 -27.4 L 7.8 -27.4 " transform="translate(0.0 38.0)" stroke-dasharray="14.599999999999998" stroke-dashoffset="14.599999999999998"><animate attributeName="stroke-dashoffset" from="14.599999999999998" to="0" dur="0.43799999999999994s" begin="6.070191027971271s" fill="freeze" /></path><path d="M 4.3 -33.3 C 6.5 -35.3 8.7 -37.9 10.3 -40.6 " transform="translate(0.0 38.0)" stroke-dasharray="9.482530336278373" stroke-dashoffset="9.482530336278373"><animate attributeName="stroke-dashoffset" from="9.482530336278373" to="0" dur="0.28447591008835116s" begin="6.508191027971271s" fill="freeze" /></path><path d="M 14.6 -32.7 C 15.3 -33.6 15.9 -34.5 16.3 -35.4 C 17.1 -37.0 16.2 -37.9 14.2 -37.9 L 8.2 -37.9 " transform="translate(0.0 38.0)" stroke-dasharray="13.428579414611745" stroke-dashoffset="13.428579414611745"><animate attributeName="stroke-dashoffset" from="13.428579414611745" to="0" dur="0.40285738243835234s" begin="6.792666938059622s" fill="freeze" /></path><path d="M 28.3 -23.9 C 29.6 -25.4 30.4 -26.7 31.3 -28.8 " transform="translate(0.0 38.0)" stroke-dasharray="5.772312827258232" stroke-dashoffset="5.772312827258232"><animate attributeName="stroke-dashoffset" from="5.772312827258232" to="0" dur="0.17316938481774696s" begin="7.195524320497974s" fill="freeze" /></path><path d="M 46.4 -20.3 L 27.2 -20.3 " transform="translate(0.0 38.0)" stroke-dasharray="19.2" stroke-dashoffset="19.2"><animate attributeName="stroke-dashoffset" from="19.2" to="0" dur="0.576s" begin="7.368693705315721s" fill="freeze" /></path><path d="M 37.0 -15.0 L 37.0 -29.2 " transform="translate(0.0 38.0)" stroke-dasharray="14.2" stroke-dashoffset="14.2"><animate attributeName="stroke-dashoffset" from="14.2" to="0" dur="0.426s" begin="7.9446937053157205s" fill="freeze" /></path><path d="M 27.2 -30.7 C 30.8 -32.5 32.9 -34.9 33.7 -38.6 " transform="translate(0.0 38.0)" stroke-dasharray="10.628731777193329" stroke-dashoffset="10.628731777193329"><animate attributeName="stroke-dashoffset" from="10.628731777193329" to="0" dur="0.31886195331579986s" begin="8.37069370531572s" fill="freeze" /></path><path d="M 44.8 -26.0 L 30.5 -26.0 " transform="translate(0.0 38.0)" stroke-dasharray="14.299999999999997" stroke-dashoffset="14.299999999999997"><animate attributeName="stroke-dashoffset" from="14.299999999999997" to="0" dur="0.4289999999999999s" begin="8.68955565863152s" fill="freeze" /></path><path d="M 38.0 -32.7 C 38.7 -32.5 39.5 -32.5 40.2 -32.5 C 42.1 -32.5 42.9 -33.1 43.4 -34.2 C 43.6 -35.0 43.8 -35.8 43.9 -36.5 C 44.0 -38.1 43.1 -38.8 41.1 -38.8 L 27.9 -38.8" transform="translate(0.0 38.0)" stroke-dasharray="25.880983656974596" stroke-dashoffset="25.880983656974596"><animate attributeName="stroke-dashoffset" from="25.880983656974596" to="0" dur="0.7764295097092379s" begin="9.11855565863152s" fill="freeze" /></path></g></svg>