<?xml version='1.0' encoding='utf-8'?>
<svg viewBox="0.0 -6.0 50.0 50.0" version="1.1" xmlns="http://www.w3.org/2000/svg"><rect x="-1000" y="-1000" width="2000" height="2000" stroke="white" fill="white" /><g style="fill:none;stroke:#000000;stroke-width:1"><path d="M 47.3 -4.8 C 46.6 -0.1 45.2 1.2 43.5 1.2 C 41.2 1.2 37.5 -2.2 34.6 -11.4 C 32.5 -18.1 31.6 -27.4 31.6 -40.4 " transform="translate(0.0 38.0)" stroke-dasharray="53.12210224035759" stroke-dashoffset="53.12210224035759"><animate attributeName="stroke-dashoffset" from="53.12210224035759" to="0" dur="1.5936630672107277s" begin="0s; 15s; 30s; 45s" fill="freeze" id="anim0" /></path><path d="M 3.2 -0.5 C 8.4 -1.4 15.3 -3.2 19.2 -4.8 " transform="translate(0.0 38.0)" stroke-dasharray="16.59280534097876" stroke-dashoffset="16.59280534097876"><animate attributeName="stroke-dashoffset" from="16.59280534097876" to="0" dur="0.4977841602293628s" begin="anim0.end" fill="freeze" id="anim1" /></path><path d="M 6.1 -0.8 L 6.1 -18.9 " transform="translate(0.0 38.0)" stroke-dasharray="18.099999999999998" stroke-dashoffset="18.099999999999998"><animate attributeName="stroke-dashoffset" from="18.099999999999998" to="0" dur="0.5429999999999999s" begin="anim1.end" fill="freeze" id="anim2" /></path><path d="M 12.2 -2.6 L 12.2 -26.0 " transform="translate(0.0 38.0)" stroke-dasharray="23.4" stroke-dashoffset="23.4"><animate attributeName="stroke-dashoffset" from="23.4" to="0" dur="0.702s" begin="anim2.end" fill="freeze" id="anim3" /></path><path d="M 18.6 -16.8 L 12.5 -16.8 " transform="translate(0.0 38.0)" stroke-dasharray="6.100000000000001" stroke-dashoffset="6.100000000000001"><animate attributeName="stroke-dashoffset" from="6.100000000000001" to="0" dur="0.18300000000000002s" begin="anim3.end" fill="freeze" id="anim4" /></path><path d="M 20.2 2.2 C 28.6 -0.4 37.1 -5.8 42.3 -12.8 " transform="translate(0.0 38.0)" stroke-dasharray="27.13095257618246" stroke-dashoffset="27.13095257618246"><animate attributeName="stroke-dashoffset" from="27.13095257618246" to="0" dur="0.8139285772854737s" begin="anim4.end" fill="freeze" id="anim5" /></path><path d="M 14.3 -38.2 L 9.4 -38.2 C 6.8 -38.2 5.9 -37.3 5.9 -34.9 L 5.9 -30.0 C 5.9 -27.6 6.8 -26.6 9.4 -26.6 L 14.3 -26.6 C 16.9 -26.6 17.9 -27.6 17.9 -30.0 L 17.9 -34.9 C 17.9 -37.3 16.9 -38.2 14.3 -38.2 Z " transform="translate(0.0 38.0)" stroke-dasharray="42.39457773181868" stroke-dashoffset="42.39457773181868"><animate attributeName="stroke-dashoffset" from="42.39457773181868" to="0" dur="1.2718373319545604s" begin="anim5.end" fill="freeze" id="anim6" /></path><path d="M 23.4 -16.2 L 46.5 -18.3 " transform="translate(0.0 38.0)" stroke-dasharray="23.195258136093248" stroke-dashoffset="23.195258136093248"><animate attributeName="stroke-dashoffset" from="23.195258136093248" to="0" dur="0.6958577440827974s" begin="anim6.end" fill="freeze" id="anim7" /></path><path d="M 25.2 -24.1 L 43.6 -25.8 " transform="translate(0.0 38.0)" stroke-dasharray="18.478365728602736" stroke-dashoffset="18.478365728602736"><animate attributeName="stroke-dashoffset" from="18.478365728602736" to="0" dur="0.554350971858082s" begin="anim7.end" fill="freeze" id="anim8" /></path><path d="M 23.6 -31.4 L 45.5 -33.2 " transform="translate(0.0 38.0)" stroke-dasharray="21.973848092675983" stroke-dashoffset="21.973848092675983"><animate attributeName="stroke-dashoffset" from="21.973848092675983" to="0" dur="0.6592154427802794s" begin="anim8.end" fill="freeze" id="anim9" /></path><path d="M 40.7 -37.6 C 39.8 -38.5 38.1 -39.5 37.2 -40.0" transform="translate(0.0 38.0)" stroke-dasharray="4.255051422943954" stroke-dashoffset="4.255051422943954"><animate attributeName="stroke-dashoffset" from="4.255051422943954" to="0" dur="0.12765154268831863s" begin="anim9.end" fill="freeze" id="anim_end" /></path></g></svg>