<?xml version='1.0' encoding='utf-8'?>
<svg viewBox="0.0 -6.0 50.0 50.0" version="1.1" xmlns="http://www.w3.org/2000/svg"><rect x="-1000" y="-1000" width="2000" height="2000" stroke="white" fill="white" /><g style="fill:none;stroke:#000000;stroke-width:1"><path d="M 12.8 1.2 L 37.4 1.2 C 40.7 1.2 42.0 0.0 42.0 -2.7 L 42.0 -23.9 C 42.0 -26.6 40.7 -27.8 37.3 -27.8 L 12.8 -27.8 C 9.3 -27.8 8.1 -26.6 8.1 -23.9 L 8.1 -2.7 C 8.1 0.0 9.3 1.2 12.8 1.2 Z " transform="translate(0.0 38.0)" stroke-dasharray="119.76347701881872" stroke-dashoffset="119.76347701881872"><animate attributeName="stroke-dashoffset" from="119.76347701881872" to="0" dur="3.5929043105645615s" begin="0s; 15s; 30s; 45s" fill="freeze" id="anim0" /></path><path d="M 13.3 -5.5 C 16.7 -7.3 20.9 -10.7 23.7 -14.0 " transform="translate(0.0 38.0)" stroke-dasharray="13.500716399052003" stroke-dashoffset="13.500716399052003"><animate attributeName="stroke-dashoffset" from="13.500716399052003" to="0" dur="0.40502149197156007s" begin="anim0.end" fill="freeze" id="anim1" /></path><path d="M 24.9 -3.1 L 24.9 -21.5 " transform="translate(0.0 38.0)" stroke-dasharray="18.4" stroke-dashoffset="18.4"><animate attributeName="stroke-dashoffset" from="18.4" to="0" dur="0.5519999999999999s" begin="anim1.end" fill="freeze" id="anim2" /></path><path d="M 34.3 -6.3 C 31.6 -8.3 28.5 -10.0 25.3 -11.2 " transform="translate(0.0 38.0)" stroke-dasharray="10.280027919414742" stroke-dashoffset="10.280027919414742"><animate attributeName="stroke-dashoffset" from="10.280027919414742" to="0" dur="0.30840083758244224s" begin="anim2.end" fill="freeze" id="anim3" /></path><path d="M 36.2 -15.2 L 13.6 -15.2 " transform="translate(0.0 38.0)" stroke-dasharray="22.6" stroke-dashoffset="22.6"><animate attributeName="stroke-dashoffset" from="22.6" to="0" dur="0.678s" begin="anim3.end" fill="freeze" id="anim4" /></path><path d="M 16.6 -21.2 C 21.6 -21.6 27.4 -22.2 32.4 -23.3 " transform="translate(0.0 38.0)" stroke-dasharray="15.95088443564318" stroke-dashoffset="15.95088443564318"><animate attributeName="stroke-dashoffset" from="15.95088443564318" to="0" dur="0.4785265330692954s" begin="anim4.end" fill="freeze" id="anim5" /></path><path d="M 17.8 -31.8 L 17.8 -40.4 " transform="translate(0.0 38.0)" stroke-dasharray="8.599999999999998" stroke-dashoffset="8.599999999999998"><animate attributeName="stroke-dashoffset" from="8.599999999999998" to="0" dur="0.25799999999999995s" begin="anim5.end" fill="freeze" id="anim6" /></path><path d="M 45.9 -35.9 L 4.1 -35.9 " transform="translate(0.0 38.0)" stroke-dasharray="41.8" stroke-dashoffset="41.8"><animate attributeName="stroke-dashoffset" from="41.8" to="0" dur="1.2539999999999998s" begin="anim6.end" fill="freeze" id="anim7" /></path><path d="M 31.8 -31.9 L 31.8 -40.4" transform="translate(0.0 38.0)" stroke-dasharray="8.5" stroke-dashoffset="8.5"><animate attributeName="stroke-dashoffset" from="8.5" to="0" dur="0.255s" begin="anim7.end" fill="freeze" id="anim_end" /></path></g></svg>