<?xml version='1.0' encoding='utf-8'?>
<svg viewBox="0.0 -6.0 50.0 50.0" version="1.1" xmlns="http://www.w3.org/2000/svg"><rect x="-1000" y="-1000" width="2000" height="2000" stroke="white" fill="white" /><g style="fill:none;stroke:#000000;stroke-width:1"><path d="M 46.4 1.2 L 27.4 1.2 C 24.4 1.2 23.2 0.1 23.2 -2.5 L 23.2 -34.2 C 23.2 -36.8 24.4 -37.9 27.4 -37.9 L 45.3 -37.9 " transform="translate(0.0 38.0)" stroke-dasharray="81.59337509371376" stroke-dashoffset="81.59337509371376"><animate attributeName="stroke-dashoffset" from="81.59337509371376" to="0" dur="2.447801252811413s" begin="0s; anim_end.end" fill="freeze" id="anim0" /></path><path d="M 3.4 -1.6 C 9.0 -5.3 15.8 -12.7 19.4 -19.4 " transform="translate(0.0 38.0)" stroke-dasharray="24.134799338118054" stroke-dashoffset="24.134799338118054"><animate attributeName="stroke-dashoffset" from="24.134799338118054" to="0" dur="0.7240439801435415s" begin="anim0.end" fill="freeze" id="anim1" /></path><path d="M 3.6 -12.5 C 7.5 -13.2 11.7 -14.4 15.7 -15.9 " transform="translate(0.0 38.0)" stroke-dasharray="12.585244449098727" stroke-dashoffset="12.585244449098727"><animate attributeName="stroke-dashoffset" from="12.585244449098727" to="0" dur="0.37755733347296183s" begin="anim1.end" fill="freeze" id="anim2" /></path><path d="M 11.0 1.8 C 11.6 1.9 12.2 1.9 12.9 1.9 C 14.9 1.9 16.0 1.2 16.0 -0.9 L 16.0 -32.2 C 16.0 -34.2 15.1 -35.0 13.2 -35.0 L 9.2 -35.0 C 7.3 -35.0 6.5 -34.2 6.5 -32.2 L 6.5 -12.6 " transform="translate(0.0 38.0)" stroke-dasharray="70.74739901448866" stroke-dashoffset="70.74739901448866"><animate attributeName="stroke-dashoffset" from="70.74739901448866" to="0" dur="2.12242197043466s" begin="anim2.end" fill="freeze" id="anim3" /></path><path d="M 15.4 -21.7 L 6.5 -21.7 " transform="translate(0.0 38.0)" stroke-dasharray="8.9" stroke-dashoffset="8.9"><animate attributeName="stroke-dashoffset" from="8.9" to="0" dur="0.267s" begin="anim3.end" fill="freeze" id="anim4" /></path><path d="M 15.4 -28.2 L 6.5 -28.2 " transform="translate(0.0 38.0)" stroke-dasharray="8.9" stroke-dashoffset="8.9"><animate attributeName="stroke-dashoffset" from="8.9" to="0" dur="0.267s" begin="anim4.end" fill="freeze" id="anim5" /></path><path d="M 34.3 -7.5 L 34.3 -15.0 C 34.3 -16.5 33.6 -17.2 32.3 -17.2 L 30.6 -17.2 C 29.2 -17.2 28.6 -16.5 28.6 -15.0 L 28.6 -7.5 C 28.6 -6.0 29.2 -5.2 30.6 -5.2 L 32.2 -5.2 C 33.6 -5.2 34.3 -6.0 34.3 -7.5 Z " transform="translate(0.0 38.0)" stroke-dasharray="32.21254710464788" stroke-dashoffset="32.21254710464788"><animate attributeName="stroke-dashoffset" from="32.21254710464788" to="0" dur="0.9663764131394365s" begin="anim5.end" fill="freeze" id="anim6" /></path><path d="M 10.6 -35.4 C 11.2 -37.0 11.6 -38.6 11.9 -40.1 " transform="translate(0.0 38.0)" stroke-dasharray="4.881833197127655" stroke-dashoffset="4.881833197127655"><animate attributeName="stroke-dashoffset" from="4.881833197127655" to="0" dur="0.14645499591382966s" begin="anim6.end" fill="freeze" id="anim7" /></path><path d="M 39.1 -15.0 L 39.1 -7.5 C 39.1 -6.0 39.8 -5.2 41.1 -5.2 L 43.0 -5.2 C 44.3 -5.2 45.0 -6.0 45.0 -7.5 L 45.0 -15.0 C 45.0 -16.5 44.3 -17.2 43.0 -17.2 L 41.1 -17.2 C 39.8 -17.2 39.1 -16.5 39.1 -15.0 Z " transform="translate(0.0 38.0)" stroke-dasharray="32.574167464151785" stroke-dashoffset="32.574167464151785"><animate attributeName="stroke-dashoffset" from="32.574167464151785" to="0" dur="0.9772250239245535s" begin="anim7.end" fill="freeze" id="anim8" /></path><path d="M 34.0 -22.6 L 39.3 -22.6 C 41.0 -22.6 41.9 -23.4 41.9 -25.1 L 41.9 -29.1 C 41.9 -30.8 41.0 -31.6 39.3 -31.6 L 34.0 -31.6 C 32.3 -31.6 31.4 -30.8 31.4 -29.1 L 31.4 -25.1 C 31.4 -23.4 32.3 -22.6 34.0 -22.6 Z" transform="translate(0.0 38.0)" stroke-dasharray="35.159709287715934" stroke-dashoffset="35.159709287715934"><animate attributeName="stroke-dashoffset" from="35.159709287715934" to="0" dur="1.054791278631478s" begin="anim8.end" fill="freeze" id="anim_end" /></path></g></svg>