<?xml version='1.0' encoding='utf-8'?>
<svg viewBox="0.0 -6.0 50.0 50.0" version="1.1" xmlns="http://www.w3.org/2000/svg"><rect x="-1000" y="-1000" width="2000" height="2000" stroke="white" fill="white" /><g style="fill:none;stroke:#000000;stroke-width:1"><path d="M 26.4 -0.3 L 26.4 -34.9 C 26.4 -37.2 27.4 -38.3 30.2 -38.3 L 38.6 -38.3 C 41.5 -38.3 42.5 -37.2 42.5 -34.9 L 42.5 -24.5 C 42.5 -22.2 41.5 -21.0 38.6 -21.0 L 26.6 -21.0 " transform="translate(0.0 38.0)" stroke-dasharray="83.39619433025806" stroke-dashoffset="83.39619433025806"><animate attributeName="stroke-dashoffset" from="83.39619433025806" to="0" dur="2.5018858299077418s" begin="0s" fill="freeze" /></path><path d="M 3.4 -0.7 C 8.6 -1.6 15.7 -3.5 19.9 -5.1 " transform="translate(0.0 38.0)" stroke-dasharray="17.097046669737882" stroke-dashoffset="17.097046669737882"><animate attributeName="stroke-dashoffset" from="17.097046669737882" to="0" dur="0.5129114000921364s" begin="2.5018858299077418s" fill="freeze" /></path><path d="M 6.3 -1.4 L 6.3 -19.3 " transform="translate(0.0 38.0)" stroke-dasharray="17.900000000000002" stroke-dashoffset="17.900000000000002"><animate attributeName="stroke-dashoffset" from="17.900000000000002" to="0" dur="0.537s" begin="3.0147972299998784s" fill="freeze" /></path><path d="M 12.7 -2.8 L 12.7 -26.0 " transform="translate(0.0 38.0)" stroke-dasharray="23.2" stroke-dashoffset="23.2"><animate attributeName="stroke-dashoffset" from="23.2" to="0" dur="0.696s" begin="3.5517972299998783s" fill="freeze" /></path><path d="M 20.9 1.4 C 24.5 0.6 30.6 -1.1 34.5 -2.7 " transform="translate(0.0 38.0)" stroke-dasharray="14.217883102837948" stroke-dashoffset="14.217883102837948"><animate attributeName="stroke-dashoffset" from="14.217883102837948" to="0" dur="0.4265364930851384s" begin="4.247797229999878s" fill="freeze" /></path><path d="M 19.3 -16.6 L 12.8 -16.6 " transform="translate(0.0 38.0)" stroke-dasharray="6.5" stroke-dashoffset="6.5"><animate attributeName="stroke-dashoffset" from="6.5" to="0" dur="0.195s" begin="4.674333723085017s" fill="freeze" /></path><path d="M 18.3 -30.3 L 18.3 -35.0 C 18.3 -37.5 17.4 -38.4 14.8 -38.4 L 9.7 -38.4 C 7.0 -38.4 6.1 -37.4 6.1 -34.9 L 6.1 -30.2 C 6.1 -27.8 7.0 -26.8 9.7 -26.8 L 14.8 -26.8 C 17.4 -26.8 18.3 -27.9 18.3 -30.3 Z " transform="translate(0.0 38.0)" stroke-dasharray="42.750242374935006" stroke-dashoffset="42.750242374935006"><animate attributeName="stroke-dashoffset" from="42.750242374935006" to="0" dur="1.28250727124805s" begin="4.869333723085017s" fill="freeze" /></path><path d="M 46.1 0.2 C 39.8 -4.2 35.3 -11.5 33.4 -20.8 " transform="translate(0.0 38.0)" stroke-dasharray="25.144788198708543" stroke-dashoffset="25.144788198708543"><animate attributeName="stroke-dashoffset" from="25.144788198708543" to="0" dur="0.7543436459612562s" begin="6.151840994333067s" fill="freeze" /></path><path d="M 37.6 -10.0 C 40.0 -11.5 42.5 -13.5 44.9 -15.8 " transform="translate(0.0 38.0)" stroke-dasharray="9.339559669125423" stroke-dashoffset="9.339559669125423"><animate attributeName="stroke-dashoffset" from="9.339559669125423" to="0" dur="0.2801867900737627s" begin="6.906184640294324s" fill="freeze" /></path><path d="M 42.1 -29.8 L 26.6 -29.8" transform="translate(0.0 38.0)" stroke-dasharray="15.5" stroke-dashoffset="15.5"><animate attributeName="stroke-dashoffset" from="15.5" to="0" dur="0.46499999999999997s" begin="7.186371430368086s" fill="freeze" /></path></g></svg>