<?xml version='1.0' encoding='utf-8'?>
<svg viewBox="0.0 -6.0 50.0 50.0" version="1.1" xmlns="http://www.w3.org/2000/svg"><rect x="-1000" y="-1000" width="2000" height="2000" stroke="white" fill="white" /><g style="fill:none;stroke:#000000;stroke-width:1"><path d="M 34.1 1.5 C 35.2 1.7 36.4 1.8 37.4 1.8 C 40.0 1.8 41.1 0.8 41.1 -1.8 L 41.1 -25.1 C 41.1 -27.3 39.9 -28.4 36.8 -28.4 L 16.7 -28.4 C 13.7 -28.4 12.4 -27.3 12.4 -25.1 L 12.4 -19.7 C 12.4 -8.1 10.5 -2.4 5.7 2.5 " transform="translate(0.0 38.0)" stroke-dasharray="94.44570536012937" stroke-dashoffset="94.44570536012937"><animate attributeName="stroke-dashoffset" from="94.44570536012937" to="0" dur="2.833371160803881s" begin="0s; anim_end.end" fill="freeze" id="anim0" /></path><path d="M 40.5 -10.7 L 12.2 -10.7 " transform="translate(0.0 38.0)" stroke-dasharray="28.3" stroke-dashoffset="28.3"><animate attributeName="stroke-dashoffset" from="28.3" to="0" dur="0.849s" begin="anim0.end" fill="freeze" id="anim1" /></path><path d="M 26.4 -10.8 L 26.4 -27.6 " transform="translate(0.0 38.0)" stroke-dasharray="16.8" stroke-dashoffset="16.8"><animate attributeName="stroke-dashoffset" from="16.8" to="0" dur="0.504s" begin="anim1.end" fill="freeze" id="anim2" /></path><path d="M 5.8 -27.1 C 10.8 -30.4 15.1 -34.9 18.8 -40.6 " transform="translate(0.0 38.0)" stroke-dasharray="18.876490505202216" stroke-dashoffset="18.876490505202216"><animate attributeName="stroke-dashoffset" from="18.876490505202216" to="0" dur="0.5662947151560664s" begin="anim2.end" fill="freeze" id="anim3" /></path><path d="M 40.6 -19.8 L 13.3 -19.8 " transform="translate(0.0 38.0)" stroke-dasharray="27.3" stroke-dashoffset="27.3"><animate attributeName="stroke-dashoffset" from="27.3" to="0" dur="0.819s" begin="anim3.end" fill="freeze" id="anim4" /></path><path d="M 25.6 -28.6 C 27.1 -30.1 28.2 -31.7 29.4 -33.5 C 30.4 -35.0 30.0 -36.5 27.6 -36.5 L 15.3 -36.5" transform="translate(0.0 38.0)" stroke-dasharray="23.198179616658155" stroke-dashoffset="23.198179616658155"><animate attributeName="stroke-dashoffset" from="23.198179616658155" to="0" dur="0.6959453884997446s" begin="anim4.end" fill="freeze" id="anim_end" /></path></g></svg>