<?xml version='1.0' encoding='utf-8'?>
<svg viewBox="0.0 -6.0 50.0 50.0" version="1.1" xmlns="http://www.w3.org/2000/svg"><rect x="-1000" y="-1000" width="2000" height="2000" stroke="white" fill="white" /><g style="fill:none;stroke:#000000;stroke-width:1"><path d="M 15.6 -21.2 L 34.7 -21.2 C 37.4 -21.2 38.2 -22.0 38.2 -23.7 L 38.2 -29.3 C 38.2 -31.1 37.4 -31.7 34.7 -31.7 L 15.6 -31.7 C 12.8 -31.7 11.9 -30.9 11.9 -29.1 L 11.9 -23.7 C 11.9 -22.0 12.8 -21.2 15.6 -21.2 Z " transform="translate(0.0 38.0)" stroke-dasharray="69.51105000858466" stroke-dashoffset="69.51105000858466"><animate attributeName="stroke-dashoffset" from="69.51105000858466" to="0" dur="2.08533150025754s" begin="0s; 15s; 30s; 45s" fill="freeze" id="anim0" /></path><path d="M 10.2 2.4 C 15.7 2.0 23.2 0.9 28.3 -0.3 " transform="translate(0.0 38.0)" stroke-dasharray="18.31588533300176" stroke-dashoffset="18.31588533300176"><animate attributeName="stroke-dashoffset" from="18.31588533300176" to="0" dur="0.5494765599900527s" begin="anim0.end" fill="freeze" id="anim1" /></path><path d="M 4.2 -2.1 C 11.2 -3.7 18.8 -6.9 23.7 -10.5 " transform="translate(0.0 38.0)" stroke-dasharray="21.362460454879187" stroke-dashoffset="21.362460454879187"><animate attributeName="stroke-dashoffset" from="21.362460454879187" to="0" dur="0.6408738136463756s" begin="anim1.end" fill="freeze" id="anim2" /></path><path d="M 17.4 1.4 L 17.4 -3.9 " transform="translate(0.0 38.0)" stroke-dasharray="5.3" stroke-dashoffset="5.3"><animate attributeName="stroke-dashoffset" from="5.3" to="0" dur="0.159s" begin="anim2.end" fill="freeze" id="anim3" /></path><path d="M 45.9 -11.1 L 4.2 -11.1 " transform="translate(0.0 38.0)" stroke-dasharray="41.699999999999996" stroke-dashoffset="41.699999999999996"><animate attributeName="stroke-dashoffset" from="41.699999999999996" to="0" dur="1.251s" begin="anim3.end" fill="freeze" id="anim4" /></path><path d="M 45.5 2.1 C 37.6 0.1 30.3 -4.2 26.4 -10.6 " transform="translate(0.0 38.0)" stroke-dasharray="23.506258543162744" stroke-dashoffset="23.506258543162744"><animate attributeName="stroke-dashoffset" from="23.506258543162744" to="0" dur="0.7051877562948823s" begin="anim4.end" fill="freeze" id="anim5" /></path><path d="M 41.2 -16.1 L 9.6 -16.1 " transform="translate(0.0 38.0)" stroke-dasharray="31.6" stroke-dashoffset="31.6"><animate attributeName="stroke-dashoffset" from="31.6" to="0" dur="0.948s" begin="anim5.end" fill="freeze" id="anim6" /></path><path d="M 33.4 -3.5 C 35.6 -4.5 37.5 -5.8 39.5 -7.2 " transform="translate(0.0 38.0)" stroke-dasharray="7.145298019217359" stroke-dashoffset="7.145298019217359"><animate attributeName="stroke-dashoffset" from="7.145298019217359" to="0" dur="0.21435894057652075s" begin="anim6.end" fill="freeze" id="anim7" /></path><path d="M 24.9 -10.8 L 24.9 -31.4 " transform="translate(0.0 38.0)" stroke-dasharray="20.599999999999998" stroke-dashoffset="20.599999999999998"><animate attributeName="stroke-dashoffset" from="20.599999999999998" to="0" dur="0.6179999999999999s" begin="anim7.end" fill="freeze" id="anim8" /></path><path d="M 38.2 -26.5 L 12.3 -26.5 " transform="translate(0.0 38.0)" stroke-dasharray="25.900000000000002" stroke-dashoffset="25.900000000000002"><animate attributeName="stroke-dashoffset" from="25.900000000000002" to="0" dur="0.777s" begin="anim8.end" fill="freeze" id="anim9" /></path><path d="M 45.2 -36.8 L 4.9 -36.8 " transform="translate(0.0 38.0)" stroke-dasharray="40.300000000000004" stroke-dashoffset="40.300000000000004"><animate attributeName="stroke-dashoffset" from="40.300000000000004" to="0" dur="1.209s" begin="anim9.end" fill="freeze" id="anim10" /></path><path d="M 24.8 -36.7 L 24.8 -41.1" transform="translate(0.0 38.0)" stroke-dasharray="4.399999999999999" stroke-dashoffset="4.399999999999999"><animate attributeName="stroke-dashoffset" from="4.399999999999999" to="0" dur="0.13199999999999995s" begin="anim10.end" fill="freeze" id="anim_end" /></path></g></svg>