<?xml version='1.0' encoding='utf-8'?>
<svg viewBox="0.0 -6.0 50.0 50.0" version="1.1" xmlns="http://www.w3.org/2000/svg"><rect x="-1000" y="-1000" width="2000" height="2000" stroke="white" fill="white" /><g style="fill:none;stroke:#000000;stroke-width:1"><path d="M 10.1 0.9 C 10.8 1.1 11.5 1.1 12.2 1.1 C 14.2 1.1 15.2 0.2 15.2 -2.0 L 15.2 -35.6 C 15.2 -38.0 14.3 -38.8 12.1 -38.8 L 9.7 -38.8 C 7.4 -38.8 6.6 -38.0 6.6 -35.6 L 6.6 -23.4 C 6.6 -10.8 5.5 -4.2 3.6 0.8 " transform="translate(0.0 38.0)" stroke-dasharray="90.26117084851181" stroke-dashoffset="90.26117084851181"><animate attributeName="stroke-dashoffset" from="90.26117084851181" to="0" dur="2.7078351254553543s" begin="0s; anim_end.end" fill="freeze" id="anim0" /></path><path d="M 14.8 -15.4 L 6.2 -15.4 " transform="translate(0.0 38.0)" stroke-dasharray="8.600000000000001" stroke-dashoffset="8.600000000000001"><animate attributeName="stroke-dashoffset" from="8.600000000000001" to="0" dur="0.258s" begin="anim0.end" fill="freeze" id="anim1" /></path><path d="M 19.7 2.0 C 26.6 -0.8 30.8 -6.7 31.8 -15.0 " transform="translate(0.0 38.0)" stroke-dasharray="21.975341302052016" stroke-dashoffset="21.975341302052016"><animate attributeName="stroke-dashoffset" from="21.975341302052016" to="0" dur="0.6592602390615604s" begin="anim1.end" fill="freeze" id="anim2" /></path><path d="M 14.8 -27.2 L 6.3 -27.2 " transform="translate(0.0 38.0)" stroke-dasharray="8.5" stroke-dashoffset="8.5"><animate attributeName="stroke-dashoffset" from="8.5" to="0" dur="0.255s" begin="anim2.end" fill="freeze" id="anim3" /></path><path d="M 33.7 0.8 C 34.6 1.1 35.6 1.2 36.5 1.2 C 39.0 1.2 40.1 0.6 40.9 -1.6 C 41.3 -3.0 41.6 -4.5 41.7 -6.5 C 41.8 -8.2 41.0 -9.2 38.6 -9.2 L 30.7 -9.2 " transform="translate(0.0 38.0)" stroke-dasharray="26.219877487050997" stroke-dashoffset="26.219877487050997"><animate attributeName="stroke-dashoffset" from="26.219877487050997" to="0" dur="0.7865963246115298s" begin="anim3.end" fill="freeze" id="anim4" /></path><path d="M 45.9 -15.9 L 20.6 -15.9 " transform="translate(0.0 38.0)" stroke-dasharray="25.299999999999997" stroke-dashoffset="25.299999999999997"><animate attributeName="stroke-dashoffset" from="25.299999999999997" to="0" dur="0.7589999999999999s" begin="anim4.end" fill="freeze" id="anim5" /></path><path d="M 32.8 -15.8 L 32.8 -20.9 " transform="translate(0.0 38.0)" stroke-dasharray="5.099999999999998" stroke-dashoffset="5.099999999999998"><animate attributeName="stroke-dashoffset" from="5.099999999999998" to="0" dur="0.15299999999999994s" begin="anim5.end" fill="freeze" id="anim6" /></path><path d="M 46.0 -20.9 L 46.0 -23.4 C 46.0 -24.9 45.2 -25.9 42.7 -25.9 L 23.9 -25.9 C 21.6 -25.9 20.8 -24.9 20.8 -23.4 L 20.8 -20.6 " transform="translate(0.0 38.0)" stroke-dasharray="33.40846876177386" stroke-dashoffset="33.40846876177386"><animate attributeName="stroke-dashoffset" from="33.40846876177386" to="0" dur="1.0022540628532157s" begin="anim6.end" fill="freeze" id="anim7" /></path><path d="M 28.6 -29.6 C 28.1 -30.5 27.6 -31.2 27.0 -32.0 " transform="translate(0.0 38.0)" stroke-dasharray="2.8869425708144947" stroke-dashoffset="2.8869425708144947"><animate attributeName="stroke-dashoffset" from="2.8869425708144947" to="0" dur="0.08660827712443483s" begin="anim7.end" fill="freeze" id="anim8" /></path><path d="M 36.1 -26.5 C 37.0 -28.0 37.9 -29.8 38.8 -31.8 " transform="translate(0.0 38.0)" stroke-dasharray="5.95141830301411" stroke-dashoffset="5.95141830301411"><animate attributeName="stroke-dashoffset" from="5.95141830301411" to="0" dur="0.1785425490904233s" begin="anim8.end" fill="freeze" id="anim9" /></path><path d="M 45.0 -35.6 L 22.1 -35.6 " transform="translate(0.0 38.0)" stroke-dasharray="22.9" stroke-dashoffset="22.9"><animate attributeName="stroke-dashoffset" from="22.9" to="0" dur="0.6869999999999999s" begin="anim9.end" fill="freeze" id="anim10" /></path><path d="M 33.0 -35.4 L 33.0 -40.0" transform="translate(0.0 38.0)" stroke-dasharray="4.600000000000001" stroke-dashoffset="4.600000000000001"><animate attributeName="stroke-dashoffset" from="4.600000000000001" to="0" dur="0.13800000000000004s" begin="anim10.end" fill="freeze" id="anim_end" /></path></g></svg>