<?xml version='1.0' encoding='utf-8'?>
<svg viewBox="0.0 -6.0 50.0 50.0" version="1.1" xmlns="http://www.w3.org/2000/svg"><rect x="-1000" y="-1000" width="2000" height="2000" stroke="white" fill="white" /><g style="fill:none;stroke:#000000;stroke-width:1"><path d="M 37.2 -3.8 C 38.0 -3.6 38.6 -3.5 39.4 -3.5 C 41.5 -3.5 42.5 -4.3 42.5 -6.8 L 42.5 -12.7 C 42.5 -14.7 41.6 -15.7 39.0 -15.7 L 22.8 -15.7 " transform="translate(0.0 38.0)" stroke-dasharray="34.94469654154648" stroke-dashoffset="34.94469654154648"><animate attributeName="stroke-dashoffset" from="34.94469654154648" to="0" dur="1.0483408962463943s" begin="0s; 15s; 30s; 45s" fill="freeze" id="anim0" /></path><path d="M 3.0 -7.0 C 7.1 -7.7 11.8 -8.8 16.0 -10.1 " transform="translate(0.0 38.0)" stroke-dasharray="13.373468841385138" stroke-dashoffset="13.373468841385138"><animate attributeName="stroke-dashoffset" from="13.373468841385138" to="0" dur="0.4012040652415541s" begin="anim0.end" fill="freeze" id="anim1" /></path><path d="M 7.3 -8.8 L 7.3 -37.0 " transform="translate(0.0 38.0)" stroke-dasharray="28.2" stroke-dashoffset="28.2"><animate attributeName="stroke-dashoffset" from="28.2" to="0" dur="0.846s" begin="anim1.end" fill="freeze" id="anim2" /></path><path d="M 16.4 -18.9 L 7.8 -18.9 " transform="translate(0.0 38.0)" stroke-dasharray="8.599999999999998" stroke-dashoffset="8.599999999999998"><animate attributeName="stroke-dashoffset" from="8.599999999999998" to="0" dur="0.25799999999999995s" begin="anim2.end" fill="freeze" id="anim3" /></path><path d="M 16.6 2.6 L 16.6 -37.1 " transform="translate(0.0 38.0)" stroke-dasharray="39.7" stroke-dashoffset="39.7"><animate attributeName="stroke-dashoffset" from="39.7" to="0" dur="1.191s" begin="anim3.end" fill="freeze" id="anim4" /></path><path d="M 31.6 2.3 L 31.6 -15.2 " transform="translate(0.0 38.0)" stroke-dasharray="17.5" stroke-dashoffset="17.5"><animate attributeName="stroke-dashoffset" from="17.5" to="0" dur="0.525s" begin="anim4.end" fill="freeze" id="anim5" /></path><path d="M 16.4 -28.4 L 7.8 -28.4 " transform="translate(0.0 38.0)" stroke-dasharray="8.599999999999998" stroke-dashoffset="8.599999999999998"><animate attributeName="stroke-dashoffset" from="8.599999999999998" to="0" dur="0.25799999999999995s" begin="anim5.end" fill="freeze" id="anim6" /></path><path d="M 21.6 -37.5 L 3.5 -37.5 " transform="translate(0.0 38.0)" stroke-dasharray="18.1" stroke-dashoffset="18.1"><animate attributeName="stroke-dashoffset" from="18.1" to="0" dur="0.543s" begin="anim6.end" fill="freeze" id="anim7" /></path><path d="M 38.3 -23.4 L 28.2 -23.4 " transform="translate(0.0 38.0)" stroke-dasharray="10.099999999999998" stroke-dashoffset="10.099999999999998"><animate attributeName="stroke-dashoffset" from="10.099999999999998" to="0" dur="0.30299999999999994s" begin="anim7.end" fill="freeze" id="anim8" /></path><path d="M 21.1 -23.2 C 25.7 -27.4 30.2 -33.5 32.9 -39.5 " transform="translate(0.0 38.0)" stroke-dasharray="20.25101401096318" stroke-dashoffset="20.25101401096318"><animate attributeName="stroke-dashoffset" from="20.25101401096318" to="0" dur="0.6075304203288954s" begin="anim8.end" fill="freeze" id="anim9" /></path><path d="M 46.2 -24.1 C 41.2 -27.8 36.2 -33.4 32.9 -38.8" transform="translate(0.0 38.0)" stroke-dasharray="19.93537334423158" stroke-dashoffset="19.93537334423158"><animate attributeName="stroke-dashoffset" from="19.93537334423158" to="0" dur="0.5980612003269473s" begin="anim9.end" fill="freeze" id="anim_end" /></path></g></svg>