<?xml version='1.0' encoding='utf-8'?>
<svg viewBox="0.0 -6.0 50.0 50.0" version="1.1" xmlns="http://www.w3.org/2000/svg"><rect x="-1000" y="-1000" width="2000" height="2000" stroke="white" fill="white" /><g style="fill:none;stroke:#000000;stroke-width:1"><path d="M 44.1 -15.2 L 44.1 -26.9 C 44.1 -29.1 43.4 -29.9 40.5 -29.9 L 26.9 -29.9 C 24.2 -29.9 23.4 -29.1 23.4 -26.9 L 23.4 -14.9 " transform="translate(0.0 38.0)" stroke-dasharray="48.25228110787055" stroke-dashoffset="48.25228110787055"><animate attributeName="stroke-dashoffset" from="48.25228110787055" to="0" dur="1.4475684332361165s" begin="0s; 15s; 30s; 45s" fill="freeze" id="anim0" /></path><path d="M 3.0 -0.5 C 8.2 -1.4 14.8 -3.2 18.4 -4.7 " transform="translate(0.0 38.0)" stroke-dasharray="15.987725105126826" stroke-dashoffset="15.987725105126826"><animate attributeName="stroke-dashoffset" from="15.987725105126826" to="0" dur="0.47963175315380474s" begin="anim0.end" fill="freeze" id="anim1" /></path><path d="M 5.8 -0.7 L 5.8 -18.7 " transform="translate(0.0 38.0)" stroke-dasharray="18.0" stroke-dashoffset="18.0"><animate attributeName="stroke-dashoffset" from="18.0" to="0" dur="0.54s" begin="anim1.end" fill="freeze" id="anim2" /></path><path d="M 11.7 -2.4 L 11.7 -25.5 " transform="translate(0.0 38.0)" stroke-dasharray="23.1" stroke-dashoffset="23.1"><animate attributeName="stroke-dashoffset" from="23.1" to="0" dur="0.6930000000000001s" begin="anim2.end" fill="freeze" id="anim3" /></path><path d="M 19.4 2.4 C 27.7 -0.1 32.1 -4.2 33.6 -12.8 " transform="translate(0.0 38.0)" stroke-dasharray="22.19101849946629" stroke-dashoffset="22.19101849946629"><animate attributeName="stroke-dashoffset" from="22.19101849946629" to="0" dur="0.6657305549839886s" begin="anim3.end" fill="freeze" id="anim4" /></path><path d="M 17.7 -16.2 L 12.1 -16.2 " transform="translate(0.0 38.0)" stroke-dasharray="5.6" stroke-dashoffset="5.6"><animate attributeName="stroke-dashoffset" from="5.6" to="0" dur="0.16799999999999998s" begin="anim4.end" fill="freeze" id="anim5" /></path><path d="M 36.4 0.7 C 37.4 0.9 38.5 1.1 39.4 1.1 C 41.4 1.1 42.6 0.5 43.5 -1.9 C 44.0 -3.2 44.5 -5.0 44.5 -6.3 C 44.8 -8.2 43.9 -9.0 41.7 -9.0 L 21.9 -8.8 " transform="translate(0.0 38.0)" stroke-dasharray="37.57303608374339" stroke-dashoffset="37.57303608374339"><animate attributeName="stroke-dashoffset" from="37.57303608374339" to="0" dur="1.1271910825123017s" begin="anim5.end" fill="freeze" id="anim6" /></path><path d="M 17.2 -29.3 L 17.2 -34.9 C 17.2 -37.3 16.4 -38.1 13.8 -38.1 L 9.1 -38.1 C 6.5 -38.1 5.6 -37.3 5.6 -34.9 L 5.6 -29.3 C 5.6 -26.9 6.5 -26.1 9.1 -26.1 L 13.8 -26.1 C 16.4 -26.1 17.2 -26.9 17.2 -29.3 Z " transform="translate(0.0 38.0)" stroke-dasharray="42.75346857353051" stroke-dashoffset="42.75346857353051"><animate attributeName="stroke-dashoffset" from="42.75346857353051" to="0" dur="1.2826040572059154s" begin="anim6.end" fill="freeze" id="anim7" /></path><path d="M 43.3 -19.2 L 24.2 -19.2 " transform="translate(0.0 38.0)" stroke-dasharray="19.099999999999998" stroke-dashoffset="19.099999999999998"><animate attributeName="stroke-dashoffset" from="19.099999999999998" to="0" dur="0.573s" begin="anim7.end" fill="freeze" id="anim8" /></path><path d="M 33.5 -16.0 L 33.5 -29.1 " transform="translate(0.0 38.0)" stroke-dasharray="13.100000000000001" stroke-dashoffset="13.100000000000001"><animate attributeName="stroke-dashoffset" from="13.100000000000001" to="0" dur="0.393s" begin="anim8.end" fill="freeze" id="anim9" /></path><path d="M 43.3 -24.6 L 24.2 -24.6 " transform="translate(0.0 38.0)" stroke-dasharray="19.099999999999998" stroke-dashoffset="19.099999999999998"><animate attributeName="stroke-dashoffset" from="19.099999999999998" to="0" dur="0.573s" begin="anim9.end" fill="freeze" id="anim10" /></path><path d="M 34.6 -31.4 C 33.2 -32.8 31.2 -34.1 29.9 -34.8 " transform="translate(0.0 38.0)" stroke-dasharray="5.818670706750243" stroke-dashoffset="5.818670706750243"><animate attributeName="stroke-dashoffset" from="5.818670706750243" to="0" dur="0.1745601212025073s" begin="anim10.end" fill="freeze" id="anim11" /></path><path d="M 33.8 -32.8 C 35.8 -33.5 37.5 -34.5 39.2 -35.7 C 41.1 -37.0 40.8 -38.6 38.2 -38.6 L 24.6 -38.6" transform="translate(0.0 38.0)" stroke-dasharray="24.711718403707067" stroke-dashoffset="24.711718403707067"><animate attributeName="stroke-dashoffset" from="24.711718403707067" to="0" dur="0.741351552111212s" begin="anim11.end" fill="freeze" id="anim_end" /></path></g></svg>