<?xml version='1.0' encoding='utf-8'?>
<svg viewBox="0.0 -6.0 50.0 50.0" version="1.1" xmlns="http://www.w3.org/2000/svg"><rect x="-1000" y="-1000" width="2000" height="2000" stroke="white" fill="white" /><g style="fill:none;stroke:#000000;stroke-width:1"><path d="M 25.5 -9.4 L 25.5 -2.6 C 25.5 -0.2 26.5 0.7 29.1 0.7 L 39.0 0.7 C 41.6 0.7 42.6 -0.2 42.6 -2.6 L 42.6 -9.4 C 42.6 -11.8 41.6 -12.6 39.0 -12.6 L 29.1 -12.6 C 26.5 -12.6 25.5 -11.8 25.5 -9.4 Z " transform="translate(0.0 38.0)" stroke-dasharray="56.075942497080405" stroke-dashoffset="56.075942497080405"><animate attributeName="stroke-dashoffset" from="56.075942497080405" to="0" dur="1.682278274912412s" begin="0s" fill="freeze" /></path><path d="M 16.9 -2.4 L 16.9 -8.0 C 16.9 -10.0 16.1 -10.9 13.6 -10.9 L 9.3 -10.9 C 7.0 -10.9 6.0 -10.0 6.0 -8.0 L 6.0 -2.4 C 6.0 -0.4 7.0 0.6 9.3 0.6 L 13.6 0.6 C 16.1 0.6 16.9 -0.4 16.9 -2.4 Z " transform="translate(0.0 38.0)" stroke-dasharray="40.32338275392399" stroke-dashoffset="40.32338275392399"><animate attributeName="stroke-dashoffset" from="40.32338275392399" to="0" dur="1.2097014826177195s" begin="1.682278274912412s" fill="freeze" /></path><path d="M 16.6 -17.7 L 6.0 -17.7 " transform="translate(0.0 38.0)" stroke-dasharray="10.600000000000001" stroke-dashoffset="10.600000000000001"><animate attributeName="stroke-dashoffset" from="10.600000000000001" to="0" dur="0.318s" begin="2.8919797575301316s" fill="freeze" /></path><path d="M 16.6 -24.4 L 6.0 -24.4 " transform="translate(0.0 38.0)" stroke-dasharray="10.600000000000001" stroke-dashoffset="10.600000000000001"><animate attributeName="stroke-dashoffset" from="10.600000000000001" to="0" dur="0.318s" begin="3.2099797575301316s" fill="freeze" /></path><path d="M 18.9 -31.2 L 3.0 -31.2 " transform="translate(0.0 38.0)" stroke-dasharray="15.899999999999999" stroke-dashoffset="15.899999999999999"><animate attributeName="stroke-dashoffset" from="15.899999999999999" to="0" dur="0.4769999999999999s" begin="3.5279797575301317s" fill="freeze" /></path><path d="M 16.6 -37.9 L 6.0 -37.9 " transform="translate(0.0 38.0)" stroke-dasharray="10.600000000000001" stroke-dashoffset="10.600000000000001"><animate attributeName="stroke-dashoffset" from="10.600000000000001" to="0" dur="0.318s" begin="4.004979757530132s" fill="freeze" /></path><path d="M 46.5 -22.1 L 21.9 -22.1 " transform="translate(0.0 38.0)" stroke-dasharray="24.6" stroke-dashoffset="24.6"><animate attributeName="stroke-dashoffset" from="24.6" to="0" dur="0.738s" begin="4.322979757530131s" fill="freeze" /></path><path d="M 23.1 -27.6 C 24.8 -30.1 26.4 -34.2 27.4 -37.8 " transform="translate(0.0 38.0)" stroke-dasharray="11.110718437235178" stroke-dashoffset="11.110718437235178"><animate attributeName="stroke-dashoffset" from="11.110718437235178" to="0" dur="0.33332155311705536s" begin="5.060979757530131s" fill="freeze" /></path><path d="M 34.3 -17.6 L 34.3 -40.2 " transform="translate(0.0 38.0)" stroke-dasharray="22.6" stroke-dashoffset="22.6"><animate attributeName="stroke-dashoffset" from="22.6" to="0" dur="0.678s" begin="5.394301310647186s" fill="freeze" /></path><path d="M 44.2 -31.8 L 25.3 -31.8" transform="translate(0.0 38.0)" stroke-dasharray="18.900000000000002" stroke-dashoffset="18.900000000000002"><animate attributeName="stroke-dashoffset" from="18.900000000000002" to="0" dur="0.5670000000000001s" begin="6.072301310647186s" fill="freeze" /></path></g></svg>