<?xml version='1.0' encoding='utf-8'?>
<svg viewBox="0.0 -6.0 50.0 50.0" version="1.1" xmlns="http://www.w3.org/2000/svg"><rect x="-1000" y="-1000" width="2000" height="2000" stroke="white" fill="white" /><g style="fill:none;stroke:#000000;stroke-width:1"><path d="M 30.4 0.1 L 39.6 0.1 C 42.5 0.1 43.8 -1.1 43.8 -3.8 L 43.8 -32.5 C 43.8 -35.2 42.5 -36.4 39.6 -36.4 L 30.4 -36.4 C 27.4 -36.4 26.1 -35.2 26.1 -32.5 L 26.1 -3.8 C 26.1 -1.1 27.4 0.1 30.4 0.1 Z " transform="translate(0.0 38.0)" stroke-dasharray="102.47674274882019" stroke-dashoffset="102.47674274882019"><animate attributeName="stroke-dashoffset" from="102.47674274882019" to="0" dur="3.0743022824646054s" begin="0s; anim_end.end" fill="freeze" id="anim0" /></path><path d="M 11.1 2.5 L 11.1 -20.3 " transform="translate(0.0 38.0)" stroke-dasharray="22.8" stroke-dashoffset="22.8"><animate attributeName="stroke-dashoffset" from="22.8" to="0" dur="0.6839999999999999s" begin="anim0.end" fill="freeze" id="anim1" /></path><path d="M 3.5 -13.4 C 8.8 -17.1 14.1 -23.3 16.6 -28.6 C 17.5 -30.6 16.7 -31.9 14.4 -31.9 L 4.0 -31.9 " transform="translate(0.0 38.0)" stroke-dasharray="35.738070088924275" stroke-dashoffset="35.738070088924275"><animate attributeName="stroke-dashoffset" from="35.738070088924275" to="0" dur="1.0721421026677282s" begin="anim1.end" fill="freeze" id="anim2" /></path><path d="M 14.8 -15.3 C 16.4 -16.8 17.8 -18.4 19.1 -20.1 " transform="translate(0.0 38.0)" stroke-dasharray="6.451783832348928" stroke-dashoffset="6.451783832348928"><animate attributeName="stroke-dashoffset" from="6.451783832348928" to="0" dur="0.19355351497046785s" begin="anim2.end" fill="freeze" id="anim3" /></path><path d="M 11.1 -32.1 L 11.1 -40.3 " transform="translate(0.0 38.0)" stroke-dasharray="8.199999999999996" stroke-dashoffset="8.199999999999996"><animate attributeName="stroke-dashoffset" from="8.199999999999996" to="0" dur="0.24599999999999986s" begin="anim3.end" fill="freeze" id="anim4" /></path><path d="M 43.7 -19.1 L 26.2 -19.1 " transform="translate(0.0 38.0)" stroke-dasharray="17.500000000000004" stroke-dashoffset="17.500000000000004"><animate attributeName="stroke-dashoffset" from="17.500000000000004" to="0" dur="0.5250000000000001s" begin="anim4.end" fill="freeze" id="anim5" /></path><path d="M 12.2 -15.8 C 14.8 -14.1 17.2 -12.5 19.2 -10.8" transform="translate(0.0 38.0)" stroke-dasharray="8.607976472729755" stroke-dashoffset="8.607976472729755"><animate attributeName="stroke-dashoffset" from="8.607976472729755" to="0" dur="0.2582392941818926s" begin="anim5.end" fill="freeze" id="anim_end" /></path></g></svg>