<?xml version='1.0' encoding='utf-8'?>
<svg viewBox="0.0 -6.0 50.0 50.0" version="1.1" xmlns="http://www.w3.org/2000/svg"><rect x="-1000" y="-1000" width="2000" height="2000" stroke="white" fill="white" /><g style="fill:none;stroke:#000000;stroke-width:1"><path d="M 3.6 -10.2 C 10.9 -12.2 19.4 -15.8 25.2 -20.2 " transform="translate(0.0 38.0)" stroke-dasharray="23.93158106549856" stroke-dashoffset="23.93158106549856"><animate attributeName="stroke-dashoffset" from="23.93158106549856" to="0" dur="0.7179474319649567s" begin="0s" fill="freeze" /></path><path d="M 10.0 3.0 C 19.4 2.6 30.6 0.3 37.5 -2.5 " transform="translate(0.0 38.0)" stroke-dasharray="28.15824824800556" stroke-dashoffset="28.15824824800556"><animate attributeName="stroke-dashoffset" from="28.15824824800556" to="0" dur="0.8447474474401667s" begin="0.7179474319649567s" fill="freeze" /></path><path d="M 11.2 -2.2 C 18.6 -3.1 26.1 -5.1 31.5 -7.7 " transform="translate(0.0 38.0)" stroke-dasharray="21.117633731023723" stroke-dashoffset="21.117633731023723"><animate attributeName="stroke-dashoffset" from="21.117633731023723" to="0" dur="0.6335290119307116s" begin="1.5626948794051234s" fill="freeze" /></path><path d="M 11.6 -7.5 C 16.2 -8.4 21.9 -10.2 25.8 -12.2 " transform="translate(0.0 38.0)" stroke-dasharray="14.999498636493225" stroke-dashoffset="14.999498636493225"><animate attributeName="stroke-dashoffset" from="14.999498636493225" to="0" dur="0.44998495909479674s" begin="2.196223891335835s" fill="freeze" /></path><path d="M 6.2 -16.9 C 11.6 -19.1 16.9 -22.6 21.1 -26.4 " transform="translate(0.0 38.0)" stroke-dasharray="17.756347323769756" stroke-dashoffset="17.756347323769756"><animate attributeName="stroke-dashoffset" from="17.756347323769756" to="0" dur="0.5326904197130926s" begin="2.646208850430632s" fill="freeze" /></path><path d="M 6.0 -23.4 C 10.1 -25.1 13.7 -27.4 16.9 -30.4 " transform="translate(0.0 38.0)" stroke-dasharray="13.025930094047036" stroke-dashoffset="13.025930094047036"><animate attributeName="stroke-dashoffset" from="13.025930094047036" to="0" dur="0.39077790282141106s" begin="3.1788992701437246s" fill="freeze" /></path><path d="M 21.6 -21.4 L 21.6 -28.1 C 21.6 -30.1 20.6 -30.6 18.4 -30.6 L 6.2 -30.6 " transform="translate(0.0 38.0)" stroke-dasharray="23.64677662312294" stroke-dashoffset="23.64677662312294"><animate attributeName="stroke-dashoffset" from="23.64677662312294" to="0" dur="0.7094032986936881s" begin="3.5696771729651355s" fill="freeze" /></path><path d="M 45.9 -8.7 C 38.8 -10.7 30.6 -14.7 25.2 -19.5 " transform="translate(0.0 38.0)" stroke-dasharray="23.525408947105173" stroke-dashoffset="23.525408947105173"><animate attributeName="stroke-dashoffset" from="23.525408947105173" to="0" dur="0.7057622684131551s" begin="4.2790804716588235s" fill="freeze" /></path><path d="M 17.9 -33.9 L 17.9 -40.9 " transform="translate(0.0 38.0)" stroke-dasharray="7.0" stroke-dashoffset="7.0"><animate attributeName="stroke-dashoffset" from="7.0" to="0" dur="0.21s" begin="4.984842740071978s" fill="freeze" /></path><path d="M 28.2 -24.1 C 31.6 -25.8 34.8 -28.0 37.6 -30.8 " transform="translate(0.0 38.0)" stroke-dasharray="11.593618516007336" stroke-dashoffset="11.593618516007336"><animate attributeName="stroke-dashoffset" from="11.593618516007336" to="0" dur="0.34780855548022005s" begin="5.194842740071978s" fill="freeze" /></path><path d="M 43.0 -18.2 L 43.0 -28.1 C 43.0 -30.1 42.1 -30.6 39.9 -30.6 L 27.6 -30.6 " transform="translate(0.0 38.0)" stroke-dasharray="26.875905493380152" stroke-dashoffset="26.875905493380152"><animate attributeName="stroke-dashoffset" from="26.875905493380152" to="0" dur="0.8062771648014045s" begin="5.542651295552198s" fill="freeze" /></path><path d="M 32.1 -19.8 C 36.1 -21.9 40.0 -24.8 43.1 -28.1 " transform="translate(0.0 38.0)" stroke-dasharray="13.841777721794076" stroke-dashoffset="13.841777721794076"><animate attributeName="stroke-dashoffset" from="13.841777721794076" to="0" dur="0.4152533316538223s" begin="6.348928460353602s" fill="freeze" /></path><path d="M 45.6 -37.1 L 4.2 -37.1 " transform="translate(0.0 38.0)" stroke-dasharray="41.4" stroke-dashoffset="41.4"><animate attributeName="stroke-dashoffset" from="41.4" to="0" dur="1.242s" begin="6.764181792007425s" fill="freeze" /></path><path d="M 31.7 -33.9 L 31.7 -40.9" transform="translate(0.0 38.0)" stroke-dasharray="7.0" stroke-dashoffset="7.0"><animate attributeName="stroke-dashoffset" from="7.0" to="0" dur="0.21s" begin="8.006181792007425s" fill="freeze" /></path></g></svg>