<?xml version='1.0' encoding='utf-8'?>
<svg viewBox="0.0 -6.0 50.0 50.0" version="1.1" xmlns="http://www.w3.org/2000/svg"><rect x="-1000" y="-1000" width="2000" height="2000" stroke="white" fill="white" /><g style="fill:none;stroke:#000000;stroke-width:1"><path d="M 9.5 0.5 L 13.8 0.5 C 16.2 0.5 17.1 -0.5 17.1 -2.4 L 17.1 -8.0 C 17.1 -10.0 16.2 -10.9 13.8 -10.9 L 9.5 -10.9 C 7.1 -10.9 6.2 -10.0 6.2 -8.0 L 6.2 -2.4 C 6.2 -0.5 7.1 0.5 9.5 0.5 Z " transform="translate(0.0 38.0)" stroke-dasharray="40.14502068510123" stroke-dashoffset="40.14502068510123"><animate attributeName="stroke-dashoffset" from="40.14502068510123" to="0" dur="1.2043506205530368s" begin="0s; anim_end.end" fill="freeze" id="anim0" /></path><path d="M 16.9 -17.7 L 6.2 -17.7 " transform="translate(0.0 38.0)" stroke-dasharray="10.7" stroke-dashoffset="10.7"><animate attributeName="stroke-dashoffset" from="10.7" to="0" dur="0.32099999999999995s" begin="anim0.end" fill="freeze" id="anim1" /></path><path d="M 16.9 -24.3 L 6.2 -24.3 " transform="translate(0.0 38.0)" stroke-dasharray="10.7" stroke-dashoffset="10.7"><animate attributeName="stroke-dashoffset" from="10.7" to="0" dur="0.32099999999999995s" begin="anim1.end" fill="freeze" id="anim2" /></path><path d="M 19.7 -31.2 L 3.1 -31.2 " transform="translate(0.0 38.0)" stroke-dasharray="16.599999999999998" stroke-dashoffset="16.599999999999998"><animate attributeName="stroke-dashoffset" from="16.599999999999998" to="0" dur="0.49799999999999994s" begin="anim2.end" fill="freeze" id="anim3" /></path><path d="M 34.5 1.9 L 34.5 -30.9 " transform="translate(0.0 38.0)" stroke-dasharray="32.8" stroke-dashoffset="32.8"><animate attributeName="stroke-dashoffset" from="32.8" to="0" dur="0.9839999999999999s" begin="anim3.end" fill="freeze" id="anim4" /></path><path d="M 16.9 -37.9 L 6.2 -37.9 " transform="translate(0.0 38.0)" stroke-dasharray="10.7" stroke-dashoffset="10.7"><animate attributeName="stroke-dashoffset" from="10.7" to="0" dur="0.32099999999999995s" begin="anim4.end" fill="freeze" id="anim5" /></path><path d="M 46.7 -17.6 L 22.8 -17.6 " transform="translate(0.0 38.0)" stroke-dasharray="23.900000000000002" stroke-dashoffset="23.900000000000002"><animate attributeName="stroke-dashoffset" from="23.900000000000002" to="0" dur="0.7170000000000001s" begin="anim5.end" fill="freeze" id="anim6" /></path><path d="M 23.0 -25.0 C 25.9 -29.1 27.9 -34.2 29.4 -39.4 " transform="translate(0.0 38.0)" stroke-dasharray="15.830624165442936" stroke-dashoffset="15.830624165442936"><animate attributeName="stroke-dashoffset" from="15.830624165442936" to="0" dur="0.4749187249632881s" begin="anim6.end" fill="freeze" id="anim7" /></path><path d="M 44.2 -31.4 L 27.8 -31.4" transform="translate(0.0 38.0)" stroke-dasharray="16.400000000000002" stroke-dashoffset="16.400000000000002"><animate attributeName="stroke-dashoffset" from="16.400000000000002" to="0" dur="0.49200000000000005s" begin="anim7.end" fill="freeze" id="anim_end" /></path></g></svg>