<?xml version='1.0' encoding='utf-8'?>
<svg viewBox="0.0 -6.0 50.0 50.0" version="1.1" xmlns="http://www.w3.org/2000/svg"><rect x="-1000" y="-1000" width="2000" height="2000" stroke="white" fill="white" /><g style="fill:none;stroke:#000000;stroke-width:1"><path d="M 36.6 1.9 C 37.4 2.1 38.4 2.2 39.4 2.2 C 41.4 2.2 42.5 1.4 42.5 -0.8 L 42.5 -13.1 C 42.5 -15.0 41.7 -16.0 38.8 -16.0 L 11.3 -16.0 C 8.4 -16.0 7.5 -15.0 7.5 -13.1 L 7.5 2.7 " transform="translate(0.0 38.0)" stroke-dasharray="74.39403600805312" stroke-dashoffset="74.39403600805312"><animate attributeName="stroke-dashoffset" from="74.39403600805312" to="0" dur="2.2318210802415934s" begin="0s" fill="freeze" /></path><path d="M 20.2 -1.8 L 29.8 -1.8 C 31.9 -1.8 32.6 -2.5 32.6 -4.0 L 32.6 -7.3 C 32.6 -8.9 31.9 -9.6 29.8 -9.6 L 20.2 -9.6 C 18.1 -9.6 17.2 -8.9 17.2 -7.3 L 17.2 -4.0 C 17.2 -2.5 18.1 -1.8 20.2 -1.8 Z " transform="translate(0.0 38.0)" stroke-dasharray="42.77099212508564" stroke-dashoffset="42.77099212508564"><animate attributeName="stroke-dashoffset" from="42.77099212508564" to="0" dur="1.2831297637525692s" begin="2.2318210802415934s" fill="freeze" /></path><path d="M 36.1 -16.2 L 36.1 -26.1 C 36.1 -28.3 35.1 -29.2 32.3 -29.2 L 18.0 -29.2 C 15.1 -29.2 14.2 -28.3 14.2 -26.1 L 14.2 -16.2 " transform="translate(0.0 38.0)" stroke-dasharray="45.53477679064066" stroke-dashoffset="45.53477679064066"><animate attributeName="stroke-dashoffset" from="45.53477679064066" to="0" dur="1.36604330371922s" begin="3.5149508439941624s" fill="freeze" /></path><path d="M 24.0 -16.5 L 24.0 -20.9 C 24.0 -22.5 24.8 -23.2 26.9 -23.2 L 36.0 -23.2 " transform="translate(0.0 38.0)" stroke-dasharray="17.78533904779062" stroke-dashoffset="17.78533904779062"><animate attributeName="stroke-dashoffset" from="17.78533904779062" to="0" dur="0.5335601714337186s" begin="4.880994147713382s" fill="freeze" /></path><path d="M 17.9 -33.1 L 17.9 -40.6 " transform="translate(0.0 38.0)" stroke-dasharray="7.5" stroke-dashoffset="7.5"><animate attributeName="stroke-dashoffset" from="7.5" to="0" dur="0.22499999999999998s" begin="5.414554319147101s" fill="freeze" /></path><path d="M 45.9 -36.6 L 4.0 -36.6 " transform="translate(0.0 38.0)" stroke-dasharray="41.9" stroke-dashoffset="41.9"><animate attributeName="stroke-dashoffset" from="41.9" to="0" dur="1.257s" begin="5.6395543191471s" fill="freeze" /></path><path d="M 31.7 -33.2 L 31.7 -40.6" transform="translate(0.0 38.0)" stroke-dasharray="7.399999999999999" stroke-dashoffset="7.399999999999999"><animate attributeName="stroke-dashoffset" from="7.399999999999999" to="0" dur="0.22199999999999995s" begin="6.8965543191471s" fill="freeze" /></path></g></svg>