<?xml version='1.0' encoding='utf-8'?>
<svg viewBox="0.0 -6.0 50.0 50.0" version="1.1" xmlns="http://www.w3.org/2000/svg"><rect x="-1000" y="-1000" width="2000" height="2000" stroke="white" fill="white" /><g style="fill:none;stroke:#000000;stroke-width:1"><path d="M 7.8 -16.6 L 15.5 -16.6 C 17.9 -16.6 18.8 -17.4 18.8 -19.1 L 18.8 -22.9 C 18.8 -24.8 17.9 -25.4 15.5 -25.4 L 9.9 -25.4 C 7.6 -25.4 6.7 -24.6 6.7 -22.9 L 6.7 -2.0 C 6.7 -0.4 7.6 0.6 9.9 0.6 L 16.6 0.6 C 19.1 0.6 19.9 -0.3 19.9 -1.9 L 19.9 -6.5 C 19.9 -8.2 19.1 -8.9 16.6 -8.9 L 7.8 -8.9 " transform="translate(0.0 38.0)" stroke-dasharray="86.62257247759864" stroke-dashoffset="86.62257247759864"><animate attributeName="stroke-dashoffset" from="86.62257247759864" to="0" dur="2.598677174327959s" begin="0s; anim_end.end" fill="freeze" id="anim0" /></path><path d="M 34.9 2.9 L 34.9 -15.0 " transform="translate(0.0 38.0)" stroke-dasharray="17.9" stroke-dashoffset="17.9"><animate attributeName="stroke-dashoffset" from="17.9" to="0" dur="0.5369999999999999s" begin="anim0.end" fill="freeze" id="anim1" /></path><path d="M 11.3 -25.6 C 12.1 -27.1 12.7 -28.4 13.2 -30.1 " transform="translate(0.0 38.0)" stroke-dasharray="4.894144504497299" stroke-dashoffset="4.894144504497299"><animate attributeName="stroke-dashoffset" from="4.894144504497299" to="0" dur="0.14682433513491897s" begin="anim1.end" fill="freeze" id="anim2" /></path><path d="M 44.4 -6.8 L 25.6 -6.8 " transform="translate(0.0 38.0)" stroke-dasharray="18.799999999999997" stroke-dashoffset="18.799999999999997"><animate attributeName="stroke-dashoffset" from="18.799999999999997" to="0" dur="0.564s" begin="anim2.end" fill="freeze" id="anim3" /></path><path d="M 46.3 -15.2 L 23.7 -15.2 " transform="translate(0.0 38.0)" stroke-dasharray="22.599999999999998" stroke-dashoffset="22.599999999999998"><animate attributeName="stroke-dashoffset" from="22.599999999999998" to="0" dur="0.6779999999999999s" begin="anim3.end" fill="freeze" id="anim4" /></path><path d="M 31.2 -18.9 C 30.9 -19.8 30.1 -20.9 29.7 -21.8 " transform="translate(0.0 38.0)" stroke-dasharray="3.268971702176048" stroke-dashoffset="3.268971702176048"><animate attributeName="stroke-dashoffset" from="3.268971702176048" to="0" dur="0.09806915106528144s" begin="anim4.end" fill="freeze" id="anim5" /></path><path d="M 17.9 -32.7 L 17.9 -40.5 " transform="translate(0.0 38.0)" stroke-dasharray="7.799999999999997" stroke-dashoffset="7.799999999999997"><animate attributeName="stroke-dashoffset" from="7.799999999999997" to="0" dur="0.2339999999999999s" begin="anim5.end" fill="freeze" id="anim6" /></path><path d="M 37.3 -16.0 C 38.2 -17.7 39.1 -19.8 39.9 -21.7 " transform="translate(0.0 38.0)" stroke-dasharray="6.266946864707684" stroke-dashoffset="6.266946864707684"><animate attributeName="stroke-dashoffset" from="6.266946864707684" to="0" dur="0.18800840594123053s" begin="anim6.end" fill="freeze" id="anim7" /></path><path d="M 44.4 -25.6 L 25.6 -25.6 " transform="translate(0.0 38.0)" stroke-dasharray="18.799999999999997" stroke-dashoffset="18.799999999999997"><animate attributeName="stroke-dashoffset" from="18.799999999999997" to="0" dur="0.564s" begin="anim7.end" fill="freeze" id="anim8" /></path><path d="M 45.9 -36.4 L 4.0 -36.4 " transform="translate(0.0 38.0)" stroke-dasharray="41.9" stroke-dashoffset="41.9"><animate attributeName="stroke-dashoffset" from="41.9" to="0" dur="1.257s" begin="anim8.end" fill="freeze" id="anim9" /></path><path d="M 34.9 -25.5 L 34.9 -30.4 " transform="translate(0.0 38.0)" stroke-dasharray="4.899999999999999" stroke-dashoffset="4.899999999999999"><animate attributeName="stroke-dashoffset" from="4.899999999999999" to="0" dur="0.14699999999999996s" begin="anim9.end" fill="freeze" id="anim10" /></path><path d="M 31.8 -32.8 L 31.8 -40.5" transform="translate(0.0 38.0)" stroke-dasharray="7.700000000000003" stroke-dashoffset="7.700000000000003"><animate attributeName="stroke-dashoffset" from="7.700000000000003" to="0" dur="0.23100000000000007s" begin="anim10.end" fill="freeze" id="anim_end" /></path></g></svg>