<?xml version='1.0' encoding='utf-8'?>
<svg viewBox="0.0 -6.0 50.0 50.0" version="1.1" xmlns="http://www.w3.org/2000/svg"><rect x="-1000" y="-1000" width="2000" height="2000" stroke="white" fill="white" /><g style="fill:none;stroke:#000000;stroke-width:1"><path d="M 29.6 -10.8 L 29.6 -2.9 C 29.6 -0.6 30.7 0.4 33.3 0.4 L 40.0 0.4 C 42.6 0.4 43.7 -0.6 43.7 -2.9 L 43.7 -10.8 C 43.7 -13.1 42.6 -14.1 40.0 -14.1 L 33.3 -14.1 C 30.8 -14.1 29.6 -13.1 29.6 -10.8 Z " transform="translate(0.0 38.0)" stroke-dasharray="52.14073748302712" stroke-dashoffset="52.14073748302712"><animate attributeName="stroke-dashoffset" from="52.14073748302712" to="0" dur="1.5642221244908134s" begin="0s; anim_end.end" fill="freeze" id="anim0" /></path><path d="M 15.7 -2.3 L 15.7 -8.1 C 15.7 -10.1 14.9 -11.0 12.6 -11.0 L 8.7 -11.0 C 6.4 -11.0 5.5 -10.1 5.5 -8.1 L 5.5 -2.3 C 5.5 -0.3 6.4 0.7 8.7 0.7 L 12.6 0.7 C 14.9 0.7 15.7 -0.3 15.7 -2.3 Z " transform="translate(0.0 38.0)" stroke-dasharray="39.431568747018645" stroke-dashoffset="39.431568747018645"><animate attributeName="stroke-dashoffset" from="39.431568747018645" to="0" dur="1.1829470624105594s" begin="anim0.end" fill="freeze" id="anim1" /></path><path d="M 15.4 -17.8 L 5.6 -17.8 " transform="translate(0.0 38.0)" stroke-dasharray="9.8" stroke-dashoffset="9.8"><animate attributeName="stroke-dashoffset" from="9.8" to="0" dur="0.294s" begin="anim1.end" fill="freeze" id="anim2" /></path><path d="M 15.4 -24.4 L 5.6 -24.4 " transform="translate(0.0 38.0)" stroke-dasharray="9.8" stroke-dashoffset="9.8"><animate attributeName="stroke-dashoffset" from="9.8" to="0" dur="0.294s" begin="anim2.end" fill="freeze" id="anim3" /></path><path d="M 20.4 -0.3 C 23.2 -6.1 24.6 -13.8 24.6 -25.0 L 24.6 -36.0 " transform="translate(0.0 38.0)" stroke-dasharray="36.260532366686114" stroke-dashoffset="36.260532366686114"><animate attributeName="stroke-dashoffset" from="36.260532366686114" to="0" dur="1.0878159710005835s" begin="anim3.end" fill="freeze" id="anim4" /></path><path d="M 17.9 -31.4 L 2.9 -31.4 " transform="translate(0.0 38.0)" stroke-dasharray="14.999999999999998" stroke-dashoffset="14.999999999999998"><animate attributeName="stroke-dashoffset" from="14.999999999999998" to="0" dur="0.44999999999999996s" begin="anim4.end" fill="freeze" id="anim5" /></path><path d="M 15.4 -38.1 L 5.6 -38.1 " transform="translate(0.0 38.0)" stroke-dasharray="9.8" stroke-dashoffset="9.8"><animate attributeName="stroke-dashoffset" from="9.8" to="0" dur="0.294s" begin="anim5.end" fill="freeze" id="anim6" /></path><path d="M 45.8 -24.9 L 24.6 -24.9 " transform="translate(0.0 38.0)" stroke-dasharray="21.199999999999996" stroke-dashoffset="21.199999999999996"><animate attributeName="stroke-dashoffset" from="21.199999999999996" to="0" dur="0.6359999999999999s" begin="anim6.end" fill="freeze" id="anim7" /></path><path d="M 24.8 -35.4 C 30.4 -36.1 36.2 -37.3 41.8 -39.1" transform="translate(0.0 38.0)" stroke-dasharray="17.42299459873138" stroke-dashoffset="17.42299459873138"><animate attributeName="stroke-dashoffset" from="17.42299459873138" to="0" dur="0.5226898379619414s" begin="anim7.end" fill="freeze" id="anim_end" /></path></g></svg>