<?xml version='1.0' encoding='utf-8'?>
<svg viewBox="0.0 -6.0 50.0 50.0" version="1.1" xmlns="http://www.w3.org/2000/svg"><rect x="-1000" y="-1000" width="2000" height="2000" stroke="white" fill="white" /><g style="fill:none;stroke:#000000;stroke-width:1"><path d="M 6.9 -24.9 L 8.3 -29.9 C 8.7 -31.3 9.2 -31.8 11.4 -31.8 L 39.2 -31.8 C 41.1 -31.8 41.9 -32.4 41.9 -33.9 L 41.9 -35.2 C 41.9 -36.8 41.1 -37.2 39.2 -37.2 L 6.0 -37.2 " transform="translate(0.0 38.0)" stroke-dasharray="79.4251273482559" stroke-dashoffset="79.4251273482559"><animate attributeName="stroke-dashoffset" from="79.4251273482559" to="0" dur="2.382753820447677s" begin="0s; 15s; 30s; 45s" fill="freeze" id="anim0" /></path><path d="M 5.9 2.6 C 9.8 2.0 14.9 0.8 18.6 -0.9 " transform="translate(0.0 38.0)" stroke-dasharray="13.210746339876236" stroke-dashoffset="13.210746339876236"><animate attributeName="stroke-dashoffset" from="13.210746339876236" to="0" dur="0.39632239019628707s" begin="anim0.end" fill="freeze" id="anim1" /></path><path d="M 36.9 -9.3 L 13.4 -9.3 " transform="translate(0.0 38.0)" stroke-dasharray="23.5" stroke-dashoffset="23.5"><animate attributeName="stroke-dashoffset" from="23.5" to="0" dur="0.705s" begin="anim1.end" fill="freeze" id="anim2" /></path><path d="M 43.7 2.5 C 39.2 1.6 34.6 0.3 31.1 -1.1 " transform="translate(0.0 38.0)" stroke-dasharray="13.120953129911413" stroke-dashoffset="13.120953129911413"><animate attributeName="stroke-dashoffset" from="13.120953129911413" to="0" dur="0.3936285938973424s" begin="anim2.end" fill="freeze" id="anim3" /></path><path d="M 16.6 -4.2 L 33.8 -4.2 C 36.6 -4.2 37.5 -5.0 37.5 -6.9 L 37.5 -16.8 C 37.5 -18.6 36.6 -19.4 33.8 -19.4 L 16.6 -19.4 C 13.7 -19.4 12.8 -18.6 12.8 -16.8 L 12.8 -6.9 C 12.8 -5.0 13.7 -4.2 16.6 -4.2 Z " transform="translate(0.0 38.0)" stroke-dasharray="75.4797554394653" stroke-dashoffset="75.4797554394653"><animate attributeName="stroke-dashoffset" from="75.4797554394653" to="0" dur="2.264392663183959s" begin="anim3.end" fill="freeze" id="anim4" /></path><path d="M 36.9 -14.3 L 13.4 -14.3 " transform="translate(0.0 38.0)" stroke-dasharray="23.5" stroke-dashoffset="23.5"><animate attributeName="stroke-dashoffset" from="23.5" to="0" dur="0.705s" begin="anim4.end" fill="freeze" id="anim5" /></path><path d="M 4.8 -17.4 C 15.0 -21.1 19.7 -27.3 19.7 -37.5 L 19.7 -40.5 " transform="translate(0.0 38.0)" stroke-dasharray="30.03740715243372" stroke-dashoffset="30.03740715243372"><animate attributeName="stroke-dashoffset" from="30.03740715243372" to="0" dur="0.9011222145730116s" begin="anim5.end" fill="freeze" id="anim6" /></path><path d="M 39.8 -20.7 C 40.5 -20.6 41.0 -20.5 41.5 -20.5 C 42.9 -20.5 43.9 -20.8 44.4 -22.2 C 44.6 -22.9 44.8 -23.6 44.9 -24.2 C 45.1 -25.6 44.4 -26.4 42.5 -26.4 L 7.2 -26.4 " transform="translate(0.0 38.0)" stroke-dasharray="46.58642427016445" stroke-dashoffset="46.58642427016445"><animate attributeName="stroke-dashoffset" from="46.58642427016445" to="0" dur="1.3975927281049334s" begin="anim6.end" fill="freeze" id="anim7" /></path><path d="M 30.1 -22.9 L 30.1 -40.5" transform="translate(0.0 38.0)" stroke-dasharray="17.6" stroke-dashoffset="17.6"><animate attributeName="stroke-dashoffset" from="17.6" to="0" dur="0.528s" begin="anim7.end" fill="freeze" id="anim_end" /></path></g></svg>