<?xml version='1.0' encoding='utf-8'?>
<svg viewBox="0.0 -6.0 50.0 50.0" version="1.1" xmlns="http://www.w3.org/2000/svg"><rect x="-1000" y="-1000" width="2000" height="2000" stroke="white" fill="white" /><g style="fill:none;stroke:#000000;stroke-width:1"><path d="M 32.1 -11.9 C 33.1 -11.7 34.3 -11.4 35.2 -11.4 C 37.5 -11.4 38.9 -12.2 39.8 -14.8 C 40.8 -17.8 41.4 -21.5 41.7 -25.1 C 41.9 -27.2 41.0 -28.4 38.0 -28.4 L 12.9 -28.4 " transform="translate(0.0 38.0)" stroke-dasharray="50.82897592844818" stroke-dashoffset="50.82897592844818"><animate attributeName="stroke-dashoffset" from="50.82897592844818" to="0" dur="1.5248692778534454s" begin="0s; 15s; 30s; 45s" fill="freeze" id="anim0" /></path><path d="M 5.5 -0.3 C 6.7 -1.8 8.0 -3.9 8.8 -5.9 " transform="translate(0.0 38.0)" stroke-dasharray="6.521260525505401" stroke-dashoffset="6.521260525505401"><animate attributeName="stroke-dashoffset" from="6.521260525505401" to="0" dur="0.195637815765162s" begin="anim0.end" fill="freeze" id="anim1" /></path><path d="M 16.1 -7.2 L 16.1 -1.2 C 16.1 1.1 17.0 1.8 24.6 1.8 C 33.2 1.8 34.8 0.8 35.2 -3.0 " transform="translate(0.0 38.0)" stroke-dasharray="29.290457786725344" stroke-dashoffset="29.290457786725344"><animate attributeName="stroke-dashoffset" from="29.290457786725344" to="0" dur="0.8787137336017603s" begin="anim1.end" fill="freeze" id="anim2" /></path><path d="M 27.1 -5.5 C 25.9 -6.6 24.9 -7.5 23.9 -8.2 " transform="translate(0.0 38.0)" stroke-dasharray="4.189874456309541" stroke-dashoffset="4.189874456309541"><animate attributeName="stroke-dashoffset" from="4.189874456309541" to="0" dur="0.12569623368928623s" begin="anim2.end" fill="freeze" id="anim3" /></path><path d="M 8.7 -13.7 C 15.0 -16.9 20.4 -21.9 23.6 -28.1 " transform="translate(0.0 38.0)" stroke-dasharray="21.057509912229968" stroke-dashoffset="21.057509912229968"><animate attributeName="stroke-dashoffset" from="21.057509912229968" to="0" dur="0.631725297366899s" begin="anim3.end" fill="freeze" id="anim4" /></path><path d="M 5.5 -20.9 C 9.4 -23.6 12.9 -27.5 15.2 -31.3 " transform="translate(0.0 38.0)" stroke-dasharray="14.320275740134218" stroke-dashoffset="14.320275740134218"><animate attributeName="stroke-dashoffset" from="14.320275740134218" to="0" dur="0.42960827220402653s" begin="anim4.end" fill="freeze" id="anim5" /></path><path d="M 18.8 -10.7 C 25.1 -14.4 30.2 -20.6 32.6 -27.9 " transform="translate(0.0 38.0)" stroke-dasharray="22.528122166100395" stroke-dashoffset="22.528122166100395"><animate attributeName="stroke-dashoffset" from="22.528122166100395" to="0" dur="0.6758436649830118s" begin="anim5.end" fill="freeze" id="anim6" /></path><path d="M 32.5 -17.6 C 27.1 -19.7 20.4 -21.5 14.9 -22.4 " transform="translate(0.0 38.0)" stroke-dasharray="18.272442503383367" stroke-dashoffset="18.272442503383367"><animate attributeName="stroke-dashoffset" from="18.272442503383367" to="0" dur="0.5481732751015009s" begin="anim6.end" fill="freeze" id="anim7" /></path><path d="M 44.1 -1.9 C 43.1 -3.5 41.5 -5.3 40.1 -6.7 " transform="translate(0.0 38.0)" stroke-dasharray="6.260193920597289" stroke-dashoffset="6.260193920597289"><animate attributeName="stroke-dashoffset" from="6.260193920597289" to="0" dur="0.18780581761791867s" begin="anim7.end" fill="freeze" id="anim8" /></path><path d="M 18.4 -33.6 L 18.4 -40.6 " transform="translate(0.0 38.0)" stroke-dasharray="7.0" stroke-dashoffset="7.0"><animate attributeName="stroke-dashoffset" from="7.0" to="0" dur="0.21s" begin="anim8.end" fill="freeze" id="anim9" /></path><path d="M 45.6 -36.6 L 4.2 -36.6 " transform="translate(0.0 38.0)" stroke-dasharray="41.4" stroke-dashoffset="41.4"><animate attributeName="stroke-dashoffset" from="41.4" to="0" dur="1.242s" begin="anim9.end" fill="freeze" id="anim10" /></path><path d="M 31.7 -33.2 L 31.7 -40.6" transform="translate(0.0 38.0)" stroke-dasharray="7.399999999999999" stroke-dashoffset="7.399999999999999"><animate attributeName="stroke-dashoffset" from="7.399999999999999" to="0" dur="0.22199999999999995s" begin="anim10.end" fill="freeze" id="anim_end" /></path></g></svg>