<?xml version='1.0' encoding='utf-8'?>
<svg viewBox="0.0 -6.0 50.0 50.0" version="1.1" xmlns="http://www.w3.org/2000/svg"><rect x="-1000" y="-1000" width="2000" height="2000" stroke="white" fill="white" /><g style="fill:none;stroke:#000000;stroke-width:1"><path d="M 13.4 -0.1 L 13.4 -30.6 C 13.4 -32.9 14.7 -34.0 17.9 -34.0 L 31.7 -34.0 C 34.9 -34.0 36.1 -32.9 36.1 -30.6 L 36.1 -20.6 C 36.1 -18.3 34.9 -17.1 31.7 -17.1 L 14.3 -17.1 " transform="translate(0.0 38.0)" stroke-dasharray="91.08104705530674" stroke-dashoffset="91.08104705530674"><animate attributeName="stroke-dashoffset" from="91.08104705530674" to="0" dur="2.732431411659202s" begin="0s" fill="freeze" /></path><path d="M 5.0 0.9 C 11.1 0.5 18.9 -0.8 24.9 -2.2 " transform="translate(0.0 38.0)" stroke-dasharray="20.159544103428416" stroke-dashoffset="20.159544103428416"><animate attributeName="stroke-dashoffset" from="20.159544103428416" to="0" dur="0.6047863231028525s" begin="2.732431411659202s" fill="freeze" /></path><path d="M 45.0 1.4 C 34.7 -1.0 26.8 -7.3 22.9 -16.4 " transform="translate(0.0 38.0)" stroke-dasharray="29.480992798285456" stroke-dashoffset="29.480992798285456"><animate attributeName="stroke-dashoffset" from="29.480992798285456" to="0" dur="0.8844297839485636s" begin="3.3372177347620546s" fill="freeze" /></path><path d="M 29.5 -7.2 C 33.7 -8.8 38.1 -11.2 41.6 -13.7 " transform="translate(0.0 38.0)" stroke-dasharray="13.770457981794912" stroke-dashoffset="13.770457981794912"><animate attributeName="stroke-dashoffset" from="13.770457981794912" to="0" dur="0.4131137394538474s" begin="4.221647518710618s" fill="freeze" /></path><path d="M 36.0 -25.6 L 14.4 -25.6 " transform="translate(0.0 38.0)" stroke-dasharray="21.6" stroke-dashoffset="21.6"><animate attributeName="stroke-dashoffset" from="21.6" to="0" dur="0.648s" begin="4.634761258164466s" fill="freeze" /></path><path d="M 24.6 -34.1 L 24.6 -41.0" transform="translate(0.0 38.0)" stroke-dasharray="6.899999999999999" stroke-dashoffset="6.899999999999999"><animate attributeName="stroke-dashoffset" from="6.899999999999999" to="0" dur="0.20699999999999996s" begin="5.282761258164466s" fill="freeze" /></path></g></svg>