<?xml version='1.0' encoding='utf-8'?>
<svg viewBox="0.0 -6.0 50.0 50.0" version="1.1" xmlns="http://www.w3.org/2000/svg"><rect x="-1000" y="-1000" width="2000" height="2000" stroke="white" fill="white" /><g style="fill:none;stroke:#000000;stroke-width:1"><path d="M 46.1 -3.1 C 45.5 0.2 44.0 1.4 42.1 1.4 C 37.1 1.4 29.9 -5.3 27.4 -18.2 " transform="translate(0.0 38.0)" stroke-dasharray="32.714762608054365" stroke-dashoffset="32.714762608054365"><animate attributeName="stroke-dashoffset" from="32.714762608054365" to="0" dur="0.9814428782416309s" begin="0s; 15s; 30s; 45s" fill="freeze" id="anim0" /></path><path d="M 2.9 -0.2 C 7.9 -1.1 13.8 -2.8 17.9 -4.5 " transform="translate(0.0 38.0)" stroke-dasharray="15.630003777955354" stroke-dashoffset="15.630003777955354"><animate attributeName="stroke-dashoffset" from="15.630003777955354" to="0" dur="0.4689001133386606s" begin="anim0.end" fill="freeze" id="anim1" /></path><path d="M 5.5 -0.4 L 5.5 -18.7 " transform="translate(0.0 38.0)" stroke-dasharray="18.3" stroke-dashoffset="18.3"><animate attributeName="stroke-dashoffset" from="18.3" to="0" dur="0.549s" begin="anim1.end" fill="freeze" id="anim2" /></path><path d="M 11.2 -2.1 L 11.2 -25.6 " transform="translate(0.0 38.0)" stroke-dasharray="23.5" stroke-dashoffset="23.5"><animate attributeName="stroke-dashoffset" from="23.5" to="0" dur="0.705s" begin="anim2.end" fill="freeze" id="anim3" /></path><path d="M 17.1 -16.1 L 11.4 -16.1 " transform="translate(0.0 38.0)" stroke-dasharray="5.700000000000001" stroke-dashoffset="5.700000000000001"><animate attributeName="stroke-dashoffset" from="5.700000000000001" to="0" dur="0.171s" begin="anim3.end" fill="freeze" id="anim4" /></path><path d="M 18.9 2.2 C 27.0 0.3 35.7 -3.9 40.7 -8.8 " transform="translate(0.0 38.0)" stroke-dasharray="24.682861134492367" stroke-dashoffset="24.682861134492367"><animate attributeName="stroke-dashoffset" from="24.682861134492367" to="0" dur="0.740485834034771s" begin="anim4.end" fill="freeze" id="anim5" /></path><path d="M 15.9 -29.2 L 15.9 -35.1 C 15.9 -37.4 15.1 -38.2 12.7 -38.2 L 8.6 -38.2 C 6.2 -38.2 5.3 -37.4 5.3 -35.1 L 5.3 -29.2 C 5.3 -26.9 6.2 -26.1 8.6 -26.1 L 12.7 -26.1 C 15.1 -26.1 15.9 -26.9 15.9 -29.2 Z " transform="translate(0.0 38.0)" stroke-dasharray="41.07646230562239" stroke-dashoffset="41.07646230562239"><animate attributeName="stroke-dashoffset" from="41.07646230562239" to="0" dur="1.2322938691686718s" begin="anim5.end" fill="freeze" id="anim6" /></path><path d="M 21.2 -11.2 L 44.5 -14.2 " transform="translate(0.0 38.0)" stroke-dasharray="23.492339176846567" stroke-dashoffset="23.492339176846567"><animate attributeName="stroke-dashoffset" from="23.492339176846567" to="0" dur="0.704770175305397s" begin="anim6.end" fill="freeze" id="anim7" /></path><path d="M 35.7 -17.6 C 34.9 -18.2 33.5 -19.0 32.5 -19.4 " transform="translate(0.0 38.0)" stroke-dasharray="3.6796229673492142" stroke-dashoffset="3.6796229673492142"><animate attributeName="stroke-dashoffset" from="3.6796229673492142" to="0" dur="0.11038868902047642s" begin="anim7.end" fill="freeze" id="anim8" /></path><path d="M 20.4 -20.9 C 27.0 -22.7 34.5 -26.2 39.8 -30.6 " transform="translate(0.0 38.0)" stroke-dasharray="21.83994245070564" stroke-dashoffset="21.83994245070564"><animate attributeName="stroke-dashoffset" from="21.83994245070564" to="0" dur="0.6551982735211691s" begin="anim8.end" fill="freeze" id="anim9" /></path><path d="M 21.4 -32.7 L 43.6 -35.5 " transform="translate(0.0 38.0)" stroke-dasharray="22.375879870968205" stroke-dashoffset="22.375879870968205"><animate attributeName="stroke-dashoffset" from="22.375879870968205" to="0" dur="0.6712763961290461s" begin="anim9.end" fill="freeze" id="anim10" /></path><path d="M 46.0 -25.7 C 45.4 -22.3 44.0 -21.3 42.0 -21.3 C 36.8 -21.3 29.6 -27.1 27.5 -40.2 " transform="translate(0.0 38.0)" stroke-dasharray="32.23831834954125" stroke-dashoffset="32.23831834954125"><animate attributeName="stroke-dashoffset" from="32.23831834954125" to="0" dur="0.9671495504862375s" begin="anim10.end" fill="freeze" id="anim11" /></path><path d="M 36.6 -38.8 C 35.7 -39.4 34.4 -40.0 33.5 -40.5" transform="translate(0.0 38.0)" stroke-dasharray="3.5370142238905062" stroke-dashoffset="3.5370142238905062"><animate attributeName="stroke-dashoffset" from="3.5370142238905062" to="0" dur="0.10611042671671518s" begin="anim11.end" fill="freeze" id="anim_end" /></path></g></svg>