<?xml version='1.0' encoding='utf-8'?>
<svg viewBox="0.0 -6.0 50.0 50.0" version="1.1" xmlns="http://www.w3.org/2000/svg"><rect x="-1000" y="-1000" width="2000" height="2000" stroke="white" fill="white" /><g style="fill:none;stroke:#000000;stroke-width:1"><path d="M 23.4 1.6 C 33.0 -1.0 39.6 -7.8 41.2 -19.6 " transform="translate(0.0 38.0)" stroke-dasharray="29.550112077460945" stroke-dashoffset="29.550112077460945"><animate attributeName="stroke-dashoffset" from="29.550112077460945" to="0" dur="0.8865033623238283s" begin="0s; anim_end.end" fill="freeze" id="anim0" /></path><path d="M 3.0 -6.8 L 21.9 -6.8 " transform="translate(0.0 38.0)" stroke-dasharray="18.9" stroke-dashoffset="18.9"><animate attributeName="stroke-dashoffset" from="18.9" to="0" dur="0.567s" begin="anim0.end" fill="freeze" id="anim1" /></path><path d="M 12.4 2.8 L 12.4 -28.9 " transform="translate(0.0 38.0)" stroke-dasharray="31.7" stroke-dashoffset="31.7"><animate attributeName="stroke-dashoffset" from="31.7" to="0" dur="0.951s" begin="anim1.end" fill="freeze" id="anim2" /></path><path d="M 8.2 -13.9 L 17.0 -13.9 C 19.1 -13.9 19.9 -14.8 19.9 -16.5 L 19.9 -19.6 C 19.9 -21.2 19.1 -22.1 17.0 -22.1 L 8.2 -22.1 C 6.0 -22.1 5.2 -21.2 5.2 -19.6 L 5.2 -16.5 C 5.2 -14.8 6.0 -13.9 8.2 -13.9 Z " transform="translate(0.0 38.0)" stroke-dasharray="41.790158508836555" stroke-dashoffset="41.790158508836555"><animate attributeName="stroke-dashoffset" from="41.790158508836555" to="0" dur="1.2537047552650966s" begin="anim2.end" fill="freeze" id="anim3" /></path><path d="M 44.5 0.5 C 41.0 -3.4 34.2 -7.8 28.9 -9.9 " transform="translate(0.0 38.0)" stroke-dasharray="18.88136873579675" stroke-dashoffset="18.88136873579675"><animate attributeName="stroke-dashoffset" from="18.88136873579675" to="0" dur="0.5664410620739025s" begin="anim3.end" fill="freeze" id="anim4" /></path><path d="M 8.1 -39.9 L 8.1 -31.2 C 8.1 -29.1 8.8 -28.6 10.6 -28.6 L 14.3 -28.6 C 16.1 -28.6 16.9 -29.1 16.9 -31.2 L 16.9 -39.9 " transform="translate(0.0 38.0)" stroke-dasharray="29.692361664320966" stroke-dashoffset="29.692361664320966"><animate attributeName="stroke-dashoffset" from="29.692361664320966" to="0" dur="0.890770849929629s" begin="anim4.end" fill="freeze" id="anim5" /></path><path d="M 3.4 -34.9 L 20.9 -34.9 " transform="translate(0.0 38.0)" stroke-dasharray="17.5" stroke-dashoffset="17.5"><animate attributeName="stroke-dashoffset" from="17.5" to="0" dur="0.525s" begin="anim5.end" fill="freeze" id="anim6" /></path><path d="M 27.4 -8.7 C 30.1 -14.5 32.4 -21.3 34.0 -28.4 " transform="translate(0.0 38.0)" stroke-dasharray="20.814742082305713" stroke-dashoffset="20.814742082305713"><animate attributeName="stroke-dashoffset" from="20.814742082305713" to="0" dur="0.6244422624691713s" begin="anim6.end" fill="freeze" id="anim7" /></path><path d="M 24.8 -19.9 L 47.0 -19.9 " transform="translate(0.0 38.0)" stroke-dasharray="22.2" stroke-dashoffset="22.2"><animate attributeName="stroke-dashoffset" from="22.2" to="0" dur="0.6659999999999999s" begin="anim7.end" fill="freeze" id="anim8" /></path><path d="M 45.5 -28.2 L 45.5 -31.4 C 45.5 -33.2 44.6 -34.2 41.9 -34.2 L 28.9 -34.2 C 26.1 -34.2 25.1 -33.2 25.1 -31.4 L 25.1 -27.8 " transform="translate(0.0 38.0)" stroke-dasharray="30.47576861927683" stroke-dashoffset="30.47576861927683"><animate attributeName="stroke-dashoffset" from="30.47576861927683" to="0" dur="0.9142730585783049s" begin="anim8.end" fill="freeze" id="anim9" /></path><path d="M 35.0 -33.5 L 35.0 -40.1" transform="translate(0.0 38.0)" stroke-dasharray="6.600000000000001" stroke-dashoffset="6.600000000000001"><animate attributeName="stroke-dashoffset" from="6.600000000000001" to="0" dur="0.19800000000000004s" begin="anim9.end" fill="freeze" id="anim_end" /></path></g></svg>