<?xml version='1.0' encoding='utf-8'?>
<svg viewBox="0.0 -6.0 50.0 50.0" version="1.1" xmlns="http://www.w3.org/2000/svg"><rect x="-1000" y="-1000" width="2000" height="2000" stroke="white" fill="white" /><g style="fill:none;stroke:#000000;stroke-width:1"><path d="M 37.7 1.4 C 38.6 1.6 39.5 1.8 40.8 1.8 C 42.8 1.8 43.9 0.8 43.9 -2.0 L 43.9 -35.4 C 43.9 -37.5 43.0 -38.5 40.1 -38.5 L 32.5 -38.5 C 29.8 -38.5 28.9 -37.5 28.9 -35.5 L 28.9 -29.4 C 29.0 -27.4 29.9 -26.3 32.5 -26.3 L 43.2 -26.3 " transform="translate(0.0 38.0)" stroke-dasharray="83.1608622569153" stroke-dashoffset="83.1608622569153"><animate attributeName="stroke-dashoffset" from="83.1608622569153" to="0" dur="2.494825867707459s" begin="0s; 15s; 30s; 45s" fill="freeze" id="anim0" /></path><path d="M 6.2 2.3 L 6.2 -35.4 C 6.2 -37.5 7.0 -38.5 9.9 -38.5 L 16.9 -38.5 C 19.5 -38.5 20.4 -37.5 20.4 -35.5 L 20.4 -29.4 C 20.4 -27.3 19.5 -26.3 16.9 -26.3 L 6.7 -26.3 " transform="translate(0.0 38.0)" stroke-dasharray="77.40834484947102" stroke-dashoffset="77.40834484947102"><animate attributeName="stroke-dashoffset" from="77.40834484947102" to="0" dur="2.3222503454841306s" begin="anim0.end" fill="freeze" id="anim1" /></path><path d="M 24.6 1.9 L 24.6 -15.6 " transform="translate(0.0 38.0)" stroke-dasharray="17.5" stroke-dashoffset="17.5"><animate attributeName="stroke-dashoffset" from="17.5" to="0" dur="0.525s" begin="anim1.end" fill="freeze" id="anim2" /></path><path d="M 29.7 -2.3 C 30.6 -2.1 31.1 -2.1 31.8 -2.1 C 33.8 -2.1 34.6 -2.9 34.6 -5.0 L 34.6 -9.2 C 34.6 -11.4 33.9 -12.3 31.0 -12.3 L 18.9 -12.3 C 16.0 -12.3 15.2 -11.4 15.2 -9.2 L 15.2 -1.4 " transform="translate(0.0 38.0)" stroke-dasharray="42.17189094013738" stroke-dashoffset="42.17189094013738"><animate attributeName="stroke-dashoffset" from="42.17189094013738" to="0" dur="1.2651567282041214s" begin="anim2.end" fill="freeze" id="anim3" /></path><path d="M 37.8 -19.3 L 12.2 -19.3 " transform="translate(0.0 38.0)" stroke-dasharray="25.599999999999998" stroke-dashoffset="25.599999999999998"><animate attributeName="stroke-dashoffset" from="25.599999999999998" to="0" dur="0.7679999999999999s" begin="anim3.end" fill="freeze" id="anim4" /></path><path d="M 20.0 -32.5 L 7.0 -32.5 " transform="translate(0.0 38.0)" stroke-dasharray="13.0" stroke-dashoffset="13.0"><animate attributeName="stroke-dashoffset" from="13.0" to="0" dur="0.39s" begin="anim4.end" fill="freeze" id="anim5" /></path><path d="M 24.6 -19.2 L 24.6 -23.6 " transform="translate(0.0 38.0)" stroke-dasharray="4.400000000000002" stroke-dashoffset="4.400000000000002"><animate attributeName="stroke-dashoffset" from="4.400000000000002" to="0" dur="0.13200000000000006s" begin="anim5.end" fill="freeze" id="anim6" /></path><path d="M 43.0 -32.5 L 29.4 -32.5" transform="translate(0.0 38.0)" stroke-dasharray="13.600000000000001" stroke-dashoffset="13.600000000000001"><animate attributeName="stroke-dashoffset" from="13.600000000000001" to="0" dur="0.40800000000000003s" begin="anim6.end" fill="freeze" id="anim_end" /></path></g></svg>