<?xml version='1.0' encoding='utf-8'?>
<svg viewBox="0.0 -6.0 50.0 50.0" version="1.1" xmlns="http://www.w3.org/2000/svg"><rect x="-1000" y="-1000" width="2000" height="2000" stroke="white" fill="white" /><g style="fill:none;stroke:#000000;stroke-width:1"><path d="M 9.1 -13.3 L 15.7 -13.3 C 18.2 -13.3 19.1 -14.3 19.1 -16.4 L 19.1 -24.6 C 19.1 -26.7 18.2 -27.6 15.7 -27.6 L 9.1 -27.6 C 6.5 -27.6 5.6 -26.7 5.6 -24.6 L 5.6 -16.4 C 5.6 -14.3 6.5 -13.3 9.1 -13.3 Z " transform="translate(0.0 38.0)" stroke-dasharray="51.01748963863456" stroke-dashoffset="51.01748963863456"><animate attributeName="stroke-dashoffset" from="51.01748963863456" to="0" dur="1.5305246891590367s" begin="0s; anim_end.end" fill="freeze" id="anim0" /></path><path d="M 12.2 3.0 L 12.2 -13.3 " transform="translate(0.0 38.0)" stroke-dasharray="16.3" stroke-dashoffset="16.3"><animate attributeName="stroke-dashoffset" from="16.3" to="0" dur="0.489s" begin="anim0.end" fill="freeze" id="anim1" /></path><path d="M 19.4 -6.5 L 2.9 -6.5 " transform="translate(0.0 38.0)" stroke-dasharray="16.5" stroke-dashoffset="16.5"><animate attributeName="stroke-dashoffset" from="16.5" to="0" dur="0.495s" begin="anim1.end" fill="freeze" id="anim2" /></path><path d="M 18.8 -20.6 L 5.7 -20.6 " transform="translate(0.0 38.0)" stroke-dasharray="13.100000000000001" stroke-dashoffset="13.100000000000001"><animate attributeName="stroke-dashoffset" from="13.100000000000001" to="0" dur="0.393s" begin="anim2.end" fill="freeze" id="anim3" /></path><path d="M 46.4 -4.4 L 22.9 -4.4 " transform="translate(0.0 38.0)" stroke-dasharray="23.5" stroke-dashoffset="23.5"><animate attributeName="stroke-dashoffset" from="23.5" to="0" dur="0.705s" begin="anim3.end" fill="freeze" id="anim4" /></path><path d="M 36.5 2.3 L 36.5 -16.4 " transform="translate(0.0 38.0)" stroke-dasharray="18.7" stroke-dashoffset="18.7"><animate attributeName="stroke-dashoffset" from="18.7" to="0" dur="0.5609999999999999s" begin="anim4.end" fill="freeze" id="anim5" /></path><path d="M 26.9 -4.8 L 26.9 -8.5 C 26.9 -10.3 27.7 -11.2 30.0 -11.2 L 44.1 -11.2 " transform="translate(0.0 38.0)" stroke-dasharray="22.565293989433222" stroke-dashoffset="22.565293989433222"><animate attributeName="stroke-dashoffset" from="22.565293989433222" to="0" dur="0.6769588196829966s" begin="anim5.end" fill="freeze" id="anim6" /></path><path d="M 20.6 -34.4 L 3.5 -34.4 " transform="translate(0.0 38.0)" stroke-dasharray="17.1" stroke-dashoffset="17.1"><animate attributeName="stroke-dashoffset" from="17.1" to="0" dur="0.513s" begin="anim6.end" fill="freeze" id="anim7" /></path><path d="M 12.2 -27.6 L 12.2 -40.5 " transform="translate(0.0 38.0)" stroke-dasharray="12.899999999999999" stroke-dashoffset="12.899999999999999"><animate attributeName="stroke-dashoffset" from="12.899999999999999" to="0" dur="0.38699999999999996s" begin="anim7.end" fill="freeze" id="anim8" /></path><path d="M 30.4 -16.9 L 39.9 -16.9 C 42.1 -16.9 43.0 -17.7 43.0 -19.2 L 43.0 -21.3 C 43.0 -22.9 42.1 -23.6 39.9 -23.6 L 30.4 -23.6 C 28.3 -23.6 27.4 -22.9 27.4 -21.3 L 27.4 -19.2 C 27.4 -17.7 28.3 -16.9 30.4 -16.9 Z " transform="translate(0.0 38.0)" stroke-dasharray="40.75133489970861" stroke-dashoffset="40.75133489970861"><animate attributeName="stroke-dashoffset" from="40.75133489970861" to="0" dur="1.2225400469912582s" begin="anim8.end" fill="freeze" id="anim9" /></path><path d="M 47.0 -29.1 L 23.2 -29.1 " transform="translate(0.0 38.0)" stroke-dasharray="23.8" stroke-dashoffset="23.8"><animate attributeName="stroke-dashoffset" from="23.8" to="0" dur="0.714s" begin="anim9.end" fill="freeze" id="anim10" /></path><path d="M 40.8 -29.5 L 40.8 -33.3 C 40.8 -35.1 39.9 -35.9 37.6 -35.9 L 26.0 -35.9 " transform="translate(0.0 38.0)" stroke-dasharray="20.171375926280373" stroke-dashoffset="20.171375926280373"><animate attributeName="stroke-dashoffset" from="20.171375926280373" to="0" dur="0.6051412777884112s" begin="anim10.end" fill="freeze" id="anim11" /></path><path d="M 30.2 -29.6 L 33.0 -40.4" transform="translate(0.0 38.0)" stroke-dasharray="11.15706054478508" stroke-dashoffset="11.15706054478508"><animate attributeName="stroke-dashoffset" from="11.15706054478508" to="0" dur="0.3347118163435524s" begin="anim11.end" fill="freeze" id="anim_end" /></path></g></svg>