<?xml version='1.0' encoding='utf-8'?>
<svg viewBox="0.0 -6.0 50.0 50.0" version="1.1" xmlns="http://www.w3.org/2000/svg"><rect x="-1000" y="-1000" width="2000" height="2000" stroke="white" fill="white" /><g style="fill:none;stroke:#000000;stroke-width:1"><path d="M 31.4 -4.8 C 38.4 -9.8 43.1 -18.2 44.0 -30.2 " transform="translate(0.0 38.0)" stroke-dasharray="29.313449293819698" stroke-dashoffset="29.313449293819698"><animate attributeName="stroke-dashoffset" from="29.313449293819698" to="0" dur="0.8794034788145909s" begin="0s; anim_end.end" fill="freeze" id="anim0" /></path><path d="M 3.6 1.3 C 6.1 -0.5 8.2 -2.5 10.2 -5.0 " transform="translate(0.0 38.0)" stroke-dasharray="9.153598776515611" stroke-dashoffset="9.153598776515611"><animate attributeName="stroke-dashoffset" from="9.153598776515611" to="0" dur="0.2746079632954683s" begin="anim0.end" fill="freeze" id="anim1" /></path><path d="M 9.9 -4.5 L 9.9 -13.3 C 9.9 -15.2 9.2 -16.0 6.9 -16.0 L 3.6 -16.0 " transform="translate(0.0 38.0)" stroke-dasharray="16.82491505408139" stroke-dashoffset="16.82491505408139"><animate attributeName="stroke-dashoffset" from="16.82491505408139" to="0" dur="0.5047474516224417s" begin="anim1.end" fill="freeze" id="anim2" /></path><path d="M 15.6 -6.5 C 18.9 -9.5 21.2 -14.4 21.6 -20.1 " transform="translate(0.0 38.0)" stroke-dasharray="15.21966424472662" stroke-dashoffset="15.21966424472662"><animate attributeName="stroke-dashoffset" from="15.21966424472662" to="0" dur="0.45658992734179854s" begin="anim2.end" fill="freeze" id="anim3" /></path><path d="M 46.6 0.4 C 42.5 0.8 38.1 0.9 32.4 0.9 C 18.2 0.9 13.2 -1.1 9.9 -5.7 " transform="translate(0.0 38.0)" stroke-dasharray="38.606912603320595" stroke-dashoffset="38.606912603320595"><animate attributeName="stroke-dashoffset" from="38.606912603320595" to="0" dur="1.1582073780996178s" begin="anim3.end" fill="freeze" id="anim4" /></path><path d="M 8.9 -25.4 C 7.5 -26.8 6.2 -27.8 4.8 -28.6 " transform="translate(0.0 38.0)" stroke-dasharray="5.216956418808192" stroke-dashoffset="5.216956418808192"><animate attributeName="stroke-dashoffset" from="5.216956418808192" to="0" dur="0.15650869256424577s" begin="anim4.end" fill="freeze" id="anim5" /></path><path d="M 21.6 -5.6 C 22.3 -5.4 23.1 -5.2 24.1 -5.2 C 26.0 -5.2 27.1 -6.0 27.8 -8.1 C 28.4 -9.8 28.6 -10.9 28.8 -12.9 C 28.9 -14.4 28.1 -15.2 25.9 -15.2 L 20.8 -15.2 " transform="translate(0.0 38.0)" stroke-dasharray="21.992513112072373" stroke-dashoffset="21.992513112072373"><animate attributeName="stroke-dashoffset" from="21.992513112072373" to="0" dur="0.6597753933621712s" begin="anim5.end" fill="freeze" id="anim6" /></path><path d="M 29.9 -20.9 L 14.8 -20.9 " transform="translate(0.0 38.0)" stroke-dasharray="15.099999999999998" stroke-dashoffset="15.099999999999998"><animate attributeName="stroke-dashoffset" from="15.099999999999998" to="0" dur="0.4529999999999999s" begin="anim6.end" fill="freeze" id="anim7" /></path><path d="M 11.2 -35.5 C 9.8 -36.9 8.7 -37.9 7.1 -38.9 " transform="translate(0.0 38.0)" stroke-dasharray="5.339504050256591" stroke-dashoffset="5.339504050256591"><animate attributeName="stroke-dashoffset" from="5.339504050256591" to="0" dur="0.1601851215076977s" begin="anim7.end" fill="freeze" id="anim8" /></path><path d="M 22.4 -20.8 L 22.4 -24.6 " transform="translate(0.0 38.0)" stroke-dasharray="3.8000000000000007" stroke-dashoffset="3.8000000000000007"><animate attributeName="stroke-dashoffset" from="3.8000000000000007" to="0" dur="0.11400000000000002s" begin="anim8.end" fill="freeze" id="anim9" /></path><path d="M 30.2 -28.3 L 14.5 -28.3 " transform="translate(0.0 38.0)" stroke-dasharray="15.7" stroke-dashoffset="15.7"><animate attributeName="stroke-dashoffset" from="15.7" to="0" dur="0.471s" begin="anim9.end" fill="freeze" id="anim10" /></path><path d="M 46.0 -6.0 C 40.0 -11.6 36.2 -19.1 35.0 -28.1 " transform="translate(0.0 38.0)" stroke-dasharray="25.19293409456813" stroke-dashoffset="25.19293409456813"><animate attributeName="stroke-dashoffset" from="25.19293409456813" to="0" dur="0.7557880228370439s" begin="anim10.end" fill="freeze" id="anim11" /></path><path d="M 22.4 -28.4 L 22.4 -40.1 " transform="translate(0.0 38.0)" stroke-dasharray="11.700000000000003" stroke-dashoffset="11.700000000000003"><animate attributeName="stroke-dashoffset" from="11.700000000000003" to="0" dur="0.3510000000000001s" begin="anim11.end" fill="freeze" id="anim12" /></path><path d="M 28.8 -35.1 L 16.4 -35.1 " transform="translate(0.0 38.0)" stroke-dasharray="12.400000000000002" stroke-dashoffset="12.400000000000002"><animate attributeName="stroke-dashoffset" from="12.400000000000002" to="0" dur="0.37200000000000005s" begin="anim12.end" fill="freeze" id="anim13" /></path><path d="M 32.7 -24.1 C 35.2 -28.4 37.3 -34.1 38.3 -39.3 " transform="translate(0.0 38.0)" stroke-dasharray="16.26869504652143" stroke-dashoffset="16.26869504652143"><animate attributeName="stroke-dashoffset" from="16.26869504652143" to="0" dur="0.48806085139564287s" begin="anim13.end" fill="freeze" id="anim14" /></path><path d="M 46.6 -30.9 L 35.5 -30.9" transform="translate(0.0 38.0)" stroke-dasharray="11.100000000000001" stroke-dashoffset="11.100000000000001"><animate attributeName="stroke-dashoffset" from="11.100000000000001" to="0" dur="0.333s" begin="anim14.end" fill="freeze" id="anim_end" /></path></g></svg>