<?xml version='1.0' encoding='utf-8'?>
<svg viewBox="0.0 -6.0 50.0 50.0" version="1.1" xmlns="http://www.w3.org/2000/svg"><rect x="-1000" y="-1000" width="2000" height="2000" stroke="white" fill="white" /><g style="fill:none;stroke:#000000;stroke-width:1"><path d="M 26.0 2.6 L 26.0 -20.8 C 26.0 -23.4 26.9 -24.3 29.8 -24.3 L 44.8 -24.3 " transform="translate(0.0 38.0)" stroke-dasharray="44.48217370733207" stroke-dashoffset="44.48217370733207"><animate attributeName="stroke-dashoffset" from="44.48217370733207" to="0" dur="1.3344652112199622s" begin="0s; anim_end.end" fill="freeze" id="anim0" /></path><path d="M 6.2 2.1 C 12.6 -2.2 16.3 -8.1 18.1 -15.1 " transform="translate(0.0 38.0)" stroke-dasharray="21.41244271114064" stroke-dashoffset="21.41244271114064"><animate attributeName="stroke-dashoffset" from="21.41244271114064" to="0" dur="0.6423732813342191s" begin="anim0.end" fill="freeze" id="anim1" /></path><path d="M 4.5 -10.8 C 9.2 -11.2 13.5 -12.1 18.1 -13.3 " transform="translate(0.0 38.0)" stroke-dasharray="13.845453661615423" stroke-dashoffset="13.845453661615423"><animate attributeName="stroke-dashoffset" from="13.845453661615423" to="0" dur="0.41536360984846266s" begin="anim1.end" fill="freeze" id="anim2" /></path><path d="M 12.7 -18.2 C 10.3 -20.9 8.0 -23.2 6.2 -24.5 " transform="translate(0.0 38.0)" stroke-dasharray="9.067423331020136" stroke-dashoffset="9.067423331020136"><animate attributeName="stroke-dashoffset" from="9.067423331020136" to="0" dur="0.2720226999306041s" begin="anim2.end" fill="freeze" id="anim3" /></path><path d="M 7.1 -10.6 C 11.0 -14.9 14.7 -20.2 17.2 -24.8 " transform="translate(0.0 38.0)" stroke-dasharray="17.46358554173496" stroke-dashoffset="17.46358554173496"><animate attributeName="stroke-dashoffset" from="17.46358554173496" to="0" dur="0.5239075662520488s" begin="anim3.end" fill="freeze" id="anim4" /></path><path d="M 45.6 -0.4 L 26.7 -0.4 " transform="translate(0.0 38.0)" stroke-dasharray="18.900000000000002" stroke-dashoffset="18.900000000000002"><animate attributeName="stroke-dashoffset" from="18.900000000000002" to="0" dur="0.5670000000000001s" begin="anim4.end" fill="freeze" id="anim5" /></path><path d="M 8.2 -23.0 C 9.8 -25.3 11.2 -27.9 12.4 -30.7 " transform="translate(0.0 38.0)" stroke-dasharray="8.785930375892175" stroke-dashoffset="8.785930375892175"><animate attributeName="stroke-dashoffset" from="8.785930375892175" to="0" dur="0.2635779112767652s" begin="anim5.end" fill="freeze" id="anim6" /></path><path d="M 43.3 -8.6 L 26.6 -8.6 " transform="translate(0.0 38.0)" stroke-dasharray="16.699999999999996" stroke-dashoffset="16.699999999999996"><animate attributeName="stroke-dashoffset" from="16.699999999999996" to="0" dur="0.5009999999999999s" begin="anim6.end" fill="freeze" id="anim7" /></path><path d="M 35.3 -0.3 L 35.3 -24.6 " transform="translate(0.0 38.0)" stroke-dasharray="24.3" stroke-dashoffset="24.3"><animate attributeName="stroke-dashoffset" from="24.3" to="0" dur="0.729s" begin="anim7.end" fill="freeze" id="anim8" /></path><path d="M 21.9 -17.2 C 24.6 -20.9 27.3 -25.9 28.8 -30.5 " transform="translate(0.0 38.0)" stroke-dasharray="15.039591058020426" stroke-dashoffset="15.039591058020426"><animate attributeName="stroke-dashoffset" from="15.039591058020426" to="0" dur="0.4511877317406128s" begin="anim8.end" fill="freeze" id="anim9" /></path><path d="M 43.2 -16.6 L 26.6 -16.6 " transform="translate(0.0 38.0)" stroke-dasharray="16.6" stroke-dashoffset="16.6"><animate attributeName="stroke-dashoffset" from="16.6" to="0" dur="0.498s" begin="anim9.end" fill="freeze" id="anim10" /></path><path d="M 45.6 -34.9 L 4.5 -34.9 " transform="translate(0.0 38.0)" stroke-dasharray="41.1" stroke-dashoffset="41.1"><animate attributeName="stroke-dashoffset" from="41.1" to="0" dur="1.233s" begin="anim10.end" fill="freeze" id="anim11" /></path><path d="M 24.8 -35.0 L 24.8 -40.5 " transform="translate(0.0 38.0)" stroke-dasharray="5.5" stroke-dashoffset="5.5"><animate attributeName="stroke-dashoffset" from="5.5" to="0" dur="0.16499999999999998s" begin="anim11.end" fill="freeze" id="anim12" /></path><path d="M 35.1 -24.3 C 36.2 -26.2 37.1 -28.2 37.9 -30.3" transform="translate(0.0 38.0)" stroke-dasharray="6.62839470043048" stroke-dashoffset="6.62839470043048"><animate attributeName="stroke-dashoffset" from="6.62839470043048" to="0" dur="0.1988518410129144s" begin="anim12.end" fill="freeze" id="anim_end" /></path></g></svg>