<?xml version='1.0' encoding='utf-8'?>
<svg viewBox="0.0 -6.0 50.0 50.0" version="1.1" xmlns="http://www.w3.org/2000/svg"><rect x="-1000" y="-1000" width="2000" height="2000" stroke="white" fill="white" /><g style="fill:none;stroke:#000000;stroke-width:1"><path d="M 30.2 -5.3 C 34.5 -9.1 37.1 -14.7 37.1 -22.4 L 37.1 -26.4 " transform="translate(0.0 38.0)" stroke-dasharray="23.03219338889768" stroke-dashoffset="23.03219338889768"><animate attributeName="stroke-dashoffset" from="23.03219338889768" to="0" dur="0.6909658016669304s" begin="0s; 15s; 30s; 45s" fill="freeze" id="anim0" /></path><path d="M 3.5 0.1 C 7.8 -0.6 13.2 -2.1 16.8 -3.6 " transform="translate(0.0 38.0)" stroke-dasharray="13.831206521412087" stroke-dashoffset="13.831206521412087"><animate attributeName="stroke-dashoffset" from="13.831206521412087" to="0" dur="0.41493619564236256s" begin="anim0.end" fill="freeze" id="anim1" /></path><path d="M 5.8 -7.2 C 5.5 -9.1 4.8 -11.0 4.2 -12.3 " transform="translate(0.0 38.0)" stroke-dasharray="5.360927308771486" stroke-dashoffset="5.360927308771486"><animate attributeName="stroke-dashoffset" from="5.360927308771486" to="0" dur="0.16082781926314457s" begin="anim1.end" fill="freeze" id="anim2" /></path><path d="M 18.1 1.1 C 20.6 -0.5 22.8 -2.4 24.6 -4.5 " transform="translate(0.0 38.0)" stroke-dasharray="8.610175095894041" stroke-dashoffset="8.610175095894041"><animate attributeName="stroke-dashoffset" from="8.610175095894041" to="0" dur="0.2583052528768212s" begin="anim2.end" fill="freeze" id="anim3" /></path><path d="M 10.4 -2.4 L 10.4 -27.0 " transform="translate(0.0 38.0)" stroke-dasharray="24.6" stroke-dashoffset="24.6"><animate attributeName="stroke-dashoffset" from="24.6" to="0" dur="0.738s" begin="anim3.end" fill="freeze" id="anim4" /></path><path d="M 14.8 -8.4 C 15.2 -9.5 15.8 -11.0 16.2 -12.8 " transform="translate(0.0 38.0)" stroke-dasharray="4.621470317465913" stroke-dashoffset="4.621470317465913"><animate attributeName="stroke-dashoffset" from="4.621470317465913" to="0" dur="0.13864410952397738s" begin="anim4.end" fill="freeze" id="anim5" /></path><path d="M 16.3 -18.8 L 3.1 -18.8 " transform="translate(0.0 38.0)" stroke-dasharray="13.200000000000001" stroke-dashoffset="13.200000000000001"><animate attributeName="stroke-dashoffset" from="13.200000000000001" to="0" dur="0.396s" begin="anim5.end" fill="freeze" id="anim6" /></path><path d="M 24.4 -3.8 L 24.4 -12.7 C 24.4 -14.7 23.8 -15.3 21.6 -15.3 L 19.6 -15.3 " transform="translate(0.0 38.0)" stroke-dasharray="15.432763220835641" stroke-dashoffset="15.432763220835641"><animate attributeName="stroke-dashoffset" from="15.432763220835641" to="0" dur="0.4629828966250692s" begin="anim6.end" fill="freeze" id="anim7" /></path><path d="M 15.3 -26.9 L 6.4 -26.9 " transform="translate(0.0 38.0)" stroke-dasharray="8.9" stroke-dashoffset="8.9"><animate attributeName="stroke-dashoffset" from="8.9" to="0" dur="0.267s" begin="anim7.end" fill="freeze" id="anim8" /></path><path d="M 47.3 0.3 C 44.9 0.6 41.9 0.7 38.4 0.7 C 30.4 0.7 27.0 -1.1 24.3 -5.0 " transform="translate(0.0 38.0)" stroke-dasharray="24.864031142486464" stroke-dashoffset="24.864031142486464"><animate attributeName="stroke-dashoffset" from="24.864031142486464" to="0" dur="0.7459209342745939s" begin="anim8.end" fill="freeze" id="anim9" /></path><path d="M 2.8 -29.2 C 5.8 -31.9 8.9 -35.8 11.1 -39.5 " transform="translate(0.0 38.0)" stroke-dasharray="13.273465904889909" stroke-dashoffset="13.273465904889909"><animate attributeName="stroke-dashoffset" from="13.273465904889909" to="0" dur="0.39820397714669725s" begin="anim9.end" fill="freeze" id="anim10" /></path><path d="M 23.9 -23.9 C 22.7 -25.1 21.6 -26.1 20.4 -27.1 " transform="translate(0.0 38.0)" stroke-dasharray="4.744065541751282" stroke-dashoffset="4.744065541751282"><animate attributeName="stroke-dashoffset" from="4.744065541751282" to="0" dur="0.14232196625253846s" begin="anim10.end" fill="freeze" id="anim11" /></path><path d="M 16.8 -32.3 C 15.2 -34.1 13.0 -36.1 11.2 -37.5 " transform="translate(0.0 38.0)" stroke-dasharray="7.651359867560691" stroke-dashoffset="7.651359867560691"><animate attributeName="stroke-dashoffset" from="7.651359867560691" to="0" dur="0.22954079602682073s" begin="anim11.end" fill="freeze" id="anim12" /></path><path d="M 44.1 -6.8 C 42.4 -9.2 39.6 -11.7 36.9 -13.4 " transform="translate(0.0 38.0)" stroke-dasharray="9.82347580973689" stroke-dashoffset="9.82347580973689"><animate attributeName="stroke-dashoffset" from="9.82347580973689" to="0" dur="0.29470427429210666s" begin="anim12.end" fill="freeze" id="anim13" /></path><path d="M 45.5 -18.6 L 29.4 -18.6 " transform="translate(0.0 38.0)" stroke-dasharray="16.1" stroke-dashoffset="16.1"><animate attributeName="stroke-dashoffset" from="16.1" to="0" dur="0.48300000000000004s" begin="anim13.end" fill="freeze" id="anim14" /></path><path d="M 24.9 -34.9 C 23.9 -36.0 22.8 -37.0 21.6 -38.0 " transform="translate(0.0 38.0)" stroke-dasharray="4.531364341713935" stroke-dashoffset="4.531364341713935"><animate attributeName="stroke-dashoffset" from="4.531364341713935" to="0" dur="0.13594093025141804s" begin="anim14.end" fill="freeze" id="anim15" /></path><path d="M 28.3 -27.7 C 30.1 -29.9 31.5 -32.5 32.4 -34.8 " transform="translate(0.0 38.0)" stroke-dasharray="8.230762216176634" stroke-dashoffset="8.230762216176634"><animate attributeName="stroke-dashoffset" from="8.230762216176634" to="0" dur="0.24692286648529901s" begin="anim15.end" fill="freeze" id="anim16" /></path><path d="M 42.3 -26.8 L 32.5 -26.8 " transform="translate(0.0 38.0)" stroke-dasharray="9.799999999999997" stroke-dashoffset="9.799999999999997"><animate attributeName="stroke-dashoffset" from="9.799999999999997" to="0" dur="0.29399999999999993s" begin="anim16.end" fill="freeze" id="anim17" /></path><path d="M 46.6 -28.8 C 44.8 -31.0 43.0 -33.9 42.0 -36.4 C 41.5 -37.9 40.5 -38.4 39.0 -38.4 L 35.1 -38.4" transform="translate(0.0 38.0)" stroke-dasharray="16.731113494258246" stroke-dashoffset="16.731113494258246"><animate attributeName="stroke-dashoffset" from="16.731113494258246" to="0" dur="0.5019334048277474s" begin="anim17.end" fill="freeze" id="anim_end" /></path></g></svg>