<?xml version='1.0' encoding='utf-8'?>
<svg viewBox="0.0 -6.0 50.0 50.0" version="1.1" xmlns="http://www.w3.org/2000/svg"><rect x="-1000" y="-1000" width="2000" height="2000" stroke="white" fill="white" /><g style="fill:none;stroke:#000000;stroke-width:1"><path d="M 3.2 -28.2 C 6.8 -31.1 10.5 -35.2 13.2 -39.5 " transform="translate(0.0 38.0)" stroke-dasharray="15.154244474669522" stroke-dashoffset="15.154244474669522"><animate attributeName="stroke-dashoffset" from="15.154244474669522" to="0" dur="0.4546273342400856s" begin="0s; 15s; 30s; 45s" fill="freeze" id="anim0" /></path><path d="M 4.3 -1.1 C 9.1 -1.8 15.7 -3.2 19.9 -4.7 " transform="translate(0.0 38.0)" stroke-dasharray="16.03103553545851" stroke-dashoffset="16.03103553545851"><animate attributeName="stroke-dashoffset" from="16.03103553545851" to="0" dur="0.4809310660637553s" begin="anim0.end" fill="freeze" id="anim1" /></path><path d="M 7.5 -7.8 C 7.0 -9.4 6.2 -11.3 5.4 -12.7 " transform="translate(0.0 38.0)" stroke-dasharray="5.34018424750145" stroke-dashoffset="5.34018424750145"><animate attributeName="stroke-dashoffset" from="5.34018424750145" to="0" dur="0.16020552742504351s" begin="anim1.end" fill="freeze" id="anim2" /></path><path d="M 12.4 -3.0 L 12.4 -26.2 " transform="translate(0.0 38.0)" stroke-dasharray="23.2" stroke-dashoffset="23.2"><animate attributeName="stroke-dashoffset" from="23.2" to="0" dur="0.696s" begin="anim2.end" fill="freeze" id="anim3" /></path><path d="M 17.2 -8.9 C 17.9 -10.2 18.4 -11.8 19.0 -13.4 " transform="translate(0.0 38.0)" stroke-dasharray="4.850822317166033" stroke-dashoffset="4.850822317166033"><animate attributeName="stroke-dashoffset" from="4.850822317166033" to="0" dur="0.14552466951498097s" begin="anim3.end" fill="freeze" id="anim4" /></path><path d="M 19.9 -18.6 L 4.0 -18.6 " transform="translate(0.0 38.0)" stroke-dasharray="15.899999999999999" stroke-dashoffset="15.899999999999999"><animate attributeName="stroke-dashoffset" from="15.899999999999999" to="0" dur="0.4769999999999999s" begin="anim4.end" fill="freeze" id="anim5" /></path><path d="M 46.5 -0.1 L 21.2 -0.1 " transform="translate(0.0 38.0)" stroke-dasharray="25.3" stroke-dashoffset="25.3"><animate attributeName="stroke-dashoffset" from="25.3" to="0" dur="0.759s" begin="anim5.end" fill="freeze" id="anim6" /></path><path d="M 17.6 -26.1 L 7.5 -26.1 " transform="translate(0.0 38.0)" stroke-dasharray="10.100000000000001" stroke-dashoffset="10.100000000000001"><animate attributeName="stroke-dashoffset" from="10.100000000000001" to="0" dur="0.30300000000000005s" begin="anim6.end" fill="freeze" id="anim7" /></path><path d="M 19.8 -31.4 C 18.1 -33.5 15.7 -35.7 13.3 -37.4 " transform="translate(0.0 38.0)" stroke-dasharray="8.871471981519583" stroke-dashoffset="8.871471981519583"><animate attributeName="stroke-dashoffset" from="8.871471981519583" to="0" dur="0.2661441594455875s" begin="anim7.end" fill="freeze" id="anim8" /></path><path d="M 43.0 -8.1 C 42.2 -9.7 40.9 -11.8 39.9 -13.1 " transform="translate(0.0 38.0)" stroke-dasharray="5.890282727161384" stroke-dashoffset="5.890282727161384"><animate attributeName="stroke-dashoffset" from="5.890282727161384" to="0" dur="0.1767084818148415s" begin="anim8.end" fill="freeze" id="anim9" /></path><path d="M 33.5 -0.2 L 33.5 -36.6 " transform="translate(0.0 38.0)" stroke-dasharray="36.4" stroke-dashoffset="36.4"><animate attributeName="stroke-dashoffset" from="36.4" to="0" dur="1.0919999999999999s" begin="anim9.end" fill="freeze" id="anim10" /></path><path d="M 43.1 -20.2 L 25.1 -20.2 " transform="translate(0.0 38.0)" stroke-dasharray="18.0" stroke-dashoffset="18.0"><animate attributeName="stroke-dashoffset" from="18.0" to="0" dur="0.54s" begin="anim10.end" fill="freeze" id="anim11" /></path><path d="M 45.5 -36.8 L 23.0 -36.8" transform="translate(0.0 38.0)" stroke-dasharray="22.5" stroke-dashoffset="22.5"><animate attributeName="stroke-dashoffset" from="22.5" to="0" dur="0.6749999999999999s" begin="anim11.end" fill="freeze" id="anim_end" /></path></g></svg>