<?xml version='1.0' encoding='utf-8'?>
<svg viewBox="0.0 -6.0 50.0 50.0" version="1.1" xmlns="http://www.w3.org/2000/svg"><rect x="-1000" y="-1000" width="2000" height="2000" stroke="white" fill="white" /><g style="fill:none;stroke:#000000;stroke-width:1"><path d="M 18.1 1.8 C 21.8 -3.9 23.2 -10.3 23.2 -24.4 L 23.2 -31.9 C 23.2 -34.3 24.2 -35.4 27.3 -35.4 L 46.3 -35.4 " transform="translate(0.0 38.0)" stroke-dasharray="59.86304195915225" stroke-dashoffset="59.86304195915225"><animate attributeName="stroke-dashoffset" from="59.86304195915225" to="0" dur="1.7958912587745675s" begin="0s; 15s; 30s; 45s" fill="freeze" id="anim0" /></path><path d="M 4.0 -1.4 C 8.6 -1.9 14.4 -3.2 17.8 -4.5 " transform="translate(0.0 38.0)" stroke-dasharray="14.174638548359814" stroke-dashoffset="14.174638548359814"><animate attributeName="stroke-dashoffset" from="14.174638548359814" to="0" dur="0.4252391564507944s" begin="anim0.end" fill="freeze" id="anim1" /></path><path d="M 6.7 -7.8 C 6.3 -9.5 5.5 -11.4 4.8 -12.8 " transform="translate(0.0 38.0)" stroke-dasharray="5.359816275524974" stroke-dashoffset="5.359816275524974"><animate attributeName="stroke-dashoffset" from="5.359816275524974" to="0" dur="0.1607944882657492s" begin="anim1.end" fill="freeze" id="anim2" /></path><path d="M 11.4 -2.9 L 11.4 -26.5 " transform="translate(0.0 38.0)" stroke-dasharray="23.6" stroke-dashoffset="23.6"><animate attributeName="stroke-dashoffset" from="23.6" to="0" dur="0.708s" begin="anim2.end" fill="freeze" id="anim3" /></path><path d="M 16.0 -9.0 C 16.6 -10.2 17.1 -11.9 17.6 -13.7 " transform="translate(0.0 38.0)" stroke-dasharray="4.971811734306892" stroke-dashoffset="4.971811734306892"><animate attributeName="stroke-dashoffset" from="4.971811734306892" to="0" dur="0.14915435202920677s" begin="anim3.end" fill="freeze" id="anim4" /></path><path d="M 18.0 -18.9 L 3.5 -18.9 " transform="translate(0.0 38.0)" stroke-dasharray="14.5" stroke-dashoffset="14.5"><animate attributeName="stroke-dashoffset" from="14.5" to="0" dur="0.435s" begin="anim4.end" fill="freeze" id="anim5" /></path><path d="M 16.5 -26.4 L 7.0 -26.4 " transform="translate(0.0 38.0)" stroke-dasharray="9.5" stroke-dashoffset="9.5"><animate attributeName="stroke-dashoffset" from="9.5" to="0" dur="0.285s" begin="anim5.end" fill="freeze" id="anim6" /></path><path d="M 25.0 1.9 C 32.1 0.1 39.0 -4.5 42.5 -10.3 C 43.8 -12.3 42.9 -13.8 40.6 -13.8 L 27.9 -13.8 " transform="translate(0.0 38.0)" stroke-dasharray="39.829912613851725" stroke-dashoffset="39.829912613851725"><animate attributeName="stroke-dashoffset" from="39.829912613851725" to="0" dur="1.1948973784155517s" begin="anim6.end" fill="freeze" id="anim7" /></path><path d="M 3.0 -28.7 C 6.4 -31.4 9.8 -35.5 12.2 -39.5 " transform="translate(0.0 38.0)" stroke-dasharray="14.257053190505394" stroke-dashoffset="14.257053190505394"><animate attributeName="stroke-dashoffset" from="14.257053190505394" to="0" dur="0.4277115957151618s" begin="anim7.end" fill="freeze" id="anim8" /></path><path d="M 46.4 1.4 C 38.6 -1.1 32.6 -6.7 30.4 -13.4 " transform="translate(0.0 38.0)" stroke-dasharray="22.60811321469591" stroke-dashoffset="22.60811321469591"><animate attributeName="stroke-dashoffset" from="22.60811321469591" to="0" dur="0.6782433964408773s" begin="anim8.end" fill="freeze" id="anim9" /></path><path d="M 18.2 -32.0 C 16.6 -34.0 14.2 -36.1 12.1 -37.6 " transform="translate(0.0 38.0)" stroke-dasharray="8.30415582541101" stroke-dashoffset="8.30415582541101"><animate attributeName="stroke-dashoffset" from="8.30415582541101" to="0" dur="0.2491246747623303s" begin="anim9.end" fill="freeze" id="anim10" /></path><path d="M 31.6 -30.9 L 31.6 -22.5 C 31.6 -20.3 32.5 -19.6 34.4 -19.6 L 38.0 -19.6 C 39.9 -19.6 40.8 -20.4 40.8 -22.5 L 40.8 -30.9 " transform="translate(0.0 38.0)" stroke-dasharray="29.77417213150025" stroke-dashoffset="29.77417213150025"><animate attributeName="stroke-dashoffset" from="29.77417213150025" to="0" dur="0.8932251639450075s" begin="anim10.end" fill="freeze" id="anim11" /></path><path d="M 46.8 -26.4 L 23.6 -26.4 " transform="translate(0.0 38.0)" stroke-dasharray="23.199999999999996" stroke-dashoffset="23.199999999999996"><animate attributeName="stroke-dashoffset" from="23.199999999999996" to="0" dur="0.6959999999999998s" begin="anim11.end" fill="freeze" id="anim12" /></path><path d="M 34.6 -35.2 L 34.6 -40.2" transform="translate(0.0 38.0)" stroke-dasharray="5.0" stroke-dashoffset="5.0"><animate attributeName="stroke-dashoffset" from="5.0" to="0" dur="0.15s" begin="anim12.end" fill="freeze" id="anim_end" /></path></g></svg>