<?xml version='1.0' encoding='utf-8'?>
<svg viewBox="0.0 -6.0 50.0 50.0" version="1.1" xmlns="http://www.w3.org/2000/svg"><rect x="-1000" y="-1000" width="2000" height="2000" stroke="white" fill="white" /><g style="fill:none;stroke:#000000;stroke-width:1"><path d="M 22.9 -23.1 L 36.7 -23.1 C 39.3 -23.1 40.3 -24.2 40.3 -26.2 L 40.3 -35.6 C 40.3 -37.6 39.3 -38.6 36.6 -38.6 L 26.2 -38.6 C 23.6 -38.6 22.6 -37.6 22.6 -35.6 L 22.6 -7.9 " transform="translate(0.0 38.0)" stroke-dasharray="77.68245771233782" stroke-dashoffset="77.68245771233782"><animate attributeName="stroke-dashoffset" from="77.68245771233782" to="0" dur="2.3304737313701347s" begin="0s" fill="freeze" /></path><path d="M 3.9 0.9 C 6.5 -0.8 9.2 -3.2 11.2 -5.8 " transform="translate(0.0 38.0)" stroke-dasharray="9.952513192659149" stroke-dashoffset="9.952513192659149"><animate attributeName="stroke-dashoffset" from="9.952513192659149" to="0" dur="0.29857539577977443s" begin="2.3304737313701347s" fill="freeze" /></path><path d="M 11.3 -5.0 L 11.3 -17.1 C 11.3 -19.1 10.7 -19.9 8.2 -19.9 L 4.0 -19.9 " transform="translate(0.0 38.0)" stroke-dasharray="21.229006787556642" stroke-dashoffset="21.229006787556642"><animate attributeName="stroke-dashoffset" from="21.229006787556642" to="0" dur="0.6368702036266992s" begin="2.629049127149909s" fill="freeze" /></path><path d="M 46.4 -0.3 C 42.3 0.1 38.2 0.2 32.6 0.2 C 19.4 0.2 14.8 -1.6 11.6 -6.5 " transform="translate(0.0 38.0)" stroke-dasharray="36.896608510970594" stroke-dashoffset="36.896608510970594"><animate attributeName="stroke-dashoffset" from="36.896608510970594" to="0" dur="1.1068982553291178s" begin="3.265919330776608s" fill="freeze" /></path><path d="M 18.6 -7.2 C 24.4 -8.2 30.7 -9.9 37.0 -12.3 " transform="translate(0.0 38.0)" stroke-dasharray="19.122889971301834" stroke-dashoffset="19.122889971301834"><animate attributeName="stroke-dashoffset" from="19.122889971301834" to="0" dur="0.573686699139055s" begin="4.372817586105726s" fill="freeze" /></path><path d="M 11.9 -33.2 C 10.7 -34.7 8.6 -36.6 7.0 -37.6 " transform="translate(0.0 38.0)" stroke-dasharray="6.610295371764659" stroke-dashoffset="6.610295371764659"><animate attributeName="stroke-dashoffset" from="6.610295371764659" to="0" dur="0.19830886115293975s" begin="4.946504285244782s" fill="freeze" /></path><path d="M 42.6 -6.3 C 39.2 -10.2 33.8 -14.9 29.6 -17.9 " transform="translate(0.0 38.0)" stroke-dasharray="17.455819965710848" stroke-dashoffset="17.455819965710848"><animate attributeName="stroke-dashoffset" from="17.455819965710848" to="0" dur="0.5236745989713254s" begin="5.144813146397722s" fill="freeze" /></path><path d="M 35.8 -14.2 C 38.9 -16.0 42.4 -18.7 44.5 -20.6 " transform="translate(0.0 38.0)" stroke-dasharray="10.817064832347107" stroke-dashoffset="10.817064832347107"><animate attributeName="stroke-dashoffset" from="10.817064832347107" to="0" dur="0.3245119449704132s" begin="5.668487745369047s" fill="freeze" /></path><path d="M 40.0 -30.9 L 22.7 -30.9" transform="translate(0.0 38.0)" stroke-dasharray="17.3" stroke-dashoffset="17.3"><animate attributeName="stroke-dashoffset" from="17.3" to="0" dur="0.519s" begin="5.9929996903394605s" fill="freeze" /></path></g></svg>