<?xml version='1.0' encoding='utf-8'?>
<svg viewBox="0.0 -6.0 50.0 50.0" version="1.1" xmlns="http://www.w3.org/2000/svg"><rect x="-1000" y="-1000" width="2000" height="2000" stroke="white" fill="white" /><g style="fill:none;stroke:#000000;stroke-width:1"><path d="M 22.8 1.9 C 31.6 -1.1 40.0 -8.4 43.5 -17.6 " transform="translate(0.0 38.0)" stroke-dasharray="29.320589489991324" stroke-dashoffset="29.320589489991324"><animate attributeName="stroke-dashoffset" from="29.320589489991324" to="0" dur="0.8796176846997397s" begin="0s" fill="freeze" /></path><path d="M 4.2 -0.8 C 9.1 -1.2 15.6 -2.5 19.9 -4.0 " transform="translate(0.0 38.0)" stroke-dasharray="16.05813635318834" stroke-dashoffset="16.05813635318834"><animate attributeName="stroke-dashoffset" from="16.05813635318834" to="0" dur="0.48174409059565015s" begin="0.8796176846997397s" fill="freeze" /></path><path d="M 7.2 -7.3 C 6.8 -9.0 6.0 -10.9 5.2 -12.2 " transform="translate(0.0 38.0)" stroke-dasharray="5.312366148894571" stroke-dashoffset="5.312366148894571"><animate attributeName="stroke-dashoffset" from="5.312366148894571" to="0" dur="0.15937098446683715s" begin="1.3613617752953897s" fill="freeze" /></path><path d="M 12.1 -2.5 L 12.1 -26.1 " transform="translate(0.0 38.0)" stroke-dasharray="23.6" stroke-dashoffset="23.6"><animate attributeName="stroke-dashoffset" from="23.6" to="0" dur="0.708s" begin="1.5207327597622269s" fill="freeze" /></path><path d="M 16.9 -8.5 C 17.5 -9.8 18.1 -11.4 18.6 -13.1 " transform="translate(0.0 38.0)" stroke-dasharray="4.908265456390707" stroke-dashoffset="4.908265456390707"><animate attributeName="stroke-dashoffset" from="4.908265456390707" to="0" dur="0.1472479636917212s" begin="2.228732759762227s" fill="freeze" /></path><path d="M 19.2 -18.5 L 3.9 -18.5 " transform="translate(0.0 38.0)" stroke-dasharray="15.299999999999999" stroke-dashoffset="15.299999999999999"><animate attributeName="stroke-dashoffset" from="15.299999999999999" to="0" dur="0.45899999999999996s" begin="2.375980723453948s" fill="freeze" /></path><path d="M 17.4 -26.1 L 7.2 -26.1 " transform="translate(0.0 38.0)" stroke-dasharray="10.2" stroke-dashoffset="10.2"><animate attributeName="stroke-dashoffset" from="10.2" to="0" dur="0.306s" begin="2.834980723453948s" fill="freeze" /></path><path d="M 3.1 -28.4 C 6.7 -31.3 10.2 -35.4 12.7 -39.5 " transform="translate(0.0 38.0)" stroke-dasharray="14.743480756846328" stroke-dashoffset="14.743480756846328"><animate attributeName="stroke-dashoffset" from="14.743480756846328" to="0" dur="0.44230442270538983s" begin="3.140980723453948s" fill="freeze" /></path><path d="M 19.1 -31.6 C 17.5 -33.6 15.1 -35.8 12.8 -37.4 " transform="translate(0.0 38.0)" stroke-dasharray="8.589881603654437" stroke-dashoffset="8.589881603654437"><animate attributeName="stroke-dashoffset" from="8.589881603654437" to="0" dur="0.2576964481096331s" begin="3.583285146159338s" fill="freeze" /></path><path d="M 23.6 -21.4 C 25.4 -23.8 27.2 -27.2 28.3 -30.2 " transform="translate(0.0 38.0)" stroke-dasharray="10.007884592173582" stroke-dashoffset="10.007884592173582"><animate attributeName="stroke-dashoffset" from="10.007884592173582" to="0" dur="0.3002365377652074s" begin="3.840981594268971s" fill="freeze" /></path><path d="M 29.7 -14.4 C 30.6 -14.2 31.4 -14.2 32.2 -14.2 C 34.0 -14.2 35.2 -14.9 35.2 -17.3 L 35.2 -40.0 " transform="translate(0.0 38.0)" stroke-dasharray="30.199095283956954" stroke-dashoffset="30.199095283956954"><animate attributeName="stroke-dashoffset" from="30.199095283956954" to="0" dur="0.9059728585187086s" begin="4.1412181320341785s" fill="freeze" /></path><path d="M 46.7 -25.2 C 45.2 -27.2 43.3 -29.5 41.8 -30.9" transform="translate(0.0 38.0)" stroke-dasharray="7.524833559178056" stroke-dashoffset="7.524833559178056"><animate attributeName="stroke-dashoffset" from="7.524833559178056" to="0" dur="0.22574500677534168s" begin="5.047190990552887s" fill="freeze" /></path></g></svg>