<?xml version='1.0' encoding='utf-8'?>
<svg viewBox="0.0 -6.0 50.0 50.0" version="1.1" xmlns="http://www.w3.org/2000/svg"><rect x="-1000" y="-1000" width="2000" height="2000" stroke="white" fill="white" /><g style="fill:none;stroke:#000000;stroke-width:1"><path d="M 13.7 -15.7 L 13.7 -2.8 C 13.7 0.8 15.3 1.4 29.4 1.4 C 44.0 1.4 46.0 0.8 46.6 -4.2 " transform="translate(0.0 38.0)" stroke-dasharray="50.95839417041633" stroke-dashoffset="50.95839417041633"><animate attributeName="stroke-dashoffset" from="50.95839417041633" to="0" dur="1.5287518251124896s" begin="0s" fill="freeze" /></path><path d="M 3.3 1.4 C 6.2 -2.5 8.2 -8.7 8.6 -15.2 " transform="translate(0.0 38.0)" stroke-dasharray="17.64782739897548" stroke-dashoffset="17.64782739897548"><animate attributeName="stroke-dashoffset" from="17.64782739897548" to="0" dur="0.5294348219692644s" begin="1.5287518251124896s" fill="freeze" /></path><path d="M 16.3 -5.0 C 18.1 -5.2 20.5 -5.7 23.1 -6.2 " transform="translate(0.0 38.0)" stroke-dasharray="6.906736323708352" stroke-dashoffset="6.906736323708352"><animate attributeName="stroke-dashoffset" from="6.906736323708352" to="0" dur="0.20720208971125056s" begin="2.058186647081754s" fill="freeze" /></path><path d="M 17.4 -5.8 C 18.2 -8.6 18.9 -11.6 19.4 -14.2 " transform="translate(0.0 38.0)" stroke-dasharray="8.637471034276865" stroke-dashoffset="8.637471034276865"><animate attributeName="stroke-dashoffset" from="8.637471034276865" to="0" dur="0.25912413102830595s" begin="2.2653887367930046s" fill="freeze" /></path><path d="M 23.7 -5.3 C 23.2 -6.9 22.6 -8.4 21.9 -9.8 " transform="translate(0.0 38.0)" stroke-dasharray="4.8518763197622885" stroke-dashoffset="4.8518763197622885"><animate attributeName="stroke-dashoffset" from="4.8518763197622885" to="0" dur="0.14555628959286865s" begin="2.5245128678213105s" fill="freeze" /></path><path d="M 19.9 -22.8 L 19.9 -31.9 C 19.9 -34.0 19.1 -35.0 16.6 -35.0 L 8.3 -35.0 C 5.8 -35.0 5.0 -34.0 5.0 -31.9 L 5.0 -22.8 C 5.0 -20.7 5.8 -19.8 8.3 -19.8 L 16.6 -19.8 C 19.1 -19.8 19.9 -20.7 19.9 -22.8 Z " transform="translate(0.0 38.0)" stroke-dasharray="55.774367721739004" stroke-dashoffset="55.774367721739004"><animate attributeName="stroke-dashoffset" from="55.774367721739004" to="0" dur="1.6732310316521701s" begin="2.6700691574141793s" fill="freeze" /></path><path d="M 12.2 -20.8 L 12.2 -34.9 " transform="translate(0.0 38.0)" stroke-dasharray="14.099999999999998" stroke-dashoffset="14.099999999999998"><animate attributeName="stroke-dashoffset" from="14.099999999999998" to="0" dur="0.42299999999999993s" begin="4.343300189066349s" fill="freeze" /></path><path d="M 20.9 -27.5 L 5.8 -27.5 " transform="translate(0.0 38.0)" stroke-dasharray="15.099999999999998" stroke-dashoffset="15.099999999999998"><animate attributeName="stroke-dashoffset" from="15.099999999999998" to="0" dur="0.4529999999999999s" begin="4.7663001890663494s" fill="freeze" /></path><path d="M 30.4 -9.2 C 33.5 -9.5 36.0 -9.9 39.5 -10.7 " transform="translate(0.0 38.0)" stroke-dasharray="9.23002072693476" stroke-dashoffset="9.23002072693476"><animate attributeName="stroke-dashoffset" from="9.23002072693476" to="0" dur="0.27690062180804276s" begin="5.21930018906635s" fill="freeze" /></path><path d="M 39.6 -4.8 C 40.4 -4.7 40.9 -4.7 41.5 -4.7 C 43.6 -4.7 44.6 -5.4 44.6 -7.4 L 44.6 -14.9 C 44.6 -17.0 43.8 -17.8 41.4 -17.8 L 29.6 -17.8 C 27.1 -17.8 26.3 -17.0 26.3 -14.9 L 26.3 -3.4 " transform="translate(0.0 38.0)" stroke-dasharray="47.68308202134677" stroke-dashoffset="47.68308202134677"><animate attributeName="stroke-dashoffset" from="47.68308202134677" to="0" dur="1.430492460640403s" begin="5.4962008108743925s" fill="freeze" /></path><path d="M 31.9 -9.3 C 33.3 -13.3 34.5 -17.9 35.0 -22.6 " transform="translate(0.0 38.0)" stroke-dasharray="13.686295888861604" stroke-dashoffset="13.686295888861604"><animate attributeName="stroke-dashoffset" from="13.686295888861604" to="0" dur="0.4105888766658481s" begin="6.926693271514796s" fill="freeze" /></path><path d="M 10.5 -34.6 C 11.3 -36.5 11.8 -38.4 12.2 -40.1 " transform="translate(0.0 38.0)" stroke-dasharray="5.763743820337945" stroke-dashoffset="5.763743820337945"><animate attributeName="stroke-dashoffset" from="5.763743820337945" to="0" dur="0.17291231461013834s" begin="7.337282148180644s" fill="freeze" /></path><path d="M 40.5 -9.3 C 39.9 -10.8 38.9 -12.8 38.1 -14.1 " transform="translate(0.0 38.0)" stroke-dasharray="5.371870089319147" stroke-dashoffset="5.371870089319147"><animate attributeName="stroke-dashoffset" from="5.371870089319147" to="0" dur="0.16115610267957442s" begin="7.510194462790782s" fill="freeze" /></path><path d="M 27.4 -31.8 L 27.4 -26.0 C 27.4 -24.0 28.3 -23.1 30.7 -23.1 L 40.0 -23.1 C 42.4 -23.1 43.3 -24.0 43.3 -26.0 L 43.3 -31.8 " transform="translate(0.0 38.0)" stroke-dasharray="31.09802799063238" stroke-dashoffset="31.09802799063238"><animate attributeName="stroke-dashoffset" from="31.09802799063238" to="0" dur="0.9329408397189715s" begin="7.671350565470356s" fill="freeze" /></path><path d="M 31.6 -26.4 C 33.7 -27.9 36.3 -30.2 38.3 -32.9 " transform="translate(0.0 38.0)" stroke-dasharray="9.370730152108633" stroke-dashoffset="9.370730152108633"><animate attributeName="stroke-dashoffset" from="9.370730152108633" to="0" dur="0.281121904563259s" begin="8.604291405189327s" fill="freeze" /></path><path d="M 38.6 -27.5 C 36.8 -29.0 33.9 -30.9 32.3 -31.9 " transform="translate(0.0 38.0)" stroke-dasharray="7.689221611096583" stroke-dashoffset="7.689221611096583"><animate attributeName="stroke-dashoffset" from="7.689221611096583" to="0" dur="0.23067664833289747s" begin="8.885413309752586s" fill="freeze" /></path><path d="M 46.2 -36.2 L 24.8 -36.2 " transform="translate(0.0 38.0)" stroke-dasharray="21.400000000000002" stroke-dashoffset="21.400000000000002"><animate attributeName="stroke-dashoffset" from="21.400000000000002" to="0" dur="0.642s" begin="9.116089958085484s" fill="freeze" /></path><path d="M 35.2 -35.8 L 35.2 -40.3" transform="translate(0.0 38.0)" stroke-dasharray="4.5" stroke-dashoffset="4.5"><animate attributeName="stroke-dashoffset" from="4.5" to="0" dur="0.135s" begin="9.758089958085483s" fill="freeze" /></path></g></svg>