<?xml version='1.0' encoding='utf-8'?>
<svg viewBox="0.0 -6.0 50.0 50.0" version="1.1" xmlns="http://www.w3.org/2000/svg"><rect x="-1000" y="-1000" width="2000" height="2000" stroke="white" fill="white" /><g style="fill:none;stroke:#000000;stroke-width:1"><path d="M 28.0 -19.4 L 39.4 -19.4 C 42.2 -19.4 43.1 -20.2 43.1 -22.2 L 43.1 -28.1 C 43.1 -30.1 42.1 -30.9 39.4 -30.9 L 28.0 -30.9 C 25.2 -30.9 24.2 -30.1 24.2 -28.1 L 24.2 -22.2 C 24.2 -20.2 25.2 -19.4 28.0 -19.4 Z " transform="translate(0.0 38.0)" stroke-dasharray="56.33123157416425" stroke-dashoffset="56.33123157416425"><animate attributeName="stroke-dashoffset" from="56.33123157416425" to="0" dur="1.6899369472249275s" begin="0s; 15s; 30s; 45s" fill="freeze" id="anim0" /></path><path d="M 3.5 -0.6 C 8.0 -1.3 13.9 -2.7 18.3 -4.5 " transform="translate(0.0 38.0)" stroke-dasharray="15.335692563843665" stroke-dashoffset="15.335692563843665"><animate attributeName="stroke-dashoffset" from="15.335692563843665" to="0" dur="0.46007077691530995s" begin="anim0.end" fill="freeze" id="anim1" /></path><path d="M 6.5 -7.1 C 6.2 -9.0 5.2 -11.4 4.5 -12.7 " transform="translate(0.0 38.0)" stroke-dasharray="5.969300949052965" stroke-dashoffset="5.969300949052965"><animate attributeName="stroke-dashoffset" from="5.969300949052965" to="0" dur="0.17907902847158894s" begin="anim1.end" fill="freeze" id="anim2" /></path><path d="M 21.4 -0.6 C 22.5 -2.1 23.4 -4.2 23.9 -6.2 " transform="translate(0.0 38.0)" stroke-dasharray="6.168081772852727" stroke-dashoffset="6.168081772852727"><animate attributeName="stroke-dashoffset" from="6.168081772852727" to="0" dur="0.1850424531855818s" begin="anim2.end" fill="freeze" id="anim3" /></path><path d="M 11.2 -2.9 L 11.2 -26.4 " transform="translate(0.0 38.0)" stroke-dasharray="23.5" stroke-dashoffset="23.5"><animate attributeName="stroke-dashoffset" from="23.5" to="0" dur="0.705s" begin="anim3.end" fill="freeze" id="anim4" /></path><path d="M 15.6 -8.4 C 16.2 -9.7 16.9 -11.6 17.5 -13.4 " transform="translate(0.0 38.0)" stroke-dasharray="5.351180309050593" stroke-dashoffset="5.351180309050593"><animate attributeName="stroke-dashoffset" from="5.351180309050593" to="0" dur="0.1605354092715178s" begin="anim4.end" fill="freeze" id="anim5" /></path><path d="M 18.1 -18.8 L 3.3 -18.8 " transform="translate(0.0 38.0)" stroke-dasharray="14.8" stroke-dashoffset="14.8"><animate attributeName="stroke-dashoffset" from="14.8" to="0" dur="0.444s" begin="anim5.end" fill="freeze" id="anim6" /></path><path d="M 40.2 -2.5 C 39.8 0.7 38.5 1.7 33.7 1.7 C 29.7 1.7 28.8 0.9 28.8 -1.6 L 28.8 -6.7 " transform="translate(0.0 38.0)" stroke-dasharray="20.88243754883732" stroke-dashoffset="20.88243754883732"><animate attributeName="stroke-dashoffset" from="20.88243754883732" to="0" dur="0.6264731264651195s" begin="anim6.end" fill="freeze" id="anim7" /></path><path d="M 16.6 -26.4 L 6.5 -26.4 " transform="translate(0.0 38.0)" stroke-dasharray="10.100000000000001" stroke-dashoffset="10.100000000000001"><animate attributeName="stroke-dashoffset" from="10.100000000000001" to="0" dur="0.30300000000000005s" begin="anim7.end" fill="freeze" id="anim8" /></path><path d="M 3.0 -28.9 C 6.2 -31.6 9.5 -35.6 11.8 -39.5 " transform="translate(0.0 38.0)" stroke-dasharray="13.836144581889453" stroke-dashoffset="13.836144581889453"><animate attributeName="stroke-dashoffset" from="13.836144581889453" to="0" dur="0.41508433745668355s" begin="anim8.end" fill="freeze" id="anim9" /></path><path d="M 36.1 -6.8 C 35.4 -7.8 34.2 -8.9 33.2 -9.6 " transform="translate(0.0 38.0)" stroke-dasharray="4.048668113316205" stroke-dashoffset="4.048668113316205"><animate attributeName="stroke-dashoffset" from="4.048668113316205" to="0" dur="0.12146004339948613s" begin="anim9.end" fill="freeze" id="anim10" /></path><path d="M 22.6 -12.7 C 28.8 -12.9 36.5 -13.6 42.7 -14.8 " transform="translate(0.0 38.0)" stroke-dasharray="20.22842721805356" stroke-dashoffset="20.22842721805356"><animate attributeName="stroke-dashoffset" from="20.22842721805356" to="0" dur="0.6068528165416068s" begin="anim10.end" fill="freeze" id="anim11" /></path><path d="M 46.6 -1.8 C 46.0 -3.4 44.5 -5.7 43.5 -7.0 " transform="translate(0.0 38.0)" stroke-dasharray="6.070901671701412" stroke-dashoffset="6.070901671701412"><animate attributeName="stroke-dashoffset" from="6.070901671701412" to="0" dur="0.18212705015104236s" begin="anim11.end" fill="freeze" id="anim12" /></path><path d="M 17.8 -32.0 C 16.2 -34.0 13.9 -36.0 11.9 -37.5 " transform="translate(0.0 38.0)" stroke-dasharray="8.08570636453405" stroke-dashoffset="8.08570636453405"><animate attributeName="stroke-dashoffset" from="8.08570636453405" to="0" dur="0.24257119093602147s" begin="anim12.end" fill="freeze" id="anim13" /></path><path d="M 44.5 -12.2 C 43.5 -14.1 42.0 -16.0 40.7 -17.2 " transform="translate(0.0 38.0)" stroke-dasharray="6.307162120346231" stroke-dashoffset="6.307162120346231"><animate attributeName="stroke-dashoffset" from="6.307162120346231" to="0" dur="0.18921486361038692s" begin="anim13.end" fill="freeze" id="anim14" /></path><path d="M 42.6 -25.2 L 24.5 -25.2 " transform="translate(0.0 38.0)" stroke-dasharray="18.1" stroke-dashoffset="18.1"><animate attributeName="stroke-dashoffset" from="18.1" to="0" dur="0.543s" begin="anim14.end" fill="freeze" id="anim15" /></path><path d="M 33.5 -13.6 L 33.5 -40.5 " transform="translate(0.0 38.0)" stroke-dasharray="26.9" stroke-dashoffset="26.9"><animate attributeName="stroke-dashoffset" from="26.9" to="0" dur="0.8069999999999999s" begin="anim15.end" fill="freeze" id="anim16" /></path><path d="M 45.7 -36.3 L 21.6 -36.3" transform="translate(0.0 38.0)" stroke-dasharray="24.1" stroke-dashoffset="24.1"><animate attributeName="stroke-dashoffset" from="24.1" to="0" dur="0.723s" begin="anim16.end" fill="freeze" id="anim_end" /></path></g></svg>