<?xml version='1.0' encoding='utf-8'?>
<svg viewBox="0.0 -6.0 50.0 50.0" version="1.1" xmlns="http://www.w3.org/2000/svg"><rect x="-1000" y="-1000" width="2000" height="2000" stroke="white" fill="white" /><g style="fill:none;stroke:#000000;stroke-width:1"><path d="M 23.8 -4.0 L 23.8 -26.1 C 23.8 -29.1 22.8 -29.8 20.4 -29.8 L 8.4 -29.8 C 6.0 -29.8 5.0 -29.1 5.0 -26.1 L 5.0 -4.0 C 5.0 -1.0 6.0 -0.2 8.4 -0.2 L 20.4 -0.2 C 22.8 -0.2 23.8 -1.0 23.8 -4.0 Z " transform="translate(0.0 38.0)" stroke-dasharray="92.03896695047216" stroke-dashoffset="92.03896695047216"><animate attributeName="stroke-dashoffset" from="92.03896695047216" to="0" dur="2.7611690085141647s" begin="0s" fill="freeze" /></path><path d="M 17.3 -11.0 L 11.3 -11.0 " transform="translate(0.0 38.0)" stroke-dasharray="6.0" stroke-dashoffset="6.0"><animate attributeName="stroke-dashoffset" from="6.0" to="0" dur="0.18s" begin="2.7611690085141647s" fill="freeze" /></path><path d="M 11.0 -1.3 L 11.0 -29.0 " transform="translate(0.0 38.0)" stroke-dasharray="27.7" stroke-dashoffset="27.7"><animate attributeName="stroke-dashoffset" from="27.7" to="0" dur="0.831s" begin="2.941169008514165s" fill="freeze" /></path><path d="M 17.6 -1.3 L 17.6 -29.0 " transform="translate(0.0 38.0)" stroke-dasharray="27.7" stroke-dashoffset="27.7"><animate attributeName="stroke-dashoffset" from="27.7" to="0" dur="0.831s" begin="3.772169008514165s" fill="freeze" /></path><path d="M 25.6 2.1 C 30.3 -0.8 33.8 -6.3 34.3 -13.1 " transform="translate(0.0 38.0)" stroke-dasharray="18.1764851384242" stroke-dashoffset="18.1764851384242"><animate attributeName="stroke-dashoffset" from="18.1764851384242" to="0" dur="0.545294554152726s" begin="4.603169008514165s" fill="freeze" /></path><path d="M 17.3 -20.4 L 11.3 -20.4 " transform="translate(0.0 38.0)" stroke-dasharray="6.0" stroke-dashoffset="6.0"><animate attributeName="stroke-dashoffset" from="6.0" to="0" dur="0.18s" begin="5.14846356266689s" fill="freeze" /></path><path d="M 12.2 -29.9 C 12.9 -31.9 13.5 -34.1 14.1 -36.9 " transform="translate(0.0 38.0)" stroke-dasharray="7.258123458110241" stroke-dashoffset="7.258123458110241"><animate attributeName="stroke-dashoffset" from="7.258123458110241" to="0" dur="0.2177437037433072s" begin="5.32846356266689s" fill="freeze" /></path><path d="M 47.0 -3.1 C 46.6 0.9 45.5 1.8 42.9 1.8 C 40.4 1.8 39.6 1.2 39.6 -0.7 L 39.6 -13.9 " transform="translate(0.0 38.0)" stroke-dasharray="25.378527191542638" stroke-dashoffset="25.378527191542638"><animate attributeName="stroke-dashoffset" from="25.378527191542638" to="0" dur="0.7613558157462791s" begin="5.546207266410198s" fill="freeze" /></path><path d="M 25.6 -37.8 L 3.1 -37.8 " transform="translate(0.0 38.0)" stroke-dasharray="22.5" stroke-dashoffset="22.5"><animate attributeName="stroke-dashoffset" from="22.5" to="0" dur="0.6749999999999999s" begin="6.307563082156477s" fill="freeze" /></path><path d="M 43.5 -22.7 L 30.8 -22.7 " transform="translate(0.0 38.0)" stroke-dasharray="12.7" stroke-dashoffset="12.7"><animate attributeName="stroke-dashoffset" from="12.7" to="0" dur="0.38099999999999995s" begin="6.982563082156477s" fill="freeze" /></path><path d="M 30.5 -35.5 L 30.5 -17.4 C 30.5 -14.9 31.6 -14.0 34.1 -14.0 L 40.4 -14.0 C 42.9 -14.0 44.0 -14.9 44.0 -17.4 L 44.0 -35.5 C 44.0 -38.0 42.8 -38.9 40.2 -38.9 L 34.2 -38.9 C 31.6 -38.9 30.5 -38.0 30.5 -35.5 Z " transform="translate(0.0 38.0)" stroke-dasharray="71.8064358929128" stroke-dashoffset="71.8064358929128"><animate attributeName="stroke-dashoffset" from="71.8064358929128" to="0" dur="2.154193076787384s" begin="7.363563082156477s" fill="freeze" /></path><path d="M 43.5 -30.6 L 30.8 -30.6" transform="translate(0.0 38.0)" stroke-dasharray="12.7" stroke-dashoffset="12.7"><animate attributeName="stroke-dashoffset" from="12.7" to="0" dur="0.38099999999999995s" begin="9.517756158943861s" fill="freeze" /></path></g></svg>