<?xml version='1.0' encoding='utf-8'?>
<svg viewBox="0.0 -6.0 50.0 50.0" version="1.1" xmlns="http://www.w3.org/2000/svg"><rect x="-1000" y="-1000" width="2000" height="2000" stroke="white" fill="white" /><g style="fill:none;stroke:#000000;stroke-width:1"><path d="M 47.3 -5.0 C 46.8 -0.3 45.5 1.5 43.9 1.5 C 41.8 1.5 39.8 -1.4 37.5 -11.3 C 36.1 -17.9 35.3 -28.2 35.3 -40.4 " transform="translate(0.0 38.0)" stroke-dasharray="52.13753388245527" stroke-dashoffset="52.13753388245527"><animate attributeName="stroke-dashoffset" from="52.13753388245527" to="0" dur="1.5641260164736581s" begin="0s; anim_end.end" fill="freeze" id="anim0" /></path><path d="M 4.3 -0.5 C 9.2 -1.4 14.9 -3.0 18.9 -4.6 " transform="translate(0.0 38.0)" stroke-dasharray="15.186366816261751" stroke-dashoffset="15.186366816261751"><animate attributeName="stroke-dashoffset" from="15.186366816261751" to="0" dur="0.4555910044878525s" begin="anim0.end" fill="freeze" id="anim1" /></path><path d="M 7.2 -7.1 C 6.8 -8.8 6.0 -10.7 5.2 -12.0 " transform="translate(0.0 38.0)" stroke-dasharray="5.312366148894572" stroke-dashoffset="5.312366148894572"><animate attributeName="stroke-dashoffset" from="5.312366148894572" to="0" dur="0.15937098446683715s" begin="anim1.end" fill="freeze" id="anim2" /></path><path d="M 12.1 -2.5 L 12.1 -26.1 " transform="translate(0.0 38.0)" stroke-dasharray="23.6" stroke-dashoffset="23.6"><animate attributeName="stroke-dashoffset" from="23.6" to="0" dur="0.708s" begin="anim2.end" fill="freeze" id="anim3" /></path><path d="M 16.9 -8.8 C 17.5 -10.0 18.1 -11.7 18.6 -13.3 " transform="translate(0.0 38.0)" stroke-dasharray="4.81498989954837" stroke-dashoffset="4.81498989954837"><animate attributeName="stroke-dashoffset" from="4.81498989954837" to="0" dur="0.14444969698645108s" begin="anim3.end" fill="freeze" id="anim4" /></path><path d="M 19.2 -18.6 L 3.9 -18.6 " transform="translate(0.0 38.0)" stroke-dasharray="15.299999999999999" stroke-dashoffset="15.299999999999999"><animate attributeName="stroke-dashoffset" from="15.299999999999999" to="0" dur="0.45899999999999996s" begin="anim4.end" fill="freeze" id="anim5" /></path><path d="M 21.1 -0.9 C 25.1 -2.5 28.7 -4.3 32.0 -6.6 " transform="translate(0.0 38.0)" stroke-dasharray="12.327637159875177" stroke-dashoffset="12.327637159875177"><animate attributeName="stroke-dashoffset" from="12.327637159875177" to="0" dur="0.3698291147962553s" begin="anim5.end" fill="freeze" id="anim6" /></path><path d="M 17.4 -26.1 L 7.2 -26.1 " transform="translate(0.0 38.0)" stroke-dasharray="10.2" stroke-dashoffset="10.2"><animate attributeName="stroke-dashoffset" from="10.2" to="0" dur="0.306s" begin="anim6.end" fill="freeze" id="anim7" /></path><path d="M 3.1 -28.4 C 6.7 -31.3 10.2 -35.4 12.7 -39.5 " transform="translate(0.0 38.0)" stroke-dasharray="14.743480756846328" stroke-dashoffset="14.743480756846328"><animate attributeName="stroke-dashoffset" from="14.743480756846328" to="0" dur="0.44230442270538983s" begin="anim7.end" fill="freeze" id="anim8" /></path><path d="M 29.8 2.9 C 37.1 -2.2 42.4 -11.0 45.0 -21.2 " transform="translate(0.0 38.0)" stroke-dasharray="29.086362121162608" stroke-dashoffset="29.086362121162608"><animate attributeName="stroke-dashoffset" from="29.086362121162608" to="0" dur="0.8725908636348783s" begin="anim8.end" fill="freeze" id="anim9" /></path><path d="M 19.1 -31.6 C 17.5 -33.6 15.1 -35.8 12.8 -37.4 " transform="translate(0.0 38.0)" stroke-dasharray="8.589881603654437" stroke-dashoffset="8.589881603654437"><animate attributeName="stroke-dashoffset" from="8.589881603654437" to="0" dur="0.2576964481096331s" begin="anim9.end" fill="freeze" id="anim10" /></path><path d="M 25.1 -3.0 L 25.1 -26.0 C 25.1 -28.2 25.9 -29.4 28.9 -29.4 L 46.1 -29.4 " transform="translate(0.0 38.0)" stroke-dasharray="46.14126933048535" stroke-dashoffset="46.14126933048535"><animate attributeName="stroke-dashoffset" from="46.14126933048535" to="0" dur="1.3842380799145604s" begin="anim10.end" fill="freeze" id="anim11" /></path><path d="M 43.6 -35.2 C 43.0 -36.1 41.8 -37.2 40.9 -38.0" transform="translate(0.0 38.0)" stroke-dasharray="3.8987609628926565" stroke-dashoffset="3.8987609628926565"><animate attributeName="stroke-dashoffset" from="3.8987609628926565" to="0" dur="0.1169628288867797s" begin="anim11.end" fill="freeze" id="anim_end" /></path></g></svg>