<?xml version='1.0' encoding='utf-8'?>
<svg viewBox="0.0 -6.0 50.0 50.0" version="1.1" xmlns="http://www.w3.org/2000/svg"><rect x="-1000" y="-1000" width="2000" height="2000" stroke="white" fill="white" /><g style="fill:none;stroke:#000000;stroke-width:1"><path d="M 45.0 -14.6 L 15.2 -14.6 C 12.4 -14.6 11.6 -15.6 11.6 -17.9 L 11.6 -31.6 C 11.6 -33.5 12.3 -34.5 14.9 -34.5 L 43.5 -34.5 " transform="translate(0.0 38.0)" stroke-dasharray="82.94476232305945" stroke-dashoffset="82.94476232305945"><animate attributeName="stroke-dashoffset" from="82.94476232305945" to="0" dur="2.4883428696917833s" begin="0s" fill="freeze" /></path><path d="M 24.9 2.8 L 24.9 -13.8 " transform="translate(0.0 38.0)" stroke-dasharray="16.6" stroke-dashoffset="16.6"><animate attributeName="stroke-dashoffset" from="16.6" to="0" dur="0.498s" begin="2.4883428696917833s" fill="freeze" /></path><path d="M 46.4 -7.2 L 3.6 -7.2 " transform="translate(0.0 38.0)" stroke-dasharray="42.8" stroke-dashoffset="42.8"><animate attributeName="stroke-dashoffset" from="42.8" to="0" dur="1.2839999999999998s" begin="2.986342869691783s" fill="freeze" /></path><path d="M 4.4 -27.1 C 8.2 -30.2 12.7 -35.6 15.2 -40.3 " transform="translate(0.0 38.0)" stroke-dasharray="17.149055083426305" stroke-dashoffset="17.149055083426305"><animate attributeName="stroke-dashoffset" from="17.149055083426305" to="0" dur="0.5144716525027891s" begin="4.270342869691783s" fill="freeze" /></path><path d="M 40.1 -21.4 L 11.8 -21.4 " transform="translate(0.0 38.0)" stroke-dasharray="28.3" stroke-dashoffset="28.3"><animate attributeName="stroke-dashoffset" from="28.3" to="0" dur="0.849s" begin="4.784814522194572s" fill="freeze" /></path><path d="M 26.2 -14.8 L 26.2 -34.0 " transform="translate(0.0 38.0)" stroke-dasharray="19.2" stroke-dashoffset="19.2"><animate attributeName="stroke-dashoffset" from="19.2" to="0" dur="0.576s" begin="5.633814522194572s" fill="freeze" /></path><path d="M 40.1 -27.9 L 11.8 -27.9 " transform="translate(0.0 38.0)" stroke-dasharray="28.3" stroke-dashoffset="28.3"><animate attributeName="stroke-dashoffset" from="28.3" to="0" dur="0.849s" begin="6.209814522194572s" fill="freeze" /></path><path d="M 25.8 -35.1 C 26.6 -36.6 27.4 -38.4 28.0 -40.0" transform="translate(0.0 38.0)" stroke-dasharray="5.374777452997016" stroke-dashoffset="5.374777452997016"><animate attributeName="stroke-dashoffset" from="5.374777452997016" to="0" dur="0.16124332358991048s" begin="7.058814522194572s" fill="freeze" /></path></g></svg>