<?xml version='1.0' encoding='utf-8'?>
<svg viewBox="0.0 -6.0 50.0 50.0" version="1.1" xmlns="http://www.w3.org/2000/svg"><rect x="-1000" y="-1000" width="2000" height="2000" stroke="white" fill="white" /><g style="fill:none;stroke:#000000;stroke-width:1"><path d="M 38.2 1.5 C 39.1 1.8 40.0 1.8 40.9 1.8 C 43.1 1.8 44.0 0.8 44.0 -1.9 L 44.0 -35.6 C 44.0 -37.8 43.2 -38.7 40.4 -38.7 L 32.5 -38.7 C 29.8 -38.7 28.9 -37.8 28.9 -35.8 L 28.9 -30.1 C 28.9 -28.2 29.9 -27.2 32.5 -27.2 L 43.6 -27.2 " transform="translate(0.0 38.0)" stroke-dasharray="83.00906446003208" stroke-dashoffset="83.00906446003208"><animate attributeName="stroke-dashoffset" from="83.00906446003208" to="0" dur="2.4902719338009622s" begin="0s; 15s; 30s; 45s" fill="freeze" id="anim0" /></path><path d="M 12.6 0.2 C 17.7 -1.3 20.6 -4.7 21.2 -9.4 " transform="translate(0.0 38.0)" stroke-dasharray="13.724737017368756" stroke-dashoffset="13.724737017368756"><animate attributeName="stroke-dashoffset" from="13.724737017368756" to="0" dur="0.4117421105210627s" begin="anim0.end" fill="freeze" id="anim1" /></path><path d="M 6.0 2.4 L 6.0 -35.6 C 6.0 -37.8 6.9 -38.7 9.8 -38.7 L 16.9 -38.7 C 19.5 -38.7 20.4 -37.8 20.4 -35.8 L 20.4 -30.1 C 20.4 -28.1 19.5 -27.2 16.9 -27.2 L 6.5 -27.2 " transform="translate(0.0 38.0)" stroke-dasharray="77.4897123069479" stroke-dashoffset="77.4897123069479"><animate attributeName="stroke-dashoffset" from="77.4897123069479" to="0" dur="2.3246913692084368s" begin="anim1.end" fill="freeze" id="anim2" /></path><path d="M 36.8 -4.2 C 36.5 -1.5 35.2 -0.7 31.6 -0.7 C 28.5 -0.7 27.5 -1.1 27.5 -3.0 L 27.5 -9.6 " transform="translate(0.0 38.0)" stroke-dasharray="19.20332698316885" stroke-dashoffset="19.20332698316885"><animate attributeName="stroke-dashoffset" from="19.20332698316885" to="0" dur="0.5760998094950655s" begin="anim2.end" fill="freeze" id="anim3" /></path><path d="M 19.4 -9.9 L 29.9 -9.9 C 32.5 -9.9 33.4 -10.8 33.4 -12.5 L 33.4 -15.4 C 33.4 -17.1 32.5 -17.9 29.9 -17.9 L 19.4 -17.9 C 16.8 -17.9 15.8 -17.1 15.8 -15.3 L 15.8 -12.5 C 15.8 -10.8 16.8 -9.9 19.4 -9.9 Z " transform="translate(0.0 38.0)" stroke-dasharray="46.88591404397006" stroke-dashoffset="46.88591404397006"><animate attributeName="stroke-dashoffset" from="46.88591404397006" to="0" dur="1.4065774213191018s" begin="anim3.end" fill="freeze" id="anim4" /></path><path d="M 20.4 -20.7 C 19.9 -21.6 19.3 -22.2 18.7 -22.9 " transform="translate(0.0 38.0)" stroke-dasharray="2.7864728976555453" stroke-dashoffset="2.7864728976555453"><animate attributeName="stroke-dashoffset" from="2.7864728976555453" to="0" dur="0.08359418692966636s" begin="anim4.end" fill="freeze" id="anim5" /></path><path d="M 6.8 -33.0 L 19.9 -33.0 " transform="translate(0.0 38.0)" stroke-dasharray="13.099999999999998" stroke-dashoffset="13.099999999999998"><animate attributeName="stroke-dashoffset" from="13.099999999999998" to="0" dur="0.3929999999999999s" begin="anim5.end" fill="freeze" id="anim6" /></path><path d="M 26.9 -17.8 C 28.2 -19.8 28.9 -21.1 29.8 -23.2 " transform="translate(0.0 38.0)" stroke-dasharray="6.138715709404145" stroke-dashoffset="6.138715709404145"><animate attributeName="stroke-dashoffset" from="6.138715709404145" to="0" dur="0.18416147128212434s" begin="anim6.end" fill="freeze" id="anim7" /></path><path d="M 29.5 -33.0 L 43.2 -33.0" transform="translate(0.0 38.0)" stroke-dasharray="13.700000000000003" stroke-dashoffset="13.700000000000003"><animate attributeName="stroke-dashoffset" from="13.700000000000003" to="0" dur="0.4110000000000001s" begin="anim7.end" fill="freeze" id="anim_end" /></path></g></svg>