<?xml version='1.0' encoding='utf-8'?>
<svg viewBox="0.0 -6.0 50.0 50.0" version="1.1" xmlns="http://www.w3.org/2000/svg"><rect x="-1000" y="-1000" width="2000" height="2000" stroke="white" fill="white" /><g style="fill:none;stroke:#000000;stroke-width:1"><path d="M 31.6 1.8 C 38.1 -4.3 43.5 -14.8 44.2 -28.6 " transform="translate(0.0 38.0)" stroke-dasharray="33.701750325682134" stroke-dashoffset="33.701750325682134"><animate attributeName="stroke-dashoffset" from="33.701750325682134" to="0" dur="1.011052509770464s" begin="0s; 15s; 30s; 45s" fill="freeze" id="anim0" /></path><path d="M 3.6 -0.2 C 7.9 -1.0 13.0 -2.1 16.4 -3.3 " transform="translate(0.0 38.0)" stroke-dasharray="13.181269513625999" stroke-dashoffset="13.181269513625999"><animate attributeName="stroke-dashoffset" from="13.181269513625999" to="0" dur="0.39543808540877995s" begin="anim0.end" fill="freeze" id="anim1" /></path><path d="M 5.8 -7.2 C 5.5 -9.1 4.8 -11.0 4.2 -12.3 " transform="translate(0.0 38.0)" stroke-dasharray="5.360927308771486" stroke-dashoffset="5.360927308771486"><animate attributeName="stroke-dashoffset" from="5.360927308771486" to="0" dur="0.16082781926314457s" begin="anim1.end" fill="freeze" id="anim2" /></path><path d="M 10.4 -2.6 L 10.4 -26.8 " transform="translate(0.0 38.0)" stroke-dasharray="24.2" stroke-dashoffset="24.2"><animate attributeName="stroke-dashoffset" from="24.2" to="0" dur="0.726s" begin="anim2.end" fill="freeze" id="anim3" /></path><path d="M 14.8 -8.3 C 15.2 -9.5 15.8 -11.2 16.2 -13.2 " transform="translate(0.0 38.0)" stroke-dasharray="5.09999156949336" stroke-dashoffset="5.09999156949336"><animate attributeName="stroke-dashoffset" from="5.09999156949336" to="0" dur="0.1529997470848008s" begin="anim3.end" fill="freeze" id="anim4" /></path><path d="M 21.4 2.0 C 22.1 2.1 22.7 2.2 23.4 2.2 C 25.3 2.2 26.1 1.4 26.1 -0.7 L 26.1 -12.0 " transform="translate(0.0 38.0)" stroke-dasharray="17.92251265646504" stroke-dashoffset="17.92251265646504"><animate attributeName="stroke-dashoffset" from="17.92251265646504" to="0" dur="0.5376753796939512s" begin="anim4.end" fill="freeze" id="anim5" /></path><path d="M 16.8 -18.8 L 3.1 -18.8 " transform="translate(0.0 38.0)" stroke-dasharray="13.700000000000001" stroke-dashoffset="13.700000000000001"><animate attributeName="stroke-dashoffset" from="13.700000000000001" to="0" dur="0.41100000000000003s" begin="anim5.end" fill="freeze" id="anim6" /></path><path d="M 19.6 -6.5 C 24.0 -7.0 28.5 -7.8 32.2 -8.7 " transform="translate(0.0 38.0)" stroke-dasharray="12.798507796236626" stroke-dashoffset="12.798507796236626"><animate attributeName="stroke-dashoffset" from="12.798507796236626" to="0" dur="0.38395523388709873s" begin="anim6.end" fill="freeze" id="anim7" /></path><path d="M 15.3 -26.7 L 6.4 -26.7 " transform="translate(0.0 38.0)" stroke-dasharray="8.9" stroke-dashoffset="8.9"><animate attributeName="stroke-dashoffset" from="8.9" to="0" dur="0.267s" begin="anim7.end" fill="freeze" id="anim8" /></path><path d="M 25.9 -11.5 C 27.2 -12.4 28.6 -13.4 29.8 -14.7 C 30.9 -15.8 30.4 -17.4 28.4 -17.4 L 20.6 -17.4 " transform="translate(0.0 38.0)" stroke-dasharray="17.00079967997829" stroke-dashoffset="17.00079967997829"><animate attributeName="stroke-dashoffset" from="17.00079967997829" to="0" dur="0.5100239903993486s" begin="anim8.end" fill="freeze" id="anim9" /></path><path d="M 2.8 -29.2 C 5.8 -31.9 8.9 -35.8 11.1 -39.5 " transform="translate(0.0 38.0)" stroke-dasharray="13.273465904889909" stroke-dashoffset="13.273465904889909"><animate attributeName="stroke-dashoffset" from="13.273465904889909" to="0" dur="0.39820397714669725s" begin="anim9.end" fill="freeze" id="anim10" /></path><path d="M 16.1 -32.5 C 14.6 -34.4 12.4 -36.5 10.7 -37.8 " transform="translate(0.0 38.0)" stroke-dasharray="7.583087603844849" stroke-dashoffset="7.583087603844849"><animate attributeName="stroke-dashoffset" from="7.583087603844849" to="0" dur="0.22749262811534546s" begin="anim10.end" fill="freeze" id="anim11" /></path><path d="M 23.6 -23.0 L 27.9 -23.0 C 29.9 -23.0 30.6 -23.8 30.6 -25.4 L 30.6 -27.4 C 30.6 -28.9 29.9 -29.7 27.9 -29.7 L 23.6 -29.7 C 21.6 -29.7 20.9 -28.9 20.9 -27.4 L 20.9 -25.4 C 20.9 -23.8 21.6 -23.0 23.6 -23.0 Z " transform="translate(0.0 38.0)" stroke-dasharray="29.176693870814965" stroke-dashoffset="29.176693870814965"><animate attributeName="stroke-dashoffset" from="29.176693870814965" to="0" dur="0.8753008161244489s" begin="anim11.end" fill="freeze" id="anim12" /></path><path d="M 46.8 0.3 C 40.6 -6.5 37.3 -14.4 36.3 -26.4 " transform="translate(0.0 38.0)" stroke-dasharray="29.268446450341294" stroke-dashoffset="29.268446450341294"><animate attributeName="stroke-dashoffset" from="29.268446450341294" to="0" dur="0.8780533935102388s" begin="anim12.end" fill="freeze" id="anim13" /></path><path d="M 32.4 -34.9 L 19.4 -34.9 " transform="translate(0.0 38.0)" stroke-dasharray="13.0" stroke-dashoffset="13.0"><animate attributeName="stroke-dashoffset" from="13.0" to="0" dur="0.39s" begin="anim13.end" fill="freeze" id="anim14" /></path><path d="M 25.8 -34.9 L 25.8 -40.0 " transform="translate(0.0 38.0)" stroke-dasharray="5.100000000000001" stroke-dashoffset="5.100000000000001"><animate attributeName="stroke-dashoffset" from="5.100000000000001" to="0" dur="0.15300000000000002s" begin="anim14.end" fill="freeze" id="anim15" /></path><path d="M 33.9 -20.9 C 36.0 -25.4 38.0 -32.9 38.9 -39.5 " transform="translate(0.0 38.0)" stroke-dasharray="19.320047800286286" stroke-dashoffset="19.320047800286286"><animate attributeName="stroke-dashoffset" from="19.320047800286286" to="0" dur="0.5796014340085885s" begin="anim15.end" fill="freeze" id="anim16" /></path><path d="M 47.0 -29.9 L 37.3 -29.9" transform="translate(0.0 38.0)" stroke-dasharray="9.700000000000003" stroke-dashoffset="9.700000000000003"><animate attributeName="stroke-dashoffset" from="9.700000000000003" to="0" dur="0.2910000000000001s" begin="anim16.end" fill="freeze" id="anim_end" /></path></g></svg>