<?xml version='1.0' encoding='utf-8'?>
<svg viewBox="0.0 -6.0 50.0 50.0" version="1.1" xmlns="http://www.w3.org/2000/svg"><rect x="-1000" y="-1000" width="2000" height="2000" stroke="white" fill="white" /><g style="fill:none;stroke:#000000;stroke-width:1"><path d="M 44.2 -28.9 L 44.2 -31.9 C 44.2 -33.4 43.6 -34.3 41.1 -34.3 L 8.8 -34.3 C 6.4 -34.3 5.7 -33.4 5.7 -31.9 L 5.7 -28.7 " transform="translate(0.0 38.0)" stroke-dasharray="47.572033039213316" stroke-dashoffset="47.572033039213316"><animate attributeName="stroke-dashoffset" from="47.572033039213316" to="0" dur="1.4271609911763994s" begin="0s; anim_end.end" fill="freeze" id="anim0" /></path><path d="M 8.1 0.9 L 8.1 -7.5 " transform="translate(0.0 38.0)" stroke-dasharray="8.4" stroke-dashoffset="8.4"><animate attributeName="stroke-dashoffset" from="8.4" to="0" dur="0.252s" begin="anim0.end" fill="freeze" id="anim1" /></path><path d="M 4.5 2.0 C 9.9 1.4 16.0 0.3 20.9 -1.2 " transform="translate(0.0 38.0)" stroke-dasharray="16.731439713168907" stroke-dashoffset="16.731439713168907"><animate attributeName="stroke-dashoffset" from="16.731439713168907" to="0" dur="0.5019431913950672s" begin="anim1.end" fill="freeze" id="anim2" /></path><path d="M 14.0 0.4 L 14.0 -13.2 " transform="translate(0.0 38.0)" stroke-dasharray="13.6" stroke-dashoffset="13.6"><animate attributeName="stroke-dashoffset" from="13.6" to="0" dur="0.408s" begin="anim2.end" fill="freeze" id="anim3" /></path><path d="M 19.7 -7.3 L 14.1 -7.3 " transform="translate(0.0 38.0)" stroke-dasharray="5.6" stroke-dashoffset="5.6"><animate attributeName="stroke-dashoffset" from="5.6" to="0" dur="0.16799999999999998s" begin="anim3.end" fill="freeze" id="anim4" /></path><path d="M 19.5 -15.7 L 19.5 -18.6 C 19.5 -20.1 18.9 -20.7 16.6 -20.7 L 10.6 -20.7 C 8.4 -20.7 7.8 -20.1 7.8 -18.6 L 7.8 -15.7 C 7.8 -14.2 8.4 -13.5 10.6 -13.5 L 16.6 -13.5 C 18.9 -13.5 19.5 -14.2 19.5 -15.7 Z " transform="translate(0.0 38.0)" stroke-dasharray="34.47218944664181" stroke-dashoffset="34.47218944664181"><animate attributeName="stroke-dashoffset" from="34.47218944664181" to="0" dur="1.0341656833992543s" begin="anim4.end" fill="freeze" id="anim5" /></path><path d="M 31.4 2.5 L 38.5 2.5 C 40.5 2.5 41.2 1.9 41.2 0.5 L 41.2 -3.0 C 41.2 -4.4 40.5 -5.0 38.5 -5.0 L 31.4 -5.0 C 29.4 -5.0 28.6 -4.4 28.6 -3.0 L 28.6 0.5 C 28.6 1.9 29.4 2.5 31.4 2.5 Z " transform="translate(0.0 38.0)" stroke-dasharray="36.908267936086425" stroke-dashoffset="36.908267936086425"><animate attributeName="stroke-dashoffset" from="36.908267936086425" to="0" dur="1.1072480380825926s" begin="anim5.end" fill="freeze" id="anim6" /></path><path d="M 19.2 -25.4 L 10.6 -25.4 " transform="translate(0.0 38.0)" stroke-dasharray="8.6" stroke-dashoffset="8.6"><animate attributeName="stroke-dashoffset" from="8.6" to="0" dur="0.258s" begin="anim6.end" fill="freeze" id="anim7" /></path><path d="M 24.0 -6.3 C 30.1 -8.2 36.5 -11.9 39.9 -15.6 C 41.5 -17.4 40.6 -18.7 38.4 -18.7 L 30.8 -18.7 " transform="translate(0.0 38.0)" stroke-dasharray="31.12812226586939" stroke-dashoffset="31.12812226586939"><animate attributeName="stroke-dashoffset" from="31.12812226586939" to="0" dur="0.9338436679760816s" begin="anim7.end" fill="freeze" id="anim8" /></path><path d="M 19.2 -29.8 L 11.4 -29.8 " transform="translate(0.0 38.0)" stroke-dasharray="7.799999999999999" stroke-dashoffset="7.799999999999999"><animate attributeName="stroke-dashoffset" from="7.799999999999999" to="0" dur="0.23399999999999996s" begin="anim8.end" fill="freeze" id="anim9" /></path><path d="M 25.1 -13.7 C 27.6 -15.4 30.4 -18.7 32.2 -21.6 " transform="translate(0.0 38.0)" stroke-dasharray="10.686855908008626" stroke-dashoffset="10.686855908008626"><animate attributeName="stroke-dashoffset" from="10.686855908008626" to="0" dur="0.3206056772402588s" begin="anim9.end" fill="freeze" id="anim10" /></path><path d="M 46.3 -7.2 C 39.6 -8.8 33.4 -12.2 29.6 -16.4 " transform="translate(0.0 38.0)" stroke-dasharray="19.336748386293124" stroke-dashoffset="19.336748386293124"><animate attributeName="stroke-dashoffset" from="19.336748386293124" to="0" dur="0.5801024515887937s" begin="anim10.end" fill="freeze" id="anim11" /></path><path d="M 24.9 -24.2 L 24.9 -39.0 " transform="translate(0.0 38.0)" stroke-dasharray="14.8" stroke-dashoffset="14.8"><animate attributeName="stroke-dashoffset" from="14.8" to="0" dur="0.444s" begin="anim11.end" fill="freeze" id="anim12" /></path><path d="M 39.4 -25.4 L 30.4 -25.4 " transform="translate(0.0 38.0)" stroke-dasharray="9.0" stroke-dashoffset="9.0"><animate attributeName="stroke-dashoffset" from="9.0" to="0" dur="0.27s" begin="anim12.end" fill="freeze" id="anim13" /></path><path d="M 38.1 -29.8 L 30.4 -29.8 " transform="translate(0.0 38.0)" stroke-dasharray="7.700000000000003" stroke-dashoffset="7.700000000000003"><animate attributeName="stroke-dashoffset" from="7.700000000000003" to="0" dur="0.23100000000000007s" begin="anim13.end" fill="freeze" id="anim14" /></path><path d="M 41.4 -39.0 L 9.2 -39.0" transform="translate(0.0 38.0)" stroke-dasharray="32.2" stroke-dashoffset="32.2"><animate attributeName="stroke-dashoffset" from="32.2" to="0" dur="0.9660000000000001s" begin="anim14.end" fill="freeze" id="anim_end" /></path></g></svg>