<?xml version='1.0' encoding='utf-8'?>
<svg viewBox="0.0 -6.0 50.0 50.0" version="1.1" xmlns="http://www.w3.org/2000/svg"><rect x="-1000" y="-1000" width="2000" height="2000" stroke="white" fill="white" /><g style="fill:none;stroke:#000000;stroke-width:1"><path d="M 17.6 0.9 C 21.2 -4.8 23.8 -13.6 23.8 -25.5 L 23.8 -31.1 " transform="translate(0.0 38.0)" stroke-dasharray="33.0612489738444" stroke-dashoffset="33.0612489738444"><animate attributeName="stroke-dashoffset" from="33.0612489738444" to="0" dur="0.991837469215332s" begin="0s; anim_end.end" fill="freeze" id="anim0" /></path><path d="M 3.1 0.2 C 4.0 -1.8 4.8 -4.3 5.1 -6.7 " transform="translate(0.0 38.0)" stroke-dasharray="7.209197895098443" stroke-dashoffset="7.209197895098443"><animate attributeName="stroke-dashoffset" from="7.209197895098443" to="0" dur="0.2162759368529533s" begin="anim0.end" fill="freeze" id="anim1" /></path><path d="M 9.4 -1.6 C 9.4 -3.4 9.1 -5.6 8.8 -7.1 " transform="translate(0.0 38.0)" stroke-dasharray="5.540449419291856" stroke-dashoffset="5.540449419291856"><animate attributeName="stroke-dashoffset" from="5.540449419291856" to="0" dur="0.16621348257875568s" begin="anim1.end" fill="freeze" id="anim2" /></path><path d="M 13.8 -3.2 C 13.5 -4.8 13.1 -6.5 12.5 -7.8 " transform="translate(0.0 38.0)" stroke-dasharray="4.791548824908648" stroke-dashoffset="4.791548824908648"><animate attributeName="stroke-dashoffset" from="4.791548824908648" to="0" dur="0.14374646474725944s" begin="anim2.end" fill="freeze" id="anim3" /></path><path d="M 17.7 -5.2 C 17.2 -6.5 16.7 -7.7 16.1 -8.7 " transform="translate(0.0 38.0)" stroke-dasharray="3.8531196947035737" stroke-dashoffset="3.8531196947035737"><animate attributeName="stroke-dashoffset" from="3.8531196947035737" to="0" dur="0.11559359084110721s" begin="anim3.end" fill="freeze" id="anim4" /></path><path d="M 10.8 -12.3 L 10.8 -27.6 " transform="translate(0.0 38.0)" stroke-dasharray="15.3" stroke-dashoffset="15.3"><animate attributeName="stroke-dashoffset" from="15.3" to="0" dur="0.459s" begin="anim4.end" fill="freeze" id="anim5" /></path><path d="M 16.4 -14.8 L 16.4 -25.6 C 16.4 -27.4 15.7 -28.4 13.7 -28.4 L 8.0 -28.4 C 6.0 -28.4 5.2 -27.4 5.2 -25.6 L 5.2 -14.8 C 5.2 -13.0 6.0 -12.1 8.0 -12.1 L 13.7 -12.1 C 15.7 -12.1 16.4 -13.0 16.4 -14.8 Z " transform="translate(0.0 38.0)" stroke-dasharray="50.98828836685322" stroke-dashoffset="50.98828836685322"><animate attributeName="stroke-dashoffset" from="50.98828836685322" to="0" dur="1.5296486510055964s" begin="anim5.end" fill="freeze" id="anim6" /></path><path d="M 15.5 -20.5 L 6.0 -20.5 " transform="translate(0.0 38.0)" stroke-dasharray="9.5" stroke-dashoffset="9.5"><animate attributeName="stroke-dashoffset" from="9.5" to="0" dur="0.285s" begin="anim6.end" fill="freeze" id="anim7" /></path><path d="M 23.6 0.9 C 24.4 1.1 24.9 1.2 25.6 1.2 C 27.4 1.2 28.4 0.3 29.1 -3.0 C 29.8 -7.2 30.2 -12.7 30.2 -18.2 C 30.2 -20.1 29.5 -21.1 27.1 -21.1 L 22.9 -21.1 " transform="translate(0.0 38.0)" stroke-dasharray="32.466977228808155" stroke-dashoffset="32.466977228808155"><animate attributeName="stroke-dashoffset" from="32.466977228808155" to="0" dur="0.9740093168642446s" begin="anim7.end" fill="freeze" id="anim8" /></path><path d="M 2.8 -29.5 C 5.0 -32.2 7.0 -36.2 8.2 -39.9 " transform="translate(0.0 38.0)" stroke-dasharray="11.778373827397516" stroke-dashoffset="11.778373827397516"><animate attributeName="stroke-dashoffset" from="11.778373827397516" to="0" dur="0.35335121482192544s" begin="anim8.end" fill="freeze" id="anim9" /></path><path d="M 10.9 -29.1 C 11.8 -30.9 12.5 -32.4 12.8 -33.2 C 13.3 -34.7 12.5 -35.6 10.7 -35.6 L 6.9 -35.6 " transform="translate(0.0 38.0)" stroke-dasharray="12.25518593641383" stroke-dashoffset="12.25518593641383"><animate attributeName="stroke-dashoffset" from="12.25518593641383" to="0" dur="0.36765557809241484s" begin="anim9.end" fill="freeze" id="anim10" /></path><path d="M 44.2 0.1 C 42.0 -2.7 39.0 -5.7 36.2 -7.8 " transform="translate(0.0 38.0)" stroke-dasharray="11.272166170330406" stroke-dashoffset="11.272166170330406"><animate attributeName="stroke-dashoffset" from="11.272166170330406" to="0" dur="0.33816498510991216s" begin="anim10.end" fill="freeze" id="anim11" /></path><path d="M 31.4 -31.6 L 18.8 -31.6 " transform="translate(0.0 38.0)" stroke-dasharray="12.599999999999998" stroke-dashoffset="12.599999999999998"><animate attributeName="stroke-dashoffset" from="12.599999999999998" to="0" dur="0.37799999999999995s" begin="anim11.end" fill="freeze" id="anim12" /></path><path d="M 42.8 -15.8 C 41.3 -17.4 39.5 -19.1 37.9 -20.1 " transform="translate(0.0 38.0)" stroke-dasharray="6.535504354570355" stroke-dashoffset="6.535504354570355"><animate attributeName="stroke-dashoffset" from="6.535504354570355" to="0" dur="0.19606513063711065s" begin="anim12.end" fill="freeze" id="anim13" /></path><path d="M 24.6 -31.5 L 24.6 -40.0 " transform="translate(0.0 38.0)" stroke-dasharray="8.5" stroke-dashoffset="8.5"><animate attributeName="stroke-dashoffset" from="8.5" to="0" dur="0.255s" begin="anim13.end" fill="freeze" id="anim14" /></path><path d="M 32.6 -25.1 C 35.6 -28.8 38.2 -34.0 39.7 -39.5 " transform="translate(0.0 38.0)" stroke-dasharray="16.163971793804865" stroke-dashoffset="16.163971793804865"><animate attributeName="stroke-dashoffset" from="16.163971793804865" to="0" dur="0.48491915381414596s" begin="anim14.end" fill="freeze" id="anim15" /></path><path d="M 46.9 -26.1 C 43.9 -29.8 41.5 -34.1 40.0 -38.6" transform="translate(0.0 38.0)" stroke-dasharray="14.354017481478172" stroke-dashoffset="14.354017481478172"><animate attributeName="stroke-dashoffset" from="14.354017481478172" to="0" dur="0.4306205244443451s" begin="anim15.end" fill="freeze" id="anim_end" /></path></g></svg>