<?xml version='1.0' encoding='utf-8'?>
<svg viewBox="0.0 -6.0 50.0 50.0" version="1.1" xmlns="http://www.w3.org/2000/svg"><rect x="-1000" y="-1000" width="2000" height="2000" stroke="white" fill="white" /><g style="fill:none;stroke:#000000;stroke-width:1"><path d="M 8.7 -11.7 L 15.3 -11.7 C 17.5 -11.7 18.3 -12.7 18.3 -14.5 L 18.3 -25.2 C 18.3 -27.1 17.5 -28.1 15.3 -28.1 L 8.7 -28.1 C 6.5 -28.1 5.7 -27.1 5.7 -25.2 L 5.7 -14.5 C 5.7 -12.7 6.5 -11.7 8.7 -11.7 Z " transform="translate(0.0 38.0)" stroke-dasharray="53.736916408248646" stroke-dashoffset="53.736916408248646"><animate attributeName="stroke-dashoffset" from="53.736916408248646" to="0" dur="1.6121074922474594s" begin="0s" fill="freeze" /></path><path d="M 3.4 0.8 C 4.4 -1.4 5.2 -4.0 5.6 -6.4 " transform="translate(0.0 38.0)" stroke-dasharray="7.5488190406088185" stroke-dashoffset="7.5488190406088185"><animate attributeName="stroke-dashoffset" from="7.5488190406088185" to="0" dur="0.22646457121826455s" begin="1.6121074922474594s" fill="freeze" /></path><path d="M 10.3 -0.7 C 10.2 -2.6 9.9 -5.0 9.6 -6.5 " transform="translate(0.0 38.0)" stroke-dasharray="5.846210070836093" stroke-dashoffset="5.846210070836093"><animate attributeName="stroke-dashoffset" from="5.846210070836093" to="0" dur="0.17538630212508277s" begin="1.8385720634657239s" fill="freeze" /></path><path d="M 15.3 -1.9 C 15.0 -3.6 14.3 -5.6 13.8 -7.0 " transform="translate(0.0 38.0)" stroke-dasharray="5.32201823910789" stroke-dashoffset="5.32201823910789"><animate attributeName="stroke-dashoffset" from="5.32201823910789" to="0" dur="0.1596605471732367s" begin="2.0139583655908067s" fill="freeze" /></path><path d="M 19.9 -3.4 C 19.4 -4.9 18.6 -6.8 17.9 -7.8 " transform="translate(0.0 38.0)" stroke-dasharray="4.846145486151668" stroke-dashoffset="4.846145486151668"><animate attributeName="stroke-dashoffset" from="4.846145486151668" to="0" dur="0.14538436458455004s" begin="2.1736189127640433s" fill="freeze" /></path><path d="M 11.9 -12.3 L 11.9 -27.3 " transform="translate(0.0 38.0)" stroke-dasharray="15.0" stroke-dashoffset="15.0"><animate attributeName="stroke-dashoffset" from="15.0" to="0" dur="0.44999999999999996s" begin="2.3190032773485934s" fill="freeze" /></path><path d="M 6.1 -20.2 L 17.5 -20.2 " transform="translate(0.0 38.0)" stroke-dasharray="11.4" stroke-dashoffset="11.4"><animate attributeName="stroke-dashoffset" from="11.4" to="0" dur="0.34199999999999997s" begin="2.7690032773485935s" fill="freeze" /></path><path d="M 23.1 -5.2 C 24.8 -6.0 26.4 -7.1 27.9 -8.2 " transform="translate(0.0 38.0)" stroke-dasharray="5.6693109305077956" stroke-dashoffset="5.6693109305077956"><animate attributeName="stroke-dashoffset" from="5.6693109305077956" to="0" dur="0.17007932791523386s" begin="3.1110032773485936s" fill="freeze" /></path><path d="M 24.1 1.6 C 24.8 1.8 25.5 1.9 26.6 1.9 C 28.6 1.9 30.1 0.9 30.6 -2.2 C 31.4 -6.0 31.9 -12.4 32.0 -18.3 C 32.0 -20.2 31.3 -21.1 29.1 -21.1 L 24.2 -21.1 " transform="translate(0.0 38.0)" stroke-dasharray="34.66982924086831" stroke-dashoffset="34.66982924086831"><animate attributeName="stroke-dashoffset" from="34.66982924086831" to="0" dur="1.0400948772260492s" begin="3.2810826052638276s" fill="freeze" /></path><path d="M 2.9 -29.2 C 5.3 -32.1 7.5 -36.1 8.9 -40.1 " transform="translate(0.0 38.0)" stroke-dasharray="12.502992255780297" stroke-dashoffset="12.502992255780297"><animate attributeName="stroke-dashoffset" from="12.502992255780297" to="0" dur="0.3750897676734089s" begin="4.321177482489877s" fill="freeze" /></path><path d="M 11.8 -28.9 C 12.7 -30.6 13.4 -32.1 13.8 -33.1 C 14.3 -34.6 13.5 -35.6 11.6 -35.6 L 7.2 -35.6 " transform="translate(0.0 38.0)" stroke-dasharray="13.14413688058524" stroke-dashoffset="13.14413688058524"><animate attributeName="stroke-dashoffset" from="13.14413688058524" to="0" dur="0.39432410641755716s" begin="4.696267250163286s" fill="freeze" /></path><path d="M 36.0 -5.5 C 38.0 -6.3 40.0 -7.7 41.5 -8.8 " transform="translate(0.0 38.0)" stroke-dasharray="6.430735509966332" stroke-dashoffset="6.430735509966332"><animate attributeName="stroke-dashoffset" from="6.430735509966332" to="0" dur="0.19292206529898995s" begin="5.090591356580844s" fill="freeze" /></path><path d="M 37.6 1.3 C 38.4 1.5 39.3 1.6 40.5 1.6 C 42.4 1.6 44.1 0.7 44.7 -2.5 C 45.5 -6.8 45.8 -12.7 45.9 -18.3 C 45.9 -20.2 45.1 -21.1 43.0 -21.1 L 37.9 -21.1 " transform="translate(0.0 38.0)" stroke-dasharray="35.041218668573045" stroke-dashoffset="35.041218668573045"><animate attributeName="stroke-dashoffset" from="35.041218668573045" to="0" dur="1.0512365600571913s" begin="5.283513421879833s" fill="freeze" /></path><path d="M 22.9 -19.8 L 23.9 -27.4 C 24.1 -28.9 24.8 -29.6 26.6 -29.6 L 28.2 -29.6 C 30.6 -29.6 31.3 -30.2 31.3 -32.0 L 31.3 -35.9 C 31.3 -37.8 30.6 -38.5 28.2 -38.5 L 22.5 -38.5 " transform="translate(0.0 38.0)" stroke-dasharray="32.15639939111977" stroke-dashoffset="32.15639939111977"><animate attributeName="stroke-dashoffset" from="32.15639939111977" to="0" dur="0.964691981733593s" begin="6.3347499819370245s" fill="freeze" /></path><path d="M 36.5 -19.8 L 37.5 -27.4 C 37.7 -28.9 38.4 -29.6 40.2 -29.6 L 41.9 -29.6 C 44.2 -29.6 45.0 -30.2 45.0 -32.0 L 45.0 -35.9 C 45.0 -37.8 44.2 -38.5 41.9 -38.5 L 36.5 -38.5 " transform="translate(0.0 38.0)" stroke-dasharray="31.910294583389405" stroke-dashoffset="31.910294583389405"><animate attributeName="stroke-dashoffset" from="31.910294583389405" to="0" dur="0.957308837501682s" begin="7.299441963670618s" fill="freeze" /></path><path d="M 24.1 -15.4 C 25.1 -14.5 26.0 -13.6 26.9 -12.7 " transform="translate(0.0 38.0)" stroke-dasharray="3.890220532671674" stroke-dashoffset="3.890220532671674"><animate attributeName="stroke-dashoffset" from="3.890220532671674" to="0" dur="0.11670661598015022s" begin="8.2567508011723s" fill="freeze" /></path><path d="M 37.9 -15.9 C 38.8 -15.0 39.6 -14.1 40.5 -13.2" transform="translate(0.0 38.0)" stroke-dasharray="3.7484706702326585" stroke-dashoffset="3.7484706702326585"><animate attributeName="stroke-dashoffset" from="3.7484706702326585" to="0" dur="0.11245412010697975s" begin="8.373457417152451s" fill="freeze" /></path></g></svg>