<?xml version='1.0' encoding='utf-8'?>
<svg viewBox="0.0 -6.0 50.0 50.0" version="1.1" xmlns="http://www.w3.org/2000/svg"><rect x="-1000" y="-1000" width="2000" height="2000" stroke="white" fill="white" /><g style="fill:none;stroke:#000000;stroke-width:1"><path d="M 17.8 -37.9 L 17.8 -0.1 C 17.8 2.5 15.7 4.5 13.2 4.5 L 4.3 4.5 C 3.4 4.5 2.8 3.9 2.8 3.0 C 2.8 2.0 3.4 1.4 4.3 1.4 L 12.2 1.4 C 13.3 1.4 14.4 0.4 14.4 -0.8 L 14.4 -37.2 C 14.4 -38.4 13.3 -39.5 12.2 -39.5 L 4.3 -39.5 C 3.4 -39.5 2.8 -40.0 2.8 -41.0 C 2.8 -41.9 3.4 -42.5 4.3 -42.5 L 13.2 -42.5 C 15.7 -42.5 17.8 -40.5 17.8 -37.9 Z" transform="translate(0.0 38.0)" stroke-dasharray="138.85129514735414" stroke-dashoffset="138.85129514735414"><animate attributeName="stroke-dashoffset" from="138.85129514735414" to="0" dur="4.165538854420624s" begin="0s; anim_end.end" fill="freeze" id="anim0" /></path></g></svg>