<?xml version='1.0' encoding='utf-8'?>
<svg viewBox="0.0 -6.0 50.0 50.0" version="1.1" xmlns="http://www.w3.org/2000/svg"><rect x="-1000" y="-1000" width="2000" height="2000" stroke="white" fill="white" /><g style="fill:none;stroke:#000000;stroke-width:1"><path d="M 12.6 -15.6 L 37.4 -15.6 C 38.3 -15.6 39.0 -14.9 39.0 -14.0 C 39.0 -13.1 38.3 -12.4 37.4 -12.4 L 12.6 -12.4 C 11.7 -12.4 11.1 -13.1 11.1 -14.0 C 11.1 -14.9 11.7 -15.6 12.6 -15.6 Z " transform="translate(0.0 38.0)" stroke-dasharray="59.552641122980894" stroke-dashoffset="59.552641122980894"><animate attributeName="stroke-dashoffset" from="59.552641122980894" to="0" dur="1.7865792336894268s" begin="0s" fill="freeze" /></path><path d="M 12.6 -25.6 L 37.4 -25.6 C 38.3 -25.6 39.0 -25.0 39.0 -24.1 C 39.0 -23.2 38.3 -22.6 37.4 -22.6 L 12.6 -22.6 C 11.7 -22.6 11.1 -23.2 11.1 -24.1 C 11.1 -25.0 11.7 -25.6 12.6 -25.6 Z" transform="translate(0.0 38.0)" stroke-dasharray="59.28768286876316" stroke-dashoffset="59.28768286876316"><animate attributeName="stroke-dashoffset" from="59.28768286876316" to="0" dur="1.7786304860628948s" begin="1.7865792336894268s" fill="freeze" /></path></g></svg>