<?xml version='1.0' encoding='utf-8'?>
<svg viewBox="0 -44.0 50.0 50.0" version="1.1" xmlns="http://www.w3.org/2000/svg"><rect x="-1000" y="-1000" width="2000" height="2000" stroke="white" fill="white" /><g style="fill:none;stroke:#000000;stroke-width:1"><path d="M 12.6 20.6 C 11.7 20.6 11.1 19.9 11.1 19.0 C 11.1 18.1 11.7 17.4 12.6 17.4 L 37.4 17.4 C 38.3 17.4 39.0 18.1 39.0 19.0 C 39.0 19.9 38.3 20.6 37.4 20.6 Z " transform="scale(1,-1)" stroke-dasharray="59.5526411229809" stroke-dashoffset="59.5526411229809"><animate attributeName="stroke-dashoffset" from="59.5526411229809" to="0" dur="1.786579233689427s" begin="0s; 15s; 30s; 45s; 60s" fill="freeze" id="anim0" /></path><path d="M 28.1 29.6 C 28.1 31.5 26.8 32.8 25.0 32.8 C 23.1 32.8 21.8 31.5 21.8 29.6 C 21.8 27.7 23.1 26.4 25.0 26.4 C 26.8 26.4 28.1 27.7 28.1 29.6 Z " transform="scale(1,-1)" stroke-dasharray="20.16695481598505" stroke-dashoffset="20.16695481598505"><animate attributeName="stroke-dashoffset" from="20.16695481598505" to="0" dur="0.6050086444795515s" begin="anim0.end" fill="freeze" id="anim1" /></path><path d="M 28.1 8.2 C 28.1 10.1 26.8 11.4 25.0 11.4 C 23.1 11.4 21.8 10.1 21.8 8.2 C 21.8 6.4 23.1 5.1 25.0 5.1 C 26.8 5.1 28.1 6.4 28.1 8.2 Z" transform="scale(1,-1)" stroke-dasharray="19.989819003731167" stroke-dashoffset="19.989819003731167"><animate attributeName="stroke-dashoffset" from="19.989819003731167" to="0" dur="0.5996945701119349s" begin="anim1.end" fill="freeze" id="anim_end" /></path></g></svg>