<?xml version='1.0' encoding='utf-8'?>
<svg viewBox="0 -44.0 50.0 50.0" version="1.1" xmlns="http://www.w3.org/2000/svg"><rect x="-1000" y="-1000" width="2000" height="2000" stroke="white" fill="white" /><g style="fill:none;stroke:#000000;stroke-width:1"><path d="M 30.2 2.6 C 30.2 1.6 30.9 0.8 32.2 0.8 C 33.5 0.8 34.1 1.6 34.1 2.6 L 34.1 22.3 C 34.1 24.2 32.7 25.6 30.7 25.6 L 23.9 25.6 C 18.4 25.6 15.4 22.7 15.4 18.6 C 15.4 15.5 16.9 13.2 19.6 12.2 L 14.2 4.0 C 13.7 3.3 13.6 3.1 13.6 2.7 C 13.6 1.6 14.7 0.8 15.7 0.8 C 16.4 0.8 16.9 1.1 17.4 1.9 L 23.4 11.2 L 30.2 11.2 Z " transform="scale(1,-1)" stroke-dasharray="101.42546664439645" stroke-dashoffset="101.42546664439645"><animate attributeName="stroke-dashoffset" from="101.42546664439645" to="0" dur="3.0427639993318936s" begin="0s; 15s; 30s; 45s; 60s" fill="freeze" id="anim0" /></path><path d="M 28.8 22.4 C 29.7 22.4 30.2 21.8 30.2 21.0 L 30.2 14.4 L 24.1 14.4 C 21.2 14.4 19.5 15.9 19.5 18.4 C 19.5 20.7 20.9 22.4 23.8 22.4 Z" transform="scale(1,-1)" stroke-dasharray="33.50005272267091" stroke-dashoffset="33.50005272267091"><animate attributeName="stroke-dashoffset" from="33.50005272267091" to="0" dur="1.0050015816801272s" begin="anim0.end" fill="freeze" id="anim_end" /></path></g></svg>