<?xml version='1.0' encoding='utf-8'?>
<svg viewBox="0 -44.0 50.0 50.0" version="1.1" xmlns="http://www.w3.org/2000/svg"><rect x="-1000" y="-1000" width="2000" height="2000" stroke="white" fill="white" /><g style="fill:none;stroke:#000000;stroke-width:1"><path d="M 19.2 22.2 C 18.2 22.2 17.4 21.5 17.4 20.4 C 17.4 19.1 18.2 18.4 19.2 18.4 L 23.5 18.4 C 29.8 18.4 32.8 16.1 32.8 11.5 C 32.8 7.2 29.4 4.2 24.0 4.2 C 19.9 4.2 17.0 5.2 15.1 7.0 C 14.5 7.4 14.0 7.6 13.4 7.6 C 12.3 7.6 11.4 6.7 11.4 5.4 C 11.4 4.7 11.8 4.2 12.7 3.5 C 15.4 1.4 18.8 0.4 24.0 0.4 C 32.2 0.4 37.6 5.1 37.6 11.5 C 37.6 16.4 34.5 19.6 29.5 20.7 C 33.6 21.9 36.2 24.7 36.2 29.0 C 36.2 34.6 31.5 38.2 24.3 38.2 C 20.2 38.2 16.8 37.1 13.8 34.9 C 13.1 34.5 12.8 34.1 12.8 33.2 C 12.8 32.2 13.6 31.2 14.9 31.2 C 15.5 31.2 16.0 31.3 16.5 31.7 C 18.9 33.6 21.4 34.5 24.4 34.5 C 29.0 34.5 31.7 32.1 31.7 28.6 C 31.7 24.8 28.8 22.2 23.5 22.2 Z" transform="scale(1,-1)" stroke-dasharray="180.1773392868233" stroke-dashoffset="180.1773392868233"><animate attributeName="stroke-dashoffset" from="180.1773392868233" to="0" dur="5.405320178604699s" begin="0s; 15s; 30s; 45s; 60s" fill="freeze" id="anim0" /></path></g></svg>