<?xml version='1.0' encoding='utf-8'?>
<svg viewBox="0 -44.0 29.35 50.0" version="1.1" xmlns="http://www.w3.org/2000/svg"><rect x="-1000" y="-1000" width="2000" height="2000" stroke="white" fill="white" /><g style="fill:none;stroke:#000000;stroke-width:1"><path d="M 8.7 3.9 C 10.3 1.7 13.0 0.5 15.2 0.5 C 21.6 0.5 26.7 5.4 26.7 13.6 C 26.7 21.5 22.8 26.3 16.4 26.3 C 13.2 26.3 10.4 24.6 8.8 21.8 L 8.8 36.1 C 8.8 37.6 8.0 38.2 6.6 38.2 C 5.2 38.2 4.4 37.6 4.4 36.1 L 4.4 2.9 C 4.4 1.6 5.2 0.8 6.5 0.8 C 7.8 0.8 8.7 1.6 8.7 2.9 Z " transform="scale(1,-1)" stroke-dasharray="117.17059736734025" stroke-dashoffset="117.17059736734025"><animate attributeName="stroke-dashoffset" from="117.17059736734025" to="0" dur="3.5151179210202073s" begin="0s; 15s; 30s; 45s; 60s" fill="freeze" id="anim0" /></path><path d="M 8.8 15.0 C 8.8 19.3 12.2 22.8 15.9 22.8 C 19.7 22.8 22.2 19.6 22.2 13.6 C 22.2 7.8 19.2 4.0 15.1 4.0 C 12.6 4.0 10.2 5.5 8.8 7.9 Z" transform="scale(1,-1)" stroke-dasharray="52.37212962335114" stroke-dashoffset="52.37212962335114"><animate attributeName="stroke-dashoffset" from="52.37212962335114" to="0" dur="1.5711638887005341s" begin="anim0.end" fill="freeze" id="anim_end" /></path></g></svg>