<?xml version='1.0' encoding='utf-8'?>
<svg viewBox="0 -44.0 50.0 50.0" version="1.1" xmlns="http://www.w3.org/2000/svg"><rect x="-1000" y="-1000" width="2000" height="2000" stroke="white" fill="white" /><g style="fill:none;stroke:#000000;stroke-width:1"><path d="M 25.5 21.5 C 28.6 22.9 29.5 24.2 29.5 26.5 C 29.5 29.0 27.6 30.7 24.8 30.7 C 22.1 30.7 20.2 29.0 20.2 26.5 C 20.2 24.1 21.6 22.9 25.5 21.5 Z " transform="scale(1,-1)" stroke-dasharray="28.827700901565276" stroke-dashoffset="28.827700901565276"><animate attributeName="stroke-dashoffset" from="28.827700901565276" to="0" dur="0.8648310270469582s" begin="0s; 15s; 30s; 45s; 60s" fill="freeze" id="anim0" /></path><path d="M 24.6 17.8 C 20.6 16.0 19.4 14.7 19.4 12.1 C 19.4 9.1 21.6 7.1 25.1 7.1 C 28.7 7.1 30.9 8.9 30.9 12.0 C 30.9 14.6 29.7 15.9 24.6 17.8 Z " transform="scale(1,-1)" stroke-dasharray="34.67165457268895" stroke-dashoffset="34.67165457268895"><animate attributeName="stroke-dashoffset" from="34.67165457268895" to="0" dur="1.0401496371806684s" begin="anim0.end" fill="freeze" id="anim1" /></path><path d="M 25.0 43.1 C 11.7 43.1 0.9 32.3 0.9 19.0 C 0.9 5.7 11.7 -5.1 25.0 -5.1 C 38.3 -5.1 49.1 5.7 49.1 19.0 C 49.1 32.3 38.3 43.1 25.0 43.1 Z " transform="scale(1,-1)" stroke-dasharray="151.42853538357596" stroke-dashoffset="151.42853538357596"><animate attributeName="stroke-dashoffset" from="151.42853538357596" to="0" dur="4.542856061507279s" begin="anim1.end" fill="freeze" id="anim2" /></path><path d="M 20.6 19.4 C 17.2 20.9 15.7 23.2 15.7 26.5 C 15.7 31.2 19.4 34.4 24.8 34.4 C 30.2 34.4 34.0 31.2 34.0 26.7 C 34.0 23.6 32.5 21.4 29.4 20.0 C 33.9 18.1 35.5 16.0 35.5 12.2 C 35.5 6.8 31.5 3.4 25.2 3.4 C 18.8 3.4 14.7 6.9 14.7 12.0 C 14.7 15.6 16.4 17.7 20.6 19.4 Z" transform="scale(1,-1)" stroke-dasharray="96.23710223032" stroke-dashoffset="96.23710223032"><animate attributeName="stroke-dashoffset" from="96.23710223032" to="0" dur="2.8871130669096s" begin="anim2.end" fill="freeze" id="anim_end" /></path></g></svg>