<?xml version='1.0' encoding='utf-8'?>
<svg viewBox="0 -44.0 50.0 50.0" version="1.1" xmlns="http://www.w3.org/2000/svg"><rect x="-1000" y="-1000" width="2000" height="2000" stroke="white" fill="white" /><g style="fill:none;stroke:#000000;stroke-width:1"><path d="M 37.9 6.9 C 38.8 6.9 39.2 7.6 39.2 8.5 C 39.2 9.3 38.8 10.0 37.9 10.0 L 24.5 10.0 C 20.8 10.0 18.7 10.6 16.9 12.1 C 15.0 13.6 14.0 16.0 14.0 19.0 C 14.0 22.0 15.0 24.4 16.9 26.0 C 18.7 27.4 20.8 28.1 24.5 28.1 L 37.9 28.1 C 38.8 28.1 39.2 28.7 39.2 29.6 C 39.2 30.5 38.8 31.1 37.9 31.1 L 24.5 31.1 C 19.9 31.1 17.1 30.1 14.8 28.3 C 12.2 26.2 10.8 23.2 10.8 19.0 C 10.8 14.8 12.2 11.8 14.8 9.7 C 17.1 7.9 19.9 6.9 24.5 6.9 Z" transform="scale(1,-1)" stroke-dasharray="135.98785170051644" stroke-dashoffset="135.98785170051644"><animate attributeName="stroke-dashoffset" from="135.98785170051644" to="0" dur="4.079635551015493s" begin="0s; 15s; 30s; 45s; 60s" fill="freeze" id="anim0" /></path></g></svg>