<?xml version='1.0' encoding='utf-8'?>
<svg viewBox="0 -44.0 50.0 50.0" version="1.1" xmlns="http://www.w3.org/2000/svg"><rect x="-1000" y="-1000" width="2000" height="2000" stroke="white" fill="white" /><g style="fill:none;stroke:#000000;stroke-width:1"><path d="M 26.9 9.2 L 26.9 2.6 C 26.9 1.2 27.6 0.5 29.0 0.5 C 30.3 0.5 31.1 1.2 31.1 2.6 L 31.1 9.2 L 34.6 9.2 C 36.0 9.2 36.9 9.8 36.9 11.0 C 36.9 12.2 36.0 12.8 34.6 12.8 L 31.1 12.8 L 31.1 33.5 C 31.1 36.4 29.9 37.5 27.9 37.5 C 26.2 37.5 24.9 36.7 23.9 35.1 L 12.2 15.4 C 11.5 14.2 11.2 13.1 11.2 12.1 C 11.2 10.3 12.4 9.2 14.2 9.2 Z " transform="scale(1,-1)" stroke-dasharray="108.89645517795468" stroke-dashoffset="108.89645517795468"><animate attributeName="stroke-dashoffset" from="108.89645517795468" to="0" dur="3.2668936553386403s" begin="0s; 15s; 30s; 45s; 60s" fill="freeze" id="anim0" /></path><path d="M 26.9 12.8 L 15.0 12.8 L 23.0 26.7 C 24.2 28.9 25.5 31.2 26.7 33.4 L 27.0 33.4 C 27.0 30.9 26.9 28.4 26.9 25.8 Z " transform="scale(1,-1)" stroke-dasharray="56.492336297032836" stroke-dashoffset="56.492336297032836"><animate attributeName="stroke-dashoffset" from="56.492336297032836" to="0" dur="1.694770088910985s" begin="anim0.end" fill="freeze" id="anim1" /></path><path d="M 1.4 19.0 C 1.4 10.0 3.3 3.7 8.1 -4.4 C 8.3 -4.8 8.6 -5.0 9.0 -5.0 C 9.6 -5.0 10.2 -4.5 10.2 -4.0 C 10.2 -3.8 10.1 -3.6 10.0 -3.4 C 5.9 3.6 4.1 10.7 4.1 19.0 C 4.1 27.3 5.9 34.4 10.0 41.4 C 10.1 41.6 10.2 41.8 10.2 42.0 C 10.2 42.5 9.6 43.0 9.0 43.0 C 8.6 43.0 8.3 42.8 8.1 42.4 C 3.3 34.4 1.4 28.1 1.4 19.0 Z " transform="scale(1,-1)" stroke-dasharray="103.28199826725688" stroke-dashoffset="103.28199826725688"><animate attributeName="stroke-dashoffset" from="103.28199826725688" to="0" dur="3.098459948017706s" begin="anim1.end" fill="freeze" id="anim2" /></path><path d="M 48.6 19.0 C 48.6 28.1 46.7 34.4 41.9 42.4 C 41.7 42.8 41.4 43.0 41.0 43.0 C 40.4 43.0 39.9 42.5 39.9 42.0 C 39.9 41.8 39.9 41.6 40.0 41.4 C 44.1 34.4 45.9 27.3 45.9 19.0 C 45.9 10.7 44.1 3.6 40.0 -3.4 C 39.9 -3.6 39.9 -3.8 39.9 -4.0 C 39.9 -4.5 40.4 -5.0 41.0 -5.0 C 41.4 -5.0 41.7 -4.8 41.9 -4.4 C 46.7 3.7 48.6 10.0 48.6 19.0 Z" transform="scale(1,-1)" stroke-dasharray="103.09371969980785" stroke-dashoffset="103.09371969980785"><animate attributeName="stroke-dashoffset" from="103.09371969980785" to="0" dur="3.0928115909942355s" begin="anim2.end" fill="freeze" id="anim_end" /></path></g></svg>