<?xml version='1.0' encoding='utf-8'?>
<svg viewBox="0 -44.0 50.0 50.0" version="1.1" xmlns="http://www.w3.org/2000/svg"><rect x="-1000" y="-1000" width="2000" height="2000" stroke="white" fill="white" /><g style="fill:none;stroke:#000000;stroke-width:1"><path d="M 25.0 43.1 C 11.7 43.1 0.9 32.3 0.9 19.0 C 0.9 5.7 11.7 -5.1 25.0 -5.1 C 38.3 -5.1 49.1 5.7 49.1 19.0 C 49.1 32.3 38.3 43.1 25.0 43.1 Z " transform="scale(1,-1)" stroke-dasharray="151.42853538357596" stroke-dashoffset="151.42853538357596"><animate attributeName="stroke-dashoffset" from="151.42853538357596" to="0" dur="4.542856061507279s" begin="0s; 15s; 30s; 45s; 60s" fill="freeze" id="anim0" /></path><path d="M 22.1 17.9 C 20.7 17.9 20.0 18.6 20.0 19.9 C 20.0 21.2 20.8 21.8 22.1 21.8 L 24.2 21.8 C 27.2 21.8 29.2 23.5 29.2 26.4 C 29.2 28.9 27.3 30.5 24.5 30.5 C 22.8 30.5 21.0 29.7 19.5 28.2 C 19.1 27.9 18.7 27.8 17.9 27.8 C 16.7 27.8 15.8 28.7 15.8 30.0 C 15.8 30.7 16.0 31.2 16.4 31.6 C 18.6 33.4 21.6 34.4 24.4 34.4 C 30.4 34.4 34.0 31.3 34.0 26.5 C 34.0 23.6 32.4 21.2 29.7 20.2 C 33.1 19.1 34.9 16.4 34.9 12.8 C 34.9 7.2 30.7 3.4 24.3 3.4 C 20.8 3.4 18.2 4.2 15.9 6.0 C 15.1 6.6 14.9 7.0 14.9 7.8 C 14.9 8.9 15.9 9.9 17.0 9.9 C 17.8 9.9 18.1 9.8 18.8 9.2 C 20.2 8.1 22.4 7.3 24.3 7.3 C 27.8 7.3 30.1 9.6 30.1 12.9 C 30.1 16.0 27.9 17.9 24.5 17.9 Z" transform="scale(1,-1)" stroke-dasharray="134.5918407025483" stroke-dashoffset="134.5918407025483"><animate attributeName="stroke-dashoffset" from="134.5918407025483" to="0" dur="4.0377552210764485s" begin="anim0.end" fill="freeze" id="anim_end" /></path></g></svg>