<?xml version='1.0' encoding='utf-8'?>
<svg viewBox="0 -44.0 50.0 50.0" version="1.1" xmlns="http://www.w3.org/2000/svg"><rect x="-1000" y="-1000" width="2000" height="2000" stroke="white" fill="white" /><g style="fill:none;stroke:#000000;stroke-width:1"><path d="M 45.8 17.8 C 46.8 17.8 47.3 18.6 47.3 19.5 C 47.3 20.2 46.8 21.1 45.8 21.1 L 26.3 21.1 C 26.9 24.5 27.1 27.9 27.1 31.4 L 40.5 31.4 C 41.5 31.4 42.0 32.1 42.0 33.0 C 42.0 33.8 41.5 34.6 40.5 34.6 L 15.7 34.6 C 16.4 36.1 17.2 37.8 17.8 39.5 C 17.9 39.7 17.9 40.0 17.9 40.2 C 17.9 41.3 16.9 42.0 16.0 42.0 C 15.2 42.0 14.6 41.6 14.2 40.8 C 12.2 35.1 9.7 30.4 6.1 26.7 C 5.7 26.2 5.5 25.8 5.5 25.4 C 5.5 24.5 6.3 23.7 7.2 23.7 C 7.8 23.7 8.2 23.9 8.7 24.4 C 10.7 26.4 12.4 28.8 14.0 31.4 L 23.4 31.4 C 23.3 27.9 23.0 24.5 22.5 21.1 L 4.3 21.1 C 3.3 21.1 2.8 20.2 2.8 19.5 C 2.8 18.6 3.3 17.8 4.3 17.8 L 21.8 17.8 C 20.8 14.4 19.5 11.8 17.7 9.5 C 14.5 5.4 9.2 1.9 3.8 -0.1 C 3.0 -0.4 2.6 -1.0 2.6 -1.6 C 2.6 -2.4 3.3 -3.2 4.3 -3.2 C 4.5 -3.2 4.7 -3.2 5.0 -3.1 C 11.4 -1.1 16.6 2.6 20.4 7.1 C 22.4 9.5 24.0 12.3 25.1 15.9 C 28.6 7.8 36.1 0.6 44.7 -2.5 C 45.0 -2.6 45.2 -2.6 45.5 -2.6 C 46.6 -2.6 47.4 -1.6 47.4 -0.6 C 47.4 0.2 47.0 0.9 46.0 1.2 C 37.1 4.5 31.1 10.1 27.5 17.8 Z" transform="scale(1,-1)" stroke-dasharray="318.9533157871089" stroke-dashoffset="318.9533157871089"><animate attributeName="stroke-dashoffset" from="318.9533157871089" to="0" dur="9.568599473613267s" begin="0s; 15s; 30s; 45s; 60s" fill="freeze" id="anim0" /></path></g></svg>