<?xml version='1.0' encoding='utf-8'?>
<svg viewBox="0 -44.0 50.0 50.0" version="1.1" xmlns="http://www.w3.org/2000/svg"><rect x="-1000" y="-1000" width="2000" height="2000" stroke="white" fill="white" /><g style="fill:none;stroke:#000000;stroke-width:1"><path d="M 22.8 2.9 C 22.8 1.6 23.6 0.8 25.0 0.8 C 26.3 0.8 27.2 1.6 27.2 2.9 L 27.2 23.9 C 27.2 25.2 26.3 26.0 25.0 26.0 C 23.6 26.0 22.8 25.2 22.8 23.9 Z " transform="scale(1,-1)" stroke-dasharray="55.758962679353296" stroke-dashoffset="55.758962679353296"><animate attributeName="stroke-dashoffset" from="55.758962679353296" to="0" dur="1.672768880380599s" begin="0s; 15s; 30s; 45s; 60s" fill="freeze" id="anim0" /></path><path d="M 25.0 37.9 C 23.2 37.9 21.9 36.5 21.9 34.8 C 21.9 33.0 23.2 31.6 25.0 31.6 C 26.8 31.6 28.1 33.0 28.1 34.8 C 28.1 36.5 26.8 37.9 25.0 37.9 Z" transform="scale(1,-1)" stroke-dasharray="19.725044096929793" stroke-dashoffset="19.725044096929793"><animate attributeName="stroke-dashoffset" from="19.725044096929793" to="0" dur="0.5917513229078938s" begin="anim0.end" fill="freeze" id="anim_end" /></path></g></svg>