<?xml version='1.0' encoding='utf-8'?>
<svg viewBox="0 -44.0 50.0 50.0" version="1.1" xmlns="http://www.w3.org/2000/svg"><rect x="-1000" y="-1000" width="2000" height="2000" stroke="white" fill="white" /><g style="fill:none;stroke:#000000;stroke-width:1"><path d="M 38.7 7.0 C 40.3 8.5 41.0 9.6 41.0 11.4 C 41.0 14.1 38.8 16.7 36.1 16.7 C 34.6 16.7 33.4 16.1 32.4 14.9 L 31.0 13.1 L 31.0 35.5 C 31.0 38.9 29.1 40.8 25.0 40.8 C 20.9 40.8 19.0 38.9 19.0 35.5 L 19.0 13.1 L 17.6 14.9 C 16.6 16.1 15.4 16.7 13.9 16.7 C 11.2 16.7 9.1 14.1 9.1 11.4 C 9.1 9.6 9.7 8.5 11.3 7.0 L 18.6 0.0 C 20.7 -2.0 22.6 -3.0 25.0 -3.0 C 27.4 -3.0 29.3 -2.0 31.4 0.0 Z " transform="scale(1,-1)" stroke-dasharray="137.0784524194535" stroke-dashoffset="137.0784524194535"><animate attributeName="stroke-dashoffset" from="137.0784524194535" to="0" dur="4.112353572583605s" begin="0s; 15s; 30s; 45s; 60s" fill="freeze" id="anim0" /></path><path d="M 29.3 9.1 L 33.4 13.7 C 34.1 14.5 35.0 14.9 36.1 14.9 C 37.9 14.9 39.4 13.2 39.4 11.4 C 39.4 10.1 38.8 9.2 37.6 8.2 L 30.2 1.1 C 28.5 -0.6 27.0 -1.3 25.0 -1.3 C 23.1 -1.3 21.7 -0.7 19.8 1.1 L 12.4 8.2 C 11.2 9.2 10.7 10.1 10.7 11.4 C 10.7 13.2 12.2 14.9 13.9 14.9 C 15.0 14.9 15.9 14.5 16.6 13.7 L 20.7 9.1 L 20.7 35.5 C 20.7 37.9 22.1 39.1 25.0 39.1 C 28.0 39.1 29.3 37.9 29.3 35.5 Z" transform="scale(1,-1)" stroke-dasharray="134.52658480745555" stroke-dashoffset="134.52658480745555"><animate attributeName="stroke-dashoffset" from="134.52658480745555" to="0" dur="4.035797544223667s" begin="anim0.end" fill="freeze" id="anim_end" /></path></g></svg>