<?xml version='1.0' encoding='utf-8'?>
<svg viewBox="0 -44.0 50.0 50.0" version="1.1" xmlns="http://www.w3.org/2000/svg"><rect x="-1000" y="-1000" width="2000" height="2000" stroke="white" fill="white" /><g style="fill:none;stroke:#000000;stroke-width:1"><path d="M 23.7 -2.2 C 23.7 -3.3 24.6 -3.9 25.6 -3.9 C 26.5 -3.9 27.4 -3.3 27.4 -2.2 L 27.4 17.5 C 27.4 18.6 26.7 19.1 25.9 19.2 C 29.7 22.2 33.2 25.6 36.1 29.1 C 36.4 29.5 36.6 30.0 36.6 30.4 C 36.6 31.5 35.6 32.2 34.6 32.2 C 34.2 32.2 33.7 32.1 33.3 31.6 C 27.8 24.6 19.1 17.9 11.2 14.0 C 10.4 13.6 10.1 13.0 10.1 12.4 C 10.1 11.6 10.8 10.7 11.8 10.7 C 12.0 10.7 12.2 10.8 12.5 10.9 C 16.2 12.6 20.1 14.9 23.7 17.6 Z " transform="scale(1,-1)" stroke-dasharray="114.7485944994502" stroke-dashoffset="114.7485944994502"><animate attributeName="stroke-dashoffset" from="114.7485944994502" to="0" dur="3.442457834983506s" begin="0s; 15s; 30s; 45s; 60s" fill="freeze" id="anim0" /></path><path d="M 13.5 25.3 C 20.1 28.2 26.7 32.8 31.9 38.1 C 32.4 38.6 32.6 39.1 32.6 39.6 C 32.6 40.6 31.6 41.5 30.7 41.5 C 30.2 41.5 29.8 41.2 29.4 40.9 C 24.4 35.5 18.1 31.1 12.2 28.5 C 11.4 28.2 11.0 27.5 11.0 26.9 C 11.0 26.0 11.7 25.1 12.7 25.1 C 13.0 25.1 13.2 25.2 13.5 25.3 Z" transform="scale(1,-1)" stroke-dasharray="55.690378527248484" stroke-dashoffset="55.690378527248484"><animate attributeName="stroke-dashoffset" from="55.690378527248484" to="0" dur="1.6707113558174544s" begin="anim0.end" fill="freeze" id="anim_end" /></path></g></svg>