<?xml version='1.0' encoding='utf-8'?>
<svg viewBox="0 -44.0 50.0 50.0" version="1.1" xmlns="http://www.w3.org/2000/svg"><rect x="-1000" y="-1000" width="2000" height="2000" stroke="white" fill="white" /><g style="fill:none;stroke:#000000;stroke-width:1"><path d="M 25.4 15.7 L 28.0 22.4 L 37.4 22.4 C 38.3 22.4 39.0 23.1 39.0 24.0 C 39.0 24.9 38.3 25.5 37.4 25.5 L 29.1 25.5 L 31.5 31.9 C 31.6 32.1 31.6 32.3 31.6 32.5 C 31.6 33.4 30.8 34.0 29.9 34.0 C 29.3 34.0 28.8 33.6 28.6 33.1 L 25.7 25.5 L 12.6 25.5 C 11.7 25.5 11.1 24.9 11.1 24.0 C 11.1 23.1 11.7 22.4 12.6 22.4 L 24.6 22.4 L 22.1 15.7 L 12.6 15.7 C 11.7 15.7 11.1 15.1 11.1 14.2 C 11.1 13.2 11.7 12.6 12.6 12.6 L 21.0 12.6 L 18.4 6.0 C 18.3 5.8 18.2 5.5 18.2 5.3 C 18.2 4.4 19.1 3.9 20.0 3.9 C 20.6 3.9 21.2 4.2 21.4 4.9 L 24.3 12.6 L 37.4 12.6 C 38.3 12.6 39.0 13.2 39.0 14.2 C 39.0 15.1 38.3 15.7 37.4 15.7 Z" transform="scale(1,-1)" stroke-dasharray="160.05830605244188" stroke-dashoffset="160.05830605244188"><animate attributeName="stroke-dashoffset" from="160.05830605244188" to="0" dur="4.801749181573256s" begin="0s; 15s; 30s; 45s; 60s" fill="freeze" id="anim0" /></path></g></svg>