<?xml version='1.0' encoding='utf-8'?>
<svg viewBox="0 -44.0 50.0 50.0" version="1.1" xmlns="http://www.w3.org/2000/svg"><rect x="-1000" y="-1000" width="2000" height="2000" stroke="white" fill="white" /><g style="fill:none;stroke:#000000;stroke-width:1"><path d="M 35.6 36.7 C 35.6 37.9 34.6 38.4 33.7 38.4 C 32.8 38.4 31.8 37.9 31.8 36.7 L 31.8 27.0 C 26.9 26.7 22.0 26.3 17.1 26.0 L 17.1 34.8 C 17.1 36.0 16.2 36.6 15.2 36.6 C 14.2 36.6 13.3 36.0 13.3 34.8 L 13.3 25.7 C 10.2 25.5 7.0 25.2 3.9 25.0 C 2.7 24.9 2.1 24.0 2.1 23.2 C 2.1 22.2 2.8 21.3 4.2 21.4 C 7.2 21.7 10.2 21.9 13.3 22.2 L 13.3 20.8 C 13.3 16.1 13.4 11.9 13.7 7.9 C 14.0 2.5 16.9 -0.1 23.8 -0.1 C 28.9 -0.1 33.2 0.2 37.6 1.3 C 38.7 1.6 39.2 2.4 39.2 3.2 C 39.2 4.2 38.3 5.3 36.8 5.0 C 32.6 4.0 28.4 3.6 23.8 3.6 C 19.2 3.6 17.7 5.0 17.4 8.3 C 17.2 12.0 17.1 16.4 17.1 21.0 L 17.1 22.5 C 22.0 22.8 26.9 23.2 31.8 23.5 C 31.8 20.2 31.6 18.1 31.3 16.4 C 31.0 14.8 30.2 14.4 28.8 14.4 C 28.1 14.4 27.5 14.5 26.9 14.6 C 25.5 14.9 24.7 13.9 24.7 12.9 C 24.7 12.1 25.2 11.2 26.2 11.1 C 26.9 10.9 28.0 10.8 28.9 10.8 C 32.6 10.8 34.4 12.5 35.0 16.0 C 35.4 17.9 35.6 20.2 35.6 23.7 C 38.8 23.9 42.1 24.1 45.2 24.2 C 46.4 24.2 47.0 25.1 47.0 26.0 C 47.0 26.9 46.2 27.9 44.9 27.8 C 41.8 27.6 38.7 27.4 35.6 27.2 Z " transform="scale(1,-1)" stroke-dasharray="250.83806591959734" stroke-dashoffset="250.83806591959734"><animate attributeName="stroke-dashoffset" from="250.83806591959734" to="0" dur="7.52514197758792s" begin="0s; 15s; 30s; 45s; 60s" fill="freeze" id="anim0" /></path><path d="M 38.5 37.1 C 39.5 35.6 40.5 33.5 41.3 31.5 C 41.6 30.8 42.2 30.5 42.7 30.5 C 43.5 30.5 44.2 31.1 44.2 32.1 C 44.2 32.3 44.2 32.6 44.1 32.9 C 43.4 34.7 42.1 37.1 41.0 38.6 C 40.7 39.1 40.2 39.4 39.7 39.4 C 38.9 39.4 38.2 38.8 38.2 38.0 C 38.2 37.6 38.3 37.4 38.5 37.1 Z " transform="scale(1,-1)" stroke-dasharray="22.70203508920242" stroke-dashoffset="22.70203508920242"><animate attributeName="stroke-dashoffset" from="22.70203508920242" to="0" dur="0.6810610526760725s" begin="anim0.end" fill="freeze" id="anim1" /></path><path d="M 43.7 39.6 C 44.7 38.1 46.1 35.8 46.9 34.1 C 47.1 33.5 47.6 33.1 48.1 33.1 C 48.9 33.1 49.6 33.8 49.6 34.8 C 49.6 35.0 49.6 35.3 49.4 35.6 C 48.6 37.4 47.2 39.8 46.2 41.1 C 45.8 41.6 45.4 41.8 44.9 41.8 C 44.1 41.8 43.4 41.2 43.4 40.4 C 43.4 40.1 43.5 39.9 43.7 39.6 Z" transform="scale(1,-1)" stroke-dasharray="22.44967536395451" stroke-dashoffset="22.44967536395451"><animate attributeName="stroke-dashoffset" from="22.44967536395451" to="0" dur="0.6734902609186352s" begin="anim1.end" fill="freeze" id="anim_end" /></path></g></svg>