<?xml version='1.0' encoding='utf-8'?>
<svg viewBox="0 -44.0 50.0 50.0" version="1.1" xmlns="http://www.w3.org/2000/svg"><rect x="-1000" y="-1000" width="2000" height="2000" stroke="white" fill="white" /><g style="fill:none;stroke:#000000;stroke-width:1"><path d="M 29.4 28.6 C 30.6 27.4 32.2 25.6 33.5 23.8 C 33.8 23.3 34.2 23.1 34.7 23.1 C 35.5 23.1 36.2 23.8 36.2 24.7 C 36.2 25.0 36.1 25.4 35.8 25.8 C 34.6 27.5 32.9 29.5 31.4 30.7 C 31.1 31.0 30.7 31.1 30.4 31.1 C 29.6 31.1 28.9 30.5 28.9 29.7 C 28.9 29.4 29.0 29.0 29.4 28.6 Z " transform="scale(1,-1)" stroke-dasharray="22.632744296401366" stroke-dashoffset="22.632744296401366"><animate attributeName="stroke-dashoffset" from="22.632744296401366" to="0" dur="0.6789823288920409s" begin="0s; 15s; 30s; 45s; 60s" fill="freeze" id="anim0" /></path><path d="M 33.9 32.3 C 35.1 31.2 36.9 29.2 38.1 27.6 C 38.4 27.2 38.8 27.0 39.2 27.0 C 40.0 27.0 40.7 27.7 40.7 28.5 C 40.7 28.9 40.5 29.2 40.2 29.7 C 39.2 31.2 37.2 33.2 36.0 34.4 C 35.6 34.6 35.2 34.8 34.9 34.8 C 34.1 34.8 33.4 34.1 33.4 33.4 C 33.4 33.0 33.5 32.6 33.9 32.3 Z " transform="scale(1,-1)" stroke-dasharray="22.278280892598637" stroke-dashoffset="22.278280892598637"><animate attributeName="stroke-dashoffset" from="22.278280892598637" to="0" dur="0.6683484267779591s" begin="anim0.end" fill="freeze" id="anim1" /></path><path d="M 30.6 18.2 C 27.2 21.9 22.0 25.8 17.9 27.9 C 17.4 28.2 16.9 28.2 16.5 28.2 C 15.4 28.2 14.7 27.5 14.7 26.6 C 14.7 26.0 15.0 25.3 15.9 24.8 C 19.7 22.7 24.9 18.8 27.4 15.8 C 28.1 15.1 28.3 14.4 28.3 13.9 C 28.3 13.2 28.0 12.7 27.4 12.3 C 26.1 11.5 23.9 10.5 21.7 9.9 C 20.4 9.5 19.9 8.7 19.9 7.9 C 19.9 7.0 20.6 6.1 21.9 6.1 C 22.2 6.1 22.5 6.1 22.8 6.2 C 25.3 6.9 28.0 8.1 30.0 9.4 C 31.7 10.5 32.6 12.1 32.6 13.8 C 32.6 15.2 32.0 16.7 30.6 18.2 Z" transform="scale(1,-1)" stroke-dasharray="72.4330498464243" stroke-dashoffset="72.4330498464243"><animate attributeName="stroke-dashoffset" from="72.4330498464243" to="0" dur="2.1729914953927287s" begin="anim1.end" fill="freeze" id="anim_end" /></path></g></svg>