<?xml version='1.0' encoding='utf-8'?>
<svg viewBox="0 -44.0 50.0 50.0" version="1.1" xmlns="http://www.w3.org/2000/svg"><rect x="-1000" y="-1000" width="2000" height="2000" stroke="white" fill="white" /><g style="fill:none;stroke:#000000;stroke-width:1"><path d="M 11.6 13.5 C 7.2 13.5 3.5 10.0 3.5 5.5 C 3.5 1.1 7.2 -2.5 11.6 -2.5 C 16.1 -2.5 19.7 1.1 19.7 5.5 C 19.7 10.0 16.1 13.5 11.6 13.5 Z " transform="scale(1,-1)" stroke-dasharray="50.59498268921736" stroke-dashoffset="50.59498268921736"><animate attributeName="stroke-dashoffset" from="50.59498268921736" to="0" dur="1.5178494806765208s" begin="0s; 15s; 30s; 45s; 60s" fill="freeze" id="anim0" /></path><path d="M 11.6 10.8 C 14.6 10.8 16.9 8.5 16.9 5.5 C 16.9 2.5 14.6 0.2 11.6 0.2 C 8.6 0.2 6.3 2.5 6.3 5.5 C 6.3 8.5 8.6 10.8 11.6 10.8 Z" transform="scale(1,-1)" stroke-dasharray="33.4329578036544" stroke-dashoffset="33.4329578036544"><animate attributeName="stroke-dashoffset" from="33.4329578036544" to="0" dur="1.002988734109632s" begin="anim0.end" fill="freeze" id="anim_end" /></path></g></svg>