<?xml version='1.0' encoding='utf-8'?>
<svg viewBox="0 -44.0 50.0 50.0" version="1.1" xmlns="http://www.w3.org/2000/svg"><rect x="-1000" y="-1000" width="2000" height="2000" stroke="white" fill="white" /><g style="fill:none;stroke:#000000;stroke-width:1"><path d="M 19.3 21.8 L 36.7 24.8 C 37.5 25.0 37.9 24.9 37.9 24.5 C 37.9 24.4 37.8 24.2 37.6 23.9 C 36.1 20.8 33.8 17.8 31.2 15.9 C 30.5 15.4 30.2 14.7 30.2 14.2 C 30.2 13.2 31.1 12.4 32.1 12.4 C 32.6 12.4 33.1 12.5 33.6 12.9 C 36.8 15.4 39.7 19.1 41.2 22.5 C 41.8 23.6 42.0 24.6 42.0 25.4 C 42.0 27.5 40.7 28.7 38.3 28.7 C 37.9 28.7 37.4 28.6 36.9 28.5 L 19.3 25.5 L 19.3 37.6 C 19.3 38.9 18.3 39.5 17.3 39.5 C 16.3 39.5 15.3 38.9 15.3 37.6 L 15.3 24.8 L 5.1 23.1 C 4.0 22.9 3.5 22.0 3.5 21.1 C 3.5 20.1 4.2 19.1 5.6 19.4 L 15.3 21.1 L 15.3 7.0 C 15.3 1.2 17.4 -0.7 26.2 -0.7 C 31.0 -0.7 35.1 -0.5 39.5 0.4 C 40.6 0.6 41.2 1.5 41.2 2.3 C 41.2 3.5 40.2 4.6 38.8 4.3 C 34.6 3.5 30.6 3.2 26.2 3.2 C 20.0 3.2 19.3 4.2 19.3 7.8 Z " transform="scale(1,-1)" stroke-dasharray="220.33445692082324" stroke-dashoffset="220.33445692082324"><animate attributeName="stroke-dashoffset" from="220.33445692082324" to="0" dur="6.610033707624697s" begin="0s; 15s; 30s; 45s; 60s" fill="freeze" id="anim0" /></path><path d="M 36.4 36.0 C 37.6 34.8 39.2 33.0 40.5 31.2 C 40.9 30.7 41.3 30.5 41.8 30.5 C 42.6 30.5 43.2 31.2 43.2 32.1 C 43.2 32.4 43.2 32.8 42.9 33.2 C 41.7 34.9 40.0 36.9 38.5 38.1 C 38.1 38.4 37.8 38.5 37.4 38.5 C 36.6 38.5 35.9 37.9 35.9 37.1 C 35.9 36.8 36.1 36.4 36.4 36.0 Z " transform="scale(1,-1)" stroke-dasharray="22.689774996895217" stroke-dashoffset="22.689774996895217"><animate attributeName="stroke-dashoffset" from="22.689774996895217" to="0" dur="0.6806932499068565s" begin="anim0.end" fill="freeze" id="anim1" /></path><path d="M 40.9 39.7 C 42.2 38.6 44.0 36.6 45.1 35.0 C 45.5 34.6 45.9 34.4 46.2 34.4 C 47.0 34.4 47.7 35.1 47.7 35.9 C 47.7 36.3 47.6 36.6 47.3 37.1 C 46.2 38.6 44.3 40.7 43.0 41.8 C 42.7 42.1 42.2 42.2 41.9 42.2 C 41.1 42.2 40.4 41.5 40.4 40.8 C 40.4 40.4 40.6 40.1 40.9 39.7 Z" transform="scale(1,-1)" stroke-dasharray="22.294748021003485" stroke-dashoffset="22.294748021003485"><animate attributeName="stroke-dashoffset" from="22.294748021003485" to="0" dur="0.6688424406301046s" begin="anim1.end" fill="freeze" id="anim_end" /></path></g></svg>