<?xml version='1.0' encoding='utf-8'?>
<svg viewBox="0 -44.0 50.0 50.0" version="1.1" xmlns="http://www.w3.org/2000/svg"><rect x="-1000" y="-1000" width="2000" height="2000" stroke="white" fill="white" /><g style="fill:none;stroke:#000000;stroke-width:1"><path d="M 36.1 20.9 L 14.9 20.9 C 13.7 20.9 13.1 20.0 13.1 19.1 C 13.1 18.1 13.7 17.2 14.9 17.2 L 36.1 17.2 L 36.1 7.8 C 36.1 6.2 35.4 5.4 33.0 5.4 L 12.2 5.4 C 11.0 5.4 10.4 4.5 10.4 3.6 C 10.4 2.6 11.0 1.7 12.2 1.7 L 33.8 1.7 C 38.0 1.7 40.0 3.7 40.0 6.8 L 40.0 29.9 C 40.0 33.0 38.0 35.0 33.8 35.0 L 13.0 35.0 C 11.8 35.0 11.1 34.0 11.1 33.1 C 11.1 32.1 11.8 31.2 13.0 31.2 L 33.0 31.2 C 35.4 31.2 36.1 30.5 36.1 28.9 Z" transform="scale(1,-1)" stroke-dasharray="210.98689633142143" stroke-dashoffset="210.98689633142143"><animate attributeName="stroke-dashoffset" from="210.98689633142143" to="0" dur="6.329606889942643s" begin="0s; 15s; 30s; 45s; 60s" fill="freeze" id="anim0" /></path></g></svg>