<?xml version='1.0' encoding='utf-8'?>
<svg viewBox="0 -44.0 50.0 50.0" version="1.1" xmlns="http://www.w3.org/2000/svg"><rect x="-1000" y="-1000" width="2000" height="2000" stroke="white" fill="white" /><g style="fill:none;stroke:#000000;stroke-width:1"><path d="M 31.5 30.0 L 31.5 38.3 C 31.5 39.5 30.5 40.1 29.6 40.1 C 28.6 40.1 27.6 39.5 27.6 38.3 L 27.6 30.0 L 8.8 30.0 C 7.7 30.0 7.2 29.1 7.2 28.2 C 7.2 27.4 7.7 26.5 8.8 26.5 L 13.8 26.5 L 13.8 15.0 L 5.9 15.0 C 4.8 15.0 4.2 14.1 4.2 13.2 C 4.2 12.3 4.8 11.4 5.9 11.4 L 27.6 11.4 L 27.6 -0.6 C 27.6 -1.8 28.6 -2.4 29.6 -2.4 C 30.5 -2.4 31.5 -1.8 31.5 -0.6 L 31.5 11.4 L 44.3 11.4 C 45.5 11.4 46.1 12.3 46.1 13.2 C 46.1 14.1 45.5 15.0 44.3 15.0 L 31.5 15.0 L 31.5 26.5 L 41.4 26.5 C 42.6 26.5 43.2 27.4 43.2 28.2 C 43.2 29.1 42.6 30.0 41.4 30.0 Z " transform="scale(1,-1)" stroke-dasharray="196.46582863256035" stroke-dashoffset="196.46582863256035"><animate attributeName="stroke-dashoffset" from="196.46582863256035" to="0" dur="5.89397485897681s" begin="0s; 15s; 30s; 45s; 60s" fill="freeze" id="anim0" /></path><path d="M 27.6 15.0 L 17.6 15.0 L 17.6 26.5 L 27.6 26.5 Z" transform="scale(1,-1)" stroke-dasharray="43.0" stroke-dashoffset="43.0"><animate attributeName="stroke-dashoffset" from="43.0" to="0" dur="1.29s" begin="anim0.end" fill="freeze" id="anim_end" /></path></g></svg>