<?xml version='1.0' encoding='utf-8'?>
<svg viewBox="0 -44.0 50.0 50.0" version="1.1" xmlns="http://www.w3.org/2000/svg"><rect x="-1000" y="-1000" width="2000" height="2000" stroke="white" fill="white" /><g style="fill:none;stroke:#000000;stroke-width:1"><path d="M 38.1 -2.4 C 42.9 -2.4 44.8 -0.7 44.8 3.2 L 44.8 27.1 C 44.8 31.0 42.9 32.8 38.1 32.8 L 32.5 32.8 C 33.4 34.8 34.3 37.1 34.9 38.8 C 35.0 39.0 35.0 39.2 35.0 39.5 C 35.0 40.6 34.0 41.3 33.0 41.3 C 32.2 41.3 31.4 40.9 31.1 39.9 C 30.5 37.6 29.6 35.1 28.5 32.8 L 26.4 32.8 C 21.9 32.8 20.2 31.0 20.2 27.1 L 20.2 3.2 C 20.3 -1.2 22.7 -2.3 26.8 -2.4 Z " transform="scale(1,-1)" stroke-dasharray="127.11716453837708" stroke-dashoffset="127.11716453837708"><animate attributeName="stroke-dashoffset" from="127.11716453837708" to="0" dur="3.8135149361513125s" begin="0s; 15s; 30s; 45s; 60s" fill="freeze" id="anim0" /></path><path d="M 27.6 0.9 C 24.8 0.9 23.9 1.5 23.9 4.0 L 23.9 14.6 L 41.1 14.6 L 41.1 4.0 C 41.0 1.2 39.9 0.9 37.4 0.9 Z " transform="scale(1,-1)" stroke-dasharray="59.625820651932365" stroke-dashoffset="59.625820651932365"><animate attributeName="stroke-dashoffset" from="59.625820651932365" to="0" dur="1.7887746195579708s" begin="anim0.end" fill="freeze" id="anim1" /></path><path d="M 41.1 17.9 L 23.9 17.9 L 23.9 26.5 C 23.9 29.0 24.8 29.5 27.6 29.5 L 37.4 29.5 C 40.2 29.5 41.1 29.0 41.1 26.5 Z " transform="scale(1,-1)" stroke-dasharray="55.52423966819583" stroke-dashoffset="55.52423966819583"><animate attributeName="stroke-dashoffset" from="55.52423966819583" to="0" dur="1.665727190045875s" begin="anim1.end" fill="freeze" id="anim2" /></path><path d="M 10.6 27.8 C 12.4 31.5 14.0 35.6 15.0 39.3 C 15.1 39.5 15.1 39.8 15.1 40.0 C 15.1 41.1 14.2 41.7 13.2 41.7 C 12.5 41.7 11.8 41.2 11.5 40.3 C 9.6 32.8 5.8 24.9 2.1 20.0 C 1.8 19.5 1.6 19.1 1.6 18.7 C 1.6 17.9 2.3 17.2 3.2 17.2 C 3.7 17.2 4.2 17.5 4.7 18.1 C 6.0 19.8 7.5 22.0 8.8 24.5 L 8.8 -2.6 C 8.8 -3.6 9.7 -4.2 10.6 -4.2 C 11.5 -4.2 12.4 -3.6 12.4 -2.6 L 12.4 26.2 C 12.4 27.3 11.5 27.8 10.7 27.8 Z" transform="scale(1,-1)" stroke-dasharray="117.99344081294475" stroke-dashoffset="117.99344081294475"><animate attributeName="stroke-dashoffset" from="117.99344081294475" to="0" dur="3.5398032243883426s" begin="anim2.end" fill="freeze" id="anim_end" /></path></g></svg>