<?xml version='1.0' encoding='utf-8'?>
<svg viewBox="0 -44.0 50.0 50.0" version="1.1" xmlns="http://www.w3.org/2000/svg"><rect x="-1000" y="-1000" width="2000" height="2000" stroke="white" fill="white" /><g style="fill:none;stroke:#000000;stroke-width:1"><path d="M 23.0 28.5 L 23.0 -2.9 C 23.0 -3.9 23.9 -4.4 24.8 -4.4 C 25.7 -4.4 26.6 -3.9 26.6 -2.9 L 26.6 28.5 L 45.6 28.5 C 46.6 28.5 47.1 29.3 47.1 30.1 C 47.1 30.9 46.6 31.6 45.6 31.6 L 26.6 31.6 L 26.6 36.3 C 31.0 36.8 35.3 37.4 39.2 38.2 C 40.2 38.4 40.8 39.1 40.8 39.8 C 40.8 40.8 39.9 41.8 38.5 41.5 C 29.5 39.6 18.6 38.6 9.8 38.4 C 8.7 38.4 8.2 37.6 8.2 36.9 C 8.2 36.1 8.8 35.2 9.9 35.2 C 14.0 35.4 18.5 35.6 23.0 36.0 L 23.0 31.6 L 4.4 31.6 C 3.4 31.6 2.9 30.9 2.9 30.1 C 2.9 29.3 3.4 28.5 4.4 28.5 Z " transform="scale(1,-1)" stroke-dasharray="227.69748245144643" stroke-dashoffset="227.69748245144643"><animate attributeName="stroke-dashoffset" from="227.69748245144643" to="0" dur="6.8309244735433925s" begin="0s; 15s; 30s; 45s; 60s" fill="freeze" id="anim0" /></path><path d="M 14.4 21.9 L 5.2 21.9 C 4.3 21.9 3.8 21.2 3.8 20.4 C 3.8 19.7 4.3 18.9 5.2 18.9 L 14.4 18.9 L 14.4 15.2 C 10.7 13.4 6.7 12.0 3.6 11.2 C 2.6 10.9 2.1 10.2 2.1 9.5 C 2.1 8.7 2.8 7.8 3.8 7.8 C 4.0 7.8 4.2 7.9 4.4 7.9 C 7.2 8.8 11.0 10.2 14.4 11.8 L 14.4 7.1 C 14.4 6.1 15.3 5.6 16.2 5.6 C 17.1 5.6 17.9 6.1 17.9 7.1 L 17.9 24.6 C 17.9 25.7 17.1 26.2 16.2 26.2 C 15.3 26.2 14.4 25.7 14.4 24.6 Z " transform="scale(1,-1)" stroke-dasharray="90.07334814380064" stroke-dashoffset="90.07334814380064"><animate attributeName="stroke-dashoffset" from="90.07334814380064" to="0" dur="2.7022004443140193s" begin="anim0.end" fill="freeze" id="anim1" /></path><path d="M 35.5 16.4 C 38.3 17.2 41.5 18.6 44.6 20.3 C 45.2 20.7 45.5 21.2 45.5 21.7 C 45.5 22.6 44.7 23.5 43.8 23.5 C 43.5 23.5 43.2 23.4 42.8 23.2 C 40.5 21.8 37.9 20.6 35.5 19.7 L 35.5 24.8 C 35.5 25.7 34.6 26.2 33.8 26.2 C 32.9 26.2 32.0 25.7 32.0 24.8 L 32.0 10.8 C 32.0 8.1 33.3 7.1 39.2 7.1 C 45.5 7.1 47.7 8.5 48.2 13.2 C 48.2 14.5 47.4 15.1 46.5 15.1 C 45.8 15.1 45.0 14.6 44.9 13.6 C 44.6 10.7 43.8 10.2 39.2 10.2 C 35.9 10.2 35.5 10.6 35.5 11.5 Z" transform="scale(1,-1)" stroke-dasharray="91.61571467993755" stroke-dashoffset="91.61571467993755"><animate attributeName="stroke-dashoffset" from="91.61571467993755" to="0" dur="2.7484714403981263s" begin="anim1.end" fill="freeze" id="anim_end" /></path></g></svg>