<?xml version='1.0' encoding='utf-8'?>
<svg viewBox="0 -44.0 50.0 50.0" version="1.1" xmlns="http://www.w3.org/2000/svg"><rect x="-1000" y="-1000" width="2000" height="2000" stroke="white" fill="white" /><g style="fill:none;stroke:#000000;stroke-width:1"><path d="M 33.5 22.0 C 37.1 22.0 38.5 23.2 38.5 25.7 L 38.5 28.1 C 38.5 30.6 37.1 31.7 33.5 31.7 L 16.8 31.7 C 13.2 31.7 11.9 30.6 11.9 28.1 L 11.9 25.7 C 11.9 22.6 14.2 22.1 16.8 22.0 Z " transform="scale(1,-1)" stroke-dasharray="66.51116218691092" stroke-dashoffset="66.51116218691092"><animate attributeName="stroke-dashoffset" from="66.51116218691092" to="0" dur="1.9953348656073275s" begin="0s; 15s; 30s; 45s; 60s" fill="freeze" id="anim0" /></path><path d="M 17.4 24.8 C 15.7 24.8 15.2 25.2 15.2 26.2 L 15.2 27.5 C 15.2 28.6 15.7 28.9 17.4 28.9 L 32.9 28.9 C 34.6 28.9 35.1 28.6 35.1 27.5 L 35.1 26.2 C 35.1 24.9 34.0 24.9 32.9 24.8 Z " transform="scale(1,-1)" stroke-dasharray="45.67876755975917" stroke-dashoffset="45.67876755975917"><animate attributeName="stroke-dashoffset" from="45.67876755975917" to="0" dur="1.370363026792775s" begin="anim0.end" fill="freeze" id="anim1" /></path><path d="M 27.0 9.9 C 30.3 10.8 33.6 12.1 36.4 13.7 C 37.8 14.5 38.4 15.5 38.4 16.4 C 38.4 17.8 37.1 19.0 34.6 19.0 L 10.4 19.0 C 9.4 19.0 8.9 18.2 8.9 17.4 C 8.9 16.8 9.3 16.0 10.4 16.0 L 33.2 16.0 C 33.6 16.0 33.8 15.9 33.8 15.8 C 33.8 15.7 33.6 15.6 33.4 15.4 C 31.6 14.4 28.9 13.5 26.5 12.7 C 26.1 13.0 25.6 13.1 25.2 13.1 C 24.2 13.1 23.4 12.6 23.4 11.7 L 23.4 9.1 L 4.2 9.1 C 3.2 9.1 2.6 8.3 2.6 7.6 C 2.6 6.8 3.2 6.1 4.2 6.1 L 23.4 6.1 L 23.4 1.0 C 23.4 -0.4 22.9 -0.7 21.7 -0.7 C 21.0 -0.7 20.1 -0.6 19.3 -0.5 C 17.9 -0.2 17.2 -1.2 17.2 -2.1 C 17.2 -2.8 17.7 -3.6 18.8 -3.8 C 19.8 -4.0 20.9 -4.1 21.9 -4.1 C 25.4 -4.1 27.0 -2.8 27.0 0.5 L 27.0 6.1 L 46.0 6.1 C 47.0 6.1 47.5 6.8 47.5 7.6 C 47.5 8.3 47.0 9.1 46.0 9.1 L 27.0 9.1 Z " transform="scale(1,-1)" stroke-dasharray="205.27334517505892" stroke-dashoffset="205.27334517505892"><animate attributeName="stroke-dashoffset" from="205.27334517505892" to="0" dur="6.1582003552517675s" begin="anim1.end" fill="freeze" id="anim2" /></path><path d="M 26.7 37.6 L 26.7 40.8 C 26.7 41.9 25.8 42.4 24.9 42.4 C 24.0 42.4 23.1 41.9 23.1 40.8 L 23.1 37.6 L 4.9 37.6 C 4.0 37.6 3.5 36.9 3.5 36.1 C 3.5 35.4 4.0 34.6 4.9 34.6 L 45.1 34.6 C 46.1 34.6 46.6 35.4 46.6 36.1 C 46.6 36.9 46.1 37.6 45.1 37.6 Z" transform="scale(1,-1)" stroke-dasharray="97.95607411916343" stroke-dashoffset="97.95607411916343"><animate attributeName="stroke-dashoffset" from="97.95607411916343" to="0" dur="2.938682223574903s" begin="anim2.end" fill="freeze" id="anim_end" /></path></g></svg>