<?xml version='1.0' encoding='utf-8'?>
<svg viewBox="0 -44.0 50.0 50.0" version="1.1" xmlns="http://www.w3.org/2000/svg"><rect x="-1000" y="-1000" width="2000" height="2000" stroke="white" fill="white" /><g style="fill:none;stroke:#000000;stroke-width:1"><path d="M 19.9 26.8 C 17.4 20.9 13.2 17.5 7.5 15.6 C 6.4 15.2 6.0 14.6 6.0 13.9 C 6.0 13.1 6.7 12.4 7.7 12.4 C 7.9 12.4 8.1 12.5 8.3 12.5 C 15.3 14.6 20.9 19.2 23.5 26.8 L 30.8 26.8 C 32.6 26.8 33.0 26.6 32.9 25.6 C 32.8 23.3 32.5 21.4 31.9 19.6 C 31.4 18.0 30.5 17.7 29.2 17.7 C 28.3 17.7 27.2 17.9 26.5 18.1 C 25.1 18.4 24.2 17.4 24.2 16.4 C 24.2 15.7 24.7 15.0 25.8 14.7 C 26.8 14.4 28.1 14.2 29.5 14.2 C 32.6 14.2 34.4 15.5 35.4 18.7 C 36.1 20.9 36.4 23.0 36.5 25.8 C 36.6 28.2 35.3 29.8 31.6 29.8 L 15.0 29.8 C 14.1 29.8 13.6 29.0 13.6 28.2 C 13.6 27.5 14.1 26.8 15.0 26.8 Z " transform="scale(1,-1)" stroke-dasharray="125.48007617938967" stroke-dashoffset="125.48007617938967"><animate attributeName="stroke-dashoffset" from="125.48007617938967" to="0" dur="3.76440228538169s" begin="0s; 15s; 30s; 45s; 60s" fill="freeze" id="anim0" /></path><path d="M 14.5 1.1 C 14.5 -2.2 15.9 -3.1 24.7 -3.1 C 34.1 -3.1 36.5 -1.7 37.0 3.4 C 37.1 4.6 36.2 5.2 35.2 5.2 C 34.5 5.2 33.6 4.8 33.6 3.8 C 33.2 0.6 32.2 -0.1 24.7 -0.1 C 18.6 -0.1 18.1 0.3 18.1 2.0 L 18.1 9.3 C 18.1 10.4 17.2 10.9 16.2 10.9 C 15.4 10.9 14.5 10.4 14.5 9.3 Z " transform="scale(1,-1)" stroke-dasharray="73.37943451588245" stroke-dashoffset="73.37943451588245"><animate attributeName="stroke-dashoffset" from="73.37943451588245" to="0" dur="2.2013830354764736s" begin="anim0.end" fill="freeze" id="anim1" /></path><path d="M 7.4 8.2 C 6.5 6.0 5.4 4.0 4.0 2.3 C 3.7 1.9 3.6 1.4 3.6 1.0 C 3.6 0.1 4.4 -0.6 5.3 -0.6 C 5.9 -0.6 6.5 -0.4 7.0 0.2 C 8.3 2.0 9.7 4.5 10.6 6.8 C 10.8 7.2 10.8 7.5 10.8 7.7 C 10.8 8.8 10.0 9.3 9.1 9.3 C 8.5 9.3 7.8 9.0 7.4 8.2 Z " transform="scale(1,-1)" stroke-dasharray="25.99224487399028" stroke-dashoffset="25.99224487399028"><animate attributeName="stroke-dashoffset" from="25.99224487399028" to="0" dur="0.7797673462197083s" begin="anim1.end" fill="freeze" id="anim2" /></path><path d="M 41.2 9.3 C 40.8 9.8 40.2 10.0 39.7 10.0 C 38.8 10.0 38.1 9.3 38.1 8.6 C 38.1 8.2 38.2 7.7 38.6 7.3 C 40.0 5.8 41.6 3.8 42.6 2.1 C 43.1 1.2 43.8 1.0 44.4 1.0 C 45.3 1.0 46.2 1.7 46.2 2.7 C 46.2 3.2 46.0 3.6 45.7 4.1 C 44.6 5.9 42.8 8.0 41.2 9.3 Z " transform="scale(1,-1)" stroke-dasharray="25.442269976201164" stroke-dashoffset="25.442269976201164"><animate attributeName="stroke-dashoffset" from="25.442269976201164" to="0" dur="0.7632680992860349s" begin="anim2.end" fill="freeze" id="anim3" /></path><path d="M 21.3 40.2 C 20.4 40.2 19.9 39.5 19.9 38.7 C 19.9 37.9 20.4 37.1 21.3 37.1 L 29.9 37.1 C 31.3 37.1 32.1 36.6 32.9 35.6 C 35.5 32.1 39.9 28.2 44.4 25.4 C 44.9 25.1 45.3 25.0 45.7 25.0 C 46.8 25.0 47.5 25.8 47.5 26.7 C 47.5 27.4 47.2 28.0 46.3 28.5 C 41.9 31.1 38.0 34.5 35.4 37.9 C 34.1 39.5 32.8 40.2 30.1 40.2 Z " transform="scale(1,-1)" stroke-dasharray="67.95451406451015" stroke-dashoffset="67.95451406451015"><animate attributeName="stroke-dashoffset" from="67.95451406451015" to="0" dur="2.0386354219353042s" begin="anim3.end" fill="freeze" id="anim4" /></path><path d="M 13.9 37.6 C 11.1 33.5 7.2 29.6 3.4 27.2 C 2.7 26.7 2.4 26.1 2.4 25.5 C 2.4 24.7 3.0 23.9 4.0 23.9 C 4.3 23.9 4.8 24.1 5.2 24.3 C 9.6 27.1 13.9 31.2 16.9 35.8 C 17.2 36.2 17.3 36.6 17.3 36.9 C 17.3 37.9 16.4 38.6 15.5 38.6 C 14.9 38.6 14.3 38.3 13.9 37.6 Z " transform="scale(1,-1)" stroke-dasharray="43.16144583665222" stroke-dashoffset="43.16144583665222"><animate attributeName="stroke-dashoffset" from="43.16144583665222" to="0" dur="1.2948433750995665s" begin="anim4.end" fill="freeze" id="anim5" /></path><path d="M 25.0 12.2 C 24.6 12.5 24.2 12.6 23.8 12.6 C 22.9 12.6 22.1 11.9 22.1 11.1 C 22.1 10.7 22.3 10.2 22.8 9.8 C 23.9 9.0 25.3 7.6 26.5 6.3 C 26.9 5.9 27.4 5.7 27.9 5.7 C 28.8 5.7 29.6 6.4 29.6 7.4 C 29.6 7.8 29.4 8.3 29.0 8.8 C 27.8 10.1 26.3 11.2 25.0 12.2 Z" transform="scale(1,-1)" stroke-dasharray="21.46279257189253" stroke-dashoffset="21.46279257189253"><animate attributeName="stroke-dashoffset" from="21.46279257189253" to="0" dur="0.6438837771567758s" begin="anim5.end" fill="freeze" id="anim_end" /></path></g></svg>