<?xml version='1.0' encoding='utf-8'?>
<svg viewBox="0 -44.0 50.0 50.0" version="1.1" xmlns="http://www.w3.org/2000/svg"><rect x="-1000" y="-1000" width="2000" height="2000" stroke="white" fill="white" /><g style="fill:none;stroke:#000000;stroke-width:1"><path d="M 33.2 19.5 L 42.2 19.5 C 43.6 19.5 44.0 19.0 44.0 17.9 L 44.0 15.8 C 44.0 14.8 44.8 14.2 45.7 14.2 C 46.5 14.2 47.4 14.8 47.4 15.8 L 47.4 18.7 C 47.4 21.1 46.1 22.5 42.9 22.5 L 21.1 22.5 C 17.9 22.5 16.7 21.1 16.7 18.7 L 16.7 15.5 C 16.7 14.5 17.5 13.9 18.4 13.9 C 19.2 13.9 20.0 14.5 20.0 15.5 L 20.0 17.9 C 20.0 19.0 20.4 19.5 21.8 19.5 L 29.9 19.5 L 29.9 14.8 L 25.3 14.8 C 21.7 14.8 20.6 13.6 20.6 10.8 L 20.6 2.3 C 20.6 1.3 21.4 0.8 22.2 0.8 C 23.1 0.8 23.9 1.3 23.9 2.3 L 23.9 10.2 C 23.9 11.6 24.4 11.9 26.0 11.9 L 29.9 11.9 L 29.9 -2.6 C 29.9 -3.6 30.8 -4.2 31.6 -4.2 C 32.4 -4.2 33.2 -3.6 33.2 -2.6 L 33.2 11.9 L 38.1 11.9 C 39.7 11.9 40.0 11.6 40.0 10.2 L 40.0 5.8 C 40.0 4.8 39.7 4.4 39.1 4.4 C 38.7 4.4 38.0 4.5 37.4 4.5 C 36.4 4.7 35.8 3.9 35.8 3.1 C 35.8 2.4 36.1 1.7 37.1 1.5 C 37.8 1.3 38.5 1.2 39.6 1.2 C 41.8 1.2 43.4 2.5 43.4 5.3 L 43.4 10.8 C 43.4 13.7 42.0 14.8 38.3 14.8 L 33.2 14.8 Z " transform="scale(1,-1)" stroke-dasharray="210.4673751161723" stroke-dashoffset="210.4673751161723"><animate attributeName="stroke-dashoffset" from="210.4673751161723" to="0" dur="6.314021253485168s" begin="0s; 15s; 30s; 45s; 60s" fill="freeze" id="anim0" /></path><path d="M 39.6 31.6 L 39.6 30.4 C 39.6 29.0 39.0 28.6 37.1 28.6 L 21.7 28.6 C 20.8 28.6 20.3 27.9 20.3 27.2 C 20.3 26.4 20.8 25.7 21.7 25.7 L 37.8 25.7 C 41.5 25.7 42.9 27.5 42.9 29.8 L 42.9 36.1 C 42.9 38.5 41.5 40.3 37.8 40.3 L 22.0 40.3 C 21.0 40.3 20.6 39.6 20.6 38.9 C 20.6 38.1 21.0 37.4 22.0 37.4 L 37.1 37.4 C 39.0 37.4 39.6 37.0 39.6 35.6 L 39.6 34.5 L 23.7 34.5 C 22.8 34.5 22.2 33.8 22.2 33.1 C 22.2 32.3 22.8 31.6 23.7 31.6 Z " transform="scale(1,-1)" stroke-dasharray="138.71471583244247" stroke-dashoffset="138.71471583244247"><animate attributeName="stroke-dashoffset" from="138.71471583244247" to="0" dur="4.161441474973274s" begin="anim0.end" fill="freeze" id="anim1" /></path><path d="M 4.0 17.1 C 4.0 16.1 4.9 15.6 5.7 15.6 C 6.6 15.6 7.4 16.1 7.4 17.1 L 7.4 33.9 C 7.4 35.0 6.6 35.5 5.7 35.5 C 4.9 35.5 4.0 35.0 4.0 33.9 Z " transform="scale(1,-1)" stroke-dasharray="43.93160652090665" stroke-dashoffset="43.93160652090665"><animate attributeName="stroke-dashoffset" from="43.93160652090665" to="0" dur="1.3179481956271994s" begin="anim1.end" fill="freeze" id="anim2" /></path><path d="M 11.1 22.1 C 11.1 12.4 8.7 5.1 4.2 0.2 C 3.8 -0.4 3.7 -0.9 3.7 -1.3 C 3.7 -2.2 4.4 -3.0 5.2 -3.0 C 5.7 -3.0 6.2 -2.7 6.8 -2.1 C 11.7 3.4 14.5 11.6 14.5 21.8 L 14.5 40.0 C 14.5 41.0 13.7 41.6 12.8 41.6 C 12.0 41.6 11.1 41.0 11.1 40.0 Z" transform="scale(1,-1)" stroke-dasharray="96.45970586574592" stroke-dashoffset="96.45970586574592"><animate attributeName="stroke-dashoffset" from="96.45970586574592" to="0" dur="2.8937911759723773s" begin="anim2.end" fill="freeze" id="anim_end" /></path></g></svg>