<?xml version='1.0' encoding='utf-8'?>
<svg viewBox="0 -44.0 50.0 50.0" version="1.1" xmlns="http://www.w3.org/2000/svg"><rect x="-1000" y="-1000" width="2000" height="2000" stroke="white" fill="white" /><g style="fill:none;stroke:#000000;stroke-width:1"><path d="M 14.4 27.8 C 10.7 27.8 9.1 26.2 9.1 23.3 L 9.1 18.6 C 9.1 15.7 10.7 14.1 14.4 14.1 L 21.2 14.1 C 18.1 6.5 12.2 2.1 4.2 -0.2 C 3.2 -0.5 2.8 -1.2 2.8 -1.9 C 2.8 -2.7 3.4 -3.5 4.5 -3.5 C 4.6 -3.5 4.8 -3.5 5.0 -3.4 C 14.4 -1.0 21.5 4.8 24.9 14.1 L 26.2 14.1 L 26.2 2.1 C 26.2 -1.6 27.3 -3.0 35.8 -3.0 C 45.2 -3.0 47.3 -0.9 47.6 4.8 C 47.6 5.9 46.7 6.6 45.8 6.6 C 45.1 6.6 44.2 6.1 44.2 5.0 C 43.7 1.0 42.8 0.2 35.7 0.2 C 30.5 0.2 29.8 0.9 29.8 2.5 L 29.8 14.1 L 37.0 14.1 C 40.7 14.1 42.3 15.7 42.3 18.6 L 42.3 23.3 C 42.3 26.2 40.7 27.8 37.0 27.8 L 28.7 27.8 C 29.8 29.1 30.7 30.4 31.5 31.6 C 32.0 32.4 32.2 33.1 32.2 33.9 C 32.2 35.5 31.1 36.6 28.3 36.6 L 19.4 36.6 C 20.1 37.6 20.8 38.5 21.4 39.4 C 21.7 39.8 21.8 40.2 21.8 40.5 C 21.8 41.5 20.8 42.2 19.8 42.2 C 19.2 42.2 18.7 41.9 18.2 41.3 C 14.6 35.4 9.1 30.0 4.0 26.9 C 3.4 26.5 3.1 25.9 3.1 25.4 C 3.1 24.6 3.8 23.9 4.7 23.9 C 5.0 23.9 5.4 24.0 5.7 24.2 C 9.5 26.7 13.5 29.9 16.9 33.8 L 27.8 33.8 C 28.4 33.8 28.7 33.7 28.7 33.5 C 28.7 33.3 28.6 33.1 28.4 32.8 C 27.5 31.2 26.3 29.5 24.9 27.8 Z " transform="scale(1,-1)" stroke-dasharray="298.205912317544" stroke-dashoffset="298.205912317544"><animate attributeName="stroke-dashoffset" from="298.205912317544" to="0" dur="8.94617736952632s" begin="0s; 15s; 30s; 45s; 60s" fill="freeze" id="anim0" /></path><path d="M 23.5 24.9 C 23.2 22.2 22.9 19.6 22.2 17.0 L 15.4 17.0 C 13.1 17.0 12.6 17.6 12.6 19.2 L 12.6 22.7 C 12.6 24.2 13.1 24.9 15.4 24.9 Z " transform="scale(1,-1)" stroke-dasharray="34.79380565619947" stroke-dashoffset="34.79380565619947"><animate attributeName="stroke-dashoffset" from="34.79380565619947" to="0" dur="1.043814169685984s" begin="anim0.end" fill="freeze" id="anim1" /></path><path d="M 25.8 17.0 C 26.5 19.6 26.8 22.2 27.0 24.9 L 36.0 24.9 C 38.3 24.9 38.8 24.2 38.8 22.7 L 38.8 19.2 C 38.7 17.2 37.8 17.1 36.0 17.0 Z " transform="scale(1,-1)" stroke-dasharray="39.022097433826154" stroke-dashoffset="39.022097433826154"><animate attributeName="stroke-dashoffset" from="39.022097433826154" to="0" dur="1.1706629230147845s" begin="anim1.end" fill="freeze" id="anim2" /></path><path d="M 35.8 11.2 C 35.6 11.4 35.2 11.5 35.0 11.5 C 34.1 11.5 33.4 10.7 33.4 9.9 C 33.4 9.6 33.6 9.2 34.0 8.8 C 35.4 7.9 36.7 6.5 37.7 5.2 C 38.1 4.8 38.6 4.6 39.0 4.6 C 39.9 4.6 40.6 5.4 40.6 6.3 C 40.6 6.7 40.5 7.1 40.2 7.5 C 39.1 8.8 37.3 10.2 35.8 11.2 Z" transform="scale(1,-1)" stroke-dasharray="20.948143293588274" stroke-dashoffset="20.948143293588274"><animate attributeName="stroke-dashoffset" from="20.948143293588274" to="0" dur="0.6284442988076482s" begin="anim2.end" fill="freeze" id="anim_end" /></path></g></svg>