<?xml version='1.0' encoding='utf-8'?>
<svg viewBox="0 -44.0 50.0 50.0" version="1.1" xmlns="http://www.w3.org/2000/svg"><rect x="-1000" y="-1000" width="2000" height="2000" stroke="white" fill="white" /><g style="fill:none;stroke:#000000;stroke-width:1"><path d="M 45.3 16.7 C 46.3 16.7 46.8 17.4 46.8 18.2 C 46.8 19.1 46.3 19.9 45.3 19.9 L 26.1 19.9 C 26.6 22.7 26.9 25.6 27.0 28.5 L 41.7 28.5 C 42.7 28.5 43.2 29.2 43.2 30.1 C 43.2 30.9 42.7 31.7 41.7 31.7 L 27.1 31.7 C 27.1 32.0 27.1 32.4 27.1 32.8 L 27.1 40.6 C 27.1 41.7 26.2 42.2 25.2 42.2 C 24.4 42.2 23.5 41.7 23.5 40.6 L 23.5 32.6 C 23.5 32.3 23.5 32.0 23.5 31.7 L 14.6 31.7 C 15.2 33.2 15.7 34.8 16.0 36.2 C 16.3 37.6 15.2 38.4 14.2 38.4 C 13.4 38.4 12.7 38.0 12.5 37.1 C 11.5 33.0 9.2 27.8 7.2 25.2 C 6.9 24.7 6.7 24.2 6.7 23.9 C 6.7 22.9 7.6 22.2 8.5 22.2 C 9.1 22.2 9.7 22.5 10.2 23.1 C 11.2 24.4 12.2 26.4 13.2 28.5 L 23.4 28.5 C 23.2 25.6 23.0 22.7 22.5 19.9 L 4.7 19.9 C 3.7 19.9 3.2 19.1 3.2 18.2 C 3.2 17.4 3.7 16.7 4.7 16.7 L 21.7 16.7 C 20.7 13.4 19.3 10.9 17.6 8.8 C 14.5 5.2 8.8 1.8 4.0 0.0 C 3.1 -0.4 2.6 -1.1 2.6 -1.8 C 2.6 -2.6 3.3 -3.4 4.3 -3.4 C 4.5 -3.4 4.9 -3.4 5.1 -3.2 C 10.5 -1.3 16.4 2.1 20.4 6.7 C 22.2 8.8 23.7 11.2 24.9 14.6 C 28.6 6.9 36.1 0.0 44.6 -3.0 C 44.9 -3.1 45.2 -3.2 45.4 -3.2 C 46.6 -3.2 47.4 -2.2 47.4 -1.2 C 47.4 -0.5 46.9 0.4 45.8 0.8 C 37.9 3.6 30.9 9.2 27.2 16.7 Z" transform="scale(1,-1)" stroke-dasharray="329.1407005873653" stroke-dashoffset="329.1407005873653"><animate attributeName="stroke-dashoffset" from="329.1407005873653" to="0" dur="9.87422101762096s" begin="0s; 15s; 30s; 45s; 60s" fill="freeze" id="anim0" /></path></g></svg>