<?xml version='1.0' encoding='utf-8'?>
<svg viewBox="0 -44.0 50.0 50.0" version="1.1" xmlns="http://www.w3.org/2000/svg"><rect x="-1000" y="-1000" width="2000" height="2000" stroke="white" fill="white" /><g style="fill:none;stroke:#000000;stroke-width:1"><path d="M 41.7 31.9 L 44.4 31.9 C 45.4 31.9 45.9 32.6 45.9 33.4 C 45.9 34.1 45.4 34.9 44.4 34.9 L 23.8 34.9 C 24.7 36.3 25.5 37.8 26.1 39.2 C 26.2 39.5 26.3 39.8 26.3 40.1 C 26.3 41.0 25.5 41.6 24.6 41.6 C 23.9 41.6 23.2 41.2 22.9 40.4 C 21.5 37.2 18.9 33.0 16.4 30.6 C 16.0 30.1 15.8 29.6 15.8 29.1 C 15.8 28.2 16.4 27.6 17.2 27.6 C 17.7 27.6 18.2 27.8 18.7 28.2 C 19.2 28.9 19.8 29.5 20.3 30.1 L 20.3 24.2 L 17.1 24.2 C 16.2 24.2 15.7 23.4 15.7 22.7 C 15.7 21.9 16.2 21.2 17.1 21.2 L 20.3 21.2 L 20.3 12.8 L 17.6 12.8 C 16.6 12.8 16.2 12.1 16.2 11.3 C 16.2 10.6 16.6 9.8 17.6 9.8 L 45.2 9.8 C 46.2 9.8 46.7 10.6 46.7 11.3 C 46.7 12.1 46.2 12.8 45.2 12.8 L 41.7 12.8 L 41.7 21.2 L 46.6 21.2 C 47.5 21.2 48.0 21.9 48.0 22.7 C 48.0 23.4 47.5 24.2 46.6 24.2 L 41.7 24.2 Z " transform="scale(1,-1)" stroke-dasharray="157.47229656081439" stroke-dashoffset="157.47229656081439"><animate attributeName="stroke-dashoffset" from="157.47229656081439" to="0" dur="4.724168896824431s" begin="0s; 15s; 30s; 45s; 60s" fill="freeze" id="anim0" /></path><path d="M 23.5 31.9 L 26.4 31.9 L 26.4 24.2 L 23.5 24.2 Z " transform="scale(1,-1)" stroke-dasharray="21.199999999999996" stroke-dashoffset="21.199999999999996"><animate attributeName="stroke-dashoffset" from="21.199999999999996" to="0" dur="0.6359999999999999s" begin="anim0.end" fill="freeze" id="anim1" /></path><path d="M 29.4 31.9 L 32.4 31.9 L 32.4 24.2 L 29.4 24.2 Z " transform="scale(1,-1)" stroke-dasharray="21.4" stroke-dashoffset="21.4"><animate attributeName="stroke-dashoffset" from="21.4" to="0" dur="0.6419999999999999s" begin="anim1.end" fill="freeze" id="anim2" /></path><path d="M 35.4 31.9 L 38.5 31.9 L 38.5 24.2 L 35.4 24.2 Z " transform="scale(1,-1)" stroke-dasharray="21.6" stroke-dashoffset="21.6"><animate attributeName="stroke-dashoffset" from="21.6" to="0" dur="0.648s" begin="anim2.end" fill="freeze" id="anim3" /></path><path d="M 23.5 21.2 L 26.4 21.2 L 26.4 12.8 L 23.5 12.8 Z " transform="scale(1,-1)" stroke-dasharray="22.599999999999994" stroke-dashoffset="22.599999999999994"><animate attributeName="stroke-dashoffset" from="22.599999999999994" to="0" dur="0.6779999999999998s" begin="anim3.end" fill="freeze" id="anim4" /></path><path d="M 29.4 21.2 L 32.4 21.2 L 32.4 12.8 L 29.4 12.8 Z " transform="scale(1,-1)" stroke-dasharray="22.799999999999997" stroke-dashoffset="22.799999999999997"><animate attributeName="stroke-dashoffset" from="22.799999999999997" to="0" dur="0.6839999999999999s" begin="anim4.end" fill="freeze" id="anim5" /></path><path d="M 35.4 21.2 L 38.5 21.2 L 38.5 12.8 L 35.4 12.8 Z " transform="scale(1,-1)" stroke-dasharray="23.0" stroke-dashoffset="23.0"><animate attributeName="stroke-dashoffset" from="23.0" to="0" dur="0.69s" begin="anim5.end" fill="freeze" id="anim6" /></path><path d="M 10.0 10.0 C 12.8 10.0 14.1 11.2 14.1 14.2 L 14.1 32.4 C 14.1 35.4 12.8 36.6 10.0 36.6 L 7.2 36.6 C 4.4 36.6 3.1 35.4 3.1 32.4 L 3.1 14.2 C 3.2 11.3 4.2 10.1 7.2 10.0 Z " transform="scale(1,-1)" stroke-dasharray="69.16341999647148" stroke-dashoffset="69.16341999647148"><animate attributeName="stroke-dashoffset" from="69.16341999647148" to="0" dur="2.0749025998941444s" begin="anim6.end" fill="freeze" id="anim7" /></path><path d="M 7.9 12.9 C 6.8 12.9 6.4 13.3 6.4 14.6 L 6.4 32.0 C 6.4 33.4 6.8 33.7 7.9 33.7 L 9.3 33.7 C 10.4 33.7 10.8 33.4 10.8 32.0 L 10.8 14.6 C 10.7 13.5 10.5 13.0 9.3 12.9 Z " transform="scale(1,-1)" stroke-dasharray="48.22247301011685" stroke-dashoffset="48.22247301011685"><animate attributeName="stroke-dashoffset" from="48.22247301011685" to="0" dur="1.4466741903035054s" begin="anim7.end" fill="freeze" id="anim8" /></path><path d="M 27.2 5.5 C 26.9 6.3 26.2 6.8 25.5 6.8 C 24.7 6.8 23.9 6.2 23.9 5.2 C 23.9 5.0 23.9 4.8 24.0 4.5 C 24.5 3.0 24.9 0.9 25.2 -1.2 C 25.3 -2.4 26.1 -3.0 26.9 -3.0 C 27.9 -3.0 28.9 -2.1 28.7 -0.7 C 28.4 1.3 27.8 3.8 27.2 5.5 Z " transform="scale(1,-1)" stroke-dasharray="23.78441427184258" stroke-dashoffset="23.78441427184258"><animate attributeName="stroke-dashoffset" from="23.78441427184258" to="0" dur="0.7135324281552773s" begin="anim8.end" fill="freeze" id="anim9" /></path><path d="M 21.1 4.4 C 21.2 4.8 21.3 5.1 21.3 5.4 C 21.3 6.4 20.5 7.2 19.6 7.2 C 18.9 7.2 18.2 6.8 17.9 5.9 C 16.9 3.8 15.7 1.7 14.1 -0.1 C 13.6 -0.7 13.4 -1.2 13.4 -1.7 C 13.4 -2.6 14.2 -3.2 15.1 -3.2 C 15.7 -3.2 16.3 -3.0 16.9 -2.3 C 18.7 -0.4 20.2 2.1 21.1 4.4 Z " transform="scale(1,-1)" stroke-dasharray="27.53281409885152" stroke-dashoffset="27.53281409885152"><animate attributeName="stroke-dashoffset" from="27.53281409885152" to="0" dur="0.8259844229655456s" begin="anim9.end" fill="freeze" id="anim10" /></path><path d="M 34.3 5.9 C 33.9 6.7 33.2 7.0 32.6 7.0 C 31.8 7.0 31.1 6.4 31.1 5.6 C 31.1 5.2 31.2 4.9 31.4 4.5 C 32.1 3.2 33.0 0.9 33.5 -1.0 C 33.8 -2.0 34.5 -2.4 35.2 -2.4 C 36.1 -2.4 37.0 -1.8 37.0 -0.7 C 37.0 -0.4 37.0 -0.2 36.9 0.2 C 36.2 2.1 35.1 4.4 34.3 5.9 Z " transform="scale(1,-1)" stroke-dasharray="23.785937476396217" stroke-dashoffset="23.785937476396217"><animate attributeName="stroke-dashoffset" from="23.785937476396217" to="0" dur="0.7135781242918865s" begin="anim10.end" fill="freeze" id="anim11" /></path><path d="M 41.4 6.7 C 40.9 7.2 40.4 7.4 39.9 7.4 C 39.1 7.4 38.4 6.8 38.4 6.0 C 38.4 5.6 38.5 5.1 38.9 4.6 C 40.1 3.2 41.7 0.7 42.6 -1.0 C 43.0 -1.9 43.7 -2.2 44.4 -2.2 C 45.2 -2.2 46.1 -1.6 46.1 -0.5 C 46.1 -0.2 46.0 0.2 45.8 0.7 C 44.9 2.4 42.8 5.2 41.4 6.7 Z" transform="scale(1,-1)" stroke-dasharray="25.898773598640513" stroke-dashoffset="25.898773598640513"><animate attributeName="stroke-dashoffset" from="25.898773598640513" to="0" dur="0.7769632079592154s" begin="anim11.end" fill="freeze" id="anim_end" /></path></g></svg>