<?xml version='1.0' encoding='utf-8'?>
<svg viewBox="0 -44.0 50.0 50.0" version="1.1" xmlns="http://www.w3.org/2000/svg"><rect x="-1000" y="-1000" width="2000" height="2000" stroke="white" fill="white" /><g style="fill:none;stroke:#000000;stroke-width:1"><path d="M 11.5 30.9 C 12.0 33.7 12.4 36.7 12.8 39.8 C 13.0 40.9 12.0 41.5 11.1 41.5 C 10.3 41.5 9.5 41.1 9.4 40.1 C 9.0 36.9 8.5 33.8 8.0 30.9 L 3.5 30.9 C 2.6 30.9 2.1 30.1 2.1 29.4 C 2.1 28.6 2.6 27.9 3.5 27.9 L 7.4 27.9 C 6.4 22.3 5.2 17.2 3.8 12.6 C 3.7 12.4 3.7 12.2 3.7 12.0 C 3.7 11.0 4.5 10.4 5.3 10.4 C 6.0 10.4 6.8 10.8 7.1 11.8 C 8.2 11.1 9.3 10.3 10.5 9.6 C 8.6 6.2 6.2 3.5 3.4 1.2 C 2.8 0.8 2.6 0.2 2.6 -0.2 C 2.6 -1.0 3.2 -1.7 4.1 -1.7 C 4.5 -1.7 4.9 -1.6 5.2 -1.3 C 8.3 0.9 11.0 3.9 13.2 7.5 C 14.9 6.2 16.4 4.8 17.6 3.6 C 17.9 3.2 18.4 3.0 18.9 3.0 C 19.8 3.0 20.5 3.7 20.5 4.5 C 20.5 5.0 20.3 5.5 19.8 6.0 C 18.4 7.4 16.6 8.9 14.7 10.3 C 16.9 15.0 18.4 20.4 18.8 26.2 C 18.9 29.2 17.4 30.9 14.2 30.9 Z " transform="scale(1,-1)" stroke-dasharray="135.1207512162146" stroke-dashoffset="135.1207512162146"><animate attributeName="stroke-dashoffset" from="135.1207512162146" to="0" dur="4.053622536486437s" begin="0s; 15s; 30s; 45s; 60s" fill="freeze" id="anim0" /></path><path d="M 13.7 27.9 C 15.1 27.9 15.4 27.5 15.3 26.1 C 14.9 21.0 13.7 16.3 11.9 12.2 C 10.6 13.1 9.2 13.9 7.9 14.6 C 9.1 18.9 10.1 23.4 10.9 27.9 Z " transform="scale(1,-1)" stroke-dasharray="38.418062600903205" stroke-dashoffset="38.418062600903205"><animate attributeName="stroke-dashoffset" from="38.418062600903205" to="0" dur="1.1525418780270962s" begin="anim0.end" fill="freeze" id="anim1" /></path><path d="M 27.2 1.7 C 27.2 -2.0 28.9 -3.1 35.8 -3.1 C 43.6 -3.1 46.0 -1.5 46.8 4.4 C 46.9 5.7 46.0 6.4 45.1 6.4 C 44.2 6.4 43.5 5.9 43.4 4.8 C 42.9 1.2 41.7 0.2 35.6 0.2 C 31.4 0.2 30.8 0.5 30.8 2.4 L 30.8 6.8 C 35.2 8.2 40.0 10.2 43.5 12.8 C 44.1 13.2 44.4 13.8 44.4 14.2 C 44.4 15.2 43.6 16.1 42.6 16.1 C 42.2 16.1 41.9 15.9 41.5 15.7 C 38.5 13.4 34.6 11.5 30.8 10.0 L 30.8 15.7 C 33.0 17.7 35.0 19.8 36.9 22.1 L 46.7 22.1 C 47.7 22.1 48.1 22.9 48.1 23.6 C 48.1 24.4 47.7 25.2 46.7 25.2 L 39.3 25.2 C 41.7 28.4 43.8 31.8 45.5 35.2 C 45.6 35.6 45.7 36.0 45.7 36.2 C 45.7 37.2 44.9 38.0 44.0 38.0 C 43.3 38.0 42.7 37.6 42.3 36.8 C 41.2 34.5 40.1 32.2 38.7 30.1 C 37.6 28.4 36.5 26.8 35.3 25.2 L 32.4 25.2 L 32.4 31.3 L 36.8 31.3 C 37.8 31.3 38.2 32.1 38.2 32.9 C 38.2 33.6 37.8 34.4 36.8 34.4 L 32.4 34.4 L 32.4 40.2 C 32.4 41.3 31.5 41.8 30.7 41.8 C 29.8 41.8 28.9 41.3 28.9 40.2 L 28.9 34.4 L 23.6 34.4 C 22.7 34.4 22.2 33.6 22.2 32.9 C 22.2 32.1 22.7 31.3 23.6 31.3 L 28.9 31.3 L 28.9 25.2 L 21.5 25.2 C 20.6 25.2 20.1 24.4 20.1 23.6 C 20.1 22.9 20.6 22.1 21.5 22.1 L 32.7 22.1 C 31.8 21.0 30.8 20.0 29.8 19.1 C 29.6 19.2 29.3 19.2 29.1 19.2 C 28.2 19.2 27.2 18.7 27.2 17.6 L 27.2 16.7 C 25.0 14.7 22.5 12.9 20.1 11.4 C 19.4 11.0 19.1 10.4 19.1 9.9 C 19.1 9.1 19.7 8.5 20.6 8.5 C 20.9 8.5 21.2 8.6 21.6 8.8 C 23.5 9.9 25.4 11.2 27.2 12.7 Z" transform="scale(1,-1)" stroke-dasharray="277.51796499817607" stroke-dashoffset="277.51796499817607"><animate attributeName="stroke-dashoffset" from="277.51796499817607" to="0" dur="8.325538949945281s" begin="anim1.end" fill="freeze" id="anim_end" /></path></g></svg>