<?xml version='1.0' encoding='utf-8'?>
<svg viewBox="0 -44.0 50.0 50.0" version="1.1" xmlns="http://www.w3.org/2000/svg"><rect x="-1000" y="-1000" width="2000" height="2000" stroke="white" fill="white" /><g style="fill:none;stroke:#000000;stroke-width:1"><path d="M 37.8 17.2 C 40.9 17.2 42.3 18.6 42.3 20.8 L 42.3 23.0 C 42.3 25.2 40.9 26.5 37.8 26.5 L 23.5 26.5 C 20.4 26.5 18.9 25.2 18.9 23.0 L 18.9 20.8 C 19.0 18.0 21.1 17.3 23.5 17.2 Z " transform="scale(1,-1)" stroke-dasharray="59.21994595654101" stroke-dashoffset="59.21994595654101"><animate attributeName="stroke-dashoffset" from="59.21994595654101" to="0" dur="1.7765983786962303s" begin="0s; 15s; 30s; 45s; 60s" fill="freeze" id="anim0" /></path><path d="M 24.0 20.1 C 22.7 20.1 22.2 20.4 22.2 21.2 L 22.2 22.5 C 22.2 23.4 22.7 23.7 24.0 23.7 L 37.2 23.7 C 38.6 23.7 39.0 23.4 39.0 22.5 L 39.0 21.2 C 39.0 20.2 38.1 20.1 37.2 20.1 Z " transform="scale(1,-1)" stroke-dasharray="38.85824139149772" stroke-dashoffset="38.85824139149772"><animate attributeName="stroke-dashoffset" from="38.85824139149772" to="0" dur="1.1657472417449315s" begin="anim0.end" fill="freeze" id="anim1" /></path><path d="M 38.0 -3.0 C 41.2 -3.0 42.6 -1.8 42.6 0.7 L 42.6 3.6 C 42.6 6.0 41.2 7.2 38.0 7.2 L 23.2 7.2 C 20.0 7.2 18.6 6.0 18.6 3.6 L 18.6 0.7 C 18.7 -2.2 20.7 -2.9 23.2 -3.0 Z " transform="scale(1,-1)" stroke-dasharray="62.28925664985398" stroke-dashoffset="62.28925664985398"><animate attributeName="stroke-dashoffset" from="62.28925664985398" to="0" dur="1.8686776994956193s" begin="anim1.end" fill="freeze" id="anim2" /></path><path d="M 23.7 -0.2 C 22.4 -0.2 22.0 0.2 22.0 1.1 L 22.0 3.1 C 22.0 4.0 22.4 4.4 23.7 4.4 L 37.5 4.4 C 38.8 4.4 39.2 4.0 39.2 3.1 L 39.2 1.1 C 39.2 0.0 38.5 -0.2 37.5 -0.2 Z " transform="scale(1,-1)" stroke-dasharray="41.54831293642712" stroke-dashoffset="41.54831293642712"><animate attributeName="stroke-dashoffset" from="41.54831293642712" to="0" dur="1.2464493880928136s" begin="anim2.end" fill="freeze" id="anim3" /></path><path d="M 36.8 12.5 C 37.1 13.2 37.6 13.9 38.0 14.6 C 38.1 14.8 38.1 15.1 38.1 15.4 C 38.1 16.2 37.3 16.9 36.5 16.9 C 35.8 16.9 35.1 16.6 34.8 15.7 C 34.3 14.7 33.8 13.6 33.1 12.5 L 27.0 12.5 C 27.1 12.7 27.2 13.0 27.2 13.2 C 27.2 13.6 27.1 13.9 26.9 14.2 C 26.7 14.8 25.9 15.7 25.4 16.2 C 25.0 16.6 24.5 16.8 24.1 16.8 C 23.2 16.8 22.5 16.2 22.5 15.5 C 22.5 15.1 22.6 14.8 22.9 14.4 C 23.3 13.8 23.7 13.2 24.0 12.8 L 24.2 12.5 L 14.8 12.5 C 13.8 12.5 13.2 11.8 13.2 11.0 C 13.2 10.2 13.8 9.5 14.8 9.5 L 46.5 9.5 C 47.6 9.5 48.1 10.2 48.1 11.0 C 48.1 11.8 47.6 12.5 46.5 12.5 Z " transform="scale(1,-1)" stroke-dasharray="89.83369287314041" stroke-dashoffset="89.83369287314041"><animate attributeName="stroke-dashoffset" from="89.83369287314041" to="0" dur="2.6950107861942123s" begin="anim3.end" fill="freeze" id="anim4" /></path><path d="M 32.1 31.9 L 32.1 34.6 L 45.8 34.6 C 46.7 34.6 47.1 35.4 47.1 36.1 C 47.1 36.9 46.7 37.6 45.8 37.6 L 32.1 37.6 L 32.1 40.2 C 32.1 41.3 31.2 41.8 30.3 41.8 C 29.5 41.8 28.6 41.3 28.6 40.2 L 28.6 37.6 L 16.2 37.6 C 15.2 37.6 14.8 36.9 14.8 36.1 C 14.8 35.4 15.2 34.6 16.2 34.6 L 28.6 34.6 L 28.6 31.9 L 19.2 31.9 C 18.2 31.9 17.8 31.2 17.8 30.5 C 17.8 29.8 18.2 29.0 19.2 29.0 L 42.8 29.0 C 43.8 29.0 44.2 29.8 44.2 30.5 C 44.2 31.2 43.8 31.9 42.8 31.9 Z " transform="scale(1,-1)" stroke-dasharray="130.00674611378534" stroke-dashoffset="130.00674611378534"><animate attributeName="stroke-dashoffset" from="130.00674611378534" to="0" dur="3.90020238341356s" begin="anim4.end" fill="freeze" id="anim5" /></path><path d="M 7.5 -2.7 C 7.5 -3.7 8.3 -4.2 9.2 -4.2 C 10.1 -4.2 11.0 -3.7 11.0 -2.7 L 11.0 25.7 C 11.0 26.7 10.1 27.2 9.2 27.2 C 11.0 31.2 12.5 35.5 13.4 39.4 C 13.7 40.8 12.7 41.7 11.6 41.7 C 10.9 41.7 10.1 41.2 9.9 40.2 C 8.2 32.9 5.1 25.0 1.7 19.9 C 1.5 19.5 1.4 19.1 1.4 18.8 C 1.4 17.9 2.1 17.3 2.9 17.3 C 3.4 17.3 4.0 17.6 4.4 18.2 C 5.4 19.7 6.5 21.5 7.5 23.5 Z" transform="scale(1,-1)" stroke-dasharray="114.63420744800085" stroke-dashoffset="114.63420744800085"><animate attributeName="stroke-dashoffset" from="114.63420744800085" to="0" dur="3.4390262234400253s" begin="anim5.end" fill="freeze" id="anim_end" /></path></g></svg>