<?xml version='1.0' encoding='utf-8'?>
<svg viewBox="0 -44.0 50.0 50.0" version="1.1" xmlns="http://www.w3.org/2000/svg"><rect x="-1000" y="-1000" width="2000" height="2000" stroke="white" fill="white" /><g style="fill:none;stroke:#000000;stroke-width:1"><path d="M 10.0 11.0 C 12.8 11.0 14.1 12.2 14.1 15.2 L 14.1 33.4 C 14.1 36.4 12.8 37.6 10.0 37.6 L 7.2 37.6 C 4.4 37.6 3.1 36.4 3.1 33.4 L 3.1 15.2 C 3.2 12.3 4.2 11.1 7.2 11.0 Z " transform="scale(1,-1)" stroke-dasharray="69.16341999647148" stroke-dashoffset="69.16341999647148"><animate attributeName="stroke-dashoffset" from="69.16341999647148" to="0" dur="2.0749025998941444s" begin="0s; 15s; 30s; 45s; 60s" fill="freeze" id="anim0" /></path><path d="M 7.8 13.9 C 6.8 13.9 6.4 14.3 6.4 15.6 L 6.4 33.0 C 6.4 34.4 6.8 34.7 7.8 34.7 L 9.3 34.7 C 10.4 34.7 10.8 34.4 10.8 33.0 L 10.8 15.6 C 10.8 14.5 10.6 14.0 9.3 13.9 Z " transform="scale(1,-1)" stroke-dasharray="48.30414924647478" stroke-dashoffset="48.30414924647478"><animate attributeName="stroke-dashoffset" from="48.30414924647478" to="0" dur="1.4491244773942433s" begin="anim0.end" fill="freeze" id="anim1" /></path><path d="M 22.9 37.5 L 22.9 25.0 C 21.4 24.9 19.9 24.8 18.4 24.8 C 17.5 24.8 17.0 24.1 17.0 23.4 C 17.0 22.6 17.6 21.9 18.6 21.9 C 24.2 22.1 30.9 22.7 37.1 23.4 L 37.1 22.1 C 37.1 21.2 38.0 20.7 38.7 20.7 C 39.5 20.7 40.2 21.2 40.2 22.1 L 40.2 23.8 C 42.0 24.0 43.8 24.2 45.4 24.5 C 46.2 24.7 46.7 25.2 46.7 25.8 C 46.7 26.5 46.1 27.2 45.0 27.1 C 43.4 26.8 41.9 26.6 40.2 26.4 L 40.2 37.5 L 44.6 37.5 C 45.6 37.5 46.0 38.2 46.0 38.9 C 46.0 39.6 45.6 40.3 44.6 40.3 L 18.9 40.3 C 17.9 40.3 17.4 39.6 17.4 38.9 C 17.4 38.2 17.9 37.5 18.9 37.5 Z " transform="scale(1,-1)" stroke-dasharray="116.67477708663168" stroke-dashoffset="116.67477708663168"><animate attributeName="stroke-dashoffset" from="116.67477708663168" to="0" dur="3.50024331259895s" begin="anim1.end" fill="freeze" id="anim2" /></path><path d="M 25.9 28.1 L 37.1 28.1 L 37.1 26.1 C 33.4 25.8 29.7 25.4 25.9 25.2 Z " transform="scale(1,-1)" stroke-dasharray="27.33669502961707" stroke-dashoffset="27.33669502961707"><animate attributeName="stroke-dashoffset" from="27.33669502961707" to="0" dur="0.820100850888512s" begin="anim2.end" fill="freeze" id="anim3" /></path><path d="M 25.9 30.5 L 25.9 32.9 L 37.1 32.9 L 37.1 30.5 Z " transform="scale(1,-1)" stroke-dasharray="27.200000000000003" stroke-dashoffset="27.200000000000003"><animate attributeName="stroke-dashoffset" from="27.200000000000003" to="0" dur="0.8160000000000001s" begin="anim3.end" fill="freeze" id="anim4" /></path><path d="M 25.9 35.2 L 25.9 37.5 L 37.1 37.5 L 37.1 35.2 Z " transform="scale(1,-1)" stroke-dasharray="27.0" stroke-dashoffset="27.0"><animate attributeName="stroke-dashoffset" from="27.0" to="0" dur="0.8099999999999999s" begin="anim4.end" fill="freeze" id="anim5" /></path><path d="M 17.8 16.9 L 17.8 2.3 C 16.7 2.1 15.7 2.0 14.7 1.9 C 13.8 1.8 13.4 1.1 13.4 0.4 C 13.4 -0.4 14.0 -1.1 15.1 -1.0 C 18.4 -0.5 22.4 0.3 26.2 1.4 L 26.2 -2.7 C 26.2 -3.5 26.9 -3.9 27.6 -3.9 C 28.2 -3.9 29.0 -3.5 29.0 -2.7 L 29.0 16.9 L 29.8 16.9 C 30.7 16.9 31.1 17.7 31.1 18.3 C 31.1 19.0 30.7 19.7 29.8 19.7 L 16.3 19.7 C 15.5 19.7 15.0 19.0 15.0 18.3 C 15.0 17.7 15.5 16.9 16.3 16.9 Z " transform="scale(1,-1)" stroke-dasharray="85.91915565189392" stroke-dashoffset="85.91915565189392"><animate attributeName="stroke-dashoffset" from="85.91915565189392" to="0" dur="2.5775746695568174s" begin="anim5.end" fill="freeze" id="anim6" /></path><path d="M 20.6 6.8 L 26.2 6.8 L 26.2 4.0 C 24.3 3.6 22.5 3.2 20.6 2.8 Z " transform="scale(1,-1)" stroke-dasharray="18.127136054552494" stroke-dashoffset="18.127136054552494"><animate attributeName="stroke-dashoffset" from="18.127136054552494" to="0" dur="0.5438140816365749s" begin="anim6.end" fill="freeze" id="anim7" /></path><path d="M 20.6 9.1 L 20.6 12.0 L 26.2 12.0 L 26.2 9.1 Z " transform="scale(1,-1)" stroke-dasharray="16.999999999999996" stroke-dashoffset="16.999999999999996"><animate attributeName="stroke-dashoffset" from="16.999999999999996" to="0" dur="0.5099999999999999s" begin="anim7.end" fill="freeze" id="anim8" /></path><path d="M 20.6 14.3 L 20.6 16.9 L 26.2 16.9 L 26.2 14.3 Z " transform="scale(1,-1)" stroke-dasharray="16.39999999999999" stroke-dashoffset="16.39999999999999"><animate attributeName="stroke-dashoffset" from="16.39999999999999" to="0" dur="0.4919999999999997s" begin="anim8.end" fill="freeze" id="anim9" /></path><path d="M 33.7 16.9 L 33.7 3.1 C 33.1 3.0 32.5 2.9 31.9 2.9 C 31.0 2.8 30.6 2.1 30.6 1.5 C 30.6 0.8 31.2 0.0 32.2 0.1 C 35.3 0.5 38.9 1.1 42.4 1.8 L 42.4 -2.4 C 42.4 -3.2 43.1 -3.7 43.8 -3.7 C 44.5 -3.7 45.2 -3.2 45.2 -2.4 L 45.2 2.4 C 45.9 2.6 46.7 2.8 47.4 3.0 C 48.1 3.2 48.4 3.7 48.4 4.2 C 48.4 4.9 47.9 5.6 47.0 5.4 C 46.4 5.2 45.8 5.2 45.2 5.0 L 45.2 16.9 L 46.7 16.9 C 47.6 16.9 48.0 17.7 48.0 18.3 C 48.0 19.0 47.6 19.7 46.7 19.7 L 33.1 19.7 C 32.2 19.7 31.8 19.0 31.8 18.3 C 31.8 17.7 32.2 16.9 33.1 16.9 Z " transform="scale(1,-1)" stroke-dasharray="87.82977193587605" stroke-dashoffset="87.82977193587605"><animate attributeName="stroke-dashoffset" from="87.82977193587605" to="0" dur="2.6348931580762813s" begin="anim9.end" fill="freeze" id="anim10" /></path><path d="M 36.5 6.8 L 42.4 6.8 L 42.4 4.5 C 40.5 4.1 38.5 3.8 36.5 3.5 Z " transform="scale(1,-1)" stroke-dasharray="17.485041503076477" stroke-dashoffset="17.485041503076477"><animate attributeName="stroke-dashoffset" from="17.485041503076477" to="0" dur="0.5245512450922943s" begin="anim10.end" fill="freeze" id="anim11" /></path><path d="M 36.5 9.1 L 36.5 12.0 L 42.4 12.0 L 42.4 9.1 Z " transform="scale(1,-1)" stroke-dasharray="17.599999999999998" stroke-dashoffset="17.599999999999998"><animate attributeName="stroke-dashoffset" from="17.599999999999998" to="0" dur="0.5279999999999999s" begin="anim11.end" fill="freeze" id="anim12" /></path><path d="M 36.5 14.3 L 36.5 16.9 L 42.4 16.9 L 42.4 14.3 Z" transform="scale(1,-1)" stroke-dasharray="16.999999999999993" stroke-dashoffset="16.999999999999993"><animate attributeName="stroke-dashoffset" from="16.999999999999993" to="0" dur="0.5099999999999998s" begin="anim12.end" fill="freeze" id="anim_end" /></path></g></svg>