<?xml version='1.0' encoding='utf-8'?>
<svg viewBox="0 -44.0 50.0 50.0" version="1.1" xmlns="http://www.w3.org/2000/svg"><rect x="-1000" y="-1000" width="2000" height="2000" stroke="white" fill="white" /><g style="fill:none;stroke:#000000;stroke-width:1"><path d="M 25.2 3.5 L 25.2 1.2 C 21.4 0.9 17.4 0.6 13.6 0.5 C 12.5 0.4 12.0 -0.2 12.0 -1.0 C 12.0 -1.7 12.6 -2.4 13.8 -2.4 C 20.5 -2.0 28.3 -1.1 35.0 0.2 C 35.2 -0.1 35.5 -0.4 35.8 -0.7 C 35.9 -0.9 36.1 -1.0 36.2 -1.1 C 35.1 -0.9 34.5 -1.7 34.5 -2.4 C 34.5 -3.1 34.9 -3.7 35.6 -3.9 C 36.8 -4.0 37.4 -4.2 38.6 -4.2 C 41.5 -4.2 43.0 -2.9 44.1 0.4 C 45.0 3.2 45.5 6.7 45.6 10.5 C 45.6 12.9 44.4 14.1 41.1 14.1 L 20.8 14.1 L 21.0 14.3 C 21.2 14.6 21.2 14.8 21.2 15.0 C 21.2 15.4 21.0 15.7 20.7 15.9 L 39.5 15.9 C 42.6 15.9 43.4 16.8 43.4 18.4 L 43.4 20.5 C 43.4 22.2 42.6 23.1 39.5 23.1 L 17.3 23.1 C 14.2 23.1 13.5 22.2 13.5 20.5 L 13.5 18.4 C 13.5 16.1 15.3 16.0 17.3 15.9 L 18.8 15.9 C 18.7 15.8 18.5 15.7 18.4 15.6 C 16.4 13.1 13.6 10.6 11.2 9.1 C 10.5 8.7 10.2 8.2 10.2 7.7 C 10.2 7.0 10.8 6.4 11.6 6.4 C 12.0 6.4 12.4 6.5 12.9 6.8 C 14.8 8.0 17.1 9.9 18.9 11.8 L 25.2 11.8 L 25.2 9.9 L 19.7 9.9 C 17.2 9.9 16.4 9.1 16.4 7.7 L 16.4 5.7 C 16.4 3.7 18.1 3.5 19.7 3.5 Z " transform="scale(1,-1)" stroke-dasharray="218.33225082346578" stroke-dashoffset="218.33225082346578"><animate attributeName="stroke-dashoffset" from="218.33225082346578" to="0" dur="6.549967524703973s" begin="0s; 15s; 30s; 45s; 60s" fill="freeze" id="anim0" /></path><path d="M 20.2 5.6 C 19.4 5.6 19.2 5.7 19.2 6.2 L 19.2 7.1 C 19.2 7.6 19.4 7.8 20.2 7.8 L 25.2 7.8 L 25.2 5.6 Z " transform="scale(1,-1)" stroke-dasharray="15.895976425419777" stroke-dashoffset="15.895976425419777"><animate attributeName="stroke-dashoffset" from="15.895976425419777" to="0" dur="0.4768792927625933s" begin="anim0.end" fill="freeze" id="anim1" /></path><path d="M 28.1 9.9 L 28.1 11.8 L 40.7 11.8 C 42.0 11.8 42.4 11.5 42.4 10.2 C 42.3 7.0 41.9 3.7 41.1 1.1 C 40.5 -0.8 39.8 -1.3 38.5 -1.3 C 38.1 -1.3 37.8 -1.3 37.5 -1.3 C 37.9 -1.1 38.2 -0.7 38.2 -0.2 C 38.2 0.1 38.1 0.5 37.7 0.9 C 36.9 1.8 35.9 2.7 35.0 3.5 C 36.5 3.6 37.8 3.9 37.9 5.7 L 37.9 7.7 C 37.9 9.1 37.1 9.9 34.5 9.9 Z " transform="scale(1,-1)" stroke-dasharray="54.876931365094684" stroke-dashoffset="54.876931365094684"><animate attributeName="stroke-dashoffset" from="54.876931365094684" to="0" dur="1.6463079409528405s" begin="anim1.end" fill="freeze" id="anim2" /></path><path d="M 28.1 7.8 L 34.1 7.8 C 34.9 7.8 35.1 7.6 35.1 7.1 L 35.1 6.2 C 35.1 5.7 34.9 5.6 34.1 5.6 L 28.1 5.6 Z " transform="scale(1,-1)" stroke-dasharray="17.895976425419775" stroke-dashoffset="17.895976425419775"><animate attributeName="stroke-dashoffset" from="17.895976425419775" to="0" dur="0.5368792927625933s" begin="anim2.end" fill="freeze" id="anim3" /></path><path d="M 33.9 18.2 L 33.9 20.8 L 39.1 20.8 C 40.2 20.8 40.5 20.6 40.5 20.0 L 40.5 19.0 C 40.5 18.2 39.7 18.2 39.1 18.2 Z " transform="scale(1,-1)" stroke-dasharray="17.709031132135024" stroke-dashoffset="17.709031132135024"><animate attributeName="stroke-dashoffset" from="17.709031132135024" to="0" dur="0.5312709339640507s" begin="anim3.end" fill="freeze" id="anim4" /></path><path d="M 31.1 20.8 L 31.1 18.2 L 25.0 18.2 L 25.0 20.8 Z " transform="scale(1,-1)" stroke-dasharray="17.400000000000006" stroke-dashoffset="17.400000000000006"><animate attributeName="stroke-dashoffset" from="17.400000000000006" to="0" dur="0.5220000000000001s" begin="anim4.end" fill="freeze" id="anim5" /></path><path d="M 22.2 20.8 L 22.2 18.2 L 17.8 18.2 C 16.6 18.2 16.4 18.4 16.4 19.0 L 16.4 20.0 C 16.4 20.6 16.6 20.8 17.8 20.8 Z " transform="scale(1,-1)" stroke-dasharray="16.16576994161496" stroke-dashoffset="16.16576994161496"><animate attributeName="stroke-dashoffset" from="16.16576994161496" to="0" dur="0.4849730982484488s" begin="anim5.end" fill="freeze" id="anim6" /></path><path d="M 28.1 3.5 L 31.8 3.5 C 31.9 3.2 32.1 3.1 32.2 2.9 C 32.5 2.7 32.8 2.4 33.1 2.1 C 31.4 1.9 29.7 1.7 28.1 1.5 Z " transform="scale(1,-1)" stroke-dasharray="12.668011381111619" stroke-dashoffset="12.668011381111619"><animate attributeName="stroke-dashoffset" from="12.668011381111619" to="0" dur="0.3800403414333485s" begin="anim6.end" fill="freeze" id="anim7" /></path><path d="M 39.7 32.4 C 43.4 32.4 44.5 33.0 44.5 35.9 L 44.5 37.0 C 44.5 39.3 43.3 40.4 39.7 40.4 L 12.2 40.4 C 8.2 40.4 7.0 39.0 7.0 36.2 L 7.0 28.9 C 7.0 15.7 5.4 7.0 2.1 0.6 C 1.9 0.2 1.8 -0.2 1.8 -0.5 C 1.8 -1.5 2.5 -2.1 3.2 -2.1 C 3.9 -2.1 4.5 -1.7 4.9 -1.0 C 8.6 5.9 10.4 14.9 10.4 28.2 L 10.4 32.4 L 25.4 32.4 L 25.4 25.5 C 25.4 24.6 26.2 24.1 27.0 24.1 C 27.7 24.1 28.5 24.6 28.5 25.5 L 28.5 32.4 Z " transform="scale(1,-1)" stroke-dasharray="170.9801053551014" stroke-dashoffset="170.9801053551014"><animate attributeName="stroke-dashoffset" from="170.9801053551014" to="0" dur="5.129403160653041s" begin="anim7.end" fill="freeze" id="anim8" /></path><path d="M 10.4 35.0 L 10.4 35.8 C 10.4 37.1 10.8 37.6 12.9 37.6 L 39.1 37.6 C 40.8 37.6 41.1 37.5 41.1 36.6 L 41.1 35.9 C 41.1 34.8 39.9 35.0 39.1 35.0 Z " transform="scale(1,-1)" stroke-dasharray="65.1855754354103" stroke-dashoffset="65.1855754354103"><animate attributeName="stroke-dashoffset" from="65.1855754354103" to="0" dur="1.9555672630623089s" begin="anim8.end" fill="freeze" id="anim9" /></path><path d="M 14.0 30.9 C 13.2 30.9 12.9 30.3 12.9 29.7 C 12.9 29.2 13.2 28.6 14.0 28.6 L 21.8 28.6 C 22.6 28.6 23.0 29.2 23.0 29.7 C 23.0 30.3 22.6 30.9 21.8 30.9 Z " transform="scale(1,-1)" stroke-dasharray="22.9082813514212" stroke-dashoffset="22.9082813514212"><animate attributeName="stroke-dashoffset" from="22.9082813514212" to="0" dur="0.6872484405426359s" begin="anim9.end" fill="freeze" id="anim10" /></path><path d="M 14.0 27.1 C 13.2 27.1 12.9 26.5 12.9 25.9 C 12.9 25.4 13.2 24.8 14.0 24.8 L 21.8 24.8 C 22.6 24.8 23.0 25.4 23.0 25.9 C 23.0 26.5 22.6 27.1 21.8 27.1 Z " transform="scale(1,-1)" stroke-dasharray="22.908281351421202" stroke-dashoffset="22.908281351421202"><animate attributeName="stroke-dashoffset" from="22.908281351421202" to="0" dur="0.687248440542636s" begin="anim10.end" fill="freeze" id="anim11" /></path><path d="M 31.9 30.9 C 31.1 30.9 30.7 30.3 30.7 29.7 C 30.7 29.2 31.1 28.6 31.9 28.6 L 40.6 28.6 C 41.4 28.6 41.8 29.2 41.8 29.7 C 41.8 30.3 41.4 30.9 40.6 30.9 Z " transform="scale(1,-1)" stroke-dasharray="24.832881839081175" stroke-dashoffset="24.832881839081175"><animate attributeName="stroke-dashoffset" from="24.832881839081175" to="0" dur="0.7449864551724352s" begin="anim11.end" fill="freeze" id="anim12" /></path><path d="M 31.9 27.1 C 31.1 27.1 30.7 26.5 30.7 25.9 C 30.7 25.4 31.1 24.8 31.9 24.8 L 40.6 24.8 C 41.4 24.8 41.8 25.4 41.8 25.9 C 41.8 26.5 41.4 27.1 40.6 27.1 Z" transform="scale(1,-1)" stroke-dasharray="24.832881839081182" stroke-dashoffset="24.832881839081182"><animate attributeName="stroke-dashoffset" from="24.832881839081182" to="0" dur="0.7449864551724354s" begin="anim12.end" fill="freeze" id="anim_end" /></path></g></svg>