<?xml version='1.0' encoding='utf-8'?>
<svg viewBox="0 -44.0 50.0 50.0" version="1.1" xmlns="http://www.w3.org/2000/svg"><rect x="-1000" y="-1000" width="2000" height="2000" stroke="white" fill="white" /><g style="fill:none;stroke:#000000;stroke-width:1"><path d="M 11.2 31.1 C 11.7 34.0 12.1 37.0 12.5 40.1 C 12.7 41.2 11.7 41.8 10.8 41.8 C 10.0 41.8 9.2 41.4 9.1 40.4 C 8.7 37.1 8.2 34.1 7.7 31.1 L 3.5 31.1 C 2.5 31.1 2.1 30.4 2.1 29.6 C 2.1 28.9 2.5 28.1 3.5 28.1 L 7.2 28.1 C 6.2 22.5 5.1 17.4 3.7 12.9 C 3.7 12.7 3.6 12.5 3.6 12.2 C 3.6 11.2 4.4 10.7 5.2 10.7 C 6.0 10.7 6.7 11.1 7.0 12.0 C 8.2 11.4 9.4 10.7 10.6 10.0 C 8.7 6.3 6.2 3.2 3.2 0.8 C 2.7 0.4 2.5 -0.2 2.5 -0.7 C 2.5 -1.5 3.1 -2.1 3.9 -2.1 C 4.3 -2.1 4.7 -2.1 5.2 -1.7 C 8.3 0.8 11.1 4.1 13.2 8.2 C 14.7 7.2 16.0 6.2 17.0 5.2 C 17.4 4.9 17.8 4.7 18.2 4.7 C 19.1 4.7 19.8 5.5 19.8 6.4 C 19.8 6.9 19.6 7.4 19.0 7.9 C 17.8 9.0 16.3 10.0 14.7 11.1 C 16.7 15.7 18.1 21.0 18.4 26.6 C 18.4 29.5 17.0 31.1 13.8 31.1 Z " transform="scale(1,-1)" stroke-dasharray="133.45814895252178" stroke-dashoffset="133.45814895252178"><animate attributeName="stroke-dashoffset" from="133.45814895252178" to="0" dur="4.003744468575653s" begin="0s; 15s; 30s; 45s; 60s" fill="freeze" id="anim0" /></path><path d="M 7.8 15.0 C 8.2 16.9 8.7 18.7 9.1 20.6 C 9.7 23.1 10.2 25.6 10.7 28.1 L 13.3 28.1 C 14.7 28.1 15.0 27.8 14.9 26.3 C 14.6 21.4 13.5 16.8 11.9 12.8 C 10.5 13.5 9.2 14.2 7.8 14.8 Z " transform="scale(1,-1)" stroke-dasharray="37.6289869060173" stroke-dashoffset="37.6289869060173"><animate attributeName="stroke-dashoffset" from="37.6289869060173" to="0" dur="1.128869607180519s" begin="anim0.end" fill="freeze" id="anim1" /></path><path d="M 26.6 35.6 L 26.6 25.8 C 26.6 25.0 26.6 24.2 26.5 23.4 L 21.0 23.4 C 20.1 23.4 19.6 22.6 19.6 21.8 C 19.6 21.1 20.1 20.2 21.0 20.2 L 26.4 20.2 C 25.7 10.1 23.1 4.0 18.7 -0.5 C 18.2 -1.0 18.0 -1.5 18.0 -2.0 C 18.0 -2.9 18.8 -3.6 19.7 -3.6 C 20.2 -3.6 20.8 -3.4 21.3 -2.9 C 26.4 2.1 29.3 9.0 30.0 20.2 L 36.9 20.2 L 36.9 -2.0 C 36.9 -3.0 37.8 -3.6 38.7 -3.6 C 39.6 -3.6 40.5 -3.0 40.5 -2.0 L 40.5 20.2 L 46.7 20.2 C 47.7 20.2 48.2 21.1 48.2 21.8 C 48.2 22.6 47.7 23.4 46.7 23.4 L 40.5 23.4 L 40.5 35.6 L 45.3 35.6 C 46.3 35.6 46.8 36.4 46.8 37.1 C 46.8 37.9 46.3 38.7 45.3 38.7 L 22.1 38.7 C 21.1 38.7 20.6 37.9 20.6 37.1 C 20.6 36.4 21.1 35.6 22.1 35.6 Z " transform="scale(1,-1)" stroke-dasharray="210.09015700953623" stroke-dashoffset="210.09015700953623"><animate attributeName="stroke-dashoffset" from="210.09015700953623" to="0" dur="6.302704710286086s" begin="anim1.end" fill="freeze" id="anim2" /></path><path d="M 30.2 35.6 L 36.9 35.6 L 36.9 23.4 L 30.1 23.4 C 30.1 24.1 30.2 24.8 30.2 25.6 Z" transform="scale(1,-1)" stroke-dasharray="37.90274452234089" stroke-dashoffset="37.90274452234089"><animate attributeName="stroke-dashoffset" from="37.90274452234089" to="0" dur="1.1370823356702267s" begin="anim2.end" fill="freeze" id="anim_end" /></path></g></svg>