<?xml version='1.0' encoding='utf-8'?>
<svg viewBox="0 -44.0 50.0 50.0" version="1.1" xmlns="http://www.w3.org/2000/svg"><rect x="-1000" y="-1000" width="2000" height="2000" stroke="white" fill="white" /><g style="fill:none;stroke:#000000;stroke-width:1"><path d="M 16.6 23.8 C 13.8 23.8 12.5 22.5 12.5 20.1 L 12.5 15.3 C 12.5 8.0 11.4 2.8 9.3 -1.2 C 9.1 -1.6 9.1 -1.9 9.1 -2.2 C 9.1 -3.1 9.8 -3.6 10.6 -3.6 C 11.2 -3.6 11.9 -3.2 12.3 -2.4 C 13.6 0.2 14.5 3.3 15.1 7.0 L 24.6 7.0 L 24.6 1.5 C 24.6 0.1 24.1 -0.2 23.0 -0.2 C 22.5 -0.2 22.2 -0.1 21.5 0.0 C 20.2 0.2 19.6 -0.7 19.6 -1.6 C 19.6 -2.2 20.0 -3.0 20.9 -3.2 C 21.6 -3.3 22.3 -3.4 23.1 -3.4 C 26.2 -3.4 27.7 -2.1 27.7 1.2 L 27.7 20.1 C 27.7 22.5 26.5 23.8 23.6 23.8 L 22.2 23.8 C 22.7 24.6 23.1 25.4 23.4 26.2 C 23.6 26.8 23.7 27.2 23.7 27.7 C 23.7 29.3 22.4 30.2 20.1 30.2 L 17.4 30.2 C 17.6 30.8 17.9 31.2 18.1 31.8 C 18.2 32.1 18.2 32.4 18.2 32.6 C 18.2 33.6 17.4 34.1 16.7 34.1 C 16.0 34.1 15.4 33.8 15.1 33.0 C 14.0 29.9 12.2 26.8 10.3 24.6 C 10.0 24.2 9.9 23.9 9.9 23.5 C 9.9 22.8 10.6 22.2 11.4 22.2 C 11.9 22.2 12.4 22.4 12.8 22.8 C 13.9 24.1 15.0 25.8 16.0 27.5 L 19.1 27.5 C 20.0 27.5 20.3 27.2 20.3 26.9 C 20.3 26.7 20.2 26.6 20.2 26.4 C 19.9 25.6 19.5 24.7 19.0 23.8 Z " transform="scale(1,-1)" stroke-dasharray="153.84998405428223" stroke-dashoffset="153.84998405428223"><animate attributeName="stroke-dashoffset" from="153.84998405428223" to="0" dur="4.615499521628466s" begin="0s; 15s; 30s; 45s; 60s" fill="freeze" id="anim0" /></path><path d="M 15.6 16.8 L 15.6 19.7 C 15.6 20.7 16.0 21.0 17.1 21.0 L 18.6 21.0 L 18.6 16.8 Z " transform="scale(1,-1)" stroke-dasharray="13.932872676285276" stroke-dashoffset="13.932872676285276"><animate attributeName="stroke-dashoffset" from="13.932872676285276" to="0" dur="0.4179861802885583s" begin="anim0.end" fill="freeze" id="anim1" /></path><path d="M 18.6 14.1 L 18.6 9.8 L 15.4 9.8 C 15.5 11.2 15.6 12.7 15.6 14.1 Z " transform="scale(1,-1)" stroke-dasharray="14.805574481591748" stroke-dashoffset="14.805574481591748"><animate attributeName="stroke-dashoffset" from="14.805574481591748" to="0" dur="0.4441672344477524s" begin="anim1.end" fill="freeze" id="anim2" /></path><path d="M 24.6 9.8 L 21.6 9.8 L 21.6 14.1 L 24.6 14.1 Z " transform="scale(1,-1)" stroke-dasharray="14.599999999999998" stroke-dashoffset="14.599999999999998"><animate attributeName="stroke-dashoffset" from="14.599999999999998" to="0" dur="0.43799999999999994s" begin="anim2.end" fill="freeze" id="anim3" /></path><path d="M 24.6 16.8 L 21.6 16.8 L 21.6 21.0 L 23.2 21.0 C 24.2 21.0 24.6 20.7 24.6 19.7 Z " transform="scale(1,-1)" stroke-dasharray="13.941841415527948" stroke-dashoffset="13.941841415527948"><animate attributeName="stroke-dashoffset" from="13.941841415527948" to="0" dur="0.41825524246583845s" begin="anim3.end" fill="freeze" id="anim4" /></path><path d="M 27.5 38.0 L 27.5 41.5 C 27.5 42.4 26.7 42.9 25.8 42.9 C 24.9 42.9 24.0 42.4 24.0 41.5 L 24.0 38.0 L 11.2 38.0 C 6.9 38.0 5.6 36.3 5.6 32.9 L 5.6 25.2 C 5.6 14.1 4.3 6.8 1.7 1.2 C 1.5 0.7 1.4 0.4 1.4 0.0 C 1.4 -1.1 2.1 -1.7 3.0 -1.7 C 3.6 -1.7 4.4 -1.2 4.8 -0.3 C 7.6 5.5 9.1 13.7 9.1 24.8 L 9.1 32.4 C 9.1 34.2 9.6 35.0 11.9 35.0 L 45.7 35.0 C 46.7 35.0 47.1 35.7 47.1 36.5 C 47.1 37.2 46.7 38.0 45.7 38.0 Z " transform="scale(1,-1)" stroke-dasharray="166.5124766147109" stroke-dashoffset="166.5124766147109"><animate attributeName="stroke-dashoffset" from="166.5124766147109" to="0" dur="4.995374298441327s" begin="anim4.end" fill="freeze" id="anim5" /></path><path d="M 37.0 11.8 L 37.0 7.7 L 30.3 7.7 C 29.4 7.7 28.9 7.0 28.9 6.2 C 28.9 5.5 29.4 4.8 30.3 4.8 L 37.0 4.8 L 37.0 -2.5 C 37.0 -3.5 37.9 -4.0 38.7 -4.0 C 39.5 -4.0 40.3 -3.5 40.3 -2.5 L 40.3 4.8 L 46.7 4.8 C 47.7 4.8 48.2 5.5 48.2 6.2 C 48.2 7.0 47.7 7.7 46.7 7.7 L 40.3 7.7 L 40.3 11.8 L 45.6 11.8 C 46.6 11.8 47.0 12.5 47.0 13.2 C 47.0 14.0 46.6 14.7 45.6 14.7 L 40.3 14.7 L 40.3 17.8 C 40.3 18.8 39.5 19.2 38.7 19.2 C 37.9 19.2 37.0 18.8 37.0 17.8 L 37.0 14.7 L 34.4 14.7 C 34.6 15.2 34.7 15.7 34.9 16.1 C 34.9 16.3 35.0 16.4 35.0 16.7 C 35.0 17.6 34.1 18.1 33.4 18.1 C 32.8 18.1 32.1 17.8 31.9 16.9 C 31.3 14.8 30.4 12.7 29.4 11.1 C 29.2 10.7 29.1 10.4 29.1 10.1 C 29.1 9.3 29.8 8.7 30.5 8.7 C 31.1 8.7 31.7 9.0 32.1 9.7 C 32.5 10.3 32.9 11.1 33.2 11.8 Z " transform="scale(1,-1)" stroke-dasharray="116.30698966362499" stroke-dashoffset="116.30698966362499"><animate attributeName="stroke-dashoffset" from="116.30698966362499" to="0" dur="3.4892096899087495s" begin="anim5.end" fill="freeze" id="anim6" /></path><path d="M 34.3 29.2 C 33.7 26.2 32.1 24.0 29.7 22.4 C 29.1 22.0 28.8 21.5 28.8 21.0 C 28.8 20.2 29.6 19.5 30.5 19.5 C 30.8 19.5 31.1 19.6 31.5 19.8 C 34.7 21.9 36.9 25.2 37.6 29.2 L 41.1 29.2 C 42.5 29.2 42.8 29.0 42.8 28.1 C 42.7 27.0 42.6 26.0 42.3 25.2 C 41.9 23.8 41.4 23.4 40.2 23.4 C 39.8 23.4 39.1 23.5 38.5 23.6 C 37.3 23.8 36.6 23.0 36.6 22.1 C 36.6 21.5 37.0 20.8 38.0 20.6 C 38.7 20.5 39.6 20.4 40.4 20.4 C 43.0 20.4 44.6 21.5 45.4 24.4 C 45.7 25.5 45.9 27.0 46.0 28.5 C 46.2 31.0 44.9 32.2 41.9 32.2 L 30.5 32.2 C 29.6 32.2 29.1 31.5 29.1 30.7 C 29.1 30.0 29.6 29.2 30.5 29.2 Z" transform="scale(1,-1)" stroke-dasharray="83.74668330658321" stroke-dashoffset="83.74668330658321"><animate attributeName="stroke-dashoffset" from="83.74668330658321" to="0" dur="2.512400499197496s" begin="anim6.end" fill="freeze" id="anim_end" /></path></g></svg>