<?xml version='1.0' encoding='utf-8'?>
<svg viewBox="0 -44.0 50.0 50.0" version="1.1" xmlns="http://www.w3.org/2000/svg"><rect x="-1000" y="-1000" width="2000" height="2000" stroke="white" fill="white" /><g style="fill:none;stroke:#000000;stroke-width:1"><path d="M 15.3 20.8 L 18.3 20.8 C 22.2 20.8 23.6 22.4 23.6 25.3 L 23.6 35.4 C 23.6 38.4 22.2 40.0 18.3 40.0 L 9.3 40.0 C 5.5 40.0 4.0 38.4 4.0 35.4 L 4.0 25.3 C 4.1 21.8 6.2 20.8 9.3 20.8 L 12.1 20.8 L 12.1 16.3 L 4.0 16.3 C 3.0 16.3 2.6 15.6 2.6 14.8 C 2.6 14.1 3.0 13.3 4.0 13.3 L 11.1 13.3 C 8.6 9.0 5.4 5.1 2.2 2.6 C 1.8 2.2 1.6 1.8 1.6 1.3 C 1.6 0.5 2.3 -0.2 3.2 -0.2 C 3.5 -0.2 3.9 -0.2 4.2 0.2 C 7.2 2.7 10.2 6.2 12.3 9.5 L 12.1 3.5 L 12.1 -2.8 C 12.1 -3.7 12.9 -4.2 13.7 -4.2 C 14.5 -4.2 15.3 -3.7 15.3 -2.8 L 15.3 7.0 C 17.1 6.1 18.9 4.9 20.6 3.5 C 20.9 3.2 21.2 3.1 21.6 3.1 C 22.5 3.1 23.2 3.9 23.2 4.9 C 23.2 5.4 23.0 6.0 22.2 6.5 C 20.4 7.9 17.8 9.2 15.3 10.1 L 15.3 13.3 L 22.5 13.3 C 23.5 13.3 24.0 14.1 24.0 14.8 C 24.0 15.6 23.5 16.3 22.5 16.3 L 15.3 16.3 Z " transform="scale(1,-1)" stroke-dasharray="196.5807030259023" stroke-dashoffset="196.5807030259023"><animate attributeName="stroke-dashoffset" from="196.5807030259023" to="0" dur="5.897421090777069s" begin="0s; 15s; 30s; 45s; 60s" fill="freeze" id="anim0" /></path><path d="M 15.3 29.1 L 20.3 29.1 L 20.3 25.8 C 20.2 24.1 19.6 23.8 17.9 23.8 L 15.3 23.8 Z " transform="scale(1,-1)" stroke-dasharray="19.8658650674607" stroke-dashoffset="19.8658650674607"><animate attributeName="stroke-dashoffset" from="19.8658650674607" to="0" dur="0.5959759520238209s" begin="anim0.end" fill="freeze" id="anim1" /></path><path d="M 12.1 29.1 L 12.1 23.8 L 9.7 23.8 C 8.1 23.8 7.4 24.1 7.4 25.8 L 7.4 29.1 Z " transform="scale(1,-1)" stroke-dasharray="19.307851646987125" stroke-dashoffset="19.307851646987125"><animate attributeName="stroke-dashoffset" from="19.307851646987125" to="0" dur="0.5792355494096137s" begin="anim1.end" fill="freeze" id="anim2" /></path><path d="M 15.3 37.0 L 17.9 37.0 C 19.8 37.0 20.3 36.5 20.3 34.9 L 20.3 32.0 L 15.3 32.0 Z " transform="scale(1,-1)" stroke-dasharray="19.278426767314212" stroke-dashoffset="19.278426767314212"><animate attributeName="stroke-dashoffset" from="19.278426767314212" to="0" dur="0.5783528030194264s" begin="anim2.end" fill="freeze" id="anim3" /></path><path d="M 12.1 37.0 L 12.1 32.0 L 7.4 32.0 L 7.4 34.9 C 7.4 36.5 7.9 37.0 9.7 37.0 Z " transform="scale(1,-1)" stroke-dasharray="18.687868799970403" stroke-dashoffset="18.687868799970403"><animate attributeName="stroke-dashoffset" from="18.687868799970403" to="0" dur="0.560636063999112s" begin="anim3.end" fill="freeze" id="anim4" /></path><path d="M 39.8 18.1 C 40.4 18.9 40.9 19.7 41.4 20.5 C 41.6 20.8 41.7 21.1 41.7 21.4 C 41.7 22.3 40.9 23.0 40.1 23.0 C 39.5 23.0 39.0 22.7 38.6 22.1 C 35.9 17.7 31.6 13.3 28.1 11.1 C 27.3 10.6 27.0 10.0 27.0 9.5 C 27.0 8.7 27.7 8.1 28.5 8.1 C 28.9 8.1 29.3 8.2 29.7 8.5 C 32.1 10.0 34.9 12.4 37.3 15.1 L 42.9 15.1 C 43.8 15.1 44.2 14.9 44.2 14.4 C 44.2 14.1 44.2 13.8 43.9 13.4 C 42.8 11.5 41.4 9.6 39.6 7.9 C 38.5 9.0 37.3 10.0 36.5 10.7 C 36.1 10.9 35.7 11.0 35.4 11.0 C 34.5 11.0 33.8 10.4 33.8 9.6 C 33.8 9.2 34.1 8.7 34.6 8.3 C 35.4 7.6 36.2 6.8 37.4 5.7 C 34.5 3.2 31.1 1.1 27.5 -0.4 C 26.5 -0.8 26.1 -1.5 26.1 -2.1 C 26.1 -2.9 26.7 -3.7 27.7 -3.7 C 28.0 -3.7 28.3 -3.6 28.6 -3.5 C 36.4 -0.4 43.2 5.2 47.4 12.5 C 47.9 13.4 48.1 14.2 48.1 15.0 C 48.1 16.8 46.7 18.1 44.1 18.1 Z " transform="scale(1,-1)" stroke-dasharray="122.85643590865712" stroke-dashoffset="122.85643590865712"><animate attributeName="stroke-dashoffset" from="122.85643590865712" to="0" dur="3.6856930772597134s" begin="anim4.end" fill="freeze" id="anim5" /></path><path d="M 39.2 34.4 C 40.1 34.4 40.5 34.2 40.5 33.8 C 40.5 33.6 40.4 33.2 40.2 32.9 C 39.2 31.2 38.1 29.6 36.7 28.1 C 35.6 29.1 34.7 30.0 34.0 30.5 C 33.6 30.8 33.2 30.9 32.9 30.9 C 32.1 30.9 31.3 30.2 31.3 29.4 C 31.3 28.9 31.6 28.5 32.1 28.1 C 32.8 27.5 33.6 26.8 34.5 25.9 C 31.9 23.5 28.8 21.5 25.7 20.0 C 24.9 19.6 24.5 19.0 24.5 18.4 C 24.5 17.7 25.2 16.9 26.1 16.9 C 26.3 16.9 26.6 17.0 26.8 17.1 C 33.3 20.0 39.7 25.2 43.5 31.9 C 44.0 32.6 44.2 33.4 44.2 34.1 C 44.2 36.0 42.6 37.4 40.1 37.4 L 35.9 37.4 C 36.3 38.0 36.6 38.6 37.0 39.2 C 37.2 39.5 37.3 39.8 37.3 40.1 C 37.3 41.0 36.4 41.7 35.5 41.7 C 34.9 41.7 34.2 41.4 33.8 40.6 C 31.8 36.9 29.0 33.3 25.8 30.8 C 25.3 30.4 25.1 30.0 25.1 29.6 C 25.1 28.7 25.9 28.0 26.7 28.0 C 27.0 28.0 27.4 28.1 27.8 28.4 C 29.9 30.1 31.9 32.1 33.7 34.4 Z" transform="scale(1,-1)" stroke-dasharray="111.22517786017843" stroke-dashoffset="111.22517786017843"><animate attributeName="stroke-dashoffset" from="111.22517786017843" to="0" dur="3.336755335805353s" begin="anim5.end" fill="freeze" id="anim_end" /></path></g></svg>