<?xml version='1.0' encoding='utf-8'?>
<svg viewBox="0 -44.0 50.0 50.0" version="1.1" xmlns="http://www.w3.org/2000/svg"><rect x="-1000" y="-1000" width="2000" height="2000" stroke="white" fill="white" /><g style="fill:none;stroke:#000000;stroke-width:1"><path d="M 28.0 28.1 C 28.7 24.1 29.7 20.1 31.4 16.3 C 33.2 12.1 35.9 8.2 39.2 4.9 C 40.6 3.4 42.1 2.1 43.7 1.0 C 44.1 0.7 44.6 0.5 45.0 0.5 C 46.1 0.5 47.1 1.5 47.1 2.5 C 47.1 3.0 46.8 3.6 46.1 4.0 C 41.5 7.2 37.9 11.1 35.3 15.6 C 38.1 17.1 41.4 19.2 43.8 21.2 C 44.3 21.7 44.6 22.2 44.6 22.7 C 44.6 23.7 43.7 24.5 42.7 24.5 C 42.2 24.5 41.7 24.3 41.2 23.9 C 39.0 21.7 36.5 19.9 33.9 18.4 C 32.5 21.5 31.6 24.8 31.1 28.1 L 38.6 28.1 C 39.6 28.1 40.1 28.9 40.1 29.7 C 40.1 30.5 39.6 31.2 38.6 31.2 L 11.7 31.2 C 10.7 31.2 10.2 30.5 10.2 29.7 C 10.2 28.9 10.7 28.1 11.7 28.1 L 21.5 28.1 C 17.2 24.6 12.2 22.1 6.8 20.3 C 5.8 20.0 5.4 19.3 5.4 18.7 C 5.4 17.9 6.0 17.2 7.0 17.2 C 7.2 17.2 7.4 17.2 7.7 17.3 C 12.0 18.8 16.0 20.5 19.7 22.9 C 20.7 21.9 21.6 20.9 22.4 19.7 C 20.7 18.4 18.9 17.2 17.1 16.0 C 16.4 16.7 15.8 17.2 15.0 17.9 C 14.6 18.2 14.2 18.4 13.7 18.4 C 12.8 18.4 12.0 17.6 12.0 16.8 C 12.0 16.3 12.2 15.9 12.8 15.4 C 13.2 15.1 13.6 14.7 14.0 14.2 C 11.3 12.9 8.6 11.8 5.9 11.0 C 4.9 10.7 4.5 10.0 4.5 9.3 C 4.5 8.6 5.0 8.0 6.0 8.0 C 6.2 8.0 6.4 8.0 6.7 8.1 C 9.8 9.0 13.0 10.3 16.1 12.0 C 16.6 11.5 17.0 10.9 17.5 10.2 C 17.9 9.7 18.4 9.5 18.9 9.5 C 19.9 9.5 20.8 10.2 20.8 11.2 C 20.8 11.6 20.6 12.0 20.3 12.4 C 19.9 12.9 19.6 13.3 19.2 13.8 C 20.9 14.8 22.5 15.9 24.0 17.1 C 24.7 15.8 25.2 14.4 25.7 13.0 C 19.8 7.7 12.2 3.8 4.2 1.6 C 3.3 1.3 2.9 0.6 2.9 -0.1 C 2.9 -0.8 3.5 -1.6 4.5 -1.6 C 4.6 -1.6 4.8 -1.6 5.0 -1.5 C 12.8 0.7 20.6 4.5 26.4 9.3 C 26.6 8.4 26.6 7.5 26.6 6.5 C 26.6 0.5 25.7 0.1 23.6 0.1 C 22.6 0.1 21.5 0.2 20.7 0.5 C 19.2 0.8 18.4 -0.2 18.4 -1.2 C 18.4 -2.0 18.9 -2.7 19.8 -3.0 C 20.9 -3.2 22.2 -3.5 23.8 -3.5 C 28.1 -3.5 30.2 -1.0 30.2 6.5 C 30.2 12.4 27.9 19.2 22.2 24.6 C 23.7 25.7 25.2 26.9 26.5 28.1 Z " transform="scale(1,-1)" stroke-dasharray="363.6270411462577" stroke-dashoffset="363.6270411462577"><animate attributeName="stroke-dashoffset" from="363.6270411462577" to="0" dur="10.90881123438773s" begin="0s; 15s; 30s; 45s; 60s" fill="freeze" id="anim0" /></path><path d="M 9.8 39.2 C 6.0 39.2 4.5 37.8 4.5 35.1 L 4.5 30.2 C 4.5 29.2 5.5 28.8 6.4 28.8 C 7.2 28.8 8.1 29.2 8.1 30.2 L 8.1 34.5 C 8.1 35.8 8.6 36.2 10.4 36.2 L 39.7 36.2 C 41.5 36.2 42.0 35.8 42.0 34.5 L 42.0 30.6 C 42.0 29.7 42.9 29.2 43.8 29.2 C 44.6 29.2 45.5 29.7 45.5 30.6 L 45.5 35.1 C 45.5 37.8 44.1 39.2 40.3 39.2 Z" transform="scale(1,-1)" stroke-dasharray="109.56084744199111" stroke-dashoffset="109.56084744199111"><animate attributeName="stroke-dashoffset" from="109.56084744199111" to="0" dur="3.2868254232597334s" begin="anim0.end" fill="freeze" id="anim_end" /></path></g></svg>