<?xml version='1.0' encoding='utf-8'?>
<svg viewBox="0 -44.0 50.0 50.0" version="1.1" xmlns="http://www.w3.org/2000/svg"><rect x="-1000" y="-1000" width="2000" height="2000" stroke="white" fill="white" /><g style="fill:none;stroke:#000000;stroke-width:1"><path d="M 23.6 9.4 C 26.7 9.4 27.9 10.5 27.9 12.7 L 27.9 15.4 C 27.9 17.6 26.7 18.7 23.6 18.7 L 17.3 18.7 C 14.2 18.7 13.0 17.6 13.0 15.4 L 13.0 12.7 C 13.1 10.0 14.9 9.5 17.3 9.4 Z " transform="scale(1,-1)" stroke-dasharray="42.89130208825901" stroke-dashoffset="42.89130208825901"><animate attributeName="stroke-dashoffset" from="42.89130208825901" to="0" dur="1.2867390626477702s" begin="0s; 15s; 30s; 45s; 60s" fill="freeze" id="anim0" /></path><path d="M 17.6 12.2 C 16.4 12.2 16.2 12.5 16.2 13.2 L 16.2 14.9 C 16.2 15.7 16.4 15.9 17.6 15.9 L 23.2 15.9 C 24.4 15.9 24.7 15.7 24.7 14.9 L 24.7 13.2 C 24.7 12.2 24.1 12.2 23.2 12.2 Z " transform="scale(1,-1)" stroke-dasharray="22.935197480446153" stroke-dashoffset="22.935197480446153"><animate attributeName="stroke-dashoffset" from="22.935197480446153" to="0" dur="0.6880559244133846s" begin="anim0.end" fill="freeze" id="anim1" /></path><path d="M 27.7 37.5 L 27.7 41.2 C 27.7 42.2 26.8 42.7 25.9 42.7 C 25.0 42.7 24.1 42.2 24.1 41.2 L 24.1 37.5 L 11.8 37.5 C 7.4 37.5 6.0 35.8 6.0 32.3 L 6.0 25.1 C 6.0 14.2 4.5 6.6 1.8 1.3 C 1.6 0.9 1.5 0.5 1.5 0.1 C 1.5 -1.0 2.2 -1.6 3.1 -1.6 C 3.8 -1.6 4.5 -1.2 5.0 -0.3 C 7.8 5.5 9.6 13.6 9.6 24.6 L 9.6 31.8 C 9.6 33.6 10.2 34.4 12.5 34.4 L 45.9 34.4 C 46.9 34.4 47.4 35.1 47.4 36.0 C 47.4 36.7 46.9 37.5 45.9 37.5 Z " transform="scale(1,-1)" stroke-dasharray="165.63592375354273" stroke-dashoffset="165.63592375354273"><animate attributeName="stroke-dashoffset" from="165.63592375354273" to="0" dur="4.969077712606282s" begin="anim1.end" fill="freeze" id="anim2" /></path><path d="M 24.1 2.3 C 24.8 3.6 25.4 4.9 25.8 6.1 C 25.9 6.4 25.9 6.6 25.9 6.8 C 25.9 7.8 25.1 8.3 24.2 8.3 C 23.6 8.3 22.9 7.9 22.6 7.0 C 22.2 5.5 21.5 3.6 20.6 1.6 C 17.4 1.0 14.1 0.5 11.1 0.2 C 10.0 0.1 9.4 -0.8 9.4 -1.6 C 9.4 -2.4 10.1 -3.3 11.4 -3.2 C 17.4 -2.5 23.3 -1.2 28.9 0.6 C 29.9 0.9 30.2 1.5 30.2 2.1 C 30.2 2.8 29.7 3.5 28.8 3.5 C 28.6 3.5 28.4 3.5 28.2 3.4 C 26.8 3.0 25.5 2.7 24.1 2.3 Z " transform="scale(1,-1)" stroke-dasharray="57.764570153166794" stroke-dashoffset="57.764570153166794"><animate attributeName="stroke-dashoffset" from="57.764570153166794" to="0" dur="1.7329371045950037s" begin="anim2.end" fill="freeze" id="anim3" /></path><path d="M 18.8 26.8 L 18.8 24.0 L 13.7 24.0 C 12.8 24.0 12.3 23.3 12.3 22.6 C 12.3 21.9 12.8 21.1 13.7 21.1 L 27.3 21.1 C 28.2 21.1 28.8 21.9 28.8 22.6 C 28.8 23.3 28.2 24.0 27.3 24.0 L 22.0 24.0 L 22.0 26.8 L 28.8 26.8 C 29.7 26.8 30.2 27.5 30.2 28.2 C 30.2 29.0 29.7 29.7 28.8 29.7 L 22.0 29.7 L 22.0 31.7 C 22.0 32.6 21.2 33.1 20.4 33.1 C 19.6 33.1 18.8 32.6 18.8 31.7 L 18.8 29.7 L 12.4 29.7 C 11.4 29.7 11.0 29.0 11.0 28.2 C 11.0 27.5 11.4 26.8 12.4 26.8 Z " transform="scale(1,-1)" stroke-dasharray="82.94207623589384" stroke-dashoffset="82.94207623589384"><animate attributeName="stroke-dashoffset" from="82.94207623589384" to="0" dur="2.488262287076815s" begin="anim3.end" fill="freeze" id="anim4" /></path><path d="M 39.8 20.2 L 39.8 2.0 C 39.8 0.7 39.4 0.2 38.4 0.2 C 37.8 0.2 36.9 0.4 36.1 0.5 C 34.9 0.8 34.1 -0.2 34.1 -1.2 C 34.1 -2.0 34.5 -2.7 35.6 -3.0 C 36.4 -3.2 37.6 -3.3 38.4 -3.3 C 42.0 -3.3 43.3 -1.7 43.3 1.7 L 43.3 20.2 L 46.7 20.2 C 47.7 20.2 48.1 21.0 48.1 21.7 C 48.1 22.5 47.7 23.2 46.7 23.2 L 43.3 23.2 L 43.3 31.2 C 43.3 32.2 42.5 32.8 41.6 32.8 C 40.7 32.8 39.8 32.2 39.8 31.2 L 39.8 23.2 L 31.6 23.2 C 30.6 23.2 30.1 22.5 30.1 21.7 C 30.1 21.0 30.6 20.2 31.6 20.2 Z " transform="scale(1,-1)" stroke-dasharray="112.10344147629561" stroke-dashoffset="112.10344147629561"><animate attributeName="stroke-dashoffset" from="112.10344147629561" to="0" dur="3.3631032442888684s" begin="anim4.end" fill="freeze" id="anim5" /></path><path d="M 31.2 13.3 C 32.5 12.0 33.5 10.7 34.5 9.2 C 34.9 8.6 35.4 8.3 35.9 8.3 C 36.8 8.3 37.6 9.1 37.6 10.1 C 37.6 10.5 37.5 11.0 37.1 11.5 C 36.3 12.9 34.8 14.6 33.6 15.6 C 33.2 16.0 32.8 16.1 32.4 16.1 C 31.4 16.1 30.6 15.4 30.6 14.6 C 30.6 14.2 30.8 13.7 31.2 13.3 Z " transform="scale(1,-1)" stroke-dasharray="22.076536672006743" stroke-dashoffset="22.076536672006743"><animate attributeName="stroke-dashoffset" from="22.076536672006743" to="0" dur="0.6622961001602022s" begin="anim5.end" fill="freeze" id="anim6" /></path><path d="M 17.0 7.2 C 16.7 7.8 16.1 8.1 15.5 8.1 C 14.7 8.1 13.9 7.5 13.9 6.7 C 13.9 6.4 14.0 6.1 14.2 5.7 C 14.7 5.0 15.1 4.1 15.6 2.9 C 15.9 2.2 16.5 1.9 17.1 1.9 C 17.9 1.9 18.8 2.5 18.8 3.6 C 18.8 3.8 18.7 4.1 18.6 4.4 C 18.2 5.4 17.7 6.2 17.0 7.2 Z" transform="scale(1,-1)" stroke-dasharray="17.03718831093493" stroke-dashoffset="17.03718831093493"><animate attributeName="stroke-dashoffset" from="17.03718831093493" to="0" dur="0.5111156493280479s" begin="anim6.end" fill="freeze" id="anim_end" /></path></g></svg>