<?xml version='1.0' encoding='utf-8'?>
<svg viewBox="0 -44.0 50.0 50.0" version="1.1" xmlns="http://www.w3.org/2000/svg"><rect x="-1000" y="-1000" width="2000" height="2000" stroke="white" fill="white" /><g style="fill:none;stroke:#000000;stroke-width:1"><path d="M 4.9 35.0 C 4.0 35.0 3.5 34.3 3.5 33.6 C 3.5 32.9 4.0 32.1 4.9 32.1 L 9.7 32.1 C 7.6 29.0 5.1 26.4 2.5 24.5 C 1.8 24.1 1.6 23.5 1.6 23.0 C 1.6 22.2 2.2 21.5 3.2 21.5 C 3.6 21.5 4.0 21.6 4.4 21.9 C 7.7 24.3 11.1 27.9 13.7 32.1 L 19.4 32.1 C 21.2 28.8 24.4 25.3 27.7 23.1 C 28.2 22.7 28.7 22.6 29.1 22.6 C 30.0 22.6 30.7 23.4 30.7 24.2 C 30.7 24.9 30.4 25.6 29.5 26.2 C 26.9 27.8 24.6 29.8 23.0 32.1 L 27.6 32.1 C 28.6 32.1 29.0 32.9 29.0 33.6 C 29.0 34.3 28.6 35.0 27.6 35.0 L 15.3 35.0 C 16.0 36.5 16.7 38.0 17.2 39.5 C 17.2 39.7 17.2 39.9 17.2 40.1 C 17.2 41.1 16.4 41.7 15.5 41.7 C 14.8 41.7 14.1 41.3 13.8 40.4 C 13.2 38.5 12.4 36.7 11.4 35.0 Z " transform="scale(1,-1)" stroke-dasharray="116.88612753002722" stroke-dashoffset="116.88612753002722"><animate attributeName="stroke-dashoffset" from="116.88612753002722" to="0" dur="3.5065838259008166s" begin="0s; 15s; 30s; 45s; 60s" fill="freeze" id="anim0" /></path><path d="M 19.3 8.3 C 20.9 8.3 21.2 8.0 21.2 6.9 C 21.1 5.2 20.8 3.3 20.3 2.0 C 19.8 0.6 19.2 0.1 18.0 0.1 C 17.1 0.1 16.2 0.2 15.5 0.4 C 14.2 0.7 13.4 -0.2 13.4 -1.2 C 13.4 -2.0 13.9 -2.8 14.9 -3.0 C 15.8 -3.2 16.9 -3.4 18.0 -3.4 C 21.1 -3.4 22.8 -2.1 23.8 1.3 C 24.2 3.1 24.6 5.1 24.7 7.2 C 24.9 9.7 23.5 11.2 20.1 11.2 L 12.5 11.2 C 13.1 12.7 13.5 14.1 14.0 15.5 L 26.4 15.5 C 27.4 15.5 27.9 16.3 27.9 17.1 C 27.9 17.9 27.4 18.6 26.4 18.6 L 5.2 18.6 C 4.3 18.6 3.8 17.9 3.8 17.1 C 3.8 16.3 4.3 15.5 5.2 15.5 L 10.5 15.5 C 9.5 12.7 8.4 10.2 7.0 7.7 C 6.8 7.4 6.7 7.0 6.7 6.7 C 6.7 5.8 7.5 5.2 8.3 5.2 C 9.0 5.2 9.8 5.5 10.2 6.4 C 10.6 7.1 10.9 7.7 11.2 8.3 Z " transform="scale(1,-1)" stroke-dasharray="128.8529902507924" stroke-dashoffset="128.8529902507924"><animate attributeName="stroke-dashoffset" from="128.8529902507924" to="0" dur="3.865589707523772s" begin="anim0.end" fill="freeze" id="anim1" /></path><path d="M 33.0 9.2 C 33.0 8.2 33.9 7.7 34.7 7.7 C 35.6 7.7 36.5 8.2 36.5 9.2 L 36.5 35.5 C 36.5 36.6 35.6 37.1 34.7 37.1 C 33.9 37.1 33.0 36.6 33.0 35.5 Z " transform="scale(1,-1)" stroke-dasharray="63.07499961276697" stroke-dashoffset="63.07499961276697"><animate attributeName="stroke-dashoffset" from="63.07499961276697" to="0" dur="1.892249988383009s" begin="anim1.end" fill="freeze" id="anim2" /></path><path d="M 21.1 22.5 C 22.1 22.5 22.5 23.3 22.5 24.1 C 22.5 24.9 22.1 25.6 21.1 25.6 L 11.2 25.6 C 10.2 25.6 9.8 24.9 9.8 24.1 C 9.8 23.3 10.2 22.5 11.2 22.5 Z " transform="scale(1,-1)" stroke-dasharray="29.25179849822774" stroke-dashoffset="29.25179849822774"><animate attributeName="stroke-dashoffset" from="29.25179849822774" to="0" dur="0.8775539549468322s" begin="anim2.end" fill="freeze" id="anim3" /></path><path d="M 45.6 39.0 C 45.6 40.1 44.7 40.6 43.8 40.6 C 42.9 40.6 42.0 40.1 42.0 39.0 L 42.0 2.6 C 42.0 1.1 41.5 0.7 40.4 0.7 C 39.8 0.7 39.0 0.8 38.1 0.9 C 36.9 1.2 36.1 0.2 36.1 -0.9 C 36.1 -1.6 36.6 -2.4 37.5 -2.6 C 38.6 -2.8 39.6 -2.9 40.5 -2.9 C 44.2 -2.9 45.6 -1.4 45.6 2.2 Z" transform="scale(1,-1)" stroke-dasharray="100.76202602883353" stroke-dashoffset="100.76202602883353"><animate attributeName="stroke-dashoffset" from="100.76202602883353" to="0" dur="3.0228607808650056s" begin="anim3.end" fill="freeze" id="anim_end" /></path></g></svg>