<?xml version='1.0' encoding='utf-8'?>
<svg viewBox="0 -44.0 50.0 50.0" version="1.1" xmlns="http://www.w3.org/2000/svg"><rect x="-1000" y="-1000" width="2000" height="2000" stroke="white" fill="white" /><g style="fill:none;stroke:#000000;stroke-width:1"><path d="M 40.8 29.3 C 42.4 29.3 43.0 28.8 43.0 27.6 L 43.0 24.5 C 43.0 23.5 43.9 23.0 44.8 23.0 C 45.6 23.0 46.5 23.5 46.5 24.5 L 46.5 28.1 C 46.5 30.6 45.2 32.3 41.6 32.3 L 34.1 32.3 L 34.1 39.8 C 34.1 41.0 33.2 41.5 32.4 41.5 C 31.5 41.5 30.6 41.0 30.6 39.8 L 30.6 32.3 L 25.2 32.3 C 21.6 32.3 20.2 30.6 20.2 28.1 L 20.2 24.0 C 20.2 23.0 21.2 22.5 22.1 22.5 C 22.9 22.5 23.8 23.0 23.8 24.0 L 23.8 27.6 C 23.8 28.8 24.4 29.3 26.1 29.3 L 30.5 29.3 C 30.4 26.4 30.2 23.5 29.6 20.6 C 28.7 16.1 27.2 11.7 24.7 7.9 C 23.5 6.0 22.0 4.2 20.4 2.6 C 19.4 1.6 18.2 0.7 17.1 -0.2 C 16.4 -0.7 16.1 -1.3 16.1 -1.8 C 16.1 -2.7 16.9 -3.4 17.8 -3.4 C 18.2 -3.4 18.6 -3.3 18.9 -3.0 C 26.3 2.2 31.1 9.5 33.1 19.4 L 33.1 1.2 C 33.1 -1.8 34.4 -2.7 39.4 -2.7 C 45.3 -2.7 47.4 -1.0 48.0 4.7 C 48.1 6.0 47.2 6.6 46.4 6.6 C 45.6 6.6 44.8 6.1 44.6 5.1 C 44.2 1.4 43.2 0.4 39.4 0.4 C 37.0 0.4 36.6 0.7 36.6 2.1 L 36.6 20.8 C 36.6 22.0 35.7 22.5 34.9 22.5 C 34.4 22.5 33.9 22.4 33.5 22.0 C 33.9 24.4 34.0 26.9 34.1 29.3 Z " transform="scale(1,-1)" stroke-dasharray="244.78063135501424" stroke-dashoffset="244.78063135501424"><animate attributeName="stroke-dashoffset" from="244.78063135501424" to="0" dur="7.343418940650427s" begin="0s; 15s; 30s; 45s; 60s" fill="freeze" id="anim0" /></path><path d="M 8.7 27.6 C 7.1 21.1 4.6 15.0 1.7 10.5 C 1.4 10.1 1.2 9.7 1.2 9.3 C 1.2 8.5 1.9 7.9 2.7 7.9 C 3.2 7.9 3.8 8.2 4.2 8.8 C 6.3 12.0 8.2 15.9 9.5 19.8 L 9.2 9.3 L 9.2 -2.7 C 9.2 -3.7 10.1 -4.2 10.9 -4.2 C 11.7 -4.2 12.5 -3.7 12.5 -2.7 L 12.5 19.1 C 13.7 17.9 14.9 16.6 15.7 15.4 C 16.1 14.8 16.7 14.5 17.2 14.5 C 17.9 14.5 18.7 15.2 18.7 16.1 C 18.7 16.6 18.5 17.1 18.1 17.6 C 16.8 19.4 14.8 21.2 12.5 22.8 L 12.5 27.6 L 16.8 27.6 C 17.8 27.6 18.2 28.3 18.2 29.1 C 18.2 29.9 17.8 30.6 16.8 30.6 L 12.5 30.6 L 12.5 40.4 C 12.5 41.4 11.7 41.9 10.9 41.9 C 10.1 41.9 9.2 41.4 9.2 40.4 L 9.2 30.6 L 3.8 30.6 C 2.9 30.6 2.4 29.9 2.4 29.1 C 2.4 28.3 2.9 27.6 3.8 27.6 Z" transform="scale(1,-1)" stroke-dasharray="161.51353729373076" stroke-dashoffset="161.51353729373076"><animate attributeName="stroke-dashoffset" from="161.51353729373076" to="0" dur="4.845406118811923s" begin="anim0.end" fill="freeze" id="anim_end" /></path></g></svg>