<?xml version='1.0' encoding='utf-8'?>
<svg viewBox="0 -44.0 50.0 50.0" version="1.1" xmlns="http://www.w3.org/2000/svg"><rect x="-1000" y="-1000" width="2000" height="2000" stroke="white" fill="white" /><g style="fill:none;stroke:#000000;stroke-width:1"><path d="M 8.0 27.8 C 6.6 21.2 4.2 15.2 1.5 10.9 C 1.2 10.5 1.1 10.1 1.1 9.7 C 1.1 8.9 1.7 8.3 2.5 8.3 C 3.0 8.3 3.6 8.7 4.0 9.3 C 5.8 12.3 7.5 16.0 8.7 19.7 L 8.4 9.5 L 8.4 -2.8 C 8.4 -3.7 9.2 -4.2 10.1 -4.2 C 10.9 -4.2 11.7 -3.7 11.7 -2.8 L 11.7 20.7 C 12.6 19.7 13.5 18.7 14.2 17.7 C 14.6 17.0 15.2 16.8 15.7 16.8 C 16.4 16.8 17.2 17.4 17.2 18.2 C 17.2 18.7 17.0 19.2 16.6 19.7 C 15.3 21.3 13.7 22.9 11.7 24.4 L 11.7 27.8 L 15.4 27.8 C 16.3 27.8 16.8 28.5 16.8 29.2 C 16.8 30.0 16.3 30.8 15.4 30.8 L 11.7 30.8 L 11.7 40.5 C 11.7 41.5 10.9 41.9 10.1 41.9 C 9.2 41.9 8.4 41.5 8.4 40.5 L 8.4 30.8 L 3.4 30.8 C 2.5 30.8 2.0 30.0 2.0 29.2 C 2.0 28.5 2.5 27.8 3.4 27.8 Z " transform="scale(1,-1)" stroke-dasharray="156.1619697341014" stroke-dashoffset="156.1619697341014"><animate attributeName="stroke-dashoffset" from="156.1619697341014" to="0" dur="4.684859092023042s" begin="0s; 15s; 30s; 45s; 60s" fill="freeze" id="anim0" /></path><path d="M 47.2 15.4 C 48.2 15.4 48.7 16.1 48.7 16.9 C 48.7 17.6 48.2 18.4 47.2 18.4 L 43.5 18.4 C 43.6 20.2 43.7 22.2 43.7 24.1 C 43.8 27.0 42.4 28.5 38.8 28.5 L 27.2 28.5 C 23.6 28.5 22.4 27.1 22.1 24.4 C 21.9 22.4 21.7 20.4 21.4 18.4 L 18.7 18.4 C 17.8 18.4 17.3 17.6 17.3 16.9 C 17.3 16.1 17.8 15.4 18.7 15.4 L 20.9 15.4 C 20.2 11.2 19.5 7.0 18.5 3.0 C 18.2 1.7 19.2 1.0 20.2 1.0 C 21.0 1.0 21.8 1.5 22.0 2.5 C 22.1 3.1 22.2 3.7 22.4 4.2 L 38.8 4.2 C 38.7 3.8 38.7 3.2 38.6 2.8 C 38.1 0.5 37.2 -0.2 35.4 -0.2 C 34.8 -0.2 34.0 -0.1 33.2 0.1 C 32.0 0.3 31.2 -0.6 31.2 -1.6 C 31.2 -2.3 31.7 -3.1 32.6 -3.2 C 33.4 -3.4 34.4 -3.6 35.6 -3.6 C 39.1 -3.6 41.1 -1.9 41.8 2.5 C 41.9 3.1 42.0 3.7 42.1 4.2 L 45.6 4.2 C 46.6 4.2 47.1 5.0 47.1 5.8 C 47.1 6.5 46.6 7.2 45.6 7.2 L 42.5 7.2 C 42.9 10.0 43.1 12.7 43.3 15.4 Z " transform="scale(1,-1)" stroke-dasharray="144.6085348789495" stroke-dashoffset="144.6085348789495"><animate attributeName="stroke-dashoffset" from="144.6085348789495" to="0" dur="4.338256046368485s" begin="anim0.end" fill="freeze" id="anim1" /></path><path d="M 40.0 15.4 C 39.9 12.7 39.6 10.0 39.2 7.2 L 32.4 7.2 C 32.8 10.0 33.1 12.7 33.5 15.4 Z " transform="scale(1,-1)" stroke-dasharray="29.816329671432626" stroke-dashoffset="29.816329671432626"><animate attributeName="stroke-dashoffset" from="29.816329671432626" to="0" dur="0.8944898901429787s" begin="anim1.end" fill="freeze" id="anim2" /></path><path d="M 33.8 18.4 C 34.0 20.8 34.1 23.2 34.4 25.6 L 38.2 25.6 C 40.1 25.6 40.5 25.2 40.4 23.7 C 40.4 21.9 40.3 20.1 40.2 18.4 Z " transform="scale(1,-1)" stroke-dasharray="26.264898098539796" stroke-dashoffset="26.264898098539796"><animate attributeName="stroke-dashoffset" from="26.264898098539796" to="0" dur="0.7879469429561938s" begin="anim2.end" fill="freeze" id="anim3" /></path><path d="M 31.1 25.6 C 31.0 23.2 30.8 20.8 30.5 18.4 L 24.7 18.4 C 25.0 20.2 25.2 22.1 25.4 23.9 C 25.5 25.2 26.0 25.6 27.6 25.6 Z " transform="scale(1,-1)" stroke-dasharray="25.288709349761838" stroke-dashoffset="25.288709349761838"><animate attributeName="stroke-dashoffset" from="25.288709349761838" to="0" dur="0.7586612804928551s" begin="anim3.end" fill="freeze" id="anim4" /></path><path d="M 30.2 15.4 C 29.9 12.7 29.5 10.0 29.1 7.2 L 23.0 7.2 C 23.5 10.0 23.9 12.7 24.3 15.4 Z " transform="scale(1,-1)" stroke-dasharray="28.576564713498332" stroke-dashoffset="28.576564713498332"><animate attributeName="stroke-dashoffset" from="28.576564713498332" to="0" dur="0.8572969414049499s" begin="anim4.end" fill="freeze" id="anim5" /></path><path d="M 45.7 32.4 C 46.7 32.4 47.2 33.2 47.2 34.0 C 47.2 34.8 46.7 35.6 45.7 35.6 L 26.5 35.6 C 27.1 36.9 27.7 38.1 28.1 39.4 C 28.2 39.7 28.2 39.9 28.2 40.1 C 28.2 41.2 27.4 41.8 26.5 41.8 C 25.9 41.8 25.2 41.5 24.9 40.6 C 23.2 36.3 20.9 32.2 18.4 29.2 C 18.0 28.7 17.9 28.2 17.9 27.8 C 17.9 26.9 18.6 26.2 19.4 26.2 C 19.9 26.2 20.5 26.5 21.0 27.1 C 22.2 28.7 23.6 30.5 24.7 32.4 Z" transform="scale(1,-1)" stroke-dasharray="80.28665372335256" stroke-dashoffset="80.28665372335256"><animate attributeName="stroke-dashoffset" from="80.28665372335256" to="0" dur="2.4085996117005766s" begin="anim5.end" fill="freeze" id="anim_end" /></path></g></svg>