<?xml version='1.0' encoding='utf-8'?>
<svg viewBox="0 -44.0 50.0 50.0" version="1.1" xmlns="http://www.w3.org/2000/svg"><rect x="-1000" y="-1000" width="2000" height="2000" stroke="white" fill="white" /><g style="fill:none;stroke:#000000;stroke-width:1"><path d="M 8.2 27.7 C 6.7 21.2 4.4 15.0 1.5 10.6 C 1.2 10.2 1.1 9.8 1.1 9.5 C 1.1 8.6 1.8 8.1 2.5 8.1 C 3.1 8.1 3.6 8.3 4.0 9.0 C 6.0 12.1 7.7 15.9 8.9 19.7 L 8.7 9.4 L 8.7 -2.7 C 8.7 -3.7 9.5 -4.2 10.3 -4.2 C 11.2 -4.2 12.0 -3.7 12.0 -2.7 L 12.0 19.6 C 13.2 18.5 14.6 17.2 15.5 16.1 C 15.9 15.5 16.4 15.3 16.9 15.3 C 17.7 15.3 18.4 16.0 18.4 16.9 C 18.4 17.4 18.2 17.9 17.8 18.4 C 16.2 20.1 14.2 21.8 12.0 23.1 L 12.0 27.7 L 15.9 27.7 C 16.8 27.7 17.2 28.4 17.2 29.2 C 17.2 29.9 16.8 30.7 15.9 30.7 L 12.0 30.7 L 12.0 40.4 C 12.0 41.4 11.2 41.9 10.3 41.9 C 9.5 41.9 8.7 41.4 8.7 40.4 L 8.7 30.7 L 3.5 30.7 C 2.6 30.7 2.1 29.9 2.1 29.2 C 2.1 28.4 2.6 27.7 3.5 27.7 Z " transform="scale(1,-1)" stroke-dasharray="159.18654332903606" stroke-dashoffset="159.18654332903606"><animate attributeName="stroke-dashoffset" from="159.18654332903606" to="0" dur="4.775596299871082s" begin="0s; 15s; 30s; 45s; 60s" fill="freeze" id="anim0" /></path><path d="M 25.5 34.8 C 31.2 35.4 37.2 36.4 42.2 37.8 C 43.1 38.1 43.5 38.7 43.5 39.2 C 43.5 40.2 42.7 41.0 41.6 41.0 C 41.4 41.0 41.2 41.0 41.0 40.9 C 36.6 39.6 30.6 38.5 26.0 38.0 C 25.7 38.5 25.0 38.9 24.4 38.9 C 23.7 38.9 23.0 38.5 22.8 37.6 C 21.6 33.7 19.9 29.8 17.8 26.7 C 17.5 26.2 17.4 25.8 17.4 25.4 C 17.4 24.5 18.1 23.8 18.9 23.8 C 19.5 23.8 20.1 24.1 20.6 24.8 C 22.5 27.6 24.2 31.2 25.5 34.8 Z " transform="scale(1,-1)" stroke-dasharray="71.0602456076952" stroke-dashoffset="71.0602456076952"><animate attributeName="stroke-dashoffset" from="71.0602456076952" to="0" dur="2.131807368230856s" begin="anim0.end" fill="freeze" id="anim1" /></path><path d="M 34.6 15.5 C 36.9 16.6 38.9 18.1 40.4 19.6 C 41.3 20.5 41.8 21.5 41.8 22.4 C 41.8 23.8 40.5 25.0 38.1 25.0 L 24.2 25.0 C 23.2 25.0 22.7 24.2 22.7 23.4 C 22.7 22.7 23.2 21.9 24.2 21.9 L 36.8 21.9 C 37.2 21.9 37.5 21.8 37.5 21.6 C 37.5 21.4 37.4 21.2 37.1 20.9 C 36.2 20.1 35.1 19.2 33.8 18.4 C 33.5 18.5 33.2 18.6 33.0 18.6 C 32.1 18.6 31.2 18.0 31.2 16.9 L 31.2 13.4 L 19.2 13.4 C 18.2 13.4 17.7 12.6 17.7 11.8 C 17.7 11.0 18.2 10.2 19.2 10.2 L 31.2 10.2 L 31.2 1.9 C 31.2 0.2 30.8 -0.2 29.5 -0.2 C 28.7 -0.2 28.1 -0.1 27.3 0.1 C 26.0 0.3 25.2 -0.7 25.2 -1.7 C 25.2 -2.4 25.7 -3.2 26.8 -3.4 C 27.7 -3.6 28.4 -3.7 29.5 -3.7 C 33.2 -3.7 34.6 -2.2 34.6 1.4 L 34.6 10.2 L 46.1 10.2 C 47.2 10.2 47.7 11.0 47.7 11.8 C 47.7 12.6 47.2 13.4 46.1 13.4 L 34.6 13.4 Z " transform="scale(1,-1)" stroke-dasharray="158.07870190242505" stroke-dashoffset="158.07870190242505"><animate attributeName="stroke-dashoffset" from="158.07870190242505" to="0" dur="4.742361057072752s" begin="anim1.end" fill="freeze" id="anim2" /></path><path d="M 33.2 33.5 C 32.8 34.1 32.1 34.5 31.6 34.5 C 30.8 34.5 30.0 33.9 30.0 33.1 C 30.0 32.8 30.1 32.5 30.2 32.2 C 30.9 31.0 31.4 29.5 31.8 28.1 C 32.1 27.2 32.8 26.7 33.5 26.7 C 34.4 26.7 35.1 27.4 35.1 28.5 C 35.1 28.7 35.1 29.0 35.1 29.2 C 34.6 30.7 34.0 32.1 33.2 33.5 Z " transform="scale(1,-1)" stroke-dasharray="20.100499436943863" stroke-dashoffset="20.100499436943863"><animate attributeName="stroke-dashoffset" from="20.100499436943863" to="0" dur="0.6030149831083159s" begin="anim2.end" fill="freeze" id="anim3" /></path><path d="M 42.9 34.9 C 42.5 35.3 41.9 35.5 41.5 35.5 C 40.6 35.5 39.8 34.9 39.8 34.0 C 39.8 33.6 40.0 33.2 40.4 32.8 C 41.6 31.4 43.1 29.4 44.1 27.7 C 44.5 27.0 45.1 26.6 45.7 26.6 C 46.6 26.6 47.4 27.4 47.4 28.5 C 47.4 28.8 47.3 29.2 47.1 29.7 C 46.0 31.4 44.3 33.5 42.9 34.9 Z" transform="scale(1,-1)" stroke-dasharray="24.5713749530921" stroke-dashoffset="24.5713749530921"><animate attributeName="stroke-dashoffset" from="24.5713749530921" to="0" dur="0.737141248592763s" begin="anim3.end" fill="freeze" id="anim_end" /></path></g></svg>