<?xml version='1.0' encoding='utf-8'?>
<svg viewBox="0 -44.0 50.0 50.0" version="1.1" xmlns="http://www.w3.org/2000/svg"><rect x="-1000" y="-1000" width="2000" height="2000" stroke="white" fill="white" /><g style="fill:none;stroke:#000000;stroke-width:1"><path d="M 13.1 14.6 C 14.8 15.2 16.4 15.9 17.8 16.5 C 18.6 16.9 18.9 17.6 18.9 18.1 C 18.9 18.9 18.4 19.7 17.4 19.7 C 17.2 19.7 16.9 19.6 16.6 19.5 C 15.6 19.0 14.4 18.5 13.1 18.0 L 13.1 27.9 L 17.1 27.9 C 18.1 27.9 18.6 28.7 18.6 29.5 C 18.6 30.2 18.1 31.0 17.1 31.0 L 13.1 31.0 L 13.1 40.2 C 13.1 41.2 12.2 41.8 11.4 41.8 C 10.5 41.8 9.6 41.2 9.6 40.2 L 9.6 31.0 L 4.4 31.0 C 3.5 31.0 3.0 30.2 3.0 29.5 C 3.0 28.7 3.5 27.9 4.4 27.9 L 9.6 27.9 L 9.6 16.8 C 7.7 16.2 5.7 15.6 3.9 15.2 C 2.8 14.9 2.2 14.1 2.2 13.4 C 2.2 12.5 2.9 11.7 4.0 11.7 C 4.2 11.7 4.4 11.7 4.7 11.8 C 6.2 12.2 7.9 12.7 9.6 13.2 L 9.6 2.1 C 9.6 0.5 9.1 0.1 7.8 0.1 C 7.2 0.1 6.6 0.2 5.8 0.3 C 4.4 0.6 3.6 -0.4 3.6 -1.4 C 3.6 -2.1 4.1 -2.9 5.2 -3.2 C 6.2 -3.4 7.2 -3.5 8.0 -3.5 C 11.4 -3.5 13.1 -2.0 13.1 1.8 Z " transform="scale(1,-1)" stroke-dasharray="150.14081749691334" stroke-dashoffset="150.14081749691334"><animate attributeName="stroke-dashoffset" from="150.14081749691334" to="0" dur="4.5042245249074s" begin="0s; 15s; 30s; 45s; 60s" fill="freeze" id="anim0" /></path><path d="M 33.3 18.6 L 46.2 20.0 C 47.2 20.1 47.6 20.9 47.6 21.6 C 47.6 22.4 47.0 23.3 45.9 23.2 L 33.3 21.8 L 33.3 33.8 C 36.7 34.8 39.9 36.1 42.4 37.2 C 43.2 37.6 43.6 38.2 43.6 38.9 C 43.6 39.8 42.9 40.6 41.9 40.6 C 41.6 40.6 41.2 40.5 40.9 40.3 C 36.6 38.1 29.6 35.8 23.6 34.6 C 22.5 34.4 22.0 33.7 22.0 33.0 C 22.0 32.1 22.8 31.2 24.1 31.5 C 25.9 31.8 27.8 32.2 29.7 32.7 L 29.7 21.4 L 21.9 20.6 C 20.9 20.5 20.5 19.7 20.5 19.0 C 20.5 18.2 21.1 17.2 22.2 17.4 L 29.7 18.2 L 29.7 3.2 C 29.7 -0.6 31.1 -1.9 37.2 -1.9 C 44.2 -1.9 46.3 -0.2 47.0 5.7 C 47.1 6.9 46.2 7.6 45.2 7.6 C 44.4 7.6 43.7 7.1 43.5 6.1 C 43.0 2.2 41.8 1.4 37.2 1.4 C 34.0 1.4 33.3 2.0 33.3 3.9 Z" transform="scale(1,-1)" stroke-dasharray="194.0540035808217" stroke-dashoffset="194.0540035808217"><animate attributeName="stroke-dashoffset" from="194.0540035808217" to="0" dur="5.821620107424651s" begin="anim0.end" fill="freeze" id="anim_end" /></path></g></svg>