<?xml version='1.0' encoding='utf-8'?>
<svg viewBox="0 -44.0 50.0 50.0" version="1.1" xmlns="http://www.w3.org/2000/svg"><rect x="-1000" y="-1000" width="2000" height="2000" stroke="white" fill="white" /><g style="fill:none;stroke:#000000;stroke-width:1"><path d="M 26.7 30.6 L 26.7 39.7 C 26.7 40.8 25.8 41.2 25.0 41.2 C 24.1 41.2 23.2 40.8 23.2 39.7 L 23.2 30.6 L 17.5 30.6 C 16.6 30.6 16.1 29.8 16.1 29.0 C 16.1 28.2 16.6 27.4 17.5 27.4 L 23.2 27.4 L 23.2 15.5 L 16.6 15.5 C 15.7 15.5 15.2 14.7 15.2 13.9 C 15.2 13.1 15.7 12.2 16.6 12.2 L 46.2 12.2 C 47.2 12.2 47.7 13.1 47.7 13.9 C 47.7 14.7 47.2 15.5 46.2 15.5 L 38.0 15.5 L 38.0 27.4 L 44.3 27.4 C 45.3 27.4 45.8 28.2 45.8 29.0 C 45.8 29.8 45.3 30.6 44.3 30.6 L 38.0 30.6 L 38.0 39.7 C 38.0 40.8 37.1 41.2 36.2 41.2 C 35.4 41.2 34.5 40.8 34.5 39.7 L 34.5 30.6 Z " transform="scale(1,-1)" stroke-dasharray="166.28221936727965" stroke-dashoffset="166.28221936727965"><animate attributeName="stroke-dashoffset" from="166.28221936727965" to="0" dur="4.98846658101839s" begin="0s; 15s; 30s; 45s; 60s" fill="freeze" id="anim0" /></path><path d="M 26.7 15.5 L 26.7 27.4 L 34.5 27.4 L 34.5 15.5 Z " transform="scale(1,-1)" stroke-dasharray="39.4" stroke-dashoffset="39.4"><animate attributeName="stroke-dashoffset" from="39.4" to="0" dur="1.182s" begin="anim0.end" fill="freeze" id="anim1" /></path><path d="M 10.1 13.2 C 8.7 9.0 6.4 3.8 4.1 0.6 C 3.8 0.1 3.7 -0.4 3.7 -0.8 C 3.7 -1.7 4.5 -2.4 5.4 -2.4 C 6.1 -2.4 6.8 -2.1 7.2 -1.3 C 9.5 2.2 12.1 7.8 13.5 12.2 C 13.6 12.5 13.6 12.8 13.6 13.0 C 13.6 14.1 12.8 14.8 11.9 14.8 C 11.2 14.8 10.4 14.3 10.1 13.2 Z " transform="scale(1,-1)" stroke-dasharray="41.3926696568978" stroke-dashoffset="41.3926696568978"><animate attributeName="stroke-dashoffset" from="41.3926696568978" to="0" dur="1.241780089706934s" begin="anim1.end" fill="freeze" id="anim2" /></path><path d="M 37.6 8.3 C 37.1 9.0 36.5 9.2 36.0 9.2 C 35.1 9.2 34.2 8.6 34.2 7.6 C 34.2 7.3 34.4 6.9 34.6 6.6 C 36.6 3.7 39.5 0.4 42.3 -2.0 C 42.8 -2.4 43.2 -2.5 43.7 -2.5 C 44.7 -2.5 45.4 -1.7 45.4 -0.8 C 45.4 -0.2 45.1 0.5 44.4 1.1 C 42.1 3.1 39.4 6.0 37.6 8.3 Z " transform="scale(1,-1)" stroke-dasharray="33.582798038710784" stroke-dashoffset="33.582798038710784"><animate attributeName="stroke-dashoffset" from="33.582798038710784" to="0" dur="1.0074839411613234s" begin="anim2.end" fill="freeze" id="anim3" /></path><path d="M 23.7 8.2 C 21.7 5.2 18.4 2.3 15.8 0.5 C 15.0 0.0 14.7 -0.6 14.7 -1.2 C 14.7 -2.1 15.5 -2.9 16.4 -2.9 C 16.9 -2.9 17.2 -2.8 17.6 -2.5 C 20.9 -0.5 24.6 3.0 26.8 6.2 C 27.1 6.7 27.2 7.1 27.2 7.5 C 27.2 8.5 26.3 9.2 25.4 9.2 C 24.8 9.2 24.2 9.0 23.7 8.2 Z " transform="scale(1,-1)" stroke-dasharray="36.09616061933727" stroke-dashoffset="36.09616061933727"><animate attributeName="stroke-dashoffset" from="36.09616061933727" to="0" dur="1.082884818580118s" begin="anim3.end" fill="freeze" id="anim4" /></path><path d="M 9.3 40.2 C 9.0 40.5 8.6 40.6 8.2 40.6 C 7.2 40.6 6.4 39.8 6.4 38.9 C 6.4 38.4 6.6 37.8 7.2 37.4 C 8.3 36.6 9.9 35.1 11.2 33.6 C 11.6 33.1 12.2 32.9 12.7 32.9 C 13.6 32.9 14.5 33.7 14.5 34.7 C 14.5 35.2 14.2 35.8 13.8 36.2 C 12.7 37.6 10.8 39.2 9.3 40.2 Z " transform="scale(1,-1)" stroke-dasharray="23.500289570424457" stroke-dashoffset="23.500289570424457"><animate attributeName="stroke-dashoffset" from="23.500289570424457" to="0" dur="0.7050086871127337s" begin="anim4.end" fill="freeze" id="anim5" /></path><path d="M 5.6 28.4 C 5.2 28.6 4.8 28.7 4.4 28.7 C 3.4 28.7 2.6 27.9 2.6 27.0 C 2.6 26.5 2.8 26.0 3.5 25.5 C 4.6 24.7 6.5 23.2 7.8 21.9 C 8.2 21.4 8.8 21.2 9.2 21.2 C 10.2 21.2 11.0 22.0 11.0 23.0 C 11.0 23.5 10.8 24.0 10.3 24.5 C 9.0 25.9 6.9 27.5 5.6 28.4 Z" transform="scale(1,-1)" stroke-dasharray="23.69164708498515" stroke-dashoffset="23.69164708498515"><animate attributeName="stroke-dashoffset" from="23.69164708498515" to="0" dur="0.7107494125495545s" begin="anim5.end" fill="freeze" id="anim_end" /></path></g></svg>