<?xml version='1.0' encoding='utf-8'?>
<svg viewBox="0 -44.0 50.0 50.0" version="1.1" xmlns="http://www.w3.org/2000/svg"><rect x="-1000" y="-1000" width="2000" height="2000" stroke="white" fill="white" /><g style="fill:none;stroke:#000000;stroke-width:1"><path d="M 4.0 34.5 C 3.1 34.5 2.6 33.8 2.6 33.1 C 2.6 32.4 3.1 31.6 4.0 31.6 L 13.5 31.6 L 13.5 29.7 C 13.4 27.6 13.4 25.5 12.8 23.4 L 10.6 23.4 C 9.1 23.4 8.7 23.7 8.7 25.2 L 8.7 27.9 C 8.7 28.9 7.9 29.4 7.0 29.4 C 6.2 29.4 5.4 28.9 5.4 27.9 L 5.4 24.7 C 5.4 21.4 7.0 20.6 10.1 20.6 L 11.6 20.6 C 10.2 18.6 8.1 17.1 4.7 15.9 C 3.8 15.5 3.5 14.9 3.5 14.3 C 3.5 13.5 4.1 12.8 5.1 12.8 C 5.3 12.8 5.6 12.9 5.9 13.0 C 10.4 14.6 13.4 17.1 15.2 20.6 L 20.2 20.6 C 23.2 20.6 24.9 21.5 24.9 24.8 L 24.9 27.9 C 24.9 28.9 24.1 29.4 23.2 29.4 C 22.5 29.4 21.6 28.9 21.6 27.9 L 21.6 25.1 C 21.6 23.7 21.2 23.4 19.7 23.4 L 16.2 23.4 C 16.7 25.4 16.8 27.4 16.9 29.4 L 16.9 31.6 L 26.3 31.6 C 27.2 31.6 27.8 32.4 27.8 33.1 C 27.8 33.8 27.2 34.5 26.3 34.5 L 20.4 34.5 C 21.4 35.9 22.2 37.5 23.1 39.1 C 23.2 39.4 23.3 39.8 23.3 40.1 C 23.3 41.0 22.6 41.6 21.7 41.6 C 21.1 41.6 20.3 41.2 20.0 40.2 C 19.2 38.4 18.2 36.5 16.8 34.5 Z " transform="scale(1,-1)" stroke-dasharray="161.9752925872227" stroke-dashoffset="161.9752925872227"><animate attributeName="stroke-dashoffset" from="161.9752925872227" to="0" dur="4.859258777616681s" begin="0s; 15s; 30s; 45s; 60s" fill="freeze" id="anim0" /></path><path d="M 44.7 9.1 C 45.7 9.1 46.2 9.8 46.2 10.5 C 46.2 11.2 45.7 12.0 44.7 12.0 L 26.6 12.0 L 26.6 14.4 C 26.5 15.0 26.2 15.4 25.6 15.7 L 25.7 15.7 C 26.1 15.7 26.6 15.8 27.0 16.1 C 29.6 18.1 31.5 20.7 32.6 24.0 L 42.2 24.0 L 42.2 20.4 C 42.2 18.7 41.8 18.3 40.6 18.3 C 39.7 18.3 38.9 18.4 38.1 18.6 C 36.8 18.8 36.0 17.8 36.0 16.9 C 36.0 16.2 36.5 15.5 37.5 15.2 C 38.6 15.1 39.6 15.0 40.7 15.0 C 44.3 15.0 45.6 16.7 45.6 19.9 L 45.6 36.4 C 45.6 39.2 44.5 40.4 40.8 40.4 L 35.4 40.4 C 31.7 40.4 30.6 39.2 30.6 36.4 L 30.6 32.8 C 30.6 25.8 28.5 21.5 24.7 18.6 C 24.2 18.2 24.0 17.7 24.0 17.2 C 24.0 16.6 24.4 16.1 25.0 15.8 L 24.9 15.8 C 24.0 15.8 23.1 15.3 23.1 14.4 L 23.1 12.0 L 5.2 12.0 C 4.2 12.0 3.8 11.2 3.8 10.5 C 3.8 9.8 4.2 9.1 5.2 9.1 L 20.8 9.1 C 16.5 5.5 9.9 2.1 3.5 0.2 C 2.6 -0.2 2.1 -0.8 2.1 -1.5 C 2.1 -2.2 2.8 -3.0 3.8 -3.0 C 4.0 -3.0 4.2 -3.0 4.4 -2.9 C 11.1 -0.8 18.2 2.8 23.2 7.2 L 23.1 2.0 L 23.1 -2.9 C 23.1 -3.9 24.0 -4.4 24.9 -4.4 C 25.7 -4.4 26.6 -3.9 26.6 -2.9 L 26.6 1.9 L 26.4 7.4 C 31.5 3.1 38.8 -0.8 45.5 -2.5 C 45.7 -2.6 46.0 -2.6 46.2 -2.6 C 47.3 -2.6 47.9 -1.8 47.9 -1.0 C 47.9 -0.2 47.4 0.7 46.3 0.9 C 40.2 2.5 33.5 5.5 28.6 9.1 Z " transform="scale(1,-1)" stroke-dasharray="311.87582126976514" stroke-dashoffset="311.87582126976514"><animate attributeName="stroke-dashoffset" from="311.87582126976514" to="0" dur="9.356274638092954s" begin="anim0.end" fill="freeze" id="anim1" /></path><path d="M 42.2 33.6 L 33.9 33.6 L 33.9 35.8 C 33.9 37.1 34.4 37.5 35.9 37.5 L 40.3 37.5 C 41.8 37.5 42.2 37.1 42.2 35.8 Z " transform="scale(1,-1)" stroke-dasharray="23.211444539478027" stroke-dashoffset="23.211444539478027"><animate attributeName="stroke-dashoffset" from="23.211444539478027" to="0" dur="0.6963433361843407s" begin="anim1.end" fill="freeze" id="anim2" /></path><path d="M 42.2 30.8 L 42.2 26.8 L 33.4 26.8 C 33.6 28.1 33.8 29.4 33.9 30.8 Z " transform="scale(1,-1)" stroke-dasharray="25.13235076810573" stroke-dashoffset="25.13235076810573"><animate attributeName="stroke-dashoffset" from="25.13235076810573" to="0" dur="0.7539705230431719s" begin="anim2.end" fill="freeze" id="anim3" /></path><path d="M 10.5 40.6 C 10.0 41.1 9.5 41.2 9.0 41.2 C 8.1 41.2 7.3 40.6 7.3 39.8 C 7.3 39.5 7.5 39.1 7.8 38.8 C 8.5 37.9 9.2 37.0 9.8 36.0 C 10.2 35.3 10.8 35.0 11.4 35.0 C 12.3 35.0 13.1 35.7 13.1 36.6 C 13.1 37.0 13.0 37.4 12.8 37.8 C 12.2 38.7 11.3 39.8 10.5 40.6 Z" transform="scale(1,-1)" stroke-dasharray="18.13762522887041" stroke-dashoffset="18.13762522887041"><animate attributeName="stroke-dashoffset" from="18.13762522887041" to="0" dur="0.5441287568661123s" begin="anim3.end" fill="freeze" id="anim_end" /></path></g></svg>