<?xml version='1.0' encoding='utf-8'?>
<svg viewBox="0 -44.0 50.0 50.0" version="1.1" xmlns="http://www.w3.org/2000/svg"><rect x="-1000" y="-1000" width="2000" height="2000" stroke="white" fill="white" /><g style="fill:none;stroke:#000000;stroke-width:1"><path d="M 7.2 28.0 C 6.0 21.5 3.9 15.4 1.2 11.1 C 1.0 10.7 1.0 10.4 1.0 10.1 C 1.0 9.2 1.6 8.7 2.2 8.7 C 2.8 8.7 3.3 9.0 3.7 9.7 C 5.3 12.5 6.8 16.1 7.9 19.7 L 7.6 9.6 L 7.6 -2.8 C 7.6 -3.7 8.4 -4.2 9.2 -4.2 C 10.0 -4.2 10.8 -3.7 10.8 -2.8 L 10.8 19.2 C 11.8 18.1 12.8 16.8 13.5 15.7 C 13.9 15.0 14.4 14.7 14.9 14.7 C 15.7 14.7 16.4 15.4 16.4 16.2 C 16.4 16.6 16.2 17.0 16.0 17.4 C 14.6 19.5 12.9 21.2 10.8 22.9 L 10.8 28.0 L 13.9 28.0 C 14.9 28.0 15.3 28.7 15.3 29.4 C 15.3 30.2 14.9 30.9 13.9 30.9 L 10.8 30.9 L 10.8 40.5 C 10.8 41.5 10.0 42.0 9.2 42.0 C 8.4 42.0 7.6 41.5 7.6 40.5 L 7.6 30.9 L 2.9 30.9 C 2.0 30.9 1.5 30.2 1.5 29.4 C 1.5 28.7 2.0 28.0 2.9 28.0 Z " transform="scale(1,-1)" stroke-dasharray="154.0843878323298" stroke-dashoffset="154.0843878323298"><animate attributeName="stroke-dashoffset" from="154.0843878323298" to="0" dur="4.622531634969894s" begin="0s; 15s; 30s; 45s; 60s" fill="freeze" id="anim0" /></path><path d="M 26.4 24.5 L 27.2 24.5 C 30.0 24.5 31.1 25.5 31.1 27.6 L 31.1 30.2 C 31.1 32.2 30.0 33.2 27.2 33.2 L 26.4 33.2 L 26.4 37.4 L 30.2 37.4 C 31.2 37.4 31.6 38.1 31.6 38.8 C 31.6 39.5 31.2 40.2 30.2 40.2 L 21.7 40.2 C 18.0 40.2 16.7 39.0 16.7 36.0 L 16.7 21.4 C 16.7 18.4 18.0 17.2 21.7 17.2 L 30.5 17.2 C 31.4 17.2 31.8 17.9 31.8 18.6 C 31.8 19.3 31.4 20.0 30.5 20.0 L 26.4 20.0 Z " transform="scale(1,-1)" stroke-dasharray="88.10786069783146" stroke-dashoffset="88.10786069783146"><animate attributeName="stroke-dashoffset" from="88.10786069783146" to="0" dur="2.6432358209349434s" begin="anim0.end" fill="freeze" id="anim1" /></path><path d="M 23.4 24.5 L 23.4 20.0 L 22.0 20.0 C 20.2 20.0 19.8 20.4 19.8 21.8 L 19.8 24.5 Z " transform="scale(1,-1)" stroke-dasharray="15.583547332135641" stroke-dashoffset="15.583547332135641"><animate attributeName="stroke-dashoffset" from="15.583547332135641" to="0" dur="0.4675064199640692s" begin="anim1.end" fill="freeze" id="anim2" /></path><path d="M 19.8 27.1 L 19.8 30.7 L 26.8 30.7 C 27.9 30.7 28.2 30.5 28.2 29.6 L 28.2 28.2 C 28.2 27.2 27.9 27.1 26.8 27.1 Z " transform="scale(1,-1)" stroke-dasharray="23.266236898399267" stroke-dashoffset="23.266236898399267"><animate attributeName="stroke-dashoffset" from="23.266236898399267" to="0" dur="0.697987106951978s" begin="anim2.end" fill="freeze" id="anim3" /></path><path d="M 19.8 33.2 L 19.8 35.6 C 19.8 37.0 20.2 37.4 22.0 37.4 L 23.4 37.4 L 23.4 33.2 Z " transform="scale(1,-1)" stroke-dasharray="14.983547332135633" stroke-dashoffset="14.983547332135633"><animate attributeName="stroke-dashoffset" from="14.983547332135633" to="0" dur="0.449506419964069s" begin="anim3.end" fill="freeze" id="anim4" /></path><path d="M 18.9 0.7 L 15.2 0.7 C 14.3 0.7 13.8 -0.1 13.8 -0.9 C 13.8 -1.7 14.3 -2.4 15.2 -2.4 L 46.7 -2.4 C 47.7 -2.4 48.1 -1.7 48.1 -0.9 C 48.1 -0.1 47.7 0.7 46.7 0.7 L 44.1 0.7 L 44.1 9.2 C 44.1 12.3 42.7 13.7 39.1 13.7 L 24.0 13.7 C 20.2 13.7 18.9 12.3 18.9 9.2 Z " transform="scale(1,-1)" stroke-dasharray="95.01856194281841" stroke-dashoffset="95.01856194281841"><animate attributeName="stroke-dashoffset" from="95.01856194281841" to="0" dur="2.850556858284552s" begin="anim4.end" fill="freeze" id="anim5" /></path><path d="M 36.6 10.8 L 38.2 10.8 C 40.2 10.8 40.7 10.2 40.7 8.6 L 40.7 0.7 L 36.6 0.7 Z " transform="scale(1,-1)" stroke-dasharray="27.630968108950817" stroke-dashoffset="27.630968108950817"><animate attributeName="stroke-dashoffset" from="27.630968108950817" to="0" dur="0.8289290432685245s" begin="anim5.end" fill="freeze" id="anim6" /></path><path d="M 33.3 10.8 L 33.3 0.7 L 29.4 0.7 L 29.4 10.8 Z " transform="scale(1,-1)" stroke-dasharray="28.0" stroke-dashoffset="28.0"><animate attributeName="stroke-dashoffset" from="28.0" to="0" dur="0.84s" begin="anim6.end" fill="freeze" id="anim7" /></path><path d="M 26.1 10.8 L 26.1 0.7 L 22.3 0.7 L 22.3 8.6 C 22.3 10.2 22.8 10.8 24.7 10.8 Z " transform="scale(1,-1)" stroke-dasharray="27.040855163059" stroke-dashoffset="27.040855163059"><animate attributeName="stroke-dashoffset" from="27.040855163059" to="0" dur="0.81122565489177s" begin="anim7.end" fill="freeze" id="anim8" /></path><path d="M 46.4 30.8 C 47.4 30.8 47.8 31.6 47.8 32.3 C 47.8 33.1 47.4 33.9 46.4 33.9 L 38.7 33.9 C 39.4 35.4 39.9 37.1 40.4 38.6 C 40.4 38.8 40.5 39.0 40.5 39.2 C 40.5 40.2 39.6 40.7 38.8 40.7 C 38.1 40.7 37.3 40.3 37.1 39.4 C 36.1 35.9 34.7 32.2 33.0 29.5 C 32.7 29.2 32.6 28.8 32.6 28.5 C 32.6 27.6 33.3 27.0 34.1 27.0 C 34.7 27.0 35.3 27.3 35.8 28.0 C 36.3 28.9 36.8 29.8 37.3 30.8 Z " transform="scale(1,-1)" stroke-dasharray="51.41365564559972" stroke-dashoffset="51.41365564559972"><animate attributeName="stroke-dashoffset" from="51.41365564559972" to="0" dur="1.5424096693679914s" begin="anim8.end" fill="freeze" id="anim9" /></path><path d="M 44.4 21.1 C 45.4 21.1 45.9 21.9 45.9 22.7 C 45.9 23.4 45.4 24.2 44.4 24.2 L 35.6 24.2 C 34.6 24.2 34.1 23.4 34.1 22.7 C 34.1 21.9 34.6 21.1 35.6 21.1 Z" transform="scale(1,-1)" stroke-dasharray="27.254324181910388" stroke-dashoffset="27.254324181910388"><animate attributeName="stroke-dashoffset" from="27.254324181910388" to="0" dur="0.8176297254573116s" begin="anim9.end" fill="freeze" id="anim_end" /></path></g></svg>