<?xml version='1.0' encoding='utf-8'?>
<svg viewBox="0 -44.0 50.0 50.0" version="1.1" xmlns="http://www.w3.org/2000/svg"><rect x="-1000" y="-1000" width="2000" height="2000" stroke="white" fill="white" /><g style="fill:none;stroke:#000000;stroke-width:1"><path d="M 28.1 20.8 C 31.0 20.8 32.0 22.1 32.0 24.2 L 32.0 27.3 C 32.0 29.4 31.0 30.8 28.1 30.8 L 21.7 30.8 C 18.7 30.8 17.7 29.4 17.7 27.3 L 17.7 24.2 C 17.8 21.6 19.2 20.9 21.7 20.8 Z " transform="scale(1,-1)" stroke-dasharray="43.09270415228734" stroke-dashoffset="43.09270415228734"><animate attributeName="stroke-dashoffset" from="43.09270415228734" to="0" dur="1.29278112456862s" begin="0s; 15s; 30s; 45s; 60s" fill="freeze" id="anim0" /></path><path d="M 22.2 23.5 C 21.2 23.5 20.8 23.8 20.8 24.7 L 20.8 26.9 C 20.8 27.8 21.2 28.1 22.2 28.1 L 27.4 28.1 C 28.5 28.1 28.9 27.8 28.9 26.9 L 28.9 24.7 C 28.9 23.7 28.3 23.5 27.4 23.5 Z " transform="scale(1,-1)" stroke-dasharray="23.585640148943583" stroke-dashoffset="23.585640148943583"><animate attributeName="stroke-dashoffset" from="23.585640148943583" to="0" dur="0.7075692044683074s" begin="anim0.end" fill="freeze" id="anim1" /></path><path d="M 23.4 8.6 C 20.8 8.2 18.2 7.9 15.8 7.7 C 14.7 7.6 14.2 6.9 14.2 6.2 C 14.2 5.3 14.9 4.5 16.1 4.5 C 18.4 4.8 20.9 5.1 23.4 5.5 L 23.4 1.4 C 23.4 0.2 23.2 -0.1 22.2 -0.1 C 21.6 -0.1 21.3 -0.1 20.6 0.1 C 19.3 0.4 18.6 -0.6 18.6 -1.6 C 18.6 -2.2 19.1 -3.0 20.0 -3.2 C 20.7 -3.3 21.5 -3.4 22.4 -3.4 C 25.2 -3.4 26.6 -2.1 26.6 1.0 L 26.6 6.1 C 28.7 6.5 30.8 6.9 32.8 7.4 C 33.6 7.6 34.0 8.2 34.0 8.8 C 34.0 9.6 33.2 10.5 31.9 10.2 C 30.2 9.8 28.5 9.4 26.6 9.1 L 26.6 10.1 C 28.0 11.0 29.4 12.2 30.8 13.6 C 31.5 14.4 31.8 15.2 31.8 15.9 C 31.8 17.2 30.6 18.4 28.5 18.4 L 19.3 18.4 C 18.4 18.4 17.9 17.7 17.9 16.9 C 17.9 16.2 18.4 15.5 19.3 15.5 L 27.3 15.5 C 27.8 15.5 28.0 15.4 28.0 15.2 C 28.0 15.1 27.9 14.9 27.7 14.6 C 27.2 14.1 26.4 13.4 25.6 12.8 C 25.4 12.9 25.2 12.9 25.0 12.9 C 24.2 12.9 23.4 12.5 23.4 11.5 Z " transform="scale(1,-1)" stroke-dasharray="110.42018707105787" stroke-dashoffset="110.42018707105787"><animate attributeName="stroke-dashoffset" from="110.42018707105787" to="0" dur="3.312605612131736s" begin="anim1.end" fill="freeze" id="anim2" /></path><path d="M 7.5 27.9 C 6.1 21.4 3.9 15.3 1.3 11.0 C 1.1 10.6 1.0 10.2 1.0 9.9 C 1.0 9.1 1.6 8.5 2.2 8.5 C 2.8 8.5 3.4 8.8 3.8 9.6 C 5.5 12.4 7.0 16.1 8.1 19.7 L 7.9 9.6 L 7.9 -2.7 C 7.9 -3.7 8.7 -4.2 9.5 -4.2 C 10.2 -4.2 11.1 -3.7 11.1 -2.7 L 11.1 18.8 C 12.1 17.7 13.1 16.4 13.8 15.2 C 14.2 14.5 14.7 14.2 15.2 14.2 C 16.0 14.2 16.7 14.9 16.7 15.8 C 16.7 16.2 16.6 16.7 16.2 17.1 C 14.9 19.1 13.2 20.9 11.1 22.5 L 11.1 27.9 L 14.6 27.9 C 15.6 27.9 16.0 28.6 16.0 29.4 C 16.0 30.1 15.6 30.8 14.6 30.8 L 11.1 30.8 L 11.1 40.5 C 11.1 41.5 10.2 42.0 9.5 42.0 C 8.7 42.0 7.9 41.5 7.9 40.5 L 7.9 30.8 L 3.0 30.8 C 2.1 30.8 1.6 30.1 1.6 29.4 C 1.6 28.6 2.1 27.9 3.0 27.9 Z " transform="scale(1,-1)" stroke-dasharray="155.93737539085765" stroke-dashoffset="155.93737539085765"><animate attributeName="stroke-dashoffset" from="155.93737539085765" to="0" dur="4.678121261725729s" begin="anim2.end" fill="freeze" id="anim3" /></path><path d="M 26.4 36.3 L 26.4 40.2 C 26.4 41.3 25.6 41.8 24.7 41.8 C 23.9 41.8 23.1 41.3 23.1 40.2 L 23.1 36.3 L 17.0 36.3 C 16.1 36.3 15.6 35.6 15.6 34.8 C 15.6 34.1 16.1 33.3 17.0 33.3 L 32.6 33.3 C 33.6 33.3 34.1 34.1 34.1 34.8 C 34.1 35.6 33.6 36.3 32.6 36.3 Z " transform="scale(1,-1)" stroke-dasharray="50.223474709618095" stroke-dashoffset="50.223474709618095"><animate attributeName="stroke-dashoffset" from="50.223474709618095" to="0" dur="1.5067042412885427s" begin="anim3.end" fill="freeze" id="anim4" /></path><path d="M 39.7 39.9 C 36.6 39.9 35.5 38.4 35.5 35.5 L 35.5 -2.5 C 35.5 -3.6 36.3 -4.0 37.1 -4.0 C 38.0 -4.0 38.8 -3.6 38.8 -2.5 L 38.8 35.0 C 38.8 36.5 39.2 36.8 40.3 36.8 L 42.8 36.8 C 43.6 36.8 44.0 36.5 44.0 35.8 C 44.0 35.6 43.9 35.4 43.9 35.1 C 43.2 32.1 42.0 28.1 40.9 25.0 C 40.6 24.2 40.5 23.6 40.5 23.1 C 40.5 22.2 40.7 21.6 41.3 20.8 C 43.6 18.1 44.8 14.8 44.8 11.0 C 44.8 8.1 44.1 7.1 42.9 7.1 C 42.2 7.1 41.8 7.2 41.4 7.3 C 40.2 7.6 39.5 6.6 39.5 5.7 C 39.5 4.9 39.9 4.0 40.9 3.9 C 41.6 3.7 42.2 3.6 43.2 3.6 C 46.2 3.6 48.2 6.2 48.2 11.0 C 48.2 15.7 46.8 19.4 43.5 23.2 C 45.0 26.7 46.2 30.9 47.2 34.6 C 47.4 35.2 47.5 35.9 47.5 36.4 C 47.5 38.7 46.1 39.9 43.4 39.9 Z" transform="scale(1,-1)" stroke-dasharray="182.2130073877037" stroke-dashoffset="182.2130073877037"><animate attributeName="stroke-dashoffset" from="182.2130073877037" to="0" dur="5.46639022163111s" begin="anim4.end" fill="freeze" id="anim_end" /></path></g></svg>