<?xml version='1.0' encoding='utf-8'?>
<svg viewBox="0 -44.0 50.0 50.0" version="1.1" xmlns="http://www.w3.org/2000/svg"><rect x="-1000" y="-1000" width="2000" height="2000" stroke="white" fill="white" /><g style="fill:none;stroke:#000000;stroke-width:1"><path d="M 26.7 19.7 L 30.8 19.7 C 33.1 10.2 38.2 2.5 45.1 -1.7 C 45.5 -2.0 46.0 -2.1 46.3 -2.1 C 47.4 -2.1 48.2 -1.2 48.2 -0.2 C 48.2 0.4 47.9 1.0 47.1 1.5 C 43.7 3.6 40.9 6.2 38.7 9.4 C 41.0 10.9 43.4 12.8 45.6 14.9 C 46.2 15.4 46.4 15.9 46.4 16.4 C 46.4 17.2 45.6 18.0 44.8 18.0 C 44.2 18.0 43.8 17.8 43.2 17.3 C 40.5 14.5 39.0 13.3 37.1 12.0 C 36.4 13.4 35.8 14.7 35.2 16.2 C 34.8 17.3 34.4 18.4 34.1 19.7 L 38.4 19.7 C 42.3 19.7 43.6 21.5 43.6 24.6 L 43.6 35.3 C 43.6 38.4 42.3 40.1 38.4 40.1 L 28.4 40.1 C 24.5 40.1 23.2 38.4 23.2 35.3 L 23.2 1.5 C 21.8 1.2 20.4 0.9 19.1 0.6 C 17.9 0.3 17.4 -0.4 17.4 -1.2 C 17.4 -2.1 18.3 -3.1 19.7 -2.8 C 24.0 -1.9 29.7 -0.2 33.9 1.5 C 34.8 1.8 35.1 2.5 35.1 3.1 C 35.1 3.9 34.6 4.6 33.6 4.6 C 33.4 4.6 33.1 4.5 32.9 4.5 C 30.9 3.7 28.8 3.0 26.7 2.5 Z " transform="scale(1,-1)" stroke-dasharray="217.13424406086298" stroke-dashoffset="217.13424406086298"><animate attributeName="stroke-dashoffset" from="217.13424406086298" to="0" dur="6.514027321825889s" begin="0s; 15s; 30s; 45s; 60s" fill="freeze" id="anim0" /></path><path d="M 26.7 22.8 L 26.7 28.5 L 40.1 28.5 L 40.1 25.0 C 40.1 23.4 39.6 22.8 37.7 22.8 Z " transform="scale(1,-1)" stroke-dasharray="37.440855163059" stroke-dashoffset="37.440855163059"><animate attributeName="stroke-dashoffset" from="37.440855163059" to="0" dur="1.1232256548917698s" begin="anim0.end" fill="freeze" id="anim1" /></path><path d="M 40.1 31.6 L 26.7 31.6 L 26.7 34.9 C 26.7 36.5 27.2 37.0 29.2 37.0 L 37.7 37.0 C 39.6 37.0 40.1 36.5 40.1 34.9 Z " transform="scale(1,-1)" stroke-dasharray="36.147739409331166" stroke-dashoffset="36.147739409331166"><animate attributeName="stroke-dashoffset" from="36.147739409331166" to="0" dur="1.084432182279935s" begin="anim1.end" fill="freeze" id="anim2" /></path><path d="M 9.2 27.4 C 7.5 20.9 4.9 14.7 1.8 10.2 C 1.5 9.7 1.4 9.2 1.4 8.8 C 1.4 8.0 2.0 7.4 2.8 7.4 C 3.3 7.4 3.9 7.7 4.4 8.3 C 6.6 11.6 8.6 15.7 10.0 19.6 L 9.7 9.2 L 9.7 -2.6 C 9.7 -3.6 10.6 -4.1 11.4 -4.1 C 12.2 -4.1 13.1 -3.6 13.1 -2.6 L 13.1 18.3 C 14.4 17.2 15.5 15.9 16.4 14.7 C 16.9 14.1 17.4 13.8 17.9 13.8 C 18.8 13.8 19.5 14.6 19.5 15.5 C 19.5 16.0 19.3 16.5 18.9 17.1 C 17.5 18.8 15.5 20.6 13.1 22.1 L 13.1 27.4 L 17.8 27.4 C 18.7 27.4 19.2 28.2 19.2 28.9 C 19.2 29.7 18.7 30.5 17.8 30.5 L 13.1 30.5 L 13.1 40.2 C 13.1 41.3 12.2 41.8 11.4 41.8 C 10.6 41.8 9.7 41.3 9.7 40.2 L 9.7 30.5 L 4.1 30.5 C 3.2 30.5 2.7 29.7 2.7 28.9 C 2.7 28.2 3.2 27.4 4.1 27.4 Z" transform="scale(1,-1)" stroke-dasharray="163.2505201695681" stroke-dashoffset="163.2505201695681"><animate attributeName="stroke-dashoffset" from="163.2505201695681" to="0" dur="4.897515605087043s" begin="anim2.end" fill="freeze" id="anim_end" /></path></g></svg>