<?xml version='1.0' encoding='utf-8'?>
<svg viewBox="0 -44.0 50.0 50.0" version="1.1" xmlns="http://www.w3.org/2000/svg"><rect x="-1000" y="-1000" width="2000" height="2000" stroke="white" fill="white" /><g style="fill:none;stroke:#000000;stroke-width:1"><path d="M 28.3 5.4 C 31.3 5.4 32.7 6.9 32.7 9.5 L 32.7 15.1 C 32.7 17.8 31.3 19.1 28.3 19.1 L 22.9 19.1 C 19.9 19.1 18.7 17.8 18.7 15.1 L 18.7 9.5 C 18.7 6.6 20.3 5.5 23.1 5.4 Z " transform="scale(1,-1)" stroke-dasharray="49.11938085484999" stroke-dashoffset="49.11938085484999"><animate attributeName="stroke-dashoffset" from="49.11938085484999" to="0" dur="1.4735814256454998s" begin="0s; 15s; 30s; 45s; 60s" fill="freeze" id="anim0" /></path><path d="M 23.7 8.3 C 22.6 8.3 22.1 8.8 22.1 9.9 L 22.1 14.7 C 22.1 15.8 22.6 16.2 23.7 16.2 L 27.7 16.2 C 28.8 16.2 29.3 15.8 29.3 14.7 L 29.3 9.9 C 29.2 8.8 28.7 8.4 27.7 8.3 Z " transform="scale(1,-1)" stroke-dasharray="27.840297551986314" stroke-dashoffset="27.840297551986314"><animate attributeName="stroke-dashoffset" from="27.840297551986314" to="0" dur="0.8352089265595893s" begin="anim0.end" fill="freeze" id="anim1" /></path><path d="M 27.0 33.5 L 34.0 33.5 L 34.0 30.4 C 34.0 29.5 34.9 29.0 35.7 29.0 C 36.6 29.0 37.4 29.5 37.4 30.4 L 37.4 33.5 L 45.2 33.5 C 46.2 33.5 46.6 34.2 46.6 35.0 C 46.6 35.8 46.2 36.5 45.2 36.5 L 37.4 36.5 L 37.4 40.1 C 37.4 41.1 36.6 41.6 35.7 41.6 C 34.9 41.6 34.0 41.1 34.0 40.1 L 34.0 36.5 L 27.0 36.5 L 27.0 40.1 C 27.0 41.1 26.2 41.6 25.3 41.6 C 24.5 41.6 23.6 41.1 23.6 40.1 L 23.6 36.5 L 17.4 36.5 C 16.5 36.5 16.0 35.8 16.0 35.0 C 16.0 34.2 16.5 33.5 17.4 33.5 L 23.6 33.5 L 23.6 30.2 C 23.6 29.2 24.5 28.7 25.3 28.7 C 26.2 28.7 27.0 29.2 27.0 30.2 Z " transform="scale(1,-1)" stroke-dasharray="98.61074414964956" stroke-dashoffset="98.61074414964956"><animate attributeName="stroke-dashoffset" from="98.61074414964956" to="0" dur="2.9583223244894867s" begin="anim1.end" fill="freeze" id="anim2" /></path><path d="M 38.2 23.3 L 38.2 2.1 C 38.2 0.9 37.6 0.4 36.4 0.4 C 35.4 0.4 34.6 0.5 33.9 0.7 C 32.6 1.0 31.8 -0.1 31.8 -1.1 C 31.8 -1.8 32.2 -2.6 33.3 -2.8 C 34.4 -3.0 35.2 -3.1 36.6 -3.1 C 40.3 -3.1 41.9 -1.7 41.9 1.5 L 41.9 23.3 L 46.4 23.3 C 47.4 23.3 47.9 24.1 47.9 24.9 C 47.9 25.7 47.4 26.4 46.4 26.4 L 15.8 26.4 C 14.8 26.4 14.3 25.7 14.3 24.9 C 14.3 24.1 14.8 23.3 15.8 23.3 Z " transform="scale(1,-1)" stroke-dasharray="132.69589541842353" stroke-dashoffset="132.69589541842353"><animate attributeName="stroke-dashoffset" from="132.69589541842353" to="0" dur="3.980876862552706s" begin="anim2.end" fill="freeze" id="anim3" /></path><path d="M 8.7 40.3 C 8.3 40.6 8.0 40.7 7.6 40.7 C 6.7 40.7 5.8 39.9 5.8 39.0 C 5.8 38.5 6.1 38.0 6.7 37.5 C 7.7 36.6 9.2 35.2 10.3 33.8 C 10.8 33.2 11.3 33.0 11.9 33.0 C 12.8 33.0 13.6 33.8 13.6 34.9 C 13.6 35.4 13.5 35.9 13.0 36.4 C 12.0 37.6 10.1 39.4 8.7 40.3 Z " transform="scale(1,-1)" stroke-dasharray="23.06624830976176" stroke-dashoffset="23.06624830976176"><animate attributeName="stroke-dashoffset" from="23.06624830976176" to="0" dur="0.6919874492928528s" begin="anim3.end" fill="freeze" id="anim4" /></path><path d="M 9.6 13.2 C 8.3 8.9 6.1 3.8 3.9 0.5 C 3.6 0.1 3.5 -0.4 3.5 -0.8 C 3.5 -1.8 4.2 -2.5 5.2 -2.5 C 5.8 -2.5 6.5 -2.1 7.0 -1.4 C 9.2 2.2 11.7 7.8 13.0 12.2 C 13.1 12.5 13.2 12.7 13.2 13.0 C 13.2 14.1 12.3 14.7 11.4 14.7 C 10.7 14.7 9.9 14.2 9.6 13.2 Z " transform="scale(1,-1)" stroke-dasharray="41.235911069807585" stroke-dashoffset="41.235911069807585"><animate attributeName="stroke-dashoffset" from="41.235911069807585" to="0" dur="1.2370773320942274s" begin="anim4.end" fill="freeze" id="anim5" /></path><path d="M 5.2 28.2 C 4.9 28.5 4.4 28.7 4.0 28.7 C 3.1 28.7 2.2 27.9 2.2 27.0 C 2.2 26.5 2.5 26.0 3.1 25.5 C 4.1 24.8 5.9 23.3 7.2 21.9 C 7.6 21.4 8.1 21.2 8.6 21.2 C 9.5 21.2 10.3 22.0 10.3 23.0 C 10.3 23.5 10.1 24.1 9.7 24.6 C 8.5 25.9 6.6 27.4 5.2 28.2 Z" transform="scale(1,-1)" stroke-dasharray="23.20760845378206" stroke-dashoffset="23.20760845378206"><animate attributeName="stroke-dashoffset" from="23.20760845378206" to="0" dur="0.6962282536134619s" begin="anim5.end" fill="freeze" id="anim_end" /></path></g></svg>