<?xml version='1.0' encoding='utf-8'?>
<svg viewBox="0 -44.0 50.0 50.0" version="1.1" xmlns="http://www.w3.org/2000/svg"><rect x="-1000" y="-1000" width="2000" height="2000" stroke="white" fill="white" /><g style="fill:none;stroke:#000000;stroke-width:1"><path d="M 12.2 3.7 C 15.5 3.7 16.8 5.1 16.8 8.3 L 16.8 33.5 C 16.8 36.6 15.5 38.1 12.2 38.1 L 8.2 38.1 C 5.1 38.1 3.8 36.6 3.8 33.5 L 3.8 8.3 C 3.8 5.1 5.1 3.7 8.2 3.7 Z " transform="scale(1,-1)" stroke-dasharray="88.21996319331971" stroke-dashoffset="88.21996319331971"><animate attributeName="stroke-dashoffset" from="88.21996319331971" to="0" dur="2.6465988957995914s" begin="0s; 15s; 30s; 45s; 60s" fill="freeze" id="anim0" /></path><path d="M 8.8 6.8 C 7.7 6.8 7.2 7.2 7.2 8.7 L 7.2 20.2 L 13.3 20.2 L 13.3 8.7 C 13.3 7.4 13.1 6.8 11.7 6.8 Z " transform="scale(1,-1)" stroke-dasharray="37.85163923462601" stroke-dashoffset="37.85163923462601"><animate attributeName="stroke-dashoffset" from="37.85163923462601" to="0" dur="1.1355491770387804s" begin="anim0.end" fill="freeze" id="anim1" /></path><path d="M 13.3 23.4 L 7.2 23.4 L 7.2 33.1 C 7.2 34.6 7.7 35.0 8.8 35.0 L 11.7 35.0 C 12.9 35.0 13.3 34.6 13.3 33.1 Z " transform="scale(1,-1)" stroke-dasharray="34.2409995160344" stroke-dashoffset="34.2409995160344"><animate attributeName="stroke-dashoffset" from="34.2409995160344" to="0" dur="1.027229985481032s" begin="anim1.end" fill="freeze" id="anim2" /></path><path d="M 26.7 33.1 C 27.7 35.1 28.5 37.1 29.1 39.0 C 29.2 39.2 29.2 39.5 29.2 39.7 C 29.2 40.8 28.4 41.4 27.5 41.4 C 26.8 41.4 26.0 41.0 25.7 40.0 C 24.4 35.6 21.8 30.3 18.9 26.6 C 18.5 26.1 18.4 25.6 18.4 25.2 C 18.4 24.4 19.1 23.8 19.9 23.8 C 20.4 23.8 21.0 24.0 21.5 24.7 C 22.8 26.2 24.0 28.0 25.1 30.0 L 39.4 30.0 C 42.1 30.0 42.5 29.2 42.5 27.2 C 42.5 19.9 42.1 11.6 41.1 5.3 C 40.5 1.9 39.6 0.7 37.6 0.7 C 36.8 0.7 35.7 0.8 34.5 1.1 C 33.1 1.4 32.4 0.4 32.4 -0.7 C 32.4 -1.4 32.8 -2.1 33.6 -2.4 C 34.6 -2.7 36.2 -2.9 37.6 -2.9 C 41.4 -2.9 43.6 -1.1 44.6 4.7 C 45.7 11.0 46.1 19.8 46.1 27.9 C 46.1 31.1 44.8 33.1 40.2 33.1 Z " transform="scale(1,-1)" stroke-dasharray="157.17409759805236" stroke-dashoffset="157.17409759805236"><animate attributeName="stroke-dashoffset" from="157.17409759805236" to="0" dur="4.7152229279415705s" begin="anim2.end" fill="freeze" id="anim3" /></path><path d="M 35.9 20.2 C 36.9 20.2 37.4 21.1 37.4 21.9 C 37.4 22.7 36.9 23.5 35.9 23.5 L 24.9 23.5 C 23.9 23.5 23.4 22.7 23.4 21.9 C 23.4 21.1 23.9 20.2 24.9 20.2 Z " transform="scale(1,-1)" stroke-dasharray="31.978389779270294" stroke-dashoffset="31.978389779270294"><animate attributeName="stroke-dashoffset" from="31.978389779270294" to="0" dur="0.9593516933781088s" begin="anim3.end" fill="freeze" id="anim4" /></path><path d="M 36.8 10.8 C 37.8 10.8 38.3 11.6 38.3 12.4 C 38.3 13.2 37.8 14.0 36.8 14.0 L 23.2 14.0 C 22.2 14.0 21.7 13.2 21.7 12.4 C 21.7 11.6 22.2 10.8 23.2 10.8 Z" transform="scale(1,-1)" stroke-dasharray="37.035218537657116" stroke-dashoffset="37.035218537657116"><animate attributeName="stroke-dashoffset" from="37.035218537657116" to="0" dur="1.1110565561297134s" begin="anim4.end" fill="freeze" id="anim_end" /></path></g></svg>