<?xml version='1.0' encoding='utf-8'?>
<svg viewBox="0 -44.0 50.0 50.0" version="1.1" xmlns="http://www.w3.org/2000/svg"><rect x="-1000" y="-1000" width="2000" height="2000" stroke="white" fill="white" /><g style="fill:none;stroke:#000000;stroke-width:1"><path d="M 37.7 21.6 C 41.8 21.6 43.1 23.5 43.1 26.2 L 43.1 34.7 C 43.1 37.4 41.8 39.3 37.7 39.3 L 24.5 39.3 C 20.4 39.3 19.1 37.4 19.1 34.7 L 19.1 26.2 C 19.2 22.7 21.2 21.7 24.5 21.6 Z " transform="scale(1,-1)" stroke-dasharray="75.95831040003041" stroke-dashoffset="75.95831040003041"><animate attributeName="stroke-dashoffset" from="75.95831040003041" to="0" dur="2.278749312000912s" begin="0s; 15s; 30s; 45s; 60s" fill="freeze" id="anim0" /></path><path d="M 25.2 24.6 C 23.2 24.6 22.6 25.2 22.6 26.6 L 22.6 29.1 L 39.6 29.1 L 39.6 26.6 C 39.6 24.9 38.6 24.7 37.0 24.6 Z " transform="scale(1,-1)" stroke-dasharray="41.41452758676745" stroke-dashoffset="41.41452758676745"><animate attributeName="stroke-dashoffset" from="41.41452758676745" to="0" dur="1.2424358276030234s" begin="anim0.end" fill="freeze" id="anim1" /></path><path d="M 39.6 32.1 L 22.6 32.1 L 22.6 34.3 C 22.6 35.7 23.2 36.3 25.2 36.3 L 37.0 36.3 C 39.1 36.3 39.6 35.7 39.6 34.3 Z " transform="scale(1,-1)" stroke-dasharray="40.866937373175915" stroke-dashoffset="40.866937373175915"><animate attributeName="stroke-dashoffset" from="40.866937373175915" to="0" dur="1.2260081211952774s" begin="anim1.end" fill="freeze" id="anim2" /></path><path d="M 22.3 10.0 L 29.4 10.0 C 30.4 10.0 31.0 10.8 31.0 11.6 C 31.0 12.3 30.4 13.1 29.4 13.1 L 22.3 13.1 L 22.3 18.1 C 22.3 19.1 21.5 19.5 20.6 19.5 C 19.7 19.5 18.8 19.1 18.8 18.1 L 18.8 1.7 C 17.2 1.4 15.8 1.1 14.6 0.9 C 13.6 0.7 13.1 0.0 13.1 -0.7 C 13.1 -1.7 13.9 -2.6 15.2 -2.4 C 19.2 -1.7 25.0 -0.2 29.2 1.2 C 30.2 1.5 30.6 2.2 30.6 2.8 C 30.6 3.6 30.0 4.3 29.1 4.3 C 28.9 4.3 28.7 4.2 28.5 4.2 C 26.5 3.6 24.4 3.0 22.3 2.5 Z " transform="scale(1,-1)" stroke-dasharray="89.02752541698213" stroke-dashoffset="89.02752541698213"><animate attributeName="stroke-dashoffset" from="89.02752541698213" to="0" dur="2.670825762509464s" begin="anim2.end" fill="freeze" id="anim3" /></path><path d="M 36.4 8.7 C 39.4 9.7 43.0 11.5 45.3 13.0 C 45.8 13.3 46.1 13.8 46.1 14.2 C 46.1 15.1 45.4 15.9 44.4 15.9 C 44.0 15.9 43.6 15.8 43.2 15.5 C 41.5 14.3 38.9 13.0 36.4 11.9 L 36.4 18.2 C 36.4 19.2 35.6 19.6 34.6 19.6 C 33.8 19.6 32.9 19.2 32.9 18.2 L 32.9 2.0 C 32.9 -1.2 34.1 -2.0 39.4 -2.0 C 44.5 -2.0 47.0 -0.7 47.7 4.0 C 47.9 5.2 46.9 6.0 46.0 6.0 C 45.2 6.0 44.5 5.6 44.4 4.5 C 43.9 1.7 42.7 1.2 39.2 1.2 C 36.9 1.2 36.4 1.7 36.4 3.0 Z " transform="scale(1,-1)" stroke-dasharray="93.18013512717201" stroke-dashoffset="93.18013512717201"><animate attributeName="stroke-dashoffset" from="93.18013512717201" to="0" dur="2.7954040538151603s" begin="anim3.end" fill="freeze" id="anim4" /></path><path d="M 9.1 40.2 C 8.8 40.5 8.3 40.6 8.0 40.6 C 7.0 40.6 6.2 39.8 6.2 38.9 C 6.2 38.4 6.4 37.9 7.0 37.4 C 8.1 36.6 9.7 35.1 10.9 33.8 C 11.4 33.2 11.9 33.0 12.4 33.0 C 13.4 33.0 14.2 33.8 14.2 34.8 C 14.2 35.2 14.0 35.8 13.5 36.3 C 12.4 37.6 10.5 39.2 9.1 40.2 Z " transform="scale(1,-1)" stroke-dasharray="23.19248578699865" stroke-dashoffset="23.19248578699865"><animate attributeName="stroke-dashoffset" from="23.19248578699865" to="0" dur="0.6957745736099594s" begin="anim4.end" fill="freeze" id="anim5" /></path><path d="M 5.4 28.4 C 5.0 28.6 4.6 28.7 4.2 28.7 C 3.2 28.7 2.4 27.9 2.4 27.0 C 2.4 26.5 2.7 26.0 3.3 25.5 C 4.5 24.7 6.4 23.2 7.5 22.0 C 8.0 21.5 8.6 21.2 9.0 21.2 C 10.0 21.2 10.8 22.0 10.8 23.0 C 10.8 23.5 10.6 24.1 10.1 24.6 C 8.8 25.9 6.8 27.5 5.4 28.4 Z " transform="scale(1,-1)" stroke-dasharray="23.68628154419895" stroke-dashoffset="23.68628154419895"><animate attributeName="stroke-dashoffset" from="23.68628154419895" to="0" dur="0.7105884463259684s" begin="anim5.end" fill="freeze" id="anim6" /></path><path d="M 10.2 13.4 C 8.8 9.1 6.4 3.9 4.1 0.7 C 3.8 0.2 3.7 -0.2 3.7 -0.7 C 3.7 -1.7 4.5 -2.4 5.5 -2.4 C 6.1 -2.4 6.8 -2.1 7.3 -1.3 C 9.6 2.1 12.3 7.7 13.8 12.2 C 13.9 12.5 13.9 12.8 13.9 13.0 C 13.9 14.1 13.0 14.8 12.1 14.8 C 11.4 14.8 10.6 14.3 10.2 13.4 Z" transform="scale(1,-1)" stroke-dasharray="41.734085267342095" stroke-dashoffset="41.734085267342095"><animate attributeName="stroke-dashoffset" from="41.734085267342095" to="0" dur="1.2520225580202629s" begin="anim6.end" fill="freeze" id="anim_end" /></path></g></svg>