<?xml version='1.0' encoding='utf-8'?>
<svg viewBox="0 -44.0 50.0 50.0" version="1.1" xmlns="http://www.w3.org/2000/svg"><rect x="-1000" y="-1000" width="2000" height="2000" stroke="white" fill="white" /><g style="fill:none;stroke:#000000;stroke-width:1"><path d="M 31.4 21.1 C 34.8 21.1 35.9 22.1 35.9 24.2 L 35.9 27.0 C 35.9 29.2 34.8 30.2 31.4 30.2 L 18.2 30.2 C 14.8 30.2 13.7 29.2 13.7 27.0 L 13.7 24.2 C 13.8 21.4 15.8 21.1 18.2 21.1 Z " transform="scale(1,-1)" stroke-dasharray="57.356905859611935" stroke-dashoffset="57.356905859611935"><animate attributeName="stroke-dashoffset" from="57.356905859611935" to="0" dur="1.720707175788358s" begin="0s; 15s; 30s; 45s; 60s" fill="freeze" id="anim0" /></path><path d="M 18.9 23.7 C 17.3 23.7 16.9 24.0 16.9 24.8 L 16.9 26.5 C 16.9 27.2 17.3 27.6 18.9 27.6 L 30.8 27.6 C 32.2 27.6 32.6 27.2 32.6 26.5 L 32.6 24.8 C 32.6 23.7 31.7 23.7 30.8 23.7 Z " transform="scale(1,-1)" stroke-dasharray="37.278108326549905" stroke-dashoffset="37.278108326549905"><animate attributeName="stroke-dashoffset" from="37.278108326549905" to="0" dur="1.1183432497964971s" begin="anim0.end" fill="freeze" id="anim1" /></path><path d="M 23.2 12.6 L 8.7 12.6 C 7.7 12.6 7.2 11.8 7.2 11.1 C 7.2 10.3 7.7 9.6 8.7 9.6 L 23.2 9.6 L 23.2 6.7 L 4.4 6.7 C 3.4 6.7 2.9 5.9 2.9 5.2 C 2.9 4.4 3.4 3.7 4.4 3.7 L 23.2 3.7 L 23.2 0.5 C 23.2 -0.7 22.9 -1.1 21.9 -1.1 C 21.2 -1.1 20.5 -1.0 19.7 -0.8 C 18.4 -0.5 17.6 -1.4 17.6 -2.4 C 17.6 -3.1 18.1 -3.9 19.2 -4.0 C 20.2 -4.2 21.3 -4.4 22.2 -4.4 C 25.2 -4.4 26.7 -3.0 26.7 -0.1 L 26.7 3.7 L 45.6 3.7 C 46.6 3.7 47.1 4.4 47.1 5.2 C 47.1 5.9 46.6 6.7 45.6 6.7 L 26.7 6.7 L 26.7 9.6 L 41.1 9.6 C 42.1 9.6 42.6 10.3 42.6 11.1 C 42.6 11.8 42.1 12.6 41.1 12.6 L 26.7 12.6 L 26.7 15.9 C 29.7 16.2 32.8 16.7 35.6 17.2 C 36.6 17.4 37.1 18.0 37.1 18.7 C 37.1 19.6 36.2 20.5 34.8 20.2 C 28.2 18.8 19.3 18.1 12.8 17.9 C 11.6 17.9 11.1 17.2 11.1 16.5 C 11.1 15.7 11.7 14.9 12.9 15.0 C 16.0 15.0 19.6 15.2 23.2 15.5 Z " transform="scale(1,-1)" stroke-dasharray="243.7083883189295" stroke-dashoffset="243.7083883189295"><animate attributeName="stroke-dashoffset" from="243.7083883189295" to="0" dur="7.311251649567885s" begin="anim1.end" fill="freeze" id="anim2" /></path><path d="M 26.6 35.8 L 26.6 41.1 C 26.6 42.2 25.7 42.7 24.9 42.7 C 24.0 42.7 23.1 42.2 23.1 41.1 L 23.1 35.8 L 17.2 35.8 C 17.7 36.0 18.1 36.5 18.1 37.1 C 18.1 37.5 17.9 37.9 17.7 38.2 C 17.1 39.1 16.2 40.2 15.4 41.0 C 15.0 41.4 14.5 41.6 14.0 41.6 C 13.2 41.6 12.4 41.0 12.4 40.1 C 12.4 39.8 12.5 39.4 12.8 39.1 C 13.6 38.2 14.4 37.3 14.9 36.4 C 15.1 36.1 15.4 35.9 15.6 35.8 L 9.1 35.8 C 5.7 35.8 4.2 34.3 4.2 31.9 L 4.2 27.9 C 4.2 26.9 5.1 26.3 6.0 26.3 C 6.9 26.3 7.8 26.9 7.8 27.9 L 7.8 31.7 C 7.8 32.6 8.2 33.0 9.7 33.0 L 40.3 33.0 C 41.9 33.0 42.2 32.6 42.2 31.7 L 42.2 28.6 C 42.2 27.6 43.2 27.0 44.1 27.0 C 44.9 27.0 45.8 27.6 45.8 28.6 L 45.8 31.9 C 45.8 34.3 44.4 35.8 41.0 35.8 L 34.3 35.8 C 34.5 35.9 34.6 36.0 34.8 36.1 C 35.7 37.0 36.6 38.3 37.2 39.3 C 37.5 39.7 37.6 40.0 37.6 40.2 C 37.6 41.1 36.8 41.7 36.0 41.7 C 35.4 41.7 34.8 41.4 34.5 40.8 C 33.9 39.9 33.1 38.9 32.4 38.0 C 32.1 37.6 31.9 37.2 31.9 36.9 C 31.9 36.4 32.2 36.0 32.6 35.8 Z" transform="scale(1,-1)" stroke-dasharray="148.02999665066704" stroke-dashoffset="148.02999665066704"><animate attributeName="stroke-dashoffset" from="148.02999665066704" to="0" dur="4.440899899520011s" begin="anim2.end" fill="freeze" id="anim_end" /></path></g></svg>