<?xml version='1.0' encoding='utf-8'?>
<svg viewBox="0 -44.0 50.0 50.0" version="1.1" xmlns="http://www.w3.org/2000/svg"><rect x="-1000" y="-1000" width="2000" height="2000" stroke="white" fill="white" /><g style="fill:none;stroke:#000000;stroke-width:1"><path d="M 10.5 -2.5 C 10.5 -3.5 11.4 -4.0 12.2 -4.0 C 13.1 -4.0 14.0 -3.5 14.0 -2.5 L 14.0 17.7 C 15.4 17.8 16.9 18.1 18.3 18.3 C 18.6 17.8 18.8 17.2 18.9 16.8 C 19.2 16.0 19.9 15.6 20.5 15.6 C 21.4 15.6 22.2 16.3 22.2 17.4 C 22.2 17.6 22.2 17.8 22.1 18.1 C 21.4 20.0 19.8 22.6 18.3 24.2 C 17.9 24.7 17.4 24.9 17.0 24.9 C 16.2 24.9 15.5 24.2 15.5 23.5 C 15.5 23.2 15.6 22.9 15.8 22.6 C 16.2 22.1 16.6 21.5 16.9 20.9 C 14.8 20.7 12.6 20.5 10.5 20.3 C 13.4 24.1 16.5 28.5 18.7 32.3 C 18.9 32.7 18.9 33.1 18.9 33.4 C 18.9 34.5 18.1 35.1 17.2 35.1 C 16.6 35.1 16.0 34.9 15.7 34.1 C 14.7 32.2 13.5 30.2 12.2 28.1 C 11.4 29.0 10.6 29.9 9.8 30.8 C 11.4 33.4 13.0 36.4 14.1 39.0 C 14.2 39.2 14.2 39.6 14.2 39.8 C 14.2 40.9 13.4 41.5 12.5 41.5 C 11.8 41.5 11.2 41.1 10.9 40.4 C 9.9 37.9 8.7 35.3 7.5 33.1 C 7.1 33.4 6.8 33.7 6.5 34.0 C 6.1 34.2 5.7 34.4 5.3 34.4 C 4.5 34.4 3.8 33.6 3.8 32.8 C 3.8 32.4 4.0 31.9 4.5 31.4 C 5.9 30.2 7.8 28.2 10.2 25.1 C 9.1 23.4 7.9 21.8 6.7 20.1 C 5.7 20.1 4.6 20.1 3.7 20.1 C 2.7 20.1 2.1 19.2 2.1 18.5 C 2.1 17.7 2.7 16.8 3.8 16.8 C 6.0 16.9 8.2 17.0 10.5 17.2 Z " transform="scale(1,-1)" stroke-dasharray="166.95768760892716" stroke-dashoffset="166.95768760892716"><animate attributeName="stroke-dashoffset" from="166.95768760892716" to="0" dur="5.008730628267815s" begin="0s; 15s; 30s; 45s; 60s" fill="freeze" id="anim0" /></path><path d="M 43.3 1.2 L 43.3 34.4 C 43.3 38.0 41.6 39.4 37.5 39.4 L 31.1 39.4 C 27.0 39.4 25.2 38.0 25.2 34.4 L 25.2 1.2 L 20.2 1.2 C 19.3 1.2 18.8 0.5 18.8 -0.3 C 18.8 -1.1 19.3 -1.9 20.2 -1.9 L 47.0 -1.9 C 48.0 -1.9 48.4 -1.1 48.4 -0.3 C 48.4 0.5 48.0 1.2 47.0 1.2 Z " transform="scale(1,-1)" stroke-dasharray="135.56382682386172" stroke-dashoffset="135.56382682386172"><animate attributeName="stroke-dashoffset" from="135.56382682386172" to="0" dur="4.066914804715851s" begin="anim0.end" fill="freeze" id="anim1" /></path><path d="M 28.8 1.2 L 28.8 11.0 L 39.7 11.0 L 39.7 1.2 Z " transform="scale(1,-1)" stroke-dasharray="41.400000000000006" stroke-dashoffset="41.400000000000006"><animate attributeName="stroke-dashoffset" from="41.400000000000006" to="0" dur="1.2420000000000002s" begin="anim1.end" fill="freeze" id="anim2" /></path><path d="M 28.8 14.1 L 28.8 23.7 L 39.7 23.7 L 39.7 14.1 Z " transform="scale(1,-1)" stroke-dasharray="41.0" stroke-dashoffset="41.0"><animate attributeName="stroke-dashoffset" from="41.0" to="0" dur="1.23s" begin="anim2.end" fill="freeze" id="anim3" /></path><path d="M 28.8 26.8 L 28.8 33.9 C 28.8 35.6 29.5 36.2 31.6 36.2 L 37.0 36.2 C 39.1 36.2 39.7 35.6 39.7 33.9 L 39.7 26.8 Z " transform="scale(1,-1)" stroke-dasharray="38.919943790386526" stroke-dashoffset="38.919943790386526"><animate attributeName="stroke-dashoffset" from="38.919943790386526" to="0" dur="1.1675983137115957s" begin="anim3.end" fill="freeze" id="anim4" /></path><path d="M 18.8 13.1 C 18.4 13.8 17.9 14.1 17.3 14.1 C 16.6 14.1 15.8 13.5 15.8 12.7 C 15.8 12.4 15.9 12.2 16.0 11.9 C 16.8 10.2 17.4 7.9 17.9 5.6 C 18.0 4.5 18.8 4.0 19.5 4.0 C 20.5 4.0 21.4 4.9 21.2 6.2 C 20.7 8.8 19.7 11.4 18.8 13.1 Z " transform="scale(1,-1)" stroke-dasharray="24.577434573973825" stroke-dashoffset="24.577434573973825"><animate attributeName="stroke-dashoffset" from="24.577434573973825" to="0" dur="0.7373230372192148s" begin="anim4.end" fill="freeze" id="anim5" /></path><path d="M 5.1 11.9 C 4.8 9.1 3.9 5.2 3.0 2.8 C 2.9 2.5 2.8 2.2 2.8 2.0 C 2.8 1.1 3.6 0.4 4.4 0.4 C 5.0 0.4 5.6 0.8 6.0 1.7 C 7.1 4.5 8.0 8.5 8.2 11.6 C 8.3 12.9 7.5 13.5 6.7 13.5 C 5.9 13.5 5.1 13.0 5.1 11.9 Z" transform="scale(1,-1)" stroke-dasharray="30.346044484261785" stroke-dashoffset="30.346044484261785"><animate attributeName="stroke-dashoffset" from="30.346044484261785" to="0" dur="0.9103813345278535s" begin="anim5.end" fill="freeze" id="anim_end" /></path></g></svg>