<?xml version='1.0' encoding='utf-8'?>
<svg viewBox="0 -44.0 50.0 50.0" version="1.1" xmlns="http://www.w3.org/2000/svg"><rect x="-1000" y="-1000" width="2000" height="2000" stroke="white" fill="white" /><g style="fill:none;stroke:#000000;stroke-width:1"><path d="M 25.1 25.1 C 23.4 25.9 21.6 26.6 19.7 27.2 C 19.5 27.3 19.2 27.3 19.1 27.3 C 18.1 27.3 17.5 26.7 17.5 26.0 C 17.5 25.5 17.9 25.0 18.7 24.7 C 19.8 24.3 20.9 23.9 22.0 23.4 C 20.3 22.7 18.6 22.0 16.6 21.5 C 15.6 21.2 15.2 20.5 15.2 19.9 C 15.2 19.2 15.7 18.6 16.6 18.6 C 16.9 18.6 17.1 18.6 17.4 18.7 C 20.3 19.6 22.9 20.6 25.3 21.9 C 26.8 21.1 28.2 20.2 29.9 19.2 C 30.2 18.9 30.7 18.8 31.1 18.8 C 31.9 18.8 32.5 19.4 32.5 20.2 C 32.5 20.7 32.2 21.2 31.5 21.7 C 30.4 22.3 29.2 22.9 28.2 23.5 C 29.2 24.1 30.1 24.7 31.1 25.4 C 31.7 25.9 32.0 26.4 32.0 26.8 C 32.0 27.6 31.3 28.2 30.5 28.2 C 30.1 28.2 29.7 28.1 29.2 27.8 C 27.8 26.8 26.4 25.9 25.1 25.1 Z " transform="scale(1,-1)" stroke-dasharray="61.87113914432025" stroke-dashoffset="61.87113914432025"><animate attributeName="stroke-dashoffset" from="61.87113914432025" to="0" dur="1.8561341743296076s" begin="0s; 15s; 30s; 45s; 60s" fill="freeze" id="anim0" /></path><path d="M 26.5 31.2 L 26.5 34.0 C 26.5 35.0 25.6 35.5 24.8 35.5 C 23.9 35.5 23.1 35.0 23.1 34.0 L 23.1 31.2 L 15.2 31.2 C 14.3 31.2 13.9 30.5 13.9 29.8 C 13.9 29.1 14.3 28.4 15.2 28.4 L 34.9 28.4 C 35.8 28.4 36.3 29.1 36.3 29.8 C 36.3 30.5 35.8 31.2 34.9 31.2 Z " transform="scale(1,-1)" stroke-dasharray="55.4048823739615" stroke-dashoffset="55.4048823739615"><animate attributeName="stroke-dashoffset" from="55.4048823739615" to="0" dur="1.662146471218845s" begin="anim0.end" fill="freeze" id="anim1" /></path><path d="M 34.7 15.1 C 38.1 15.1 39.8 15.9 39.8 19.3 L 39.8 25.8 C 39.8 26.8 39.0 27.2 38.1 27.2 C 37.2 27.2 36.4 26.8 36.4 25.8 L 36.4 19.8 C 36.4 18.2 36.1 17.9 34.6 17.9 L 15.4 17.9 C 13.9 17.9 13.6 18.2 13.6 19.8 L 13.6 25.8 C 13.6 26.8 12.8 27.2 11.9 27.2 C 11.1 27.2 10.2 26.8 10.2 25.8 L 10.2 19.3 C 10.2 15.9 12.0 15.1 15.3 15.1 L 21.8 15.1 C 21.4 14.1 21.1 13.1 20.7 12.1 L 10.8 12.1 C 7.2 12.1 5.6 10.5 5.6 7.8 L 5.6 -2.9 C 5.6 -3.9 6.5 -4.4 7.4 -4.4 C 8.3 -4.4 9.2 -3.9 9.2 -2.9 L 9.2 7.4 C 9.2 8.8 9.7 9.3 11.9 9.3 L 19.6 9.3 C 18.9 7.5 18.1 5.6 17.2 3.8 C 16.1 3.7 14.9 3.7 13.9 3.6 C 12.7 3.6 12.2 2.8 12.2 2.0 C 12.2 1.2 12.9 0.2 14.2 0.4 C 19.5 0.7 25.8 1.4 32.1 2.7 C 32.4 2.4 32.6 2.0 32.9 1.6 C 33.4 0.8 34.1 0.5 34.7 0.5 C 35.6 0.5 36.3 1.1 36.3 2.1 C 36.3 2.5 36.1 3.0 35.8 3.5 C 34.7 5.0 33.0 6.8 31.2 8.2 C 30.8 8.5 30.3 8.7 29.9 8.7 C 28.9 8.7 28.2 8.0 28.2 7.2 C 28.2 6.9 28.3 6.5 28.8 6.1 C 29.1 5.8 29.4 5.5 29.8 5.2 C 26.8 4.7 23.8 4.4 20.8 4.1 C 21.6 5.8 22.4 7.6 23.2 9.3 L 38.1 9.3 C 40.4 9.3 40.8 8.8 40.8 7.4 L 40.8 1.1 C 40.8 -0.5 40.3 -0.9 39.5 -0.9 C 38.8 -0.9 37.9 -0.8 36.9 -0.6 C 35.6 -0.4 34.9 -1.2 34.9 -2.2 C 34.9 -2.9 35.3 -3.7 36.4 -3.9 C 37.6 -4.1 38.6 -4.2 39.8 -4.2 C 43.0 -4.2 44.4 -2.8 44.4 0.7 L 44.4 7.8 C 44.4 10.5 42.6 12.1 39.1 12.1 L 24.4 12.1 C 24.8 13.1 25.1 14.1 25.5 15.1 Z " transform="scale(1,-1)" stroke-dasharray="298.6275997133573" stroke-dashoffset="298.6275997133573"><animate attributeName="stroke-dashoffset" from="298.6275997133573" to="0" dur="8.95882799140072s" begin="anim1.end" fill="freeze" id="anim2" /></path><path d="M 25.0 39.1 C 30.2 34.0 38.0 29.2 45.7 26.6 C 46.0 26.5 46.2 26.5 46.5 26.5 C 47.6 26.5 48.4 27.4 48.4 28.4 C 48.4 29.1 47.9 29.9 46.8 30.2 C 39.4 32.7 32.2 36.6 27.1 41.2 C 27.2 41.5 27.2 41.7 27.2 41.9 C 27.2 42.7 26.4 43.3 25.4 43.3 C 24.8 43.3 24.2 43.1 23.7 42.6 C 18.1 37.0 10.4 32.1 2.9 29.1 C 1.9 28.7 1.5 28.1 1.5 27.4 C 1.5 26.6 2.1 25.8 3.2 25.8 C 3.4 25.8 3.7 25.9 4.0 26.0 C 11.4 29.0 19.2 33.8 25.0 39.1 Z" transform="scale(1,-1)" stroke-dasharray="114.2150705478432" stroke-dashoffset="114.2150705478432"><animate attributeName="stroke-dashoffset" from="114.2150705478432" to="0" dur="3.426452116435296s" begin="anim2.end" fill="freeze" id="anim_end" /></path></g></svg>