<?xml version='1.0' encoding='utf-8'?>
<svg viewBox="0 -44.0 50.0 50.0" version="1.1" xmlns="http://www.w3.org/2000/svg"><rect x="-1000" y="-1000" width="2000" height="2000" stroke="white" fill="white" /><g style="fill:none;stroke:#000000;stroke-width:1"><path d="M 10.3 -2.5 C 10.3 -3.5 11.2 -4.0 12.0 -4.0 C 12.9 -4.0 13.7 -3.5 13.7 -2.5 L 13.7 17.7 C 15.2 17.9 16.8 18.1 18.2 18.3 C 18.4 17.8 18.7 17.2 18.9 16.8 C 19.2 15.9 19.8 15.6 20.4 15.6 C 21.3 15.6 22.2 16.2 22.2 17.2 C 22.2 17.5 22.1 17.8 22.0 18.0 C 21.2 20.0 19.7 22.5 18.3 24.2 C 17.9 24.6 17.4 24.8 17.0 24.8 C 16.2 24.8 15.5 24.2 15.5 23.4 C 15.5 23.1 15.6 22.8 15.8 22.5 C 16.2 22.0 16.5 21.5 16.8 21.0 C 14.7 20.7 12.5 20.5 10.2 20.3 C 13.2 24.0 16.2 28.5 18.4 32.3 C 18.7 32.7 18.7 33.1 18.7 33.5 C 18.7 34.5 17.9 35.1 17.0 35.1 C 16.4 35.1 15.8 34.8 15.5 34.1 C 14.5 32.2 13.4 30.2 12.0 28.0 C 11.2 29.0 10.5 29.9 9.6 30.8 C 11.2 33.5 12.8 36.4 13.9 39.0 C 14.0 39.2 14.1 39.6 14.1 39.8 C 14.1 40.8 13.2 41.5 12.3 41.5 C 11.7 41.5 11.0 41.1 10.7 40.3 C 9.8 37.9 8.6 35.3 7.3 33.1 C 7.0 33.4 6.7 33.6 6.4 33.9 C 6.0 34.2 5.6 34.4 5.2 34.4 C 4.4 34.4 3.7 33.6 3.7 32.9 C 3.7 32.4 3.9 31.9 4.5 31.4 C 5.7 30.3 7.7 28.2 10.1 25.0 C 9.0 23.4 7.8 21.7 6.6 20.1 C 5.6 20.1 4.5 20.0 3.6 20.0 C 2.6 20.0 2.1 19.2 2.1 18.5 C 2.1 17.7 2.7 16.8 3.7 16.9 C 5.8 16.9 8.1 17.1 10.3 17.2 Z " transform="scale(1,-1)" stroke-dasharray="166.83394457794574" stroke-dashoffset="166.83394457794574"><animate attributeName="stroke-dashoffset" from="166.83394457794574" to="0" dur="5.005018337338372s" begin="0s; 15s; 30s; 45s; 60s" fill="freeze" id="anim0" /></path><path d="M 35.4 2.7 L 35.4 33.0 L 44.1 33.0 C 45.1 33.0 45.6 33.8 45.6 34.6 C 45.6 35.5 45.1 36.2 44.1 36.2 L 23.9 36.2 C 23.0 36.2 22.5 35.5 22.5 34.6 C 22.5 33.8 23.0 33.0 23.9 33.0 L 31.6 33.0 L 31.6 2.7 L 21.5 2.7 C 20.6 2.7 20.1 1.9 20.1 1.0 C 20.1 0.2 20.6 -0.7 21.5 -0.7 L 46.1 -0.7 C 47.1 -0.7 47.6 0.2 47.6 1.0 C 47.6 1.9 47.1 2.7 46.1 2.7 Z " transform="scale(1,-1)" stroke-dasharray="162.29581017410925" stroke-dashoffset="162.29581017410925"><animate attributeName="stroke-dashoffset" from="162.29581017410925" to="0" dur="4.868874305223278s" begin="anim0.end" fill="freeze" id="anim1" /></path><path d="M 18.4 13.2 C 18.1 13.9 17.6 14.1 17.0 14.1 C 16.2 14.1 15.6 13.6 15.6 12.8 C 15.6 12.5 15.6 12.2 15.8 12.0 C 16.6 10.2 17.3 8.2 17.8 5.8 C 18.0 4.8 18.7 4.4 19.4 4.4 C 20.4 4.4 21.4 5.2 21.1 6.6 C 20.5 9.2 19.5 11.6 18.4 13.2 Z " transform="scale(1,-1)" stroke-dasharray="24.027460386571125" stroke-dashoffset="24.027460386571125"><animate attributeName="stroke-dashoffset" from="24.027460386571125" to="0" dur="0.7208238115971337s" begin="anim1.end" fill="freeze" id="anim2" /></path><path d="M 4.9 11.9 C 4.6 9.2 3.8 5.3 2.9 2.9 C 2.8 2.6 2.7 2.3 2.7 2.1 C 2.7 1.2 3.5 0.5 4.2 0.5 C 4.9 0.5 5.5 0.9 5.9 1.8 C 7.0 4.6 7.9 8.5 8.1 11.6 C 8.2 12.9 7.3 13.5 6.5 13.5 C 5.7 13.5 4.9 13.0 4.9 11.9 Z" transform="scale(1,-1)" stroke-dasharray="30.195729349312185" stroke-dashoffset="30.195729349312185"><animate attributeName="stroke-dashoffset" from="30.195729349312185" to="0" dur="0.9058718804793655s" begin="anim2.end" fill="freeze" id="anim_end" /></path></g></svg>