<?xml version='1.0' encoding='utf-8'?>
<svg viewBox="0 -44.0 50.0 50.0" version="1.1" xmlns="http://www.w3.org/2000/svg"><rect x="-1000" y="-1000" width="2000" height="2000" stroke="white" fill="white" /><g style="fill:none;stroke:#000000;stroke-width:1"><path d="M 35.5 5.2 C 39.4 5.2 40.8 7.0 40.8 9.8 L 40.8 24.1 C 40.8 27.0 39.4 28.8 35.5 28.8 L 24.7 28.8 C 20.8 28.8 19.4 27.0 19.4 24.1 L 19.4 9.8 C 19.4 6.3 21.5 5.2 24.7 5.2 Z " transform="scale(1,-1)" stroke-dasharray="82.64185916170975" stroke-dashoffset="82.64185916170975"><animate attributeName="stroke-dashoffset" from="82.64185916170975" to="0" dur="2.4792557748512922s" begin="0s; 15s; 30s; 45s; 60s" fill="freeze" id="anim0" /></path><path d="M 25.6 8.2 C 23.5 8.2 22.9 8.8 22.9 10.8 L 22.9 15.8 L 37.3 15.8 L 37.3 10.8 C 37.2 8.7 36.5 8.2 34.6 8.2 Z " transform="scale(1,-1)" stroke-dasharray="42.228477604082556" stroke-dashoffset="42.228477604082556"><animate attributeName="stroke-dashoffset" from="42.228477604082556" to="0" dur="1.2668543281224767s" begin="anim0.end" fill="freeze" id="anim1" /></path><path d="M 37.3 18.8 L 22.9 18.8 L 22.9 23.1 C 22.9 25.1 23.5 25.7 25.6 25.7 L 34.6 25.7 C 36.6 25.7 37.3 25.1 37.3 23.1 Z " transform="scale(1,-1)" stroke-dasharray="40.86014718410817" stroke-dashoffset="40.86014718410817"><animate attributeName="stroke-dashoffset" from="40.86014718410817" to="0" dur="1.225804415523245s" begin="anim1.end" fill="freeze" id="anim2" /></path><path d="M 13.2 31.1 C 13.2 32.9 13.9 33.6 16.2 33.6 L 46.1 33.6 C 47.1 33.6 47.6 34.5 47.6 35.2 C 47.6 36.0 47.1 36.8 46.1 36.8 L 30.2 36.8 L 30.2 41.0 C 30.2 42.0 29.3 42.5 28.4 42.5 C 27.5 42.5 26.5 42.0 26.5 41.0 L 26.5 36.8 L 15.5 36.8 C 11.2 36.8 9.7 35.0 9.7 31.8 L 9.7 23.4 C 9.6 21.7 9.6 20.0 9.5 18.2 C 7.3 16.9 5.0 15.8 2.9 15.0 C 1.9 14.6 1.4 13.8 1.4 13.1 C 1.4 12.2 2.1 11.4 3.1 11.4 C 3.4 11.4 3.7 11.5 4.0 11.7 C 5.8 12.4 7.4 13.2 9.0 14.3 C 8.1 8.8 6.2 4.4 3.6 0.7 C 3.2 0.2 3.1 -0.4 3.1 -0.8 C 3.1 -1.8 3.9 -2.4 4.7 -2.4 C 5.3 -2.4 6.0 -2.1 6.5 -1.4 C 10.8 4.9 13.2 12.8 13.2 23.3 Z " transform="scale(1,-1)" stroke-dasharray="176.45680155128287" stroke-dashoffset="176.45680155128287"><animate attributeName="stroke-dashoffset" from="176.45680155128287" to="0" dur="5.293704046538486s" begin="anim2.end" fill="freeze" id="anim3" /></path><path d="M 13.8 0.9 C 12.8 0.9 12.3 0.1 12.3 -0.7 C 12.3 -1.5 12.8 -2.3 13.8 -2.3 L 45.5 -2.3 C 46.5 -2.3 47.0 -1.5 47.0 -0.7 C 47.0 0.1 46.5 0.9 45.5 0.9 Z " transform="scale(1,-1)" stroke-dasharray="73.23521853765712" stroke-dashoffset="73.23521853765712"><animate attributeName="stroke-dashoffset" from="73.23521853765712" to="0" dur="2.1970565561297133s" begin="anim3.end" fill="freeze" id="anim4" /></path><path d="M 5.6 29.8 C 5.1 30.2 4.6 30.4 4.2 30.4 C 3.2 30.4 2.5 29.7 2.5 28.8 C 2.5 28.4 2.7 28.0 3.1 27.6 C 4.0 26.7 5.1 25.4 5.9 24.2 C 6.2 23.6 6.9 23.3 7.4 23.3 C 8.3 23.3 9.2 24.1 9.2 25.1 C 9.2 25.5 9.0 26.0 8.7 26.4 C 7.7 27.7 6.6 28.9 5.6 29.8 Z" transform="scale(1,-1)" stroke-dasharray="20.611902089278157" stroke-dashoffset="20.611902089278157"><animate attributeName="stroke-dashoffset" from="20.611902089278157" to="0" dur="0.6183570626783447s" begin="anim4.end" fill="freeze" id="anim_end" /></path></g></svg>