<?xml version='1.0' encoding='utf-8'?>
<svg viewBox="0 -44.0 50.0 50.0" version="1.1" xmlns="http://www.w3.org/2000/svg"><rect x="-1000" y="-1000" width="2000" height="2000" stroke="white" fill="white" /><g style="fill:none;stroke:#000000;stroke-width:1"><path d="M 38.6 27.8 C 40.4 29.2 42.1 30.9 43.5 32.5 C 43.8 32.9 43.9 33.3 43.9 33.7 C 43.9 34.6 43.1 35.4 42.2 35.4 C 41.7 35.4 41.1 35.1 40.7 34.6 C 39.4 32.9 37.9 31.2 36.2 29.9 C 35.1 30.9 34.1 32.0 33.1 33.1 C 34.9 34.5 36.4 36.1 37.6 37.5 C 38.0 37.9 38.1 38.3 38.1 38.7 C 38.1 39.6 37.2 40.2 36.4 40.2 C 35.9 40.2 35.3 40.1 34.9 39.5 C 33.9 38.1 32.6 36.7 31.2 35.4 C 30.1 36.9 29.2 38.5 28.3 40.2 C 27.9 41.0 27.3 41.2 26.7 41.2 C 25.9 41.2 25.2 40.7 25.2 39.8 C 25.2 39.5 25.2 39.2 25.4 38.9 C 29.3 31.2 37.0 23.6 45.2 19.2 C 45.6 18.9 46.0 18.9 46.3 18.9 C 47.4 18.9 48.2 19.7 48.2 20.6 C 48.2 21.2 47.8 21.9 46.8 22.4 C 44.1 23.8 41.2 25.6 38.6 27.8 Z " transform="scale(1,-1)" stroke-dasharray="96.31017699993309" stroke-dashoffset="96.31017699993309"><animate attributeName="stroke-dashoffset" from="96.31017699993309" to="0" dur="2.889305309997993s" begin="0s; 15s; 30s; 45s; 60s" fill="freeze" id="anim0" /></path><path d="M 8.3 38.4 C 7.4 38.4 6.8 37.6 6.8 36.9 C 6.8 36.1 7.4 35.4 8.3 35.4 L 17.6 35.4 C 18.2 35.4 18.4 35.2 18.4 34.9 C 18.4 34.8 18.4 34.6 18.2 34.3 C 17.2 32.4 15.6 30.4 13.8 28.6 C 12.4 30.1 11.2 31.2 10.2 31.9 C 9.8 32.2 9.3 32.4 9.0 32.4 C 8.1 32.4 7.4 31.7 7.4 31.0 C 7.4 30.6 7.6 30.1 8.1 29.8 C 8.8 29.2 10.3 27.7 11.5 26.4 C 8.9 24.1 6.0 22.0 3.0 20.5 C 2.1 20.1 1.8 19.4 1.8 18.8 C 1.8 18.0 2.5 17.2 3.4 17.2 C 3.7 17.2 4.1 17.4 4.5 17.6 C 11.3 21.2 18.2 27.2 21.5 33.2 C 22.0 34.1 22.2 34.8 22.2 35.5 C 22.2 37.1 20.9 38.4 18.2 38.4 Z " transform="scale(1,-1)" stroke-dasharray="95.2692158112715" stroke-dashoffset="95.2692158112715"><animate attributeName="stroke-dashoffset" from="95.2692158112715" to="0" dur="2.858076474338145s" begin="anim0.end" fill="freeze" id="anim1" /></path><path d="M 18.0 21.4 L 18.0 18.4 C 17.9 17.1 17.9 15.7 17.8 14.3 L 7.1 14.3 C 6.1 14.3 5.6 13.6 5.6 12.8 C 5.6 12.0 6.1 11.2 7.1 11.2 L 17.2 11.2 C 15.7 5.5 12.1 2.0 5.7 -0.4 C 4.8 -0.7 4.4 -1.4 4.4 -2.0 C 4.4 -2.8 5.1 -3.6 6.1 -3.6 C 6.4 -3.6 6.6 -3.6 6.9 -3.5 C 14.4 -0.8 19.1 3.8 20.8 11.2 L 28.0 11.2 L 28.0 1.9 C 28.0 -1.6 29.4 -2.8 35.8 -2.8 C 42.8 -2.8 45.2 -1.3 45.8 3.8 C 45.9 5.1 45.0 5.8 44.0 5.8 C 43.2 5.8 42.4 5.3 42.2 4.2 C 41.8 0.9 40.6 0.5 35.8 0.5 C 32.2 0.5 31.5 0.8 31.5 2.7 L 31.5 11.2 L 42.5 11.2 C 43.5 11.2 44.0 12.0 44.0 12.8 C 44.0 13.6 43.5 14.3 42.5 14.3 L 31.5 14.3 L 31.5 21.4 L 34.5 21.4 C 35.4 21.4 35.9 22.2 35.9 22.9 C 35.9 23.7 35.4 24.4 34.5 24.4 L 15.8 24.4 C 14.9 24.4 14.4 23.7 14.4 22.9 C 14.4 22.2 14.9 21.4 15.8 21.4 Z " transform="scale(1,-1)" stroke-dasharray="212.8049802899421" stroke-dashoffset="212.8049802899421"><animate attributeName="stroke-dashoffset" from="212.8049802899421" to="0" dur="6.384149408698263s" begin="anim1.end" fill="freeze" id="anim2" /></path><path d="M 21.3 14.3 C 21.5 15.6 21.5 16.8 21.5 18.0 L 21.5 21.4 L 28.0 21.4 L 28.0 14.3 Z" transform="scale(1,-1)" stroke-dasharray="27.409409462696452" stroke-dashoffset="27.409409462696452"><animate attributeName="stroke-dashoffset" from="27.409409462696452" to="0" dur="0.8222822838808935s" begin="anim2.end" fill="freeze" id="anim_end" /></path></g></svg>