<?xml version='1.0' encoding='utf-8'?>
<svg viewBox="0 -44.0 50.0 50.0" version="1.1" xmlns="http://www.w3.org/2000/svg"><rect x="-1000" y="-1000" width="2000" height="2000" stroke="white" fill="white" /><g style="fill:none;stroke:#000000;stroke-width:1"><path d="M 8.4 -2.8 C 8.4 -3.8 9.2 -4.3 10.1 -4.3 C 10.9 -4.3 11.8 -3.8 11.8 -2.8 L 11.8 17.8 C 12.9 17.9 14.0 18.1 15.1 18.2 C 15.2 18.0 15.3 17.7 15.4 17.4 C 15.7 16.7 16.2 16.4 16.8 16.4 C 17.7 16.4 18.4 17.0 18.4 18.0 C 18.4 18.2 18.4 18.4 18.4 18.7 C 17.6 20.7 16.5 22.5 15.2 24.1 C 14.9 24.6 14.5 24.8 14.1 24.8 C 13.3 24.8 12.7 24.2 12.7 23.4 C 12.7 23.2 12.7 22.9 12.9 22.6 C 13.2 22.1 13.6 21.5 13.9 20.9 C 12.1 20.7 10.4 20.5 8.6 20.4 C 11.2 23.9 14.1 28.6 16.0 32.5 C 16.2 32.9 16.2 33.2 16.2 33.5 C 16.2 34.6 15.4 35.2 14.6 35.2 C 14.0 35.2 13.4 34.9 13.1 34.2 C 12.2 32.4 11.2 30.4 10.2 28.4 C 9.5 29.2 8.8 30.1 8.1 30.9 C 9.6 33.6 11.0 36.5 12.1 39.5 C 12.2 39.7 12.2 40.0 12.2 40.2 C 12.2 41.1 11.3 41.7 10.5 41.7 C 9.8 41.7 9.2 41.4 8.9 40.6 C 8.0 38.0 7.0 35.5 5.9 33.2 C 5.6 33.5 5.4 33.8 5.1 34.0 C 4.8 34.2 4.4 34.4 4.0 34.4 C 3.2 34.4 2.5 33.7 2.5 32.9 C 2.5 32.4 2.7 31.9 3.2 31.5 C 4.2 30.5 6.0 28.6 8.5 25.4 C 7.4 23.6 6.3 21.9 5.2 20.2 C 4.4 20.1 3.6 20.1 2.8 20.1 C 1.8 20.1 1.3 19.3 1.3 18.6 C 1.3 17.7 1.9 16.9 2.9 16.9 C 4.7 17.0 6.6 17.2 8.4 17.4 Z " transform="scale(1,-1)" stroke-dasharray="158.8877926062553" stroke-dashoffset="158.8877926062553"><animate attributeName="stroke-dashoffset" from="158.8877926062553" to="0" dur="4.766633778187659s" begin="0s; 15s; 30s; 45s; 60s" fill="freeze" id="anim0" /></path><path d="M 34.4 18.8 C 31.1 18.8 29.8 17.5 29.8 14.3 L 29.8 1.7 C 29.8 -1.6 31.2 -2.8 34.6 -2.8 L 40.9 -2.8 C 44.2 -2.8 45.7 -1.6 45.7 1.7 L 45.7 14.3 C 45.7 17.5 44.4 18.8 41.0 18.8 L 38.5 18.8 C 39.0 20.2 39.4 21.8 39.8 23.4 L 46.2 23.4 C 47.2 23.4 47.7 24.2 47.7 24.9 C 47.7 25.7 47.2 26.5 46.2 26.5 L 30.3 26.5 C 29.4 26.5 28.9 25.7 28.9 24.9 C 28.9 24.2 29.4 23.4 30.3 23.4 L 36.6 23.4 C 36.2 21.8 35.9 20.2 35.5 18.8 Z " transform="scale(1,-1)" stroke-dasharray="113.08808294555978" stroke-dashoffset="113.08808294555978"><animate attributeName="stroke-dashoffset" from="113.08808294555978" to="0" dur="3.392642488366793s" begin="anim0.end" fill="freeze" id="anim1" /></path><path d="M 35.2 0.2 C 33.6 0.2 33.1 0.7 33.1 2.2 L 33.1 6.8 L 42.4 6.8 L 42.4 2.2 C 42.3 0.6 41.7 0.2 40.2 0.2 Z " transform="scale(1,-1)" stroke-dasharray="30.372845406735493" stroke-dashoffset="30.372845406735493"><animate attributeName="stroke-dashoffset" from="30.372845406735493" to="0" dur="0.9111853622020648s" begin="anim1.end" fill="freeze" id="anim2" /></path><path d="M 42.4 9.8 L 33.1 9.8 L 33.1 13.8 C 33.1 15.3 33.6 15.8 35.2 15.8 L 40.2 15.8 C 41.8 15.8 42.4 15.3 42.4 13.8 Z " transform="scale(1,-1)" stroke-dasharray="29.202754467658362" stroke-dashoffset="29.202754467658362"><animate attributeName="stroke-dashoffset" from="29.202754467658362" to="0" dur="0.8760826340297508s" begin="anim2.end" fill="freeze" id="anim3" /></path><path d="M 34.9 36.4 L 34.9 40.2 C 34.9 41.2 34.0 41.8 33.1 41.8 C 32.2 41.8 31.4 41.2 31.4 40.2 L 31.4 36.4 L 24.6 36.4 C 20.8 36.4 19.4 34.6 19.4 32.1 L 19.4 29.1 C 19.4 28.1 20.2 27.6 21.1 27.6 C 22.0 27.6 22.9 28.1 22.9 29.1 L 22.9 31.7 C 22.9 32.7 23.3 33.3 25.1 33.3 L 41.6 33.3 C 43.4 33.3 43.8 32.7 43.8 31.6 L 43.8 29.6 C 43.8 28.6 44.7 28.1 45.6 28.1 C 46.5 28.1 47.3 28.6 47.3 29.6 L 47.3 32.1 C 47.3 34.6 45.9 36.4 42.1 36.4 Z " transform="scale(1,-1)" stroke-dasharray="85.64085968509248" stroke-dashoffset="85.64085968509248"><animate attributeName="stroke-dashoffset" from="85.64085968509248" to="0" dur="2.5692257905527742s" begin="anim3.end" fill="freeze" id="anim4" /></path><path d="M 23.7 18.6 C 25.1 21.1 26.5 24.0 27.5 26.7 C 27.6 27.0 27.6 27.2 27.6 27.5 C 27.6 28.5 26.8 29.1 25.9 29.1 C 25.2 29.1 24.6 28.7 24.2 27.8 C 23.0 23.6 20.7 19.1 18.6 16.1 C 18.2 15.6 18.1 15.2 18.1 14.8 C 18.1 14.0 18.7 13.4 19.4 13.4 C 19.9 13.4 20.5 13.6 21.0 14.2 C 21.3 14.8 21.7 15.3 22.1 15.9 L 22.1 -2.1 C 22.1 -3.1 23.0 -3.7 23.8 -3.7 C 24.6 -3.7 25.4 -3.1 25.4 -2.1 L 25.4 17.0 C 25.4 18.1 24.6 18.6 23.8 18.6 Z " transform="scale(1,-1)" stroke-dasharray="79.95812458515576" stroke-dashoffset="79.95812458515576"><animate attributeName="stroke-dashoffset" from="79.95812458515576" to="0" dur="2.3987437375546725s" begin="anim4.end" fill="freeze" id="anim5" /></path><path d="M 15.9 13.4 C 15.5 14.0 15.0 14.2 14.5 14.2 C 13.8 14.2 13.1 13.7 13.1 12.9 C 13.1 12.7 13.2 12.4 13.2 12.2 C 14.0 10.7 14.7 8.4 15.2 6.2 C 15.4 5.2 16.0 4.8 16.7 4.8 C 17.6 4.8 18.5 5.7 18.2 7.2 C 17.8 9.2 16.7 12.0 15.9 13.4 Z " transform="scale(1,-1)" stroke-dasharray="22.995004677504898" stroke-dashoffset="22.995004677504898"><animate attributeName="stroke-dashoffset" from="22.995004677504898" to="0" dur="0.6898501403251469s" begin="anim5.end" fill="freeze" id="anim6" /></path><path d="M 3.6 12.0 C 3.4 9.2 2.6 5.4 1.6 2.8 C 1.5 2.5 1.5 2.3 1.5 2.1 C 1.5 1.2 2.2 0.7 3.1 0.7 C 3.7 0.7 4.3 1.0 4.7 1.9 C 5.8 4.7 6.6 8.7 6.7 11.8 C 6.8 13.0 6.0 13.6 5.1 13.6 C 4.4 13.6 3.6 13.1 3.6 12.0 Z" transform="scale(1,-1)" stroke-dasharray="30.026238121720336" stroke-dashoffset="30.026238121720336"><animate attributeName="stroke-dashoffset" from="30.026238121720336" to="0" dur="0.9007871436516101s" begin="anim6.end" fill="freeze" id="anim_end" /></path></g></svg>