<?xml version='1.0' encoding='utf-8'?>
<svg viewBox="0 -44.0 50.0 50.0" version="1.1" xmlns="http://www.w3.org/2000/svg"><rect x="-1000" y="-1000" width="2000" height="2000" stroke="white" fill="white" /><g style="fill:none;stroke:#000000;stroke-width:1"><path d="M 9.2 28.9 L 3.5 28.9 C 2.5 28.9 2.1 28.1 2.1 27.3 C 2.1 26.6 2.5 25.8 3.5 25.8 L 8.7 25.8 C 7.2 19.6 4.8 13.5 1.7 8.8 C 1.4 8.3 1.2 8.0 1.2 7.6 C 1.2 6.8 2.0 6.2 2.7 6.2 C 3.2 6.2 3.8 6.5 4.2 7.1 C 6.4 10.5 8.2 14.6 9.5 18.4 L 9.2 8.9 L 9.2 -2.9 C 9.2 -3.9 10.1 -4.4 11.0 -4.4 C 11.8 -4.4 12.6 -3.9 12.6 -2.9 L 12.6 17.8 C 13.9 16.6 15.0 15.4 15.8 14.2 C 16.2 13.7 16.7 13.4 17.2 13.4 C 18.0 13.4 18.8 14.1 18.8 15.1 C 18.8 15.6 18.5 16.2 18.0 16.7 C 16.8 18.1 14.7 19.9 12.6 21.5 L 12.6 25.8 L 17.9 25.8 C 18.9 25.8 19.4 26.6 19.4 27.3 C 19.4 28.1 18.9 28.9 17.9 28.9 L 12.6 28.9 L 12.6 36.1 C 14.2 36.6 15.6 37.1 16.9 37.7 C 17.8 38.1 18.2 38.8 18.2 39.4 C 18.2 40.2 17.4 41.0 16.5 41.0 C 16.2 41.0 16.0 41.0 15.7 40.8 C 12.1 39.2 7.5 37.7 4.1 37.1 C 3.2 37.0 2.7 36.3 2.7 35.6 C 2.7 34.8 3.4 34.0 4.5 34.1 C 6.0 34.4 7.6 34.7 9.2 35.1 Z " transform="scale(1,-1)" stroke-dasharray="182.51137341829073" stroke-dashoffset="182.51137341829073"><animate attributeName="stroke-dashoffset" from="182.51137341829073" to="0" dur="5.475341202548722s" begin="0s; 15s; 30s; 45s; 60s" fill="freeze" id="anim0" /></path><path d="M 31.1 16.0 L 31.1 -1.8 C 31.1 -2.9 32.0 -3.5 32.9 -3.5 C 33.8 -3.5 34.7 -2.9 34.7 -1.8 L 34.7 16.0 L 46.4 16.0 C 47.4 16.0 47.9 16.8 47.9 17.6 C 47.9 18.4 47.4 19.1 46.4 19.1 L 34.7 19.1 L 34.7 35.5 L 44.8 35.5 C 45.8 35.5 46.3 36.2 46.3 37.0 C 46.3 37.8 45.8 38.6 44.8 38.6 L 21.6 38.6 C 20.6 38.6 20.1 37.8 20.1 37.0 C 20.1 36.2 20.6 35.5 21.6 35.5 L 31.1 35.5 L 31.1 19.1 L 20.7 19.1 C 19.7 19.1 19.2 18.4 19.2 17.6 C 19.2 16.8 19.7 16.0 20.7 16.0 Z " transform="scale(1,-1)" stroke-dasharray="180.3284196137538" stroke-dashoffset="180.3284196137538"><animate attributeName="stroke-dashoffset" from="180.3284196137538" to="0" dur="5.409852588412614s" begin="anim0.end" fill="freeze" id="anim1" /></path><path d="M 25.2 30.9 C 24.8 31.6 24.1 31.9 23.5 31.9 C 22.7 31.9 21.9 31.2 21.9 30.4 C 21.9 30.1 22.0 29.8 22.2 29.5 C 23.1 27.8 24.2 25.3 24.8 23.7 C 25.1 22.8 25.8 22.4 26.4 22.4 C 27.3 22.4 28.2 23.1 28.2 24.2 C 28.2 24.5 28.2 24.8 28.1 25.1 C 27.5 26.7 26.2 29.2 25.2 30.9 Z " transform="scale(1,-1)" stroke-dasharray="24.236054912337995" stroke-dashoffset="24.236054912337995"><animate attributeName="stroke-dashoffset" from="24.236054912337995" to="0" dur="0.7270816473701398s" begin="anim1.end" fill="freeze" id="anim2" /></path><path d="M 40.8 30.8 C 40.0 28.6 38.9 26.4 37.8 24.7 C 37.5 24.2 37.4 23.8 37.4 23.4 C 37.4 22.6 38.1 22.0 38.9 22.0 C 39.5 22.0 40.1 22.2 40.5 22.9 C 41.8 24.9 43.0 27.2 43.9 29.6 C 44.0 29.9 44.1 30.2 44.1 30.4 C 44.1 31.4 43.2 32.1 42.4 32.1 C 41.8 32.1 41.1 31.7 40.8 30.8 Z" transform="scale(1,-1)" stroke-dasharray="25.616626578180146" stroke-dashoffset="25.616626578180146"><animate attributeName="stroke-dashoffset" from="25.616626578180146" to="0" dur="0.7684987973454044s" begin="anim2.end" fill="freeze" id="anim_end" /></path></g></svg>