<?xml version='1.0' encoding='utf-8'?>
<svg viewBox="0 -44.0 50.0 50.0" version="1.1" xmlns="http://www.w3.org/2000/svg"><rect x="-1000" y="-1000" width="2000" height="2000" stroke="white" fill="white" /><g style="fill:none;stroke:#000000;stroke-width:1"><path d="M 14.3 1.8 C 17.1 1.8 18.6 2.7 18.6 5.9 L 18.6 20.5 C 18.6 23.7 17.1 24.6 14.3 24.6 L 10.8 24.6 C 10.2 24.6 9.8 24.6 9.2 24.5 C 10.6 28.0 11.6 31.8 12.1 35.5 L 17.6 35.5 C 18.6 35.5 19.1 36.3 19.1 37.1 C 19.1 37.9 18.6 38.6 17.6 38.6 L 3.6 38.6 C 2.7 38.6 2.1 37.9 2.1 37.1 C 2.1 36.3 2.7 35.5 3.6 35.5 L 8.6 35.5 C 7.6 28.9 5.1 20.9 1.7 16.0 C 1.4 15.6 1.3 15.2 1.3 14.8 C 1.3 13.9 2.0 13.2 2.9 13.2 C 3.4 13.2 4.0 13.6 4.5 14.3 C 5.2 15.5 6.0 16.9 6.7 18.3 L 6.5 12.8 L 6.5 5.9 C 6.6 2.8 7.8 1.8 10.8 1.8 Z " transform="scale(1,-1)" stroke-dasharray="133.13685291621456" stroke-dashoffset="133.13685291621456"><animate attributeName="stroke-dashoffset" from="133.13685291621456" to="0" dur="3.9941055874864366s" begin="0s; 15s; 30s; 45s; 60s" fill="freeze" id="anim0" /></path><path d="M 11.1 4.9 C 10.2 4.9 9.9 5.3 9.9 6.2 L 9.9 20.2 C 9.9 21.2 10.2 21.6 11.1 21.6 L 14.0 21.6 C 14.9 21.6 15.2 21.2 15.2 20.2 L 15.2 6.2 C 15.2 5.4 15.0 4.9 14.0 4.9 Z " transform="scale(1,-1)" stroke-dasharray="42.238539262925286" stroke-dashoffset="42.238539262925286"><animate attributeName="stroke-dashoffset" from="42.238539262925286" to="0" dur="1.2671561778877585s" begin="anim0.end" fill="freeze" id="anim1" /></path><path d="M 26.9 7.8 L 41.3 7.8 L 41.3 1.6 C 41.3 0.2 40.8 -0.2 39.7 -0.2 C 39.0 -0.2 38.3 -0.1 37.5 0.1 C 36.2 0.2 35.5 -0.7 35.5 -1.6 C 35.5 -2.3 36.0 -3.1 37.1 -3.3 C 38.1 -3.5 38.8 -3.6 40.0 -3.6 C 43.1 -3.6 44.7 -2.1 44.7 1.1 L 44.7 22.4 C 44.7 25.2 43.2 26.9 39.8 26.9 L 35.7 26.9 L 35.7 40.2 C 35.7 41.2 34.9 41.8 34.0 41.8 C 33.1 41.8 32.3 41.2 32.3 40.2 L 32.3 26.9 L 28.4 26.9 C 25.0 26.9 23.5 25.2 23.5 22.4 L 23.5 -2.2 C 23.5 -3.4 24.4 -4.0 25.2 -4.0 C 26.0 -4.0 26.9 -3.4 26.9 -2.2 Z " transform="scale(1,-1)" stroke-dasharray="158.19614817127018" stroke-dashoffset="158.19614817127018"><animate attributeName="stroke-dashoffset" from="158.19614817127018" to="0" dur="4.745884445138105s" begin="anim1.end" fill="freeze" id="anim2" /></path><path d="M 26.9 10.8 L 26.9 15.9 L 41.3 15.9 L 41.3 10.8 Z " transform="scale(1,-1)" stroke-dasharray="39.0" stroke-dashoffset="39.0"><animate attributeName="stroke-dashoffset" from="39.0" to="0" dur="1.17s" begin="anim2.end" fill="freeze" id="anim3" /></path><path d="M 26.9 18.8 L 26.9 21.9 C 26.9 23.2 27.5 23.8 29.2 23.8 L 39.0 23.8 C 40.8 23.8 41.3 23.2 41.3 21.9 L 41.3 18.8 Z " transform="scale(1,-1)" stroke-dasharray="37.3448842298642" stroke-dashoffset="37.3448842298642"><animate attributeName="stroke-dashoffset" from="37.3448842298642" to="0" dur="1.1203465268959258s" begin="anim3.end" fill="freeze" id="anim4" /></path><path d="M 42.8 37.5 C 41.9 35.5 40.6 33.3 39.3 31.7 C 39.1 31.3 38.9 31.0 38.9 30.6 C 38.9 29.8 39.6 29.2 40.5 29.2 C 40.9 29.2 41.4 29.3 41.8 29.8 C 43.2 31.4 44.8 34.0 45.8 36.0 C 46.0 36.4 46.1 36.7 46.1 37.0 C 46.1 38.0 45.2 38.6 44.4 38.6 C 43.8 38.6 43.2 38.2 42.8 37.5 Z " transform="scale(1,-1)" stroke-dasharray="24.90207711192216" stroke-dashoffset="24.90207711192216"><animate attributeName="stroke-dashoffset" from="24.90207711192216" to="0" dur="0.7470623133576648s" begin="anim4.end" fill="freeze" id="anim5" /></path><path d="M 25.1 37.5 C 24.6 38.0 24.1 38.2 23.6 38.2 C 22.8 38.2 22.0 37.5 22.0 36.6 C 22.0 36.4 22.1 36.0 22.4 35.6 C 23.6 34.1 24.9 32.0 25.7 30.4 C 26.1 29.6 26.7 29.2 27.4 29.2 C 28.2 29.2 29.0 29.9 29.0 31.0 C 29.0 31.3 28.9 31.7 28.7 32.1 C 27.9 33.7 26.3 36.0 25.1 37.5 Z" transform="scale(1,-1)" stroke-dasharray="23.986632250699824" stroke-dashoffset="23.986632250699824"><animate attributeName="stroke-dashoffset" from="23.986632250699824" to="0" dur="0.7195989675209947s" begin="anim5.end" fill="freeze" id="anim_end" /></path></g></svg>