<?xml version='1.0' encoding='utf-8'?>
<svg viewBox="0 -44.0 50.0 50.0" version="1.1" xmlns="http://www.w3.org/2000/svg"><rect x="-1000" y="-1000" width="2000" height="2000" stroke="white" fill="white" /><g style="fill:none;stroke:#000000;stroke-width:1"><path d="M 13.0 32.4 C 13.0 34.1 13.7 34.8 16.0 34.8 L 46.4 34.8 C 47.4 34.8 47.9 35.5 47.9 36.2 C 47.9 37.0 47.4 37.8 46.4 37.8 L 29.9 37.8 L 29.9 41.4 C 29.9 42.3 29.0 42.8 28.1 42.8 C 27.1 42.8 26.2 42.3 26.2 41.4 L 26.2 37.8 L 15.2 37.8 C 11.1 37.8 9.5 36.1 9.5 32.9 L 9.5 24.4 C 9.5 22.6 9.4 20.8 9.2 19.0 C 7.1 17.7 4.8 16.5 2.7 15.7 C 1.7 15.3 1.2 14.6 1.2 13.9 C 1.2 13.1 1.9 12.2 2.9 12.2 C 3.2 12.2 3.5 12.4 3.9 12.5 C 5.6 13.3 7.2 14.1 8.8 15.2 C 8.0 9.4 6.2 5.0 3.7 1.1 C 3.3 0.6 3.2 0.1 3.2 -0.3 C 3.2 -1.2 3.9 -1.9 4.8 -1.9 C 5.4 -1.9 6.0 -1.6 6.5 -0.9 C 10.6 5.5 13.0 13.3 13.0 24.3 Z " transform="scale(1,-1)" stroke-dasharray="176.89011519724605" stroke-dashoffset="176.89011519724605"><animate attributeName="stroke-dashoffset" from="176.89011519724605" to="0" dur="5.306703455917381s" begin="0s; 15s; 30s; 45s; 60s" fill="freeze" id="anim0" /></path><path d="M 35.1 22.7 C 38.8 22.7 39.8 23.9 39.8 26.2 L 39.8 28.5 C 39.8 30.9 38.8 32.1 35.1 32.1 L 25.5 32.1 C 21.9 32.1 20.9 30.9 20.9 28.5 L 20.9 26.2 C 20.9 23.2 22.8 22.8 25.5 22.7 Z " transform="scale(1,-1)" stroke-dasharray="50.95687000953177" stroke-dashoffset="50.95687000953177"><animate attributeName="stroke-dashoffset" from="50.95687000953177" to="0" dur="1.528706100285953s" begin="anim0.end" fill="freeze" id="anim1" /></path><path d="M 26.1 25.5 C 24.7 25.5 24.1 25.8 24.1 26.7 L 24.1 28.1 C 24.1 29.0 24.7 29.2 26.1 29.2 L 34.6 29.2 C 36.0 29.2 36.5 29.0 36.5 28.1 L 36.5 26.7 C 36.5 25.6 35.6 25.5 34.6 25.5 Z " transform="scale(1,-1)" stroke-dasharray="30.224450263219644" stroke-dashoffset="30.224450263219644"><animate attributeName="stroke-dashoffset" from="30.224450263219644" to="0" dur="0.9067335078965892s" begin="anim1.end" fill="freeze" id="anim2" /></path><path d="M 24.4 11.1 C 28.0 11.1 29.0 12.2 29.0 14.7 L 29.0 17.2 C 29.0 19.6 28.0 20.8 24.4 20.8 L 20.0 20.8 C 16.4 20.8 15.3 19.7 15.3 17.2 L 15.3 14.7 C 15.4 11.6 17.2 11.1 20.0 11.1 Z " transform="scale(1,-1)" stroke-dasharray="41.15832054990256" stroke-dashoffset="41.15832054990256"><animate attributeName="stroke-dashoffset" from="41.15832054990256" to="0" dur="1.2347496164970768s" begin="anim2.end" fill="freeze" id="anim3" /></path><path d="M 20.2 13.9 C 18.9 13.9 18.5 14.3 18.5 15.2 L 18.5 16.7 C 18.5 17.5 18.9 17.9 20.2 17.9 L 24.1 17.9 C 25.4 17.9 25.8 17.5 25.8 16.7 L 25.8 15.2 C 25.8 14.1 25.1 13.9 24.1 13.9 Z " transform="scale(1,-1)" stroke-dasharray="20.575114663373572" stroke-dashoffset="20.575114663373572"><animate attributeName="stroke-dashoffset" from="20.575114663373572" to="0" dur="0.6172534399012072s" begin="anim3.end" fill="freeze" id="anim4" /></path><path d="M 41.7 11.1 C 45.3 11.1 46.3 12.2 46.3 14.7 L 46.3 17.2 C 46.3 19.6 45.3 20.8 41.7 20.8 L 37.0 20.8 C 33.4 20.8 32.4 19.7 32.4 17.2 L 32.4 14.7 C 32.4 11.6 34.2 11.1 37.0 11.1 Z " transform="scale(1,-1)" stroke-dasharray="41.649565157141446" stroke-dashoffset="41.649565157141446"><animate attributeName="stroke-dashoffset" from="41.649565157141446" to="0" dur="1.2494869547142433s" begin="anim4.end" fill="freeze" id="anim5" /></path><path d="M 37.3 13.9 C 36.0 13.9 35.6 14.3 35.6 15.2 L 35.6 16.7 C 35.6 17.5 35.9 17.9 37.3 17.9 L 41.4 17.9 C 42.8 17.9 43.1 17.5 43.1 16.7 L 43.1 15.2 C 43.1 14.1 42.4 13.9 41.4 13.9 Z " transform="scale(1,-1)" stroke-dasharray="21.0196627920266" stroke-dashoffset="21.0196627920266"><animate attributeName="stroke-dashoffset" from="21.0196627920266" to="0" dur="0.630589883760798s" begin="anim5.end" fill="freeze" id="anim6" /></path><path d="M 29.0 0.6 L 22.7 0.6 C 20.8 0.6 20.2 1.1 20.2 2.7 L 20.2 6.1 C 20.2 7.2 19.3 7.7 18.4 7.7 C 17.6 7.7 16.7 7.2 16.7 6.1 L 16.7 2.1 C 16.7 -1.0 18.2 -2.6 22.0 -2.6 L 39.8 -2.6 C 43.6 -2.6 45.0 -1.0 45.0 2.1 L 45.0 6.1 C 45.0 7.2 44.1 7.7 43.2 7.7 C 42.4 7.7 41.5 7.2 41.5 6.1 L 41.5 2.7 C 41.5 1.1 40.9 0.6 39.0 0.6 L 32.6 0.6 L 32.6 8.4 C 32.6 9.5 31.7 10.0 30.8 10.0 C 29.9 10.0 29.0 9.5 29.0 8.4 Z " transform="scale(1,-1)" stroke-dasharray="100.93209976256601" stroke-dashoffset="100.93209976256601"><animate attributeName="stroke-dashoffset" from="100.93209976256601" to="0" dur="3.0279629928769802s" begin="anim6.end" fill="freeze" id="anim7" /></path><path d="M 5.5 30.2 C 5.1 30.7 4.5 30.9 4.1 30.9 C 3.2 30.9 2.5 30.2 2.5 29.3 C 2.5 28.9 2.7 28.5 3.1 28.1 C 3.8 27.2 4.8 26.0 5.6 24.9 C 6.1 24.2 6.6 24.0 7.1 24.0 C 8.1 24.0 8.8 24.7 8.8 25.7 C 8.8 26.1 8.8 26.6 8.4 27.0 C 7.6 28.1 6.5 29.4 5.5 30.2 Z" transform="scale(1,-1)" stroke-dasharray="19.828076473360646" stroke-dashoffset="19.828076473360646"><animate attributeName="stroke-dashoffset" from="19.828076473360646" to="0" dur="0.5948422942008194s" begin="anim7.end" fill="freeze" id="anim_end" /></path></g></svg>