<?xml version='1.0' encoding='utf-8'?>
<svg viewBox="0 -44.0 50.0 50.0" version="1.1" xmlns="http://www.w3.org/2000/svg"><rect x="-1000" y="-1000" width="2000" height="2000" stroke="white" fill="white" /><g style="fill:none;stroke:#000000;stroke-width:1"><path d="M 35.6 -3.1 C 39.2 -3.1 40.7 -2.1 40.7 0.6 L 40.7 4.2 C 40.7 7.0 39.2 8.1 35.6 8.1 L 19.4 8.1 C 18.4 8.1 17.4 8.0 16.5 7.7 C 18.2 9.3 19.8 11.1 21.1 13.0 L 45.6 13.0 C 46.6 13.0 47.1 13.8 47.1 14.5 C 47.1 15.2 46.6 16.0 45.6 16.0 L 4.5 16.0 C 3.6 16.0 3.1 15.2 3.1 14.5 C 3.1 13.8 3.6 13.0 4.5 13.0 L 17.0 13.0 C 13.7 8.7 8.8 5.0 3.8 2.7 C 3.0 2.4 2.7 1.7 2.7 1.1 C 2.7 0.4 3.2 -0.4 4.2 -0.4 C 4.5 -0.4 4.8 -0.4 5.1 -0.2 C 8.2 1.2 11.5 3.3 14.5 5.9 C 14.4 5.4 14.2 4.8 14.2 4.2 L 14.2 0.6 C 14.4 -2.6 16.6 -3.1 19.4 -3.1 Z " transform="scale(1,-1)" stroke-dasharray="194.22363648649582" stroke-dashoffset="194.22363648649582"><animate attributeName="stroke-dashoffset" from="194.22363648649582" to="0" dur="5.826709094594874s" begin="0s; 15s; 30s; 45s; 60s" fill="freeze" id="anim0" /></path><path d="M 19.5 -0.4 C 18.2 -0.4 17.7 -0.1 17.7 1.0 L 17.7 3.9 C 17.7 5.1 18.2 5.3 19.5 5.3 L 35.5 5.3 C 36.8 5.3 37.2 5.1 37.2 3.9 L 37.2 1.0 C 37.2 -0.2 36.5 -0.4 35.5 -0.4 Z " transform="scale(1,-1)" stroke-dasharray="48.374066530877876" stroke-dashoffset="48.374066530877876"><animate attributeName="stroke-dashoffset" from="48.374066530877876" to="0" dur="1.4512219959263362s" begin="anim0.end" fill="freeze" id="anim1" /></path><path d="M 40.0 19.4 C 43.5 19.4 44.9 20.6 44.9 23.8 L 44.9 33.0 C 44.9 36.1 43.5 37.4 40.0 37.4 L 35.9 37.4 C 36.1 38.1 36.4 38.9 36.6 39.6 C 36.8 39.9 36.8 40.1 36.8 40.2 C 36.8 41.2 36.0 41.9 35.1 41.9 C 34.3 41.9 33.5 41.4 33.2 40.3 C 33.0 39.4 32.6 38.4 32.2 37.4 L 30.0 37.4 C 26.5 37.4 25.1 36.1 25.1 33.0 L 25.1 23.8 C 25.2 20.3 26.7 19.4 30.0 19.4 Z " transform="scale(1,-1)" stroke-dasharray="76.72692622327772" stroke-dashoffset="76.72692622327772"><animate attributeName="stroke-dashoffset" from="76.72692622327772" to="0" dur="2.3018077866983315s" begin="anim1.end" fill="freeze" id="anim2" /></path><path d="M 30.9 22.3 C 29.0 22.3 28.6 22.8 28.6 24.3 L 28.6 27.0 L 41.4 27.0 L 41.4 24.3 C 41.4 22.6 40.7 22.4 39.1 22.3 Z " transform="scale(1,-1)" stroke-dasharray="33.599506187812345" stroke-dashoffset="33.599506187812345"><animate attributeName="stroke-dashoffset" from="33.599506187812345" to="0" dur="1.0079851856343702s" begin="anim2.end" fill="freeze" id="anim3" /></path><path d="M 41.4 30.0 L 28.6 30.0 L 28.6 32.4 C 28.6 34.0 29.0 34.4 30.9 34.4 L 39.1 34.4 C 41.0 34.4 41.4 34.0 41.4 32.4 Z " transform="scale(1,-1)" stroke-dasharray="33.10274421152765" stroke-dashoffset="33.10274421152765"><animate attributeName="stroke-dashoffset" from="33.10274421152765" to="0" dur="0.9930823263458295s" begin="anim3.end" fill="freeze" id="anim4" /></path><path d="M 11.7 36.2 L 11.7 31.4 L 6.6 31.4 C 5.7 31.4 5.2 30.7 5.2 30.0 C 5.2 29.2 5.7 28.5 6.6 28.5 L 11.7 28.5 L 11.7 22.7 C 9.4 22.2 7.2 21.9 5.1 21.7 C 4.0 21.5 3.4 20.8 3.4 20.0 C 3.4 19.1 4.2 18.2 5.5 18.4 C 10.4 19.0 16.7 20.4 21.2 21.8 C 22.1 22.1 22.5 22.7 22.5 23.2 C 22.5 24.0 21.9 24.8 20.9 24.8 C 20.7 24.8 20.5 24.7 20.3 24.7 C 18.6 24.2 16.9 23.8 15.1 23.4 L 15.1 28.5 L 20.2 28.5 C 21.1 28.5 21.6 29.2 21.6 30.0 C 21.6 30.7 21.1 31.4 20.2 31.4 L 15.1 31.4 L 15.1 36.2 L 21.2 36.2 C 22.2 36.2 22.7 37.0 22.7 37.8 C 22.7 38.5 22.2 39.2 21.2 39.2 L 5.3 39.2 C 4.4 39.2 3.9 38.5 3.9 37.8 C 3.9 37.0 4.4 36.2 5.3 36.2 Z" transform="scale(1,-1)" stroke-dasharray="126.60168637923053" stroke-dashoffset="126.60168637923053"><animate attributeName="stroke-dashoffset" from="126.60168637923053" to="0" dur="3.798050591376916s" begin="anim4.end" fill="freeze" id="anim_end" /></path></g></svg>