<?xml version='1.0' encoding='utf-8'?>
<svg viewBox="0 -44.0 50.0 50.0" version="1.1" xmlns="http://www.w3.org/2000/svg"><rect x="-1000" y="-1000" width="2000" height="2000" stroke="white" fill="white" /><g style="fill:none;stroke:#000000;stroke-width:1"><path d="M 11.4 30.7 C 13.6 33.4 15.5 36.3 16.9 39.2 C 17.1 39.5 17.2 39.8 17.2 40.0 C 17.2 40.9 16.4 41.5 15.6 41.5 C 15.0 41.5 14.4 41.2 14.1 40.5 C 12.9 38.1 11.4 35.8 9.7 33.5 C 8.7 35.0 7.5 36.4 6.2 37.9 C 5.8 38.4 5.3 38.5 4.9 38.5 C 4.0 38.5 3.4 37.9 3.4 37.1 C 3.4 36.8 3.5 36.4 3.8 36.0 C 5.2 34.3 6.6 32.6 7.6 30.9 C 6.2 29.2 4.7 27.8 3.2 26.6 C 2.6 26.1 2.4 25.5 2.4 25.0 C 2.4 24.2 3.0 23.6 3.8 23.6 C 4.1 23.6 4.5 23.8 4.9 24.1 C 6.3 25.2 7.7 26.6 9.1 28.1 C 10.0 26.4 10.6 24.6 11.1 22.8 C 8.8 17.9 5.7 13.7 3.0 11.2 C 2.4 10.7 2.2 10.2 2.2 9.7 C 2.2 8.9 2.9 8.2 3.7 8.2 C 4.0 8.2 4.5 8.4 5.0 8.8 C 7.6 11.2 10.1 14.4 12.0 17.9 C 12.2 16.1 12.3 14.1 12.3 11.9 C 12.3 2.2 10.6 0.2 8.2 0.2 C 7.6 0.2 6.7 0.4 6.0 0.6 C 5.8 0.6 5.7 0.7 5.5 0.7 C 4.5 0.7 4.0 -0.2 4.0 -1.0 C 4.0 -1.7 4.4 -2.5 5.3 -2.8 C 6.2 -3.0 7.2 -3.2 8.3 -3.2 C 12.8 -3.2 15.7 0.2 15.7 11.6 C 15.7 19.5 14.4 25.4 11.4 30.7 Z " transform="scale(1,-1)" stroke-dasharray="163.465998738399" stroke-dashoffset="163.465998738399"><animate attributeName="stroke-dashoffset" from="163.465998738399" to="0" dur="4.90397996215197s" begin="0s; 15s; 30s; 45s; 60s" fill="freeze" id="anim0" /></path><path d="M 37.9 21.9 C 41.9 21.9 43.2 23.7 43.2 26.5 L 43.2 34.8 C 43.2 37.5 41.9 39.4 37.9 39.4 L 26.9 39.4 C 22.9 39.4 21.6 37.5 21.6 34.8 L 21.6 26.5 C 21.7 23.0 23.7 21.9 26.9 21.9 Z " transform="scale(1,-1)" stroke-dasharray="70.85366190657058" stroke-dashoffset="70.85366190657058"><animate attributeName="stroke-dashoffset" from="70.85366190657058" to="0" dur="2.125609857197117s" begin="anim0.end" fill="freeze" id="anim1" /></path><path d="M 27.6 24.8 C 25.6 24.8 25.1 25.5 25.1 26.9 L 25.1 29.2 L 39.7 29.2 L 39.7 26.9 C 39.7 25.2 38.8 24.8 37.2 24.8 Z " transform="scale(1,-1)" stroke-dasharray="36.422063914248966" stroke-dashoffset="36.422063914248966"><animate attributeName="stroke-dashoffset" from="36.422063914248966" to="0" dur="1.092661917427469s" begin="anim1.end" fill="freeze" id="anim2" /></path><path d="M 39.7 32.1 L 25.1 32.1 L 25.1 34.4 C 25.1 35.8 25.6 36.5 27.6 36.5 L 37.2 36.5 C 39.2 36.5 39.7 35.8 39.7 34.4 Z " transform="scale(1,-1)" stroke-dasharray="36.43187148068181" stroke-dashoffset="36.43187148068181"><animate attributeName="stroke-dashoffset" from="36.43187148068181" to="0" dur="1.092956144420454s" begin="anim2.end" fill="freeze" id="anim3" /></path><path d="M 40.0 -1.8 C 44.2 -1.8 45.8 -0.1 45.8 3.2 L 45.8 13.0 C 45.8 16.2 44.2 17.9 40.0 17.9 L 25.0 17.9 C 20.8 17.9 19.2 16.2 19.2 13.0 L 19.2 3.2 C 19.3 -0.7 21.5 -1.7 25.0 -1.8 Z " transform="scale(1,-1)" stroke-dasharray="84.73161828626537" stroke-dashoffset="84.73161828626537"><animate attributeName="stroke-dashoffset" from="84.73161828626537" to="0" dur="2.541948548587961s" begin="anim3.end" fill="freeze" id="anim4" /></path><path d="M 26.1 1.2 C 23.5 1.2 22.8 2.0 22.8 3.6 L 22.8 6.9 L 42.2 6.9 L 42.2 3.6 C 42.2 1.5 40.8 1.3 38.9 1.2 Z " transform="scale(1,-1)" stroke-dasharray="48.24103138427165" stroke-dashoffset="48.24103138427165"><animate attributeName="stroke-dashoffset" from="48.24103138427165" to="0" dur="1.4472309415281495s" begin="anim4.end" fill="freeze" id="anim5" /></path><path d="M 42.2 9.8 L 22.8 9.8 L 22.8 12.5 C 22.8 14.1 23.5 14.9 26.1 14.9 L 38.9 14.9 C 41.5 14.9 42.2 14.1 42.2 12.5 Z" transform="scale(1,-1)" stroke-dasharray="47.067435868667644" stroke-dashoffset="47.067435868667644"><animate attributeName="stroke-dashoffset" from="47.067435868667644" to="0" dur="1.4120230760600292s" begin="anim5.end" fill="freeze" id="anim_end" /></path></g></svg>