<?xml version='1.0' encoding='utf-8'?>
<svg viewBox="0 -44.0 50.0 50.0" version="1.1" xmlns="http://www.w3.org/2000/svg"><rect x="-1000" y="-1000" width="2000" height="2000" stroke="white" fill="white" /><g style="fill:none;stroke:#000000;stroke-width:1"><path d="M 26.2 22.4 C 28.4 22.4 29.6 23.5 29.6 25.6 L 29.6 28.1 C 29.6 30.2 28.4 31.3 26.2 31.3 L 21.3 31.3 C 19.1 31.3 17.9 30.2 17.9 28.1 L 17.9 25.6 C 17.9 23.5 19.2 22.4 21.3 22.4 Z " transform="scale(1,-1)" stroke-dasharray="36.11389291466815" stroke-dashoffset="36.11389291466815"><animate attributeName="stroke-dashoffset" from="36.11389291466815" to="0" dur="1.0834167874400444s" begin="0s; 15s; 30s; 45s; 60s" fill="freeze" id="anim0" /></path><path d="M 22.1 25.0 C 21.4 25.0 20.9 25.3 20.9 26.1 L 20.9 27.6 C 20.9 28.4 21.4 28.7 22.1 28.7 L 25.4 28.7 C 26.2 28.7 26.6 28.4 26.6 27.6 L 26.6 26.1 C 26.6 25.4 26.2 25.0 25.4 25.0 Z " transform="scale(1,-1)" stroke-dasharray="17.068099807631516" stroke-dashoffset="17.068099807631516"><animate attributeName="stroke-dashoffset" from="17.068099807631516" to="0" dur="0.5120429942289455s" begin="anim0.end" fill="freeze" id="anim1" /></path><path d="M 23.6 -1.4 L 45.5 -1.4 C 46.5 -1.4 47.0 -0.7 47.0 0.0 C 47.0 0.7 46.5 1.4 45.5 1.4 L 34.1 1.4 L 34.1 4.4 L 42.0 4.4 C 42.9 4.4 43.4 5.0 43.4 5.7 C 43.4 6.3 42.9 7.0 42.0 7.0 L 34.1 7.0 L 34.1 9.7 L 42.0 9.7 C 42.9 9.7 43.4 10.4 43.4 11.0 C 43.4 11.7 42.9 12.3 42.0 12.3 L 34.1 12.3 L 34.1 15.2 L 44.4 15.2 C 45.4 15.2 45.9 16.0 45.9 16.7 C 45.9 17.4 45.4 18.1 44.4 18.1 L 34.4 18.1 C 34.6 18.7 34.9 19.2 35.1 19.9 C 35.2 20.2 35.3 20.4 35.3 20.6 C 35.3 21.4 34.5 21.9 33.6 21.9 C 33.0 21.9 32.2 21.5 32.0 20.8 C 31.7 19.9 31.4 19.0 30.9 18.1 L 24.9 18.1 C 24.7 18.1 24.5 18.1 24.2 18.1 C 24.6 18.6 24.9 19.1 25.1 19.5 C 25.3 19.9 25.4 20.2 25.4 20.5 C 25.4 21.3 24.6 21.9 23.8 21.9 C 23.2 21.9 22.7 21.6 22.3 21.0 C 20.5 17.6 17.8 13.8 14.9 11.1 C 14.4 10.6 14.2 10.1 14.2 9.7 C 14.2 8.8 14.8 8.2 15.6 8.2 C 16.1 8.2 16.6 8.5 17.1 8.9 C 18.1 10.0 19.2 11.2 20.2 12.4 L 20.2 -2.7 C 20.2 -3.7 21.1 -4.2 21.9 -4.2 C 22.8 -4.2 23.6 -3.7 23.6 -2.7 Z " transform="scale(1,-1)" stroke-dasharray="179.39626045199472" stroke-dashoffset="179.39626045199472"><animate attributeName="stroke-dashoffset" from="179.39626045199472" to="0" dur="5.381887813559842s" begin="anim1.end" fill="freeze" id="anim2" /></path><path d="M 23.6 12.3 L 23.6 14.0 C 23.6 14.8 23.9 15.2 25.3 15.2 L 30.8 15.2 L 30.8 12.3 Z " transform="scale(1,-1)" stroke-dasharray="19.72405196542139" stroke-dashoffset="19.72405196542139"><animate attributeName="stroke-dashoffset" from="19.72405196542139" to="0" dur="0.5917215589626417s" begin="anim2.end" fill="freeze" id="anim3" /></path><path d="M 23.6 9.7 L 30.8 9.7 L 30.8 7.0 L 23.6 7.0 Z " transform="scale(1,-1)" stroke-dasharray="19.799999999999997" stroke-dashoffset="19.799999999999997"><animate attributeName="stroke-dashoffset" from="19.799999999999997" to="0" dur="0.5939999999999999s" begin="anim3.end" fill="freeze" id="anim4" /></path><path d="M 23.6 4.4 L 30.8 4.4 L 30.8 1.4 L 23.6 1.4 Z " transform="scale(1,-1)" stroke-dasharray="20.4" stroke-dashoffset="20.4"><animate attributeName="stroke-dashoffset" from="20.4" to="0" dur="0.612s" begin="anim4.end" fill="freeze" id="anim5" /></path><path d="M 41.5 22.4 C 43.6 22.4 44.8 23.5 44.8 25.6 L 44.8 28.1 C 44.8 30.2 43.6 31.3 41.5 31.3 L 36.4 31.3 C 34.2 31.3 33.0 30.2 33.0 28.1 L 33.0 25.6 C 33.1 23.5 34.2 22.4 36.4 22.4 Z " transform="scale(1,-1)" stroke-dasharray="36.32534643535492" stroke-dashoffset="36.32534643535492"><animate attributeName="stroke-dashoffset" from="36.32534643535492" to="0" dur="1.0897603930606476s" begin="anim5.end" fill="freeze" id="anim6" /></path><path d="M 37.1 25.0 C 36.4 25.0 36.0 25.3 36.0 26.1 L 36.0 27.6 C 36.0 28.4 36.4 28.7 37.1 28.7 L 40.7 28.7 C 41.4 28.7 41.8 28.4 41.8 27.6 L 41.8 26.1 C 41.8 25.4 41.4 25.0 40.7 25.0 Z " transform="scale(1,-1)" stroke-dasharray="17.351728016221294" stroke-dashoffset="17.351728016221294"><animate attributeName="stroke-dashoffset" from="17.351728016221294" to="0" dur="0.5205518404866388s" begin="anim6.end" fill="freeze" id="anim7" /></path><path d="M 27.8 35.4 L 34.1 35.4 L 34.1 33.5 C 34.1 32.6 35.0 32.1 35.8 32.1 C 36.6 32.1 37.4 32.6 37.4 33.5 L 37.4 35.4 L 45.5 35.4 C 46.5 35.4 47.0 36.1 47.0 36.8 C 47.0 37.5 46.5 38.1 45.5 38.1 L 37.4 38.1 L 37.4 40.4 C 37.4 41.4 36.6 41.9 35.8 41.9 C 35.0 41.9 34.1 41.4 34.1 40.4 L 34.1 38.1 L 27.8 38.1 L 27.8 40.4 C 27.8 41.4 27.0 41.9 26.2 41.9 C 25.4 41.9 24.6 41.4 24.6 40.4 L 24.6 38.1 L 17.1 38.1 C 16.2 38.1 15.7 37.5 15.7 36.8 C 15.7 36.1 16.2 35.4 17.1 35.4 L 24.6 35.4 L 24.6 33.4 C 24.6 32.4 25.4 32.0 26.2 32.0 C 27.0 32.0 27.8 32.4 27.8 33.4 Z " transform="scale(1,-1)" stroke-dasharray="89.21482664852381" stroke-dashoffset="89.21482664852381"><animate attributeName="stroke-dashoffset" from="89.21482664852381" to="0" dur="2.676444799455714s" begin="anim7.end" fill="freeze" id="anim8" /></path><path d="M 8.7 40.3 C 8.3 40.6 8.0 40.7 7.6 40.7 C 6.7 40.7 5.8 39.9 5.8 39.0 C 5.8 38.5 6.1 38.0 6.7 37.5 C 7.7 36.6 9.2 35.2 10.3 33.8 C 10.8 33.2 11.3 33.0 11.9 33.0 C 12.8 33.0 13.6 33.8 13.6 34.9 C 13.6 35.4 13.5 35.9 13.0 36.4 C 12.0 37.6 10.1 39.4 8.7 40.3 Z " transform="scale(1,-1)" stroke-dasharray="23.06624830976176" stroke-dashoffset="23.06624830976176"><animate attributeName="stroke-dashoffset" from="23.06624830976176" to="0" dur="0.6919874492928528s" begin="anim8.end" fill="freeze" id="anim9" /></path><path d="M 9.6 13.2 C 8.3 8.9 6.1 3.8 3.9 0.5 C 3.6 0.1 3.5 -0.4 3.5 -0.8 C 3.5 -1.8 4.2 -2.5 5.2 -2.5 C 5.8 -2.5 6.5 -2.1 7.0 -1.4 C 9.2 2.2 11.7 7.8 13.0 12.2 C 13.1 12.5 13.2 12.7 13.2 13.0 C 13.2 14.1 12.3 14.7 11.4 14.7 C 10.7 14.7 9.9 14.2 9.6 13.2 Z " transform="scale(1,-1)" stroke-dasharray="41.235911069807585" stroke-dashoffset="41.235911069807585"><animate attributeName="stroke-dashoffset" from="41.235911069807585" to="0" dur="1.2370773320942274s" begin="anim9.end" fill="freeze" id="anim10" /></path><path d="M 5.2 28.3 C 4.8 28.6 4.4 28.7 4.0 28.7 C 3.1 28.7 2.2 27.9 2.2 27.0 C 2.2 26.5 2.5 25.9 3.2 25.5 C 4.2 24.8 6.1 23.2 7.5 21.8 C 8.0 21.3 8.5 21.1 9.0 21.1 C 9.9 21.1 10.7 22.0 10.7 22.9 C 10.7 23.4 10.5 24.0 10.0 24.5 C 8.7 25.8 6.6 27.5 5.2 28.3 Z" transform="scale(1,-1)" stroke-dasharray="23.926294583190526" stroke-dashoffset="23.926294583190526"><animate attributeName="stroke-dashoffset" from="23.926294583190526" to="0" dur="0.7177888374957158s" begin="anim10.end" fill="freeze" id="anim_end" /></path></g></svg>