<?xml version='1.0' encoding='utf-8'?>
<svg viewBox="0 -44.0 50.0 50.0" version="1.1" xmlns="http://www.w3.org/2000/svg"><rect x="-1000" y="-1000" width="2000" height="2000" stroke="white" fill="white" /><g style="fill:none;stroke:#000000;stroke-width:1"><path d="M 10.2 20.2 L 3.2 20.2 C 2.2 20.2 1.8 19.5 1.8 18.8 C 1.8 18.0 2.2 17.2 3.2 17.2 L 9.4 17.2 C 7.4 12.2 4.5 7.2 1.9 4.2 C 1.6 3.9 1.4 3.5 1.4 3.1 C 1.4 2.2 2.1 1.6 2.9 1.6 C 3.3 1.6 3.8 1.8 4.2 2.3 C 6.8 5.2 8.9 8.7 10.5 12.2 L 10.2 4.5 L 10.2 -2.8 C 10.2 -3.8 11.1 -4.3 11.9 -4.3 C 12.7 -4.3 13.5 -3.8 13.5 -2.8 L 13.5 10.0 C 14.9 9.1 16.2 8.0 17.6 6.7 C 18.0 6.3 18.4 6.2 18.8 6.2 C 19.6 6.2 20.2 7.0 20.2 7.9 C 20.2 8.3 20.1 9.0 19.5 9.5 C 17.7 10.9 15.9 12.0 13.5 13.2 L 13.5 17.2 L 19.6 17.2 C 20.6 17.2 21.0 18.0 21.0 18.8 C 21.0 19.5 20.6 20.2 19.6 20.2 L 13.5 20.2 L 13.5 24.7 L 18.1 24.7 C 19.1 24.7 19.5 25.5 19.5 26.2 C 19.5 27.0 19.1 27.7 18.1 27.7 L 13.5 27.7 L 13.5 32.0 L 19.1 32.0 C 20.1 32.0 20.5 32.7 20.5 33.5 C 20.5 34.2 20.1 35.0 19.1 35.0 L 13.5 35.0 L 13.5 40.5 C 13.5 41.6 12.7 42.1 11.9 42.1 C 11.1 42.1 10.2 41.6 10.2 40.5 L 10.2 35.0 L 3.9 35.0 C 3.0 35.0 2.5 34.2 2.5 33.5 C 2.5 32.7 3.0 32.0 3.9 32.0 L 10.2 32.0 L 10.2 27.7 L 5.2 27.7 C 4.2 27.7 3.8 27.0 3.8 26.2 C 3.8 25.5 4.2 24.7 5.2 24.7 L 10.2 24.7 Z " transform="scale(1,-1)" stroke-dasharray="216.60578971728077" stroke-dashoffset="216.60578971728077"><animate attributeName="stroke-dashoffset" from="216.60578971728077" to="0" dur="6.4981736915184225s" begin="0s; 15s; 30s; 45s; 60s" fill="freeze" id="anim0" /></path><path d="M 28.1 30.7 L 23.4 30.7 C 22.4 30.7 21.9 29.9 21.9 29.1 C 21.9 28.4 22.4 27.6 23.4 27.6 L 28.1 27.6 L 28.1 25.5 C 28.1 22.2 28.0 19.3 27.7 16.8 L 22.5 16.8 C 21.5 16.8 21.0 16.0 21.0 15.2 C 21.0 14.5 21.5 13.7 22.5 13.7 L 27.2 13.7 C 25.9 7.1 23.1 3.1 18.7 -0.5 C 18.0 -1.0 17.8 -1.6 17.8 -2.1 C 17.8 -3.0 18.5 -3.7 19.5 -3.7 C 19.9 -3.7 20.4 -3.5 20.9 -3.1 C 26.0 1.0 29.2 5.9 30.7 13.7 L 37.7 13.7 L 37.7 -2.1 C 37.7 -3.2 38.6 -3.7 39.5 -3.7 C 40.4 -3.7 41.2 -3.2 41.2 -2.1 L 41.2 13.7 L 46.8 13.7 C 47.8 13.7 48.2 14.5 48.2 15.2 C 48.2 16.0 47.8 16.8 46.8 16.8 L 41.2 16.8 L 41.2 27.6 L 46.2 27.6 C 47.2 27.6 47.7 28.4 47.7 29.1 C 47.7 29.9 47.2 30.7 46.2 30.7 L 41.2 30.7 L 41.2 40.2 C 41.2 41.2 40.4 41.8 39.5 41.8 C 38.6 41.8 37.7 41.2 37.7 40.2 L 37.7 30.7 L 31.6 30.7 L 31.6 40.1 C 31.6 41.2 30.8 41.7 29.9 41.7 C 29.0 41.7 28.1 41.2 28.1 40.1 Z " transform="scale(1,-1)" stroke-dasharray="222.69519952755925" stroke-dashoffset="222.69519952755925"><animate attributeName="stroke-dashoffset" from="222.69519952755925" to="0" dur="6.680855985826778s" begin="anim0.end" fill="freeze" id="anim1" /></path><path d="M 31.2 16.8 C 31.5 19.6 31.6 22.4 31.6 25.2 L 31.6 27.6 L 37.7 27.6 L 37.7 16.8 Z" transform="scale(1,-1)" stroke-dasharray="34.21354918551223" stroke-dashoffset="34.21354918551223"><animate attributeName="stroke-dashoffset" from="34.21354918551223" to="0" dur="1.0264064755653668s" begin="anim1.end" fill="freeze" id="anim_end" /></path></g></svg>