<?xml version='1.0' encoding='utf-8'?>
<svg viewBox="0 -44.0 50.0 50.0" version="1.1" xmlns="http://www.w3.org/2000/svg"><rect x="-1000" y="-1000" width="2000" height="2000" stroke="white" fill="white" /><g style="fill:none;stroke:#000000;stroke-width:1"><path d="M 12.6 13.9 C 12.6 16.6 11.4 17.9 8.1 17.9 L 4.0 17.9 C 3.0 17.9 2.5 17.2 2.5 16.4 C 2.5 15.6 3.0 14.8 4.0 14.8 L 7.2 14.8 C 8.8 14.8 9.1 14.5 9.1 13.4 L 9.1 5.8 C 7.2 3.5 4.9 1.7 2.8 0.2 C 2.0 -0.2 1.7 -0.9 1.7 -1.5 C 1.7 -2.4 2.4 -3.2 3.3 -3.2 C 3.7 -3.2 4.2 -3.1 4.5 -2.8 C 7.1 -1.0 9.3 1.1 11.1 3.4 C 14.7 -0.9 20.2 -2.4 32.5 -2.4 C 38.1 -2.4 42.3 -2.3 46.5 -1.9 C 47.7 -1.8 48.2 -1.0 48.2 -0.1 C 48.2 0.8 47.5 1.8 46.2 1.7 C 42.0 1.3 37.9 1.2 32.3 1.2 C 19.9 1.2 15.5 2.6 12.6 6.1 Z " transform="scale(1,-1)" stroke-dasharray="138.49320518678928" stroke-dashoffset="138.49320518678928"><animate attributeName="stroke-dashoffset" from="138.49320518678928" to="0" dur="4.1547961556036785s" begin="0s; 15s; 30s; 45s; 60s" fill="freeze" id="anim0" /></path><path d="M 34.0 31.6 L 34.0 9.3 C 34.0 7.8 33.4 7.4 32.4 7.4 C 31.5 7.4 30.9 7.5 29.9 7.6 C 28.6 7.8 27.9 7.0 27.9 6.0 C 27.9 5.2 28.4 4.5 29.5 4.2 C 30.6 4.0 31.5 4.0 32.4 4.0 C 35.9 4.0 37.5 5.5 37.5 8.8 L 37.5 31.6 L 45.9 31.6 C 46.9 31.6 47.4 32.4 47.4 33.1 C 47.4 34.0 46.9 34.7 45.9 34.7 L 33.2 34.7 L 33.2 40.3 C 33.2 41.4 32.4 41.9 31.5 41.9 C 30.7 41.9 29.8 41.4 29.8 40.3 L 29.8 34.7 L 18.2 34.7 C 17.2 34.7 16.7 34.0 16.7 33.1 C 16.7 32.4 17.2 31.6 18.2 31.6 L 26.0 31.6 L 26.0 27.8 C 26.0 18.2 23.5 12.0 18.6 7.7 C 18.0 7.2 17.8 6.7 17.8 6.2 C 17.8 5.4 18.5 4.7 19.4 4.7 C 19.9 4.7 20.4 4.8 20.8 5.2 C 26.4 10.0 29.5 17.2 29.5 27.5 L 29.5 31.6 Z " transform="scale(1,-1)" stroke-dasharray="198.70380257719114" stroke-dashoffset="198.70380257719114"><animate attributeName="stroke-dashoffset" from="198.70380257719114" to="0" dur="5.961114077315734s" begin="anim0.end" fill="freeze" id="anim1" /></path><path d="M 43.3 25.4 C 42.9 26.1 42.2 26.3 41.7 26.3 C 40.9 26.3 40.1 25.8 40.1 24.9 C 40.1 24.6 40.2 24.2 40.4 23.9 C 41.8 21.8 43.1 19.0 44.0 16.8 C 44.4 15.8 45.1 15.4 45.8 15.4 C 46.6 15.4 47.5 16.2 47.5 17.2 C 47.5 17.6 47.4 17.9 47.2 18.4 C 46.2 20.5 44.8 23.2 43.3 25.4 Z " transform="scale(1,-1)" stroke-dasharray="27.747630112889073" stroke-dashoffset="27.747630112889073"><animate attributeName="stroke-dashoffset" from="27.747630112889073" to="0" dur="0.8324289033866722s" begin="anim1.end" fill="freeze" id="anim2" /></path><path d="M 19.2 25.1 C 18.4 21.7 17.5 19.5 16.1 17.2 C 15.8 16.9 15.7 16.4 15.7 16.1 C 15.7 15.2 16.4 14.6 17.2 14.6 C 17.9 14.6 18.6 15.0 19.2 15.9 C 20.6 18.1 21.7 20.8 22.5 24.2 C 22.8 25.6 21.9 26.4 20.9 26.4 C 20.2 26.4 19.5 26.0 19.2 25.1 Z " transform="scale(1,-1)" stroke-dasharray="29.017886481486535" stroke-dashoffset="29.017886481486535"><animate attributeName="stroke-dashoffset" from="29.017886481486535" to="0" dur="0.870536594444596s" begin="anim2.end" fill="freeze" id="anim3" /></path><path d="M 9.0 40.4 C 8.6 40.6 8.2 40.7 7.9 40.7 C 6.9 40.7 6.2 40.0 6.2 39.2 C 6.2 38.6 6.5 38.1 7.2 37.6 C 8.7 36.6 9.6 35.9 11.2 34.4 C 11.6 33.9 12.1 33.7 12.6 33.7 C 13.5 33.7 14.2 34.5 14.2 35.5 C 14.2 36.0 14.0 36.6 13.5 37.1 C 12.0 38.5 10.7 39.4 9.0 40.4 Z " transform="scale(1,-1)" stroke-dasharray="22.453859320618616" stroke-dashoffset="22.453859320618616"><animate attributeName="stroke-dashoffset" from="22.453859320618616" to="0" dur="0.6736157796185585s" begin="anim3.end" fill="freeze" id="anim4" /></path><path d="M 6.2 30.2 C 5.8 30.4 5.4 30.5 5.1 30.5 C 4.1 30.5 3.4 29.8 3.4 29.0 C 3.4 28.5 3.7 27.9 4.4 27.5 C 5.9 26.5 6.8 25.8 8.4 24.2 C 8.8 23.8 9.3 23.6 9.8 23.6 C 10.7 23.6 11.5 24.4 11.5 25.3 C 11.5 25.8 11.2 26.4 10.7 26.9 C 9.2 28.3 7.8 29.3 6.2 30.2 Z" transform="scale(1,-1)" stroke-dasharray="22.399316149951186" stroke-dashoffset="22.399316149951186"><animate attributeName="stroke-dashoffset" from="22.399316149951186" to="0" dur="0.6719794844985356s" begin="anim4.end" fill="freeze" id="anim_end" /></path></g></svg>