<?xml version='1.0' encoding='utf-8'?>
<svg viewBox="0 -44.0 50.0 50.0" version="1.1" xmlns="http://www.w3.org/2000/svg"><rect x="-1000" y="-1000" width="2000" height="2000" stroke="white" fill="white" /><g style="fill:none;stroke:#000000;stroke-width:1"><path d="M 36.0 24.0 C 36.2 18.3 36.8 13.8 37.4 10.5 C 37.6 9.2 37.9 8.1 38.1 7.0 C 35.1 3.2 31.5 0.7 27.4 -1.2 C 26.6 -1.7 26.2 -2.3 26.2 -2.9 C 26.2 -3.7 26.8 -4.4 27.6 -4.4 C 27.9 -4.4 28.2 -4.3 28.6 -4.1 C 32.5 -2.4 36.1 0.0 39.2 3.4 C 40.7 -1.5 42.4 -3.3 44.4 -3.3 C 46.6 -3.3 48.6 -1.2 48.9 4.5 C 49.0 5.9 48.1 6.5 47.2 6.5 C 46.5 6.5 45.7 6.0 45.6 4.8 C 45.5 1.6 44.9 0.8 44.4 0.8 C 43.8 0.8 42.9 1.9 41.7 6.5 C 43.7 9.3 45.4 12.7 46.9 16.8 C 46.9 16.9 47.0 17.2 47.0 17.4 C 47.0 18.3 46.1 18.9 45.2 18.9 C 44.7 18.9 44.1 18.6 43.9 17.9 C 43.0 15.2 41.9 12.8 40.7 10.8 C 40.7 11.0 40.6 11.3 40.6 11.6 C 40.0 14.6 39.6 18.7 39.2 24.0 L 46.1 24.0 C 47.1 24.0 47.6 24.7 47.6 25.4 C 47.6 26.0 47.1 26.7 46.1 26.7 L 39.1 26.7 C 39.0 30.8 38.9 35.3 38.9 40.4 C 38.9 41.5 38.0 42.0 37.1 42.0 C 36.4 42.0 35.6 41.5 35.6 40.5 C 35.6 35.4 35.6 30.8 35.8 26.7 L 16.4 26.7 C 15.4 26.7 14.9 26.0 14.9 25.4 C 14.9 24.7 15.4 24.0 16.4 24.0 L 21.2 24.0 L 21.2 21.2 L 18.0 21.2 C 17.1 21.2 16.7 20.5 16.7 19.9 C 16.7 19.2 17.1 18.5 18.0 18.5 L 21.2 18.5 L 21.2 15.6 L 18.2 15.6 C 17.4 15.6 16.9 14.9 16.9 14.2 C 16.9 13.6 17.4 12.9 18.2 12.9 L 21.2 12.9 L 21.2 10.1 L 17.8 10.1 C 16.9 10.1 16.4 9.5 16.4 8.8 C 16.4 8.1 16.9 7.5 17.8 7.5 L 21.2 7.5 L 21.2 3.9 C 19.6 3.6 18.1 3.4 16.8 3.2 C 15.8 3.2 15.2 2.4 15.2 1.7 C 15.2 0.9 15.9 0.0 17.0 0.2 C 21.9 0.7 28.8 2.1 33.6 3.7 C 34.4 4.0 34.6 4.5 34.6 5.1 C 34.6 5.8 34.0 6.6 32.9 6.2 C 31.9 6.0 30.8 5.7 29.7 5.5 L 29.7 8.2 L 34.0 8.2 C 34.9 8.2 35.3 8.9 35.3 9.6 C 35.3 10.2 34.9 10.9 34.0 10.9 L 29.7 10.9 L 29.7 13.4 L 33.2 13.4 C 34.1 13.4 34.6 14.1 34.6 14.8 C 34.6 15.4 34.1 16.1 33.2 16.1 L 29.7 16.1 L 29.7 18.5 L 33.5 18.5 C 34.3 18.5 34.8 19.2 34.8 19.9 C 34.8 20.5 34.3 21.2 33.5 21.2 L 29.7 21.2 L 29.7 24.0 Z " transform="scale(1,-1)" stroke-dasharray="332.8075356173619" stroke-dashoffset="332.8075356173619"><animate attributeName="stroke-dashoffset" from="332.8075356173619" to="0" dur="9.984226068520856s" begin="0s; 15s; 30s; 45s; 60s" fill="freeze" id="anim0" /></path><path d="M 24.2 24.0 L 26.6 24.0 L 26.6 4.8 C 25.8 4.7 25.0 4.5 24.2 4.4 Z " transform="scale(1,-1)" stroke-dasharray="43.63350561013347" stroke-dashoffset="43.63350561013347"><animate attributeName="stroke-dashoffset" from="43.63350561013347" to="0" dur="1.309005168304004s" begin="anim0.end" fill="freeze" id="anim1" /></path><path d="M 10.4 -2.3 C 13.5 -2.3 14.5 -1.0 14.5 1.9 L 14.5 8.3 C 14.5 11.2 13.5 12.5 10.5 12.5 L 6.8 12.5 C 3.8 12.5 2.7 11.2 2.7 8.3 L 2.7 1.9 C 2.8 -1.1 3.8 -2.2 6.8 -2.3 Z " transform="scale(1,-1)" stroke-dasharray="47.32673466191791" stroke-dashoffset="47.32673466191791"><animate attributeName="stroke-dashoffset" from="47.32673466191791" to="0" dur="1.4198020398575373s" begin="anim1.end" fill="freeze" id="anim2" /></path><path d="M 7.4 0.6 C 6.4 0.6 5.9 1.2 5.9 2.2 L 5.9 8.0 C 5.9 9.1 6.4 9.6 7.4 9.6 L 9.8 9.6 C 10.8 9.6 11.2 9.1 11.2 8.0 L 11.2 2.2 C 11.2 1.2 10.9 0.6 9.8 0.6 Z " transform="scale(1,-1)" stroke-dasharray="26.35390577723593" stroke-dashoffset="26.35390577723593"><animate attributeName="stroke-dashoffset" from="26.35390577723593" to="0" dur="0.7906171733170778s" begin="anim2.end" fill="freeze" id="anim3" /></path><path d="M 21.4 32.1 C 22.1 31.3 22.7 30.5 23.2 29.7 C 23.5 29.3 23.9 29.2 24.2 29.2 C 25.0 29.2 25.7 29.8 25.7 30.6 C 25.7 30.9 25.6 31.2 25.4 31.6 C 24.7 32.5 23.5 33.6 22.3 34.6 C 22.8 35.9 23.2 37.3 23.5 38.8 C 23.7 39.9 22.9 40.5 22.0 40.5 C 21.3 40.5 20.6 40.1 20.4 39.2 C 19.7 35.8 18.4 32.0 17.0 30.0 C 16.8 29.6 16.6 29.2 16.6 28.9 C 16.6 28.0 17.2 27.5 18.0 27.5 C 18.5 27.5 19.1 27.8 19.5 28.4 C 20.1 29.4 20.8 30.7 21.4 32.1 Z " transform="scale(1,-1)" stroke-dasharray="40.324835256606434" stroke-dashoffset="40.324835256606434"><animate attributeName="stroke-dashoffset" from="40.324835256606434" to="0" dur="1.209745057698193s" begin="anim3.end" fill="freeze" id="anim4" /></path><path d="M 30.4 31.7 C 31.2 30.9 31.8 30.2 32.3 29.4 C 32.6 29.1 32.9 28.9 33.3 28.9 C 34.0 28.9 34.8 29.5 34.8 30.4 C 34.8 30.7 34.6 31.0 34.4 31.4 C 33.7 32.2 32.6 33.5 31.4 34.4 C 31.9 35.6 32.2 37.0 32.5 38.4 C 32.8 39.5 31.9 40.2 31.1 40.2 C 30.4 40.2 29.7 39.8 29.5 38.9 C 28.8 35.5 27.5 32.1 26.1 29.7 C 26.0 29.4 25.9 29.1 25.9 28.9 C 25.9 28.1 26.6 27.4 27.3 27.4 C 27.8 27.4 28.4 27.7 28.7 28.3 C 29.2 29.2 29.9 30.4 30.4 31.7 Z " transform="scale(1,-1)" stroke-dasharray="39.35924497820733" stroke-dashoffset="39.35924497820733"><animate attributeName="stroke-dashoffset" from="39.35924497820733" to="0" dur="1.18077734934622s" begin="anim4.end" fill="freeze" id="anim5" /></path><path d="M 43.6 36.4 C 43.2 36.8 42.8 37.0 42.4 37.0 C 41.6 37.0 40.8 36.4 40.8 35.6 C 40.8 35.2 40.9 35.0 41.2 34.6 C 42.0 33.6 43.0 32.0 43.7 30.4 C 44.0 29.7 44.6 29.4 45.1 29.4 C 46.0 29.4 46.8 30.0 46.8 31.0 C 46.8 31.3 46.7 31.6 46.5 32.0 C 45.9 33.2 44.6 35.4 43.6 36.4 Z " transform="scale(1,-1)" stroke-dasharray="20.50208323952752" stroke-dashoffset="20.50208323952752"><animate attributeName="stroke-dashoffset" from="20.50208323952752" to="0" dur="0.6150624971858255s" begin="anim5.end" fill="freeze" id="anim6" /></path><path d="M 14.7 30.1 C 15.6 30.1 16.1 30.9 16.1 31.7 C 16.1 32.5 15.6 33.2 14.7 33.2 L 2.5 33.2 C 1.6 33.2 1.1 32.5 1.1 31.7 C 1.1 30.9 1.6 30.1 2.5 30.1 Z " transform="scale(1,-1)" stroke-dasharray="33.75113148767564" stroke-dashoffset="33.75113148767564"><animate attributeName="stroke-dashoffset" from="33.75113148767564" to="0" dur="1.0125339446302692s" begin="anim6.end" fill="freeze" id="anim7" /></path><path d="M 12.7 36.9 C 13.6 36.9 14.1 37.6 14.1 38.4 C 14.1 39.2 13.6 40.0 12.7 40.0 L 4.5 40.0 C 3.6 40.0 3.1 39.2 3.1 38.4 C 3.1 37.6 3.6 36.9 4.5 36.9 Z " transform="scale(1,-1)" stroke-dasharray="25.751131487675643" stroke-dashoffset="25.751131487675643"><animate attributeName="stroke-dashoffset" from="25.751131487675643" to="0" dur="0.7725339446302693s" begin="anim7.end" fill="freeze" id="anim8" /></path><path d="M 12.7 23.1 C 13.6 23.1 14.1 23.9 14.1 24.7 C 14.1 25.5 13.6 26.2 12.7 26.2 L 4.5 26.2 C 3.6 26.2 3.1 25.5 3.1 24.7 C 3.1 23.9 3.6 23.1 4.5 23.1 Z " transform="scale(1,-1)" stroke-dasharray="25.75113148767564" stroke-dashoffset="25.75113148767564"><animate attributeName="stroke-dashoffset" from="25.75113148767564" to="0" dur="0.7725339446302691s" begin="anim8.end" fill="freeze" id="anim9" /></path><path d="M 12.7 16.4 C 13.6 16.4 14.1 17.2 14.1 17.9 C 14.1 18.7 13.6 19.5 12.7 19.5 L 4.5 19.5 C 3.6 19.5 3.1 18.7 3.1 17.9 C 3.1 17.2 3.6 16.4 4.5 16.4 Z" transform="scale(1,-1)" stroke-dasharray="25.710890414937356" stroke-dashoffset="25.710890414937356"><animate attributeName="stroke-dashoffset" from="25.710890414937356" to="0" dur="0.7713267124481207s" begin="anim9.end" fill="freeze" id="anim_end" /></path></g></svg>