<?xml version='1.0' encoding='utf-8'?>
<svg viewBox="0 -44.0 50.0 50.0" version="1.1" xmlns="http://www.w3.org/2000/svg"><rect x="-1000" y="-1000" width="2000" height="2000" stroke="white" fill="white" /><g style="fill:none;stroke:#000000;stroke-width:1"><path d="M 37.9 18.1 C 41.6 18.1 42.9 19.5 42.9 22.0 L 42.9 27.7 C 42.9 30.2 41.6 31.6 37.9 31.6 L 26.6 31.6 C 23.0 31.6 21.7 30.2 21.7 27.7 L 21.7 22.0 C 21.7 19.5 23.0 18.1 26.6 18.1 L 26.8 18.1 C 24.4 15.0 21.5 12.2 18.8 10.4 C 18.0 10.0 17.8 9.3 17.8 8.8 C 17.8 8.0 18.4 7.2 19.2 7.2 C 19.6 7.2 20.0 7.4 20.3 7.6 C 20.9 8.0 21.5 8.4 22.0 8.8 C 21.9 8.7 21.9 8.4 21.9 8.1 L 21.9 4.9 C 21.9 2.1 23.0 1.1 26.4 1.1 L 37.5 1.1 C 38.6 1.1 39.1 1.8 39.1 2.5 C 39.1 3.2 38.6 4.0 37.5 4.0 L 26.8 4.0 C 25.4 4.0 25.1 4.3 25.1 5.4 L 25.1 8.1 C 25.1 9.2 24.2 9.7 23.5 9.7 C 23.3 9.7 23.2 9.7 23.0 9.7 C 24.0 10.5 25.0 11.4 25.9 12.4 L 32.6 12.4 C 32.4 12.2 32.1 12.0 32.0 11.7 C 30.9 10.2 29.6 8.7 28.2 7.5 C 27.6 7.0 27.4 6.5 27.4 6.1 C 27.4 5.4 28.0 4.9 28.8 4.9 C 29.2 4.9 29.7 5.0 30.1 5.4 C 30.9 6.0 31.7 6.8 32.5 7.8 C 33.8 7.0 35.2 6.0 36.2 5.2 C 36.6 4.9 36.9 4.8 37.2 4.8 C 38.1 4.8 38.8 5.6 38.8 6.4 C 38.8 6.8 38.6 7.2 38.0 7.7 C 36.9 8.5 35.5 9.2 34.2 9.9 C 34.3 10.0 34.5 10.2 34.6 10.4 C 34.8 10.7 34.9 11.0 34.9 11.2 C 34.9 11.8 34.6 12.2 34.2 12.4 L 39.5 12.4 C 42.0 12.4 42.5 12.0 42.5 10.4 C 42.5 7.8 42.2 4.5 41.4 1.7 C 41.0 0.2 40.1 -0.3 38.8 -0.3 C 38.1 -0.3 37.1 -0.2 36.2 -0.1 C 35.0 0.2 34.2 -0.7 34.2 -1.7 C 34.2 -2.4 34.6 -3.1 35.6 -3.2 C 36.8 -3.5 37.8 -3.6 38.8 -3.6 C 42.1 -3.6 43.9 -2.4 44.8 1.2 C 45.5 4.0 45.9 7.5 46.0 10.4 C 46.0 13.4 44.8 15.2 40.5 15.2 L 28.4 15.2 C 29.1 16.1 29.9 17.1 30.6 18.1 Z " transform="scale(1,-1)" stroke-dasharray="241.7567828694801" stroke-dashoffset="241.7567828694801"><animate attributeName="stroke-dashoffset" from="241.7567828694801" to="0" dur="7.252703486084403s" begin="0s; 15s; 30s; 45s; 60s" fill="freeze" id="anim0" /></path><path d="M 27.2 20.8 C 25.6 20.8 25.0 21.1 25.0 22.4 L 25.0 23.5 L 39.6 23.5 L 39.6 22.4 C 39.5 20.9 38.5 20.8 37.2 20.8 Z " transform="scale(1,-1)" stroke-dasharray="33.31100450829285" stroke-dashoffset="33.31100450829285"><animate attributeName="stroke-dashoffset" from="33.31100450829285" to="0" dur="0.9993301352487853s" begin="anim0.end" fill="freeze" id="anim1" /></path><path d="M 39.6 26.2 L 25.0 26.2 L 25.0 27.2 C 25.0 28.5 25.6 28.8 27.2 28.8 L 37.2 28.8 C 39.0 28.8 39.6 28.5 39.6 27.2 Z " transform="scale(1,-1)" stroke-dasharray="33.173947575652875" stroke-dashoffset="33.173947575652875"><animate attributeName="stroke-dashoffset" from="33.173947575652875" to="0" dur="0.9952184272695862s" begin="anim1.end" fill="freeze" id="anim2" /></path><path d="M 29.2 35.5 L 35.2 35.5 L 35.2 34.1 C 35.2 33.1 36.1 32.6 36.8 32.6 C 37.6 32.6 38.4 33.1 38.4 34.1 L 38.4 35.5 L 45.7 35.5 C 46.6 35.5 47.1 36.1 47.1 36.9 C 47.1 37.6 46.6 38.2 45.7 38.2 L 38.4 38.2 L 38.4 40.2 C 38.4 41.2 37.6 41.6 36.8 41.6 C 36.1 41.6 35.2 41.2 35.2 40.2 L 35.2 38.2 L 29.2 38.2 L 29.2 40.2 C 29.2 41.2 28.4 41.6 27.6 41.6 C 26.9 41.6 26.1 41.2 26.1 40.2 L 26.1 38.2 L 20.0 38.2 C 19.1 38.2 18.6 37.6 18.6 36.9 C 18.6 36.1 19.1 35.5 20.0 35.5 L 26.1 35.5 L 26.1 33.9 C 26.1 32.9 26.9 32.4 27.6 32.4 C 28.4 32.4 29.2 32.9 29.2 33.9 Z " transform="scale(1,-1)" stroke-dasharray="80.76693827433678" stroke-dashoffset="80.76693827433678"><animate attributeName="stroke-dashoffset" from="80.76693827433678" to="0" dur="2.423008148230103s" begin="anim2.end" fill="freeze" id="anim3" /></path><path d="M 13.4 14.2 L 13.4 2.6 C 13.4 1.2 12.9 0.9 11.9 0.9 C 11.3 0.9 10.7 1.0 10.1 1.1 C 8.8 1.3 8.2 0.4 8.2 -0.6 C 8.2 -1.3 8.6 -2.1 9.6 -2.2 C 10.4 -2.4 11.2 -2.5 12.2 -2.5 C 15.0 -2.5 16.6 -1.2 16.6 2.2 L 16.6 35.7 C 16.6 39.0 15.3 40.2 12.0 40.2 L 9.2 40.2 C 5.9 40.2 4.5 39.0 4.5 35.7 L 4.5 23.7 C 4.5 11.4 3.6 4.8 1.7 0.1 C 1.5 -0.2 1.5 -0.6 1.5 -0.9 C 1.5 -2.0 2.1 -2.6 3.0 -2.6 C 3.7 -2.6 4.4 -2.1 4.8 -1.1 C 6.2 2.6 7.2 7.2 7.6 14.2 Z " transform="scale(1,-1)" stroke-dasharray="146.23760314085243" stroke-dashoffset="146.23760314085243"><animate attributeName="stroke-dashoffset" from="146.23760314085243" to="0" dur="4.387128094225573s" begin="anim3.end" fill="freeze" id="anim4" /></path><path d="M 13.4 28.8 L 7.9 28.8 L 7.9 35.2 C 7.9 36.9 8.2 37.2 9.5 37.2 L 11.7 37.2 C 13.1 37.2 13.4 36.9 13.4 35.2 Z " transform="scale(1,-1)" stroke-dasharray="26.74363737281775" stroke-dashoffset="26.74363737281775"><animate attributeName="stroke-dashoffset" from="26.74363737281775" to="0" dur="0.8023091211845325s" begin="anim4.end" fill="freeze" id="anim5" /></path><path d="M 13.4 25.8 L 13.4 17.2 L 7.8 17.2 C 7.9 19.3 7.9 21.4 7.9 23.6 L 7.9 25.8 Z" transform="scale(1,-1)" stroke-dasharray="28.30142490901544" stroke-dashoffset="28.30142490901544"><animate attributeName="stroke-dashoffset" from="28.30142490901544" to="0" dur="0.8490427472704632s" begin="anim5.end" fill="freeze" id="anim_end" /></path></g></svg>