<?xml version='1.0' encoding='utf-8'?>
<svg viewBox="0 -44.0 50.0 50.0" version="1.1" xmlns="http://www.w3.org/2000/svg"><rect x="-1000" y="-1000" width="2000" height="2000" stroke="white" fill="white" /><g style="fill:none;stroke:#000000;stroke-width:1"><path d="M 35.1 27.0 C 33.6 19.2 30.8 12.2 27.9 7.7 C 27.6 7.2 27.5 6.8 27.5 6.5 C 27.5 5.6 28.1 5.1 28.9 5.1 C 29.5 5.1 30.2 5.4 30.7 6.2 C 33.1 10.2 35.4 16.3 36.5 20.7 L 36.2 11.8 L 36.2 -2.4 C 36.2 -3.4 37.1 -3.9 37.9 -3.9 C 38.7 -3.9 39.5 -3.4 39.5 -2.4 L 39.5 11.8 L 39.2 21.0 C 40.8 16.1 43.0 11.0 45.6 6.8 C 46.1 6.0 46.7 5.7 47.2 5.7 C 48.2 5.7 49.0 6.4 49.0 7.4 C 49.0 7.8 48.8 8.2 48.5 8.7 C 45.0 13.8 42.0 20.1 40.0 27.0 L 46.5 27.0 C 47.4 27.0 47.9 27.7 47.9 28.5 C 47.9 29.2 47.4 30.0 46.5 30.0 L 39.5 30.0 L 39.5 39.8 C 39.5 40.8 38.7 41.3 37.9 41.3 C 37.1 41.3 36.2 40.8 36.2 39.8 L 36.2 30.0 L 29.9 30.0 C 28.9 30.0 28.5 29.2 28.5 28.5 C 28.5 27.7 28.9 27.0 29.9 27.0 Z " transform="scale(1,-1)" stroke-dasharray="194.4759488438222" stroke-dashoffset="194.4759488438222"><animate attributeName="stroke-dashoffset" from="194.4759488438222" to="0" dur="5.834278465314666s" begin="0s; 15s; 30s; 45s; 60s" fill="freeze" id="anim0" /></path><path d="M 14.8 13.7 C 11.4 9.8 6.9 6.5 3.1 4.9 C 2.2 4.5 1.9 3.9 1.9 3.2 C 1.9 2.5 2.5 1.8 3.3 1.8 C 3.6 1.8 3.8 1.9 4.1 2.0 C 8.2 3.8 12.2 6.7 15.3 9.9 C 15.3 9.5 15.3 9.2 15.3 8.8 C 15.3 1.6 13.8 0.1 11.7 0.1 C 10.8 0.1 10.1 0.2 9.4 0.5 C 9.2 0.5 9.0 0.6 8.8 0.6 C 7.9 0.6 7.3 -0.2 7.3 -1.1 C 7.3 -1.8 7.7 -2.5 8.7 -2.8 C 9.6 -3.1 10.7 -3.2 11.9 -3.2 C 16.2 -3.2 18.6 -0.1 18.6 8.8 C 18.6 14.1 16.9 19.5 13.2 24.4 C 15.4 26.1 17.5 28.0 19.2 29.9 C 19.5 30.4 19.6 30.8 19.6 31.2 C 19.6 32.1 18.9 32.7 18.1 32.7 C 17.7 32.7 17.2 32.5 16.8 32.0 C 12.9 27.3 7.6 23.7 3.2 21.7 C 2.5 21.2 2.1 20.7 2.1 20.1 C 2.1 19.2 2.7 18.6 3.6 18.6 C 3.8 18.6 4.0 18.7 4.4 18.8 C 6.3 19.7 8.6 21.1 11.0 22.7 C 11.5 21.9 12.0 21.1 12.4 20.2 C 9.9 17.4 6.6 14.9 3.4 13.4 C 2.7 13.0 2.3 12.4 2.3 11.9 C 2.3 11.1 2.9 10.4 3.8 10.4 C 4.0 10.4 4.3 10.5 4.5 10.6 C 8.0 12.2 11.2 14.7 13.7 17.3 C 14.2 16.2 14.5 14.9 14.8 13.7 Z " transform="scale(1,-1)" stroke-dasharray="166.75149407072382" stroke-dashoffset="166.75149407072382"><animate attributeName="stroke-dashoffset" from="166.75149407072382" to="0" dur="5.002544822121714s" begin="anim0.end" fill="freeze" id="anim1" /></path><path d="M 23.1 -2.5 C 23.1 -3.5 24.0 -4.0 24.8 -4.0 C 25.6 -4.0 26.4 -3.5 26.4 -2.5 L 26.4 24.9 C 26.4 25.9 25.7 26.4 24.9 26.4 C 26.7 30.5 28.2 35.1 29.1 39.4 C 29.4 40.7 28.4 41.5 27.4 41.5 C 26.7 41.5 26.0 41.1 25.8 40.2 C 24.3 32.9 21.5 25.5 18.2 20.4 C 17.9 20.0 17.9 19.5 17.9 19.2 C 17.9 18.3 18.5 17.8 19.2 17.8 C 19.9 17.8 20.5 18.1 21.0 18.8 C 21.7 20.0 22.4 21.2 23.1 22.6 Z " transform="scale(1,-1)" stroke-dasharray="110.1587124677404" stroke-dashoffset="110.1587124677404"><animate attributeName="stroke-dashoffset" from="110.1587124677404" to="0" dur="3.304761374032212s" begin="anim1.end" fill="freeze" id="anim2" /></path><path d="M 15.6 41.0 C 12.2 38.9 7.2 37.0 3.3 36.1 C 2.3 36.0 1.9 35.2 1.9 34.5 C 1.9 33.6 2.6 32.6 3.8 32.9 C 7.9 33.8 13.4 35.9 17.2 38.1 C 18.0 38.5 18.3 39.1 18.3 39.7 C 18.3 40.6 17.6 41.4 16.7 41.4 C 16.3 41.4 16.0 41.2 15.6 41.0 Z " transform="scale(1,-1)" stroke-dasharray="38.780161557629455" stroke-dashoffset="38.780161557629455"><animate attributeName="stroke-dashoffset" from="38.780161557629455" to="0" dur="1.1634048467288836s" begin="anim2.end" fill="freeze" id="anim3" /></path><path d="M 6.4 31.0 C 6.0 31.4 5.5 31.6 5.1 31.6 C 4.2 31.6 3.6 31.0 3.6 30.3 C 3.6 30.0 3.7 29.7 4.0 29.3 C 4.5 28.7 5.4 27.2 5.8 26.5 C 6.1 25.8 6.6 25.5 7.1 25.5 C 7.9 25.5 8.7 26.1 8.7 27.0 C 8.7 27.2 8.6 27.5 8.5 27.8 C 8.0 28.8 6.9 30.4 6.4 31.0 Z " transform="scale(1,-1)" stroke-dasharray="16.945766618379345" stroke-dashoffset="16.945766618379345"><animate attributeName="stroke-dashoffset" from="16.945766618379345" to="0" dur="0.5083729985513803s" begin="anim3.end" fill="freeze" id="anim4" /></path><path d="M 11.6 33.6 C 11.2 34.0 10.8 34.1 10.4 34.1 C 9.7 34.1 9.0 33.6 9.0 32.9 C 9.0 32.6 9.1 32.2 9.4 31.9 C 9.9 31.4 10.4 30.6 10.8 29.9 C 11.2 29.2 11.7 29.0 12.2 29.0 C 12.9 29.0 13.5 29.6 13.5 30.4 C 13.5 30.7 13.5 31.0 13.3 31.2 C 13.0 32.0 12.2 33.0 11.6 33.6 Z" transform="scale(1,-1)" stroke-dasharray="14.615281737445105" stroke-dashoffset="14.615281737445105"><animate attributeName="stroke-dashoffset" from="14.615281737445105" to="0" dur="0.43845845212335316s" begin="anim4.end" fill="freeze" id="anim_end" /></path></g></svg>