<?xml version='1.0' encoding='utf-8'?>
<svg viewBox="0 -44.0 50.0 50.0" version="1.1" xmlns="http://www.w3.org/2000/svg"><rect x="-1000" y="-1000" width="2000" height="2000" stroke="white" fill="white" /><g style="fill:none;stroke:#000000;stroke-width:1"><path d="M 33.6 27.5 C 35.2 29.1 36.5 30.8 37.2 31.9 C 37.4 32.1 37.5 32.5 37.5 32.8 C 37.5 33.6 36.8 34.2 36.0 34.2 C 35.5 34.2 35.0 34.0 34.6 33.2 C 34.0 32.1 33.1 30.8 32.1 29.5 C 31.3 29.5 30.6 29.0 30.6 28.1 L 30.6 18.6 C 30.6 17.6 31.4 17.1 32.1 17.1 C 32.9 17.1 33.6 17.6 33.6 18.6 Z " transform="scale(1,-1)" stroke-dasharray="40.69931174689536" stroke-dashoffset="40.69931174689536"><animate attributeName="stroke-dashoffset" from="40.69931174689536" to="0" dur="1.2209793524068608s" begin="0s; 15s; 30s; 45s; 60s" fill="freeze" id="anim0" /></path><path d="M 19.8 28.2 C 19.5 25.2 18.2 22.6 16.4 20.8 C 16.0 20.4 15.9 19.9 15.9 19.5 C 15.9 18.8 16.4 18.2 17.2 18.2 C 17.6 18.2 18.0 18.4 18.4 18.8 C 20.8 21.2 22.2 24.6 22.6 28.2 L 24.0 28.2 C 25.0 28.2 25.2 27.9 25.2 27.1 C 25.2 25.8 25.1 23.7 24.8 22.4 C 24.6 21.6 24.4 21.3 23.7 21.3 C 23.4 21.3 23.0 21.4 22.6 21.5 C 21.6 21.7 20.9 20.9 20.9 20.1 C 20.9 19.6 21.2 18.9 22.1 18.8 C 22.8 18.7 23.2 18.6 23.9 18.6 C 25.9 18.6 27.1 19.5 27.6 21.9 C 27.9 23.4 28.1 25.6 28.1 27.4 C 28.2 29.4 27.2 30.8 24.5 30.8 L 18.4 30.8 C 17.4 30.8 17.0 30.2 17.0 29.5 C 17.0 28.9 17.4 28.2 18.4 28.2 Z " transform="scale(1,-1)" stroke-dasharray="69.42288953470542" stroke-dashoffset="69.42288953470542"><animate attributeName="stroke-dashoffset" from="69.42288953470542" to="0" dur="2.0826866860411624s" begin="anim0.end" fill="freeze" id="anim1" /></path><path d="M 36.6 21.7 L 36.5 21.7 C 35.5 21.4 35.1 20.8 35.1 20.2 C 35.1 19.4 35.9 18.6 37.1 18.9 C 39.6 19.6 41.9 20.4 44.4 21.5 C 45.0 20.4 45.8 19.4 46.6 18.7 C 47.0 18.3 47.4 18.2 47.7 18.2 C 48.5 18.2 49.2 18.9 49.2 19.7 C 49.2 20.1 49.0 20.6 48.6 21.0 C 46.7 22.9 45.1 25.7 44.3 29.0 C 45.1 29.3 45.8 29.6 46.4 29.9 C 47.0 30.2 47.2 30.7 47.2 31.2 C 47.2 31.9 46.6 32.6 45.8 32.6 C 45.5 32.6 45.2 32.6 45.0 32.5 C 43.2 31.4 41.4 30.7 39.2 30.1 C 38.9 30.4 38.5 30.6 38.0 30.6 C 37.3 30.6 36.6 30.1 36.6 29.2 Z " transform="scale(1,-1)" stroke-dasharray="54.89995531063021" stroke-dashoffset="54.89995531063021"><animate attributeName="stroke-dashoffset" from="54.89995531063021" to="0" dur="1.6469986593189063s" begin="anim1.end" fill="freeze" id="anim2" /></path><path d="M 39.4 27.4 C 40.2 27.7 41.1 27.9 41.9 28.2 C 42.1 26.6 42.6 25.1 43.2 23.7 C 42.0 23.2 40.7 22.8 39.4 22.4 Z " transform="scale(1,-1)" stroke-dasharray="16.34297012776587" stroke-dashoffset="16.34297012776587"><animate attributeName="stroke-dashoffset" from="16.34297012776587" to="0" dur="0.4902891038329761s" begin="anim2.end" fill="freeze" id="anim3" /></path><path d="M 33.9 37.6 L 33.9 40.6 C 33.9 41.7 33.0 42.2 32.1 42.2 C 31.3 42.2 30.5 41.7 30.5 40.6 L 30.5 37.6 L 19.3 37.6 C 18.4 37.6 17.9 36.9 17.9 36.1 C 17.9 35.4 18.4 34.6 19.3 34.6 L 46.8 34.6 C 47.7 34.6 48.2 35.4 48.2 36.1 C 48.2 36.9 47.7 37.6 46.8 37.6 Z " transform="scale(1,-1)" stroke-dasharray="72.02134768171808" stroke-dashoffset="72.02134768171808"><animate attributeName="stroke-dashoffset" from="72.02134768171808" to="0" dur="2.1606404304515423s" begin="anim3.end" fill="freeze" id="anim4" /></path><path d="M 40.1 14.4 L 24.8 14.4 L 24.8 16.0 C 24.8 17.0 23.9 17.6 23.1 17.6 C 22.2 17.6 21.4 17.0 21.4 16.0 L 21.4 12.9 C 21.4 5.7 19.5 1.9 16.0 -0.9 C 15.4 -1.4 15.1 -1.9 15.1 -2.4 C 15.1 -3.2 15.8 -4.0 16.8 -4.0 C 17.2 -4.0 17.6 -3.9 18.1 -3.5 C 20.9 -1.4 22.8 1.2 23.8 4.8 L 40.1 4.8 L 40.1 -2.6 C 40.1 -3.6 40.9 -4.0 41.8 -4.0 C 42.6 -4.0 43.5 -3.6 43.5 -2.6 L 43.5 16.0 C 43.5 17.1 42.6 17.6 41.8 17.6 C 40.9 17.6 40.1 17.1 40.1 16.0 Z " transform="scale(1,-1)" stroke-dasharray="110.79986354767206" stroke-dashoffset="110.79986354767206"><animate attributeName="stroke-dashoffset" from="110.79986354767206" to="0" dur="3.3239959064301616s" begin="anim4.end" fill="freeze" id="anim5" /></path><path d="M 40.1 11.6 L 40.1 7.6 L 24.4 7.6 C 24.6 9.0 24.7 10.2 24.7 11.6 Z " transform="scale(1,-1)" stroke-dasharray="39.11488509802623" stroke-dashoffset="39.11488509802623"><animate attributeName="stroke-dashoffset" from="39.11488509802623" to="0" dur="1.1734465529407867s" begin="anim5.end" fill="freeze" id="anim6" /></path><path d="M 12.0 13.9 L 12.0 2.8 C 12.0 1.6 11.6 1.2 10.7 1.2 C 10.2 1.2 9.6 1.3 9.0 1.4 C 7.8 1.6 7.2 0.7 7.2 -0.2 C 7.2 -1.0 7.6 -1.7 8.5 -1.9 C 9.2 -2.0 10.1 -2.1 11.1 -2.1 C 13.7 -2.1 15.2 -0.8 15.2 2.4 L 15.2 35.7 C 15.2 39.0 14.0 40.2 10.8 40.2 L 8.3 40.2 C 5.2 40.2 4.0 39.0 4.0 35.7 L 4.0 23.8 C 4.0 11.8 3.2 5.0 1.4 -0.1 C 1.3 -0.4 1.2 -0.7 1.2 -0.9 C 1.2 -1.9 2.0 -2.5 2.8 -2.5 C 3.5 -2.5 4.2 -2.1 4.5 -1.1 C 5.8 2.3 6.6 6.8 7.0 13.9 Z " transform="scale(1,-1)" stroke-dasharray="142.41138640268454" stroke-dashoffset="142.41138640268454"><animate attributeName="stroke-dashoffset" from="142.41138640268454" to="0" dur="4.2723415920805365s" begin="anim6.end" fill="freeze" id="anim7" /></path><path d="M 12.0 28.4 L 7.2 28.4 L 7.2 35.3 C 7.2 36.8 7.5 37.1 8.8 37.1 L 10.4 37.1 C 11.7 37.1 12.0 36.8 12.0 35.3 Z " transform="scale(1,-1)" stroke-dasharray="25.990819808181335" stroke-dashoffset="25.990819808181335"><animate attributeName="stroke-dashoffset" from="25.990819808181335" to="0" dur="0.77972459424544s" begin="anim7.end" fill="freeze" id="anim8" /></path><path d="M 12.0 25.6 L 12.0 16.7 L 7.1 16.7 C 7.2 19.0 7.2 21.4 7.2 23.8 L 7.2 25.6 Z " transform="scale(1,-1)" stroke-dasharray="27.50128811628972" stroke-dashoffset="27.50128811628972"><animate attributeName="stroke-dashoffset" from="27.50128811628972" to="0" dur="0.8250386434886916s" begin="anim8.end" fill="freeze" id="anim9" /></path><path d="M 26.7 31.7 C 27.5 31.0 27.8 30.7 28.5 29.9 C 28.8 29.5 29.2 29.2 29.7 29.2 C 30.4 29.2 31.1 29.9 31.1 30.7 C 31.1 31.0 30.9 31.5 30.5 31.9 C 30.0 32.5 29.4 33.1 28.6 33.7 C 28.2 34.0 27.9 34.1 27.6 34.1 C 26.8 34.1 26.1 33.5 26.1 32.8 C 26.1 32.5 26.2 32.1 26.7 31.7 Z" transform="scale(1,-1)" stroke-dasharray="14.830262148876953" stroke-dashoffset="14.830262148876953"><animate attributeName="stroke-dashoffset" from="14.830262148876953" to="0" dur="0.4449078644663086s" begin="anim9.end" fill="freeze" id="anim_end" /></path></g></svg>