<?xml version='1.0' encoding='utf-8'?>
<svg viewBox="0 -44.0 50.0 50.0" version="1.1" xmlns="http://www.w3.org/2000/svg"><rect x="-1000" y="-1000" width="2000" height="2000" stroke="white" fill="white" /><g style="fill:none;stroke:#000000;stroke-width:1"><path d="M 32.4 14.7 L 32.4 12.9 C 32.4 12.0 33.1 11.5 34.0 11.5 C 34.8 11.5 35.6 12.0 35.6 12.9 L 35.6 14.6 L 35.4 17.4 C 38.1 15.0 41.4 13.1 44.9 11.8 C 45.2 11.7 45.4 11.6 45.7 11.6 C 46.7 11.6 47.4 12.4 47.4 13.2 C 47.4 13.9 47.0 14.6 45.9 14.9 C 42.9 15.8 39.8 17.4 37.2 19.1 L 45.4 19.1 C 46.4 19.1 46.9 19.8 46.9 20.5 C 46.9 21.2 46.4 21.8 45.4 21.8 L 35.6 21.8 L 35.6 24.1 L 39.5 24.1 C 42.2 24.1 43.3 25.1 43.3 27.2 L 43.3 29.9 C 43.3 32.1 42.2 33.1 39.5 33.1 L 28.9 33.1 C 26.1 33.1 25.0 32.1 25.0 29.9 L 25.0 27.2 C 25.1 24.8 26.6 24.1 28.9 24.1 L 32.4 24.1 L 32.4 21.8 L 23.5 21.8 C 22.5 21.8 22.0 21.2 22.0 20.5 C 22.0 19.8 22.5 19.1 23.5 19.1 L 30.5 19.1 C 28.5 17.4 25.9 15.9 23.7 15.1 C 22.8 14.7 22.4 14.2 22.4 13.6 C 22.4 13.0 23.0 12.4 23.7 12.2 C 18.4 8.7 11.2 5.8 3.7 4.2 C 2.6 4.0 2.1 3.4 2.1 2.7 C 2.1 1.9 3.0 1.0 4.4 1.3 C 8.2 2.1 12.2 3.3 15.8 4.8 L 15.8 -0.1 C 14.2 -0.2 12.6 -0.4 11.0 -0.5 C 9.8 -0.6 9.2 -1.4 9.2 -2.1 C 9.2 -3.0 9.9 -3.9 11.4 -3.7 C 17.6 -3.2 23.2 -2.5 28.9 -1.2 C 29.9 -1.0 30.2 -0.3 30.2 0.4 C 30.2 1.3 29.5 2.2 28.1 1.9 C 25.2 1.2 22.2 0.7 19.3 0.4 L 19.3 4.9 C 19.2 5.3 19.1 5.7 18.8 6.0 C 20.8 6.9 22.7 7.9 24.6 9.0 C 29.5 3.4 37.6 -1.5 44.6 -3.5 C 44.9 -3.6 45.1 -3.6 45.4 -3.6 C 46.5 -3.6 47.1 -2.9 47.1 -2.1 C 47.1 -1.4 46.6 -0.6 45.5 -0.2 C 41.8 0.8 38.0 2.5 34.6 4.5 C 36.5 5.6 38.5 6.9 40.2 8.4 C 40.8 8.8 41.0 9.3 41.0 9.8 C 41.0 10.7 40.1 11.4 39.2 11.4 C 38.7 11.4 38.1 11.2 37.6 10.8 C 36.1 9.3 34.1 7.8 31.7 6.5 C 30.0 7.8 28.4 9.2 26.9 10.7 C 27.0 10.9 27.0 11.1 27.0 11.3 C 27.0 12.1 26.4 12.7 25.5 12.8 C 28.0 13.9 30.5 15.5 32.5 17.3 Z " transform="scale(1,-1)" stroke-dasharray="324.7342799608499" stroke-dashoffset="324.7342799608499"><animate attributeName="stroke-dashoffset" from="324.7342799608499" to="0" dur="9.742028398825497s" begin="0s; 15s; 30s; 45s; 60s" fill="freeze" id="anim0" /></path><path d="M 29.6 26.6 C 28.7 26.6 28.2 26.7 28.2 27.7 L 28.2 29.4 C 28.2 30.2 28.5 30.5 29.6 30.5 L 38.7 30.5 C 39.8 30.5 40.1 30.2 40.1 29.4 L 40.1 27.7 C 40.1 26.9 39.8 26.6 38.7 26.6 Z " transform="scale(1,-1)" stroke-dasharray="29.97379960233832" stroke-dashoffset="29.97379960233832"><animate attributeName="stroke-dashoffset" from="29.97379960233832" to="0" dur="0.8992139880701496s" begin="anim0.end" fill="freeze" id="anim1" /></path><path d="M 9.7 28.1 C 12.8 28.7 15.7 29.6 18.7 30.7 C 19.6 31.1 20.0 31.7 20.0 32.2 C 20.0 33.1 19.2 33.8 18.2 33.8 C 17.9 33.8 17.6 33.8 17.2 33.6 C 14.7 32.5 12.1 31.7 9.2 31.0 C 8.9 31.2 8.5 31.3 8.1 31.3 C 7.2 31.3 6.4 30.9 6.4 29.9 L 6.4 16.2 C 6.4 13.9 7.5 12.6 11.1 12.6 L 18.6 12.6 C 19.6 12.6 20.1 13.3 20.1 14.0 C 20.1 14.8 19.6 15.5 18.6 15.5 L 11.8 15.5 C 10.1 15.5 9.7 15.8 9.7 16.7 L 9.7 21.1 L 17.9 21.1 C 18.9 21.1 19.4 21.9 19.4 22.6 C 19.4 23.3 18.9 24.0 17.9 24.0 L 9.7 24.0 Z " transform="scale(1,-1)" stroke-dasharray="99.14565103741973" stroke-dashoffset="99.14565103741973"><animate attributeName="stroke-dashoffset" from="99.14565103741973" to="0" dur="2.9743695311225915s" begin="anim1.end" fill="freeze" id="anim2" /></path><path d="M 26.6 38.2 L 26.6 41.1 C 26.6 42.2 25.7 42.7 24.8 42.7 C 23.9 42.7 23.0 42.2 23.0 41.1 L 23.0 38.2 L 4.7 38.2 C 3.7 38.2 3.2 37.5 3.2 36.8 C 3.2 36.0 3.7 35.2 4.7 35.2 L 45.5 35.2 C 46.5 35.2 47.0 36.0 47.0 36.8 C 47.0 37.5 46.5 38.2 45.5 38.2 Z" transform="scale(1,-1)" stroke-dasharray="98.73115997555665" stroke-dashoffset="98.73115997555665"><animate attributeName="stroke-dashoffset" from="98.73115997555665" to="0" dur="2.9619347992666993s" begin="anim2.end" fill="freeze" id="anim_end" /></path></g></svg>