<?xml version='1.0' encoding='utf-8'?>
<svg viewBox="0 -44.0 50.0 50.0" version="1.1" xmlns="http://www.w3.org/2000/svg"><rect x="-1000" y="-1000" width="2000" height="2000" stroke="white" fill="white" /><g style="fill:none;stroke:#000000;stroke-width:1"><path d="M 27.8 10.6 C 28.8 8.2 29.9 6.0 31.4 3.9 C 27.8 2.0 23.8 0.4 20.0 -0.6 C 18.9 -0.9 18.5 -1.5 18.5 -2.2 C 18.5 -3.2 19.4 -4.0 20.7 -3.8 C 24.9 -2.7 29.5 -0.9 33.5 1.4 C 36.3 -1.6 39.5 -3.2 42.2 -3.2 C 44.9 -3.2 46.9 -1.4 47.7 2.8 C 47.9 4.0 47.0 4.8 46.1 4.8 C 45.4 4.8 44.7 4.3 44.5 3.4 C 44.0 1.0 43.2 0.4 42.0 0.4 C 40.5 0.4 38.5 1.3 36.5 3.2 C 38.5 4.5 40.4 6.1 41.9 7.7 C 42.3 8.2 42.5 8.7 42.5 9.1 C 42.5 10.0 41.8 10.7 40.9 10.7 C 40.5 10.7 40.0 10.5 39.6 10.1 C 38.1 8.5 36.3 7.0 34.3 5.7 C 33.1 7.3 32.1 9.1 31.2 11.0 L 44.7 12.7 C 45.6 12.8 46.0 13.5 46.0 14.1 C 46.0 15.0 45.4 15.8 44.3 15.7 L 30.2 13.9 C 29.7 15.3 29.3 16.8 29.0 18.4 C 28.9 19.4 28.1 19.8 27.4 19.8 C 26.5 19.8 25.5 19.1 25.8 17.9 C 26.1 16.4 26.4 14.9 26.8 13.5 L 21.4 12.8 C 20.6 12.7 20.2 12.0 20.2 11.3 C 20.2 10.5 20.8 9.7 21.8 9.8 Z " transform="scale(1,-1)" stroke-dasharray="162.86672298917762" stroke-dashoffset="162.86672298917762"><animate attributeName="stroke-dashoffset" from="162.86672298917762" to="0" dur="4.886001689675329s" begin="0s; 15s; 30s; 45s; 60s" fill="freeze" id="anim0" /></path><path d="M 12.7 8.7 C 15.8 8.7 17.2 10.0 17.2 13.1 L 17.2 35.2 C 17.2 38.4 15.8 39.8 12.7 39.8 L 8.8 39.8 C 5.7 39.8 4.2 38.4 4.2 35.2 L 4.2 13.1 C 4.2 9.8 5.7 8.7 8.8 8.7 Z " transform="scale(1,-1)" stroke-dasharray="81.64277634371894" stroke-dashoffset="81.64277634371894"><animate attributeName="stroke-dashoffset" from="81.64277634371894" to="0" dur="2.449283290311568s" begin="anim0.end" fill="freeze" id="anim1" /></path><path d="M 9.3 11.6 C 7.9 11.6 7.5 12.0 7.5 13.5 L 7.5 18.4 L 14.0 18.4 L 14.0 13.5 C 14.0 12.1 13.6 11.6 12.2 11.6 Z " transform="scale(1,-1)" stroke-dasharray="25.397699222458336" stroke-dashoffset="25.397699222458336"><animate attributeName="stroke-dashoffset" from="25.397699222458336" to="0" dur="0.7619309766737501s" begin="anim1.end" fill="freeze" id="anim2" /></path><path d="M 7.5 27.7 L 14.0 27.7 L 14.0 21.2 L 7.5 21.2 Z " transform="scale(1,-1)" stroke-dasharray="26.0" stroke-dashoffset="26.0"><animate attributeName="stroke-dashoffset" from="26.0" to="0" dur="0.78s" begin="anim2.end" fill="freeze" id="anim3" /></path><path d="M 14.0 30.6 L 7.5 30.6 L 7.5 34.9 C 7.5 36.4 7.9 36.8 9.3 36.8 L 12.2 36.8 C 13.6 36.8 14.0 36.4 14.0 34.9 Z " transform="scale(1,-1)" stroke-dasharray="24.22271006883517" stroke-dashoffset="24.22271006883517"><animate attributeName="stroke-dashoffset" from="24.22271006883517" to="0" dur="0.7266813020650551s" begin="anim3.end" fill="freeze" id="anim4" /></path><path d="M 43.9 34.1 C 44.8 34.1 45.2 34.9 45.2 35.5 C 45.2 36.4 44.5 37.2 43.5 37.1 L 30.3 35.4 C 29.9 36.9 29.4 38.6 29.1 40.4 C 28.9 41.4 28.2 41.9 27.4 41.9 C 26.6 41.9 25.7 41.2 25.9 40.0 C 26.2 38.1 26.5 36.5 27.0 34.9 L 21.2 34.1 C 20.4 34.1 20.0 33.4 20.0 32.7 C 20.0 31.9 20.6 31.1 21.6 31.2 L 28.0 32.0 C 28.8 30.2 29.7 28.3 30.9 26.7 C 27.4 24.8 23.8 23.4 20.6 22.5 C 19.7 22.2 19.2 21.6 19.2 21.0 C 19.2 20.2 19.9 19.4 20.9 19.4 C 21.1 19.4 21.2 19.5 21.5 19.5 C 25.0 20.5 29.1 22.1 32.9 24.2 C 35.9 21.1 39.2 19.6 42.2 19.6 C 44.8 19.6 46.9 21.1 47.6 25.5 C 47.7 26.6 46.9 27.3 46.0 27.3 C 45.2 27.3 44.6 26.9 44.4 26.0 C 43.9 23.5 43.1 23.0 41.8 23.0 C 40.0 23.0 37.9 23.9 35.8 25.8 C 37.6 26.9 39.3 28.1 40.9 29.3 C 41.4 29.7 41.6 30.2 41.6 30.7 C 41.6 31.6 40.8 32.3 39.9 32.3 C 39.5 32.3 39.1 32.1 38.7 31.9 C 37.2 30.6 35.5 29.4 33.7 28.2 C 32.8 29.6 32.0 31.0 31.4 32.5 Z " transform="scale(1,-1)" stroke-dasharray="156.54667260588116" stroke-dashoffset="156.54667260588116"><animate attributeName="stroke-dashoffset" from="156.54667260588116" to="0" dur="4.696400178176434s" begin="anim4.end" fill="freeze" id="anim5" /></path><path d="M 6.1 5.9 C 5.1 3.7 3.9 1.8 2.2 -0.4 C 2.0 -0.7 1.9 -1.1 1.9 -1.5 C 1.9 -2.4 2.6 -3.2 3.5 -3.2 C 4.0 -3.2 4.6 -2.9 5.1 -2.2 C 6.6 -0.3 8.2 2.4 9.1 4.2 C 9.2 4.5 9.3 4.9 9.3 5.2 C 9.3 6.2 8.5 6.9 7.6 6.9 C 7.0 6.9 6.4 6.6 6.1 5.9 Z " transform="scale(1,-1)" stroke-dasharray="26.302846729674545" stroke-dashoffset="26.302846729674545"><animate attributeName="stroke-dashoffset" from="26.302846729674545" to="0" dur="0.7890854018902363s" begin="anim5.end" fill="freeze" id="anim6" /></path><path d="M 15.1 6.5 C 14.7 7.0 14.2 7.2 13.7 7.2 C 12.9 7.2 12.1 6.6 12.1 5.8 C 12.1 5.5 12.2 5.2 12.4 4.9 C 13.4 3.4 14.3 1.5 15.0 -0.2 C 15.3 -1.0 15.9 -1.2 16.5 -1.2 C 17.4 -1.2 18.2 -0.6 18.2 0.6 C 18.2 0.9 18.2 1.2 18.1 1.6 C 17.4 3.1 16.2 5.0 15.1 6.5 Z " transform="scale(1,-1)" stroke-dasharray="22.15511782225169" stroke-dashoffset="22.15511782225169"><animate attributeName="stroke-dashoffset" from="22.15511782225169" to="0" dur="0.6646535346675506s" begin="anim6.end" fill="freeze" id="anim7" /></path><path d="M 33.2 20.8 C 33.0 20.9 32.8 20.9 32.6 20.9 C 31.7 20.9 31.0 20.1 31.0 19.2 C 31.0 18.8 31.2 18.4 31.8 18.1 C 32.7 17.6 34.1 16.8 34.8 16.2 C 35.1 16.0 35.5 15.9 35.9 15.9 C 36.7 15.9 37.4 16.6 37.4 17.4 C 37.4 17.9 37.1 18.4 36.6 18.9 C 35.6 19.6 34.2 20.4 33.2 20.8 Z " transform="scale(1,-1)" stroke-dasharray="17.34423300804686" stroke-dashoffset="17.34423300804686"><animate attributeName="stroke-dashoffset" from="17.34423300804686" to="0" dur="0.5203269902414058s" begin="anim7.end" fill="freeze" id="anim8" /></path><path d="M 34.1 41.8 C 34.0 41.9 33.8 41.9 33.6 41.9 C 32.6 41.9 32.0 41.1 32.0 40.3 C 32.0 39.9 32.2 39.4 32.8 39.1 C 33.7 38.7 35.0 38.0 35.8 37.4 C 36.1 37.1 36.5 37.1 36.8 37.1 C 37.6 37.1 38.3 37.8 38.3 38.6 C 38.3 39.1 38.1 39.7 37.4 40.1 C 36.4 40.8 35.1 41.5 34.1 41.8 Z" transform="scale(1,-1)" stroke-dasharray="17.003473851506634" stroke-dashoffset="17.003473851506634"><animate attributeName="stroke-dashoffset" from="17.003473851506634" to="0" dur="0.510104215545199s" begin="anim8.end" fill="freeze" id="anim_end" /></path></g></svg>