<?xml version='1.0' encoding='utf-8'?>
<svg viewBox="0 -44.0 50.0 50.0" version="1.1" xmlns="http://www.w3.org/2000/svg"><rect x="-1000" y="-1000" width="2000" height="2000" stroke="white" fill="white" /><g style="fill:none;stroke:#000000;stroke-width:1"><path d="M 13.1 11.9 C 16.1 11.9 17.4 13.2 17.4 15.9 L 17.4 25.4 C 17.4 28.1 16.1 29.4 13.1 29.4 L 11.6 29.4 L 11.6 32.8 L 17.2 32.8 C 18.2 32.8 18.7 33.6 18.7 34.4 C 18.7 35.1 18.2 35.9 17.2 35.9 L 11.6 35.9 L 11.6 40.8 C 11.6 41.7 10.8 42.2 10.0 42.2 C 9.2 42.2 8.5 41.7 8.5 40.8 L 8.5 35.9 L 2.9 35.9 C 2.0 35.9 1.5 35.1 1.5 34.4 C 1.5 33.6 2.0 32.8 2.9 32.8 L 8.5 32.8 L 8.5 29.4 L 7.1 29.4 C 4.1 29.4 2.8 28.1 2.8 25.4 L 2.8 15.9 C 2.8 13.2 4.1 11.9 7.1 11.9 L 8.5 11.9 L 8.5 8.1 L 2.6 8.1 C 1.7 8.1 1.2 7.3 1.2 6.5 C 1.2 5.8 1.7 5.0 2.6 5.0 L 8.5 5.0 L 8.5 -3.0 C 8.5 -3.9 9.2 -4.4 10.0 -4.4 C 10.8 -4.4 11.6 -3.9 11.6 -3.0 L 11.6 5.0 L 16.2 5.0 C 17.2 5.0 17.7 5.8 17.7 6.5 C 17.7 7.3 17.2 8.1 16.2 8.1 L 11.6 8.1 L 11.6 11.9 Z " transform="scale(1,-1)" stroke-dasharray="163.8262859725013" stroke-dashoffset="163.8262859725013"><animate attributeName="stroke-dashoffset" from="163.8262859725013" to="0" dur="4.914788579175038s" begin="0s; 15s; 30s; 45s; 60s" fill="freeze" id="anim0" /></path><path d="M 11.6 14.7 L 11.6 19.5 L 14.4 19.5 L 14.4 16.1 C 14.4 14.9 14.0 14.8 12.9 14.7 Z " transform="scale(1,-1)" stroke-dasharray="14.715622826177725" stroke-dashoffset="14.715622826177725"><animate attributeName="stroke-dashoffset" from="14.715622826177725" to="0" dur="0.44146868478533174s" begin="anim0.end" fill="freeze" id="anim1" /></path><path d="M 14.4 22.2 L 11.6 22.2 L 11.6 26.6 L 12.9 26.6 C 14.1 26.6 14.4 26.2 14.4 25.2 Z " transform="scale(1,-1)" stroke-dasharray="13.91965103400878" stroke-dashoffset="13.91965103400878"><animate attributeName="stroke-dashoffset" from="13.91965103400878" to="0" dur="0.41758953102026336s" begin="anim1.end" fill="freeze" id="anim2" /></path><path d="M 8.5 26.6 L 8.5 22.2 L 5.8 22.2 L 5.8 25.2 C 5.8 26.2 6.2 26.6 7.3 26.6 Z " transform="scale(1,-1)" stroke-dasharray="13.694683083890242" stroke-dashoffset="13.694683083890242"><animate attributeName="stroke-dashoffset" from="13.694683083890242" to="0" dur="0.41084049251670723s" begin="anim2.end" fill="freeze" id="anim3" /></path><path d="M 5.8 19.5 L 8.5 19.5 L 8.5 14.7 L 7.3 14.7 C 6.2 14.7 5.8 15.0 5.8 16.1 Z " transform="scale(1,-1)" stroke-dasharray="14.5208858850225" stroke-dashoffset="14.5208858850225"><animate attributeName="stroke-dashoffset" from="14.5208858850225" to="0" dur="0.435626576550675s" begin="anim3.end" fill="freeze" id="anim4" /></path><path d="M 28.4 16.4 L 28.4 13.1 C 28.4 12.2 29.1 11.7 29.8 11.7 C 30.5 11.7 31.1 12.2 31.1 13.1 L 31.1 19.8 C 31.6 19.3 32.0 18.8 32.5 18.2 C 32.8 17.9 33.1 17.8 33.4 17.8 C 34.1 17.8 34.6 18.4 34.6 19.1 C 34.6 19.5 34.5 19.9 34.1 20.2 C 33.2 21.1 32.2 22.0 31.1 22.7 L 31.1 24.2 L 33.4 24.2 C 34.4 24.2 34.8 24.9 34.8 25.6 C 34.8 26.2 34.4 26.9 33.4 26.9 L 31.1 26.9 L 31.1 30.8 C 31.9 31.0 32.6 31.3 33.3 31.6 C 34.0 31.9 34.3 32.4 34.3 32.9 C 34.3 33.6 33.7 34.3 32.9 34.3 C 32.7 34.3 32.5 34.2 32.2 34.1 C 30.2 33.3 27.4 32.5 25.4 32.1 C 24.6 32.0 24.2 31.4 24.2 30.9 C 24.2 30.1 24.9 29.4 25.9 29.6 C 26.6 29.7 27.5 29.9 28.4 30.1 L 28.4 26.9 L 25.3 26.9 C 24.5 26.9 24.0 26.2 24.0 25.6 C 24.0 24.9 24.5 24.2 25.3 24.2 L 27.7 24.2 C 26.6 21.5 25.2 19.0 23.7 17.1 C 23.4 16.8 23.3 16.5 23.3 16.2 C 23.3 15.6 23.9 15.1 24.5 15.1 C 24.9 15.1 25.3 15.2 25.7 15.7 C 26.7 16.9 27.7 18.5 28.6 20.5 Z " transform="scale(1,-1)" stroke-dasharray="94.96122656729808" stroke-dashoffset="94.96122656729808"><animate attributeName="stroke-dashoffset" from="94.96122656729808" to="0" dur="2.8488367970189423s" begin="anim4.end" fill="freeze" id="anim5" /></path><path d="M 39.7 16.4 L 39.7 13.1 C 39.7 12.2 40.4 11.7 41.1 11.7 C 41.8 11.7 42.4 12.2 42.4 13.1 L 42.4 16.3 L 42.2 20.6 C 43.3 18.6 44.7 16.6 46.1 15.2 C 46.5 14.8 46.9 14.6 47.2 14.6 C 48.0 14.6 48.7 15.3 48.7 16.1 C 48.7 16.6 48.5 17.0 48.0 17.4 C 46.0 19.2 44.1 21.6 42.8 24.2 L 46.2 24.2 C 47.1 24.2 47.5 24.9 47.5 25.6 C 47.5 26.2 47.1 26.9 46.2 26.9 L 42.4 26.9 L 42.4 30.5 C 43.5 30.8 44.5 31.2 45.4 31.6 C 46.1 31.9 46.3 32.4 46.3 33.0 C 46.3 33.7 45.7 34.5 44.8 34.5 C 44.6 34.5 44.2 34.5 44.0 34.3 C 41.8 33.2 39.9 32.6 36.9 32.0 C 36.1 31.8 35.7 31.2 35.7 30.7 C 35.7 29.9 36.4 29.1 37.5 29.3 C 38.1 29.5 39.0 29.6 39.7 29.8 L 39.7 26.9 L 36.9 26.9 C 36.0 26.9 35.5 26.2 35.5 25.6 C 35.5 24.9 36.0 24.2 36.9 24.2 L 39.2 24.2 C 37.8 20.9 36.1 18.4 34.4 16.4 C 34.0 16.1 33.9 15.7 33.9 15.4 C 33.9 14.7 34.5 14.2 35.1 14.2 C 35.6 14.2 36.0 14.4 36.4 14.8 C 37.6 16.2 38.8 18.1 39.9 20.2 Z " transform="scale(1,-1)" stroke-dasharray="109.35620595131886" stroke-dashoffset="109.35620595131886"><animate attributeName="stroke-dashoffset" from="109.35620595131886" to="0" dur="3.2806861785395656s" begin="anim5.end" fill="freeze" id="anim6" /></path><path d="M 37.2 0.2 L 37.2 4.7 L 43.5 4.7 C 44.5 4.7 45.0 5.4 45.0 6.2 C 45.0 6.9 44.5 7.6 43.5 7.6 L 37.2 7.6 L 37.2 10.4 C 37.2 11.5 36.5 12.0 35.6 12.0 C 34.9 12.0 34.1 11.5 34.1 10.4 L 34.1 0.2 L 29.8 0.2 L 29.8 7.7 C 29.8 8.8 29.0 9.2 28.2 9.2 C 27.4 9.2 26.6 8.8 26.6 7.7 L 26.6 0.2 L 22.4 0.2 C 21.5 0.2 21.0 -0.5 21.0 -1.2 C 21.0 -2.0 21.5 -2.8 22.4 -2.8 L 46.6 -2.8 C 47.6 -2.8 48.1 -2.0 48.1 -1.2 C 48.1 -0.5 47.6 0.2 46.6 0.2 Z " transform="scale(1,-1)" stroke-dasharray="111.22368492298675" stroke-dashoffset="111.22368492298675"><animate attributeName="stroke-dashoffset" from="111.22368492298675" to="0" dur="3.336710547689602s" begin="anim6.end" fill="freeze" id="anim7" /></path><path d="M 46.1 36.0 C 47.1 36.0 47.6 36.8 47.6 37.6 C 47.6 38.4 47.1 39.1 46.1 39.1 L 25.4 39.1 C 21.6 39.1 19.9 37.3 19.9 34.1 L 19.9 24.6 C 19.9 10.9 18.6 5.1 15.5 -0.2 C 15.3 -0.6 15.2 -1.0 15.2 -1.3 C 15.2 -2.2 15.9 -2.8 16.7 -2.8 C 17.2 -2.8 17.8 -2.6 18.2 -2.0 C 21.7 3.9 23.2 10.4 23.2 24.0 L 23.2 33.8 C 23.2 35.5 23.9 36.0 25.9 36.0 Z" transform="scale(1,-1)" stroke-dasharray="135.27228787176136" stroke-dashoffset="135.27228787176136"><animate attributeName="stroke-dashoffset" from="135.27228787176136" to="0" dur="4.058168636152841s" begin="anim7.end" fill="freeze" id="anim_end" /></path></g></svg>