<?xml version='1.0' encoding='utf-8'?>
<svg viewBox="0 -44.0 50.0 50.0" version="1.1" xmlns="http://www.w3.org/2000/svg"><rect x="-1000" y="-1000" width="2000" height="2000" stroke="white" fill="white" /><g style="fill:none;stroke:#000000;stroke-width:1"><path d="M 45.2 19.9 C 46.2 19.9 46.7 20.7 46.7 21.5 C 46.7 22.2 46.2 23.0 45.2 23.0 L 36.6 23.0 L 36.6 28.9 C 36.6 29.9 35.9 30.4 35.0 30.4 C 34.2 30.4 33.4 29.9 33.4 28.9 L 33.4 23.0 L 27.8 23.0 C 26.8 23.0 26.4 22.2 26.4 21.5 C 26.4 20.7 26.8 19.9 27.8 19.9 L 32.5 19.9 C 29.9 14.5 26.3 9.4 22.4 5.6 C 21.9 5.2 21.7 4.7 21.7 4.2 C 21.7 3.4 22.4 2.8 23.2 2.8 C 23.7 2.8 24.2 3.0 24.7 3.5 C 28.4 7.2 31.5 11.5 33.5 15.2 L 33.4 7.2 L 33.4 -2.6 C 33.4 -3.6 34.2 -4.0 35.0 -4.0 C 35.9 -4.0 36.6 -3.6 36.6 -2.6 L 36.6 7.2 L 36.5 15.8 C 38.6 11.5 41.5 7.4 44.6 4.0 C 45.1 3.5 45.6 3.3 46.0 3.3 C 47.0 3.3 47.8 4.2 47.8 5.1 C 47.8 5.6 47.6 6.2 47.1 6.6 C 43.4 10.2 39.8 14.9 37.2 19.9 Z " transform="scale(1,-1)" stroke-dasharray="169.20453643855268" stroke-dashoffset="169.20453643855268"><animate attributeName="stroke-dashoffset" from="169.20453643855268" to="0" dur="5.07613609315658s" begin="0s; 15s; 30s; 45s; 60s" fill="freeze" id="anim0" /></path><path d="M 11.7 19.9 C 9.2 14.5 6.1 9.5 2.8 6.0 C 2.4 5.5 2.2 5.0 2.2 4.5 C 2.2 3.7 2.9 3.0 3.7 3.0 C 4.2 3.0 4.7 3.2 5.1 3.7 C 8.3 7.4 11.1 11.6 13.0 15.4 L 12.8 6.6 L 12.8 -2.6 C 12.8 -3.6 13.6 -4.0 14.4 -4.0 C 15.2 -4.0 16.1 -3.6 16.1 -2.6 L 16.1 13.4 C 17.4 12.2 18.7 11.0 19.7 9.7 C 20.2 9.1 20.7 8.8 21.2 8.8 C 22.1 8.8 22.8 9.6 22.8 10.5 C 22.8 11.0 22.6 11.5 22.1 12.0 C 20.6 13.6 18.4 15.4 16.1 16.8 L 16.1 19.9 L 22.0 19.9 C 23.0 19.9 23.5 20.7 23.5 21.5 C 23.5 22.2 23.0 23.0 22.0 23.0 L 16.1 23.0 L 16.1 28.9 C 16.1 29.9 15.2 30.4 14.4 30.4 C 13.6 30.4 12.8 29.9 12.8 28.9 L 12.8 23.0 L 4.9 23.0 C 3.9 23.0 3.5 22.2 3.5 21.5 C 3.5 20.7 3.9 19.9 4.9 19.9 Z " transform="scale(1,-1)" stroke-dasharray="150.10313790650605" stroke-dashoffset="150.10313790650605"><animate attributeName="stroke-dashoffset" from="150.10313790650605" to="0" dur="4.503094137195181s" begin="anim0.end" fill="freeze" id="anim1" /></path><path d="M 16.1 34.2 L 16.1 31.4 C 16.1 30.4 16.9 29.9 17.8 29.9 C 18.6 29.9 19.5 30.4 19.5 31.4 L 19.5 34.2 L 30.1 34.2 L 30.1 31.5 C 30.1 30.5 31.0 30.0 31.8 30.0 C 32.6 30.0 33.5 30.5 33.5 31.5 L 33.5 34.2 L 45.3 34.2 C 46.2 34.2 46.7 35.0 46.7 35.6 C 46.7 36.4 46.2 37.1 45.3 37.1 L 33.5 37.1 L 33.5 40.4 C 33.5 41.4 32.6 41.9 31.8 41.9 C 31.0 41.9 30.1 41.4 30.1 40.4 L 30.1 37.1 L 19.5 37.1 L 19.5 40.4 C 19.5 41.4 18.6 41.9 17.8 41.9 C 16.9 41.9 16.1 41.4 16.1 40.4 L 16.1 37.1 L 4.7 37.1 C 3.8 37.1 3.2 36.4 3.2 35.6 C 3.2 35.0 3.8 34.2 4.7 34.2 Z" transform="scale(1,-1)" stroke-dasharray="121.19896807068348" stroke-dashoffset="121.19896807068348"><animate attributeName="stroke-dashoffset" from="121.19896807068348" to="0" dur="3.635969042120504s" begin="anim1.end" fill="freeze" id="anim_end" /></path></g></svg>