<?xml version='1.0' encoding='utf-8'?>
<svg viewBox="0 -44.0 50.0 50.0" version="1.1" xmlns="http://www.w3.org/2000/svg"><rect x="-1000" y="-1000" width="2000" height="2000" stroke="white" fill="white" /><g style="fill:none;stroke:#000000;stroke-width:1"><path d="M 24.2 27.1 C 23.9 26.9 23.7 26.7 23.5 26.4 C 21.6 23.4 19.5 21.1 17.2 19.2 C 16.7 18.8 16.4 18.3 16.4 17.9 C 16.4 17.1 17.2 16.4 18.0 16.4 C 18.4 16.4 18.9 16.6 19.4 16.9 C 21.1 18.4 22.7 20.1 24.2 21.9 L 44.7 21.9 C 45.7 21.9 46.2 22.6 46.2 23.3 C 46.2 24.0 45.7 24.7 44.7 24.7 L 26.2 24.7 C 26.3 24.9 26.4 25.0 26.5 25.2 C 26.7 25.5 26.8 25.7 26.8 26.0 C 26.8 26.5 26.5 26.9 26.0 27.1 L 38.8 27.1 C 42.6 27.1 43.7 28.1 43.7 30.2 L 43.7 32.1 C 43.7 34.2 42.6 35.2 38.8 35.2 L 31.9 35.2 L 31.9 37.5 L 45.7 37.5 C 46.7 37.5 47.1 38.2 47.1 38.9 C 47.1 39.6 46.7 40.3 45.7 40.3 L 4.5 40.3 C 3.5 40.3 3.0 39.6 3.0 38.9 C 3.0 38.2 3.5 37.5 4.5 37.5 L 17.5 37.5 L 17.5 35.2 L 11.4 35.2 C 7.7 35.2 6.5 34.2 6.5 32.1 L 6.5 30.2 C 6.6 27.2 9.0 27.1 11.4 27.1 Z " transform="scale(1,-1)" stroke-dasharray="220.26703838191835" stroke-dashoffset="220.26703838191835"><animate attributeName="stroke-dashoffset" from="220.26703838191835" to="0" dur="6.608011151457551s" begin="0s; 15s; 30s; 45s; 60s" fill="freeze" id="anim0" /></path><path d="M 11.5 29.7 C 10.7 29.7 9.9 29.7 9.8 30.7 L 9.8 31.7 C 9.8 32.4 10.1 32.6 11.5 32.6 L 17.5 32.6 L 17.5 29.7 Z " transform="scale(1,-1)" stroke-dasharray="20.370622127534684" stroke-dashoffset="20.370622127534684"><animate attributeName="stroke-dashoffset" from="20.370622127534684" to="0" dur="0.6111186638260405s" begin="anim0.end" fill="freeze" id="anim1" /></path><path d="M 31.9 29.7 L 31.9 32.6 L 38.8 32.6 C 40.1 32.6 40.4 32.4 40.4 31.7 L 40.4 30.7 C 40.4 29.7 39.6 29.7 38.8 29.7 Z " transform="scale(1,-1)" stroke-dasharray="22.026549581164993" stroke-dashoffset="22.026549581164993"><animate attributeName="stroke-dashoffset" from="22.026549581164993" to="0" dur="0.6607964874349498s" begin="anim1.end" fill="freeze" id="anim2" /></path><path d="M 28.9 32.6 L 28.9 29.7 L 20.5 29.7 L 20.5 32.6 Z " transform="scale(1,-1)" stroke-dasharray="22.6" stroke-dashoffset="22.6"><animate attributeName="stroke-dashoffset" from="22.6" to="0" dur="0.678s" begin="anim2.end" fill="freeze" id="anim3" /></path><path d="M 28.9 35.2 L 20.5 35.2 L 20.5 37.5 L 28.9 37.5 Z " transform="scale(1,-1)" stroke-dasharray="21.39999999999999" stroke-dashoffset="21.39999999999999"><animate attributeName="stroke-dashoffset" from="21.39999999999999" to="0" dur="0.6419999999999997s" begin="anim3.end" fill="freeze" id="anim4" /></path><path d="M 37.2 9.2 C 40.9 9.2 42.0 10.4 42.0 12.8 L 42.0 16.8 C 42.0 19.2 40.9 20.3 37.2 20.3 L 26.8 20.3 C 23.2 20.3 22.1 19.2 22.1 16.8 L 22.1 12.8 C 22.1 10.6 23.0 9.5 26.0 9.2 C 23.8 7.2 21.1 5.5 18.2 4.2 C 17.2 3.9 16.9 3.3 16.9 2.8 C 16.9 2.1 17.5 1.5 18.4 1.5 C 18.7 1.5 18.9 1.6 19.2 1.7 C 20.9 2.3 22.6 3.2 24.3 4.4 C 25.7 3.2 27.2 2.1 28.9 1.2 C 25.4 -0.1 21.3 -0.9 17.2 -1.2 C 16.1 -1.2 15.6 -1.9 15.6 -2.6 C 15.6 -3.3 16.2 -4.1 17.4 -4.0 C 22.5 -3.7 27.9 -2.6 32.6 -0.6 C 36.4 -2.1 40.6 -3.2 45.0 -3.5 C 46.3 -3.6 47.0 -2.7 47.0 -1.8 C 47.0 -1.0 46.5 -0.2 45.3 -0.2 C 42.0 0.1 39.0 0.6 36.2 1.2 C 37.1 1.8 38.0 2.4 38.8 3.0 C 39.8 3.8 40.3 4.7 40.3 5.4 C 40.3 6.7 38.9 7.6 36.4 7.6 L 28.4 7.6 C 28.9 8.2 29.5 8.7 30.0 9.2 Z " transform="scale(1,-1)" stroke-dasharray="159.60160546679887" stroke-dashoffset="159.60160546679887"><animate attributeName="stroke-dashoffset" from="159.60160546679887" to="0" dur="4.788048164003966s" begin="anim4.end" fill="freeze" id="anim5" /></path><path d="M 27.2 11.7 C 25.8 11.7 25.4 12.0 25.4 12.9 L 25.4 13.6 L 38.7 13.6 L 38.7 12.9 C 38.7 12.0 38.2 11.7 36.8 11.7 Z " transform="scale(1,-1)" stroke-dasharray="29.419197990643013" stroke-dashoffset="29.419197990643013"><animate attributeName="stroke-dashoffset" from="29.419197990643013" to="0" dur="0.8825759397192904s" begin="anim5.end" fill="freeze" id="anim6" /></path><path d="M 35.2 5.2 C 36.0 5.2 36.2 5.2 36.2 5.0 C 36.2 4.9 36.1 4.7 35.9 4.5 C 34.9 3.8 33.6 3.1 32.4 2.5 C 30.7 3.2 29.0 4.1 27.5 5.2 Z " transform="scale(1,-1)" stroke-dasharray="19.03421566963229" stroke-dashoffset="19.03421566963229"><animate attributeName="stroke-dashoffset" from="19.03421566963229" to="0" dur="0.5710264700889687s" begin="anim6.end" fill="freeze" id="anim7" /></path><path d="M 38.7 15.9 L 25.4 15.9 L 25.4 16.6 C 25.4 17.4 25.8 17.8 27.2 17.8 L 36.8 17.8 C 38.2 17.8 38.7 17.4 38.7 16.6 Z " transform="scale(1,-1)" stroke-dasharray="29.360647966183162" stroke-dashoffset="29.360647966183162"><animate attributeName="stroke-dashoffset" from="29.360647966183162" to="0" dur="0.8808194389854949s" begin="anim7.end" fill="freeze" id="anim8" /></path><path d="M 8.2 -3.2 C 8.2 -4.0 9.1 -4.5 10.0 -4.5 C 10.9 -4.5 11.7 -4.0 11.7 -3.2 L 11.7 10.4 C 11.7 11.1 11.2 11.6 10.7 11.8 C 12.1 13.1 13.5 14.6 14.6 16.0 C 15.0 16.4 15.1 16.8 15.1 17.2 C 15.1 18.1 14.3 18.8 13.5 18.8 C 12.9 18.8 12.4 18.5 12.0 17.9 C 9.3 14.2 5.8 11.1 2.8 9.2 C 2.1 8.8 1.8 8.2 1.8 7.8 C 1.8 7.0 2.4 6.3 3.2 6.3 C 3.6 6.3 3.9 6.4 4.2 6.6 C 5.5 7.4 6.9 8.3 8.2 9.5 Z " transform="scale(1,-1)" stroke-dasharray="67.18005942072293" stroke-dashoffset="67.18005942072293"><animate attributeName="stroke-dashoffset" from="67.18005942072293" to="0" dur="2.0154017826216877s" begin="anim8.end" fill="freeze" id="anim9" /></path><path d="M 10.2 25.7 C 8.1 23.0 5.5 20.7 3.1 19.2 C 2.3 18.7 2.0 18.1 2.0 17.6 C 2.0 16.8 2.7 16.1 3.5 16.1 C 3.9 16.1 4.2 16.2 4.7 16.5 C 7.3 18.2 10.7 20.9 12.9 23.8 C 13.2 24.2 13.4 24.6 13.4 25.0 C 13.4 25.8 12.6 26.5 11.7 26.5 C 11.2 26.5 10.6 26.2 10.2 25.7 Z" transform="scale(1,-1)" stroke-dasharray="31.931666183971906" stroke-dashoffset="31.931666183971906"><animate attributeName="stroke-dashoffset" from="31.931666183971906" to="0" dur="0.9579499855191571s" begin="anim9.end" fill="freeze" id="anim_end" /></path></g></svg>