<?xml version='1.0' encoding='utf-8'?>
<svg viewBox="0 -44.0 50.0 50.0" version="1.1" xmlns="http://www.w3.org/2000/svg"><rect x="-1000" y="-1000" width="2000" height="2000" stroke="white" fill="white" /><g style="fill:none;stroke:#000000;stroke-width:1"><path d="M 13.2 -2.7 C 16.6 -2.7 17.8 -1.3 17.8 1.5 L 17.8 7.9 C 17.8 10.7 16.6 12.0 13.2 12.0 L 8.7 12.0 C 5.3 12.0 4.0 10.7 4.0 7.9 L 4.0 1.5 C 4.0 -1.7 5.7 -2.6 8.7 -2.7 Z " transform="scale(1,-1)" stroke-dasharray="50.6803607020527" stroke-dashoffset="50.6803607020527"><animate attributeName="stroke-dashoffset" from="50.6803607020527" to="0" dur="1.520410821061581s" begin="0s; 15s; 30s; 45s; 60s" fill="freeze" id="anim0" /></path><path d="M 9.2 0.4 C 7.9 0.4 7.4 0.9 7.4 2.0 L 7.4 7.4 C 7.4 8.6 7.9 9.1 9.2 9.1 L 12.7 9.1 C 14.0 9.1 14.4 8.6 14.4 7.4 L 14.4 2.0 C 14.4 0.8 13.9 0.4 12.7 0.4 Z " transform="scale(1,-1)" stroke-dasharray="29.01962718252909" stroke-dashoffset="29.01962718252909"><animate attributeName="stroke-dashoffset" from="29.01962718252909" to="0" dur="0.8705888154758726s" begin="anim0.end" fill="freeze" id="anim1" /></path><path d="M 31.6 28.3 C 30.9 21.5 28.9 15.8 26.0 11.9 C 25.7 11.5 25.6 11.1 25.6 10.7 C 25.6 9.9 26.2 9.2 27.1 9.2 C 27.6 9.2 28.1 9.5 28.5 10.1 C 31.0 13.5 33.1 18.5 34.0 24.2 C 35.0 19.6 36.7 15.3 39.0 11.5 C 39.4 10.8 40.0 10.5 40.5 10.5 C 41.4 10.5 42.2 11.3 42.2 12.3 C 42.2 12.7 42.2 13.1 41.9 13.6 C 39.0 17.9 36.9 22.8 35.7 28.3 L 40.1 28.3 C 42.1 28.3 42.8 27.7 42.8 25.9 L 42.8 1.8 C 42.8 0.6 42.1 0.2 41.4 0.2 C 40.7 0.2 40.0 0.4 39.2 0.5 C 38.1 0.8 37.4 -0.2 37.4 -1.1 C 37.4 -1.8 37.8 -2.5 38.7 -2.8 C 39.5 -3.0 40.6 -3.1 41.5 -3.1 C 44.4 -3.1 46.1 -1.9 46.1 1.4 L 46.1 26.6 C 46.1 29.6 44.6 31.3 40.8 31.3 L 35.2 31.3 C 35.0 33.0 34.8 34.8 34.6 36.6 C 34.5 39.1 33.5 40.7 30.2 40.5 L 26.2 40.4 C 25.3 40.4 24.8 39.6 24.8 38.8 C 24.8 38.0 25.3 37.2 26.2 37.2 L 29.9 37.4 C 31.1 37.5 31.4 37.2 31.5 36.1 C 31.7 34.5 31.8 32.9 32.0 31.3 L 26.8 31.3 C 23.2 31.3 21.7 29.6 21.7 26.6 L 21.7 -2.1 C 21.7 -3.1 22.6 -3.6 23.4 -3.6 C 24.2 -3.6 25.1 -3.1 25.1 -2.1 L 25.1 25.9 C 25.1 27.7 25.8 28.3 27.5 28.3 Z " transform="scale(1,-1)" stroke-dasharray="280.5085771449768" stroke-dashoffset="280.5085771449768"><animate attributeName="stroke-dashoffset" from="280.5085771449768" to="0" dur="8.415257314349304s" begin="anim1.end" fill="freeze" id="anim2" /></path><path d="M 18.4 29.7 C 19.4 29.7 19.9 30.5 19.9 31.2 C 19.9 32.1 19.4 32.8 18.4 32.8 L 3.0 32.8 C 2.0 32.8 1.6 32.1 1.6 31.2 C 1.6 30.5 2.0 29.7 3.0 29.7 Z " transform="scale(1,-1)" stroke-dasharray="40.37348956536127" stroke-dashoffset="40.37348956536127"><animate attributeName="stroke-dashoffset" from="40.37348956536127" to="0" dur="1.211204686960838s" begin="anim2.end" fill="freeze" id="anim3" /></path><path d="M 15.8 36.5 C 16.8 36.5 17.2 37.2 17.2 38.0 C 17.2 38.8 16.8 39.6 15.8 39.6 L 5.8 39.6 C 4.8 39.6 4.4 38.8 4.4 38.0 C 4.4 37.2 4.8 36.5 5.8 36.5 Z " transform="scale(1,-1)" stroke-dasharray="29.451798498227735" stroke-dashoffset="29.451798498227735"><animate attributeName="stroke-dashoffset" from="29.451798498227735" to="0" dur="0.883553954946832s" begin="anim3.end" fill="freeze" id="anim4" /></path><path d="M 15.8 22.7 C 16.8 22.7 17.2 23.5 17.2 24.2 C 17.2 25.0 16.8 25.8 15.8 25.8 L 5.8 25.8 C 4.8 25.8 4.4 25.0 4.4 24.2 C 4.4 23.5 4.8 22.7 5.8 22.7 Z " transform="scale(1,-1)" stroke-dasharray="29.411344999314462" stroke-dashoffset="29.411344999314462"><animate attributeName="stroke-dashoffset" from="29.411344999314462" to="0" dur="0.8823403499794338s" begin="anim4.end" fill="freeze" id="anim5" /></path><path d="M 15.8 15.9 C 16.8 15.9 17.2 16.7 17.2 17.4 C 17.2 18.2 16.8 19.0 15.8 19.0 L 5.8 19.0 C 4.8 19.0 4.4 18.2 4.4 17.4 C 4.4 16.7 4.8 15.9 5.8 15.9 Z" transform="scale(1,-1)" stroke-dasharray="29.411344999314462" stroke-dashoffset="29.411344999314462"><animate attributeName="stroke-dashoffset" from="29.411344999314462" to="0" dur="0.8823403499794338s" begin="anim5.end" fill="freeze" id="anim_end" /></path></g></svg>