<?xml version='1.0' encoding='utf-8'?>
<svg viewBox="0 -44.0 50.0 50.0" version="1.1" xmlns="http://www.w3.org/2000/svg"><rect x="-1000" y="-1000" width="2000" height="2000" stroke="white" fill="white" /><g style="fill:none;stroke:#000000;stroke-width:1"><path d="M 34.3 32.3 L 34.3 34.9 L 45.7 34.9 C 46.7 34.9 47.2 35.6 47.2 36.3 C 47.2 37.1 46.7 37.8 45.7 37.8 L 34.3 37.8 L 34.3 40.4 C 34.3 41.5 33.5 42.0 32.7 42.0 C 31.9 42.0 31.1 41.5 31.1 40.4 L 31.1 37.8 L 20.5 37.8 C 19.6 37.8 19.1 37.1 19.1 36.3 C 19.1 35.6 19.6 34.9 20.5 34.9 L 31.1 34.9 L 31.1 32.3 L 26.4 32.3 C 22.8 32.3 21.4 30.9 21.4 28.2 L 21.4 22.1 C 21.5 18.8 23.5 18.1 26.4 18.0 L 31.1 18.0 L 31.1 14.8 C 27.6 14.5 24.1 14.3 21.2 14.2 C 20.1 14.2 19.5 13.4 19.5 12.6 C 19.5 11.8 20.1 11.0 21.4 11.1 C 27.3 11.4 35.1 12.1 41.6 13.4 C 42.1 12.7 42.6 12.0 42.9 11.4 C 43.3 10.7 43.9 10.4 44.4 10.4 C 45.2 10.4 46.1 11.1 46.1 12.0 C 46.1 12.3 46.0 12.7 45.7 13.1 C 44.7 14.9 42.8 16.9 41.3 18.2 C 43.5 18.6 44.4 19.9 44.4 22.1 L 44.4 28.2 C 44.4 30.9 43.0 32.3 39.4 32.3 Z " transform="scale(1,-1)" stroke-dasharray="176.8582964804716" stroke-dashoffset="176.8582964804716"><animate attributeName="stroke-dashoffset" from="176.8582964804716" to="0" dur="5.305748894414148s" begin="0s; 15s; 30s; 45s; 60s" fill="freeze" id="anim0" /></path><path d="M 34.3 20.8 L 34.3 23.9 L 41.2 23.9 L 41.2 22.5 C 41.1 20.9 40.0 20.9 38.7 20.8 Z " transform="scale(1,-1)" stroke-dasharray="19.24751765894163" stroke-dashoffset="19.24751765894163"><animate attributeName="stroke-dashoffset" from="19.24751765894163" to="0" dur="0.5774255297682488s" begin="anim0.end" fill="freeze" id="anim1" /></path><path d="M 41.2 26.5 L 34.3 26.5 L 34.3 29.5 L 38.7 29.5 C 40.6 29.5 41.2 29.1 41.2 27.9 Z " transform="scale(1,-1)" stroke-dasharray="19.143579857765957" stroke-dashoffset="19.143579857765957"><animate attributeName="stroke-dashoffset" from="19.143579857765957" to="0" dur="0.5743073957329787s" begin="anim1.end" fill="freeze" id="anim2" /></path><path d="M 31.1 29.5 L 31.1 26.5 L 24.7 26.5 L 24.7 27.9 C 24.7 29.1 25.2 29.5 27.2 29.5 Z " transform="scale(1,-1)" stroke-dasharray="18.16434784848485" stroke-dashoffset="18.16434784848485"><animate attributeName="stroke-dashoffset" from="18.16434784848485" to="0" dur="0.5449304354545456s" begin="anim2.end" fill="freeze" id="anim3" /></path><path d="M 24.7 23.9 L 31.1 23.9 L 31.1 20.8 L 27.2 20.8 C 25.2 20.8 24.7 21.2 24.7 22.5 Z " transform="scale(1,-1)" stroke-dasharray="18.349725413293925" stroke-dashoffset="18.349725413293925"><animate attributeName="stroke-dashoffset" from="18.349725413293925" to="0" dur="0.5504917623988177s" begin="anim3.end" fill="freeze" id="anim4" /></path><path d="M 38.9 18.0 C 38.8 17.8 38.7 17.6 38.7 17.3 C 38.7 16.9 38.8 16.6 39.2 16.2 C 39.3 16.1 39.5 15.9 39.7 15.8 C 37.9 15.5 36.1 15.2 34.3 15.1 L 34.3 18.0 Z " transform="scale(1,-1)" stroke-dasharray="15.57433111101157" stroke-dashoffset="15.57433111101157"><animate attributeName="stroke-dashoffset" from="15.57433111101157" to="0" dur="0.4672299333303471s" begin="anim4.end" fill="freeze" id="anim5" /></path><path d="M 12.2 -2.6 C 15.4 -2.6 16.6 -1.2 16.6 1.6 L 16.6 8.0 C 16.6 10.8 15.4 12.1 12.2 12.1 L 8.0 12.1 C 4.8 12.1 3.6 10.8 3.6 8.0 L 3.6 1.6 C 3.6 -1.5 5.0 -2.5 8.0 -2.6 Z " transform="scale(1,-1)" stroke-dasharray="49.243311594088276" stroke-dashoffset="49.243311594088276"><animate attributeName="stroke-dashoffset" from="49.243311594088276" to="0" dur="1.4772993478226482s" begin="anim5.end" fill="freeze" id="anim6" /></path><path d="M 8.5 0.4 C 7.3 0.4 6.9 1.0 6.9 2.1 L 6.9 7.5 C 6.9 8.6 7.3 9.2 8.5 9.2 L 11.6 9.2 C 12.8 9.2 13.2 8.6 13.2 7.5 L 13.2 2.1 C 13.2 0.9 12.8 0.5 11.6 0.4 Z " transform="scale(1,-1)" stroke-dasharray="27.81058201805688" stroke-dashoffset="27.81058201805688"><animate attributeName="stroke-dashoffset" from="27.81058201805688" to="0" dur="0.8343174605417064s" begin="anim6.end" fill="freeze" id="anim7" /></path><path d="M 16.8 29.9 C 17.7 29.9 18.2 30.7 18.2 31.4 C 18.2 32.2 17.7 33.0 16.8 33.0 L 2.8 33.0 C 1.9 33.0 1.4 32.2 1.4 31.4 C 1.4 30.7 1.9 29.9 2.8 29.9 Z " transform="scale(1,-1)" stroke-dasharray="37.310890414937354" stroke-dashoffset="37.310890414937354"><animate attributeName="stroke-dashoffset" from="37.310890414937354" to="0" dur="1.1193267124481205s" begin="anim7.end" fill="freeze" id="anim8" /></path><path d="M 14.7 36.6 C 15.6 36.6 16.1 37.5 16.1 38.2 C 16.1 39.0 15.6 39.8 14.7 39.8 L 5.3 39.8 C 4.4 39.8 3.9 39.0 3.9 38.2 C 3.9 37.5 4.4 36.6 5.3 36.6 Z " transform="scale(1,-1)" stroke-dasharray="28.255283761781893" stroke-dashoffset="28.255283761781893"><animate attributeName="stroke-dashoffset" from="28.255283761781893" to="0" dur="0.8476585128534567s" begin="anim8.end" fill="freeze" id="anim9" /></path><path d="M 14.7 22.8 C 15.6 22.8 16.1 23.6 16.1 24.4 C 16.1 25.2 15.6 25.9 14.7 25.9 L 5.3 25.9 C 4.4 25.9 3.9 25.2 3.9 24.4 C 3.9 23.6 4.4 22.8 5.3 22.8 Z " transform="scale(1,-1)" stroke-dasharray="28.151131487675638" stroke-dashoffset="28.151131487675638"><animate attributeName="stroke-dashoffset" from="28.151131487675638" to="0" dur="0.8445339446302691s" begin="anim9.end" fill="freeze" id="anim10" /></path><path d="M 14.7 16.0 C 15.6 16.0 16.1 16.8 16.1 17.6 C 16.1 18.4 15.6 19.1 14.7 19.1 L 5.3 19.1 C 4.4 19.1 3.9 18.4 3.9 17.6 C 3.9 16.8 4.4 16.0 5.3 16.0 Z " transform="scale(1,-1)" stroke-dasharray="28.15113148767564" stroke-dashoffset="28.15113148767564"><animate attributeName="stroke-dashoffset" from="28.15113148767564" to="0" dur="0.8445339446302692s" begin="anim10.end" fill="freeze" id="anim11" /></path><path d="M 44.3 8.1 C 43.9 8.5 43.3 8.7 42.8 8.7 C 42.0 8.7 41.2 8.1 41.2 7.2 C 41.2 6.9 41.3 6.6 41.6 6.2 C 42.7 4.9 44.0 2.7 44.7 1.2 C 45.1 0.4 45.7 0.0 46.3 0.0 C 47.2 0.0 48.1 0.8 48.1 1.9 C 48.1 2.1 48.0 2.5 47.9 2.9 C 47.1 4.4 45.5 6.8 44.3 8.1 Z " transform="scale(1,-1)" stroke-dasharray="23.446650619805567" stroke-dashoffset="23.446650619805567"><animate attributeName="stroke-dashoffset" from="23.446650619805567" to="0" dur="0.7033995185941669s" begin="anim11.end" fill="freeze" id="anim12" /></path><path d="M 33.5 10.7 C 33.1 10.9 32.7 11.0 32.3 11.0 C 31.4 11.0 30.7 10.4 30.7 9.7 C 30.7 9.2 30.9 8.8 31.4 8.4 C 32.2 7.8 33.2 6.8 34.1 5.6 C 34.6 5.1 35.1 4.9 35.5 4.9 C 36.4 4.9 37.1 5.6 37.1 6.6 C 37.1 7.0 37.0 7.5 36.6 7.9 C 35.8 8.8 34.6 10.0 33.5 10.7 Z " transform="scale(1,-1)" stroke-dasharray="18.801104956716895" stroke-dashoffset="18.801104956716895"><animate attributeName="stroke-dashoffset" from="18.801104956716895" to="0" dur="0.5640331487015068s" begin="anim12.end" fill="freeze" id="anim13" /></path><path d="M 20.7 6.7 C 20.1 4.8 19.3 3.0 18.4 1.5 C 18.2 1.1 18.1 0.8 18.1 0.4 C 18.1 -0.6 18.9 -1.3 19.9 -1.3 C 20.5 -1.3 21.2 -1.0 21.6 -0.1 C 22.5 1.6 23.5 3.9 23.9 5.9 C 24.2 7.3 23.3 8.1 22.4 8.1 C 21.7 8.1 20.9 7.6 20.7 6.7 Z " transform="scale(1,-1)" stroke-dasharray="23.73079446367889" stroke-dashoffset="23.73079446367889"><animate attributeName="stroke-dashoffset" from="23.73079446367889" to="0" dur="0.7119238339103667s" begin="anim13.end" fill="freeze" id="anim14" /></path><path d="M 26.0 1.5 C 26.0 -2.0 27.2 -3.0 32.8 -3.0 C 39.0 -3.0 40.5 -1.6 41.1 2.3 C 41.2 3.5 40.3 4.2 39.4 4.2 C 38.7 4.2 38.0 3.8 37.8 2.8 C 37.5 0.5 36.7 0.2 32.7 0.2 C 30.0 0.2 29.4 0.7 29.4 2.2 L 29.4 6.7 C 29.4 7.9 28.5 8.5 27.7 8.5 C 26.9 8.5 26.0 7.9 26.0 6.7 Z" transform="scale(1,-1)" stroke-dasharray="52.29580442907693" stroke-dashoffset="52.29580442907693"><animate attributeName="stroke-dashoffset" from="52.29580442907693" to="0" dur="1.568874132872308s" begin="anim14.end" fill="freeze" id="anim_end" /></path></g></svg>