<?xml version='1.0' encoding='utf-8'?>
<svg viewBox="0 -44.0 50.0 50.0" version="1.1" xmlns="http://www.w3.org/2000/svg"><rect x="-1000" y="-1000" width="2000" height="2000" stroke="white" fill="white" /><g style="fill:none;stroke:#000000;stroke-width:1"><path d="M 36.3 37.8 L 32.9 37.8 L 32.9 40.5 C 32.9 41.4 32.1 41.9 31.5 41.9 C 30.7 41.9 30.0 41.4 30.0 40.5 L 30.0 37.8 L 28.0 37.8 C 24.8 37.8 23.7 36.4 23.7 34.1 L 23.7 27.0 C 23.7 24.2 25.4 23.4 28.0 23.3 L 41.6 23.3 C 44.8 23.3 45.9 24.7 45.9 27.0 L 45.9 34.1 C 45.9 36.4 44.8 37.8 41.6 37.8 L 39.2 37.8 L 39.2 40.5 C 39.2 41.4 38.5 41.9 37.8 41.9 C 37.1 41.9 36.3 41.4 36.3 40.5 Z " transform="scale(1,-1)" stroke-dasharray="81.49057832215028" stroke-dashoffset="81.49057832215028"><animate attributeName="stroke-dashoffset" from="81.49057832215028" to="0" dur="2.4447173496645083s" begin="0s; 15s; 30s; 45s; 60s" fill="freeze" id="anim0" /></path><path d="M 39.2 29.3 L 42.9 29.3 L 42.9 27.5 C 42.9 26.2 42.2 26.0 41.1 26.0 L 39.2 26.0 Z " transform="scale(1,-1)" stroke-dasharray="13.444824995524051" stroke-dashoffset="13.444824995524051"><animate attributeName="stroke-dashoffset" from="13.444824995524051" to="0" dur="0.4033447498657215s" begin="anim0.end" fill="freeze" id="anim1" /></path><path d="M 36.3 29.3 L 36.3 26.0 L 32.9 26.0 L 32.9 29.3 Z " transform="scale(1,-1)" stroke-dasharray="13.399999999999999" stroke-dashoffset="13.399999999999999"><animate attributeName="stroke-dashoffset" from="13.399999999999999" to="0" dur="0.40199999999999997s" begin="anim1.end" fill="freeze" id="anim2" /></path><path d="M 39.2 35.1 L 41.1 35.1 C 42.6 35.1 42.9 34.6 42.9 33.6 L 42.9 31.8 L 39.2 31.8 Z " transform="scale(1,-1)" stroke-dasharray="13.452694455204735" stroke-dashoffset="13.452694455204735"><animate attributeName="stroke-dashoffset" from="13.452694455204735" to="0" dur="0.40358083365614206s" begin="anim2.end" fill="freeze" id="anim3" /></path><path d="M 36.3 35.1 L 36.3 31.8 L 32.9 31.8 L 32.9 35.1 Z " transform="scale(1,-1)" stroke-dasharray="13.399999999999999" stroke-dashoffset="13.399999999999999"><animate attributeName="stroke-dashoffset" from="13.399999999999999" to="0" dur="0.40199999999999997s" begin="anim3.end" fill="freeze" id="anim4" /></path><path d="M 30.0 35.1 L 30.0 31.8 L 26.7 31.8 L 26.7 33.6 C 26.7 34.6 27.1 35.1 28.5 35.1 Z " transform="scale(1,-1)" stroke-dasharray="12.628207023089669" stroke-dashoffset="12.628207023089669"><animate attributeName="stroke-dashoffset" from="12.628207023089669" to="0" dur="0.37884621069269003s" begin="anim4.end" fill="freeze" id="anim5" /></path><path d="M 26.7 29.3 L 30.0 29.3 L 30.0 26.0 L 28.5 26.0 C 27.1 26.0 26.7 26.5 26.7 27.5 Z " transform="scale(1,-1)" stroke-dasharray="12.628207023089669" stroke-dashoffset="12.628207023089669"><animate attributeName="stroke-dashoffset" from="12.628207023089669" to="0" dur="0.37884621069269003s" begin="anim5.end" fill="freeze" id="anim6" /></path><path d="M 8.7 29.5 C 5.7 29.5 4.2 28.0 4.2 25.4 L 4.2 14.4 C 4.2 11.8 5.7 10.2 8.7 10.2 L 16.2 10.2 C 19.3 10.2 20.7 11.8 20.7 14.4 L 20.7 25.4 C 20.7 28.0 19.3 29.5 16.2 29.5 L 14.2 29.5 C 14.9 30.9 15.5 32.2 15.8 33.1 C 16.0 33.5 16.1 34.0 16.1 34.4 C 16.1 36.1 14.8 37.2 12.2 37.2 L 9.7 37.2 C 10.1 38.1 10.4 39.0 10.8 39.8 C 10.9 40.1 10.9 40.3 10.9 40.5 C 10.9 41.5 10.1 42.1 9.2 42.1 C 8.6 42.1 8.0 41.7 7.7 40.9 C 6.2 37.0 4.1 33.0 1.8 30.2 C 1.5 29.8 1.3 29.4 1.3 29.0 C 1.3 28.2 2.0 27.6 2.8 27.6 C 3.2 27.6 3.7 27.8 4.1 28.2 C 5.6 30.0 7.0 32.1 8.2 34.4 L 11.7 34.4 C 12.5 34.4 12.8 34.0 12.6 33.4 C 12.3 32.4 11.7 31.1 10.9 29.5 Z " transform="scale(1,-1)" stroke-dasharray="117.27724060327206" stroke-dashoffset="117.27724060327206"><animate attributeName="stroke-dashoffset" from="117.27724060327206" to="0" dur="3.518317218098162s" begin="anim6.end" fill="freeze" id="anim7" /></path><path d="M 17.7 18.8 L 17.7 14.7 C 17.7 13.5 17.4 13.0 15.8 13.0 L 13.9 13.0 L 13.9 18.8 Z " transform="scale(1,-1)" stroke-dasharray="18.62146970500238" stroke-dashoffset="18.62146970500238"><animate attributeName="stroke-dashoffset" from="18.62146970500238" to="0" dur="0.5586440911500714s" begin="anim7.end" fill="freeze" id="anim8" /></path><path d="M 17.7 21.6 L 13.9 21.6 L 13.9 26.8 L 15.8 26.8 C 17.4 26.8 17.7 26.2 17.7 25.0 Z " transform="scale(1,-1)" stroke-dasharray="17.386535077262028" stroke-dashoffset="17.386535077262028"><animate attributeName="stroke-dashoffset" from="17.386535077262028" to="0" dur="0.5215960523178609s" begin="anim8.end" fill="freeze" id="anim9" /></path><path d="M 11.0 26.8 L 11.0 21.6 L 7.4 21.6 L 7.4 25.0 C 7.4 26.2 7.6 26.8 9.2 26.8 Z " transform="scale(1,-1)" stroke-dasharray="17.025898191886583" stroke-dashoffset="17.025898191886583"><animate attributeName="stroke-dashoffset" from="17.025898191886583" to="0" dur="0.5107769457565975s" begin="anim9.end" fill="freeze" id="anim10" /></path><path d="M 7.4 18.8 L 11.0 18.8 L 11.0 13.0 L 9.2 13.0 C 7.6 13.0 7.4 13.5 7.4 14.7 Z " transform="scale(1,-1)" stroke-dasharray="18.259138357777196" stroke-dashoffset="18.259138357777196"><animate attributeName="stroke-dashoffset" from="18.259138357777196" to="0" dur="0.5477741507333159s" begin="anim10.end" fill="freeze" id="anim11" /></path><path d="M 39.8 6.0 C 42.9 6.0 44.0 7.5 44.0 9.7 L 44.0 12.1 C 44.0 14.4 42.9 15.7 39.8 15.7 L 29.7 15.7 C 26.6 15.7 25.5 14.4 25.5 12.1 L 25.5 9.6 C 25.6 6.7 27.3 6.1 29.9 6.0 Z " transform="scale(1,-1)" stroke-dasharray="50.5903855576539" stroke-dashoffset="50.5903855576539"><animate attributeName="stroke-dashoffset" from="50.5903855576539" to="0" dur="1.517711566729617s" begin="anim11.end" fill="freeze" id="anim12" /></path><path d="M 30.2 8.8 C 29.1 8.8 28.8 9.2 28.8 10.0 L 28.8 11.7 C 28.8 12.6 29.1 12.9 30.2 12.9 L 39.2 12.9 C 40.4 12.9 40.7 12.6 40.7 11.7 L 40.7 10.0 C 40.7 9.0 40.2 8.8 39.2 8.8 Z " transform="scale(1,-1)" stroke-dasharray="30.25021928860423" stroke-dashoffset="30.25021928860423"><animate attributeName="stroke-dashoffset" from="30.25021928860423" to="0" dur="0.9075065786581269s" begin="anim12.end" fill="freeze" id="anim13" /></path><path d="M 39.7 0.5 C 40.2 1.3 40.6 2.1 41.0 3.2 C 41.1 3.4 41.1 3.7 41.1 3.9 C 41.1 4.8 40.3 5.3 39.5 5.3 C 38.9 5.3 38.2 5.0 38.0 4.2 C 37.6 2.9 37.1 1.6 36.5 0.5 L 31.9 0.5 C 32.1 0.8 32.4 1.2 32.4 1.6 C 32.4 1.9 32.3 2.1 32.2 2.4 C 31.9 3.0 31.6 3.7 31.1 4.3 C 30.7 5.0 30.1 5.2 29.5 5.2 C 28.7 5.2 28.0 4.7 28.0 3.9 C 28.0 3.6 28.1 3.2 28.2 3.0 C 28.7 2.3 29.0 1.7 29.2 1.1 C 29.4 0.9 29.5 0.7 29.7 0.5 L 21.8 0.5 C 20.9 0.5 20.4 -0.2 20.4 -1.0 C 20.4 -1.7 20.9 -2.4 21.8 -2.4 L 46.9 -2.4 C 47.9 -2.4 48.4 -1.7 48.4 -1.0 C 48.4 -0.2 47.9 0.5 46.9 0.5 Z " transform="scale(1,-1)" stroke-dasharray="78.37865221375024" stroke-dashoffset="78.37865221375024"><animate attributeName="stroke-dashoffset" from="78.37865221375024" to="0" dur="2.351359566412507s" begin="anim13.end" fill="freeze" id="anim14" /></path><path d="M 4.3 6.7 C 3.9 4.5 3.1 2.0 2.1 -0.2 C 2.0 -0.5 1.9 -0.7 1.9 -1.0 C 1.9 -1.8 2.6 -2.4 3.4 -2.4 C 4.0 -2.4 4.5 -2.1 4.9 -1.4 C 6.0 0.8 6.9 3.8 7.2 6.2 C 7.5 7.4 6.6 8.0 5.8 8.0 C 5.1 8.0 4.5 7.6 4.3 6.7 Z " transform="scale(1,-1)" stroke-dasharray="25.083159480700957" stroke-dashoffset="25.083159480700957"><animate attributeName="stroke-dashoffset" from="25.083159480700957" to="0" dur="0.7524947844210287s" begin="anim14.end" fill="freeze" id="anim15" /></path><path d="M 11.4 6.7 C 11.2 7.4 10.6 7.8 9.9 7.8 C 9.2 7.8 8.5 7.2 8.6 6.2 C 8.9 4.7 9.2 2.6 9.2 0.5 C 9.2 -0.5 9.9 -1.0 10.6 -1.0 C 11.4 -1.0 12.2 -0.4 12.2 0.8 C 12.2 2.7 11.8 5.2 11.4 6.7 Z " transform="scale(1,-1)" stroke-dasharray="21.044227598936544" stroke-dashoffset="21.044227598936544"><animate attributeName="stroke-dashoffset" from="21.044227598936544" to="0" dur="0.6313268279680962s" begin="anim15.end" fill="freeze" id="anim16" /></path><path d="M 15.6 7.6 C 15.4 8.2 14.8 8.4 14.3 8.4 C 13.6 8.4 12.9 8.0 12.9 7.2 C 12.9 7.0 13.0 6.8 13.1 6.6 C 13.7 5.1 14.2 3.5 14.6 1.6 C 14.7 0.7 15.3 0.3 15.9 0.3 C 16.8 0.3 17.6 1.1 17.4 2.2 C 17.0 4.2 16.2 6.1 15.6 7.6 Z " transform="scale(1,-1)" stroke-dasharray="20.06936141452841" stroke-dashoffset="20.06936141452841"><animate attributeName="stroke-dashoffset" from="20.06936141452841" to="0" dur="0.6020808424358522s" begin="anim16.end" fill="freeze" id="anim17" /></path><path d="M 46.1 18.0 C 47.1 18.0 47.6 18.8 47.6 19.5 C 47.6 20.2 47.1 20.9 46.1 20.9 L 23.6 20.9 C 22.7 20.9 22.2 20.2 22.2 19.5 C 22.2 18.8 22.7 18.0 23.6 18.0 Z " transform="scale(1,-1)" stroke-dasharray="54.16280813580342" stroke-dashoffset="54.16280813580342"><animate attributeName="stroke-dashoffset" from="54.16280813580342" to="0" dur="1.6248842440741025s" begin="anim17.end" fill="freeze" id="anim18" /></path><path d="M 20.0 8.6 C 19.6 9.1 19.1 9.3 18.7 9.3 C 17.9 9.3 17.4 8.8 17.4 8.1 C 17.4 7.9 17.4 7.7 17.6 7.4 C 18.2 6.2 18.9 4.7 19.5 3.0 C 19.8 2.2 20.2 2.0 20.8 2.0 C 21.5 2.0 22.2 2.6 22.2 3.5 C 22.2 3.7 22.2 4.0 22.1 4.2 C 21.6 5.7 20.6 7.6 20.0 8.6 Z" transform="scale(1,-1)" stroke-dasharray="18.708140506447947" stroke-dashoffset="18.708140506447947"><animate attributeName="stroke-dashoffset" from="18.708140506447947" to="0" dur="0.5612442151934384s" begin="anim18.end" fill="freeze" id="anim_end" /></path></g></svg>