<?xml version='1.0' encoding='utf-8'?>
<svg viewBox="0 -44.0 50.0 50.0" version="1.1" xmlns="http://www.w3.org/2000/svg"><rect x="-1000" y="-1000" width="2000" height="2000" stroke="white" fill="white" /><g style="fill:none;stroke:#000000;stroke-width:1"><path d="M 11.8 31.4 L 3.9 31.4 C 3.0 31.4 2.5 30.7 2.5 30.0 C 2.5 29.2 3.0 28.5 3.9 28.5 L 10.2 28.5 C 7.7 25.2 4.2 22.0 2.5 20.7 C 1.9 20.2 1.6 19.7 1.6 19.2 C 1.6 18.4 2.2 17.8 3.1 17.8 C 3.4 17.8 3.8 17.9 4.2 18.2 C 7.2 20.4 10.0 23.2 12.0 25.9 L 11.8 22.5 L 11.8 20.2 C 11.8 19.2 12.6 18.8 13.4 18.8 C 14.2 18.8 15.0 19.2 15.0 20.2 L 15.0 23.7 C 16.9 22.8 19.1 21.3 20.7 19.9 C 21.1 19.6 21.5 19.4 21.9 19.4 C 22.8 19.4 23.5 20.2 23.5 21.0 C 23.5 21.5 23.2 22.0 22.7 22.5 C 20.8 24.0 17.8 25.6 15.0 26.7 L 15.0 28.5 L 22.4 28.5 C 23.3 28.5 23.8 29.2 23.8 30.0 C 23.8 30.7 23.3 31.4 22.4 31.4 L 15.0 31.4 L 15.0 35.9 C 16.9 36.4 18.8 36.9 20.4 37.5 C 21.4 37.8 21.8 38.4 21.8 39.1 C 21.8 39.8 21.1 40.6 20.1 40.6 C 19.9 40.6 19.6 40.6 19.3 40.5 C 15.4 39.0 9.9 37.8 5.6 37.4 C 4.5 37.2 4.0 36.6 4.0 35.9 C 4.0 35.1 4.6 34.2 5.9 34.4 C 7.7 34.6 9.7 34.9 11.8 35.2 Z " transform="scale(1,-1)" stroke-dasharray="147.12056617162503" stroke-dashoffset="147.12056617162503"><animate attributeName="stroke-dashoffset" from="147.12056617162503" to="0" dur="4.41361698514875s" begin="0s; 15s; 30s; 45s; 60s" fill="freeze" id="anim0" /></path><path d="M 40.0 5.8 C 43.4 5.8 44.9 7.2 44.9 10.2 L 44.9 27.7 C 44.9 30.7 43.6 32.1 40.2 32.1 L 36.1 32.1 C 36.6 33.5 37.0 34.9 37.4 36.3 L 46.5 36.3 C 47.5 36.3 47.9 37.1 47.9 37.8 C 47.9 38.6 47.5 39.3 46.5 39.3 L 25.4 39.3 C 24.5 39.3 24.1 38.6 24.1 37.8 C 24.1 37.1 24.5 36.3 25.4 36.3 L 34.1 36.3 C 33.6 34.9 33.2 33.5 32.7 32.1 L 31.5 32.1 C 28.1 32.1 26.7 30.8 26.7 27.8 L 26.7 10.2 C 26.8 6.9 28.5 5.8 31.7 5.8 Z " transform="scale(1,-1)" stroke-dasharray="135.72746921150875" stroke-dashoffset="135.72746921150875"><animate attributeName="stroke-dashoffset" from="135.72746921150875" to="0" dur="4.071824076345262s" begin="anim0.end" fill="freeze" id="anim1" /></path><path d="M 32.3 8.7 C 30.7 8.7 30.1 9.1 30.1 10.7 L 30.1 13.9 L 41.5 13.9 L 41.5 10.7 C 41.5 9.1 40.9 8.7 39.4 8.7 Z " transform="scale(1,-1)" stroke-dasharray="31.83153757302065" stroke-dashoffset="31.83153757302065"><animate attributeName="stroke-dashoffset" from="31.83153757302065" to="0" dur="0.9549461271906194s" begin="anim1.end" fill="freeze" id="anim2" /></path><path d="M 30.1 21.6 L 41.5 21.6 L 41.5 16.8 L 30.1 16.8 Z " transform="scale(1,-1)" stroke-dasharray="32.4" stroke-dashoffset="32.4"><animate attributeName="stroke-dashoffset" from="32.4" to="0" dur="0.972s" begin="anim2.end" fill="freeze" id="anim3" /></path><path d="M 41.5 24.5 L 30.1 24.5 L 30.1 27.2 C 30.1 28.8 30.6 29.2 32.2 29.2 L 39.5 29.2 C 41.1 29.2 41.5 28.8 41.5 27.2 Z " transform="scale(1,-1)" stroke-dasharray="30.92519366630193" stroke-dashoffset="30.92519366630193"><animate attributeName="stroke-dashoffset" from="30.92519366630193" to="0" dur="0.9277558099890578s" begin="anim3.end" fill="freeze" id="anim4" /></path><path d="M 19.2 12.6 C 19.2 15.1 18.2 16.4 15.2 16.4 L 11.3 16.4 C 8.2 16.4 7.2 15.1 7.2 12.6 C 7.2 5.7 5.9 2.1 3.2 -0.6 C 2.8 -1.2 2.5 -1.7 2.5 -2.1 C 2.5 -3.0 3.2 -3.7 4.0 -3.7 C 4.6 -3.7 5.2 -3.4 5.8 -2.8 C 9.1 0.6 10.5 4.9 10.5 12.1 C 10.5 13.1 10.8 13.4 11.9 13.4 L 14.6 13.4 C 15.7 13.4 16.0 13.1 16.0 12.1 L 16.0 4.4 C 15.2 4.0 14.5 3.7 13.8 3.4 C 13.0 3.1 12.7 2.4 12.7 1.8 C 12.7 1.0 13.3 0.1 14.3 0.1 C 14.6 0.1 14.9 0.2 15.2 0.3 C 18.2 1.7 21.6 3.6 24.3 5.5 C 24.9 5.9 25.2 6.4 25.2 6.9 C 25.2 7.7 24.5 8.4 23.6 8.4 C 23.2 8.4 22.9 8.3 22.6 8.1 C 21.5 7.4 20.4 6.7 19.2 6.1 Z " transform="scale(1,-1)" stroke-dasharray="102.31957669645895" stroke-dashoffset="102.31957669645895"><animate attributeName="stroke-dashoffset" from="102.31957669645895" to="0" dur="3.0695873008937684s" begin="anim4.end" fill="freeze" id="anim5" /></path><path d="M 41.0 4.0 C 40.5 4.5 40.0 4.7 39.5 4.7 C 38.6 4.7 37.9 4.0 37.9 3.2 C 37.9 2.8 38.0 2.4 38.4 2.0 C 40.1 0.2 42.6 -2.0 44.7 -3.3 C 45.1 -3.6 45.5 -3.7 45.9 -3.7 C 46.8 -3.7 47.6 -3.0 47.6 -2.1 C 47.6 -1.5 47.2 -0.9 46.5 -0.4 C 44.5 0.9 42.4 2.6 41.0 4.0 Z " transform="scale(1,-1)" stroke-dasharray="26.758161275457677" stroke-dashoffset="26.758161275457677"><animate attributeName="stroke-dashoffset" from="26.758161275457677" to="0" dur="0.8027448382637303s" begin="anim5.end" fill="freeze" id="anim6" /></path><path d="M 30.6 4.0 C 28.7 2.3 26.0 0.6 23.6 -0.6 C 22.7 -1.1 22.2 -1.8 22.2 -2.4 C 22.2 -3.2 23.0 -3.9 24.0 -3.9 C 24.3 -3.9 24.7 -3.8 25.1 -3.6 C 27.8 -2.2 30.8 -0.2 32.9 1.6 C 33.4 2.1 33.6 2.6 33.6 3.0 C 33.6 3.8 32.8 4.5 31.9 4.5 C 31.5 4.5 31.0 4.4 30.6 4.0 Z" transform="scale(1,-1)" stroke-dasharray="29.45125442909446" stroke-dashoffset="29.45125442909446"><animate attributeName="stroke-dashoffset" from="29.45125442909446" to="0" dur="0.8835376328728337s" begin="anim6.end" fill="freeze" id="anim_end" /></path></g></svg>