<?xml version='1.0' encoding='utf-8'?>
<svg viewBox="0 -44.0 50.0 50.0" version="1.1" xmlns="http://www.w3.org/2000/svg"><rect x="-1000" y="-1000" width="2000" height="2000" stroke="white" fill="white" /><g style="fill:none;stroke:#000000;stroke-width:1"><path d="M 14.7 17.2 L 14.7 22.5 L 18.9 22.5 C 21.9 22.5 23.2 23.9 23.2 25.9 L 23.2 29.8 C 23.2 31.9 21.9 33.2 18.9 33.2 L 16.4 33.2 C 17.4 34.9 18.6 37.1 19.4 39.2 C 19.5 39.6 19.6 39.8 19.6 40.1 C 19.6 41.1 18.8 41.7 17.9 41.7 C 17.2 41.7 16.4 41.2 16.1 40.2 C 15.2 38.0 14.2 35.4 13.0 33.2 L 3.9 33.2 C 3.0 33.2 2.6 32.6 2.6 31.8 C 2.6 31.1 3.0 30.4 3.9 30.4 L 11.5 30.4 L 11.5 25.4 L 8.3 25.4 C 5.6 25.4 4.4 24.2 4.0 21.8 L 2.5 14.2 C 2.3 13.1 3.1 12.5 4.0 12.5 C 4.8 12.5 5.6 13.0 5.8 14.0 L 5.8 14.3 L 10.2 14.3 C 8.1 10.2 5.2 6.3 2.0 3.9 C 1.4 3.4 1.2 2.9 1.2 2.4 C 1.2 1.6 1.8 0.9 2.6 0.9 C 3.0 0.9 3.5 1.1 3.9 1.4 C 7.0 4.0 10.0 7.9 11.7 11.0 L 11.5 4.2 L 11.5 -2.9 C 11.5 -3.8 12.3 -4.2 13.1 -4.2 C 13.9 -4.2 14.7 -3.8 14.7 -2.9 L 14.7 14.3 L 19.3 14.3 C 20.7 14.3 21.1 14.1 21.1 13.2 C 21.1 11.3 20.9 9.5 20.4 7.7 C 20.1 6.5 19.7 6.2 18.8 6.2 C 18.4 6.2 17.9 6.2 17.4 6.4 C 16.3 6.6 15.7 5.8 15.7 4.9 C 15.7 4.2 16.1 3.6 16.9 3.4 C 17.7 3.2 18.4 3.2 18.9 3.2 C 21.4 3.2 22.9 4.0 23.6 7.0 C 24.1 8.8 24.3 11.2 24.4 13.3 C 24.4 15.5 23.4 17.2 20.0 17.2 Z " transform="scale(1,-1)" stroke-dasharray="217.24176404397855" stroke-dashoffset="217.24176404397855"><animate attributeName="stroke-dashoffset" from="217.24176404397855" to="0" dur="6.517252921319356s" begin="0s; 15s; 30s; 45s; 60s" fill="freeze" id="anim0" /></path><path d="M 11.5 17.2 L 6.4 17.2 L 7.1 21.0 C 7.3 22.1 7.7 22.5 8.7 22.5 L 11.5 22.5 Z " transform="scale(1,-1)" stroke-dasharray="19.530119447472483" stroke-dashoffset="19.530119447472483"><animate attributeName="stroke-dashoffset" from="19.530119447472483" to="0" dur="0.5859035834241745s" begin="anim0.end" fill="freeze" id="anim1" /></path><path d="M 14.7 25.4 L 14.7 30.4 L 18.2 30.4 C 19.7 30.4 20.0 30.1 20.0 29.2 L 20.0 26.6 C 20.0 25.7 19.7 25.4 18.2 25.4 Z " transform="scale(1,-1)" stroke-dasharray="19.689863351751608" stroke-dashoffset="19.689863351751608"><animate attributeName="stroke-dashoffset" from="19.689863351751608" to="0" dur="0.5906959005525482s" begin="anim1.end" fill="freeze" id="anim2" /></path><path d="M 30.1 22.9 L 39.4 22.9 C 42.9 22.9 44.4 24.2 44.4 26.9 L 44.4 33.2 C 44.4 35.8 43.0 37.2 39.4 37.2 L 36.2 37.2 C 36.5 38.1 36.8 39.1 37.0 40.0 C 37.3 41.2 36.3 41.9 35.4 41.9 C 34.6 41.9 33.9 41.5 33.7 40.6 C 33.5 39.5 33.1 38.4 32.8 37.2 L 31.7 37.2 C 28.1 37.2 26.8 35.8 26.8 33.1 L 26.8 14.8 C 26.8 12.1 27.9 10.9 31.2 10.9 L 42.6 10.9 C 44.1 10.9 44.5 10.5 44.5 9.3 C 44.4 7.0 44.0 3.9 43.4 2.0 C 42.9 0.4 42.0 -0.2 40.7 -0.2 C 40.1 -0.2 39.3 -0.1 38.4 0.1 C 37.3 0.4 36.6 -0.6 36.6 -1.5 C 36.6 -2.2 37.1 -3.0 38.1 -3.2 C 39.0 -3.4 39.9 -3.5 40.9 -3.5 C 43.8 -3.5 45.5 -2.1 46.5 1.1 C 47.2 3.4 47.7 6.6 47.8 9.5 C 47.9 12.1 46.8 13.8 43.4 13.8 L 31.7 13.8 C 30.5 13.8 30.1 14.2 30.1 15.2 L 30.1 17.0 L 46.9 17.0 C 47.9 17.0 48.3 17.8 48.3 18.4 C 48.3 19.2 47.9 19.9 46.9 19.9 L 30.1 19.9 Z " transform="scale(1,-1)" stroke-dasharray="195.43572813536218" stroke-dashoffset="195.43572813536218"><animate attributeName="stroke-dashoffset" from="195.43572813536218" to="0" dur="5.863071844060865s" begin="anim2.end" fill="freeze" id="anim3" /></path><path d="M 30.1 25.7 L 30.1 28.8 L 41.1 28.8 L 41.1 27.2 C 41.1 25.8 40.0 25.8 38.8 25.7 Z " transform="scale(1,-1)" stroke-dasharray="27.547434465294987" stroke-dashoffset="27.547434465294987"><animate attributeName="stroke-dashoffset" from="27.547434465294987" to="0" dur="0.8264230339588496s" begin="anim3.end" fill="freeze" id="anim4" /></path><path d="M 41.1 31.5 L 30.1 31.5 L 30.1 32.9 C 30.1 34.1 30.6 34.5 32.2 34.5 L 38.8 34.5 C 40.6 34.5 41.1 34.1 41.1 32.9 Z " transform="scale(1,-1)" stroke-dasharray="26.772110981017203" stroke-dashoffset="26.772110981017203"><animate attributeName="stroke-dashoffset" from="26.772110981017203" to="0" dur="0.803163329430516s" begin="anim4.end" fill="freeze" id="anim5" /></path><path d="M 8.8 40.6 C 8.4 41.2 7.8 41.4 7.2 41.4 C 6.4 41.4 5.6 40.8 5.6 39.9 C 5.6 39.6 5.7 39.2 6.0 38.9 C 6.4 38.1 7.1 36.9 7.6 35.7 C 7.9 34.9 8.6 34.5 9.2 34.5 C 10.1 34.5 10.9 35.1 10.9 36.2 C 10.9 36.5 10.9 36.9 10.7 37.2 C 10.2 38.2 9.5 39.6 8.8 40.6 Z " transform="scale(1,-1)" stroke-dasharray="18.745097820435006" stroke-dashoffset="18.745097820435006"><animate attributeName="stroke-dashoffset" from="18.745097820435006" to="0" dur="0.5623529346130501s" begin="anim5.end" fill="freeze" id="anim6" /></path><path d="M 25.2 6.6 C 24.8 4.5 24.4 2.4 23.7 0.5 C 23.6 0.2 23.5 0.0 23.5 -0.2 C 23.5 -1.1 24.2 -1.6 25.0 -1.6 C 25.6 -1.6 26.2 -1.2 26.6 -0.5 C 27.3 1.4 27.9 4.0 28.1 6.2 C 28.2 7.4 27.4 8.0 26.6 8.0 C 25.9 8.0 25.2 7.5 25.2 6.6 Z " transform="scale(1,-1)" stroke-dasharray="23.116804730046645" stroke-dashoffset="23.116804730046645"><animate attributeName="stroke-dashoffset" from="23.116804730046645" to="0" dur="0.6935041419013993s" begin="anim6.end" fill="freeze" id="anim7" /></path><path d="M 31.9 7.1 C 31.7 7.8 31.1 8.1 30.5 8.1 C 29.9 8.1 29.2 7.6 29.2 6.8 C 29.2 6.7 29.2 6.5 29.3 6.2 C 29.7 5.1 30.1 3.5 30.3 1.8 C 30.5 0.9 31.1 0.4 31.8 0.4 C 32.6 0.4 33.5 1.1 33.2 2.4 C 33.0 3.7 32.4 5.9 31.9 7.1 Z " transform="scale(1,-1)" stroke-dasharray="18.97366591417731" stroke-dashoffset="18.97366591417731"><animate attributeName="stroke-dashoffset" from="18.97366591417731" to="0" dur="0.5692099774253193s" begin="anim7.end" fill="freeze" id="anim8" /></path><path d="M 40.0 9.5 C 39.7 9.9 39.3 10.0 39.0 10.0 C 38.3 10.0 37.7 9.5 37.7 8.8 C 37.7 8.6 37.8 8.3 38.0 8.1 C 38.7 7.1 39.4 6.0 39.9 4.9 C 40.2 4.2 40.8 3.9 41.2 3.9 C 42.0 3.9 42.6 4.5 42.6 5.2 C 42.6 5.6 42.5 5.9 42.3 6.2 C 41.8 7.2 40.9 8.6 40.0 9.5 Z " transform="scale(1,-1)" stroke-dasharray="16.58645947414752" stroke-dashoffset="16.58645947414752"><animate attributeName="stroke-dashoffset" from="16.58645947414752" to="0" dur="0.49759378422442563s" begin="anim8.end" fill="freeze" id="anim9" /></path><path d="M 36.1 8.1 C 35.7 8.7 35.2 8.8 34.7 8.8 C 34.1 8.8 33.5 8.4 33.5 7.7 C 33.5 7.5 33.5 7.2 33.6 7.0 C 34.3 5.8 34.9 4.5 35.2 3.3 C 35.5 2.5 36.1 2.1 36.6 2.1 C 37.4 2.1 38.1 2.7 38.1 3.6 C 38.1 3.8 38.1 4.0 38.0 4.3 C 37.5 5.5 36.8 7.0 36.1 8.1 Z" transform="scale(1,-1)" stroke-dasharray="17.503078346013034" stroke-dashoffset="17.503078346013034"><animate attributeName="stroke-dashoffset" from="17.503078346013034" to="0" dur="0.525092350380391s" begin="anim9.end" fill="freeze" id="anim_end" /></path></g></svg>