<?xml version='1.0' encoding='utf-8'?>
<svg viewBox="0 -44.0 50.0 50.0" version="1.1" xmlns="http://www.w3.org/2000/svg"><rect x="-1000" y="-1000" width="2000" height="2000" stroke="white" fill="white" /><g style="fill:none;stroke:#000000;stroke-width:1"><path d="M 30.2 10.2 C 27.5 6.4 23.9 2.9 20.6 0.8 C 19.9 0.4 19.6 -0.2 19.6 -0.8 C 19.6 -1.6 20.2 -2.2 21.1 -2.2 C 21.4 -2.2 21.8 -2.1 22.2 -1.9 C 25.9 0.4 29.8 4.2 32.3 7.9 L 32.1 4.0 L 32.1 -2.8 C 32.1 -3.8 33.0 -4.3 33.8 -4.3 C 34.6 -4.3 35.5 -3.8 35.5 -2.8 L 35.5 4.1 L 35.3 8.0 C 38.0 4.2 41.9 0.7 45.9 -1.5 C 46.2 -1.7 46.6 -1.7 46.9 -1.7 C 47.9 -1.7 48.6 -0.8 48.6 0.2 C 48.6 0.8 48.2 1.5 47.4 2.0 C 43.6 3.9 39.7 7.0 37.1 10.2 L 45.5 10.2 C 46.5 10.2 46.9 11.0 46.9 11.7 C 46.9 12.5 46.5 13.2 45.5 13.2 L 35.5 13.2 L 35.5 16.4 C 35.5 17.4 34.6 17.9 33.8 17.9 C 33.0 17.9 32.1 17.4 32.1 16.4 L 32.1 13.2 L 23.5 13.2 C 22.6 13.2 22.1 12.5 22.1 11.7 C 22.1 11.0 22.6 10.2 23.5 10.2 Z " transform="scale(1,-1)" stroke-dasharray="147.7872526117925" stroke-dashoffset="147.7872526117925"><animate attributeName="stroke-dashoffset" from="147.7872526117925" to="0" dur="4.433617578353775s" begin="0s; 15s; 30s; 45s; 60s" fill="freeze" id="anim0" /></path><path d="M 32.2 32.1 L 32.2 28.2 C 32.2 25.7 33.5 24.6 35.8 24.6 L 39.2 24.6 C 41.7 24.6 42.8 25.7 42.8 28.2 L 42.8 32.1 L 46.7 32.1 C 47.6 32.1 48.1 32.9 48.1 33.6 C 48.1 34.3 47.6 35.0 46.7 35.0 L 42.8 35.0 L 42.8 40.1 C 42.8 41.1 42.0 41.6 41.2 41.6 C 40.4 41.6 39.6 41.1 39.6 40.1 L 39.6 35.0 L 35.4 35.0 L 35.4 40.1 C 35.4 41.1 34.6 41.6 33.8 41.6 C 33.0 41.6 32.2 41.1 32.2 40.1 L 32.2 35.0 L 28.0 35.0 L 28.0 39.6 C 28.0 40.6 27.1 41.1 26.2 41.1 C 25.4 41.1 24.6 40.6 24.6 39.6 L 24.6 35.0 L 20.9 35.0 C 20.0 35.0 19.6 34.3 19.6 33.6 C 19.6 32.9 20.0 32.1 20.9 32.1 L 24.6 32.1 L 24.6 23.9 C 24.6 20.4 26.4 18.9 29.9 18.9 L 44.5 18.9 C 45.5 18.9 45.9 19.7 45.9 20.5 C 45.9 21.2 45.5 22.0 44.5 22.0 L 30.2 22.0 C 28.7 22.0 28.0 22.7 28.0 24.7 L 28.0 32.1 Z " transform="scale(1,-1)" stroke-dasharray="165.75754682086128" stroke-dashoffset="165.75754682086128"><animate attributeName="stroke-dashoffset" from="165.75754682086128" to="0" dur="4.972726404625838s" begin="anim0.end" fill="freeze" id="anim1" /></path><path d="M 35.4 32.1 L 39.6 32.1 L 39.6 28.9 C 39.6 27.8 39.2 27.4 38.2 27.4 L 36.8 27.4 C 35.8 27.4 35.4 27.8 35.4 28.9 Z " transform="scale(1,-1)" stroke-dasharray="16.78936616778049" stroke-dashoffset="16.78936616778049"><animate attributeName="stroke-dashoffset" from="16.78936616778049" to="0" dur="0.5036809850334146s" begin="anim1.end" fill="freeze" id="anim2" /></path><path d="M 15.9 9.9 C 18.9 9.9 20.2 11.5 20.2 14.0 L 20.2 25.1 C 20.2 27.7 18.9 29.2 15.9 29.2 L 14.0 29.2 C 14.7 30.7 15.2 31.9 15.6 32.8 C 15.7 33.3 15.8 33.8 15.8 34.1 C 15.8 35.8 14.5 37.0 12.1 37.0 L 9.6 37.0 C 9.9 37.8 10.3 38.7 10.6 39.6 C 10.7 39.8 10.8 40.1 10.8 40.2 C 10.8 41.2 10.0 41.8 9.1 41.8 C 8.5 41.8 7.8 41.5 7.5 40.6 C 6.1 36.8 4.0 32.7 1.8 29.9 C 1.5 29.5 1.3 29.1 1.3 28.7 C 1.3 27.9 2.0 27.3 2.8 27.3 C 3.2 27.3 3.7 27.5 4.1 28.0 C 5.6 29.7 6.9 31.8 8.2 34.1 L 11.5 34.1 C 12.3 34.1 12.6 33.7 12.4 33.1 C 12.1 32.1 11.6 30.8 10.8 29.2 L 8.6 29.2 C 5.6 29.2 4.2 27.7 4.2 25.1 L 4.2 14.0 C 4.2 11.2 5.8 10.0 8.6 9.9 Z " transform="scale(1,-1)" stroke-dasharray="116.02349438773675" stroke-dashoffset="116.02349438773675"><animate attributeName="stroke-dashoffset" from="116.02349438773675" to="0" dur="3.480704831632102s" begin="anim2.end" fill="freeze" id="anim3" /></path><path d="M 17.2 18.5 L 17.2 14.4 C 17.2 13.2 16.9 12.7 15.4 12.7 L 13.7 12.7 L 13.7 18.5 Z " transform="scale(1,-1)" stroke-dasharray="18.032119819250983" stroke-dashoffset="18.032119819250983"><animate attributeName="stroke-dashoffset" from="18.032119819250983" to="0" dur="0.5409635945775295s" begin="anim3.end" fill="freeze" id="anim4" /></path><path d="M 17.2 21.3 L 13.7 21.3 L 13.7 26.5 L 15.4 26.5 C 16.9 26.5 17.2 26.0 17.2 24.8 Z " transform="scale(1,-1)" stroke-dasharray="16.83211981925098" stroke-dashoffset="16.83211981925098"><animate attributeName="stroke-dashoffset" from="16.83211981925098" to="0" dur="0.5049635945775294s" begin="anim4.end" fill="freeze" id="anim5" /></path><path d="M 10.7 26.5 L 10.7 21.3 L 7.2 21.3 L 7.2 24.8 C 7.2 26.0 7.5 26.5 9.0 26.5 Z " transform="scale(1,-1)" stroke-dasharray="16.83211981925098" stroke-dashoffset="16.83211981925098"><animate attributeName="stroke-dashoffset" from="16.83211981925098" to="0" dur="0.5049635945775294s" begin="anim5.end" fill="freeze" id="anim6" /></path><path d="M 7.2 18.5 L 10.7 18.5 L 10.7 12.7 L 9.0 12.7 C 7.5 12.7 7.2 13.2 7.2 14.4 Z " transform="scale(1,-1)" stroke-dasharray="18.032119819250983" stroke-dashoffset="18.032119819250983"><animate attributeName="stroke-dashoffset" from="18.032119819250983" to="0" dur="0.5409635945775295s" begin="anim6.end" fill="freeze" id="anim7" /></path><path d="M 4.2 6.5 C 3.8 4.2 3.1 1.8 2.0 -0.5 C 1.9 -0.8 1.9 -1.0 1.9 -1.2 C 1.9 -2.1 2.6 -2.6 3.4 -2.6 C 4.0 -2.6 4.5 -2.4 4.9 -1.7 C 5.9 0.5 6.8 3.5 7.2 6.0 C 7.4 7.1 6.5 7.7 5.7 7.7 C 5.0 7.7 4.4 7.4 4.2 6.5 Z " transform="scale(1,-1)" stroke-dasharray="25.000291594481727" stroke-dashoffset="25.000291594481727"><animate attributeName="stroke-dashoffset" from="25.000291594481727" to="0" dur="0.7500087478344518s" begin="anim7.end" fill="freeze" id="anim8" /></path><path d="M 11.2 6.3 C 11.0 7.1 10.3 7.5 9.7 7.5 C 9.0 7.5 8.2 6.9 8.5 5.9 C 8.8 4.2 9.0 2.2 9.0 0.1 C 9.0 -0.9 9.7 -1.4 10.4 -1.4 C 11.2 -1.4 12.0 -0.8 12.0 0.5 C 12.0 2.3 11.6 4.9 11.2 6.3 Z " transform="scale(1,-1)" stroke-dasharray="21.200877421482875" stroke-dashoffset="21.200877421482875"><animate attributeName="stroke-dashoffset" from="21.200877421482875" to="0" dur="0.6360263226444862s" begin="anim8.end" fill="freeze" id="anim9" /></path><path d="M 15.2 7.1 C 15.0 7.7 14.5 8.0 14.0 8.0 C 13.3 8.0 12.7 7.5 12.7 6.7 C 12.7 6.6 12.7 6.3 12.8 6.1 C 13.4 4.7 14.0 2.8 14.3 0.9 C 14.5 0.1 15.0 -0.4 15.6 -0.4 C 16.4 -0.4 17.3 0.4 17.1 1.6 C 16.7 3.5 15.9 5.6 15.2 7.1 Z " transform="scale(1,-1)" stroke-dasharray="20.353278803163235" stroke-dashoffset="20.353278803163235"><animate attributeName="stroke-dashoffset" from="20.353278803163235" to="0" dur="0.610598364094897s" begin="anim9.end" fill="freeze" id="anim10" /></path><path d="M 19.5 8.0 C 19.2 8.5 18.7 8.7 18.2 8.7 C 17.6 8.7 16.9 8.2 16.9 7.5 C 16.9 7.2 17.0 7.0 17.2 6.8 C 17.9 5.6 18.2 4.6 18.8 2.9 C 19.1 2.1 19.6 1.8 20.1 1.8 C 20.8 1.8 21.5 2.4 21.5 3.4 C 21.5 3.6 21.5 3.9 21.4 4.1 C 20.8 5.7 20.2 7.0 19.5 8.0 Z" transform="scale(1,-1)" stroke-dasharray="17.754651883884925" stroke-dashoffset="17.754651883884925"><animate attributeName="stroke-dashoffset" from="17.754651883884925" to="0" dur="0.5326395565165477s" begin="anim10.end" fill="freeze" id="anim_end" /></path></g></svg>