<?xml version='1.0' encoding='utf-8'?>
<svg viewBox="0 -44.0 50.0 50.0" version="1.1" xmlns="http://www.w3.org/2000/svg"><rect x="-1000" y="-1000" width="2000" height="2000" stroke="white" fill="white" /><g style="fill:none;stroke:#000000;stroke-width:1"><path d="M 24.2 32.5 L 16.2 32.5 C 15.2 32.5 14.7 31.8 14.7 31.1 C 14.7 30.4 15.2 29.7 16.2 29.7 L 46.3 29.7 C 47.3 29.7 47.8 30.4 47.8 31.1 C 47.8 31.8 47.3 32.5 46.3 32.5 L 40.7 32.5 L 40.7 35.1 C 40.7 37.3 39.5 38.5 36.1 38.5 L 29.4 38.5 L 29.9 40.3 C 30.2 41.5 29.2 42.1 28.2 42.1 C 27.5 42.1 26.7 41.8 26.5 41.0 L 25.9 38.5 L 19.3 38.5 C 18.4 38.5 17.9 37.8 17.9 37.1 C 17.9 36.4 18.4 35.7 19.3 35.7 L 25.1 35.7 Z " transform="scale(1,-1)" stroke-dasharray="98.46637738053714" stroke-dashoffset="98.46637738053714"><animate attributeName="stroke-dashoffset" from="98.46637738053714" to="0" dur="2.953991321416114s" begin="0s; 15s; 30s; 45s; 60s" fill="freeze" id="anim0" /></path><path d="M 27.8 32.5 L 28.7 35.7 L 35.6 35.7 C 37.0 35.7 37.3 35.5 37.3 34.6 L 37.3 32.5 Z " transform="scale(1,-1)" stroke-dasharray="24.220675068105763" stroke-dashoffset="24.220675068105763"><animate attributeName="stroke-dashoffset" from="24.220675068105763" to="0" dur="0.7266202520431728s" begin="anim0.end" fill="freeze" id="anim1" /></path><path d="M 37.1 17.8 C 40.4 17.8 41.6 18.9 41.6 21.1 L 41.6 23.8 C 41.6 25.9 40.4 27.1 37.1 27.1 L 24.1 27.1 C 20.8 27.1 19.6 25.9 19.6 23.8 L 19.6 21.1 C 19.6 18.9 20.8 17.8 24.1 17.8 L 31.2 17.8 L 31.2 15.1 L 18.3 15.1 C 17.4 15.1 16.9 14.4 16.9 13.7 C 16.9 13.0 17.4 12.2 18.3 12.2 L 21.5 12.2 L 21.5 9.0 L 16.4 9.0 C 15.5 9.0 15.0 8.2 15.0 7.6 C 15.0 6.9 15.5 6.2 16.4 6.2 L 31.2 6.2 L 31.2 3.9 C 31.2 2.9 32.1 2.4 32.9 2.4 C 33.8 2.4 34.6 2.9 34.6 3.9 L 34.6 6.2 L 45.8 6.2 C 46.8 6.2 47.2 6.9 47.2 7.6 C 47.2 8.2 46.8 9.0 45.8 9.0 L 34.6 9.0 L 34.6 12.2 L 43.2 12.2 C 44.2 12.2 44.7 13.0 44.7 13.7 C 44.7 14.4 44.2 15.1 43.2 15.1 L 34.6 15.1 L 34.6 17.8 Z " transform="scale(1,-1)" stroke-dasharray="168.7341625319196" stroke-dashoffset="168.7341625319196"><animate attributeName="stroke-dashoffset" from="168.7341625319196" to="0" dur="5.062024875957587s" begin="anim1.end" fill="freeze" id="anim2" /></path><path d="M 24.6 20.5 C 23.3 20.5 22.9 20.8 22.9 21.6 L 22.9 23.2 C 22.9 24.1 23.3 24.3 24.6 24.3 L 36.6 24.3 C 37.9 24.3 38.2 24.1 38.2 23.2 L 38.2 21.6 C 38.2 20.6 37.5 20.5 36.6 20.5 Z " transform="scale(1,-1)" stroke-dasharray="36.47914516902625" stroke-dashoffset="36.47914516902625"><animate attributeName="stroke-dashoffset" from="36.47914516902625" to="0" dur="1.0943743550707876s" begin="anim2.end" fill="freeze" id="anim3" /></path><path d="M 24.9 12.2 L 31.2 12.2 L 31.2 9.0 L 24.9 9.0 Z " transform="scale(1,-1)" stroke-dasharray="19.0" stroke-dashoffset="19.0"><animate attributeName="stroke-dashoffset" from="19.0" to="0" dur="0.57s" begin="anim3.end" fill="freeze" id="anim4" /></path><path d="M 12.5 16.6 C 12.5 19.5 11.4 20.7 8.2 20.7 L 3.9 20.7 C 2.9 20.7 2.4 19.9 2.4 19.1 C 2.4 18.2 2.9 17.4 3.9 17.4 L 7.4 17.4 C 8.8 17.4 9.1 17.2 9.1 16.0 L 9.1 6.0 C 7.2 3.8 5.1 1.9 2.9 0.5 C 2.1 -0.1 1.8 -0.7 1.8 -1.3 C 1.8 -2.2 2.6 -3.0 3.5 -3.0 C 3.9 -3.0 4.3 -2.9 4.8 -2.5 C 7.2 -0.7 9.5 1.4 11.2 3.7 C 14.9 -0.7 20.6 -2.2 33.0 -2.2 C 38.5 -2.2 42.7 -2.1 46.7 -1.8 C 47.8 -1.7 48.3 -0.8 48.3 0.0 C 48.3 1.0 47.7 1.9 46.4 1.8 C 42.4 1.4 38.2 1.2 32.8 1.2 C 19.8 1.2 15.5 2.8 12.5 6.6 Z " transform="scale(1,-1)" stroke-dasharray="143.99385932369694" stroke-dashoffset="143.99385932369694"><animate attributeName="stroke-dashoffset" from="143.99385932369694" to="0" dur="4.319815779710908s" begin="anim4.end" fill="freeze" id="anim5" /></path><path d="M 7.8 38.9 C 7.4 39.2 7.0 39.3 6.6 39.3 C 5.6 39.3 4.9 38.6 4.9 37.7 C 4.9 37.2 5.1 36.7 5.7 36.2 C 7.0 35.2 8.7 33.6 9.9 32.1 C 10.4 31.5 11.0 31.2 11.5 31.2 C 12.4 31.2 13.2 32.1 13.2 33.1 C 13.2 33.6 13.1 34.1 12.6 34.6 C 11.4 36.1 9.4 37.8 7.8 38.9 Z" transform="scale(1,-1)" stroke-dasharray="24.372208627648156" stroke-dashoffset="24.372208627648156"><animate attributeName="stroke-dashoffset" from="24.372208627648156" to="0" dur="0.7311662588294446s" begin="anim5.end" fill="freeze" id="anim_end" /></path></g></svg>