<?xml version='1.0' encoding='utf-8'?>
<svg viewBox="0 -44.0 50.0 50.0" version="1.1" xmlns="http://www.w3.org/2000/svg"><rect x="-1000" y="-1000" width="2000" height="2000" stroke="white" fill="white" /><g style="fill:none;stroke:#000000;stroke-width:1"><path d="M 17.8 5.2 C 18.4 4.5 19.1 3.9 19.5 3.2 C 19.8 2.8 20.2 2.6 20.6 2.6 C 21.2 2.6 21.7 3.2 21.7 3.9 C 21.7 4.2 21.6 4.7 21.2 5.1 C 20.7 5.8 19.8 6.7 18.7 7.6 C 18.9 8.6 19.2 9.7 19.5 10.7 C 19.8 11.7 19.1 12.2 18.3 12.2 C 17.8 12.2 17.3 12.0 17.2 11.2 C 16.4 8.3 15.4 5.4 14.2 3.2 C 14.1 3.0 14.1 2.7 14.1 2.5 C 14.1 1.8 14.6 1.4 15.2 1.4 C 15.6 1.4 16.1 1.6 16.4 2.1 C 16.9 3.0 17.4 4.1 17.8 5.2 Z " transform="scale(1,-1)" stroke-dasharray="33.74035769339051" stroke-dashoffset="33.74035769339051"><animate attributeName="stroke-dashoffset" from="33.74035769339051" to="0" dur="1.0122107308017152s" begin="0s; 15s; 30s; 45s; 60s" fill="freeze" id="anim0" /></path><path d="M 11.2 5.7 C 11.6 5.2 12.0 4.8 12.3 4.2 C 12.6 3.9 13.0 3.7 13.3 3.7 C 13.9 3.7 14.5 4.2 14.5 5.0 C 14.5 5.4 14.4 5.8 14.0 6.2 C 13.5 6.8 12.8 7.5 12.1 8.2 C 12.3 9.0 12.6 9.8 12.8 10.6 C 13.0 11.6 12.2 12.2 11.5 12.2 C 11.0 12.2 10.5 11.9 10.3 11.2 C 9.7 8.3 8.6 5.6 7.5 3.6 C 7.4 3.3 7.4 3.1 7.4 2.9 C 7.4 2.2 7.9 1.7 8.6 1.7 C 9.0 1.7 9.5 1.9 9.8 2.6 C 10.2 3.4 10.8 4.5 11.2 5.7 Z " transform="scale(1,-1)" stroke-dasharray="31.37061792865977" stroke-dashoffset="31.37061792865977"><animate attributeName="stroke-dashoffset" from="31.37061792865977" to="0" dur="0.941118537859793s" begin="anim0.end" fill="freeze" id="anim1" /></path><path d="M 22.2 15.9 L 6.7 15.9 L 6.7 25.6 C 6.7 26.5 5.9 27.0 5.1 27.0 C 4.3 27.0 3.5 26.5 3.5 25.6 L 3.5 1.8 C 3.5 -1.6 5.1 -2.8 8.2 -2.8 L 20.7 -2.8 C 23.8 -2.8 25.4 -1.6 25.4 1.8 L 25.4 25.6 C 25.4 26.5 24.6 27.0 23.8 27.0 C 23.0 27.0 22.2 26.5 22.2 25.6 Z " transform="scale(1,-1)" stroke-dasharray="119.73895994833954" stroke-dashoffset="119.73895994833954"><animate attributeName="stroke-dashoffset" from="119.73895994833954" to="0" dur="3.592168798450186s" begin="anim1.end" fill="freeze" id="anim2" /></path><path d="M 6.7 13.1 L 22.2 13.1 L 22.2 2.2 C 22.2 0.4 21.6 0.2 19.9 0.2 L 9.0 0.2 C 7.2 0.2 6.7 0.4 6.7 2.2 Z " transform="scale(1,-1)" stroke-dasharray="55.54417492774701" stroke-dashoffset="55.54417492774701"><animate attributeName="stroke-dashoffset" from="55.54417492774701" to="0" dur="1.6663252478324102s" begin="anim2.end" fill="freeze" id="anim3" /></path><path d="M 42.0 -2.2 C 45.5 -2.2 47.1 -0.8 47.1 2.3 L 47.1 11.7 C 47.1 14.7 45.5 16.2 42.0 16.2 L 34.2 16.2 C 30.8 16.2 29.2 14.7 29.2 11.7 L 29.2 2.3 C 29.2 -1.1 31.1 -2.1 34.2 -2.2 Z " transform="scale(1,-1)" stroke-dasharray="65.53007275707435" stroke-dashoffset="65.53007275707435"><animate attributeName="stroke-dashoffset" from="65.53007275707435" to="0" dur="1.9659021827122305s" begin="anim3.end" fill="freeze" id="anim4" /></path><path d="M 34.9 0.9 C 33.2 0.9 32.6 1.5 32.6 2.9 L 32.6 11.1 C 32.6 12.4 33.2 13.1 34.9 13.1 L 41.3 13.1 C 43.0 13.1 43.6 12.4 43.6 11.1 L 43.6 2.9 C 43.6 1.3 42.7 0.9 41.3 0.9 Z " transform="scale(1,-1)" stroke-dasharray="43.330197480991224" stroke-dashoffset="43.330197480991224"><animate attributeName="stroke-dashoffset" from="43.330197480991224" to="0" dur="1.2999059244297366s" begin="anim4.end" fill="freeze" id="anim5" /></path><path d="M 17.7 20.1 C 18.4 19.5 19.1 18.8 19.5 18.2 C 19.8 17.9 20.2 17.7 20.5 17.7 C 21.2 17.7 21.7 18.2 21.7 18.9 C 21.7 19.3 21.5 19.7 21.2 20.1 C 20.6 20.8 19.7 21.5 18.6 22.3 C 19.1 23.4 19.5 24.6 19.8 25.7 C 20.0 26.7 19.2 27.3 18.5 27.3 C 18.0 27.3 17.5 27.1 17.4 26.4 C 16.6 23.6 15.6 20.9 14.4 18.8 C 14.3 18.5 14.2 18.3 14.2 18.1 C 14.2 17.4 14.8 16.9 15.4 16.9 C 15.9 16.9 16.2 17.2 16.5 17.7 C 16.9 18.4 17.3 19.2 17.7 20.1 Z " transform="scale(1,-1)" stroke-dasharray="32.88017218309351" stroke-dashoffset="32.88017218309351"><animate attributeName="stroke-dashoffset" from="32.88017218309351" to="0" dur="0.9864051654928052s" begin="anim5.end" fill="freeze" id="anim6" /></path><path d="M 33.9 36.0 C 33.4 29.7 31.1 25.2 27.3 22.2 C 26.7 21.7 26.5 21.2 26.5 20.7 C 26.5 19.8 27.2 19.1 28.1 19.1 C 28.5 19.1 28.9 19.2 29.3 19.5 C 34.0 23.0 36.6 28.9 37.3 36.0 L 41.9 36.0 C 43.5 36.0 43.9 35.6 43.9 34.5 C 43.8 31.7 43.4 28.0 42.8 25.8 C 42.3 24.1 41.6 23.6 40.5 23.6 C 39.7 23.6 39.1 23.7 38.3 23.9 C 37.1 24.2 36.3 23.2 36.3 22.3 C 36.3 21.7 36.8 20.9 37.7 20.7 C 38.8 20.4 39.7 20.2 40.7 20.2 C 43.6 20.2 45.2 21.5 46.2 25.0 C 46.8 27.4 47.2 31.5 47.3 34.8 C 47.4 37.6 46.0 39.1 42.8 39.1 L 28.9 39.1 C 27.9 39.1 27.4 38.4 27.4 37.6 C 27.4 36.8 27.9 36.0 28.9 36.0 Z " transform="scale(1,-1)" stroke-dasharray="119.37727001306781" stroke-dashoffset="119.37727001306781"><animate attributeName="stroke-dashoffset" from="119.37727001306781" to="0" dur="3.5813181003920342s" begin="anim6.end" fill="freeze" id="anim7" /></path><path d="M 11.1 20.8 C 11.5 20.4 11.8 20.0 12.1 19.6 C 12.4 19.2 12.8 19.0 13.2 19.0 C 13.8 19.0 14.3 19.6 14.3 20.3 C 14.3 20.7 14.2 21.1 13.9 21.4 C 13.4 22.0 12.8 22.6 12.0 23.2 C 12.2 24.0 12.5 24.8 12.8 25.6 C 13.0 26.6 12.2 27.2 11.5 27.2 C 11.0 27.2 10.5 26.9 10.4 26.3 C 9.6 23.4 8.7 21.0 7.5 18.9 C 7.3 18.7 7.2 18.4 7.2 18.2 C 7.2 17.5 7.8 17.1 8.4 17.1 C 8.8 17.1 9.3 17.2 9.6 17.8 C 10.1 18.7 10.6 19.7 11.1 20.8 Z " transform="scale(1,-1)" stroke-dasharray="30.42076082129703" stroke-dashoffset="30.42076082129703"><animate attributeName="stroke-dashoffset" from="30.42076082129703" to="0" dur="0.9126228246389109s" begin="anim7.end" fill="freeze" id="anim8" /></path><path d="M 16.2 34.9 L 21.9 34.9 C 22.9 34.9 23.3 35.6 23.3 36.4 C 23.3 37.1 22.9 37.8 21.9 37.8 L 16.2 37.8 L 16.2 40.8 C 16.2 41.8 15.5 42.2 14.7 42.2 C 13.8 42.2 13.0 41.8 13.0 40.8 L 13.0 31.7 L 9.6 31.7 L 9.6 38.0 C 9.6 39.0 8.8 39.5 8.0 39.5 C 7.2 39.5 6.4 39.0 6.4 38.0 L 6.4 31.7 L 2.9 31.7 C 2.0 31.7 1.5 31.0 1.5 30.2 C 1.5 29.5 2.0 28.8 2.9 28.8 L 24.9 28.8 C 25.9 28.8 26.3 29.5 26.3 30.2 C 26.3 31.0 25.9 31.7 24.9 31.7 L 16.2 31.7 Z" transform="scale(1,-1)" stroke-dasharray="100.27739112007376" stroke-dashoffset="100.27739112007376"><animate attributeName="stroke-dashoffset" from="100.27739112007376" to="0" dur="3.0083217336022128s" begin="anim8.end" fill="freeze" id="anim_end" /></path></g></svg>