<?xml version='1.0' encoding='utf-8'?>
<svg viewBox="0 -44.0 50.0 50.0" version="1.1" xmlns="http://www.w3.org/2000/svg"><rect x="-1000" y="-1000" width="2000" height="2000" stroke="white" fill="white" /><g style="fill:none;stroke:#000000;stroke-width:1"><path d="M 9.7 30.8 C 6.7 30.8 5.2 29.2 5.2 26.5 L 5.2 18.9 C 5.2 7.9 4.2 3.5 2.2 -1.0 C 2.0 -1.4 2.0 -1.7 2.0 -2.0 C 2.0 -3.0 2.7 -3.5 3.5 -3.5 C 4.1 -3.5 4.9 -3.1 5.3 -2.1 C 6.9 1.4 7.9 5.0 8.2 11.2 L 18.3 11.2 L 18.3 1.9 C 18.3 0.6 17.7 0.1 16.6 0.1 C 15.9 0.1 15.2 0.2 14.5 0.2 C 13.2 0.5 12.6 -0.4 12.6 -1.4 C 12.6 -2.1 13.0 -2.9 14.0 -3.1 C 14.9 -3.2 15.8 -3.3 16.7 -3.3 C 19.7 -3.3 21.5 -2.1 21.5 1.5 L 21.5 26.5 C 21.5 29.2 20.1 30.8 17.1 30.8 L 15.4 30.8 C 15.9 31.7 16.3 32.7 16.7 33.6 C 16.9 34.1 16.9 34.6 16.9 35.0 C 16.9 36.6 15.7 37.7 13.3 37.7 L 10.5 37.7 C 10.8 38.4 11.2 39.2 11.5 39.9 C 11.6 40.1 11.6 40.4 11.6 40.6 C 11.6 41.5 10.8 42.1 9.9 42.1 C 9.3 42.1 8.6 41.7 8.3 41.0 C 6.8 37.3 4.8 33.9 2.5 31.1 C 2.1 30.7 2.0 30.4 2.0 30.0 C 2.0 29.2 2.7 28.5 3.5 28.5 C 3.9 28.5 4.4 28.8 4.9 29.2 C 6.3 31.0 7.7 32.9 8.9 34.9 L 12.5 34.9 C 13.2 34.9 13.6 34.8 13.6 34.3 C 13.6 34.2 13.5 34.1 13.5 33.9 C 13.2 33.0 12.7 31.9 12.1 30.8 Z " transform="scale(1,-1)" stroke-dasharray="183.5401003949164" stroke-dashoffset="183.5401003949164"><animate attributeName="stroke-dashoffset" from="183.5401003949164" to="0" dur="5.506203011847492s" begin="0s; 15s; 30s; 45s; 60s" fill="freeze" id="anim0" /></path><path d="M 14.8 22.2 L 14.8 27.9 L 16.8 27.9 C 18.0 27.9 18.3 27.6 18.3 26.2 L 18.3 22.2 Z " transform="scale(1,-1)" stroke-dasharray="17.915824804244174" stroke-dashoffset="17.915824804244174"><animate attributeName="stroke-dashoffset" from="17.915824804244174" to="0" dur="0.5374747441273252s" begin="anim0.end" fill="freeze" id="anim1" /></path><path d="M 11.8 22.2 L 8.5 22.2 L 8.5 26.2 C 8.5 27.6 8.8 27.9 10.0 27.9 L 11.8 27.9 Z " transform="scale(1,-1)" stroke-dasharray="17.515824804244176" stroke-dashoffset="17.515824804244176"><animate attributeName="stroke-dashoffset" from="17.515824804244176" to="0" dur="0.5254747441273252s" begin="anim1.end" fill="freeze" id="anim2" /></path><path d="M 14.8 19.7 L 18.3 19.7 L 18.3 13.8 L 14.8 13.8 Z " transform="scale(1,-1)" stroke-dasharray="18.799999999999997" stroke-dashoffset="18.799999999999997"><animate attributeName="stroke-dashoffset" from="18.799999999999997" to="0" dur="0.564s" begin="anim2.end" fill="freeze" id="anim3" /></path><path d="M 11.8 19.7 L 11.8 13.8 L 8.3 13.8 C 8.4 15.3 8.5 16.9 8.5 18.8 L 8.5 19.7 Z " transform="scale(1,-1)" stroke-dasharray="18.605034712835717" stroke-dashoffset="18.605034712835717"><animate attributeName="stroke-dashoffset" from="18.605034712835717" to="0" dur="0.5581510413850715s" begin="anim3.end" fill="freeze" id="anim4" /></path><path d="M 28.8 22.8 L 38.8 22.8 C 42.3 22.8 43.8 24.1 43.8 26.8 L 43.8 33.1 C 43.8 35.6 42.5 37.1 38.8 37.1 L 35.0 37.1 C 35.4 38.1 35.6 39.1 35.9 40.2 C 36.2 41.3 35.2 42.1 34.2 42.1 C 33.6 42.1 32.9 41.7 32.6 40.8 C 32.4 39.6 32.0 38.4 31.6 37.1 L 30.5 37.1 C 26.8 37.1 25.6 35.6 25.6 33.1 L 25.6 14.6 C 25.6 11.8 26.7 10.6 30.1 10.6 L 42.2 10.6 C 43.7 10.6 44.2 10.2 44.2 9.1 C 44.1 6.6 43.6 3.9 43.0 1.9 C 42.5 0.3 41.7 -0.3 40.4 -0.3 C 39.7 -0.3 39.0 -0.2 38.1 0.0 C 37.0 0.2 36.2 -0.7 36.2 -1.6 C 36.2 -2.3 36.7 -3.1 37.7 -3.2 C 38.6 -3.5 39.6 -3.6 40.5 -3.6 C 43.5 -3.6 45.2 -2.2 46.2 1.0 C 46.9 3.2 47.4 6.1 47.6 9.2 C 47.7 11.7 46.5 13.5 43.0 13.5 L 30.6 13.5 C 29.3 13.5 28.8 13.9 28.8 15.0 L 28.8 16.8 L 46.7 16.8 C 47.6 16.8 48.1 17.6 48.1 18.2 C 48.1 19.0 47.6 19.7 46.7 19.7 L 28.8 19.7 Z " transform="scale(1,-1)" stroke-dasharray="201.3491233864237" stroke-dashoffset="201.3491233864237"><animate attributeName="stroke-dashoffset" from="201.3491233864237" to="0" dur="6.0404737015927115s" begin="anim4.end" fill="freeze" id="anim5" /></path><path d="M 28.8 25.6 L 28.8 28.7 L 40.5 28.7 L 40.5 27.1 C 40.5 25.6 39.4 25.7 38.2 25.6 Z " transform="scale(1,-1)" stroke-dasharray="28.980375937107183" stroke-dashoffset="28.980375937107183"><animate attributeName="stroke-dashoffset" from="28.980375937107183" to="0" dur="0.8694112781132155s" begin="anim5.end" fill="freeze" id="anim6" /></path><path d="M 40.5 31.4 L 28.8 31.4 L 28.8 32.8 C 28.8 33.9 29.3 34.4 30.9 34.4 L 38.2 34.4 C 40.0 34.4 40.5 34.1 40.5 32.9 Z " transform="scale(1,-1)" stroke-dasharray="28.188952214290026" stroke-dashoffset="28.188952214290026"><animate attributeName="stroke-dashoffset" from="28.188952214290026" to="0" dur="0.8456685664287008s" begin="anim6.end" fill="freeze" id="anim7" /></path><path d="M 24.4 6.4 C 24.1 4.2 23.6 2.1 22.8 0.3 C 22.7 0.1 22.7 -0.2 22.7 -0.4 C 22.7 -1.2 23.4 -1.8 24.2 -1.8 C 24.8 -1.8 25.5 -1.4 25.8 -0.7 C 26.5 1.2 27.1 3.8 27.3 6.0 C 27.4 7.1 26.6 7.8 25.8 7.8 C 25.2 7.8 24.5 7.4 24.4 6.4 Z " transform="scale(1,-1)" stroke-dasharray="23.081318023681558" stroke-dashoffset="23.081318023681558"><animate attributeName="stroke-dashoffset" from="23.081318023681558" to="0" dur="0.6924395407104467s" begin="anim7.end" fill="freeze" id="anim8" /></path><path d="M 31.2 6.9 C 31.0 7.6 30.4 7.9 29.9 7.9 C 29.2 7.9 28.5 7.4 28.5 6.6 C 28.5 6.4 28.6 6.2 28.6 6.1 C 29.0 4.9 29.4 3.2 29.7 1.5 C 29.8 0.6 30.4 0.2 31.1 0.2 C 31.9 0.2 32.8 0.9 32.6 2.1 C 32.4 3.5 31.7 5.7 31.2 6.9 Z " transform="scale(1,-1)" stroke-dasharray="19.031933815861592" stroke-dashoffset="19.031933815861592"><animate attributeName="stroke-dashoffset" from="19.031933815861592" to="0" dur="0.5709580144758477s" begin="anim8.end" fill="freeze" id="anim9" /></path><path d="M 39.6 9.2 C 39.3 9.6 38.9 9.8 38.5 9.8 C 37.9 9.8 37.2 9.3 37.2 8.7 C 37.2 8.4 37.4 8.1 37.6 7.8 C 38.2 6.9 38.9 5.8 39.4 4.6 C 39.8 4.0 40.2 3.7 40.8 3.7 C 41.5 3.7 42.1 4.2 42.1 5.0 C 42.1 5.3 42.1 5.7 41.9 6.0 C 41.4 6.9 40.4 8.3 39.6 9.2 Z " transform="scale(1,-1)" stroke-dasharray="16.625093452664782" stroke-dashoffset="16.625093452664782"><animate attributeName="stroke-dashoffset" from="16.625093452664782" to="0" dur="0.49875280357994345s" begin="anim9.end" fill="freeze" id="anim10" /></path><path d="M 35.5 7.9 C 35.1 8.5 34.6 8.7 34.1 8.7 C 33.5 8.7 32.9 8.2 32.9 7.6 C 32.9 7.3 33.0 7.1 33.1 6.8 C 33.7 5.6 34.2 4.4 34.6 3.1 C 34.9 2.3 35.5 1.9 36.1 1.9 C 36.8 1.9 37.5 2.5 37.5 3.4 C 37.5 3.6 37.5 3.8 37.4 4.0 C 37.0 5.2 36.3 6.7 35.5 7.9 Z" transform="scale(1,-1)" stroke-dasharray="17.594805719876923" stroke-dashoffset="17.594805719876923"><animate attributeName="stroke-dashoffset" from="17.594805719876923" to="0" dur="0.5278441715963077s" begin="anim10.end" fill="freeze" id="anim_end" /></path></g></svg>