<?xml version='1.0' encoding='utf-8'?>
<svg viewBox="0 -44.0 50.0 50.0" version="1.1" xmlns="http://www.w3.org/2000/svg"><rect x="-1000" y="-1000" width="2000" height="2000" stroke="white" fill="white" /><g style="fill:none;stroke:#000000;stroke-width:1"><path d="M 40.3 0.6 C 44.0 0.6 45.8 2.2 45.8 5.7 L 45.8 31.1 C 45.8 34.5 44.0 36.2 40.3 36.2 L 31.8 36.2 C 28.1 36.2 26.4 34.5 26.4 31.1 L 26.4 5.7 C 26.5 2.0 28.3 0.6 31.8 0.6 Z " transform="scale(1,-1)" stroke-dasharray="102.14071525844234" stroke-dashoffset="102.14071525844234"><animate attributeName="stroke-dashoffset" from="102.14071525844234" to="0" dur="3.0642214577532703s" begin="0s; 15s; 30s; 45s; 60s" fill="freeze" id="anim0" /></path><path d="M 32.5 3.8 C 30.7 3.8 30.1 4.5 30.1 6.2 L 30.1 30.5 C 30.1 32.2 30.7 33.0 32.5 33.0 L 39.7 33.0 C 41.4 33.0 42.0 32.2 42.0 30.5 L 42.0 6.2 C 42.0 4.5 41.4 3.8 39.7 3.8 Z " transform="scale(1,-1)" stroke-dasharray="78.8324985253607" stroke-dashoffset="78.8324985253607"><animate attributeName="stroke-dashoffset" from="78.8324985253607" to="0" dur="2.3649749557608213s" begin="anim0.end" fill="freeze" id="anim1" /></path><path d="M 14.0 36.0 C 16.3 34.2 18.8 31.9 20.4 30.0 C 20.9 29.4 21.4 29.2 21.9 29.2 C 22.9 29.2 23.7 30.0 23.7 30.9 C 23.7 31.4 23.5 31.9 23.1 32.4 C 21.2 34.5 18.4 36.8 15.8 38.5 C 15.9 38.6 16.0 38.7 16.0 38.8 C 16.2 39.2 16.4 39.6 16.4 39.9 C 16.4 40.8 15.5 41.5 14.6 41.5 C 14.0 41.5 13.3 41.2 12.9 40.5 C 10.2 36.4 6.3 32.0 2.6 29.2 C 2.0 28.8 1.7 28.2 1.7 27.7 C 1.7 26.8 2.4 26.1 3.4 26.1 C 3.8 26.1 4.2 26.2 4.6 26.6 C 8.0 29.2 11.2 32.4 14.0 36.0 Z " transform="scale(1,-1)" stroke-dasharray="65.1976659280789" stroke-dashoffset="65.1976659280789"><animate attributeName="stroke-dashoffset" from="65.1976659280789" to="0" dur="1.955929977842367s" begin="anim1.end" fill="freeze" id="anim2" /></path><path d="M 11.8 24.2 L 11.8 19.2 L 4.4 19.2 C 3.4 19.2 3.0 18.4 3.0 17.7 C 3.0 16.9 3.4 16.2 4.4 16.2 L 11.8 16.2 L 11.8 2.5 C 9.3 2.1 6.8 1.7 4.7 1.5 C 3.5 1.4 3.0 0.6 3.0 -0.2 C 3.0 -1.1 3.7 -2.0 4.9 -1.9 C 10.2 -1.2 17.2 0.2 22.4 1.8 C 23.4 2.1 23.8 2.7 23.8 3.4 C 23.8 4.1 23.1 4.9 22.2 4.9 C 22.0 4.9 21.8 4.8 21.6 4.8 C 19.5 4.2 17.3 3.6 15.2 3.2 L 15.2 16.2 L 21.9 16.2 C 22.8 16.2 23.3 16.9 23.3 17.7 C 23.3 18.4 22.8 19.2 21.9 19.2 L 15.2 19.2 L 15.2 24.2 L 19.1 24.2 C 20.1 24.2 20.6 25.0 20.6 25.8 C 20.6 26.5 20.1 27.2 19.1 27.2 L 8.2 27.2 C 7.2 27.2 6.8 26.5 6.8 25.8 C 6.8 25.0 7.2 24.2 8.2 24.2 Z " transform="scale(1,-1)" stroke-dasharray="144.46450223191948" stroke-dashoffset="144.46450223191948"><animate attributeName="stroke-dashoffset" from="144.46450223191948" to="0" dur="4.333935066957585s" begin="anim2.end" fill="freeze" id="anim3" /></path><path d="M 7.6 12.1 C 7.2 12.7 6.6 13.0 6.1 13.0 C 5.2 13.0 4.5 12.4 4.5 11.6 C 4.5 11.3 4.5 11.0 4.8 10.7 C 5.6 9.5 6.3 7.6 6.8 6.0 C 7.0 5.1 7.7 4.6 8.3 4.6 C 9.3 4.6 10.2 5.5 9.9 6.9 C 9.6 8.5 8.5 10.8 7.6 12.1 Z " transform="scale(1,-1)" stroke-dasharray="21.460552495238606" stroke-dashoffset="21.460552495238606"><animate attributeName="stroke-dashoffset" from="21.460552495238606" to="0" dur="0.6438165748571582s" begin="anim3.end" fill="freeze" id="anim4" /></path><path d="M 19.0 12.6 C 18.4 11.0 17.8 9.5 17.2 8.2 C 16.9 7.8 16.9 7.5 16.9 7.2 C 16.9 6.5 17.6 5.9 18.2 5.9 C 18.8 5.9 19.4 6.2 19.8 6.9 C 20.5 8.2 21.2 10.0 21.9 11.6 C 22.0 11.8 22.0 12.0 22.0 12.2 C 22.0 13.1 21.2 13.7 20.5 13.7 C 19.9 13.7 19.2 13.4 19.0 12.6 Z" transform="scale(1,-1)" stroke-dasharray="19.940947747027888" stroke-dashoffset="19.940947747027888"><animate attributeName="stroke-dashoffset" from="19.940947747027888" to="0" dur="0.5982284324108366s" begin="anim4.end" fill="freeze" id="anim_end" /></path></g></svg>