<?xml version='1.0' encoding='utf-8'?>
<svg viewBox="0 -44.0 50.0 50.0" version="1.1" xmlns="http://www.w3.org/2000/svg"><rect x="-1000" y="-1000" width="2000" height="2000" stroke="white" fill="white" /><g style="fill:none;stroke:#000000;stroke-width:1"><path d="M 23.1 37.2 L 23.1 34.7 L 8.8 34.7 C 5.2 34.7 4.0 33.2 4.0 31.1 L 4.0 27.4 C 4.0 26.4 4.9 26.0 5.7 26.0 C 6.6 26.0 7.5 26.4 7.5 27.4 L 7.5 30.6 C 7.5 31.5 7.9 32.0 9.3 32.0 L 23.1 32.0 L 23.1 21.5 C 23.1 20.7 24.0 20.2 24.9 20.2 C 25.7 20.2 26.6 20.7 26.6 21.5 L 26.6 32.0 L 40.7 32.0 C 42.2 32.0 42.6 31.5 42.6 30.6 L 42.6 27.6 C 42.6 26.7 43.5 26.2 44.3 26.2 C 45.2 26.2 46.1 26.7 46.1 27.6 L 46.1 31.1 C 46.1 33.2 44.9 34.7 41.2 34.7 L 26.6 34.7 L 26.6 37.2 L 41.5 37.2 C 42.5 37.2 42.9 38.0 42.9 38.7 C 42.9 39.5 42.5 40.2 41.5 40.2 L 9.1 40.2 C 8.2 40.2 7.7 39.5 7.7 38.7 C 7.7 38.0 8.2 37.2 9.1 37.2 Z " transform="scale(1,-1)" stroke-dasharray="200.72295924440414" stroke-dashoffset="200.72295924440414"><animate attributeName="stroke-dashoffset" from="200.72295924440414" to="0" dur="6.021688777332124s" begin="0s; 15s; 30s; 45s; 60s" fill="freeze" id="anim0" /></path><path d="M 25.2 12.2 C 25.7 13.4 26.1 14.6 26.5 15.8 L 45.6 15.8 C 46.6 15.8 47.1 16.6 47.1 17.2 C 47.1 18.0 46.6 18.7 45.6 18.7 L 4.4 18.7 C 3.4 18.7 3.0 18.0 3.0 17.2 C 3.0 16.6 3.4 15.8 4.4 15.8 L 23.0 15.8 C 22.6 14.6 22.2 13.4 21.7 12.2 L 11.9 12.2 C 8.4 12.2 6.8 11.0 6.8 8.0 L 6.8 -2.9 C 6.8 -3.8 7.7 -4.2 8.6 -4.2 C 9.5 -4.2 10.4 -3.8 10.4 -2.9 L 10.4 7.3 C 10.4 9.1 10.8 9.4 13.1 9.4 L 17.7 9.4 L 17.7 -1.5 C 17.7 -2.2 18.6 -2.7 19.5 -2.7 C 20.3 -2.7 21.2 -2.2 21.2 -1.5 L 21.2 9.4 L 28.7 9.4 L 28.7 -1.5 C 28.7 -2.2 29.5 -2.7 30.4 -2.7 C 31.2 -2.7 32.1 -2.2 32.1 -1.5 L 32.1 9.4 L 37.4 9.4 C 39.6 9.4 40.1 9.1 40.1 7.3 L 40.1 1.1 C 40.1 -0.3 39.8 -0.8 38.8 -0.8 C 38.1 -0.8 37.7 -0.7 36.9 -0.6 C 35.6 -0.4 34.9 -1.2 34.9 -2.1 C 34.9 -2.9 35.3 -3.6 36.4 -3.8 C 37.4 -3.9 38.1 -4.0 39.0 -4.0 C 42.4 -4.0 43.7 -2.6 43.7 0.8 L 43.7 8.0 C 43.7 11.0 41.9 12.2 38.4 12.2 Z " transform="scale(1,-1)" stroke-dasharray="272.537802422658" stroke-dashoffset="272.537802422658"><animate attributeName="stroke-dashoffset" from="272.537802422658" to="0" dur="8.176134072679739s" begin="anim0.end" fill="freeze" id="anim1" /></path><path d="M 19.1 21.9 C 20.0 21.9 20.4 22.6 20.4 23.2 C 20.4 23.9 20.0 24.5 19.1 24.5 L 11.2 24.5 C 10.3 24.5 9.9 23.9 9.9 23.2 C 9.9 22.6 10.3 21.9 11.2 21.9 Z " transform="scale(1,-1)" stroke-dasharray="24.078912264874237" stroke-dashoffset="24.078912264874237"><animate attributeName="stroke-dashoffset" from="24.078912264874237" to="0" dur="0.7223673679462271s" begin="anim1.end" fill="freeze" id="anim2" /></path><path d="M 39.1 21.9 C 39.9 21.9 40.4 22.6 40.4 23.2 C 40.4 23.9 39.9 24.5 39.1 24.5 L 30.4 24.5 C 29.6 24.5 29.2 23.9 29.2 23.2 C 29.2 22.6 29.6 21.9 30.4 21.9 Z " transform="scale(1,-1)" stroke-dasharray="25.459175771381823" stroke-dashoffset="25.459175771381823"><animate attributeName="stroke-dashoffset" from="25.459175771381823" to="0" dur="0.7637752731414547s" begin="anim2.end" fill="freeze" id="anim3" /></path><path d="M 19.1 27.0 C 20.0 27.0 20.4 27.6 20.4 28.2 C 20.4 28.9 20.0 29.6 19.1 29.6 L 11.2 29.6 C 10.3 29.6 9.9 28.9 9.9 28.2 C 9.9 27.6 10.3 27.0 11.2 27.0 Z " transform="scale(1,-1)" stroke-dasharray="24.081075060569525" stroke-dashoffset="24.081075060569525"><animate attributeName="stroke-dashoffset" from="24.081075060569525" to="0" dur="0.7224322518170857s" begin="anim3.end" fill="freeze" id="anim4" /></path><path d="M 39.1 27.0 C 39.9 27.0 40.4 27.6 40.4 28.2 C 40.4 28.9 39.9 29.6 39.1 29.6 L 30.4 29.6 C 29.6 29.6 29.2 28.9 29.2 28.2 C 29.2 27.6 29.6 27.0 30.4 27.0 Z" transform="scale(1,-1)" stroke-dasharray="25.46139795580633" stroke-dashoffset="25.46139795580633"><animate attributeName="stroke-dashoffset" from="25.46139795580633" to="0" dur="0.7638419386741899s" begin="anim4.end" fill="freeze" id="anim_end" /></path></g></svg>