<?xml version='1.0' encoding='utf-8'?>
<svg viewBox="0 -44.0 50.0 50.0" version="1.1" xmlns="http://www.w3.org/2000/svg"><rect x="-1000" y="-1000" width="2000" height="2000" stroke="white" fill="white" /><g style="fill:none;stroke:#000000;stroke-width:1"><path d="M 38.4 37.4 C 37.9 38.1 37.5 38.9 37.1 39.7 C 36.8 40.5 36.1 40.8 35.6 40.8 C 34.9 40.8 34.1 40.2 34.1 39.4 C 34.1 39.2 34.2 38.9 34.4 38.6 C 36.8 33.6 40.9 28.6 45.9 25.4 C 46.2 25.2 46.7 25.0 47.1 25.0 C 48.0 25.0 48.6 25.8 48.6 26.6 C 48.6 27.2 48.2 27.8 47.5 28.2 C 46.1 29.1 44.8 30.0 43.6 31.1 C 44.7 31.9 45.9 33.0 46.9 34.1 C 47.2 34.5 47.3 34.9 47.3 35.2 C 47.3 36.0 46.7 36.6 45.9 36.6 C 45.6 36.6 45.1 36.4 44.8 36.0 C 43.8 34.8 42.8 33.8 41.7 32.9 C 41.0 33.6 40.4 34.4 39.8 35.2 C 40.9 36.0 42.0 37.0 42.9 38.1 C 43.2 38.4 43.4 38.8 43.4 39.2 C 43.4 39.9 42.7 40.5 42.0 40.5 C 41.6 40.5 41.2 40.4 40.8 39.9 C 40.1 39.0 39.2 38.1 38.4 37.4 Z " transform="scale(1,-1)" stroke-dasharray="65.08403499725245" stroke-dashoffset="65.08403499725245"><animate attributeName="stroke-dashoffset" from="65.08403499725245" to="0" dur="1.9525210499175734s" begin="0s; 15s; 30s; 45s; 60s" fill="freeze" id="anim0" /></path><path d="M 27.9 23.7 C 28.6 23.7 28.9 23.3 28.9 22.7 L 28.9 20.4 C 28.9 19.6 28.6 19.4 27.6 19.4 L 26.1 19.4 C 24.2 19.4 23.2 18.5 23.0 16.4 L 21.9 9.2 C 21.8 8.0 22.6 7.4 23.4 7.4 C 24.1 7.4 24.8 7.9 24.9 8.8 L 25.0 9.3 L 27.2 9.3 C 28.4 9.3 28.7 9.0 28.6 8.0 C 28.5 6.0 28.2 3.8 27.9 2.2 C 27.5 0.7 26.7 0.2 25.6 0.2 C 25.0 0.2 24.6 0.4 24.0 0.5 C 22.9 0.7 22.2 -0.2 22.2 -1.1 C 22.2 -1.8 22.6 -2.4 23.4 -2.6 C 24.0 -2.8 24.7 -2.9 25.7 -2.9 C 28.2 -2.9 30.1 -1.7 30.8 1.2 C 31.3 3.1 31.7 5.9 31.8 8.2 C 31.9 10.8 30.8 12.0 28.0 12.0 L 25.4 12.0 L 25.9 15.8 C 26.0 16.4 26.2 16.7 27.0 16.7 L 28.6 16.7 C 31.1 16.7 32.0 17.7 32.0 20.0 L 32.0 23.3 C 32.0 25.2 31.1 26.4 28.7 26.4 L 26.9 26.4 C 29.2 28.9 31.3 31.8 32.8 34.5 C 33.2 35.2 33.4 36.0 33.4 36.6 C 33.4 38.4 32.0 39.5 29.8 39.5 L 25.1 39.5 C 24.1 39.5 23.7 38.8 23.7 38.0 C 23.7 37.3 24.1 36.6 25.1 36.6 L 28.8 36.6 C 29.6 36.6 29.9 36.4 29.9 36.0 C 29.9 35.8 29.8 35.5 29.7 35.1 C 29.1 34.0 28.3 32.8 27.5 31.6 C 26.4 32.6 25.5 33.5 24.5 34.2 C 24.2 34.5 23.9 34.6 23.5 34.6 C 22.8 34.6 22.1 34.0 22.1 33.2 C 22.1 32.9 22.3 32.4 22.8 32.0 C 23.8 31.2 24.5 30.5 25.6 29.4 C 24.4 28.0 23.0 26.8 21.7 25.7 C 21.1 25.2 20.8 24.7 20.8 24.2 C 20.8 23.5 21.5 22.9 22.2 22.9 C 22.6 22.9 23.1 23.0 23.5 23.3 C 24.0 23.7 24.5 24.1 25.0 24.6 C 25.1 24.1 25.6 23.7 26.2 23.7 Z " transform="scale(1,-1)" stroke-dasharray="158.85897952547495" stroke-dashoffset="158.85897952547495"><animate attributeName="stroke-dashoffset" from="158.85897952547495" to="0" dur="4.765769385764249s" begin="anim0.end" fill="freeze" id="anim1" /></path><path d="M 15.6 -2.2 C 18.2 -2.2 19.8 -1.0 19.8 2.4 L 19.8 26.6 C 19.8 30.2 18.2 31.1 15.6 31.1 L 14.7 31.1 L 14.7 36.4 L 19.6 36.4 C 20.5 36.4 21.0 37.1 21.0 37.9 C 21.0 38.7 20.5 39.4 19.6 39.4 L 2.6 39.4 C 1.7 39.4 1.2 38.7 1.2 37.9 C 1.2 37.1 1.7 36.4 2.6 36.4 L 7.7 36.4 L 7.7 31.1 L 6.8 31.1 C 4.1 31.1 2.6 30.2 2.6 26.6 L 2.6 2.4 C 2.7 -0.6 3.7 -2.2 6.8 -2.2 Z " transform="scale(1,-1)" stroke-dasharray="134.50293734083024" stroke-dashoffset="134.50293734083024"><animate attributeName="stroke-dashoffset" from="134.50293734083024" to="0" dur="4.035088120224907s" begin="anim1.end" fill="freeze" id="anim2" /></path><path d="M 7.2 0.7 C 6.1 0.7 5.6 1.2 5.6 2.7 L 5.6 6.7 L 16.8 6.7 L 16.8 2.7 C 16.8 1.5 16.4 0.7 15.1 0.7 Z " transform="scale(1,-1)" stroke-dasharray="33.097237305641805" stroke-dashoffset="33.097237305641805"><animate attributeName="stroke-dashoffset" from="33.097237305641805" to="0" dur="0.9929171191692541s" begin="anim2.end" fill="freeze" id="anim3" /></path><path d="M 7.7 28.3 C 7.7 21.9 7.1 18.4 6.1 16.1 C 6.0 15.9 6.0 15.6 6.0 15.4 C 6.0 14.7 6.5 14.2 7.1 14.2 C 7.6 14.2 8.1 14.5 8.4 15.2 C 9.6 17.8 10.2 21.9 10.3 28.3 L 12.1 28.3 L 12.1 19.6 C 12.1 17.3 13.1 16.4 15.4 16.4 C 15.9 16.4 16.4 16.4 16.8 16.4 L 16.8 9.6 L 5.6 9.6 L 5.6 26.2 C 5.6 28.0 6.0 28.3 7.0 28.3 Z " transform="scale(1,-1)" stroke-dasharray="85.4756939770595" stroke-dashoffset="85.4756939770595"><animate attributeName="stroke-dashoffset" from="85.4756939770595" to="0" dur="2.564270819311785s" begin="anim3.end" fill="freeze" id="anim4" /></path><path d="M 10.3 31.1 L 10.3 36.4 L 12.1 36.4 L 12.1 31.1 Z " transform="scale(1,-1)" stroke-dasharray="14.199999999999992" stroke-dashoffset="14.199999999999992"><animate attributeName="stroke-dashoffset" from="14.199999999999992" to="0" dur="0.42599999999999977s" begin="anim4.end" fill="freeze" id="anim5" /></path><path d="M 16.8 19.2 C 16.4 19.1 16.0 19.1 15.6 19.1 C 15.0 19.1 14.7 19.2 14.7 20.1 L 14.7 28.3 L 15.5 28.3 C 16.4 28.3 16.8 28.0 16.8 26.2 Z " transform="scale(1,-1)" stroke-dasharray="21.687966692157335" stroke-dashoffset="21.687966692157335"><animate attributeName="stroke-dashoffset" from="21.687966692157335" to="0" dur="0.65063900076472s" begin="anim5.end" fill="freeze" id="anim6" /></path><path d="M 35.0 13.3 C 34.0 13.3 33.6 12.6 33.6 11.9 C 33.6 11.2 34.0 10.4 35.0 10.4 L 41.0 10.4 C 41.7 10.4 42.1 10.2 42.1 9.9 C 42.1 9.7 42.0 9.5 41.9 9.2 C 41.5 8.2 40.8 7.0 40.0 5.9 C 39.0 6.7 38.1 7.2 37.4 7.8 C 37.0 8.0 36.6 8.1 36.2 8.1 C 35.4 8.1 34.8 7.6 34.8 6.8 C 34.8 6.4 35.0 5.9 35.6 5.5 C 36.4 5.0 37.2 4.4 38.0 3.7 C 36.5 2.1 34.7 0.7 32.9 -0.3 C 32.1 -0.7 31.9 -1.3 31.9 -1.9 C 31.9 -2.6 32.4 -3.2 33.2 -3.2 C 33.6 -3.2 33.9 -3.2 34.2 -3.0 C 36.3 -1.9 38.4 -0.2 40.2 1.7 C 41.5 0.4 42.7 -0.8 43.5 -1.9 C 43.9 -2.4 44.4 -2.6 44.9 -2.6 C 45.7 -2.6 46.4 -1.9 46.4 -1.0 C 46.4 -0.6 46.2 -0.1 45.8 0.4 C 44.9 1.5 43.6 2.7 42.2 4.0 C 43.4 5.4 44.2 6.9 44.9 8.5 C 45.2 9.2 45.3 9.9 45.3 10.5 C 45.3 12.3 44.0 13.3 41.6 13.3 Z " transform="scale(1,-1)" stroke-dasharray="81.65511571307285" stroke-dashoffset="81.65511571307285"><animate attributeName="stroke-dashoffset" from="81.65511571307285" to="0" dur="2.4496534713921854s" begin="anim6.end" fill="freeze" id="anim7" /></path><path d="M 34.6 22.5 C 34.6 19.6 34.0 17.9 32.8 16.8 C 32.3 16.4 32.1 15.9 32.1 15.5 C 32.1 14.8 32.8 14.1 33.6 14.1 C 34.0 14.1 34.4 14.3 34.8 14.7 C 36.6 16.4 37.5 19.0 37.5 22.2 L 37.5 23.2 C 37.5 23.9 37.7 24.1 38.5 24.1 L 39.3 24.1 C 40.2 24.1 40.3 23.9 40.3 23.2 L 40.3 18.2 C 40.3 16.1 41.3 15.4 43.8 15.4 C 46.4 15.4 47.7 16.4 47.9 19.7 C 48.0 20.7 47.2 21.2 46.6 21.2 C 46.0 21.2 45.4 20.8 45.3 20.1 C 45.2 18.4 44.9 17.9 44.0 17.9 C 43.5 17.9 43.2 18.0 43.2 18.8 L 43.2 23.9 C 43.2 25.9 42.2 26.8 39.9 26.8 L 37.9 26.8 C 35.6 26.8 34.6 26.0 34.6 23.9 Z" transform="scale(1,-1)" stroke-dasharray="68.69919210527452" stroke-dashoffset="68.69919210527452"><animate attributeName="stroke-dashoffset" from="68.69919210527452" to="0" dur="2.0609757631582357s" begin="anim7.end" fill="freeze" id="anim_end" /></path></g></svg>