<?xml version='1.0' encoding='utf-8'?>
<svg viewBox="0 -44.0 50.0 50.0" version="1.1" xmlns="http://www.w3.org/2000/svg"><rect x="-1000" y="-1000" width="2000" height="2000" stroke="white" fill="white" /><g style="fill:none;stroke:#000000;stroke-width:1"><path d="M 29.1 17.5 L 29.1 23.0 L 29.7 23.0 C 32.6 23.0 33.6 24.0 33.6 26.4 L 33.6 29.0 C 33.6 31.3 32.6 32.3 29.7 32.3 L 29.1 32.3 L 29.1 37.1 L 32.1 37.1 C 33.0 37.1 33.4 37.9 33.4 38.6 C 33.4 39.2 33.0 40.0 32.1 40.0 L 24.4 40.0 C 21.1 40.0 19.9 38.7 19.9 35.8 L 19.9 18.9 C 19.9 16.0 21.1 14.7 24.4 14.7 L 31.2 14.7 C 32.1 14.7 32.6 15.4 32.6 16.1 C 32.6 16.8 32.1 17.5 31.2 17.5 Z " transform="scale(1,-1)" stroke-dasharray="85.67381876059304" stroke-dashoffset="85.67381876059304"><animate attributeName="stroke-dashoffset" from="85.67381876059304" to="0" dur="2.570214562817791s" begin="0s; 15s; 30s; 45s; 60s" fill="freeze" id="anim0" /></path><path d="M 26.2 17.5 L 24.9 17.5 C 23.4 17.5 23.0 17.9 23.0 19.2 L 23.0 23.0 L 26.2 23.0 Z " transform="scale(1,-1)" stroke-dasharray="16.822343789650606" stroke-dashoffset="16.822343789650606"><animate attributeName="stroke-dashoffset" from="16.822343789650606" to="0" dur="0.5046703136895182s" begin="anim0.end" fill="freeze" id="anim1" /></path><path d="M 26.2 37.1 L 26.2 32.3 L 23.0 32.3 L 23.0 35.5 C 23.0 36.8 23.4 37.1 24.9 37.1 Z " transform="scale(1,-1)" stroke-dasharray="15.46168197462771" stroke-dashoffset="15.46168197462771"><animate attributeName="stroke-dashoffset" from="15.46168197462771" to="0" dur="0.4638504592388313s" begin="anim1.end" fill="freeze" id="anim2" /></path><path d="M 23.0 29.7 L 29.2 29.7 C 30.4 29.7 30.7 29.4 30.7 28.4 L 30.7 27.0 C 30.7 26.0 30.4 25.6 29.2 25.6 L 23.0 25.6 Z " transform="scale(1,-1)" stroke-dasharray="22.676584921974925" stroke-dashoffset="22.676584921974925"><animate attributeName="stroke-dashoffset" from="22.676584921974925" to="0" dur="0.6802975476592478s" begin="anim2.end" fill="freeze" id="anim3" /></path><path d="M 31.4 0.8 L 19.7 0.8 C 18.7 0.8 18.2 0.0 18.2 -0.8 C 18.2 -1.6 18.7 -2.4 19.7 -2.4 L 46.2 -2.4 C 47.2 -2.4 47.7 -1.6 47.7 -0.8 C 47.7 0.0 47.2 0.8 46.2 0.8 L 34.8 0.8 L 34.8 5.8 L 42.7 5.8 C 43.7 5.8 44.2 6.6 44.2 7.4 C 44.2 8.2 43.7 8.9 42.7 8.9 L 34.8 8.9 L 34.8 11.8 C 34.8 12.9 33.9 13.4 33.1 13.4 C 32.2 13.4 31.4 12.9 31.4 11.8 L 31.4 8.9 L 23.6 8.9 C 22.6 8.9 22.2 8.2 22.2 7.4 C 22.2 6.6 22.6 5.8 23.6 5.8 L 31.4 5.8 Z " transform="scale(1,-1)" stroke-dasharray="121.46069083158882" stroke-dashoffset="121.46069083158882"><animate attributeName="stroke-dashoffset" from="121.46069083158882" to="0" dur="3.6438207249476644s" begin="anim3.end" fill="freeze" id="anim4" /></path><path d="M 13.1 38.7 C 13.3 39.1 13.4 39.4 13.4 39.8 C 13.4 40.7 12.6 41.2 11.8 41.2 C 11.2 41.2 10.5 40.9 10.1 40.2 C 8.1 36.6 4.9 32.8 1.9 30.2 C 1.4 29.8 1.2 29.2 1.2 28.8 C 1.2 28.0 1.9 27.3 2.7 27.3 C 3.1 27.3 3.6 27.5 4.0 27.8 C 6.4 29.9 9.1 32.8 11.2 35.9 C 12.8 34.6 14.4 33.1 15.7 31.5 C 16.1 31.0 16.7 30.8 17.2 30.8 C 18.0 30.8 18.8 31.4 18.8 32.3 C 18.8 32.8 18.6 33.2 18.2 33.7 C 16.8 35.2 14.7 37.1 12.9 38.5 Z " transform="scale(1,-1)" stroke-dasharray="54.26767893309552" stroke-dashoffset="54.26767893309552"><animate attributeName="stroke-dashoffset" from="54.26767893309552" to="0" dur="1.6280303679928654s" begin="anim4.end" fill="freeze" id="anim5" /></path><path d="M 9.3 25.2 L 9.3 20.3 L 3.4 20.3 C 2.4 20.3 2.0 19.6 2.0 18.9 C 2.0 18.2 2.4 17.4 3.4 17.4 L 9.3 17.4 L 9.3 3.4 C 7.4 3.0 5.4 2.7 3.6 2.5 C 2.5 2.4 2.0 1.6 2.0 0.9 C 2.0 0.0 2.7 -0.9 3.9 -0.7 C 8.2 -0.2 13.6 1.1 18.1 2.7 C 18.9 3.0 19.2 3.6 19.2 4.2 C 19.2 4.9 18.7 5.6 17.9 5.6 C 17.7 5.6 17.4 5.6 17.2 5.5 C 15.7 5.0 14.1 4.5 12.5 4.1 L 12.5 17.4 L 17.2 17.4 C 18.2 17.4 18.7 18.2 18.7 18.9 C 18.7 19.6 18.2 20.3 17.2 20.3 L 12.5 20.3 L 12.5 25.2 L 15.9 25.2 C 16.9 25.2 17.3 26.0 17.3 26.7 C 17.3 27.5 16.9 28.2 15.9 28.2 L 6.7 28.2 C 5.8 28.2 5.2 27.5 5.2 26.7 C 5.2 26.0 5.8 25.2 6.7 25.2 Z " transform="scale(1,-1)" stroke-dasharray="127.54568234625803" stroke-dashoffset="127.54568234625803"><animate attributeName="stroke-dashoffset" from="127.54568234625803" to="0" dur="3.826370470387741s" begin="anim5.end" fill="freeze" id="anim6" /></path><path d="M 35.5 35.2 C 36.1 31.1 37.4 26.9 39.3 23.2 C 37.9 21.1 36.2 19.2 34.4 17.9 C 33.8 17.4 33.6 16.9 33.6 16.4 C 33.6 15.6 34.2 15.0 35.1 15.0 C 35.4 15.0 35.8 15.1 36.1 15.4 C 37.9 16.7 39.5 18.4 41.0 20.2 C 42.4 17.9 44.1 16.0 45.9 14.3 C 46.3 13.9 46.8 13.7 47.2 13.7 C 48.1 13.7 48.8 14.5 48.8 15.5 C 48.8 16.0 48.6 16.5 48.0 17.0 C 46.1 18.6 44.4 20.7 42.9 23.0 C 44.9 26.2 46.3 29.8 47.0 33.4 C 47.1 33.9 47.1 34.4 47.1 34.8 C 47.1 37.0 45.9 38.1 43.2 38.1 L 35.1 38.1 C 34.1 38.1 33.6 37.5 33.6 36.7 C 33.6 36.0 34.1 35.2 35.1 35.2 Z " transform="scale(1,-1)" stroke-dasharray="85.15194670557361" stroke-dashoffset="85.15194670557361"><animate attributeName="stroke-dashoffset" from="85.15194670557361" to="0" dur="2.554558401167208s" begin="anim6.end" fill="freeze" id="anim7" /></path><path d="M 42.4 35.2 C 43.6 35.2 43.9 34.8 43.7 33.8 C 43.3 31.2 42.4 28.6 41.1 26.1 C 39.7 29.0 38.7 32.1 38.2 35.2 Z " transform="scale(1,-1)" stroke-dasharray="24.321703632231543" stroke-dashoffset="24.321703632231543"><animate attributeName="stroke-dashoffset" from="24.321703632231543" to="0" dur="0.7296511089669463s" begin="anim7.end" fill="freeze" id="anim8" /></path><path d="M 5.9 13.2 C 5.5 13.9 4.9 14.2 4.4 14.2 C 3.6 14.2 2.9 13.6 2.9 12.8 C 2.9 12.6 2.9 12.3 3.1 12.1 C 3.8 10.8 4.4 9.1 4.7 7.2 C 4.9 6.2 5.6 5.8 6.2 5.8 C 7.1 5.8 8.0 6.6 7.8 8.0 C 7.5 9.8 6.7 12.0 5.9 13.2 Z " transform="scale(1,-1)" stroke-dasharray="21.001225015400376" stroke-dashoffset="21.001225015400376"><animate attributeName="stroke-dashoffset" from="21.001225015400376" to="0" dur="0.6300367504620112s" begin="anim8.end" fill="freeze" id="anim9" /></path><path d="M 15.5 14.1 C 15.1 12.2 14.6 10.7 14.1 9.3 C 14.0 9.1 13.9 8.8 13.9 8.6 C 13.9 7.8 14.5 7.3 15.2 7.3 C 15.7 7.3 16.3 7.7 16.7 8.5 C 17.2 9.6 17.8 11.4 18.2 13.3 C 18.3 13.5 18.4 13.7 18.4 13.8 C 18.4 14.7 17.6 15.2 16.9 15.2 C 16.2 15.2 15.7 14.8 15.5 14.1 Z" transform="scale(1,-1)" stroke-dasharray="19.59825880984317" stroke-dashoffset="19.59825880984317"><animate attributeName="stroke-dashoffset" from="19.59825880984317" to="0" dur="0.587947764295295s" begin="anim9.end" fill="freeze" id="anim_end" /></path></g></svg>