<?xml version='1.0' encoding='utf-8'?>
<svg viewBox="0 -44.0 50.0 50.0" version="1.1" xmlns="http://www.w3.org/2000/svg"><rect x="-1000" y="-1000" width="2000" height="2000" stroke="white" fill="white" /><g style="fill:none;stroke:#000000;stroke-width:1"><path d="M 40.9 -2.1 C 44.8 -2.1 46.4 -0.4 46.4 3.0 L 46.4 16.6 C 46.4 20.0 44.8 21.7 40.9 21.7 L 28.2 21.7 C 24.4 21.7 22.7 20.0 22.7 16.6 L 22.7 3.0 C 22.8 -0.7 24.7 -2.0 28.2 -2.1 Z " transform="scale(1,-1)" stroke-dasharray="87.13551048141804" stroke-dashoffset="87.13551048141804"><animate attributeName="stroke-dashoffset" from="87.13551048141804" to="0" dur="2.614065314442541s" begin="0s; 15s; 30s; 45s; 60s" fill="freeze" id="anim0" /></path><path d="M 42.9 8.7 L 42.9 3.5 C 42.9 1.7 42.2 1.1 40.2 1.1 L 36.0 1.1 L 36.0 8.7 Z " transform="scale(1,-1)" stroke-dasharray="28.140409704422957" stroke-dashoffset="28.140409704422957"><animate attributeName="stroke-dashoffset" from="28.140409704422957" to="0" dur="0.8442122911326887s" begin="anim0.end" fill="freeze" id="anim1" /></path><path d="M 42.9 11.7 L 36.0 11.7 L 36.0 18.6 L 40.2 18.6 C 42.2 18.6 42.9 17.9 42.9 16.2 Z " transform="scale(1,-1)" stroke-dasharray="26.71404400176822" stroke-dashoffset="26.71404400176822"><animate attributeName="stroke-dashoffset" from="26.71404400176822" to="0" dur="0.8014213200530466s" begin="anim1.end" fill="freeze" id="anim2" /></path><path d="M 32.6 18.6 L 32.6 11.7 L 26.2 11.7 L 26.2 16.2 C 26.2 17.9 26.9 18.6 29.0 18.6 Z " transform="scale(1,-1)" stroke-dasharray="25.704615014452667" stroke-dashoffset="25.704615014452667"><animate attributeName="stroke-dashoffset" from="25.704615014452667" to="0" dur="0.77113845043358s" begin="anim2.end" fill="freeze" id="anim3" /></path><path d="M 26.2 8.7 L 32.6 8.7 L 32.6 1.1 L 29.0 1.1 C 26.9 1.1 26.2 1.7 26.2 3.5 Z " transform="scale(1,-1)" stroke-dasharray="27.13137493636571" stroke-dashoffset="27.13137493636571"><animate attributeName="stroke-dashoffset" from="27.13137493636571" to="0" dur="0.8139412480909712s" begin="anim3.end" fill="freeze" id="anim4" /></path><path d="M 31.2 31.1 L 37.5 31.1 L 37.5 26.5 C 37.5 25.4 38.3 24.9 39.2 24.9 C 40.0 24.9 40.9 25.4 40.9 26.5 L 40.9 31.1 L 47.0 31.1 C 48.0 31.1 48.5 31.9 48.5 32.6 C 48.5 33.5 48.0 34.2 47.0 34.2 L 40.9 34.2 L 40.9 39.5 C 40.9 40.6 40.0 41.1 39.2 41.1 C 38.3 41.1 37.5 40.6 37.5 39.5 L 37.5 34.2 L 31.2 34.2 L 31.2 39.5 C 31.2 40.6 30.3 41.1 29.5 41.1 C 28.6 41.1 27.8 40.6 27.8 39.5 L 27.8 34.2 L 23.0 34.2 C 22.0 34.2 21.5 33.5 21.5 32.6 C 21.5 31.9 22.0 31.1 23.0 31.1 L 27.8 31.1 L 27.8 26.2 C 27.8 25.2 28.6 24.6 29.5 24.6 C 30.3 24.6 31.2 25.2 31.2 26.2 Z " transform="scale(1,-1)" stroke-dasharray="105.25280415379216" stroke-dashoffset="105.25280415379216"><animate attributeName="stroke-dashoffset" from="105.25280415379216" to="0" dur="3.1575841246137646s" begin="anim4.end" fill="freeze" id="anim5" /></path><path d="M 10.1 24.6 L 10.1 20.0 L 3.7 20.0 C 2.8 20.0 2.2 19.2 2.2 18.6 C 2.2 17.8 2.8 17.1 3.7 17.1 L 10.1 17.1 L 10.1 3.6 C 8.0 3.2 5.8 2.9 3.9 2.7 C 2.8 2.6 2.3 1.8 2.3 1.0 C 2.3 0.2 3.0 -0.8 4.2 -0.6 C 9.0 0.0 14.6 1.3 18.7 2.7 C 19.6 3.0 20.0 3.7 20.0 4.2 C 20.0 5.0 19.4 5.7 18.5 5.7 C 18.3 5.7 18.1 5.7 17.9 5.6 C 16.4 5.1 14.8 4.7 13.2 4.3 L 13.2 17.1 L 18.4 17.1 C 19.4 17.1 19.9 17.8 19.9 18.6 C 19.9 19.2 19.4 20.0 18.4 20.0 L 13.2 20.0 L 13.2 24.6 L 16.8 24.6 C 17.8 24.6 18.2 25.4 18.2 26.1 C 18.2 26.8 17.8 27.6 16.8 27.6 L 7.1 27.6 C 6.2 27.6 5.7 26.8 5.7 26.1 C 5.7 25.4 6.2 24.6 7.1 24.6 Z " transform="scale(1,-1)" stroke-dasharray="130.01639201783885" stroke-dashoffset="130.01639201783885"><animate attributeName="stroke-dashoffset" from="130.01639201783885" to="0" dur="3.9004917605351657s" begin="anim5.end" fill="freeze" id="anim6" /></path><path d="M 13.8 38.4 C 14.0 38.8 14.1 39.2 14.1 39.5 C 14.1 40.4 13.3 41.0 12.5 41.0 C 11.8 41.0 11.2 40.7 10.8 40.0 C 8.6 36.2 5.2 32.3 2.0 29.7 C 1.5 29.2 1.2 28.7 1.2 28.2 C 1.2 27.4 1.9 26.7 2.8 26.7 C 3.2 26.7 3.6 26.9 4.0 27.2 C 6.8 29.4 9.6 32.4 11.9 35.6 C 13.8 34.1 15.8 32.2 17.2 30.5 C 17.7 29.9 18.2 29.7 18.7 29.7 C 19.6 29.7 20.4 30.4 20.4 31.3 C 20.4 31.7 20.2 32.2 19.8 32.7 C 18.1 34.6 15.7 36.7 13.6 38.1 Z " transform="scale(1,-1)" stroke-dasharray="58.21121427823023" stroke-dashoffset="58.21121427823023"><animate attributeName="stroke-dashoffset" from="58.21121427823023" to="0" dur="1.746336428346907s" begin="anim6.end" fill="freeze" id="anim7" /></path><path d="M 6.4 13.0 C 6.0 13.7 5.4 14.0 4.8 14.0 C 4.0 14.0 3.4 13.4 3.4 12.6 C 3.4 12.4 3.4 12.1 3.6 11.8 C 4.3 10.5 4.9 8.8 5.3 7.0 C 5.5 6.1 6.2 5.7 6.9 5.7 C 7.8 5.7 8.7 6.5 8.4 7.9 C 8.1 9.6 7.2 11.8 6.4 13.0 Z " transform="scale(1,-1)" stroke-dasharray="20.973912345267465" stroke-dashoffset="20.973912345267465"><animate attributeName="stroke-dashoffset" from="20.973912345267465" to="0" dur="0.6292173703580239s" begin="anim7.end" fill="freeze" id="anim8" /></path><path d="M 16.6 13.8 C 16.1 12.0 15.6 10.5 15.0 9.2 C 14.9 8.8 14.8 8.6 14.8 8.3 C 14.8 7.6 15.4 7.1 16.1 7.1 C 16.6 7.1 17.2 7.4 17.6 8.2 C 18.2 9.3 18.9 11.2 19.4 12.9 C 19.4 13.1 19.5 13.2 19.5 13.4 C 19.5 14.2 18.7 14.8 17.9 14.8 C 17.4 14.8 16.8 14.5 16.6 13.8 Z" transform="scale(1,-1)" stroke-dasharray="19.39486829803513" stroke-dashoffset="19.39486829803513"><animate attributeName="stroke-dashoffset" from="19.39486829803513" to="0" dur="0.581846048941054s" begin="anim8.end" fill="freeze" id="anim_end" /></path></g></svg>