<?xml version='1.0' encoding='utf-8'?>
<svg viewBox="0 -44.0 50.0 50.0" version="1.1" xmlns="http://www.w3.org/2000/svg"><rect x="-1000" y="-1000" width="2000" height="2000" stroke="white" fill="white" /><g style="fill:none;stroke:#000000;stroke-width:1"><path d="M 1.6 -0.2 C 1.2 -0.5 0.8 -1.0 0.8 -1.4 C 0.8 -2.4 1.5 -3.2 2.3 -3.2 C 2.6 -3.2 3.0 -3.2 3.3 -2.9 L 22.8 10.1 C 23.4 10.6 24.2 10.8 25.0 10.8 C 25.8 10.8 26.6 10.6 27.2 10.1 L 46.7 -2.9 C 47.1 -3.2 47.4 -3.2 47.7 -3.2 C 48.5 -3.2 49.2 -2.4 49.2 -1.4 C 49.2 -1.0 48.9 -0.5 48.4 -0.2 L 27.9 13.5 C 27.1 14.0 25.9 14.3 25.0 14.3 C 24.1 14.3 22.9 14.0 22.2 13.5 Z" transform="scale(1,-1)" stroke-dasharray="117.28555643615067" stroke-dashoffset="117.28555643615067"><animate attributeName="stroke-dashoffset" from="117.28555643615067" to="0" dur="3.51856669308452s" begin="0s; 15s; 30s; 45s; 60s" fill="freeze" id="anim0" /></path></g></svg>