<?xml version='1.0' encoding='utf8'?>
<svg viewBox="0.0 -44.0 50.0 50.0" version="1.1" xmlns="http://www.w3.org/2000/svg">
<rect x="-1000" y="-1000" width="2000" height="2000" stroke="white" fill="white"/>
<g style="fill:none; stroke:#000000;  stroke-width:1">
<path d="M 16.1 31.4 C 18.8 34.2 22.2 35.4 24.9 35.4 C 30.1 35.4 33.1 32.4 33.1 27.4 C 33.1 23.2 31.4 20.9 27.8 16.8 C 24.2 12.7 17.2 6.4 16.4 5.6 C 15.5 4.7 15.3 3.0 17.3 3.0 L 34.1 3.0 M 8.9 42.0 C 4.5 34.4 2.8 27.6 2.8 19.0 C 2.8 10.4 4.6 3.6 9.1 -4.0 M 41.0 42.0 C 45.4 34.5 47.2 27.6 47.2 19.0 C 47.2 10.4 45.4 3.6 40.9 -4.0 " transform="scale(1, -1)" />
</g>
</svg>