<?xml version='1.0' encoding='utf8'?>
<svg viewBox="0.0 -44.0 50.0 50.0" version="1.1" xmlns="http://www.w3.org/2000/svg">
<rect x="-1000" y="-1000" width="2000" height="2000" stroke="white" fill="white"/>
<g style="fill:none; stroke:#000000;  stroke-width:1">
<path d="M 34.8 6.6 L 34.8 29.6 C 34.8 30.6 34.5 31.4 33.5 31.4 C 32.8 31.4 32.3 30.9 31.9 30.3 L 24.6 15.2 C 23.9 13.8 24.1 12.9 25.3 12.9 L 38.5 12.9 M 10.2 25.6 L 14.6 30.1 C 15.4 31.1 16.6 31.0 16.6 29.8 L 16.6 7.2 M 25.0 42.0 C 12.3 42.0 1.9 31.8 1.9 19.0 C 1.9 6.3 12.3 -4.0 25.0 -4.0 C 37.8 -4.0 48.0 6.3 48.0 19.0 C 48.0 31.8 37.8 42.0 25.0 42.0 Z " transform="scale(1, -1)" />
</g>
</svg>