<?xml version='1.0' encoding='utf8'?>
<svg viewBox="0.0 -44.0 50.0 50.0" version="1.1" xmlns="http://www.w3.org/2000/svg">
<rect x="-1000" y="-1000" width="2000" height="2000" stroke="white" fill="white"/>
<g style="fill:none; stroke:#000000;  stroke-width:1">
<path d="M 15.1 -1.6 L 15.1 25.6 M 9.0 18.1 C 12.2 23.1 15.5 30.9 17.1 38.5 M 38.7 6.8 C 38.2 1.8 37.3 0.1 35.7 0.1 C 34.0 0.1 31.5 3.5 29.4 10.9 C 27.3 18.4 26.8 27.2 26.8 38.9 M 19.5 24.1 L 39.8 26.4 M 9.1 -4.0 C 4.6 3.6 2.8 10.4 2.8 19.0 C 2.8 27.6 4.5 34.4 8.9 42.0 M 40.9 -4.0 C 45.4 3.6 47.2 10.4 47.2 19.0 C 47.2 27.6 45.4 34.5 41.0 42.0 M 36.7 32.6 C 35.6 34.1 34.6 35.4 33.5 36.4 " transform="scale(1, -1)" />
</g>
</svg>