<?xml version='1.0' encoding='utf8'?>
<svg viewBox="0.0 -44.0 50.0 50.0" version="1.1" xmlns="http://www.w3.org/2000/svg">
<rect x="-1000" y="-1000" width="2000" height="2000" stroke="white" fill="white"/>
<g style="fill:none; stroke:#000000;  stroke-width:1">
<path d="M 20.3 4.7 C 21.2 4.5 22.1 4.4 22.8 4.4 C 24.4 4.4 25.2 4.8 25.2 6.7 L 25.2 18.3 M 39.5 18.1 L 10.8 18.1 M 38.4 25.8 L 38.4 28.2 C 38.4 29.6 37.8 30.4 35.7 30.4 L 14.6 30.4 C 12.6 30.4 11.9 29.6 11.9 28.3 L 11.9 25.4 M 25.0 30.6 L 25.0 34.4 M 33.4 24.2 L 16.9 24.2 M 11.3 6.6 C 14.1 8.4 16.4 11.1 18.1 13.7 M 38.6 7.1 C 35.8 9.2 33.9 11.3 32.1 13.7 M 25.0 -4.0 C 12.3 -4.0 1.9 6.3 1.9 19.1 C 1.9 31.8 12.3 42.1 25.0 42.1 C 37.8 42.1 48.0 31.8 48.0 19.1 C 48.0 6.3 37.8 -4.0 25.0 -4.0 Z " transform="scale(1, -1)" />
</g>
</svg>