<?xml version='1.0' encoding='utf8'?>
<svg viewBox="0.0 -44.0 50.0 50.0" version="1.1" xmlns="http://www.w3.org/2000/svg">
<rect x="-1000" y="-1000" width="2000" height="2000" stroke="white" fill="white"/>
<g style="fill:none; stroke:#000000;  stroke-width:1">
<path d="M 5.9 35.5 L 5.9 3.1 M 17.1 36.1 L 6.0 14.7 M 10.2 21.8 L 17.9 2.5 M 47.1 6.0 C 47.8 6.0 48.2 5.2 48.2 4.2 C 48.2 3.1 47.8 2.4 47.1 2.4 C 46.4 2.4 46.0 3.1 46.0 4.2 C 46.0 5.2 46.4 6.0 47.1 6.0 Z M 23.6 6.0 C 24.4 6.0 24.7 5.2 24.7 4.2 C 24.7 3.1 24.4 2.4 23.6 2.4 C 22.9 2.4 22.5 3.1 22.5 4.2 C 22.5 5.2 22.9 6.0 23.6 6.0 Z M 29.6 35.5 L 29.6 3.1 M 40.9 36.1 L 29.8 14.7 M 33.9 21.8 L 41.6 2.5 " transform="scale(1, -1)" />
</g>
</svg>