<?xml version='1.0' encoding='utf8'?>
<svg viewBox="0.0 -44.0 50.0 50.0" version="1.1" xmlns="http://www.w3.org/2000/svg">
<rect x="-1000" y="-1000" width="2000" height="2000" stroke="white" fill="white"/>
<g style="fill:none; stroke:#000000;  stroke-width:1">
<path d="M 14.8 14.7 L 14.8 32.5 C 14.8 34.8 13.8 35.6 11.6 35.6 L 8.6 35.6 C 6.3 35.6 5.4 34.8 5.4 32.5 L 5.4 14.7 C 5.4 12.4 6.3 11.6 8.6 11.6 L 11.6 11.6 C 13.8 11.6 14.8 12.4 14.8 14.7 Z M 46.4 11.2 L 19.8 11.2 M 32.5 -2.5 L 32.5 29.6 M 42.7 20.9 L 23.1 20.9 M 45.0 29.9 L 21.1 29.9 M 34.8 30.5 C 36.7 33.4 38.3 36.5 39.5 39.5 M 27.9 35.1 C 27.1 36.7 26.1 38.2 25.2 39.3 " transform="scale(1, -1)" />
</g>
</svg>