<?xml version='1.0' encoding='utf8'?>
<svg viewBox="0.0 -44.0 50.0 50.0" version="1.1" xmlns="http://www.w3.org/2000/svg">
<rect x="-1000" y="-1000" width="2000" height="2000" stroke="white" fill="white"/>
<g style="fill:none; stroke:#000000;  stroke-width:1">
<path d="M 15.7 16.1 L 34.5 16.1 C 37.1 16.1 38.0 16.9 38.0 18.7 L 38.0 25.2 C 38.0 27.0 37.1 27.9 34.5 27.9 L 15.7 27.9 C 12.9 27.9 12.0 27.0 12.0 25.2 L 12.0 18.7 C 12.0 16.9 12.9 16.1 15.7 16.1 Z M 38.4 22.0 L 12.7 22.0 M 4.8 -1.4 C 10.5 -0.9 17.4 0.1 22.6 1.4 M 10.6 -0.3 L 10.6 12.0 M 21.5 8.0 L 10.9 8.0 M 45.2 3.7 C 44.9 -0.1 43.5 -1.2 36.0 -1.2 C 29.4 -1.2 28.4 -0.6 28.4 1.5 L 28.4 12.0 M 29.1 6.0 C 33.8 7.0 37.9 8.3 41.3 10.0 M 8.9 39.4 L 8.9 35.9 C 8.9 34.1 9.8 33.5 12.2 33.5 L 38.0 33.5 C 40.4 33.5 41.3 34.1 41.3 35.9 L 41.3 39.4 M 24.8 33.4 L 24.8 40.9 " transform="scale(1, -1)" />
</g>
</svg>