<?xml version='1.0' encoding='utf8'?>
<svg viewBox="0.0 -44.0 50.0 50.0" version="1.1" xmlns="http://www.w3.org/2000/svg">
<rect x="-1000" y="-1000" width="2000" height="2000" stroke="white" fill="white"/>
<g style="fill:none; stroke:#000000;  stroke-width:1">
<path d="M 37.0 7.4 L 37.0 11.8 C 37.0 13.5 36.2 14.3 34.2 14.3 L 30.5 14.3 C 28.5 14.3 27.8 13.5 27.8 11.8 L 27.8 7.4 C 27.8 5.7 28.5 4.8 30.5 4.8 L 34.2 4.8 C 36.2 4.8 37.0 5.7 37.0 7.4 Z M 38.9 -1.4 C 39.8 -1.6 40.7 -1.7 41.7 -1.7 C 43.7 -1.7 45.0 -0.8 45.0 1.6 L 45.0 17.7 C 45.0 19.9 44.0 21.1 41.0 21.1 L 24.1 21.1 C 20.9 21.1 20.1 19.9 20.1 17.7 L 20.1 -2.5 M 32.2 21.4 L 32.2 28.4 C 32.2 30.3 33.0 31.0 35.1 31.0 L 39.9 31.0 M 40.8 21.3 L 40.8 35.1 C 40.8 37.4 39.8 38.5 36.8 38.5 L 28.2 38.5 C 25.4 38.5 24.4 37.4 24.4 35.1 L 24.4 21.3 M 3.8 7.5 C 7.3 8.7 12.2 10.7 15.6 12.4 M 9.9 9.4 L 9.9 39.5 M 15.4 26.9 L 3.9 26.9 " transform="scale(1, -1)" />
</g>
</svg>