<?xml version='1.0' encoding='utf8'?>
<svg viewBox="0.0 -44.0 50.0 50.0" version="1.1" xmlns="http://www.w3.org/2000/svg">
<rect x="-1000" y="-1000" width="2000" height="2000" stroke="white" fill="white"/>
<g style="fill:none; stroke:#000000;  stroke-width:1">
<path d="M 15.7 27.4 L 34.5 27.4 C 37.2 27.4 38.1 28.1 38.1 29.9 L 38.1 36.6 C 38.1 38.5 37.2 39.2 34.5 39.2 L 15.7 39.2 C 12.9 39.2 11.9 38.5 11.9 36.6 L 11.9 29.9 C 11.9 28.1 12.9 27.4 15.7 27.4 Z M 38.5 33.4 L 12.7 33.4 M 36.0 -1.1 C 36.8 -1.2 37.6 -1.4 38.8 -1.4 C 40.8 -1.4 42.1 -0.6 42.6 2.0 C 43.3 5.4 43.7 9.6 43.7 14.5 C 43.7 16.6 42.9 17.4 40.4 17.3 L 26.4 16.9 M 24.8 -1.9 C 30.4 2.4 33.6 8.6 33.6 18.9 L 33.6 23.4 M 20.0 3.1 L 20.0 19.2 C 20.0 21.1 19.1 21.9 16.9 21.9 L 11.4 21.9 C 9.1 21.9 8.2 21.2 8.2 19.4 L 8.2 0.3 M 19.6 8.4 L 8.3 8.4 M 19.4 15.1 L 8.1 15.1 M 4.2 -0.2 C 10.4 0.5 17.4 1.6 23.4 3.4 " transform="scale(1, -1)" />
</g>
</svg>