<?xml version='1.0' encoding='utf8'?>
<svg viewBox="0.0 -44.0 50.0 50.0" version="1.1" xmlns="http://www.w3.org/2000/svg">
<rect x="-1000" y="-1000" width="2000" height="2000" stroke="white" fill="white"/>
<g style="fill:none; stroke:#000000;  stroke-width:1">
<path d="M 15.3 -1.9 C 16.0 -2.1 16.9 -2.1 17.6 -2.1 C 19.8 -2.1 20.9 -1.4 20.9 0.6 L 20.9 31.0 C 20.9 33.2 20.0 34.2 17.4 34.2 L 12.2 34.2 C 9.7 34.2 8.7 33.2 8.7 31.0 L 8.7 12.2 M 4.2 0.6 C 11.5 4.2 21.1 12.2 26.1 19.9 M 4.5 11.8 C 9.7 12.4 15.5 13.7 20.6 15.4 M 20.4 20.9 L 9.1 20.9 M 20.4 27.4 L 9.1 27.4 M 14.3 35.1 C 14.9 36.8 15.4 38.5 15.8 39.8 M 33.2 -1.2 C 34.5 -1.4 35.5 -1.6 36.4 -1.6 C 38.8 -1.6 40.1 -0.8 40.1 1.9 L 40.1 39.9 M 46.9 26.0 L 27.4 26.0 M 33.5 11.2 C 32.6 12.9 31.3 14.8 30.0 16.1 " transform="scale(1, -1)" />
</g>
</svg>