<?xml version='1.0' encoding='utf8'?>
<svg viewBox="0.0 -44.0 50.0 50.0" version="1.1" xmlns="http://www.w3.org/2000/svg">
<rect x="-1000" y="-1000" width="2000" height="2000" stroke="white" fill="white"/>
<g style="fill:none; stroke:#000000;  stroke-width:1">
<path d="M 24.0 4.0 C 31.8 5.2 37.0 8.7 39.6 15.3 M 45.4 15.9 L 22.6 15.9 M 40.4 27.2 L 25.6 27.2 M 29.4 21.6 L 37.5 21.6 C 40.2 21.6 41.0 22.6 41.0 24.4 L 41.0 30.0 C 41.0 31.9 40.1 32.8 37.4 32.8 L 29.4 32.8 C 26.6 32.8 25.8 31.9 25.8 30.0 L 25.8 24.4 C 25.8 22.6 26.6 21.6 29.4 21.6 Z M 42.6 4.8 C 37.9 7.5 32.2 9.9 27.1 11.4 M 26.2 10.3 C 28.6 12.9 30.6 15.9 32.2 19.1 M 8.8 -2.7 L 8.8 25.6 M 3.0 19.2 C 6.2 24.4 9.5 32.6 11.1 40.0 M 45.9 -0.8 L 21.9 -0.8 C 18.7 -0.8 17.4 0.6 17.4 3.1 L 17.4 34.6 C 17.4 37.1 18.6 38.4 21.8 38.4 L 44.9 38.4 " transform="scale(1, -1)" />
</g>
</svg>