<?xml version='1.0' encoding='utf8'?>
<svg viewBox="0.0 -44.0 50.0 50.0" version="1.1" xmlns="http://www.w3.org/2000/svg">
<rect x="-1000" y="-1000" width="2000" height="2000" stroke="white" fill="white"/>
<g style="fill:none; stroke:#000000;  stroke-width:1">
<path d="M 45.1 -0.7 L 14.8 -0.7 M 40.7 6.2 L 19.9 6.2 M 43.8 12.8 L 16.9 12.8 M 30.1 -0.4 L 30.1 26.8 M 22.4 19.1 L 38.6 19.1 C 41.2 19.1 42.1 20.1 42.1 21.9 L 42.1 24.5 C 42.1 26.3 41.2 27.2 38.5 27.2 L 22.4 27.2 C 19.8 27.2 18.9 26.3 18.9 24.5 L 18.9 21.9 C 18.9 20.1 19.8 19.1 22.4 19.1 Z M 25.2 31.9 L 25.2 40.3 M 45.6 36.0 L 16.2 36.0 M 34.9 32.1 L 34.9 40.3 M 9.2 -2.5 L 9.2 25.7 M 3.0 19.1 C 6.5 24.2 9.9 32.5 11.7 39.9 " transform="scale(1, -1)" />
</g>
</svg>