<?xml version='1.0' encoding='utf8'?>
<svg viewBox="0.0 -44.0 50.0 50.0" version="1.1" xmlns="http://www.w3.org/2000/svg">
<rect x="-1000" y="-1000" width="2000" height="2000" stroke="white" fill="white"/>
<g style="fill:none; stroke:#000000;  stroke-width:1">
<path d="M 14.8 16.8 L 35.9 16.8 C 38.8 16.8 39.7 17.7 39.7 19.6 L 39.7 27.6 C 39.7 29.6 38.8 30.4 35.9 30.4 L 14.8 30.4 C 11.8 30.4 10.9 29.6 10.9 27.6 L 10.9 19.6 C 10.9 17.7 11.8 16.8 14.8 16.8 Z M 4.0 -1.4 C 11.0 0.8 18.4 4.8 23.1 9.1 M 44.7 10.5 L 5.2 10.5 M 24.9 -2.9 L 24.9 29.8 M 45.9 -0.8 C 39.0 1.1 31.3 4.9 26.2 9.2 M 39.5 23.7 L 11.7 23.7 M 31.6 30.9 C 34.2 33.8 36.5 37.0 38.1 40.4 M 25.1 35.7 C 24.4 37.5 23.4 39.2 22.4 40.6 M 14.2 35.0 C 13.3 36.5 12.0 38.2 10.9 39.5 " transform="scale(1, -1)" />
</g>
</svg>