<?xml version='1.0' encoding='utf8'?>
<svg viewBox="0.0 -44.0 50.0 50.0" version="1.1" xmlns="http://www.w3.org/2000/svg">
<rect x="-1000" y="-1000" width="2000" height="2000" stroke="white" fill="white"/>
<g style="fill:none; stroke:#000000;  stroke-width:1">
<path d="M 30.5 15.8 L 30.5 19.3 C 30.5 20.9 29.8 21.6 28.1 21.6 L 25.6 21.6 C 23.9 21.6 23.1 20.9 23.1 19.3 L 23.1 15.8 C 23.1 14.2 23.9 13.4 25.6 13.4 L 28.1 13.4 C 29.8 13.4 30.5 14.2 30.5 15.8 Z M 36.3 19.3 L 36.3 15.8 C 36.3 14.2 37.0 13.4 38.8 13.4 L 41.4 13.4 C 43.0 13.4 43.8 14.2 43.8 15.8 L 43.8 19.3 C 43.8 20.9 43.0 21.6 41.4 21.6 L 38.8 21.6 C 37.0 21.6 36.3 20.9 36.3 19.3 Z M 19.8 -1.3 C 22.9 1.6 25.6 5.4 27.2 9.1 M 30.3 1.7 C 29.3 2.8 27.8 4.2 26.4 5.2 M 5.2 30.9 L 5.2 8.8 C 5.2 6.6 6.2 5.8 8.2 5.8 L 13.9 5.8 C 16.0 5.8 16.9 6.6 16.9 8.8 L 16.9 30.9 M 11.0 5.8 L 11.0 39.0 M 33.3 -1.4 C 36.1 1.4 38.4 5.2 39.9 9.1 M 44.8 -0.7 C 43.1 1.4 41.1 3.2 39.0 4.8 M 21.1 26.1 C 25.7 29.5 30.2 34.5 33.4 39.5 M 46.5 27.1 C 41.8 29.9 37.0 34.1 33.3 39.0 M 38.0 27.1 L 29.2 27.1 " transform="scale(1, -1)" />
</g>
</svg>