<?xml version='1.0' encoding='utf8'?>
<svg viewBox="0.0 -44.0 50.0 50.0" version="1.1" xmlns="http://www.w3.org/2000/svg">
<rect x="-1000" y="-1000" width="2000" height="2000" stroke="white" fill="white"/>
<g style="fill:none; stroke:#000000;  stroke-width:1">
<path d="M 21.6 4.5 L 28.5 4.5 C 31.1 4.5 31.9 5.5 31.9 7.4 L 31.9 11.3 C 31.9 13.3 31.1 14.2 28.5 14.2 L 21.6 14.2 C 19.0 14.2 18.2 13.3 18.2 11.3 L 18.2 7.4 C 18.2 5.5 19.0 4.5 21.6 4.5 Z M 34.0 -1.2 C 35.3 -1.6 36.5 -1.7 37.6 -1.7 C 40.3 -1.7 42.0 -0.3 42.8 3.4 C 43.5 7.2 44.0 12.3 44.0 17.4 C 44.0 19.9 42.8 21.2 39.1 21.2 L 9.6 21.2 M 4.4 0.2 C 8.2 6.5 10.1 14.9 10.1 27.8 L 10.1 34.2 C 10.1 36.6 11.1 37.8 14.3 37.8 L 36.7 37.8 C 39.5 37.8 40.5 36.8 40.5 34.9 L 40.5 32.1 C 40.5 30.1 39.5 29.1 36.8 29.1 L 10.0 29.1 " transform="scale(1, -1)" />
</g>
</svg>