<?xml version='1.0' encoding='utf8'?>
<svg viewBox="0.0 -44.0 50.0 50.0" version="1.1" xmlns="http://www.w3.org/2000/svg">
<rect x="-1000" y="-1000" width="2000" height="2000" stroke="white" fill="white"/>
<g style="fill:none; stroke:#000000;  stroke-width:1">
<path d="M 24.9 -1.0 L 41.1 -1.0 C 44.0 -1.0 45.0 0.1 45.0 2.8 L 45.0 23.2 C 45.0 25.8 44.0 26.9 41.1 26.9 L 25.0 26.9 C 22.1 26.9 21.0 25.8 21.0 23.2 L 21.0 2.8 C 21.0 0.1 22.1 -1.0 24.9 -1.0 Z M 46.3 37.0 L 19.2 37.0 M 25.6 9.4 C 28.1 13.0 29.1 18.2 29.1 26.4 L 29.1 36.5 M 41.5 14.2 C 41.2 11.4 40.2 10.6 38.2 10.6 C 36.5 10.6 35.9 10.9 35.9 12.8 L 35.9 36.5 M 7.8 5.0 L 11.0 5.0 C 13.2 5.0 14.0 6.0 14.0 8.3 L 14.0 33.5 C 14.0 35.9 13.1 36.8 10.9 36.8 L 7.8 36.8 C 5.8 36.8 4.8 35.9 4.8 33.5 L 4.8 8.3 C 4.8 6.0 5.8 5.0 7.8 5.0 Z M 13.6 21.9 L 5.0 21.9 " transform="scale(1, -1)" />
</g>
</svg>