<?xml version='1.0' encoding='utf8'?>
<svg viewBox="0.0 -44.0 50.0 50.0" version="1.1" xmlns="http://www.w3.org/2000/svg">
<rect x="-1000" y="-1000" width="2000" height="2000" stroke="white" fill="white"/>
<g style="fill:none; stroke:#000000;  stroke-width:1">
<path d="M 8.1 5.6 L 10.9 5.6 C 13.1 5.6 13.9 6.5 13.9 8.8 L 13.9 34.5 C 13.9 36.8 13.1 37.6 10.9 37.6 L 8.2 37.6 C 6.1 37.6 5.2 36.8 5.2 34.5 L 5.2 8.8 C 5.2 6.5 6.0 5.6 8.1 5.6 Z M 13.4 22.6 L 5.2 22.6 M 16.7 -0.7 C 21.8 1.1 28.0 4.2 32.4 7.8 M 18.6 6.0 C 22.5 7.4 26.8 9.8 30.1 12.3 M 27.4 -1.6 C 28.3 -1.9 29.1 -2.0 30.1 -2.0 C 32.4 -2.0 33.8 -0.4 33.8 3.4 C 33.8 7.8 31.6 12.8 26.9 15.9 M 18.9 12.1 C 23.1 13.6 27.2 15.9 30.6 18.9 M 46.5 1.1 C 40.6 5.1 36.8 11.2 35.3 19.3 M 38.4 10.2 C 40.6 11.4 42.5 12.8 44.5 14.5 M 26.9 34.0 L 26.9 40.5 M 45.8 37.1 L 18.6 37.1 M 36.4 34.1 L 36.4 40.5 M 38.1 24.7 L 25.4 24.7 M 46.0 19.3 L 18.9 19.3 M 44.0 25.1 L 44.0 27.5 C 44.0 29.2 43.2 30.1 41.0 30.1 L 22.9 30.1 C 20.7 30.1 19.9 29.2 19.9 27.5 L 19.9 24.8 " transform="scale(1, -1)" />
</g>
</svg>