<?xml version='1.0' encoding='utf8'?>
<svg viewBox="0.0 -44.0 50.0 50.0" version="1.1" xmlns="http://www.w3.org/2000/svg">
<rect x="-1000" y="-1000" width="2000" height="2000" stroke="white" fill="white"/>
<g style="fill:none; stroke:#000000;  stroke-width:1">
<path d="M 45.6 1.3 C 40.4 8.2 37.1 17.3 36.0 28.1 M 14.2 -0.1 C 18.2 6.3 20.1 13.9 20.1 25.1 L 20.1 35.5 M 28.7 -1.9 L 28.7 27.1 M 20.1 25.2 C 27.4 26.1 36.4 28.1 42.5 30.3 M 38.0 16.8 C 40.2 17.9 42.7 19.4 44.9 21.1 M 20.6 34.6 C 26.6 35.5 33.9 37.1 39.5 39.0 M 11.7 35.1 C 10.6 36.5 8.8 38.0 7.7 38.9 M 5.5 -0.5 C 7.7 3.0 10.0 8.3 11.3 12.7 M 8.4 23.2 C 7.2 24.6 5.3 26.1 4.2 26.9 " transform="scale(1, -1)" />
</g>
</svg>