<?xml version='1.0' encoding='utf8'?>
<svg viewBox="0.0 -44.0 50.0 50.0" version="1.1" xmlns="http://www.w3.org/2000/svg">
<rect x="-1000" y="-1000" width="2000" height="2000" stroke="white" fill="white"/>
<g style="fill:none; stroke:#000000;  stroke-width:1">
<path d="M 15.2 3.4 L 35.0 3.4 C 37.6 3.4 38.4 4.0 38.4 5.7 L 38.4 10.6 C 38.4 12.2 37.6 12.9 35.0 12.9 L 15.2 12.9 C 12.7 12.9 11.8 12.2 11.8 10.6 L 11.8 5.7 C 11.8 4.0 12.7 3.4 15.2 3.4 Z M 38.9 8.2 L 12.3 8.2 M 10.1 27.7 L 34.4 27.7 C 37.2 27.7 38.1 28.4 38.1 29.9 L 38.1 35.6 C 38.1 37.1 37.2 37.9 34.4 37.9 L 10.6 37.9 M 46.5 17.6 L 3.4 17.6 M 42.2 22.7 L 8.1 22.7 M 24.6 17.4 L 24.6 41.2 M 46.0 32.8 L 4.0 32.8 M 45.8 -1.4 L 4.2 -1.4 " transform="scale(1, -1)" />
</g>
</svg>