<?xml version='1.0' encoding='utf8'?>
<svg viewBox="0.0 -44.0 50.0 50.0" version="1.1" xmlns="http://www.w3.org/2000/svg">
<rect x="-1000" y="-1000" width="2000" height="2000" stroke="white" fill="white"/>
<g style="fill:none; stroke:#000000;  stroke-width:1">
<path d="M 31.7 -2.4 L 31.7 18.4 M 19.9 12.2 C 23.4 15.1 27.1 19.6 29.2 23.7 M 42.9 5.2 L 31.8 5.2 M 42.5 12.1 L 31.4 12.1 M 46.0 18.6 L 27.0 18.6 M 19.9 23.9 C 23.8 25.9 26.6 28.8 28.0 32.6 M 45.2 31.8 L 45.2 32.6 C 45.2 34.5 44.6 35.6 41.9 35.6 L 23.1 35.6 C 20.4 35.6 19.8 34.5 19.8 32.6 L 19.8 30.9 M 44.0 28.4 C 43.7 26.2 42.5 25.7 39.1 25.7 C 35.9 25.7 35.1 26.2 35.1 28.4 L 35.1 34.9 M 31.9 36.5 L 31.9 40.4 M 4.5 -1.6 C 5.5 -1.8 6.3 -1.8 7.0 -1.8 C 9.1 -1.8 10.2 -0.9 10.2 1.6 L 10.2 40.2 M 3.8 13.4 C 8.0 14.7 12.2 16.1 15.2 17.6 M 15.0 29.4 L 3.9 29.4 " transform="scale(1, -1)" />
</g>
</svg>