<?xml version='1.0' encoding='utf8'?>
<svg viewBox="0.0 -44.0 50.0 50.0" version="1.1" xmlns="http://www.w3.org/2000/svg">
<rect x="-1000" y="-1000" width="2000" height="2000" stroke="white" fill="white"/>
<g style="fill:none; stroke:#000000;  stroke-width:1">
<path d="M 5.5 16.4 C 7.6 18.4 8.8 21.4 9.0 25.1 M 16.8 25.8 L 4.1 25.8 M 16.0 16.1 L 16.0 40.5 M 16.4 32.3 L 11.3 32.3 C 8.7 32.3 7.8 32.8 7.8 35.0 L 7.8 39.0 M 29.8 30.3 C 29.2 31.1 28.6 31.6 27.9 32.3 M 22.9 33.9 C 26.6 35.4 30.6 38.0 33.1 40.6 M 22.2 28.3 C 29.6 29.2 37.0 31.8 41.2 34.8 C 43.1 36.1 42.4 37.6 40.2 37.6 L 30.1 37.6 M 35.2 32.1 C 34.4 33.0 33.8 33.6 32.9 34.4 M 45.6 -0.6 C 37.6 1.6 30.1 6.2 25.9 12.8 M 19.1 -2.2 C 19.9 -2.4 20.8 -2.5 21.6 -2.5 C 24.2 -2.5 25.1 -1.4 25.1 0.8 L 25.1 15.7 M 32.0 6.7 C 34.8 8.1 37.9 10.1 40.0 11.9 M 46.5 24.9 L 20.6 24.9 M 34.3 16.6 C 34.9 16.4 35.4 16.4 36.3 16.4 C 38.1 16.4 39.0 17.1 39.0 19.1 L 39.0 28.9 M 3.8 -1.4 C 9.4 0.7 14.9 4.0 17.9 7.6 C 19.3 9.3 18.5 10.5 16.1 10.5 L 7.0 10.5 M 29.1 18.9 C 28.2 19.8 27.2 20.6 26.2 21.3 " transform="scale(1, -1)" />
</g>
</svg>