<?xml version='1.0' encoding='utf8'?>
<svg viewBox="0.0 -44.0 50.0 50.0" version="1.1" xmlns="http://www.w3.org/2000/svg">
<rect x="-1000" y="-1000" width="2000" height="2000" stroke="white" fill="white"/>
<g style="fill:none; stroke:#000000;  stroke-width:1">
<path d="M 29.6 29.9 L 14.5 29.9 M 22.1 18.5 L 22.1 40.0 M 19.8 4.7 L 24.2 4.7 C 26.1 4.7 27.1 5.5 27.1 7.5 L 27.1 16.1 C 27.1 18.1 26.4 18.9 24.4 18.9 L 19.7 18.9 C 17.7 18.9 16.9 18.1 16.9 16.1 L 16.9 7.5 C 16.9 5.5 17.9 4.7 19.8 4.7 Z M 38.9 -0.8 C 39.8 -1.0 40.7 -1.1 41.3 -1.1 C 43.4 -1.1 44.4 -0.2 44.4 2.0 L 44.4 35.2 C 44.4 37.6 43.5 38.5 41.3 38.5 L 37.5 38.5 C 35.5 38.5 34.6 37.6 34.6 35.2 L 34.6 21.6 C 34.6 10.1 32.5 3.7 28.6 -1.4 M 43.9 15.3 L 34.9 15.3 M 44.4 27.0 L 34.9 27.0 M 11.2 35.2 C 10.2 36.5 8.5 38.0 7.3 38.9 M 5.2 -0.5 C 7.3 2.9 9.6 8.2 10.8 12.6 M 8.1 23.2 C 6.9 24.6 5.1 26.0 4.0 26.9 " transform="scale(1, -1)" />
</g>
</svg>