<?xml version='1.0' encoding='utf8'?>
<svg viewBox="0.0 -44.0 50.0 50.0" version="1.1" xmlns="http://www.w3.org/2000/svg">
<rect x="-1000" y="-1000" width="2000" height="2000" stroke="white" fill="white"/>
<g style="fill:none; stroke:#000000;  stroke-width:1">
<path d="M 29.6 10.4 L 33.3 10.4 C 35.3 10.4 36.1 11.3 36.1 13.2 L 36.1 19.3 C 36.1 21.3 35.3 22.1 33.3 22.1 L 29.6 22.1 C 27.6 22.1 26.8 21.3 26.8 19.3 L 26.8 13.2 C 26.8 11.3 27.6 10.4 29.6 10.4 Z M 36.5 -0.9 C 37.6 -1.2 38.6 -1.3 39.8 -1.3 C 42.4 -1.3 43.7 -0.2 43.7 2.1 L 43.7 34.5 C 43.7 37.1 42.5 38.4 39.5 38.4 L 23.4 38.4 C 20.4 38.4 19.2 37.0 19.2 34.5 L 19.2 -2.1 M 37.8 30.0 L 25.1 30.0 M 11.9 35.0 C 10.8 36.4 9.1 38.0 7.8 38.9 M 5.5 -0.4 C 7.8 3.0 10.2 8.3 11.7 12.7 M 8.6 23.2 C 7.4 24.5 5.5 26.0 4.2 26.9 " transform="scale(1, -1)" />
</g>
</svg>