<?xml version='1.0' encoding='utf8'?>
<svg viewBox="0.0 -44.0 50.0 50.0" version="1.1" xmlns="http://www.w3.org/2000/svg">
<rect x="-1000" y="-1000" width="2000" height="2000" stroke="white" fill="white"/>
<g style="fill:none; stroke:#000000;  stroke-width:1">
<path d="M 28.4 -0.8 L 37.7 -0.8 C 40.4 -0.8 41.5 0.1 41.5 2.5 L 41.5 9.3 C 41.5 11.7 40.4 12.7 37.7 12.7 L 28.4 12.7 C 25.8 12.7 24.7 11.7 24.7 9.3 L 24.7 2.5 C 24.7 0.1 25.8 -0.8 28.4 -0.8 Z M 20.8 26.6 C 24.1 29.9 27.4 35.4 29.1 39.6 M 45.9 16.2 C 38.3 19.1 30.2 25.2 26.1 32.5 M 19.6 15.2 C 27.6 18.6 35.4 24.2 39.3 30.7 C 40.7 33.0 39.8 34.6 37.0 34.6 L 27.4 34.6 M 3.9 6.0 C 7.9 7.0 13.0 8.7 16.9 10.3 M 10.3 7.8 L 10.3 36.5 M 15.9 23.3 L 4.5 23.3 M 16.6 36.5 L 3.8 36.5 " transform="scale(1, -1)" />
</g>
</svg>