<?xml version='1.0' encoding='utf8'?>
<svg viewBox="0.0 -44.0 50.0 50.0" version="1.1" xmlns="http://www.w3.org/2000/svg">
<rect x="-1000" y="-1000" width="2000" height="2000" stroke="white" fill="white"/>
<g style="fill:none; stroke:#000000;  stroke-width:1">
<path d="M 21.2 2.1 C 26.3 2.5 31.9 3.2 37.5 4.1 M 39.0 -2.1 C 39.6 -2.2 40.2 -2.4 41.0 -2.4 C 43.1 -2.4 44.2 -1.6 44.2 0.5 L 44.2 6.5 C 44.2 8.6 43.2 9.7 40.1 9.7 L 19.6 9.7 C 16.3 9.7 15.5 8.7 15.5 6.5 L 15.5 -2.6 M 38.6 2.4 C 38.0 3.9 37.0 5.2 36.2 6.3 M 29.4 3.3 L 29.4 24.4 M 22.2 14.5 L 36.8 14.5 C 39.5 14.5 40.2 15.3 40.2 17.0 L 40.2 21.6 C 40.2 23.2 39.5 24.0 36.8 24.0 L 22.2 24.0 C 19.5 24.0 18.8 23.2 18.8 21.6 L 18.8 17.0 C 18.8 15.2 19.5 14.5 22.2 14.5 Z M 39.5 19.2 L 19.8 19.2 M 4.4 0.2 C 8.3 6.2 10.5 13.6 10.5 24.6 L 10.5 33.1 C 10.5 35.5 11.7 36.7 14.8 36.7 L 46.4 36.7 M 3.2 14.2 C 5.6 15.3 8.1 16.6 10.6 18.3 M 6.9 26.1 C 6.1 27.1 5.1 28.4 4.2 29.2 M 24.2 27.6 L 24.2 32.9 M 44.5 30.2 L 15.4 30.2 M 34.6 27.6 L 34.6 32.9 M 27.9 36.4 L 27.9 41.4 " transform="scale(1, -1)" />
</g>
</svg>