<?xml version='1.0' encoding='utf8'?>
<svg viewBox="0.0 -44.0 50.0 50.0" version="1.1" xmlns="http://www.w3.org/2000/svg">
<rect x="-1000" y="-1000" width="2000" height="2000" stroke="white" fill="white"/>
<g style="fill:none; stroke:#000000;  stroke-width:1">
<path d="M 6.1 -1.9 C 16.9 0.8 29.6 7.5 36.1 15.8 M 17.0 14.8 L 17.0 2.8 C 17.0 -0.0 18.1 -0.9 25.9 -0.9 C 34.9 -0.9 36.7 -0.2 37.4 4.7 M 46.4 23.1 L 26.6 23.1 M 36.0 22.9 L 36.0 37.9 M 44.0 30.7 L 28.6 30.7 M 45.4 37.9 L 27.3 37.9 M 4.5 20.6 C 10.1 21.5 16.5 22.9 21.8 24.6 M 13.2 22.4 L 13.2 37.4 M 20.9 30.7 L 5.8 30.7 M 22.4 37.9 L 4.4 37.9 M 46.1 4.6 C 45.1 6.5 43.6 8.6 42.4 10.1 M 5.6 4.8 C 6.8 6.3 8.2 8.7 9.2 10.8 M 27.4 15.2 C 26.2 16.2 24.8 17.2 23.4 18.0 " transform="scale(1, -1)" />
</g>
</svg>