<?xml version='1.0' encoding='utf8'?>
<svg viewBox="0.0 -44.0 50.0 50.0" version="1.1" xmlns="http://www.w3.org/2000/svg">
<rect x="-1000" y="-1000" width="2000" height="2000" stroke="white" fill="white"/>
<g style="fill:none; stroke:#000000;  stroke-width:1">
<path d="M 25.2 23.5 L 40.5 23.5 C 43.1 23.5 43.9 24.4 43.9 26.1 L 43.9 29.1 C 43.9 30.8 43.1 31.6 40.5 31.6 L 25.2 31.6 C 22.7 31.6 21.9 30.8 21.9 29.1 L 21.9 26.1 C 21.9 24.4 22.7 23.5 25.2 23.5 Z M 46.1 38.1 L 20.1 38.1 M 29.1 24.2 L 29.1 37.8 M 36.3 24.2 L 36.3 37.8 M 10.3 -2.8 L 10.3 18.7 M 3.0 18.5 C 7.2 18.6 11.9 19.1 15.8 19.7 M 17.8 17.3 C 17.1 19.4 15.8 21.6 14.7 23.1 M 9.9 26.2 C 7.8 29.2 5.8 31.4 4.3 32.7 M 6.2 19.1 C 9.2 23.1 12.7 28.8 14.8 33.3 M 6.7 31.2 C 8.2 33.9 9.6 36.9 10.7 40.0 M 27.4 -1.8 C 28.2 -1.9 29.1 -2.0 29.8 -2.0 C 32.0 -2.0 33.0 -1.2 33.0 1.1 L 33.0 10.8 M 46.1 11.3 L 20.9 11.3 M 17.1 6.2 C 16.6 8.4 15.7 11.0 14.8 12.4 M 3.4 2.5 C 4.3 5.0 5.1 8.9 5.3 11.8 M 45.3 1.4 C 43.8 2.7 41.7 4.7 40.3 6.1 M 42.2 17.5 L 23.8 17.5 M 19.9 0.7 C 21.8 2.1 23.9 4.2 25.4 6.2 " transform="scale(1, -1)" />
</g>
</svg>