<?xml version='1.0' encoding='utf8'?>
<svg viewBox="0.0 -44.0 50.0 50.0" version="1.1" xmlns="http://www.w3.org/2000/svg">
<rect x="-1000" y="-1000" width="2000" height="2000" stroke="white" fill="white"/>
<g style="fill:none; stroke:#000000;  stroke-width:1">
<path d="M 15.0 24.3 L 35.1 24.3 C 38.0 24.3 39.1 25.1 39.1 27.2 L 39.1 35.7 C 39.1 37.8 38.0 38.8 35.1 38.8 L 15.0 38.8 C 12.2 38.8 11.1 37.8 11.1 35.7 L 11.1 27.2 C 11.1 25.1 12.2 24.3 15.0 24.3 Z M 39.2 31.6 L 11.9 31.6 M 4.8 -2.1 C 16.4 1.1 23.3 7.2 24.8 19.6 M 45.0 -1.2 C 34.8 2.2 27.4 8.1 24.8 18.6 M 36.1 11.8 C 38.0 13.1 39.9 14.9 41.4 16.8 M 8.8 10.1 C 10.3 11.8 12.0 14.4 12.8 16.6 " transform="scale(1, -1)" />
</g>
</svg>