<?xml version='1.0' encoding='utf8'?>
<svg viewBox="0.0 -44.0 50.0 50.0" version="1.1" xmlns="http://www.w3.org/2000/svg">
<rect x="-1000" y="-1000" width="2000" height="2000" stroke="white" fill="white"/>
<g style="fill:none; stroke:#000000;  stroke-width:1">
<path d="M 9.5 -2.9 L 9.5 18.8 M 2.6 18.5 C 6.7 18.6 11.1 19.1 14.7 19.7 M 16.1 17.2 C 15.4 19.4 14.3 21.6 13.2 23.1 M 9.3 26.2 C 7.1 29.2 5.2 31.4 3.7 32.7 M 5.5 19.1 C 8.3 23.1 11.7 28.8 13.8 33.5 M 6.0 31.2 C 7.5 33.9 8.8 36.9 9.9 40.2 M 23.1 2.1 L 25.9 2.1 C 27.6 2.1 28.6 3.0 28.6 4.7 L 28.6 12.9 C 28.6 14.7 27.6 15.5 25.9 15.5 L 23.1 15.5 C 21.4 15.5 20.6 14.7 20.6 12.9 L 20.6 4.7 C 20.6 3.0 21.4 2.1 23.1 2.1 Z M 37.6 7.2 L 42.0 7.2 C 44.2 7.2 45.0 8.2 45.0 10.4 L 45.0 27.5 C 45.0 29.8 44.5 30.7 42.1 30.7 L 37.5 30.7 C 35.1 30.7 34.5 29.9 34.5 27.6 L 34.5 10.4 C 34.5 8.2 35.3 7.2 37.6 7.2 Z M 46.9 38.0 L 32.6 38.0 M 44.8 15.3 L 34.6 15.3 M 44.8 23.0 L 34.6 23.0 M 38.5 30.9 C 39.1 33.2 39.8 35.6 40.1 38.1 M 29.4 23.0 L 19.1 23.0 M 30.1 32.1 L 18.5 32.1 M 24.2 23.4 L 24.2 39.7 M 30.8 -2.2 C 32.7 -0.9 34.9 1.0 36.3 2.9 M 46.7 -1.6 C 45.3 -0.4 43.8 1.5 42.8 3.0 M 15.6 5.5 C 15.2 7.8 14.4 10.6 13.8 12.2 M 2.9 2.6 C 3.8 5.0 4.6 8.8 4.8 11.9 " transform="scale(1, -1)" />
</g>
</svg>