<?xml version='1.0' encoding='utf8'?>
<svg viewBox="0.0 -44.0 50.0 50.0" version="1.1" xmlns="http://www.w3.org/2000/svg">
<rect x="-1000" y="-1000" width="2000" height="2000" stroke="white" fill="white"/>
<g style="fill:none; stroke:#000000;  stroke-width:1">
<path d="M 4.8 0.4 C 10.3 1.1 16.1 2.1 21.6 3.6 M 13.9 9.1 C 11.4 11.7 9.2 13.8 7.2 15.3 M 8.1 1.1 C 12.4 5.7 16.9 11.4 19.9 16.4 M 22.8 2.1 C 21.9 4.0 20.8 5.8 19.8 7.1 M 9.6 14.4 C 11.4 16.6 13.4 19.4 14.8 22.2 M 6.6 23.6 C 12.2 25.2 16.9 28.7 19.1 33.0 M 44.2 31.8 L 44.2 33.3 C 44.2 35.1 43.2 36.1 40.5 36.1 L 9.5 36.1 C 6.7 36.1 5.8 35.1 5.8 33.3 L 5.8 30.3 M 24.9 36.6 L 24.9 41.0 M 40.3 29.9 C 40.0 26.9 38.6 26.1 33.6 26.1 C 29.6 26.1 28.7 26.6 28.7 28.9 L 28.7 35.2 M 35.4 -0.9 C 36.5 -1.2 37.2 -1.3 38.2 -1.3 C 40.6 -1.3 42.2 -0.5 42.9 2.2 C 43.5 5.0 43.8 9.1 43.8 12.3 C 43.8 14.2 43.0 15.2 40.0 15.2 L 25.6 14.8 M 23.9 -1.9 C 31.1 2.4 34.1 9.5 34.2 21.7 " transform="scale(1, -1)" />
</g>
</svg>