<?xml version='1.0' encoding='utf8'?>
<svg viewBox="0.0 -44.0 50.0 50.0" version="1.1" xmlns="http://www.w3.org/2000/svg">
<rect x="-1000" y="-1000" width="2000" height="2000" stroke="white" fill="white"/>
<g style="fill:none; stroke:#000000;  stroke-width:1">
<path d="M 27.3 20.4 L 39.6 20.4 C 42.5 20.4 43.7 21.4 43.7 23.6 L 43.7 32.0 C 43.7 34.2 42.5 35.1 39.6 35.1 L 27.3 35.1 C 24.4 35.1 23.2 34.2 23.2 32.0 L 23.2 23.6 C 23.2 21.4 24.4 20.4 27.3 20.4 Z M 30.3 35.7 C 31.1 37.1 31.8 38.4 32.4 40.1 M 33.3 21.4 L 33.3 34.6 M 43.2 27.9 L 24.0 27.9 M 15.3 -2.4 L 15.3 12.2 C 15.3 14.3 14.5 15.4 11.9 15.4 L 6.5 15.4 M 3.0 -1.2 C 5.3 4.0 6.7 11.9 6.7 24.6 L 6.7 38.9 M 18.7 25.9 L 6.5 25.9 M 14.3 25.9 L 14.3 40.0 M 25.1 9.4 C 26.6 11.6 27.8 13.6 28.9 15.9 M 46.5 9.6 L 20.6 9.6 M 37.6 -2.3 L 37.6 16.2 " transform="scale(1, -1)" />
</g>
</svg>