<?xml version='1.0' encoding='utf8'?>
<svg viewBox="0.0 -44.0 50.0 50.0" version="1.1" xmlns="http://www.w3.org/2000/svg">
<rect x="-1000" y="-1000" width="2000" height="2000" stroke="white" fill="white"/>
<g style="fill:none; stroke:#000000;  stroke-width:1">
<path d="M 19.9 1.0 C 24.9 4.3 29.4 9.2 31.9 13.7 M 46.6 1.9 C 42.7 4.5 37.8 9.4 35.2 14.1 M 45.9 15.1 L 22.4 15.1 M 33.7 -2.8 L 33.7 38.8 M 39.5 38.8 L 28.4 38.8 C 25.4 38.8 24.3 37.9 24.3 35.5 L 24.3 26.2 C 24.3 23.9 25.4 22.9 28.4 22.9 L 39.5 22.9 C 42.4 22.9 43.5 23.9 43.5 26.2 L 43.5 35.5 C 43.5 37.9 42.4 38.8 39.5 38.8 Z M 42.6 31.0 L 24.9 31.0 M 3.0 1.4 C 8.1 2.4 14.4 4.3 17.9 6.0 M 5.8 1.2 L 5.8 19.2 M 11.7 3.4 L 11.7 26.2 M 17.2 16.8 L 12.1 16.8 M 17.2 30.1 L 17.2 35.4 C 17.2 37.8 16.4 38.6 13.8 38.6 L 9.1 38.6 C 6.5 38.6 5.6 37.8 5.6 35.4 L 5.6 30.1 C 5.6 27.6 6.5 26.8 9.1 26.8 L 13.8 26.8 C 16.4 26.8 17.2 27.6 17.2 30.1 Z " transform="scale(1, -1)" />
</g>
</svg>