<?xml version='1.0' encoding='utf8'?>
<svg viewBox="0.0 -44.0 50.0 50.0" version="1.1" xmlns="http://www.w3.org/2000/svg">
<rect x="-1000" y="-1000" width="2000" height="2000" stroke="white" fill="white"/>
<g style="fill:none; stroke:#000000;  stroke-width:1">
<path d="M 4.8 4.7 C 12.6 9.8 20.2 18.9 24.1 28.1 M 45.6 21.1 L 4.3 21.1 M 19.6 -1.2 L 35.3 -1.2 C 38.4 -1.2 39.4 -0.2 39.4 1.9 L 39.4 8.1 C 39.4 10.2 38.4 11.2 35.3 11.2 L 19.6 11.2 C 16.5 11.2 15.5 10.2 15.5 8.1 L 15.5 1.9 C 15.5 -0.2 16.5 -1.2 19.6 -1.2 Z M 17.1 29.2 L 17.1 40.0 M 45.0 34.4 L 5.0 34.4 M 32.4 29.4 L 32.4 40.0 " transform="scale(1, -1)" />
</g>
</svg>