<?xml version='1.0' encoding='utf8'?>
<svg viewBox="0.0 -44.0 50.0 50.0" version="1.1" xmlns="http://www.w3.org/2000/svg">
<rect x="-1000" y="-1000" width="2000" height="2000" stroke="white" fill="white"/>
<g style="fill:none; stroke:#000000;  stroke-width:1">
<path d="M 29.9 5.7 C 31.6 7.0 33.4 9.2 34.5 11.1 M 38.0 6.0 C 36.8 7.0 35.1 8.1 33.5 8.8 M 9.8 -1.3 L 14.2 -1.3 C 16.6 -1.3 17.4 -0.5 17.4 1.5 L 17.4 4.3 C 17.4 6.2 16.6 7.0 14.2 7.0 L 9.8 7.0 C 7.4 7.0 6.6 6.2 6.6 4.3 L 6.6 1.5 C 6.6 -0.5 7.4 -1.3 9.8 -1.3 Z M 36.5 -1.8 C 37.6 -2.0 38.5 -2.0 39.2 -2.0 C 41.6 -2.0 43.0 -1.1 43.6 2.1 C 44.2 5.0 44.5 7.8 44.6 11.2 C 44.6 13.1 43.8 14.0 41.1 14.0 L 26.9 14.0 M 38.5 2.1 L 28.1 2.1 C 25.6 2.1 25.0 2.9 25.0 4.7 L 25.0 8.8 M 21.2 9.8 C 25.1 12.2 28.6 15.4 31.0 19.2 M 28.6 19.4 L 38.7 19.4 C 41.1 19.4 41.8 20.3 41.8 21.9 L 41.8 27.1 C 41.8 28.8 41.1 29.6 38.7 29.6 L 28.6 29.6 C 26.2 29.6 25.5 28.8 25.5 27.1 L 25.5 21.9 C 25.5 20.3 26.2 19.4 28.6 19.4 Z M 41.9 24.5 L 25.9 24.5 M 17.9 33.5 L 17.9 40.6 M 45.9 36.9 L 4.0 36.9 M 31.7 33.6 L 31.7 40.6 M 19.4 24.1 L 4.0 24.1 M 17.0 29.7 L 6.7 29.7 M 17.0 18.4 L 6.7 18.4 M 17.0 12.7 L 6.7 12.7 " transform="scale(1, -1)" />
</g>
</svg>