<?xml version='1.0' encoding='utf8'?>
<svg viewBox="0.0 -44.0 50.0 50.0" version="1.1" xmlns="http://www.w3.org/2000/svg">
<rect x="-1000" y="-1000" width="2000" height="2000" stroke="white" fill="white"/>
<g style="fill:none; stroke:#000000;  stroke-width:1">
<path d="M 8.7 -1.2 L 12.6 -1.2 C 14.9 -1.2 15.7 -0.2 15.7 1.8 L 15.7 7.7 C 15.7 9.7 14.9 10.6 12.6 10.6 L 8.7 10.6 C 6.4 10.6 5.5 9.7 5.5 7.7 L 5.5 1.8 C 5.5 -0.2 6.4 -1.2 8.7 -1.2 Z M 19.5 -2.0 C 22.4 1.6 24.8 7.0 25.8 12.6 M 46.6 -0.5 C 44.4 -0.8 42.1 -0.8 39.5 -0.8 C 31.6 -0.8 27.3 1.8 24.9 7.5 M 33.5 0.1 L 33.5 18.4 M 43.1 9.8 L 34.4 9.8 M 45.9 18.4 L 21.3 18.4 M 29.0 24.7 L 38.4 24.7 C 40.9 24.7 42.0 25.7 42.0 27.8 L 42.0 35.5 C 42.0 37.5 40.9 38.5 38.4 38.5 L 29.0 38.5 C 26.5 38.5 25.4 37.5 25.4 35.5 L 25.4 27.8 C 25.4 25.7 26.5 24.7 29.0 24.7 Z M 42.5 31.8 L 25.9 31.8 M 17.9 31.3 L 2.9 31.3 M 15.4 38.1 L 5.6 38.1 M 15.4 24.2 L 5.6 24.2 M 15.4 17.5 L 5.6 17.5 " transform="scale(1, -1)" />
</g>
</svg>