<?xml version='1.0' encoding='utf8'?>
<svg viewBox="0.0 -44.0 50.0 50.0" version="1.1" xmlns="http://www.w3.org/2000/svg">
<rect x="-1000" y="-1000" width="2000" height="2000" stroke="white" fill="white"/>
<g style="fill:none; stroke:#000000;  stroke-width:1">
<path d="M 3.8 1.0 C 8.1 1.9 13.1 3.2 18.1 5.1 M 19.6 1.9 C 18.9 4.2 17.6 7.2 16.5 8.9 M 11.2 3.1 L 11.2 39.8 M 5.0 27.6 L 5.0 18.8 C 5.0 16.6 5.8 15.6 8.2 15.6 L 14.2 15.6 C 16.6 15.6 17.4 16.6 17.4 18.8 L 17.4 27.6 C 17.4 29.9 16.6 30.8 14.2 30.8 L 8.2 30.8 C 5.8 30.8 5.0 29.9 5.0 27.6 Z M 21.3 10.2 C 30.4 15.6 39.1 25.1 44.1 35.9 M 45.1 4.6 C 44.5 -0.1 42.8 -1.4 36.0 -1.4 C 30.6 -1.4 29.4 -0.8 29.4 2.0 L 29.4 17.6 M 29.8 8.1 C 34.6 9.5 39.3 11.7 42.8 14.2 M 46.6 23.6 L 22.2 23.6 M 37.1 32.9 L 24.0 32.9 M 31.0 24.0 L 31.0 40.2 " transform="scale(1, -1)" />
</g>
</svg>