<?xml version='1.0' encoding='utf8'?>
<svg viewBox="0.0 -44.0 50.0 50.0" version="1.1" xmlns="http://www.w3.org/2000/svg">
<rect x="-1000" y="-1000" width="2000" height="2000" stroke="white" fill="white"/>
<g style="fill:none; stroke:#000000;  stroke-width:1">
<path d="M 26.9 0.7 C 27.6 0.6 28.2 0.5 29.1 0.5 C 30.9 0.5 31.9 1.4 31.9 3.2 L 31.9 18.1 C 31.9 19.9 31.2 20.7 28.8 20.7 L 21.2 20.7 C 18.8 20.7 17.9 19.9 17.9 18.1 L 17.9 14.4 C 17.9 7.6 16.6 3.5 14.2 0.3 M 31.7 8.3 L 17.9 8.3 M 31.7 14.5 L 17.9 14.5 M 6.2 -2.3 L 6.2 35.4 C 6.2 37.5 7.0 38.5 9.9 38.5 L 16.9 38.5 C 19.5 38.5 20.4 37.5 20.4 35.5 L 20.4 29.4 C 20.4 27.3 19.5 26.3 16.9 26.3 L 6.7 26.3 M 20.0 32.5 L 7.0 32.5 M 37.2 -1.3 C 38.2 -1.6 39.1 -1.7 40.5 -1.7 C 43.0 -1.7 43.9 -0.3 43.9 2.2 L 43.9 35.4 C 43.9 37.5 43.0 38.5 40.1 38.5 L 32.5 38.5 C 29.8 38.5 28.9 37.5 28.9 35.5 L 28.9 29.4 C 29.0 27.4 29.9 26.3 32.5 26.3 L 43.2 26.3 M 43.0 32.5 L 29.4 32.5 " transform="scale(1, -1)" />
</g>
</svg>