<?xml version='1.0' encoding='utf8'?>
<svg viewBox="0.0 -44.0 50.0 50.0" version="1.1" xmlns="http://www.w3.org/2000/svg">
<rect x="-1000" y="-1000" width="2000" height="2000" stroke="white" fill="white"/>
<g style="fill:none; stroke:#000000;  stroke-width:1">
<path d="M 29.6 12.4 L 38.4 12.4 C 41.1 12.4 42.2 13.2 42.2 15.4 L 42.2 26.4 C 42.2 28.6 41.2 29.4 38.6 29.4 L 29.3 29.4 C 26.6 29.4 25.6 28.6 25.6 26.4 L 25.6 15.4 C 25.6 13.2 26.7 12.4 29.6 12.4 Z M 32.8 29.6 C 33.5 32.5 34.2 36.5 34.8 40.1 M 45.8 35.4 L 23.6 35.4 M 41.8 18.1 L 26.4 18.1 M 41.8 23.8 L 26.4 23.8 M 17.2 26.1 L 6.8 26.1 M 3.0 28.6 C 6.5 31.4 9.9 35.4 12.4 39.5 M 18.8 31.8 C 17.1 33.7 14.8 35.9 12.6 37.5 M 3.5 0.7 C 8.6 1.4 14.3 2.6 18.8 4.3 M 11.8 2.8 L 11.8 26.1 M 19.2 18.6 L 3.4 18.6 M 20.0 -2.3 C 22.9 -1.2 26.2 0.5 28.4 2.1 M 46.2 7.1 L 21.9 7.1 M 45.5 -1.9 C 42.8 -0.8 39.8 0.9 37.9 2.3 M 7.0 7.0 C 6.6 8.8 5.5 11.3 4.8 12.4 M 16.4 8.5 C 17.1 9.8 17.9 11.6 18.4 13.4 " transform="scale(1, -1)" />
</g>
</svg>