<?xml version='1.0' encoding='utf8'?>
<svg viewBox="0.0 -44.0 50.0 50.0" version="1.1" xmlns="http://www.w3.org/2000/svg">
<rect x="-1000" y="-1000" width="2000" height="2000" stroke="white" fill="white"/>
<g style="fill:none; stroke:#000000;  stroke-width:1">
<path d="M 17.4 26.1 L 7.2 26.1 M 3.1 28.4 C 6.7 31.3 10.2 35.4 12.7 39.5 M 19.1 31.6 C 17.5 33.6 15.1 35.8 12.8 37.4 M 4.2 0.3 C 9.0 1.1 14.8 2.4 18.9 3.8 M 12.1 2.5 L 12.1 26.1 M 19.2 18.6 L 3.9 18.6 M 28.4 -1.1 C 29.4 -1.4 30.3 -1.4 31.4 -1.4 C 33.6 -1.4 34.9 -0.3 34.9 2.0 L 34.9 39.5 M 46.7 11.9 C 44.6 16.4 43.0 21.4 42.0 26.3 M 7.2 7.1 C 6.8 8.8 6.0 10.7 5.2 12.0 M 16.9 8.2 C 17.5 9.5 18.1 11.2 18.6 12.8 M 23.1 10.8 C 25.2 15.2 26.8 20.8 27.6 26.1 " transform="scale(1, -1)" />
</g>
</svg>