<?xml version='1.0' encoding='utf8'?>
<svg viewBox="0.0 -44.0 50.0 50.0" version="1.1" xmlns="http://www.w3.org/2000/svg">
<rect x="-1000" y="-1000" width="2000" height="2000" stroke="white" fill="white"/>
<g style="fill:none; stroke:#000000;  stroke-width:1">
<path d="M 46.8 4.0 C 46.3 -0.0 45.2 -1.4 43.5 -1.4 C 41.2 -1.4 37.7 2.9 35.5 11.9 C 33.8 18.2 32.8 26.8 32.8 40.6 M 18.2 -1.7 C 20.9 2.0 22.4 6.6 22.4 12.1 L 22.4 13.2 C 22.4 15.1 23.2 16.1 25.7 16.1 L 46.1 16.1 M 28.4 -2.0 C 34.1 0.3 39.7 5.0 42.8 11.1 M 19.9 21.7 C 23.2 21.9 26.4 22.4 29.4 22.9 M 30.1 21.5 C 29.6 23.0 28.9 24.5 28.1 25.8 M 24.9 28.6 C 23.2 30.6 21.6 32.2 20.1 33.5 M 21.2 22.7 C 23.6 25.9 25.8 29.4 27.6 33.1 M 21.9 32.9 C 22.9 34.8 24.1 37.0 24.9 39.3 M 42.2 18.9 C 41.6 19.6 40.9 20.4 40.1 20.9 M 37.2 23.5 C 40.0 23.7 43.2 24.1 46.1 24.9 M 47.0 23.0 C 46.5 24.4 45.6 26.0 44.8 27.2 M 41.1 29.6 C 39.5 31.6 38.1 33.3 36.8 34.5 M 38.1 24.2 C 40.4 27.3 42.7 31.1 44.5 34.5 M 37.8 33.0 C 39.0 34.9 40.2 37.2 41.1 39.2 M 15.2 2.4 L 6.8 2.4 M 16.2 8.0 L 6.8 8.0 M 6.0 -2.5 L 6.0 22.1 C 6.0 23.9 6.8 24.8 9.2 24.8 L 12.7 24.8 C 15.1 24.8 15.8 23.9 15.8 22.1 L 15.8 16.2 C 15.8 14.4 15.1 13.7 12.6 13.7 L 6.5 13.7 M 14.8 19.2 L 6.8 19.2 M 3.0 29.9 C 5.8 32.2 8.6 35.8 10.7 39.8 M 15.9 33.9 C 14.4 35.3 12.2 37.0 10.1 38.4 M 13.9 29.9 L 8.2 29.9 M 30.6 6.0 C 29.6 7.3 28.3 8.5 27.3 9.3 " transform="scale(1, -1)" />
</g>
</svg>