<?xml version='1.0' encoding='utf8'?>
<svg viewBox="0.0 -44.0 50.0 50.0" version="1.1" xmlns="http://www.w3.org/2000/svg">
<rect x="-1000" y="-1000" width="2000" height="2000" stroke="white" fill="white"/>
<g style="fill:none; stroke:#000000;  stroke-width:1">
<path d="M 32.0 7.2 L 39.7 7.2 C 42.2 7.2 43.2 8.2 43.2 10.4 L 43.2 27.4 C 43.2 29.7 42.3 30.6 39.8 30.6 L 31.9 30.6 C 29.4 30.6 28.4 29.8 28.4 27.5 L 28.4 10.4 C 28.4 8.2 29.5 7.2 32.0 7.2 Z M 46.5 37.8 L 25.4 37.8 M 43.4 15.3 L 28.3 15.3 M 43.4 23.1 L 28.3 23.1 M 34.0 31.0 C 34.9 33.1 35.6 35.5 36.1 38.0 M 4.0 -0.6 C 8.1 4.2 10.5 10.9 10.9 19.1 M 12.2 0.1 C 13.1 -0.1 14.2 -0.1 15.1 -0.1 C 16.9 -0.1 18.2 0.7 18.8 3.6 C 19.4 6.7 19.9 12.4 19.9 16.8 C 19.9 18.7 19.2 19.6 16.9 19.6 L 5.9 19.6 M 22.9 24.0 C 20.2 28.1 17.8 33.7 16.7 38.2 M 24.4 -2.1 C 26.8 -0.9 29.4 1.0 31.3 2.8 M 45.5 -1.8 C 43.5 -0.6 41.2 1.4 39.7 3.0 M 3.1 22.8 C 5.8 27.0 7.8 32.2 9.0 38.0 " transform="scale(1, -1)" />
</g>
</svg>