<?xml version='1.0' encoding='utf8'?>
<svg viewBox="0.0 -44.0 50.0 50.0" version="1.1" xmlns="http://www.w3.org/2000/svg">
<rect x="-1000" y="-1000" width="2000" height="2000" stroke="white" fill="white"/>
<g style="fill:none; stroke:#000000;  stroke-width:1">
<path d="M 7.7 -0.8 L 17.0 -0.8 C 19.1 -0.8 20.1 0.2 20.1 2.7 L 20.1 26.0 C 20.1 28.7 19.2 29.4 17.2 29.4 L 7.5 29.4 C 5.5 29.4 4.5 28.7 4.5 26.0 L 4.5 2.7 C 4.5 0.2 5.5 -0.8 7.7 -0.8 Z M 21.6 37.8 L 2.8 37.8 M 19.7 17.9 C 18.8 17.8 17.9 17.6 17.0 17.6 C 15.4 17.6 14.8 18.2 14.8 19.8 L 14.8 37.8 M 7.9 15.6 C 9.2 18.2 9.9 22.2 9.9 29.4 L 9.9 37.8 M 20.1 8.1 L 5.2 8.1 M 30.3 19.1 L 41.1 19.1 C 43.6 19.1 44.7 20.0 44.7 22.3 L 44.7 31.6 C 44.7 33.9 43.6 34.8 41.1 34.8 L 30.3 34.8 C 27.8 34.8 26.7 33.9 26.7 31.6 L 26.7 22.3 C 26.7 20.0 27.8 19.1 30.3 19.1 Z M 33.0 35.4 C 33.8 36.8 34.4 38.0 35.0 39.8 M 44.3 27.1 L 27.5 27.1 M 35.5 20.1 L 35.5 34.2 M 39.0 5.4 C 40.9 5.6 43.0 6.0 45.0 6.5 M 39.9 5.6 C 40.6 8.2 41.4 11.2 41.8 13.8 M 46.3 5.9 C 45.9 7.2 45.4 8.4 44.9 9.4 M 22.6 -2.4 C 27.4 1.2 29.8 6.8 30.1 14.6 M 47.2 2.4 C 46.9 -0.4 45.6 -1.4 40.8 -1.4 C 36.5 -1.4 35.7 -0.7 35.7 1.4 L 35.7 14.8 " transform="scale(1, -1)" />
</g>
</svg>