<?xml version='1.0' encoding='utf8'?>
<svg viewBox="0.0 -44.0 50.0 50.0" version="1.1" xmlns="http://www.w3.org/2000/svg">
<rect x="-1000" y="-1000" width="2000" height="2000" stroke="white" fill="white"/>
<g style="fill:none; stroke:#000000;  stroke-width:1">
<path d="M 34.1 13.2 L 34.1 35.8 M 46.4 24.1 L 23.1 24.1 M 24.9 35.0 C 30.6 35.5 38.0 37.0 42.7 38.5 M 29.8 -0.7 L 39.2 -0.7 C 42.0 -0.7 43.0 0.3 43.0 2.6 L 43.0 9.5 C 43.0 11.8 42.0 12.7 39.2 12.7 L 29.8 12.7 C 27.1 12.7 26.1 11.8 26.1 9.5 L 26.1 2.6 C 26.1 0.3 27.1 -0.7 29.8 -0.7 Z M 17.6 25.9 L 7.5 25.9 M 3.2 28.2 C 6.8 31.1 10.5 35.2 13.2 39.5 M 19.8 31.4 C 18.1 33.5 15.7 35.7 13.3 37.4 M 4.3 0.7 C 9.2 1.2 15.8 2.6 19.9 4.0 M 12.4 2.5 L 12.4 26.0 M 19.6 18.4 L 4.0 18.4 M 7.5 7.2 C 7.0 8.9 6.2 10.8 5.4 12.2 M 17.2 8.4 C 17.9 9.7 18.4 11.3 19.0 12.9 " transform="scale(1, -1)" />
</g>
</svg>