<?xml version='1.0' encoding='utf8'?>
<svg viewBox="0.0 -44.0 50.0 50.0" version="1.1" xmlns="http://www.w3.org/2000/svg">
<rect x="-1000" y="-1000" width="2000" height="2000" stroke="white" fill="white"/>
<g style="fill:none; stroke:#000000;  stroke-width:1">
<path d="M 8.2 -0.8 L 18.1 -0.8 C 20.4 -0.8 21.4 0.2 21.4 2.8 L 21.4 25.8 C 21.4 28.4 20.6 29.3 18.4 29.3 L 8.0 29.3 C 5.8 29.3 4.8 28.4 4.8 25.8 L 4.8 2.8 C 4.8 0.2 5.8 -0.8 8.2 -0.8 Z M 22.9 37.6 L 3.0 37.6 M 20.9 17.9 C 19.9 17.7 18.9 17.6 18.0 17.6 C 16.3 17.6 15.7 18.2 15.7 19.8 L 15.7 37.6 M 8.3 15.5 C 9.8 18.1 10.6 22.1 10.6 29.4 L 10.6 37.6 M 21.4 8.1 L 5.5 8.1 M 32.1 24.6 L 40.8 24.6 C 43.2 24.6 44.3 25.7 44.3 27.7 L 44.3 35.1 C 44.3 37.1 43.2 38.1 40.8 38.1 L 32.1 38.1 C 29.6 38.1 28.6 37.1 28.6 35.1 L 28.6 27.7 C 28.6 25.7 29.6 24.6 32.1 24.6 Z M 43.9 31.6 L 29.1 31.6 M 46.5 -0.5 L 25.9 -0.5 M 26.2 11.1 C 27.7 13.3 29.1 16.6 30.1 19.5 M 43.6 7.5 L 29.5 7.5 M 36.8 0.1 L 36.8 20.4 M 45.4 15.2 L 28.2 15.2 " transform="scale(1, -1)" />
</g>
</svg>