<?xml version='1.0' encoding='utf-8'?>
<svg viewBox="0.0 -6.0 50.0 50.0" version="1.1" xmlns="http://www.w3.org/2000/svg"><rect x="-1000" y="-1000" width="2000" height="2000" stroke="white" fill="white" /><g style="fill:none;stroke:#000000;stroke-width:1"><path d="M 8.9 -42.0 C 4.5 -34.4 2.8 -27.6 2.8 -19.0 C 2.8 -10.4 4.6 -3.6 9.1 4.0 " transform="translate(0.0 38.0)" stroke-dasharray="48.27466542197335" stroke-dashoffset="48.27466542197335"><animate attributeName="stroke-dashoffset" from="48.27466542197335" to="0" dur="1.4482399626592006s" begin="0s" fill="freeze" /></path><path d="M 41.0 -42.0 C 45.4 -34.5 47.2 -27.6 47.2 -19.0 C 47.2 -10.4 45.4 -3.6 40.9 4.0 " transform="translate(0.0 38.0)" stroke-dasharray="48.30439953283786" stroke-dashoffset="48.30439953283786"><animate attributeName="stroke-dashoffset" from="48.30439953283786" to="0" dur="1.449131985985136s" begin="1.4482399626592006s" fill="freeze" /></path><path d="M 37.0 -34.9 L 29.1 -34.9 C 27.6 -34.9 26.6 -34.0 26.4 -32.4 L 25.9 -21.0 C 25.8 -20.2 25.9 -19.7 26.4 -19.6 C 26.7 -19.6 27.1 -19.9 27.6 -20.4 C 28.9 -21.4 29.8 -21.8 30.9 -21.8 C 35.1 -21.8 37.5 -18.0 37.5 -12.3 C 37.5 -5.4 35.1 -2.3 30.8 -2.3 C 28.4 -2.3 26.8 -2.7 25.2 -4.9 " transform="translate(0.0 38.0)" stroke-dasharray="63.28551324125284" stroke-dashoffset="63.28551324125284"><animate attributeName="stroke-dashoffset" from="63.28551324125284" to="0" dur="1.8985653972375853s" begin="2.8973719486443366s" fill="freeze" /></path><path d="M 10.0 -28.7 L 14.0 -34.5 C 14.8 -35.6 16.1 -35.5 16.1 -34.0 L 16.1 -3.4" transform="translate(0.0 38.0)" stroke-dasharray="40.82365467939648" stroke-dashoffset="40.82365467939648"><animate attributeName="stroke-dashoffset" from="40.82365467939648" to="0" dur="1.2247096403818944s" begin="4.795937345881922s" fill="freeze" /></path></g></svg>