<?xml version='1.0' encoding='utf-8'?>
<svg viewBox="0.0 -6.0 50.0 50.0" version="1.1" xmlns="http://www.w3.org/2000/svg"><rect x="-1000" y="-1000" width="2000" height="2000" stroke="white" fill="white" /><g style="fill:none;stroke:#000000;stroke-width:1"><path d="M 10.2 -25.6 L 14.6 -30.1 C 15.4 -31.1 16.6 -31.0 16.6 -29.8 L 16.6 -7.2 " transform="translate(0.0 38.0)" stroke-dasharray="31.74479414114858" stroke-dashoffset="31.74479414114858"><animate attributeName="stroke-dashoffset" from="31.74479414114858" to="0" dur="0.9523438242344574s" begin="0s; 15s; 30s; 45s" fill="freeze" id="anim0" /></path><path d="M 31.6 -19.6 C 35.1 -21.1 37.1 -23.2 37.1 -26.2 C 37.1 -29.4 34.5 -31.6 31.4 -31.6 C 28.1 -31.6 25.8 -29.4 25.8 -26.1 C 25.8 -23.1 27.2 -21.5 31.6 -19.6 Z " transform="translate(0.0 38.0)" stroke-dasharray="36.10656104050813" stroke-dashoffset="36.10656104050813"><animate attributeName="stroke-dashoffset" from="36.10656104050813" to="0" dur="1.083196831215244s" begin="anim0.end" fill="freeze" id="anim1" /></path><path d="M 25.0 -42.0 C 12.3 -42.0 1.9 -31.8 1.9 -19.0 C 1.9 -6.3 12.3 4.0 25.0 4.0 C 37.8 4.0 48.0 -6.3 48.0 -19.0 C 48.0 -31.8 37.8 -42.0 25.0 -42.0 Z " transform="translate(0.0 38.0)" stroke-dasharray="144.74944890517503" stroke-dashoffset="144.74944890517503"><animate attributeName="stroke-dashoffset" from="144.74944890517503" to="0" dur="4.342483467155251s" begin="anim1.end" fill="freeze" id="anim2" /></path><path d="M 31.6 -19.6 C 36.8 -17.4 38.2 -15.9 38.2 -12.7 C 38.2 -8.8 35.6 -6.3 31.6 -6.3 C 27.6 -6.3 25.0 -8.6 25.0 -12.4 C 25.0 -15.7 27.1 -17.9 31.6 -19.6 Z" transform="translate(0.0 38.0)" stroke-dasharray="41.304616149594494" stroke-dashoffset="41.304616149594494"><animate attributeName="stroke-dashoffset" from="41.304616149594494" to="0" dur="1.2391384844878348s" begin="anim2.end" fill="freeze" id="anim_end" /></path></g></svg>