<?xml version='1.0' encoding='utf-8'?>
<svg viewBox="0.0 -6.0 50.0 50.0" version="1.1" xmlns="http://www.w3.org/2000/svg"><rect x="-1000" y="-1000" width="2000" height="2000" stroke="white" fill="white" /><g style="fill:none;stroke:#000000;stroke-width:1"><path d="M 28.9 -32.8 C 25.6 -30.0 17.2 -22.8 17.2 -13.6 C 17.2 -8.6 20.4 -5.5 24.9 -5.5 C 29.4 -5.5 32.6 -8.8 32.7 -13.6 C 32.8 -18.3 29.4 -21.4 25.3 -21.4 C 21.1 -21.4 18.2 -18.4 17.4 -15.5 " transform="translate(0.0 38.0)" stroke-dasharray="71.00861938146517" stroke-dashoffset="71.00861938146517"><animate attributeName="stroke-dashoffset" from="71.00861938146517" to="0" dur="2.1302585814439547s" begin="0s; 15s; 30s; 45s" fill="freeze" id="anim0" /></path><path d="M 25.0 -42.0 C 12.3 -42.0 1.9 -31.8 1.9 -19.0 C 1.9 -6.3 12.3 4.0 25.0 4.0 C 37.8 4.0 48.0 -6.3 48.0 -19.0 C 48.0 -31.8 37.8 -42.0 25.0 -42.0 Z" transform="translate(0.0 38.0)" stroke-dasharray="144.74944890517503" stroke-dashoffset="144.74944890517503"><animate attributeName="stroke-dashoffset" from="144.74944890517503" to="0" dur="4.342483467155251s" begin="anim0.end" fill="freeze" id="anim_end" /></path></g></svg>