<?xml version='1.0' encoding='utf-8'?>
<svg viewBox="0.0 -6.0 50.0 50.0" version="1.1" xmlns="http://www.w3.org/2000/svg"><rect x="-1000" y="-1000" width="2000" height="2000" stroke="white" fill="white" /><g style="fill:none;stroke:#000000;stroke-width:1"><path d="M 25.0 -40.3 C 36.8 -40.3 46.3 -30.8 46.3 -19.0 C 46.3 -7.2 36.8 2.3 25.0 2.3 C 13.2 2.3 3.7 -7.2 3.7 -19.0 C 3.7 -30.8 13.2 -40.3 25.0 -40.3 Z " transform="translate(0.0 38.0)" stroke-dasharray="133.9137827716732" stroke-dashoffset="133.9137827716732"><animate attributeName="stroke-dashoffset" from="133.9137827716732" to="0" dur="4.017413483150196s" begin="0s; anim_end.end" fill="freeze" id="anim0" /></path><path d="M 25.0 -38.5 C 14.2 -38.5 5.5 -29.9 5.5 -19.0 C 5.5 -8.1 14.2 0.6 25.0 0.6 C 35.9 0.6 44.5 -8.1 44.5 -19.0 C 44.5 -29.9 35.9 -38.5 25.0 -38.5 Z" transform="translate(0.0 38.0)" stroke-dasharray="122.85608992664194" stroke-dashoffset="122.85608992664194"><animate attributeName="stroke-dashoffset" from="122.85608992664194" to="0" dur="3.6856826977992583s" begin="anim0.end" fill="freeze" id="anim_end" /></path></g></svg>