<?xml version='1.0' encoding='utf-8'?>
<svg viewBox="0.0 -6.0 50.0 50.0" version="1.1" xmlns="http://www.w3.org/2000/svg"><rect x="-1000" y="-1000" width="2000" height="2000" stroke="white" fill="white" /><g style="fill:none;stroke:#000000;stroke-width:1"><path d="M 28.8 -23.1 C 35.4 -25.5 40.4 -29.2 43.9 -35.8 " transform="translate(0.0 38.0)" stroke-dasharray="20.230925149691274" stroke-dashoffset="20.230925149691274"><animate attributeName="stroke-dashoffset" from="20.230925149691274" to="0" dur="0.6069277544907382s" begin="0s" fill="freeze" /></path><path d="M 31.7 -35.1 C 30.4 -36.4 29.1 -37.6 27.9 -38.4 " transform="translate(0.0 38.0)" stroke-dasharray="5.040533791482426" stroke-dashoffset="5.040533791482426"><animate attributeName="stroke-dashoffset" from="5.040533791482426" to="0" dur="0.15121601374447277s" begin="0.6069277544907382s" fill="freeze" /></path><path d="M 21.8 -16.7 C 17.9 -15.2 13.8 -14.5 8.8 -14.3 " transform="translate(0.0 38.0)" stroke-dasharray="13.281268114112045" stroke-dashoffset="13.281268114112045"><animate attributeName="stroke-dashoffset" from="13.281268114112045" to="0" dur="0.3984380434233613s" begin="0.758143768235211s" fill="freeze" /></path><path d="M 6.2 -8.4 L 24.6 -8.4 " transform="translate(0.0 38.0)" stroke-dasharray="18.400000000000002" stroke-dashoffset="18.400000000000002"><animate attributeName="stroke-dashoffset" from="18.400000000000002" to="0" dur="0.552s" begin="1.1565818116585724s" fill="freeze" /></path><path d="M 15.8 -15.1 C 15.8 -13.7 15.8 -13.2 15.8 -10.5 C 15.8 -9.5 15.8 -8.5 15.7 -7.6 C 15.3 -2.6 13.8 -0.3 9.9 1.8 " transform="translate(0.0 38.0)" stroke-dasharray="19.17775658581769" stroke-dashoffset="19.17775658581769"><animate attributeName="stroke-dashoffset" from="19.17775658581769" to="0" dur="0.5753326975745306s" begin="1.7085818116585725s" fill="freeze" /></path><path d="M 19.9 -40.1 C 17.2 -35.8 11.2 -31.1 6.5 -28.9 " transform="translate(0.0 38.0)" stroke-dasharray="17.65552666915819" stroke-dashoffset="17.65552666915819"><animate attributeName="stroke-dashoffset" from="17.65552666915819" to="0" dur="0.5296658000747456s" begin="2.283914509233103s" fill="freeze" /></path><path d="M 15.9 -32.4 C 15.9 -30.0 15.9 -24.0 15.9 -21.7" transform="translate(0.0 38.0)" stroke-dasharray="10.7" stroke-dashoffset="10.7"><animate attributeName="stroke-dashoffset" from="10.7" to="0" dur="0.32099999999999995s" begin="2.8135803093078486s" fill="freeze" /></path></g></svg>