<?xml version='1.0' encoding='utf-8'?>
<svg viewBox="0.0 -6.0 50.0 50.0" version="1.1" xmlns="http://www.w3.org/2000/svg"><rect x="-1000" y="-1000" width="2000" height="2000" stroke="white" fill="white" /><g style="fill:none;stroke:#000000;stroke-width:1"><path d="M 4.5 -28.9 C 6.8 -31.1 8.2 -32.6 9.4 -34.0 C 10.4 -35.1 11.4 -35.0 12.3 -34.1 L 22.8 -25.3 " transform="translate(0.0 38.0)" stroke-dasharray="24.133532884061044" stroke-dashoffset="24.133532884061044"><animate attributeName="stroke-dashoffset" from="24.133532884061044" to="0" dur="0.7240059865218312s" begin="0s; 15s; 30s; 45s" fill="freeze" id="anim0" /></path><path d="M 6.8 0.8 C 13.1 -1.1 18.5 -5.0 22.1 -11.2 " transform="translate(0.0 38.0)" stroke-dasharray="19.928569457670402" stroke-dashoffset="19.928569457670402"><animate attributeName="stroke-dashoffset" from="19.928569457670402" to="0" dur="0.597857083730112s" begin="anim0.end" fill="freeze" id="anim1" /></path><path d="M 9.3 -8.4 C 8.1 -9.5 6.6 -10.3 5.4 -10.9 " transform="translate(0.0 38.0)" stroke-dasharray="4.6477128741519" stroke-dashoffset="4.6477128741519"><animate attributeName="stroke-dashoffset" from="4.6477128741519" to="0" dur="0.13943138622455697s" begin="anim1.end" fill="freeze" id="anim2" /></path><path d="M 12.3 -14.2 C 11.0 -15.1 9.7 -16.0 8.6 -16.6 " transform="translate(0.0 38.0)" stroke-dasharray="4.412164255454471" stroke-dashoffset="4.412164255454471"><animate attributeName="stroke-dashoffset" from="4.412164255454471" to="0" dur="0.1323649276636341s" begin="anim2.end" fill="freeze" id="anim3" /></path><path d="M 21.1 -14.6 C 20.4 -15.8 19.4 -17.0 18.9 -17.6 " transform="translate(0.0 38.0)" stroke-dasharray="3.7245148983908187" stroke-dashoffset="3.7245148983908187"><animate attributeName="stroke-dashoffset" from="3.7245148983908187" to="0" dur="0.11173544695172456s" begin="anim3.end" fill="freeze" id="anim4" /></path><path d="M 23.9 -16.5 C 23.0 -17.6 22.4 -18.6 21.6 -19.5 " transform="translate(0.0 38.0)" stroke-dasharray="3.7814571617875856" stroke-dashoffset="3.7814571617875856"><animate attributeName="stroke-dashoffset" from="3.7814571617875856" to="0" dur="0.11344371485362756s" begin="anim4.end" fill="freeze" id="anim5" /></path><path d="M 19.9 -39.6 C 18.6 -39.6 17.5 -38.7 17.5 -37.2 C 17.5 -35.8 18.6 -34.7 19.9 -34.7 C 21.4 -34.7 22.4 -35.8 22.4 -37.2 C 22.4 -38.7 21.4 -39.6 19.9 -39.6 Z " transform="translate(0.0 38.0)" stroke-dasharray="15.525206221419001" stroke-dashoffset="15.525206221419001"><animate attributeName="stroke-dashoffset" from="15.525206221419001" to="0" dur="0.46575618664257s" begin="anim5.end" fill="freeze" id="anim6" /></path><path d="M 27.8 -30.3 L 45.4 -30.3" transform="translate(0.0 38.0)" stroke-dasharray="17.599999999999998" stroke-dashoffset="17.599999999999998"><animate attributeName="stroke-dashoffset" from="17.599999999999998" to="0" dur="0.5279999999999999s" begin="anim6.end" fill="freeze" id="anim_end" /></path></g></svg>