<?xml version='1.0' encoding='utf-8'?>
<svg viewBox="0.0 -6.0 50.0 50.0" version="1.1" xmlns="http://www.w3.org/2000/svg"><rect x="-1000" y="-1000" width="2000" height="2000" stroke="white" fill="white" /><g style="fill:none;stroke:#000000;stroke-width:1"><path d="M 7.1 -31.9 C 10.8 -32.4 15.2 -33.1 19.9 -34.0 " transform="translate(0.0 38.0)" stroke-dasharray="12.972706352047496" stroke-dashoffset="12.972706352047496"><animate attributeName="stroke-dashoffset" from="12.972706352047496" to="0" dur="0.38918119056142486s" begin="0s" fill="freeze" /></path><path d="M 44.2 -31.4 C 46.7 -31.4 48.5 -33.3 48.5 -35.8 C 48.5 -38.3 46.7 -40.1 44.2 -40.1 C 41.7 -40.1 39.9 -38.3 39.9 -35.8 C 39.9 -33.3 41.7 -31.4 44.2 -31.4 Z " transform="translate(0.0 38.0)" stroke-dasharray="27.375162390585892" stroke-dashoffset="27.375162390585892"><animate attributeName="stroke-dashoffset" from="27.375162390585892" to="0" dur="0.8212548717175767s" begin="0.38918119056142486s" fill="freeze" /></path><path d="M 20.1 -33.5 C 12.1 -25.7 9.4 -18.6 9.4 -13.2 C 9.4 -4.7 14.3 -0.8 20.2 -0.8 C 27.9 -0.8 34.3 -6.2 34.3 -18.6 C 34.3 -22.9 33.9 -27.3 32.9 -34.2 " transform="translate(0.0 38.0)" stroke-dasharray="83.43859815540782" stroke-dashoffset="83.43859815540782"><animate attributeName="stroke-dashoffset" from="83.43859815540782" to="0" dur="2.5031579446622345s" begin="1.2104360622790016s" fill="freeze" /></path><path d="M 33.2 -34.4 C 36.8 -27.6 40.4 -22.6 43.7 -19.0" transform="translate(0.0 38.0)" stroke-dasharray="18.688287415600545" stroke-dashoffset="18.688287415600545"><animate attributeName="stroke-dashoffset" from="18.688287415600545" to="0" dur="0.5606486224680163s" begin="3.713594006941236s" fill="freeze" /></path></g></svg>