<?xml version='1.0' encoding='utf-8'?>
<svg viewBox="0.0 -6.0 50.0 50.0" version="1.1" xmlns="http://www.w3.org/2000/svg"><rect x="-1000" y="-1000" width="2000" height="2000" stroke="white" fill="white" /><g style="fill:none;stroke:#000000;stroke-width:1"><path d="M 27.1 0.2 C 28.1 0.6 29.1 0.7 30.3 0.7 C 32.5 0.7 33.5 -0.5 34.1 -3.5 C 34.8 -6.5 35.1 -11.3 35.1 -15.3 C 35.1 -17.5 34.5 -18.2 31.9 -18.1 L 14.1 -17.9 " transform="translate(0.0 38.0)" stroke-dasharray="44.32054531472494" stroke-dashoffset="44.32054531472494"><animate attributeName="stroke-dashoffset" from="44.32054531472494" to="0" dur="1.329616359441748s" begin="0s" fill="freeze" /></path><path d="M 9.1 4.0 C 4.6 -3.6 2.8 -10.4 2.8 -19.0 C 2.8 -27.6 4.5 -34.4 8.9 -42.0 " transform="translate(0.0 38.0)" stroke-dasharray="48.27466542197335" stroke-dashoffset="48.27466542197335"><animate attributeName="stroke-dashoffset" from="48.27466542197335" to="0" dur="1.4482399626592006s" begin="1.329616359441748s" fill="freeze" /></path><path d="M 13.2 0.8 C 20.3 -3.6 23.6 -10.8 23.9 -24.2 " transform="translate(0.0 38.0)" stroke-dasharray="28.487022339600276" stroke-dashoffset="28.487022339600276"><animate attributeName="stroke-dashoffset" from="28.487022339600276" to="0" dur="0.8546106701880083s" begin="2.7778563221009485s" fill="freeze" /></path><path d="M 38.9 -22.3 L 38.9 -26.2 C 38.9 -28.2 38.1 -29.0 36.0 -29.0 L 13.7 -29.0 C 11.6 -29.0 10.9 -28.2 10.9 -26.1 L 10.9 -21.9 " transform="translate(0.0 38.0)" stroke-dasharray="39.82448816474474" stroke-dashoffset="39.82448816474474"><animate attributeName="stroke-dashoffset" from="39.82448816474474" to="0" dur="1.1947346449423422s" begin="3.6324669922889568s" fill="freeze" /></path><path d="M 17.2 -33.0 C 16.7 -34.6 15.9 -36.5 15.2 -37.9 " transform="translate(0.0 38.0)" stroke-dasharray="5.297447894995118" stroke-dashoffset="5.297447894995118"><animate attributeName="stroke-dashoffset" from="5.297447894995118" to="0" dur="0.15892343684985352s" begin="4.827201637231299s" fill="freeze" /></path><path d="M 25.2 -34.1 C 24.8 -35.8 24.2 -37.5 23.6 -39.0 " transform="translate(0.0 38.0)" stroke-dasharray="5.1593388718126985" stroke-dashoffset="5.1593388718126985"><animate attributeName="stroke-dashoffset" from="5.1593388718126985" to="0" dur="0.15478016615438095s" begin="4.986125074081153s" fill="freeze" /></path><path d="M 40.9 4.0 C 45.4 -3.6 47.2 -10.4 47.2 -19.0 C 47.2 -27.6 45.4 -34.5 41.0 -42.0 " transform="translate(0.0 38.0)" stroke-dasharray="48.30439953283786" stroke-dashoffset="48.30439953283786"><animate attributeName="stroke-dashoffset" from="48.30439953283786" to="0" dur="1.449131985985136s" begin="5.140905240235534s" fill="freeze" /></path><path d="M 30.6 -29.1 C 32.1 -32.0 33.4 -35.1 34.4 -38.2" transform="translate(0.0 38.0)" stroke-dasharray="9.872606390582494" stroke-dashoffset="9.872606390582494"><animate attributeName="stroke-dashoffset" from="9.872606390582494" to="0" dur="0.2961781917174748s" begin="6.5900372262206695s" fill="freeze" /></path></g></svg>