<?xml version='1.0' encoding='utf-8'?>
<svg viewBox="0.0 -6.0 50.0 50.0" version="1.1" xmlns="http://www.w3.org/2000/svg"><rect x="-1000" y="-1000" width="2000" height="2000" stroke="white" fill="white" /><g style="fill:none;stroke:#000000;stroke-width:1"><path d="M 8.1 -12.1 L 10.7 -12.1 C 12.8 -12.1 13.7 -12.9 13.7 -15.2 L 13.7 -33.0 C 13.7 -35.2 12.8 -36.1 10.7 -36.1 L 8.1 -36.1 C 5.8 -36.1 5.0 -35.2 5.0 -33.0 L 5.0 -15.2 C 5.0 -12.9 5.8 -12.1 8.1 -12.1 Z " transform="translate(0.0 38.0)" stroke-dasharray="61.108272199715756" stroke-dashoffset="61.108272199715756"><animate attributeName="stroke-dashoffset" from="61.108272199715756" to="0" dur="1.8332481659914726s" begin="0s; 15s; 30s; 45s" fill="freeze" id="anim0" /></path><path d="M 46.1 0.3 L 14.3 0.3 " transform="translate(0.0 38.0)" stroke-dasharray="31.8" stroke-dashoffset="31.8"><animate attributeName="stroke-dashoffset" from="31.8" to="0" dur="0.954s" begin="anim0.end" fill="freeze" id="anim1" /></path><path d="M 31.1 0.4 L 31.1 -17.6 " transform="translate(0.0 38.0)" stroke-dasharray="18.0" stroke-dashoffset="18.0"><animate attributeName="stroke-dashoffset" from="18.0" to="0" dur="0.54s" begin="anim1.end" fill="freeze" id="anim2" /></path><path d="M 42.5 -10.9 L 20.6 -10.9 " transform="translate(0.0 38.0)" stroke-dasharray="21.9" stroke-dashoffset="21.9"><animate attributeName="stroke-dashoffset" from="21.9" to="0" dur="0.6569999999999999s" begin="anim2.end" fill="freeze" id="anim3" /></path><path d="M 19.8 -22.7 C 26.8 -23.0 33.0 -23.7 40.4 -24.9 " transform="translate(0.0 38.0)" stroke-dasharray="20.730083894015806" stroke-dashoffset="20.730083894015806"><animate attributeName="stroke-dashoffset" from="20.730083894015806" to="0" dur="0.6219025168204741s" begin="anim3.end" fill="freeze" id="anim4" /></path><path d="M 24.4 -23.2 C 26.0 -26.9 27.8 -31.6 29.4 -36.0 " transform="translate(0.0 38.0)" stroke-dasharray="13.74375199461478" stroke-dashoffset="13.74375199461478"><animate attributeName="stroke-dashoffset" from="13.74375199461478" to="0" dur="0.4123125598384434s" begin="anim4.end" fill="freeze" id="anim5" /></path><path d="M 43.0 -22.2 C 41.0 -25.1 38.5 -27.9 36.2 -30.0 " transform="translate(0.0 38.0)" stroke-dasharray="10.368794425219969" stroke-dashoffset="10.368794425219969"><animate attributeName="stroke-dashoffset" from="10.368794425219969" to="0" dur="0.31106383275659905s" begin="anim5.end" fill="freeze" id="anim6" /></path><path d="M 45.2 -36.2 L 18.9 -36.2" transform="translate(0.0 38.0)" stroke-dasharray="26.300000000000004" stroke-dashoffset="26.300000000000004"><animate attributeName="stroke-dashoffset" from="26.300000000000004" to="0" dur="0.7890000000000001s" begin="anim6.end" fill="freeze" id="anim_end" /></path></g></svg>