<?xml version='1.0' encoding='utf-8'?>
<svg viewBox="0.0 -6.0 50.0 50.0" version="1.1" xmlns="http://www.w3.org/2000/svg"><rect x="-1000" y="-1000" width="2000" height="2000" stroke="white" fill="white" /><g style="fill:none;stroke:#000000;stroke-width:1"><path d="M 47.0 -0.6 C 42.8 -0.1 38.7 0.1 33.7 0.1 C 25.1 0.1 19.3 -2.5 15.2 -7.8 C 12.1 -11.8 9.3 -18.4 8.8 -27.4 " transform="translate(0.0 38.0)" stroke-dasharray="55.15743674303075" stroke-dashoffset="55.15743674303075"><animate attributeName="stroke-dashoffset" from="55.15743674303075" to="0" dur="1.6547231022909223s" begin="0s" fill="freeze" /></path><path d="M 3.9 1.4 C 12.0 -4.1 18.5 -15.2 19.6 -28.3 C 19.9 -30.4 18.9 -31.6 16.4 -31.6 L 9.9 -31.6 " transform="translate(0.0 38.0)" stroke-dasharray="46.61558683870697" stroke-dashoffset="46.61558683870697"><animate attributeName="stroke-dashoffset" from="46.61558683870697" to="0" dur="1.398467605161209s" begin="1.6547231022909223s" fill="freeze" /></path><path d="M 3.0 -16.6 C 7.0 -22.0 10.4 -30.7 11.7 -39.5 " transform="translate(0.0 38.0)" stroke-dasharray="24.716775457093465" stroke-dashoffset="24.716775457093465"><animate attributeName="stroke-dashoffset" from="24.716775457093465" to="0" dur="0.741503263712804s" begin="3.0531907074521314s" fill="freeze" /></path><path d="M 23.4 -8.4 C 26.9 -12.6 28.4 -17.9 28.4 -26.9 L 28.4 -34.0 C 28.4 -36.0 29.2 -37.4 31.8 -37.4 L 34.9 -37.4 C 37.4 -37.4 38.0 -36.0 38.0 -34.0 L 38.0 -10.9 C 38.0 -9.2 38.6 -8.3 41.5 -8.3 C 44.3 -8.3 45.6 -9.6 45.9 -15.1" transform="translate(0.0 38.0)" stroke-dasharray="78.07553709247404" stroke-dashoffset="78.07553709247404"><animate attributeName="stroke-dashoffset" from="78.07553709247404" to="0" dur="2.342266112774221s" begin="3.7946939711649352s" fill="freeze" /></path></g></svg>