<?xml version='1.0' encoding='utf-8'?>
<svg viewBox="0.0 -6.0 50.0 50.0" version="1.1" xmlns="http://www.w3.org/2000/svg"><rect x="-1000" y="-1000" width="2000" height="2000" stroke="white" fill="white" /><g style="fill:none;stroke:#000000;stroke-width:1"><path d="M 15.8 1.2 L 34.5 1.2 C 37.5 1.2 38.5 0.2 38.5 -1.9 L 38.5 -8.0 C 38.5 -10.2 37.5 -11.2 34.5 -11.2 L 15.8 -11.2 C 12.8 -11.2 11.7 -10.2 11.7 -8.0 L 11.7 -1.9 C 11.7 0.2 12.8 1.2 15.8 1.2 Z " transform="translate(0.0 38.0)" stroke-dasharray="73.35933506937957" stroke-dashoffset="73.35933506937957"><animate attributeName="stroke-dashoffset" from="73.35933506937957" to="0" dur="2.200780052081387s" begin="0s; anim_end.end" fill="freeze" id="anim0" /></path><path d="M 4.0 -12.8 C 6.5 -15.9 7.8 -20.2 7.8 -25.3 L 7.8 -28.8 C 7.8 -30.5 8.6 -31.2 11.0 -31.2 L 17.9 -31.2 C 20.1 -31.2 20.9 -30.6 20.9 -28.8 L 20.9 -25.6 C 20.9 -23.6 20.1 -23.2 17.9 -23.2 L 7.7 -23.2 " transform="translate(0.0 38.0)" stroke-dasharray="50.80562752084839" stroke-dashoffset="50.80562752084839"><animate attributeName="stroke-dashoffset" from="50.80562752084839" to="0" dur="1.5241688256254515s" begin="anim0.end" fill="freeze" id="anim1" /></path><path d="M 23.6 -37.6 L 4.7 -37.6 " transform="translate(0.0 38.0)" stroke-dasharray="18.900000000000002" stroke-dashoffset="18.900000000000002"><animate attributeName="stroke-dashoffset" from="18.900000000000002" to="0" dur="0.5670000000000001s" begin="anim1.end" fill="freeze" id="anim2" /></path><path d="M 23.4 -15.9 C 31.9 -18.1 38.5 -23.7 41.5 -32.6 " transform="translate(0.0 38.0)" stroke-dasharray="25.73538516128215" stroke-dashoffset="25.73538516128215"><animate attributeName="stroke-dashoffset" from="25.73538516128215" to="0" dur="0.7720615548384645s" begin="anim2.end" fill="freeze" id="anim3" /></path><path d="M 45.7 -15.3 C 38.6 -18.1 32.1 -24.3 29.6 -31.2 " transform="translate(0.0 38.0)" stroke-dasharray="23.263773909337424" stroke-dashoffset="23.263773909337424"><animate attributeName="stroke-dashoffset" from="23.263773909337424" to="0" dur="0.6979132172801227s" begin="anim3.end" fill="freeze" id="anim4" /></path><path d="M 26.3 -27.0 C 29.0 -30.2 31.3 -35.0 32.6 -39.5 " transform="translate(0.0 38.0)" stroke-dasharray="14.090813985717212" stroke-dashoffset="14.090813985717212"><animate attributeName="stroke-dashoffset" from="14.090813985717212" to="0" dur="0.42272441957151635s" begin="anim4.end" fill="freeze" id="anim5" /></path><path d="M 45.8 -33.5 L 30.7 -33.5" transform="translate(0.0 38.0)" stroke-dasharray="15.099999999999998" stroke-dashoffset="15.099999999999998"><animate attributeName="stroke-dashoffset" from="15.099999999999998" to="0" dur="0.4529999999999999s" begin="anim5.end" fill="freeze" id="anim_end" /></path></g></svg>