<?xml version='1.0' encoding='utf-8'?>
<svg viewBox="0.0 -6.0 50.0 50.0" version="1.1" xmlns="http://www.w3.org/2000/svg"><rect x="-1000" y="-1000" width="2000" height="2000" stroke="white" fill="white" /><g style="fill:none;stroke:#000000;stroke-width:1"><path d="M 9.2 -11.1 L 12.4 -11.1 C 14.8 -11.1 15.8 -11.9 15.8 -14.4 L 15.8 -32.8 C 15.8 -35.2 14.8 -36.1 12.4 -36.1 L 9.2 -36.1 C 6.8 -36.1 5.8 -35.2 5.8 -32.8 L 5.8 -14.4 C 5.8 -11.9 6.8 -11.1 9.2 -11.1 Z " transform="translate(0.0 38.0)" stroke-dasharray="65.32941934528957" stroke-dashoffset="65.32941934528957"><animate attributeName="stroke-dashoffset" from="65.32941934528957" to="0" dur="1.9598825803586868s" begin="0s" fill="freeze" /></path><path d="M 32.3 2.5 L 32.3 -30.2 " transform="translate(0.0 38.0)" stroke-dasharray="32.7" stroke-dashoffset="32.7"><animate attributeName="stroke-dashoffset" from="32.7" to="0" dur="0.9810000000000001s" begin="1.9598825803586868s" fill="freeze" /></path><path d="M 43.8 -10.6 L 32.4 -10.6 " transform="translate(0.0 38.0)" stroke-dasharray="11.399999999999999" stroke-dashoffset="11.399999999999999"><animate attributeName="stroke-dashoffset" from="11.399999999999999" to="0" dur="0.34199999999999997s" begin="2.9408825803586867s" fill="freeze" /></path><path d="M 20.8 -22.4 C 24.1 -26.9 26.9 -33.0 28.6 -39.4 " transform="translate(0.0 38.0)" stroke-dasharray="18.806728361699935" stroke-dashoffset="18.806728361699935"><animate attributeName="stroke-dashoffset" from="18.806728361699935" to="0" dur="0.564201850850998s" begin="3.2828825803586867s" fill="freeze" /></path><path d="M 43.5 -20.6 L 32.0 -20.6 " transform="translate(0.0 38.0)" stroke-dasharray="11.5" stroke-dashoffset="11.5"><animate attributeName="stroke-dashoffset" from="11.5" to="0" dur="0.345s" begin="3.8470844312096846s" fill="freeze" /></path><path d="M 46.2 -30.6 L 26.2 -30.6" transform="translate(0.0 38.0)" stroke-dasharray="20.000000000000004" stroke-dashoffset="20.000000000000004"><animate attributeName="stroke-dashoffset" from="20.000000000000004" to="0" dur="0.6000000000000001s" begin="4.192084431209684s" fill="freeze" /></path></g></svg>