<?xml version='1.0' encoding='utf-8'?>
<svg viewBox="0.0 -6.0 50.0 50.0" version="1.1" xmlns="http://www.w3.org/2000/svg"><rect x="-1000" y="-1000" width="2000" height="2000" stroke="white" fill="white" /><g style="fill:none;stroke:#000000;stroke-width:1"><path d="M 31.9 1.1 C 32.9 1.4 33.7 1.4 34.5 1.4 C 37.0 1.4 38.1 0.5 38.1 -2.1 L 38.1 -19.8 " transform="translate(0.0 38.0)" stroke-dasharray="26.181313402901008" stroke-dashoffset="26.181313402901008"><animate attributeName="stroke-dashoffset" from="26.181313402901008" to="0" dur="0.7854394020870302s" begin="0s; anim_end.end" fill="freeze" id="anim0" /></path><path d="M 3.6 -9.3 C 6.7 -10.7 9.8 -12.8 12.8 -15.1 " transform="translate(0.0 38.0)" stroke-dasharray="10.899157254078203" stroke-dashoffset="10.899157254078203"><animate attributeName="stroke-dashoffset" from="10.899157254078203" to="0" dur="0.3269747176223461s" begin="anim0.end" fill="freeze" id="anim1" /></path><path d="M 13.4 2.5 L 13.4 -40.0 " transform="translate(0.0 38.0)" stroke-dasharray="42.5" stroke-dashoffset="42.5"><animate attributeName="stroke-dashoffset" from="42.5" to="0" dur="1.275s" begin="anim1.end" fill="freeze" id="anim2" /></path><path d="M 7.7 -25.0 C 6.8 -26.6 5.6 -28.5 4.5 -29.9 " transform="translate(0.0 38.0)" stroke-dasharray="5.857468726087796" stroke-dashoffset="5.857468726087796"><animate attributeName="stroke-dashoffset" from="5.857468726087796" to="0" dur="0.17572406178263386s" begin="anim2.end" fill="freeze" id="anim3" /></path><path d="M 28.8 -6.0 C 27.8 -7.3 26.6 -8.8 25.4 -9.8 " transform="translate(0.0 38.0)" stroke-dasharray="5.108775824130174" stroke-dashoffset="5.108775824130174"><animate attributeName="stroke-dashoffset" from="5.108775824130174" to="0" dur="0.15326327472390522s" begin="anim3.end" fill="freeze" id="anim4" /></path><path d="M 46.6 -15.7 L 19.0 -15.7 " transform="translate(0.0 38.0)" stroke-dasharray="27.6" stroke-dashoffset="27.6"><animate attributeName="stroke-dashoffset" from="27.6" to="0" dur="0.828s" begin="anim4.end" fill="freeze" id="anim5" /></path><path d="M 24.6 -25.6 C 23.9 -27.1 22.9 -28.9 21.8 -30.4 " transform="translate(0.0 38.0)" stroke-dasharray="5.565254260971445" stroke-dashoffset="5.565254260971445"><animate attributeName="stroke-dashoffset" from="5.565254260971445" to="0" dur="0.16695762782914333s" begin="anim5.end" fill="freeze" id="anim6" /></path><path d="M 32.5 -26.9 C 31.9 -28.7 30.9 -30.9 30.1 -32.2 " transform="translate(0.0 38.0)" stroke-dasharray="5.828371885457592" stroke-dashoffset="5.828371885457592"><animate attributeName="stroke-dashoffset" from="5.828371885457592" to="0" dur="0.17485115656372777s" begin="anim6.end" fill="freeze" id="anim7" /></path><path d="M 37.5 -24.1 C 39.6 -26.6 41.5 -29.9 42.7 -32.7 " transform="translate(0.0 38.0)" stroke-dasharray="10.082741426362487" stroke-dashoffset="10.082741426362487"><animate attributeName="stroke-dashoffset" from="10.082741426362487" to="0" dur="0.3024822427908746s" begin="anim7.end" fill="freeze" id="anim8" /></path><path d="M 19.5 -35.7 C 27.1 -36.1 36.8 -37.6 42.5 -39.1" transform="translate(0.0 38.0)" stroke-dasharray="23.281958053403564" stroke-dashoffset="23.281958053403564"><animate attributeName="stroke-dashoffset" from="23.281958053403564" to="0" dur="0.6984587416021069s" begin="anim8.end" fill="freeze" id="anim_end" /></path></g></svg>