<?xml version='1.0' encoding='utf-8'?>
<svg viewBox="0.0 -6.0 50.0 50.0" version="1.1" xmlns="http://www.w3.org/2000/svg"><rect x="-1000" y="-1000" width="2000" height="2000" stroke="white" fill="white" /><g style="fill:none;stroke:#000000;stroke-width:1"><path d="M 35.0 -0.1 C 35.8 0.1 36.5 0.1 37.2 0.1 C 38.9 0.1 39.9 -0.6 39.9 -2.5 L 39.9 -7.8 C 39.9 -9.9 39.0 -10.8 36.2 -10.8 L 13.9 -10.8 C 11.2 -10.8 10.3 -9.8 10.3 -7.8 L 10.3 0.4 " transform="translate(0.0 38.0)" stroke-dasharray="53.318654549113596" stroke-dashoffset="53.318654549113596"><animate attributeName="stroke-dashoffset" from="53.318654549113596" to="0" dur="1.5995596364734077s" begin="0s; 15s; 30s; 45s" fill="freeze" id="anim0" /></path><path d="M 24.9 3.0 L 24.9 -15.2 " transform="translate(0.0 38.0)" stroke-dasharray="18.2" stroke-dashoffset="18.2"><animate attributeName="stroke-dashoffset" from="18.2" to="0" dur="0.5459999999999999s" begin="anim0.end" fill="freeze" id="anim1" /></path><path d="M 4.7 -16.9 C 11.1 -17.4 18.6 -18.4 24.5 -19.6 " transform="translate(0.0 38.0)" stroke-dasharray="19.994441700268112" stroke-dashoffset="19.994441700268112"><animate attributeName="stroke-dashoffset" from="19.994441700268112" to="0" dur="0.5998332510080433s" begin="anim1.end" fill="freeze" id="anim2" /></path><path d="M 14.9 -18.9 L 14.9 -27.4 " transform="translate(0.0 38.0)" stroke-dasharray="8.5" stroke-dashoffset="8.5"><animate attributeName="stroke-dashoffset" from="8.5" to="0" dur="0.255s" begin="anim2.end" fill="freeze" id="anim3" /></path><path d="M 23.6 -24.6 L 6.7 -24.6 " transform="translate(0.0 38.0)" stroke-dasharray="16.900000000000002" stroke-dashoffset="16.900000000000002"><animate attributeName="stroke-dashoffset" from="16.900000000000002" to="0" dur="0.507s" begin="anim3.end" fill="freeze" id="anim4" /></path><path d="M 25.3 -31.1 L 3.9 -31.1 " transform="translate(0.0 38.0)" stroke-dasharray="21.400000000000002" stroke-dashoffset="21.400000000000002"><animate attributeName="stroke-dashoffset" from="21.400000000000002" to="0" dur="0.642s" begin="anim4.end" fill="freeze" id="anim5" /></path><path d="M 14.9 -30.7 L 14.9 -40.5 " transform="translate(0.0 38.0)" stroke-dasharray="9.8" stroke-dashoffset="9.8"><animate attributeName="stroke-dashoffset" from="9.8" to="0" dur="0.294s" begin="anim5.end" fill="freeze" id="anim6" /></path><path d="M 23.0 -36.9 L 7.2 -36.9 " transform="translate(0.0 38.0)" stroke-dasharray="15.8" stroke-dashoffset="15.8"><animate attributeName="stroke-dashoffset" from="15.8" to="0" dur="0.474s" begin="anim6.end" fill="freeze" id="anim7" /></path><path d="M 34.2 -24.2 C 33.2 -25.4 32.0 -26.5 31.1 -27.1 " transform="translate(0.0 38.0)" stroke-dasharray="4.2576055791918535" stroke-dashoffset="4.2576055791918535"><animate attributeName="stroke-dashoffset" from="4.2576055791918535" to="0" dur="0.1277281673757556s" begin="anim7.end" fill="freeze" id="anim8" /></path><path d="M 34.9 -17.2 C 35.8 -17.1 36.5 -16.9 37.5 -16.9 C 39.6 -16.9 40.6 -17.8 40.6 -20.4 L 40.6 -39.9 " transform="translate(0.0 38.0)" stroke-dasharray="27.550803724506093" stroke-dashoffset="27.550803724506093"><animate attributeName="stroke-dashoffset" from="27.550803724506093" to="0" dur="0.8265241117351827s" begin="anim8.end" fill="freeze" id="anim9" /></path><path d="M 46.7 -32.9 L 28.9 -32.9" transform="translate(0.0 38.0)" stroke-dasharray="17.800000000000004" stroke-dashoffset="17.800000000000004"><animate attributeName="stroke-dashoffset" from="17.800000000000004" to="0" dur="0.5340000000000001s" begin="anim9.end" fill="freeze" id="anim_end" /></path></g></svg>