<?xml version='1.0' encoding='utf-8'?>
<svg viewBox="0.0 -6.0 50.0 50.0" version="1.1" xmlns="http://www.w3.org/2000/svg"><rect x="-1000" y="-1000" width="2000" height="2000" stroke="white" fill="white" /><g style="fill:none;stroke:#000000;stroke-width:1"><path d="M 19.1 1.7 C 29.4 -1.7 38.1 -8.8 41.9 -17.5 C 42.9 -19.9 41.9 -21.1 39.4 -21.1 L 24.1 -21.1 " transform="translate(0.0 38.0)" stroke-dasharray="51.60224755529055" stroke-dashoffset="51.60224755529055"><animate attributeName="stroke-dashoffset" from="51.60224755529055" to="0" dur="1.5480674266587164s" begin="0s; anim_end.end" fill="freeze" id="anim0" /></path><path d="M 5.5 -31.4 L 5.5 -10.2 C 5.5 -7.8 6.5 -7.0 8.6 -7.0 L 15.0 -7.0 C 17.1 -7.0 18.1 -7.8 18.1 -10.2 L 18.1 -31.4 " transform="translate(0.0 38.0)" stroke-dasharray="59.172681837608316" stroke-dashoffset="59.172681837608316"><animate attributeName="stroke-dashoffset" from="59.172681837608316" to="0" dur="1.7751804551282495s" begin="anim0.end" fill="freeze" id="anim1" /></path><path d="M 11.8 -6.8 L 11.8 -39.5 " transform="translate(0.0 38.0)" stroke-dasharray="32.7" stroke-dashoffset="32.7"><animate attributeName="stroke-dashoffset" from="32.7" to="0" dur="0.9810000000000001s" begin="anim1.end" fill="freeze" id="anim2" /></path><path d="M 45.8 1.1 C 36.9 -3.0 30.1 -10.2 27.5 -20.6 " transform="translate(0.0 38.0)" stroke-dasharray="29.405115338692504" stroke-dashoffset="29.405115338692504"><animate attributeName="stroke-dashoffset" from="29.405115338692504" to="0" dur="0.8821534601607751s" begin="anim2.end" fill="freeze" id="anim3" /></path><path d="M 46.0 -31.6 L 23.3 -31.6 " transform="translate(0.0 38.0)" stroke-dasharray="22.7" stroke-dashoffset="22.7"><animate attributeName="stroke-dashoffset" from="22.7" to="0" dur="0.6809999999999999s" begin="anim3.end" fill="freeze" id="anim4" /></path><path d="M 34.2 -21.8 L 34.2 -40.4" transform="translate(0.0 38.0)" stroke-dasharray="18.599999999999998" stroke-dashoffset="18.599999999999998"><animate attributeName="stroke-dashoffset" from="18.599999999999998" to="0" dur="0.5579999999999999s" begin="anim4.end" fill="freeze" id="anim_end" /></path></g></svg>