<?xml version='1.0' encoding='utf-8'?>
<svg viewBox="0.0 -6.0 50.0 50.0" version="1.1" xmlns="http://www.w3.org/2000/svg"><rect x="-1000" y="-1000" width="2000" height="2000" stroke="white" fill="white" /><g style="fill:none;stroke:#000000;stroke-width:1"><path d="M 16.2 1.8 C 22.4 -3.0 26.1 -10.9 26.1 -21.2 L 26.1 -29.4 " transform="translate(0.0 38.0)" stroke-dasharray="34.15495481348301" stroke-dashoffset="34.15495481348301"><animate attributeName="stroke-dashoffset" from="34.15495481348301" to="0" dur="1.0246486444044902s" begin="0s; anim_end.end" fill="freeze" id="anim0" /></path><path d="M 3.9 -7.6 C 7.5 -8.6 12.3 -10.3 15.9 -12.1 " transform="translate(0.0 38.0)" stroke-dasharray="12.833189630723943" stroke-dashoffset="12.833189630723943"><animate attributeName="stroke-dashoffset" from="12.833189630723943" to="0" dur="0.38499568892171826s" begin="anim0.end" fill="freeze" id="anim1" /></path><path d="M 9.9 -9.6 L 9.9 -39.6 " transform="translate(0.0 38.0)" stroke-dasharray="30.0" stroke-dashoffset="30.0"><animate attributeName="stroke-dashoffset" from="30.0" to="0" dur="0.8999999999999999s" begin="anim1.end" fill="freeze" id="anim2" /></path><path d="M 15.3 -27.1 L 4.0 -27.1 " transform="translate(0.0 38.0)" stroke-dasharray="11.3" stroke-dashoffset="11.3"><animate attributeName="stroke-dashoffset" from="11.3" to="0" dur="0.339s" begin="anim2.end" fill="freeze" id="anim3" /></path><path d="M 46.4 -17.7 L 17.8 -17.7 " transform="translate(0.0 38.0)" stroke-dasharray="28.599999999999998" stroke-dashoffset="28.599999999999998"><animate attributeName="stroke-dashoffset" from="28.599999999999998" to="0" dur="0.8579999999999999s" begin="anim3.end" fill="freeze" id="anim4" /></path><path d="M 37.4 2.0 L 37.4 -29.6 " transform="translate(0.0 38.0)" stroke-dasharray="31.6" stroke-dashoffset="31.6"><animate attributeName="stroke-dashoffset" from="31.6" to="0" dur="0.948s" begin="anim4.end" fill="freeze" id="anim5" /></path><path d="M 44.5 -29.3 L 19.3 -29.3 " transform="translate(0.0 38.0)" stroke-dasharray="25.2" stroke-dashoffset="25.2"><animate attributeName="stroke-dashoffset" from="25.2" to="0" dur="0.756s" begin="anim5.end" fill="freeze" id="anim6" /></path><path d="M 27.0 -34.7 C 26.1 -36.4 25.0 -38.1 24.1 -39.2 " transform="translate(0.0 38.0)" stroke-dasharray="5.361193752249896" stroke-dashoffset="5.361193752249896"><animate attributeName="stroke-dashoffset" from="5.361193752249896" to="0" dur="0.16083581256749688s" begin="anim6.end" fill="freeze" id="anim7" /></path><path d="M 34.4 -30.3 C 36.2 -33.2 37.9 -36.4 39.1 -39.6" transform="translate(0.0 38.0)" stroke-dasharray="10.436603617192285" stroke-dashoffset="10.436603617192285"><animate attributeName="stroke-dashoffset" from="10.436603617192285" to="0" dur="0.3130981085157685s" begin="anim7.end" fill="freeze" id="anim_end" /></path></g></svg>