<?xml version='1.0' encoding='utf-8'?>
<svg viewBox="0.0 -6.0 50.0 50.0" version="1.1" xmlns="http://www.w3.org/2000/svg"><rect x="-1000" y="-1000" width="2000" height="2000" stroke="white" fill="white" /><g style="fill:none;stroke:#000000;stroke-width:1"><path d="M 4.2 0.8 C 11.2 -5.1 15.7 -15.4 16.4 -26.6 C 16.5 -28.8 15.6 -29.7 13.3 -29.7 L 3.5 -29.7 " transform="translate(0.0 38.0)" stroke-dasharray="45.73964831563241" stroke-dashoffset="45.73964831563241"><animate attributeName="stroke-dashoffset" from="45.73964831563241" to="0" dur="1.3721894494689721s" begin="0s; anim_end.end" fill="freeze" id="anim0" /></path><path d="M 17.6 -5.5 C 14.8 -8.4 10.2 -11.8 6.5 -13.8 " transform="translate(0.0 38.0)" stroke-dasharray="13.905106352744692" stroke-dashoffset="13.905106352744692"><animate attributeName="stroke-dashoffset" from="13.905106352744692" to="0" dur="0.41715319058234074s" begin="anim0.end" fill="freeze" id="anim1" /></path><path d="M 5.2 -12.5 C 7.5 -20.4 9.3 -29.8 10.7 -40.2 " transform="translate(0.0 38.0)" stroke-dasharray="28.266098065303627" stroke-dashoffset="28.266098065303627"><animate attributeName="stroke-dashoffset" from="28.266098065303627" to="0" dur="0.8479829419591087s" begin="anim1.end" fill="freeze" id="anim2" /></path><path d="M 46.4 -9.4 L 20.6 -9.4 " transform="translate(0.0 38.0)" stroke-dasharray="25.799999999999997" stroke-dashoffset="25.799999999999997"><animate attributeName="stroke-dashoffset" from="25.799999999999997" to="0" dur="0.7739999999999999s" begin="anim2.end" fill="freeze" id="anim3" /></path><path d="M 36.5 2.5 L 36.5 -15.8 " transform="translate(0.0 38.0)" stroke-dasharray="18.3" stroke-dashoffset="18.3"><animate attributeName="stroke-dashoffset" from="18.3" to="0" dur="0.549s" begin="anim3.end" fill="freeze" id="anim4" /></path><path d="M 24.6 -13.4 C 30.7 -16.7 33.3 -21.1 33.3 -28.9 L 33.3 -34.2 " transform="translate(0.0 38.0)" stroke-dasharray="24.182215740245685" stroke-dashoffset="24.182215740245685"><animate attributeName="stroke-dashoffset" from="24.182215740245685" to="0" dur="0.7254664722073705s" begin="anim4.end" fill="freeze" id="anim5" /></path><path d="M 43.8 -23.9 L 43.8 -32.0 C 43.8 -34.2 42.6 -35.2 39.9 -35.2 L 27.1 -35.2 C 24.3 -35.2 23.2 -34.2 23.2 -32.0 L 23.2 -23.9 C 23.2 -21.6 24.3 -20.7 27.1 -20.7 L 39.9 -20.7 C 42.6 -20.7 43.8 -21.6 43.8 -23.9 Z " transform="translate(0.0 38.0)" stroke-dasharray="65.14913473461908" stroke-dashoffset="65.14913473461908"><animate attributeName="stroke-dashoffset" from="65.14913473461908" to="0" dur="1.9544740420385724s" begin="anim5.end" fill="freeze" id="anim6" /></path><path d="M 43.4 -28.1 L 24.1 -28.1 " transform="translate(0.0 38.0)" stroke-dasharray="19.299999999999997" stroke-dashoffset="19.299999999999997"><animate attributeName="stroke-dashoffset" from="19.299999999999997" to="0" dur="0.5789999999999998s" begin="anim6.end" fill="freeze" id="anim7" /></path><path d="M 30.7 -35.6 C 31.5 -37.0 32.1 -38.3 32.8 -40.0" transform="translate(0.0 38.0)" stroke-dasharray="4.879108104738774" stroke-dashoffset="4.879108104738774"><animate attributeName="stroke-dashoffset" from="4.879108104738774" to="0" dur="0.1463732431421632s" begin="anim7.end" fill="freeze" id="anim_end" /></path></g></svg>