<?xml version='1.0' encoding='utf-8'?>
<svg viewBox="0.0 -6.0 50.0 50.0" version="1.1" xmlns="http://www.w3.org/2000/svg"><rect x="-1000" y="-1000" width="2000" height="2000" stroke="white" fill="white" /><g style="fill:none;stroke:#000000;stroke-width:1"><path d="M 38.1 1.4 C 38.9 1.6 39.6 1.7 40.5 1.7 C 42.9 1.7 43.9 0.7 43.9 -1.8 L 43.9 -23.3 C 43.9 -25.6 42.9 -26.7 39.7 -26.7 L 24.6 -26.7 C 21.5 -26.7 20.5 -25.6 20.5 -23.3 L 20.5 2.3 " transform="translate(0.0 38.0)" stroke-dasharray="82.76675756521865" stroke-dashoffset="82.76675756521865"><animate attributeName="stroke-dashoffset" from="82.76675756521865" to="0" dur="2.4830027269565593s" begin="0s" fill="freeze" /></path><path d="M 3.9 -6.5 C 7.4 -7.7 12.2 -9.7 15.4 -11.3 " transform="translate(0.0 38.0)" stroke-dasharray="12.469002764192869" stroke-dashoffset="12.469002764192869"><animate attributeName="stroke-dashoffset" from="12.469002764192869" to="0" dur="0.37407008292578603s" begin="2.4830027269565593s" fill="freeze" /></path><path d="M 9.9 -8.6 L 9.9 -39.6 " transform="translate(0.0 38.0)" stroke-dasharray="31.0" stroke-dashoffset="31.0"><animate attributeName="stroke-dashoffset" from="31.0" to="0" dur="0.9299999999999999s" begin="2.8570728098823452s" fill="freeze" /></path><path d="M 15.3 -26.6 L 4.0 -26.6 " transform="translate(0.0 38.0)" stroke-dasharray="11.3" stroke-dashoffset="11.3"><animate attributeName="stroke-dashoffset" from="11.3" to="0" dur="0.339s" begin="3.7870728098823454s" fill="freeze" /></path><path d="M 43.5 -9.7 L 21.0 -9.7 " transform="translate(0.0 38.0)" stroke-dasharray="22.5" stroke-dashoffset="22.5"><animate attributeName="stroke-dashoffset" from="22.5" to="0" dur="0.6749999999999999s" begin="4.126072809882346s" fill="freeze" /></path><path d="M 31.7 1.6 L 31.7 -26.1 " transform="translate(0.0 38.0)" stroke-dasharray="27.700000000000003" stroke-dashoffset="27.700000000000003"><animate attributeName="stroke-dashoffset" from="27.700000000000003" to="0" dur="0.8310000000000001s" begin="4.801072809882346s" fill="freeze" /></path><path d="M 43.5 -18.3 L 21.0 -18.3 " transform="translate(0.0 38.0)" stroke-dasharray="22.5" stroke-dashoffset="22.5"><animate attributeName="stroke-dashoffset" from="22.5" to="0" dur="0.6749999999999999s" begin="5.632072809882346s" fill="freeze" /></path><path d="M 33.9 -29.2 C 32.0 -30.8 29.4 -32.4 27.5 -33.3 " transform="translate(0.0 38.0)" stroke-dasharray="7.618569268790831" stroke-dashoffset="7.618569268790831"><animate attributeName="stroke-dashoffset" from="7.618569268790831" to="0" dur="0.22855707806372494s" begin="6.307072809882346s" fill="freeze" /></path><path d="M 32.5 -31.2 C 34.9 -32.4 37.1 -33.7 38.9 -35.1 C 40.8 -36.6 40.0 -38.4 37.6 -38.4 L 21.0 -38.4" transform="translate(0.0 38.0)" stroke-dasharray="29.352893412432195" stroke-dashoffset="29.352893412432195"><animate attributeName="stroke-dashoffset" from="29.352893412432195" to="0" dur="0.8805868023729658s" begin="6.535629887946071s" fill="freeze" /></path></g></svg>