<?xml version='1.0' encoding='utf-8'?>
<svg viewBox="0.0 -6.0 50.0 50.0" version="1.1" xmlns="http://www.w3.org/2000/svg"><rect x="-1000" y="-1000" width="2000" height="2000" stroke="white" fill="white" /><g style="fill:none;stroke:#000000;stroke-width:1"><path d="M 4.0 -0.3 C 10.9 -5.7 15.5 -15.1 16.2 -26.5 C 16.2 -28.7 15.3 -29.6 13.2 -29.6 L 3.4 -29.6 " transform="translate(0.0 38.0)" stroke-dasharray="44.57141609038554" stroke-dashoffset="44.57141609038554"><animate attributeName="stroke-dashoffset" from="44.57141609038554" to="0" dur="1.337142482711566s" begin="0s" fill="freeze" /></path><path d="M 17.2 -5.8 C 14.6 -8.6 9.9 -12.0 6.2 -13.9 " transform="translate(0.0 38.0)" stroke-dasharray="13.71570783432562" stroke-dashoffset="13.71570783432562"><animate attributeName="stroke-dashoffset" from="13.71570783432562" to="0" dur="0.41147123502976857s" begin="1.337142482711566s" fill="freeze" /></path><path d="M 5.2 -12.6 C 7.3 -20.6 9.1 -29.5 10.4 -40.4 " transform="translate(0.0 38.0)" stroke-dasharray="28.30521016259067" stroke-dashoffset="28.30521016259067"><animate attributeName="stroke-dashoffset" from="28.30521016259067" to="0" dur="0.84915630487772s" begin="1.7486137177413346s" fill="freeze" /></path><path d="M 27.2 1.6 L 38.9 1.6 C 41.0 1.6 41.9 0.8 41.9 -0.8 L 41.9 -3.6 C 41.9 -5.2 41.0 -6.0 38.8 -6.0 L 27.2 -6.0 C 25.0 -6.0 24.1 -5.2 24.1 -3.6 L 24.1 -0.8 C 24.1 0.8 25.0 1.6 27.2 1.6 Z " transform="translate(0.0 38.0)" stroke-dasharray="46.83381730720464" stroke-dashoffset="46.83381730720464"><animate attributeName="stroke-dashoffset" from="46.83381730720464" to="0" dur="1.4050145192161392s" begin="2.5977700226190548s" fill="freeze" /></path><path d="M 28.3 -13.4 C 28.0 -14.0 27.5 -14.8 27.1 -15.4 " transform="translate(0.0 38.0)" stroke-dasharray="2.3336549876985075" stroke-dashoffset="2.3336549876985075"><animate attributeName="stroke-dashoffset" from="2.3336549876985075" to="0" dur="0.07000964963095523s" begin="4.002784541835194s" fill="freeze" /></path><path d="M 46.1 -11.1 L 19.9 -11.1 " transform="translate(0.0 38.0)" stroke-dasharray="26.200000000000003" stroke-dashoffset="26.200000000000003"><animate attributeName="stroke-dashoffset" from="26.200000000000003" to="0" dur="0.786s" begin="4.072794191466149s" fill="freeze" /></path><path d="M 35.8 -11.0 C 36.6 -12.3 37.2 -13.8 37.9 -15.2 " transform="translate(0.0 38.0)" stroke-dasharray="4.698069764440314" stroke-dashoffset="4.698069764440314"><animate attributeName="stroke-dashoffset" from="4.698069764440314" to="0" dur="0.14094209293320942s" begin="4.858794191466149s" fill="freeze" /></path><path d="M 27.4 -18.8 L 38.3 -18.8 C 40.5 -18.8 41.4 -19.6 41.4 -21.1 L 41.4 -23.1 C 41.4 -24.6 40.5 -25.4 38.3 -25.4 L 27.4 -25.4 C 25.2 -25.4 24.4 -24.6 24.4 -23.1 L 24.4 -21.1 C 24.4 -19.6 25.2 -18.8 27.4 -18.8 Z " transform="translate(0.0 38.0)" stroke-dasharray="43.340132399144906" stroke-dashoffset="43.340132399144906"><animate attributeName="stroke-dashoffset" from="43.340132399144906" to="0" dur="1.3002039719743472s" begin="4.999736284399359s" fill="freeze" /></path><path d="M 43.7 -30.6 L 22.4 -30.6 " transform="translate(0.0 38.0)" stroke-dasharray="21.300000000000004" stroke-dashoffset="21.300000000000004"><animate attributeName="stroke-dashoffset" from="21.300000000000004" to="0" dur="0.6390000000000001s" begin="6.299940256373706s" fill="freeze" /></path><path d="M 45.5 -36.1 L 19.9 -36.1 " transform="translate(0.0 38.0)" stroke-dasharray="25.6" stroke-dashoffset="25.6"><animate attributeName="stroke-dashoffset" from="25.6" to="0" dur="0.768s" begin="6.938940256373706s" fill="freeze" /></path><path d="M 32.6 -30.6 L 32.6 -40.2" transform="translate(0.0 38.0)" stroke-dasharray="9.600000000000001" stroke-dashoffset="9.600000000000001"><animate attributeName="stroke-dashoffset" from="9.600000000000001" to="0" dur="0.28800000000000003s" begin="7.706940256373706s" fill="freeze" /></path></g></svg>