<?xml version='1.0' encoding='utf-8'?>
<svg viewBox="0.0 -6.0 50.0 50.0" version="1.1" xmlns="http://www.w3.org/2000/svg"><rect x="-1000" y="-1000" width="2000" height="2000" stroke="white" fill="white" /><g style="fill:none;stroke:#000000;stroke-width:1"><path d="M 14.4 -8.7 C 22.9 -16.4 29.8 -27.9 32.8 -40.0 " transform="translate(0.0 38.0)" stroke-dasharray="36.81464933566616" stroke-dashoffset="36.81464933566616"><animate attributeName="stroke-dashoffset" from="36.81464933566616" to="0" dur="1.1044394800699848s" begin="0s" fill="freeze" /></path><path d="M 9.7 2.6 L 9.7 -25.6 " transform="translate(0.0 38.0)" stroke-dasharray="28.200000000000003" stroke-dashoffset="28.200000000000003"><animate attributeName="stroke-dashoffset" from="28.200000000000003" to="0" dur="0.8460000000000001s" begin="1.1044394800699848s" fill="freeze" /></path><path d="M 17.1 -0.1 C 18.2 -2.0 19.4 -4.7 20.1 -7.3 " transform="translate(0.0 38.0)" stroke-dasharray="7.820192053040523" stroke-dashoffset="7.820192053040523"><animate attributeName="stroke-dashoffset" from="7.820192053040523" to="0" dur="0.23460576159121568s" begin="1.950439480069985s" fill="freeze" /></path><path d="M 26.6 -1.9 C 26.4 -3.8 25.9 -6.0 25.3 -7.5 " transform="translate(0.0 38.0)" stroke-dasharray="5.764570266310986" stroke-dashoffset="5.764570266310986"><animate attributeName="stroke-dashoffset" from="5.764570266310986" to="0" dur="0.17293710798932957s" begin="2.1850452416612005s" fill="freeze" /></path><path d="M 3.1 -18.9 C 6.7 -23.9 10.3 -32.2 12.2 -39.6 " transform="translate(0.0 38.0)" stroke-dasharray="22.722432311061223" stroke-dashoffset="22.722432311061223"><animate attributeName="stroke-dashoffset" from="22.722432311061223" to="0" dur="0.6816729693318366s" begin="2.35798234965053s" fill="freeze" /></path><path d="M 33.0 -4.2 C 32.4 -5.8 31.6 -7.4 30.8 -8.6 " transform="translate(0.0 38.0)" stroke-dasharray="4.9293142122153055" stroke-dashoffset="4.9293142122153055"><animate attributeName="stroke-dashoffset" from="4.9293142122153055" to="0" dur="0.14787942636645915s" begin="3.0396553189823665s" fill="freeze" /></path><path d="M 36.1 0.8 C 37.2 1.1 38.4 1.4 39.5 1.4 C 41.9 1.4 43.1 0.4 44.0 -2.8 C 44.9 -5.3 45.2 -8.7 45.4 -10.7 C 45.5 -12.7 44.6 -13.8 42.2 -13.8 L 19.4 -13.8 " transform="translate(0.0 38.0)" stroke-dasharray="46.281039307945534" stroke-dashoffset="46.281039307945534"><animate attributeName="stroke-dashoffset" from="46.281039307945534" to="0" dur="1.388431179238366s" begin="3.1875347453488256s" fill="freeze" /></path><path d="M 38.9 -6.2 C 38.1 -7.5 37.2 -8.8 36.4 -9.8 " transform="translate(0.0 38.0)" stroke-dasharray="4.385482109837459" stroke-dashoffset="4.385482109837459"><animate attributeName="stroke-dashoffset" from="4.385482109837459" to="0" dur="0.13156446329512375s" begin="4.575965924587192s" fill="freeze" /></path><path d="M 39.8 -13.1 C 40.4 -14.9 40.9 -17.0 41.1 -18.8 C 41.5 -21.1 40.6 -22.1 38.4 -22.1 L 25.1 -22.1 " transform="translate(0.0 38.0)" stroke-dasharray="24.31186748322142" stroke-dashoffset="24.31186748322142"><animate attributeName="stroke-dashoffset" from="24.31186748322142" to="0" dur="0.7293560244966426s" begin="4.707530387882316s" fill="freeze" /></path><path d="M 36.3 -21.6 C 36.9 -23.4 37.4 -25.3 37.6 -27.1 C 38.0 -29.4 37.3 -30.4 34.6 -30.4 L 16.1 -30.4 " transform="translate(0.0 38.0)" stroke-dasharray="29.639291207909423" stroke-dashoffset="29.639291207909423"><animate attributeName="stroke-dashoffset" from="29.639291207909423" to="0" dur="0.8891787362372826s" begin="5.436886412378959s" fill="freeze" /></path><path d="M 23.5 -35.4 C 22.6 -36.8 21.8 -37.9 20.8 -39.0" transform="translate(0.0 38.0)" stroke-dasharray="4.505576157272092" stroke-dashoffset="4.505576157272092"><animate attributeName="stroke-dashoffset" from="4.505576157272092" to="0" dur="0.13516728471816275s" begin="6.326065148616242s" fill="freeze" /></path></g></svg>