<?xml version='1.0' encoding='utf-8'?>
<svg viewBox="0.0 -6.0 50.0 50.0" version="1.1" xmlns="http://www.w3.org/2000/svg"><rect x="-1000" y="-1000" width="2000" height="2000" stroke="white" fill="white" /><g style="fill:none;stroke:#000000;stroke-width:1"><path d="M 3.3 0.1 C 6.6 -6.2 8.3 -15.0 8.3 -27.9 L 8.3 -35.2 C 8.3 -37.4 9.2 -38.4 12.4 -38.4 L 39.2 -38.4 C 41.9 -38.4 42.8 -37.6 42.8 -35.9 L 42.8 -33.6 C 42.8 -31.6 42.0 -31.0 39.2 -31.0 L 8.8 -31.0 " transform="translate(0.0 38.0)" stroke-dasharray="111.8404432049457" stroke-dashoffset="111.8404432049457"><animate attributeName="stroke-dashoffset" from="111.8404432049457" to="0" dur="3.3552132961483707s" begin="0s; anim_end.end" fill="freeze" id="anim0" /></path><path d="M 17.8 2.5 L 17.8 -11.3 " transform="translate(0.0 38.0)" stroke-dasharray="13.8" stroke-dashoffset="13.8"><animate attributeName="stroke-dashoffset" from="13.8" to="0" dur="0.414s" begin="anim0.end" fill="freeze" id="anim1" /></path><path d="M 12.2 -9.2 C 15.2 -11.6 18.4 -15.1 20.8 -18.8 " transform="translate(0.0 38.0)" stroke-dasharray="12.939989513554607" stroke-dashoffset="12.939989513554607"><animate attributeName="stroke-dashoffset" from="12.939989513554607" to="0" dur="0.3881996854066382s" begin="anim1.end" fill="freeze" id="anim2" /></path><path d="M 23.5 2.1 C 30.2 -0.1 37.1 -4.3 40.8 -10.3 C 42.0 -12.3 41.3 -13.8 38.6 -13.8 L 25.1 -13.8 " transform="translate(0.0 38.0)" stroke-dasharray="40.72803199259077" stroke-dashoffset="40.72803199259077"><animate attributeName="stroke-dashoffset" from="40.72803199259077" to="0" dur="1.2218409597777231s" begin="anim2.end" fill="freeze" id="anim3" /></path><path d="M 12.8 -19.4 C 15.1 -21.2 17.5 -23.6 19.6 -26.5 " transform="translate(0.0 38.0)" stroke-dasharray="9.862576443232745" stroke-dashoffset="9.862576443232745"><animate attributeName="stroke-dashoffset" from="9.862576443232745" to="0" dur="0.29587729329698237s" begin="anim3.end" fill="freeze" id="anim4" /></path><path d="M 45.2 1.4 C 37.4 -1.1 31.0 -7.0 28.2 -13.8 " transform="translate(0.0 38.0)" stroke-dasharray="23.509089881919934" stroke-dashoffset="23.509089881919934"><animate attributeName="stroke-dashoffset" from="23.509089881919934" to="0" dur="0.7052726964575979s" begin="anim4.end" fill="freeze" id="anim5" /></path><path d="M 34.6 -14.4 L 34.6 -26.9 " transform="translate(0.0 38.0)" stroke-dasharray="12.499999999999998" stroke-dashoffset="12.499999999999998"><animate attributeName="stroke-dashoffset" from="12.499999999999998" to="0" dur="0.37499999999999994s" begin="anim5.end" fill="freeze" id="anim6" /></path><path d="M 44.6 -21.6 L 25.1 -21.6" transform="translate(0.0 38.0)" stroke-dasharray="19.5" stroke-dashoffset="19.5"><animate attributeName="stroke-dashoffset" from="19.5" to="0" dur="0.585s" begin="anim6.end" fill="freeze" id="anim_end" /></path></g></svg>