<?xml version='1.0' encoding='utf-8'?>
<svg viewBox="0.0 -6.0 50.0 50.0" version="1.1" xmlns="http://www.w3.org/2000/svg"><rect x="-1000" y="-1000" width="2000" height="2000" stroke="white" fill="white" /><g style="fill:none;stroke:#000000;stroke-width:1"><path d="M 27.8 2.3 C 36.5 -3.5 42.2 -13.9 43.4 -27.9 " transform="translate(0.0 38.0)" stroke-dasharray="35.17951532812597" stroke-dashoffset="35.17951532812597"><animate attributeName="stroke-dashoffset" from="35.17951532812597" to="0" dur="1.055385459843779s" begin="0s" fill="freeze" /></path><path d="M 8.8 2.7 L 8.8 -25.4 " transform="translate(0.0 38.0)" stroke-dasharray="28.099999999999998" stroke-dashoffset="28.099999999999998"><animate attributeName="stroke-dashoffset" from="28.099999999999998" to="0" dur="0.8429999999999999s" begin="1.055385459843779s" fill="freeze" /></path><path d="M 19.4 -4.3 L 23.9 -4.3 C 26.4 -4.3 27.3 -5.2 27.3 -7.7 L 27.3 -15.2 C 27.3 -17.7 26.4 -18.6 24.1 -18.6 L 19.4 -18.6 C 17.0 -18.6 16.1 -17.7 16.1 -15.2 L 16.1 -7.7 C 16.1 -5.2 17.1 -4.3 19.4 -4.3 Z " transform="translate(0.0 38.0)" stroke-dasharray="46.351482661841764" stroke-dashoffset="46.351482661841764"><animate attributeName="stroke-dashoffset" from="46.351482661841764" to="0" dur="1.3905444798552529s" begin="1.8983854598437788s" fill="freeze" /></path><path d="M 3.0 -19.0 C 6.2 -24.1 9.5 -32.4 11.1 -39.8 " transform="translate(0.0 38.0)" stroke-dasharray="22.416437606707976" stroke-dashoffset="22.416437606707976"><animate attributeName="stroke-dashoffset" from="22.416437606707976" to="0" dur="0.6724931282012393s" begin="3.288929939699032s" fill="freeze" /></path><path d="M 29.1 -29.9 L 14.1 -29.9 " transform="translate(0.0 38.0)" stroke-dasharray="15.000000000000002" stroke-dashoffset="15.000000000000002"><animate attributeName="stroke-dashoffset" from="15.000000000000002" to="0" dur="0.45s" begin="3.961423067900271s" fill="freeze" /></path><path d="M 21.8 -19.1 L 21.8 -39.6 " transform="translate(0.0 38.0)" stroke-dasharray="20.5" stroke-dashoffset="20.5"><animate attributeName="stroke-dashoffset" from="20.5" to="0" dur="0.615s" begin="4.411423067900271s" fill="freeze" /></path><path d="M 46.6 1.0 C 39.6 -5.3 35.4 -13.4 33.9 -26.6 " transform="translate(0.0 38.0)" stroke-dasharray="31.12869466209209" stroke-dashoffset="31.12869466209209"><animate attributeName="stroke-dashoffset" from="31.12869466209209" to="0" dur="0.9338608398627627s" begin="5.0264230679002715s" fill="freeze" /></path><path d="M 30.6 -21.6 C 33.8 -26.7 36.2 -33.5 37.4 -39.4 " transform="translate(0.0 38.0)" stroke-dasharray="19.148534055829266" stroke-dashoffset="19.148534055829266"><animate attributeName="stroke-dashoffset" from="19.148534055829266" to="0" dur="0.574456021674878s" begin="5.960283907763034s" fill="freeze" /></path><path d="M 47.0 -28.9 L 34.3 -28.9" transform="translate(0.0 38.0)" stroke-dasharray="12.700000000000003" stroke-dashoffset="12.700000000000003"><animate attributeName="stroke-dashoffset" from="12.700000000000003" to="0" dur="0.38100000000000006s" begin="6.534739929437912s" fill="freeze" /></path></g></svg>