<?xml version='1.0' encoding='utf-8'?>
<svg viewBox="0.0 -6.0 50.0 50.0" version="1.1" xmlns="http://www.w3.org/2000/svg"><rect x="-1000" y="-1000" width="2000" height="2000" stroke="white" fill="white" /><g style="fill:none;stroke:#000000;stroke-width:1"><path d="M 25.6 -15.6 L 36.2 -15.6 C 39.1 -15.6 40.1 -16.7 40.1 -19.0 L 40.1 -35.1 C 40.1 -37.5 39.1 -38.5 36.2 -38.5 L 25.6 -38.5 C 22.6 -38.5 21.6 -37.5 21.6 -35.1 L 21.6 -19.0 C 21.6 -16.7 22.6 -15.6 25.6 -15.6 Z " transform="translate(0.0 38.0)" stroke-dasharray="77.66366421643185" stroke-dashoffset="77.66366421643185"><animate attributeName="stroke-dashoffset" from="77.66366421643185" to="0" dur="2.3299099264929555s" begin="0s" fill="freeze" /></path><path d="M 9.2 2.6 L 9.2 -25.6 " transform="translate(0.0 38.0)" stroke-dasharray="28.200000000000003" stroke-dashoffset="28.200000000000003"><animate attributeName="stroke-dashoffset" from="28.200000000000003" to="0" dur="0.8460000000000001s" begin="2.3299099264929555s" fill="freeze" /></path><path d="M 15.9 1.6 C 19.2 0.1 22.9 -2.5 24.9 -4.8 " transform="translate(0.0 38.0)" stroke-dasharray="11.113947830690686" stroke-dashoffset="11.113947830690686"><animate attributeName="stroke-dashoffset" from="11.113947830690686" to="0" dur="0.33341843492072054s" begin="3.1759099264929556s" fill="freeze" /></path><path d="M 3.0 -18.9 C 6.5 -24.1 9.9 -32.3 11.7 -39.7 " transform="translate(0.0 38.0)" stroke-dasharray="22.647369512583317" stroke-dashoffset="22.647369512583317"><animate attributeName="stroke-dashoffset" from="22.647369512583317" to="0" dur="0.6794210853774995s" begin="3.509328361413676s" fill="freeze" /></path><path d="M 46.2 -9.6 L 15.7 -9.6 " transform="translate(0.0 38.0)" stroke-dasharray="30.500000000000004" stroke-dashoffset="30.500000000000004"><animate attributeName="stroke-dashoffset" from="30.500000000000004" to="0" dur="0.915s" begin="4.188749446791175s" fill="freeze" /></path><path d="M 44.4 1.4 C 41.4 -0.5 37.9 -3.1 35.9 -5.0 " transform="translate(0.0 38.0)" stroke-dasharray="10.653598473522656" stroke-dashoffset="10.653598473522656"><animate attributeName="stroke-dashoffset" from="10.653598473522656" to="0" dur="0.31960795420567967s" begin="5.103749446791175s" fill="freeze" /></path><path d="M 39.8 -23.3 L 22.4 -23.3 " transform="translate(0.0 38.0)" stroke-dasharray="17.4" stroke-dashoffset="17.4"><animate attributeName="stroke-dashoffset" from="17.4" to="0" dur="0.5219999999999999s" begin="5.423357400996855s" fill="freeze" /></path><path d="M 39.8 -30.9 L 22.4 -30.9" transform="translate(0.0 38.0)" stroke-dasharray="17.4" stroke-dashoffset="17.4"><animate attributeName="stroke-dashoffset" from="17.4" to="0" dur="0.5219999999999999s" begin="5.945357400996855s" fill="freeze" /></path></g></svg>