<?xml version='1.0' encoding='utf-8'?>
<svg viewBox="0.0 -6.0 50.0 50.0" version="1.1" xmlns="http://www.w3.org/2000/svg"><rect x="-1000" y="-1000" width="2000" height="2000" stroke="white" fill="white" /><g style="fill:none;stroke:#000000;stroke-width:1"><path d="M 12.9 1.6 C 22.7 -3.2 29.4 -11.9 29.4 -26.3 L 29.4 -40.2 " transform="translate(0.0 38.0)" stroke-dasharray="48.279915244114065" stroke-dashoffset="48.279915244114065"><animate attributeName="stroke-dashoffset" from="48.279915244114065" to="0" dur="1.448397457323422s" begin="0s" fill="freeze" /></path><path d="M 5.0 -6.2 C 7.7 -9.6 10.4 -14.4 12.3 -19.1 " transform="translate(0.0 38.0)" stroke-dasharray="14.868618672344963" stroke-dashoffset="14.868618672344963"><animate attributeName="stroke-dashoffset" from="14.868618672344963" to="0" dur="0.4460585601703489s" begin="1.448397457323422s" fill="freeze" /></path><path d="M 10.7 -31.1 C 9.2 -32.9 7.7 -34.4 6.2 -35.4 " transform="translate(0.0 38.0)" stroke-dasharray="6.244813722107785" stroke-dashoffset="6.244813722107785"><animate attributeName="stroke-dashoffset" from="6.244813722107785" to="0" dur="0.18734441166323354s" begin="1.8944560174937708s" fill="freeze" /></path><path d="M 45.5 0.7 C 38.8 -2.6 33.0 -9.3 30.2 -17.4 " transform="translate(0.0 38.0)" stroke-dasharray="24.287150464409528" stroke-dashoffset="24.287150464409528"><animate attributeName="stroke-dashoffset" from="24.287150464409528" to="0" dur="0.7286145139322858s" begin="2.0818004291570045s" fill="freeze" /></path><path d="M 46.3 -18.2 L 17.1 -18.2 " transform="translate(0.0 38.0)" stroke-dasharray="29.199999999999996" stroke-dashoffset="29.199999999999996"><animate attributeName="stroke-dashoffset" from="29.199999999999996" to="0" dur="0.8759999999999999s" begin="2.8104149430892904s" fill="freeze" /></path><path d="M 40.9 -18.1 L 40.9 -27.1 C 40.9 -29.4 39.7 -30.4 37.1 -30.4 L 19.5 -30.4" transform="translate(0.0 38.0)" stroke-dasharray="32.408780008955965" stroke-dashoffset="32.408780008955965"><animate attributeName="stroke-dashoffset" from="32.408780008955965" to="0" dur="0.972263400268679s" begin="3.6864149430892903s" fill="freeze" /></path></g></svg>