<?xml version='1.0' encoding='utf-8'?>
<svg viewBox="0.0 -6.0 50.0 50.0" version="1.1" xmlns="http://www.w3.org/2000/svg"><rect x="-1000" y="-1000" width="2000" height="2000" stroke="white" fill="white" /><g style="fill:none;stroke:#000000;stroke-width:1"><path d="M 47.2 -4.7 C 47.0 -0.2 45.7 1.2 44.4 1.2 C 42.6 1.2 40.9 -1.4 39.0 -11.0 C 37.9 -16.9 37.2 -26.9 37.2 -40.5 " transform="translate(0.0 38.0)" stroke-dasharray="50.64209289381401" stroke-dashoffset="50.64209289381401"><animate attributeName="stroke-dashoffset" from="50.64209289381401" to="0" dur="1.5192627868144202s" begin="0s; anim_end.end" fill="freeze" id="anim0" /></path><path d="M 14.3 -6.5 C 11.8 -8.9 8.3 -11.4 5.5 -12.9 " transform="translate(0.0 38.0)" stroke-dasharray="10.910429846808338" stroke-dashoffset="10.910429846808338"><animate attributeName="stroke-dashoffset" from="10.910429846808338" to="0" dur="0.3273128954042501s" begin="anim0.end" fill="freeze" id="anim1" /></path><path d="M 3.9 0.7 C 9.3 -5.2 13.4 -15.7 13.9 -26.4 C 13.9 -28.4 13.1 -29.1 11.2 -29.1 L 3.0 -29.1 " transform="translate(0.0 38.0)" stroke-dasharray="42.06544651191939" stroke-dashoffset="42.06544651191939"><animate attributeName="stroke-dashoffset" from="42.06544651191939" to="0" dur="1.2619633953575817s" begin="anim1.end" fill="freeze" id="anim2" /></path><path d="M 15.7 -1.5 C 21.2 -2.1 27.6 -3.5 33.0 -5.0 " transform="translate(0.0 38.0)" stroke-dasharray="17.668322637563065" stroke-dashoffset="17.668322637563065"><animate attributeName="stroke-dashoffset" from="17.668322637563065" to="0" dur="0.5300496791268919s" begin="anim2.end" fill="freeze" id="anim3" /></path><path d="M 22.8 -8.8 L 17.8 -8.8 " transform="translate(0.0 38.0)" stroke-dasharray="5.0" stroke-dashoffset="5.0"><animate attributeName="stroke-dashoffset" from="5.0" to="0" dur="0.15s" begin="anim3.end" fill="freeze" id="anim4" /></path><path d="M 3.9 -11.4 C 6.2 -19.2 8.2 -30.8 9.2 -40.0 " transform="translate(0.0 38.0)" stroke-dasharray="29.119041820690043" stroke-dashoffset="29.119041820690043"><animate attributeName="stroke-dashoffset" from="29.119041820690043" to="0" dur="0.8735712546207013s" begin="anim4.end" fill="freeze" id="anim5" /></path><path d="M 22.6 -14.2 L 18.2 -14.2 " transform="translate(0.0 38.0)" stroke-dasharray="4.400000000000002" stroke-dashoffset="4.400000000000002"><animate attributeName="stroke-dashoffset" from="4.400000000000002" to="0" dur="0.13200000000000006s" begin="anim5.end" fill="freeze" id="anim6" /></path><path d="M 22.7 -3.0 L 22.7 -24.8 " transform="translate(0.0 38.0)" stroke-dasharray="21.8" stroke-dashoffset="21.8"><animate attributeName="stroke-dashoffset" from="21.8" to="0" dur="0.654s" begin="anim6.end" fill="freeze" id="anim7" /></path><path d="M 22.8 -19.9 L 18.0 -19.9 " transform="translate(0.0 38.0)" stroke-dasharray="4.800000000000001" stroke-dashoffset="4.800000000000001"><animate attributeName="stroke-dashoffset" from="4.800000000000001" to="0" dur="0.14400000000000002s" begin="anim7.end" fill="freeze" id="anim8" /></path><path d="M 34.0 -9.6 L 29.1 -9.6 " transform="translate(0.0 38.0)" stroke-dasharray="4.899999999999999" stroke-dashoffset="4.899999999999999"><animate attributeName="stroke-dashoffset" from="4.899999999999999" to="0" dur="0.14699999999999996s" begin="anim8.end" fill="freeze" id="anim9" /></path><path d="M 28.1 -4.0 L 28.1 -24.8 " transform="translate(0.0 38.0)" stroke-dasharray="20.8" stroke-dashoffset="20.8"><animate attributeName="stroke-dashoffset" from="20.8" to="0" dur="0.624s" begin="anim9.end" fill="freeze" id="anim10" /></path><path d="M 28.0 2.7 C 35.5 -0.8 41.6 -6.4 45.4 -17.4 " transform="translate(0.0 38.0)" stroke-dasharray="27.39859251263686" stroke-dashoffset="27.39859251263686"><animate attributeName="stroke-dashoffset" from="27.39859251263686" to="0" dur="0.8219577753791057s" begin="anim10.end" fill="freeze" id="anim11" /></path><path d="M 33.2 -14.8 L 28.9 -14.8 " transform="translate(0.0 38.0)" stroke-dasharray="4.300000000000004" stroke-dashoffset="4.300000000000004"><animate attributeName="stroke-dashoffset" from="4.300000000000004" to="0" dur="0.12900000000000011s" begin="anim11.end" fill="freeze" id="anim12" /></path><path d="M 33.5 -19.9 L 28.8 -19.9 " transform="translate(0.0 38.0)" stroke-dasharray="4.699999999999999" stroke-dashoffset="4.699999999999999"><animate attributeName="stroke-dashoffset" from="4.699999999999999" to="0" dur="0.141s" begin="anim12.end" fill="freeze" id="anim13" /></path><path d="M 18.2 -29.2 C 19.6 -31.4 21.1 -35.3 21.9 -39.0 " transform="translate(0.0 38.0)" stroke-dasharray="10.520201848834109" stroke-dashoffset="10.520201848834109"><animate attributeName="stroke-dashoffset" from="10.520201848834109" to="0" dur="0.31560605546502324s" begin="anim13.end" fill="freeze" id="anim14" /></path><path d="M 46.1 -25.4 L 17.9 -25.4 " transform="translate(0.0 38.0)" stroke-dasharray="28.200000000000003" stroke-dashoffset="28.200000000000003"><animate attributeName="stroke-dashoffset" from="28.200000000000003" to="0" dur="0.8460000000000001s" begin="anim14.end" fill="freeze" id="anim15" /></path><path d="M 27.4 -29.1 C 28.8 -31.4 30.2 -35.0 30.9 -38.6 " transform="translate(0.0 38.0)" stroke-dasharray="10.17112488857105" stroke-dashoffset="10.17112488857105"><animate attributeName="stroke-dashoffset" from="10.17112488857105" to="0" dur="0.3051337466571315s" begin="anim15.end" fill="freeze" id="anim16" /></path><path d="M 45.1 -31.2 C 44.4 -32.6 43.3 -34.5 42.4 -35.5 " transform="translate(0.0 38.0)" stroke-dasharray="5.08935854397988" stroke-dashoffset="5.08935854397988"><animate attributeName="stroke-dashoffset" from="5.08935854397988" to="0" dur="0.15268075631939637s" begin="anim16.end" fill="freeze" id="anim17" /></path><path d="M 21.1 -34.0 C 22.2 -32.9 23.4 -31.6 24.5 -30.4 " transform="translate(0.0 38.0)" stroke-dasharray="4.952150442225877" stroke-dashoffset="4.952150442225877"><animate attributeName="stroke-dashoffset" from="4.952150442225877" to="0" dur="0.1485645132667763s" begin="anim17.end" fill="freeze" id="anim18" /></path><path d="M 30.4 -34.0 C 31.6 -32.6 32.7 -31.2 33.9 -29.9" transform="translate(0.0 38.0)" stroke-dasharray="5.391249131919998" stroke-dashoffset="5.391249131919998"><animate attributeName="stroke-dashoffset" from="5.391249131919998" to="0" dur="0.16173747395759994s" begin="anim18.end" fill="freeze" id="anim_end" /></path></g></svg>