<?xml version='1.0' encoding='utf-8'?>
<svg viewBox="0.0 -6.0 50.0 50.0" version="1.1" xmlns="http://www.w3.org/2000/svg"><rect x="-1000" y="-1000" width="2000" height="2000" stroke="white" fill="white" /><g style="fill:none;stroke:#000000;stroke-width:1"><path d="M 7.5 -11.8 L 9.8 -11.8 C 11.8 -11.8 12.7 -12.6 12.7 -14.8 L 12.7 -32.5 C 12.7 -34.7 11.8 -35.5 9.8 -35.5 L 7.5 -35.5 C 5.5 -35.5 4.6 -34.7 4.6 -32.5 L 4.6 -14.8 C 4.6 -12.6 5.5 -11.8 7.5 -11.8 Z " transform="translate(0.0 38.0)" stroke-dasharray="59.41344136732697" stroke-dashoffset="59.41344136732697"><animate attributeName="stroke-dashoffset" from="59.41344136732697" to="0" dur="1.782403241019809s" begin="0s" fill="freeze" /></path><path d="M 15.9 -6.2 L 46.5 -6.2 " transform="translate(0.0 38.0)" stroke-dasharray="30.6" stroke-dashoffset="30.6"><animate attributeName="stroke-dashoffset" from="30.6" to="0" dur="0.918s" begin="1.782403241019809s" fill="freeze" /></path><path d="M 23.2 -12.8 L 23.2 -27.9 " transform="translate(0.0 38.0)" stroke-dasharray="15.099999999999998" stroke-dashoffset="15.099999999999998"><animate attributeName="stroke-dashoffset" from="15.099999999999998" to="0" dur="0.4529999999999999s" begin="2.700403241019809s" fill="freeze" /></path><path d="M 31.0 2.6 L 31.0 -28.1 " transform="translate(0.0 38.0)" stroke-dasharray="30.700000000000003" stroke-dashoffset="30.700000000000003"><animate attributeName="stroke-dashoffset" from="30.700000000000003" to="0" dur="0.921s" begin="3.153403241019809s" fill="freeze" /></path><path d="M 18.4 -13.3 L 44.9 -13.3 " transform="translate(0.0 38.0)" stroke-dasharray="26.5" stroke-dashoffset="26.5"><animate attributeName="stroke-dashoffset" from="26.5" to="0" dur="0.7949999999999999s" begin="4.074403241019809s" fill="freeze" /></path><path d="M 17.2 -20.7 L 46.6 -20.7 " transform="translate(0.0 38.0)" stroke-dasharray="29.400000000000002" stroke-dashoffset="29.400000000000002"><animate attributeName="stroke-dashoffset" from="29.400000000000002" to="0" dur="0.882s" begin="4.869403241019809s" fill="freeze" /></path><path d="M 39.3 -12.8 L 39.3 -27.9 " transform="translate(0.0 38.0)" stroke-dasharray="15.099999999999998" stroke-dashoffset="15.099999999999998"><animate attributeName="stroke-dashoffset" from="15.099999999999998" to="0" dur="0.4529999999999999s" begin="5.751403241019808s" fill="freeze" /></path><path d="M 18.8 -28.0 L 44.6 -28.0 " transform="translate(0.0 38.0)" stroke-dasharray="25.8" stroke-dashoffset="25.8"><animate attributeName="stroke-dashoffset" from="25.8" to="0" dur="0.774s" begin="6.204403241019809s" fill="freeze" /></path><path d="M 26.2 -32.0 L 26.2 -40.4 " transform="translate(0.0 38.0)" stroke-dasharray="8.399999999999999" stroke-dashoffset="8.399999999999999"><animate attributeName="stroke-dashoffset" from="8.399999999999999" to="0" dur="0.25199999999999995s" begin="6.978403241019809s" fill="freeze" /></path><path d="M 17.8 -36.0 L 45.4 -36.0 " transform="translate(0.0 38.0)" stroke-dasharray="27.599999999999998" stroke-dashoffset="27.599999999999998"><animate attributeName="stroke-dashoffset" from="27.599999999999998" to="0" dur="0.828s" begin="7.2304032410198085s" fill="freeze" /></path><path d="M 36.0 -32.3 L 36.0 -40.4" transform="translate(0.0 38.0)" stroke-dasharray="8.100000000000001" stroke-dashoffset="8.100000000000001"><animate attributeName="stroke-dashoffset" from="8.100000000000001" to="0" dur="0.24300000000000002s" begin="8.058403241019809s" fill="freeze" /></path></g></svg>