<?xml version='1.0' encoding='utf-8'?>
<svg viewBox="0.0 -6.0 50.0 50.0" version="1.1" xmlns="http://www.w3.org/2000/svg"><rect x="-1000" y="-1000" width="2000" height="2000" stroke="white" fill="white" /><g style="fill:none;stroke:#000000;stroke-width:1"><path d="M 11.6 1.0 L 38.5 1.0 C 42.6 1.0 44.1 -0.4 44.1 -3.8 L 44.1 -33.6 C 44.1 -37.0 42.6 -38.4 38.5 -38.4 L 11.6 -38.4 C 7.4 -38.4 5.9 -37.0 5.9 -33.6 L 5.9 -3.8 C 5.9 -0.4 7.4 1.0 11.6 1.0 Z " transform="translate(0.0 38.0)" stroke-dasharray="147.92489064122933" stroke-dashoffset="147.92489064122933"><animate attributeName="stroke-dashoffset" from="147.92489064122933" to="0" dur="4.43774671923688s" begin="0s" fill="freeze" /></path><path d="M 35.5 -8.2 C 35.0 -5.0 33.4 -4.3 25.3 -4.3 C 18.6 -4.3 17.6 -5.0 17.6 -7.0 L 17.6 -9.1 C 17.6 -10.5 18.1 -11.2 20.3 -11.2 L 26.6 -11.2 C 28.6 -11.2 29.6 -11.8 29.6 -13.3 L 29.6 -14.8 C 29.6 -16.1 28.7 -16.7 26.7 -16.7 L 19.9 -16.7 " transform="translate(0.0 38.0)" stroke-dasharray="50.07754644683321" stroke-dashoffset="50.07754644683321"><animate attributeName="stroke-dashoffset" from="50.07754644683321" to="0" dur="1.5023263934049962s" begin="4.43774671923688s" fill="freeze" /></path><path d="M 10.7 -13.2 C 17.5 -18.1 21.8 -23.9 24.8 -34.2 " transform="translate(0.0 38.0)" stroke-dasharray="25.836392291765293" stroke-dashoffset="25.836392291765293"><animate attributeName="stroke-dashoffset" from="25.836392291765293" to="0" dur="0.7750917687529587s" begin="5.940073112641876s" fill="freeze" /></path><path d="M 39.4 -22.1 L 10.8 -22.1 " transform="translate(0.0 38.0)" stroke-dasharray="28.599999999999998" stroke-dashoffset="28.599999999999998"><animate attributeName="stroke-dashoffset" from="28.599999999999998" to="0" dur="0.8579999999999999s" begin="6.715164881394835s" fill="freeze" /></path><path d="M 17.9 -30.8 C 17.2 -31.8 16.4 -32.8 15.6 -33.7 " transform="translate(0.0 38.0)" stroke-dasharray="3.7033665934995166" stroke-dashoffset="3.7033665934995166"><animate attributeName="stroke-dashoffset" from="3.7033665934995166" to="0" dur="0.11110099780498549s" begin="7.573164881394835s" fill="freeze" /></path><path d="M 37.1 -27.7 L 13.6 -27.7 " transform="translate(0.0 38.0)" stroke-dasharray="23.5" stroke-dashoffset="23.5"><animate attributeName="stroke-dashoffset" from="23.5" to="0" dur="0.705s" begin="7.68426587919982s" fill="freeze" /></path><path d="M 38.9 -14.2 C 34.0 -17.2 29.9 -22.0 27.4 -27.6 " transform="translate(0.0 38.0)" stroke-dasharray="17.920968955739994" stroke-dashoffset="17.920968955739994"><animate attributeName="stroke-dashoffset" from="17.920968955739994" to="0" dur="0.5376290686721998s" begin="8.38926587919982s" fill="freeze" /></path><path d="M 30.7 -30.4 C 31.4 -31.4 32.3 -32.6 32.9 -33.7" transform="translate(0.0 38.0)" stroke-dasharray="3.968364793609942" stroke-dashoffset="3.968364793609942"><animate attributeName="stroke-dashoffset" from="3.968364793609942" to="0" dur="0.11905094380829825s" begin="8.92689494787202s" fill="freeze" /></path></g></svg>