<?xml version='1.0' encoding='utf-8'?>
<svg viewBox="0.0 -6.0 50.0 50.0" version="1.1" xmlns="http://www.w3.org/2000/svg"><rect x="-1000" y="-1000" width="2000" height="2000" stroke="white" fill="white" /><g style="fill:none;stroke:#000000;stroke-width:1"><path d="M 44.1 1.5 L 25.4 1.5 C 22.7 1.5 21.4 0.7 21.4 -2.0 L 21.4 -13.8 " transform="translate(0.0 38.0)" stroke-dasharray="36.69662114895969" stroke-dashoffset="36.69662114895969"><animate attributeName="stroke-dashoffset" from="36.69662114895969" to="0" dur="1.1008986344687908s" begin="0s" fill="freeze" /></path><path d="M 3.6 -7.0 C 7.2 -8.2 11.4 -9.8 14.8 -11.4 " transform="translate(0.0 38.0)" stroke-dasharray="12.039667489561936" stroke-dashoffset="12.039667489561936"><animate attributeName="stroke-dashoffset" from="12.039667489561936" to="0" dur="0.36119002468685807s" begin="1.1008986344687908s" fill="freeze" /></path><path d="M 9.7 -9.1 L 9.7 -39.4 " transform="translate(0.0 38.0)" stroke-dasharray="30.299999999999997" stroke-dashoffset="30.299999999999997"><animate attributeName="stroke-dashoffset" from="30.299999999999997" to="0" dur="0.9089999999999999s" begin="1.4620886591556488s" fill="freeze" /></path><path d="M 26.1 -4.0 C 28.8 -6.0 30.1 -8.8 30.3 -13.2 " transform="translate(0.0 38.0)" stroke-dasharray="10.496467876210724" stroke-dashoffset="10.496467876210724"><animate attributeName="stroke-dashoffset" from="10.496467876210724" to="0" dur="0.31489403628632173s" begin="2.3710886591556486s" fill="freeze" /></path><path d="M 15.4 -27.1 L 3.8 -27.1 " transform="translate(0.0 38.0)" stroke-dasharray="11.600000000000001" stroke-dashoffset="11.600000000000001"><animate attributeName="stroke-dashoffset" from="11.600000000000001" to="0" dur="0.34800000000000003s" begin="2.6859826954419703s" fill="freeze" /></path><path d="M 46.2 -13.6 L 18.1 -13.6 " transform="translate(0.0 38.0)" stroke-dasharray="28.1" stroke-dashoffset="28.1"><animate attributeName="stroke-dashoffset" from="28.1" to="0" dur="0.843s" begin="3.03398269544197s" fill="freeze" /></path><path d="M 43.9 -8.4 C 43.4 -5.7 42.2 -4.9 39.7 -4.9 C 37.0 -4.9 36.4 -5.3 36.4 -7.0 L 36.4 -13.6 " transform="translate(0.0 38.0)" stroke-dasharray="17.357258778197554" stroke-dashoffset="17.357258778197554"><animate attributeName="stroke-dashoffset" from="17.357258778197554" to="0" dur="0.5207177633459266s" begin="3.87698269544197s" fill="freeze" /></path><path d="M 37.7 -20.5 L 25.3 -20.5 " transform="translate(0.0 38.0)" stroke-dasharray="12.400000000000002" stroke-dashoffset="12.400000000000002"><animate attributeName="stroke-dashoffset" from="12.400000000000002" to="0" dur="0.37200000000000005s" begin="4.397700458787897s" fill="freeze" /></path><path d="M 25.1 -13.6 L 25.1 -40.0 " transform="translate(0.0 38.0)" stroke-dasharray="26.4" stroke-dashoffset="26.4"><animate attributeName="stroke-dashoffset" from="26.4" to="0" dur="0.7919999999999999s" begin="4.769700458787897s" fill="freeze" /></path><path d="M 37.7 -27.2 L 25.3 -27.2 " transform="translate(0.0 38.0)" stroke-dasharray="12.400000000000002" stroke-dashoffset="12.400000000000002"><animate attributeName="stroke-dashoffset" from="12.400000000000002" to="0" dur="0.37200000000000005s" begin="5.561700458787897s" fill="freeze" /></path><path d="M 38.0 -13.6 L 38.0 -40.0 " transform="translate(0.0 38.0)" stroke-dasharray="26.4" stroke-dashoffset="26.4"><animate attributeName="stroke-dashoffset" from="26.4" to="0" dur="0.7919999999999999s" begin="5.9337004587878965s" fill="freeze" /></path><path d="M 45.0 -33.9 L 19.0 -33.9" transform="translate(0.0 38.0)" stroke-dasharray="26.0" stroke-dashoffset="26.0"><animate attributeName="stroke-dashoffset" from="26.0" to="0" dur="0.78s" begin="6.725700458787896s" fill="freeze" /></path></g></svg>