<?xml version='1.0' encoding='utf-8'?>
<svg viewBox="0.0 -6.0 50.0 50.0" version="1.1" xmlns="http://www.w3.org/2000/svg"><rect x="-1000" y="-1000" width="2000" height="2000" stroke="white" fill="white" /><g style="fill:none;stroke:#000000;stroke-width:1"><path d="M 3.2 -1.3 C 6.0 -6.6 7.7 -14.5 7.7 -25.7 L 7.7 -32.5 C 7.7 -35.2 8.7 -36.4 11.9 -36.4 L 45.5 -36.4 " transform="translate(0.0 38.0)" stroke-dasharray="72.13670296609327" stroke-dashoffset="72.13670296609327"><animate attributeName="stroke-dashoffset" from="72.13670296609327" to="0" dur="2.164101088982798s" begin="0s" fill="freeze" /></path><path d="M 16.0 3.0 C 24.1 1.9 32.6 -0.5 39.1 -3.9 " transform="translate(0.0 38.0)" stroke-dasharray="24.2211073434287" stroke-dashoffset="24.2211073434287"><animate attributeName="stroke-dashoffset" from="24.2211073434287" to="0" dur="0.7266332203028609s" begin="2.164101088982798s" fill="freeze" /></path><path d="M 16.6 -2.3 C 22.4 -3.4 28.6 -5.4 33.4 -8.0 " transform="translate(0.0 38.0)" stroke-dasharray="17.80619289107006" stroke-dashoffset="17.80619289107006"><animate attributeName="stroke-dashoffset" from="17.80619289107006" to="0" dur="0.5341857867321018s" begin="2.890734309285659s" fill="freeze" /></path><path d="M 17.0 -7.4 C 20.8 -8.3 25.4 -10.2 28.6 -12.1 " transform="translate(0.0 38.0)" stroke-dasharray="12.557296533619915" stroke-dashoffset="12.557296533619915"><animate attributeName="stroke-dashoffset" from="12.557296533619915" to="0" dur="0.3767188960085974s" begin="3.424920096017761s" fill="freeze" /></path><path d="M 11.4 -10.3 C 17.2 -12.3 23.8 -15.8 27.9 -19.4 " transform="translate(0.0 38.0)" stroke-dasharray="18.945448192947126" stroke-dashoffset="18.945448192947126"><animate attributeName="stroke-dashoffset" from="18.945448192947126" to="0" dur="0.5683634457884138s" begin="3.8016389920263585s" fill="freeze" /></path><path d="M 14.0 -18.0 C 17.9 -20.3 21.8 -23.4 24.6 -26.9 " transform="translate(0.0 38.0)" stroke-dasharray="13.913691180647637" stroke-dashoffset="13.913691180647637"><animate attributeName="stroke-dashoffset" from="13.913691180647637" to="0" dur="0.4174107354194291s" begin="4.370002437814772s" fill="freeze" /></path><path d="M 13.2 -24.1 C 16.1 -25.9 18.9 -28.1 21.1 -30.8 " transform="translate(0.0 38.0)" stroke-dasharray="10.405995147511677" stroke-dashoffset="10.405995147511677"><animate attributeName="stroke-dashoffset" from="10.405995147511677" to="0" dur="0.3121798544253503s" begin="4.787413173234201s" fill="freeze" /></path><path d="M 25.1 -21.6 L 25.1 -29.0 C 25.1 -30.5 24.3 -31.2 22.1 -31.2 L 13.6 -31.2 " transform="translate(0.0 38.0)" stroke-dasharray="20.190706753779548" stroke-dashoffset="20.190706753779548"><animate attributeName="stroke-dashoffset" from="20.190706753779548" to="0" dur="0.6057212026133864s" begin="5.099593027659552s" fill="freeze" /></path><path d="M 45.9 -10.5 C 39.5 -12.1 32.8 -15.1 28.2 -18.3 " transform="translate(0.0 38.0)" stroke-dasharray="19.43796736145711" stroke-dashoffset="19.43796736145711"><animate attributeName="stroke-dashoffset" from="19.43796736145711" to="0" dur="0.5831390208437133s" begin="5.705314230272938s" fill="freeze" /></path><path d="M 33.5 -19.7 C 36.4 -21.6 39.5 -24.3 41.8 -27.2 " transform="translate(0.0 38.0)" stroke-dasharray="11.231320835468106" stroke-dashoffset="11.231320835468106"><animate attributeName="stroke-dashoffset" from="11.231320835468106" to="0" dur="0.3369396250640432s" begin="6.2884532511166515s" fill="freeze" /></path><path d="M 30.8 -24.4 C 33.4 -26.1 36.0 -28.4 38.1 -30.9 " transform="translate(0.0 38.0)" stroke-dasharray="9.807982976051695" stroke-dashoffset="9.807982976051695"><animate attributeName="stroke-dashoffset" from="9.807982976051695" to="0" dur="0.29423948928155086s" begin="6.625392876180695s" fill="freeze" /></path><path d="M 42.1 -18.8 L 42.1 -29.0 C 42.1 -30.5 41.4 -31.2 39.2 -31.2 L 30.2 -31.2 " transform="translate(0.0 38.0)" stroke-dasharray="23.420742189097886" stroke-dashoffset="23.420742189097886"><animate attributeName="stroke-dashoffset" from="23.420742189097886" to="0" dur="0.7026222656729366s" begin="6.919632365462245s" fill="freeze" /></path><path d="M 25.8 -36.2 L 25.8 -41.4" transform="translate(0.0 38.0)" stroke-dasharray="5.199999999999996" stroke-dashoffset="5.199999999999996"><animate attributeName="stroke-dashoffset" from="5.199999999999996" to="0" dur="0.15599999999999986s" begin="7.622254631135182s" fill="freeze" /></path></g></svg>