<?xml version='1.0' encoding='utf-8'?>
<svg viewBox="0.0 -6.0 50.0 50.0" version="1.1" xmlns="http://www.w3.org/2000/svg"><rect x="-1000" y="-1000" width="2000" height="2000" stroke="white" fill="white" /><g style="fill:none;stroke:#000000;stroke-width:1"><path d="M 26.9 1.4 L 36.2 1.4 C 39.1 1.4 40.2 0.5 40.2 -1.8 L 40.2 -6.5 C 40.2 -8.7 39.1 -9.7 36.2 -9.7 L 26.9 -9.7 C 24.0 -9.7 22.9 -8.7 22.9 -6.5 L 22.9 -1.8 C 22.9 0.5 24.0 1.4 26.9 1.4 Z " transform="translate(0.0 38.0)" stroke-dasharray="51.759259285453226" stroke-dashoffset="51.759259285453226"><animate attributeName="stroke-dashoffset" from="51.759259285453226" to="0" dur="1.5527777785635968s" begin="0s" fill="freeze" /></path><path d="M 3.9 -6.5 C 7.4 -7.7 12.2 -9.7 15.4 -11.3 " transform="translate(0.0 38.0)" stroke-dasharray="12.469002764192869" stroke-dashoffset="12.469002764192869"><animate attributeName="stroke-dashoffset" from="12.469002764192869" to="0" dur="0.37407008292578603s" begin="1.5527777785635968s" fill="freeze" /></path><path d="M 9.9 -8.6 L 9.9 -39.1 " transform="translate(0.0 38.0)" stroke-dasharray="30.5" stroke-dashoffset="30.5"><animate attributeName="stroke-dashoffset" from="30.5" to="0" dur="0.9149999999999999s" begin="1.926847861489383s" fill="freeze" /></path><path d="M 15.3 -26.4 L 4.0 -26.4 " transform="translate(0.0 38.0)" stroke-dasharray="11.3" stroke-dashoffset="11.3"><animate attributeName="stroke-dashoffset" from="11.3" to="0" dur="0.339s" begin="2.841847861489383s" fill="freeze" /></path><path d="M 18.4 -15.9 C 22.5 -18.6 29.0 -24.4 31.8 -29.0 " transform="translate(0.0 38.0)" stroke-dasharray="18.85266654626375" stroke-dashoffset="18.85266654626375"><animate attributeName="stroke-dashoffset" from="18.85266654626375" to="0" dur="0.5655799963879126s" begin="3.180847861489383s" fill="freeze" /></path><path d="M 36.9 -16.2 L 26.2 -16.2 " transform="translate(0.0 38.0)" stroke-dasharray="10.7" stroke-dashoffset="10.7"><animate attributeName="stroke-dashoffset" from="10.7" to="0" dur="0.32099999999999995s" begin="3.7464278578772956s" fill="freeze" /></path><path d="M 45.9 -16.9 C 40.7 -19.3 35.4 -23.4 31.8 -28.0 " transform="translate(0.0 38.0)" stroke-dasharray="18.101945046420678" stroke-dashoffset="18.101945046420678"><animate attributeName="stroke-dashoffset" from="18.101945046420678" to="0" dur="0.5430583513926203s" begin="4.067427857877296s" fill="freeze" /></path><path d="M 26.4 -30.6 L 26.4 -39.9 " transform="translate(0.0 38.0)" stroke-dasharray="9.299999999999997" stroke-dashoffset="9.299999999999997"><animate attributeName="stroke-dashoffset" from="9.299999999999997" to="0" dur="0.2789999999999999s" begin="4.610486209269916s" fill="freeze" /></path><path d="M 45.5 -34.9 L 17.8 -34.9 " transform="translate(0.0 38.0)" stroke-dasharray="27.7" stroke-dashoffset="27.7"><animate attributeName="stroke-dashoffset" from="27.7" to="0" dur="0.831s" begin="4.889486209269916s" fill="freeze" /></path><path d="M 37.0 -30.8 L 37.0 -39.9" transform="translate(0.0 38.0)" stroke-dasharray="9.099999999999998" stroke-dashoffset="9.099999999999998"><animate attributeName="stroke-dashoffset" from="9.099999999999998" to="0" dur="0.2729999999999999s" begin="5.720486209269916s" fill="freeze" /></path></g></svg>