<?xml version='1.0' encoding='utf-8'?>
<svg viewBox="0.0 -6.0 50.0 50.0" version="1.1" xmlns="http://www.w3.org/2000/svg"><rect x="-1000" y="-1000" width="2000" height="2000" stroke="white" fill="white" /><g style="fill:none;stroke:#000000;stroke-width:1"><path d="M 20.7 2.4 C 29.1 -2.8 34.5 -12.2 34.5 -26.9 L 34.5 -40.2 " transform="translate(0.0 38.0)" stroke-dasharray="47.22367767880766" stroke-dashoffset="47.22367767880766"><animate attributeName="stroke-dashoffset" from="47.22367767880766" to="0" dur="1.4167103303642299s" begin="0s; 15s; 30s; 45s" fill="freeze" id="anim0" /></path><path d="M 11.0 2.6 L 11.0 -40.2 " transform="translate(0.0 38.0)" stroke-dasharray="42.800000000000004" stroke-dashoffset="42.800000000000004"><animate attributeName="stroke-dashoffset" from="42.800000000000004" to="0" dur="1.284s" begin="anim0.end" fill="freeze" id="anim1" /></path><path d="M 14.3 -10.3 C 14.8 -10.2 15.2 -10.2 15.6 -10.2 C 17.0 -10.2 17.7 -11.0 17.7 -12.8 L 17.7 -27.8 C 17.7 -29.9 16.9 -30.8 14.6 -30.8 L 7.5 -30.8 C 5.2 -30.8 4.3 -29.9 4.3 -27.8 L 4.3 -9.1 " transform="translate(0.0 38.0)" stroke-dasharray="56.073287145933094" stroke-dashoffset="56.073287145933094"><animate attributeName="stroke-dashoffset" from="56.073287145933094" to="0" dur="1.6821986143779928s" begin="anim1.end" fill="freeze" id="anim2" /></path><path d="M 45.8 1.3 C 40.5 -2.9 36.5 -9.4 34.8 -16.8 " transform="translate(0.0 38.0)" stroke-dasharray="21.57836900600668" stroke-dashoffset="21.57836900600668"><animate attributeName="stroke-dashoffset" from="21.57836900600668" to="0" dur="0.6473510701802004s" begin="anim2.end" fill="freeze" id="anim3" /></path><path d="M 46.5 -17.4 L 22.6 -17.4 " transform="translate(0.0 38.0)" stroke-dasharray="23.9" stroke-dashoffset="23.9"><animate attributeName="stroke-dashoffset" from="23.9" to="0" dur="0.717s" begin="anim3.end" fill="freeze" id="anim4" /></path><path d="M 23.4 -24.4 C 25.1 -27.6 26.9 -32.4 27.6 -36.1 " transform="translate(0.0 38.0)" stroke-dasharray="12.470072127868347" stroke-dashoffset="12.470072127868347"><animate attributeName="stroke-dashoffset" from="12.470072127868347" to="0" dur="0.3741021638360504s" begin="anim4.end" fill="freeze" id="anim5" /></path><path d="M 44.3 -29.4 L 25.0 -29.4" transform="translate(0.0 38.0)" stroke-dasharray="19.299999999999997" stroke-dashoffset="19.299999999999997"><animate attributeName="stroke-dashoffset" from="19.299999999999997" to="0" dur="0.5789999999999998s" begin="anim5.end" fill="freeze" id="anim_end" /></path></g></svg>