<?xml version='1.0' encoding='utf-8'?>
<svg viewBox="0.0 -6.0 50.0 50.0" version="1.1" xmlns="http://www.w3.org/2000/svg"><rect x="-1000" y="-1000" width="2000" height="2000" stroke="white" fill="white" /><g style="fill:none;stroke:#000000;stroke-width:1"><path d="M 34.8 1.4 C 35.9 1.7 36.7 1.8 37.5 1.8 C 40.0 1.8 41.2 0.9 41.2 -1.6 L 41.2 -39.9 " transform="translate(0.0 38.0)" stroke-dasharray="46.869802187850496" stroke-dashoffset="46.869802187850496"><animate attributeName="stroke-dashoffset" from="46.869802187850496" to="0" dur="1.4060940656355148s" begin="0s; anim_end.end" fill="freeze" id="anim0" /></path><path d="M 3.9 -6.3 C 7.8 -7.5 12.6 -9.4 16.1 -11.3 " transform="translate(0.0 38.0)" stroke-dasharray="13.203754405018822" stroke-dashoffset="13.203754405018822"><animate attributeName="stroke-dashoffset" from="13.203754405018822" to="0" dur="0.39611263215056464s" begin="anim0.end" fill="freeze" id="anim1" /></path><path d="M 9.9 -8.3 L 9.9 -39.1 " transform="translate(0.0 38.0)" stroke-dasharray="30.8" stroke-dashoffset="30.8"><animate attributeName="stroke-dashoffset" from="30.8" to="0" dur="0.9239999999999999s" begin="anim1.end" fill="freeze" id="anim2" /></path><path d="M 23.6 2.6 L 23.6 -25.3 " transform="translate(0.0 38.0)" stroke-dasharray="27.900000000000002" stroke-dashoffset="27.900000000000002"><animate attributeName="stroke-dashoffset" from="27.900000000000002" to="0" dur="0.8370000000000001s" begin="anim2.end" fill="freeze" id="anim3" /></path><path d="M 15.3 -26.4 L 4.0 -26.4 " transform="translate(0.0 38.0)" stroke-dasharray="11.3" stroke-dashoffset="11.3"><animate attributeName="stroke-dashoffset" from="11.3" to="0" dur="0.339s" begin="anim3.end" fill="freeze" id="anim4" /></path><path d="M 34.3 -13.2 C 33.3 -14.7 32.0 -16.4 30.8 -17.7 " transform="translate(0.0 38.0)" stroke-dasharray="5.706206549600341" stroke-dashoffset="5.706206549600341"><animate attributeName="stroke-dashoffset" from="5.706206549600341" to="0" dur="0.17118619648801023s" begin="anim4.end" fill="freeze" id="anim5" /></path><path d="M 17.6 -18.9 C 21.1 -24.1 24.4 -32.2 26.2 -39.7 " transform="translate(0.0 38.0)" stroke-dasharray="22.61169442403458" stroke-dashoffset="22.61169442403458"><animate attributeName="stroke-dashoffset" from="22.61169442403458" to="0" dur="0.6783508327210375s" begin="anim5.end" fill="freeze" id="anim6" /></path><path d="M 47.0 -26.5 L 29.2 -26.5" transform="translate(0.0 38.0)" stroke-dasharray="17.8" stroke-dashoffset="17.8"><animate attributeName="stroke-dashoffset" from="17.8" to="0" dur="0.534s" begin="anim6.end" fill="freeze" id="anim_end" /></path></g></svg>