<?xml version='1.0' encoding='utf-8'?>
<svg viewBox="0.0 -6.0 50.0 50.0" version="1.1" xmlns="http://www.w3.org/2000/svg"><rect x="-1000" y="-1000" width="2000" height="2000" stroke="white" fill="white" /><g style="fill:none;stroke:#000000;stroke-width:1"><path d="M 17.4 2.0 C 26.4 0.2 34.8 -4.0 40.0 -10.2 C 41.4 -11.8 40.7 -13.4 38.1 -13.4 L 20.3 -13.4 " transform="translate(0.0 38.0)" stroke-dasharray="49.14414493716212" stroke-dashoffset="49.14414493716212"><animate attributeName="stroke-dashoffset" from="49.14414493716212" to="0" dur="1.4743243481148636s" begin="0s; anim_end.end" fill="freeze" id="anim0" /></path><path d="M 3.9 -13.4 C 8.2 -14.7 12.8 -16.2 15.9 -17.6 " transform="translate(0.0 38.0)" stroke-dasharray="12.721541342197343" stroke-dashoffset="12.721541342197343"><animate attributeName="stroke-dashoffset" from="12.721541342197343" to="0" dur="0.38164624026592026s" begin="anim0.end" fill="freeze" id="anim1" /></path><path d="M 4.8 1.6 C 5.8 1.8 6.7 1.9 7.3 1.9 C 9.5 1.9 10.6 0.9 10.6 -1.6 L 10.6 -40.1 " transform="translate(0.0 38.0)" stroke-dasharray="46.58078977164744" stroke-dashoffset="46.58078977164744"><animate attributeName="stroke-dashoffset" from="46.58078977164744" to="0" dur="1.397423693149423s" begin="anim1.end" fill="freeze" id="anim2" /></path><path d="M 15.8 -29.4 L 4.0 -29.4 " transform="translate(0.0 38.0)" stroke-dasharray="11.8" stroke-dashoffset="11.8"><animate attributeName="stroke-dashoffset" from="11.8" to="0" dur="0.354s" begin="anim2.end" fill="freeze" id="anim3" /></path><path d="M 45.6 1.2 C 36.8 -0.8 28.6 -6.0 24.1 -13.4 " transform="translate(0.0 38.0)" stroke-dasharray="26.674263195236232" stroke-dashoffset="26.674263195236232"><animate attributeName="stroke-dashoffset" from="26.674263195236232" to="0" dur="0.800227895857087s" begin="anim3.end" fill="freeze" id="anim4" /></path><path d="M 32.4 -13.6 L 32.4 -40.2 " transform="translate(0.0 38.0)" stroke-dasharray="26.6" stroke-dashoffset="26.6"><animate attributeName="stroke-dashoffset" from="26.6" to="0" dur="0.798s" begin="anim4.end" fill="freeze" id="anim5" /></path><path d="M 26.0 -20.6 L 39.6 -20.6 C 42.4 -20.6 43.5 -21.6 43.5 -24.1 L 43.5 -31.1 C 43.5 -33.8 42.4 -34.7 39.6 -34.7 L 25.9 -34.7 C 23.1 -34.7 22.1 -33.8 22.1 -31.1 L 22.1 -24.1 C 22.1 -21.6 23.2 -20.6 26.0 -20.6 Z " transform="translate(0.0 38.0)" stroke-dasharray="65.85538622933468" stroke-dashoffset="65.85538622933468"><animate attributeName="stroke-dashoffset" from="65.85538622933468" to="0" dur="1.9756615868800405s" begin="anim5.end" fill="freeze" id="anim6" /></path><path d="M 43.6 -27.8 L 22.8 -27.8" transform="translate(0.0 38.0)" stroke-dasharray="20.8" stroke-dashoffset="20.8"><animate attributeName="stroke-dashoffset" from="20.8" to="0" dur="0.624s" begin="anim6.end" fill="freeze" id="anim_end" /></path></g></svg>