<?xml version='1.0' encoding='utf-8'?>
<svg viewBox="0.0 -6.0 50.0 50.0" version="1.1" xmlns="http://www.w3.org/2000/svg"><rect x="-1000" y="-1000" width="2000" height="2000" stroke="white" fill="white" /><g style="fill:none;stroke:#000000;stroke-width:1"><path d="M 36.4 -10.5 L 42.3 -10.5 C 44.8 -10.5 45.7 -11.4 45.7 -13.5 L 45.7 -28.1 C 45.7 -30.1 44.8 -31.0 42.3 -31.0 L 36.4 -31.0 C 33.9 -31.0 33.0 -30.1 33.0 -28.1 L 33.0 -13.5 C 33.0 -11.4 33.9 -10.5 36.4 -10.5 Z " transform="translate(0.0 38.0)" stroke-dasharray="61.93460956048691" stroke-dashoffset="61.93460956048691"><animate attributeName="stroke-dashoffset" from="61.93460956048691" to="0" dur="1.8580382868146073s" begin="0s; 15s; 30s; 45s" fill="freeze" id="anim0" /></path><path d="M 2.6 -10.1 C 5.3 -14.4 7.5 -20.4 8.7 -26.2 " transform="translate(0.0 38.0)" stroke-dasharray="17.30043878029177" stroke-dashoffset="17.30043878029177"><animate attributeName="stroke-dashoffset" from="17.30043878029177" to="0" dur="0.5190131634087531s" begin="anim0.end" fill="freeze" id="anim1" /></path><path d="M 9.8 2.8 L 9.8 -40.5 " transform="translate(0.0 38.0)" stroke-dasharray="43.3" stroke-dashoffset="43.3"><animate attributeName="stroke-dashoffset" from="43.3" to="0" dur="1.299s" begin="anim1.end" fill="freeze" id="anim2" /></path><path d="M 22.9 2.5 L 22.9 -20.1 " transform="translate(0.0 38.0)" stroke-dasharray="22.6" stroke-dashoffset="22.6"><animate attributeName="stroke-dashoffset" from="22.6" to="0" dur="0.678s" begin="anim2.end" fill="freeze" id="anim3" /></path><path d="M 15.1 -18.4 C 13.8 -20.1 12.2 -21.9 10.4 -23.3 " transform="translate(0.0 38.0)" stroke-dasharray="6.807953169869123" stroke-dashoffset="6.807953169869123"><animate attributeName="stroke-dashoffset" from="6.807953169869123" to="0" dur="0.20423859509607367s" begin="anim3.end" fill="freeze" id="anim4" /></path><path d="M 14.3 -29.2 L 3.1 -29.2 " transform="translate(0.0 38.0)" stroke-dasharray="11.200000000000001" stroke-dashoffset="11.200000000000001"><animate attributeName="stroke-dashoffset" from="11.200000000000001" to="0" dur="0.336s" begin="anim4.end" fill="freeze" id="anim5" /></path><path d="M 28.4 -15.1 C 27.0 -16.4 25.3 -17.8 23.6 -18.9 " transform="translate(0.0 38.0)" stroke-dasharray="6.129457337425841" stroke-dashoffset="6.129457337425841"><animate attributeName="stroke-dashoffset" from="6.129457337425841" to="0" dur="0.18388372012277523s" begin="anim5.end" fill="freeze" id="anim6" /></path><path d="M 16.9 -13.0 C 21.9 -17.6 25.4 -23.6 27.3 -28.9 C 27.9 -30.6 27.3 -31.7 25.4 -31.7 L 17.6 -31.7 " transform="translate(0.0 38.0)" stroke-dasharray="31.209004025353167" stroke-dashoffset="31.209004025353167"><animate attributeName="stroke-dashoffset" from="31.209004025353167" to="0" dur="0.936270120760595s" begin="anim6.end" fill="freeze" id="anim7" /></path><path d="M 39.3 2.4 L 39.3 -40.5 " transform="translate(0.0 38.0)" stroke-dasharray="42.9" stroke-dashoffset="42.9"><animate attributeName="stroke-dashoffset" from="42.9" to="0" dur="1.287s" begin="anim7.end" fill="freeze" id="anim8" /></path><path d="M 22.9 -31.5 L 22.9 -40.4 " transform="translate(0.0 38.0)" stroke-dasharray="8.899999999999999" stroke-dashoffset="8.899999999999999"><animate attributeName="stroke-dashoffset" from="8.899999999999999" to="0" dur="0.26699999999999996s" begin="anim8.end" fill="freeze" id="anim9" /></path><path d="M 45.2 -21.1 L 33.0 -21.1" transform="translate(0.0 38.0)" stroke-dasharray="12.200000000000003" stroke-dashoffset="12.200000000000003"><animate attributeName="stroke-dashoffset" from="12.200000000000003" to="0" dur="0.36600000000000005s" begin="anim9.end" fill="freeze" id="anim_end" /></path></g></svg>