<?xml version='1.0' encoding='utf-8'?>
<svg viewBox="0.0 -6.0 50.0 50.0" version="1.1" xmlns="http://www.w3.org/2000/svg"><rect x="-1000" y="-1000" width="2000" height="2000" stroke="white" fill="white" /><g style="fill:none;stroke:#000000;stroke-width:1"><path d="M 47.0 -6.0 C 46.2 -0.9 44.6 0.6 42.5 0.6 C 40.0 0.6 36.9 -2.5 33.6 -12.1 C 31.6 -18.0 30.6 -27.7 30.6 -40.9 " transform="translate(0.0 38.0)" stroke-dasharray="54.03078101574845" stroke-dashoffset="54.03078101574845"><animate attributeName="stroke-dashoffset" from="54.03078101574845" to="0" dur="1.6209234304724536s" begin="0s; anim_end.end" fill="freeze" id="anim0" /></path><path d="M 5.7 0.2 C 9.8 -4.2 11.9 -9.8 11.9 -20.4 L 11.9 -26.3 " transform="translate(0.0 38.0)" stroke-dasharray="27.975865574677545" stroke-dashoffset="27.975865574677545"><animate attributeName="stroke-dashoffset" from="27.975865574677545" to="0" dur="0.8392759672403264s" begin="anim0.end" fill="freeze" id="anim1" /></path><path d="M 26.3 -17.5 L 5.1 -17.5 " transform="translate(0.0 38.0)" stroke-dasharray="21.200000000000003" stroke-dashoffset="21.200000000000003"><animate attributeName="stroke-dashoffset" from="21.200000000000003" to="0" dur="0.636s" begin="anim1.end" fill="freeze" id="anim2" /></path><path d="M 20.4 -6.5 L 20.4 -26.4 " transform="translate(0.0 38.0)" stroke-dasharray="19.9" stroke-dashoffset="19.9"><animate attributeName="stroke-dashoffset" from="19.9" to="0" dur="0.597s" begin="anim2.end" fill="freeze" id="anim3" /></path><path d="M 19.7 1.6 C 29.4 -3.0 38.0 -12.9 42.5 -24.1 " transform="translate(0.0 38.0)" stroke-dasharray="35.11215039403669" stroke-dashoffset="35.11215039403669"><animate attributeName="stroke-dashoffset" from="35.11215039403669" to="0" dur="1.0533645118211006s" begin="anim3.end" fill="freeze" id="anim4" /></path><path d="M 45.4 -32.1 L 5.0 -32.1 " transform="translate(0.0 38.0)" stroke-dasharray="40.4" stroke-dashoffset="40.4"><animate attributeName="stroke-dashoffset" from="40.4" to="0" dur="1.212s" begin="anim4.end" fill="freeze" id="anim5" /></path><path d="M 40.4 -36.9 C 39.4 -38.0 37.9 -39.2 36.8 -40.0" transform="translate(0.0 38.0)" stroke-dasharray="4.75803360916321" stroke-dashoffset="4.75803360916321"><animate attributeName="stroke-dashoffset" from="4.75803360916321" to="0" dur="0.1427410082748963s" begin="anim5.end" fill="freeze" id="anim_end" /></path></g></svg>