<?xml version='1.0' encoding='utf-8'?>
<svg viewBox="0.0 -6.0 50.0 50.0" version="1.1" xmlns="http://www.w3.org/2000/svg"><rect x="-1000" y="-1000" width="2000" height="2000" stroke="white" fill="white" /><g style="fill:none;stroke:#000000;stroke-width:1"><path d="M 39.9 -5.5 C 40.6 -5.3 41.1 -5.2 41.7 -5.2 C 43.6 -5.2 44.5 -5.9 44.5 -8.2 L 44.5 -26.6 C 44.5 -28.6 43.7 -29.6 41.1 -29.6 L 30.8 -29.6 C 28.1 -29.6 27.3 -28.6 27.3 -26.6 L 27.3 -5.3 " transform="translate(0.0 38.0)" stroke-dasharray="67.26241330172296" stroke-dashoffset="67.26241330172296"><animate attributeName="stroke-dashoffset" from="67.26241330172296" to="0" dur="2.0178723990516887s" begin="0s; 15s; 30s; 45s" fill="freeze" id="anim0" /></path><path d="M 15.1 1.4 C 16.9 -0.1 19.0 -2.0 20.6 -3.9 " transform="translate(0.0 38.0)" stroke-dasharray="7.647402760610601" stroke-dashoffset="7.647402760610601"><animate attributeName="stroke-dashoffset" from="7.647402760610601" to="0" dur="0.22942208281831802s" begin="anim0.end" fill="freeze" id="anim1" /></path><path d="M 2.5 -10.2 C 5.1 -14.5 7.2 -20.4 8.4 -26.2 " transform="translate(0.0 38.0)" stroke-dasharray="17.128821566786318" stroke-dashoffset="17.128821566786318"><animate attributeName="stroke-dashoffset" from="17.128821566786318" to="0" dur="0.5138646470035895s" begin="anim1.end" fill="freeze" id="anim2" /></path><path d="M 20.7 -4.0 L 20.7 -12.4 C 20.7 -14.4 20.0 -15.1 17.9 -15.1 L 15.1 -15.1 " transform="translate(0.0 38.0)" stroke-dasharray="15.770708202064501" stroke-dashoffset="15.770708202064501"><animate attributeName="stroke-dashoffset" from="15.770708202064501" to="0" dur="0.473121246061935s" begin="anim2.end" fill="freeze" id="anim3" /></path><path d="M 9.4 3.0 L 9.4 -40.5 " transform="translate(0.0 38.0)" stroke-dasharray="43.5" stroke-dashoffset="43.5"><animate attributeName="stroke-dashoffset" from="43.5" to="0" dur="1.305s" begin="anim3.end" fill="freeze" id="anim4" /></path><path d="M 14.9 -19.8 C 13.6 -21.4 11.8 -23.1 9.7 -24.5 " transform="translate(0.0 38.0)" stroke-dasharray="7.0346742570484855" stroke-dashoffset="7.0346742570484855"><animate attributeName="stroke-dashoffset" from="7.0346742570484855" to="0" dur="0.21104022771145456s" begin="anim4.end" fill="freeze" id="anim5" /></path><path d="M 46.8 0.3 C 43.7 0.6 40.4 0.7 36.8 0.7 C 27.5 0.7 23.4 -1.1 20.6 -4.9 " transform="translate(0.0 38.0)" stroke-dasharray="27.866090826875457" stroke-dashoffset="27.866090826875457"><animate attributeName="stroke-dashoffset" from="27.866090826875457" to="0" dur="0.8359827248062637s" begin="anim5.end" fill="freeze" id="anim6" /></path><path d="M 14.3 -29.6 L 3.0 -29.6 " transform="translate(0.0 38.0)" stroke-dasharray="11.3" stroke-dashoffset="11.3"><animate attributeName="stroke-dashoffset" from="11.3" to="0" dur="0.339s" begin="anim6.end" fill="freeze" id="anim7" /></path><path d="M 44.2 -15.1 L 27.4 -15.1 " transform="translate(0.0 38.0)" stroke-dasharray="16.800000000000004" stroke-dashoffset="16.800000000000004"><animate attributeName="stroke-dashoffset" from="16.800000000000004" to="0" dur="0.5040000000000001s" begin="anim7.end" fill="freeze" id="anim8" /></path><path d="M 35.8 -6.1 L 35.8 -29.2 " transform="translate(0.0 38.0)" stroke-dasharray="23.1" stroke-dashoffset="23.1"><animate attributeName="stroke-dashoffset" from="23.1" to="0" dur="0.6930000000000001s" begin="anim8.end" fill="freeze" id="anim9" /></path><path d="M 21.4 -32.0 C 20.1 -33.6 18.6 -35.2 17.2 -36.4 " transform="translate(0.0 38.0)" stroke-dasharray="6.09041670088989" stroke-dashoffset="6.09041670088989"><animate attributeName="stroke-dashoffset" from="6.09041670088989" to="0" dur="0.1827125010266967s" begin="anim9.end" fill="freeze" id="anim10" /></path><path d="M 44.2 -22.4 L 27.4 -22.4 " transform="translate(0.0 38.0)" stroke-dasharray="16.800000000000004" stroke-dashoffset="16.800000000000004"><animate attributeName="stroke-dashoffset" from="16.800000000000004" to="0" dur="0.5040000000000001s" begin="anim10.end" fill="freeze" id="anim11" /></path><path d="M 37.1 -30.6 C 35.5 -32.2 33.5 -33.9 32.0 -34.8 " transform="translate(0.0 38.0)" stroke-dasharray="6.620535061870633" stroke-dashoffset="6.620535061870633"><animate attributeName="stroke-dashoffset" from="6.620535061870633" to="0" dur="0.198616051856119s" begin="anim11.end" fill="freeze" id="anim12" /></path><path d="M 36.0 -31.9 C 38.0 -33.0 40.1 -34.5 41.6 -35.8 C 43.3 -37.4 42.5 -38.8 40.3 -38.8 L 26.4 -38.8" transform="translate(0.0 38.0)" stroke-dasharray="25.55386019868662" stroke-dashoffset="25.55386019868662"><animate attributeName="stroke-dashoffset" from="25.55386019868662" to="0" dur="0.7666158059605986s" begin="anim12.end" fill="freeze" id="anim_end" /></path></g></svg>