<?xml version='1.0' encoding='utf-8'?>
<svg viewBox="0.0 -6.0 50.0 50.0" version="1.1" xmlns="http://www.w3.org/2000/svg"><rect x="-1000" y="-1000" width="2000" height="2000" stroke="white" fill="white" /><g style="fill:none;stroke:#000000;stroke-width:1"><path d="M 4.3 1.6 C 5.2 1.8 6.0 1.9 6.5 1.9 C 8.6 1.9 9.6 1.0 9.6 -1.4 L 9.6 -40.4 " transform="translate(0.0 38.0)" stroke-dasharray="46.475076533637754" stroke-dashoffset="46.475076533637754"><animate attributeName="stroke-dashoffset" from="46.475076533637754" to="0" dur="1.3942522960091326s" begin="0s; anim_end.end" fill="freeze" id="anim0" /></path><path d="M 3.5 -13.4 C 7.5 -14.6 11.3 -15.9 14.4 -17.5 " transform="translate(0.0 38.0)" stroke-dasharray="11.661635005983964" stroke-dashoffset="11.661635005983964"><animate attributeName="stroke-dashoffset" from="11.661635005983964" to="0" dur="0.3498490501795189s" begin="anim0.end" fill="freeze" id="anim1" /></path><path d="M 28.4 -5.1 L 19.3 -5.1 " transform="translate(0.0 38.0)" stroke-dasharray="9.099999999999998" stroke-dashoffset="9.099999999999998"><animate attributeName="stroke-dashoffset" from="9.099999999999998" to="0" dur="0.2729999999999999s" begin="anim1.end" fill="freeze" id="anim2" /></path><path d="M 23.9 1.6 C 24.6 1.8 25.1 1.8 25.9 1.8 C 27.6 1.8 28.6 1.1 28.6 -0.9 L 28.6 -13.4 C 28.6 -15.3 27.9 -15.9 25.8 -15.9 L 21.9 -15.9 C 19.8 -15.9 19.1 -15.3 19.1 -13.4 L 19.1 2.4 " transform="translate(0.0 38.0)" stroke-dasharray="47.46524130617202" stroke-dashoffset="47.46524130617202"><animate attributeName="stroke-dashoffset" from="47.46524130617202" to="0" dur="1.4239572391851605s" begin="anim2.end" fill="freeze" id="anim3" /></path><path d="M 28.4 -10.4 L 19.3 -10.4 " transform="translate(0.0 38.0)" stroke-dasharray="9.099999999999998" stroke-dashoffset="9.099999999999998"><animate attributeName="stroke-dashoffset" from="9.099999999999998" to="0" dur="0.2729999999999999s" begin="anim3.end" fill="freeze" id="anim4" /></path><path d="M 14.2 -29.3 L 3.8 -29.3 " transform="translate(0.0 38.0)" stroke-dasharray="10.399999999999999" stroke-dashoffset="10.399999999999999"><animate attributeName="stroke-dashoffset" from="10.399999999999999" to="0" dur="0.31199999999999994s" begin="anim4.end" fill="freeze" id="anim5" /></path><path d="M 17.2 -20.7 C 21.6 -20.9 25.1 -21.2 29.1 -21.9 " transform="translate(0.0 38.0)" stroke-dasharray="11.969290310636115" stroke-dashoffset="11.969290310636115"><animate attributeName="stroke-dashoffset" from="11.969290310636115" to="0" dur="0.3590787093190834s" begin="anim5.end" fill="freeze" id="anim6" /></path><path d="M 46.1 -3.0 C 45.7 0.2 44.5 1.1 39.7 1.1 C 36.0 1.1 35.0 0.6 35.0 -1.3 L 35.0 -11.1 " transform="translate(0.0 38.0)" stroke-dasharray="24.584318704085522" stroke-dashoffset="24.584318704085522"><animate attributeName="stroke-dashoffset" from="24.584318704085522" to="0" dur="0.7375295611225656s" begin="anim6.end" fill="freeze" id="anim7" /></path><path d="M 19.0 -20.6 C 20.3 -23.1 21.1 -25.1 22.1 -27.6 " transform="translate(0.0 38.0)" stroke-dasharray="7.659452436588942" stroke-dashoffset="7.659452436588942"><animate attributeName="stroke-dashoffset" from="7.659452436588942" to="0" dur="0.22978357309766825s" begin="anim7.end" fill="freeze" id="anim8" /></path><path d="M 35.5 -5.3 C 38.6 -6.5 41.1 -7.8 43.5 -9.6 " transform="translate(0.0 38.0)" stroke-dasharray="9.112575009657153" stroke-dashoffset="9.112575009657153"><animate attributeName="stroke-dashoffset" from="9.112575009657153" to="0" dur="0.2733772502897146s" begin="anim8.end" fill="freeze" id="anim9" /></path><path d="M 29.6 -20.4 C 28.6 -22.2 27.6 -23.6 26.4 -25.0 " transform="translate(0.0 38.0)" stroke-dasharray="5.613724594597998" stroke-dashoffset="5.613724594597998"><animate attributeName="stroke-dashoffset" from="5.613724594597998" to="0" dur="0.16841173783793992s" begin="anim9.end" fill="freeze" id="anim10" /></path><path d="M 45.6 -20.2 C 45.3 -16.9 44.0 -16.0 39.5 -16.0 C 36.0 -16.0 35.0 -16.6 35.0 -18.4 L 35.0 -27.2 " transform="translate(0.0 38.0)" stroke-dasharray="23.198099446000057" stroke-dashoffset="23.198099446000057"><animate attributeName="stroke-dashoffset" from="23.198099446000057" to="0" dur="0.6959429833800017s" begin="anim10.end" fill="freeze" id="anim11" /></path><path d="M 26.9 -31.9 L 26.9 -39.5 " transform="translate(0.0 38.0)" stroke-dasharray="7.600000000000001" stroke-dashoffset="7.600000000000001"><animate attributeName="stroke-dashoffset" from="7.600000000000001" to="0" dur="0.22800000000000004s" begin="anim11.end" fill="freeze" id="anim12" /></path><path d="M 35.0 -21.4 C 38.0 -22.4 40.6 -23.6 43.2 -25.2 " transform="translate(0.0 38.0)" stroke-dasharray="9.058526819690229" stroke-dashoffset="9.058526819690229"><animate attributeName="stroke-dashoffset" from="9.058526819690229" to="0" dur="0.27175580459070686s" begin="anim12.end" fill="freeze" id="anim13" /></path><path d="M 44.2 -33.9 L 44.2 -36.8 C 44.2 -38.5 43.5 -39.4 41.0 -39.4 L 21.9 -39.4 C 19.4 -39.4 18.6 -38.5 18.6 -36.8 L 18.6 -33.9 C 18.6 -32.2 19.4 -31.3 21.9 -31.3 L 41.0 -31.3 C 43.5 -31.3 44.2 -32.2 44.2 -33.9 Z " transform="translate(0.0 38.0)" stroke-dasharray="63.29911888197449" stroke-dashoffset="63.29911888197449"><animate attributeName="stroke-dashoffset" from="63.29911888197449" to="0" dur="1.8989735664592347s" begin="anim13.end" fill="freeze" id="anim14" /></path><path d="M 35.2 -31.9 L 35.2 -39.5" transform="translate(0.0 38.0)" stroke-dasharray="7.600000000000001" stroke-dashoffset="7.600000000000001"><animate attributeName="stroke-dashoffset" from="7.600000000000001" to="0" dur="0.22800000000000004s" begin="anim14.end" fill="freeze" id="anim_end" /></path></g></svg>