<?xml version='1.0' encoding='utf-8'?>
<svg viewBox="0.0 -6.0 50.0 50.0" version="1.1" xmlns="http://www.w3.org/2000/svg"><rect x="-1000" y="-1000" width="2000" height="2000" stroke="white" fill="white" /><g style="fill:none;stroke:#000000;stroke-width:1"><path d="M 26.6 -25.6 L 38.1 -25.6 C 41.1 -25.6 42.0 -26.6 42.0 -28.8 L 42.0 -35.6 C 42.0 -37.8 41.1 -38.9 38.1 -38.9 L 26.6 -38.9 C 23.6 -38.9 22.6 -37.8 22.6 -35.6 L 22.6 -28.8 C 22.6 -26.6 23.6 -25.6 26.6 -25.6 Z " transform="translate(0.0 38.0)" stroke-dasharray="60.3829219261881" stroke-dashoffset="60.3829219261881"><animate attributeName="stroke-dashoffset" from="60.3829219261881" to="0" dur="1.811487657785643s" begin="0s" fill="freeze" /></path><path d="M 2.7 -10.0 C 5.5 -14.3 7.8 -20.4 8.9 -26.3 " transform="translate(0.0 38.0)" stroke-dasharray="17.5418666739681" stroke-dashoffset="17.5418666739681"><animate attributeName="stroke-dashoffset" from="17.5418666739681" to="0" dur="0.5262560002190431s" begin="1.811487657785643s" fill="freeze" /></path><path d="M 17.8 -1.0 C 22.2 -3.9 26.1 -7.5 29.4 -11.9 " transform="translate(0.0 38.0)" stroke-dasharray="15.997577229651734" stroke-dashoffset="15.997577229651734"><animate attributeName="stroke-dashoffset" from="15.997577229651734" to="0" dur="0.479927316889552s" begin="2.337743658004686s" fill="freeze" /></path><path d="M 10.1 2.9 L 10.1 -40.4 " transform="translate(0.0 38.0)" stroke-dasharray="43.3" stroke-dashoffset="43.3"><animate attributeName="stroke-dashoffset" from="43.3" to="0" dur="1.299s" begin="2.817670974894238s" fill="freeze" /></path><path d="M 15.3 -17.4 C 14.1 -19.1 12.3 -20.9 10.4 -22.4 " transform="translate(0.0 38.0)" stroke-dasharray="7.023150880875101" stroke-dashoffset="7.023150880875101"><animate attributeName="stroke-dashoffset" from="7.023150880875101" to="0" dur="0.21069452642625303s" begin="4.116670974894237s" fill="freeze" /></path><path d="M 24.2 1.4 C 25.1 1.5 25.8 1.6 26.6 1.6 C 28.6 1.6 29.4 0.8 29.4 -1.4 L 29.4 -16.1 C 29.4 -18.2 28.4 -19.1 26.1 -19.1 L 19.6 -19.1 " transform="translate(0.0 38.0)" stroke-dasharray="33.56293735183629" stroke-dashoffset="33.56293735183629"><animate attributeName="stroke-dashoffset" from="33.56293735183629" to="0" dur="1.0068881205550886s" begin="4.32736550132049s" fill="freeze" /></path><path d="M 17.9 -9.6 C 21.1 -11.6 24.8 -14.9 27.1 -18.2 " transform="translate(0.0 38.0)" stroke-dasharray="12.669051497548041" stroke-dashoffset="12.669051497548041"><animate attributeName="stroke-dashoffset" from="12.669051497548041" to="0" dur="0.38007154492644124s" begin="5.334253621875579s" fill="freeze" /></path><path d="M 15.4 -29.2 L 3.0 -29.2 " transform="translate(0.0 38.0)" stroke-dasharray="12.4" stroke-dashoffset="12.4"><animate attributeName="stroke-dashoffset" from="12.4" to="0" dur="0.372s" begin="5.71432516680202s" fill="freeze" /></path><path d="M 34.5 -3.2 C 37.8 -5.2 41.5 -8.7 44.2 -12.2 " transform="translate(0.0 38.0)" stroke-dasharray="13.29872665706527" stroke-dashoffset="13.29872665706527"><animate attributeName="stroke-dashoffset" from="13.29872665706527" to="0" dur="0.3989617997119581s" begin="6.08632516680202s" fill="freeze" /></path><path d="M 39.5 1.4 C 40.3 1.5 41.0 1.6 41.8 1.6 C 43.9 1.6 44.8 0.8 44.8 -1.4 L 44.8 -16.1 C 44.8 -18.2 43.8 -19.1 41.4 -19.1 L 34.5 -19.1 " transform="translate(0.0 38.0)" stroke-dasharray="34.107636101203234" stroke-dashoffset="34.107636101203234"><animate attributeName="stroke-dashoffset" from="34.107636101203234" to="0" dur="1.023229083036097s" begin="6.485286966513978s" fill="freeze" /></path><path d="M 34.5 -10.9 C 37.0 -12.6 40.0 -15.4 42.0 -18.1 " transform="translate(0.0 38.0)" stroke-dasharray="10.439250188655365" stroke-dashoffset="10.439250188655365"><animate attributeName="stroke-dashoffset" from="10.439250188655365" to="0" dur="0.3131775056596609s" begin="7.5085160495500745s" fill="freeze" /></path><path d="M 42.1 -32.3 L 22.7 -32.3" transform="translate(0.0 38.0)" stroke-dasharray="19.400000000000002" stroke-dashoffset="19.400000000000002"><animate attributeName="stroke-dashoffset" from="19.400000000000002" to="0" dur="0.5820000000000001s" begin="7.821693555209736s" fill="freeze" /></path></g></svg>