<?xml version='1.0' encoding='utf-8'?>
<svg viewBox="0.0 -6.0 50.0 50.0" version="1.1" xmlns="http://www.w3.org/2000/svg"><rect x="-1000" y="-1000" width="2000" height="2000" stroke="white" fill="white" /><g style="fill:none;stroke:#000000;stroke-width:1"><path d="M 35.7 0.7 C 36.6 0.9 37.6 1.1 38.6 1.1 C 41.2 1.1 43.0 -0.5 43.6 -4.6 C 44.5 -10.7 44.9 -20.1 44.9 -28.6 C 44.9 -31.1 44.0 -32.4 40.5 -32.4 L 23.2 -32.4 " transform="translate(0.0 38.0)" stroke-dasharray="59.47906144838355" stroke-dashoffset="59.47906144838355"><animate attributeName="stroke-dashoffset" from="59.47906144838355" to="0" dur="1.7843718434515063s" begin="0s" fill="freeze" /></path><path d="M 9.1 2.4 L 9.1 -40.5 " transform="translate(0.0 38.0)" stroke-dasharray="42.9" stroke-dashoffset="42.9"><animate attributeName="stroke-dashoffset" from="42.9" to="0" dur="1.287s" begin="1.7843718434515063s" fill="freeze" /></path><path d="M 3.0 -23.1 C 3.6 -24.7 4.2 -27.6 4.5 -29.9 " transform="translate(0.0 38.0)" stroke-dasharray="6.975039297265854" stroke-dashoffset="6.975039297265854"><animate attributeName="stroke-dashoffset" from="6.975039297265854" to="0" dur="0.20925117891797562s" begin="3.071371843451506s" fill="freeze" /></path><path d="M 14.9 -27.1 C 14.6 -28.4 13.8 -30.2 13.2 -31.3 " transform="translate(0.0 38.0)" stroke-dasharray="4.542190960717608" stroke-dashoffset="4.542190960717608"><animate attributeName="stroke-dashoffset" from="4.542190960717608" to="0" dur="0.13626572882152824s" begin="3.2806230223694817s" fill="freeze" /></path><path d="M 21.6 -21.1 L 21.6 -9.9 C 21.6 -7.8 22.4 -7.0 24.9 -7.0 L 33.9 -7.0 C 36.4 -7.0 37.2 -7.8 37.2 -9.9 L 37.2 -21.9 " transform="translate(0.0 38.0)" stroke-dasharray="42.497810772752366" stroke-dashoffset="42.497810772752366"><animate attributeName="stroke-dashoffset" from="42.497810772752366" to="0" dur="1.274934323182571s" begin="3.41688875119101s" fill="freeze" /></path><path d="M 33.2 -14.6 C 31.2 -17.6 28.1 -21.1 25.6 -23.2 " transform="translate(0.0 38.0)" stroke-dasharray="11.509162711864946" stroke-dashoffset="11.509162711864946"><animate attributeName="stroke-dashoffset" from="11.509162711864946" to="0" dur="0.34527488135594836s" begin="4.6918230743735805s" fill="freeze" /></path><path d="M 25.8 -11.9 C 28.9 -15.9 31.4 -21.6 32.8 -26.9 " transform="translate(0.0 38.0)" stroke-dasharray="16.6546353346422" stroke-dashoffset="16.6546353346422"><animate attributeName="stroke-dashoffset" from="16.6546353346422" to="0" dur="0.499639060039266s" begin="5.037097955729529s" fill="freeze" /></path><path d="M 18.2 -24.4 C 21.3 -28.4 24.5 -34.7 26.1 -39.9" transform="translate(0.0 38.0)" stroke-dasharray="17.476775350239986" stroke-dashoffset="17.476775350239986"><animate attributeName="stroke-dashoffset" from="17.476775350239986" to="0" dur="0.5243032605071996s" begin="5.536737015768795s" fill="freeze" /></path></g></svg>