<?xml version='1.0' encoding='utf-8'?>
<svg viewBox="0.0 -6.0 50.0 50.0" version="1.1" xmlns="http://www.w3.org/2000/svg"><rect x="-1000" y="-1000" width="2000" height="2000" stroke="white" fill="white" /><g style="fill:none;stroke:#000000;stroke-width:1"><path d="M 42.3 -16.0 L 42.3 -23.2 C 42.3 -25.5 41.2 -26.4 38.4 -26.4 L 24.9 -26.4 C 22.0 -26.4 20.9 -25.5 20.9 -23.2 L 20.9 -16.0 C 20.9 -13.7 22.0 -12.8 24.9 -12.8 L 38.4 -12.8 C 41.2 -12.8 42.3 -13.7 42.3 -16.0 Z " transform="translate(0.0 38.0)" stroke-dasharray="65.03031143399024" stroke-dashoffset="65.03031143399024"><animate attributeName="stroke-dashoffset" from="65.03031143399024" to="0" dur="1.950909343019707s" begin="0s" fill="freeze" /></path><path d="M 9.4 2.4 L 9.4 -40.4 " transform="translate(0.0 38.0)" stroke-dasharray="42.8" stroke-dashoffset="42.8"><animate attributeName="stroke-dashoffset" from="42.8" to="0" dur="1.2839999999999998s" begin="1.950909343019707s" fill="freeze" /></path><path d="M 3.1 -22.4 C 3.8 -24.1 4.4 -26.9 4.7 -29.4 " transform="translate(0.0 38.0)" stroke-dasharray="7.198522233494235" stroke-dashoffset="7.198522233494235"><animate attributeName="stroke-dashoffset" from="7.198522233494235" to="0" dur="0.21595566700482705s" begin="3.234909343019707s" fill="freeze" /></path><path d="M 46.1 -6.0 L 16.2 -6.0 " transform="translate(0.0 38.0)" stroke-dasharray="29.900000000000002" stroke-dashoffset="29.900000000000002"><animate attributeName="stroke-dashoffset" from="29.900000000000002" to="0" dur="0.897s" begin="3.450865010024534s" fill="freeze" /></path><path d="M 31.4 2.4 L 31.4 -26.1 " transform="translate(0.0 38.0)" stroke-dasharray="28.5" stroke-dashoffset="28.5"><animate attributeName="stroke-dashoffset" from="28.5" to="0" dur="0.855s" begin="4.347865010024534s" fill="freeze" /></path><path d="M 15.4 -26.0 C 15.1 -27.4 14.3 -29.2 13.7 -30.2 " transform="translate(0.0 38.0)" stroke-dasharray="4.54727208924896" stroke-dashoffset="4.54727208924896"><animate attributeName="stroke-dashoffset" from="4.54727208924896" to="0" dur="0.13641816267746878s" begin="5.202865010024533s" fill="freeze" /></path><path d="M 41.4 -19.8 L 21.4 -19.8 " transform="translate(0.0 38.0)" stroke-dasharray="20.0" stroke-dashoffset="20.0"><animate attributeName="stroke-dashoffset" from="20.0" to="0" dur="0.6s" begin="5.339283172702002s" fill="freeze" /></path><path d="M 28.2 -34.3 L 28.2 -36.8 C 28.2 -38.5 27.4 -39.3 25.6 -39.3 L 21.8 -39.3 C 19.9 -39.3 19.1 -38.5 19.1 -36.8 L 19.1 -34.3 C 19.1 -32.5 19.9 -31.7 21.8 -31.7 L 25.6 -31.7 C 27.4 -31.7 28.2 -32.5 28.2 -34.3 Z " transform="translate(0.0 38.0)" stroke-dasharray="29.61132554476978" stroke-dashoffset="29.61132554476978"><animate attributeName="stroke-dashoffset" from="29.61132554476978" to="0" dur="0.8883397663430934s" begin="5.939283172702002s" fill="freeze" /></path><path d="M 34.6 -36.8 L 34.6 -34.3 C 34.6 -32.5 35.5 -31.7 37.3 -31.7 L 41.2 -31.7 C 43.1 -31.7 44.0 -32.5 44.0 -34.3 L 44.0 -36.8 C 44.0 -38.5 43.1 -39.3 41.2 -39.3 L 37.3 -39.3 C 35.5 -39.3 34.6 -38.5 34.6 -36.8 Z" transform="translate(0.0 38.0)" stroke-dasharray="30.076676544174113" stroke-dashoffset="30.076676544174113"><animate attributeName="stroke-dashoffset" from="30.076676544174113" to="0" dur="0.9023002963252233s" begin="6.827622939045095s" fill="freeze" /></path></g></svg>