<?xml version='1.0' encoding='utf-8'?>
<svg viewBox="0.0 -6.0 50.0 50.0" version="1.1" xmlns="http://www.w3.org/2000/svg"><rect x="-1000" y="-1000" width="2000" height="2000" stroke="white" fill="white" /><g style="fill:none;stroke:#000000;stroke-width:1"><path d="M 16.1 1.6 C 25.7 -1.6 34.6 -8.2 38.5 -15.5 C 39.8 -17.9 38.6 -19.0 36.4 -19.0 L 18.7 -19.0 " transform="translate(0.0 38.0)" stroke-dasharray="51.90578284663077" stroke-dashoffset="51.90578284663077"><animate attributeName="stroke-dashoffset" from="51.90578284663077" to="0" dur="1.557173485398923s" begin="0s" fill="freeze" /></path><path d="M 5.9 0.3 C 8.2 -3.1 10.8 -8.4 12.2 -12.8 " transform="translate(0.0 38.0)" stroke-dasharray="14.577943560051143" stroke-dashoffset="14.577943560051143"><animate attributeName="stroke-dashoffset" from="14.577943560051143" to="0" dur="0.43733830680153424s" begin="1.557173485398923s" fill="freeze" /></path><path d="M 9.2 -23.1 C 7.9 -24.5 5.9 -26.1 4.6 -26.9 " transform="translate(0.0 38.0)" stroke-dasharray="5.980905689262241" stroke-dashoffset="5.980905689262241"><animate attributeName="stroke-dashoffset" from="5.980905689262241" to="0" dur="0.17942717067786723s" begin="1.9945117922004572s" fill="freeze" /></path><path d="M 44.4 0.6 C 35.5 -2.6 27.4 -9.1 23.2 -18.4 " transform="translate(0.0 38.0)" stroke-dasharray="29.241968098715937" stroke-dashoffset="29.241968098715937"><animate attributeName="stroke-dashoffset" from="29.241968098715937" to="0" dur="0.877259042961478s" begin="2.1739389628783243s" fill="freeze" /></path><path d="M 12.8 -34.9 C 11.5 -36.2 9.8 -37.8 8.5 -38.8 " transform="translate(0.0 38.0)" stroke-dasharray="5.808612009264155" stroke-dashoffset="5.808612009264155"><animate attributeName="stroke-dashoffset" from="5.808612009264155" to="0" dur="0.17425836027792463s" begin="3.0511980058398023s" fill="freeze" /></path><path d="M 19.2 -23.6 C 23.0 -26.3 24.9 -30.2 24.9 -34.8 L 24.9 -35.9 C 24.9 -37.6 25.6 -38.6 28.1 -38.6 L 32.5 -38.6 C 35.0 -38.6 35.7 -37.6 35.7 -35.9 L 35.7 -28.4 C 35.7 -26.4 36.4 -25.5 39.9 -25.5 C 43.8 -25.5 44.8 -26.6 45.1 -30.1" transform="translate(0.0 38.0)" stroke-dasharray="49.838208119400534" stroke-dashoffset="49.838208119400534"><animate attributeName="stroke-dashoffset" from="49.838208119400534" to="0" dur="1.495146243582016s" begin="3.2254563661177267s" fill="freeze" /></path></g></svg>