<?xml version='1.0' encoding='utf-8'?>
<svg viewBox="0.0 -6.0 50.0 50.0" version="1.1" xmlns="http://www.w3.org/2000/svg"><rect x="-1000" y="-1000" width="2000" height="2000" stroke="white" fill="white" /><g style="fill:none;stroke:#000000;stroke-width:1"><path d="M 4.3 1.6 C 5.2 1.8 6.0 1.9 6.5 1.9 C 8.6 1.9 9.6 1.0 9.6 -1.4 L 9.6 -40.4 " transform="translate(0.0 38.0)" stroke-dasharray="46.475076533637754" stroke-dashoffset="46.475076533637754"><animate attributeName="stroke-dashoffset" from="46.475076533637754" to="0" dur="1.3942522960091326s" begin="0s; 15s; 30s; 45s" fill="freeze" id="anim0" /></path><path d="M 3.5 -13.4 C 7.5 -14.6 11.3 -15.9 14.4 -17.5 " transform="translate(0.0 38.0)" stroke-dasharray="11.661635005983964" stroke-dashoffset="11.661635005983964"><animate attributeName="stroke-dashoffset" from="11.661635005983964" to="0" dur="0.3498490501795189s" begin="anim0.end" fill="freeze" id="anim1" /></path><path d="M 45.6 0.2 L 17.6 0.2 " transform="translate(0.0 38.0)" stroke-dasharray="28.0" stroke-dashoffset="28.0"><animate attributeName="stroke-dashoffset" from="28.0" to="0" dur="0.84s" begin="anim1.end" fill="freeze" id="anim2" /></path><path d="M 14.4 -29.3 L 3.8 -29.3 " transform="translate(0.0 38.0)" stroke-dasharray="10.600000000000001" stroke-dashoffset="10.600000000000001"><animate attributeName="stroke-dashoffset" from="10.600000000000001" to="0" dur="0.318s" begin="anim2.end" fill="freeze" id="anim3" /></path><path d="M 44.9 -9.0 L 19.2 -9.0 " transform="translate(0.0 38.0)" stroke-dasharray="25.7" stroke-dashoffset="25.7"><animate attributeName="stroke-dashoffset" from="25.7" to="0" dur="0.7709999999999999s" begin="anim3.end" fill="freeze" id="anim4" /></path><path d="M 23.6 -8.8 L 23.6 -27.6 " transform="translate(0.0 38.0)" stroke-dasharray="18.8" stroke-dashoffset="18.8"><animate attributeName="stroke-dashoffset" from="18.8" to="0" dur="0.564s" begin="anim4.end" fill="freeze" id="anim5" /></path><path d="M 31.8 0.5 L 31.8 -36.6 " transform="translate(0.0 38.0)" stroke-dasharray="37.1" stroke-dashoffset="37.1"><animate attributeName="stroke-dashoffset" from="37.1" to="0" dur="1.113s" begin="anim5.end" fill="freeze" id="anim6" /></path><path d="M 46.8 -18.8 L 18.2 -18.8 " transform="translate(0.0 38.0)" stroke-dasharray="28.599999999999998" stroke-dashoffset="28.599999999999998"><animate attributeName="stroke-dashoffset" from="28.599999999999998" to="0" dur="0.8579999999999999s" begin="anim6.end" fill="freeze" id="anim7" /></path><path d="M 40.4 -8.8 L 40.4 -27.6 " transform="translate(0.0 38.0)" stroke-dasharray="18.8" stroke-dashoffset="18.8"><animate attributeName="stroke-dashoffset" from="18.8" to="0" dur="0.564s" begin="anim7.end" fill="freeze" id="anim8" /></path><path d="M 44.8 -28.1 L 19.4 -28.1 " transform="translate(0.0 38.0)" stroke-dasharray="25.4" stroke-dashoffset="25.4"><animate attributeName="stroke-dashoffset" from="25.4" to="0" dur="0.7619999999999999s" begin="anim8.end" fill="freeze" id="anim9" /></path><path d="M 21.4 -35.8 C 28.1 -36.2 35.5 -37.4 41.3 -38.9" transform="translate(0.0 38.0)" stroke-dasharray="20.16864329707087" stroke-dashoffset="20.16864329707087"><animate attributeName="stroke-dashoffset" from="20.16864329707087" to="0" dur="0.6050592989121261s" begin="anim9.end" fill="freeze" id="anim_end" /></path></g></svg>