<?xml version='1.0' encoding='utf-8'?>
<svg viewBox="0.0 -6.0 50.0 50.0" version="1.1" xmlns="http://www.w3.org/2000/svg"><rect x="-1000" y="-1000" width="2000" height="2000" stroke="white" fill="white" /><g style="fill:none;stroke:#000000;stroke-width:1"><path d="M 33.1 -0.8 C 35.6 -7.5 38.0 -16.8 39.1 -24.1 " transform="translate(0.0 38.0)" stroke-dasharray="24.096914910179887" stroke-dashoffset="24.096914910179887"><animate attributeName="stroke-dashoffset" from="24.096914910179887" to="0" dur="0.7229074473053966s" begin="0s; 15s; 30s; 45s" fill="freeze" id="anim0" /></path><path d="M 6.2 0.3 C 8.6 -3.1 11.2 -8.4 12.7 -12.9 " transform="translate(0.0 38.0)" stroke-dasharray="14.758112978284684" stroke-dashoffset="14.758112978284684"><animate attributeName="stroke-dashoffset" from="14.758112978284684" to="0" dur="0.4427433893485405s" begin="anim0.end" fill="freeze" id="anim1" /></path><path d="M 46.5 -0.1 L 15.8 -0.1 " transform="translate(0.0 38.0)" stroke-dasharray="30.7" stroke-dashoffset="30.7"><animate attributeName="stroke-dashoffset" from="30.7" to="0" dur="0.9209999999999999s" begin="anim1.end" fill="freeze" id="anim2" /></path><path d="M 9.3 -23.1 C 8.0 -24.6 6.0 -26.1 4.8 -27.0 " transform="translate(0.0 38.0)" stroke-dasharray="5.965654673386671" stroke-dashoffset="5.965654673386671"><animate attributeName="stroke-dashoffset" from="5.965654673386671" to="0" dur="0.1789696402016001s" begin="anim2.end" fill="freeze" id="anim3" /></path><path d="M 26.3 -8.9 C 25.7 -13.7 24.1 -19.1 22.6 -23.1 " transform="translate(0.0 38.0)" stroke-dasharray="14.70476136576133" stroke-dashoffset="14.70476136576133"><animate attributeName="stroke-dashoffset" from="14.70476136576133" to="0" dur="0.4411428409728399s" begin="anim3.end" fill="freeze" id="anim4" /></path><path d="M 12.8 -34.8 C 11.7 -36.2 9.8 -37.9 8.6 -38.8 " transform="translate(0.0 38.0)" stroke-dasharray="5.812998091031105" stroke-dashoffset="5.812998091031105"><animate attributeName="stroke-dashoffset" from="5.812998091031105" to="0" dur="0.17438994273093314s" begin="anim4.end" fill="freeze" id="anim5" /></path><path d="M 45.3 -30.6 L 18.1 -30.6 " transform="translate(0.0 38.0)" stroke-dasharray="27.199999999999996" stroke-dashoffset="27.199999999999996"><animate attributeName="stroke-dashoffset" from="27.199999999999996" to="0" dur="0.8159999999999998s" begin="anim5.end" fill="freeze" id="anim6" /></path><path d="M 31.4 -30.6 L 31.4 -40.0" transform="translate(0.0 38.0)" stroke-dasharray="9.399999999999999" stroke-dashoffset="9.399999999999999"><animate attributeName="stroke-dashoffset" from="9.399999999999999" to="0" dur="0.282s" begin="anim6.end" fill="freeze" id="anim_end" /></path></g></svg>