<?xml version='1.0' encoding='utf-8'?>
<svg viewBox="0.0 -6.0 50.0 50.0" version="1.1" xmlns="http://www.w3.org/2000/svg"><rect x="-1000" y="-1000" width="2000" height="2000" stroke="white" fill="white" /><g style="fill:none;stroke:#000000;stroke-width:1"><path d="M 25.9 1.5 C 26.8 1.6 27.6 1.8 28.4 1.8 C 30.4 1.8 31.4 0.9 31.4 -1.1 L 31.4 -40.6 " transform="translate(0.0 38.0)" stroke-dasharray="46.825215546555604" stroke-dashoffset="46.825215546555604"><animate attributeName="stroke-dashoffset" from="46.825215546555604" to="0" dur="1.404756466396668s" begin="0s" fill="freeze" /></path><path d="M 2.8 -9.8 C 5.6 -14.2 8.0 -20.4 9.2 -26.2 " transform="translate(0.0 38.0)" stroke-dasharray="17.691938281887836" stroke-dashoffset="17.691938281887836"><animate attributeName="stroke-dashoffset" from="17.691938281887836" to="0" dur="0.530758148456635s" begin="1.404756466396668s" fill="freeze" /></path><path d="M 17.5 -2.2 C 20.3 -3.5 23.4 -5.2 26.1 -7.1 " transform="translate(0.0 38.0)" stroke-dasharray="9.910541726346827" stroke-dashoffset="9.910541726346827"><animate attributeName="stroke-dashoffset" from="9.910541726346827" to="0" dur="0.2973162517904048s" begin="1.9355146148533031s" fill="freeze" /></path><path d="M 10.3 2.9 L 10.3 -40.6 " transform="translate(0.0 38.0)" stroke-dasharray="43.5" stroke-dashoffset="43.5"><animate attributeName="stroke-dashoffset" from="43.5" to="0" dur="1.305s" begin="2.232830866643708s" fill="freeze" /></path><path d="M 15.9 -17.2 C 14.7 -18.9 12.9 -20.8 10.9 -22.3 " transform="translate(0.0 38.0)" stroke-dasharray="7.169213758147396" stroke-dashoffset="7.169213758147396"><animate attributeName="stroke-dashoffset" from="7.169213758147396" to="0" dur="0.21507641274442185s" begin="3.5378308666437075s" fill="freeze" /></path><path d="M 25.1 -12.4 C 24.3 -13.4 22.8 -14.7 21.6 -15.5 " transform="translate(0.0 38.0)" stroke-dasharray="4.690165498343362" stroke-dashoffset="4.690165498343362"><animate attributeName="stroke-dashoffset" from="4.690165498343362" to="0" dur="0.14070496495030085s" begin="3.7529072793881295s" fill="freeze" /></path><path d="M 15.4 -29.1 L 3.5 -29.1 " transform="translate(0.0 38.0)" stroke-dasharray="11.9" stroke-dashoffset="11.9"><animate attributeName="stroke-dashoffset" from="11.9" to="0" dur="0.357s" begin="3.8936122443384305s" fill="freeze" /></path><path d="M 45.5 -1.6 C 39.7 -5.4 34.6 -11.5 32.6 -19.1 " transform="translate(0.0 38.0)" stroke-dasharray="22.228484878416147" stroke-dashoffset="22.228484878416147"><animate attributeName="stroke-dashoffset" from="22.228484878416147" to="0" dur="0.6668545463524844s" begin="4.250612244338431s" fill="freeze" /></path><path d="M 37.8 -10.2 C 40.0 -11.7 42.1 -13.6 43.9 -15.4 " transform="translate(0.0 38.0)" stroke-dasharray="8.027029718139552" stroke-dashoffset="8.027029718139552"><animate attributeName="stroke-dashoffset" from="8.027029718139552" to="0" dur="0.24081089154418656s" begin="4.917466790690915s" fill="freeze" /></path><path d="M 22.1 -20.4 L 38.0 -20.4 C 40.6 -20.4 41.6 -21.2 41.6 -23.4 L 41.6 -31.9 C 41.6 -34.0 40.6 -34.8 38.0 -34.8 L 22.1 -34.8 " transform="translate(0.0 38.0)" stroke-dasharray="51.13882693178332" stroke-dashoffset="51.13882693178332"><animate attributeName="stroke-dashoffset" from="51.13882693178332" to="0" dur="1.5341648079534995s" begin="5.158277682235101s" fill="freeze" /></path><path d="M 46.6 -27.7 L 19.0 -27.7" transform="translate(0.0 38.0)" stroke-dasharray="27.6" stroke-dashoffset="27.6"><animate attributeName="stroke-dashoffset" from="27.6" to="0" dur="0.828s" begin="6.692442490188601s" fill="freeze" /></path></g></svg>