<?xml version='1.0' encoding='utf-8'?>
<svg viewBox="0.0 -6.0 50.0 50.0" version="1.1" xmlns="http://www.w3.org/2000/svg"><rect x="-1000" y="-1000" width="2000" height="2000" stroke="white" fill="white" /><g style="fill:none;stroke:#000000;stroke-width:1"><path d="M 46.0 -10.5 C 39.9 -13.4 34.1 -18.3 30.9 -23.8 " transform="translate(0.0 38.0)" stroke-dasharray="20.405659126254722" stroke-dashoffset="20.405659126254722"><animate attributeName="stroke-dashoffset" from="20.405659126254722" to="0" dur="0.6121697737876416s" begin="0s; 15s; 30s; 45s" fill="freeze" id="anim0" /></path><path d="M 10.0 -2.4 C 11.7 -4.1 13.2 -6.3 14.2 -8.6 " transform="translate(0.0 38.0)" stroke-dasharray="7.531039479021998" stroke-dashoffset="7.531039479021998"><animate attributeName="stroke-dashoffset" from="7.531039479021998" to="0" dur="0.22593118437065993s" begin="anim0.end" fill="freeze" id="anim1" /></path><path d="M 16.2 2.2 C 17.2 2.5 18.1 2.5 18.9 2.5 C 20.7 2.5 21.8 1.8 21.8 -0.3 L 21.8 -15.3 " transform="translate(0.0 38.0)" stroke-dasharray="22.381838417769" stroke-dashoffset="22.381838417769"><animate attributeName="stroke-dashoffset" from="22.381838417769" to="0" dur="0.67145515253307s" begin="anim1.end" fill="freeze" id="anim2" /></path><path d="M 4.1 -9.7 C 9.9 -13.0 15.7 -18.4 18.8 -23.9 " transform="translate(0.0 38.0)" stroke-dasharray="20.663703910090476" stroke-dashoffset="20.663703910090476"><animate attributeName="stroke-dashoffset" from="20.663703910090476" to="0" dur="0.6199111173027142s" begin="anim2.end" fill="freeze" id="anim3" /></path><path d="M 32.0 -2.2 C 31.1 -4.4 29.8 -6.7 28.4 -8.6 " transform="translate(0.0 38.0)" stroke-dasharray="7.360619190054378" stroke-dashoffset="7.360619190054378"><animate attributeName="stroke-dashoffset" from="7.360619190054378" to="0" dur="0.22081857570163135s" begin="anim3.end" fill="freeze" id="anim4" /></path><path d="M 41.4 -2.5 C 40.0 -4.8 38.4 -7.2 36.8 -9.1 " transform="translate(0.0 38.0)" stroke-dasharray="8.052316096356623" stroke-dashoffset="8.052316096356623"><animate attributeName="stroke-dashoffset" from="8.052316096356623" to="0" dur="0.24156948289069868s" begin="anim4.end" fill="freeze" id="anim5" /></path><path d="M 45.8 -24.2 L 4.1 -24.2 " transform="translate(0.0 38.0)" stroke-dasharray="41.699999999999996" stroke-dashoffset="41.699999999999996"><animate attributeName="stroke-dashoffset" from="41.699999999999996" to="0" dur="1.251s" begin="anim5.end" fill="freeze" id="anim6" /></path><path d="M 18.2 -24.2 L 18.2 -40.1 " transform="translate(0.0 38.0)" stroke-dasharray="15.900000000000002" stroke-dashoffset="15.900000000000002"><animate attributeName="stroke-dashoffset" from="15.900000000000002" to="0" dur="0.47700000000000004s" begin="anim6.end" fill="freeze" id="anim7" /></path><path d="M 42.6 -33.1 L 7.8 -33.1 " transform="translate(0.0 38.0)" stroke-dasharray="34.800000000000004" stroke-dashoffset="34.800000000000004"><animate attributeName="stroke-dashoffset" from="34.800000000000004" to="0" dur="1.044s" begin="anim7.end" fill="freeze" id="anim8" /></path><path d="M 31.2 -23.9 L 31.2 -40.1" transform="translate(0.0 38.0)" stroke-dasharray="16.200000000000003" stroke-dashoffset="16.200000000000003"><animate attributeName="stroke-dashoffset" from="16.200000000000003" to="0" dur="0.48600000000000004s" begin="anim8.end" fill="freeze" id="anim_end" /></path></g></svg>