<?xml version='1.0' encoding='utf-8'?>
<svg viewBox="0.0 -6.0 50.0 50.0" version="1.1" xmlns="http://www.w3.org/2000/svg"><rect x="-1000" y="-1000" width="2000" height="2000" stroke="white" fill="white" /><g style="fill:none;stroke:#000000;stroke-width:1"><path d="M 34.3 0.9 C 35.5 1.2 36.5 1.4 37.5 1.4 C 40.4 1.4 42.0 -0.1 42.7 -4.7 C 43.5 -10.7 44.0 -19.1 44.0 -26.9 C 44.0 -29.6 42.8 -31.0 39.4 -31.0 L 23.2 -31.0 " transform="translate(0.0 38.0)" stroke-dasharray="57.78892412735147" stroke-dashoffset="57.78892412735147"><animate attributeName="stroke-dashoffset" from="57.78892412735147" to="0" dur="1.733667723820544s" begin="0s" fill="freeze" /></path><path d="M 9.8 2.4 L 9.8 -40.4 " transform="translate(0.0 38.0)" stroke-dasharray="42.8" stroke-dashoffset="42.8"><animate attributeName="stroke-dashoffset" from="42.8" to="0" dur="1.2839999999999998s" begin="1.733667723820544s" fill="freeze" /></path><path d="M 3.3 -22.8 C 4.0 -24.5 4.6 -27.4 4.9 -29.9 " transform="translate(0.0 38.0)" stroke-dasharray="7.295858684700026" stroke-dashoffset="7.295858684700026"><animate attributeName="stroke-dashoffset" from="7.295858684700026" to="0" dur="0.21887576054100077s" begin="3.017667723820544s" fill="freeze" /></path><path d="M 15.9 -27.0 C 15.5 -28.4 14.8 -30.2 14.1 -31.3 " transform="translate(0.0 38.0)" stroke-dasharray="4.674792069270356" stroke-dashoffset="4.674792069270356"><animate attributeName="stroke-dashoffset" from="4.674792069270356" to="0" dur="0.14024376207811068s" begin="3.236543484361545s" fill="freeze" /></path><path d="M 33.8 -12.4 L 33.8 -18.7 C 33.8 -20.8 33.0 -21.7 30.4 -21.7 L 27.3 -21.7 C 24.8 -21.7 23.9 -20.8 23.9 -18.7 L 23.9 -12.4 C 23.9 -10.3 24.8 -9.3 27.3 -9.3 L 30.4 -9.3 C 33.0 -9.3 33.8 -10.3 33.8 -12.4 Z " transform="translate(0.0 38.0)" stroke-dasharray="40.085292765005896" stroke-dashoffset="40.085292765005896"><animate attributeName="stroke-dashoffset" from="40.085292765005896" to="0" dur="1.202558782950177s" begin="3.3767872464396556s" fill="freeze" /></path><path d="M 18.3 -22.6 C 21.7 -27.4 24.8 -34.0 26.3 -39.5" transform="translate(0.0 38.0)" stroke-dasharray="18.782044257926106" stroke-dashoffset="18.782044257926106"><animate attributeName="stroke-dashoffset" from="18.782044257926106" to="0" dur="0.5634613277377831s" begin="4.579346029389832s" fill="freeze" /></path></g></svg>