<?xml version='1.0' encoding='utf-8'?>
<svg viewBox="0.0 -6.0 50.0 50.0" version="1.1" xmlns="http://www.w3.org/2000/svg"><rect x="-1000" y="-1000" width="2000" height="2000" stroke="white" fill="white" /><g style="fill:none;stroke:#000000;stroke-width:1"><path d="M 8.6 -5.8 L 12.2 -5.8 C 14.4 -5.8 15.2 -6.8 15.2 -9.1 L 15.2 -33.7 C 15.2 -36.0 14.3 -37.0 12.2 -37.0 L 8.6 -37.0 C 6.5 -37.0 5.5 -36.0 5.5 -33.7 L 5.5 -9.1 C 5.5 -6.8 6.5 -5.8 8.6 -5.8 Z " transform="translate(0.0 38.0)" stroke-dasharray="77.20749201798463" stroke-dashoffset="77.20749201798463"><animate attributeName="stroke-dashoffset" from="77.20749201798463" to="0" dur="2.316224760539539s" begin="0s" fill="freeze" /></path><path d="M 14.9 -22.3 L 5.8 -22.3 " transform="translate(0.0 38.0)" stroke-dasharray="9.100000000000001" stroke-dashoffset="9.100000000000001"><animate attributeName="stroke-dashoffset" from="9.100000000000001" to="0" dur="0.273s" begin="2.316224760539539s" fill="freeze" /></path><path d="M 28.4 1.2 L 38.1 1.2 C 41.0 1.2 42.1 0.2 42.1 -2.1 L 42.1 -8.4 C 42.1 -10.8 41.0 -11.8 38.1 -11.8 L 28.4 -11.8 C 25.6 -11.8 24.4 -10.8 24.4 -8.4 L 24.4 -2.1 C 24.4 0.2 25.6 1.2 28.4 1.2 Z " transform="translate(0.0 38.0)" stroke-dasharray="56.18367620462522" stroke-dashoffset="56.18367620462522"><animate attributeName="stroke-dashoffset" from="56.18367620462522" to="0" dur="1.6855102861387565s" begin="2.589224760539539s" fill="freeze" /></path><path d="M 46.8 -19.1 L 20.2 -19.1 " transform="translate(0.0 38.0)" stroke-dasharray="26.599999999999998" stroke-dashoffset="26.599999999999998"><animate attributeName="stroke-dashoffset" from="26.599999999999998" to="0" dur="0.7979999999999999s" begin="4.274735046678296s" fill="freeze" /></path><path d="M 39.9 -19.2 L 39.9 -26.4 C 39.9 -28.5 39.1 -29.4 36.1 -29.4 L 22.8 -29.4 " transform="translate(0.0 38.0)" stroke-dasharray="26.164590915902394" stroke-dashoffset="26.164590915902394"><animate attributeName="stroke-dashoffset" from="26.164590915902394" to="0" dur="0.7849377274770718s" begin="5.072735046678296s" fill="freeze" /></path><path d="M 27.6 -19.4 C 29.0 -25.2 30.1 -31.4 30.9 -37.8 " transform="translate(0.0 38.0)" stroke-dasharray="18.703344881109683" stroke-dashoffset="18.703344881109683"><animate attributeName="stroke-dashoffset" from="18.703344881109683" to="0" dur="0.5611003464332904s" begin="5.857672774155367s" fill="freeze" /></path><path d="M 44.1 -38.0 L 21.3 -38.0" transform="translate(0.0 38.0)" stroke-dasharray="22.8" stroke-dashoffset="22.8"><animate attributeName="stroke-dashoffset" from="22.8" to="0" dur="0.6839999999999999s" begin="6.418773120588658s" fill="freeze" /></path></g></svg>