<?xml version='1.0' encoding='utf-8'?>
<svg viewBox="0.0 -6.0 50.0 50.0" version="1.1" xmlns="http://www.w3.org/2000/svg"><rect x="-1000" y="-1000" width="2000" height="2000" stroke="white" fill="white" /><g style="fill:none;stroke:#000000;stroke-width:1"><path d="M 42.5 -15.1 L 42.5 -26.6 C 42.5 -28.6 41.6 -29.6 38.8 -29.6 L 23.8 -29.6 C 20.9 -29.6 20.1 -28.6 20.1 -26.6 L 20.1 -14.6 " transform="translate(0.0 38.0)" stroke-dasharray="49.570492442832126" stroke-dashoffset="49.570492442832126"><animate attributeName="stroke-dashoffset" from="49.570492442832126" to="0" dur="1.4871147732849637s" begin="0s; 15s; 30s; 45s" fill="freeze" id="anim0" /></path><path d="M 5.7 0.4 C 8.0 -3.0 10.4 -8.3 11.8 -12.8 " transform="translate(0.0 38.0)" stroke-dasharray="14.585409967392582" stroke-dashoffset="14.585409967392582"><animate attributeName="stroke-dashoffset" from="14.585409967392582" to="0" dur="0.43756229902177746s" begin="anim0.end" fill="freeze" id="anim1" /></path><path d="M 26.6 -2.1 C 25.4 -3.2 24.1 -4.2 22.9 -5.0 " transform="translate(0.0 38.0)" stroke-dasharray="4.705555845955385" stroke-dashoffset="4.705555845955385"><animate attributeName="stroke-dashoffset" from="4.705555845955385" to="0" dur="0.14116667537866154s" begin="anim1.end" fill="freeze" id="anim2" /></path><path d="M 8.7 -23.1 C 7.5 -24.6 5.5 -26.1 4.3 -26.9 " transform="translate(0.0 38.0)" stroke-dasharray="5.8336786267192275" stroke-dashoffset="5.8336786267192275"><animate attributeName="stroke-dashoffset" from="5.8336786267192275" to="0" dur="0.1750103588015768s" begin="anim2.end" fill="freeze" id="anim3" /></path><path d="M 31.4 2.0 C 32.2 2.2 32.9 2.3 33.8 2.3 C 36.0 2.3 37.0 1.5 37.0 -0.6 L 37.0 -12.7 " transform="translate(0.0 38.0)" stroke-dasharray="19.536481607112314" stroke-dashoffset="19.536481607112314"><animate attributeName="stroke-dashoffset" from="19.536481607112314" to="0" dur="0.5860944482133694s" begin="anim3.end" fill="freeze" id="anim4" /></path><path d="M 46.5 -9.2 L 16.1 -9.2 " transform="translate(0.0 38.0)" stroke-dasharray="30.4" stroke-dashoffset="30.4"><animate attributeName="stroke-dashoffset" from="30.4" to="0" dur="0.9119999999999999s" begin="anim4.end" fill="freeze" id="anim5" /></path><path d="M 12.1 -35.0 C 10.9 -36.3 9.2 -38.0 8.0 -38.9 " transform="translate(0.0 38.0)" stroke-dasharray="5.664781075346097" stroke-dashoffset="5.664781075346097"><animate attributeName="stroke-dashoffset" from="5.664781075346097" to="0" dur="0.16994343226038292s" begin="anim5.end" fill="freeze" id="anim6" /></path><path d="M 41.8 -18.9 L 20.9 -18.9 " transform="translate(0.0 38.0)" stroke-dasharray="20.9" stroke-dashoffset="20.9"><animate attributeName="stroke-dashoffset" from="20.9" to="0" dur="0.6269999999999999s" begin="anim6.end" fill="freeze" id="anim7" /></path><path d="M 41.8 -24.1 L 20.9 -24.1 " transform="translate(0.0 38.0)" stroke-dasharray="20.9" stroke-dashoffset="20.9"><animate attributeName="stroke-dashoffset" from="20.9" to="0" dur="0.6269999999999999s" begin="anim7.end" fill="freeze" id="anim8" /></path><path d="M 31.0 -15.1 L 31.0 -40.5 " transform="translate(0.0 38.0)" stroke-dasharray="25.4" stroke-dashoffset="25.4"><animate attributeName="stroke-dashoffset" from="25.4" to="0" dur="0.7619999999999999s" begin="anim8.end" fill="freeze" id="anim9" /></path><path d="M 46.2 -34.9 L 17.4 -34.9 " transform="translate(0.0 38.0)" stroke-dasharray="28.800000000000004" stroke-dashoffset="28.800000000000004"><animate attributeName="stroke-dashoffset" from="28.800000000000004" to="0" dur="0.8640000000000001s" begin="anim9.end" fill="freeze" id="anim10" /></path><path d="M 40.7 -38.8 C 39.8 -39.5 38.5 -40.4 37.5 -40.8" transform="translate(0.0 38.0)" stroke-dasharray="3.783897933700104" stroke-dashoffset="3.783897933700104"><animate attributeName="stroke-dashoffset" from="3.783897933700104" to="0" dur="0.11351693801100311s" begin="anim10.end" fill="freeze" id="anim_end" /></path></g></svg>