<?xml version='1.0' encoding='utf-8'?>
<svg viewBox="0.0 -6.0 50.0 50.0" version="1.1" xmlns="http://www.w3.org/2000/svg"><rect x="-1000" y="-1000" width="2000" height="2000" stroke="white" fill="white" /><g style="fill:none;stroke:#000000;stroke-width:1"><path d="M 45.4 -16.3 L 24.8 -16.3 C 22.4 -16.3 21.6 -17.1 21.6 -19.1 L 21.6 -31.8 C 21.6 -33.6 22.3 -34.4 24.7 -34.4 L 45.0 -34.4 " transform="translate(0.0 38.0)" stroke-dasharray="63.29661970531896" stroke-dashoffset="63.29661970531896"><animate attributeName="stroke-dashoffset" from="63.29661970531896" to="0" dur="1.8988985911595688s" begin="0s" fill="freeze" /></path><path d="M 6.5 -14.1 C 8.8 -16.6 11.5 -20.1 13.2 -23.4 " transform="translate(0.0 38.0)" stroke-dasharray="11.493118586710974" stroke-dashoffset="11.493118586710974"><animate attributeName="stroke-dashoffset" from="11.493118586710974" to="0" dur="0.3447935576013292s" begin="1.8988985911595688s" fill="freeze" /></path><path d="M 24.9 2.9 L 24.9 -12.5 " transform="translate(0.0 38.0)" stroke-dasharray="15.4" stroke-dashoffset="15.4"><animate attributeName="stroke-dashoffset" from="15.4" to="0" dur="0.46199999999999997s" begin="2.243692148760898s" fill="freeze" /></path><path d="M 46.0 -6.8 L 4.0 -6.8 " transform="translate(0.0 38.0)" stroke-dasharray="42.0" stroke-dashoffset="42.0"><animate attributeName="stroke-dashoffset" from="42.0" to="0" dur="1.26s" begin="2.705692148760898s" fill="freeze" /></path><path d="M 8.8 -29.2 C 7.8 -30.1 6.0 -31.4 4.8 -32.1 " transform="translate(0.0 38.0)" stroke-dasharray="4.947040489906014" stroke-dashoffset="4.947040489906014"><animate attributeName="stroke-dashoffset" from="4.947040489906014" to="0" dur="0.1484112146971804s" begin="3.9656921487608976s" fill="freeze" /></path><path d="M 12.7 -36.5 C 11.6 -37.8 10.2 -39.0 9.2 -39.8 " transform="translate(0.0 38.0)" stroke-dasharray="4.817611734664469" stroke-dashoffset="4.817611734664469"><animate attributeName="stroke-dashoffset" from="4.817611734664469" to="0" dur="0.14452835203993405s" begin="4.114103363458078s" fill="freeze" /></path><path d="M 16.9 -28.6 C 19.7 -31.5 22.9 -36.4 24.4 -40.2 " transform="translate(0.0 38.0)" stroke-dasharray="13.88493622159137" stroke-dashoffset="13.88493622159137"><animate attributeName="stroke-dashoffset" from="13.88493622159137" to="0" dur="0.4165480866477411s" begin="4.258631715498012s" fill="freeze" /></path><path d="M 42.5 -22.5 L 22.4 -22.5 " transform="translate(0.0 38.0)" stroke-dasharray="20.1" stroke-dashoffset="20.1"><animate attributeName="stroke-dashoffset" from="20.1" to="0" dur="0.603s" begin="4.675179802145753s" fill="freeze" /></path><path d="M 32.4 -17.1 L 32.4 -34.0 " transform="translate(0.0 38.0)" stroke-dasharray="16.9" stroke-dashoffset="16.9"><animate attributeName="stroke-dashoffset" from="16.9" to="0" dur="0.5069999999999999s" begin="5.278179802145753s" fill="freeze" /></path><path d="M 42.5 -28.4 L 22.4 -28.4 " transform="translate(0.0 38.0)" stroke-dasharray="20.1" stroke-dashoffset="20.1"><animate attributeName="stroke-dashoffset" from="20.1" to="0" dur="0.603s" begin="5.785179802145753s" fill="freeze" /></path><path d="M 32.2 -35.0 C 33.1 -36.7 33.9 -38.5 34.4 -40.0" transform="translate(0.0 38.0)" stroke-dasharray="5.468333849535269" stroke-dashoffset="5.468333849535269"><animate attributeName="stroke-dashoffset" from="5.468333849535269" to="0" dur="0.16405001548605808s" begin="6.3881798021457525s" fill="freeze" /></path></g></svg>