<?xml version='1.0' encoding='utf-8'?>
<svg viewBox="0.0 -6.0 50.0 50.0" version="1.1" xmlns="http://www.w3.org/2000/svg"><rect x="-1000" y="-1000" width="2000" height="2000" stroke="white" fill="white" /><g style="fill:none;stroke:#000000;stroke-width:1"><path d="M 34.9 -14.4 L 15.3 -14.4 C 13.0 -14.4 12.3 -13.8 12.3 -12.5 L 12.3 -10.9 C 12.3 -9.6 13.0 -9.0 15.3 -9.0 L 34.9 -9.0 C 37.2 -9.0 37.9 -9.6 37.9 -10.9 L 37.9 -12.5 C 37.9 -13.8 37.2 -14.4 34.9 -14.4 Z " transform="translate(0.0 38.0)" stroke-dasharray="58.73583579084899" stroke-dashoffset="58.73583579084899"><animate attributeName="stroke-dashoffset" from="58.73583579084899" to="0" dur="1.7620750737254696s" begin="0s; anim_end.end" fill="freeze" id="anim0" /></path><path d="M 6.0 0.6 C 7.1 -0.7 8.3 -2.5 9.2 -4.4 " transform="translate(0.0 38.0)" stroke-dasharray="5.95192450317064" stroke-dashoffset="5.95192450317064"><animate attributeName="stroke-dashoffset" from="5.95192450317064" to="0" dur="0.1785577350951192s" begin="anim0.end" fill="freeze" id="anim1" /></path><path d="M 16.1 -5.0 L 16.1 -1.1 C 16.1 1.2 17.0 1.8 24.6 1.8 C 32.5 1.8 34.0 1.1 34.5 -2.6 " transform="translate(0.0 38.0)" stroke-dasharray="26.227460058192875" stroke-dashoffset="26.227460058192875"><animate attributeName="stroke-dashoffset" from="26.227460058192875" to="0" dur="0.7868238017457863s" begin="anim1.end" fill="freeze" id="anim2" /></path><path d="M 26.6 -3.1 C 25.5 -4.2 24.6 -4.8 23.6 -5.5 " transform="translate(0.0 38.0)" stroke-dasharray="3.8481292049201694" stroke-dashoffset="3.8481292049201694"><animate attributeName="stroke-dashoffset" from="3.8481292049201694" to="0" dur="0.11544387614760508s" begin="anim2.end" fill="freeze" id="anim3" /></path><path d="M 46.3 -18.8 L 3.6 -18.8 " transform="translate(0.0 38.0)" stroke-dasharray="42.699999999999996" stroke-dashoffset="42.699999999999996"><animate attributeName="stroke-dashoffset" from="42.699999999999996" to="0" dur="1.281s" begin="anim3.end" fill="freeze" id="anim4" /></path><path d="M 43.7 -0.8 C 42.8 -2.1 41.1 -3.9 39.8 -5.1 " transform="translate(0.0 38.0)" stroke-dasharray="5.814400445050707" stroke-dashoffset="5.814400445050707"><animate attributeName="stroke-dashoffset" from="5.814400445050707" to="0" dur="0.17443201335152123s" begin="anim4.end" fill="freeze" id="anim5" /></path><path d="M 16.1 -23.6 L 34.1 -23.6 C 36.5 -23.6 37.1 -24.2 37.1 -25.6 L 37.1 -27.0 C 37.1 -28.4 36.5 -28.9 34.1 -28.9 L 16.1 -28.9 C 13.8 -28.9 13.1 -28.4 13.1 -27.0 L 13.1 -25.6 C 13.1 -24.2 13.8 -23.6 16.1 -23.6 Z " transform="translate(0.0 38.0)" stroke-dasharray="55.406833739919506" stroke-dashoffset="55.406833739919506"><animate attributeName="stroke-dashoffset" from="55.406833739919506" to="0" dur="1.662205012197585s" begin="anim5.end" fill="freeze" id="anim6" /></path><path d="M 28.9 -18.9 C 29.5 -19.9 30.1 -20.9 30.9 -22.4 " transform="translate(0.0 38.0)" stroke-dasharray="4.031651277337798" stroke-dashoffset="4.031651277337798"><animate attributeName="stroke-dashoffset" from="4.031651277337798" to="0" dur="0.12094953832013394s" begin="anim6.end" fill="freeze" id="anim7" /></path><path d="M 40.8 -33.3 L 9.9 -33.3 " transform="translate(0.0 38.0)" stroke-dasharray="30.9" stroke-dashoffset="30.9"><animate attributeName="stroke-dashoffset" from="30.9" to="0" dur="0.9269999999999999s" begin="anim7.end" fill="freeze" id="anim8" /></path><path d="M 24.9 -33.3 L 24.9 -41.0 " transform="translate(0.0 38.0)" stroke-dasharray="7.700000000000003" stroke-dashoffset="7.700000000000003"><animate attributeName="stroke-dashoffset" from="7.700000000000003" to="0" dur="0.23100000000000007s" begin="anim8.end" fill="freeze" id="anim9" /></path><path d="M 45.5 -38.0 L 5.0 -38.0 " transform="translate(0.0 38.0)" stroke-dasharray="40.5" stroke-dashoffset="40.5"><animate attributeName="stroke-dashoffset" from="40.5" to="0" dur="1.2149999999999999s" begin="anim9.end" fill="freeze" id="anim10" /></path><path d="M 18.4 -22.6 C 19.3 -21.4 20.2 -20.1 20.9 -19.1" transform="translate(0.0 38.0)" stroke-dasharray="4.301377195924105" stroke-dashoffset="4.301377195924105"><animate attributeName="stroke-dashoffset" from="4.301377195924105" to="0" dur="0.12904131587772313s" begin="anim10.end" fill="freeze" id="anim_end" /></path></g></svg>