<?xml version='1.0' encoding='utf-8'?>
<svg viewBox="0.0 -6.0 50.0 50.0" version="1.1" xmlns="http://www.w3.org/2000/svg"><rect x="-1000" y="-1000" width="2000" height="2000" stroke="white" fill="white" /><g style="fill:none;stroke:#000000;stroke-width:1"><path d="M 23.6 2.5 L 23.6 -15.7 C 23.6 -17.6 24.4 -18.6 26.9 -18.6 L 44.9 -18.6 " transform="translate(0.0 38.0)" stroke-dasharray="41.2973023547302" stroke-dashoffset="41.2973023547302"><animate attributeName="stroke-dashoffset" from="41.2973023547302" to="0" dur="1.238919070641906s" begin="0s; anim_end.end" fill="freeze" id="anim0" /></path><path d="M 8.4 -5.6 L 11.7 -5.6 C 13.8 -5.6 14.7 -6.5 14.7 -8.8 L 14.7 -34.0 C 14.7 -36.2 13.8 -37.2 11.6 -37.2 L 8.4 -37.2 C 6.3 -37.2 5.4 -36.2 5.4 -34.0 L 5.4 -8.8 C 5.4 -6.5 6.3 -5.6 8.4 -5.6 Z " transform="translate(0.0 38.0)" stroke-dasharray="77.33034949839939" stroke-dashoffset="77.33034949839939"><animate attributeName="stroke-dashoffset" from="77.33034949839939" to="0" dur="2.3199104849519814s" begin="anim0.end" fill="freeze" id="anim1" /></path><path d="M 14.3 -22.4 L 5.5 -22.4 " transform="translate(0.0 38.0)" stroke-dasharray="8.8" stroke-dashoffset="8.8"><animate attributeName="stroke-dashoffset" from="8.8" to="0" dur="0.264s" begin="anim1.end" fill="freeze" id="anim2" /></path><path d="M 45.9 -0.2 L 24.4 -0.2 " transform="translate(0.0 38.0)" stroke-dasharray="21.5" stroke-dashoffset="21.5"><animate attributeName="stroke-dashoffset" from="21.5" to="0" dur="0.645s" begin="anim2.end" fill="freeze" id="anim3" /></path><path d="M 18.8 -12.2 C 21.5 -15.0 24.2 -19.1 25.9 -22.6 " transform="translate(0.0 38.0)" stroke-dasharray="12.638395887610567" stroke-dashoffset="12.638395887610567"><animate attributeName="stroke-dashoffset" from="12.638395887610567" to="0" dur="0.379151876628317s" begin="anim3.end" fill="freeze" id="anim4" /></path><path d="M 42.8 -6.5 L 23.8 -6.5 " transform="translate(0.0 38.0)" stroke-dasharray="18.999999999999996" stroke-dashoffset="18.999999999999996"><animate attributeName="stroke-dashoffset" from="18.999999999999996" to="0" dur="0.5699999999999998s" begin="anim4.end" fill="freeze" id="anim5" /></path><path d="M 33.9 -0.3 L 33.9 -17.9 " transform="translate(0.0 38.0)" stroke-dasharray="17.599999999999998" stroke-dashoffset="17.599999999999998"><animate attributeName="stroke-dashoffset" from="17.599999999999998" to="0" dur="0.5279999999999999s" begin="anim5.end" fill="freeze" id="anim6" /></path><path d="M 42.7 -12.6 L 23.8 -12.6 " transform="translate(0.0 38.0)" stroke-dasharray="18.900000000000002" stroke-dashoffset="18.900000000000002"><animate attributeName="stroke-dashoffset" from="18.900000000000002" to="0" dur="0.5670000000000001s" begin="anim6.end" fill="freeze" id="anim7" /></path><path d="M 33.7 -18.9 C 34.4 -20.2 34.8 -21.4 35.2 -22.6 " transform="translate(0.0 38.0)" stroke-dasharray="3.9981324258545063" stroke-dashoffset="3.9981324258545063"><animate attributeName="stroke-dashoffset" from="3.9981324258545063" to="0" dur="0.11994397277563519s" begin="anim7.end" fill="freeze" id="anim8" /></path><path d="M 20.4 -26.7 L 26.4 -26.7 C 28.9 -26.7 29.9 -27.4 29.9 -29.6 L 29.9 -35.8 C 29.9 -37.9 28.9 -38.6 26.4 -38.6 L 20.4 -38.6 " transform="translate(0.0 38.0)" stroke-dasharray="28.736721007849667" stroke-dashoffset="28.736721007849667"><animate attributeName="stroke-dashoffset" from="28.736721007849667" to="0" dur="0.86210163023549s" begin="anim8.end" fill="freeze" id="anim9" /></path><path d="M 30.1 -32.9 L 21.5 -32.9 " transform="translate(0.0 38.0)" stroke-dasharray="8.600000000000001" stroke-dashoffset="8.600000000000001"><animate attributeName="stroke-dashoffset" from="8.600000000000001" to="0" dur="0.258s" begin="anim9.end" fill="freeze" id="anim10" /></path><path d="M 44.4 -32.9 L 35.9 -32.9 " transform="translate(0.0 38.0)" stroke-dasharray="8.5" stroke-dashoffset="8.5"><animate attributeName="stroke-dashoffset" from="8.5" to="0" dur="0.255s" begin="anim10.end" fill="freeze" id="anim11" /></path><path d="M 34.8 -26.7 L 40.9 -26.7 C 43.5 -26.7 44.4 -27.4 44.4 -29.6 L 44.4 -35.8 C 44.4 -37.9 43.5 -38.6 40.9 -38.6 L 34.8 -38.6" transform="translate(0.0 38.0)" stroke-dasharray="28.98188096059109" stroke-dashoffset="28.98188096059109"><animate attributeName="stroke-dashoffset" from="28.98188096059109" to="0" dur="0.8694564288177327s" begin="anim11.end" fill="freeze" id="anim_end" /></path></g></svg>