<?xml version='1.0' encoding='utf-8'?>
<svg viewBox="0.0 -6.0 50.0 50.0" version="1.1" xmlns="http://www.w3.org/2000/svg"><rect x="-1000" y="-1000" width="2000" height="2000" stroke="white" fill="white" /><g style="fill:none;stroke:#000000;stroke-width:1"><path d="M 44.4 -9.2 C 40.0 -11.2 35.9 -14.2 33.1 -17.4 C 31.9 -18.7 31.1 -19.0 29.2 -19.0 L 21.9 -19.0 " transform="translate(0.0 38.0)" stroke-dasharray="25.75035256363383" stroke-dashoffset="25.75035256363383"><animate attributeName="stroke-dashoffset" from="25.75035256363383" to="0" dur="0.7725105769090148s" begin="0s; 15s; 30s; 45s" fill="freeze" id="anim0" /></path><path d="M 9.3 0.8 C 18.2 0.6 27.9 -0.1 36.8 -1.3 " transform="translate(0.0 38.0)" stroke-dasharray="27.593748746555647" stroke-dashoffset="27.593748746555647"><animate attributeName="stroke-dashoffset" from="27.593748746555647" to="0" dur="0.8278124623966694s" begin="anim0.end" fill="freeze" id="anim1" /></path><path d="M 5.8 -8.5 C 9.3 -10.4 13.0 -13.4 15.8 -16.6 " transform="translate(0.0 38.0)" stroke-dasharray="12.931459189919229" stroke-dashoffset="12.931459189919229"><animate attributeName="stroke-dashoffset" from="12.931459189919229" to="0" dur="0.3879437756975769s" begin="anim1.end" fill="freeze" id="anim2" /></path><path d="M 14.8 0.5 C 17.6 -3.1 20.4 -7.8 22.1 -11.6 " transform="translate(0.0 38.0)" stroke-dasharray="14.161468983766389" stroke-dashoffset="14.161468983766389"><animate attributeName="stroke-dashoffset" from="14.161468983766389" to="0" dur="0.42484406951299164s" begin="anim2.end" fill="freeze" id="anim3" /></path><path d="M 39.1 1.8 C 36.6 -1.1 33.2 -4.4 30.4 -6.5 " transform="translate(0.0 38.0)" stroke-dasharray="12.044222112998773" stroke-dashoffset="12.044222112998773"><animate attributeName="stroke-dashoffset" from="12.044222112998773" to="0" dur="0.36132666338996317s" begin="anim3.end" fill="freeze" id="anim4" /></path><path d="M 4.5 -21.2 C 11.6 -24.1 18.5 -28.9 23.1 -34.1 " transform="translate(0.0 38.0)" stroke-dasharray="22.82078011462216" stroke-dashoffset="22.82078011462216"><animate attributeName="stroke-dashoffset" from="22.82078011462216" to="0" dur="0.6846234034386648s" begin="anim4.end" fill="freeze" id="anim5" /></path><path d="M 24.9 -23.9 L 24.9 -41.0 " transform="translate(0.0 38.0)" stroke-dasharray="17.1" stroke-dashoffset="17.1"><animate attributeName="stroke-dashoffset" from="17.1" to="0" dur="0.513s" begin="anim5.end" fill="freeze" id="anim6" /></path><path d="M 43.8 -35.3 L 6.8 -35.3 " transform="translate(0.0 38.0)" stroke-dasharray="37.0" stroke-dashoffset="37.0"><animate attributeName="stroke-dashoffset" from="37.0" to="0" dur="1.1099999999999999s" begin="anim6.end" fill="freeze" id="anim7" /></path><path d="M 45.4 -22.3 C 38.8 -24.6 31.4 -29.1 26.4 -34.1" transform="translate(0.0 38.0)" stroke-dasharray="22.535626267964197" stroke-dashoffset="22.535626267964197"><animate attributeName="stroke-dashoffset" from="22.535626267964197" to="0" dur="0.6760687880389259s" begin="anim7.end" fill="freeze" id="anim_end" /></path></g></svg>