<?xml version='1.0' encoding='utf-8'?>
<svg viewBox="0.0 -6.0 50.0 50.0" version="1.1" xmlns="http://www.w3.org/2000/svg"><rect x="-1000" y="-1000" width="2000" height="2000" stroke="white" fill="white" /><g style="fill:none;stroke:#000000;stroke-width:1"><path d="M 34.4 0.8 C 35.5 1.2 36.6 1.3 37.6 1.3 C 40.5 1.3 42.0 -0.1 42.8 -4.7 C 43.6 -10.7 44.1 -19.2 44.1 -26.9 C 44.1 -29.6 43.0 -31.0 39.5 -31.0 L 23.9 -31.0 " transform="translate(0.0 38.0)" stroke-dasharray="57.127677955531" stroke-dashoffset="57.127677955531"><animate attributeName="stroke-dashoffset" from="57.127677955531" to="0" dur="1.71383033866593s" begin="0s; anim_end.end" fill="freeze" id="anim0" /></path><path d="M 3.0 -9.5 C 6.0 -14.1 8.4 -20.2 9.8 -26.2 " transform="translate(0.0 38.0)" stroke-dasharray="18.11697594429347" stroke-dashoffset="18.11697594429347"><animate attributeName="stroke-dashoffset" from="18.11697594429347" to="0" dur="0.543509278328804s" begin="anim0.end" fill="freeze" id="anim1" /></path><path d="M 10.8 2.6 L 10.8 -40.4 " transform="translate(0.0 38.0)" stroke-dasharray="43.0" stroke-dashoffset="43.0"><animate attributeName="stroke-dashoffset" from="43.0" to="0" dur="1.29s" begin="anim1.end" fill="freeze" id="anim2" /></path><path d="M 16.9 -15.3 C 15.7 -17.0 13.8 -18.8 11.8 -20.2 " transform="translate(0.0 38.0)" stroke-dasharray="7.104739273997794" stroke-dashoffset="7.104739273997794"><animate attributeName="stroke-dashoffset" from="7.104739273997794" to="0" dur="0.2131421782199338s" begin="anim2.end" fill="freeze" id="anim3" /></path><path d="M 16.8 -29.0 L 3.8 -29.0 " transform="translate(0.0 38.0)" stroke-dasharray="13.0" stroke-dashoffset="13.0"><animate attributeName="stroke-dashoffset" from="13.0" to="0" dur="0.39s" begin="anim3.end" fill="freeze" id="anim4" /></path><path d="M 27.9 -9.4 L 30.9 -9.4 C 33.5 -9.4 34.3 -10.4 34.3 -12.4 L 34.3 -18.7 C 34.3 -20.8 33.5 -21.7 30.9 -21.7 L 27.9 -21.7 C 25.4 -21.7 24.6 -20.8 24.6 -18.7 L 24.6 -12.4 C 24.6 -10.4 25.4 -9.4 27.9 -9.4 Z " transform="translate(0.0 38.0)" stroke-dasharray="39.57566606524679" stroke-dashoffset="39.57566606524679"><animate attributeName="stroke-dashoffset" from="39.57566606524679" to="0" dur="1.1872699819574037s" begin="anim4.end" fill="freeze" id="anim5" /></path><path d="M 19.2 -23.7 C 22.4 -27.8 25.3 -33.9 26.9 -39.5" transform="translate(0.0 38.0)" stroke-dasharray="17.67300432037802" stroke-dashoffset="17.67300432037802"><animate attributeName="stroke-dashoffset" from="17.67300432037802" to="0" dur="0.5301901296113406s" begin="anim5.end" fill="freeze" id="anim_end" /></path></g></svg>