<?xml version='1.0' encoding='utf-8'?>
<svg viewBox="0.0 -6.0 50.0 50.0" version="1.1" xmlns="http://www.w3.org/2000/svg"><rect x="-1000" y="-1000" width="2000" height="2000" stroke="white" fill="white" /><g style="fill:none;stroke:#000000;stroke-width:1"><path d="M 19.6 -17.4 L 37.8 -17.4 C 40.2 -17.4 41.4 -18.1 41.4 -20.1 L 41.4 -27.1 C 41.4 -29.1 40.2 -29.9 37.8 -29.9 L 20.1 -29.9 " transform="translate(0.0 38.0)" stroke-dasharray="53.33569948653937" stroke-dashoffset="53.33569948653937"><animate attributeName="stroke-dashoffset" from="53.33569948653937" to="0" dur="1.600070984596181s" begin="0s" fill="freeze" /></path><path d="M 5.5 0.5 C 7.7 -3.0 10.0 -8.3 11.3 -12.7 " transform="translate(0.0 38.0)" stroke-dasharray="14.456242471614317" stroke-dashoffset="14.456242471614317"><animate attributeName="stroke-dashoffset" from="14.456242471614317" to="0" dur="0.4336872741484295s" begin="1.600070984596181s" fill="freeze" /></path><path d="M 15.7 2.1 C 27.1 1.1 33.9 -2.4 37.5 -10.2 " transform="translate(0.0 38.0)" stroke-dasharray="26.402648073792786" stroke-dashoffset="26.402648073792786"><animate attributeName="stroke-dashoffset" from="26.402648073792786" to="0" dur="0.7920794422137836s" begin="2.0337582587446104s" fill="freeze" /></path><path d="M 8.4 -23.2 C 7.2 -24.6 5.3 -26.1 4.2 -26.9 " transform="translate(0.0 38.0)" stroke-dasharray="5.608257130601457" stroke-dashoffset="5.608257130601457"><animate attributeName="stroke-dashoffset" from="5.608257130601457" to="0" dur="0.1682477139180437s" begin="2.825837700958394s" fill="freeze" /></path><path d="M 21.2 -4.8 C 24.6 -8.4 27.4 -12.7 29.5 -16.8 " transform="translate(0.0 38.0)" stroke-dasharray="14.638434406122679" stroke-dashoffset="14.638434406122679"><animate attributeName="stroke-dashoffset" from="14.638434406122679" to="0" dur="0.43915303218368035s" begin="2.9940854148764378s" fill="freeze" /></path><path d="M 42.6 1.4 C 37.2 -1.5 29.0 -4.3 22.6 -5.7 " transform="translate(0.0 38.0)" stroke-dasharray="21.279622513782662" stroke-dashoffset="21.279622513782662"><animate attributeName="stroke-dashoffset" from="21.279622513782662" to="0" dur="0.6383886754134799s" begin="3.433238447060118s" fill="freeze" /></path><path d="M 46.2 -11.0 L 15.8 -11.0 " transform="translate(0.0 38.0)" stroke-dasharray="30.400000000000002" stroke-dashoffset="30.400000000000002"><animate attributeName="stroke-dashoffset" from="30.400000000000002" to="0" dur="0.912s" begin="4.071627122473598s" fill="freeze" /></path><path d="M 11.7 -35.1 C 10.6 -36.5 8.8 -38.0 7.7 -38.9 " transform="translate(0.0 38.0)" stroke-dasharray="5.527400052414648" stroke-dashoffset="5.527400052414648"><animate attributeName="stroke-dashoffset" from="5.527400052414648" to="0" dur="0.16582200157243943s" begin="4.983627122473598s" fill="freeze" /></path><path d="M 46.6 -23.7 L 15.0 -23.7 " transform="translate(0.0 38.0)" stroke-dasharray="31.6" stroke-dashoffset="31.6"><animate attributeName="stroke-dashoffset" from="31.6" to="0" dur="0.948s" begin="5.149449124046037s" fill="freeze" /></path><path d="M 30.1 -17.8 L 30.1 -40.4 " transform="translate(0.0 38.0)" stroke-dasharray="22.599999999999998" stroke-dashoffset="22.599999999999998"><animate attributeName="stroke-dashoffset" from="22.599999999999998" to="0" dur="0.6779999999999999s" begin="6.097449124046037s" fill="freeze" /></path><path d="M 45.2 -35.8 L 17.0 -35.8" transform="translate(0.0 38.0)" stroke-dasharray="28.200000000000003" stroke-dashoffset="28.200000000000003"><animate attributeName="stroke-dashoffset" from="28.200000000000003" to="0" dur="0.8460000000000001s" begin="6.775449124046037s" fill="freeze" /></path></g></svg>