<?xml version='1.0' encoding='utf-8'?>
<svg viewBox="0.0 -6.0 50.0 50.0" version="1.1" xmlns="http://www.w3.org/2000/svg"><rect x="-1000" y="-1000" width="2000" height="2000" stroke="white" fill="white" /><g style="fill:none;stroke:#000000;stroke-width:1"><path d="M 37.0 0.8 C 38.0 1.0 39.0 1.1 40.0 1.1 C 42.5 1.1 43.5 0.0 43.5 -2.6 L 43.5 -34.6 C 43.5 -37.1 42.5 -38.0 39.8 -38.0 L 34.4 -38.0 C 31.6 -38.0 30.6 -37.1 30.6 -34.6 L 30.6 -22.9 C 30.6 -10.2 28.2 -3.2 23.5 1.9 " transform="translate(0.0 38.0)" stroke-dasharray="96.31964221275757" stroke-dashoffset="96.31964221275757"><animate attributeName="stroke-dashoffset" from="96.31964221275757" to="0" dur="2.889589266382727s" begin="0s" fill="freeze" /></path><path d="M 4.2 -1.1 C 8.8 -2.4 13.8 -4.4 18.7 -6.5 " transform="translate(0.0 38.0)" stroke-dasharray="15.483399304843516" stroke-dashoffset="15.483399304843516"><animate attributeName="stroke-dashoffset" from="15.483399304843516" to="0" dur="0.46450197914530544s" begin="2.889589266382727s" fill="freeze" /></path><path d="M 21.2 -4.2 C 20.0 -6.8 17.9 -9.7 16.4 -11.3 " transform="translate(0.0 38.0)" stroke-dasharray="8.600593851847197" stroke-dashoffset="8.600593851847197"><animate attributeName="stroke-dashoffset" from="8.600593851847197" to="0" dur="0.2580178155554159s" begin="3.3540912455280325s" fill="freeze" /></path><path d="M 7.8 -17.4 L 18.1 -17.4 C 20.7 -17.4 21.5 -18.6 21.5 -20.6 L 21.5 -30.7 C 21.5 -32.7 20.6 -33.8 18.0 -33.8 L 11.1 -33.8 C 8.4 -33.8 7.5 -32.7 7.5 -30.7 L 7.5 -2.1 " transform="translate(0.0 38.0)" stroke-dasharray="72.20654776379746" stroke-dashoffset="72.20654776379746"><animate attributeName="stroke-dashoffset" from="72.20654776379746" to="0" dur="2.1661964329139236s" begin="3.6121090610834483s" fill="freeze" /></path><path d="M 21.1 -25.8 L 7.7 -25.8 " transform="translate(0.0 38.0)" stroke-dasharray="13.400000000000002" stroke-dashoffset="13.400000000000002"><animate attributeName="stroke-dashoffset" from="13.400000000000002" to="0" dur="0.402s" begin="5.778305493997372s" fill="freeze" /></path><path d="M 43.0 -15.2 L 30.8 -15.2 " transform="translate(0.0 38.0)" stroke-dasharray="12.2" stroke-dashoffset="12.2"><animate attributeName="stroke-dashoffset" from="12.2" to="0" dur="0.366s" begin="6.1803054939973725s" fill="freeze" /></path><path d="M 14.6 -33.9 L 14.6 -40.2 " transform="translate(0.0 38.0)" stroke-dasharray="6.300000000000004" stroke-dashoffset="6.300000000000004"><animate attributeName="stroke-dashoffset" from="6.300000000000004" to="0" dur="0.1890000000000001s" begin="6.546305493997372s" fill="freeze" /></path><path d="M 43.0 -26.8 L 30.8 -26.8" transform="translate(0.0 38.0)" stroke-dasharray="12.2" stroke-dashoffset="12.2"><animate attributeName="stroke-dashoffset" from="12.2" to="0" dur="0.366s" begin="6.735305493997372s" fill="freeze" /></path></g></svg>