<?xml version='1.0' encoding='utf-8'?>
<svg viewBox="0.0 -6.0 50.0 50.0" version="1.1" xmlns="http://www.w3.org/2000/svg"><rect x="-1000" y="-1000" width="2000" height="2000" stroke="white" fill="white" /><g style="fill:none;stroke:#000000;stroke-width:1"><path d="M 16.9 2.0 C 26.0 -1.0 31.1 -6.0 31.6 -14.5 " transform="translate(0.0 38.0)" stroke-dasharray="23.723595251489133" stroke-dashoffset="23.723595251489133"><animate attributeName="stroke-dashoffset" from="23.723595251489133" to="0" dur="0.7117078575446739s" begin="0s; anim_end.end" fill="freeze" id="anim0" /></path><path d="M 2.6 -10.1 C 5.3 -14.4 7.5 -20.4 8.7 -26.2 " transform="translate(0.0 38.0)" stroke-dasharray="17.30043878029177" stroke-dashoffset="17.30043878029177"><animate attributeName="stroke-dashoffset" from="17.30043878029177" to="0" dur="0.5190131634087531s" begin="anim0.end" fill="freeze" id="anim1" /></path><path d="M 15.4 -16.6 C 14.2 -18.4 12.5 -20.3 10.6 -21.8 " transform="translate(0.0 38.0)" stroke-dasharray="7.104414844464184" stroke-dashoffset="7.104414844464184"><animate attributeName="stroke-dashoffset" from="7.104414844464184" to="0" dur="0.21313244533392553s" begin="anim1.end" fill="freeze" id="anim2" /></path><path d="M 14.8 -29.2 L 3.1 -29.2 " transform="translate(0.0 38.0)" stroke-dasharray="11.700000000000001" stroke-dashoffset="11.700000000000001"><animate attributeName="stroke-dashoffset" from="11.700000000000001" to="0" dur="0.35100000000000003s" begin="anim2.end" fill="freeze" id="anim3" /></path><path d="M 44.6 -10.2 L 19.2 -10.2 " transform="translate(0.0 38.0)" stroke-dasharray="25.400000000000002" stroke-dashoffset="25.400000000000002"><animate attributeName="stroke-dashoffset" from="25.400000000000002" to="0" dur="0.762s" begin="anim3.end" fill="freeze" id="anim4" /></path><path d="M 45.8 1.4 C 40.0 -0.2 35.0 -3.9 32.0 -8.8 " transform="translate(0.0 38.0)" stroke-dasharray="17.566468482469247" stroke-dashoffset="17.566468482469247"><animate attributeName="stroke-dashoffset" from="17.566468482469247" to="0" dur="0.5269940544740774s" begin="anim4.end" fill="freeze" id="anim5" /></path><path d="M 18.4 -21.6 C 21.7 -21.9 26.6 -22.8 30.0 -23.8 " transform="translate(0.0 38.0)" stroke-dasharray="11.821829418051783" stroke-dashoffset="11.821829418051783"><animate attributeName="stroke-dashoffset" from="11.821829418051783" to="0" dur="0.3546548825415535s" begin="anim5.end" fill="freeze" id="anim6" /></path><path d="M 24.1 -16.2 L 24.1 -40.5 " transform="translate(0.0 38.0)" stroke-dasharray="24.3" stroke-dashoffset="24.3"><animate attributeName="stroke-dashoffset" from="24.3" to="0" dur="0.729s" begin="anim6.end" fill="freeze" id="anim7" /></path><path d="M 29.6 -29.4 L 19.3 -29.4 " transform="translate(0.0 38.0)" stroke-dasharray="10.3" stroke-dashoffset="10.3"><animate attributeName="stroke-dashoffset" from="10.3" to="0" dur="0.309s" begin="anim7.end" fill="freeze" id="anim8" /></path><path d="M 29.9 -36.0 L 17.9 -36.0 " transform="translate(0.0 38.0)" stroke-dasharray="12.0" stroke-dashoffset="12.0"><animate attributeName="stroke-dashoffset" from="12.0" to="0" dur="0.36s" begin="anim8.end" fill="freeze" id="anim9" /></path><path d="M 32.3 -18.9 C 36.2 -22.6 38.3 -27.9 38.5 -35.7 " transform="translate(0.0 38.0)" stroke-dasharray="18.40239199164058" stroke-dashoffset="18.40239199164058"><animate attributeName="stroke-dashoffset" from="18.40239199164058" to="0" dur="0.5520717597492174s" begin="anim9.end" fill="freeze" id="anim10" /></path><path d="M 39.1 -19.4 C 39.8 -19.3 40.4 -19.2 41.0 -19.2 C 42.8 -19.2 43.8 -20.1 44.3 -22.7 C 45.0 -26.0 45.2 -29.9 45.2 -34.0 C 45.2 -35.9 44.5 -36.6 42.5 -36.6 L 34.0 -36.6 " transform="translate(0.0 38.0)" stroke-dasharray="31.502681856284223" stroke-dashoffset="31.502681856284223"><animate attributeName="stroke-dashoffset" from="31.502681856284223" to="0" dur="0.9450804556885266s" begin="anim10.end" fill="freeze" id="anim11" /></path><path d="M 9.8 2.6 L 9.8 -40.4" transform="translate(0.0 38.0)" stroke-dasharray="43.0" stroke-dashoffset="43.0"><animate attributeName="stroke-dashoffset" from="43.0" to="0" dur="1.29s" begin="anim11.end" fill="freeze" id="anim_end" /></path></g></svg>