<?xml version='1.0' encoding='utf-8'?>
<svg viewBox="0.0 -6.0 50.0 50.0" version="1.1" xmlns="http://www.w3.org/2000/svg"><rect x="-1000" y="-1000" width="2000" height="2000" stroke="white" fill="white" /><g style="fill:none;stroke:#000000;stroke-width:1"><path d="M 45.2 -5.9 C 44.6 -1.0 43.0 0.2 37.2 0.2 C 32.5 0.2 31.5 -0.7 31.5 -3.5 L 31.5 -34.4 " transform="translate(0.0 38.0)" stroke-dasharray="50.49611226887282" stroke-dashoffset="50.49611226887282"><animate attributeName="stroke-dashoffset" from="50.49611226887282" to="0" dur="1.5148833680661846s" begin="0s" fill="freeze" /></path><path d="M 4.2 -13.4 C 8.6 -14.6 13.8 -16.4 17.2 -18.0 " transform="translate(0.0 38.0)" stroke-dasharray="13.804317944503858" stroke-dashoffset="13.804317944503858"><animate attributeName="stroke-dashoffset" from="13.804317944503858" to="0" dur="0.41412953833511573s" begin="1.5148833680661846s" fill="freeze" /></path><path d="M 5.5 1.4 C 6.3 1.6 7.2 1.7 7.9 1.7 C 10.2 1.7 11.3 0.8 11.3 -1.9 L 11.3 -40.1 " transform="translate(0.0 38.0)" stroke-dasharray="46.38660349234798" stroke-dashoffset="46.38660349234798"><animate attributeName="stroke-dashoffset" from="46.38660349234798" to="0" dur="1.3915981047704393s" begin="1.9290129064013004s" fill="freeze" /></path><path d="M 17.1 -29.4 L 4.4 -29.4 " transform="translate(0.0 38.0)" stroke-dasharray="12.700000000000001" stroke-dashoffset="12.700000000000001"><animate attributeName="stroke-dashoffset" from="12.700000000000001" to="0" dur="0.381s" begin="3.3206110111717395s" fill="freeze" /></path><path d="M 22.1 -18.9 L 46.0 -21.6 " transform="translate(0.0 38.0)" stroke-dasharray="24.052026941611384" stroke-dashoffset="24.052026941611384"><animate attributeName="stroke-dashoffset" from="24.052026941611384" to="0" dur="0.7215608082483415s" begin="3.7016110111717397s" fill="freeze" /></path><path d="M 23.9 -33.0 C 29.9 -34.1 37.1 -36.6 41.6 -38.8" transform="translate(0.0 38.0)" stroke-dasharray="18.67442246792343" stroke-dashoffset="18.67442246792343"><animate attributeName="stroke-dashoffset" from="18.67442246792343" to="0" dur="0.5602326740377029s" begin="4.423171819420081s" fill="freeze" /></path></g></svg>