<?xml version='1.0' encoding='utf-8'?>
<svg viewBox="0.0 -6.0 50.0 50.0" version="1.1" xmlns="http://www.w3.org/2000/svg"><rect x="-1000" y="-1000" width="2000" height="2000" stroke="white" fill="white" /><g style="fill:none;stroke:#000000;stroke-width:1"><path d="M 27.7 1.1 L 40.3 1.1 C 43.1 1.1 44.4 0.1 44.4 -2.6 L 44.4 -25.3 C 44.4 -28.0 43.1 -29.1 40.3 -29.1 L 27.7 -29.1 C 24.9 -29.1 23.6 -28.0 23.6 -25.3 L 23.6 -2.6 C 23.6 0.1 24.9 1.1 27.7 1.1 Z " transform="translate(0.0 38.0)" stroke-dasharray="96.35984550535638" stroke-dashoffset="96.35984550535638"><animate attributeName="stroke-dashoffset" from="96.35984550535638" to="0" dur="2.8907953651606912s" begin="0s; 15s; 30s; 45s" fill="freeze" id="anim0" /></path><path d="M 3.1 -9.2 C 6.2 -13.9 8.9 -20.2 10.3 -26.2 " transform="translate(0.0 38.0)" stroke-dasharray="18.55083111215358" stroke-dashoffset="18.55083111215358"><animate attributeName="stroke-dashoffset" from="18.55083111215358" to="0" dur="0.5565249333646074s" begin="anim0.end" fill="freeze" id="anim1" /></path><path d="M 11.4 2.5 L 11.4 -40.3 " transform="translate(0.0 38.0)" stroke-dasharray="42.8" stroke-dashoffset="42.8"><animate attributeName="stroke-dashoffset" from="42.8" to="0" dur="1.2839999999999998s" begin="anim1.end" fill="freeze" id="anim2" /></path><path d="M 17.6 -15.4 C 16.4 -17.1 14.5 -18.9 12.4 -20.2 " transform="translate(0.0 38.0)" stroke-dasharray="7.120907041355073" stroke-dashoffset="7.120907041355073"><animate attributeName="stroke-dashoffset" from="7.120907041355073" to="0" dur="0.21362721124065218s" begin="anim2.end" fill="freeze" id="anim3" /></path><path d="M 17.8 -28.9 L 4.1 -28.9 " transform="translate(0.0 38.0)" stroke-dasharray="13.700000000000001" stroke-dashoffset="13.700000000000001"><animate attributeName="stroke-dashoffset" from="13.700000000000001" to="0" dur="0.41100000000000003s" begin="anim3.end" fill="freeze" id="anim4" /></path><path d="M 44.0 -15.0 L 24.4 -15.0 " transform="translate(0.0 38.0)" stroke-dasharray="19.6" stroke-dashoffset="19.6"><animate attributeName="stroke-dashoffset" from="19.6" to="0" dur="0.588s" begin="anim4.end" fill="freeze" id="anim5" /></path><path d="M 33.7 1.1 L 33.7 -40.1" transform="translate(0.0 38.0)" stroke-dasharray="41.2" stroke-dashoffset="41.2"><animate attributeName="stroke-dashoffset" from="41.2" to="0" dur="1.236s" begin="anim5.end" fill="freeze" id="anim_end" /></path></g></svg>