<?xml version='1.0' encoding='utf-8'?>
<svg viewBox="0.0 -6.0 50.0 50.0" version="1.1" xmlns="http://www.w3.org/2000/svg"><rect x="-1000" y="-1000" width="2000" height="2000" stroke="white" fill="white" /><g style="fill:none;stroke:#000000;stroke-width:1"><path d="M 38.2 1.6 C 39.0 1.7 39.9 1.8 40.8 1.8 C 43.0 1.8 44.0 0.8 44.0 -1.7 L 44.0 -11.7 C 44.0 -13.8 43.1 -14.8 40.4 -14.8 L 21.2 -14.8 C 18.6 -14.8 17.6 -13.8 17.6 -11.7 L 17.6 2.5 " transform="translate(0.0 38.0)" stroke-dasharray="62.52346655962412" stroke-dashoffset="62.52346655962412"><animate attributeName="stroke-dashoffset" from="62.52346655962412" to="0" dur="1.8757039967887235s" begin="0s; 15s; 30s; 45s" fill="freeze" id="anim0" /></path><path d="M 5.5 0.5 C 7.7 -3.0 10.0 -8.3 11.3 -12.7 " transform="translate(0.0 38.0)" stroke-dasharray="14.456242471614317" stroke-dashoffset="14.456242471614317"><animate attributeName="stroke-dashoffset" from="14.456242471614317" to="0" dur="0.4336872741484295s" begin="anim0.end" fill="freeze" id="anim1" /></path><path d="M 8.4 -23.2 C 7.2 -24.6 5.3 -26.1 4.2 -26.9 " transform="translate(0.0 38.0)" stroke-dasharray="5.608257130601457" stroke-dashoffset="5.608257130601457"><animate attributeName="stroke-dashoffset" from="5.608257130601457" to="0" dur="0.1682477139180437s" begin="anim1.end" fill="freeze" id="anim2" /></path><path d="M 22.6 -4.9 C 27.4 -5.2 31.6 -5.7 36.5 -6.8 " transform="translate(0.0 38.0)" stroke-dasharray="14.045229140763604" stroke-dashoffset="14.045229140763604"><animate attributeName="stroke-dashoffset" from="14.045229140763604" to="0" dur="0.42135687422290813s" begin="anim2.end" fill="freeze" id="anim3" /></path><path d="M 25.4 -5.7 C 27.6 -9.9 29.3 -14.9 30.6 -20.4 " transform="translate(0.0 38.0)" stroke-dasharray="15.632581169608502" stroke-dashoffset="15.632581169608502"><animate attributeName="stroke-dashoffset" from="15.632581169608502" to="0" dur="0.468977435088255s" begin="anim3.end" fill="freeze" id="anim4" /></path><path d="M 38.6 -5.0 C 37.5 -6.8 35.6 -8.8 34.0 -10.3 " transform="translate(0.0 38.0)" stroke-dasharray="7.036663632137601" stroke-dashoffset="7.036663632137601"><animate attributeName="stroke-dashoffset" from="7.036663632137601" to="0" dur="0.21109990896412803s" begin="anim4.end" fill="freeze" id="anim5" /></path><path d="M 11.7 -35.1 C 10.6 -36.5 8.8 -38.0 7.7 -38.9 " transform="translate(0.0 38.0)" stroke-dasharray="5.527400052414648" stroke-dashoffset="5.527400052414648"><animate attributeName="stroke-dashoffset" from="5.527400052414648" to="0" dur="0.16582200157243943s" begin="anim5.end" fill="freeze" id="anim6" /></path><path d="M 20.4 -30.9 L 20.4 -23.6 C 20.4 -21.5 21.6 -20.9 23.9 -20.9 L 37.8 -20.9 C 40.1 -20.9 41.2 -21.5 41.2 -23.6 L 41.2 -30.9 " transform="translate(0.0 38.0)" stroke-dasharray="38.678102550169996" stroke-dashoffset="38.678102550169996"><animate attributeName="stroke-dashoffset" from="38.678102550169996" to="0" dur="1.1603430765051s" begin="anim6.end" fill="freeze" id="anim7" /></path><path d="M 26.2 -24.6 C 29.1 -26.4 32.2 -28.9 34.5 -31.5 " transform="translate(0.0 38.0)" stroke-dasharray="10.828898063019215" stroke-dashoffset="10.828898063019215"><animate attributeName="stroke-dashoffset" from="10.828898063019215" to="0" dur="0.32486694189057647s" begin="anim7.end" fill="freeze" id="anim8" /></path><path d="M 35.1 -25.4 C 32.5 -27.5 29.2 -29.6 26.9 -30.8 " transform="translate(0.0 38.0)" stroke-dasharray="9.832095799802206" stroke-dashoffset="9.832095799802206"><animate attributeName="stroke-dashoffset" from="9.832095799802206" to="0" dur="0.2949628739940662s" begin="anim8.end" fill="freeze" id="anim9" /></path><path d="M 45.8 -35.5 L 17.1 -35.5 " transform="translate(0.0 38.0)" stroke-dasharray="28.699999999999996" stroke-dashoffset="28.699999999999996"><animate attributeName="stroke-dashoffset" from="28.699999999999996" to="0" dur="0.8609999999999999s" begin="anim9.end" fill="freeze" id="anim10" /></path><path d="M 30.7 -35.3 L 30.7 -40.5" transform="translate(0.0 38.0)" stroke-dasharray="5.200000000000003" stroke-dashoffset="5.200000000000003"><animate attributeName="stroke-dashoffset" from="5.200000000000003" to="0" dur="0.15600000000000008s" begin="anim10.end" fill="freeze" id="anim_end" /></path></g></svg>