<?xml version='1.0' encoding='utf-8'?>
<svg viewBox="0.0 -6.0 50.0 50.0" version="1.1" xmlns="http://www.w3.org/2000/svg"><rect x="-1000" y="-1000" width="2000" height="2000" stroke="white" fill="white" /><g style="fill:none;stroke:#000000;stroke-width:1"><path d="M 20.0 -17.1 C 27.1 -20.4 33.5 -25.2 37.8 -30.8 " transform="translate(0.0 38.0)" stroke-dasharray="22.67167317097304" stroke-dashoffset="22.67167317097304"><animate attributeName="stroke-dashoffset" from="22.67167317097304" to="0" dur="0.6801501951291912s" begin="0s; anim_end.end" fill="freeze" id="anim0" /></path><path d="M 2.6 -10.1 C 5.3 -14.4 7.5 -20.4 8.7 -26.2 " transform="translate(0.0 38.0)" stroke-dasharray="17.30043878029177" stroke-dashoffset="17.30043878029177"><animate attributeName="stroke-dashoffset" from="17.30043878029177" to="0" dur="0.5190131634087531s" begin="anim0.end" fill="freeze" id="anim1" /></path><path d="M 9.8 2.6 L 9.8 -40.5 " transform="translate(0.0 38.0)" stroke-dasharray="43.1" stroke-dashoffset="43.1"><animate attributeName="stroke-dashoffset" from="43.1" to="0" dur="1.293s" begin="anim1.end" fill="freeze" id="anim2" /></path><path d="M 17.9 0.7 C 25.5 0.3 34.0 -0.4 42.0 -1.6 " transform="translate(0.0 38.0)" stroke-dasharray="24.21859907986507" stroke-dashoffset="24.21859907986507"><animate attributeName="stroke-dashoffset" from="24.21859907986507" to="0" dur="0.726557972395952s" begin="anim2.end" fill="freeze" id="anim3" /></path><path d="M 15.0 -18.1 C 13.8 -19.9 12.4 -21.4 10.5 -22.9 " transform="translate(0.0 38.0)" stroke-dasharray="6.608293682419723" stroke-dashoffset="6.608293682419723"><animate attributeName="stroke-dashoffset" from="6.608293682419723" to="0" dur="0.19824881047259169s" begin="anim3.end" fill="freeze" id="anim4" /></path><path d="M 14.8 -29.2 L 3.1 -29.2 " transform="translate(0.0 38.0)" stroke-dasharray="11.700000000000001" stroke-dashoffset="11.700000000000001"><animate attributeName="stroke-dashoffset" from="11.700000000000001" to="0" dur="0.35100000000000003s" begin="anim4.end" fill="freeze" id="anim5" /></path><path d="M 31.6 0.5 L 31.6 -19.6 " transform="translate(0.0 38.0)" stroke-dasharray="20.1" stroke-dashoffset="20.1"><animate attributeName="stroke-dashoffset" from="20.1" to="0" dur="0.603s" begin="anim5.end" fill="freeze" id="anim6" /></path><path d="M 25.1 -7.0 L 38.7 -7.0 C 41.0 -7.0 41.8 -7.8 41.8 -9.4 L 41.8 -11.4 C 41.8 -13.1 41.0 -13.8 38.7 -13.8 L 25.1 -13.8 C 22.7 -13.8 22.0 -13.1 22.0 -11.4 L 22.0 -9.4 C 22.0 -7.8 22.7 -7.0 25.1 -7.0 Z " transform="translate(0.0 38.0)" stroke-dasharray="49.412567403161056" stroke-dashoffset="49.412567403161056"><animate attributeName="stroke-dashoffset" from="49.412567403161056" to="0" dur="1.4823770220948316s" begin="anim6.end" fill="freeze" id="anim7" /></path><path d="M 44.6 0.8 C 43.1 -1.1 41.2 -3.0 39.7 -4.3 " transform="translate(0.0 38.0)" stroke-dasharray="7.081951786820455" stroke-dashoffset="7.081951786820455"><animate attributeName="stroke-dashoffset" from="7.081951786820455" to="0" dur="0.21245855360461366s" begin="anim7.end" fill="freeze" id="anim8" /></path><path d="M 19.4 -23.0 C 20.1 -23.9 20.9 -25.4 21.6 -26.8 " transform="translate(0.0 38.0)" stroke-dasharray="4.39687638992822" stroke-dashoffset="4.39687638992822"><animate attributeName="stroke-dashoffset" from="4.39687638992822" to="0" dur="0.1319062916978466s" begin="anim8.end" fill="freeze" id="anim9" /></path><path d="M 39.0 -23.3 C 38.7 -20.6 37.6 -19.6 32.2 -19.6 C 27.6 -19.6 26.7 -20.3 26.7 -22.7 L 26.7 -28.8 " transform="translate(0.0 38.0)" stroke-dasharray="22.25819939398408" stroke-dashoffset="22.25819939398408"><animate attributeName="stroke-dashoffset" from="22.25819939398408" to="0" dur="0.6677459818195224s" begin="anim9.end" fill="freeze" id="anim10" /></path><path d="M 31.9 -30.4 C 31.4 -31.1 30.6 -31.9 29.9 -32.5 " transform="translate(0.0 38.0)" stroke-dasharray="2.906201220023458" stroke-dashoffset="2.906201220023458"><animate attributeName="stroke-dashoffset" from="2.906201220023458" to="0" dur="0.08718603660070373s" begin="anim10.end" fill="freeze" id="anim11" /></path><path d="M 44.4 -31.2 L 44.4 -32.9 C 44.4 -34.8 43.8 -35.9 41.0 -35.9 L 22.8 -35.9 C 20.0 -35.9 19.4 -34.8 19.4 -32.9 L 19.4 -30.9 " transform="translate(0.0 38.0)" stroke-dasharray="32.501668914153086" stroke-dashoffset="32.501668914153086"><animate attributeName="stroke-dashoffset" from="32.501668914153086" to="0" dur="0.9750500674245925s" begin="anim11.end" fill="freeze" id="anim12" /></path><path d="M 45.5 -22.8 C 44.8 -24.0 43.5 -25.6 42.5 -26.6 " transform="translate(0.0 38.0)" stroke-dasharray="4.852137961943147" stroke-dashoffset="4.852137961943147"><animate attributeName="stroke-dashoffset" from="4.852137961943147" to="0" dur="0.14556413885829442s" begin="anim12.end" fill="freeze" id="anim13" /></path><path d="M 31.6 -35.5 L 31.6 -40.5" transform="translate(0.0 38.0)" stroke-dasharray="5.0" stroke-dashoffset="5.0"><animate attributeName="stroke-dashoffset" from="5.0" to="0" dur="0.15s" begin="anim13.end" fill="freeze" id="anim_end" /></path></g></svg>