<?xml version='1.0' encoding='utf-8'?>
<svg viewBox="0.0 -6.0 50.0 50.0" version="1.1" xmlns="http://www.w3.org/2000/svg"><rect x="-1000" y="-1000" width="2000" height="2000" stroke="white" fill="white" /><g style="fill:none;stroke:#000000;stroke-width:1"><path d="M 8.6 -6.0 L 18.9 -6.0 C 21.0 -6.0 21.8 -6.6 21.8 -8.3 L 21.8 -12.7 C 21.8 -14.3 21.1 -15.0 18.9 -15.0 L 11.1 -15.0 C 8.9 -15.0 8.1 -14.4 8.1 -12.8 L 8.1 1.0 " transform="translate(0.0 38.0)" stroke-dasharray="49.239349967394624" stroke-dashoffset="49.239349967394624"><animate attributeName="stroke-dashoffset" from="49.239349967394624" to="0" dur="1.4771804990218387s" begin="0s" fill="freeze" /></path><path d="M 3.7 1.9 C 9.2 1.4 14.4 0.7 19.6 -0.5 " transform="translate(0.0 38.0)" stroke-dasharray="16.092835281259774" stroke-dashoffset="16.092835281259774"><animate attributeName="stroke-dashoffset" from="16.092835281259774" to="0" dur="0.4827850584377932s" begin="1.4771804990218387s" fill="freeze" /></path><path d="M 22.2 1.4 C 20.9 -0.2 18.8 -2.4 17.5 -3.5 " transform="translate(0.0 38.0)" stroke-dasharray="6.796880584997753" stroke-dashoffset="6.796880584997753"><animate attributeName="stroke-dashoffset" from="6.796880584997753" to="0" dur="0.20390641754993258s" begin="1.9599655574596317s" fill="freeze" /></path><path d="M 8.8 -10.5 L 21.4 -10.5 " transform="translate(0.0 38.0)" stroke-dasharray="12.599999999999998" stroke-dashoffset="12.599999999999998"><animate attributeName="stroke-dashoffset" from="12.599999999999998" to="0" dur="0.37799999999999995s" begin="2.1638719750095645s" fill="freeze" /></path><path d="M 32.8 -3.5 C 31.9 -4.5 30.8 -5.6 29.8 -6.4 " transform="translate(0.0 38.0)" stroke-dasharray="4.17676583909052" stroke-dashoffset="4.17676583909052"><animate attributeName="stroke-dashoffset" from="4.17676583909052" to="0" dur="0.1253029751727156s" begin="2.5418719750095646s" fill="freeze" /></path><path d="M 3.5 -28.4 C 6.2 -30.4 8.8 -32.9 10.4 -35.4 " transform="translate(0.0 38.0)" stroke-dasharray="9.879483320922267" stroke-dashoffset="9.879483320922267"><animate attributeName="stroke-dashoffset" from="9.879483320922267" to="0" dur="0.296384499627668s" begin="2.66717495018228s" fill="freeze" /></path><path d="M 19.1 -19.1 L 19.1 -24.6 " transform="translate(0.0 38.0)" stroke-dasharray="5.5" stroke-dashoffset="5.5"><animate attributeName="stroke-dashoffset" from="5.5" to="0" dur="0.16499999999999998s" begin="2.963559449809948s" fill="freeze" /></path><path d="M 34.4 2.0 C 35.5 2.2 36.2 2.2 37.0 2.2 C 39.1 2.2 40.0 1.6 40.0 -0.7 L 40.0 -15.2 " transform="translate(0.0 38.0)" stroke-dasharray="22.018090826185713" stroke-dashoffset="22.018090826185713"><animate attributeName="stroke-dashoffset" from="22.018090826185713" to="0" dur="0.6605427247855713s" begin="3.128559449809948s" fill="freeze" /></path><path d="M 11.7 -28.4 L 11.7 -40.8 " transform="translate(0.0 38.0)" stroke-dasharray="12.399999999999999" stroke-dashoffset="12.399999999999999"><animate attributeName="stroke-dashoffset" from="12.399999999999999" to="0" dur="0.37199999999999994s" begin="3.789102174595519s" fill="freeze" /></path><path d="M 10.9 -19.3 L 39.3 -19.3 C 41.7 -19.3 42.3 -19.9 42.3 -21.4 L 42.3 -22.9 C 42.3 -24.3 41.7 -24.9 39.3 -24.9 L 10.9 -24.9 C 8.5 -24.9 7.9 -24.3 7.9 -22.9 L 7.9 -21.4 C 7.9 -19.9 8.5 -19.3 10.9 -19.3 Z " transform="translate(0.0 38.0)" stroke-dasharray="76.73310119929128" stroke-dashoffset="76.73310119929128"><animate attributeName="stroke-dashoffset" from="76.73310119929128" to="0" dur="2.3019930359787386s" begin="4.161102174595519s" fill="freeze" /></path><path d="M 4.0 -36.9 L 16.9 -36.9 " transform="translate(0.0 38.0)" stroke-dasharray="12.899999999999999" stroke-dashoffset="12.899999999999999"><animate attributeName="stroke-dashoffset" from="12.899999999999999" to="0" dur="0.38699999999999996s" begin="6.463095210574258s" fill="freeze" /></path><path d="M 26.6 -11.3 L 46.2 -11.3 " transform="translate(0.0 38.0)" stroke-dasharray="19.6" stroke-dashoffset="19.6"><animate attributeName="stroke-dashoffset" from="19.6" to="0" dur="0.588s" begin="6.850095210574257s" fill="freeze" /></path><path d="M 30.7 -19.1 L 30.7 -24.6 " transform="translate(0.0 38.0)" stroke-dasharray="5.5" stroke-dashoffset="5.5"><animate attributeName="stroke-dashoffset" from="5.5" to="0" dur="0.16499999999999998s" begin="7.438095210574257s" fill="freeze" /></path><path d="M 19.9 -28.1 C 22.8 -29.1 26.3 -31.1 28.8 -33.2 " transform="translate(0.0 38.0)" stroke-dasharray="10.307957911169733" stroke-dashoffset="10.307957911169733"><animate attributeName="stroke-dashoffset" from="10.307957911169733" to="0" dur="0.309238737335092s" begin="7.603095210574257s" fill="freeze" /></path><path d="M 27.9 -28.6 C 26.1 -30.1 23.9 -31.6 22.1 -32.5 " transform="translate(0.0 38.0)" stroke-dasharray="7.003040877624002" stroke-dashoffset="7.003040877624002"><animate attributeName="stroke-dashoffset" from="7.003040877624002" to="0" dur="0.21009122632872007s" begin="7.9123339479093495s" fill="freeze" /></path><path d="M 20.1 -35.0 C 23.0 -36.3 26.1 -38.6 28.2 -40.8 " transform="translate(0.0 38.0)" stroke-dasharray="10.0180366010459" stroke-dashoffset="10.0180366010459"><animate attributeName="stroke-dashoffset" from="10.0180366010459" to="0" dur="0.30054109803137696s" begin="8.122425174238069s" fill="freeze" /></path><path d="M 27.6 -36.4 C 25.6 -37.9 23.4 -39.2 21.6 -40.0 " transform="translate(0.0 38.0)" stroke-dasharray="7.010714373171073" stroke-dashoffset="7.010714373171073"><animate attributeName="stroke-dashoffset" from="7.010714373171073" to="0" dur="0.21032143119513216s" begin="8.422966272269447s" fill="freeze" /></path><path d="M 31.6 -29.9 C 33.5 -31.4 35.4 -33.2 37.1 -35.9 " transform="translate(0.0 38.0)" stroke-dasharray="8.181743962716974" stroke-dashoffset="8.181743962716974"><animate attributeName="stroke-dashoffset" from="8.181743962716974" to="0" dur="0.2454523188815092s" begin="8.633287703464578s" fill="freeze" /></path><path d="M 38.1 -28.4 L 38.1 -40.8 " transform="translate(0.0 38.0)" stroke-dasharray="12.399999999999999" stroke-dashoffset="12.399999999999999"><animate attributeName="stroke-dashoffset" from="12.399999999999999" to="0" dur="0.37199999999999994s" begin="8.878740022346088s" fill="freeze" /></path><path d="M 46.0 -30.0 C 43.5 -31.4 40.9 -33.5 39.0 -36.0 " transform="translate(0.0 38.0)" stroke-dasharray="9.281489298385594" stroke-dashoffset="9.281489298385594"><animate attributeName="stroke-dashoffset" from="9.281489298385594" to="0" dur="0.2784446789515678s" begin="9.250740022346088s" fill="freeze" /></path><path d="M 32.5 -36.9 L 45.6 -36.9 " transform="translate(0.0 38.0)" stroke-dasharray="13.100000000000001" stroke-dashoffset="13.100000000000001"><animate attributeName="stroke-dashoffset" from="13.100000000000001" to="0" dur="0.393s" begin="9.529184701297655s" fill="freeze" /></path><path d="M 12.3 -33.6 C 13.8 -32.8 15.3 -31.8 16.9 -30.9" transform="translate(0.0 38.0)" stroke-dasharray="5.334401277477197" stroke-dashoffset="5.334401277477197"><animate attributeName="stroke-dashoffset" from="5.334401277477197" to="0" dur="0.16003203832431592s" begin="9.922184701297656s" fill="freeze" /></path></g></svg>