<?xml version='1.0' encoding='utf-8'?>
<svg viewBox="0.0 -6.0 50.0 50.0" version="1.1" xmlns="http://www.w3.org/2000/svg"><rect x="-1000" y="-1000" width="2000" height="2000" stroke="white" fill="white" /><g style="fill:none;stroke:#000000;stroke-width:1"><path d="M 38.7 1.5 C 39.4 1.6 40.1 1.7 41.0 1.7 C 43.0 1.7 44.1 0.9 44.1 -1.4 L 44.1 -19.8 C 44.1 -21.9 43.1 -22.9 40.2 -22.9 L 21.1 -22.9 C 18.2 -22.9 17.2 -21.9 17.2 -19.8 L 17.2 2.5 " transform="translate(0.0 38.0)" stroke-dasharray="78.72511573492605" stroke-dashoffset="78.72511573492605"><animate attributeName="stroke-dashoffset" from="78.72511573492605" to="0" dur="2.3617534720477815s" begin="0s; 15s; 30s; 45s" fill="freeze" id="anim0" /></path><path d="M 4.9 0.6 C 7.0 -2.9 9.2 -8.2 10.4 -12.6 " transform="translate(0.0 38.0)" stroke-dasharray="14.33791251835881" stroke-dashoffset="14.33791251835881"><animate attributeName="stroke-dashoffset" from="14.33791251835881" to="0" dur="0.43013737555076426s" begin="anim0.end" fill="freeze" id="anim1" /></path><path d="M 8.1 -23.0 C 6.8 -24.4 5.0 -26.1 3.8 -26.8 " transform="translate(0.0 38.0)" stroke-dasharray="5.753906778253068" stroke-dashoffset="5.753906778253068"><animate attributeName="stroke-dashoffset" from="5.753906778253068" to="0" dur="0.17261720334759204s" begin="anim1.end" fill="freeze" id="anim2" /></path><path d="M 20.6 -5.8 C 22.1 -8.2 23.4 -11.8 23.9 -15.2 " transform="translate(0.0 38.0)" stroke-dasharray="10.025442885477505" stroke-dashoffset="10.025442885477505"><animate attributeName="stroke-dashoffset" from="10.025442885477505" to="0" dur="0.3007632865643251s" begin="anim2.end" fill="freeze" id="anim3" /></path><path d="M 26.9 -6.8 C 25.8 -9.1 24.9 -12.3 24.6 -14.8 C 24.4 -16.1 24.0 -16.6 23.0 -16.6 L 21.4 -16.6 " transform="translate(0.0 38.0)" stroke-dasharray="12.663763312566676" stroke-dashoffset="12.663763312566676"><animate attributeName="stroke-dashoffset" from="12.663763312566676" to="0" dur="0.3799128993770003s" begin="anim3.end" fill="freeze" id="anim4" /></path><path d="M 30.4 1.8 L 30.4 -28.2 " transform="translate(0.0 38.0)" stroke-dasharray="30.0" stroke-dashoffset="30.0"><animate attributeName="stroke-dashoffset" from="30.0" to="0" dur="0.8999999999999999s" begin="anim4.end" fill="freeze" id="anim5" /></path><path d="M 33.8 -5.8 C 35.3 -8.2 36.6 -11.8 37.2 -15.3 " transform="translate(0.0 38.0)" stroke-dasharray="10.14692482309674" stroke-dashoffset="10.14692482309674"><animate attributeName="stroke-dashoffset" from="10.14692482309674" to="0" dur="0.30440774469290216s" begin="anim5.end" fill="freeze" id="anim6" /></path><path d="M 10.8 -35.4 C 9.8 -36.6 8.2 -38.1 7.0 -39.0 " transform="translate(0.0 38.0)" stroke-dasharray="5.244048205037015" stroke-dashoffset="5.244048205037015"><animate attributeName="stroke-dashoffset" from="5.244048205037015" to="0" dur="0.15732144615111046s" begin="anim6.end" fill="freeze" id="anim7" /></path><path d="M 40.6 -6.6 C 39.4 -8.8 38.1 -12.4 37.9 -14.8 C 37.6 -16.1 37.2 -16.6 36.3 -16.6 L 34.6 -16.6 " transform="translate(0.0 38.0)" stroke-dasharray="13.040170914129158" stroke-dashoffset="13.040170914129158"><animate attributeName="stroke-dashoffset" from="13.040170914129158" to="0" dur="0.3912051274238747s" begin="anim7.end" fill="freeze" id="anim8" /></path><path d="M 24.4 -40.2 L 24.4 -31.5 C 24.4 -29.4 25.4 -28.9 27.2 -28.9 L 33.4 -28.9 C 35.2 -28.9 36.1 -29.4 36.1 -31.5 L 36.1 -40.2 " transform="translate(0.0 38.0)" stroke-dasharray="32.46019469850263" stroke-dashoffset="32.46019469850263"><animate attributeName="stroke-dashoffset" from="32.46019469850263" to="0" dur="0.9738058409550789s" begin="anim8.end" fill="freeze" id="anim9" /></path><path d="M 46.2 -35.5 L 16.1 -35.5" transform="translate(0.0 38.0)" stroke-dasharray="30.1" stroke-dashoffset="30.1"><animate attributeName="stroke-dashoffset" from="30.1" to="0" dur="0.903s" begin="anim9.end" fill="freeze" id="anim_end" /></path></g></svg>