<?xml version='1.0' encoding='utf-8'?>
<svg viewBox="0.0 -6.0 50.0 50.0" version="1.1" xmlns="http://www.w3.org/2000/svg"><rect x="-1000" y="-1000" width="2000" height="2000" stroke="white" fill="white" /><g style="fill:none;stroke:#000000;stroke-width:1"><path d="M 30.4 -18.6 L 21.9 -18.6 C 19.1 -18.6 18.2 -19.4 18.2 -21.6 L 18.2 -35.8 C 18.2 -38.0 19.1 -38.8 21.9 -38.8 L 30.2 -38.8 " transform="translate(0.0 38.0)" stroke-dasharray="42.154561199967624" stroke-dashoffset="42.154561199967624"><animate attributeName="stroke-dashoffset" from="42.154561199967624" to="0" dur="1.2646368359990288s" begin="0s" fill="freeze" /></path><path d="M 2.5 -10.4 C 5.0 -14.6 7.0 -20.6 8.2 -26.2 " transform="translate(0.0 38.0)" stroke-dasharray="16.863575284085034" stroke-dashoffset="16.863575284085034"><animate attributeName="stroke-dashoffset" from="16.863575284085034" to="0" dur="0.505907258522551s" begin="1.2646368359990288s" fill="freeze" /></path><path d="M 46.6 0.9 L 15.2 0.9 " transform="translate(0.0 38.0)" stroke-dasharray="31.400000000000002" stroke-dashoffset="31.400000000000002"><animate attributeName="stroke-dashoffset" from="31.400000000000002" to="0" dur="0.9420000000000001s" begin="1.7705440945215798s" fill="freeze" /></path><path d="M 14.7 -16.6 C 13.5 -18.4 11.8 -20.3 10.0 -21.9 " transform="translate(0.0 38.0)" stroke-dasharray="7.101993615241806" stroke-dashoffset="7.101993615241806"><animate attributeName="stroke-dashoffset" from="7.101993615241806" to="0" dur="0.21305980845725417s" begin="2.7125440945215797s" fill="freeze" /></path><path d="M 27.8 0.2 L 27.8 -11.6 " transform="translate(0.0 38.0)" stroke-dasharray="11.799999999999999" stroke-dashoffset="11.799999999999999"><animate attributeName="stroke-dashoffset" from="11.799999999999999" to="0" dur="0.354s" begin="2.925603902978834s" fill="freeze" /></path><path d="M 13.9 -29.4 L 2.9 -29.4 " transform="translate(0.0 38.0)" stroke-dasharray="11.0" stroke-dashoffset="11.0"><animate attributeName="stroke-dashoffset" from="11.0" to="0" dur="0.32999999999999996s" begin="3.279603902978834s" fill="freeze" /></path><path d="M 42.4 -0.1 L 42.4 -8.9 C 42.4 -11.2 41.5 -12.2 38.6 -12.2 L 24.4 -12.2 C 21.6 -12.2 20.6 -11.2 20.6 -8.9 L 20.6 -0.1 " transform="translate(0.0 38.0)" stroke-dasharray="43.53347711375523" stroke-dashoffset="43.53347711375523"><animate attributeName="stroke-dashoffset" from="43.53347711375523" to="0" dur="1.3060043134126569s" begin="3.6096039029788343s" fill="freeze" /></path><path d="M 35.0 0.2 L 35.0 -11.6 " transform="translate(0.0 38.0)" stroke-dasharray="11.799999999999999" stroke-dashoffset="11.799999999999999"><animate attributeName="stroke-dashoffset" from="11.799999999999999" to="0" dur="0.354s" begin="4.915608216391491s" fill="freeze" /></path><path d="M 24.9 -19.4 L 24.9 -25.2 " transform="translate(0.0 38.0)" stroke-dasharray="5.800000000000001" stroke-dashoffset="5.800000000000001"><animate attributeName="stroke-dashoffset" from="5.800000000000001" to="0" dur="0.17400000000000002s" begin="5.269608216391491s" fill="freeze" /></path><path d="M 18.6 -25.8 L 27.1 -25.8 C 28.9 -25.8 29.6 -26.4 29.6 -27.9 L 29.6 -29.9 C 29.6 -31.4 28.9 -31.9 27.1 -31.9 L 18.6 -31.9 " transform="translate(0.0 38.0)" stroke-dasharray="26.530334677747074" stroke-dashoffset="26.530334677747074"><animate attributeName="stroke-dashoffset" from="26.530334677747074" to="0" dur="0.7959100403324122s" begin="5.443608216391492s" fill="freeze" /></path><path d="M 24.9 -32.6 L 24.9 -38.1 " transform="translate(0.0 38.0)" stroke-dasharray="5.5" stroke-dashoffset="5.5"><animate attributeName="stroke-dashoffset" from="5.5" to="0" dur="0.16499999999999998s" begin="6.239518256723904s" fill="freeze" /></path><path d="M 44.4 -22.6 L 35.5 -22.6 " transform="translate(0.0 38.0)" stroke-dasharray="8.899999999999999" stroke-dashoffset="8.899999999999999"><animate attributeName="stroke-dashoffset" from="8.899999999999999" to="0" dur="0.26699999999999996s" begin="6.404518256723904s" fill="freeze" /></path><path d="M 34.4 -28.8 C 36.1 -31.6 37.8 -35.4 38.7 -39.0 " transform="translate(0.0 38.0)" stroke-dasharray="11.107495882737654" stroke-dashoffset="11.107495882737654"><animate attributeName="stroke-dashoffset" from="11.107495882737654" to="0" dur="0.3332248764821296s" begin="6.671518256723904s" fill="freeze" /></path><path d="M 46.4 -32.3 L 35.6 -32.3 " transform="translate(0.0 38.0)" stroke-dasharray="10.799999999999997" stroke-dashoffset="10.799999999999997"><animate attributeName="stroke-dashoffset" from="10.799999999999997" to="0" dur="0.3239999999999999s" begin="7.004743133206034s" fill="freeze" /></path><path d="M 9.3 2.6 L 9.3 -40.4" transform="translate(0.0 38.0)" stroke-dasharray="43.0" stroke-dashoffset="43.0"><animate attributeName="stroke-dashoffset" from="43.0" to="0" dur="1.29s" begin="7.328743133206034s" fill="freeze" /></path></g></svg>