<?xml version='1.0' encoding='utf-8'?>
<svg viewBox="0.0 -6.0 50.0 50.0" version="1.1" xmlns="http://www.w3.org/2000/svg"><rect x="-1000" y="-1000" width="2000" height="2000" stroke="white" fill="white" /><g style="fill:none;stroke:#000000;stroke-width:1"><path d="M 3.8 -5.5 C 11.5 -8.6 18.1 -14.2 22.1 -20.6 " transform="translate(0.0 38.0)" stroke-dasharray="24.107049309243628" stroke-dashoffset="24.107049309243628"><animate attributeName="stroke-dashoffset" from="24.107049309243628" to="0" dur="0.7232114792773088s" begin="0s; 15s; 30s; 45s" fill="freeze" id="anim0" /></path><path d="M 11.3 -1.2 C 12.8 -2.8 13.9 -4.4 14.9 -6.2 " transform="translate(0.0 38.0)" stroke-dasharray="6.177617997513413" stroke-dashoffset="6.177617997513413"><animate attributeName="stroke-dashoffset" from="6.177617997513413" to="0" dur="0.18532853992540238s" begin="anim0.end" fill="freeze" id="anim1" /></path><path d="M 16.9 2.5 C 17.6 2.7 18.6 2.8 19.4 2.8 C 21.2 2.8 22.1 2.1 22.1 0.2 L 22.1 -10.7 " transform="translate(0.0 38.0)" stroke-dasharray="17.768275170466694" stroke-dashoffset="17.768275170466694"><animate attributeName="stroke-dashoffset" from="17.768275170466694" to="0" dur="0.5330482551140008s" begin="anim1.end" fill="freeze" id="anim2" /></path><path d="M 31.3 -0.9 C 30.6 -2.6 29.6 -4.5 28.4 -6.2 " transform="translate(0.0 38.0)" stroke-dasharray="6.053629469992717" stroke-dashoffset="6.053629469992717"><animate attributeName="stroke-dashoffset" from="6.053629469992717" to="0" dur="0.1816088840997815s" begin="anim2.end" fill="freeze" id="anim3" /></path><path d="M 46.0 -15.8 L 4.2 -15.8 " transform="translate(0.0 38.0)" stroke-dasharray="41.8" stroke-dashoffset="41.8"><animate attributeName="stroke-dashoffset" from="41.8" to="0" dur="1.2539999999999998s" begin="anim3.end" fill="freeze" id="anim4" /></path><path d="M 39.9 -0.9 C 39.0 -2.8 37.6 -4.8 36.2 -6.5 " transform="translate(0.0 38.0)" stroke-dasharray="6.727918875915024" stroke-dashoffset="6.727918875915024"><animate attributeName="stroke-dashoffset" from="6.727918875915024" to="0" dur="0.2018375662774507s" begin="anim4.end" fill="freeze" id="anim5" /></path><path d="M 46.1 -6.5 C 41.0 -8.2 35.5 -11.7 32.2 -15.7 " transform="translate(0.0 38.0)" stroke-dasharray="16.864739813959595" stroke-dashoffset="16.864739813959595"><animate attributeName="stroke-dashoffset" from="16.864739813959595" to="0" dur="0.5059421944187878s" begin="anim5.end" fill="freeze" id="anim6" /></path><path d="M 16.1 -20.9 L 34.1 -20.9 C 36.7 -20.9 37.5 -21.6 37.5 -23.3 L 37.5 -28.9 C 37.5 -30.5 36.7 -31.3 34.1 -31.3 L 16.1 -31.3 C 13.6 -31.3 12.8 -30.5 12.8 -28.9 L 12.8 -23.3 C 12.8 -21.6 13.6 -20.9 16.1 -20.9 Z " transform="translate(0.0 38.0)" stroke-dasharray="66.2861890458204" stroke-dashoffset="66.2861890458204"><animate attributeName="stroke-dashoffset" from="66.2861890458204" to="0" dur="1.9885856713746117s" begin="anim6.end" fill="freeze" id="anim7" /></path><path d="M 38.0 -26.1 L 13.2 -26.1 " transform="translate(0.0 38.0)" stroke-dasharray="24.8" stroke-dashoffset="24.8"><animate attributeName="stroke-dashoffset" from="24.8" to="0" dur="0.744s" begin="anim7.end" fill="freeze" id="anim8" /></path><path d="M 18.6 -34.8 L 18.6 -41.1 " transform="translate(0.0 38.0)" stroke-dasharray="6.300000000000004" stroke-dashoffset="6.300000000000004"><animate attributeName="stroke-dashoffset" from="6.300000000000004" to="0" dur="0.1890000000000001s" begin="anim8.end" fill="freeze" id="anim9" /></path><path d="M 45.0 -37.6 L 5.3 -37.6 " transform="translate(0.0 38.0)" stroke-dasharray="39.7" stroke-dashoffset="39.7"><animate attributeName="stroke-dashoffset" from="39.7" to="0" dur="1.191s" begin="anim9.end" fill="freeze" id="anim10" /></path><path d="M 31.4 -34.8 L 31.4 -41.1" transform="translate(0.0 38.0)" stroke-dasharray="6.300000000000004" stroke-dashoffset="6.300000000000004"><animate attributeName="stroke-dashoffset" from="6.300000000000004" to="0" dur="0.1890000000000001s" begin="anim10.end" fill="freeze" id="anim_end" /></path></g></svg>