<?xml version='1.0' encoding='utf-8'?>
<svg viewBox="0.0 -6.0 50.0 50.0" version="1.1" xmlns="http://www.w3.org/2000/svg"><rect x="-1000" y="-1000" width="2000" height="2000" stroke="white" fill="white" /><g style="fill:none;stroke:#000000;stroke-width:1"><path d="M 41.9 -14.1 C 43.2 -15.6 44.5 -17.4 45.2 -19.1 C 46.2 -20.9 45.5 -22.3 43.1 -22.3 L 19.8 -22.3 " transform="translate(0.0 38.0)" stroke-dasharray="34.322532643968486" stroke-dashoffset="34.322532643968486"><animate attributeName="stroke-dashoffset" from="34.322532643968486" to="0" dur="1.0296759793190546s" begin="0s" fill="freeze" /></path><path d="M 3.0 -9.4 C 6.1 -14.0 8.7 -20.3 10.1 -26.2 " transform="translate(0.0 38.0)" stroke-dasharray="18.32902521613057" stroke-dashoffset="18.32902521613057"><animate attributeName="stroke-dashoffset" from="18.32902521613057" to="0" dur="0.5498707564839171s" begin="1.0296759793190546s" fill="freeze" /></path><path d="M 17.2 -15.1 C 16.0 -16.8 14.2 -18.6 12.1 -19.9 " transform="translate(0.0 38.0)" stroke-dasharray="7.048402764768008" stroke-dashoffset="7.048402764768008"><animate attributeName="stroke-dashoffset" from="7.048402764768008" to="0" dur="0.21145208294304024s" begin="1.5795467358029718s" fill="freeze" /></path><path d="M 25.9 1.3 C 26.9 1.5 27.9 1.6 28.9 1.6 C 31.2 1.6 32.5 0.6 32.5 -2.1 L 32.5 -22.2 " transform="translate(0.0 38.0)" stroke-dasharray="29.077259375865943" stroke-dashoffset="29.077259375865943"><animate attributeName="stroke-dashoffset" from="29.077259375865943" to="0" dur="0.8723177812759783s" begin="1.790998818746012s" fill="freeze" /></path><path d="M 17.2 -29.0 L 3.9 -29.0 " transform="translate(0.0 38.0)" stroke-dasharray="13.299999999999999" stroke-dashoffset="13.299999999999999"><animate attributeName="stroke-dashoffset" from="13.299999999999999" to="0" dur="0.39899999999999997s" begin="2.6633166000219903s" fill="freeze" /></path><path d="M 35.0 -25.6 C 32.7 -27.7 29.6 -30.1 27.4 -31.4 " transform="translate(0.0 38.0)" stroke-dasharray="9.57409946191017" stroke-dashoffset="9.57409946191017"><animate attributeName="stroke-dashoffset" from="9.57409946191017" to="0" dur="0.28722298385730505s" begin="3.0623166000219904s" fill="freeze" /></path><path d="M 31.3 -28.1 C 34.6 -29.8 37.3 -31.6 39.9 -33.9 C 41.9 -35.5 41.1 -37.7 38.5 -37.7 L 22.8 -37.7 " transform="translate(0.0 38.0)" stroke-dasharray="31.918400738151607" stroke-dashoffset="31.918400738151607"><animate attributeName="stroke-dashoffset" from="31.918400738151607" to="0" dur="0.9575520221445482s" begin="3.349539583879295s" fill="freeze" /></path><path d="M 11.2 2.6 L 11.2 -40.5" transform="translate(0.0 38.0)" stroke-dasharray="43.1" stroke-dashoffset="43.1"><animate attributeName="stroke-dashoffset" from="43.1" to="0" dur="1.293s" begin="4.307091606023843s" fill="freeze" /></path></g></svg>