<?xml version='1.0' encoding='utf-8'?>
<svg viewBox="0.0 -6.0 50.0 50.0" version="1.1" xmlns="http://www.w3.org/2000/svg"><rect x="-1000" y="-1000" width="2000" height="2000" stroke="white" fill="white" /><g style="fill:none;stroke:#000000;stroke-width:1"><path d="M 25.9 2.5 L 25.9 -14.4 C 25.9 -16.2 26.6 -17.1 28.9 -17.1 L 45.1 -17.1 " transform="translate(0.0 38.0)" stroke-dasharray="37.79946826484578" stroke-dashoffset="37.79946826484578"><animate attributeName="stroke-dashoffset" from="37.79946826484578" to="0" dur="1.1339840479453733s" begin="0s; anim_end.end" fill="freeze" id="anim0" /></path><path d="M 5.1 -16.4 L 5.1 -5.3 C 5.1 -2.8 6.1 -2.1 8.6 -2.1 L 14.1 -2.1 C 16.4 -2.1 17.4 -2.8 17.4 -5.3 L 17.4 -16.4 " transform="translate(0.0 38.0)" stroke-dasharray="38.666356267957916" stroke-dashoffset="38.666356267957916"><animate attributeName="stroke-dashoffset" from="38.666356267957916" to="0" dur="1.1599906880387374s" begin="anim0.end" fill="freeze" id="anim1" /></path><path d="M 11.2 -2.3 L 11.2 -33.7 " transform="translate(0.0 38.0)" stroke-dasharray="31.400000000000002" stroke-dashoffset="31.400000000000002"><animate attributeName="stroke-dashoffset" from="31.400000000000002" to="0" dur="0.9420000000000001s" begin="anim1.end" fill="freeze" id="anim2" /></path><path d="M 18.7 -23.4 L 3.1 -23.4 " transform="translate(0.0 38.0)" stroke-dasharray="15.6" stroke-dashoffset="15.6"><animate attributeName="stroke-dashoffset" from="15.6" to="0" dur="0.46799999999999997s" begin="anim2.end" fill="freeze" id="anim3" /></path><path d="M 46.0 0.1 L 26.4 0.1 " transform="translate(0.0 38.0)" stroke-dasharray="19.6" stroke-dashoffset="19.6"><animate attributeName="stroke-dashoffset" from="19.6" to="0" dur="0.588s" begin="anim3.end" fill="freeze" id="anim4" /></path><path d="M 21.4 -11.0 C 23.6 -13.5 25.9 -17.4 27.2 -20.6 " transform="translate(0.0 38.0)" stroke-dasharray="11.260807079631515" stroke-dashoffset="11.260807079631515"><animate attributeName="stroke-dashoffset" from="11.260807079631515" to="0" dur="0.33782421238894544s" begin="anim4.end" fill="freeze" id="anim5" /></path><path d="M 3.7 -29.0 C 5.2 -31.8 6.8 -36.4 7.5 -40.2 " transform="translate(0.0 38.0)" stroke-dasharray="11.865907267849382" stroke-dashoffset="11.865907267849382"><animate attributeName="stroke-dashoffset" from="11.865907267849382" to="0" dur="0.35597721803548144s" begin="anim5.end" fill="freeze" id="anim6" /></path><path d="M 43.2 -5.8 L 25.9 -5.8 " transform="translate(0.0 38.0)" stroke-dasharray="17.300000000000004" stroke-dashoffset="17.300000000000004"><animate attributeName="stroke-dashoffset" from="17.300000000000004" to="0" dur="0.5190000000000001s" begin="anim6.end" fill="freeze" id="anim7" /></path><path d="M 35.1 0.3 L 35.1 -16.0 " transform="translate(0.0 38.0)" stroke-dasharray="16.3" stroke-dashoffset="16.3"><animate attributeName="stroke-dashoffset" from="16.3" to="0" dur="0.489s" begin="anim7.end" fill="freeze" id="anim8" /></path><path d="M 17.4 -34.0 L 6.0 -34.0 " transform="translate(0.0 38.0)" stroke-dasharray="11.399999999999999" stroke-dashoffset="11.399999999999999"><animate attributeName="stroke-dashoffset" from="11.399999999999999" to="0" dur="0.34199999999999997s" begin="anim8.end" fill="freeze" id="anim9" /></path><path d="M 43.2 -11.5 L 25.9 -11.5 " transform="translate(0.0 38.0)" stroke-dasharray="17.300000000000004" stroke-dashoffset="17.300000000000004"><animate attributeName="stroke-dashoffset" from="17.300000000000004" to="0" dur="0.5190000000000001s" begin="anim9.end" fill="freeze" id="anim10" /></path><path d="M 31.0 -26.2 L 31.0 -28.1 C 31.0 -29.5 30.2 -30.3 28.9 -30.3 L 25.4 -30.3 C 24.1 -30.3 23.3 -29.5 23.3 -28.1 L 23.3 -26.2 C 23.3 -24.8 24.1 -23.9 25.4 -23.9 L 28.9 -23.9 C 30.2 -23.9 31.0 -24.8 31.0 -26.2 Z " transform="translate(0.0 38.0)" stroke-dasharray="24.73850414903556" stroke-dashoffset="24.73850414903556"><animate attributeName="stroke-dashoffset" from="24.73850414903556" to="0" dur="0.7421551244710668s" begin="anim10.end" fill="freeze" id="anim11" /></path><path d="M 34.5 -16.9 C 35.1 -18.2 35.6 -19.4 36.1 -20.6 " transform="translate(0.0 38.0)" stroke-dasharray="4.031393599886003" stroke-dashoffset="4.031393599886003"><animate attributeName="stroke-dashoffset" from="4.031393599886003" to="0" dur="0.12094180799658008s" begin="anim11.end" fill="freeze" id="anim12" /></path><path d="M 29.0 -33.9 L 29.0 -40.4 " transform="translate(0.0 38.0)" stroke-dasharray="6.5" stroke-dashoffset="6.5"><animate attributeName="stroke-dashoffset" from="6.5" to="0" dur="0.195s" begin="anim12.end" fill="freeze" id="anim13" /></path><path d="M 36.6 -28.1 L 36.6 -26.2 C 36.6 -24.8 37.4 -23.9 38.8 -23.9 L 42.3 -23.9 C 43.6 -23.9 44.5 -24.8 44.5 -26.2 L 44.5 -28.1 C 44.5 -29.5 43.6 -30.3 42.3 -30.3 L 38.8 -30.3 C 37.4 -30.3 36.6 -29.5 36.6 -28.1 Z " transform="translate(0.0 38.0)" stroke-dasharray="25.04496971457637" stroke-dashoffset="25.04496971457637"><animate attributeName="stroke-dashoffset" from="25.04496971457637" to="0" dur="0.7513490914372911s" begin="anim13.end" fill="freeze" id="anim14" /></path><path d="M 46.0 -37.0 L 21.8 -37.0 " transform="translate(0.0 38.0)" stroke-dasharray="24.2" stroke-dashoffset="24.2"><animate attributeName="stroke-dashoffset" from="24.2" to="0" dur="0.726s" begin="anim14.end" fill="freeze" id="anim15" /></path><path d="M 38.0 -34.0 L 38.0 -40.4" transform="translate(0.0 38.0)" stroke-dasharray="6.399999999999999" stroke-dashoffset="6.399999999999999"><animate attributeName="stroke-dashoffset" from="6.399999999999999" to="0" dur="0.19199999999999995s" begin="anim15.end" fill="freeze" id="anim_end" /></path></g></svg>