<?xml version='1.0' encoding='utf-8'?>
<svg viewBox="0.0 -6.0 50.0 50.0" version="1.1" xmlns="http://www.w3.org/2000/svg"><rect x="-1000" y="-1000" width="2000" height="2000" stroke="white" fill="white" /><g style="fill:none;stroke:#000000;stroke-width:1"><path d="M 28.2 1.2 L 38.1 1.2 C 41.0 1.2 42.1 0.2 42.1 -2.1 L 42.1 -8.4 C 42.1 -10.8 41.0 -11.8 38.1 -11.8 L 28.2 -11.8 C 25.3 -11.8 24.2 -10.8 24.2 -8.4 L 24.2 -2.1 C 24.2 0.2 25.3 1.2 28.2 1.2 Z " transform="translate(0.0 38.0)" stroke-dasharray="56.62892237726484" stroke-dashoffset="56.62892237726484"><animate attributeName="stroke-dashoffset" from="56.62892237726484" to="0" dur="1.6988676713179451s" begin="0s; anim_end.end" fill="freeze" id="anim0" /></path><path d="M 3.3 -13.3 C 8.0 -14.9 13.0 -17.2 16.9 -19.6 " transform="translate(0.0 38.0)" stroke-dasharray="15.017144548276463" stroke-dashoffset="15.017144548276463"><animate attributeName="stroke-dashoffset" from="15.017144548276463" to="0" dur="0.45051433644829386s" begin="anim0.end" fill="freeze" id="anim1" /></path><path d="M 11.4 2.5 L 11.4 -40.3 " transform="translate(0.0 38.0)" stroke-dasharray="42.8" stroke-dashoffset="42.8"><animate attributeName="stroke-dashoffset" from="42.8" to="0" dur="1.2839999999999998s" begin="anim1.end" fill="freeze" id="anim2" /></path><path d="M 2.9 -22.9 C 4.0 -26.0 5.2 -30.7 5.6 -34.8 " transform="translate(0.0 38.0)" stroke-dasharray="12.22872069519428" stroke-dashoffset="12.22872069519428"><animate attributeName="stroke-dashoffset" from="12.22872069519428" to="0" dur="0.3668616208558284s" begin="anim2.end" fill="freeze" id="anim3" /></path><path d="M 17.1 -28.7 L 4.8 -28.7 " transform="translate(0.0 38.0)" stroke-dasharray="12.3" stroke-dashoffset="12.3"><animate attributeName="stroke-dashoffset" from="12.3" to="0" dur="0.369s" begin="anim3.end" fill="freeze" id="anim4" /></path><path d="M 46.8 -19.1 L 21.1 -19.1 " transform="translate(0.0 38.0)" stroke-dasharray="25.699999999999996" stroke-dashoffset="25.699999999999996"><animate attributeName="stroke-dashoffset" from="25.699999999999996" to="0" dur="0.7709999999999998s" begin="anim4.end" fill="freeze" id="anim5" /></path><path d="M 39.9 -19.2 L 39.9 -26.4 C 39.9 -28.5 39.1 -29.4 36.1 -29.4 L 22.8 -29.4 " transform="translate(0.0 38.0)" stroke-dasharray="26.164590915902394" stroke-dashoffset="26.164590915902394"><animate attributeName="stroke-dashoffset" from="26.164590915902394" to="0" dur="0.7849377274770718s" begin="anim5.end" fill="freeze" id="anim6" /></path><path d="M 27.6 -19.4 C 29.0 -25.2 30.1 -31.4 30.9 -37.8 " transform="translate(0.0 38.0)" stroke-dasharray="18.703344881109683" stroke-dashoffset="18.703344881109683"><animate attributeName="stroke-dashoffset" from="18.703344881109683" to="0" dur="0.5611003464332904s" begin="anim6.end" fill="freeze" id="anim7" /></path><path d="M 44.2 -38.0 L 21.4 -38.0" transform="translate(0.0 38.0)" stroke-dasharray="22.800000000000004" stroke-dashoffset="22.800000000000004"><animate attributeName="stroke-dashoffset" from="22.800000000000004" to="0" dur="0.684s" begin="anim7.end" fill="freeze" id="anim_end" /></path></g></svg>