<?xml version='1.0' encoding='utf-8'?>
<svg viewBox="0.0 -6.0 50.0 50.0" version="1.1" xmlns="http://www.w3.org/2000/svg"><rect x="-1000" y="-1000" width="2000" height="2000" stroke="white" fill="white" /><g style="fill:none;stroke:#000000;stroke-width:1"><path d="M 6.2 1.1 C 7.0 1.3 8.0 1.4 8.8 1.4 C 12.3 1.4 14.8 -1.2 14.8 -11.7 C 14.8 -22.4 11.8 -29.6 5.5 -36.9 " transform="translate(0.0 38.0)" stroke-dasharray="46.20617616471601" stroke-dashoffset="46.20617616471601"><animate attributeName="stroke-dashoffset" from="46.20617616471601" to="0" dur="1.3861852849414804s" begin="0s" fill="freeze" /></path><path d="M 4.2 -9.9 C 7.6 -12.8 10.9 -17.6 13.3 -22.6 " transform="translate(0.0 38.0)" stroke-dasharray="15.72647238198294" stroke-dashoffset="15.72647238198294"><animate attributeName="stroke-dashoffset" from="15.72647238198294" to="0" dur="0.4717941714594882s" begin="1.3861852849414804s" fill="freeze" /></path><path d="M 36.3 1.7 C 37.2 1.9 38.1 2.0 39.0 2.0 C 41.0 2.0 42.1 1.1 42.1 -1.1 L 42.1 -14.9 C 42.1 -17.0 41.1 -18.0 38.5 -18.0 L 27.4 -18.0 C 24.8 -18.0 23.8 -17.0 23.8 -14.9 L 23.8 2.6 " transform="translate(0.0 38.0)" stroke-dasharray="61.16577489025019" stroke-dashoffset="61.16577489025019"><animate attributeName="stroke-dashoffset" from="61.16577489025019" to="0" dur="1.8349732467075057s" begin="1.8579794564009686s" fill="freeze" /></path><path d="M 41.5 -8.9 L 24.8 -8.9 " transform="translate(0.0 38.0)" stroke-dasharray="16.7" stroke-dashoffset="16.7"><animate attributeName="stroke-dashoffset" from="16.7" to="0" dur="0.501s" begin="3.6929527031084746s" fill="freeze" /></path><path d="M 4.3 -25.1 C 8.8 -28.6 13.6 -34.5 16.4 -39.8 " transform="translate(0.0 38.0)" stroke-dasharray="19.16272575206062" stroke-dashoffset="19.16272575206062"><animate attributeName="stroke-dashoffset" from="19.16272575206062" to="0" dur="0.5748817725618186s" begin="4.193952703108475s" fill="freeze" /></path><path d="M 32.8 -8.9 L 32.8 -17.4 " transform="translate(0.0 38.0)" stroke-dasharray="8.499999999999998" stroke-dashoffset="8.499999999999998"><animate attributeName="stroke-dashoffset" from="8.499999999999998" to="0" dur="0.25499999999999995s" begin="4.768834475670293s" fill="freeze" /></path><path d="M 46.6 -24.1 L 19.4 -24.1 " transform="translate(0.0 38.0)" stroke-dasharray="27.200000000000003" stroke-dashoffset="27.200000000000003"><animate attributeName="stroke-dashoffset" from="27.200000000000003" to="0" dur="0.8160000000000001s" begin="5.023834475670293s" fill="freeze" /></path><path d="M 42.4 -30.2 L 23.9 -30.2 " transform="translate(0.0 38.0)" stroke-dasharray="18.5" stroke-dashoffset="18.5"><animate attributeName="stroke-dashoffset" from="18.5" to="0" dur="0.5549999999999999s" begin="5.839834475670293s" fill="freeze" /></path><path d="M 32.8 -23.6 L 32.8 -40.5 " transform="translate(0.0 38.0)" stroke-dasharray="16.9" stroke-dashoffset="16.9"><animate attributeName="stroke-dashoffset" from="16.9" to="0" dur="0.5069999999999999s" begin="6.394834475670293s" fill="freeze" /></path><path d="M 45.1 -36.0 L 21.3 -36.0" transform="translate(0.0 38.0)" stroke-dasharray="23.8" stroke-dashoffset="23.8"><animate attributeName="stroke-dashoffset" from="23.8" to="0" dur="0.714s" begin="6.9018344756702925s" fill="freeze" /></path></g></svg>