<?xml version='1.0' encoding='utf-8'?>
<svg viewBox="0.0 -6.0 50.0 50.0" version="1.1" xmlns="http://www.w3.org/2000/svg"><rect x="-1000" y="-1000" width="2000" height="2000" stroke="white" fill="white" /><g style="fill:none;stroke:#000000;stroke-width:1"><path d="M 17.3 -11.4 L 17.3 -2.2 C 17.3 0.8 18.9 1.6 30.8 1.6 C 44.0 1.6 46.5 0.6 47.0 -3.7 " transform="translate(0.0 38.0)" stroke-dasharray="43.39143237095556" stroke-dashoffset="43.39143237095556"><animate attributeName="stroke-dashoffset" from="43.39143237095556" to="0" dur="1.3017429711286668s" begin="0s; anim_end.end" fill="freeze" id="anim0" /></path><path d="M 3.4 2.1 C 7.2 -0.9 9.7 -5.5 10.2 -11.2 " transform="translate(0.0 38.0)" stroke-dasharray="15.368087269727294" stroke-dashoffset="15.368087269727294"><animate attributeName="stroke-dashoffset" from="15.368087269727294" to="0" dur="0.4610426180918188s" begin="anim0.end" fill="freeze" id="anim1" /></path><path d="M 23.1 -11.8 L 3.5 -11.8 " transform="translate(0.0 38.0)" stroke-dasharray="19.6" stroke-dashoffset="19.6"><animate attributeName="stroke-dashoffset" from="19.6" to="0" dur="0.588s" begin="anim1.end" fill="freeze" id="anim2" /></path><path d="M 3.0 -16.6 C 5.4 -17.0 9.6 -18.1 11.8 -18.9 " transform="translate(0.0 38.0)" stroke-dasharray="9.10430908685296" stroke-dashoffset="9.10430908685296"><animate attributeName="stroke-dashoffset" from="9.10430908685296" to="0" dur="0.2731292726055888s" begin="anim2.end" fill="freeze" id="anim3" /></path><path d="M 12.1 -23.8 L 3.6 -23.8 " transform="translate(0.0 38.0)" stroke-dasharray="8.5" stroke-dashoffset="8.5"><animate attributeName="stroke-dashoffset" from="8.5" to="0" dur="0.255s" begin="anim3.end" fill="freeze" id="anim4" /></path><path d="M 8.0 -18.6 L 8.0 -27.5 " transform="translate(0.0 38.0)" stroke-dasharray="8.899999999999999" stroke-dashoffset="8.899999999999999"><animate attributeName="stroke-dashoffset" from="8.899999999999999" to="0" dur="0.26699999999999996s" begin="anim4.end" fill="freeze" id="anim5" /></path><path d="M 24.9 -17.4 L 15.1 -17.4 " transform="translate(0.0 38.0)" stroke-dasharray="9.799999999999999" stroke-dashoffset="9.799999999999999"><animate attributeName="stroke-dashoffset" from="9.799999999999999" to="0" dur="0.294s" begin="anim5.end" fill="freeze" id="anim6" /></path><path d="M 19.8 -17.9 L 19.8 -27.5 " transform="translate(0.0 38.0)" stroke-dasharray="9.600000000000001" stroke-dashoffset="9.600000000000001"><animate attributeName="stroke-dashoffset" from="9.600000000000001" to="0" dur="0.28800000000000003s" begin="anim6.end" fill="freeze" id="anim7" /></path><path d="M 23.9 -23.8 L 16.1 -23.8 " transform="translate(0.0 38.0)" stroke-dasharray="7.799999999999997" stroke-dashoffset="7.799999999999997"><animate attributeName="stroke-dashoffset" from="7.799999999999997" to="0" dur="0.2339999999999999s" begin="anim7.end" fill="freeze" id="anim8" /></path><path d="M 24.5 -31.1 L 3.4 -31.1 " transform="translate(0.0 38.0)" stroke-dasharray="21.1" stroke-dashoffset="21.1"><animate attributeName="stroke-dashoffset" from="21.1" to="0" dur="0.633s" begin="anim8.end" fill="freeze" id="anim9" /></path><path d="M 27.0 -11.9 C 29.4 -14.8 31.9 -19.2 33.8 -24.6 " transform="translate(0.0 38.0)" stroke-dasharray="14.475877099386775" stroke-dashoffset="14.475877099386775"><animate attributeName="stroke-dashoffset" from="14.475877099386775" to="0" dur="0.43427631298160324s" begin="anim9.end" fill="freeze" id="anim10" /></path><path d="M 13.8 -31.2 L 13.8 -40.5 " transform="translate(0.0 38.0)" stroke-dasharray="9.3" stroke-dashoffset="9.3"><animate attributeName="stroke-dashoffset" from="9.3" to="0" dur="0.279s" begin="anim10.end" fill="freeze" id="anim11" /></path><path d="M 21.9 -36.8 L 6.3 -36.8 " transform="translate(0.0 38.0)" stroke-dasharray="15.599999999999998" stroke-dashoffset="15.599999999999998"><animate attributeName="stroke-dashoffset" from="15.599999999999998" to="0" dur="0.4679999999999999s" begin="anim11.end" fill="freeze" id="anim12" /></path><path d="M 28.9 -5.0 C 29.7 -4.8 30.4 -4.8 31.2 -4.8 C 33.3 -4.8 34.1 -5.5 34.1 -7.6 L 34.1 -34.5 C 34.1 -36.6 33.4 -37.5 31.1 -37.5 L 27.6 -37.5 " transform="translate(0.0 38.0)" stroke-dasharray="42.40868414869891" stroke-dashoffset="42.40868414869891"><animate attributeName="stroke-dashoffset" from="42.40868414869891" to="0" dur="1.2722605244609673s" begin="anim12.end" fill="freeze" id="anim13" /></path><path d="M 27.5 -25.5 C 29.7 -28.4 31.6 -32.2 33.0 -36.2 " transform="translate(0.0 38.0)" stroke-dasharray="12.077474169082048" stroke-dashoffset="12.077474169082048"><animate attributeName="stroke-dashoffset" from="12.077474169082048" to="0" dur="0.3623242250724614s" begin="anim13.end" fill="freeze" id="anim14" /></path><path d="M 37.9 -13.2 C 40.2 -16.1 42.4 -20.1 44.2 -25.5 " transform="translate(0.0 38.0)" stroke-dasharray="13.88847781300158" stroke-dashoffset="13.88847781300158"><animate attributeName="stroke-dashoffset" from="13.88847781300158" to="0" dur="0.4166543343900474s" begin="anim14.end" fill="freeze" id="anim15" /></path><path d="M 39.5 -5.5 C 40.4 -5.3 41.0 -5.2 41.9 -5.2 C 44.0 -5.2 44.8 -6.0 44.8 -8.1 L 44.8 -34.5 C 44.8 -36.6 44.0 -37.5 41.7 -37.5 L 37.8 -37.5 " transform="translate(0.0 38.0)" stroke-dasharray="42.545521776016834" stroke-dashoffset="42.545521776016834"><animate attributeName="stroke-dashoffset" from="42.545521776016834" to="0" dur="1.276365653280505s" begin="anim15.end" fill="freeze" id="anim16" /></path><path d="M 38.1 -26.2 C 40.3 -29.1 42.1 -32.8 43.5 -36.7" transform="translate(0.0 38.0)" stroke-dasharray="11.851295954223424" stroke-dashoffset="11.851295954223424"><animate attributeName="stroke-dashoffset" from="11.851295954223424" to="0" dur="0.3555388786267027s" begin="anim16.end" fill="freeze" id="anim_end" /></path></g></svg>