<?xml version='1.0' encoding='utf-8'?>
<svg viewBox="0.0 -6.0 50.0 50.0" version="1.1" xmlns="http://www.w3.org/2000/svg"><rect x="-1000" y="-1000" width="2000" height="2000" stroke="white" fill="white" /><g style="fill:none;stroke:#000000;stroke-width:1"><path d="M 19.8 1.9 C 29.3 0.5 36.0 -3.8 39.2 -12.6 " transform="translate(0.0 38.0)" stroke-dasharray="25.607491652266624" stroke-dashoffset="25.607491652266624"><animate attributeName="stroke-dashoffset" from="25.607491652266624" to="0" dur="0.7682247495679987s" begin="0s; anim_end.end" fill="freeze" id="anim0" /></path><path d="M 4.5 0.7 C 8.6 -4.3 11.2 -11.2 11.2 -20.9 L 11.2 -32.0 " transform="translate(0.0 38.0)" stroke-dasharray="34.17985525655911" stroke-dashoffset="34.17985525655911"><animate attributeName="stroke-dashoffset" from="34.17985525655911" to="0" dur="1.025395657696773s" begin="anim0.end" fill="freeze" id="anim1" /></path><path d="M 17.3 -4.8 C 15.6 -6.8 12.9 -8.9 10.3 -10.6 " transform="translate(0.0 38.0)" stroke-dasharray="9.118696863981684" stroke-dashoffset="9.118696863981684"><animate attributeName="stroke-dashoffset" from="9.118696863981684" to="0" dur="0.27356090591945054s" begin="anim1.end" fill="freeze" id="anim2" /></path><path d="M 17.1 -20.8 L 3.3 -20.8 " transform="translate(0.0 38.0)" stroke-dasharray="13.8" stroke-dashoffset="13.8"><animate attributeName="stroke-dashoffset" from="13.8" to="0" dur="0.414s" begin="anim2.end" fill="freeze" id="anim3" /></path><path d="M 43.6 1.1 C 38.4 -2.1 31.9 -5.1 25.8 -7.0 " transform="translate(0.0 38.0)" stroke-dasharray="19.603606629808418" stroke-dashoffset="19.603606629808418"><animate attributeName="stroke-dashoffset" from="19.603606629808418" to="0" dur="0.5881081988942525s" begin="anim3.end" fill="freeze" id="anim4" /></path><path d="M 3.5 -27.1 C 5.4 -30.6 7.0 -35.2 7.8 -39.5 " transform="translate(0.0 38.0)" stroke-dasharray="13.173825012491028" stroke-dashoffset="13.173825012491028"><animate attributeName="stroke-dashoffset" from="13.173825012491028" to="0" dur="0.3952147503747308s" begin="anim4.end" fill="freeze" id="anim5" /></path><path d="M 24.6 -6.2 C 27.2 -9.7 29.5 -13.8 31.3 -17.9 " transform="translate(0.0 38.0)" stroke-dasharray="13.51022276767754" stroke-dashoffset="13.51022276767754"><animate attributeName="stroke-dashoffset" from="13.51022276767754" to="0" dur="0.4053066830303262s" begin="anim5.end" fill="freeze" id="anim6" /></path><path d="M 16.8 -32.4 L 5.8 -32.4 " transform="translate(0.0 38.0)" stroke-dasharray="11.0" stroke-dashoffset="11.0"><animate attributeName="stroke-dashoffset" from="11.0" to="0" dur="0.32999999999999996s" begin="anim6.end" fill="freeze" id="anim7" /></path><path d="M 46.0 -13.2 L 19.9 -13.2 " transform="translate(0.0 38.0)" stroke-dasharray="26.1" stroke-dashoffset="26.1"><animate attributeName="stroke-dashoffset" from="26.1" to="0" dur="0.783s" begin="anim7.end" fill="freeze" id="anim8" /></path><path d="M 21.0 -20.1 C 24.9 -22.3 28.5 -25.6 31.2 -29.3 " transform="translate(0.0 38.0)" stroke-dasharray="13.837208131955151" stroke-dashoffset="13.837208131955151"><animate attributeName="stroke-dashoffset" from="13.837208131955151" to="0" dur="0.41511624395865454s" begin="anim8.end" fill="freeze" id="anim9" /></path><path d="M 32.9 -21.7 L 32.9 -37.1 " transform="translate(0.0 38.0)" stroke-dasharray="15.400000000000002" stroke-dashoffset="15.400000000000002"><animate attributeName="stroke-dashoffset" from="15.400000000000002" to="0" dur="0.462s" begin="anim9.end" fill="freeze" id="anim10" /></path><path d="M 45.1 -30.2 L 21.0 -30.2 " transform="translate(0.0 38.0)" stroke-dasharray="24.1" stroke-dashoffset="24.1"><animate attributeName="stroke-dashoffset" from="24.1" to="0" dur="0.723s" begin="anim10.end" fill="freeze" id="anim11" /></path><path d="M 46.1 -20.7 C 41.8 -22.6 37.2 -25.7 34.4 -29.1 " transform="translate(0.0 38.0)" stroke-dasharray="14.520839336475198" stroke-dashoffset="14.520839336475198"><animate attributeName="stroke-dashoffset" from="14.520839336475198" to="0" dur="0.43562518009425594s" begin="anim11.end" fill="freeze" id="anim12" /></path><path d="M 23.4 -36.3 C 29.2 -36.7 36.0 -37.7 41.3 -39.1" transform="translate(0.0 38.0)" stroke-dasharray="18.141909974157763" stroke-dashoffset="18.141909974157763"><animate attributeName="stroke-dashoffset" from="18.141909974157763" to="0" dur="0.5442572992247329s" begin="anim12.end" fill="freeze" id="anim_end" /></path></g></svg>