<?xml version='1.0' encoding='utf-8'?>
<svg viewBox="0.0 -6.0 50.0 50.0" version="1.1" xmlns="http://www.w3.org/2000/svg"><rect x="-1000" y="-1000" width="2000" height="2000" stroke="white" fill="white" /><g style="fill:none;stroke:#000000;stroke-width:1"><path d="M 6.2 1.1 C 7.0 1.3 8.0 1.4 8.9 1.4 C 12.3 1.4 14.8 -1.2 14.8 -11.7 C 14.8 -22.4 11.9 -29.6 5.5 -36.8 " transform="translate(0.0 38.0)" stroke-dasharray="46.15791475201073" stroke-dashoffset="46.15791475201073"><animate attributeName="stroke-dashoffset" from="46.15791475201073" to="0" dur="1.3847374425603218s" begin="0s" fill="freeze" /></path><path d="M 4.2 -9.9 C 7.6 -12.8 11.0 -17.5 13.3 -22.6 " transform="translate(0.0 38.0)" stroke-dasharray="15.73996163066999" stroke-dashoffset="15.73996163066999"><animate attributeName="stroke-dashoffset" from="15.73996163066999" to="0" dur="0.47219884892009967s" begin="1.3847374425603218s" fill="freeze" /></path><path d="M 4.3 -25.1 C 8.8 -28.6 13.6 -34.5 16.4 -39.8 " transform="translate(0.0 38.0)" stroke-dasharray="19.16272575206062" stroke-dashoffset="19.16272575206062"><animate attributeName="stroke-dashoffset" from="19.16272575206062" to="0" dur="0.5748817725618186s" begin="1.8569362914804215s" fill="freeze" /></path><path d="M 33.2 2.5 L 33.2 -39.9 " transform="translate(0.0 38.0)" stroke-dasharray="42.4" stroke-dashoffset="42.4"><animate attributeName="stroke-dashoffset" from="42.4" to="0" dur="1.272s" begin="2.43181806404224s" fill="freeze" /></path><path d="M 26.6 -14.3 L 40.9 -14.3 C 44.2 -14.3 45.3 -15.5 45.3 -18.1 L 45.3 -24.6 C 45.3 -27.1 44.2 -28.3 40.9 -28.3 L 26.6 -28.3 C 23.1 -28.3 22.1 -27.1 22.1 -24.6 L 22.1 -18.1 C 22.1 -15.5 23.1 -14.3 26.6 -14.3 Z" transform="translate(0.0 38.0)" stroke-dasharray="68.7058997553767" stroke-dashoffset="68.7058997553767"><animate attributeName="stroke-dashoffset" from="68.7058997553767" to="0" dur="2.0611769926613013s" begin="3.70381806404224s" fill="freeze" /></path></g></svg>