<?xml version='1.0' encoding='utf-8'?>
<svg viewBox="0.0 -6.0 50.0 50.0" version="1.1" xmlns="http://www.w3.org/2000/svg"><rect x="-1000" y="-1000" width="2000" height="2000" stroke="white" fill="white" /><g style="fill:none;stroke:#000000;stroke-width:1"><path d="M 25.2 -23.5 L 40.5 -23.5 C 43.1 -23.5 43.9 -24.4 43.9 -26.1 L 43.9 -29.1 C 43.9 -30.8 43.1 -31.6 40.5 -31.6 L 25.2 -31.6 C 22.7 -31.6 21.9 -30.8 21.9 -29.1 L 21.9 -26.1 C 21.9 -24.4 22.7 -23.5 25.2 -23.5 Z " transform="translate(0.0 38.0)" stroke-dasharray="56.0963787031322" stroke-dashoffset="56.0963787031322"><animate attributeName="stroke-dashoffset" from="56.0963787031322" to="0" dur="1.682891361093966s" begin="0s; anim_end.end" fill="freeze" id="anim0" /></path><path d="M 3.4 -2.5 C 4.3 -5.0 5.1 -8.9 5.3 -11.8 " transform="translate(0.0 38.0)" stroke-dasharray="9.516567583868405" stroke-dashoffset="9.516567583868405"><animate attributeName="stroke-dashoffset" from="9.516567583868405" to="0" dur="0.2854970275160521s" begin="anim0.end" fill="freeze" id="anim1" /></path><path d="M 10.3 2.8 L 10.3 -18.7 " transform="translate(0.0 38.0)" stroke-dasharray="21.5" stroke-dashoffset="21.5"><animate attributeName="stroke-dashoffset" from="21.5" to="0" dur="0.645s" begin="anim1.end" fill="freeze" id="anim2" /></path><path d="M 17.1 -6.2 C 16.6 -8.4 15.7 -11.0 14.8 -12.4 " transform="translate(0.0 38.0)" stroke-dasharray="6.639070908421625" stroke-dashoffset="6.639070908421625"><animate attributeName="stroke-dashoffset" from="6.639070908421625" to="0" dur="0.19917212725264874s" begin="anim2.end" fill="freeze" id="anim3" /></path><path d="M 19.9 -0.7 C 21.8 -2.1 23.9 -4.2 25.4 -6.2 " transform="translate(0.0 38.0)" stroke-dasharray="7.802960032932531" stroke-dashoffset="7.802960032932531"><animate attributeName="stroke-dashoffset" from="7.802960032932531" to="0" dur="0.2340888009879759s" begin="anim3.end" fill="freeze" id="anim4" /></path><path d="M 3.0 -18.5 C 7.2 -18.6 11.9 -19.1 15.8 -19.7 " transform="translate(0.0 38.0)" stroke-dasharray="12.864403116659778" stroke-dashoffset="12.864403116659778"><animate attributeName="stroke-dashoffset" from="12.864403116659778" to="0" dur="0.38593209349979335s" begin="anim4.end" fill="freeze" id="anim5" /></path><path d="M 27.4 1.8 C 28.2 1.9 29.1 2.0 29.8 2.0 C 32.0 2.0 33.0 1.2 33.0 -1.1 L 33.0 -10.8 " transform="translate(0.0 38.0)" stroke-dasharray="17.297216258191987" stroke-dashoffset="17.297216258191987"><animate attributeName="stroke-dashoffset" from="17.297216258191987" to="0" dur="0.5189164877457596s" begin="anim5.end" fill="freeze" id="anim6" /></path><path d="M 17.8 -17.3 C 17.1 -19.4 15.8 -21.6 14.7 -23.1 " transform="translate(0.0 38.0)" stroke-dasharray="6.600470694973983" stroke-dashoffset="6.600470694973983"><animate attributeName="stroke-dashoffset" from="6.600470694973983" to="0" dur="0.1980141208492195s" begin="anim6.end" fill="freeze" id="anim7" /></path><path d="M 9.9 -26.2 C 7.8 -29.2 5.8 -31.4 4.3 -32.7 " transform="translate(0.0 38.0)" stroke-dasharray="8.599136721205223" stroke-dashoffset="8.599136721205223"><animate attributeName="stroke-dashoffset" from="8.599136721205223" to="0" dur="0.2579741016361567s" begin="anim7.end" fill="freeze" id="anim8" /></path><path d="M 6.2 -19.1 C 9.2 -23.1 12.7 -28.8 14.8 -33.3 " transform="translate(0.0 38.0)" stroke-dasharray="16.626191188678884" stroke-dashoffset="16.626191188678884"><animate attributeName="stroke-dashoffset" from="16.626191188678884" to="0" dur="0.4987857356603665s" begin="anim8.end" fill="freeze" id="anim9" /></path><path d="M 46.1 -11.3 L 20.9 -11.3 " transform="translate(0.0 38.0)" stroke-dasharray="25.200000000000003" stroke-dashoffset="25.200000000000003"><animate attributeName="stroke-dashoffset" from="25.200000000000003" to="0" dur="0.756s" begin="anim9.end" fill="freeze" id="anim10" /></path><path d="M 6.7 -31.2 C 8.2 -33.9 9.6 -36.9 10.7 -40.0 " transform="translate(0.0 38.0)" stroke-dasharray="9.67738417451832" stroke-dashoffset="9.67738417451832"><animate attributeName="stroke-dashoffset" from="9.67738417451832" to="0" dur="0.2903215252355496s" begin="anim10.end" fill="freeze" id="anim11" /></path><path d="M 45.3 -1.4 C 43.8 -2.7 41.7 -4.7 40.3 -6.1 " transform="translate(0.0 38.0)" stroke-dasharray="6.863384552412769" stroke-dashoffset="6.863384552412769"><animate attributeName="stroke-dashoffset" from="6.863384552412769" to="0" dur="0.20590153657238305s" begin="anim11.end" fill="freeze" id="anim12" /></path><path d="M 42.2 -17.5 L 23.8 -17.5 " transform="translate(0.0 38.0)" stroke-dasharray="18.400000000000002" stroke-dashoffset="18.400000000000002"><animate attributeName="stroke-dashoffset" from="18.400000000000002" to="0" dur="0.552s" begin="anim12.end" fill="freeze" id="anim13" /></path><path d="M 29.1 -24.2 L 29.1 -37.8 " transform="translate(0.0 38.0)" stroke-dasharray="13.599999999999998" stroke-dashoffset="13.599999999999998"><animate attributeName="stroke-dashoffset" from="13.599999999999998" to="0" dur="0.4079999999999999s" begin="anim13.end" fill="freeze" id="anim14" /></path><path d="M 36.3 -24.2 L 36.3 -37.8 " transform="translate(0.0 38.0)" stroke-dasharray="13.599999999999998" stroke-dashoffset="13.599999999999998"><animate attributeName="stroke-dashoffset" from="13.599999999999998" to="0" dur="0.4079999999999999s" begin="anim14.end" fill="freeze" id="anim15" /></path><path d="M 46.1 -38.1 L 20.1 -38.1" transform="translate(0.0 38.0)" stroke-dasharray="26.0" stroke-dashoffset="26.0"><animate attributeName="stroke-dashoffset" from="26.0" to="0" dur="0.78s" begin="anim15.end" fill="freeze" id="anim_end" /></path></g></svg>