<?xml version='1.0' encoding='utf-8'?>
<svg viewBox="0.0 -6.0 50.0 50.0" version="1.1" xmlns="http://www.w3.org/2000/svg"><rect x="-1000" y="-1000" width="2000" height="2000" stroke="white" fill="white" /><g style="fill:none;stroke:#000000;stroke-width:1"><path d="M 15.4 1.4 C 18.6 -4.2 20.3 -10.8 20.3 -25.4 L 20.3 -35.0 C 20.3 -37.5 21.6 -38.8 24.5 -38.8 L 45.9 -38.8 " transform="translate(0.0 38.0)" stroke-dasharray="65.07634565457724" stroke-dashoffset="65.07634565457724"><animate attributeName="stroke-dashoffset" from="65.07634565457724" to="0" dur="1.952290369637317s" begin="0s" fill="freeze" /></path><path d="M 2.8 -2.8 C 3.8 -5.5 4.6 -9.4 4.8 -12.4 " transform="translate(0.0 38.0)" stroke-dasharray="9.834620293972613" stroke-dashoffset="9.834620293972613"><animate attributeName="stroke-dashoffset" from="9.834620293972613" to="0" dur="0.29503860881917837s" begin="1.952290369637317s" fill="freeze" /></path><path d="M 9.5 2.9 L 9.5 -18.8 " transform="translate(0.0 38.0)" stroke-dasharray="21.7" stroke-dashoffset="21.7"><animate attributeName="stroke-dashoffset" from="21.7" to="0" dur="0.6509999999999999s" begin="2.2473289784564954s" fill="freeze" /></path><path d="M 15.4 -8.6 C 15.1 -10.1 14.4 -11.8 13.8 -13.2 " transform="translate(0.0 38.0)" stroke-dasharray="4.878711969615584" stroke-dashoffset="4.878711969615584"><animate attributeName="stroke-dashoffset" from="4.878711969615584" to="0" dur="0.14636135908846754s" begin="2.898328978456495s" fill="freeze" /></path><path d="M 2.6 -18.5 C 6.7 -18.6 11.1 -19.1 14.7 -19.7 " transform="translate(0.0 38.0)" stroke-dasharray="12.168795912110026" stroke-dashoffset="12.168795912110026"><animate attributeName="stroke-dashoffset" from="12.168795912110026" to="0" dur="0.36506387736330076s" begin="3.0446903375449628s" fill="freeze" /></path><path d="M 46.8 1.6 L 21.9 1.6 " transform="translate(0.0 38.0)" stroke-dasharray="24.9" stroke-dashoffset="24.9"><animate attributeName="stroke-dashoffset" from="24.9" to="0" dur="0.7469999999999999s" begin="3.4097542149082636s" fill="freeze" /></path><path d="M 24.1 -7.2 C 24.9 -8.3 25.6 -9.4 26.3 -10.8 " transform="translate(0.0 38.0)" stroke-dasharray="4.224137800184305" stroke-dashoffset="4.224137800184305"><animate attributeName="stroke-dashoffset" from="4.224137800184305" to="0" dur="0.12672413400552915s" begin="4.156754214908263s" fill="freeze" /></path><path d="M 16.1 -17.2 C 15.4 -19.4 14.3 -21.6 13.2 -23.1 " transform="translate(0.0 38.0)" stroke-dasharray="6.600313527089566" stroke-dashoffset="6.600313527089566"><animate attributeName="stroke-dashoffset" from="6.600313527089566" to="0" dur="0.19800940581268697s" begin="4.283478348913792s" fill="freeze" /></path><path d="M 9.3 -26.2 C 7.1 -29.2 5.2 -31.4 3.7 -32.7 " transform="translate(0.0 38.0)" stroke-dasharray="8.595176502338418" stroke-dashoffset="8.595176502338418"><animate attributeName="stroke-dashoffset" from="8.595176502338418" to="0" dur="0.25785529507015253s" begin="4.481487754726479s" fill="freeze" /></path><path d="M 5.5 -19.1 C 8.3 -23.1 11.7 -28.8 13.8 -33.5 " transform="translate(0.0 38.0)" stroke-dasharray="16.642347282112816" stroke-dashoffset="16.642347282112816"><animate attributeName="stroke-dashoffset" from="16.642347282112816" to="0" dur="0.49927041846338444s" begin="4.739343049796632s" fill="freeze" /></path><path d="M 43.9 -3.5 L 25.8 -3.5 " transform="translate(0.0 38.0)" stroke-dasharray="18.099999999999998" stroke-dashoffset="18.099999999999998"><animate attributeName="stroke-dashoffset" from="18.099999999999998" to="0" dur="0.5429999999999999s" begin="5.238613468260016s" fill="freeze" /></path><path d="M 34.9 1.6 L 34.9 -6.7 " transform="translate(0.0 38.0)" stroke-dasharray="8.3" stroke-dashoffset="8.3"><animate attributeName="stroke-dashoffset" from="8.3" to="0" dur="0.249s" begin="5.781613468260016s" fill="freeze" /></path><path d="M 32.2 -7.8 C 32.1 -9.0 31.9 -9.8 31.6 -10.8 " transform="translate(0.0 38.0)" stroke-dasharray="3.0660169006123685" stroke-dashoffset="3.0660169006123685"><animate attributeName="stroke-dashoffset" from="3.0660169006123685" to="0" dur="0.09198050701837106s" begin="6.030613468260015s" fill="freeze" /></path><path d="M 6.0 -31.2 C 7.5 -33.9 8.8 -36.9 9.9 -40.2 " transform="translate(0.0 38.0)" stroke-dasharray="9.822702439200043" stroke-dashoffset="9.822702439200043"><animate attributeName="stroke-dashoffset" from="9.822702439200043" to="0" dur="0.2946810731760013s" begin="6.122593975278386s" fill="freeze" /></path><path d="M 39.1 -8.2 C 38.8 -9.2 38.5 -10.1 38.0 -10.9 " transform="translate(0.0 38.0)" stroke-dasharray="2.924543979109908" stroke-dashoffset="2.924543979109908"><animate attributeName="stroke-dashoffset" from="2.924543979109908" to="0" dur="0.08773631937329725s" begin="6.417275048454387s" fill="freeze" /></path><path d="M 46.5 -14.4 L 23.9 -14.4 " transform="translate(0.0 38.0)" stroke-dasharray="22.6" stroke-dashoffset="22.6"><animate attributeName="stroke-dashoffset" from="22.6" to="0" dur="0.678s" begin="6.505011367827684s" fill="freeze" /></path><path d="M 43.6 -19.1 L 26.6 -19.1 " transform="translate(0.0 38.0)" stroke-dasharray="17.0" stroke-dashoffset="17.0"><animate attributeName="stroke-dashoffset" from="17.0" to="0" dur="0.51s" begin="7.183011367827684s" fill="freeze" /></path><path d="M 46.4 -7.8 C 45.8 -8.9 44.9 -10.2 44.0 -11.2 " transform="translate(0.0 38.0)" stroke-dasharray="4.170223335323512" stroke-dashoffset="4.170223335323512"><animate attributeName="stroke-dashoffset" from="4.170223335323512" to="0" dur="0.12510670005970537s" begin="7.693011367827684s" fill="freeze" /></path><path d="M 34.9 -14.9 L 34.9 -33.2 " transform="translate(0.0 38.0)" stroke-dasharray="18.300000000000004" stroke-dashoffset="18.300000000000004"><animate attributeName="stroke-dashoffset" from="18.300000000000004" to="0" dur="0.5490000000000002s" begin="7.818118067887389s" fill="freeze" /></path><path d="M 29.9 -23.9 L 40.3 -23.9 C 42.8 -23.9 43.5 -24.6 43.5 -26.4 L 43.5 -31.2 C 43.5 -33.0 42.8 -33.7 40.3 -33.7 L 29.9 -33.7 C 27.4 -33.7 26.6 -33.0 26.6 -31.2 L 26.6 -26.4 C 26.6 -24.6 27.4 -23.9 29.9 -23.9 Z " transform="translate(0.0 38.0)" stroke-dasharray="49.56528011330987" stroke-dashoffset="49.56528011330987"><animate attributeName="stroke-dashoffset" from="49.56528011330987" to="0" dur="1.486958403399296s" begin="8.36711806788739s" fill="freeze" /></path><path d="M 42.5 -28.8 L 27.9 -28.8" transform="translate(0.0 38.0)" stroke-dasharray="14.600000000000001" stroke-dashoffset="14.600000000000001"><animate attributeName="stroke-dashoffset" from="14.600000000000001" to="0" dur="0.438s" begin="9.854076471286685s" fill="freeze" /></path></g></svg>