<?xml version='1.0' encoding='utf-8'?>
<svg viewBox="0.0 -6.0 50.0 50.0" version="1.1" xmlns="http://www.w3.org/2000/svg"><rect x="-1000" y="-1000" width="2000" height="2000" stroke="white" fill="white" /><g style="fill:none;stroke:#000000;stroke-width:1"><path d="M 4.7 0.1 C 8.8 -5.9 10.9 -13.3 10.9 -23.9 L 10.9 -32.1 C 10.9 -34.6 12.1 -35.8 15.3 -35.8 L 46.2 -35.8 " transform="translate(0.0 38.0)" stroke-dasharray="70.93325038974388" stroke-dashoffset="70.93325038974388"><animate attributeName="stroke-dashoffset" from="70.93325038974388" to="0" dur="2.127997511692316s" begin="0s; 15s; 30s; 45s" fill="freeze" id="anim0" /></path><path d="M 3.4 -13.8 C 5.8 -14.8 8.2 -16.1 10.7 -17.9 " transform="translate(0.0 38.0)" stroke-dasharray="8.391339656175278" stroke-dashoffset="8.391339656175278"><animate attributeName="stroke-dashoffset" from="8.391339656175278" to="0" dur="0.25174018968525835s" begin="anim0.end" fill="freeze" id="anim1" /></path><path d="M 46.2 0.9 L 13.1 0.9 " transform="translate(0.0 38.0)" stroke-dasharray="33.1" stroke-dashoffset="33.1"><animate attributeName="stroke-dashoffset" from="33.1" to="0" dur="0.993s" begin="anim1.end" fill="freeze" id="anim2" /></path><path d="M 29.2 1.1 L 29.2 -7.7 " transform="translate(0.0 38.0)" stroke-dasharray="8.8" stroke-dashoffset="8.8"><animate attributeName="stroke-dashoffset" from="8.8" to="0" dur="0.264s" begin="anim2.end" fill="freeze" id="anim3" /></path><path d="M 7.1 -25.6 C 6.2 -26.9 5.2 -28.1 4.3 -28.9 " transform="translate(0.0 38.0)" stroke-dasharray="4.337177119887518" stroke-dashoffset="4.337177119887518"><animate attributeName="stroke-dashoffset" from="4.337177119887518" to="0" dur="0.13011531359662554s" begin="anim3.end" fill="freeze" id="anim4" /></path><path d="M 21.9 -13.4 C 20.4 -15.2 18.9 -16.9 17.4 -18.2 " transform="translate(0.0 38.0)" stroke-dasharray="6.586497367176083" stroke-dashoffset="6.586497367176083"><animate attributeName="stroke-dashoffset" from="6.586497367176083" to="0" dur="0.19759492101528248s" begin="anim4.end" fill="freeze" id="anim5" /></path><path d="M 41.8 -7.9 L 17.6 -7.9 " transform="translate(0.0 38.0)" stroke-dasharray="24.199999999999996" stroke-dashoffset="24.199999999999996"><animate attributeName="stroke-dashoffset" from="24.199999999999996" to="0" dur="0.7259999999999999s" begin="anim5.end" fill="freeze" id="anim6" /></path><path d="M 17.8 -17.6 C 19.4 -19.7 20.8 -21.8 21.9 -24.0 " transform="translate(0.0 38.0)" stroke-dasharray="7.6118667489197005" stroke-dashoffset="7.6118667489197005"><animate attributeName="stroke-dashoffset" from="7.6118667489197005" to="0" dur="0.228356002467591s" begin="anim6.end" fill="freeze" id="anim7" /></path><path d="M 31.4 -13.5 C 30.1 -15.2 28.2 -17.2 26.9 -18.5 " transform="translate(0.0 38.0)" stroke-dasharray="6.731136587100154" stroke-dashoffset="6.731136587100154"><animate attributeName="stroke-dashoffset" from="6.731136587100154" to="0" dur="0.2019340976130046s" begin="anim7.end" fill="freeze" id="anim8" /></path><path d="M 27.2 -17.7 C 28.9 -19.8 30.3 -21.8 31.4 -24.1 " transform="translate(0.0 38.0)" stroke-dasharray="7.673396230839996" stroke-dashoffset="7.673396230839996"><animate attributeName="stroke-dashoffset" from="7.673396230839996" to="0" dur="0.23020188692519988s" begin="anim8.end" fill="freeze" id="anim9" /></path><path d="M 41.0 -13.6 C 39.5 -15.4 37.6 -17.2 36.0 -18.6 " transform="translate(0.0 38.0)" stroke-dasharray="7.07796143147516" stroke-dashoffset="7.07796143147516"><animate attributeName="stroke-dashoffset" from="7.07796143147516" to="0" dur="0.21233884294425479s" begin="anim9.end" fill="freeze" id="anim10" /></path><path d="M 43.7 -29.1 L 16.8 -29.1 " transform="translate(0.0 38.0)" stroke-dasharray="26.900000000000002" stroke-dashoffset="26.900000000000002"><animate attributeName="stroke-dashoffset" from="26.900000000000002" to="0" dur="0.807s" begin="anim10.end" fill="freeze" id="anim11" /></path><path d="M 36.9 -17.6 C 38.6 -19.6 40.0 -21.7 41.1 -23.9 " transform="translate(0.0 38.0)" stroke-dasharray="7.59006853077729" stroke-dashoffset="7.59006853077729"><animate attributeName="stroke-dashoffset" from="7.59006853077729" to="0" dur="0.22770205592331869s" begin="anim11.end" fill="freeze" id="anim12" /></path><path d="M 28.1 -35.9 L 28.1 -41.1" transform="translate(0.0 38.0)" stroke-dasharray="5.200000000000003" stroke-dashoffset="5.200000000000003"><animate attributeName="stroke-dashoffset" from="5.200000000000003" to="0" dur="0.15600000000000008s" begin="anim12.end" fill="freeze" id="anim_end" /></path></g></svg>