<?xml version='1.0' encoding='utf-8'?>
<svg viewBox="0.0 -6.0 50.0 50.0" version="1.1" xmlns="http://www.w3.org/2000/svg"><rect x="-1000" y="-1000" width="2000" height="2000" stroke="white" fill="white" /><g style="fill:none;stroke:#000000;stroke-width:1"><path d="M 5.0 1.9 C 16.8 -0.8 24.4 -7.7 25.1 -21.4 " transform="translate(0.0 38.0)" stroke-dasharray="33.521573242245424" stroke-dashoffset="33.521573242245424"><animate attributeName="stroke-dashoffset" from="33.521573242245424" to="0" dur="1.0056471972673626s" begin="0s; 15s; 30s; 45s" fill="freeze" id="anim0" /></path><path d="M 44.9 -13.3 L 5.3 -13.3 " transform="translate(0.0 38.0)" stroke-dasharray="39.6" stroke-dashoffset="39.6"><animate attributeName="stroke-dashoffset" from="39.6" to="0" dur="1.188s" begin="anim0.end" fill="freeze" id="anim1" /></path><path d="M 44.6 1.2 C 36.0 -0.5 28.8 -4.8 24.9 -11.3 " transform="translate(0.0 38.0)" stroke-dasharray="24.022505114325508" stroke-dashoffset="24.022505114325508"><animate attributeName="stroke-dashoffset" from="24.022505114325508" to="0" dur="0.7206751534297652s" begin="anim1.end" fill="freeze" id="anim2" /></path><path d="M 4.6 -27.8 C 7.4 -30.9 10.0 -35.4 11.6 -39.5 " transform="translate(0.0 38.0)" stroke-dasharray="13.701531078282022" stroke-dashoffset="13.701531078282022"><animate attributeName="stroke-dashoffset" from="13.701531078282022" to="0" dur="0.41104593234846065s" begin="anim2.end" fill="freeze" id="anim3" /></path><path d="M 16.8 -27.8 C 16.0 -29.8 15.1 -31.6 13.8 -33.5 " transform="translate(0.0 38.0)" stroke-dasharray="6.45503882899834" stroke-dashoffset="6.45503882899834"><animate attributeName="stroke-dashoffset" from="6.45503882899834" to="0" dur="0.1936511648699502s" begin="anim3.end" fill="freeze" id="anim4" /></path><path d="M 9.9 -21.4 C 19.9 -21.6 30.7 -22.8 39.4 -24.7 " transform="translate(0.0 38.0)" stroke-dasharray="29.727397456835543" stroke-dashoffset="29.727397456835543"><animate attributeName="stroke-dashoffset" from="29.727397456835543" to="0" dur="0.8918219237050663s" begin="anim4.end" fill="freeze" id="anim5" /></path><path d="M 22.4 -33.8 L 9.3 -33.8 " transform="translate(0.0 38.0)" stroke-dasharray="13.099999999999998" stroke-dashoffset="13.099999999999998"><animate attributeName="stroke-dashoffset" from="13.099999999999998" to="0" dur="0.3929999999999999s" begin="anim5.end" fill="freeze" id="anim6" /></path><path d="M 24.9 -28.4 C 27.4 -31.4 29.7 -35.5 31.1 -39.5 " transform="translate(0.0 38.0)" stroke-dasharray="12.777174230388175" stroke-dashoffset="12.777174230388175"><animate attributeName="stroke-dashoffset" from="12.777174230388175" to="0" dur="0.3833152269116452s" begin="anim6.end" fill="freeze" id="anim7" /></path><path d="M 36.6 -28.8 C 35.9 -30.4 34.8 -32.0 33.4 -33.8 " transform="translate(0.0 38.0)" stroke-dasharray="5.951433038245723" stroke-dashoffset="5.951433038245723"><animate attributeName="stroke-dashoffset" from="5.951433038245723" to="0" dur="0.17854299114737168s" begin="anim7.end" fill="freeze" id="anim8" /></path><path d="M 45.6 -33.8 L 28.4 -33.8" transform="translate(0.0 38.0)" stroke-dasharray="17.200000000000003" stroke-dashoffset="17.200000000000003"><animate attributeName="stroke-dashoffset" from="17.200000000000003" to="0" dur="0.516s" begin="anim8.end" fill="freeze" id="anim_end" /></path></g></svg>