<?xml version='1.0' encoding='utf-8'?>
<svg viewBox="0.0 -6.0 50.0 50.0" version="1.1" xmlns="http://www.w3.org/2000/svg"><rect x="-1000" y="-1000" width="2000" height="2000" stroke="white" fill="white" /><g style="fill:none;stroke:#000000;stroke-width:1"><path d="M 41.5 0.3 L 41.5 -34.1 C 41.5 -36.9 40.3 -37.8 37.2 -37.8 L 31.3 -37.8 C 28.2 -37.8 27.0 -36.9 27.0 -34.1 L 27.0 0.4 " transform="translate(0.0 38.0)" stroke-dasharray="88.08181358260616" stroke-dashoffset="88.08181358260616"><animate attributeName="stroke-dashoffset" from="88.08181358260616" to="0" dur="2.642454407478185s" begin="0s; 15s; 30s; 45s" fill="freeze" id="anim0" /></path><path d="M 4.5 -2.2 C 5.5 -4.9 6.4 -8.8 6.7 -11.8 " transform="translate(0.0 38.0)" stroke-dasharray="9.87121495595874" stroke-dashoffset="9.87121495595874"><animate attributeName="stroke-dashoffset" from="9.87121495595874" to="0" dur="0.2961364486787622s" begin="anim0.end" fill="freeze" id="anim1" /></path><path d="M 12.2 2.5 L 12.2 -18.5 " transform="translate(0.0 38.0)" stroke-dasharray="21.0" stroke-dashoffset="21.0"><animate attributeName="stroke-dashoffset" from="21.0" to="0" dur="0.63s" begin="anim1.end" fill="freeze" id="anim2" /></path><path d="M 19.5 -5.9 C 19.1 -8.3 18.2 -10.8 17.4 -12.5 " transform="translate(0.0 38.0)" stroke-dasharray="6.945829520753958" stroke-dashoffset="6.945829520753958"><animate attributeName="stroke-dashoffset" from="6.945829520753958" to="0" dur="0.20837488562261874s" begin="anim2.end" fill="freeze" id="anim3" /></path><path d="M 3.7 -18.4 C 8.6 -18.6 14.2 -19.1 18.8 -19.8 " transform="translate(0.0 38.0)" stroke-dasharray="15.171763159707131" stroke-dashoffset="15.171763159707131"><animate attributeName="stroke-dashoffset" from="15.171763159707131" to="0" dur="0.4551528947912139s" begin="anim3.end" fill="freeze" id="anim4" /></path><path d="M 47.0 0.3 L 20.2 0.3 " transform="translate(0.0 38.0)" stroke-dasharray="26.8" stroke-dashoffset="26.8"><animate attributeName="stroke-dashoffset" from="26.8" to="0" dur="0.8039999999999999s" begin="anim4.end" fill="freeze" id="anim5" /></path><path d="M 11.5 -26.1 C 9.3 -29.0 7.1 -31.4 5.5 -32.7 " transform="translate(0.0 38.0)" stroke-dasharray="8.937485410003209" stroke-dashoffset="8.937485410003209"><animate attributeName="stroke-dashoffset" from="8.937485410003209" to="0" dur="0.26812456230009624s" begin="anim5.end" fill="freeze" id="anim6" /></path><path d="M 20.6 -17.4 C 19.8 -19.4 18.4 -21.8 17.1 -23.4 " transform="translate(0.0 38.0)" stroke-dasharray="6.9687573285427975" stroke-dashoffset="6.9687573285427975"><animate attributeName="stroke-dashoffset" from="6.9687573285427975" to="0" dur="0.2090627198562839s" begin="anim6.end" fill="freeze" id="anim7" /></path><path d="M 7.5 -18.9 C 11.1 -23.3 14.8 -28.9 17.1 -33.2 " transform="translate(0.0 38.0)" stroke-dasharray="17.247177610932024" stroke-dashoffset="17.247177610932024"><animate attributeName="stroke-dashoffset" from="17.247177610932024" to="0" dur="0.5174153283279607s" begin="anim7.end" fill="freeze" id="anim8" /></path><path d="M 41.1 -12.6 L 27.1 -12.6 " transform="translate(0.0 38.0)" stroke-dasharray="14.0" stroke-dashoffset="14.0"><animate attributeName="stroke-dashoffset" from="14.0" to="0" dur="0.42s" begin="anim8.end" fill="freeze" id="anim9" /></path><path d="M 8.2 -31.2 C 9.8 -33.8 11.3 -36.9 12.5 -39.6 " transform="translate(0.0 38.0)" stroke-dasharray="9.443291870590455" stroke-dashoffset="9.443291870590455"><animate attributeName="stroke-dashoffset" from="9.443291870590455" to="0" dur="0.28329875611771366s" begin="anim9.end" fill="freeze" id="anim10" /></path><path d="M 41.1 -25.2 L 27.1 -25.2" transform="translate(0.0 38.0)" stroke-dasharray="14.0" stroke-dashoffset="14.0"><animate attributeName="stroke-dashoffset" from="14.0" to="0" dur="0.42s" begin="anim10.end" fill="freeze" id="anim_end" /></path></g></svg>