<?xml version='1.0' encoding='utf-8'?>
<svg viewBox="0.0 -6.0 50.0 50.0" version="1.1" xmlns="http://www.w3.org/2000/svg"><rect x="-1000" y="-1000" width="2000" height="2000" stroke="white" fill="white" /><g style="fill:none;stroke:#000000;stroke-width:1"><path d="M 30.4 -20.9 L 39.5 -20.9 C 42.2 -20.9 43.1 -21.7 43.1 -24.1 L 43.1 -32.7 C 43.1 -35.0 42.2 -35.9 39.5 -35.9 L 30.4 -35.9 C 27.8 -35.9 26.9 -35.0 26.9 -32.7 L 26.9 -24.1 C 26.9 -21.7 27.8 -20.9 30.4 -20.9 Z " transform="translate(0.0 38.0)" stroke-dasharray="57.813573112389996" stroke-dashoffset="57.813573112389996"><animate attributeName="stroke-dashoffset" from="57.813573112389996" to="0" dur="1.7344071933716998s" begin="0s; 15s; 30s; 45s" fill="freeze" id="anim0" /></path><path d="M 4.5 -1.2 C 10.2 -3.8 16.2 -8.7 19.9 -14.1 " transform="translate(0.0 38.0)" stroke-dasharray="20.313724410119104" stroke-dashoffset="20.313724410119104"><animate attributeName="stroke-dashoffset" from="20.313724410119104" to="0" dur="0.609411732303573s" begin="anim0.end" fill="freeze" id="anim1" /></path><path d="M 35.5 -6.7 L 19.4 -6.7 C 17.1 -6.7 16.0 -6.0 16.0 -4.1 L 16.0 -0.8 C 16.0 1.1 17.1 1.8 19.4 1.8 L 35.5 1.8 C 38.0 1.8 39.0 1.1 39.0 -0.8 L 39.0 -4.1 C 39.0 -6.0 38.0 -6.7 35.5 -6.7 Z " transform="translate(0.0 38.0)" stroke-dasharray="58.7845482854875" stroke-dashoffset="58.7845482854875"><animate attributeName="stroke-dashoffset" from="58.7845482854875" to="0" dur="1.763536448564625s" begin="anim1.end" fill="freeze" id="anim2" /></path><path d="M 5.3 -20.1 C 10.1 -20.6 16.2 -21.9 20.8 -23.2 " transform="translate(0.0 38.0)" stroke-dasharray="15.823760186588645" stroke-dashoffset="15.823760186588645"><animate attributeName="stroke-dashoffset" from="15.823760186588645" to="0" dur="0.4747128055976593s" begin="anim2.end" fill="freeze" id="anim3" /></path><path d="M 45.6 -14.5 L 4.5 -14.5 " transform="translate(0.0 38.0)" stroke-dasharray="41.1" stroke-dashoffset="41.1"><animate attributeName="stroke-dashoffset" from="41.1" to="0" dur="1.233s" begin="anim3.end" fill="freeze" id="anim4" /></path><path d="M 13.4 -21.9 L 13.4 -37.1 " transform="translate(0.0 38.0)" stroke-dasharray="15.200000000000003" stroke-dashoffset="15.200000000000003"><animate attributeName="stroke-dashoffset" from="15.200000000000003" to="0" dur="0.45600000000000007s" begin="anim4.end" fill="freeze" id="anim5" /></path><path d="M 20.1 -29.9 L 6.6 -29.9 " transform="translate(0.0 38.0)" stroke-dasharray="13.500000000000002" stroke-dashoffset="13.500000000000002"><animate attributeName="stroke-dashoffset" from="13.500000000000002" to="0" dur="0.405s" begin="anim5.end" fill="freeze" id="anim6" /></path><path d="M 21.2 -37.8 L 5.3 -37.8 " transform="translate(0.0 38.0)" stroke-dasharray="15.899999999999999" stroke-dashoffset="15.899999999999999"><animate attributeName="stroke-dashoffset" from="15.899999999999999" to="0" dur="0.4769999999999999s" begin="anim6.end" fill="freeze" id="anim7" /></path><path d="M 42.0 -28.5 L 27.0 -28.5 " transform="translate(0.0 38.0)" stroke-dasharray="15.0" stroke-dashoffset="15.0"><animate attributeName="stroke-dashoffset" from="15.0" to="0" dur="0.44999999999999996s" begin="anim7.end" fill="freeze" id="anim8" /></path><path d="M 33.3 -35.5 C 34.0 -36.9 34.5 -38.5 35.0 -40.0" transform="translate(0.0 38.0)" stroke-dasharray="4.814751443776955" stroke-dashoffset="4.814751443776955"><animate attributeName="stroke-dashoffset" from="4.814751443776955" to="0" dur="0.14444254331330864s" begin="anim8.end" fill="freeze" id="anim_end" /></path></g></svg>