<?xml version='1.0' encoding='utf-8'?>
<svg viewBox="0.0 -6.0 50.0 50.0" version="1.1" xmlns="http://www.w3.org/2000/svg"><rect x="-1000" y="-1000" width="2000" height="2000" stroke="white" fill="white" /><g style="fill:none;stroke:#000000;stroke-width:1"><path d="M 21.9 2.7 L 21.9 -13.9 C 21.9 -15.8 22.6 -16.6 25.1 -16.6 L 44.4 -16.6 " transform="translate(0.0 38.0)" stroke-dasharray="40.80560501479803" stroke-dashoffset="40.80560501479803"><animate attributeName="stroke-dashoffset" from="40.80560501479803" to="0" dur="1.224168150443941s" begin="0s" fill="freeze" /></path><path d="M 5.5 0.5 C 7.7 -3.0 10.0 -8.3 11.3 -12.7 " transform="translate(0.0 38.0)" stroke-dasharray="14.456242471614317" stroke-dashoffset="14.456242471614317"><animate attributeName="stroke-dashoffset" from="14.456242471614317" to="0" dur="0.4336872741484295s" begin="1.224168150443941s" fill="freeze" /></path><path d="M 8.7 -23.1 C 7.4 -24.4 5.3 -26.1 4.2 -26.9 " transform="translate(0.0 38.0)" stroke-dasharray="5.8943120322785685" stroke-dashoffset="5.8943120322785685"><animate attributeName="stroke-dashoffset" from="5.8943120322785685" to="0" dur="0.17682936096835705s" begin="1.6578554245923705s" fill="freeze" /></path><path d="M 16.0 -10.0 C 18.9 -12.8 21.9 -16.9 23.7 -20.2 " transform="translate(0.0 38.0)" stroke-dasharray="12.822478006234682" stroke-dashoffset="12.822478006234682"><animate attributeName="stroke-dashoffset" from="12.822478006234682" to="0" dur="0.38467434018704044s" begin="1.8346847855607276s" fill="freeze" /></path><path d="M 45.5 0.0 L 22.4 0.0 " transform="translate(0.0 38.0)" stroke-dasharray="23.1" stroke-dashoffset="23.1"><animate attributeName="stroke-dashoffset" from="23.1" to="0" dur="0.6930000000000001s" begin="2.219359125747768s" fill="freeze" /></path><path d="M 42.0 -5.7 L 21.8 -5.7 " transform="translate(0.0 38.0)" stroke-dasharray="20.2" stroke-dashoffset="20.2"><animate attributeName="stroke-dashoffset" from="20.2" to="0" dur="0.606s" begin="2.912359125747768s" fill="freeze" /></path><path d="M 32.4 0.1 L 32.4 -15.9 " transform="translate(0.0 38.0)" stroke-dasharray="16.0" stroke-dashoffset="16.0"><animate attributeName="stroke-dashoffset" from="16.0" to="0" dur="0.48s" begin="3.518359125747768s" fill="freeze" /></path><path d="M 42.0 -11.0 L 21.8 -11.0 " transform="translate(0.0 38.0)" stroke-dasharray="20.2" stroke-dashoffset="20.2"><animate attributeName="stroke-dashoffset" from="20.2" to="0" dur="0.606s" begin="3.998359125747768s" fill="freeze" /></path><path d="M 11.7 -35.1 C 10.6 -36.5 8.8 -38.0 7.7 -38.9 " transform="translate(0.0 38.0)" stroke-dasharray="5.527400052414648" stroke-dashoffset="5.527400052414648"><animate attributeName="stroke-dashoffset" from="5.527400052414648" to="0" dur="0.16582200157243943s" begin="4.604359125747768s" fill="freeze" /></path><path d="M 28.1 -25.9 L 28.1 -27.8 C 28.1 -29.2 27.2 -30.0 25.8 -30.0 L 21.7 -30.0 C 20.2 -30.0 19.4 -29.2 19.4 -27.8 L 19.4 -25.9 C 19.4 -24.4 20.2 -23.6 21.7 -23.6 L 25.8 -23.6 C 27.2 -23.6 28.1 -24.4 28.1 -25.9 Z " transform="translate(0.0 38.0)" stroke-dasharray="26.646735035279214" stroke-dashoffset="26.646735035279214"><animate attributeName="stroke-dashoffset" from="26.646735035279214" to="0" dur="0.7994020510583764s" begin="4.770181127320208s" fill="freeze" /></path><path d="M 31.9 -16.6 C 32.6 -17.9 33.1 -19.1 33.6 -20.4 " transform="translate(0.0 38.0)" stroke-dasharray="4.165944543932712" stroke-dashoffset="4.165944543932712"><animate attributeName="stroke-dashoffset" from="4.165944543932712" to="0" dur="0.12497833631798135s" begin="5.5695831783785845s" fill="freeze" /></path><path d="M 26.1 -33.4 L 26.1 -40.4 " transform="translate(0.0 38.0)" stroke-dasharray="7.0" stroke-dashoffset="7.0"><animate attributeName="stroke-dashoffset" from="7.0" to="0" dur="0.21s" begin="5.694561514696566s" fill="freeze" /></path><path d="M 34.5 -27.8 L 34.5 -25.9 C 34.5 -24.4 35.3 -23.6 36.8 -23.6 L 41.0 -23.6 C 42.5 -23.6 43.3 -24.4 43.3 -25.9 L 43.3 -27.8 C 43.3 -29.2 42.5 -30.0 41.0 -30.0 L 36.8 -30.0 C 35.3 -30.0 34.5 -29.2 34.5 -27.8 Z " transform="translate(0.0 38.0)" stroke-dasharray="26.892669846754117" stroke-dashoffset="26.892669846754117"><animate attributeName="stroke-dashoffset" from="26.892669846754117" to="0" dur="0.8067800954026235s" begin="5.9045615146965655s" fill="freeze" /></path><path d="M 45.5 -36.8 L 17.1 -36.8 " transform="translate(0.0 38.0)" stroke-dasharray="28.4" stroke-dashoffset="28.4"><animate attributeName="stroke-dashoffset" from="28.4" to="0" dur="0.852s" begin="6.711341610099189s" fill="freeze" /></path><path d="M 35.8 -33.5 L 35.8 -40.4" transform="translate(0.0 38.0)" stroke-dasharray="6.899999999999999" stroke-dashoffset="6.899999999999999"><animate attributeName="stroke-dashoffset" from="6.899999999999999" to="0" dur="0.20699999999999996s" begin="7.563341610099189s" fill="freeze" /></path></g></svg>