<?xml version='1.0' encoding='utf-8'?>
<svg viewBox="0.0 -6.0 50.0 50.0" version="1.1" xmlns="http://www.w3.org/2000/svg"><rect x="-1000" y="-1000" width="2000" height="2000" stroke="white" fill="white" /><g style="fill:none;stroke:#000000;stroke-width:1"><path d="M 15.7 -10.1 L 34.5 -10.1 C 37.3 -10.1 38.2 -10.8 38.2 -12.7 L 38.2 -19.8 C 38.2 -21.6 37.3 -22.4 34.5 -22.4 L 15.7 -22.4 C 12.8 -22.4 11.9 -21.5 11.9 -19.6 L 11.9 -12.7 C 11.9 -10.8 12.8 -10.1 15.7 -10.1 Z " transform="translate(0.0 38.0)" stroke-dasharray="72.909477699604" stroke-dashoffset="72.909477699604"><animate attributeName="stroke-dashoffset" from="72.909477699604" to="0" dur="2.18728433098812s" begin="0s" fill="freeze" /></path><path d="M 24.9 3.0 L 24.9 -10.0 " transform="translate(0.0 38.0)" stroke-dasharray="13.0" stroke-dashoffset="13.0"><animate attributeName="stroke-dashoffset" from="13.0" to="0" dur="0.39s" begin="2.18728433098812s" fill="freeze" /></path><path d="M 45.9 -4.0 L 4.2 -4.0 " transform="translate(0.0 38.0)" stroke-dasharray="41.699999999999996" stroke-dashoffset="41.699999999999996"><animate attributeName="stroke-dashoffset" from="41.699999999999996" to="0" dur="1.251s" begin="2.57728433098812s" fill="freeze" /></path><path d="M 38.2 -16.2 L 12.4 -16.2 " transform="translate(0.0 38.0)" stroke-dasharray="25.800000000000004" stroke-dashoffset="25.800000000000004"><animate attributeName="stroke-dashoffset" from="25.800000000000004" to="0" dur="0.7740000000000001s" begin="3.82828433098812s" fill="freeze" /></path><path d="M 18.5 -30.7 C 17.9 -31.8 17.4 -32.5 16.6 -33.5 " transform="translate(0.0 38.0)" stroke-dasharray="3.3890186199815138" stroke-dashoffset="3.3890186199815138"><animate attributeName="stroke-dashoffset" from="3.3890186199815138" to="0" dur="0.1016705585994454s" begin="4.6022843309881205s" fill="freeze" /></path><path d="M 46.6 -28.1 L 3.3 -28.1 " transform="translate(0.0 38.0)" stroke-dasharray="43.300000000000004" stroke-dashoffset="43.300000000000004"><animate attributeName="stroke-dashoffset" from="43.300000000000004" to="0" dur="1.2990000000000002s" begin="4.703954889587566s" fill="freeze" /></path><path d="M 43.3 -36.5 L 6.8 -36.5 " transform="translate(0.0 38.0)" stroke-dasharray="36.5" stroke-dashoffset="36.5"><animate attributeName="stroke-dashoffset" from="36.5" to="0" dur="1.095s" begin="6.002954889587566s" fill="freeze" /></path><path d="M 29.6 -27.9 C 31.1 -29.8 32.1 -31.4 33.1 -33.5 " transform="translate(0.0 38.0)" stroke-dasharray="6.619279624150007" stroke-dashoffset="6.619279624150007"><animate attributeName="stroke-dashoffset" from="6.619279624150007" to="0" dur="0.1985783887245002s" begin="7.097954889587566s" fill="freeze" /></path><path d="M 24.9 -36.7 L 24.9 -41.1" transform="translate(0.0 38.0)" stroke-dasharray="4.399999999999999" stroke-dashoffset="4.399999999999999"><animate attributeName="stroke-dashoffset" from="4.399999999999999" to="0" dur="0.13199999999999995s" begin="7.296533278312066s" fill="freeze" /></path></g></svg>