<?xml version='1.0' encoding='utf-8'?>
<svg viewBox="0.0 -6.0 50.0 50.0" version="1.1" xmlns="http://www.w3.org/2000/svg"><rect x="-1000" y="-1000" width="2000" height="2000" stroke="white" fill="white" /><g style="fill:none;stroke:#000000;stroke-width:1"><path d="M 16.1 1.8 C 25.1 -1.9 31.1 -8.9 31.1 -22.1 L 31.1 -28.6 " transform="translate(0.0 38.0)" stroke-dasharray="36.73313320884681" stroke-dashoffset="36.73313320884681"><animate attributeName="stroke-dashoffset" from="36.73313320884681" to="0" dur="1.1019939962654042s" begin="0s; anim_end.end" fill="freeze" id="anim0" /></path><path d="M 3.4 -6.8 C 7.2 -7.8 11.2 -9.1 14.8 -10.6 " transform="translate(0.0 38.0)" stroke-dasharray="12.025780094116413" stroke-dashoffset="12.025780094116413"><animate attributeName="stroke-dashoffset" from="12.025780094116413" to="0" dur="0.3607734028234924s" begin="anim0.end" fill="freeze" id="anim1" /></path><path d="M 9.3 -8.7 L 9.3 -36.8 " transform="translate(0.0 38.0)" stroke-dasharray="28.099999999999998" stroke-dashoffset="28.099999999999998"><animate attributeName="stroke-dashoffset" from="28.099999999999998" to="0" dur="0.8429999999999999s" begin="anim1.end" fill="freeze" id="anim2" /></path><path d="M 14.3 -23.9 L 4.0 -23.9 " transform="translate(0.0 38.0)" stroke-dasharray="10.3" stroke-dashoffset="10.3"><animate attributeName="stroke-dashoffset" from="10.3" to="0" dur="0.309s" begin="anim2.end" fill="freeze" id="anim3" /></path><path d="M 45.1 1.2 C 39.4 -1.1 33.9 -6.2 31.4 -12.3 " transform="translate(0.0 38.0)" stroke-dasharray="19.71796692657423" stroke-dashoffset="19.71796692657423"><animate attributeName="stroke-dashoffset" from="19.71796692657423" to="0" dur="0.5915390077972269s" begin="anim3.end" fill="freeze" id="anim4" /></path><path d="M 46.7 -12.8 L 17.9 -12.8 " transform="translate(0.0 38.0)" stroke-dasharray="28.800000000000004" stroke-dashoffset="28.800000000000004"><animate attributeName="stroke-dashoffset" from="28.800000000000004" to="0" dur="0.8640000000000001s" begin="anim4.end" fill="freeze" id="anim5" /></path><path d="M 14.7 -36.8 L 3.5 -36.8 " transform="translate(0.0 38.0)" stroke-dasharray="11.2" stroke-dashoffset="11.2"><animate attributeName="stroke-dashoffset" from="11.2" to="0" dur="0.33599999999999997s" begin="anim5.end" fill="freeze" id="anim6" /></path><path d="M 41.4 -13.1 L 41.4 -20.7 C 41.4 -22.7 40.5 -23.8 37.8 -23.8 L 25.0 -23.8 C 22.3 -23.8 21.4 -22.7 21.4 -20.7 L 21.4 -13.1 " transform="translate(0.0 38.0)" stroke-dasharray="38.990879609732346" stroke-dashoffset="38.990879609732346"><animate attributeName="stroke-dashoffset" from="38.990879609732346" to="0" dur="1.1697263882919704s" begin="anim6.end" fill="freeze" id="anim7" /></path><path d="M 25.9 -30.2 L 25.9 -40.2 " transform="translate(0.0 38.0)" stroke-dasharray="10.000000000000004" stroke-dashoffset="10.000000000000004"><animate attributeName="stroke-dashoffset" from="10.000000000000004" to="0" dur="0.3000000000000001s" begin="anim7.end" fill="freeze" id="anim8" /></path><path d="M 45.7 -35.0 L 18.6 -35.0 " transform="translate(0.0 38.0)" stroke-dasharray="27.1" stroke-dashoffset="27.1"><animate attributeName="stroke-dashoffset" from="27.1" to="0" dur="0.8130000000000001s" begin="anim8.end" fill="freeze" id="anim9" /></path><path d="M 36.6 -30.4 L 36.6 -40.2" transform="translate(0.0 38.0)" stroke-dasharray="9.800000000000004" stroke-dashoffset="9.800000000000004"><animate attributeName="stroke-dashoffset" from="9.800000000000004" to="0" dur="0.2940000000000001s" begin="anim9.end" fill="freeze" id="anim_end" /></path></g></svg>