<?xml version='1.0' encoding='utf-8'?>
<svg viewBox="0.0 -6.0 50.0 50.0" version="1.1" xmlns="http://www.w3.org/2000/svg"><rect x="-1000" y="-1000" width="2000" height="2000" stroke="white" fill="white" /><g style="fill:none;stroke:#000000;stroke-width:1"><path d="M 45.9 -22.4 C 43.0 -25.7 40.5 -30.8 39.1 -35.2 C 38.5 -37.4 37.5 -38.1 35.1 -38.1 L 26.9 -38.1 " transform="translate(0.0 38.0)" stroke-dasharray="28.263008312042984" stroke-dashoffset="28.263008312042984"><animate attributeName="stroke-dashoffset" from="28.263008312042984" to="0" dur="0.8478902493612895s" begin="0s; anim_end.end" fill="freeze" id="anim0" /></path><path d="M 3.8 -5.0 C 8.4 -5.8 14.6 -7.7 19.4 -9.6 " transform="translate(0.0 38.0)" stroke-dasharray="16.288171668212655" stroke-dashoffset="16.288171668212655"><animate attributeName="stroke-dashoffset" from="16.288171668212655" to="0" dur="0.48864515004637965s" begin="anim0.end" fill="freeze" id="anim1" /></path><path d="M 8.0 -13.4 C 7.7 -16.7 6.9 -20.6 6.0 -23.6 " transform="translate(0.0 38.0)" stroke-dasharray="10.40977832541638" stroke-dashoffset="10.40977832541638"><animate attributeName="stroke-dashoffset" from="10.40977832541638" to="0" dur="0.31229334976249135s" begin="anim1.end" fill="freeze" id="anim2" /></path><path d="M 12.6 -8.1 C 14.1 -13.4 15.2 -19.1 15.8 -24.4 " transform="translate(0.0 38.0)" stroke-dasharray="16.628907086166322" stroke-dashoffset="16.628907086166322"><animate attributeName="stroke-dashoffset" from="16.628907086166322" to="0" dur="0.4988672125849896s" begin="anim2.end" fill="freeze" id="anim3" /></path><path d="M 19.6 2.0 C 25.9 -2.1 30.3 -9.3 30.7 -18.9 " transform="translate(0.0 38.0)" stroke-dasharray="24.610896067488476" stroke-dashoffset="24.610896067488476"><animate attributeName="stroke-dashoffset" from="24.610896067488476" to="0" dur="0.7383268820246542s" begin="anim3.end" fill="freeze" id="anim4" /></path><path d="M 18.6 -30.6 L 3.6 -30.6 " transform="translate(0.0 38.0)" stroke-dasharray="15.000000000000002" stroke-dashoffset="15.000000000000002"><animate attributeName="stroke-dashoffset" from="15.000000000000002" to="0" dur="0.45s" begin="anim4.end" fill="freeze" id="anim5" /></path><path d="M 33.2 0.8 C 34.1 1.1 35.0 1.1 36.0 1.1 C 38.1 1.1 39.5 0.2 40.0 -2.5 C 40.7 -5.5 41.2 -11.0 41.2 -16.1 C 41.3 -18.2 40.3 -19.4 37.6 -19.4 L 26.6 -19.4 " transform="translate(0.0 38.0)" stroke-dasharray="39.16767742164777" stroke-dashoffset="39.16767742164777"><animate attributeName="stroke-dashoffset" from="39.16767742164777" to="0" dur="1.175030322649433s" begin="anim5.end" fill="freeze" id="anim6" /></path><path d="M 11.1 -30.6 L 11.1 -39.5 " transform="translate(0.0 38.0)" stroke-dasharray="8.899999999999999" stroke-dashoffset="8.899999999999999"><animate attributeName="stroke-dashoffset" from="8.899999999999999" to="0" dur="0.26699999999999996s" begin="anim6.end" fill="freeze" id="anim7" /></path><path d="M 21.8 -20.6 C 24.2 -23.8 26.4 -28.1 27.8 -32.5" transform="translate(0.0 38.0)" stroke-dasharray="13.385764555466576" stroke-dashoffset="13.385764555466576"><animate attributeName="stroke-dashoffset" from="13.385764555466576" to="0" dur="0.40157293666399724s" begin="anim7.end" fill="freeze" id="anim_end" /></path></g></svg>