<?xml version='1.0' encoding='utf-8'?>
<svg viewBox="0.0 -6.0 50.0 50.0" version="1.1" xmlns="http://www.w3.org/2000/svg"><rect x="-1000" y="-1000" width="2000" height="2000" stroke="white" fill="white" /><g style="fill:none;stroke:#000000;stroke-width:1"><path d="M 11.0 -29.8 L 39.4 -29.8 C 41.8 -29.8 42.7 -30.6 42.7 -32.3 L 42.7 -35.5 C 42.7 -37.2 41.8 -38.1 39.4 -38.1 L 11.0 -38.1 C 8.6 -38.1 7.7 -37.2 7.7 -35.5 L 7.7 -32.3 C 7.7 -30.6 8.6 -29.8 11.0 -29.8 Z " transform="translate(0.0 38.0)" stroke-dasharray="82.42452007224942" stroke-dashoffset="82.42452007224942"><animate attributeName="stroke-dashoffset" from="82.42452007224942" to="0" dur="2.4727356021674827s" begin="0s; anim_end.end" fill="freeze" id="anim0" /></path><path d="M 3.9 -3.4 C 7.5 -7.1 10.8 -11.8 13.0 -16.5 " transform="translate(0.0 38.0)" stroke-dasharray="16.02099708054184" stroke-dashoffset="16.02099708054184"><animate attributeName="stroke-dashoffset" from="16.02099708054184" to="0" dur="0.4806299124162552s" begin="anim0.end" fill="freeze" id="anim1" /></path><path d="M 14.4 2.6 L 14.4 -25.4 " transform="translate(0.0 38.0)" stroke-dasharray="28.0" stroke-dashoffset="28.0"><animate attributeName="stroke-dashoffset" from="28.0" to="0" dur="0.84s" begin="anim1.end" fill="freeze" id="anim2" /></path><path d="M 20.8 -8.9 C 19.3 -10.5 17.4 -12.1 15.3 -13.2 " transform="translate(0.0 38.0)" stroke-dasharray="7.013185117103917" stroke-dashoffset="7.013185117103917"><animate attributeName="stroke-dashoffset" from="7.013185117103917" to="0" dur="0.2103955535131175s" begin="anim2.end" fill="freeze" id="anim3" /></path><path d="M 22.2 -18.8 L 5.0 -18.8 " transform="translate(0.0 38.0)" stroke-dasharray="17.2" stroke-dashoffset="17.2"><animate attributeName="stroke-dashoffset" from="17.2" to="0" dur="0.516s" begin="anim3.end" fill="freeze" id="anim4" /></path><path d="M 23.8 -3.3 C 27.9 -7.0 31.7 -12.1 33.9 -16.7 " transform="translate(0.0 38.0)" stroke-dasharray="16.877051117362203" stroke-dashoffset="16.877051117362203"><animate attributeName="stroke-dashoffset" from="16.877051117362203" to="0" dur="0.5063115335208661s" begin="anim4.end" fill="freeze" id="anim5" /></path><path d="M 35.1 2.5 L 35.1 -25.4 " transform="translate(0.0 38.0)" stroke-dasharray="27.9" stroke-dashoffset="27.9"><animate attributeName="stroke-dashoffset" from="27.9" to="0" dur="0.837s" begin="anim5.end" fill="freeze" id="anim6" /></path><path d="M 45.9 -4.0 C 42.0 -7.5 38.4 -12.6 36.0 -17.4 " transform="translate(0.0 38.0)" stroke-dasharray="16.75073685359026" stroke-dashoffset="16.75073685359026"><animate attributeName="stroke-dashoffset" from="16.75073685359026" to="0" dur="0.5025221056077078s" begin="anim6.end" fill="freeze" id="anim7" /></path><path d="M 19.1 -29.4 L 19.1 -37.9 " transform="translate(0.0 38.0)" stroke-dasharray="8.5" stroke-dashoffset="8.5"><animate attributeName="stroke-dashoffset" from="8.5" to="0" dur="0.255s" begin="anim7.end" fill="freeze" id="anim8" /></path><path d="M 45.1 -18.8 L 27.4 -18.8 " transform="translate(0.0 38.0)" stroke-dasharray="17.700000000000003" stroke-dashoffset="17.700000000000003"><animate attributeName="stroke-dashoffset" from="17.700000000000003" to="0" dur="0.531s" begin="anim8.end" fill="freeze" id="anim9" /></path><path d="M 30.5 -29.4 L 30.5 -37.9" transform="translate(0.0 38.0)" stroke-dasharray="8.5" stroke-dashoffset="8.5"><animate attributeName="stroke-dashoffset" from="8.5" to="0" dur="0.255s" begin="anim9.end" fill="freeze" id="anim_end" /></path></g></svg>