<?xml version='1.0' encoding='utf-8'?>
<svg viewBox="0.0 -6.0 50.0 50.0" version="1.1" xmlns="http://www.w3.org/2000/svg"><rect x="-1000" y="-1000" width="2000" height="2000" stroke="white" fill="white" /><g style="fill:none;stroke:#000000;stroke-width:1"><path d="M 40.1 2.0 C 41.0 2.2 41.5 2.2 42.0 2.2 C 43.9 2.2 44.5 1.1 44.5 -1.2 L 44.5 -12.1 C 44.5 -14.8 43.5 -15.7 40.6 -15.7 L 25.5 -15.7 C 22.6 -15.7 21.5 -14.8 21.5 -12.1 L 21.5 2.6 " transform="translate(0.0 38.0)" stroke-dasharray="60.038189352960124" stroke-dashoffset="60.038189352960124"><animate attributeName="stroke-dashoffset" from="60.038189352960124" to="0" dur="1.8011456805888038s" begin="0s" fill="freeze" /></path><path d="M 4.0 -10.1 C 7.2 -13.0 10.4 -17.7 12.7 -23.1 " transform="translate(0.0 38.0)" stroke-dasharray="15.754828480374226" stroke-dashoffset="15.754828480374226"><animate attributeName="stroke-dashoffset" from="15.754828480374226" to="0" dur="0.4726448544112267s" begin="1.8011456805888038s" fill="freeze" /></path><path d="M 5.7 1.1 C 6.5 1.4 7.4 1.5 8.3 1.5 C 11.7 1.5 14.1 -1.2 14.1 -11.8 C 14.1 -22.9 11.2 -30.1 5.0 -37.0 " transform="translate(0.0 38.0)" stroke-dasharray="46.237431477259804" stroke-dashoffset="46.237431477259804"><animate attributeName="stroke-dashoffset" from="46.237431477259804" to="0" dur="1.3871229443177941s" begin="2.2737905350000305s" fill="freeze" /></path><path d="M 29.0 0.2 L 29.0 -14.8 " transform="translate(0.0 38.0)" stroke-dasharray="15.0" stroke-dashoffset="15.0"><animate attributeName="stroke-dashoffset" from="15.0" to="0" dur="0.44999999999999996s" begin="3.6609134793178244s" fill="freeze" /></path><path d="M 4.1 -25.4 C 8.3 -28.9 12.9 -34.6 15.5 -39.9 " transform="translate(0.0 38.0)" stroke-dasharray="18.56304693481088" stroke-dashoffset="18.56304693481088"><animate attributeName="stroke-dashoffset" from="18.56304693481088" to="0" dur="0.5568914080443265s" begin="4.110913479317825s" fill="freeze" /></path><path d="M 36.5 0.1 L 36.5 -14.8 " transform="translate(0.0 38.0)" stroke-dasharray="14.9" stroke-dashoffset="14.9"><animate attributeName="stroke-dashoffset" from="14.9" to="0" dur="0.447s" begin="4.667804887362151s" fill="freeze" /></path><path d="M 28.9 -15.7 C 30.1 -17.7 31.1 -20.2 31.9 -22.9 " transform="translate(0.0 38.0)" stroke-dasharray="7.819934423217891" stroke-dashoffset="7.819934423217891"><animate attributeName="stroke-dashoffset" from="7.819934423217891" to="0" dur="0.23459803269653673s" begin="5.114804887362151s" fill="freeze" /></path><path d="M 46.5 -23.1 L 19.1 -23.1 " transform="translate(0.0 38.0)" stroke-dasharray="27.4" stroke-dashoffset="27.4"><animate attributeName="stroke-dashoffset" from="27.4" to="0" dur="0.822s" begin="5.349402920058688s" fill="freeze" /></path><path d="M 23.0 -37.6 L 23.0 -33.0 C 23.0 -30.8 23.9 -30.1 26.6 -30.1 L 39.6 -30.1 C 42.4 -30.1 43.3 -30.8 43.3 -33.0 L 43.3 -37.6 " transform="translate(0.0 38.0)" stroke-dasharray="33.14412570712945" stroke-dashoffset="33.14412570712945"><animate attributeName="stroke-dashoffset" from="33.14412570712945" to="0" dur="0.9943237712138834s" begin="6.171402920058688s" fill="freeze" /></path><path d="M 33.0 -30.6 L 33.0 -40.2" transform="translate(0.0 38.0)" stroke-dasharray="9.600000000000001" stroke-dashoffset="9.600000000000001"><animate attributeName="stroke-dashoffset" from="9.600000000000001" to="0" dur="0.28800000000000003s" begin="7.165726691272572s" fill="freeze" /></path></g></svg>