<?xml version='1.0' encoding='utf-8'?>
<svg viewBox="0.0 -6.0 50.0 50.0" version="1.1" xmlns="http://www.w3.org/2000/svg"><rect x="-1000" y="-1000" width="2000" height="2000" stroke="white" fill="white" /><g style="fill:none;stroke:#000000;stroke-width:1"><path d="M 27.8 -14.2 L 37.5 -14.2 C 40.4 -14.2 41.5 -15.2 41.5 -17.8 L 41.5 -35.4 C 41.5 -37.9 40.4 -38.9 37.5 -38.9 L 27.8 -38.9 C 24.9 -38.9 23.7 -37.9 23.7 -35.4 L 23.7 -17.8 C 23.7 -15.2 24.9 -14.2 27.8 -14.2 Z " transform="translate(0.0 38.0)" stroke-dasharray="79.66671685727218" stroke-dashoffset="79.66671685727218"><animate attributeName="stroke-dashoffset" from="79.66671685727218" to="0" dur="2.3900015057181654s" begin="0s" fill="freeze" /></path><path d="M 3.9 -6.2 C 8.1 -7.2 13.8 -9.2 17.9 -10.8 " transform="translate(0.0 38.0)" stroke-dasharray="14.746253647114296" stroke-dashoffset="14.746253647114296"><animate attributeName="stroke-dashoffset" from="14.746253647114296" to="0" dur="0.44238760941342886s" begin="2.3900015057181654s" fill="freeze" /></path><path d="M 16.6 1.9 C 23.2 -0.8 27.9 -6.0 28.8 -13.2 " transform="translate(0.0 38.0)" stroke-dasharray="20.403759202573507" stroke-dashoffset="20.403759202573507"><animate attributeName="stroke-dashoffset" from="20.403759202573507" to="0" dur="0.6121127760772052s" begin="2.832389115131594s" fill="freeze" /></path><path d="M 10.6 -7.8 L 10.6 -36.4 " transform="translate(0.0 38.0)" stroke-dasharray="28.599999999999998" stroke-dashoffset="28.599999999999998"><animate attributeName="stroke-dashoffset" from="28.599999999999998" to="0" dur="0.8579999999999999s" begin="3.444501891208799s" fill="freeze" /></path><path d="M 16.2 -23.5 L 4.5 -23.5 " transform="translate(0.0 38.0)" stroke-dasharray="11.7" stroke-dashoffset="11.7"><animate attributeName="stroke-dashoffset" from="11.7" to="0" dur="0.351s" begin="4.302501891208799s" fill="freeze" /></path><path d="M 46.0 -3.8 C 45.5 0.2 44.1 1.4 40.0 1.4 C 36.5 1.4 35.6 0.6 35.6 -1.2 L 35.6 -14.2 " transform="translate(0.0 38.0)" stroke-dasharray="27.983418040899245" stroke-dashoffset="27.983418040899245"><animate attributeName="stroke-dashoffset" from="27.983418040899245" to="0" dur="0.8395025412269773s" begin="4.653501891208799s" fill="freeze" /></path><path d="M 17.0 -36.5 L 3.9 -36.5 " transform="translate(0.0 38.0)" stroke-dasharray="13.1" stroke-dashoffset="13.1"><animate attributeName="stroke-dashoffset" from="13.1" to="0" dur="0.39299999999999996s" begin="5.493004432435776s" fill="freeze" /></path><path d="M 41.0 -22.9 L 24.0 -22.9 " transform="translate(0.0 38.0)" stroke-dasharray="17.0" stroke-dashoffset="17.0"><animate attributeName="stroke-dashoffset" from="17.0" to="0" dur="0.51s" begin="5.886004432435776s" fill="freeze" /></path><path d="M 41.0 -30.7 L 24.0 -30.7" transform="translate(0.0 38.0)" stroke-dasharray="17.0" stroke-dashoffset="17.0"><animate attributeName="stroke-dashoffset" from="17.0" to="0" dur="0.51s" begin="6.396004432435776s" fill="freeze" /></path></g></svg>