<?xml version='1.0' encoding='utf-8'?>
<svg viewBox="0.0 -6.0 50.0 50.0" version="1.1" xmlns="http://www.w3.org/2000/svg"><rect x="-1000" y="-1000" width="2000" height="2000" stroke="white" fill="white" /><g style="fill:none;stroke:#000000;stroke-width:1"><path d="M 44.6 -17.8 L 44.6 -21.2 C 44.6 -22.9 43.8 -23.8 41.4 -23.8 L 8.7 -23.8 C 6.3 -23.8 5.4 -22.9 5.4 -21.2 L 5.4 -17.4 " transform="translate(0.0 38.0)" stroke-dasharray="49.503726088216325" stroke-dashoffset="49.503726088216325"><animate attributeName="stroke-dashoffset" from="49.503726088216325" to="0" dur="1.4851117826464897s" begin="0s" fill="freeze" /></path><path d="M 9.9 -10.7 C 11.9 -12.8 13.8 -15.7 15.3 -18.9 " transform="translate(0.0 38.0)" stroke-dasharray="9.858886830059346" stroke-dashoffset="9.858886830059346"><animate attributeName="stroke-dashoffset" from="9.858886830059346" to="0" dur="0.29576660490178036s" begin="1.4851117826464897s" fill="freeze" /></path><path d="M 45.5 -6.2 L 4.4 -6.2 " transform="translate(0.0 38.0)" stroke-dasharray="41.1" stroke-dashoffset="41.1"><animate attributeName="stroke-dashoffset" from="41.1" to="0" dur="1.233s" begin="1.78087838754827s" fill="freeze" /></path><path d="M 25.2 3.0 L 25.2 -19.4 " transform="translate(0.0 38.0)" stroke-dasharray="22.4" stroke-dashoffset="22.4"><animate attributeName="stroke-dashoffset" from="22.4" to="0" dur="0.6719999999999999s" begin="3.01387838754827s" fill="freeze" /></path><path d="M 40.0 -14.2 L 12.9 -14.2 " transform="translate(0.0 38.0)" stroke-dasharray="27.1" stroke-dashoffset="27.1"><animate attributeName="stroke-dashoffset" from="27.1" to="0" dur="0.8130000000000001s" begin="3.6858783875482697s" fill="freeze" /></path><path d="M 9.4 -34.0 C 10.2 -35.1 10.9 -36.9 11.3 -38.1 " transform="translate(0.0 38.0)" stroke-dasharray="4.533929689575766" stroke-dashoffset="4.533929689575766"><animate attributeName="stroke-dashoffset" from="4.533929689575766" to="0" dur="0.13601789068727296s" begin="4.498878387548269s" fill="freeze" /></path><path d="M 9.5 -27.2 C 14.2 -30.0 16.4 -34.2 16.9 -40.6 " transform="translate(0.0 38.0)" stroke-dasharray="15.99501234851092" stroke-dashoffset="15.99501234851092"><animate attributeName="stroke-dashoffset" from="15.99501234851092" to="0" dur="0.4798503704553276s" begin="4.6348962782355425s" fill="freeze" /></path><path d="M 21.2 -28.4 C 19.9 -29.6 17.4 -31.1 15.2 -32.1 " transform="translate(0.0 38.0)" stroke-dasharray="7.072703806531269" stroke-dashoffset="7.072703806531269"><animate attributeName="stroke-dashoffset" from="7.072703806531269" to="0" dur="0.21218111419593808s" begin="5.11474664869087s" fill="freeze" /></path><path d="M 16.6 -35.1 C 18.7 -36.0 20.9 -37.0 22.6 -38.3 " transform="translate(0.0 38.0)" stroke-dasharray="6.817249749687983" stroke-dashoffset="6.817249749687983"><animate attributeName="stroke-dashoffset" from="6.817249749687983" to="0" dur="0.2045174924906395s" begin="5.326927762886808s" fill="freeze" /></path><path d="M 27.2 -34.0 C 27.9 -35.1 28.6 -36.9 29.1 -38.1 " transform="translate(0.0 38.0)" stroke-dasharray="4.524025102464709" stroke-dashoffset="4.524025102464709"><animate attributeName="stroke-dashoffset" from="4.524025102464709" to="0" dur="0.13572075307394124s" begin="5.531445255377448s" fill="freeze" /></path><path d="M 26.5 -27.2 C 31.3 -29.8 34.1 -34.3 34.6 -40.6 " transform="translate(0.0 38.0)" stroke-dasharray="16.382335587922697" stroke-dashoffset="16.382335587922697"><animate attributeName="stroke-dashoffset" from="16.382335587922697" to="0" dur="0.49147006763768086s" begin="5.667166008451389s" fill="freeze" /></path><path d="M 39.7 -27.9 C 37.8 -29.3 35.4 -30.8 32.8 -31.9 " transform="translate(0.0 38.0)" stroke-dasharray="7.993450666386368" stroke-dashoffset="7.993450666386368"><animate attributeName="stroke-dashoffset" from="7.993450666386368" to="0" dur="0.23980351999159102s" begin="6.15863607608907s" fill="freeze" /></path><path d="M 34.1 -34.8 C 36.6 -35.8 39.0 -37.0 40.9 -38.4" transform="translate(0.0 38.0)" stroke-dasharray="7.714169253505755" stroke-dashoffset="7.714169253505755"><animate attributeName="stroke-dashoffset" from="7.714169253505755" to="0" dur="0.23142507760517264s" begin="6.398439596080661s" fill="freeze" /></path></g></svg>