<?xml version='1.0' encoding='utf-8'?>
<svg viewBox="0.0 -6.0 50.0 50.0" version="1.1" xmlns="http://www.w3.org/2000/svg"><rect x="-1000" y="-1000" width="2000" height="2000" stroke="white" fill="white" /><g style="fill:none;stroke:#000000;stroke-width:1"><path d="M 28.9 1.3 L 38.5 1.3 C 42.0 1.3 43.4 0.1 43.4 -3.0 L 43.4 -27.1 C 43.4 -30.1 42.0 -31.3 38.5 -31.3 L 28.9 -31.3 C 25.3 -31.3 24.1 -30.1 24.1 -27.1 L 24.1 -3.0 C 24.1 0.1 25.4 1.3 28.9 1.3 Z " transform="translate(0.0 38.0)" stroke-dasharray="97.45997524835795" stroke-dashoffset="97.45997524835795"><animate attributeName="stroke-dashoffset" from="97.45997524835795" to="0" dur="2.9237992574507383s" begin="0s" fill="freeze" /></path><path d="M 4.0 -5.2 C 8.3 -6.2 14.3 -8.1 18.4 -9.8 " transform="translate(0.0 38.0)" stroke-dasharray="15.13072793914753" stroke-dashoffset="15.13072793914753"><animate attributeName="stroke-dashoffset" from="15.13072793914753" to="0" dur="0.4539218381744259s" begin="2.9237992574507383s" fill="freeze" /></path><path d="M 11.0 -7.0 L 11.0 -35.5 " transform="translate(0.0 38.0)" stroke-dasharray="28.5" stroke-dashoffset="28.5"><animate attributeName="stroke-dashoffset" from="28.5" to="0" dur="0.855s" begin="3.377721095625164s" fill="freeze" /></path><path d="M 16.9 -22.4 L 4.7 -22.4 " transform="translate(0.0 38.0)" stroke-dasharray="12.2" stroke-dashoffset="12.2"><animate attributeName="stroke-dashoffset" from="12.2" to="0" dur="0.366s" begin="4.232721095625164s" fill="freeze" /></path><path d="M 17.7 -35.6 L 4.0 -35.6 " transform="translate(0.0 38.0)" stroke-dasharray="13.7" stroke-dashoffset="13.7"><animate attributeName="stroke-dashoffset" from="13.7" to="0" dur="0.411s" begin="4.598721095625164s" fill="freeze" /></path><path d="M 42.9 -16.1 L 24.7 -16.1 " transform="translate(0.0 38.0)" stroke-dasharray="18.2" stroke-dashoffset="18.2"><animate attributeName="stroke-dashoffset" from="18.2" to="0" dur="0.5459999999999999s" begin="5.009721095625164s" fill="freeze" /></path><path d="M 31.6 -32.2 C 32.6 -34.5 33.7 -37.0 34.4 -39.2" transform="translate(0.0 38.0)" stroke-dasharray="7.542482217621622" stroke-dashoffset="7.542482217621622"><animate attributeName="stroke-dashoffset" from="7.542482217621622" to="0" dur="0.22627446652864863s" begin="5.555721095625164s" fill="freeze" /></path></g></svg>