<?xml version='1.0' encoding='utf-8'?>
<svg viewBox="0.0 -6.0 50.0 50.0" version="1.1" xmlns="http://www.w3.org/2000/svg"><rect x="-1000" y="-1000" width="2000" height="2000" stroke="white" fill="white" /><g style="fill:none;stroke:#000000;stroke-width:1"><path d="M 26.2 2.6 L 26.2 -27.0 C 26.2 -29.3 27.4 -30.6 30.1 -30.6 L 46.0 -30.6 " transform="translate(0.0 38.0)" stroke-dasharray="51.58757314510199" stroke-dashoffset="51.58757314510199"><animate attributeName="stroke-dashoffset" from="51.58757314510199" to="0" dur="1.5476271943530597s" begin="0s; 15s; 30s; 45s" fill="freeze" id="anim0" /></path><path d="M 4.2 -2.5 C 5.2 -5.0 6.0 -9.0 6.2 -11.8 " transform="translate(0.0 38.0)" stroke-dasharray="9.542632907847509" stroke-dashoffset="9.542632907847509"><animate attributeName="stroke-dashoffset" from="9.542632907847509" to="0" dur="0.2862789872354252s" begin="anim0.end" fill="freeze" id="anim1" /></path><path d="M 11.6 2.6 L 11.6 -18.6 " transform="translate(0.0 38.0)" stroke-dasharray="21.200000000000003" stroke-dashoffset="21.200000000000003"><animate attributeName="stroke-dashoffset" from="21.200000000000003" to="0" dur="0.636s" begin="anim1.end" fill="freeze" id="anim2" /></path><path d="M 18.8 -5.2 C 18.4 -7.8 17.4 -10.8 16.5 -12.6 " transform="translate(0.0 38.0)" stroke-dasharray="7.775182718480478" stroke-dashoffset="7.775182718480478"><animate attributeName="stroke-dashoffset" from="7.775182718480478" to="0" dur="0.23325548155441433s" begin="anim2.end" fill="freeze" id="anim3" /></path><path d="M 3.6 -18.5 C 8.1 -18.6 13.2 -19.1 17.6 -19.8 " transform="translate(0.0 38.0)" stroke-dasharray="14.070237222550446" stroke-dashoffset="14.070237222550446"><animate attributeName="stroke-dashoffset" from="14.070237222550446" to="0" dur="0.42210711667651335s" begin="anim3.end" fill="freeze" id="anim4" /></path><path d="M 11.0 -26.2 C 8.8 -29.2 6.8 -31.5 5.3 -32.7 " transform="translate(0.0 38.0)" stroke-dasharray="8.665702453270885" stroke-dashoffset="8.665702453270885"><animate attributeName="stroke-dashoffset" from="8.665702453270885" to="0" dur="0.25997107359812655s" begin="anim4.end" fill="freeze" id="anim5" /></path><path d="M 19.4 -17.4 C 18.8 -19.4 17.4 -21.6 16.2 -23.2 " transform="translate(0.0 38.0)" stroke-dasharray="6.655247045516266" stroke-dashoffset="6.655247045516266"><animate attributeName="stroke-dashoffset" from="6.655247045516266" to="0" dur="0.19965741136548795s" begin="anim5.end" fill="freeze" id="anim6" /></path><path d="M 46.5 -0.8 L 26.6 -0.8 " transform="translate(0.0 38.0)" stroke-dasharray="19.9" stroke-dashoffset="19.9"><animate attributeName="stroke-dashoffset" from="19.9" to="0" dur="0.597s" begin="anim6.end" fill="freeze" id="anim7" /></path><path d="M 7.2 -19.0 C 10.4 -23.1 14.2 -28.8 16.4 -33.1 " transform="translate(0.0 38.0)" stroke-dasharray="16.857003101286796" stroke-dashoffset="16.857003101286796"><animate attributeName="stroke-dashoffset" from="16.857003101286796" to="0" dur="0.5057100930386039s" begin="anim7.end" fill="freeze" id="anim8" /></path><path d="M 7.8 -31.1 C 9.4 -33.8 10.8 -36.9 12.0 -39.7 " transform="translate(0.0 38.0)" stroke-dasharray="9.577474731742942" stroke-dashoffset="9.577474731742942"><animate attributeName="stroke-dashoffset" from="9.577474731742942" to="0" dur="0.2873242419522883s" begin="anim8.end" fill="freeze" id="anim9" /></path><path d="M 44.3 -11.4 L 26.1 -11.4 " transform="translate(0.0 38.0)" stroke-dasharray="18.199999999999996" stroke-dashoffset="18.199999999999996"><animate attributeName="stroke-dashoffset" from="18.199999999999996" to="0" dur="0.5459999999999998s" begin="anim9.end" fill="freeze" id="anim10" /></path><path d="M 36.0 -0.5 L 36.0 -30.6 " transform="translate(0.0 38.0)" stroke-dasharray="30.1" stroke-dashoffset="30.1"><animate attributeName="stroke-dashoffset" from="30.1" to="0" dur="0.903s" begin="anim10.end" fill="freeze" id="anim11" /></path><path d="M 21.4 -23.6 C 24.8 -27.9 27.8 -33.9 29.6 -39.5 " transform="translate(0.0 38.0)" stroke-dasharray="17.977393623427137" stroke-dashoffset="17.977393623427137"><animate attributeName="stroke-dashoffset" from="17.977393623427137" to="0" dur="0.5393218087028141s" begin="anim11.end" fill="freeze" id="anim12" /></path><path d="M 44.3 -21.1 L 26.1 -21.1 " transform="translate(0.0 38.0)" stroke-dasharray="18.199999999999996" stroke-dashoffset="18.199999999999996"><animate attributeName="stroke-dashoffset" from="18.199999999999996" to="0" dur="0.5459999999999998s" begin="anim12.end" fill="freeze" id="anim13" /></path><path d="M 35.2 -30.2 C 36.9 -33.2 38.0 -36.2 38.9 -39.2" transform="translate(0.0 38.0)" stroke-dasharray="9.752117125985237" stroke-dashoffset="9.752117125985237"><animate attributeName="stroke-dashoffset" from="9.752117125985237" to="0" dur="0.2925635137795571s" begin="anim13.end" fill="freeze" id="anim_end" /></path></g></svg>