<?xml version='1.0' encoding='utf-8'?>
<svg viewBox="0.0 -6.0 50.0 50.0" version="1.1" xmlns="http://www.w3.org/2000/svg"><rect x="-1000" y="-1000" width="2000" height="2000" stroke="white" fill="white" /><g style="fill:none;stroke:#000000;stroke-width:1"><path d="M 15.6 1.9 C 20.8 -1.8 23.9 -8.5 24.1 -19.4 " transform="translate(0.0 38.0)" stroke-dasharray="23.809518788713035" stroke-dashoffset="23.809518788713035"><animate attributeName="stroke-dashoffset" from="23.809518788713035" to="0" dur="0.7142855636613911s" begin="0s; anim_end.end" fill="freeze" id="anim0" /></path><path d="M 8.8 -4.1 L 10.7 -4.1 C 12.5 -4.1 13.3 -4.8 13.3 -6.8 L 13.3 -20.8 C 13.3 -22.9 12.5 -23.5 10.7 -23.5 L 8.8 -23.5 C 7.0 -23.5 6.2 -22.6 6.2 -20.8 L 6.2 -6.8 C 6.2 -4.8 7.0 -4.1 8.8 -4.1 Z " transform="translate(0.0 38.0)" stroke-dasharray="49.242982810470274" stroke-dashoffset="49.242982810470274"><animate attributeName="stroke-dashoffset" from="49.242982810470274" to="0" dur="1.4772894843141082s" begin="anim0.end" fill="freeze" id="anim1" /></path><path d="M 27.2 -3.7 C 26.0 -4.8 24.8 -5.8 23.2 -6.8 " transform="translate(0.0 38.0)" stroke-dasharray="5.0683755764887675" stroke-dashoffset="5.0683755764887675"><animate attributeName="stroke-dashoffset" from="5.0683755764887675" to="0" dur="0.152051267294663s" begin="anim1.end" fill="freeze" id="anim2" /></path><path d="M 2.6 -17.8 C 5.3 -22.4 7.6 -30.4 8.2 -37.0 " transform="translate(0.0 38.0)" stroke-dasharray="20.13146595957554" stroke-dashoffset="20.13146595957554"><animate attributeName="stroke-dashoffset" from="20.13146595957554" to="0" dur="0.6039439787872661s" begin="anim2.end" fill="freeze" id="anim3" /></path><path d="M 28.8 -11.7 L 17.6 -11.7 " transform="translate(0.0 38.0)" stroke-dasharray="11.2" stroke-dashoffset="11.2"><animate attributeName="stroke-dashoffset" from="11.2" to="0" dur="0.33599999999999997s" begin="anim3.end" fill="freeze" id="anim4" /></path><path d="M 28.6 2.0 C 31.2 -2.1 33.1 -8.8 33.5 -15.4 " transform="translate(0.0 38.0)" stroke-dasharray="18.24509366046168" stroke-dashoffset="18.24509366046168"><animate attributeName="stroke-dashoffset" from="18.24509366046168" to="0" dur="0.5473528098138504s" begin="anim4.end" fill="freeze" id="anim5" /></path><path d="M 17.6 -16.7 C 18.8 -18.9 19.8 -21.6 20.2 -24.1 " transform="translate(0.0 38.0)" stroke-dasharray="7.878999856609291" stroke-dashoffset="7.878999856609291"><animate attributeName="stroke-dashoffset" from="7.878999856609291" to="0" dur="0.23636999569827874s" begin="anim5.end" fill="freeze" id="anim6" /></path><path d="M 47.0 0.8 C 46.3 0.8 45.6 0.8 44.6 0.8 C 38.4 0.8 34.6 -2.0 33.0 -8.0 " transform="translate(0.0 38.0)" stroke-dasharray="18.315264970026142" stroke-dashoffset="18.315264970026142"><animate attributeName="stroke-dashoffset" from="18.315264970026142" to="0" dur="0.5494579491007843s" begin="anim6.end" fill="freeze" id="anim7" /></path><path d="M 28.9 -20.3 L 19.7 -20.3 " transform="translate(0.0 38.0)" stroke-dasharray="9.2" stroke-dashoffset="9.2"><animate attributeName="stroke-dashoffset" from="9.2" to="0" dur="0.27599999999999997s" begin="anim7.end" fill="freeze" id="anim8" /></path><path d="M 14.4 -37.5 L 2.8 -37.5 " transform="translate(0.0 38.0)" stroke-dasharray="11.600000000000001" stroke-dashoffset="11.600000000000001"><animate attributeName="stroke-dashoffset" from="11.600000000000001" to="0" dur="0.34800000000000003s" begin="anim8.end" fill="freeze" id="anim9" /></path><path d="M 39.1 -0.4 L 39.1 -23.2 " transform="translate(0.0 38.0)" stroke-dasharray="22.8" stroke-dashoffset="22.8"><animate attributeName="stroke-dashoffset" from="22.8" to="0" dur="0.6839999999999999s" begin="anim9.end" fill="freeze" id="anim10" /></path><path d="M 45.8 -12.7 L 38.5 -12.7 " transform="translate(0.0 38.0)" stroke-dasharray="7.299999999999997" stroke-dashoffset="7.299999999999997"><animate attributeName="stroke-dashoffset" from="7.299999999999997" to="0" dur="0.21899999999999992s" begin="anim10.end" fill="freeze" id="anim11" /></path><path d="M 29.8 -31.4 C 29.4 -28.6 28.0 -27.9 23.9 -27.9 C 19.9 -27.9 19.1 -28.6 19.1 -30.2 L 19.1 -40.1 " transform="translate(0.0 38.0)" stroke-dasharray="23.729293640768525" stroke-dashoffset="23.729293640768525"><animate attributeName="stroke-dashoffset" from="23.729293640768525" to="0" dur="0.7118788092230557s" begin="anim11.end" fill="freeze" id="anim12" /></path><path d="M 45.0 -18.6 C 45.4 -19.3 45.9 -20.2 46.2 -21.1 C 46.9 -22.8 46.2 -23.8 44.2 -23.8 L 31.9 -23.8 " transform="translate(0.0 38.0)" stroke-dasharray="19.367120923992545" stroke-dashoffset="19.367120923992545"><animate attributeName="stroke-dashoffset" from="19.367120923992545" to="0" dur="0.5810136277197763s" begin="anim12.end" fill="freeze" id="anim13" /></path><path d="M 19.8 -34.0 C 22.6 -34.8 25.9 -36.3 27.9 -37.5 " transform="translate(0.0 38.0)" stroke-dasharray="8.844788481069726" stroke-dashoffset="8.844788481069726"><animate attributeName="stroke-dashoffset" from="8.844788481069726" to="0" dur="0.26534365443209174s" begin="anim13.end" fill="freeze" id="anim14" /></path><path d="M 41.1 -27.9 C 39.5 -29.5 37.6 -31.0 36.1 -32.0 " transform="translate(0.0 38.0)" stroke-dasharray="6.4756410032631395" stroke-dashoffset="6.4756410032631395"><animate attributeName="stroke-dashoffset" from="6.4756410032631395" to="0" dur="0.19426923009789418s" begin="anim14.end" fill="freeze" id="anim15" /></path><path d="M 39.0 -30.4 C 41.1 -31.8 43.1 -33.5 44.6 -35.1 C 46.1 -36.9 45.5 -38.4 43.2 -38.4 L 33.0 -38.4" transform="translate(0.0 38.0)" stroke-dasharray="22.556106076702477" stroke-dashoffset="22.556106076702477"><animate attributeName="stroke-dashoffset" from="22.556106076702477" to="0" dur="0.6766831823010743s" begin="anim15.end" fill="freeze" id="anim_end" /></path></g></svg>