<?xml version='1.0' encoding='utf-8'?>
<svg viewBox="0.0 -6.0 50.0 50.0" version="1.1" xmlns="http://www.w3.org/2000/svg"><rect x="-1000" y="-1000" width="2000" height="2000" stroke="white" fill="white" /><g style="fill:none;stroke:#000000;stroke-width:1"><path d="M 40.5 -5.5 C 41.1 -5.3 41.5 -5.3 42.1 -5.3 C 44.4 -5.3 45.9 -7.0 45.9 -11.1 C 45.9 -14.8 44.4 -18.7 41.1 -22.0 L 41.2 -22.8 C 42.8 -26.0 44.1 -30.4 45.0 -34.0 C 45.5 -36.2 44.6 -37.4 42.5 -37.4 L 39.0 -37.4 C 36.8 -37.4 36.0 -36.4 36.0 -34.0 L 36.0 2.3 " transform="translate(0.0 38.0)" stroke-dasharray="84.5208496396513" stroke-dashoffset="84.5208496396513"><animate attributeName="stroke-dashoffset" from="84.5208496396513" to="0" dur="2.535625489189539s" begin="0s; anim_end.end" fill="freeze" id="anim0" /></path><path d="M 3.4 -5.9 C 7.0 -6.9 11.8 -8.7 14.8 -10.1 " transform="translate(0.0 38.0)" stroke-dasharray="12.160179471562204" stroke-dashoffset="12.160179471562204"><animate attributeName="stroke-dashoffset" from="12.160179471562204" to="0" dur="0.3648053841468661s" begin="anim0.end" fill="freeze" id="anim1" /></path><path d="M 14.7 0.1 C 19.2 -1.1 24.1 -2.9 28.1 -4.8 " transform="translate(0.0 38.0)" stroke-dasharray="14.286213393373993" stroke-dashoffset="14.286213393373993"><animate attributeName="stroke-dashoffset" from="14.286213393373993" to="0" dur="0.42858640180121976s" begin="anim1.end" fill="freeze" id="anim2" /></path><path d="M 9.3 -7.7 L 9.3 -36.5 " transform="translate(0.0 38.0)" stroke-dasharray="28.8" stroke-dashoffset="28.8"><animate attributeName="stroke-dashoffset" from="28.8" to="0" dur="0.864s" begin="anim2.end" fill="freeze" id="anim3" /></path><path d="M 14.3 -23.4 L 4.0 -23.4 " transform="translate(0.0 38.0)" stroke-dasharray="10.3" stroke-dashoffset="10.3"><animate attributeName="stroke-dashoffset" from="10.3" to="0" dur="0.309s" begin="anim3.end" fill="freeze" id="anim4" /></path><path d="M 30.6 -2.4 C 28.9 -5.2 26.5 -8.5 24.4 -10.6 " transform="translate(0.0 38.0)" stroke-dasharray="10.301150320561948" stroke-dashoffset="10.301150320561948"><animate attributeName="stroke-dashoffset" from="10.301150320561948" to="0" dur="0.30903450961685847s" begin="anim4.end" fill="freeze" id="anim5" /></path><path d="M 26.9 -8.5 C 28.2 -9.6 29.6 -11.1 30.8 -12.7 " transform="translate(0.0 38.0)" stroke-dasharray="5.74286390466906" stroke-dashoffset="5.74286390466906"><animate attributeName="stroke-dashoffset" from="5.74286390466906" to="0" dur="0.1722859171400718s" begin="anim5.end" fill="freeze" id="anim6" /></path><path d="M 19.2 -1.2 L 19.2 -31.2 C 19.2 -33.1 19.9 -34.1 22.2 -34.1 L 26.6 -34.1 C 28.9 -34.1 29.5 -33.1 29.5 -31.2 L 29.5 -21.5 C 29.5 -19.8 28.6 -18.7 26.3 -18.7 L 20.1 -18.7 " transform="translate(0.0 38.0)" stroke-dasharray="64.8157075999731" stroke-dashoffset="64.8157075999731"><animate attributeName="stroke-dashoffset" from="64.8157075999731" to="0" dur="1.9444712279991927s" begin="anim6.end" fill="freeze" id="anim7" /></path><path d="M 14.9 -36.5 L 3.5 -36.5 " transform="translate(0.0 38.0)" stroke-dasharray="11.4" stroke-dashoffset="11.4"><animate attributeName="stroke-dashoffset" from="11.4" to="0" dur="0.34199999999999997s" begin="anim7.end" fill="freeze" id="anim8" /></path><path d="M 28.8 -26.6 L 20.1 -26.6 " transform="translate(0.0 38.0)" stroke-dasharray="8.7" stroke-dashoffset="8.7"><animate attributeName="stroke-dashoffset" from="8.7" to="0" dur="0.26099999999999995s" begin="anim8.end" fill="freeze" id="anim9" /></path><path d="M 24.4 -34.2 L 24.4 -40.2" transform="translate(0.0 38.0)" stroke-dasharray="6.0" stroke-dashoffset="6.0"><animate attributeName="stroke-dashoffset" from="6.0" to="0" dur="0.18s" begin="anim9.end" fill="freeze" id="anim_end" /></path></g></svg>