<?xml version='1.0' encoding='utf-8'?>
<svg viewBox="0.0 -6.0 50.0 50.0" version="1.1" xmlns="http://www.w3.org/2000/svg"><rect x="-1000" y="-1000" width="2000" height="2000" stroke="white" fill="white" /><g style="fill:none;stroke:#000000;stroke-width:1"><path d="M 24.4 -3.5 L 37.7 -3.5 C 40.5 -3.5 41.5 -4.2 41.5 -6.1 L 41.5 -14.2 C 41.5 -15.9 40.5 -16.8 37.7 -16.8 L 24.4 -16.8 C 21.6 -16.8 20.8 -15.9 20.8 -14.2 L 20.8 -6.1 C 20.8 -4.2 21.6 -3.5 24.4 -3.5 Z " transform="translate(0.0 38.0)" stroke-dasharray="63.72646013603441" stroke-dashoffset="63.72646013603441"><animate attributeName="stroke-dashoffset" from="63.72646013603441" to="0" dur="1.9117938040810323s" begin="0s; anim_end.end" fill="freeze" id="anim0" /></path><path d="M 5.2 0.5 C 7.3 -2.9 9.8 -8.3 11.2 -12.7 " transform="translate(0.0 38.0)" stroke-dasharray="14.529661006133914" stroke-dashoffset="14.529661006133914"><animate attributeName="stroke-dashoffset" from="14.529661006133914" to="0" dur="0.4358898301840174s" begin="anim0.end" fill="freeze" id="anim1" /></path><path d="M 15.2 2.8 C 18.7 2.1 22.2 1.1 25.0 -0.2 " transform="translate(0.0 38.0)" stroke-dasharray="10.271628731008251" stroke-dashoffset="10.271628731008251"><animate attributeName="stroke-dashoffset" from="10.271628731008251" to="0" dur="0.30814886193024754s" begin="anim1.end" fill="freeze" id="anim2" /></path><path d="M 8.1 -23.1 C 6.9 -24.4 5.1 -26.0 4.0 -26.9 " transform="translate(0.0 38.0)" stroke-dasharray="5.593858167887596" stroke-dashoffset="5.593858167887596"><animate attributeName="stroke-dashoffset" from="5.593858167887596" to="0" dur="0.16781574503662788s" begin="anim2.end" fill="freeze" id="anim3" /></path><path d="M 40.6 -8.0 L 21.5 -8.0 " transform="translate(0.0 38.0)" stroke-dasharray="19.1" stroke-dashoffset="19.1"><animate attributeName="stroke-dashoffset" from="19.1" to="0" dur="0.5730000000000001s" begin="anim3.end" fill="freeze" id="anim4" /></path><path d="M 44.8 2.5 C 41.6 1.8 38.2 0.8 35.9 -0.3 " transform="translate(0.0 38.0)" stroke-dasharray="9.348054739159274" stroke-dashoffset="9.348054739159274"><animate attributeName="stroke-dashoffset" from="9.348054739159274" to="0" dur="0.2804416421747782s" begin="anim4.end" fill="freeze" id="anim5" /></path><path d="M 40.6 -12.3 L 21.5 -12.3 " transform="translate(0.0 38.0)" stroke-dasharray="19.1" stroke-dashoffset="19.1"><animate attributeName="stroke-dashoffset" from="19.1" to="0" dur="0.5730000000000001s" begin="anim5.end" fill="freeze" id="anim6" /></path><path d="M 11.2 -35.2 C 10.2 -36.5 8.5 -38.0 7.3 -38.9 " transform="translate(0.0 38.0)" stroke-dasharray="5.389574209665458" stroke-dashoffset="5.389574209665458"><animate attributeName="stroke-dashoffset" from="5.389574209665458" to="0" dur="0.16168722628996374s" begin="anim6.end" fill="freeze" id="anim7" /></path><path d="M 22.9 -23.7 C 25.6 -24.2 27.3 -25.6 28.1 -27.9 " transform="translate(0.0 38.0)" stroke-dasharray="7.044814518975187" stroke-dashoffset="7.044814518975187"><animate attributeName="stroke-dashoffset" from="7.044814518975187" to="0" dur="0.2113444355692556s" begin="anim7.end" fill="freeze" id="anim8" /></path><path d="M 21.6 -20.9 L 40.7 -20.9 C 43.1 -20.9 44.0 -21.8 44.0 -23.3 L 44.0 -26.4 C 44.0 -27.9 43.1 -28.7 40.7 -28.7 L 21.6 -28.7 C 19.1 -28.7 18.2 -27.9 18.2 -26.4 L 18.2 -23.3 C 18.2 -21.8 19.1 -20.9 21.6 -20.9 Z " transform="translate(0.0 38.0)" stroke-dasharray="63.11893341616271" stroke-dashoffset="63.11893341616271"><animate attributeName="stroke-dashoffset" from="63.11893341616271" to="0" dur="1.8935680024848813s" begin="anim8.end" fill="freeze" id="anim9" /></path><path d="M 39.9 -26.0 C 39.7 -24.8 39.0 -24.2 36.6 -24.2 C 34.0 -24.2 33.5 -24.6 33.5 -25.8 L 33.5 -27.9 " transform="translate(0.0 38.0)" stroke-dasharray="10.30973136207901" stroke-dashoffset="10.30973136207901"><animate attributeName="stroke-dashoffset" from="10.30973136207901" to="0" dur="0.3092919408623703s" begin="anim9.end" fill="freeze" id="anim10" /></path><path d="M 42.9 -32.9 L 19.4 -32.9 " transform="translate(0.0 38.0)" stroke-dasharray="23.5" stroke-dashoffset="23.5"><animate attributeName="stroke-dashoffset" from="23.5" to="0" dur="0.705s" begin="anim10.end" fill="freeze" id="anim11" /></path><path d="M 30.9 -33.0 L 30.9 -40.5 " transform="translate(0.0 38.0)" stroke-dasharray="7.5" stroke-dashoffset="7.5"><animate attributeName="stroke-dashoffset" from="7.5" to="0" dur="0.22499999999999998s" begin="anim11.end" fill="freeze" id="anim12" /></path><path d="M 46.2 -37.6 L 16.2 -37.6" transform="translate(0.0 38.0)" stroke-dasharray="30.000000000000004" stroke-dashoffset="30.000000000000004"><animate attributeName="stroke-dashoffset" from="30.000000000000004" to="0" dur="0.9s" begin="anim12.end" fill="freeze" id="anim_end" /></path></g></svg>