<?xml version='1.0' encoding='utf-8'?>
<svg viewBox="0.0 -6.0 50.0 50.0" version="1.1" xmlns="http://www.w3.org/2000/svg"><rect x="-1000" y="-1000" width="2000" height="2000" stroke="white" fill="white" /><g style="fill:none;stroke:#000000;stroke-width:1"><path d="M 4.7 0.1 C 8.9 -5.0 11.4 -11.5 11.4 -20.9 L 11.4 -32.0 " transform="translate(0.0 38.0)" stroke-dasharray="33.61455116971226" stroke-dashoffset="33.61455116971226"><animate attributeName="stroke-dashoffset" from="33.61455116971226" to="0" dur="1.0084365350913678s" begin="0s" fill="freeze" /></path><path d="M 18.1 -5.7 C 16.4 -7.8 13.9 -10.2 11.3 -12.0 " transform="translate(0.0 38.0)" stroke-dasharray="9.298518167154906" stroke-dashoffset="9.298518167154906"><animate attributeName="stroke-dashoffset" from="9.298518167154906" to="0" dur="0.2789555450146472s" begin="1.0084365350913678s" fill="freeze" /></path><path d="M 18.8 -20.8 L 3.5 -20.8 " transform="translate(0.0 38.0)" stroke-dasharray="15.3" stroke-dashoffset="15.3"><animate attributeName="stroke-dashoffset" from="15.3" to="0" dur="0.459s" begin="1.287392080106015s" fill="freeze" /></path><path d="M 46.6 0.8 L 19.2 0.8 " transform="translate(0.0 38.0)" stroke-dasharray="27.400000000000002" stroke-dashoffset="27.400000000000002"><animate attributeName="stroke-dashoffset" from="27.400000000000002" to="0" dur="0.8220000000000001s" begin="1.746392080106015s" fill="freeze" /></path><path d="M 29.6 -5.2 C 29.1 -6.9 28.1 -9.2 27.1 -10.8 " transform="translate(0.0 38.0)" stroke-dasharray="6.14854667988171" stroke-dashoffset="6.14854667988171"><animate attributeName="stroke-dashoffset" from="6.14854667988171" to="0" dur="0.18445640039645128s" begin="2.5683920801060154s" fill="freeze" /></path><path d="M 3.8 -27.1 C 5.7 -30.8 7.2 -35.4 8.2 -39.5 " transform="translate(0.0 38.0)" stroke-dasharray="13.1858151972934" stroke-dashoffset="13.1858151972934"><animate attributeName="stroke-dashoffset" from="13.1858151972934" to="0" dur="0.39557445591880197s" begin="2.7528484805024664s" fill="freeze" /></path><path d="M 35.0 0.2 C 37.0 -3.4 38.8 -7.7 40.0 -11.3 " transform="translate(0.0 38.0)" stroke-dasharray="12.55644275443187" stroke-dashoffset="12.55644275443187"><animate attributeName="stroke-dashoffset" from="12.55644275443187" to="0" dur="0.3766932826329561s" begin="3.1484229364212686s" fill="freeze" /></path><path d="M 17.5 -32.5 L 6.2 -32.5 " transform="translate(0.0 38.0)" stroke-dasharray="11.3" stroke-dashoffset="11.3"><animate attributeName="stroke-dashoffset" from="11.3" to="0" dur="0.339s" begin="3.5251162190542247s" fill="freeze" /></path><path d="M 38.4 -28.5 L 29.2 -28.5 C 26.2 -28.5 25.2 -27.5 25.2 -25.4 L 25.2 -20.2 C 25.2 -18.1 26.2 -17.1 29.2 -17.1 L 38.4 -17.1 C 41.4 -17.1 42.4 -18.1 42.4 -20.2 L 42.4 -25.4 C 42.4 -27.5 41.4 -28.6 38.4 -28.5 Z " transform="translate(0.0 38.0)" stroke-dasharray="52.27974541526024" stroke-dashoffset="52.27974541526024"><animate attributeName="stroke-dashoffset" from="52.27974541526024" to="0" dur="1.568392362457807s" begin="3.8641162190542246s" fill="freeze" /></path><path d="M 45.9 -36.6 L 21.6 -36.6" transform="translate(0.0 38.0)" stroke-dasharray="24.299999999999997" stroke-dashoffset="24.299999999999997"><animate attributeName="stroke-dashoffset" from="24.299999999999997" to="0" dur="0.7289999999999999s" begin="5.432508581512032s" fill="freeze" /></path></g></svg>