<?xml version='1.0' encoding='utf-8'?>
<svg viewBox="0.0 -6.0 50.0 50.0" version="1.1" xmlns="http://www.w3.org/2000/svg"><rect x="-1000" y="-1000" width="2000" height="2000" stroke="white" fill="white" /><g style="fill:none;stroke:#000000;stroke-width:1"><path d="M 9.4 -3.8 L 11.7 -3.8 C 13.5 -3.8 14.3 -4.5 14.3 -6.5 L 14.3 -20.6 C 14.3 -22.6 13.5 -23.2 11.7 -23.2 L 9.4 -23.2 C 7.7 -23.2 6.8 -22.4 6.8 -20.6 L 6.8 -6.5 C 6.8 -4.5 7.7 -3.8 9.4 -3.8 Z " transform="translate(0.0 38.0)" stroke-dasharray="50.03986564065661" stroke-dashoffset="50.03986564065661"><animate attributeName="stroke-dashoffset" from="50.03986564065661" to="0" dur="1.5011959692196981s" begin="0s" fill="freeze" /></path><path d="M 17.0 2.0 C 23.0 0.1 26.9 -3.8 27.9 -9.7 " transform="translate(0.0 38.0)" stroke-dasharray="16.908245381250094" stroke-dashoffset="16.908245381250094"><animate attributeName="stroke-dashoffset" from="16.908245381250094" to="0" dur="0.5072473614375028s" begin="1.5011959692196981s" fill="freeze" /></path><path d="M 2.8 -17.1 C 5.8 -21.8 8.2 -30.1 8.9 -36.8 " transform="translate(0.0 38.0)" stroke-dasharray="20.772989845927658" stroke-dashoffset="20.772989845927658"><animate attributeName="stroke-dashoffset" from="20.772989845927658" to="0" dur="0.6231896953778298s" begin="2.008443330657201s" fill="freeze" /></path><path d="M 19.4 -14.8 C 22.7 -15.2 26.9 -16.2 29.9 -17.2 " transform="translate(0.0 38.0)" stroke-dasharray="10.786231646185508" stroke-dashoffset="10.786231646185508"><animate attributeName="stroke-dashoffset" from="10.786231646185508" to="0" dur="0.3235869493855652s" begin="2.631633026035031s" fill="freeze" /></path><path d="M 45.4 -9.9 L 19.9 -9.9 " transform="translate(0.0 38.0)" stroke-dasharray="25.5" stroke-dashoffset="25.5"><animate attributeName="stroke-dashoffset" from="25.5" to="0" dur="0.765s" begin="2.9552199754205963s" fill="freeze" /></path><path d="M 45.9 -3.0 C 45.5 0.4 44.0 1.4 40.0 1.4 C 36.2 1.4 35.4 0.8 35.4 -1.4 L 35.4 -9.8 " transform="translate(0.0 38.0)" stroke-dasharray="23.12874065597188" stroke-dashoffset="23.12874065597188"><animate attributeName="stroke-dashoffset" from="23.12874065597188" to="0" dur="0.6938622196791563s" begin="3.7202199754205965s" fill="freeze" /></path><path d="M 15.8 -37.2 L 3.0 -37.2 " transform="translate(0.0 38.0)" stroke-dasharray="12.8" stroke-dashoffset="12.8"><animate attributeName="stroke-dashoffset" from="12.8" to="0" dur="0.384s" begin="4.414082195099753s" fill="freeze" /></path><path d="M 24.9 -16.4 L 24.9 -25.6 " transform="translate(0.0 38.0)" stroke-dasharray="9.200000000000003" stroke-dashoffset="9.200000000000003"><animate attributeName="stroke-dashoffset" from="9.200000000000003" to="0" dur="0.2760000000000001s" begin="4.798082195099753s" fill="freeze" /></path><path d="M 29.9 -22.2 L 20.3 -22.2 " transform="translate(0.0 38.0)" stroke-dasharray="9.599999999999998" stroke-dashoffset="9.599999999999998"><animate attributeName="stroke-dashoffset" from="9.599999999999998" to="0" dur="0.2879999999999999s" begin="5.074082195099753s" fill="freeze" /></path><path d="M 45.8 -15.7 L 33.3 -15.7 " transform="translate(0.0 38.0)" stroke-dasharray="12.5" stroke-dashoffset="12.5"><animate attributeName="stroke-dashoffset" from="12.5" to="0" dur="0.375s" begin="5.362082195099753s" fill="freeze" /></path><path d="M 39.1 -15.7 L 39.1 -25.6 " transform="translate(0.0 38.0)" stroke-dasharray="9.900000000000002" stroke-dashoffset="9.900000000000002"><animate attributeName="stroke-dashoffset" from="9.900000000000002" to="0" dur="0.29700000000000004s" begin="5.737082195099753s" fill="freeze" /></path><path d="M 44.3 -22.2 L 34.8 -22.2 " transform="translate(0.0 38.0)" stroke-dasharray="9.5" stroke-dashoffset="9.5"><animate attributeName="stroke-dashoffset" from="9.5" to="0" dur="0.285s" begin="6.034082195099753s" fill="freeze" /></path><path d="M 46.0 -29.8 L 19.1 -29.8 " transform="translate(0.0 38.0)" stroke-dasharray="26.9" stroke-dashoffset="26.9"><animate attributeName="stroke-dashoffset" from="26.9" to="0" dur="0.8069999999999999s" begin="6.319082195099753s" fill="freeze" /></path><path d="M 41.9 -36.0 L 23.1 -36.0 " transform="translate(0.0 38.0)" stroke-dasharray="18.799999999999997" stroke-dashoffset="18.799999999999997"><animate attributeName="stroke-dashoffset" from="18.799999999999997" to="0" dur="0.564s" begin="7.1260821950997535s" fill="freeze" /></path><path d="M 32.1 -30.2 L 32.1 -40.5" transform="translate(0.0 38.0)" stroke-dasharray="10.3" stroke-dashoffset="10.3"><animate attributeName="stroke-dashoffset" from="10.3" to="0" dur="0.309s" begin="7.6900821950997535s" fill="freeze" /></path></g></svg>