<?xml version='1.0' encoding='utf-8'?>
<svg viewBox="0.0 -6.0 50.0 50.0" version="1.1" xmlns="http://www.w3.org/2000/svg"><rect x="-1000" y="-1000" width="2000" height="2000" stroke="white" fill="white" /><g style="fill:none;stroke:#000000;stroke-width:1"><path d="M 13.2 0.9 L 36.9 0.9 C 40.8 0.9 42.1 -0.4 42.1 -3.5 L 42.1 -21.9 C 42.1 -24.9 40.8 -26.2 36.9 -26.2 L 13.0 -26.2 C 9.3 -26.2 8.1 -24.9 8.1 -21.9 L 8.1 -3.5 C 8.1 -0.4 9.3 0.9 13.2 0.9 Z " transform="translate(0.0 38.0)" stroke-dasharray="115.68485548272064" stroke-dashoffset="115.68485548272064"><animate attributeName="stroke-dashoffset" from="115.68485548272064" to="0" dur="3.470545664481619s" begin="0s" fill="freeze" /></path><path d="M 29.4 -4.8 L 20.6 -4.8 C 18.2 -4.8 17.5 -5.5 17.5 -7.1 L 17.5 -10.1 C 17.5 -11.6 18.2 -12.3 20.6 -12.3 L 29.4 -12.3 C 31.8 -12.3 32.5 -11.6 32.5 -10.1 L 32.5 -7.1 C 32.5 -5.5 31.8 -4.8 29.4 -4.8 Z " transform="translate(0.0 38.0)" stroke-dasharray="41.39092987670151" stroke-dashoffset="41.39092987670151"><animate attributeName="stroke-dashoffset" from="41.39092987670151" to="0" dur="1.2417278963010454s" begin="3.470545664481619s" fill="freeze" /></path><path d="M 4.6 -30.2 C 7.2 -32.9 9.4 -36.4 11.1 -40.1 " transform="translate(0.0 38.0)" stroke-dasharray="11.89734221029117" stroke-dashoffset="11.89734221029117"><animate attributeName="stroke-dashoffset" from="11.89734221029117" to="0" dur="0.3569202663087351s" begin="4.7122735607826645s" fill="freeze" /></path><path d="M 24.8 -12.4 L 24.8 -25.8 " transform="translate(0.0 38.0)" stroke-dasharray="13.4" stroke-dashoffset="13.4"><animate attributeName="stroke-dashoffset" from="13.4" to="0" dur="0.40199999999999997s" begin="5.069193827091399s" fill="freeze" /></path><path d="M 13.8 -18.9 L 36.5 -18.9 " transform="translate(0.0 38.0)" stroke-dasharray="22.7" stroke-dashoffset="22.7"><animate attributeName="stroke-dashoffset" from="22.7" to="0" dur="0.6809999999999999s" begin="5.471193827091399s" fill="freeze" /></path><path d="M 16.4 -30.6 C 15.7 -32.4 14.8 -33.8 13.7 -35.3 " transform="translate(0.0 38.0)" stroke-dasharray="5.437309175660987" stroke-dashoffset="5.437309175660987"><animate attributeName="stroke-dashoffset" from="5.437309175660987" to="0" dur="0.1631192752698296s" begin="6.152193827091399s" fill="freeze" /></path><path d="M 9.0 -35.4 L 22.1 -35.4 " transform="translate(0.0 38.0)" stroke-dasharray="13.100000000000001" stroke-dashoffset="13.100000000000001"><animate attributeName="stroke-dashoffset" from="13.100000000000001" to="0" dur="0.393s" begin="6.315313102361229s" fill="freeze" /></path><path d="M 24.9 -30.9 C 27.1 -33.3 29.2 -36.7 30.8 -40.1 " transform="translate(0.0 38.0)" stroke-dasharray="10.967769751968175" stroke-dashoffset="10.967769751968175"><animate attributeName="stroke-dashoffset" from="10.967769751968175" to="0" dur="0.3290330925590452s" begin="6.708313102361228s" fill="freeze" /></path><path d="M 36.9 -30.8 C 36.2 -32.1 35.1 -33.9 34.0 -35.4 " transform="translate(0.0 38.0)" stroke-dasharray="5.441679988518576" stroke-dashoffset="5.441679988518576"><animate attributeName="stroke-dashoffset" from="5.441679988518576" to="0" dur="0.16325039965555727s" begin="7.037346194920273s" fill="freeze" /></path><path d="M 28.2 -35.4 L 45.6 -35.4" transform="translate(0.0 38.0)" stroke-dasharray="17.400000000000002" stroke-dashoffset="17.400000000000002"><animate attributeName="stroke-dashoffset" from="17.400000000000002" to="0" dur="0.522s" begin="7.20059659457583s" fill="freeze" /></path></g></svg>