<?xml version='1.0' encoding='utf-8'?>
<svg viewBox="0.0 -6.0 50.0 50.0" version="1.1" xmlns="http://www.w3.org/2000/svg"><rect x="-1000" y="-1000" width="2000" height="2000" stroke="white" fill="white" /><g style="fill:none;stroke:#000000;stroke-width:1"><path d="M 44.5 1.2 L 27.6 1.2 C 25.0 1.2 23.7 0.4 23.7 -2.3 L 23.7 -14.1 " transform="translate(0.0 38.0)" stroke-dasharray="34.805114255618655" stroke-dashoffset="34.805114255618655"><animate attributeName="stroke-dashoffset" from="34.805114255618655" to="0" dur="1.0441534276685596s" begin="0s; anim_end.end" fill="freeze" id="anim0" /></path><path d="M 10.1 -3.2 L 13.0 -3.2 C 14.8 -3.2 15.7 -4.0 15.7 -6.0 L 15.7 -20.2 C 15.7 -22.3 14.8 -22.9 13.0 -22.9 L 10.1 -22.9 C 8.3 -22.9 7.5 -22.1 7.5 -20.2 L 7.5 -6.0 C 7.5 -4.0 8.3 -3.2 10.1 -3.2 Z " transform="translate(0.0 38.0)" stroke-dasharray="51.927426666278166" stroke-dashoffset="51.927426666278166"><animate attributeName="stroke-dashoffset" from="51.927426666278166" to="0" dur="1.557822799988345s" begin="anim0.end" fill="freeze" id="anim1" /></path><path d="M 2.8 -15.5 C 6.0 -20.7 8.8 -29.4 9.7 -36.5 " transform="translate(0.0 38.0)" stroke-dasharray="22.24227410241777" stroke-dashoffset="22.24227410241777"><animate attributeName="stroke-dashoffset" from="22.24227410241777" to="0" dur="0.6672682230725331s" begin="anim1.end" fill="freeze" id="anim2" /></path><path d="M 28.5 -4.3 C 30.9 -6.5 32.0 -9.3 32.1 -13.8 " transform="translate(0.0 38.0)" stroke-dasharray="10.474395881625156" stroke-dashoffset="10.474395881625156"><animate attributeName="stroke-dashoffset" from="10.474395881625156" to="0" dur="0.31423187644875467s" begin="anim2.end" fill="freeze" id="anim3" /></path><path d="M 17.0 -37.0 L 3.1 -37.0 " transform="translate(0.0 38.0)" stroke-dasharray="13.9" stroke-dashoffset="13.9"><animate attributeName="stroke-dashoffset" from="13.9" to="0" dur="0.417s" begin="anim3.end" fill="freeze" id="anim4" /></path><path d="M 46.7 -13.8 L 20.1 -13.8 " transform="translate(0.0 38.0)" stroke-dasharray="26.6" stroke-dashoffset="26.6"><animate attributeName="stroke-dashoffset" from="26.6" to="0" dur="0.798s" begin="anim4.end" fill="freeze" id="anim5" /></path><path d="M 45.0 -8.7 C 44.6 -5.9 43.5 -5.2 41.0 -5.2 C 38.6 -5.2 38.1 -5.5 38.1 -7.1 L 38.1 -13.8 " transform="translate(0.0 38.0)" stroke-dasharray="16.877103896703865" stroke-dashoffset="16.877103896703865"><animate attributeName="stroke-dashoffset" from="16.877103896703865" to="0" dur="0.5063131169011159s" begin="anim5.end" fill="freeze" id="anim6" /></path><path d="M 38.9 -20.8 L 27.6 -20.8 " transform="translate(0.0 38.0)" stroke-dasharray="11.299999999999997" stroke-dashoffset="11.299999999999997"><animate attributeName="stroke-dashoffset" from="11.299999999999997" to="0" dur="0.3389999999999999s" begin="anim6.end" fill="freeze" id="anim7" /></path><path d="M 27.4 -13.8 L 27.4 -40.2 " transform="translate(0.0 38.0)" stroke-dasharray="26.400000000000002" stroke-dashoffset="26.400000000000002"><animate attributeName="stroke-dashoffset" from="26.400000000000002" to="0" dur="0.792s" begin="anim7.end" fill="freeze" id="anim8" /></path><path d="M 38.9 -27.4 L 27.6 -27.4 " transform="translate(0.0 38.0)" stroke-dasharray="11.299999999999997" stroke-dashoffset="11.299999999999997"><animate attributeName="stroke-dashoffset" from="11.299999999999997" to="0" dur="0.3389999999999999s" begin="anim8.end" fill="freeze" id="anim9" /></path><path d="M 39.2 -13.8 L 39.2 -40.2 " transform="translate(0.0 38.0)" stroke-dasharray="26.400000000000002" stroke-dashoffset="26.400000000000002"><animate attributeName="stroke-dashoffset" from="26.400000000000002" to="0" dur="0.792s" begin="anim9.end" fill="freeze" id="anim10" /></path><path d="M 45.5 -34.1 L 21.2 -34.1" transform="translate(0.0 38.0)" stroke-dasharray="24.3" stroke-dashoffset="24.3"><animate attributeName="stroke-dashoffset" from="24.3" to="0" dur="0.729s" begin="anim10.end" fill="freeze" id="anim_end" /></path></g></svg>