<?xml version='1.0' encoding='utf-8'?>
<svg viewBox="0.0 -6.0 50.0 50.0" version="1.1" xmlns="http://www.w3.org/2000/svg"><rect x="-1000" y="-1000" width="2000" height="2000" stroke="white" fill="white" /><g style="fill:none;stroke:#000000;stroke-width:1"><path d="M 4.6 -26.9 C 7.5 -30.2 10.2 -35.0 11.8 -39.4 " transform="translate(0.0 38.0)" stroke-dasharray="14.500343721076009" stroke-dashoffset="14.500343721076009"><animate attributeName="stroke-dashoffset" from="14.500343721076009" to="0" dur="0.43501031163228027s" begin="0s; anim_end.end" fill="freeze" id="anim0" /></path><path d="M 45.8 0.5 L 4.3 0.5 " transform="translate(0.0 38.0)" stroke-dasharray="41.5" stroke-dashoffset="41.5"><animate attributeName="stroke-dashoffset" from="41.5" to="0" dur="1.2449999999999999s" begin="anim0.end" fill="freeze" id="anim1" /></path><path d="M 18.6 -4.9 C 17.7 -7.6 16.6 -10.2 15.3 -12.3 " transform="translate(0.0 38.0)" stroke-dasharray="8.120022020706378" stroke-dashoffset="8.120022020706378"><animate attributeName="stroke-dashoffset" from="8.120022020706378" to="0" dur="0.24360066062119132s" begin="anim1.end" fill="freeze" id="anim2" /></path><path d="M 28.9 -0.1 C 31.1 -4.2 33.0 -8.4 34.2 -12.5 " transform="translate(0.0 38.0)" stroke-dasharray="13.509041097283957" stroke-dashoffset="13.509041097283957"><animate attributeName="stroke-dashoffset" from="13.509041097283957" to="0" dur="0.4052712329185187s" begin="anim2.end" fill="freeze" id="anim3" /></path><path d="M 42.6 -17.9 L 7.5 -17.9 " transform="translate(0.0 38.0)" stroke-dasharray="35.1" stroke-dashoffset="35.1"><animate attributeName="stroke-dashoffset" from="35.1" to="0" dur="1.053s" begin="anim3.end" fill="freeze" id="anim4" /></path><path d="M 17.0 -26.7 C 16.1 -28.8 15.2 -30.9 13.9 -32.8 " transform="translate(0.0 38.0)" stroke-dasharray="6.8541811599246625" stroke-dashoffset="6.8541811599246625"><animate attributeName="stroke-dashoffset" from="6.8541811599246625" to="0" dur="0.20562543479773987s" begin="anim4.end" fill="freeze" id="anim5" /></path><path d="M 24.8 -18.3 L 24.8 -23.4 " transform="translate(0.0 38.0)" stroke-dasharray="5.099999999999998" stroke-dashoffset="5.099999999999998"><animate attributeName="stroke-dashoffset" from="5.099999999999998" to="0" dur="0.15299999999999994s" begin="anim5.end" fill="freeze" id="anim6" /></path><path d="M 22.5 -33.1 L 9.4 -33.1 " transform="translate(0.0 38.0)" stroke-dasharray="13.1" stroke-dashoffset="13.1"><animate attributeName="stroke-dashoffset" from="13.1" to="0" dur="0.39299999999999996s" begin="anim6.end" fill="freeze" id="anim7" /></path><path d="M 24.9 -27.9 C 27.4 -31.0 29.8 -35.4 31.2 -39.5 " transform="translate(0.0 38.0)" stroke-dasharray="13.261130986130482" stroke-dashoffset="13.261130986130482"><animate attributeName="stroke-dashoffset" from="13.261130986130482" to="0" dur="0.39783392958391445s" begin="anim7.end" fill="freeze" id="anim8" /></path><path d="M 37.4 -27.0 C 36.6 -28.8 35.3 -31.0 33.9 -32.9 " transform="translate(0.0 38.0)" stroke-dasharray="6.872170400113191" stroke-dashoffset="6.872170400113191"><animate attributeName="stroke-dashoffset" from="6.872170400113191" to="0" dur="0.20616511200339574s" begin="anim8.end" fill="freeze" id="anim9" /></path><path d="M 45.6 -33.1 L 28.6 -33.1" transform="translate(0.0 38.0)" stroke-dasharray="17.0" stroke-dashoffset="17.0"><animate attributeName="stroke-dashoffset" from="17.0" to="0" dur="0.51s" begin="anim9.end" fill="freeze" id="anim_end" /></path></g></svg>