<?xml version='1.0' encoding='utf-8'?>
<svg viewBox="0.0 -6.0 50.0 50.0" version="1.1" xmlns="http://www.w3.org/2000/svg"><rect x="-1000" y="-1000" width="2000" height="2000" stroke="white" fill="white" /><g style="fill:none;stroke:#000000;stroke-width:1"><path d="M 24.1 -12.6 L 10.2 -12.6 C 7.8 -12.6 7.2 -13.3 7.2 -15.2 L 7.2 -25.4 C 7.2 -27.4 7.8 -28.1 10.2 -28.1 L 24.0 -28.1 " transform="translate(0.0 38.0)" stroke-dasharray="47.362774002441355" stroke-dashoffset="47.362774002441355"><animate attributeName="stroke-dashoffset" from="47.362774002441355" to="0" dur="1.4208832200732406s" begin="0s; 15s; 30s; 45s" fill="freeze" id="anim0" /></path><path d="M 19.9 0.8 L 19.9 -7.0 " transform="translate(0.0 38.0)" stroke-dasharray="7.8" stroke-dashoffset="7.8"><animate attributeName="stroke-dashoffset" from="7.8" to="0" dur="0.23399999999999999s" begin="anim0.end" fill="freeze" id="anim1" /></path><path d="M 46.0 1.2 L 4.2 1.2 " transform="translate(0.0 38.0)" stroke-dasharray="41.8" stroke-dashoffset="41.8"><animate attributeName="stroke-dashoffset" from="41.8" to="0" dur="1.2539999999999998s" begin="anim1.end" fill="freeze" id="anim2" /></path><path d="M 40.0 1.3 L 40.0 -4.5 C 40.0 -6.3 39.2 -7.4 36.5 -7.4 L 13.7 -7.4 C 11.0 -7.4 10.2 -6.3 10.2 -4.5 L 10.2 1.1 " transform="translate(0.0 38.0)" stroke-dasharray="44.70402812032111" stroke-dashoffset="44.70402812032111"><animate attributeName="stroke-dashoffset" from="44.70402812032111" to="0" dur="1.3411208436096334s" begin="anim2.end" fill="freeze" id="anim3" /></path><path d="M 29.9 0.8 L 29.9 -7.0 " transform="translate(0.0 38.0)" stroke-dasharray="7.8" stroke-dashoffset="7.8"><animate attributeName="stroke-dashoffset" from="7.8" to="0" dur="0.23399999999999999s" begin="anim3.end" fill="freeze" id="anim4" /></path><path d="M 7.2 -17.8 L 20.2 -17.8 C 21.8 -17.8 22.4 -18.4 22.4 -19.6 L 22.4 -21.2 C 22.4 -22.4 21.8 -22.9 20.2 -22.9 L 7.2 -22.9 " transform="translate(0.0 38.0)" stroke-dasharray="34.10428824149505" stroke-dashoffset="34.10428824149505"><animate attributeName="stroke-dashoffset" from="34.10428824149505" to="0" dur="1.0231286472448513s" begin="anim4.end" fill="freeze" id="anim5" /></path><path d="M 15.4 -23.0 L 15.4 -27.9 " transform="translate(0.0 38.0)" stroke-dasharray="4.899999999999999" stroke-dashoffset="4.899999999999999"><animate attributeName="stroke-dashoffset" from="4.899999999999999" to="0" dur="0.14699999999999996s" begin="anim5.end" fill="freeze" id="anim6" /></path><path d="M 4.5 -31.6 C 7.0 -34.0 9.1 -37.0 10.7 -40.4 " transform="translate(0.0 38.0)" stroke-dasharray="10.824719999237375" stroke-dashoffset="10.824719999237375"><animate attributeName="stroke-dashoffset" from="10.824719999237375" to="0" dur="0.32474159997712126s" begin="anim6.end" fill="freeze" id="anim7" /></path><path d="M 16.2 -32.3 C 15.4 -33.9 14.7 -35.0 13.7 -36.4 " transform="translate(0.0 38.0)" stroke-dasharray="4.807795812184993" stroke-dashoffset="4.807795812184993"><animate attributeName="stroke-dashoffset" from="4.807795812184993" to="0" dur="0.14423387436554977s" begin="anim7.end" fill="freeze" id="anim8" /></path><path d="M 41.9 -15.2 L 31.2 -15.2 " transform="translate(0.0 38.0)" stroke-dasharray="10.7" stroke-dashoffset="10.7"><animate attributeName="stroke-dashoffset" from="10.7" to="0" dur="0.32099999999999995s" begin="anim8.end" fill="freeze" id="anim9" /></path><path d="M 22.0 -36.4 L 8.8 -36.4 " transform="translate(0.0 38.0)" stroke-dasharray="13.2" stroke-dashoffset="13.2"><animate attributeName="stroke-dashoffset" from="13.2" to="0" dur="0.39599999999999996s" begin="anim9.end" fill="freeze" id="anim10" /></path><path d="M 27.6 -19.1 C 29.9 -21.9 31.9 -25.4 33.1 -28.8 " transform="translate(0.0 38.0)" stroke-dasharray="11.204257798373787" stroke-dashoffset="11.204257798373787"><animate attributeName="stroke-dashoffset" from="11.204257798373787" to="0" dur="0.3361277339512136s" begin="anim10.end" fill="freeze" id="anim11" /></path><path d="M 45.0 -23.4 L 30.4 -23.4 " transform="translate(0.0 38.0)" stroke-dasharray="14.600000000000001" stroke-dashoffset="14.600000000000001"><animate attributeName="stroke-dashoffset" from="14.600000000000001" to="0" dur="0.438s" begin="anim11.end" fill="freeze" id="anim12" /></path><path d="M 25.1 -32.7 C 27.0 -34.6 28.9 -37.4 30.6 -40.5 " transform="translate(0.0 38.0)" stroke-dasharray="9.573775488065182" stroke-dashoffset="9.573775488065182"><animate attributeName="stroke-dashoffset" from="9.573775488065182" to="0" dur="0.28721326464195546s" begin="anim12.end" fill="freeze" id="anim13" /></path><path d="M 36.6 -32.4 C 36.1 -33.6 35.1 -35.1 34.0 -36.4 " transform="translate(0.0 38.0)" stroke-dasharray="4.787234799812146" stroke-dashoffset="4.787234799812146"><animate attributeName="stroke-dashoffset" from="4.787234799812146" to="0" dur="0.14361704399436437s" begin="anim13.end" fill="freeze" id="anim14" /></path><path d="M 45.5 -36.4 L 28.1 -36.4 " transform="translate(0.0 38.0)" stroke-dasharray="17.4" stroke-dashoffset="17.4"><animate attributeName="stroke-dashoffset" from="17.4" to="0" dur="0.5219999999999999s" begin="anim14.end" fill="freeze" id="anim15" /></path><path d="M 15.5 -17.3 L 15.5 -13.2" transform="translate(0.0 38.0)" stroke-dasharray="4.100000000000001" stroke-dashoffset="4.100000000000001"><animate attributeName="stroke-dashoffset" from="4.100000000000001" to="0" dur="0.12300000000000004s" begin="anim15.end" fill="freeze" id="anim_end" /></path></g></svg>