<?xml version='1.0' encoding='utf-8'?>
<svg viewBox="0.0 -6.0 50.0 50.0" version="1.1" xmlns="http://www.w3.org/2000/svg"><rect x="-1000" y="-1000" width="2000" height="2000" stroke="white" fill="white" /><g style="fill:none;stroke:#000000;stroke-width:1"><path d="M 46.8 -12.6 C 46.2 -9.4 45.5 -8.1 44.5 -7.7 C 43.3 -8.1 42.4 -9.2 41.3 -12.7 C 40.1 -16.8 39.5 -22.1 39.5 -29.8 L 39.5 -34.5 C 39.5 -36.8 38.4 -37.9 35.4 -37.9 L 18.5 -37.9 " transform="translate(0.0 38.0)" stroke-dasharray="56.77188723551374" stroke-dashoffset="56.77188723551374"><animate attributeName="stroke-dashoffset" from="56.77188723551374" to="0" dur="1.703156617065412s" begin="0s; 15s; 30s; 45s" fill="freeze" id="anim0" /></path><path d="M 3.9 0.9 C 6.5 -0.8 9.2 -3.2 11.2 -5.8 " transform="translate(0.0 38.0)" stroke-dasharray="9.952513192659149" stroke-dashoffset="9.952513192659149"><animate attributeName="stroke-dashoffset" from="9.952513192659149" to="0" dur="0.29857539577977443s" begin="anim0.end" fill="freeze" id="anim1" /></path><path d="M 11.3 -5.0 L 11.3 -16.1 C 11.3 -18.1 10.7 -18.9 8.2 -18.9 L 4.0 -18.9 " transform="translate(0.0 38.0)" stroke-dasharray="20.229006787556642" stroke-dashoffset="20.229006787556642"><animate attributeName="stroke-dashoffset" from="20.229006787556642" to="0" dur="0.6068702036266992s" begin="anim1.end" fill="freeze" id="anim2" /></path><path d="M 46.4 -0.3 C 42.3 0.1 38.2 0.2 32.6 0.2 C 19.4 0.2 14.8 -1.6 11.6 -6.5 " transform="translate(0.0 38.0)" stroke-dasharray="36.896608510970594" stroke-dashoffset="36.896608510970594"><animate attributeName="stroke-dashoffset" from="36.896608510970594" to="0" dur="1.1068982553291178s" begin="anim2.end" fill="freeze" id="anim3" /></path><path d="M 11.9 -33.2 C 10.7 -34.7 8.6 -36.6 7.0 -37.6 " transform="translate(0.0 38.0)" stroke-dasharray="6.610295371764659" stroke-dashoffset="6.610295371764659"><animate attributeName="stroke-dashoffset" from="6.610295371764659" to="0" dur="0.19830886115293975s" begin="anim3.end" fill="freeze" id="anim4" /></path><path d="M 25.9 -5.7 L 25.9 -32.9 " transform="translate(0.0 38.0)" stroke-dasharray="27.2" stroke-dashoffset="27.2"><animate attributeName="stroke-dashoffset" from="27.2" to="0" dur="0.816s" begin="anim4.end" fill="freeze" id="anim5" /></path><path d="M 34.5 -23.1 L 17.1 -23.1" transform="translate(0.0 38.0)" stroke-dasharray="17.4" stroke-dashoffset="17.4"><animate attributeName="stroke-dashoffset" from="17.4" to="0" dur="0.5219999999999999s" begin="anim5.end" fill="freeze" id="anim_end" /></path></g></svg>