<?xml version='1.0' encoding='utf-8'?>
<svg viewBox="0.0 -6.0 50.0 50.0" version="1.1" xmlns="http://www.w3.org/2000/svg"><rect x="-1000" y="-1000" width="2000" height="2000" stroke="white" fill="white" /><g style="fill:none;stroke:#000000;stroke-width:1"><path d="M 44.2 -31.2 L 44.2 -34.1 C 44.2 -36.0 43.4 -37.0 40.5 -37.0 L 9.6 -37.0 C 6.7 -37.0 5.8 -36.2 5.8 -34.2 L 5.8 -31.2 " transform="translate(0.0 38.0)" stroke-dasharray="47.75416082413567" stroke-dashoffset="47.75416082413567"><animate attributeName="stroke-dashoffset" from="47.75416082413567" to="0" dur="1.43262482472407s" begin="0s" fill="freeze" /></path><path d="M 6.7 2.7 C 10.2 1.0 14.1 -2.0 16.6 -5.5 " transform="translate(0.0 38.0)" stroke-dasharray="12.977405047799273" stroke-dashoffset="12.977405047799273"><animate attributeName="stroke-dashoffset" from="12.977405047799273" to="0" dur="0.3893221514339782s" begin="1.43262482472407s" fill="freeze" /></path><path d="M 4.0 -9.5 C 9.2 -11.9 14.4 -16.0 17.9 -20.8 " transform="translate(0.0 38.0)" stroke-dasharray="18.096374611042197" stroke-dashoffset="18.096374611042197"><animate attributeName="stroke-dashoffset" from="18.096374611042197" to="0" dur="0.5428912383312658s" begin="1.8219469761580482s" fill="freeze" /></path><path d="M 24.9 1.5 L 24.9 -8.8 " transform="translate(0.0 38.0)" stroke-dasharray="10.3" stroke-dashoffset="10.3"><animate attributeName="stroke-dashoffset" from="10.3" to="0" dur="0.309s" begin="2.364838214489314s" fill="freeze" /></path><path d="M 44.2 1.6 C 39.5 1.8 35.3 1.9 30.2 1.9 C 21.6 1.9 17.4 0.2 14.6 -3.0 " transform="translate(0.0 38.0)" stroke-dasharray="30.888540229176378" stroke-dashoffset="30.888540229176378"><animate attributeName="stroke-dashoffset" from="30.888540229176378" to="0" dur="0.9266562068752913s" begin="2.6738382144893142s" fill="freeze" /></path><path d="M 37.1 -4.1 L 25.4 -4.1 " transform="translate(0.0 38.0)" stroke-dasharray="11.700000000000003" stroke-dashoffset="11.700000000000003"><animate attributeName="stroke-dashoffset" from="11.700000000000003" to="0" dur="0.3510000000000001s" begin="3.6004944213646057s" fill="freeze" /></path><path d="M 31.4 -15.6 L 18.6 -15.6 C 16.1 -15.6 15.6 -14.8 15.6 -13.4 L 15.6 -11.6 C 15.6 -10.1 16.1 -9.4 18.6 -9.4 L 31.4 -9.4 C 33.8 -9.4 34.5 -10.1 34.5 -11.6 L 34.5 -13.4 C 34.5 -14.8 33.8 -15.6 31.4 -15.6 Z " transform="translate(0.0 38.0)" stroke-dasharray="46.67040034631761" stroke-dashoffset="46.67040034631761"><animate attributeName="stroke-dashoffset" from="46.67040034631761" to="0" dur="1.4001120103895281s" begin="3.9514944213646057s" fill="freeze" /></path><path d="M 45.5 -21.1 L 4.5 -21.1 " transform="translate(0.0 38.0)" stroke-dasharray="41.0" stroke-dashoffset="41.0"><animate attributeName="stroke-dashoffset" from="41.0" to="0" dur="1.23s" begin="5.351606431754134s" fill="freeze" /></path><path d="M 19.1 -21.4 L 19.1 -33.7 " transform="translate(0.0 38.0)" stroke-dasharray="12.300000000000004" stroke-dashoffset="12.300000000000004"><animate attributeName="stroke-dashoffset" from="12.300000000000004" to="0" dur="0.3690000000000001s" begin="6.581606431754134s" fill="freeze" /></path><path d="M 37.9 -25.9 L 11.9 -25.9 " transform="translate(0.0 38.0)" stroke-dasharray="26.0" stroke-dashoffset="26.0"><animate attributeName="stroke-dashoffset" from="26.0" to="0" dur="0.78s" begin="6.950606431754133s" fill="freeze" /></path><path d="M 45.9 -10.4 C 40.4 -12.6 34.8 -16.7 31.6 -21.1 " transform="translate(0.0 38.0)" stroke-dasharray="18.07234417610593" stroke-dashoffset="18.07234417610593"><animate attributeName="stroke-dashoffset" from="18.07234417610593" to="0" dur="0.5421703252831779s" begin="7.730606431754134s" fill="freeze" /></path><path d="M 39.4 -30.9 L 10.6 -30.9 " transform="translate(0.0 38.0)" stroke-dasharray="28.799999999999997" stroke-dashoffset="28.799999999999997"><animate attributeName="stroke-dashoffset" from="28.799999999999997" to="0" dur="0.8639999999999999s" begin="8.272776757037311s" fill="freeze" /></path><path d="M 30.6 -21.4 L 30.6 -33.7 " transform="translate(0.0 38.0)" stroke-dasharray="12.300000000000004" stroke-dashoffset="12.300000000000004"><animate attributeName="stroke-dashoffset" from="12.300000000000004" to="0" dur="0.3690000000000001s" begin="9.13677675703731s" fill="freeze" /></path><path d="M 24.9 -36.6 L 24.9 -41.0" transform="translate(0.0 38.0)" stroke-dasharray="4.399999999999999" stroke-dashoffset="4.399999999999999"><animate attributeName="stroke-dashoffset" from="4.399999999999999" to="0" dur="0.13199999999999995s" begin="9.50577675703731s" fill="freeze" /></path></g></svg>