<?xml version='1.0' encoding='utf-8'?>
<svg viewBox="0.0 -6.0 50.0 50.0" version="1.1" xmlns="http://www.w3.org/2000/svg"><rect x="-1000" y="-1000" width="2000" height="2000" stroke="white" fill="white" /><g style="fill:none;stroke:#000000;stroke-width:1"><path d="M 3.2 -13.7 C 8.0 -17.2 12.8 -23.6 14.8 -28.7 C 15.6 -30.6 14.8 -31.6 12.7 -31.6 L 3.6 -31.6 " transform="translate(0.0 38.0)" stroke-dasharray="32.877534778634384" stroke-dashoffset="32.877534778634384"><animate attributeName="stroke-dashoffset" from="32.877534778634384" to="0" dur="0.9863260433590315s" begin="0s; 15s; 30s; 45s" fill="freeze" id="anim0" /></path><path d="M 9.8 2.6 L 9.8 -20.8 " transform="translate(0.0 38.0)" stroke-dasharray="23.400000000000002" stroke-dashoffset="23.400000000000002"><animate attributeName="stroke-dashoffset" from="23.400000000000002" to="0" dur="0.7020000000000001s" begin="anim0.end" fill="freeze" id="anim1" /></path><path d="M 17.1 -11.4 C 15.6 -12.9 13.0 -14.8 10.8 -15.8 " transform="translate(0.0 38.0)" stroke-dasharray="7.718226816521382" stroke-dashoffset="7.718226816521382"><animate attributeName="stroke-dashoffset" from="7.718226816521382" to="0" dur="0.23154680449564144s" begin="anim1.end" fill="freeze" id="anim2" /></path><path d="M 46.4 0.7 L 17.9 0.7 " transform="translate(0.0 38.0)" stroke-dasharray="28.5" stroke-dashoffset="28.5"><animate attributeName="stroke-dashoffset" from="28.5" to="0" dur="0.855s" begin="anim2.end" fill="freeze" id="anim3" /></path><path d="M 13.2 -15.2 C 14.7 -16.6 15.9 -18.1 17.1 -19.6 " transform="translate(0.0 38.0)" stroke-dasharray="5.88530954053692" stroke-dashoffset="5.88530954053692"><animate attributeName="stroke-dashoffset" from="5.88530954053692" to="0" dur="0.17655928621610759s" begin="anim3.end" fill="freeze" id="anim4" /></path><path d="M 32.6 0.1 L 32.6 -17.2 " transform="translate(0.0 38.0)" stroke-dasharray="17.3" stroke-dashoffset="17.3"><animate attributeName="stroke-dashoffset" from="17.3" to="0" dur="0.519s" begin="anim4.end" fill="freeze" id="anim5" /></path><path d="M 43.6 -10.3 L 22.7 -10.3 " transform="translate(0.0 38.0)" stroke-dasharray="20.900000000000002" stroke-dashoffset="20.900000000000002"><animate attributeName="stroke-dashoffset" from="20.900000000000002" to="0" dur="0.627s" begin="anim5.end" fill="freeze" id="anim6" /></path><path d="M 9.8 -31.6 L 9.8 -40.4 " transform="translate(0.0 38.0)" stroke-dasharray="8.799999999999997" stroke-dashoffset="8.799999999999997"><animate attributeName="stroke-dashoffset" from="8.799999999999997" to="0" dur="0.2639999999999999s" begin="anim6.end" fill="freeze" id="anim7" /></path><path d="M 46.0 -22.1 L 21.2 -22.1 " transform="translate(0.0 38.0)" stroke-dasharray="24.8" stroke-dashoffset="24.8"><animate attributeName="stroke-dashoffset" from="24.8" to="0" dur="0.744s" begin="anim7.end" fill="freeze" id="anim8" /></path><path d="M 32.6 -21.9 L 32.6 -40.0 " transform="translate(0.0 38.0)" stroke-dasharray="18.1" stroke-dashoffset="18.1"><animate attributeName="stroke-dashoffset" from="18.1" to="0" dur="0.543s" begin="anim8.end" fill="freeze" id="anim9" /></path><path d="M 43.4 -31.9 L 22.9 -31.9" transform="translate(0.0 38.0)" stroke-dasharray="20.5" stroke-dashoffset="20.5"><animate attributeName="stroke-dashoffset" from="20.5" to="0" dur="0.615s" begin="anim9.end" fill="freeze" id="anim_end" /></path></g></svg>