<?xml version='1.0' encoding='utf-8'?>
<svg viewBox="0.0 -6.0 50.0 50.0" version="1.1" xmlns="http://www.w3.org/2000/svg"><rect x="-1000" y="-1000" width="2000" height="2000" stroke="white" fill="white" /><g style="fill:none;stroke:#000000;stroke-width:1"><path d="M 37.4 2.1 C 38.3 2.3 38.9 2.4 39.6 2.4 C 42.5 2.4 42.9 1.1 42.9 -1.4 L 42.9 -28.2 C 42.9 -30.1 42.1 -31.0 39.3 -31.0 L 32.9 -31.0 C 30.3 -31.0 29.4 -30.3 29.4 -28.6 L 29.4 -23.7 C 29.4 -22.1 30.3 -21.4 32.9 -21.4 L 42.1 -21.4 " transform="translate(0.0 38.0)" stroke-dasharray="70.50639642853304" stroke-dashoffset="70.50639642853304"><animate attributeName="stroke-dashoffset" from="70.50639642853304" to="0" dur="2.115191892855991s" begin="0s; 15s; 30s; 45s" fill="freeze" id="anim0" /></path><path d="M 34.9 -0.3 L 16.9 -0.3 " transform="translate(0.0 38.0)" stroke-dasharray="18.0" stroke-dashoffset="18.0"><animate attributeName="stroke-dashoffset" from="18.0" to="0" dur="0.54s" begin="anim0.end" fill="freeze" id="anim1" /></path><path d="M 7.2 2.9 L 7.2 -28.2 C 7.2 -30.1 8.0 -31.0 10.8 -31.0 L 16.7 -31.0 C 19.2 -31.0 20.1 -30.3 20.1 -28.6 L 20.1 -23.7 C 20.1 -22.1 19.2 -21.4 16.7 -21.4 L 8.0 -21.4 " transform="translate(0.0 38.0)" stroke-dasharray="65.44255271710378" stroke-dashoffset="65.44255271710378"><animate attributeName="stroke-dashoffset" from="65.44255271710378" to="0" dur="1.9632765815131132s" begin="anim1.end" fill="freeze" id="anim2" /></path><path d="M 12.2 -9.8 C 14.4 -11.9 17.1 -15.3 18.7 -18.1 " transform="translate(0.0 38.0)" stroke-dasharray="10.572791941587615" stroke-dashoffset="10.572791941587615"><animate attributeName="stroke-dashoffset" from="10.572791941587615" to="0" dur="0.31718375824762846s" begin="anim2.end" fill="freeze" id="anim3" /></path><path d="M 34.1 -5.2 L 16.4 -5.2 " transform="translate(0.0 38.0)" stroke-dasharray="17.700000000000003" stroke-dashoffset="17.700000000000003"><animate attributeName="stroke-dashoffset" from="17.700000000000003" to="0" dur="0.531s" begin="anim3.end" fill="freeze" id="anim4" /></path><path d="M 16.6 1.9 L 16.6 -12.2 C 16.6 -13.8 17.3 -14.8 19.6 -14.8 L 35.8 -14.8 " transform="translate(0.0 38.0)" stroke-dasharray="34.885456221038005" stroke-dashoffset="34.885456221038005"><animate attributeName="stroke-dashoffset" from="34.885456221038005" to="0" dur="1.04656368663114s" begin="anim4.end" fill="freeze" id="anim5" /></path><path d="M 25.9 -0.9 L 25.9 -14.7 " transform="translate(0.0 38.0)" stroke-dasharray="13.799999999999999" stroke-dashoffset="13.799999999999999"><animate attributeName="stroke-dashoffset" from="13.799999999999999" to="0" dur="0.414s" begin="anim5.end" fill="freeze" id="anim6" /></path><path d="M 34.1 -9.9 L 16.4 -9.9 " transform="translate(0.0 38.0)" stroke-dasharray="17.700000000000003" stroke-dashoffset="17.700000000000003"><animate attributeName="stroke-dashoffset" from="17.700000000000003" to="0" dur="0.531s" begin="anim6.end" fill="freeze" id="anim7" /></path><path d="M 20.1 -26.2 L 8.2 -26.2 " transform="translate(0.0 38.0)" stroke-dasharray="11.900000000000002" stroke-dashoffset="11.900000000000002"><animate attributeName="stroke-dashoffset" from="11.900000000000002" to="0" dur="0.35700000000000004s" begin="anim7.end" fill="freeze" id="anim8" /></path><path d="M 25.4 -14.7 C 26.0 -15.9 26.4 -17.1 26.9 -18.2 " transform="translate(0.0 38.0)" stroke-dasharray="3.808787830788556" stroke-dashoffset="3.808787830788556"><animate attributeName="stroke-dashoffset" from="3.808787830788556" to="0" dur="0.11426363492365667s" begin="anim8.end" fill="freeze" id="anim9" /></path><path d="M 17.9 -34.5 L 17.9 -40.8 " transform="translate(0.0 38.0)" stroke-dasharray="6.299999999999997" stroke-dashoffset="6.299999999999997"><animate attributeName="stroke-dashoffset" from="6.299999999999997" to="0" dur="0.18899999999999992s" begin="anim9.end" fill="freeze" id="anim10" /></path><path d="M 41.8 -26.2 L 29.8 -26.2 " transform="translate(0.0 38.0)" stroke-dasharray="11.999999999999996" stroke-dashoffset="11.999999999999996"><animate attributeName="stroke-dashoffset" from="11.999999999999996" to="0" dur="0.3599999999999999s" begin="anim10.end" fill="freeze" id="anim11" /></path><path d="M 46.0 -37.4 L 4.0 -37.4 " transform="translate(0.0 38.0)" stroke-dasharray="42.0" stroke-dashoffset="42.0"><animate attributeName="stroke-dashoffset" from="42.0" to="0" dur="1.26s" begin="anim11.end" fill="freeze" id="anim12" /></path><path d="M 31.6 -34.5 L 31.6 -40.8" transform="translate(0.0 38.0)" stroke-dasharray="6.299999999999997" stroke-dashoffset="6.299999999999997"><animate attributeName="stroke-dashoffset" from="6.299999999999997" to="0" dur="0.18899999999999992s" begin="anim12.end" fill="freeze" id="anim_end" /></path></g></svg>