<?xml version='1.0' encoding='utf-8'?>
<svg viewBox="0.0 -6.0 50.0 50.0" version="1.1" xmlns="http://www.w3.org/2000/svg"><rect x="-1000" y="-1000" width="2000" height="2000" stroke="white" fill="white" /><g style="fill:none;stroke:#000000;stroke-width:1"><path d="M 15.9 -4.5 L 34.0 -4.5 C 37.0 -4.5 37.9 -5.3 37.9 -7.2 L 37.9 -17.6 C 37.9 -19.4 37.0 -20.3 34.0 -20.3 L 15.9 -20.3 C 12.9 -20.3 12.1 -19.4 12.1 -17.6 L 12.1 -7.2 C 12.1 -5.3 12.9 -4.5 15.9 -4.5 Z " transform="translate(0.0 38.0)" stroke-dasharray="78.80845296458" stroke-dashoffset="78.80845296458"><animate attributeName="stroke-dashoffset" from="78.80845296458" to="0" dur="2.3642535889374s" begin="0s; anim_end.end" fill="freeze" id="anim0" /></path><path d="M 5.8 2.5 C 9.8 1.9 14.9 0.6 18.6 -1.1 " transform="translate(0.0 38.0)" stroke-dasharray="13.334933838494699" stroke-dashoffset="13.334933838494699"><animate attributeName="stroke-dashoffset" from="13.334933838494699" to="0" dur="0.40004801515484095s" begin="anim0.end" fill="freeze" id="anim1" /></path><path d="M 37.1 -9.8 L 12.6 -9.8 " transform="translate(0.0 38.0)" stroke-dasharray="24.5" stroke-dashoffset="24.5"><animate attributeName="stroke-dashoffset" from="24.5" to="0" dur="0.735s" begin="anim1.end" fill="freeze" id="anim2" /></path><path d="M 43.7 2.5 C 39.3 1.6 34.7 0.2 31.1 -1.3 " transform="translate(0.0 38.0)" stroke-dasharray="13.179417046436331" stroke-dashoffset="13.179417046436331"><animate attributeName="stroke-dashoffset" from="13.179417046436331" to="0" dur="0.39538251139308994s" begin="anim2.end" fill="freeze" id="anim3" /></path><path d="M 37.1 -15.0 L 12.6 -15.0 " transform="translate(0.0 38.0)" stroke-dasharray="24.5" stroke-dashoffset="24.5"><animate attributeName="stroke-dashoffset" from="24.5" to="0" dur="0.735s" begin="anim3.end" fill="freeze" id="anim4" /></path><path d="M 31.4 -20.1 C 32.5 -21.6 33.1 -22.6 33.8 -23.9 C 34.6 -25.5 34.0 -26.6 31.9 -26.6 L 12.5 -26.6 " transform="translate(0.0 38.0)" stroke-dasharray="28.203607726993663" stroke-dashoffset="28.203607726993663"><animate attributeName="stroke-dashoffset" from="28.203607726993663" to="0" dur="0.8461082318098099s" begin="anim4.end" fill="freeze" id="anim5" /></path><path d="M 3.5 -27.6 C 11.2 -30.5 19.4 -35.3 24.8 -40.7 " transform="translate(0.0 38.0)" stroke-dasharray="25.177429759940132" stroke-dashoffset="25.177429759940132"><animate attributeName="stroke-dashoffset" from="25.177429759940132" to="0" dur="0.755322892798204s" begin="anim5.end" fill="freeze" id="anim6" /></path><path d="M 29.3 -31.6 L 19.7 -31.6 " transform="translate(0.0 38.0)" stroke-dasharray="9.600000000000001" stroke-dashoffset="9.600000000000001"><animate attributeName="stroke-dashoffset" from="9.600000000000001" to="0" dur="0.28800000000000003s" begin="anim6.end" fill="freeze" id="anim7" /></path><path d="M 46.3 -29.0 C 38.6 -31.4 30.9 -35.0 24.9 -39.9" transform="translate(0.0 38.0)" stroke-dasharray="24.158548409939172" stroke-dashoffset="24.158548409939172"><animate attributeName="stroke-dashoffset" from="24.158548409939172" to="0" dur="0.7247564522981751s" begin="anim7.end" fill="freeze" id="anim_end" /></path></g></svg>