<?xml version='1.0' encoding='utf-8'?>
<svg viewBox="0.0 -6.0 50.0 50.0" version="1.1" xmlns="http://www.w3.org/2000/svg"><rect x="-1000" y="-1000" width="2000" height="2000" stroke="white" fill="white" /><g style="fill:none;stroke:#000000;stroke-width:1"><path d="M 4.0 -18.9 C 12.9 -23.1 20.4 -30.4 25.1 -40.7 " transform="translate(0.0 38.0)" stroke-dasharray="30.98369967135344" stroke-dashoffset="30.98369967135344"><animate attributeName="stroke-dashoffset" from="30.98369967135344" to="0" dur="0.9295109901406031s" begin="0s; anim_end.end" fill="freeze" id="anim0" /></path><path d="M 5.7 0.5 C 13.1 -1.1 20.6 -3.9 26.9 -8.0 " transform="translate(0.0 38.0)" stroke-dasharray="22.963948766431123" stroke-dashoffset="22.963948766431123"><animate attributeName="stroke-dashoffset" from="22.963948766431123" to="0" dur="0.6889184629929337s" begin="anim0.end" fill="freeze" id="anim1" /></path><path d="M 7.3 -6.2 C 13.3 -7.7 19.5 -10.1 24.7 -13.4 " transform="translate(0.0 38.0)" stroke-dasharray="18.90897138785978" stroke-dashoffset="18.90897138785978"><animate attributeName="stroke-dashoffset" from="18.90897138785978" to="0" dur="0.5672691416357933s" begin="anim1.end" fill="freeze" id="anim2" /></path><path d="M 20.1 1.9 C 21.1 2.2 22.0 2.4 23.2 2.4 C 26.4 2.4 27.8 1.0 27.8 -4.8 C 27.8 -9.9 25.5 -14.3 21.6 -17.8 " transform="translate(0.0 38.0)" stroke-dasharray="27.913478913027966" stroke-dashoffset="27.913478913027966"><animate attributeName="stroke-dashoffset" from="27.913478913027966" to="0" dur="0.8374043673908389s" begin="anim2.end" fill="freeze" id="anim3" /></path><path d="M 8.1 -12.7 C 14.0 -14.1 20.2 -16.8 25.4 -20.8 " transform="translate(0.0 38.0)" stroke-dasharray="19.241404365394423" stroke-dashoffset="19.241404365394423"><animate attributeName="stroke-dashoffset" from="19.241404365394423" to="0" dur="0.5772421309618326s" begin="anim3.end" fill="freeze" id="anim4" /></path><path d="M 42.8 -2.2 C 38.2 -5.7 32.0 -9.2 26.8 -11.4 " transform="translate(0.0 38.0)" stroke-dasharray="18.49907136851778" stroke-dashoffset="18.49907136851778"><animate attributeName="stroke-dashoffset" from="18.49907136851778" to="0" dur="0.5549721410555334s" begin="anim4.end" fill="freeze" id="anim5" /></path><path d="M 33.9 -21.1 L 15.2 -21.1 " transform="translate(0.0 38.0)" stroke-dasharray="18.7" stroke-dashoffset="18.7"><animate attributeName="stroke-dashoffset" from="18.7" to="0" dur="0.5609999999999999s" begin="anim5.end" fill="freeze" id="anim6" /></path><path d="M 8.1 -33.5 C 10.4 -35.0 13.1 -37.3 14.8 -39.5 " transform="translate(0.0 38.0)" stroke-dasharray="9.030742780347051" stroke-dashoffset="9.030742780347051"><animate attributeName="stroke-dashoffset" from="9.030742780347051" to="0" dur="0.2709222834104115s" begin="anim6.end" fill="freeze" id="anim7" /></path><path d="M 28.1 -11.5 C 31.4 -12.9 34.7 -14.8 37.8 -17.1 " transform="translate(0.0 38.0)" stroke-dasharray="11.226407733731667" stroke-dashoffset="11.226407733731667"><animate attributeName="stroke-dashoffset" from="11.226407733731667" to="0" dur="0.33679223201195s" begin="anim7.end" fill="freeze" id="anim8" /></path><path d="M 45.4 -27.3 L 4.5 -27.3 " transform="translate(0.0 38.0)" stroke-dasharray="40.9" stroke-dashoffset="40.9"><animate attributeName="stroke-dashoffset" from="40.9" to="0" dur="1.2269999999999999s" begin="anim8.end" fill="freeze" id="anim9" /></path><path d="M 34.9 -33.7 L 15.0 -33.7 " transform="translate(0.0 38.0)" stroke-dasharray="19.9" stroke-dashoffset="19.9"><animate attributeName="stroke-dashoffset" from="19.9" to="0" dur="0.597s" begin="anim9.end" fill="freeze" id="anim10" /></path><path d="M 45.9 -20.1 C 38.5 -22.6 31.3 -27.2 27.4 -33.5 " transform="translate(0.0 38.0)" stroke-dasharray="23.2822852006519" stroke-dashoffset="23.2822852006519"><animate attributeName="stroke-dashoffset" from="23.2822852006519" to="0" dur="0.6984685560195569s" begin="anim10.end" fill="freeze" id="anim11" /></path><path d="M 41.6 -34.4 C 39.4 -35.9 36.8 -38.0 35.2 -39.6" transform="translate(0.0 38.0)" stroke-dasharray="8.256153406839912" stroke-dashoffset="8.256153406839912"><animate attributeName="stroke-dashoffset" from="8.256153406839912" to="0" dur="0.24768460220519736s" begin="anim11.end" fill="freeze" id="anim_end" /></path></g></svg>