<?xml version='1.0' encoding='utf-8'?>
<svg viewBox="0.0 -6.0 50.0 50.0" version="1.1" xmlns="http://www.w3.org/2000/svg"><rect x="-1000" y="-1000" width="2000" height="2000" stroke="white" fill="white" /><g style="fill:none;stroke:#000000;stroke-width:1"><path d="M 3.8 -0.1 C 6.2 -5.0 7.4 -11.1 7.4 -21.4 L 7.4 -25.6 C 7.4 -27.6 8.2 -28.4 10.8 -28.4 L 21.3 -28.4 C 23.4 -28.4 24.1 -27.4 24.1 -26.1 L 24.1 -23.9 C 24.1 -22.6 23.4 -21.6 21.3 -21.6 L 7.7 -21.6 " transform="translate(0.0 38.0)" stroke-dasharray="65.7224920288839" stroke-dashoffset="65.7224920288839"><animate attributeName="stroke-dashoffset" from="65.7224920288839" to="0" dur="1.971674760866517s" begin="0s; 15s; 30s; 45s" fill="freeze" id="anim0" /></path><path d="M 9.4 -0.1 C 10.7 -1.6 11.7 -3.1 12.7 -5.2 " transform="translate(0.0 38.0)" stroke-dasharray="6.094704863480891" stroke-dashoffset="6.094704863480891"><animate attributeName="stroke-dashoffset" from="6.094704863480891" to="0" dur="0.18284114590442674s" begin="anim0.end" fill="freeze" id="anim1" /></path><path d="M 13.6 2.3 C 14.4 2.5 15.2 2.5 15.8 2.5 C 17.6 2.5 18.5 1.8 18.5 -0.4 L 18.5 -9.8 " transform="translate(0.0 38.0)" stroke-dasharray="16.224995297816132" stroke-dashoffset="16.224995297816132"><animate attributeName="stroke-dashoffset" from="16.224995297816132" to="0" dur="0.48674985893448397s" begin="anim1.end" fill="freeze" id="anim2" /></path><path d="M 26.7 -9.9 L 7.5 -9.9 " transform="translate(0.0 38.0)" stroke-dasharray="19.2" stroke-dashoffset="19.2"><animate attributeName="stroke-dashoffset" from="19.2" to="0" dur="0.576s" begin="anim2.end" fill="freeze" id="anim3" /></path><path d="M 26.5 -1.6 C 25.6 -3.1 24.6 -4.5 23.6 -5.7 " transform="translate(0.0 38.0)" stroke-dasharray="5.026830981887427" stroke-dashoffset="5.026830981887427"><animate attributeName="stroke-dashoffset" from="5.026830981887427" to="0" dur="0.1508049294566228s" begin="anim3.end" fill="freeze" id="anim4" /></path><path d="M 24.1 -15.8 L 12.5 -15.8 " transform="translate(0.0 38.0)" stroke-dasharray="11.600000000000001" stroke-dashoffset="11.600000000000001"><animate attributeName="stroke-dashoffset" from="11.600000000000001" to="0" dur="0.34800000000000003s" begin="anim4.end" fill="freeze" id="anim5" /></path><path d="M 34.5 -9.8 C 33.6 -11.2 32.4 -12.7 31.1 -13.9 " transform="translate(0.0 38.0)" stroke-dasharray="5.339930749656728" stroke-dashoffset="5.339930749656728"><animate attributeName="stroke-dashoffset" from="5.339930749656728" to="0" dur="0.16019792248970183s" begin="anim5.end" fill="freeze" id="anim6" /></path><path d="M 34.5 1.6 C 35.8 1.9 36.5 1.9 37.5 1.9 C 39.6 1.9 40.8 1.1 40.8 -1.2 L 40.8 -29.9 " transform="translate(0.0 38.0)" stroke-dasharray="36.95517679896694" stroke-dashoffset="36.95517679896694"><animate attributeName="stroke-dashoffset" from="36.95517679896694" to="0" dur="1.1086553039690081s" begin="anim6.end" fill="freeze" id="anim7" /></path><path d="M 17.8 -32.2 L 17.8 -40.5 " transform="translate(0.0 38.0)" stroke-dasharray="8.299999999999997" stroke-dashoffset="8.299999999999997"><animate attributeName="stroke-dashoffset" from="8.299999999999997" to="0" dur="0.24899999999999992s" begin="anim7.end" fill="freeze" id="anim8" /></path><path d="M 46.9 -21.5 L 30.0 -21.5 " transform="translate(0.0 38.0)" stroke-dasharray="16.9" stroke-dashoffset="16.9"><animate attributeName="stroke-dashoffset" from="16.9" to="0" dur="0.5069999999999999s" begin="anim8.end" fill="freeze" id="anim9" /></path><path d="M 45.9 -36.1 L 4.0 -36.1 " transform="translate(0.0 38.0)" stroke-dasharray="41.9" stroke-dashoffset="41.9"><animate attributeName="stroke-dashoffset" from="41.9" to="0" dur="1.257s" begin="anim9.end" fill="freeze" id="anim10" /></path><path d="M 31.8 -32.4 L 31.8 -40.5" transform="translate(0.0 38.0)" stroke-dasharray="8.100000000000001" stroke-dashoffset="8.100000000000001"><animate attributeName="stroke-dashoffset" from="8.100000000000001" to="0" dur="0.24300000000000002s" begin="anim10.end" fill="freeze" id="anim_end" /></path></g></svg>