<?xml version='1.0' encoding='utf-8'?>
<svg viewBox="0.0 -6.0 50.0 50.0" version="1.1" xmlns="http://www.w3.org/2000/svg"><rect x="-1000" y="-1000" width="2000" height="2000" stroke="white" fill="white" /><g style="fill:none;stroke:#000000;stroke-width:1"><path d="M 32.0 -14.2 L 39.5 -14.2 C 42.1 -14.2 43.1 -15.2 43.1 -17.7 L 43.1 -35.6 C 43.1 -38.1 42.0 -39.0 39.4 -39.0 L 32.1 -39.0 C 29.4 -39.0 28.2 -38.1 28.2 -35.6 L 28.2 -17.7 C 28.2 -15.2 29.4 -14.2 32.0 -14.2 Z " transform="translate(0.0 38.0)" stroke-dasharray="74.30481345914946" stroke-dashoffset="74.30481345914946"><animate attributeName="stroke-dashoffset" from="74.30481345914946" to="0" dur="2.2291444037744834s" begin="0s; 15s; 30s; 45s" fill="freeze" id="anim0" /></path><path d="M 3.7 -1.4 C 7.0 -4.2 9.8 -8.1 11.8 -11.9 " transform="translate(0.0 38.0)" stroke-dasharray="13.338670405511882" stroke-dashoffset="13.338670405511882"><animate attributeName="stroke-dashoffset" from="13.338670405511882" to="0" dur="0.40016011216535646s" begin="anim0.end" fill="freeze" id="anim1" /></path><path d="M 13.4 2.8 L 13.4 -21.6 " transform="translate(0.0 38.0)" stroke-dasharray="24.400000000000002" stroke-dashoffset="24.400000000000002"><animate attributeName="stroke-dashoffset" from="24.400000000000002" to="0" dur="0.732s" begin="anim1.end" fill="freeze" id="anim2" /></path><path d="M 20.8 -5.1 C 18.9 -6.5 16.6 -7.9 14.6 -8.8 " transform="translate(0.0 38.0)" stroke-dasharray="7.232431782439127" stroke-dashoffset="7.232431782439127"><animate attributeName="stroke-dashoffset" from="7.232431782439127" to="0" dur="0.2169729534731738s" begin="anim2.end" fill="freeze" id="anim3" /></path><path d="M 21.8 -14.3 L 5.0 -14.3 " transform="translate(0.0 38.0)" stroke-dasharray="16.8" stroke-dashoffset="16.8"><animate attributeName="stroke-dashoffset" from="16.8" to="0" dur="0.504s" begin="anim3.end" fill="freeze" id="anim4" /></path><path d="M 22.9 1.9 C 28.4 -0.9 31.9 -6.0 32.6 -13.3 " transform="translate(0.0 38.0)" stroke-dasharray="18.873979682332223" stroke-dashoffset="18.873979682332223"><animate attributeName="stroke-dashoffset" from="18.873979682332223" to="0" dur="0.5662193904699667s" begin="anim4.end" fill="freeze" id="anim5" /></path><path d="M 23.1 -22.4 L 3.9 -22.4 " transform="translate(0.0 38.0)" stroke-dasharray="19.200000000000003" stroke-dashoffset="19.200000000000003"><animate attributeName="stroke-dashoffset" from="19.200000000000003" to="0" dur="0.5760000000000001s" begin="anim5.end" fill="freeze" id="anim6" /></path><path d="M 9.9 -26.9 C 9.6 -28.0 8.9 -29.6 8.6 -30.4 " transform="translate(0.0 38.0)" stroke-dasharray="3.735352353751328" stroke-dashoffset="3.735352353751328"><animate attributeName="stroke-dashoffset" from="3.735352353751328" to="0" dur="0.11206057061253984s" begin="anim6.end" fill="freeze" id="anim7" /></path><path d="M 15.1 -22.6 C 16.3 -25.3 17.4 -28.1 18.2 -30.8 " transform="translate(0.0 38.0)" stroke-dasharray="8.772486520733203" stroke-dashoffset="8.772486520733203"><animate attributeName="stroke-dashoffset" from="8.772486520733203" to="0" dur="0.2631745956219961s" begin="anim7.end" fill="freeze" id="anim8" /></path><path d="M 46.7 -3.5 C 46.3 0.5 45.0 1.5 41.9 1.5 C 39.1 1.5 38.3 0.8 38.3 -1.0 L 38.3 -14.2 " transform="translate(0.0 38.0)" stroke-dasharray="26.268443091626217" stroke-dashoffset="26.268443091626217"><animate attributeName="stroke-dashoffset" from="26.268443091626217" to="0" dur="0.7880532927487864s" begin="anim8.end" fill="freeze" id="anim9" /></path><path d="M 21.8 -35.0 L 5.2 -35.0 " transform="translate(0.0 38.0)" stroke-dasharray="16.6" stroke-dashoffset="16.6"><animate attributeName="stroke-dashoffset" from="16.6" to="0" dur="0.498s" begin="anim9.end" fill="freeze" id="anim10" /></path><path d="M 13.4 -34.9 L 13.4 -40.5 " transform="translate(0.0 38.0)" stroke-dasharray="5.600000000000001" stroke-dashoffset="5.600000000000001"><animate attributeName="stroke-dashoffset" from="5.600000000000001" to="0" dur="0.16800000000000004s" begin="anim10.end" fill="freeze" id="anim11" /></path><path d="M 42.6 -22.9 L 28.6 -22.9 " transform="translate(0.0 38.0)" stroke-dasharray="14.0" stroke-dashoffset="14.0"><animate attributeName="stroke-dashoffset" from="14.0" to="0" dur="0.42s" begin="anim11.end" fill="freeze" id="anim12" /></path><path d="M 42.6 -30.9 L 28.6 -30.9" transform="translate(0.0 38.0)" stroke-dasharray="14.0" stroke-dashoffset="14.0"><animate attributeName="stroke-dashoffset" from="14.0" to="0" dur="0.42s" begin="anim12.end" fill="freeze" id="anim_end" /></path></g></svg>