<?xml version='1.0' encoding='utf-8'?>
<svg viewBox="0.0 -6.0 50.0 50.0" version="1.1" xmlns="http://www.w3.org/2000/svg"><rect x="-1000" y="-1000" width="2000" height="2000" stroke="white" fill="white" /><g style="fill:none;stroke:#000000;stroke-width:1"><path d="M 9.2 0.8 C 9.8 0.9 10.4 1.0 11.2 1.0 C 12.8 1.0 13.8 0.2 13.8 -2.0 L 13.8 -36.0 C 13.8 -38.4 13.1 -39.1 10.9 -39.1 L 8.9 -39.1 C 6.8 -39.1 6.0 -38.4 6.0 -36.0 L 6.0 -23.1 C 6.0 -10.4 5.0 -3.8 3.3 1.1 " transform="translate(0.0 38.0)" stroke-dasharray="89.94307263506562" stroke-dashoffset="89.94307263506562"><animate attributeName="stroke-dashoffset" from="89.94307263506562" to="0" dur="2.6982921790519683s" begin="0s; anim_end.end" fill="freeze" id="anim0" /></path><path d="M 13.6 -15.3 L 5.8 -15.3 " transform="translate(0.0 38.0)" stroke-dasharray="7.8" stroke-dashoffset="7.8"><animate attributeName="stroke-dashoffset" from="7.8" to="0" dur="0.23399999999999999s" begin="anim0.end" fill="freeze" id="anim1" /></path><path d="M 18.2 0.0 C 22.7 -0.8 28.5 -2.4 33.1 -4.3 " transform="translate(0.0 38.0)" stroke-dasharray="15.534565047997733" stroke-dashoffset="15.534565047997733"><animate attributeName="stroke-dashoffset" from="15.534565047997733" to="0" dur="0.46603695143993196s" begin="anim1.end" fill="freeze" id="anim2" /></path><path d="M 22.8 -6.3 C 22.2 -7.6 21.6 -9.1 20.9 -10.1 " transform="translate(0.0 38.0)" stroke-dasharray="4.254241432025868" stroke-dashoffset="4.254241432025868"><animate attributeName="stroke-dashoffset" from="4.254241432025868" to="0" dur="0.12762724296077604s" begin="anim2.end" fill="freeze" id="anim3" /></path><path d="M 27.1 -2.5 C 28.4 -5.0 29.4 -7.7 30.1 -10.3 " transform="translate(0.0 38.0)" stroke-dasharray="8.373069653440746" stroke-dashoffset="8.373069653440746"><animate attributeName="stroke-dashoffset" from="8.373069653440746" to="0" dur="0.25119208960322237s" begin="anim3.end" fill="freeze" id="anim4" /></path><path d="M 13.6 -27.4 L 5.9 -27.4 " transform="translate(0.0 38.0)" stroke-dasharray="7.699999999999999" stroke-dashoffset="7.699999999999999"><animate attributeName="stroke-dashoffset" from="7.699999999999999" to="0" dur="0.23099999999999998s" begin="anim4.end" fill="freeze" id="anim5" /></path><path d="M 23.1 -15.2 L 28.3 -15.2 C 30.6 -15.2 31.4 -16.1 31.4 -17.8 L 31.4 -20.3 C 31.4 -22.0 30.6 -22.9 28.3 -22.9 L 23.1 -22.9 C 20.8 -22.9 20.1 -22.0 20.1 -20.3 L 20.1 -17.8 C 20.1 -16.1 20.8 -15.2 23.1 -15.2 Z " transform="translate(0.0 38.0)" stroke-dasharray="33.975070873464354" stroke-dashoffset="33.975070873464354"><animate attributeName="stroke-dashoffset" from="33.975070873464354" to="0" dur="1.0192521262039307s" begin="anim5.end" fill="freeze" id="anim6" /></path><path d="M 34.0 1.6 C 38.6 -1.2 43.6 -6.3 46.6 -11.2 " transform="translate(0.0 38.0)" stroke-dasharray="18.108547369180805" stroke-dashoffset="18.108547369180805"><animate attributeName="stroke-dashoffset" from="18.108547369180805" to="0" dur="0.5432564210754242s" begin="anim6.end" fill="freeze" id="anim7" /></path><path d="M 31.9 -28.8 L 19.5 -28.8 " transform="translate(0.0 38.0)" stroke-dasharray="12.399999999999999" stroke-dashoffset="12.399999999999999"><animate attributeName="stroke-dashoffset" from="12.399999999999999" to="0" dur="0.37199999999999994s" begin="anim7.end" fill="freeze" id="anim8" /></path><path d="M 25.7 -28.4 L 25.7 -40.2 " transform="translate(0.0 38.0)" stroke-dasharray="11.800000000000004" stroke-dashoffset="11.800000000000004"><animate attributeName="stroke-dashoffset" from="11.800000000000004" to="0" dur="0.3540000000000001s" begin="anim8.end" fill="freeze" id="anim9" /></path><path d="M 33.5 -35.3 L 18.3 -35.3 " transform="translate(0.0 38.0)" stroke-dasharray="15.2" stroke-dashoffset="15.2"><animate attributeName="stroke-dashoffset" from="15.2" to="0" dur="0.45599999999999996s" begin="anim9.end" fill="freeze" id="anim10" /></path><path d="M 36.9 -14.9 C 39.9 -17.4 43.5 -21.7 45.6 -25.4 " transform="translate(0.0 38.0)" stroke-dasharray="13.6972616620873" stroke-dashoffset="13.6972616620873"><animate attributeName="stroke-dashoffset" from="13.6972616620873" to="0" dur="0.410917849862619s" begin="anim10.end" fill="freeze" id="anim11" /></path><path d="M 36.6 -28.3 C 39.1 -30.8 42.0 -34.9 43.9 -39.0" transform="translate(0.0 38.0)" stroke-dasharray="13.011512497368393" stroke-dashoffset="13.011512497368393"><animate attributeName="stroke-dashoffset" from="13.011512497368393" to="0" dur="0.39034537492105176s" begin="anim11.end" fill="freeze" id="anim_end" /></path></g></svg>