<?xml version='1.0' encoding='utf-8'?>
<svg viewBox="0.0 -6.0 50.0 50.0" version="1.1" xmlns="http://www.w3.org/2000/svg"><rect x="-1000" y="-1000" width="2000" height="2000" stroke="white" fill="white" /><g style="fill:none;stroke:#000000;stroke-width:1"><path d="M 16.9 1.1 C 20.1 -4.5 21.5 -10.7 21.5 -24.3 L 21.5 -34.0 C 21.5 -36.4 22.8 -37.5 25.6 -37.5 L 46.0 -37.5 " transform="translate(0.0 38.0)" stroke-dasharray="62.4311715550186" stroke-dashoffset="62.4311715550186"><animate attributeName="stroke-dashoffset" from="62.4311715550186" to="0" dur="1.872935146650558s" begin="0s" fill="freeze" /></path><path d="M 16.2 -6.5 L 2.6 -6.5 " transform="translate(0.0 38.0)" stroke-dasharray="13.6" stroke-dashoffset="13.6"><animate attributeName="stroke-dashoffset" from="13.6" to="0" dur="0.408s" begin="1.872935146650558s" fill="freeze" /></path><path d="M 10.0 3.0 L 10.0 -40.8 " transform="translate(0.0 38.0)" stroke-dasharray="43.8" stroke-dashoffset="43.8"><animate attributeName="stroke-dashoffset" from="43.8" to="0" dur="1.3139999999999998s" begin="2.280935146650558s" fill="freeze" /></path><path d="M 15.9 -16.0 L 15.9 -25.3 C 15.9 -27.1 15.1 -28.0 13.0 -28.0 L 7.2 -28.0 C 5.2 -28.0 4.3 -27.1 4.3 -25.3 L 4.3 -16.0 C 4.3 -14.1 5.2 -13.3 7.2 -13.3 L 13.0 -13.3 C 15.1 -13.3 15.9 -14.1 15.9 -16.0 Z " transform="translate(0.0 38.0)" stroke-dasharray="48.544443592123024" stroke-dashoffset="48.544443592123024"><animate attributeName="stroke-dashoffset" from="48.544443592123024" to="0" dur="1.4563333077636906s" begin="3.594935146650558s" fill="freeze" /></path><path d="M 15.3 -20.8 L 4.8 -20.8 " transform="translate(0.0 38.0)" stroke-dasharray="10.5" stroke-dashoffset="10.5"><animate attributeName="stroke-dashoffset" from="10.5" to="0" dur="0.315s" begin="5.051268454414249s" fill="freeze" /></path><path d="M 28.1 0.6 L 28.1 -7.7 " transform="translate(0.0 38.0)" stroke-dasharray="8.3" stroke-dashoffset="8.3"><animate attributeName="stroke-dashoffset" from="8.3" to="0" dur="0.249s" begin="5.366268454414249s" fill="freeze" /></path><path d="M 46.6 1.2 L 22.4 1.2 " transform="translate(0.0 38.0)" stroke-dasharray="24.200000000000003" stroke-dashoffset="24.200000000000003"><animate attributeName="stroke-dashoffset" from="24.200000000000003" to="0" dur="0.7260000000000001s" begin="5.615268454414249s" fill="freeze" /></path><path d="M 35.6 0.9 L 35.6 -10.3 " transform="translate(0.0 38.0)" stroke-dasharray="11.200000000000001" stroke-dashoffset="11.200000000000001"><animate attributeName="stroke-dashoffset" from="11.200000000000001" to="0" dur="0.336s" begin="6.341268454414249s" fill="freeze" /></path><path d="M 17.2 -34.4 L 2.9 -34.4 " transform="translate(0.0 38.0)" stroke-dasharray="14.299999999999999" stroke-dashoffset="14.299999999999999"><animate attributeName="stroke-dashoffset" from="14.299999999999999" to="0" dur="0.42899999999999994s" begin="6.677268454414249s" fill="freeze" /></path><path d="M 24.6 -16.4 C 26.2 -18.2 27.6 -20.7 28.7 -23.6 " transform="translate(0.0 38.0)" stroke-dasharray="8.329549691722569" stroke-dashoffset="8.329549691722569"><animate attributeName="stroke-dashoffset" from="8.329549691722569" to="0" dur="0.24988649075167707s" begin="7.106268454414249s" fill="freeze" /></path><path d="M 43.5 -6.2 L 35.4 -6.2 " transform="translate(0.0 38.0)" stroke-dasharray="8.100000000000001" stroke-dashoffset="8.100000000000001"><animate attributeName="stroke-dashoffset" from="8.100000000000001" to="0" dur="0.24300000000000002s" begin="7.356154945165926s" fill="freeze" /></path><path d="M 29.8 -13.1 L 29.8 -31.7 " transform="translate(0.0 38.0)" stroke-dasharray="18.6" stroke-dashoffset="18.6"><animate attributeName="stroke-dashoffset" from="18.6" to="0" dur="0.558s" begin="7.599154945165926s" fill="freeze" /></path><path d="M 33.4 -25.6 L 25.3 -25.6 " transform="translate(0.0 38.0)" stroke-dasharray="8.099999999999998" stroke-dashoffset="8.099999999999998"><animate attributeName="stroke-dashoffset" from="8.099999999999998" to="0" dur="0.24299999999999994s" begin="8.157154945165926s" fill="freeze" /></path><path d="M 35.4 -15.6 C 37.1 -17.6 38.8 -20.3 40.1 -23.5 " transform="translate(0.0 38.0)" stroke-dasharray="9.23017552407517" stroke-dashoffset="9.23017552407517"><animate attributeName="stroke-dashoffset" from="9.23017552407517" to="0" dur="0.2769052657222551s" begin="8.400154945165927s" fill="freeze" /></path><path d="M 25.6 -30.9 C 27.7 -31.2 30.7 -32.0 32.8 -32.9 " transform="translate(0.0 38.0)" stroke-dasharray="7.490276805433972" stroke-dashoffset="7.490276805433972"><animate attributeName="stroke-dashoffset" from="7.490276805433972" to="0" dur="0.22470830416301915s" begin="8.677060210888182s" fill="freeze" /></path><path d="M 41.0 -13.1 L 41.0 -32.0 " transform="translate(0.0 38.0)" stroke-dasharray="18.9" stroke-dashoffset="18.9"><animate attributeName="stroke-dashoffset" from="18.9" to="0" dur="0.567s" begin="8.901768515051202s" fill="freeze" /></path><path d="M 47.0 -16.3 C 45.0 -18.2 43.0 -21.1 41.8 -24.0 " transform="translate(0.0 38.0)" stroke-dasharray="9.35317277972915" stroke-dashoffset="9.35317277972915"><animate attributeName="stroke-dashoffset" from="9.35317277972915" to="0" dur="0.28059518339187445s" begin="9.468768515051202s" fill="freeze" /></path><path d="M 46.1 -25.6 L 36.9 -25.6 " transform="translate(0.0 38.0)" stroke-dasharray="9.200000000000003" stroke-dashoffset="9.200000000000003"><animate attributeName="stroke-dashoffset" from="9.200000000000003" to="0" dur="0.2760000000000001s" begin="9.749363698443076s" fill="freeze" /></path><path d="M 37.2 -30.6 C 40.0 -31.2 42.5 -31.9 44.7 -33.0 " transform="translate(0.0 38.0)" stroke-dasharray="7.895752818466509" stroke-dashoffset="7.895752818466509"><animate attributeName="stroke-dashoffset" from="7.895752818466509" to="0" dur="0.23687258455399526s" begin="10.025363698443076s" fill="freeze" /></path><path d="M 30.4 -22.1 C 31.6 -20.9 32.5 -20.0 33.5 -18.9" transform="translate(0.0 38.0)" stroke-dasharray="4.455811043780516" stroke-dashoffset="4.455811043780516"><animate attributeName="stroke-dashoffset" from="4.455811043780516" to="0" dur="0.13367433131341547s" begin="10.26223628299707s" fill="freeze" /></path></g></svg>