<?xml version='1.0' encoding='utf-8'?>
<svg viewBox="0.0 -6.0 50.0 50.0" version="1.1" xmlns="http://www.w3.org/2000/svg"><rect x="-1000" y="-1000" width="2000" height="2000" stroke="white" fill="white" /><g style="fill:none;stroke:#000000;stroke-width:1"><path d="M 38.9 1.6 C 39.6 1.7 40.3 1.8 41.1 1.8 C 43.3 1.8 44.2 0.8 44.2 -1.5 L 44.2 -23.6 C 44.2 -25.9 43.2 -27.0 40.2 -27.0 L 26.5 -27.0 C 23.6 -27.0 22.6 -25.9 22.6 -23.6 L 22.6 2.2 " transform="translate(0.0 38.0)" stroke-dasharray="81.1690537600661" stroke-dashoffset="81.1690537600661"><animate attributeName="stroke-dashoffset" from="81.1690537600661" to="0" dur="2.435071612801983s" begin="0s; anim_end.end" fill="freeze" id="anim0" /></path><path d="M 3.0 -0.9 C 8.0 -1.8 14.5 -3.6 18.1 -5.0 " transform="translate(0.0 38.0)" stroke-dasharray="15.665260376047174" stroke-dashoffset="15.665260376047174"><animate attributeName="stroke-dashoffset" from="15.665260376047174" to="0" dur="0.46995781128141517s" begin="anim0.end" fill="freeze" id="anim1" /></path><path d="M 5.7 -1.1 L 5.7 -19.2 " transform="translate(0.0 38.0)" stroke-dasharray="18.099999999999998" stroke-dashoffset="18.099999999999998"><animate attributeName="stroke-dashoffset" from="18.099999999999998" to="0" dur="0.5429999999999999s" begin="anim1.end" fill="freeze" id="anim2" /></path><path d="M 11.7 -2.9 L 11.7 -26.4 " transform="translate(0.0 38.0)" stroke-dasharray="23.5" stroke-dashoffset="23.5"><animate attributeName="stroke-dashoffset" from="23.5" to="0" dur="0.705s" begin="anim2.end" fill="freeze" id="anim3" /></path><path d="M 17.6 -16.8 L 11.8 -16.8 " transform="translate(0.0 38.0)" stroke-dasharray="5.800000000000001" stroke-dashoffset="5.800000000000001"><animate attributeName="stroke-dashoffset" from="5.800000000000001" to="0" dur="0.17400000000000002s" begin="anim3.end" fill="freeze" id="anim4" /></path><path d="M 43.7 -9.8 L 23.1 -9.8 " transform="translate(0.0 38.0)" stroke-dasharray="20.6" stroke-dashoffset="20.6"><animate attributeName="stroke-dashoffset" from="20.6" to="0" dur="0.618s" begin="anim4.end" fill="freeze" id="anim5" /></path><path d="M 13.4 -38.6 L 8.9 -38.6 C 6.4 -38.6 5.5 -37.9 5.5 -35.5 L 5.5 -30.1 C 5.5 -27.8 6.3 -26.9 8.8 -26.9 L 13.4 -26.9 C 15.9 -26.9 16.8 -27.8 16.8 -30.1 L 16.8 -35.5 C 16.8 -37.9 15.9 -38.6 13.4 -38.6 Z " transform="translate(0.0 38.0)" stroke-dasharray="41.58271661231563" stroke-dashoffset="41.58271661231563"><animate attributeName="stroke-dashoffset" from="41.58271661231563" to="0" dur="1.2474814983694689s" begin="anim5.end" fill="freeze" id="anim6" /></path><path d="M 33.0 1.8 L 33.0 -26.3 " transform="translate(0.0 38.0)" stroke-dasharray="28.1" stroke-dashoffset="28.1"><animate attributeName="stroke-dashoffset" from="28.1" to="0" dur="0.843s" begin="anim6.end" fill="freeze" id="anim7" /></path><path d="M 43.7 -18.5 L 23.1 -18.5 " transform="translate(0.0 38.0)" stroke-dasharray="20.6" stroke-dashoffset="20.6"><animate attributeName="stroke-dashoffset" from="20.6" to="0" dur="0.618s" begin="anim7.end" fill="freeze" id="anim8" /></path><path d="M 35.0 -29.4 C 33.2 -30.9 30.8 -32.5 29.1 -33.5 " transform="translate(0.0 38.0)" stroke-dasharray="7.191566106584393" stroke-dashoffset="7.191566106584393"><animate attributeName="stroke-dashoffset" from="7.191566106584393" to="0" dur="0.21574698319753177s" begin="anim8.end" fill="freeze" id="anim9" /></path><path d="M 33.8 -31.3 C 36.0 -32.4 38.2 -33.8 40.0 -35.3 C 41.8 -36.9 40.9 -38.5 38.6 -38.5 L 23.2 -38.5" transform="translate(0.0 38.0)" stroke-dasharray="27.898391084427118" stroke-dashoffset="27.898391084427118"><animate attributeName="stroke-dashoffset" from="27.898391084427118" to="0" dur="0.8369517325328135s" begin="anim9.end" fill="freeze" id="anim_end" /></path></g></svg>