<?xml version='1.0' encoding='utf-8'?>
<svg viewBox="0.0 -6.0 50.0 50.0" version="1.1" xmlns="http://www.w3.org/2000/svg"><rect x="-1000" y="-1000" width="2000" height="2000" stroke="white" fill="white" /><g style="fill:none;stroke:#000000;stroke-width:1"><path d="M 4.0 -26.4 C 11.7 -29.6 19.6 -34.8 24.8 -40.6 " transform="translate(0.0 38.0)" stroke-dasharray="25.37753912005262" stroke-dashoffset="25.37753912005262"><animate attributeName="stroke-dashoffset" from="25.37753912005262" to="0" dur="0.7613261736015786s" begin="0s; anim_end.end" fill="freeze" id="anim0" /></path><path d="M 9.7 2.1 C 15.2 1.6 22.9 0.2 28.2 -1.2 " transform="translate(0.0 38.0)" stroke-dasharray="18.80987694290095" stroke-dashoffset="18.80987694290095"><animate attributeName="stroke-dashoffset" from="18.80987694290095" to="0" dur="0.5642963082870285s" begin="anim0.end" fill="freeze" id="anim1" /></path><path d="M 17.1 1.0 L 17.1 -5.1 " transform="translate(0.0 38.0)" stroke-dasharray="6.1" stroke-dashoffset="6.1"><animate attributeName="stroke-dashoffset" from="6.1" to="0" dur="0.183s" begin="anim1.end" fill="freeze" id="anim2" /></path><path d="M 4.2 -3.2 C 11.3 -5.0 19.3 -8.9 24.0 -12.9 " transform="translate(0.0 38.0)" stroke-dasharray="22.211435840629598" stroke-dashoffset="22.211435840629598"><animate attributeName="stroke-dashoffset" from="22.211435840629598" to="0" dur="0.6663430752188879s" begin="anim2.end" fill="freeze" id="anim3" /></path><path d="M 45.6 -13.2 L 4.5 -13.2 " transform="translate(0.0 38.0)" stroke-dasharray="41.1" stroke-dashoffset="41.1"><animate attributeName="stroke-dashoffset" from="41.1" to="0" dur="1.233s" begin="anim3.end" fill="freeze" id="anim4" /></path><path d="M 45.3 2.0 C 37.5 -0.5 30.1 -5.6 26.2 -13.2 " transform="translate(0.0 38.0)" stroke-dasharray="25.04407018444054" stroke-dashoffset="25.04407018444054"><animate attributeName="stroke-dashoffset" from="25.04407018444054" to="0" dur="0.7513221055332161s" begin="anim4.end" fill="freeze" id="anim5" /></path><path d="M 24.9 -13.6 L 24.9 -18.1 " transform="translate(0.0 38.0)" stroke-dasharray="4.500000000000002" stroke-dashoffset="4.500000000000002"><animate attributeName="stroke-dashoffset" from="4.500000000000002" to="0" dur="0.13500000000000004s" begin="anim5.end" fill="freeze" id="anim6" /></path><path d="M 31.9 -17.8 C 32.9 -19.2 33.6 -20.6 34.3 -22.2 C 35.0 -23.9 34.4 -24.9 32.1 -24.9 L 12.5 -24.9 " transform="translate(0.0 38.0)" stroke-dasharray="29.11683017455102" stroke-dashoffset="29.11683017455102"><animate attributeName="stroke-dashoffset" from="29.11683017455102" to="0" dur="0.8735049052365306s" begin="anim6.end" fill="freeze" id="anim7" /></path><path d="M 33.4 -4.5 C 35.7 -5.8 38.0 -7.5 39.9 -9.2 " transform="translate(0.0 38.0)" stroke-dasharray="8.036005824719643" stroke-dashoffset="8.036005824719643"><animate attributeName="stroke-dashoffset" from="8.036005824719643" to="0" dur="0.24108017474158927s" begin="anim7.end" fill="freeze" id="anim8" /></path><path d="M 29.4 -30.6 L 19.6 -30.6 " transform="translate(0.0 38.0)" stroke-dasharray="9.799999999999997" stroke-dashoffset="9.799999999999997"><animate attributeName="stroke-dashoffset" from="9.799999999999997" to="0" dur="0.29399999999999993s" begin="anim8.end" fill="freeze" id="anim9" /></path><path d="M 46.0 -27.6 C 38.4 -30.2 30.8 -34.5 24.9 -39.7" transform="translate(0.0 38.0)" stroke-dasharray="24.47306279282738" stroke-dashoffset="24.47306279282738"><animate attributeName="stroke-dashoffset" from="24.47306279282738" to="0" dur="0.7341918837848214s" begin="anim9.end" fill="freeze" id="anim_end" /></path></g></svg>