<?xml version='1.0' encoding='utf-8'?>
<svg viewBox="0.0 -6.0 50.0 50.0" version="1.1" xmlns="http://www.w3.org/2000/svg"><rect x="-1000" y="-1000" width="2000" height="2000" stroke="white" fill="white" /><g style="fill:none;stroke:#000000;stroke-width:1"><path d="M 4.4 2.5 C 15.3 2.0 27.1 -0.8 33.3 -5.0 C 35.4 -6.3 35.0 -8.1 32.2 -8.1 L 9.5 -8.1 " transform="translate(0.0 38.0)" stroke-dasharray="58.2241014965448" stroke-dashoffset="58.2241014965448"><animate attributeName="stroke-dashoffset" from="58.2241014965448" to="0" dur="1.7467230448963438s" begin="0s; 15s; 30s; 45s" fill="freeze" id="anim0" /></path><path d="M 45.5 1.9 C 34.0 1.2 22.1 -1.6 15.1 -8.1 " transform="translate(0.0 38.0)" stroke-dasharray="32.58980532319168" stroke-dashoffset="32.58980532319168"><animate attributeName="stroke-dashoffset" from="32.58980532319168" to="0" dur="0.9776941596957505s" begin="anim0.end" fill="freeze" id="anim1" /></path><path d="M 19.2 -12.6 L 19.2 -18.2 " transform="translate(0.0 38.0)" stroke-dasharray="5.6" stroke-dashoffset="5.6"><animate attributeName="stroke-dashoffset" from="5.6" to="0" dur="0.16799999999999998s" begin="anim1.end" fill="freeze" id="anim2" /></path><path d="M 39.3 -18.4 L 10.8 -18.4 C 8.5 -18.4 7.8 -17.9 7.8 -16.4 L 7.8 -14.8 C 7.8 -13.2 8.5 -12.6 10.8 -12.6 L 39.3 -12.6 C 41.6 -12.6 42.2 -13.2 42.2 -14.8 L 42.2 -16.4 C 42.2 -17.9 41.6 -18.4 39.3 -18.4 Z " transform="translate(0.0 38.0)" stroke-dasharray="77.13645205514601" stroke-dashoffset="77.13645205514601"><animate attributeName="stroke-dashoffset" from="77.13645205514601" to="0" dur="2.31409356165438s" begin="anim2.end" fill="freeze" id="anim3" /></path><path d="M 30.7 -12.6 L 30.7 -18.2 " transform="translate(0.0 38.0)" stroke-dasharray="5.6" stroke-dashoffset="5.6"><animate attributeName="stroke-dashoffset" from="5.6" to="0" dur="0.16799999999999998s" begin="anim3.end" fill="freeze" id="anim4" /></path><path d="M 15.6 -22.9 L 34.3 -22.9 C 36.7 -22.9 37.4 -23.5 37.4 -24.9 L 37.4 -29.4 C 37.4 -30.9 36.7 -31.5 34.3 -31.5 L 15.6 -31.5 C 13.2 -31.5 12.5 -30.9 12.5 -29.4 L 12.5 -24.9 C 12.5 -23.5 13.2 -22.9 15.6 -22.9 Z " transform="translate(0.0 38.0)" stroke-dasharray="63.6176545762216" stroke-dashoffset="63.6176545762216"><animate attributeName="stroke-dashoffset" from="63.6176545762216" to="0" dur="1.9085296372866478s" begin="anim4.end" fill="freeze" id="anim5" /></path><path d="M 38.0 -27.2 L 13.1 -27.2 " transform="translate(0.0 38.0)" stroke-dasharray="24.9" stroke-dashoffset="24.9"><animate attributeName="stroke-dashoffset" from="24.9" to="0" dur="0.7469999999999999s" begin="anim5.end" fill="freeze" id="anim6" /></path><path d="M 17.9 -34.9 L 17.9 -40.9 " transform="translate(0.0 38.0)" stroke-dasharray="6.0" stroke-dashoffset="6.0"><animate attributeName="stroke-dashoffset" from="6.0" to="0" dur="0.18s" begin="anim6.end" fill="freeze" id="anim7" /></path><path d="M 45.4 -37.6 L 4.4 -37.6 " transform="translate(0.0 38.0)" stroke-dasharray="41.0" stroke-dashoffset="41.0"><animate attributeName="stroke-dashoffset" from="41.0" to="0" dur="1.23s" begin="anim7.end" fill="freeze" id="anim8" /></path><path d="M 31.6 -34.9 L 31.6 -40.9" transform="translate(0.0 38.0)" stroke-dasharray="6.0" stroke-dashoffset="6.0"><animate attributeName="stroke-dashoffset" from="6.0" to="0" dur="0.18s" begin="anim8.end" fill="freeze" id="anim_end" /></path></g></svg>