<?xml version='1.0' encoding='utf-8'?>
<svg viewBox="0.0 -6.0 50.0 50.0" version="1.1" xmlns="http://www.w3.org/2000/svg"><rect x="-1000" y="-1000" width="2000" height="2000" stroke="white" fill="white" /><g style="fill:none;stroke:#000000;stroke-width:1"><path d="M 35.8 0.9 C 36.8 1.1 37.6 1.1 38.6 1.1 C 41.0 1.1 42.1 0.1 42.1 -2.5 L 42.1 -23.0 C 42.1 -25.7 41.0 -27.1 37.2 -27.1 L 12.8 -27.1 C 9.1 -27.1 8.0 -25.7 8.0 -23.0 L 8.0 1.9 " transform="translate(0.0 38.0)" stroke-dasharray="93.20700662740579" stroke-dashoffset="93.20700662740579"><animate attributeName="stroke-dashoffset" from="93.20700662740579" to="0" dur="2.7962101988221737s" begin="0s" fill="freeze" /></path><path d="M 18.9 -1.3 L 18.9 -26.8 " transform="translate(0.0 38.0)" stroke-dasharray="25.5" stroke-dashoffset="25.5"><animate attributeName="stroke-dashoffset" from="25.5" to="0" dur="0.765s" begin="2.7962101988221737s" fill="freeze" /></path><path d="M 30.4 -1.3 L 30.4 -26.8 " transform="translate(0.0 38.0)" stroke-dasharray="25.5" stroke-dashoffset="25.5"><animate attributeName="stroke-dashoffset" from="25.5" to="0" dur="0.765s" begin="3.561210198822174s" fill="freeze" /></path><path d="M 21.1 -27.6 C 22.4 -30.6 23.2 -33.0 24.1 -36.4 " transform="translate(0.0 38.0)" stroke-dasharray="9.307367233401436" stroke-dashoffset="9.307367233401436"><animate attributeName="stroke-dashoffset" from="9.307367233401436" to="0" dur="0.27922101700204305s" begin="4.3262101988221735s" fill="freeze" /></path><path d="M 46.2 -37.4 L 3.9 -37.4" transform="translate(0.0 38.0)" stroke-dasharray="42.300000000000004" stroke-dashoffset="42.300000000000004"><animate attributeName="stroke-dashoffset" from="42.300000000000004" to="0" dur="1.2690000000000001s" begin="4.6054312158242166s" fill="freeze" /></path></g></svg>