<?xml version='1.0' encoding='utf-8'?>
<svg viewBox="0.0 -6.0 50.0 50.0" version="1.1" xmlns="http://www.w3.org/2000/svg"><rect x="-1000" y="-1000" width="2000" height="2000" stroke="white" fill="white" /><g style="fill:none;stroke:#000000;stroke-width:1"><path d="M 45.0 -17.5 C 38.5 -19.7 32.8 -24.0 28.9 -29.7 " transform="translate(0.0 38.0)" stroke-dasharray="20.551856035739018" stroke-dashoffset="20.551856035739018"><animate attributeName="stroke-dashoffset" from="20.551856035739018" to="0" dur="0.6165556810721705s" begin="0s" fill="freeze" /></path><path d="M 4.6 1.6 C 9.6 1.2 15.6 0.5 21.2 -0.5 " transform="translate(0.0 38.0)" stroke-dasharray="16.7384907386508" stroke-dashoffset="16.7384907386508"><animate attributeName="stroke-dashoffset" from="16.7384907386508" to="0" dur="0.502154722159524s" begin="0.6165556810721705s" fill="freeze" /></path><path d="M 13.9 1.0 L 13.9 -14.3 " transform="translate(0.0 38.0)" stroke-dasharray="15.3" stroke-dashoffset="15.3"><animate attributeName="stroke-dashoffset" from="15.3" to="0" dur="0.459s" begin="1.1187104032316944s" fill="freeze" /></path><path d="M 22.9 1.2 C 21.9 -0.2 20.8 -1.8 19.6 -3.0 " transform="translate(0.0 38.0)" stroke-dasharray="5.347648968027815" stroke-dashoffset="5.347648968027815"><animate attributeName="stroke-dashoffset" from="5.347648968027815" to="0" dur="0.16042946904083444s" begin="1.5777104032316944s" fill="freeze" /></path><path d="M 21.6 -7.5 L 21.6 -9.6 C 21.6 -10.9 20.9 -11.6 18.9 -11.6 L 9.2 -11.6 C 7.2 -11.6 6.5 -10.9 6.5 -9.6 L 6.5 -7.5 C 6.5 -6.2 7.2 -5.5 9.2 -5.5 L 18.9 -5.5 C 20.9 -5.5 21.6 -6.2 21.6 -7.5 Z " transform="translate(0.0 38.0)" stroke-dasharray="39.05622674090738" stroke-dashoffset="39.05622674090738"><animate attributeName="stroke-dashoffset" from="39.05622674090738" to="0" dur="1.1716868022272213s" begin="1.7381398722725288s" fill="freeze" /></path><path d="M 27.2 1.2 C 32.1 0.9 38.3 0.3 43.7 -0.6 " transform="translate(0.0 38.0)" stroke-dasharray="16.604756760845838" stroke-dashoffset="16.604756760845838"><animate attributeName="stroke-dashoffset" from="16.604756760845838" to="0" dur="0.4981427028253751s" begin="2.90982667449975s" fill="freeze" /></path><path d="M 4.9 -15.9 C 12.5 -17.2 20.4 -19.6 26.7 -22.6 " transform="translate(0.0 38.0)" stroke-dasharray="22.873722468275055" stroke-dashoffset="22.873722468275055"><animate attributeName="stroke-dashoffset" from="22.873722468275055" to="0" dur="0.6862116740482517s" begin="3.4079693773251254s" fill="freeze" /></path><path d="M 5.8 -20.5 C 12.2 -21.6 18.6 -23.5 23.6 -25.9 " transform="translate(0.0 38.0)" stroke-dasharray="18.657017961433386" stroke-dashoffset="18.657017961433386"><animate attributeName="stroke-dashoffset" from="18.657017961433386" to="0" dur="0.5597105388430016s" begin="4.094181051373377s" fill="freeze" /></path><path d="M 6.4 -24.8 C 12.3 -25.8 18.6 -27.6 23.4 -29.9 " transform="translate(0.0 38.0)" stroke-dasharray="17.80137441702612" stroke-dashoffset="17.80137441702612"><animate attributeName="stroke-dashoffset" from="17.80137441702612" to="0" dur="0.5340412325107836s" begin="4.653891590216379s" fill="freeze" /></path><path d="M 35.6 0.8 L 35.6 -15.1 " transform="translate(0.0 38.0)" stroke-dasharray="15.9" stroke-dashoffset="15.9"><animate attributeName="stroke-dashoffset" from="15.9" to="0" dur="0.477s" begin="5.187932822727162s" fill="freeze" /></path><path d="M 28.1 -9.6 L 28.1 -7.5 C 28.1 -6.2 28.8 -5.5 30.8 -5.5 L 40.8 -5.5 C 42.9 -5.5 43.5 -6.2 43.5 -7.5 L 43.5 -9.6 C 43.5 -10.9 42.9 -11.6 40.8 -11.6 L 30.8 -11.6 C 28.8 -11.6 28.1 -10.9 28.1 -9.6 Z " transform="translate(0.0 38.0)" stroke-dasharray="39.70041074093726" stroke-dashoffset="39.70041074093726"><animate attributeName="stroke-dashoffset" from="39.70041074093726" to="0" dur="1.1910123222281177s" begin="5.664932822727162s" fill="freeze" /></path><path d="M 45.9 1.4 C 44.9 -0.1 43.3 -1.9 42.0 -3.1 " transform="translate(0.0 38.0)" stroke-dasharray="5.966639176932852" stroke-dashoffset="5.966639176932852"><animate attributeName="stroke-dashoffset" from="5.966639176932852" to="0" dur="0.17899917530798556s" begin="6.85594514495528s" fill="freeze" /></path><path d="M 22.1 -15.8 C 22.7 -15.7 23.4 -15.6 24.2 -15.6 C 26.4 -15.6 27.8 -16.9 27.8 -19.5 C 27.8 -23.3 24.8 -26.1 19.3 -27.8 " transform="translate(0.0 38.0)" stroke-dasharray="20.925493056830277" stroke-dashoffset="20.925493056830277"><animate attributeName="stroke-dashoffset" from="20.925493056830277" to="0" dur="0.6277647917049083s" begin="7.034944320263265s" fill="freeze" /></path><path d="M 14.3 -33.8 C 15.6 -35.7 16.8 -38.4 17.9 -40.9 " transform="translate(0.0 38.0)" stroke-dasharray="7.971196137895667" stroke-dashoffset="7.971196137895667"><animate attributeName="stroke-dashoffset" from="7.971196137895667" to="0" dur="0.23913588413687s" begin="7.662709111968173s" fill="freeze" /></path><path d="M 45.7 -30.1 L 4.6 -30.1 " transform="translate(0.0 38.0)" stroke-dasharray="41.1" stroke-dashoffset="41.1"><animate attributeName="stroke-dashoffset" from="41.1" to="0" dur="1.233s" begin="7.9018449961050425s" fill="freeze" /></path><path d="M 33.0 -34.4 L 14.9 -34.4 " transform="translate(0.0 38.0)" stroke-dasharray="18.1" stroke-dashoffset="18.1"><animate attributeName="stroke-dashoffset" from="18.1" to="0" dur="0.543s" begin="9.134844996105043s" fill="freeze" /></path><path d="M 31.4 -30.1 C 32.5 -32.1 33.7 -34.4 34.4 -36.2 C 35.0 -37.7 34.3 -38.7 32.2 -38.7 L 16.7 -38.7 " transform="translate(0.0 38.0)" stroke-dasharray="26.50097103037957" stroke-dashoffset="26.50097103037957"><animate attributeName="stroke-dashoffset" from="26.50097103037957" to="0" dur="0.795029130911387s" begin="9.677844996105042s" fill="freeze" /></path><path d="M 35.1 -23.5 C 37.3 -24.5 39.2 -25.6 40.8 -26.9" transform="translate(0.0 38.0)" stroke-dasharray="6.655140392638788" stroke-dashoffset="6.655140392638788"><animate attributeName="stroke-dashoffset" from="6.655140392638788" to="0" dur="0.19965421177916365s" begin="10.472874127016429s" fill="freeze" /></path></g></svg>