<?xml version='1.0' encoding='utf-8'?>
<svg viewBox="0.0 -6.0 50.0 50.0" version="1.1" xmlns="http://www.w3.org/2000/svg"><rect x="-1000" y="-1000" width="2000" height="2000" stroke="white" fill="white" /><g style="fill:none;stroke:#000000;stroke-width:1"><path d="M 9.8 0.6 C 10.5 0.8 11.2 0.8 12.0 0.8 C 13.9 0.8 15.0 -0.1 15.0 -2.4 L 15.0 -35.5 C 15.0 -38.0 14.2 -38.8 11.8 -38.8 L 9.3 -38.8 C 7.0 -38.8 6.2 -38.0 6.2 -35.5 L 6.2 -23.6 C 6.2 -11.2 5.2 -4.4 3.2 0.5 " transform="translate(0.0 38.0)" stroke-dasharray="89.93223452346362" stroke-dashoffset="89.93223452346362"><animate attributeName="stroke-dashoffset" from="89.93223452346362" to="0" dur="2.6979670357039085s" begin="0s; 15s; 30s; 45s" fill="freeze" id="anim0" /></path><path d="M 14.6 -15.7 L 5.7 -15.7 " transform="translate(0.0 38.0)" stroke-dasharray="8.899999999999999" stroke-dashoffset="8.899999999999999"><animate attributeName="stroke-dashoffset" from="8.899999999999999" to="0" dur="0.26699999999999996s" begin="anim0.end" fill="freeze" id="anim1" /></path><path d="M 37.5 -2.5 L 26.6 -2.5 C 24.2 -2.5 23.4 -3.2 23.4 -5.1 L 23.4 -8.1 " transform="translate(0.0 38.0)" stroke-dasharray="18.72111166172272" stroke-dashoffset="18.72111166172272"><animate attributeName="stroke-dashoffset" from="18.72111166172272" to="0" dur="0.5616333498516816s" begin="anim1.end" fill="freeze" id="anim2" /></path><path d="M 19.6 -9.0 C 23.0 -11.2 26.6 -15.1 29.2 -18.8 " transform="translate(0.0 38.0)" stroke-dasharray="13.79340698548206" stroke-dashoffset="13.79340698548206"><animate attributeName="stroke-dashoffset" from="13.79340698548206" to="0" dur="0.4138022095644618s" begin="anim2.end" fill="freeze" id="anim3" /></path><path d="M 14.6 -27.3 L 6.0 -27.3 " transform="translate(0.0 38.0)" stroke-dasharray="8.6" stroke-dashoffset="8.6"><animate attributeName="stroke-dashoffset" from="8.6" to="0" dur="0.258s" begin="anim3.end" fill="freeze" id="anim4" /></path><path d="M 29.1 -6.5 C 30.6 -7.7 32.0 -9.3 33.2 -11.1 " transform="translate(0.0 38.0)" stroke-dasharray="6.185800076141226" stroke-dashoffset="6.185800076141226"><animate attributeName="stroke-dashoffset" from="6.185800076141226" to="0" dur="0.1855740022842368s" begin="anim4.end" fill="freeze" id="anim5" /></path><path d="M 36.0 1.6 C 37.0 1.9 38.0 1.9 38.8 1.9 C 41.1 1.9 42.5 1.1 43.1 -1.4 C 43.9 -4.2 44.2 -7.7 44.2 -10.4 C 44.2 -12.7 43.4 -13.8 40.0 -13.8 L 25.7 -13.8 " transform="translate(0.0 38.0)" stroke-dasharray="38.53549125593035" stroke-dashoffset="38.53549125593035"><animate attributeName="stroke-dashoffset" from="38.53549125593035" to="0" dur="1.1560647376779105s" begin="anim5.end" fill="freeze" id="anim6" /></path><path d="M 37.1 -6.5 C 35.9 -7.4 34.2 -8.4 32.8 -9.1 " transform="translate(0.0 38.0)" stroke-dasharray="5.030811110051767" stroke-dashoffset="5.030811110051767"><animate attributeName="stroke-dashoffset" from="5.030811110051767" to="0" dur="0.150924333301553s" begin="anim6.end" fill="freeze" id="anim7" /></path><path d="M 26.9 -19.4 L 37.6 -19.4 C 40.2 -19.4 41.2 -20.3 41.2 -22.2 L 41.2 -27.4 C 41.2 -29.4 40.2 -30.2 37.6 -30.2 L 26.9 -30.2 C 24.2 -30.2 23.3 -29.4 23.3 -27.4 L 23.3 -22.2 C 23.3 -20.3 24.2 -19.4 26.9 -19.4 Z " transform="translate(0.0 38.0)" stroke-dasharray="52.94677441779473" stroke-dashoffset="52.94677441779473"><animate attributeName="stroke-dashoffset" from="52.94677441779473" to="0" dur="1.5884032325338417s" begin="anim7.end" fill="freeze" id="anim8" /></path><path d="M 40.8 -24.8 L 23.9 -24.8 " transform="translate(0.0 38.0)" stroke-dasharray="16.9" stroke-dashoffset="16.9"><animate attributeName="stroke-dashoffset" from="16.9" to="0" dur="0.5069999999999999s" begin="anim8.end" fill="freeze" id="anim9" /></path><path d="M 27.6 -33.9 L 27.6 -40.1 " transform="translate(0.0 38.0)" stroke-dasharray="6.200000000000003" stroke-dashoffset="6.200000000000003"><animate attributeName="stroke-dashoffset" from="6.200000000000003" to="0" dur="0.18600000000000008s" begin="anim9.end" fill="freeze" id="anim10" /></path><path d="M 45.6 -36.9 L 19.9 -36.9 " transform="translate(0.0 38.0)" stroke-dasharray="25.700000000000003" stroke-dashoffset="25.700000000000003"><animate attributeName="stroke-dashoffset" from="25.700000000000003" to="0" dur="0.771s" begin="anim10.end" fill="freeze" id="anim11" /></path><path d="M 36.8 -34.1 L 36.8 -40.1" transform="translate(0.0 38.0)" stroke-dasharray="6.0" stroke-dashoffset="6.0"><animate attributeName="stroke-dashoffset" from="6.0" to="0" dur="0.18s" begin="anim11.end" fill="freeze" id="anim_end" /></path></g></svg>