<?xml version='1.0' encoding='utf-8'?>
<svg viewBox="0.0 -6.0 50.0 50.0" version="1.1" xmlns="http://www.w3.org/2000/svg"><rect x="-1000" y="-1000" width="2000" height="2000" stroke="white" fill="white" /><g style="fill:none;stroke:#000000;stroke-width:1"><path d="M 46.6 -4.4 C 46.1 -0.1 44.7 1.2 37.7 1.2 C 31.4 1.2 30.3 0.2 30.3 -2.8 L 30.3 -22.0 C 30.3 -24.2 31.2 -25.1 33.8 -25.1 L 41.7 -25.1 C 44.2 -25.1 45.1 -24.4 45.1 -22.1 L 45.1 -16.6 C 45.1 -14.3 44.2 -13.6 41.7 -13.6 L 30.5 -13.6 " transform="translate(0.0 38.0)" stroke-dasharray="81.78293342848781" stroke-dashoffset="81.78293342848781"><animate attributeName="stroke-dashoffset" from="81.78293342848781" to="0" dur="2.453488002854634s" begin="0s; 15s; 30s; 45s" fill="freeze" id="anim0" /></path><path d="M 10.7 -2.8 C 10.2 -3.5 9.9 -4.0 9.4 -4.8 " transform="translate(0.0 38.0)" stroke-dasharray="2.385863385593341" stroke-dashoffset="2.385863385593341"><animate attributeName="stroke-dashoffset" from="2.385863385593341" to="0" dur="0.07157590156780022s" begin="anim0.end" fill="freeze" id="anim1" /></path><path d="M 3.4 1.1 C 9.9 0.6 18.7 -0.8 24.8 -2.4 " transform="translate(0.0 38.0)" stroke-dasharray="21.708378081327933" stroke-dashoffset="21.708378081327933"><animate attributeName="stroke-dashoffset" from="21.708378081327933" to="0" dur="0.651251342439838s" begin="anim1.end" fill="freeze" id="anim2" /></path><path d="M 16.9 -0.6 C 17.5 -1.8 18.1 -3.2 18.8 -5.2 " transform="translate(0.0 38.0)" stroke-dasharray="4.980376652999162" stroke-dashoffset="4.980376652999162"><animate attributeName="stroke-dashoffset" from="4.980376652999162" to="0" dur="0.14941129958997484s" begin="anim2.end" fill="freeze" id="anim3" /></path><path d="M 9.9 -8.8 L 19.5 -8.8 C 21.4 -8.8 22.1 -9.8 22.1 -11.1 L 22.1 -13.1 C 22.1 -14.4 21.4 -15.3 19.5 -15.3 L 9.9 -15.3 C 8.1 -15.3 7.3 -14.4 7.3 -13.1 L 7.3 -11.0 C 7.3 -9.8 8.1 -8.8 9.9 -8.8 Z " transform="translate(0.0 38.0)" stroke-dasharray="38.88088739225128" stroke-dashoffset="38.88088739225128"><animate attributeName="stroke-dashoffset" from="38.88088739225128" to="0" dur="1.1664266217675383s" begin="anim3.end" fill="freeze" id="anim4" /></path><path d="M 3.2 -20.6 L 24.9 -20.6 " transform="translate(0.0 38.0)" stroke-dasharray="21.7" stroke-dashoffset="21.7"><animate attributeName="stroke-dashoffset" from="21.7" to="0" dur="0.6509999999999999s" begin="anim4.end" fill="freeze" id="anim5" /></path><path d="M 11.7 -26.6 L 11.7 -40.5 " transform="translate(0.0 38.0)" stroke-dasharray="13.899999999999999" stroke-dashoffset="13.899999999999999"><animate attributeName="stroke-dashoffset" from="13.899999999999999" to="0" dur="0.4169999999999999s" begin="anim5.end" fill="freeze" id="anim6" /></path><path d="M 8.6 -25.9 L 21.0 -25.9 C 23.1 -25.9 23.9 -26.8 23.9 -28.2 L 23.9 -34.8 C 23.9 -36.2 23.1 -37.1 21.0 -37.1 L 8.6 -37.1 C 6.5 -37.1 5.7 -36.2 5.7 -34.8 L 5.7 -28.2 C 5.7 -26.8 6.5 -25.9 8.6 -25.9 Z " transform="translate(0.0 38.0)" stroke-dasharray="54.930678119089954" stroke-dashoffset="54.930678119089954"><animate attributeName="stroke-dashoffset" from="54.930678119089954" to="0" dur="1.6479203435726986s" begin="anim6.end" fill="freeze" id="anim7" /></path><path d="M 6.7 -31.6 L 23.1 -31.6 " transform="translate(0.0 38.0)" stroke-dasharray="16.400000000000002" stroke-dashoffset="16.400000000000002"><animate attributeName="stroke-dashoffset" from="16.400000000000002" to="0" dur="0.49200000000000005s" begin="anim7.end" fill="freeze" id="anim8" /></path><path d="M 17.6 -26.6 L 17.6 -40.5 " transform="translate(0.0 38.0)" stroke-dasharray="13.899999999999999" stroke-dashoffset="13.899999999999999"><animate attributeName="stroke-dashoffset" from="13.899999999999999" to="0" dur="0.4169999999999999s" begin="anim8.end" fill="freeze" id="anim9" /></path><path d="M 37.6 -14.1 L 37.6 -24.5 " transform="translate(0.0 38.0)" stroke-dasharray="10.4" stroke-dashoffset="10.4"><animate attributeName="stroke-dashoffset" from="10.4" to="0" dur="0.312s" begin="anim9.end" fill="freeze" id="anim10" /></path><path d="M 27.8 -26.8 C 30.8 -30.4 33.2 -35.1 34.9 -39.8 " transform="translate(0.0 38.0)" stroke-dasharray="14.884168874910774" stroke-dashoffset="14.884168874910774"><animate attributeName="stroke-dashoffset" from="14.884168874910774" to="0" dur="0.4465250662473232s" begin="anim10.end" fill="freeze" id="anim11" /></path><path d="M 37.1 -25.2 C 38.2 -27.1 39.3 -28.9 40.1 -31.0 C 41.0 -33.1 40.2 -34.4 38.0 -34.4 L 32.5 -34.4" transform="translate(0.0 38.0)" stroke-dasharray="17.123982044507724" stroke-dashoffset="17.123982044507724"><animate attributeName="stroke-dashoffset" from="17.123982044507724" to="0" dur="0.5137194613352317s" begin="anim11.end" fill="freeze" id="anim_end" /></path></g></svg>