<?xml version='1.0' encoding='utf-8'?>
<svg viewBox="0.0 -6.0 50.0 50.0" version="1.1" xmlns="http://www.w3.org/2000/svg"><rect x="-1000" y="-1000" width="2000" height="2000" stroke="white" fill="white" /><g style="fill:none;stroke:#000000;stroke-width:1"><path d="M 16.0 1.4 L 34.1 1.4 C 37.0 1.4 38.0 0.6 38.0 -1.5 L 38.0 -6.2 C 38.0 -8.2 37.0 -9.2 34.1 -9.2 L 16.0 -9.2 C 13.2 -9.2 12.2 -8.2 12.2 -6.2 L 12.2 -1.5 C 12.2 0.6 13.2 1.4 16.0 1.4 Z " transform="translate(0.0 38.0)" stroke-dasharray="68.08630587533699" stroke-dashoffset="68.08630587533699"><animate attributeName="stroke-dashoffset" from="68.08630587533699" to="0" dur="2.0425891762601096s" begin="0s; anim_end.end" fill="freeze" id="anim0" /></path><path d="M 18.3 -19.9 C 17.7 -21.1 17.1 -22.1 16.4 -23.0 " transform="translate(0.0 38.0)" stroke-dasharray="3.6419694294060143" stroke-dashoffset="3.6419694294060143"><animate attributeName="stroke-dashoffset" from="3.6419694294060143" to="0" dur="0.10925908288218042s" begin="anim0.end" fill="freeze" id="anim1" /></path><path d="M 46.1 -16.0 L 3.9 -16.0 " transform="translate(0.0 38.0)" stroke-dasharray="42.2" stroke-dashoffset="42.2"><animate attributeName="stroke-dashoffset" from="42.2" to="0" dur="1.266s" begin="anim1.end" fill="freeze" id="anim2" /></path><path d="M 42.5 -26.7 L 7.2 -26.7 " transform="translate(0.0 38.0)" stroke-dasharray="35.3" stroke-dashoffset="35.3"><animate attributeName="stroke-dashoffset" from="35.3" to="0" dur="1.059s" begin="anim2.end" fill="freeze" id="anim3" /></path><path d="M 29.9 -16.6 C 31.1 -18.6 32.3 -20.9 33.1 -22.9 " transform="translate(0.0 38.0)" stroke-dasharray="7.073052313022691" stroke-dashoffset="7.073052313022691"><animate attributeName="stroke-dashoffset" from="7.073052313022691" to="0" dur="0.21219156939068073s" begin="anim3.end" fill="freeze" id="anim4" /></path><path d="M 17.3 -32.2 L 17.3 -40.5 " transform="translate(0.0 38.0)" stroke-dasharray="8.299999999999997" stroke-dashoffset="8.299999999999997"><animate attributeName="stroke-dashoffset" from="8.299999999999997" to="0" dur="0.24899999999999992s" begin="anim4.end" fill="freeze" id="anim5" /></path><path d="M 24.9 -26.3 L 24.9 -31.4 " transform="translate(0.0 38.0)" stroke-dasharray="5.099999999999998" stroke-dashoffset="5.099999999999998"><animate attributeName="stroke-dashoffset" from="5.099999999999998" to="0" dur="0.15299999999999994s" begin="anim5.end" fill="freeze" id="anim6" /></path><path d="M 45.4 -36.1 L 4.5 -36.1 " transform="translate(0.0 38.0)" stroke-dasharray="40.9" stroke-dashoffset="40.9"><animate attributeName="stroke-dashoffset" from="40.9" to="0" dur="1.2269999999999999s" begin="anim6.end" fill="freeze" id="anim7" /></path><path d="M 32.2 -32.4 L 32.2 -40.5" transform="translate(0.0 38.0)" stroke-dasharray="8.100000000000001" stroke-dashoffset="8.100000000000001"><animate attributeName="stroke-dashoffset" from="8.100000000000001" to="0" dur="0.24300000000000002s" begin="anim7.end" fill="freeze" id="anim_end" /></path></g></svg>