<?xml version='1.0' encoding='utf-8'?>
<svg viewBox="0.0 -6.0 50.0 50.0" version="1.1" xmlns="http://www.w3.org/2000/svg"><rect x="-1000" y="-1000" width="2000" height="2000" stroke="white" fill="white" /><g style="fill:none;stroke:#000000;stroke-width:1"><path d="M 12.0 1.4 C 12.7 1.6 13.3 1.6 14.1 1.6 C 16.0 1.6 16.9 0.8 16.9 -1.4 L 16.9 -31.4 C 16.9 -33.5 16.0 -34.4 13.9 -34.4 L 9.3 -34.4 C 7.3 -34.4 6.4 -33.5 6.4 -31.4 L 6.4 -22.2 C 6.4 -10.1 5.5 -3.5 3.6 1.8 " transform="translate(0.0 38.0)" stroke-dasharray="84.70722926841543" stroke-dashoffset="84.70722926841543"><animate attributeName="stroke-dashoffset" from="84.70722926841543" to="0" dur="2.5412168780524627s" begin="0s; anim_end.end" fill="freeze" id="anim0" /></path><path d="M 11.7 -6.0 L 11.7 -18.6 " transform="translate(0.0 38.0)" stroke-dasharray="12.600000000000001" stroke-dashoffset="12.600000000000001"><animate attributeName="stroke-dashoffset" from="12.600000000000001" to="0" dur="0.378s" begin="anim0.end" fill="freeze" id="anim1" /></path><path d="M 2.9 -17.8 C 8.6 -18.1 15.6 -19.0 20.4 -20.1 " transform="translate(0.0 38.0)" stroke-dasharray="17.66893640233965" stroke-dashoffset="17.66893640233965"><animate attributeName="stroke-dashoffset" from="17.66893640233965" to="0" dur="0.5300680920701895s" begin="anim1.end" fill="freeze" id="anim2" /></path><path d="M 12.3 -24.6 C 11.9 -26.0 11.4 -27.3 10.9 -28.3 " transform="translate(0.0 38.0)" stroke-dasharray="3.9613402403418156" stroke-dashoffset="3.9613402403418156"><animate attributeName="stroke-dashoffset" from="3.9613402403418156" to="0" dur="0.11884020721025447s" begin="anim2.end" fill="freeze" id="anim3" /></path><path d="M 32.1 1.6 L 40.5 1.6 C 42.9 1.6 43.7 0.8 43.7 -0.9 L 43.7 -3.9 C 43.7 -5.7 42.9 -6.5 40.5 -6.5 L 32.1 -6.5 C 29.9 -6.5 28.9 -5.7 28.9 -3.9 L 28.9 -0.9 C 28.9 0.8 29.9 1.6 32.1 1.6 Z " transform="translate(0.0 38.0)" stroke-dasharray="41.71299078641355" stroke-dashoffset="41.71299078641355"><animate attributeName="stroke-dashoffset" from="41.71299078641355" to="0" dur="1.2513897235924065s" begin="anim3.end" fill="freeze" id="anim4" /></path><path d="M 21.1 -0.2 C 24.2 -4.2 26.1 -9.6 26.1 -16.6 L 26.1 -20.7 C 26.1 -22.7 26.9 -23.5 29.4 -23.5 L 38.7 -23.5 C 41.1 -23.5 42.1 -22.7 42.1 -20.8 L 42.1 -15.3 C 42.1 -13.5 41.1 -12.6 38.7 -12.6 L 26.1 -12.6 " transform="translate(0.0 38.0)" stroke-dasharray="64.03806750822837" stroke-dashoffset="64.03806750822837"><animate attributeName="stroke-dashoffset" from="64.03806750822837" to="0" dur="1.921142025246851s" begin="anim4.end" fill="freeze" id="anim5" /></path><path d="M 10.8 -34.8 C 11.4 -36.7 11.8 -38.5 12.1 -40.0 " transform="translate(0.0 38.0)" stroke-dasharray="5.362743622954984" stroke-dashoffset="5.362743622954984"><animate attributeName="stroke-dashoffset" from="5.362743622954984" to="0" dur="0.1608823086886495s" begin="anim5.end" fill="freeze" id="anim6" /></path><path d="M 41.0 -18.1 L 26.5 -18.1 " transform="translate(0.0 38.0)" stroke-dasharray="14.5" stroke-dashoffset="14.5"><animate attributeName="stroke-dashoffset" from="14.5" to="0" dur="0.435s" begin="anim6.end" fill="freeze" id="anim7" /></path><path d="M 21.8 -26.7 C 26.6 -30.0 31.1 -34.7 33.9 -39.5 " transform="translate(0.0 38.0)" stroke-dasharray="17.74739028212795" stroke-dashoffset="17.74739028212795"><animate attributeName="stroke-dashoffset" from="17.74739028212795" to="0" dur="0.5324217084638384s" begin="anim7.end" fill="freeze" id="anim8" /></path><path d="M 37.5 -28.7 L 30.6 -28.7 " transform="translate(0.0 38.0)" stroke-dasharray="6.899999999999999" stroke-dashoffset="6.899999999999999"><animate attributeName="stroke-dashoffset" from="6.899999999999999" to="0" dur="0.20699999999999996s" begin="anim8.end" fill="freeze" id="anim9" /></path><path d="M 46.5 -28.1 C 41.8 -30.7 37.0 -34.9 33.8 -39.1" transform="translate(0.0 38.0)" stroke-dasharray="16.911146539980276" stroke-dashoffset="16.911146539980276"><animate attributeName="stroke-dashoffset" from="16.911146539980276" to="0" dur="0.5073343961994082s" begin="anim9.end" fill="freeze" id="anim_end" /></path></g></svg>