<?xml version='1.0' encoding='utf-8'?>
<svg viewBox="0.0 -6.0 50.0 50.0" version="1.1" xmlns="http://www.w3.org/2000/svg"><rect x="-1000" y="-1000" width="2000" height="2000" stroke="white" fill="white" /><g style="fill:none;stroke:#000000;stroke-width:1"><path d="M 34.1 0.8 C 40.3 -5.5 44.3 -14.8 45.2 -25.9 C 45.4 -28.2 44.5 -29.0 41.9 -29.0 L 30.7 -29.0 " transform="translate(0.0 38.0)" stroke-dasharray="46.127214655285286" stroke-dashoffset="46.127214655285286"><animate attributeName="stroke-dashoffset" from="46.127214655285286" to="0" dur="1.3838164396585586s" begin="0s; 15s; 30s; 45s" fill="freeze" id="anim0" /></path><path d="M 7.8 1.1 L 11.2 1.1 C 13.3 1.1 14.1 0.2 14.1 -1.8 L 14.1 -7.8 C 14.1 -9.8 13.3 -10.7 11.2 -10.7 L 7.8 -10.7 C 5.7 -10.7 4.8 -9.8 4.8 -7.8 L 4.8 -1.8 C 4.8 0.2 5.7 1.1 7.8 1.1 Z " transform="translate(0.0 38.0)" stroke-dasharray="37.98616388883945" stroke-dashoffset="37.98616388883945"><animate attributeName="stroke-dashoffset" from="37.98616388883945" to="0" dur="1.1395849166651835s" begin="anim0.end" fill="freeze" id="anim1" /></path><path d="M 13.8 -17.6 L 5.0 -17.6 " transform="translate(0.0 38.0)" stroke-dasharray="8.8" stroke-dashoffset="8.8"><animate attributeName="stroke-dashoffset" from="8.8" to="0" dur="0.264s" begin="anim1.end" fill="freeze" id="anim2" /></path><path d="M 18.4 -4.2 C 22.2 -5.0 25.7 -6.2 29.8 -7.7 " transform="translate(0.0 38.0)" stroke-dasharray="11.936044425266454" stroke-dashoffset="11.936044425266454"><animate attributeName="stroke-dashoffset" from="11.936044425266454" to="0" dur="0.3580813327579936s" begin="anim2.end" fill="freeze" id="anim3" /></path><path d="M 13.8 -24.4 L 5.0 -24.4 " transform="translate(0.0 38.0)" stroke-dasharray="8.8" stroke-dashoffset="8.8"><animate attributeName="stroke-dashoffset" from="8.8" to="0" dur="0.264s" begin="anim3.end" fill="freeze" id="anim4" /></path><path d="M 15.6 -31.4 L 2.6 -31.4 " transform="translate(0.0 38.0)" stroke-dasharray="13.0" stroke-dashoffset="13.0"><animate attributeName="stroke-dashoffset" from="13.0" to="0" dur="0.39s" begin="anim4.end" fill="freeze" id="anim5" /></path><path d="M 29.3 -16.9 L 21.6 -16.9 " transform="translate(0.0 38.0)" stroke-dasharray="7.699999999999999" stroke-dashoffset="7.699999999999999"><animate attributeName="stroke-dashoffset" from="7.699999999999999" to="0" dur="0.23099999999999998s" begin="anim5.end" fill="freeze" id="anim6" /></path><path d="M 21.4 -5.5 L 21.4 -37.0 " transform="translate(0.0 38.0)" stroke-dasharray="31.5" stroke-dashoffset="31.5"><animate attributeName="stroke-dashoffset" from="31.5" to="0" dur="0.945s" begin="anim6.end" fill="freeze" id="anim7" /></path><path d="M 30.1 2.5 L 30.1 -37.1 " transform="translate(0.0 38.0)" stroke-dasharray="39.6" stroke-dashoffset="39.6"><animate attributeName="stroke-dashoffset" from="39.6" to="0" dur="1.188s" begin="anim7.end" fill="freeze" id="anim8" /></path><path d="M 13.8 -38.3 L 5.0 -38.3 " transform="translate(0.0 38.0)" stroke-dasharray="8.8" stroke-dashoffset="8.8"><animate attributeName="stroke-dashoffset" from="8.8" to="0" dur="0.264s" begin="anim8.end" fill="freeze" id="anim9" /></path><path d="M 29.3 -27.1 L 21.6 -27.1 " transform="translate(0.0 38.0)" stroke-dasharray="7.699999999999999" stroke-dashoffset="7.699999999999999"><animate attributeName="stroke-dashoffset" from="7.699999999999999" to="0" dur="0.23099999999999998s" begin="anim9.end" fill="freeze" id="anim10" /></path><path d="M 46.6 -0.3 C 40.6 -7.7 36.9 -17.4 36.1 -29.1 " transform="translate(0.0 38.0)" stroke-dasharray="31.146027222570584" stroke-dashoffset="31.146027222570584"><animate attributeName="stroke-dashoffset" from="31.146027222570584" to="0" dur="0.9343808166771175s" begin="anim10.end" fill="freeze" id="anim11" /></path><path d="M 47.0 -37.2 L 18.1 -37.2" transform="translate(0.0 38.0)" stroke-dasharray="28.9" stroke-dashoffset="28.9"><animate attributeName="stroke-dashoffset" from="28.9" to="0" dur="0.8669999999999999s" begin="anim11.end" fill="freeze" id="anim_end" /></path></g></svg>