<?xml version='1.0' encoding='utf-8'?>
<svg viewBox="0.0 -6.0 50.0 50.0" version="1.1" xmlns="http://www.w3.org/2000/svg"><rect x="-1000" y="-1000" width="2000" height="2000" stroke="white" fill="white" /><g style="fill:none;stroke:#000000;stroke-width:1"><path d="M 35.8 1.6 C 36.8 1.9 37.8 1.9 38.6 1.9 C 40.9 1.9 42.1 1.1 42.1 -1.6 L 42.1 -27.4 " transform="translate(0.0 38.0)" stroke-dasharray="34.39150665749256" stroke-dashoffset="34.39150665749256"><animate attributeName="stroke-dashoffset" from="34.39150665749256" to="0" dur="1.0317451997247769s" begin="0s" fill="freeze" /></path><path d="M 4.7 -2.8 C 8.5 -6.5 11.6 -11.2 13.8 -16.2 " transform="translate(0.0 38.0)" stroke-dasharray="16.295956133072746" stroke-dashoffset="16.295956133072746"><animate attributeName="stroke-dashoffset" from="16.295956133072746" to="0" dur="0.4888786839921824s" begin="1.0317451997247769s" fill="freeze" /></path><path d="M 14.7 2.9 L 14.7 -25.4 " transform="translate(0.0 38.0)" stroke-dasharray="28.299999999999997" stroke-dashoffset="28.299999999999997"><animate attributeName="stroke-dashoffset" from="28.299999999999997" to="0" dur="0.8489999999999999s" begin="1.5206238837169592s" fill="freeze" /></path><path d="M 22.6 -7.2 C 20.4 -8.9 18.0 -10.3 15.4 -11.5 " transform="translate(0.0 38.0)" stroke-dasharray="8.404270852667894" stroke-dashoffset="8.404270852667894"><animate attributeName="stroke-dashoffset" from="8.404270852667894" to="0" dur="0.25212812558003683s" begin="2.369623883716959s" fill="freeze" /></path><path d="M 23.6 -17.3 L 5.0 -17.3 " transform="translate(0.0 38.0)" stroke-dasharray="18.6" stroke-dashoffset="18.6"><animate attributeName="stroke-dashoffset" from="18.6" to="0" dur="0.558s" begin="2.621752009296996s" fill="freeze" /></path><path d="M 6.9 -23.9 C 11.3 -24.3 17.1 -25.7 21.2 -27.2 " transform="translate(0.0 38.0)" stroke-dasharray="14.71055741987791" stroke-dashoffset="14.71055741987791"><animate attributeName="stroke-dashoffset" from="14.71055741987791" to="0" dur="0.4413167225963373s" begin="3.1797520092969958s" fill="freeze" /></path><path d="M 31.4 -6.7 L 31.4 -24.8 " transform="translate(0.0 38.0)" stroke-dasharray="18.1" stroke-dashoffset="18.1"><animate attributeName="stroke-dashoffset" from="18.1" to="0" dur="0.543s" begin="3.6210687318933332s" fill="freeze" /></path><path d="M 17.7 -30.9 L 17.7 -40.2 " transform="translate(0.0 38.0)" stroke-dasharray="9.300000000000004" stroke-dashoffset="9.300000000000004"><animate attributeName="stroke-dashoffset" from="9.300000000000004" to="0" dur="0.27900000000000014s" begin="4.164068731893333s" fill="freeze" /></path><path d="M 45.8 -35.4 L 4.2 -35.4 " transform="translate(0.0 38.0)" stroke-dasharray="41.599999999999994" stroke-dashoffset="41.599999999999994"><animate attributeName="stroke-dashoffset" from="41.599999999999994" to="0" dur="1.2479999999999998s" begin="4.443068731893333s" fill="freeze" /></path><path d="M 31.8 -31.1 L 31.8 -40.2" transform="translate(0.0 38.0)" stroke-dasharray="9.100000000000001" stroke-dashoffset="9.100000000000001"><animate attributeName="stroke-dashoffset" from="9.100000000000001" to="0" dur="0.273s" begin="5.691068731893333s" fill="freeze" /></path></g></svg>