<?xml version='1.0' encoding='utf-8'?>
<svg viewBox="0.0 -6.0 50.0 50.0" version="1.1" xmlns="http://www.w3.org/2000/svg"><rect x="-1000" y="-1000" width="2000" height="2000" stroke="white" fill="white" /><g style="fill:none;stroke:#000000;stroke-width:1"><path d="M 15.2 1.4 C 18.9 -3.6 20.8 -9.8 20.8 -18.1 L 20.8 -21.1 C 20.8 -23.3 21.6 -24.3 24.5 -24.3 L 41.9 -24.3 C 44.0 -24.3 44.8 -22.9 43.8 -21.3 C 43.3 -20.4 42.6 -19.4 41.9 -18.6 " transform="translate(0.0 38.0)" stroke-dasharray="54.70665914670943" stroke-dashoffset="54.70665914670943"><animate attributeName="stroke-dashoffset" from="54.70665914670943" to="0" dur="1.6411997744012827s" begin="0s" fill="freeze" /></path><path d="M 6.2 1.2 C 8.7 -2.0 10.8 -5.9 12.6 -9.9 " transform="translate(0.0 38.0)" stroke-dasharray="12.843104418990139" stroke-dashoffset="12.843104418990139"><animate attributeName="stroke-dashoffset" from="12.843104418990139" to="0" dur="0.38529313256970416s" begin="1.6411997744012827s" fill="freeze" /></path><path d="M 9.1 -16.9 C 7.8 -18.1 6.1 -19.5 4.6 -20.4 " transform="translate(0.0 38.0)" stroke-dasharray="5.709817764266126" stroke-dashoffset="5.709817764266126"><animate attributeName="stroke-dashoffset" from="5.709817764266126" to="0" dur="0.17129453292798377s" begin="2.026492906970987s" fill="freeze" /></path><path d="M 21.9 2.0 C 29.6 -0.6 36.5 -5.0 39.9 -11.3 C 41.0 -13.6 40.4 -15.0 37.7 -15.0 L 20.8 -15.0 " transform="translate(0.0 38.0)" stroke-dasharray="45.47287862489384" stroke-dashoffset="45.47287862489384"><animate attributeName="stroke-dashoffset" from="45.47287862489384" to="0" dur="1.364186358746815s" begin="2.1977874398989705s" fill="freeze" /></path><path d="M 12.7 -25.5 C 11.3 -26.8 9.7 -28.1 8.3 -29.0 " transform="translate(0.0 38.0)" stroke-dasharray="5.629004567553032" stroke-dashoffset="5.629004567553032"><animate attributeName="stroke-dashoffset" from="5.629004567553032" to="0" dur="0.16887013702659096s" begin="3.5619737986457856s" fill="freeze" /></path><path d="M 45.5 1.6 C 37.0 -0.8 29.9 -6.5 26.3 -14.9 " transform="translate(0.0 38.0)" stroke-dasharray="26.1911613555197" stroke-dashoffset="26.1911613555197"><animate attributeName="stroke-dashoffset" from="26.1911613555197" to="0" dur="0.785734840665591s" begin="3.7308439356723766s" fill="freeze" /></path><path d="M 17.8 -32.2 L 17.8 -40.5 " transform="translate(0.0 38.0)" stroke-dasharray="8.299999999999997" stroke-dashoffset="8.299999999999997"><animate attributeName="stroke-dashoffset" from="8.299999999999997" to="0" dur="0.24899999999999992s" begin="4.516578776337967s" fill="freeze" /></path><path d="M 32.1 -15.9 L 32.1 -29.1 " transform="translate(0.0 38.0)" stroke-dasharray="13.200000000000001" stroke-dashoffset="13.200000000000001"><animate attributeName="stroke-dashoffset" from="13.200000000000001" to="0" dur="0.396s" begin="4.765578776337967s" fill="freeze" /></path><path d="M 45.6 -36.1 L 4.3 -36.1 " transform="translate(0.0 38.0)" stroke-dasharray="41.300000000000004" stroke-dashoffset="41.300000000000004"><animate attributeName="stroke-dashoffset" from="41.300000000000004" to="0" dur="1.239s" begin="5.161578776337967s" fill="freeze" /></path><path d="M 31.8 -32.6 L 31.8 -40.5" transform="translate(0.0 38.0)" stroke-dasharray="7.899999999999999" stroke-dashoffset="7.899999999999999"><animate attributeName="stroke-dashoffset" from="7.899999999999999" to="0" dur="0.23699999999999996s" begin="6.400578776337967s" fill="freeze" /></path></g></svg>