<?xml version='1.0' encoding='utf-8'?>
<svg viewBox="0.0 -6.0 50.0 50.0" version="1.1" xmlns="http://www.w3.org/2000/svg"><rect x="-1000" y="-1000" width="2000" height="2000" stroke="white" fill="white" /><g style="fill:none;stroke:#000000;stroke-width:1"><path d="M 39.0 1.1 C 39.8 1.3 40.6 1.4 41.5 1.4 C 43.2 1.4 44.5 0.7 44.5 -1.6 L 44.5 -26.2 C 44.5 -28.6 43.4 -29.8 40.5 -29.8 L 27.1 -29.8 C 24.4 -29.8 23.4 -28.6 23.4 -26.2 L 23.4 2.0 " transform="translate(0.0 38.0)" stroke-dasharray="85.80659362641687" stroke-dashoffset="85.80659362641687"><animate attributeName="stroke-dashoffset" from="85.80659362641687" to="0" dur="2.574197808792506s" begin="0s" fill="freeze" /></path><path d="M 16.1 -1.8 L 16.1 -7.7 C 16.1 -9.7 15.2 -10.6 12.9 -10.6 L 8.9 -10.6 C 6.6 -10.6 5.7 -9.7 5.7 -7.7 L 5.7 -1.8 C 5.7 0.2 6.6 1.1 8.9 1.1 L 12.9 1.1 C 15.2 1.1 16.1 0.2 16.1 -1.8 Z " transform="translate(0.0 38.0)" stroke-dasharray="39.83482130018839" stroke-dashoffset="39.83482130018839"><animate attributeName="stroke-dashoffset" from="39.83482130018839" to="0" dur="1.1950446390056515s" begin="2.574197808792506s" fill="freeze" /></path><path d="M 15.8 -17.4 L 5.8 -17.4 " transform="translate(0.0 38.0)" stroke-dasharray="10.0" stroke-dashoffset="10.0"><animate attributeName="stroke-dashoffset" from="10.0" to="0" dur="0.3s" begin="3.769242447798158s" fill="freeze" /></path><path d="M 15.8 -24.2 L 5.8 -24.2 " transform="translate(0.0 38.0)" stroke-dasharray="10.0" stroke-dashoffset="10.0"><animate attributeName="stroke-dashoffset" from="10.0" to="0" dur="0.3s" begin="4.069242447798158s" fill="freeze" /></path><path d="M 18.4 -31.2 L 3.0 -31.2 " transform="translate(0.0 38.0)" stroke-dasharray="15.399999999999999" stroke-dashoffset="15.399999999999999"><animate attributeName="stroke-dashoffset" from="15.399999999999999" to="0" dur="0.46199999999999997s" begin="4.3692424477981575s" fill="freeze" /></path><path d="M 27.2 -10.9 C 30.4 -15.2 32.5 -21.7 33.1 -29.0 " transform="translate(0.0 38.0)" stroke-dasharray="19.270039556505747" stroke-dashoffset="19.270039556505747"><animate attributeName="stroke-dashoffset" from="19.270039556505747" to="0" dur="0.5781011866951724s" begin="4.831242447798157s" fill="freeze" /></path><path d="M 15.8 -38.0 L 5.8 -38.0 " transform="translate(0.0 38.0)" stroke-dasharray="10.0" stroke-dashoffset="10.0"><animate attributeName="stroke-dashoffset" from="10.0" to="0" dur="0.3s" begin="5.40934363449333s" fill="freeze" /></path><path d="M 40.5 -12.6 C 36.0 -19.6 33.7 -27.4 33.1 -36.4 C 33.0 -38.1 32.3 -39.0 30.1 -39.0 L 26.2 -38.8" transform="translate(0.0 38.0)" stroke-dasharray="33.6605316674532" stroke-dashoffset="33.6605316674532"><animate attributeName="stroke-dashoffset" from="33.6605316674532" to="0" dur="1.009815950023596s" begin="5.7093436344933295s" fill="freeze" /></path></g></svg>