<?xml version='1.0' encoding='utf-8'?>
<svg viewBox="0.0 -6.0 50.0 50.0" version="1.1" xmlns="http://www.w3.org/2000/svg"><rect x="-1000" y="-1000" width="2000" height="2000" stroke="white" fill="white" /><g style="fill:none;stroke:#000000;stroke-width:1"><path d="M 23.9 -19.6 C 31.7 -23.9 38.9 -31.2 43.1 -39.2 " transform="translate(0.0 38.0)" stroke-dasharray="27.805797480015315" stroke-dashoffset="27.805797480015315"><animate attributeName="stroke-dashoffset" from="27.805797480015315" to="0" dur="0.8341739244004595s" begin="0s; 15s; 30s; 45s" fill="freeze" id="anim0" /></path><path d="M 3.5 1.4 C 4.7 -0.9 5.5 -3.6 5.9 -6.0 " transform="translate(0.0 38.0)" stroke-dasharray="7.81020450304925" stroke-dashoffset="7.81020450304925"><animate attributeName="stroke-dashoffset" from="7.81020450304925" to="0" dur="0.2343061350914775s" begin="anim0.end" fill="freeze" id="anim1" /></path><path d="M 10.9 -0.1 C 10.9 -2.0 10.6 -4.3 10.2 -5.8 " transform="translate(0.0 38.0)" stroke-dasharray="5.7564107067013754" stroke-dashoffset="5.7564107067013754"><animate attributeName="stroke-dashoffset" from="5.7564107067013754" to="0" dur="0.17269232120104125s" begin="anim1.end" fill="freeze" id="anim2" /></path><path d="M 16.4 -1.0 C 16.0 -2.9 15.3 -4.9 14.7 -6.3 " transform="translate(0.0 38.0)" stroke-dasharray="5.574194974868199" stroke-dashoffset="5.574194974868199"><animate attributeName="stroke-dashoffset" from="5.574194974868199" to="0" dur="0.16722584924604597s" begin="anim2.end" fill="freeze" id="anim3" /></path><path d="M 21.4 -2.4 C 20.9 -4.0 19.9 -6.0 19.2 -7.2 " transform="translate(0.0 38.0)" stroke-dasharray="5.2894283633195345" stroke-dashoffset="5.2894283633195345"><animate attributeName="stroke-dashoffset" from="5.2894283633195345" to="0" dur="0.15868285089958603s" begin="anim3.end" fill="freeze" id="anim4" /></path><path d="M 19.6 -14.1 L 19.6 -24.6 C 19.6 -26.6 18.8 -27.6 16.4 -27.6 L 9.1 -27.6 C 6.8 -27.6 5.9 -26.6 5.9 -24.6 L 5.9 -14.1 C 5.9 -12.1 6.8 -11.1 9.1 -11.1 L 16.4 -11.1 C 18.8 -11.1 19.6 -12.1 19.6 -14.1 Z " transform="translate(0.0 38.0)" stroke-dasharray="55.938350459780935" stroke-dashoffset="55.938350459780935"><animate attributeName="stroke-dashoffset" from="55.938350459780935" to="0" dur="1.678150513793428s" begin="anim4.end" fill="freeze" id="anim5" /></path><path d="M 12.7 -11.4 L 12.7 -27.6 " transform="translate(0.0 38.0)" stroke-dasharray="16.200000000000003" stroke-dashoffset="16.200000000000003"><animate attributeName="stroke-dashoffset" from="16.200000000000003" to="0" dur="0.48600000000000004s" begin="anim5.end" fill="freeze" id="anim6" /></path><path d="M 19.5 -19.6 L 6.2 -19.6 " transform="translate(0.0 38.0)" stroke-dasharray="13.3" stroke-dashoffset="13.3"><animate attributeName="stroke-dashoffset" from="13.3" to="0" dur="0.399s" begin="anim6.end" fill="freeze" id="anim7" /></path><path d="M 43.0 -4.8 L 28.3 -4.8 " transform="translate(0.0 38.0)" stroke-dasharray="14.7" stroke-dashoffset="14.7"><animate attributeName="stroke-dashoffset" from="14.7" to="0" dur="0.44099999999999995s" begin="anim7.end" fill="freeze" id="anim8" /></path><path d="M 31.5 1.4 L 39.6 1.4 C 42.3 1.4 43.1 0.6 43.1 -1.4 L 43.1 -7.8 C 43.1 -9.7 42.3 -10.6 39.6 -10.6 L 31.5 -10.6 C 28.9 -10.6 28.0 -9.7 28.0 -7.8 L 28.0 -1.4 C 28.0 0.6 28.9 1.4 31.5 1.4 Z " transform="translate(0.0 38.0)" stroke-dasharray="49.87132690007402" stroke-dashoffset="49.87132690007402"><animate attributeName="stroke-dashoffset" from="49.87132690007402" to="0" dur="1.4961398070022205s" begin="anim8.end" fill="freeze" id="anim9" /></path><path d="M 3.0 -28.7 C 5.5 -31.6 7.8 -35.8 9.4 -39.9 " transform="translate(0.0 38.0)" stroke-dasharray="12.95629966558878" stroke-dashoffset="12.95629966558878"><animate attributeName="stroke-dashoffset" from="12.95629966558878" to="0" dur="0.3886889899676634s" begin="anim9.end" fill="freeze" id="anim10" /></path><path d="M 12.4 -28.3 C 13.3 -30.0 14.1 -31.6 14.4 -32.7 C 15.0 -34.2 14.2 -35.2 12.2 -35.2 L 7.4 -35.2 " transform="translate(0.0 38.0)" stroke-dasharray="13.807628255337708" stroke-dashoffset="13.807628255337708"><animate attributeName="stroke-dashoffset" from="13.807628255337708" to="0" dur="0.41422884766013124s" begin="anim10.end" fill="freeze" id="anim11" /></path><path d="M 44.5 -19.7 C 44.2 -16.8 42.6 -15.8 36.2 -15.8 C 30.9 -15.8 29.9 -16.2 29.9 -18.4 L 29.9 -24.7 " transform="translate(0.0 38.0)" stroke-dasharray="24.38708607114396" stroke-dashoffset="24.38708607114396"><animate attributeName="stroke-dashoffset" from="24.38708607114396" to="0" dur="0.7316125821343187s" begin="anim11.end" fill="freeze" id="anim12" /></path><path d="M 30.3 -20.7 C 34.5 -21.6 38.5 -22.8 41.8 -24.2 " transform="translate(0.0 38.0)" stroke-dasharray="12.038157949351522" stroke-dashoffset="12.038157949351522"><animate attributeName="stroke-dashoffset" from="12.038157949351522" to="0" dur="0.3611447384805456s" begin="anim12.end" fill="freeze" id="anim13" /></path><path d="M 46.4 -29.6 L 23.0 -29.6 " transform="translate(0.0 38.0)" stroke-dasharray="23.4" stroke-dashoffset="23.4"><animate attributeName="stroke-dashoffset" from="23.4" to="0" dur="0.702s" begin="anim13.end" fill="freeze" id="anim14" /></path><path d="M 36.6 -35.9 L 25.4 -35.9 " transform="translate(0.0 38.0)" stroke-dasharray="11.200000000000003" stroke-dashoffset="11.200000000000003"><animate attributeName="stroke-dashoffset" from="11.200000000000003" to="0" dur="0.3360000000000001s" begin="anim14.end" fill="freeze" id="anim15" /></path><path d="M 31.6 -29.8 L 31.6 -40.4" transform="translate(0.0 38.0)" stroke-dasharray="10.599999999999998" stroke-dashoffset="10.599999999999998"><animate attributeName="stroke-dashoffset" from="10.599999999999998" to="0" dur="0.31799999999999995s" begin="anim15.end" fill="freeze" id="anim_end" /></path></g></svg>