<?xml version='1.0' encoding='utf-8'?>
<svg viewBox="0.0 -6.0 50.0 50.0" version="1.1" xmlns="http://www.w3.org/2000/svg"><rect x="-1000" y="-1000" width="2000" height="2000" stroke="white" fill="white" /><g style="fill:none;stroke:#000000;stroke-width:1"><path d="M 29.6 -0.1 L 40.9 -0.1 C 44.0 -0.1 45.0 -1.2 45.0 -4.1 L 45.0 -33.6 C 45.0 -36.5 44.0 -37.6 41.1 -37.6 L 29.2 -37.6 C 26.4 -37.6 25.4 -36.5 25.4 -33.6 L 25.4 -4.1 C 25.4 -1.2 26.4 -0.1 29.6 -0.1 Z " transform="translate(0.0 38.0)" stroke-dasharray="108.7296765606861" stroke-dashoffset="108.7296765606861"><animate attributeName="stroke-dashoffset" from="108.7296765606861" to="0" dur="3.261890296820583s" begin="0s; anim_end.end" fill="freeze" id="anim0" /></path><path d="M 2.9 -2.0 C 3.5 -4.0 4.0 -6.5 4.3 -8.8 " transform="translate(0.0 38.0)" stroke-dasharray="6.949570711627382" stroke-dashoffset="6.949570711627382"><animate attributeName="stroke-dashoffset" from="6.949570711627382" to="0" dur="0.20848712134882147s" begin="anim0.end" fill="freeze" id="anim1" /></path><path d="M 8.5 -4.0 C 8.4 -5.8 8.1 -8.1 7.7 -9.3 " transform="translate(0.0 38.0)" stroke-dasharray="5.3716434458715705" stroke-dashoffset="5.3716434458715705"><animate attributeName="stroke-dashoffset" from="5.3716434458715705" to="0" dur="0.1611493033761471s" begin="anim1.end" fill="freeze" id="anim2" /></path><path d="M 12.7 -6.2 C 12.3 -7.7 11.7 -9.2 11.2 -10.2 " transform="translate(0.0 38.0)" stroke-dasharray="4.278587199873111" stroke-dashoffset="4.278587199873111"><animate attributeName="stroke-dashoffset" from="4.278587199873111" to="0" dur="0.12835761599619333s" begin="anim2.end" fill="freeze" id="anim3" /></path><path d="M 16.2 -8.2 C 15.8 -9.3 15.1 -10.7 14.4 -11.6 " transform="translate(0.0 38.0)" stroke-dasharray="3.8602769835706576" stroke-dashoffset="3.8602769835706576"><animate attributeName="stroke-dashoffset" from="3.8602769835706576" to="0" dur="0.11580830950711972s" begin="anim3.end" fill="freeze" id="anim4" /></path><path d="M 12.2 0.8 C 12.8 0.9 13.6 0.9 14.6 0.9 C 16.6 0.9 18.0 0.1 18.8 -2.5 C 19.6 -5.3 20.0 -9.1 20.1 -12.2 C 20.1 -14.0 19.4 -15.1 16.9 -15.1 L 8.3 -15.1 C 6.2 -15.1 5.3 -15.8 5.3 -17.9 L 5.3 -35.1 C 5.3 -37.4 6.2 -38.3 8.7 -38.3 L 19.8 -38.3 " transform="translate(0.0 38.0)" stroke-dasharray="70.26177230009118" stroke-dashoffset="70.26177230009118"><animate attributeName="stroke-dashoffset" from="70.26177230009118" to="0" dur="2.1078531690027353s" begin="anim4.end" fill="freeze" id="anim5" /></path><path d="M 18.8 -23.3 L 6.1 -23.3 " transform="translate(0.0 38.0)" stroke-dasharray="12.700000000000001" stroke-dashoffset="12.700000000000001"><animate attributeName="stroke-dashoffset" from="12.700000000000001" to="0" dur="0.381s" begin="anim5.end" fill="freeze" id="anim6" /></path><path d="M 12.7 -15.1 L 12.7 -37.9 " transform="translate(0.0 38.0)" stroke-dasharray="22.799999999999997" stroke-dashoffset="22.799999999999997"><animate attributeName="stroke-dashoffset" from="22.799999999999997" to="0" dur="0.6839999999999999s" begin="anim6.end" fill="freeze" id="anim7" /></path><path d="M 18.8 -30.7 L 6.1 -30.7 " transform="translate(0.0 38.0)" stroke-dasharray="12.700000000000001" stroke-dashoffset="12.700000000000001"><animate attributeName="stroke-dashoffset" from="12.700000000000001" to="0" dur="0.381s" begin="anim7.end" fill="freeze" id="anim8" /></path><path d="M 29.3 -11.9 C 31.1 -15.7 31.8 -20.6 31.8 -27.7 L 31.8 -37.4 " transform="translate(0.0 38.0)" stroke-dasharray="25.823748203192984" stroke-dashoffset="25.823748203192984"><animate attributeName="stroke-dashoffset" from="25.823748203192984" to="0" dur="0.7747124460957895s" begin="anim8.end" fill="freeze" id="anim9" /></path><path d="M 42.5 -18.9 C 42.4 -15.8 41.6 -14.9 40.0 -14.9 C 38.5 -14.9 37.9 -15.3 37.9 -17.0 L 37.9 -37.4" transform="translate(0.0 38.0)" stroke-dasharray="29.27279760877589" stroke-dashoffset="29.27279760877589"><animate attributeName="stroke-dashoffset" from="29.27279760877589" to="0" dur="0.8781839282632766s" begin="anim9.end" fill="freeze" id="anim_end" /></path></g></svg>