<?xml version='1.0' encoding='utf-8'?>
<svg viewBox="0.0 -6.0 50.0 50.0" version="1.1" xmlns="http://www.w3.org/2000/svg"><rect x="-1000" y="-1000" width="2000" height="2000" stroke="white" fill="white" /><g style="fill:none;stroke:#000000;stroke-width:1"><path d="M 23.3 2.0 C 30.1 0.6 37.0 -3.0 40.8 -7.5 C 42.4 -9.4 41.5 -10.9 39.0 -10.9 L 30.3 -10.9 " transform="translate(0.0 38.0)" stroke-dasharray="34.34981575556609" stroke-dashoffset="34.34981575556609"><animate attributeName="stroke-dashoffset" from="34.34981575556609" to="0" dur="1.0304944726669827s" begin="0s; anim_end.end" fill="freeze" id="anim0" /></path><path d="M 18.4 -6.7 L 7.2 -6.7 " transform="translate(0.0 38.0)" stroke-dasharray="11.2" stroke-dashoffset="11.2"><animate attributeName="stroke-dashoffset" from="11.2" to="0" dur="0.33599999999999997s" begin="anim0.end" fill="freeze" id="anim1" /></path><path d="M 10.4 1.4 L 15.8 1.4 C 18.3 1.4 19.4 0.3 19.4 -1.8 L 19.4 -11.2 C 19.4 -13.3 18.3 -14.3 15.8 -14.3 L 10.4 -14.3 C 8.0 -14.3 6.8 -13.3 6.8 -11.2 L 6.8 -1.8 C 6.8 0.3 8.0 1.4 10.4 1.4 Z " transform="translate(0.0 38.0)" stroke-dasharray="51.578386738319345" stroke-dashoffset="51.578386738319345"><animate attributeName="stroke-dashoffset" from="51.578386738319345" to="0" dur="1.5473516021495803s" begin="anim1.end" fill="freeze" id="anim2" /></path><path d="M 3.2 -19.1 C 6.2 -21.4 9.1 -24.6 11.3 -28.1 " transform="translate(0.0 38.0)" stroke-dasharray="12.169376531837692" stroke-dashoffset="12.169376531837692"><animate attributeName="stroke-dashoffset" from="12.169376531837692" to="0" dur="0.3650812959551307s" begin="anim2.end" fill="freeze" id="anim3" /></path><path d="M 24.5 -6.1 C 27.4 -8.0 30.9 -11.4 32.6 -14.2 " transform="translate(0.0 38.0)" stroke-dasharray="11.53151984595235" stroke-dashoffset="11.53151984595235"><animate attributeName="stroke-dashoffset" from="11.53151984595235" to="0" dur="0.34594559537857045s" begin="anim3.end" fill="freeze" id="anim4" /></path><path d="M 13.2 -18.9 L 13.2 -37.5 " transform="translate(0.0 38.0)" stroke-dasharray="18.6" stroke-dashoffset="18.6"><animate attributeName="stroke-dashoffset" from="18.6" to="0" dur="0.558s" begin="anim4.end" fill="freeze" id="anim5" /></path><path d="M 21.2 -20.9 C 19.4 -22.6 16.6 -24.3 14.2 -25.4 " transform="translate(0.0 38.0)" stroke-dasharray="8.354029124535298" stroke-dashoffset="8.354029124535298"><animate attributeName="stroke-dashoffset" from="8.354029124535298" to="0" dur="0.25062087373605896s" begin="anim5.end" fill="freeze" id="anim6" /></path><path d="M 20.6 -29.9 L 3.9 -29.9 " transform="translate(0.0 38.0)" stroke-dasharray="16.700000000000003" stroke-dashoffset="16.700000000000003"><animate attributeName="stroke-dashoffset" from="16.700000000000003" to="0" dur="0.5010000000000001s" begin="anim6.end" fill="freeze" id="anim7" /></path><path d="M 46.5 1.2 C 39.6 -0.3 33.2 -4.2 29.4 -9.8 " transform="translate(0.0 38.0)" stroke-dasharray="20.817730742009175" stroke-dashoffset="20.817730742009175"><animate attributeName="stroke-dashoffset" from="20.817730742009175" to="0" dur="0.6245319222602752s" begin="anim7.end" fill="freeze" id="anim8" /></path><path d="M 5.8 -36.5 C 10.2 -36.9 15.6 -38.0 19.6 -39.5 " transform="translate(0.0 38.0)" stroke-dasharray="14.159381084948237" stroke-dashoffset="14.159381084948237"><animate attributeName="stroke-dashoffset" from="14.159381084948237" to="0" dur="0.4247814325484471s" begin="anim8.end" fill="freeze" id="anim9" /></path><path d="M 39.1 -29.1 L 32.1 -29.1 C 29.4 -29.1 28.4 -28.2 28.4 -26.1 L 28.4 -20.4 C 28.4 -18.3 29.4 -17.5 32.1 -17.5 L 39.1 -17.5 C 41.8 -17.5 42.8 -18.3 42.8 -20.4 L 42.8 -26.1 C 42.8 -28.2 41.8 -29.1 39.1 -29.1 Z " transform="translate(0.0 38.0)" stroke-dasharray="47.38985527456134" stroke-dashoffset="47.38985527456134"><animate attributeName="stroke-dashoffset" from="47.38985527456134" to="0" dur="1.4216956582368403s" begin="anim9.end" fill="freeze" id="anim10" /></path><path d="M 42.7 -23.4 L 29.0 -23.4 " transform="translate(0.0 38.0)" stroke-dasharray="13.700000000000003" stroke-dashoffset="13.700000000000003"><animate attributeName="stroke-dashoffset" from="13.700000000000003" to="0" dur="0.4110000000000001s" begin="anim10.end" fill="freeze" id="anim11" /></path><path d="M 24.6 -29.7 C 26.9 -32.4 29.1 -36.4 30.6 -40.1 " transform="translate(0.0 38.0)" stroke-dasharray="12.052686039134041" stroke-dashoffset="12.052686039134041"><animate attributeName="stroke-dashoffset" from="12.052686039134041" to="0" dur="0.36158058117402125s" begin="anim11.end" fill="freeze" id="anim12" /></path><path d="M 45.8 -35.1 L 28.1 -35.1" transform="translate(0.0 38.0)" stroke-dasharray="17.699999999999996" stroke-dashoffset="17.699999999999996"><animate attributeName="stroke-dashoffset" from="17.699999999999996" to="0" dur="0.5309999999999998s" begin="anim12.end" fill="freeze" id="anim_end" /></path></g></svg>