<?xml version='1.0' encoding='utf-8'?>
<svg viewBox="0.0 -6.0 50.0 50.0" version="1.1" xmlns="http://www.w3.org/2000/svg"><rect x="-1000" y="-1000" width="2000" height="2000" stroke="white" fill="white" /><g style="fill:none;stroke:#000000;stroke-width:1"><path d="M 23.1 1.8 C 29.9 0.5 38.0 -3.2 41.5 -7.2 C 43.1 -9.1 42.2 -10.5 39.9 -10.5 L 24.9 -10.5 " transform="translate(0.0 38.0)" stroke-dasharray="40.94639535293513" stroke-dashoffset="40.94639535293513"><animate attributeName="stroke-dashoffset" from="40.94639535293513" to="0" dur="1.2283918605880537s" begin="0s" fill="freeze" /></path><path d="M 3.4 1.2 C 4.5 -1.0 5.2 -3.7 5.7 -6.0 " transform="translate(0.0 38.0)" stroke-dasharray="7.577422100529834" stroke-dashoffset="7.577422100529834"><animate attributeName="stroke-dashoffset" from="7.577422100529834" to="0" dur="0.227322663015895s" begin="1.2283918605880537s" fill="freeze" /></path><path d="M 10.4 -0.2 C 10.4 -2.2 10.2 -4.5 9.8 -6.0 " transform="translate(0.0 38.0)" stroke-dasharray="5.8447326282962475" stroke-dashoffset="5.8447326282962475"><animate attributeName="stroke-dashoffset" from="5.8447326282962475" to="0" dur="0.17534197884888741s" begin="1.4557145236039486s" fill="freeze" /></path><path d="M 15.7 -1.3 C 15.3 -3.1 14.7 -5.2 14.1 -6.6 " transform="translate(0.0 38.0)" stroke-dasharray="5.543009873630237" stroke-dashoffset="5.543009873630237"><animate attributeName="stroke-dashoffset" from="5.543009873630237" to="0" dur="0.16629029620890712s" begin="1.631056502452836s" fill="freeze" /></path><path d="M 20.4 -2.8 C 19.9 -4.3 19.0 -6.2 18.4 -7.3 " transform="translate(0.0 38.0)" stroke-dasharray="4.929702030672284" stroke-dashoffset="4.929702030672284"><animate attributeName="stroke-dashoffset" from="4.929702030672284" to="0" dur="0.14789106092016852s" begin="1.797346798661743s" fill="freeze" /></path><path d="M 8.8 -11.2 L 15.7 -11.2 C 17.9 -11.2 18.8 -12.2 18.8 -14.2 L 18.8 -24.9 C 18.8 -26.8 17.9 -27.8 15.7 -27.8 L 8.8 -27.8 C 6.5 -27.8 5.8 -26.8 5.8 -24.9 L 5.8 -14.2 C 5.8 -12.2 6.5 -11.2 8.8 -11.2 Z " transform="translate(0.0 38.0)" stroke-dasharray="54.87505160334739" stroke-dashoffset="54.87505160334739"><animate attributeName="stroke-dashoffset" from="54.87505160334739" to="0" dur="1.6462515481004216s" begin="1.9452378595819115s" fill="freeze" /></path><path d="M 12.2 -11.9 L 12.2 -26.9 " transform="translate(0.0 38.0)" stroke-dasharray="14.999999999999998" stroke-dashoffset="14.999999999999998"><animate attributeName="stroke-dashoffset" from="14.999999999999998" to="0" dur="0.44999999999999996s" begin="3.5914894076823334s" fill="freeze" /></path><path d="M 6.2 -19.8 L 18.0 -19.8 " transform="translate(0.0 38.0)" stroke-dasharray="11.8" stroke-dashoffset="11.8"><animate attributeName="stroke-dashoffset" from="11.8" to="0" dur="0.354s" begin="4.041489407682334s" fill="freeze" /></path><path d="M 2.9 -28.9 C 5.3 -31.8 7.5 -35.8 9.1 -39.9 " transform="translate(0.0 38.0)" stroke-dasharray="12.677100282165814" stroke-dashoffset="12.677100282165814"><animate attributeName="stroke-dashoffset" from="12.677100282165814" to="0" dur="0.3803130084649744s" begin="4.395489407682334s" fill="freeze" /></path><path d="M 46.2 1.1 C 38.7 -0.2 31.9 -4.5 28.9 -10.4 " transform="translate(0.0 38.0)" stroke-dasharray="21.500390304477545" stroke-dashoffset="21.500390304477545"><animate attributeName="stroke-dashoffset" from="21.500390304477545" to="0" dur="0.6450117091343264s" begin="4.775802416147308s" fill="freeze" /></path><path d="M 12.0 -28.4 C 12.9 -30.1 13.7 -31.8 14.0 -32.8 C 14.5 -34.3 13.8 -35.4 11.8 -35.4 L 7.2 -35.4 " transform="translate(0.0 38.0)" stroke-dasharray="13.630097843135058" stroke-dashoffset="13.630097843135058"><animate attributeName="stroke-dashoffset" from="13.630097843135058" to="0" dur="0.4089029352940517s" begin="5.420814125281635s" fill="freeze" /></path><path d="M 31.4 -16.5 L 31.4 -23.6 " transform="translate(0.0 38.0)" stroke-dasharray="7.100000000000001" stroke-dashoffset="7.100000000000001"><animate attributeName="stroke-dashoffset" from="7.100000000000001" to="0" dur="0.21300000000000002s" begin="5.829717060575686s" fill="freeze" /></path><path d="M 28.1 -15.8 L 41.9 -15.8 C 44.4 -15.8 45.2 -16.6 45.2 -18.5 L 45.2 -20.7 C 45.2 -22.6 44.4 -23.4 41.9 -23.4 L 28.1 -23.4 C 25.5 -23.4 24.6 -22.6 24.6 -20.7 L 24.6 -18.5 C 24.6 -16.6 25.4 -15.8 28.1 -15.8 Z " transform="translate(0.0 38.0)" stroke-dasharray="52.23388769010895" stroke-dashoffset="52.23388769010895"><animate attributeName="stroke-dashoffset" from="52.23388769010895" to="0" dur="1.5670166307032685s" begin="6.042717060575686s" fill="freeze" /></path><path d="M 38.0 -16.5 L 38.0 -23.6 " transform="translate(0.0 38.0)" stroke-dasharray="7.100000000000001" stroke-dashoffset="7.100000000000001"><animate attributeName="stroke-dashoffset" from="7.100000000000001" to="0" dur="0.21300000000000002s" begin="7.609733691278954s" fill="freeze" /></path><path d="M 29.9 -28.6 L 39.6 -28.6 C 42.1 -28.6 43.0 -29.5 43.0 -31.4 L 43.0 -36.3 C 43.0 -38.1 42.1 -39.1 39.6 -39.1 L 29.9 -39.1 C 27.4 -39.1 26.6 -38.1 26.6 -36.3 L 26.6 -31.4 C 26.6 -29.5 27.4 -28.6 29.9 -28.6 Z " transform="translate(0.0 38.0)" stroke-dasharray="49.42055413737682" stroke-dashoffset="49.42055413737682"><animate attributeName="stroke-dashoffset" from="49.42055413737682" to="0" dur="1.4826166241213046s" begin="7.8227336912789545s" fill="freeze" /></path><path d="M 27.1 -33.9 L 42.5 -33.9" transform="translate(0.0 38.0)" stroke-dasharray="15.399999999999999" stroke-dashoffset="15.399999999999999"><animate attributeName="stroke-dashoffset" from="15.399999999999999" to="0" dur="0.46199999999999997s" begin="9.30535031540026s" fill="freeze" /></path></g></svg>