<?xml version='1.0' encoding='utf-8'?>
<svg viewBox="0.0 -6.0 50.0 50.0" version="1.1" xmlns="http://www.w3.org/2000/svg"><rect x="-1000" y="-1000" width="2000" height="2000" stroke="white" fill="white" /><g style="fill:none;stroke:#000000;stroke-width:1"><path d="M 8.2 -14.2 L 17.0 -14.2 C 19.1 -14.2 19.9 -15.0 19.9 -16.8 L 19.9 -19.8 C 19.9 -21.5 19.1 -22.4 17.0 -22.4 L 8.2 -22.4 C 6.0 -22.4 5.2 -21.5 5.2 -19.8 L 5.2 -16.8 C 5.2 -15.0 6.0 -14.2 8.2 -14.2 Z " transform="translate(0.0 38.0)" stroke-dasharray="41.817707474485005" stroke-dashoffset="41.817707474485005"><animate attributeName="stroke-dashoffset" from="41.817707474485005" to="0" dur="1.25453122423455s" begin="0s" fill="freeze" /></path><path d="M 21.9 -7.0 L 3.0 -7.0 " transform="translate(0.0 38.0)" stroke-dasharray="18.9" stroke-dashoffset="18.9"><animate attributeName="stroke-dashoffset" from="18.9" to="0" dur="0.567s" begin="1.25453122423455s" fill="freeze" /></path><path d="M 12.4 2.8 L 12.4 -29.1 " transform="translate(0.0 38.0)" stroke-dasharray="31.900000000000002" stroke-dashoffset="31.900000000000002"><animate attributeName="stroke-dashoffset" from="31.900000000000002" to="0" dur="0.9570000000000001s" begin="1.82153122423455s" fill="freeze" /></path><path d="M 46.7 0.7 L 22.6 0.7 " transform="translate(0.0 38.0)" stroke-dasharray="24.1" stroke-dashoffset="24.1"><animate attributeName="stroke-dashoffset" from="24.1" to="0" dur="0.723s" begin="2.77853122423455s" fill="freeze" /></path><path d="M 34.9 0.4 L 34.9 -17.2 " transform="translate(0.0 38.0)" stroke-dasharray="17.599999999999998" stroke-dashoffset="17.599999999999998"><animate attributeName="stroke-dashoffset" from="17.599999999999998" to="0" dur="0.5279999999999999s" begin="3.50153122423455s" fill="freeze" /></path><path d="M 44.2 -10.1 L 26.7 -10.1 " transform="translate(0.0 38.0)" stroke-dasharray="17.500000000000004" stroke-dashoffset="17.500000000000004"><animate attributeName="stroke-dashoffset" from="17.500000000000004" to="0" dur="0.5250000000000001s" begin="4.02953122423455s" fill="freeze" /></path><path d="M 8.1 -40.1 L 8.1 -31.4 C 8.1 -29.4 8.8 -28.9 10.6 -28.9 L 14.3 -28.9 C 16.1 -28.9 16.9 -29.4 16.9 -31.4 L 16.9 -40.1 " transform="translate(0.0 38.0)" stroke-dasharray="29.51497662196612" stroke-dashoffset="29.51497662196612"><animate attributeName="stroke-dashoffset" from="29.51497662196612" to="0" dur="0.8854492986589836s" begin="4.55453122423455s" fill="freeze" /></path><path d="M 21.6 -35.1 L 3.4 -35.1 " transform="translate(0.0 38.0)" stroke-dasharray="18.200000000000003" stroke-dashoffset="18.200000000000003"><animate attributeName="stroke-dashoffset" from="18.200000000000003" to="0" dur="0.546s" begin="5.439980522893533s" fill="freeze" /></path><path d="M 46.2 -22.1 L 24.8 -22.1 " transform="translate(0.0 38.0)" stroke-dasharray="21.400000000000002" stroke-dashoffset="21.400000000000002"><animate attributeName="stroke-dashoffset" from="21.400000000000002" to="0" dur="0.642s" begin="5.985980522893533s" fill="freeze" /></path><path d="M 34.9 -22.1 L 34.9 -39.8 " transform="translate(0.0 38.0)" stroke-dasharray="17.699999999999996" stroke-dashoffset="17.699999999999996"><animate attributeName="stroke-dashoffset" from="17.699999999999996" to="0" dur="0.5309999999999998s" begin="6.627980522893534s" fill="freeze" /></path><path d="M 44.2 -31.8 L 26.7 -31.8" transform="translate(0.0 38.0)" stroke-dasharray="17.500000000000004" stroke-dashoffset="17.500000000000004"><animate attributeName="stroke-dashoffset" from="17.500000000000004" to="0" dur="0.5250000000000001s" begin="7.1589805228935335s" fill="freeze" /></path></g></svg>