<?xml version='1.0' encoding='utf-8'?>
<svg viewBox="0.0 -6.0 50.0 50.0" version="1.1" xmlns="http://www.w3.org/2000/svg"><rect x="-1000" y="-1000" width="2000" height="2000" stroke="white" fill="white" /><g style="fill:none;stroke:#000000;stroke-width:1"><path d="M 38.9 -4.9 C 39.7 -4.8 40.4 -4.8 41.0 -4.8 C 42.9 -4.8 43.8 -5.6 43.8 -7.5 L 43.8 -13.9 C 43.8 -15.8 43.0 -16.8 40.4 -16.8 L 20.8 -16.8 C 18.1 -16.8 17.2 -15.8 17.2 -13.9 L 17.2 -5.0 " transform="translate(0.0 38.0)" stroke-dasharray="52.03288889790328" stroke-dashoffset="52.03288889790328"><animate attributeName="stroke-dashoffset" from="52.03288889790328" to="0" dur="1.5609866669370982s" begin="0s; 15s; 30s; 45s" fill="freeze" id="anim0" /></path><path d="M 3.5 1.3 C 6.0 -0.5 8.2 -2.5 10.1 -5.0 " transform="translate(0.0 38.0)" stroke-dasharray="9.158816142563246" stroke-dashoffset="9.158816142563246"><animate attributeName="stroke-dashoffset" from="9.158816142563246" to="0" dur="0.27476448427689737s" begin="anim0.end" fill="freeze" id="anim1" /></path><path d="M 9.9 -4.5 L 9.9 -13.3 C 9.9 -15.2 9.2 -16.0 6.9 -16.0 L 3.6 -16.0 " transform="translate(0.0 38.0)" stroke-dasharray="16.82491505408139" stroke-dashoffset="16.82491505408139"><animate attributeName="stroke-dashoffset" from="16.82491505408139" to="0" dur="0.5047474516224417s" begin="anim1.end" fill="freeze" id="anim2" /></path><path d="M 46.6 0.4 C 42.5 0.8 38.1 0.9 32.4 0.9 C 18.2 0.9 13.2 -1.1 9.9 -5.7 " transform="translate(0.0 38.0)" stroke-dasharray="38.606912603320595" stroke-dashoffset="38.606912603320595"><animate attributeName="stroke-dashoffset" from="38.606912603320595" to="0" dur="1.1582073780996178s" begin="anim2.end" fill="freeze" id="anim3" /></path><path d="M 8.9 -25.4 C 7.5 -26.8 6.2 -27.8 4.8 -28.6 " transform="translate(0.0 38.0)" stroke-dasharray="5.216956418808192" stroke-dashoffset="5.216956418808192"><animate attributeName="stroke-dashoffset" from="5.216956418808192" to="0" dur="0.15650869256424577s" begin="anim3.end" fill="freeze" id="anim4" /></path><path d="M 22.6 -8.7 C 26.8 -9.0 31.8 -9.8 37.2 -11.0 " transform="translate(0.0 38.0)" stroke-dasharray="14.792795339719097" stroke-dashoffset="14.792795339719097"><animate attributeName="stroke-dashoffset" from="14.792795339719097" to="0" dur="0.4437838601915729s" begin="anim4.end" fill="freeze" id="anim5" /></path><path d="M 11.4 -35.5 C 10.1 -36.9 8.9 -37.9 7.3 -38.9 " transform="translate(0.0 38.0)" stroke-dasharray="5.34346060347636" stroke-dashoffset="5.34346060347636"><animate attributeName="stroke-dashoffset" from="5.34346060347636" to="0" dur="0.16030381810429079s" begin="anim5.end" fill="freeze" id="anim6" /></path><path d="M 39.0 -8.9 C 38.1 -10.6 37.0 -12.2 36.0 -13.5 " transform="translate(0.0 38.0)" stroke-dasharray="5.498174234769459" stroke-dashoffset="5.498174234769459"><animate attributeName="stroke-dashoffset" from="5.498174234769459" to="0" dur="0.16494522704308376s" begin="anim6.end" fill="freeze" id="anim7" /></path><path d="M 30.2 -10.4 L 30.2 -31.5 " transform="translate(0.0 38.0)" stroke-dasharray="21.1" stroke-dashoffset="21.1"><animate attributeName="stroke-dashoffset" from="21.1" to="0" dur="0.633s" begin="anim7.end" fill="freeze" id="anim8" /></path><path d="M 23.4 -21.6 L 37.5 -21.6 C 40.1 -21.6 40.9 -22.4 40.9 -24.1 L 40.9 -29.1 C 40.9 -30.7 40.1 -31.5 37.5 -31.5 L 23.4 -31.5 C 20.9 -31.5 20.1 -30.7 20.1 -29.1 L 20.1 -24.1 C 20.1 -22.4 20.9 -21.6 23.4 -21.6 Z " transform="translate(0.0 38.0)" stroke-dasharray="57.403253233937754" stroke-dashoffset="57.403253233937754"><animate attributeName="stroke-dashoffset" from="57.403253233937754" to="0" dur="1.7220975970181325s" begin="anim8.end" fill="freeze" id="anim9" /></path><path d="M 40.8 -26.6 L 20.8 -26.6 " transform="translate(0.0 38.0)" stroke-dasharray="19.999999999999996" stroke-dashoffset="19.999999999999996"><animate attributeName="stroke-dashoffset" from="19.999999999999996" to="0" dur="0.5999999999999999s" begin="anim9.end" fill="freeze" id="anim10" /></path><path d="M 25.4 -34.7 L 25.4 -40.8 " transform="translate(0.0 38.0)" stroke-dasharray="6.099999999999994" stroke-dashoffset="6.099999999999994"><animate attributeName="stroke-dashoffset" from="6.099999999999994" to="0" dur="0.18299999999999983s" begin="anim10.end" fill="freeze" id="anim11" /></path><path d="M 45.7 -37.5 L 16.2 -37.5 " transform="translate(0.0 38.0)" stroke-dasharray="29.500000000000004" stroke-dashoffset="29.500000000000004"><animate attributeName="stroke-dashoffset" from="29.500000000000004" to="0" dur="0.8850000000000001s" begin="anim11.end" fill="freeze" id="anim12" /></path><path d="M 35.0 -34.7 L 35.0 -40.8" transform="translate(0.0 38.0)" stroke-dasharray="6.099999999999994" stroke-dashoffset="6.099999999999994"><animate attributeName="stroke-dashoffset" from="6.099999999999994" to="0" dur="0.18299999999999983s" begin="anim12.end" fill="freeze" id="anim_end" /></path></g></svg>