<?xml version='1.0' encoding='utf-8'?>
<svg viewBox="0.0 -6.0 50.0 50.0" version="1.1" xmlns="http://www.w3.org/2000/svg"><rect x="-1000" y="-1000" width="2000" height="2000" stroke="white" fill="white" /><g style="fill:none;stroke:#000000;stroke-width:1"><path d="M 37.3 -0.3 L 37.3 -10.9 C 37.3 -12.9 38.0 -13.6 39.9 -13.6 L 41.8 -13.6 C 44.1 -13.6 44.9 -14.5 44.9 -16.6 L 44.9 -22.9 C 44.9 -25.1 44.1 -26.0 41.8 -26.0 L 39.9 -26.0 C 38.0 -26.0 37.3 -26.6 37.3 -28.6 L 37.3 -36.9 " transform="translate(0.0 38.0)" stroke-dasharray="47.873056622791175" stroke-dashoffset="47.873056622791175"><animate attributeName="stroke-dashoffset" from="47.873056622791175" to="0" dur="1.4361916986837353s" begin="0s" fill="freeze" /></path><path d="M 4.0 -1.1 C 8.4 -1.7 14.4 -3.1 18.1 -4.5 " transform="translate(0.0 38.0)" stroke-dasharray="14.528572296608305" stroke-dashoffset="14.528572296608305"><animate attributeName="stroke-dashoffset" from="14.528572296608305" to="0" dur="0.4358571688982491s" begin="1.4361916986837353s" fill="freeze" /></path><path d="M 6.5 -7.8 C 6.2 -9.6 5.4 -11.5 4.7 -12.8 " transform="translate(0.0 38.0)" stroke-dasharray="5.336072980564405" stroke-dashoffset="5.336072980564405"><animate attributeName="stroke-dashoffset" from="5.336072980564405" to="0" dur="0.16008218941693217s" begin="1.8720488675819844s" fill="freeze" /></path><path d="M 11.2 -3.0 L 11.2 -26.6 " transform="translate(0.0 38.0)" stroke-dasharray="23.6" stroke-dashoffset="23.6"><animate attributeName="stroke-dashoffset" from="23.6" to="0" dur="0.708s" begin="2.0321310569989164s" fill="freeze" /></path><path d="M 15.7 -9.1 C 16.2 -10.3 16.9 -11.9 17.3 -13.8 " transform="translate(0.0 38.0)" stroke-dasharray="4.9732962558543115" stroke-dashoffset="4.9732962558543115"><animate attributeName="stroke-dashoffset" from="4.9732962558543115" to="0" dur="0.14919888767562933s" begin="2.7401310569989166s" fill="freeze" /></path><path d="M 17.6 -18.9 L 3.5 -18.9 " transform="translate(0.0 38.0)" stroke-dasharray="14.100000000000001" stroke-dashoffset="14.100000000000001"><animate attributeName="stroke-dashoffset" from="14.100000000000001" to="0" dur="0.42300000000000004s" begin="2.8893299446745457s" fill="freeze" /></path><path d="M 47.0 0.5 L 18.0 0.5 " transform="translate(0.0 38.0)" stroke-dasharray="29.0" stroke-dashoffset="29.0"><animate attributeName="stroke-dashoffset" from="29.0" to="0" dur="0.87s" begin="3.312329944674546s" fill="freeze" /></path><path d="M 16.2 -26.6 L 6.8 -26.6 " transform="translate(0.0 38.0)" stroke-dasharray="9.399999999999999" stroke-dashoffset="9.399999999999999"><animate attributeName="stroke-dashoffset" from="9.399999999999999" to="0" dur="0.282s" begin="4.182329944674546s" fill="freeze" /></path><path d="M 3.0 -28.8 C 6.3 -31.5 9.7 -35.5 12.1 -39.5 " transform="translate(0.0 38.0)" stroke-dasharray="14.110058523447723" stroke-dashoffset="14.110058523447723"><animate attributeName="stroke-dashoffset" from="14.110058523447723" to="0" dur="0.42330175570343165s" begin="4.464329944674546s" fill="freeze" /></path><path d="M 29.9 -0.3 L 29.9 -10.9 C 29.9 -12.9 29.2 -13.6 27.2 -13.6 L 25.7 -13.6 C 23.4 -13.6 22.6 -14.5 22.6 -16.6 L 22.6 -22.9 C 22.6 -25.1 23.4 -26.0 25.7 -26.0 L 27.2 -26.0 C 29.2 -26.0 29.9 -26.6 29.9 -28.6 L 29.9 -36.9 " transform="translate(0.0 38.0)" stroke-dasharray="47.25248336999422" stroke-dashoffset="47.25248336999422"><animate attributeName="stroke-dashoffset" from="47.25248336999422" to="0" dur="1.4175745010998266s" begin="4.887631700377978s" fill="freeze" /></path><path d="M 18.1 -31.9 C 16.6 -33.9 14.2 -36.0 12.2 -37.5 " transform="translate(0.0 38.0)" stroke-dasharray="8.158806309616923" stroke-dashoffset="8.158806309616923"><animate attributeName="stroke-dashoffset" from="8.158806309616923" to="0" dur="0.24476418928850766s" begin="6.305206201477804s" fill="freeze" /></path><path d="M 46.3 -37.6 L 21.1 -37.6" transform="translate(0.0 38.0)" stroke-dasharray="25.199999999999996" stroke-dashoffset="25.199999999999996"><animate attributeName="stroke-dashoffset" from="25.199999999999996" to="0" dur="0.7559999999999999s" begin="6.549970390766312s" fill="freeze" /></path></g></svg>