<?xml version='1.0' encoding='utf-8'?>
<svg viewBox="0.0 -6.0 50.0 50.0" version="1.1" xmlns="http://www.w3.org/2000/svg"><rect x="-1000" y="-1000" width="2000" height="2000" stroke="white" fill="white" /><g style="fill:none;stroke:#000000;stroke-width:1"><path d="M 4.8 3.0 C 14.8 2.8 26.4 0.8 33.1 -1.6 C 35.4 -2.5 35.0 -4.2 32.7 -4.2 L 9.3 -4.2 " transform="translate(0.0 38.0)" stroke-dasharray="56.89716061611544" stroke-dashoffset="56.89716061611544"><animate attributeName="stroke-dashoffset" from="56.89716061611544" to="0" dur="1.7069148184834633s" begin="0s; anim_end.end" fill="freeze" id="anim0" /></path><path d="M 44.9 2.5 C 33.0 2.5 20.8 0.3 13.8 -4.3 " transform="translate(0.0 38.0)" stroke-dasharray="32.21875068058877" stroke-dashoffset="32.21875068058877"><animate attributeName="stroke-dashoffset" from="32.21875068058877" to="0" dur="0.966562520417663s" begin="anim0.end" fill="freeze" id="anim1" /></path><path d="M 39.8 -12.6 L 10.4 -12.6 C 8.2 -12.6 7.7 -12.0 7.7 -10.7 L 7.7 -9.8 C 7.7 -8.3 8.2 -7.9 10.4 -7.9 L 39.8 -7.9 C 42.0 -7.9 42.5 -8.3 42.5 -9.8 L 42.5 -10.7 C 42.5 -12.0 42.0 -12.6 39.8 -12.6 Z " transform="translate(0.0 38.0)" stroke-dasharray="76.11296049599548" stroke-dashoffset="76.11296049599548"><animate attributeName="stroke-dashoffset" from="76.11296049599548" to="0" dur="2.2833888148798644s" begin="anim1.end" fill="freeze" id="anim2" /></path><path d="M 8.9 -25.2 C 9.8 -26.9 10.2 -28.1 10.7 -29.8 " transform="translate(0.0 38.0)" stroke-dasharray="4.949844600449693" stroke-dashoffset="4.949844600449693"><animate attributeName="stroke-dashoffset" from="4.949844600449693" to="0" dur="0.1484953380134908s" begin="anim2.end" fill="freeze" id="anim3" /></path><path d="M 5.9 -24.9 C 10.4 -25.2 16.4 -25.9 20.9 -26.8 " transform="translate(0.0 38.0)" stroke-dasharray="15.129063365877307" stroke-dashoffset="15.129063365877307"><animate attributeName="stroke-dashoffset" from="15.129063365877307" to="0" dur="0.4538719009763192s" begin="anim3.end" fill="freeze" id="anim4" /></path><path d="M 25.3 -29.6 L 3.9 -29.6 " transform="translate(0.0 38.0)" stroke-dasharray="21.400000000000002" stroke-dashoffset="21.400000000000002"><animate attributeName="stroke-dashoffset" from="21.400000000000002" to="0" dur="0.642s" begin="anim4.end" fill="freeze" id="anim5" /></path><path d="M 15.7 -16.0 L 34.5 -16.0 C 36.9 -16.0 37.5 -16.6 37.5 -18.1 L 37.5 -21.0 C 37.5 -22.5 36.9 -23.1 34.5 -23.1 L 15.7 -23.1 C 13.2 -23.1 12.6 -22.5 12.6 -21.0 L 12.6 -18.1 C 12.6 -16.6 13.2 -16.0 15.7 -16.0 Z " transform="translate(0.0 38.0)" stroke-dasharray="60.69006807256859" stroke-dashoffset="60.69006807256859"><animate attributeName="stroke-dashoffset" from="60.69006807256859" to="0" dur="1.8207020421770577s" begin="anim5.end" fill="freeze" id="anim6" /></path><path d="M 38.0 -19.6 L 13.1 -19.6 " transform="translate(0.0 38.0)" stroke-dasharray="24.9" stroke-dashoffset="24.9"><animate attributeName="stroke-dashoffset" from="24.9" to="0" dur="0.7469999999999999s" begin="anim6.end" fill="freeze" id="anim7" /></path><path d="M 21.9 -25.9 C 20.9 -27.3 19.8 -28.3 18.7 -29.2 " transform="translate(0.0 38.0)" stroke-dasharray="4.611253861168216" stroke-dashoffset="4.611253861168216"><animate attributeName="stroke-dashoffset" from="4.611253861168216" to="0" dur="0.13833761583504647s" begin="anim7.end" fill="freeze" id="anim8" /></path><path d="M 21.6 -33.2 L 8.7 -33.2 " transform="translate(0.0 38.0)" stroke-dasharray="12.900000000000002" stroke-dashoffset="12.900000000000002"><animate attributeName="stroke-dashoffset" from="12.900000000000002" to="0" dur="0.38700000000000007s" begin="anim8.end" fill="freeze" id="anim9" /></path><path d="M 8.7 -30.0 L 8.7 -38.2 C 8.7 -39.7 9.4 -40.2 11.7 -40.2 L 23.6 -40.2 " transform="translate(0.0 38.0)" stroke-dasharray="24.298159812303602" stroke-dashoffset="24.298159812303602"><animate attributeName="stroke-dashoffset" from="24.298159812303602" to="0" dur="0.7289447943691081s" begin="anim9.end" fill="freeze" id="anim10" /></path><path d="M 21.6 -36.6 L 8.7 -36.6 " transform="translate(0.0 38.0)" stroke-dasharray="12.900000000000002" stroke-dashoffset="12.900000000000002"><animate attributeName="stroke-dashoffset" from="12.900000000000002" to="0" dur="0.38700000000000007s" begin="anim10.end" fill="freeze" id="anim11" /></path><path d="M 29.7 -26.4 C 35.1 -27.4 41.0 -29.2 45.6 -31.4 " transform="translate(0.0 38.0)" stroke-dasharray="16.711782940557253" stroke-dashoffset="16.711782940557253"><animate attributeName="stroke-dashoffset" from="16.711782940557253" to="0" dur="0.5013534882167175s" begin="anim11.end" fill="freeze" id="anim12" /></path><path d="M 29.4 -31.8 C 33.8 -32.7 38.6 -34.2 42.6 -36.2 " transform="translate(0.0 38.0)" stroke-dasharray="13.95161960508928" stroke-dashoffset="13.95161960508928"><animate attributeName="stroke-dashoffset" from="13.95161960508928" to="0" dur="0.41854858815267837s" begin="anim12.end" fill="freeze" id="anim13" /></path><path d="M 29.1 -37.2 C 32.8 -38.1 36.9 -39.5 39.9 -40.9 " transform="translate(0.0 38.0)" stroke-dasharray="11.432807954505652" stroke-dashoffset="11.432807954505652"><animate attributeName="stroke-dashoffset" from="11.432807954505652" to="0" dur="0.3429842386351695s" begin="anim13.end" fill="freeze" id="anim14" /></path><path d="M 30.8 -12.2 L 30.8 -8.3 " transform="translate(0.0 38.0)" stroke-dasharray="3.8999999999999986" stroke-dashoffset="3.8999999999999986"><animate attributeName="stroke-dashoffset" from="3.8999999999999986" to="0" dur="0.11699999999999995s" begin="anim14.end" fill="freeze" id="anim15" /></path><path d="M 19.1 -12.2 L 19.1 -8.3" transform="translate(0.0 38.0)" stroke-dasharray="3.8999999999999986" stroke-dashoffset="3.8999999999999986"><animate attributeName="stroke-dashoffset" from="3.8999999999999986" to="0" dur="0.11699999999999995s" begin="anim15.end" fill="freeze" id="anim_end" /></path></g></svg>