<?xml version='1.0' encoding='utf-8'?>
<svg viewBox="0.0 -6.0 50.0 50.0" version="1.1" xmlns="http://www.w3.org/2000/svg"><rect x="-1000" y="-1000" width="2000" height="2000" stroke="white" fill="white" /><g style="fill:none;stroke:#000000;stroke-width:1"><path d="M 34.4 0.4 C 35.5 0.7 36.4 0.8 37.4 0.8 C 40.2 0.8 41.8 -0.7 42.5 -5.3 C 43.5 -11.3 44.0 -18.4 44.0 -26.1 C 44.0 -28.7 42.8 -30.0 39.4 -30.0 L 27.7 -30.0 " transform="translate(0.0 38.0)" stroke-dasharray="51.463376738643994" stroke-dashoffset="51.463376738643994"><animate attributeName="stroke-dashoffset" from="51.463376738643994" to="0" dur="1.5439013021593198s" begin="0s" fill="freeze" /></path><path d="M 4.4 -0.2 C 9.4 -0.8 16.2 -2.1 20.9 -3.6 " transform="translate(0.0 38.0)" stroke-dasharray="16.8675572758443" stroke-dashoffset="16.8675572758443"><animate attributeName="stroke-dashoffset" from="16.8675572758443" to="0" dur="0.5060267182753291s" begin="1.5439013021593198s" fill="freeze" /></path><path d="M 7.6 -6.8 C 7.2 -8.3 6.4 -10.3 5.5 -11.6 " transform="translate(0.0 38.0)" stroke-dasharray="5.261175753636069" stroke-dashoffset="5.261175753636069"><animate attributeName="stroke-dashoffset" from="5.261175753636069" to="0" dur="0.15783527260908206s" begin="2.049928020434649s" fill="freeze" /></path><path d="M 12.6 -1.9 L 12.6 -25.9 " transform="translate(0.0 38.0)" stroke-dasharray="24.0" stroke-dashoffset="24.0"><animate attributeName="stroke-dashoffset" from="24.0" to="0" dur="0.72s" begin="2.207763293043731s" fill="freeze" /></path><path d="M 17.4 -7.8 C 18.1 -9.2 18.8 -10.8 19.3 -12.3 " transform="translate(0.0 38.0)" stroke-dasharray="4.8885690027277855" stroke-dashoffset="4.8885690027277855"><animate attributeName="stroke-dashoffset" from="4.8885690027277855" to="0" dur="0.14665707008183357s" begin="2.927763293043731s" fill="freeze" /></path><path d="M 20.1 -18.1 L 4.0 -18.1 " transform="translate(0.0 38.0)" stroke-dasharray="16.1" stroke-dashoffset="16.1"><animate attributeName="stroke-dashoffset" from="16.1" to="0" dur="0.48300000000000004s" begin="3.0744203631255647s" fill="freeze" /></path><path d="M 17.9 -25.8 L 7.5 -25.8 " transform="translate(0.0 38.0)" stroke-dasharray="10.399999999999999" stroke-dashoffset="10.399999999999999"><animate attributeName="stroke-dashoffset" from="10.399999999999999" to="0" dur="0.31199999999999994s" begin="3.5574203631255648s" fill="freeze" /></path><path d="M 3.2 -28.1 C 7.0 -31.1 10.7 -35.1 13.4 -39.5 " transform="translate(0.0 38.0)" stroke-dasharray="15.373190460074746" stroke-dashoffset="15.373190460074746"><animate attributeName="stroke-dashoffset" from="15.373190460074746" to="0" dur="0.46119571380224234s" begin="3.8694203631255646s" fill="freeze" /></path><path d="M 34.8 -13.7 C 33.4 -15.7 31.6 -17.9 30.0 -19.2 " transform="translate(0.0 38.0)" stroke-dasharray="7.320361372388941" stroke-dashoffset="7.320361372388941"><animate attributeName="stroke-dashoffset" from="7.320361372388941" to="0" dur="0.21961084117166824s" begin="4.330616076927807s" fill="freeze" /></path><path d="M 20.1 -31.4 C 18.5 -33.4 15.9 -35.6 13.6 -37.4 " transform="translate(0.0 38.0)" stroke-dasharray="8.863624056963681" stroke-dashoffset="8.863624056963681"><animate attributeName="stroke-dashoffset" from="8.863624056963681" to="0" dur="0.26590872170891044s" begin="4.550226918099476s" fill="freeze" /></path><path d="M 23.2 -23.2 C 26.5 -27.8 29.4 -34.1 30.9 -39.6" transform="translate(0.0 38.0)" stroke-dasharray="18.20373470938173" stroke-dashoffset="18.20373470938173"><animate attributeName="stroke-dashoffset" from="18.20373470938173" to="0" dur="0.5461120412814519s" begin="4.816135639808387s" fill="freeze" /></path></g></svg>