<?xml version='1.0' encoding='utf-8'?>
<svg viewBox="0.0 -6.0 50.0 50.0" version="1.1" xmlns="http://www.w3.org/2000/svg"><rect x="-1000" y="-1000" width="2000" height="2000" stroke="white" fill="white" /><g style="fill:none;stroke:#000000;stroke-width:1"><path d="M 36.6 2.1 C 37.5 2.3 38.1 2.4 38.9 2.4 C 41.0 2.4 41.9 1.4 41.9 -0.9 L 41.9 -7.7 C 41.9 -10.1 40.8 -10.8 37.9 -10.8 L 12.5 -10.8 C 9.6 -10.8 8.6 -10.1 8.6 -7.7 L 8.6 2.9 " transform="translate(0.0 38.0)" stroke-dasharray="62.06435852733561" stroke-dashoffset="62.06435852733561"><animate attributeName="stroke-dashoffset" from="62.06435852733561" to="0" dur="1.8619307558200682s" begin="0s" fill="freeze" /></path><path d="M 19.4 1.4 L 19.4 -10.6 " transform="translate(0.0 38.0)" stroke-dasharray="12.0" stroke-dashoffset="12.0"><animate attributeName="stroke-dashoffset" from="12.0" to="0" dur="0.36s" begin="1.8619307558200682s" fill="freeze" /></path><path d="M 30.4 1.4 L 30.4 -10.6 " transform="translate(0.0 38.0)" stroke-dasharray="12.0" stroke-dashoffset="12.0"><animate attributeName="stroke-dashoffset" from="12.0" to="0" dur="0.36s" begin="2.2219307558200683s" fill="freeze" /></path><path d="M 23.1 -11.6 C 23.9 -13.2 24.4 -14.7 24.9 -16.6 " transform="translate(0.0 38.0)" stroke-dasharray="5.324410912845881" stroke-dashoffset="5.324410912845881"><animate attributeName="stroke-dashoffset" from="5.324410912845881" to="0" dur="0.15973232738537643s" begin="2.581930755820068s" fill="freeze" /></path><path d="M 19.1 -23.2 L 11.2 -23.2 " transform="translate(0.0 38.0)" stroke-dasharray="7.900000000000002" stroke-dashoffset="7.900000000000002"><animate attributeName="stroke-dashoffset" from="7.900000000000002" to="0" dur="0.23700000000000004s" begin="2.7416630832054447s" fill="freeze" /></path><path d="M 45.6 -17.2 L 4.3 -17.2 " transform="translate(0.0 38.0)" stroke-dasharray="41.300000000000004" stroke-dashoffset="41.300000000000004"><animate attributeName="stroke-dashoffset" from="41.300000000000004" to="0" dur="1.239s" begin="2.978663083205445s" fill="freeze" /></path><path d="M 19.1 -28.2 L 11.2 -28.2 " transform="translate(0.0 38.0)" stroke-dasharray="7.900000000000002" stroke-dashoffset="7.900000000000002"><animate attributeName="stroke-dashoffset" from="7.900000000000002" to="0" dur="0.23700000000000004s" begin="4.217663083205445s" fill="freeze" /></path><path d="M 24.9 -21.5 L 24.9 -38.6 " transform="translate(0.0 38.0)" stroke-dasharray="17.1" stroke-dashoffset="17.1"><animate attributeName="stroke-dashoffset" from="17.1" to="0" dur="0.513s" begin="4.454663083205445s" fill="freeze" /></path><path d="M 44.3 -27.6 L 44.3 -30.9 C 44.3 -32.4 43.5 -33.4 41.0 -33.4 L 9.1 -33.4 C 6.5 -33.4 5.7 -32.4 5.7 -30.9 L 5.7 -27.4 " transform="translate(0.0 38.0)" stroke-dasharray="48.280902686947734" stroke-dashoffset="48.280902686947734"><animate attributeName="stroke-dashoffset" from="48.280902686947734" to="0" dur="1.448427080608432s" begin="4.967663083205445s" fill="freeze" /></path><path d="M 39.0 -23.2 L 30.4 -23.2 " transform="translate(0.0 38.0)" stroke-dasharray="8.600000000000001" stroke-dashoffset="8.600000000000001"><animate attributeName="stroke-dashoffset" from="8.600000000000001" to="0" dur="0.258s" begin="6.416090163813877s" fill="freeze" /></path><path d="M 39.0 -28.2 L 30.4 -28.2 " transform="translate(0.0 38.0)" stroke-dasharray="8.600000000000001" stroke-dashoffset="8.600000000000001"><animate attributeName="stroke-dashoffset" from="8.600000000000001" to="0" dur="0.258s" begin="6.674090163813877s" fill="freeze" /></path><path d="M 41.5 -38.7 L 9.1 -38.7" transform="translate(0.0 38.0)" stroke-dasharray="32.4" stroke-dashoffset="32.4"><animate attributeName="stroke-dashoffset" from="32.4" to="0" dur="0.972s" begin="6.932090163813877s" fill="freeze" /></path></g></svg>