<?xml version='1.0' encoding='utf-8'?>
<svg viewBox="0.0 -6.0 50.0 50.0" version="1.1" xmlns="http://www.w3.org/2000/svg"><rect x="-1000" y="-1000" width="2000" height="2000" stroke="white" fill="white" /><g style="fill:none;stroke:#000000;stroke-width:1"><path d="M 22.4 1.6 C 29.6 -5.0 32.8 -14.4 32.8 -30.7 " transform="translate(0.0 38.0)" stroke-dasharray="34.9955202442072" stroke-dashoffset="34.9955202442072"><animate attributeName="stroke-dashoffset" from="34.9955202442072" to="0" dur="1.049865607326216s" begin="0s; 15s; 30s; 45s" fill="freeze" id="anim0" /></path><path d="M 3.7 1.8 C 4.8 -0.6 5.7 -3.4 6.2 -5.8 " transform="translate(0.0 38.0)" stroke-dasharray="8.016156289968652" stroke-dashoffset="8.016156289968652"><animate attributeName="stroke-dashoffset" from="8.016156289968652" to="0" dur="0.24048468869905956s" begin="anim0.end" fill="freeze" id="anim1" /></path><path d="M 11.3 -0.1 C 11.3 -2.1 11.0 -4.5 10.7 -6.0 " transform="translate(0.0 38.0)" stroke-dasharray="5.938561609822123" stroke-dashoffset="5.938561609822123"><animate attributeName="stroke-dashoffset" from="5.938561609822123" to="0" dur="0.1781568482946637s" begin="anim1.end" fill="freeze" id="anim2" /></path><path d="M 16.9 -2.2 C 16.4 -3.9 15.9 -5.4 15.3 -6.8 " transform="translate(0.0 38.0)" stroke-dasharray="4.873218068038072" stroke-dashoffset="4.873218068038072"><animate attributeName="stroke-dashoffset" from="4.873218068038072" to="0" dur="0.14619654204114216s" begin="anim2.end" fill="freeze" id="anim3" /></path><path d="M 21.9 -4.1 C 21.4 -5.5 20.6 -6.8 19.9 -7.8 " transform="translate(0.0 38.0)" stroke-dasharray="4.218325333925628" stroke-dashoffset="4.218325333925628"><animate attributeName="stroke-dashoffset" from="4.218325333925628" to="0" dur="0.12654976001776883s" begin="anim3.end" fill="freeze" id="anim4" /></path><path d="M 20.6 -14.2 L 20.6 -24.4 C 20.6 -26.4 19.6 -27.4 17.2 -27.4 L 9.4 -27.4 C 7.0 -27.4 6.1 -26.4 6.1 -24.4 L 6.1 -14.2 C 6.1 -12.2 7.0 -11.1 9.4 -11.1 L 17.2 -11.1 C 19.6 -11.1 20.6 -12.2 20.6 -14.2 Z " transform="translate(0.0 38.0)" stroke-dasharray="56.90919983023285" stroke-dashoffset="56.90919983023285"><animate attributeName="stroke-dashoffset" from="56.90919983023285" to="0" dur="1.7072759949069856s" begin="anim4.end" fill="freeze" id="anim5" /></path><path d="M 13.2 -12.2 L 13.2 -26.6 " transform="translate(0.0 38.0)" stroke-dasharray="14.400000000000002" stroke-dashoffset="14.400000000000002"><animate attributeName="stroke-dashoffset" from="14.400000000000002" to="0" dur="0.43200000000000005s" begin="anim5.end" fill="freeze" id="anim6" /></path><path d="M 20.0 -19.5 L 6.3 -19.5 " transform="translate(0.0 38.0)" stroke-dasharray="13.7" stroke-dashoffset="13.7"><animate attributeName="stroke-dashoffset" from="13.7" to="0" dur="0.411s" begin="anim6.end" fill="freeze" id="anim7" /></path><path d="M 3.0 -28.5 C 5.7 -31.5 8.1 -35.7 9.8 -40.0 " transform="translate(0.0 38.0)" stroke-dasharray="13.42638189318829" stroke-dashoffset="13.42638189318829"><animate attributeName="stroke-dashoffset" from="13.42638189318829" to="0" dur="0.4027914567956487s" begin="anim7.end" fill="freeze" id="anim8" /></path><path d="M 12.8 -28.1 C 13.8 -29.8 14.6 -31.4 14.9 -32.6 C 15.4 -34.1 14.8 -35.2 12.7 -35.2 L 7.5 -35.2 " transform="translate(0.0 38.0)" stroke-dasharray="14.403876969901447" stroke-dashoffset="14.403876969901447"><animate attributeName="stroke-dashoffset" from="14.403876969901447" to="0" dur="0.4321163090970434s" begin="anim8.end" fill="freeze" id="anim9" /></path><path d="M 33.6 0.5 C 34.6 0.7 35.5 0.8 36.5 0.8 C 38.8 0.8 40.3 -0.1 41.2 -3.5 C 42.3 -7.6 42.8 -12.7 42.8 -17.9 C 42.8 -20.1 41.9 -21.1 39.5 -21.1 L 32.8 -21.1 " transform="translate(0.0 38.0)" stroke-dasharray="36.50051099868791" stroke-dashoffset="36.50051099868791"><animate attributeName="stroke-dashoffset" from="36.50051099868791" to="0" dur="1.095015329960637s" begin="anim9.end" fill="freeze" id="anim10" /></path><path d="M 46.2 -31.1 L 23.7 -31.1 " transform="translate(0.0 38.0)" stroke-dasharray="22.500000000000004" stroke-dashoffset="22.500000000000004"><animate attributeName="stroke-dashoffset" from="22.500000000000004" to="0" dur="0.675s" begin="anim10.end" fill="freeze" id="anim11" /></path><path d="M 33.4 -31.2 L 33.4 -39.8" transform="translate(0.0 38.0)" stroke-dasharray="8.599999999999998" stroke-dashoffset="8.599999999999998"><animate attributeName="stroke-dashoffset" from="8.599999999999998" to="0" dur="0.25799999999999995s" begin="anim11.end" fill="freeze" id="anim_end" /></path></g></svg>