<?xml version='1.0' encoding='utf-8'?>
<svg viewBox="0.0 -6.0 50.0 50.0" version="1.1" xmlns="http://www.w3.org/2000/svg"><rect x="-1000" y="-1000" width="2000" height="2000" stroke="white" fill="white" /><g style="fill:none;stroke:#000000;stroke-width:1"><path d="M 7.2 2.9 C 18.7 2.6 28.6 -0.2 34.6 -7.2 " transform="translate(0.0 38.0)" stroke-dasharray="30.072616504816377" stroke-dashoffset="30.072616504816377"><animate attributeName="stroke-dashoffset" from="30.072616504816377" to="0" dur="0.9021784951444913s" begin="0s; anim_end.end" fill="freeze" id="anim0" /></path><path d="M 13.7 -3.0 C 16.6 -5.1 20.0 -8.1 22.4 -10.8 " transform="translate(0.0 38.0)" stroke-dasharray="11.704831097625359" stroke-dashoffset="11.704831097625359"><animate attributeName="stroke-dashoffset" from="11.704831097625359" to="0" dur="0.35114493292876076s" begin="anim0.end" fill="freeze" id="anim1" /></path><path d="M 40.0 2.4 C 31.8 -0.3 23.0 -2.4 14.4 -3.4 " transform="translate(0.0 38.0)" stroke-dasharray="26.29270285101322" stroke-dashoffset="26.29270285101322"><animate attributeName="stroke-dashoffset" from="26.29270285101322" to="0" dur="0.7887810855303966s" begin="anim1.end" fill="freeze" id="anim2" /></path><path d="M 45.7 -7.5 L 4.3 -7.5 " transform="translate(0.0 38.0)" stroke-dasharray="41.400000000000006" stroke-dashoffset="41.400000000000006"><animate attributeName="stroke-dashoffset" from="41.400000000000006" to="0" dur="1.2420000000000002s" begin="anim2.end" fill="freeze" id="anim3" /></path><path d="M 18.4 -15.7 C 17.9 -16.4 17.4 -17.2 16.8 -18.1 " transform="translate(0.0 38.0)" stroke-dasharray="2.8846108711448752" stroke-dashoffset="2.8846108711448752"><animate attributeName="stroke-dashoffset" from="2.8846108711448752" to="0" dur="0.08653832613434626s" begin="anim3.end" fill="freeze" id="anim4" /></path><path d="M 46.7 -13.5 L 3.3 -13.5 " transform="translate(0.0 38.0)" stroke-dasharray="43.400000000000006" stroke-dashoffset="43.400000000000006"><animate attributeName="stroke-dashoffset" from="43.400000000000006" to="0" dur="1.302s" begin="anim4.end" fill="freeze" id="anim5" /></path><path d="M 19.1 -25.1 L 10.6 -25.1 " transform="translate(0.0 38.0)" stroke-dasharray="8.500000000000002" stroke-dashoffset="8.500000000000002"><animate attributeName="stroke-dashoffset" from="8.500000000000002" to="0" dur="0.25500000000000006s" begin="anim5.end" fill="freeze" id="anim6" /></path><path d="M 19.1 -29.6 L 11.4 -29.6 " transform="translate(0.0 38.0)" stroke-dasharray="7.700000000000001" stroke-dashoffset="7.700000000000001"><animate attributeName="stroke-dashoffset" from="7.700000000000001" to="0" dur="0.231s" begin="anim6.end" fill="freeze" id="anim7" /></path><path d="M 43.1 -19.7 L 7.5 -19.7 " transform="translate(0.0 38.0)" stroke-dasharray="35.6" stroke-dashoffset="35.6"><animate attributeName="stroke-dashoffset" from="35.6" to="0" dur="1.068s" begin="anim7.end" fill="freeze" id="anim8" /></path><path d="M 24.9 -19.6 L 24.9 -22.4 " transform="translate(0.0 38.0)" stroke-dasharray="2.799999999999997" stroke-dashoffset="2.799999999999997"><animate attributeName="stroke-dashoffset" from="2.799999999999997" to="0" dur="0.08399999999999991s" begin="anim8.end" fill="freeze" id="anim9" /></path><path d="M 30.5 -13.8 C 31.4 -14.8 31.9 -15.7 32.9 -17.2 " transform="translate(0.0 38.0)" stroke-dasharray="4.166321570464233" stroke-dashoffset="4.166321570464233"><animate attributeName="stroke-dashoffset" from="4.166321570464233" to="0" dur="0.12498964711392699s" begin="anim9.end" fill="freeze" id="anim10" /></path><path d="M 44.2 -28.7 L 44.2 -31.8 C 44.2 -33.2 43.5 -34.1 41.1 -34.1 L 8.9 -34.1 C 6.4 -34.1 5.7 -33.2 5.7 -31.8 L 5.7 -28.4 " transform="translate(0.0 38.0)" stroke-dasharray="47.665006956699344" stroke-dashoffset="47.665006956699344"><animate attributeName="stroke-dashoffset" from="47.665006956699344" to="0" dur="1.4299502087009803s" begin="anim10.end" fill="freeze" id="anim11" /></path><path d="M 24.9 -26.0 L 24.9 -38.9 " transform="translate(0.0 38.0)" stroke-dasharray="12.899999999999999" stroke-dashoffset="12.899999999999999"><animate attributeName="stroke-dashoffset" from="12.899999999999999" to="0" dur="0.38699999999999996s" begin="anim11.end" fill="freeze" id="anim12" /></path><path d="M 39.5 -25.1 L 30.4 -25.1 " transform="translate(0.0 38.0)" stroke-dasharray="9.100000000000001" stroke-dashoffset="9.100000000000001"><animate attributeName="stroke-dashoffset" from="9.100000000000001" to="0" dur="0.273s" begin="anim12.end" fill="freeze" id="anim13" /></path><path d="M 38.1 -29.6 L 30.4 -29.6 " transform="translate(0.0 38.0)" stroke-dasharray="7.700000000000003" stroke-dashoffset="7.700000000000003"><animate attributeName="stroke-dashoffset" from="7.700000000000003" to="0" dur="0.23100000000000007s" begin="anim13.end" fill="freeze" id="anim14" /></path><path d="M 41.4 -39.0 L 9.2 -39.0" transform="translate(0.0 38.0)" stroke-dasharray="32.2" stroke-dashoffset="32.2"><animate attributeName="stroke-dashoffset" from="32.2" to="0" dur="0.9660000000000001s" begin="anim14.end" fill="freeze" id="anim_end" /></path></g></svg>