<?xml version='1.0' encoding='utf-8'?>
<svg viewBox="0.0 -6.0 50.0 50.0" version="1.1" xmlns="http://www.w3.org/2000/svg"><rect x="-1000" y="-1000" width="2000" height="2000" stroke="white" fill="white" /><g style="fill:none;stroke:#000000;stroke-width:1"><path d="M 38.8 2.2 C 39.5 2.4 40.1 2.5 40.8 2.5 C 42.9 2.5 43.8 2.1 44.5 0.1 C 44.8 -0.9 45.0 -2.0 45.2 -3.5 C 45.3 -5.0 44.5 -5.8 42.6 -5.8 L 30.4 -5.8 C 28.4 -5.8 27.6 -6.5 27.6 -7.7 L 27.6 -19.4 C 27.6 -20.7 28.4 -21.3 30.4 -21.3 L 39.0 -21.3 C 41.0 -21.3 41.8 -20.6 41.8 -19.3 L 41.8 -15.5 C 41.8 -14.2 41.0 -13.6 39.0 -13.6 L 28.4 -13.6 " transform="translate(0.0 38.0)" stroke-dasharray="77.03837518516022" stroke-dashoffset="77.03837518516022"><animate attributeName="stroke-dashoffset" from="77.03837518516022" to="0" dur="2.3111512555548064s" begin="0s" fill="freeze" /></path><path d="M 21.2 0.9 L 8.2 0.9 " transform="translate(0.0 38.0)" stroke-dasharray="13.0" stroke-dashoffset="13.0"><animate attributeName="stroke-dashoffset" from="13.0" to="0" dur="0.39s" begin="2.3111512555548064s" fill="freeze" /></path><path d="M 20.8 -4.0 L 8.8 -4.0 " transform="translate(0.0 38.0)" stroke-dasharray="12.0" stroke-dashoffset="12.0"><animate attributeName="stroke-dashoffset" from="12.0" to="0" dur="0.36s" begin="2.7011512555548065s" fill="freeze" /></path><path d="M 8.2 2.9 L 8.2 -10.8 C 8.2 -12.4 8.8 -13.2 11.1 -13.2 L 21.4 -13.2 " transform="translate(0.0 38.0)" stroke-dasharray="28.392818401942286" stroke-dashoffset="28.392818401942286"><animate attributeName="stroke-dashoffset" from="28.392818401942286" to="0" dur="0.8517845520582685s" begin="3.0611512555548064s" fill="freeze" /></path><path d="M 15.1 0.7 L 15.1 -12.9 " transform="translate(0.0 38.0)" stroke-dasharray="13.6" stroke-dashoffset="13.6"><animate attributeName="stroke-dashoffset" from="13.6" to="0" dur="0.408s" begin="3.912935807613075s" fill="freeze" /></path><path d="M 3.9 -8.0 C 7.4 -11.8 10.8 -17.5 12.5 -23.1 " transform="translate(0.0 38.0)" stroke-dasharray="17.5105384817583" stroke-dashoffset="17.5105384817583"><animate attributeName="stroke-dashoffset" from="17.5105384817583" to="0" dur="0.5253161544527489s" begin="4.3209358076130755s" fill="freeze" /></path><path d="M 20.8 -8.6 L 8.8 -8.6 " transform="translate(0.0 38.0)" stroke-dasharray="12.0" stroke-dashoffset="12.0"><animate attributeName="stroke-dashoffset" from="12.0" to="0" dur="0.36s" begin="4.846251962065825s" fill="freeze" /></path><path d="M 25.1 2.1 C 25.6 0.9 26.1 -0.7 26.4 -2.2 " transform="translate(0.0 38.0)" stroke-dasharray="4.49884494063507" stroke-dashoffset="4.49884494063507"><animate attributeName="stroke-dashoffset" from="4.49884494063507" to="0" dur="0.1349653482190521s" begin="5.206251962065825s" fill="freeze" /></path><path d="M 31.6 0.9 C 31.3 -0.2 30.9 -1.2 30.5 -2.3 " transform="translate(0.0 38.0)" stroke-dasharray="3.384959732455396" stroke-dashoffset="3.384959732455396"><animate attributeName="stroke-dashoffset" from="3.384959732455396" to="0" dur="0.10154879197366189s" begin="5.341217310284877s" fill="freeze" /></path><path d="M 22.1 -16.8 L 22.1 -18.4 C 22.1 -19.7 21.4 -20.5 19.4 -20.5 L 7.5 -20.5 C 5.5 -20.5 4.8 -19.7 4.8 -18.4 L 4.8 -16.1 " transform="translate(0.0 38.0)" stroke-dasharray="23.648805597108932" stroke-dashoffset="23.648805597108932"><animate attributeName="stroke-dashoffset" from="23.648805597108932" to="0" dur="0.7094641679132679s" begin="5.442766102258539s" fill="freeze" /></path><path d="M 14.8 -13.7 C 15.2 -14.6 15.5 -15.4 15.9 -16.7 " transform="translate(0.0 38.0)" stroke-dasharray="3.197477714883109" stroke-dashoffset="3.197477714883109"><animate attributeName="stroke-dashoffset" from="3.197477714883109" to="0" dur="0.09592433144649326s" begin="6.152230270171807s" fill="freeze" /></path><path d="M 36.2 -0.6 C 35.9 -1.4 35.4 -2.3 34.9 -3.0 " transform="translate(0.0 38.0)" stroke-dasharray="2.736515163990391" stroke-dashoffset="2.736515163990391"><animate attributeName="stroke-dashoffset" from="2.736515163990391" to="0" dur="0.08209545491971172s" begin="6.2481546016183005s" fill="freeze" /></path><path d="M 19.2 -26.4 L 10.8 -26.4 " transform="translate(0.0 38.0)" stroke-dasharray="8.399999999999999" stroke-dashoffset="8.399999999999999"><animate attributeName="stroke-dashoffset" from="8.399999999999999" to="0" dur="0.25199999999999995s" begin="6.330250056538012s" fill="freeze" /></path><path d="M 40.7 -1.8 C 40.4 -2.5 40.0 -3.0 39.5 -3.5 " transform="translate(0.0 38.0)" stroke-dasharray="2.0946892577023317" stroke-dashoffset="2.0946892577023317"><animate attributeName="stroke-dashoffset" from="2.0946892577023317" to="0" dur="0.06284067773106995s" begin="6.582250056538012s" fill="freeze" /></path><path d="M 19.2 -30.6 L 11.3 -30.6 " transform="translate(0.0 38.0)" stroke-dasharray="7.899999999999999" stroke-dashoffset="7.899999999999999"><animate attributeName="stroke-dashoffset" from="7.899999999999999" to="0" dur="0.23699999999999996s" begin="6.645090734269082s" fill="freeze" /></path><path d="M 46.6 -9.7 L 28.0 -9.7 " transform="translate(0.0 38.0)" stroke-dasharray="18.6" stroke-dashoffset="18.6"><animate attributeName="stroke-dashoffset" from="18.6" to="0" dur="0.558s" begin="6.882090734269082s" fill="freeze" /></path><path d="M 41.1 -17.4 L 28.0 -17.4 " transform="translate(0.0 38.0)" stroke-dasharray="13.100000000000001" stroke-dashoffset="13.100000000000001"><animate attributeName="stroke-dashoffset" from="13.100000000000001" to="0" dur="0.393s" begin="7.440090734269082s" fill="freeze" /></path><path d="M 24.9 -25.5 L 24.9 -39.0 " transform="translate(0.0 38.0)" stroke-dasharray="13.5" stroke-dashoffset="13.5"><animate attributeName="stroke-dashoffset" from="13.5" to="0" dur="0.40499999999999997s" begin="7.833090734269081s" fill="freeze" /></path><path d="M 44.2 -29.6 L 44.2 -32.5 C 44.2 -33.8 43.6 -34.8 41.2 -34.8 L 8.8 -34.8 C 6.3 -34.8 5.7 -33.8 5.7 -32.5 L 5.7 -29.4 " transform="translate(0.0 38.0)" stroke-dasharray="47.17684913662558" stroke-dashoffset="47.17684913662558"><animate attributeName="stroke-dashoffset" from="47.17684913662558" to="0" dur="1.4153054740987672s" begin="8.23809073426908s" fill="freeze" /></path><path d="M 33.5 -21.0 C 33.8 -21.8 34.0 -22.4 34.4 -23.4 " transform="translate(0.0 38.0)" stroke-dasharray="2.5633182009724518" stroke-dashoffset="2.5633182009724518"><animate attributeName="stroke-dashoffset" from="2.5633182009724518" to="0" dur="0.07689954602917355s" begin="9.653396208367848s" fill="freeze" /></path><path d="M 39.1 -26.4 L 30.4 -26.4 " transform="translate(0.0 38.0)" stroke-dasharray="8.700000000000003" stroke-dashoffset="8.700000000000003"><animate attributeName="stroke-dashoffset" from="8.700000000000003" to="0" dur="0.26100000000000007s" begin="9.730295754397021s" fill="freeze" /></path><path d="M 41.4 -39.1 L 9.2 -39.1 " transform="translate(0.0 38.0)" stroke-dasharray="32.2" stroke-dashoffset="32.2"><animate attributeName="stroke-dashoffset" from="32.2" to="0" dur="0.9660000000000001s" begin="9.99129575439702s" fill="freeze" /></path><path d="M 38.2 -30.6 L 30.4 -30.6" transform="translate(0.0 38.0)" stroke-dasharray="7.800000000000004" stroke-dashoffset="7.800000000000004"><animate attributeName="stroke-dashoffset" from="7.800000000000004" to="0" dur="0.23400000000000012s" begin="10.95729575439702s" fill="freeze" /></path></g></svg>