<?xml version='1.0' encoding='utf-8'?>
<svg viewBox="0.0 -6.0 50.0 50.0" version="1.1" xmlns="http://www.w3.org/2000/svg"><rect x="-1000" y="-1000" width="2000" height="2000" stroke="white" fill="white" /><g style="fill:none;stroke:#000000;stroke-width:1"><path d="M 29.8 -14.0 L 41.5 -14.0 C 44.3 -14.0 45.5 -15.2 45.5 -17.8 L 45.5 -34.4 C 45.5 -37.0 44.3 -38.1 41.5 -38.1 L 29.8 -38.1 C 26.9 -38.1 25.7 -37.0 25.7 -34.4 L 25.7 -17.8 C 25.7 -15.2 26.9 -14.0 29.8 -14.0 Z " transform="translate(0.0 38.0)" stroke-dasharray="82.17044307110339" stroke-dashoffset="82.17044307110339"><animate attributeName="stroke-dashoffset" from="82.17044307110339" to="0" dur="2.465113292133102s" begin="0s; 15s; 30s; 45s" fill="freeze" id="anim0" /></path><path d="M 4.5 -0.1 C 9.7 -0.7 16.4 -1.9 21.4 -3.4 " transform="translate(0.0 38.0)" stroke-dasharray="17.238549502691725" stroke-dashoffset="17.238549502691725"><animate attributeName="stroke-dashoffset" from="17.238549502691725" to="0" dur="0.5171564850807517s" begin="anim0.end" fill="freeze" id="anim1" /></path><path d="M 7.8 -6.7 C 7.5 -8.2 6.6 -10.2 5.8 -11.5 " transform="translate(0.0 38.0)" stroke-dasharray="5.2222206825410575" stroke-dashoffset="5.2222206825410575"><animate attributeName="stroke-dashoffset" from="5.2222206825410575" to="0" dur="0.15666662047623173s" begin="anim1.end" fill="freeze" id="anim2" /></path><path d="M 12.8 -1.9 L 12.8 -25.8 " transform="translate(0.0 38.0)" stroke-dasharray="23.900000000000002" stroke-dashoffset="23.900000000000002"><animate attributeName="stroke-dashoffset" from="23.900000000000002" to="0" dur="0.7170000000000001s" begin="anim2.end" fill="freeze" id="anim3" /></path><path d="M 17.8 -7.8 C 18.5 -9.1 19.1 -10.7 19.7 -12.2 " transform="translate(0.0 38.0)" stroke-dasharray="4.7953996316700085" stroke-dashoffset="4.7953996316700085"><animate attributeName="stroke-dashoffset" from="4.7953996316700085" to="0" dur="0.14386198895010024s" begin="anim3.end" fill="freeze" id="anim4" /></path><path d="M 20.7 -18.0 L 4.2 -18.0 " transform="translate(0.0 38.0)" stroke-dasharray="16.5" stroke-dashoffset="16.5"><animate attributeName="stroke-dashoffset" from="16.5" to="0" dur="0.495s" begin="anim4.end" fill="freeze" id="anim5" /></path><path d="M 18.5 -25.6 L 7.7 -25.6 " transform="translate(0.0 38.0)" stroke-dasharray="10.8" stroke-dashoffset="10.8"><animate attributeName="stroke-dashoffset" from="10.8" to="0" dur="0.324s" begin="anim5.end" fill="freeze" id="anim6" /></path><path d="M 3.3 -27.9 C 7.2 -30.9 10.9 -35.1 13.7 -39.5 " transform="translate(0.0 38.0)" stroke-dasharray="15.654468186714885" stroke-dashoffset="15.654468186714885"><animate attributeName="stroke-dashoffset" from="15.654468186714885" to="0" dur="0.4696340456014465s" begin="anim6.end" fill="freeze" id="anim7" /></path><path d="M 20.2 -31.4 C 18.5 -33.5 15.9 -35.8 13.4 -37.5 " transform="translate(0.0 38.0)" stroke-dasharray="9.16437046938888" stroke-dashoffset="9.16437046938888"><animate attributeName="stroke-dashoffset" from="9.16437046938888" to="0" dur="0.2749311140816664s" begin="anim7.end" fill="freeze" id="anim8" /></path><path d="M 35.4 2.5 L 35.4 -37.8 " transform="translate(0.0 38.0)" stroke-dasharray="40.3" stroke-dashoffset="40.3"><animate attributeName="stroke-dashoffset" from="40.3" to="0" dur="1.2089999999999999s" begin="anim8.end" fill="freeze" id="anim9" /></path><path d="M 44.5 -26.4 L 25.9 -26.4" transform="translate(0.0 38.0)" stroke-dasharray="18.6" stroke-dashoffset="18.6"><animate attributeName="stroke-dashoffset" from="18.6" to="0" dur="0.558s" begin="anim9.end" fill="freeze" id="anim_end" /></path></g></svg>