<?xml version='1.0' encoding='utf-8'?>
<svg viewBox="0.0 -6.0 50.0 50.0" version="1.1" xmlns="http://www.w3.org/2000/svg"><rect x="-1000" y="-1000" width="2000" height="2000" stroke="white" fill="white" /><g style="fill:none;stroke:#000000;stroke-width:1"><path d="M 38.9 1.3 C 39.7 1.5 40.5 1.6 41.4 1.6 C 43.5 1.6 44.8 0.7 45.5 -1.8 C 46.1 -3.9 46.5 -6.8 46.5 -9.5 C 46.5 -11.3 45.9 -12.3 43.4 -12.3 L 32.9 -12.3 C 30.8 -12.3 30.1 -13.2 30.1 -14.8 L 30.1 -32.7 C 30.1 -34.8 31.0 -35.6 33.6 -35.6 L 39.8 -35.6 C 42.5 -35.6 43.5 -34.8 43.5 -32.8 L 43.5 -26.9 C 43.5 -25.0 42.5 -24.1 39.8 -24.1 L 31.1 -24.1 " transform="translate(0.0 38.0)" stroke-dasharray="90.61016342835117" stroke-dashoffset="90.61016342835117"><animate attributeName="stroke-dashoffset" from="90.61016342835117" to="0" dur="2.718304902850535s" begin="0s" fill="freeze" /></path><path d="M 4.0 -1.2 C 5.8 -3.0 7.4 -5.5 8.3 -7.7 " transform="translate(0.0 38.0)" stroke-dasharray="7.840115699775045" stroke-dashoffset="7.840115699775045"><animate attributeName="stroke-dashoffset" from="7.840115699775045" to="0" dur="0.23520347099325134s" begin="2.718304902850535s" fill="freeze" /></path><path d="M 9.8 1.6 C 10.4 1.7 11.0 1.8 11.7 1.8 C 13.7 1.8 14.6 1.0 14.6 -1.1 L 14.6 -12.0 " transform="translate(0.0 38.0)" stroke-dasharray="17.577114059518237" stroke-dashoffset="17.577114059518237"><animate attributeName="stroke-dashoffset" from="17.577114059518237" to="0" dur="0.5273134217855471s" begin="2.9535083738437864s" fill="freeze" /></path><path d="M 23.0 -4.1 C 22.2 -5.5 21.1 -6.8 20.1 -8.0 " transform="translate(0.0 38.0)" stroke-dasharray="4.866643786323613" stroke-dashoffset="4.866643786323613"><animate attributeName="stroke-dashoffset" from="4.866643786323613" to="0" dur="0.14599931358970838s" begin="3.4808217956293337s" fill="freeze" /></path><path d="M 27.0 0.0 C 27.6 -1.9 28.1 -4.3 28.4 -6.5 " transform="translate(0.0 38.0)" stroke-dasharray="6.656413570864362" stroke-dashoffset="6.656413570864362"><animate attributeName="stroke-dashoffset" from="6.656413570864362" to="0" dur="0.19969240712593084s" begin="3.626821109219042s" fill="freeze" /></path><path d="M 7.7 -21.6 L 7.7 -15.6 C 7.7 -13.5 8.5 -12.7 10.9 -12.7 L 18.3 -12.7 C 20.6 -12.7 21.6 -13.5 21.6 -15.6 L 21.6 -21.6 C 21.6 -23.4 20.6 -24.6 18.3 -24.6 L 11.0 -24.6 C 8.5 -24.6 7.7 -23.4 7.7 -21.6 Z " transform="translate(0.0 38.0)" stroke-dasharray="47.08731972639725" stroke-dashoffset="47.08731972639725"><animate attributeName="stroke-dashoffset" from="47.08731972639725" to="0" dur="1.4126195917919173s" begin="3.826513516344973s" fill="freeze" /></path><path d="M 21.1 -18.6 L 8.2 -18.6 " transform="translate(0.0 38.0)" stroke-dasharray="12.900000000000002" stroke-dashoffset="12.900000000000002"><animate attributeName="stroke-dashoffset" from="12.900000000000002" to="0" dur="0.38700000000000007s" begin="5.23913310813689s" fill="freeze" /></path><path d="M 7.5 -27.9 C 6.6 -28.9 5.2 -30.1 4.4 -30.8 " transform="translate(0.0 38.0)" stroke-dasharray="4.2474083764324835" stroke-dashoffset="4.2474083764324835"><animate attributeName="stroke-dashoffset" from="4.2474083764324835" to="0" dur="0.1274222512929745s" begin="5.626133108136891s" fill="freeze" /></path><path d="M 33.3 -2.2 C 33.0 -3.8 32.5 -5.5 32.0 -6.8 " transform="translate(0.0 38.0)" stroke-dasharray="4.786202023479104" stroke-dashoffset="4.786202023479104"><animate attributeName="stroke-dashoffset" from="4.786202023479104" to="0" dur="0.14358606070437313s" begin="5.753555359429865s" fill="freeze" /></path><path d="M 3.0 -22.1 C 8.3 -26.4 12.4 -33.0 14.3 -40.4 " transform="translate(0.0 38.0)" stroke-dasharray="21.865466653306367" stroke-dashoffset="21.865466653306367"><animate attributeName="stroke-dashoffset" from="21.865466653306367" to="0" dur="0.6559639995991909s" begin="5.897141420134238s" fill="freeze" /></path><path d="M 37.9 -4.0 C 37.5 -5.2 36.7 -6.5 36.0 -7.7 " transform="translate(0.0 38.0)" stroke-dasharray="4.1667554025076905" stroke-dashoffset="4.1667554025076905"><animate attributeName="stroke-dashoffset" from="4.1667554025076905" to="0" dur="0.1250026620752307s" begin="6.553105419733429s" fill="freeze" /></path><path d="M 42.0 -5.8 C 41.5 -6.7 40.6 -8.0 39.9 -8.8 " transform="translate(0.0 38.0)" stroke-dasharray="3.667305729719389" stroke-dashoffset="3.667305729719389"><animate attributeName="stroke-dashoffset" from="3.667305729719389" to="0" dur="0.11001917189158167s" begin="6.678108081808659s" fill="freeze" /></path><path d="M 25.4 -35.4 L 3.7 -35.4 " transform="translate(0.0 38.0)" stroke-dasharray="21.7" stroke-dashoffset="21.7"><animate attributeName="stroke-dashoffset" from="21.7" to="0" dur="0.6509999999999999s" begin="6.788127253700241s" fill="freeze" /></path><path d="M 25.5 -23.7 C 21.8 -26.4 18.8 -30.4 16.9 -34.8 " transform="translate(0.0 38.0)" stroke-dasharray="14.204661622785387" stroke-dashoffset="14.204661622785387"><animate attributeName="stroke-dashoffset" from="14.204661622785387" to="0" dur="0.4261398486835616s" begin="7.43912725370024s" fill="freeze" /></path><path d="M 21.0 -27.4 C 22.2 -28.4 23.6 -29.7 24.8 -31.1 " transform="translate(0.0 38.0)" stroke-dasharray="5.309719084212897" stroke-dashoffset="5.309719084212897"><animate attributeName="stroke-dashoffset" from="5.309719084212897" to="0" dur="0.15929157252638693s" begin="7.865267102383802s" fill="freeze" /></path><path d="M 47.2 -18.4 L 30.4 -18.4 " transform="translate(0.0 38.0)" stroke-dasharray="16.800000000000004" stroke-dashoffset="16.800000000000004"><animate attributeName="stroke-dashoffset" from="16.800000000000004" to="0" dur="0.5040000000000001s" begin="8.024558674910189s" fill="freeze" /></path><path d="M 42.9 -29.9 L 30.4 -29.9 " transform="translate(0.0 38.0)" stroke-dasharray="12.5" stroke-dashoffset="12.5"><animate attributeName="stroke-dashoffset" from="12.5" to="0" dur="0.375s" begin="8.528558674910188s" fill="freeze" /></path><path d="M 35.5 -35.9 C 36.1 -37.4 36.5 -38.8 36.8 -40.2" transform="translate(0.0 38.0)" stroke-dasharray="4.497759100761848" stroke-dashoffset="4.497759100761848"><animate attributeName="stroke-dashoffset" from="4.497759100761848" to="0" dur="0.13493277302285545s" begin="8.903558674910188s" fill="freeze" /></path></g></svg>