<?xml version='1.0' encoding='utf-8'?>
<svg viewBox="0.0 -6.0 50.0 50.0" version="1.1" xmlns="http://www.w3.org/2000/svg"><rect x="-1000" y="-1000" width="2000" height="2000" stroke="white" fill="white" /><g style="fill:none;stroke:#000000;stroke-width:1"><path d="M 3.2 -1.6 C 5.8 -6.8 7.5 -14.8 7.5 -26.4 L 7.5 -34.9 C 7.5 -36.8 8.3 -37.7 11.4 -37.7 L 45.4 -37.7 " transform="translate(0.0 38.0)" stroke-dasharray="73.45903298216652" stroke-dashoffset="73.45903298216652"><animate attributeName="stroke-dashoffset" from="73.45903298216652" to="0" dur="2.2037709894649953s" begin="0s; anim_end.end" fill="freeze" id="anim0" /></path><path d="M 20.0 0.2 C 19.6 -0.6 19.1 -1.1 18.6 -1.6 " transform="translate(0.0 38.0)" stroke-dasharray="2.2920199246224913" stroke-dashoffset="2.2920199246224913"><animate attributeName="stroke-dashoffset" from="2.2920199246224913" to="0" dur="0.06876059773867474s" begin="anim0.end" fill="freeze" id="anim1" /></path><path d="M 44.7 2.2 L 9.3 2.2 " transform="translate(0.0 38.0)" stroke-dasharray="35.400000000000006" stroke-dashoffset="35.400000000000006"><animate attributeName="stroke-dashoffset" from="35.400000000000006" to="0" dur="1.062s" begin="anim1.end" fill="freeze" id="anim2" /></path><path d="M 27.0 2.1 L 27.0 -8.6 " transform="translate(0.0 38.0)" stroke-dasharray="10.7" stroke-dashoffset="10.7"><animate attributeName="stroke-dashoffset" from="10.7" to="0" dur="0.32099999999999995s" begin="anim2.end" fill="freeze" id="anim3" /></path><path d="M 10.6 -7.5 C 16.7 -9.4 23.1 -12.6 27.5 -16.2 " transform="translate(0.0 38.0)" stroke-dasharray="19.114064018408513" stroke-dashoffset="19.114064018408513"><animate attributeName="stroke-dashoffset" from="19.114064018408513" to="0" dur="0.5734219205522554s" begin="anim3.end" fill="freeze" id="anim4" /></path><path d="M 40.5 -4.2 L 14.3 -4.2 " transform="translate(0.0 38.0)" stroke-dasharray="26.2" stroke-dashoffset="26.2"><animate attributeName="stroke-dashoffset" from="26.2" to="0" dur="0.7859999999999999s" begin="anim4.end" fill="freeze" id="anim5" /></path><path d="M 32.9 2.6 C 33.9 1.2 34.8 -0.3 35.5 -1.6 " transform="translate(0.0 38.0)" stroke-dasharray="4.942799531698104" stroke-dashoffset="4.942799531698104"><animate attributeName="stroke-dashoffset" from="4.942799531698104" to="0" dur="0.1482839859509431s" begin="anim5.end" fill="freeze" id="anim6" /></path><path d="M 11.8 -15.8 C 16.6 -16.2 20.7 -16.8 25.4 -18.0 " transform="translate(0.0 38.0)" stroke-dasharray="13.794169807055495" stroke-dashoffset="13.794169807055495"><animate attributeName="stroke-dashoffset" from="13.794169807055495" to="0" dur="0.4138250942116648s" begin="anim6.end" fill="freeze" id="anim7" /></path><path d="M 32.1 -8.9 L 22.1 -8.9 " transform="translate(0.0 38.0)" stroke-dasharray="10.0" stroke-dashoffset="10.0"><animate attributeName="stroke-dashoffset" from="10.0" to="0" dur="0.3s" begin="anim7.end" fill="freeze" id="anim8" /></path><path d="M 15.7 -15.8 L 15.7 -25.8 " transform="translate(0.0 38.0)" stroke-dasharray="10.0" stroke-dashoffset="10.0"><animate attributeName="stroke-dashoffset" from="10.0" to="0" dur="0.3s" begin="anim8.end" fill="freeze" id="anim9" /></path><path d="M 24.8 -22.2 L 15.9 -22.2 " transform="translate(0.0 38.0)" stroke-dasharray="8.9" stroke-dashoffset="8.9"><animate attributeName="stroke-dashoffset" from="8.9" to="0" dur="0.267s" begin="anim9.end" fill="freeze" id="anim10" /></path><path d="M 46.1 -8.0 C 39.0 -9.5 31.9 -12.2 27.6 -15.2 " transform="translate(0.0 38.0)" stroke-dasharray="19.966766210895848" stroke-dashoffset="19.966766210895848"><animate attributeName="stroke-dashoffset" from="19.966766210895848" to="0" dur="0.5990029863268754s" begin="anim10.end" fill="freeze" id="anim11" /></path><path d="M 19.7 -26.9 L 19.7 -37.1 " transform="translate(0.0 38.0)" stroke-dasharray="10.200000000000003" stroke-dashoffset="10.200000000000003"><animate attributeName="stroke-dashoffset" from="10.200000000000003" to="0" dur="0.30600000000000005s" begin="anim11.end" fill="freeze" id="anim12" /></path><path d="M 7.7 -26.9 L 39.8 -26.9 C 41.7 -26.9 42.5 -27.6 42.5 -29.0 L 42.5 -30.4 C 42.5 -31.8 41.7 -32.4 39.8 -32.4 L 7.8 -32.4 " transform="translate(0.0 38.0)" stroke-dasharray="73.2990641409263" stroke-dashoffset="73.2990641409263"><animate attributeName="stroke-dashoffset" from="73.2990641409263" to="0" dur="2.198971924227789s" begin="anim12.end" fill="freeze" id="anim13" /></path><path d="M 46.1 -20.4 C 45.7 -17.1 44.3 -16.4 37.5 -16.4 C 31.9 -16.4 31.0 -16.9 31.0 -19.2 L 31.0 -25.7 " transform="translate(0.0 38.0)" stroke-dasharray="25.36919703569844" stroke-dashoffset="25.36919703569844"><animate attributeName="stroke-dashoffset" from="25.36919703569844" to="0" dur="0.7610759110709532s" begin="anim13.end" fill="freeze" id="anim14" /></path><path d="M 31.5 -21.2 C 35.0 -21.8 39.0 -22.5 42.3 -23.6 " transform="translate(0.0 38.0)" stroke-dasharray="11.073952406615382" stroke-dashoffset="11.073952406615382"><animate attributeName="stroke-dashoffset" from="11.073952406615382" to="0" dur="0.33221857219846146s" begin="anim14.end" fill="freeze" id="anim15" /></path><path d="M 31.3 -26.9 L 31.3 -37.1 " transform="translate(0.0 38.0)" stroke-dasharray="10.200000000000003" stroke-dashoffset="10.200000000000003"><animate attributeName="stroke-dashoffset" from="10.200000000000003" to="0" dur="0.30600000000000005s" begin="anim15.end" fill="freeze" id="anim16" /></path><path d="M 25.8 -37.4 L 25.8 -41.5" transform="translate(0.0 38.0)" stroke-dasharray="4.100000000000001" stroke-dashoffset="4.100000000000001"><animate attributeName="stroke-dashoffset" from="4.100000000000001" to="0" dur="0.12300000000000004s" begin="anim16.end" fill="freeze" id="anim_end" /></path></g></svg>