<?xml version='1.0' encoding='utf-8'?>
<svg viewBox="0.0 -6.0 50.0 50.0" version="1.1" xmlns="http://www.w3.org/2000/svg"><rect x="-1000" y="-1000" width="2000" height="2000" stroke="white" fill="white" /><g style="fill:none;stroke:#000000;stroke-width:1"><path d="M 35.5 2.3 C 36.3 2.5 37.0 2.6 38.0 2.6 C 40.0 2.6 41.0 2.0 41.6 0.3 C 42.1 -0.9 42.4 -2.2 42.5 -3.4 C 42.8 -5.0 42.0 -5.8 39.5 -5.8 L 17.5 -5.8 C 14.8 -5.8 14.1 -6.5 14.1 -8.2 L 14.1 -21.4 C 14.1 -23.1 14.8 -23.9 17.5 -23.9 L 32.4 -23.9 C 35.0 -23.9 36.0 -23.2 36.0 -21.8 L 36.0 -16.9 C 36.0 -15.4 35.0 -14.8 32.4 -14.8 L 14.2 -14.8 " transform="translate(0.0 38.0)" stroke-dasharray="108.06710254775862" stroke-dashoffset="108.06710254775862"><animate attributeName="stroke-dashoffset" from="108.06710254775862" to="0" dur="3.2420130764327584s" begin="0s; anim_end.end" fill="freeze" id="anim0" /></path><path d="M 6.8 2.2 C 7.8 0.8 8.6 -0.7 9.3 -2.5 " transform="translate(0.0 38.0)" stroke-dasharray="5.337843097658652" stroke-dashoffset="5.337843097658652"><animate attributeName="stroke-dashoffset" from="5.337843097658652" to="0" dur="0.16013529292975956s" begin="anim0.end" fill="freeze" id="anim1" /></path><path d="M 17.4 1.9 C 17.0 0.6 16.5 -0.8 15.9 -1.9 " transform="translate(0.0 38.0)" stroke-dasharray="4.091807582794655" stroke-dashoffset="4.091807582794655"><animate attributeName="stroke-dashoffset" from="4.091807582794655" to="0" dur="0.12275422748383966s" begin="anim1.end" fill="freeze" id="anim2" /></path><path d="M 25.8 1.1 C 25.2 -0.2 24.5 -1.4 23.7 -2.5 " transform="translate(0.0 38.0)" stroke-dasharray="4.174458084002928" stroke-dashoffset="4.174458084002928"><animate attributeName="stroke-dashoffset" from="4.174458084002928" to="0" dur="0.12523374252008782s" begin="anim2.end" fill="freeze" id="anim3" /></path><path d="M 33.6 -0.7 C 32.9 -1.6 32.3 -2.3 31.5 -3.1 " transform="translate(0.0 38.0)" stroke-dasharray="3.191331325675193" stroke-dashoffset="3.191331325675193"><animate attributeName="stroke-dashoffset" from="3.191331325675193" to="0" dur="0.09573993977025579s" begin="anim3.end" fill="freeze" id="anim4" /></path><path d="M 45.5 -10.3 L 14.1 -10.3 " transform="translate(0.0 38.0)" stroke-dasharray="31.4" stroke-dashoffset="31.4"><animate attributeName="stroke-dashoffset" from="31.4" to="0" dur="0.942s" begin="anim4.end" fill="freeze" id="anim5" /></path><path d="M 35.2 -19.4 L 14.6 -19.4 " transform="translate(0.0 38.0)" stroke-dasharray="20.6" stroke-dashoffset="20.6"><animate attributeName="stroke-dashoffset" from="20.6" to="0" dur="0.618s" begin="anim5.end" fill="freeze" id="anim6" /></path><path d="M 4.0 -20.1 C 14.3 -24.5 21.9 -31.2 25.3 -40.7 " transform="translate(0.0 38.0)" stroke-dasharray="30.52503588278831" stroke-dashoffset="30.52503588278831"><animate attributeName="stroke-dashoffset" from="30.52503588278831" to="0" dur="0.9157510764836493s" begin="anim6.end" fill="freeze" id="anim7" /></path><path d="M 22.9 -23.6 C 23.6 -24.9 24.0 -25.9 24.4 -27.1 " transform="translate(0.0 38.0)" stroke-dasharray="3.813247938619342" stroke-dashoffset="3.813247938619342"><animate attributeName="stroke-dashoffset" from="3.813247938619342" to="0" dur="0.11439743815858025s" begin="anim7.end" fill="freeze" id="anim8" /></path><path d="M 45.6 -31.2 L 4.4 -31.2 " transform="translate(0.0 38.0)" stroke-dasharray="41.2" stroke-dashoffset="41.2"><animate attributeName="stroke-dashoffset" from="41.2" to="0" dur="1.236s" begin="anim8.end" fill="freeze" id="anim9" /></path><path d="M 38.4 -31.2 L 38.4 -34.5 C 38.4 -36.8 37.5 -37.4 35.0 -37.4 L 15.1 -37.4 C 12.5 -37.4 11.7 -36.8 11.7 -34.5 L 11.7 -31.2 " transform="translate(0.0 38.0)" stroke-dasharray="37.06492069667491" stroke-dashoffset="37.06492069667491"><animate attributeName="stroke-dashoffset" from="37.06492069667491" to="0" dur="1.1119476209002472s" begin="anim9.end" fill="freeze" id="anim10" /></path><path d="M 46.0 -21.6 C 40.5 -23.1 34.1 -26.4 30.2 -30.9" transform="translate(0.0 38.0)" stroke-dasharray="18.577373350181013" stroke-dashoffset="18.577373350181013"><animate attributeName="stroke-dashoffset" from="18.577373350181013" to="0" dur="0.5573212005054303s" begin="anim10.end" fill="freeze" id="anim_end" /></path></g></svg>