<?xml version='1.0' encoding='utf-8'?>
<svg viewBox="0.0 -6.0 50.0 50.0" version="1.1" xmlns="http://www.w3.org/2000/svg"><rect x="-1000" y="-1000" width="2000" height="2000" stroke="white" fill="white" /><g style="fill:none;stroke:#000000;stroke-width:1"><path d="M 36.9 2.6 C 37.6 2.8 38.4 2.9 39.3 2.9 C 41.0 2.9 41.8 2.4 42.4 1.0 C 42.8 -0.1 43.0 -1.1 43.1 -2.0 C 43.4 -3.5 42.8 -4.1 40.2 -4.1 L 16.1 -4.1 C 13.6 -4.1 12.9 -4.8 12.9 -6.4 L 12.9 -17.1 C 12.9 -18.7 13.6 -19.4 16.1 -19.4 L 33.9 -19.4 C 36.0 -19.4 37.4 -18.8 37.4 -17.4 L 37.4 -13.6 C 37.4 -12.2 36.5 -11.7 34.0 -11.7 L 13.2 -11.7 " transform="translate(0.0 38.0)" stroke-dasharray="109.14405771835874" stroke-dashoffset="109.14405771835874"><animate attributeName="stroke-dashoffset" from="109.14405771835874" to="0" dur="3.2743217315507622s" begin="0s" fill="freeze" /></path><path d="M 6.6 2.5 C 7.5 1.3 8.2 0.1 9.0 -1.6 " transform="translate(0.0 38.0)" stroke-dasharray="4.75970464421027" stroke-dashoffset="4.75970464421027"><animate attributeName="stroke-dashoffset" from="4.75970464421027" to="0" dur="0.1427911393263081s" begin="3.2743217315507622s" fill="freeze" /></path><path d="M 17.2 2.3 C 16.9 1.1 16.4 -0.1 15.8 -1.1 " transform="translate(0.0 38.0)" stroke-dasharray="3.6898241028670973" stroke-dashoffset="3.6898241028670973"><animate attributeName="stroke-dashoffset" from="3.6898241028670973" to="0" dur="0.11069472308601291s" begin="3.4171128708770704s" fill="freeze" /></path><path d="M 25.9 1.6 C 25.2 0.6 24.6 -0.6 23.8 -1.4 " transform="translate(0.0 38.0)" stroke-dasharray="3.6685381071191943" stroke-dashoffset="3.6685381071191943"><animate attributeName="stroke-dashoffset" from="3.6685381071191943" to="0" dur="0.11005614321357582s" begin="3.5278075939630833s" fill="freeze" /></path><path d="M 33.9 0.6 C 33.0 -0.5 32.5 -1.1 31.7 -1.8 " transform="translate(0.0 38.0)" stroke-dasharray="3.2602280701697346" stroke-dashoffset="3.2602280701697346"><animate attributeName="stroke-dashoffset" from="3.2602280701697346" to="0" dur="0.09780684210509204s" begin="3.637863737176659s" fill="freeze" /></path><path d="M 7.2 -22.6 L 7.2 -29.8 " transform="translate(0.0 38.0)" stroke-dasharray="7.199999999999999" stroke-dashoffset="7.199999999999999"><animate attributeName="stroke-dashoffset" from="7.199999999999999" to="0" dur="0.21599999999999997s" begin="3.7356705792817513s" fill="freeze" /></path><path d="M 4.1 -22.5 C 9.4 -23.0 15.9 -24.0 19.9 -25.1 " transform="translate(0.0 38.0)" stroke-dasharray="16.02870308048323" stroke-dashoffset="16.02870308048323"><animate attributeName="stroke-dashoffset" from="16.02870308048323" to="0" dur="0.48086109241449687s" begin="3.9516705792817515s" fill="freeze" /></path><path d="M 45.6 -8.0 L 13.7 -8.0 " transform="translate(0.0 38.0)" stroke-dasharray="31.900000000000002" stroke-dashoffset="31.900000000000002"><animate attributeName="stroke-dashoffset" from="31.900000000000002" to="0" dur="0.9570000000000001s" begin="4.432531671696248s" fill="freeze" /></path><path d="M 36.7 -15.5 L 13.8 -15.5 " transform="translate(0.0 38.0)" stroke-dasharray="22.900000000000002" stroke-dashoffset="22.900000000000002"><animate attributeName="stroke-dashoffset" from="22.900000000000002" to="0" dur="0.687s" begin="5.389531671696248s" fill="freeze" /></path><path d="M 13.2 -23.8 L 13.2 -33.5 " transform="translate(0.0 38.0)" stroke-dasharray="9.7" stroke-dashoffset="9.7"><animate attributeName="stroke-dashoffset" from="9.7" to="0" dur="0.291s" begin="6.076531671696248s" fill="freeze" /></path><path d="M 22.1 -19.2 C 22.8 -20.4 23.2 -21.2 23.6 -22.3 " transform="translate(0.0 38.0)" stroke-dasharray="3.449240169148767" stroke-dashoffset="3.449240169148767"><animate attributeName="stroke-dashoffset" from="3.449240169148767" to="0" dur="0.10347720507446301s" begin="6.3675316716962485s" fill="freeze" /></path><path d="M 19.6 -29.5 L 12.8 -29.5 " transform="translate(0.0 38.0)" stroke-dasharray="6.800000000000001" stroke-dashoffset="6.800000000000001"><animate attributeName="stroke-dashoffset" from="6.800000000000001" to="0" dur="0.20400000000000001s" begin="6.4710088767707115s" fill="freeze" /></path><path d="M 9.4 -34.1 L 17.1 -34.1 C 19.1 -34.1 19.8 -34.8 19.8 -36.2 L 19.8 -37.9 C 19.8 -39.4 19.1 -39.9 17.1 -39.9 L 9.4 -39.9 C 7.5 -39.9 6.8 -39.4 6.8 -37.9 L 6.8 -36.2 C 6.8 -34.8 7.5 -34.1 9.4 -34.1 Z " transform="translate(0.0 38.0)" stroke-dasharray="34.357516802242756" stroke-dashoffset="34.357516802242756"><animate attributeName="stroke-dashoffset" from="34.357516802242756" to="0" dur="1.0307255040672827s" begin="6.675008876770711s" fill="freeze" /></path><path d="M 31.5 -23.0 L 38.5 -23.0 C 40.5 -23.0 41.2 -23.6 41.2 -25.1 L 41.2 -26.2 C 41.2 -27.7 40.5 -28.2 38.5 -28.2 L 31.5 -28.2 C 29.4 -28.2 28.8 -27.6 28.8 -26.4 L 28.8 -25.1 C 28.8 -23.6 29.5 -23.0 31.5 -23.0 Z " transform="translate(0.0 38.0)" stroke-dasharray="32.01681379426264" stroke-dashoffset="32.01681379426264"><animate attributeName="stroke-dashoffset" from="32.01681379426264" to="0" dur="0.9605044138278791s" begin="7.705734380837994s" fill="freeze" /></path><path d="M 25.2 -34.6 C 27.5 -36.1 30.1 -38.6 31.6 -40.9 " transform="translate(0.0 38.0)" stroke-dasharray="9.03606750350282" stroke-dashoffset="9.03606750350282"><animate attributeName="stroke-dashoffset" from="9.03606750350282" to="0" dur="0.2710820251050846s" begin="8.666238794665873s" fill="freeze" /></path><path d="M 24.1 -29.3 C 29.9 -30.3 36.3 -32.8 40.0 -35.6 C 41.8 -37.0 41.0 -38.5 38.8 -38.5 L 30.1 -38.5 " transform="translate(0.0 38.0)" stroke-dasharray="30.69549409260098" stroke-dashoffset="30.69549409260098"><animate attributeName="stroke-dashoffset" from="30.69549409260098" to="0" dur="0.9208648227780294s" begin="8.937320819770957s" fill="freeze" /></path><path d="M 46.5 -29.1 C 39.8 -30.3 33.0 -33.2 29.1 -36.9" transform="translate(0.0 38.0)" stroke-dasharray="19.30770179766107" stroke-dashoffset="19.30770179766107"><animate attributeName="stroke-dashoffset" from="19.30770179766107" to="0" dur="0.5792310539298321s" begin="9.858185642548985s" fill="freeze" /></path></g></svg>