<?xml version='1.0' encoding='utf-8'?>
<svg viewBox="0.0 -6.0 50.0 50.0" version="1.1" xmlns="http://www.w3.org/2000/svg"><rect x="-1000" y="-1000" width="2000" height="2000" stroke="white" fill="white" /><g style="fill:none;stroke:#000000;stroke-width:1"><path d="M 28.2 -13.9 L 40.2 -13.9 C 43.2 -13.9 44.2 -14.9 44.2 -17.2 L 44.2 -23.9 C 44.2 -26.2 43.2 -27.2 40.2 -27.2 L 28.2 -27.2 C 25.2 -27.2 24.2 -26.2 24.2 -23.9 L 24.2 -17.2 C 24.2 -14.9 25.2 -13.9 28.2 -13.9 Z " transform="translate(0.0 38.0)" stroke-dasharray="61.545634643449034" stroke-dashoffset="61.545634643449034"><animate attributeName="stroke-dashoffset" from="61.545634643449034" to="0" dur="1.8463690393034708s" begin="0s; 15s; 30s; 45s" fill="freeze" id="anim0" /></path><path d="M 4.2 -0.9 C 8.9 -1.6 14.7 -3.2 18.6 -4.7 " transform="translate(0.0 38.0)" stroke-dasharray="14.9181255344313" stroke-dashoffset="14.9181255344313"><animate attributeName="stroke-dashoffset" from="14.9181255344313" to="0" dur="0.447543766032939s" begin="anim0.end" fill="freeze" id="anim1" /></path><path d="M 7.0 -7.6 C 6.7 -9.3 5.9 -11.2 5.1 -12.6 " transform="translate(0.0 38.0)" stroke-dasharray="5.37275308971375" stroke-dashoffset="5.37275308971375"><animate attributeName="stroke-dashoffset" from="5.37275308971375" to="0" dur="0.1611825926914125s" begin="anim1.end" fill="freeze" id="anim2" /></path><path d="M 11.9 -2.8 L 11.9 -26.2 " transform="translate(0.0 38.0)" stroke-dasharray="23.4" stroke-dashoffset="23.4"><animate attributeName="stroke-dashoffset" from="23.4" to="0" dur="0.702s" begin="anim2.end" fill="freeze" id="anim3" /></path><path d="M 16.6 -8.8 C 17.2 -10.1 17.8 -11.7 18.3 -13.4 " transform="translate(0.0 38.0)" stroke-dasharray="4.908265456390705" stroke-dashoffset="4.908265456390705"><animate attributeName="stroke-dashoffset" from="4.908265456390705" to="0" dur="0.14724796369172113s" begin="anim3.end" fill="freeze" id="anim4" /></path><path d="M 18.8 -18.6 L 3.8 -18.6 " transform="translate(0.0 38.0)" stroke-dasharray="15.0" stroke-dashoffset="15.0"><animate attributeName="stroke-dashoffset" from="15.0" to="0" dur="0.44999999999999996s" begin="anim4.end" fill="freeze" id="anim5" /></path><path d="M 19.1 0.1 C 24.2 -3.0 29.3 -7.8 32.4 -12.6 " transform="translate(0.0 38.0)" stroke-dasharray="18.53192280210647" stroke-dashoffset="18.53192280210647"><animate attributeName="stroke-dashoffset" from="18.53192280210647" to="0" dur="0.5559576840631941s" begin="anim5.end" fill="freeze" id="anim6" /></path><path d="M 17.1 -26.1 L 7.2 -26.1 " transform="translate(0.0 38.0)" stroke-dasharray="9.900000000000002" stroke-dashoffset="9.900000000000002"><animate attributeName="stroke-dashoffset" from="9.900000000000002" to="0" dur="0.29700000000000004s" begin="anim6.end" fill="freeze" id="anim7" /></path><path d="M 3.0 -28.6 C 6.5 -31.4 9.9 -35.4 12.4 -39.5 " transform="translate(0.0 38.0)" stroke-dasharray="14.46175244826423" stroke-dashoffset="14.46175244826423"><animate attributeName="stroke-dashoffset" from="14.46175244826423" to="0" dur="0.4338525734479269s" begin="anim7.end" fill="freeze" id="anim8" /></path><path d="M 46.9 -1.1 C 42.6 -4.0 38.1 -8.6 35.4 -12.8 " transform="translate(0.0 38.0)" stroke-dasharray="16.504850265321533" stroke-dashoffset="16.504850265321533"><animate attributeName="stroke-dashoffset" from="16.504850265321533" to="0" dur="0.49514550795964596s" begin="anim8.end" fill="freeze" id="anim9" /></path><path d="M 18.3 -32.1 C 16.6 -34.1 14.2 -36.3 12.1 -37.9 " transform="translate(0.0 38.0)" stroke-dasharray="8.50457161834192" stroke-dashoffset="8.50457161834192"><animate attributeName="stroke-dashoffset" from="8.50457161834192" to="0" dur="0.2551371485502576s" begin="anim9.end" fill="freeze" id="anim10" /></path><path d="M 34.0 2.8 L 34.0 -40.4 " transform="translate(0.0 38.0)" stroke-dasharray="43.199999999999996" stroke-dashoffset="43.199999999999996"><animate attributeName="stroke-dashoffset" from="43.199999999999996" to="0" dur="1.2959999999999998s" begin="anim10.end" fill="freeze" id="anim11" /></path><path d="M 43.5 -20.6 L 24.8 -20.6 " transform="translate(0.0 38.0)" stroke-dasharray="18.7" stroke-dashoffset="18.7"><animate attributeName="stroke-dashoffset" from="18.7" to="0" dur="0.5609999999999999s" begin="anim11.end" fill="freeze" id="anim12" /></path><path d="M 46.5 -33.9 L 22.4 -33.9" transform="translate(0.0 38.0)" stroke-dasharray="24.1" stroke-dashoffset="24.1"><animate attributeName="stroke-dashoffset" from="24.1" to="0" dur="0.723s" begin="anim12.end" fill="freeze" id="anim_end" /></path></g></svg>