<?xml version='1.0' encoding='utf-8'?>
<svg viewBox="0.0 -6.0 50.0 50.0" version="1.1" xmlns="http://www.w3.org/2000/svg"><rect x="-1000" y="-1000" width="2000" height="2000" stroke="white" fill="white" /><g style="fill:none;stroke:#000000;stroke-width:1"><path d="M 14.8 0.7 C 15.9 0.9 16.9 1.0 17.9 1.0 C 20.3 1.0 21.4 -0.1 21.4 -2.6 L 21.4 -33.8 C 21.4 -36.0 20.2 -37.3 17.1 -37.3 L 4.8 -37.3 " transform="translate(0.0 38.0)" stroke-dasharray="58.7817182663397" stroke-dashoffset="58.7817182663397"><animate attributeName="stroke-dashoffset" from="58.7817182663397" to="0" dur="1.763451547990191s" begin="0s; anim_end.end" fill="freeze" id="anim0" /></path><path d="M 4.7 -5.4 C 10.3 -9.2 16.9 -15.4 21.4 -22.6 " transform="translate(0.0 38.0)" stroke-dasharray="24.13371627164503" stroke-dashoffset="24.13371627164503"><animate attributeName="stroke-dashoffset" from="24.13371627164503" to="0" dur="0.7240114881493509s" begin="anim0.end" fill="freeze" id="anim1" /></path><path d="M 5.0 -19.7 C 10.3 -23.4 16.6 -29.6 20.5 -36.1 " transform="translate(0.0 38.0)" stroke-dasharray="22.71435616940427" stroke-dashoffset="22.71435616940427"><animate attributeName="stroke-dashoffset" from="22.71435616940427" to="0" dur="0.681430685082128s" begin="anim1.end" fill="freeze" id="anim2" /></path><path d="M 28.7 -8.2 C 34.3 -12.0 39.8 -17.7 44.2 -24.8 " transform="translate(0.0 38.0)" stroke-dasharray="22.874273171641466" stroke-dashoffset="22.874273171641466"><animate attributeName="stroke-dashoffset" from="22.874273171641466" to="0" dur="0.6862281951492439s" begin="anim2.end" fill="freeze" id="anim3" /></path><path d="M 36.9 0.5 C 38.0 0.7 39.0 0.8 40.0 0.8 C 42.4 0.8 43.5 -0.3 43.5 -2.9 L 43.5 -33.8 C 43.5 -36.0 42.4 -37.3 39.1 -37.3 L 27.1 -37.3 " transform="translate(0.0 38.0)" stroke-dasharray="58.384687002451514" stroke-dashoffset="58.384687002451514"><animate attributeName="stroke-dashoffset" from="58.384687002451514" to="0" dur="1.7515406100735453s" begin="anim3.end" fill="freeze" id="anim4" /></path><path d="M 28.6 -21.7 C 33.5 -25.4 38.4 -30.4 41.7 -36.5" transform="translate(0.0 38.0)" stroke-dasharray="19.914094762167405" stroke-dashoffset="19.914094762167405"><animate attributeName="stroke-dashoffset" from="19.914094762167405" to="0" dur="0.5974228428650221s" begin="anim4.end" fill="freeze" id="anim_end" /></path></g></svg>