<?xml version='1.0' encoding='utf-8'?>
<svg viewBox="0 -44.0 25.25 50.0" version="1.1" xmlns="http://www.w3.org/2000/svg"><rect x="-1000" y="-1000" width="2000" height="2000" stroke="white" fill="white" /><g style="fill:none;stroke:#000000;stroke-width:1"><path d="M 10.7 1.3 L 10.2 0.2 C 8.5 -4.1 7.2 -5.5 4.9 -5.5 C 4.2 -5.5 3.7 -5.4 3.2 -5.4 C 2.3 -5.4 1.6 -6.1 1.6 -7.1 C 1.6 -8.3 2.2 -9.0 3.2 -9.1 C 3.7 -9.2 4.3 -9.2 4.9 -9.2 C 8.5 -9.2 11.4 -7.3 13.8 -1.2 L 23.3 23.2 C 23.5 23.6 23.5 23.9 23.5 24.2 C 23.5 25.1 22.5 26.0 21.2 26.0 C 20.3 26.0 19.7 25.4 19.5 24.6 L 15.9 14.6 C 14.9 11.8 13.9 9.0 13.0 6.2 L 12.6 6.2 C 11.8 8.9 10.9 11.7 9.9 14.4 L 6.1 24.6 C 5.8 25.4 5.1 26.0 4.2 26.0 C 2.9 26.0 1.8 25.0 1.8 24.1 C 1.8 23.7 1.9 23.2 2.1 22.7 Z" transform="scale(1,-1)" stroke-dasharray="133.8705523277254" stroke-dashoffset="133.8705523277254"><animate attributeName="stroke-dashoffset" from="133.8705523277254" to="0" dur="4.016116569831762s" begin="0s; 15s; 30s; 45s; 60s" fill="freeze" id="anim0" /></path></g></svg>