<?xml version='1.0' encoding='utf-8'?>
<svg viewBox="0 -44.0 50.0 50.0" version="1.1" xmlns="http://www.w3.org/2000/svg"><rect x="-1000" y="-1000" width="2000" height="2000" stroke="white" fill="white" /><g style="fill:none;stroke:#000000;stroke-width:1"><path d="M 21.2 31.3 C 21.5 35.8 22.7 38.1 25.5 38.1 C 26.6 38.1 26.9 37.7 27.7 37.7 C 28.5 37.7 29.2 38.5 29.2 39.5 C 29.2 40.5 28.9 41.0 28.1 41.3 C 27.2 41.7 26.6 41.8 25.7 41.8 C 20.8 41.8 17.2 38.4 16.9 30.6 L 16.0 6.7 C 15.8 2.2 14.6 -0.2 11.8 -0.2 C 10.7 -0.2 10.4 0.3 9.6 0.3 C 8.8 0.3 8.1 -0.5 8.1 -1.5 C 8.1 -2.5 8.4 -3.0 9.2 -3.3 C 10.1 -3.7 10.7 -3.8 11.6 -3.8 C 16.4 -3.8 20.0 -0.4 20.2 7.5 Z " transform="scale(1,-1)" stroke-dasharray="116.98100706418748" stroke-dashoffset="116.98100706418748"><animate attributeName="stroke-dashoffset" from="116.98100706418748" to="0" dur="3.509430211925624s" begin="0s; 15s; 30s; 45s; 60s" fill="freeze" id="anim0" /></path><path d="M 34.1 31.3 C 34.2 35.8 35.5 38.1 38.2 38.1 C 39.4 38.1 39.6 37.7 40.5 37.7 C 41.2 37.7 42.0 38.5 42.0 39.5 C 42.0 40.5 41.6 41.0 40.8 41.3 C 40.0 41.7 39.3 41.8 38.4 41.8 C 33.6 41.8 30.1 38.4 29.8 30.6 L 28.8 6.7 C 28.6 2.2 27.4 -0.2 24.6 -0.2 C 23.4 -0.2 23.2 0.3 22.3 0.3 C 21.5 0.3 20.8 -0.5 20.8 -1.5 C 20.8 -2.5 21.2 -3.0 22.0 -3.3 C 22.8 -3.7 23.5 -3.8 24.4 -3.8 C 29.2 -3.8 32.8 -0.4 33.1 7.5 Z" transform="scale(1,-1)" stroke-dasharray="117.07539724339664" stroke-dashoffset="117.07539724339664"><animate attributeName="stroke-dashoffset" from="117.07539724339664" to="0" dur="3.512261917301899s" begin="anim0.end" fill="freeze" id="anim_end" /></path></g></svg>