<?xml version='1.0' encoding='utf-8'?>
<svg viewBox="0 -44.0 50.0 50.0" version="1.1" xmlns="http://www.w3.org/2000/svg"><rect x="-1000" y="-1000" width="2000" height="2000" stroke="white" fill="white" /><g style="fill:none;stroke:#000000;stroke-width:1"><path d="M 15.1 11.3 L 14.8 11.3 C 13.5 11.3 12.7 10.4 12.7 9.0 C 12.7 7.6 13.5 6.7 14.8 6.7 L 15.1 6.7 L 23.4 7.6 L 22.2 -1.2 L 22.2 -1.5 C 22.2 -2.8 23.4 -3.8 25.0 -3.8 C 26.6 -3.8 27.7 -2.8 27.7 -1.5 L 27.7 -1.2 L 26.6 7.6 L 34.9 6.7 L 35.1 6.7 C 36.5 6.7 37.4 7.6 37.4 9.0 C 37.4 10.4 36.5 11.3 35.1 11.3 L 34.9 11.3 L 26.6 10.4 C 26.7 12.6 27.0 14.9 27.6 17.6 C 27.6 17.9 27.7 18.4 27.7 19.0 C 27.7 19.6 27.6 20.1 27.6 20.4 C 27.0 23.3 26.7 25.8 26.6 28.2 L 34.9 27.2 L 35.1 27.2 C 36.5 27.2 37.4 28.2 37.4 29.6 C 37.4 31.0 36.5 31.9 35.1 31.9 L 34.9 31.9 L 26.6 30.9 L 27.7 39.2 L 27.7 39.5 C 27.7 40.8 26.6 41.8 25.0 41.8 C 23.4 41.8 22.2 40.8 22.2 39.5 L 22.2 39.2 L 23.4 30.9 L 15.1 31.9 L 14.8 31.9 C 13.5 31.9 12.7 31.0 12.7 29.6 C 12.7 28.2 13.5 27.2 14.8 27.2 L 15.1 27.2 L 23.4 28.2 C 23.2 25.8 22.9 23.3 22.4 20.4 C 22.3 20.1 22.2 19.6 22.2 19.0 C 22.2 18.4 22.3 17.9 22.4 17.6 C 22.9 14.9 23.2 12.6 23.4 10.4 Z" transform="scale(1,-1)" stroke-dasharray="185.36683959228435" stroke-dashoffset="185.36683959228435"><animate attributeName="stroke-dashoffset" from="185.36683959228435" to="0" dur="5.56100518776853s" begin="0s; 15s; 30s; 45s; 60s" fill="freeze" id="anim0" /></path></g></svg>