<?xml version='1.0' encoding='utf-8'?>
<svg viewBox="0 -44.0 50.0 50.0" version="1.1" xmlns="http://www.w3.org/2000/svg"><rect x="-1000" y="-1000" width="2000" height="2000" stroke="white" fill="white" /><g style="fill:none;stroke:#000000;stroke-width:1"><path d="M 32.8 14.6 C 29.7 15.6 26.8 15.9 23.6 15.9 C 14.0 15.9 10.5 11.8 10.5 7.1 C 10.5 1.8 15.6 -2.2 25.2 -2.2 C 27.4 -2.2 29.2 -2.1 30.9 -1.9 C 32.1 -1.8 32.6 -0.9 32.6 0.0 C 32.6 1.0 31.9 2.0 30.6 1.9 C 29.0 1.7 27.2 1.6 25.1 1.6 C 17.8 1.6 14.4 4.0 14.4 7.2 C 14.4 10.4 17.2 12.5 23.6 12.5 C 27.6 12.5 31.2 11.9 35.1 10.6 C 35.4 10.5 35.6 10.5 36.0 10.5 C 37.2 10.5 38.2 11.4 38.2 12.6 C 38.2 13.2 38.0 13.8 37.4 14.4 C 33.4 18.7 30.5 22.9 28.4 26.6 C 31.7 27.3 34.8 28.1 37.5 28.9 C 38.6 29.2 39.0 29.9 39.0 30.6 C 39.0 31.5 38.2 32.4 37.1 32.4 C 36.9 32.4 36.6 32.4 36.4 32.3 C 33.6 31.5 30.4 30.7 26.9 30.0 C 25.8 32.6 24.9 35.6 24.2 38.2 C 23.9 39.4 23.1 39.8 22.2 39.8 C 21.2 39.8 20.1 39.0 20.4 37.6 C 21.1 34.9 22.1 32.0 23.2 29.2 C 18.4 28.5 13.5 27.8 9.0 27.6 C 7.8 27.6 7.2 26.7 7.2 25.8 C 7.2 24.9 7.9 23.9 9.2 24.0 C 14.1 24.3 19.6 25.0 24.8 25.9 C 26.9 21.9 29.9 17.7 32.8 14.7 Z " transform="scale(1,-1)" stroke-dasharray="220.76615320273027" stroke-dashoffset="220.76615320273027"><animate attributeName="stroke-dashoffset" from="220.76615320273027" to="0" dur="6.622984596081908s" begin="0s; 15s; 30s; 45s; 60s" fill="freeze" id="anim0" /></path><path d="M 38.0 36.7 C 39.2 35.5 40.8 33.7 42.1 31.9 C 42.4 31.4 42.9 31.2 43.3 31.2 C 44.1 31.2 44.8 31.9 44.8 32.8 C 44.8 33.1 44.7 33.5 44.4 33.9 C 43.2 35.6 41.5 37.6 40.0 38.8 C 39.7 39.1 39.3 39.2 39.0 39.2 C 38.1 39.2 37.5 38.6 37.5 37.8 C 37.5 37.5 37.6 37.1 38.0 36.7 Z " transform="scale(1,-1)" stroke-dasharray="22.643860827181417" stroke-dashoffset="22.643860827181417"><animate attributeName="stroke-dashoffset" from="22.643860827181417" to="0" dur="0.6793158248154425s" begin="anim0.end" fill="freeze" id="anim1" /></path><path d="M 42.5 40.4 C 43.7 39.2 45.5 37.2 46.7 35.7 C 47.0 35.2 47.4 35.1 47.8 35.1 C 48.6 35.1 49.2 35.8 49.2 36.6 C 49.2 37.0 49.1 37.4 48.9 37.8 C 47.8 39.3 45.9 41.4 44.6 42.5 C 44.2 42.8 43.8 42.9 43.5 42.9 C 42.7 42.9 42.0 42.2 42.0 41.5 C 42.0 41.1 42.1 40.8 42.5 40.4 Z" transform="scale(1,-1)" stroke-dasharray="22.229800413206558" stroke-dashoffset="22.229800413206558"><animate attributeName="stroke-dashoffset" from="22.229800413206558" to="0" dur="0.6668940123961967s" begin="anim1.end" fill="freeze" id="anim_end" /></path></g></svg>