<?xml version='1.0' encoding='utf-8'?>
<svg viewBox="0 -44.0 50.0 50.0" version="1.1" xmlns="http://www.w3.org/2000/svg"><rect x="-1000" y="-1000" width="2000" height="2000" stroke="white" fill="white" /><g style="fill:none;stroke:#000000;stroke-width:1"><path d="M 21.9 -0.8 C 22.2 -1.8 23.0 -2.2 23.8 -2.2 C 24.7 -2.2 25.6 -1.5 25.6 -0.4 C 25.6 -0.1 25.6 0.2 25.5 0.6 L 17.9 22.9 C 25.2 25.7 30.1 26.7 34.6 26.7 C 39.6 26.7 41.7 24.7 41.7 21.8 C 41.7 18.2 39.5 16.8 35.6 16.8 C 33.9 16.8 32.6 16.9 31.6 17.2 C 31.4 17.2 31.1 17.3 30.9 17.3 C 29.7 17.3 28.9 16.4 28.9 15.4 C 28.9 14.6 29.5 13.7 30.7 13.4 C 32.0 13.0 33.5 12.8 35.8 12.8 C 41.7 12.8 45.6 16.4 45.6 21.7 C 45.6 26.9 41.7 30.2 34.6 30.2 C 29.7 30.2 24.3 29.2 16.7 26.4 L 13.8 34.8 C 13.5 35.7 12.7 36.1 11.9 36.1 C 11.0 36.1 10.0 35.5 10.0 34.4 C 10.0 34.2 10.0 34.0 10.1 33.7 L 13.1 25.0 C 10.7 24.1 8.2 23.0 5.3 21.7 C 4.3 21.2 3.9 20.5 3.9 19.8 C 3.9 18.9 4.6 17.9 5.7 17.9 C 6.0 17.9 6.3 18.0 6.7 18.2 C 9.5 19.4 12.0 20.5 14.3 21.5 Z " transform="scale(1,-1)" stroke-dasharray="201.71838842463873" stroke-dashoffset="201.71838842463873"><animate attributeName="stroke-dashoffset" from="201.71838842463873" to="0" dur="6.051551652739162s" begin="0s; 15s; 30s; 45s; 60s" fill="freeze" id="anim0" /></path><path d="M 30.8 35.7 C 29.0 37.3 27.0 38.7 25.1 39.8 C 24.7 40.0 24.3 40.1 23.9 40.1 C 22.9 40.1 22.1 39.3 22.1 38.4 C 22.1 37.9 22.4 37.3 23.1 36.9 C 24.8 35.8 26.6 34.4 28.5 32.8 C 28.9 32.4 29.4 32.2 29.8 32.2 C 30.8 32.2 31.6 33.1 31.6 34.1 C 31.6 34.6 31.4 35.2 30.8 35.7 Z" transform="scale(1,-1)" stroke-dasharray="25.909511026027744" stroke-dashoffset="25.909511026027744"><animate attributeName="stroke-dashoffset" from="25.909511026027744" to="0" dur="0.7772853307808323s" begin="anim0.end" fill="freeze" id="anim_end" /></path></g></svg>