<?xml version='1.0' encoding='utf-8'?>
<svg viewBox="0 -44.0 50.0 50.0" version="1.1" xmlns="http://www.w3.org/2000/svg"><rect x="-1000" y="-1000" width="2000" height="2000" stroke="white" fill="white" /><g style="fill:none;stroke:#000000;stroke-width:1"><path d="M 27.2 39.2 C 24.4 34.5 20.2 29.0 16.4 25.1 C 14.6 23.2 14.0 21.6 14.0 20.0 C 14.0 18.2 14.9 16.5 16.7 14.5 C 20.1 10.7 25.5 4.0 28.6 -0.7 C 29.2 -1.6 30.0 -2.0 30.7 -2.0 C 31.8 -2.0 32.8 -1.1 32.8 0.2 C 32.8 0.7 32.6 1.3 32.1 1.9 C 28.4 7.0 23.4 12.8 19.7 16.8 C 18.4 18.2 17.9 19.2 17.9 20.0 C 17.9 20.9 18.2 21.8 19.3 22.9 C 22.9 26.6 27.4 32.2 30.6 37.0 C 30.9 37.5 31.1 37.9 31.1 38.2 C 31.1 39.4 30.0 40.2 29.0 40.2 C 28.3 40.2 27.7 39.9 27.2 39.2 Z" transform="scale(1,-1)" stroke-dasharray="108.21769457353727" stroke-dashoffset="108.21769457353727"><animate attributeName="stroke-dashoffset" from="108.21769457353727" to="0" dur="3.246530837206118s" begin="0s; 15s; 30s; 45s; 60s" fill="freeze" id="anim0" /></path></g></svg>