<?xml version='1.0' encoding='utf-8'?>
<svg viewBox="0 -44.0 50.0 50.0" version="1.1" xmlns="http://www.w3.org/2000/svg"><rect x="-1000" y="-1000" width="2000" height="2000" stroke="white" fill="white" /><g style="fill:none;stroke:#000000;stroke-width:1"><path d="M 27.6 14.9 C 27.6 8.4 26.9 5.2 23.2 1.4 C 22.7 1.0 22.6 0.7 22.6 0.4 C 22.6 -0.5 23.2 -1.1 23.8 -1.1 C 24.1 -1.1 24.6 -1.0 24.9 -0.7 C 28.8 3.5 30.2 6.8 30.2 14.8 L 30.2 17.0 C 30.2 17.8 29.8 18.4 28.9 18.4 C 28.0 18.4 27.6 17.9 27.6 17.0 Z " transform="scale(1,-1)" stroke-dasharray="44.76492748162659" stroke-dashoffset="44.76492748162659"><animate attributeName="stroke-dashoffset" from="44.76492748162659" to="0" dur="1.3429478244487978s" begin="0s; 15s; 30s; 45s; 60s" fill="freeze" id="anim0" /></path><path d="M 36.9 17.6 C 36.9 18.4 36.2 18.9 35.4 18.9 C 34.6 18.9 34.1 18.4 34.1 17.6 L 34.1 2.1 C 34.1 0.3 35.0 -0.7 36.5 -0.7 C 37.2 -0.7 37.8 -0.6 38.6 -0.1 C 41.1 1.2 43.2 3.1 45.0 5.8 C 45.2 6.2 45.4 6.4 45.4 6.8 C 45.4 7.5 44.6 8.0 44.0 8.0 C 43.6 8.0 43.1 7.7 42.9 7.4 C 41.6 5.1 39.8 3.2 37.5 2.1 C 37.0 2.1 36.9 2.2 36.9 2.7 Z " transform="scale(1,-1)" stroke-dasharray="63.01726588056396" stroke-dashoffset="63.01726588056396"><animate attributeName="stroke-dashoffset" from="63.01726588056396" to="0" dur="1.8905179764169189s" begin="anim0.end" fill="freeze" id="anim1" /></path><path d="M 9.9 37.5 C 9.9 38.3 9.3 38.9 8.5 38.9 C 7.7 38.9 7.1 38.3 7.1 37.5 L 7.1 22.2 C 7.1 18.8 8.6 17.9 14.2 17.9 C 17.9 17.9 21.0 18.2 23.0 18.7 C 23.7 18.8 24.0 19.2 24.0 20.0 C 24.0 20.7 23.6 21.2 22.9 21.2 L 22.6 21.2 C 20.0 20.7 17.8 20.4 14.2 20.4 C 10.6 20.4 9.9 20.8 9.9 22.7 L 9.9 27.6 C 15.2 28.9 18.7 30.2 21.2 31.8 C 21.7 32.1 21.9 32.4 21.9 33.0 C 21.9 33.6 21.2 34.3 20.6 34.3 C 20.4 34.3 19.8 34.1 19.5 33.9 C 16.7 32.0 13.7 30.9 9.9 30.0 Z " transform="scale(1,-1)" stroke-dasharray="95.97119148482477" stroke-dashoffset="95.97119148482477"><animate attributeName="stroke-dashoffset" from="95.97119148482477" to="0" dur="2.879135744544743s" begin="anim1.end" fill="freeze" id="anim2" /></path><path d="M 23.9 34.4 C 24.4 34.4 24.8 34.8 24.8 35.4 C 24.8 35.6 24.7 35.7 24.6 36.0 C 23.9 37.2 23.2 38.4 22.2 39.3 C 22.0 39.5 21.7 39.6 21.5 39.6 C 21.1 39.6 20.7 39.2 20.7 38.8 C 20.7 38.6 20.7 38.4 20.9 38.2 C 21.7 37.2 22.6 36.1 23.1 34.9 C 23.2 34.6 23.5 34.4 23.9 34.4 Z " transform="scale(1,-1)" stroke-dasharray="13.899376038680888" stroke-dashoffset="13.899376038680888"><animate attributeName="stroke-dashoffset" from="13.899376038680888" to="0" dur="0.4169812811604266s" begin="anim2.end" fill="freeze" id="anim3" /></path><path d="M 27.6 38.1 C 27.0 39.2 26.2 40.2 25.3 41.2 C 25.1 41.4 24.9 41.5 24.6 41.5 C 24.1 41.5 23.7 41.1 23.7 40.7 C 23.7 40.6 23.8 40.3 23.9 40.2 C 24.8 39.2 25.7 38.1 26.2 37.0 C 26.4 36.6 26.6 36.6 26.9 36.6 C 27.4 36.6 27.9 37.0 27.9 37.5 C 27.9 37.6 27.8 37.8 27.6 38.1 Z" transform="scale(1,-1)" stroke-dasharray="13.515723999716002" stroke-dashoffset="13.515723999716002"><animate attributeName="stroke-dashoffset" from="13.515723999716002" to="0" dur="0.40547171999148s" begin="anim3.end" fill="freeze" id="anim_end" /></path></g></svg>