<?xml version='1.0' encoding='utf-8'?>
<svg viewBox="0 -44.0 50.0 50.0" version="1.1" xmlns="http://www.w3.org/2000/svg"><rect x="-1000" y="-1000" width="2000" height="2000" stroke="white" fill="white" /><g style="fill:none;stroke:#000000;stroke-width:1"><path d="M 29.6 16.8 L 29.6 2.5 C 29.6 0.8 29.2 0.3 27.7 0.3 C 26.7 0.3 25.5 0.5 24.7 0.6 C 23.4 0.9 22.6 -0.2 22.6 -1.2 C 22.6 -2.1 23.0 -2.8 24.2 -3.1 C 25.2 -3.3 26.4 -3.4 27.8 -3.4 C 31.6 -3.4 33.2 -1.8 33.2 2.0 L 33.2 16.8 L 46.4 16.8 C 47.4 16.8 48.0 17.6 48.0 18.4 C 48.0 19.2 47.4 20.1 46.4 20.1 L 33.2 20.1 L 33.2 25.5 C 36.2 27.3 39.0 29.7 41.2 32.1 C 42.2 33.2 42.8 34.5 42.8 35.5 C 42.8 37.4 41.1 38.7 38.6 38.7 L 20.5 38.7 C 19.5 38.7 18.9 37.9 18.9 37.1 C 18.9 36.3 19.4 35.5 20.5 35.5 L 37.8 35.5 C 38.5 35.5 38.8 35.3 38.8 35.0 C 38.8 34.7 38.7 34.5 38.4 34.1 C 36.9 32.2 34.9 30.4 32.7 28.9 C 32.4 29.2 31.9 29.4 31.4 29.4 C 30.5 29.4 29.6 28.8 29.6 27.8 L 29.6 20.1 L 16.4 20.1 C 15.4 20.1 14.9 19.2 14.9 18.4 C 14.9 17.6 15.4 16.8 16.4 16.8 Z " transform="scale(1,-1)" stroke-dasharray="204.6820517154025" stroke-dashoffset="204.6820517154025"><animate attributeName="stroke-dashoffset" from="204.6820517154025" to="0" dur="6.140461551462075s" begin="0s; 15s; 30s; 45s; 60s" fill="freeze" id="anim0" /></path><path d="M 7.9 -2.7 C 7.9 -3.7 8.8 -4.2 9.7 -4.2 C 10.6 -4.2 11.4 -3.7 11.4 -2.7 L 11.4 25.4 C 11.4 26.5 10.6 27.0 9.7 27.0 C 11.4 30.9 12.9 35.1 13.9 38.9 C 14.0 39.1 14.0 39.3 14.0 39.5 C 14.0 40.6 13.1 41.2 12.2 41.2 C 11.4 41.2 10.7 40.8 10.4 39.8 C 8.6 32.4 5.3 24.5 1.8 19.5 C 1.5 19.1 1.4 18.7 1.4 18.3 C 1.4 17.4 2.1 16.9 2.9 16.9 C 3.4 16.9 4.0 17.1 4.5 17.8 C 5.6 19.4 6.8 21.3 7.9 23.5 Z" transform="scale(1,-1)" stroke-dasharray="114.89077749072734" stroke-dashoffset="114.89077749072734"><animate attributeName="stroke-dashoffset" from="114.89077749072734" to="0" dur="3.44672332472182s" begin="anim0.end" fill="freeze" id="anim_end" /></path></g></svg>