<?xml version='1.0' encoding='utf-8'?>
<svg viewBox="0 -44.0 50.0 50.0" version="1.1" xmlns="http://www.w3.org/2000/svg"><rect x="-1000" y="-1000" width="2000" height="2000" stroke="white" fill="white" /><g style="fill:none;stroke:#000000;stroke-width:1"><path d="M 36.1 23.2 C 40.1 23.2 41.5 24.6 41.5 27.4 L 41.5 36.1 C 41.5 38.9 40.1 40.2 36.1 40.2 L 14.5 40.2 C 10.6 40.2 9.1 38.9 9.1 36.1 L 9.1 27.4 C 9.2 23.9 11.4 23.3 14.5 23.2 Z " transform="scale(1,-1)" stroke-dasharray="92.01207964742414" stroke-dashoffset="92.01207964742414"><animate attributeName="stroke-dashoffset" from="92.01207964742414" to="0" dur="2.760362389422724s" begin="0s; 15s; 30s; 45s; 60s" fill="freeze" id="anim0" /></path><path d="M 38.1 30.5 L 38.1 27.8 C 38.1 26.5 37.6 26.1 35.6 26.1 L 26.5 26.1 L 26.5 30.5 Z " transform="scale(1,-1)" stroke-dasharray="31.349725413293925" stroke-dashoffset="31.349725413293925"><animate attributeName="stroke-dashoffset" from="31.349725413293925" to="0" dur="0.9404917623988177s" begin="anim0.end" fill="freeze" id="anim1" /></path><path d="M 38.1 33.2 L 26.5 33.2 L 26.5 37.5 L 35.6 37.5 C 37.6 37.5 38.1 37.0 38.1 35.6 Z " transform="scale(1,-1)" stroke-dasharray="31.09382931133352" stroke-dashoffset="31.09382931133352"><animate attributeName="stroke-dashoffset" from="31.09382931133352" to="0" dur="0.9328148793400055s" begin="anim1.end" fill="freeze" id="anim2" /></path><path d="M 23.2 37.5 L 23.2 33.2 L 12.6 33.2 L 12.6 35.6 C 12.6 37.0 13.0 37.5 15.0 37.5 Z " transform="scale(1,-1)" stroke-dasharray="29.126235057949863" stroke-dashoffset="29.126235057949863"><animate attributeName="stroke-dashoffset" from="29.126235057949863" to="0" dur="0.8737870517384959s" begin="anim2.end" fill="freeze" id="anim3" /></path><path d="M 12.6 30.5 L 23.2 30.5 L 23.2 26.1 L 15.0 26.1 C 13.0 26.1 12.6 26.5 12.6 27.8 Z " transform="scale(1,-1)" stroke-dasharray="29.37968974777082" stroke-dashoffset="29.37968974777082"><animate attributeName="stroke-dashoffset" from="29.37968974777082" to="0" dur="0.8813906924331245s" begin="anim3.end" fill="freeze" id="anim4" /></path><path d="M 26.6 0.5 L 26.6 4.8 L 38.7 4.8 C 39.7 4.8 40.2 5.5 40.2 6.2 C 40.2 7.0 39.7 7.8 38.7 7.8 L 26.6 7.8 L 26.6 10.6 C 26.6 11.7 25.8 12.2 24.9 12.2 C 24.0 12.2 23.1 11.7 23.1 10.6 L 23.1 7.8 L 11.3 7.8 C 10.4 7.8 9.9 7.0 9.9 6.2 C 9.9 5.5 10.4 4.8 11.3 4.8 L 23.1 4.8 L 23.1 0.5 L 4.9 0.5 C 3.9 0.5 3.4 -0.3 3.4 -1.1 C 3.4 -1.9 3.9 -2.6 4.9 -2.6 L 45.1 -2.6 C 46.1 -2.6 46.6 -1.9 46.6 -1.1 C 46.6 -0.3 46.1 0.5 45.1 0.5 Z " transform="scale(1,-1)" stroke-dasharray="163.28333052852727" stroke-dashoffset="163.28333052852727"><animate attributeName="stroke-dashoffset" from="163.28333052852727" to="0" dur="4.898499915855818s" begin="anim4.end" fill="freeze" id="anim5" /></path><path d="M 19.2 15.4 C 14.8 14.0 9.2 12.6 4.7 11.8 C 3.6 11.7 3.1 10.9 3.1 10.2 C 3.1 9.2 3.9 8.3 5.3 8.6 C 10.2 9.4 15.6 10.9 20.2 12.5 C 21.1 12.8 21.5 13.4 21.5 14.0 C 21.5 14.8 20.8 15.5 19.8 15.5 C 19.6 15.5 19.4 15.5 19.2 15.4 Z " transform="scale(1,-1)" stroke-dasharray="41.29908168485885" stroke-dashoffset="41.29908168485885"><animate attributeName="stroke-dashoffset" from="41.29908168485885" to="0" dur="1.2389724505457653s" begin="anim5.end" fill="freeze" id="anim6" /></path><path d="M 8.5 23.0 C 7.0 23.3 6.2 22.4 6.2 21.4 C 6.2 20.8 6.6 20.2 7.4 19.9 C 10.0 19.2 13.3 17.9 15.7 16.6 C 16.1 16.4 16.4 16.3 16.8 16.3 C 17.8 16.3 18.4 17.1 18.4 17.9 C 18.4 18.6 18.1 19.2 17.3 19.6 C 14.7 21.0 11.0 22.3 8.5 23.0 Z " transform="scale(1,-1)" stroke-dasharray="29.530736789376782" stroke-dashoffset="29.530736789376782"><animate attributeName="stroke-dashoffset" from="29.530736789376782" to="0" dur="0.8859221036813034s" begin="anim6.end" fill="freeze" id="anim7" /></path><path d="M 32.0 15.2 C 30.6 15.5 29.8 14.6 29.8 13.8 C 29.8 13.1 30.2 12.5 31.2 12.2 C 35.1 11.4 40.4 9.7 44.4 8.1 C 44.8 8.0 45.1 7.9 45.4 7.9 C 46.4 7.9 47.0 8.7 47.0 9.5 C 47.0 10.2 46.6 11.0 45.5 11.4 C 41.7 12.8 36.2 14.5 32.0 15.2 Z " transform="scale(1,-1)" stroke-dasharray="39.31177412857714" stroke-dashoffset="39.31177412857714"><animate attributeName="stroke-dashoffset" from="39.31177412857714" to="0" dur="1.1793532238573141s" begin="anim7.end" fill="freeze" id="anim8" /></path><path d="M 41.7 23.5 C 39.1 22.0 34.6 20.3 31.2 19.4 C 30.2 19.1 29.8 18.4 29.8 17.8 C 29.8 17.0 30.4 16.2 31.4 16.2 C 31.6 16.2 31.8 16.3 32.0 16.4 C 35.6 17.3 40.3 19.1 43.4 20.7 C 44.1 21.1 44.4 21.7 44.4 22.2 C 44.4 23.0 43.7 23.8 42.7 23.8 C 42.4 23.8 42.1 23.7 41.7 23.5 Z" transform="scale(1,-1)" stroke-dasharray="34.475894255322146" stroke-dashoffset="34.475894255322146"><animate attributeName="stroke-dashoffset" from="34.475894255322146" to="0" dur="1.0342768276596643s" begin="anim8.end" fill="freeze" id="anim_end" /></path></g></svg>