<?xml version='1.0' encoding='utf-8'?>
<svg viewBox="0 -44.0 50.0 50.0" version="1.1" xmlns="http://www.w3.org/2000/svg"><rect x="-1000" y="-1000" width="2000" height="2000" stroke="white" fill="white" /><g style="fill:none;stroke:#000000;stroke-width:1"><path d="M 8.2 15.1 L 18.4 15.1 C 20.2 15.1 20.7 14.7 20.6 13.4 C 20.5 10.4 19.9 6.6 19.1 4.1 C 18.4 1.9 17.1 1.2 15.0 1.2 C 13.8 1.2 12.4 1.5 11.2 1.8 C 11.1 1.9 10.9 1.9 10.7 1.9 C 9.6 1.9 8.9 1.0 8.9 0.1 C 8.9 -0.7 9.3 -1.5 10.5 -1.8 C 11.9 -2.2 13.8 -2.4 15.2 -2.4 C 18.9 -2.4 21.3 -1.1 22.6 3.0 C 23.5 5.9 24.1 9.7 24.2 13.9 C 24.4 16.6 22.9 18.2 19.1 18.2 L 8.8 18.2 L 10.2 24.2 C 10.4 25.3 10.7 25.6 12.4 25.6 L 19.1 25.6 C 22.6 25.6 24.2 26.8 24.2 29.6 L 24.2 35.0 C 24.2 37.8 22.6 39.0 19.1 39.0 L 6.6 39.0 C 5.6 39.0 5.1 38.2 5.1 37.5 C 5.1 36.7 5.6 35.9 6.6 35.9 L 18.4 35.9 C 20.2 35.9 20.6 35.6 20.6 34.3 L 20.6 30.3 C 20.6 29.0 20.2 28.7 18.4 28.7 L 11.8 28.7 C 8.6 28.7 7.5 27.8 7.0 25.2 L 4.7 14.6 C 4.5 13.4 5.2 12.8 6.1 12.8 C 6.9 12.8 7.8 13.3 8.1 14.4 Z " transform="scale(1,-1)" stroke-dasharray="188.26491117377967" stroke-dashoffset="188.26491117377967"><animate attributeName="stroke-dashoffset" from="188.26491117377967" to="0" dur="5.64794733521339s" begin="0s; 15s; 30s; 45s; 60s" fill="freeze" id="anim0" /></path><path d="M 37.8 -1.0 C 37.8 -2.2 38.7 -2.8 39.7 -2.8 C 40.6 -2.8 41.6 -2.2 41.6 -1.0 L 41.6 38.5 C 41.6 39.7 40.6 40.2 39.7 40.2 C 38.7 40.2 37.8 39.7 37.8 38.5 Z" transform="scale(1,-1)" stroke-dasharray="90.61700781516429" stroke-dashoffset="90.61700781516429"><animate attributeName="stroke-dashoffset" from="90.61700781516429" to="0" dur="2.7185102344549286s" begin="anim0.end" fill="freeze" id="anim_end" /></path></g></svg>