<?xml version='1.0' encoding='utf-8'?>
<svg viewBox="0 -44.0 50.0 50.0" version="1.1" xmlns="http://www.w3.org/2000/svg"><rect x="-1000" y="-1000" width="2000" height="2000" stroke="white" fill="white" /><g style="fill:none;stroke:#000000;stroke-width:1"><path d="M 8.8 15.7 C 7.8 15.5 7.3 14.7 7.3 13.9 C 7.3 13.0 8.1 12.0 9.5 12.2 C 19.4 14.2 31.6 19.4 39.8 25.4 C 40.5 25.9 40.8 26.5 40.8 27.1 C 40.8 28.1 39.9 29.1 38.9 29.1 C 38.4 29.1 38.0 28.9 37.6 28.6 C 30.1 22.7 18.2 17.7 8.8 15.7 Z " transform="scale(1,-1)" stroke-dasharray="77.2825103740222" stroke-dashoffset="77.2825103740222"><animate attributeName="stroke-dashoffset" from="77.2825103740222" to="0" dur="2.318475311220666s" begin="0s; 15s; 30s; 45s; 60s" fill="freeze" id="anim0" /></path><path d="M 9.8 29.1 C 8.7 28.8 8.2 28.1 8.2 27.4 C 8.2 26.4 9.2 25.4 10.5 25.7 C 19.6 27.6 29.4 31.7 36.7 37.2 C 37.4 37.8 37.7 38.5 37.7 39.1 C 37.7 40.1 36.9 40.9 35.8 40.9 C 35.4 40.9 34.8 40.7 34.3 40.3 C 27.8 35.0 18.2 30.9 9.8 29.1 Z " transform="scale(1,-1)" stroke-dasharray="68.56554813877862" stroke-dashoffset="68.56554813877862"><animate attributeName="stroke-dashoffset" from="68.56554813877862" to="0" dur="2.0569664441633586s" begin="anim0.end" fill="freeze" id="anim1" /></path><path d="M 7.1 0.5 C 6.1 0.2 5.7 -0.5 5.7 -1.2 C 5.7 -2.1 6.5 -3.1 7.9 -2.8 C 20.1 -0.5 34.2 6.0 42.7 13.2 C 43.2 13.7 43.5 14.2 43.5 14.8 C 43.5 15.8 42.7 16.8 41.6 16.8 C 41.1 16.8 40.6 16.6 40.1 16.1 C 32.2 9.1 18.7 3.1 7.1 0.5 Z" transform="scale(1,-1)" stroke-dasharray="87.61364466892802" stroke-dashoffset="87.61364466892802"><animate attributeName="stroke-dashoffset" from="87.61364466892802" to="0" dur="2.6284093400678405s" begin="anim1.end" fill="freeze" id="anim_end" /></path></g></svg>