<?xml version='1.0' encoding='utf-8'?>
<svg viewBox="0 -44.0 50.0 50.0" version="1.1" xmlns="http://www.w3.org/2000/svg"><rect x="-1000" y="-1000" width="2000" height="2000" stroke="white" fill="white" /><g style="fill:none;stroke:#000000;stroke-width:1"><path d="M 23.1 19.8 L 15.0 19.8 C 11.1 19.8 9.8 18.4 9.8 16.0 L 9.8 7.7 L 3.7 7.7 C 2.8 7.7 2.3 7.0 2.3 6.2 C 2.3 5.5 2.8 4.8 3.7 4.8 L 9.8 4.8 L 9.8 -2.8 C 9.8 -3.8 10.7 -4.3 11.6 -4.3 C 12.4 -4.3 13.2 -3.8 13.2 -2.8 L 13.2 4.8 L 37.1 4.8 L 37.1 0.9 C 37.1 -0.5 36.7 -0.8 35.8 -0.8 C 35.0 -0.8 34.2 -0.8 33.2 -0.6 C 31.9 -0.3 31.2 -1.2 31.2 -2.1 C 31.2 -2.8 31.7 -3.6 32.7 -3.8 C 33.9 -4.0 34.8 -4.0 35.9 -4.0 C 39.1 -4.0 40.6 -2.8 40.6 0.4 L 40.6 4.8 L 46.4 4.8 C 47.3 4.8 47.8 5.5 47.8 6.2 C 47.8 7.0 47.3 7.7 46.4 7.7 L 40.6 7.7 L 40.6 16.0 C 40.6 18.4 39.3 19.8 35.4 19.8 L 26.5 19.8 L 26.5 23.1 L 45.7 23.1 C 46.7 23.1 47.1 23.8 47.1 24.5 C 47.1 25.2 46.7 26.0 45.7 26.0 L 33.6 26.0 L 33.6 29.1 L 41.1 29.1 C 42.0 29.1 42.5 29.9 42.5 30.6 C 42.5 31.3 42.0 32.0 41.1 32.0 L 33.6 32.0 L 33.6 35.0 L 43.7 35.0 C 44.7 35.0 45.1 35.8 45.1 36.5 C 45.1 37.2 44.7 37.9 43.7 37.9 L 33.6 37.9 L 33.6 40.4 C 33.6 41.4 32.7 41.9 31.9 41.9 C 31.0 41.9 30.2 41.4 30.2 40.4 L 30.2 37.9 L 19.9 37.9 L 19.9 40.4 C 19.9 41.4 19.1 41.9 18.2 41.9 C 17.4 41.9 16.5 41.4 16.5 40.4 L 16.5 37.9 L 6.6 37.9 C 5.7 37.9 5.2 37.2 5.2 36.5 C 5.2 35.8 5.7 35.0 6.6 35.0 L 16.5 35.0 L 16.5 32.0 L 9.1 32.0 C 8.1 32.0 7.7 31.3 7.7 30.6 C 7.7 29.9 8.1 29.1 9.1 29.1 L 16.5 29.1 L 16.5 26.0 L 4.4 26.0 C 3.5 26.0 3.0 25.2 3.0 24.5 C 3.0 23.8 3.5 23.1 4.4 23.1 L 23.1 23.1 Z " transform="scale(1,-1)" stroke-dasharray="363.156144497962" stroke-dashoffset="363.156144497962"><animate attributeName="stroke-dashoffset" from="363.156144497962" to="0" dur="10.894684334938859s" begin="0s; 15s; 30s; 45s; 60s" fill="freeze" id="anim0" /></path><path d="M 23.1 16.9 L 23.1 13.7 L 13.2 13.7 L 13.2 15.4 C 13.2 16.6 13.8 16.9 15.7 16.9 Z " transform="scale(1,-1)" stroke-dasharray="25.590547849649205" stroke-dashoffset="25.590547849649205"><animate attributeName="stroke-dashoffset" from="25.590547849649205" to="0" dur="0.7677164354894761s" begin="anim0.end" fill="freeze" id="anim1" /></path><path d="M 13.2 11.0 L 23.1 11.0 L 23.1 7.7 L 13.2 7.7 Z " transform="scale(1,-1)" stroke-dasharray="26.400000000000006" stroke-dashoffset="26.400000000000006"><animate attributeName="stroke-dashoffset" from="26.400000000000006" to="0" dur="0.7920000000000001s" begin="anim1.end" fill="freeze" id="anim2" /></path><path d="M 37.1 7.7 L 26.5 7.7 L 26.5 11.0 L 37.1 11.0 Z " transform="scale(1,-1)" stroke-dasharray="27.800000000000004" stroke-dashoffset="27.800000000000004"><animate attributeName="stroke-dashoffset" from="27.800000000000004" to="0" dur="0.8340000000000001s" begin="anim2.end" fill="freeze" id="anim3" /></path><path d="M 37.1 13.7 L 26.5 13.7 L 26.5 16.9 L 34.8 16.9 C 36.6 16.9 37.1 16.6 37.1 15.4 Z " transform="scale(1,-1)" stroke-dasharray="27.023127104657846" stroke-dashoffset="27.023127104657846"><animate attributeName="stroke-dashoffset" from="27.023127104657846" to="0" dur="0.8106938131397353s" begin="anim3.end" fill="freeze" id="anim4" /></path><path d="M 19.9 35.0 L 30.2 35.0 L 30.2 32.0 L 19.9 32.0 Z " transform="scale(1,-1)" stroke-dasharray="26.6" stroke-dashoffset="26.6"><animate attributeName="stroke-dashoffset" from="26.6" to="0" dur="0.798s" begin="anim4.end" fill="freeze" id="anim5" /></path><path d="M 30.2 26.0 L 19.9 26.0 L 19.9 29.1 L 30.2 29.1 Z" transform="scale(1,-1)" stroke-dasharray="26.800000000000004" stroke-dashoffset="26.800000000000004"><animate attributeName="stroke-dashoffset" from="26.800000000000004" to="0" dur="0.804s" begin="anim5.end" fill="freeze" id="anim_end" /></path></g></svg>