<?xml version='1.0' encoding='utf-8'?>
<svg viewBox="0 -44.0 50.0 50.0" version="1.1" xmlns="http://www.w3.org/2000/svg"><rect x="-1000" y="-1000" width="2000" height="2000" stroke="white" fill="white" /><g style="fill:none;stroke:#000000;stroke-width:1"><path d="M 7.0 5.9 C 7.0 3.1 8.3 2.0 11.5 2.0 L 16.6 2.0 C 19.8 2.0 21.1 3.1 21.1 5.9 L 21.1 16.9 C 21.1 19.8 19.8 20.9 16.6 20.9 L 11.5 20.9 C 10.9 20.9 10.2 20.8 9.8 20.7 C 13.9 22.8 17.7 25.6 20.8 29.0 L 28.8 29.0 C 32.0 25.8 35.8 23.1 40.0 21.2 C 39.5 21.4 38.8 21.4 38.1 21.4 L 31.3 21.4 C 27.5 21.4 26.2 20.1 26.2 17.3 L 26.2 14.2 C 26.2 7.0 24.4 2.5 20.6 -0.9 C 20.1 -1.4 19.8 -2.0 19.8 -2.5 C 19.8 -3.3 20.6 -4.0 21.5 -4.0 C 22.0 -4.0 22.5 -3.8 23.0 -3.4 C 25.6 -1.2 27.4 1.7 28.5 5.1 L 39.6 5.1 L 39.6 1.4 C 39.6 0.2 39.2 -0.1 38.3 -0.1 C 37.9 -0.1 37.1 -0.1 36.3 0.1 C 35.1 0.3 34.3 -0.6 34.3 -1.5 C 34.3 -2.2 34.8 -2.9 35.7 -3.1 C 36.5 -3.2 37.5 -3.4 38.3 -3.4 C 41.4 -3.4 43.0 -2.2 43.0 0.9 L 43.0 17.3 C 43.0 18.8 42.7 19.9 41.8 20.5 C 43.0 20.1 44.2 19.7 45.5 19.3 C 45.7 19.2 46.0 19.2 46.2 19.2 C 47.4 19.2 48.0 20.1 48.0 20.9 C 48.0 21.7 47.5 22.5 46.4 22.8 C 41.6 24.0 36.6 26.2 33.1 29.0 L 45.5 29.0 C 46.5 29.0 47.0 29.8 47.0 30.5 C 47.0 31.2 46.5 32.0 45.5 32.0 L 23.2 32.0 C 24.3 33.4 25.2 34.9 26.0 36.4 L 42.9 36.4 C 44.0 36.4 44.5 37.1 44.5 37.9 C 44.5 38.6 44.0 39.4 42.9 39.4 L 7.6 39.4 C 6.6 39.4 6.0 38.6 6.0 37.9 C 6.0 37.1 6.6 36.4 7.6 36.4 L 22.0 36.4 C 21.2 34.8 20.1 33.4 19.0 32.0 L 4.7 32.0 C 3.7 32.0 3.1 31.2 3.1 30.5 C 3.1 29.8 3.7 29.0 4.7 29.0 L 16.2 29.0 C 12.6 25.7 8.2 23.2 3.5 21.4 C 2.6 21.1 2.2 20.4 2.2 19.8 C 2.2 19.1 2.9 18.3 3.8 18.3 C 4.0 18.3 4.2 18.3 4.5 18.4 C 5.7 18.9 6.8 19.3 8.0 19.9 C 7.3 19.2 7.0 18.2 7.0 16.9 Z " transform="scale(1,-1)" stroke-dasharray="406.13092360899793" stroke-dashoffset="406.13092360899793"><animate attributeName="stroke-dashoffset" from="406.13092360899793" to="0" dur="12.183927708269938s" begin="0s; 15s; 30s; 45s; 60s" fill="freeze" id="anim0" /></path><path d="M 12.1 4.9 C 10.7 4.9 10.3 5.2 10.3 6.3 L 10.3 10.4 L 17.8 10.4 L 17.8 6.3 C 17.8 5.0 17.2 4.9 16.1 4.9 Z " transform="scale(1,-1)" stroke-dasharray="25.013090486178594" stroke-dashoffset="25.013090486178594"><animate attributeName="stroke-dashoffset" from="25.013090486178594" to="0" dur="0.7503927145853578s" begin="anim0.end" fill="freeze" id="anim1" /></path><path d="M 17.8 13.2 L 10.3 13.2 L 10.3 16.5 C 10.3 17.7 10.7 17.9 12.1 17.9 L 16.1 17.9 C 17.4 17.9 17.8 17.7 17.8 16.5 Z " transform="scale(1,-1)" stroke-dasharray="23.4566578243753" stroke-dashoffset="23.4566578243753"><animate attributeName="stroke-dashoffset" from="23.4566578243753" to="0" dur="0.7036997347312589s" begin="anim1.end" fill="freeze" id="anim2" /></path><path d="M 29.2 7.9 C 29.4 9.2 29.6 10.5 29.6 11.8 L 39.6 11.8 L 39.6 7.9 Z " transform="scale(1,-1)" stroke-dasharray="28.22450549873617" stroke-dashoffset="28.22450549873617"><animate attributeName="stroke-dashoffset" from="28.22450549873617" to="0" dur="0.8467351649620851s" begin="anim2.end" fill="freeze" id="anim3" /></path><path d="M 29.7 14.6 L 29.7 16.8 C 29.7 18.1 30.1 18.5 31.8 18.5 L 37.5 18.5 C 39.2 18.5 39.6 18.1 39.6 16.8 L 39.6 14.6 Z" transform="scale(1,-1)" stroke-dasharray="26.40849989863616" stroke-dashoffset="26.40849989863616"><animate attributeName="stroke-dashoffset" from="26.40849989863616" to="0" dur="0.7922549969590847s" begin="anim3.end" fill="freeze" id="anim_end" /></path></g></svg>