<?xml version='1.0' encoding='utf-8'?>
<svg viewBox="0 -44.0 50.0 50.0" version="1.1" xmlns="http://www.w3.org/2000/svg"><rect x="-1000" y="-1000" width="2000" height="2000" stroke="white" fill="white" /><g style="fill:none;stroke:#000000;stroke-width:1"><path d="M 29.9 8.3 L 29.9 6.0 C 29.9 5.0 29.4 4.7 28.4 4.7 C 27.8 4.7 27.2 4.8 26.6 4.9 C 25.2 5.2 24.5 4.4 24.5 3.6 C 24.5 2.9 24.9 2.2 25.8 2.0 C 26.7 1.8 27.6 1.7 28.4 1.7 C 31.7 1.7 33.1 2.8 33.1 5.5 L 33.1 8.3 L 39.5 8.3 C 40.4 8.3 40.8 9.0 40.8 9.7 C 40.8 10.4 40.4 11.0 39.5 11.0 L 33.1 11.0 L 33.1 12.0 C 33.1 13.0 32.2 13.5 31.5 13.5 C 30.7 13.5 29.9 13.0 29.9 12.0 L 29.9 11.0 L 10.9 11.0 C 10.0 11.0 9.5 10.4 9.5 9.7 C 9.5 9.0 10.0 8.3 10.9 8.3 Z " transform="scale(1,-1)" stroke-dasharray="90.23869814110465" stroke-dashoffset="90.23869814110465"><animate attributeName="stroke-dashoffset" from="90.23869814110465" to="0" dur="2.7071609442331392s" begin="0s; 15s; 30s; 45s; 60s" fill="freeze" id="anim0" /></path><path d="M 18.4 7.5 C 17.9 7.8 17.5 7.9 17.1 7.9 C 16.2 7.9 15.5 7.2 15.5 6.5 C 15.5 6.2 15.7 5.8 16.1 5.4 C 16.8 4.9 17.9 3.7 18.7 2.8 C 19.2 2.2 19.7 2.0 20.2 2.0 C 21.0 2.0 21.8 2.7 21.8 3.6 C 21.8 4.0 21.6 4.5 21.2 5.0 C 20.4 5.8 19.2 7.0 18.4 7.5 Z " transform="scale(1,-1)" stroke-dasharray="18.258357023255755" stroke-dashoffset="18.258357023255755"><animate attributeName="stroke-dashoffset" from="18.258357023255755" to="0" dur="0.5477507106976727s" begin="anim0.end" fill="freeze" id="anim1" /></path><path d="M 38.8 -2.6 C 43.9 -2.6 46.0 -0.6 46.0 3.6 L 46.0 33.9 C 46.0 38.0 43.9 39.9 38.8 39.9 L 11.2 39.9 C 6.1 39.9 4.0 38.0 4.0 33.9 L 4.0 3.6 C 4.2 -1.2 6.8 -2.5 11.2 -2.6 Z " transform="scale(1,-1)" stroke-dasharray="159.29913006662085" stroke-dashoffset="159.29913006662085"><animate attributeName="stroke-dashoffset" from="159.29913006662085" to="0" dur="4.778973901998625s" begin="anim1.end" fill="freeze" id="anim2" /></path><path d="M 23.3 36.9 L 23.3 34.6 L 11.8 34.6 C 10.9 34.6 10.5 34.0 10.5 33.2 C 10.5 32.6 10.9 31.9 11.8 31.9 L 23.3 31.9 L 23.3 29.9 L 17.9 29.9 C 14.3 29.9 13.2 28.6 13.2 26.4 L 13.2 21.6 C 13.3 18.6 15.3 18.1 17.9 18.0 L 23.3 18.0 L 23.3 15.9 C 19.6 15.7 15.7 15.6 12.0 15.5 C 11.1 15.5 10.6 14.8 10.6 14.1 C 10.6 13.4 11.1 12.6 12.1 12.7 C 19.6 12.9 27.7 13.5 34.6 14.4 C 34.9 14.1 35.2 13.7 35.5 13.4 C 35.9 12.9 36.5 12.7 37.0 12.7 C 37.8 12.7 38.6 13.2 38.6 14.1 C 38.6 14.4 38.4 14.8 38.1 15.2 C 37.1 16.2 35.9 17.4 34.6 18.2 C 36.3 18.8 36.9 19.9 36.9 21.6 L 36.9 26.4 C 36.9 28.6 35.9 29.9 32.2 29.9 L 26.4 29.9 L 26.4 31.9 L 38.4 31.9 C 39.3 31.9 39.8 32.6 39.8 33.2 C 39.8 34.0 39.3 34.6 38.4 34.6 L 26.4 34.6 L 26.4 36.9 L 38.2 36.9 C 41.4 36.9 42.4 36.0 42.4 33.5 L 42.4 4.0 C 42.3 1.0 40.9 0.6 38.2 0.6 L 11.8 0.6 C 8.6 0.6 7.7 1.5 7.7 4.0 L 7.7 33.5 C 7.7 36.0 8.6 36.9 11.8 36.9 Z " transform="scale(1,-1)" stroke-dasharray="300.8138378127496" stroke-dashoffset="300.8138378127496"><animate attributeName="stroke-dashoffset" from="300.8138378127496" to="0" dur="9.024415134382489s" begin="anim2.end" fill="freeze" id="anim3" /></path><path d="M 26.4 18.0 L 31.1 18.0 C 31.2 17.7 31.4 17.4 31.7 17.2 C 32.0 16.9 32.2 16.8 32.5 16.6 C 30.4 16.4 28.4 16.2 26.4 16.1 Z " transform="scale(1,-1)" stroke-dasharray="14.741752263154703" stroke-dashoffset="14.741752263154703"><animate attributeName="stroke-dashoffset" from="14.741752263154703" to="0" dur="0.44225256789464107s" begin="anim3.end" fill="freeze" id="anim4" /></path><path d="M 26.4 22.8 L 33.8 22.8 L 33.8 22.0 C 33.8 20.5 32.8 20.6 31.6 20.5 L 26.4 20.5 Z " transform="scale(1,-1)" stroke-dasharray="18.8007024662612" stroke-dashoffset="18.8007024662612"><animate attributeName="stroke-dashoffset" from="18.8007024662612" to="0" dur="0.564021073987836s" begin="anim4.end" fill="freeze" id="anim5" /></path><path d="M 23.3 22.8 L 23.3 20.5 L 18.6 20.5 C 16.7 20.5 16.4 20.9 16.4 22.0 L 16.4 22.8 Z " transform="scale(1,-1)" stroke-dasharray="17.84483429522769" stroke-dashoffset="17.84483429522769"><animate attributeName="stroke-dashoffset" from="17.84483429522769" to="0" dur="0.5353450288568308s" begin="anim5.end" fill="freeze" id="anim6" /></path><path d="M 26.4 27.4 L 31.6 27.4 C 33.5 27.4 33.8 27.0 33.8 25.9 L 33.8 25.1 L 26.4 25.1 Z " transform="scale(1,-1)" stroke-dasharray="18.844834295227678" stroke-dashoffset="18.844834295227678"><animate attributeName="stroke-dashoffset" from="18.844834295227678" to="0" dur="0.5653450288568304s" begin="anim6.end" fill="freeze" id="anim7" /></path><path d="M 23.3 27.4 L 23.3 25.1 L 16.4 25.1 L 16.4 25.9 C 16.4 27.0 16.7 27.4 18.6 27.4 Z" transform="scale(1,-1)" stroke-dasharray="17.844834295227685" stroke-dashoffset="17.844834295227685"><animate attributeName="stroke-dashoffset" from="17.844834295227685" to="0" dur="0.5353450288568306s" begin="anim7.end" fill="freeze" id="anim_end" /></path></g></svg>