<?xml version='1.0' encoding='utf-8'?>
<svg viewBox="0 -44.0 50.0 50.0" version="1.1" xmlns="http://www.w3.org/2000/svg"><rect x="-1000" y="-1000" width="2000" height="2000" stroke="white" fill="white" /><g style="fill:none;stroke:#000000;stroke-width:1"><path d="M 34.2 31.0 L 34.2 35.2 L 41.8 35.2 C 42.4 35.2 42.6 35.1 42.6 34.8 C 42.6 34.6 42.6 34.5 42.5 34.4 C 42.3 34.0 42.0 33.5 41.5 32.9 C 41.3 32.6 41.2 32.2 41.2 32.0 C 41.2 31.2 42.0 30.6 42.9 30.6 C 43.5 30.6 44.1 30.9 44.5 31.4 C 45.1 32.3 45.5 32.9 46.0 34.1 C 46.2 34.6 46.2 35.0 46.2 35.4 C 46.2 37.0 44.9 38.1 42.1 38.1 L 34.2 38.1 L 34.2 40.5 C 34.2 41.5 33.5 42.1 32.6 42.1 C 31.8 42.1 31.0 41.5 31.0 40.5 L 31.0 38.1 L 23.8 38.1 C 20.2 38.1 19.0 37.0 19.0 34.1 C 19.0 26.9 17.7 22.9 14.5 19.3 C 14.1 18.9 13.9 18.4 13.9 17.9 C 13.9 17.1 14.6 16.4 15.5 16.4 C 16.0 16.4 16.6 16.7 17.1 17.2 C 19.8 20.2 21.4 23.6 22.0 28.3 L 24.9 28.3 C 25.6 27.2 26.2 26.3 27.0 25.4 C 28.0 24.1 29.2 23.1 30.4 22.1 C 28.1 21.0 25.5 20.2 22.9 19.7 C 21.9 19.5 21.5 18.8 21.5 18.1 C 21.5 17.7 21.7 17.2 22.1 16.9 C 21.8 16.8 21.6 16.6 21.4 16.2 C 20.6 15.1 19.7 13.9 18.8 12.8 L 4.2 12.8 C 3.4 12.8 2.9 12.1 2.9 11.4 C 2.9 10.7 3.4 10.0 4.2 10.0 L 16.3 10.0 C 15.0 8.5 13.6 7.1 12.2 5.9 C 11.7 5.5 11.5 5.0 11.5 4.5 C 11.5 3.8 12.2 3.1 13.2 3.1 C 13.6 3.1 14.1 3.2 14.6 3.7 C 14.8 3.8 14.9 4.0 15.1 4.1 C 17.6 3.6 20.2 3.1 22.7 2.4 C 18.2 0.4 12.9 -0.7 6.9 -1.1 C 5.6 -1.1 5.1 -1.9 5.1 -2.6 C 5.1 -3.4 5.7 -4.2 6.9 -4.1 C 14.5 -3.7 21.3 -2.1 26.8 1.2 C 31.2 -0.2 35.5 -1.8 39.4 -3.5 C 39.7 -3.6 40.0 -3.7 40.3 -3.7 C 41.4 -3.7 42.1 -2.9 42.1 -2.1 C 42.1 -1.4 41.7 -0.8 40.7 -0.4 C 37.4 0.9 33.7 2.1 30.0 3.3 C 32.3 5.2 34.3 7.4 36.0 10.0 L 45.7 10.0 C 46.6 10.0 47.1 10.7 47.1 11.4 C 47.1 12.1 46.6 12.8 45.7 12.8 L 22.9 12.8 C 23.4 13.4 23.8 14.0 24.2 14.7 C 24.4 15.0 24.5 15.2 24.5 15.6 C 24.5 16.1 24.2 16.6 23.7 16.9 C 25.6 17.2 27.5 17.8 29.2 18.4 C 30.6 18.9 31.9 19.5 33.1 20.2 C 36.5 18.1 40.5 16.7 44.9 16.0 C 46.2 15.7 47.1 16.6 47.1 17.6 C 47.1 18.3 46.6 19.1 45.4 19.2 C 41.9 19.8 38.8 20.7 36.1 22.0 C 37.9 23.2 39.5 24.6 40.7 26.1 C 41.5 27.0 41.8 27.8 41.8 28.6 C 41.8 30.0 40.5 31.0 38.0 31.0 Z " transform="scale(1,-1)" stroke-dasharray="355.3056609995308" stroke-dashoffset="355.3056609995308"><animate attributeName="stroke-dashoffset" from="355.3056609995308" to="0" dur="10.659169829985924s" begin="0s; 15s; 30s; 45s; 60s" fill="freeze" id="anim0" /></path><path d="M 31.0 31.0 L 22.2 31.0 C 22.3 31.8 22.3 32.6 22.3 33.6 C 22.3 34.8 22.7 35.2 24.2 35.2 L 31.0 35.2 Z " transform="scale(1,-1)" stroke-dasharray="25.337570959942916" stroke-dashoffset="25.337570959942916"><animate attributeName="stroke-dashoffset" from="25.337570959942916" to="0" dur="0.7601271287982875s" begin="anim0.end" fill="freeze" id="anim1" /></path><path d="M 32.1 10.0 C 30.5 7.7 28.5 5.9 26.2 4.4 C 23.3 5.1 20.4 5.8 17.4 6.3 C 18.5 7.5 19.6 8.7 20.7 10.0 Z " transform="scale(1,-1)" stroke-dasharray="33.54927380485549" stroke-dashoffset="33.54927380485549"><animate attributeName="stroke-dashoffset" from="33.54927380485549" to="0" dur="1.0064782141456645s" begin="anim1.end" fill="freeze" id="anim2" /></path><path d="M 37.0 28.3 C 37.6 28.3 37.9 28.2 37.9 28.0 C 37.9 27.8 37.8 27.6 37.6 27.3 C 36.5 26.0 35.0 24.7 33.3 23.6 C 31.4 24.9 29.7 26.5 28.4 28.3 Z " transform="scale(1,-1)" stroke-dasharray="22.91112973232826" stroke-dashoffset="22.91112973232826"><animate attributeName="stroke-dashoffset" from="22.91112973232826" to="0" dur="0.6873338919698477s" begin="anim2.end" fill="freeze" id="anim3" /></path><path d="M 10.5 41.2 C 10.2 41.5 9.8 41.6 9.4 41.6 C 8.5 41.6 7.8 40.9 7.8 40.1 C 7.8 39.6 8.1 39.1 8.7 38.6 C 9.8 37.8 11.1 36.8 12.1 35.8 C 12.6 35.4 13.0 35.1 13.5 35.1 C 14.3 35.1 15.1 35.9 15.1 36.8 C 15.1 37.2 14.8 37.8 14.3 38.3 C 13.2 39.3 11.6 40.6 10.5 41.2 Z " transform="scale(1,-1)" stroke-dasharray="20.539660265122627" stroke-dashoffset="20.539660265122627"><animate attributeName="stroke-dashoffset" from="20.539660265122627" to="0" dur="0.6161898079536788s" begin="anim3.end" fill="freeze" id="anim4" /></path><path d="M 6.4 34.8 C 6.0 35.0 5.7 35.1 5.4 35.1 C 4.4 35.1 3.7 34.4 3.7 33.5 C 3.7 33.0 4.0 32.5 4.7 32.0 C 5.5 31.4 6.7 30.4 8.0 29.2 C 8.4 28.9 8.8 28.7 9.3 28.7 C 10.2 28.7 10.9 29.4 10.9 30.3 C 10.9 30.8 10.7 31.4 10.2 31.9 C 9.0 33.0 7.6 34.1 6.4 34.8 Z " transform="scale(1,-1)" stroke-dasharray="20.386416181147997" stroke-dashoffset="20.386416181147997"><animate attributeName="stroke-dashoffset" from="20.386416181147997" to="0" dur="0.6115924854344399s" begin="anim4.end" fill="freeze" id="anim5" /></path><path d="M 11.2 26.2 C 9.8 23.8 7.5 21.0 5.2 18.9 C 4.7 18.4 4.5 17.9 4.5 17.4 C 4.5 16.5 5.2 15.8 6.2 15.8 C 6.7 15.8 7.2 16.0 7.8 16.5 C 10.2 18.8 12.7 22.0 14.2 24.5 C 14.4 24.8 14.5 25.2 14.5 25.5 C 14.5 26.4 13.7 27.1 12.8 27.1 C 12.2 27.1 11.7 26.8 11.2 26.2 Z" transform="scale(1,-1)" stroke-dasharray="31.39388700452752" stroke-dashoffset="31.39388700452752"><animate attributeName="stroke-dashoffset" from="31.39388700452752" to="0" dur="0.9418166101358256s" begin="anim5.end" fill="freeze" id="anim_end" /></path></g></svg>