<?xml version='1.0' encoding='utf-8'?>
<svg viewBox="0 -44.0 50.0 50.0" version="1.1" xmlns="http://www.w3.org/2000/svg"><rect x="-1000" y="-1000" width="2000" height="2000" stroke="white" fill="white" /><g style="fill:none;stroke:#000000;stroke-width:1"><path d="M 25.8 9.9 L 35.9 9.9 C 39.8 9.9 41.8 11.6 41.8 15.2 L 41.8 26.1 C 41.8 27.2 40.9 27.7 40.0 27.7 C 39.1 27.7 38.1 27.2 38.1 26.1 L 38.1 15.8 C 38.1 13.9 37.3 13.1 34.7 13.1 L 25.8 13.1 L 25.8 30.4 C 32.6 31.6 39.2 33.2 43.8 35.0 C 44.6 35.2 44.9 35.9 44.9 36.6 C 44.9 37.5 44.2 38.4 43.2 38.4 C 43.0 38.4 42.7 38.4 42.5 38.2 C 38.1 36.6 32.2 35.0 25.8 33.7 L 25.8 40.8 C 25.8 41.9 25.0 42.4 24.1 42.4 C 23.2 42.4 22.3 41.9 22.3 40.8 L 22.3 33.1 C 16.0 32.0 9.6 31.2 4.1 31.1 C 3.1 31.1 2.6 30.3 2.6 29.5 C 2.6 28.7 3.2 27.8 4.2 27.9 C 9.6 28.1 16.0 28.8 22.3 29.8 L 22.3 13.1 L 14.2 13.1 C 11.7 13.1 10.8 13.9 10.8 15.8 L 10.8 23.1 C 10.8 24.2 9.9 24.7 9.0 24.7 C 8.1 24.7 7.2 24.2 7.2 23.1 L 7.2 15.2 C 7.2 11.6 9.2 9.9 13.1 9.9 L 22.3 9.9 L 22.3 2.4 C 22.3 -1.7 23.9 -3.4 34.1 -3.4 C 45.1 -3.4 47.1 -1.8 48.0 5.8 C 48.2 7.0 47.2 7.6 46.2 7.6 C 45.5 7.6 44.8 7.2 44.7 6.2 C 44.0 0.9 42.8 -0.1 34.1 -0.1 C 26.7 -0.1 25.8 0.8 25.8 3.0 Z" transform="scale(1,-1)" stroke-dasharray="327.4717936094803" stroke-dashoffset="327.4717936094803"><animate attributeName="stroke-dashoffset" from="327.4717936094803" to="0" dur="9.824153808284409s" begin="0s; 15s; 30s; 45s; 60s" fill="freeze" id="anim0" /></path></g></svg>