<?xml version='1.0' encoding='utf-8'?>
<svg viewBox="0 -44.0 50.0 50.0" version="1.1" xmlns="http://www.w3.org/2000/svg"><rect x="-1000" y="-1000" width="2000" height="2000" stroke="white" fill="white" /><g style="fill:none;stroke:#000000;stroke-width:1"><path d="M 7.0 15.6 L 13.5 15.6 C 15.1 15.6 15.6 15.1 15.6 13.8 C 15.5 10.2 14.9 6.4 14.1 3.6 C 13.6 1.5 12.5 0.9 10.5 0.9 C 9.6 0.9 8.4 1.1 7.5 1.4 C 7.3 1.4 7.1 1.5 6.9 1.5 C 5.9 1.5 5.2 0.6 5.2 -0.3 C 5.2 -1.0 5.7 -1.8 6.6 -2.1 C 7.8 -2.5 9.2 -2.7 10.5 -2.7 C 14.5 -2.7 16.4 -1.2 17.6 3.0 C 18.4 5.8 18.9 9.8 19.1 14.1 C 19.2 17.1 17.7 18.6 14.2 18.6 L 7.6 18.6 L 8.6 24.5 C 8.7 25.4 9.1 25.8 10.2 25.8 L 14.3 25.8 C 17.7 25.8 19.1 27.0 19.1 29.8 L 19.1 35.1 C 19.1 38.0 17.7 39.2 14.3 39.2 L 5.4 39.2 C 4.4 39.2 4.0 38.5 4.0 37.7 C 4.0 37.0 4.4 36.2 5.4 36.2 L 13.6 36.2 C 15.1 36.2 15.6 35.9 15.6 34.6 L 15.6 30.4 C 15.6 29.1 15.1 28.8 13.6 28.8 L 9.8 28.8 C 6.8 28.8 5.9 27.9 5.4 25.3 L 3.6 15.2 C 3.3 13.9 4.2 13.2 5.1 13.2 C 5.9 13.2 6.7 13.8 6.9 14.9 Z " transform="scale(1,-1)" stroke-dasharray="164.46056847156507" stroke-dashoffset="164.46056847156507"><animate attributeName="stroke-dashoffset" from="164.46056847156507" to="0" dur="4.933817054146952s" begin="0s; 15s; 30s; 45s; 60s" fill="freeze" id="anim0" /></path><path d="M 27.1 3.3 C 30.7 14.5 33.6 26.6 35.1 37.7 C 35.4 39.2 34.3 40.0 33.2 40.0 C 32.3 40.0 31.4 39.4 31.2 38.2 C 29.8 26.9 27.1 14.7 23.4 2.9 C 22.7 2.8 21.9 2.7 21.2 2.7 C 20.1 2.6 19.5 1.7 19.5 0.9 C 19.5 -0.1 20.2 -1.1 21.7 -0.9 C 28.6 -0.1 35.6 1.1 42.6 2.8 C 42.9 1.9 43.2 0.9 43.6 -0.1 C 43.9 -1.1 44.7 -1.6 45.4 -1.6 C 46.4 -1.6 47.3 -0.8 47.3 0.5 C 47.3 0.8 47.2 1.1 47.2 1.4 C 45.2 6.8 42.7 12.0 39.8 16.4 C 39.3 17.2 38.7 17.6 38.0 17.6 C 37.1 17.6 36.4 16.9 36.4 16.0 C 36.4 15.6 36.5 15.2 36.7 14.8 C 38.5 11.9 40.0 8.9 41.4 5.7 C 39.1 5.2 36.7 4.8 34.4 4.4 C 32.0 4.0 29.6 3.6 27.1 3.3 Z" transform="scale(1,-1)" stroke-dasharray="164.6112573033476" stroke-dashoffset="164.6112573033476"><animate attributeName="stroke-dashoffset" from="164.6112573033476" to="0" dur="4.938337719100428s" begin="anim0.end" fill="freeze" id="anim_end" /></path></g></svg>