<?xml version='1.0' encoding='utf-8'?>
<svg viewBox="0 -44.0 50.0 50.0" version="1.1" xmlns="http://www.w3.org/2000/svg"><rect x="-1000" y="-1000" width="2000" height="2000" stroke="white" fill="white" /><g style="fill:none;stroke:#000000;stroke-width:1"><path d="M 21.4 23.0 C 18.7 16.7 15.2 11.2 11.2 7.1 C 10.8 6.6 10.6 6.2 10.6 5.7 C 10.6 4.9 11.2 4.2 12.2 4.2 C 12.6 4.2 13.2 4.4 13.6 4.9 C 17.4 8.7 20.8 14.0 22.8 18.5 L 22.6 7.4 L 22.6 -1.3 C 22.6 -2.4 23.5 -2.9 24.3 -2.9 C 25.2 -2.9 26.1 -2.4 26.1 -1.3 L 26.1 15.8 C 28.9 13.2 31.6 10.0 33.6 7.1 C 34.1 6.2 34.8 5.9 35.4 5.9 C 36.3 5.9 37.0 6.7 37.0 7.7 C 37.0 8.1 36.9 8.7 36.5 9.2 C 34.0 12.6 30.2 16.4 26.1 19.4 L 26.1 23.0 L 34.1 23.0 C 35.1 23.0 35.6 23.7 35.6 24.5 C 35.6 25.2 35.1 26.0 34.1 26.0 L 26.1 26.0 L 26.1 33.1 C 26.1 34.1 25.2 34.7 24.3 34.7 C 23.5 34.7 22.6 34.1 22.6 33.1 L 22.6 26.0 L 14.8 26.0 C 13.8 26.0 13.3 25.2 13.3 24.5 C 13.3 23.7 13.8 23.0 14.8 23.0 Z " transform="scale(1,-1)" stroke-dasharray="179.0254784481012" stroke-dashoffset="179.0254784481012"><animate attributeName="stroke-dashoffset" from="179.0254784481012" to="0" dur="5.370764353443036s" begin="0s; 15s; 30s; 45s; 60s" fill="freeze" id="anim0" /></path><path d="M 12.8 39.5 C 8.8 39.5 7.2 37.4 7.2 34.1 L 7.2 23.8 C 7.2 12.4 5.2 5.6 2.1 0.6 C 1.8 0.1 1.6 -0.5 1.6 -0.9 C 1.6 -2.0 2.4 -2.6 3.2 -2.6 C 3.9 -2.6 4.5 -2.2 5.0 -1.5 C 8.3 4.0 10.7 12.0 10.7 23.7 L 10.7 33.6 C 10.7 35.5 11.3 36.3 13.3 36.3 L 35.0 36.3 C 37.0 36.3 37.6 35.4 37.6 33.6 L 37.6 27.6 C 37.6 16.3 38.2 9.4 39.4 4.6 C 40.6 -0.3 42.4 -1.9 44.5 -1.9 C 46.8 -1.9 48.5 0.1 49.1 5.5 C 49.2 6.8 48.3 7.5 47.5 7.5 C 46.7 7.5 46.0 7.0 45.9 6.0 C 45.5 2.6 45.0 1.9 44.4 1.9 C 43.9 1.9 43.3 2.6 42.7 5.5 C 41.8 10.0 41.1 16.5 41.1 28.5 L 41.1 34.1 C 41.1 37.4 39.5 39.5 35.6 39.5 Z" transform="scale(1,-1)" stroke-dasharray="238.19616631169" stroke-dashoffset="238.19616631169"><animate attributeName="stroke-dashoffset" from="238.19616631169" to="0" dur="7.1458849893507s" begin="anim0.end" fill="freeze" id="anim_end" /></path></g></svg>