<?xml version='1.0' encoding='utf-8'?>
<svg viewBox="0 -44.0 50.0 50.0" version="1.1" xmlns="http://www.w3.org/2000/svg"><rect x="-1000" y="-1000" width="2000" height="2000" stroke="white" fill="white" /><g style="fill:none;stroke:#000000;stroke-width:1"><path d="M 8.3 -2.7 C 8.3 -3.8 9.2 -4.2 10.1 -4.2 C 11.0 -4.2 11.8 -3.8 11.8 -2.7 L 11.8 18.9 C 11.8 19.8 11.2 20.4 10.5 20.5 C 12.3 22.9 13.9 25.4 15.1 27.7 C 15.2 28.1 15.3 28.4 15.3 28.7 C 15.3 29.8 14.5 30.5 13.6 30.5 C 13.0 30.5 12.3 30.1 11.9 29.2 C 9.7 24.8 5.9 19.4 2.5 16.3 C 1.9 15.8 1.7 15.2 1.7 14.8 C 1.7 14.0 2.3 13.3 3.1 13.3 C 3.5 13.3 4.0 13.5 4.4 13.9 C 5.7 14.9 7.0 16.2 8.3 17.8 Z " transform="scale(1,-1)" stroke-dasharray="91.24329980692137" stroke-dashoffset="91.24329980692137"><animate attributeName="stroke-dashoffset" from="91.24329980692137" to="0" dur="2.737298994207641s" begin="0s; 15s; 30s; 45s; 60s" fill="freeze" id="anim0" /></path><path d="M 30.3 26.5 L 30.3 16.6 L 21.3 16.6 C 20.4 16.6 19.9 15.8 19.9 15.0 C 19.9 14.2 20.4 13.4 21.3 13.4 L 30.3 13.4 L 30.3 1.4 L 17.0 1.4 C 16.1 1.4 15.6 0.6 15.6 -0.2 C 15.6 -1.1 16.1 -1.9 17.0 -1.9 L 46.4 -1.9 C 47.4 -1.9 47.8 -1.1 47.8 -0.2 C 47.8 0.6 47.4 1.4 46.4 1.4 L 33.9 1.4 L 33.9 13.4 L 43.1 13.4 C 44.2 13.4 44.7 14.2 44.7 15.0 C 44.7 15.8 44.2 16.6 43.1 16.6 L 33.9 16.6 L 33.9 26.5 L 45.4 26.5 C 46.4 26.5 46.9 27.2 46.9 28.0 C 46.9 28.8 46.4 29.6 45.4 29.6 L 33.9 29.6 L 33.9 40.0 C 33.9 41.0 33.0 41.5 32.1 41.5 C 31.2 41.5 30.3 41.0 30.3 40.0 L 30.3 29.6 L 23.5 29.6 C 24.2 31.5 24.9 33.5 25.4 35.3 C 25.5 35.5 25.5 35.7 25.5 35.9 C 25.5 37.0 24.6 37.6 23.7 37.6 C 23.0 37.6 22.2 37.2 22.0 36.2 C 21.0 32.0 18.8 26.9 16.6 23.6 C 16.3 23.1 16.2 22.7 16.2 22.3 C 16.2 21.4 16.9 20.7 17.8 20.7 C 18.4 20.7 19.0 21.0 19.5 21.7 C 20.5 23.2 21.3 24.8 22.1 26.5 Z " transform="scale(1,-1)" stroke-dasharray="260.8324906074456" stroke-dashoffset="260.8324906074456"><animate attributeName="stroke-dashoffset" from="260.8324906074456" to="0" dur="7.824974718223368s" begin="anim0.end" fill="freeze" id="anim1" /></path><path d="M 10.7 40.5 C 8.6 36.8 5.5 32.9 2.8 30.8 C 2.1 30.2 1.9 29.7 1.9 29.2 C 1.9 28.4 2.6 27.7 3.4 27.7 C 3.9 27.7 4.4 27.9 4.9 28.2 C 7.9 30.6 11.7 35.0 13.8 38.6 C 14.0 39.0 14.1 39.4 14.1 39.7 C 14.1 40.8 13.2 41.5 12.3 41.5 C 11.7 41.5 11.1 41.2 10.7 40.5 Z" transform="scale(1,-1)" stroke-dasharray="38.13565123071882" stroke-dashoffset="38.13565123071882"><animate attributeName="stroke-dashoffset" from="38.13565123071882" to="0" dur="1.1440695369215645s" begin="anim1.end" fill="freeze" id="anim_end" /></path></g></svg>