<?xml version='1.0' encoding='utf-8'?>
<svg viewBox="0 -44.0 50.0 50.0" version="1.1" xmlns="http://www.w3.org/2000/svg"><rect x="-1000" y="-1000" width="2000" height="2000" stroke="white" fill="white" /><g style="fill:none;stroke:#000000;stroke-width:1"><path d="M 26.6 24.2 L 33.8 24.2 C 34.1 18.9 34.6 14.5 35.4 10.9 C 35.6 10.0 35.8 9.2 36.0 8.4 C 34.0 5.7 31.8 3.4 29.6 1.6 C 29.0 1.1 28.8 0.6 28.8 0.2 C 28.8 -0.7 29.5 -1.4 30.3 -1.4 C 30.7 -1.4 31.1 -1.2 31.5 -1.0 C 33.4 0.6 35.3 2.5 37.1 4.6 C 39.0 -0.8 41.1 -2.9 43.4 -2.9 C 45.8 -2.9 47.5 -0.8 48.0 4.7 C 48.1 6.0 47.2 6.6 46.4 6.6 C 45.6 6.6 44.9 6.1 44.8 5.0 C 44.5 1.6 44.0 1.1 43.2 1.1 C 42.5 1.1 41.1 2.6 39.6 7.9 C 41.9 11.2 43.9 14.9 45.3 18.4 C 45.4 18.7 45.5 18.9 45.5 19.2 C 45.5 20.2 44.5 21.0 43.6 21.0 C 43.1 21.0 42.5 20.7 42.2 19.9 C 41.2 17.2 40.0 14.7 38.5 12.2 C 37.7 16.2 37.4 20.2 37.1 24.3 L 45.5 24.4 C 46.5 24.4 47.0 25.2 47.0 25.9 C 47.0 26.7 46.4 27.5 45.4 27.5 L 37.0 27.4 C 36.8 31.2 36.7 35.4 36.7 39.8 C 36.7 40.9 35.9 41.4 35.0 41.4 C 34.1 41.4 33.3 40.9 33.3 39.9 C 33.3 35.7 33.4 31.5 33.6 27.4 L 26.6 27.2 L 26.6 35.4 C 27.8 36.2 29.0 37.1 30.0 38.0 C 30.4 38.3 30.5 38.7 30.5 39.1 C 30.5 40.0 29.7 40.9 28.8 40.9 C 28.3 40.9 27.9 40.7 27.5 40.3 C 25.3 38.2 21.6 36.0 18.5 34.8 C 17.7 34.5 17.4 33.9 17.4 33.2 C 17.4 32.5 17.9 31.7 18.9 31.7 C 19.2 31.7 19.4 31.8 19.7 31.9 C 20.8 32.2 22.0 32.8 23.2 33.5 L 23.2 27.2 L 17.7 27.1 C 16.8 27.1 16.4 26.3 16.4 25.6 C 16.4 24.8 16.8 24.0 17.8 24.0 L 23.2 24.1 L 23.2 13.9 C 20.9 13.1 18.4 12.2 16.2 11.7 C 15.2 11.4 14.8 10.8 14.8 10.1 C 14.8 9.2 15.5 8.3 16.6 8.3 C 16.8 8.3 16.9 8.4 17.2 8.5 C 19.1 9.0 21.2 9.7 23.2 10.5 L 23.2 1.6 C 23.2 0.2 22.8 -0.2 21.8 -0.2 C 20.9 -0.2 20.1 -0.2 19.3 -0.1 C 18.2 0.2 17.5 -0.7 17.5 -1.6 C 17.5 -2.3 17.9 -3.1 19.0 -3.3 C 19.9 -3.5 20.8 -3.7 21.8 -3.7 C 25.2 -3.7 26.6 -2.2 26.6 1.3 L 26.6 11.9 C 28.2 12.5 29.6 13.2 30.9 13.8 C 31.6 14.2 32.0 14.8 32.0 15.4 C 32.0 16.2 31.4 16.9 30.5 16.9 C 30.2 16.9 29.9 16.8 29.6 16.7 C 28.6 16.2 27.6 15.7 26.6 15.3 Z " transform="scale(1,-1)" stroke-dasharray="333.10699020390274" stroke-dashoffset="333.10699020390274"><animate attributeName="stroke-dashoffset" from="333.10699020390274" to="0" dur="9.993209706117081s" begin="0s; 15s; 30s; 45s; 60s" fill="freeze" id="anim0" /></path><path d="M 10.3 10.1 C 13.3 10.1 14.7 11.3 14.7 14.4 L 14.7 32.6 C 14.7 35.7 13.3 37.0 10.3 37.0 L 7.2 37.0 C 4.2 37.0 2.9 35.7 2.9 32.6 L 2.9 14.4 C 2.9 11.3 4.2 10.1 7.2 10.1 Z " transform="scale(1,-1)" stroke-dasharray="71.13610811926486" stroke-dashoffset="71.13610811926486"><animate attributeName="stroke-dashoffset" from="71.13610811926486" to="0" dur="2.1340832435779458s" begin="anim0.end" fill="freeze" id="anim1" /></path><path d="M 7.9 13.1 C 6.7 13.1 6.2 13.5 6.2 14.9 L 6.2 32.1 C 6.2 33.6 6.7 34.0 7.9 34.0 L 9.7 34.0 C 10.9 34.0 11.2 33.6 11.2 32.1 L 11.2 14.9 C 11.2 13.7 11.0 13.1 9.7 13.1 Z " transform="scale(1,-1)" stroke-dasharray="49.542442955616345" stroke-dashoffset="49.542442955616345"><animate attributeName="stroke-dashoffset" from="49.542442955616345" to="0" dur="1.4862732886684902s" begin="anim1.end" fill="freeze" id="anim2" /></path><path d="M 41.7 37.5 C 41.2 37.9 40.8 38.1 40.4 38.1 C 39.5 38.1 38.8 37.4 38.8 36.6 C 38.8 36.2 38.9 35.9 39.2 35.6 C 40.1 34.5 41.2 32.9 41.9 31.5 C 42.2 30.8 42.9 30.5 43.4 30.5 C 44.3 30.5 45.1 31.2 45.1 32.2 C 45.1 32.6 45.0 33.0 44.8 33.5 C 44.0 34.8 42.7 36.5 41.7 37.5 Z" transform="scale(1,-1)" stroke-dasharray="20.912480481262584" stroke-dashoffset="20.912480481262584"><animate attributeName="stroke-dashoffset" from="20.912480481262584" to="0" dur="0.6273744144378774s" begin="anim2.end" fill="freeze" id="anim_end" /></path></g></svg>