<?xml version='1.0' encoding='utf-8'?>
<svg viewBox="0 -44.0 50.0 50.0" version="1.1" xmlns="http://www.w3.org/2000/svg"><rect x="-1000" y="-1000" width="2000" height="2000" stroke="white" fill="white" /><g style="fill:none;stroke:#000000;stroke-width:1"><path d="M 28.2 14.2 C 28.7 15.2 29.2 16.4 29.5 17.6 L 45.7 17.6 C 46.7 17.6 47.2 18.3 47.2 19.1 C 47.2 19.8 46.7 20.6 45.7 20.6 L 30.3 20.6 C 30.6 21.7 30.8 22.9 31.0 24.1 L 43.9 24.1 C 44.8 24.1 45.3 24.9 45.3 25.6 C 45.3 26.3 44.8 27.0 43.9 27.0 L 40.1 27.0 C 41.4 28.9 42.6 30.9 43.6 32.9 C 43.8 33.3 43.9 33.7 43.9 34.0 C 43.9 35.1 43.0 35.6 42.2 35.6 C 41.5 35.6 40.9 35.2 40.5 34.5 C 39.5 31.9 38.1 29.5 36.5 27.0 L 21.5 27.0 C 20.5 27.0 20.1 26.3 20.1 25.6 C 20.1 24.9 20.5 24.1 21.5 24.1 L 27.6 24.1 C 27.4 22.9 27.2 21.8 26.9 20.6 L 20.0 20.6 C 19.1 20.6 18.6 19.8 18.6 19.1 C 18.6 18.3 19.1 17.6 20.0 17.6 L 26.1 17.6 C 24.0 11.3 20.4 5.5 15.9 1.6 C 15.3 1.2 15.1 0.7 15.1 0.2 C 15.1 -0.7 15.8 -1.3 16.7 -1.3 C 17.2 -1.3 17.7 -1.2 18.2 -0.7 C 21.4 2.1 24.2 6.0 26.5 10.2 C 27.8 7.9 29.6 5.7 31.7 3.8 C 28.9 2.0 25.7 0.5 22.3 -0.6 C 21.4 -0.9 21.0 -1.6 21.0 -2.1 C 21.0 -3.0 21.7 -3.8 22.6 -3.8 C 22.8 -3.8 23.0 -3.7 23.2 -3.7 C 27.3 -2.4 31.1 -0.7 34.4 1.7 C 37.5 -0.6 41.1 -2.1 44.9 -3.1 C 46.4 -3.5 47.2 -2.4 47.2 -1.4 C 47.2 -0.6 46.8 0.2 45.7 0.5 C 42.6 1.2 39.7 2.2 37.1 3.8 C 38.7 5.2 40.1 6.7 41.2 8.3 C 42.0 9.3 42.4 10.3 42.4 11.2 C 42.4 13.0 40.8 14.2 38.1 14.2 Z " transform="scale(1,-1)" stroke-dasharray="260.025149587757" stroke-dashoffset="260.025149587757"><animate attributeName="stroke-dashoffset" from="260.025149587757" to="0" dur="7.800754487632711s" begin="0s; 15s; 30s; 45s; 60s" fill="freeze" id="anim0" /></path><path d="M 37.3 11.2 C 38.1 11.2 38.6 11.0 38.6 10.6 C 38.6 10.4 38.5 10.1 38.2 9.8 C 37.2 8.4 35.9 7.0 34.3 5.8 C 32.3 7.3 30.6 9.2 29.2 11.2 Z " transform="scale(1,-1)" stroke-dasharray="23.657674884479178" stroke-dashoffset="23.657674884479178"><animate attributeName="stroke-dashoffset" from="23.657674884479178" to="0" dur="0.7097302465343753s" begin="anim0.end" fill="freeze" id="anim1" /></path><path d="M 6.4 12.1 C 7.5 11.6 8.5 11.0 9.6 10.4 C 7.9 6.9 5.6 3.8 3.0 1.5 C 2.5 1.1 2.2 0.6 2.2 0.1 C 2.2 -0.8 3.0 -1.5 3.9 -1.5 C 4.2 -1.5 4.7 -1.3 5.2 -0.9 C 7.9 1.5 10.4 4.7 12.4 8.6 C 13.5 7.8 14.6 7.0 15.5 6.1 C 15.9 5.8 16.2 5.7 16.6 5.7 C 17.4 5.7 18.1 6.4 18.1 7.3 C 18.1 7.8 17.9 8.3 17.3 8.8 C 16.2 9.7 15.0 10.6 13.7 11.4 C 15.6 16.1 16.9 21.5 17.1 27.1 C 17.2 30.0 15.7 31.4 12.8 31.4 L 10.5 31.4 C 11.0 34.2 11.4 37.2 11.7 40.1 C 11.9 41.2 10.9 41.8 10.0 41.8 C 9.2 41.8 8.5 41.4 8.4 40.4 C 8.1 37.4 7.7 34.3 7.2 31.4 L 3.5 31.4 C 2.5 31.4 2.1 30.6 2.1 29.9 C 2.1 29.2 2.5 28.4 3.5 28.4 L 6.7 28.4 C 5.7 22.8 4.5 17.4 3.1 12.8 C 3.1 12.6 3.0 12.4 3.0 12.2 C 3.0 11.2 3.8 10.7 4.6 10.7 C 5.5 10.7 6.2 11.3 6.3 11.9 Z " transform="scale(1,-1)" stroke-dasharray="127.83667570326783" stroke-dashoffset="127.83667570326783"><animate attributeName="stroke-dashoffset" from="127.83667570326783" to="0" dur="3.835100271098035s" begin="anim1.end" fill="freeze" id="anim2" /></path><path d="M 12.2 28.4 C 13.5 28.4 13.7 28.1 13.7 26.8 C 13.4 21.9 12.4 17.2 10.8 13.0 C 9.6 13.7 8.3 14.2 7.1 14.8 C 8.2 19.3 9.2 23.9 10.0 28.4 Z " transform="scale(1,-1)" stroke-dasharray="37.03193586480464" stroke-dashoffset="37.03193586480464"><animate attributeName="stroke-dashoffset" from="37.03193586480464" to="0" dur="1.110958075944139s" begin="anim2.end" fill="freeze" id="anim3" /></path><path d="M 33.0 34.2 C 32.6 34.8 32.0 35.0 31.5 35.0 C 30.6 35.0 29.9 34.5 29.9 33.6 C 29.9 33.4 30.0 33.0 30.2 32.6 C 30.8 31.6 31.4 30.5 31.8 29.4 C 32.1 28.6 32.6 28.3 33.3 28.3 C 34.1 28.3 35.0 28.9 35.0 30.0 C 35.0 30.2 35.0 30.4 34.9 30.7 C 34.5 31.7 33.7 33.1 33.0 34.2 Z " transform="scale(1,-1)" stroke-dasharray="18.181731406682335" stroke-dashoffset="18.181731406682335"><animate attributeName="stroke-dashoffset" from="18.181731406682335" to="0" dur="0.54545194220047s" begin="anim3.end" fill="freeze" id="anim4" /></path><path d="M 25.4 33.4 C 25.0 33.9 24.4 34.1 23.9 34.1 C 23.1 34.1 22.2 33.6 22.2 32.8 C 22.2 32.5 22.4 32.1 22.6 31.8 C 23.2 30.7 23.8 29.7 24.2 28.6 C 24.6 27.9 25.2 27.6 25.8 27.6 C 26.7 27.6 27.5 28.2 27.5 29.2 C 27.5 29.5 27.4 29.7 27.3 30.0 C 26.8 31.2 26.0 32.5 25.4 33.4 Z " transform="scale(1,-1)" stroke-dasharray="18.069224693320045" stroke-dashoffset="18.069224693320045"><animate attributeName="stroke-dashoffset" from="18.069224693320045" to="0" dur="0.5420767407996013s" begin="anim4.end" fill="freeze" id="anim5" /></path><path d="M 42.2 40.6 C 35.6 39.2 27.4 38.1 20.6 37.8 C 19.5 37.7 18.9 37.0 18.9 36.2 C 18.9 35.5 19.6 34.6 20.9 34.6 C 27.7 34.9 36.1 35.9 42.8 37.2 C 44.0 37.5 44.5 38.2 44.5 39.0 C 44.5 39.9 43.6 40.9 42.2 40.6 Z" transform="scale(1,-1)" stroke-dasharray="55.19110477167651" stroke-dashoffset="55.19110477167651"><animate attributeName="stroke-dashoffset" from="55.19110477167651" to="0" dur="1.655733143150295s" begin="anim5.end" fill="freeze" id="anim_end" /></path></g></svg>