<?xml version='1.0' encoding='utf-8'?>
<svg viewBox="0 -44.0 50.0 50.0" version="1.1" xmlns="http://www.w3.org/2000/svg"><rect x="-1000" y="-1000" width="2000" height="2000" stroke="white" fill="white" /><g style="fill:none;stroke:#000000;stroke-width:1"><path d="M 31.2 26.4 L 31.1 26.6 C 32.0 28.8 32.8 31.5 33.5 34.2 C 33.6 34.8 33.7 35.4 33.7 35.9 C 33.7 38.0 32.4 39.2 29.4 39.2 L 6.8 39.2 C 5.8 39.2 5.4 38.4 5.4 37.6 C 5.4 36.8 5.8 36.0 6.8 36.0 L 15.6 36.0 C 15.1 19.7 10.6 8.3 3.0 0.2 C 2.6 -0.2 2.5 -0.6 2.5 -1.0 C 2.5 -1.8 3.2 -2.6 4.0 -2.6 C 4.5 -2.6 4.9 -2.4 5.3 -2.0 C 11.8 4.5 16.2 13.0 18.1 24.2 C 20.1 18.4 23.2 13.0 27.5 8.5 C 22.6 4.0 16.9 0.8 11.6 -0.8 C 10.7 -1.1 10.3 -1.8 10.3 -2.4 C 10.3 -3.2 10.9 -4.0 11.9 -4.0 C 12.1 -4.0 12.3 -3.9 12.5 -3.9 C 18.6 -2.1 24.7 1.2 30.0 6.0 C 34.3 2.0 39.4 -1.1 44.8 -3.0 C 45.2 -3.1 45.5 -3.2 45.7 -3.2 C 46.9 -3.2 47.7 -2.2 47.7 -1.2 C 47.7 -0.5 47.2 0.4 46.1 0.7 C 41.1 2.4 36.5 5.1 32.5 8.5 C 35.9 12.0 38.8 16.2 40.8 21.0 C 41.1 21.8 41.3 22.5 41.3 23.1 C 41.3 25.0 39.9 26.4 37.0 26.4 Z " transform="scale(1,-1)" stroke-dasharray="257.74114539737644" stroke-dashoffset="257.74114539737644"><animate attributeName="stroke-dashoffset" from="257.74114539737644" to="0" dur="7.732234361921293s" begin="0s; 15s; 30s; 45s; 60s" fill="freeze" id="anim0" /></path><path d="M 28.5 36.0 C 29.5 36.0 30.0 35.6 30.0 35.0 C 30.0 34.8 29.9 34.6 29.9 34.4 C 29.2 32.0 28.5 29.6 27.7 27.6 C 27.4 26.9 27.2 26.4 27.2 25.9 C 27.2 24.2 28.6 23.3 30.5 23.3 L 36.0 23.3 C 36.9 23.3 37.2 23.1 37.2 22.6 C 37.2 22.4 37.1 22.2 37.1 21.9 C 35.5 17.9 33.0 14.2 29.9 10.9 C 26.1 14.8 23.1 19.5 21.0 24.6 C 20.2 26.7 19.5 28.9 18.9 31.1 C 19.1 32.7 19.2 34.4 19.2 36.0 Z" transform="scale(1,-1)" stroke-dasharray="74.8084728500452" stroke-dashoffset="74.8084728500452"><animate attributeName="stroke-dashoffset" from="74.8084728500452" to="0" dur="2.2442541855013562s" begin="anim0.end" fill="freeze" id="anim_end" /></path></g></svg>