<?xml version='1.0' encoding='utf-8'?>
<svg viewBox="0 -44.0 50.0 50.0" version="1.1" xmlns="http://www.w3.org/2000/svg"><rect x="-1000" y="-1000" width="2000" height="2000" stroke="white" fill="white" /><g style="fill:none;stroke:#000000;stroke-width:1"><path d="M 22.9 32.3 L 22.9 25.1 L 15.3 25.1 C 14.4 25.1 13.9 24.3 13.9 23.6 C 13.9 22.8 14.4 22.1 15.3 22.1 L 22.9 22.1 L 22.9 5.3 C 21.8 5.0 20.7 4.8 19.5 4.5 L 19.5 17.2 C 19.5 18.2 18.7 18.7 17.9 18.7 C 17.1 18.7 16.2 18.2 16.2 17.2 L 16.2 3.9 C 15.6 3.8 15.0 3.7 14.4 3.6 C 13.2 3.5 12.7 2.7 12.7 2.0 C 12.7 1.1 13.5 0.2 14.9 0.5 C 20.7 1.4 27.2 3.1 32.1 4.8 C 33.0 5.1 33.4 5.7 33.4 6.3 C 33.4 7.0 32.8 7.7 31.9 7.7 C 31.7 7.7 31.5 7.7 31.3 7.6 C 29.6 7.1 27.9 6.6 26.2 6.2 L 26.2 13.6 L 30.8 13.6 C 31.7 13.6 32.1 14.3 32.1 15.1 C 32.1 15.8 31.7 16.6 30.8 16.6 L 26.2 16.6 L 26.2 22.1 L 31.9 22.1 C 32.9 22.1 33.4 22.8 33.4 23.6 C 33.4 24.3 32.9 25.1 31.9 25.1 L 26.2 25.1 L 26.2 32.3 L 30.4 32.3 C 31.4 32.3 31.8 33.1 31.8 33.8 C 31.8 34.6 31.4 35.3 30.4 35.3 L 21.0 35.3 C 21.6 36.8 22.0 38.2 22.4 39.6 C 22.7 40.9 21.8 41.7 20.8 41.7 C 20.1 41.7 19.4 41.2 19.1 40.3 C 18.2 36.7 16.6 32.5 14.8 29.7 C 14.6 29.3 14.5 29.0 14.5 28.7 C 14.5 27.8 15.2 27.2 16.0 27.2 C 16.6 27.2 17.2 27.6 17.8 28.4 C 18.4 29.5 19.1 30.9 19.8 32.3 Z " transform="scale(1,-1)" stroke-dasharray="216.55763502302287" stroke-dashoffset="216.55763502302287"><animate attributeName="stroke-dashoffset" from="216.55763502302287" to="0" dur="6.496729050690686s" begin="0s; 15s; 30s; 45s; 60s" fill="freeze" id="anim0" /></path><path d="M 7.2 -2.7 C 7.2 -3.7 8.1 -4.2 8.9 -4.2 C 9.8 -4.2 10.6 -3.7 10.6 -2.7 L 10.6 19.7 C 10.6 20.6 10.0 21.1 9.3 21.2 C 10.8 23.5 12.2 25.9 13.3 28.2 C 13.5 28.6 13.5 28.9 13.5 29.1 C 13.5 30.2 12.7 30.8 11.9 30.8 C 11.2 30.8 10.7 30.5 10.2 29.6 C 8.3 25.2 5.2 20.3 2.4 17.3 C 1.9 16.8 1.7 16.3 1.7 15.8 C 1.7 15.1 2.2 14.5 3.1 14.5 C 3.5 14.5 4.0 14.7 4.5 15.2 C 5.4 16.0 6.3 17.1 7.2 18.2 Z " transform="scale(1,-1)" stroke-dasharray="88.49449211880328" stroke-dashoffset="88.49449211880328"><animate attributeName="stroke-dashoffset" from="88.49449211880328" to="0" dur="2.6548347635640983s" begin="anim0.end" fill="freeze" id="anim1" /></path><path d="M 34.7 -2.5 C 34.7 -3.5 35.6 -4.0 36.4 -4.0 C 37.2 -4.0 38.1 -3.5 38.1 -2.5 L 38.1 32.9 C 38.1 34.2 38.4 34.6 39.6 34.6 L 41.8 34.6 C 43.0 34.6 43.2 34.2 43.2 32.9 L 43.2 8.5 C 43.2 7.4 43.0 7.1 42.4 7.1 C 41.9 7.1 41.5 7.1 41.0 7.2 C 39.7 7.4 39.0 6.4 39.0 5.5 C 39.0 4.7 39.5 3.9 40.4 3.7 C 40.9 3.6 41.5 3.5 42.7 3.5 C 45.3 3.5 46.7 4.9 46.7 8.1 L 46.7 33.2 C 46.7 36.2 45.8 37.6 42.3 37.6 L 39.2 37.6 C 35.8 37.6 34.7 36.2 34.7 33.2 Z " transform="scale(1,-1)" stroke-dasharray="168.97951038162915" stroke-dashoffset="168.97951038162915"><animate attributeName="stroke-dashoffset" from="168.97951038162915" to="0" dur="5.069385311448874s" begin="anim1.end" fill="freeze" id="anim2" /></path><path d="M 9.2 40.5 C 7.5 37.2 4.9 33.6 2.8 31.7 C 2.2 31.2 2.0 30.7 2.0 30.2 C 2.0 29.4 2.7 28.7 3.5 28.7 C 4.0 28.7 4.4 28.9 4.9 29.3 C 7.4 31.6 10.6 35.5 12.3 38.9 C 12.5 39.2 12.6 39.5 12.6 39.8 C 12.6 40.8 11.7 41.5 10.8 41.5 C 10.2 41.5 9.6 41.2 9.2 40.5 Z" transform="scale(1,-1)" stroke-dasharray="34.45530605214889" stroke-dashoffset="34.45530605214889"><animate attributeName="stroke-dashoffset" from="34.45530605214889" to="0" dur="1.0336591815644667s" begin="anim2.end" fill="freeze" id="anim_end" /></path></g></svg>