<?xml version='1.0' encoding='utf-8'?>
<svg viewBox="0 -44.0 50.0 50.0" version="1.1" xmlns="http://www.w3.org/2000/svg"><rect x="-1000" y="-1000" width="2000" height="2000" stroke="white" fill="white" /><g style="fill:none;stroke:#000000;stroke-width:1"><path d="M 20.2 7.3 L 16.1 7.3 C 15.2 7.3 14.7 6.6 14.7 5.9 C 14.7 5.2 15.2 4.5 16.1 4.5 L 20.2 4.5 L 20.2 -2.8 C 20.2 -3.8 21.0 -4.2 21.8 -4.2 C 22.7 -4.2 23.5 -3.8 23.5 -2.8 L 23.5 4.5 L 39.9 4.5 L 39.9 0.7 C 39.9 -0.5 39.5 -0.9 38.7 -0.9 C 38.2 -0.9 37.7 -0.8 37.1 -0.7 C 35.9 -0.4 35.2 -1.2 35.2 -2.0 C 35.2 -2.7 35.6 -3.5 36.6 -3.7 C 37.3 -3.8 38.1 -3.9 38.8 -3.9 C 41.8 -3.9 43.2 -2.7 43.2 0.3 L 43.2 4.5 L 46.8 4.5 C 47.8 4.5 48.2 5.2 48.2 5.9 C 48.2 6.6 47.8 7.3 46.8 7.3 L 43.2 7.3 L 43.2 15.2 C 43.2 18.2 41.5 19.5 38.2 19.5 L 33.0 19.5 L 33.0 22.4 L 46.4 22.4 C 47.4 22.4 47.9 23.1 47.9 23.8 C 47.9 24.5 47.4 25.2 46.4 25.2 L 37.9 25.2 L 37.9 28.2 L 42.6 28.2 C 43.6 28.2 44.1 29.0 44.1 29.7 C 44.1 30.4 43.6 31.1 42.6 31.1 L 37.9 31.1 L 37.9 34.1 L 44.8 34.1 C 45.7 34.1 46.2 34.9 46.2 35.6 C 46.2 36.3 45.7 37.0 44.8 37.0 L 37.9 37.0 L 37.9 40.4 C 37.9 41.5 37.1 42.0 36.3 42.0 C 35.5 42.0 34.6 41.5 34.6 40.4 L 34.6 37.0 L 28.4 37.0 L 28.4 40.4 C 28.4 41.5 27.6 42.0 26.8 42.0 C 25.9 42.0 25.1 41.5 25.1 40.4 L 25.1 37.0 L 18.9 37.0 C 17.9 37.0 17.4 36.3 17.4 35.6 C 17.4 34.9 17.9 34.1 18.9 34.1 L 25.1 34.1 L 25.1 31.1 L 20.6 31.1 C 19.7 31.1 19.2 30.4 19.2 29.7 C 19.2 29.0 19.7 28.2 20.6 28.2 L 25.1 28.2 L 25.1 25.2 L 17.4 25.2 C 16.6 25.2 16.1 24.5 16.1 23.8 C 16.1 23.1 16.6 22.4 17.4 22.4 L 29.8 22.4 L 29.8 19.5 L 25.2 19.5 C 21.9 19.5 20.2 18.4 20.2 15.4 Z " transform="scale(1,-1)" stroke-dasharray="289.02038388559623" stroke-dashoffset="289.02038388559623"><animate attributeName="stroke-dashoffset" from="289.02038388559623" to="0" dur="8.670611516567886s" begin="0s; 15s; 30s; 45s; 60s" fill="freeze" id="anim0" /></path><path d="M 23.5 7.3 L 23.5 10.7 L 29.8 10.7 L 29.8 7.3 Z " transform="scale(1,-1)" stroke-dasharray="19.4" stroke-dashoffset="19.4"><animate attributeName="stroke-dashoffset" from="19.4" to="0" dur="0.582s" begin="anim0.end" fill="freeze" id="anim1" /></path><path d="M 23.5 13.4 L 23.5 15.0 C 23.5 16.3 24.1 16.7 25.8 16.7 L 29.8 16.7 L 29.8 13.4 Z " transform="scale(1,-1)" stroke-dasharray="18.542511670372182" stroke-dashoffset="18.542511670372182"><animate attributeName="stroke-dashoffset" from="18.542511670372182" to="0" dur="0.5562753501111655s" begin="anim1.end" fill="freeze" id="anim2" /></path><path d="M 33.0 7.3 L 33.0 10.7 L 39.9 10.7 L 39.9 7.3 Z " transform="scale(1,-1)" stroke-dasharray="20.599999999999994" stroke-dashoffset="20.599999999999994"><animate attributeName="stroke-dashoffset" from="20.599999999999994" to="0" dur="0.6179999999999998s" begin="anim2.end" fill="freeze" id="anim3" /></path><path d="M 33.0 13.4 L 33.0 16.7 L 37.6 16.7 C 39.3 16.7 39.9 16.3 39.9 15.0 L 39.9 13.4 Z " transform="scale(1,-1)" stroke-dasharray="19.742511670372178" stroke-dashoffset="19.742511670372178"><animate attributeName="stroke-dashoffset" from="19.742511670372178" to="0" dur="0.5922753501111653s" begin="anim3.end" fill="freeze" id="anim4" /></path><path d="M 34.6 25.2 L 28.4 25.2 L 28.4 28.2 L 34.6 28.2 Z " transform="scale(1,-1)" stroke-dasharray="18.400000000000006" stroke-dashoffset="18.400000000000006"><animate attributeName="stroke-dashoffset" from="18.400000000000006" to="0" dur="0.5520000000000002s" begin="anim4.end" fill="freeze" id="anim5" /></path><path d="M 28.4 34.1 L 34.6 34.1 L 34.6 31.1 L 28.4 31.1 Z " transform="scale(1,-1)" stroke-dasharray="18.400000000000006" stroke-dashoffset="18.400000000000006"><animate attributeName="stroke-dashoffset" from="18.400000000000006" to="0" dur="0.5520000000000002s" begin="anim5.end" fill="freeze" id="anim6" /></path><path d="M 11.5 14.5 C 12.9 15.1 14.3 15.7 15.6 16.3 C 16.3 16.7 16.7 17.3 16.7 17.9 C 16.7 18.6 16.1 19.2 15.2 19.2 C 15.0 19.2 14.7 19.2 14.4 19.1 C 13.5 18.7 12.5 18.2 11.5 17.8 L 11.5 27.9 L 14.7 27.9 C 15.6 27.9 16.1 28.6 16.1 29.4 C 16.1 30.1 15.6 30.8 14.7 30.8 L 11.5 30.8 L 11.5 40.4 C 11.5 41.4 10.6 42.0 9.8 42.0 C 8.9 42.0 8.1 41.4 8.1 40.4 L 8.1 30.8 L 3.8 30.8 C 2.8 30.8 2.4 30.1 2.4 29.4 C 2.4 28.6 2.8 27.9 3.8 27.9 L 8.1 27.9 L 8.1 16.6 C 6.4 16.0 4.7 15.5 3.2 15.1 C 2.1 14.8 1.7 14.0 1.7 13.3 C 1.7 12.5 2.3 11.7 3.3 11.7 C 3.5 11.7 3.8 11.7 4.0 11.8 C 5.3 12.2 6.7 12.7 8.1 13.2 L 8.1 1.6 C 8.1 0.2 7.6 -0.1 6.6 -0.1 C 6.0 -0.1 5.4 -0.1 4.6 0.1 C 3.3 0.3 2.6 -0.6 2.6 -1.6 C 2.6 -2.3 3.0 -3.1 4.1 -3.2 C 5.1 -3.5 6.1 -3.6 6.8 -3.6 C 9.9 -3.6 11.5 -2.1 11.5 1.2 Z" transform="scale(1,-1)" stroke-dasharray="143.33001773248898" stroke-dashoffset="143.33001773248898"><animate attributeName="stroke-dashoffset" from="143.33001773248898" to="0" dur="4.29990053197467s" begin="anim6.end" fill="freeze" id="anim_end" /></path></g></svg>