<?xml version='1.0' encoding='utf-8'?>
<svg viewBox="0 -44.0 50.0 50.0" version="1.1" xmlns="http://www.w3.org/2000/svg"><rect x="-1000" y="-1000" width="2000" height="2000" stroke="white" fill="white" /><g style="fill:none;stroke:#000000;stroke-width:1"><path d="M 38.7 29.8 C 39.7 29.8 40.2 30.5 40.2 31.2 C 40.2 32.0 39.7 32.6 38.7 32.6 L 23.0 32.6 C 22.1 32.6 21.6 32.0 21.6 31.2 C 21.6 30.5 22.1 29.8 23.0 29.8 L 28.9 29.8 C 26.7 27.5 24.5 25.8 21.6 24.2 C 20.8 23.8 20.5 23.2 20.5 22.6 C 20.5 21.9 21.0 21.2 21.9 21.2 C 22.2 21.2 22.6 21.4 23.0 21.6 C 24.5 22.5 25.9 23.4 27.2 24.4 C 27.8 23.8 28.4 23.1 28.9 22.3 C 26.4 19.9 23.9 18.2 21.5 16.9 C 20.7 16.6 20.4 16.0 20.4 15.4 C 20.4 14.6 21.0 13.9 21.8 13.9 C 22.1 13.9 22.5 14.0 22.8 14.2 C 25.6 15.7 28.0 17.4 30.4 19.7 C 30.8 18.8 31.1 17.9 31.3 16.9 C 28.2 13.4 25.1 11.2 21.4 9.2 C 20.7 8.8 20.4 8.2 20.4 7.7 C 20.4 6.9 21.0 6.2 21.9 6.2 C 22.2 6.2 22.6 6.3 22.9 6.5 C 26.2 8.3 29.2 10.5 31.8 13.1 C 31.9 12.7 31.9 12.3 31.9 12.0 C 31.9 7.2 30.9 6.1 29.4 6.1 C 28.7 6.1 28.3 6.2 27.7 6.3 C 26.4 6.6 25.5 5.7 25.5 4.8 C 25.5 4.2 25.9 3.5 26.8 3.2 C 27.8 2.9 28.4 2.9 29.7 2.9 C 32.9 2.9 35.1 5.2 35.1 12.0 C 35.1 13.0 35.1 14.0 34.9 14.9 C 36.4 13.8 37.9 12.5 39.1 11.2 C 39.6 10.7 40.0 10.5 40.5 10.5 C 41.3 10.5 42.0 11.2 42.0 12.1 C 42.0 12.6 41.8 13.2 41.2 13.7 C 39.6 15.5 36.5 17.8 34.0 18.9 C 33.9 19.2 33.8 19.6 33.6 19.9 C 35.7 21.1 37.5 22.4 39.6 24.2 C 40.1 24.7 40.2 25.2 40.2 25.7 C 40.2 26.5 39.6 27.2 38.7 27.2 C 38.2 27.2 37.8 27.0 37.3 26.5 C 35.4 24.5 34.1 23.4 32.4 22.3 C 31.6 23.7 30.5 25.0 29.3 26.1 C 30.6 27.2 31.9 28.5 33.1 29.8 Z " transform="scale(1,-1)" stroke-dasharray="198.8701931938091" stroke-dashoffset="198.8701931938091"><animate attributeName="stroke-dashoffset" from="198.8701931938091" to="0" dur="5.966105795814272s" begin="0s; 15s; 30s; 45s; 60s" fill="freeze" id="anim0" /></path><path d="M 40.5 -2.5 C 44.9 -2.5 46.6 -0.7 46.6 2.9 L 46.6 34.2 C 46.6 37.8 44.9 39.6 40.5 39.6 L 21.0 39.6 C 16.6 39.6 14.8 37.8 14.8 34.2 L 14.8 2.9 C 14.9 -1.2 17.2 -2.4 21.0 -2.5 Z " transform="scale(1,-1)" stroke-dasharray="139.33554426312764" stroke-dashoffset="139.33554426312764"><animate attributeName="stroke-dashoffset" from="139.33554426312764" to="0" dur="4.1800663278938295s" begin="anim0.end" fill="freeze" id="anim1" /></path><path d="M 21.6 0.6 C 19.2 0.6 18.3 1.4 18.3 3.4 L 18.3 33.8 C 18.3 35.8 19.2 36.6 21.6 36.6 L 39.9 36.6 C 42.2 36.6 43.1 35.8 43.1 33.8 L 43.1 3.4 C 43.1 1.1 42.0 0.6 39.9 0.6 Z " transform="scale(1,-1)" stroke-dasharray="117.40385580298255" stroke-dashoffset="117.40385580298255"><animate attributeName="stroke-dashoffset" from="117.40385580298255" to="0" dur="3.522115674089476s" begin="anim1.end" fill="freeze" id="anim2" /></path><path d="M 7.8 40.3 C 7.5 40.6 7.1 40.7 6.7 40.7 C 5.8 40.7 5.0 40.0 5.0 39.1 C 5.0 38.7 5.2 38.1 5.7 37.6 C 6.7 36.8 8.1 35.4 9.2 34.1 C 9.6 33.6 10.2 33.4 10.7 33.4 C 11.6 33.4 12.4 34.1 12.4 35.1 C 12.4 35.6 12.2 36.1 11.8 36.6 C 10.8 37.8 9.0 39.5 7.8 40.3 Z " transform="scale(1,-1)" stroke-dasharray="21.938534169406275" stroke-dashoffset="21.938534169406275"><animate attributeName="stroke-dashoffset" from="21.938534169406275" to="0" dur="0.6581560250821882s" begin="anim2.end" fill="freeze" id="anim3" /></path><path d="M 8.2 12.9 C 7.1 8.7 5.1 3.5 3.1 0.2 C 2.9 -0.2 2.8 -0.6 2.8 -1.0 C 2.8 -2.0 3.6 -2.6 4.4 -2.6 C 5.0 -2.6 5.7 -2.2 6.2 -1.5 C 8.2 2.1 10.4 7.6 11.7 12.0 C 11.7 12.2 11.8 12.4 11.8 12.6 C 11.8 13.8 10.9 14.4 10.1 14.4 C 9.3 14.4 8.6 13.9 8.2 12.9 Z " transform="scale(1,-1)" stroke-dasharray="40.23824765178588" stroke-dashoffset="40.23824765178588"><animate attributeName="stroke-dashoffset" from="40.23824765178588" to="0" dur="1.2071474295535765s" begin="anim3.end" fill="freeze" id="anim4" /></path><path d="M 4.7 28.1 C 4.2 28.3 3.9 28.4 3.5 28.4 C 2.5 28.4 1.7 27.7 1.7 26.8 C 1.7 26.4 2.0 25.8 2.6 25.4 C 3.5 24.7 5.2 23.2 6.5 21.8 C 7.0 21.3 7.5 21.1 8.0 21.1 C 8.9 21.1 9.7 21.9 9.7 22.9 C 9.7 23.4 9.5 23.9 9.1 24.4 C 7.9 25.6 5.9 27.2 4.7 28.1 Z" transform="scale(1,-1)" stroke-dasharray="22.80333881496112" stroke-dashoffset="22.80333881496112"><animate attributeName="stroke-dashoffset" from="22.80333881496112" to="0" dur="0.6841001644488336s" begin="anim4.end" fill="freeze" id="anim_end" /></path></g></svg>