<?xml version='1.0' encoding='utf-8'?>
<svg viewBox="0 -44.0 50.0 50.0" version="1.1" xmlns="http://www.w3.org/2000/svg"><rect x="-1000" y="-1000" width="2000" height="2000" stroke="white" fill="white" /><g style="fill:none;stroke:#000000;stroke-width:1"><path d="M 11.8 3.5 C 14.9 3.5 16.2 5.0 16.2 8.1 L 16.2 33.7 C 16.2 36.9 14.9 38.2 11.8 38.2 L 8.1 38.2 C 5.0 38.2 3.6 36.9 3.6 33.7 L 3.6 8.1 C 3.7 5.0 4.9 3.6 8.1 3.5 Z " transform="scale(1,-1)" stroke-dasharray="88.02176821977187" stroke-dashoffset="88.02176821977187"><animate attributeName="stroke-dashoffset" from="88.02176821977187" to="0" dur="2.640653046593156s" begin="0s; 15s; 30s; 45s; 60s" fill="freeze" id="anim0" /></path><path d="M 8.6 6.6 C 7.5 6.6 7.1 7.0 7.1 8.5 L 7.1 20.3 L 12.8 20.3 L 12.8 8.5 C 12.8 7.2 12.6 6.6 11.2 6.6 Z " transform="scale(1,-1)" stroke-dasharray="37.69051135689665" stroke-dashoffset="37.69051135689665"><animate attributeName="stroke-dashoffset" from="37.69051135689665" to="0" dur="1.1307153407068995s" begin="anim0.end" fill="freeze" id="anim1" /></path><path d="M 12.8 23.4 L 7.1 23.4 L 7.1 33.4 C 7.1 34.8 7.5 35.2 8.6 35.2 L 11.2 35.2 C 12.4 35.2 12.8 34.8 12.8 33.4 Z " transform="scale(1,-1)" stroke-dasharray="33.8978543503792" stroke-dashoffset="33.8978543503792"><animate attributeName="stroke-dashoffset" from="33.8978543503792" to="0" dur="1.016935630511376s" begin="anim1.end" fill="freeze" id="anim2" /></path><path d="M 40.7 15.0 C 44.2 15.0 45.6 16.4 45.6 19.2 L 45.6 23.6 C 45.6 26.4 44.2 27.8 40.7 27.8 L 34.6 27.8 C 35.4 28.9 36.1 30.1 36.9 31.5 C 37.4 32.3 37.6 33.1 37.6 33.8 C 37.6 35.5 36.1 36.6 33.5 36.6 L 27.9 36.6 C 28.5 37.4 28.9 38.2 29.4 39.0 C 29.6 39.4 29.6 39.7 29.6 40.0 C 29.6 40.9 28.8 41.5 27.9 41.5 C 27.2 41.5 26.6 41.2 26.2 40.5 C 24.4 36.9 21.3 32.6 18.1 29.8 C 17.6 29.3 17.4 28.8 17.4 28.4 C 17.4 27.6 18.1 27.0 18.9 27.0 C 19.4 27.0 20.0 27.2 20.5 27.6 C 22.2 29.2 24.2 31.4 25.9 33.6 L 32.6 33.6 C 33.5 33.6 33.9 33.5 33.9 33.0 C 33.9 32.8 33.8 32.6 33.6 32.2 C 33.0 30.9 32.0 29.4 30.9 27.8 L 25.0 27.8 C 21.5 27.8 20.1 26.4 20.1 23.6 L 20.1 19.2 C 20.1 16.4 21.5 15.0 25.0 15.0 L 26.4 15.0 C 25.6 8.0 21.9 2.9 16.2 -0.1 C 15.3 -0.5 14.9 -1.2 14.9 -1.8 C 14.9 -2.7 15.6 -3.5 16.6 -3.5 C 16.9 -3.5 17.3 -3.4 17.7 -3.2 C 24.2 0.1 29.2 6.9 30.0 15.0 L 33.8 15.0 L 33.8 1.5 C 33.8 -1.4 35.1 -2.6 40.0 -2.6 C 45.1 -2.6 47.2 -1.1 47.8 4.0 C 47.9 5.2 47.0 5.9 46.1 5.9 C 45.3 5.9 44.5 5.4 44.4 4.5 C 44.0 1.4 43.1 0.6 40.0 0.6 C 37.7 0.6 37.3 1.0 37.3 2.2 L 37.3 15.0 Z " transform="scale(1,-1)" stroke-dasharray="237.52432030438877" stroke-dashoffset="237.52432030438877"><animate attributeName="stroke-dashoffset" from="237.52432030438877" to="0" dur="7.125729609131663s" begin="anim2.end" fill="freeze" id="anim3" /></path><path d="M 34.0 24.8 L 40.1 24.8 C 41.8 24.8 42.2 24.4 42.2 23.1 L 42.2 19.9 C 42.2 18.4 41.5 18.0 40.1 18.0 L 34.0 18.0 Z " transform="scale(1,-1)" stroke-dasharray="28.713390935803574" stroke-dashoffset="28.713390935803574"><animate attributeName="stroke-dashoffset" from="28.713390935803574" to="0" dur="0.8614017280741072s" begin="anim3.end" fill="freeze" id="anim4" /></path><path d="M 30.6 24.8 L 30.6 18.0 L 25.6 18.0 C 23.9 18.0 23.5 18.5 23.5 19.9 L 23.5 23.2 C 23.5 24.5 23.9 24.8 25.6 24.8 Z" transform="scale(1,-1)" stroke-dasharray="26.599883219244393" stroke-dashoffset="26.599883219244393"><animate attributeName="stroke-dashoffset" from="26.599883219244393" to="0" dur="0.7979964965773317s" begin="anim4.end" fill="freeze" id="anim_end" /></path></g></svg>