<?xml version='1.0' encoding='utf-8'?>
<svg viewBox="0 -44.0 50.0 50.0" version="1.1" xmlns="http://www.w3.org/2000/svg"><rect x="-1000" y="-1000" width="2000" height="2000" stroke="white" fill="white" /><g style="fill:none;stroke:#000000;stroke-width:1"><path d="M 36.4 30.3 C 37.7 30.5 39.1 30.7 40.5 30.9 C 41.0 30.3 41.4 29.7 41.9 29.1 C 42.3 28.5 42.8 28.2 43.3 28.2 C 44.2 28.2 45.0 29.0 45.0 30.0 C 45.0 30.5 44.8 31.0 44.4 31.5 C 42.7 33.5 40.2 35.7 38.3 37.0 C 37.9 37.3 37.4 37.5 37.0 37.5 C 36.1 37.5 35.6 36.8 35.6 36.1 C 35.6 35.6 35.8 35.1 36.4 34.7 C 36.9 34.3 37.4 33.9 37.9 33.5 C 34.2 33.1 30.6 32.8 26.9 32.6 C 28.1 34.5 29.4 36.8 30.5 39.2 C 30.7 39.5 30.8 39.8 30.8 40.1 C 30.8 41.1 29.8 41.8 28.9 41.8 C 28.2 41.8 27.6 41.4 27.2 40.6 C 26.1 37.8 24.6 34.9 23.0 32.4 C 21.6 32.3 20.2 32.3 18.8 32.2 C 17.7 32.2 17.1 31.4 17.1 30.6 C 17.1 29.8 17.7 28.9 18.9 28.9 C 23.6 29.1 28.2 29.4 33.0 29.9 L 33.0 23.9 C 33.0 20.9 34.5 20.1 39.4 20.1 C 44.5 20.1 46.7 21.6 47.1 25.4 C 47.2 26.6 46.3 27.2 45.4 27.2 C 44.6 27.2 43.9 26.8 43.8 25.8 C 43.5 23.7 42.6 23.2 39.2 23.2 C 36.9 23.2 36.4 23.5 36.4 24.7 Z " transform="scale(1,-1)" stroke-dasharray="131.19409274230546" stroke-dashoffset="131.19409274230546"><animate attributeName="stroke-dashoffset" from="131.19409274230546" to="0" dur="3.9358227822691636s" begin="0s; 15s; 30s; 45s; 60s" fill="freeze" id="anim0" /></path><path d="M 29.2 16.3 C 29.5 16.9 29.9 17.4 30.2 17.9 C 30.4 18.2 30.4 18.6 30.4 18.9 C 30.4 19.8 29.6 20.5 28.7 20.5 C 28.1 20.5 27.4 20.1 27.0 19.4 C 24.8 15.1 20.8 10.7 17.2 8.2 C 16.5 7.8 16.2 7.2 16.2 6.7 C 16.2 5.9 16.9 5.2 17.8 5.2 C 18.2 5.2 18.6 5.4 19.1 5.7 C 21.0 7.0 23.0 8.7 24.8 10.8 C 26.0 8.8 27.5 7.2 29.0 5.6 C 25.2 3.1 20.7 1.1 15.7 -0.2 C 14.7 -0.5 14.2 -1.2 14.2 -1.8 C 14.2 -2.8 15.1 -3.7 16.4 -3.4 C 21.8 -2.1 27.1 0.2 31.6 3.4 C 35.2 0.5 39.7 -1.7 44.2 -3.0 C 45.8 -3.3 46.8 -2.2 46.8 -1.1 C 46.8 -0.4 46.2 0.5 45.1 0.8 C 41.3 1.8 37.6 3.4 34.5 5.5 C 36.2 7.0 37.9 8.7 39.4 10.5 C 40.1 11.5 40.5 12.4 40.5 13.2 C 40.5 15.0 38.9 16.3 36.4 16.3 Z " transform="scale(1,-1)" stroke-dasharray="134.76899191162786" stroke-dashoffset="134.76899191162786"><animate attributeName="stroke-dashoffset" from="134.76899191162786" to="0" dur="4.043069757348836s" begin="anim0.end" fill="freeze" id="anim1" /></path><path d="M 35.1 13.4 C 36.0 13.4 36.4 13.1 36.4 12.7 C 36.4 12.5 36.2 12.2 36.0 11.9 C 34.8 10.3 33.3 8.9 31.7 7.6 C 30.5 8.6 29.4 9.7 28.4 10.9 C 27.8 11.6 27.2 12.2 26.8 13.0 C 26.9 13.1 27.0 13.2 27.1 13.4 Z " transform="scale(1,-1)" stroke-dasharray="24.462446207794365" stroke-dashoffset="24.462446207794365"><animate attributeName="stroke-dashoffset" from="24.462446207794365" to="0" dur="0.7338733862338309s" begin="anim1.end" fill="freeze" id="anim2" /></path><path d="M 24.1 27.1 C 23.1 23.9 20.6 21.3 16.7 19.8 C 15.8 19.5 15.4 18.8 15.4 18.2 C 15.4 17.3 16.1 16.5 17.1 16.5 C 17.3 16.5 17.6 16.6 17.9 16.7 C 22.5 18.4 26.1 21.8 27.5 26.2 C 27.6 26.4 27.6 26.6 27.6 26.8 C 27.6 27.8 26.8 28.4 25.9 28.4 C 25.2 28.4 24.4 28.0 24.1 27.1 Z " transform="scale(1,-1)" stroke-dasharray="36.05993869598551" stroke-dashoffset="36.05993869598551"><animate attributeName="stroke-dashoffset" from="36.05993869598551" to="0" dur="1.0817981608795653s" begin="anim2.end" fill="freeze" id="anim3" /></path><path d="M 11.1 40.4 C 11.1 41.5 10.2 42.0 9.4 42.0 C 8.6 42.0 7.7 41.5 7.7 40.4 L 7.7 -2.4 C 7.7 -3.4 8.6 -4.0 9.4 -4.0 C 10.2 -4.0 11.1 -3.4 11.1 -2.4 Z " transform="scale(1,-1)" stroke-dasharray="96.01375655113729" stroke-dashoffset="96.01375655113729"><animate attributeName="stroke-dashoffset" from="96.01375655113729" to="0" dur="2.8804126965341186s" begin="anim3.end" fill="freeze" id="anim4" /></path><path d="M 3.2 29.6 C 2.9 27.2 2.4 24.5 1.7 22.8 C 1.6 22.6 1.6 22.3 1.6 22.1 C 1.6 21.2 2.2 20.7 3.0 20.7 C 3.6 20.7 4.2 21.1 4.5 22.0 C 5.2 23.7 5.9 26.7 6.1 29.2 C 6.2 30.4 5.4 31.0 4.7 31.0 C 4.0 31.0 3.2 30.5 3.2 29.6 Z " transform="scale(1,-1)" stroke-dasharray="24.31394952868465" stroke-dashoffset="24.31394952868465"><animate attributeName="stroke-dashoffset" from="24.31394952868465" to="0" dur="0.7294184858605395s" begin="anim4.end" fill="freeze" id="anim5" /></path><path d="M 14.9 30.9 C 14.6 31.5 14.1 31.7 13.6 31.7 C 12.8 31.7 12.2 31.2 12.2 30.5 C 12.2 30.2 12.2 29.9 12.4 29.6 C 13.0 28.7 13.7 26.8 14.0 25.5 C 14.2 24.6 14.9 24.2 15.5 24.2 C 16.2 24.2 16.9 24.8 16.9 25.8 C 16.9 26.0 16.9 26.2 16.8 26.5 C 16.4 27.9 15.7 29.7 14.9 30.9 Z" transform="scale(1,-1)" stroke-dasharray="19.06792807447456" stroke-dashoffset="19.06792807447456"><animate attributeName="stroke-dashoffset" from="19.06792807447456" to="0" dur="0.5720378422342367s" begin="anim5.end" fill="freeze" id="anim_end" /></path></g></svg>