<?xml version='1.0' encoding='utf-8'?>
<svg viewBox="0 -44.0 50.0 50.0" version="1.1" xmlns="http://www.w3.org/2000/svg"><rect x="-1000" y="-1000" width="2000" height="2000" stroke="white" fill="white" /><g style="fill:none;stroke:#000000;stroke-width:1"><path d="M 23.2 14.2 C 24.8 14.9 26.4 15.6 27.9 16.2 C 28.7 16.7 29.1 17.3 29.1 17.9 C 29.1 18.7 28.5 19.4 27.6 19.4 C 27.3 19.4 27.0 19.3 26.7 19.2 C 25.6 18.7 24.4 18.2 23.2 17.7 L 23.2 27.8 L 27.2 27.8 C 28.1 27.8 28.6 28.6 28.6 29.3 C 28.6 30.1 28.1 30.8 27.2 30.8 L 23.2 30.8 L 23.2 40.1 C 23.2 41.2 22.3 41.7 21.5 41.7 C 20.6 41.7 19.8 41.2 19.8 40.1 L 19.8 30.8 L 15.2 30.8 C 14.3 30.8 13.9 30.1 13.9 29.3 C 13.9 28.6 14.3 27.8 15.2 27.8 L 19.8 27.8 L 19.8 16.5 C 18.1 16.0 16.4 15.5 15.0 15.1 C 14.0 14.8 13.5 14.1 13.5 13.4 C 13.5 12.5 14.2 11.7 15.2 11.7 C 15.4 11.7 15.6 11.8 15.9 11.8 C 17.1 12.2 18.4 12.6 19.8 13.0 L 19.8 1.9 C 19.8 0.4 19.2 0.2 18.2 0.2 C 17.7 0.2 17.1 0.2 16.3 0.3 C 15.0 0.6 14.2 -0.4 14.2 -1.3 C 14.2 -2.1 14.7 -2.8 15.8 -3.0 C 16.8 -3.2 17.8 -3.3 18.4 -3.3 C 21.6 -3.3 23.2 -1.9 23.2 1.5 Z " transform="scale(1,-1)" stroke-dasharray="145.311088900562" stroke-dashoffset="145.311088900562"><animate attributeName="stroke-dashoffset" from="145.311088900562" to="0" dur="4.35933266701686s" begin="0s; 15s; 30s; 45s; 60s" fill="freeze" id="anim0" /></path><path d="M 34.6 34.3 C 38.4 35.3 42.2 36.6 44.9 37.9 C 45.8 38.4 46.2 39.0 46.2 39.6 C 46.2 40.5 45.4 41.2 44.4 41.2 C 44.1 41.2 43.7 41.1 43.2 40.9 C 41.0 39.7 37.6 38.4 34.2 37.5 C 33.9 37.9 33.4 38.1 32.9 38.1 C 32.0 38.1 31.1 37.5 31.1 36.5 L 31.1 23.4 C 31.1 11.7 29.2 4.7 25.7 -0.2 C 25.3 -0.7 25.1 -1.2 25.1 -1.6 C 25.1 -2.5 25.8 -3.1 26.7 -3.1 C 27.2 -3.1 27.9 -2.8 28.4 -2.1 C 32.2 3.2 34.5 10.8 34.6 22.2 L 39.9 22.2 L 39.9 -2.0 C 39.9 -3.0 40.8 -3.5 41.7 -3.5 C 42.5 -3.5 43.4 -3.0 43.4 -2.0 L 43.4 22.2 L 46.6 22.2 C 47.6 22.2 48.1 22.9 48.1 23.7 C 48.1 24.4 47.6 25.2 46.6 25.2 L 34.6 25.2 Z " transform="scale(1,-1)" stroke-dasharray="188.02733383740062" stroke-dashoffset="188.02733383740062"><animate attributeName="stroke-dashoffset" from="188.02733383740062" to="0" dur="5.640820015122018s" begin="anim0.end" fill="freeze" id="anim1" /></path><path d="M 8.3 40.3 C 8.0 40.6 7.7 40.7 7.3 40.7 C 6.4 40.7 5.5 39.9 5.5 39.0 C 5.5 38.5 5.7 38.0 6.3 37.5 C 7.3 36.7 8.8 35.2 9.9 33.9 C 10.3 33.4 10.9 33.1 11.4 33.1 C 12.4 33.1 13.2 34.0 13.2 35.0 C 13.2 35.5 13.0 36.0 12.6 36.5 C 11.6 37.7 9.7 39.4 8.3 40.3 Z " transform="scale(1,-1)" stroke-dasharray="22.74405807642259" stroke-dashoffset="22.74405807642259"><animate attributeName="stroke-dashoffset" from="22.74405807642259" to="0" dur="0.6823217422926777s" begin="anim1.end" fill="freeze" id="anim2" /></path><path d="M 9.2 13.1 C 7.9 8.8 5.7 3.7 3.6 0.4 C 3.3 -0.1 3.2 -0.5 3.2 -0.8 C 3.2 -1.8 4.0 -2.5 4.9 -2.5 C 5.5 -2.5 6.2 -2.2 6.7 -1.4 C 8.8 2.1 11.2 7.7 12.5 12.1 C 12.6 12.4 12.6 12.6 12.6 12.9 C 12.6 14.0 11.8 14.6 11.0 14.6 C 10.2 14.6 9.5 14.1 9.2 13.1 Z " transform="scale(1,-1)" stroke-dasharray="40.74715865680425" stroke-dashoffset="40.74715865680425"><animate attributeName="stroke-dashoffset" from="40.74715865680425" to="0" dur="1.2224147597041275s" begin="anim2.end" fill="freeze" id="anim3" /></path><path d="M 5.0 28.2 C 4.6 28.5 4.2 28.6 3.8 28.6 C 2.9 28.6 2.1 27.8 2.1 27.0 C 2.1 26.5 2.3 25.9 2.9 25.5 C 3.9 24.7 5.6 23.2 6.8 21.9 C 7.2 21.4 7.8 21.2 8.2 21.2 C 9.2 21.2 10.0 22.0 10.0 23.0 C 10.0 23.5 9.8 24.1 9.3 24.6 C 8.2 25.8 6.3 27.3 5.0 28.2 Z" transform="scale(1,-1)" stroke-dasharray="22.79334177481472" stroke-dashoffset="22.79334177481472"><animate attributeName="stroke-dashoffset" from="22.79334177481472" to="0" dur="0.6838002532444416s" begin="anim3.end" fill="freeze" id="anim_end" /></path></g></svg>