<?xml version='1.0' encoding='utf-8'?>
<svg viewBox="0 -44.0 50.0 50.0" version="1.1" xmlns="http://www.w3.org/2000/svg"><rect x="-1000" y="-1000" width="2000" height="2000" stroke="white" fill="white" /><g style="fill:none;stroke:#000000;stroke-width:1"><path d="M 10.9 40.0 C 9.9 40.0 9.3 39.2 9.3 38.4 C 9.3 37.6 9.9 36.8 10.9 36.8 L 31.2 36.8 C 31.7 36.8 32.0 36.6 32.0 36.3 C 32.0 36.1 31.9 36.0 31.7 35.9 C 29.9 34.2 27.9 33.0 25.8 31.9 C 25.5 32.0 25.2 32.1 24.9 32.1 C 24.0 32.1 23.2 31.6 23.2 30.5 L 23.2 24.0 L 19.5 24.0 C 18.6 24.0 18.1 23.2 18.1 22.5 C 18.1 21.8 18.6 21.1 19.5 21.1 L 23.2 21.1 L 23.2 17.4 L 17.9 17.4 C 16.9 17.4 16.5 16.7 16.5 15.9 C 16.5 15.2 16.9 14.5 17.9 14.5 L 23.2 14.5 L 23.2 10.4 L 15.0 10.4 C 14.0 10.4 13.5 9.7 13.5 9.0 C 13.5 8.2 14.0 7.5 15.0 7.5 L 23.2 7.5 L 23.2 2.2 C 23.2 0.9 22.5 0.3 21.1 0.3 C 20.1 0.3 19.2 0.4 18.4 0.6 C 17.1 0.8 16.4 -0.2 16.4 -1.1 C 16.4 -1.9 16.9 -2.7 17.9 -2.9 C 18.8 -3.1 19.9 -3.2 21.2 -3.2 C 24.7 -3.2 26.6 -1.8 26.6 1.8 L 26.6 7.5 L 34.8 7.5 C 35.8 7.5 36.2 8.2 36.2 9.0 C 36.2 9.7 35.8 10.4 34.8 10.4 L 26.6 10.4 L 26.6 14.5 L 31.8 14.5 C 32.7 14.5 33.2 15.2 33.2 15.9 C 33.2 16.7 32.7 17.4 31.8 17.4 L 26.6 17.4 L 26.6 21.1 L 29.9 21.1 C 30.8 21.1 31.3 21.8 31.3 22.5 C 31.3 23.2 30.8 24.0 29.9 24.0 L 26.6 24.0 L 26.6 28.8 C 27.8 29.4 29.0 30.1 30.1 30.8 C 31.9 22.9 35.2 15.4 40.3 9.0 C 41.9 7.1 43.6 5.4 45.3 3.7 C 45.8 3.3 46.2 3.1 46.7 3.1 C 47.8 3.1 48.7 4.0 48.7 5.1 C 48.7 5.7 48.5 6.2 47.9 6.8 C 43.7 10.4 39.9 15.0 37.0 20.5 C 39.9 22.2 42.8 24.3 45.2 26.6 C 45.7 27.1 45.9 27.6 45.9 28.1 C 45.9 29.1 45.0 30.0 44.0 30.0 C 43.5 30.0 43.0 29.8 42.6 29.3 C 40.4 27.0 38.1 25.0 35.7 23.2 C 34.3 26.2 33.4 29.3 32.6 32.5 C 33.4 33.0 34.1 33.6 34.7 34.1 C 35.8 35.1 36.2 36.1 36.2 37.1 C 36.2 38.7 35.0 40.0 32.5 40.0 Z " transform="scale(1,-1)" stroke-dasharray="322.4078784510956" stroke-dashoffset="322.4078784510956"><animate attributeName="stroke-dashoffset" from="322.4078784510956" to="0" dur="9.672236353532867s" begin="0s; 15s; 30s; 45s; 60s" fill="freeze" id="anim0" /></path><path d="M 4.8 28.4 C 3.9 28.4 3.4 27.6 3.4 26.8 C 3.4 26.0 3.9 25.2 4.8 25.2 L 11.8 25.2 C 12.9 25.2 13.3 25.1 13.3 24.4 C 13.3 24.2 13.2 23.9 13.2 23.6 C 11.5 17.0 7.4 10.2 2.4 6.1 C 1.8 5.7 1.6 5.1 1.6 4.6 C 1.6 3.7 2.4 2.9 3.3 2.9 C 3.7 2.9 4.2 3.0 4.5 3.3 C 10.2 8.0 14.8 15.3 16.8 23.0 C 16.9 23.7 17.0 24.2 17.0 24.8 C 17.0 27.1 15.5 28.4 12.5 28.4 Z" transform="scale(1,-1)" stroke-dasharray="80.79315425408711" stroke-dashoffset="80.79315425408711"><animate attributeName="stroke-dashoffset" from="80.79315425408711" to="0" dur="2.4237946276226134s" begin="anim0.end" fill="freeze" id="anim_end" /></path></g></svg>