<?xml version='1.0' encoding='utf-8'?>
<svg viewBox="0 -44.0 50.0 50.0" version="1.1" xmlns="http://www.w3.org/2000/svg"><rect x="-1000" y="-1000" width="2000" height="2000" stroke="white" fill="white" /><g style="fill:none;stroke:#000000;stroke-width:1"><path d="M 12.8 35.0 C 13.6 33.9 14.2 32.9 14.8 31.6 C 15.1 30.9 15.8 30.5 16.4 30.5 C 17.2 30.5 17.9 31.1 17.9 32.0 C 17.9 32.3 17.9 32.6 17.7 33.0 C 17.2 33.7 16.9 34.4 16.4 35.0 L 22.0 35.0 C 23.0 35.0 23.5 35.7 23.5 36.4 C 23.5 37.1 23.0 37.8 22.0 37.8 L 11.2 37.8 C 11.5 38.4 11.9 39.1 12.2 39.8 C 12.4 40.1 12.5 40.4 12.5 40.7 C 12.5 41.6 11.7 42.1 10.9 42.1 C 10.2 42.1 9.6 41.8 9.2 41.0 C 7.6 37.6 5.6 34.7 3.4 32.6 C 2.9 32.1 2.6 31.6 2.6 31.1 C 2.6 30.3 3.2 29.8 4.0 29.8 C 4.6 29.8 5.2 30.0 5.7 30.5 C 7.1 31.9 8.3 33.4 9.4 35.0 Z " transform="scale(1,-1)" stroke-dasharray="65.78337033601619" stroke-dashoffset="65.78337033601619"><animate attributeName="stroke-dashoffset" from="65.78337033601619" to="0" dur="1.9735011100804856s" begin="0s; 15s; 30s; 45s; 60s" fill="freeze" id="anim0" /></path><path d="M 28.8 14.1 C 28.7 12.6 28.5 11.1 28.2 9.7 L 15.5 9.7 C 14.5 9.7 14.0 9.0 14.0 8.3 C 14.0 7.6 14.5 6.9 15.5 6.9 L 27.2 6.9 C 26.5 5.6 25.7 4.6 24.7 3.7 C 22.5 1.6 18.6 -0.2 15.0 -1.0 C 14.0 -1.2 13.6 -1.9 13.6 -2.6 C 13.6 -3.4 14.4 -4.2 15.6 -4.0 C 19.7 -3.1 24.1 -1.1 26.7 1.2 C 28.1 2.5 29.3 4.0 30.2 5.8 C 33.6 1.2 38.9 -2.1 44.7 -3.6 C 44.9 -3.6 45.1 -3.7 45.3 -3.7 C 46.5 -3.7 47.2 -2.8 47.2 -1.9 C 47.2 -1.2 46.8 -0.5 45.7 -0.2 C 40.5 1.0 36.1 3.4 32.9 6.9 L 45.5 6.9 C 46.5 6.9 47.0 7.6 47.0 8.3 C 47.0 9.0 46.5 9.7 45.5 9.7 L 31.6 9.7 C 31.9 11.2 32.1 12.6 32.2 14.1 L 41.8 14.1 C 42.8 14.1 43.2 14.8 43.2 15.5 C 43.2 16.2 42.8 16.9 41.8 16.9 L 24.2 16.9 C 24.4 17.2 24.6 17.6 24.8 17.9 C 25.0 18.2 25.1 18.5 25.1 18.8 C 25.1 19.6 24.2 20.2 23.4 20.2 C 22.8 20.2 22.2 20.0 21.8 19.2 C 20.4 16.6 18.7 14.5 17.1 13.1 C 16.7 12.7 16.4 12.2 16.4 11.9 C 16.4 11.1 17.2 10.5 18.0 10.5 C 18.4 10.5 18.9 10.6 19.3 11.0 C 20.3 11.9 21.3 12.9 22.2 14.1 Z " transform="scale(1,-1)" stroke-dasharray="207.72649610409263" stroke-dashoffset="207.72649610409263"><animate attributeName="stroke-dashoffset" from="207.72649610409263" to="0" dur="6.231794883122779s" begin="anim0.end" fill="freeze" id="anim1" /></path><path d="M 33.3 35.0 C 34.1 33.9 34.8 32.6 35.2 31.7 C 35.6 30.9 36.3 30.5 36.9 30.5 C 37.7 30.5 38.4 31.1 38.4 32.0 C 38.4 32.3 38.3 32.6 38.1 33.1 C 37.8 33.6 37.4 34.4 36.9 35.0 L 45.6 35.0 C 46.6 35.0 47.1 35.7 47.1 36.4 C 47.1 37.1 46.6 37.8 45.6 37.8 L 30.9 37.8 C 31.3 38.5 31.7 39.2 32.1 39.9 C 32.2 40.2 32.3 40.5 32.3 40.8 C 32.3 41.6 31.6 42.2 30.7 42.2 C 30.1 42.2 29.4 41.9 29.0 41.1 C 27.5 38.1 25.8 35.6 23.9 33.6 C 23.3 33.1 23.1 32.6 23.1 32.1 C 23.1 31.4 23.7 30.8 24.5 30.8 C 25.0 30.8 25.6 31.0 26.1 31.6 C 27.1 32.6 28.1 33.8 29.1 35.0 Z " transform="scale(1,-1)" stroke-dasharray="71.18601678339812" stroke-dashoffset="71.18601678339812"><animate attributeName="stroke-dashoffset" from="71.18601678339812" to="0" dur="2.1355805035019433s" begin="anim1.end" fill="freeze" id="anim2" /></path><path d="M 39.1 23.2 L 39.4 25.9 C 39.7 28.2 38.6 29.4 35.2 29.4 L 21.7 29.4 C 20.7 29.4 20.2 28.8 20.2 28.1 C 20.2 27.4 20.7 26.7 21.7 26.7 L 34.6 26.7 C 35.8 26.7 36.0 26.5 35.9 25.7 L 35.6 23.2 L 16.6 23.2 C 15.6 23.2 15.1 22.5 15.1 21.9 C 15.1 21.2 15.6 20.5 16.6 20.5 L 45.7 20.5 C 46.7 20.5 47.1 21.2 47.1 21.9 C 47.1 22.5 46.7 23.2 45.7 23.2 Z " transform="scale(1,-1)" stroke-dasharray="108.28792341814115" stroke-dashoffset="108.28792341814115"><animate attributeName="stroke-dashoffset" from="108.28792341814115" to="0" dur="3.2486377025442343s" begin="anim2.end" fill="freeze" id="anim3" /></path><path d="M 7.6 -2.9 C 7.6 -3.8 8.5 -4.3 9.3 -4.3 C 10.2 -4.3 11.1 -3.8 11.1 -2.9 L 11.1 17.3 C 11.1 18.2 10.2 18.7 9.3 18.8 C 11.1 21.5 12.6 24.6 13.9 27.8 C 14.0 28.0 14.0 28.2 14.0 28.5 C 14.0 29.6 13.1 30.2 12.2 30.2 C 11.5 30.2 10.8 29.8 10.5 29.0 C 8.3 23.1 5.4 18.1 2.2 14.5 C 1.8 14.0 1.6 13.6 1.6 13.1 C 1.6 12.2 2.2 11.6 3.1 11.6 C 3.6 11.6 4.1 11.8 4.5 12.3 C 5.6 13.4 6.6 14.7 7.6 16.0 Z" transform="scale(1,-1)" stroke-dasharray="89.67551726562323" stroke-dashoffset="89.67551726562323"><animate attributeName="stroke-dashoffset" from="89.67551726562323" to="0" dur="2.6902655179686965s" begin="anim3.end" fill="freeze" id="anim_end" /></path></g></svg>