<?xml version='1.0' encoding='utf-8'?>
<svg viewBox="0 -44.0 50.0 50.0" version="1.1" xmlns="http://www.w3.org/2000/svg"><rect x="-1000" y="-1000" width="2000" height="2000" stroke="white" fill="white" /><g style="fill:none;stroke:#000000;stroke-width:1"><path d="M 28.6 34.6 L 35.0 34.6 L 35.0 32.4 C 35.0 31.5 35.8 31.0 36.6 31.0 C 37.4 31.0 38.2 31.5 38.2 32.4 L 38.2 34.6 L 45.8 34.6 C 46.7 34.6 47.2 35.4 47.2 36.1 C 47.2 36.9 46.7 37.6 45.8 37.6 L 38.2 37.6 L 38.2 40.4 C 38.2 41.4 37.4 41.8 36.6 41.8 C 35.8 41.8 35.0 41.4 35.0 40.4 L 35.0 37.6 L 28.6 37.6 L 28.6 40.4 C 28.6 41.4 27.8 41.8 27.0 41.8 C 26.2 41.8 25.4 41.4 25.4 40.4 L 25.4 37.6 L 18.9 37.6 C 17.9 37.6 17.5 36.9 17.5 36.1 C 17.5 35.4 17.9 34.6 18.9 34.6 L 25.4 34.6 L 25.4 32.1 C 25.4 31.2 26.2 30.7 27.0 30.7 C 27.8 30.7 28.6 31.2 28.6 32.1 Z " transform="scale(1,-1)" stroke-dasharray="89.90643423262841" stroke-dashoffset="89.90643423262841"><animate attributeName="stroke-dashoffset" from="89.90643423262841" to="0" dur="2.6971930269788524s" begin="0s; 15s; 30s; 45s; 60s" fill="freeze" id="anim0" /></path><path d="M 22.2 26.6 L 22.2 22.2 L 17.7 22.2 C 16.7 22.2 16.2 21.6 16.2 20.8 C 16.2 20.1 16.7 19.4 17.7 19.4 L 22.2 19.4 L 22.2 14.9 L 18.9 14.9 C 17.9 14.9 17.4 14.2 17.4 13.5 C 17.4 12.7 17.9 12.0 18.9 12.0 L 30.0 12.0 L 30.0 7.8 L 20.4 7.8 C 19.4 7.8 18.9 7.0 18.9 6.2 C 18.9 5.5 19.4 4.8 20.4 4.8 L 30.0 4.8 L 30.0 -2.2 C 30.0 -3.2 30.9 -3.8 31.7 -3.8 C 32.5 -3.8 33.3 -3.2 33.3 -2.2 L 33.3 4.8 L 44.2 4.8 C 45.2 4.8 45.7 5.5 45.7 6.2 C 45.7 7.0 45.2 7.8 44.2 7.8 L 33.3 7.8 L 33.3 12.0 L 45.5 12.0 C 46.5 12.0 47.0 12.7 47.0 13.5 C 47.0 14.2 46.5 14.9 45.5 14.9 L 41.4 14.9 L 41.4 19.4 L 47.0 19.4 C 48.0 19.4 48.5 20.1 48.5 20.8 C 48.5 21.6 48.0 22.2 47.0 22.2 L 41.4 22.2 L 41.4 26.6 L 45.3 26.6 C 46.3 26.6 46.8 27.4 46.8 28.1 C 46.8 28.8 46.3 29.6 45.3 29.6 L 19.6 29.6 C 18.6 29.6 18.1 28.8 18.1 28.1 C 18.1 27.4 18.6 26.6 19.6 26.6 Z " transform="scale(1,-1)" stroke-dasharray="207.0270862434896" stroke-dashoffset="207.0270862434896"><animate attributeName="stroke-dashoffset" from="207.0270862434896" to="0" dur="6.210812587304688s" begin="anim0.end" fill="freeze" id="anim1" /></path><path d="M 25.5 14.9 L 25.5 19.4 L 30.0 19.4 L 30.0 14.9 Z " transform="scale(1,-1)" stroke-dasharray="17.999999999999996" stroke-dashoffset="17.999999999999996"><animate attributeName="stroke-dashoffset" from="17.999999999999996" to="0" dur="0.5399999999999999s" begin="anim1.end" fill="freeze" id="anim2" /></path><path d="M 25.5 22.2 L 25.5 26.6 L 30.0 26.6 L 30.0 22.2 Z " transform="scale(1,-1)" stroke-dasharray="17.800000000000004" stroke-dashoffset="17.800000000000004"><animate attributeName="stroke-dashoffset" from="17.800000000000004" to="0" dur="0.5340000000000001s" begin="anim2.end" fill="freeze" id="anim3" /></path><path d="M 33.3 14.9 L 33.3 19.4 L 38.1 19.4 L 38.1 14.9 Z " transform="scale(1,-1)" stroke-dasharray="18.600000000000005" stroke-dashoffset="18.600000000000005"><animate attributeName="stroke-dashoffset" from="18.600000000000005" to="0" dur="0.5580000000000002s" begin="anim3.end" fill="freeze" id="anim4" /></path><path d="M 33.3 22.2 L 33.3 26.6 L 38.1 26.6 L 38.1 22.2 Z " transform="scale(1,-1)" stroke-dasharray="18.400000000000013" stroke-dashoffset="18.400000000000013"><animate attributeName="stroke-dashoffset" from="18.400000000000013" to="0" dur="0.5520000000000004s" begin="anim4.end" fill="freeze" id="anim5" /></path><path d="M 11.8 40.1 C 11.8 41.1 11.0 41.6 10.2 41.6 C 9.3 41.6 8.5 41.1 8.5 40.1 L 8.5 25.2 C 8.5 14.3 6.4 5.6 2.3 0.5 C 2.0 0.0 1.8 -0.4 1.8 -0.8 C 1.8 -1.7 2.5 -2.3 3.3 -2.3 C 3.9 -2.3 4.4 -2.1 4.9 -1.5 C 7.0 1.3 8.7 4.8 9.9 9.0 C 11.4 7.5 12.9 5.7 14.1 3.8 C 14.6 3.0 15.2 2.7 15.7 2.7 C 16.6 2.7 17.4 3.4 17.4 4.5 C 17.4 5.0 17.2 5.5 16.8 6.1 C 15.3 8.0 13.2 10.4 10.7 12.4 C 11.5 16.1 11.7 19.9 11.8 23.6 C 14.2 25.7 16.1 28.0 17.4 30.0 C 17.6 30.3 17.7 30.6 17.7 30.9 C 17.7 31.8 16.9 32.4 16.1 32.4 C 15.6 32.4 15.1 32.1 14.8 31.5 C 13.9 30.1 12.9 28.6 11.8 27.2 Z " transform="scale(1,-1)" stroke-dasharray="128.16858379716217" stroke-dashoffset="128.16858379716217"><animate attributeName="stroke-dashoffset" from="128.16858379716217" to="0" dur="3.845057513914865s" begin="anim5.end" fill="freeze" id="anim6" /></path><path d="M 3.9 29.1 C 3.5 26.6 2.8 23.8 2.1 22.1 C 2.0 21.8 2.0 21.6 2.0 21.3 C 2.0 20.4 2.7 19.8 3.5 19.8 C 4.1 19.8 4.8 20.2 5.1 21.2 C 5.8 23.1 6.5 26.0 6.9 28.5 C 7.0 29.8 6.1 30.4 5.3 30.4 C 4.6 30.4 4.0 30.0 3.9 29.1 Z" transform="scale(1,-1)" stroke-dasharray="25.168891045843626" stroke-dashoffset="25.168891045843626"><animate attributeName="stroke-dashoffset" from="25.168891045843626" to="0" dur="0.7550667313753088s" begin="anim6.end" fill="freeze" id="anim_end" /></path></g></svg>