<?xml version='1.0' encoding='utf-8'?>
<svg viewBox="0 -44.0 50.0 50.0" version="1.1" xmlns="http://www.w3.org/2000/svg"><rect x="-1000" y="-1000" width="2000" height="2000" stroke="white" fill="white" /><g style="fill:none;stroke:#000000;stroke-width:1"><path d="M 31.8 10.9 L 31.8 7.2 L 21.1 7.2 C 20.2 7.2 19.7 6.4 19.7 5.6 C 19.7 4.9 20.2 4.0 21.1 4.0 L 31.8 4.0 L 31.8 -2.6 C 31.8 -3.6 32.6 -4.2 33.5 -4.2 C 34.2 -4.2 35.1 -3.6 35.1 -2.6 L 35.1 4.0 L 46.7 4.0 C 47.6 4.0 48.1 4.9 48.1 5.6 C 48.1 6.4 47.6 7.2 46.7 7.2 L 35.1 7.2 L 35.1 10.9 L 39.9 10.9 C 43.6 10.9 45.2 12.2 45.2 15.3 L 45.2 23.0 C 45.2 26.0 43.7 27.5 40.0 27.5 L 27.4 27.5 C 23.6 27.5 22.1 26.0 22.1 23.0 L 22.1 15.3 C 22.1 11.7 24.2 10.9 27.4 10.9 Z " transform="scale(1,-1)" stroke-dasharray="148.89012829735097" stroke-dashoffset="148.89012829735097"><animate attributeName="stroke-dashoffset" from="148.89012829735097" to="0" dur="4.466703848920529s" begin="0s; 15s; 30s; 45s; 60s" fill="freeze" id="anim0" /></path><path d="M 27.8 13.8 C 26.0 13.8 25.4 14.2 25.4 15.8 L 25.4 17.9 L 31.8 17.9 L 31.8 13.8 Z " transform="scale(1,-1)" stroke-dasharray="20.29425224093349" stroke-dashoffset="20.29425224093349"><animate attributeName="stroke-dashoffset" from="20.29425224093349" to="0" dur="0.6088275672280047s" begin="anim0.end" fill="freeze" id="anim1" /></path><path d="M 35.1 13.8 L 35.1 17.9 L 41.9 17.9 L 41.9 15.8 C 41.9 14.1 41.2 13.8 39.6 13.8 Z " transform="scale(1,-1)" stroke-dasharray="21.107851646987115" stroke-dashoffset="21.107851646987115"><animate attributeName="stroke-dashoffset" from="21.107851646987115" to="0" dur="0.6332355494096135s" begin="anim1.end" fill="freeze" id="anim2" /></path><path d="M 41.9 20.7 L 35.1 20.7 L 35.1 24.6 L 40.0 24.6 C 41.4 24.6 41.9 24.1 41.9 22.5 Z " transform="scale(1,-1)" stroke-dasharray="20.729484635424548" stroke-dashoffset="20.729484635424548"><animate attributeName="stroke-dashoffset" from="20.729484635424548" to="0" dur="0.6218845390627364s" begin="anim2.end" fill="freeze" id="anim3" /></path><path d="M 31.8 24.6 L 31.8 20.7 L 25.4 20.7 L 25.4 22.5 C 25.4 24.1 26.0 24.6 27.8 24.6 Z " transform="scale(1,-1)" stroke-dasharray="19.854166660013803" stroke-dashoffset="19.854166660013803"><animate attributeName="stroke-dashoffset" from="19.854166660013803" to="0" dur="0.5956249998004141s" begin="anim3.end" fill="freeze" id="anim4" /></path><path d="M 28.2 29.9 C 30.8 29.9 32.1 31.2 32.1 33.6 L 32.1 36.5 C 32.1 39.0 30.8 40.2 28.2 40.2 L 24.5 40.2 C 21.8 40.2 20.6 39.0 20.6 36.5 L 20.6 33.6 C 20.6 31.0 21.9 30.0 24.5 29.9 Z " transform="scale(1,-1)" stroke-dasharray="37.90115530020006" stroke-dashoffset="37.90115530020006"><animate attributeName="stroke-dashoffset" from="37.90115530020006" to="0" dur="1.1370346590060016s" begin="anim4.end" fill="freeze" id="anim5" /></path><path d="M 25.2 32.6 C 24.1 32.6 23.7 33.1 23.7 34.1 L 23.7 36.1 C 23.7 37.1 24.1 37.5 25.2 37.5 L 27.4 37.5 C 28.5 37.5 28.9 37.1 28.9 36.1 L 28.9 34.1 C 28.9 33.0 28.5 32.6 27.4 32.6 Z " transform="scale(1,-1)" stroke-dasharray="18.132582542856262" stroke-dashoffset="18.132582542856262"><animate attributeName="stroke-dashoffset" from="18.132582542856262" to="0" dur="0.5439774762856878s" begin="anim5.end" fill="freeze" id="anim6" /></path><path d="M 42.7 29.9 C 45.3 29.9 46.6 31.2 46.6 33.6 L 46.6 36.5 C 46.6 39.0 45.3 40.2 42.7 40.2 L 38.8 40.2 C 36.1 40.2 34.9 39.0 34.9 36.5 L 34.9 33.6 C 35.0 31.0 36.2 30.0 38.8 29.9 Z " transform="scale(1,-1)" stroke-dasharray="38.268600986474084" stroke-dashoffset="38.268600986474084"><animate attributeName="stroke-dashoffset" from="38.268600986474084" to="0" dur="1.1480580295942224s" begin="anim6.end" fill="freeze" id="anim7" /></path><path d="M 39.6 32.6 C 38.5 32.6 38.1 33.1 38.1 34.1 L 38.1 36.1 C 38.1 37.1 38.5 37.5 39.6 37.5 L 41.9 37.5 C 43.0 37.5 43.4 37.1 43.4 36.1 L 43.4 34.1 C 43.4 33.0 43.0 32.6 41.9 32.6 Z " transform="scale(1,-1)" stroke-dasharray="18.332582542856258" stroke-dashoffset="18.332582542856258"><animate attributeName="stroke-dashoffset" from="18.332582542856258" to="0" dur="0.5499774762856877s" begin="anim7.end" fill="freeze" id="anim8" /></path><path d="M 9.0 28.2 L 9.0 -2.7 C 9.0 -3.7 9.8 -4.2 10.6 -4.2 C 11.5 -4.2 12.2 -3.7 12.2 -2.7 L 12.2 28.2 L 17.2 28.2 C 18.2 28.2 18.7 29.0 18.7 29.8 C 18.7 30.5 18.2 31.2 17.2 31.2 L 3.1 31.2 C 2.1 31.2 1.7 30.5 1.7 29.8 C 1.7 29.0 2.1 28.2 3.1 28.2 Z " transform="scale(1,-1)" stroke-dasharray="101.13206910842504" stroke-dashoffset="101.13206910842504"><animate attributeName="stroke-dashoffset" from="101.13206910842504" to="0" dur="3.0339620732527512s" begin="anim8.end" fill="freeze" id="anim9" /></path><path d="M 17.8 22.9 C 17.8 23.9 17.1 24.4 16.2 24.4 C 15.5 24.4 14.7 23.9 14.7 22.9 L 14.7 3.7 C 14.7 2.8 15.5 2.2 16.2 2.2 C 17.1 2.2 17.8 2.8 17.8 3.7 Z " transform="scale(1,-1)" stroke-dasharray="48.04877710526916" stroke-dashoffset="48.04877710526916"><animate attributeName="stroke-dashoffset" from="48.04877710526916" to="0" dur="1.4414633131580747s" begin="anim9.end" fill="freeze" id="anim10" /></path><path d="M 3.5 16.7 C 3.5 10.2 2.9 6.1 1.8 2.9 C 1.7 2.6 1.7 2.4 1.7 2.1 C 1.7 1.2 2.4 0.6 3.1 0.6 C 3.8 0.6 4.4 1.0 4.7 1.9 C 6.0 5.4 6.6 9.9 6.6 16.7 L 6.6 22.9 C 6.6 23.9 5.8 24.4 5.1 24.4 C 4.2 24.4 3.5 23.9 3.5 22.9 Z " transform="scale(1,-1)" stroke-dasharray="51.51845476132189" stroke-dashoffset="51.51845476132189"><animate attributeName="stroke-dashoffset" from="51.51845476132189" to="0" dur="1.5455536428396566s" begin="anim10.end" fill="freeze" id="anim11" /></path><path d="M 16.1 36.2 C 17.0 36.2 17.5 37.1 17.5 37.8 C 17.5 38.6 17.0 39.4 16.1 39.4 L 4.4 39.4 C 3.5 39.4 3.0 38.6 3.0 37.8 C 3.0 37.1 3.5 36.2 4.4 36.2 Z" transform="scale(1,-1)" stroke-dasharray="32.85528376178189" stroke-dashoffset="32.85528376178189"><animate attributeName="stroke-dashoffset" from="32.85528376178189" to="0" dur="0.9856585128534567s" begin="anim11.end" fill="freeze" id="anim_end" /></path></g></svg>