<?xml version='1.0' encoding='utf-8'?>
<svg viewBox="0 -44.0 50.0 50.0" version="1.1" xmlns="http://www.w3.org/2000/svg"><rect x="-1000" y="-1000" width="2000" height="2000" stroke="white" fill="white" /><g style="fill:none;stroke:#000000;stroke-width:1"><path d="M 10.0 30.4 L 3.7 30.4 C 2.8 30.4 2.3 29.7 2.3 28.9 C 2.3 28.1 2.8 27.3 3.7 27.3 L 9.4 27.3 C 7.8 20.9 5.0 14.6 1.9 10.1 C 1.6 9.6 1.5 9.2 1.5 8.8 C 1.5 7.9 2.1 7.3 2.9 7.3 C 3.5 7.3 4.0 7.6 4.5 8.2 C 6.8 11.6 8.8 15.7 10.2 19.7 L 10.0 9.3 L 10.0 -2.5 C 10.0 -3.5 10.9 -4.0 11.7 -4.0 C 12.6 -4.0 13.4 -3.5 13.4 -2.5 L 13.4 18.4 C 14.7 17.4 16.0 16.0 16.9 14.7 C 17.4 14.1 17.9 13.8 18.4 13.8 C 19.3 13.8 20.1 14.5 20.1 15.5 C 20.1 15.9 19.9 16.4 19.4 17.0 C 17.9 18.7 15.8 20.5 13.4 22.0 L 13.4 27.3 L 18.4 27.3 C 19.4 27.3 19.9 28.1 19.9 28.9 C 19.9 29.7 19.4 30.4 18.4 30.4 L 13.4 30.4 L 13.4 40.2 C 13.4 41.3 12.6 41.8 11.7 41.8 C 10.9 41.8 10.0 41.3 10.0 40.2 Z " transform="scale(1,-1)" stroke-dasharray="166.2799687476206" stroke-dashoffset="166.2799687476206"><animate attributeName="stroke-dashoffset" from="166.2799687476206" to="0" dur="4.988399062428617s" begin="0s; 15s; 30s; 45s; 60s" fill="freeze" id="anim0" /></path><path d="M 39.0 -2.3 C 43.8 -2.3 45.7 -0.8 45.7 3.2 L 45.7 33.6 C 45.7 37.6 43.8 39.1 39.0 39.1 L 30.2 39.1 C 25.5 39.1 23.6 37.6 23.6 33.6 L 23.6 3.2 C 23.7 -1.4 26.1 -2.2 30.2 -2.3 Z " transform="scale(1,-1)" stroke-dasharray="118.52012082481583" stroke-dashoffset="118.52012082481583"><animate attributeName="stroke-dashoffset" from="118.52012082481583" to="0" dur="3.555603624744475s" begin="anim0.end" fill="freeze" id="anim1" /></path><path d="M 30.7 0.9 C 28.0 0.9 27.2 1.6 27.2 3.8 L 27.2 11.2 L 42.0 11.2 L 42.0 3.8 C 41.9 1.2 40.8 1.0 38.5 0.9 Z " transform="scale(1,-1)" stroke-dasharray="48.07440747143041" stroke-dashoffset="48.07440747143041"><animate attributeName="stroke-dashoffset" from="48.07440747143041" to="0" dur="1.4422322241429124s" begin="anim1.end" fill="freeze" id="anim2" /></path><path d="M 27.2 23.5 L 42.0 23.5 L 42.0 14.4 L 27.2 14.4 Z " transform="scale(1,-1)" stroke-dasharray="47.8" stroke-dashoffset="47.8"><animate attributeName="stroke-dashoffset" from="47.8" to="0" dur="1.434s" begin="anim2.end" fill="freeze" id="anim3" /></path><path d="M 42.0 26.7 L 27.2 26.7 L 27.2 33.0 C 27.2 35.1 28.0 35.9 30.7 35.9 L 38.5 35.9 C 41.2 35.9 42.0 35.1 42.0 33.0 Z" transform="scale(1,-1)" stroke-dasharray="45.861058090304894" stroke-dashoffset="45.861058090304894"><animate attributeName="stroke-dashoffset" from="45.861058090304894" to="0" dur="1.3758317427091469s" begin="anim3.end" fill="freeze" id="anim_end" /></path></g></svg>