<?xml version='1.0' encoding='utf-8'?>
<svg viewBox="0 -44.0 50.0 50.0" version="1.1" xmlns="http://www.w3.org/2000/svg"><rect x="-1000" y="-1000" width="2000" height="2000" stroke="white" fill="white" /><g style="fill:none;stroke:#000000;stroke-width:1"><path d="M 24.2 3.9 L 37.1 3.9 L 37.1 0.8 C 37.1 -0.4 36.8 -0.7 35.8 -0.7 C 35.1 -0.7 34.5 -0.6 33.8 -0.5 C 32.5 -0.2 31.8 -1.1 31.8 -2.0 C 31.8 -2.7 32.2 -3.4 33.1 -3.6 C 34.2 -3.8 34.9 -3.9 35.8 -3.9 C 38.9 -3.9 40.4 -2.7 40.4 0.3 L 40.4 14.7 C 40.4 17.1 38.8 18.8 35.3 18.8 L 26.0 18.8 C 22.2 18.8 20.9 17.4 20.9 14.7 L 20.9 -2.7 C 20.9 -3.7 21.7 -4.2 22.5 -4.2 C 23.4 -4.2 24.2 -3.7 24.2 -2.7 Z " transform="scale(1,-1)" stroke-dasharray="103.14937714280238" stroke-dashoffset="103.14937714280238"><animate attributeName="stroke-dashoffset" from="103.14937714280238" to="0" dur="3.0944813142840712s" begin="0s; 15s; 30s; 45s; 60s" fill="freeze" id="anim0" /></path><path d="M 24.2 9.9 L 37.1 9.9 L 37.1 6.7 L 24.2 6.7 Z " transform="scale(1,-1)" stroke-dasharray="32.2" stroke-dashoffset="32.2"><animate attributeName="stroke-dashoffset" from="32.2" to="0" dur="0.9660000000000001s" begin="anim0.end" fill="freeze" id="anim1" /></path><path d="M 37.1 12.7 L 24.2 12.7 L 24.2 14.3 C 24.2 15.5 24.6 15.9 26.3 15.9 L 35.0 15.9 C 36.7 15.9 37.1 15.5 37.1 14.3 Z " transform="scale(1,-1)" stroke-dasharray="31.03324213645806" stroke-dashoffset="31.03324213645806"><animate attributeName="stroke-dashoffset" from="31.03324213645806" to="0" dur="0.9309972640937417s" begin="anim1.end" fill="freeze" id="anim2" /></path><path d="M 12.8 32.1 C 12.8 33.9 13.6 34.6 15.8 34.6 L 46.2 34.6 C 47.2 34.6 47.8 35.3 47.8 36.1 C 47.8 36.8 47.2 37.6 46.2 37.6 L 29.9 37.6 L 29.9 41.3 C 29.9 42.2 29.0 42.8 28.1 42.8 C 27.2 42.8 26.2 42.2 26.2 41.3 L 26.2 37.6 L 15.1 37.6 C 10.9 37.6 9.3 35.9 9.3 32.7 L 9.3 24.2 C 9.3 22.4 9.2 20.6 9.1 18.8 C 7.0 17.4 4.7 16.4 2.7 15.6 C 1.7 15.2 1.2 14.4 1.2 13.8 C 1.2 12.9 1.9 12.1 2.9 12.1 C 3.2 12.1 3.5 12.2 3.9 12.4 C 5.5 13.1 7.1 13.9 8.7 14.9 C 7.8 9.2 6.1 4.8 3.5 1.1 C 3.1 0.6 3.0 0.1 3.0 -0.4 C 3.0 -1.3 3.7 -2.0 4.5 -2.0 C 5.2 -2.0 5.8 -1.7 6.2 -1.0 C 10.5 5.4 12.8 13.2 12.8 24.1 Z " transform="scale(1,-1)" stroke-dasharray="176.71315401224362" stroke-dashoffset="176.71315401224362"><animate attributeName="stroke-dashoffset" from="176.71315401224362" to="0" dur="5.301394620367309s" begin="anim2.end" fill="freeze" id="anim3" /></path><path d="M 45.0 22.5 C 45.9 22.5 46.4 23.2 46.4 23.9 C 46.4 24.6 45.9 25.3 45.0 25.3 L 39.4 25.3 C 38.7 25.2 38.1 24.8 38.0 24.0 C 35.8 26.0 33.6 28.2 32.0 30.6 C 32.1 31.0 32.2 31.2 32.2 31.6 C 32.2 32.5 31.4 33.1 30.6 33.1 C 30.0 33.1 29.3 32.9 29.0 32.1 C 27.4 29.1 25.2 26.4 23.0 23.9 C 23.0 24.6 22.5 25.3 21.5 25.3 L 16.2 25.3 C 15.2 25.3 14.8 24.6 14.8 23.9 C 14.8 23.2 15.2 22.5 16.2 22.5 L 21.5 22.5 L 21.6 22.5 C 19.3 20.2 16.9 18.4 14.6 17.1 C 13.8 16.7 13.5 16.1 13.5 15.6 C 13.5 14.8 14.2 14.0 15.1 14.0 C 15.5 14.0 15.9 14.1 16.2 14.4 C 21.3 17.4 26.8 22.8 30.4 28.0 C 34.1 22.9 39.7 18.1 45.3 15.0 C 45.7 14.7 46.1 14.6 46.5 14.6 C 47.5 14.6 48.2 15.5 48.2 16.4 C 48.2 17.0 47.9 17.7 46.9 18.2 C 44.5 19.2 42.1 20.8 39.8 22.5 Z " transform="scale(1,-1)" stroke-dasharray="128.32237894660332" stroke-dashoffset="128.32237894660332"><animate attributeName="stroke-dashoffset" from="128.32237894660332" to="0" dur="3.8496713683980994s" begin="anim3.end" fill="freeze" id="anim4" /></path><path d="M 23.2 28.1 C 24.1 28.1 24.6 28.8 24.6 29.5 C 24.6 30.2 24.1 30.9 23.2 30.9 L 17.4 30.9 C 16.5 30.9 16.1 30.2 16.1 29.5 C 16.1 28.8 16.5 28.1 17.4 28.1 Z " transform="scale(1,-1)" stroke-dasharray="20.32465613380087" stroke-dashoffset="20.32465613380087"><animate attributeName="stroke-dashoffset" from="20.32465613380087" to="0" dur="0.6097396840140261s" begin="anim4.end" fill="freeze" id="anim5" /></path><path d="M 5.5 30.2 C 5.1 30.6 4.5 30.8 4.1 30.8 C 3.2 30.8 2.5 30.1 2.5 29.2 C 2.5 28.8 2.6 28.4 3.0 28.0 C 3.8 27.2 4.8 25.9 5.6 24.7 C 6.0 24.1 6.6 23.8 7.1 23.8 C 8.1 23.8 8.9 24.6 8.9 25.6 C 8.9 26.0 8.8 26.5 8.4 26.9 C 7.6 28.1 6.5 29.2 5.5 30.2 Z " transform="scale(1,-1)" stroke-dasharray="20.103867704088575" stroke-dashoffset="20.103867704088575"><animate attributeName="stroke-dashoffset" from="20.103867704088575" to="0" dur="0.6031160311226572s" begin="anim5.end" fill="freeze" id="anim6" /></path><path d="M 43.7 28.1 C 44.7 28.1 45.2 28.8 45.2 29.5 C 45.2 30.2 44.7 30.9 43.7 30.9 L 37.8 30.9 C 36.8 30.9 36.4 30.2 36.4 29.5 C 36.4 28.8 36.8 28.1 37.8 28.1 Z" transform="scale(1,-1)" stroke-dasharray="20.87241129687258" stroke-dashoffset="20.87241129687258"><animate attributeName="stroke-dashoffset" from="20.87241129687258" to="0" dur="0.6261723389061774s" begin="anim6.end" fill="freeze" id="anim_end" /></path></g></svg>