<?xml version='1.0' encoding='utf-8'?>
<svg viewBox="0 -44.0 50.0 50.0" version="1.1" xmlns="http://www.w3.org/2000/svg"><rect x="-1000" y="-1000" width="2000" height="2000" stroke="white" fill="white" /><g style="fill:none;stroke:#000000;stroke-width:1"><path d="M 42.1 0.6 C 42.4 -0.2 42.7 -0.9 43.0 -1.5 C 43.3 -2.4 44.0 -2.8 44.7 -2.8 C 45.6 -2.8 46.4 -2.1 46.4 -1.0 C 46.4 -0.7 46.4 -0.3 46.2 0.1 C 45.0 3.0 43.1 6.5 41.1 9.2 C 40.7 9.9 40.1 10.2 39.5 10.2 C 38.7 10.2 37.9 9.5 37.9 8.7 C 37.9 8.3 38.0 8.0 38.2 7.6 C 39.2 6.3 40.1 4.8 40.9 3.2 C 37.8 2.7 34.7 2.2 31.6 1.9 C 34.3 7.7 36.5 14.4 37.9 21.1 C 38.1 22.5 37.1 23.3 36.1 23.3 C 35.3 23.3 34.5 22.8 34.3 21.8 C 33.0 15.2 30.9 7.8 28.0 1.5 C 27.1 1.4 26.2 1.3 25.3 1.2 C 24.2 1.2 23.6 0.4 23.6 -0.4 C 23.6 -1.3 24.4 -2.2 25.7 -2.1 C 31.5 -1.6 36.6 -0.7 42.1 0.6 Z " transform="scale(1,-1)" stroke-dasharray="111.3990000433638" stroke-dashoffset="111.3990000433638"><animate attributeName="stroke-dashoffset" from="111.3990000433638" to="0" dur="3.341970001300914s" begin="0s; 15s; 30s; 45s; 60s" fill="freeze" id="anim0" /></path><path d="M 27.1 29.6 C 25.2 17.9 21.2 7.0 16.2 0.2 C 15.8 -0.3 15.7 -0.8 15.7 -1.2 C 15.7 -2.0 16.4 -2.7 17.2 -2.7 C 17.8 -2.7 18.4 -2.4 18.9 -1.7 C 24.5 5.4 28.7 17.3 30.7 29.6 L 45.4 29.6 C 46.4 29.6 46.9 30.4 46.9 31.2 C 46.9 32.0 46.4 32.8 45.4 32.8 L 31.2 32.8 C 31.5 35.1 31.7 37.6 31.8 40.0 C 31.9 41.2 31.0 41.8 30.1 41.8 C 29.2 41.8 28.3 41.2 28.2 40.1 C 28.1 37.6 27.9 35.2 27.6 32.8 L 21.7 32.8 C 20.7 32.8 20.2 32.0 20.2 31.2 C 20.2 30.4 20.7 29.6 21.7 29.6 Z " transform="scale(1,-1)" stroke-dasharray="141.51688170669854" stroke-dashoffset="141.51688170669854"><animate attributeName="stroke-dashoffset" from="141.51688170669854" to="0" dur="4.245506451200956s" begin="anim0.end" fill="freeze" id="anim1" /></path><path d="M 14.4 10.2 C 15.6 14.8 16.6 19.7 17.2 24.4 C 17.2 25.6 16.3 26.2 15.4 26.2 C 14.6 26.2 13.9 25.8 13.8 24.7 C 13.2 19.8 12.4 14.6 10.9 9.2 C 8.3 8.4 5.7 7.7 3.4 7.2 C 2.3 7.1 1.8 6.3 1.8 5.6 C 1.8 4.6 2.6 3.7 3.9 4.0 C 8.6 5.0 14.0 6.6 18.2 8.4 C 18.9 8.8 19.2 9.3 19.2 9.9 C 19.2 10.7 18.7 11.4 17.8 11.4 C 17.5 11.4 17.2 11.4 17.0 11.2 C 16.2 10.9 15.3 10.6 14.4 10.2 Z " transform="scale(1,-1)" stroke-dasharray="71.73218947506136" stroke-dashoffset="71.73218947506136"><animate attributeName="stroke-dashoffset" from="71.73218947506136" to="0" dur="2.1519656842518406s" begin="anim1.end" fill="freeze" id="anim2" /></path><path d="M 12.5 31.9 L 12.5 39.5 C 12.5 40.6 11.7 41.1 10.8 41.1 C 9.9 41.1 9.1 40.6 9.1 39.5 L 9.1 31.9 L 3.6 31.9 C 2.6 31.9 2.1 31.2 2.1 30.4 C 2.1 29.6 2.6 28.8 3.6 28.8 L 17.6 28.8 C 18.6 28.8 19.1 29.6 19.1 30.4 C 19.1 31.2 18.6 31.9 17.6 31.9 Z " transform="scale(1,-1)" stroke-dasharray="54.7680629763093" stroke-dashoffset="54.7680629763093"><animate attributeName="stroke-dashoffset" from="54.7680629763093" to="0" dur="1.643041889289279s" begin="anim2.end" fill="freeze" id="anim3" /></path><path d="M 7.4 24.1 C 7.1 24.9 6.4 25.2 5.7 25.2 C 4.9 25.2 4.0 24.8 4.0 23.8 C 4.0 23.6 4.1 23.4 4.2 23.2 C 5.1 20.3 5.8 16.5 6.1 13.3 C 6.2 12.2 6.9 11.7 7.7 11.7 C 8.6 11.7 9.5 12.4 9.4 13.7 C 9.1 17.1 8.3 21.1 7.4 24.1 Z" transform="scale(1,-1)" stroke-dasharray="31.47002700141862" stroke-dashoffset="31.47002700141862"><animate attributeName="stroke-dashoffset" from="31.47002700141862" to="0" dur="0.9441008100425586s" begin="anim3.end" fill="freeze" id="anim_end" /></path></g></svg>