<?xml version='1.0' encoding='utf-8'?>
<svg viewBox="0 -44.0 50.0 50.0" version="1.1" xmlns="http://www.w3.org/2000/svg"><rect x="-1000" y="-1000" width="2000" height="2000" stroke="white" fill="white" /><g style="fill:none;stroke:#000000;stroke-width:1"><path d="M 11.6 39.9 C 10.6 39.9 10.1 39.1 10.1 38.3 C 10.1 37.6 10.6 36.8 11.6 36.8 L 32.5 36.8 C 33.0 36.8 33.2 36.6 33.2 36.5 C 33.2 36.3 33.1 36.1 32.7 35.9 C 31.3 34.9 29.2 33.9 26.6 32.9 C 26.2 33.2 25.8 33.4 25.3 33.4 C 24.5 33.4 23.6 32.9 23.6 31.8 L 23.6 19.0 C 23.6 17.6 23.1 17.1 21.6 17.1 C 20.9 17.1 20.2 17.2 19.3 17.4 C 18.1 17.7 17.2 16.7 17.2 15.7 C 17.2 15.0 17.7 14.3 18.7 14.1 C 19.8 13.8 20.8 13.7 22.0 13.7 C 25.4 13.7 27.1 15.2 27.1 18.6 L 27.1 30.0 C 27.7 30.2 28.4 30.4 29.0 30.7 C 32.4 23.0 38.8 16.1 45.1 12.5 C 45.4 12.3 45.8 12.2 46.1 12.2 C 47.2 12.2 48.1 13.1 48.1 14.1 C 48.1 14.7 47.7 15.4 46.7 16.0 C 43.2 17.9 39.9 20.6 37.0 23.9 C 39.9 25.7 42.7 27.9 45.1 30.0 C 45.6 30.5 45.8 31.0 45.8 31.4 C 45.8 32.4 44.8 33.2 43.8 33.2 C 43.3 33.2 42.9 33.1 42.4 32.6 C 40.0 30.1 37.8 28.2 35.1 26.2 C 33.8 28.1 32.6 29.9 31.7 31.9 C 32.9 32.5 34.0 33.1 34.9 33.7 C 36.5 34.7 37.2 35.9 37.2 37.0 C 37.2 38.6 35.7 39.9 33.0 39.9 Z " transform="scale(1,-1)" stroke-dasharray="198.44266769993675" stroke-dashoffset="198.44266769993675"><animate attributeName="stroke-dashoffset" from="198.44266769993675" to="0" dur="5.953280030998102s" begin="0s; 15s; 30s; 45s; 60s" fill="freeze" id="anim0" /></path><path d="M 10.7 11.6 C 9.7 11.6 9.2 10.8 9.2 10.1 C 9.2 9.2 9.7 8.5 10.7 8.5 L 39.0 8.5 C 40.0 8.5 40.4 9.2 40.4 10.1 C 40.4 10.8 40.0 11.6 39.0 11.6 Z " transform="scale(1,-1)" stroke-dasharray="66.17348956536127" stroke-dashoffset="66.17348956536127"><animate attributeName="stroke-dashoffset" from="66.17348956536127" to="0" dur="1.985204686960838s" begin="anim0.end" fill="freeze" id="anim1" /></path><path d="M 20.3 5.1 C 19.9 6.0 19.1 6.4 18.4 6.4 C 17.6 6.4 16.8 5.8 16.8 4.8 C 16.8 4.5 16.9 4.2 16.9 3.9 C 17.7 2.0 18.2 0.4 18.6 -1.5 C 18.8 -2.6 19.6 -3.1 20.4 -3.1 C 21.3 -3.1 22.2 -2.4 22.2 -1.2 C 22.2 -1.0 22.2 -0.8 22.2 -0.5 C 21.7 1.3 21.1 3.3 20.3 5.1 Z " transform="scale(1,-1)" stroke-dasharray="23.704284940882413" stroke-dashoffset="23.704284940882413"><animate attributeName="stroke-dashoffset" from="23.704284940882413" to="0" dur="0.7111285482264724s" begin="anim1.end" fill="freeze" id="anim2" /></path><path d="M 8.7 5.4 C 7.7 3.2 6.3 1.2 4.9 -0.4 C 4.4 -0.9 4.2 -1.5 4.2 -1.9 C 4.2 -2.9 5.0 -3.6 6.0 -3.6 C 6.6 -3.6 7.2 -3.4 7.8 -2.7 C 9.3 -0.8 10.8 1.5 11.9 3.7 C 12.1 4.1 12.2 4.5 12.2 4.8 C 12.2 5.8 11.2 6.5 10.4 6.5 C 9.7 6.5 9.1 6.2 8.7 5.4 Z " transform="scale(1,-1)" stroke-dasharray="27.136511588657804" stroke-dashoffset="27.136511588657804"><animate attributeName="stroke-dashoffset" from="27.136511588657804" to="0" dur="0.8140953476597341s" begin="anim2.end" fill="freeze" id="anim3" /></path><path d="M 30.7 5.7 C 30.2 6.4 29.5 6.7 28.9 6.7 C 28.1 6.7 27.3 6.1 27.3 5.2 C 27.3 4.9 27.4 4.5 27.7 4.2 C 28.5 2.5 29.4 0.4 30.0 -1.4 C 30.4 -2.4 31.1 -2.8 31.8 -2.8 C 32.7 -2.8 33.6 -2.1 33.6 -0.9 C 33.6 -0.6 33.6 -0.2 33.4 0.2 C 32.8 1.8 31.7 4.0 30.7 5.7 Z " transform="scale(1,-1)" stroke-dasharray="24.348468579181016" stroke-dashoffset="24.348468579181016"><animate attributeName="stroke-dashoffset" from="24.348468579181016" to="0" dur="0.7304540573754305s" begin="anim3.end" fill="freeze" id="anim4" /></path><path d="M 40.8 6.1 C 40.2 6.7 39.6 6.9 39.1 6.9 C 38.1 6.9 37.3 6.2 37.3 5.3 C 37.3 4.9 37.5 4.5 37.9 4.0 C 39.5 2.3 40.9 0.4 42.0 -1.5 C 42.5 -2.3 43.2 -2.7 43.8 -2.7 C 44.8 -2.7 45.7 -1.9 45.7 -0.8 C 45.7 -0.4 45.5 0.1 45.2 0.6 C 44.1 2.4 42.4 4.5 40.8 6.1 Z " transform="scale(1,-1)" stroke-dasharray="26.741984674912402" stroke-dashoffset="26.741984674912402"><animate attributeName="stroke-dashoffset" from="26.741984674912402" to="0" dur="0.802259540247372s" begin="anim4.end" fill="freeze" id="anim5" /></path><path d="M 5.5 30.6 C 4.5 30.6 4.0 29.9 4.0 29.1 C 4.0 28.3 4.5 27.5 5.5 27.5 L 14.3 27.5 C 15.1 27.5 15.5 27.3 15.5 26.9 C 15.5 26.7 15.4 26.4 15.2 26.2 C 12.9 21.9 8.2 17.3 3.2 14.5 C 2.4 14.0 2.1 13.4 2.1 12.8 C 2.1 11.9 2.7 11.2 3.7 11.2 C 4.0 11.2 4.5 11.3 4.9 11.6 C 10.5 14.8 16.0 20.1 18.7 24.9 C 19.2 25.8 19.5 26.7 19.5 27.5 C 19.5 29.4 17.8 30.6 14.9 30.6 Z" transform="scale(1,-1)" stroke-dasharray="76.56642299569776" stroke-dashoffset="76.56642299569776"><animate attributeName="stroke-dashoffset" from="76.56642299569776" to="0" dur="2.2969926898709327s" begin="anim5.end" fill="freeze" id="anim_end" /></path></g></svg>