<?xml version='1.0' encoding='utf-8'?>
<svg viewBox="0 -44.0 50.0 50.0" version="1.1" xmlns="http://www.w3.org/2000/svg"><rect x="-1000" y="-1000" width="2000" height="2000" stroke="white" fill="white" /><g style="fill:none;stroke:#000000;stroke-width:1"><path d="M 37.2 -2.5 C 41.0 -2.5 42.6 -0.8 42.6 2.1 L 42.6 18.4 C 42.6 21.4 41.0 23.0 37.2 23.0 L 22.1 23.0 C 18.4 23.0 16.8 21.4 16.8 18.4 L 16.8 2.1 C 16.9 -1.4 18.9 -2.4 22.1 -2.5 Z " transform="scale(1,-1)" stroke-dasharray="95.16653094039057" stroke-dashoffset="95.16653094039057"><animate attributeName="stroke-dashoffset" from="95.16653094039057" to="0" dur="2.854995928211717s" begin="0s; 15s; 30s; 45s; 60s" fill="freeze" id="anim0" /></path><path d="M 23.0 0.6 C 21.0 0.6 20.4 1.1 20.4 2.6 L 20.4 5.2 L 39.0 5.2 L 39.0 2.6 C 39.0 0.8 38.0 0.6 36.4 0.6 Z " transform="scale(1,-1)" stroke-dasharray="44.903393705400354" stroke-dashoffset="44.903393705400354"><animate attributeName="stroke-dashoffset" from="44.903393705400354" to="0" dur="1.3471018111620106s" begin="anim0.end" fill="freeze" id="anim1" /></path><path d="M 20.4 12.7 L 39.0 12.7 L 39.0 8.2 L 20.4 8.2 Z " transform="scale(1,-1)" stroke-dasharray="46.2" stroke-dashoffset="46.2"><animate attributeName="stroke-dashoffset" from="46.2" to="0" dur="1.3860000000000001s" begin="anim1.end" fill="freeze" id="anim2" /></path><path d="M 39.0 15.7 L 20.4 15.7 L 20.4 17.9 C 20.4 19.5 21.0 20.0 23.0 20.0 L 36.4 20.0 C 38.4 20.0 39.0 19.5 39.0 17.9 Z " transform="scale(1,-1)" stroke-dasharray="44.27363425823753" stroke-dashoffset="44.27363425823753"><animate attributeName="stroke-dashoffset" from="44.27363425823753" to="0" dur="1.328209027747126s" begin="anim2.end" fill="freeze" id="anim3" /></path><path d="M 11.7 27.2 L 38.6 27.2 C 42.5 27.2 44.2 28.5 44.2 31.2 L 44.2 35.1 C 44.2 37.9 42.5 39.1 38.6 39.1 L 13.8 39.1 C 9.7 39.1 8.0 37.6 8.0 34.1 L 8.0 27.2 C 8.0 16.0 6.2 8.1 2.7 1.8 C 2.5 1.4 2.4 1.0 2.4 0.7 C 2.4 -0.3 3.2 -1.0 4.2 -1.0 C 4.8 -1.0 5.5 -0.7 5.9 0.2 C 9.6 6.7 11.7 15.2 11.7 26.7 Z " transform="scale(1,-1)" stroke-dasharray="147.4392776088398" stroke-dashoffset="147.4392776088398"><animate attributeName="stroke-dashoffset" from="147.4392776088398" to="0" dur="4.423178328265194s" begin="anim3.end" fill="freeze" id="anim4" /></path><path d="M 27.8 36.0 L 38.0 36.0 C 39.9 36.0 40.6 35.6 40.6 34.4 L 40.6 32.0 C 40.5 30.4 39.3 30.4 38.0 30.3 L 27.8 30.3 Z " transform="scale(1,-1)" stroke-dasharray="35.545256216181016" stroke-dashoffset="35.545256216181016"><animate attributeName="stroke-dashoffset" from="35.545256216181016" to="0" dur="1.0663576864854305s" begin="anim4.end" fill="freeze" id="anim5" /></path><path d="M 24.2 36.0 L 24.2 30.3 L 11.7 30.3 L 11.7 33.6 C 11.7 35.5 12.3 36.0 14.2 36.0 Z" transform="scale(1,-1)" stroke-dasharray="35.61037712395623" stroke-dashoffset="35.61037712395623"><animate attributeName="stroke-dashoffset" from="35.61037712395623" to="0" dur="1.068311313718687s" begin="anim5.end" fill="freeze" id="anim_end" /></path></g></svg>