<?xml version='1.0' encoding='utf-8'?>
<svg viewBox="0 -44.0 50.0 50.0" version="1.1" xmlns="http://www.w3.org/2000/svg"><rect x="-1000" y="-1000" width="2000" height="2000" stroke="white" fill="white" /><g style="fill:none;stroke:#000000;stroke-width:1"><path d="M 14.4 4.3 C 17.9 4.3 19.3 5.7 19.3 9.1 L 19.3 33.4 C 19.3 36.8 17.9 38.1 14.4 38.1 L 7.7 38.1 C 4.2 38.1 2.8 36.8 2.8 33.4 L 2.8 9.1 C 2.8 5.5 4.3 4.4 7.7 4.3 Z " transform="scale(1,-1)" stroke-dasharray="93.77782843137605" stroke-dashoffset="93.77782843137605"><animate attributeName="stroke-dashoffset" from="93.77782843137605" to="0" dur="2.8133348529412814s" begin="0s; 15s; 30s; 45s; 60s" fill="freeze" id="anim0" /></path><path d="M 16.0 20.6 L 16.0 9.5 C 16.0 7.8 15.7 7.2 14.2 7.2 L 12.6 7.2 L 12.6 20.6 Z " transform="scale(1,-1)" stroke-dasharray="32.95764243006846" stroke-dashoffset="32.95764243006846"><animate attributeName="stroke-dashoffset" from="32.95764243006846" to="0" dur="0.9887292729020538s" begin="anim0.end" fill="freeze" id="anim1" /></path><path d="M 16.0 23.4 L 12.6 23.4 L 12.6 35.2 L 14.2 35.2 C 15.7 35.2 16.0 34.7 16.0 33.0 Z " transform="scale(1,-1)" stroke-dasharray="29.788134233803586" stroke-dashoffset="29.788134233803586"><animate attributeName="stroke-dashoffset" from="29.788134233803586" to="0" dur="0.8936440270141075s" begin="anim1.end" fill="freeze" id="anim2" /></path><path d="M 9.4 35.2 L 9.4 23.4 L 6.1 23.4 L 6.1 33.0 C 6.1 34.7 6.4 35.2 7.8 35.2 Z " transform="scale(1,-1)" stroke-dasharray="29.60136082191127" stroke-dashoffset="29.60136082191127"><animate attributeName="stroke-dashoffset" from="29.60136082191127" to="0" dur="0.8880408246573381s" begin="anim2.end" fill="freeze" id="anim3" /></path><path d="M 6.1 20.6 L 9.4 20.6 L 9.4 7.2 L 7.8 7.2 C 6.4 7.2 6.1 7.8 6.1 9.5 Z " transform="scale(1,-1)" stroke-dasharray="32.77190527968933" stroke-dashoffset="32.77190527968933"><animate attributeName="stroke-dashoffset" from="32.77190527968933" to="0" dur="0.9831571583906799s" begin="anim3.end" fill="freeze" id="anim4" /></path><path d="M 35.2 23.3 L 35.2 29.9 L 43.7 29.9 C 44.7 29.9 45.2 30.7 45.2 31.5 C 45.2 32.2 44.7 33.1 43.7 33.1 L 35.2 33.1 L 35.2 39.8 C 35.2 40.9 34.4 41.4 33.5 41.4 C 32.6 41.4 31.7 40.9 31.7 39.8 L 31.7 33.1 L 24.4 33.1 C 23.5 33.1 23.0 32.2 23.0 31.5 C 23.0 30.7 23.5 29.9 24.4 29.9 L 31.7 29.9 L 31.7 23.3 L 22.4 23.3 C 21.5 23.3 21.0 22.5 21.0 21.8 C 21.0 21.0 21.5 20.2 22.4 20.2 L 46.1 20.2 C 47.1 20.2 47.5 21.0 47.5 21.8 C 47.5 22.5 47.1 23.3 46.1 23.3 Z " transform="scale(1,-1)" stroke-dasharray="126.42937062885017" stroke-dashoffset="126.42937062885017"><animate attributeName="stroke-dashoffset" from="126.42937062885017" to="0" dur="3.792881118865505s" begin="anim4.end" fill="freeze" id="anim5" /></path><path d="M 35.2 0.7 L 35.2 8.6 L 43.9 8.6 C 44.9 8.6 45.3 9.3 45.3 10.1 C 45.3 10.9 44.9 11.7 43.9 11.7 L 35.2 11.7 L 35.2 16.9 C 35.2 18.0 34.4 18.5 33.5 18.5 C 32.6 18.5 31.7 18.0 31.7 16.9 L 31.7 11.7 L 24.2 11.7 C 23.3 11.7 22.8 10.9 22.8 10.1 C 22.8 9.3 23.3 8.6 24.2 8.6 L 31.7 8.6 L 31.7 0.7 L 19.8 0.7 C 18.8 0.7 18.4 -0.1 18.4 -0.9 C 18.4 -1.7 18.8 -2.5 19.8 -2.5 L 46.5 -2.5 C 47.5 -2.5 48.0 -1.7 48.0 -0.9 C 48.0 -0.1 47.5 0.7 46.5 0.7 Z" transform="scale(1,-1)" stroke-dasharray="132.9592108494887" stroke-dashoffset="132.9592108494887"><animate attributeName="stroke-dashoffset" from="132.9592108494887" to="0" dur="3.9887763254846607s" begin="anim5.end" fill="freeze" id="anim_end" /></path></g></svg>