<?xml version='1.0' encoding='utf-8'?>
<svg viewBox="0 -44.0 50.0 50.0" version="1.1" xmlns="http://www.w3.org/2000/svg"><rect x="-1000" y="-1000" width="2000" height="2000" stroke="white" fill="white" /><g style="fill:none;stroke:#000000;stroke-width:1"><path d="M 8.9 -2.7 C 8.9 -3.7 9.8 -4.2 10.6 -4.2 C 11.4 -4.2 12.2 -3.7 12.2 -2.7 L 12.2 17.7 C 13.6 17.9 14.9 18.1 16.2 18.2 C 16.4 17.9 16.5 17.6 16.6 17.2 C 16.9 16.4 17.5 16.1 18.1 16.1 C 18.7 16.1 19.2 16.4 19.6 17.0 C 19.6 16.4 20.2 15.7 21.1 15.7 C 21.2 15.7 21.5 15.8 21.7 15.8 C 22.6 16.1 23.6 16.4 24.5 16.6 L 24.5 16.2 L 24.5 7.0 C 24.5 4.0 26.7 3.2 29.3 3.1 L 40.4 3.1 C 43.8 3.1 45.2 4.5 45.2 7.0 L 45.2 16.2 C 45.2 18.6 43.8 20.0 40.4 20.0 L 33.4 20.0 C 36.4 21.2 39.9 23.0 42.4 24.6 C 43.0 25.0 43.2 25.5 43.2 26.1 C 43.2 26.9 42.6 27.6 41.7 27.6 C 41.4 27.6 41.0 27.5 40.6 27.2 C 38.7 26.0 36.8 24.9 34.8 23.9 L 34.8 28.6 L 40.4 28.6 C 41.4 28.6 41.9 29.3 41.9 30.1 C 41.9 30.8 41.4 31.6 40.4 31.6 L 26.6 31.6 C 25.7 31.6 25.2 30.8 25.2 30.1 C 25.2 29.3 25.7 28.6 26.6 28.6 L 31.6 28.6 L 31.6 22.4 C 28.2 20.9 24.6 19.6 20.8 18.6 C 20.3 18.4 20.0 18.2 19.8 17.8 C 19.8 18.0 19.8 18.2 19.7 18.4 C 18.9 20.5 17.5 22.9 16.2 24.5 C 15.9 25.0 15.4 25.1 15.0 25.1 C 14.2 25.1 13.5 24.5 13.5 23.8 C 13.5 23.5 13.6 23.2 13.8 22.9 C 14.2 22.3 14.6 21.6 15.0 20.9 C 13.0 20.6 11.0 20.5 8.9 20.3 C 11.7 23.9 14.8 28.6 16.9 32.5 C 17.1 32.9 17.2 33.1 17.2 33.4 C 17.2 34.4 16.2 35.1 15.4 35.1 C 14.8 35.1 14.2 34.8 13.9 34.1 C 13.0 32.3 11.9 30.2 10.7 28.2 C 10.0 29.1 9.2 30.0 8.5 30.9 C 9.9 33.2 11.4 36.3 12.6 39.3 C 12.7 39.6 12.7 39.8 12.7 40.1 C 12.7 41.0 11.9 41.6 11.0 41.6 C 10.3 41.6 9.7 41.2 9.4 40.5 C 8.5 37.9 7.4 35.4 6.2 33.2 C 5.9 33.5 5.6 33.8 5.3 34.1 C 5.0 34.4 4.6 34.5 4.2 34.5 C 3.4 34.5 2.6 33.6 2.6 32.9 C 2.6 32.5 2.8 32.1 3.2 31.8 C 4.5 30.5 6.3 28.5 8.8 25.2 C 7.7 23.5 6.6 21.8 5.4 20.2 C 4.5 20.1 3.8 20.1 3.1 20.1 C 2.0 20.1 1.6 19.3 1.6 18.6 C 1.6 17.7 2.1 16.9 3.2 16.9 C 5.0 16.9 7.0 17.1 8.9 17.3 Z " transform="scale(1,-1)" stroke-dasharray="305.4489465707411" stroke-dashoffset="305.4489465707411"><animate attributeName="stroke-dashoffset" from="305.4489465707411" to="0" dur="9.163468397122232s" begin="0s; 15s; 30s; 45s; 60s" fill="freeze" id="anim0" /></path><path d="M 29.9 5.8 C 28.2 5.8 27.7 6.1 27.7 7.2 L 27.7 8.1 L 42.0 8.1 L 42.0 7.2 C 42.0 5.8 40.9 5.8 39.8 5.8 Z " transform="scale(1,-1)" stroke-dasharray="32.07922953268357" stroke-dashoffset="32.07922953268357"><animate attributeName="stroke-dashoffset" from="32.07922953268357" to="0" dur="0.9623768859805071s" begin="anim0.end" fill="freeze" id="anim1" /></path><path d="M 27.7 12.7 L 42.0 12.7 L 42.0 10.6 L 27.7 10.6 Z " transform="scale(1,-1)" stroke-dasharray="32.8" stroke-dashoffset="32.8"><animate attributeName="stroke-dashoffset" from="32.8" to="0" dur="0.9839999999999999s" begin="anim1.end" fill="freeze" id="anim2" /></path><path d="M 42.0 15.2 L 27.7 15.2 L 27.7 16.0 C 27.7 17.1 28.2 17.4 29.9 17.4 L 39.8 17.4 C 41.5 17.4 42.0 17.1 42.0 16.0 Z " transform="scale(1,-1)" stroke-dasharray="31.890201735312225" stroke-dashoffset="31.890201735312225"><animate attributeName="stroke-dashoffset" from="31.890201735312225" to="0" dur="0.9567060520593667s" begin="anim2.end" fill="freeze" id="anim3" /></path><path d="M 34.8 37.6 L 34.8 40.5 C 34.8 41.5 34.0 42.1 33.1 42.1 C 32.2 42.1 31.4 41.5 31.4 40.5 L 31.4 37.6 L 25.2 37.6 C 21.5 37.6 20.1 36.2 20.1 33.6 L 20.1 31.0 C 20.1 29.9 20.9 29.4 21.8 29.4 C 22.6 29.4 23.5 29.9 23.5 31.0 L 23.5 33.1 C 23.5 34.1 23.9 34.6 25.8 34.6 L 41.6 34.6 C 43.2 34.6 43.6 34.1 43.6 33.0 L 43.6 31.5 C 43.6 30.4 44.5 29.9 45.3 29.9 C 46.2 29.9 47.0 30.4 47.0 31.5 L 47.0 33.6 C 47.0 36.2 45.6 37.6 42.1 37.6 Z " transform="scale(1,-1)" stroke-dasharray="80.03424875660745" stroke-dashoffset="80.03424875660745"><animate attributeName="stroke-dashoffset" from="80.03424875660745" to="0" dur="2.4010274626982233s" begin="anim3.end" fill="freeze" id="anim4" /></path><path d="M 16.7 13.2 C 16.4 13.9 15.8 14.2 15.3 14.2 C 14.6 14.2 13.9 13.6 13.9 12.7 C 13.9 12.5 13.9 12.2 14.0 12.0 C 14.8 10.5 15.7 7.9 16.1 5.6 C 16.3 4.6 16.9 4.2 17.7 4.2 C 18.6 4.2 19.6 5.1 19.2 6.5 C 18.8 8.8 17.6 11.8 16.7 13.2 Z " transform="scale(1,-1)" stroke-dasharray="24.29506542020183" stroke-dashoffset="24.29506542020183"><animate attributeName="stroke-dashoffset" from="24.29506542020183" to="0" dur="0.7288519626060549s" begin="anim4.end" fill="freeze" id="anim5" /></path><path d="M 3.8 11.9 C 3.6 9.3 2.8 5.4 1.9 2.9 C 1.8 2.7 1.7 2.4 1.7 2.2 C 1.7 1.3 2.5 0.7 3.3 0.7 C 3.9 0.7 4.5 1.1 4.9 1.9 C 6.0 4.7 6.8 8.7 7.0 11.7 C 7.0 12.9 6.2 13.5 5.4 13.5 C 4.5 13.5 3.8 13.0 3.8 11.9 Z " transform="scale(1,-1)" stroke-dasharray="29.815816590431464" stroke-dashoffset="29.815816590431464"><animate attributeName="stroke-dashoffset" from="29.815816590431464" to="0" dur="0.8944744977129439s" begin="anim5.end" fill="freeze" id="anim6" /></path><path d="M 39.5 2.2 C 39.1 2.5 38.8 2.5 38.5 2.5 C 37.6 2.5 36.9 1.9 36.9 1.1 C 36.9 0.6 37.2 -0.1 37.9 -0.5 C 39.9 -1.8 42.6 -3.1 45.1 -4.0 C 45.3 -4.1 45.6 -4.2 45.8 -4.2 C 46.9 -4.2 47.5 -3.3 47.5 -2.5 C 47.5 -1.8 47.1 -1.1 46.1 -0.8 C 43.9 0.0 41.4 1.2 39.5 2.2 Z " transform="scale(1,-1)" stroke-dasharray="26.470376148062982" stroke-dashoffset="26.470376148062982"><animate attributeName="stroke-dashoffset" from="26.470376148062982" to="0" dur="0.7941112844418894s" begin="anim6.end" fill="freeze" id="anim7" /></path><path d="M 29.0 2.1 C 26.8 0.9 23.6 -0.4 20.9 -1.2 C 19.9 -1.5 19.5 -2.1 19.5 -2.8 C 19.5 -3.8 20.3 -4.6 21.7 -4.3 C 24.8 -3.6 28.1 -2.1 30.6 -0.7 C 31.4 -0.3 31.7 0.3 31.7 0.9 C 31.7 1.7 31.0 2.5 30.0 2.5 C 29.7 2.5 29.3 2.4 29.0 2.1 Z " transform="scale(1,-1)" stroke-dasharray="29.550584780773253" stroke-dashoffset="29.550584780773253"><animate attributeName="stroke-dashoffset" from="29.550584780773253" to="0" dur="0.8865175434231976s" begin="anim7.end" fill="freeze" id="anim8" /></path><path d="M 25.8 26.6 C 24.8 25.7 23.5 24.7 22.2 24.0 C 21.5 23.5 21.2 22.9 21.2 22.3 C 21.2 21.5 21.8 20.9 22.6 20.9 C 23.0 20.9 23.4 21.0 23.8 21.2 C 25.1 22.0 27.0 23.4 28.1 24.6 C 28.6 25.0 28.8 25.5 28.8 25.9 C 28.8 26.7 28.1 27.3 27.2 27.3 C 26.8 27.3 26.2 27.1 25.8 26.6 Z" transform="scale(1,-1)" stroke-dasharray="20.967616385161328" stroke-dashoffset="20.967616385161328"><animate attributeName="stroke-dashoffset" from="20.967616385161328" to="0" dur="0.6290284915548399s" begin="anim8.end" fill="freeze" id="anim_end" /></path></g></svg>