<?xml version='1.0' encoding='utf-8'?>
<svg viewBox="0 -44.0 50.0 50.0" version="1.1" xmlns="http://www.w3.org/2000/svg"><rect x="-1000" y="-1000" width="2000" height="2000" stroke="white" fill="white" /><g style="fill:none;stroke:#000000;stroke-width:1"><path d="M 12.8 33.3 C 13.8 31.8 14.5 30.4 15.1 28.8 C 15.4 28.0 16.1 27.6 16.7 27.6 C 17.6 27.6 18.4 28.2 18.4 29.2 C 18.4 29.5 18.2 29.8 18.1 30.1 C 17.6 31.2 17.0 32.3 16.4 33.3 L 22.2 33.3 C 23.2 33.3 23.8 34.0 23.8 34.7 C 23.8 35.4 23.2 36.1 22.2 36.1 L 11.3 36.1 C 11.9 37.1 12.4 38.2 12.9 39.3 C 13.0 39.6 13.0 39.9 13.0 40.1 C 13.0 41.1 12.2 41.6 11.4 41.6 C 10.8 41.6 10.0 41.2 9.7 40.4 C 8.1 36.6 5.8 32.8 3.4 30.2 C 2.8 29.7 2.6 29.2 2.6 28.7 C 2.6 27.9 3.2 27.4 4.0 27.4 C 4.6 27.4 5.2 27.6 5.8 28.2 C 7.2 29.7 8.5 31.5 9.7 33.3 Z " transform="scale(1,-1)" stroke-dasharray="72.3727930088134" stroke-dashoffset="72.3727930088134"><animate attributeName="stroke-dashoffset" from="72.3727930088134" to="0" dur="2.171183790264402s" begin="0s; 15s; 30s; 45s; 60s" fill="freeze" id="anim0" /></path><path d="M 33.1 33.3 C 34.1 31.8 35.0 30.2 35.5 29.0 C 35.9 28.2 36.6 27.8 37.2 27.8 C 38.1 27.8 38.8 28.4 38.8 29.3 C 38.8 29.6 38.7 30.0 38.5 30.3 C 38.1 31.2 37.4 32.2 36.7 33.3 L 45.6 33.3 C 46.6 33.3 47.1 34.0 47.1 34.7 C 47.1 35.4 46.6 36.1 45.6 36.1 L 31.0 36.1 C 31.6 37.1 32.1 38.2 32.5 39.4 C 32.6 39.7 32.7 39.9 32.7 40.2 C 32.7 41.1 31.9 41.6 31.1 41.6 C 30.4 41.6 29.7 41.2 29.3 40.5 C 27.9 36.8 26.2 33.9 24.1 31.5 C 23.7 31.0 23.5 30.5 23.5 30.1 C 23.5 29.2 24.1 28.7 24.9 28.7 C 25.4 28.7 26.0 28.9 26.5 29.5 C 27.6 30.7 28.5 32.0 29.4 33.3 Z " transform="scale(1,-1)" stroke-dasharray="75.84597202740287" stroke-dashoffset="75.84597202740287"><animate attributeName="stroke-dashoffset" from="75.84597202740287" to="0" dur="2.275379160822086s" begin="anim0.end" fill="freeze" id="anim1" /></path><path d="M 8.0 -2.8 C 8.0 -3.8 8.9 -4.2 9.8 -4.2 C 10.7 -4.2 11.5 -3.8 11.5 -2.8 L 11.5 16.5 C 11.5 17.4 10.9 17.9 10.1 18.0 C 11.4 20.2 12.7 22.5 13.7 25.0 C 13.8 25.2 13.8 25.5 13.8 25.7 C 13.8 26.8 13.0 27.4 12.1 27.4 C 11.4 27.4 10.7 27.0 10.3 26.1 C 8.2 20.9 5.4 16.3 2.2 13.0 C 1.8 12.5 1.6 12.0 1.6 11.6 C 1.6 10.8 2.2 10.2 3.1 10.2 C 3.6 10.2 4.0 10.4 4.5 10.9 C 5.7 12.1 6.9 13.5 8.0 15.0 Z " transform="scale(1,-1)" stroke-dasharray="84.42601985111067" stroke-dashoffset="84.42601985111067"><animate attributeName="stroke-dashoffset" from="84.42601985111067" to="0" dur="2.53278059553332s" begin="anim1.end" fill="freeze" id="anim2" /></path><path d="M 44.9 17.5 C 45.9 17.6 46.3 18.2 46.3 19.0 C 46.3 19.8 45.7 20.6 44.6 20.5 L 29.5 19.4 C 29.2 21.5 29.0 23.6 29.0 25.9 C 29.0 27.0 28.1 27.6 27.2 27.6 C 26.2 27.6 25.2 27.0 25.3 25.9 C 25.4 23.6 25.6 21.2 26.0 19.1 L 16.8 18.4 C 15.8 18.3 15.3 17.6 15.3 16.9 C 15.3 16.1 15.9 15.2 17.0 15.3 L 26.5 16.1 C 27.2 12.9 28.4 9.7 29.9 6.7 C 25.6 4.0 20.7 1.8 16.1 0.5 C 15.0 0.2 14.5 -0.6 14.5 -1.2 C 14.5 -2.1 15.2 -2.9 16.2 -2.9 C 16.4 -2.9 16.7 -2.8 16.9 -2.8 C 21.9 -1.4 27.0 0.8 31.6 3.8 C 34.8 -1.4 38.1 -3.1 41.5 -3.1 C 44.6 -3.1 47.0 -0.7 47.6 4.5 C 47.7 5.8 46.8 6.5 45.9 6.5 C 45.1 6.5 44.2 6.0 44.2 4.9 C 43.8 1.4 42.7 0.4 41.3 0.4 C 39.5 0.4 37.0 1.7 34.4 5.7 C 36.8 7.6 39.1 9.7 41.1 12.1 C 41.5 12.6 41.6 13.0 41.6 13.4 C 41.6 14.4 40.8 15.0 39.9 15.0 C 39.4 15.0 38.8 14.8 38.3 14.2 C 36.8 12.2 34.9 10.4 32.7 8.7 C 31.5 11.1 30.7 13.7 30.1 16.4 Z " transform="scale(1,-1)" stroke-dasharray="199.99511778157745" stroke-dashoffset="199.99511778157745"><animate attributeName="stroke-dashoffset" from="199.99511778157745" to="0" dur="5.9998535334473235s" begin="anim2.end" fill="freeze" id="anim3" /></path><path d="M 34.6 27.1 C 34.2 27.2 33.9 27.3 33.6 27.3 C 32.6 27.3 31.9 26.6 31.9 25.8 C 31.9 25.3 32.2 24.8 32.8 24.5 C 34.0 23.8 35.5 22.9 36.6 21.9 C 37.1 21.5 37.6 21.2 38.1 21.2 C 39.0 21.2 39.7 22.0 39.7 22.8 C 39.7 23.4 39.5 24.0 38.8 24.5 C 37.5 25.4 36.1 26.4 34.6 27.1 Z" transform="scale(1,-1)" stroke-dasharray="20.963089242817425" stroke-dashoffset="20.963089242817425"><animate attributeName="stroke-dashoffset" from="20.963089242817425" to="0" dur="0.6288926772845227s" begin="anim3.end" fill="freeze" id="anim_end" /></path></g></svg>