<?xml version='1.0' encoding='utf-8'?>
<svg viewBox="0 -44.0 50.0 50.0" version="1.1" xmlns="http://www.w3.org/2000/svg"><rect x="-1000" y="-1000" width="2000" height="2000" stroke="white" fill="white" /><g style="fill:none;stroke:#000000;stroke-width:1"><path d="M 13.9 1.6 C 16.6 1.6 18.1 2.5 18.1 5.7 L 18.1 20.4 C 18.1 23.6 16.6 24.5 13.9 24.5 L 10.4 24.5 C 9.9 24.5 9.4 24.4 8.9 24.3 C 10.2 27.9 11.2 31.6 11.8 35.4 L 17.7 35.4 C 18.7 35.4 19.1 36.2 19.1 37.0 C 19.1 37.8 18.7 38.5 17.7 38.5 L 3.3 38.5 C 2.4 38.5 1.9 37.8 1.9 37.0 C 1.9 36.2 2.4 35.4 3.3 35.4 L 8.2 35.4 C 7.2 28.9 4.8 20.8 1.5 15.9 C 1.2 15.5 1.1 15.1 1.1 14.7 C 1.1 13.8 1.8 13.1 2.6 13.1 C 3.2 13.1 3.8 13.5 4.2 14.2 C 5.0 15.4 5.7 16.7 6.3 18.1 L 6.2 12.7 L 6.2 5.7 C 6.2 2.6 7.5 1.7 10.4 1.6 Z " transform="scale(1,-1)" stroke-dasharray="133.13891814043672" stroke-dashoffset="133.13891814043672"><animate attributeName="stroke-dashoffset" from="133.13891814043672" to="0" dur="3.9941675442131013s" begin="0s; 15s; 30s; 45s; 60s" fill="freeze" id="anim0" /></path><path d="M 10.7 4.7 C 9.8 4.7 9.6 5.2 9.6 6.1 L 9.6 20.1 C 9.6 21.0 9.8 21.5 10.7 21.5 L 13.6 21.5 C 14.5 21.5 14.7 21.0 14.7 20.1 L 14.7 6.1 C 14.7 5.2 14.5 4.7 13.6 4.7 Z " transform="scale(1,-1)" stroke-dasharray="42.09773803212009" stroke-dashoffset="42.09773803212009"><animate attributeName="stroke-dashoffset" from="42.09773803212009" to="0" dur="1.2629321409636027s" begin="anim0.end" fill="freeze" id="anim1" /></path><path d="M 31.7 3.5 C 35.0 3.5 36.0 4.9 36.0 7.2 L 36.0 11.2 C 36.0 13.6 35.0 15.0 31.7 15.0 L 27.5 15.0 C 24.1 15.0 23.2 13.6 23.2 11.2 L 23.2 7.2 C 23.2 4.2 24.8 3.5 27.6 3.5 Z " transform="scale(1,-1)" stroke-dasharray="42.876159251705545" stroke-dashoffset="42.876159251705545"><animate attributeName="stroke-dashoffset" from="42.876159251705545" to="0" dur="1.2862847775511663s" begin="anim1.end" fill="freeze" id="anim2" /></path><path d="M 27.9 6.3 C 26.8 6.3 26.4 6.8 26.4 7.6 L 26.4 10.9 C 26.4 11.7 26.8 12.2 27.9 12.2 L 31.2 12.2 C 32.3 12.2 32.6 11.7 32.6 10.9 L 32.6 7.6 C 32.6 6.6 32.1 6.3 31.2 6.3 Z " transform="scale(1,-1)" stroke-dasharray="22.196252407716806" stroke-dashoffset="22.196252407716806"><animate attributeName="stroke-dashoffset" from="22.196252407716806" to="0" dur="0.6658875722315042s" begin="anim2.end" fill="freeze" id="anim3" /></path><path d="M 30.8 33.0 C 29.6 29.6 27.5 27.3 23.6 25.5 C 22.8 25.2 22.5 24.6 22.5 24.1 C 22.5 23.2 23.2 22.4 24.1 22.4 C 24.3 22.4 24.5 22.5 24.8 22.6 C 28.1 23.9 30.6 25.9 32.2 28.6 C 34.9 27.2 37.6 25.2 39.5 23.3 C 40.0 22.8 40.5 22.6 41.0 22.6 C 41.9 22.6 42.7 23.4 42.7 24.4 C 42.7 25.0 42.5 25.5 41.9 26.1 C 39.9 28.0 36.4 30.0 33.6 31.1 C 33.8 31.7 34.1 32.3 34.2 33.0 L 44.1 33.0 C 45.1 33.0 45.5 33.7 45.5 34.4 C 45.5 35.1 45.1 35.9 44.1 35.9 L 34.9 35.9 C 35.1 37.2 35.2 38.7 35.3 40.2 C 35.4 41.2 34.5 41.8 33.6 41.8 C 32.8 41.8 31.9 41.3 31.9 40.3 C 31.8 38.7 31.7 37.2 31.5 35.9 L 23.7 35.9 C 22.8 35.9 22.2 35.1 22.2 34.4 C 22.2 33.7 22.8 33.0 23.7 33.0 Z " transform="scale(1,-1)" stroke-dasharray="109.89411626702167" stroke-dashoffset="109.89411626702167"><animate attributeName="stroke-dashoffset" from="109.89411626702167" to="0" dur="3.29682348801065s" begin="anim3.end" fill="freeze" id="anim4" /></path><path d="M 40.2 18.3 L 40.2 1.5 C 40.2 0.3 39.7 -0.2 38.6 -0.2 C 37.9 -0.2 37.1 -0.2 36.4 0.1 C 35.0 0.4 34.2 -0.7 34.2 -1.7 C 34.2 -2.4 34.6 -3.2 35.6 -3.5 C 36.6 -3.7 37.7 -3.8 38.6 -3.8 C 42.5 -3.8 43.7 -2.4 43.7 1.2 L 43.7 18.3 L 46.9 18.3 C 47.9 18.3 48.3 19.1 48.3 19.9 C 48.3 20.6 47.9 21.4 46.9 21.4 L 20.9 21.4 C 19.9 21.4 19.4 20.6 19.4 19.9 C 19.4 19.1 19.9 18.3 20.9 18.3 Z" transform="scale(1,-1)" stroke-dasharray="114.02111833023265" stroke-dashoffset="114.02111833023265"><animate attributeName="stroke-dashoffset" from="114.02111833023265" to="0" dur="3.4206335499069795s" begin="anim4.end" fill="freeze" id="anim_end" /></path></g></svg>