<?xml version='1.0' encoding='utf-8'?>
<svg viewBox="0 -44.0 50.0 50.0" version="1.1" xmlns="http://www.w3.org/2000/svg"><rect x="-1000" y="-1000" width="2000" height="2000" stroke="white" fill="white" /><g style="fill:none;stroke:#000000;stroke-width:1"><path d="M 23.1 9.2 L 23.1 2.1 C 17.4 1.6 11.7 1.3 6.4 1.1 C 5.2 1.1 4.5 0.2 4.5 -0.7 C 4.5 -1.5 5.2 -2.4 6.5 -2.4 C 16.8 -1.9 28.4 -0.9 39.1 0.9 C 40.1 -0.2 40.9 -1.2 41.7 -2.3 C 42.2 -3.1 42.9 -3.4 43.5 -3.4 C 44.5 -3.4 45.3 -2.6 45.3 -1.7 C 45.3 -1.2 45.2 -0.7 44.8 -0.2 C 42.7 2.4 40.0 5.1 37.5 7.2 C 37.1 7.6 36.6 7.8 36.1 7.8 C 35.2 7.8 34.5 7.1 34.5 6.3 C 34.5 5.9 34.6 5.5 35.1 5.0 C 35.6 4.5 36.1 4.0 36.7 3.5 C 33.4 3.1 30.0 2.7 26.6 2.4 L 26.6 9.2 L 34.6 9.2 C 38.7 9.2 40.1 10.5 40.1 13.2 L 40.1 17.9 C 40.1 20.6 38.7 21.8 34.6 21.8 L 26.6 21.8 L 26.6 26.4 C 26.6 27.4 25.8 27.9 24.9 27.9 C 24.0 27.9 23.1 27.4 23.1 26.4 L 23.1 21.8 L 15.5 21.8 C 11.5 21.8 10.1 20.6 10.1 17.9 L 10.1 13.2 C 10.1 9.7 12.5 9.2 15.5 9.2 Z " transform="scale(1,-1)" stroke-dasharray="194.2714333023352" stroke-dashoffset="194.2714333023352"><animate attributeName="stroke-dashoffset" from="194.2714333023352" to="0" dur="5.828142999070056s" begin="0s; 15s; 30s; 45s; 60s" fill="freeze" id="anim0" /></path><path d="M 16.1 12.1 C 14.1 12.1 13.6 12.5 13.6 13.8 L 13.6 17.2 C 13.6 18.5 14.1 18.9 16.1 18.9 L 23.1 18.9 L 23.1 12.1 Z " transform="scale(1,-1)" stroke-dasharray="31.29945082658785" stroke-dashoffset="31.29945082658785"><animate attributeName="stroke-dashoffset" from="31.29945082658785" to="0" dur="0.9389835247976355s" begin="anim0.end" fill="freeze" id="anim1" /></path><path d="M 26.6 18.9 L 34.1 18.9 C 36.1 18.9 36.6 18.5 36.6 17.2 L 36.6 13.8 C 36.6 12.5 36.1 12.1 34.1 12.1 L 26.6 12.1 Z " transform="scale(1,-1)" stroke-dasharray="32.299450826587844" stroke-dashoffset="32.299450826587844"><animate attributeName="stroke-dashoffset" from="32.299450826587844" to="0" dur="0.9689835247976353s" begin="anim1.end" fill="freeze" id="anim2" /></path><path d="M 35.2 32.3 C 36.6 34.5 37.9 36.7 38.9 38.8 C 39.0 39.1 39.1 39.4 39.1 39.7 C 39.1 40.7 38.2 41.4 37.3 41.4 C 36.7 41.4 36.1 41.1 35.7 40.2 C 34.5 37.4 33.1 34.9 31.5 32.3 L 9.5 32.3 C 5.5 32.3 4.2 31.0 4.2 28.2 L 4.2 24.0 C 4.2 22.9 5.1 22.4 6.0 22.4 C 6.9 22.4 7.7 22.9 7.7 24.0 L 7.7 27.7 C 7.7 29.0 8.2 29.4 10.0 29.4 L 40.1 29.4 C 41.9 29.4 42.4 29.0 42.4 27.7 L 42.4 24.4 C 42.4 23.2 43.2 22.7 44.1 22.7 C 45.0 22.7 45.9 23.2 45.9 24.4 L 45.9 28.2 C 45.9 31.0 44.6 32.3 40.6 32.3 Z " transform="scale(1,-1)" stroke-dasharray="127.86993301354057" stroke-dashoffset="127.86993301354057"><animate attributeName="stroke-dashoffset" from="127.86993301354057" to="0" dur="3.836097990406217s" begin="anim2.end" fill="freeze" id="anim3" /></path><path d="M 24.8 40.9 C 24.2 41.7 23.6 42.0 22.9 42.0 C 22.1 42.0 21.3 41.4 21.3 40.5 C 21.3 40.2 21.4 39.9 21.6 39.5 C 22.4 38.1 23.1 36.7 23.7 35.2 C 24.0 34.3 24.7 33.9 25.4 33.9 C 26.2 33.9 27.1 34.6 27.1 35.6 C 27.1 35.9 27.0 36.2 26.9 36.6 C 26.4 37.9 25.6 39.5 24.8 40.9 Z " transform="scale(1,-1)" stroke-dasharray="21.32708354455858" stroke-dashoffset="21.32708354455858"><animate attributeName="stroke-dashoffset" from="21.32708354455858" to="0" dur="0.6398125063367573s" begin="anim3.end" fill="freeze" id="anim4" /></path><path d="M 13.9 40.1 C 13.4 40.7 12.8 41.0 12.2 41.0 C 11.3 41.0 10.6 40.4 10.6 39.5 C 10.6 39.2 10.7 38.8 11.0 38.4 C 11.8 37.2 12.8 35.6 13.4 34.3 C 13.8 33.5 14.4 33.1 15.1 33.1 C 16.0 33.1 16.8 33.8 16.8 34.8 C 16.8 35.1 16.7 35.4 16.5 35.8 C 15.8 37.2 14.9 38.8 13.9 40.1 Z" transform="scale(1,-1)" stroke-dasharray="21.350644009937028" stroke-dashoffset="21.350644009937028"><animate attributeName="stroke-dashoffset" from="21.350644009937028" to="0" dur="0.6405193202981109s" begin="anim4.end" fill="freeze" id="anim_end" /></path></g></svg>