<?xml version='1.0' encoding='utf-8'?>
<svg viewBox="0 -44.0 50.0 50.0" version="1.1" xmlns="http://www.w3.org/2000/svg"><rect x="-1000" y="-1000" width="2000" height="2000" stroke="white" fill="white" /><g style="fill:none;stroke:#000000;stroke-width:1"><path d="M 16.1 11.9 C 19.3 11.9 20.8 13.2 20.8 16.2 L 20.8 25.0 C 20.8 28.0 19.3 29.3 16.1 29.3 L 13.8 29.3 L 13.8 32.8 L 21.4 32.8 C 22.4 32.8 22.9 33.6 22.9 34.3 C 22.9 35.1 22.4 35.9 21.4 35.9 L 13.8 35.9 L 13.8 40.5 C 13.8 41.5 13.0 42.0 12.1 42.0 C 11.3 42.0 10.5 41.5 10.5 40.5 L 10.5 35.9 L 3.2 35.9 C 2.3 35.9 1.9 35.1 1.9 34.3 C 1.9 33.6 2.3 32.8 3.2 32.8 L 10.5 32.8 L 10.5 29.3 L 8.5 29.3 C 5.2 29.3 3.7 28.0 3.7 25.0 L 3.7 16.2 C 3.7 13.2 5.2 11.9 8.5 11.9 L 10.5 11.9 L 10.5 8.1 L 2.8 8.1 C 1.9 8.1 1.4 7.4 1.4 6.6 C 1.4 5.8 1.9 5.0 2.8 5.0 L 10.5 5.0 L 10.5 -2.8 C 10.5 -3.7 11.3 -4.2 12.1 -4.2 C 13.0 -4.2 13.8 -3.7 13.8 -2.8 L 13.8 5.0 L 21.4 5.0 C 22.4 5.0 22.9 5.8 22.9 6.6 C 22.9 7.4 22.4 8.1 21.4 8.1 L 13.8 8.1 L 13.8 11.9 Z " transform="scale(1,-1)" stroke-dasharray="184.3403672062156" stroke-dashoffset="184.3403672062156"><animate attributeName="stroke-dashoffset" from="184.3403672062156" to="0" dur="5.530211016186468s" begin="0s; 15s; 30s; 45s; 60s" fill="freeze" id="anim0" /></path><path d="M 13.8 14.8 L 13.8 19.4 L 17.7 19.4 L 17.7 16.4 C 17.7 15.0 17.0 14.8 15.7 14.8 Z " transform="scale(1,-1)" stroke-dasharray="16.416098751346105" stroke-dashoffset="16.416098751346105"><animate attributeName="stroke-dashoffset" from="16.416098751346105" to="0" dur="0.49248296254038315s" begin="anim0.end" fill="freeze" id="anim1" /></path><path d="M 17.7 22.2 L 13.8 22.2 L 13.8 26.4 L 15.7 26.4 C 17.2 26.4 17.7 26.1 17.7 24.8 Z " transform="scale(1,-1)" stroke-dasharray="15.630138217007335" stroke-dashoffset="15.630138217007335"><animate attributeName="stroke-dashoffset" from="15.630138217007335" to="0" dur="0.46890414651022005s" begin="anim1.end" fill="freeze" id="anim2" /></path><path d="M 10.5 26.4 L 10.5 22.2 L 6.9 22.2 L 6.9 24.8 C 6.9 26.1 7.3 26.4 8.8 26.4 Z " transform="scale(1,-1)" stroke-dasharray="15.061681974627703" stroke-dashoffset="15.061681974627703"><animate attributeName="stroke-dashoffset" from="15.061681974627703" to="0" dur="0.45185045923883105s" begin="anim2.end" fill="freeze" id="anim3" /></path><path d="M 6.9 19.4 L 10.5 19.4 L 10.5 14.8 L 8.8 14.8 C 7.3 14.8 6.9 15.1 6.9 16.4 Z " transform="scale(1,-1)" stroke-dasharray="15.8616819746277" stroke-dashoffset="15.8616819746277"><animate attributeName="stroke-dashoffset" from="15.8616819746277" to="0" dur="0.475850459238831s" begin="anim3.end" fill="freeze" id="anim4" /></path><path d="M 46.7 15.8 C 47.7 15.8 48.1 16.6 48.1 17.4 C 48.1 18.2 47.7 18.9 46.7 18.9 L 36.8 18.9 C 37.1 21.5 37.2 24.1 37.2 26.7 L 37.2 28.0 L 44.7 28.0 C 45.7 28.0 46.1 28.7 46.1 29.5 C 46.1 30.2 45.7 31.0 44.7 31.0 L 37.2 31.0 L 37.2 40.2 C 37.2 41.4 36.4 42.0 35.6 42.0 C 34.7 42.0 33.9 41.4 33.9 40.2 L 33.9 31.0 L 29.4 31.0 C 29.9 32.6 30.3 34.4 30.6 35.9 C 30.9 37.2 29.9 38.1 28.9 38.1 C 28.2 38.1 27.5 37.6 27.3 36.6 C 26.7 32.8 25.1 28.2 23.5 25.1 C 23.3 24.8 23.2 24.4 23.2 24.1 C 23.2 23.2 23.9 22.6 24.7 22.6 C 25.4 22.6 26.0 23.0 26.5 23.8 C 27.1 25.0 27.7 26.4 28.3 28.0 L 33.9 28.0 L 33.9 27.0 C 33.8 24.3 33.6 21.6 33.3 18.9 L 24.6 18.9 C 23.7 18.9 23.2 18.2 23.2 17.4 C 23.2 16.6 23.7 15.8 24.6 15.8 L 32.7 15.8 C 30.9 7.9 27.0 2.4 21.6 -1.1 C 20.8 -1.5 20.5 -2.1 20.5 -2.7 C 20.5 -3.6 21.2 -4.3 22.1 -4.3 C 22.5 -4.3 22.9 -4.2 23.3 -3.9 C 28.9 -0.4 33.1 4.9 35.4 12.6 C 37.4 6.5 40.8 1.0 45.0 -2.9 C 45.5 -3.3 46.0 -3.5 46.5 -3.5 C 47.5 -3.5 48.3 -2.7 48.3 -1.7 C 48.3 -1.1 48.0 -0.4 47.2 0.2 C 42.8 3.7 39.2 9.5 37.4 15.8 Z" transform="scale(1,-1)" stroke-dasharray="241.7510529416331" stroke-dashoffset="241.7510529416331"><animate attributeName="stroke-dashoffset" from="241.7510529416331" to="0" dur="7.252531588248993s" begin="anim4.end" fill="freeze" id="anim_end" /></path></g></svg>