<?xml version='1.0' encoding='utf-8'?>
<svg viewBox="0 -44.0 50.0 50.0" version="1.1" xmlns="http://www.w3.org/2000/svg"><rect x="-1000" y="-1000" width="2000" height="2000" stroke="white" fill="white" /><g style="fill:none;stroke:#000000;stroke-width:1"><path d="M 24.1 10.4 C 24.1 8.1 25.0 7.3 27.6 7.3 L 28.8 7.3 C 27.9 5.9 26.7 4.9 25.2 4.2 C 24.4 3.8 24.1 3.2 24.1 2.7 C 24.1 2.0 24.6 1.4 25.5 1.4 C 25.8 1.4 26.1 1.5 26.4 1.7 C 28.9 2.8 30.8 4.7 32.0 7.3 L 36.0 7.3 C 38.6 7.3 39.5 8.1 39.5 10.4 L 39.5 13.1 C 39.5 13.9 38.8 14.4 38.1 14.4 C 37.4 14.4 36.7 13.9 36.7 13.1 L 36.7 10.7 C 36.7 10.0 36.4 9.8 35.6 9.8 L 32.8 9.8 C 33.1 11.2 33.3 12.7 33.3 14.4 L 33.3 16.3 L 40.7 16.3 C 42.6 16.3 43.0 15.9 43.0 14.6 C 43.0 11.9 42.7 9.9 42.3 7.9 C 42.0 6.4 41.2 5.8 39.8 5.8 C 39.2 5.8 38.5 5.9 37.8 6.0 C 36.6 6.2 35.9 5.4 35.9 4.5 C 35.9 3.8 36.3 3.2 37.2 3.0 C 38.1 2.8 39.1 2.7 40.0 2.7 C 42.8 2.7 45.0 3.8 45.6 7.3 C 46.1 9.3 46.4 12.0 46.4 15.0 C 46.4 17.4 44.9 18.9 41.5 18.9 L 27.8 18.9 C 28.1 19.4 28.4 19.9 28.6 20.4 C 28.7 20.7 28.7 20.9 28.7 21.1 C 28.7 22.0 28.0 22.6 27.2 22.6 C 26.7 22.6 26.1 22.2 25.8 21.5 C 24.3 18.3 21.9 14.9 19.9 13.0 C 19.4 12.6 19.2 12.1 19.2 11.7 C 19.2 11.0 19.9 10.4 20.7 10.4 C 21.0 10.4 21.5 10.5 21.8 10.9 C 22.6 11.6 23.3 12.4 24.1 13.4 C 24.1 13.2 24.1 13.2 24.1 13.1 Z " transform="scale(1,-1)" stroke-dasharray="150.52634781197773" stroke-dashoffset="150.52634781197773"><animate attributeName="stroke-dashoffset" from="150.52634781197773" to="0" dur="4.515790434359332s" begin="0s; 15s; 30s; 45s; 60s" fill="freeze" id="anim0" /></path><path d="M 30.3 16.3 L 30.3 14.6 C 30.2 13.0 30.2 11.3 29.8 9.8 L 27.9 9.8 C 27.2 9.8 26.9 10.0 26.9 10.7 L 26.9 13.1 C 26.9 13.9 26.2 14.4 25.5 14.4 C 25.2 14.4 25.0 14.3 24.8 14.2 C 25.2 14.9 25.8 15.6 26.2 16.3 Z " transform="scale(1,-1)" stroke-dasharray="21.89828132248737" stroke-dashoffset="21.89828132248737"><animate attributeName="stroke-dashoffset" from="21.89828132248737" to="0" dur="0.6569484396746211s" begin="anim0.end" fill="freeze" id="anim1" /></path><path d="M 34.1 28.4 C 34.4 29.9 34.4 31.4 34.4 32.9 L 34.4 34.8 L 41.5 34.8 C 43.0 34.8 43.2 34.4 43.2 33.5 C 43.2 30.6 43.0 27.9 42.5 25.7 C 42.1 24.2 41.4 23.8 40.4 23.8 C 39.8 23.8 39.1 23.8 38.1 24.0 C 37.1 24.2 36.5 23.4 36.5 22.6 C 36.5 21.9 36.9 21.3 37.8 21.1 C 38.8 20.9 39.6 20.8 40.6 20.8 C 43.0 20.8 44.9 21.8 45.6 25.1 C 46.2 27.4 46.6 30.4 46.6 33.7 C 46.6 36.1 45.1 37.4 41.8 37.4 L 29.6 37.4 C 30.2 38.2 30.6 39.0 31.1 39.9 C 31.2 40.2 31.2 40.4 31.2 40.7 C 31.2 41.5 30.5 42.2 29.7 42.2 C 29.2 42.2 28.6 41.9 28.2 41.2 C 26.5 37.8 24.2 34.8 21.4 32.4 C 20.9 31.9 20.7 31.5 20.7 31.0 C 20.7 30.2 21.3 29.7 22.2 29.7 C 22.6 29.7 23.1 29.9 23.5 30.2 C 24.2 30.9 25.0 31.6 25.7 32.4 C 25.5 32.1 25.5 31.9 25.5 31.7 L 25.5 29.0 C 25.5 26.7 26.4 25.9 29.0 25.9 L 30.5 25.9 C 30.2 25.2 29.7 24.8 29.2 24.3 C 28.7 23.9 28.5 23.5 28.5 23.1 C 28.5 22.4 29.1 21.8 29.8 21.8 C 30.2 21.8 30.7 22.0 31.2 22.4 C 32.1 23.4 33.0 24.4 33.5 25.9 L 37.0 25.9 C 39.5 25.9 40.5 26.7 40.5 29.0 L 40.5 31.7 C 40.5 32.5 39.8 33.0 39.1 33.0 C 38.4 33.0 37.6 32.5 37.6 31.7 L 37.6 29.3 C 37.6 28.6 37.4 28.4 36.6 28.4 Z " transform="scale(1,-1)" stroke-dasharray="143.61531592183564" stroke-dashoffset="143.61531592183564"><animate attributeName="stroke-dashoffset" from="143.61531592183564" to="0" dur="4.308459477655069s" begin="anim1.end" fill="freeze" id="anim2" /></path><path d="M 29.3 28.4 C 28.6 28.4 28.2 28.6 28.2 29.3 L 28.2 31.7 C 28.2 32.5 27.6 33.0 26.9 33.0 C 26.5 33.0 26.2 32.9 25.9 32.6 C 26.6 33.4 27.2 34.1 27.8 34.8 L 31.5 34.8 L 31.5 32.9 C 31.5 31.0 31.4 29.5 31.2 28.4 Z " transform="scale(1,-1)" stroke-dasharray="22.135763818871933" stroke-dashoffset="22.135763818871933"><animate attributeName="stroke-dashoffset" from="22.135763818871933" to="0" dur="0.6640729145661579s" begin="anim2.end" fill="freeze" id="anim3" /></path><path d="M 14.2 14.1 L 18.8 14.1 C 19.8 14.1 20.2 14.9 20.2 15.6 C 20.2 16.3 19.8 17.0 18.8 17.0 L 14.2 17.0 L 14.2 23.5 L 20.9 23.5 C 21.9 23.5 22.4 24.2 22.4 25.0 C 22.4 25.7 21.9 26.4 20.9 26.4 L 13.9 26.4 L 13.9 32.5 L 19.1 32.5 C 20.1 32.5 20.5 33.2 20.5 34.0 C 20.5 34.7 20.1 35.5 19.1 35.5 L 13.9 35.5 L 13.9 40.9 C 13.9 42.0 13.1 42.5 12.2 42.5 C 11.5 42.5 10.6 42.0 10.6 40.9 L 10.6 35.5 L 5.4 35.5 C 4.4 35.5 3.9 34.7 3.9 34.0 C 3.9 33.2 4.4 32.5 5.4 32.5 L 10.6 32.5 L 10.6 26.4 L 2.8 26.4 C 1.9 26.4 1.4 25.7 1.4 25.0 C 1.4 24.2 1.9 23.5 2.8 23.5 L 10.9 23.5 L 10.9 4.7 C 9.2 6.2 8.0 8.0 7.1 10.1 C 7.5 12.5 7.7 14.8 7.8 17.0 C 7.8 18.2 6.9 18.8 6.1 18.8 C 5.2 18.8 4.5 18.2 4.5 17.1 C 4.3 11.0 3.1 3.8 1.1 -1.3 C 1.0 -1.6 0.9 -1.9 0.9 -2.1 C 0.9 -3.0 1.7 -3.6 2.4 -3.6 C 3.0 -3.6 3.7 -3.2 4.0 -2.5 C 4.9 -0.1 5.7 2.8 6.3 5.7 C 9.8 -0.1 16.0 -2.8 29.0 -2.8 C 35.3 -2.8 40.9 -2.6 47.0 -2.0 C 48.1 -1.9 48.6 -1.1 48.6 -0.4 C 48.6 0.6 47.9 1.6 46.6 1.4 C 40.6 0.8 35.1 0.5 29.1 0.5 C 22.2 0.5 17.6 1.2 14.2 2.7 Z" transform="scale(1,-1)" stroke-dasharray="280.87888258068205" stroke-dashoffset="280.87888258068205"><animate attributeName="stroke-dashoffset" from="280.87888258068205" to="0" dur="8.42636647742046s" begin="anim3.end" fill="freeze" id="anim_end" /></path></g></svg>