<?xml version='1.0' encoding='utf-8'?>
<svg viewBox="0 -44.0 50.0 50.0" version="1.1" xmlns="http://www.w3.org/2000/svg"><rect x="-1000" y="-1000" width="2000" height="2000" stroke="white" fill="white" /><g style="fill:none;stroke:#000000;stroke-width:1"><path d="M 26.9 32.6 C 26.0 32.6 25.5 32.0 25.5 31.3 C 25.5 30.7 26.0 30.0 26.9 30.0 L 31.6 30.0 C 30.4 27.7 28.5 26.2 26.0 24.9 C 25.2 24.5 24.8 24.0 24.8 23.5 C 24.8 22.8 25.4 22.2 26.2 22.2 C 26.5 22.2 26.8 22.2 27.1 22.4 C 30.2 23.7 32.6 25.8 34.2 28.6 C 36.7 25.1 40.8 21.6 44.6 19.8 C 45.0 19.6 45.3 19.5 45.7 19.5 C 46.7 19.5 47.4 20.3 47.4 21.2 C 47.4 21.8 47.0 22.5 46.1 22.9 C 42.6 24.5 38.8 27.2 36.7 30.0 L 45.2 30.0 C 46.1 30.0 46.6 30.7 46.6 31.3 C 46.6 32.0 46.1 32.6 45.2 32.6 L 36.0 32.6 C 36.2 33.6 36.4 34.5 36.6 35.4 L 43.0 35.4 C 43.9 35.4 44.4 36.1 44.4 36.8 C 44.4 37.5 43.9 38.1 43.0 38.1 L 36.9 38.1 C 36.9 38.9 37.0 39.8 37.0 40.6 C 37.0 41.7 36.1 42.2 35.3 42.2 C 34.5 42.2 33.6 41.7 33.6 40.6 C 33.6 39.7 33.6 38.9 33.6 38.1 L 28.2 38.1 C 27.3 38.1 26.8 37.5 26.8 36.8 C 26.8 36.1 27.3 35.4 28.2 35.4 L 33.3 35.4 C 33.2 34.5 33.0 33.6 32.7 32.6 Z " transform="scale(1,-1)" stroke-dasharray="138.44888674297192" stroke-dashoffset="138.44888674297192"><animate attributeName="stroke-dashoffset" from="138.44888674297192" to="0" dur="4.153466602289157s" begin="0s; 15s; 30s; 45s; 60s" fill="freeze" id="anim0" /></path><path d="M 34.1 3.2 C 37.9 3.2 39.2 4.5 39.2 7.0 L 39.2 17.8 C 39.2 20.4 37.9 21.6 34.1 21.6 L 15.8 21.6 C 12.0 21.6 10.6 20.4 10.6 17.8 L 10.6 7.0 C 10.7 3.7 13.0 3.2 15.8 3.2 Z " transform="scale(1,-1)" stroke-dasharray="87.71427517104082" stroke-dashoffset="87.71427517104082"><animate attributeName="stroke-dashoffset" from="87.71427517104082" to="0" dur="2.6314282551312247s" begin="anim0.end" fill="freeze" id="anim1" /></path><path d="M 16.4 5.8 C 14.4 5.8 14.0 6.2 14.0 7.4 L 14.0 8.5 L 35.9 8.5 L 35.9 7.4 C 35.9 5.8 34.8 5.8 33.4 5.8 Z " transform="scale(1,-1)" stroke-dasharray="47.972634855628606" stroke-dashoffset="47.972634855628606"><animate attributeName="stroke-dashoffset" from="47.972634855628606" to="0" dur="1.439179045668858s" begin="anim1.end" fill="freeze" id="anim2" /></path><path d="M 14.0 13.8 L 35.9 13.8 L 35.9 11.0 L 14.0 11.0 Z " transform="scale(1,-1)" stroke-dasharray="49.4" stroke-dashoffset="49.4"><animate attributeName="stroke-dashoffset" from="49.4" to="0" dur="1.482s" begin="anim2.end" fill="freeze" id="anim3" /></path><path d="M 35.9 16.2 L 14.0 16.2 L 14.0 17.4 C 14.0 18.5 14.4 18.9 16.4 18.9 L 33.4 18.9 C 35.5 18.9 35.9 18.5 35.9 17.4 Z " transform="scale(1,-1)" stroke-dasharray="48.00807218231762" stroke-dashoffset="48.00807218231762"><animate attributeName="stroke-dashoffset" from="48.00807218231762" to="0" dur="1.4402421654695285s" begin="anim3.end" fill="freeze" id="anim4" /></path><path d="M 7.1 38.1 C 6.2 38.1 5.7 37.5 5.7 36.8 C 5.7 36.1 6.2 35.4 7.1 35.4 L 13.0 35.4 C 12.9 34.5 12.7 33.6 12.5 32.6 L 4.7 32.6 C 3.8 32.6 3.3 32.0 3.3 31.3 C 3.3 30.7 3.8 30.0 4.7 30.0 L 11.6 30.0 C 11.2 29.1 10.7 28.2 10.1 27.5 C 8.5 25.2 6.2 23.2 3.6 22.1 C 2.8 21.7 2.5 21.1 2.5 20.6 C 2.5 19.8 3.1 19.1 4.0 19.1 C 4.2 19.1 4.5 19.1 4.9 19.2 C 7.9 20.6 11.1 23.2 12.9 25.8 C 13.0 26.1 13.2 26.2 13.3 26.5 C 15.2 25.5 17.0 24.3 18.9 22.8 C 19.4 22.4 19.8 22.2 20.2 22.2 C 21.1 22.2 21.7 23.0 21.7 23.8 C 21.7 24.3 21.5 24.9 20.9 25.3 C 19.1 26.8 17.1 27.9 14.6 28.9 C 14.8 29.2 14.9 29.6 15.0 30.0 L 22.8 30.0 C 23.7 30.0 24.2 30.7 24.2 31.3 C 24.2 32.0 23.7 32.6 22.8 32.6 L 15.8 32.6 C 16.0 33.6 16.1 34.5 16.2 35.4 L 21.7 35.4 C 22.6 35.4 23.1 36.1 23.1 36.8 C 23.1 37.5 22.6 38.1 21.7 38.1 L 16.4 38.1 C 16.5 38.9 16.5 39.7 16.5 40.6 C 16.5 41.7 15.7 42.2 14.9 42.2 C 14.1 42.2 13.2 41.7 13.2 40.6 C 13.2 39.7 13.2 38.9 13.2 38.1 Z " transform="scale(1,-1)" stroke-dasharray="134.24914841891905" stroke-dashoffset="134.24914841891905"><animate attributeName="stroke-dashoffset" from="134.24914841891905" to="0" dur="4.027474452567572s" begin="anim4.end" fill="freeze" id="anim5" /></path><path d="M 18.1 2.5 C 14.6 0.9 9.7 -0.4 5.9 -1.0 C 4.8 -1.2 4.3 -1.9 4.3 -2.6 C 4.3 -3.5 5.1 -4.3 6.4 -4.1 C 10.5 -3.5 15.7 -2.1 19.7 -0.2 C 20.5 0.1 20.8 0.7 20.8 1.2 C 20.8 2.0 20.1 2.7 19.2 2.7 C 18.8 2.7 18.4 2.7 18.1 2.5 Z " transform="scale(1,-1)" stroke-dasharray="37.52257665469242" stroke-dashoffset="37.52257665469242"><animate attributeName="stroke-dashoffset" from="37.52257665469242" to="0" dur="1.1256772996407727s" begin="anim5.end" fill="freeze" id="anim6" /></path><path d="M 31.5 2.7 C 31.2 2.8 30.9 2.8 30.6 2.8 C 29.7 2.8 29.0 2.1 29.0 1.4 C 29.0 0.9 29.4 0.3 30.2 -0.1 C 33.9 -1.7 38.6 -3.1 43.2 -4.0 C 44.6 -4.4 45.5 -3.5 45.5 -2.5 C 45.5 -1.8 45.0 -1.0 43.8 -0.8 C 39.5 0.0 35.0 1.2 31.5 2.7 Z" transform="scale(1,-1)" stroke-dasharray="37.529701337888504" stroke-dashoffset="37.529701337888504"><animate attributeName="stroke-dashoffset" from="37.529701337888504" to="0" dur="1.125891040136655s" begin="anim6.end" fill="freeze" id="anim_end" /></path></g></svg>