<?xml version='1.0' encoding='utf-8'?>
<svg viewBox="0 -44.0 50.0 50.0" version="1.1" xmlns="http://www.w3.org/2000/svg"><rect x="-1000" y="-1000" width="2000" height="2000" stroke="white" fill="white" /><g style="fill:none;stroke:#000000;stroke-width:1"><path d="M 16.4 12.0 C 19.9 12.0 21.4 13.4 21.4 16.3 L 21.4 24.9 C 21.4 27.9 19.9 29.2 16.4 29.2 L 14.0 29.2 L 14.0 32.7 L 21.5 32.7 C 22.5 32.7 23.0 33.5 23.0 34.2 C 23.0 35.1 22.5 35.8 21.5 35.8 L 14.0 35.8 L 14.0 40.5 C 14.0 41.5 13.2 42.0 12.3 42.0 C 11.5 42.0 10.7 41.5 10.7 40.5 L 10.7 35.8 L 3.2 35.8 C 2.2 35.8 1.8 35.1 1.8 34.2 C 1.8 33.5 2.2 32.7 3.2 32.7 L 10.7 32.7 L 10.7 29.2 L 8.3 29.2 C 5.0 29.2 3.5 27.9 3.5 24.9 L 3.5 16.3 C 3.5 13.4 5.0 12.0 8.3 12.0 L 10.7 12.0 L 10.7 8.2 L 2.9 8.2 C 2.0 8.2 1.5 7.4 1.5 6.6 C 1.5 5.9 2.0 5.1 2.9 5.1 L 10.7 5.1 L 10.7 -2.7 C 10.7 -3.7 11.5 -4.2 12.3 -4.2 C 13.2 -4.2 14.0 -3.7 14.0 -2.7 L 14.0 5.1 L 21.7 5.1 C 22.7 5.1 23.1 5.9 23.1 6.6 C 23.1 7.4 22.7 8.2 21.7 8.2 L 14.0 8.2 L 14.0 12.0 Z " transform="scale(1,-1)" stroke-dasharray="186.4504698227737" stroke-dashoffset="186.4504698227737"><animate attributeName="stroke-dashoffset" from="186.4504698227737" to="0" dur="5.5935140946832105s" begin="0s; 15s; 30s; 45s; 60s" fill="freeze" id="anim0" /></path><path d="M 14.0 14.9 L 14.0 19.4 L 18.1 19.4 L 18.1 16.6 C 18.1 15.1 17.4 14.9 16.1 14.9 Z " transform="scale(1,-1)" stroke-dasharray="16.60120672590347" stroke-dashoffset="16.60120672590347"><animate attributeName="stroke-dashoffset" from="16.60120672590347" to="0" dur="0.49803620177710406s" begin="anim0.end" fill="freeze" id="anim1" /></path><path d="M 18.1 22.2 L 14.0 22.2 L 14.0 26.3 L 16.1 26.3 C 17.7 26.3 18.1 26.0 18.1 24.6 Z " transform="scale(1,-1)" stroke-dasharray="15.841026199945446" stroke-dashoffset="15.841026199945446"><animate attributeName="stroke-dashoffset" from="15.841026199945446" to="0" dur="0.4752307859983634s" begin="anim1.end" fill="freeze" id="anim2" /></path><path d="M 10.7 26.3 L 10.7 22.2 L 6.7 22.2 L 6.7 24.6 C 6.7 26.0 7.2 26.3 8.8 26.3 Z " transform="scale(1,-1)" stroke-dasharray="15.609070033671694" stroke-dashoffset="15.609070033671694"><animate attributeName="stroke-dashoffset" from="15.609070033671694" to="0" dur="0.4682721010101508s" begin="anim2.end" fill="freeze" id="anim3" /></path><path d="M 6.7 19.4 L 10.7 19.4 L 10.7 14.9 L 8.8 14.9 C 7.2 14.9 6.7 15.2 6.7 16.6 Z " transform="scale(1,-1)" stroke-dasharray="16.40907003367169" stroke-dashoffset="16.40907003367169"><animate attributeName="stroke-dashoffset" from="16.40907003367169" to="0" dur="0.4922721010101507s" begin="anim3.end" fill="freeze" id="anim4" /></path><path d="M 33.0 29.4 L 33.0 39.8 C 33.0 40.9 32.1 41.5 31.2 41.5 C 30.2 41.5 29.4 40.9 29.4 39.8 L 29.4 29.2 L 24.6 29.1 C 23.5 29.0 23.0 28.2 23.0 27.5 C 23.0 26.7 23.6 25.9 24.6 26.0 L 29.4 26.2 L 29.4 25.6 C 29.4 10.7 25.9 3.5 19.8 -1.0 C 19.1 -1.5 18.8 -2.1 18.8 -2.7 C 18.8 -3.5 19.4 -4.2 20.4 -4.2 C 20.7 -4.2 21.2 -4.1 21.6 -3.8 C 28.9 1.2 33.0 9.9 33.0 24.8 L 33.0 26.3 L 36.2 26.5 C 38.0 26.6 38.4 25.9 38.4 24.2 L 38.4 1.8 C 38.4 -1.6 39.8 -2.8 43.4 -2.8 C 47.2 -2.8 48.7 -1.2 49.1 3.5 C 49.2 4.7 48.3 5.4 47.5 5.4 C 46.7 5.4 46.0 4.9 45.9 3.9 C 45.6 1.1 45.1 0.7 43.6 0.7 C 42.5 0.7 42.0 0.9 42.0 2.6 L 42.0 24.9 C 42.0 27.8 40.5 29.6 37.1 29.5 Z" transform="scale(1,-1)" stroke-dasharray="204.50757115091406" stroke-dashoffset="204.50757115091406"><animate attributeName="stroke-dashoffset" from="204.50757115091406" to="0" dur="6.135227134527422s" begin="anim4.end" fill="freeze" id="anim_end" /></path></g></svg>