<?xml version='1.0' encoding='utf-8'?>
<svg viewBox="0 -44.0 50.0 50.0" version="1.1" xmlns="http://www.w3.org/2000/svg"><rect x="-1000" y="-1000" width="2000" height="2000" stroke="white" fill="white" /><g style="fill:none;stroke:#000000;stroke-width:1"><path d="M 23.1 18.1 L 16.0 18.1 C 13.3 18.1 12.9 18.7 12.9 20.6 L 12.9 26.1 C 12.9 27.2 12.0 27.7 11.1 27.7 C 10.2 27.7 9.2 27.2 9.2 26.1 L 9.2 20.0 C 9.2 16.5 10.7 15.1 15.2 15.1 L 23.1 15.1 L 23.1 0.9 L 13.2 0.9 C 10.5 0.9 10.0 1.5 10.0 3.4 L 10.0 10.1 C 10.0 11.1 9.1 11.7 8.2 11.7 C 7.2 11.7 6.4 11.1 6.4 10.1 L 6.4 2.8 C 6.4 -0.8 8.0 -2.2 12.5 -2.2 L 37.8 -2.2 C 42.4 -2.2 43.8 -0.8 43.8 2.8 L 43.8 10.1 C 43.8 11.1 42.9 11.7 42.0 11.7 C 41.1 11.7 40.2 11.1 40.2 10.1 L 40.2 3.4 C 40.2 1.5 39.7 0.9 37.0 0.9 L 26.7 0.9 L 26.7 15.1 L 34.9 15.1 C 39.5 15.1 40.9 16.5 40.9 20.0 L 40.9 26.1 C 40.9 27.2 40.0 27.7 39.1 27.7 C 38.2 27.7 37.3 27.2 37.3 26.1 L 37.3 20.6 C 37.3 18.7 36.9 18.1 34.2 18.1 L 26.7 18.1 L 26.7 29.4 C 26.7 30.5 25.8 31.0 24.9 31.0 C 24.0 31.0 23.1 30.5 23.1 29.4 Z " transform="scale(1,-1)" stroke-dasharray="261.0997379852689" stroke-dashoffset="261.0997379852689"><animate attributeName="stroke-dashoffset" from="261.0997379852689" to="0" dur="7.832992139558067s" begin="0s; 15s; 30s; 45s; 60s" fill="freeze" id="anim0" /></path><path d="M 30.4 37.1 L 19.2 37.1 L 19.2 40.4 C 19.2 41.4 18.4 41.9 17.5 41.9 C 16.7 41.9 15.8 41.4 15.8 40.4 L 15.8 37.1 L 4.2 37.1 C 3.2 37.1 2.8 36.4 2.8 35.6 C 2.8 35.0 3.2 34.2 4.2 34.2 L 15.8 34.2 L 15.8 31.4 C 15.8 30.4 16.7 29.9 17.5 29.9 C 18.4 29.9 19.2 30.4 19.2 31.4 L 19.2 34.2 L 30.4 34.2 L 30.4 31.5 C 30.4 30.5 31.2 30.0 32.1 30.0 C 32.9 30.0 33.8 30.5 33.8 31.5 L 33.8 34.2 L 45.8 34.2 C 46.8 34.2 47.2 35.0 47.2 35.6 C 47.2 36.4 46.8 37.1 45.8 37.1 L 33.8 37.1 L 33.8 40.4 C 33.8 41.4 32.9 41.9 32.1 41.9 C 31.2 41.9 30.4 41.4 30.4 40.4 Z" transform="scale(1,-1)" stroke-dasharray="123.20681416842149" stroke-dashoffset="123.20681416842149"><animate attributeName="stroke-dashoffset" from="123.20681416842149" to="0" dur="3.6962044250526445s" begin="anim0.end" fill="freeze" id="anim_end" /></path></g></svg>