<?xml version='1.0' encoding='utf-8'?>
<svg viewBox="0 -44.0 50.0 50.0" version="1.1" xmlns="http://www.w3.org/2000/svg"><rect x="-1000" y="-1000" width="2000" height="2000" stroke="white" fill="white" /><g style="fill:none;stroke:#000000;stroke-width:1"><path d="M 23.2 25.2 L 13.7 25.2 C 10.2 25.2 9.1 24.1 9.1 21.9 L 9.1 19.2 C 9.1 16.3 11.1 16.0 13.7 15.9 L 23.2 15.9 L 23.2 12.9 L 6.0 12.9 C 5.1 12.9 4.6 12.1 4.6 11.4 C 4.6 10.7 5.1 9.9 6.0 9.9 L 23.2 9.9 L 23.2 6.8 L 10.0 6.8 C 9.1 6.8 8.6 6.1 8.6 5.4 C 8.6 4.7 9.1 3.9 10.0 3.9 L 23.2 3.9 L 23.2 0.7 L 4.0 0.7 C 3.2 0.7 2.7 -0.1 2.7 -0.8 C 2.7 -1.6 3.2 -2.3 4.0 -2.3 L 46.1 -2.3 C 47.1 -2.3 47.6 -1.6 47.6 -0.8 C 47.6 -0.1 47.1 0.7 46.1 0.7 L 26.6 0.7 L 26.6 3.9 L 40.9 3.9 C 41.9 3.9 42.3 4.7 42.3 5.4 C 42.3 6.1 41.9 6.8 40.9 6.8 L 26.6 6.8 L 26.6 9.9 L 44.6 9.9 C 45.5 9.9 46.0 10.7 46.0 11.4 C 46.0 12.1 45.5 12.9 44.6 12.9 L 26.6 12.9 L 26.6 15.9 L 36.6 15.9 C 40.1 15.9 41.2 17.0 41.2 19.2 L 41.2 21.9 C 41.2 24.1 40.1 25.2 36.6 25.2 L 26.6 25.2 L 26.6 28.2 L 43.2 28.2 C 44.2 28.2 44.7 28.9 44.7 29.6 C 44.7 30.4 44.2 31.1 43.2 31.1 L 33.5 31.1 L 33.5 34.5 L 45.9 34.5 C 46.8 34.5 47.2 35.2 47.2 35.9 C 47.2 36.6 46.8 37.4 45.9 37.4 L 33.5 37.4 L 33.5 40.4 C 33.5 41.4 32.6 41.9 31.8 41.9 C 31.0 41.9 30.1 41.4 30.1 40.4 L 30.1 37.4 L 19.5 37.4 L 19.5 40.4 C 19.5 41.4 18.6 41.9 17.8 41.9 C 16.9 41.9 16.1 41.4 16.1 40.4 L 16.1 37.4 L 4.1 37.4 C 3.2 37.4 2.8 36.6 2.8 35.9 C 2.8 35.2 3.2 34.5 4.1 34.5 L 16.1 34.5 L 16.1 31.1 L 6.8 31.1 C 5.9 31.1 5.4 30.4 5.4 29.6 C 5.4 28.9 5.9 28.2 6.8 28.2 L 23.2 28.2 Z " transform="scale(1,-1)" stroke-dasharray="486.96781795476056" stroke-dashoffset="486.96781795476056"><animate attributeName="stroke-dashoffset" from="486.96781795476056" to="0" dur="14.609034538642817s" begin="0s; 15s; 30s; 45s; 60s" fill="freeze" id="anim0" /></path><path d="M 26.6 22.5 L 36.1 22.5 C 37.5 22.5 37.9 22.1 37.9 21.2 L 37.9 19.9 C 37.9 18.7 37.1 18.6 36.1 18.6 L 26.6 18.6 Z " transform="scale(1,-1)" stroke-dasharray="29.369998595630673" stroke-dashoffset="29.369998595630673"><animate attributeName="stroke-dashoffset" from="29.369998595630673" to="0" dur="0.8810999578689201s" begin="anim0.end" fill="freeze" id="anim1" /></path><path d="M 23.2 22.5 L 23.2 18.6 L 14.1 18.6 C 12.8 18.6 12.4 18.9 12.4 19.9 L 12.4 21.2 C 12.4 22.1 12.8 22.5 14.1 22.5 Z " transform="scale(1,-1)" stroke-dasharray="28.404749086994467" stroke-dashoffset="28.404749086994467"><animate attributeName="stroke-dashoffset" from="28.404749086994467" to="0" dur="0.852142472609834s" begin="anim1.end" fill="freeze" id="anim2" /></path><path d="M 30.1 31.1 L 19.5 31.1 L 19.5 34.5 L 30.1 34.5 Z" transform="scale(1,-1)" stroke-dasharray="28.0" stroke-dashoffset="28.0"><animate attributeName="stroke-dashoffset" from="28.0" to="0" dur="0.84s" begin="anim2.end" fill="freeze" id="anim_end" /></path></g></svg>