<?xml version='1.0' encoding='utf-8'?>
<svg viewBox="0 -44.0 50.0 50.0" version="1.1" xmlns="http://www.w3.org/2000/svg"><rect x="-1000" y="-1000" width="2000" height="2000" stroke="white" fill="white" /><g style="fill:none;stroke:#000000;stroke-width:1"><path d="M 13.9 -2.1 C 17.4 -2.1 18.6 -0.7 18.6 2.1 L 18.6 8.2 C 18.6 11.1 17.4 12.4 13.9 12.4 L 9.1 12.4 C 5.7 12.4 4.4 11.1 4.4 8.2 L 4.4 2.1 C 4.4 -1.2 6.1 -2.0 9.1 -2.1 Z " transform="scale(1,-1)" stroke-dasharray="51.064181582064755" stroke-dashoffset="51.064181582064755"><animate attributeName="stroke-dashoffset" from="51.064181582064755" to="0" dur="1.5319254474619426s" begin="0s; 15s; 30s; 45s; 60s" fill="freeze" id="anim0" /></path><path d="M 9.6 1.0 C 8.2 1.0 7.8 1.5 7.8 2.6 L 7.8 7.8 C 7.8 8.9 8.2 9.4 9.6 9.4 L 13.4 9.4 C 14.8 9.4 15.2 8.9 15.2 7.8 L 15.2 2.6 C 15.2 1.3 14.6 1.0 13.4 1.0 Z " transform="scale(1,-1)" stroke-dasharray="29.274207875551486" stroke-dashoffset="29.274207875551486"><animate attributeName="stroke-dashoffset" from="29.274207875551486" to="0" dur="0.8782262362665445s" begin="anim0.end" fill="freeze" id="anim1" /></path><path d="M 41.8 2.2 C 42.2 1.4 42.5 0.6 42.8 -0.2 C 43.2 -1.1 43.9 -1.6 44.7 -1.6 C 45.6 -1.6 46.5 -0.8 46.5 0.3 C 46.5 0.7 46.4 1.1 46.2 1.5 C 44.7 4.5 42.2 8.5 40.0 11.2 C 39.5 11.9 38.9 12.1 38.4 12.1 C 37.5 12.1 36.8 11.5 36.8 10.7 C 36.8 10.2 37.0 9.9 37.2 9.5 C 38.1 8.2 39.2 6.7 40.2 5.0 C 36.5 4.3 32.7 3.9 28.9 3.6 C 31.2 8.5 33.5 14.6 34.9 20.4 C 35.0 20.6 35.0 20.8 35.0 21.0 C 35.0 22.2 34.1 22.9 33.1 22.9 C 32.4 22.9 31.6 22.4 31.4 21.2 C 30.0 15.3 27.8 8.8 25.2 3.2 C 24.4 3.2 23.5 3.2 22.7 3.1 C 21.4 3.1 20.8 2.2 20.8 1.4 C 20.8 0.4 21.5 -0.6 22.8 -0.5 C 29.2 0.0 35.7 0.9 41.8 2.2 Z " transform="scale(1,-1)" stroke-dasharray="114.01556155368188" stroke-dashoffset="114.01556155368188"><animate attributeName="stroke-dashoffset" from="114.01556155368188" to="0" dur="3.420466846610456s" begin="anim1.end" fill="freeze" id="anim2" /></path><path d="M 28.0 37.4 C 26.7 31.7 24.4 26.1 21.4 21.7 C 21.1 21.2 21.0 20.7 21.0 20.3 C 21.0 19.4 21.6 18.8 22.5 18.8 C 23.1 18.8 23.7 19.1 24.2 19.9 C 27.3 24.4 30.0 30.7 31.4 36.6 C 31.5 36.9 31.5 37.1 31.5 37.3 C 31.5 38.4 30.7 39.1 29.8 39.1 C 29.0 39.1 28.2 38.6 28.0 37.4 Z " transform="scale(1,-1)" stroke-dasharray="47.579349172586106" stroke-dashoffset="47.579349172586106"><animate attributeName="stroke-dashoffset" from="47.579349172586106" to="0" dur="1.4273804751775832s" begin="anim2.end" fill="freeze" id="anim3" /></path><path d="M 46.8 23.2 C 43.4 27.5 40.7 33.0 39.4 37.9 C 39.1 38.9 38.3 39.3 37.6 39.3 C 36.8 39.3 36.0 38.8 36.0 37.8 C 36.0 37.6 36.1 37.4 36.1 37.2 C 37.6 31.6 40.5 25.5 43.8 20.7 C 44.4 19.9 45.1 19.6 45.8 19.6 C 46.7 19.6 47.5 20.2 47.5 21.3 C 47.5 21.9 47.3 22.5 46.8 23.2 Z " transform="scale(1,-1)" stroke-dasharray="47.50601537340296" stroke-dashoffset="47.50601537340296"><animate attributeName="stroke-dashoffset" from="47.50601537340296" to="0" dur="1.4251804612020886s" begin="anim3.end" fill="freeze" id="anim4" /></path><path d="M 16.6 36.4 C 17.6 36.4 18.1 37.1 18.1 37.9 C 18.1 38.7 17.6 39.5 16.6 39.5 L 6.1 39.5 C 5.1 39.5 4.7 38.7 4.7 37.9 C 4.7 37.1 5.1 36.4 6.1 36.4 Z " transform="scale(1,-1)" stroke-dasharray="30.574092013185652" stroke-dashoffset="30.574092013185652"><animate attributeName="stroke-dashoffset" from="30.574092013185652" to="0" dur="0.9172227603955695s" begin="anim4.end" fill="freeze" id="anim5" /></path><path d="M 19.4 29.7 C 20.3 29.7 20.8 30.5 20.8 31.2 C 20.8 32.1 20.3 32.8 19.4 32.8 L 3.1 32.8 C 2.1 32.8 1.7 32.1 1.7 31.2 C 1.7 30.5 2.1 29.7 3.1 29.7 Z " transform="scale(1,-1)" stroke-dasharray="42.0008629512207" stroke-dashoffset="42.0008629512207"><animate attributeName="stroke-dashoffset" from="42.0008629512207" to="0" dur="1.260025888536621s" begin="anim5.end" fill="freeze" id="anim6" /></path><path d="M 16.6 22.8 C 17.6 22.8 18.1 23.6 18.1 24.4 C 18.1 25.2 17.6 25.9 16.6 25.9 L 6.1 25.9 C 5.1 25.9 4.7 25.2 4.7 24.4 C 4.7 23.6 5.1 22.8 6.1 22.8 Z " transform="scale(1,-1)" stroke-dasharray="30.574092013185645" stroke-dashoffset="30.574092013185645"><animate attributeName="stroke-dashoffset" from="30.574092013185645" to="0" dur="0.9172227603955693s" begin="anim6.end" fill="freeze" id="anim7" /></path><path d="M 16.6 16.2 C 17.6 16.2 18.1 16.9 18.1 17.7 C 18.1 18.5 17.6 19.2 16.6 19.2 L 6.1 19.2 C 5.1 19.2 4.7 18.5 4.7 17.7 C 4.7 16.9 5.1 16.2 6.1 16.2 Z" transform="scale(1,-1)" stroke-dasharray="30.4331481445009" stroke-dashoffset="30.4331481445009"><animate attributeName="stroke-dashoffset" from="30.4331481445009" to="0" dur="0.912994444335027s" begin="anim7.end" fill="freeze" id="anim_end" /></path></g></svg>