<?xml version='1.0' encoding='utf-8'?>
<svg viewBox="0 -44.0 50.0 50.0" version="1.1" xmlns="http://www.w3.org/2000/svg"><rect x="-1000" y="-1000" width="2000" height="2000" stroke="white" fill="white" /><g style="fill:none;stroke:#000000;stroke-width:1"><path d="M 8.6 -2.6 C 8.6 -3.7 9.5 -4.2 10.4 -4.2 C 11.2 -4.2 12.2 -3.7 12.2 -2.6 L 12.2 13.6 C 13.6 12.6 15.1 11.4 16.4 10.0 C 16.8 9.6 17.2 9.4 17.6 9.4 C 18.5 9.4 19.3 10.2 19.3 11.2 C 19.3 11.7 19.1 12.2 18.6 12.7 C 17.8 13.5 16.7 14.2 15.6 15.0 C 16.9 16.1 18.1 17.4 19.2 18.8 C 19.5 19.2 19.7 19.7 19.7 20.0 C 19.7 20.9 18.9 21.6 18.1 21.6 C 17.6 21.6 17.0 21.3 16.6 20.7 C 15.7 19.2 14.5 17.7 13.1 16.4 C 12.8 16.5 12.5 16.7 12.2 16.8 L 12.2 19.6 C 14.4 22.4 16.3 25.4 17.6 28.2 C 17.9 29.0 18.1 29.7 18.1 30.3 C 18.1 32.1 16.7 33.3 14.1 33.3 L 12.2 33.3 L 12.2 40.4 C 12.2 41.5 11.2 42.0 10.4 42.0 C 9.5 42.0 8.6 41.5 8.6 40.4 L 8.6 33.3 L 3.8 33.3 C 2.9 33.3 2.4 32.6 2.4 31.8 C 2.4 31.0 2.9 30.2 3.8 30.2 L 13.4 30.2 C 14.1 30.2 14.3 30.1 14.3 29.7 C 14.3 29.5 14.2 29.3 14.2 29.1 C 12.2 24.4 7.4 18.4 2.5 14.9 C 1.9 14.4 1.6 13.9 1.6 13.3 C 1.6 12.5 2.3 11.8 3.2 11.8 C 3.6 11.8 4.0 11.9 4.4 12.2 C 5.8 13.2 7.2 14.4 8.6 15.7 Z " transform="scale(1,-1)" stroke-dasharray="165.30963254082178" stroke-dashoffset="165.30963254082178"><animate attributeName="stroke-dashoffset" from="165.30963254082178" to="0" dur="4.959288976224653s" begin="0s; 15s; 30s; 45s; 60s" fill="freeze" id="anim0" /></path><path d="M 32.0 20.6 L 22.4 20.6 C 21.4 20.6 20.8 19.8 20.8 18.9 C 20.8 18.1 21.4 17.2 22.4 17.2 L 32.0 17.2 L 32.0 1.6 L 23.0 1.6 C 22.0 1.6 21.5 0.8 21.5 -0.1 C 21.5 -0.9 22.0 -1.7 23.0 -1.7 L 45.0 -1.7 C 46.0 -1.7 46.5 -0.9 46.5 -0.1 C 46.5 0.8 46.0 1.6 45.0 1.6 L 35.6 1.6 L 35.6 17.2 L 46.4 17.2 C 47.5 17.2 48.0 18.1 48.0 18.9 C 48.0 19.8 47.5 20.6 46.4 20.6 L 35.6 20.6 L 35.6 33.5 C 38.6 34.2 41.4 35.1 43.8 35.9 C 44.8 36.2 45.2 36.9 45.2 37.6 C 45.2 38.5 44.4 39.4 43.4 39.4 C 43.1 39.4 42.9 39.3 42.6 39.2 C 37.6 37.3 30.1 35.5 23.5 34.8 C 22.5 34.7 22.0 34.0 22.0 33.2 C 22.0 32.3 22.7 31.4 24.0 31.5 C 26.5 31.8 29.2 32.2 32.0 32.7 Z" transform="scale(1,-1)" stroke-dasharray="205.57304791179305" stroke-dashoffset="205.57304791179305"><animate attributeName="stroke-dashoffset" from="205.57304791179305" to="0" dur="6.167191437353791s" begin="anim0.end" fill="freeze" id="anim_end" /></path></g></svg>