<?xml version='1.0' encoding='utf-8'?>
<svg viewBox="0 -44.0 50.0 50.0" version="1.1" xmlns="http://www.w3.org/2000/svg"><rect x="-1000" y="-1000" width="2000" height="2000" stroke="white" fill="white" /><g style="fill:none;stroke:#000000;stroke-width:1"><path d="M 9.7 30.0 C 6.7 30.0 5.2 28.5 5.2 25.8 L 5.2 19.7 C 5.2 8.8 4.2 3.2 2.4 -1.0 C 2.2 -1.4 2.2 -1.7 2.2 -2.0 C 2.2 -3.0 2.9 -3.6 3.7 -3.6 C 4.4 -3.6 5.1 -3.2 5.5 -2.2 C 6.9 1.0 7.8 5.0 8.2 10.9 L 18.3 10.9 L 18.3 2.5 C 18.3 1.2 17.7 0.6 16.6 0.6 C 15.9 0.6 15.2 0.7 14.5 0.8 C 13.2 1.0 12.6 0.1 12.6 -0.9 C 12.6 -1.6 13.0 -2.4 14.0 -2.6 C 14.9 -2.8 15.8 -2.9 16.7 -2.9 C 19.7 -2.9 21.5 -1.6 21.5 2.0 L 21.5 25.8 C 21.5 28.5 20.1 30.0 17.1 30.0 L 15.1 30.0 C 15.8 31.1 16.2 32.2 16.7 33.2 C 16.9 33.8 16.9 34.2 16.9 34.6 C 16.9 36.4 15.7 37.5 13.3 37.5 L 10.6 37.5 C 10.9 38.1 11.2 38.8 11.5 39.5 C 11.6 39.8 11.6 40.0 11.6 40.2 C 11.6 41.1 10.8 41.7 9.9 41.7 C 9.2 41.7 8.6 41.4 8.3 40.6 C 6.9 36.9 4.7 33.1 2.5 30.2 C 2.1 29.9 2.0 29.5 2.0 29.1 C 2.0 28.2 2.7 27.6 3.5 27.6 C 4.0 27.6 4.5 27.8 4.9 28.3 C 6.4 30.1 7.8 32.2 9.1 34.6 L 12.5 34.6 C 13.2 34.6 13.6 34.5 13.6 34.0 C 13.6 33.9 13.5 33.8 13.5 33.6 C 13.1 32.5 12.6 31.3 11.8 30.0 Z " transform="scale(1,-1)" stroke-dasharray="182.40227430169216" stroke-dashoffset="182.40227430169216"><animate attributeName="stroke-dashoffset" from="182.40227430169216" to="0" dur="5.472068229050764s" begin="0s; 15s; 30s; 45s; 60s" fill="freeze" id="anim0" /></path><path d="M 14.8 21.8 L 14.8 27.2 L 16.8 27.2 C 18.0 27.2 18.3 26.8 18.3 25.5 L 18.3 21.8 Z " transform="scale(1,-1)" stroke-dasharray="17.291050328528602" stroke-dashoffset="17.291050328528602"><animate attributeName="stroke-dashoffset" from="17.291050328528602" to="0" dur="0.518731509855858s" begin="anim0.end" fill="freeze" id="anim1" /></path><path d="M 11.8 21.8 L 8.5 21.8 L 8.5 25.5 C 8.5 26.8 8.8 27.2 10.0 27.2 L 11.8 27.2 Z " transform="scale(1,-1)" stroke-dasharray="16.891050328528603" stroke-dashoffset="16.891050328528603"><animate attributeName="stroke-dashoffset" from="16.891050328528603" to="0" dur="0.5067315098558581s" begin="anim1.end" fill="freeze" id="anim2" /></path><path d="M 14.8 19.2 L 18.3 19.2 L 18.3 13.5 L 14.8 13.5 Z " transform="scale(1,-1)" stroke-dasharray="18.4" stroke-dashoffset="18.4"><animate attributeName="stroke-dashoffset" from="18.4" to="0" dur="0.5519999999999999s" begin="anim2.end" fill="freeze" id="anim3" /></path><path d="M 11.8 19.2 L 11.8 13.5 L 8.3 13.5 C 8.4 15.4 8.5 17.2 8.5 19.2 Z " transform="scale(1,-1)" stroke-dasharray="18.20425249568594" stroke-dashoffset="18.20425249568594"><animate attributeName="stroke-dashoffset" from="18.20425249568594" to="0" dur="0.5461275748705782s" begin="anim3.end" fill="freeze" id="anim4" /></path><path d="M 32.7 3.7 C 31.4 3.5 30.2 3.2 28.9 3.1 C 27.9 3.0 27.5 2.3 27.5 1.6 C 27.5 0.7 28.2 -0.2 29.4 -0.1 C 32.5 0.4 36.1 1.2 39.6 2.4 C 39.8 1.9 39.9 1.3 40.0 0.8 C 40.2 0.0 40.7 -0.4 41.2 -0.4 C 42.0 -0.4 42.7 0.2 42.7 1.2 C 42.7 1.4 42.7 1.6 42.6 1.8 C 42.2 3.8 41.4 6.2 40.4 8.3 C 40.1 9.0 39.5 9.2 39.0 9.2 C 38.4 9.2 37.7 8.8 37.7 8.1 C 37.7 7.9 37.8 7.7 37.9 7.5 C 38.2 6.7 38.6 5.9 38.9 5.0 C 37.9 4.8 37.0 4.5 36.1 4.4 L 36.1 31.6 C 36.1 32.6 35.2 33.1 34.4 33.1 C 33.6 33.1 32.7 32.6 32.7 31.6 Z " transform="scale(1,-1)" stroke-dasharray="102.9712134619898" stroke-dashoffset="102.9712134619898"><animate attributeName="stroke-dashoffset" from="102.9712134619898" to="0" dur="3.089136403859694s" begin="anim4.end" fill="freeze" id="anim5" /></path><path d="M 28.9 33.6 C 32.5 34.2 36.1 35.1 39.6 36.0 C 39.9 21.5 41.8 8.3 45.1 -1.1 C 45.5 -2.1 46.2 -2.6 46.9 -2.6 C 47.8 -2.6 48.6 -1.9 48.6 -0.7 C 48.6 -0.4 48.6 0.0 48.4 0.4 C 45.0 9.5 43.0 22.4 42.6 37.0 C 43.1 37.1 43.6 37.2 44.0 37.4 C 44.8 37.7 45.2 38.3 45.2 38.9 C 45.2 39.8 44.5 40.6 43.6 40.6 C 43.3 40.6 43.1 40.5 42.8 40.4 C 38.5 38.8 33.6 37.5 28.7 36.6 C 28.4 37.1 27.8 37.3 27.2 37.3 C 26.3 37.3 25.5 36.8 25.5 35.8 L 25.5 25.2 C 25.5 11.2 24.3 4.2 21.4 -1.2 C 21.2 -1.6 21.1 -2.0 21.1 -2.3 C 21.1 -3.2 21.8 -3.8 22.6 -3.8 C 23.2 -3.8 23.9 -3.4 24.3 -2.6 C 27.4 3.4 28.9 10.7 28.9 24.5 Z" transform="scale(1,-1)" stroke-dasharray="198.26066695617558" stroke-dashoffset="198.26066695617558"><animate attributeName="stroke-dashoffset" from="198.26066695617558" to="0" dur="5.947820008685268s" begin="anim5.end" fill="freeze" id="anim_end" /></path></g></svg>