<?xml version='1.0' encoding='utf-8'?>
<svg viewBox="0 -44.0 50.0 50.0" version="1.1" xmlns="http://www.w3.org/2000/svg"><rect x="-1000" y="-1000" width="2000" height="2000" stroke="white" fill="white" /><g style="fill:none;stroke:#000000;stroke-width:1"><path d="M 35.4 37.6 L 31.8 37.6 L 31.8 40.2 C 31.8 41.2 31.0 41.7 30.2 41.7 C 29.5 41.7 28.7 41.2 28.7 40.2 L 28.7 37.6 L 26.6 37.6 C 23.4 37.6 22.1 36.1 22.1 33.8 L 22.1 26.9 C 22.2 24.0 24.0 23.1 26.6 23.1 L 41.0 23.1 C 44.2 23.1 45.2 24.5 45.2 26.9 L 45.2 33.8 C 45.2 36.1 44.2 37.6 41.0 37.6 L 38.4 37.6 L 38.4 40.2 C 38.4 41.2 37.6 41.7 36.9 41.7 C 36.1 41.7 35.4 41.2 35.4 40.2 Z " transform="scale(1,-1)" stroke-dasharray="83.03351820338482" stroke-dashoffset="83.03351820338482"><animate attributeName="stroke-dashoffset" from="83.03351820338482" to="0" dur="2.4910055461015443s" begin="0s; 15s; 30s; 45s; 60s" fill="freeze" id="anim0" /></path><path d="M 38.4 29.1 L 42.4 29.1 L 42.4 27.2 C 42.4 26.0 41.6 25.8 40.5 25.8 L 38.4 25.8 Z " transform="scale(1,-1)" stroke-dasharray="14.035191018507822" stroke-dashoffset="14.035191018507822"><animate attributeName="stroke-dashoffset" from="14.035191018507822" to="0" dur="0.42105573055523465s" begin="anim0.end" fill="freeze" id="anim1" /></path><path d="M 35.4 29.1 L 35.4 25.8 L 31.8 25.8 L 31.8 29.1 Z " transform="scale(1,-1)" stroke-dasharray="13.799999999999997" stroke-dashoffset="13.799999999999997"><animate attributeName="stroke-dashoffset" from="13.799999999999997" to="0" dur="0.4139999999999999s" begin="anim1.end" fill="freeze" id="anim2" /></path><path d="M 38.4 34.9 L 40.5 34.9 C 41.9 34.9 42.4 34.4 42.4 33.4 L 42.4 31.6 L 38.4 31.6 Z " transform="scale(1,-1)" stroke-dasharray="13.995914075473102" stroke-dashoffset="13.995914075473102"><animate attributeName="stroke-dashoffset" from="13.995914075473102" to="0" dur="0.41987742226419306s" begin="anim2.end" fill="freeze" id="anim3" /></path><path d="M 35.4 34.9 L 35.4 31.6 L 31.8 31.6 L 31.8 34.9 Z " transform="scale(1,-1)" stroke-dasharray="13.79999999999999" stroke-dashoffset="13.79999999999999"><animate attributeName="stroke-dashoffset" from="13.79999999999999" to="0" dur="0.4139999999999997s" begin="anim3.end" fill="freeze" id="anim4" /></path><path d="M 28.7 34.9 L 28.7 31.6 L 25.2 31.6 L 25.2 33.4 C 25.2 34.4 25.7 34.9 27.2 34.9 Z " transform="scale(1,-1)" stroke-dasharray="12.987368086072319" stroke-dashoffset="12.987368086072319"><animate attributeName="stroke-dashoffset" from="12.987368086072319" to="0" dur="0.38962104258216956s" begin="anim4.end" fill="freeze" id="anim5" /></path><path d="M 25.2 29.1 L 28.7 29.1 L 28.7 25.8 L 27.2 25.8 C 25.7 25.8 25.2 26.2 25.2 27.2 Z " transform="scale(1,-1)" stroke-dasharray="13.029146795395482" stroke-dashoffset="13.029146795395482"><animate attributeName="stroke-dashoffset" from="13.029146795395482" to="0" dur="0.39087440386186445s" begin="anim5.end" fill="freeze" id="anim6" /></path><path d="M 39.1 5.8 C 42.2 5.8 43.4 7.2 43.4 9.3 L 43.4 12.0 C 43.4 14.1 42.2 15.5 39.1 15.5 L 28.5 15.5 C 25.2 15.5 24.2 14.1 24.2 12.0 L 24.2 9.2 C 24.2 6.3 26.5 5.8 29.0 5.8 Z " transform="scale(1,-1)" stroke-dasharray="51.99969260086294" stroke-dashoffset="51.99969260086294"><animate attributeName="stroke-dashoffset" from="51.99969260086294" to="0" dur="1.5599907780258881s" begin="anim6.end" fill="freeze" id="anim7" /></path><path d="M 29.0 8.6 C 27.9 8.6 27.5 8.8 27.5 9.7 L 27.5 11.6 C 27.5 12.4 27.9 12.7 29.0 12.7 L 38.6 12.7 C 39.7 12.7 40.1 12.4 40.1 11.6 L 40.1 9.7 C 40.1 8.7 39.4 8.6 38.6 8.6 Z " transform="scale(1,-1)" stroke-dasharray="31.667702554857623" stroke-dashoffset="31.667702554857623"><animate attributeName="stroke-dashoffset" from="31.667702554857623" to="0" dur="0.9500310766457286s" begin="anim7.end" fill="freeze" id="anim8" /></path><path d="M 17.5 32.6 C 17.5 35.4 16.2 36.6 13.6 36.6 L 12.7 36.6 C 13.1 37.8 13.4 38.9 13.6 39.9 C 13.9 41.2 13.0 42.1 12.0 42.1 C 11.2 42.1 10.5 41.6 10.3 40.5 C 10.1 39.2 9.8 38.0 9.3 36.6 L 9.0 36.6 C 6.4 36.6 5.0 35.4 5.0 32.6 L 5.0 14.4 C 4.5 14.3 3.9 14.2 3.4 14.1 C 2.3 13.9 1.9 13.2 1.9 12.4 C 1.9 11.5 2.6 10.6 3.8 10.9 C 7.1 11.6 10.4 12.5 13.6 13.8 C 10.2 9.4 6.2 5.3 2.6 2.9 C 2.0 2.4 1.7 1.9 1.7 1.4 C 1.7 0.6 2.3 -0.1 3.1 -0.1 C 3.5 -0.1 3.9 0.1 4.2 0.3 C 7.5 2.6 11.2 6.0 14.5 9.9 L 14.4 5.3 L 14.4 1.2 C 14.4 -0.1 13.9 -0.4 12.9 -0.4 C 12.3 -0.4 11.8 -0.3 11.2 -0.2 C 10.1 0.1 9.4 -0.9 9.4 -1.7 C 9.4 -2.4 9.8 -3.1 10.7 -3.2 C 11.4 -3.4 12.2 -3.5 13.0 -3.5 C 16.0 -3.5 17.5 -2.2 17.5 0.7 L 17.5 13.8 C 18.6 15.3 19.7 16.9 20.5 18.4 C 20.7 18.8 20.8 19.1 20.8 19.4 C 20.8 20.3 20.0 21.0 19.2 21.0 C 18.7 21.0 18.1 20.7 17.8 20.0 C 17.7 19.9 17.6 19.7 17.5 19.6 Z " transform="scale(1,-1)" stroke-dasharray="162.43008961549518" stroke-dashoffset="162.43008961549518"><animate attributeName="stroke-dashoffset" from="162.43008961549518" to="0" dur="4.872902688464855s" begin="anim8.end" fill="freeze" id="anim9" /></path><path d="M 14.4 16.9 C 12.3 16.2 10.2 15.7 8.2 15.2 L 8.2 20.5 L 14.4 20.5 Z " transform="scale(1,-1)" stroke-dasharray="21.53062738890507" stroke-dashoffset="21.53062738890507"><animate attributeName="stroke-dashoffset" from="21.53062738890507" to="0" dur="0.6459188216671521s" begin="anim9.end" fill="freeze" id="anim10" /></path><path d="M 8.2 27.1 L 14.4 27.1 L 14.4 23.1 L 8.2 23.1 Z " transform="scale(1,-1)" stroke-dasharray="20.400000000000002" stroke-dashoffset="20.400000000000002"><animate attributeName="stroke-dashoffset" from="20.400000000000002" to="0" dur="0.612s" begin="anim10.end" fill="freeze" id="anim11" /></path><path d="M 14.4 29.7 L 8.2 29.7 L 8.2 32.1 C 8.2 33.2 8.6 33.7 9.7 33.7 L 12.9 33.7 C 14.0 33.7 14.4 33.2 14.4 32.1 Z " transform="scale(1,-1)" stroke-dasharray="19.299107312042203" stroke-dashoffset="19.299107312042203"><animate attributeName="stroke-dashoffset" from="19.299107312042203" to="0" dur="0.5789732193612661s" begin="anim11.end" fill="freeze" id="anim12" /></path><path d="M 39.0 0.2 C 39.5 1.1 39.9 2.0 40.2 2.9 C 40.4 3.2 40.4 3.4 40.4 3.7 C 40.4 4.5 39.7 5.1 38.9 5.1 C 38.2 5.1 37.6 4.7 37.2 3.9 C 36.8 2.7 36.3 1.4 35.7 0.2 L 30.8 0.2 C 31.1 0.5 31.2 0.9 31.2 1.4 C 31.2 1.6 31.2 1.9 31.1 2.1 C 30.8 2.8 30.4 3.5 29.9 4.1 C 29.5 4.8 28.8 5.1 28.2 5.1 C 27.5 5.1 26.8 4.5 26.8 3.7 C 26.8 3.4 26.9 3.1 27.1 2.7 C 27.5 2.1 27.8 1.5 28.1 0.8 C 28.2 0.6 28.4 0.4 28.5 0.2 L 20.6 0.2 C 19.6 0.2 19.2 -0.5 19.2 -1.2 C 19.2 -1.9 19.6 -2.7 20.6 -2.7 L 46.7 -2.7 C 47.6 -2.7 48.1 -1.9 48.1 -1.2 C 48.1 -0.5 47.6 0.2 46.7 0.2 Z " transform="scale(1,-1)" stroke-dasharray="80.44825377033669" stroke-dashoffset="80.44825377033669"><animate attributeName="stroke-dashoffset" from="80.44825377033669" to="0" dur="2.4134476131101006s" begin="anim12.end" fill="freeze" id="anim13" /></path><path d="M 45.8 17.8 C 46.8 17.8 47.2 18.5 47.2 19.2 C 47.2 20.0 46.8 20.7 45.8 20.7 L 23.0 20.7 C 22.1 20.7 21.6 20.0 21.6 19.2 C 21.6 18.5 22.1 17.8 23.0 17.8 Z" transform="scale(1,-1)" stroke-dasharray="54.67815460110028" stroke-dashoffset="54.67815460110028"><animate attributeName="stroke-dashoffset" from="54.67815460110028" to="0" dur="1.6403446380330085s" begin="anim13.end" fill="freeze" id="anim_end" /></path></g></svg>