<?xml version='1.0' encoding='utf-8'?>
<svg viewBox="0 -44.0 50.0 50.0" version="1.1" xmlns="http://www.w3.org/2000/svg"><rect x="-1000" y="-1000" width="2000" height="2000" stroke="white" fill="white" /><g style="fill:none;stroke:#000000;stroke-width:1"><path d="M 9.6 0.4 L 4.5 0.4 C 3.6 0.4 3.1 -0.3 3.1 -1.1 C 3.1 -1.8 3.6 -2.5 4.5 -2.5 L 45.6 -2.5 C 46.5 -2.5 47.0 -1.8 47.0 -1.1 C 47.0 -0.3 46.5 0.4 45.6 0.4 L 40.6 0.4 L 40.6 7.7 C 40.6 10.5 39.2 11.8 35.6 11.8 L 14.5 11.8 C 11.0 11.8 9.6 10.5 9.6 7.7 Z " transform="scale(1,-1)" stroke-dasharray="110.79043764357667" stroke-dashoffset="110.79043764357667"><animate attributeName="stroke-dashoffset" from="110.79043764357667" to="0" dur="3.3237131293072997s" begin="0s; 15s; 30s; 45s; 60s" fill="freeze" id="anim0" /></path><path d="M 13.0 0.4 L 13.0 7.2 C 13.0 8.5 13.5 9.0 15.1 9.0 L 18.8 9.0 L 18.8 0.4 Z " transform="scale(1,-1)" stroke-dasharray="28.14102977599575" stroke-dashoffset="28.14102977599575"><animate attributeName="stroke-dashoffset" from="28.14102977599575" to="0" dur="0.8442308932798724s" begin="anim0.end" fill="freeze" id="anim1" /></path><path d="M 37.1 0.4 L 31.1 0.4 L 31.1 9.0 L 35.1 9.0 C 36.6 9.0 37.1 8.5 37.1 7.2 Z " transform="scale(1,-1)" stroke-dasharray="28.550460044533665" stroke-dashoffset="28.550460044533665"><animate attributeName="stroke-dashoffset" from="28.550460044533665" to="0" dur="0.85651380133601s" begin="anim1.end" fill="freeze" id="anim2" /></path><path d="M 27.8 9.0 L 27.8 0.4 L 22.1 0.4 L 22.1 9.0 Z " transform="scale(1,-1)" stroke-dasharray="28.599999999999998" stroke-dashoffset="28.599999999999998"><animate attributeName="stroke-dashoffset" from="28.599999999999998" to="0" dur="0.8579999999999999s" begin="anim2.end" fill="freeze" id="anim3" /></path><path d="M 30.6 37.1 L 18.9 37.1 L 18.9 40.4 C 18.9 41.4 18.1 41.9 17.2 41.9 C 16.4 41.9 15.6 41.4 15.6 40.4 L 15.6 37.1 L 4.4 37.1 C 3.5 37.1 3.0 36.4 3.0 35.6 C 3.0 35.0 3.5 34.2 4.4 34.2 L 15.6 34.2 L 15.6 31.4 C 15.6 30.4 16.4 29.9 17.2 29.9 C 18.1 29.9 18.9 30.4 18.9 31.4 L 18.9 34.2 L 30.6 34.2 L 30.6 31.5 C 30.6 30.5 31.5 30.0 32.3 30.0 C 33.1 30.0 34.0 30.5 34.0 31.5 L 34.0 34.2 L 45.6 34.2 C 46.5 34.2 47.0 35.0 47.0 35.6 C 47.0 36.4 46.5 37.1 45.6 37.1 L 34.0 37.1 L 34.0 40.4 C 34.0 41.4 33.1 41.9 32.3 41.9 C 31.5 41.9 30.6 41.4 30.6 40.4 Z " transform="scale(1,-1)" stroke-dasharray="122.32736556942595" stroke-dashoffset="122.32736556942595"><animate attributeName="stroke-dashoffset" from="122.32736556942595" to="0" dur="3.6698209670827784s" begin="anim3.end" fill="freeze" id="anim4" /></path><path d="M 15.9 23.1 C 12.2 19.0 7.6 15.6 3.1 13.2 C 2.3 12.8 2.0 12.2 2.0 11.7 C 2.0 10.9 2.7 10.2 3.6 10.2 C 3.9 10.2 4.2 10.2 4.6 10.4 C 10.1 13.3 15.8 17.9 20.1 23.1 L 29.2 23.1 C 33.6 17.9 39.7 13.8 45.3 11.5 C 45.7 11.4 46.0 11.3 46.3 11.3 C 47.4 11.3 48.1 12.2 48.1 13.1 C 48.1 13.8 47.7 14.6 46.6 14.9 C 41.9 16.6 36.8 19.6 33.1 23.1 L 44.9 23.1 C 45.9 23.1 46.3 23.8 46.3 24.6 C 46.3 25.3 45.9 26.1 44.9 26.1 L 22.5 26.1 C 23.3 27.2 24.1 28.5 24.7 29.7 C 24.9 30.1 25.0 30.4 25.0 30.7 C 25.0 31.6 24.2 32.1 23.4 32.1 C 22.8 32.1 22.2 31.9 21.8 31.2 C 20.9 29.5 19.7 27.7 18.4 26.1 L 5.2 26.1 C 4.2 26.1 3.7 25.3 3.7 24.6 C 3.7 23.8 4.2 23.1 5.2 23.1 Z " transform="scale(1,-1)" stroke-dasharray="176.46767750625148" stroke-dashoffset="176.46767750625148"><animate attributeName="stroke-dashoffset" from="176.46767750625148" to="0" dur="5.294030325187544s" begin="anim4.end" fill="freeze" id="anim5" /></path><path d="M 24.0 19.9 C 23.6 20.2 23.1 20.2 22.8 20.2 C 21.8 20.2 21.2 19.6 21.2 18.8 C 21.2 18.4 21.4 17.9 22.0 17.4 C 23.1 16.7 24.6 15.5 25.8 14.2 C 26.2 13.8 26.8 13.6 27.2 13.6 C 28.1 13.6 28.9 14.4 28.9 15.3 C 28.9 15.8 28.7 16.3 28.1 16.8 C 26.8 18.0 25.4 19.1 24.0 19.9 Z" transform="scale(1,-1)" stroke-dasharray="21.417953864174617" stroke-dashoffset="21.417953864174617"><animate attributeName="stroke-dashoffset" from="21.417953864174617" to="0" dur="0.6425386159252385s" begin="anim5.end" fill="freeze" id="anim_end" /></path></g></svg>