<?xml version='1.0' encoding='utf-8'?>
<svg viewBox="0 -44.0 50.0 50.0" version="1.1" xmlns="http://www.w3.org/2000/svg"><rect x="-1000" y="-1000" width="2000" height="2000" stroke="white" fill="white" /><g style="fill:none;stroke:#000000;stroke-width:1"><path d="M 13.0 8.7 C 16.2 8.7 17.6 10.0 17.6 13.1 L 17.6 35.0 C 17.6 38.1 16.2 39.5 13.0 39.5 L 9.0 39.5 C 5.8 39.5 4.4 38.1 4.4 35.0 L 4.4 13.1 C 4.4 9.8 5.9 8.7 9.0 8.7 Z " transform="scale(1,-1)" stroke-dasharray="81.46761642859181" stroke-dashoffset="81.46761642859181"><animate attributeName="stroke-dashoffset" from="81.46761642859181" to="0" dur="2.444028492857754s" begin="0s; 15s; 30s; 45s; 60s" fill="freeze" id="anim0" /></path><path d="M 9.5 11.6 C 8.1 11.6 7.7 12.0 7.7 13.5 L 7.7 18.2 L 14.3 18.2 L 14.3 13.5 C 14.2 12.1 14.0 11.6 12.5 11.6 Z " transform="scale(1,-1)" stroke-dasharray="25.191639887094816" stroke-dashoffset="25.191639887094816"><animate attributeName="stroke-dashoffset" from="25.191639887094816" to="0" dur="0.7557491966128445s" begin="anim0.end" fill="freeze" id="anim1" /></path><path d="M 7.7 27.5 L 14.3 27.5 L 14.3 21.2 L 7.7 21.2 Z " transform="scale(1,-1)" stroke-dasharray="25.800000000000004" stroke-dashoffset="25.800000000000004"><animate attributeName="stroke-dashoffset" from="25.800000000000004" to="0" dur="0.7740000000000001s" begin="anim1.end" fill="freeze" id="anim2" /></path><path d="M 14.3 30.4 L 7.7 30.4 L 7.7 34.6 C 7.7 36.1 8.1 36.5 9.5 36.5 L 12.5 36.5 C 13.9 36.5 14.3 36.1 14.3 34.6 Z " transform="scale(1,-1)" stroke-dasharray="24.22271006883518" stroke-dashoffset="24.22271006883518"><animate attributeName="stroke-dashoffset" from="24.22271006883518" to="0" dur="0.7266813020650554s" begin="anim2.end" fill="freeze" id="anim3" /></path><path d="M 26.2 27.6 L 26.2 34.0 C 26.2 35.5 26.8 36.1 28.5 36.1 L 45.2 36.1 C 46.3 36.1 46.8 36.9 46.8 37.7 C 46.8 38.5 46.3 39.3 45.2 39.3 L 27.9 39.3 C 24.2 39.3 22.7 37.8 22.7 34.6 L 22.7 25.5 C 22.7 12.4 21.1 5.2 17.4 -0.5 C 17.2 -0.8 17.1 -1.2 17.1 -1.5 C 17.1 -2.4 17.8 -3.0 18.6 -3.0 C 19.1 -3.0 19.8 -2.7 20.2 -2.0 C 24.1 3.8 26.2 11.7 26.2 24.6 L 28.8 24.6 C 28.9 24.0 29.2 22.4 29.4 21.4 C 29.8 19.3 30.4 17.2 31.1 15.2 C 32.0 12.9 33.1 10.5 34.4 8.3 C 31.6 4.8 28.0 1.9 24.0 -0.2 C 23.2 -0.6 22.9 -1.2 22.9 -1.8 C 22.9 -2.6 23.6 -3.4 24.5 -3.4 C 24.8 -3.4 25.1 -3.2 25.4 -3.1 C 29.5 -1.1 33.2 1.9 36.4 5.5 C 38.8 2.2 41.7 -0.4 45.0 -2.6 C 45.4 -2.8 45.9 -3.0 46.2 -3.0 C 47.2 -3.0 48.0 -2.1 48.0 -1.1 C 48.0 -0.5 47.7 0.2 46.9 0.7 C 43.6 2.8 40.8 5.2 38.6 8.2 C 41.5 12.4 43.7 17.2 44.7 22.5 C 44.8 22.9 44.9 23.4 44.9 23.8 C 44.9 26.1 43.4 27.6 40.1 27.6 Z " transform="scale(1,-1)" stroke-dasharray="246.69212082941226" stroke-dashoffset="246.69212082941226"><animate attributeName="stroke-dashoffset" from="246.69212082941226" to="0" dur="7.400763624882368s" begin="anim3.end" fill="freeze" id="anim4" /></path><path d="M 39.4 24.6 C 40.8 24.6 41.3 24.1 41.1 22.7 C 40.4 18.5 38.8 14.7 36.6 11.2 C 34.1 15.4 32.8 19.9 31.9 24.6 Z " transform="scale(1,-1)" stroke-dasharray="37.30529629897458" stroke-dashoffset="37.30529629897458"><animate attributeName="stroke-dashoffset" from="37.30529629897458" to="0" dur="1.1191588889692374s" begin="anim4.end" fill="freeze" id="anim5" /></path><path d="M 6.2 5.9 C 5.2 3.7 4.0 1.8 2.3 -0.4 C 2.0 -0.7 1.9 -1.1 1.9 -1.5 C 1.9 -2.4 2.7 -3.2 3.6 -3.2 C 4.1 -3.2 4.7 -2.9 5.2 -2.2 C 6.7 -0.3 8.4 2.4 9.3 4.2 C 9.5 4.5 9.6 4.9 9.6 5.2 C 9.6 6.2 8.7 6.9 7.8 6.9 C 7.2 6.9 6.6 6.6 6.2 5.9 Z " transform="scale(1,-1)" stroke-dasharray="26.63606267580938" stroke-dashoffset="26.63606267580938"><animate attributeName="stroke-dashoffset" from="26.63606267580938" to="0" dur="0.7990818802742814s" begin="anim5.end" fill="freeze" id="anim6" /></path><path d="M 15.4 6.8 C 15.0 7.4 14.4 7.6 13.9 7.6 C 13.1 7.6 12.4 7.0 12.4 6.2 C 12.4 5.9 12.5 5.6 12.7 5.2 C 13.4 4.1 14.0 3.1 14.6 1.6 C 14.9 0.8 15.5 0.4 16.1 0.4 C 17.0 0.4 17.9 1.1 17.9 2.1 C 17.9 2.5 17.8 2.8 17.6 3.2 C 16.9 4.5 16.4 5.4 15.4 6.8 Z" transform="scale(1,-1)" stroke-dasharray="19.349131029501873" stroke-dashoffset="19.349131029501873"><animate attributeName="stroke-dashoffset" from="19.349131029501873" to="0" dur="0.5804739308850562s" begin="anim6.end" fill="freeze" id="anim_end" /></path></g></svg>