<?xml version='1.0' encoding='utf-8'?>
<svg viewBox="0 -44.0 50.0 50.0" version="1.1" xmlns="http://www.w3.org/2000/svg"><rect x="-1000" y="-1000" width="2000" height="2000" stroke="white" fill="white" /><g style="fill:none;stroke:#000000;stroke-width:1"><path d="M 13.2 -2.1 C 16.6 -2.1 17.8 -0.8 17.8 2.1 L 17.8 8.2 C 17.8 11.1 16.6 12.4 13.2 12.4 L 8.7 12.4 C 5.3 12.4 4.0 11.1 4.0 8.2 L 4.0 2.1 C 4.0 -1.2 5.7 -2.1 8.7 -2.1 Z " transform="scale(1,-1)" stroke-dasharray="50.34150852678144" stroke-dashoffset="50.34150852678144"><animate attributeName="stroke-dashoffset" from="50.34150852678144" to="0" dur="1.5102452558034432s" begin="0s; 15s; 30s; 45s; 60s" fill="freeze" id="anim0" /></path><path d="M 9.2 0.9 C 7.9 0.9 7.4 1.4 7.4 2.6 L 7.4 7.8 C 7.4 9.0 7.9 9.5 9.2 9.5 L 12.7 9.5 C 14.0 9.5 14.4 9.0 14.4 7.8 L 14.4 2.6 C 14.4 1.3 13.9 1.0 12.7 0.9 Z " transform="scale(1,-1)" stroke-dasharray="28.764514797921162" stroke-dashoffset="28.764514797921162"><animate attributeName="stroke-dashoffset" from="28.764514797921162" to="0" dur="0.8629354439376349s" begin="anim0.end" fill="freeze" id="anim1" /></path><path d="M 35.1 24.2 L 35.1 30.8 L 46.0 30.8 C 47.0 30.8 47.4 31.6 47.4 32.4 C 47.4 33.1 47.0 33.9 46.0 33.9 L 35.1 33.9 L 35.1 40.3 C 35.1 41.4 34.1 41.9 33.2 41.9 C 32.4 41.9 31.5 41.4 31.5 40.3 L 31.5 33.9 L 22.4 33.9 C 21.5 33.9 21.0 33.1 21.0 32.4 C 21.0 31.6 21.5 30.8 22.4 30.8 L 31.5 30.8 L 31.5 24.2 L 23.8 24.2 C 22.9 24.2 22.4 23.5 22.4 22.7 C 22.4 21.9 22.9 21.1 23.8 21.1 L 43.7 21.1 C 44.7 21.1 45.2 21.9 45.2 22.7 C 45.2 23.5 44.7 24.2 43.7 24.2 Z " transform="scale(1,-1)" stroke-dasharray="126.48020213061335" stroke-dashoffset="126.48020213061335"><animate attributeName="stroke-dashoffset" from="126.48020213061335" to="0" dur="3.7944060639184003s" begin="anim1.end" fill="freeze" id="anim2" /></path><path d="M 44.0 12.0 C 43.5 12.5 43.0 12.7 42.5 12.7 C 41.7 12.7 40.9 12.0 40.9 11.2 C 40.9 10.8 41.0 10.5 41.2 10.2 C 42.6 8.4 43.8 6.6 44.6 4.5 C 44.9 3.8 45.6 3.4 46.2 3.4 C 47.1 3.4 48.0 4.0 48.0 5.2 C 48.0 5.5 47.9 5.8 47.8 6.2 C 47.0 7.9 45.2 10.5 44.0 12.0 Z " transform="scale(1,-1)" stroke-dasharray="24.709314373808898" stroke-dashoffset="24.709314373808898"><animate attributeName="stroke-dashoffset" from="24.709314373808898" to="0" dur="0.7412794312142669s" begin="anim2.end" fill="freeze" id="anim3" /></path><path d="M 33.4 19.3 C 33.0 19.5 32.7 19.6 32.4 19.6 C 31.5 19.6 30.7 18.8 30.7 18.0 C 30.7 17.6 30.9 17.1 31.4 16.8 C 32.8 15.8 34.1 14.7 35.2 13.5 C 35.6 13.1 36.1 12.9 36.6 12.9 C 37.5 12.9 38.2 13.7 38.2 14.6 C 38.2 15.1 38.0 15.7 37.5 16.2 C 36.3 17.2 34.8 18.4 33.4 19.3 Z " transform="scale(1,-1)" stroke-dasharray="21.20074296149584" stroke-dashoffset="21.20074296149584"><animate attributeName="stroke-dashoffset" from="21.20074296149584" to="0" dur="0.6360222888448752s" begin="anim3.end" fill="freeze" id="anim4" /></path><path d="M 22.1 10.3 C 21.7 8.1 20.8 5.6 19.9 3.8 C 19.7 3.5 19.6 3.2 19.6 2.9 C 19.6 2.0 20.4 1.3 21.3 1.3 C 22.0 1.3 22.7 1.7 23.1 2.6 C 24.1 4.5 24.9 7.1 25.3 9.7 C 25.5 11.0 24.6 11.8 23.7 11.8 C 23.0 11.8 22.3 11.3 22.1 10.3 Z " transform="scale(1,-1)" stroke-dasharray="25.65309801753199" stroke-dashoffset="25.65309801753199"><animate attributeName="stroke-dashoffset" from="25.65309801753199" to="0" dur="0.7695929405259596s" begin="anim4.end" fill="freeze" id="anim5" /></path><path d="M 17.4 29.8 C 18.4 29.8 18.9 30.6 18.9 31.4 C 18.9 32.1 18.4 32.9 17.4 32.9 L 3.0 32.9 C 2.0 32.9 1.6 32.1 1.6 31.4 C 1.6 30.6 2.0 29.8 3.0 29.8 Z " transform="scale(1,-1)" stroke-dasharray="38.33283459061242" stroke-dashoffset="38.33283459061242"><animate attributeName="stroke-dashoffset" from="38.33283459061242" to="0" dur="1.1499850377183727s" begin="anim5.end" fill="freeze" id="anim6" /></path><path d="M 15.8 36.5 C 16.8 36.5 17.2 37.2 17.2 38.0 C 17.2 38.8 16.8 39.6 15.8 39.6 L 5.8 39.6 C 4.8 39.6 4.4 38.8 4.4 38.0 C 4.4 37.2 4.8 36.5 5.8 36.5 Z " transform="scale(1,-1)" stroke-dasharray="29.451798498227735" stroke-dashoffset="29.451798498227735"><animate attributeName="stroke-dashoffset" from="29.451798498227735" to="0" dur="0.883553954946832s" begin="anim6.end" fill="freeze" id="anim7" /></path><path d="M 15.8 22.9 C 16.8 22.9 17.2 23.7 17.2 24.4 C 17.2 25.2 16.8 26.0 15.8 26.0 L 5.8 26.0 C 4.8 26.0 4.4 25.2 4.4 24.4 C 4.4 23.7 4.8 22.9 5.8 22.9 Z " transform="scale(1,-1)" stroke-dasharray="29.411344999314462" stroke-dashoffset="29.411344999314462"><animate attributeName="stroke-dashoffset" from="29.411344999314462" to="0" dur="0.8823403499794338s" begin="anim7.end" fill="freeze" id="anim8" /></path><path d="M 15.8 16.2 C 16.8 16.2 17.2 17.0 17.2 17.8 C 17.2 18.6 16.8 19.3 15.8 19.3 L 5.8 19.3 C 4.8 19.3 4.4 18.6 4.4 17.8 C 4.4 17.0 4.8 16.2 5.8 16.2 Z " transform="scale(1,-1)" stroke-dasharray="29.45179849822774" stroke-dashoffset="29.45179849822774"><animate attributeName="stroke-dashoffset" from="29.45179849822774" to="0" dur="0.8835539549468321s" begin="anim8.end" fill="freeze" id="anim9" /></path><path d="M 31.0 12.3 C 31.0 13.5 30.1 14.0 29.2 14.0 C 28.3 14.0 27.4 13.5 27.4 12.3 L 27.4 1.5 C 27.4 -1.7 29.0 -2.5 33.6 -2.5 C 39.2 -2.5 41.6 -1.2 42.1 3.6 C 42.2 5.0 41.2 5.7 40.3 5.7 C 39.5 5.7 38.7 5.2 38.6 4.0 C 38.2 1.4 37.4 0.7 33.6 0.7 C 31.6 0.7 31.0 1.1 31.0 2.7 Z" transform="scale(1,-1)" stroke-dasharray="63.08230066777627" stroke-dashoffset="63.08230066777627"><animate attributeName="stroke-dashoffset" from="63.08230066777627" to="0" dur="1.892469020033288s" begin="anim9.end" fill="freeze" id="anim_end" /></path></g></svg>