<?xml version='1.0' encoding='utf-8'?>
<svg viewBox="0 -44.0 50.0 50.0" version="1.1" xmlns="http://www.w3.org/2000/svg"><rect x="-1000" y="-1000" width="2000" height="2000" stroke="white" fill="white" /><g style="fill:none;stroke:#000000;stroke-width:1"><path d="M 17.2 0.4 L 13.9 0.4 C 12.9 0.4 12.5 -0.3 12.5 -1.1 C 12.5 -1.8 12.9 -2.5 13.9 -2.5 L 47.0 -2.5 C 47.9 -2.5 48.4 -1.8 48.4 -1.1 C 48.4 -0.3 47.9 0.4 47.0 0.4 L 44.2 0.4 L 44.2 7.2 C 44.2 10.2 42.7 11.5 39.1 11.5 L 22.2 11.5 C 18.8 11.5 17.2 10.2 17.2 7.2 Z " transform="scale(1,-1)" stroke-dasharray="94.10320091845813" stroke-dashoffset="94.10320091845813"><animate attributeName="stroke-dashoffset" from="94.10320091845813" to="0" dur="2.823096027553744s" begin="0s; 15s; 30s; 45s; 60s" fill="freeze" id="anim0" /></path><path d="M 20.6 0.4 L 20.6 6.8 C 20.6 8.2 21.1 8.7 22.8 8.7 L 25.2 8.7 L 25.2 0.4 Z " transform="scale(1,-1)" stroke-dasharray="25.120051855332136" stroke-dashoffset="25.120051855332136"><animate attributeName="stroke-dashoffset" from="25.120051855332136" to="0" dur="0.753601555659964s" begin="anim0.end" fill="freeze" id="anim1" /></path><path d="M 40.9 0.4 L 36.1 0.4 L 36.1 8.7 L 38.7 8.7 C 40.2 8.7 40.9 8.4 40.9 6.8 Z " transform="scale(1,-1)" stroke-dasharray="25.52909495232108" stroke-dashoffset="25.52909495232108"><animate attributeName="stroke-dashoffset" from="25.52909495232108" to="0" dur="0.7658728485696324s" begin="anim1.end" fill="freeze" id="anim2" /></path><path d="M 33.0 0.4 L 28.3 0.4 L 28.3 8.7 L 33.0 8.7 Z " transform="scale(1,-1)" stroke-dasharray="25.999999999999996" stroke-dashoffset="25.999999999999996"><animate attributeName="stroke-dashoffset" from="25.999999999999996" to="0" dur="0.7799999999999999s" begin="anim2.end" fill="freeze" id="anim3" /></path><path d="M 30.1 21.3 C 31.2 20.6 32.4 19.8 33.2 18.9 C 33.7 18.5 34.1 18.3 34.6 18.3 C 35.4 18.3 36.0 18.9 36.0 19.7 C 36.0 20.2 35.8 20.7 35.2 21.1 C 34.2 21.9 33.0 22.7 31.7 23.4 C 31.9 23.8 32.2 24.2 32.4 24.6 C 32.6 24.9 32.6 25.2 32.6 25.5 C 32.6 26.3 32.0 26.9 31.2 26.9 C 30.7 26.9 30.1 26.6 29.8 25.9 C 28.7 24.0 27.2 22.2 25.6 20.7 C 25.1 20.3 24.9 19.9 24.9 19.4 C 24.9 18.7 25.5 18.1 26.2 18.1 C 26.7 18.1 27.2 18.2 27.7 18.8 C 28.5 19.5 29.3 20.4 30.1 21.3 Z " transform="scale(1,-1)" stroke-dasharray="35.4047587585356" stroke-dashoffset="35.4047587585356"><animate attributeName="stroke-dashoffset" from="35.4047587585356" to="0" dur="1.062142762756068s" begin="anim3.end" fill="freeze" id="anim4" /></path><path d="M 36.7 14.7 C 40.7 14.7 42.0 16.0 42.0 18.8 L 42.0 26.1 C 42.0 28.8 40.7 30.2 36.7 30.2 L 24.9 30.2 C 20.9 30.2 19.6 28.8 19.6 26.1 L 19.6 18.8 C 19.7 15.2 21.8 14.7 24.9 14.7 Z " transform="scale(1,-1)" stroke-dasharray="69.24453045445212" stroke-dashoffset="69.24453045445212"><animate attributeName="stroke-dashoffset" from="69.24453045445212" to="0" dur="2.0773359136335636s" begin="anim4.end" fill="freeze" id="anim5" /></path><path d="M 25.3 17.4 C 23.5 17.4 22.9 17.9 22.9 19.2 L 22.9 25.6 C 22.9 27.0 23.5 27.5 25.3 27.5 L 36.2 27.5 C 38.1 27.5 38.7 27.0 38.7 25.6 L 38.7 19.2 C 38.7 17.6 37.7 17.4 36.2 17.4 Z " transform="scale(1,-1)" stroke-dasharray="48.93618498773567" stroke-dashoffset="48.93618498773567"><animate attributeName="stroke-dashoffset" from="48.93618498773567" to="0" dur="1.4680855496320702s" begin="anim5.end" fill="freeze" id="anim6" /></path><path d="M 30.1 37.8 L 19.5 37.8 L 19.5 40.6 C 19.5 41.6 18.7 42.0 17.9 42.0 C 17.0 42.0 16.2 41.6 16.2 40.6 L 16.2 37.8 L 4.0 37.8 C 3.2 37.8 2.7 37.1 2.7 36.4 C 2.7 35.6 3.2 35.0 4.0 35.0 L 16.2 35.0 L 16.2 32.7 C 16.2 31.7 17.0 31.2 17.9 31.2 C 18.7 31.2 19.5 31.7 19.5 32.7 L 19.5 35.0 L 30.1 35.0 L 30.1 32.8 C 30.1 31.8 30.9 31.3 31.8 31.3 C 32.6 31.3 33.4 31.8 33.4 32.8 L 33.4 35.0 L 45.9 35.0 C 46.8 35.0 47.2 35.6 47.2 36.4 C 47.2 37.1 46.8 37.8 45.9 37.8 L 33.4 37.8 L 33.4 40.6 C 33.4 41.6 32.6 42.0 31.8 42.0 C 30.9 42.0 30.1 41.6 30.1 40.6 Z " transform="scale(1,-1)" stroke-dasharray="119.18926801196152" stroke-dashoffset="119.18926801196152"><animate attributeName="stroke-dashoffset" from="119.18926801196152" to="0" dur="3.5756780403588455s" begin="anim6.end" fill="freeze" id="anim7" /></path><path d="M 9.3 31.0 C 8.9 31.2 8.5 31.4 8.1 31.4 C 7.1 31.4 6.4 30.7 6.4 29.9 C 6.4 29.4 6.7 28.9 7.3 28.4 C 8.4 27.6 10.0 26.2 11.3 24.8 C 11.8 24.3 12.3 24.1 12.8 24.1 C 13.7 24.1 14.5 24.9 14.5 25.9 C 14.5 26.3 14.3 26.8 13.9 27.2 C 12.5 28.7 10.8 30.1 9.3 31.0 Z " transform="scale(1,-1)" stroke-dasharray="22.888368348123553" stroke-dashoffset="22.888368348123553"><animate attributeName="stroke-dashoffset" from="22.888368348123553" to="0" dur="0.6866510504437066s" begin="anim7.end" fill="freeze" id="anim8" /></path><path d="M 10.5 10.5 C 8.9 6.6 7.0 3.1 4.5 -0.2 C 4.2 -0.7 4.0 -1.2 4.0 -1.6 C 4.0 -2.6 4.8 -3.2 5.8 -3.2 C 6.4 -3.2 7.0 -3.0 7.5 -2.4 C 10.1 1.4 12.1 5.1 13.8 9.3 C 13.9 9.7 13.9 9.9 13.9 10.2 C 13.9 11.2 13.1 11.8 12.2 11.8 C 11.5 11.8 10.8 11.4 10.5 10.5 Z " transform="scale(1,-1)" stroke-dasharray="37.5845053214068" stroke-dashoffset="37.5845053214068"><animate attributeName="stroke-dashoffset" from="37.5845053214068" to="0" dur="1.127535159642204s" begin="anim8.end" fill="freeze" id="anim9" /></path><path d="M 5.4 22.2 C 5.0 22.5 4.6 22.6 4.2 22.6 C 3.3 22.6 2.6 21.9 2.6 21.1 C 2.6 20.6 2.9 20.0 3.6 19.6 C 4.8 18.7 6.5 17.4 7.8 16.1 C 8.2 15.7 8.7 15.5 9.2 15.5 C 10.1 15.5 10.9 16.2 10.9 17.2 C 10.9 17.7 10.7 18.2 10.2 18.7 C 8.8 19.9 7.0 21.3 5.4 22.2 Z" transform="scale(1,-1)" stroke-dasharray="22.970012956083135" stroke-dashoffset="22.970012956083135"><animate attributeName="stroke-dashoffset" from="22.970012956083135" to="0" dur="0.689100388682494s" begin="anim9.end" fill="freeze" id="anim_end" /></path></g></svg>