<?xml version='1.0' encoding='utf-8'?>
<svg viewBox="0 -44.0 50.0 50.0" version="1.1" xmlns="http://www.w3.org/2000/svg"><rect x="-1000" y="-1000" width="2000" height="2000" stroke="white" fill="white" /><g style="fill:none;stroke:#000000;stroke-width:1"><path d="M 15.2 35.4 L 15.2 39.9 C 15.2 40.9 14.4 41.5 13.5 41.5 C 12.7 41.5 11.8 40.9 11.8 39.9 L 11.8 35.4 L 7.2 35.4 C 3.7 35.4 2.4 34.1 2.4 31.4 L 2.4 27.7 C 2.4 26.7 3.3 26.2 4.2 26.2 C 5.1 26.2 5.9 26.7 5.9 27.7 L 5.9 30.9 C 5.9 32.0 6.3 32.4 7.8 32.4 L 20.0 32.4 C 21.5 32.4 21.9 32.0 21.9 30.9 L 21.9 28.2 C 21.9 27.2 22.8 26.7 23.6 26.7 C 24.5 26.7 25.4 27.2 25.4 28.2 L 25.4 31.4 C 25.4 34.1 24.1 35.4 20.5 35.4 Z " transform="scale(1,-1)" stroke-dasharray="79.66906605517494" stroke-dashoffset="79.66906605517494"><animate attributeName="stroke-dashoffset" from="79.66906605517494" to="0" dur="2.390071981655248s" begin="0s; 15s; 30s; 45s; 60s" fill="freeze" id="anim0" /></path><path d="M 30.9 22.8 L 39.7 22.8 C 43.2 22.8 44.7 24.1 44.7 26.8 L 44.7 33.1 C 44.7 35.8 43.4 37.1 39.7 37.1 L 36.9 37.1 C 37.2 38.1 37.5 39.0 37.7 40.0 C 38.0 41.2 37.0 41.9 36.1 41.9 C 35.3 41.9 34.6 41.5 34.4 40.6 C 34.1 39.4 33.9 38.3 33.5 37.1 L 32.5 37.1 C 29.0 37.1 27.6 35.7 27.6 33.0 L 27.6 14.7 C 27.6 12.2 28.7 10.9 31.9 10.9 L 42.8 10.9 C 44.3 10.9 44.7 10.5 44.7 9.3 C 44.6 7.0 44.2 3.8 43.6 1.9 C 43.1 0.3 42.2 -0.3 40.9 -0.3 C 40.2 -0.3 39.5 -0.2 38.6 0.0 C 37.5 0.2 36.8 -0.7 36.8 -1.6 C 36.8 -2.3 37.2 -3.1 38.2 -3.2 C 39.2 -3.5 40.1 -3.6 41.1 -3.6 C 44.0 -3.6 45.7 -2.2 46.7 1.0 C 47.4 3.3 47.9 6.6 48.0 9.5 C 48.1 12.2 47.0 13.8 43.6 13.8 L 32.4 13.8 C 31.2 13.8 30.9 14.2 30.9 15.1 L 30.9 16.9 L 47.1 16.9 C 48.1 16.9 48.5 17.7 48.5 18.4 C 48.5 19.2 48.1 19.9 47.1 19.9 L 30.9 19.9 Z " transform="scale(1,-1)" stroke-dasharray="192.28033223097245" stroke-dashoffset="192.28033223097245"><animate attributeName="stroke-dashoffset" from="192.28033223097245" to="0" dur="5.768409966929173s" begin="anim0.end" fill="freeze" id="anim1" /></path><path d="M 30.9 25.6 L 30.9 28.7 L 41.5 28.7 L 41.5 27.2 C 41.4 25.7 40.4 25.7 39.1 25.6 Z " transform="scale(1,-1)" stroke-dasharray="26.68896272490543" stroke-dashoffset="26.68896272490543"><animate attributeName="stroke-dashoffset" from="26.68896272490543" to="0" dur="0.8006688817471629s" begin="anim1.end" fill="freeze" id="anim2" /></path><path d="M 41.5 31.4 L 30.9 31.4 L 30.9 32.7 C 30.9 34.0 31.4 34.4 33.1 34.4 L 39.1 34.4 C 40.9 34.4 41.5 34.0 41.5 32.8 Z " transform="scale(1,-1)" stroke-dasharray="25.922645192439372" stroke-dashoffset="25.922645192439372"><animate attributeName="stroke-dashoffset" from="25.922645192439372" to="0" dur="0.7776793557731811s" begin="anim2.end" fill="freeze" id="anim3" /></path><path d="M 9.9 27.9 C 8.9 27.9 8.4 27.1 8.4 26.4 C 8.4 25.6 8.9 24.9 9.9 24.9 L 14.4 24.9 C 15.7 24.9 16.0 24.5 16.0 23.2 C 16.4 14.2 18.4 5.7 21.4 -0.8 C 21.8 -1.7 22.5 -2.1 23.2 -2.1 C 24.1 -2.1 24.9 -1.4 24.9 -0.4 C 24.9 0.1 24.8 0.5 24.6 0.9 C 21.7 6.9 19.7 15.0 19.2 23.8 C 19.0 26.7 18.1 27.9 14.7 27.9 Z " transform="scale(1,-1)" stroke-dasharray="78.68799932934517" stroke-dashoffset="78.68799932934517"><animate attributeName="stroke-dashoffset" from="78.68799932934517" to="0" dur="2.360639979880355s" begin="anim3.end" fill="freeze" id="anim4" /></path><path d="M 25.9 6.3 C 26.0 4.2 25.8 2.1 25.5 0.5 C 25.2 -0.8 26.0 -1.5 26.9 -1.5 C 27.5 -1.5 28.2 -1.0 28.4 0.0 C 28.8 1.8 28.9 4.2 28.8 6.4 C 28.7 7.3 28.0 7.8 27.3 7.8 C 26.6 7.8 25.9 7.3 25.9 6.3 Z " transform="scale(1,-1)" stroke-dasharray="21.967102279862086" stroke-dashoffset="21.967102279862086"><animate attributeName="stroke-dashoffset" from="21.967102279862086" to="0" dur="0.6590130683958626s" begin="anim4.end" fill="freeze" id="anim5" /></path><path d="M 32.8 7.2 C 32.6 7.8 32.0 8.1 31.5 8.1 C 30.8 8.1 30.2 7.7 30.2 6.9 C 30.2 6.7 30.2 6.6 30.3 6.4 C 30.7 5.2 31.1 3.7 31.4 1.9 C 31.5 1.1 32.1 0.6 32.8 0.6 C 33.6 0.6 34.5 1.3 34.2 2.6 C 34.0 3.9 33.3 6.0 32.8 7.2 Z " transform="scale(1,-1)" stroke-dasharray="18.58318309112533" stroke-dashoffset="18.58318309112533"><animate attributeName="stroke-dashoffset" from="18.58318309112533" to="0" dur="0.5574954927337599s" begin="anim5.end" fill="freeze" id="anim6" /></path><path d="M 40.3 9.6 C 40.0 9.9 39.7 10.0 39.3 10.0 C 38.7 10.0 38.1 9.6 38.1 9.0 C 38.1 8.7 38.1 8.4 38.4 8.1 C 39.1 7.2 39.8 6.1 40.4 5.0 C 40.7 4.4 41.2 4.2 41.6 4.2 C 42.2 4.2 42.9 4.7 42.9 5.5 C 42.9 5.8 42.8 6.1 42.6 6.5 C 42.1 7.3 41.2 8.7 40.3 9.6 Z " transform="scale(1,-1)" stroke-dasharray="15.99361861723333" stroke-dashoffset="15.99361861723333"><animate attributeName="stroke-dashoffset" from="15.99361861723333" to="0" dur="0.4798085585169999s" begin="anim6.end" fill="freeze" id="anim7" /></path><path d="M 8.3 21.1 C 7.8 12.6 5.6 5.4 2.2 -0.4 C 2.0 -0.9 1.8 -1.2 1.8 -1.6 C 1.8 -2.5 2.5 -3.1 3.3 -3.1 C 3.9 -3.1 4.5 -2.8 5.1 -2.0 C 8.8 4.2 11.1 12.0 11.7 20.7 C 11.8 22.1 10.9 22.8 10.0 22.8 C 9.2 22.8 8.3 22.2 8.3 21.1 Z " transform="scale(1,-1)" stroke-dasharray="57.985928470813285" stroke-dashoffset="57.985928470813285"><animate attributeName="stroke-dashoffset" from="57.985928470813285" to="0" dur="1.7395778541243985s" begin="anim7.end" fill="freeze" id="anim8" /></path><path d="M 36.6 8.2 C 36.3 8.8 35.8 9.0 35.4 9.0 C 34.8 9.0 34.1 8.5 34.1 7.8 C 34.1 7.6 34.2 7.3 34.4 7.1 C 35.0 5.9 35.6 4.7 36.1 3.4 C 36.4 2.7 36.9 2.4 37.4 2.4 C 38.1 2.4 38.8 2.9 38.8 3.8 C 38.8 4.0 38.8 4.2 38.7 4.5 C 38.2 5.6 37.4 7.2 36.6 8.2 Z" transform="scale(1,-1)" stroke-dasharray="17.25312981229644" stroke-dashoffset="17.25312981229644"><animate attributeName="stroke-dashoffset" from="17.25312981229644" to="0" dur="0.5175938943688931s" begin="anim8.end" fill="freeze" id="anim_end" /></path></g></svg>