<?xml version='1.0' encoding='utf-8'?>
<svg viewBox="0 -44.0 50.0 50.0" version="1.1" xmlns="http://www.w3.org/2000/svg"><rect x="-1000" y="-1000" width="2000" height="2000" stroke="white" fill="white" /><g style="fill:none;stroke:#000000;stroke-width:1"><path d="M 11.7 16.8 C 11.7 19.6 10.5 20.8 7.3 20.8 L 3.7 20.8 C 2.7 20.8 2.1 20.0 2.1 19.2 C 2.1 18.4 2.7 17.6 3.7 17.6 L 6.6 17.6 C 8.0 17.6 8.2 17.4 8.2 16.2 L 8.2 5.4 C 6.6 3.4 4.7 1.7 2.7 0.2 C 1.9 -0.4 1.6 -1.0 1.6 -1.6 C 1.6 -2.5 2.3 -3.2 3.2 -3.2 C 3.6 -3.2 4.0 -3.1 4.5 -2.7 C 6.8 -1.0 8.8 1.1 10.5 3.2 C 14.2 -1.0 20.2 -2.7 33.4 -2.7 C 38.7 -2.7 43.0 -2.6 46.9 -2.2 C 48.0 -2.1 48.5 -1.2 48.5 -0.5 C 48.5 0.5 47.9 1.5 46.6 1.3 C 42.8 0.9 38.5 0.8 33.2 0.8 C 19.5 0.8 14.8 2.4 11.7 6.2 Z " transform="scale(1,-1)" stroke-dasharray="144.38617685842723" stroke-dashoffset="144.38617685842723"><animate attributeName="stroke-dashoffset" from="144.38617685842723" to="0" dur="4.331585305752816s" begin="0s; 15s; 30s; 45s; 60s" fill="freeze" id="anim0" /></path><path d="M 37.9 12.0 L 42.7 12.0 L 42.7 7.4 C 42.7 6.5 42.2 6.2 41.7 6.2 C 41.2 6.2 40.8 6.2 40.2 6.3 C 39.2 6.4 38.6 5.7 38.6 4.9 C 38.6 4.3 39.0 3.7 39.8 3.5 C 40.4 3.4 41.2 3.4 42.0 3.4 C 44.5 3.4 45.8 4.7 45.8 7.1 L 45.8 17.9 C 45.8 20.4 44.8 21.8 41.6 21.8 L 24.5 21.8 C 23.0 21.7 21.4 21.5 20.6 20.0 C 20.9 21.6 21.0 23.2 21.1 24.8 L 39.4 24.8 C 42.5 24.8 43.7 26.0 43.7 28.1 L 43.7 30.6 C 43.7 32.6 42.5 33.9 39.4 33.9 L 22.4 33.9 C 18.9 33.9 17.7 32.7 17.7 30.2 L 17.7 27.1 C 17.7 19.6 16.4 13.6 13.7 8.6 C 13.5 8.2 13.4 7.9 13.4 7.5 C 13.4 6.7 14.0 6.1 14.8 6.1 C 15.4 6.1 16.1 6.5 16.5 7.3 C 18.2 10.4 19.5 13.9 20.2 17.9 L 20.2 4.3 C 20.2 3.5 21.1 3.0 21.8 3.0 C 22.6 3.0 23.4 3.5 23.4 4.3 L 23.4 12.0 L 27.8 12.0 L 27.8 5.5 C 27.8 4.7 28.5 4.2 29.2 4.2 C 30.0 4.2 30.7 4.7 30.7 5.5 L 30.7 12.0 L 35.0 12.0 L 35.0 5.6 C 35.0 4.8 35.7 4.4 36.4 4.4 C 37.1 4.4 37.9 4.8 37.9 5.6 Z " transform="scale(1,-1)" stroke-dasharray="234.3310208338704" stroke-dashoffset="234.3310208338704"><animate attributeName="stroke-dashoffset" from="234.3310208338704" to="0" dur="7.029930625016112s" begin="anim0.end" fill="freeze" id="anim1" /></path><path d="M 37.9 14.6 L 37.9 19.1 L 40.9 19.1 C 42.4 19.1 42.7 18.7 42.7 17.6 L 42.7 14.6 Z " transform="scale(1,-1)" stroke-dasharray="18.079196401729618" stroke-dashoffset="18.079196401729618"><animate attributeName="stroke-dashoffset" from="18.079196401729618" to="0" dur="0.5423758920518885s" begin="anim1.end" fill="freeze" id="anim2" /></path><path d="M 35.0 14.6 L 30.7 14.6 L 30.7 19.1 L 35.0 19.1 Z " transform="scale(1,-1)" stroke-dasharray="17.600000000000005" stroke-dashoffset="17.600000000000005"><animate attributeName="stroke-dashoffset" from="17.600000000000005" to="0" dur="0.5280000000000001s" begin="anim2.end" fill="freeze" id="anim3" /></path><path d="M 27.8 14.6 L 23.4 14.6 L 23.4 17.6 C 23.4 18.7 23.7 19.1 25.2 19.1 L 27.8 19.1 Z " transform="scale(1,-1)" stroke-dasharray="17.279196401729614" stroke-dashoffset="17.279196401729614"><animate attributeName="stroke-dashoffset" from="17.279196401729614" to="0" dur="0.5183758920518884s" begin="anim3.end" fill="freeze" id="anim4" /></path><path d="M 21.1 27.6 L 21.1 29.5 C 21.1 30.7 21.5 31.1 23.0 31.1 L 38.8 31.1 C 40.0 31.1 40.4 30.8 40.4 30.1 L 40.4 28.6 C 40.4 27.7 39.5 27.6 38.8 27.6 Z " transform="scale(1,-1)" stroke-dasharray="44.14549273392473" stroke-dashoffset="44.14549273392473"><animate attributeName="stroke-dashoffset" from="44.14549273392473" to="0" dur="1.324364782017742s" begin="anim4.end" fill="freeze" id="anim5" /></path><path d="M 45.2 36.8 C 46.2 36.8 46.7 37.6 46.7 38.3 C 46.7 39.1 46.2 39.8 45.2 39.8 L 16.1 39.8 C 15.2 39.8 14.7 39.1 14.7 38.3 C 14.7 37.6 15.2 36.8 16.1 36.8 Z " transform="scale(1,-1)" stroke-dasharray="67.54233161799594" stroke-dashoffset="67.54233161799594"><animate attributeName="stroke-dashoffset" from="67.54233161799594" to="0" dur="2.0262699485398783s" begin="anim5.end" fill="freeze" id="anim6" /></path><path d="M 7.3 38.7 C 6.9 39.0 6.5 39.2 6.1 39.2 C 5.2 39.2 4.4 38.4 4.4 37.5 C 4.4 37.1 4.6 36.6 5.1 36.1 C 6.3 35.1 7.7 33.6 8.8 32.2 C 9.3 31.6 9.9 31.3 10.4 31.3 C 11.4 31.3 12.2 32.1 12.2 33.1 C 12.2 33.6 12.0 34.2 11.6 34.7 C 10.5 36.1 8.9 37.5 7.3 38.7 Z" transform="scale(1,-1)" stroke-dasharray="23.317163643194196" stroke-dashoffset="23.317163643194196"><animate attributeName="stroke-dashoffset" from="23.317163643194196" to="0" dur="0.6995149092958258s" begin="anim6.end" fill="freeze" id="anim_end" /></path></g></svg>