<?xml version='1.0' encoding='utf-8'?>
<svg viewBox="0 -44.0 50.0 50.0" version="1.1" xmlns="http://www.w3.org/2000/svg"><rect x="-1000" y="-1000" width="2000" height="2000" stroke="white" fill="white" /><g style="fill:none;stroke:#000000;stroke-width:1"><path d="M 21.7 20.1 C 21.3 20.4 20.9 20.6 20.6 20.6 C 19.8 20.6 19.1 19.9 19.1 19.1 C 19.1 18.7 19.2 18.3 19.7 17.9 C 20.8 16.9 22.2 15.5 23.7 13.8 C 22.9 12.6 22.0 11.4 21.1 10.2 C 20.7 10.2 20.4 10.2 20.0 10.2 C 18.9 10.1 18.4 9.4 18.4 8.7 C 18.4 7.9 19.1 7.1 20.2 7.2 C 23.7 7.4 26.9 7.8 29.9 8.5 C 29.9 8.2 30.0 8.1 30.1 7.9 C 30.3 7.1 30.9 6.8 31.5 6.8 C 32.2 6.8 33.0 7.3 33.0 8.2 C 33.0 8.5 32.9 8.7 32.8 9.0 C 32.3 10.3 31.4 12.2 30.4 13.6 C 30.1 14.1 29.7 14.2 29.2 14.2 C 28.5 14.2 27.9 13.8 27.9 13.0 C 27.9 12.8 28.0 12.5 28.1 12.2 C 28.4 11.9 28.6 11.5 28.8 10.9 C 27.4 10.7 26.0 10.6 24.6 10.5 C 26.3 12.6 28.0 15.0 29.8 17.7 C 30.0 18.1 30.1 18.4 30.1 18.8 C 30.1 19.6 29.4 20.2 28.6 20.2 C 28.1 20.2 27.5 20.0 27.2 19.4 C 26.6 18.4 26.0 17.4 25.4 16.4 C 25.0 16.9 24.5 17.4 24.0 17.9 C 25.0 19.3 25.9 20.9 26.9 22.8 C 27.1 23.1 27.1 23.4 27.1 23.7 C 27.1 24.6 26.4 25.2 25.6 25.2 C 25.0 25.2 24.4 24.9 24.1 24.1 C 23.4 22.5 22.7 21.3 21.8 20.0 Z " transform="scale(1,-1)" stroke-dasharray="87.35725662224087" stroke-dashoffset="87.35725662224087"><animate attributeName="stroke-dashoffset" from="87.35725662224087" to="0" dur="2.620717698667226s" begin="0s; 15s; 30s; 45s; 60s" fill="freeze" id="anim0" /></path><path d="M 34.8 10.8 C 33.8 10.7 33.3 10.0 33.3 9.3 C 33.3 8.6 33.9 7.7 35.0 7.8 C 38.4 8.0 41.3 8.5 44.0 9.0 C 44.1 8.7 44.2 8.4 44.3 8.1 C 44.6 7.3 45.2 7.0 45.8 7.0 C 46.5 7.0 47.2 7.5 47.2 8.5 C 47.2 8.7 47.2 8.9 47.2 9.2 C 46.7 10.5 45.8 12.5 44.9 13.8 C 44.5 14.4 44.0 14.6 43.5 14.6 C 42.8 14.6 42.2 14.1 42.2 13.4 C 42.2 13.1 42.2 12.9 42.4 12.6 C 42.6 12.2 42.8 11.9 43.0 11.4 C 41.6 11.2 40.2 11.1 38.8 11.0 C 40.5 13.1 42.2 15.4 43.7 17.9 C 44.0 18.3 44.1 18.7 44.1 19.0 C 44.1 19.9 43.4 20.5 42.6 20.5 C 42.1 20.5 41.5 20.2 41.1 19.5 C 40.5 18.4 39.9 17.3 39.2 16.3 C 38.7 16.9 38.2 17.4 37.6 17.9 C 38.7 19.4 39.7 21.1 40.6 22.9 C 40.7 23.2 40.8 23.5 40.8 23.8 C 40.8 24.7 40.0 25.3 39.2 25.3 C 38.6 25.3 38.0 25.0 37.6 24.2 C 37.1 22.9 36.3 21.4 35.4 20.0 C 35.3 20.1 35.2 20.2 35.1 20.2 C 34.7 20.6 34.4 20.7 34.0 20.7 C 33.2 20.7 32.6 20.1 32.6 19.4 C 32.6 18.9 32.8 18.4 33.2 18.1 C 34.2 17.2 35.6 15.7 37.5 13.7 C 36.8 12.7 36.1 11.7 35.4 10.8 Z " transform="scale(1,-1)" stroke-dasharray="86.59261964182612" stroke-dashoffset="86.59261964182612"><animate attributeName="stroke-dashoffset" from="86.59261964182612" to="0" dur="2.5977785892547836s" begin="anim0.end" fill="freeze" id="anim1" /></path><path d="M 39.0 26.1 C 42.7 26.1 43.9 27.6 43.9 30.1 L 43.9 36.3 C 43.9 38.9 42.7 40.3 39.0 40.3 L 26.1 40.3 C 22.4 40.3 21.2 38.9 21.2 36.3 L 21.2 30.1 C 21.2 26.9 23.2 26.2 26.1 26.1 Z " transform="scale(1,-1)" stroke-dasharray="67.4022604428335" stroke-dashoffset="67.4022604428335"><animate attributeName="stroke-dashoffset" from="67.4022604428335" to="0" dur="2.022067813285005s" begin="anim1.end" fill="freeze" id="anim2" /></path><path d="M 26.8 28.9 C 25.0 28.9 24.6 29.4 24.6 30.6 L 24.6 32.0 L 40.5 32.0 L 40.5 30.6 C 40.5 29.1 39.6 29.0 38.3 28.9 Z " transform="scale(1,-1)" stroke-dasharray="36.68483454608399" stroke-dashoffset="36.68483454608399"><animate attributeName="stroke-dashoffset" from="36.68483454608399" to="0" dur="1.1005450363825198s" begin="anim2.end" fill="freeze" id="anim3" /></path><path d="M 40.5 34.6 L 24.6 34.6 L 24.6 35.9 C 24.6 37.0 25.0 37.5 26.8 37.5 L 38.3 37.5 C 40.1 37.5 40.5 37.0 40.5 35.9 Z " transform="scale(1,-1)" stroke-dasharray="36.360486647081885" stroke-dashoffset="36.360486647081885"><animate attributeName="stroke-dashoffset" from="36.360486647081885" to="0" dur="1.0908145994124565s" begin="anim3.end" fill="freeze" id="anim4" /></path><path d="M 9.0 40.2 C 5.7 40.2 4.5 38.8 4.5 35.6 L 4.5 -2.5 C 4.5 -3.6 5.4 -4.0 6.2 -4.0 C 7.1 -4.0 8.0 -3.6 8.0 -2.5 L 8.0 35.1 C 8.0 36.5 8.3 37.0 9.5 37.0 L 12.8 37.0 C 13.6 37.0 14.1 36.8 14.1 36.0 C 14.1 35.8 14.1 35.6 14.0 35.2 C 13.1 32.4 11.7 29.2 10.2 26.6 C 9.8 25.9 9.7 25.2 9.7 24.7 C 9.7 23.9 10.0 23.1 10.7 22.4 C 13.1 20.1 14.4 17.1 14.4 14.2 C 14.4 11.2 13.5 10.3 12.2 10.3 C 11.6 10.3 11.2 10.4 10.7 10.5 C 9.6 10.8 8.8 9.8 8.8 8.8 C 8.8 8.0 9.2 7.2 10.2 7.1 C 11.0 6.9 11.6 6.8 12.6 6.8 C 15.7 6.8 17.8 9.3 17.8 14.2 C 17.8 18.1 16.4 21.3 12.9 24.8 C 14.6 27.9 16.2 31.4 17.3 34.8 C 17.6 35.6 17.7 36.2 17.7 36.9 C 17.7 39.0 16.1 40.2 13.4 40.2 Z " transform="scale(1,-1)" stroke-dasharray="180.69684107710958" stroke-dashoffset="180.69684107710958"><animate attributeName="stroke-dashoffset" from="180.69684107710958" to="0" dur="5.420905232313287s" begin="anim4.end" fill="freeze" id="anim5" /></path><path d="M 26.0 2.7 C 26.6 1.2 27.0 -0.3 27.2 -2.1 C 27.4 -3.2 28.1 -3.7 28.9 -3.7 C 29.9 -3.7 30.9 -2.8 30.7 -1.4 C 30.4 0.3 29.8 2.2 29.2 3.5 C 28.9 4.4 28.2 4.8 27.6 4.8 C 26.7 4.8 25.9 4.2 25.9 3.2 C 25.9 3.1 26.0 2.9 26.0 2.7 Z " transform="scale(1,-1)" stroke-dasharray="21.309223309818208" stroke-dashoffset="21.309223309818208"><animate attributeName="stroke-dashoffset" from="21.309223309818208" to="0" dur="0.6392766992945462s" begin="anim5.end" fill="freeze" id="anim6" /></path><path d="M 33.5 2.7 C 34.1 1.4 34.7 -0.4 35.1 -1.9 C 35.4 -2.9 36.1 -3.3 36.9 -3.3 C 37.7 -3.3 38.6 -2.7 38.6 -1.6 C 38.6 -1.4 38.5 -1.2 38.5 -1.0 C 38.0 0.7 37.1 2.6 36.5 3.8 C 36.1 4.6 35.4 5.0 34.7 5.0 C 33.9 5.0 33.2 4.4 33.2 3.5 C 33.2 3.2 33.3 3.0 33.5 2.7 Z " transform="scale(1,-1)" stroke-dasharray="21.35360184480466" stroke-dashoffset="21.35360184480466"><animate attributeName="stroke-dashoffset" from="21.35360184480466" to="0" dur="0.6406080553441398s" begin="anim6.end" fill="freeze" id="anim7" /></path><path d="M 40.6 3.4 C 41.7 1.9 43.0 -0.4 43.7 -1.8 C 44.1 -2.7 44.8 -3.1 45.4 -3.1 C 46.2 -3.1 47.1 -2.4 47.1 -1.3 C 47.1 -0.9 47.0 -0.5 46.7 0.0 C 46.0 1.5 44.5 3.8 43.5 5.0 C 43.0 5.6 42.4 5.9 41.8 5.9 C 41.0 5.9 40.2 5.2 40.2 4.4 C 40.2 4.1 40.4 3.7 40.6 3.4 Z " transform="scale(1,-1)" stroke-dasharray="23.88083391938482" stroke-dashoffset="23.88083391938482"><animate attributeName="stroke-dashoffset" from="23.88083391938482" to="0" dur="0.7164250175815445s" begin="anim7.end" fill="freeze" id="anim8" /></path><path d="M 20.0 4.0 C 19.2 2.1 18.3 0.3 17.4 -1.1 C 17.1 -1.5 17.0 -1.9 17.0 -2.2 C 17.0 -3.2 17.8 -3.9 18.7 -3.9 C 19.3 -3.9 19.9 -3.6 20.4 -2.9 C 21.4 -1.5 22.4 0.8 23.1 2.8 C 23.2 3.0 23.2 3.2 23.2 3.5 C 23.2 4.5 22.3 5.1 21.5 5.1 C 20.9 5.1 20.2 4.8 20.0 4.0 Z" transform="scale(1,-1)" stroke-dasharray="23.293558130411128" stroke-dashoffset="23.293558130411128"><animate attributeName="stroke-dashoffset" from="23.293558130411128" to="0" dur="0.6988067439123338s" begin="anim8.end" fill="freeze" id="anim_end" /></path></g></svg>