<?xml version='1.0' encoding='utf-8'?>
<svg viewBox="0 -44.0 50.0 50.0" version="1.1" xmlns="http://www.w3.org/2000/svg"><rect x="-1000" y="-1000" width="2000" height="2000" stroke="white" fill="white" /><g style="fill:none;stroke:#000000;stroke-width:1"><path d="M 34.5 28.8 C 34.8 29.8 35.1 30.8 35.4 31.8 L 46.1 31.8 C 47.1 31.8 47.6 32.6 47.6 33.3 C 47.6 34.1 47.1 34.8 46.1 34.8 L 38.8 34.8 C 39.7 36.2 40.7 37.9 41.4 39.5 C 41.6 39.8 41.7 40.2 41.7 40.5 C 41.7 41.5 40.8 42.2 39.9 42.2 C 39.2 42.2 38.6 41.8 38.2 40.9 C 37.4 38.8 36.4 36.8 35.2 34.8 L 22.0 34.8 C 21.0 34.8 20.6 34.1 20.6 33.3 C 20.6 32.6 21.0 31.8 22.0 31.8 L 32.1 31.8 C 31.9 30.8 31.6 29.8 31.2 28.8 L 29.0 28.8 C 25.6 28.8 24.2 27.2 24.2 24.6 L 24.2 9.6 C 24.3 6.5 26.1 5.5 29.0 5.4 L 38.9 5.4 C 42.2 5.4 43.6 7.0 43.6 9.6 L 43.6 24.6 C 43.6 27.2 42.2 28.8 38.9 28.8 Z " transform="scale(1,-1)" stroke-dasharray="150.72077906679456" stroke-dashoffset="150.72077906679456"><animate attributeName="stroke-dashoffset" from="150.72077906679456" to="0" dur="4.521623372003837s" begin="0s; 15s; 30s; 45s; 60s" fill="freeze" id="anim0" /></path><path d="M 29.5 8.4 C 28.0 8.4 27.6 8.8 27.6 10.1 L 27.6 12.7 L 40.3 12.7 L 40.3 10.1 C 40.3 8.7 39.7 8.4 38.4 8.4 Z " transform="scale(1,-1)" stroke-dasharray="32.82447006431766" stroke-dashoffset="32.82447006431766"><animate attributeName="stroke-dashoffset" from="32.82447006431766" to="0" dur="0.9847341019295297s" begin="anim0.end" fill="freeze" id="anim1" /></path><path d="M 27.6 19.4 L 40.3 19.4 L 40.3 15.5 L 27.6 15.5 Z " transform="scale(1,-1)" stroke-dasharray="33.19999999999999" stroke-dashoffset="33.19999999999999"><animate attributeName="stroke-dashoffset" from="33.19999999999999" to="0" dur="0.9959999999999997s" begin="anim1.end" fill="freeze" id="anim2" /></path><path d="M 40.3 22.2 L 27.6 22.2 L 27.6 24.2 C 27.6 25.4 28.0 25.9 29.5 25.9 L 38.4 25.9 C 39.9 25.9 40.3 25.4 40.3 24.2 Z " transform="scale(1,-1)" stroke-dasharray="31.591973764563377" stroke-dashoffset="31.591973764563377"><animate attributeName="stroke-dashoffset" from="31.591973764563377" to="0" dur="0.9477592129369012s" begin="anim2.end" fill="freeze" id="anim3" /></path><path d="M 11.6 30.7 L 11.6 39.8 C 11.6 40.9 10.7 41.5 9.8 41.5 C 9.0 41.5 8.1 40.9 8.1 39.8 L 8.1 30.6 L 3.8 30.5 C 2.7 30.5 2.2 29.8 2.2 29.1 C 2.2 28.2 2.8 27.5 3.8 27.5 L 8.1 27.7 L 8.1 26.8 C 8.1 13.8 5.9 5.6 2.1 -0.1 C 1.8 -0.5 1.7 -0.9 1.7 -1.3 C 1.7 -2.2 2.4 -3.0 3.3 -3.0 C 3.8 -3.0 4.4 -2.7 4.9 -2.0 C 9.1 4.2 11.6 13.3 11.6 26.1 L 11.6 27.8 L 13.9 27.9 C 15.4 27.9 15.7 27.6 15.7 25.9 L 15.7 3.5 C 15.7 -1.0 18.0 -2.1 30.8 -2.1 C 44.9 -2.1 47.7 -0.6 48.4 6.0 C 48.5 7.4 47.6 8.1 46.6 8.1 C 45.8 8.1 45.0 7.5 44.9 6.4 C 44.4 2.0 42.8 1.2 30.8 1.2 C 20.2 1.2 19.2 1.8 19.2 4.4 L 19.2 26.6 C 19.2 29.4 17.9 30.9 14.3 30.8 Z " transform="scale(1,-1)" stroke-dasharray="239.39400394739445" stroke-dashoffset="239.39400394739445"><animate attributeName="stroke-dashoffset" from="239.39400394739445" to="0" dur="7.181820118421833s" begin="anim3.end" fill="freeze" id="anim4" /></path><path d="M 26.2 39.6 C 26.9 38.6 27.6 37.5 28.2 36.4 C 28.6 35.6 29.2 35.4 29.7 35.4 C 30.6 35.4 31.4 36.0 31.4 37.0 C 31.4 37.3 31.2 37.6 31.1 38.1 C 30.5 39.1 29.6 40.5 29.0 41.2 C 28.5 41.7 28.0 42.0 27.5 42.0 C 26.6 42.0 25.9 41.4 25.9 40.5 C 25.9 40.2 26.0 39.9 26.2 39.6 Z" transform="scale(1,-1)" stroke-dasharray="18.34953141153539" stroke-dashoffset="18.34953141153539"><animate attributeName="stroke-dashoffset" from="18.34953141153539" to="0" dur="0.5504859423460617s" begin="anim4.end" fill="freeze" id="anim_end" /></path></g></svg>