<?xml version='1.0' encoding='utf-8'?>
<svg viewBox="0 -44.0 50.0 50.0" version="1.1" xmlns="http://www.w3.org/2000/svg"><rect x="-1000" y="-1000" width="2000" height="2000" stroke="white" fill="white" /><g style="fill:none;stroke:#000000;stroke-width:1"><path d="M 35.0 29.6 L 35.0 40.0 C 35.0 41.1 34.1 41.7 33.2 41.7 C 32.3 41.7 31.4 41.1 31.4 40.0 L 31.4 29.5 L 24.9 29.4 C 23.9 29.4 23.5 28.7 23.5 27.9 C 23.5 27.2 23.9 26.5 24.9 26.5 L 31.4 26.6 C 31.2 21.9 30.7 17.1 29.2 12.6 C 28.1 9.1 26.3 5.9 23.9 3.1 C 22.8 1.9 21.6 0.8 20.3 -0.2 C 19.6 -0.8 19.4 -1.4 19.4 -1.9 C 19.4 -2.8 20.1 -3.4 21.0 -3.4 C 21.4 -3.4 21.9 -3.3 22.3 -3.0 C 24.5 -1.2 26.4 0.6 28.1 2.8 C 31.2 7.0 33.1 12.1 34.1 17.2 C 34.6 20.4 34.9 23.5 35.0 26.6 L 40.1 26.7 C 41.6 26.8 42.1 26.2 42.1 24.8 C 42.1 16.1 41.5 9.3 40.7 4.6 C 40.1 1.2 39.1 0.5 37.4 0.5 C 36.4 0.5 35.5 0.7 34.6 0.9 C 33.2 1.2 32.5 0.2 32.5 -0.8 C 32.5 -1.6 32.9 -2.4 33.9 -2.6 C 35.1 -2.8 36.2 -3.0 37.5 -3.0 C 41.1 -3.0 43.3 -1.2 44.2 3.8 C 45.2 9.0 45.7 15.9 45.7 25.2 C 45.7 28.2 44.2 29.8 40.7 29.7 Z " transform="scale(1,-1)" stroke-dasharray="205.4881688729001" stroke-dashoffset="205.4881688729001"><animate attributeName="stroke-dashoffset" from="205.4881688729001" to="0" dur="6.164645066187003s" begin="0s; 15s; 30s; 45s; 60s" fill="freeze" id="anim0" /></path><path d="M 13.2 35.8 C 15.5 34.0 17.7 31.9 19.2 30.1 C 19.7 29.5 20.2 29.3 20.8 29.3 C 21.7 29.3 22.5 30.0 22.5 31.0 C 22.5 31.4 22.2 31.9 21.8 32.5 C 20.1 34.4 17.4 36.7 15.0 38.3 C 15.1 38.4 15.2 38.5 15.2 38.6 C 15.5 39.0 15.6 39.4 15.6 39.7 C 15.6 40.6 14.8 41.2 13.9 41.2 C 13.2 41.2 12.6 41.0 12.2 40.2 C 9.6 36.2 5.9 32.1 2.2 29.2 C 1.7 28.8 1.4 28.2 1.4 27.8 C 1.4 26.9 2.1 26.2 3.0 26.2 C 3.4 26.2 3.9 26.3 4.3 26.7 C 7.5 29.2 10.6 32.3 13.2 35.8 Z " transform="scale(1,-1)" stroke-dasharray="62.94436244330299" stroke-dashoffset="62.94436244330299"><animate attributeName="stroke-dashoffset" from="62.94436244330299" to="0" dur="1.8883308732990898s" begin="anim0.end" fill="freeze" id="anim1" /></path><path d="M 11.2 24.2 L 11.2 19.8 L 4.2 19.8 C 3.2 19.8 2.8 19.0 2.8 18.2 C 2.8 17.5 3.2 16.8 4.2 16.8 L 11.2 16.8 L 11.2 3.7 C 8.8 3.2 6.5 2.9 4.4 2.6 C 3.3 2.5 2.8 1.7 2.8 0.9 C 2.8 0.0 3.5 -0.9 4.7 -0.8 C 9.8 -0.1 16.4 1.4 21.0 2.9 C 22.0 3.2 22.4 3.9 22.4 4.5 C 22.4 5.2 21.8 5.9 20.8 5.9 C 20.6 5.9 20.4 5.9 20.1 5.8 C 18.2 5.2 16.4 4.8 14.5 4.3 L 14.5 16.8 L 21.0 16.8 C 22.0 16.8 22.5 17.5 22.5 18.2 C 22.5 19.0 22.0 19.8 21.0 19.8 L 14.5 19.8 L 14.5 24.2 L 18.2 24.2 C 19.2 24.2 19.7 24.9 19.7 25.7 C 19.7 26.4 19.2 27.2 18.2 27.2 L 7.7 27.2 C 6.8 27.2 6.3 26.4 6.3 25.7 C 6.3 24.9 6.8 24.2 7.7 24.2 Z " transform="scale(1,-1)" stroke-dasharray="138.0883921356089" stroke-dashoffset="138.0883921356089"><animate attributeName="stroke-dashoffset" from="138.0883921356089" to="0" dur="4.142651764068267s" begin="anim1.end" fill="freeze" id="anim2" /></path><path d="M 7.2 12.8 C 6.8 13.4 6.2 13.7 5.6 13.7 C 4.8 13.7 4.0 13.1 4.0 12.4 C 4.0 12.1 4.2 11.8 4.4 11.5 C 5.2 10.2 5.9 8.5 6.3 6.9 C 6.6 6.0 7.2 5.5 7.9 5.5 C 8.7 5.5 9.5 6.2 9.5 7.2 C 9.5 7.4 9.5 7.6 9.4 7.8 C 9.0 9.3 8.0 11.6 7.2 12.8 Z " transform="scale(1,-1)" stroke-dasharray="21.131885738248492" stroke-dashoffset="21.131885738248492"><animate attributeName="stroke-dashoffset" from="21.131885738248492" to="0" dur="0.6339565721474547s" begin="anim2.end" fill="freeze" id="anim3" /></path><path d="M 18.3 13.6 C 17.8 12.0 17.2 10.6 16.5 9.3 C 16.3 9.0 16.2 8.7 16.2 8.3 C 16.2 7.6 16.9 7.0 17.6 7.0 C 18.1 7.0 18.7 7.3 19.1 8.1 C 19.8 9.3 20.6 11.1 21.1 12.6 C 21.2 12.8 21.2 13.0 21.2 13.2 C 21.2 14.1 20.5 14.7 19.8 14.7 C 19.2 14.7 18.6 14.3 18.3 13.6 Z" transform="scale(1,-1)" stroke-dasharray="19.5859128627378" stroke-dashoffset="19.5859128627378"><animate attributeName="stroke-dashoffset" from="19.5859128627378" to="0" dur="0.5875773858821339s" begin="anim3.end" fill="freeze" id="anim_end" /></path></g></svg>