<?xml version='1.0' encoding='utf-8'?>
<svg viewBox="0 -44.0 50.0 50.0" version="1.1" xmlns="http://www.w3.org/2000/svg"><rect x="-1000" y="-1000" width="2000" height="2000" stroke="white" fill="white" /><g style="fill:none;stroke:#000000;stroke-width:1"><path d="M 38.7 18.9 C 42.2 18.9 43.9 20.2 43.9 23.1 L 43.9 26.4 L 46.8 26.4 C 47.8 26.4 48.2 27.2 48.2 27.9 C 48.2 28.7 47.8 29.4 46.8 29.4 L 43.9 29.4 L 43.9 32.5 C 43.9 35.4 42.2 36.8 38.7 36.8 L 35.8 36.8 L 35.8 40.6 C 35.8 41.6 34.9 42.0 34.0 42.0 C 33.1 42.0 32.2 41.6 32.2 40.6 L 32.2 36.8 L 27.1 36.8 C 26.2 36.8 25.7 36.0 25.7 35.2 C 25.7 34.5 26.2 33.8 27.1 33.8 L 32.2 33.8 L 32.2 29.4 L 24.9 29.4 C 23.9 29.4 23.5 28.7 23.5 27.9 C 23.5 27.2 23.9 26.4 24.9 26.4 L 32.2 26.4 L 32.2 21.9 L 27.1 21.9 C 26.2 21.9 25.7 21.1 25.7 20.4 C 25.7 19.6 26.2 18.9 27.1 18.9 L 32.2 18.9 L 32.2 1.4 C 32.2 0.2 31.9 0.0 30.9 0.0 C 30.4 0.0 29.6 0.1 29.0 0.2 C 27.8 0.4 27.1 -0.6 27.1 -1.5 C 27.1 -2.2 27.6 -3.0 28.6 -3.2 C 29.3 -3.4 30.4 -3.5 31.3 -3.5 C 34.2 -3.5 35.8 -2.2 35.8 0.8 L 35.8 7.5 L 35.6 13.5 C 37.9 7.6 41.6 2.8 45.3 0.2 C 45.8 -0.2 46.2 -0.4 46.7 -0.4 C 47.7 -0.4 48.4 0.5 48.4 1.5 C 48.4 2.1 48.1 2.7 47.4 3.2 C 45.2 4.7 42.9 7.0 40.9 9.8 C 42.6 10.8 44.3 12.0 46.2 13.8 C 46.8 14.2 47.0 14.8 47.0 15.2 C 47.0 16.2 46.1 16.9 45.2 16.9 C 44.7 16.9 44.2 16.7 43.8 16.2 C 42.1 14.4 40.7 13.2 39.4 12.2 C 38.1 14.4 37.1 16.5 36.5 18.9 Z " transform="scale(1,-1)" stroke-dasharray="215.86154251407297" stroke-dashoffset="215.86154251407297"><animate attributeName="stroke-dashoffset" from="215.86154251407297" to="0" dur="6.475846275422189s" begin="0s; 15s; 30s; 45s; 60s" fill="freeze" id="anim0" /></path><path d="M 35.8 21.9 L 35.8 26.4 L 40.4 26.4 L 40.4 23.6 C 40.4 22.2 39.9 21.9 38.2 21.9 Z " transform="scale(1,-1)" stroke-dasharray="17.601360821911264" stroke-dashoffset="17.601360821911264"><animate attributeName="stroke-dashoffset" from="17.601360821911264" to="0" dur="0.5280408246573379s" begin="anim0.end" fill="freeze" id="anim1" /></path><path d="M 40.4 29.4 L 35.8 29.4 L 35.8 33.8 L 38.2 33.8 C 39.9 33.8 40.4 33.4 40.4 32.1 Z " transform="scale(1,-1)" stroke-dasharray="17.372431710978816" stroke-dashoffset="17.372431710978816"><animate attributeName="stroke-dashoffset" from="17.372431710978816" to="0" dur="0.5211729513293645s" begin="anim1.end" fill="freeze" id="anim2" /></path><path d="M 11.9 13.6 L 11.9 1.4 C 11.9 0.2 11.5 -0.2 10.5 -0.2 C 9.9 -0.2 9.5 -0.1 8.9 0.0 C 7.8 0.2 7.1 -0.8 7.1 -1.8 C 7.1 -2.5 7.5 -3.2 8.3 -3.4 C 9.2 -3.6 9.8 -3.7 10.7 -3.7 C 13.8 -3.7 15.4 -2.2 15.4 1.0 L 15.4 13.6 L 21.2 13.6 C 22.1 13.6 22.6 14.4 22.6 15.1 C 22.6 15.9 22.1 16.6 21.2 16.6 L 4.0 16.6 C 3.1 16.6 2.7 15.9 2.7 15.1 C 2.7 14.4 3.1 13.6 4.0 13.6 Z " transform="scale(1,-1)" stroke-dasharray="83.99148106725035" stroke-dashoffset="83.99148106725035"><animate attributeName="stroke-dashoffset" from="83.99148106725035" to="0" dur="2.5197444320175104s" begin="anim2.end" fill="freeze" id="anim3" /></path><path d="M 11.9 33.8 L 11.9 30.1 L 5.8 30.1 C 4.9 30.1 4.4 29.3 4.4 28.6 C 4.4 27.8 4.9 27.1 5.8 27.1 L 20.7 27.1 C 21.6 27.1 22.1 27.8 22.1 28.6 C 22.1 29.3 21.6 30.1 20.7 30.1 L 15.2 30.1 L 15.2 33.8 L 22.4 33.8 C 23.4 33.8 23.9 34.5 23.9 35.2 C 23.9 36.0 23.4 36.8 22.4 36.8 L 15.2 36.8 L 15.2 40.4 C 15.2 41.4 14.4 41.9 13.6 41.9 C 12.7 41.9 11.9 41.4 11.9 40.4 L 11.9 36.8 L 4.2 36.8 C 3.2 36.8 2.8 36.0 2.8 35.2 C 2.8 34.5 3.2 33.8 4.2 33.8 Z " transform="scale(1,-1)" stroke-dasharray="94.47153627232053" stroke-dashoffset="94.47153627232053"><animate attributeName="stroke-dashoffset" from="94.47153627232053" to="0" dur="2.834146088169616s" begin="anim3.end" fill="freeze" id="anim4" /></path><path d="M 20.3 10.9 C 19.9 11.4 19.4 11.6 18.9 11.6 C 18.1 11.6 17.4 10.9 17.4 10.1 C 17.4 9.8 17.5 9.3 17.8 9.0 C 18.6 8.0 19.1 7.1 19.7 5.8 C 20.1 5.0 20.7 4.7 21.2 4.7 C 22.1 4.7 22.9 5.4 22.9 6.4 C 22.9 6.7 22.9 7.1 22.7 7.5 C 22.1 8.7 21.2 9.8 20.3 10.9 Z " transform="scale(1,-1)" stroke-dasharray="18.831637566167597" stroke-dashoffset="18.831637566167597"><animate attributeName="stroke-dashoffset" from="18.831637566167597" to="0" dur="0.5649491269850279s" begin="anim4.end" fill="freeze" id="anim5" /></path><path d="M 19.8 20.5 C 20.8 20.5 21.2 21.2 21.2 22.0 C 21.2 22.8 20.8 23.6 19.8 23.6 L 6.8 23.6 C 5.8 23.6 5.3 22.8 5.3 22.0 C 5.3 21.2 5.8 20.5 6.8 20.5 Z " transform="scale(1,-1)" stroke-dasharray="35.57409201318565" stroke-dashoffset="35.57409201318565"><animate attributeName="stroke-dashoffset" from="35.57409201318565" to="0" dur="1.0672227603955695s" begin="anim5.end" fill="freeze" id="anim6" /></path><path d="M 26.8 16.1 C 26.5 16.4 26.1 16.6 25.7 16.6 C 24.8 16.6 24.1 15.9 24.1 15.1 C 24.1 14.7 24.3 14.2 24.8 13.8 C 25.4 13.2 26.5 12.0 27.4 11.0 C 27.7 10.6 28.2 10.4 28.6 10.4 C 29.4 10.4 30.2 11.1 30.2 12.0 C 30.2 12.4 30.0 12.9 29.6 13.3 C 28.8 14.3 27.6 15.4 26.8 16.1 Z " transform="scale(1,-1)" stroke-dasharray="18.337482168426064" stroke-dashoffset="18.337482168426064"><animate attributeName="stroke-dashoffset" from="18.337482168426064" to="0" dur="0.5501244650527819s" begin="anim6.end" fill="freeze" id="anim7" /></path><path d="M 5.8 9.9 C 4.8 7.5 3.5 5.2 2.1 3.4 C 1.9 3.0 1.7 2.6 1.7 2.2 C 1.7 1.2 2.6 0.6 3.5 0.6 C 4.0 0.6 4.5 0.8 5.0 1.4 C 6.2 3.2 7.9 6.1 8.8 8.4 C 9.0 8.7 9.1 9.0 9.1 9.2 C 9.1 10.3 8.2 11.0 7.2 11.0 C 6.7 11.0 6.1 10.6 5.8 9.9 Z " transform="scale(1,-1)" stroke-dasharray="26.86048581273084" stroke-dashoffset="26.86048581273084"><animate attributeName="stroke-dashoffset" from="26.86048581273084" to="0" dur="0.8058145743819252s" begin="anim7.end" fill="freeze" id="anim8" /></path><path d="M 22.2 3.2 C 21.5 2.9 21.1 2.2 21.1 1.7 C 21.1 0.9 21.8 0.1 22.7 0.1 C 23.0 0.1 23.4 0.2 23.7 0.4 C 26.2 1.6 28.7 3.2 30.5 4.8 C 31.0 5.2 31.2 5.8 31.2 6.2 C 31.2 7.1 30.5 7.8 29.7 7.8 C 29.2 7.8 28.8 7.6 28.4 7.2 C 26.8 5.8 24.5 4.3 22.2 3.2 Z" transform="scale(1,-1)" stroke-dasharray="26.557168379786305" stroke-dashoffset="26.557168379786305"><animate attributeName="stroke-dashoffset" from="26.557168379786305" to="0" dur="0.7967150513935891s" begin="anim8.end" fill="freeze" id="anim_end" /></path></g></svg>