<?xml version='1.0' encoding='utf-8'?>
<svg viewBox="0 -44.0 50.0 50.0" version="1.1" xmlns="http://www.w3.org/2000/svg"><rect x="-1000" y="-1000" width="2000" height="2000" stroke="white" fill="white" /><g style="fill:none;stroke:#000000;stroke-width:1"><path d="M 26.4 5.6 L 31.4 5.6 C 35.1 5.6 36.5 6.9 36.5 9.5 L 36.5 17.7 C 36.5 20.3 35.1 21.6 31.4 21.6 L 18.8 21.6 C 15.0 21.6 13.6 20.3 13.6 17.7 L 13.6 9.5 C 13.7 6.2 15.9 5.6 18.8 5.6 L 23.1 5.6 L 23.1 -1.3 C 23.1 -2.3 24.0 -2.9 24.8 -2.9 C 25.6 -2.9 26.4 -2.3 26.4 -1.3 Z " transform="scale(1,-1)" stroke-dasharray="86.95805980242422" stroke-dashoffset="86.95805980242422"><animate attributeName="stroke-dashoffset" from="86.95805980242422" to="0" dur="2.6087417940727264s" begin="0s; 15s; 30s; 45s; 60s" fill="freeze" id="anim0" /></path><path d="M 26.4 12.2 L 33.1 12.2 L 33.1 10.2 C 33.1 8.6 32.2 8.5 30.9 8.5 L 26.4 8.5 Z " transform="scale(1,-1)" stroke-dasharray="20.178321825238868" stroke-dashoffset="20.178321825238868"><animate attributeName="stroke-dashoffset" from="20.178321825238868" to="0" dur="0.6053496547571661s" begin="anim0.end" fill="freeze" id="anim1" /></path><path d="M 23.1 12.2 L 23.1 8.5 L 19.2 8.5 C 17.4 8.5 16.9 8.8 16.9 10.2 L 16.9 12.2 Z " transform="scale(1,-1)" stroke-dasharray="19.193935731504453" stroke-dashoffset="19.193935731504453"><animate attributeName="stroke-dashoffset" from="19.193935731504453" to="0" dur="0.5758180719451336s" begin="anim1.end" fill="freeze" id="anim2" /></path><path d="M 26.4 18.7 L 30.9 18.7 C 32.7 18.7 33.1 18.3 33.1 17.0 L 33.1 15.2 L 26.4 15.2 Z " transform="scale(1,-1)" stroke-dasharray="19.79574702528345" stroke-dashoffset="19.79574702528345"><animate attributeName="stroke-dashoffset" from="19.79574702528345" to="0" dur="0.5938724107585035s" begin="anim2.end" fill="freeze" id="anim3" /></path><path d="M 23.1 18.7 L 23.1 15.2 L 16.9 15.2 L 16.9 17.0 C 16.9 18.3 17.4 18.7 19.2 18.7 Z " transform="scale(1,-1)" stroke-dasharray="18.764580826720398" stroke-dashoffset="18.764580826720398"><animate attributeName="stroke-dashoffset" from="18.764580826720398" to="0" dur="0.5629374248016119s" begin="anim3.end" fill="freeze" id="anim4" /></path><path d="M 7.9 24.9 L 17.2 24.9 C 20.7 24.9 22.1 26.5 22.1 29.2 L 22.1 35.6 C 22.1 38.4 20.7 39.9 17.2 39.9 L 9.6 39.9 C 5.8 39.9 4.4 38.5 4.4 35.5 L 4.4 -2.3 C 4.4 -3.3 5.3 -3.8 6.2 -3.8 C 7.1 -3.8 7.9 -3.3 7.9 -2.3 Z " transform="scale(1,-1)" stroke-dasharray="116.36009847752058" stroke-dashoffset="116.36009847752058"><animate attributeName="stroke-dashoffset" from="116.36009847752058" to="0" dur="3.490802954325617s" begin="anim4.end" fill="freeze" id="anim5" /></path><path d="M 7.9 27.7 L 7.9 31.2 L 18.7 31.2 L 18.7 29.5 C 18.7 27.9 17.9 27.8 16.5 27.7 Z " transform="scale(1,-1)" stroke-dasharray="27.92003654594677" stroke-dashoffset="27.92003654594677"><animate attributeName="stroke-dashoffset" from="27.92003654594677" to="0" dur="0.837601096378403s" begin="anim5.end" fill="freeze" id="anim6" /></path><path d="M 18.7 33.9 L 7.9 33.9 L 7.9 35.2 C 7.9 36.6 8.3 37.1 10.3 37.1 L 16.5 37.1 C 18.3 37.1 18.7 36.7 18.7 35.4 Z " transform="scale(1,-1)" stroke-dasharray="26.72198208323332" stroke-dashoffset="26.72198208323332"><animate attributeName="stroke-dashoffset" from="26.72198208323332" to="0" dur="0.8016594624969996s" begin="anim6.end" fill="freeze" id="anim7" /></path><path d="M 42.2 24.9 L 42.2 2.2 C 42.2 0.2 41.5 0.0 40.6 0.0 C 39.5 0.0 38.8 0.1 38.1 0.2 C 36.6 0.6 35.8 -0.4 35.8 -1.4 C 35.8 -2.1 36.2 -2.9 37.3 -3.1 C 38.5 -3.4 39.5 -3.5 40.9 -3.5 C 44.0 -3.5 45.7 -1.9 45.7 1.9 L 45.7 35.5 C 45.7 38.5 44.3 39.9 40.5 39.9 L 32.1 39.9 C 28.6 39.9 27.2 38.4 27.2 35.6 L 27.2 29.2 C 27.4 26.2 29.2 25.0 32.1 24.9 Z " transform="scale(1,-1)" stroke-dasharray="127.34247713266332" stroke-dashoffset="127.34247713266332"><animate attributeName="stroke-dashoffset" from="127.34247713266332" to="0" dur="3.8202743139798994s" begin="anim7.end" fill="freeze" id="anim8" /></path><path d="M 42.2 27.7 L 32.8 27.7 C 31.0 27.7 30.7 28.1 30.7 29.5 L 30.7 31.2 L 42.2 31.2 Z " transform="scale(1,-1)" stroke-dasharray="29.417720122327363" stroke-dashoffset="29.417720122327363"><animate attributeName="stroke-dashoffset" from="29.417720122327363" to="0" dur="0.8825316036698209s" begin="anim8.end" fill="freeze" id="anim9" /></path><path d="M 42.2 33.9 L 30.7 33.9 L 30.7 35.4 C 30.7 36.7 31.0 37.1 32.8 37.1 L 39.8 37.1 C 41.8 37.1 42.2 36.6 42.2 35.2 Z" transform="scale(1,-1)" stroke-dasharray="28.155139924328196" stroke-dashoffset="28.155139924328196"><animate attributeName="stroke-dashoffset" from="28.155139924328196" to="0" dur="0.8446541977298458s" begin="anim9.end" fill="freeze" id="anim_end" /></path></g></svg>