<?xml version='1.0' encoding='utf-8'?>
<svg viewBox="0 -44.0 50.0 50.0" version="1.1" xmlns="http://www.w3.org/2000/svg"><rect x="-1000" y="-1000" width="2000" height="2000" stroke="white" fill="white" /><g style="fill:none;stroke:#000000;stroke-width:1"><path d="M 35.2 32.1 C 36.5 34.0 37.8 36.6 38.9 39.0 C 39.0 39.2 39.1 39.6 39.1 39.9 C 39.1 41.0 38.1 41.7 37.2 41.7 C 36.5 41.7 35.9 41.3 35.5 40.4 C 34.4 37.2 33.0 34.5 31.4 32.1 L 19.6 32.1 C 18.7 32.1 18.2 31.3 18.2 30.6 C 18.2 29.8 18.7 29.1 19.6 29.1 L 28.7 29.1 L 28.7 27.8 C 28.7 26.0 28.6 24.3 28.4 22.8 L 17.6 22.8 C 16.6 22.8 16.1 22.1 16.1 21.2 C 16.1 20.5 16.6 19.7 17.6 19.7 L 27.8 19.7 C 26.2 13.8 22.9 10.6 18.5 8.0 C 17.7 7.6 17.4 7.0 17.4 6.5 C 17.4 5.7 18.1 5.0 19.1 5.0 C 19.4 5.0 19.7 5.0 20.1 5.2 C 24.1 7.4 27.3 10.2 29.5 14.4 C 33.0 12.2 37.2 9.2 40.2 6.4 C 40.7 5.9 41.2 5.7 41.7 5.7 C 42.7 5.7 43.5 6.5 43.5 7.5 C 43.5 8.1 43.2 8.7 42.5 9.2 C 39.5 11.9 34.8 15.1 30.7 17.2 C 30.9 18.0 31.2 18.9 31.4 19.7 L 45.2 19.7 C 46.2 19.7 46.8 20.5 46.8 21.2 C 46.8 22.1 46.2 22.8 45.2 22.8 L 31.9 22.8 C 32.1 24.2 32.1 25.8 32.1 27.5 L 32.1 29.1 L 42.7 29.1 C 43.7 29.1 44.1 29.8 44.1 30.6 C 44.1 31.3 43.7 32.1 42.7 32.1 Z " transform="scale(1,-1)" stroke-dasharray="213.08962702081723" stroke-dashoffset="213.08962702081723"><animate attributeName="stroke-dashoffset" from="213.08962702081723" to="0" dur="6.3926888106245165s" begin="0s; 15s; 30s; 45s; 60s" fill="freeze" id="anim0" /></path><path d="M 13.3 16.4 C 13.3 19.2 12.2 20.4 8.9 20.4 L 4.1 20.4 C 3.1 20.4 2.6 19.6 2.6 18.8 C 2.6 18.0 3.1 17.2 4.1 17.2 L 8.0 17.2 C 9.6 17.2 9.8 17.0 9.8 15.7 L 9.8 6.5 C 7.8 4.1 5.3 2.1 3.1 0.7 C 2.3 0.2 2.0 -0.5 2.0 -1.1 C 2.0 -2.0 2.7 -2.8 3.7 -2.8 C 4.0 -2.8 4.5 -2.7 4.9 -2.4 C 7.6 -0.5 10.1 1.7 11.9 4.0 C 15.5 -0.4 20.9 -1.9 32.6 -1.9 C 38.3 -1.9 42.3 -1.8 46.5 -1.4 C 47.6 -1.3 48.1 -0.5 48.1 0.4 C 48.1 1.4 47.5 2.4 46.1 2.2 C 42.1 1.8 38.1 1.7 32.4 1.7 C 20.0 1.7 16.1 3.1 13.3 7.0 Z " transform="scale(1,-1)" stroke-dasharray="142.93050292992228" stroke-dashoffset="142.93050292992228"><animate attributeName="stroke-dashoffset" from="142.93050292992228" to="0" dur="4.287915087897669s" begin="anim0.end" fill="freeze" id="anim1" /></path><path d="M 23.9 40.6 C 23.5 41.1 22.9 41.3 22.4 41.3 C 21.6 41.3 20.9 40.7 20.9 39.9 C 20.9 39.5 21.0 39.1 21.3 38.7 C 22.2 37.6 23.4 36.1 24.4 34.5 C 24.8 33.9 25.4 33.6 25.9 33.6 C 26.8 33.6 27.6 34.2 27.6 35.2 C 27.6 35.6 27.5 35.9 27.2 36.3 C 26.4 37.7 24.8 39.7 23.9 40.6 Z " transform="scale(1,-1)" stroke-dasharray="21.558530122912135" stroke-dashoffset="21.558530122912135"><animate attributeName="stroke-dashoffset" from="21.558530122912135" to="0" dur="0.646755903687364s" begin="anim1.end" fill="freeze" id="anim2" /></path><path d="M 8.2 39.1 C 7.8 39.3 7.4 39.4 7.0 39.4 C 6.1 39.4 5.3 38.7 5.3 37.8 C 5.3 37.2 5.5 36.8 6.1 36.3 C 7.6 35.3 9.6 33.4 10.9 31.9 C 11.4 31.3 11.9 31.1 12.5 31.1 C 13.4 31.1 14.2 31.9 14.2 32.9 C 14.2 33.4 14.0 34.0 13.5 34.5 C 12.2 36.0 9.8 38.0 8.2 39.1 Z" transform="scale(1,-1)" stroke-dasharray="25.555742286583367" stroke-dashoffset="25.555742286583367"><animate attributeName="stroke-dashoffset" from="25.555742286583367" to="0" dur="0.766672268597501s" begin="anim2.end" fill="freeze" id="anim_end" /></path></g></svg>