<?xml version='1.0' encoding='utf-8'?>
<svg viewBox="0 -44.0 50.0 50.0" version="1.1" xmlns="http://www.w3.org/2000/svg"><rect x="-1000" y="-1000" width="2000" height="2000" stroke="white" fill="white" /><g style="fill:none;stroke:#000000;stroke-width:1"><path d="M 46.6 9.0 C 47.6 9.0 48.1 9.7 48.1 10.4 C 48.1 11.1 47.6 11.8 46.6 11.8 L 40.0 11.8 L 40.0 14.4 L 44.0 14.4 C 44.9 14.4 45.4 15.1 45.4 15.7 C 45.4 16.4 44.9 17.1 44.0 17.1 L 40.0 17.1 L 40.0 19.6 L 46.0 19.6 C 47.0 19.6 47.5 20.2 47.5 20.9 C 47.5 21.6 47.0 22.2 46.0 22.2 L 40.0 22.2 L 40.0 23.5 C 40.0 24.4 39.2 24.9 38.5 24.9 C 37.6 24.9 36.9 24.4 36.9 23.5 L 36.9 22.2 L 31.5 22.2 L 31.5 23.5 C 31.5 24.4 30.7 24.9 29.9 24.9 C 29.2 24.9 28.4 24.4 28.4 23.5 L 28.4 22.2 L 23.2 22.2 C 22.3 22.2 21.9 21.6 21.9 20.9 C 21.9 20.2 22.3 19.6 23.2 19.6 L 28.4 19.6 L 28.4 17.1 L 24.7 17.1 C 23.8 17.1 23.2 16.4 23.2 15.7 C 23.2 15.1 23.8 14.4 24.7 14.4 L 28.4 14.4 L 28.4 11.8 L 23.0 11.8 C 22.1 11.8 21.6 11.1 21.6 10.4 C 21.6 9.7 22.1 9.0 23.0 9.0 L 30.3 9.0 C 27.8 7.0 24.7 5.2 21.8 4.2 C 20.9 3.9 20.5 3.2 20.5 2.7 C 20.5 2.0 21.1 1.2 22.0 1.2 C 22.2 1.2 22.4 1.3 22.7 1.4 C 24.2 2.0 25.9 2.8 27.6 3.7 L 27.6 3.6 L 27.6 -0.2 C 26.5 -0.4 25.4 -0.6 24.2 -0.8 C 23.3 -1.0 22.9 -1.7 22.9 -2.3 C 22.9 -3.2 23.6 -4.1 24.7 -4.0 C 29.1 -3.2 33.3 -2.1 36.8 -0.5 C 37.5 -0.2 37.8 0.4 37.8 1.0 C 37.8 1.7 37.2 2.5 36.3 2.5 C 36.1 2.5 35.8 2.4 35.5 2.2 C 34.0 1.6 32.4 1.1 30.8 0.7 L 30.8 3.6 C 30.8 4.2 30.4 4.9 29.7 5.1 C 31.4 6.1 33.1 7.4 34.5 8.8 C 37.1 2.7 41.6 -1.5 46.4 -3.5 C 46.7 -3.7 47.0 -3.7 47.2 -3.7 C 48.2 -3.7 48.9 -2.9 48.9 -2.1 C 48.9 -1.5 48.5 -0.8 47.6 -0.4 C 45.6 0.5 43.6 1.7 41.9 3.3 C 43.0 4.0 44.1 4.9 45.1 5.8 C 45.6 6.2 45.8 6.7 45.8 7.1 C 45.8 7.9 45.1 8.6 44.2 8.6 C 43.8 8.6 43.4 8.4 43.0 8.0 C 42.1 7.0 41.0 6.1 40.0 5.3 C 39.0 6.5 38.2 7.7 37.5 9.0 Z " transform="scale(1,-1)" stroke-dasharray="237.12543743300404" stroke-dashoffset="237.12543743300404"><animate attributeName="stroke-dashoffset" from="237.12543743300404" to="0" dur="7.113763122990121s" begin="0s; 15s; 30s; 45s; 60s" fill="freeze" id="anim0" /></path><path d="M 31.5 19.6 L 36.9 19.6 L 36.9 17.1 L 31.5 17.1 Z " transform="scale(1,-1)" stroke-dasharray="15.799999999999997" stroke-dashoffset="15.799999999999997"><animate attributeName="stroke-dashoffset" from="15.799999999999997" to="0" dur="0.4739999999999999s" begin="anim0.end" fill="freeze" id="anim1" /></path><path d="M 31.5 14.4 L 36.9 14.4 L 36.9 11.8 L 31.5 11.8 Z " transform="scale(1,-1)" stroke-dasharray="15.999999999999996" stroke-dashoffset="15.999999999999996"><animate attributeName="stroke-dashoffset" from="15.999999999999996" to="0" dur="0.47999999999999987s" begin="anim1.end" fill="freeze" id="anim2" /></path><path d="M 13.6 16.7 L 13.6 22.2 L 17.9 22.2 C 18.8 22.2 19.2 22.9 19.2 23.6 C 19.2 24.3 18.8 25.0 17.9 25.0 L 13.6 25.0 L 13.6 29.7 L 17.9 29.7 C 18.8 29.7 19.2 30.4 19.2 31.1 C 19.2 31.8 18.8 32.5 17.9 32.5 L 13.6 32.5 L 13.6 37.2 L 18.5 37.2 C 19.5 37.2 20.0 38.0 20.0 38.7 C 20.0 39.5 19.5 40.2 18.5 40.2 L 8.1 40.2 C 4.7 40.2 3.4 38.8 3.4 35.9 L 3.4 17.7 C 3.4 14.9 4.7 13.8 7.7 13.8 L 15.6 13.8 C 17.3 13.8 17.6 13.3 17.6 12.2 C 17.6 8.8 17.0 4.7 16.2 2.1 C 15.8 0.5 14.9 -0.2 13.5 -0.2 C 12.7 -0.2 11.9 -0.1 11.5 0.1 C 10.2 0.3 9.5 -0.6 9.5 -1.6 C 9.5 -2.2 9.9 -3.0 10.8 -3.2 C 11.7 -3.4 12.5 -3.5 13.6 -3.5 C 16.3 -3.5 18.2 -2.4 19.2 1.2 C 20.1 4.2 20.6 8.5 20.7 12.6 C 20.8 15.0 19.6 16.7 16.2 16.7 Z " transform="scale(1,-1)" stroke-dasharray="157.39626270477837" stroke-dashoffset="157.39626270477837"><animate attributeName="stroke-dashoffset" from="157.39626270477837" to="0" dur="4.721887881143351s" begin="anim2.end" fill="freeze" id="anim3" /></path><path d="M 6.6 25.0 L 6.6 29.7 L 10.7 29.7 L 10.7 25.0 Z " transform="scale(1,-1)" stroke-dasharray="17.599999999999998" stroke-dashoffset="17.599999999999998"><animate attributeName="stroke-dashoffset" from="17.599999999999998" to="0" dur="0.5279999999999999s" begin="anim3.end" fill="freeze" id="anim4" /></path><path d="M 6.6 22.2 L 10.7 22.2 L 10.7 16.7 L 8.2 16.7 C 7.0 16.7 6.6 17.1 6.6 18.3 Z " transform="scale(1,-1)" stroke-dasharray="18.662922785652235" stroke-dashoffset="18.662922785652235"><animate attributeName="stroke-dashoffset" from="18.662922785652235" to="0" dur="0.559887683569567s" begin="anim4.end" fill="freeze" id="anim5" /></path><path d="M 10.7 37.2 L 10.7 32.5 L 6.6 32.5 L 6.6 35.3 C 6.6 36.8 7.0 37.2 8.6 37.2 Z " transform="scale(1,-1)" stroke-dasharray="16.990797575486543" stroke-dashoffset="16.990797575486543"><animate attributeName="stroke-dashoffset" from="16.990797575486543" to="0" dur="0.5097239272645963s" begin="anim5.end" fill="freeze" id="anim6" /></path><path d="M 29.0 25.6 C 31.9 25.6 33.0 26.5 33.0 28.7 L 33.0 30.5 C 33.0 32.6 31.9 33.6 29.0 33.6 L 26.6 33.6 C 23.7 33.6 22.7 32.6 22.7 30.5 L 22.7 28.7 C 22.7 26.1 24.3 25.6 26.6 25.6 Z " transform="scale(1,-1)" stroke-dasharray="31.66040253009283" stroke-dashoffset="31.66040253009283"><animate attributeName="stroke-dashoffset" from="31.66040253009283" to="0" dur="0.9498120759027849s" begin="anim6.end" fill="freeze" id="anim7" /></path><path d="M 26.9 28.1 C 25.9 28.1 25.6 28.3 25.6 29.1 L 25.6 30.1 C 25.6 30.9 25.9 31.1 26.9 31.1 L 28.7 31.1 C 29.8 31.1 30.1 30.9 30.1 30.1 L 30.1 29.1 C 30.1 28.2 29.5 28.1 28.7 28.1 Z " transform="scale(1,-1)" stroke-dasharray="13.512364690557687" stroke-dashoffset="13.512364690557687"><animate attributeName="stroke-dashoffset" from="13.512364690557687" to="0" dur="0.4053709407167306s" begin="anim7.end" fill="freeze" id="anim8" /></path><path d="M 42.1 25.6 C 45.0 25.6 46.0 26.5 46.0 28.7 L 46.0 30.5 C 46.0 32.6 45.0 33.6 42.1 33.6 L 39.4 33.6 C 36.6 33.6 35.5 32.6 35.5 30.5 L 35.5 28.7 C 35.6 26.1 37.1 25.6 39.4 25.6 Z " transform="scale(1,-1)" stroke-dasharray="32.06597825687905" stroke-dashoffset="32.06597825687905"><animate attributeName="stroke-dashoffset" from="32.06597825687905" to="0" dur="0.9619793477063714s" begin="anim8.end" fill="freeze" id="anim9" /></path><path d="M 39.8 28.1 C 38.7 28.1 38.4 28.3 38.4 29.1 L 38.4 30.1 C 38.4 30.9 38.7 31.1 39.8 31.1 L 41.8 31.1 C 42.9 31.1 43.2 30.9 43.2 30.1 L 43.2 29.1 C 43.2 28.2 42.6 28.1 41.8 28.1 Z " transform="scale(1,-1)" stroke-dasharray="14.097489957964905" stroke-dashoffset="14.097489957964905"><animate attributeName="stroke-dashoffset" from="14.097489957964905" to="0" dur="0.4229246987389471s" begin="anim9.end" fill="freeze" id="anim10" /></path><path d="M 35.9 38.2 L 35.9 40.6 C 35.9 41.7 35.1 42.2 34.2 42.2 C 33.3 42.2 32.5 41.7 32.5 40.6 L 32.5 38.2 L 22.5 38.2 C 21.6 38.2 21.1 37.6 21.1 36.8 C 21.1 36.1 21.6 35.4 22.5 35.4 L 46.6 35.4 C 47.6 35.4 48.1 36.1 48.1 36.8 C 48.1 37.6 47.6 38.2 46.6 38.2 Z " transform="scale(1,-1)" stroke-dasharray="63.94017601230973" stroke-dashoffset="63.94017601230973"><animate attributeName="stroke-dashoffset" from="63.94017601230973" to="0" dur="1.9182052803692917s" begin="anim10.end" fill="freeze" id="anim11" /></path><path d="M 2.7 8.8 C 2.5 6.5 2.0 4.2 1.2 2.2 C 1.2 2.0 1.2 1.8 1.2 1.6 C 1.2 0.8 1.8 0.3 2.5 0.3 C 3.0 0.3 3.6 0.7 3.9 1.5 C 4.5 3.4 5.1 6.1 5.3 8.4 C 5.4 9.4 4.7 9.9 4.0 9.9 C 3.4 9.9 2.8 9.6 2.7 8.8 Z " transform="scale(1,-1)" stroke-dasharray="22.609007208604726" stroke-dashoffset="22.609007208604726"><animate attributeName="stroke-dashoffset" from="22.609007208604726" to="0" dur="0.6782702162581418s" begin="anim11.end" fill="freeze" id="anim12" /></path><path d="M 8.4 9.4 C 8.2 10.1 7.7 10.4 7.2 10.4 C 6.5 10.4 5.9 9.8 6.1 8.8 C 6.4 7.6 6.6 5.5 6.7 3.7 C 6.7 2.9 7.3 2.5 7.9 2.5 C 8.6 2.5 9.3 3.0 9.3 4.1 C 9.2 5.8 8.8 8.2 8.4 9.4 Z " transform="scale(1,-1)" stroke-dasharray="18.75609540125126" stroke-dashoffset="18.75609540125126"><animate attributeName="stroke-dashoffset" from="18.75609540125126" to="0" dur="0.5626828620375378s" begin="anim12.end" fill="freeze" id="anim13" /></path><path d="M 11.7 10.4 C 11.4 11.0 10.9 11.2 10.5 11.2 C 9.9 11.2 9.3 10.8 9.3 10.2 C 9.3 10.0 9.4 9.8 9.5 9.6 C 10.0 8.5 10.5 7.0 10.8 5.5 C 11.0 4.8 11.5 4.4 12.0 4.4 C 12.7 4.4 13.3 4.9 13.3 5.8 C 13.3 6.0 13.2 6.2 13.2 6.4 C 12.8 7.9 12.2 9.3 11.7 10.4 Z " transform="scale(1,-1)" stroke-dasharray="16.97873125131948" stroke-dashoffset="16.97873125131948"><animate attributeName="stroke-dashoffset" from="16.97873125131948" to="0" dur="0.5093619375395844s" begin="anim13.end" fill="freeze" id="anim14" /></path><path d="M 14.7 11.8 C 14.4 12.2 14.0 12.4 13.7 12.4 C 13.1 12.4 12.6 12.0 12.6 11.4 C 12.6 11.2 12.6 11.0 12.8 10.7 C 13.2 9.9 13.9 8.6 14.3 7.4 C 14.6 6.8 15.0 6.5 15.5 6.5 C 16.1 6.5 16.7 7.0 16.7 7.8 C 16.7 8.0 16.6 8.2 16.5 8.5 C 16.1 9.4 15.3 10.9 14.7 11.8 Z" transform="scale(1,-1)" stroke-dasharray="15.284136043775007" stroke-dashoffset="15.284136043775007"><animate attributeName="stroke-dashoffset" from="15.284136043775007" to="0" dur="0.4585240813132502s" begin="anim14.end" fill="freeze" id="anim_end" /></path></g></svg>