<?xml version='1.0' encoding='utf-8'?>
<svg viewBox="0 -44.0 50.0 50.0" version="1.1" xmlns="http://www.w3.org/2000/svg"><rect x="-1000" y="-1000" width="2000" height="2000" stroke="white" fill="white" /><g style="fill:none;stroke:#000000;stroke-width:1"><path d="M 13.0 14.1 C 13.0 16.7 11.8 18.1 8.5 18.1 L 4.2 18.1 C 3.2 18.1 2.7 17.2 2.7 16.4 C 2.7 15.7 3.2 14.9 4.2 14.9 L 7.6 14.9 C 9.2 14.9 9.5 14.7 9.5 13.6 L 9.5 6.1 C 7.6 3.7 5.1 1.7 2.9 0.2 C 2.1 -0.2 1.7 -0.9 1.7 -1.5 C 1.7 -2.4 2.5 -3.2 3.5 -3.2 C 3.8 -3.2 4.2 -3.1 4.7 -2.8 C 7.3 -1.0 9.7 1.2 11.5 3.4 C 15.0 -0.8 20.3 -2.3 32.5 -2.3 C 38.0 -2.3 42.2 -2.2 46.5 -1.9 C 47.6 -1.8 48.1 -0.9 48.1 -0.1 C 48.1 0.9 47.5 1.9 46.1 1.8 C 41.9 1.4 37.9 1.2 32.4 1.2 C 20.1 1.2 15.9 2.7 13.0 6.2 Z " transform="scale(1,-1)" stroke-dasharray="138.75714890890163" stroke-dashoffset="138.75714890890163"><animate attributeName="stroke-dashoffset" from="138.75714890890163" to="0" dur="4.162714467267048s" begin="0s; 15s; 30s; 45s; 60s" fill="freeze" id="anim0" /></path><path d="M 39.4 5.1 C 43.7 5.1 44.8 6.8 44.8 9.3 L 44.8 16.0 C 44.8 18.5 43.7 20.2 39.4 20.2 L 30.6 20.2 C 26.2 20.2 25.2 18.5 25.2 16.0 L 25.2 9.3 C 25.2 5.7 27.4 5.2 30.6 5.1 Z " transform="scale(1,-1)" stroke-dasharray="62.62945970063216" stroke-dashoffset="62.62945970063216"><animate attributeName="stroke-dashoffset" from="62.62945970063216" to="0" dur="1.8788837910189649s" begin="anim0.end" fill="freeze" id="anim1" /></path><path d="M 31.2 8.1 C 29.1 8.1 28.6 8.7 28.6 10.0 L 28.6 15.2 C 28.6 16.6 29.1 17.2 31.2 17.2 L 38.7 17.2 C 40.8 17.2 41.4 16.6 41.4 15.2 L 41.4 10.0 C 41.3 8.2 40.2 8.2 38.7 8.1 Z " transform="scale(1,-1)" stroke-dasharray="40.71341587328304" stroke-dashoffset="40.71341587328304"><animate attributeName="stroke-dashoffset" from="40.71341587328304" to="0" dur="1.2214024761984912s" begin="anim1.end" fill="freeze" id="anim2" /></path><path d="M 46.2 26.0 C 47.2 26.0 47.7 26.8 47.7 27.5 C 47.7 28.3 47.2 29.1 46.2 29.1 L 23.1 29.1 L 23.1 34.3 C 29.2 35.0 35.5 35.9 41.7 37.6 C 42.8 37.9 43.2 38.7 43.2 39.4 C 43.2 40.2 42.5 41.1 41.5 41.1 C 41.2 41.1 41.0 41.1 40.8 41.0 C 35.0 39.2 28.8 38.1 22.6 37.4 C 22.2 37.6 21.8 37.8 21.3 37.8 C 20.4 37.8 19.5 37.2 19.5 36.1 L 19.5 29.2 C 19.5 19.7 18.4 14.3 15.2 9.4 C 15.0 9.0 14.9 8.7 14.9 8.3 C 14.9 7.4 15.7 6.7 16.6 6.7 C 17.2 6.7 17.8 7.0 18.2 7.7 C 21.2 12.4 22.8 17.6 23.1 26.0 Z " transform="scale(1,-1)" stroke-dasharray="156.14605287887724" stroke-dashoffset="156.14605287887724"><animate attributeName="stroke-dashoffset" from="156.14605287887724" to="0" dur="4.684381586366317s" begin="anim2.end" fill="freeze" id="anim3" /></path><path d="M 9.2 40.5 C 8.9 40.7 8.6 40.8 8.2 40.8 C 7.2 40.8 6.5 40.0 6.5 39.2 C 6.5 38.7 6.8 38.1 7.5 37.6 C 9.0 36.7 10.0 36.0 11.6 34.4 C 12.0 34.0 12.5 33.8 13.0 33.8 C 13.9 33.8 14.7 34.6 14.7 35.5 C 14.7 36.0 14.4 36.6 13.9 37.1 C 12.3 38.6 11.0 39.5 9.2 40.5 Z " transform="scale(1,-1)" stroke-dasharray="22.690548293265376" stroke-dashoffset="22.690548293265376"><animate attributeName="stroke-dashoffset" from="22.690548293265376" to="0" dur="0.6807164487979612s" begin="anim3.end" fill="freeze" id="anim4" /></path><path d="M 6.4 30.3 C 6.0 30.5 5.7 30.6 5.3 30.6 C 4.4 30.6 3.6 29.9 3.6 29.0 C 3.6 28.5 3.9 27.9 4.6 27.5 C 6.1 26.6 7.1 25.8 8.7 24.2 C 9.1 23.8 9.6 23.6 10.1 23.6 C 11.0 23.6 11.8 24.4 11.8 25.4 C 11.8 25.9 11.5 26.5 11.0 27.0 C 9.4 28.4 8.1 29.4 6.4 30.3 Z" transform="scale(1,-1)" stroke-dasharray="22.720091828937335" stroke-dashoffset="22.720091828937335"><animate attributeName="stroke-dashoffset" from="22.720091828937335" to="0" dur="0.68160275486812s" begin="anim4.end" fill="freeze" id="anim_end" /></path></g></svg>