<?xml version='1.0' encoding='utf-8'?>
<svg viewBox="0 -44.0 50.0 50.0" version="1.1" xmlns="http://www.w3.org/2000/svg"><rect x="-1000" y="-1000" width="2000" height="2000" stroke="white" fill="white" /><g style="fill:none;stroke:#000000;stroke-width:1"><path d="M 32.0 29.5 L 32.0 26.5 L 24.4 26.5 C 23.4 26.5 23.0 25.7 23.0 25.0 C 23.0 24.2 23.4 23.5 24.4 23.5 L 32.0 23.5 L 32.0 20.2 L 21.3 20.2 C 20.4 20.2 19.9 19.5 19.9 18.8 C 19.9 18.0 20.4 17.2 21.3 17.2 L 27.4 17.2 C 27.0 17.0 26.8 16.7 26.8 16.2 C 26.8 15.9 26.9 15.5 27.1 15.2 C 27.6 14.5 27.9 13.9 28.3 13.0 C 28.5 12.8 28.6 12.5 28.8 12.4 L 22.2 12.4 C 21.2 12.4 20.8 11.6 20.8 10.9 C 20.8 10.1 21.2 9.3 22.2 9.3 L 32.0 9.3 L 32.0 6.1 L 24.1 6.1 C 23.1 6.1 22.7 5.3 22.7 4.5 C 22.7 3.8 23.1 3.1 24.1 3.1 L 32.0 3.1 L 32.0 -2.9 C 32.0 -3.9 32.8 -4.4 33.6 -4.4 C 34.5 -4.4 35.2 -3.9 35.2 -2.9 L 35.2 3.1 L 43.8 3.1 C 44.7 3.1 45.2 3.8 45.2 4.5 C 45.2 5.3 44.7 6.1 43.8 6.1 L 35.2 6.1 L 35.2 9.3 L 46.0 9.3 C 46.9 9.3 47.4 10.1 47.4 10.9 C 47.4 11.6 46.9 12.4 46.0 12.4 L 38.9 12.4 C 39.5 13.2 40.0 14.2 40.5 15.2 C 40.6 15.5 40.7 15.8 40.7 16.0 C 40.7 16.6 40.4 17.0 39.9 17.2 L 47.0 17.2 C 47.9 17.2 48.4 18.0 48.4 18.8 C 48.4 19.5 47.9 20.2 47.0 20.2 L 35.3 20.2 L 35.3 23.5 L 43.5 23.5 C 44.5 23.5 45.0 24.2 45.0 25.0 C 45.0 25.7 44.5 26.5 43.5 26.5 L 35.3 26.5 L 35.3 29.5 L 41.4 29.5 C 44.9 29.5 46.0 30.6 46.0 33.1 L 46.0 36.5 C 46.0 39.0 44.9 40.2 41.4 40.2 L 26.4 40.2 C 22.9 40.2 21.7 39.0 21.7 36.5 L 21.7 33.1 C 21.8 30.0 23.6 29.5 26.4 29.5 Z " transform="scale(1,-1)" stroke-dasharray="279.7163123949357" stroke-dashoffset="279.7163123949357"><animate attributeName="stroke-dashoffset" from="279.7163123949357" to="0" dur="8.39148937184807s" begin="0s; 15s; 30s; 45s; 60s" fill="freeze" id="anim0" /></path><path d="M 27.0 32.1 C 25.4 32.1 24.9 32.5 24.9 33.5 L 24.9 36.1 C 24.9 37.2 25.4 37.5 27.0 37.5 L 28.7 37.5 L 28.7 32.1 Z " transform="scale(1,-1)" stroke-dasharray="17.27351537052924" stroke-dashoffset="17.27351537052924"><animate attributeName="stroke-dashoffset" from="17.27351537052924" to="0" dur="0.5182054611158772s" begin="anim0.end" fill="freeze" id="anim1" /></path><path d="M 31.7 37.5 L 35.6 37.5 L 35.6 32.1 L 31.7 32.1 Z " transform="scale(1,-1)" stroke-dasharray="18.6" stroke-dashoffset="18.6"><animate attributeName="stroke-dashoffset" from="18.6" to="0" dur="0.558s" begin="anim1.end" fill="freeze" id="anim2" /></path><path d="M 38.6 37.5 L 40.8 37.5 C 42.3 37.5 42.8 37.2 42.8 36.1 L 42.8 33.5 C 42.8 32.5 42.3 32.1 40.8 32.1 L 38.6 32.1 Z " transform="scale(1,-1)" stroke-dasharray="18.087491161624573" stroke-dashoffset="18.087491161624573"><animate attributeName="stroke-dashoffset" from="18.087491161624573" to="0" dur="0.5426247348487372s" begin="anim2.end" fill="freeze" id="anim3" /></path><path d="M 31.0 12.4 C 31.2 12.6 31.4 13.0 31.4 13.5 C 31.4 13.8 31.3 14.2 31.1 14.6 C 30.7 15.3 30.2 16.0 29.7 16.8 C 29.6 16.9 29.4 17.1 29.2 17.2 L 38.4 17.2 C 38.1 17.1 37.9 16.8 37.6 16.4 C 37.0 15.0 36.4 13.7 35.6 12.4 Z " transform="scale(1,-1)" stroke-dasharray="25.02386270030452" stroke-dashoffset="25.02386270030452"><animate attributeName="stroke-dashoffset" from="25.02386270030452" to="0" dur="0.7507158810091356s" begin="anim3.end" fill="freeze" id="anim4" /></path><path d="M 13.0 16.3 L 13.0 21.9 L 17.2 21.9 C 18.1 21.9 18.4 22.6 18.4 23.3 C 18.4 24.0 18.1 24.7 17.2 24.7 L 13.0 24.7 L 13.0 29.4 L 17.2 29.4 C 18.1 29.4 18.4 30.1 18.4 30.8 C 18.4 31.5 18.1 32.2 17.2 32.2 L 13.0 32.2 L 13.0 37.1 L 18.1 37.1 C 19.1 37.1 19.5 37.8 19.5 38.5 C 19.5 39.2 19.1 40.0 18.1 40.0 L 7.8 40.0 C 4.4 40.0 3.2 38.6 3.2 35.6 L 3.2 17.3 C 3.2 14.5 4.4 13.4 7.4 13.4 L 14.7 13.4 C 16.4 13.4 16.7 13.0 16.7 12.0 C 16.7 8.5 16.2 4.4 15.4 2.0 C 14.9 0.3 14.0 -0.4 12.7 -0.4 C 11.8 -0.4 11.0 -0.2 10.6 -0.2 C 9.3 0.1 8.6 -0.8 8.6 -1.8 C 8.6 -2.5 9.1 -3.2 10.0 -3.4 C 10.8 -3.6 11.7 -3.7 12.8 -3.7 C 15.4 -3.7 17.2 -2.6 18.3 1.0 C 19.2 4.0 19.7 8.1 19.7 12.3 C 19.8 14.7 18.6 16.3 15.4 16.3 Z " transform="scale(1,-1)" stroke-dasharray="155.6504138459039" stroke-dashoffset="155.6504138459039"><animate attributeName="stroke-dashoffset" from="155.6504138459039" to="0" dur="4.669512415377117s" begin="anim4.end" fill="freeze" id="anim5" /></path><path d="M 6.2 24.7 L 6.2 29.4 L 10.1 29.4 L 10.1 24.7 Z " transform="scale(1,-1)" stroke-dasharray="17.199999999999996" stroke-dashoffset="17.199999999999996"><animate attributeName="stroke-dashoffset" from="17.199999999999996" to="0" dur="0.5159999999999999s" begin="anim5.end" fill="freeze" id="anim6" /></path><path d="M 6.2 21.9 L 10.1 21.9 L 10.1 16.3 L 7.9 16.3 C 6.7 16.3 6.2 16.7 6.2 17.9 Z " transform="scale(1,-1)" stroke-dasharray="18.42832361432365" stroke-dashoffset="18.42832361432365"><animate attributeName="stroke-dashoffset" from="18.42832361432365" to="0" dur="0.5528497084297095s" begin="anim6.end" fill="freeze" id="anim7" /></path><path d="M 10.1 37.1 L 10.1 32.2 L 6.2 32.2 L 6.2 35.1 C 6.2 36.6 6.7 37.1 8.2 37.1 Z " transform="scale(1,-1)" stroke-dasharray="16.92865348206529" stroke-dashoffset="16.92865348206529"><animate attributeName="stroke-dashoffset" from="16.92865348206529" to="0" dur="0.5078596044619587s" begin="anim7.end" fill="freeze" id="anim8" /></path><path d="M 2.5 8.6 C 2.2 6.3 1.8 4.1 1.1 2.0 C 1.0 1.8 1.0 1.6 1.0 1.4 C 1.0 0.7 1.6 0.2 2.2 0.2 C 2.8 0.2 3.3 0.5 3.6 1.2 C 4.3 3.2 4.8 6.0 5.1 8.3 C 5.2 9.2 4.5 9.8 3.8 9.8 C 3.2 9.8 2.6 9.3 2.5 8.6 Z " transform="scale(1,-1)" stroke-dasharray="22.522016507467708" stroke-dashoffset="22.522016507467708"><animate attributeName="stroke-dashoffset" from="22.522016507467708" to="0" dur="0.6756604952240312s" begin="anim8.end" fill="freeze" id="anim9" /></path><path d="M 8.0 9.2 C 7.9 9.9 7.3 10.2 6.9 10.2 C 6.2 10.2 5.5 9.7 5.7 8.7 C 6.0 7.5 6.2 5.4 6.2 3.6 C 6.2 2.7 6.9 2.3 7.4 2.3 C 8.1 2.3 8.8 2.9 8.8 4.0 C 8.8 5.6 8.3 8.1 8.0 9.2 Z " transform="scale(1,-1)" stroke-dasharray="18.690081741549008" stroke-dashoffset="18.690081741549008"><animate attributeName="stroke-dashoffset" from="18.690081741549008" to="0" dur="0.5607024522464702s" begin="anim9.end" fill="freeze" id="anim10" /></path><path d="M 11.2 10.2 C 10.9 10.7 10.4 11.0 10.0 11.0 C 9.4 11.0 8.9 10.6 8.9 10.0 C 8.9 9.8 8.9 9.6 9.0 9.3 C 9.5 8.2 9.9 6.9 10.2 5.3 C 10.3 4.5 10.8 4.2 11.4 4.2 C 12.1 4.2 12.9 4.9 12.6 6.1 C 12.2 7.7 11.7 9.1 11.2 10.2 Z " transform="scale(1,-1)" stroke-dasharray="16.81064982110131" stroke-dashoffset="16.81064982110131"><animate attributeName="stroke-dashoffset" from="16.81064982110131" to="0" dur="0.5043194946330393s" begin="anim10.end" fill="freeze" id="anim11" /></path><path d="M 14.0 11.5 C 13.8 11.9 13.4 12.1 13.0 12.1 C 12.5 12.1 12.0 11.7 12.0 11.1 C 12.0 11.0 12.0 10.7 12.1 10.5 C 12.6 9.7 13.2 8.3 13.6 7.1 C 13.8 6.5 14.2 6.2 14.7 6.2 C 15.2 6.2 15.8 6.7 15.8 7.5 C 15.8 7.7 15.8 7.9 15.7 8.1 C 15.4 9.1 14.7 10.6 14.0 11.5 Z" transform="scale(1,-1)" stroke-dasharray="14.978242709277108" stroke-dashoffset="14.978242709277108"><animate attributeName="stroke-dashoffset" from="14.978242709277108" to="0" dur="0.44934728127831325s" begin="anim11.end" fill="freeze" id="anim_end" /></path></g></svg>