<?xml version='1.0' encoding='utf-8'?>
<svg viewBox="0 -44.0 50.0 50.0" version="1.1" xmlns="http://www.w3.org/2000/svg"><rect x="-1000" y="-1000" width="2000" height="2000" stroke="white" fill="white" /><g style="fill:none;stroke:#000000;stroke-width:1"><path d="M 15.4 13.2 L 21.5 13.2 C 22.5 13.2 23.0 13.9 23.0 14.7 C 23.0 15.5 22.5 16.2 21.5 16.2 L 15.4 16.2 L 15.4 23.0 L 23.3 23.0 C 24.3 23.0 24.8 23.7 24.8 24.5 C 24.8 25.2 24.3 26.0 23.3 26.0 L 15.1 26.0 L 15.1 32.2 L 21.2 32.2 C 22.2 32.2 22.7 33.0 22.7 33.8 C 22.7 34.6 22.2 35.3 21.2 35.3 L 15.1 35.3 L 15.1 40.7 C 15.1 41.8 14.2 42.3 13.4 42.3 C 12.5 42.3 11.7 41.8 11.7 40.7 L 11.7 35.3 L 6.0 35.3 C 5.1 35.3 4.5 34.6 4.5 33.8 C 4.5 33.0 5.1 32.2 6.0 32.2 L 11.7 32.2 L 11.7 26.0 L 3.2 26.0 C 2.2 26.0 1.7 25.2 1.7 24.5 C 1.7 23.7 2.2 23.0 3.2 23.0 L 12.0 23.0 L 12.0 4.8 C 10.2 6.2 8.8 8.1 7.8 10.1 C 8.2 12.4 8.5 14.7 8.6 16.9 C 8.6 18.1 7.7 18.8 6.9 18.8 C 6.1 18.8 5.2 18.2 5.2 17.1 C 4.9 11.0 3.6 3.9 1.5 -1.0 C 1.4 -1.2 1.3 -1.6 1.3 -1.8 C 1.3 -2.8 2.1 -3.4 2.9 -3.4 C 3.5 -3.4 4.1 -3.1 4.5 -2.2 C 5.5 0.2 6.3 3.0 7.0 6.0 C 10.8 -0.1 17.1 -2.5 30.3 -2.5 C 36.5 -2.5 41.5 -2.2 46.8 -1.8 C 47.9 -1.7 48.4 -0.9 48.4 -0.1 C 48.4 0.9 47.7 1.9 46.4 1.8 C 41.2 1.2 36.2 1.0 30.4 1.0 C 23.6 1.0 18.8 1.5 15.4 2.9 Z " transform="scale(1,-1)" stroke-dasharray="288.1769718972816" stroke-dashoffset="288.1769718972816"><animate attributeName="stroke-dashoffset" from="288.1769718972816" to="0" dur="8.645309156918447s" begin="0s; 15s; 30s; 45s; 60s" fill="freeze" id="anim0" /></path><path d="M 41.3 13.4 L 46.6 14.5 C 47.6 14.7 48.0 15.3 48.0 16.0 C 48.0 16.9 47.2 17.8 46.1 17.6 L 41.3 16.7 L 41.3 40.0 C 41.3 41.0 40.5 41.6 39.6 41.6 C 38.8 41.6 37.9 41.0 37.9 40.0 L 37.9 16.0 L 25.5 13.6 C 24.5 13.4 24.1 12.7 24.1 12.0 C 24.1 11.2 24.9 10.2 26.1 10.5 L 37.9 12.8 L 37.9 4.5 C 37.9 3.5 38.8 3.0 39.6 3.0 C 40.5 3.0 41.3 3.5 41.3 4.5 Z " transform="scale(1,-1)" stroke-dasharray="120.01441264257" stroke-dashoffset="120.01441264257"><animate attributeName="stroke-dashoffset" from="120.01441264257" to="0" dur="3.6004323792770996s" begin="anim0.end" fill="freeze" id="anim1" /></path><path d="M 30.7 35.9 C 30.3 36.2 29.9 36.4 29.5 36.4 C 28.6 36.4 27.9 35.6 27.9 34.8 C 27.9 34.4 28.1 34.0 28.5 33.6 C 29.7 32.6 30.8 31.4 31.8 30.2 C 32.2 29.6 32.7 29.4 33.2 29.4 C 34.1 29.4 34.9 30.1 34.9 31.0 C 34.9 31.4 34.8 31.8 34.5 32.2 C 33.5 33.5 32.0 34.9 30.7 35.9 Z " transform="scale(1,-1)" stroke-dasharray="20.82379339775359" stroke-dashoffset="20.82379339775359"><animate attributeName="stroke-dashoffset" from="20.82379339775359" to="0" dur="0.6247138019326077s" begin="anim1.end" fill="freeze" id="anim2" /></path><path d="M 30.0 25.5 C 29.6 25.8 29.2 25.9 28.8 25.9 C 27.9 25.9 27.2 25.2 27.2 24.4 C 27.2 23.9 27.4 23.5 27.8 23.2 C 29.0 22.2 30.2 21.1 31.2 19.8 C 31.7 19.3 32.1 19.1 32.6 19.1 C 33.5 19.1 34.3 19.9 34.3 20.8 C 34.3 21.2 34.1 21.6 33.8 22.1 C 32.8 23.3 31.2 24.7 30.0 25.5 Z" transform="scale(1,-1)" stroke-dasharray="20.72421481294379" stroke-dashoffset="20.72421481294379"><animate attributeName="stroke-dashoffset" from="20.72421481294379" to="0" dur="0.6217264443883136s" begin="anim2.end" fill="freeze" id="anim_end" /></path></g></svg>