<?xml version='1.0' encoding='utf-8'?>
<svg viewBox="0 -44.0 50.0 50.0" version="1.1" xmlns="http://www.w3.org/2000/svg"><rect x="-1000" y="-1000" width="2000" height="2000" stroke="white" fill="white" /><g style="fill:none;stroke:#000000;stroke-width:1"><path d="M 22.6 10.7 L 22.6 3.2 C 22.6 1.7 23.4 0.8 24.8 0.8 C 26.1 0.8 27.0 1.7 27.0 3.2 L 27.0 10.7 L 35.6 10.7 C 36.6 10.7 37.1 11.2 37.1 12.1 C 37.1 13.0 36.6 13.5 35.6 13.5 L 27.0 13.5 L 27.0 16.4 L 27.9 17.8 L 35.6 17.8 C 36.6 17.8 37.1 18.2 37.1 19.2 C 37.1 20.1 36.6 20.6 35.6 20.6 L 29.5 20.6 L 37.9 33.9 C 38.0 34.1 38.1 34.6 38.1 35.0 C 38.1 36.0 37.0 37.0 35.8 37.0 C 35.1 37.0 34.5 36.6 34.2 36.1 L 25.1 19.9 L 15.9 36.1 C 15.6 36.6 14.9 37.0 14.2 37.0 C 12.9 37.0 11.8 36.0 11.8 35.0 C 11.8 34.6 12.0 34.1 12.1 33.8 L 20.1 20.6 L 14.4 20.6 C 13.4 20.6 12.9 20.1 12.9 19.2 C 12.9 18.2 13.4 17.8 14.4 17.8 L 21.7 17.8 L 22.6 16.2 L 22.6 13.5 L 14.4 13.5 C 13.4 13.5 12.9 13.0 12.9 12.1 C 12.9 11.2 13.4 10.7 14.4 10.7 Z" transform="scale(1,-1)" stroke-dasharray="192.1273985679596" stroke-dashoffset="192.1273985679596"><animate attributeName="stroke-dashoffset" from="192.1273985679596" to="0" dur="5.763821957038788s" begin="0s; 15s; 30s; 45s; 60s" fill="freeze" id="anim0" /></path></g></svg>