<?xml version='1.0' encoding='utf-8'?>
<svg viewBox="0 -44.0 50.0 50.0" version="1.1" xmlns="http://www.w3.org/2000/svg"><rect x="-1000" y="-1000" width="2000" height="2000" stroke="white" fill="white" /><g style="fill:none;stroke:#000000;stroke-width:1"><path d="M 38.9 10.5 C 42.6 10.5 43.9 12.2 43.9 14.5 L 43.9 20.9 C 43.9 23.2 42.6 25.0 38.9 25.0 L 31.2 25.0 C 34.8 26.6 38.1 28.4 40.4 30.2 C 40.9 30.7 41.1 31.2 41.1 31.7 C 41.1 32.5 40.4 33.2 39.5 33.2 C 39.2 33.2 38.7 33.1 38.3 32.8 C 33.8 28.9 26.1 25.2 18.6 23.4 C 17.6 23.1 17.2 22.5 17.2 21.9 C 17.2 21.1 17.9 20.2 18.8 20.2 C 19.0 20.2 19.2 20.3 19.4 20.4 C 20.5 20.7 21.8 21.1 23.1 21.5 C 23.0 21.3 23.0 21.1 23.0 20.9 L 23.0 14.5 C 23.0 12.2 24.3 10.5 28.0 10.5 L 31.2 10.5 L 31.2 1.6 C 31.2 0.4 30.8 0.1 29.8 0.1 C 29.3 0.1 28.7 0.1 28.0 0.2 C 26.7 0.6 26.0 -0.5 26.0 -1.5 C 26.0 -2.1 26.4 -2.9 27.4 -3.1 C 28.2 -3.3 29.0 -3.4 29.9 -3.4 C 33.1 -3.4 34.6 -2.2 34.6 1.1 L 34.6 10.5 Z " transform="scale(1,-1)" stroke-dasharray="135.92285700935588" stroke-dashoffset="135.92285700935588"><animate attributeName="stroke-dashoffset" from="135.92285700935588" to="0" dur="4.077685710280676s" begin="0s; 15s; 30s; 45s; 60s" fill="freeze" id="anim0" /></path><path d="M 28.6 13.2 C 27.3 13.3 26.5 13.4 26.4 14.9 L 26.4 16.4 L 40.5 16.4 L 40.5 14.9 C 40.5 13.8 40.1 13.2 38.3 13.2 Z " transform="scale(1,-1)" stroke-dasharray="33.2244542109831" stroke-dashoffset="33.2244542109831"><animate attributeName="stroke-dashoffset" from="33.2244542109831" to="0" dur="0.9967336263294929s" begin="anim0.end" fill="freeze" id="anim1" /></path><path d="M 40.5 19.2 L 26.4 19.2 L 26.4 20.5 C 26.4 21.7 26.8 22.2 28.6 22.2 L 38.3 22.2 C 40.1 22.2 40.5 21.7 40.5 20.5 Z " transform="scale(1,-1)" stroke-dasharray="32.93567732760242" stroke-dashoffset="32.93567732760242"><animate attributeName="stroke-dashoffset" from="32.93567732760242" to="0" dur="0.9880703198280726s" begin="anim1.end" fill="freeze" id="anim2" /></path><path d="M 9.2 40.2 C 5.7 40.2 4.5 38.7 4.5 35.6 L 4.5 -2.4 C 4.5 -3.4 5.4 -4.0 6.2 -4.0 C 7.1 -4.0 8.0 -3.4 8.0 -2.4 L 8.0 35.1 C 8.0 36.5 8.4 37.0 9.7 37.0 L 12.6 37.0 C 13.5 37.0 13.9 36.7 13.9 36.0 C 13.9 35.8 13.9 35.5 13.8 35.1 C 13.1 32.2 11.8 29.0 10.5 26.4 C 10.1 25.8 9.9 25.2 9.9 24.6 C 9.9 23.7 10.3 23.0 11.1 22.2 C 13.8 19.7 15.0 16.7 15.0 13.7 C 15.0 10.9 14.1 9.8 12.8 9.8 C 12.1 9.8 11.6 9.9 11.0 10.0 C 9.8 10.3 9.0 9.3 9.0 8.2 C 9.0 7.5 9.5 6.8 10.4 6.6 C 11.2 6.3 12.0 6.2 13.0 6.2 C 16.4 6.2 18.5 8.8 18.5 13.7 C 18.5 17.9 17.1 21.1 13.2 24.7 C 14.8 27.8 16.2 31.4 17.2 34.6 C 17.4 35.4 17.6 36.1 17.6 36.6 C 17.6 38.9 16.0 40.2 13.1 40.2 Z " transform="scale(1,-1)" stroke-dasharray="181.9786604413508" stroke-dashoffset="181.9786604413508"><animate attributeName="stroke-dashoffset" from="181.9786604413508" to="0" dur="5.459359813240524s" begin="anim2.end" fill="freeze" id="anim3" /></path><path d="M 24.7 37.6 C 23.1 35.6 21.5 34.2 19.6 32.9 C 18.9 32.4 18.7 31.8 18.7 31.3 C 18.7 30.4 19.4 29.7 20.3 29.7 C 20.7 29.7 21.1 29.8 21.6 30.1 C 23.7 31.6 25.7 33.5 27.4 35.5 C 27.7 35.9 27.9 36.3 27.9 36.6 C 27.9 37.6 27.0 38.3 26.1 38.3 C 25.7 38.3 25.1 38.1 24.7 37.6 Z " transform="scale(1,-1)" stroke-dasharray="26.302130262928976" stroke-dashoffset="26.302130262928976"><animate attributeName="stroke-dashoffset" from="26.302130262928976" to="0" dur="0.7890639078878693s" begin="anim3.end" fill="freeze" id="anim4" /></path><path d="M 40.9 38.3 C 40.5 38.5 40.1 38.6 39.7 38.6 C 38.7 38.6 38.0 37.9 38.0 37.1 C 38.0 36.6 38.2 36.1 38.9 35.6 C 40.7 34.5 42.9 32.9 44.4 31.6 C 44.9 31.2 45.4 31.0 45.8 31.0 C 46.8 31.0 47.5 31.8 47.5 32.6 C 47.5 33.2 47.2 33.8 46.7 34.2 C 44.9 35.8 42.7 37.3 40.9 38.3 Z " transform="scale(1,-1)" stroke-dasharray="25.50483845095966" stroke-dashoffset="25.50483845095966"><animate attributeName="stroke-dashoffset" from="25.50483845095966" to="0" dur="0.7651451535287898s" begin="anim4.end" fill="freeze" id="anim5" /></path><path d="M 41.1 7.9 C 40.7 8.4 40.2 8.6 39.7 8.6 C 38.8 8.6 37.9 7.9 37.9 7.0 C 37.9 6.6 38.1 6.2 38.5 5.7 C 40.2 3.8 42.7 1.4 45.2 -0.2 C 45.6 -0.5 46.0 -0.6 46.3 -0.6 C 47.2 -0.6 48.0 0.2 48.0 1.2 C 48.0 1.8 47.7 2.5 46.9 3.0 C 45.0 4.2 42.5 6.3 41.1 7.9 Z " transform="scale(1,-1)" stroke-dasharray="28.443184565386623" stroke-dashoffset="28.443184565386623"><animate attributeName="stroke-dashoffset" from="28.443184565386623" to="0" dur="0.8532955369615987s" begin="anim5.end" fill="freeze" id="anim6" /></path><path d="M 31.3 33.8 C 31.3 32.8 31.0 32.6 30.2 32.6 C 29.6 32.6 29.2 32.6 28.6 32.7 C 27.4 32.9 26.7 32.1 26.7 31.2 C 26.7 30.5 27.1 29.8 28.0 29.6 C 28.8 29.4 29.6 29.3 30.3 29.3 C 33.1 29.3 34.7 30.4 34.7 33.2 L 34.7 40.0 C 34.7 41.0 33.9 41.6 33.0 41.6 C 32.1 41.6 31.3 41.0 31.3 40.0 Z " transform="scale(1,-1)" stroke-dasharray="35.885641149151766" stroke-dashoffset="35.885641149151766"><animate attributeName="stroke-dashoffset" from="35.885641149151766" to="0" dur="1.076569234474553s" begin="anim6.end" fill="freeze" id="anim7" /></path><path d="M 24.1 7.9 C 22.1 5.6 19.5 3.6 17.2 2.2 C 16.4 1.8 16.1 1.2 16.1 0.6 C 16.1 -0.4 16.8 -1.2 17.8 -1.2 C 18.2 -1.2 18.6 -1.1 18.9 -0.9 C 21.6 0.7 24.6 3.2 26.7 5.5 C 27.1 6.0 27.2 6.5 27.2 6.9 C 27.2 7.8 26.4 8.5 25.5 8.5 C 25.0 8.5 24.5 8.3 24.1 7.9 Z" transform="scale(1,-1)" stroke-dasharray="30.748659628182406" stroke-dashoffset="30.748659628182406"><animate attributeName="stroke-dashoffset" from="30.748659628182406" to="0" dur="0.9224597888454721s" begin="anim7.end" fill="freeze" id="anim_end" /></path></g></svg>