<?xml version='1.0' encoding='utf-8'?>
<svg viewBox="0.0 -6.0 50.0 50.0" version="1.1" xmlns="http://www.w3.org/2000/svg"><rect x="-1000" y="-1000" width="2000" height="2000" stroke="white" fill="white" /><g style="fill:none;stroke:#000000;stroke-width:1"><path d="M 25.0 -43.1 C 38.3 -43.1 49.1 -32.3 49.1 -19.0 C 49.1 -5.7 38.3 5.1 25.0 5.1 C 11.7 5.1 0.9 -5.7 0.9 -19.0 C 0.9 -32.3 11.7 -43.1 25.0 -43.1 Z " transform="translate(0.0 38.0)" stroke-dasharray="151.42853538357596" stroke-dashoffset="151.42853538357596"><animate attributeName="stroke-dashoffset" from="151.42853538357596" to="0" dur="4.542856061507279s" begin="0s" fill="freeze" /></path><path d="M 23.6 -28.2 L 23.6 -6.2 C 23.6 -4.6 24.4 -3.8 26.0 -3.8 C 27.6 -3.8 28.4 -4.7 28.4 -6.2 L 28.4 -31.5 C 28.4 -33.2 27.4 -34.2 25.7 -34.2 C 24.4 -34.2 23.6 -33.9 22.7 -33.0 C 20.4 -30.9 18.4 -29.2 16.6 -27.8 C 15.9 -27.4 15.7 -26.9 15.7 -26.1 C 15.7 -24.9 16.6 -24.0 17.8 -24.0 C 18.5 -24.0 19.0 -24.2 19.6 -24.6 C 20.7 -25.4 22.6 -27.1 23.6 -28.2 Z" transform="translate(0.0 38.0)" stroke-dasharray="83.43258861485883" stroke-dashoffset="83.43258861485883"><animate attributeName="stroke-dashoffset" from="83.43258861485883" to="0" dur="2.5029776584457646s" begin="4.542856061507279s" fill="freeze" /></path></g></svg>