<?xml version='1.0' encoding='utf-8'?>
<svg viewBox="0.0 -6.0 50.0 50.0" version="1.1" xmlns="http://www.w3.org/2000/svg"><rect x="-1000" y="-1000" width="2000" height="2000" stroke="white" fill="white" /><g style="fill:none;stroke:#000000;stroke-width:1"><path d="M 8.9 -42.0 C 4.5 -34.4 2.8 -27.6 2.8 -19.0 C 2.8 -10.4 4.6 -3.6 9.1 4.0 " transform="translate(0.0 38.0)" stroke-dasharray="48.27466542197335" stroke-dashoffset="48.27466542197335"><animate attributeName="stroke-dashoffset" from="48.27466542197335" to="0" dur="1.4482399626592006s" begin="0s; anim_end.end" fill="freeze" id="anim0" /></path><path d="M 41.0 -42.0 C 45.4 -34.5 47.2 -27.6 47.2 -19.0 C 47.2 -10.4 45.4 -3.6 40.9 4.0 " transform="translate(0.0 38.0)" stroke-dasharray="48.30439953283786" stroke-dashoffset="48.30439953283786"><animate attributeName="stroke-dashoffset" from="48.30439953283786" to="0" dur="1.449131985985136s" begin="anim0.end" fill="freeze" id="anim1" /></path><path d="M 16.4 -28.6 C 20.1 -17.8 21.1 -14.7 23.1 -8.8 C 23.6 -7.5 24.2 -7.3 24.9 -7.3 C 25.6 -7.3 26.2 -7.7 26.6 -8.8 L 33.8 -28.6" transform="translate(0.0 38.0)" stroke-dasharray="46.94119945880933" stroke-dashoffset="46.94119945880933"><animate attributeName="stroke-dashoffset" from="46.94119945880933" to="0" dur="1.4082359837642797s" begin="anim1.end" fill="freeze" id="anim_end" /></path></g></svg>