<?xml version='1.0' encoding='utf-8'?>
<svg viewBox="0.0 -6.0 50.0 50.0" version="1.1" xmlns="http://www.w3.org/2000/svg"><rect x="-1000" y="-1000" width="2000" height="2000" stroke="white" fill="white" /><g style="fill:none;stroke:#000000;stroke-width:1"><path d="M 17.1 1.4 L 33.1 1.4 C 36.1 1.4 37.2 0.5 37.2 -1.8 L 37.2 -11.4 C 37.2 -13.6 36.1 -14.6 33.1 -14.6 L 17.1 -14.6 C 14.2 -14.6 13.1 -13.6 13.1 -11.4 L 13.1 -1.8 C 13.1 0.5 14.2 1.4 17.1 1.4 Z " transform="translate(0.0 38.0)" stroke-dasharray="75.14247395159339" stroke-dashoffset="75.14247395159339"><animate attributeName="stroke-dashoffset" from="75.14247395159339" to="0" dur="2.2542742185478017s" begin="0s; anim_end.end" fill="freeze" id="anim0" /></path><path d="M 36.9 -6.8 L 13.8 -6.8 " transform="translate(0.0 38.0)" stroke-dasharray="23.099999999999998" stroke-dashoffset="23.099999999999998"><animate attributeName="stroke-dashoffset" from="23.099999999999998" to="0" dur="0.693s" begin="anim0.end" fill="freeze" id="anim1" /></path><path d="M 3.8 -16.6 C 10.8 -19.0 17.9 -23.0 22.6 -27.8 " transform="translate(0.0 38.0)" stroke-dasharray="22.06721289611047" stroke-dashoffset="22.06721289611047"><animate attributeName="stroke-dashoffset" from="22.06721289611047" to="0" dur="0.662016386883314s" begin="anim1.end" fill="freeze" id="anim2" /></path><path d="M 24.9 -19.1 L 24.9 -37.0 " transform="translate(0.0 38.0)" stroke-dasharray="17.9" stroke-dashoffset="17.9"><animate attributeName="stroke-dashoffset" from="17.9" to="0" dur="0.5369999999999999s" begin="anim2.end" fill="freeze" id="anim3" /></path><path d="M 45.4 -29.4 L 5.0 -29.4 " transform="translate(0.0 38.0)" stroke-dasharray="40.4" stroke-dashoffset="40.4"><animate attributeName="stroke-dashoffset" from="40.4" to="0" dur="1.212s" begin="anim3.end" fill="freeze" id="anim4" /></path><path d="M 46.0 -17.1 C 39.1 -19.2 31.6 -23.4 26.9 -27.8 " transform="translate(0.0 38.0)" stroke-dasharray="22.06089620914026" stroke-dashoffset="22.06089620914026"><animate attributeName="stroke-dashoffset" from="22.06089620914026" to="0" dur="0.6618268862742078s" begin="anim4.end" fill="freeze" id="anim5" /></path><path d="M 9.8 -36.0 C 19.6 -36.4 30.4 -37.7 38.6 -39.5" transform="translate(0.0 38.0)" stroke-dasharray="29.045224337472657" stroke-dashoffset="29.045224337472657"><animate attributeName="stroke-dashoffset" from="29.045224337472657" to="0" dur="0.8713567301241797s" begin="anim5.end" fill="freeze" id="anim_end" /></path></g></svg>