<?xml version='1.0' encoding='utf-8'?>
<svg viewBox="0.0 -6.0 50.0 50.0" version="1.1" xmlns="http://www.w3.org/2000/svg"><rect x="-1000" y="-1000" width="2000" height="2000" stroke="white" fill="white" /><g style="fill:none;stroke:#000000;stroke-width:1"><path d="M 17.8 -34.6 L 17.8 -3.4 C 17.8 -1.2 16.6 0.6 14.5 1.4 L 5.1 5.0 C 4.8 5.1 4.5 5.2 4.2 5.2 C 3.5 5.2 2.8 4.2 2.8 3.2 C 2.8 2.8 3.0 2.4 3.5 2.1 L 12.5 -1.1 C 13.7 -1.6 14.4 -3.0 14.4 -4.2 L 14.4 -33.8 C 14.4 -35.0 13.7 -36.4 12.5 -36.9 L 3.5 -40.1 C 3.0 -40.4 2.8 -40.8 2.8 -41.2 C 2.8 -42.2 3.5 -43.2 4.2 -43.2 C 4.5 -43.2 4.8 -43.1 5.1 -43.0 L 14.5 -39.4 C 16.6 -38.5 17.8 -36.8 17.8 -34.6 Z" transform="translate(0.0 38.0)" stroke-dasharray="130.0291897727974" stroke-dashoffset="130.0291897727974"><animate attributeName="stroke-dashoffset" from="130.0291897727974" to="0" dur="3.900875693183922s" begin="0s; anim_end.end" fill="freeze" id="anim0" /></path></g></svg>