<?xml version='1.0' encoding='utf-8'?>
<svg viewBox="0.0 -6.0 50.0 50.0" version="1.1" xmlns="http://www.w3.org/2000/svg"><rect x="-1000" y="-1000" width="2000" height="2000" stroke="white" fill="white" /><g style="fill:none;stroke:#000000;stroke-width:1"><path d="M 41.0 -18.1 C 35.0 -22.0 28.9 -29.8 26.5 -38.5 " transform="translate(0.0 38.0)" stroke-dasharray="25.52944408200765" stroke-dashoffset="25.52944408200765"><animate attributeName="stroke-dashoffset" from="25.52944408200765" to="0" dur="0.7658833224602295s" begin="0s; anim_end.end" fill="freeze" id="anim0" /></path><path d="M 11.8 -0.5 C 14.2 -2.2 16.1 -4.5 17.8 -7.0 " transform="translate(0.0 38.0)" stroke-dasharray="8.893921127880313" stroke-dashoffset="8.893921127880313"><animate attributeName="stroke-dashoffset" from="8.893921127880313" to="0" dur="0.2668176338364094s" begin="anim0.end" fill="freeze" id="anim1" /></path><path d="M 9.1 4.0 C 4.6 -3.6 2.8 -10.4 2.8 -19.0 C 2.8 -27.6 4.5 -34.4 8.9 -42.0 " transform="translate(0.0 38.0)" stroke-dasharray="48.27466542197335" stroke-dashoffset="48.27466542197335"><animate attributeName="stroke-dashoffset" from="48.27466542197335" to="0" dur="1.4482399626592006s" begin="anim1.end" fill="freeze" id="anim2" /></path><path d="M 19.9 1.3 C 20.6 1.5 21.4 1.6 22.2 1.6 C 24.1 1.6 25.1 0.9 25.1 -1.5 L 25.1 -12.4 " transform="translate(0.0 38.0)" stroke-dasharray="18.16970746981072" stroke-dashoffset="18.16970746981072"><animate attributeName="stroke-dashoffset" from="18.16970746981072" to="0" dur="0.5450912240943216s" begin="anim2.end" fill="freeze" id="anim3" /></path><path d="M 39.5 -12.1 L 10.7 -12.1 " transform="translate(0.0 38.0)" stroke-dasharray="28.8" stroke-dashoffset="28.8"><animate attributeName="stroke-dashoffset" from="28.8" to="0" dur="0.864s" begin="anim3.end" fill="freeze" id="anim4" /></path><path d="M 15.9 -22.4 C 14.6 -23.6 13.2 -24.6 12.2 -25.3 " transform="translate(0.0 38.0)" stroke-dasharray="4.704760534103077" stroke-dashoffset="4.704760534103077"><animate attributeName="stroke-dashoffset" from="4.704760534103077" to="0" dur="0.14114281602309228s" begin="anim4.end" fill="freeze" id="anim5" /></path><path d="M 37.9 -0.9 C 35.7 -2.5 33.6 -4.7 31.9 -7.0 " transform="translate(0.0 38.0)" stroke-dasharray="8.588173050111267" stroke-dashoffset="8.588173050111267"><animate attributeName="stroke-dashoffset" from="8.588173050111267" to="0" dur="0.25764519150333803s" begin="anim5.end" fill="freeze" id="anim6" /></path><path d="M 8.7 -16.6 C 14.5 -19.8 20.1 -26.1 22.4 -31.9 C 23.4 -34.1 22.7 -35.5 20.6 -35.5 L 15.1 -35.5 " transform="translate(0.0 38.0)" stroke-dasharray="31.52298173707626" stroke-dashoffset="31.52298173707626"><animate attributeName="stroke-dashoffset" from="31.52298173707626" to="0" dur="0.9456894521122878s" begin="anim6.end" fill="freeze" id="anim7" /></path><path d="M 31.9 -19.4 L 19.1 -19.4 " transform="translate(0.0 38.0)" stroke-dasharray="12.799999999999997" stroke-dashoffset="12.799999999999997"><animate attributeName="stroke-dashoffset" from="12.799999999999997" to="0" dur="0.3839999999999999s" begin="anim7.end" fill="freeze" id="anim8" /></path><path d="M 8.6 -27.6 C 11.6 -30.6 14.7 -35.2 16.1 -39.5 " transform="translate(0.0 38.0)" stroke-dasharray="14.18171393620037" stroke-dashoffset="14.18171393620037"><animate attributeName="stroke-dashoffset" from="14.18171393620037" to="0" dur="0.4254514180860111s" begin="anim8.end" fill="freeze" id="anim9" /></path><path d="M 19.9 -26.9 C 18.6 -28.1 17.1 -29.2 16.1 -29.9 " transform="translate(0.0 38.0)" stroke-dasharray="4.845008065781963" stroke-dashoffset="4.845008065781963"><animate attributeName="stroke-dashoffset" from="4.845008065781963" to="0" dur="0.1453502419734589s" begin="anim9.end" fill="freeze" id="anim10" /></path><path d="M 40.9 4.0 C 45.4 -3.6 47.2 -10.4 47.2 -19.0 C 47.2 -27.6 45.4 -34.5 41.0 -42.0 " transform="translate(0.0 38.0)" stroke-dasharray="48.30439953283786" stroke-dashoffset="48.30439953283786"><animate attributeName="stroke-dashoffset" from="48.30439953283786" to="0" dur="1.449131985985136s" begin="anim10.end" fill="freeze" id="anim11" /></path><path d="M 33.5 -26.6 C 35.7 -28.6 37.4 -30.9 38.3 -33.1 C 39.1 -35.0 38.5 -36.1 36.7 -36.1 L 31.7 -36.1" transform="translate(0.0 38.0)" stroke-dasharray="17.476606309836157" stroke-dashoffset="17.476606309836157"><animate attributeName="stroke-dashoffset" from="17.476606309836157" to="0" dur="0.5242981892950846s" begin="anim11.end" fill="freeze" id="anim_end" /></path></g></svg>