<?xml version='1.0' encoding='utf-8'?>
<svg viewBox="0.0 -6.0 50.0 50.0" version="1.1" xmlns="http://www.w3.org/2000/svg"><rect x="-1000" y="-1000" width="2000" height="2000" stroke="white" fill="white" /><g style="fill:none;stroke:#000000;stroke-width:1"><path d="M 24.1 -14.8 L 24.1 -27.6 L 25.9 -27.6 C 26.4 -25.3 27.4 -24.4 29.1 -24.4 C 30.8 -24.4 31.8 -25.6 31.8 -27.8 L 31.8 -41.0 C 41.1 -37.9 48.0 -29.4 48.0 -19.1 C 48.0 -6.3 37.7 4.0 25.0 4.0 L 25.0 2.1 C 36.7 2.1 46.1 -7.3 46.1 -19.1 C 46.1 -27.4 41.5 -34.7 33.7 -38.2 L 33.7 -27.4 C 33.7 -24.4 32.0 -22.5 29.1 -22.5 C 27.7 -22.5 26.8 -23.0 25.9 -23.9 L 25.9 -11.4 L 24.1 -11.4 C 23.6 -12.6 23.2 -13.0 22.8 -13.5 C 21.9 -14.2 20.8 -14.7 19.6 -14.7 C 17.3 -14.7 15.9 -13.3 15.9 -11.2 C 15.9 -9.5 16.5 -8.8 18.5 -7.5 C 21.1 -5.8 22.1 -4.7 22.1 -2.5 C 22.1 -0.1 20.6 1.8 17.3 1.8 C 15.4 1.8 13.2 1.0 11.4 -0.5 C 5.6 -4.6 1.9 -11.4 1.9 -19.1 C 1.9 -31.8 12.2 -42.1 25.0 -42.1 L 25.0 -40.2 C 13.3 -40.2 3.8 -30.8 3.8 -19.1 C 3.8 -12.0 7.2 -5.7 12.6 -1.9 C 14.1 -0.8 15.9 -0.1 17.4 -0.1 C 19.1 -0.1 20.1 -1.1 20.1 -2.5 C 20.1 -3.8 19.4 -4.7 17.2 -6.0 C 16.1 -6.8 15.7 -7.2 15.2 -7.8 C 14.4 -8.8 13.9 -9.8 13.9 -11.2 C 13.9 -14.3 16.3 -16.6 19.6 -16.6 C 21.4 -16.6 22.9 -15.9 24.1 -14.8 Z" transform="translate(0.0 38.0)" stroke-dasharray="382.7523235684266" stroke-dashoffset="382.7523235684266"><animate attributeName="stroke-dashoffset" from="382.7523235684266" to="0" dur="11.482569707052798s" begin="0s; 15s; 30s; 45s" fill="freeze" id="anim0" /></path></g></svg>