<?xml version='1.0' encoding='utf-8'?>
<svg viewBox="0.0 -6.0 50.0 50.0" version="1.1" xmlns="http://www.w3.org/2000/svg"><rect x="-1000" y="-1000" width="2000" height="2000" stroke="white" fill="white" /><g style="fill:none;stroke:#000000;stroke-width:1"><path d="M 3.1 -18.6 C 6.7 -23.6 10.3 -31.9 12.2 -39.4 " transform="translate(0.0 38.0)" stroke-dasharray="22.816741191870754" stroke-dashoffset="22.816741191870754"><animate attributeName="stroke-dashoffset" from="22.816741191870754" to="0" dur="0.6845022357561226s" begin="0s; anim_end.end" fill="freeze" id="anim0" /></path><path d="M 9.7 2.6 L 9.7 -25.4 " transform="translate(0.0 38.0)" stroke-dasharray="28.0" stroke-dashoffset="28.0"><animate attributeName="stroke-dashoffset" from="28.0" to="0" dur="0.84s" begin="anim0.end" fill="freeze" id="anim1" /></path><path d="M 26.4 -5.1 C 25.3 -6.5 24.0 -7.8 22.9 -8.7 " transform="translate(0.0 38.0)" stroke-dasharray="5.030234750974509" stroke-dashoffset="5.030234750974509"><animate attributeName="stroke-dashoffset" from="5.030234750974509" to="0" dur="0.15090704252923529s" begin="anim1.end" fill="freeze" id="anim2" /></path><path d="M 29.9 1.1 C 31.0 1.4 32.0 1.5 33.4 1.5 C 35.8 1.5 36.9 0.6 36.9 -2.0 L 36.9 -22.4 " transform="translate(0.0 38.0)" stroke-dasharray="29.697260384930736" stroke-dashoffset="29.697260384930736"><animate attributeName="stroke-dashoffset" from="29.697260384930736" to="0" dur="0.890917811547922s" begin="anim2.end" fill="freeze" id="anim3" /></path><path d="M 45.1 -14.2 L 16.9 -14.2 " transform="translate(0.0 38.0)" stroke-dasharray="28.200000000000003" stroke-dashoffset="28.200000000000003"><animate attributeName="stroke-dashoffset" from="28.200000000000003" to="0" dur="0.8460000000000001s" begin="anim3.end" fill="freeze" id="anim4" /></path><path d="M 46.4 -23.8 L 15.2 -23.8 " transform="translate(0.0 38.0)" stroke-dasharray="31.2" stroke-dashoffset="31.2"><animate attributeName="stroke-dashoffset" from="31.2" to="0" dur="0.9359999999999999s" begin="anim4.end" fill="freeze" id="anim5" /></path><path d="M 30.3 -24.6 L 30.3 -40.0 " transform="translate(0.0 38.0)" stroke-dasharray="15.399999999999999" stroke-dashoffset="15.399999999999999"><animate attributeName="stroke-dashoffset" from="15.399999999999999" to="0" dur="0.46199999999999997s" begin="anim5.end" fill="freeze" id="anim6" /></path><path d="M 41.8 -33.3 L 19.5 -33.3" transform="translate(0.0 38.0)" stroke-dasharray="22.299999999999997" stroke-dashoffset="22.299999999999997"><animate attributeName="stroke-dashoffset" from="22.299999999999997" to="0" dur="0.6689999999999999s" begin="anim6.end" fill="freeze" id="anim_end" /></path></g></svg>