<?xml version='1.0' encoding='utf-8'?>
<svg viewBox="0.0 -6.0 50.0 50.0" version="1.1" xmlns="http://www.w3.org/2000/svg"><rect x="-1000" y="-1000" width="2000" height="2000" stroke="white" fill="white" /><g style="fill:none;stroke:#000000;stroke-width:1"><path d="M 34.2 1.1 C 35.1 1.4 36.0 1.4 37.0 1.4 C 39.4 1.4 40.5 0.5 40.5 -1.8 L 40.5 -35.2 " transform="translate(0.0 38.0)" stroke-dasharray="41.72705058190713" stroke-dashoffset="41.72705058190713"><animate attributeName="stroke-dashoffset" from="41.72705058190713" to="0" dur="1.2518115174572138s" begin="0s" fill="freeze" /></path><path d="M 10.1 2.6 L 10.1 -25.6 " transform="translate(0.0 38.0)" stroke-dasharray="28.200000000000003" stroke-dashoffset="28.200000000000003"><animate attributeName="stroke-dashoffset" from="28.200000000000003" to="0" dur="0.8460000000000001s" begin="1.2518115174572138s" fill="freeze" /></path><path d="M 3.2 -18.6 C 6.9 -23.5 10.8 -31.9 12.7 -39.4 " transform="translate(0.0 38.0)" stroke-dasharray="22.99363148111678" stroke-dashoffset="22.99363148111678"><animate attributeName="stroke-dashoffset" from="22.99363148111678" to="0" dur="0.6898089444335034s" begin="2.097811517457214s" fill="freeze" /></path><path d="M 22.9 -11.5 L 27.1 -11.5 C 29.2 -11.5 30.4 -12.6 30.4 -14.7 L 30.4 -23.0 C 30.4 -25.1 29.2 -26.1 27.1 -26.1 L 22.9 -26.1 C 20.9 -26.1 19.8 -25.1 19.8 -23.0 L 19.8 -14.7 C 19.8 -12.6 20.9 -11.5 22.9 -11.5 Z " transform="translate(0.0 38.0)" stroke-dasharray="45.538842298712446" stroke-dashoffset="45.538842298712446"><animate attributeName="stroke-dashoffset" from="45.538842298712446" to="0" dur="1.3661652689613732s" begin="2.787620461890717s" fill="freeze" /></path><path d="M 18.0 -35.6 L 46.5 -35.6" transform="translate(0.0 38.0)" stroke-dasharray="28.5" stroke-dashoffset="28.5"><animate attributeName="stroke-dashoffset" from="28.5" to="0" dur="0.855s" begin="4.153785730852091s" fill="freeze" /></path></g></svg>