<?xml version='1.0' encoding='utf-8'?>
<svg viewBox="0.0 -6.0 50.0 50.0" version="1.1" xmlns="http://www.w3.org/2000/svg"><rect x="-1000" y="-1000" width="2000" height="2000" stroke="white" fill="white" /><g style="fill:none;stroke:#000000;stroke-width:1"><path d="M 16.7 1.7 C 26.4 -1.7 35.7 -8.8 39.8 -17.3 C 41.0 -19.6 40.0 -21.1 37.2 -21.1 L 19.1 -21.1 " transform="translate(0.0 38.0)" stroke-dasharray="54.7399726664581" stroke-dashoffset="54.7399726664581"><animate attributeName="stroke-dashoffset" from="54.7399726664581" to="0" dur="1.642199179993743s" begin="0s; anim_end.end" fill="freeze" id="anim0" /></path><path d="M 10.1 2.4 L 10.1 -25.6 " transform="translate(0.0 38.0)" stroke-dasharray="28.0" stroke-dashoffset="28.0"><animate attributeName="stroke-dashoffset" from="28.0" to="0" dur="0.84s" begin="anim0.end" fill="freeze" id="anim1" /></path><path d="M 3.2 -18.6 C 6.9 -23.5 10.8 -31.9 12.7 -39.4 " transform="translate(0.0 38.0)" stroke-dasharray="22.99363148111678" stroke-dashoffset="22.99363148111678"><animate attributeName="stroke-dashoffset" from="22.99363148111678" to="0" dur="0.6898089444335034s" begin="anim1.end" fill="freeze" id="anim2" /></path><path d="M 45.3 1.0 C 34.6 -2.8 27.1 -9.8 23.1 -20.5 " transform="translate(0.0 38.0)" stroke-dasharray="31.992224974901053" stroke-dashoffset="31.992224974901053"><animate attributeName="stroke-dashoffset" from="31.992224974901053" to="0" dur="0.9597667492470315s" begin="anim2.end" fill="freeze" id="anim3" /></path><path d="M 45.3 -31.6 L 17.1 -31.6 " transform="translate(0.0 38.0)" stroke-dasharray="28.199999999999996" stroke-dashoffset="28.199999999999996"><animate attributeName="stroke-dashoffset" from="28.199999999999996" to="0" dur="0.8459999999999999s" begin="anim3.end" fill="freeze" id="anim4" /></path><path d="M 31.4 -21.8 L 31.4 -40.4" transform="translate(0.0 38.0)" stroke-dasharray="18.599999999999998" stroke-dashoffset="18.599999999999998"><animate attributeName="stroke-dashoffset" from="18.599999999999998" to="0" dur="0.5579999999999999s" begin="anim4.end" fill="freeze" id="anim_end" /></path></g></svg>