<?xml version='1.0' encoding='utf-8'?>
<svg viewBox="0.0 -6.0 50.0 50.0" version="1.1" xmlns="http://www.w3.org/2000/svg"><rect x="-1000" y="-1000" width="2000" height="2000" stroke="white" fill="white" /><g style="fill:none;stroke:#000000;stroke-width:1"><path d="M 4.1 -4.0 C 8.3 -9.5 10.7 -17.8 10.7 -27.4 L 10.7 -33.8 C 10.7 -36.3 11.8 -37.5 15.3 -37.5 L 35.9 -37.5 C 38.9 -37.5 40.0 -36.4 40.0 -34.4 L 40.0 -30.0 C 40.0 -27.9 38.9 -26.9 35.9 -26.8 L 11.0 -26.7 " transform="translate(0.0 38.0)" stroke-dasharray="99.74900341399528" stroke-dashoffset="99.74900341399528"><animate attributeName="stroke-dashoffset" from="99.74900341399528" to="0" dur="2.9924701024198583s" begin="0s; 15s; 30s; 45s" fill="freeze" id="anim0" /></path><path d="M 31.6 0.6 C 26.6 -2.1 20.8 -4.3 16.1 -5.5 " transform="translate(0.0 38.0)" stroke-dasharray="16.69526307462263" stroke-dashoffset="16.69526307462263"><animate attributeName="stroke-dashoffset" from="16.69526307462263" to="0" dur="0.5008578922386789s" begin="anim0.end" fill="freeze" id="anim1" /></path><path d="M 28.3 -12.8 C 25.4 -14.4 21.3 -16.1 18.6 -16.8 " transform="translate(0.0 38.0)" stroke-dasharray="10.51408292708188" stroke-dashoffset="10.51408292708188"><animate attributeName="stroke-dashoffset" from="10.51408292708188" to="0" dur="0.3154224878124564s" begin="anim1.end" fill="freeze" id="anim2" /></path><path d="M 45.6 -5.0 C 38.6 -10.2 33.5 -17.6 31.4 -26.4" transform="translate(0.0 38.0)" stroke-dasharray="26.216679260803648" stroke-dashoffset="26.216679260803648"><animate attributeName="stroke-dashoffset" from="26.216679260803648" to="0" dur="0.7865003778241094s" begin="anim2.end" fill="freeze" id="anim_end" /></path></g></svg>