<?xml version='1.0' encoding='utf-8'?>
<svg viewBox="0.0 -6.0 50.0 50.0" version="1.1" xmlns="http://www.w3.org/2000/svg"><rect x="-1000" y="-1000" width="2000" height="2000" stroke="white" fill="white" /><g style="fill:none;stroke:#000000;stroke-width:1"><path d="M 4.3 2.0 C 15.9 -0.3 23.7 -6.0 24.9 -16.3 " transform="translate(0.0 38.0)" stroke-dasharray="29.720061725973686" stroke-dashoffset="29.720061725973686"><animate attributeName="stroke-dashoffset" from="29.720061725973686" to="0" dur="0.8916018517792106s" begin="0s; anim_end.end" fill="freeze" id="anim0" /></path><path d="M 5.3 -22.6 C 7.6 -24.2 10.2 -26.6 12.1 -29.0 " transform="translate(0.0 38.0)" stroke-dasharray="9.368344703631063" stroke-dashoffset="9.368344703631063"><animate attributeName="stroke-dashoffset" from="9.368344703631063" to="0" dur="0.2810503411089319s" begin="anim0.end" fill="freeze" id="anim1" /></path><path d="M 45.1 -11.3 L 5.1 -11.3 " transform="translate(0.0 38.0)" stroke-dasharray="40.0" stroke-dashoffset="40.0"><animate attributeName="stroke-dashoffset" from="40.0" to="0" dur="1.2s" begin="anim1.end" fill="freeze" id="anim2" /></path><path d="M 9.8 -16.9 C 16.4 -20.0 20.6 -26.2 21.1 -34.6 " transform="translate(0.0 38.0)" stroke-dasharray="22.106553592156615" stroke-dashoffset="22.106553592156615"><animate attributeName="stroke-dashoffset" from="22.106553592156615" to="0" dur="0.6631966077646985s" begin="anim2.end" fill="freeze" id="anim3" /></path><path d="M 45.5 1.4 C 37.2 0.0 29.5 -3.9 25.3 -9.7 " transform="translate(0.0 38.0)" stroke-dasharray="23.609230337029448" stroke-dashoffset="23.609230337029448"><animate attributeName="stroke-dashoffset" from="23.609230337029448" to="0" dur="0.7082769101108835s" begin="anim3.end" fill="freeze" id="anim4" /></path><path d="M 24.2 -20.9 C 25.3 -20.6 25.9 -20.6 26.8 -20.6 C 28.6 -20.6 29.7 -21.4 29.7 -23.4 L 29.7 -35.1 " transform="translate(0.0 38.0)" stroke-dasharray="18.9564130749085" stroke-dashoffset="18.9564130749085"><animate attributeName="stroke-dashoffset" from="18.9564130749085" to="0" dur="0.568692392247255s" begin="anim4.end" fill="freeze" id="anim5" /></path><path d="M 44.9 -35.1 L 5.2 -35.1 " transform="translate(0.0 38.0)" stroke-dasharray="39.699999999999996" stroke-dashoffset="39.699999999999996"><animate attributeName="stroke-dashoffset" from="39.699999999999996" to="0" dur="1.1909999999999998s" begin="anim5.end" fill="freeze" id="anim6" /></path><path d="M 24.9 -35.9 L 24.9 -40.8 " transform="translate(0.0 38.0)" stroke-dasharray="4.899999999999999" stroke-dashoffset="4.899999999999999"><animate attributeName="stroke-dashoffset" from="4.899999999999999" to="0" dur="0.14699999999999996s" begin="anim6.end" fill="freeze" id="anim7" /></path><path d="M 44.8 -22.8 C 42.8 -24.9 40.1 -27.1 37.8 -28.6" transform="translate(0.0 38.0)" stroke-dasharray="9.108801468802724" stroke-dashoffset="9.108801468802724"><animate attributeName="stroke-dashoffset" from="9.108801468802724" to="0" dur="0.2732640440640817s" begin="anim7.end" fill="freeze" id="anim_end" /></path></g></svg>