<?xml version='1.0' encoding='utf-8'?>
<svg viewBox="0.0 -6.0 50.0 50.0" version="1.1" xmlns="http://www.w3.org/2000/svg"><rect x="-1000" y="-1000" width="2000" height="2000" stroke="white" fill="white" /><g style="fill:none;stroke:#000000;stroke-width:1"><path d="M 8.8 -39.6 L 8.8 -36.5 C 8.8 -34.8 9.7 -34.2 12.2 -34.2 L 38.1 -34.2 C 40.5 -34.2 41.3 -34.8 41.3 -36.5 L 41.3 -39.6 " transform="translate(0.0 38.0)" stroke-dasharray="41.44374034171816" stroke-dashoffset="41.44374034171816"><animate attributeName="stroke-dashoffset" from="41.44374034171816" to="0" dur="1.2433122102515448s" begin="0s" fill="freeze" /></path><path d="M 5.4 2.3 C 10.9 -1.3 13.8 -6.8 13.8 -14.8 " transform="translate(0.0 38.0)" stroke-dasharray="19.946743177589262" stroke-dashoffset="19.946743177589262"><animate attributeName="stroke-dashoffset" from="19.946743177589262" to="0" dur="0.5984022953276779s" begin="1.2433122102515448s" fill="freeze" /></path><path d="M 18.3 -0.6 C 16.6 -2.0 14.7 -3.5 12.5 -4.6 " transform="translate(0.0 38.0)" stroke-dasharray="7.061237330708575" stroke-dashoffset="7.061237330708575"><animate attributeName="stroke-dashoffset" from="7.061237330708575" to="0" dur="0.21183711992125726s" begin="1.8417145055792226s" fill="freeze" /></path><path d="M 21.1 -8.8 L 4.8 -8.8 " transform="translate(0.0 38.0)" stroke-dasharray="16.3" stroke-dashoffset="16.3"><animate attributeName="stroke-dashoffset" from="16.3" to="0" dur="0.489s" begin="2.05355162550048s" fill="freeze" /></path><path d="M 6.0 -12.6 C 7.3 -14.2 8.6 -16.4 9.3 -18.6 " transform="translate(0.0 38.0)" stroke-dasharray="6.884820670299089" stroke-dashoffset="6.884820670299089"><animate attributeName="stroke-dashoffset" from="6.884820670299089" to="0" dur="0.20654462010897265s" begin="2.54255162550048s" fill="freeze" /></path><path d="M 22.4 2.4 C 25.3 -1.6 27.5 -7.3 28.1 -12.6 " transform="translate(0.0 38.0)" stroke-dasharray="16.209224528337593" stroke-dashoffset="16.209224528337593"><animate attributeName="stroke-dashoffset" from="16.209224528337593" to="0" dur="0.48627673585012776s" begin="2.7490962456094525s" fill="freeze" /></path><path d="M 19.7 -15.3 L 8.1 -15.3 " transform="translate(0.0 38.0)" stroke-dasharray="11.6" stroke-dashoffset="11.6"><animate attributeName="stroke-dashoffset" from="11.6" to="0" dur="0.348s" begin="3.23537298145958s" fill="freeze" /></path><path d="M 45.5 1.1 C 43.6 1.4 41.9 1.4 39.5 1.4 C 33.0 1.4 29.6 -0.6 27.3 -6.0 " transform="translate(0.0 38.0)" stroke-dasharray="21.3910280458863" stroke-dashoffset="21.3910280458863"><animate attributeName="stroke-dashoffset" from="21.3910280458863" to="0" dur="0.641730841376589s" begin="3.58337298145958s" fill="freeze" /></path><path d="M 7.4 -30.4 L 7.4 -24.2 C 7.4 -22.4 8.2 -21.9 13.8 -21.9 C 19.7 -21.9 20.7 -22.6 21.1 -25.1 " transform="translate(0.0 38.0)" stroke-dasharray="22.782394497165058" stroke-dashoffset="22.782394497165058"><animate attributeName="stroke-dashoffset" from="22.782394497165058" to="0" dur="0.6834718349149517s" begin="4.225103822836169s" fill="freeze" /></path><path d="M 7.6 -26.8 C 11.5 -27.2 15.3 -28.1 18.6 -29.2 " transform="translate(0.0 38.0)" stroke-dasharray="11.280918155873886" stroke-dashoffset="11.280918155873886"><animate attributeName="stroke-dashoffset" from="11.280918155873886" to="0" dur="0.33842754467621655s" begin="4.90857565775112s" fill="freeze" /></path><path d="M 34.9 -0.2 L 34.9 -18.5 " transform="translate(0.0 38.0)" stroke-dasharray="18.3" stroke-dashoffset="18.3"><animate attributeName="stroke-dashoffset" from="18.3" to="0" dur="0.549s" begin="5.2470032024273365s" fill="freeze" /></path><path d="M 42.4 -9.2 L 35.0 -9.2 " transform="translate(0.0 38.0)" stroke-dasharray="7.399999999999999" stroke-dashoffset="7.399999999999999"><animate attributeName="stroke-dashoffset" from="7.399999999999999" to="0" dur="0.22199999999999995s" begin="5.796003202427337s" fill="freeze" /></path><path d="M 43.2 -13.7 C 44.0 -14.3 44.5 -14.9 45.0 -15.7 C 45.9 -17.1 45.1 -18.2 43.3 -18.2 L 24.4 -18.2 " transform="translate(0.0 38.0)" stroke-dasharray="25.57769114977509" stroke-dashoffset="25.57769114977509"><animate attributeName="stroke-dashoffset" from="25.57769114977509" to="0" dur="0.7673307344932527s" begin="6.018003202427336s" fill="freeze" /></path><path d="M 36.5 -20.8 C 35.0 -22.1 33.1 -23.5 31.6 -24.4 " transform="translate(0.0 38.0)" stroke-dasharray="6.086942018339726" stroke-dashoffset="6.086942018339726"><animate attributeName="stroke-dashoffset" from="6.086942018339726" to="0" dur="0.18260826055019178s" begin="6.785333936920589s" fill="freeze" /></path><path d="M 35.5 -22.7 C 37.5 -23.7 39.4 -24.9 41.0 -26.1 C 42.7 -27.6 42.0 -29.2 39.9 -29.2 L 27.6 -29.2 " transform="translate(0.0 38.0)" stroke-dasharray="23.54996944679636" stroke-dashoffset="23.54996944679636"><animate attributeName="stroke-dashoffset" from="23.54996944679636" to="0" dur="0.7064990834038908s" begin="6.967942197470781s" fill="freeze" /></path><path d="M 24.8 -34.1 L 24.8 -41.0" transform="translate(0.0 38.0)" stroke-dasharray="6.899999999999999" stroke-dashoffset="6.899999999999999"><animate attributeName="stroke-dashoffset" from="6.899999999999999" to="0" dur="0.20699999999999996s" begin="7.674441280874672s" fill="freeze" /></path></g></svg>