<?xml version='1.0' encoding='utf-8'?>
<svg viewBox="0.0 -6.0 50.0 50.0" version="1.1" xmlns="http://www.w3.org/2000/svg"><rect x="-1000" y="-1000" width="2000" height="2000" stroke="white" fill="white" /><g style="fill:none;stroke:#000000;stroke-width:1"><path d="M 43.2 1.1 L 15.9 1.1 C 12.7 1.1 11.6 -0.1 11.6 -2.4 L 11.6 -23.7 C 11.6 -26.1 12.7 -27.1 15.9 -27.1 L 39.2 -27.1 " transform="translate(0.0 38.0)" stroke-dasharray="84.6834504924744" stroke-dashoffset="84.6834504924744"><animate attributeName="stroke-dashoffset" from="84.6834504924744" to="0" dur="2.5405035147742323s" begin="0s; 15s; 30s; 45s" fill="freeze" id="anim0" /></path><path d="M 25.5 0.1 L 25.5 -8.1 " transform="translate(0.0 38.0)" stroke-dasharray="8.2" stroke-dashoffset="8.2"><animate attributeName="stroke-dashoffset" from="8.2" to="0" dur="0.24599999999999997s" begin="anim0.end" fill="freeze" id="anim1" /></path><path d="M 12.6 -8.9 L 34.5 -8.9 C 37.0 -8.9 37.9 -9.8 37.9 -11.4 L 37.9 -15.6 C 37.9 -17.2 37.0 -18.1 34.5 -18.1 L 12.6 -18.1 " transform="translate(0.0 38.0)" stroke-dasharray="57.68170127118731" stroke-dashoffset="57.68170127118731"><animate attributeName="stroke-dashoffset" from="57.68170127118731" to="0" dur="1.730451038135619s" begin="anim1.end" fill="freeze" id="anim2" /></path><path d="M 25.5 -18.6 L 25.5 -26.4 " transform="translate(0.0 38.0)" stroke-dasharray="7.799999999999997" stroke-dashoffset="7.799999999999997"><animate attributeName="stroke-dashoffset" from="7.799999999999997" to="0" dur="0.2339999999999999s" begin="anim2.end" fill="freeze" id="anim3" /></path><path d="M 44.2 -28.9 L 44.2 -32.2 C 44.2 -34.0 43.2 -35.2 40.4 -35.2 L 9.7 -35.2 C 6.8 -35.2 5.9 -34.0 5.9 -32.2 L 5.9 -28.4 " transform="translate(0.0 38.0)" stroke-dasharray="48.90199106940166" stroke-dashoffset="48.90199106940166"><animate attributeName="stroke-dashoffset" from="48.90199106940166" to="0" dur="1.4670597320820498s" begin="anim3.end" fill="freeze" id="anim4" /></path><path d="M 24.9 -35.5 L 24.9 -40.6" transform="translate(0.0 38.0)" stroke-dasharray="5.100000000000001" stroke-dashoffset="5.100000000000001"><animate attributeName="stroke-dashoffset" from="5.100000000000001" to="0" dur="0.15300000000000002s" begin="anim4.end" fill="freeze" id="anim_end" /></path></g></svg>