<?xml version='1.0' encoding='utf-8'?>
<svg viewBox="0.0 -6.0 50.0 50.0" version="1.1" xmlns="http://www.w3.org/2000/svg"><rect x="-1000" y="-1000" width="2000" height="2000" stroke="white" fill="white" /><g style="fill:none;stroke:#000000;stroke-width:1"><path d="M 31.0 -15.8 C 32.3 -15.6 33.2 -15.4 34.1 -15.4 C 37.3 -15.4 39.1 -16.8 40.0 -20.1 C 41.0 -23.8 41.5 -27.9 41.5 -31.8 C 41.5 -33.8 40.3 -34.9 37.0 -34.9 L 13.1 -34.9 " transform="translate(0.0 38.0)" stroke-dasharray="53.38015082568585" stroke-dashoffset="53.38015082568585"><animate attributeName="stroke-dashoffset" from="53.38015082568585" to="0" dur="1.6014045247705755s" begin="0s; anim_end.end" fill="freeze" id="anim0" /></path><path d="M 5.5 -1.3 C 6.8 -3.0 8.1 -5.2 9.0 -7.5 " transform="translate(0.0 38.0)" stroke-dasharray="7.141814842244843" stroke-dashoffset="7.141814842244843"><animate attributeName="stroke-dashoffset" from="7.141814842244843" to="0" dur="0.21425444526734527s" begin="anim0.end" fill="freeze" id="anim1" /></path><path d="M 16.2 -8.8 L 16.2 -1.5 C 16.2 0.9 17.2 1.6 24.7 1.6 C 33.3 1.6 35.0 0.6 35.4 -3.6 " transform="translate(0.0 38.0)" stroke-dasharray="31.051318803537143" stroke-dashoffset="31.051318803537143"><animate attributeName="stroke-dashoffset" from="31.051318803537143" to="0" dur="0.9315395641061143s" begin="anim1.end" fill="freeze" id="anim2" /></path><path d="M 27.7 -7.7 C 26.5 -8.9 25.0 -10.2 23.9 -11.0 " transform="translate(0.0 38.0)" stroke-dasharray="5.037244987512921" stroke-dashoffset="5.037244987512921"><animate attributeName="stroke-dashoffset" from="5.037244987512921" to="0" dur="0.15111734962538761s" begin="anim2.end" fill="freeze" id="anim3" /></path><path d="M 7.8 -18.4 C 14.3 -21.9 20.1 -27.7 23.8 -34.8 " transform="translate(0.0 38.0)" stroke-dasharray="23.246858804351803" stroke-dashoffset="23.246858804351803"><animate attributeName="stroke-dashoffset" from="23.246858804351803" to="0" dur="0.697405764130554s" begin="anim3.end" fill="freeze" id="anim4" /></path><path d="M 5.5 -27.0 C 9.8 -30.1 14.2 -35.4 16.6 -40.2 " transform="translate(0.0 38.0)" stroke-dasharray="17.392824381741338" stroke-dashoffset="17.392824381741338"><animate attributeName="stroke-dashoffset" from="17.392824381741338" to="0" dur="0.5217847314522401s" begin="anim4.end" fill="freeze" id="anim5" /></path><path d="M 16.1 -13.6 C 24.1 -18.1 30.1 -25.4 33.4 -34.6 " transform="translate(0.0 38.0)" stroke-dasharray="27.805214589738988" stroke-dashoffset="27.805214589738988"><animate attributeName="stroke-dashoffset" from="27.805214589738988" to="0" dur="0.8341564376921696s" begin="anim5.end" fill="freeze" id="anim6" /></path><path d="M 44.1 -3.1 C 43.1 -4.8 41.2 -7.2 39.8 -8.7" transform="translate(0.0 38.0)" stroke-dasharray="7.071461905511704" stroke-dashoffset="7.071461905511704"><animate attributeName="stroke-dashoffset" from="7.071461905511704" to="0" dur="0.2121438571653511s" begin="anim6.end" fill="freeze" id="anim_end" /></path></g></svg>