<?xml version='1.0' encoding='utf-8'?>
<svg viewBox="0.0 -6.0 50.0 50.0" version="1.1" xmlns="http://www.w3.org/2000/svg"><rect x="-1000" y="-1000" width="2000" height="2000" stroke="white" fill="white" /><g style="fill:none;stroke:#000000;stroke-width:1"><path d="M 12.9 -15.2 L 12.9 -32.5 C 12.9 -34.7 12.1 -35.5 10.1 -35.5 L 7.8 -35.5 C 5.7 -35.5 4.8 -34.7 4.8 -32.5 L 4.8 -15.2 C 4.8 -13.1 5.7 -12.2 7.8 -12.2 L 10.1 -12.2 C 12.1 -12.2 12.9 -13.1 12.9 -15.2 Z " transform="translate(0.0 38.0)" stroke-dasharray="58.61573666212164" stroke-dashoffset="58.61573666212164"><animate attributeName="stroke-dashoffset" from="58.61573666212164" to="0" dur="1.7584720998636492s" begin="0s" fill="freeze" /></path><path d="M 16.9 1.6 C 18.4 -0.3 19.7 -2.6 20.6 -5.2 " transform="translate(0.0 38.0)" stroke-dasharray="7.777476067293955" stroke-dashoffset="7.777476067293955"><animate attributeName="stroke-dashoffset" from="7.777476067293955" to="0" dur="0.23332428201881866s" begin="1.7584720998636492s" fill="freeze" /></path><path d="M 28.0 1.1 C 27.8 -1.1 27.3 -3.8 26.9 -5.2 " transform="translate(0.0 38.0)" stroke-dasharray="6.402387732218056" stroke-dashoffset="6.402387732218056"><animate attributeName="stroke-dashoffset" from="6.402387732218056" to="0" dur="0.19207163196654167s" begin="1.9917963818824678s" fill="freeze" /></path><path d="M 16.8 -12.4 C 18.9 -13.3 20.9 -14.3 22.6 -15.6 " transform="translate(0.0 38.0)" stroke-dasharray="6.641286828335951" stroke-dashoffset="6.641286828335951"><animate attributeName="stroke-dashoffset" from="6.641286828335951" to="0" dur="0.19923860485007852s" begin="2.1838680138490094s" fill="freeze" /></path><path d="M 36.4 0.8 C 35.9 -1.2 34.8 -4.0 34.0 -5.5 " transform="translate(0.0 38.0)" stroke-dasharray="6.754262800834311" stroke-dashoffset="6.754262800834311"><animate attributeName="stroke-dashoffset" from="6.754262800834311" to="0" dur="0.20262788402502932s" begin="2.383106618699088s" fill="freeze" /></path><path d="M 23.1 -21.1 L 17.8 -21.1 " transform="translate(0.0 38.0)" stroke-dasharray="5.300000000000001" stroke-dashoffset="5.300000000000001"><animate attributeName="stroke-dashoffset" from="5.300000000000001" to="0" dur="0.159s" begin="2.5857345027241174s" fill="freeze" /></path><path d="M 23.1 -10.6 L 23.1 -25.1 " transform="translate(0.0 38.0)" stroke-dasharray="14.500000000000002" stroke-dashoffset="14.500000000000002"><animate attributeName="stroke-dashoffset" from="14.500000000000002" to="0" dur="0.43500000000000005s" begin="2.7447345027241172s" fill="freeze" /></path><path d="M 45.5 0.8 C 44.3 -1.9 42.4 -4.7 41.5 -5.9 " transform="translate(0.0 38.0)" stroke-dasharray="7.817167184892061" stroke-dashoffset="7.817167184892061"><animate attributeName="stroke-dashoffset" from="7.817167184892061" to="0" dur="0.23451501554676182s" begin="3.1797345027241173s" fill="freeze" /></path><path d="M 32.2 -23.3 L 30.4 -23.3 C 28.6 -23.3 28.1 -22.6 28.1 -20.8 L 28.1 -15.3 C 28.1 -13.5 28.6 -12.8 30.4 -12.8 L 32.4 -12.8 C 34.0 -12.8 34.6 -13.6 34.6 -15.3 L 34.6 -20.8 C 34.6 -22.6 34.0 -23.3 32.2 -23.3 Z " transform="translate(0.0 38.0)" stroke-dasharray="30.7138432117455" stroke-dashoffset="30.7138432117455"><animate attributeName="stroke-dashoffset" from="30.7138432117455" to="0" dur="0.921415296352365s" begin="3.414249518270879s" fill="freeze" /></path><path d="M 46.8 -15.4 C 46.5 -12.1 45.3 -11.3 43.0 -11.3 C 41.0 -11.3 40.1 -11.8 40.1 -13.2 L 40.1 -25.6 " transform="translate(0.0 38.0)" stroke-dasharray="22.77892439266514" stroke-dashoffset="22.77892439266514"><animate attributeName="stroke-dashoffset" from="22.77892439266514" to="0" dur="0.6833677317799541s" begin="4.335664814623244s" fill="freeze" /></path><path d="M 40.5 -19.1 C 42.3 -19.8 44.2 -20.8 45.8 -21.8 " transform="translate(0.0 38.0)" stroke-dasharray="5.956347120751071" stroke-dashoffset="5.956347120751071"><animate attributeName="stroke-dashoffset" from="5.956347120751071" to="0" dur="0.17869041362253213s" begin="5.019032546403198s" fill="freeze" /></path><path d="M 26.7 -40.1 L 26.7 -32.0 C 26.7 -29.9 27.6 -29.4 29.4 -29.4 L 33.9 -29.4 C 35.8 -29.4 36.6 -29.9 36.6 -32.0 L 36.6 -40.1 " transform="translate(0.0 38.0)" stroke-dasharray="29.515581548309825" stroke-dashoffset="29.515581548309825"><animate attributeName="stroke-dashoffset" from="29.515581548309825" to="0" dur="0.8854674464492948s" begin="5.197722960025731s" fill="freeze" /></path><path d="M 45.9 -35.6 L 19.1 -35.6" transform="translate(0.0 38.0)" stroke-dasharray="26.799999999999997" stroke-dashoffset="26.799999999999997"><animate attributeName="stroke-dashoffset" from="26.799999999999997" to="0" dur="0.8039999999999999s" begin="6.083190406475025s" fill="freeze" /></path></g></svg>