<?xml version='1.0' encoding='utf-8'?>
<svg viewBox="0.0 -6.0 50.0 50.0" version="1.1" xmlns="http://www.w3.org/2000/svg"><rect x="-1000" y="-1000" width="2000" height="2000" stroke="white" fill="white" /><g style="fill:none;stroke:#000000;stroke-width:1"><path d="M 24.9 -5.0 L 37.2 -5.0 C 40.3 -5.0 41.1 -6.0 41.1 -7.9 L 41.1 -18.0 C 41.1 -19.9 40.3 -20.8 37.2 -20.8 L 24.9 -20.8 C 21.8 -20.8 20.9 -19.9 20.9 -18.0 L 20.9 -7.9 C 20.9 -6.0 21.8 -5.0 24.9 -5.0 Z " transform="translate(0.0 38.0)" stroke-dasharray="67.38421041919868" stroke-dashoffset="67.38421041919868"><animate attributeName="stroke-dashoffset" from="67.38421041919868" to="0" dur="2.0215263125759604s" begin="0s; anim_end.end" fill="freeze" id="anim0" /></path><path d="M 15.8 2.6 C 18.7 1.9 22.3 0.5 25.1 -1.1 " transform="translate(0.0 38.0)" stroke-dasharray="10.038454651015774" stroke-dashoffset="10.038454651015774"><animate attributeName="stroke-dashoffset" from="10.038454651015774" to="0" dur="0.3011536395304732s" begin="anim0.end" fill="freeze" id="anim1" /></path><path d="M 9.2 2.6 L 9.2 -25.8 " transform="translate(0.0 38.0)" stroke-dasharray="28.400000000000002" stroke-dashoffset="28.400000000000002"><animate attributeName="stroke-dashoffset" from="28.400000000000002" to="0" dur="0.852s" begin="anim1.end" fill="freeze" id="anim2" /></path><path d="M 3.0 -19.2 C 6.5 -24.3 9.9 -32.5 11.7 -40.0 " transform="translate(0.0 38.0)" stroke-dasharray="22.65408409329979" stroke-dashoffset="22.65408409329979"><animate attributeName="stroke-dashoffset" from="22.65408409329979" to="0" dur="0.6796225227989937s" begin="anim2.end" fill="freeze" id="anim3" /></path><path d="M 44.6 2.1 C 42.0 1.4 38.5 -0.1 36.4 -1.1 " transform="translate(0.0 38.0)" stroke-dasharray="8.8122274662929" stroke-dashoffset="8.8122274662929"><animate attributeName="stroke-dashoffset" from="8.8122274662929" to="0" dur="0.26436682398878697s" begin="anim3.end" fill="freeze" id="anim4" /></path><path d="M 40.5 -10.4 L 21.5 -10.4 " transform="translate(0.0 38.0)" stroke-dasharray="19.0" stroke-dashoffset="19.0"><animate attributeName="stroke-dashoffset" from="19.0" to="0" dur="0.57s" begin="anim4.end" fill="freeze" id="anim5" /></path><path d="M 40.5 -15.5 L 21.5 -15.5 " transform="translate(0.0 38.0)" stroke-dasharray="19.0" stroke-dashoffset="19.0"><animate attributeName="stroke-dashoffset" from="19.0" to="0" dur="0.57s" begin="anim5.end" fill="freeze" id="anim6" /></path><path d="M 46.4 -25.9 L 15.8 -25.9 " transform="translate(0.0 38.0)" stroke-dasharray="30.599999999999998" stroke-dashoffset="30.599999999999998"><animate attributeName="stroke-dashoffset" from="30.599999999999998" to="0" dur="0.9179999999999999s" begin="anim6.end" fill="freeze" id="anim7" /></path><path d="M 40.9 -31.4 L 21.1 -31.4 " transform="translate(0.0 38.0)" stroke-dasharray="19.799999999999997" stroke-dashoffset="19.799999999999997"><animate attributeName="stroke-dashoffset" from="19.799999999999997" to="0" dur="0.5939999999999999s" begin="anim7.end" fill="freeze" id="anim8" /></path><path d="M 30.8 -25.9 L 30.8 -40.6 " transform="translate(0.0 38.0)" stroke-dasharray="14.700000000000003" stroke-dashoffset="14.700000000000003"><animate attributeName="stroke-dashoffset" from="14.700000000000003" to="0" dur="0.44100000000000006s" begin="anim8.end" fill="freeze" id="anim9" /></path><path d="M 44.2 -36.8 L 18.2 -36.8" transform="translate(0.0 38.0)" stroke-dasharray="26.000000000000004" stroke-dashoffset="26.000000000000004"><animate attributeName="stroke-dashoffset" from="26.000000000000004" to="0" dur="0.78s" begin="anim9.end" fill="freeze" id="anim_end" /></path></g></svg>