<?xml version='1.0' encoding='utf-8'?>
<svg viewBox="0.0 -6.0 50.0 50.0" version="1.1" xmlns="http://www.w3.org/2000/svg"><rect x="-1000" y="-1000" width="2000" height="2000" stroke="white" fill="white" /><g style="fill:none;stroke:#000000;stroke-width:1"><path d="M 33.6 1.9 C 34.8 2.2 36.1 2.4 37.2 2.4 C 39.4 2.4 40.9 1.4 41.6 -1.1 C 42.3 -3.4 42.8 -5.8 42.9 -8.0 C 43.0 -9.9 42.0 -11.0 39.2 -11.0 L 14.4 -11.0 " transform="translate(0.0 38.0)" stroke-dasharray="47.15023437010261" stroke-dashoffset="47.15023437010261"><animate attributeName="stroke-dashoffset" from="47.15023437010261" to="0" dur="1.4145070311030783s" begin="0s; anim_end.end" fill="freeze" id="anim0" /></path><path d="M 10.1 1.3 C 11.2 -0.5 12.2 -2.5 12.9 -4.7 " transform="translate(0.0 38.0)" stroke-dasharray="6.637269281659086" stroke-dashoffset="6.637269281659086"><animate attributeName="stroke-dashoffset" from="6.637269281659086" to="0" dur="0.19911807844977258s" begin="anim0.end" fill="freeze" id="anim1" /></path><path d="M 4.7 -5.5 C 10.2 -8.0 15.9 -11.8 20.2 -16.6 " transform="translate(0.0 38.0)" stroke-dasharray="19.196045183325325" stroke-dashoffset="19.196045183325325"><animate attributeName="stroke-dashoffset" from="19.196045183325325" to="0" dur="0.5758813554997597s" begin="anim1.end" fill="freeze" id="anim2" /></path><path d="M 20.7 -0.1 C 20.4 -1.9 19.9 -3.6 19.1 -5.2 " transform="translate(0.0 38.0)" stroke-dasharray="5.365281600478594" stroke-dashoffset="5.365281600478594"><animate attributeName="stroke-dashoffset" from="5.365281600478594" to="0" dur="0.16095844801435782s" begin="anim2.end" fill="freeze" id="anim3" /></path><path d="M 28.2 -1.7 C 27.7 -3.3 27.1 -4.8 26.2 -6.1 " transform="translate(0.0 38.0)" stroke-dasharray="4.851999661876782" stroke-dashoffset="4.851999661876782"><animate attributeName="stroke-dashoffset" from="4.851999661876782" to="0" dur="0.14555998985630345s" begin="anim3.end" fill="freeze" id="anim4" /></path><path d="M 35.5 -3.8 C 35.0 -4.9 34.1 -6.2 33.3 -7.2 " transform="translate(0.0 38.0)" stroke-dasharray="4.058851112636569" stroke-dashoffset="4.058851112636569"><animate attributeName="stroke-dashoffset" from="4.058851112636569" to="0" dur="0.12176553337909707s" begin="anim4.end" fill="freeze" id="anim5" /></path><path d="M 21.5 -23.8 L 12.1 -23.8 " transform="translate(0.0 38.0)" stroke-dasharray="9.4" stroke-dashoffset="9.4"><animate attributeName="stroke-dashoffset" from="9.4" to="0" dur="0.282s" begin="anim5.end" fill="freeze" id="anim6" /></path><path d="M 12.5 -28.4 C 15.7 -29.1 18.6 -29.9 21.6 -31.3 " transform="translate(0.0 38.0)" stroke-dasharray="9.5717564353515" stroke-dashoffset="9.5717564353515"><animate attributeName="stroke-dashoffset" from="9.5717564353515" to="0" dur="0.287152693060545s" begin="anim6.end" fill="freeze" id="anim7" /></path><path d="M 12.5 -28.9 L 12.5 -19.9 C 12.5 -17.9 13.5 -17.1 16.1 -17.1 L 33.8 -17.1 C 36.4 -17.1 37.4 -17.9 37.4 -19.9 L 37.4 -27.1 C 37.4 -29.2 36.4 -29.9 33.8 -29.9 L 27.5 -29.9 " transform="translate(0.0 38.0)" stroke-dasharray="56.09554924055481" stroke-dashoffset="56.09554924055481"><animate attributeName="stroke-dashoffset" from="56.09554924055481" to="0" dur="1.6828664772166442s" begin="anim7.end" fill="freeze" id="anim8" /></path><path d="M 37.0 -23.8 L 28.1 -23.8 " transform="translate(0.0 38.0)" stroke-dasharray="8.899999999999999" stroke-dashoffset="8.899999999999999"><animate attributeName="stroke-dashoffset" from="8.899999999999999" to="0" dur="0.26699999999999996s" begin="anim8.end" fill="freeze" id="anim9" /></path><path d="M 44.1 -30.3 L 44.1 -33.2 C 44.1 -35.0 43.2 -36.1 40.4 -36.1 L 9.8 -36.1 C 7.0 -36.1 6.0 -35.0 6.0 -33.2 L 6.0 -29.8 " transform="translate(0.0 38.0)" stroke-dasharray="47.78802808092967" stroke-dashoffset="47.78802808092967"><animate attributeName="stroke-dashoffset" from="47.78802808092967" to="0" dur="1.4336408424278901s" begin="anim9.end" fill="freeze" id="anim10" /></path><path d="M 24.9 -36.5 L 24.9 -40.9" transform="translate(0.0 38.0)" stroke-dasharray="4.399999999999999" stroke-dashoffset="4.399999999999999"><animate attributeName="stroke-dashoffset" from="4.399999999999999" to="0" dur="0.13199999999999995s" begin="anim10.end" fill="freeze" id="anim_end" /></path></g></svg>