<?xml version='1.0' encoding='utf-8'?>
<svg viewBox="0.0 -6.0 50.0 50.0" version="1.1" xmlns="http://www.w3.org/2000/svg"><rect x="-1000" y="-1000" width="2000" height="2000" stroke="white" fill="white" /><g style="fill:none;stroke:#000000;stroke-width:1"><path d="M 37.8 1.4 C 38.8 1.6 39.7 1.6 40.5 1.6 C 42.9 1.6 43.8 0.7 43.8 -1.9 L 43.8 -39.0 " transform="translate(0.0 38.0)" stroke-dasharray="45.44628295550678" stroke-dashoffset="45.44628295550678"><animate attributeName="stroke-dashoffset" from="45.44628295550678" to="0" dur="1.3633884886652035s" begin="0s; 15s; 30s; 45s" fill="freeze" id="anim0" /></path><path d="M 4.0 2.0 C 7.3 -1.5 9.2 -6.5 9.2 -13.4 L 9.2 -16.9 " transform="translate(0.0 38.0)" stroke-dasharray="20.160552687124223" stroke-dashoffset="20.160552687124223"><animate attributeName="stroke-dashoffset" from="20.160552687124223" to="0" dur="0.6048165806137267s" begin="anim0.end" fill="freeze" id="anim1" /></path><path d="M 23.4 -6.7 L 8.2 -6.7 " transform="translate(0.0 38.0)" stroke-dasharray="15.2" stroke-dashoffset="15.2"><animate attributeName="stroke-dashoffset" from="15.2" to="0" dur="0.45599999999999996s" begin="anim1.end" fill="freeze" id="anim2" /></path><path d="M 23.4 -13.8 L 8.2 -13.8 " transform="translate(0.0 38.0)" stroke-dasharray="15.2" stroke-dashoffset="15.2"><animate attributeName="stroke-dashoffset" from="15.2" to="0" dur="0.45599999999999996s" begin="anim2.end" fill="freeze" id="anim3" /></path><path d="M 23.9 2.4 L 23.9 -17.4 " transform="translate(0.0 38.0)" stroke-dasharray="19.799999999999997" stroke-dashoffset="19.799999999999997"><animate attributeName="stroke-dashoffset" from="19.799999999999997" to="0" dur="0.5939999999999999s" begin="anim3.end" fill="freeze" id="anim4" /></path><path d="M 3.6 -20.1 C 11.8 -22.4 19.5 -27.2 23.3 -34.0 " transform="translate(0.0 38.0)" stroke-dasharray="24.71833815783874" stroke-dashoffset="24.71833815783874"><animate attributeName="stroke-dashoffset" from="24.71833815783874" to="0" dur="0.7415501447351622s" begin="anim4.end" fill="freeze" id="anim5" /></path><path d="M 28.9 -21.1 C 19.8 -23.1 12.6 -27.2 8.8 -33.9 " transform="translate(0.0 38.0)" stroke-dasharray="24.556965012373624" stroke-dashoffset="24.556965012373624"><animate attributeName="stroke-dashoffset" from="24.556965012373624" to="0" dur="0.7367089503712086s" begin="anim5.end" fill="freeze" id="anim6" /></path><path d="M 28.7 -34.5 L 4.0 -34.5 " transform="translate(0.0 38.0)" stroke-dasharray="24.7" stroke-dashoffset="24.7"><animate attributeName="stroke-dashoffset" from="24.7" to="0" dur="0.741s" begin="anim6.end" fill="freeze" id="anim7" /></path><path d="M 15.9 -34.1 L 15.9 -40.2 " transform="translate(0.0 38.0)" stroke-dasharray="6.100000000000001" stroke-dashoffset="6.100000000000001"><animate attributeName="stroke-dashoffset" from="6.100000000000001" to="0" dur="0.18300000000000002s" begin="anim7.end" fill="freeze" id="anim8" /></path><path d="M 34.7 -9.2 L 34.7 -36.0" transform="translate(0.0 38.0)" stroke-dasharray="26.8" stroke-dashoffset="26.8"><animate attributeName="stroke-dashoffset" from="26.8" to="0" dur="0.8039999999999999s" begin="anim8.end" fill="freeze" id="anim_end" /></path></g></svg>