<?xml version='1.0' encoding='utf-8'?>
<svg viewBox="0.0 -6.0 50.0 50.0" version="1.1" xmlns="http://www.w3.org/2000/svg"><rect x="-1000" y="-1000" width="2000" height="2000" stroke="white" fill="white" /><g style="fill:none;stroke:#000000;stroke-width:1"><path d="M 24.9 -17.6 L 38.6 -17.6 C 41.1 -17.6 42.1 -18.6 42.1 -20.6 L 42.1 -31.2 C 42.1 -33.2 41.1 -34.2 38.5 -34.2 L 28.4 -34.2 C 25.9 -34.2 24.8 -33.2 24.8 -31.2 L 24.8 -0.7 " transform="translate(0.0 38.0)" stroke-dasharray="81.0161351250504" stroke-dashoffset="81.0161351250504"><animate attributeName="stroke-dashoffset" from="81.0161351250504" to="0" dur="2.430484053751512s" begin="0s" fill="freeze" /></path><path d="M 18.4 -6.4 C 15.4 -9.2 10.3 -12.2 6.3 -13.9 " transform="translate(0.0 38.0)" stroke-dasharray="14.295458885296178" stroke-dashoffset="14.295458885296178"><animate attributeName="stroke-dashoffset" from="14.295458885296178" to="0" dur="0.4288637665588853s" begin="2.430484053751512s" fill="freeze" /></path><path d="M 4.5 -0.2 C 11.6 -5.7 16.4 -15.0 17.2 -26.4 C 17.2 -28.6 16.4 -29.6 14.1 -29.6 L 3.5 -29.6 " transform="translate(0.0 38.0)" stroke-dasharray="45.77478334421009" stroke-dashoffset="45.77478334421009"><animate attributeName="stroke-dashoffset" from="45.77478334421009" to="0" dur="1.3732435003263028s" begin="2.8593478203103975s" fill="freeze" /></path><path d="M 19.1 1.2 C 23.7 0.6 29.0 -0.8 33.0 -2.2 " transform="translate(0.0 38.0)" stroke-dasharray="14.332715354227666" stroke-dashoffset="14.332715354227666"><animate attributeName="stroke-dashoffset" from="14.332715354227666" to="0" dur="0.42998146062682996s" begin="4.2325913206367005s" fill="freeze" /></path><path d="M 5.5 -12.5 C 7.8 -20.4 9.7 -29.6 11.1 -40.2 " transform="translate(0.0 38.0)" stroke-dasharray="28.28721931365879" stroke-dashoffset="28.28721931365879"><animate attributeName="stroke-dashoffset" from="28.28721931365879" to="0" dur="0.8486165794097638s" begin="4.66257278126353s" fill="freeze" /></path><path d="M 46.4 1.3 C 38.5 -2.9 34.1 -8.8 32.1 -17.4 " transform="translate(0.0 38.0)" stroke-dasharray="24.368213633758444" stroke-dashoffset="24.368213633758444"><animate attributeName="stroke-dashoffset" from="24.368213633758444" to="0" dur="0.7310464090127533s" begin="5.511189360673294s" fill="freeze" /></path><path d="M 36.5 -7.8 C 39.5 -9.3 42.4 -11.3 45.3 -14.0 " transform="translate(0.0 38.0)" stroke-dasharray="10.802179931662861" stroke-dashoffset="10.802179931662861"><animate attributeName="stroke-dashoffset" from="10.802179931662861" to="0" dur="0.3240653979498858s" begin="6.242235769686047s" fill="freeze" /></path><path d="M 42.5 -26.1 L 24.9 -26.1 " transform="translate(0.0 38.0)" stroke-dasharray="17.6" stroke-dashoffset="17.6"><animate attributeName="stroke-dashoffset" from="17.6" to="0" dur="0.528s" begin="6.566301167635933s" fill="freeze" /></path><path d="M 33.4 -34.4 L 33.4 -40.4" transform="translate(0.0 38.0)" stroke-dasharray="6.0" stroke-dashoffset="6.0"><animate attributeName="stroke-dashoffset" from="6.0" to="0" dur="0.18s" begin="7.094301167635933s" fill="freeze" /></path></g></svg>