<?xml version='1.0' encoding='utf-8'?>
<svg viewBox="0.0 -6.0 50.0 50.0" version="1.1" xmlns="http://www.w3.org/2000/svg"><rect x="-1000" y="-1000" width="2000" height="2000" stroke="white" fill="white" /><g style="fill:none;stroke:#000000;stroke-width:1"><path d="M 38.1 -37.8 L 11.8 -37.8 C 7.9 -37.8 6.4 -36.5 6.4 -33.0 L 6.4 -4.5 C 6.4 -0.9 7.9 0.5 11.8 0.5 L 38.1 0.5 C 42.1 0.5 43.6 -0.9 43.6 -4.5 L 43.6 -33.0 C 43.6 -36.5 42.1 -37.8 38.1 -37.8 Z " transform="translate(0.0 38.0)" stroke-dasharray="143.80454962830927" stroke-dashoffset="143.80454962830927"><animate attributeName="stroke-dashoffset" from="143.80454962830927" to="0" dur="4.314136488849278s" begin="0s" fill="freeze" /></path><path d="M 17.4 -5.0 L 17.4 -21.9 " transform="translate(0.0 38.0)" stroke-dasharray="16.9" stroke-dashoffset="16.9"><animate attributeName="stroke-dashoffset" from="16.9" to="0" dur="0.5069999999999999s" begin="4.314136488849278s" fill="freeze" /></path><path d="M 11.3 -17.4 C 14.4 -21.2 17.5 -27.1 19.1 -31.9 " transform="translate(0.0 38.0)" stroke-dasharray="16.54135994236033" stroke-dashoffset="16.54135994236033"><animate attributeName="stroke-dashoffset" from="16.54135994236033" to="0" dur="0.4962407982708099s" begin="4.821136488849278s" fill="freeze" /></path><path d="M 37.9 -11.2 C 37.5 -7.0 35.9 -5.8 32.5 -5.8 C 28.9 -5.8 27.8 -6.5 27.8 -8.6 L 27.8 -32.4 " transform="translate(0.0 38.0)" stroke-dasharray="38.860587092009986" stroke-dashoffset="38.860587092009986"><animate attributeName="stroke-dashoffset" from="38.860587092009986" to="0" dur="1.1658176127602995s" begin="5.317377287120087s" fill="freeze" /></path><path d="M 28.4 -19.9 C 31.3 -21.6 34.4 -23.8 37.0 -26.1" transform="translate(0.0 38.0)" stroke-dasharray="10.617625480818452" stroke-dashoffset="10.617625480818452"><animate attributeName="stroke-dashoffset" from="10.617625480818452" to="0" dur="0.3185287644245535s" begin="6.483194899880386s" fill="freeze" /></path></g></svg>