<?xml version='1.0' encoding='utf-8'?>
<svg viewBox="0.0 -6.0 50.0 50.0" version="1.1" xmlns="http://www.w3.org/2000/svg"><rect x="-1000" y="-1000" width="2000" height="2000" stroke="white" fill="white" /><g style="fill:none;stroke:#000000;stroke-width:1"><path d="M 3.0 -4.4 C 5.5 -10.3 7.0 -18.4 7.0 -28.5 L 7.0 -35.2 C 7.0 -37.2 7.8 -38.2 10.7 -38.2 L 22.4 -38.2 C 25.2 -38.2 26.2 -37.4 26.2 -35.4 L 26.2 -32.3 C 26.2 -30.2 25.2 -29.4 22.4 -29.4 L 7.5 -29.4 " transform="translate(0.0 38.0)" stroke-dasharray="77.56550972157898" stroke-dashoffset="77.56550972157898"><animate attributeName="stroke-dashoffset" from="77.56550972157898" to="0" dur="2.3269652916473693s" begin="0s; 15s; 30s; 45s" fill="freeze" id="anim0" /></path><path d="M 23.1 -2.9 C 23.6 -2.8 24.1 -2.7 24.6 -2.7 C 26.2 -2.7 27.1 -3.5 27.1 -5.4 L 27.1 -16.1 C 27.1 -18.1 26.1 -19.0 23.8 -19.0 L 14.9 -19.0 C 12.6 -19.0 11.7 -18.1 11.7 -16.1 L 11.7 -1.7 " transform="translate(0.0 38.0)" stroke-dasharray="49.82893900285053" stroke-dashoffset="49.82893900285053"><animate attributeName="stroke-dashoffset" from="49.82893900285053" to="0" dur="1.494868170085516s" begin="anim0.end" fill="freeze" id="anim1" /></path><path d="M 19.3 2.6 L 19.3 -24.7 " transform="translate(0.0 38.0)" stroke-dasharray="27.3" stroke-dashoffset="27.3"><animate attributeName="stroke-dashoffset" from="27.3" to="0" dur="0.819s" begin="anim1.end" fill="freeze" id="anim2" /></path><path d="M 35.2 -9.2 L 35.2 -36.0 " transform="translate(0.0 38.0)" stroke-dasharray="26.8" stroke-dashoffset="26.8"><animate attributeName="stroke-dashoffset" from="26.8" to="0" dur="0.8039999999999999s" begin="anim2.end" fill="freeze" id="anim3" /></path><path d="M 38.0 1.2 C 39.0 1.4 40.0 1.5 40.6 1.5 C 43.0 1.5 44.0 0.5 44.0 -2.0 L 44.0 -39.1" transform="translate(0.0 38.0)" stroke-dasharray="45.39394019476832" stroke-dashoffset="45.39394019476832"><animate attributeName="stroke-dashoffset" from="45.39394019476832" to="0" dur="1.3618182058430495s" begin="anim3.end" fill="freeze" id="anim_end" /></path></g></svg>