<?xml version='1.0' encoding='utf-8'?>
<svg viewBox="0.0 -6.0 50.0 50.0" version="1.1" xmlns="http://www.w3.org/2000/svg"><rect x="-1000" y="-1000" width="2000" height="2000" stroke="white" fill="white" /><g style="fill:none;stroke:#000000;stroke-width:1"><path d="M 10.6 -15.1 L 10.6 -33.9 C 10.6 -36.0 9.8 -36.6 8.2 -36.6 L 6.4 -36.6 C 4.7 -36.6 4.0 -36.0 4.0 -33.9 L 4.0 -15.1 C 4.0 -13.0 4.7 -12.3 6.4 -12.3 L 8.2 -12.3 C 9.8 -12.3 10.6 -13.0 10.6 -15.1 Z " transform="translate(0.0 38.0)" stroke-dasharray="58.23416174831502" stroke-dashoffset="58.23416174831502"><animate attributeName="stroke-dashoffset" from="58.23416174831502" to="0" dur="1.7470248524494505s" begin="0s; anim_end.end" fill="freeze" id="anim0" /></path><path d="M 27.1 -6.4 L 12.2 -6.4 " transform="translate(0.0 38.0)" stroke-dasharray="14.900000000000002" stroke-dashoffset="14.900000000000002"><animate attributeName="stroke-dashoffset" from="14.900000000000002" to="0" dur="0.44700000000000006s" begin="anim0.end" fill="freeze" id="anim1" /></path><path d="M 35.2 -2.4 C 34.6 -3.0 33.8 -4.0 32.9 -4.7 " transform="translate(0.0 38.0)" stroke-dasharray="3.2562614524483675" stroke-dashoffset="3.2562614524483675"><animate attributeName="stroke-dashoffset" from="3.2562614524483675" to="0" dur="0.09768784357345102s" begin="anim1.end" fill="freeze" id="anim2" /></path><path d="M 21.1 2.8 L 21.1 -40.5 " transform="translate(0.0 38.0)" stroke-dasharray="43.3" stroke-dashoffset="43.3"><animate attributeName="stroke-dashoffset" from="43.3" to="0" dur="1.299s" begin="anim2.end" fill="freeze" id="anim3" /></path><path d="M 26.6 -15.9 L 26.6 -25.4 C 26.6 -27.2 25.8 -28.0 23.8 -28.0 L 18.4 -28.0 C 16.4 -28.0 15.7 -27.2 15.7 -25.4 L 15.7 -15.9 C 15.7 -14.1 16.4 -13.2 18.4 -13.2 L 23.8 -13.2 C 25.8 -13.2 26.6 -14.1 26.6 -15.9 Z " transform="translate(0.0 38.0)" stroke-dasharray="47.5262733353832" stroke-dashoffset="47.5262733353832"><animate attributeName="stroke-dashoffset" from="47.5262733353832" to="0" dur="1.425788200061496s" begin="anim3.end" fill="freeze" id="anim4" /></path><path d="M 26.0 -20.8 L 16.3 -20.8 " transform="translate(0.0 38.0)" stroke-dasharray="9.7" stroke-dashoffset="9.7"><animate attributeName="stroke-dashoffset" from="9.7" to="0" dur="0.291s" begin="anim4.end" fill="freeze" id="anim5" /></path><path d="M 36.8 2.2 C 37.4 2.4 38.1 2.5 38.7 2.5 C 40.8 2.5 41.6 1.7 41.6 -0.8 L 41.6 -11.8 " transform="translate(0.0 38.0)" stroke-dasharray="18.080192954483536" stroke-dashoffset="18.080192954483536"><animate attributeName="stroke-dashoffset" from="18.080192954483536" to="0" dur="0.5424057886345061s" begin="anim5.end" fill="freeze" id="anim6" /></path><path d="M 47.0 -8.6 L 30.1 -8.6 " transform="translate(0.0 38.0)" stroke-dasharray="16.9" stroke-dashoffset="16.9"><animate attributeName="stroke-dashoffset" from="16.9" to="0" dur="0.5069999999999999s" begin="anim6.end" fill="freeze" id="anim7" /></path><path d="M 30.9 -14.1 C 34.9 -14.3 39.0 -14.8 43.2 -15.8 " transform="translate(0.0 38.0)" stroke-dasharray="12.4346199254681" stroke-dashoffset="12.4346199254681"><animate attributeName="stroke-dashoffset" from="12.4346199254681" to="0" dur="0.37303859776404297s" begin="anim7.end" fill="freeze" id="anim8" /></path><path d="M 33.8 -14.4 C 35.0 -16.8 35.7 -18.5 36.6 -20.9 " transform="translate(0.0 38.0)" stroke-dasharray="7.081307258081292" stroke-dashoffset="7.081307258081292"><animate attributeName="stroke-dashoffset" from="7.081307258081292" to="0" dur="0.21243921774243876s" begin="anim8.end" fill="freeze" id="anim9" /></path><path d="M 27.2 -34.5 L 14.4 -34.5 " transform="translate(0.0 38.0)" stroke-dasharray="12.799999999999999" stroke-dashoffset="12.799999999999999"><animate attributeName="stroke-dashoffset" from="12.799999999999999" to="0" dur="0.38399999999999995s" begin="anim9.end" fill="freeze" id="anim10" /></path><path d="M 45.0 -13.8 C 44.1 -15.4 42.9 -16.9 41.8 -18.1 " transform="translate(0.0 38.0)" stroke-dasharray="5.371462065815328" stroke-dashoffset="5.371462065815328"><animate attributeName="stroke-dashoffset" from="5.371462065815328" to="0" dur="0.16114386197445982s" begin="anim10.end" fill="freeze" id="anim11" /></path><path d="M 42.0 -30.6 L 34.3 -30.6 C 32.1 -30.6 31.5 -30.0 31.5 -28.2 L 31.5 -22.9 C 31.5 -21.1 32.1 -20.4 34.3 -20.4 L 42.0 -20.4 C 44.1 -20.4 44.8 -21.1 44.8 -22.9 L 44.8 -28.2 C 44.8 -30.0 44.1 -30.6 42.0 -30.6 Z " transform="translate(0.0 38.0)" stroke-dasharray="43.49705900957799" stroke-dashoffset="43.49705900957799"><animate attributeName="stroke-dashoffset" from="43.49705900957799" to="0" dur="1.3049117702873396s" begin="anim11.end" fill="freeze" id="anim12" /></path><path d="M 44.3 -25.6 L 31.9 -25.6 " transform="translate(0.0 38.0)" stroke-dasharray="12.399999999999999" stroke-dashoffset="12.399999999999999"><animate attributeName="stroke-dashoffset" from="12.399999999999999" to="0" dur="0.37199999999999994s" begin="anim12.end" fill="freeze" id="anim13" /></path><path d="M 38.0 -21.3 L 38.0 -40.5 " transform="translate(0.0 38.0)" stroke-dasharray="19.2" stroke-dashoffset="19.2"><animate attributeName="stroke-dashoffset" from="19.2" to="0" dur="0.576s" begin="anim13.end" fill="freeze" id="anim14" /></path><path d="M 46.4 -35.8 L 30.4 -35.8" transform="translate(0.0 38.0)" stroke-dasharray="16.0" stroke-dashoffset="16.0"><animate attributeName="stroke-dashoffset" from="16.0" to="0" dur="0.48s" begin="anim14.end" fill="freeze" id="anim_end" /></path></g></svg>