<?xml version='1.0' encoding='utf-8'?>
<svg viewBox="0.0 -6.0 50.0 50.0" version="1.1" xmlns="http://www.w3.org/2000/svg"><rect x="-1000" y="-1000" width="2000" height="2000" stroke="white" fill="white" /><g style="fill:none;stroke:#000000;stroke-width:1"><path d="M 14.0 1.2 C 16.2 -2.8 17.5 -8.2 17.5 -14.6 L 17.5 -17.2 C 17.5 -19.6 18.6 -20.5 21.3 -20.5 L 44.1 -20.5 " transform="translate(0.0 38.0)" stroke-dasharray="47.60740207348316" stroke-dashoffset="47.60740207348316"><animate attributeName="stroke-dashoffset" from="47.60740207348316" to="0" dur="1.4282220622044948s" begin="0s" fill="freeze" /></path><path d="M 8.8 2.7 L 8.8 -25.6 " transform="translate(0.0 38.0)" stroke-dasharray="28.3" stroke-dashoffset="28.3"><animate attributeName="stroke-dashoffset" from="28.3" to="0" dur="0.849s" begin="1.4282220622044948s" fill="freeze" /></path><path d="M 21.1 1.9 C 24.6 1.5 29.0 0.7 32.2 -0.3 " transform="translate(0.0 38.0)" stroke-dasharray="11.33046157907012" stroke-dashoffset="11.33046157907012"><animate attributeName="stroke-dashoffset" from="11.33046157907012" to="0" dur="0.33991384737210356s" begin="2.277222062204495s" fill="freeze" /></path><path d="M 25.4 0.5 L 25.4 -10.2 " transform="translate(0.0 38.0)" stroke-dasharray="10.7" stroke-dashoffset="10.7"><animate attributeName="stroke-dashoffset" from="10.7" to="0" dur="0.32099999999999995s" begin="2.6171359095765987s" fill="freeze" /></path><path d="M 3.0 -19.1 C 6.2 -24.3 9.5 -32.5 11.1 -39.9 " transform="translate(0.0 38.0)" stroke-dasharray="22.413118875397977" stroke-dashoffset="22.413118875397977"><animate attributeName="stroke-dashoffset" from="22.413118875397977" to="0" dur="0.6723935662619392s" begin="2.938135909576599s" fill="freeze" /></path><path d="M 46.0 -9.8 L 17.5 -9.8 " transform="translate(0.0 38.0)" stroke-dasharray="28.5" stroke-dashoffset="28.5"><animate attributeName="stroke-dashoffset" from="28.5" to="0" dur="0.855s" begin="3.610529475838538s" fill="freeze" /></path><path d="M 45.4 1.8 C 39.5 -0.1 34.6 -3.6 31.9 -9.4 " transform="translate(0.0 38.0)" stroke-dasharray="18.075626928013538" stroke-dashoffset="18.075626928013538"><animate attributeName="stroke-dashoffset" from="18.075626928013538" to="0" dur="0.5422688078404061s" begin="4.465529475838538s" fill="freeze" /></path><path d="M 37.3 -2.5 C 39.0 -3.6 40.0 -4.5 41.5 -6.2 " transform="translate(0.0 38.0)" stroke-dasharray="5.618917166735433" stroke-dashoffset="5.618917166735433"><animate attributeName="stroke-dashoffset" from="5.618917166735433" to="0" dur="0.168567515002063s" begin="5.0077982836789445s" fill="freeze" /></path><path d="M 40.0 -15.2 L 24.4 -15.2 " transform="translate(0.0 38.0)" stroke-dasharray="15.600000000000001" stroke-dashoffset="15.600000000000001"><animate attributeName="stroke-dashoffset" from="15.600000000000001" to="0" dur="0.468s" begin="5.176365798681007s" fill="freeze" /></path><path d="M 26.7 -26.1 L 26.7 -40.4 " transform="translate(0.0 38.0)" stroke-dasharray="14.299999999999997" stroke-dashoffset="14.299999999999997"><animate attributeName="stroke-dashoffset" from="14.299999999999997" to="0" dur="0.4289999999999999s" begin="5.644365798681007s" fill="freeze" /></path><path d="M 22.6 -25.4 L 38.6 -25.4 C 41.2 -25.4 42.0 -26.4 42.0 -28.1 L 42.0 -33.9 C 42.0 -35.7 41.2 -36.6 38.6 -36.6 L 22.6 -36.6 C 20.1 -36.6 19.2 -35.7 19.2 -33.9 L 19.2 -28.1 C 19.2 -26.4 20.1 -25.4 22.6 -25.4 Z " transform="translate(0.0 38.0)" stroke-dasharray="63.65057349146623" stroke-dashoffset="63.65057349146623"><animate attributeName="stroke-dashoffset" from="63.65057349146623" to="0" dur="1.909517204743987s" begin="6.0733657986810075s" fill="freeze" /></path><path d="M 41.1 -31.1 L 20.2 -31.1 " transform="translate(0.0 38.0)" stroke-dasharray="20.900000000000002" stroke-dashoffset="20.900000000000002"><animate attributeName="stroke-dashoffset" from="20.900000000000002" to="0" dur="0.627s" begin="7.982883003424995s" fill="freeze" /></path><path d="M 34.1 -26.1 L 34.1 -40.4" transform="translate(0.0 38.0)" stroke-dasharray="14.299999999999997" stroke-dashoffset="14.299999999999997"><animate attributeName="stroke-dashoffset" from="14.299999999999997" to="0" dur="0.4289999999999999s" begin="8.609883003424995s" fill="freeze" /></path></g></svg>