<?xml version='1.0' encoding='utf-8'?>
<svg viewBox="0.0 -6.0 50.0 50.0" version="1.1" xmlns="http://www.w3.org/2000/svg"><rect x="-1000" y="-1000" width="2000" height="2000" stroke="white" fill="white" /><g style="fill:none;stroke:#000000;stroke-width:1"><path d="M 34.8 -0.1 C 35.5 0.1 36.2 0.1 37.0 0.1 C 38.6 0.1 39.6 -0.6 39.6 -2.5 L 39.6 -7.8 C 39.6 -9.9 38.7 -10.8 36.0 -10.8 L 14.2 -10.8 C 11.5 -10.8 10.6 -9.8 10.6 -7.8 L 10.6 0.4 " transform="translate(0.0 38.0)" stroke-dasharray="52.638683618951106" stroke-dashoffset="52.638683618951106"><animate attributeName="stroke-dashoffset" from="52.638683618951106" to="0" dur="1.5791605085685332s" begin="0s; 15s; 30s; 45s" fill="freeze" id="anim0" /></path><path d="M 24.9 3.0 L 24.9 -15.2 " transform="translate(0.0 38.0)" stroke-dasharray="18.2" stroke-dashoffset="18.2"><animate attributeName="stroke-dashoffset" from="18.2" to="0" dur="0.5459999999999999s" begin="anim0.end" fill="freeze" id="anim1" /></path><path d="M 20.6 -19.2 C 21.2 -19.1 21.8 -19.1 22.2 -19.1 C 24.1 -19.1 24.9 -19.9 24.9 -21.8 L 24.9 -30.1 C 24.9 -31.9 24.1 -32.9 21.4 -32.9 L 9.7 -32.9 C 7.0 -32.9 6.2 -31.9 6.2 -30.1 L 6.2 -18.1 " transform="translate(0.0 38.0)" stroke-dasharray="48.41520078520147" stroke-dashoffset="48.41520078520147"><animate attributeName="stroke-dashoffset" from="48.41520078520147" to="0" dur="1.452456023556044s" begin="anim1.end" fill="freeze" id="anim2" /></path><path d="M 13.8 -22.6 L 17.1 -22.6 C 18.8 -22.6 19.3 -23.1 19.3 -24.4 L 19.3 -26.4 C 19.3 -27.6 18.8 -28.2 17.1 -28.2 L 13.8 -28.2 C 12.2 -28.2 11.7 -27.6 11.7 -26.4 L 11.7 -24.4 C 11.7 -23.1 12.2 -22.6 13.8 -22.6 Z " transform="translate(0.0 38.0)" stroke-dasharray="23.693198978290273" stroke-dashoffset="23.693198978290273"><animate attributeName="stroke-dashoffset" from="23.693198978290273" to="0" dur="0.7107959693487081s" begin="anim2.end" fill="freeze" id="anim3" /></path><path d="M 3.2 -34.6 C 5.1 -35.8 7.2 -37.4 8.8 -39.2 " transform="translate(0.0 38.0)" stroke-dasharray="7.269780247021608" stroke-dashoffset="7.269780247021608"><animate attributeName="stroke-dashoffset" from="7.269780247021608" to="0" dur="0.21809340741064825s" begin="anim3.end" fill="freeze" id="anim4" /></path><path d="M 15.4 -32.3 L 15.4 -40.6 " transform="translate(0.0 38.0)" stroke-dasharray="8.300000000000004" stroke-dashoffset="8.300000000000004"><animate attributeName="stroke-dashoffset" from="8.300000000000004" to="0" dur="0.2490000000000001s" begin="anim4.end" fill="freeze" id="anim5" /></path><path d="M 29.7 -19.2 C 35.8 -21.8 40.8 -26.8 43.1 -34.0 " transform="translate(0.0 38.0)" stroke-dasharray="20.60992778189501" stroke-dashoffset="20.60992778189501"><animate attributeName="stroke-dashoffset" from="20.60992778189501" to="0" dur="0.6182978334568503s" begin="anim5.end" fill="freeze" id="anim6" /></path><path d="M 26.7 -35.9 C 25.2 -37.2 23.4 -38.6 21.8 -39.5 " transform="translate(0.0 38.0)" stroke-dasharray="6.089702032243614" stroke-dashoffset="6.089702032243614"><animate attributeName="stroke-dashoffset" from="6.089702032243614" to="0" dur="0.18269106096730842s" begin="anim6.end" fill="freeze" id="anim7" /></path><path d="M 46.1 -18.2 C 40.0 -20.9 34.8 -26.2 32.3 -33.0 " transform="translate(0.0 38.0)" stroke-dasharray="20.779886158536364" stroke-dashoffset="20.779886158536364"><animate attributeName="stroke-dashoffset" from="20.779886158536364" to="0" dur="0.6233965847560909s" begin="anim7.end" fill="freeze" id="anim8" /></path><path d="M 29.5 -29.4 C 31.9 -32.5 34.0 -36.4 35.4 -40.1 " transform="translate(0.0 38.0)" stroke-dasharray="12.261182561567827" stroke-dashoffset="12.261182561567827"><animate attributeName="stroke-dashoffset" from="12.261182561567827" to="0" dur="0.36783547684703477s" begin="anim8.end" fill="freeze" id="anim9" /></path><path d="M 46.3 -34.5 L 32.8 -34.5" transform="translate(0.0 38.0)" stroke-dasharray="13.5" stroke-dashoffset="13.5"><animate attributeName="stroke-dashoffset" from="13.5" to="0" dur="0.40499999999999997s" begin="anim9.end" fill="freeze" id="anim_end" /></path></g></svg>