<?xml version='1.0' encoding='utf-8'?>
<svg viewBox="0.0 -6.0 50.0 50.0" version="1.1" xmlns="http://www.w3.org/2000/svg"><rect x="-1000" y="-1000" width="2000" height="2000" stroke="white" fill="white" /><g style="fill:none;stroke:#000000;stroke-width:1"><path d="M 15.3 -11.2 C 26.2 -17.2 36.6 -27.4 43.0 -37.9 " transform="translate(0.0 38.0)" stroke-dasharray="38.87510428182502" stroke-dashoffset="38.87510428182502"><animate attributeName="stroke-dashoffset" from="38.87510428182502" to="0" dur="1.1662531284547504s" begin="0s; anim_end.end" fill="freeze" id="anim0" /></path><path d="M 9.7 2.6 L 9.7 -25.4 " transform="translate(0.0 38.0)" stroke-dasharray="28.0" stroke-dashoffset="28.0"><animate attributeName="stroke-dashoffset" from="28.0" to="0" dur="0.84s" begin="anim0.end" fill="freeze" id="anim1" /></path><path d="M 3.1 -18.6 C 6.7 -23.6 10.3 -31.9 12.2 -39.4 " transform="translate(0.0 38.0)" stroke-dasharray="22.816741191870754" stroke-dashoffset="22.816741191870754"><animate attributeName="stroke-dashoffset" from="22.816741191870754" to="0" dur="0.6845022357561226s" begin="anim1.end" fill="freeze" id="anim2" /></path><path d="M 27.4 1.7 L 37.7 1.7 C 40.3 1.7 41.2 0.5 41.2 -1.5 L 41.2 -11.3 C 41.2 -13.2 40.3 -14.5 37.7 -14.5 L 27.4 -14.5 C 24.8 -14.5 23.9 -13.2 23.9 -11.3 L 23.9 -1.5 C 23.9 0.5 24.8 1.7 27.4 1.7 Z " transform="translate(0.0 38.0)" stroke-dasharray="62.03169514645623" stroke-dashoffset="62.03169514645623"><animate attributeName="stroke-dashoffset" from="62.03169514645623" to="0" dur="1.8609508543936868s" begin="anim2.end" fill="freeze" id="anim3" /></path><path d="M 40.9 -6.7 L 24.3 -6.7 " transform="translate(0.0 38.0)" stroke-dasharray="16.599999999999998" stroke-dashoffset="16.599999999999998"><animate attributeName="stroke-dashoffset" from="16.599999999999998" to="0" dur="0.49799999999999994s" begin="anim3.end" fill="freeze" id="anim4" /></path><path d="M 46.4 -24.8 L 15.7 -24.8 " transform="translate(0.0 38.0)" stroke-dasharray="30.7" stroke-dashoffset="30.7"><animate attributeName="stroke-dashoffset" from="30.7" to="0" dur="0.9209999999999999s" begin="anim4.end" fill="freeze" id="anim5" /></path><path d="M 38.2 -18.3 C 37.3 -19.2 36.2 -20.2 35.2 -20.9 " transform="translate(0.0 38.0)" stroke-dasharray="3.974515261943295" stroke-dashoffset="3.974515261943295"><animate attributeName="stroke-dashoffset" from="3.974515261943295" to="0" dur="0.11923545785829884s" begin="anim5.end" fill="freeze" id="anim6" /></path><path d="M 34.5 -33.8 L 19.0 -33.8 " transform="translate(0.0 38.0)" stroke-dasharray="15.5" stroke-dashoffset="15.5"><animate attributeName="stroke-dashoffset" from="15.5" to="0" dur="0.46499999999999997s" begin="anim6.end" fill="freeze" id="anim7" /></path><path d="M 27.8 -24.9 L 27.8 -40.0" transform="translate(0.0 38.0)" stroke-dasharray="15.100000000000001" stroke-dashoffset="15.100000000000001"><animate attributeName="stroke-dashoffset" from="15.100000000000001" to="0" dur="0.453s" begin="anim7.end" fill="freeze" id="anim_end" /></path></g></svg>