<?xml version='1.0' encoding='utf-8'?>
<svg viewBox="0.0 -6.0 50.0 50.0" version="1.1" xmlns="http://www.w3.org/2000/svg"><rect x="-1000" y="-1000" width="2000" height="2000" stroke="white" fill="white" /><g style="fill:none;stroke:#000000;stroke-width:1"><path d="M 18.6 -16.8 L 18.6 -2.0 C 18.6 0.7 19.7 1.4 22.6 1.4 L 39.3 1.4 C 42.2 1.4 43.3 0.7 43.3 -2.0 L 43.3 -16.8 " transform="translate(0.0 38.0)" stroke-dasharray="58.66537481594692" stroke-dashoffset="58.66537481594692"><animate attributeName="stroke-dashoffset" from="58.66537481594692" to="0" dur="1.7599612444784074s" begin="0s; 15s; 30s; 45s" fill="freeze" id="anim0" /></path><path d="M 23.2 -1.9 C 24.5 -3.1 25.8 -4.8 26.5 -6.2 " transform="translate(0.0 38.0)" stroke-dasharray="5.445964458897219" stroke-dashoffset="5.445964458897219"><animate attributeName="stroke-dashoffset" from="5.445964458897219" to="0" dur="0.16337893376691656s" begin="anim0.end" fill="freeze" id="anim1" /></path><path d="M 28.7 -2.3 C 27.9 -3.0 27.0 -3.9 25.9 -4.5 " transform="translate(0.0 38.0)" stroke-dasharray="3.5695443385273684" stroke-dashoffset="3.5695443385273684"><animate attributeName="stroke-dashoffset" from="3.5695443385273684" to="0" dur="0.10708633015582104s" begin="anim1.end" fill="freeze" id="anim2" /></path><path d="M 4.5 -33.1 L 4.5 -15.2 C 4.5 -13.2 5.3 -12.4 7.2 -12.4 L 9.2 -12.4 C 11.1 -12.4 11.8 -13.2 11.8 -15.2 L 11.8 -33.1 C 11.8 -35.2 11.1 -36.0 9.2 -36.0 L 7.2 -36.0 C 5.3 -36.0 4.5 -35.2 4.5 -33.1 Z " transform="translate(0.0 38.0)" stroke-dasharray="57.936593870473324" stroke-dashoffset="57.936593870473324"><animate attributeName="stroke-dashoffset" from="57.936593870473324" to="0" dur="1.7380978161141996s" begin="anim2.end" fill="freeze" id="anim3" /></path><path d="M 23.1 -10.8 C 24.4 -12.1 25.6 -13.8 26.4 -15.2 " transform="translate(0.0 38.0)" stroke-dasharray="5.514883376359251" stroke-dashoffset="5.514883376359251"><animate attributeName="stroke-dashoffset" from="5.514883376359251" to="0" dur="0.1654465012907775s" begin="anim3.end" fill="freeze" id="anim4" /></path><path d="M 33.0 -1.8 C 34.2 -3.0 35.5 -4.8 36.4 -6.2 " transform="translate(0.0 38.0)" stroke-dasharray="5.569861744157344" stroke-dashoffset="5.569861744157344"><animate attributeName="stroke-dashoffset" from="5.569861744157344" to="0" dur="0.16709585232472032s" begin="anim4.end" fill="freeze" id="anim5" /></path><path d="M 42.6 -8.2 L 19.2 -8.2 " transform="translate(0.0 38.0)" stroke-dasharray="23.400000000000002" stroke-dashoffset="23.400000000000002"><animate attributeName="stroke-dashoffset" from="23.400000000000002" to="0" dur="0.7020000000000001s" begin="anim5.end" fill="freeze" id="anim6" /></path><path d="M 28.7 -11.4 C 27.9 -12.2 27.0 -12.9 25.9 -13.6 " transform="translate(0.0 38.0)" stroke-dasharray="3.5682006322501834" stroke-dashoffset="3.5682006322501834"><animate attributeName="stroke-dashoffset" from="3.5682006322501834" to="0" dur="0.1070460189675055s" begin="anim6.end" fill="freeze" id="anim7" /></path><path d="M 39.0 -2.1 C 38.2 -2.9 37.2 -3.7 36.1 -4.3 " transform="translate(0.0 38.0)" stroke-dasharray="3.652146075240025" stroke-dashoffset="3.652146075240025"><animate attributeName="stroke-dashoffset" from="3.652146075240025" to="0" dur="0.10956438225720075s" begin="anim7.end" fill="freeze" id="anim8" /></path><path d="M 22.3 -17.6 L 22.3 -22.1 " transform="translate(0.0 38.0)" stroke-dasharray="4.5" stroke-dashoffset="4.5"><animate attributeName="stroke-dashoffset" from="4.5" to="0" dur="0.135s" begin="anim8.end" fill="freeze" id="anim9" /></path><path d="M 33.0 -10.9 C 34.2 -12.2 35.5 -13.8 36.4 -15.2 " transform="translate(0.0 38.0)" stroke-dasharray="5.488041966400652" stroke-dashoffset="5.488041966400652"><animate attributeName="stroke-dashoffset" from="5.488041966400652" to="0" dur="0.16464125899201956s" begin="anim9.end" fill="freeze" id="anim10" /></path><path d="M 46.8 -17.4 L 15.8 -17.4 " transform="translate(0.0 38.0)" stroke-dasharray="30.999999999999996" stroke-dashoffset="30.999999999999996"><animate attributeName="stroke-dashoffset" from="30.999999999999996" to="0" dur="0.9299999999999998s" begin="anim10.end" fill="freeze" id="anim11" /></path><path d="M 39.0 -11.2 C 38.2 -12.0 37.2 -12.8 36.1 -13.4 " transform="translate(0.0 38.0)" stroke-dasharray="3.6521460752400263" stroke-dashoffset="3.6521460752400263"><animate attributeName="stroke-dashoffset" from="3.6521460752400263" to="0" dur="0.10956438225720079s" begin="anim11.end" fill="freeze" id="anim12" /></path><path d="M 16.9 -25.6 C 20.9 -26.4 25.9 -27.8 30.1 -29.4 " transform="translate(0.0 38.0)" stroke-dasharray="13.750372239388819" stroke-dashoffset="13.750372239388819"><animate attributeName="stroke-dashoffset" from="13.750372239388819" to="0" dur="0.41251116718166453s" begin="anim12.end" fill="freeze" id="anim13" /></path><path d="M 31.0 -17.0 L 31.0 -24.4 " transform="translate(0.0 38.0)" stroke-dasharray="7.399999999999999" stroke-dashoffset="7.399999999999999"><animate attributeName="stroke-dashoffset" from="7.399999999999999" to="0" dur="0.22199999999999995s" begin="anim13.end" fill="freeze" id="anim14" /></path><path d="M 23.6 -24.4 L 22.5 -40.5 " transform="translate(0.0 38.0)" stroke-dasharray="16.137533888422976" stroke-dashoffset="16.137533888422976"><animate attributeName="stroke-dashoffset" from="16.137533888422976" to="0" dur="0.48412601665268923s" begin="anim14.end" fill="freeze" id="anim15" /></path><path d="M 17.6 -30.9 C 21.2 -31.6 25.1 -32.6 28.6 -34.1 " transform="translate(0.0 38.0)" stroke-dasharray="11.477225786338721" stroke-dashoffset="11.477225786338721"><animate attributeName="stroke-dashoffset" from="11.477225786338721" to="0" dur="0.3443167735901616s" begin="anim15.end" fill="freeze" id="anim16" /></path><path d="M 40.6 -22.2 L 31.3 -22.2 " transform="translate(0.0 38.0)" stroke-dasharray="9.3" stroke-dashoffset="9.3"><animate attributeName="stroke-dashoffset" from="9.3" to="0" dur="0.279s" begin="anim16.end" fill="freeze" id="anim17" /></path><path d="M 17.3 -36.0 C 20.7 -36.5 24.4 -37.4 27.8 -38.6 " transform="translate(0.0 38.0)" stroke-dasharray="10.833286280536221" stroke-dashoffset="10.833286280536221"><animate attributeName="stroke-dashoffset" from="10.833286280536221" to="0" dur="0.32499858841608664s" begin="anim17.end" fill="freeze" id="anim18" /></path><path d="M 33.8 -27.2 C 36.3 -29.4 38.0 -33.1 38.4 -37.1 " transform="translate(0.0 38.0)" stroke-dasharray="11.162620548834266" stroke-dashoffset="11.162620548834266"><animate attributeName="stroke-dashoffset" from="11.162620548834266" to="0" dur="0.334878616465028s" begin="anim18.end" fill="freeze" id="anim19" /></path><path d="M 39.9 -26.9 C 40.5 -26.9 40.9 -26.8 41.5 -26.8 C 43.2 -26.8 44.1 -27.4 44.7 -29.9 C 45.1 -31.4 45.3 -33.2 45.4 -35.4 C 45.5 -37.2 44.5 -38.0 42.5 -38.0 L 33.6 -38.0" transform="translate(0.0 38.0)" stroke-dasharray="25.543028738812858" stroke-dashoffset="25.543028738812858"><animate attributeName="stroke-dashoffset" from="25.543028738812858" to="0" dur="0.7662908621643857s" begin="anim19.end" fill="freeze" id="anim_end" /></path></g></svg>