<?xml version='1.0' encoding='utf-8'?>
<svg viewBox="0.0 -6.0 50.0 50.0" version="1.1" xmlns="http://www.w3.org/2000/svg"><rect x="-1000" y="-1000" width="2000" height="2000" stroke="white" fill="white" /><g style="fill:none;stroke:#000000;stroke-width:1"><path d="M 18.4 0.5 C 24.9 -6.2 29.8 -17.8 31.1 -28.5 " transform="translate(0.0 38.0)" stroke-dasharray="32.1544865626144" stroke-dashoffset="32.1544865626144"><animate attributeName="stroke-dashoffset" from="32.1544865626144" to="0" dur="0.964634596878432s" begin="0s; anim_end.end" fill="freeze" id="anim0" /></path><path d="M 5.2 -32.3 L 5.2 -10.6 C 5.2 -8.2 6.2 -7.5 8.2 -7.5 L 14.2 -7.5 C 16.2 -7.5 17.2 -8.2 17.2 -10.6 L 17.2 -32.3 " transform="translate(0.0 38.0)" stroke-dasharray="59.465673219560834" stroke-dashoffset="59.465673219560834"><animate attributeName="stroke-dashoffset" from="59.465673219560834" to="0" dur="1.7839701965868249s" begin="anim0.end" fill="freeze" id="anim1" /></path><path d="M 27.0 0.9 C 32.6 0.5 39.0 -0.7 43.9 -1.8 " transform="translate(0.0 38.0)" stroke-dasharray="17.129108633633397" stroke-dashoffset="17.129108633633397"><animate attributeName="stroke-dashoffset" from="17.129108633633397" to="0" dur="0.5138732590090019s" begin="anim1.end" fill="freeze" id="anim2" /></path><path d="M 11.2 -7.3 L 11.2 -39.9 " transform="translate(0.0 38.0)" stroke-dasharray="32.6" stroke-dashoffset="32.6"><animate attributeName="stroke-dashoffset" from="32.6" to="0" dur="0.978s" begin="anim2.end" fill="freeze" id="anim3" /></path><path d="M 30.2 0.4 C 32.5 -4.2 34.8 -10.4 36.0 -14.9 " transform="translate(0.0 38.0)" stroke-dasharray="16.386093327610993" stroke-dashoffset="16.386093327610993"><animate attributeName="stroke-dashoffset" from="16.386093327610993" to="0" dur="0.49158279982832975s" begin="anim3.end" fill="freeze" id="anim4" /></path><path d="M 45.4 1.0 C 44.4 -1.6 42.1 -5.2 40.5 -7.4 " transform="translate(0.0 38.0)" stroke-dasharray="9.746774119871231" stroke-dashoffset="9.746774119871231"><animate attributeName="stroke-dashoffset" from="9.746774119871231" to="0" dur="0.2924032235961369s" begin="anim4.end" fill="freeze" id="anim5" /></path><path d="M 46.5 -21.9 L 22.2 -21.9 " transform="translate(0.0 38.0)" stroke-dasharray="24.3" stroke-dashoffset="24.3"><animate attributeName="stroke-dashoffset" from="24.3" to="0" dur="0.729s" begin="anim5.end" fill="freeze" id="anim6" /></path><path d="M 45.3 -28.8 L 45.3 -31.6 C 45.3 -33.5 44.4 -34.5 41.6 -34.5 L 26.9 -34.5 C 24.1 -34.5 23.1 -33.5 23.1 -31.6 L 23.1 -28.6 " transform="translate(0.0 38.0)" stroke-dasharray="31.440794893920476" stroke-dashoffset="31.440794893920476"><animate attributeName="stroke-dashoffset" from="31.440794893920476" to="0" dur="0.9432238468176143s" begin="anim6.end" fill="freeze" id="anim7" /></path><path d="M 34.0 -34.6 L 34.0 -40.1" transform="translate(0.0 38.0)" stroke-dasharray="5.5" stroke-dashoffset="5.5"><animate attributeName="stroke-dashoffset" from="5.5" to="0" dur="0.16499999999999998s" begin="anim7.end" fill="freeze" id="anim_end" /></path></g></svg>