<?xml version='1.0' encoding='utf-8'?>
<svg viewBox="0.0 -6.0 50.0 50.0" version="1.1" xmlns="http://www.w3.org/2000/svg"><rect x="-1000" y="-1000" width="2000" height="2000" stroke="white" fill="white" /><g style="fill:none;stroke:#000000;stroke-width:1"><path d="M 44.6 -19.4 L 44.6 -22.4 C 44.6 -24.4 43.7 -25.3 41.1 -25.3 L 8.8 -25.3 C 6.3 -25.3 5.3 -24.4 5.3 -22.4 L 5.3 -19.2 " transform="translate(0.0 38.0)" stroke-dasharray="49.03798342977268" stroke-dashoffset="49.03798342977268"><animate attributeName="stroke-dashoffset" from="49.03798342977268" to="0" dur="1.4711395028931804s" begin="0s" fill="freeze" /></path><path d="M 46.0 1.2 L 4.0 1.2 " transform="translate(0.0 38.0)" stroke-dasharray="42.0" stroke-dashoffset="42.0"><animate attributeName="stroke-dashoffset" from="42.0" to="0" dur="1.26s" begin="1.4711395028931804s" fill="freeze" /></path><path d="M 20.1 1.1 L 20.1 -3.2 C 20.1 -5.0 19.4 -5.7 17.5 -5.7 L 13.4 -5.7 C 10.9 -5.7 10.3 -6.3 10.3 -8.0 L 10.3 -10.8 C 10.3 -12.5 10.9 -13.2 13.4 -13.2 L 17.5 -13.2 C 19.4 -13.2 20.1 -13.8 20.1 -15.6 L 20.1 -19.6 " transform="translate(0.0 38.0)" stroke-dasharray="36.805577622299396" stroke-dashoffset="36.805577622299396"><animate attributeName="stroke-dashoffset" from="36.805577622299396" to="0" dur="1.104167328668982s" begin="2.73113950289318s" fill="freeze" /></path><path d="M 29.6 1.1 L 29.6 -3.2 C 29.6 -5.0 30.4 -5.7 32.3 -5.7 L 36.8 -5.7 C 39.4 -5.7 40.0 -6.3 40.0 -8.0 L 40.0 -10.8 C 40.0 -12.5 39.4 -13.2 36.8 -13.2 L 32.3 -13.2 C 30.4 -13.2 29.6 -13.8 29.6 -15.6 L 29.6 -19.6 " transform="translate(0.0 38.0)" stroke-dasharray="37.922100887168476" stroke-dashoffset="37.922100887168476"><animate attributeName="stroke-dashoffset" from="37.922100887168476" to="0" dur="1.1376630266150543s" begin="3.8353068315621623s" fill="freeze" /></path><path d="M 39.2 -19.6 L 10.8 -19.6 " transform="translate(0.0 38.0)" stroke-dasharray="28.400000000000002" stroke-dashoffset="28.400000000000002"><animate attributeName="stroke-dashoffset" from="28.400000000000002" to="0" dur="0.852s" begin="4.972969858177216s" fill="freeze" /></path><path d="M 39.8 -31.1 L 10.9 -31.1 " transform="translate(0.0 38.0)" stroke-dasharray="28.9" stroke-dashoffset="28.9"><animate attributeName="stroke-dashoffset" from="28.9" to="0" dur="0.8669999999999999s" begin="5.824969858177217s" fill="freeze" /></path><path d="M 24.9 -31.1 L 24.9 -40.6 " transform="translate(0.0 38.0)" stroke-dasharray="9.5" stroke-dashoffset="9.5"><animate attributeName="stroke-dashoffset" from="9.5" to="0" dur="0.285s" begin="6.691969858177217s" fill="freeze" /></path><path d="M 45.1 -37.0 L 5.2 -37.0" transform="translate(0.0 38.0)" stroke-dasharray="39.9" stroke-dashoffset="39.9"><animate attributeName="stroke-dashoffset" from="39.9" to="0" dur="1.1969999999999998s" begin="6.976969858177217s" fill="freeze" /></path></g></svg>