<?xml version='1.0' encoding='utf-8'?>
<svg viewBox="0.0 -6.0 50.0 50.0" version="1.1" xmlns="http://www.w3.org/2000/svg"><rect x="-1000" y="-1000" width="2000" height="2000" stroke="white" fill="white" /><g style="fill:none;stroke:#000000;stroke-width:1"><path d="M 44.0 -29.7 L 44.0 -32.8 C 44.0 -34.6 43.1 -35.8 40.2 -35.8 L 9.8 -35.8 C 7.0 -35.8 6.1 -34.6 6.1 -32.8 L 6.1 -29.2 " transform="translate(0.0 38.0)" stroke-dasharray="48.13429875590471" stroke-dashoffset="48.13429875590471"><animate attributeName="stroke-dashoffset" from="48.13429875590471" to="0" dur="1.4440289626771412s" begin="0s; 15s; 30s; 45s" fill="freeze" id="anim0" /></path><path d="M 14.3 -1.5 L 21.9 -1.5 C 24.0 -1.5 24.6 -2.5 24.6 -4.0 L 24.6 -7.3 C 24.6 -8.8 24.0 -9.8 21.9 -9.8 L 14.2 -9.8 C 12.2 -9.8 11.5 -8.8 11.5 -7.3 L 11.5 -4.0 C 11.5 -2.5 12.2 -1.5 14.3 -1.5 Z " transform="translate(0.0 38.0)" stroke-dasharray="38.95275095787499" stroke-dashoffset="38.95275095787499"><animate attributeName="stroke-dashoffset" from="38.95275095787499" to="0" dur="1.1685825287362497s" begin="anim0.end" fill="freeze" id="anim1" /></path><path d="M 30.9 2.3 C 31.8 2.5 32.8 2.6 33.8 2.6 C 35.9 2.6 36.9 1.9 36.9 -0.5 L 36.9 -15.4 " transform="translate(0.0 38.0)" stroke-dasharray="22.944152053594912" stroke-dashoffset="22.944152053594912"><animate attributeName="stroke-dashoffset" from="22.944152053594912" to="0" dur="0.6883245616078474s" begin="anim1.end" fill="freeze" id="anim2" /></path><path d="M 46.7 -15.4 L 3.5 -15.4 " transform="translate(0.0 38.0)" stroke-dasharray="43.2" stroke-dashoffset="43.2"><animate attributeName="stroke-dashoffset" from="43.2" to="0" dur="1.296s" begin="anim2.end" fill="freeze" id="anim3" /></path><path d="M 10.6 -19.4 C 18.0 -20.6 23.4 -24.6 24.9 -32.5 " transform="translate(0.0 38.0)" stroke-dasharray="20.850681294802545" stroke-dashoffset="20.850681294802545"><animate attributeName="stroke-dashoffset" from="20.850681294802545" to="0" dur="0.6255204388440764s" begin="anim3.end" fill="freeze" id="anim4" /></path><path d="M 34.3 -19.9 C 30.9 -22.2 26.6 -24.1 22.2 -25.2 " transform="translate(0.0 38.0)" stroke-dasharray="13.27442117858257" stroke-dashoffset="13.27442117858257"><animate attributeName="stroke-dashoffset" from="13.27442117858257" to="0" dur="0.39823263535747705s" begin="anim4.end" fill="freeze" id="anim5" /></path><path d="M 38.2 -28.9 L 11.7 -28.9 " transform="translate(0.0 38.0)" stroke-dasharray="26.500000000000004" stroke-dashoffset="26.500000000000004"><animate attributeName="stroke-dashoffset" from="26.500000000000004" to="0" dur="0.795s" begin="anim5.end" fill="freeze" id="anim6" /></path><path d="M 24.9 -36.0 L 24.9 -40.8" transform="translate(0.0 38.0)" stroke-dasharray="4.799999999999997" stroke-dashoffset="4.799999999999997"><animate attributeName="stroke-dashoffset" from="4.799999999999997" to="0" dur="0.1439999999999999s" begin="anim6.end" fill="freeze" id="anim_end" /></path></g></svg>