<?xml version='1.0' encoding='utf-8'?>
<svg viewBox="0.0 -6.0 50.0 50.0" version="1.1" xmlns="http://www.w3.org/2000/svg"><rect x="-1000" y="-1000" width="2000" height="2000" stroke="white" fill="white" /><g style="fill:none;stroke:#000000;stroke-width:1"><path d="M 13.3 0.5 C 16.1 -4.8 17.6 -11.3 17.6 -24.0 L 17.6 -32.5 C 17.6 -34.9 18.8 -36.1 21.9 -36.1 L 44.7 -36.1 " transform="translate(0.0 38.0)" stroke-dasharray="62.89988234461384" stroke-dashoffset="62.89988234461384"><animate attributeName="stroke-dashoffset" from="62.89988234461384" to="0" dur="1.8869964703384152s" begin="0s" fill="freeze" /></path><path d="M 8.8 2.7 L 8.8 -25.3 " transform="translate(0.0 38.0)" stroke-dasharray="28.0" stroke-dashoffset="28.0"><animate attributeName="stroke-dashoffset" from="28.0" to="0" dur="0.84s" begin="1.8869964703384152s" fill="freeze" /></path><path d="M 3.0 -18.9 C 6.2 -24.1 9.5 -32.3 11.1 -39.6 " transform="translate(0.0 38.0)" stroke-dasharray="22.31770820666515" stroke-dashoffset="22.31770820666515"><animate attributeName="stroke-dashoffset" from="22.31770820666515" to="0" dur="0.6695312461999544s" begin="2.726996470338415s" fill="freeze" /></path><path d="M 42.0 -4.5 L 23.4 -4.5 " transform="translate(0.0 38.0)" stroke-dasharray="18.6" stroke-dashoffset="18.6"><animate attributeName="stroke-dashoffset" from="18.6" to="0" dur="0.558s" begin="3.3965277165383694s" fill="freeze" /></path><path d="M 38.2 1.6 C 38.9 1.7 39.5 1.8 40.2 1.8 C 41.9 1.8 42.8 1.1 42.8 -0.8 L 42.8 -12.3 C 42.8 -14.4 41.9 -15.1 39.4 -15.1 L 26.2 -15.1 C 23.9 -15.1 22.9 -14.4 22.9 -12.3 L 22.9 2.6 " transform="translate(0.0 38.0)" stroke-dasharray="56.06242480911526" stroke-dashoffset="56.06242480911526"><animate attributeName="stroke-dashoffset" from="56.06242480911526" to="0" dur="1.6818727442734576s" begin="3.9545277165383697s" fill="freeze" /></path><path d="M 42.0 -9.7 L 23.4 -9.7 " transform="translate(0.0 38.0)" stroke-dasharray="18.6" stroke-dashoffset="18.6"><animate attributeName="stroke-dashoffset" from="18.6" to="0" dur="0.558s" begin="5.636400460811827s" fill="freeze" /></path><path d="M 32.4 2.0 L 32.4 -36.0 " transform="translate(0.0 38.0)" stroke-dasharray="38.0" stroke-dashoffset="38.0"><animate attributeName="stroke-dashoffset" from="38.0" to="0" dur="1.14s" begin="6.194400460811827s" fill="freeze" /></path><path d="M 23.5 -20.2 L 38.4 -20.2 C 41.0 -20.2 41.8 -21.1 41.8 -22.6 L 41.8 -28.4 C 41.8 -30.1 41.0 -30.8 38.4 -30.8 L 23.5 -30.8 " transform="translate(0.0 38.0)" stroke-dasharray="45.20775036582678" stroke-dashoffset="45.20775036582678"><animate attributeName="stroke-dashoffset" from="45.20775036582678" to="0" dur="1.3562325109748035s" begin="7.3344004608118265s" fill="freeze" /></path><path d="M 46.3 -25.6 L 18.1 -25.6 " transform="translate(0.0 38.0)" stroke-dasharray="28.199999999999996" stroke-dashoffset="28.199999999999996"><animate attributeName="stroke-dashoffset" from="28.199999999999996" to="0" dur="0.8459999999999999s" begin="8.69063297178663s" fill="freeze" /></path><path d="M 31.4 -36.5 L 31.4 -40.3" transform="translate(0.0 38.0)" stroke-dasharray="3.799999999999997" stroke-dashoffset="3.799999999999997"><animate attributeName="stroke-dashoffset" from="3.799999999999997" to="0" dur="0.11399999999999991s" begin="9.53663297178663s" fill="freeze" /></path></g></svg>