<?xml version='1.0' encoding='utf-8'?>
<svg viewBox="0.0 -6.0 50.0 50.0" version="1.1" xmlns="http://www.w3.org/2000/svg"><rect x="-1000" y="-1000" width="2000" height="2000" stroke="white" fill="white" /><g style="fill:none;stroke:#000000;stroke-width:1"><path d="M 28.2 -0.2 C 29.6 0.1 30.6 0.1 32.0 0.1 C 35.1 0.1 37.0 -0.9 38.4 -5.5 C 40.1 -11.1 41.2 -19.9 41.5 -28.0 C 41.5 -30.5 40.5 -32.0 36.9 -32.0 L 14.1 -32.0 " transform="translate(0.0 38.0)" stroke-dasharray="65.79837308442512" stroke-dashoffset="65.79837308442512"><animate attributeName="stroke-dashoffset" from="65.79837308442512" to="0" dur="1.9739511925327535s" begin="0s" fill="freeze" /></path><path d="M 6.3 -0.1 C 16.9 -5.7 25.1 -16.9 27.1 -31.4 " transform="translate(0.0 38.0)" stroke-dasharray="39.02552132136243" stroke-dashoffset="39.02552132136243"><animate attributeName="stroke-dashoffset" from="39.02552132136243" to="0" dur="1.170765639640873s" begin="1.9739511925327535s" fill="freeze" /></path><path d="M 5.2 -21.1 C 10.1 -25.7 14.8 -33.1 17.1 -39.6 " transform="translate(0.0 38.0)" stroke-dasharray="22.179030563581616" stroke-dashoffset="22.179030563581616"><animate attributeName="stroke-dashoffset" from="22.179030563581616" to="0" dur="0.6653709169074484s" begin="3.1447168321736267s" fill="freeze" /></path><path d="M 45.8 -3.6 C 30.4 -8.4 19.2 -17.8 13.4 -30.9" transform="translate(0.0 38.0)" stroke-dasharray="43.732406886074436" stroke-dashoffset="43.732406886074436"><animate attributeName="stroke-dashoffset" from="43.732406886074436" to="0" dur="1.311972206582233s" begin="3.810087749081075s" fill="freeze" /></path></g></svg>