<?xml version='1.0' encoding='utf-8'?>
<svg viewBox="0.0 -6.0 50.0 50.0" version="1.1" xmlns="http://www.w3.org/2000/svg"><rect x="-1000" y="-1000" width="2000" height="2000" stroke="white" fill="white" /><g style="fill:none;stroke:#000000;stroke-width:1"><path d="M 4.1 -0.3 C 10.4 -5.8 14.9 -15.9 15.3 -26.9 C 15.4 -29.0 14.6 -29.9 12.5 -29.9 L 3.5 -29.9 " transform="translate(0.0 38.0)" stroke-dasharray="43.44412128281846" stroke-dashoffset="43.44412128281846"><animate attributeName="stroke-dashoffset" from="43.44412128281846" to="0" dur="1.3033236384845537s" begin="0s" fill="freeze" /></path><path d="M 16.4 -7.5 C 13.6 -9.9 9.4 -12.3 5.8 -13.9 " transform="translate(0.0 38.0)" stroke-dasharray="12.420402389332263" stroke-dashoffset="12.420402389332263"><animate attributeName="stroke-dashoffset" from="12.420402389332263" to="0" dur="0.3726120716799679s" begin="1.3033236384845537s" fill="freeze" /></path><path d="M 4.8 -12.4 C 7.0 -20.3 8.9 -30.3 10.1 -40.2 " transform="translate(0.0 38.0)" stroke-dasharray="28.3256281826431" stroke-dashoffset="28.3256281826431"><animate attributeName="stroke-dashoffset" from="28.3256281826431" to="0" dur="0.849768845479293s" begin="1.6759357101645216s" fill="freeze" /></path><path d="M 17.0 -0.5 C 23.6 -6.1 28.5 -16.1 29.4 -25.4 " transform="translate(0.0 38.0)" stroke-dasharray="28.44505471101038" stroke-dashoffset="28.44505471101038"><animate attributeName="stroke-dashoffset" from="28.44505471101038" to="0" dur="0.8533516413303113s" begin="2.5257045556438147s" fill="freeze" /></path><path d="M 22.8 2.1 C 29.9 -0.1 36.0 -4.0 39.8 -9.1 C 41.3 -11.1 40.3 -12.7 37.7 -12.7 L 25.9 -12.7 " transform="translate(0.0 38.0)" stroke-dasharray="38.16092952811261" stroke-dashoffset="38.16092952811261"><animate attributeName="stroke-dashoffset" from="38.16092952811261" to="0" dur="1.1448278858433782s" begin="3.379056196974126s" fill="freeze" /></path><path d="M 45.3 1.4 C 37.5 -0.6 30.6 -5.3 27.1 -12.1 " transform="translate(0.0 38.0)" stroke-dasharray="23.34017719118771" stroke-dashoffset="23.34017719118771"><animate attributeName="stroke-dashoffset" from="23.34017719118771" to="0" dur="0.7002053157356313s" begin="4.523884082817505s" fill="freeze" /></path><path d="M 45.7 -19.1 L 20.0 -19.1 " transform="translate(0.0 38.0)" stroke-dasharray="25.700000000000003" stroke-dashoffset="25.700000000000003"><animate attributeName="stroke-dashoffset" from="25.700000000000003" to="0" dur="0.771s" begin="5.224089398553136s" fill="freeze" /></path><path d="M 25.8 -29.3 C 25.2 -30.4 24.6 -31.6 23.9 -32.6 " transform="translate(0.0 38.0)" stroke-dasharray="3.810124800928238" stroke-dashoffset="3.810124800928238"><animate attributeName="stroke-dashoffset" from="3.810124800928238" to="0" dur="0.11430374402784714s" begin="5.9950893985531355s" fill="freeze" /></path><path d="M 43.9 -25.6 L 21.4 -25.6 " transform="translate(0.0 38.0)" stroke-dasharray="22.5" stroke-dashoffset="22.5"><animate attributeName="stroke-dashoffset" from="22.5" to="0" dur="0.6749999999999999s" begin="6.109393142580982s" fill="freeze" /></path><path d="M 33.3 -30.1 C 32.9 -31.1 32.2 -32.4 31.6 -33.4 " transform="translate(0.0 38.0)" stroke-dasharray="3.715530945167563" stroke-dashoffset="3.715530945167563"><animate attributeName="stroke-dashoffset" from="3.715530945167563" to="0" dur="0.11146592835502689s" begin="6.784393142580982s" fill="freeze" /></path><path d="M 20.7 -36.2 C 27.5 -36.5 35.9 -37.5 42.5 -38.9 " transform="translate(0.0 38.0)" stroke-dasharray="21.988538464668522" stroke-dashoffset="21.988538464668522"><animate attributeName="stroke-dashoffset" from="21.988538464668522" to="0" dur="0.6596561539400556s" begin="6.895859070936009s" fill="freeze" /></path><path d="M 37.4 -25.7 C 39.2 -28.3 40.8 -30.9 42.0 -33.7" transform="translate(0.0 38.0)" stroke-dasharray="9.244022478432784" stroke-dashoffset="9.244022478432784"><animate attributeName="stroke-dashoffset" from="9.244022478432784" to="0" dur="0.2773206743529835s" begin="7.555515224876064s" fill="freeze" /></path></g></svg>