<?xml version='1.0' encoding='utf-8'?>
<svg viewBox="0.0 -6.0 50.0 50.0" version="1.1" xmlns="http://www.w3.org/2000/svg"><rect x="-1000" y="-1000" width="2000" height="2000" stroke="white" fill="white" /><g style="fill:none;stroke:#000000;stroke-width:1"><path d="M 9.2 -27.6 L 36.0 -27.6 C 38.6 -27.6 39.6 -28.3 39.6 -30.4 L 39.6 -36.0 C 39.6 -38.1 38.6 -38.9 36.0 -38.9 L 9.7 -38.9 " transform="translate(0.0 38.0)" stroke-dasharray="69.39298115842475" stroke-dashoffset="69.39298115842475"><animate attributeName="stroke-dashoffset" from="69.39298115842475" to="0" dur="2.0817894347527424s" begin="0s; anim_end.end" fill="freeze" id="anim0" /></path><path d="M 19.4 -0.2 C 18.4 -1.2 16.7 -2.4 15.8 -3.0 " transform="translate(0.0 38.0)" stroke-dasharray="4.566777555761601" stroke-dashoffset="4.566777555761601"><animate attributeName="stroke-dashoffset" from="4.566777555761601" to="0" dur="0.13700332667284804s" begin="anim0.end" fill="freeze" id="anim1" /></path><path d="M 5.4 -12.7 C 10.8 -13.1 17.4 -14.0 22.8 -15.2 " transform="translate(0.0 38.0)" stroke-dasharray="17.592456901708356" stroke-dashoffset="17.592456901708356"><animate attributeName="stroke-dashoffset" from="17.592456901708356" to="0" dur="0.5277737070512507s" begin="anim1.end" fill="freeze" id="anim2" /></path><path d="M 14.2 -13.8 L 14.2 -20.9 " transform="translate(0.0 38.0)" stroke-dasharray="7.099999999999998" stroke-dashoffset="7.099999999999998"><animate attributeName="stroke-dashoffset" from="7.099999999999998" to="0" dur="0.21299999999999994s" begin="anim2.end" fill="freeze" id="anim3" /></path><path d="M 46.3 -7.1 L 3.6 -7.1 " transform="translate(0.0 38.0)" stroke-dasharray="42.699999999999996" stroke-dashoffset="42.699999999999996"><animate attributeName="stroke-dashoffset" from="42.699999999999996" to="0" dur="1.281s" begin="anim3.end" fill="freeze" id="anim4" /></path><path d="M 28.0 2.6 C 28.8 2.8 29.6 2.9 30.3 2.9 C 32.5 2.9 33.5 2.1 33.5 0.0 L 33.5 -10.3 " transform="translate(0.0 38.0)" stroke-dasharray="17.63617083550019" stroke-dashoffset="17.63617083550019"><animate attributeName="stroke-dashoffset" from="17.63617083550019" to="0" dur="0.5290851250650057s" begin="anim4.end" fill="freeze" id="anim5" /></path><path d="M 21.9 -21.8 L 6.5 -21.8 " transform="translate(0.0 38.0)" stroke-dasharray="15.399999999999999" stroke-dashoffset="15.399999999999999"><animate attributeName="stroke-dashoffset" from="15.399999999999999" to="0" dur="0.46199999999999997s" begin="anim5.end" fill="freeze" id="anim6" /></path><path d="M 32.5 -14.6 L 40.0 -14.6 C 42.5 -14.6 43.2 -15.2 43.2 -17.2 L 43.2 -19.6 C 43.2 -21.6 42.5 -22.2 40.0 -22.2 L 32.5 -22.2 C 29.9 -22.2 29.2 -21.6 29.2 -19.6 L 29.2 -17.2 C 29.2 -15.2 29.9 -14.6 32.5 -14.6 Z " transform="translate(0.0 38.0)" stroke-dasharray="39.47163889347337" stroke-dashoffset="39.47163889347337"><animate attributeName="stroke-dashoffset" from="39.47163889347337" to="0" dur="1.184149166804201s" begin="anim6.end" fill="freeze" id="anim7" /></path><path d="M 40.0 -33.2 L 10.2 -33.2" transform="translate(0.0 38.0)" stroke-dasharray="29.8" stroke-dashoffset="29.8"><animate attributeName="stroke-dashoffset" from="29.8" to="0" dur="0.894s" begin="anim7.end" fill="freeze" id="anim_end" /></path></g></svg>