<?xml version='1.0' encoding='utf-8'?>
<svg viewBox="0.0 -6.0 50.0 50.0" version="1.1" xmlns="http://www.w3.org/2000/svg"><rect x="-1000" y="-1000" width="2000" height="2000" stroke="white" fill="white" /><g style="fill:none;stroke:#000000;stroke-width:1"><path d="M 4.8 1.5 C 5.8 1.7 6.7 1.8 7.3 1.8 C 9.5 1.8 10.6 0.8 10.6 -1.7 L 10.6 -40.0 " transform="translate(0.0 38.0)" stroke-dasharray="46.380789771647436" stroke-dashoffset="46.380789771647436"><animate attributeName="stroke-dashoffset" from="46.380789771647436" to="0" dur="1.391423693149423s" begin="0s; anim_end.end" fill="freeze" id="anim0" /></path><path d="M 17.9 -1.7 C 18.9 -3.5 19.8 -5.5 20.5 -7.5 " transform="translate(0.0 38.0)" stroke-dasharray="6.363603924961471" stroke-dashoffset="6.363603924961471"><animate attributeName="stroke-dashoffset" from="6.363603924961471" to="0" dur="0.19090811774884414s" begin="anim0.end" fill="freeze" id="anim1" /></path><path d="M 3.9 -13.4 C 8.2 -14.7 12.8 -16.2 15.9 -17.6 " transform="translate(0.0 38.0)" stroke-dasharray="12.721541342197343" stroke-dashoffset="12.721541342197343"><animate attributeName="stroke-dashoffset" from="12.721541342197343" to="0" dur="0.38164624026592026s" begin="anim1.end" fill="freeze" id="anim2" /></path><path d="M 38.7 -3.5 C 38.2 0.2 37.1 1.4 31.5 1.4 C 26.8 1.4 25.8 0.8 25.8 -1.7 L 25.8 -8.8 " transform="translate(0.0 38.0)" stroke-dasharray="24.676198028601668" stroke-dashoffset="24.676198028601668"><animate attributeName="stroke-dashoffset" from="24.676198028601668" to="0" dur="0.74028594085805s" begin="anim2.end" fill="freeze" id="anim3" /></path><path d="M 15.8 -29.4 L 4.0 -29.4 " transform="translate(0.0 38.0)" stroke-dasharray="11.8" stroke-dashoffset="11.8"><animate attributeName="stroke-dashoffset" from="11.8" to="0" dur="0.354s" begin="anim3.end" fill="freeze" id="anim4" /></path><path d="M 33.5 -8.7 C 32.5 -10.1 31.4 -11.2 30.1 -12.3 " transform="translate(0.0 38.0)" stroke-dasharray="4.965285645756286" stroke-dashoffset="4.965285645756286"><animate attributeName="stroke-dashoffset" from="4.965285645756286" to="0" dur="0.1489585693726886s" begin="anim4.end" fill="freeze" id="anim5" /></path><path d="M 36.4 -13.4 C 37.2 -14.9 38.0 -16.6 38.6 -18.2 C 39.4 -20.1 38.5 -21.2 36.2 -21.2 L 22.8 -21.2 " transform="translate(0.0 38.0)" stroke-dasharray="23.58078601688341" stroke-dashoffset="23.58078601688341"><animate attributeName="stroke-dashoffset" from="23.58078601688341" to="0" dur="0.7074235805065022s" begin="anim5.end" fill="freeze" id="anim6" /></path><path d="M 45.6 -3.1 C 44.6 -5.1 43.2 -7.1 42.0 -8.5 " transform="translate(0.0 38.0)" stroke-dasharray="6.504809312721723" stroke-dashoffset="6.504809312721723"><animate attributeName="stroke-dashoffset" from="6.504809312721723" to="0" dur="0.1951442793816517s" begin="anim6.end" fill="freeze" id="anim7" /></path><path d="M 18.6 -25.1 C 23.5 -28.9 28.4 -34.2 31.7 -39.8 " transform="translate(0.0 38.0)" stroke-dasharray="19.800869236248992" stroke-dashoffset="19.800869236248992"><animate attributeName="stroke-dashoffset" from="19.800869236248992" to="0" dur="0.5940260770874698s" begin="anim7.end" fill="freeze" id="anim8" /></path><path d="M 35.9 -27.3 L 27.7 -27.3 " transform="translate(0.0 38.0)" stroke-dasharray="8.2" stroke-dashoffset="8.2"><animate attributeName="stroke-dashoffset" from="8.2" to="0" dur="0.24599999999999997s" begin="anim8.end" fill="freeze" id="anim9" /></path><path d="M 45.6 -26.1 C 40.4 -29.3 35.4 -34.0 32.0 -38.6" transform="translate(0.0 38.0)" stroke-dasharray="18.576478792303387" stroke-dashoffset="18.576478792303387"><animate attributeName="stroke-dashoffset" from="18.576478792303387" to="0" dur="0.5572943637691016s" begin="anim9.end" fill="freeze" id="anim_end" /></path></g></svg>