<?xml version='1.0' encoding='utf-8'?>
<svg viewBox="0.0 -6.0 50.0 50.0" version="1.1" xmlns="http://www.w3.org/2000/svg"><rect x="-1000" y="-1000" width="2000" height="2000" stroke="white" fill="white" /><g style="fill:none;stroke:#000000;stroke-width:1"><path d="M 13.9 1.1 C 16.5 -3.0 18.1 -8.9 18.1 -15.2 L 18.1 -17.4 C 18.1 -19.8 19.1 -20.7 21.9 -20.7 L 44.3 -20.7 " transform="translate(0.0 38.0)" stroke-dasharray="47.52624647565724" stroke-dashoffset="47.52624647565724"><animate attributeName="stroke-dashoffset" from="47.52624647565724" to="0" dur="1.425787394269717s" begin="0s; 15s; 30s; 45s" fill="freeze" id="anim0" /></path><path d="M 5.7 0.4 C 8.0 -3.0 10.4 -8.3 11.8 -12.8 " transform="translate(0.0 38.0)" stroke-dasharray="14.585409967392582" stroke-dashoffset="14.585409967392582"><animate attributeName="stroke-dashoffset" from="14.585409967392582" to="0" dur="0.43756229902177746s" begin="anim0.end" fill="freeze" id="anim1" /></path><path d="M 20.4 1.8 C 24.0 1.3 29.1 0.3 32.3 -0.8 " transform="translate(0.0 38.0)" stroke-dasharray="12.195785776479367" stroke-dashoffset="12.195785776479367"><animate attributeName="stroke-dashoffset" from="12.195785776479367" to="0" dur="0.36587357329438097s" begin="anim1.end" fill="freeze" id="anim2" /></path><path d="M 25.6 0.3 L 25.6 -10.4 " transform="translate(0.0 38.0)" stroke-dasharray="10.700000000000001" stroke-dashoffset="10.700000000000001"><animate attributeName="stroke-dashoffset" from="10.700000000000001" to="0" dur="0.321s" begin="anim2.end" fill="freeze" id="anim3" /></path><path d="M 8.7 -23.1 C 7.5 -24.6 5.5 -26.1 4.3 -26.9 " transform="translate(0.0 38.0)" stroke-dasharray="5.8336786267192275" stroke-dashoffset="5.8336786267192275"><animate attributeName="stroke-dashoffset" from="5.8336786267192275" to="0" dur="0.1750103588015768s" begin="anim3.end" fill="freeze" id="anim4" /></path><path d="M 45.5 1.6 C 39.7 -0.1 34.9 -3.8 32.2 -9.6 " transform="translate(0.0 38.0)" stroke-dasharray="17.945307022669684" stroke-dashoffset="17.945307022669684"><animate attributeName="stroke-dashoffset" from="17.945307022669684" to="0" dur="0.5383592106800905s" begin="anim4.end" fill="freeze" id="anim5" /></path><path d="M 46.0 -10.1 L 18.1 -10.1 " transform="translate(0.0 38.0)" stroke-dasharray="27.9" stroke-dashoffset="27.9"><animate attributeName="stroke-dashoffset" from="27.9" to="0" dur="0.837s" begin="anim5.end" fill="freeze" id="anim6" /></path><path d="M 37.5 -2.7 C 39.2 -3.8 40.2 -4.7 41.8 -6.4 " transform="translate(0.0 38.0)" stroke-dasharray="5.6898000042887915" stroke-dashoffset="5.6898000042887915"><animate attributeName="stroke-dashoffset" from="5.6898000042887915" to="0" dur="0.17069400012866373s" begin="anim6.end" fill="freeze" id="anim7" /></path><path d="M 12.1 -35.0 C 10.9 -36.3 9.2 -38.0 8.0 -38.9 " transform="translate(0.0 38.0)" stroke-dasharray="5.664781075346097" stroke-dashoffset="5.664781075346097"><animate attributeName="stroke-dashoffset" from="5.664781075346097" to="0" dur="0.16994343226038292s" begin="anim7.end" fill="freeze" id="anim8" /></path><path d="M 40.2 -15.4 L 24.9 -15.4 " transform="translate(0.0 38.0)" stroke-dasharray="15.300000000000004" stroke-dashoffset="15.300000000000004"><animate attributeName="stroke-dashoffset" from="15.300000000000004" to="0" dur="0.45900000000000013s" begin="anim8.end" fill="freeze" id="anim9" /></path><path d="M 27.0 -26.3 L 27.0 -40.4 " transform="translate(0.0 38.0)" stroke-dasharray="14.099999999999998" stroke-dashoffset="14.099999999999998"><animate attributeName="stroke-dashoffset" from="14.099999999999998" to="0" dur="0.42299999999999993s" begin="anim9.end" fill="freeze" id="anim10" /></path><path d="M 22.9 -25.6 L 38.8 -25.6 C 41.4 -25.6 42.2 -26.6 42.2 -28.4 L 42.2 -34.1 C 42.2 -35.9 41.4 -36.9 38.8 -36.9 L 22.9 -36.9 C 20.4 -36.9 19.6 -35.9 19.6 -34.1 L 19.6 -28.4 C 19.6 -26.6 20.4 -25.6 22.9 -25.6 Z " transform="translate(0.0 38.0)" stroke-dasharray="63.415151265733876" stroke-dashoffset="63.415151265733876"><animate attributeName="stroke-dashoffset" from="63.415151265733876" to="0" dur="1.9024545379720161s" begin="anim10.end" fill="freeze" id="anim11" /></path><path d="M 41.2 -31.4 L 20.5 -31.4 " transform="translate(0.0 38.0)" stroke-dasharray="20.700000000000003" stroke-dashoffset="20.700000000000003"><animate attributeName="stroke-dashoffset" from="20.700000000000003" to="0" dur="0.6210000000000001s" begin="anim11.end" fill="freeze" id="anim12" /></path><path d="M 34.4 -26.3 L 34.4 -40.4" transform="translate(0.0 38.0)" stroke-dasharray="14.099999999999998" stroke-dashoffset="14.099999999999998"><animate attributeName="stroke-dashoffset" from="14.099999999999998" to="0" dur="0.42299999999999993s" begin="anim12.end" fill="freeze" id="anim_end" /></path></g></svg>