<?xml version='1.0' encoding='utf-8'?>
<svg viewBox="0.0 -6.0 50.0 50.0" version="1.1" xmlns="http://www.w3.org/2000/svg"><rect x="-1000" y="-1000" width="2000" height="2000" stroke="white" fill="white" /><g style="fill:none;stroke:#000000;stroke-width:1"><path d="M 15.2 1.6 C 24.5 -0.8 29.7 -6.3 30.3 -15.4 " transform="translate(0.0 38.0)" stroke-dasharray="24.58773932391412" stroke-dashoffset="24.58773932391412"><animate attributeName="stroke-dashoffset" from="24.58773932391412" to="0" dur="0.7376321797174236s" begin="0s; 15s; 30s; 45s" fill="freeze" id="anim0" /></path><path d="M 5.7 0.4 C 8.0 -3.0 10.4 -8.3 11.8 -12.8 " transform="translate(0.0 38.0)" stroke-dasharray="14.585409967392582" stroke-dashoffset="14.585409967392582"><animate attributeName="stroke-dashoffset" from="14.585409967392582" to="0" dur="0.43756229902177746s" begin="anim0.end" fill="freeze" id="anim1" /></path><path d="M 8.7 -23.1 C 7.5 -24.6 5.5 -26.1 4.3 -26.9 " transform="translate(0.0 38.0)" stroke-dasharray="5.8336786267192275" stroke-dashoffset="5.8336786267192275"><animate attributeName="stroke-dashoffset" from="5.8336786267192275" to="0" dur="0.1750103588015768s" begin="anim1.end" fill="freeze" id="anim2" /></path><path d="M 44.5 -10.9 L 17.9 -10.9 " transform="translate(0.0 38.0)" stroke-dasharray="26.6" stroke-dashoffset="26.6"><animate attributeName="stroke-dashoffset" from="26.6" to="0" dur="0.798s" begin="anim2.end" fill="freeze" id="anim3" /></path><path d="M 45.2 0.8 C 38.9 -1.2 33.9 -5.0 31.1 -10.0 " transform="translate(0.0 38.0)" stroke-dasharray="18.18799574278529" stroke-dashoffset="18.18799574278529"><animate attributeName="stroke-dashoffset" from="18.18799574278529" to="0" dur="0.5456398722835587s" begin="anim3.end" fill="freeze" id="anim4" /></path><path d="M 12.1 -35.0 C 10.9 -36.3 9.2 -38.0 8.0 -38.9 " transform="translate(0.0 38.0)" stroke-dasharray="5.664781075346097" stroke-dashoffset="5.664781075346097"><animate attributeName="stroke-dashoffset" from="5.664781075346097" to="0" dur="0.16994343226038292s" begin="anim4.end" fill="freeze" id="anim5" /></path><path d="M 45.8 -19.9 L 16.7 -19.9 " transform="translate(0.0 38.0)" stroke-dasharray="29.099999999999998" stroke-dashoffset="29.099999999999998"><animate attributeName="stroke-dashoffset" from="29.099999999999998" to="0" dur="0.8729999999999999s" begin="anim5.end" fill="freeze" id="anim6" /></path><path d="M 30.7 -20.1 L 30.7 -32.2 " transform="translate(0.0 38.0)" stroke-dasharray="12.100000000000001" stroke-dashoffset="12.100000000000001"><animate attributeName="stroke-dashoffset" from="12.100000000000001" to="0" dur="0.36300000000000004s" begin="anim6.end" fill="freeze" id="anim7" /></path><path d="M 40.9 -26.4 L 21.3 -26.4 " transform="translate(0.0 38.0)" stroke-dasharray="19.599999999999998" stroke-dashoffset="19.599999999999998"><animate attributeName="stroke-dashoffset" from="19.599999999999998" to="0" dur="0.588s" begin="anim7.end" fill="freeze" id="anim8" /></path><path d="M 26.0 -36.9 C 25.4 -38.0 24.7 -38.8 23.9 -39.5 " transform="translate(0.0 38.0)" stroke-dasharray="3.3605445309882436" stroke-dashoffset="3.3605445309882436"><animate attributeName="stroke-dashoffset" from="3.3605445309882436" to="0" dur="0.1008163359296473s" begin="anim8.end" fill="freeze" id="anim9" /></path><path d="M 44.2 -32.8 L 18.3 -32.8 " transform="translate(0.0 38.0)" stroke-dasharray="25.900000000000002" stroke-dashoffset="25.900000000000002"><animate attributeName="stroke-dashoffset" from="25.900000000000002" to="0" dur="0.777s" begin="anim9.end" fill="freeze" id="anim10" /></path><path d="M 34.0 -33.5 C 35.4 -35.5 36.6 -37.6 37.6 -39.8" transform="translate(0.0 38.0)" stroke-dasharray="7.266323428459801" stroke-dashoffset="7.266323428459801"><animate attributeName="stroke-dashoffset" from="7.266323428459801" to="0" dur="0.21798970285379402s" begin="anim10.end" fill="freeze" id="anim_end" /></path></g></svg>