<?xml version='1.0' encoding='utf-8'?>
<svg viewBox="0.0 -6.0 50.0 50.0" version="1.1" xmlns="http://www.w3.org/2000/svg"><rect x="-1000" y="-1000" width="2000" height="2000" stroke="white" fill="white" /><g style="fill:none;stroke:#000000;stroke-width:1"><path d="M 25.6 -24.9 L 38.9 -24.9 C 41.4 -24.9 42.5 -25.9 42.5 -27.9 L 42.5 -35.4 C 42.5 -37.4 41.4 -38.4 38.9 -38.4 L 25.6 -38.4 C 23.0 -38.4 21.9 -37.4 21.9 -35.4 L 21.9 -27.9 C 21.9 -25.9 23.0 -24.9 25.6 -24.9 Z " transform="translate(0.0 38.0)" stroke-dasharray="63.33133309128637" stroke-dashoffset="63.33133309128637"><animate attributeName="stroke-dashoffset" from="63.33133309128637" to="0" dur="1.899939992738591s" begin="0s; anim_end.end" fill="freeze" id="anim0" /></path><path d="M 10.1 2.4 L 10.1 -40.4 " transform="translate(0.0 38.0)" stroke-dasharray="42.8" stroke-dashoffset="42.8"><animate attributeName="stroke-dashoffset" from="42.8" to="0" dur="1.2839999999999998s" begin="anim0.end" fill="freeze" id="anim1" /></path><path d="M 3.5 -22.1 C 4.2 -23.9 4.8 -26.9 5.1 -29.4 " transform="translate(0.0 38.0)" stroke-dasharray="7.489082264817207" stroke-dashoffset="7.489082264817207"><animate attributeName="stroke-dashoffset" from="7.489082264817207" to="0" dur="0.2246724679445162s" begin="anim1.end" fill="freeze" id="anim2" /></path><path d="M 45.9 0.2 L 16.9 0.2 " transform="translate(0.0 38.0)" stroke-dasharray="29.0" stroke-dashoffset="29.0"><animate attributeName="stroke-dashoffset" from="29.0" to="0" dur="0.87s" begin="anim2.end" fill="freeze" id="anim3" /></path><path d="M 17.8 -10.5 C 19.9 -13.2 21.9 -16.8 23.1 -19.8 " transform="translate(0.0 38.0)" stroke-dasharray="10.735465406612853" stroke-dashoffset="10.735465406612853"><animate attributeName="stroke-dashoffset" from="10.735465406612853" to="0" dur="0.32206396219838557s" begin="anim3.end" fill="freeze" id="anim4" /></path><path d="M 41.6 -7.8 L 22.9 -7.8 " transform="translate(0.0 38.0)" stroke-dasharray="18.700000000000003" stroke-dashoffset="18.700000000000003"><animate attributeName="stroke-dashoffset" from="18.700000000000003" to="0" dur="0.561s" begin="anim4.end" fill="freeze" id="anim5" /></path><path d="M 16.4 -25.9 C 16.0 -27.2 15.2 -29.1 14.5 -30.2 " transform="translate(0.0 38.0)" stroke-dasharray="4.711917014991074" stroke-dashoffset="4.711917014991074"><animate attributeName="stroke-dashoffset" from="4.711917014991074" to="0" dur="0.14135751044973222s" begin="anim5.end" fill="freeze" id="anim6" /></path><path d="M 32.2 -0.3 L 32.2 -20.7 " transform="translate(0.0 38.0)" stroke-dasharray="20.4" stroke-dashoffset="20.4"><animate attributeName="stroke-dashoffset" from="20.4" to="0" dur="0.612s" begin="anim6.end" fill="freeze" id="anim7" /></path><path d="M 44.5 -15.2 L 20.3 -15.2 " transform="translate(0.0 38.0)" stroke-dasharray="24.2" stroke-dashoffset="24.2"><animate attributeName="stroke-dashoffset" from="24.2" to="0" dur="0.726s" begin="anim7.end" fill="freeze" id="anim8" /></path><path d="M 42.0 -31.8 L 22.4 -31.8" transform="translate(0.0 38.0)" stroke-dasharray="19.6" stroke-dashoffset="19.6"><animate attributeName="stroke-dashoffset" from="19.6" to="0" dur="0.588s" begin="anim8.end" fill="freeze" id="anim_end" /></path></g></svg>