<?xml version='1.0' encoding='utf-8'?>
<svg viewBox="0.0 -6.0 50.0 50.0" version="1.1" xmlns="http://www.w3.org/2000/svg"><rect x="-1000" y="-1000" width="2000" height="2000" stroke="white" fill="white" /><g style="fill:none;stroke:#000000;stroke-width:1"><path d="M 13.3 0.4 C 17.2 -5.8 19.1 -12.9 19.1 -24.4 L 19.1 -29.9 C 19.1 -32.0 19.9 -32.9 22.6 -32.9 L 39.9 -32.9 C 42.1 -32.9 42.9 -32.1 42.9 -30.6 L 42.9 -29.2 C 42.9 -27.8 42.1 -26.9 39.9 -26.9 L 19.9 -26.9 " transform="translate(0.0 38.0)" stroke-dasharray="84.09945968924453" stroke-dashoffset="84.09945968924453"><animate attributeName="stroke-dashoffset" from="84.09945968924453" to="0" dur="2.5229837906773356s" begin="0s" fill="freeze" /></path><path d="M 4.9 0.6 C 7.0 -2.9 9.3 -8.2 10.7 -12.4 " transform="translate(0.0 38.0)" stroke-dasharray="14.258843173477485" stroke-dashoffset="14.258843173477485"><animate attributeName="stroke-dashoffset" from="14.258843173477485" to="0" dur="0.42776529520432455s" begin="2.5229837906773356s" fill="freeze" /></path><path d="M 8.2 -23.1 C 7.1 -24.2 5.2 -25.9 3.9 -26.8 " transform="translate(0.0 38.0)" stroke-dasharray="5.67851499866394" stroke-dashoffset="5.67851499866394"><animate attributeName="stroke-dashoffset" from="5.67851499866394" to="0" dur="0.1703554499599182s" begin="2.95074908588166s" fill="freeze" /></path><path d="M 24.9 -6.5 L 40.6 -6.5 C 42.8 -6.5 43.5 -7.0 43.5 -8.5 L 43.5 -10.6 C 43.5 -12.1 42.8 -12.7 40.6 -12.7 L 27.1 -12.7 C 24.6 -12.7 23.8 -11.8 23.8 -10.0 L 23.8 -2.0 C 23.8 0.8 25.0 1.6 33.9 1.6 C 44.0 1.6 45.6 0.5 46.1 -3.5 " transform="translate(0.0 38.0)" stroke-dasharray="79.41519484616295" stroke-dashoffset="79.41519484616295"><animate attributeName="stroke-dashoffset" from="79.41519484616295" to="0" dur="2.3824558453848885s" begin="3.121104535841578s" fill="freeze" /></path><path d="M 33.5 -6.0 L 33.5 -12.9 " transform="translate(0.0 38.0)" stroke-dasharray="6.9" stroke-dashoffset="6.9"><animate attributeName="stroke-dashoffset" from="6.9" to="0" dur="0.207s" begin="5.503560381226467s" fill="freeze" /></path><path d="M 11.2 -35.2 C 10.1 -36.5 8.4 -38.0 7.3 -38.9 " transform="translate(0.0 38.0)" stroke-dasharray="5.38227797038058" stroke-dashoffset="5.38227797038058"><animate attributeName="stroke-dashoffset" from="5.38227797038058" to="0" dur="0.1614683391114174s" begin="5.7105603812264665s" fill="freeze" /></path><path d="M 28.8 -17.0 L 38.2 -17.0 C 40.2 -17.0 41.0 -17.6 41.0 -18.9 L 41.0 -20.5 C 41.0 -21.8 40.2 -22.4 38.2 -22.4 L 28.8 -22.4 C 26.7 -22.4 26.0 -21.8 26.0 -20.5 L 26.0 -18.9 C 26.0 -17.6 26.7 -17.0 28.8 -17.0 Z " transform="translate(0.0 38.0)" stroke-dasharray="37.55170327996639" stroke-dashoffset="37.55170327996639"><animate attributeName="stroke-dashoffset" from="37.55170327996639" to="0" dur="1.1265510983989917s" begin="5.872028720337884s" fill="freeze" /></path><path d="M 45.6 -38.3 L 16.6 -38.3" transform="translate(0.0 38.0)" stroke-dasharray="29.0" stroke-dashoffset="29.0"><animate attributeName="stroke-dashoffset" from="29.0" to="0" dur="0.87s" begin="6.998579818736875s" fill="freeze" /></path></g></svg>