<?xml version='1.0' encoding='utf-8'?>
<svg viewBox="0.0 -6.0 50.0 50.0" version="1.1" xmlns="http://www.w3.org/2000/svg"><rect x="-1000" y="-1000" width="2000" height="2000" stroke="white" fill="white" /><g style="fill:none;stroke:#000000;stroke-width:1"><path d="M 25.9 2.0 L 25.9 -35.0 C 25.9 -37.2 27.1 -38.1 29.7 -38.1 L 38.6 -38.1 C 41.3 -38.1 42.3 -37.2 42.3 -35.2 L 42.3 -30.4 C 42.3 -28.3 41.4 -27.3 39.1 -27.3 C 38.4 -27.3 37.5 -27.4 36.5 -27.6 " transform="translate(0.0 38.0)" stroke-dasharray="69.5843706178804" stroke-dashoffset="69.5843706178804"><animate attributeName="stroke-dashoffset" from="69.5843706178804" to="0" dur="2.0875311185364116s" begin="0s; anim_end.end" fill="freeze" id="anim0" /></path><path d="M 16.9 -15.4 L 6.8 -15.4 " transform="translate(0.0 38.0)" stroke-dasharray="10.099999999999998" stroke-dashoffset="10.099999999999998"><animate attributeName="stroke-dashoffset" from="10.099999999999998" to="0" dur="0.30299999999999994s" begin="anim0.end" fill="freeze" id="anim1" /></path><path d="M 11.6 1.0 C 12.3 1.1 13.2 1.2 14.1 1.2 C 16.2 1.2 17.4 0.3 17.4 -2.1 L 17.4 -34.8 C 17.4 -37.2 16.6 -38.1 14.0 -38.1 L 10.4 -38.1 C 7.9 -38.1 7.1 -37.2 7.1 -34.8 L 7.1 -23.6 C 7.1 -11.6 5.8 -4.1 3.6 0.9 " transform="translate(0.0 38.0)" stroke-dasharray="91.35031244672776" stroke-dashoffset="91.35031244672776"><animate attributeName="stroke-dashoffset" from="91.35031244672776" to="0" dur="2.7405093734018324s" begin="anim1.end" fill="freeze" id="anim2" /></path><path d="M 16.9 -26.9 L 7.0 -26.9 " transform="translate(0.0 38.0)" stroke-dasharray="9.899999999999999" stroke-dashoffset="9.899999999999999"><animate attributeName="stroke-dashoffset" from="9.899999999999999" to="0" dur="0.29699999999999993s" begin="anim2.end" fill="freeze" id="anim3" /></path><path d="M 31.4 0.9 C 37.4 -3.5 41.8 -10.0 43.4 -17.4 C 43.9 -19.6 43.2 -20.6 40.8 -20.6 L 26.6 -20.6 " transform="translate(0.0 38.0)" stroke-dasharray="41.676556484677505" stroke-dashoffset="41.676556484677505"><animate attributeName="stroke-dashoffset" from="41.676556484677505" to="0" dur="1.250296694540325s" begin="anim3.end" fill="freeze" id="anim4" /></path><path d="M 45.5 0.1 C 38.8 -4.3 34.0 -11.4 32.1 -20.6" transform="translate(0.0 38.0)" stroke-dasharray="25.320331741317126" stroke-dashoffset="25.320331741317126"><animate attributeName="stroke-dashoffset" from="25.320331741317126" to="0" dur="0.7596099522395138s" begin="anim4.end" fill="freeze" id="anim_end" /></path></g></svg>