<?xml version='1.0' encoding='utf-8'?>
<svg viewBox="0.0 -6.0 50.0 50.0" version="1.1" xmlns="http://www.w3.org/2000/svg"><rect x="-1000" y="-1000" width="2000" height="2000" stroke="white" fill="white" /><g style="fill:none;stroke:#000000;stroke-width:1"><path d="M 46.5 -3.5 C 40.9 -8.4 37.0 -15.9 35.8 -24.2 " transform="translate(0.0 38.0)" stroke-dasharray="23.784054614613538" stroke-dashoffset="23.784054614613538"><animate attributeName="stroke-dashoffset" from="23.784054614613538" to="0" dur="0.7135216384384061s" begin="0s; 15s; 30s; 45s" fill="freeze" id="anim0" /></path><path d="M 2.7 -10.5 C 5.5 -14.8 7.8 -20.9 8.9 -26.8 " transform="translate(0.0 38.0)" stroke-dasharray="17.5418666739681" stroke-dashoffset="17.5418666739681"><animate attributeName="stroke-dashoffset" from="17.5418666739681" to="0" dur="0.5262560002190431s" begin="anim0.end" fill="freeze" id="anim1" /></path><path d="M 16.7 0.1 C 22.8 -2.5 28.8 -6.3 33.2 -10.7 " transform="translate(0.0 38.0)" stroke-dasharray="19.834831283695987" stroke-dashoffset="19.834831283695987"><animate attributeName="stroke-dashoffset" from="19.834831283695987" to="0" dur="0.5950449385108796s" begin="anim1.end" fill="freeze" id="anim2" /></path><path d="M 17.0 -7.0 C 22.1 -9.2 26.9 -12.7 30.8 -16.6 " transform="translate(0.0 38.0)" stroke-dasharray="16.908184154656613" stroke-dashoffset="16.908184154656613"><animate attributeName="stroke-dashoffset" from="16.908184154656613" to="0" dur="0.5072455246396984s" begin="anim2.end" fill="freeze" id="anim3" /></path><path d="M 15.6 -19.1 C 14.3 -20.9 12.6 -22.8 10.7 -24.2 " transform="translate(0.0 38.0)" stroke-dasharray="7.099738855264827" stroke-dashoffset="7.099738855264827"><animate attributeName="stroke-dashoffset" from="7.099738855264827" to="0" dur="0.21299216565794482s" begin="anim3.end" fill="freeze" id="anim4" /></path><path d="M 26.4 1.6 C 27.4 1.8 28.4 1.9 29.6 1.9 C 32.6 1.9 34.7 0.1 34.7 -6.5 C 34.7 -12.4 32.4 -17.1 27.5 -21.4 " transform="translate(0.0 38.0)" stroke-dasharray="31.498135363652832" stroke-dashoffset="31.498135363652832"><animate attributeName="stroke-dashoffset" from="31.498135363652832" to="0" dur="0.9449440609095849s" begin="anim4.end" fill="freeze" id="anim5" /></path><path d="M 15.8 -29.8 L 3.3 -29.8 " transform="translate(0.0 38.0)" stroke-dasharray="12.5" stroke-dashoffset="12.5"><animate attributeName="stroke-dashoffset" from="12.5" to="0" dur="0.375s" begin="anim5.end" fill="freeze" id="anim6" /></path><path d="M 17.5 -14.3 C 21.7 -16.4 26.4 -19.7 29.9 -23.9 " transform="translate(0.0 38.0)" stroke-dasharray="15.788201558239574" stroke-dashoffset="15.788201558239574"><animate attributeName="stroke-dashoffset" from="15.788201558239574" to="0" dur="0.47364604674718724s" begin="anim6.end" fill="freeze" id="anim7" /></path><path d="M 46.3 -24.2 L 18.2 -24.2 " transform="translate(0.0 38.0)" stroke-dasharray="28.099999999999998" stroke-dashoffset="28.099999999999998"><animate attributeName="stroke-dashoffset" from="28.099999999999998" to="0" dur="0.8429999999999999s" begin="anim7.end" fill="freeze" id="anim8" /></path><path d="M 22.8 -28.9 C 24.9 -32.1 27.1 -36.5 28.6 -40.4 " transform="translate(0.0 38.0)" stroke-dasharray="12.901573557415768" stroke-dashoffset="12.901573557415768"><animate attributeName="stroke-dashoffset" from="12.901573557415768" to="0" dur="0.387047206722473s" begin="anim8.end" fill="freeze" id="anim9" /></path><path d="M 36.7 -30.2 L 24.4 -30.2 " transform="translate(0.0 38.0)" stroke-dasharray="12.300000000000004" stroke-dashoffset="12.300000000000004"><animate attributeName="stroke-dashoffset" from="12.300000000000004" to="0" dur="0.3690000000000001s" begin="anim9.end" fill="freeze" id="anim10" /></path><path d="M 39.0 -13.8 C 41.4 -15.3 43.4 -17.1 45.5 -19.4 " transform="translate(0.0 38.0)" stroke-dasharray="8.607536612015634" stroke-dashoffset="8.607536612015634"><animate attributeName="stroke-dashoffset" from="8.607536612015634" to="0" dur="0.258226098360469s" begin="anim10.end" fill="freeze" id="anim11" /></path><path d="M 34.7 -24.9 C 36.5 -28.1 37.9 -31.6 38.8 -34.6 C 39.2 -36.2 38.6 -37.1 36.6 -37.1 L 27.9 -37.1 " transform="translate(0.0 38.0)" stroke-dasharray="23.352274933297657" stroke-dashoffset="23.352274933297657"><animate attributeName="stroke-dashoffset" from="23.352274933297657" to="0" dur="0.7005682479989297s" begin="anim11.end" fill="freeze" id="anim12" /></path><path d="M 10.1 2.6 L 10.1 -40.4" transform="translate(0.0 38.0)" stroke-dasharray="43.0" stroke-dashoffset="43.0"><animate attributeName="stroke-dashoffset" from="43.0" to="0" dur="1.29s" begin="anim12.end" fill="freeze" id="anim_end" /></path></g></svg>