<?xml version='1.0' encoding='utf-8'?>
<svg viewBox="0.0 -6.0 50.0 50.0" version="1.1" xmlns="http://www.w3.org/2000/svg"><rect x="-1000" y="-1000" width="2000" height="2000" stroke="white" fill="white" /><g style="fill:none;stroke:#000000;stroke-width:1"><path d="M 8.4 -5.6 L 11.7 -5.6 C 13.8 -5.6 14.7 -6.5 14.7 -8.8 L 14.7 -34.0 C 14.7 -36.2 13.8 -37.2 11.6 -37.2 L 8.4 -37.2 C 6.3 -37.2 5.4 -36.2 5.4 -34.0 L 5.4 -8.8 C 5.4 -6.5 6.3 -5.6 8.4 -5.6 Z " transform="translate(0.0 38.0)" stroke-dasharray="77.33034949839939" stroke-dashoffset="77.33034949839939"><animate attributeName="stroke-dashoffset" from="77.33034949839939" to="0" dur="2.3199104849519814s" begin="0s; 15s; 30s; 45s" fill="freeze" id="anim0" /></path><path d="M 17.1 2.3 C 24.2 -0.2 28.2 -6.0 28.8 -16.0 " transform="translate(0.0 38.0)" stroke-dasharray="23.209528808803224" stroke-dashoffset="23.209528808803224"><animate attributeName="stroke-dashoffset" from="23.209528808803224" to="0" dur="0.6962858642640967s" begin="anim0.end" fill="freeze" id="anim1" /></path><path d="M 14.3 -22.4 L 5.5 -22.4 " transform="translate(0.0 38.0)" stroke-dasharray="8.8" stroke-dashoffset="8.8"><animate attributeName="stroke-dashoffset" from="8.8" to="0" dur="0.264s" begin="anim1.end" fill="freeze" id="anim2" /></path><path d="M 46.5 -3.7 C 46.1 0.2 44.4 1.4 40.6 1.4 C 37.4 1.4 36.4 0.8 36.4 -1.2 L 36.4 -16.1 " transform="translate(0.0 38.0)" stroke-dasharray="29.546143955487043" stroke-dashoffset="29.546143955487043"><animate attributeName="stroke-dashoffset" from="29.546143955487043" to="0" dur="0.8863843186646113s" begin="anim2.end" fill="freeze" id="anim3" /></path><path d="M 45.9 -16.6 L 20.8 -16.6 " transform="translate(0.0 38.0)" stroke-dasharray="25.099999999999998" stroke-dashoffset="25.099999999999998"><animate attributeName="stroke-dashoffset" from="25.099999999999998" to="0" dur="0.7529999999999999s" begin="anim3.end" fill="freeze" id="anim4" /></path><path d="M 40.6 -25.1 L 26.0 -25.1 " transform="translate(0.0 38.0)" stroke-dasharray="14.600000000000001" stroke-dashoffset="14.600000000000001"><animate attributeName="stroke-dashoffset" from="14.600000000000001" to="0" dur="0.438s" begin="anim4.end" fill="freeze" id="anim5" /></path><path d="M 45.4 -28.3 L 45.4 -31.4 C 45.4 -33.2 44.5 -34.2 41.8 -34.2 L 25.1 -34.2 C 22.4 -34.2 21.4 -33.2 21.4 -31.4 L 21.4 -27.8 " transform="translate(0.0 38.0)" stroke-dasharray="33.9841521056735" stroke-dashoffset="33.9841521056735"><animate attributeName="stroke-dashoffset" from="33.9841521056735" to="0" dur="1.019524563170205s" begin="anim5.end" fill="freeze" id="anim6" /></path><path d="M 33.2 -33.9 L 33.2 -40.1" transform="translate(0.0 38.0)" stroke-dasharray="6.200000000000003" stroke-dashoffset="6.200000000000003"><animate attributeName="stroke-dashoffset" from="6.200000000000003" to="0" dur="0.18600000000000008s" begin="anim6.end" fill="freeze" id="anim_end" /></path></g></svg>