<?xml version='1.0' encoding='utf-8'?>
<svg viewBox="0.0 -6.0 50.0 50.0" version="1.1" xmlns="http://www.w3.org/2000/svg"><rect x="-1000" y="-1000" width="2000" height="2000" stroke="white" fill="white" /><g style="fill:none;stroke:#000000;stroke-width:1"><path d="M 38.6 2.1 C 39.2 2.1 39.8 2.2 40.2 2.2 C 42.0 2.2 42.9 1.4 42.9 -0.6 L 42.9 -7.7 C 42.9 -9.7 42.0 -10.6 39.1 -10.6 L 22.1 -10.6 C 19.4 -10.6 18.5 -9.7 18.5 -7.7 L 18.5 2.6 " transform="translate(0.0 38.0)" stroke-dasharray="51.42538339197652" stroke-dashoffset="51.42538339197652"><animate attributeName="stroke-dashoffset" from="51.42538339197652" to="0" dur="1.5427615017592955s" begin="0s; 15s; 30s; 45s" fill="freeze" id="anim0" /></path><path d="M 5.5 0.5 C 7.7 -3.0 10.0 -8.3 11.3 -12.7 " transform="translate(0.0 38.0)" stroke-dasharray="14.456242471614317" stroke-dashoffset="14.456242471614317"><animate attributeName="stroke-dashoffset" from="14.456242471614317" to="0" dur="0.4336872741484295s" begin="anim0.end" fill="freeze" id="anim1" /></path><path d="M 26.4 1.2 L 26.4 -10.2 " transform="translate(0.0 38.0)" stroke-dasharray="11.399999999999999" stroke-dashoffset="11.399999999999999"><animate attributeName="stroke-dashoffset" from="11.399999999999999" to="0" dur="0.34199999999999997s" begin="anim1.end" fill="freeze" id="anim2" /></path><path d="M 8.4 -23.2 C 7.2 -24.6 5.3 -26.1 4.2 -26.9 " transform="translate(0.0 38.0)" stroke-dasharray="5.608257130601457" stroke-dashoffset="5.608257130601457"><animate attributeName="stroke-dashoffset" from="5.608257130601457" to="0" dur="0.1682477139180437s" begin="anim2.end" fill="freeze" id="anim3" /></path><path d="M 34.3 1.1 L 34.3 -10.2 " transform="translate(0.0 38.0)" stroke-dasharray="11.299999999999999" stroke-dashoffset="11.299999999999999"><animate attributeName="stroke-dashoffset" from="11.299999999999999" to="0" dur="0.33899999999999997s" begin="anim3.end" fill="freeze" id="anim4" /></path><path d="M 28.4 -11.0 C 29.2 -12.8 30.0 -14.8 30.6 -16.7 " transform="translate(0.0 38.0)" stroke-dasharray="6.112927498012814" stroke-dashoffset="6.112927498012814"><animate attributeName="stroke-dashoffset" from="6.112927498012814" to="0" dur="0.18338782494038441s" begin="anim4.end" fill="freeze" id="anim5" /></path><path d="M 25.2 -22.6 L 19.1 -22.6 " transform="translate(0.0 38.0)" stroke-dasharray="6.099999999999998" stroke-dashoffset="6.099999999999998"><animate attributeName="stroke-dashoffset" from="6.099999999999998" to="0" dur="0.18299999999999994s" begin="anim5.end" fill="freeze" id="anim6" /></path><path d="M 11.7 -35.1 C 10.6 -36.5 8.8 -38.0 7.7 -38.9 " transform="translate(0.0 38.0)" stroke-dasharray="5.527400052414648" stroke-dashoffset="5.527400052414648"><animate attributeName="stroke-dashoffset" from="5.527400052414648" to="0" dur="0.16582200157243943s" begin="anim6.end" fill="freeze" id="anim7" /></path><path d="M 46.1 -16.6 L 15.7 -16.6 " transform="translate(0.0 38.0)" stroke-dasharray="30.400000000000002" stroke-dashoffset="30.400000000000002"><animate attributeName="stroke-dashoffset" from="30.400000000000002" to="0" dur="0.912s" begin="anim7.end" fill="freeze" id="anim8" /></path><path d="M 25.2 -27.6 L 21.3 -27.6 " transform="translate(0.0 38.0)" stroke-dasharray="3.8999999999999986" stroke-dashoffset="3.8999999999999986"><animate attributeName="stroke-dashoffset" from="3.8999999999999986" to="0" dur="0.11699999999999995s" begin="anim8.end" fill="freeze" id="anim9" /></path><path d="M 30.1 -20.6 L 30.1 -38.4 " transform="translate(0.0 38.0)" stroke-dasharray="17.799999999999997" stroke-dashoffset="17.799999999999997"><animate attributeName="stroke-dashoffset" from="17.799999999999997" to="0" dur="0.5339999999999999s" begin="anim9.end" fill="freeze" id="anim10" /></path><path d="M 44.5 -28.0 L 44.5 -30.4 C 44.5 -32.2 43.5 -33.0 40.8 -33.0 L 20.5 -33.0 C 17.7 -33.0 16.8 -32.2 16.8 -30.4 L 16.8 -27.8 " transform="translate(0.0 38.0)" stroke-dasharray="35.740384798676786" stroke-dashoffset="35.740384798676786"><animate attributeName="stroke-dashoffset" from="35.740384798676786" to="0" dur="1.0722115439603035s" begin="anim10.end" fill="freeze" id="anim11" /></path><path d="M 41.4 -22.6 L 34.9 -22.6 " transform="translate(0.0 38.0)" stroke-dasharray="6.5" stroke-dashoffset="6.5"><animate attributeName="stroke-dashoffset" from="6.5" to="0" dur="0.195s" begin="anim11.end" fill="freeze" id="anim12" /></path><path d="M 39.8 -27.6 L 34.9 -27.6 " transform="translate(0.0 38.0)" stroke-dasharray="4.899999999999999" stroke-dashoffset="4.899999999999999"><animate attributeName="stroke-dashoffset" from="4.899999999999999" to="0" dur="0.14699999999999996s" begin="anim12.end" fill="freeze" id="anim13" /></path><path d="M 42.5 -38.5 L 19.2 -38.5" transform="translate(0.0 38.0)" stroke-dasharray="23.3" stroke-dashoffset="23.3"><animate attributeName="stroke-dashoffset" from="23.3" to="0" dur="0.699s" begin="anim13.end" fill="freeze" id="anim_end" /></path></g></svg>