<?xml version='1.0' encoding='utf-8'?>
<svg viewBox="0.0 -6.0 50.0 50.0" version="1.1" xmlns="http://www.w3.org/2000/svg"><rect x="-1000" y="-1000" width="2000" height="2000" stroke="white" fill="white" /><g style="fill:none;stroke:#000000;stroke-width:1"><path d="M 23.5 1.7 C 34.3 -4.1 40.5 -14.0 41.6 -28.4 " transform="translate(0.0 38.0)" stroke-dasharray="36.793142399631634" stroke-dashoffset="36.793142399631634"><animate attributeName="stroke-dashoffset" from="36.793142399631634" to="0" dur="1.103794271988949s" begin="0s; 15s; 30s; 45s" fill="freeze" id="anim0" /></path><path d="M 3.5 -7.2 C 5.7 -8.3 8.1 -9.9 10.1 -11.6 " transform="translate(0.0 38.0)" stroke-dasharray="7.950118985786998" stroke-dashoffset="7.950118985786998"><animate attributeName="stroke-dashoffset" from="7.950118985786998" to="0" dur="0.2385035695736099s" begin="anim0.end" fill="freeze" id="anim1" /></path><path d="M 9.0 -20.0 C 8.1 -21.3 6.8 -22.8 5.5 -23.8 " transform="translate(0.0 38.0)" stroke-dasharray="5.1848489602298" stroke-dashoffset="5.1848489602298"><animate attributeName="stroke-dashoffset" from="5.1848489602298" to="0" dur="0.155545468806894s" begin="anim1.end" fill="freeze" id="anim2" /></path><path d="M 9.0 1.6 C 10.0 1.9 10.8 1.9 11.6 1.9 C 13.4 1.9 14.4 1.1 14.4 -1.1 L 14.4 -40.0 " transform="translate(0.0 38.0)" stroke-dasharray="46.26783596396365" stroke-dashoffset="46.26783596396365"><animate attributeName="stroke-dashoffset" from="46.26783596396365" to="0" dur="1.3880350789189093s" begin="anim2.end" fill="freeze" id="anim3" /></path><path d="M 24.1 -7.7 C 22.9 -9.1 21.0 -10.7 19.4 -11.8 " transform="translate(0.0 38.0)" stroke-dasharray="6.252039527700928" stroke-dashoffset="6.252039527700928"><animate attributeName="stroke-dashoffset" from="6.252039527700928" to="0" dur="0.18756118583102785s" begin="anim3.end" fill="freeze" id="anim4" /></path><path d="M 19.4 -20.3 C 20.5 -21.3 22.0 -23.0 22.9 -24.4 " transform="translate(0.0 38.0)" stroke-dasharray="5.403218220764052" stroke-dashoffset="5.403218220764052"><animate attributeName="stroke-dashoffset" from="5.403218220764052" to="0" dur="0.16209654662292156s" begin="anim4.end" fill="freeze" id="anim5" /></path><path d="M 24.9 -30.6 L 4.2 -30.6 " transform="translate(0.0 38.0)" stroke-dasharray="20.7" stroke-dashoffset="20.7"><animate attributeName="stroke-dashoffset" from="20.7" to="0" dur="0.621s" begin="anim5.end" fill="freeze" id="anim6" /></path><path d="M 46.0 0.5 C 37.9 -5.3 31.9 -14.8 29.9 -26.4 " transform="translate(0.0 38.0)" stroke-dasharray="32.152618573708146" stroke-dashoffset="32.152618573708146"><animate attributeName="stroke-dashoffset" from="32.152618573708146" to="0" dur="0.9645785572112443s" begin="anim6.end" fill="freeze" id="anim7" /></path><path d="M 23.0 -35.9 C 22.1 -36.9 21.1 -37.8 20.1 -38.6 " transform="translate(0.0 38.0)" stroke-dasharray="3.9667115724932542" stroke-dashoffset="3.9667115724932542"><animate attributeName="stroke-dashoffset" from="3.9667115724932542" to="0" dur="0.11900134717479763s" begin="anim7.end" fill="freeze" id="anim8" /></path><path d="M 26.4 -20.2 C 29.8 -25.3 32.8 -33.1 34.0 -39.1 " transform="translate(0.0 38.0)" stroke-dasharray="20.479689623425998" stroke-dashoffset="20.479689623425998"><animate attributeName="stroke-dashoffset" from="20.479689623425998" to="0" dur="0.6143906887027799s" begin="anim8.end" fill="freeze" id="anim9" /></path><path d="M 46.0 -29.2 L 31.2 -29.2" transform="translate(0.0 38.0)" stroke-dasharray="14.8" stroke-dashoffset="14.8"><animate attributeName="stroke-dashoffset" from="14.8" to="0" dur="0.444s" begin="anim9.end" fill="freeze" id="anim_end" /></path></g></svg>