<?xml version='1.0' encoding='utf-8'?>
<svg viewBox="0.0 -6.0 50.0 50.0" version="1.1" xmlns="http://www.w3.org/2000/svg"><rect x="-1000" y="-1000" width="2000" height="2000" stroke="white" fill="white" /><g style="fill:none;stroke:#000000;stroke-width:1"><path d="M 25.9 0.7 L 36.7 0.7 C 40.4 0.7 41.4 -0.6 41.4 -3.0 L 41.4 -9.6 C 41.4 -12.0 40.4 -13.2 36.7 -13.2 L 25.9 -13.2 C 22.2 -13.2 21.2 -12.0 21.2 -9.6 L 21.2 -3.0 C 21.2 -0.6 22.2 0.7 25.9 0.7 Z " transform="translate(0.0 38.0)" stroke-dasharray="62.45582273092581" stroke-dashoffset="62.45582273092581"><animate attributeName="stroke-dashoffset" from="62.45582273092581" to="0" dur="1.8736746819277743s" begin="0s; anim_end.end" fill="freeze" id="anim0" /></path><path d="M 5.7 0.3 C 8.0 -3.0 10.6 -8.4 12.0 -12.8 " transform="translate(0.0 38.0)" stroke-dasharray="14.581156343243643" stroke-dashoffset="14.581156343243643"><animate attributeName="stroke-dashoffset" from="14.581156343243643" to="0" dur="0.4374346902973093s" begin="anim0.end" fill="freeze" id="anim1" /></path><path d="M 8.8 -23.2 C 7.5 -24.5 5.6 -26.1 4.3 -26.9 " transform="translate(0.0 38.0)" stroke-dasharray="5.8361319476424525" stroke-dashoffset="5.8361319476424525"><animate attributeName="stroke-dashoffset" from="5.8361319476424525" to="0" dur="0.17508395842927357s" begin="anim1.end" fill="freeze" id="anim2" /></path><path d="M 12.2 -35.0 C 11.1 -36.4 9.3 -38.0 8.1 -38.9 " transform="translate(0.0 38.0)" stroke-dasharray="5.671831322895806" stroke-dashoffset="5.671831322895806"><animate attributeName="stroke-dashoffset" from="5.671831322895806" to="0" dur="0.17015493968687417s" begin="anim2.end" fill="freeze" id="anim3" /></path><path d="M 45.8 -24.4 L 16.8 -24.4 " transform="translate(0.0 38.0)" stroke-dasharray="28.999999999999996" stroke-dashoffset="28.999999999999996"><animate attributeName="stroke-dashoffset" from="28.999999999999996" to="0" dur="0.8699999999999999s" begin="anim3.end" fill="freeze" id="anim4" /></path><path d="M 31.2 -13.4 L 31.2 -35.8 " transform="translate(0.0 38.0)" stroke-dasharray="22.4" stroke-dashoffset="22.4"><animate attributeName="stroke-dashoffset" from="22.4" to="0" dur="0.6719999999999999s" begin="anim4.end" fill="freeze" id="anim5" /></path><path d="M 20.6 -34.4 C 27.1 -35.0 34.5 -36.4 40.7 -38.4" transform="translate(0.0 38.0)" stroke-dasharray="20.53243956427265" stroke-dashoffset="20.53243956427265"><animate attributeName="stroke-dashoffset" from="20.53243956427265" to="0" dur="0.6159731869281795s" begin="anim5.end" fill="freeze" id="anim_end" /></path></g></svg>