<?xml version='1.0' encoding='utf-8'?>
<svg viewBox="0.0 -6.0 50.0 50.0" version="1.1" xmlns="http://www.w3.org/2000/svg"><rect x="-1000" y="-1000" width="2000" height="2000" stroke="white" fill="white" /><g style="fill:none;stroke:#000000;stroke-width:1"><path d="M 25.8 -14.1 C 31.8 -18.1 35.5 -24.8 35.5 -33.4 " transform="translate(0.0 38.0)" stroke-dasharray="22.536408565140835" stroke-dashoffset="22.536408565140835"><animate attributeName="stroke-dashoffset" from="22.536408565140835" to="0" dur="0.676092256954225s" begin="0s; anim_end.end" fill="freeze" id="anim0" /></path><path d="M 5.7 -0.7 C 7.0 -2.2 8.2 -4.3 9.1 -6.5 " transform="translate(0.0 38.0)" stroke-dasharray="6.7509333900764155" stroke-dashoffset="6.7509333900764155"><animate attributeName="stroke-dashoffset" from="6.7509333900764155" to="0" dur="0.20252800170229246s" begin="anim0.end" fill="freeze" id="anim1" /></path><path d="M 16.2 -7.9 L 16.2 -1.4 C 16.2 1.1 17.1 1.6 24.6 1.6 C 33.2 1.6 34.9 0.7 35.3 -3.2 " transform="translate(0.0 38.0)" stroke-dasharray="29.876197722247284" stroke-dashoffset="29.876197722247284"><animate attributeName="stroke-dashoffset" from="29.876197722247284" to="0" dur="0.8962859316674184s" begin="anim1.end" fill="freeze" id="anim2" /></path><path d="M 11.9 -12.9 L 17.5 -12.9 C 19.6 -12.9 20.5 -13.8 20.5 -15.6 L 20.5 -19.2 C 20.5 -21.0 19.6 -21.8 17.5 -21.8 L 11.9 -21.8 C 9.8 -21.8 8.9 -21.0 8.9 -19.2 L 8.9 -15.6 C 8.9 -13.8 9.8 -12.9 11.9 -12.9 Z " transform="translate(0.0 38.0)" stroke-dasharray="36.881825831547445" stroke-dashoffset="36.881825831547445"><animate attributeName="stroke-dashoffset" from="36.881825831547445" to="0" dur="1.1064547749464233s" begin="anim2.end" fill="freeze" id="anim3" /></path><path d="M 26.9 -6.3 C 25.8 -7.5 24.8 -8.4 23.6 -9.2 " transform="translate(0.0 38.0)" stroke-dasharray="4.404497973898385" stroke-dashoffset="4.404497973898385"><animate attributeName="stroke-dashoffset" from="4.404497973898385" to="0" dur="0.13213493921695155s" begin="anim3.end" fill="freeze" id="anim4" /></path><path d="M 4.0 -22.4 C 8.1 -25.2 11.6 -28.9 14.4 -33.1 " transform="translate(0.0 38.0)" stroke-dasharray="15.012984056006404" stroke-dashoffset="15.012984056006404"><animate attributeName="stroke-dashoffset" from="15.012984056006404" to="0" dur="0.4503895216801921s" begin="anim4.end" fill="freeze" id="anim5" /></path><path d="M 4.8 -33.0 C 6.8 -34.6 8.8 -37.0 10.3 -39.2 " transform="translate(0.0 38.0)" stroke-dasharray="8.315899851311684" stroke-dashoffset="8.315899851311684"><animate attributeName="stroke-dashoffset" from="8.315899851311684" to="0" dur="0.24947699553935052s" begin="anim5.end" fill="freeze" id="anim6" /></path><path d="M 44.0 -2.4 C 43.0 -3.9 41.2 -6.1 39.6 -7.6 " transform="translate(0.0 38.0)" stroke-dasharray="6.823967127093215" stroke-dashoffset="6.823967127093215"><animate attributeName="stroke-dashoffset" from="6.823967127093215" to="0" dur="0.20471901381279645s" begin="anim6.end" fill="freeze" id="anim7" /></path><path d="M 22.6 -25.5 C 20.2 -27.8 17.2 -30.1 14.4 -31.8 " transform="translate(0.0 38.0)" stroke-dasharray="10.359813453911658" stroke-dashoffset="10.359813453911658"><animate attributeName="stroke-dashoffset" from="10.359813453911658" to="0" dur="0.3107944036173497s" begin="anim7.end" fill="freeze" id="anim8" /></path><path d="M 23.3 -35.5 C 21.7 -37.2 19.9 -38.8 18.4 -39.9 " transform="translate(0.0 38.0)" stroke-dasharray="6.5939952920497795" stroke-dashoffset="6.5939952920497795"><animate attributeName="stroke-dashoffset" from="6.5939952920497795" to="0" dur="0.19781985876149338s" begin="anim8.end" fill="freeze" id="anim9" /></path><path d="M 45.4 -14.0 C 40.4 -17.9 36.8 -24.1 35.5 -31.2 " transform="translate(0.0 38.0)" stroke-dasharray="20.281368399787223" stroke-dashoffset="20.281368399787223"><animate attributeName="stroke-dashoffset" from="20.281368399787223" to="0" dur="0.6084410519936166s" begin="anim9.end" fill="freeze" id="anim10" /></path><path d="M 27.0 -28.9 C 29.2 -32.0 31.5 -36.4 32.7 -40.1 " transform="translate(0.0 38.0)" stroke-dasharray="12.608920392708226" stroke-dashoffset="12.608920392708226"><animate attributeName="stroke-dashoffset" from="12.608920392708226" to="0" dur="0.3782676117812468s" begin="anim10.end" fill="freeze" id="anim11" /></path><path d="M 42.8 -28.1 C 43.7 -29.5 44.2 -30.7 44.6 -32.0 C 45.2 -33.6 44.5 -34.6 42.1 -34.6 L 31.1 -34.6" transform="translate(0.0 38.0)" stroke-dasharray="19.86037858488327" stroke-dashoffset="19.86037858488327"><animate attributeName="stroke-dashoffset" from="19.86037858488327" to="0" dur="0.5958113575464982s" begin="anim11.end" fill="freeze" id="anim_end" /></path></g></svg>