<?xml version='1.0' encoding='utf-8'?>
<svg viewBox="0.0 -6.0 50.0 50.0" version="1.1" xmlns="http://www.w3.org/2000/svg"><rect x="-1000" y="-1000" width="2000" height="2000" stroke="white" fill="white" /><g style="fill:none;stroke:#000000;stroke-width:1"><path d="M 15.6 -10.6 C 23.1 -17.5 29.4 -29.1 31.4 -39.9 " transform="translate(0.0 38.0)" stroke-dasharray="33.80622795229517" stroke-dashoffset="33.80622795229517"><animate attributeName="stroke-dashoffset" from="33.80622795229517" to="0" dur="1.014186838568855s" begin="0s" fill="freeze" /></path><path d="M 9.1 2.4 L 9.1 -40.2 " transform="translate(0.0 38.0)" stroke-dasharray="42.6" stroke-dashoffset="42.6"><animate attributeName="stroke-dashoffset" from="42.6" to="0" dur="1.278s" begin="1.014186838568855s" fill="freeze" /></path><path d="M 3.0 -22.6 C 3.6 -24.2 4.2 -27.1 4.5 -29.4 " transform="translate(0.0 38.0)" stroke-dasharray="6.975039297265854" stroke-dashoffset="6.975039297265854"><animate attributeName="stroke-dashoffset" from="6.975039297265854" to="0" dur="0.20925117891797562s" begin="2.2921868385688553s" fill="freeze" /></path><path d="M 31.9 -6.0 C 32.7 -5.8 33.4 -5.8 34.1 -5.8 C 36.0 -5.8 37.1 -6.5 37.1 -8.6 L 37.1 -11.2 C 37.1 -13.2 36.4 -14.0 33.6 -14.0 L 27.9 -14.0 C 25.3 -14.0 24.4 -13.1 24.4 -11.0 L 24.4 -2.3 C 24.4 0.8 25.5 1.6 32.6 1.6 C 41.0 1.6 42.9 0.3 43.4 -4.5 " transform="translate(0.0 38.0)" stroke-dasharray="59.30053598414951" stroke-dashoffset="59.30053598414951"><animate attributeName="stroke-dashoffset" from="59.30053598414951" to="0" dur="1.7790160795244854s" begin="2.501438017486831s" fill="freeze" /></path><path d="M 14.9 -26.6 C 14.6 -27.9 13.8 -29.7 13.2 -30.8 " transform="translate(0.0 38.0)" stroke-dasharray="4.542190960717608" stroke-dashoffset="4.542190960717608"><animate attributeName="stroke-dashoffset" from="4.542190960717608" to="0" dur="0.13626572882152824s" begin="4.280454097011316s" fill="freeze" /></path><path d="M 45.5 -21.6 L 16.6 -21.6 " transform="translate(0.0 38.0)" stroke-dasharray="28.9" stroke-dashoffset="28.9"><animate attributeName="stroke-dashoffset" from="28.9" to="0" dur="0.8669999999999999s" begin="4.416719825832844s" fill="freeze" /></path><path d="M 18.8 -31.7 C 20.4 -33.5 21.9 -35.8 23.1 -38.0 " transform="translate(0.0 38.0)" stroke-dasharray="7.643123900900219" stroke-dashoffset="7.643123900900219"><animate attributeName="stroke-dashoffset" from="7.643123900900219" to="0" dur="0.22929371702700657s" begin="5.283719825832844s" fill="freeze" /></path><path d="M 45.9 -13.1 C 40.4 -16.8 36.0 -22.6 33.7 -29.8 " transform="translate(0.0 38.0)" stroke-dasharray="21.071837894571416" stroke-dashoffset="21.071837894571416"><animate attributeName="stroke-dashoffset" from="21.071837894571416" to="0" dur="0.6321551368371424s" begin="5.513013542859851s" fill="freeze" /></path><path d="M 39.9 -29.9 L 22.9 -29.9 " transform="translate(0.0 38.0)" stroke-dasharray="17.0" stroke-dashoffset="17.0"><animate attributeName="stroke-dashoffset" from="17.0" to="0" dur="0.51s" begin="6.145168679696994s" fill="freeze" /></path><path d="M 43.9 -33.1 C 42.0 -34.7 40.1 -36.5 38.8 -38.1" transform="translate(0.0 38.0)" stroke-dasharray="7.151761598738282" stroke-dashoffset="7.151761598738282"><animate attributeName="stroke-dashoffset" from="7.151761598738282" to="0" dur="0.21455284796214844s" begin="6.6551686796969936s" fill="freeze" /></path></g></svg>