<?xml version='1.0' encoding='utf-8'?>
<svg viewBox="0.0 -6.0 50.0 50.0" version="1.1" xmlns="http://www.w3.org/2000/svg"><rect x="-1000" y="-1000" width="2000" height="2000" stroke="white" fill="white" /><g style="fill:none;stroke:#000000;stroke-width:1"><path d="M 34.0 0.5 C 35.0 0.8 36.2 0.9 37.5 0.9 C 39.7 0.9 41.2 0.1 42.0 -2.9 C 42.8 -6.1 43.2 -9.8 43.4 -14.2 C 43.4 -16.2 42.5 -17.4 39.7 -17.4 L 22.0 -17.4 " transform="translate(0.0 38.0)" stroke-dasharray="44.76975259558736" stroke-dashoffset="44.76975259558736"><animate attributeName="stroke-dashoffset" from="44.76975259558736" to="0" dur="1.3430925778676208s" begin="0s" fill="freeze" /></path><path d="M 4.1 -13.4 C 8.4 -14.6 13.5 -16.4 16.8 -17.9 " transform="translate(0.0 38.0)" stroke-dasharray="13.484804359885697" stroke-dashoffset="13.484804359885697"><animate attributeName="stroke-dashoffset" from="13.484804359885697" to="0" dur="0.40454413079657087s" begin="1.3430925778676208s" fill="freeze" /></path><path d="M 5.2 1.2 C 6.2 1.4 7.0 1.5 7.7 1.5 C 9.9 1.5 11.1 0.6 11.1 -2.1 L 11.1 -39.9 " transform="translate(0.0 38.0)" stroke-dasharray="46.05987814995124" stroke-dashoffset="46.05987814995124"><animate attributeName="stroke-dashoffset" from="46.05987814995124" to="0" dur="1.381796344498537s" begin="1.7476367086641917s" fill="freeze" /></path><path d="M 19.1 1.7 C 24.9 -1.9 28.9 -8.5 29.6 -16.8 " transform="translate(0.0 38.0)" stroke-dasharray="22.06753426220311" stroke-dashoffset="22.06753426220311"><animate attributeName="stroke-dashoffset" from="22.06753426220311" to="0" dur="0.6620260278660933s" begin="3.129433053162729s" fill="freeze" /></path><path d="M 4.2 -29.4 L 16.6 -29.4 " transform="translate(0.0 38.0)" stroke-dasharray="12.400000000000002" stroke-dashoffset="12.400000000000002"><animate attributeName="stroke-dashoffset" from="12.400000000000002" to="0" dur="0.37200000000000005s" begin="3.7914590810288225s" fill="freeze" /></path><path d="M 27.4 -25.8 L 38.3 -25.8 C 40.9 -25.8 42.0 -26.8 42.0 -28.9 L 42.0 -35.1 C 42.0 -37.2 40.9 -38.2 38.3 -38.2 L 27.4 -38.2 C 24.9 -38.2 23.8 -37.2 23.8 -35.1 L 23.8 -28.9 C 23.8 -26.8 24.9 -25.8 27.4 -25.8 Z" transform="translate(0.0 38.0)" stroke-dasharray="56.28044878961576" stroke-dashoffset="56.28044878961576"><animate attributeName="stroke-dashoffset" from="56.28044878961576" to="0" dur="1.6884134636884727s" begin="4.163459081028822s" fill="freeze" /></path></g></svg>