<?xml version='1.0' encoding='utf-8'?>
<svg viewBox="0.0 -6.0 50.0 50.0" version="1.1" xmlns="http://www.w3.org/2000/svg"><rect x="-1000" y="-1000" width="2000" height="2000" stroke="white" fill="white" /><g style="fill:none;stroke:#000000;stroke-width:1"><path d="M 37.8 1.3 C 38.6 1.5 39.5 1.6 40.3 1.6 C 42.5 1.6 43.6 0.6 43.6 -1.8 L 43.6 -24.2 C 43.6 -26.3 42.6 -27.4 40.0 -27.4 L 24.6 -27.4 C 22.1 -27.4 21.1 -26.3 21.1 -24.2 L 21.1 2.1 " transform="translate(0.0 38.0)" stroke-dasharray="83.12457044842715" stroke-dashoffset="83.12457044842715"><animate attributeName="stroke-dashoffset" from="83.12457044842715" to="0" dur="2.4937371134528146s" begin="0s; 15s; 30s; 45s" fill="freeze" id="anim0" /></path><path d="M 2.7 -10.0 C 5.5 -14.3 7.8 -20.4 8.9 -26.3 " transform="translate(0.0 38.0)" stroke-dasharray="17.5418666739681" stroke-dashoffset="17.5418666739681"><animate attributeName="stroke-dashoffset" from="17.5418666739681" to="0" dur="0.5262560002190431s" begin="anim0.end" fill="freeze" id="anim1" /></path><path d="M 10.1 2.6 L 10.1 -40.5 " transform="translate(0.0 38.0)" stroke-dasharray="43.1" stroke-dashoffset="43.1"><animate attributeName="stroke-dashoffset" from="43.1" to="0" dur="1.293s" begin="anim1.end" fill="freeze" id="anim2" /></path><path d="M 15.8 -16.9 C 14.6 -18.8 12.8 -20.6 10.9 -22.1 " transform="translate(0.0 38.0)" stroke-dasharray="7.177794811024741" stroke-dashoffset="7.177794811024741"><animate attributeName="stroke-dashoffset" from="7.177794811024741" to="0" dur="0.21533384433074224s" begin="anim2.end" fill="freeze" id="anim3" /></path><path d="M 15.3 -29.2 L 3.3 -29.2 " transform="translate(0.0 38.0)" stroke-dasharray="12.0" stroke-dashoffset="12.0"><animate attributeName="stroke-dashoffset" from="12.0" to="0" dur="0.36s" begin="anim3.end" fill="freeze" id="anim4" /></path><path d="M 25.6 -11.1 C 29.6 -14.7 32.0 -19.9 32.0 -27.4 L 32.0 -37.7 " transform="translate(0.0 38.0)" stroke-dasharray="28.368153399955546" stroke-dashoffset="28.368153399955546"><animate attributeName="stroke-dashoffset" from="28.368153399955546" to="0" dur="0.8510446019986664s" begin="anim4.end" fill="freeze" id="anim5" /></path><path d="M 38.9 -12.8 C 37.5 -14.9 34.7 -17.8 32.2 -19.8 " transform="translate(0.0 38.0)" stroke-dasharray="9.720363857422448" stroke-dashoffset="9.720363857422448"><animate attributeName="stroke-dashoffset" from="9.720363857422448" to="0" dur="0.29161091572267345s" begin="anim5.end" fill="freeze" id="anim6" /></path><path d="M 45.9 -37.5 L 19.4 -37.5" transform="translate(0.0 38.0)" stroke-dasharray="26.5" stroke-dashoffset="26.5"><animate attributeName="stroke-dashoffset" from="26.5" to="0" dur="0.7949999999999999s" begin="anim6.end" fill="freeze" id="anim_end" /></path></g></svg>