<?xml version='1.0' encoding='utf-8'?>
<svg viewBox="0.0 -6.0 50.0 50.0" version="1.1" xmlns="http://www.w3.org/2000/svg"><rect x="-1000" y="-1000" width="2000" height="2000" stroke="white" fill="white" /><g style="fill:none;stroke:#000000;stroke-width:1"><path d="M 15.4 0.4 C 19.4 -4.9 21.9 -12.5 21.9 -23.1 L 21.9 -28.2 C 21.9 -30.4 22.6 -31.2 25.4 -31.2 L 40.5 -31.2 C 42.6 -31.2 43.5 -30.3 43.5 -28.8 L 43.5 -25.8 C 43.5 -24.4 42.6 -23.4 40.5 -23.4 L 23.1 -23.4 " transform="translate(0.0 38.0)" stroke-dasharray="79.6065879389114" stroke-dashoffset="79.6065879389114"><animate attributeName="stroke-dashoffset" from="79.6065879389114" to="0" dur="2.388197638167342s" begin="0s; anim_end.end" fill="freeze" id="anim0" /></path><path d="M 3.6 -13.4 C 7.5 -14.5 11.8 -16.0 15.3 -17.7 " transform="translate(0.0 38.0)" stroke-dasharray="12.480353843819115" stroke-dashoffset="12.480353843819115"><animate attributeName="stroke-dashoffset" from="12.480353843819115" to="0" dur="0.3744106153145734s" begin="anim0.end" fill="freeze" id="anim1" /></path><path d="M 4.5 1.4 C 5.3 1.6 6.2 1.6 6.8 1.6 C 8.9 1.6 9.9 0.8 9.9 -1.7 L 9.9 -40.3 " transform="translate(0.0 38.0)" stroke-dasharray="46.19020680813806" stroke-dashoffset="46.19020680813806"><animate attributeName="stroke-dashoffset" from="46.19020680813806" to="0" dur="1.3857062042441417s" begin="anim1.end" fill="freeze" id="anim2" /></path><path d="M 21.9 1.9 C 29.1 -1.6 33.6 -7.8 33.9 -18.4 " transform="translate(0.0 38.0)" stroke-dasharray="24.965697871477158" stroke-dashoffset="24.965697871477158"><animate attributeName="stroke-dashoffset" from="24.965697871477158" to="0" dur="0.7489709361443146s" begin="anim2.end" fill="freeze" id="anim3" /></path><path d="M 15.2 -29.4 L 3.8 -29.4 " transform="translate(0.0 38.0)" stroke-dasharray="11.399999999999999" stroke-dashoffset="11.399999999999999"><animate attributeName="stroke-dashoffset" from="11.399999999999999" to="0" dur="0.34199999999999997s" begin="anim3.end" fill="freeze" id="anim4" /></path><path d="M 45.8 1.3 C 40.3 -1.6 36.1 -6.5 34.1 -12.2 " transform="translate(0.0 38.0)" stroke-dasharray="18.28374632100442" stroke-dashoffset="18.28374632100442"><animate attributeName="stroke-dashoffset" from="18.28374632100442" to="0" dur="0.5485123896301325s" begin="anim4.end" fill="freeze" id="anim5" /></path><path d="M 45.6 -12.8 L 21.1 -12.8 " transform="translate(0.0 38.0)" stroke-dasharray="24.5" stroke-dashoffset="24.5"><animate attributeName="stroke-dashoffset" from="24.5" to="0" dur="0.735s" begin="anim5.end" fill="freeze" id="anim6" /></path><path d="M 46.1 -38.0 L 19.0 -38.0" transform="translate(0.0 38.0)" stroke-dasharray="27.1" stroke-dashoffset="27.1"><animate attributeName="stroke-dashoffset" from="27.1" to="0" dur="0.8130000000000001s" begin="anim6.end" fill="freeze" id="anim_end" /></path></g></svg>