<?xml version='1.0' encoding='utf-8'?>
<svg viewBox="0.0 -6.0 50.0 50.0" version="1.1" xmlns="http://www.w3.org/2000/svg"><rect x="-1000" y="-1000" width="2000" height="2000" stroke="white" fill="white" /><g style="fill:none;stroke:#000000;stroke-width:1"><path d="M 30.6 -0.1 C 31.9 0.3 33.2 0.5 34.6 0.5 C 37.5 0.5 39.4 -0.8 40.2 -4.3 C 41.3 -8.8 42.0 -13.8 42.0 -19.1 C 42.0 -21.1 41.0 -22.4 38.1 -22.4 L 27.1 -22.4 " transform="translate(0.0 38.0)" stroke-dasharray="44.00094026606615" stroke-dashoffset="44.00094026606615"><animate attributeName="stroke-dashoffset" from="44.00094026606615" to="0" dur="1.3200282079819845s" begin="0s; anim_end.end" fill="freeze" id="anim0" /></path><path d="M 3.2 -9.7 C 6.5 -14.3 9.2 -20.7 10.7 -26.8 " transform="translate(0.0 38.0)" stroke-dasharray="18.776604864422893" stroke-dashoffset="18.776604864422893"><animate attributeName="stroke-dashoffset" from="18.776604864422893" to="0" dur="0.5632981459326868s" begin="anim0.end" fill="freeze" id="anim1" /></path><path d="M 11.7 2.5 L 11.7 -40.2 " transform="translate(0.0 38.0)" stroke-dasharray="42.7" stroke-dashoffset="42.7"><animate attributeName="stroke-dashoffset" from="42.7" to="0" dur="1.2810000000000001s" begin="anim1.end" fill="freeze" id="anim2" /></path><path d="M 18.1 -16.4 C 16.8 -18.1 14.8 -19.9 12.8 -21.2 " transform="translate(0.0 38.0)" stroke-dasharray="7.1821029798465625" stroke-dashoffset="7.1821029798465625"><animate attributeName="stroke-dashoffset" from="7.1821029798465625" to="0" dur="0.21546308939539688s" begin="anim2.end" fill="freeze" id="anim3" /></path><path d="M 18.4 -29.4 L 4.0 -29.4 " transform="translate(0.0 38.0)" stroke-dasharray="14.399999999999999" stroke-dashoffset="14.399999999999999"><animate attributeName="stroke-dashoffset" from="14.399999999999999" to="0" dur="0.43199999999999994s" begin="anim3.end" fill="freeze" id="anim4" /></path><path d="M 25.8 -18.4 C 27.6 -24.1 28.9 -29.6 29.8 -35.9 " transform="translate(0.0 38.0)" stroke-dasharray="17.972436521284365" stroke-dashoffset="17.972436521284365"><animate attributeName="stroke-dashoffset" from="17.972436521284365" to="0" dur="0.5391730956385309s" begin="anim4.end" fill="freeze" id="anim5" /></path><path d="M 45.6 -36.5 L 20.9 -36.5" transform="translate(0.0 38.0)" stroke-dasharray="24.700000000000003" stroke-dashoffset="24.700000000000003"><animate attributeName="stroke-dashoffset" from="24.700000000000003" to="0" dur="0.7410000000000001s" begin="anim5.end" fill="freeze" id="anim_end" /></path></g></svg>