<?xml version='1.0' encoding='utf-8'?>
<svg viewBox="0.0 -6.0 50.0 50.0" version="1.1" xmlns="http://www.w3.org/2000/svg"><rect x="-1000" y="-1000" width="2000" height="2000" stroke="white" fill="white" /><g style="fill:none;stroke:#000000;stroke-width:1"><path d="M 32.5 2.0 C 39.1 -4.1 43.4 -14.9 44.1 -28.4 " transform="translate(0.0 38.0)" stroke-dasharray="33.317415861437496" stroke-dashoffset="33.317415861437496"><animate attributeName="stroke-dashoffset" from="33.317415861437496" to="0" dur="0.9995224758431248s" begin="0s" fill="freeze" /></path><path d="M 3.4 -13.4 C 6.9 -14.6 10.4 -15.9 13.6 -17.5 " transform="translate(0.0 38.0)" stroke-dasharray="11.00138884776698" stroke-dashoffset="11.00138884776698"><animate attributeName="stroke-dashoffset" from="11.00138884776698" to="0" dur="0.3300416654330094s" begin="0.9995224758431248s" fill="freeze" /></path><path d="M 4.1 1.6 C 4.8 1.7 5.5 1.8 6.2 1.8 C 8.1 1.8 9.1 1.1 9.1 -1.3 L 9.1 -40.1 " transform="translate(0.0 38.0)" stroke-dasharray="45.854334800973106" stroke-dashoffset="45.854334800973106"><animate attributeName="stroke-dashoffset" from="45.854334800973106" to="0" dur="1.375630044029193s" begin="1.3295641412761343s" fill="freeze" /></path><path d="M 28.8 -7.0 L 18.4 -7.0 " transform="translate(0.0 38.0)" stroke-dasharray="10.400000000000002" stroke-dashoffset="10.400000000000002"><animate attributeName="stroke-dashoffset" from="10.400000000000002" to="0" dur="0.31200000000000006s" begin="2.705194185305327s" fill="freeze" /></path><path d="M 24.4 1.1 C 25.1 1.2 25.6 1.2 26.4 1.2 C 28.1 1.2 28.9 0.3 28.9 -1.6 L 28.9 -16.4 C 28.9 -18.4 28.1 -19.1 25.9 -19.1 L 21.5 -19.1 C 19.2 -19.1 18.5 -18.4 18.5 -16.4 L 18.5 2.2 " transform="translate(0.0 38.0)" stroke-dasharray="53.60261174390049" stroke-dashoffset="53.60261174390049"><animate attributeName="stroke-dashoffset" from="53.60261174390049" to="0" dur="1.6080783523170146s" begin="3.0171941853053275s" fill="freeze" /></path><path d="M 28.8 -13.0 L 18.3 -13.0 " transform="translate(0.0 38.0)" stroke-dasharray="10.5" stroke-dashoffset="10.5"><animate attributeName="stroke-dashoffset" from="10.5" to="0" dur="0.315s" begin="4.625272537622342s" fill="freeze" /></path><path d="M 13.8 -29.2 L 3.6 -29.2 " transform="translate(0.0 38.0)" stroke-dasharray="10.200000000000001" stroke-dashoffset="10.200000000000001"><animate attributeName="stroke-dashoffset" from="10.200000000000001" to="0" dur="0.306s" begin="4.940272537622342s" fill="freeze" /></path><path d="M 15.9 -24.4 C 19.9 -24.7 24.5 -25.4 28.5 -26.3 " transform="translate(0.0 38.0)" stroke-dasharray="12.753007373210773" stroke-dashoffset="12.753007373210773"><animate attributeName="stroke-dashoffset" from="12.753007373210773" to="0" dur="0.3825902211963232s" begin="5.2462725376223425s" fill="freeze" /></path><path d="M 18.6 -24.6 C 19.9 -27.4 21.0 -29.9 22.0 -33.0 " transform="translate(0.0 38.0)" stroke-dasharray="9.06834166226443" stroke-dashoffset="9.06834166226443"><animate attributeName="stroke-dashoffset" from="9.06834166226443" to="0" dur="0.2720502498679329s" begin="5.6288627588186655s" fill="freeze" /></path><path d="M 46.7 0.8 C 40.5 -6.1 37.0 -14.6 35.8 -26.6 " transform="translate(0.0 38.0)" stroke-dasharray="30.02106878434979" stroke-dashoffset="30.02106878434979"><animate attributeName="stroke-dashoffset" from="30.02106878434979" to="0" dur="0.9006320635304936s" begin="5.900913008686598s" fill="freeze" /></path><path d="M 30.2 -24.8 C 29.4 -26.4 28.1 -28.4 26.9 -29.8 " transform="translate(0.0 38.0)" stroke-dasharray="6.003665705979105" stroke-dashoffset="6.003665705979105"><animate attributeName="stroke-dashoffset" from="6.003665705979105" to="0" dur="0.18010997117937316s" begin="6.801545072217092s" fill="freeze" /></path><path d="M 31.1 -34.2 L 15.7 -34.2 " transform="translate(0.0 38.0)" stroke-dasharray="15.400000000000002" stroke-dashoffset="15.400000000000002"><animate attributeName="stroke-dashoffset" from="15.400000000000002" to="0" dur="0.462s" begin="6.981655043396465s" fill="freeze" /></path><path d="M 23.4 -33.5 L 23.4 -40.2 " transform="translate(0.0 38.0)" stroke-dasharray="6.700000000000003" stroke-dashoffset="6.700000000000003"><animate attributeName="stroke-dashoffset" from="6.700000000000003" to="0" dur="0.20100000000000007s" begin="7.443655043396465s" fill="freeze" /></path><path d="M 33.1 -21.1 C 35.9 -26.2 37.8 -33.4 38.7 -39.6 " transform="translate(0.0 38.0)" stroke-dasharray="19.421419194443185" stroke-dashoffset="19.421419194443185"><animate attributeName="stroke-dashoffset" from="19.421419194443185" to="0" dur="0.5826425758332955s" begin="7.644655043396465s" fill="freeze" /></path><path d="M 47.0 -29.6 L 37.2 -29.6" transform="translate(0.0 38.0)" stroke-dasharray="9.799999999999997" stroke-dashoffset="9.799999999999997"><animate attributeName="stroke-dashoffset" from="9.799999999999997" to="0" dur="0.29399999999999993s" begin="8.22729761922976s" fill="freeze" /></path></g></svg>