<?xml version='1.0' encoding='utf-8'?>
<svg viewBox="0.0 -6.0 50.0 50.0" version="1.1" xmlns="http://www.w3.org/2000/svg"><rect x="-1000" y="-1000" width="2000" height="2000" stroke="white" fill="white" /><g style="fill:none;stroke:#000000;stroke-width:1"><path d="M 16.6 1.4 L 33.6 1.4 C 36.7 1.4 37.8 0.3 37.8 -1.9 L 37.8 -12.1 C 37.8 -14.2 36.7 -15.2 33.6 -15.2 L 16.6 -15.2 C 13.6 -15.2 12.5 -14.2 12.5 -12.1 L 12.5 -1.9 C 12.5 0.3 13.6 1.4 16.6 1.4 Z " transform="translate(0.0 38.0)" stroke-dasharray="78.60146452074491" stroke-dashoffset="78.60146452074491"><animate attributeName="stroke-dashoffset" from="78.60146452074491" to="0" dur="2.3580439356223475s" begin="0s; anim_end.end" fill="freeze" id="anim0" /></path><path d="M 37.4 -7.2 L 13.2 -7.2 " transform="translate(0.0 38.0)" stroke-dasharray="24.2" stroke-dashoffset="24.2"><animate attributeName="stroke-dashoffset" from="24.2" to="0" dur="0.726s" begin="anim0.end" fill="freeze" id="anim1" /></path><path d="M 13.5 -27.4 C 12.7 -29.1 11.3 -30.8 10.1 -32.2 " transform="translate(0.0 38.0)" stroke-dasharray="5.899427555527164" stroke-dashoffset="5.899427555527164"><animate attributeName="stroke-dashoffset" from="5.899427555527164" to="0" dur="0.1769828266658149s" begin="anim1.end" fill="freeze" id="anim2" /></path><path d="M 45.7 -22.1 L 4.5 -22.1 " transform="translate(0.0 38.0)" stroke-dasharray="41.2" stroke-dashoffset="41.2"><animate attributeName="stroke-dashoffset" from="41.2" to="0" dur="1.236s" begin="anim2.end" fill="freeze" id="anim3" /></path><path d="M 19.9 -22.6 L 19.9 -37.0 " transform="translate(0.0 38.0)" stroke-dasharray="14.399999999999999" stroke-dashoffset="14.399999999999999"><animate attributeName="stroke-dashoffset" from="14.399999999999999" to="0" dur="0.43199999999999994s" begin="anim3.end" fill="freeze" id="anim4" /></path><path d="M 29.7 -22.6 L 29.7 -37.0 " transform="translate(0.0 38.0)" stroke-dasharray="14.399999999999999" stroke-dashoffset="14.399999999999999"><animate attributeName="stroke-dashoffset" from="14.399999999999999" to="0" dur="0.43199999999999994s" begin="anim4.end" fill="freeze" id="anim5" /></path><path d="M 43.1 -37.8 L 7.0 -37.8 " transform="translate(0.0 38.0)" stroke-dasharray="36.1" stroke-dashoffset="36.1"><animate attributeName="stroke-dashoffset" from="36.1" to="0" dur="1.083s" begin="anim5.end" fill="freeze" id="anim6" /></path><path d="M 35.9 -26.9 C 37.2 -28.4 38.8 -30.4 39.9 -32.5" transform="translate(0.0 38.0)" stroke-dasharray="6.896861289002546" stroke-dashoffset="6.896861289002546"><animate attributeName="stroke-dashoffset" from="6.896861289002546" to="0" dur="0.20690583867007636s" begin="anim6.end" fill="freeze" id="anim_end" /></path></g></svg>