<?xml version='1.0' encoding='utf-8'?>
<svg viewBox="0.0 -6.0 50.0 50.0" version="1.1" xmlns="http://www.w3.org/2000/svg"><rect x="-1000" y="-1000" width="2000" height="2000" stroke="white" fill="white" /><g style="fill:none;stroke:#000000;stroke-width:1"><path d="M 39.2 1.9 C 39.8 2.0 40.5 2.1 41.3 2.1 C 43.4 2.1 44.5 1.1 44.5 -1.4 L 44.5 -8.4 C 44.5 -10.8 43.5 -11.8 40.5 -11.8 L 24.0 -11.8 C 21.1 -11.8 20.0 -10.8 20.0 -8.4 L 20.0 2.5 " transform="translate(0.0 38.0)" stroke-dasharray="54.20778099176176" stroke-dashoffset="54.20778099176176"><animate attributeName="stroke-dashoffset" from="54.20778099176176" to="0" dur="1.6262334297528527s" begin="0s" fill="freeze" /></path><path d="M 2.9 -9.7 C 5.8 -14.2 8.2 -20.4 9.5 -26.2 " transform="translate(0.0 38.0)" stroke-dasharray="17.854875741272984" stroke-dashoffset="17.854875741272984"><animate attributeName="stroke-dashoffset" from="17.854875741272984" to="0" dur="0.5356462722381895s" begin="1.6262334297528527s" fill="freeze" /></path><path d="M 10.6 2.9 L 10.6 -40.6 " transform="translate(0.0 38.0)" stroke-dasharray="43.5" stroke-dashoffset="43.5"><animate attributeName="stroke-dashoffset" from="43.5" to="0" dur="1.305s" begin="2.161879701991042s" fill="freeze" /></path><path d="M 16.5 -16.4 C 15.3 -18.2 13.4 -20.0 11.5 -21.4 " transform="translate(0.0 38.0)" stroke-dasharray="7.104058016070748" stroke-dashoffset="7.104058016070748"><animate attributeName="stroke-dashoffset" from="7.104058016070748" to="0" dur="0.21312174048212243s" begin="3.466879701991042s" fill="freeze" /></path><path d="M 24.8 -3.0 C 28.9 -3.2 33.1 -3.7 37.0 -4.5 " transform="translate(0.0 38.0)" stroke-dasharray="12.303668289539015" stroke-dashoffset="12.303668289539015"><animate attributeName="stroke-dashoffset" from="12.303668289539015" to="0" dur="0.3691100486861704s" begin="3.680001442473164s" fill="freeze" /></path><path d="M 15.4 -29.1 L 3.2 -29.1 " transform="translate(0.0 38.0)" stroke-dasharray="12.2" stroke-dashoffset="12.2"><animate attributeName="stroke-dashoffset" from="12.2" to="0" dur="0.366s" begin="4.049111491159334s" fill="freeze" /></path><path d="M 27.4 -4.0 C 29.1 -7.9 30.6 -12.5 31.6 -16.8 " transform="translate(0.0 38.0)" stroke-dasharray="13.489080044633058" stroke-dashoffset="13.489080044633058"><animate attributeName="stroke-dashoffset" from="13.489080044633058" to="0" dur="0.40467240133899174s" begin="4.415111491159334s" fill="freeze" /></path><path d="M 39.0 -3.2 C 37.9 -4.8 36.5 -6.5 35.2 -7.8 " transform="translate(0.0 38.0)" stroke-dasharray="5.974229398944873" stroke-dashoffset="5.974229398944873"><animate attributeName="stroke-dashoffset" from="5.974229398944873" to="0" dur="0.17922688196834619s" begin="4.819783892498326s" fill="freeze" /></path><path d="M 22.4 -25.1 L 22.4 -20.4 C 22.4 -18.4 23.3 -17.6 25.8 -17.6 L 38.4 -17.6 C 40.9 -17.6 41.8 -18.4 41.8 -20.4 L 41.8 -25.1 " transform="translate(0.0 38.0)" stroke-dasharray="32.256900734058256" stroke-dashoffset="32.256900734058256"><animate attributeName="stroke-dashoffset" from="32.256900734058256" to="0" dur="0.9677070220217476s" begin="4.999010774466672s" fill="freeze" /></path><path d="M 27.1 -20.7 C 29.9 -21.9 33.3 -24.3 35.6 -26.6 " transform="translate(0.0 38.0)" stroke-dasharray="10.400324710638637" stroke-dashoffset="10.400324710638637"><animate attributeName="stroke-dashoffset" from="10.400324710638637" to="0" dur="0.3120097413191591s" begin="5.96671779648842s" fill="freeze" /></path><path d="M 36.0 -21.5 C 33.6 -23.4 30.8 -25.2 28.6 -26.2 " transform="translate(0.0 38.0)" stroke-dasharray="8.785334781871683" stroke-dashoffset="8.785334781871683"><animate attributeName="stroke-dashoffset" from="8.785334781871683" to="0" dur="0.2635600434561505s" begin="6.278727537807579s" fill="freeze" /></path><path d="M 19.4 -30.7 C 23.9 -32.9 28.6 -36.5 31.8 -40.1 " transform="translate(0.0 38.0)" stroke-dasharray="15.649424917664676" stroke-dashoffset="15.649424917664676"><animate attributeName="stroke-dashoffset" from="15.649424917664676" to="0" dur="0.4694827475299403s" begin="6.54228758126373s" fill="freeze" /></path><path d="M 38.7 -29.7 L 25.6 -29.7 " transform="translate(0.0 38.0)" stroke-dasharray="13.100000000000001" stroke-dashoffset="13.100000000000001"><animate attributeName="stroke-dashoffset" from="13.100000000000001" to="0" dur="0.393s" begin="7.01177032879367s" fill="freeze" /></path><path d="M 31.8 -29.9 L 31.8 -33.0 " transform="translate(0.0 38.0)" stroke-dasharray="3.1000000000000014" stroke-dashoffset="3.1000000000000014"><animate attributeName="stroke-dashoffset" from="3.1000000000000014" to="0" dur="0.09300000000000004s" begin="7.40477032879367s" fill="freeze" /></path><path d="M 46.4 -30.8 C 41.5 -32.8 35.8 -36.1 32.1 -39.5" transform="translate(0.0 38.0)" stroke-dasharray="16.815750202559002" stroke-dashoffset="16.815750202559002"><animate attributeName="stroke-dashoffset" from="16.815750202559002" to="0" dur="0.5044725060767701s" begin="7.49777032879367s" fill="freeze" /></path></g></svg>