<?xml version='1.0' encoding='utf-8'?>
<svg viewBox="0.0 -6.0 50.0 50.0" version="1.1" xmlns="http://www.w3.org/2000/svg"><rect x="-1000" y="-1000" width="2000" height="2000" stroke="white" fill="white" /><g style="fill:none;stroke:#000000;stroke-width:1"><path d="M 17.6 1.9 C 26.0 0.3 34.1 -3.6 38.2 -8.3 C 39.9 -10.2 39.0 -11.8 36.5 -11.8 L 26.1 -11.8 " transform="translate(0.0 38.0)" stroke-dasharray="39.255455569704786" stroke-dashoffset="39.255455569704786"><animate attributeName="stroke-dashoffset" from="39.255455569704786" to="0" dur="1.1776636670911436s" begin="0s" fill="freeze" /></path><path d="M 10.1 2.5 L 10.1 -40.4 " transform="translate(0.0 38.0)" stroke-dasharray="42.9" stroke-dashoffset="42.9"><animate attributeName="stroke-dashoffset" from="42.9" to="0" dur="1.287s" begin="1.1776636670911436s" fill="freeze" /></path><path d="M 3.5 -22.1 C 4.2 -23.9 4.8 -26.9 5.1 -29.4 " transform="translate(0.0 38.0)" stroke-dasharray="7.489082264817207" stroke-dashoffset="7.489082264817207"><animate attributeName="stroke-dashoffset" from="7.489082264817207" to="0" dur="0.2246724679445162s" begin="2.4646636670911435s" fill="freeze" /></path><path d="M 18.4 -6.2 C 22.7 -8.6 27.2 -13.1 29.6 -17.1 " transform="translate(0.0 38.0)" stroke-dasharray="15.780779939048104" stroke-dashoffset="15.780779939048104"><animate attributeName="stroke-dashoffset" from="15.780779939048104" to="0" dur="0.4734233981714431s" begin="2.6893361350356595s" fill="freeze" /></path><path d="M 45.0 0.9 C 36.9 -0.8 30.2 -4.5 25.9 -10.6 " transform="translate(0.0 38.0)" stroke-dasharray="22.84156532800808" stroke-dashoffset="22.84156532800808"><animate attributeName="stroke-dashoffset" from="22.84156532800808" to="0" dur="0.6852469598402424s" begin="3.162759533207103s" fill="freeze" /></path><path d="M 16.4 -25.4 C 16.0 -26.8 15.2 -28.6 14.5 -29.8 " transform="translate(0.0 38.0)" stroke-dasharray="4.803041975722936" stroke-dashoffset="4.803041975722936"><animate attributeName="stroke-dashoffset" from="4.803041975722936" to="0" dur="0.14409125927168806s" begin="3.848006493047345s" fill="freeze" /></path><path d="M 28.2 -17.4 L 36.9 -17.4 C 39.6 -17.4 40.8 -18.1 40.8 -20.3 L 40.8 -26.3 C 40.8 -28.4 39.6 -29.2 36.9 -29.2 L 28.3 -29.2 C 25.6 -29.2 24.5 -28.4 24.5 -26.3 L 24.5 -20.3 C 24.5 -18.1 25.6 -17.4 28.2 -17.4 Z " transform="translate(0.0 38.0)" stroke-dasharray="51.55834509179629" stroke-dashoffset="51.55834509179629"><animate attributeName="stroke-dashoffset" from="51.55834509179629" to="0" dur="1.5467503527538886s" begin="3.992097752319033s" fill="freeze" /></path><path d="M 40.7 -23.4 L 25.1 -23.4 " transform="translate(0.0 38.0)" stroke-dasharray="15.600000000000001" stroke-dashoffset="15.600000000000001"><animate attributeName="stroke-dashoffset" from="15.600000000000001" to="0" dur="0.468s" begin="5.538848105072922s" fill="freeze" /></path><path d="M 20.1 -29.6 C 22.5 -32.5 24.8 -36.0 26.4 -40.0 " transform="translate(0.0 38.0)" stroke-dasharray="12.208259476533796" stroke-dashoffset="12.208259476533796"><animate attributeName="stroke-dashoffset" from="12.208259476533796" to="0" dur="0.36624778429601385s" begin="6.006848105072922s" fill="freeze" /></path><path d="M 44.9 -35.3 L 24.1 -35.3" transform="translate(0.0 38.0)" stroke-dasharray="20.799999999999997" stroke-dashoffset="20.799999999999997"><animate attributeName="stroke-dashoffset" from="20.799999999999997" to="0" dur="0.6239999999999999s" begin="6.373095889368935s" fill="freeze" /></path></g></svg>