<?xml version='1.0' encoding='utf-8'?>
<svg viewBox="0.0 -6.0 50.0 50.0" version="1.1" xmlns="http://www.w3.org/2000/svg"><rect x="-1000" y="-1000" width="2000" height="2000" stroke="white" fill="white" /><g style="fill:none;stroke:#000000;stroke-width:1"><path d="M 23.8 -10.3 L 37.4 -10.3 C 40.1 -10.3 41.2 -11.3 41.2 -13.3 L 41.2 -19.2 C 41.2 -21.4 40.1 -22.2 37.4 -22.2 L 23.8 -22.2 C 21.1 -22.2 20.0 -21.4 20.0 -19.2 L 20.0 -13.3 C 20.0 -11.3 21.1 -10.3 23.8 -10.3 Z " transform="translate(0.0 38.0)" stroke-dasharray="61.38748174652661" stroke-dashoffset="61.38748174652661"><animate attributeName="stroke-dashoffset" from="61.38748174652661" to="0" dur="1.8416244523957983s" begin="0s" fill="freeze" /></path><path d="M 5.5 0.5 C 7.7 -3.0 10.0 -8.3 11.3 -12.7 " transform="translate(0.0 38.0)" stroke-dasharray="14.456242471614317" stroke-dashoffset="14.456242471614317"><animate attributeName="stroke-dashoffset" from="14.456242471614317" to="0" dur="0.4336872741484295s" begin="1.8416244523957983s" fill="freeze" /></path><path d="M 45.9 1.4 L 14.3 1.4 " transform="translate(0.0 38.0)" stroke-dasharray="31.599999999999998" stroke-dashoffset="31.599999999999998"><animate attributeName="stroke-dashoffset" from="31.599999999999998" to="0" dur="0.948s" begin="2.2753117265442278s" fill="freeze" /></path><path d="M 8.4 -23.2 C 7.2 -24.6 5.3 -26.1 4.2 -26.9 " transform="translate(0.0 38.0)" stroke-dasharray="5.608257130601457" stroke-dashoffset="5.608257130601457"><animate attributeName="stroke-dashoffset" from="5.608257130601457" to="0" dur="0.1682477139180437s" begin="3.2233117265442277s" fill="freeze" /></path><path d="M 42.5 -4.6 L 18.6 -4.6 " transform="translate(0.0 38.0)" stroke-dasharray="23.9" stroke-dashoffset="23.9"><animate attributeName="stroke-dashoffset" from="23.9" to="0" dur="0.717s" begin="3.3915594404622715s" fill="freeze" /></path><path d="M 30.2 1.2 L 30.2 -21.6 " transform="translate(0.0 38.0)" stroke-dasharray="22.8" stroke-dashoffset="22.8"><animate attributeName="stroke-dashoffset" from="22.8" to="0" dur="0.6839999999999999s" begin="4.108559440462272s" fill="freeze" /></path><path d="M 11.7 -35.1 C 10.6 -36.5 8.8 -38.0 7.7 -38.9 " transform="translate(0.0 38.0)" stroke-dasharray="5.527400052414648" stroke-dashoffset="5.527400052414648"><animate attributeName="stroke-dashoffset" from="5.527400052414648" to="0" dur="0.16582200157243943s" begin="4.792559440462272s" fill="freeze" /></path><path d="M 40.4 -16.3 L 21.1 -16.3 " transform="translate(0.0 38.0)" stroke-dasharray="19.299999999999997" stroke-dashoffset="19.299999999999997"><animate attributeName="stroke-dashoffset" from="19.299999999999997" to="0" dur="0.5789999999999998s" begin="4.958381442034711s" fill="freeze" /></path><path d="M 25.4 -30.6 C 25.1 -31.2 24.6 -31.9 24.1 -32.7 " transform="translate(0.0 38.0)" stroke-dasharray="2.470849207092063" stroke-dashoffset="2.470849207092063"><animate attributeName="stroke-dashoffset" from="2.470849207092063" to="0" dur="0.07412547621276189s" begin="5.537381442034711s" fill="freeze" /></path><path d="M 46.4 -27.9 L 14.9 -27.9 " transform="translate(0.0 38.0)" stroke-dasharray="31.5" stroke-dashoffset="31.5"><animate attributeName="stroke-dashoffset" from="31.5" to="0" dur="0.945s" begin="5.611506918247473s" fill="freeze" /></path><path d="M 34.3 -27.6 C 35.1 -29.1 36.0 -30.8 36.7 -32.6 " transform="translate(0.0 38.0)" stroke-dasharray="5.5496505276573185" stroke-dashoffset="5.5496505276573185"><animate attributeName="stroke-dashoffset" from="5.5496505276573185" to="0" dur="0.16648951582971955s" begin="6.556506918247473s" fill="freeze" /></path><path d="M 43.6 -36.2 L 18.3 -36.2 " transform="translate(0.0 38.0)" stroke-dasharray="25.3" stroke-dashoffset="25.3"><animate attributeName="stroke-dashoffset" from="25.3" to="0" dur="0.759s" begin="6.722996434077193s" fill="freeze" /></path><path d="M 30.2 -36.1 L 30.2 -40.3" transform="translate(0.0 38.0)" stroke-dasharray="4.199999999999996" stroke-dashoffset="4.199999999999996"><animate attributeName="stroke-dashoffset" from="4.199999999999996" to="0" dur="0.12599999999999986s" begin="7.481996434077193s" fill="freeze" /></path></g></svg>