<?xml version='1.0' encoding='utf-8'?>
<svg viewBox="0.0 -6.0 50.0 50.0" version="1.1" xmlns="http://www.w3.org/2000/svg"><rect x="-1000" y="-1000" width="2000" height="2000" stroke="white" fill="white" /><g style="fill:none;stroke:#000000;stroke-width:1"><path d="M 27.1 0.8 L 39.0 0.8 C 41.8 0.8 42.9 -0.3 42.9 -2.5 L 42.9 -11.8 C 42.9 -14.1 41.8 -15.3 39.1 -15.3 L 27.1 -15.3 C 24.4 -15.3 23.4 -14.1 23.4 -11.8 L 23.4 -2.5 C 23.4 -0.3 24.5 0.8 27.1 0.8 Z " transform="translate(0.0 38.0)" stroke-dasharray="65.9609771929755" stroke-dashoffset="65.9609771929755"><animate attributeName="stroke-dashoffset" from="65.9609771929755" to="0" dur="1.9788293157892651s" begin="0s; 15s; 30s; 45s" fill="freeze" id="anim0" /></path><path d="M 4.7 -13.4 C 8.9 -14.6 14.7 -16.7 18.9 -18.5 " transform="translate(0.0 38.0)" stroke-dasharray="15.096399757028603" stroke-dashoffset="15.096399757028603"><animate attributeName="stroke-dashoffset" from="15.096399757028603" to="0" dur="0.45289199271085806s" begin="anim0.end" fill="freeze" id="anim1" /></path><path d="M 6.2 1.1 C 7.0 1.2 7.8 1.3 8.6 1.3 C 10.9 1.3 12.1 0.3 12.1 -2.5 L 12.1 -39.9 " transform="translate(0.0 38.0)" stroke-dasharray="45.79130640620123" stroke-dashoffset="45.79130640620123"><animate attributeName="stroke-dashoffset" from="45.79130640620123" to="0" dur="1.373739192186037s" begin="anim1.end" fill="freeze" id="anim2" /></path><path d="M 18.4 -29.4 L 4.8 -29.4 " transform="translate(0.0 38.0)" stroke-dasharray="13.599999999999998" stroke-dashoffset="13.599999999999998"><animate attributeName="stroke-dashoffset" from="13.599999999999998" to="0" dur="0.4079999999999999s" begin="anim2.end" fill="freeze" id="anim3" /></path><path d="M 32.5 -15.2 L 32.5 -39.8 " transform="translate(0.0 38.0)" stroke-dasharray="24.599999999999998" stroke-dashoffset="24.599999999999998"><animate attributeName="stroke-dashoffset" from="24.599999999999998" to="0" dur="0.7379999999999999s" begin="anim3.end" fill="freeze" id="anim4" /></path><path d="M 46.4 -28.8 L 32.5 -28.8" transform="translate(0.0 38.0)" stroke-dasharray="13.899999999999999" stroke-dashoffset="13.899999999999999"><animate attributeName="stroke-dashoffset" from="13.899999999999999" to="0" dur="0.4169999999999999s" begin="anim4.end" fill="freeze" id="anim_end" /></path></g></svg>