<?xml version='1.0' encoding='utf-8'?>
<svg viewBox="0.0 -6.0 50.0 50.0" version="1.1" xmlns="http://www.w3.org/2000/svg"><rect x="-1000" y="-1000" width="2000" height="2000" stroke="white" fill="white" /><g style="fill:none;stroke:#000000;stroke-width:1"><path d="M 15.4 -31.1 L 34.9 -31.1 C 37.4 -31.1 38.2 -31.8 38.2 -33.5 L 38.2 -37.5 C 38.2 -39.1 37.4 -39.9 34.9 -39.9 L 15.4 -39.9 C 13.0 -39.9 12.2 -39.1 12.2 -37.5 L 12.2 -33.5 C 12.2 -31.8 13.0 -31.1 15.4 -31.1 Z " transform="translate(0.0 38.0)" stroke-dasharray="65.71802753459488" stroke-dashoffset="65.71802753459488"><animate attributeName="stroke-dashoffset" from="65.71802753459488" to="0" dur="1.9715408260378464s" begin="0s" fill="freeze" /></path><path d="M 9.6 -10.9 C 11.2 -12.4 12.9 -14.6 14.0 -16.4 " transform="translate(0.0 38.0)" stroke-dasharray="7.06192447945268" stroke-dashoffset="7.06192447945268"><animate attributeName="stroke-dashoffset" from="7.06192447945268" to="0" dur="0.21185773438358038s" begin="1.9715408260378464s" fill="freeze" /></path><path d="M 10.2 -3.2 L 10.2 -1.1 C 10.2 0.5 11.1 1.4 13.4 1.4 L 36.5 1.4 C 38.9 1.4 39.8 0.5 39.8 -1.1 L 39.8 -3.2 " transform="translate(0.0 38.0)" stroke-dasharray="36.70710803503967" stroke-dashoffset="36.70710803503967"><animate attributeName="stroke-dashoffset" from="36.70710803503967" to="0" dur="1.10121324105119s" begin="2.183398560421427s" fill="freeze" /></path><path d="M 24.9 1.2 L 24.9 -13.2 " transform="translate(0.0 38.0)" stroke-dasharray="14.399999999999999" stroke-dashoffset="14.399999999999999"><animate attributeName="stroke-dashoffset" from="14.399999999999999" to="0" dur="0.43199999999999994s" begin="3.284611801472617s" fill="freeze" /></path><path d="M 45.0 -7.1 L 5.0 -7.1 " transform="translate(0.0 38.0)" stroke-dasharray="40.0" stroke-dashoffset="40.0"><animate attributeName="stroke-dashoffset" from="40.0" to="0" dur="1.2s" begin="3.716611801472617s" fill="freeze" /></path><path d="M 13.8 -18.0 L 13.8 -26.6 " transform="translate(0.0 38.0)" stroke-dasharray="8.600000000000001" stroke-dashoffset="8.600000000000001"><animate attributeName="stroke-dashoffset" from="8.600000000000001" to="0" dur="0.258s" begin="4.916611801472617s" fill="freeze" /></path><path d="M 18.6 -27.0 L 9.2 -27.0 C 6.8 -27.0 6.2 -26.4 6.2 -24.8 L 6.2 -20.4 C 6.2 -18.8 6.8 -18.1 9.2 -18.1 L 18.6 -18.1 C 20.9 -18.1 21.6 -18.8 21.6 -20.4 L 21.6 -24.8 C 21.6 -26.4 20.9 -27.0 18.6 -27.0 Z " transform="translate(0.0 38.0)" stroke-dasharray="45.125080567959685" stroke-dashoffset="45.125080567959685"><animate attributeName="stroke-dashoffset" from="45.125080567959685" to="0" dur="1.3537524170387905s" begin="5.174611801472617s" fill="freeze" /></path><path d="M 21.1 -22.6 L 6.8 -22.6 " transform="translate(0.0 38.0)" stroke-dasharray="14.3" stroke-dashoffset="14.3"><animate attributeName="stroke-dashoffset" from="14.3" to="0" dur="0.429s" begin="6.528364218511407s" fill="freeze" /></path><path d="M 39.5 -13.2 L 11.9 -13.2 " transform="translate(0.0 38.0)" stroke-dasharray="27.6" stroke-dashoffset="27.6"><animate attributeName="stroke-dashoffset" from="27.6" to="0" dur="0.828s" begin="6.957364218511407s" fill="freeze" /></path><path d="M 35.9 -18.0 L 35.9 -26.6 " transform="translate(0.0 38.0)" stroke-dasharray="8.600000000000001" stroke-dashoffset="8.600000000000001"><animate attributeName="stroke-dashoffset" from="8.600000000000001" to="0" dur="0.258s" begin="7.785364218511408s" fill="freeze" /></path><path d="M 41.0 -27.0 L 31.1 -27.0 C 28.7 -27.0 28.1 -26.4 28.1 -24.8 L 28.1 -20.4 C 28.1 -18.8 28.7 -18.1 31.1 -18.1 L 41.0 -18.1 C 43.4 -18.1 44.0 -18.8 44.0 -20.4 L 44.0 -24.8 C 44.0 -26.4 43.4 -27.0 41.0 -27.0 Z " transform="translate(0.0 38.0)" stroke-dasharray="46.170560665922764" stroke-dashoffset="46.170560665922764"><animate attributeName="stroke-dashoffset" from="46.170560665922764" to="0" dur="1.3851168199776829s" begin="8.043364218511407s" fill="freeze" /></path><path d="M 43.5 -22.6 L 28.8 -22.6 " transform="translate(0.0 38.0)" stroke-dasharray="14.7" stroke-dashoffset="14.7"><animate attributeName="stroke-dashoffset" from="14.7" to="0" dur="0.44099999999999995s" begin="9.428481038489089s" fill="freeze" /></path><path d="M 24.8 -31.3 L 24.8 -39.4 " transform="translate(0.0 38.0)" stroke-dasharray="8.099999999999998" stroke-dashoffset="8.099999999999998"><animate attributeName="stroke-dashoffset" from="8.099999999999998" to="0" dur="0.24299999999999994s" begin="9.86948103848909s" fill="freeze" /></path><path d="M 37.5 -35.5 L 12.9 -35.5" transform="translate(0.0 38.0)" stroke-dasharray="24.6" stroke-dashoffset="24.6"><animate attributeName="stroke-dashoffset" from="24.6" to="0" dur="0.738s" begin="10.11248103848909s" fill="freeze" /></path></g></svg>