<?xml version='1.0' encoding='utf-8'?>
<svg viewBox="0.0 -6.0 50.0 50.0" version="1.1" xmlns="http://www.w3.org/2000/svg"><rect x="-1000" y="-1000" width="2000" height="2000" stroke="white" fill="white" /><g style="fill:none;stroke:#000000;stroke-width:1"><path d="M 45.1 1.2 L 12.5 1.2 C 9.5 1.2 8.2 0.1 8.2 -2.5 L 8.2 -24.3 C 8.2 -26.9 9.5 -27.9 12.5 -27.9 L 44.0 -27.9 " transform="translate(0.0 38.0)" stroke-dasharray="98.96841258559952" stroke-dashoffset="98.96841258559952"><animate attributeName="stroke-dashoffset" from="98.96841258559952" to="0" dur="2.969052377567986s" begin="0s; 15s; 30s; 45s" fill="freeze" id="anim0" /></path><path d="M 13.4 -9.7 C 15.6 -11.6 17.6 -14.2 18.8 -16.9 " transform="translate(0.0 38.0)" stroke-dasharray="9.06912135313304" stroke-dashoffset="9.06912135313304"><animate attributeName="stroke-dashoffset" from="9.06912135313304" to="0" dur="0.2720736405939912s" begin="anim0.end" fill="freeze" id="anim1" /></path><path d="M 21.2 -11.1 C 20.1 -12.2 18.6 -13.3 17.1 -14.2 " transform="translate(0.0 38.0)" stroke-dasharray="5.152035453694505" stroke-dashoffset="5.152035453694505"><animate attributeName="stroke-dashoffset" from="5.152035453694505" to="0" dur="0.15456106361083513s" begin="anim1.end" fill="freeze" id="anim2" /></path><path d="M 14.1 -3.0 C 23.4 -6.3 27.8 -11.8 27.8 -24.1 " transform="translate(0.0 38.0)" stroke-dasharray="27.34648320406486" stroke-dashoffset="27.34648320406486"><animate attributeName="stroke-dashoffset" from="27.34648320406486" to="0" dur="0.8203944961219458s" begin="anim2.end" fill="freeze" id="anim3" /></path><path d="M 4.5 -31.1 C 7.0 -33.5 9.2 -36.8 10.8 -40.3 " transform="translate(0.0 38.0)" stroke-dasharray="11.213702370615454" stroke-dashoffset="11.213702370615454"><animate attributeName="stroke-dashoffset" from="11.213702370615454" to="0" dur="0.33641107111846363s" begin="anim3.end" fill="freeze" id="anim4" /></path><path d="M 41.5 -3.5 C 34.7 -5.8 29.6 -9.9 27.2 -16.6 " transform="translate(0.0 38.0)" stroke-dasharray="20.120491466634643" stroke-dashoffset="20.120491466634643"><animate attributeName="stroke-dashoffset" from="20.120491466634643" to="0" dur="0.6036147439990392s" begin="anim4.end" fill="freeze" id="anim5" /></path><path d="M 16.3 -31.7 C 15.5 -33.3 14.8 -34.5 13.7 -36.0 " transform="translate(0.0 38.0)" stroke-dasharray="5.031818786861633" stroke-dashoffset="5.031818786861633"><animate attributeName="stroke-dashoffset" from="5.031818786861633" to="0" dur="0.150954563605849s" begin="anim5.end" fill="freeze" id="anim6" /></path><path d="M 41.2 -20.9 L 14.7 -20.9 " transform="translate(0.0 38.0)" stroke-dasharray="26.500000000000004" stroke-dashoffset="26.500000000000004"><animate attributeName="stroke-dashoffset" from="26.500000000000004" to="0" dur="0.795s" begin="anim6.end" fill="freeze" id="anim7" /></path><path d="M 33.7 -11.2 C 35.2 -12.8 36.5 -14.8 37.3 -17.0 " transform="translate(0.0 38.0)" stroke-dasharray="6.8722366277718585" stroke-dashoffset="6.8722366277718585"><animate attributeName="stroke-dashoffset" from="6.8722366277718585" to="0" dur="0.20616709883315576s" begin="anim7.end" fill="freeze" id="anim8" /></path><path d="M 40.9 -10.3 C 39.6 -11.4 38.0 -12.7 36.2 -13.6 " transform="translate(0.0 38.0)" stroke-dasharray="5.756873749557744" stroke-dashoffset="5.756873749557744"><animate attributeName="stroke-dashoffset" from="5.756873749557744" to="0" dur="0.1727062124867323s" begin="anim8.end" fill="freeze" id="anim9" /></path><path d="M 22.1 -36.0 L 8.8 -36.0 " transform="translate(0.0 38.0)" stroke-dasharray="13.3" stroke-dashoffset="13.3"><animate attributeName="stroke-dashoffset" from="13.3" to="0" dur="0.399s" begin="anim9.end" fill="freeze" id="anim10" /></path><path d="M 25.1 -32.1 C 27.1 -34.4 29.1 -37.1 30.6 -40.4 " transform="translate(0.0 38.0)" stroke-dasharray="9.992661262836664" stroke-dashoffset="9.992661262836664"><animate attributeName="stroke-dashoffset" from="9.992661262836664" to="0" dur="0.29977983788509993s" begin="anim10.end" fill="freeze" id="anim11" /></path><path d="M 36.8 -31.9 C 36.1 -33.0 35.1 -34.6 34.0 -36.0 " transform="translate(0.0 38.0)" stroke-dasharray="4.967075253517302" stroke-dashoffset="4.967075253517302"><animate attributeName="stroke-dashoffset" from="4.967075253517302" to="0" dur="0.14901225760551903s" begin="anim11.end" fill="freeze" id="anim12" /></path><path d="M 45.5 -36.0 L 28.1 -36.0" transform="translate(0.0 38.0)" stroke-dasharray="17.4" stroke-dashoffset="17.4"><animate attributeName="stroke-dashoffset" from="17.4" to="0" dur="0.5219999999999999s" begin="anim12.end" fill="freeze" id="anim_end" /></path></g></svg>