<?xml version='1.0' encoding='utf-8'?>
<svg viewBox="0.0 -6.0 50.0 50.0" version="1.1" xmlns="http://www.w3.org/2000/svg"><rect x="-1000" y="-1000" width="2000" height="2000" stroke="white" fill="white" /><g style="fill:none;stroke:#000000;stroke-width:1"><path d="M 46.4 -2.8 C 46.0 0.3 44.8 1.3 43.5 1.3 C 42.5 1.3 41.2 0.4 40.0 -2.2 C 37.2 -7.7 36.0 -13.5 35.8 -21.8 " transform="translate(0.0 38.0)" stroke-dasharray="30.922929742075397" stroke-dashoffset="30.922929742075397"><animate attributeName="stroke-dashoffset" from="30.922929742075397" to="0" dur="0.9276878922622619s" begin="0s; 15s; 30s; 45s" fill="freeze" id="anim0" /></path><path d="M 3.1 -13.3 C 7.2 -14.8 11.9 -16.9 15.4 -19.1 " transform="translate(0.0 38.0)" stroke-dasharray="13.621537782258512" stroke-dashoffset="13.621537782258512"><animate attributeName="stroke-dashoffset" from="13.621537782258512" to="0" dur="0.40864613346775536s" begin="anim0.end" fill="freeze" id="anim1" /></path><path d="M 20.5 -2.5 C 21.4 -4.1 22.2 -6.0 22.9 -7.8 " transform="translate(0.0 38.0)" stroke-dasharray="5.822785453637831" stroke-dashoffset="5.822785453637831"><animate attributeName="stroke-dashoffset" from="5.822785453637831" to="0" dur="0.17468356360913492s" begin="anim1.end" fill="freeze" id="anim2" /></path><path d="M 23.0 2.2 C 23.6 2.4 24.2 2.5 24.8 2.5 C 26.2 2.5 27.1 2.0 27.7 0.6 C 28.0 -0.2 28.2 -0.8 28.4 -1.5 C 28.7 -3.1 28.0 -3.8 26.4 -3.8 L 21.5 -3.8 " transform="translate(0.0 38.0)" stroke-dasharray="16.361602273787472" stroke-dashoffset="16.361602273787472"><animate attributeName="stroke-dashoffset" from="16.361602273787472" to="0" dur="0.49084806821362414s" begin="anim2.end" fill="freeze" id="anim3" /></path><path d="M 10.3 2.5 L 10.3 -40.5 " transform="translate(0.0 38.0)" stroke-dasharray="43.0" stroke-dashoffset="43.0"><animate attributeName="stroke-dashoffset" from="43.0" to="0" dur="1.29s" begin="anim3.end" fill="freeze" id="anim4" /></path><path d="M 16.7 -10.1 C 19.6 -11.6 22.6 -13.7 24.1 -15.6 " transform="translate(0.0 38.0)" stroke-dasharray="9.278047431117832" stroke-dashoffset="9.278047431117832"><animate attributeName="stroke-dashoffset" from="9.278047431117832" to="0" dur="0.278341422933535s" begin="anim4.end" fill="freeze" id="anim5" /></path><path d="M 2.7 -23.4 C 3.7 -26.2 4.6 -30.9 4.8 -34.9 " transform="translate(0.0 38.0)" stroke-dasharray="11.724210501405302" stroke-dashoffset="11.724210501405302"><animate attributeName="stroke-dashoffset" from="11.724210501405302" to="0" dur="0.35172631504215907s" begin="anim5.end" fill="freeze" id="anim6" /></path><path d="M 29.6 -8.0 L 19.7 -8.0 " transform="translate(0.0 38.0)" stroke-dasharray="9.900000000000002" stroke-dashoffset="9.900000000000002"><animate attributeName="stroke-dashoffset" from="9.900000000000002" to="0" dur="0.29700000000000004s" begin="anim6.end" fill="freeze" id="anim7" /></path><path d="M 15.3 -28.9 L 4.3 -28.9 " transform="translate(0.0 38.0)" stroke-dasharray="11.0" stroke-dashoffset="11.0"><animate attributeName="stroke-dashoffset" from="11.0" to="0" dur="0.32999999999999996s" begin="anim7.end" fill="freeze" id="anim8" /></path><path d="M 25.4 -11.3 L 25.4 -20.9 " transform="translate(0.0 38.0)" stroke-dasharray="9.599999999999998" stroke-dashoffset="9.599999999999998"><animate attributeName="stroke-dashoffset" from="9.599999999999998" to="0" dur="0.2879999999999999s" begin="anim8.end" fill="freeze" id="anim9" /></path><path d="M 31.1 -11.2 C 29.6 -12.1 27.9 -12.9 26.2 -13.4 " transform="translate(0.0 38.0)" stroke-dasharray="5.385307434756125" stroke-dashoffset="5.385307434756125"><animate attributeName="stroke-dashoffset" from="5.385307434756125" to="0" dur="0.16155922304268375s" begin="anim9.end" fill="freeze" id="anim10" /></path><path d="M 32.1 0.7 C 36.5 -2.1 40.8 -7.0 43.2 -11.5 " transform="translate(0.0 38.0)" stroke-dasharray="16.655265468501323" stroke-dashoffset="16.655265468501323"><animate attributeName="stroke-dashoffset" from="16.655265468501323" to="0" dur="0.49965796405503965s" begin="anim10.end" fill="freeze" id="anim11" /></path><path d="M 20.2 -20.4 C 23.2 -20.6 26.7 -21.3 29.6 -22.1 " transform="translate(0.0 38.0)" stroke-dasharray="9.567460340186198" stroke-dashoffset="9.567460340186198"><animate attributeName="stroke-dashoffset" from="9.567460340186198" to="0" dur="0.2870238102055859s" begin="anim11.end" fill="freeze" id="anim12" /></path><path d="M 46.5 -16.4 L 18.1 -16.4 " transform="translate(0.0 38.0)" stroke-dasharray="28.4" stroke-dashoffset="28.4"><animate attributeName="stroke-dashoffset" from="28.4" to="0" dur="0.852s" begin="anim12.end" fill="freeze" id="anim13" /></path><path d="M 45.5 -25.6 L 19.1 -25.6 " transform="translate(0.0 38.0)" stroke-dasharray="26.4" stroke-dashoffset="26.4"><animate attributeName="stroke-dashoffset" from="26.4" to="0" dur="0.7919999999999999s" begin="anim13.end" fill="freeze" id="anim14" /></path><path d="M 31.4 -25.8 L 31.4 -35.0 " transform="translate(0.0 38.0)" stroke-dasharray="9.2" stroke-dashoffset="9.2"><animate attributeName="stroke-dashoffset" from="9.2" to="0" dur="0.27599999999999997s" begin="anim14.end" fill="freeze" id="anim15" /></path><path d="M 40.5 -30.7 L 23.1 -30.7 " transform="translate(0.0 38.0)" stroke-dasharray="17.4" stroke-dashoffset="17.4"><animate attributeName="stroke-dashoffset" from="17.4" to="0" dur="0.5219999999999999s" begin="anim15.end" fill="freeze" id="anim16" /></path><path d="M 42.6 -19.9 C 42.1 -20.6 41.5 -21.2 40.9 -21.9 " transform="translate(0.0 38.0)" stroke-dasharray="2.626127637328965" stroke-dashoffset="2.626127637328965"><animate attributeName="stroke-dashoffset" from="2.626127637328965" to="0" dur="0.07878382911986895s" begin="anim16.end" fill="freeze" id="anim17" /></path><path d="M 27.6 -38.3 C 27.1 -39.2 26.7 -39.7 26.2 -40.3 " transform="translate(0.0 38.0)" stroke-dasharray="2.4457631261566424" stroke-dashoffset="2.4457631261566424"><animate attributeName="stroke-dashoffset" from="2.4457631261566424" to="0" dur="0.07337289378469927s" begin="anim17.end" fill="freeze" id="anim18" /></path><path d="M 43.9 -35.8 L 20.1 -35.8 " transform="translate(0.0 38.0)" stroke-dasharray="23.799999999999997" stroke-dashoffset="23.799999999999997"><animate attributeName="stroke-dashoffset" from="23.799999999999997" to="0" dur="0.7139999999999999s" begin="anim18.end" fill="freeze" id="anim19" /></path><path d="M 34.2 -35.9 C 35.2 -37.3 36.0 -38.7 36.8 -40.3" transform="translate(0.0 38.0)" stroke-dasharray="5.11624868352517" stroke-dashoffset="5.11624868352517"><animate attributeName="stroke-dashoffset" from="5.11624868352517" to="0" dur="0.1534874605057551s" begin="anim19.end" fill="freeze" id="anim_end" /></path></g></svg>