<?xml version='1.0' encoding='utf-8'?>
<svg viewBox="0.0 -6.0 50.0 50.0" version="1.1" xmlns="http://www.w3.org/2000/svg"><rect x="-1000" y="-1000" width="2000" height="2000" stroke="white" fill="white" /><g style="fill:none;stroke:#000000;stroke-width:1"><path d="M 38.8 -19.1 L 26.9 -19.1 C 24.1 -19.1 23.1 -18.4 23.1 -16.4 L 23.1 -11.2 C 23.1 -9.2 24.1 -8.5 26.9 -8.5 L 38.8 -8.5 C 41.5 -8.5 42.5 -9.2 42.5 -11.2 L 42.5 -16.4 C 42.5 -18.4 41.5 -19.1 38.8 -19.1 Z " transform="translate(0.0 38.0)" stroke-dasharray="55.67958614043528" stroke-dashoffset="55.67958614043528"><animate attributeName="stroke-dashoffset" from="55.67958614043528" to="0" dur="1.6703875842130584s" begin="0s; anim_end.end" fill="freeze" id="anim0" /></path><path d="M 2.8 -6.7 C 5.4 -10.2 7.9 -15.7 9.4 -20.9 " transform="translate(0.0 38.0)" stroke-dasharray="15.731993007427386" stroke-dashoffset="15.731993007427386"><animate attributeName="stroke-dashoffset" from="15.731993007427386" to="0" dur="0.4719597902228216s" begin="anim0.end" fill="freeze" id="anim1" /></path><path d="M 16.8 -12.4 C 15.2 -14.2 13.3 -15.6 11.2 -16.9 " transform="translate(0.0 38.0)" stroke-dasharray="7.2099922503827525" stroke-dashoffset="7.2099922503827525"><animate attributeName="stroke-dashoffset" from="7.2099922503827525" to="0" dur="0.21629976751148255s" begin="anim1.end" fill="freeze" id="anim2" /></path><path d="M 10.2 2.8 L 10.2 -40.5 " transform="translate(0.0 38.0)" stroke-dasharray="43.3" stroke-dashoffset="43.3"><animate attributeName="stroke-dashoffset" from="43.3" to="0" dur="1.299s" begin="anim2.end" fill="freeze" id="anim3" /></path><path d="M 46.1 1.7 L 17.1 1.7 " transform="translate(0.0 38.0)" stroke-dasharray="29.0" stroke-dashoffset="29.0"><animate attributeName="stroke-dashoffset" from="29.0" to="0" dur="0.87s" begin="anim3.end" fill="freeze" id="anim4" /></path><path d="M 16.2 -23.6 L 3.2 -23.6 " transform="translate(0.0 38.0)" stroke-dasharray="13.0" stroke-dashoffset="13.0"><animate attributeName="stroke-dashoffset" from="13.0" to="0" dur="0.39s" begin="anim4.end" fill="freeze" id="anim5" /></path><path d="M 43.3 -3.4 L 21.7 -3.4 " transform="translate(0.0 38.0)" stroke-dasharray="21.599999999999998" stroke-dashoffset="21.599999999999998"><animate attributeName="stroke-dashoffset" from="21.599999999999998" to="0" dur="0.6479999999999999s" begin="anim5.end" fill="freeze" id="anim6" /></path><path d="M 5.7 -29.2 C 5.2 -30.8 4.5 -32.8 4.0 -34.1 " transform="translate(0.0 38.0)" stroke-dasharray="5.187256334974096" stroke-dashoffset="5.187256334974096"><animate attributeName="stroke-dashoffset" from="5.187256334974096" to="0" dur="0.15561769004922288s" begin="anim6.end" fill="freeze" id="anim7" /></path><path d="M 32.6 1.4 L 32.6 -18.6 " transform="translate(0.0 38.0)" stroke-dasharray="20.0" stroke-dashoffset="20.0"><animate attributeName="stroke-dashoffset" from="20.0" to="0" dur="0.6s" begin="anim7.end" fill="freeze" id="anim8" /></path><path d="M 41.7 -13.8 L 24.2 -13.8 " transform="translate(0.0 38.0)" stroke-dasharray="17.500000000000004" stroke-dashoffset="17.500000000000004"><animate attributeName="stroke-dashoffset" from="17.500000000000004" to="0" dur="0.5250000000000001s" begin="anim8.end" fill="freeze" id="anim9" /></path><path d="M 14.8 -28.9 C 15.5 -30.4 16.5 -32.6 17.1 -34.5 " transform="translate(0.0 38.0)" stroke-dasharray="6.05800093933289" stroke-dashoffset="6.05800093933289"><animate attributeName="stroke-dashoffset" from="6.05800093933289" to="0" dur="0.18174002817998672s" begin="anim9.end" fill="freeze" id="anim10" /></path><path d="M 46.5 -23.9 L 20.2 -23.9 " transform="translate(0.0 38.0)" stroke-dasharray="26.3" stroke-dashoffset="26.3"><animate attributeName="stroke-dashoffset" from="26.3" to="0" dur="0.789s" begin="anim10.end" fill="freeze" id="anim11" /></path><path d="M 38.9 -39.1 L 26.9 -39.1 C 24.1 -39.1 23.4 -38.2 23.4 -36.5 L 23.4 -31.2 C 23.4 -29.4 24.1 -28.6 26.9 -28.6 L 38.9 -28.6 C 41.6 -28.6 42.3 -29.4 42.3 -31.2 L 42.3 -36.5 C 42.3 -38.2 41.6 -39.1 38.9 -39.1 Z " transform="translate(0.0 38.0)" stroke-dasharray="54.72714760846666" stroke-dashoffset="54.72714760846666"><animate attributeName="stroke-dashoffset" from="54.72714760846666" to="0" dur="1.6418144282539997s" begin="anim11.end" fill="freeze" id="anim12" /></path><path d="M 42.3 -33.9 L 23.4 -33.9" transform="translate(0.0 38.0)" stroke-dasharray="18.9" stroke-dashoffset="18.9"><animate attributeName="stroke-dashoffset" from="18.9" to="0" dur="0.567s" begin="anim12.end" fill="freeze" id="anim_end" /></path></g></svg>