<?xml version='1.0' encoding='utf-8'?>
<svg viewBox="0.0 -6.0 50.0 50.0" version="1.1" xmlns="http://www.w3.org/2000/svg"><rect x="-1000" y="-1000" width="2000" height="2000" stroke="white" fill="white" /><g style="fill:none;stroke:#000000;stroke-width:1"><path d="M 10.6 -3.1 L 13.7 -3.1 C 15.6 -3.1 16.4 -3.9 16.4 -5.9 L 16.4 -20.2 C 16.4 -22.3 15.6 -22.9 13.7 -22.9 L 10.6 -22.9 C 8.8 -22.9 7.8 -22.1 7.8 -20.2 L 7.8 -5.9 C 7.8 -3.9 8.8 -3.1 10.6 -3.1 Z " transform="translate(0.0 38.0)" stroke-dasharray="52.83745595340884" stroke-dashoffset="52.83745595340884"><animate attributeName="stroke-dashoffset" from="52.83745595340884" to="0" dur="1.585123678602265s" begin="0s; anim_end.end" fill="freeze" id="anim0" /></path><path d="M 2.9 -15.1 C 6.3 -20.4 9.2 -29.3 10.2 -36.5 " transform="translate(0.0 38.0)" stroke-dasharray="22.756317637855272" stroke-dashoffset="22.756317637855272"><animate attributeName="stroke-dashoffset" from="22.756317637855272" to="0" dur="0.6826895291356582s" begin="anim0.end" fill="freeze" id="anim1" /></path><path d="M 27.8 -4.9 L 31.4 -4.9 C 33.6 -4.9 34.3 -5.8 34.3 -7.4 L 34.3 -11.1 C 34.3 -12.7 33.6 -13.6 31.4 -13.6 L 27.7 -13.6 C 25.4 -13.6 24.8 -12.7 24.8 -11.1 L 24.8 -7.4 C 24.8 -5.8 25.4 -4.9 27.8 -4.9 Z " transform="translate(0.0 38.0)" stroke-dasharray="32.56555560868614" stroke-dashoffset="32.56555560868614"><animate attributeName="stroke-dashoffset" from="32.56555560868614" to="0" dur="0.9769666682605842s" begin="anim1.end" fill="freeze" id="anim2" /></path><path d="M 36.0 1.7 C 36.9 1.9 37.8 2.0 38.6 2.0 C 41.0 2.0 42.0 1.1 42.0 -1.4 L 42.0 -19.7 " transform="translate(0.0 38.0)" stroke-dasharray="26.530870095299612" stroke-dashoffset="26.530870095299612"><animate attributeName="stroke-dashoffset" from="26.530870095299612" to="0" dur="0.7959261028589883s" begin="anim2.end" fill="freeze" id="anim3" /></path><path d="M 17.6 -37.0 L 3.3 -37.0 " transform="translate(0.0 38.0)" stroke-dasharray="14.3" stroke-dashoffset="14.3"><animate attributeName="stroke-dashoffset" from="14.3" to="0" dur="0.429s" begin="anim3.end" fill="freeze" id="anim4" /></path><path d="M 46.9 -19.9 L 20.9 -19.9 " transform="translate(0.0 38.0)" stroke-dasharray="26.0" stroke-dashoffset="26.0"><animate attributeName="stroke-dashoffset" from="26.0" to="0" dur="0.78s" begin="anim4.end" fill="freeze" id="anim5" /></path><path d="M 24.1 -24.1 C 30.8 -26.9 33.4 -32.0 33.6 -40.3 " transform="translate(0.0 38.0)" stroke-dasharray="20.096064409686328" stroke-dashoffset="20.096064409686328"><animate attributeName="stroke-dashoffset" from="20.096064409686328" to="0" dur="0.6028819322905898s" begin="anim5.end" fill="freeze" id="anim6" /></path><path d="M 40.7 -24.7 C 38.5 -26.8 35.2 -28.9 32.4 -30.1 " transform="translate(0.0 38.0)" stroke-dasharray="9.947920063000602" stroke-dashoffset="9.947920063000602"><animate attributeName="stroke-dashoffset" from="9.947920063000602" to="0" dur="0.29843760189001806s" begin="anim6.end" fill="freeze" id="anim7" /></path><path d="M 44.0 -34.4 L 23.7 -34.4" transform="translate(0.0 38.0)" stroke-dasharray="20.3" stroke-dashoffset="20.3"><animate attributeName="stroke-dashoffset" from="20.3" to="0" dur="0.609s" begin="anim7.end" fill="freeze" id="anim_end" /></path></g></svg>