<?xml version='1.0' encoding='utf-8'?>
<svg viewBox="0.0 -6.0 50.0 50.0" version="1.1" xmlns="http://www.w3.org/2000/svg"><rect x="-1000" y="-1000" width="2000" height="2000" stroke="white" fill="white" /><g style="fill:none;stroke:#000000;stroke-width:1"><path d="M 30.7 -15.6 C 31.6 -15.3 32.6 -15.2 33.4 -15.2 C 35.1 -15.2 36.4 -15.8 37.0 -18.2 C 37.6 -20.4 38.0 -23.1 38.0 -25.9 C 38.1 -27.9 37.3 -28.6 34.9 -28.6 L 19.9 -28.6 " transform="translate(0.0 38.0)" stroke-dasharray="35.56621535728482" stroke-dashoffset="35.56621535728482"><animate attributeName="stroke-dashoffset" from="35.56621535728482" to="0" dur="1.0669864607185444s" begin="0s; 15s; 30s; 45s" fill="freeze" id="anim0" /></path><path d="M 4.0 1.9 C 10.8 -0.1 18.4 -3.5 23.1 -7.5 " transform="translate(0.0 38.0)" stroke-dasharray="21.42460884253823" stroke-dashoffset="21.42460884253823"><animate attributeName="stroke-dashoffset" from="21.42460884253823" to="0" dur="0.6427382652761469s" begin="anim0.end" fill="freeze" id="anim1" /></path><path d="M 7.2 -12.9 C 9.1 -14.3 11.3 -16.4 12.9 -18.6 " transform="translate(0.0 38.0)" stroke-dasharray="8.089918994296232" stroke-dashoffset="8.089918994296232"><animate attributeName="stroke-dashoffset" from="8.089918994296232" to="0" dur="0.24269756982888696s" begin="anim1.end" fill="freeze" id="anim2" /></path><path d="M 24.9 2.9 L 24.9 -12.6 " transform="translate(0.0 38.0)" stroke-dasharray="15.5" stroke-dashoffset="15.5"><animate attributeName="stroke-dashoffset" from="15.5" to="0" dur="0.46499999999999997s" begin="anim2.end" fill="freeze" id="anim3" /></path><path d="M 9.1 -22.6 C 8.0 -23.6 6.8 -24.5 5.8 -25.1 " transform="translate(0.0 38.0)" stroke-dasharray="4.146238099995714" stroke-dashoffset="4.146238099995714"><animate attributeName="stroke-dashoffset" from="4.146238099995714" to="0" dur="0.12438714299987143s" begin="anim3.end" fill="freeze" id="anim4" /></path><path d="M 44.6 -8.8 L 5.2 -8.8 " transform="translate(0.0 38.0)" stroke-dasharray="39.4" stroke-dashoffset="39.4"><animate attributeName="stroke-dashoffset" from="39.4" to="0" dur="1.182s" begin="anim4.end" fill="freeze" id="anim5" /></path><path d="M 46.0 1.4 C 39.1 -0.2 31.5 -3.7 26.3 -7.6 " transform="translate(0.0 38.0)" stroke-dasharray="21.797919826318257" stroke-dashoffset="21.797919826318257"><animate attributeName="stroke-dashoffset" from="21.797919826318257" to="0" dur="0.6539375947895477s" begin="anim5.end" fill="freeze" id="anim6" /></path><path d="M 13.0 -27.6 C 12.0 -28.6 11.0 -29.4 9.9 -30.1 " transform="translate(0.0 38.0)" stroke-dasharray="3.990661076002099" stroke-dashoffset="3.990661076002099"><animate attributeName="stroke-dashoffset" from="3.990661076002099" to="0" dur="0.11971983228006297s" begin="anim6.end" fill="freeze" id="anim7" /></path><path d="M 18.1 -20.1 C 19.1 -21.2 20.1 -22.7 20.8 -24.1 " transform="translate(0.0 38.0)" stroke-dasharray="4.839772523936348" stroke-dashoffset="4.839772523936348"><animate attributeName="stroke-dashoffset" from="4.839772523936348" to="0" dur="0.14519317571809043s" begin="anim7.end" fill="freeze" id="anim8" /></path><path d="M 4.6 -32.1 C 6.9 -34.4 8.9 -37.2 10.6 -40.5 " transform="translate(0.0 38.0)" stroke-dasharray="10.364303043927563" stroke-dashoffset="10.364303043927563"><animate attributeName="stroke-dashoffset" from="10.364303043927563" to="0" dur="0.31092909131782687s" begin="anim8.end" fill="freeze" id="anim9" /></path><path d="M 19.0 -14.2 C 24.8 -17.1 28.6 -22.2 29.3 -28.8 " transform="translate(0.0 38.0)" stroke-dasharray="18.678747272423376" stroke-dashoffset="18.678747272423376"><animate attributeName="stroke-dashoffset" from="18.678747272423376" to="0" dur="0.5603624181727013s" begin="anim9.end" fill="freeze" id="anim10" /></path><path d="M 16.1 -32.9 C 15.3 -34.4 14.6 -35.5 13.6 -36.7 " transform="translate(0.0 38.0)" stroke-dasharray="4.557502786815405" stroke-dashoffset="4.557502786815405"><animate attributeName="stroke-dashoffset" from="4.557502786815405" to="0" dur="0.13672508360446214s" begin="anim10.end" fill="freeze" id="anim11" /></path><path d="M 21.9 -36.8 L 8.8 -36.8 " transform="translate(0.0 38.0)" stroke-dasharray="13.099999999999998" stroke-dashoffset="13.099999999999998"><animate attributeName="stroke-dashoffset" from="13.099999999999998" to="0" dur="0.3929999999999999s" begin="anim11.end" fill="freeze" id="anim12" /></path><path d="M 25.1 -33.4 C 27.1 -35.2 28.9 -37.6 30.5 -40.6 " transform="translate(0.0 38.0)" stroke-dasharray="9.045246623434496" stroke-dashoffset="9.045246623434496"><animate attributeName="stroke-dashoffset" from="9.045246623434496" to="0" dur="0.2713573987030349s" begin="anim12.end" fill="freeze" id="anim13" /></path><path d="M 45.7 -18.8 C 45.1 -19.9 43.9 -21.9 42.8 -23.2 " transform="translate(0.0 38.0)" stroke-dasharray="5.277185840324084" stroke-dashoffset="5.277185840324084"><animate attributeName="stroke-dashoffset" from="5.277185840324084" to="0" dur="0.15831557520972253s" begin="anim13.end" fill="freeze" id="anim14" /></path><path d="M 36.6 -33.0 C 36.0 -34.0 35.1 -35.5 34.0 -36.8 " transform="translate(0.0 38.0)" stroke-dasharray="4.609623713241132" stroke-dashoffset="4.609623713241132"><animate attributeName="stroke-dashoffset" from="4.609623713241132" to="0" dur="0.13828871139723395s" begin="anim14.end" fill="freeze" id="anim15" /></path><path d="M 45.5 -36.8 L 28.0 -36.8" transform="translate(0.0 38.0)" stroke-dasharray="17.5" stroke-dashoffset="17.5"><animate attributeName="stroke-dashoffset" from="17.5" to="0" dur="0.525s" begin="anim15.end" fill="freeze" id="anim_end" /></path></g></svg>