<?xml version='1.0' encoding='utf-8'?>
<svg viewBox="0.0 -6.0 50.0 50.0" version="1.1" xmlns="http://www.w3.org/2000/svg"><rect x="-1000" y="-1000" width="2000" height="2000" stroke="white" fill="white" /><g style="fill:none;stroke:#000000;stroke-width:1"><path d="M 34.6 0.8 C 35.9 1.1 36.9 1.2 37.9 1.2 C 40.8 1.2 42.4 -0.2 43.0 -4.8 C 43.8 -10.8 44.4 -19.8 44.4 -27.8 C 44.4 -30.4 43.2 -31.8 39.8 -31.8 L 23.6 -31.8 " transform="translate(0.0 38.0)" stroke-dasharray="58.48533513826733" stroke-dashoffset="58.48533513826733"><animate attributeName="stroke-dashoffset" from="58.48533513826733" to="0" dur="1.75456005414802s" begin="0s; anim_end.end" fill="freeze" id="anim0" /></path><path d="M 3.9 -4.8 C 8.1 -5.7 13.8 -7.7 17.9 -9.3 " transform="translate(0.0 38.0)" stroke-dasharray="14.718889205709205" stroke-dashoffset="14.718889205709205"><animate attributeName="stroke-dashoffset" from="14.718889205709205" to="0" dur="0.44156667617127615s" begin="anim0.end" fill="freeze" id="anim1" /></path><path d="M 10.6 -6.6 L 10.6 -36.1 " transform="translate(0.0 38.0)" stroke-dasharray="29.5" stroke-dashoffset="29.5"><animate attributeName="stroke-dashoffset" from="29.5" to="0" dur="0.885s" begin="anim1.end" fill="freeze" id="anim2" /></path><path d="M 16.2 -22.5 L 4.5 -22.5 " transform="translate(0.0 38.0)" stroke-dasharray="11.7" stroke-dashoffset="11.7"><animate attributeName="stroke-dashoffset" from="11.7" to="0" dur="0.351s" begin="anim2.end" fill="freeze" id="anim3" /></path><path d="M 27.7 -7.5 L 31.5 -7.5 C 33.9 -7.5 34.8 -8.3 34.8 -10.4 L 34.8 -20.9 C 34.8 -22.9 33.9 -23.8 31.5 -23.8 L 27.7 -23.8 C 25.3 -23.8 24.4 -22.9 24.4 -20.9 L 24.4 -10.4 C 24.4 -8.3 25.3 -7.5 27.7 -7.5 Z " transform="translate(0.0 38.0)" stroke-dasharray="49.048278273869975" stroke-dashoffset="49.048278273869975"><animate attributeName="stroke-dashoffset" from="49.048278273869975" to="0" dur="1.4714483482160992s" begin="anim3.end" fill="freeze" id="anim4" /></path><path d="M 34.5 -15.8 L 24.6 -15.8 " transform="translate(0.0 38.0)" stroke-dasharray="9.899999999999999" stroke-dashoffset="9.899999999999999"><animate attributeName="stroke-dashoffset" from="9.899999999999999" to="0" dur="0.29699999999999993s" begin="anim4.end" fill="freeze" id="anim5" /></path><path d="M 17.0 -36.2 L 3.9 -36.2 " transform="translate(0.0 38.0)" stroke-dasharray="13.1" stroke-dashoffset="13.1"><animate attributeName="stroke-dashoffset" from="13.1" to="0" dur="0.39299999999999996s" begin="anim5.end" fill="freeze" id="anim6" /></path><path d="M 19.6 -26.1 C 22.5 -29.5 25.2 -34.8 26.8 -39.8" transform="translate(0.0 38.0)" stroke-dasharray="15.566784772017034" stroke-dashoffset="15.566784772017034"><animate attributeName="stroke-dashoffset" from="15.566784772017034" to="0" dur="0.467003543160511s" begin="anim6.end" fill="freeze" id="anim_end" /></path></g></svg>