<?xml version='1.0' encoding='utf-8'?>
<svg viewBox="0.0 -6.0 50.0 50.0" version="1.1" xmlns="http://www.w3.org/2000/svg"><rect x="-1000" y="-1000" width="2000" height="2000" stroke="white" fill="white" /><g style="fill:none;stroke:#000000;stroke-width:1"><path d="M 32.4 -11.6 L 40.1 -11.6 C 42.6 -11.6 43.5 -12.3 43.5 -14.2 L 43.5 -19.8 C 43.5 -21.6 42.6 -22.4 40.1 -22.4 L 32.5 -22.4 C 30.1 -22.4 29.2 -21.6 29.2 -19.8 L 29.2 -14.2 C 29.2 -12.3 29.9 -11.6 32.4 -11.6 Z " transform="translate(0.0 38.0)" stroke-dasharray="46.14387584196554" stroke-dashoffset="46.14387584196554"><animate attributeName="stroke-dashoffset" from="46.14387584196554" to="0" dur="1.3843162752589662s" begin="0s; 15s; 30s; 45s" fill="freeze" id="anim0" /></path><path d="M 3.8 1.9 C 7.8 -1.1 10.1 -5.2 10.4 -11.0 " transform="translate(0.0 38.0)" stroke-dasharray="15.01240286616749" stroke-dashoffset="15.01240286616749"><animate attributeName="stroke-dashoffset" from="15.01240286616749" to="0" dur="0.45037208598502465s" begin="anim0.end" fill="freeze" id="anim1" /></path><path d="M 14.0 -1.1 C 16.9 -1.9 20.6 -3.4 23.8 -5.1 " transform="translate(0.0 38.0)" stroke-dasharray="10.603810207964539" stroke-dashoffset="10.603810207964539"><animate attributeName="stroke-dashoffset" from="10.603810207964539" to="0" dur="0.31811430623893616s" begin="anim1.end" fill="freeze" id="anim2" /></path><path d="M 16.4 -2.8 L 16.4 -11.4 " transform="translate(0.0 38.0)" stroke-dasharray="8.600000000000001" stroke-dashoffset="8.600000000000001"><animate attributeName="stroke-dashoffset" from="8.600000000000001" to="0" dur="0.258s" begin="anim2.end" fill="freeze" id="anim3" /></path><path d="M 9.8 -11.6 L 17.0 -11.6 C 19.4 -11.6 20.3 -12.3 20.3 -14.2 L 20.3 -19.8 C 20.3 -21.6 19.4 -22.4 17.0 -22.4 L 9.8 -22.4 C 7.5 -22.4 6.5 -21.6 6.5 -19.8 L 6.5 -14.2 C 6.5 -12.3 7.5 -11.6 9.8 -11.6 Z " transform="translate(0.0 38.0)" stroke-dasharray="45.06225866148782" stroke-dashoffset="45.06225866148782"><animate attributeName="stroke-dashoffset" from="45.06225866148782" to="0" dur="1.3518677598446345s" begin="anim3.end" fill="freeze" id="anim4" /></path><path d="M 19.8 -17.1 L 6.7 -17.1 " transform="translate(0.0 38.0)" stroke-dasharray="13.100000000000001" stroke-dashoffset="13.100000000000001"><animate attributeName="stroke-dashoffset" from="13.100000000000001" to="0" dur="0.393s" begin="anim4.end" fill="freeze" id="anim5" /></path><path d="M 23.4 2.5 C 28.6 0.1 32.3 -4.2 33.0 -10.9 " transform="translate(0.0 38.0)" stroke-dasharray="17.31730528375297" stroke-dashoffset="17.31730528375297"><animate attributeName="stroke-dashoffset" from="17.31730528375297" to="0" dur="0.519519158512589s" begin="anim5.end" fill="freeze" id="anim6" /></path><path d="M 9.6 -30.6 C 9.2 -31.5 8.9 -31.9 8.6 -32.6 " transform="translate(0.0 38.0)" stroke-dasharray="2.2368495701649804" stroke-dashoffset="2.2368495701649804"><animate attributeName="stroke-dashoffset" from="2.2368495701649804" to="0" dur="0.06710548710494942s" begin="anim6.end" fill="freeze" id="anim7" /></path><path d="M 22.9 -27.6 L 3.0 -27.6 " transform="translate(0.0 38.0)" stroke-dasharray="19.9" stroke-dashoffset="19.9"><animate attributeName="stroke-dashoffset" from="19.9" to="0" dur="0.597s" begin="anim7.end" fill="freeze" id="anim8" /></path><path d="M 46.6 -3.0 C 46.4 0.8 44.8 1.8 41.9 1.8 C 39.4 1.8 38.5 1.1 38.5 -0.8 L 38.5 -11.4 " transform="translate(0.0 38.0)" stroke-dasharray="23.320663632484756" stroke-dashoffset="23.320663632484756"><animate attributeName="stroke-dashoffset" from="23.320663632484756" to="0" dur="0.6996199089745426s" begin="anim8.end" fill="freeze" id="anim9" /></path><path d="M 15.8 -27.7 C 16.8 -29.3 17.2 -30.3 17.9 -32.3 " transform="translate(0.0 38.0)" stroke-dasharray="5.070256928066667" stroke-dashoffset="5.070256928066667"><animate attributeName="stroke-dashoffset" from="5.070256928066667" to="0" dur="0.152107707842s" begin="anim9.end" fill="freeze" id="anim10" /></path><path d="M 22.1 -36.3 L 4.8 -36.3 " transform="translate(0.0 38.0)" stroke-dasharray="17.3" stroke-dashoffset="17.3"><animate attributeName="stroke-dashoffset" from="17.3" to="0" dur="0.519s" begin="anim10.end" fill="freeze" id="anim11" /></path><path d="M 13.2 -35.8 L 13.2 -40.6 " transform="translate(0.0 38.0)" stroke-dasharray="4.800000000000004" stroke-dashoffset="4.800000000000004"><animate attributeName="stroke-dashoffset" from="4.800000000000004" to="0" dur="0.14400000000000013s" begin="anim11.end" fill="freeze" id="anim12" /></path><path d="M 43.0 -17.3 L 29.4 -17.3 " transform="translate(0.0 38.0)" stroke-dasharray="13.600000000000001" stroke-dashoffset="13.600000000000001"><animate attributeName="stroke-dashoffset" from="13.600000000000001" to="0" dur="0.40800000000000003s" begin="anim12.end" fill="freeze" id="anim13" /></path><path d="M 32.4 -30.6 C 32.0 -31.5 31.8 -31.9 31.4 -32.6 " transform="translate(0.0 38.0)" stroke-dasharray="2.237325115925737" stroke-dashoffset="2.237325115925737"><animate attributeName="stroke-dashoffset" from="2.237325115925737" to="0" dur="0.0671197534777721s" begin="anim13.end" fill="freeze" id="anim14" /></path><path d="M 46.8 -27.6 L 27.0 -27.6 " transform="translate(0.0 38.0)" stroke-dasharray="19.799999999999997" stroke-dashoffset="19.799999999999997"><animate attributeName="stroke-dashoffset" from="19.799999999999997" to="0" dur="0.5939999999999999s" begin="anim14.end" fill="freeze" id="anim15" /></path><path d="M 39.0 -27.7 C 39.9 -29.3 40.3 -30.3 41.0 -32.3 " transform="translate(0.0 38.0)" stroke-dasharray="5.024322156143979" stroke-dashoffset="5.024322156143979"><animate attributeName="stroke-dashoffset" from="5.024322156143979" to="0" dur="0.15072966468431936s" begin="anim15.end" fill="freeze" id="anim16" /></path><path d="M 45.5 -36.3 L 28.2 -36.3 " transform="translate(0.0 38.0)" stroke-dasharray="17.3" stroke-dashoffset="17.3"><animate attributeName="stroke-dashoffset" from="17.3" to="0" dur="0.519s" begin="anim16.end" fill="freeze" id="anim17" /></path><path d="M 36.1 -35.8 L 36.1 -40.6" transform="translate(0.0 38.0)" stroke-dasharray="4.800000000000004" stroke-dashoffset="4.800000000000004"><animate attributeName="stroke-dashoffset" from="4.800000000000004" to="0" dur="0.14400000000000013s" begin="anim17.end" fill="freeze" id="anim_end" /></path></g></svg>