<?xml version='1.0' encoding='utf-8'?>
<svg viewBox="0.0 -6.0 50.0 50.0" version="1.1" xmlns="http://www.w3.org/2000/svg"><rect x="-1000" y="-1000" width="2000" height="2000" stroke="white" fill="white" /><g style="fill:none;stroke:#000000;stroke-width:1"><path d="M 4.3 -3.4 C 11.2 -7.1 18.6 -13.8 22.7 -20.5 " transform="translate(0.0 38.0)" stroke-dasharray="25.378479514038013" stroke-dashoffset="25.378479514038013"><animate attributeName="stroke-dashoffset" from="25.378479514038013" to="0" dur="0.7613543854211403s" begin="0s; 15s; 30s; 45s" fill="freeze" id="anim0" /></path><path d="M 33.7 -4.9 L 15.9 -4.9 " transform="translate(0.0 38.0)" stroke-dasharray="17.800000000000004" stroke-dashoffset="17.800000000000004"><animate attributeName="stroke-dashoffset" from="17.800000000000004" to="0" dur="0.5340000000000001s" begin="anim0.end" fill="freeze" id="anim1" /></path><path d="M 24.9 3.0 L 24.9 -27.6 " transform="translate(0.0 38.0)" stroke-dasharray="30.6" stroke-dashoffset="30.6"><animate attributeName="stroke-dashoffset" from="30.6" to="0" dur="0.918s" begin="anim1.end" fill="freeze" id="anim2" /></path><path d="M 4.5 -29.2 C 7.2 -32.0 9.6 -36.0 11.2 -39.9 " transform="translate(0.0 38.0)" stroke-dasharray="12.69438924590445" stroke-dashoffset="12.69438924590445"><animate attributeName="stroke-dashoffset" from="12.69438924590445" to="0" dur="0.38083167737713347s" begin="anim2.end" fill="freeze" id="anim3" /></path><path d="M 16.6 -29.4 C 15.8 -31.3 14.9 -32.9 13.8 -34.5 " transform="translate(0.0 38.0)" stroke-dasharray="5.8286494297423035" stroke-dashoffset="5.8286494297423035"><animate attributeName="stroke-dashoffset" from="5.8286494297423035" to="0" dur="0.1748594828922691s" begin="anim3.end" fill="freeze" id="anim4" /></path><path d="M 44.9 -21.9 L 5.3 -21.9 " transform="translate(0.0 38.0)" stroke-dasharray="39.6" stroke-dashoffset="39.6"><animate attributeName="stroke-dashoffset" from="39.6" to="0" dur="1.188s" begin="anim4.end" fill="freeze" id="anim5" /></path><path d="M 45.5 -4.5 C 38.8 -7.5 31.1 -13.8 26.9 -20.4 " transform="translate(0.0 38.0)" stroke-dasharray="24.77171888482012" stroke-dashoffset="24.77171888482012"><animate attributeName="stroke-dashoffset" from="24.77171888482012" to="0" dur="0.7431515665446036s" begin="anim5.end" fill="freeze" id="anim6" /></path><path d="M 22.2 -34.7 L 9.1 -34.7 " transform="translate(0.0 38.0)" stroke-dasharray="13.1" stroke-dashoffset="13.1"><animate attributeName="stroke-dashoffset" from="13.1" to="0" dur="0.39299999999999996s" begin="anim6.end" fill="freeze" id="anim7" /></path><path d="M 25.9 -31.4 C 27.9 -33.7 29.7 -36.8 30.9 -39.9 " transform="translate(0.0 38.0)" stroke-dasharray="9.907895292428206" stroke-dashoffset="9.907895292428206"><animate attributeName="stroke-dashoffset" from="9.907895292428206" to="0" dur="0.29723685877284617s" begin="anim7.end" fill="freeze" id="anim8" /></path><path d="M 37.0 -29.6 C 36.4 -31.1 35.2 -33.0 34.0 -34.6 " transform="translate(0.0 38.0)" stroke-dasharray="5.845505959235313" stroke-dashoffset="5.845505959235313"><animate attributeName="stroke-dashoffset" from="5.845505959235313" to="0" dur="0.17536517877705937s" begin="anim8.end" fill="freeze" id="anim9" /></path><path d="M 45.6 -34.7 L 28.3 -34.7" transform="translate(0.0 38.0)" stroke-dasharray="17.3" stroke-dashoffset="17.3"><animate attributeName="stroke-dashoffset" from="17.3" to="0" dur="0.519s" begin="anim9.end" fill="freeze" id="anim_end" /></path></g></svg>