<?xml version='1.0' encoding='utf-8'?>
<svg viewBox="0.0 -6.0 50.0 50.0" version="1.1" xmlns="http://www.w3.org/2000/svg"><rect x="-1000" y="-1000" width="2000" height="2000" stroke="white" fill="white" /><g style="fill:none;stroke:#000000;stroke-width:1"><path d="M 20.6 -16.1 C 23.9 -19.3 27.6 -24.0 30.3 -28.1 " transform="translate(0.0 38.0)" stroke-dasharray="15.457084800962384" stroke-dashoffset="15.457084800962384"><animate attributeName="stroke-dashoffset" from="15.457084800962384" to="0" dur="0.4637125440288715s" begin="0s; 15s; 30s; 45s" fill="freeze" id="anim0" /></path><path d="M 5.0 -14.9 C 8.2 -16.4 11.7 -18.3 14.3 -20.2 " transform="translate(0.0 38.0)" stroke-dasharray="10.719331953202964" stroke-dashoffset="10.719331953202964"><animate attributeName="stroke-dashoffset" from="10.719331953202964" to="0" dur="0.3215799585960889s" begin="anim0.end" fill="freeze" id="anim1" /></path><path d="M 24.9 2.8 L 24.9 -15.1 " transform="translate(0.0 38.0)" stroke-dasharray="17.9" stroke-dashoffset="17.9"><animate attributeName="stroke-dashoffset" from="17.9" to="0" dur="0.5369999999999999s" begin="anim1.end" fill="freeze" id="anim2" /></path><path d="M 46.2 -8.0 L 3.8 -8.0 " transform="translate(0.0 38.0)" stroke-dasharray="42.400000000000006" stroke-dashoffset="42.400000000000006"><animate attributeName="stroke-dashoffset" from="42.400000000000006" to="0" dur="1.272s" begin="anim2.end" fill="freeze" id="anim3" /></path><path d="M 11.8 -26.4 C 10.6 -27.6 9.1 -29.1 7.9 -30.0 " transform="translate(0.0 38.0)" stroke-dasharray="5.311513700531776" stroke-dashoffset="5.311513700531776"><animate attributeName="stroke-dashoffset" from="5.311513700531776" to="0" dur="0.1593454110159533s" begin="anim3.end" fill="freeze" id="anim4" /></path><path d="M 16.0 -14.9 C 21.4 -15.2 27.1 -15.6 33.0 -16.4 " transform="translate(0.0 38.0)" stroke-dasharray="17.070688186853587" stroke-dashoffset="17.070688186853587"><animate attributeName="stroke-dashoffset" from="17.070688186853587" to="0" dur="0.5121206456056075s" begin="anim4.end" fill="freeze" id="anim5" /></path><path d="M 24.9 -21.4 C 22.7 -23.9 19.7 -26.4 17.9 -27.9 " transform="translate(0.0 38.0)" stroke-dasharray="9.561881103642603" stroke-dashoffset="9.561881103642603"><animate attributeName="stroke-dashoffset" from="9.561881103642603" to="0" dur="0.2868564331092781s" begin="anim5.end" fill="freeze" id="anim6" /></path><path d="M 34.2 -14.6 C 33.1 -16.5 31.9 -18.4 30.8 -19.8 " transform="translate(0.0 38.0)" stroke-dasharray="6.21761189337461" stroke-dashoffset="6.21761189337461"><animate attributeName="stroke-dashoffset" from="6.21761189337461" to="0" dur="0.18652835680123828s" begin="anim6.end" fill="freeze" id="anim7" /></path><path d="M 21.1 -27.1 C 22.6 -28.8 24.0 -30.9 25.0 -32.6 " transform="translate(0.0 38.0)" stroke-dasharray="6.751992283673573" stroke-dashoffset="6.751992283673573"><animate attributeName="stroke-dashoffset" from="6.751992283673573" to="0" dur="0.20255976851020718s" begin="anim7.end" fill="freeze" id="anim8" /></path><path d="M 44.5 -15.1 C 42.5 -16.9 40.0 -18.7 38.0 -19.9 " transform="translate(0.0 38.0)" stroke-dasharray="8.09137091693612" stroke-dashoffset="8.09137091693612"><animate attributeName="stroke-dashoffset" from="8.09137091693612" to="0" dur="0.24274112750808358s" begin="anim8.end" fill="freeze" id="anim9" /></path><path d="M 45.2 -35.8 L 4.9 -35.8 " transform="translate(0.0 38.0)" stroke-dasharray="40.300000000000004" stroke-dashoffset="40.300000000000004"><animate attributeName="stroke-dashoffset" from="40.300000000000004" to="0" dur="1.209s" begin="anim9.end" fill="freeze" id="anim10" /></path><path d="M 24.8 -35.8 L 24.8 -40.8 " transform="translate(0.0 38.0)" stroke-dasharray="5.0" stroke-dashoffset="5.0"><animate attributeName="stroke-dashoffset" from="5.0" to="0" dur="0.15s" begin="anim10.end" fill="freeze" id="anim11" /></path><path d="M 36.1 -25.3 C 38.1 -26.7 40.4 -28.6 42.0 -30.4" transform="translate(0.0 38.0)" stroke-dasharray="7.814615064220444" stroke-dashoffset="7.814615064220444"><animate attributeName="stroke-dashoffset" from="7.814615064220444" to="0" dur="0.2344384519266133s" begin="anim11.end" fill="freeze" id="anim_end" /></path></g></svg>