<?xml version='1.0' encoding='utf-8'?>
<svg viewBox="0.0 -6.0 50.0 50.0" version="1.1" xmlns="http://www.w3.org/2000/svg"><rect x="-1000" y="-1000" width="2000" height="2000" stroke="white" fill="white" /><g style="fill:none;stroke:#000000;stroke-width:1"><path d="M 15.1 1.4 C 22.9 -3.4 27.2 -10.4 27.2 -22.1 L 27.2 -25.8 " transform="translate(0.0 38.0)" stroke-dasharray="31.50596314137504" stroke-dashoffset="31.50596314137504"><animate attributeName="stroke-dashoffset" from="31.50596314137504" to="0" dur="0.9451788942412512s" begin="0s" fill="freeze" /></path><path d="M 3.6 -6.2 C 7.8 -7.2 13.6 -9.2 17.6 -10.8 " transform="translate(0.0 38.0)" stroke-dasharray="14.747208317252511" stroke-dashoffset="14.747208317252511"><animate attributeName="stroke-dashoffset" from="14.747208317252511" to="0" dur="0.4424162495175753s" begin="0.9451788942412512s" fill="freeze" /></path><path d="M 10.3 -8.1 L 10.3 -36.1 " transform="translate(0.0 38.0)" stroke-dasharray="28.0" stroke-dashoffset="28.0"><animate attributeName="stroke-dashoffset" from="28.0" to="0" dur="0.84s" begin="1.3875951437588265s" fill="freeze" /></path><path d="M 16.0 -23.2 L 4.3 -23.2 " transform="translate(0.0 38.0)" stroke-dasharray="11.7" stroke-dashoffset="11.7"><animate attributeName="stroke-dashoffset" from="11.7" to="0" dur="0.351s" begin="2.2275951437588266s" fill="freeze" /></path><path d="M 16.8 -36.2 L 3.6 -36.2 " transform="translate(0.0 38.0)" stroke-dasharray="13.200000000000001" stroke-dashoffset="13.200000000000001"><animate attributeName="stroke-dashoffset" from="13.200000000000001" to="0" dur="0.396s" begin="2.5785951437588266s" fill="freeze" /></path><path d="M 46.1 -5.0 C 45.6 -0.8 44.4 0.3 40.4 0.3 C 37.0 0.3 36.0 -0.3 36.0 -2.5 L 36.0 -25.9 " transform="translate(0.0 38.0)" stroke-dasharray="38.477120032267464" stroke-dashoffset="38.477120032267464"><animate attributeName="stroke-dashoffset" from="38.477120032267464" to="0" dur="1.154313600968024s" begin="2.9745951437588265s" fill="freeze" /></path><path d="M 45.8 -25.4 L 20.1 -25.4 " transform="translate(0.0 38.0)" stroke-dasharray="25.699999999999996" stroke-dashoffset="25.699999999999996"><animate attributeName="stroke-dashoffset" from="25.699999999999996" to="0" dur="0.7709999999999998s" begin="4.12890874472685s" fill="freeze" /></path><path d="M 42.0 -36.9 L 23.4 -36.9" transform="translate(0.0 38.0)" stroke-dasharray="18.6" stroke-dashoffset="18.6"><animate attributeName="stroke-dashoffset" from="18.6" to="0" dur="0.558s" begin="4.89990874472685s" fill="freeze" /></path></g></svg>