<?xml version='1.0' encoding='utf-8'?>
<svg viewBox="0.0 -6.0 50.0 50.0" version="1.1" xmlns="http://www.w3.org/2000/svg"><rect x="-1000" y="-1000" width="2000" height="2000" stroke="white" fill="white" /><g style="fill:none;stroke:#000000;stroke-width:1"><path d="M 26.5 2.1 L 39.0 2.1 C 41.9 2.1 42.9 1.2 42.9 -0.8 L 42.9 -7.7 C 42.9 -9.8 41.9 -10.7 39.0 -10.7 L 26.5 -10.7 C 23.4 -10.7 22.2 -9.8 22.2 -7.7 L 22.2 -0.8 C 22.2 1.2 23.4 2.1 26.5 2.1 Z " transform="translate(0.0 38.0)" stroke-dasharray="62.12257866974534" stroke-dashoffset="62.12257866974534"><animate attributeName="stroke-dashoffset" from="62.12257866974534" to="0" dur="1.86367736009236s" begin="0s; anim_end.end" fill="freeze" id="anim0" /></path><path d="M 4.2 -8.8 C 7.9 -9.5 11.8 -10.7 16.1 -12.3 " transform="translate(0.0 38.0)" stroke-dasharray="12.418762698680027" stroke-dashoffset="12.418762698680027"><animate attributeName="stroke-dashoffset" from="12.418762698680027" to="0" dur="0.3725628809604008s" begin="anim0.end" fill="freeze" id="anim1" /></path><path d="M 5.5 1.9 C 6.2 2.0 7.2 2.1 8.2 2.1 C 10.1 2.1 11.1 1.4 11.1 -0.9 L 11.1 -28.9 " transform="translate(0.0 38.0)" stroke-dasharray="35.563559812741936" stroke-dashoffset="35.563559812741936"><animate attributeName="stroke-dashoffset" from="35.563559812741936" to="0" dur="1.066906794382258s" begin="anim1.end" fill="freeze" id="anim2" /></path><path d="M 16.4 -21.5 L 4.7 -21.5 " transform="translate(0.0 38.0)" stroke-dasharray="11.7" stroke-dashoffset="11.7"><animate attributeName="stroke-dashoffset" from="11.7" to="0" dur="0.351s" begin="anim2.end" fill="freeze" id="anim3" /></path><path d="M 32.3 1.1 L 32.3 -10.2 " transform="translate(0.0 38.0)" stroke-dasharray="11.299999999999999" stroke-dashoffset="11.299999999999999"><animate attributeName="stroke-dashoffset" from="11.299999999999999" to="0" dur="0.33899999999999997s" begin="anim3.end" fill="freeze" id="anim4" /></path><path d="M 42.4 -4.4 L 22.9 -4.4 " transform="translate(0.0 38.0)" stroke-dasharray="19.5" stroke-dashoffset="19.5"><animate attributeName="stroke-dashoffset" from="19.5" to="0" dur="0.585s" begin="anim4.end" fill="freeze" id="anim5" /></path><path d="M 19.4 -15.3 C 22.1 -16.1 25.6 -17.1 29.1 -18.8 " transform="translate(0.0 38.0)" stroke-dasharray="10.325142884241755" stroke-dashoffset="10.325142884241755"><animate attributeName="stroke-dashoffset" from="10.325142884241755" to="0" dur="0.3097542865272526s" begin="anim5.end" fill="freeze" id="anim6" /></path><path d="M 4.5 -31.1 C 7.0 -33.5 9.2 -36.8 10.8 -40.3 " transform="translate(0.0 38.0)" stroke-dasharray="11.213702370615454" stroke-dashoffset="11.213702370615454"><animate attributeName="stroke-dashoffset" from="11.213702370615454" to="0" dur="0.33641107111846363s" begin="anim6.end" fill="freeze" id="anim7" /></path><path d="M 21.4 -16.4 L 21.4 -26.3 " transform="translate(0.0 38.0)" stroke-dasharray="9.900000000000002" stroke-dashoffset="9.900000000000002"><animate attributeName="stroke-dashoffset" from="9.900000000000002" to="0" dur="0.29700000000000004s" begin="anim7.end" fill="freeze" id="anim8" /></path><path d="M 16.3 -31.7 C 15.5 -33.3 14.8 -34.5 13.7 -36.0 " transform="translate(0.0 38.0)" stroke-dasharray="5.031818786861633" stroke-dashoffset="5.031818786861633"><animate attributeName="stroke-dashoffset" from="5.031818786861633" to="0" dur="0.150954563605849s" begin="anim8.end" fill="freeze" id="anim9" /></path><path d="M 30.5 -17.9 C 29.6 -19.4 28.4 -21.1 27.4 -22.3 " transform="translate(0.0 38.0)" stroke-dasharray="5.3870496198052855" stroke-dashoffset="5.3870496198052855"><animate attributeName="stroke-dashoffset" from="5.3870496198052855" to="0" dur="0.16161148859415855s" begin="anim9.end" fill="freeze" id="anim10" /></path><path d="M 22.1 -36.0 L 8.8 -36.0 " transform="translate(0.0 38.0)" stroke-dasharray="13.3" stroke-dashoffset="13.3"><animate attributeName="stroke-dashoffset" from="13.3" to="0" dur="0.399s" begin="anim10.end" fill="freeze" id="anim11" /></path><path d="M 31.9 -14.2 C 35.4 -16.9 37.8 -20.9 38.1 -26.4 " transform="translate(0.0 38.0)" stroke-dasharray="14.140710684725839" stroke-dashoffset="14.140710684725839"><animate attributeName="stroke-dashoffset" from="14.140710684725839" to="0" dur="0.42422132054177514s" begin="anim11.end" fill="freeze" id="anim12" /></path><path d="M 21.9 -25.4 C 24.6 -26.2 28.0 -27.4 30.2 -28.5 " transform="translate(0.0 38.0)" stroke-dasharray="8.869448964551214" stroke-dashoffset="8.869448964551214"><animate attributeName="stroke-dashoffset" from="8.869448964551214" to="0" dur="0.2660834689365364s" begin="anim12.end" fill="freeze" id="anim13" /></path><path d="M 39.1 -15.0 C 39.9 -14.8 40.4 -14.8 41.0 -14.8 C 42.8 -14.8 43.8 -15.4 44.4 -17.6 C 44.9 -19.6 45.1 -21.6 45.2 -24.2 C 45.2 -25.6 44.5 -26.4 42.5 -26.4 L 33.6 -26.4 " transform="translate(0.0 38.0)" stroke-dasharray="26.354091388109886" stroke-dashoffset="26.354091388109886"><animate attributeName="stroke-dashoffset" from="26.354091388109886" to="0" dur="0.7906227416432966s" begin="anim13.end" fill="freeze" id="anim14" /></path><path d="M 24.8 -31.8 C 26.9 -34.0 29.1 -37.1 30.6 -40.4 " transform="translate(0.0 38.0)" stroke-dasharray="10.418640344302293" stroke-dashoffset="10.418640344302293"><animate attributeName="stroke-dashoffset" from="10.418640344302293" to="0" dur="0.3125592103290688s" begin="anim14.end" fill="freeze" id="anim15" /></path><path d="M 36.8 -31.9 C 36.1 -33.0 35.1 -34.6 34.0 -36.0 " transform="translate(0.0 38.0)" stroke-dasharray="4.967075253517302" stroke-dashoffset="4.967075253517302"><animate attributeName="stroke-dashoffset" from="4.967075253517302" to="0" dur="0.14901225760551903s" begin="anim15.end" fill="freeze" id="anim16" /></path><path d="M 45.5 -36.0 L 28.1 -36.0" transform="translate(0.0 38.0)" stroke-dasharray="17.4" stroke-dashoffset="17.4"><animate attributeName="stroke-dashoffset" from="17.4" to="0" dur="0.5219999999999999s" begin="anim16.end" fill="freeze" id="anim_end" /></path></g></svg>