<?xml version='1.0' encoding='utf-8'?>
<svg viewBox="0.0 -6.0 50.0 50.0" version="1.1" xmlns="http://www.w3.org/2000/svg"><rect x="-1000" y="-1000" width="2000" height="2000" stroke="white" fill="white" /><g style="fill:none;stroke:#000000;stroke-width:1"><path d="M 9.6 -8.5 L 19.1 -8.5 C 21.9 -8.5 23.1 -9.6 23.1 -12.2 L 23.1 -34.0 C 23.1 -36.6 21.9 -37.7 19.1 -37.7 L 9.6 -37.7 C 6.8 -37.7 5.7 -36.6 5.7 -34.0 L 5.7 -12.2 C 5.7 -9.6 6.8 -8.5 9.6 -8.5 Z " transform="translate(0.0 38.0)" stroke-dasharray="87.73112842870856" stroke-dashoffset="87.73112842870856"><animate attributeName="stroke-dashoffset" from="87.73112842870856" to="0" dur="2.631933852861257s" begin="0s" fill="freeze" /></path><path d="M 14.2 -8.8 L 14.2 -36.9 " transform="translate(0.0 38.0)" stroke-dasharray="28.099999999999998" stroke-dashoffset="28.099999999999998"><animate attributeName="stroke-dashoffset" from="28.099999999999998" to="0" dur="0.8429999999999999s" begin="2.631933852861257s" fill="freeze" /></path><path d="M 22.8 -23.8 L 6.0 -23.8 " transform="translate(0.0 38.0)" stroke-dasharray="16.8" stroke-dashoffset="16.8"><animate attributeName="stroke-dashoffset" from="16.8" to="0" dur="0.504s" begin="3.4749338528612568s" fill="freeze" /></path><path d="M 31.2 1.2 C 32.2 1.4 33.1 1.6 34.3 1.6 C 36.8 1.6 37.9 0.6 37.9 -1.9 L 37.9 -31.5 " transform="translate(0.0 38.0)" stroke-dasharray="38.55956265217023" stroke-dashoffset="38.55956265217023"><animate attributeName="stroke-dashoffset" from="38.55956265217023" to="0" dur="1.1567868795651068s" begin="3.978933852861257s" fill="freeze" /></path><path d="M 46.7 -32.0 L 23.8 -32.0" transform="translate(0.0 38.0)" stroke-dasharray="22.900000000000002" stroke-dashoffset="22.900000000000002"><animate attributeName="stroke-dashoffset" from="22.900000000000002" to="0" dur="0.687s" begin="5.135720732426364s" fill="freeze" /></path></g></svg>