<?xml version='1.0' encoding='utf-8'?>
<svg viewBox="0.0 -6.0 50.0 50.0" version="1.1" xmlns="http://www.w3.org/2000/svg"><rect x="-1000" y="-1000" width="2000" height="2000" stroke="white" fill="white" /><g style="fill:none;stroke:#000000;stroke-width:1"><path d="M 15.2 0.8 C 18.1 -5.4 19.8 -13.3 19.8 -27.1 L 19.8 -36.8 C 19.8 -38.6 20.6 -39.5 23.5 -39.5 L 41.1 -39.5 C 43.4 -39.5 44.1 -39.0 44.1 -37.4 L 44.1 -35.9 C 44.1 -34.4 43.4 -33.9 41.1 -33.9 L 20.5 -33.9 " transform="translate(0.0 38.0)" stroke-dasharray="91.69713194262157" stroke-dashoffset="91.69713194262157"><animate attributeName="stroke-dashoffset" from="91.69713194262157" to="0" dur="2.750913958278647s" begin="0s" fill="freeze" /></path><path d="M 12.6 -16.1 L 5.1 -16.1 " transform="translate(0.0 38.0)" stroke-dasharray="7.5" stroke-dashoffset="7.5"><animate attributeName="stroke-dashoffset" from="7.5" to="0" dur="0.22499999999999998s" begin="2.750913958278647s" fill="freeze" /></path><path d="M 7.8 -3.2 L 10.2 -3.2 C 12.2 -3.2 13.0 -4.0 13.0 -6.4 L 13.0 -35.4 C 13.0 -37.7 12.2 -38.5 10.2 -38.5 L 7.8 -38.5 C 5.8 -38.5 5.0 -37.7 5.0 -35.4 L 5.0 -6.4 C 5.0 -4.0 5.8 -3.2 7.8 -3.2 Z " transform="translate(0.0 38.0)" stroke-dasharray="82.49900027199261" stroke-dashoffset="82.49900027199261"><animate attributeName="stroke-dashoffset" from="82.49900027199261" to="0" dur="2.4749700081597785s" begin="2.975913958278647s" fill="freeze" /></path><path d="M 23.4 0.3 C 28.1 0.0 34.0 -0.6 39.4 -1.4 " transform="translate(0.0 38.0)" stroke-dasharray="16.09433256817909" stroke-dashoffset="16.09433256817909"><animate attributeName="stroke-dashoffset" from="16.09433256817909" to="0" dur="0.4828299770453727s" begin="5.450883966438425s" fill="freeze" /></path><path d="M 12.6 -27.1 L 5.1 -27.1 " transform="translate(0.0 38.0)" stroke-dasharray="7.5" stroke-dashoffset="7.5"><animate attributeName="stroke-dashoffset" from="7.5" to="0" dur="0.22499999999999998s" begin="5.933713943483798s" fill="freeze" /></path><path d="M 23.1 -9.3 C 25.2 -10.9 27.1 -13.0 28.9 -15.3 " transform="translate(0.0 38.0)" stroke-dasharray="8.367636795771626" stroke-dashoffset="8.367636795771626"><animate attributeName="stroke-dashoffset" from="8.367636795771626" to="0" dur="0.25102910387314875s" begin="6.158713943483797s" fill="freeze" /></path><path d="M 32.6 -0.9 L 32.6 -12.8 " transform="translate(0.0 38.0)" stroke-dasharray="11.9" stroke-dashoffset="11.9"><animate attributeName="stroke-dashoffset" from="11.9" to="0" dur="0.357s" begin="6.4097430473569466s" fill="freeze" /></path><path d="M 37.0 -9.4 L 28.4 -9.4 C 26.7 -9.4 26.1 -8.8 26.1 -7.8 L 26.1 -6.4 C 26.1 -5.4 26.7 -4.8 28.4 -4.8 L 37.0 -4.8 C 38.8 -4.8 39.3 -5.4 39.3 -6.4 L 39.3 -7.8 C 39.3 -8.8 38.8 -9.4 37.0 -9.4 Z " transform="translate(0.0 38.0)" stroke-dasharray="32.84482512653197" stroke-dashoffset="32.84482512653197"><animate attributeName="stroke-dashoffset" from="32.84482512653197" to="0" dur="0.9853447537959591s" begin="6.766743047356947s" fill="freeze" /></path><path d="M 40.1 -0.7 C 39.5 -1.7 39.0 -2.5 38.3 -3.2 " transform="translate(0.0 38.0)" stroke-dasharray="3.0888803889252037" stroke-dashoffset="3.0888803889252037"><animate attributeName="stroke-dashoffset" from="3.0888803889252037" to="0" dur="0.0926664116677561s" begin="7.752087801152906s" fill="freeze" /></path><path d="M 37.8 2.2 C 38.7 2.4 39.3 2.5 40.2 2.5 C 42.4 2.5 43.6 1.6 44.3 -1.0 C 44.9 -3.4 45.4 -7.0 45.4 -10.5 C 45.4 -12.4 44.6 -13.3 42.2 -13.3 L 27.5 -13.3 " transform="translate(0.0 38.0)" stroke-dasharray="37.58991506197079" stroke-dashoffset="37.58991506197079"><animate attributeName="stroke-dashoffset" from="37.58991506197079" to="0" dur="1.1276974518591236s" begin="7.844754212820662s" fill="freeze" /></path><path d="M 29.6 -26.4 L 24.6 -26.4 " transform="translate(0.0 38.0)" stroke-dasharray="5.0" stroke-dashoffset="5.0"><animate attributeName="stroke-dashoffset" from="5.0" to="0" dur="0.15s" begin="8.972451664679786s" fill="freeze" /></path><path d="M 27.4 -17.6 L 41.9 -17.6 C 43.6 -17.6 44.2 -18.3 44.2 -19.5 L 44.2 -21.1 C 44.2 -22.2 43.6 -22.9 41.9 -22.9 L 27.4 -22.9 C 25.6 -22.9 25.1 -22.2 25.1 -21.1 L 25.1 -19.5 C 25.1 -18.3 25.6 -17.6 27.4 -17.6 Z " transform="translate(0.0 38.0)" stroke-dasharray="45.80991474354963" stroke-dashoffset="45.80991474354963"><animate attributeName="stroke-dashoffset" from="45.80991474354963" to="0" dur="1.3742974423064889s" begin="9.122451664679787s" fill="freeze" /></path><path d="M 29.6 -30.1 L 24.6 -30.1 " transform="translate(0.0 38.0)" stroke-dasharray="5.0" stroke-dashoffset="5.0"><animate attributeName="stroke-dashoffset" from="5.0" to="0" dur="0.15s" begin="10.496749106986275s" fill="freeze" /></path><path d="M 33.8 -26.1 L 33.8 -33.0 " transform="translate(0.0 38.0)" stroke-dasharray="6.899999999999999" stroke-dashoffset="6.899999999999999"><animate attributeName="stroke-dashoffset" from="6.899999999999999" to="0" dur="0.20699999999999996s" begin="10.646749106986276s" fill="freeze" /></path><path d="M 43.7 -26.4 L 38.1 -26.4 " transform="translate(0.0 38.0)" stroke-dasharray="5.600000000000001" stroke-dashoffset="5.600000000000001"><animate attributeName="stroke-dashoffset" from="5.600000000000001" to="0" dur="0.16800000000000004s" begin="10.853749106986276s" fill="freeze" /></path><path d="M 43.7 -30.1 L 38.1 -30.1 " transform="translate(0.0 38.0)" stroke-dasharray="5.600000000000001" stroke-dashoffset="5.600000000000001"><animate attributeName="stroke-dashoffset" from="5.600000000000001" to="0" dur="0.16800000000000004s" begin="11.021749106986276s" fill="freeze" /></path><path d="M 31.6 -22.6 L 31.6 -18.1 " transform="translate(0.0 38.0)" stroke-dasharray="4.5" stroke-dashoffset="4.5"><animate attributeName="stroke-dashoffset" from="4.5" to="0" dur="0.135s" begin="11.189749106986275s" fill="freeze" /></path><path d="M 37.7 -22.6 L 37.7 -18.1" transform="translate(0.0 38.0)" stroke-dasharray="4.5" stroke-dashoffset="4.5"><animate attributeName="stroke-dashoffset" from="4.5" to="0" dur="0.135s" begin="11.324749106986275s" fill="freeze" /></path></g></svg>