<?xml version='1.0' encoding='utf-8'?>
<svg viewBox="0.0 -6.0 50.0 50.0" version="1.1" xmlns="http://www.w3.org/2000/svg"><rect x="-1000" y="-1000" width="2000" height="2000" stroke="white" fill="white" /><g style="fill:none;stroke:#000000;stroke-width:1"><path d="M 43.9 -19.9 L 28.6 -19.9 C 26.1 -19.9 24.8 -20.9 24.8 -23.6 L 24.8 -39.8 " transform="translate(0.0 38.0)" stroke-dasharray="37.637331037836475" stroke-dashoffset="37.637331037836475"><animate attributeName="stroke-dashoffset" from="37.637331037836475" to="0" dur="1.1291199311350941s" begin="0s" fill="freeze" /></path><path d="M 15.1 2.5 L 15.1 -12.2 C 15.1 -14.3 14.2 -15.4 11.7 -15.4 L 6.4 -15.4 " transform="translate(0.0 38.0)" stroke-dasharray="25.405007326527006" stroke-dashoffset="25.405007326527006"><animate attributeName="stroke-dashoffset" from="25.405007326527006" to="0" dur="0.7621502197958101s" begin="1.1291199311350941s" fill="freeze" /></path><path d="M 3.0 1.2 C 5.3 -3.9 6.5 -11.9 6.5 -24.6 L 6.5 -39.1 " transform="translate(0.0 38.0)" stroke-dasharray="40.70531337086997" stroke-dashoffset="40.70531337086997"><animate attributeName="stroke-dashoffset" from="40.70531337086997" to="0" dur="1.221159401126099s" begin="1.8912701509309042s" fill="freeze" /></path><path d="M 19.8 -0.3 C 24.1 -3.0 28.2 -7.1 30.9 -11.1 " transform="translate(0.0 38.0)" stroke-dasharray="15.590618601623067" stroke-dashoffset="15.590618601623067"><animate attributeName="stroke-dashoffset" from="15.590618601623067" to="0" dur="0.467718558048692s" begin="3.1124295520570033s" fill="freeze" /></path><path d="M 18.2 -25.9 L 6.3 -25.9 " transform="translate(0.0 38.0)" stroke-dasharray="11.899999999999999" stroke-dashoffset="11.899999999999999"><animate attributeName="stroke-dashoffset" from="11.899999999999999" to="0" dur="0.35699999999999993s" begin="3.5801481101056956s" fill="freeze" /></path><path d="M 32.6 2.5 L 32.6 -19.0 " transform="translate(0.0 38.0)" stroke-dasharray="21.5" stroke-dashoffset="21.5"><animate attributeName="stroke-dashoffset" from="21.5" to="0" dur="0.645s" begin="3.9371481101056953s" fill="freeze" /></path><path d="M 45.2 -12.4 L 21.6 -12.4 " transform="translate(0.0 38.0)" stroke-dasharray="23.6" stroke-dashoffset="23.6"><animate attributeName="stroke-dashoffset" from="23.6" to="0" dur="0.708s" begin="4.582148110105695s" fill="freeze" /></path><path d="M 46.4 -0.9 C 41.7 -3.1 36.3 -7.7 33.6 -11.9 " transform="translate(0.0 38.0)" stroke-dasharray="17.062238231079373" stroke-dashoffset="17.062238231079373"><animate attributeName="stroke-dashoffset" from="17.062238231079373" to="0" dur="0.5118671469323812s" begin="5.2901481101056955s" fill="freeze" /></path><path d="M 14.1 -25.9 L 14.1 -40.2 " transform="translate(0.0 38.0)" stroke-dasharray="14.300000000000004" stroke-dashoffset="14.300000000000004"><animate attributeName="stroke-dashoffset" from="14.300000000000004" to="0" dur="0.4290000000000001s" begin="5.802015257038077s" fill="freeze" /></path><path d="M 46.5 -33.7 L 19.6 -33.7 " transform="translate(0.0 38.0)" stroke-dasharray="26.9" stroke-dashoffset="26.9"><animate attributeName="stroke-dashoffset" from="26.9" to="0" dur="0.8069999999999999s" begin="6.231015257038077s" fill="freeze" /></path><path d="M 32.8 -40.2 L 32.8 -28.4 C 32.8 -26.6 33.6 -25.9 35.2 -25.9 L 38.0 -25.9 C 39.6 -25.9 40.4 -26.6 40.4 -28.4 L 40.4 -40.2" transform="translate(0.0 38.0)" stroke-dasharray="34.418212768292854" stroke-dashoffset="34.418212768292854"><animate attributeName="stroke-dashoffset" from="34.418212768292854" to="0" dur="1.0325463830487855s" begin="7.038015257038078s" fill="freeze" /></path></g></svg>