<?xml version='1.0' encoding='utf-8'?>
<svg viewBox="0.0 -6.0 50.0 50.0" version="1.1" xmlns="http://www.w3.org/2000/svg"><rect x="-1000" y="-1000" width="2000" height="2000" stroke="white" fill="white" /><g style="fill:none;stroke:#000000;stroke-width:1"><path d="M 6.7 3.0 C 13.8 -0.3 17.4 -5.0 17.4 -14.2 L 17.4 -22.0 " transform="translate(0.0 38.0)" stroke-dasharray="29.48699533306795" stroke-dashoffset="29.48699533306795"><animate attributeName="stroke-dashoffset" from="29.48699533306795" to="0" dur="0.8846098599920384s" begin="0s" fill="freeze" /></path><path d="M 45.6 -8.2 L 4.5 -8.2 " transform="translate(0.0 38.0)" stroke-dasharray="41.1" stroke-dashoffset="41.1"><animate attributeName="stroke-dashoffset" from="41.1" to="0" dur="1.233s" begin="0.8846098599920384s" fill="freeze" /></path><path d="M 31.4 2.6 L 31.4 -22.1 " transform="translate(0.0 38.0)" stroke-dasharray="24.700000000000003" stroke-dashoffset="24.700000000000003"><animate attributeName="stroke-dashoffset" from="24.700000000000003" to="0" dur="0.7410000000000001s" begin="2.1176098599920383s" fill="freeze" /></path><path d="M 6.5 -23.5 C 11.9 -25.3 16.8 -28.8 19.1 -33.2 " transform="translate(0.0 38.0)" stroke-dasharray="16.27502766232452" stroke-dashoffset="16.27502766232452"><animate attributeName="stroke-dashoffset" from="16.27502766232452" to="0" dur="0.48825082986973556s" begin="2.8586098599920384s" fill="freeze" /></path><path d="M 43.5 -16.9 L 7.5 -16.9 " transform="translate(0.0 38.0)" stroke-dasharray="36.0" stroke-dashoffset="36.0"><animate attributeName="stroke-dashoffset" from="36.0" to="0" dur="1.08s" begin="3.346860689861774s" fill="freeze" /></path><path d="M 44.2 -31.9 L 44.2 -33.5 C 44.2 -35.3 43.2 -36.2 40.5 -36.2 L 9.5 -36.2 C 6.7 -36.2 5.8 -35.3 5.8 -33.5 L 5.8 -30.6 " transform="translate(0.0 38.0)" stroke-dasharray="46.05647184283692" stroke-dashoffset="46.05647184283692"><animate attributeName="stroke-dashoffset" from="46.05647184283692" to="0" dur="1.3816941552851076s" begin="4.426860689861774s" fill="freeze" /></path><path d="M 24.9 -36.8 L 24.9 -41.0 " transform="translate(0.0 38.0)" stroke-dasharray="4.200000000000003" stroke-dashoffset="4.200000000000003"><animate attributeName="stroke-dashoffset" from="4.200000000000003" to="0" dur="0.12600000000000008s" begin="5.808554845146882s" fill="freeze" /></path><path d="M 40.4 -29.8 C 39.9 -26.9 38.6 -26.2 33.5 -26.2 C 29.5 -26.2 28.6 -26.8 28.6 -28.9 L 28.6 -35.1" transform="translate(0.0 38.0)" stroke-dasharray="21.46603170575267" stroke-dashoffset="21.46603170575267"><animate attributeName="stroke-dashoffset" from="21.46603170575267" to="0" dur="0.64398095117258s" begin="5.934554845146883s" fill="freeze" /></path></g></svg>