<?xml version='1.0' encoding='utf-8'?>
<svg viewBox="0.0 -6.0 50.0 50.0" version="1.1" xmlns="http://www.w3.org/2000/svg"><rect x="-1000" y="-1000" width="2000" height="2000" stroke="white" fill="white" /><g style="fill:none;stroke:#000000;stroke-width:1"><path d="M 26.5 2.4 L 26.5 -19.4 C 26.5 -21.3 27.2 -22.2 29.6 -22.2 L 45.1 -22.2 " transform="translate(0.0 38.0)" stroke-dasharray="42.17835379152879" stroke-dashoffset="42.17835379152879"><animate attributeName="stroke-dashoffset" from="42.17835379152879" to="0" dur="1.2653506137458637s" begin="0s" fill="freeze" /></path><path d="M 4.3 -0.2 C 5.5 -2.2 6.3 -4.5 7.0 -7.0 " transform="translate(0.0 38.0)" stroke-dasharray="7.338491646654755" stroke-dashoffset="7.338491646654755"><animate attributeName="stroke-dashoffset" from="7.338491646654755" to="0" dur="0.22015474939964264s" begin="1.2653506137458637s" fill="freeze" /></path><path d="M 12.2 3.0 L 12.2 -12.1 " transform="translate(0.0 38.0)" stroke-dasharray="15.1" stroke-dashoffset="15.1"><animate attributeName="stroke-dashoffset" from="15.1" to="0" dur="0.45299999999999996s" begin="1.4855053631455064s" fill="freeze" /></path><path d="M 3.6 -12.2 C 8.4 -12.3 14.1 -12.8 19.1 -13.6 " transform="translate(0.0 38.0)" stroke-dasharray="15.57444521924558" stroke-dashoffset="15.57444521924558"><animate attributeName="stroke-dashoffset" from="15.57444521924558" to="0" dur="0.4672333565773674s" begin="1.9385053631455063s" fill="freeze" /></path><path d="M 19.6 -2.9 C 18.9 -4.5 18.1 -6.1 17.2 -7.5 " transform="translate(0.0 38.0)" stroke-dasharray="5.193797743315932" stroke-dashoffset="5.193797743315932"><animate attributeName="stroke-dashoffset" from="5.193797743315932" to="0" dur="0.15581393229947796s" begin="2.4057387197228737s" fill="freeze" /></path><path d="M 12.2 -17.4 C 9.8 -19.6 7.2 -21.8 5.4 -23.1 " transform="translate(0.0 38.0)" stroke-dasharray="8.877154690935752" stroke-dashoffset="8.877154690935752"><animate attributeName="stroke-dashoffset" from="8.877154690935752" to="0" dur="0.26631464072807254s" begin="2.5615526520223515s" fill="freeze" /></path><path d="M 19.8 -11.4 C 19.0 -13.3 18.0 -15.1 16.9 -16.5 " transform="translate(0.0 38.0)" stroke-dasharray="5.883592305552576" stroke-dashoffset="5.883592305552576"><animate attributeName="stroke-dashoffset" from="5.883592305552576" to="0" dur="0.1765077691665773s" begin="2.8278672927504243s" fill="freeze" /></path><path d="M 8.1 -13.2 C 11.3 -16.6 14.4 -20.4 16.9 -24.5 " transform="translate(0.0 38.0)" stroke-dasharray="14.347891013679606" stroke-dashoffset="14.347891013679606"><animate attributeName="stroke-dashoffset" from="14.347891013679606" to="0" dur="0.43043673041038816s" begin="3.0043750619170018s" fill="freeze" /></path><path d="M 7.5 -21.6 C 9.4 -23.8 10.7 -25.7 12.1 -28.1 " transform="translate(0.0 38.0)" stroke-dasharray="7.975636328742407" stroke-dashoffset="7.975636328742407"><animate attributeName="stroke-dashoffset" from="7.975636328742407" to="0" dur="0.23926908986227222s" begin="3.4348117923273898s" fill="freeze" /></path><path d="M 45.7 -0.3 L 27.0 -0.3 " transform="translate(0.0 38.0)" stroke-dasharray="18.700000000000003" stroke-dashoffset="18.700000000000003"><animate attributeName="stroke-dashoffset" from="18.700000000000003" to="0" dur="0.561s" begin="3.674080882189662s" fill="freeze" /></path><path d="M 43.5 -7.8 L 26.5 -7.8 " transform="translate(0.0 38.0)" stroke-dasharray="17.0" stroke-dashoffset="17.0"><animate attributeName="stroke-dashoffset" from="17.0" to="0" dur="0.51s" begin="4.235080882189662s" fill="freeze" /></path><path d="M 35.7 -0.5 L 35.7 -21.9 " transform="translate(0.0 38.0)" stroke-dasharray="21.4" stroke-dashoffset="21.4"><animate attributeName="stroke-dashoffset" from="21.4" to="0" dur="0.6419999999999999s" begin="4.7450808821896615s" fill="freeze" /></path><path d="M 22.6 -16.9 C 24.9 -19.8 27.4 -23.9 29.0 -27.8 " transform="translate(0.0 38.0)" stroke-dasharray="12.677603794479989" stroke-dashoffset="12.677603794479989"><animate attributeName="stroke-dashoffset" from="12.677603794479989" to="0" dur="0.38032811383439963s" begin="5.387080882189661s" fill="freeze" /></path><path d="M 43.5 -14.9 L 26.5 -14.9 " transform="translate(0.0 38.0)" stroke-dasharray="17.0" stroke-dashoffset="17.0"><animate attributeName="stroke-dashoffset" from="17.0" to="0" dur="0.51s" begin="5.76740899602406s" fill="freeze" /></path><path d="M 19.1 -31.4 L 19.1 -38.5 " transform="translate(0.0 38.0)" stroke-dasharray="7.100000000000001" stroke-dashoffset="7.100000000000001"><animate attributeName="stroke-dashoffset" from="7.100000000000001" to="0" dur="0.21300000000000002s" begin="6.27740899602406s" fill="freeze" /></path><path d="M 10.8 -31.8 L 39.5 -31.8 C 41.9 -31.8 42.6 -32.5 42.6 -34.0 L 42.6 -36.5 C 42.6 -38.0 41.9 -38.8 39.5 -38.8 L 10.8 -38.8 C 8.4 -38.8 7.7 -38.0 7.7 -36.5 L 7.7 -34.0 C 7.7 -32.5 8.4 -31.8 10.8 -31.8 Z " transform="translate(0.0 38.0)" stroke-dasharray="80.13613113057325" stroke-dashoffset="80.13613113057325"><animate attributeName="stroke-dashoffset" from="80.13613113057325" to="0" dur="2.4040839339171973s" begin="6.49040899602406s" fill="freeze" /></path><path d="M 35.2 -22.2 C 36.1 -23.9 37.0 -25.8 37.6 -27.6 " transform="translate(0.0 38.0)" stroke-dasharray="5.915787269769482" stroke-dashoffset="5.915787269769482"><animate attributeName="stroke-dashoffset" from="5.915787269769482" to="0" dur="0.17747361809308446s" begin="8.894492929941258s" fill="freeze" /></path><path d="M 30.5 -31.4 L 30.5 -38.5" transform="translate(0.0 38.0)" stroke-dasharray="7.100000000000001" stroke-dashoffset="7.100000000000001"><animate attributeName="stroke-dashoffset" from="7.100000000000001" to="0" dur="0.21300000000000002s" begin="9.071966548034343s" fill="freeze" /></path></g></svg>