<?xml version='1.0' encoding='utf-8'?>
<svg viewBox="0.0 -6.0 50.0 50.0" version="1.1" xmlns="http://www.w3.org/2000/svg"><rect x="-1000" y="-1000" width="2000" height="2000" stroke="white" fill="white" /><g style="fill:none;stroke:#000000;stroke-width:1"><path d="M 13.8 0.6 L 36.5 0.6 C 39.5 0.6 40.9 -0.6 40.9 -2.9 L 40.9 -19.4 C 40.9 -21.8 39.5 -22.9 36.5 -22.9 L 13.8 -22.9 C 10.8 -22.9 9.5 -21.8 9.5 -19.4 L 9.5 -2.9 C 9.5 -0.6 10.8 0.6 13.8 0.6 Z " transform="translate(0.0 38.0)" stroke-dasharray="104.04754670984202" stroke-dashoffset="104.04754670984202"><animate attributeName="stroke-dashoffset" from="104.04754670984202" to="0" dur="3.1214264012952606s" begin="0s" fill="freeze" /></path><path d="M 24.9 -0.2 L 24.9 -22.8 " transform="translate(0.0 38.0)" stroke-dasharray="22.6" stroke-dashoffset="22.6"><animate attributeName="stroke-dashoffset" from="22.6" to="0" dur="0.678s" begin="3.1214264012952606s" fill="freeze" /></path><path d="M 40.3 -11.5 L 10.2 -11.5 " transform="translate(0.0 38.0)" stroke-dasharray="30.099999999999998" stroke-dashoffset="30.099999999999998"><animate attributeName="stroke-dashoffset" from="30.099999999999998" to="0" dur="0.9029999999999999s" begin="3.7994264012952605s" fill="freeze" /></path><path d="M 13.2 -29.5 C 12.1 -31.7 10.2 -34.6 8.5 -36.9 " transform="translate(0.0 38.0)" stroke-dasharray="8.775684089823109" stroke-dashoffset="8.775684089823109"><animate attributeName="stroke-dashoffset" from="8.775684089823109" to="0" dur="0.26327052269469325s" begin="4.70242640129526s" fill="freeze" /></path><path d="M 25.3 -31.2 C 24.6 -34.0 23.2 -37.2 22.2 -39.0 " transform="translate(0.0 38.0)" stroke-dasharray="8.413404927007358" stroke-dashoffset="8.413404927007358"><animate attributeName="stroke-dashoffset" from="8.413404927007358" to="0" dur="0.25240214781022074s" begin="4.965696923989953s" fill="freeze" /></path><path d="M 32.5 -23.2 C 35.8 -27.3 39.0 -32.8 41.1 -37.8" transform="translate(0.0 38.0)" stroke-dasharray="16.995001311143294" stroke-dashoffset="16.995001311143294"><animate attributeName="stroke-dashoffset" from="16.995001311143294" to="0" dur="0.5098500393342988s" begin="5.218099071800174s" fill="freeze" /></path></g></svg>