<?xml version='1.0' encoding='utf-8'?>
<svg viewBox="0.0 -6.0 50.0 50.0" version="1.1" xmlns="http://www.w3.org/2000/svg"><rect x="-1000" y="-1000" width="2000" height="2000" stroke="white" fill="white" /><g style="fill:none;stroke:#000000;stroke-width:1"><path d="M 21.4 2.0 C 26.8 -3.2 29.8 -10.4 29.8 -24.7 L 29.8 -40.2 " transform="translate(0.0 38.0)" stroke-dasharray="44.32126473863384" stroke-dashoffset="44.32126473863384"><animate attributeName="stroke-dashoffset" from="44.32126473863384" to="0" dur="1.3296379421590152s" begin="0s" fill="freeze" /></path><path d="M 3.9 -2.5 C 4.9 -5.1 5.7 -9.0 5.8 -11.8 " transform="translate(0.0 38.0)" stroke-dasharray="9.527466546640927" stroke-dashoffset="9.527466546640927"><animate attributeName="stroke-dashoffset" from="9.527466546640927" to="0" dur="0.2858239963992278s" begin="1.3296379421590152s" fill="freeze" /></path><path d="M 11.2 2.6 L 11.2 -18.6 " transform="translate(0.0 38.0)" stroke-dasharray="21.200000000000003" stroke-dashoffset="21.200000000000003"><animate attributeName="stroke-dashoffset" from="21.200000000000003" to="0" dur="0.636s" begin="1.615461938558243s" fill="freeze" /></path><path d="M 17.9 -5.7 C 17.6 -8.1 16.8 -10.9 16.1 -12.6 " transform="translate(0.0 38.0)" stroke-dasharray="7.1485090040993065" stroke-dashoffset="7.1485090040993065"><animate attributeName="stroke-dashoffset" from="7.1485090040993065" to="0" dur="0.21445527012297919s" begin="2.251461938558243s" fill="freeze" /></path><path d="M 3.3 -18.5 C 7.7 -18.6 12.8 -19.1 17.1 -19.8 " transform="translate(0.0 38.0)" stroke-dasharray="13.871280974650793" stroke-dashoffset="13.871280974650793"><animate attributeName="stroke-dashoffset" from="13.871280974650793" to="0" dur="0.41613842923952377s" begin="2.465917208681222s" fill="freeze" /></path><path d="M 21.9 -11.3 C 24.3 -11.9 26.9 -12.8 29.6 -14.0 " transform="translate(0.0 38.0)" stroke-dasharray="8.169722905376387" stroke-dashoffset="8.169722905376387"><animate attributeName="stroke-dashoffset" from="8.169722905376387" to="0" dur="0.24509168716129162s" begin="2.882055637920746s" fill="freeze" /></path><path d="M 10.6 -26.2 C 8.4 -29.2 6.3 -31.5 5.0 -32.7 " transform="translate(0.0 38.0)" stroke-dasharray="8.590908723637655" stroke-dashoffset="8.590908723637655"><animate attributeName="stroke-dashoffset" from="8.590908723637655" to="0" dur="0.25772726170912963s" begin="3.1271473250820376s" fill="freeze" /></path><path d="M 18.9 -17.4 C 18.1 -19.4 16.9 -21.7 15.7 -23.2 " transform="translate(0.0 38.0)" stroke-dasharray="6.644971578916144" stroke-dashoffset="6.644971578916144"><animate attributeName="stroke-dashoffset" from="6.644971578916144" to="0" dur="0.19934914736748433s" begin="3.384874586791167s" fill="freeze" /></path><path d="M 6.8 -19.0 C 10.1 -23.1 13.7 -28.8 15.9 -33.2 " transform="translate(0.0 38.0)" stroke-dasharray="16.893072748292067" stroke-dashoffset="16.893072748292067"><animate attributeName="stroke-dashoffset" from="16.893072748292067" to="0" dur="0.506792182448762s" begin="3.5842237341586514s" fill="freeze" /></path><path d="M 7.3 -31.1 C 8.9 -33.8 10.4 -36.9 11.6 -39.8 " transform="translate(0.0 38.0)" stroke-dasharray="9.712482231034079" stroke-dashoffset="9.712482231034079"><animate attributeName="stroke-dashoffset" from="9.712482231034079" to="0" dur="0.29137446693102237s" begin="4.091015916607414s" fill="freeze" /></path><path d="M 29.7 -22.7 L 22.4 -22.7 " transform="translate(0.0 38.0)" stroke-dasharray="7.300000000000001" stroke-dashoffset="7.300000000000001"><animate attributeName="stroke-dashoffset" from="7.300000000000001" to="0" dur="0.219s" begin="4.382390383538436s" fill="freeze" /></path><path d="M 46.9 -12.1 L 38.2 -12.1 " transform="translate(0.0 38.0)" stroke-dasharray="8.699999999999996" stroke-dashoffset="8.699999999999996"><animate attributeName="stroke-dashoffset" from="8.699999999999996" to="0" dur="0.26099999999999984s" begin="4.601390383538436s" fill="freeze" /></path><path d="M 29.6 -32.1 L 21.5 -32.1 " transform="translate(0.0 38.0)" stroke-dasharray="8.100000000000001" stroke-dashoffset="8.100000000000001"><animate attributeName="stroke-dashoffset" from="8.100000000000001" to="0" dur="0.24300000000000002s" begin="4.862390383538436s" fill="freeze" /></path><path d="M 37.5 2.0 L 37.5 -40.3 " transform="translate(0.0 38.0)" stroke-dasharray="42.3" stroke-dashoffset="42.3"><animate attributeName="stroke-dashoffset" from="42.3" to="0" dur="1.269s" begin="5.105390383538436s" fill="freeze" /></path><path d="M 45.2 -22.7 L 38.2 -22.7 " transform="translate(0.0 38.0)" stroke-dasharray="7.0" stroke-dashoffset="7.0"><animate attributeName="stroke-dashoffset" from="7.0" to="0" dur="0.21s" begin="6.374390383538437s" fill="freeze" /></path><path d="M 46.1 -32.1 L 38.2 -32.1" transform="translate(0.0 38.0)" stroke-dasharray="7.899999999999999" stroke-dashoffset="7.899999999999999"><animate attributeName="stroke-dashoffset" from="7.899999999999999" to="0" dur="0.23699999999999996s" begin="6.5843903835384365s" fill="freeze" /></path></g></svg>