<?xml version='1.0' encoding='utf-8'?>
<svg viewBox="0.0 -6.0 50.0 50.0" version="1.1" xmlns="http://www.w3.org/2000/svg"><rect x="-1000" y="-1000" width="2000" height="2000" stroke="white" fill="white" /><g style="fill:none;stroke:#000000;stroke-width:1"><path d="M 3.5 -11.9 C 7.3 -15.5 11.6 -21.4 13.9 -26.4 " transform="translate(0.0 38.0)" stroke-dasharray="17.934962342343162" stroke-dashoffset="17.934962342343162"><animate attributeName="stroke-dashoffset" from="17.934962342343162" to="0" dur="0.5380488702702948s" begin="0s; 15s; 30s; 45s" fill="freeze" id="anim0" /></path><path d="M 10.9 2.7 L 10.9 -16.8 " transform="translate(0.0 38.0)" stroke-dasharray="19.5" stroke-dashoffset="19.5"><animate attributeName="stroke-dashoffset" from="19.5" to="0" dur="0.585s" begin="anim0.end" fill="freeze" id="anim1" /></path><path d="M 30.2 2.5 L 30.2 -22.4 " transform="translate(0.0 38.0)" stroke-dasharray="24.9" stroke-dashoffset="24.9"><animate attributeName="stroke-dashoffset" from="24.9" to="0" dur="0.7469999999999999s" begin="anim1.end" fill="freeze" id="anim2" /></path><path d="M 18.0 -13.4 C 21.4 -16.8 24.6 -21.6 26.9 -26.6 " transform="translate(0.0 38.0)" stroke-dasharray="15.998316123606257" stroke-dashoffset="15.998316123606257"><animate attributeName="stroke-dashoffset" from="15.998316123606257" to="0" dur="0.4799494837081877s" begin="anim2.end" fill="freeze" id="anim3" /></path><path d="M 4.6 -29.7 C 7.2 -32.5 9.5 -36.2 11.2 -40.0 " transform="translate(0.0 38.0)" stroke-dasharray="12.28547108674285" stroke-dashoffset="12.28547108674285"><animate attributeName="stroke-dashoffset" from="12.28547108674285" to="0" dur="0.3685641326022855s" begin="anim3.end" fill="freeze" id="anim4" /></path><path d="M 43.4 -6.3 L 30.8 -6.3 " transform="translate(0.0 38.0)" stroke-dasharray="12.599999999999998" stroke-dashoffset="12.599999999999998"><animate attributeName="stroke-dashoffset" from="12.599999999999998" to="0" dur="0.37799999999999995s" begin="anim4.end" fill="freeze" id="anim5" /></path><path d="M 17.0 -30.1 C 16.2 -31.8 15.3 -33.4 14.2 -34.9 " transform="translate(0.0 38.0)" stroke-dasharray="5.565727500776744" stroke-dashoffset="5.565727500776744"><animate attributeName="stroke-dashoffset" from="5.565727500776744" to="0" dur="0.16697182502330232s" begin="anim5.end" fill="freeze" id="anim6" /></path><path d="M 22.2 -35.0 L 9.1 -35.0 " transform="translate(0.0 38.0)" stroke-dasharray="13.1" stroke-dashoffset="13.1"><animate attributeName="stroke-dashoffset" from="13.1" to="0" dur="0.39299999999999996s" begin="anim6.end" fill="freeze" id="anim7" /></path><path d="M 42.6 -14.0 L 30.5 -14.0 " transform="translate(0.0 38.0)" stroke-dasharray="12.100000000000001" stroke-dashoffset="12.100000000000001"><animate attributeName="stroke-dashoffset" from="12.100000000000001" to="0" dur="0.36300000000000004s" begin="anim7.end" fill="freeze" id="anim8" /></path><path d="M 46.0 -21.7 L 24.4 -21.7 " transform="translate(0.0 38.0)" stroke-dasharray="21.6" stroke-dashoffset="21.6"><animate attributeName="stroke-dashoffset" from="21.6" to="0" dur="0.648s" begin="anim8.end" fill="freeze" id="anim9" /></path><path d="M 24.9 -30.4 C 27.1 -32.9 29.4 -36.5 30.9 -40.0 " transform="translate(0.0 38.0)" stroke-dasharray="11.36366571181361" stroke-dashoffset="11.36366571181361"><animate attributeName="stroke-dashoffset" from="11.36366571181361" to="0" dur="0.34090997135440826s" begin="anim9.end" fill="freeze" id="anim10" /></path><path d="M 37.2 -29.9 C 36.5 -31.2 35.4 -33.0 34.2 -34.6 " transform="translate(0.0 38.0)" stroke-dasharray="5.580555151656193" stroke-dashoffset="5.580555151656193"><animate attributeName="stroke-dashoffset" from="5.580555151656193" to="0" dur="0.16741665454968577s" begin="anim10.end" fill="freeze" id="anim11" /></path><path d="M 45.6 -35.0 L 28.2 -35.0" transform="translate(0.0 38.0)" stroke-dasharray="17.400000000000002" stroke-dashoffset="17.400000000000002"><animate attributeName="stroke-dashoffset" from="17.400000000000002" to="0" dur="0.522s" begin="anim11.end" fill="freeze" id="anim_end" /></path></g></svg>