<?xml version='1.0' encoding='utf-8'?>
<svg viewBox="0.0 -6.0 50.0 50.0" version="1.1" xmlns="http://www.w3.org/2000/svg"><rect x="-1000" y="-1000" width="2000" height="2000" stroke="white" fill="white" /><g style="fill:none;stroke:#000000;stroke-width:1"><path d="M 9.8 -3.8 L 12.8 -3.8 C 14.6 -3.8 15.4 -4.5 15.4 -6.5 L 15.4 -20.8 C 15.4 -22.8 14.6 -23.4 12.8 -23.4 L 9.8 -23.4 C 8.1 -23.4 7.2 -22.6 7.2 -20.8 L 7.2 -6.5 C 7.2 -4.5 8.1 -3.8 9.8 -3.8 Z " transform="translate(0.0 38.0)" stroke-dasharray="51.839865640656605" stroke-dashoffset="51.839865640656605"><animate attributeName="stroke-dashoffset" from="51.839865640656605" to="0" dur="1.5551959692196982s" begin="0s; anim_end.end" fill="freeze" id="anim0" /></path><path d="M 2.5 -16.0 C 5.8 -21.2 8.6 -29.9 9.4 -37.0 " transform="translate(0.0 38.0)" stroke-dasharray="22.26152516329041" stroke-dashoffset="22.26152516329041"><animate attributeName="stroke-dashoffset" from="22.26152516329041" to="0" dur="0.6678457548987123s" begin="anim0.end" fill="freeze" id="anim1" /></path><path d="M 45.9 1.2 L 18.6 1.2 " transform="translate(0.0 38.0)" stroke-dasharray="27.299999999999997" stroke-dashoffset="27.299999999999997"><animate attributeName="stroke-dashoffset" from="27.299999999999997" to="0" dur="0.8189999999999998s" begin="anim1.end" fill="freeze" id="anim2" /></path><path d="M 28.3 -3.0 C 27.9 -3.9 27.4 -4.8 26.8 -5.8 " transform="translate(0.0 38.0)" stroke-dasharray="3.17847326802552" stroke-dashoffset="3.17847326802552"><animate attributeName="stroke-dashoffset" from="3.17847326802552" to="0" dur="0.09535419804076559s" begin="anim2.end" fill="freeze" id="anim3" /></path><path d="M 35.6 0.2 C 36.5 -1.4 37.4 -3.5 38.0 -5.5 " transform="translate(0.0 38.0)" stroke-dasharray="6.196209604942071" stroke-dashoffset="6.196209604942071"><animate attributeName="stroke-dashoffset" from="6.196209604942071" to="0" dur="0.18588628814826214s" begin="anim3.end" fill="freeze" id="anim4" /></path><path d="M 28.1 -9.9 L 37.9 -9.9 C 40.6 -9.9 41.5 -10.8 41.5 -12.6 L 41.5 -15.3 C 41.5 -17.1 40.6 -17.9 37.9 -17.9 L 28.1 -17.9 C 25.3 -17.9 24.5 -17.1 24.5 -15.3 L 24.5 -12.6 C 24.5 -10.8 25.3 -9.9 28.1 -9.9 Z " transform="translate(0.0 38.0)" stroke-dasharray="45.71565525348768" stroke-dashoffset="45.71565525348768"><animate attributeName="stroke-dashoffset" from="45.71565525348768" to="0" dur="1.3714696576046304s" begin="anim4.end" fill="freeze" id="anim5" /></path><path d="M 16.8 -37.5 L 2.9 -37.5 " transform="translate(0.0 38.0)" stroke-dasharray="13.9" stroke-dashoffset="13.9"><animate attributeName="stroke-dashoffset" from="13.9" to="0" dur="0.417s" begin="anim5.end" fill="freeze" id="anim6" /></path><path d="M 45.6 -24.0 L 20.5 -24.0 " transform="translate(0.0 38.0)" stroke-dasharray="25.1" stroke-dashoffset="25.1"><animate attributeName="stroke-dashoffset" from="25.1" to="0" dur="0.753s" begin="anim6.end" fill="freeze" id="anim7" /></path><path d="M 23.4 -37.5 L 23.4 -33.1 C 23.4 -30.9 24.3 -30.2 27.1 -30.2 L 39.4 -30.2 C 42.1 -30.2 43.0 -30.9 43.0 -33.1 L 43.0 -37.5 " transform="translate(0.0 38.0)" stroke-dasharray="32.04412570712945" stroke-dashoffset="32.04412570712945"><animate attributeName="stroke-dashoffset" from="32.04412570712945" to="0" dur="0.9613237712138836s" begin="anim7.end" fill="freeze" id="anim8" /></path><path d="M 33.0 -30.4 L 33.0 -40.1" transform="translate(0.0 38.0)" stroke-dasharray="9.700000000000003" stroke-dashoffset="9.700000000000003"><animate attributeName="stroke-dashoffset" from="9.700000000000003" to="0" dur="0.2910000000000001s" begin="anim8.end" fill="freeze" id="anim_end" /></path></g></svg>