<?xml version='1.0' encoding='utf-8'?>
<svg viewBox="0.0 -6.0 50.0 50.0" version="1.1" xmlns="http://www.w3.org/2000/svg"><rect x="-1000" y="-1000" width="2000" height="2000" stroke="white" fill="white" /><g style="fill:none;stroke:#000000;stroke-width:1"><path d="M 46.6 0.4 C 44.2 0.6 42.1 0.7 39.5 0.7 C 31.9 0.7 27.6 -2.0 25.5 -9.1 " transform="translate(0.0 38.0)" stroke-dasharray="25.80280229161116" stroke-dashoffset="25.80280229161116"><animate attributeName="stroke-dashoffset" from="25.80280229161116" to="0" dur="0.7740840687483348s" begin="0s; 15s; 30s; 45s" fill="freeze" id="anim0" /></path><path d="M 4.0 -2.5 C 5.0 -5.0 5.8 -9.0 6.0 -11.8 " transform="translate(0.0 38.0)" stroke-dasharray="9.542632907847509" stroke-dashoffset="9.542632907847509"><animate attributeName="stroke-dashoffset" from="9.542632907847509" to="0" dur="0.2862789872354252s" begin="anim0.end" fill="freeze" id="anim1" /></path><path d="M 11.3 2.6 L 11.3 -18.6 " transform="translate(0.0 38.0)" stroke-dasharray="21.200000000000003" stroke-dashoffset="21.200000000000003"><animate attributeName="stroke-dashoffset" from="21.200000000000003" to="0" dur="0.636s" begin="anim1.end" fill="freeze" id="anim2" /></path><path d="M 18.2 -6.0 C 17.9 -8.4 17.1 -10.9 16.2 -12.6 " transform="translate(0.0 38.0)" stroke-dasharray="6.930197472570878" stroke-dashoffset="6.930197472570878"><animate attributeName="stroke-dashoffset" from="6.930197472570878" to="0" dur="0.20790592417712633s" begin="anim2.end" fill="freeze" id="anim3" /></path><path d="M 3.4 -18.5 C 7.8 -18.6 13.0 -19.1 17.4 -19.8 " transform="translate(0.0 38.0)" stroke-dasharray="14.069975493313311" stroke-dashoffset="14.069975493313311"><animate attributeName="stroke-dashoffset" from="14.069975493313311" to="0" dur="0.42209926479939935s" begin="anim3.end" fill="freeze" id="anim4" /></path><path d="M 19.8 1.4 C 23.0 -2.3 25.8 -8.6 26.6 -14.8 " transform="translate(0.0 38.0)" stroke-dasharray="17.791928130270097" stroke-dashoffset="17.791928130270097"><animate attributeName="stroke-dashoffset" from="17.791928130270097" to="0" dur="0.5337578439081029s" begin="anim4.end" fill="freeze" id="anim5" /></path><path d="M 10.8 -26.2 C 8.6 -29.2 6.5 -31.5 5.1 -32.7 " transform="translate(0.0 38.0)" stroke-dasharray="8.661035134148943" stroke-dashoffset="8.661035134148943"><animate attributeName="stroke-dashoffset" from="8.661035134148943" to="0" dur="0.25983105402446827s" begin="anim5.end" fill="freeze" id="anim6" /></path><path d="M 19.2 -17.4 C 18.5 -19.4 17.1 -21.6 16.0 -23.2 " transform="translate(0.0 38.0)" stroke-dasharray="6.642286189641358" stroke-dashoffset="6.642286189641358"><animate attributeName="stroke-dashoffset" from="6.642286189641358" to="0" dur="0.19926858568924075s" begin="anim6.end" fill="freeze" id="anim7" /></path><path d="M 7.0 -19.0 C 10.2 -23.1 13.9 -28.8 16.2 -33.1 " transform="translate(0.0 38.0)" stroke-dasharray="16.85331342089623" stroke-dashoffset="16.85331342089623"><animate attributeName="stroke-dashoffset" from="16.85331342089623" to="0" dur="0.505599402626887s" begin="anim7.end" fill="freeze" id="anim8" /></path><path d="M 34.1 -0.7 L 34.1 -21.9 " transform="translate(0.0 38.0)" stroke-dasharray="21.2" stroke-dashoffset="21.2"><animate attributeName="stroke-dashoffset" from="21.2" to="0" dur="0.636s" begin="anim8.end" fill="freeze" id="anim9" /></path><path d="M 7.5 -31.1 C 9.2 -33.8 10.6 -36.9 11.8 -39.7 " transform="translate(0.0 38.0)" stroke-dasharray="9.625019491477246" stroke-dashoffset="9.625019491477246"><animate attributeName="stroke-dashoffset" from="9.625019491477246" to="0" dur="0.28875058474431736s" begin="anim9.end" fill="freeze" id="anim10" /></path><path d="M 43.3 -12.1 L 33.8 -12.1 " transform="translate(0.0 38.0)" stroke-dasharray="9.5" stroke-dashoffset="9.5"><animate attributeName="stroke-dashoffset" from="9.5" to="0" dur="0.285s" begin="anim10.end" fill="freeze" id="anim11" /></path><path d="M 45.8 -22.2 L 22.9 -22.2 " transform="translate(0.0 38.0)" stroke-dasharray="22.9" stroke-dashoffset="22.9"><animate attributeName="stroke-dashoffset" from="22.9" to="0" dur="0.6869999999999999s" begin="anim11.end" fill="freeze" id="anim12" /></path><path d="M 45.1 -28.0 L 45.1 -30.8 C 45.1 -32.7 44.2 -33.7 41.5 -33.7 L 26.9 -33.7 C 24.1 -33.7 23.2 -32.7 23.2 -30.8 L 23.2 -27.8 " transform="translate(0.0 38.0)" stroke-dasharray="31.18088784368728" stroke-dashoffset="31.18088784368728"><animate attributeName="stroke-dashoffset" from="31.18088784368728" to="0" dur="0.9354266353106184s" begin="anim12.end" fill="freeze" id="anim13" /></path><path d="M 33.8 -33.7 L 33.8 -40.1" transform="translate(0.0 38.0)" stroke-dasharray="6.399999999999999" stroke-dashoffset="6.399999999999999"><animate attributeName="stroke-dashoffset" from="6.399999999999999" to="0" dur="0.19199999999999995s" begin="anim13.end" fill="freeze" id="anim_end" /></path></g></svg>