<?xml version='1.0' encoding='utf-8'?>
<svg viewBox="0.0 -6.0 50.0 50.0" version="1.1" xmlns="http://www.w3.org/2000/svg"><rect x="-1000" y="-1000" width="2000" height="2000" stroke="white" fill="white" /><g style="fill:none;stroke:#000000;stroke-width:1"><path d="M 24.4 1.8 L 36.9 1.8 C 39.4 1.8 40.4 0.8 40.4 -1.1 L 40.4 -7.0 C 40.4 -9.0 39.4 -9.9 36.9 -9.9 L 24.4 -9.9 C 21.9 -9.9 20.9 -9.0 20.9 -7.0 L 20.9 -1.1 C 20.9 0.8 21.9 1.8 24.4 1.8 Z " transform="translate(0.0 38.0)" stroke-dasharray="57.77797427132342" stroke-dashoffset="57.77797427132342"><animate attributeName="stroke-dashoffset" from="57.77797427132342" to="0" dur="1.7333392281397026s" begin="0s" fill="freeze" /></path><path d="M 6.2 1.2 C 8.4 -2.0 10.2 -5.7 11.5 -9.6 " transform="translate(0.0 38.0)" stroke-dasharray="12.069348504759922" stroke-dashoffset="12.069348504759922"><animate attributeName="stroke-dashoffset" from="12.069348504759922" to="0" dur="0.3620804551427977s" begin="1.7333392281397026s" fill="freeze" /></path><path d="M 8.5 -17.8 C 7.3 -18.9 5.9 -20.1 4.5 -20.9 " transform="translate(0.0 38.0)" stroke-dasharray="5.070766351330183" stroke-dashoffset="5.070766351330183"><animate attributeName="stroke-dashoffset" from="5.070766351330183" to="0" dur="0.15212299053990547s" begin="2.0954196832825005s" fill="freeze" /></path><path d="M 30.6 0.8 L 30.6 -9.3 " transform="translate(0.0 38.0)" stroke-dasharray="10.100000000000001" stroke-dashoffset="10.100000000000001"><animate attributeName="stroke-dashoffset" from="10.100000000000001" to="0" dur="0.30300000000000005s" begin="2.247542673822406s" fill="freeze" /></path><path d="M 39.9 -4.2 L 21.9 -4.2 " transform="translate(0.0 38.0)" stroke-dasharray="18.0" stroke-dashoffset="18.0"><animate attributeName="stroke-dashoffset" from="18.0" to="0" dur="0.54s" begin="2.550542673822406s" fill="freeze" /></path><path d="M 16.1 -11.3 C 20.8 -13.3 25.6 -16.4 28.8 -19.6 " transform="translate(0.0 38.0)" stroke-dasharray="15.256096865180243" stroke-dashoffset="15.256096865180243"><animate attributeName="stroke-dashoffset" from="15.256096865180243" to="0" dur="0.4576829059554073s" begin="3.090542673822406s" fill="freeze" /></path><path d="M 12.2 -27.1 C 11.1 -28.4 9.8 -29.6 8.6 -30.4 " transform="translate(0.0 38.0)" stroke-dasharray="4.898550495775712" stroke-dashoffset="4.898550495775712"><animate attributeName="stroke-dashoffset" from="4.898550495775712" to="0" dur="0.14695651487327135s" begin="3.5482255797778133s" fill="freeze" /></path><path d="M 24.2 -22.8 C 23.8 -23.5 23.4 -24.2 22.8 -24.9 " transform="translate(0.0 38.0)" stroke-dasharray="2.5281712707122206" stroke-dashoffset="2.5281712707122206"><animate attributeName="stroke-dashoffset" from="2.5281712707122206" to="0" dur="0.07584513812136662s" begin="3.6951820946510847s" fill="freeze" /></path><path d="M 30.6 -13.7 L 30.6 -28.8 " transform="translate(0.0 38.0)" stroke-dasharray="15.100000000000001" stroke-dashoffset="15.100000000000001"><animate attributeName="stroke-dashoffset" from="15.100000000000001" to="0" dur="0.453s" begin="3.771027232772451s" fill="freeze" /></path><path d="M 45.2 -20.5 L 16.6 -20.5 " transform="translate(0.0 38.0)" stroke-dasharray="28.6" stroke-dashoffset="28.6"><animate attributeName="stroke-dashoffset" from="28.6" to="0" dur="0.858s" begin="4.2240272327724515s" fill="freeze" /></path><path d="M 17.9 -32.7 L 17.9 -40.5 " transform="translate(0.0 38.0)" stroke-dasharray="7.799999999999997" stroke-dashoffset="7.799999999999997"><animate attributeName="stroke-dashoffset" from="7.799999999999997" to="0" dur="0.2339999999999999s" begin="5.082027232772451s" fill="freeze" /></path><path d="M 45.9 -11.6 C 41.0 -13.2 35.9 -16.1 32.3 -19.3 " transform="translate(0.0 38.0)" stroke-dasharray="15.729718525483502" stroke-dashoffset="15.729718525483502"><animate attributeName="stroke-dashoffset" from="15.729718525483502" to="0" dur="0.47189155576450503s" begin="5.316027232772451s" fill="freeze" /></path><path d="M 20.0 -28.2 C 26.2 -28.4 34.4 -29.2 40.4 -30.4 " transform="translate(0.0 38.0)" stroke-dasharray="20.538047784318803" stroke-dashoffset="20.538047784318803"><animate attributeName="stroke-dashoffset" from="20.538047784318803" to="0" dur="0.6161414335295641s" begin="5.787918788536956s" fill="freeze" /></path><path d="M 45.6 -36.4 L 4.3 -36.4 " transform="translate(0.0 38.0)" stroke-dasharray="41.300000000000004" stroke-dashoffset="41.300000000000004"><animate attributeName="stroke-dashoffset" from="41.300000000000004" to="0" dur="1.239s" begin="6.40406022206652s" fill="freeze" /></path><path d="M 37.0 -22.7 C 37.8 -23.8 38.4 -24.7 39.0 -25.9 " transform="translate(0.0 38.0)" stroke-dasharray="3.7784436293084918" stroke-dashoffset="3.7784436293084918"><animate attributeName="stroke-dashoffset" from="3.7784436293084918" to="0" dur="0.11335330887925475s" begin="7.64306022206652s" fill="freeze" /></path><path d="M 31.8 -33.3 L 31.8 -40.5" transform="translate(0.0 38.0)" stroke-dasharray="7.200000000000003" stroke-dashoffset="7.200000000000003"><animate attributeName="stroke-dashoffset" from="7.200000000000003" to="0" dur="0.21600000000000008s" begin="7.756413530945775s" fill="freeze" /></path></g></svg>