<?xml version='1.0' encoding='utf-8'?>
<svg viewBox="0.0 -6.0 50.0 50.0" version="1.1" xmlns="http://www.w3.org/2000/svg"><rect x="-1000" y="-1000" width="2000" height="2000" stroke="white" fill="white" /><g style="fill:none;stroke:#000000;stroke-width:1"><path d="M 47.4 -5.7 C 46.9 -0.6 45.7 0.6 44.5 0.6 C 43.0 0.6 41.1 -1.4 40.0 -10.1 C 39.2 -15.4 38.8 -22.8 38.8 -29.4 L 38.8 -33.6 C 38.8 -36.5 37.5 -37.6 34.1 -37.6 L 6.4 -37.6 " transform="translate(0.0 38.0)" stroke-dasharray="78.14946153908079" stroke-dashoffset="78.14946153908079"><animate attributeName="stroke-dashoffset" from="78.14946153908079" to="0" dur="2.3444838461724236s" begin="0s" fill="freeze" /></path><path d="M 6.8 -0.1 C 14.7 -0.6 23.6 -1.6 32.1 -3.5 " transform="translate(0.0 38.0)" stroke-dasharray="25.553024075654236" stroke-dashoffset="25.553024075654236"><animate attributeName="stroke-dashoffset" from="25.553024075654236" to="0" dur="0.766590722269627s" begin="2.3444838461724236s" fill="freeze" /></path><path d="M 34.9 -0.2 C 33.4 -2.4 30.8 -5.4 28.9 -7.2 " transform="translate(0.0 38.0)" stroke-dasharray="9.23332325473137" stroke-dashoffset="9.23332325473137"><animate attributeName="stroke-dashoffset" from="9.23332325473137" to="0" dur="0.2769996976419411s" begin="3.1110745684420507s" fill="freeze" /></path><path d="M 20.4 -1.9 L 20.4 -29.1 " transform="translate(0.0 38.0)" stroke-dasharray="27.200000000000003" stroke-dashoffset="27.200000000000003"><animate attributeName="stroke-dashoffset" from="27.200000000000003" to="0" dur="0.8160000000000001s" begin="3.3880742660839918s" fill="freeze" /></path><path d="M 14.3 -11.6 L 26.8 -11.6 C 29.8 -11.6 30.8 -12.6 30.8 -14.5 L 30.8 -18.3 C 30.8 -20.2 29.8 -21.3 26.8 -21.3 L 14.3 -21.3 C 11.3 -21.3 10.3 -20.2 10.3 -18.3 L 10.3 -14.5 C 10.3 -12.6 11.3 -11.6 14.3 -11.6 Z " transform="translate(0.0 38.0)" stroke-dasharray="55.47211702679312" stroke-dashoffset="55.47211702679312"><animate attributeName="stroke-dashoffset" from="55.47211702679312" to="0" dur="1.6641635108037935s" begin="4.204074266083992s" fill="freeze" /></path><path d="M 7.7 -27.9 C 15.2 -28.6 23.7 -30.0 30.6 -31.9" transform="translate(0.0 38.0)" stroke-dasharray="23.27407909528842" stroke-dashoffset="23.27407909528842"><animate attributeName="stroke-dashoffset" from="23.27407909528842" to="0" dur="0.6982223728586526s" begin="5.868237776887785s" fill="freeze" /></path></g></svg>