<?xml version='1.0' encoding='utf-8'?>
<svg viewBox="0.0 -6.0 50.0 50.0" version="1.1" xmlns="http://www.w3.org/2000/svg"><rect x="-1000" y="-1000" width="2000" height="2000" stroke="white" fill="white" /><g style="fill:none;stroke:#000000;stroke-width:1"><path d="M 22.4 2.5 C 29.6 1.1 37.1 -1.6 42.5 -5.1 " transform="translate(0.0 38.0)" stroke-dasharray="21.609841188828536" stroke-dashoffset="21.609841188828536"><animate attributeName="stroke-dashoffset" from="21.609841188828536" to="0" dur="0.648295235664856s" begin="0s; anim_end.end" fill="freeze" id="anim0" /></path><path d="M 8.2 1.1 L 11.9 1.1 C 14.1 1.1 14.9 0.1 14.9 -1.9 L 14.9 -7.8 C 14.9 -9.7 14.1 -10.7 11.9 -10.7 L 8.2 -10.7 C 6.0 -10.7 5.2 -9.7 5.2 -7.8 L 5.2 -1.9 C 5.2 0.1 6.0 1.1 8.2 1.1 Z " transform="translate(0.0 38.0)" stroke-dasharray="38.69532823304855" stroke-dashoffset="38.69532823304855"><animate attributeName="stroke-dashoffset" from="38.69532823304855" to="0" dur="1.1608598469914564s" begin="anim0.end" fill="freeze" id="anim1" /></path><path d="M 14.7 -17.6 L 5.3 -17.6 " transform="translate(0.0 38.0)" stroke-dasharray="9.399999999999999" stroke-dashoffset="9.399999999999999"><animate attributeName="stroke-dashoffset" from="9.399999999999999" to="0" dur="0.282s" begin="anim1.end" fill="freeze" id="anim2" /></path><path d="M 14.7 -24.4 L 5.3 -24.4 " transform="translate(0.0 38.0)" stroke-dasharray="9.399999999999999" stroke-dashoffset="9.399999999999999"><animate attributeName="stroke-dashoffset" from="9.399999999999999" to="0" dur="0.282s" begin="anim2.end" fill="freeze" id="anim3" /></path><path d="M 22.8 -3.2 C 27.9 -4.5 33.5 -7.1 37.5 -10.0 " transform="translate(0.0 38.0)" stroke-dasharray="16.28359550510222" stroke-dashoffset="16.28359550510222"><animate attributeName="stroke-dashoffset" from="16.28359550510222" to="0" dur="0.48850786515306655s" begin="anim3.end" fill="freeze" id="anim4" /></path><path d="M 22.6 -8.7 C 26.4 -10.1 30.1 -12.1 33.1 -14.5 " transform="translate(0.0 38.0)" stroke-dasharray="12.045633588937644" stroke-dashoffset="12.045633588937644"><animate attributeName="stroke-dashoffset" from="12.045633588937644" to="0" dur="0.3613690076681293s" begin="anim4.end" fill="freeze" id="anim5" /></path><path d="M 16.5 -31.4 L 2.8 -31.4 " transform="translate(0.0 38.0)" stroke-dasharray="13.7" stroke-dashoffset="13.7"><animate attributeName="stroke-dashoffset" from="13.7" to="0" dur="0.411s" begin="anim5.end" fill="freeze" id="anim6" /></path><path d="M 20.1 -13.4 C 24.6 -15.6 29.4 -19.1 32.8 -23.1 " transform="translate(0.0 38.0)" stroke-dasharray="16.08590657327017" stroke-dashoffset="16.08590657327017"><animate attributeName="stroke-dashoffset" from="16.08590657327017" to="0" dur="0.48257719719810505s" begin="anim6.end" fill="freeze" id="anim7" /></path><path d="M 14.7 -38.2 L 5.3 -38.2 " transform="translate(0.0 38.0)" stroke-dasharray="9.399999999999999" stroke-dashoffset="9.399999999999999"><animate attributeName="stroke-dashoffset" from="9.399999999999999" to="0" dur="0.282s" begin="anim7.end" fill="freeze" id="anim8" /></path><path d="M 19.3 -26.3 C 21.6 -27.1 23.8 -28.3 25.6 -29.4 " transform="translate(0.0 38.0)" stroke-dasharray="7.034615654142276" stroke-dashoffset="7.034615654142276"><animate attributeName="stroke-dashoffset" from="7.034615654142276" to="0" dur="0.21103846962426828s" begin="anim8.end" fill="freeze" id="anim9" /></path><path d="M 25.2 -24.7 C 26.1 -24.5 26.5 -24.4 27.1 -24.4 C 29.1 -24.4 29.6 -25.2 29.6 -27.4 L 29.6 -35.9 C 29.6 -37.8 28.8 -38.6 26.6 -38.6 L 19.6 -38.6 " transform="translate(0.0 38.0)" stroke-dasharray="26.73510981647859" stroke-dashoffset="26.73510981647859"><animate attributeName="stroke-dashoffset" from="26.73510981647859" to="0" dur="0.8020532944943577s" begin="anim9.end" fill="freeze" id="anim10" /></path><path d="M 23.7 -32.9 C 22.9 -33.7 22.1 -34.5 21.3 -35.0 " transform="translate(0.0 38.0)" stroke-dasharray="3.195691679177491" stroke-dashoffset="3.195691679177491"><animate attributeName="stroke-dashoffset" from="3.195691679177491" to="0" dur="0.09587075037532473s" begin="anim10.end" fill="freeze" id="anim11" /></path><path d="M 46.1 -13.4 C 41.8 -15.2 36.4 -18.4 33.0 -21.8 " transform="translate(0.0 38.0)" stroke-dasharray="15.646612246875208" stroke-dashoffset="15.646612246875208"><animate attributeName="stroke-dashoffset" from="15.646612246875208" to="0" dur="0.46939836740625623s" begin="anim11.end" fill="freeze" id="anim12" /></path><path d="M 34.3 -27.0 C 36.5 -27.8 38.6 -28.6 40.5 -29.7 " transform="translate(0.0 38.0)" stroke-dasharray="6.771456913512367" stroke-dashoffset="6.771456913512367"><animate attributeName="stroke-dashoffset" from="6.771456913512367" to="0" dur="0.203143707405371s" begin="anim12.end" fill="freeze" id="anim13" /></path><path d="M 39.9 -23.8 C 40.8 -23.6 41.5 -23.6 42.0 -23.6 C 44.1 -23.6 44.6 -24.4 44.6 -26.6 L 44.6 -35.9 C 44.6 -37.8 43.8 -38.6 41.6 -38.6 L 34.1 -38.6 " transform="translate(0.0 38.0)" stroke-dasharray="28.308506504999894" stroke-dashoffset="28.308506504999894"><animate attributeName="stroke-dashoffset" from="28.308506504999894" to="0" dur="0.8492551951499968s" begin="anim13.end" fill="freeze" id="anim14" /></path><path d="M 38.2 -32.9 C 37.5 -33.6 36.9 -34.2 35.9 -35.0" transform="translate(0.0 38.0)" stroke-dasharray="3.1164666900699722" stroke-dashoffset="3.1164666900699722"><animate attributeName="stroke-dashoffset" from="3.1164666900699722" to="0" dur="0.09349400070209916s" begin="anim14.end" fill="freeze" id="anim_end" /></path></g></svg>