<?xml version='1.0' encoding='utf-8'?>
<svg viewBox="0.0 -6.0 50.0 50.0" version="1.1" xmlns="http://www.w3.org/2000/svg"><rect x="-1000" y="-1000" width="2000" height="2000" stroke="white" fill="white" /><g style="fill:none;stroke:#000000;stroke-width:1"><path d="M 9.2 0.6 L 13.2 0.6 C 15.7 0.6 16.5 -0.4 16.5 -2.4 L 16.5 -8.1 C 16.5 -10.1 15.7 -10.9 13.2 -10.9 L 9.2 -10.9 C 6.8 -10.9 5.9 -10.1 5.9 -8.1 L 5.9 -2.4 C 5.9 -0.4 6.8 0.6 9.2 0.6 Z " transform="translate(0.0 38.0)" stroke-dasharray="39.84634420261456" stroke-dashoffset="39.84634420261456"><animate attributeName="stroke-dashoffset" from="39.84634420261456" to="0" dur="1.1953903260784366s" begin="0s" fill="freeze" /></path><path d="M 16.2 -17.8 L 5.9 -17.8 " transform="translate(0.0 38.0)" stroke-dasharray="10.299999999999999" stroke-dashoffset="10.299999999999999"><animate attributeName="stroke-dashoffset" from="10.299999999999999" to="0" dur="0.30899999999999994s" begin="1.1953903260784366s" fill="freeze" /></path><path d="M 16.2 -24.4 L 5.9 -24.4 " transform="translate(0.0 38.0)" stroke-dasharray="10.299999999999999" stroke-dashoffset="10.299999999999999"><animate attributeName="stroke-dashoffset" from="10.299999999999999" to="0" dur="0.30899999999999994s" begin="1.5043903260784366s" fill="freeze" /></path><path d="M 18.9 -31.3 L 3.0 -31.3 " transform="translate(0.0 38.0)" stroke-dasharray="15.899999999999999" stroke-dashoffset="15.899999999999999"><animate attributeName="stroke-dashoffset" from="15.899999999999999" to="0" dur="0.4769999999999999s" begin="1.8133903260784365s" fill="freeze" /></path><path d="M 16.2 -38.0 L 5.9 -38.0 " transform="translate(0.0 38.0)" stroke-dasharray="10.299999999999999" stroke-dashoffset="10.299999999999999"><animate attributeName="stroke-dashoffset" from="10.299999999999999" to="0" dur="0.30899999999999994s" begin="2.2903903260784366s" fill="freeze" /></path><path d="M 33.5 1.7 L 33.5 -37.2 " transform="translate(0.0 38.0)" stroke-dasharray="38.900000000000006" stroke-dashoffset="38.900000000000006"><animate attributeName="stroke-dashoffset" from="38.900000000000006" to="0" dur="1.167s" begin="2.599390326078437s" fill="freeze" /></path><path d="M 46.5 -17.6 L 21.1 -17.6 " transform="translate(0.0 38.0)" stroke-dasharray="25.4" stroke-dashoffset="25.4"><animate attributeName="stroke-dashoffset" from="25.4" to="0" dur="0.7619999999999999s" begin="3.7663903260784366s" fill="freeze" /></path><path d="M 27.1 -24.4 C 26.5 -26.1 25.4 -28.6 24.5 -30.2 " transform="translate(0.0 38.0)" stroke-dasharray="6.362326057301036" stroke-dashoffset="6.362326057301036"><animate attributeName="stroke-dashoffset" from="6.362326057301036" to="0" dur="0.19086978171903107s" begin="4.528390326078436s" fill="freeze" /></path><path d="M 39.8 -23.8 C 40.9 -25.6 42.0 -27.9 42.8 -30.2 " transform="translate(0.0 38.0)" stroke-dasharray="7.080869994889774" stroke-dashoffset="7.080869994889774"><animate attributeName="stroke-dashoffset" from="7.080869994889774" to="0" dur="0.21242609984669322s" begin="4.719260107797467s" fill="freeze" /></path><path d="M 45.0 -37.0 L 22.6 -37.0" transform="translate(0.0 38.0)" stroke-dasharray="22.4" stroke-dashoffset="22.4"><animate attributeName="stroke-dashoffset" from="22.4" to="0" dur="0.6719999999999999s" begin="4.9316862076441605s" fill="freeze" /></path></g></svg>