<?xml version='1.0' encoding='utf-8'?>
<svg viewBox="0.0 -6.0 50.0 50.0" version="1.1" xmlns="http://www.w3.org/2000/svg"><rect x="-1000" y="-1000" width="2000" height="2000" stroke="white" fill="white" /><g style="fill:none;stroke:#000000;stroke-width:1"><path d="M 36.4 1.4 C 37.2 1.6 38.2 1.7 39.0 1.7 C 41.2 1.7 42.0 0.8 42.0 -1.5 L 42.0 -24.6 " transform="translate(0.0 38.0)" stroke-dasharray="30.845995047623976" stroke-dashoffset="30.845995047623976"><animate attributeName="stroke-dashoffset" from="30.845995047623976" to="0" dur="0.9253798514287193s" begin="0s" fill="freeze" /></path><path d="M 9.4 2.7 L 9.4 -19.2 " transform="translate(0.0 38.0)" stroke-dasharray="21.9" stroke-dashoffset="21.9"><animate attributeName="stroke-dashoffset" from="21.9" to="0" dur="0.6569999999999999s" begin="0.9253798514287193s" fill="freeze" /></path><path d="M 15.4 -2.1 C 20.9 -2.9 28.1 -4.4 33.1 -6.0 " transform="translate(0.0 38.0)" stroke-dasharray="18.141813143596902" stroke-dashoffset="18.141813143596902"><animate attributeName="stroke-dashoffset" from="18.141813143596902" to="0" dur="0.544254394307907s" begin="1.582379851428719s" fill="freeze" /></path><path d="M 3.3 -15.6 C 6.6 -18.6 10.4 -23.9 12.6 -28.6 " transform="translate(0.0 38.0)" stroke-dasharray="16.071188799718108" stroke-dashoffset="16.071188799718108"><animate attributeName="stroke-dashoffset" from="16.071188799718108" to="0" dur="0.48213566399154323s" begin="2.126634245736626s" fill="freeze" /></path><path d="M 24.1 -3.8 L 24.1 -19.1 " transform="translate(0.0 38.0)" stroke-dasharray="15.3" stroke-dashoffset="15.3"><animate attributeName="stroke-dashoffset" from="15.3" to="0" dur="0.459s" begin="2.608769909728169s" fill="freeze" /></path><path d="M 31.8 -13.6 L 17.0 -13.6 " transform="translate(0.0 38.0)" stroke-dasharray="14.8" stroke-dashoffset="14.8"><animate attributeName="stroke-dashoffset" from="14.8" to="0" dur="0.444s" begin="3.067769909728169s" fill="freeze" /></path><path d="M 3.6 -29.9 C 6.3 -32.1 9.4 -36.0 11.4 -39.5 " transform="translate(0.0 38.0)" stroke-dasharray="12.428299238609037" stroke-dashoffset="12.428299238609037"><animate attributeName="stroke-dashoffset" from="12.428299238609037" to="0" dur="0.3728489771582711s" begin="3.511769909728169s" fill="freeze" /></path><path d="M 31.9 -23.9 L 16.1 -23.9 " transform="translate(0.0 38.0)" stroke-dasharray="15.799999999999997" stroke-dashoffset="15.799999999999997"><animate attributeName="stroke-dashoffset" from="15.799999999999997" to="0" dur="0.4739999999999999s" begin="3.88461888688644s" fill="freeze" /></path><path d="M 24.1 -23.8 L 24.1 -40.2 " transform="translate(0.0 38.0)" stroke-dasharray="16.400000000000002" stroke-dashoffset="16.400000000000002"><animate attributeName="stroke-dashoffset" from="16.400000000000002" to="0" dur="0.49200000000000005s" begin="4.35861888688644s" fill="freeze" /></path><path d="M 30.6 -32.9 L 18.0 -32.9 " transform="translate(0.0 38.0)" stroke-dasharray="12.600000000000001" stroke-dashoffset="12.600000000000001"><animate attributeName="stroke-dashoffset" from="12.600000000000001" to="0" dur="0.378s" begin="4.85061888688644s" fill="freeze" /></path><path d="M 47.0 -24.8 L 35.9 -24.8 " transform="translate(0.0 38.0)" stroke-dasharray="11.100000000000001" stroke-dashoffset="11.100000000000001"><animate attributeName="stroke-dashoffset" from="11.100000000000001" to="0" dur="0.333s" begin="5.22861888688644s" fill="freeze" /></path><path d="M 45.8 -37.1 L 36.7 -37.1" transform="translate(0.0 38.0)" stroke-dasharray="9.099999999999994" stroke-dashoffset="9.099999999999994"><animate attributeName="stroke-dashoffset" from="9.099999999999994" to="0" dur="0.2729999999999998s" begin="5.56161888688644s" fill="freeze" /></path></g></svg>