<?xml version='1.0' encoding='utf-8'?>
<svg viewBox="0.0 -6.0 50.0 50.0" version="1.1" xmlns="http://www.w3.org/2000/svg"><rect x="-1000" y="-1000" width="2000" height="2000" stroke="white" fill="white" /><g style="fill:none;stroke:#000000;stroke-width:1"><path d="M 32.2 2.5 C 33.2 2.7 34.1 2.8 35.0 2.8 C 37.0 2.8 38.1 2.0 38.1 0.1 L 38.1 -9.9 C 38.1 -11.6 37.4 -12.3 34.7 -12.3 L 15.3 -12.3 C 12.6 -12.3 11.9 -11.6 11.9 -9.9 L 11.9 3.2 " transform="translate(0.0 38.0)" stroke-dasharray="59.75086980773063" stroke-dashoffset="59.75086980773063"><animate attributeName="stroke-dashoffset" from="59.75086980773063" to="0" dur="1.7925260942319188s" begin="0s" fill="freeze" /></path><path d="M 37.4 -3.0 L 12.3 -3.0 " transform="translate(0.0 38.0)" stroke-dasharray="25.099999999999998" stroke-dashoffset="25.099999999999998"><animate attributeName="stroke-dashoffset" from="25.099999999999998" to="0" dur="0.7529999999999999s" begin="1.7925260942319188s" fill="freeze" /></path><path d="M 37.4 -7.6 L 12.3 -7.6 " transform="translate(0.0 38.0)" stroke-dasharray="25.099999999999998" stroke-dashoffset="25.099999999999998"><animate attributeName="stroke-dashoffset" from="25.099999999999998" to="0" dur="0.7529999999999999s" begin="2.545526094231919s" fill="freeze" /></path><path d="M 16.8 -16.4 L 33.2 -16.4 C 35.5 -16.4 36.0 -16.9 36.0 -18.0 L 36.0 -19.4 C 36.0 -20.4 35.5 -20.9 33.2 -20.9 L 16.8 -20.9 C 14.6 -20.9 13.9 -20.4 13.9 -19.4 L 13.9 -18.0 C 13.9 -16.9 14.6 -16.4 16.8 -16.4 Z " transform="translate(0.0 38.0)" stroke-dasharray="50.4017081667159" stroke-dashoffset="50.4017081667159"><animate attributeName="stroke-dashoffset" from="50.4017081667159" to="0" dur="1.512051245001477s" begin="3.298526094231919s" fill="freeze" /></path><path d="M 44.6 -20.4 L 44.6 -22.8 C 44.6 -24.3 43.7 -25.1 41.4 -25.1 L 8.4 -25.1 C 6.1 -25.1 5.2 -24.3 5.2 -22.8 L 5.2 -19.8 " transform="translate(0.0 38.0)" stroke-dasharray="47.42428763019041" stroke-dashoffset="47.42428763019041"><animate attributeName="stroke-dashoffset" from="47.42428763019041" to="0" dur="1.4227286289057124s" begin="4.8105773392333955s" fill="freeze" /></path><path d="M 16.6 -29.1 L 33.5 -29.1 C 35.6 -29.1 36.2 -29.6 36.2 -30.8 L 36.2 -32.1 C 36.2 -33.2 35.6 -33.6 33.5 -33.6 L 16.6 -33.6 C 14.3 -33.6 13.8 -33.2 13.8 -32.1 L 13.8 -30.8 C 13.8 -29.6 14.3 -29.1 16.6 -29.1 Z " transform="translate(0.0 38.0)" stroke-dasharray="51.09319408871653" stroke-dashoffset="51.09319408871653"><animate attributeName="stroke-dashoffset" from="51.09319408871653" to="0" dur="1.532795822661496s" begin="6.233305968139108s" fill="freeze" /></path><path d="M 45.9 -37.8 L 4.2 -37.8 " transform="translate(0.0 38.0)" stroke-dasharray="41.699999999999996" stroke-dashoffset="41.699999999999996"><animate attributeName="stroke-dashoffset" from="41.699999999999996" to="0" dur="1.251s" begin="7.7661017908006045s" fill="freeze" /></path><path d="M 24.9 -37.7 L 24.9 -41.0" transform="translate(0.0 38.0)" stroke-dasharray="3.299999999999997" stroke-dashoffset="3.299999999999997"><animate attributeName="stroke-dashoffset" from="3.299999999999997" to="0" dur="0.09899999999999991s" begin="9.017101790800604s" fill="freeze" /></path></g></svg>