<?xml version='1.0' encoding='utf-8'?>
<svg viewBox="0.0 -6.0 50.0 50.0" version="1.1" xmlns="http://www.w3.org/2000/svg"><rect x="-1000" y="-1000" width="2000" height="2000" stroke="white" fill="white" /><g style="fill:none;stroke:#000000;stroke-width:1"><path d="M 46.3 -0.5 C 41.9 -0.1 37.5 0.1 31.8 0.1 C 16.9 0.1 11.7 -2.6 7.8 -10.3 " transform="translate(0.0 38.0)" stroke-dasharray="42.45474008591873" stroke-dashoffset="42.45474008591873"><animate attributeName="stroke-dashoffset" from="42.45474008591873" to="0" dur="1.2736422025775618s" begin="0s; anim_end.end" fill="freeze" id="anim0" /></path><path d="M 4.0 1.1 C 6.2 -3.5 7.9 -10.5 8.4 -16.7 " transform="translate(0.0 38.0)" stroke-dasharray="18.423857630116128" stroke-dashoffset="18.423857630116128"><animate attributeName="stroke-dashoffset" from="18.423857630116128" to="0" dur="0.5527157289034839s" begin="anim0.end" fill="freeze" id="anim1" /></path><path d="M 15.8 -2.3 L 15.8 -23.3 " transform="translate(0.0 38.0)" stroke-dasharray="21.0" stroke-dashoffset="21.0"><animate attributeName="stroke-dashoffset" from="21.0" to="0" dur="0.63s" begin="anim1.end" fill="freeze" id="anim2" /></path><path d="M 24.9 -14.3 L 15.7 -14.3 " transform="translate(0.0 38.0)" stroke-dasharray="9.2" stroke-dashoffset="9.2"><animate attributeName="stroke-dashoffset" from="9.2" to="0" dur="0.27599999999999997s" begin="anim2.end" fill="freeze" id="anim3" /></path><path d="M 27.8 -24.0 L 3.9 -24.0 " transform="translate(0.0 38.0)" stroke-dasharray="23.900000000000002" stroke-dashoffset="23.900000000000002"><animate attributeName="stroke-dashoffset" from="23.900000000000002" to="0" dur="0.7170000000000001s" begin="anim3.end" fill="freeze" id="anim4" /></path><path d="M 15.6 -24.2 L 15.6 -40.4 " transform="translate(0.0 38.0)" stroke-dasharray="16.2" stroke-dashoffset="16.2"><animate attributeName="stroke-dashoffset" from="16.2" to="0" dur="0.486s" begin="anim4.end" fill="freeze" id="anim5" /></path><path d="M 24.6 -33.3 L 7.1 -33.3 " transform="translate(0.0 38.0)" stroke-dasharray="17.5" stroke-dashoffset="17.5"><animate attributeName="stroke-dashoffset" from="17.5" to="0" dur="0.525s" begin="anim5.end" fill="freeze" id="anim6" /></path><path d="M 35.3 -5.5 L 35.3 -39.5 " transform="translate(0.0 38.0)" stroke-dasharray="34.0" stroke-dashoffset="34.0"><animate attributeName="stroke-dashoffset" from="34.0" to="0" dur="1.02s" begin="anim6.end" fill="freeze" id="anim7" /></path><path d="M 45.3 -19.6 C 42.5 -21.9 39.0 -23.9 35.5 -25.2" transform="translate(0.0 38.0)" stroke-dasharray="11.33677558686633" stroke-dashoffset="11.33677558686633"><animate attributeName="stroke-dashoffset" from="11.33677558686633" to="0" dur="0.34010326760598986s" begin="anim7.end" fill="freeze" id="anim_end" /></path></g></svg>