<?xml version='1.0' encoding='utf-8'?>
<svg viewBox="0.0 -6.0 50.0 50.0" version="1.1" xmlns="http://www.w3.org/2000/svg"><rect x="-1000" y="-1000" width="2000" height="2000" stroke="white" fill="white" /><g style="fill:none;stroke:#000000;stroke-width:1"><path d="M 37.0 -7.0 C 38.1 -6.7 39.0 -6.6 40.1 -6.6 C 42.6 -6.6 43.5 -7.7 43.5 -10.0 L 43.5 -34.5 C 43.5 -37.0 42.3 -38.3 39.2 -38.3 L 23.4 -38.3 C 20.2 -38.3 19.1 -37.0 19.1 -34.5 L 19.1 -6.2 " transform="translate(0.0 38.0)" stroke-dasharray="90.5919960215406" stroke-dashoffset="90.5919960215406"><animate attributeName="stroke-dashoffset" from="90.5919960215406" to="0" dur="2.7177598806462178s" begin="0s" fill="freeze" /></path><path d="M 3.6 1.4 C 6.3 -0.5 8.7 -2.8 10.6 -5.2 " transform="translate(0.0 38.0)" stroke-dasharray="9.653428541412685" stroke-dashoffset="9.653428541412685"><animate attributeName="stroke-dashoffset" from="9.653428541412685" to="0" dur="0.2896028562423805s" begin="2.7177598806462178s" fill="freeze" /></path><path d="M 10.7 -4.6 L 10.7 -13.6 C 10.7 -15.5 9.9 -16.2 7.5 -16.2 L 4.0 -16.2 " transform="translate(0.0 38.0)" stroke-dasharray="17.321111661722718" stroke-dashoffset="17.321111661722718"><animate attributeName="stroke-dashoffset" from="17.321111661722718" to="0" dur="0.5196333498516815s" begin="3.0073627368885982s" fill="freeze" /></path><path d="M 46.4 0.2 C 42.2 0.6 38.0 0.7 32.5 0.7 C 18.7 0.7 14.0 -1.2 10.8 -6.0 " transform="translate(0.0 38.0)" stroke-dasharray="37.648361399255634" stroke-dashoffset="37.648361399255634"><animate attributeName="stroke-dashoffset" from="37.648361399255634" to="0" dur="1.129450841977669s" begin="3.52699608674028s" fill="freeze" /></path><path d="M 9.4 -25.5 C 8.0 -26.9 6.7 -27.9 5.2 -28.8 " transform="translate(0.0 38.0)" stroke-dasharray="5.355643212875491" stroke-dashoffset="5.355643212875491"><animate attributeName="stroke-dashoffset" from="5.355643212875491" to="0" dur="0.16066929638626473s" begin="4.656446928717949s" fill="freeze" /></path><path d="M 12.2 -35.6 C 10.7 -37.1 9.5 -38.0 8.0 -39.0 " transform="translate(0.0 38.0)" stroke-dasharray="5.4139128541190535" stroke-dashoffset="5.4139128541190535"><animate attributeName="stroke-dashoffset" from="5.4139128541190535" to="0" dur="0.1624173856235716s" begin="4.817116225104213s" fill="freeze" /></path><path d="M 32.8 -29.4 L 29.7 -29.4 C 27.5 -29.4 26.8 -28.5 26.8 -26.7 L 26.8 -18.6 C 26.8 -16.8 27.5 -15.9 29.7 -15.9 L 32.8 -15.9 C 34.9 -15.9 35.6 -16.8 35.6 -18.6 L 35.6 -26.7 C 35.6 -28.5 34.9 -29.4 32.8 -29.4 Z" transform="translate(0.0 38.0)" stroke-dasharray="40.66134792643419" stroke-dashoffset="40.66134792643419"><animate attributeName="stroke-dashoffset" from="40.66134792643419" to="0" dur="1.2198404377930256s" begin="4.979533610727785s" fill="freeze" /></path></g></svg>