<?xml version='1.0' encoding='utf-8'?>
<svg viewBox="0.0 -6.0 50.0 50.0" version="1.1" xmlns="http://www.w3.org/2000/svg"><rect x="-1000" y="-1000" width="2000" height="2000" stroke="white" fill="white" /><g style="fill:none;stroke:#000000;stroke-width:1"><path d="M 19.4 1.9 C 23.4 -0.3 27.5 -4.5 29.7 -8.9 C 31.7 -12.8 32.6 -17.5 32.6 -25.6 L 32.6 -40.2 " transform="translate(0.0 38.0)" stroke-dasharray="46.84187785042837" stroke-dashoffset="46.84187785042837"><animate attributeName="stroke-dashoffset" from="46.84187785042837" to="0" dur="1.405256335512851s" begin="0s" fill="freeze" /></path><path d="M 14.2 -15.2 L 5.6 -15.2 " transform="translate(0.0 38.0)" stroke-dasharray="8.6" stroke-dashoffset="8.6"><animate attributeName="stroke-dashoffset" from="8.6" to="0" dur="0.258s" begin="1.405256335512851s" fill="freeze" /></path><path d="M 9.6 0.7 C 10.2 0.8 11.0 0.8 11.8 0.8 C 13.7 0.8 14.7 0.0 14.7 -2.3 L 14.7 -35.6 C 14.7 -38.0 13.8 -38.8 11.6 -38.8 L 9.2 -38.8 C 6.8 -38.8 6.1 -38.0 6.1 -35.6 L 6.1 -23.6 C 6.1 -11.1 5.0 -4.4 3.1 0.6 " transform="translate(0.0 38.0)" stroke-dasharray="89.80881803429166" stroke-dashoffset="89.80881803429166"><animate attributeName="stroke-dashoffset" from="89.80881803429166" to="0" dur="2.69426454102875s" begin="1.663256335512851s" fill="freeze" /></path><path d="M 14.2 -27.1 L 5.8 -27.1 " transform="translate(0.0 38.0)" stroke-dasharray="8.399999999999999" stroke-dashoffset="8.399999999999999"><animate attributeName="stroke-dashoffset" from="8.399999999999999" to="0" dur="0.25199999999999995s" begin="4.357520876541601s" fill="freeze" /></path><path d="M 45.4 0.8 C 39.5 -3.0 34.7 -9.7 32.7 -17.6 " transform="translate(0.0 38.0)" stroke-dasharray="22.87330606081076" stroke-dashoffset="22.87330606081076"><animate attributeName="stroke-dashoffset" from="22.87330606081076" to="0" dur="0.6861991818243227s" begin="4.609520876541601s" fill="freeze" /></path><path d="M 27.4 -15.6 L 24.6 -15.6 C 22.4 -15.6 21.4 -16.6 21.4 -18.7 L 21.4 -34.6 " transform="translate(0.0 38.0)" stroke-dasharray="23.837349002487763" stroke-dashoffset="23.837349002487763"><animate attributeName="stroke-dashoffset" from="23.837349002487763" to="0" dur="0.7151204700746329s" begin="5.295720058365924s" fill="freeze" /></path><path d="M 27.3 -25.8 L 21.4 -25.8 " transform="translate(0.0 38.0)" stroke-dasharray="5.900000000000002" stroke-dashoffset="5.900000000000002"><animate attributeName="stroke-dashoffset" from="5.900000000000002" to="0" dur="0.17700000000000005s" begin="6.010840528440557s" fill="freeze" /></path><path d="M 21.6 -33.9 C 23.6 -34.5 25.5 -35.5 27.4 -36.6 " transform="translate(0.0 38.0)" stroke-dasharray="6.412490470947301" stroke-dashoffset="6.412490470947301"><animate attributeName="stroke-dashoffset" from="6.412490470947301" to="0" dur="0.19237471412841903s" begin="6.187840528440557s" fill="freeze" /></path><path d="M 44.5 -25.8 L 38.3 -25.8 " transform="translate(0.0 38.0)" stroke-dasharray="6.200000000000003" stroke-dashoffset="6.200000000000003"><animate attributeName="stroke-dashoffset" from="6.200000000000003" to="0" dur="0.18600000000000008s" begin="6.380215242568975s" fill="freeze" /></path><path d="M 38.1 -15.6 L 40.2 -15.6 C 43.1 -15.6 44.2 -16.6 44.2 -18.9 L 44.2 -31.9 C 44.2 -34.2 43.1 -35.3 40.2 -35.3 L 37.8 -35.3" transform="translate(0.0 38.0)" stroke-dasharray="29.58824779143499" stroke-dashoffset="29.58824779143499"><animate attributeName="stroke-dashoffset" from="29.58824779143499" to="0" dur="0.8876474337430497s" begin="6.566215242568975s" fill="freeze" /></path></g></svg>