<?xml version='1.0' encoding='utf-8'?>
<svg viewBox="0.0 -6.0 50.0 50.0" version="1.1" xmlns="http://www.w3.org/2000/svg"><rect x="-1000" y="-1000" width="2000" height="2000" stroke="white" fill="white" /><g style="fill:none;stroke:#000000;stroke-width:1"><path d="M 45.6 0.7 C 38.5 -2.6 29.9 -9.2 25.1 -16.2 " transform="translate(0.0 38.0)" stroke-dasharray="26.84197945318522" stroke-dashoffset="26.84197945318522"><animate attributeName="stroke-dashoffset" from="26.84197945318522" to="0" dur="0.8052593835955566s" begin="0s" fill="freeze" /></path><path d="M 4.2 1.1 C 12.3 -2.7 19.7 -9.1 24.3 -16.1 " transform="translate(0.0 38.0)" stroke-dasharray="26.772454114604837" stroke-dashoffset="26.772454114604837"><animate attributeName="stroke-dashoffset" from="26.772454114604837" to="0" dur="0.8031736234381451s" begin="0.8052593835955566s" fill="freeze" /></path><path d="M 6.0 -10.4 C 9.2 -12.9 12.7 -17.1 15.1 -21.2 " transform="translate(0.0 38.0)" stroke-dasharray="14.196799486186265" stroke-dashoffset="14.196799486186265"><animate attributeName="stroke-dashoffset" from="14.196799486186265" to="0" dur="0.4259039845855879s" begin="1.6084330070337018s" fill="freeze" /></path><path d="M 16.0 -12.9 C 14.8 -14.2 13.5 -15.3 12.2 -16.3 " transform="translate(0.0 38.0)" stroke-dasharray="5.105283275209931" stroke-dashoffset="5.105283275209931"><animate attributeName="stroke-dashoffset" from="5.105283275209931" to="0" dur="0.15315849825629793s" begin="2.03433699161929s" fill="freeze" /></path><path d="M 24.8 3.1 L 24.8 -31.4 " transform="translate(0.0 38.0)" stroke-dasharray="34.5" stroke-dashoffset="34.5"><animate attributeName="stroke-dashoffset" from="34.5" to="0" dur="1.035s" begin="2.187495489875588s" fill="freeze" /></path><path d="M 44.6 -25.9 L 4.9 -25.9 " transform="translate(0.0 38.0)" stroke-dasharray="39.7" stroke-dashoffset="39.7"><animate attributeName="stroke-dashoffset" from="39.7" to="0" dur="1.191s" begin="3.2224954898755875s" fill="freeze" /></path><path d="M 31.6 -13.2 C 34.0 -15.2 36.5 -18.6 38.1 -21.2 " transform="translate(0.0 38.0)" stroke-dasharray="10.34664038093924" stroke-dashoffset="10.34664038093924"><animate attributeName="stroke-dashoffset" from="10.34664038093924" to="0" dur="0.31039921142817717s" begin="4.413495489875587s" fill="freeze" /></path><path d="M 42.4 -11.1 C 40.5 -12.9 38.0 -14.8 35.2 -16.4 " transform="translate(0.0 38.0)" stroke-dasharray="8.960844595845368" stroke-dashoffset="8.960844595845368"><animate attributeName="stroke-dashoffset" from="8.960844595845368" to="0" dur="0.268825337875361s" begin="4.723894701303765s" fill="freeze" /></path><path d="M 17.3 -31.8 L 17.3 -40.4 " transform="translate(0.0 38.0)" stroke-dasharray="8.599999999999998" stroke-dashoffset="8.599999999999998"><animate attributeName="stroke-dashoffset" from="8.599999999999998" to="0" dur="0.25799999999999995s" begin="4.992720039179126s" fill="freeze" /></path><path d="M 45.6 -35.9 L 4.3 -35.9 " transform="translate(0.0 38.0)" stroke-dasharray="41.300000000000004" stroke-dashoffset="41.300000000000004"><animate attributeName="stroke-dashoffset" from="41.300000000000004" to="0" dur="1.239s" begin="5.250720039179126s" fill="freeze" /></path><path d="M 32.3 -31.9 L 32.3 -40.4" transform="translate(0.0 38.0)" stroke-dasharray="8.5" stroke-dashoffset="8.5"><animate attributeName="stroke-dashoffset" from="8.5" to="0" dur="0.255s" begin="6.489720039179126s" fill="freeze" /></path></g></svg>