<?xml version='1.0' encoding='utf-8'?>
<svg viewBox="0.0 -6.0 50.0 50.0" version="1.1" xmlns="http://www.w3.org/2000/svg"><rect x="-1000" y="-1000" width="2000" height="2000" stroke="white" fill="white" /><g style="fill:none;stroke:#000000;stroke-width:1"><path d="M 9.2 -13.3 L 16.8 -13.3 C 19.2 -13.3 20.2 -14.2 20.2 -16.4 L 20.2 -24.8 C 20.2 -26.9 19.2 -27.8 16.8 -27.8 L 9.2 -27.8 C 6.6 -27.8 5.7 -26.9 5.7 -24.8 L 5.7 -16.4 C 5.7 -14.2 6.6 -13.3 9.2 -13.3 Z " transform="translate(0.0 38.0)" stroke-dasharray="53.421517507549524" stroke-dashoffset="53.421517507549524"><animate attributeName="stroke-dashoffset" from="53.421517507549524" to="0" dur="1.6026455252264857s" begin="0s" fill="freeze" /></path><path d="M 22.6 -6.6 L 3.0 -6.6 " transform="translate(0.0 38.0)" stroke-dasharray="19.6" stroke-dashoffset="19.6"><animate attributeName="stroke-dashoffset" from="19.6" to="0" dur="0.588s" begin="1.6026455252264857s" fill="freeze" /></path><path d="M 12.8 2.7 L 12.8 -40.5 " transform="translate(0.0 38.0)" stroke-dasharray="43.2" stroke-dashoffset="43.2"><animate attributeName="stroke-dashoffset" from="43.2" to="0" dur="1.296s" begin="2.190645525226486s" fill="freeze" /></path><path d="M 19.7 -20.8 L 5.8 -20.8 " transform="translate(0.0 38.0)" stroke-dasharray="13.899999999999999" stroke-dashoffset="13.899999999999999"><animate attributeName="stroke-dashoffset" from="13.899999999999999" to="0" dur="0.4169999999999999s" begin="3.4866455252264856s" fill="freeze" /></path><path d="M 24.6 0.1 C 30.3 -0.5 37.3 -1.9 43.0 -3.5 " transform="translate(0.0 38.0)" stroke-dasharray="18.768712532426147" stroke-dashoffset="18.768712532426147"><animate attributeName="stroke-dashoffset" from="18.768712532426147" to="0" dur="0.5630613759727844s" begin="3.9036455252264854s" fill="freeze" /></path><path d="M 28.6 -1.4 C 30.6 -7.0 32.4 -13.5 33.9 -21.2 " transform="translate(0.0 38.0)" stroke-dasharray="20.516405131962095" stroke-dashoffset="20.516405131962095"><animate attributeName="stroke-dashoffset" from="20.516405131962095" to="0" dur="0.6154921539588628s" begin="4.46670690119927s" fill="freeze" /></path><path d="M 22.5 -34.2 L 3.5 -34.2 " transform="translate(0.0 38.0)" stroke-dasharray="19.0" stroke-dashoffset="19.0"><animate attributeName="stroke-dashoffset" from="19.0" to="0" dur="0.57s" begin="5.082199055158133s" fill="freeze" /></path><path d="M 45.9 -0.1 C 44.6 -3.7 42.0 -8.4 40.1 -11.1 " transform="translate(0.0 38.0)" stroke-dasharray="12.464535737935645" stroke-dashoffset="12.464535737935645"><animate attributeName="stroke-dashoffset" from="12.464535737935645" to="0" dur="0.37393607213806934s" begin="5.652199055158134s" fill="freeze" /></path><path d="M 46.3 -21.9 L 25.4 -21.9 " transform="translate(0.0 38.0)" stroke-dasharray="20.9" stroke-dashoffset="20.9"><animate attributeName="stroke-dashoffset" from="20.9" to="0" dur="0.6269999999999999s" begin="6.026135127296203s" fill="freeze" /></path><path d="M 43.5 -35.1 L 27.9 -35.1" transform="translate(0.0 38.0)" stroke-dasharray="15.600000000000001" stroke-dashoffset="15.600000000000001"><animate attributeName="stroke-dashoffset" from="15.600000000000001" to="0" dur="0.468s" begin="6.653135127296203s" fill="freeze" /></path></g></svg>