<?xml version='1.0' encoding='utf-8'?>
<svg viewBox="0.0 -6.0 50.0 50.0" version="1.1" xmlns="http://www.w3.org/2000/svg"><rect x="-1000" y="-1000" width="2000" height="2000" stroke="white" fill="white" /><g style="fill:none;stroke:#000000;stroke-width:1"><path d="M 17.6 -0.3 C 21.4 -6.5 23.2 -13.5 23.2 -26.1 L 23.2 -35.1 C 23.2 -37.4 24.4 -38.3 27.2 -38.3 L 40.0 -38.3 C 42.8 -38.3 44.0 -37.5 44.0 -35.2 L 44.0 -32.7 C 44.0 -30.4 42.8 -29.5 40.0 -29.5 L 23.4 -29.5 " transform="translate(0.0 38.0)" stroke-dasharray="85.39960689076494" stroke-dashoffset="85.39960689076494"><animate attributeName="stroke-dashoffset" from="85.39960689076494" to="0" dur="2.561988206722948s" begin="0s; 15s; 30s; 45s" fill="freeze" id="anim0" /></path><path d="M 9.8 2.6 L 9.8 -20.4 " transform="translate(0.0 38.0)" stroke-dasharray="23.0" stroke-dashoffset="23.0"><animate attributeName="stroke-dashoffset" from="23.0" to="0" dur="0.69s" begin="anim0.end" fill="freeze" id="anim1" /></path><path d="M 3.2 -13.7 C 8.0 -17.2 12.8 -23.5 14.8 -28.7 C 15.6 -30.6 14.8 -31.6 12.7 -31.6 L 3.5 -31.6 " transform="translate(0.0 38.0)" stroke-dasharray="32.984957999582306" stroke-dashoffset="32.984957999582306"><animate attributeName="stroke-dashoffset" from="32.984957999582306" to="0" dur="0.9895487399874692s" begin="anim1.end" fill="freeze" id="anim2" /></path><path d="M 13.2 -15.2 C 14.8 -16.6 16.1 -18.1 17.3 -19.8 " transform="translate(0.0 38.0)" stroke-dasharray="6.176975079817827" stroke-dashoffset="6.176975079817827"><animate attributeName="stroke-dashoffset" from="6.176975079817827" to="0" dur="0.1853092523945348s" begin="anim2.end" fill="freeze" id="anim3" /></path><path d="M 31.6 1.5 L 40.0 1.5 C 42.6 1.5 43.5 0.5 43.5 -1.7 L 43.5 -6.5 C 43.5 -8.7 42.6 -9.7 40.0 -9.7 L 31.6 -9.7 C 28.9 -9.7 28.1 -8.7 28.1 -6.5 L 28.1 -1.7 C 28.1 0.5 28.9 1.5 31.6 1.5 Z " transform="translate(0.0 38.0)" stroke-dasharray="48.52705454878807" stroke-dashoffset="48.52705454878807"><animate attributeName="stroke-dashoffset" from="48.52705454878807" to="0" dur="1.4558116364636422s" begin="anim3.end" fill="freeze" id="anim4" /></path><path d="M 9.8 -31.6 L 9.8 -40.4 " transform="translate(0.0 38.0)" stroke-dasharray="8.799999999999997" stroke-dashoffset="8.799999999999997"><animate attributeName="stroke-dashoffset" from="8.799999999999997" to="0" dur="0.2639999999999999s" begin="anim4.end" fill="freeze" id="anim5" /></path><path d="M 35.6 -9.4 L 35.6 -24.6 " transform="translate(0.0 38.0)" stroke-dasharray="15.200000000000001" stroke-dashoffset="15.200000000000001"><animate attributeName="stroke-dashoffset" from="15.200000000000001" to="0" dur="0.456s" begin="anim5.end" fill="freeze" id="anim6" /></path><path d="M 46.9 -18.6 L 23.0 -18.6 " transform="translate(0.0 38.0)" stroke-dasharray="23.9" stroke-dashoffset="23.9"><animate attributeName="stroke-dashoffset" from="23.9" to="0" dur="0.717s" begin="anim6.end" fill="freeze" id="anim7" /></path><path d="M 10.5 -15.9 C 10.5 -15.9 15.6 -12.8 16.8 -11.5" transform="translate(0.0 38.0)" stroke-dasharray="7.697052398619385" stroke-dashoffset="7.697052398619385"><animate attributeName="stroke-dashoffset" from="7.697052398619385" to="0" dur="0.23091157195858153s" begin="anim7.end" fill="freeze" id="anim_end" /></path></g></svg>