<?xml version='1.0' encoding='utf-8'?>
<svg viewBox="0.0 -6.0 50.0 50.0" version="1.1" xmlns="http://www.w3.org/2000/svg"><rect x="-1000" y="-1000" width="2000" height="2000" stroke="white" fill="white" /><g style="fill:none;stroke:#000000;stroke-width:1"><path d="M 37.5 1.6 C 38.4 1.7 39.1 1.8 39.6 1.8 C 41.9 1.8 42.9 1.0 42.9 -1.4 L 42.9 -16.8 C 42.9 -18.7 42.0 -19.7 39.1 -19.7 L 23.8 -19.7 C 20.9 -19.7 20.0 -18.7 20.0 -16.8 L 20.0 2.0 " transform="translate(0.0 38.0)" stroke-dasharray="68.0309578586982" stroke-dashoffset="68.0309578586982"><animate attributeName="stroke-dashoffset" from="68.0309578586982" to="0" dur="2.040928735760946s" begin="0s" fill="freeze" /></path><path d="M 6.0 1.3 C 8.6 -2.2 10.5 -5.8 12.1 -9.9 " transform="translate(0.0 38.0)" stroke-dasharray="12.792966587305072" stroke-dashoffset="12.792966587305072"><animate attributeName="stroke-dashoffset" from="12.792966587305072" to="0" dur="0.38378899761915214s" begin="2.040928735760946s" fill="freeze" /></path><path d="M 8.9 -17.4 C 7.7 -18.6 5.9 -20.0 4.5 -20.9 " transform="translate(0.0 38.0)" stroke-dasharray="5.631301612651937" stroke-dashoffset="5.631301612651937"><animate attributeName="stroke-dashoffset" from="5.631301612651937" to="0" dur="0.1689390483795581s" begin="2.424717733380098s" fill="freeze" /></path><path d="M 12.3 -26.3 C 11.0 -27.8 9.6 -28.9 8.3 -29.7 " transform="translate(0.0 38.0)" stroke-dasharray="5.2702140753997195" stroke-dashoffset="5.2702140753997195"><animate attributeName="stroke-dashoffset" from="5.2702140753997195" to="0" dur="0.1581064222619916s" begin="2.5936567817596563s" fill="freeze" /></path><path d="M 42.1 -7.1 L 20.9 -7.1 " transform="translate(0.0 38.0)" stroke-dasharray="21.200000000000003" stroke-dashoffset="21.200000000000003"><animate attributeName="stroke-dashoffset" from="21.200000000000003" to="0" dur="0.636s" begin="2.751763204021648s" fill="freeze" /></path><path d="M 42.1 -13.4 L 20.9 -13.4 " transform="translate(0.0 38.0)" stroke-dasharray="21.200000000000003" stroke-dashoffset="21.200000000000003"><animate attributeName="stroke-dashoffset" from="21.200000000000003" to="0" dur="0.636s" begin="3.387763204021648s" fill="freeze" /></path><path d="M 31.3 1.6 L 31.3 -30.1 " transform="translate(0.0 38.0)" stroke-dasharray="31.700000000000003" stroke-dashoffset="31.700000000000003"><animate attributeName="stroke-dashoffset" from="31.700000000000003" to="0" dur="0.9510000000000001s" begin="4.023763204021648s" fill="freeze" /></path><path d="M 17.9 -32.7 L 17.9 -40.5 " transform="translate(0.0 38.0)" stroke-dasharray="7.799999999999997" stroke-dashoffset="7.799999999999997"><animate attributeName="stroke-dashoffset" from="7.799999999999997" to="0" dur="0.2339999999999999s" begin="4.974763204021649s" fill="freeze" /></path><path d="M 46.0 -25.6 L 17.6 -25.6 " transform="translate(0.0 38.0)" stroke-dasharray="28.4" stroke-dashoffset="28.4"><animate attributeName="stroke-dashoffset" from="28.4" to="0" dur="0.852s" begin="5.208763204021649s" fill="freeze" /></path><path d="M 45.9 -36.4 L 4.0 -36.4 " transform="translate(0.0 38.0)" stroke-dasharray="41.9" stroke-dashoffset="41.9"><animate attributeName="stroke-dashoffset" from="41.9" to="0" dur="1.257s" begin="6.060763204021649s" fill="freeze" /></path><path d="M 31.8 -33.5 L 31.8 -40.5 " transform="translate(0.0 38.0)" stroke-dasharray="7.0" stroke-dashoffset="7.0"><animate attributeName="stroke-dashoffset" from="7.0" to="0" dur="0.21s" begin="7.317763204021649s" fill="freeze" /></path><path d="M 40.6 -29.2 C 39.7 -29.9 38.5 -30.6 37.5 -31.2" transform="translate(0.0 38.0)" stroke-dasharray="3.6914182645296183" stroke-dashoffset="3.6914182645296183"><animate attributeName="stroke-dashoffset" from="3.6914182645296183" to="0" dur="0.11074254793588854s" begin="7.527763204021649s" fill="freeze" /></path></g></svg>