<?xml version='1.0' encoding='utf-8'?>
<svg viewBox="0.0 -6.0 50.0 50.0" version="1.1" xmlns="http://www.w3.org/2000/svg"><rect x="-1000" y="-1000" width="2000" height="2000" stroke="white" fill="white" /><g style="fill:none;stroke:#000000;stroke-width:1"><path d="M 28.1 -22.1 L 40.5 -22.1 C 43.0 -22.1 44.0 -23.2 44.0 -25.1 L 44.0 -32.5 C 44.0 -34.4 43.0 -35.5 40.5 -35.5 L 28.1 -35.5 C 25.6 -35.5 24.6 -34.4 24.6 -32.5 L 24.6 -25.1 C 24.6 -23.2 25.6 -22.1 28.1 -22.1 Z " transform="translate(0.0 38.0)" stroke-dasharray="60.774638121889055" stroke-dashoffset="60.774638121889055"><animate attributeName="stroke-dashoffset" from="60.774638121889055" to="0" dur="1.8232391436566715s" begin="0s; 15s; 30s; 45s" fill="freeze" id="anim0" /></path><path d="M 3.0 -7.1 C 7.0 -7.8 11.5 -8.9 15.7 -10.2 " transform="translate(0.0 38.0)" stroke-dasharray="13.081207295259297" stroke-dashoffset="13.081207295259297"><animate attributeName="stroke-dashoffset" from="13.081207295259297" to="0" dur="0.3924362188577789s" begin="anim0.end" fill="freeze" id="anim1" /></path><path d="M 7.2 -8.8 L 7.2 -37.0 " transform="translate(0.0 38.0)" stroke-dasharray="28.2" stroke-dashoffset="28.2"><animate attributeName="stroke-dashoffset" from="28.2" to="0" dur="0.846s" begin="anim1.end" fill="freeze" id="anim2" /></path><path d="M 15.9 -18.9 L 7.7 -18.9 " transform="translate(0.0 38.0)" stroke-dasharray="8.2" stroke-dashoffset="8.2"><animate attributeName="stroke-dashoffset" from="8.2" to="0" dur="0.24599999999999997s" begin="anim2.end" fill="freeze" id="anim3" /></path><path d="M 16.2 2.5 L 16.2 -37.1 " transform="translate(0.0 38.0)" stroke-dasharray="39.6" stroke-dashoffset="39.6"><animate attributeName="stroke-dashoffset" from="39.6" to="0" dur="1.188s" begin="anim3.end" fill="freeze" id="anim4" /></path><path d="M 26.8 -7.0 C 27.9 -9.3 29.1 -12.2 30.3 -15.8 " transform="translate(0.0 38.0)" stroke-dasharray="9.476495707139868" stroke-dashoffset="9.476495707139868"><animate attributeName="stroke-dashoffset" from="9.476495707139868" to="0" dur="0.28429487121419605s" begin="anim4.end" fill="freeze" id="anim5" /></path><path d="M 34.2 1.4 C 35.2 1.6 36.1 1.7 37.0 1.7 C 39.1 1.7 40.2 0.8 41.0 -1.3 C 41.5 -3.0 41.9 -4.5 42.0 -6.3 C 42.2 -8.0 41.4 -9.0 39.0 -9.0 L 28.4 -9.0 " transform="translate(0.0 38.0)" stroke-dasharray="28.717296089318676" stroke-dashoffset="28.717296089318676"><animate attributeName="stroke-dashoffset" from="28.717296089318676" to="0" dur="0.8615188826795602s" begin="anim5.end" fill="freeze" id="anim6" /></path><path d="M 15.9 -28.3 L 7.7 -28.3 " transform="translate(0.0 38.0)" stroke-dasharray="8.2" stroke-dashoffset="8.2"><animate attributeName="stroke-dashoffset" from="8.2" to="0" dur="0.24599999999999997s" begin="anim6.end" fill="freeze" id="anim7" /></path><path d="M 20.6 -37.5 L 3.4 -37.5 " transform="translate(0.0 38.0)" stroke-dasharray="17.200000000000003" stroke-dashoffset="17.200000000000003"><animate attributeName="stroke-dashoffset" from="17.200000000000003" to="0" dur="0.516s" begin="anim7.end" fill="freeze" id="anim8" /></path><path d="M 46.5 -15.7 L 21.4 -15.7 " transform="translate(0.0 38.0)" stroke-dasharray="25.1" stroke-dashoffset="25.1"><animate attributeName="stroke-dashoffset" from="25.1" to="0" dur="0.753s" begin="anim8.end" fill="freeze" id="anim9" /></path><path d="M 43.3 -28.9 L 25.5 -28.9 " transform="translate(0.0 38.0)" stroke-dasharray="17.799999999999997" stroke-dashoffset="17.799999999999997"><animate attributeName="stroke-dashoffset" from="17.799999999999997" to="0" dur="0.5339999999999999s" begin="anim9.end" fill="freeze" id="anim10" /></path><path d="M 34.0 -22.4 L 34.0 -40.3" transform="translate(0.0 38.0)" stroke-dasharray="17.9" stroke-dashoffset="17.9"><animate attributeName="stroke-dashoffset" from="17.9" to="0" dur="0.5369999999999999s" begin="anim10.end" fill="freeze" id="anim_end" /></path></g></svg>