<?xml version='1.0' encoding='utf-8'?>
<svg viewBox="0.0 -6.0 50.0 50.0" version="1.1" xmlns="http://www.w3.org/2000/svg"><rect x="-1000" y="-1000" width="2000" height="2000" stroke="white" fill="white" /><g style="fill:none;stroke:#000000;stroke-width:1"><path d="M 4.2 -0.8 C 17.8 -1.1 33.0 -1.9 46.1 -3.5 " transform="translate(0.0 38.0)" stroke-dasharray="42.003171971384695" stroke-dashoffset="42.003171971384695"><animate attributeName="stroke-dashoffset" from="42.003171971384695" to="0" dur="1.2600951591415408s" begin="0s" fill="freeze" /></path><path d="M 12.9 -1.4 L 12.9 -17.6 " transform="translate(0.0 38.0)" stroke-dasharray="16.200000000000003" stroke-dashoffset="16.200000000000003"><animate attributeName="stroke-dashoffset" from="16.200000000000003" to="0" dur="0.48600000000000004s" begin="1.2600951591415408s" fill="freeze" /></path><path d="M 36.6 -7.2 L 13.1 -7.2 " transform="translate(0.0 38.0)" stroke-dasharray="23.5" stroke-dashoffset="23.5"><animate attributeName="stroke-dashoffset" from="23.5" to="0" dur="0.705s" begin="1.7460951591415408s" fill="freeze" /></path><path d="M 36.6 -12.7 L 13.1 -12.7 " transform="translate(0.0 38.0)" stroke-dasharray="23.5" stroke-dashoffset="23.5"><animate attributeName="stroke-dashoffset" from="23.5" to="0" dur="0.705s" begin="2.451095159141541s" fill="freeze" /></path><path d="M 5.5 -21.5 C 12.1 -23.9 15.9 -28.4 16.1 -36.6 " transform="translate(0.0 38.0)" stroke-dasharray="19.841543662462406" stroke-dashoffset="19.841543662462406"><animate attributeName="stroke-dashoffset" from="19.841543662462406" to="0" dur="0.5952463098738722s" begin="3.156095159141541s" fill="freeze" /></path><path d="M 45.8 -18.0 L 4.3 -18.0 " transform="translate(0.0 38.0)" stroke-dasharray="41.5" stroke-dashoffset="41.5"><animate attributeName="stroke-dashoffset" from="41.5" to="0" dur="1.2449999999999999s" begin="3.751341469015413s" fill="freeze" /></path><path d="M 36.8 3.1 L 36.8 -17.8 " transform="translate(0.0 38.0)" stroke-dasharray="20.900000000000002" stroke-dashoffset="20.900000000000002"><animate attributeName="stroke-dashoffset" from="20.900000000000002" to="0" dur="0.627s" begin="4.996341469015413s" fill="freeze" /></path><path d="M 22.1 -22.5 C 19.8 -24.2 17.4 -25.7 13.9 -27.2 " transform="translate(0.0 38.0)" stroke-dasharray="9.474682175106317" stroke-dashoffset="9.474682175106317"><animate attributeName="stroke-dashoffset" from="9.474682175106317" to="0" dur="0.28424046525318947s" begin="5.623341469015413s" fill="freeze" /></path><path d="M 25.1 -30.6 L 4.7 -30.6 " transform="translate(0.0 38.0)" stroke-dasharray="20.400000000000002" stroke-dashoffset="20.400000000000002"><animate attributeName="stroke-dashoffset" from="20.400000000000002" to="0" dur="0.612s" begin="5.9075819342686025s" fill="freeze" /></path><path d="M 7.2 -34.5 C 8.6 -36.2 9.9 -38.4 10.9 -40.6 " transform="translate(0.0 38.0)" stroke-dasharray="7.153760579633761" stroke-dashoffset="7.153760579633761"><animate attributeName="stroke-dashoffset" from="7.153760579633761" to="0" dur="0.2146128173890128s" begin="6.5195819342686026s" fill="freeze" /></path><path d="M 23.0 -37.0 L 8.9 -37.0 " transform="translate(0.0 38.0)" stroke-dasharray="14.1" stroke-dashoffset="14.1"><animate attributeName="stroke-dashoffset" from="14.1" to="0" dur="0.423s" begin="6.734194751657616s" fill="freeze" /></path><path d="M 34.2 -24.7 L 40.1 -24.7 C 42.5 -24.7 43.5 -25.4 43.5 -27.4 L 43.5 -34.6 C 43.5 -36.5 42.5 -37.4 40.1 -37.4 L 34.2 -37.4 C 31.8 -37.4 30.9 -36.5 30.9 -34.6 L 30.9 -27.4 C 30.9 -25.4 31.8 -24.7 34.2 -24.7 Z" transform="translate(0.0 38.0)" stroke-dasharray="46.313812824939646" stroke-dashoffset="46.313812824939646"><animate attributeName="stroke-dashoffset" from="46.313812824939646" to="0" dur="1.3894143847481892s" begin="7.157194751657616s" fill="freeze" /></path></g></svg>