<?xml version='1.0' encoding='utf-8'?>
<svg viewBox="0.0 -6.0 50.0 50.0" version="1.1" xmlns="http://www.w3.org/2000/svg"><rect x="-1000" y="-1000" width="2000" height="2000" stroke="white" fill="white" /><g style="fill:none;stroke:#000000;stroke-width:1"><path d="M 39.6 1.7 C 40.2 1.8 40.9 1.9 41.5 1.9 C 43.6 1.9 44.6 1.1 44.6 -1.6 L 44.6 -21.6 C 44.6 -23.9 43.6 -25.0 40.5 -25.0 L 29.3 -25.0 C 26.2 -25.0 25.1 -23.9 25.1 -21.6 L 25.1 2.2 " transform="translate(0.0 38.0)" stroke-dasharray="74.81272427482313" stroke-dashoffset="74.81272427482313"><animate attributeName="stroke-dashoffset" from="74.81272427482313" to="0" dur="2.2443817282446936s" begin="0s" fill="freeze" /></path><path d="M 9.3 1.2 L 14.8 1.2 C 17.1 1.2 18.1 0.4 18.1 -1.6 L 18.1 -7.2 C 18.1 -9.1 17.1 -9.9 14.9 -9.9 L 9.2 -9.9 C 6.9 -9.9 6.0 -9.1 6.0 -7.2 L 6.0 -1.6 C 6.0 0.4 7.0 1.2 9.3 1.2 Z " transform="translate(0.0 38.0)" stroke-dasharray="42.123893345424605" stroke-dashoffset="42.123893345424605"><animate attributeName="stroke-dashoffset" from="42.123893345424605" to="0" dur="1.2637168003627381s" begin="2.2443817282446936s" fill="freeze" /></path><path d="M 19.8 -16.8 L 3.8 -16.8 " transform="translate(0.0 38.0)" stroke-dasharray="16.0" stroke-dashoffset="16.0"><animate attributeName="stroke-dashoffset" from="16.0" to="0" dur="0.48s" begin="3.508098528607432s" fill="freeze" /></path><path d="M 18.0 -23.9 L 6.3 -23.9 " transform="translate(0.0 38.0)" stroke-dasharray="11.7" stroke-dashoffset="11.7"><animate attributeName="stroke-dashoffset" from="11.7" to="0" dur="0.351s" begin="3.988098528607432s" fill="freeze" /></path><path d="M 12.0 -16.7 L 12.0 -29.2 " transform="translate(0.0 38.0)" stroke-dasharray="12.5" stroke-dashoffset="12.5"><animate attributeName="stroke-dashoffset" from="12.5" to="0" dur="0.375s" begin="4.3390985286074315s" fill="freeze" /></path><path d="M 3.5 -28.1 C 6.5 -30.8 10.2 -35.2 12.6 -39.5 " transform="translate(0.0 38.0)" stroke-dasharray="14.64411637593745" stroke-dashoffset="14.64411637593745"><animate attributeName="stroke-dashoffset" from="14.64411637593745" to="0" dur="0.4393234912781235s" begin="4.7140985286074315s" fill="freeze" /></path><path d="M 44.0 -8.9 L 25.4 -8.9 " transform="translate(0.0 38.0)" stroke-dasharray="18.6" stroke-dashoffset="18.6"><animate attributeName="stroke-dashoffset" from="18.6" to="0" dur="0.558s" begin="5.153422019885555s" fill="freeze" /></path><path d="M 19.3 -31.3 C 17.5 -33.4 14.8 -35.9 11.9 -37.6 " transform="translate(0.0 38.0)" stroke-dasharray="9.75976224832515" stroke-dashoffset="9.75976224832515"><animate attributeName="stroke-dashoffset" from="9.75976224832515" to="0" dur="0.29279286744975447s" begin="5.711422019885555s" fill="freeze" /></path><path d="M 44.0 -17.0 L 25.4 -17.0 " transform="translate(0.0 38.0)" stroke-dasharray="18.6" stroke-dashoffset="18.6"><animate attributeName="stroke-dashoffset" from="18.6" to="0" dur="0.558s" begin="6.004214887335309s" fill="freeze" /></path><path d="M 34.6 1.4 L 34.6 -40.0 " transform="translate(0.0 38.0)" stroke-dasharray="41.4" stroke-dashoffset="41.4"><animate attributeName="stroke-dashoffset" from="41.4" to="0" dur="1.242s" begin="6.562214887335309s" fill="freeze" /></path><path d="M 46.6 -32.5 L 23.9 -32.5 " transform="translate(0.0 38.0)" stroke-dasharray="22.700000000000003" stroke-dashoffset="22.700000000000003"><animate attributeName="stroke-dashoffset" from="22.700000000000003" to="0" dur="0.681s" begin="7.804214887335309s" fill="freeze" /></path><path d="M 43.1 -37.0 C 42.2 -37.7 41.1 -38.4 40.1 -39.0" transform="translate(0.0 38.0)" stroke-dasharray="3.6076379209371727" stroke-dashoffset="3.6076379209371727"><animate attributeName="stroke-dashoffset" from="3.6076379209371727" to="0" dur="0.10822913762811517s" begin="8.48521488733531s" fill="freeze" /></path></g></svg>