<?xml version='1.0' encoding='utf-8'?>
<svg viewBox="0.0 -6.0 50.0 50.0" version="1.1" xmlns="http://www.w3.org/2000/svg"><rect x="-1000" y="-1000" width="2000" height="2000" stroke="white" fill="white" /><g style="fill:none;stroke:#000000;stroke-width:1"><path d="M 42.8 -6.8 L 42.8 -17.4 C 42.8 -19.1 42.0 -19.9 39.6 -19.9 L 32.0 -19.9 C 29.6 -19.9 28.9 -19.1 28.9 -17.4 L 28.9 -6.8 C 28.9 -5.2 29.6 -4.3 32.0 -4.3 L 39.6 -4.3 C 42.0 -4.3 42.8 -5.2 42.8 -6.8 Z " transform="translate(0.0 38.0)" stroke-dasharray="55.03763536417422" stroke-dashoffset="55.03763536417422"><animate attributeName="stroke-dashoffset" from="55.03763536417422" to="0" dur="1.6511290609252265s" begin="0s" fill="freeze" /></path><path d="M 4.0 -0.9 C 7.6 -3.8 10.7 -7.2 12.8 -10.7 " transform="translate(0.0 38.0)" stroke-dasharray="13.237291161373832" stroke-dashoffset="13.237291161373832"><animate attributeName="stroke-dashoffset" from="13.237291161373832" to="0" dur="0.39711873484121496s" begin="1.6511290609252265s" fill="freeze" /></path><path d="M 20.6 -4.2 C 19.0 -5.4 17.1 -6.5 15.1 -7.5 " transform="translate(0.0 38.0)" stroke-dasharray="6.422496571571002" stroke-dashoffset="6.422496571571002"><animate attributeName="stroke-dashoffset" from="6.422496571571002" to="0" dur="0.19267489714713004s" begin="2.0482477957664416s" fill="freeze" /></path><path d="M 24.2 2.2 C 26.8 1.5 29.4 0.2 31.4 -1.0 " transform="translate(0.0 38.0)" stroke-dasharray="7.903211662354418" stroke-dashoffset="7.903211662354418"><animate attributeName="stroke-dashoffset" from="7.903211662354418" to="0" dur="0.23709634987063255s" begin="2.2409226929135717s" fill="freeze" /></path><path d="M 14.1 2.8 L 14.1 -31.1 " transform="translate(0.0 38.0)" stroke-dasharray="33.9" stroke-dashoffset="33.9"><animate attributeName="stroke-dashoffset" from="33.9" to="0" dur="1.017s" begin="2.4780190427842044s" fill="freeze" /></path><path d="M 21.6 -14.9 L 21.6 -17.9 C 21.6 -19.5 20.8 -20.2 18.5 -20.2 L 9.5 -20.2 C 7.3 -20.2 6.5 -19.5 6.5 -17.9 L 6.5 -14.9 C 6.5 -13.4 7.3 -12.6 9.5 -12.6 L 18.5 -12.6 C 20.8 -12.6 21.6 -13.4 21.6 -14.9 Z " transform="translate(0.0 38.0)" stroke-dasharray="41.637400282237394" stroke-dashoffset="41.637400282237394"><animate attributeName="stroke-dashoffset" from="41.637400282237394" to="0" dur="1.2491220084671217s" begin="3.4950190427842043s" fill="freeze" /></path><path d="M 22.4 -26.4 L 4.7 -26.4 " transform="translate(0.0 38.0)" stroke-dasharray="17.7" stroke-dashoffset="17.7"><animate attributeName="stroke-dashoffset" from="17.7" to="0" dur="0.5309999999999999s" begin="4.744141051251326s" fill="freeze" /></path><path d="M 45.2 1.9 C 43.2 1.1 41.0 -0.1 39.6 -1.1 " transform="translate(0.0 38.0)" stroke-dasharray="6.365945856012846" stroke-dashoffset="6.365945856012846"><animate attributeName="stroke-dashoffset" from="6.365945856012846" to="0" dur="0.1909783756803854s" begin="5.2751410512513255s" fill="freeze" /></path><path d="M 42.6 -9.6 L 29.9 -9.6 " transform="translate(0.0 38.0)" stroke-dasharray="12.700000000000003" stroke-dashoffset="12.700000000000003"><animate attributeName="stroke-dashoffset" from="12.700000000000003" to="0" dur="0.38100000000000006s" begin="5.466119426931711s" fill="freeze" /></path><path d="M 42.4 -14.7 L 29.7 -14.7 " transform="translate(0.0 38.0)" stroke-dasharray="12.7" stroke-dashoffset="12.7"><animate attributeName="stroke-dashoffset" from="12.7" to="0" dur="0.38099999999999995s" begin="5.8471194269317115s" fill="freeze" /></path><path d="M 26.0 -21.5 C 29.8 -23.4 32.5 -26.1 33.6 -29.7 " transform="translate(0.0 38.0)" stroke-dasharray="11.505569855090265" stroke-dashoffset="11.505569855090265"><animate attributeName="stroke-dashoffset" from="11.505569855090265" to="0" dur="0.3451670956527079s" begin="6.228119426931712s" fill="freeze" /></path><path d="M 17.9 -34.0 L 17.9 -40.8 " transform="translate(0.0 38.0)" stroke-dasharray="6.799999999999997" stroke-dashoffset="6.799999999999997"><animate attributeName="stroke-dashoffset" from="6.799999999999997" to="0" dur="0.2039999999999999s" begin="6.57328652258442s" fill="freeze" /></path><path d="M 45.6 -37.1 L 4.2 -37.1 " transform="translate(0.0 38.0)" stroke-dasharray="41.4" stroke-dashoffset="41.4"><animate attributeName="stroke-dashoffset" from="41.4" to="0" dur="1.242s" begin="6.777286522584419s" fill="freeze" /></path><path d="M 38.4 -23.7 C 39.2 -23.6 39.8 -23.5 40.5 -23.5 C 42.2 -23.5 43.0 -24.1 43.5 -25.4 C 43.7 -26.2 43.8 -27.0 43.9 -27.8 C 44.0 -29.2 43.2 -29.9 41.2 -29.9 L 27.1 -29.9 " transform="translate(0.0 38.0)" stroke-dasharray="26.474928924390504" stroke-dashoffset="26.474928924390504"><animate attributeName="stroke-dashoffset" from="26.474928924390504" to="0" dur="0.7942478677317151s" begin="8.01928652258442s" fill="freeze" /></path><path d="M 31.6 -34.0 L 31.6 -40.8" transform="translate(0.0 38.0)" stroke-dasharray="6.799999999999997" stroke-dashoffset="6.799999999999997"><animate attributeName="stroke-dashoffset" from="6.799999999999997" to="0" dur="0.2039999999999999s" begin="8.813534390316134s" fill="freeze" /></path></g></svg>