<?xml version='1.0' encoding='utf-8'?>
<svg viewBox="0.0 -6.0 50.0 50.0" version="1.1" xmlns="http://www.w3.org/2000/svg"><rect x="-1000" y="-1000" width="2000" height="2000" stroke="white" fill="white" /><g style="fill:none;stroke:#000000;stroke-width:1"><path d="M 20.8 1.6 C 21.7 1.8 22.4 1.9 23.2 1.9 C 25.4 1.9 26.3 0.8 26.3 -1.1 L 26.3 -25.4 C 26.3 -27.6 25.1 -28.5 22.8 -28.5 L 9.0 -28.5 C 6.5 -28.5 5.4 -27.6 5.4 -25.4 L 5.4 2.5 " transform="translate(0.0 38.0)" stroke-dasharray="84.27105225160702" stroke-dashoffset="84.27105225160702"><animate attributeName="stroke-dashoffset" from="84.27105225160702" to="0" dur="2.5281315675482103s" begin="0s; 15s; 30s; 45s" fill="freeze" id="anim0" /></path><path d="M 12.3 -2.4 L 12.3 -27.9 " transform="translate(0.0 38.0)" stroke-dasharray="25.5" stroke-dashoffset="25.5"><animate attributeName="stroke-dashoffset" from="25.5" to="0" dur="0.765s" begin="anim0.end" fill="freeze" id="anim1" /></path><path d="M 19.2 -2.5 L 19.2 -28.0 " transform="translate(0.0 38.0)" stroke-dasharray="25.5" stroke-dashoffset="25.5"><animate attributeName="stroke-dashoffset" from="25.5" to="0" dur="0.765s" begin="anim1.end" fill="freeze" id="anim2" /></path><path d="M 13.4 -28.9 C 14.5 -31.6 15.3 -34.4 15.9 -37.3 " transform="translate(0.0 38.0)" stroke-dasharray="8.77644491149429" stroke-dashoffset="8.77644491149429"><animate attributeName="stroke-dashoffset" from="8.77644491149429" to="0" dur="0.2632933473448287s" begin="anim2.end" fill="freeze" id="anim3" /></path><path d="M 35.4 -12.6 C 34.5 -14.3 33.3 -16.1 32.1 -17.5 " transform="translate(0.0 38.0)" stroke-dasharray="5.918846401118298" stroke-dashoffset="5.918846401118298"><animate attributeName="stroke-dashoffset" from="5.918846401118298" to="0" dur="0.17756539203354893s" begin="anim3.end" fill="freeze" id="anim4" /></path><path d="M 29.1 -38.0 L 3.4 -38.0 " transform="translate(0.0 38.0)" stroke-dasharray="25.700000000000003" stroke-dashoffset="25.700000000000003"><animate attributeName="stroke-dashoffset" from="25.700000000000003" to="0" dur="0.771s" begin="anim4.end" fill="freeze" id="anim5" /></path><path d="M 34.6 1.2 C 35.8 1.5 36.8 1.6 37.8 1.6 C 39.9 1.6 41.1 0.8 41.1 -1.8 L 41.1 -40.0 " transform="translate(0.0 38.0)" stroke-dasharray="46.92907138047753" stroke-dashoffset="46.92907138047753"><animate attributeName="stroke-dashoffset" from="46.92907138047753" to="0" dur="1.4078721414143258s" begin="anim5.end" fill="freeze" id="anim6" /></path><path d="M 47.2 -26.6 L 30.8 -26.6" transform="translate(0.0 38.0)" stroke-dasharray="16.400000000000002" stroke-dashoffset="16.400000000000002"><animate attributeName="stroke-dashoffset" from="16.400000000000002" to="0" dur="0.49200000000000005s" begin="anim6.end" fill="freeze" id="anim_end" /></path></g></svg>