<?xml version='1.0' encoding='utf-8'?>
<svg viewBox="0.0 -6.0 50.0 50.0" version="1.1" xmlns="http://www.w3.org/2000/svg"><rect x="-1000" y="-1000" width="2000" height="2000" stroke="white" fill="white" /><g style="fill:none;stroke:#000000;stroke-width:1"><path d="M 3.8 -0.1 C 6.8 -6.2 8.3 -14.2 8.3 -25.1 L 8.3 -30.1 C 8.3 -32.5 9.4 -33.8 12.8 -33.8 L 40.8 -33.8 C 42.8 -33.8 43.6 -33.0 43.6 -31.4 L 43.6 -29.5 " transform="translate(0.0 38.0)" stroke-dasharray="71.51412925696016" stroke-dashoffset="71.51412925696016"><animate attributeName="stroke-dashoffset" from="71.51412925696016" to="0" dur="2.145423877708805s" begin="0s" fill="freeze" /></path><path d="M 11.3 2.6 C 20.6 1.2 25.6 -2.4 27.2 -10.1 " transform="translate(0.0 38.0)" stroke-dasharray="21.9745054671982" stroke-dashoffset="21.9745054671982"><animate attributeName="stroke-dashoffset" from="21.9745054671982" to="0" dur="0.659235164015946s" begin="2.145423877708805s" fill="freeze" /></path><path d="M 34.5 1.6 C 35.4 1.9 36.5 1.9 37.5 1.9 C 39.6 1.9 40.6 1.4 41.4 -0.3 C 41.8 -1.4 42.0 -2.2 42.1 -3.5 C 42.3 -5.1 41.4 -5.8 39.2 -5.8 L 13.3 -5.7 " transform="translate(0.0 38.0)" stroke-dasharray="41.4149117593582" stroke-dashoffset="41.4149117593582"><animate attributeName="stroke-dashoffset" from="41.4149117593582" to="0" dur="1.2424473527807458s" begin="2.804659041724751s" fill="freeze" /></path><path d="M 27.9 -10.8 L 27.9 -19.4 " transform="translate(0.0 38.0)" stroke-dasharray="8.599999999999998" stroke-dashoffset="8.599999999999998"><animate attributeName="stroke-dashoffset" from="8.599999999999998" to="0" dur="0.25799999999999995s" begin="4.047106394505496s" fill="freeze" /></path><path d="M 19.8 -10.6 L 36.6 -10.6 C 39.1 -10.6 39.9 -11.5 39.9 -13.0 L 39.9 -17.8 C 39.9 -19.3 39.1 -20.1 36.6 -20.1 L 19.8 -20.1 C 17.2 -20.1 16.5 -19.3 16.5 -17.8 L 16.5 -13.0 C 16.5 -11.5 17.2 -10.6 19.8 -10.6 Z " transform="translate(0.0 38.0)" stroke-dasharray="61.86334001176246" stroke-dashoffset="61.86334001176246"><animate attributeName="stroke-dashoffset" from="61.86334001176246" to="0" dur="1.8559002003528737s" begin="4.305106394505496s" fill="freeze" /></path><path d="M 39.4 -15.4 L 17.1 -15.4 " transform="translate(0.0 38.0)" stroke-dasharray="22.299999999999997" stroke-dashoffset="22.299999999999997"><animate attributeName="stroke-dashoffset" from="22.299999999999997" to="0" dur="0.6689999999999999s" begin="6.16100659485837s" fill="freeze" /></path><path d="M 14.2 -28.4 L 33.8 -29.5 " transform="translate(0.0 38.0)" stroke-dasharray="19.63084307919555" stroke-dashoffset="19.63084307919555"><animate attributeName="stroke-dashoffset" from="19.63084307919555" to="0" dur="0.5889252923758664s" begin="6.83000659485837s" fill="freeze" /></path><path d="M 38.5 -27.9 C 38.0 -25.1 36.8 -24.4 29.9 -24.4 C 23.1 -24.4 22.3 -24.7 22.3 -26.7 L 22.3 -33.0 " transform="translate(0.0 38.0)" stroke-dasharray="25.51554777996928" stroke-dashoffset="25.51554777996928"><animate attributeName="stroke-dashoffset" from="25.51554777996928" to="0" dur="0.7654664333990783s" begin="7.418931887234236s" fill="freeze" /></path><path d="M 24.9 -34.3 L 24.9 -41.5 " transform="translate(0.0 38.0)" stroke-dasharray="7.200000000000003" stroke-dashoffset="7.200000000000003"><animate attributeName="stroke-dashoffset" from="7.200000000000003" to="0" dur="0.21600000000000008s" begin="8.184398320633314s" fill="freeze" /></path><path d="M 38.8 -38.8 L 24.9 -38.8" transform="translate(0.0 38.0)" stroke-dasharray="13.899999999999999" stroke-dashoffset="13.899999999999999"><animate attributeName="stroke-dashoffset" from="13.899999999999999" to="0" dur="0.4169999999999999s" begin="8.400398320633313s" fill="freeze" /></path></g></svg>