<?xml version='1.0' encoding='utf-8'?>
<svg viewBox="0.0 -6.0 50.0 50.0" version="1.1" xmlns="http://www.w3.org/2000/svg"><rect x="-1000" y="-1000" width="2000" height="2000" stroke="white" fill="white" /><g style="fill:none;stroke:#000000;stroke-width:1"><path d="M 16.9 -27.6 L 16.9 -20.6 C 16.9 -18.4 17.9 -17.8 24.6 -17.8 C 31.9 -17.8 33.6 -19.1 34.0 -23.4 " transform="translate(0.0 38.0)" stroke-dasharray="28.785190670896647" stroke-dashoffset="28.785190670896647"><animate attributeName="stroke-dashoffset" from="28.785190670896647" to="0" dur="0.8635557201268994s" begin="0s; anim_end.end" fill="freeze" id="anim0" /></path><path d="M 3.3 -1.8 C 4.2 -3.4 4.8 -5.2 5.3 -7.2 " transform="translate(0.0 38.0)" stroke-dasharray="5.775880396155912" stroke-dashoffset="5.775880396155912"><animate attributeName="stroke-dashoffset" from="5.775880396155912" to="0" dur="0.17327641188467738s" begin="anim0.end" fill="freeze" id="anim1" /></path><path d="M 19.1 -2.4 C 18.8 0.8 17.4 1.5 14.2 1.5 C 11.2 1.5 10.2 0.9 10.2 -1.2 L 10.2 -9.2 " transform="translate(0.0 38.0)" stroke-dasharray="20.846121783317813" stroke-dashoffset="20.846121783317813"><animate attributeName="stroke-dashoffset" from="20.846121783317813" to="0" dur="0.6253836534995344s" begin="anim1.end" fill="freeze" id="anim2" /></path><path d="M 15.9 -11.6 C 14.8 -12.9 13.6 -13.8 12.2 -14.7 " transform="translate(0.0 38.0)" stroke-dasharray="4.846324626631758" stroke-dashoffset="4.846324626631758"><animate attributeName="stroke-dashoffset" from="4.846324626631758" to="0" dur="0.14538973879895273s" begin="anim2.end" fill="freeze" id="anim3" /></path><path d="M 23.1 -5.3 C 22.4 -6.6 21.8 -7.5 20.6 -8.7 " transform="translate(0.0 38.0)" stroke-dasharray="4.238370585640137" stroke-dashoffset="4.238370585640137"><animate attributeName="stroke-dashoffset" from="4.238370585640137" to="0" dur="0.1271511175692041s" begin="anim3.end" fill="freeze" id="anim4" /></path><path d="M 6.4 -20.1 C 8.0 -22.1 9.2 -24.2 10.1 -26.5 " transform="translate(0.0 38.0)" stroke-dasharray="7.4213656835424775" stroke-dashoffset="7.4213656835424775"><animate attributeName="stroke-dashoffset" from="7.4213656835424775" to="0" dur="0.22264097050627432s" begin="anim4.end" fill="freeze" id="anim5" /></path><path d="M 26.3 -1.6 C 27.1 -3.1 27.8 -5.0 28.3 -7.0 " transform="translate(0.0 38.0)" stroke-dasharray="5.772158731399066" stroke-dashoffset="5.772158731399066"><animate attributeName="stroke-dashoffset" from="5.772158731399066" to="0" dur="0.17316476194197197s" begin="anim5.end" fill="freeze" id="anim6" /></path><path d="M 42.1 -2.4 C 41.8 0.8 40.5 1.5 36.6 1.5 C 34.0 1.5 33.0 0.9 33.0 -1.2 L 33.0 -9.2 " transform="translate(0.0 38.0)" stroke-dasharray="21.052582857699925" stroke-dashoffset="21.052582857699925"><animate attributeName="stroke-dashoffset" from="21.052582857699925" to="0" dur="0.6315774857309977s" begin="anim6.end" fill="freeze" id="anim7" /></path><path d="M 38.8 -11.6 C 37.5 -12.9 36.4 -13.8 35.0 -14.7 " transform="translate(0.0 38.0)" stroke-dasharray="4.9144634744256885" stroke-dashoffset="4.9144634744256885"><animate attributeName="stroke-dashoffset" from="4.9144634744256885" to="0" dur="0.14743390423277064s" begin="anim7.end" fill="freeze" id="anim8" /></path><path d="M 46.9 -4.0 C 46.1 -5.5 45.0 -7.0 44.0 -8.2 " transform="translate(0.0 38.0)" stroke-dasharray="5.112402358359285" stroke-dashoffset="5.112402358359285"><animate attributeName="stroke-dashoffset" from="5.112402358359285" to="0" dur="0.15337207075077855s" begin="anim8.end" fill="freeze" id="anim9" /></path><path d="M 27.0 -26.1 C 25.9 -27.2 24.7 -28.4 23.4 -29.4 " transform="translate(0.0 38.0)" stroke-dasharray="4.88725046634771" stroke-dashoffset="4.88725046634771"><animate attributeName="stroke-dashoffset" from="4.88725046634771" to="0" dur="0.1466175139904313s" begin="anim9.end" fill="freeze" id="anim10" /></path><path d="M 17.8 -32.2 L 17.8 -40.5 " transform="translate(0.0 38.0)" stroke-dasharray="8.299999999999997" stroke-dashoffset="8.299999999999997"><animate attributeName="stroke-dashoffset" from="8.299999999999997" to="0" dur="0.24899999999999992s" begin="anim10.end" fill="freeze" id="anim11" /></path><path d="M 45.9 -36.1 L 4.0 -36.1 " transform="translate(0.0 38.0)" stroke-dasharray="41.9" stroke-dashoffset="41.9"><animate attributeName="stroke-dashoffset" from="41.9" to="0" dur="1.257s" begin="anim11.end" fill="freeze" id="anim12" /></path><path d="M 43.7 -21.6 C 42.5 -23.6 40.6 -25.8 39.0 -27.2 " transform="translate(0.0 38.0)" stroke-dasharray="7.336484342371235" stroke-dashoffset="7.336484342371235"><animate attributeName="stroke-dashoffset" from="7.336484342371235" to="0" dur="0.22009453027113704s" begin="anim12.end" fill="freeze" id="anim13" /></path><path d="M 31.8 -32.4 L 31.8 -40.5" transform="translate(0.0 38.0)" stroke-dasharray="8.100000000000001" stroke-dashoffset="8.100000000000001"><animate attributeName="stroke-dashoffset" from="8.100000000000001" to="0" dur="0.24300000000000002s" begin="anim13.end" fill="freeze" id="anim_end" /></path></g></svg>