<?xml version='1.0' encoding='utf-8'?>
<svg viewBox="0.0 -6.0 50.0 50.0" version="1.1" xmlns="http://www.w3.org/2000/svg"><rect x="-1000" y="-1000" width="2000" height="2000" stroke="white" fill="white" /><g style="fill:none;stroke:#000000;stroke-width:1"><path d="M 30.9 1.9 C 34.0 -3.6 35.8 -11.6 35.8 -23.1 L 35.8 -37.1 " transform="translate(0.0 38.0)" stroke-dasharray="39.74254883723029" stroke-dashoffset="39.74254883723029"><animate attributeName="stroke-dashoffset" from="39.74254883723029" to="0" dur="1.1922764651169087s" begin="0s; anim_end.end" fill="freeze" id="anim0" /></path><path d="M 3.2 -0.8 C 7.5 -1.8 12.6 -3.1 17.2 -5.0 " transform="translate(0.0 38.0)" stroke-dasharray="14.632685489736213" stroke-dashoffset="14.632685489736213"><animate attributeName="stroke-dashoffset" from="14.632685489736213" to="0" dur="0.43898056469208635s" begin="anim0.end" fill="freeze" id="anim1" /></path><path d="M 18.6 -1.6 C 17.8 -4.0 16.4 -7.2 15.3 -9.1 " transform="translate(0.0 38.0)" stroke-dasharray="8.204943355514986" stroke-dashoffset="8.204943355514986"><animate attributeName="stroke-dashoffset" from="8.204943355514986" to="0" dur="0.24614830066544957s" begin="anim1.end" fill="freeze" id="anim2" /></path><path d="M 10.4 -3.0 L 10.4 -39.9 " transform="translate(0.0 38.0)" stroke-dasharray="36.9" stroke-dashoffset="36.9"><animate attributeName="stroke-dashoffset" from="36.9" to="0" dur="1.107s" begin="anim2.end" fill="freeze" id="anim3" /></path><path d="M 16.4 -18.6 L 16.4 -27.7 C 16.4 -29.9 15.5 -30.8 13.3 -30.8 L 7.6 -30.8 C 5.5 -30.8 4.6 -29.9 4.6 -27.7 L 4.6 -18.6 C 4.6 -16.4 5.5 -15.6 7.6 -15.6 L 13.3 -15.6 C 15.5 -15.6 16.4 -16.4 16.4 -18.6 Z " transform="translate(0.0 38.0)" stroke-dasharray="49.68004367362424" stroke-dashoffset="49.68004367362424"><animate attributeName="stroke-dashoffset" from="49.68004367362424" to="0" dur="1.4904013102087272s" begin="anim3.end" fill="freeze" id="anim4" /></path><path d="M 19.4 -11.2 C 21.9 -15.4 23.8 -20.4 24.9 -26.2 " transform="translate(0.0 38.0)" stroke-dasharray="16.058193483663448" stroke-dashoffset="16.058193483663448"><animate attributeName="stroke-dashoffset" from="16.058193483663448" to="0" dur="0.48174580450990345s" begin="anim4.end" fill="freeze" id="anim5" /></path><path d="M 25.9 2.8 L 25.9 -40.5 " transform="translate(0.0 38.0)" stroke-dasharray="43.3" stroke-dashoffset="43.3"><animate attributeName="stroke-dashoffset" from="43.3" to="0" dur="1.299s" begin="anim5.end" fill="freeze" id="anim6" /></path><path d="M 31.1 -17.6 C 30.0 -19.5 28.4 -21.2 26.7 -22.9 " transform="translate(0.0 38.0)" stroke-dasharray="6.908211211486485" stroke-dashoffset="6.908211211486485"><animate attributeName="stroke-dashoffset" from="6.908211211486485" to="0" dur="0.20724633634459455s" begin="anim6.end" fill="freeze" id="anim7" /></path><path d="M 43.0 2.5 L 43.0 -23.1 " transform="translate(0.0 38.0)" stroke-dasharray="25.6" stroke-dashoffset="25.6"><animate attributeName="stroke-dashoffset" from="25.6" to="0" dur="0.768s" begin="anim7.end" fill="freeze" id="anim8" /></path><path d="M 31.1 -29.6 L 20.6 -29.6 " transform="translate(0.0 38.0)" stroke-dasharray="10.5" stroke-dashoffset="10.5"><animate attributeName="stroke-dashoffset" from="10.5" to="0" dur="0.315s" begin="anim8.end" fill="freeze" id="anim9" /></path><path d="M 47.2 -24.4 L 35.8 -24.4 " transform="translate(0.0 38.0)" stroke-dasharray="11.400000000000006" stroke-dashoffset="11.400000000000006"><animate attributeName="stroke-dashoffset" from="11.400000000000006" to="0" dur="0.34200000000000014s" begin="anim9.end" fill="freeze" id="anim10" /></path><path d="M 36.0 -36.2 C 39.4 -37.0 42.5 -38.0 45.0 -39.3" transform="translate(0.0 38.0)" stroke-dasharray="9.542538235199405" stroke-dashoffset="9.542538235199405"><animate attributeName="stroke-dashoffset" from="9.542538235199405" to="0" dur="0.28627614705598214s" begin="anim10.end" fill="freeze" id="anim_end" /></path></g></svg>