<?xml version='1.0' encoding='utf-8'?>
<svg viewBox="0.0 -6.0 50.0 50.0" version="1.1" xmlns="http://www.w3.org/2000/svg"><rect x="-1000" y="-1000" width="2000" height="2000" stroke="white" fill="white" /><g style="fill:none;stroke:#000000;stroke-width:1"><path d="M 37.1 1.4 C 38.0 1.7 39.2 1.9 40.4 1.9 C 43.3 1.9 44.2 0.6 44.2 -2.1 L 44.2 -36.0 C 44.2 -38.0 43.4 -38.9 40.5 -38.9 L 32.5 -38.9 C 29.8 -38.9 28.9 -38.0 28.9 -36.0 L 28.9 -30.8 C 28.9 -28.9 29.9 -27.9 32.4 -27.9 L 43.5 -27.9 " transform="translate(0.0 38.0)" stroke-dasharray="84.0718901793186" stroke-dashoffset="84.0718901793186"><animate attributeName="stroke-dashoffset" from="84.0718901793186" to="0" dur="2.5221567053795577s" begin="0s; 15s; 30s; 45s" fill="freeze" id="anim0" /></path><path d="M 20.4 0.2 L 29.1 0.2 C 31.8 0.2 32.5 -0.6 32.5 -2.4 L 32.5 -7.5 C 32.5 -9.3 31.8 -10.1 29.1 -10.1 L 20.4 -10.1 C 17.6 -10.1 16.9 -9.3 16.9 -7.5 L 16.9 -2.4 C 16.9 -0.6 17.6 0.2 20.4 0.2 Z " transform="translate(0.0 38.0)" stroke-dasharray="47.78156097192982" stroke-dashoffset="47.78156097192982"><animate attributeName="stroke-dashoffset" from="47.78156097192982" to="0" dur="1.4334468291578946s" begin="anim0.end" fill="freeze" id="anim1" /></path><path d="M 17.9 -5.0 L 31.9 -5.0 " transform="translate(0.0 38.0)" stroke-dasharray="14.0" stroke-dashoffset="14.0"><animate attributeName="stroke-dashoffset" from="14.0" to="0" dur="0.42s" begin="anim1.end" fill="freeze" id="anim2" /></path><path d="M 5.8 2.5 L 5.8 -36.0 C 5.8 -38.0 6.7 -38.9 9.6 -38.9 L 16.9 -38.9 C 19.6 -38.9 20.4 -38.0 20.4 -36.0 L 20.4 -30.8 C 20.4 -28.8 19.6 -27.9 16.9 -27.9 L 6.5 -27.9 " transform="translate(0.0 38.0)" stroke-dasharray="77.56178128449089" stroke-dashoffset="77.56178128449089"><animate attributeName="stroke-dashoffset" from="77.56178128449089" to="0" dur="2.3268534385347266s" begin="anim2.end" fill="freeze" id="anim3" /></path><path d="M 20.3 -17.1 C 19.8 -17.9 19.4 -18.6 18.9 -19.2 " transform="translate(0.0 38.0)" stroke-dasharray="2.5260510380168655" stroke-dashoffset="2.5260510380168655"><animate attributeName="stroke-dashoffset" from="2.5260510380168655" to="0" dur="0.07578153114050597s" begin="anim3.end" fill="freeze" id="anim4" /></path><path d="M 11.8 -14.9 L 38.4 -14.9 " transform="translate(0.0 38.0)" stroke-dasharray="26.599999999999998" stroke-dashoffset="26.599999999999998"><animate attributeName="stroke-dashoffset" from="26.599999999999998" to="0" dur="0.7979999999999999s" begin="anim4.end" fill="freeze" id="anim5" /></path><path d="M 27.9 -14.8 C 28.9 -16.0 29.8 -17.6 30.5 -19.0 " transform="translate(0.0 38.0)" stroke-dasharray="4.949987440471578" stroke-dashoffset="4.949987440471578"><animate attributeName="stroke-dashoffset" from="4.949987440471578" to="0" dur="0.1484996232141473s" begin="anim5.end" fill="freeze" id="anim6" /></path><path d="M 6.5 -33.5 L 19.8 -33.5 " transform="translate(0.0 38.0)" stroke-dasharray="13.3" stroke-dashoffset="13.3"><animate attributeName="stroke-dashoffset" from="13.3" to="0" dur="0.399s" begin="anim6.end" fill="freeze" id="anim7" /></path><path d="M 13.9 -21.9 L 36.2 -21.9 " transform="translate(0.0 38.0)" stroke-dasharray="22.300000000000004" stroke-dashoffset="22.300000000000004"><animate attributeName="stroke-dashoffset" from="22.300000000000004" to="0" dur="0.6690000000000002s" begin="anim7.end" fill="freeze" id="anim8" /></path><path d="M 24.7 -21.7 L 24.7 -25.0 " transform="translate(0.0 38.0)" stroke-dasharray="3.3000000000000007" stroke-dashoffset="3.3000000000000007"><animate attributeName="stroke-dashoffset" from="3.3000000000000007" to="0" dur="0.09900000000000002s" begin="anim8.end" fill="freeze" id="anim9" /></path><path d="M 29.6 -33.5 L 43.5 -33.5" transform="translate(0.0 38.0)" stroke-dasharray="13.899999999999999" stroke-dashoffset="13.899999999999999"><animate attributeName="stroke-dashoffset" from="13.899999999999999" to="0" dur="0.4169999999999999s" begin="anim9.end" fill="freeze" id="anim_end" /></path></g></svg>