<?xml version='1.0' encoding='utf-8'?>
<svg viewBox="0.0 -6.0 50.0 50.0" version="1.1" xmlns="http://www.w3.org/2000/svg"><rect x="-1000" y="-1000" width="2000" height="2000" stroke="white" fill="white" /><g style="fill:none;stroke:#000000;stroke-width:1"><path d="M 10.5 -8.6 C 11.2 -8.3 11.9 -8.2 12.7 -8.2 C 15.1 -8.2 16.5 -10.2 16.5 -13.9 C 16.5 -17.6 15.1 -20.9 11.3 -24.4 L 11.4 -25.1 C 13.2 -28.1 14.7 -31.8 15.8 -35.1 C 16.4 -37.5 15.5 -38.9 13.1 -38.9 L 9.4 -38.9 C 7.0 -38.9 6.2 -37.9 6.2 -35.6 L 6.2 2.4 " transform="translate(0.0 38.0)" stroke-dasharray="86.45517037512931" stroke-dashoffset="86.45517037512931"><animate attributeName="stroke-dashoffset" from="86.45517037512931" to="0" dur="2.5936551112538795s" begin="0s; 15s; 30s; 45s" fill="freeze" id="anim0" /></path><path d="M 18.5 1.9 C 21.8 0.9 25.1 -0.8 27.7 -2.4 " transform="translate(0.0 38.0)" stroke-dasharray="10.182095539322713" stroke-dashoffset="10.182095539322713"><animate attributeName="stroke-dashoffset" from="10.182095539322713" to="0" dur="0.3054628661796814s" begin="anim0.end" fill="freeze" id="anim1" /></path><path d="M 45.5 1.6 C 42.9 0.6 40.0 -1.1 38.0 -2.4 " transform="translate(0.0 38.0)" stroke-dasharray="8.514043491140677" stroke-dashoffset="8.514043491140677"><animate attributeName="stroke-dashoffset" from="8.514043491140677" to="0" dur="0.2554213047342203s" begin="anim1.end" fill="freeze" id="anim2" /></path><path d="M 42.2 -13.0 L 23.4 -13.0 " transform="translate(0.0 38.0)" stroke-dasharray="18.800000000000004" stroke-dashoffset="18.800000000000004"><animate attributeName="stroke-dashoffset" from="18.800000000000004" to="0" dur="0.5640000000000001s" begin="anim2.end" fill="freeze" id="anim3" /></path><path d="M 39.2 -25.8 L 27.1 -25.8 C 24.4 -25.8 23.2 -24.9 23.2 -22.6 L 23.2 -9.5 C 23.2 -7.2 24.4 -6.3 27.1 -6.3 L 39.2 -6.3 C 41.9 -6.3 43.1 -7.2 43.1 -9.5 L 43.1 -22.6 C 43.1 -24.9 41.9 -25.8 39.2 -25.8 Z " transform="translate(0.0 38.0)" stroke-dasharray="73.75829129008378" stroke-dashoffset="73.75829129008378"><animate attributeName="stroke-dashoffset" from="73.75829129008378" to="0" dur="2.2127487387025133s" begin="anim3.end" fill="freeze" id="anim4" /></path><path d="M 42.2 -19.4 L 23.4 -19.4 " transform="translate(0.0 38.0)" stroke-dasharray="18.800000000000004" stroke-dashoffset="18.800000000000004"><animate attributeName="stroke-dashoffset" from="18.800000000000004" to="0" dur="0.5640000000000001s" begin="anim4.end" fill="freeze" id="anim5" /></path><path d="M 28.1 -31.4 L 38.0 -31.4 C 40.5 -31.4 41.4 -32.4 41.4 -34.0 L 41.4 -36.4 C 41.4 -38.0 40.5 -39.0 38.0 -39.0 L 28.1 -39.0 C 25.7 -39.0 24.8 -38.0 24.8 -36.4 L 24.8 -34.0 C 24.8 -32.4 25.7 -31.4 28.1 -31.4 Z" transform="translate(0.0 38.0)" stroke-dasharray="44.02178451563638" stroke-dashoffset="44.02178451563638"><animate attributeName="stroke-dashoffset" from="44.02178451563638" to="0" dur="1.3206535354690911s" begin="anim5.end" fill="freeze" id="anim_end" /></path></g></svg>