<?xml version='1.0' encoding='utf-8'?>
<svg viewBox="0.0 -6.0 50.0 50.0" version="1.1" xmlns="http://www.w3.org/2000/svg"><rect x="-1000" y="-1000" width="2000" height="2000" stroke="white" fill="white" /><g style="fill:none;stroke:#000000;stroke-width:1"><path d="M 37.5 0.6 C 38.6 0.8 39.7 0.9 40.8 0.9 C 43.5 0.9 44.5 -0.2 44.5 -2.6 L 44.5 -33.7 C 44.5 -36.4 43.2 -37.7 40.2 -37.7 L 24.2 -37.7 " transform="translate(0.0 38.0)" stroke-dasharray="63.11215349415389" stroke-dashoffset="63.11215349415389"><animate attributeName="stroke-dashoffset" from="63.11215349415389" to="0" dur="1.8933646048246164s" begin="0s; 15s; 30s; 45s" fill="freeze" id="anim0" /></path><path d="M 4.0 0.1 C 8.6 -0.7 13.8 -2.0 18.7 -4.0 " transform="translate(0.0 38.0)" stroke-dasharray="15.289916251597795" stroke-dashoffset="15.289916251597795"><animate attributeName="stroke-dashoffset" from="15.289916251597795" to="0" dur="0.4586974875479338s" begin="anim0.end" fill="freeze" id="anim1" /></path><path d="M 21.9 -1.0 C 20.5 -3.4 18.1 -6.7 16.4 -8.2 " transform="translate(0.0 38.0)" stroke-dasharray="9.088516262662425" stroke-dashoffset="9.088516262662425"><animate attributeName="stroke-dashoffset" from="9.088516262662425" to="0" dur="0.27265548787987276s" begin="anim1.end" fill="freeze" id="anim2" /></path><path d="M 8.3 -13.6 L 16.1 -13.6 C 18.4 -13.6 19.3 -14.3 19.3 -16.4 L 19.3 -23.6 C 19.3 -25.6 18.3 -26.4 16.1 -26.4 L 10.6 -26.4 C 8.5 -26.4 7.5 -25.6 7.5 -23.6 L 7.5 -0.9 " transform="translate(0.0 38.0)" stroke-dasharray="57.92898439354193" stroke-dashoffset="57.92898439354193"><animate attributeName="stroke-dashoffset" from="57.92898439354193" to="0" dur="1.7378695318062578s" begin="anim2.end" fill="freeze" id="anim3" /></path><path d="M 18.4 -20.1 L 8.3 -20.1 " transform="translate(0.0 38.0)" stroke-dasharray="10.099999999999998" stroke-dashoffset="10.099999999999998"><animate attributeName="stroke-dashoffset" from="10.099999999999998" to="0" dur="0.30299999999999994s" begin="anim3.end" fill="freeze" id="anim4" /></path><path d="M 13.4 -26.3 L 13.4 -30.8 " transform="translate(0.0 38.0)" stroke-dasharray="4.5" stroke-dashoffset="4.5"><animate attributeName="stroke-dashoffset" from="4.5" to="0" dur="0.135s" begin="anim4.end" fill="freeze" id="anim5" /></path><path d="M 3.6 -28.9 C 7.2 -31.6 11.0 -35.8 13.6 -40.0 " transform="translate(0.0 38.0)" stroke-dasharray="15.018726955557558" stroke-dashoffset="15.018726955557558"><animate attributeName="stroke-dashoffset" from="15.018726955557558" to="0" dur="0.4505618086667267s" begin="anim5.end" fill="freeze" id="anim6" /></path><path d="M 30.1 -9.7 L 33.3 -9.7 C 35.5 -9.7 36.3 -10.6 36.3 -12.6 L 36.3 -18.8 C 36.3 -20.7 35.5 -21.7 33.3 -21.7 L 30.1 -21.7 C 27.9 -21.7 27.1 -20.7 27.1 -18.8 L 27.1 -12.6 C 27.1 -10.6 27.9 -9.7 30.1 -9.7 Z " transform="translate(0.0 38.0)" stroke-dasharray="38.164623520463884" stroke-dashoffset="38.164623520463884"><animate attributeName="stroke-dashoffset" from="38.164623520463884" to="0" dur="1.1449387056139164s" begin="anim6.end" fill="freeze" id="anim7" /></path><path d="M 20.0 -32.8 C 18.1 -34.8 15.2 -37.0 12.4 -38.5 " transform="translate(0.0 38.0)" stroke-dasharray="9.535924948537495" stroke-dashoffset="9.535924948537495"><animate attributeName="stroke-dashoffset" from="9.535924948537495" to="0" dur="0.2860777484561248s" begin="anim7.end" fill="freeze" id="anim8" /></path><path d="M 38.2 -29.6 L 24.9 -29.6" transform="translate(0.0 38.0)" stroke-dasharray="13.300000000000004" stroke-dashoffset="13.300000000000004"><animate attributeName="stroke-dashoffset" from="13.300000000000004" to="0" dur="0.39900000000000013s" begin="anim8.end" fill="freeze" id="anim_end" /></path></g></svg>