<?xml version='1.0' encoding='utf-8'?>
<svg viewBox="0.0 -6.0 50.0 50.0" version="1.1" xmlns="http://www.w3.org/2000/svg"><rect x="-1000" y="-1000" width="2000" height="2000" stroke="white" fill="white" /><g style="fill:none;stroke:#000000;stroke-width:1"><path d="M 11.2 1.6 C 11.8 1.8 12.6 1.8 13.6 1.8 C 15.6 1.8 16.9 0.9 17.8 -1.7 C 18.6 -4.5 19.1 -8.7 19.1 -12.4 C 19.1 -14.2 18.4 -15.2 15.9 -15.2 L 8.0 -15.2 C 5.8 -15.2 5.0 -15.9 5.0 -18.0 L 5.0 -35.6 C 5.0 -37.8 5.8 -38.7 8.3 -38.7 L 18.5 -38.7 " transform="translate(0.0 38.0)" stroke-dasharray="69.91524796225106" stroke-dashoffset="69.91524796225106"><animate attributeName="stroke-dashoffset" from="69.91524796225106" to="0" dur="2.0974574388675316s" begin="0s" fill="freeze" /></path><path d="M 2.6 -1.9 C 3.2 -3.8 3.8 -6.3 4.0 -8.6 " transform="translate(0.0 38.0)" stroke-dasharray="6.857398988361396" stroke-dashoffset="6.857398988361396"><animate attributeName="stroke-dashoffset" from="6.857398988361396" to="0" dur="0.20572196965084188s" begin="2.0974574388675316s" fill="freeze" /></path><path d="M 8.0 -3.9 C 8.0 -5.7 7.6 -7.9 7.2 -9.2 " transform="translate(0.0 38.0)" stroke-dasharray="5.376418472466118" stroke-dashoffset="5.376418472466118"><animate attributeName="stroke-dashoffset" from="5.376418472466118" to="0" dur="0.16129255417398353s" begin="2.3031794085183734s" fill="freeze" /></path><path d="M 12.0 -6.0 C 11.7 -7.5 11.2 -8.9 10.6 -10.0 " transform="translate(0.0 38.0)" stroke-dasharray="4.25336556003682" stroke-dashoffset="4.25336556003682"><animate attributeName="stroke-dashoffset" from="4.25336556003682" to="0" dur="0.1276009668011046s" begin="2.464471962692357s" fill="freeze" /></path><path d="M 15.4 -7.9 C 15.0 -9.0 14.3 -10.4 13.7 -11.2 " transform="translate(0.0 38.0)" stroke-dasharray="3.722840978395957" stroke-dashoffset="3.722840978395957"><animate attributeName="stroke-dashoffset" from="3.722840978395957" to="0" dur="0.1116852293518787s" begin="2.5920729294934617s" fill="freeze" /></path><path d="M 24.5 2.4 C 28.8 1.6 32.8 0.6 36.1 -0.9 " transform="translate(0.0 38.0)" stroke-dasharray="12.089012812831337" stroke-dashoffset="12.089012812831337"><animate attributeName="stroke-dashoffset" from="12.089012812831337" to="0" dur="0.3626703843849401s" begin="2.7037581588453405s" fill="freeze" /></path><path d="M 29.2 1.4 L 29.2 -3.5 " transform="translate(0.0 38.0)" stroke-dasharray="4.9" stroke-dashoffset="4.9"><animate attributeName="stroke-dashoffset" from="4.9" to="0" dur="0.147s" begin="3.0664285432302805s" fill="freeze" /></path><path d="M 22.2 -2.8 C 26.2 -4.3 30.6 -7.0 33.9 -10.2 " transform="translate(0.0 38.0)" stroke-dasharray="13.93429971272824" stroke-dashoffset="13.93429971272824"><animate attributeName="stroke-dashoffset" from="13.93429971272824" to="0" dur="0.4180289913818472s" begin="3.2134285432302803s" fill="freeze" /></path><path d="M 17.9 -23.6 L 5.8 -23.6 " transform="translate(0.0 38.0)" stroke-dasharray="12.099999999999998" stroke-dashoffset="12.099999999999998"><animate attributeName="stroke-dashoffset" from="12.099999999999998" to="0" dur="0.36299999999999993s" begin="3.6314575346121276s" fill="freeze" /></path><path d="M 12.1 -15.2 L 12.1 -38.3 " transform="translate(0.0 38.0)" stroke-dasharray="23.099999999999998" stroke-dashoffset="23.099999999999998"><animate attributeName="stroke-dashoffset" from="23.099999999999998" to="0" dur="0.693s" begin="3.9944575346121276s" fill="freeze" /></path><path d="M 17.9 -31.1 L 5.8 -31.1 " transform="translate(0.0 38.0)" stroke-dasharray="12.099999999999998" stroke-dashoffset="12.099999999999998"><animate attributeName="stroke-dashoffset" from="12.099999999999998" to="0" dur="0.36299999999999993s" begin="4.687457534612127s" fill="freeze" /></path><path d="M 47.0 1.9 C 42.4 -0.1 38.0 -4.0 35.5 -9.8 " transform="translate(0.0 38.0)" stroke-dasharray="16.80030087245873" stroke-dashoffset="16.80030087245873"><animate attributeName="stroke-dashoffset" from="16.80030087245873" to="0" dur="0.5040090261737619s" begin="5.050457534612127s" fill="freeze" /></path><path d="M 46.6 -10.4 L 23.0 -10.4 " transform="translate(0.0 38.0)" stroke-dasharray="23.6" stroke-dashoffset="23.6"><animate attributeName="stroke-dashoffset" from="23.6" to="0" dur="0.708s" begin="5.5544665607858885s" fill="freeze" /></path><path d="M 29.9 -11.3 L 29.9 -23.4 " transform="translate(0.0 38.0)" stroke-dasharray="12.099999999999998" stroke-dashoffset="12.099999999999998"><animate attributeName="stroke-dashoffset" from="12.099999999999998" to="0" dur="0.36299999999999993s" begin="6.262466560785889s" fill="freeze" /></path><path d="M 39.5 -3.5 C 41.1 -4.4 42.7 -5.5 44.0 -6.9 " transform="translate(0.0 38.0)" stroke-dasharray="5.662704704169757" stroke-dashoffset="5.662704704169757"><animate attributeName="stroke-dashoffset" from="5.662704704169757" to="0" dur="0.1698811411250927s" begin="6.625466560785888s" fill="freeze" /></path><path d="M 44.0 -15.7 L 24.7 -15.7 " transform="translate(0.0 38.0)" stroke-dasharray="19.3" stroke-dashoffset="19.3"><animate attributeName="stroke-dashoffset" from="19.3" to="0" dur="0.579s" begin="6.795347701910981s" fill="freeze" /></path><path d="M 46.0 -20.9 L 23.2 -20.9 " transform="translate(0.0 38.0)" stroke-dasharray="22.8" stroke-dashoffset="22.8"><animate attributeName="stroke-dashoffset" from="22.8" to="0" dur="0.6839999999999999s" begin="7.374347701910981s" fill="freeze" /></path><path d="M 38.5 -11.3 L 38.5 -23.4 " transform="translate(0.0 38.0)" stroke-dasharray="12.099999999999998" stroke-dashoffset="12.099999999999998"><animate attributeName="stroke-dashoffset" from="12.099999999999998" to="0" dur="0.36299999999999993s" begin="8.05834770191098s" fill="freeze" /></path><path d="M 28.9 -32.4 L 26.8 -32.4 C 24.8 -32.4 24.1 -31.8 24.1 -30.2 L 24.1 -28.9 C 24.1 -27.4 24.8 -26.8 26.8 -26.8 L 28.9 -26.8 C 30.9 -26.8 31.5 -27.4 31.5 -28.9 L 31.5 -30.2 C 31.5 -31.8 30.9 -32.4 28.9 -32.4 Z " transform="translate(0.0 38.0)" stroke-dasharray="22.74938790697464" stroke-dashoffset="22.74938790697464"><animate attributeName="stroke-dashoffset" from="22.74938790697464" to="0" dur="0.6824816372092392s" begin="8.42134770191098s" fill="freeze" /></path><path d="M 42.0 -32.4 L 39.6 -32.4 C 37.6 -32.4 37.0 -31.8 37.0 -30.2 L 37.0 -28.9 C 37.0 -27.4 37.6 -26.8 39.6 -26.8 L 42.0 -26.8 C 43.9 -26.8 44.6 -27.4 44.6 -28.9 L 44.6 -30.2 C 44.6 -31.8 43.9 -32.4 42.0 -32.4 Z " transform="translate(0.0 38.0)" stroke-dasharray="23.16646507600226" stroke-dashoffset="23.16646507600226"><animate attributeName="stroke-dashoffset" from="23.16646507600226" to="0" dur="0.6949939522800678s" begin="9.10382933912022s" fill="freeze" /></path><path d="M 46.6 -36.8 L 22.5 -36.8 " transform="translate(0.0 38.0)" stroke-dasharray="24.1" stroke-dashoffset="24.1"><animate attributeName="stroke-dashoffset" from="24.1" to="0" dur="0.723s" begin="9.798823291400288s" fill="freeze" /></path><path d="M 34.2 -36.8 L 34.2 -40.6" transform="translate(0.0 38.0)" stroke-dasharray="3.8000000000000043" stroke-dashoffset="3.8000000000000043"><animate attributeName="stroke-dashoffset" from="3.8000000000000043" to="0" dur="0.11400000000000013s" begin="10.521823291400288s" fill="freeze" /></path></g></svg>