<?xml version='1.0' encoding='utf-8'?>
<svg viewBox="0.0 -6.0 50.0 50.0" version="1.1" xmlns="http://www.w3.org/2000/svg"><rect x="-1000" y="-1000" width="2000" height="2000" stroke="white" fill="white" /><g style="fill:none;stroke:#000000;stroke-width:1"><path d="M 10.3 1.8 C 10.9 1.9 11.8 2.0 12.7 2.0 C 14.7 2.0 16.1 1.1 16.9 -1.5 C 17.6 -4.2 18.1 -8.3 18.2 -12.2 C 18.2 -13.8 17.5 -14.8 15.0 -14.8 L 7.7 -14.8 C 5.5 -14.8 4.7 -15.6 4.7 -17.6 L 4.7 -35.4 C 4.7 -37.6 5.5 -38.5 8.0 -38.5 L 18.1 -38.5 " transform="translate(0.0 38.0)" stroke-dasharray="69.21713810712448" stroke-dashoffset="69.21713810712448"><animate attributeName="stroke-dashoffset" from="69.21713810712448" to="0" dur="2.0765141432137346s" begin="0s" fill="freeze" /></path><path d="M 2.4 -1.6 C 3.0 -3.6 3.5 -6.2 3.8 -8.4 " transform="translate(0.0 38.0)" stroke-dasharray="6.948891587831681" stroke-dashoffset="6.948891587831681"><animate attributeName="stroke-dashoffset" from="6.948891587831681" to="0" dur="0.2084667476349504s" begin="2.0765141432137346s" fill="freeze" /></path><path d="M 7.5 -3.8 C 7.5 -5.5 7.2 -7.8 6.8 -9.0 " transform="translate(0.0 38.0)" stroke-dasharray="5.263568980508288" stroke-dashoffset="5.263568980508288"><animate attributeName="stroke-dashoffset" from="5.263568980508288" to="0" dur="0.15790706941524865s" begin="2.284980890848685s" fill="freeze" /></path><path d="M 11.3 -5.7 C 11.0 -7.3 10.6 -8.7 10.1 -9.8 " transform="translate(0.0 38.0)" stroke-dasharray="4.281893647389718" stroke-dashoffset="4.281893647389718"><animate attributeName="stroke-dashoffset" from="4.281893647389718" to="0" dur="0.12845680942169155s" begin="2.4428879602639335s" fill="freeze" /></path><path d="M 14.7 -7.6 C 14.2 -8.7 13.6 -10.1 13.1 -11.0 " transform="translate(0.0 38.0)" stroke-dasharray="3.7586266011996936" stroke-dashoffset="3.7586266011996936"><animate attributeName="stroke-dashoffset" from="3.7586266011996936" to="0" dur="0.1127587980359908s" begin="2.571344769685625s" fill="freeze" /></path><path d="M 17.1 -23.3 L 5.5 -23.3 " transform="translate(0.0 38.0)" stroke-dasharray="11.600000000000001" stroke-dashoffset="11.600000000000001"><animate attributeName="stroke-dashoffset" from="11.600000000000001" to="0" dur="0.34800000000000003s" begin="2.684103567721616s" fill="freeze" /></path><path d="M 33.6 2.9 L 33.6 -10.7 " transform="translate(0.0 38.0)" stroke-dasharray="13.6" stroke-dashoffset="13.6"><animate attributeName="stroke-dashoffset" from="13.6" to="0" dur="0.408s" begin="3.0321035677216157s" fill="freeze" /></path><path d="M 11.6 -14.8 L 11.6 -38.1 " transform="translate(0.0 38.0)" stroke-dasharray="23.3" stroke-dashoffset="23.3"><animate attributeName="stroke-dashoffset" from="23.3" to="0" dur="0.699s" begin="3.4401035677216156s" fill="freeze" /></path><path d="M 43.8 -4.5 L 24.1 -4.5 " transform="translate(0.0 38.0)" stroke-dasharray="19.699999999999996" stroke-dashoffset="19.699999999999996"><animate attributeName="stroke-dashoffset" from="19.699999999999996" to="0" dur="0.5909999999999999s" begin="4.139103567721616s" fill="freeze" /></path><path d="M 17.1 -30.8 L 5.5 -30.8 " transform="translate(0.0 38.0)" stroke-dasharray="11.600000000000001" stroke-dashoffset="11.600000000000001"><animate attributeName="stroke-dashoffset" from="11.600000000000001" to="0" dur="0.34800000000000003s" begin="4.730103567721616s" fill="freeze" /></path><path d="M 29.7 -13.8 C 29.3 -14.6 28.9 -15.2 28.4 -15.9 " transform="translate(0.0 38.0)" stroke-dasharray="2.472670154426961" stroke-dashoffset="2.472670154426961"><animate attributeName="stroke-dashoffset" from="2.472670154426961" to="0" dur="0.07418010463280883s" begin="5.078103567721616s" fill="freeze" /></path><path d="M 46.0 -10.8 L 22.1 -10.8 " transform="translate(0.0 38.0)" stroke-dasharray="23.9" stroke-dashoffset="23.9"><animate attributeName="stroke-dashoffset" from="23.9" to="0" dur="0.717s" begin="5.152283672354425s" fill="freeze" /></path><path d="M 36.2 -10.6 C 37.2 -12.2 38.1 -13.8 39.0 -15.8 " transform="translate(0.0 38.0)" stroke-dasharray="5.910782220934437" stroke-dashoffset="5.910782220934437"><animate attributeName="stroke-dashoffset" from="5.910782220934437" to="0" dur="0.1773234666280331s" begin="5.869283672354425s" fill="freeze" /></path><path d="M 47.0 -18.8 L 21.3 -18.8 " transform="translate(0.0 38.0)" stroke-dasharray="25.7" stroke-dashoffset="25.7"><animate attributeName="stroke-dashoffset" from="25.7" to="0" dur="0.7709999999999999s" begin="6.046607138982458s" fill="freeze" /></path><path d="M 33.6 -18.8 L 33.6 -30.4 " transform="translate(0.0 38.0)" stroke-dasharray="11.599999999999998" stroke-dashoffset="11.599999999999998"><animate attributeName="stroke-dashoffset" from="11.599999999999998" to="0" dur="0.3479999999999999s" begin="6.817607138982458s" fill="freeze" /></path><path d="M 43.5 -24.9 L 24.4 -24.9 " transform="translate(0.0 38.0)" stroke-dasharray="19.1" stroke-dashoffset="19.1"><animate attributeName="stroke-dashoffset" from="19.1" to="0" dur="0.5730000000000001s" begin="7.165607138982458s" fill="freeze" /></path><path d="M 30.1 -31.4 L 30.1 -39.0 " transform="translate(0.0 38.0)" stroke-dasharray="7.600000000000001" stroke-dashoffset="7.600000000000001"><animate attributeName="stroke-dashoffset" from="7.600000000000001" to="0" dur="0.22800000000000004s" begin="7.7386071389824584s" fill="freeze" /></path><path d="M 41.0 -38.9 L 26.6 -38.9 C 24.1 -38.9 23.3 -38.1 23.3 -36.3 L 23.3 -33.3 C 23.3 -31.6 24.1 -30.8 26.6 -30.8 L 41.0 -30.8 C 43.6 -30.8 44.4 -31.6 44.4 -33.3 L 44.4 -36.3 C 44.4 -38.1 43.6 -38.9 41.0 -38.9 Z " transform="translate(0.0 38.0)" stroke-dasharray="54.35018592217895" stroke-dashoffset="54.35018592217895"><animate attributeName="stroke-dashoffset" from="54.35018592217895" to="0" dur="1.6305055776653685s" begin="7.966607138982458s" fill="freeze" /></path><path d="M 37.1 -31.4 L 37.1 -39.0" transform="translate(0.0 38.0)" stroke-dasharray="7.600000000000001" stroke-dashoffset="7.600000000000001"><animate attributeName="stroke-dashoffset" from="7.600000000000001" to="0" dur="0.22800000000000004s" begin="9.597112716647827s" fill="freeze" /></path></g></svg>