<?xml version='1.0' encoding='utf-8'?>
<svg viewBox="0.0 -6.0 50.0 50.0" version="1.1" xmlns="http://www.w3.org/2000/svg"><rect x="-1000" y="-1000" width="2000" height="2000" stroke="white" fill="white" /><g style="fill:none;stroke:#000000;stroke-width:1"><path d="M 35.0 0.8 C 36.3 1.2 37.3 1.3 38.5 1.3 C 41.0 1.3 42.5 0.1 43.5 -2.6 C 44.2 -4.8 44.8 -7.5 45.0 -10.7 C 45.1 -13.0 44.1 -14.3 40.8 -14.3 L 23.6 -14.3 C 20.5 -14.3 19.4 -15.4 19.4 -17.7 L 19.4 -34.6 C 19.4 -36.9 20.5 -38.0 23.6 -38.0 L 44.0 -38.0 " transform="translate(0.0 38.0)" stroke-dasharray="92.13579987174761" stroke-dashoffset="92.13579987174761"><animate attributeName="stroke-dashoffset" from="92.13579987174761" to="0" dur="2.7640739961524283s" begin="0s; anim_end.end" fill="freeze" id="anim0" /></path><path d="M 13.7 -0.5 C 14.8 -3.0 15.7 -5.7 16.2 -8.4 " transform="translate(0.0 38.0)" stroke-dasharray="8.304355162035112" stroke-dashoffset="8.304355162035112"><animate attributeName="stroke-dashoffset" from="8.304355162035112" to="0" dur="0.24913065486105335s" begin="anim0.end" fill="freeze" id="anim1" /></path><path d="M 4.8 -5.7 C 7.3 -9.1 10.1 -13.9 11.8 -18.6 " transform="translate(0.0 38.0)" stroke-dasharray="14.722968098410606" stroke-dashoffset="14.722968098410606"><animate attributeName="stroke-dashoffset" from="14.722968098410606" to="0" dur="0.44168904295231814s" begin="anim1.end" fill="freeze" id="anim2" /></path><path d="M 23.4 -1.9 C 23.1 -4.2 22.5 -6.6 21.9 -8.4 " transform="translate(0.0 38.0)" stroke-dasharray="6.68028429183136" stroke-dashoffset="6.68028429183136"><animate attributeName="stroke-dashoffset" from="6.68028429183136" to="0" dur="0.2004085287549408s" begin="anim2.end" fill="freeze" id="anim3" /></path><path d="M 30.9 -3.8 C 30.3 -5.7 29.3 -7.7 28.4 -9.2 " transform="translate(0.0 38.0)" stroke-dasharray="5.963251888030412" stroke-dashoffset="5.963251888030412"><animate attributeName="stroke-dashoffset" from="5.963251888030412" to="0" dur="0.17889755664091236s" begin="anim3.end" fill="freeze" id="anim4" /></path><path d="M 10.3 -30.6 C 8.9 -32.2 7.4 -33.9 6.0 -34.9 " transform="translate(0.0 38.0)" stroke-dasharray="6.093637470082506" stroke-dashoffset="6.093637470082506"><animate attributeName="stroke-dashoffset" from="6.093637470082506" to="0" dur="0.18280912410247516s" begin="anim4.end" fill="freeze" id="anim5" /></path><path d="M 37.9 -5.7 C 37.1 -7.2 36.2 -8.6 35.2 -9.8 " transform="translate(0.0 38.0)" stroke-dasharray="4.91765281515361" stroke-dashoffset="4.91765281515361"><animate attributeName="stroke-dashoffset" from="4.91765281515361" to="0" dur="0.1475295844546083s" begin="anim5.end" fill="freeze" id="anim6" /></path><path d="M 41.5 -22.6 L 19.9 -22.6 " transform="translate(0.0 38.0)" stroke-dasharray="21.6" stroke-dashoffset="21.6"><animate attributeName="stroke-dashoffset" from="21.6" to="0" dur="0.648s" begin="anim6.end" fill="freeze" id="anim7" /></path><path d="M 30.9 -14.3 L 30.9 -37.5 " transform="translate(0.0 38.0)" stroke-dasharray="23.2" stroke-dashoffset="23.2"><animate attributeName="stroke-dashoffset" from="23.2" to="0" dur="0.696s" begin="anim7.end" fill="freeze" id="anim8" /></path><path d="M 41.4 -30.4 L 19.7 -30.4" transform="translate(0.0 38.0)" stroke-dasharray="21.7" stroke-dashoffset="21.7"><animate attributeName="stroke-dashoffset" from="21.7" to="0" dur="0.6509999999999999s" begin="anim8.end" fill="freeze" id="anim_end" /></path></g></svg>