<?xml version='1.0' encoding='utf-8'?>
<svg viewBox="0.0 -6.0 50.0 50.0" version="1.1" xmlns="http://www.w3.org/2000/svg"><rect x="-1000" y="-1000" width="2000" height="2000" stroke="white" fill="white" /><g style="fill:none;stroke:#000000;stroke-width:1"><path d="M 24.0 2.6 C 33.7 -0.3 40.0 -6.9 41.4 -18.7 " transform="translate(0.0 38.0)" stroke-dasharray="29.376057184974268" stroke-dashoffset="29.376057184974268"><animate attributeName="stroke-dashoffset" from="29.376057184974268" to="0" dur="0.881281715549228s" begin="0s" fill="freeze" /></path><path d="M 3.5 1.4 C 4.7 -0.9 5.5 -3.6 5.9 -6.0 " transform="translate(0.0 38.0)" stroke-dasharray="7.81020450304925" stroke-dashoffset="7.81020450304925"><animate attributeName="stroke-dashoffset" from="7.81020450304925" to="0" dur="0.2343061350914775s" begin="0.881281715549228s" fill="freeze" /></path><path d="M 10.9 -0.1 C 10.9 -2.0 10.6 -4.3 10.2 -5.8 " transform="translate(0.0 38.0)" stroke-dasharray="5.7564107067013754" stroke-dashoffset="5.7564107067013754"><animate attributeName="stroke-dashoffset" from="5.7564107067013754" to="0" dur="0.17269232120104125s" begin="1.1155878506407055s" fill="freeze" /></path><path d="M 16.4 -1.0 C 16.0 -2.9 15.3 -4.9 14.7 -6.3 " transform="translate(0.0 38.0)" stroke-dasharray="5.574194974868199" stroke-dashoffset="5.574194974868199"><animate attributeName="stroke-dashoffset" from="5.574194974868199" to="0" dur="0.16722584924604597s" begin="1.2882801718417467s" fill="freeze" /></path><path d="M 21.4 -2.4 C 20.9 -4.0 19.9 -6.0 19.2 -7.2 " transform="translate(0.0 38.0)" stroke-dasharray="5.2894283633195345" stroke-dashoffset="5.2894283633195345"><animate attributeName="stroke-dashoffset" from="5.2894283633195345" to="0" dur="0.15868285089958603s" begin="1.4555060210877926s" fill="freeze" /></path><path d="M 19.6 -14.1 L 19.6 -24.6 C 19.6 -26.6 18.8 -27.6 16.4 -27.6 L 9.1 -27.6 C 6.8 -27.6 5.9 -26.6 5.9 -24.6 L 5.9 -14.1 C 5.9 -12.1 6.8 -11.1 9.1 -11.1 L 16.4 -11.1 C 18.8 -11.1 19.6 -12.1 19.6 -14.1 Z " transform="translate(0.0 38.0)" stroke-dasharray="55.938350459780935" stroke-dashoffset="55.938350459780935"><animate attributeName="stroke-dashoffset" from="55.938350459780935" to="0" dur="1.678150513793428s" begin="1.6141888719873787s" fill="freeze" /></path><path d="M 12.7 -11.9 L 12.7 -26.8 " transform="translate(0.0 38.0)" stroke-dasharray="14.9" stroke-dashoffset="14.9"><animate attributeName="stroke-dashoffset" from="14.9" to="0" dur="0.447s" begin="3.2923393857808065s" fill="freeze" /></path><path d="M 19.0 -19.6 L 6.2 -19.6 " transform="translate(0.0 38.0)" stroke-dasharray="12.8" stroke-dashoffset="12.8"><animate attributeName="stroke-dashoffset" from="12.8" to="0" dur="0.384s" begin="3.7393393857808066s" fill="freeze" /></path><path d="M 3.0 -28.7 C 5.5 -31.6 7.8 -35.8 9.4 -39.9 " transform="translate(0.0 38.0)" stroke-dasharray="12.95629966558878" stroke-dashoffset="12.95629966558878"><animate attributeName="stroke-dashoffset" from="12.95629966558878" to="0" dur="0.3886889899676634s" begin="4.123339385780807s" fill="freeze" /></path><path d="M 44.7 1.4 C 41.1 -2.5 34.4 -6.9 29.1 -8.9 " transform="translate(0.0 38.0)" stroke-dasharray="18.828539144271566" stroke-dashoffset="18.828539144271566"><animate attributeName="stroke-dashoffset" from="18.828539144271566" to="0" dur="0.5648561743281469s" begin="4.5120283757484705s" fill="freeze" /></path><path d="M 12.4 -28.3 C 13.3 -30.0 14.1 -31.6 14.4 -32.7 C 15.0 -34.2 14.2 -35.2 12.2 -35.2 L 7.4 -35.2 " transform="translate(0.0 38.0)" stroke-dasharray="13.807628255337708" stroke-dashoffset="13.807628255337708"><animate attributeName="stroke-dashoffset" from="13.807628255337708" to="0" dur="0.41422884766013124s" begin="5.076884550076618s" fill="freeze" /></path><path d="M 27.6 -7.8 C 30.2 -13.6 32.4 -20.3 34.1 -27.6 " transform="translate(0.0 38.0)" stroke-dasharray="20.87130165388992" stroke-dashoffset="20.87130165388992"><animate attributeName="stroke-dashoffset" from="20.87130165388992" to="0" dur="0.6261390496166975s" begin="5.491113397736749s" fill="freeze" /></path><path d="M 47.0 -19.0 L 24.2 -19.0 " transform="translate(0.0 38.0)" stroke-dasharray="22.8" stroke-dashoffset="22.8"><animate attributeName="stroke-dashoffset" from="22.8" to="0" dur="0.6839999999999999s" begin="6.117252447353446s" fill="freeze" /></path><path d="M 46.0 -27.8 L 46.0 -30.8 C 46.0 -32.7 45.1 -33.7 42.4 -33.7 L 28.6 -33.7 C 25.8 -33.7 24.9 -32.7 24.9 -30.8 L 24.9 -27.2 " transform="translate(0.0 38.0)" stroke-dasharray="31.18088784368728" stroke-dashoffset="31.18088784368728"><animate attributeName="stroke-dashoffset" from="31.18088784368728" to="0" dur="0.9354266353106184s" begin="6.801252447353447s" fill="freeze" /></path><path d="M 35.2 -33.5 L 35.2 -40.1" transform="translate(0.0 38.0)" stroke-dasharray="6.600000000000001" stroke-dashoffset="6.600000000000001"><animate attributeName="stroke-dashoffset" from="6.600000000000001" to="0" dur="0.19800000000000004s" begin="7.736679082664065s" fill="freeze" /></path></g></svg>