<?xml version='1.0' encoding='utf-8'?>
<svg viewBox="0.0 -6.0 50.0 50.0" version="1.1" xmlns="http://www.w3.org/2000/svg"><rect x="-1000" y="-1000" width="2000" height="2000" stroke="white" fill="white" /><g style="fill:none;stroke:#000000;stroke-width:1"><path d="M 46.5 -5.7 C 45.8 -0.8 44.5 0.3 39.0 0.3 C 33.9 0.3 33.0 -0.7 33.0 -3.2 L 33.0 -39.9 " transform="translate(0.0 38.0)" stroke-dasharray="55.88910519304166" stroke-dashoffset="55.88910519304166"><animate attributeName="stroke-dashoffset" from="55.88910519304166" to="0" dur="1.6766731557912498s" begin="0s" fill="freeze" /></path><path d="M 9.2 -3.4 C 10.3 -5.4 11.3 -8.2 12.1 -11.0 " transform="translate(0.0 38.0)" stroke-dasharray="8.149923458345498" stroke-dashoffset="8.149923458345498"><animate attributeName="stroke-dashoffset" from="8.149923458345498" to="0" dur="0.24449770375036492s" begin="1.6766731557912498s" fill="freeze" /></path><path d="M 13.8 -5.4 C 13.2 -6.2 12.4 -7.0 11.4 -7.9 " transform="translate(0.0 38.0)" stroke-dasharray="3.470891198559306" stroke-dashoffset="3.470891198559306"><animate attributeName="stroke-dashoffset" from="3.470891198559306" to="0" dur="0.10412673595677917s" begin="1.9211708595416146s" fill="freeze" /></path><path d="M 16.2 -3.0 C 17.5 -5.3 18.6 -8.6 19.2 -11.2 " transform="translate(0.0 38.0)" stroke-dasharray="8.757647740851576" stroke-dashoffset="8.757647740851576"><animate attributeName="stroke-dashoffset" from="8.757647740851576" to="0" dur="0.2627294322255473s" begin="2.025297595498394s" fill="freeze" /></path><path d="M 21.4 -4.5 C 20.8 -5.2 19.9 -6.2 18.9 -7.0 " transform="translate(0.0 38.0)" stroke-dasharray="3.540626923304112" stroke-dashoffset="3.540626923304112"><animate attributeName="stroke-dashoffset" from="3.540626923304112" to="0" dur="0.10621880769912335s" begin="2.288027027723941s" fill="freeze" /></path><path d="M 5.4 -25.5 L 5.4 -2.3 C 5.4 0.3 6.5 1.0 8.9 1.0 L 21.4 1.0 C 23.8 1.0 24.9 0.3 24.9 -2.3 L 24.9 -25.5 " transform="translate(0.0 38.0)" stroke-dasharray="70.17659577567541" stroke-dashoffset="70.17659577567541"><animate attributeName="stroke-dashoffset" from="70.17659577567541" to="0" dur="2.105297873270262s" begin="2.3942458354230642s" fill="freeze" /></path><path d="M 23.8 -14.6 L 5.5 -14.6 " transform="translate(0.0 38.0)" stroke-dasharray="18.3" stroke-dashoffset="18.3"><animate attributeName="stroke-dashoffset" from="18.3" to="0" dur="0.549s" begin="4.499543708693326s" fill="freeze" /></path><path d="M 9.1 -18.5 C 10.2 -20.5 11.3 -23.1 12.1 -25.9 " transform="translate(0.0 38.0)" stroke-dasharray="8.000948569421752" stroke-dashoffset="8.000948569421752"><animate attributeName="stroke-dashoffset" from="8.000948569421752" to="0" dur="0.24002845708265255s" begin="5.048543708693327s" fill="freeze" /></path><path d="M 13.5 -20.4 C 12.9 -21.1 12.0 -22.0 11.0 -22.8 " transform="translate(0.0 38.0)" stroke-dasharray="3.4702155553592027" stroke-dashoffset="3.4702155553592027"><animate attributeName="stroke-dashoffset" from="3.4702155553592027" to="0" dur="0.10410646666077608s" begin="5.288572165775979s" fill="freeze" /></path><path d="M 16.2 -18.2 C 17.4 -20.3 18.6 -23.2 19.4 -26.1 " transform="translate(0.0 38.0)" stroke-dasharray="8.543790564253435" stroke-dashoffset="8.543790564253435"><animate attributeName="stroke-dashoffset" from="8.543790564253435" to="0" dur="0.256313716927603s" begin="5.3926786324367555s" fill="freeze" /></path><path d="M 21.4 -19.1 C 20.7 -19.8 19.9 -20.6 18.8 -21.4 " transform="translate(0.0 38.0)" stroke-dasharray="3.475384336015402" stroke-dashoffset="3.475384336015402"><animate attributeName="stroke-dashoffset" from="3.475384336015402" to="0" dur="0.10426153008046206s" begin="5.648992349364359s" fill="freeze" /></path><path d="M 8.5 -30.4 L 8.5 -37.9 " transform="translate(0.0 38.0)" stroke-dasharray="7.5" stroke-dashoffset="7.5"><animate attributeName="stroke-dashoffset" from="7.5" to="0" dur="0.22499999999999998s" begin="5.753253879444821s" fill="freeze" /></path><path d="M 26.5 -30.1 L 3.0 -30.1 " transform="translate(0.0 38.0)" stroke-dasharray="23.5" stroke-dashoffset="23.5"><animate attributeName="stroke-dashoffset" from="23.5" to="0" dur="0.705s" begin="5.978253879444821s" fill="freeze" /></path><path d="M 15.4 -30.4 L 15.4 -40.6 " transform="translate(0.0 38.0)" stroke-dasharray="10.200000000000003" stroke-dashoffset="10.200000000000003"><animate attributeName="stroke-dashoffset" from="10.200000000000003" to="0" dur="0.30600000000000005s" begin="6.683253879444821s" fill="freeze" /></path><path d="M 22.9 -36.3 L 16.1 -36.3 " transform="translate(0.0 38.0)" stroke-dasharray="6.799999999999997" stroke-dashoffset="6.799999999999997"><animate attributeName="stroke-dashoffset" from="6.799999999999997" to="0" dur="0.2039999999999999s" begin="6.989253879444821s" fill="freeze" /></path><path d="M 33.0 -21.2 C 37.0 -23.1 41.8 -26.2 45.1 -29.1" transform="translate(0.0 38.0)" stroke-dasharray="14.490690187120057" stroke-dashoffset="14.490690187120057"><animate attributeName="stroke-dashoffset" from="14.490690187120057" to="0" dur="0.4347207056136017s" begin="7.19325387944482s" fill="freeze" /></path></g></svg>