<?xml version='1.0' encoding='utf-8'?>
<svg viewBox="0.0 -6.0 50.0 50.0" version="1.1" xmlns="http://www.w3.org/2000/svg"><rect x="-1000" y="-1000" width="2000" height="2000" stroke="white" fill="white" /><g style="fill:none;stroke:#000000;stroke-width:1"><path d="M 29.0 1.6 L 39.5 1.6 C 42.4 1.6 43.4 0.8 43.4 -1.6 L 43.4 -11.8 C 43.4 -14.1 42.4 -14.9 39.5 -14.9 L 29.0 -14.9 C 26.1 -14.9 25.0 -14.1 25.0 -11.8 L 25.0 -1.6 C 25.0 0.8 26.1 1.6 29.0 1.6 Z " transform="translate(0.0 38.0)" stroke-dasharray="65.01208343759725" stroke-dashoffset="65.01208343759725"><animate attributeName="stroke-dashoffset" from="65.01208343759725" to="0" dur="1.9503625031279175s" begin="0s; 15s; 30s; 45s" fill="freeze" id="anim0" /></path><path d="M 18.1 -2.5 L 7.5 -2.5 " transform="translate(0.0 38.0)" stroke-dasharray="10.600000000000001" stroke-dashoffset="10.600000000000001"><animate attributeName="stroke-dashoffset" from="10.600000000000001" to="0" dur="0.318s" begin="anim0.end" fill="freeze" id="anim1" /></path><path d="M 18.1 -8.1 L 7.5 -8.1 " transform="translate(0.0 38.0)" stroke-dasharray="10.600000000000001" stroke-dashoffset="10.600000000000001"><animate attributeName="stroke-dashoffset" from="10.600000000000001" to="0" dur="0.318s" begin="anim1.end" fill="freeze" id="anim2" /></path><path d="M 6.8 2.4 L 6.8 -22.1 C 6.8 -24.1 7.6 -24.9 9.8 -24.9 L 14.7 -24.9 C 16.9 -24.9 17.8 -24.1 17.8 -22.1 L 17.8 -16.4 C 17.8 -14.6 16.9 -13.8 14.6 -13.8 L 7.7 -13.8 " transform="translate(0.0 38.0)" stroke-dasharray="56.416483930488994" stroke-dashoffset="56.416483930488994"><animate attributeName="stroke-dashoffset" from="56.416483930488994" to="0" dur="1.6924945179146698s" begin="anim2.end" fill="freeze" id="anim3" /></path><path d="M 16.9 -19.4 L 7.5 -19.4 " transform="translate(0.0 38.0)" stroke-dasharray="9.399999999999999" stroke-dashoffset="9.399999999999999"><animate attributeName="stroke-dashoffset" from="9.399999999999999" to="0" dur="0.282s" begin="anim3.end" fill="freeze" id="anim4" /></path><path d="M 34.1 0.6 L 34.1 -14.4 " transform="translate(0.0 38.0)" stroke-dasharray="15.0" stroke-dashoffset="15.0"><animate attributeName="stroke-dashoffset" from="15.0" to="0" dur="0.44999999999999996s" begin="anim4.end" fill="freeze" id="anim5" /></path><path d="M 42.9 -6.8 L 25.6 -6.8 " transform="translate(0.0 38.0)" stroke-dasharray="17.299999999999997" stroke-dashoffset="17.299999999999997"><animate attributeName="stroke-dashoffset" from="17.299999999999997" to="0" dur="0.5189999999999999s" begin="anim5.end" fill="freeze" id="anim6" /></path><path d="M 3.5 -29.4 C 6.6 -31.9 10.1 -35.9 12.3 -39.8 " transform="translate(0.0 38.0)" stroke-dasharray="13.695471861649406" stroke-dashoffset="13.695471861649406"><animate attributeName="stroke-dashoffset" from="13.695471861649406" to="0" dur="0.41086415584948216s" begin="anim6.end" fill="freeze" id="anim7" /></path><path d="M 15.5 -29.9 L 9.8 -29.9 " transform="translate(0.0 38.0)" stroke-dasharray="5.699999999999999" stroke-dashoffset="5.699999999999999"><animate attributeName="stroke-dashoffset" from="5.699999999999999" to="0" dur="0.17099999999999999s" begin="anim7.end" fill="freeze" id="anim8" /></path><path d="M 22.1 -22.1 C 25.1 -23.1 28.1 -24.6 31.4 -26.6 " transform="translate(0.0 38.0)" stroke-dasharray="10.353116276927798" stroke-dashoffset="10.353116276927798"><animate attributeName="stroke-dashoffset" from="10.353116276927798" to="0" dur="0.31059348830783395s" begin="anim8.end" fill="freeze" id="anim9" /></path><path d="M 18.6 -33.0 C 17.0 -34.7 14.5 -36.6 12.2 -38.0 " transform="translate(0.0 38.0)" stroke-dasharray="8.142979382869349" stroke-dashoffset="8.142979382869349"><animate attributeName="stroke-dashoffset" from="8.142979382869349" to="0" dur="0.24428938148608045s" begin="anim9.end" fill="freeze" id="anim10" /></path><path d="M 23.9 -23.6 L 23.9 -36.4 " transform="translate(0.0 38.0)" stroke-dasharray="12.799999999999997" stroke-dashoffset="12.799999999999997"><animate attributeName="stroke-dashoffset" from="12.799999999999997" to="0" dur="0.3839999999999999s" begin="anim10.end" fill="freeze" id="anim11" /></path><path d="M 32.8 -25.2 C 31.9 -27.2 30.7 -29.3 29.6 -30.6 " transform="translate(0.0 38.0)" stroke-dasharray="6.294510893803409" stroke-dashoffset="6.294510893803409"><animate attributeName="stroke-dashoffset" from="6.294510893803409" to="0" dur="0.18883532681410226s" begin="anim11.end" fill="freeze" id="anim12" /></path><path d="M 32.6 -20.6 C 36.7 -24.1 38.2 -28.8 38.5 -36.4 " transform="translate(0.0 38.0)" stroke-dasharray="17.410266827649945" stroke-dashoffset="17.410266827649945"><animate attributeName="stroke-dashoffset" from="17.410266827649945" to="0" dur="0.5223080048294984s" begin="anim12.end" fill="freeze" id="anim13" /></path><path d="M 24.6 -35.5 C 27.1 -36.6 29.6 -38.0 31.9 -39.4 " transform="translate(0.0 38.0)" stroke-dasharray="8.282432106624999" stroke-dashoffset="8.282432106624999"><animate attributeName="stroke-dashoffset" from="8.282432106624999" to="0" dur="0.24847296319874995s" begin="anim13.end" fill="freeze" id="anim14" /></path><path d="M 39.5 -21.2 C 40.3 -21.1 40.8 -21.0 41.4 -21.0 C 43.1 -21.0 44.4 -21.8 44.7 -24.2 C 45.2 -27.4 45.5 -30.1 45.6 -33.9 C 45.6 -35.4 45.0 -36.2 42.9 -36.2 L 34.8 -36.2" transform="translate(0.0 38.0)" stroke-dasharray="29.02505537788961" stroke-dashoffset="29.02505537788961"><animate attributeName="stroke-dashoffset" from="29.02505537788961" to="0" dur="0.8707516613366884s" begin="anim14.end" fill="freeze" id="anim_end" /></path></g></svg>