<?xml version='1.0' encoding='utf-8'?>
<svg viewBox="0.0 -6.0 50.0 50.0" version="1.1" xmlns="http://www.w3.org/2000/svg"><rect x="-1000" y="-1000" width="2000" height="2000" stroke="white" fill="white" /><g style="fill:none;stroke:#000000;stroke-width:1"><path d="M 46.6 0.3 C 42.8 0.7 38.5 0.8 33.1 0.8 C 18.6 0.8 13.6 -1.1 10.2 -5.8 " transform="translate(0.0 38.0)" stroke-dasharray="38.30496859330726" stroke-dashoffset="38.30496859330726"><animate attributeName="stroke-dashoffset" from="38.30496859330726" to="0" dur="1.1491490577992176s" begin="0s; anim_end.end" fill="freeze" id="anim0" /></path><path d="M 3.7 1.2 C 6.3 -0.8 8.7 -3.0 10.6 -5.6 " transform="translate(0.0 38.0)" stroke-dasharray="9.720601297659972" stroke-dashoffset="9.720601297659972"><animate attributeName="stroke-dashoffset" from="9.720601297659972" to="0" dur="0.29161803892979915s" begin="anim0.end" fill="freeze" id="anim1" /></path><path d="M 10.3 -4.3 L 10.3 -16.4 C 10.3 -18.4 9.7 -19.1 7.3 -19.1 L 3.8 -19.1 " transform="translate(0.0 38.0)" stroke-dasharray="20.375854468755833" stroke-dashoffset="20.375854468755833"><animate attributeName="stroke-dashoffset" from="20.375854468755833" to="0" dur="0.6112756340626749s" begin="anim1.end" fill="freeze" id="anim2" /></path><path d="M 16.1 -17.8 C 20.1 -18.9 24.1 -20.2 27.1 -21.6 " transform="translate(0.0 38.0)" stroke-dasharray="11.650410803064952" stroke-dashoffset="11.650410803064952"><animate attributeName="stroke-dashoffset" from="11.650410803064952" to="0" dur="0.34951232409194855s" begin="anim2.end" fill="freeze" id="anim3" /></path><path d="M 16.4 -6.2 C 17.2 -6.0 17.9 -5.9 18.6 -5.9 C 20.8 -5.9 21.6 -6.8 21.6 -9.2 L 21.6 -39.6 " transform="translate(0.0 38.0)" stroke-dasharray="37.83939357478006" stroke-dashoffset="37.83939357478006"><animate attributeName="stroke-dashoffset" from="37.83939357478006" to="0" dur="1.135181807243402s" begin="anim3.end" fill="freeze" id="anim4" /></path><path d="M 10.7 -33.4 C 9.6 -34.8 7.8 -36.4 6.5 -37.5 " transform="translate(0.0 38.0)" stroke-dasharray="5.878288610787124" stroke-dashoffset="5.878288610787124"><animate attributeName="stroke-dashoffset" from="5.878288610787124" to="0" dur="0.17634865832361374s" begin="anim4.end" fill="freeze" id="anim5" /></path><path d="M 27.6 -5.7 C 31.1 -10.3 32.9 -16.6 32.9 -26.6 L 32.9 -36.4 " transform="translate(0.0 38.0)" stroke-dasharray="31.752707948088524" stroke-dashoffset="31.752707948088524"><animate attributeName="stroke-dashoffset" from="31.752707948088524" to="0" dur="0.9525812384426557s" begin="anim5.end" fill="freeze" id="anim6" /></path><path d="M 27.3 -31.0 L 15.9 -31.0 " transform="translate(0.0 38.0)" stroke-dasharray="11.4" stroke-dashoffset="11.4"><animate attributeName="stroke-dashoffset" from="11.4" to="0" dur="0.34199999999999997s" begin="anim6.end" fill="freeze" id="anim7" /></path><path d="M 41.1 -5.4 L 41.1 -25.1 " transform="translate(0.0 38.0)" stroke-dasharray="19.700000000000003" stroke-dashoffset="19.700000000000003"><animate attributeName="stroke-dashoffset" from="19.700000000000003" to="0" dur="0.5910000000000001s" begin="anim7.end" fill="freeze" id="anim8" /></path><path d="M 46.4 -25.9 L 33.1 -25.9 " transform="translate(0.0 38.0)" stroke-dasharray="13.299999999999997" stroke-dashoffset="13.299999999999997"><animate attributeName="stroke-dashoffset" from="13.299999999999997" to="0" dur="0.3989999999999999s" begin="anim8.end" fill="freeze" id="anim9" /></path><path d="M 33.5 -35.6 C 37.0 -36.5 40.6 -37.5 44.4 -39.1" transform="translate(0.0 38.0)" stroke-dasharray="11.459224621654771" stroke-dashoffset="11.459224621654771"><animate attributeName="stroke-dashoffset" from="11.459224621654771" to="0" dur="0.34377673864964314s" begin="anim9.end" fill="freeze" id="anim_end" /></path></g></svg>