<?xml version='1.0' encoding='utf-8'?>
<svg viewBox="0.0 -6.0 50.0 50.0" version="1.1" xmlns="http://www.w3.org/2000/svg"><rect x="-1000" y="-1000" width="2000" height="2000" stroke="white" fill="white" /><g style="fill:none;stroke:#000000;stroke-width:1"><path d="M 46.4 0.2 C 42.2 0.6 38.0 0.7 32.5 0.7 C 18.7 0.7 14.0 -1.2 10.8 -6.0 " transform="translate(0.0 38.0)" stroke-dasharray="37.648361399255634" stroke-dashoffset="37.648361399255634"><animate attributeName="stroke-dashoffset" from="37.648361399255634" to="0" dur="1.129450841977669s" begin="0s; anim_end.end" fill="freeze" id="anim0" /></path><path d="M 3.6 1.4 C 6.3 -0.5 8.7 -2.8 10.6 -5.2 " transform="translate(0.0 38.0)" stroke-dasharray="9.653428541412685" stroke-dashoffset="9.653428541412685"><animate attributeName="stroke-dashoffset" from="9.653428541412685" to="0" dur="0.2896028562423805s" begin="anim0.end" fill="freeze" id="anim1" /></path><path d="M 10.7 -4.6 L 10.7 -13.6 C 10.7 -15.5 9.9 -16.2 7.5 -16.2 L 4.0 -16.2 " transform="translate(0.0 38.0)" stroke-dasharray="17.321111661722718" stroke-dashoffset="17.321111661722718"><animate attributeName="stroke-dashoffset" from="17.321111661722718" to="0" dur="0.5196333498516815s" begin="anim1.end" fill="freeze" id="anim2" /></path><path d="M 9.4 -25.5 C 8.0 -26.9 6.7 -27.9 5.2 -28.8 " transform="translate(0.0 38.0)" stroke-dasharray="5.355643212875491" stroke-dashoffset="5.355643212875491"><animate attributeName="stroke-dashoffset" from="5.355643212875491" to="0" dur="0.16066929638626473s" begin="anim2.end" fill="freeze" id="anim3" /></path><path d="M 45.3 -7.3 L 17.1 -7.3 " transform="translate(0.0 38.0)" stroke-dasharray="28.199999999999996" stroke-dashoffset="28.199999999999996"><animate attributeName="stroke-dashoffset" from="28.199999999999996" to="0" dur="0.8459999999999999s" begin="anim3.end" fill="freeze" id="anim4" /></path><path d="M 30.6 -7.5 L 30.6 -17.1 " transform="translate(0.0 38.0)" stroke-dasharray="9.600000000000001" stroke-dashoffset="9.600000000000001"><animate attributeName="stroke-dashoffset" from="9.600000000000001" to="0" dur="0.28800000000000003s" begin="anim4.end" fill="freeze" id="anim5" /></path><path d="M 22.9 -21.7 C 21.6 -23.8 20.1 -25.9 18.6 -27.4 " transform="translate(0.0 38.0)" stroke-dasharray="7.154816856098477" stroke-dashoffset="7.154816856098477"><animate attributeName="stroke-dashoffset" from="7.154816856098477" to="0" dur="0.2146445056829543s" begin="anim5.end" fill="freeze" id="anim6" /></path><path d="M 11.9 -35.6 C 10.4 -37.1 9.2 -38.0 7.7 -39.0 " transform="translate(0.0 38.0)" stroke-dasharray="5.413912854119054" stroke-dashoffset="5.413912854119054"><animate attributeName="stroke-dashoffset" from="5.413912854119054" to="0" dur="0.16241738562357164s" begin="anim6.end" fill="freeze" id="anim7" /></path><path d="M 42.7 -16.8 L 19.7 -16.8 " transform="translate(0.0 38.0)" stroke-dasharray="23.000000000000004" stroke-dashoffset="23.000000000000004"><animate attributeName="stroke-dashoffset" from="23.000000000000004" to="0" dur="0.6900000000000001s" begin="anim7.end" fill="freeze" id="anim8" /></path><path d="M 19.4 -27.3 C 20.8 -29.2 21.9 -31.2 23.1 -33.8 " transform="translate(0.0 38.0)" stroke-dasharray="7.492803327868219" stroke-dashoffset="7.492803327868219"><animate attributeName="stroke-dashoffset" from="7.492803327868219" to="0" dur="0.22478409983604655s" begin="anim8.end" fill="freeze" id="anim9" /></path><path d="M 32.0 -21.9 C 30.8 -23.8 29.1 -25.9 27.6 -27.4 " transform="translate(0.0 38.0)" stroke-dasharray="7.056297424676051" stroke-dashoffset="7.056297424676051"><animate attributeName="stroke-dashoffset" from="7.056297424676051" to="0" dur="0.2116889227402815s" begin="anim9.end" fill="freeze" id="anim10" /></path><path d="M 28.4 -27.2 C 29.8 -29.1 30.9 -31.1 32.2 -33.6 " transform="translate(0.0 38.0)" stroke-dasharray="7.45105591616336" stroke-dashoffset="7.45105591616336"><animate attributeName="stroke-dashoffset" from="7.45105591616336" to="0" dur="0.22353167748490077s" begin="anim10.end" fill="freeze" id="anim11" /></path><path d="M 40.8 -21.9 C 39.4 -24.0 37.8 -25.9 36.3 -27.4 " transform="translate(0.0 38.0)" stroke-dasharray="7.117494772100568" stroke-dashoffset="7.117494772100568"><animate attributeName="stroke-dashoffset" from="7.117494772100568" to="0" dur="0.21352484316301704s" begin="anim11.end" fill="freeze" id="anim12" /></path><path d="M 45.2 -38.0 L 17.4 -38.0 " transform="translate(0.0 38.0)" stroke-dasharray="27.800000000000004" stroke-dashoffset="27.800000000000004"><animate attributeName="stroke-dashoffset" from="27.800000000000004" to="0" dur="0.8340000000000001s" begin="anim12.end" fill="freeze" id="anim13" /></path><path d="M 37.2 -27.4 C 38.5 -29.2 39.8 -31.2 41.0 -33.6" transform="translate(0.0 38.0)" stroke-dasharray="7.280100049652427" stroke-dashoffset="7.280100049652427"><animate attributeName="stroke-dashoffset" from="7.280100049652427" to="0" dur="0.2184030014895728s" begin="anim13.end" fill="freeze" id="anim_end" /></path></g></svg>