<?xml version='1.0' encoding='utf-8'?>
<svg viewBox="0.0 -6.0 50.0 50.0" version="1.1" xmlns="http://www.w3.org/2000/svg"><rect x="-1000" y="-1000" width="2000" height="2000" stroke="white" fill="white" /><g style="fill:none;stroke:#000000;stroke-width:1"><path d="M 42.5 -5.0 C 42.9 -4.9 43.2 -4.9 43.5 -4.9 C 44.9 -4.9 45.6 -5.7 45.6 -7.4 L 45.6 -25.1 C 45.6 -27.1 44.8 -27.9 42.8 -27.9 L 36.8 -27.9 C 34.8 -27.9 34.0 -27.1 34.0 -25.1 L 34.0 -3.9 " transform="translate(0.0 38.0)" stroke-dasharray="58.874165318294956" stroke-dashoffset="58.874165318294956"><animate attributeName="stroke-dashoffset" from="58.874165318294956" to="0" dur="1.7662249595488486s" begin="0s; anim_end.end" fill="freeze" id="anim0" /></path><path d="M 3.0 0.8 C 4.0 -1.2 4.7 -3.8 5.0 -6.1 " transform="translate(0.0 38.0)" stroke-dasharray="7.214610978810564" stroke-dashoffset="7.214610978810564"><animate attributeName="stroke-dashoffset" from="7.214610978810564" to="0" dur="0.2164383293643169s" begin="anim0.end" fill="freeze" id="anim1" /></path><path d="M 9.2 -1.1 C 9.2 -2.9 8.8 -5.1 8.6 -6.6 " transform="translate(0.0 38.0)" stroke-dasharray="5.537323381718209" stroke-dashoffset="5.537323381718209"><animate attributeName="stroke-dashoffset" from="5.537323381718209" to="0" dur="0.16611970145154625s" begin="anim1.end" fill="freeze" id="anim2" /></path><path d="M 13.7 -2.6 C 13.3 -4.2 12.7 -6.0 12.2 -7.3 " transform="translate(0.0 38.0)" stroke-dasharray="4.936301083931792" stroke-dashoffset="4.936301083931792"><animate attributeName="stroke-dashoffset" from="4.936301083931792" to="0" dur="0.14808903251795374s" begin="anim2.end" fill="freeze" id="anim3" /></path><path d="M 17.4 -4.5 C 16.9 -5.8 16.2 -7.2 15.7 -8.2 " transform="translate(0.0 38.0)" stroke-dasharray="4.073452620634148" stroke-dashoffset="4.073452620634148"><animate attributeName="stroke-dashoffset" from="4.073452620634148" to="0" dur="0.12220357861902444s" begin="anim3.end" fill="freeze" id="anim4" /></path><path d="M 10.6 -11.9 L 10.6 -27.3 " transform="translate(0.0 38.0)" stroke-dasharray="15.4" stroke-dashoffset="15.4"><animate attributeName="stroke-dashoffset" from="15.4" to="0" dur="0.46199999999999997s" begin="anim4.end" fill="freeze" id="anim5" /></path><path d="M 16.0 -14.4 L 16.0 -25.4 C 16.0 -27.1 15.3 -28.1 13.3 -28.1 L 7.8 -28.1 C 5.9 -28.1 5.2 -27.1 5.2 -25.4 L 5.2 -14.4 C 5.2 -12.8 5.9 -11.8 7.8 -11.8 L 13.3 -11.8 C 15.3 -11.8 16.0 -12.8 16.0 -14.4 Z " transform="translate(0.0 38.0)" stroke-dasharray="50.276779060657674" stroke-dashoffset="50.276779060657674"><animate attributeName="stroke-dashoffset" from="50.276779060657674" to="0" dur="1.50830337181973s" begin="anim5.end" fill="freeze" id="anim6" /></path><path d="M 15.0 -20.2 L 5.9 -20.2 " transform="translate(0.0 38.0)" stroke-dasharray="9.1" stroke-dashoffset="9.1"><animate attributeName="stroke-dashoffset" from="9.1" to="0" dur="0.27299999999999996s" begin="anim6.end" fill="freeze" id="anim7" /></path><path d="M 2.8 -29.6 C 4.8 -32.4 6.8 -36.2 8.1 -39.9 " transform="translate(0.0 38.0)" stroke-dasharray="11.618992731182049" stroke-dashoffset="11.618992731182049"><animate attributeName="stroke-dashoffset" from="11.618992731182049" to="0" dur="0.34856978193546145s" begin="anim7.end" fill="freeze" id="anim8" /></path><path d="M 22.0 -21.8 L 26.0 -21.8 C 27.8 -21.8 28.5 -22.4 28.5 -24.2 L 28.5 -30.9 C 28.5 -32.8 27.9 -33.5 26.1 -33.5 L 23.9 -33.5 C 22.1 -33.5 21.4 -32.8 21.4 -30.9 L 21.4 -2.7 C 21.4 -0.9 22.1 -0.2 23.9 -0.2 L 26.5 -0.2 C 28.3 -0.2 29.0 -0.9 29.0 -2.7 L 29.0 -10.9 C 29.0 -12.8 28.3 -13.4 26.5 -13.4 L 21.9 -13.4 " transform="translate(0.0 38.0)" stroke-dasharray="81.31638983118569" stroke-dashoffset="81.31638983118569"><animate attributeName="stroke-dashoffset" from="81.31638983118569" to="0" dur="2.4394916949355707s" begin="anim8.end" fill="freeze" id="anim9" /></path><path d="M 10.7 -29.3 C 11.6 -30.9 12.3 -32.5 12.6 -33.4 C 13.1 -34.8 12.3 -35.7 10.5 -35.7 L 6.8 -35.7 " transform="translate(0.0 38.0)" stroke-dasharray="12.068688230552688" stroke-dashoffset="12.068688230552688"><animate attributeName="stroke-dashoffset" from="12.068688230552688" to="0" dur="0.36206064691658063s" begin="anim9.end" fill="freeze" id="anim10" /></path><path d="M 39.7 2.5 L 39.7 -36.0 " transform="translate(0.0 38.0)" stroke-dasharray="38.5" stroke-dashoffset="38.5"><animate attributeName="stroke-dashoffset" from="38.5" to="0" dur="1.155s" begin="anim10.end" fill="freeze" id="anim11" /></path><path d="M 24.3 -34.2 C 24.9 -36.0 25.2 -37.5 25.6 -39.4 " transform="translate(0.0 38.0)" stroke-dasharray="5.363506472416718" stroke-dashoffset="5.363506472416718"><animate attributeName="stroke-dashoffset" from="5.363506472416718" to="0" dur="0.16090519417250154s" begin="anim11.end" fill="freeze" id="anim12" /></path><path d="M 46.9 -36.4 L 33.0 -36.4" transform="translate(0.0 38.0)" stroke-dasharray="13.899999999999999" stroke-dashoffset="13.899999999999999"><animate attributeName="stroke-dashoffset" from="13.899999999999999" to="0" dur="0.4169999999999999s" begin="anim12.end" fill="freeze" id="anim_end" /></path></g></svg>