<?xml version='1.0' encoding='utf-8'?>
<svg viewBox="0.0 -6.0 50.0 50.0" version="1.1" xmlns="http://www.w3.org/2000/svg"><rect x="-1000" y="-1000" width="2000" height="2000" stroke="white" fill="white" /><g style="fill:none;stroke:#000000;stroke-width:1"><path d="M 47.7 -5.2 C 47.3 -0.6 46.1 0.6 44.8 0.6 C 43.0 0.6 41.1 -2.0 39.4 -11.2 C 38.1 -17.9 37.6 -25.8 37.6 -39.9 " transform="translate(0.0 38.0)" stroke-dasharray="49.45173230412872" stroke-dashoffset="49.45173230412872"><animate attributeName="stroke-dashoffset" from="49.45173230412872" to="0" dur="1.4835519691238614s" begin="0s; 15s; 30s; 45s" fill="freeze" id="anim0" /></path><path d="M 3.5 -0.9 C 7.8 -1.4 12.4 -2.8 15.9 -4.0 " transform="translate(0.0 38.0)" stroke-dasharray="12.805290638174949" stroke-dashoffset="12.805290638174949"><animate attributeName="stroke-dashoffset" from="12.805290638174949" to="0" dur="0.38415871914524846s" begin="anim0.end" fill="freeze" id="anim1" /></path><path d="M 5.7 -7.4 C 5.3 -9.3 4.7 -11.2 4.0 -12.6 " transform="translate(0.0 38.0)" stroke-dasharray="5.484522630418699" stroke-dashoffset="5.484522630418699"><animate attributeName="stroke-dashoffset" from="5.484522630418699" to="0" dur="0.16453567891256096s" begin="anim1.end" fill="freeze" id="anim2" /></path><path d="M 10.2 -2.6 L 10.2 -27.0 " transform="translate(0.0 38.0)" stroke-dasharray="24.4" stroke-dashoffset="24.4"><animate attributeName="stroke-dashoffset" from="24.4" to="0" dur="0.732s" begin="anim2.end" fill="freeze" id="anim3" /></path><path d="M 14.3 -8.8 C 14.8 -10.0 15.3 -11.8 15.8 -13.7 " transform="translate(0.0 38.0)" stroke-dasharray="5.1278953938186564" stroke-dashoffset="5.1278953938186564"><animate attributeName="stroke-dashoffset" from="5.1278953938186564" to="0" dur="0.1538368618145597s" begin="anim3.end" fill="freeze" id="anim4" /></path><path d="M 18.8 -0.2 C 23.1 -0.8 27.6 -1.7 31.5 -2.8 " transform="translate(0.0 38.0)" stroke-dasharray="12.972947829319589" stroke-dashoffset="12.972947829319589"><animate attributeName="stroke-dashoffset" from="12.972947829319589" to="0" dur="0.38918843487958765s" begin="anim4.end" fill="freeze" id="anim5" /></path><path d="M 15.8 -19.0 L 3.1 -19.0 " transform="translate(0.0 38.0)" stroke-dasharray="12.700000000000001" stroke-dashoffset="12.700000000000001"><animate attributeName="stroke-dashoffset" from="12.700000000000001" to="0" dur="0.381s" begin="anim5.end" fill="freeze" id="anim6" /></path><path d="M 26.2 -2.2 L 26.2 -13.4 " transform="translate(0.0 38.0)" stroke-dasharray="11.2" stroke-dashoffset="11.2"><animate attributeName="stroke-dashoffset" from="11.2" to="0" dur="0.33599999999999997s" begin="anim6.end" fill="freeze" id="anim7" /></path><path d="M 31.4 -7.9 L 21.1 -7.9 " transform="translate(0.0 38.0)" stroke-dasharray="10.299999999999997" stroke-dashoffset="10.299999999999997"><animate attributeName="stroke-dashoffset" from="10.299999999999997" to="0" dur="0.3089999999999999s" begin="anim7.end" fill="freeze" id="anim8" /></path><path d="M 14.8 -26.9 L 6.4 -26.9 " transform="translate(0.0 38.0)" stroke-dasharray="8.4" stroke-dashoffset="8.4"><animate attributeName="stroke-dashoffset" from="8.4" to="0" dur="0.252s" begin="anim8.end" fill="freeze" id="anim9" /></path><path d="M 32.6 -13.5 L 19.9 -13.5 " transform="translate(0.0 38.0)" stroke-dasharray="12.700000000000003" stroke-dashoffset="12.700000000000003"><animate attributeName="stroke-dashoffset" from="12.700000000000003" to="0" dur="0.38100000000000006s" begin="anim9.end" fill="freeze" id="anim10" /></path><path d="M 2.8 -29.2 C 5.7 -31.9 8.4 -35.5 10.6 -39.5 " transform="translate(0.0 38.0)" stroke-dasharray="12.972976481623782" stroke-dashoffset="12.972976481623782"><animate attributeName="stroke-dashoffset" from="12.972976481623782" to="0" dur="0.3891892944487134s" begin="anim10.end" fill="freeze" id="anim11" /></path><path d="M 30.9 2.5 C 38.3 -2.5 42.9 -10.1 45.1 -20.7 " transform="translate(0.0 38.0)" stroke-dasharray="27.932329977329488" stroke-dashoffset="27.932329977329488"><animate attributeName="stroke-dashoffset" from="27.932329977329488" to="0" dur="0.8379698993198846s" begin="anim11.end" fill="freeze" id="anim12" /></path><path d="M 23.8 -18.6 L 28.6 -18.6 C 30.7 -18.6 31.3 -19.2 31.3 -20.8 L 31.3 -22.8 C 31.3 -24.3 30.7 -25.1 28.6 -25.1 L 23.8 -25.1 C 21.8 -25.1 21.1 -24.3 21.1 -22.8 L 21.1 -20.8 C 21.1 -19.2 21.8 -18.6 23.8 -18.6 Z " transform="translate(0.0 38.0)" stroke-dasharray="29.97684093009932" stroke-dashoffset="29.97684093009932"><animate attributeName="stroke-dashoffset" from="29.97684093009932" to="0" dur="0.8993052279029796s" begin="anim12.end" fill="freeze" id="anim13" /></path><path d="M 15.4 -33.8 C 14.1 -35.2 12.3 -36.9 10.6 -38.0 " transform="translate(0.0 38.0)" stroke-dasharray="6.392880045129696" stroke-dashoffset="6.392880045129696"><animate attributeName="stroke-dashoffset" from="6.392880045129696" to="0" dur="0.19178640135389088s" begin="anim13.end" fill="freeze" id="anim14" /></path><path d="M 46.2 -30.1 L 18.2 -30.1 " transform="translate(0.0 38.0)" stroke-dasharray="28.000000000000004" stroke-dashoffset="28.000000000000004"><animate attributeName="stroke-dashoffset" from="28.000000000000004" to="0" dur="0.8400000000000001s" begin="anim14.end" fill="freeze" id="anim15" /></path><path d="M 31.9 -36.2 L 20.9 -36.2 " transform="translate(0.0 38.0)" stroke-dasharray="11.0" stroke-dashoffset="11.0"><animate attributeName="stroke-dashoffset" from="11.0" to="0" dur="0.32999999999999996s" begin="anim15.end" fill="freeze" id="anim16" /></path><path d="M 26.2 -30.2 L 26.2 -40.4 " transform="translate(0.0 38.0)" stroke-dasharray="10.2" stroke-dashoffset="10.2"><animate attributeName="stroke-dashoffset" from="10.2" to="0" dur="0.306s" begin="anim16.end" fill="freeze" id="anim17" /></path><path d="M 44.9 -35.0 C 44.1 -36.1 43.4 -37.1 42.5 -38.0" transform="translate(0.0 38.0)" stroke-dasharray="3.8462553745564105" stroke-dashoffset="3.8462553745564105"><animate attributeName="stroke-dashoffset" from="3.8462553745564105" to="0" dur="0.11538766123669231s" begin="anim17.end" fill="freeze" id="anim_end" /></path></g></svg>