<?xml version='1.0' encoding='utf-8'?>
<svg viewBox="0.0 -6.0 50.0 50.0" version="1.1" xmlns="http://www.w3.org/2000/svg"><rect x="-1000" y="-1000" width="2000" height="2000" stroke="white" fill="white" /><g style="fill:none;stroke:#000000;stroke-width:1"><path d="M 25.8 2.3 C 33.8 -1.1 39.8 -7.7 41.6 -16.5 " transform="translate(0.0 38.0)" stroke-dasharray="25.57076183147724" stroke-dashoffset="25.57076183147724"><animate attributeName="stroke-dashoffset" from="25.57076183147724" to="0" dur="0.7671228549443171s" begin="0s" fill="freeze" /></path><path d="M 19.9 -2.3 L 8.6 -2.3 " transform="translate(0.0 38.0)" stroke-dasharray="11.299999999999999" stroke-dashoffset="11.299999999999999"><animate attributeName="stroke-dashoffset" from="11.299999999999999" to="0" dur="0.33899999999999997s" begin="0.7671228549443171s" fill="freeze" /></path><path d="M 16.4 2.3 C 17.4 2.5 17.8 2.5 18.4 2.5 C 20.1 2.5 20.9 1.8 20.9 -0.1 L 20.9 -8.7 C 20.9 -10.2 20.2 -10.8 17.9 -10.8 L 10.9 -10.8 C 8.6 -10.8 7.9 -10.2 7.9 -8.7 L 7.9 3.0 " transform="translate(0.0 38.0)" stroke-dasharray="42.01109280383002" stroke-dashoffset="42.01109280383002"><animate attributeName="stroke-dashoffset" from="42.01109280383002" to="0" dur="1.2603327841149006s" begin="1.1061228549443172s" fill="freeze" /></path><path d="M 19.9 -6.5 L 8.6 -6.5 " transform="translate(0.0 38.0)" stroke-dasharray="11.299999999999999" stroke-dashoffset="11.299999999999999"><animate attributeName="stroke-dashoffset" from="11.299999999999999" to="0" dur="0.33899999999999997s" begin="2.3664556390592177s" fill="freeze" /></path><path d="M 24.9 -15.1 L 3.9 -15.1 " transform="translate(0.0 38.0)" stroke-dasharray="21.0" stroke-dashoffset="21.0"><animate attributeName="stroke-dashoffset" from="21.0" to="0" dur="0.63s" begin="2.7054556390592177s" fill="freeze" /></path><path d="M 10.6 -15.2 L 10.6 -22.9 " transform="translate(0.0 38.0)" stroke-dasharray="7.699999999999999" stroke-dashoffset="7.699999999999999"><animate attributeName="stroke-dashoffset" from="7.699999999999999" to="0" dur="0.23099999999999998s" begin="3.3354556390592176s" fill="freeze" /></path><path d="M 23.6 -20.3 L 5.8 -20.3 " transform="translate(0.0 38.0)" stroke-dasharray="17.8" stroke-dashoffset="17.8"><animate attributeName="stroke-dashoffset" from="17.8" to="0" dur="0.534s" begin="3.5664556390592175s" fill="freeze" /></path><path d="M 18.2 -15.2 L 18.2 -22.9 " transform="translate(0.0 38.0)" stroke-dasharray="7.699999999999999" stroke-dashoffset="7.699999999999999"><animate attributeName="stroke-dashoffset" from="7.699999999999999" to="0" dur="0.23099999999999998s" begin="4.100455639059217s" fill="freeze" /></path><path d="M 19.2 -26.4 L 10.8 -26.4 " transform="translate(0.0 38.0)" stroke-dasharray="8.399999999999999" stroke-dashoffset="8.399999999999999"><animate attributeName="stroke-dashoffset" from="8.399999999999999" to="0" dur="0.25199999999999995s" begin="4.331455639059217s" fill="freeze" /></path><path d="M 45.6 1.6 C 38.5 -2.2 33.1 -7.7 30.4 -15.7 " transform="translate(0.0 38.0)" stroke-dasharray="23.618464807548627" stroke-dashoffset="23.618464807548627"><animate attributeName="stroke-dashoffset" from="23.618464807548627" to="0" dur="0.7085539442264588s" begin="4.583455639059217s" fill="freeze" /></path><path d="M 19.2 -30.6 L 11.3 -30.6 " transform="translate(0.0 38.0)" stroke-dasharray="7.899999999999999" stroke-dashoffset="7.899999999999999"><animate attributeName="stroke-dashoffset" from="7.899999999999999" to="0" dur="0.23699999999999996s" begin="5.292009583285676s" fill="freeze" /></path><path d="M 27.1 -10.5 C 29.6 -13.6 32.0 -17.9 33.5 -22.1 " transform="translate(0.0 38.0)" stroke-dasharray="13.305616914234008" stroke-dashoffset="13.305616914234008"><animate attributeName="stroke-dashoffset" from="13.305616914234008" to="0" dur="0.3991685074270202s" begin="5.529009583285676s" fill="freeze" /></path><path d="M 45.5 -17.2 L 31.1 -17.2 " transform="translate(0.0 38.0)" stroke-dasharray="14.399999999999999" stroke-dashoffset="14.399999999999999"><animate attributeName="stroke-dashoffset" from="14.399999999999999" to="0" dur="0.43199999999999994s" begin="5.928178090712696s" fill="freeze" /></path><path d="M 24.9 -25.5 L 24.9 -39.0 " transform="translate(0.0 38.0)" stroke-dasharray="13.5" stroke-dashoffset="13.5"><animate attributeName="stroke-dashoffset" from="13.5" to="0" dur="0.40499999999999997s" begin="6.3601780907126955s" fill="freeze" /></path><path d="M 44.2 -29.6 L 44.2 -32.5 C 44.2 -33.8 43.6 -34.8 41.2 -34.8 L 8.8 -34.8 C 6.3 -34.8 5.7 -33.8 5.7 -32.5 L 5.7 -29.4 " transform="translate(0.0 38.0)" stroke-dasharray="47.17684913662558" stroke-dashoffset="47.17684913662558"><animate attributeName="stroke-dashoffset" from="47.17684913662558" to="0" dur="1.4153054740987672s" begin="6.765178090712696s" fill="freeze" /></path><path d="M 39.1 -26.4 L 30.4 -26.4 " transform="translate(0.0 38.0)" stroke-dasharray="8.700000000000003" stroke-dashoffset="8.700000000000003"><animate attributeName="stroke-dashoffset" from="8.700000000000003" to="0" dur="0.26100000000000007s" begin="8.180483564811462s" fill="freeze" /></path><path d="M 41.4 -39.1 L 9.2 -39.1 " transform="translate(0.0 38.0)" stroke-dasharray="32.2" stroke-dashoffset="32.2"><animate attributeName="stroke-dashoffset" from="32.2" to="0" dur="0.9660000000000001s" begin="8.441483564811461s" fill="freeze" /></path><path d="M 38.2 -30.6 L 30.4 -30.6" transform="translate(0.0 38.0)" stroke-dasharray="7.800000000000004" stroke-dashoffset="7.800000000000004"><animate attributeName="stroke-dashoffset" from="7.800000000000004" to="0" dur="0.23400000000000012s" begin="9.40748356481146s" fill="freeze" /></path></g></svg>