<?xml version='1.0' encoding='utf-8'?>
<svg viewBox="0.0 -6.0 50.0 50.0" version="1.1" xmlns="http://www.w3.org/2000/svg"><rect x="-1000" y="-1000" width="2000" height="2000" stroke="white" fill="white" /><g style="fill:none;stroke:#000000;stroke-width:1"><path d="M 16.2 0.8 L 33.8 0.8 C 37.1 0.8 38.2 -0.7 38.2 -3.0 L 38.2 -20.4 C 38.2 -22.8 37.1 -24.1 33.8 -24.1 L 16.2 -24.1 C 12.9 -24.1 11.8 -22.8 11.8 -20.4 L 11.8 -3.0 C 11.8 -0.7 12.9 0.8 16.2 0.8 Z " transform="translate(0.0 38.0)" stroke-dasharray="96.6741839603888" stroke-dashoffset="96.6741839603888"><animate attributeName="stroke-dashoffset" from="96.6741839603888" to="0" dur="2.900225518811664s" begin="0s; 15s; 30s; 45s" fill="freeze" id="anim0" /></path><path d="M 37.8 -8.2 L 12.8 -8.2 " transform="translate(0.0 38.0)" stroke-dasharray="24.999999999999996" stroke-dashoffset="24.999999999999996"><animate attributeName="stroke-dashoffset" from="24.999999999999996" to="0" dur="0.7499999999999999s" begin="anim0.end" fill="freeze" id="anim1" /></path><path d="M 37.8 -16.2 L 12.8 -16.2 " transform="translate(0.0 38.0)" stroke-dasharray="24.999999999999996" stroke-dashoffset="24.999999999999996"><animate attributeName="stroke-dashoffset" from="24.999999999999996" to="0" dur="0.7499999999999999s" begin="anim1.end" fill="freeze" id="anim2" /></path><path d="M 21.6 -24.6 C 22.8 -27.1 23.6 -29.1 24.4 -31.7 " transform="translate(0.0 38.0)" stroke-dasharray="7.6401405936903135" stroke-dashoffset="7.6401405936903135"><animate attributeName="stroke-dashoffset" from="7.6401405936903135" to="0" dur="0.2292042178107094s" begin="anim2.end" fill="freeze" id="anim3" /></path><path d="M 18.4 -36.2 C 17.8 -37.5 16.9 -38.9 15.8 -40.2 " transform="translate(0.0 38.0)" stroke-dasharray="4.784698889030205" stroke-dashoffset="4.784698889030205"><animate attributeName="stroke-dashoffset" from="4.784698889030205" to="0" dur="0.14354096667090613s" begin="anim3.end" fill="freeze" id="anim4" /></path><path d="M 46.1 -31.9 L 4.0 -31.9 " transform="translate(0.0 38.0)" stroke-dasharray="42.1" stroke-dashoffset="42.1"><animate attributeName="stroke-dashoffset" from="42.1" to="0" dur="1.263s" begin="anim4.end" fill="freeze" id="anim5" /></path><path d="M 29.1 -32.6 C 30.6 -34.9 32.0 -37.2 33.2 -40.0" transform="translate(0.0 38.0)" stroke-dasharray="8.471320682005356" stroke-dashoffset="8.471320682005356"><animate attributeName="stroke-dashoffset" from="8.471320682005356" to="0" dur="0.25413962046016064s" begin="anim5.end" fill="freeze" id="anim_end" /></path></g></svg>