<?xml version='1.0' encoding='utf-8'?>
<svg viewBox="0.0 -6.0 50.0 50.0" version="1.1" xmlns="http://www.w3.org/2000/svg"><rect x="-1000" y="-1000" width="2000" height="2000" stroke="white" fill="white" /><g style="fill:none;stroke:#000000;stroke-width:1"><path d="M 30.8 2.2 C 35.8 -4.7 38.1 -13.9 38.1 -29.1 L 38.1 -39.4 " transform="translate(0.0 38.0)" stroke-dasharray="42.980631366308366" stroke-dashoffset="42.980631366308366"><animate attributeName="stroke-dashoffset" from="42.980631366308366" to="0" dur="1.289418940989251s" begin="0s; anim_end.end" fill="freeze" id="anim0" /></path><path d="M 3.7 -0.9 C 8.0 -1.6 13.1 -3.1 16.6 -4.7 " transform="translate(0.0 38.0)" stroke-dasharray="13.482460608319615" stroke-dashoffset="13.482460608319615"><animate attributeName="stroke-dashoffset" from="13.482460608319615" to="0" dur="0.40447381824958845s" begin="anim0.end" fill="freeze" id="anim1" /></path><path d="M 6.1 -7.6 C 5.8 -9.4 5.0 -11.4 4.3 -12.7 " transform="translate(0.0 38.0)" stroke-dasharray="5.429766291300592" stroke-dashoffset="5.429766291300592"><animate attributeName="stroke-dashoffset" from="5.429766291300592" to="0" dur="0.16289298873901778s" begin="anim1.end" fill="freeze" id="anim2" /></path><path d="M 10.8 -2.8 L 10.8 -26.9 " transform="translate(0.0 38.0)" stroke-dasharray="24.099999999999998" stroke-dashoffset="24.099999999999998"><animate attributeName="stroke-dashoffset" from="24.099999999999998" to="0" dur="0.7229999999999999s" begin="anim2.end" fill="freeze" id="anim3" /></path><path d="M 15.1 -9.2 C 15.6 -10.4 16.1 -12.2 16.6 -14.1 " transform="translate(0.0 38.0)" stroke-dasharray="5.127895393818657" stroke-dashoffset="5.127895393818657"><animate attributeName="stroke-dashoffset" from="5.127895393818657" to="0" dur="0.15383686181455972s" begin="anim3.end" fill="freeze" id="anim4" /></path><path d="M 18.5 -1.1 C 22.6 -2.1 28.1 -3.9 31.6 -5.5 " transform="translate(0.0 38.0)" stroke-dasharray="13.83581874203471" stroke-dashoffset="13.83581874203471"><animate attributeName="stroke-dashoffset" from="13.83581874203471" to="0" dur="0.4150745622610413s" begin="anim4.end" fill="freeze" id="anim5" /></path><path d="M 16.8 -18.9 L 3.2 -18.9 " transform="translate(0.0 38.0)" stroke-dasharray="13.600000000000001" stroke-dashoffset="13.600000000000001"><animate attributeName="stroke-dashoffset" from="13.600000000000001" to="0" dur="0.40800000000000003s" begin="anim5.end" fill="freeze" id="anim6" /></path><path d="M 15.7 -26.8 L 6.5 -26.8 " transform="translate(0.0 38.0)" stroke-dasharray="9.2" stroke-dashoffset="9.2"><animate attributeName="stroke-dashoffset" from="9.2" to="0" dur="0.27599999999999997s" begin="anim6.end" fill="freeze" id="anim7" /></path><path d="M 29.2 -15.4 L 21.7 -15.4 " transform="translate(0.0 38.0)" stroke-dasharray="7.5" stroke-dashoffset="7.5"><animate attributeName="stroke-dashoffset" from="7.5" to="0" dur="0.22499999999999998s" begin="anim7.end" fill="freeze" id="anim8" /></path><path d="M 2.9 -29.1 C 5.9 -31.8 9.2 -35.7 11.3 -39.5 " transform="translate(0.0 38.0)" stroke-dasharray="13.424517844668662" stroke-dashoffset="13.424517844668662"><animate attributeName="stroke-dashoffset" from="13.424517844668662" to="0" dur="0.40273553534005985s" begin="anim8.end" fill="freeze" id="anim9" /></path><path d="M 29.6 -5.8 L 29.6 -33.6 C 29.6 -36.0 28.9 -36.8 26.8 -36.8 L 24.4 -36.8 C 22.3 -36.8 21.6 -36.0 21.6 -33.6 L 21.6 -2.8 " transform="translate(0.0 38.0)" stroke-dasharray="70.99310962120633" stroke-dashoffset="70.99310962120633"><animate attributeName="stroke-dashoffset" from="70.99310962120633" to="0" dur="2.12979328863619s" begin="anim9.end" fill="freeze" id="anim10" /></path><path d="M 16.9 -32.5 C 15.2 -34.4 13.0 -36.4 11.1 -37.8 " transform="translate(0.0 38.0)" stroke-dasharray="7.869302930333913" stroke-dashoffset="7.869302930333913"><animate attributeName="stroke-dashoffset" from="7.869302930333913" to="0" dur="0.2360790879100174s" begin="anim10.end" fill="freeze" id="anim11" /></path><path d="M 29.2 -26.2 L 21.7 -26.2 " transform="translate(0.0 38.0)" stroke-dasharray="7.5" stroke-dashoffset="7.5"><animate attributeName="stroke-dashoffset" from="7.5" to="0" dur="0.22499999999999998s" begin="anim11.end" fill="freeze" id="anim12" /></path><path d="M 37.9 0.9 C 38.8 1.1 39.5 1.2 40.1 1.2 C 42.5 1.2 44.0 0.1 44.4 -4.1 C 45.0 -9.3 45.5 -16.6 45.5 -25.2 C 45.5 -27.4 44.8 -28.4 42.4 -28.4 L 33.8 -28.1" transform="translate(0.0 38.0)" stroke-dasharray="44.898497888361476" stroke-dashoffset="44.898497888361476"><animate attributeName="stroke-dashoffset" from="44.898497888361476" to="0" dur="1.3469549366508442s" begin="anim12.end" fill="freeze" id="anim_end" /></path></g></svg>