<?xml version='1.0' encoding='utf-8'?>
<svg viewBox="0.0 -6.0 50.0 50.0" version="1.1" xmlns="http://www.w3.org/2000/svg"><rect x="-1000" y="-1000" width="2000" height="2000" stroke="white" fill="white" /><g style="fill:none;stroke:#000000;stroke-width:1"><path d="M 31.1 -7.2 L 39.4 -7.2 C 41.9 -7.2 43.0 -8.2 43.0 -10.4 L 43.0 -27.1 C 43.0 -29.4 42.0 -30.4 39.5 -30.4 L 31.1 -30.4 C 28.5 -30.4 27.6 -29.4 27.6 -27.2 L 27.6 -10.4 C 27.6 -8.2 28.6 -7.2 31.1 -7.2 Z " transform="translate(0.0 38.0)" stroke-dasharray="72.36158130500846" stroke-dashoffset="72.36158130500846"><animate attributeName="stroke-dashoffset" from="72.36158130500846" to="0" dur="2.1708474391502537s" begin="0s; 15s; 30s; 45s" fill="freeze" id="anim0" /></path><path d="M 3.9 -1.4 C 8.8 -2.2 16.6 -4.5 21.1 -6.3 " transform="translate(0.0 38.0)" stroke-dasharray="17.91047698889945" stroke-dashoffset="17.91047698889945"><animate attributeName="stroke-dashoffset" from="17.91047698889945" to="0" dur="0.5373143096669835s" begin="anim0.end" fill="freeze" id="anim1" /></path><path d="M 9.1 -8.5 C 8.6 -10.2 7.7 -12.1 6.9 -13.3 " transform="translate(0.0 38.0)" stroke-dasharray="5.297277291975016" stroke-dashoffset="5.297277291975016"><animate attributeName="stroke-dashoffset" from="5.297277291975016" to="0" dur="0.15891831875925047s" begin="anim1.end" fill="freeze" id="anim2" /></path><path d="M 13.6 -4.8 C 15.1 -7.9 16.3 -10.9 17.1 -13.9 " transform="translate(0.0 38.0)" stroke-dasharray="9.764607794912685" stroke-dashoffset="9.764607794912685"><animate attributeName="stroke-dashoffset" from="9.764607794912685" to="0" dur="0.29293823384738055s" begin="anim2.end" fill="freeze" id="anim3" /></path><path d="M 22.0 2.1 C 24.9 0.8 28.1 -1.1 30.3 -2.8 " transform="translate(0.0 38.0)" stroke-dasharray="9.658189735643383" stroke-dashoffset="9.658189735643383"><animate attributeName="stroke-dashoffset" from="9.658189735643383" to="0" dur="0.28974569206930145s" begin="anim3.end" fill="freeze" id="anim4" /></path><path d="M 9.4 -19.4 L 15.6 -19.4 C 17.9 -19.4 18.8 -20.2 18.8 -22.2 L 18.8 -26.6 C 18.8 -28.4 17.9 -29.3 15.6 -29.3 L 9.4 -29.3 C 7.2 -29.3 6.2 -28.4 6.2 -26.6 L 6.2 -22.2 C 6.2 -20.2 7.2 -19.4 9.4 -19.4 Z " transform="translate(0.0 38.0)" stroke-dasharray="40.712261290756494" stroke-dashoffset="40.712261290756494"><animate attributeName="stroke-dashoffset" from="40.712261290756494" to="0" dur="1.2213678387226947s" begin="anim4.end" fill="freeze" id="anim5" /></path><path d="M 45.4 1.9 C 43.1 0.6 40.5 -1.4 39.0 -3.0 " transform="translate(0.0 38.0)" stroke-dasharray="8.08602619905419" stroke-dashoffset="8.08602619905419"><animate attributeName="stroke-dashoffset" from="8.08602619905419" to="0" dur="0.2425807859716257s" begin="anim5.end" fill="freeze" id="anim6" /></path><path d="M 20.4 -36.6 L 3.9 -36.6 " transform="translate(0.0 38.0)" stroke-dasharray="16.5" stroke-dashoffset="16.5"><animate attributeName="stroke-dashoffset" from="16.5" to="0" dur="0.495s" begin="anim6.end" fill="freeze" id="anim7" /></path><path d="M 43.1 -15.2 L 27.4 -15.2 " transform="translate(0.0 38.0)" stroke-dasharray="15.700000000000003" stroke-dashoffset="15.700000000000003"><animate attributeName="stroke-dashoffset" from="15.700000000000003" to="0" dur="0.4710000000000001s" begin="anim7.end" fill="freeze" id="anim8" /></path><path d="M 43.1 -22.9 L 27.4 -22.9 " transform="translate(0.0 38.0)" stroke-dasharray="15.700000000000003" stroke-dashoffset="15.700000000000003"><animate attributeName="stroke-dashoffset" from="15.700000000000003" to="0" dur="0.4710000000000001s" begin="anim8.end" fill="freeze" id="anim9" /></path><path d="M 33.4 -30.7 C 34.2 -32.9 35.0 -35.2 35.5 -37.8 " transform="translate(0.0 38.0)" stroke-dasharray="7.412476242419797" stroke-dashoffset="7.412476242419797"><animate attributeName="stroke-dashoffset" from="7.412476242419797" to="0" dur="0.2223742872725939s" begin="anim9.end" fill="freeze" id="anim10" /></path><path d="M 46.4 -37.5 L 24.9 -37.5" transform="translate(0.0 38.0)" stroke-dasharray="21.5" stroke-dashoffset="21.5"><animate attributeName="stroke-dashoffset" from="21.5" to="0" dur="0.645s" begin="anim10.end" fill="freeze" id="anim_end" /></path></g></svg>