<?xml version='1.0' encoding='utf-8'?>
<svg viewBox="0.0 -6.0 50.0 50.0" version="1.1" xmlns="http://www.w3.org/2000/svg"><rect x="-1000" y="-1000" width="2000" height="2000" stroke="white" fill="white" /><g style="fill:none;stroke:#000000;stroke-width:1"><path d="M 38.2 -5.5 C 39.2 -5.2 40.1 -5.0 41.2 -5.0 C 44.0 -5.0 45.6 -7.0 45.6 -11.1 C 45.6 -15.2 43.9 -18.5 39.0 -22.2 L 39.1 -23.1 C 41.0 -26.6 42.6 -30.4 43.8 -34.0 C 44.5 -36.4 43.6 -37.8 40.9 -37.8 L 35.5 -37.8 C 33.1 -37.8 32.2 -36.9 32.2 -34.7 L 32.2 2.4 " transform="translate(0.0 38.0)" stroke-dasharray="91.53170648924385" stroke-dashoffset="91.53170648924385"><animate attributeName="stroke-dashoffset" from="91.53170648924385" to="0" dur="2.7459511946773154s" begin="0s" fill="freeze" /></path><path d="M 3.5 -3.0 C 9.1 -6.8 14.4 -13.2 17.7 -19.7 " transform="translate(0.0 38.0)" stroke-dasharray="22.135304442800013" stroke-dashoffset="22.135304442800013"><animate attributeName="stroke-dashoffset" from="22.135304442800013" to="0" dur="0.6640591332840003s" begin="2.7459511946773154s" fill="freeze" /></path><path d="M 13.4 1.2 C 14.3 1.4 15.2 1.5 16.2 1.5 C 18.7 1.5 19.8 0.6 19.8 -1.8 L 19.8 -36.4 " transform="translate(0.0 38.0)" stroke-dasharray="43.09807981328039" stroke-dashoffset="43.09807981328039"><animate attributeName="stroke-dashoffset" from="43.09807981328039" to="0" dur="1.2929423943984117s" begin="3.4100103279613156s" fill="freeze" /></path><path d="M 26.6 -21.9 L 3.9 -21.9 " transform="translate(0.0 38.0)" stroke-dasharray="22.700000000000003" stroke-dashoffset="22.700000000000003"><animate attributeName="stroke-dashoffset" from="22.700000000000003" to="0" dur="0.681s" begin="4.702952722359727s" fill="freeze" /></path><path d="M 9.7 -22.5 L 9.7 -36.5 " transform="translate(0.0 38.0)" stroke-dasharray="14.0" stroke-dashoffset="14.0"><animate attributeName="stroke-dashoffset" from="14.0" to="0" dur="0.42s" begin="5.383952722359727s" fill="freeze" /></path><path d="M 25.6 -37.1 L 5.0 -37.1" transform="translate(0.0 38.0)" stroke-dasharray="20.6" stroke-dashoffset="20.6"><animate attributeName="stroke-dashoffset" from="20.6" to="0" dur="0.618s" begin="5.803952722359727s" fill="freeze" /></path></g></svg>