<?xml version='1.0' encoding='utf-8'?>
<svg viewBox="0.0 -6.0 50.0 50.0" version="1.1" xmlns="http://www.w3.org/2000/svg"><rect x="-1000" y="-1000" width="2000" height="2000" stroke="white" fill="white" /><g style="fill:none;stroke:#000000;stroke-width:1"><path d="M 38.2 1.6 C 39.1 1.8 40.0 1.9 40.8 1.9 C 42.9 1.9 44.2 0.9 45.0 -1.6 C 45.6 -3.6 46.1 -6.8 46.2 -9.4 C 46.2 -11.3 45.5 -12.3 43.0 -12.3 L 31.4 -12.3 C 29.2 -12.3 28.4 -13.2 28.4 -14.9 L 28.4 -33.0 C 28.4 -35.0 29.4 -35.9 32.0 -35.9 L 39.1 -35.9 C 41.8 -35.9 42.8 -35.0 42.8 -33.1 L 42.8 -27.1 C 42.8 -25.1 41.8 -24.3 39.1 -24.3 L 29.3 -24.3 " transform="translate(0.0 38.0)" stroke-dasharray="94.78023065874741" stroke-dashoffset="94.78023065874741"><animate attributeName="stroke-dashoffset" from="94.78023065874741" to="0" dur="2.843406919762422s" begin="0s" fill="freeze" /></path><path d="M 3.2 -3.6 C 9.2 -4.5 16.4 -6.2 22.1 -8.1 " transform="translate(0.0 38.0)" stroke-dasharray="19.449911532974554" stroke-dashoffset="19.449911532974554"><animate attributeName="stroke-dashoffset" from="19.449911532974554" to="0" dur="0.5834973459892366s" begin="2.843406919762422s" fill="freeze" /></path><path d="M 3.1 -12.2 C 5.0 -16.6 6.5 -22.6 7.2 -28.9 " transform="translate(0.0 38.0)" stroke-dasharray="17.254374600025635" stroke-dashoffset="17.254374600025635"><animate attributeName="stroke-dashoffset" from="17.254374600025635" to="0" dur="0.517631238000769s" begin="3.426904265751659s" fill="freeze" /></path><path d="M 9.6 -15.6 C 8.8 -17.2 7.6 -18.8 6.3 -20.2 " transform="translate(0.0 38.0)" stroke-dasharray="5.67967161083416" stroke-dashoffset="5.67967161083416"><animate attributeName="stroke-dashoffset" from="5.67967161083416" to="0" dur="0.1703901483250248s" begin="3.944535503752428s" fill="freeze" /></path><path d="M 24.4 0.0 C 25.1 -1.9 25.8 -4.2 26.0 -6.3 " transform="translate(0.0 38.0)" stroke-dasharray="6.517165920544319" stroke-dashoffset="6.517165920544319"><animate attributeName="stroke-dashoffset" from="6.517165920544319" to="0" dur="0.19551497761632958s" begin="4.114925652077453s" fill="freeze" /></path><path d="M 13.4 -6.2 L 13.4 -35.2 " transform="translate(0.0 38.0)" stroke-dasharray="29.000000000000004" stroke-dashoffset="29.000000000000004"><animate attributeName="stroke-dashoffset" from="29.000000000000004" to="0" dur="0.8700000000000001s" begin="4.310440629693782s" fill="freeze" /></path><path d="M 31.4 -1.9 C 31.1 -3.5 30.6 -5.5 30.2 -6.7 " transform="translate(0.0 38.0)" stroke-dasharray="4.950762797810472" stroke-dashoffset="4.950762797810472"><animate attributeName="stroke-dashoffset" from="4.950762797810472" to="0" dur="0.14852288393431415s" begin="5.180440629693782s" fill="freeze" /></path><path d="M 16.7 -14.2 C 18.2 -17.8 19.7 -23.5 20.2 -28.9 " transform="translate(0.0 38.0)" stroke-dasharray="15.160831744511572" stroke-dashoffset="15.160831744511572"><animate attributeName="stroke-dashoffset" from="15.160831744511572" to="0" dur="0.45482495233534714s" begin="5.328963513628096s" fill="freeze" /></path><path d="M 23.4 -16.6 C 22.4 -18.1 21.2 -19.6 19.8 -20.9 " transform="translate(0.0 38.0)" stroke-dasharray="5.620783364686925" stroke-dashoffset="5.620783364686925"><animate attributeName="stroke-dashoffset" from="5.620783364686925" to="0" dur="0.16862350094060777s" begin="5.783788465963443s" fill="freeze" /></path><path d="M 36.4 -3.8 C 36.0 -5.0 35.4 -6.3 34.7 -7.5 " transform="translate(0.0 38.0)" stroke-dasharray="4.078776187733098" stroke-dashoffset="4.078776187733098"><animate attributeName="stroke-dashoffset" from="4.078776187733098" to="0" dur="0.12236328563199293s" begin="5.952411966904051s" fill="freeze" /></path><path d="M 41.1 -5.5 C 40.6 -6.5 39.8 -7.8 39.0 -8.7 " transform="translate(0.0 38.0)" stroke-dasharray="3.837137485880624" stroke-dashoffset="3.837137485880624"><animate attributeName="stroke-dashoffset" from="3.837137485880624" to="0" dur="0.11511412457641872s" begin="6.0747752525360434s" fill="freeze" /></path><path d="M 22.9 -35.5 L 3.8 -35.5 " transform="translate(0.0 38.0)" stroke-dasharray="19.099999999999998" stroke-dashoffset="19.099999999999998"><animate attributeName="stroke-dashoffset" from="19.099999999999998" to="0" dur="0.573s" begin="6.189889377112462s" fill="freeze" /></path><path d="M 47.0 -18.4 L 28.8 -18.4 " transform="translate(0.0 38.0)" stroke-dasharray="18.2" stroke-dashoffset="18.2"><animate attributeName="stroke-dashoffset" from="18.2" to="0" dur="0.5459999999999999s" begin="6.762889377112462s" fill="freeze" /></path><path d="M 42.1 -30.1 L 28.8 -30.1 " transform="translate(0.0 38.0)" stroke-dasharray="13.3" stroke-dashoffset="13.3"><animate attributeName="stroke-dashoffset" from="13.3" to="0" dur="0.399s" begin="7.308889377112462s" fill="freeze" /></path><path d="M 34.0 -36.0 C 34.6 -37.5 35.0 -38.8 35.4 -40.3" transform="translate(0.0 38.0)" stroke-dasharray="4.525127929619293" stroke-dashoffset="4.525127929619293"><animate attributeName="stroke-dashoffset" from="4.525127929619293" to="0" dur="0.13575383788857878s" begin="7.707889377112462s" fill="freeze" /></path></g></svg>