<?xml version='1.0' encoding='utf-8'?>
<svg viewBox="0.0 -6.0 50.0 50.0" version="1.1" xmlns="http://www.w3.org/2000/svg"><rect x="-1000" y="-1000" width="2000" height="2000" stroke="white" fill="white" /><g style="fill:none;stroke:#000000;stroke-width:1"><path d="M 10.4 -8.2 C 11.2 -8.1 11.8 -8.0 12.6 -8.0 C 14.9 -8.0 16.4 -9.8 16.4 -13.6 C 16.4 -17.4 14.9 -20.6 11.1 -24.0 L 11.2 -24.8 C 13.1 -27.9 14.7 -31.6 15.7 -35.0 C 16.4 -37.3 15.4 -38.5 13.1 -38.5 L 9.2 -38.5 C 7.0 -38.5 6.1 -37.6 6.1 -35.3 L 6.1 2.4 " transform="translate(0.0 38.0)" stroke-dasharray="86.0763235504011" stroke-dashoffset="86.0763235504011"><animate attributeName="stroke-dashoffset" from="86.0763235504011" to="0" dur="2.5822897065120327s" begin="0s; anim_end.end" fill="freeze" id="anim0" /></path><path d="M 16.8 1.6 C 22.4 -1.7 26.2 -7.2 26.9 -14.2 " transform="translate(0.0 38.0)" stroke-dasharray="19.486374929151395" stroke-dashoffset="19.486374929151395"><animate attributeName="stroke-dashoffset" from="19.486374929151395" to="0" dur="0.5845912478745419s" begin="anim0.end" fill="freeze" id="anim1" /></path><path d="M 36.7 -5.5 C 39.0 -5.8 41.9 -6.2 44.5 -7.0 " transform="translate(0.0 38.0)" stroke-dasharray="7.95252981578459" stroke-dashoffset="7.95252981578459"><animate attributeName="stroke-dashoffset" from="7.95252981578459" to="0" dur="0.2385758944735377s" begin="anim1.end" fill="freeze" id="anim2" /></path><path d="M 46.5 -2.9 C 46.1 0.1 45.1 1.2 39.2 1.2 C 34.1 1.2 33.2 0.4 33.2 -1.9 L 33.2 -14.6 " transform="translate(0.0 38.0)" stroke-dasharray="30.036310799477114" stroke-dashoffset="30.036310799477114"><animate attributeName="stroke-dashoffset" from="30.036310799477114" to="0" dur="0.9010893239843134s" begin="anim2.end" fill="freeze" id="anim3" /></path><path d="M 37.5 -5.7 C 38.5 -8.4 39.5 -11.4 40.0 -14.0 " transform="translate(0.0 38.0)" stroke-dasharray="8.67754931610839" stroke-dashoffset="8.67754931610839"><animate attributeName="stroke-dashoffset" from="8.67754931610839" to="0" dur="0.2603264794832517s" begin="anim3.end" fill="freeze" id="anim4" /></path><path d="M 45.1 -6.0 C 44.6 -7.3 44.0 -8.8 43.2 -10.1 " transform="translate(0.0 38.0)" stroke-dasharray="4.525390623768276" stroke-dashoffset="4.525390623768276"><animate attributeName="stroke-dashoffset" from="4.525390623768276" to="0" dur="0.13576171871304826s" begin="anim4.end" fill="freeze" id="anim5" /></path><path d="M 32.2 -19.8 L 32.2 -33.8 " transform="translate(0.0 38.0)" stroke-dasharray="13.999999999999996" stroke-dashoffset="13.999999999999996"><animate attributeName="stroke-dashoffset" from="13.999999999999996" to="0" dur="0.4199999999999999s" begin="anim5.end" fill="freeze" id="anim6" /></path><path d="M 43.0 -22.2 L 43.0 -31.3 C 43.0 -33.5 41.9 -34.5 39.1 -34.5 L 26.0 -34.5 C 23.2 -34.5 22.1 -33.5 22.1 -31.3 L 22.1 -22.2 C 22.1 -20.0 23.2 -19.0 26.0 -19.0 L 39.1 -19.0 C 41.9 -19.0 43.0 -20.0 43.0 -22.2 Z " transform="translate(0.0 38.0)" stroke-dasharray="67.73998248925156" stroke-dashoffset="67.73998248925156"><animate attributeName="stroke-dashoffset" from="67.73998248925156" to="0" dur="2.032199474677547s" begin="anim6.end" fill="freeze" id="anim7" /></path><path d="M 42.8 -26.9 L 22.9 -26.9 " transform="translate(0.0 38.0)" stroke-dasharray="19.9" stroke-dashoffset="19.9"><animate attributeName="stroke-dashoffset" from="19.9" to="0" dur="0.597s" begin="anim7.end" fill="freeze" id="anim8" /></path><path d="M 30.1 -35.3 C 30.9 -36.8 31.6 -38.1 32.0 -39.8" transform="translate(0.0 38.0)" stroke-dasharray="4.90047470163576" stroke-dashoffset="4.90047470163576"><animate attributeName="stroke-dashoffset" from="4.90047470163576" to="0" dur="0.1470142410490728s" begin="anim8.end" fill="freeze" id="anim_end" /></path></g></svg>