<?xml version='1.0' encoding='utf-8'?>
<svg viewBox="0.0 -6.0 50.0 50.0" version="1.1" xmlns="http://www.w3.org/2000/svg"><rect x="-1000" y="-1000" width="2000" height="2000" stroke="white" fill="white" /><g style="fill:none;stroke:#000000;stroke-width:1"><path d="M 46.5 -9.7 C 42.0 -14.6 37.5 -22.1 35.4 -28.9 " transform="translate(0.0 38.0)" stroke-dasharray="22.337885671001203" stroke-dashoffset="22.337885671001203"><animate attributeName="stroke-dashoffset" from="22.337885671001203" to="0" dur="0.670136570130036s" begin="0s" fill="freeze" /></path><path d="M 4.3 0.3 C 9.1 -0.3 15.0 -1.6 19.1 -3.0 " transform="translate(0.0 38.0)" stroke-dasharray="15.185914659129297" stroke-dashoffset="15.185914659129297"><animate attributeName="stroke-dashoffset" from="15.185914659129297" to="0" dur="0.4555774397738789s" begin="0.670136570130036s" fill="freeze" /></path><path d="M 7.2 -6.8 C 6.8 -8.4 6.0 -10.3 5.2 -11.7 " transform="translate(0.0 38.0)" stroke-dasharray="5.307022739322175" stroke-dashoffset="5.307022739322175"><animate attributeName="stroke-dashoffset" from="5.307022739322175" to="0" dur="0.15921068217966525s" begin="1.125714009903915s" fill="freeze" /></path><path d="M 12.1 -1.8 L 12.1 -25.9 " transform="translate(0.0 38.0)" stroke-dasharray="24.099999999999998" stroke-dashoffset="24.099999999999998"><animate attributeName="stroke-dashoffset" from="24.099999999999998" to="0" dur="0.7229999999999999s" begin="1.2849246920835802s" fill="freeze" /></path><path d="M 16.9 -7.9 C 17.5 -9.2 18.1 -10.8 18.6 -12.4 " transform="translate(0.0 38.0)" stroke-dasharray="4.813566643854519" stroke-dashoffset="4.813566643854519"><animate attributeName="stroke-dashoffset" from="4.813566643854519" to="0" dur="0.14440699931563555s" begin="2.00792469208358s" fill="freeze" /></path><path d="M 19.2 -17.9 L 3.9 -17.9 " transform="translate(0.0 38.0)" stroke-dasharray="15.299999999999999" stroke-dashoffset="15.299999999999999"><animate attributeName="stroke-dashoffset" from="15.299999999999999" to="0" dur="0.45899999999999996s" begin="2.1523316913992154s" fill="freeze" /></path><path d="M 17.4 -25.8 L 7.0 -25.8 " transform="translate(0.0 38.0)" stroke-dasharray="10.399999999999999" stroke-dashoffset="10.399999999999999"><animate attributeName="stroke-dashoffset" from="10.399999999999999" to="0" dur="0.31199999999999994s" begin="2.6113316913992155s" fill="freeze" /></path><path d="M 3.1 -28.1 C 6.7 -31.1 10.2 -35.1 12.7 -39.2 " transform="translate(0.0 38.0)" stroke-dasharray="14.737865908128219" stroke-dashoffset="14.737865908128219"><animate attributeName="stroke-dashoffset" from="14.737865908128219" to="0" dur="0.44213597724384657s" begin="2.9233316913992153s" fill="freeze" /></path><path d="M 40.6 -7.6 L 27.6 -7.6 " transform="translate(0.0 38.0)" stroke-dasharray="13.0" stroke-dashoffset="13.0"><animate attributeName="stroke-dashoffset" from="13.0" to="0" dur="0.39s" begin="3.365467668643062s" fill="freeze" /></path><path d="M 22.2 -9.1 C 26.5 -13.8 30.7 -21.4 32.7 -27.8 " transform="translate(0.0 38.0)" stroke-dasharray="21.592788361781196" stroke-dashoffset="21.592788361781196"><animate attributeName="stroke-dashoffset" from="21.592788361781196" to="0" dur="0.6477836508534358s" begin="3.755467668643062s" fill="freeze" /></path><path d="M 19.1 -31.4 C 17.5 -33.4 15.1 -35.5 12.8 -37.1 " transform="translate(0.0 38.0)" stroke-dasharray="8.522581472847813" stroke-dashoffset="8.522581472847813"><animate attributeName="stroke-dashoffset" from="8.522581472847813" to="0" dur="0.25567744418543437s" begin="4.403251319496498s" fill="freeze" /></path><path d="M 34.2 2.5 L 34.2 -40.1 " transform="translate(0.0 38.0)" stroke-dasharray="42.6" stroke-dashoffset="42.6"><animate attributeName="stroke-dashoffset" from="42.6" to="0" dur="1.278s" begin="4.658928763681932s" fill="freeze" /></path><path d="M 46.0 -28.9 L 23.9 -28.9" transform="translate(0.0 38.0)" stroke-dasharray="22.1" stroke-dashoffset="22.1"><animate attributeName="stroke-dashoffset" from="22.1" to="0" dur="0.663s" begin="5.936928763681932s" fill="freeze" /></path></g></svg>