<?xml version='1.0' encoding='utf-8'?>
<svg viewBox="0.0 -6.0 50.0 50.0" version="1.1" xmlns="http://www.w3.org/2000/svg"><rect x="-1000" y="-1000" width="2000" height="2000" stroke="white" fill="white" /><g style="fill:none;stroke:#000000;stroke-width:1"><path d="M 38.5 1.6 C 39.4 1.9 40.2 1.9 41.0 1.9 C 43.1 1.9 44.4 1.0 45.1 -1.4 C 45.8 -3.5 46.2 -6.8 46.4 -9.4 C 46.4 -11.3 45.6 -12.3 43.2 -12.3 L 32.1 -12.3 C 30.0 -12.3 29.2 -13.2 29.2 -14.9 L 29.2 -32.9 C 29.2 -34.9 30.1 -35.8 32.8 -35.8 L 39.4 -35.8 C 42.1 -35.8 43.1 -34.9 43.1 -33.0 L 43.1 -27.0 C 43.1 -25.1 42.1 -24.2 39.4 -24.2 L 30.1 -24.2 " transform="translate(0.0 38.0)" stroke-dasharray="92.98937419196541" stroke-dashoffset="92.98937419196541"><animate attributeName="stroke-dashoffset" from="92.98937419196541" to="0" dur="2.789681225758962s" begin="0s" fill="freeze" /></path><path d="M 4.4 0.3 C 5.3 -1.5 6.0 -3.6 6.5 -6.0 " transform="translate(0.0 38.0)" stroke-dasharray="6.65914263614295" stroke-dashoffset="6.65914263614295"><animate attributeName="stroke-dashoffset" from="6.65914263614295" to="0" dur="0.1997742790842885s" begin="2.789681225758962s" fill="freeze" /></path><path d="M 12.3 -1.5 C 12.0 -3.2 11.6 -4.9 11.1 -6.2 " transform="translate(0.0 38.0)" stroke-dasharray="4.857662557012829" stroke-dashoffset="4.857662557012829"><animate attributeName="stroke-dashoffset" from="4.857662557012829" to="0" dur="0.14572987671038487s" begin="2.9894555048432507s" fill="freeze" /></path><path d="M 17.6 -2.8 C 17.1 -4.0 16.6 -5.5 15.9 -6.8 " transform="translate(0.0 38.0)" stroke-dasharray="4.348872084735163" stroke-dashoffset="4.348872084735163"><animate attributeName="stroke-dashoffset" from="4.348872084735163" to="0" dur="0.1304661625420549s" begin="3.1351853815536357s" fill="freeze" /></path><path d="M 22.4 -4.5 C 21.9 -5.5 21.0 -7.0 20.4 -7.8 " transform="translate(0.0 38.0)" stroke-dasharray="3.862538765082556" stroke-dashoffset="3.862538765082556"><animate attributeName="stroke-dashoffset" from="3.862538765082556" to="0" dur="0.11587616295247667s" begin="3.2656515440956904s" fill="freeze" /></path><path d="M 25.9 0.0 C 26.6 -1.9 27.1 -4.2 27.3 -6.5 " transform="translate(0.0 38.0)" stroke-dasharray="6.6678058402831075" stroke-dashoffset="6.6678058402831075"><animate attributeName="stroke-dashoffset" from="6.6678058402831075" to="0" dur="0.20003417520849323s" begin="3.381527707048167s" fill="freeze" /></path><path d="M 22.4 -19.3 L 7.8 -19.3 " transform="translate(0.0 38.0)" stroke-dasharray="14.599999999999998" stroke-dashoffset="14.599999999999998"><animate attributeName="stroke-dashoffset" from="14.599999999999998" to="0" dur="0.43799999999999994s" begin="3.58156188225666s" fill="freeze" /></path><path d="M 32.4 -2.1 C 32.1 -3.6 31.6 -5.5 31.2 -6.7 " transform="translate(0.0 38.0)" stroke-dasharray="4.756424072294871" stroke-dashoffset="4.756424072294871"><animate attributeName="stroke-dashoffset" from="4.756424072294871" to="0" dur="0.14269272216884613s" begin="4.01956188225666s" fill="freeze" /></path><path d="M 15.6 -11.9 L 15.6 -32.4 " transform="translate(0.0 38.0)" stroke-dasharray="20.5" stroke-dashoffset="20.5"><animate attributeName="stroke-dashoffset" from="20.5" to="0" dur="0.615s" begin="4.162254604425506s" fill="freeze" /></path><path d="M 24.2 -11.8 L 10.8 -11.8 C 8.2 -11.8 7.2 -12.7 7.2 -14.8 L 7.2 -29.8 C 7.2 -32.0 8.1 -32.9 10.7 -32.9 L 23.9 -32.9 " transform="translate(0.0 38.0)" stroke-dasharray="52.492593552220434" stroke-dashoffset="52.492593552220434"><animate attributeName="stroke-dashoffset" from="52.492593552220434" to="0" dur="1.574777806566613s" begin="4.777254604425506s" fill="freeze" /></path><path d="M 3.0 -25.6 C 5.7 -29.6 8.4 -35.5 9.6 -39.9 " transform="translate(0.0 38.0)" stroke-dasharray="15.807999062657252" stroke-dashoffset="15.807999062657252"><animate attributeName="stroke-dashoffset" from="15.807999062657252" to="0" dur="0.47423997187971756s" begin="6.352032410992119s" fill="freeze" /></path><path d="M 37.2 -3.9 C 36.8 -5.1 36.1 -6.5 35.4 -7.6 " transform="translate(0.0 38.0)" stroke-dasharray="4.123838113578971" stroke-dashoffset="4.123838113578971"><animate attributeName="stroke-dashoffset" from="4.123838113578971" to="0" dur="0.12371514340736914s" begin="6.826272382871837s" fill="freeze" /></path><path d="M 22.4 -26.1 L 7.7 -26.1 " transform="translate(0.0 38.0)" stroke-dasharray="14.7" stroke-dashoffset="14.7"><animate attributeName="stroke-dashoffset" from="14.7" to="0" dur="0.44099999999999995s" begin="6.949987526279206s" fill="freeze" /></path><path d="M 41.5 -5.6 C 41.0 -6.6 40.2 -7.9 39.5 -8.8 " transform="translate(0.0 38.0)" stroke-dasharray="3.7787441726166042" stroke-dashoffset="3.7787441726166042"><animate attributeName="stroke-dashoffset" from="3.7787441726166042" to="0" dur="0.11336232517849812s" begin="7.390987526279206s" fill="freeze" /></path><path d="M 15.4 -33.6 C 16.2 -35.6 16.8 -37.7 17.2 -39.6 " transform="translate(0.0 38.0)" stroke-dasharray="6.27178070740462" stroke-dashoffset="6.27178070740462"><animate attributeName="stroke-dashoffset" from="6.27178070740462" to="0" dur="0.1881534212221386s" begin="7.504349851457704s" fill="freeze" /></path><path d="M 47.1 -18.4 L 29.6 -18.4 " transform="translate(0.0 38.0)" stroke-dasharray="17.5" stroke-dashoffset="17.5"><animate attributeName="stroke-dashoffset" from="17.5" to="0" dur="0.525s" begin="7.692503272679843s" fill="freeze" /></path><path d="M 42.5 -30.1 L 29.6 -30.1 " transform="translate(0.0 38.0)" stroke-dasharray="12.899999999999999" stroke-dashoffset="12.899999999999999"><animate attributeName="stroke-dashoffset" from="12.899999999999999" to="0" dur="0.38699999999999996s" begin="8.217503272679842s" fill="freeze" /></path><path d="M 34.8 -36.0 C 35.4 -37.4 35.7 -38.8 36.0 -40.3" transform="translate(0.0 38.0)" stroke-dasharray="4.47299186464879" stroke-dashoffset="4.47299186464879"><animate attributeName="stroke-dashoffset" from="4.47299186464879" to="0" dur="0.1341897559394637s" begin="8.604503272679842s" fill="freeze" /></path></g></svg>