<?xml version='1.0' encoding='utf-8'?>
<svg viewBox="0.0 -6.0 50.0 50.0" version="1.1" xmlns="http://www.w3.org/2000/svg"><rect x="-1000" y="-1000" width="2000" height="2000" stroke="white" fill="white" /><g style="fill:none;stroke:#000000;stroke-width:1"><path d="M 8.7 0.8 L 18.6 0.8 C 20.9 0.8 21.9 -0.2 21.9 -2.8 L 21.9 -25.8 C 21.9 -28.4 21.1 -29.3 18.9 -29.3 L 8.4 -29.3 C 6.2 -29.3 5.3 -28.4 5.3 -25.8 L 5.3 -2.8 C 5.3 -0.2 6.3 0.8 8.7 0.8 Z " transform="translate(0.0 38.0)" stroke-dasharray="88.68842753420705" stroke-dashoffset="88.68842753420705"><animate attributeName="stroke-dashoffset" from="88.68842753420705" to="0" dur="2.6606528260262112s" begin="0s" fill="freeze" /></path><path d="M 21.9 -8.1 L 6.0 -8.1 " transform="translate(0.0 38.0)" stroke-dasharray="15.899999999999999" stroke-dashoffset="15.899999999999999"><animate attributeName="stroke-dashoffset" from="15.899999999999999" to="0" dur="0.4769999999999999s" begin="2.6606528260262112s" fill="freeze" /></path><path d="M 8.8 -15.5 C 10.3 -18.1 11.1 -22.1 11.1 -29.4 L 11.1 -37.6 " transform="translate(0.0 38.0)" stroke-dasharray="22.433515337679125" stroke-dashoffset="22.433515337679125"><animate attributeName="stroke-dashoffset" from="22.433515337679125" to="0" dur="0.6730054601303738s" begin="3.137652826026211s" fill="freeze" /></path><path d="M 21.4 -17.9 C 20.4 -17.7 19.4 -17.6 18.5 -17.6 C 16.8 -17.6 16.1 -18.2 16.1 -19.8 L 16.1 -37.6 " transform="translate(0.0 38.0)" stroke-dasharray="24.512088897051584" stroke-dashoffset="24.512088897051584"><animate attributeName="stroke-dashoffset" from="24.512088897051584" to="0" dur="0.7353626669115475s" begin="3.8106582861565848s" fill="freeze" /></path><path d="M 34.8 2.2 L 34.8 -30.9 " transform="translate(0.0 38.0)" stroke-dasharray="33.1" stroke-dashoffset="33.1"><animate attributeName="stroke-dashoffset" from="33.1" to="0" dur="0.993s" begin="4.546020953068132s" fill="freeze" /></path><path d="M 23.4 -37.6 L 3.5 -37.6 " transform="translate(0.0 38.0)" stroke-dasharray="19.9" stroke-dashoffset="19.9"><animate attributeName="stroke-dashoffset" from="19.9" to="0" dur="0.597s" begin="5.539020953068133s" fill="freeze" /></path><path d="M 44.5 -11.0 L 35.2 -11.0 " transform="translate(0.0 38.0)" stroke-dasharray="9.299999999999997" stroke-dashoffset="9.299999999999997"><animate attributeName="stroke-dashoffset" from="9.299999999999997" to="0" dur="0.2789999999999999s" begin="6.136020953068133s" fill="freeze" /></path><path d="M 26.2 -25.4 C 28.8 -29.4 31.0 -34.3 32.5 -39.4 " transform="translate(0.0 38.0)" stroke-dasharray="15.404335633668437" stroke-dashoffset="15.404335633668437"><animate attributeName="stroke-dashoffset" from="15.404335633668437" to="0" dur="0.4621300690100531s" begin="6.415020953068133s" fill="freeze" /></path><path d="M 44.1 -21.2 L 34.9 -21.2 " transform="translate(0.0 38.0)" stroke-dasharray="9.200000000000003" stroke-dashoffset="9.200000000000003"><animate attributeName="stroke-dashoffset" from="9.200000000000003" to="0" dur="0.2760000000000001s" begin="6.877151022078186s" fill="freeze" /></path><path d="M 46.5 -31.2 L 30.2 -31.2" transform="translate(0.0 38.0)" stroke-dasharray="16.3" stroke-dashoffset="16.3"><animate attributeName="stroke-dashoffset" from="16.3" to="0" dur="0.489s" begin="7.153151022078186s" fill="freeze" /></path></g></svg>