<?xml version='1.0' encoding='utf-8'?>
<svg viewBox="0.0 -6.0 50.0 50.0" version="1.1" xmlns="http://www.w3.org/2000/svg"><rect x="-1000" y="-1000" width="2000" height="2000" stroke="white" fill="white" /><g style="fill:none;stroke:#000000;stroke-width:1"><path d="M 2.8 -3.3 C 5.2 -8.8 6.5 -16.1 6.5 -24.6 L 6.5 -29.6 C 6.5 -31.4 7.2 -32.2 9.8 -32.2 L 20.1 -32.2 C 22.5 -32.2 23.3 -31.6 23.3 -29.9 L 23.3 -27.9 C 23.3 -26.2 22.5 -25.6 20.1 -25.6 L 6.8 -25.6 " transform="translate(0.0 38.0)" stroke-dasharray="66.4524990294536" stroke-dashoffset="66.4524990294536"><animate attributeName="stroke-dashoffset" from="66.4524990294536" to="0" dur="1.9935749708836081s" begin="0s" fill="freeze" /></path><path d="M 24.4 -0.3 L 10.8 -0.3 " transform="translate(0.0 38.0)" stroke-dasharray="13.599999999999998" stroke-dashoffset="13.599999999999998"><animate attributeName="stroke-dashoffset" from="13.599999999999998" to="0" dur="0.4079999999999999s" begin="1.9935749708836081s" fill="freeze" /></path><path d="M 24.1 -6.0 L 11.3 -6.0 " transform="translate(0.0 38.0)" stroke-dasharray="12.8" stroke-dashoffset="12.8"><animate attributeName="stroke-dashoffset" from="12.8" to="0" dur="0.384s" begin="2.4015749708836083s" fill="freeze" /></path><path d="M 11.1 2.4 L 11.1 -14.3 C 11.1 -16.1 11.7 -17.0 14.2 -17.0 L 25.3 -17.0 " transform="translate(0.0 38.0)" stroke-dasharray="32.61398322453779" stroke-dashoffset="32.61398322453779"><animate attributeName="stroke-dashoffset" from="32.61398322453779" to="0" dur="0.9784194967361337s" begin="2.785574970883608s" fill="freeze" /></path><path d="M 18.2 -0.2 L 18.2 -16.4 " transform="translate(0.0 38.0)" stroke-dasharray="16.2" stroke-dashoffset="16.2"><animate attributeName="stroke-dashoffset" from="16.2" to="0" dur="0.486s" begin="3.763994467619742s" fill="freeze" /></path><path d="M 8.1 -11.4 C 10.0 -13.9 12.2 -18.3 13.2 -21.8 " transform="translate(0.0 38.0)" stroke-dasharray="11.63656633190332" stroke-dashoffset="11.63656633190332"><animate attributeName="stroke-dashoffset" from="11.63656633190332" to="0" dur="0.3490969899570996s" begin="4.249994467619742s" fill="freeze" /></path><path d="M 24.1 -11.4 L 11.3 -11.4 " transform="translate(0.0 38.0)" stroke-dasharray="12.8" stroke-dashoffset="12.8"><animate attributeName="stroke-dashoffset" from="12.8" to="0" dur="0.384s" begin="4.599091457576842s" fill="freeze" /></path><path d="M 27.4 2.1 C 29.4 0.9 31.6 -1.0 33.2 -2.8 " transform="translate(0.0 38.0)" stroke-dasharray="7.618875713087027" stroke-dashoffset="7.618875713087027"><animate attributeName="stroke-dashoffset" from="7.618875713087027" to="0" dur="0.2285662713926108s" begin="4.983091457576842s" fill="freeze" /></path><path d="M 18.0 -17.4 C 18.8 -19.0 19.4 -20.4 19.8 -21.8 " transform="translate(0.0 38.0)" stroke-dasharray="4.7608487321754245" stroke-dashoffset="4.7608487321754245"><animate attributeName="stroke-dashoffset" from="4.7608487321754245" to="0" dur="0.14282546196526272s" begin="5.211657728969453s" fill="freeze" /></path><path d="M 45.7 1.6 C 44.0 0.4 42.0 -1.4 40.7 -2.9 " transform="translate(0.0 38.0)" stroke-dasharray="6.740786083224958" stroke-dashoffset="6.740786083224958"><animate attributeName="stroke-dashoffset" from="6.740786083224958" to="0" dur="0.20222358249674874s" begin="5.354483190934715s" fill="freeze" /></path><path d="M 24.7 -37.8 L 4.2 -37.8 " transform="translate(0.0 38.0)" stroke-dasharray="20.5" stroke-dashoffset="20.5"><animate attributeName="stroke-dashoffset" from="20.5" to="0" dur="0.615s" begin="5.556706773431464s" fill="freeze" /></path><path d="M 43.8 -15.3 L 30.4 -15.3 " transform="translate(0.0 38.0)" stroke-dasharray="13.399999999999999" stroke-dashoffset="13.399999999999999"><animate attributeName="stroke-dashoffset" from="13.399999999999999" to="0" dur="0.40199999999999997s" begin="6.171706773431464s" fill="freeze" /></path><path d="M 33.9 -7.2 L 40.4 -7.2 C 42.7 -7.2 43.8 -8.2 43.8 -10.4 L 43.8 -27.5 C 43.8 -29.8 42.9 -30.6 40.5 -30.6 L 33.8 -30.6 C 31.4 -30.6 30.5 -29.9 30.5 -27.6 L 30.5 -10.4 C 30.5 -8.2 31.5 -7.2 33.9 -7.2 Z " transform="translate(0.0 38.0)" stroke-dasharray="68.8290499239884" stroke-dashoffset="68.8290499239884"><animate attributeName="stroke-dashoffset" from="68.8290499239884" to="0" dur="2.0648714977196523s" begin="6.573706773431464s" fill="freeze" /></path><path d="M 43.8 -23.0 L 30.4 -23.0 " transform="translate(0.0 38.0)" stroke-dasharray="13.399999999999999" stroke-dashoffset="13.399999999999999"><animate attributeName="stroke-dashoffset" from="13.399999999999999" to="0" dur="0.40199999999999997s" begin="8.638578271151117s" fill="freeze" /></path><path d="M 35.9 -31.0 C 36.6 -33.1 37.5 -35.5 38.0 -38.0 " transform="translate(0.0 38.0)" stroke-dasharray="7.3138650661218065" stroke-dashoffset="7.3138650661218065"><animate attributeName="stroke-dashoffset" from="7.3138650661218065" to="0" dur="0.21941595198365418s" begin="9.040578271151116s" fill="freeze" /></path><path d="M 46.8 -37.8 L 28.9 -37.8" transform="translate(0.0 38.0)" stroke-dasharray="17.9" stroke-dashoffset="17.9"><animate attributeName="stroke-dashoffset" from="17.9" to="0" dur="0.5369999999999999s" begin="9.25999422313477s" fill="freeze" /></path></g></svg>