<?xml version='1.0' encoding='utf-8'?>
<svg viewBox="0.0 -6.0 50.0 50.0" version="1.1" xmlns="http://www.w3.org/2000/svg"><rect x="-1000" y="-1000" width="2000" height="2000" stroke="white" fill="white" /><g style="fill:none;stroke:#000000;stroke-width:1"><path d="M 39.5 1.3 C 40.5 1.4 41.1 1.5 41.9 1.5 C 44.0 1.5 45.0 0.7 45.0 -1.6 L 45.0 -23.8 C 45.0 -25.9 43.9 -26.8 41.4 -26.8 L 29.4 -26.8 C 26.9 -26.8 25.8 -25.9 25.8 -23.8 L 25.8 2.2 " transform="translate(0.0 38.0)" stroke-dasharray="78.53420287407484" stroke-dashoffset="78.53420287407484"><animate attributeName="stroke-dashoffset" from="78.53420287407484" to="0" dur="2.356026086222245s" begin="0s; anim_end.end" fill="freeze" id="anim0" /></path><path d="M 20.9 -7.0 L 3.0 -7.0 " transform="translate(0.0 38.0)" stroke-dasharray="17.9" stroke-dashoffset="17.9"><animate attributeName="stroke-dashoffset" from="17.9" to="0" dur="0.5369999999999999s" begin="anim0.end" fill="freeze" id="anim1" /></path><path d="M 12.1 2.8 L 12.1 -29.1 " transform="translate(0.0 38.0)" stroke-dasharray="31.900000000000002" stroke-dashoffset="31.900000000000002"><animate attributeName="stroke-dashoffset" from="31.900000000000002" to="0" dur="0.9570000000000001s" begin="anim1.end" fill="freeze" id="anim2" /></path><path d="M 8.0 -14.2 L 16.4 -14.2 C 18.6 -14.2 19.4 -15.0 19.4 -16.8 L 19.4 -19.9 C 19.4 -21.6 18.6 -22.4 16.4 -22.4 L 8.0 -22.4 C 5.8 -22.4 5.1 -21.6 5.1 -19.9 L 5.1 -16.8 C 5.1 -15.0 5.8 -14.2 8.0 -14.2 Z " transform="translate(0.0 38.0)" stroke-dasharray="41.140145087961145" stroke-dashoffset="41.140145087961145"><animate attributeName="stroke-dashoffset" from="41.140145087961145" to="0" dur="1.2342043526388342s" begin="anim2.end" fill="freeze" id="anim3" /></path><path d="M 7.8 -40.2 L 7.8 -31.4 C 7.8 -29.4 8.6 -28.9 10.3 -28.9 L 13.9 -28.9 C 15.7 -28.9 16.4 -29.4 16.4 -31.4 L 16.4 -40.2 " transform="translate(0.0 38.0)" stroke-dasharray="29.52425120306772" stroke-dashoffset="29.52425120306772"><animate attributeName="stroke-dashoffset" from="29.52425120306772" to="0" dur="0.8857275360920316s" begin="anim3.end" fill="freeze" id="anim4" /></path><path d="M 20.6 -35.1 L 3.3 -35.1 " transform="translate(0.0 38.0)" stroke-dasharray="17.3" stroke-dashoffset="17.3"><animate attributeName="stroke-dashoffset" from="17.3" to="0" dur="0.519s" begin="anim4.end" fill="freeze" id="anim5" /></path><path d="M 40.5 -12.7 C 39.2 -14.9 37.3 -17.7 35.4 -19.6 " transform="translate(0.0 38.0)" stroke-dasharray="8.600428255144422" stroke-dashoffset="8.600428255144422"><animate attributeName="stroke-dashoffset" from="8.600428255144422" to="0" dur="0.25801284765433263s" begin="anim5.end" fill="freeze" id="anim6" /></path><path d="M 29.9 -10.9 C 33.1 -14.5 35.4 -19.5 35.4 -27.4 L 35.4 -37.1 " transform="translate(0.0 38.0)" stroke-dasharray="27.50555288637105" stroke-dashoffset="27.50555288637105"><animate attributeName="stroke-dashoffset" from="27.50555288637105" to="0" dur="0.8251665865911314s" begin="anim6.end" fill="freeze" id="anim7" /></path><path d="M 46.4 -37.0 L 24.2 -37.0" transform="translate(0.0 38.0)" stroke-dasharray="22.2" stroke-dashoffset="22.2"><animate attributeName="stroke-dashoffset" from="22.2" to="0" dur="0.6659999999999999s" begin="anim7.end" fill="freeze" id="anim_end" /></path></g></svg>