<?xml version='1.0' encoding='utf-8'?>
<svg viewBox="0.0 -6.0 50.0 50.0" version="1.1" xmlns="http://www.w3.org/2000/svg"><rect x="-1000" y="-1000" width="2000" height="2000" stroke="white" fill="white" /><g style="fill:none;stroke:#000000;stroke-width:1"><path d="M 31.8 -24.2 C 31.3 -27.9 28.8 -29.4 26.8 -29.4 C 20.9 -29.4 17.1 -22.4 17.1 -16.1 C 17.1 -12.2 18.6 -9.9 22.2 -9.9 C 25.3 -9.9 28.9 -13.8 30.2 -16.8 " transform="translate(0.0 38.0)" stroke-dasharray="46.2556991407569" stroke-dashoffset="46.2556991407569"><animate attributeName="stroke-dashoffset" from="46.2556991407569" to="0" dur="1.3876709742227071s" begin="0s; anim_end.end" fill="freeze" id="anim0" /></path><path d="M 33.8 -29.2 C 32.5 -24.2 30.1 -16.1 29.7 -14.6 C 29.3 -13.2 28.7 -9.5 32.5 -9.5 C 37.8 -9.5 42.5 -16.0 42.5 -22.4 C 42.5 -31.4 36.2 -37.0 26.6 -37.0 C 15.6 -37.0 7.7 -29.4 7.7 -18.9 C 7.7 -8.2 14.3 -1.6 25.1 -1.6 C 29.9 -1.6 34.0 -2.7 37.5 -4.8" transform="translate(0.0 38.0)" stroke-dasharray="134.49100135976963" stroke-dashoffset="134.49100135976963"><animate attributeName="stroke-dashoffset" from="134.49100135976963" to="0" dur="4.034730040793089s" begin="anim0.end" fill="freeze" id="anim_end" /></path></g></svg>