<?xml version='1.0' encoding='utf-8'?>
<svg viewBox="0.0 -6.0 50.0 50.0" version="1.1" xmlns="http://www.w3.org/2000/svg"><rect x="-1000" y="-1000" width="2000" height="2000" stroke="white" fill="white" /><g style="fill:none;stroke:#000000;stroke-width:1"><path d="M 28.4 1.6 L 38.9 1.6 C 41.6 1.6 42.6 0.7 42.6 -1.4 L 42.6 -7.3 C 42.6 -9.3 41.6 -10.3 38.9 -10.3 L 28.4 -10.3 C 25.6 -10.3 24.6 -9.3 24.6 -7.3 L 24.6 -1.4 C 24.6 0.7 25.6 1.6 28.4 1.6 Z " transform="translate(0.0 38.0)" stroke-dasharray="55.03852333118236" stroke-dashoffset="55.03852333118236"><animate attributeName="stroke-dashoffset" from="55.03852333118236" to="0" dur="1.6511556999354708s" begin="0s; anim_end.end" fill="freeze" id="anim0" /></path><path d="M 2.9 -8.2 C 6.0 -13.0 8.4 -19.1 9.8 -24.9 " transform="translate(0.0 38.0)" stroke-dasharray="18.14984779363123" stroke-dashoffset="18.14984779363123"><animate attributeName="stroke-dashoffset" from="18.14984779363123" to="0" dur="0.544495433808937s" begin="anim0.end" fill="freeze" id="anim1" /></path><path d="M 16.9 -16.2 C 15.7 -17.7 13.8 -19.4 11.9 -21.0 " transform="translate(0.0 38.0)" stroke-dasharray="6.941061005708041" stroke-dashoffset="6.941061005708041"><animate attributeName="stroke-dashoffset" from="6.941061005708041" to="0" dur="0.20823183017124122s" begin="anim1.end" fill="freeze" id="anim2" /></path><path d="M 3.5 -27.6 L 16.9 -27.6 " transform="translate(0.0 38.0)" stroke-dasharray="13.399999999999999" stroke-dashoffset="13.399999999999999"><animate attributeName="stroke-dashoffset" from="13.399999999999999" to="0" dur="0.40199999999999997s" begin="anim2.end" fill="freeze" id="anim3" /></path><path d="M 25.2 -4.5 L 42.4 -4.5 " transform="translate(0.0 38.0)" stroke-dasharray="17.2" stroke-dashoffset="17.2"><animate attributeName="stroke-dashoffset" from="17.2" to="0" dur="0.516s" begin="anim3.end" fill="freeze" id="anim4" /></path><path d="M 4.2 -35.9 C 7.9 -36.5 12.8 -38.0 16.4 -39.5 " transform="translate(0.0 38.0)" stroke-dasharray="12.744589383885902" stroke-dashoffset="12.744589383885902"><animate attributeName="stroke-dashoffset" from="12.744589383885902" to="0" dur="0.38233768151657704s" begin="anim4.end" fill="freeze" id="anim5" /></path><path d="M 21.5 -16.1 L 46.3 -16.1 " transform="translate(0.0 38.0)" stroke-dasharray="24.799999999999997" stroke-dashoffset="24.799999999999997"><animate attributeName="stroke-dashoffset" from="24.799999999999997" to="0" dur="0.7439999999999999s" begin="anim5.end" fill="freeze" id="anim6" /></path><path d="M 31.8 -16.3 L 31.8 -24.9 " transform="translate(0.0 38.0)" stroke-dasharray="8.599999999999998" stroke-dashoffset="8.599999999999998"><animate attributeName="stroke-dashoffset" from="8.599999999999998" to="0" dur="0.25799999999999995s" begin="anim6.end" fill="freeze" id="anim7" /></path><path d="M 20.4 -23.6 C 26.6 -27.1 30.5 -32.6 31.9 -39.8 " transform="translate(0.0 38.0)" stroke-dasharray="20.541148931284663" stroke-dashoffset="20.541148931284663"><animate attributeName="stroke-dashoffset" from="20.541148931284663" to="0" dur="0.6162344679385399s" begin="anim7.end" fill="freeze" id="anim8" /></path><path d="M 32.7 -21.6 L 42.8 -21.6 " transform="translate(0.0 38.0)" stroke-dasharray="10.099999999999994" stroke-dashoffset="10.099999999999994"><animate attributeName="stroke-dashoffset" from="10.099999999999994" to="0" dur="0.3029999999999998s" begin="anim8.end" fill="freeze" id="anim9" /></path><path d="M 20.5 -34.6 L 46.3 -34.6 " transform="translate(0.0 38.0)" stroke-dasharray="25.799999999999997" stroke-dashoffset="25.799999999999997"><animate attributeName="stroke-dashoffset" from="25.799999999999997" to="0" dur="0.7739999999999999s" begin="anim9.end" fill="freeze" id="anim10" /></path><path d="M 46.0 -30.8 C 45.6 -28.1 44.4 -27.3 39.9 -27.3 C 35.8 -27.3 34.9 -27.9 34.9 -29.8 L 34.9 -34.2 " transform="translate(0.0 38.0)" stroke-dasharray="18.789763417764604" stroke-dashoffset="18.789763417764604"><animate attributeName="stroke-dashoffset" from="18.789763417764604" to="0" dur="0.5636929025329381s" begin="anim10.end" fill="freeze" id="anim11" /></path><path d="M 40.2 -38.3 C 39.4 -39.0 38.5 -39.6 37.6 -40.0 " transform="translate(0.0 38.0)" stroke-dasharray="3.117827318740406" stroke-dashoffset="3.117827318740406"><animate attributeName="stroke-dashoffset" from="3.117827318740406" to="0" dur="0.09353481956221218s" begin="anim11.end" fill="freeze" id="anim12" /></path><path d="M 10.9 2.6 L 10.9 -37.4" transform="translate(0.0 38.0)" stroke-dasharray="40.0" stroke-dashoffset="40.0"><animate attributeName="stroke-dashoffset" from="40.0" to="0" dur="1.2s" begin="anim12.end" fill="freeze" id="anim_end" /></path></g></svg>