<?xml version='1.0' encoding='utf-8'?>
<svg viewBox="0.0 -6.0 50.0 50.0" version="1.1" xmlns="http://www.w3.org/2000/svg"><rect x="-1000" y="-1000" width="2000" height="2000" stroke="white" fill="white" /><g style="fill:none;stroke:#000000;stroke-width:1"><path d="M 18.1 -0.7 C 20.6 -2.1 23.4 -4.4 25.4 -6.7 " transform="translate(0.0 38.0)" stroke-dasharray="9.491188506959821" stroke-dashoffset="9.491188506959821"><animate attributeName="stroke-dashoffset" from="9.491188506959821" to="0" dur="0.2847356552087946s" begin="0s; anim_end.end" fill="freeze" id="anim0" /></path><path d="M 27.6 1.4 C 28.4 1.6 29.1 1.7 29.9 1.7 C 31.9 1.7 32.9 0.9 32.9 -1.4 L 32.9 -11.3 " transform="translate(0.0 38.0)" stroke-dasharray="17.233327770573382" stroke-dashoffset="17.233327770573382"><animate attributeName="stroke-dashoffset" from="17.233327770573382" to="0" dur="0.5169998331172014s" begin="anim0.end" fill="freeze" id="anim1" /></path><path d="M 46.0 -1.4 C 43.9 -2.8 41.4 -5.0 39.8 -6.8 " transform="translate(0.0 38.0)" stroke-dasharray="8.240836762381106" stroke-dashoffset="8.240836762381106"><animate attributeName="stroke-dashoffset" from="8.240836762381106" to="0" dur="0.24722510287143315s" begin="anim1.end" fill="freeze" id="anim2" /></path><path d="M 28.3 -11.8 L 38.6 -11.8 C 41.4 -11.8 42.2 -12.9 42.2 -14.7 L 42.2 -20.7 C 42.2 -22.4 41.4 -23.6 38.6 -23.6 L 28.3 -23.4 C 25.7 -23.4 24.7 -22.5 24.7 -20.7 L 24.7 -14.7 C 24.7 -12.9 25.6 -11.8 28.3 -11.8 Z " transform="translate(0.0 38.0)" stroke-dasharray="53.75556668935638" stroke-dashoffset="53.75556668935638"><animate attributeName="stroke-dashoffset" from="53.75556668935638" to="0" dur="1.6126670006806914s" begin="anim2.end" fill="freeze" id="anim3" /></path><path d="M 41.3 -17.8 L 25.4 -17.8 " transform="translate(0.0 38.0)" stroke-dasharray="15.899999999999999" stroke-dashoffset="15.899999999999999"><animate attributeName="stroke-dashoffset" from="15.899999999999999" to="0" dur="0.4769999999999999s" begin="anim3.end" fill="freeze" id="anim4" /></path><path d="M 20.6 -31.5 C 22.6 -32.9 24.4 -34.5 26.1 -36.5 " transform="translate(0.0 38.0)" stroke-dasharray="7.453917324942035" stroke-dashoffset="7.453917324942035"><animate attributeName="stroke-dashoffset" from="7.453917324942035" to="0" dur="0.22361751974826102s" begin="anim4.end" fill="freeze" id="anim5" /></path><path d="M 28.3 -31.1 C 28.9 -31.0 29.6 -30.9 30.2 -30.9 C 32.0 -30.9 33.0 -31.6 33.0 -33.5 L 33.0 -40.0 " transform="translate(0.0 38.0)" stroke-dasharray="12.823513782849583" stroke-dashoffset="12.823513782849583"><animate attributeName="stroke-dashoffset" from="12.823513782849583" to="0" dur="0.3847054134854875s" begin="anim5.end" fill="freeze" id="anim6" /></path><path d="M 45.5 -32.9 C 43.9 -34.4 41.6 -35.9 39.9 -37.0 " transform="translate(0.0 38.0)" stroke-dasharray="6.949285932027706" stroke-dashoffset="6.949285932027706"><animate attributeName="stroke-dashoffset" from="6.949285932027706" to="0" dur="0.2084785779608312s" begin="anim6.end" fill="freeze" id="anim7" /></path><path d="M 10.7 -8.3 C 11.4 -8.1 12.1 -8.0 12.8 -8.0 C 15.2 -8.0 16.8 -9.9 16.8 -13.7 C 16.8 -17.2 15.4 -20.3 12.2 -23.3 C 11.6 -24.0 11.4 -24.9 12.0 -25.9 C 13.4 -28.6 14.7 -31.9 15.5 -34.9 C 16.2 -37.3 15.2 -38.6 12.8 -38.6 L 9.4 -38.6 C 7.0 -38.6 6.2 -37.6 6.2 -35.4 L 6.2 2.4 " transform="translate(0.0 38.0)" stroke-dasharray="85.55373076967119" stroke-dashoffset="85.55373076967119"><animate attributeName="stroke-dashoffset" from="85.55373076967119" to="0" dur="2.5666119230901354s" begin="anim7.end" fill="freeze" id="anim8" /></path><path d="M 19.0 -21.9 C 24.4 -23.1 36.0 -28.3 39.4 -31.5" transform="translate(0.0 38.0)" stroke-dasharray="22.68696498857844" stroke-dashoffset="22.68696498857844"><animate attributeName="stroke-dashoffset" from="22.68696498857844" to="0" dur="0.6806089496573531s" begin="anim8.end" fill="freeze" id="anim_end" /></path></g></svg>