<?xml version='1.0' encoding='utf-8'?>
<svg viewBox="0 -44.0 50.0 50.0" version="1.1" xmlns="http://www.w3.org/2000/svg"><rect x="-1000" y="-1000" width="2000" height="2000" stroke="white" fill="white" /><g style="fill:none;stroke:#000000;stroke-width:1"><path d="M 28.6 18.6 C 28.6 18.8 28.6 18.9 28.6 19.1 C 28.6 19.9 28.0 20.4 26.8 20.5 C 25.4 20.5 24.7 19.9 24.2 18.6 L 23.0 14.2 C 20.7 6.2 18.4 3.9 15.5 3.9 C 13.2 3.9 11.9 5.6 11.9 9.6 C 11.9 14.1 14.1 18.6 17.7 22.2 C 18.2 22.9 18.5 23.2 18.5 24.0 C 18.5 24.9 17.4 26.0 16.3 26.0 C 15.5 26.0 14.9 25.6 14.2 24.7 C 9.3 18.8 7.7 14.3 7.7 9.3 C 7.7 3.9 10.6 0.5 14.8 0.5 C 18.6 0.5 21.2 2.2 23.2 6.2 C 23.7 2.5 26.1 0.5 29.4 0.5 C 37.0 0.5 42.3 7.1 42.3 17.4 C 42.3 19.9 41.7 22.6 41.0 24.2 C 40.6 25.2 40.0 26.0 38.9 26.0 C 37.6 26.0 36.7 25.1 36.7 24.2 C 36.7 24.0 36.7 23.8 36.8 23.6 C 37.5 21.4 38.0 19.9 38.0 17.3 C 38.0 9.1 34.5 3.9 29.8 3.9 C 27.8 3.9 26.2 5.5 26.2 8.3 C 26.2 10.2 26.4 11.5 27.1 13.8 Z" transform="scale(1,-1)" stroke-dasharray="182.63512137477" stroke-dashoffset="182.63512137477"><animate attributeName="stroke-dashoffset" from="182.63512137477" to="0" dur="5.4790536412431s" begin="0s; 15s; 30s; 45s; 60s" fill="freeze" id="anim0" /></path></g></svg>