<?xml version='1.0' encoding='utf-8'?>
<svg viewBox="0 -44.0 25.0 50.0" version="1.1" xmlns="http://www.w3.org/2000/svg"><rect x="-1000" y="-1000" width="2000" height="2000" stroke="white" fill="white" /><g style="fill:none;stroke:#000000;stroke-width:1"><path d="M 8.1 35.4 C 6.6 35.4 5.2 34.1 5.2 32.6 C 5.2 31.0 6.6 29.7 8.1 29.7 C 9.6 29.7 10.9 31.0 10.9 32.6 C 10.9 34.1 9.6 35.4 8.1 35.4 Z " transform="scale(1,-1)" stroke-dasharray="17.82616639703209" stroke-dashoffset="17.82616639703209"><animate attributeName="stroke-dashoffset" from="17.82616639703209" to="0" dur="0.5347849919109626s" begin="0s; 15s; 30s; 45s; 60s" fill="freeze" id="anim0" /></path><path d="M 17.2 35.4 C 15.6 35.4 14.3 34.1 14.3 32.6 C 14.3 31.0 15.6 29.7 17.2 29.7 C 18.7 29.7 20.0 31.0 20.0 32.6 C 20.0 34.1 18.7 35.4 17.2 35.4 Z" transform="scale(1,-1)" stroke-dasharray="17.8684803195074" stroke-dashoffset="17.8684803195074"><animate attributeName="stroke-dashoffset" from="17.8684803195074" to="0" dur="0.5360544095852219s" begin="anim0.end" fill="freeze" id="anim_end" /></path></g></svg>