<?xml version='1.0' encoding='utf-8'?>
<svg viewBox="0 -44.0 33.35 50.0" version="1.1" xmlns="http://www.w3.org/2000/svg"><rect x="-1000" y="-1000" width="2000" height="2000" stroke="white" fill="white" /><g style="fill:none;stroke:#000000;stroke-width:1"><path d="M 14.6 -1.9 C 14.4 -2.4 14.2 -2.7 14.2 -3.1 C 14.2 -3.9 14.8 -4.4 15.6 -4.4 C 16.1 -4.4 16.9 -4.2 18.4 -4.2 C 20.0 -4.2 20.8 -4.5 20.8 -5.6 C 20.8 -7.1 19.7 -7.5 17.5 -7.5 C 15.4 -7.5 14.7 -7.2 14.3 -7.2 C 13.4 -7.2 13.0 -7.6 13.0 -8.3 C 13.0 -9.2 13.4 -9.7 14.4 -9.9 C 15.5 -10.1 16.6 -10.2 17.6 -10.2 C 22.1 -10.2 24.3 -8.2 24.3 -5.7 C 24.3 -3.0 22.6 -1.7 19.8 -1.7 C 18.9 -1.7 18.1 -1.9 17.5 -2.0 L 18.9 0.4 L 19.1 0.4 C 23.2 0.4 27.2 1.7 30.5 4.4 C 31.1 5.0 31.4 5.5 31.4 6.2 C 31.4 7.3 30.3 8.2 29.2 8.2 C 28.6 8.2 28.1 7.9 27.5 7.4 C 25.1 5.2 22.2 4.3 19.1 4.3 C 12.5 4.3 8.0 10.1 8.0 19.3 C 8.0 28.5 12.5 34.3 19.1 34.3 C 22.0 34.3 24.5 33.3 26.6 31.2 C 27.2 30.5 27.9 30.4 28.6 30.4 C 29.7 30.4 30.8 31.4 30.8 32.6 C 30.8 33.6 30.3 34.2 29.2 35.0 C 26.2 37.2 22.9 38.2 19.1 38.2 C 10.2 38.2 3.1 31.4 3.1 19.3 C 3.1 8.5 8.7 1.9 16.2 0.6 Z" transform="scale(1,-1)" stroke-dasharray="199.83269079578636" stroke-dashoffset="199.83269079578636"><animate attributeName="stroke-dashoffset" from="199.83269079578636" to="0" dur="5.99498072387359s" begin="0s; 15s; 30s; 45s; 60s" fill="freeze" id="anim0" /></path></g></svg>