<?xml version='1.0' encoding='utf-8'?>
<svg viewBox="0 -44.0 50.0 50.0" version="1.1" xmlns="http://www.w3.org/2000/svg"><rect x="-1000" y="-1000" width="2000" height="2000" stroke="white" fill="white" /><g style="fill:none;stroke:#000000;stroke-width:1"><path d="M 34.5 14.1 L 30.0 10.2 C 28.9 9.2 28.5 8.3 28.5 7.1 C 28.5 5.1 30.7 3.1 32.8 3.1 C 34.2 3.1 35.2 3.8 36.4 5.1 L 44.2 13.3 C 46.1 15.3 47.0 16.9 47.0 19.0 C 47.0 21.1 46.1 22.7 44.2 24.7 L 36.4 33.0 C 35.2 34.2 34.2 35.0 32.8 35.0 C 30.7 35.0 28.5 33.0 28.5 31.0 C 28.5 29.7 28.9 28.8 30.0 27.9 L 34.5 24.0 L 7.4 24.0 C 4.7 24.0 3.2 22.4 3.2 19.0 C 3.2 15.6 4.7 14.1 7.4 14.1 Z" transform="scale(1,-1)" stroke-dasharray="145.2162571477556" stroke-dashoffset="145.2162571477556"><animate attributeName="stroke-dashoffset" from="145.2162571477556" to="0" dur="4.356487714432668s" begin="0s; 15s; 30s; 45s; 60s" fill="freeze" id="anim0" /></path></g></svg>