<?xml version='1.0' encoding='utf-8'?>
<svg viewBox="0 -44.0 50.0 50.0" version="1.1" xmlns="http://www.w3.org/2000/svg"><rect x="-1000" y="-1000" width="2000" height="2000" stroke="white" fill="white" /><g style="fill:none;stroke:#000000;stroke-width:1"><path d="M 8.3 22.3 C 6.5 22.3 5.0 20.8 5.0 19.0 C 5.0 17.2 6.5 15.7 8.3 15.7 C 10.1 15.7 11.6 17.2 11.6 19.0 C 11.6 20.8 10.1 22.3 8.3 22.3 Z " transform="scale(1,-1)" stroke-dasharray="20.69839421845038" stroke-dashoffset="20.69839421845038"><animate attributeName="stroke-dashoffset" from="20.69839421845038" to="0" dur="0.6209518265535114s" begin="0s; 15s; 30s; 45s; 60s" fill="freeze" id="anim0" /></path><path d="M 41.7 22.3 C 39.8 22.3 38.4 20.8 38.4 19.0 C 38.4 17.2 39.9 15.7 41.7 15.7 C 43.5 15.7 45.0 17.2 45.0 19.0 C 45.0 20.8 43.5 22.3 41.7 22.3 Z " transform="scale(1,-1)" stroke-dasharray="20.720240855830433" stroke-dashoffset="20.720240855830433"><animate attributeName="stroke-dashoffset" from="20.720240855830433" to="0" dur="0.621607225674913s" begin="anim0.end" fill="freeze" id="anim1" /></path><path d="M 25.0 22.4 C 23.2 22.4 21.7 20.8 21.7 19.0 C 21.7 17.2 23.2 15.7 25.0 15.7 C 26.8 15.7 28.3 17.2 28.3 19.0 C 28.3 20.8 26.8 22.4 25.0 22.4 Z" transform="scale(1,-1)" stroke-dasharray="20.83281836953242" stroke-dashoffset="20.83281836953242"><animate attributeName="stroke-dashoffset" from="20.83281836953242" to="0" dur="0.6249845510859725s" begin="anim1.end" fill="freeze" id="anim_end" /></path></g></svg>