<?xml version='1.0' encoding='utf-8'?>
<svg viewBox="0 -44.0 50.0 50.0" version="1.1" xmlns="http://www.w3.org/2000/svg"><rect x="-1000" y="-1000" width="2000" height="2000" stroke="white" fill="white" /><g style="fill:none;stroke:#000000;stroke-width:1"><path d="M 25.7 34.8 C 25.8 35.1 25.9 35.6 25.9 36.0 C 25.9 37.0 25.0 37.8 23.7 37.8 C 22.6 37.8 21.9 37.1 21.7 36.1 L 16.3 13.6 C 15.7 10.9 15.1 8.0 14.5 5.3 L 14.0 5.3 C 13.4 8.1 12.9 11.0 12.3 13.7 L 7.4 36.1 C 7.2 37.0 6.4 37.8 5.4 37.8 C 3.8 37.8 3.0 37.1 3.0 35.9 C 3.0 35.5 3.0 35.1 3.1 34.8 L 10.5 4.0 C 11.0 1.9 12.2 0.8 14.2 0.8 C 16.1 0.8 17.2 1.9 17.8 4.0 Z " transform="scale(1,-1)" stroke-dasharray="152.3906990702844" stroke-dashoffset="152.3906990702844"><animate attributeName="stroke-dashoffset" from="152.3906990702844" to="0" dur="4.5717209721085315s" begin="0s; 15s; 30s; 45s; 60s" fill="freeze" id="anim0" /></path><path d="M 30.4 3.1 C 30.4 1.6 31.1 0.8 32.5 0.8 C 33.9 0.8 34.6 1.6 34.6 3.1 L 34.6 35.6 C 34.6 37.1 33.9 37.8 32.5 37.8 C 31.1 37.8 30.4 37.1 30.4 35.6 Z " transform="scale(1,-1)" stroke-dasharray="79.12624314851273" stroke-dashoffset="79.12624314851273"><animate attributeName="stroke-dashoffset" from="79.12624314851273" to="0" dur="2.373787294455382s" begin="anim0.end" fill="freeze" id="anim1" /></path><path d="M 40.6 3.1 C 40.6 1.6 41.4 0.8 42.8 0.8 C 44.2 0.8 44.9 1.6 44.9 3.1 L 44.9 35.6 C 44.9 37.1 44.1 37.8 42.8 37.8 C 41.4 37.8 40.6 37.1 40.6 35.6 Z" transform="scale(1,-1)" stroke-dasharray="79.23119946065233" stroke-dashoffset="79.23119946065233"><animate attributeName="stroke-dashoffset" from="79.23119946065233" to="0" dur="2.37693598381957s" begin="anim1.end" fill="freeze" id="anim_end" /></path></g></svg>