<?xml version='1.0' encoding='utf-8'?>
<svg viewBox="0 -44.0 50.0 50.0" version="1.1" xmlns="http://www.w3.org/2000/svg"><rect x="-1000" y="-1000" width="2000" height="2000" stroke="white" fill="white" /><g style="fill:none;stroke:#000000;stroke-width:1"><path d="M 22.9 32.0 C 23.9 33.9 24.8 35.8 25.6 37.6 C 25.7 37.9 25.7 38.1 25.7 38.5 C 25.7 39.6 24.7 40.3 23.7 40.3 C 23.0 40.3 22.2 39.9 21.8 39.0 C 19.2 32.5 14.7 25.9 9.9 21.6 C 9.2 21.1 9.0 20.4 9.0 19.9 C 9.0 18.9 9.8 18.1 10.8 18.1 C 11.3 18.1 11.9 18.3 12.5 18.8 C 15.4 21.3 18.2 24.8 20.7 28.5 L 33.5 28.6 C 34.5 28.6 34.9 28.2 34.9 27.7 C 34.9 27.5 34.9 27.2 34.8 27.1 C 32.0 17.0 23.9 6.9 14.7 1.8 C 13.7 1.2 13.2 0.4 13.2 -0.3 C 13.2 -1.3 14.1 -2.1 15.2 -2.1 C 15.6 -2.1 16.0 -2.1 16.4 -1.8 C 26.6 3.8 35.6 14.8 38.9 26.3 C 39.1 27.0 39.2 27.7 39.2 28.2 C 39.2 30.7 37.5 32.1 34.2 32.1 Z" transform="scale(1,-1)" stroke-dasharray="165.88284113666256" stroke-dashoffset="165.88284113666256"><animate attributeName="stroke-dashoffset" from="165.88284113666256" to="0" dur="4.976485234099877s" begin="0s; 15s; 30s; 45s; 60s" fill="freeze" id="anim0" /></path></g></svg>