<?xml version='1.0' encoding='utf-8'?>
<svg viewBox="0 -44.0 50.0 50.0" version="1.1" xmlns="http://www.w3.org/2000/svg"><rect x="-1000" y="-1000" width="2000" height="2000" stroke="white" fill="white" /><g style="fill:none;stroke:#000000;stroke-width:1"><path d="M 15.5 36.4 C 15.5 37.6 14.5 38.3 13.5 38.3 C 12.5 38.3 11.5 37.6 11.5 36.4 L 11.5 8.1 C 11.5 1.9 14.4 0.4 24.1 0.4 C 29.7 0.4 35.0 0.7 40.0 1.8 C 41.2 2.1 41.7 2.9 41.7 3.8 C 41.7 4.9 40.8 6.0 39.2 5.7 C 34.5 4.6 29.2 4.2 24.0 4.2 C 16.4 4.2 15.5 5.0 15.5 8.8 L 15.5 17.8 C 23.2 19.7 30.9 22.6 37.3 26.2 C 38.1 26.7 38.5 27.4 38.5 28.1 C 38.5 29.2 37.6 30.2 36.4 30.2 C 36.0 30.2 35.5 30.1 35.1 29.8 C 29.5 26.4 22.5 23.6 15.5 21.6 Z" transform="scale(1,-1)" stroke-dasharray="176.44703238924924" stroke-dashoffset="176.44703238924924"><animate attributeName="stroke-dashoffset" from="176.44703238924924" to="0" dur="5.293410971677477s" begin="0s; 15s; 30s; 45s; 60s" fill="freeze" id="anim0" /></path></g></svg>