<?xml version='1.0' encoding='utf-8'?>
<svg viewBox="0 -44.0 50.0 50.0" version="1.1" xmlns="http://www.w3.org/2000/svg"><rect x="-1000" y="-1000" width="2000" height="2000" stroke="white" fill="white" /><g style="fill:none;stroke:#000000;stroke-width:1"><path d="M 17.1 17.3 C 18.1 16.7 19.1 16.0 20.2 15.1 C 20.5 14.8 20.8 14.7 21.1 14.7 C 21.9 14.7 22.5 15.4 22.5 16.1 C 22.5 16.5 22.3 17.0 21.8 17.4 C 20.4 18.5 18.7 19.4 17.2 20.1 C 18.8 22.0 20.1 24.0 21.0 25.9 C 21.2 26.5 21.4 27.1 21.4 27.5 C 21.4 29.0 20.2 29.9 18.2 29.9 L 17.1 29.9 L 17.1 34.7 C 17.1 35.6 16.4 36.0 15.6 36.0 C 14.9 36.0 14.2 35.6 14.2 34.7 L 14.2 29.9 L 10.7 29.9 C 10.0 29.9 9.6 29.2 9.6 28.6 C 9.6 27.9 10.0 27.2 10.7 27.2 L 17.7 27.2 C 18.1 27.2 18.2 27.2 18.2 27.0 C 18.2 26.8 18.2 26.6 18.1 26.4 C 16.8 23.5 13.5 19.1 9.7 16.6 C 9.2 16.2 9.0 15.9 9.0 15.5 C 9.0 14.7 9.6 14.1 10.4 14.1 C 10.6 14.1 10.9 14.1 11.2 14.3 C 12.2 15.0 13.2 15.8 14.2 16.8 L 14.2 4.7 C 14.2 3.8 14.9 3.4 15.6 3.4 C 16.4 3.4 17.1 3.8 17.1 4.7 Z " transform="scale(1,-1)" stroke-dasharray="108.14965350721411" stroke-dashoffset="108.14965350721411"><animate attributeName="stroke-dashoffset" from="108.14965350721411" to="0" dur="3.2444896052164234s" begin="0s; 15s; 30s; 45s; 60s" fill="freeze" id="anim0" /></path><path d="M 29.9 8.0 L 21.8 8.0 C 21.0 8.0 20.6 7.4 20.6 6.7 C 20.6 6.0 21.0 5.4 21.8 5.4 L 39.5 5.4 C 40.2 5.4 40.7 6.0 40.7 6.7 C 40.7 7.4 40.2 8.0 39.5 8.0 L 32.9 8.0 L 32.9 20.5 L 39.1 20.5 C 39.9 20.5 40.2 21.1 40.2 21.8 C 40.2 22.5 39.9 23.1 39.1 23.1 L 32.9 23.1 L 32.9 34.1 C 32.9 34.9 32.1 35.4 31.4 35.4 C 30.6 35.4 29.9 34.9 29.9 34.1 L 29.9 23.1 L 23.7 23.1 C 22.9 23.1 22.5 22.5 22.5 21.8 C 22.5 21.1 22.9 20.5 23.7 20.5 L 29.9 20.5 Z " transform="scale(1,-1)" stroke-dasharray="124.39278288530588" stroke-dashoffset="124.39278288530588"><animate attributeName="stroke-dashoffset" from="124.39278288530588" to="0" dur="3.731783486559176s" begin="anim0.end" fill="freeze" id="anim1" /></path><path d="M 25.0 43.1 C 11.7 43.1 0.9 32.3 0.9 19.0 C 0.9 5.7 11.7 -5.1 25.0 -5.1 C 38.3 -5.1 49.1 5.7 49.1 19.0 C 49.1 32.3 38.3 43.1 25.0 43.1 Z " transform="scale(1,-1)" stroke-dasharray="151.42853538357596" stroke-dashoffset="151.42853538357596"><animate attributeName="stroke-dashoffset" from="151.42853538357596" to="0" dur="4.542856061507279s" begin="anim1.end" fill="freeze" id="anim2" /></path><path d="M 25.0 41.0 C 37.1 41.0 47.0 31.2 47.0 19.0 C 47.0 6.9 37.1 -3.0 25.0 -3.0 C 12.9 -3.0 3.1 6.9 3.1 19.0 C 3.1 31.2 12.9 41.0 25.0 41.0 Z" transform="scale(1,-1)" stroke-dasharray="138.07262399110482" stroke-dashoffset="138.07262399110482"><animate attributeName="stroke-dashoffset" from="138.07262399110482" to="0" dur="4.1421787197331446s" begin="anim2.end" fill="freeze" id="anim_end" /></path></g></svg>