<?xml version='1.0' encoding='utf-8'?>
<svg viewBox="0 -44.0 50.0 50.0" version="1.1" xmlns="http://www.w3.org/2000/svg"><rect x="-1000" y="-1000" width="2000" height="2000" stroke="white" fill="white" /><g style="fill:none;stroke:#000000;stroke-width:1"><path d="M 22.0 36.1 C 22.0 37.6 21.2 38.2 20.0 38.2 C 18.8 38.2 18.0 37.6 18.0 36.1 L 18.0 22.8 C 16.9 25.1 14.6 26.3 12.5 26.3 C 6.5 26.3 2.7 21.5 2.7 13.5 C 2.7 5.1 6.0 0.5 11.9 0.5 C 14.7 0.5 16.8 1.9 18.2 5.2 C 18.4 4.2 18.6 3.0 18.8 2.1 C 19.1 1.2 19.6 0.8 20.5 0.8 C 21.8 0.8 22.6 1.4 22.6 2.4 C 22.6 3.0 22.5 3.4 22.5 3.7 C 22.2 5.2 22.0 7.4 22.0 10.8 Z " transform="scale(1,-1)" stroke-dasharray="113.57211021357611" stroke-dashoffset="113.57211021357611"><animate attributeName="stroke-dashoffset" from="113.57211021357611" to="0" dur="3.4071633064072833s" begin="0s; 15s; 30s; 45s; 60s" fill="freeze" id="anim0" /></path><path d="M 18.0 13.4 C 18.0 7.4 15.6 3.8 12.4 3.8 C 8.8 3.8 6.8 6.9 6.8 13.5 C 6.8 19.8 9.3 22.8 12.6 22.8 C 15.0 22.8 16.8 21.5 18.0 18.7 Z " transform="scale(1,-1)" stroke-dasharray="49.64652750932314" stroke-dashoffset="49.64652750932314"><animate attributeName="stroke-dashoffset" from="49.64652750932314" to="0" dur="1.4893958252796942s" begin="anim0.end" fill="freeze" id="anim1" /></path><path d="M 37.4 0.8 C 43.5 0.8 47.1 4.8 47.1 11.2 C 47.1 16.5 45.0 19.8 40.9 20.8 C 44.2 22.2 45.8 24.8 45.8 28.6 C 45.8 34.4 42.9 37.9 37.0 37.9 L 32.1 37.9 C 28.2 37.9 27.2 36.1 27.2 32.4 L 27.2 6.2 C 27.2 2.5 28.2 0.8 31.9 0.8 Z " transform="scale(1,-1)" stroke-dasharray="106.62564865345414" stroke-dashoffset="106.62564865345414"><animate attributeName="stroke-dashoffset" from="106.62564865345414" to="0" dur="3.198769459603624s" begin="anim1.end" fill="freeze" id="anim2" /></path><path d="M 33.0 4.2 C 31.9 4.2 31.4 4.7 31.4 6.4 L 31.4 18.4 L 37.3 18.4 C 41.0 18.4 42.8 16.1 42.8 11.2 C 42.8 7.1 40.8 4.2 37.4 4.2 Z " transform="scale(1,-1)" stroke-dasharray="45.76219039418114" stroke-dashoffset="45.76219039418114"><animate attributeName="stroke-dashoffset" from="45.76219039418114" to="0" dur="1.3728657118254342s" begin="anim2.end" fill="freeze" id="anim3" /></path><path d="M 31.4 21.9 L 31.4 32.1 C 31.4 33.9 31.9 34.4 33.0 34.4 L 37.0 34.4 C 40.0 34.4 41.6 32.2 41.6 28.2 C 41.6 24.5 39.8 21.9 36.8 21.9 Z" transform="scale(1,-1)" stroke-dasharray="40.4974108574896" stroke-dashoffset="40.4974108574896"><animate attributeName="stroke-dashoffset" from="40.4974108574896" to="0" dur="1.214922325724688s" begin="anim3.end" fill="freeze" id="anim_end" /></path></g></svg>