<?xml version='1.0' encoding='utf-8'?>
<svg viewBox="0 -44.0 50.0 50.0" version="1.1" xmlns="http://www.w3.org/2000/svg"><rect x="-1000" y="-1000" width="2000" height="2000" stroke="white" fill="white" /><g style="fill:none;stroke:#000000;stroke-width:1"><path d="M 11.4 22.1 C 10.2 22.1 9.6 21.2 9.6 20.2 C 9.6 19.4 10.2 18.5 11.5 18.5 L 33.6 18.8 C 30.1 11.1 23.8 4.9 14.8 1.2 C 13.8 0.8 13.3 0.1 13.3 -0.7 C 13.3 -1.7 14.1 -2.6 15.4 -2.6 C 15.7 -2.6 16.0 -2.6 16.4 -2.4 C 29.5 2.9 38.2 13.9 40.4 28.2 C 40.5 28.7 40.5 29.2 40.5 29.7 C 40.5 32.7 38.7 34.4 34.9 34.3 L 9.0 34.1 C 7.8 34.1 7.1 33.1 7.1 32.2 C 7.1 31.2 7.8 30.4 9.0 30.4 L 34.4 30.7 C 36.3 30.7 36.6 30.2 36.4 28.6 C 36.1 26.5 35.6 24.4 35.0 22.4 Z " transform="scale(1,-1)" stroke-dasharray="202.460014373851" stroke-dashoffset="202.460014373851"><animate attributeName="stroke-dashoffset" from="202.460014373851" to="0" dur="6.07380043121553s" begin="0s; 15s; 30s; 45s; 60s" fill="freeze" id="anim0" /></path><path d="M 38.5 38.4 C 39.6 37.0 41.1 35.1 42.1 33.1 C 42.5 32.6 42.9 32.3 43.4 32.3 C 44.2 32.3 44.9 33.0 44.9 33.9 C 44.9 34.2 44.9 34.6 44.7 34.9 C 43.7 36.6 42.1 38.9 40.8 40.2 C 40.4 40.6 40.0 40.8 39.6 40.8 C 38.8 40.8 38.1 40.2 38.1 39.4 C 38.1 39.1 38.2 38.7 38.5 38.4 Z " transform="scale(1,-1)" stroke-dasharray="22.823900778774753" stroke-dashoffset="22.823900778774753"><animate attributeName="stroke-dashoffset" from="22.823900778774753" to="0" dur="0.6847170233632426s" begin="anim0.end" fill="freeze" id="anim1" /></path><path d="M 43.5 41.5 C 44.6 40.2 46.2 38.0 47.2 36.4 C 47.5 35.8 47.9 35.6 48.4 35.6 C 49.1 35.6 49.8 36.2 49.8 37.2 C 49.8 37.5 49.8 37.8 49.6 38.1 C 48.6 39.9 47.0 42.1 45.8 43.3 C 45.4 43.7 45.0 43.9 44.6 43.9 C 43.8 43.9 43.1 43.2 43.1 42.5 C 43.1 42.1 43.2 41.8 43.5 41.5 Z" transform="scale(1,-1)" stroke-dasharray="22.343777204481405" stroke-dashoffset="22.343777204481405"><animate attributeName="stroke-dashoffset" from="22.343777204481405" to="0" dur="0.6703133161344421s" begin="anim1.end" fill="freeze" id="anim_end" /></path></g></svg>