<?xml version='1.0' encoding='utf-8'?>
<svg viewBox="0 -44.0 50.0 50.0" version="1.1" xmlns="http://www.w3.org/2000/svg"><rect x="-1000" y="-1000" width="2000" height="2000" stroke="white" fill="white" /><g style="fill:none;stroke:#000000;stroke-width:1"><path d="M 14.7 36.6 C 13.6 36.6 13.0 35.7 13.0 34.8 C 13.0 33.9 13.6 32.9 14.7 32.9 L 35.7 32.9 C 36.9 32.9 37.5 33.9 37.5 34.8 C 37.5 35.7 36.9 36.6 35.7 36.6 Z " transform="scale(1,-1)" stroke-dasharray="53.385629476463635" stroke-dashoffset="53.385629476463635"><animate attributeName="stroke-dashoffset" from="53.385629476463635" to="0" dur="1.6015688842939089s" begin="0s; 15s; 30s; 45s; 60s" fill="freeze" id="anim0" /></path><path d="M 10.0 26.0 C 8.8 26.0 8.1 25.1 8.1 24.2 C 8.1 23.2 8.8 22.3 10.1 22.3 L 35.4 22.6 C 36.7 22.6 37.2 22.4 37.2 21.6 C 37.2 21.3 37.2 21.0 37.1 20.7 C 34.9 12.2 28.5 6.0 19.0 2.7 C 17.9 2.3 17.5 1.5 17.5 0.8 C 17.5 -0.2 18.2 -1.2 19.4 -1.2 C 19.7 -1.2 20.0 -1.2 20.2 -1.1 C 30.6 2.7 38.4 10.0 40.9 20.0 C 41.1 20.7 41.2 21.4 41.2 22.1 C 41.2 24.8 39.5 26.3 35.8 26.2 Z" transform="scale(1,-1)" stroke-dasharray="134.2306438170865" stroke-dashoffset="134.2306438170865"><animate attributeName="stroke-dashoffset" from="134.2306438170865" to="0" dur="4.026919314512595s" begin="anim0.end" fill="freeze" id="anim_end" /></path></g></svg>