<?xml version='1.0' encoding='utf-8'?>
<svg viewBox="0 -44.0 50.0 50.0" version="1.1" xmlns="http://www.w3.org/2000/svg"><rect x="-1000" y="-1000" width="2000" height="2000" stroke="white" fill="white" /><g style="fill:none;stroke:#000000;stroke-width:1"><path d="M 41.1 19.1 C 41.1 19.9 40.5 20.5 39.7 20.5 C 38.8 20.5 38.2 19.9 38.2 19.1 L 38.2 11.3 C 38.2 6.3 37.3 3.3 31.9 0.7 C 31.2 0.4 30.9 -0.1 30.9 -0.6 C 30.9 -1.4 31.5 -2.0 32.4 -2.0 C 32.6 -2.0 32.9 -1.9 33.1 -1.8 C 38.7 1.1 41.1 4.2 41.1 11.4 Z " transform="scale(1,-1)" stroke-dasharray="54.584095155147224" stroke-dashoffset="54.584095155147224"><animate attributeName="stroke-dashoffset" from="54.584095155147224" to="0" dur="1.6375228546544167s" begin="0s; 15s; 30s; 45s; 60s" fill="freeze" id="anim0" /></path><path d="M 30.8 18.5 C 30.8 19.5 30.2 20.0 29.2 20.0 C 28.4 20.0 27.9 19.4 27.9 18.5 L 27.9 8.6 C 27.9 7.8 28.4 7.2 29.2 7.2 C 30.2 7.2 30.8 7.8 30.8 8.6 Z " transform="scale(1,-1)" stroke-dasharray="29.073710875615703" stroke-dashoffset="29.073710875615703"><animate attributeName="stroke-dashoffset" from="29.073710875615703" to="0" dur="0.8722113262684711s" begin="anim0.end" fill="freeze" id="anim1" /></path><path d="M 19.6 28.2 C 19.6 28.9 19.4 29.1 18.8 29.4 C 16.8 30.5 13.7 31.6 12.2 32.0 C 11.9 32.1 11.6 32.1 11.4 32.1 C 10.6 32.1 10.2 31.7 10.2 30.9 C 10.2 30.4 10.4 30.0 10.9 29.9 C 13.2 29.2 15.2 28.5 17.2 27.4 C 17.7 27.1 18.1 27.0 18.4 27.0 C 19.1 27.0 19.6 27.4 19.6 28.2 Z " transform="scale(1,-1)" stroke-dasharray="22.75959835589214" stroke-dashoffset="22.75959835589214"><animate attributeName="stroke-dashoffset" from="22.75959835589214" to="0" dur="0.6827879506767642s" begin="anim1.end" fill="freeze" id="anim2" /></path><path d="M 21.9 35.0 C 21.9 35.6 21.6 36.0 21.0 36.4 C 19.0 37.3 15.8 38.6 12.7 39.4 C 12.3 39.5 12.1 39.6 11.8 39.6 C 11.0 39.6 10.5 39.1 10.5 38.1 C 10.5 37.5 10.8 37.2 11.4 37.1 C 14.5 36.2 16.7 35.5 19.6 34.0 C 20.0 33.8 20.2 33.6 20.6 33.6 C 21.3 33.6 21.9 34.2 21.9 35.0 Z " transform="scale(1,-1)" stroke-dasharray="27.260132369932037" stroke-dashoffset="27.260132369932037"><animate attributeName="stroke-dashoffset" from="27.260132369932037" to="0" dur="0.8178039710979611s" begin="anim2.end" fill="freeze" id="anim3" /></path><path d="M 21.2 19.1 C 21.2 19.7 21.0 20.1 20.3 20.4 C 17.7 21.9 14.4 23.2 9.7 24.6 C 9.5 24.6 9.3 24.7 9.1 24.7 C 8.3 24.7 7.8 24.1 7.8 23.2 C 7.8 22.7 8.1 22.3 8.6 22.2 C 12.5 21.0 16.1 19.8 18.6 18.1 C 19.2 17.7 19.6 17.7 20.0 17.7 C 20.6 17.7 21.2 18.2 21.2 19.1 Z" transform="scale(1,-1)" stroke-dasharray="31.75720221498058" stroke-dashoffset="31.75720221498058"><animate attributeName="stroke-dashoffset" from="31.75720221498058" to="0" dur="0.9527160664494174s" begin="anim3.end" fill="freeze" id="anim_end" /></path></g></svg>