<?xml version='1.0' encoding='utf-8'?>
<svg viewBox="0 -44.0 50.0 50.0" version="1.1" xmlns="http://www.w3.org/2000/svg"><rect x="-1000" y="-1000" width="2000" height="2000" stroke="white" fill="white" /><g style="fill:none;stroke:#000000;stroke-width:1"><path d="M 27.6 19.9 C 27.2 14.3 25.4 8.8 21.7 4.5 C 20.3 2.8 18.7 1.5 16.9 0.2 C 16.2 -0.2 15.9 -0.8 15.9 -1.4 C 15.9 -2.2 16.6 -3.1 17.6 -3.1 C 17.9 -3.1 18.2 -3.0 18.6 -2.8 C 25.6 1.6 30.5 9.8 31.4 19.9 L 41.6 19.9 C 42.6 19.9 43.1 20.7 43.1 21.6 C 43.1 22.4 42.6 23.2 41.6 23.2 L 19.5 23.2 C 20.6 25.5 21.5 27.8 22.1 30.1 C 22.2 30.2 22.2 30.5 22.2 30.6 C 22.2 31.7 21.3 32.4 20.4 32.4 C 19.7 32.4 18.9 31.9 18.6 31.0 C 16.9 25.2 13.4 18.6 9.7 14.7 C 9.2 14.2 9.0 13.7 9.0 13.2 C 9.0 12.3 9.7 11.6 10.6 11.6 C 11.2 11.6 11.7 11.8 12.2 12.4 C 14.2 14.4 16.1 17.1 17.7 19.9 Z" transform="scale(1,-1)" stroke-dasharray="150.43117173682185" stroke-dashoffset="150.43117173682185"><animate attributeName="stroke-dashoffset" from="150.43117173682185" to="0" dur="4.512935152104656s" begin="0s; 15s; 30s; 45s; 60s" fill="freeze" id="anim0" /></path></g></svg>