<?xml version='1.0' encoding='utf-8'?>
<svg viewBox="0 -44.0 50.0 50.0" version="1.1" xmlns="http://www.w3.org/2000/svg"><rect x="-1000" y="-1000" width="2000" height="2000" stroke="white" fill="white" /><g style="fill:none;stroke:#000000;stroke-width:1"><path d="M 28.2 23.0 L 24.0 23.0 C 20.4 23.0 18.8 21.4 18.8 18.6 L 18.8 10.4 C 18.9 7.0 20.9 6.0 24.0 5.9 L 28.2 5.9 L 28.2 2.1 C 28.2 -1.9 29.6 -3.0 36.7 -3.0 C 43.4 -3.0 45.6 -1.5 46.2 3.5 C 46.4 4.8 45.5 5.4 44.6 5.4 C 43.9 5.4 43.2 5.0 43.0 3.9 C 42.6 1.0 41.6 0.2 36.6 0.2 C 32.4 0.2 31.6 0.7 31.6 2.8 L 31.6 5.9 L 36.4 5.9 C 40.0 5.9 41.5 7.6 41.5 10.4 L 41.5 18.6 C 41.5 21.4 40.0 23.0 36.4 23.0 L 31.6 23.0 L 31.6 27.1 C 31.6 28.1 30.8 28.6 30.0 28.6 C 29.1 28.6 28.2 28.1 28.2 27.0 Z " transform="scale(1,-1)" stroke-dasharray="130.79961641917686" stroke-dashoffset="130.79961641917686"><animate attributeName="stroke-dashoffset" from="130.79961641917686" to="0" dur="3.9239884925753055s" begin="0s; 15s; 30s; 45s; 60s" fill="freeze" id="anim0" /></path><path d="M 31.6 13.2 L 38.1 13.2 L 38.1 10.6 C 38.1 9.0 37.1 9.0 35.8 8.9 L 31.6 8.9 Z " transform="scale(1,-1)" stroke-dasharray="20.924108758878326" stroke-dashoffset="20.924108758878326"><animate attributeName="stroke-dashoffset" from="20.924108758878326" to="0" dur="0.6277232627663497s" begin="anim0.end" fill="freeze" id="anim1" /></path><path d="M 28.2 13.2 L 28.2 8.9 L 24.6 8.9 C 22.8 8.9 22.2 9.2 22.2 10.6 L 22.2 13.2 Z " transform="scale(1,-1)" stroke-dasharray="19.965037621917787" stroke-dashoffset="19.965037621917787"><animate attributeName="stroke-dashoffset" from="19.965037621917787" to="0" dur="0.5989511286575336s" begin="anim1.end" fill="freeze" id="anim2" /></path><path d="M 31.6 20.1 L 35.8 20.1 C 37.6 20.1 38.1 19.8 38.1 18.4 L 38.1 16.1 L 31.6 16.1 Z " transform="scale(1,-1)" stroke-dasharray="20.39393573150445" stroke-dashoffset="20.39393573150445"><animate attributeName="stroke-dashoffset" from="20.39393573150445" to="0" dur="0.6118180719451335s" begin="anim2.end" fill="freeze" id="anim3" /></path><path d="M 28.2 20.1 L 28.2 16.1 L 22.2 16.1 L 22.2 18.4 C 22.2 19.8 22.8 20.1 24.6 20.1 Z " transform="scale(1,-1)" stroke-dasharray="19.365037621917786" stroke-dashoffset="19.365037621917786"><animate attributeName="stroke-dashoffset" from="19.365037621917786" to="0" dur="0.5809511286575335s" begin="anim3.end" fill="freeze" id="anim4" /></path><path d="M 17.3 34.8 C 16.4 34.8 15.9 34.0 15.9 33.2 C 15.9 32.5 16.4 31.7 17.3 31.7 L 22.7 31.7 C 20.2 27.9 17.1 24.7 13.6 22.1 C 13.0 21.7 12.8 21.1 12.8 20.6 C 12.8 19.8 13.4 19.1 14.2 19.1 C 14.7 19.1 15.1 19.2 15.5 19.6 C 19.9 22.7 23.7 26.8 26.6 31.7 L 34.0 31.7 C 37.0 26.5 41.0 22.6 45.2 20.1 C 45.6 19.9 46.0 19.8 46.3 19.8 C 47.4 19.8 48.1 20.7 48.1 21.6 C 48.1 22.2 47.8 22.9 46.9 23.4 C 43.4 25.2 39.9 28.1 37.4 31.7 L 44.5 31.7 C 45.5 31.7 45.9 32.5 45.9 33.2 C 45.9 34.0 45.5 34.8 44.5 34.8 L 28.3 34.8 C 29.0 36.2 29.7 37.6 30.2 39.2 C 30.3 39.5 30.4 39.7 30.4 40.0 C 30.4 41.0 29.5 41.6 28.6 41.6 C 27.9 41.6 27.2 41.2 26.9 40.3 C 26.2 38.4 25.4 36.5 24.5 34.8 Z " transform="scale(1,-1)" stroke-dasharray="139.889282278669" stroke-dashoffset="139.889282278669"><animate attributeName="stroke-dashoffset" from="139.889282278669" to="0" dur="4.196678468360069s" begin="anim4.end" fill="freeze" id="anim5" /></path><path d="M 7.5 -2.7 C 7.5 -3.7 8.3 -4.2 9.2 -4.2 C 10.1 -4.2 11.0 -3.7 11.0 -2.7 L 11.0 25.6 C 11.0 26.6 10.1 27.2 9.2 27.2 C 11.0 31.1 12.5 35.4 13.4 39.2 C 13.7 40.7 12.7 41.6 11.6 41.6 C 10.9 41.6 10.1 41.1 9.9 40.1 C 8.2 32.8 5.1 24.9 1.7 19.8 C 1.5 19.4 1.4 19.0 1.4 18.7 C 1.4 17.8 2.1 17.2 2.9 17.2 C 3.4 17.2 4.0 17.4 4.4 18.1 C 5.4 19.6 6.5 21.4 7.5 23.4 Z" transform="scale(1,-1)" stroke-dasharray="114.41723771338991" stroke-dashoffset="114.41723771338991"><animate attributeName="stroke-dashoffset" from="114.41723771338991" to="0" dur="3.4325171314016973s" begin="anim5.end" fill="freeze" id="anim_end" /></path></g></svg>