<?xml version='1.0' encoding='utf-8'?>
<svg viewBox="0 -44.0 50.0 50.0" version="1.1" xmlns="http://www.w3.org/2000/svg"><rect x="-1000" y="-1000" width="2000" height="2000" stroke="white" fill="white" /><g style="fill:none;stroke:#000000;stroke-width:1"><path d="M 33.1 7.9 C 37.4 7.9 38.8 9.9 38.8 12.8 L 38.8 25.2 C 38.8 28.1 37.4 30.2 33.1 30.2 L 16.9 30.2 C 12.6 30.2 11.2 28.1 11.2 25.2 L 11.2 12.8 C 11.2 9.1 13.5 7.9 16.9 7.9 Z " transform="scale(1,-1)" stroke-dasharray="91.87741768998464" stroke-dashoffset="91.87741768998464"><animate attributeName="stroke-dashoffset" from="91.87741768998464" to="0" dur="2.756322530699539s" begin="0s; 15s; 30s; 45s; 60s" fill="freeze" id="anim0" /></path><path d="M 17.9 11.1 C 15.2 11.1 14.8 11.8 14.8 13.5 L 14.8 17.6 L 35.1 17.6 L 35.1 13.5 C 35.1 11.2 34.1 11.1 32.0 11.1 Z " transform="scale(1,-1)" stroke-dasharray="51.94022974465807" stroke-dashoffset="51.94022974465807"><animate attributeName="stroke-dashoffset" from="51.94022974465807" to="0" dur="1.558206892339742s" begin="anim0.end" fill="freeze" id="anim1" /></path><path d="M 35.1 20.7 L 14.8 20.7 L 14.8 24.5 C 14.8 26.2 15.2 27.0 17.9 27.0 L 32.0 27.0 C 34.7 27.0 35.1 26.2 35.1 24.5 Z " transform="scale(1,-1)" stroke-dasharray="51.4239416740189" stroke-dashoffset="51.4239416740189"><animate attributeName="stroke-dashoffset" from="51.4239416740189" to="0" dur="1.542718250220567s" begin="anim1.end" fill="freeze" id="anim2" /></path><path d="M 3.8 2.4 C 2.8 2.4 2.2 1.6 2.2 0.8 C 2.2 -0.1 2.8 -0.9 3.8 -0.9 L 46.4 -0.9 C 47.4 -0.9 47.9 -0.1 47.9 0.8 C 47.9 1.6 47.4 2.4 46.4 2.4 Z " transform="scale(1,-1)" stroke-dasharray="95.34192380554995" stroke-dashoffset="95.34192380554995"><animate attributeName="stroke-dashoffset" from="95.34192380554995" to="0" dur="2.8602577141664987s" begin="anim2.end" fill="freeze" id="anim3" /></path><path d="M 5.7 38.8 C 4.7 38.8 4.2 38.0 4.2 37.1 C 4.2 36.3 4.7 35.5 5.7 35.5 L 44.5 35.5 C 45.5 35.5 46.0 36.3 46.0 37.1 C 46.0 38.0 45.5 38.8 44.5 38.8 Z" transform="scale(1,-1)" stroke-dasharray="87.61728123870806" stroke-dashoffset="87.61728123870806"><animate attributeName="stroke-dashoffset" from="87.61728123870806" to="0" dur="2.6285184371612416s" begin="anim3.end" fill="freeze" id="anim_end" /></path></g></svg>