<?xml version='1.0' encoding='utf-8'?>
<svg viewBox="0 -44.0 50.0 50.0" version="1.1" xmlns="http://www.w3.org/2000/svg"><rect x="-1000" y="-1000" width="2000" height="2000" stroke="white" fill="white" /><g style="fill:none;stroke:#000000;stroke-width:1"><path d="M 17.6 11.7 L 17.6 2.1 L 3.8 2.1 C 2.8 2.1 2.2 1.3 2.2 0.5 C 2.2 -0.3 2.8 -1.1 3.8 -1.1 L 46.4 -1.1 C 47.4 -1.1 47.9 -0.3 47.9 0.5 C 47.9 1.3 47.4 2.1 46.4 2.1 L 32.0 2.1 L 32.0 11.7 L 37.1 11.7 C 41.7 11.7 43.1 13.4 43.1 16.2 L 43.1 22.9 C 43.1 25.7 41.7 27.4 37.1 27.4 L 32.0 27.4 L 32.0 35.3 L 45.5 35.3 C 46.5 35.3 47.0 36.1 47.0 36.9 C 47.0 37.7 46.5 38.5 45.5 38.5 L 4.7 38.5 C 3.7 38.5 3.2 37.7 3.2 36.9 C 3.2 36.1 3.7 35.3 4.7 35.3 L 17.6 35.3 L 17.6 27.4 L 12.8 27.4 C 8.2 27.4 6.8 25.7 6.8 22.9 L 6.8 16.2 C 6.9 12.5 9.4 11.8 12.8 11.7 Z " transform="scale(1,-1)" stroke-dasharray="260.46325710956427" stroke-dashoffset="260.46325710956427"><animate attributeName="stroke-dashoffset" from="260.46325710956427" to="0" dur="7.813897713286928s" begin="0s; 15s; 30s; 45s; 60s" fill="freeze" id="anim0" /></path><path d="M 13.4 14.7 C 10.8 14.7 10.3 15.2 10.3 16.9 L 10.3 22.2 C 10.3 23.9 10.8 24.4 13.4 24.4 L 17.6 24.4 L 17.6 14.7 Z " transform="scale(1,-1)" stroke-dasharray="32.413927398438304" stroke-dashoffset="32.413927398438304"><animate attributeName="stroke-dashoffset" from="32.413927398438304" to="0" dur="0.9724178219531491s" begin="anim0.end" fill="freeze" id="anim1" /></path><path d="M 32.0 14.7 L 32.0 24.4 L 36.6 24.4 C 39.1 24.4 39.6 23.9 39.6 22.2 L 39.6 16.9 C 39.6 14.8 38.4 14.7 36.6 14.7 Z " transform="scale(1,-1)" stroke-dasharray="33.004530455804726" stroke-dashoffset="33.004530455804726"><animate attributeName="stroke-dashoffset" from="33.004530455804726" to="0" dur="0.9901359136741418s" begin="anim1.end" fill="freeze" id="anim2" /></path><path d="M 21.1 27.4 L 21.1 35.3 L 28.5 35.3 L 28.5 27.4 Z " transform="scale(1,-1)" stroke-dasharray="30.599999999999994" stroke-dashoffset="30.599999999999994"><animate attributeName="stroke-dashoffset" from="30.599999999999994" to="0" dur="0.9179999999999998s" begin="anim2.end" fill="freeze" id="anim3" /></path><path d="M 21.1 24.4 L 28.5 24.4 L 28.5 14.7 L 21.1 14.7 Z " transform="scale(1,-1)" stroke-dasharray="34.199999999999996" stroke-dashoffset="34.199999999999996"><animate attributeName="stroke-dashoffset" from="34.199999999999996" to="0" dur="1.0259999999999998s" begin="anim3.end" fill="freeze" id="anim4" /></path><path d="M 28.5 2.1 L 21.1 2.1 L 21.1 11.7 L 28.5 11.7 Z" transform="scale(1,-1)" stroke-dasharray="34.0" stroke-dashoffset="34.0"><animate attributeName="stroke-dashoffset" from="34.0" to="0" dur="1.02s" begin="anim4.end" fill="freeze" id="anim_end" /></path></g></svg>