<?xml version='1.0' encoding='utf-8'?>
<svg viewBox="0 -44.0 50.0 50.0" version="1.1" xmlns="http://www.w3.org/2000/svg"><rect x="-1000" y="-1000" width="2000" height="2000" stroke="white" fill="white" /><g style="fill:none;stroke:#000000;stroke-width:1"><path d="M 23.6 34.4 C 29.8 35.0 36.1 36.0 41.5 37.4 C 42.4 37.6 42.8 38.2 42.8 38.9 C 42.8 39.8 42.0 40.7 40.9 40.7 C 40.7 40.7 40.5 40.6 40.2 40.6 C 35.6 39.2 29.1 38.1 24.1 37.6 C 23.8 38.1 23.1 38.5 22.5 38.5 C 21.8 38.5 21.1 38.1 20.8 37.2 C 19.6 33.1 17.8 29.1 15.5 25.8 C 15.1 25.3 15.0 24.9 15.0 24.5 C 15.0 23.6 15.7 22.9 16.6 22.9 C 17.2 22.9 17.8 23.2 18.2 23.9 C 20.4 26.8 22.2 30.6 23.6 34.4 Z " transform="scale(1,-1)" stroke-dasharray="74.94108879269069" stroke-dashoffset="74.94108879269069"><animate attributeName="stroke-dashoffset" from="74.94108879269069" to="0" dur="2.248232663780721s" begin="0s; 15s; 30s; 45s; 60s" fill="freeze" id="anim0" /></path><path d="M 30.0 10.0 L 30.0 2.3 C 30.0 0.6 29.7 0.2 28.2 0.2 C 27.5 0.2 26.8 0.2 26.0 0.4 C 24.7 0.7 23.8 -0.4 23.8 -1.4 C 23.8 -2.2 24.3 -3.0 25.4 -3.2 C 26.4 -3.4 27.1 -3.5 28.2 -3.5 C 32.1 -3.5 33.5 -1.9 33.5 1.9 L 33.5 10.0 L 45.6 10.0 C 46.7 10.0 47.2 10.8 47.2 11.6 C 47.2 12.4 46.7 13.2 45.6 13.2 L 33.5 13.2 L 33.5 15.2 C 35.8 16.3 38.0 17.9 39.4 19.2 C 40.3 20.2 40.7 21.2 40.7 22.0 C 40.7 23.5 39.5 24.6 37.1 24.6 L 22.5 24.6 C 21.6 24.6 21.1 23.9 21.1 23.1 C 21.1 22.3 21.6 21.5 22.5 21.5 L 35.6 21.5 C 36.1 21.5 36.4 21.4 36.4 21.2 C 36.4 21.0 36.2 20.8 36.0 20.5 C 35.1 19.7 33.9 18.8 32.5 17.9 C 32.2 18.0 32.0 18.1 31.8 18.1 C 30.9 18.1 30.0 17.5 30.0 16.4 L 30.0 13.2 L 16.8 13.2 C 15.8 13.2 15.2 12.4 15.2 11.6 C 15.2 10.8 15.8 10.0 16.8 10.0 Z " transform="scale(1,-1)" stroke-dasharray="162.09818490816554" stroke-dashoffset="162.09818490816554"><animate attributeName="stroke-dashoffset" from="162.09818490816554" to="0" dur="4.862945547244966s" begin="anim0.end" fill="freeze" id="anim1" /></path><path d="M 7.5 -2.7 C 7.5 -3.7 8.3 -4.2 9.2 -4.2 C 10.1 -4.2 11.0 -3.7 11.0 -2.7 L 11.0 25.6 C 11.0 26.6 10.1 27.2 9.2 27.2 C 11.0 31.1 12.5 35.4 13.4 39.2 C 13.7 40.7 12.7 41.6 11.6 41.6 C 10.9 41.6 10.1 41.1 9.9 40.1 C 8.2 32.8 5.1 24.9 1.7 19.8 C 1.5 19.4 1.4 19.0 1.4 18.7 C 1.4 17.8 2.1 17.2 2.9 17.2 C 3.4 17.2 4.0 17.4 4.4 18.1 C 5.4 19.6 6.5 21.4 7.5 23.4 Z " transform="scale(1,-1)" stroke-dasharray="114.41723771338991" stroke-dashoffset="114.41723771338991"><animate attributeName="stroke-dashoffset" from="114.41723771338991" to="0" dur="3.4325171314016973s" begin="anim1.end" fill="freeze" id="anim2" /></path><path d="M 28.9 31.6 C 29.5 30.5 30.1 28.9 30.6 27.5 C 30.9 26.5 31.6 26.1 32.2 26.1 C 33.1 26.1 34.0 26.8 34.0 27.9 C 34.0 28.1 34.0 28.4 33.9 28.7 C 33.4 30.2 32.8 31.6 31.9 33.0 C 31.5 33.6 30.8 34.0 30.2 34.0 C 29.4 34.0 28.6 33.4 28.6 32.6 C 28.6 32.2 28.7 32.0 28.9 31.6 Z " transform="scale(1,-1)" stroke-dasharray="20.574280606824903" stroke-dashoffset="20.574280606824903"><animate attributeName="stroke-dashoffset" from="20.574280606824903" to="0" dur="0.617228418204747s" begin="anim2.end" fill="freeze" id="anim3" /></path><path d="M 39.5 32.3 C 40.9 30.9 42.6 28.8 43.6 26.9 C 44.0 26.2 44.6 25.9 45.2 25.9 C 46.2 25.9 47.1 26.7 47.1 27.8 C 47.1 28.2 46.9 28.6 46.7 29.0 C 45.5 30.9 43.6 33.1 42.0 34.6 C 41.6 35.0 41.1 35.1 40.6 35.1 C 39.7 35.1 38.9 34.5 38.9 33.6 C 38.9 33.1 39.1 32.7 39.5 32.3 Z" transform="scale(1,-1)" stroke-dasharray="25.901478966124166" stroke-dashoffset="25.901478966124166"><animate attributeName="stroke-dashoffset" from="25.901478966124166" to="0" dur="0.777044368983725s" begin="anim3.end" fill="freeze" id="anim_end" /></path></g></svg>