<?xml version='1.0' encoding='utf-8'?>
<svg viewBox="0 -44.0 50.0 50.0" version="1.1" xmlns="http://www.w3.org/2000/svg"><rect x="-1000" y="-1000" width="2000" height="2000" stroke="white" fill="white" /><g style="fill:none;stroke:#000000;stroke-width:1"><path d="M 14.2 27.0 L 14.2 24.8 C 14.2 13.0 12.4 6.3 7.6 0.5 C 7.1 -0.1 7.0 -0.6 7.0 -1.0 C 7.0 -1.8 7.6 -2.4 8.4 -2.4 C 8.9 -2.4 9.5 -2.1 10.0 -1.6 C 14.4 3.7 16.6 9.2 17.3 17.6 L 21.1 17.6 C 22.5 17.6 22.8 17.2 22.8 15.9 C 22.8 11.7 22.5 7.7 21.7 4.5 C 21.2 2.7 20.2 2.1 18.7 2.1 C 18.1 2.1 17.4 2.1 16.7 2.3 C 15.4 2.6 14.5 1.6 14.5 0.7 C 14.5 -0.1 15.0 -0.8 16.1 -1.0 C 16.9 -1.2 17.8 -1.2 18.9 -1.2 C 22.1 -1.2 24.0 0.1 24.9 3.6 C 25.8 7.0 26.2 11.6 26.2 16.1 C 26.2 19.0 25.2 20.5 21.7 20.5 L 17.5 20.5 C 17.6 21.9 17.6 23.2 17.6 24.8 L 17.6 27.0 L 26.1 27.0 C 27.0 27.0 27.5 27.8 27.5 28.6 C 27.5 29.4 27.0 30.1 26.1 30.1 L 8.6 30.1 L 8.6 33.9 C 8.6 35.5 9.2 36.1 11.2 36.1 L 27.2 36.1 C 28.2 36.1 28.8 36.9 28.8 37.6 C 28.8 38.4 28.2 39.2 27.2 39.2 L 10.6 39.2 C 6.8 39.2 5.1 37.8 5.1 34.5 L 5.1 25.5 C 5.1 13.2 3.9 7.1 1.5 1.6 C 1.3 1.2 1.2 0.9 1.2 0.6 C 1.2 -0.5 2.0 -1.1 2.8 -1.1 C 3.4 -1.1 4.0 -0.7 4.5 0.2 C 7.2 6.0 8.6 12.6 8.6 25.2 L 8.6 27.0 Z " transform="scale(1,-1)" stroke-dasharray="283.1036497038795" stroke-dashoffset="283.1036497038795"><animate attributeName="stroke-dashoffset" from="283.1036497038795" to="0" dur="8.493109491116385s" begin="0s; 15s; 30s; 45s; 60s" fill="freeze" id="anim0" /></path><path d="M 37.8 29.7 L 37.8 39.5 C 37.8 40.6 36.9 41.2 36.1 41.2 C 35.1 41.2 34.3 40.6 34.3 39.5 L 34.3 29.6 L 30.3 29.5 C 29.4 29.5 29.0 28.8 29.0 28.0 C 29.0 27.2 29.4 26.6 30.3 26.6 L 34.2 26.6 C 34.0 13.4 31.2 5.2 25.1 -0.4 C 24.5 -1.0 24.2 -1.5 24.2 -2.0 C 24.2 -2.9 25.0 -3.5 25.8 -3.5 C 26.2 -3.5 26.7 -3.3 27.2 -2.9 C 28.9 -1.3 30.4 0.4 31.7 2.3 C 36.4 9.5 37.6 18.3 37.7 26.7 L 41.5 26.8 C 42.9 26.8 43.2 26.2 43.2 24.9 C 43.2 16.0 42.8 9.8 42.0 4.7 C 41.6 1.5 40.7 0.8 39.2 0.8 C 38.4 0.8 37.7 0.9 36.9 1.1 C 35.6 1.3 34.9 0.3 34.9 -0.7 C 34.9 -1.4 35.3 -2.2 36.2 -2.4 C 37.4 -2.6 38.2 -2.7 39.2 -2.7 C 42.7 -2.7 44.8 -1.1 45.5 4.0 C 46.2 9.2 46.7 15.7 46.7 25.2 C 46.7 28.2 45.5 29.8 42.0 29.7 Z" transform="scale(1,-1)" stroke-dasharray="191.60744709847353" stroke-dashoffset="191.60744709847353"><animate attributeName="stroke-dashoffset" from="191.60744709847353" to="0" dur="5.748223412954205s" begin="anim0.end" fill="freeze" id="anim_end" /></path></g></svg>