<?xml version='1.0' encoding='utf-8'?>
<svg viewBox="0 -44.0 50.0 50.0" version="1.1" xmlns="http://www.w3.org/2000/svg"><rect x="-1000" y="-1000" width="2000" height="2000" stroke="white" fill="white" /><g style="fill:none;stroke:#000000;stroke-width:1"><path d="M 46.4 17.1 C 47.4 17.1 47.8 17.8 47.8 18.5 C 47.8 19.2 47.4 20.0 46.4 20.0 L 39.4 20.0 C 39.7 21.2 40.1 22.4 40.3 23.5 C 40.6 24.8 39.7 25.6 38.8 25.6 C 38.1 25.6 37.4 25.1 37.2 24.1 C 36.4 19.9 34.8 15.4 32.8 12.2 C 32.6 11.8 32.5 11.4 32.5 11.0 C 32.5 10.2 33.1 9.6 33.8 9.6 C 34.3 9.6 34.9 9.9 35.3 10.6 C 35.5 11.0 35.7 11.3 35.9 11.7 C 36.6 9.6 37.5 7.6 38.6 5.7 C 37.1 3.2 35.1 1.2 32.9 -0.2 C 32.3 -0.7 32.0 -1.2 32.0 -1.7 C 32.0 -2.5 32.6 -3.2 33.4 -3.2 C 33.7 -3.2 34.1 -3.1 34.4 -2.8 C 36.6 -1.2 38.7 0.7 40.3 3.0 C 41.8 1.1 43.4 -0.6 45.2 -2.0 C 45.6 -2.2 46.0 -2.4 46.3 -2.4 C 47.2 -2.4 48.1 -1.5 48.1 -0.6 C 48.1 -0.1 47.8 0.5 47.2 0.9 C 45.2 2.2 43.5 3.9 42.0 5.8 C 42.9 7.4 43.6 9.1 44.1 10.8 C 44.7 12.9 45.1 15.0 45.2 17.1 Z " transform="scale(1,-1)" stroke-dasharray="101.19546098337555" stroke-dashoffset="101.19546098337555"><animate attributeName="stroke-dashoffset" from="101.19546098337555" to="0" dur="3.0358638295012663s" begin="0s; 15s; 30s; 45s; 60s" fill="freeze" id="anim0" /></path><path d="M 42.2 17.1 C 42.0 14.1 41.3 11.3 40.2 8.6 C 39.0 10.7 38.1 12.9 37.6 15.2 C 37.9 15.9 38.1 16.4 38.3 17.1 Z " transform="scale(1,-1)" stroke-dasharray="21.81810722179796" stroke-dashoffset="21.81810722179796"><animate attributeName="stroke-dashoffset" from="21.81810722179796" to="0" dur="0.6545432166539388s" begin="anim0.end" fill="freeze" id="anim1" /></path><path d="M 28.1 -2.6 C 28.1 -3.6 28.9 -4.0 29.7 -4.0 C 30.4 -4.0 31.2 -3.6 31.2 -2.6 L 31.2 17.1 L 32.8 17.1 C 33.6 17.1 34.1 17.8 34.1 18.4 C 34.1 19.2 33.6 19.8 32.8 19.8 L 27.2 19.8 L 27.2 22.2 L 30.5 22.2 C 31.4 22.2 31.9 22.9 31.9 23.6 C 31.9 24.2 31.4 25.0 30.5 25.0 L 20.9 25.0 C 20.0 25.0 19.5 24.2 19.5 23.6 C 19.5 22.9 20.0 22.2 20.9 22.2 L 24.2 22.2 L 24.2 19.8 L 17.7 19.8 L 17.7 21.2 L 17.7 25.1 C 17.7 26.5 18.1 27.0 19.9 27.0 L 45.8 27.0 C 46.8 27.0 47.3 27.8 47.3 28.5 C 47.3 29.2 46.8 30.0 45.8 30.0 L 19.5 30.0 C 15.9 30.0 14.5 28.4 14.5 25.5 L 14.5 21.7 C 14.5 9.0 13.5 4.1 11.6 -0.2 C 11.5 -0.5 11.4 -0.8 11.4 -1.1 C 11.4 -2.0 12.1 -2.6 12.9 -2.6 C 13.5 -2.6 14.2 -2.2 14.6 -1.3 C 16.3 2.8 17.4 7.2 17.6 17.1 L 20.3 17.1 L 20.3 2.8 C 19.6 2.6 18.9 2.5 18.1 2.4 C 17.2 2.2 16.8 1.5 16.8 0.8 C 16.8 -0.1 17.4 -1.0 18.6 -0.8 C 21.7 -0.2 24.8 0.7 28.1 1.7 Z " transform="scale(1,-1)" stroke-dasharray="234.29412429854537" stroke-dashoffset="234.29412429854537"><animate attributeName="stroke-dashoffset" from="234.29412429854537" to="0" dur="7.028823728956361s" begin="anim1.end" fill="freeze" id="anim2" /></path><path d="M 28.1 4.5 C 26.5 4.1 24.9 3.7 23.3 3.4 L 23.3 6.8 L 28.1 6.8 Z " transform="scale(1,-1)" stroke-dasharray="15.42520254380244" stroke-dashoffset="15.42520254380244"><animate attributeName="stroke-dashoffset" from="15.42520254380244" to="0" dur="0.4627560763140732s" begin="anim2.end" fill="freeze" id="anim3" /></path><path d="M 28.1 9.2 L 23.3 9.2 L 23.3 12.1 L 28.1 12.1 Z " transform="scale(1,-1)" stroke-dasharray="15.400000000000002" stroke-dashoffset="15.400000000000002"><animate attributeName="stroke-dashoffset" from="15.400000000000002" to="0" dur="0.462s" begin="anim3.end" fill="freeze" id="anim4" /></path><path d="M 28.1 14.5 L 23.3 14.5 L 23.3 17.1 L 28.1 17.1 Z " transform="scale(1,-1)" stroke-dasharray="14.800000000000004" stroke-dashoffset="14.800000000000004"><animate attributeName="stroke-dashoffset" from="14.800000000000004" to="0" dur="0.4440000000000001s" begin="anim4.end" fill="freeze" id="anim5" /></path><path d="M 25.4 31.9 C 28.2 31.9 29.4 33.0 29.4 35.1 L 29.4 37.4 C 29.4 39.6 28.2 40.7 25.4 40.7 L 20.9 40.7 C 18.0 40.7 16.9 39.6 16.9 37.4 L 16.9 35.1 C 16.9 32.6 18.6 32.0 20.9 31.9 Z " transform="scale(1,-1)" stroke-dasharray="37.28284066462112" stroke-dashoffset="37.28284066462112"><animate attributeName="stroke-dashoffset" from="37.28284066462112" to="0" dur="1.1184852199386335s" begin="anim5.end" fill="freeze" id="anim6" /></path><path d="M 21.5 34.4 C 20.4 34.4 20.1 34.8 20.1 35.7 L 20.1 36.9 C 20.1 37.8 20.4 38.1 21.5 38.1 L 24.8 38.1 C 25.9 38.1 26.2 37.8 26.2 36.9 L 26.2 35.7 C 26.2 34.8 25.7 34.4 24.8 34.4 Z " transform="scale(1,-1)" stroke-dasharray="17.78854186753934" stroke-dashoffset="17.78854186753934"><animate attributeName="stroke-dashoffset" from="17.78854186753934" to="0" dur="0.5336562560261802s" begin="anim6.end" fill="freeze" id="anim7" /></path><path d="M 41.0 31.9 C 43.8 31.9 45.0 33.0 45.0 35.1 L 45.0 37.4 C 45.0 39.6 43.8 40.7 41.0 40.7 L 36.2 40.7 C 33.4 40.7 32.2 39.6 32.2 37.4 L 32.2 35.1 C 32.3 32.6 34.0 32.0 36.2 31.9 Z " transform="scale(1,-1)" stroke-dasharray="37.80892478898884" stroke-dashoffset="37.80892478898884"><animate attributeName="stroke-dashoffset" from="37.80892478898884" to="0" dur="1.134267743669665s" begin="anim7.end" fill="freeze" id="anim8" /></path><path d="M 36.9 34.4 C 35.8 34.4 35.5 34.8 35.5 35.7 L 35.5 36.9 C 35.5 37.8 35.8 38.1 36.9 38.1 L 40.4 38.1 C 41.4 38.1 41.8 37.8 41.8 36.9 L 41.8 35.7 C 41.8 34.8 41.2 34.4 40.4 34.4 Z " transform="scale(1,-1)" stroke-dasharray="18.142976557910295" stroke-dashoffset="18.142976557910295"><animate attributeName="stroke-dashoffset" from="18.142976557910295" to="0" dur="0.5442892967373089s" begin="anim8.end" fill="freeze" id="anim9" /></path><path d="M 7.1 -2.7 C 7.1 -3.8 8.0 -4.2 8.8 -4.2 C 9.7 -4.2 10.6 -3.8 10.6 -2.7 L 10.6 25.6 C 10.6 26.7 9.7 27.2 8.8 27.2 C 10.5 31.2 12.0 35.6 12.9 39.6 C 13.2 41.0 12.1 41.8 11.1 41.8 C 10.3 41.8 9.6 41.4 9.3 40.4 C 7.8 33.0 4.9 25.2 1.6 20.0 C 1.4 19.6 1.2 19.2 1.2 18.9 C 1.2 18.1 2.0 17.4 2.8 17.4 C 3.2 17.4 3.9 17.8 4.3 18.4 C 5.2 19.8 6.2 21.5 7.1 23.4 Z" transform="scale(1,-1)" stroke-dasharray="114.24490340852202" stroke-dashoffset="114.24490340852202"><animate attributeName="stroke-dashoffset" from="114.24490340852202" to="0" dur="3.4273471022556605s" begin="anim9.end" fill="freeze" id="anim_end" /></path></g></svg>