<?xml version='1.0' encoding='utf-8'?>
<svg viewBox="0 -44.0 50.0 50.0" version="1.1" xmlns="http://www.w3.org/2000/svg"><rect x="-1000" y="-1000" width="2000" height="2000" stroke="white" fill="white" /><g style="fill:none;stroke:#000000;stroke-width:1"><path d="M 23.2 7.5 L 30.2 7.5 L 30.2 -1.1 C 30.2 -2.1 31.1 -2.6 32.0 -2.6 C 32.9 -2.6 33.8 -2.1 33.8 -1.1 L 33.8 7.5 L 41.6 7.5 L 41.6 2.0 C 41.6 0.5 41.2 0.1 40.2 0.1 C 39.7 0.1 39.0 0.2 38.5 0.2 C 37.2 0.5 36.4 -0.4 36.4 -1.4 C 36.4 -2.1 36.9 -2.8 38.0 -3.0 C 38.8 -3.2 39.6 -3.2 40.3 -3.2 C 43.5 -3.2 45.2 -2.1 45.2 1.7 L 45.2 22.0 C 45.2 25.1 43.5 26.6 39.8 26.6 L 33.8 26.6 L 33.8 31.0 L 46.1 31.0 C 47.1 31.0 47.6 31.8 47.6 32.6 C 47.6 33.4 47.1 34.1 46.1 34.1 L 33.8 34.1 L 33.8 40.2 C 33.8 41.2 32.9 41.8 32.0 41.8 C 31.1 41.8 30.2 41.2 30.2 40.2 L 30.2 34.1 L 19.2 34.1 C 18.2 34.1 17.8 33.4 17.8 32.6 C 17.8 31.8 18.2 31.0 19.2 31.0 L 30.2 31.0 L 30.2 26.6 L 25.0 26.6 C 21.2 26.6 19.6 25.1 19.6 22.0 L 19.6 -2.2 C 19.6 -3.2 20.5 -3.7 21.4 -3.7 C 22.2 -3.7 23.2 -3.2 23.2 -2.2 Z " transform="scale(1,-1)" stroke-dasharray="232.64097459708512" stroke-dashoffset="232.64097459708512"><animate attributeName="stroke-dashoffset" from="232.64097459708512" to="0" dur="6.979229237912553s" begin="0s; 15s; 30s; 45s; 60s" fill="freeze" id="anim0" /></path><path d="M 23.2 10.4 L 23.2 15.6 L 30.2 15.6 L 30.2 10.4 Z " transform="scale(1,-1)" stroke-dasharray="24.4" stroke-dashoffset="24.4"><animate attributeName="stroke-dashoffset" from="24.4" to="0" dur="0.732s" begin="anim0.end" fill="freeze" id="anim1" /></path><path d="M 23.2 18.5 L 23.2 21.3 C 23.2 22.9 23.7 23.5 26.1 23.5 L 30.2 23.5 L 30.2 18.5 Z " transform="scale(1,-1)" stroke-dasharray="23.194561135679187" stroke-dashoffset="23.194561135679187"><animate attributeName="stroke-dashoffset" from="23.194561135679187" to="0" dur="0.6958368340703756s" begin="anim1.end" fill="freeze" id="anim2" /></path><path d="M 33.8 10.4 L 33.8 15.6 L 41.6 15.6 L 41.6 10.4 Z " transform="scale(1,-1)" stroke-dasharray="26.000000000000007" stroke-dashoffset="26.000000000000007"><animate attributeName="stroke-dashoffset" from="26.000000000000007" to="0" dur="0.7800000000000001s" begin="anim2.end" fill="freeze" id="anim3" /></path><path d="M 33.8 18.5 L 33.8 23.5 L 38.6 23.5 C 41.1 23.5 41.6 22.9 41.6 21.3 L 41.6 18.5 Z " transform="scale(1,-1)" stroke-dasharray="24.786147448357195" stroke-dashoffset="24.786147448357195"><animate attributeName="stroke-dashoffset" from="24.786147448357195" to="0" dur="0.7435844234507158s" begin="anim3.end" fill="freeze" id="anim4" /></path><path d="M 11.7 24.4 L 15.8 24.4 C 16.8 24.4 17.2 25.2 17.2 26.0 C 17.2 26.8 16.8 27.5 15.8 27.5 L 11.7 27.5 L 11.7 39.0 C 11.7 40.0 10.8 40.5 10.0 40.5 C 9.1 40.5 8.2 40.0 8.2 39.0 L 8.2 27.5 L 3.9 27.5 C 3.0 27.5 2.5 26.8 2.5 26.0 C 2.5 25.2 3.0 24.4 3.9 24.4 L 8.2 24.4 L 8.2 9.3 C 6.5 8.7 4.8 8.1 3.3 7.7 C 2.2 7.3 1.8 6.6 1.8 5.9 C 1.8 5.0 2.5 4.2 3.5 4.2 C 3.7 4.2 4.0 4.2 4.2 4.3 C 7.9 5.5 12.7 7.6 16.2 9.5 C 17.0 9.9 17.4 10.5 17.4 11.0 C 17.4 11.9 16.7 12.6 15.8 12.6 C 15.5 12.6 15.2 12.5 14.8 12.3 C 13.9 11.8 12.8 11.3 11.7 10.8 Z " transform="scale(1,-1)" stroke-dasharray="116.23740499232629" stroke-dashoffset="116.23740499232629"><animate attributeName="stroke-dashoffset" from="116.23740499232629" to="0" dur="3.4871221497697884s" begin="anim4.end" fill="freeze" id="anim5" /></path><path d="M 39.0 40.6 C 38.7 40.8 38.4 40.8 38.1 40.8 C 37.2 40.8 36.5 40.1 36.5 39.3 C 36.5 38.9 36.7 38.4 37.2 38.0 C 38.2 37.4 39.4 36.6 40.2 35.9 C 40.6 35.5 41.1 35.3 41.5 35.3 C 42.4 35.3 43.0 36.0 43.0 36.8 C 43.0 37.4 42.8 37.9 42.2 38.4 C 41.2 39.2 40.1 40.0 39.0 40.6 Z" transform="scale(1,-1)" stroke-dasharray="18.1407065426228" stroke-dashoffset="18.1407065426228"><animate attributeName="stroke-dashoffset" from="18.1407065426228" to="0" dur="0.544221196278684s" begin="anim5.end" fill="freeze" id="anim_end" /></path></g></svg>