<?xml version='1.0' encoding='utf-8'?>
<svg viewBox="0 -44.0 50.0 50.0" version="1.1" xmlns="http://www.w3.org/2000/svg"><rect x="-1000" y="-1000" width="2000" height="2000" stroke="white" fill="white" /><g style="fill:none;stroke:#000000;stroke-width:1"><path d="M 13.6 9.6 L 13.6 40.2 C 13.6 41.3 12.8 41.8 12.0 41.8 C 11.2 41.8 10.3 41.3 10.3 40.2 L 10.3 9.6 L 8.8 9.6 C 7.6 9.6 7.2 10.1 7.2 11.7 L 7.2 32.4 C 7.2 33.4 6.4 33.9 5.6 33.9 C 4.8 33.9 3.9 33.4 3.9 32.4 L 3.9 11.0 C 3.9 7.7 5.7 6.5 8.6 6.5 L 15.5 6.5 C 18.3 6.5 20.1 7.7 20.1 11.0 L 20.1 32.4 C 20.1 33.4 19.2 33.9 18.4 33.9 C 17.6 33.9 16.8 33.4 16.8 32.4 L 16.8 11.7 C 16.8 10.1 16.4 9.6 15.2 9.6 Z " transform="scale(1,-1)" stroke-dasharray="191.61412959441765" stroke-dashoffset="191.61412959441765"><animate attributeName="stroke-dashoffset" from="191.61412959441765" to="0" dur="5.748423887832529s" begin="0s; 15s; 30s; 45s; 60s" fill="freeze" id="anim0" /></path><path d="M 43.0 1.1 L 43.0 34.4 C 43.0 38.0 41.2 39.4 37.1 39.4 L 30.5 39.4 C 26.4 39.4 24.6 38.0 24.6 34.4 L 24.6 1.1 L 17.4 1.1 C 16.6 1.1 16.1 0.2 16.1 -0.5 C 16.1 -1.3 16.6 -2.1 17.4 -2.1 L 46.9 -2.1 C 47.9 -2.1 48.3 -1.3 48.3 -0.5 C 48.3 0.2 47.9 1.1 46.9 1.1 Z " transform="scale(1,-1)" stroke-dasharray="141.06896811423653" stroke-dashoffset="141.06896811423653"><animate attributeName="stroke-dashoffset" from="141.06896811423653" to="0" dur="4.232069043427096s" begin="anim0.end" fill="freeze" id="anim1" /></path><path d="M 28.2 1.1 L 28.2 11.0 L 39.4 11.0 L 39.4 1.1 Z " transform="scale(1,-1)" stroke-dasharray="42.2" stroke-dashoffset="42.2"><animate attributeName="stroke-dashoffset" from="42.2" to="0" dur="1.266s" begin="anim1.end" fill="freeze" id="anim2" /></path><path d="M 28.2 14.2 L 28.2 23.7 L 39.4 23.7 L 39.4 14.2 Z " transform="scale(1,-1)" stroke-dasharray="41.4" stroke-dashoffset="41.4"><animate attributeName="stroke-dashoffset" from="41.4" to="0" dur="1.242s" begin="anim2.end" fill="freeze" id="anim3" /></path><path d="M 28.2 26.8 L 28.2 33.8 C 28.2 35.6 28.9 36.2 31.1 36.2 L 36.6 36.2 C 38.7 36.2 39.4 35.6 39.4 33.8 L 39.4 26.8 Z" transform="scale(1,-1)" stroke-dasharray="39.45398960832759" stroke-dashoffset="39.45398960832759"><animate attributeName="stroke-dashoffset" from="39.45398960832759" to="0" dur="1.1836196882498276s" begin="anim3.end" fill="freeze" id="anim_end" /></path></g></svg>