<?xml version='1.0' encoding='utf-8'?>
<svg viewBox="0 -44.0 50.0 50.0" version="1.1" xmlns="http://www.w3.org/2000/svg"><rect x="-1000" y="-1000" width="2000" height="2000" stroke="white" fill="white" /><g style="fill:none;stroke:#000000;stroke-width:1"><path d="M 28.4 17.6 L 28.4 14.4 L 16.9 14.4 C 15.9 14.4 15.4 13.6 15.4 12.8 C 15.4 12.1 15.9 11.2 16.9 11.2 L 28.4 11.2 L 28.4 7.7 L 20.0 7.7 C 18.9 7.7 18.4 7.0 18.4 6.2 C 18.4 5.5 18.9 4.7 20.0 4.7 L 28.4 4.7 L 28.4 0.9 L 14.8 0.9 C 13.8 0.9 13.3 0.2 13.3 -0.7 C 13.3 -1.4 13.8 -2.2 14.8 -2.2 L 45.1 -2.2 C 46.4 -2.2 47.0 -1.4 47.0 -0.7 C 47.0 0.2 46.4 0.9 45.1 0.9 L 31.9 0.9 L 31.9 4.7 L 40.7 4.7 C 41.7 4.7 42.2 5.5 42.2 6.2 C 42.2 7.0 41.7 7.7 40.7 7.7 L 31.9 7.7 L 31.9 11.2 L 43.8 11.2 C 44.8 11.2 45.2 12.1 45.2 12.8 C 45.2 13.6 44.8 14.4 43.8 14.4 L 31.9 14.4 L 31.9 17.6 L 38.9 17.6 C 42.5 17.6 43.9 19.0 43.9 21.5 L 43.9 24.8 C 43.9 27.3 42.5 28.7 38.9 28.7 L 22.1 28.7 C 18.6 28.7 17.2 27.3 17.2 24.8 L 17.2 21.5 C 17.2 18.4 19.3 17.7 22.1 17.6 Z " transform="scale(1,-1)" stroke-dasharray="254.6328257693793" stroke-dashoffset="254.6328257693793"><animate attributeName="stroke-dashoffset" from="254.6328257693793" to="0" dur="7.638984773081379s" begin="0s; 15s; 30s; 45s; 60s" fill="freeze" id="anim0" /></path><path d="M 22.8 20.6 C 21.0 20.6 20.6 21.1 20.6 22.2 L 20.6 24.2 C 20.6 25.2 21.0 25.7 22.8 25.7 L 28.4 25.7 L 28.4 20.6 Z " transform="scale(1,-1)" stroke-dasharray="24.57352550285678" stroke-dashoffset="24.57352550285678"><animate attributeName="stroke-dashoffset" from="24.57352550285678" to="0" dur="0.7372057650857033s" begin="anim0.end" fill="freeze" id="anim1" /></path><path d="M 31.9 25.7 L 38.2 25.7 C 40.1 25.7 40.5 25.2 40.5 24.2 L 40.5 22.2 C 40.5 21.1 40.1 20.6 38.2 20.6 L 31.9 20.6 Z " transform="scale(1,-1)" stroke-dasharray="26.1574739253385" stroke-dashoffset="26.1574739253385"><animate attributeName="stroke-dashoffset" from="26.1574739253385" to="0" dur="0.784724217760155s" begin="anim1.end" fill="freeze" id="anim2" /></path><path d="M 26.9 34.6 L 33.2 34.6 L 33.2 32.1 C 33.2 31.2 34.1 30.7 34.9 30.7 C 35.7 30.7 36.5 31.2 36.5 32.1 L 36.5 34.6 L 45.6 34.6 C 46.6 34.6 47.1 35.3 47.1 36.0 C 47.1 36.8 46.6 37.5 45.6 37.5 L 36.5 37.5 L 36.5 40.3 C 36.5 41.3 35.7 41.8 34.9 41.8 C 34.1 41.8 33.2 41.3 33.2 40.3 L 33.2 37.5 L 26.9 37.5 L 26.9 40.3 C 26.9 41.3 26.1 41.8 25.2 41.8 C 24.4 41.8 23.6 41.3 23.6 40.3 L 23.6 37.5 L 16.2 37.5 C 15.2 37.5 14.8 36.8 14.8 36.0 C 14.8 35.3 15.2 34.6 16.2 34.6 L 23.6 34.6 L 23.6 31.9 C 23.6 30.9 24.4 30.4 25.2 30.4 C 26.1 30.4 26.9 30.9 26.9 31.9 Z " transform="scale(1,-1)" stroke-dasharray="96.27870032799338" stroke-dashoffset="96.27870032799338"><animate attributeName="stroke-dashoffset" from="96.27870032799338" to="0" dur="2.888361009839801s" begin="anim2.end" fill="freeze" id="anim3" /></path><path d="M 7.5 -2.5 C 7.5 -3.6 8.3 -4.0 9.2 -4.0 C 10.1 -4.0 11.0 -3.6 11.0 -2.5 L 11.0 25.7 C 11.0 26.8 10.1 27.3 9.2 27.3 C 11.0 31.2 12.5 35.5 13.4 39.4 C 13.7 40.9 12.7 41.7 11.6 41.7 C 10.9 41.7 10.1 41.2 9.9 40.2 C 8.2 32.9 5.1 25.1 1.7 19.9 C 1.5 19.5 1.4 19.2 1.4 18.8 C 1.4 17.9 2.1 17.4 2.9 17.4 C 3.4 17.4 4.0 17.6 4.4 18.2 C 5.4 19.8 6.5 21.6 7.5 23.5 Z" transform="scale(1,-1)" stroke-dasharray="114.18689632430848" stroke-dashoffset="114.18689632430848"><animate attributeName="stroke-dashoffset" from="114.18689632430848" to="0" dur="3.4256068897292544s" begin="anim3.end" fill="freeze" id="anim_end" /></path></g></svg>