<?xml version='1.0' encoding='utf-8'?>
<svg viewBox="0 -44.0 50.0 50.0" version="1.1" xmlns="http://www.w3.org/2000/svg"><rect x="-1000" y="-1000" width="2000" height="2000" stroke="white" fill="white" /><g style="fill:none;stroke:#000000;stroke-width:1"><path d="M 10.7 10.6 C 13.8 10.6 15.2 11.9 15.2 15.0 L 15.2 33.1 C 15.2 36.3 13.8 37.6 10.7 37.6 L 7.7 37.6 C 4.6 37.6 3.2 36.3 3.2 33.1 L 3.2 15.0 C 3.2 11.9 4.5 10.6 7.7 10.6 Z " transform="scale(1,-1)" stroke-dasharray="71.55519659208481" stroke-dashoffset="71.55519659208481"><animate attributeName="stroke-dashoffset" from="71.55519659208481" to="0" dur="2.1466558977625443s" begin="0s; 15s; 30s; 45s; 60s" fill="freeze" id="anim0" /></path><path d="M 8.3 13.6 C 7.1 13.6 6.7 14.0 6.7 15.4 L 6.7 32.8 C 6.7 34.1 7.1 34.6 8.3 34.6 L 10.1 34.6 C 11.3 34.6 11.7 34.1 11.7 32.8 L 11.7 15.4 C 11.7 14.1 11.4 13.6 10.1 13.6 Z " transform="scale(1,-1)" stroke-dasharray="49.72753538209948" stroke-dashoffset="49.72753538209948"><animate attributeName="stroke-dashoffset" from="49.72753538209948" to="0" dur="1.4918260614629844s" begin="anim0.end" fill="freeze" id="anim1" /></path><path d="M 34.1 37.0 L 34.1 40.5 C 34.1 41.5 33.1 42.0 32.3 42.0 C 31.4 42.0 30.5 41.5 30.5 40.5 L 30.5 37.0 L 20.2 37.0 C 19.3 37.0 18.8 36.2 18.8 35.5 C 18.8 34.6 19.3 33.9 20.2 33.9 L 45.2 33.9 C 46.2 33.9 46.7 34.6 46.7 35.5 C 46.7 36.2 46.2 37.0 45.2 37.0 Z " transform="scale(1,-1)" stroke-dasharray="68.149300459408" stroke-dashoffset="68.149300459408"><animate attributeName="stroke-dashoffset" from="68.149300459408" to="0" dur="2.0444790137822397s" begin="anim1.end" fill="freeze" id="anim2" /></path><path d="M 38.0 26.8 C 38.7 27.9 39.3 29.1 40.0 30.6 C 40.2 30.9 40.2 31.2 40.2 31.4 C 40.2 32.4 39.3 33.1 38.4 33.1 C 37.8 33.1 37.1 32.8 36.8 32.0 C 36.1 30.2 35.2 28.5 34.2 26.8 L 22.0 26.8 C 18.8 26.8 17.5 25.1 17.5 22.9 L 17.5 19.5 C 17.5 18.5 18.4 18.0 19.2 18.0 C 20.1 18.0 21.0 18.5 21.0 19.5 L 21.0 22.5 C 21.0 23.3 21.3 23.7 22.8 23.7 L 41.9 23.7 C 43.6 23.7 44.0 23.3 44.0 22.5 L 44.0 19.8 C 44.0 18.8 44.8 18.2 45.7 18.2 C 46.6 18.2 47.4 18.8 47.4 19.8 L 47.4 22.9 C 47.4 25.1 46.1 26.8 42.7 26.8 Z " transform="scale(1,-1)" stroke-dasharray="93.35777016678638" stroke-dashoffset="93.35777016678638"><animate attributeName="stroke-dashoffset" from="93.35777016678638" to="0" dur="2.8007331050035913s" begin="anim2.end" fill="freeze" id="anim3" /></path><path d="M 34.0 16.9 L 34.0 20.6 C 34.0 21.6 33.1 22.1 32.2 22.1 C 31.4 22.1 30.5 21.6 30.5 20.6 L 30.5 16.9 L 26.0 16.9 C 22.2 16.9 20.8 15.4 20.8 12.5 L 20.8 1.1 C 20.8 0.1 21.7 -0.4 22.6 -0.4 C 23.5 -0.4 24.4 0.1 24.4 1.1 L 24.4 11.9 C 24.4 13.2 24.9 14.0 26.8 14.0 L 30.5 14.0 L 30.5 -2.5 C 30.5 -3.6 31.4 -4.0 32.2 -4.0 C 33.1 -4.0 34.0 -3.6 34.0 -2.5 L 34.0 14.0 L 38.4 14.0 C 40.2 14.0 40.8 13.2 40.8 11.9 L 40.8 5.0 C 40.8 3.7 40.4 3.2 39.6 3.2 C 39.1 3.2 38.5 3.3 37.9 3.4 C 36.7 3.6 36.0 2.7 36.0 1.8 C 36.0 1.1 36.4 0.4 37.3 0.2 C 38.2 -0.1 39.0 -0.1 39.8 -0.1 C 43.0 -0.1 44.4 1.3 44.4 4.5 L 44.4 12.5 C 44.4 15.4 43.0 16.9 39.2 16.9 Z " transform="scale(1,-1)" stroke-dasharray="153.36228048692666" stroke-dashoffset="153.36228048692666"><animate attributeName="stroke-dashoffset" from="153.36228048692666" to="0" dur="4.6008684146078s" begin="anim3.end" fill="freeze" id="anim4" /></path><path d="M 27.5 32.4 C 27.1 32.8 26.6 33.0 26.1 33.0 C 25.2 33.0 24.5 32.5 24.5 31.7 C 24.5 31.4 24.6 31.1 24.8 30.8 C 25.4 29.9 25.9 29.0 26.3 28.1 C 26.7 27.4 27.2 27.1 27.9 27.1 C 28.7 27.1 29.6 27.7 29.6 28.7 C 29.6 29.0 29.5 29.2 29.3 29.6 C 28.8 30.6 28.2 31.5 27.5 32.4 Z" transform="scale(1,-1)" stroke-dasharray="16.803579074870704" stroke-dashoffset="16.803579074870704"><animate attributeName="stroke-dashoffset" from="16.803579074870704" to="0" dur="0.5041073722461211s" begin="anim4.end" fill="freeze" id="anim_end" /></path></g></svg>