<?xml version='1.0' encoding='utf-8'?>
<svg viewBox="0 -44.0 50.0 50.0" version="1.1" xmlns="http://www.w3.org/2000/svg"><rect x="-1000" y="-1000" width="2000" height="2000" stroke="white" fill="white" /><g style="fill:none;stroke:#000000;stroke-width:1"><path d="M 31.1 25.8 L 26.2 25.8 C 25.4 25.8 24.9 25.1 24.9 24.3 C 24.9 23.6 25.4 22.9 26.2 22.9 L 31.0 22.9 C 30.6 16.8 28.7 11.6 25.3 7.3 C 25.0 6.9 24.8 6.5 24.8 6.1 C 24.8 5.2 25.5 4.5 26.3 4.5 C 26.8 4.5 27.3 4.8 27.8 5.3 C 30.0 8.1 31.8 11.4 32.9 15.1 C 34.6 12.6 36.3 9.6 37.4 7.3 C 37.9 6.3 38.6 5.9 39.2 5.9 C 40.1 5.9 40.9 6.6 40.9 7.6 C 40.9 8.0 40.8 8.3 40.6 8.8 C 39.0 11.7 36.4 15.6 33.8 18.8 C 34.0 20.2 34.1 21.5 34.2 22.9 L 39.6 22.9 C 40.5 22.9 41.0 23.6 41.0 24.3 C 41.0 25.1 40.5 25.8 39.6 25.8 L 34.4 25.8 L 34.4 32.1 C 34.4 33.2 33.5 33.8 32.6 33.8 C 31.9 33.8 31.1 33.2 31.1 32.1 Z " transform="scale(1,-1)" stroke-dasharray="112.09107763720725" stroke-dashoffset="112.09107763720725"><animate attributeName="stroke-dashoffset" from="112.09107763720725" to="0" dur="3.3627323291162172s" begin="0s; 15s; 30s; 45s; 60s" fill="freeze" id="anim0" /></path><path d="M 40.4 -2.2 C 44.6 -2.2 46.2 -0.4 46.2 3.1 L 46.2 34.1 C 46.2 37.6 44.6 39.4 40.4 39.4 L 25.5 39.4 C 21.3 39.4 19.6 37.6 19.6 34.1 L 19.6 3.1 C 19.7 -1.0 21.8 -2.1 25.5 -2.2 Z " transform="scale(1,-1)" stroke-dasharray="128.23825092318032" stroke-dashoffset="128.23825092318032"><animate attributeName="stroke-dashoffset" from="128.23825092318032" to="0" dur="3.8471475276954092s" begin="anim0.end" fill="freeze" id="anim1" /></path><path d="M 26.2 0.8 C 23.8 0.8 23.0 1.6 23.0 3.5 L 23.0 33.6 C 23.0 35.6 23.8 36.4 26.2 36.4 L 39.7 36.4 C 42.1 36.4 42.9 35.6 42.9 33.6 L 42.9 3.5 C 42.8 1.3 41.8 0.9 39.7 0.8 Z " transform="scale(1,-1)" stroke-dasharray="106.8529100869603" stroke-dashoffset="106.8529100869603"><animate attributeName="stroke-dashoffset" from="106.8529100869603" to="0" dur="3.205587302608809s" begin="anim1.end" fill="freeze" id="anim2" /></path><path d="M 11.1 9.6 C 14.2 9.6 15.6 10.9 15.6 14.0 L 15.6 32.6 C 15.6 35.8 14.2 37.1 11.1 37.1 L 8.0 37.1 C 4.9 37.1 3.5 35.8 3.5 32.6 L 3.5 14.0 C 3.5 10.9 4.8 9.6 8.0 9.6 Z " transform="scale(1,-1)" stroke-dasharray="72.75519659208481" stroke-dashoffset="72.75519659208481"><animate attributeName="stroke-dashoffset" from="72.75519659208481" to="0" dur="2.1826558977625443s" begin="anim2.end" fill="freeze" id="anim3" /></path><path d="M 8.6 12.6 C 7.4 12.6 6.9 13.0 6.9 14.4 L 6.9 32.2 C 6.9 33.6 7.4 34.1 8.6 34.1 L 10.5 34.1 C 11.7 34.1 12.1 33.6 12.1 32.2 L 12.1 14.4 C 12.1 13.1 11.8 12.6 10.5 12.6 Z" transform="scale(1,-1)" stroke-dasharray="51.03437005200623" stroke-dashoffset="51.03437005200623"><animate attributeName="stroke-dashoffset" from="51.03437005200623" to="0" dur="1.531031101560187s" begin="anim3.end" fill="freeze" id="anim_end" /></path></g></svg>