<?xml version='1.0' encoding='utf-8'?>
<svg viewBox="0 -44.0 50.0 50.0" version="1.1" xmlns="http://www.w3.org/2000/svg"><rect x="-1000" y="-1000" width="2000" height="2000" stroke="white" fill="white" /><g style="fill:none;stroke:#000000;stroke-width:1"><path d="M 23.9 -0.9 L 46.0 -0.9 C 47.0 -0.9 47.4 -0.1 47.4 0.7 C 47.4 1.5 47.0 2.2 46.0 2.2 L 35.4 2.2 L 35.4 9.6 L 43.1 9.6 C 44.0 9.6 44.5 10.4 44.5 11.2 C 44.5 11.9 44.0 12.7 43.1 12.7 L 35.4 12.7 L 35.4 19.2 L 43.1 19.2 C 44.0 19.2 44.5 20.0 44.5 20.8 C 44.5 21.5 44.0 22.2 43.1 22.2 L 35.4 22.2 L 35.4 28.7 L 45.0 28.7 C 46.0 28.7 46.5 29.4 46.5 30.2 C 46.5 31.0 46.0 31.7 45.0 31.7 L 35.2 31.7 C 36.5 34.1 37.4 36.5 38.2 39.0 C 38.2 39.2 38.3 39.5 38.3 39.7 C 38.3 40.7 37.4 41.2 36.5 41.2 C 35.8 41.2 35.0 40.9 34.7 39.9 C 34.0 37.1 33.0 34.3 31.8 31.7 L 25.8 31.7 C 25.2 31.7 24.5 31.7 23.9 31.5 C 25.2 34.1 26.2 36.6 27.0 39.2 C 27.1 39.4 27.1 39.7 27.1 39.9 C 27.1 41.0 26.2 41.6 25.3 41.6 C 24.6 41.6 23.7 41.1 23.5 40.1 C 21.9 34.2 19.2 28.5 15.4 23.3 C 15.1 22.9 15.0 22.6 15.0 22.2 C 15.0 21.4 15.7 20.8 16.6 20.8 C 17.1 20.8 17.6 21.0 18.0 21.6 C 18.9 22.8 19.7 24.0 20.5 25.2 L 20.5 -2.7 C 20.5 -3.7 21.4 -4.2 22.2 -4.2 C 23.1 -4.2 23.9 -3.7 23.9 -2.7 Z " transform="scale(1,-1)" stroke-dasharray="229.8007726287484" stroke-dashoffset="229.8007726287484"><animate attributeName="stroke-dashoffset" from="229.8007726287484" to="0" dur="6.894023178862452s" begin="0s; 15s; 30s; 45s; 60s" fill="freeze" id="anim0" /></path><path d="M 23.9 22.2 L 23.9 26.2 C 23.9 28.0 24.6 28.7 26.7 28.7 L 32.1 28.7 L 32.1 22.2 Z " transform="scale(1,-1)" stroke-dasharray="28.492932929973897" stroke-dashoffset="28.492932929973897"><animate attributeName="stroke-dashoffset" from="28.492932929973897" to="0" dur="0.8547879878992168s" begin="anim0.end" fill="freeze" id="anim1" /></path><path d="M 23.9 19.2 L 32.1 19.2 L 32.1 12.7 L 23.9 12.7 Z " transform="scale(1,-1)" stroke-dasharray="29.400000000000006" stroke-dashoffset="29.400000000000006"><animate attributeName="stroke-dashoffset" from="29.400000000000006" to="0" dur="0.8820000000000001s" begin="anim1.end" fill="freeze" id="anim2" /></path><path d="M 23.9 9.6 L 32.1 9.6 L 32.1 2.2 L 23.9 2.2 Z " transform="scale(1,-1)" stroke-dasharray="31.200000000000003" stroke-dashoffset="31.200000000000003"><animate attributeName="stroke-dashoffset" from="31.200000000000003" to="0" dur="0.936s" begin="anim2.end" fill="freeze" id="anim3" /></path><path d="M 7.6 36.2 C 7.2 36.6 6.8 36.6 6.4 36.6 C 5.4 36.6 4.6 35.9 4.6 35.1 C 4.6 34.6 4.9 34.1 5.4 33.6 C 6.7 32.6 8.2 31.2 9.8 29.4 C 10.2 28.9 10.7 28.7 11.2 28.7 C 12.1 28.7 13.0 29.5 13.0 30.5 C 13.0 31.0 12.8 31.5 12.4 31.9 C 10.9 33.6 9.2 35.1 7.6 36.2 Z " transform="scale(1,-1)" stroke-dasharray="24.18895754224574" stroke-dashoffset="24.18895754224574"><animate attributeName="stroke-dashoffset" from="24.18895754224574" to="0" dur="0.7256687262673721s" begin="anim3.end" fill="freeze" id="anim4" /></path><path d="M 11.1 17.8 C 9.2 13.4 6.6 9.0 3.8 5.8 C 3.4 5.3 3.2 4.8 3.2 4.3 C 3.2 3.4 3.9 2.8 4.8 2.8 C 5.4 2.8 6.0 3.0 6.5 3.6 C 9.3 7.1 12.4 11.7 14.4 16.4 C 14.5 16.8 14.6 17.1 14.6 17.4 C 14.6 18.4 13.7 19.1 12.8 19.1 C 12.2 19.1 11.5 18.7 11.1 17.8 Z" transform="scale(1,-1)" stroke-dasharray="41.262430100486995" stroke-dashoffset="41.262430100486995"><animate attributeName="stroke-dashoffset" from="41.262430100486995" to="0" dur="1.2378729030146098s" begin="anim4.end" fill="freeze" id="anim_end" /></path></g></svg>