<?xml version='1.0' encoding='utf-8'?>
<svg viewBox="0 -44.0 50.0 50.0" version="1.1" xmlns="http://www.w3.org/2000/svg"><rect x="-1000" y="-1000" width="2000" height="2000" stroke="white" fill="white" /><g style="fill:none;stroke:#000000;stroke-width:1"><path d="M 15.1 22.0 L 15.1 25.5 L 18.6 25.5 C 19.5 25.5 20.0 26.2 20.0 27.0 C 20.0 27.8 19.5 28.5 18.6 28.5 L 9.2 28.5 C 8.2 28.5 7.8 27.8 7.8 27.0 C 7.8 26.2 8.2 25.5 9.2 25.5 L 11.9 25.5 L 11.9 22.0 L 8.5 22.0 C 5.3 22.0 4.0 20.7 4.0 18.2 L 4.0 14.5 C 4.1 11.6 5.8 10.8 8.5 10.7 L 11.2 10.7 C 10.0 5.5 7.4 2.1 3.9 -0.4 C 3.3 -0.8 3.1 -1.3 3.1 -1.9 C 3.1 -2.7 3.7 -3.5 4.6 -3.5 C 5.0 -3.5 5.4 -3.4 5.8 -3.1 C 8.9 -0.9 11.3 1.9 12.9 5.5 C 14.9 4.2 16.7 2.6 18.0 1.2 C 18.5 0.6 19.1 0.4 19.6 0.4 C 20.5 0.4 21.1 1.1 21.1 2.1 C 21.1 2.6 20.9 3.2 20.4 3.7 C 18.9 5.2 16.4 7.0 14.0 8.3 C 14.2 9.1 14.4 9.9 14.5 10.7 L 18.9 10.7 C 22.2 10.7 23.4 12.1 23.4 14.5 L 23.4 18.2 C 23.4 20.7 22.2 22.0 18.9 22.0 Z " transform="scale(1,-1)" stroke-dasharray="134.2735343464678" stroke-dashoffset="134.2735343464678"><animate attributeName="stroke-dashoffset" from="134.2735343464678" to="0" dur="4.028206030394034s" begin="0s; 15s; 30s; 45s; 60s" fill="freeze" id="anim0" /></path><path d="M 15.0 13.6 C 15.1 14.8 15.1 16.1 15.1 17.4 L 15.1 19.2 L 18.2 19.2 C 19.9 19.2 20.2 18.9 20.2 17.9 L 20.2 14.9 C 20.2 13.6 19.4 13.6 18.2 13.6 Z " transform="scale(1,-1)" stroke-dasharray="20.532067632652364" stroke-dashoffset="20.532067632652364"><animate attributeName="stroke-dashoffset" from="20.532067632652364" to="0" dur="0.6159620289795709s" begin="anim0.end" fill="freeze" id="anim1" /></path><path d="M 11.9 19.2 L 11.9 17.4 C 11.9 16.1 11.9 14.8 11.7 13.6 L 9.2 13.6 C 7.6 13.6 7.2 13.9 7.2 14.9 L 7.2 17.9 C 7.2 18.9 7.6 19.2 9.2 19.2 Z " transform="scale(1,-1)" stroke-dasharray="19.398758201488047" stroke-dashoffset="19.398758201488047"><animate attributeName="stroke-dashoffset" from="19.398758201488047" to="0" dur="0.5819627460446414s" begin="anim1.end" fill="freeze" id="anim2" /></path><path d="M 26.2 38.5 C 25.2 38.5 24.7 37.7 24.7 36.9 C 24.7 36.1 25.2 35.3 26.2 35.3 L 33.6 35.3 C 33.6 33.3 33.5 31.3 33.4 29.3 C 33.3 26.8 33.1 24.2 32.6 21.7 C 31.5 24.1 30.5 26.5 29.6 29.0 C 29.8 29.3 29.9 29.6 30.0 29.9 C 30.1 30.2 30.2 30.4 30.2 30.6 C 30.2 31.5 29.5 32.1 28.7 32.1 C 28.2 32.1 27.7 31.8 27.3 31.0 C 26.4 28.9 24.8 26.2 23.5 24.7 C 23.1 24.2 22.9 23.8 22.9 23.4 C 22.9 22.5 23.6 21.9 24.4 21.9 C 24.9 21.9 25.4 22.1 25.9 22.7 C 26.5 23.6 27.2 24.7 27.9 25.8 C 28.9 22.9 30.2 20.0 31.8 17.3 C 29.9 9.7 26.7 4.4 22.0 -0.1 C 21.5 -0.6 21.3 -1.1 21.3 -1.6 C 21.3 -2.4 22.0 -3.0 22.9 -3.0 C 23.4 -3.0 23.9 -2.8 24.4 -2.3 C 28.8 1.9 32.1 6.8 34.1 13.6 C 36.1 10.7 38.5 8.2 41.0 5.7 C 40.4 2.1 39.1 1.2 37.2 1.2 C 36.3 1.2 35.4 1.4 34.6 1.6 C 33.2 1.9 32.5 0.8 32.5 -0.2 C 32.5 -1.0 32.9 -1.8 33.9 -2.0 C 35.0 -2.3 36.1 -2.4 37.4 -2.4 C 40.6 -2.4 42.9 -0.9 44.0 3.2 C 44.5 2.7 45.1 2.2 45.7 1.8 C 46.2 1.5 46.7 1.3 47.1 1.3 C 48.0 1.3 48.7 2.1 48.7 3.0 C 48.7 3.6 48.3 4.3 47.5 4.9 C 46.5 5.6 45.6 6.2 44.6 7.0 C 45.6 14.1 46.2 24.2 46.2 33.5 C 46.2 36.7 44.4 38.5 40.2 38.5 Z " transform="scale(1,-1)" stroke-dasharray="210.864533011023" stroke-dashoffset="210.864533011023"><animate attributeName="stroke-dashoffset" from="210.864533011023" to="0" dur="6.32593599033069s" begin="anim2.end" fill="freeze" id="anim3" /></path><path d="M 40.0 35.3 C 42.1 35.3 42.8 34.7 42.8 32.9 C 42.8 28.6 42.6 24.2 42.3 20.0 C 42.1 16.6 41.9 13.2 41.5 9.8 C 39.2 12.1 37.0 14.6 35.1 17.4 C 35.8 20.0 36.1 22.6 36.5 25.2 C 36.8 28.6 36.8 32.0 36.9 35.3 Z " transform="scale(1,-1)" stroke-dasharray="58.56665095114976" stroke-dashoffset="58.56665095114976"><animate attributeName="stroke-dashoffset" from="58.56665095114976" to="0" dur="1.7569995285344928s" begin="anim3.end" fill="freeze" id="anim4" /></path><path d="M 15.4 38.5 C 15.6 38.9 15.7 39.2 15.7 39.6 C 15.7 40.6 14.8 41.2 13.9 41.2 C 13.2 41.2 12.7 41.0 12.4 40.4 C 10.0 35.9 6.0 31.4 2.5 28.7 C 1.9 28.2 1.6 27.7 1.6 27.2 C 1.6 26.3 2.4 25.6 3.3 25.6 C 3.7 25.6 4.0 25.7 4.5 26.0 C 7.6 28.4 11.0 31.8 13.7 35.8 C 16.4 34.0 18.9 31.9 20.4 30.1 C 20.9 29.4 21.6 29.2 22.1 29.2 C 23.0 29.2 23.8 29.9 23.8 30.9 C 23.8 31.4 23.5 32.1 23.0 32.6 C 21.1 34.6 18.1 36.8 15.3 38.4 Z" transform="scale(1,-1)" stroke-dasharray="65.4745318880234" stroke-dashoffset="65.4745318880234"><animate attributeName="stroke-dashoffset" from="65.4745318880234" to="0" dur="1.9642359566407022s" begin="anim4.end" fill="freeze" id="anim_end" /></path></g></svg>