<?xml version='1.0' encoding='utf-8'?>
<svg viewBox="0 -44.0 50.0 50.0" version="1.1" xmlns="http://www.w3.org/2000/svg"><rect x="-1000" y="-1000" width="2000" height="2000" stroke="white" fill="white" /><g style="fill:none;stroke:#000000;stroke-width:1"><path d="M 38.3 30.2 C 41.5 30.2 43.0 31.3 43.0 33.8 L 43.0 38.8 C 43.0 39.8 42.1 40.3 41.2 40.3 C 40.4 40.3 39.5 39.8 39.5 38.8 L 39.5 34.5 C 39.5 33.5 39.1 33.1 37.4 33.1 L 26.6 33.1 L 26.6 40.7 C 26.6 41.8 25.7 42.3 24.8 42.3 C 24.0 42.3 23.1 41.8 23.1 40.7 L 23.1 33.1 L 12.9 33.1 C 11.1 33.1 10.8 33.5 10.8 34.5 L 10.8 38.8 C 10.8 39.8 9.9 40.3 9.0 40.3 C 8.2 40.3 7.2 39.8 7.2 38.8 L 7.2 33.8 C 7.2 31.3 8.8 30.2 11.9 30.2 L 23.0 30.2 C 17.9 24.5 10.2 18.9 2.9 15.7 C 2.0 15.3 1.6 14.7 1.6 14.1 C 1.6 13.2 2.2 12.6 3.2 12.6 C 3.6 12.6 3.9 12.6 4.2 12.8 C 11.7 16.0 19.4 21.6 25.0 27.5 C 30.3 21.6 38.2 16.2 45.5 13.6 C 45.8 13.5 46.1 13.4 46.3 13.4 C 47.5 13.4 48.2 14.3 48.2 15.2 C 48.2 16.0 47.8 16.7 46.7 17.1 C 39.5 19.6 32.1 24.1 26.8 29.7 C 26.9 29.9 26.9 30.1 27.0 30.2 Z " transform="scale(1,-1)" stroke-dasharray="224.33496908918258" stroke-dashoffset="224.33496908918258"><animate attributeName="stroke-dashoffset" from="224.33496908918258" to="0" dur="6.730049072675477s" begin="0s; 15s; 30s; 45s; 60s" fill="freeze" id="anim0" /></path><path d="M 21.5 9.4 L 21.5 -3.0 C 21.5 -4.0 22.4 -4.5 23.2 -4.5 C 24.2 -4.5 25.1 -4.0 25.1 -3.0 L 25.1 9.4 L 34.1 9.4 C 35.6 9.4 36.1 9.1 36.1 8.0 L 36.1 4.1 C 36.1 2.9 35.8 2.6 34.8 2.6 C 34.1 2.6 33.6 2.7 33.0 2.8 C 31.8 3.0 31.0 2.1 31.0 1.2 C 31.0 0.5 31.5 -0.2 32.4 -0.5 C 33.1 -0.6 34.1 -0.7 35.2 -0.7 C 37.9 -0.7 39.7 0.5 39.7 3.9 L 39.7 8.3 C 39.7 11.0 38.3 12.4 35.1 12.4 L 9.7 12.4 C 8.8 12.4 8.2 11.7 8.2 10.9 C 8.2 10.2 8.8 9.4 9.7 9.4 Z " transform="scale(1,-1)" stroke-dasharray="118.8562934632203" stroke-dashoffset="118.8562934632203"><animate attributeName="stroke-dashoffset" from="118.8562934632203" to="0" dur="3.5656888038966086s" begin="anim0.end" fill="freeze" id="anim1" /></path><path d="M 30.8 16.4 C 31.8 16.4 32.2 17.2 32.2 17.9 C 32.2 18.7 31.8 19.4 30.8 19.4 L 18.8 19.4 C 17.8 19.4 17.3 18.7 17.3 17.9 C 17.3 17.2 17.8 16.4 18.8 16.4 Z" transform="scale(1,-1)" stroke-dasharray="33.39189072192769" stroke-dashoffset="33.39189072192769"><animate attributeName="stroke-dashoffset" from="33.39189072192769" to="0" dur="1.0017567216578307s" begin="anim1.end" fill="freeze" id="anim_end" /></path></g></svg>