<?xml version='1.0' encoding='utf-8'?>
<svg viewBox="0 -44.0 50.0 50.0" version="1.1" xmlns="http://www.w3.org/2000/svg"><rect x="-1000" y="-1000" width="2000" height="2000" stroke="white" fill="white" /><g style="fill:none;stroke:#000000;stroke-width:1"><path d="M 28.4 12.2 C 30.8 12.2 32.0 13.3 32.0 15.6 L 32.0 19.5 C 32.0 21.7 30.8 23.0 28.4 23.0 L 25.3 23.0 C 22.9 23.0 21.7 21.7 21.7 19.5 L 21.7 15.6 C 21.7 13.2 23.0 12.2 25.3 12.2 Z " transform="scale(1,-1)" stroke-dasharray="36.84451681772483" stroke-dashoffset="36.84451681772483"><animate attributeName="stroke-dashoffset" from="36.84451681772483" to="0" dur="1.1053355045317448s" begin="0s; 15s; 30s; 45s; 60s" fill="freeze" id="anim0" /></path><path d="M 25.9 14.8 C 25.0 14.8 24.7 15.1 24.7 16.0 L 24.7 19.1 C 24.7 20.0 25.0 20.3 25.9 20.3 L 27.8 20.3 C 28.7 20.3 29.0 20.0 29.0 19.1 L 29.0 16.0 C 29.0 15.2 28.7 14.8 27.8 14.8 Z " transform="scale(1,-1)" stroke-dasharray="17.964121592845814" stroke-dashoffset="17.964121592845814"><animate attributeName="stroke-dashoffset" from="17.964121592845814" to="0" dur="0.5389236477853744s" begin="anim0.end" fill="freeze" id="anim1" /></path><path d="M 41.7 12.2 C 44.1 12.2 45.3 13.4 45.3 15.6 L 45.3 19.5 C 45.3 21.7 44.1 23.0 41.7 23.0 L 38.4 23.0 C 36.0 23.0 34.8 21.7 34.8 19.5 L 34.8 15.6 C 34.8 13.2 36.1 12.2 38.4 12.2 Z " transform="scale(1,-1)" stroke-dasharray="37.220023870494586" stroke-dashoffset="37.220023870494586"><animate attributeName="stroke-dashoffset" from="37.220023870494586" to="0" dur="1.1166007161148375s" begin="anim1.end" fill="freeze" id="anim2" /></path><path d="M 39.1 14.8 C 38.1 14.8 37.8 15.2 37.8 16.0 L 37.8 19.1 C 37.8 20.0 38.1 20.3 39.1 20.3 L 41.1 20.3 C 42.0 20.3 42.3 20.0 42.3 19.1 L 42.3 16.0 C 42.3 15.2 42.0 14.8 41.1 14.8 Z " transform="scale(1,-1)" stroke-dasharray="18.31840452428223" stroke-dashoffset="18.31840452428223"><animate attributeName="stroke-dashoffset" from="18.31840452428223" to="0" dur="0.5495521357284668s" begin="anim2.end" fill="freeze" id="anim3" /></path><path d="M 26.1 3.6 C 27.2 2.7 28.4 1.5 29.2 0.6 C 29.6 0.1 30.1 -0.2 30.5 -0.2 C 31.3 -0.2 32.0 0.6 32.0 1.5 C 32.0 1.9 31.9 2.4 31.4 2.9 C 30.4 3.9 29.1 5.1 27.6 6.1 C 28.0 6.9 28.4 7.7 28.8 8.5 C 28.9 8.8 29.0 9.1 29.0 9.3 C 29.0 10.2 28.2 10.9 27.3 10.9 C 26.7 10.9 26.1 10.5 25.7 9.7 C 24.2 6.1 21.6 2.6 18.7 -0.2 C 18.2 -0.7 17.9 -1.2 17.9 -1.6 C 17.9 -2.4 18.6 -3.0 19.5 -3.0 C 20.0 -3.0 20.5 -2.9 20.9 -2.4 C 22.8 -0.7 24.6 1.4 26.1 3.6 Z " transform="scale(1,-1)" stroke-dasharray="48.906619677408855" stroke-dashoffset="48.906619677408855"><animate attributeName="stroke-dashoffset" from="48.906619677408855" to="0" dur="1.4671985903222655s" begin="anim3.end" fill="freeze" id="anim4" /></path><path d="M 12.6 7.3 L 12.6 39.0 C 12.6 40.0 11.8 40.4 11.0 40.4 C 10.2 40.4 9.4 40.0 9.4 39.0 L 9.4 7.3 L 8.2 7.3 C 7.1 7.3 6.8 7.7 6.8 9.1 L 6.8 31.0 C 6.8 32.0 6.0 32.5 5.2 32.5 C 4.4 32.5 3.6 32.0 3.6 31.0 L 3.6 8.6 C 3.6 5.5 5.2 4.3 8.1 4.3 L 14.1 4.3 C 16.9 4.3 18.6 5.5 18.6 8.6 L 18.6 31.0 C 18.6 32.0 17.8 32.5 16.9 32.5 C 16.2 32.5 15.4 32.0 15.4 31.0 L 15.4 9.1 C 15.4 7.7 15.1 7.3 13.9 7.3 Z " transform="scale(1,-1)" stroke-dasharray="194.94399714480775" stroke-dashoffset="194.94399714480775"><animate attributeName="stroke-dashoffset" from="194.94399714480775" to="0" dur="5.848319914344232s" begin="anim4.end" fill="freeze" id="anim5" /></path><path d="M 38.8 3.2 C 40.5 1.7 42.1 0.1 43.6 -1.9 C 44.1 -2.5 44.6 -2.7 45.1 -2.7 C 45.9 -2.7 46.7 -2.0 46.7 -1.0 C 46.7 -0.5 46.5 0.1 46.0 0.6 C 44.5 2.3 42.3 4.2 40.2 5.8 C 40.7 6.7 41.1 7.6 41.4 8.5 C 41.5 8.8 41.6 9.0 41.6 9.2 C 41.6 10.2 40.7 10.8 39.9 10.8 C 39.2 10.8 38.6 10.4 38.3 9.6 C 37.0 6.0 34.9 2.5 32.1 -0.4 C 31.7 -0.9 31.5 -1.3 31.5 -1.7 C 31.5 -2.6 32.2 -3.2 33.1 -3.2 C 33.5 -3.2 34.0 -3.0 34.5 -2.5 C 36.1 -0.9 37.5 1.1 38.8 3.2 Z " transform="scale(1,-1)" stroke-dasharray="53.90556330322842" stroke-dashoffset="53.90556330322842"><animate attributeName="stroke-dashoffset" from="53.90556330322842" to="0" dur="1.6171668990968524s" begin="anim5.end" fill="freeze" id="anim6" /></path><path d="M 33.4 36.5 C 37.0 32.0 41.2 28.2 45.6 25.6 C 46.0 25.3 46.4 25.2 46.8 25.2 C 47.8 25.2 48.6 26.0 48.6 27.0 C 48.6 27.6 48.2 28.2 47.4 28.7 C 43.1 31.2 38.6 34.9 35.1 39.0 C 35.2 39.3 35.3 39.6 35.3 39.8 C 35.3 40.7 34.5 41.4 33.5 41.4 C 32.9 41.4 32.2 41.1 31.8 40.3 C 28.9 35.6 24.5 30.7 20.1 27.4 C 19.5 26.9 19.2 26.4 19.2 25.9 C 19.2 25.0 20.0 24.2 20.9 24.2 C 21.2 24.2 21.7 24.4 22.2 24.8 C 26.2 27.8 30.2 32.0 33.4 36.5 Z " transform="scale(1,-1)" stroke-dasharray="84.17598713468358" stroke-dashoffset="84.17598713468358"><animate attributeName="stroke-dashoffset" from="84.17598713468358" to="0" dur="2.525279614040507s" begin="anim6.end" fill="freeze" id="anim7" /></path><path d="M 38.1 25.6 C 39.1 25.6 39.5 26.3 39.5 27.1 C 39.5 27.9 39.1 28.6 38.1 28.6 L 29.2 28.6 C 28.2 28.6 27.7 27.9 27.7 27.1 C 27.7 26.3 28.2 25.6 29.2 25.6 Z" transform="scale(1,-1)" stroke-dasharray="27.233148144500902" stroke-dashoffset="27.233148144500902"><animate attributeName="stroke-dashoffset" from="27.233148144500902" to="0" dur="0.816994444335027s" begin="anim7.end" fill="freeze" id="anim_end" /></path></g></svg>