<?xml version='1.0' encoding='utf-8'?>
<svg viewBox="0 -44.0 50.0 50.0" version="1.1" xmlns="http://www.w3.org/2000/svg"><rect x="-1000" y="-1000" width="2000" height="2000" stroke="white" fill="white" /><g style="fill:none;stroke:#000000;stroke-width:1"><path d="M 33.9 26.1 C 37.7 26.1 39.2 27.5 39.2 30.4 L 39.2 35.8 C 39.2 38.7 37.7 40.2 33.9 40.2 L 23.0 40.2 C 19.2 40.2 17.7 38.7 17.7 35.8 L 17.7 30.4 C 17.8 26.9 19.8 26.2 23.0 26.1 Z " transform="scale(1,-1)" stroke-dasharray="64.19637938973679" stroke-dashoffset="64.19637938973679"><animate attributeName="stroke-dashoffset" from="64.19637938973679" to="0" dur="1.9258913816921037s" begin="0s; 15s; 30s; 45s; 60s" fill="freeze" id="anim0" /></path><path d="M 23.6 29.1 C 21.6 29.1 21.1 29.4 21.1 30.7 L 21.1 35.5 C 21.1 36.8 21.6 37.2 23.6 37.2 L 33.2 37.2 C 35.2 37.2 35.8 36.8 35.8 35.5 L 35.8 30.7 C 35.7 29.0 34.6 29.1 33.2 29.1 Z " transform="scale(1,-1)" stroke-dasharray="43.02604113728123" stroke-dashoffset="43.02604113728123"><animate attributeName="stroke-dashoffset" from="43.02604113728123" to="0" dur="1.290781234118437s" begin="anim0.end" fill="freeze" id="anim1" /></path><path d="M 40.8 12.4 L 40.8 17.2 C 40.8 19.7 39.4 21.0 35.8 21.0 L 14.2 21.0 C 12.4 21.0 11.8 21.4 11.8 22.9 L 11.8 37.5 C 11.8 38.5 10.9 39.1 10.0 39.1 C 9.1 39.1 8.2 38.5 8.2 37.5 L 8.2 22.3 C 8.2 19.2 10.1 17.9 13.6 17.9 L 35.1 17.9 C 36.9 17.9 37.2 17.6 37.2 16.6 L 37.2 12.4 L 3.8 12.4 C 2.9 12.4 2.4 11.7 2.4 10.9 C 2.4 10.1 2.9 9.3 3.8 9.3 L 46.2 9.3 C 47.2 9.3 47.7 10.1 47.7 10.9 C 47.7 11.7 47.2 12.4 46.2 12.4 Z " transform="scale(1,-1)" stroke-dasharray="199.7130682122686" stroke-dashoffset="199.7130682122686"><animate attributeName="stroke-dashoffset" from="199.7130682122686" to="0" dur="5.991392046368058s" begin="anim1.end" fill="freeze" id="anim2" /></path><path d="M 16.7 7.0 C 13.5 4.0 9.0 1.4 5.2 -0.2 C 4.2 -0.7 3.9 -1.3 3.9 -2.0 C 3.9 -2.8 4.5 -3.5 5.5 -3.5 C 5.8 -3.5 6.1 -3.5 6.4 -3.3 C 10.7 -1.6 15.7 1.5 19.2 4.5 C 19.7 5.0 19.9 5.4 19.9 5.9 C 19.9 6.8 19.1 7.6 18.1 7.6 C 17.6 7.6 17.1 7.4 16.7 7.0 Z " transform="scale(1,-1)" stroke-dasharray="40.35145199517625" stroke-dashoffset="40.35145199517625"><animate attributeName="stroke-dashoffset" from="40.35145199517625" to="0" dur="1.2105435598552874s" begin="anim2.end" fill="freeze" id="anim3" /></path><path d="M 33.2 7.1 C 32.7 7.5 32.2 7.6 31.8 7.6 C 30.9 7.6 30.2 6.9 30.2 6.1 C 30.2 5.6 30.4 5.1 31.0 4.6 C 34.1 2.0 38.8 -1.0 43.1 -3.0 C 43.5 -3.2 43.9 -3.3 44.2 -3.3 C 45.4 -3.3 46.0 -2.5 46.0 -1.6 C 46.0 -0.9 45.6 -0.2 44.6 0.3 C 40.4 2.1 36.1 4.9 33.2 7.1 Z" transform="scale(1,-1)" stroke-dasharray="39.76753208585738" stroke-dashoffset="39.76753208585738"><animate attributeName="stroke-dashoffset" from="39.76753208585738" to="0" dur="1.1930259625757214s" begin="anim3.end" fill="freeze" id="anim_end" /></path></g></svg>