<?xml version='1.0' encoding='utf-8'?>
<svg viewBox="0 -44.0 50.0 50.0" version="1.1" xmlns="http://www.w3.org/2000/svg"><rect x="-1000" y="-1000" width="2000" height="2000" stroke="white" fill="white" /><g style="fill:none;stroke:#000000;stroke-width:1"><path d="M 12.1 10.4 C 15.4 10.4 16.9 11.7 16.9 15.0 L 16.9 33.1 C 16.9 36.4 15.4 37.7 12.1 37.7 L 8.6 37.7 C 5.2 37.7 3.8 36.4 3.8 33.1 L 3.8 15.0 C 3.8 11.6 5.3 10.4 8.6 10.4 Z " transform="scale(1,-1)" stroke-dasharray="74.09528770796517" stroke-dashoffset="74.09528770796517"><animate attributeName="stroke-dashoffset" from="74.09528770796517" to="0" dur="2.222858631238955s" begin="0s; 15s; 30s; 45s; 60s" fill="freeze" id="anim0" /></path><path d="M 9.2 13.5 C 7.8 13.5 7.4 14.0 7.4 15.4 L 7.4 32.6 C 7.4 34.1 7.8 34.6 9.2 34.6 L 11.4 34.6 C 12.8 34.6 13.2 34.1 13.2 32.6 L 13.2 15.4 C 13.2 14.0 12.9 13.5 11.4 13.5 Z " transform="scale(1,-1)" stroke-dasharray="51.353855195240996" stroke-dashoffset="51.353855195240996"><animate attributeName="stroke-dashoffset" from="51.353855195240996" to="0" dur="1.54061565585723s" begin="anim0.end" fill="freeze" id="anim1" /></path><path d="M 46.2 18.9 C 47.2 18.9 47.6 19.7 47.6 20.4 C 47.6 21.2 47.2 22.0 46.2 22.0 L 34.0 22.0 L 34.0 29.6 L 43.1 29.6 C 44.1 29.6 44.5 30.4 44.5 31.2 C 44.5 32.0 44.1 32.8 43.1 32.8 L 34.0 32.8 L 34.0 40.2 C 34.0 41.3 33.1 41.9 32.2 41.9 C 31.4 41.9 30.5 41.3 30.5 40.2 L 30.5 32.8 L 22.4 32.8 C 21.5 32.8 21.0 32.0 21.0 31.2 C 21.0 30.4 21.5 29.6 22.4 29.6 L 30.5 29.6 L 30.5 22.0 L 20.3 22.0 C 19.4 22.0 18.9 21.2 18.9 20.4 C 18.9 19.7 19.4 18.9 20.3 18.9 L 29.0 18.9 C 25.2 13.1 19.7 7.5 14.1 3.9 C 13.3 3.5 13.0 2.9 13.0 2.3 C 13.0 1.5 13.7 0.8 14.7 0.8 C 15.0 0.8 15.5 0.9 15.9 1.2 C 21.9 5.1 27.5 10.9 30.7 15.9 L 30.5 8.5 L 30.5 -2.6 C 30.5 -3.7 31.4 -4.2 32.2 -4.2 C 33.1 -4.2 34.0 -3.7 34.0 -2.6 L 34.0 8.5 L 33.7 16.2 C 36.4 11.2 40.9 5.6 45.0 2.1 C 45.4 1.7 45.9 1.5 46.4 1.5 C 47.4 1.5 48.2 2.4 48.2 3.4 C 48.2 4.0 47.9 4.5 47.2 5.1 C 43.1 8.4 38.3 13.6 35.1 18.9 Z" transform="scale(1,-1)" stroke-dasharray="264.8264803572354" stroke-dashoffset="264.8264803572354"><animate attributeName="stroke-dashoffset" from="264.8264803572354" to="0" dur="7.944794410717062s" begin="anim1.end" fill="freeze" id="anim_end" /></path></g></svg>