<?xml version='1.0' encoding='utf-8'?>
<svg viewBox="0 -44.0 50.0 50.0" version="1.1" xmlns="http://www.w3.org/2000/svg"><rect x="-1000" y="-1000" width="2000" height="2000" stroke="white" fill="white" /><g style="fill:none;stroke:#000000;stroke-width:1"><path d="M 24.0 17.4 L 24.0 4.9 C 21.8 4.4 19.6 4.0 17.8 3.7 C 16.8 3.6 16.2 2.8 16.2 2.0 C 16.2 1.1 17.0 0.1 18.2 0.3 C 22.5 1.0 29.1 2.5 33.1 4.0 C 33.9 4.2 34.2 4.9 34.2 5.5 C 34.2 6.3 33.6 7.1 32.7 7.1 C 32.5 7.1 32.3 7.1 32.1 7.0 C 30.8 6.5 29.1 6.1 27.4 5.6 L 27.4 17.4 L 31.0 17.4 C 32.0 17.4 32.5 18.2 32.5 19.0 C 32.5 19.8 32.0 20.6 31.0 20.6 L 20.4 20.6 C 19.4 20.6 18.9 19.8 18.9 19.0 C 18.9 18.2 19.4 17.4 20.4 17.4 Z " transform="scale(1,-1)" stroke-dasharray="89.1406084303437" stroke-dashoffset="89.1406084303437"><animate attributeName="stroke-dashoffset" from="89.1406084303437" to="0" dur="2.674218252910311s" begin="0s; 15s; 30s; 45s; 60s" fill="freeze" id="anim0" /></path><path d="M 12.3 14.7 C 13.8 15.3 15.2 15.9 16.4 16.5 C 17.2 16.9 17.6 17.5 17.6 18.1 C 17.6 18.9 16.9 19.6 16.1 19.6 C 15.8 19.6 15.6 19.5 15.2 19.4 C 14.4 19.0 13.4 18.6 12.3 18.2 L 12.3 27.9 L 16.9 27.9 C 17.9 27.9 18.4 28.7 18.4 29.5 C 18.4 30.2 17.9 31.0 16.9 31.0 L 12.3 31.0 L 12.3 39.9 C 12.3 41.0 11.4 41.5 10.6 41.5 C 9.7 41.5 8.8 41.0 8.8 39.9 L 8.8 31.0 L 3.8 31.0 C 2.8 31.0 2.4 30.2 2.4 29.5 C 2.4 28.7 2.8 27.9 3.8 27.9 L 8.8 27.9 L 8.8 16.8 C 7.0 16.2 5.1 15.6 3.2 15.1 C 2.1 14.9 1.7 14.1 1.7 13.4 C 1.7 12.5 2.3 11.7 3.4 11.7 C 3.6 11.7 3.8 11.7 4.0 11.8 C 5.6 12.2 7.2 12.7 8.8 13.3 L 8.8 2.2 C 8.8 0.7 8.2 0.2 7.1 0.2 C 6.5 0.2 5.8 0.4 5.1 0.5 C 3.7 0.8 2.9 -0.2 2.9 -1.2 C 2.9 -2.0 3.4 -2.7 4.5 -3.0 C 5.5 -3.2 6.6 -3.2 7.2 -3.2 C 10.6 -3.2 12.3 -1.8 12.3 1.9 Z " transform="scale(1,-1)" stroke-dasharray="148.19135402419502" stroke-dashoffset="148.19135402419502"><animate attributeName="stroke-dashoffset" from="148.19135402419502" to="0" dur="4.44574062072585s" begin="anim0.end" fill="freeze" id="anim1" /></path><path d="M 21.8 31.0 C 20.9 31.0 20.4 30.2 20.4 29.5 C 20.4 28.7 20.9 27.9 21.8 27.9 L 33.4 27.9 C 33.6 20.6 34.2 15.2 35.1 11.3 C 37.3 1.2 40.2 -2.8 43.4 -2.8 C 45.8 -2.8 47.6 -0.4 48.1 5.1 C 48.2 6.4 47.4 7.1 46.6 7.1 C 45.8 7.1 45.0 6.5 44.9 5.4 C 44.5 1.8 43.9 1.1 43.2 1.1 C 42.3 1.1 40.4 3.5 38.5 12.1 C 37.8 15.7 37.1 20.9 36.9 27.9 L 45.9 27.9 C 46.9 27.9 47.3 28.7 47.3 29.5 C 47.3 30.2 46.9 31.0 45.9 31.0 L 36.8 31.0 C 36.7 33.7 36.7 36.7 36.7 39.9 C 36.7 41.0 35.8 41.5 34.9 41.5 C 34.0 41.5 33.1 41.0 33.1 40.0 C 33.1 36.8 33.1 33.8 33.2 31.0 Z " transform="scale(1,-1)" stroke-dasharray="156.3848203743093" stroke-dashoffset="156.3848203743093"><animate attributeName="stroke-dashoffset" from="156.3848203743093" to="0" dur="4.691544611229279s" begin="anim1.end" fill="freeze" id="anim2" /></path><path d="M 41.7 39.4 C 41.3 39.8 40.9 39.9 40.5 39.9 C 39.6 39.9 38.8 39.2 38.8 38.4 C 38.8 38.1 39.0 37.6 39.3 37.3 C 40.3 36.3 41.2 35.0 41.9 34.1 C 42.4 33.4 42.9 33.1 43.5 33.1 C 44.3 33.1 45.1 33.9 45.1 34.9 C 45.1 35.2 44.9 35.7 44.6 36.1 C 43.8 37.4 42.6 38.7 41.7 39.4 Z" transform="scale(1,-1)" stroke-dasharray="19.553112496574116" stroke-dashoffset="19.553112496574116"><animate attributeName="stroke-dashoffset" from="19.553112496574116" to="0" dur="0.5865933748972234s" begin="anim2.end" fill="freeze" id="anim_end" /></path></g></svg>