<?xml version='1.0' encoding='utf-8'?>
<svg viewBox="0 -44.0 50.0 50.0" version="1.1" xmlns="http://www.w3.org/2000/svg"><rect x="-1000" y="-1000" width="2000" height="2000" stroke="white" fill="white" /><g style="fill:none;stroke:#000000;stroke-width:1"><path d="M 26.4 26.6 C 24.2 22.4 20.7 19.1 15.9 16.6 C 15.0 16.1 14.7 15.4 14.7 14.8 C 14.7 14.0 15.3 13.2 16.2 13.2 C 16.6 13.2 16.9 13.4 17.3 13.6 C 23.0 16.7 27.2 20.8 29.8 26.1 C 33.1 20.5 38.8 15.7 45.4 13.1 C 45.7 13.0 46.0 12.9 46.2 12.9 C 47.2 12.9 47.9 13.8 47.9 14.7 C 47.9 15.4 47.5 16.1 46.6 16.4 C 41.1 18.6 36.1 22.2 32.9 26.6 L 45.3 26.6 C 46.3 26.6 46.8 27.4 46.8 28.2 C 46.8 29.0 46.3 29.7 45.3 29.7 L 31.2 29.7 C 31.7 31.6 32.1 33.4 32.2 35.3 C 35.3 35.9 38.3 36.6 40.9 37.3 C 42.0 37.6 42.5 38.4 42.5 39.1 C 42.5 40.0 41.8 40.8 40.7 40.8 C 40.5 40.8 40.2 40.8 40.0 40.7 C 34.2 38.9 26.5 37.6 20.1 36.9 C 19.0 36.8 18.5 36.1 18.5 35.3 C 18.5 34.4 19.2 33.6 20.5 33.6 C 23.1 33.9 26.0 34.2 28.9 34.7 C 28.7 33.0 28.2 31.3 27.7 29.7 L 16.4 29.7 C 15.5 29.7 15.0 29.0 15.0 28.2 C 15.0 27.4 15.5 26.6 16.4 26.6 Z " transform="scale(1,-1)" stroke-dasharray="199.81843001958342" stroke-dashoffset="199.81843001958342"><animate attributeName="stroke-dashoffset" from="199.81843001958342" to="0" dur="5.994552900587502s" begin="0s; 15s; 30s; 45s; 60s" fill="freeze" id="anim0" /></path><path d="M 25.9 1.6 C 25.9 0.2 25.5 -0.2 24.6 -0.2 C 24.0 -0.2 23.4 -0.2 22.6 0.0 C 21.4 0.2 20.7 -0.7 20.7 -1.7 C 20.7 -2.5 21.1 -3.2 22.2 -3.5 C 23.1 -3.6 24.0 -3.7 24.9 -3.7 C 27.6 -3.7 29.4 -2.4 29.4 0.9 L 29.4 15.9 C 29.4 16.9 28.5 17.4 27.6 17.4 C 26.8 17.4 25.9 16.9 25.9 15.9 Z " transform="scale(1,-1)" stroke-dasharray="54.62104068980743" stroke-dashoffset="54.62104068980743"><animate attributeName="stroke-dashoffset" from="54.62104068980743" to="0" dur="1.6386312206942228s" begin="anim0.end" fill="freeze" id="anim1" /></path><path d="M 35.0 10.7 C 34.5 11.3 33.9 11.6 33.4 11.6 C 32.6 11.6 31.9 10.9 31.9 10.1 C 31.9 9.8 32.0 9.4 32.1 9.1 C 33.1 7.6 34.4 5.1 35.2 2.9 C 35.6 1.9 36.2 1.5 37.0 1.5 C 37.9 1.5 38.7 2.2 38.7 3.4 C 38.7 3.8 38.6 4.1 38.5 4.5 C 37.5 6.6 36.1 9.0 35.0 10.7 Z " transform="scale(1,-1)" stroke-dasharray="25.750879112626954" stroke-dashoffset="25.750879112626954"><animate attributeName="stroke-dashoffset" from="25.750879112626954" to="0" dur="0.7725263733788086s" begin="anim1.end" fill="freeze" id="anim2" /></path><path d="M 42.3 11.3 C 41.9 11.9 41.3 12.1 40.8 12.1 C 40.0 12.1 39.2 11.5 39.2 10.6 C 39.2 10.2 39.4 9.9 39.7 9.5 C 40.8 8.1 42.5 5.4 43.6 3.2 C 43.9 2.4 44.6 2.0 45.2 2.0 C 46.1 2.0 47.0 2.8 47.0 3.9 C 47.0 4.2 46.9 4.7 46.6 5.1 C 45.5 7.1 43.7 9.8 42.3 11.3 Z " transform="scale(1,-1)" stroke-dasharray="26.726333877038957" stroke-dashoffset="26.726333877038957"><animate attributeName="stroke-dashoffset" from="26.726333877038957" to="0" dur="0.8017900163111686s" begin="anim2.end" fill="freeze" id="anim3" /></path><path d="M 8.7 40.3 C 8.3 40.6 8.0 40.7 7.6 40.7 C 6.7 40.7 5.8 39.9 5.8 39.0 C 5.8 38.5 6.1 38.0 6.7 37.5 C 7.7 36.6 9.2 35.2 10.3 33.8 C 10.8 33.2 11.3 33.0 11.9 33.0 C 12.8 33.0 13.6 33.8 13.6 34.9 C 13.6 35.4 13.5 35.9 13.0 36.4 C 12.0 37.6 10.1 39.4 8.7 40.3 Z " transform="scale(1,-1)" stroke-dasharray="23.06624830976176" stroke-dashoffset="23.06624830976176"><animate attributeName="stroke-dashoffset" from="23.06624830976176" to="0" dur="0.6919874492928528s" begin="anim3.end" fill="freeze" id="anim4" /></path><path d="M 9.6 13.2 C 8.3 8.9 6.1 3.8 3.9 0.5 C 3.6 0.1 3.5 -0.4 3.5 -0.8 C 3.5 -1.8 4.2 -2.5 5.2 -2.5 C 5.8 -2.5 6.5 -2.1 7.0 -1.4 C 9.2 2.2 11.7 7.8 13.0 12.2 C 13.1 12.5 13.2 12.7 13.2 13.0 C 13.2 14.1 12.3 14.7 11.4 14.7 C 10.7 14.7 9.9 14.2 9.6 13.2 Z " transform="scale(1,-1)" stroke-dasharray="41.235911069807585" stroke-dashoffset="41.235911069807585"><animate attributeName="stroke-dashoffset" from="41.235911069807585" to="0" dur="1.2370773320942274s" begin="anim4.end" fill="freeze" id="anim5" /></path><path d="M 5.2 28.2 C 4.9 28.5 4.4 28.7 4.0 28.7 C 3.1 28.7 2.2 27.9 2.2 27.0 C 2.2 26.5 2.5 26.0 3.1 25.5 C 4.1 24.8 5.9 23.3 7.2 21.9 C 7.6 21.4 8.1 21.2 8.6 21.2 C 9.5 21.2 10.3 22.0 10.3 23.0 C 10.3 23.5 10.1 24.1 9.7 24.6 C 8.5 25.9 6.6 27.4 5.2 28.2 Z " transform="scale(1,-1)" stroke-dasharray="23.20760845378206" stroke-dashoffset="23.20760845378206"><animate attributeName="stroke-dashoffset" from="23.20760845378206" to="0" dur="0.6962282536134619s" begin="anim5.end" fill="freeze" id="anim6" /></path><path d="M 19.2 9.8 C 18.3 7.9 17.2 6.1 15.9 4.4 C 15.5 3.9 15.4 3.4 15.4 3.0 C 15.4 2.1 16.0 1.4 16.9 1.4 C 17.4 1.4 18.1 1.7 18.6 2.4 C 20.0 4.0 21.4 6.4 22.2 8.2 C 22.4 8.6 22.5 9.0 22.5 9.3 C 22.5 10.3 21.7 11.0 20.8 11.0 C 20.2 11.0 19.6 10.6 19.2 9.8 Z" transform="scale(1,-1)" stroke-dasharray="25.136344212027048" stroke-dashoffset="25.136344212027048"><animate attributeName="stroke-dashoffset" from="25.136344212027048" to="0" dur="0.7540903263608114s" begin="anim6.end" fill="freeze" id="anim_end" /></path></g></svg>