<?xml version='1.0' encoding='utf-8'?>
<svg viewBox="0 -44.0 50.0 50.0" version="1.1" xmlns="http://www.w3.org/2000/svg"><rect x="-1000" y="-1000" width="2000" height="2000" stroke="white" fill="white" /><g style="fill:none;stroke:#000000;stroke-width:1"><path d="M 31.0 26.5 L 31.0 16.5 L 22.4 16.5 C 21.5 16.5 21.0 15.7 21.0 14.9 C 21.0 14.1 21.5 13.3 22.4 13.3 L 31.0 13.3 L 31.0 1.2 L 17.8 1.2 C 16.8 1.2 16.3 0.5 16.3 -0.4 C 16.3 -1.2 16.8 -2.0 17.8 -2.0 L 46.4 -2.0 C 47.4 -2.0 47.9 -1.2 47.9 -0.4 C 47.9 0.5 47.4 1.2 46.4 1.2 L 34.6 1.2 L 34.6 13.3 L 43.3 13.3 C 44.3 13.3 44.8 14.1 44.8 14.9 C 44.8 15.7 44.3 16.5 43.3 16.5 L 34.6 16.5 L 34.6 26.5 L 45.5 26.5 C 46.5 26.5 46.9 27.2 46.9 28.0 C 46.9 28.8 46.5 29.6 45.5 29.6 L 34.6 29.6 L 34.6 40.0 C 34.6 41.0 33.7 41.5 32.8 41.5 C 31.9 41.5 31.0 41.0 31.0 40.0 L 31.0 29.6 L 24.7 29.6 C 25.4 31.5 26.0 33.6 26.4 35.4 C 26.7 36.8 25.8 37.6 24.8 37.6 C 24.0 37.6 23.2 37.1 23.0 36.1 C 22.1 31.5 20.1 26.2 18.2 23.0 C 17.9 22.6 17.8 22.2 17.8 21.9 C 17.8 20.9 18.6 20.3 19.4 20.3 C 20.0 20.3 20.7 20.7 21.2 21.5 C 22.0 22.8 22.8 24.6 23.6 26.5 Z " transform="scale(1,-1)" stroke-dasharray="255.50470344872218" stroke-dashoffset="255.50470344872218"><animate attributeName="stroke-dashoffset" from="255.50470344872218" to="0" dur="7.665141103461665s" begin="0s; 15s; 30s; 45s; 60s" fill="freeze" id="anim0" /></path><path d="M 11.8 40.4 C 11.8 41.4 11.0 42.0 10.1 42.0 C 9.2 42.0 8.3 41.4 8.3 40.4 L 8.3 -2.4 C 8.3 -3.4 9.2 -3.9 10.1 -3.9 C 11.0 -3.9 11.8 -3.4 11.8 -2.4 Z " transform="scale(1,-1)" stroke-dasharray="96.06552583604028" stroke-dashoffset="96.06552583604028"><animate attributeName="stroke-dashoffset" from="96.06552583604028" to="0" dur="2.881965775081208s" begin="anim0.end" fill="freeze" id="anim1" /></path><path d="M 3.6 29.6 C 3.3 27.2 2.7 24.4 2.0 22.6 C 1.9 22.3 1.9 22.1 1.9 21.9 C 1.9 21.0 2.5 20.4 3.2 20.4 C 3.9 20.4 4.5 20.8 4.9 21.7 C 5.6 23.5 6.2 26.6 6.6 29.2 C 6.7 30.4 5.9 31.0 5.1 31.0 C 4.4 31.0 3.7 30.6 3.6 29.6 Z " transform="scale(1,-1)" stroke-dasharray="25.039862284228814" stroke-dashoffset="25.039862284228814"><animate attributeName="stroke-dashoffset" from="25.039862284228814" to="0" dur="0.7511958685268644s" begin="anim1.end" fill="freeze" id="anim2" /></path><path d="M 15.8 31.5 C 15.4 32.0 14.9 32.2 14.4 32.2 C 13.7 32.2 13.0 31.8 13.0 31.0 C 13.0 30.7 13.1 30.4 13.2 30.1 C 13.8 29.1 14.6 27.2 15.0 25.9 C 15.2 25.0 15.8 24.6 16.4 24.6 C 17.2 24.6 17.9 25.2 17.9 26.2 C 17.9 26.5 17.9 26.8 17.8 27.0 C 17.4 28.4 16.6 30.2 15.8 31.5 Z" transform="scale(1,-1)" stroke-dasharray="19.47067773954592" stroke-dashoffset="19.47067773954592"><animate attributeName="stroke-dashoffset" from="19.47067773954592" to="0" dur="0.5841203321863776s" begin="anim2.end" fill="freeze" id="anim_end" /></path></g></svg>