<?xml version='1.0' encoding='utf-8'?>
<svg viewBox="0 -44.0 50.0 50.0" version="1.1" xmlns="http://www.w3.org/2000/svg"><rect x="-1000" y="-1000" width="2000" height="2000" stroke="white" fill="white" /><g style="fill:none;stroke:#000000;stroke-width:1"><path d="M 37.6 -2.2 C 42.1 -2.2 43.5 -0.6 43.5 2.7 L 43.5 11.3 C 43.5 14.5 42.1 16.2 37.6 16.2 L 27.1 16.2 C 22.7 16.2 21.3 14.5 21.3 11.3 L 21.3 2.7 C 21.4 -1.3 23.5 -2.2 27.1 -2.2 Z " transform="scale(1,-1)" stroke-dasharray="73.61270209297895" stroke-dashoffset="73.61270209297895"><animate attributeName="stroke-dashoffset" from="73.61270209297895" to="0" dur="2.2083810627893685s" begin="0s; 15s; 30s; 45s; 60s" fill="freeze" id="anim0" /></path><path d="M 27.7 0.9 C 25.4 0.9 24.9 1.5 24.9 3.1 L 24.9 10.9 C 24.9 12.5 25.4 13.1 27.7 13.1 L 37.1 13.1 C 39.4 13.1 39.9 12.5 39.9 10.9 L 39.9 3.1 C 39.8 1.1 38.9 0.9 37.1 0.9 Z " transform="scale(1,-1)" stroke-dasharray="51.18430283239188" stroke-dashoffset="51.18430283239188"><animate attributeName="stroke-dashoffset" from="51.18430283239188" to="0" dur="1.5355290849717562s" begin="anim0.end" fill="freeze" id="anim1" /></path><path d="M 40.0 26.6 C 35.4 25.8 30.7 25.4 26.1 25.0 C 28.2 29.4 30.3 34.5 31.8 38.9 C 31.9 39.2 31.9 39.4 31.9 39.6 C 31.9 40.7 31.0 41.4 30.0 41.4 C 29.2 41.4 28.4 41.0 28.1 40.0 C 26.8 35.3 24.6 29.5 22.1 24.8 C 21.2 24.7 20.5 24.7 19.7 24.6 C 18.4 24.6 17.9 23.7 17.9 22.9 C 17.9 21.9 18.6 21.0 19.9 21.1 C 27.0 21.5 34.4 22.5 42.0 23.9 C 42.6 23.0 43.2 22.0 43.7 21.1 C 44.1 20.4 44.8 20.0 45.4 20.0 C 46.4 20.0 47.2 20.8 47.2 21.8 C 47.2 22.2 47.2 22.6 46.9 23.1 C 44.9 26.3 41.9 30.0 39.6 32.1 C 39.2 32.6 38.7 32.8 38.1 32.8 C 37.2 32.8 36.4 32.1 36.4 31.3 C 36.4 31.0 36.6 30.6 36.9 30.2 C 37.9 29.2 38.9 28.0 40.0 26.6 Z " transform="scale(1,-1)" stroke-dasharray="113.52100703654499" stroke-dashoffset="113.52100703654499"><animate attributeName="stroke-dashoffset" from="113.52100703654499" to="0" dur="3.4056302110963497s" begin="anim1.end" fill="freeze" id="anim2" /></path><path d="M 12.2 40.4 C 12.2 41.4 11.3 42.0 10.5 42.0 C 9.6 42.0 8.7 41.4 8.7 40.4 L 8.7 -2.2 C 8.7 -3.3 9.6 -3.8 10.5 -3.8 C 11.3 -3.8 12.2 -3.3 12.2 -2.2 Z " transform="scale(1,-1)" stroke-dasharray="95.79571291666556" stroke-dashoffset="95.79571291666556"><animate attributeName="stroke-dashoffset" from="95.79571291666556" to="0" dur="2.8738713874999666s" begin="anim2.end" fill="freeze" id="anim3" /></path><path d="M 3.8 29.7 C 3.5 27.1 2.9 24.3 2.1 22.6 C 2.0 22.2 2.0 22.0 2.0 21.8 C 2.0 20.9 2.6 20.3 3.4 20.3 C 4.0 20.3 4.7 20.7 5.1 21.6 C 5.8 23.4 6.5 26.5 6.8 29.2 C 7.0 30.5 6.1 31.1 5.3 31.1 C 4.6 31.1 3.9 30.6 3.8 29.7 Z " transform="scale(1,-1)" stroke-dasharray="25.547774351465907" stroke-dashoffset="25.547774351465907"><animate attributeName="stroke-dashoffset" from="25.547774351465907" to="0" dur="0.7664332305439772s" begin="anim3.end" fill="freeze" id="anim4" /></path><path d="M 16.2 31.8 C 15.9 32.3 15.3 32.6 14.8 32.6 C 14.1 32.6 13.4 32.0 13.4 31.2 C 13.4 31.0 13.5 30.7 13.7 30.3 C 14.2 29.4 15.1 27.4 15.5 26.1 C 15.7 25.2 16.3 24.8 16.9 24.8 C 17.7 24.8 18.4 25.5 18.4 26.5 C 18.4 26.8 18.4 27.0 18.3 27.3 C 17.9 28.7 17.0 30.5 16.2 31.8 Z" transform="scale(1,-1)" stroke-dasharray="19.787105312425645" stroke-dashoffset="19.787105312425645"><animate attributeName="stroke-dashoffset" from="19.787105312425645" to="0" dur="0.5936131593727694s" begin="anim4.end" fill="freeze" id="anim_end" /></path></g></svg>