<?xml version='1.0' encoding='utf-8'?>
<svg viewBox="0 -44.0 50.0 50.0" version="1.1" xmlns="http://www.w3.org/2000/svg"><rect x="-1000" y="-1000" width="2000" height="2000" stroke="white" fill="white" /><g style="fill:none;stroke:#000000;stroke-width:1"><path d="M 37.9 -1.3 C 42.9 -1.3 44.7 0.6 44.7 4.8 L 44.7 32.1 C 44.7 36.2 42.9 38.1 37.9 38.1 L 25.5 38.1 C 20.5 38.1 18.8 36.2 18.8 32.1 L 18.8 4.8 C 18.9 -0.1 21.1 -1.2 25.5 -1.3 Z " transform="scale(1,-1)" stroke-dasharray="121.5411859207434" stroke-dashoffset="121.5411859207434"><animate attributeName="stroke-dashoffset" from="121.5411859207434" to="0" dur="3.646235577622302s" begin="0s; 15s; 30s; 45s; 60s" fill="freeze" id="anim0" /></path><path d="M 26.2 2.0 C 23.1 2.0 22.5 2.8 22.5 5.2 L 22.5 17.5 L 41.0 17.5 L 41.0 5.2 C 40.9 2.4 39.9 2.1 37.2 2.0 Z " transform="scale(1,-1)" stroke-dasharray="65.77012259253948" stroke-dashoffset="65.77012259253948"><animate attributeName="stroke-dashoffset" from="65.77012259253948" to="0" dur="1.9731036777761843s" begin="anim0.end" fill="freeze" id="anim1" /></path><path d="M 41.0 20.7 L 22.5 20.7 L 22.5 31.6 C 22.5 34.1 23.1 34.9 26.2 34.9 L 37.2 34.9 C 40.3 34.9 41.0 34.1 41.0 31.6 Z " transform="scale(1,-1)" stroke-dasharray="63.1968682261994" stroke-dashoffset="63.1968682261994"><animate attributeName="stroke-dashoffset" from="63.1968682261994" to="0" dur="1.8959060467859818s" begin="anim1.end" fill="freeze" id="anim2" /></path><path d="M 6.7 -0.9 C 6.7 -2.0 7.7 -2.6 8.6 -2.6 C 9.5 -2.6 10.4 -2.0 10.4 -0.9 L 10.4 37.6 C 10.4 38.8 9.5 39.4 8.6 39.4 C 7.7 39.4 6.7 38.8 6.7 37.6 Z" transform="scale(1,-1)" stroke-dasharray="88.38562947646362" stroke-dashoffset="88.38562947646362"><animate attributeName="stroke-dashoffset" from="88.38562947646362" to="0" dur="2.6515688842939085s" begin="anim2.end" fill="freeze" id="anim_end" /></path></g></svg>