<?xml version='1.0' encoding='utf-8'?>
<svg viewBox="0 -44.0 50.0 50.0" version="1.1" xmlns="http://www.w3.org/2000/svg"><rect x="-1000" y="-1000" width="2000" height="2000" stroke="white" fill="white" /><g style="fill:none;stroke:#000000;stroke-width:1"><path d="M 39.8 -3.0 C 43.4 -3.0 45.1 -1.7 45.1 1.7 L 45.1 17.7 C 45.1 21.2 43.4 22.4 39.8 22.4 L 36.1 22.4 C 36.5 23.9 36.8 25.4 37.1 27.0 L 46.9 27.0 C 47.9 27.0 48.4 27.7 48.4 28.5 C 48.4 29.2 47.9 30.0 46.9 30.0 L 37.7 30.0 C 37.9 31.1 38.1 32.1 38.2 33.2 C 38.4 34.5 37.5 35.2 36.5 35.2 C 35.8 35.2 35.0 34.7 34.9 33.7 C 34.7 32.5 34.5 31.2 34.3 30.0 L 24.2 30.0 L 24.2 34.1 C 30.7 34.9 37.1 36.2 42.5 38.1 C 43.5 38.4 43.9 39.1 43.9 39.8 C 43.9 40.7 43.2 41.5 42.2 41.5 C 42.0 41.5 41.7 41.5 41.4 41.4 C 36.4 39.6 30.2 38.1 23.8 37.1 C 23.4 37.5 22.9 37.7 22.4 37.7 C 21.6 37.7 20.7 37.1 20.7 36.1 L 20.7 25.2 C 20.7 13.1 19.3 6.7 16.2 0.8 C 16.0 0.4 15.9 -0.1 15.9 -0.4 C 15.9 -1.3 16.6 -1.9 17.4 -1.9 C 18.1 -1.9 18.7 -1.6 19.2 -0.8 C 22.5 5.5 24.2 12.6 24.2 24.8 L 24.2 27.0 L 33.8 27.0 C 33.5 25.5 33.1 23.9 32.8 22.4 L 32.0 22.4 C 28.4 22.4 26.8 21.2 26.8 17.7 L 26.8 1.7 C 26.9 -2.0 28.8 -2.9 32.1 -3.0 Z " transform="scale(1,-1)" stroke-dasharray="263.64844912688517" stroke-dashoffset="263.64844912688517"><animate attributeName="stroke-dashoffset" from="263.64844912688517" to="0" dur="7.909453473806555s" begin="0s; 15s; 30s; 45s; 60s" fill="freeze" id="anim0" /></path><path d="M 32.7 0.1 C 30.9 0.1 30.2 0.5 30.2 2.2 L 30.2 5.0 L 41.7 5.0 L 41.7 2.2 C 41.7 0.4 40.9 0.1 39.2 0.1 Z " transform="scale(1,-1)" stroke-dasharray="31.306817025185204" stroke-dashoffset="31.306817025185204"><animate attributeName="stroke-dashoffset" from="31.306817025185204" to="0" dur="0.9392045107555561s" begin="anim0.end" fill="freeze" id="anim1" /></path><path d="M 30.2 12.2 L 41.7 12.2 L 41.7 7.9 L 30.2 7.9 Z " transform="scale(1,-1)" stroke-dasharray="31.600000000000005" stroke-dashoffset="31.600000000000005"><animate attributeName="stroke-dashoffset" from="31.600000000000005" to="0" dur="0.9480000000000001s" begin="anim1.end" fill="freeze" id="anim2" /></path><path d="M 41.7 15.2 L 30.2 15.2 L 30.2 17.4 C 30.2 19.1 30.9 19.5 32.7 19.5 L 39.2 19.5 C 41.1 19.5 41.7 19.1 41.7 17.4 Z " transform="scale(1,-1)" stroke-dasharray="30.123451011737792" stroke-dashoffset="30.123451011737792"><animate attributeName="stroke-dashoffset" from="30.123451011737792" to="0" dur="0.9037035303521337s" begin="anim2.end" fill="freeze" id="anim3" /></path><path d="M 8.7 30.7 L 3.2 30.7 C 2.2 30.7 1.8 29.9 1.8 29.2 C 1.8 28.4 2.2 27.7 3.2 27.7 L 8.2 27.7 C 6.7 21.2 4.4 15.0 1.5 10.6 C 1.2 10.2 1.1 9.8 1.1 9.5 C 1.1 8.6 1.8 8.1 2.5 8.1 C 3.1 8.1 3.6 8.3 4.0 9.0 C 6.0 12.1 7.7 15.9 8.9 19.7 L 8.7 9.3 L 8.7 -2.9 C 8.7 -3.9 9.5 -4.4 10.3 -4.4 C 11.2 -4.4 12.0 -3.9 12.0 -2.9 L 12.0 19.2 C 13.1 18.2 14.2 16.8 14.9 15.7 C 15.4 15.0 15.9 14.8 16.4 14.8 C 17.2 14.8 17.9 15.4 17.9 16.3 C 17.9 16.8 17.8 17.2 17.4 17.7 C 16.1 19.6 14.2 21.3 12.0 22.9 L 12.0 27.7 L 16.0 27.7 C 16.9 27.7 17.4 28.4 17.4 29.2 C 17.4 29.9 16.9 30.7 16.0 30.7 L 12.0 30.7 L 12.0 40.6 C 12.0 41.6 11.2 42.1 10.3 42.1 C 9.5 42.1 8.7 41.6 8.7 40.6 Z" transform="scale(1,-1)" stroke-dasharray="160.34963243412068" stroke-dashoffset="160.34963243412068"><animate attributeName="stroke-dashoffset" from="160.34963243412068" to="0" dur="4.81048897302362s" begin="anim3.end" fill="freeze" id="anim_end" /></path></g></svg>