<?xml version='1.0' encoding='utf-8'?>
<svg viewBox="0 -44.0 50.0 50.0" version="1.1" xmlns="http://www.w3.org/2000/svg"><rect x="-1000" y="-1000" width="2000" height="2000" stroke="white" fill="white" /><g style="fill:none;stroke:#000000;stroke-width:1"><path d="M 12.8 32.5 L 9.5 32.5 C 6.2 32.5 5.0 31.4 5.0 29.1 L 5.0 23.5 C 5.0 21.2 6.1 20.0 9.3 20.0 L 12.8 20.0 L 12.8 17.7 L 3.8 17.7 C 2.9 17.7 2.4 16.9 2.4 16.2 C 2.4 15.6 2.9 14.9 3.8 14.9 L 12.8 14.9 L 12.8 11.7 C 12.8 10.7 13.6 10.2 14.4 10.2 C 15.2 10.2 16.0 10.7 16.0 11.7 L 16.0 14.9 L 23.2 14.9 C 24.1 14.9 24.6 15.6 24.6 16.2 C 24.6 16.9 24.1 17.7 23.2 17.7 L 16.0 17.7 L 16.0 20.0 L 19.6 20.0 C 22.8 20.0 24.1 21.2 24.1 23.5 L 24.1 29.1 C 24.1 31.4 22.8 32.5 19.6 32.5 L 16.0 32.5 L 16.0 34.8 L 24.6 34.8 C 25.5 34.8 26.0 35.5 26.0 36.2 C 26.0 36.9 25.5 37.6 24.6 37.6 L 16.0 37.6 L 16.0 40.4 C 16.0 41.4 15.2 41.8 14.4 41.8 C 13.6 41.8 12.8 41.4 12.8 40.4 L 12.8 37.6 L 4.5 37.6 C 3.6 37.6 3.2 36.9 3.2 36.2 C 3.2 35.5 3.6 34.8 4.5 34.8 L 12.8 34.8 Z " transform="scale(1,-1)" stroke-dasharray="165.80102620414627" stroke-dashoffset="165.80102620414627"><animate attributeName="stroke-dashoffset" from="165.80102620414627" to="0" dur="4.974030786124388s" begin="0s; 15s; 30s; 45s; 60s" fill="freeze" id="anim0" /></path><path d="M 12.8 30.0 L 12.8 27.5 L 8.2 27.5 L 8.2 28.7 C 8.2 29.7 8.5 30.0 10.0 30.0 Z " transform="scale(1,-1)" stroke-dasharray="13.731480917532812" stroke-dashoffset="13.731480917532812"><animate attributeName="stroke-dashoffset" from="13.731480917532812" to="0" dur="0.4119444275259843s" begin="anim0.end" fill="freeze" id="anim1" /></path><path d="M 8.2 25.1 L 12.8 25.1 L 12.8 22.6 L 10.0 22.6 C 8.5 22.6 8.2 22.9 8.2 23.9 Z " transform="scale(1,-1)" stroke-dasharray="13.731480917532814" stroke-dashoffset="13.731480917532814"><animate attributeName="stroke-dashoffset" from="13.731480917532814" to="0" dur="0.41194442752598437s" begin="anim1.end" fill="freeze" id="anim2" /></path><path d="M 16.0 22.6 L 16.0 25.1 L 20.9 25.1 L 20.9 23.9 C 20.9 22.7 20.1 22.6 19.0 22.6 Z " transform="scale(1,-1)" stroke-dasharray="14.284767951790595" stroke-dashoffset="14.284767951790595"><animate attributeName="stroke-dashoffset" from="14.284767951790595" to="0" dur="0.42854303855371784s" begin="anim2.end" fill="freeze" id="anim3" /></path><path d="M 20.9 27.5 L 16.0 27.5 L 16.0 30.0 L 19.0 30.0 C 20.6 30.0 20.9 29.7 20.9 28.7 Z " transform="scale(1,-1)" stroke-dasharray="14.323802327210418" stroke-dashoffset="14.323802327210418"><animate attributeName="stroke-dashoffset" from="14.323802327210418" to="0" dur="0.4297140698163125s" begin="anim3.end" fill="freeze" id="anim4" /></path><path d="M 32.3 29.5 L 32.3 29.7 L 32.3 33.7 C 36.1 34.6 40.0 35.9 43.1 37.4 C 44.0 37.8 44.4 38.4 44.4 39.1 C 44.4 39.9 43.6 40.7 42.6 40.7 C 42.2 40.7 41.9 40.7 41.6 40.5 C 38.7 39.0 35.3 37.8 31.9 36.8 C 31.6 37.1 31.1 37.3 30.6 37.3 C 29.8 37.3 28.9 36.8 28.9 35.7 L 28.9 29.8 C 28.9 22.5 27.5 17.9 24.6 14.4 C 24.2 13.9 24.0 13.4 24.0 13.0 C 24.0 12.1 24.7 11.5 25.6 11.5 C 26.1 11.5 26.7 11.7 27.2 12.3 C 30.1 15.7 31.8 20.3 32.2 26.6 L 37.7 26.6 L 37.7 12.4 C 37.7 11.4 38.6 10.8 39.4 10.8 C 40.2 10.8 41.1 11.4 41.1 12.4 L 41.1 26.6 L 46.4 26.6 C 47.4 26.6 47.9 27.3 47.9 28.1 C 47.9 28.8 47.4 29.5 46.4 29.5 Z " transform="scale(1,-1)" stroke-dasharray="142.7214842871688" stroke-dashoffset="142.7214842871688"><animate attributeName="stroke-dashoffset" from="142.7214842871688" to="0" dur="4.281644528615064s" begin="anim4.end" fill="freeze" id="anim5" /></path><path d="M 14.6 0.8 C 14.6 -2.4 15.9 -3.2 24.8 -3.2 C 34.1 -3.2 36.5 -1.9 37.0 2.9 C 37.1 4.0 36.1 4.8 35.2 4.8 C 34.5 4.8 33.6 4.2 33.6 3.2 C 33.2 0.3 32.4 -0.2 24.8 -0.2 C 18.6 -0.2 18.1 0.2 18.1 1.7 L 18.1 7.7 C 18.1 8.7 17.2 9.2 16.3 9.2 C 15.5 9.2 14.6 8.7 14.6 7.7 Z " transform="scale(1,-1)" stroke-dasharray="69.71572020240988" stroke-dashoffset="69.71572020240988"><animate attributeName="stroke-dashoffset" from="69.71572020240988" to="0" dur="2.0914716060722967s" begin="anim5.end" fill="freeze" id="anim6" /></path><path d="M 7.5 6.9 C 6.7 4.9 5.5 3.1 4.3 1.7 C 3.9 1.2 3.8 0.8 3.8 0.3 C 3.8 -0.6 4.5 -1.3 5.5 -1.3 C 6.1 -1.3 6.6 -1.1 7.1 -0.5 C 8.3 1.0 9.8 3.4 10.6 5.5 C 10.8 5.8 10.8 6.1 10.8 6.4 C 10.8 7.4 10.0 8.0 9.2 8.0 C 8.5 8.0 7.9 7.7 7.5 6.9 Z " transform="scale(1,-1)" stroke-dasharray="24.696745443097097" stroke-dashoffset="24.696745443097097"><animate attributeName="stroke-dashoffset" from="24.696745443097097" to="0" dur="0.7409023632929129s" begin="anim6.end" fill="freeze" id="anim7" /></path><path d="M 41.2 8.0 C 40.8 8.4 40.2 8.6 39.8 8.6 C 38.9 8.6 38.1 8.0 38.1 7.1 C 38.1 6.8 38.3 6.3 38.7 5.9 C 40.1 4.5 41.6 2.7 42.5 1.2 C 43.0 0.4 43.7 0.1 44.2 0.1 C 45.2 0.1 46.0 0.9 46.0 1.9 C 46.0 2.2 45.9 2.7 45.6 3.2 C 44.5 4.8 42.7 6.7 41.2 8.0 Z " transform="scale(1,-1)" stroke-dasharray="24.352769318838522" stroke-dashoffset="24.352769318838522"><animate attributeName="stroke-dashoffset" from="24.352769318838522" to="0" dur="0.7305830795651557s" begin="anim7.end" fill="freeze" id="anim8" /></path><path d="M 24.8 9.9 C 24.5 10.2 24.1 10.2 23.7 10.2 C 22.8 10.2 22.0 9.5 22.0 8.7 C 22.0 8.2 22.2 7.9 22.7 7.5 C 23.7 6.8 25.1 5.6 26.1 4.5 C 26.5 4.1 27.0 3.9 27.4 3.9 C 28.3 3.9 29.2 4.7 29.2 5.6 C 29.2 6.1 29.0 6.6 28.5 7.0 C 27.2 8.2 26.0 9.1 24.8 9.9 Z" transform="scale(1,-1)" stroke-dasharray="20.183843914712657" stroke-dashoffset="20.183843914712657"><animate attributeName="stroke-dashoffset" from="20.183843914712657" to="0" dur="0.6055153174413797s" begin="anim8.end" fill="freeze" id="anim_end" /></path></g></svg>