<?xml version='1.0' encoding='utf-8'?>
<svg viewBox="0 -44.0 50.0 50.0" version="1.1" xmlns="http://www.w3.org/2000/svg"><rect x="-1000" y="-1000" width="2000" height="2000" stroke="white" fill="white" /><g style="fill:none;stroke:#000000;stroke-width:1"><path d="M 6.2 35.6 C 5.8 36.0 5.4 36.1 5.0 36.1 C 4.2 36.1 3.6 35.5 3.6 34.7 C 3.6 34.4 3.8 34.0 4.1 33.6 C 5.4 32.3 6.7 30.9 8.4 28.7 C 7.9 27.9 7.4 27.2 6.9 26.5 C 5.9 26.4 4.9 26.4 3.9 26.3 C 2.9 26.3 2.5 25.7 2.5 25.0 C 2.5 24.2 3.0 23.5 4.0 23.6 C 5.7 23.7 7.4 23.8 9.2 23.9 L 9.2 12.4 C 9.2 11.5 9.9 11.0 10.6 11.0 C 11.4 11.0 12.1 11.5 12.1 12.4 L 12.1 24.2 C 13.1 24.4 14.2 24.5 15.2 24.7 C 15.4 24.4 15.5 24.1 15.6 23.8 C 15.9 23.1 16.4 22.8 16.9 22.8 C 17.7 22.8 18.4 23.3 18.4 24.2 C 18.4 24.4 18.3 24.6 18.2 24.9 C 17.6 26.3 16.6 28.2 15.7 29.5 C 15.4 30.0 14.9 30.2 14.5 30.2 C 13.8 30.2 13.1 29.7 13.1 29.1 C 13.1 28.9 13.2 28.6 13.4 28.4 C 13.7 28.0 13.9 27.5 14.2 27.0 C 12.8 26.9 11.5 26.8 10.1 26.7 C 11.8 28.8 13.5 31.8 15.0 34.6 C 15.2 35.0 15.2 35.2 15.2 35.5 C 15.2 36.3 14.6 36.8 13.9 36.8 C 13.3 36.8 12.8 36.5 12.4 35.9 C 11.7 34.3 10.9 32.8 10.0 31.2 C 9.5 32.0 8.8 32.6 8.2 33.3 C 9.3 35.0 10.5 37.0 11.5 39.0 C 11.6 39.2 11.7 39.6 11.7 39.8 C 11.7 40.7 11.0 41.2 10.2 41.2 C 9.7 41.2 9.1 40.9 8.8 40.2 C 7.9 38.2 7.2 36.9 6.2 35.5 Z " transform="scale(1,-1)" stroke-dasharray="117.77817360640157" stroke-dashoffset="117.77817360640157"><animate attributeName="stroke-dashoffset" from="117.77817360640157" to="0" dur="3.533345208192047s" begin="0s; 15s; 30s; 45s; 60s" fill="freeze" id="anim0" /></path><path d="M 26.7 12.3 C 29.4 12.3 30.4 13.4 30.4 15.4 L 30.4 18.5 C 30.4 20.6 29.4 21.6 26.7 21.6 L 22.9 21.6 C 20.2 21.6 19.2 20.6 19.2 18.5 L 19.2 15.4 C 19.2 13.0 20.7 12.4 22.9 12.3 Z " transform="scale(1,-1)" stroke-dasharray="36.068851090969964" stroke-dashoffset="36.068851090969964"><animate attributeName="stroke-dashoffset" from="36.068851090969964" to="0" dur="1.0820655327290989s" begin="anim0.end" fill="freeze" id="anim1" /></path><path d="M 23.2 14.8 C 22.4 14.8 22.1 15.1 22.1 15.8 L 22.1 18.1 C 22.1 18.9 22.4 19.1 23.2 19.1 L 26.2 19.1 C 27.2 19.1 27.5 18.9 27.5 18.1 L 27.5 15.8 C 27.5 15.0 27.0 14.8 26.2 14.8 Z " transform="scale(1,-1)" stroke-dasharray="17.920758546406812" stroke-dashoffset="17.920758546406812"><animate attributeName="stroke-dashoffset" from="17.920758546406812" to="0" dur="0.5376227563922044s" begin="anim1.end" fill="freeze" id="anim2" /></path><path d="M 38.1 12.4 C 38.1 11.5 38.8 11.0 39.5 11.0 C 40.2 11.0 41.0 11.5 41.0 12.4 L 41.0 24.2 C 42.1 24.3 43.2 24.5 44.4 24.7 C 44.6 24.4 44.7 24.1 44.8 23.8 C 45.0 23.1 45.6 22.8 46.1 22.8 C 46.8 22.8 47.5 23.3 47.5 24.2 C 47.5 24.4 47.5 24.6 47.4 24.9 C 46.8 26.3 45.8 28.2 44.9 29.5 C 44.5 30.0 44.1 30.2 43.6 30.2 C 42.9 30.2 42.2 29.7 42.2 29.1 C 42.2 28.9 42.4 28.6 42.5 28.4 C 42.8 28.0 43.1 27.5 43.3 27.0 C 41.9 26.8 40.5 26.7 39.1 26.6 C 40.7 28.9 42.4 31.8 43.9 34.6 C 44.1 35.0 44.1 35.2 44.1 35.5 C 44.1 36.3 43.5 36.8 42.8 36.8 C 42.2 36.8 41.7 36.5 41.3 35.9 C 40.6 34.4 39.9 32.9 39.0 31.5 C 38.4 32.1 37.8 32.9 37.1 33.6 C 38.2 35.2 39.2 37.1 40.2 39.0 C 40.4 39.2 40.4 39.6 40.4 39.8 C 40.4 40.7 39.7 41.2 39.0 41.2 C 38.4 41.2 37.8 40.9 37.5 40.2 C 36.7 38.3 36.1 37.1 35.1 35.7 C 34.8 36.0 34.5 36.1 34.1 36.1 C 33.4 36.1 32.8 35.5 32.8 34.7 C 32.8 34.4 32.9 34.0 33.2 33.6 C 34.5 32.4 35.8 30.9 37.4 28.9 C 36.9 28.0 36.3 27.2 35.8 26.4 C 34.9 26.4 34.1 26.4 33.3 26.3 C 32.3 26.3 31.9 25.7 31.9 25.0 C 31.9 24.2 32.4 23.5 33.4 23.6 C 34.9 23.7 36.5 23.8 38.1 23.9 Z " transform="scale(1,-1)" stroke-dasharray="115.95261491560882" stroke-dashoffset="115.95261491560882"><animate attributeName="stroke-dashoffset" from="115.95261491560882" to="0" dur="3.4785784474682644s" begin="anim2.end" fill="freeze" id="anim3" /></path><path d="M 5.2 21.0 C 4.7 19.1 3.9 16.8 3.1 15.4 C 3.0 15.1 2.9 14.8 2.9 14.6 C 2.9 13.8 3.6 13.3 4.2 13.3 C 4.8 13.3 5.4 13.6 5.8 14.2 C 6.6 16.0 7.5 18.2 7.9 20.2 C 8.2 21.4 7.3 22.1 6.5 22.1 C 5.9 22.1 5.4 21.7 5.2 21.0 Z " transform="scale(1,-1)" stroke-dasharray="21.722259899712046" stroke-dashoffset="21.722259899712046"><animate attributeName="stroke-dashoffset" from="21.722259899712046" to="0" dur="0.6516677969913613s" begin="anim3.end" fill="freeze" id="anim4" /></path><path d="M 15.7 21.4 C 15.4 22.1 14.9 22.4 14.4 22.4 C 13.7 22.4 13.1 21.9 13.1 21.1 C 13.1 21.0 13.1 20.8 13.2 20.6 C 13.8 19.1 14.4 17.3 14.7 15.9 C 14.8 15.2 15.4 14.9 16.0 14.9 C 16.8 14.9 17.6 15.5 17.4 16.8 C 17.1 18.1 16.4 20.0 15.7 21.4 Z " transform="scale(1,-1)" stroke-dasharray="18.698039675056933" stroke-dashoffset="18.698039675056933"><animate attributeName="stroke-dashoffset" from="18.698039675056933" to="0" dur="0.560941190251708s" begin="anim4.end" fill="freeze" id="anim5" /></path><path d="M 28.9 37.3 C 29.7 37.3 30.1 38.0 30.1 38.6 C 30.1 39.3 29.7 40.0 28.9 40.0 L 20.6 40.0 C 19.8 40.0 19.4 39.4 19.4 38.7 C 19.4 38.0 19.8 37.3 20.6 37.3 Z " transform="scale(1,-1)" stroke-dasharray="24.696274244997042" stroke-dashoffset="24.696274244997042"><animate attributeName="stroke-dashoffset" from="24.696274244997042" to="0" dur="0.7408882273499112s" begin="anim5.end" fill="freeze" id="anim6" /></path><path d="M 30.3 32.6 C 31.2 32.6 31.8 33.4 31.8 34.0 C 31.8 34.7 31.2 35.4 30.3 35.4 L 18.8 35.4 C 17.9 35.4 17.4 34.7 17.4 34.0 C 17.4 33.4 17.9 32.6 18.8 32.6 Z " transform="scale(1,-1)" stroke-dasharray="31.93832854935433" stroke-dashoffset="31.93832854935433"><animate attributeName="stroke-dashoffset" from="31.93832854935433" to="0" dur="0.9581498564806299s" begin="anim6.end" fill="freeze" id="anim7" /></path><path d="M 28.7 28.1 C 29.5 28.1 29.9 28.8 29.9 29.4 C 29.9 30.1 29.5 30.7 28.7 30.7 L 20.9 30.7 C 20.1 30.7 19.6 30.1 19.6 29.4 C 19.6 28.8 20.1 28.1 20.9 28.1 Z " transform="scale(1,-1)" stroke-dasharray="23.65917577138182" stroke-dashoffset="23.65917577138182"><animate attributeName="stroke-dashoffset" from="23.65917577138182" to="0" dur="0.7097752731414545s" begin="anim7.end" fill="freeze" id="anim8" /></path><path d="M 28.7 23.6 C 29.5 23.6 29.9 24.2 29.9 24.9 C 29.9 25.5 29.5 26.2 28.7 26.2 L 20.9 26.2 C 20.1 26.2 19.6 25.5 19.6 24.9 C 19.6 24.2 20.1 23.6 20.9 23.6 Z " transform="scale(1,-1)" stroke-dasharray="23.65917577138182" stroke-dashoffset="23.65917577138182"><animate attributeName="stroke-dashoffset" from="23.65917577138182" to="0" dur="0.7097752731414545s" begin="anim8.end" fill="freeze" id="anim9" /></path><path d="M 34.1 21.0 C 33.6 19.1 32.8 16.8 32.0 15.4 C 31.9 15.1 31.8 14.8 31.8 14.6 C 31.8 13.8 32.5 13.3 33.1 13.3 C 33.7 13.3 34.3 13.6 34.6 14.2 C 35.5 16.0 36.4 18.2 36.8 20.2 C 37.1 21.4 36.2 22.1 35.4 22.1 C 34.8 22.1 34.2 21.7 34.1 21.0 Z " transform="scale(1,-1)" stroke-dasharray="21.71560915898025" stroke-dashoffset="21.71560915898025"><animate attributeName="stroke-dashoffset" from="21.71560915898025" to="0" dur="0.6514682747694075s" begin="anim9.end" fill="freeze" id="anim10" /></path><path d="M 45.0 21.2 C 44.8 21.9 44.2 22.2 43.6 22.2 C 42.9 22.2 42.2 21.7 42.2 20.9 C 42.2 20.7 42.2 20.6 42.3 20.4 C 42.9 18.9 43.8 16.7 44.6 15.1 C 45.0 14.4 45.5 14.2 46.0 14.2 C 46.8 14.2 47.5 14.7 47.5 15.6 C 47.5 15.9 47.4 16.2 47.2 16.6 C 46.4 17.9 45.5 19.9 45.0 21.2 Z " transform="scale(1,-1)" stroke-dasharray="20.492547283159126" stroke-dashoffset="20.492547283159126"><animate attributeName="stroke-dashoffset" from="20.492547283159126" to="0" dur="0.6147764184947738s" begin="anim10.end" fill="freeze" id="anim11" /></path><path d="M 14.7 0.9 C 14.7 -2.3 16.1 -3.2 24.7 -3.2 C 34.1 -3.2 36.4 -1.8 36.9 3.1 C 37.1 4.2 36.1 5.0 35.1 5.0 C 34.4 5.0 33.6 4.5 33.5 3.5 C 33.1 0.4 32.2 -0.2 24.7 -0.2 C 18.8 -0.2 18.2 0.2 18.2 1.8 L 18.2 7.9 C 18.2 9.0 17.4 9.5 16.4 9.5 C 15.6 9.5 14.7 9.0 14.7 7.9 Z " transform="scale(1,-1)" stroke-dasharray="70.10851548024911" stroke-dashoffset="70.10851548024911"><animate attributeName="stroke-dashoffset" from="70.10851548024911" to="0" dur="2.1032554644074732s" begin="anim11.end" fill="freeze" id="anim12" /></path><path d="M 7.7 7.2 C 6.9 5.1 5.8 3.2 4.5 1.7 C 4.1 1.2 4.0 0.8 4.0 0.4 C 4.0 -0.6 4.8 -1.2 5.7 -1.2 C 6.2 -1.2 6.8 -1.0 7.3 -0.4 C 8.6 1.2 10.0 3.6 10.9 5.8 C 11.1 6.1 11.1 6.4 11.1 6.7 C 11.1 7.7 10.2 8.3 9.4 8.3 C 8.8 8.3 8.1 8.0 7.7 7.2 Z " transform="scale(1,-1)" stroke-dasharray="25.13588144391598" stroke-dashoffset="25.13588144391598"><animate attributeName="stroke-dashoffset" from="25.13588144391598" to="0" dur="0.7540764433174794s" begin="anim12.end" fill="freeze" id="anim13" /></path><path d="M 41.2 8.3 C 40.7 8.8 40.2 9.0 39.7 9.0 C 38.8 9.0 38.0 8.2 38.0 7.4 C 38.0 7.1 38.1 6.6 38.6 6.2 C 40.0 4.8 41.5 2.9 42.5 1.3 C 43.0 0.6 43.6 0.2 44.2 0.2 C 45.2 0.2 46.0 1.0 46.0 2.0 C 46.0 2.4 45.9 2.9 45.5 3.4 C 44.4 5.0 42.7 7.0 41.2 8.3 Z " transform="scale(1,-1)" stroke-dasharray="24.91318397546491" stroke-dashoffset="24.91318397546491"><animate attributeName="stroke-dashoffset" from="24.91318397546491" to="0" dur="0.7473955192639473s" begin="anim13.end" fill="freeze" id="anim14" /></path><path d="M 24.9 10.4 C 24.6 10.6 24.2 10.7 23.8 10.7 C 22.9 10.7 22.1 10.0 22.1 9.2 C 22.1 8.8 22.4 8.3 22.9 8.0 C 23.8 7.2 24.9 6.3 26.0 5.1 C 26.4 4.7 26.9 4.5 27.3 4.5 C 28.2 4.5 29.1 5.2 29.1 6.2 C 29.1 6.6 28.9 7.1 28.4 7.6 C 27.2 8.7 26.2 9.5 24.9 10.4 Z" transform="scale(1,-1)" stroke-dasharray="19.70871946711177" stroke-dashoffset="19.70871946711177"><animate attributeName="stroke-dashoffset" from="19.70871946711177" to="0" dur="0.591261584013353s" begin="anim14.end" fill="freeze" id="anim_end" /></path></g></svg>