<?xml version='1.0' encoding='utf-8'?>
<svg viewBox="0 -44.0 50.0 50.0" version="1.1" xmlns="http://www.w3.org/2000/svg"><rect x="-1000" y="-1000" width="2000" height="2000" stroke="white" fill="white" /><g style="fill:none;stroke:#000000;stroke-width:1"><path d="M 18.9 30.3 C 16.2 30.3 15.1 28.8 15.1 26.2 L 15.1 20.1 C 15.1 8.7 14.1 3.5 11.9 -1.1 C 11.7 -1.5 11.6 -1.9 11.6 -2.1 C 11.6 -3.0 12.2 -3.5 12.9 -3.5 C 13.5 -3.5 14.2 -3.1 14.6 -2.2 C 16.2 1.0 17.2 4.6 17.6 10.2 L 26.8 10.2 L 26.8 1.9 C 26.8 0.7 26.2 0.1 25.2 0.1 C 24.6 0.1 23.9 0.2 23.2 0.3 C 22.1 0.6 21.4 -0.4 21.4 -1.2 C 21.4 -1.9 21.8 -2.6 22.8 -2.8 C 23.6 -3.0 24.6 -3.1 25.4 -3.1 C 28.2 -3.1 29.7 -2.0 29.7 1.7 L 29.7 26.2 C 29.7 28.8 28.5 30.3 25.8 30.3 L 24.6 30.3 C 25.2 31.4 25.6 32.4 25.9 33.4 C 26.0 33.8 26.1 34.2 26.1 34.6 C 26.1 36.2 25.0 37.4 22.8 37.4 L 20.0 37.4 C 20.4 38.1 20.7 38.9 21.1 39.7 C 21.2 40.0 21.2 40.2 21.2 40.4 C 21.2 41.2 20.4 41.8 19.6 41.8 C 18.9 41.8 18.3 41.5 18.0 40.7 C 16.8 37.4 15.2 34.6 13.7 32.5 C 13.5 32.1 13.3 31.8 13.3 31.5 C 13.3 30.7 14.0 30.1 14.7 30.1 C 15.2 30.1 15.8 30.4 16.3 31.1 C 17.0 32.0 17.8 33.1 18.5 34.5 L 21.9 34.5 C 22.9 34.5 23.1 34.2 22.9 33.5 C 22.6 32.6 22.2 31.5 21.6 30.3 Z " transform="scale(1,-1)" stroke-dasharray="171.96177989102068" stroke-dashoffset="171.96177989102068"><animate attributeName="stroke-dashoffset" from="171.96177989102068" to="0" dur="5.1588533967306205s" begin="0s; 15s; 30s; 45s; 60s" fill="freeze" id="anim0" /></path><path d="M 23.8 21.9 L 23.8 27.6 L 25.5 27.6 C 26.6 27.6 26.8 27.2 26.8 26.0 L 26.8 21.9 Z " transform="scale(1,-1)" stroke-dasharray="16.9530882753948" stroke-dashoffset="16.9530882753948"><animate attributeName="stroke-dashoffset" from="16.9530882753948" to="0" dur="0.508592648261844s" begin="anim0.end" fill="freeze" id="anim1" /></path><path d="M 21.0 21.9 L 17.9 21.9 L 17.9 26.0 C 17.9 27.2 18.2 27.6 19.3 27.6 L 21.0 27.6 Z " transform="scale(1,-1)" stroke-dasharray="17.111884153683153" stroke-dashoffset="17.111884153683153"><animate attributeName="stroke-dashoffset" from="17.111884153683153" to="0" dur="0.5133565246104945s" begin="anim1.end" fill="freeze" id="anim2" /></path><path d="M 23.8 19.1 L 26.8 19.1 L 26.8 13.0 L 23.8 13.0 Z " transform="scale(1,-1)" stroke-dasharray="18.200000000000003" stroke-dashoffset="18.200000000000003"><animate attributeName="stroke-dashoffset" from="18.200000000000003" to="0" dur="0.546s" begin="anim2.end" fill="freeze" id="anim3" /></path><path d="M 21.0 19.1 L 21.0 13.0 L 17.8 13.0 C 17.9 15.1 17.9 17.1 17.9 19.1 Z " transform="scale(1,-1)" stroke-dasharray="18.501447968542735" stroke-dashoffset="18.501447968542735"><animate attributeName="stroke-dashoffset" from="18.501447968542735" to="0" dur="0.5550434390562821s" begin="anim3.end" fill="freeze" id="anim4" /></path><path d="M 35.7 36.7 C 35.2 33.2 33.8 30.7 31.3 28.8 C 30.8 28.4 30.6 27.9 30.6 27.4 C 30.6 26.7 31.2 26.0 32.1 26.0 C 32.4 26.0 32.8 26.1 33.2 26.4 C 36.4 28.8 38.4 32.4 38.9 36.7 L 42.2 36.7 C 43.4 36.7 43.7 36.2 43.7 35.3 C 43.6 33.8 43.4 32.2 43.1 30.9 C 42.8 29.9 42.5 29.6 41.6 29.6 C 41.2 29.6 40.5 29.7 40.0 29.8 C 38.9 30.0 38.1 29.1 38.1 28.3 C 38.1 27.7 38.6 27.0 39.6 26.8 C 40.3 26.7 40.9 26.6 41.8 26.6 C 44.0 26.6 45.5 27.4 46.2 30.3 C 46.6 31.9 46.8 33.9 46.9 35.8 C 46.9 38.4 45.5 39.6 42.7 39.6 L 32.2 39.6 C 31.3 39.6 30.8 38.9 30.8 38.1 C 30.8 37.5 31.3 36.7 32.2 36.7 Z " transform="scale(1,-1)" stroke-dasharray="84.61733822604758" stroke-dashoffset="84.61733822604758"><animate attributeName="stroke-dashoffset" from="84.61733822604758" to="0" dur="2.538520146781427s" begin="anim4.end" fill="freeze" id="anim5" /></path><path d="M 38.6 16.1 L 38.6 10.5 L 32.6 10.5 C 31.7 10.5 31.2 9.7 31.2 9.0 C 31.2 8.2 31.7 7.5 32.6 7.5 L 38.6 7.5 L 38.6 -2.5 C 38.6 -3.5 39.3 -3.9 40.1 -3.9 C 40.9 -3.9 41.6 -3.5 41.6 -2.5 L 41.6 7.5 L 47.2 7.5 C 48.1 7.5 48.6 8.2 48.6 9.0 C 48.6 9.7 48.1 10.5 47.2 10.5 L 41.6 10.5 L 41.6 16.1 L 46.1 16.1 C 47.0 16.1 47.5 16.9 47.5 17.6 C 47.5 18.3 47.0 19.0 46.1 19.0 L 41.6 19.0 L 41.6 23.8 C 41.6 24.8 40.9 25.2 40.1 25.2 C 39.3 25.2 38.6 24.8 38.6 23.8 L 38.6 19.0 L 36.0 19.0 C 36.2 19.9 36.5 20.8 36.7 21.6 C 37.0 22.7 36.1 23.5 35.2 23.5 C 34.6 23.5 34.0 23.1 33.8 22.2 C 33.3 19.9 32.2 17.1 31.1 15.0 C 30.9 14.7 30.8 14.4 30.8 14.2 C 30.8 13.4 31.5 12.9 32.2 12.9 C 32.8 12.9 33.4 13.2 33.8 14.0 C 34.1 14.6 34.5 15.4 34.8 16.1 Z " transform="scale(1,-1)" stroke-dasharray="125.03193153581293" stroke-dashoffset="125.03193153581293"><animate attributeName="stroke-dashoffset" from="125.03193153581293" to="0" dur="3.750957946074388s" begin="anim5.end" fill="freeze" id="anim6" /></path><path d="M 9.3 40.5 C 9.3 41.5 8.5 41.9 7.7 41.9 C 6.9 41.9 6.1 41.5 6.1 40.5 L 6.1 -2.5 C 6.1 -3.4 6.9 -3.9 7.7 -3.9 C 8.5 -3.9 9.3 -3.4 9.3 -2.5 Z " transform="scale(1,-1)" stroke-dasharray="95.54385153255082" stroke-dashoffset="95.54385153255082"><animate attributeName="stroke-dashoffset" from="95.54385153255082" to="0" dur="2.8663155459765246s" begin="anim6.end" fill="freeze" id="anim7" /></path><path d="M 2.1 29.5 C 2.0 27.5 1.6 24.8 1.1 23.2 C 1.0 23.1 1.0 22.9 1.0 22.7 C 1.0 21.9 1.6 21.4 2.2 21.4 C 2.9 21.4 3.5 21.8 3.8 22.7 C 4.3 24.2 4.8 27.2 5.0 29.2 C 5.0 30.2 4.2 30.8 3.5 30.8 C 2.9 30.8 2.2 30.4 2.1 29.5 Z " transform="scale(1,-1)" stroke-dasharray="22.25364362286248" stroke-dashoffset="22.25364362286248"><animate attributeName="stroke-dashoffset" from="22.25364362286248" to="0" dur="0.6676093086858744s" begin="anim7.end" fill="freeze" id="anim8" /></path><path d="M 12.8 30.6 C 12.5 31.2 12.0 31.5 11.5 31.5 C 10.8 31.5 10.2 31.0 10.2 30.2 C 10.2 30.1 10.2 29.8 10.3 29.6 C 10.8 28.5 11.3 26.8 11.7 25.5 C 11.9 24.6 12.5 24.2 13.1 24.2 C 13.9 24.2 14.7 25.0 14.4 26.2 C 14.0 27.7 13.4 29.5 12.8 30.6 Z" transform="scale(1,-1)" stroke-dasharray="18.198413560282994" stroke-dashoffset="18.198413560282994"><animate attributeName="stroke-dashoffset" from="18.198413560282994" to="0" dur="0.5459524068084898s" begin="anim8.end" fill="freeze" id="anim_end" /></path></g></svg>