<?xml version='1.0' encoding='utf-8'?>
<svg viewBox="0 -44.0 50.0 50.0" version="1.1" xmlns="http://www.w3.org/2000/svg"><rect x="-1000" y="-1000" width="2000" height="2000" stroke="white" fill="white" /><g style="fill:none;stroke:#000000;stroke-width:1"><path d="M 33.5 21.2 L 46.0 21.2 C 47.0 21.2 47.5 22.1 47.5 22.9 C 47.5 23.8 47.0 24.6 46.0 24.6 L 33.5 24.6 L 33.5 39.8 C 33.5 40.8 32.5 41.4 31.6 41.4 C 30.6 41.4 29.7 40.8 29.7 39.8 L 29.7 24.6 L 18.3 24.6 C 17.4 24.6 16.9 23.8 16.9 22.9 C 16.9 22.1 17.4 21.2 18.3 21.2 L 29.7 21.2 L 29.7 -2.1 C 29.7 -3.2 30.6 -3.7 31.6 -3.7 C 32.5 -3.7 33.5 -3.2 33.5 -2.1 Z " transform="scale(1,-1)" stroke-dasharray="145.89712591359353" stroke-dashoffset="145.89712591359353"><animate attributeName="stroke-dashoffset" from="145.89712591359353" to="0" dur="4.376913777407806s" begin="0s; 15s; 30s; 45s; 60s" fill="freeze" id="anim0" /></path><path d="M 9.8 40.2 C 9.4 40.5 9.1 40.6 8.8 40.6 C 7.8 40.6 6.9 39.7 6.9 38.8 C 6.9 38.2 7.2 37.7 7.9 37.2 C 8.9 36.5 10.8 34.8 12.0 33.4 C 12.5 32.8 13.1 32.6 13.6 32.6 C 14.5 32.6 15.4 33.5 15.4 34.5 C 15.4 35.0 15.2 35.6 14.7 36.1 C 13.3 37.6 11.3 39.2 9.8 40.2 Z " transform="scale(1,-1)" stroke-dasharray="24.459636933807992" stroke-dashoffset="24.459636933807992"><animate attributeName="stroke-dashoffset" from="24.459636933807992" to="0" dur="0.7337891080142398s" begin="anim0.end" fill="freeze" id="anim1" /></path><path d="M 11.6 13.4 C 10.0 9.0 7.4 4.0 4.9 0.8 C 4.5 0.2 4.4 -0.2 4.4 -0.6 C 4.4 -1.6 5.2 -2.4 6.2 -2.4 C 6.9 -2.4 7.5 -2.1 8.1 -1.3 C 10.5 2.1 13.4 7.8 15.0 12.2 C 15.1 12.5 15.2 12.8 15.2 13.1 C 15.2 14.2 14.3 14.9 13.4 14.9 C 12.7 14.9 11.9 14.4 11.6 13.4 Z " transform="scale(1,-1)" stroke-dasharray="42.41202374235534" stroke-dashoffset="42.41202374235534"><animate attributeName="stroke-dashoffset" from="42.41202374235534" to="0" dur="1.2723607122706602s" begin="anim1.end" fill="freeze" id="anim2" /></path><path d="M 5.8 28.4 C 5.4 28.7 5.0 28.8 4.5 28.8 C 3.6 28.8 2.8 28.0 2.8 27.1 C 2.8 26.6 3.0 26.0 3.7 25.6 C 4.8 24.8 7.0 23.1 8.4 21.6 C 8.8 21.1 9.3 20.9 9.8 20.9 C 10.8 20.9 11.6 21.8 11.6 22.8 C 11.6 23.3 11.4 23.9 10.9 24.4 C 9.5 25.8 7.2 27.6 5.8 28.4 Z" transform="scale(1,-1)" stroke-dasharray="24.86666230852223" stroke-dashoffset="24.86666230852223"><animate attributeName="stroke-dashoffset" from="24.86666230852223" to="0" dur="0.7459998692556669s" begin="anim2.end" fill="freeze" id="anim_end" /></path></g></svg>