<?xml version='1.0' encoding='utf-8'?>
<svg viewBox="0 -44.0 50.0 50.0" version="1.1" xmlns="http://www.w3.org/2000/svg"><rect x="-1000" y="-1000" width="2000" height="2000" stroke="white" fill="white" /><g style="fill:none;stroke:#000000;stroke-width:1"><path d="M 9.2 27.4 C 7.5 20.9 4.9 14.7 1.8 10.2 C 1.5 9.7 1.4 9.2 1.4 8.8 C 1.4 8.0 2.0 7.4 2.8 7.4 C 3.3 7.4 3.9 7.7 4.4 8.3 C 6.6 11.6 8.6 15.7 10.0 19.6 L 9.7 9.2 L 9.7 -2.5 C 9.7 -3.5 10.6 -4.0 11.4 -4.0 C 12.2 -4.0 13.1 -3.5 13.1 -2.5 L 13.1 17.8 C 14.4 16.7 15.5 15.4 16.4 14.2 C 16.9 13.6 17.4 13.3 17.9 13.3 C 18.8 13.3 19.5 14.1 19.5 15.0 C 19.5 15.5 19.3 16.0 18.9 16.6 C 17.5 18.2 15.5 20.1 13.1 21.6 L 13.1 27.4 L 17.8 27.4 C 18.7 27.4 19.2 28.2 19.2 28.9 C 19.2 29.7 18.7 30.5 17.8 30.5 L 13.1 30.5 L 13.1 40.2 C 13.1 41.3 12.2 41.8 11.4 41.8 C 10.6 41.8 9.7 41.3 9.7 40.2 L 9.7 30.5 L 4.1 30.5 C 3.2 30.5 2.7 29.7 2.7 28.9 C 2.7 28.2 3.2 27.4 4.1 27.4 Z " transform="scale(1,-1)" stroke-dasharray="163.04507034020915" stroke-dashoffset="163.04507034020915"><animate attributeName="stroke-dashoffset" from="163.04507034020915" to="0" dur="4.891352110206275s" begin="0s; 15s; 30s; 45s; 60s" fill="freeze" id="anim0" /></path><path d="M 30.5 29.4 L 30.5 -2.1 C 30.5 -3.2 31.4 -3.8 32.3 -3.8 C 33.2 -3.8 34.1 -3.2 34.1 -2.1 L 34.1 9.2 L 43.8 9.2 C 44.8 9.2 45.3 10.1 45.3 10.9 C 45.3 11.6 44.8 12.4 43.8 12.4 L 34.1 12.4 L 34.1 19.4 L 43.5 19.4 C 44.5 19.4 45.0 20.2 45.0 21.0 C 45.0 21.7 44.5 22.5 43.5 22.5 L 34.1 22.5 L 34.1 29.4 L 46.2 29.4 C 47.2 29.4 47.7 30.2 47.7 31.0 C 47.7 31.7 47.2 32.5 46.2 32.5 L 28.0 32.5 C 28.9 34.7 29.7 37.0 30.4 39.2 C 30.4 39.5 30.5 39.7 30.5 39.9 C 30.5 40.9 29.6 41.6 28.7 41.6 C 27.9 41.6 27.2 41.1 26.9 40.2 C 25.2 33.9 22.5 27.8 19.3 23.2 C 18.9 22.8 18.9 22.4 18.9 22.0 C 18.9 21.1 19.6 20.5 20.4 20.5 C 20.9 20.5 21.5 20.8 22.0 21.4 C 23.6 23.7 25.2 26.4 26.6 29.4 Z" transform="scale(1,-1)" stroke-dasharray="195.7193083999059" stroke-dashoffset="195.7193083999059"><animate attributeName="stroke-dashoffset" from="195.7193083999059" to="0" dur="5.8715792519971775s" begin="anim0.end" fill="freeze" id="anim_end" /></path></g></svg>