<?xml version='1.0' encoding='utf-8'?>
<svg viewBox="0 -44.0 50.0 50.0" version="1.1" xmlns="http://www.w3.org/2000/svg"><rect x="-1000" y="-1000" width="2000" height="2000" stroke="white" fill="white" /><g style="fill:none;stroke:#000000;stroke-width:1"><path d="M 29.8 23.9 C 30.0 24.2 30.1 24.5 30.1 24.8 C 30.1 25.1 30.0 25.5 29.8 25.8 C 29.0 27.1 27.8 28.6 26.8 29.6 C 26.5 30.0 26.0 30.1 25.6 30.1 C 25.0 30.1 24.4 29.6 24.4 28.9 C 24.4 28.6 24.5 28.3 24.8 28.0 C 25.1 27.5 25.5 27.0 25.9 26.5 C 24.2 26.2 22.5 26.1 20.8 25.9 C 21.5 27.1 22.1 28.3 22.6 29.5 C 22.7 29.9 22.8 30.2 22.8 30.5 C 22.8 31.4 22.1 31.9 21.4 31.9 C 20.8 31.9 20.1 31.5 19.8 30.6 C 19.2 29.1 18.3 27.2 17.4 25.6 C 17.1 25.6 16.7 25.5 16.3 25.5 C 15.2 25.4 14.8 24.7 14.8 24.0 C 14.8 23.2 15.5 22.4 16.6 22.5 C 19.6 22.8 23.6 23.4 27.5 24.2 C 27.8 23.6 28.2 23.3 28.7 23.3 C 28.9 23.3 29.0 23.3 29.1 23.4 C 25.8 20.5 19.7 17.3 14.4 15.5 C 13.5 15.2 13.1 14.6 13.1 14.0 C 13.1 13.2 13.6 12.5 14.6 12.5 C 14.8 12.5 15.1 12.6 15.3 12.7 C 20.5 14.5 26.1 17.3 30.0 20.2 C 34.2 16.9 39.8 13.9 45.2 12.3 C 45.5 12.2 45.7 12.2 46.0 12.2 C 47.1 12.2 47.8 13.1 47.8 14.0 C 47.8 14.7 47.3 15.4 46.2 15.7 C 41.2 17.0 35.9 19.5 32.1 22.2 C 32.1 22.4 32.1 22.5 32.1 22.6 C 32.1 23.4 31.4 24.1 30.6 24.1 C 30.3 24.1 30.1 24.0 29.8 23.9 Z " transform="scale(1,-1)" stroke-dasharray="133.43442138047257" stroke-dashoffset="133.43442138047257"><animate attributeName="stroke-dashoffset" from="133.43442138047257" to="0" dur="4.003032641414177s" begin="0s; 15s; 30s; 45s; 60s" fill="freeze" id="anim0" /></path><path d="M 36.6 36.6 C 33.4 36.4 30.3 36.2 27.2 36.0 C 27.9 37.1 28.5 38.4 29.1 39.6 C 29.2 39.9 29.3 40.2 29.3 40.5 C 29.3 41.5 28.5 42.1 27.7 42.1 C 27.1 42.1 26.4 41.7 26.1 40.8 C 25.5 39.3 24.7 37.6 23.8 35.9 C 22.4 35.9 20.9 35.8 19.5 35.8 C 18.2 35.8 17.7 35.1 17.7 34.2 C 17.7 33.5 18.3 32.6 19.5 32.7 C 26.2 32.9 32.3 33.5 39.0 34.3 C 39.5 33.8 39.9 33.3 40.4 32.8 C 40.8 32.2 41.3 32.1 41.8 32.1 C 42.6 32.1 43.4 32.7 43.4 33.6 C 43.4 34.0 43.2 34.5 42.8 35.0 C 41.5 36.5 39.1 38.6 37.2 39.8 C 36.8 40.1 36.4 40.2 36.0 40.2 C 35.1 40.2 34.6 39.6 34.6 38.9 C 34.6 38.5 34.8 38.0 35.3 37.6 C 35.7 37.3 36.1 37.0 36.6 36.6 Z " transform="scale(1,-1)" stroke-dasharray="75.49434954927284" stroke-dashoffset="75.49434954927284"><animate attributeName="stroke-dashoffset" from="75.49434954927284" to="0" dur="2.264830486478185s" begin="anim0.end" fill="freeze" id="anim1" /></path><path d="M 32.6 26.5 C 31.6 26.4 31.1 25.7 31.1 25.0 C 31.1 24.2 31.7 23.5 32.9 23.6 C 36.1 23.8 39.6 24.2 43.0 24.9 C 43.2 24.6 43.4 24.2 43.6 23.8 C 44.0 23.2 44.6 22.9 45.1 22.9 C 45.8 22.9 46.5 23.5 46.5 24.2 C 46.5 24.6 46.4 24.9 46.2 25.2 C 45.3 26.8 43.9 28.6 42.8 29.8 C 42.4 30.2 41.9 30.4 41.5 30.4 C 40.8 30.4 40.2 29.9 40.2 29.2 C 40.2 28.9 40.3 28.6 40.6 28.2 C 40.9 27.9 41.1 27.6 41.4 27.2 C 39.7 27.0 38.1 26.9 36.4 26.7 C 37.0 27.9 37.6 29.0 38.1 30.2 C 38.2 30.5 38.3 30.9 38.3 31.1 C 38.3 32.0 37.6 32.6 36.9 32.6 C 36.3 32.6 35.6 32.2 35.3 31.3 C 34.8 29.9 34.0 28.2 33.1 26.5 Z " transform="scale(1,-1)" stroke-dasharray="53.02269577481601" stroke-dashoffset="53.02269577481601"><animate attributeName="stroke-dashoffset" from="53.02269577481601" to="0" dur="1.5906808732444802s" begin="anim1.end" fill="freeze" id="anim2" /></path><path d="M 39.8 6.5 C 34.1 3.2 26.1 0.6 18.6 -0.7 C 17.5 -0.9 17.1 -1.6 17.1 -2.2 C 17.1 -3.1 17.8 -4.0 19.0 -3.8 C 27.0 -2.7 35.6 0.2 41.6 3.6 C 42.2 4.0 42.6 4.5 42.6 5.1 C 42.6 6.0 41.8 6.8 40.8 6.8 C 40.5 6.8 40.1 6.7 39.8 6.5 Z " transform="scale(1,-1)" stroke-dasharray="57.25488799259695" stroke-dashoffset="57.25488799259695"><animate attributeName="stroke-dashoffset" from="57.25488799259695" to="0" dur="1.7176466397779084s" begin="anim2.end" fill="freeze" id="anim3" /></path><path d="M 10.4 40.4 C 10.4 41.4 9.6 41.9 8.7 41.9 C 7.9 41.9 7.1 41.4 7.1 40.4 L 7.1 -2.7 C 7.1 -3.7 7.9 -4.2 8.7 -4.2 C 9.6 -4.2 10.4 -3.7 10.4 -2.7 Z " transform="scale(1,-1)" stroke-dasharray="96.21728123870807" stroke-dashoffset="96.21728123870807"><animate attributeName="stroke-dashoffset" from="96.21728123870807" to="0" dur="2.886518437161242s" begin="anim3.end" fill="freeze" id="anim4" /></path><path d="M 2.8 30.1 C 2.6 27.9 2.1 25.2 1.5 23.5 C 1.4 23.2 1.4 23.1 1.4 22.9 C 1.4 22.0 2.0 21.5 2.7 21.5 C 3.2 21.5 3.9 21.9 4.2 22.8 C 4.9 24.5 5.4 27.5 5.7 29.8 C 5.8 30.9 5.0 31.4 4.2 31.4 C 3.5 31.4 2.8 31.0 2.8 30.1 Z " transform="scale(1,-1)" stroke-dasharray="23.44492573535466" stroke-dashoffset="23.44492573535466"><animate attributeName="stroke-dashoffset" from="23.44492573535466" to="0" dur="0.7033477720606397s" begin="anim4.end" fill="freeze" id="anim5" /></path><path d="M 14.1 32.2 C 13.8 32.8 13.2 33.1 12.7 33.1 C 12.1 33.1 11.4 32.6 11.4 31.8 C 11.4 31.5 11.5 31.2 11.6 31.0 C 12.1 30.0 12.7 28.2 13.1 26.9 C 13.2 26.0 13.9 25.6 14.5 25.6 C 15.2 25.6 16.0 26.2 16.0 27.2 C 16.0 27.4 15.9 27.6 15.9 27.8 C 15.5 29.2 14.7 31.0 14.1 32.2 Z " transform="scale(1,-1)" stroke-dasharray="18.889430711840426" stroke-dashoffset="18.889430711840426"><animate attributeName="stroke-dashoffset" from="18.889430711840426" to="0" dur="0.5666829213552127s" begin="anim5.end" fill="freeze" id="anim6" /></path><path d="M 34.6 11.5 C 30.4 9.0 24.8 6.8 19.8 5.7 C 18.8 5.5 18.4 4.8 18.4 4.0 C 18.4 3.2 19.1 2.3 20.4 2.6 C 25.8 3.8 31.8 6.1 36.3 8.8 C 37.0 9.2 37.2 9.7 37.2 10.2 C 37.2 11.1 36.6 11.9 35.6 11.9 C 35.3 11.9 35.0 11.8 34.6 11.5 Z " transform="scale(1,-1)" stroke-dasharray="43.80539091215717" stroke-dashoffset="43.80539091215717"><animate attributeName="stroke-dashoffset" from="43.80539091215717" to="0" dur="1.314161727364715s" begin="anim6.end" fill="freeze" id="anim7" /></path><path d="M 29.7 16.1 C 26.8 14.1 23.1 12.5 19.5 11.4 C 18.5 11.2 18.1 10.5 18.1 9.9 C 18.1 9.2 18.7 8.5 19.6 8.5 C 19.8 8.5 20.0 8.5 20.2 8.6 C 24.2 9.7 28.1 11.4 31.6 13.5 C 32.2 13.9 32.5 14.4 32.5 14.8 C 32.5 15.7 31.6 16.4 30.7 16.4 C 30.4 16.4 30.0 16.3 29.7 16.1 Z" transform="scale(1,-1)" stroke-dasharray="34.19957146409338" stroke-dashoffset="34.19957146409338"><animate attributeName="stroke-dashoffset" from="34.19957146409338" to="0" dur="1.0259871439228014s" begin="anim7.end" fill="freeze" id="anim_end" /></path></g></svg>