<?xml version='1.0' encoding='utf-8'?>
<svg viewBox="0 -44.0 50.0 50.0" version="1.1" xmlns="http://www.w3.org/2000/svg"><rect x="-1000" y="-1000" width="2000" height="2000" stroke="white" fill="white" /><g style="fill:none;stroke:#000000;stroke-width:1"><path d="M 35.1 30.5 L 35.1 39.7 C 35.1 40.8 34.1 41.3 33.2 41.3 C 32.4 41.3 31.5 40.8 31.5 39.7 L 31.5 30.5 L 22.5 30.5 C 21.6 30.5 21.1 29.7 21.1 28.9 C 21.1 28.1 21.6 27.2 22.5 27.2 L 31.2 27.2 L 31.2 -1.7 C 31.2 -2.7 32.1 -3.2 33.0 -3.2 C 33.9 -3.2 34.8 -2.7 34.8 -1.7 L 34.8 27.2 L 46.6 27.2 C 47.6 27.2 48.0 28.1 48.0 28.9 C 48.0 29.7 47.6 30.5 46.6 30.5 Z " transform="scale(1,-1)" stroke-dasharray="137.5301927570259" stroke-dashoffset="137.5301927570259"><animate attributeName="stroke-dashoffset" from="137.5301927570259" to="0" dur="4.125905782710777s" begin="0s; 15s; 30s; 45s; 60s" fill="freeze" id="anim0" /></path><path d="M 13.4 14.6 C 15.1 15.2 16.8 16.0 18.2 16.6 C 19.1 17.0 19.4 17.7 19.4 18.2 C 19.4 19.1 18.8 19.8 17.9 19.8 C 17.6 19.8 17.3 19.7 17.0 19.6 C 16.0 19.1 14.7 18.6 13.4 18.1 L 13.4 28.0 L 17.6 28.0 C 18.5 28.0 19.0 28.7 19.0 29.5 C 19.0 30.2 18.5 31.0 17.6 31.0 L 13.4 31.0 L 13.4 40.1 C 13.4 41.2 12.5 41.7 11.6 41.7 C 10.7 41.7 9.8 41.2 9.8 40.1 L 9.8 31.0 L 4.5 31.0 C 3.6 31.0 3.1 30.2 3.1 29.5 C 3.1 28.7 3.6 28.0 4.5 28.0 L 9.8 28.0 L 9.8 16.9 C 7.9 16.2 5.8 15.7 4.0 15.2 C 2.9 14.9 2.4 14.1 2.4 13.4 C 2.4 12.6 3.0 11.7 4.1 11.7 C 4.4 11.7 4.5 11.8 4.8 11.8 C 6.4 12.2 8.1 12.8 9.8 13.3 L 9.8 2.2 C 9.8 0.7 9.3 0.2 8.1 0.2 C 7.4 0.2 6.8 0.3 6.0 0.5 C 4.6 0.7 3.8 -0.2 3.8 -1.2 C 3.8 -2.1 4.3 -2.8 5.4 -3.1 C 6.4 -3.2 7.4 -3.4 8.2 -3.4 C 11.6 -3.4 13.4 -1.9 13.4 1.9 Z " transform="scale(1,-1)" stroke-dasharray="150.8954576552567" stroke-dashoffset="150.8954576552567"><animate attributeName="stroke-dashoffset" from="150.8954576552567" to="0" dur="4.526863729657701s" begin="anim0.end" fill="freeze" id="anim1" /></path><path d="M 36.6 18.5 C 38.4 17.4 40.1 16.1 41.8 14.5 C 42.2 14.0 42.8 13.8 43.2 13.8 C 44.2 13.8 45.0 14.7 45.0 15.7 C 45.0 16.2 44.8 16.8 44.2 17.2 C 42.4 18.8 40.3 20.3 38.5 21.3 C 38.1 21.5 37.8 21.6 37.5 21.6 C 36.5 21.6 35.8 20.9 35.8 20.0 C 35.8 19.5 36.0 18.9 36.6 18.5 Z" transform="scale(1,-1)" stroke-dasharray="25.328178673215312" stroke-dashoffset="25.328178673215312"><animate attributeName="stroke-dashoffset" from="25.328178673215312" to="0" dur="0.7598453601964593s" begin="anim1.end" fill="freeze" id="anim_end" /></path></g></svg>