<?xml version='1.0' encoding='utf-8'?>
<svg viewBox="0 -44.0 50.0 50.0" version="1.1" xmlns="http://www.w3.org/2000/svg"><rect x="-1000" y="-1000" width="2000" height="2000" stroke="white" fill="white" /><g style="fill:none;stroke:#000000;stroke-width:1"><path d="M 26.7 30.9 L 31.2 30.9 C 32.1 30.9 32.6 31.6 32.6 32.4 C 32.6 33.1 32.1 33.9 31.2 33.9 L 22.1 33.9 C 22.7 35.8 23.2 37.8 23.5 39.6 C 23.7 40.9 22.8 41.6 21.8 41.6 C 21.1 41.6 20.4 41.2 20.2 40.1 C 19.6 35.7 17.9 30.7 16.0 27.5 C 15.8 27.2 15.7 26.8 15.7 26.5 C 15.7 25.6 16.4 25.0 17.2 25.0 C 17.8 25.0 18.4 25.4 18.9 26.1 C 19.6 27.5 20.4 29.1 21.0 30.9 L 23.2 30.9 L 23.2 21.7 L 18.1 21.7 C 17.2 21.7 16.7 21.0 16.7 20.2 C 16.7 19.4 17.2 18.6 18.1 18.6 L 23.2 18.6 C 22.8 11.0 20.1 4.1 15.2 -0.5 C 14.7 -1.0 14.5 -1.5 14.5 -2.0 C 14.5 -2.8 15.2 -3.5 16.1 -3.5 C 16.6 -3.5 17.0 -3.3 17.4 -2.9 C 20.5 -0.2 22.9 3.4 24.4 7.5 C 26.0 5.9 27.4 4.0 28.5 2.0 C 29.0 1.2 29.7 0.8 30.2 0.8 C 31.2 0.8 31.9 1.6 31.9 2.6 C 31.9 3.1 31.8 3.6 31.5 4.0 C 30.0 6.4 28.1 8.6 25.5 10.9 C 26.2 13.4 26.5 16.0 26.6 18.6 L 31.6 18.6 C 32.6 18.6 33.1 19.4 33.1 20.2 C 33.1 21.0 32.6 21.7 31.6 21.7 L 26.7 21.7 Z " transform="scale(1,-1)" stroke-dasharray="173.60715851994917" stroke-dashoffset="173.60715851994917"><animate attributeName="stroke-dashoffset" from="173.60715851994917" to="0" dur="5.208214755598475s" begin="0s; 15s; 30s; 45s; 60s" fill="freeze" id="anim0" /></path><path d="M 42.3 -0.7 C 45.2 -0.7 46.5 0.6 46.5 3.7 L 46.5 30.5 C 46.5 33.6 45.2 34.8 42.3 34.8 L 39.0 34.8 C 36.1 34.8 34.8 33.6 34.8 30.5 L 34.8 3.7 C 34.8 0.7 36.0 -0.6 39.0 -0.7 Z " transform="scale(1,-1)" stroke-dasharray="88.21708942353384" stroke-dashoffset="88.21708942353384"><animate attributeName="stroke-dashoffset" from="88.21708942353384" to="0" dur="2.646512682706015s" begin="anim0.end" fill="freeze" id="anim1" /></path><path d="M 39.7 2.4 C 38.6 2.4 38.1 2.8 38.1 4.1 L 38.1 30.1 C 38.1 31.4 38.6 31.8 39.7 31.8 L 41.6 31.8 C 42.7 31.8 43.1 31.4 43.1 30.1 L 43.1 4.1 C 43.1 3.0 42.9 2.4 41.6 2.4 Z " transform="scale(1,-1)" stroke-dasharray="66.59172056626913" stroke-dashoffset="66.59172056626913"><animate attributeName="stroke-dashoffset" from="66.59172056626913" to="0" dur="1.9977516169880738s" begin="anim1.end" fill="freeze" id="anim2" /></path><path d="M 7.5 27.9 C 6.1 21.4 3.9 15.3 1.3 11.0 C 1.1 10.6 1.0 10.2 1.0 9.9 C 1.0 9.1 1.6 8.5 2.2 8.5 C 2.8 8.5 3.4 8.8 3.8 9.6 C 5.5 12.4 7.0 16.1 8.1 19.7 L 7.9 9.6 L 7.9 -2.8 C 7.9 -3.7 8.7 -4.2 9.5 -4.2 C 10.2 -4.2 11.1 -3.7 11.1 -2.8 L 11.1 19.0 C 12.1 17.9 13.1 16.6 13.8 15.4 C 14.2 14.7 14.7 14.5 15.2 14.5 C 16.0 14.5 16.7 15.1 16.7 16.0 C 16.7 16.4 16.6 16.9 16.2 17.3 C 14.9 19.2 13.2 21.1 11.1 22.7 L 11.1 27.9 L 14.2 27.9 C 15.2 27.9 15.6 28.6 15.6 29.4 C 15.6 30.1 15.2 30.8 14.2 30.8 L 11.1 30.8 L 11.1 40.5 C 11.1 41.5 10.2 42.0 9.5 42.0 C 8.7 42.0 7.9 41.5 7.9 40.5 L 7.9 30.8 L 3.0 30.8 C 2.1 30.8 1.6 30.1 1.6 29.4 C 1.6 28.6 2.1 27.9 3.0 27.9 Z" transform="scale(1,-1)" stroke-dasharray="155.04403011541694" stroke-dashoffset="155.04403011541694"><animate attributeName="stroke-dashoffset" from="155.04403011541694" to="0" dur="4.6513209034625085s" begin="anim2.end" fill="freeze" id="anim_end" /></path></g></svg>