<?xml version='1.0' encoding='utf-8'?>
<svg viewBox="0 -44.0 50.0 50.0" version="1.1" xmlns="http://www.w3.org/2000/svg"><rect x="-1000" y="-1000" width="2000" height="2000" stroke="white" fill="white" /><g style="fill:none;stroke:#000000;stroke-width:1"><path d="M 29.6 16.3 L 25.0 16.3 C 21.2 16.3 19.5 14.6 19.5 11.5 L 19.5 2.7 C 19.5 -0.5 21.2 -2.1 25.0 -2.1 L 38.1 -2.1 C 41.9 -2.1 43.6 -0.5 43.6 2.7 L 43.6 11.5 C 43.6 14.6 41.9 16.3 38.1 16.3 L 33.2 16.3 L 33.2 26.4 L 45.8 26.4 C 46.8 26.4 47.2 27.2 47.2 28.0 C 47.2 28.8 46.8 29.6 45.8 29.6 L 33.2 29.6 L 33.2 39.4 C 33.2 40.5 32.4 41.0 31.4 41.0 C 30.5 41.0 29.6 40.5 29.6 39.4 L 29.6 29.6 L 17.4 29.6 C 16.5 29.6 16.0 28.8 16.0 28.0 C 16.0 27.2 16.5 26.4 17.4 26.4 L 29.6 26.4 Z " transform="scale(1,-1)" stroke-dasharray="178.11564193454439" stroke-dashoffset="178.11564193454439"><animate attributeName="stroke-dashoffset" from="178.11564193454439" to="0" dur="5.343469258036332s" begin="0s; 15s; 30s; 45s; 60s" fill="freeze" id="anim0" /></path><path d="M 25.9 1.1 C 24.0 1.1 23.2 1.7 23.2 3.2 L 23.2 11.0 C 23.2 12.6 24.0 13.2 25.9 13.2 L 37.2 13.2 C 39.1 13.2 39.9 12.6 39.9 11.0 L 39.9 3.2 C 39.9 1.5 38.7 1.1 37.2 1.1 Z " transform="scale(1,-1)" stroke-dasharray="54.1731237746926" stroke-dashoffset="54.1731237746926"><animate attributeName="stroke-dashoffset" from="54.1731237746926" to="0" dur="1.6251937132407779s" begin="anim0.end" fill="freeze" id="anim1" /></path><path d="M 9.2 40.2 C 8.9 40.5 8.6 40.6 8.2 40.6 C 7.2 40.6 6.4 39.8 6.4 38.9 C 6.4 38.4 6.6 37.8 7.2 37.4 C 8.2 36.6 9.9 35.0 11.1 33.6 C 11.6 33.0 12.1 32.8 12.6 32.8 C 13.6 32.8 14.4 33.6 14.4 34.6 C 14.4 35.1 14.2 35.6 13.8 36.2 C 12.7 37.6 10.7 39.2 9.2 40.2 Z " transform="scale(1,-1)" stroke-dasharray="23.518991209540413" stroke-dashoffset="23.518991209540413"><animate attributeName="stroke-dashoffset" from="23.518991209540413" to="0" dur="0.7055697362862123s" begin="anim1.end" fill="freeze" id="anim2" /></path><path d="M 10.5 13.4 C 9.1 9.0 6.7 3.9 4.3 0.7 C 4.0 0.2 3.9 -0.2 3.9 -0.7 C 3.9 -1.7 4.7 -2.4 5.7 -2.4 C 6.3 -2.4 7.0 -2.1 7.5 -1.2 C 9.8 2.2 12.5 7.9 13.9 12.2 C 14.0 12.6 14.1 12.9 14.1 13.1 C 14.1 14.2 13.2 14.9 12.3 14.9 C 11.6 14.9 10.8 14.4 10.5 13.4 Z " transform="scale(1,-1)" stroke-dasharray="41.85775817752365" stroke-dashoffset="41.85775817752365"><animate attributeName="stroke-dashoffset" from="41.85775817752365" to="0" dur="1.2557327453257094s" begin="anim2.end" fill="freeze" id="anim3" /></path><path d="M 5.6 28.4 C 5.2 28.6 4.8 28.8 4.4 28.8 C 3.4 28.8 2.6 28.0 2.6 27.1 C 2.6 26.6 2.8 26.0 3.5 25.6 C 4.5 24.8 6.4 23.3 7.7 21.8 C 8.2 21.3 8.7 21.1 9.2 21.1 C 10.1 21.1 10.9 22.0 10.9 23.0 C 10.9 23.5 10.7 24.0 10.2 24.5 C 9.0 25.9 7.0 27.5 5.6 28.4 Z" transform="scale(1,-1)" stroke-dasharray="23.79118429825586" stroke-dashoffset="23.79118429825586"><animate attributeName="stroke-dashoffset" from="23.79118429825586" to="0" dur="0.7137355289476758s" begin="anim3.end" fill="freeze" id="anim_end" /></path></g></svg>