<?xml version='1.0' encoding='utf-8'?>
<svg viewBox="0 -44.0 50.0 50.0" version="1.1" xmlns="http://www.w3.org/2000/svg"><rect x="-1000" y="-1000" width="2000" height="2000" stroke="white" fill="white" /><g style="fill:none;stroke:#000000;stroke-width:1"><path d="M 15.1 30.7 C 16.0 32.4 16.8 34.1 17.4 35.8 L 27.1 35.8 C 28.1 35.8 28.6 36.6 28.6 37.3 C 28.6 38.1 28.1 38.8 27.1 38.8 L 5.8 38.8 C 4.8 38.8 4.3 38.1 4.3 37.3 C 4.3 36.6 4.8 35.8 5.8 35.8 L 13.8 35.8 C 11.8 30.6 8.6 26.2 5.0 23.1 C 4.4 22.6 4.2 22.1 4.2 21.6 C 4.2 20.9 4.8 20.2 5.7 20.2 C 6.2 20.2 6.7 20.4 7.2 20.8 C 9.4 22.7 11.5 25.1 13.3 27.8 L 20.5 27.8 C 21.3 27.8 21.7 27.6 21.7 27.1 C 21.7 26.9 21.6 26.7 21.5 26.4 C 20.5 23.9 19.0 21.5 17.2 19.2 C 15.8 20.8 14.6 21.9 13.4 22.7 C 13.0 22.9 12.6 23.1 12.2 23.1 C 11.4 23.1 10.8 22.4 10.8 21.6 C 10.8 21.1 11.0 20.7 11.5 20.2 C 12.6 19.3 13.8 18.2 15.1 16.9 C 12.3 14.1 9.0 11.7 5.2 10.1 C 4.2 9.6 3.8 9.0 3.8 8.3 C 3.8 7.6 4.4 6.9 5.4 6.9 C 5.7 6.9 6.0 7.0 6.4 7.2 C 14.7 10.9 21.5 17.1 24.9 25.4 C 25.2 26.2 25.4 27.0 25.4 27.7 C 25.4 29.7 23.9 30.7 21.2 30.7 Z " transform="scale(1,-1)" stroke-dasharray="176.71084604644935" stroke-dashoffset="176.71084604644935"><animate attributeName="stroke-dashoffset" from="176.71084604644935" to="0" dur="5.301325381393481s" begin="0s; 15s; 30s; 45s; 60s" fill="freeze" id="anim0" /></path><path d="M 44.0 39.3 C 44.0 40.3 43.1 40.8 42.2 40.8 C 41.4 40.8 40.5 40.3 40.5 39.3 L 40.5 14.2 C 40.5 12.9 40.0 12.6 39.0 12.6 C 38.0 12.6 37.4 12.7 36.6 12.8 C 35.1 13.1 34.3 12.2 34.3 11.2 C 34.3 10.4 34.8 9.7 35.9 9.4 C 36.9 9.2 38.0 9.1 39.0 9.1 C 42.0 9.1 44.0 10.2 44.0 13.8 Z " transform="scale(1,-1)" stroke-dasharray="77.64381323316678" stroke-dashoffset="77.64381323316678"><animate attributeName="stroke-dashoffset" from="77.64381323316678" to="0" dur="2.329314396995003s" begin="anim0.end" fill="freeze" id="anim1" /></path><path d="M 21.0 5.4 C 20.5 6.4 19.8 6.8 19.1 6.8 C 18.2 6.8 17.4 6.2 17.4 5.1 C 17.4 4.9 17.4 4.6 17.6 4.3 C 18.2 2.3 18.8 0.6 19.2 -1.4 C 19.4 -2.5 20.2 -3.0 21.0 -3.0 C 21.9 -3.0 22.9 -2.2 22.9 -1.1 C 22.9 -0.9 22.8 -0.7 22.8 -0.5 C 22.4 1.5 21.8 3.6 21.0 5.4 Z " transform="scale(1,-1)" stroke-dasharray="24.339457757632495" stroke-dashoffset="24.339457757632495"><animate attributeName="stroke-dashoffset" from="24.339457757632495" to="0" dur="0.7301837327289749s" begin="anim1.end" fill="freeze" id="anim2" /></path><path d="M 30.6 6.1 C 30.1 6.8 29.5 7.1 28.9 7.1 C 28.0 7.1 27.2 6.5 27.2 5.6 C 27.2 5.2 27.3 4.9 27.5 4.5 C 28.4 2.8 29.3 0.6 29.9 -1.2 C 30.2 -2.2 31.0 -2.7 31.7 -2.7 C 32.6 -2.7 33.5 -2.0 33.5 -0.7 C 33.5 -0.4 33.5 -0.1 33.4 0.2 C 32.7 2.0 31.7 4.3 30.6 6.1 Z " transform="scale(1,-1)" stroke-dasharray="24.88547439235752" stroke-dashoffset="24.88547439235752"><animate attributeName="stroke-dashoffset" from="24.88547439235752" to="0" dur="0.7465642317707255s" begin="anim2.end" fill="freeze" id="anim3" /></path><path d="M 40.5 6.6 C 39.9 7.2 39.4 7.4 38.8 7.4 C 37.9 7.4 37.1 6.7 37.1 5.8 C 37.1 5.4 37.2 5.0 37.6 4.5 C 39.1 2.7 40.4 0.9 41.4 -1.2 C 41.9 -2.1 42.7 -2.5 43.4 -2.5 C 44.3 -2.5 45.2 -1.8 45.2 -0.7 C 45.2 -0.2 45.1 0.2 44.8 0.7 C 43.7 2.7 42.0 4.9 40.5 6.6 Z " transform="scale(1,-1)" stroke-dasharray="26.939769611165996" stroke-dashoffset="26.939769611165996"><animate attributeName="stroke-dashoffset" from="26.939769611165996" to="0" dur="0.8081930883349798s" begin="anim3.end" fill="freeze" id="anim4" /></path><path d="M 9.6 5.7 C 8.6 3.5 7.2 1.4 5.9 -0.4 C 5.5 -0.9 5.3 -1.5 5.3 -1.9 C 5.3 -2.9 6.1 -3.6 7.1 -3.6 C 7.7 -3.6 8.3 -3.2 8.9 -2.5 C 10.4 -0.6 11.8 1.9 12.8 4.2 C 13.0 4.5 13.1 4.9 13.1 5.2 C 13.1 6.2 12.2 6.9 11.3 6.9 C 10.7 6.9 10.0 6.5 9.6 5.7 Z " transform="scale(1,-1)" stroke-dasharray="27.489869462301318" stroke-dashoffset="27.489869462301318"><animate attributeName="stroke-dashoffset" from="27.489869462301318" to="0" dur="0.8246960838690395s" begin="anim4.end" fill="freeze" id="anim5" /></path><path d="M 31.5 17.9 C 31.5 16.9 32.4 16.3 33.2 16.3 C 34.1 16.3 35.0 16.9 35.0 17.9 L 35.0 36.0 C 35.0 37.1 34.1 37.6 33.2 37.6 C 32.4 37.6 31.5 37.1 31.5 36.0 Z" transform="scale(1,-1)" stroke-dasharray="46.795712916665565" stroke-dashoffset="46.795712916665565"><animate attributeName="stroke-dashoffset" from="46.795712916665565" to="0" dur="1.4038713874999669s" begin="anim5.end" fill="freeze" id="anim_end" /></path></g></svg>