<?xml version='1.0' encoding='utf-8'?>
<svg viewBox="0 -44.0 50.0 50.0" version="1.1" xmlns="http://www.w3.org/2000/svg"><rect x="-1000" y="-1000" width="2000" height="2000" stroke="white" fill="white" /><g style="fill:none;stroke:#000000;stroke-width:1"><path d="M 10.1 -2.5 C 10.1 -3.5 10.9 -4.0 11.8 -4.0 C 12.7 -4.0 13.5 -3.5 13.5 -2.5 L 13.5 17.7 C 14.9 17.9 16.3 18.1 17.7 18.3 C 17.9 17.8 18.1 17.3 18.3 16.8 C 18.6 16.0 19.2 15.7 19.8 15.7 C 20.7 15.7 21.6 16.4 21.6 17.4 C 21.6 17.6 21.6 17.8 21.5 18.1 C 20.7 20.0 19.2 22.5 17.8 24.2 C 17.4 24.6 17.0 24.8 16.6 24.8 C 15.8 24.8 15.0 24.2 15.0 23.4 C 15.0 23.1 15.1 22.8 15.3 22.5 C 15.6 22.0 16.0 21.5 16.3 21.0 C 14.2 20.7 12.2 20.5 10.1 20.4 C 13.0 24.0 16.1 28.5 18.2 32.3 C 18.4 32.7 18.5 33.1 18.5 33.4 C 18.5 34.5 17.7 35.1 16.8 35.1 C 16.2 35.1 15.6 34.8 15.2 34.1 C 14.3 32.2 13.2 30.2 11.8 28.1 C 11.1 29.0 10.3 30.0 9.5 30.9 C 11.2 33.6 12.6 36.4 13.7 39.0 C 13.9 39.3 13.9 39.6 13.9 39.9 C 13.9 40.9 13.0 41.5 12.2 41.5 C 11.5 41.5 10.9 41.2 10.6 40.4 C 9.6 37.9 8.4 35.4 7.2 33.1 C 6.9 33.5 6.6 33.7 6.3 34.0 C 5.9 34.3 5.5 34.4 5.2 34.4 C 4.3 34.4 3.6 33.7 3.6 32.9 C 3.6 32.4 3.8 31.9 4.4 31.5 C 5.5 30.5 7.4 28.4 9.9 25.1 C 8.8 23.4 7.7 21.8 6.5 20.2 C 5.5 20.1 4.5 20.1 3.5 20.1 C 2.5 20.1 2.0 19.3 2.0 18.6 C 2.0 17.7 2.6 16.9 3.6 16.9 C 5.7 16.9 7.9 17.1 10.1 17.3 Z " transform="scale(1,-1)" stroke-dasharray="165.35123087410784" stroke-dashoffset="165.35123087410784"><animate attributeName="stroke-dashoffset" from="165.35123087410784" to="0" dur="4.960536926223235s" begin="0s; 15s; 30s; 45s; 60s" fill="freeze" id="anim0" /></path><path d="M 30.2 20.5 C 28.9 14.2 27.1 7.9 24.8 1.9 C 23.9 1.8 23.0 1.7 22.1 1.6 C 20.9 1.6 20.4 0.8 20.4 -0.1 C 20.4 -1.0 21.1 -1.9 22.4 -1.8 C 28.6 -1.2 35.8 0.1 42.2 2.0 C 42.7 1.0 43.1 0.1 43.5 -0.9 C 43.9 -1.9 44.6 -2.4 45.3 -2.4 C 46.2 -2.4 47.0 -1.7 47.0 -0.5 C 47.0 -0.2 46.9 0.2 46.8 0.7 C 45.1 4.7 42.2 9.2 40.0 12.0 C 39.5 12.6 38.9 12.9 38.4 12.9 C 37.5 12.9 36.8 12.2 36.8 11.5 C 36.8 11.1 37.0 10.7 37.2 10.3 C 38.4 8.8 39.7 6.8 40.9 4.6 C 38.9 4.2 36.9 3.7 34.9 3.4 C 32.8 3.0 30.7 2.6 28.5 2.3 C 30.8 8.2 32.5 14.4 34.0 20.5 L 46.0 20.5 C 47.0 20.5 47.5 21.3 47.5 22.1 C 47.5 22.9 47.0 23.7 46.0 23.7 L 23.2 23.7 C 22.3 23.7 21.8 22.9 21.8 22.1 C 21.8 21.3 22.3 20.5 23.2 20.5 Z " transform="scale(1,-1)" stroke-dasharray="166.37708274509436" stroke-dashoffset="166.37708274509436"><animate attributeName="stroke-dashoffset" from="166.37708274509436" to="0" dur="4.99131248235283s" begin="anim0.end" fill="freeze" id="anim1" /></path><path d="M 42.8 34.0 C 43.8 34.0 44.2 34.8 44.2 35.6 C 44.2 36.4 43.8 37.1 42.8 37.1 L 25.6 37.1 C 24.6 37.1 24.1 36.4 24.1 35.6 C 24.1 34.8 24.6 34.0 25.6 34.0 Z " transform="scale(1,-1)" stroke-dasharray="43.97409201318565" stroke-dashoffset="43.97409201318565"><animate attributeName="stroke-dashoffset" from="43.97409201318565" to="0" dur="1.3192227603955693s" begin="anim1.end" fill="freeze" id="anim2" /></path><path d="M 18.2 13.2 C 17.8 13.8 17.2 14.1 16.7 14.1 C 16.0 14.1 15.2 13.5 15.2 12.7 C 15.2 12.5 15.3 12.2 15.5 11.9 C 16.3 10.2 17.2 7.5 17.7 5.2 C 17.9 4.2 18.6 3.7 19.3 3.7 C 20.2 3.7 21.2 4.5 20.9 6.0 C 20.4 8.5 19.2 11.6 18.2 13.2 Z " transform="scale(1,-1)" stroke-dasharray="25.347051881177837" stroke-dashoffset="25.347051881177837"><animate attributeName="stroke-dashoffset" from="25.347051881177837" to="0" dur="0.7604115564353351s" begin="anim2.end" fill="freeze" id="anim3" /></path><path d="M 4.7 11.9 C 4.5 9.3 3.7 5.4 2.8 3.0 C 2.7 2.7 2.6 2.4 2.6 2.2 C 2.6 1.2 3.4 0.6 4.2 0.6 C 4.8 0.6 5.4 1.0 5.8 1.9 C 6.9 4.7 7.7 8.6 7.9 11.7 C 8.0 12.9 7.1 13.5 6.2 13.5 C 5.5 13.5 4.8 13.0 4.7 11.9 Z" transform="scale(1,-1)" stroke-dasharray="29.959141495407735" stroke-dashoffset="29.959141495407735"><animate attributeName="stroke-dashoffset" from="29.959141495407735" to="0" dur="0.898774244862232s" begin="anim3.end" fill="freeze" id="anim_end" /></path></g></svg>