<?xml version='1.0' encoding='utf-8'?>
<svg viewBox="0 -44.0 50.0 50.0" version="1.1" xmlns="http://www.w3.org/2000/svg"><rect x="-1000" y="-1000" width="2000" height="2000" stroke="white" fill="white" /><g style="fill:none;stroke:#000000;stroke-width:1"><path d="M 34.7 3.4 C 37.7 3.4 38.9 4.7 38.9 7.1 L 38.9 12.1 C 38.9 14.5 37.7 15.8 34.7 15.8 L 30.5 15.8 C 27.6 15.8 26.4 14.5 26.4 12.1 L 26.4 7.1 C 26.4 4.3 27.9 3.5 30.5 3.4 Z " transform="scale(1,-1)" stroke-dasharray="44.00545246076257" stroke-dashoffset="44.00545246076257"><animate attributeName="stroke-dashoffset" from="44.00545246076257" to="0" dur="1.320163573822877s" begin="0s; 15s; 30s; 45s; 60s" fill="freeze" id="anim0" /></path><path d="M 31.0 6.3 C 30.0 6.3 29.6 6.7 29.6 7.7 L 29.6 11.5 C 29.6 12.5 30.0 12.9 31.0 12.9 L 34.2 12.9 C 35.2 12.9 35.6 12.5 35.6 11.5 L 35.6 7.7 C 35.6 6.7 35.2 6.3 34.2 6.3 Z " transform="scale(1,-1)" stroke-dasharray="23.219868710404988" stroke-dashoffset="23.219868710404988"><animate attributeName="stroke-dashoffset" from="23.219868710404988" to="0" dur="0.6965960613121496s" begin="anim0.end" fill="freeze" id="anim1" /></path><path d="M 7.9 -2.5 C 7.9 -3.6 8.7 -4.0 9.6 -4.0 C 10.5 -4.0 11.3 -3.6 11.3 -2.5 L 11.3 16.3 C 12.6 15.4 13.6 14.5 14.7 13.4 C 15.1 13.0 15.5 12.8 15.9 12.8 C 16.8 12.8 17.6 13.6 17.6 14.5 C 17.6 15.0 17.4 15.6 16.8 16.0 C 15.2 17.4 13.2 18.8 11.4 19.9 C 13.5 22.7 15.2 25.6 16.3 28.4 C 16.6 29.2 16.8 29.9 16.8 30.5 C 16.8 32.1 15.5 33.2 13.1 33.2 L 11.3 33.2 L 11.3 40.5 C 11.3 41.5 10.5 42.0 9.6 42.0 C 8.7 42.0 7.9 41.5 7.9 40.5 L 7.9 33.2 L 3.5 33.2 C 2.6 33.2 2.1 32.5 2.1 31.7 C 2.1 31.0 2.6 30.2 3.5 30.2 L 12.2 30.2 C 12.8 30.2 13.1 30.0 13.1 29.7 C 13.1 29.6 13.0 29.5 13.0 29.2 C 11.2 24.6 7.1 18.6 2.3 14.9 C 1.7 14.4 1.5 13.9 1.5 13.4 C 1.5 12.6 2.1 11.9 3.0 11.9 C 3.4 11.9 3.7 12.0 4.0 12.2 C 5.4 13.2 6.6 14.4 7.9 15.7 Z " transform="scale(1,-1)" stroke-dasharray="145.58754377223914" stroke-dashoffset="145.58754377223914"><animate attributeName="stroke-dashoffset" from="145.58754377223914" to="0" dur="4.367626313167174s" begin="anim1.end" fill="freeze" id="anim2" /></path><path d="M 42.8 35.4 C 42.8 38.3 41.4 40.0 37.5 40.0 L 28.1 40.0 C 24.4 40.0 22.9 38.3 22.9 35.4 L 22.9 22.6 C 19.6 22.3 18.6 20.5 18.6 17.9 L 18.6 -2.5 C 18.6 -3.4 19.5 -3.8 20.4 -3.8 C 21.2 -3.8 22.2 -3.4 22.2 -2.5 L 22.2 17.4 C 22.2 19.1 22.7 19.7 24.8 19.7 L 40.9 19.7 C 42.8 19.7 43.4 19.1 43.4 17.4 L 43.4 1.8 C 43.4 0.5 42.9 0.0 41.9 0.0 C 41.1 0.0 40.2 0.1 39.5 0.2 C 38.1 0.6 37.5 -0.4 37.5 -1.4 C 37.5 -2.1 37.9 -2.9 38.8 -3.1 C 39.8 -3.2 40.8 -3.4 42.1 -3.4 C 45.0 -3.4 47.0 -2.1 47.0 1.2 L 47.0 17.9 C 47.0 20.4 45.9 22.2 42.8 22.6 Z " transform="scale(1,-1)" stroke-dasharray="188.57813279445247" stroke-dashoffset="188.57813279445247"><animate attributeName="stroke-dashoffset" from="188.57813279445247" to="0" dur="5.657343983833574s" begin="anim2.end" fill="freeze" id="anim3" /></path><path d="M 39.3 29.6 L 39.3 22.6 L 34.1 22.6 L 34.1 28.2 C 34.1 29.2 34.5 29.6 35.8 29.6 Z " transform="scale(1,-1)" stroke-dasharray="23.875806786976725" stroke-dashoffset="23.875806786976725"><animate attributeName="stroke-dashoffset" from="23.875806786976725" to="0" dur="0.7162742036093017s" begin="anim3.end" fill="freeze" id="anim4" /></path><path d="M 39.3 32.5 L 35.0 32.5 C 31.9 32.5 30.9 31.4 30.9 28.7 L 30.9 22.6 L 26.3 22.6 L 26.3 34.9 C 26.3 36.5 27.0 37.0 28.8 37.0 L 36.6 37.0 C 38.7 37.0 39.3 36.5 39.3 34.9 Z" transform="scale(1,-1)" stroke-dasharray="51.893644025073854" stroke-dashoffset="51.893644025073854"><animate attributeName="stroke-dashoffset" from="51.893644025073854" to="0" dur="1.5568093207522156s" begin="anim4.end" fill="freeze" id="anim_end" /></path></g></svg>