<?xml version='1.0' encoding='utf-8'?>
<svg viewBox="0 -44.0 50.0 50.0" version="1.1" xmlns="http://www.w3.org/2000/svg"><rect x="-1000" y="-1000" width="2000" height="2000" stroke="white" fill="white" /><g style="fill:none;stroke:#000000;stroke-width:1"><path d="M 8.4 -2.6 C 8.4 -3.6 9.2 -4.0 10.1 -4.0 C 10.9 -4.0 11.8 -3.6 11.8 -2.6 L 11.8 17.8 C 12.9 17.9 14.0 18.1 15.1 18.2 C 15.2 17.7 15.5 17.2 15.7 16.7 C 15.9 15.9 16.4 15.6 17.1 15.6 C 17.9 15.6 18.7 16.2 18.7 17.2 C 18.7 17.4 18.7 17.7 18.6 17.9 C 17.9 20.0 16.5 22.2 15.2 23.9 C 14.9 24.4 14.5 24.6 14.1 24.6 C 13.3 24.6 12.6 24.0 12.6 23.2 C 12.6 23.0 12.7 22.7 12.9 22.4 C 13.2 22.0 13.5 21.4 13.8 20.9 C 12.1 20.6 10.3 20.5 8.6 20.4 C 11.2 23.9 14.1 28.6 16.0 32.5 C 16.2 32.9 16.2 33.2 16.2 33.5 C 16.2 34.6 15.4 35.2 14.6 35.2 C 14.0 35.2 13.4 34.9 13.1 34.2 C 12.2 32.4 11.2 30.4 10.2 28.4 C 9.5 29.2 8.8 30.1 8.1 30.9 C 9.6 33.6 11.0 36.5 12.1 39.5 C 12.2 39.7 12.2 40.0 12.2 40.2 C 12.2 41.1 11.3 41.7 10.5 41.7 C 9.8 41.7 9.2 41.4 8.9 40.6 C 8.0 38.0 7.0 35.5 5.9 33.2 C 5.6 33.5 5.4 33.8 5.1 34.0 C 4.8 34.2 4.4 34.4 4.0 34.4 C 3.2 34.4 2.5 33.7 2.5 32.9 C 2.5 32.4 2.7 31.9 3.2 31.5 C 4.2 30.5 6.0 28.6 8.5 25.4 C 7.4 23.6 6.3 21.9 5.2 20.2 C 4.4 20.1 3.6 20.1 2.8 20.1 C 1.8 20.1 1.3 19.3 1.3 18.6 C 1.3 17.7 1.9 16.9 2.9 16.9 C 4.7 17.0 6.6 17.2 8.4 17.4 Z " transform="scale(1,-1)" stroke-dasharray="159.64112170036475" stroke-dashoffset="159.64112170036475"><animate attributeName="stroke-dashoffset" from="159.64112170036475" to="0" dur="4.789233651010942s" begin="0s; 15s; 30s; 45s; 60s" fill="freeze" id="anim0" /></path><path d="M 28.1 24.6 L 28.9 24.6 C 31.5 24.6 32.5 25.6 32.5 27.7 L 32.5 30.2 C 32.5 32.2 31.5 33.3 28.9 33.3 L 28.1 33.3 L 28.1 37.4 L 32.0 37.4 C 32.9 37.4 33.3 38.1 33.3 38.8 C 33.3 39.5 32.9 40.2 32.0 40.2 L 23.7 40.2 C 20.0 40.2 18.9 39.1 18.9 36.1 L 18.9 21.4 C 18.9 18.4 20.0 17.2 23.7 17.2 L 31.9 17.2 C 32.8 17.2 33.2 17.9 33.2 18.7 C 33.2 19.4 32.8 20.1 31.9 20.1 L 28.1 20.1 Z " transform="scale(1,-1)" stroke-dasharray="86.15730039445042" stroke-dashoffset="86.15730039445042"><animate attributeName="stroke-dashoffset" from="86.15730039445042" to="0" dur="2.5847190118335126s" begin="anim0.end" fill="freeze" id="anim1" /></path><path d="M 25.2 24.6 L 25.2 20.1 L 24.1 20.1 C 22.2 20.1 21.9 20.4 21.9 21.9 L 21.9 24.6 Z " transform="scale(1,-1)" stroke-dasharray="15.036863700893427" stroke-dashoffset="15.036863700893427"><animate attributeName="stroke-dashoffset" from="15.036863700893427" to="0" dur="0.4511059110268028s" begin="anim1.end" fill="freeze" id="anim2" /></path><path d="M 21.9 27.2 L 21.9 30.7 L 28.3 30.7 C 29.4 30.7 29.6 30.5 29.6 29.7 L 29.6 28.2 C 29.6 27.4 29.4 27.2 28.3 27.2 Z " transform="scale(1,-1)" stroke-dasharray="21.725359154914013" stroke-dashoffset="21.725359154914013"><animate attributeName="stroke-dashoffset" from="21.725359154914013" to="0" dur="0.6517607746474203s" begin="anim2.end" fill="freeze" id="anim3" /></path><path d="M 21.9 33.3 L 21.9 35.6 C 21.9 37.1 22.2 37.4 24.1 37.4 L 25.2 37.4 L 25.2 33.3 Z " transform="scale(1,-1)" stroke-dasharray="14.23686370089343" stroke-dashoffset="14.23686370089343"><animate attributeName="stroke-dashoffset" from="14.23686370089343" to="0" dur="0.4271059110268029s" begin="anim3.end" fill="freeze" id="anim4" /></path><path d="M 21.1 0.6 L 17.9 0.6 C 16.9 0.6 16.4 -0.2 16.4 -1.0 C 16.4 -1.7 16.9 -2.5 17.9 -2.5 L 47.0 -2.5 C 48.0 -2.5 48.4 -1.7 48.4 -1.0 C 48.4 -0.2 48.0 0.6 47.0 0.6 L 44.7 0.6 L 44.7 9.4 C 44.7 12.4 43.3 13.8 39.8 13.8 L 25.9 13.8 C 22.4 13.8 21.1 12.4 21.1 9.4 Z " transform="scale(1,-1)" stroke-dasharray="90.81241134076376" stroke-dashoffset="90.81241134076376"><animate attributeName="stroke-dashoffset" from="90.81241134076376" to="0" dur="2.7243723402229127s" begin="anim4.end" fill="freeze" id="anim5" /></path><path d="M 37.6 10.9 L 39.2 10.9 C 41.0 10.9 41.4 10.4 41.4 8.8 L 41.4 0.6 L 37.6 0.6 Z " transform="scale(1,-1)" stroke-dasharray="27.52340088879349" stroke-dashoffset="27.52340088879349"><animate attributeName="stroke-dashoffset" from="27.52340088879349" to="0" dur="0.8257020266638047s" begin="anim5.end" fill="freeze" id="anim6" /></path><path d="M 34.5 10.9 L 34.5 0.6 L 31.0 0.6 L 31.0 10.9 Z " transform="scale(1,-1)" stroke-dasharray="27.6" stroke-dashoffset="27.6"><animate attributeName="stroke-dashoffset" from="27.6" to="0" dur="0.828s" begin="anim6.end" fill="freeze" id="anim7" /></path><path d="M 27.8 10.9 L 27.8 0.6 L 24.4 0.6 L 24.4 8.8 C 24.4 10.4 24.8 10.9 26.6 10.9 Z " transform="scale(1,-1)" stroke-dasharray="26.7234008887935" stroke-dashoffset="26.7234008887935"><animate attributeName="stroke-dashoffset" from="26.7234008887935" to="0" dur="0.801702026663805s" begin="anim7.end" fill="freeze" id="anim8" /></path><path d="M 46.8 30.6 C 47.8 30.6 48.2 31.4 48.2 32.1 C 48.2 32.9 47.8 33.6 46.8 33.6 L 39.8 33.6 C 40.5 35.3 41.0 37.0 41.5 38.7 C 41.8 40.0 40.8 40.8 39.8 40.8 C 39.1 40.8 38.4 40.4 38.1 39.4 C 37.3 35.8 35.9 32.1 34.2 29.5 C 34.0 29.1 33.9 28.7 33.9 28.4 C 33.9 27.5 34.6 26.9 35.4 26.9 C 35.9 26.9 36.5 27.2 36.9 27.8 C 37.4 28.7 38.0 29.6 38.5 30.6 Z " transform="scale(1,-1)" stroke-dasharray="50.079769070418074" stroke-dashoffset="50.079769070418074"><animate attributeName="stroke-dashoffset" from="50.079769070418074" to="0" dur="1.5023930721125422s" begin="anim8.end" fill="freeze" id="anim9" /></path><path d="M 15.9 13.4 C 15.5 14.0 15.0 14.2 14.5 14.2 C 13.8 14.2 13.1 13.7 13.1 12.9 C 13.1 12.7 13.2 12.4 13.2 12.2 C 14.0 10.7 14.7 8.4 15.2 6.2 C 15.4 5.2 16.0 4.8 16.7 4.8 C 17.6 4.8 18.5 5.7 18.2 7.2 C 17.8 9.2 16.7 12.0 15.9 13.4 Z " transform="scale(1,-1)" stroke-dasharray="22.995004677504898" stroke-dashoffset="22.995004677504898"><animate attributeName="stroke-dashoffset" from="22.995004677504898" to="0" dur="0.6898501403251469s" begin="anim9.end" fill="freeze" id="anim10" /></path><path d="M 3.6 12.0 C 3.4 9.1 2.6 5.4 1.7 3.1 C 1.6 2.8 1.6 2.5 1.6 2.2 C 1.6 1.4 2.2 0.8 3.0 0.8 C 3.7 0.8 4.4 1.2 4.7 2.1 C 5.8 4.7 6.6 8.7 6.7 11.8 C 6.8 12.9 6.0 13.5 5.2 13.5 C 4.4 13.5 3.6 13.0 3.6 12.0 Z " transform="scale(1,-1)" stroke-dasharray="29.530867443293083" stroke-dashoffset="29.530867443293083"><animate attributeName="stroke-dashoffset" from="29.530867443293083" to="0" dur="0.8859260232987924s" begin="anim10.end" fill="freeze" id="anim11" /></path><path d="M 45.2 21.2 C 46.2 21.2 46.7 22.0 46.7 22.7 C 46.7 23.5 46.2 24.2 45.2 24.2 L 36.8 24.2 C 35.9 24.2 35.4 23.5 35.4 22.7 C 35.4 22.0 35.9 21.2 36.8 21.2 Z" transform="scale(1,-1)" stroke-dasharray="26.14233161799594" stroke-dashoffset="26.14233161799594"><animate attributeName="stroke-dashoffset" from="26.14233161799594" to="0" dur="0.7842699485398782s" begin="anim11.end" fill="freeze" id="anim_end" /></path></g></svg>