<?xml version='1.0' encoding='utf-8'?>
<svg viewBox="0 -44.0 50.0 50.0" version="1.1" xmlns="http://www.w3.org/2000/svg"><rect x="-1000" y="-1000" width="2000" height="2000" stroke="white" fill="white" /><g style="fill:none;stroke:#000000;stroke-width:1"><path d="M 24.9 15.1 C 28.2 15.1 29.2 16.4 29.2 19.1 L 29.2 24.0 C 29.2 26.6 28.2 28.0 24.9 28.0 L 23.0 28.0 L 23.0 32.4 L 28.5 32.4 C 29.5 32.4 30.0 33.1 30.0 33.9 C 30.0 34.6 29.5 35.4 28.5 35.4 L 23.0 35.4 L 23.0 40.4 C 23.0 41.4 22.2 41.9 21.4 41.9 C 20.6 41.9 19.8 41.4 19.8 40.4 L 19.8 35.4 L 14.5 35.4 C 13.5 35.4 13.0 34.6 13.0 33.9 C 13.0 33.1 13.5 32.4 14.5 32.4 L 19.8 32.4 L 19.8 28.0 L 17.8 28.0 C 14.4 28.0 13.5 26.6 13.5 24.0 L 13.5 19.1 C 13.5 16.4 14.4 15.1 17.8 15.1 L 18.9 15.1 C 16.9 10.7 14.0 6.5 11.2 3.8 C 10.7 3.2 10.5 2.8 10.5 2.3 C 10.5 1.5 11.2 0.9 12.0 0.9 C 12.5 0.9 13.0 1.1 13.5 1.6 C 16.2 4.4 18.4 7.7 20.1 10.9 L 19.8 3.8 L 19.8 -2.5 C 19.8 -3.5 20.6 -4.0 21.4 -4.0 C 22.2 -4.0 23.0 -3.5 23.0 -2.5 L 23.0 8.6 C 24.1 7.8 25.0 6.9 26.0 5.9 C 26.5 5.4 27.0 5.1 27.5 5.1 C 28.3 5.1 29.0 5.8 29.0 6.7 C 29.0 7.2 28.8 7.7 28.2 8.2 C 26.8 9.5 25.0 10.8 23.0 11.9 L 23.0 15.1 Z " transform="scale(1,-1)" stroke-dasharray="178.7957527547797" stroke-dashoffset="178.7957527547797"><animate attributeName="stroke-dashoffset" from="178.7957527547797" to="0" dur="5.363872582643391s" begin="0s; 15s; 30s; 45s; 60s" fill="freeze" id="anim0" /></path><path d="M 23.0 17.8 L 23.0 25.2 L 24.4 25.2 C 25.9 25.2 26.2 24.8 26.2 23.6 L 26.2 19.5 C 26.2 18.2 25.7 17.8 24.4 17.8 Z " transform="scale(1,-1)" stroke-dasharray="20.075504519372675" stroke-dashoffset="20.075504519372675"><animate attributeName="stroke-dashoffset" from="20.075504519372675" to="0" dur="0.6022651355811802s" begin="anim0.end" fill="freeze" id="anim1" /></path><path d="M 19.8 25.2 L 19.8 17.8 L 18.4 17.8 C 16.8 17.8 16.5 18.4 16.5 19.5 L 16.5 23.6 C 16.5 24.8 16.8 25.2 18.4 25.2 Z " transform="scale(1,-1)" stroke-dasharray="20.254787543909348" stroke-dashoffset="20.254787543909348"><animate attributeName="stroke-dashoffset" from="20.254787543909348" to="0" dur="0.6076436263172804s" begin="anim1.end" fill="freeze" id="anim2" /></path><path d="M 42.4 5.2 C 45.5 5.2 46.7 6.6 46.7 9.1 L 46.7 21.8 C 46.7 24.3 45.5 25.6 42.4 25.6 L 36.3 25.6 C 33.2 25.6 32.0 24.3 32.0 21.8 L 32.0 9.1 C 32.1 6.2 33.6 5.3 36.3 5.2 Z " transform="scale(1,-1)" stroke-dasharray="64.16953437011368" stroke-dashoffset="64.16953437011368"><animate attributeName="stroke-dashoffset" from="64.16953437011368" to="0" dur="1.9250860311034104s" begin="anim2.end" fill="freeze" id="anim3" /></path><path d="M 36.9 8.1 C 35.6 8.1 35.2 8.4 35.2 9.5 L 35.2 11.3 L 43.5 11.3 L 43.5 9.5 C 43.5 8.3 43.0 8.1 41.9 8.1 Z " transform="scale(1,-1)" stroke-dasharray="22.02023979871732" stroke-dashoffset="22.02023979871732"><animate attributeName="stroke-dashoffset" from="22.02023979871732" to="0" dur="0.6606071939615196s" begin="anim3.end" fill="freeze" id="anim4" /></path><path d="M 35.2 17.1 L 43.5 17.1 L 43.5 14.0 L 35.2 14.0 Z " transform="scale(1,-1)" stroke-dasharray="22.799999999999997" stroke-dashoffset="22.799999999999997"><animate attributeName="stroke-dashoffset" from="22.799999999999997" to="0" dur="0.6839999999999999s" begin="anim4.end" fill="freeze" id="anim5" /></path><path d="M 43.5 19.8 L 35.2 19.8 L 35.2 21.4 C 35.2 22.5 35.6 22.8 36.9 22.8 L 41.9 22.8 C 43.1 22.8 43.5 22.5 43.5 21.4 Z " transform="scale(1,-1)" stroke-dasharray="21.615228171028203" stroke-dashoffset="21.615228171028203"><animate attributeName="stroke-dashoffset" from="21.615228171028203" to="0" dur="0.6484568451308461s" begin="anim5.end" fill="freeze" id="anim6" /></path><path d="M 35.8 36.6 C 35.1 33.6 33.3 31.3 30.8 29.8 C 30.2 29.4 29.9 28.8 29.9 28.3 C 29.9 27.5 30.6 26.8 31.5 26.8 C 31.7 26.8 32.1 26.9 32.4 27.1 C 35.8 29.1 38.1 32.5 39.0 36.6 L 42.4 36.6 C 43.6 36.6 43.9 36.4 43.9 35.5 C 43.8 34.5 43.6 32.9 43.2 31.9 C 42.9 30.8 42.4 30.4 41.6 30.4 C 41.2 30.4 40.7 30.5 40.2 30.6 C 39.2 30.8 38.5 29.9 38.5 29.1 C 38.5 28.5 38.8 27.9 39.7 27.7 C 40.4 27.5 41.0 27.5 41.9 27.5 C 44.3 27.5 45.5 28.4 46.2 31.2 C 46.6 32.6 47.0 34.6 47.0 35.9 C 47.2 38.6 45.7 39.6 42.9 39.6 L 32.5 39.6 C 31.6 39.6 31.1 38.9 31.1 38.1 C 31.1 37.4 31.6 36.6 32.5 36.6 Z " transform="scale(1,-1)" stroke-dasharray="81.55317666517635" stroke-dashoffset="81.55317666517635"><animate attributeName="stroke-dashoffset" from="81.55317666517635" to="0" dur="2.4465952999552907s" begin="anim6.end" fill="freeze" id="anim7" /></path><path d="M 34.4 3.7 C 33.0 2.2 30.9 0.6 29.0 -0.6 C 28.2 -1.0 27.9 -1.6 27.9 -2.1 C 27.9 -3.0 28.6 -3.7 29.5 -3.7 C 29.9 -3.7 30.2 -3.6 30.7 -3.4 C 33.0 -2.1 35.1 -0.3 36.9 1.6 C 37.3 2.1 37.5 2.5 37.5 2.9 C 37.5 3.8 36.8 4.4 35.9 4.4 C 35.4 4.4 34.9 4.2 34.4 3.7 Z " transform="scale(1,-1)" stroke-dasharray="26.256052704094877" stroke-dashoffset="26.256052704094877"><animate attributeName="stroke-dashoffset" from="26.256052704094877" to="0" dur="0.7876815811228463s" begin="anim7.end" fill="freeze" id="anim8" /></path><path d="M 43.6 3.7 C 43.2 4.2 42.6 4.4 42.1 4.4 C 41.2 4.4 40.6 3.8 40.6 3.0 C 40.6 2.6 40.7 2.2 41.0 1.9 C 42.4 0.2 44.2 -1.6 45.7 -2.7 C 46.2 -3.1 46.6 -3.2 47.0 -3.2 C 48.0 -3.2 48.6 -2.5 48.6 -1.6 C 48.6 -1.1 48.4 -0.5 47.8 -0.1 C 46.4 1.0 44.7 2.5 43.6 3.7 Z " transform="scale(1,-1)" stroke-dasharray="23.212926711373797" stroke-dashoffset="23.212926711373797"><animate attributeName="stroke-dashoffset" from="23.212926711373797" to="0" dur="0.6963878013412139s" begin="anim8.end" fill="freeze" id="anim9" /></path><path d="M 7.6 40.3 C 7.2 40.6 6.8 40.7 6.4 40.7 C 5.5 40.7 4.7 40.0 4.7 39.1 C 4.7 38.7 4.9 38.1 5.5 37.6 C 6.4 36.8 7.9 35.4 8.9 34.1 C 9.3 33.6 9.9 33.4 10.4 33.4 C 11.3 33.4 12.2 34.1 12.2 35.1 C 12.2 35.6 12.0 36.1 11.6 36.6 C 10.6 37.8 8.8 39.5 7.6 40.3 Z " transform="scale(1,-1)" stroke-dasharray="22.081199099293706" stroke-dashoffset="22.081199099293706"><animate attributeName="stroke-dashoffset" from="22.081199099293706" to="0" dur="0.6624359729788112s" begin="anim9.end" fill="freeze" id="anim10" /></path><path d="M 4.7 28.1 C 4.2 28.3 3.9 28.4 3.5 28.4 C 2.5 28.4 1.7 27.7 1.7 26.8 C 1.7 26.4 2.0 25.8 2.6 25.4 C 3.5 24.7 5.2 23.2 6.2 22.0 C 6.7 21.5 7.2 21.2 7.7 21.2 C 8.6 21.2 9.4 22.1 9.4 23.1 C 9.4 23.6 9.2 24.1 8.8 24.6 C 7.7 25.8 5.9 27.2 4.7 28.1 Z " transform="scale(1,-1)" stroke-dasharray="22.20654215462483" stroke-dashoffset="22.20654215462483"><animate attributeName="stroke-dashoffset" from="22.20654215462483" to="0" dur="0.6661962646387449s" begin="anim10.end" fill="freeze" id="anim11" /></path><path d="M 8.2 12.9 C 7.1 8.7 5.1 3.5 3.1 0.2 C 2.9 -0.2 2.8 -0.6 2.8 -1.0 C 2.8 -2.0 3.5 -2.6 4.4 -2.6 C 5.0 -2.6 5.7 -2.2 6.1 -1.5 C 8.2 2.1 10.4 7.6 11.6 12.0 C 11.7 12.2 11.7 12.4 11.7 12.7 C 11.7 13.8 10.9 14.4 10.0 14.4 C 9.3 14.4 8.6 13.9 8.2 12.9 Z" transform="scale(1,-1)" stroke-dasharray="40.14640864905829" stroke-dashoffset="40.14640864905829"><animate attributeName="stroke-dashoffset" from="40.14640864905829" to="0" dur="1.2043922594717487s" begin="anim11.end" fill="freeze" id="anim_end" /></path></g></svg>