<?xml version='1.0' encoding='utf-8'?>
<svg viewBox="0 -44.0 50.0 50.0" version="1.1" xmlns="http://www.w3.org/2000/svg"><rect x="-1000" y="-1000" width="2000" height="2000" stroke="white" fill="white" /><g style="fill:none;stroke:#000000;stroke-width:1"><path d="M 38.6 8.8 C 42.1 8.8 43.6 10.1 43.6 13.0 L 43.6 19.4 C 43.6 22.3 42.1 23.5 38.6 23.5 L 25.2 23.5 C 21.7 23.5 20.1 22.3 20.1 19.4 L 20.1 13.0 C 20.1 10.1 21.7 8.8 25.2 8.8 L 29.9 8.8 L 29.9 6.0 L 20.9 6.0 C 20.0 6.0 19.5 5.2 19.5 4.5 C 19.5 3.8 20.0 3.1 20.9 3.1 L 29.9 3.1 L 29.9 0.0 L 17.0 0.0 C 16.1 0.0 15.6 -0.8 15.6 -1.5 C 15.6 -2.2 16.1 -3.0 17.0 -3.0 L 46.1 -3.0 C 47.0 -3.0 47.5 -2.2 47.5 -1.5 C 47.5 -0.8 47.0 0.0 46.1 0.0 L 33.2 0.0 L 33.2 3.1 L 42.7 3.1 C 43.7 3.1 44.1 3.8 44.1 4.5 C 44.1 5.2 43.7 6.0 42.7 6.0 L 33.2 6.0 L 33.2 8.8 Z " transform="scale(1,-1)" stroke-dasharray="188.3482017545924" stroke-dashoffset="188.3482017545924"><animate attributeName="stroke-dashoffset" from="188.3482017545924" to="0" dur="5.650446052637772s" begin="0s; 15s; 30s; 45s; 60s" fill="freeze" id="anim0" /></path><path d="M 33.2 11.7 L 33.2 14.9 L 40.2 14.9 L 40.2 13.5 C 40.2 11.9 39.2 11.7 37.8 11.7 Z " transform="scale(1,-1)" stroke-dasharray="19.69922614482513" stroke-dashoffset="19.69922614482513"><animate attributeName="stroke-dashoffset" from="19.69922614482513" to="0" dur="0.5909767843447539s" begin="anim0.end" fill="freeze" id="anim1" /></path><path d="M 40.2 17.6 L 33.2 17.6 L 33.2 20.7 L 37.8 20.7 C 39.8 20.7 40.2 20.2 40.2 18.9 Z " transform="scale(1,-1)" stroke-dasharray="19.53830071762213" stroke-dashoffset="19.53830071762213"><animate attributeName="stroke-dashoffset" from="19.53830071762213" to="0" dur="0.5861490215286639s" begin="anim1.end" fill="freeze" id="anim2" /></path><path d="M 29.9 20.7 L 29.9 17.6 L 23.5 17.6 L 23.5 18.9 C 23.5 20.2 24.0 20.7 25.9 20.7 Z " transform="scale(1,-1)" stroke-dasharray="18.314930849142783" stroke-dashoffset="18.314930849142783"><animate attributeName="stroke-dashoffset" from="18.314930849142783" to="0" dur="0.5494479254742834s" begin="anim2.end" fill="freeze" id="anim3" /></path><path d="M 23.5 14.9 L 29.9 14.9 L 29.9 11.7 L 25.9 11.7 C 24.0 11.7 23.5 12.2 23.5 13.5 Z " transform="scale(1,-1)" stroke-dasharray="18.51493084914279" stroke-dashoffset="18.51493084914279"><animate attributeName="stroke-dashoffset" from="18.51493084914279" to="0" dur="0.5554479254742837s" begin="anim3.end" fill="freeze" id="anim4" /></path><path d="M 11.0 0.8 C 14.1 0.8 15.4 2.2 15.4 5.3 L 15.4 35.4 C 15.4 38.5 14.1 39.9 11.0 39.9 L 8.0 39.9 C 4.9 39.9 3.6 38.5 3.6 35.4 L 3.6 5.3 C 3.7 2.2 4.8 0.9 8.0 0.8 Z " transform="scale(1,-1)" stroke-dasharray="95.3122140351246" stroke-dashoffset="95.3122140351246"><animate attributeName="stroke-dashoffset" from="95.3122140351246" to="0" dur="2.8593664210537377s" begin="anim4.end" fill="freeze" id="anim5" /></path><path d="M 8.4 3.9 C 7.2 3.9 6.9 4.2 6.9 5.8 L 6.9 14.2 L 12.1 14.2 L 12.1 5.8 C 12.1 4.5 12.0 3.9 10.6 3.9 Z " transform="scale(1,-1)" stroke-dasharray="29.98786201478693" stroke-dashoffset="29.98786201478693"><animate attributeName="stroke-dashoffset" from="29.98786201478693" to="0" dur="0.8996358604436079s" begin="anim5.end" fill="freeze" id="anim6" /></path><path d="M 6.9 25.2 L 12.1 25.2 L 12.1 17.1 L 6.9 17.1 Z " transform="scale(1,-1)" stroke-dasharray="26.599999999999994" stroke-dashoffset="26.599999999999994"><animate attributeName="stroke-dashoffset" from="26.599999999999994" to="0" dur="0.7979999999999998s" begin="anim6.end" fill="freeze" id="anim7" /></path><path d="M 12.1 28.2 L 6.9 28.2 L 6.9 35.0 C 6.9 36.5 7.2 36.9 8.4 36.9 L 10.6 36.9 C 11.8 36.9 12.1 36.5 12.1 35.0 Z " transform="scale(1,-1)" stroke-dasharray="26.748467077917827" stroke-dashoffset="26.748467077917827"><animate attributeName="stroke-dashoffset" from="26.748467077917827" to="0" dur="0.8024540123375348s" begin="anim7.end" fill="freeze" id="anim8" /></path><path d="M 33.2 37.6 L 33.2 40.3 C 33.2 41.4 32.4 41.9 31.6 41.9 C 30.7 41.9 29.8 41.4 29.8 40.3 L 29.8 37.6 L 20.5 37.6 C 19.6 37.6 19.1 36.9 19.1 36.1 C 19.1 35.4 19.6 34.6 20.5 34.6 L 43.9 34.6 C 44.8 34.6 45.2 35.4 45.2 36.1 C 45.2 36.9 44.8 37.6 43.9 37.6 Z " transform="scale(1,-1)" stroke-dasharray="63.1004283431451" stroke-dashoffset="63.1004283431451"><animate attributeName="stroke-dashoffset" from="63.1004283431451" to="0" dur="1.8930128502943528s" begin="anim8.end" fill="freeze" id="anim9" /></path><path d="M 37.9 29.3 C 38.3 30.1 38.7 31.0 39.1 32.0 C 39.2 32.2 39.2 32.5 39.2 32.7 C 39.2 33.6 38.4 34.2 37.6 34.2 C 36.9 34.2 36.2 33.9 36.0 33.1 C 35.5 31.8 35.0 30.5 34.4 29.3 L 28.2 29.3 C 28.5 29.6 28.6 30.0 28.6 30.4 C 28.6 30.6 28.5 31.0 28.4 31.2 C 28.1 31.9 27.6 32.6 27.1 33.4 C 26.7 33.9 26.2 34.1 25.7 34.1 C 24.9 34.1 24.0 33.5 24.0 32.6 C 24.0 32.4 24.1 32.1 24.3 31.8 C 24.8 31.0 25.2 30.4 25.5 29.7 C 25.6 29.5 25.7 29.4 25.8 29.3 L 18.2 29.3 C 17.3 29.3 16.8 28.6 16.8 27.8 C 16.8 27.1 17.3 26.3 18.2 26.3 L 46.6 26.3 C 47.6 26.3 48.0 27.1 48.0 27.8 C 48.0 28.6 47.6 29.3 46.6 29.3 Z" transform="scale(1,-1)" stroke-dasharray="84.96125558500606" stroke-dashoffset="84.96125558500606"><animate attributeName="stroke-dashoffset" from="84.96125558500606" to="0" dur="2.5488376675501816s" begin="anim9.end" fill="freeze" id="anim_end" /></path></g></svg>