<?xml version='1.0' encoding='utf-8'?>
<svg viewBox="0 -44.0 50.0 50.0" version="1.1" xmlns="http://www.w3.org/2000/svg"><rect x="-1000" y="-1000" width="2000" height="2000" stroke="white" fill="white" /><g style="fill:none;stroke:#000000;stroke-width:1"><path d="M 33.6 16.4 L 30.0 16.4 C 26.6 16.4 25.2 15.2 25.2 12.6 L 25.2 7.1 C 25.3 4.0 27.1 3.2 30.0 3.1 L 41.1 3.1 C 44.5 3.1 45.8 4.5 45.8 7.1 L 45.8 12.6 C 45.8 15.2 44.5 16.4 41.1 16.4 L 36.9 16.4 L 36.9 18.9 L 47.2 18.9 C 48.1 18.9 48.5 19.6 48.5 20.2 C 48.5 21.0 48.1 21.7 47.2 21.7 L 23.4 21.7 C 23.4 22.8 23.4 23.9 23.4 25.0 L 23.4 28.5 L 29.0 28.5 L 29.0 26.7 C 29.0 24.2 30.3 23.5 32.9 23.5 L 37.7 23.5 C 40.2 23.5 41.6 24.2 41.6 26.7 L 41.6 28.5 L 45.9 28.5 C 46.8 28.5 47.2 29.1 47.2 29.8 C 47.2 30.4 46.8 31.1 45.9 31.1 L 41.6 31.1 L 41.6 32.6 C 41.6 33.6 40.8 34.1 40.1 34.1 C 39.3 34.1 38.6 33.6 38.6 32.6 L 38.6 31.1 L 32.0 31.1 L 32.0 32.6 C 32.0 33.6 31.2 34.1 30.5 34.1 C 29.7 34.1 29.0 33.6 29.0 32.6 L 29.0 31.1 L 23.4 31.1 L 23.4 33.0 C 23.4 34.6 24.0 35.1 26.2 35.1 L 46.3 35.1 C 47.3 35.1 47.8 35.9 47.8 36.6 C 47.8 37.4 47.3 38.1 46.3 38.1 L 35.5 38.1 L 35.5 40.7 C 35.5 41.7 34.6 42.2 33.8 42.2 C 32.9 42.2 32.1 41.7 32.1 40.7 L 32.1 38.1 L 25.5 38.1 C 21.8 38.1 20.1 36.6 20.1 33.5 L 20.1 25.0 C 20.1 12.3 18.2 5.0 14.7 -0.4 C 14.4 -0.9 14.2 -1.3 14.2 -1.7 C 14.2 -2.6 15.0 -3.2 15.8 -3.2 C 16.4 -3.2 17.0 -2.9 17.5 -2.1 C 20.8 2.8 22.7 9.1 23.2 18.9 L 33.6 18.9 Z " transform="scale(1,-1)" stroke-dasharray="314.5296679450676" stroke-dashoffset="314.5296679450676"><animate attributeName="stroke-dashoffset" from="314.5296679450676" to="0" dur="9.435890038352028s" begin="0s; 15s; 30s; 45s; 60s" fill="freeze" id="anim0" /></path><path d="M 36.9 8.7 L 42.6 8.7 L 42.6 7.4 C 42.5 6.0 41.7 5.9 40.4 5.8 L 36.9 5.8 Z " transform="scale(1,-1)" stroke-dasharray="16.50155153662575" stroke-dashoffset="16.50155153662575"><animate attributeName="stroke-dashoffset" from="16.50155153662575" to="0" dur="0.4950465460987725s" begin="anim0.end" fill="freeze" id="anim1" /></path><path d="M 33.6 8.7 L 33.6 5.8 L 30.6 5.8 C 29.0 5.8 28.5 6.2 28.5 7.4 L 28.5 8.7 Z " transform="scale(1,-1)" stroke-dasharray="15.39366404643254" stroke-dashoffset="15.39366404643254"><animate attributeName="stroke-dashoffset" from="15.39366404643254" to="0" dur="0.4618099213929762s" begin="anim1.end" fill="freeze" id="anim2" /></path><path d="M 36.9 13.8 L 40.4 13.8 C 42.1 13.8 42.6 13.5 42.6 12.2 L 42.6 11.2 L 36.9 11.2 Z " transform="scale(1,-1)" stroke-dasharray="16.01521711769625" stroke-dashoffset="16.01521711769625"><animate attributeName="stroke-dashoffset" from="16.01521711769625" to="0" dur="0.4804565135308875s" begin="anim2.end" fill="freeze" id="anim3" /></path><path d="M 33.6 13.8 L 33.6 11.2 L 28.5 11.2 L 28.5 12.2 C 28.5 13.5 29.0 13.8 30.6 13.8 Z " transform="scale(1,-1)" stroke-dasharray="14.822529430936248" stroke-dashoffset="14.822529430936248"><animate attributeName="stroke-dashoffset" from="14.822529430936248" to="0" dur="0.4446758829280874s" begin="anim3.end" fill="freeze" id="anim4" /></path><path d="M 38.6 28.5 L 38.6 27.2 C 38.6 26.2 38.1 26.1 37.1 26.1 L 33.5 26.1 C 32.4 26.1 32.0 26.2 32.0 27.2 L 32.0 28.5 Z " transform="scale(1,-1)" stroke-dasharray="17.217539175558287" stroke-dashoffset="17.217539175558287"><animate attributeName="stroke-dashoffset" from="17.217539175558287" to="0" dur="0.5165261752667486s" begin="anim4.end" fill="freeze" id="anim5" /></path><path d="M 11.9 2.9 C 14.6 2.9 16.0 3.8 16.0 7.0 L 16.0 21.1 C 16.0 24.3 14.6 25.2 11.9 25.2 L 9.2 25.2 C 8.7 25.2 8.2 25.2 7.8 25.1 C 8.9 28.6 9.9 32.2 10.4 36.0 L 16.1 36.0 C 17.1 36.0 17.6 36.7 17.6 37.5 C 17.6 38.2 17.1 39.0 16.1 39.0 L 2.9 39.0 C 1.9 39.0 1.4 38.2 1.4 37.5 C 1.4 36.7 1.9 36.0 2.9 36.0 L 7.0 36.0 C 6.1 29.7 4.0 22.4 1.2 17.9 C 1.0 17.5 0.8 17.1 0.8 16.8 C 0.8 15.9 1.5 15.3 2.2 15.3 C 2.8 15.3 3.4 15.6 3.9 16.4 C 4.4 17.2 4.8 18.1 5.3 19.0 L 5.1 13.7 L 5.1 7.0 C 5.2 4.0 6.2 3.0 9.2 2.9 Z " transform="scale(1,-1)" stroke-dasharray="124.54708103979317" stroke-dashoffset="124.54708103979317"><animate attributeName="stroke-dashoffset" from="124.54708103979317" to="0" dur="3.736412431193795s" begin="anim5.end" fill="freeze" id="anim6" /></path><path d="M 9.5 6.0 C 8.6 6.0 8.3 6.4 8.3 7.3 L 8.3 20.9 C 8.3 21.8 8.6 22.2 9.5 22.2 L 11.6 22.2 C 12.5 22.2 12.8 21.8 12.8 20.9 L 12.8 7.3 C 12.8 6.5 12.5 6.0 11.6 6.0 Z " transform="scale(1,-1)" stroke-dasharray="39.629247231102305" stroke-dashoffset="39.629247231102305"><animate attributeName="stroke-dashoffset" from="39.629247231102305" to="0" dur="1.1888774169330691s" begin="anim6.end" fill="freeze" id="anim7" /></path><path d="M 40.9 2.0 C 40.5 2.2 40.1 2.4 39.7 2.4 C 38.9 2.4 38.2 1.7 38.2 0.9 C 38.2 0.4 38.5 -0.1 39.1 -0.6 C 40.8 -1.9 43.0 -3.2 45.2 -4.1 C 45.5 -4.2 45.8 -4.3 46.0 -4.3 C 47.0 -4.3 47.6 -3.5 47.6 -2.7 C 47.6 -2.1 47.2 -1.4 46.5 -1.1 C 44.5 -0.2 42.5 1.0 40.9 2.0 Z " transform="scale(1,-1)" stroke-dasharray="24.283969864283417" stroke-dashoffset="24.283969864283417"><animate attributeName="stroke-dashoffset" from="24.283969864283417" to="0" dur="0.7285190959285025s" begin="anim7.end" fill="freeze" id="anim8" /></path><path d="M 29.8 2.0 C 27.7 0.5 24.9 -0.7 22.4 -1.5 C 21.5 -1.8 21.1 -2.5 21.1 -3.1 C 21.1 -3.9 21.8 -4.7 22.8 -4.7 C 23.0 -4.7 23.2 -4.6 23.4 -4.5 C 26.1 -3.7 29.5 -2.1 31.6 -0.7 C 32.2 -0.2 32.5 0.4 32.5 0.9 C 32.5 1.7 31.8 2.4 31.0 2.4 C 30.6 2.4 30.2 2.2 29.8 2.0 Z" transform="scale(1,-1)" stroke-dasharray="28.22417790962498" stroke-dashoffset="28.22417790962498"><animate attributeName="stroke-dashoffset" from="28.22417790962498" to="0" dur="0.8467253372887494s" begin="anim8.end" fill="freeze" id="anim_end" /></path></g></svg>