<?xml version='1.0' encoding='utf-8'?>
<svg viewBox="0 -44.0 50.0 50.0" version="1.1" xmlns="http://www.w3.org/2000/svg"><rect x="-1000" y="-1000" width="2000" height="2000" stroke="white" fill="white" /><g style="fill:none;stroke:#000000;stroke-width:1"><path d="M 38.6 28.6 C 42.1 28.6 43.4 29.8 43.4 32.1 L 43.4 36.0 C 43.4 38.4 42.1 39.6 38.6 39.6 L 11.8 39.6 C 8.2 39.6 7.0 38.4 7.0 36.0 L 7.0 32.1 C 7.1 29.2 9.2 28.7 11.8 28.6 Z " transform="scale(1,-1)" stroke-dasharray="88.81521101040434" stroke-dashoffset="88.81521101040434"><animate attributeName="stroke-dashoffset" from="88.81521101040434" to="0" dur="2.66445633031213s" begin="0s; 15s; 30s; 45s; 60s" fill="freeze" id="anim0" /></path><path d="M 31.9 31.3 L 31.9 36.9 L 38.1 36.9 C 39.6 36.9 40.0 36.5 40.0 35.5 L 40.0 32.6 C 40.0 31.4 39.2 31.3 38.1 31.3 Z " transform="scale(1,-1)" stroke-dasharray="26.343567969964838" stroke-dashoffset="26.343567969964838"><animate attributeName="stroke-dashoffset" from="26.343567969964838" to="0" dur="0.7903070390989451s" begin="anim0.end" fill="freeze" id="anim1" /></path><path d="M 28.6 36.9 L 28.6 31.3 L 21.0 31.3 L 21.0 36.9 Z " transform="scale(1,-1)" stroke-dasharray="26.4" stroke-dashoffset="26.4"><animate attributeName="stroke-dashoffset" from="26.4" to="0" dur="0.7919999999999999s" begin="anim1.end" fill="freeze" id="anim2" /></path><path d="M 17.7 36.9 L 17.7 31.3 L 12.2 31.3 C 10.9 31.3 10.4 31.7 10.4 32.6 L 10.4 35.5 C 10.4 36.5 10.9 36.9 12.2 36.9 Z " transform="scale(1,-1)" stroke-dasharray="24.703195596020407" stroke-dashoffset="24.703195596020407"><animate attributeName="stroke-dashoffset" from="24.703195596020407" to="0" dur="0.7410958678806122s" begin="anim2.end" fill="freeze" id="anim3" /></path><path d="M 31.9 5.6 L 46.3 5.6 C 47.3 5.6 47.8 6.3 47.8 7.1 C 47.8 7.8 47.3 8.5 46.3 8.5 L 31.9 8.5 L 31.9 13.2 L 43.6 13.2 C 44.5 13.2 45.0 13.9 45.0 14.7 C 45.0 15.4 44.5 16.1 43.6 16.1 L 31.9 16.1 L 31.9 20.1 L 45.2 20.1 C 46.2 20.1 46.7 20.9 46.7 21.6 C 46.7 22.3 46.2 23.1 45.2 23.1 L 31.9 23.1 L 31.9 25.7 C 31.9 26.8 31.1 27.3 30.2 27.3 C 29.3 27.3 28.4 26.8 28.4 25.7 L 28.4 -2.7 C 28.4 -3.7 29.3 -4.2 30.2 -4.2 C 31.1 -4.2 31.9 -3.7 31.9 -2.7 Z " transform="scale(1,-1)" stroke-dasharray="151.25541676827655" stroke-dashoffset="151.25541676827655"><animate attributeName="stroke-dashoffset" from="151.25541676827655" to="0" dur="4.537662503048296s" begin="anim3.end" fill="freeze" id="anim4" /></path><path d="M 17.9 23.1 L 5.4 23.1 C 4.4 23.1 4.0 22.4 4.0 21.6 C 4.0 20.9 4.4 20.2 5.4 20.2 L 17.9 20.2 L 17.9 16.6 L 17.9 16.2 L 7.1 16.2 C 6.2 16.2 5.7 15.5 5.7 14.8 C 5.7 14.1 6.2 13.3 7.1 13.3 L 17.8 13.3 C 17.7 12.0 17.6 10.7 17.4 9.4 C 13.0 8.5 8.1 7.7 3.8 7.3 C 2.7 7.2 2.1 6.6 2.1 5.8 C 2.1 5.0 2.8 4.2 4.1 4.3 C 8.4 4.8 12.6 5.6 16.5 6.4 C 16.2 5.5 15.7 4.6 15.2 3.9 C 13.4 1.5 10.9 -0.2 7.3 -1.4 C 6.3 -1.8 5.9 -2.4 5.9 -3.0 C 5.9 -3.8 6.6 -4.5 7.5 -4.5 C 7.8 -4.5 8.0 -4.5 8.3 -4.4 C 17.4 -1.3 21.4 4.2 21.4 15.8 L 21.4 25.8 C 21.4 26.8 20.5 27.4 19.7 27.4 C 18.8 27.4 17.9 26.8 17.9 25.8 Z" transform="scale(1,-1)" stroke-dasharray="157.34915917580543" stroke-dashoffset="157.34915917580543"><animate attributeName="stroke-dashoffset" from="157.34915917580543" to="0" dur="4.7204747752741625s" begin="anim4.end" fill="freeze" id="anim_end" /></path></g></svg>