<?xml version='1.0' encoding='utf-8'?>
<svg viewBox="0 -44.0 50.0 50.0" version="1.1" xmlns="http://www.w3.org/2000/svg"><rect x="-1000" y="-1000" width="2000" height="2000" stroke="white" fill="white" /><g style="fill:none;stroke:#000000;stroke-width:1"><path d="M 17.7 22.6 C 21.0 22.6 22.2 23.7 22.2 26.2 L 22.2 36.6 C 22.2 39.2 21.0 40.2 17.7 40.2 L 10.2 40.2 C 6.8 40.2 5.6 39.2 5.6 36.6 L 5.6 26.2 C 5.6 23.2 7.5 22.7 10.2 22.6 Z " transform="scale(1,-1)" stroke-dasharray="62.731194107641585" stroke-dashoffset="62.731194107641585"><animate attributeName="stroke-dashoffset" from="62.731194107641585" to="0" dur="1.8819358232292476s" begin="0s; 15s; 30s; 45s; 60s" fill="freeze" id="anim0" /></path><path d="M 10.6 25.3 C 9.1 25.3 8.8 25.7 8.8 26.6 L 8.8 27.8 L 19.1 27.8 L 19.1 26.6 C 19.1 25.4 18.3 25.4 17.2 25.3 Z " transform="scale(1,-1)" stroke-dasharray="24.55883572956233" stroke-dashoffset="24.55883572956233"><animate attributeName="stroke-dashoffset" from="24.55883572956233" to="0" dur="0.7367650718868698s" begin="anim0.end" fill="freeze" id="anim1" /></path><path d="M 8.8 32.6 L 19.1 32.6 L 19.1 30.2 L 8.8 30.2 Z " transform="scale(1,-1)" stroke-dasharray="25.400000000000006" stroke-dashoffset="25.400000000000006"><animate attributeName="stroke-dashoffset" from="25.400000000000006" to="0" dur="0.7620000000000001s" begin="anim1.end" fill="freeze" id="anim2" /></path><path d="M 19.1 35.1 L 8.8 35.1 L 8.8 36.2 C 8.8 37.2 9.1 37.6 10.6 37.6 L 17.2 37.6 C 18.8 37.6 19.1 37.2 19.1 36.2 Z " transform="scale(1,-1)" stroke-dasharray="24.572786900508476" stroke-dashoffset="24.572786900508476"><animate attributeName="stroke-dashoffset" from="24.572786900508476" to="0" dur="0.7371836070152542s" begin="anim2.end" fill="freeze" id="anim3" /></path><path d="M 39.9 22.6 C 43.2 22.6 44.5 23.7 44.5 26.2 L 44.5 36.6 C 44.5 39.2 43.2 40.2 39.9 40.2 L 32.1 40.2 C 28.7 40.2 27.5 39.2 27.5 36.6 L 27.5 26.2 C 27.5 23.2 29.4 22.7 32.1 22.6 Z " transform="scale(1,-1)" stroke-dasharray="63.47014288436704" stroke-dashoffset="63.47014288436704"><animate attributeName="stroke-dashoffset" from="63.47014288436704" to="0" dur="1.9041042865310112s" begin="anim3.end" fill="freeze" id="anim4" /></path><path d="M 32.5 25.3 C 31.0 25.3 30.7 25.7 30.7 26.6 L 30.7 27.8 L 41.3 27.8 L 41.3 26.6 C 41.3 25.4 40.6 25.4 39.5 25.3 Z " transform="scale(1,-1)" stroke-dasharray="25.18149448885338" stroke-dashoffset="25.18149448885338"><animate attributeName="stroke-dashoffset" from="25.18149448885338" to="0" dur="0.7554448346656014s" begin="anim4.end" fill="freeze" id="anim5" /></path><path d="M 30.7 32.6 L 41.3 32.6 L 41.3 30.2 L 30.7 30.2 Z " transform="scale(1,-1)" stroke-dasharray="26.0" stroke-dashoffset="26.0"><animate attributeName="stroke-dashoffset" from="26.0" to="0" dur="0.78s" begin="anim5.end" fill="freeze" id="anim6" /></path><path d="M 41.3 35.1 L 30.7 35.1 L 30.7 36.2 C 30.7 37.2 31.0 37.6 32.5 37.6 L 39.5 37.6 C 41.0 37.6 41.3 37.2 41.3 36.2 Z " transform="scale(1,-1)" stroke-dasharray="25.181488005162034" stroke-dashoffset="25.181488005162034"><animate attributeName="stroke-dashoffset" from="25.181488005162034" to="0" dur="0.755444640154861s" begin="anim6.end" fill="freeze" id="anim7" /></path><path d="M 23.2 11.9 L 23.2 8.5 L 5.1 8.5 C 4.2 8.5 3.7 7.8 3.7 7.1 C 3.7 6.4 4.2 5.7 5.1 5.7 L 23.2 5.7 L 23.2 0.1 L 13.9 0.1 C 12.4 0.1 12.0 0.5 12.0 1.5 L 12.0 3.2 C 12.0 4.2 11.1 4.8 10.2 4.8 C 9.3 4.8 8.5 4.2 8.5 3.2 L 8.5 0.8 C 8.5 -1.5 9.8 -2.8 13.0 -2.8 L 37.0 -2.8 C 40.2 -2.8 41.5 -1.5 41.5 0.8 L 41.5 3.2 C 41.5 4.2 40.7 4.8 39.8 4.8 C 38.9 4.8 38.0 4.2 38.0 3.2 L 38.0 1.5 C 38.0 0.5 37.6 0.1 36.1 0.1 L 26.6 0.1 L 26.6 5.7 L 45.1 5.7 C 46.0 5.7 46.4 6.4 46.4 7.1 C 46.4 7.8 46.0 8.5 45.1 8.5 L 26.6 8.5 L 26.6 11.9 L 39.5 11.9 C 40.4 11.9 40.9 12.6 40.9 13.2 C 40.9 14.0 40.4 14.7 39.5 14.7 L 14.7 14.7 C 15.0 15.1 15.2 15.5 15.5 15.9 C 15.6 16.2 15.7 16.4 15.7 16.7 C 15.7 17.4 14.9 18.1 14.1 18.1 C 13.6 18.1 13.0 17.9 12.6 17.2 C 11.7 15.7 10.1 13.5 8.3 11.9 C 7.9 11.5 7.8 11.1 7.8 10.7 C 7.8 9.9 8.5 9.3 9.3 9.3 C 9.8 9.3 10.2 9.5 10.6 9.8 C 11.3 10.5 12.0 11.2 12.6 11.9 Z " transform="scale(1,-1)" stroke-dasharray="254.19163143030042" stroke-dashoffset="254.19163143030042"><animate attributeName="stroke-dashoffset" from="254.19163143030042" to="0" dur="7.625748942909012s" begin="anim7.end" fill="freeze" id="anim8" /></path><path d="M 31.0 21.6 C 29.5 20.5 27.9 19.5 26.3 18.7 C 25.5 18.2 25.1 17.6 25.1 17.1 C 25.1 16.3 25.8 15.7 26.7 15.7 C 27.0 15.7 27.3 15.7 27.7 15.9 C 29.6 16.8 31.7 18.2 33.1 19.4 C 33.6 19.8 33.8 20.2 33.8 20.6 C 33.8 21.4 33.1 22.0 32.2 22.0 C 31.8 22.0 31.4 21.9 31.0 21.6 Z " transform="scale(1,-1)" stroke-dasharray="22.55703737052871" stroke-dashoffset="22.55703737052871"><animate attributeName="stroke-dashoffset" from="22.55703737052871" to="0" dur="0.6767111211158613s" begin="anim8.end" fill="freeze" id="anim9" /></path><path d="M 40.6 21.7 C 40.2 21.9 39.9 22.0 39.5 22.0 C 38.6 22.0 37.8 21.3 37.8 20.5 C 37.8 20.1 38.1 19.6 38.6 19.2 C 40.3 18.0 42.7 16.7 44.7 15.8 C 45.0 15.7 45.2 15.7 45.5 15.7 C 46.4 15.7 47.1 16.4 47.1 17.2 C 47.1 17.9 46.7 18.6 45.8 18.9 C 44.0 19.7 42.1 20.8 40.6 21.7 Z " transform="scale(1,-1)" stroke-dasharray="23.668237395102498" stroke-dashoffset="23.668237395102498"><animate attributeName="stroke-dashoffset" from="23.668237395102498" to="0" dur="0.710047121853075s" begin="anim9.end" fill="freeze" id="anim10" /></path><path d="M 9.1 21.8 C 7.5 20.5 5.9 19.4 4.0 18.4 C 3.3 18.1 3.0 17.5 3.0 16.9 C 3.0 16.2 3.7 15.4 4.5 15.4 C 4.9 15.4 5.2 15.5 5.5 15.7 C 7.7 16.8 9.6 18.1 11.3 19.5 C 11.8 19.9 12.0 20.4 12.0 20.8 C 12.0 21.6 11.3 22.2 10.4 22.2 C 10.0 22.2 9.6 22.1 9.1 21.8 Z " transform="scale(1,-1)" stroke-dasharray="23.662245249049864" stroke-dashoffset="23.662245249049864"><animate attributeName="stroke-dashoffset" from="23.662245249049864" to="0" dur="0.7098673574714959s" begin="anim10.end" fill="freeze" id="anim11" /></path><path d="M 18.2 22.0 C 17.8 22.2 17.4 22.2 17.2 22.2 C 16.2 22.2 15.6 21.6 15.6 20.9 C 15.6 20.4 15.9 19.9 16.4 19.6 C 17.7 18.8 18.9 17.9 20.1 16.9 C 20.5 16.7 20.9 16.5 21.2 16.5 C 22.1 16.5 22.8 17.3 22.8 18.2 C 22.8 18.6 22.6 19.1 22.1 19.4 C 21.0 20.4 19.4 21.4 18.2 22.0 Z" transform="scale(1,-1)" stroke-dasharray="19.43173509783495" stroke-dashoffset="19.43173509783495"><animate attributeName="stroke-dashoffset" from="19.43173509783495" to="0" dur="0.5829520529350485s" begin="anim11.end" fill="freeze" id="anim_end" /></path></g></svg>