<?xml version='1.0' encoding='utf-8'?>
<svg viewBox="0 -44.0 50.0 50.0" version="1.1" xmlns="http://www.w3.org/2000/svg"><rect x="-1000" y="-1000" width="2000" height="2000" stroke="white" fill="white" /><g style="fill:none;stroke:#000000;stroke-width:1"><path d="M 18.4 15.8 C 17.5 7.3 12.8 2.7 4.4 0.0 C 3.4 -0.3 3.0 -1.0 3.0 -1.7 C 3.0 -2.5 3.7 -3.4 4.7 -3.4 C 4.9 -3.4 5.1 -3.3 5.3 -3.2 C 15.1 -0.4 21.1 6.2 22.1 15.8 L 28.0 15.8 L 28.0 1.8 C 28.0 -1.4 29.4 -2.3 36.4 -2.3 C 44.2 -2.3 46.5 -0.7 47.1 4.7 C 47.2 6.0 46.2 6.8 45.2 6.8 C 44.4 6.8 43.6 6.2 43.4 5.0 C 43.0 1.7 42.0 0.9 36.5 0.9 C 32.2 0.9 31.6 1.2 31.6 2.6 L 31.6 15.8 L 34.7 15.8 C 38.7 15.8 40.4 17.4 40.4 20.3 L 40.4 31.8 C 40.4 34.8 38.7 36.4 34.7 36.4 L 25.0 36.4 C 25.5 37.6 26.0 38.9 26.4 40.0 C 26.4 40.2 26.5 40.4 26.5 40.6 C 26.5 41.6 25.6 42.1 24.7 42.1 C 23.9 42.1 23.2 41.7 22.9 40.8 C 22.5 39.3 22.0 37.9 21.4 36.4 L 15.5 36.4 C 11.5 36.4 9.9 34.8 9.9 31.8 L 9.9 20.3 C 10.0 16.7 12.3 15.9 15.5 15.8 Z " transform="scale(1,-1)" stroke-dasharray="226.93065075193272" stroke-dashoffset="226.93065075193272"><animate attributeName="stroke-dashoffset" from="226.93065075193272" to="0" dur="6.807919522557981s" begin="0s; 15s; 30s; 45s; 60s" fill="freeze" id="anim0" /></path><path d="M 16.1 18.8 C 14.1 18.8 13.5 19.4 13.5 20.9 L 13.5 24.9 L 36.8 24.9 L 36.8 20.9 C 36.8 19.1 35.6 18.8 34.1 18.8 Z " transform="scale(1,-1)" stroke-dasharray="57.17096229158135" stroke-dashoffset="57.17096229158135"><animate attributeName="stroke-dashoffset" from="57.17096229158135" to="0" dur="1.7151288687474404s" begin="anim0.end" fill="freeze" id="anim1" /></path><path d="M 36.8 27.8 L 13.5 27.8 L 13.5 31.3 C 13.5 32.8 14.1 33.4 16.1 33.4 L 34.1 33.4 C 36.1 33.4 36.8 32.8 36.8 31.3 Z" transform="scale(1,-1)" stroke-dasharray="56.18725193206008" stroke-dashoffset="56.18725193206008"><animate attributeName="stroke-dashoffset" from="56.18725193206008" to="0" dur="1.6856175579618022s" begin="anim1.end" fill="freeze" id="anim_end" /></path></g></svg>