<?xml version='1.0' encoding='utf-8'?>
<svg viewBox="0 -44.0 50.0 50.0" version="1.1" xmlns="http://www.w3.org/2000/svg"><rect x="-1000" y="-1000" width="2000" height="2000" stroke="white" fill="white" /><g style="fill:none;stroke:#000000;stroke-width:1"><path d="M 35.3 8.0 L 35.3 5.2 C 35.3 4.0 35.0 3.8 34.1 3.8 C 33.6 3.8 33.1 3.8 32.6 3.9 C 31.5 4.1 30.9 3.2 30.9 2.4 C 30.9 1.7 31.2 1.1 32.1 0.9 C 33.0 0.7 33.6 0.7 34.5 0.7 C 37.0 0.7 38.3 2.1 38.3 4.7 L 38.3 18.3 C 38.3 21.0 37.2 22.2 34.1 22.2 L 29.9 22.2 C 26.8 22.2 25.7 21.0 25.7 18.3 L 25.7 14.8 C 25.7 9.1 25.0 5.4 23.6 2.7 C 23.4 2.2 23.3 1.9 23.3 1.6 C 23.3 0.7 24.0 0.1 24.7 0.1 C 25.3 0.1 26.0 0.5 26.4 1.3 C 27.2 3.1 27.9 5.2 28.3 8.0 Z " transform="scale(1,-1)" stroke-dasharray="86.58804711940215" stroke-dashoffset="86.58804711940215"><animate attributeName="stroke-dashoffset" from="86.58804711940215" to="0" dur="2.5976414135820645s" begin="0s; 15s; 30s; 45s; 60s" fill="freeze" id="anim0" /></path><path d="M 35.3 16.2 L 28.7 16.2 L 28.7 17.9 C 28.7 19.1 29.1 19.4 30.2 19.4 L 33.8 19.4 C 34.9 19.4 35.3 19.1 35.3 17.9 Z " transform="scale(1,-1)" stroke-dasharray="18.619196959556138" stroke-dashoffset="18.619196959556138"><animate attributeName="stroke-dashoffset" from="18.619196959556138" to="0" dur="0.5585759087866842s" begin="anim0.end" fill="freeze" id="anim1" /></path><path d="M 35.3 13.7 L 35.3 10.6 L 28.6 10.6 C 28.6 11.6 28.7 12.6 28.7 13.7 Z " transform="scale(1,-1)" stroke-dasharray="19.501944244660073" stroke-dashoffset="19.501944244660073"><animate attributeName="stroke-dashoffset" from="19.501944244660073" to="0" dur="0.5850583273398022s" begin="anim1.end" fill="freeze" id="anim2" /></path><path d="M 43.0 25.0 L 43.0 1.6 C 43.0 0.3 42.5 -0.2 41.4 -0.2 C 40.7 -0.2 39.8 -0.1 39.1 0.1 C 37.8 0.4 37.1 -0.7 37.1 -1.6 C 37.1 -2.4 37.5 -3.2 38.5 -3.4 C 39.5 -3.6 40.4 -3.7 41.6 -3.7 C 44.9 -3.7 46.4 -2.2 46.4 1.2 L 46.4 36.1 C 46.4 39.2 45.1 40.4 41.8 40.4 L 38.1 40.4 C 34.8 40.4 33.5 39.2 33.5 36.1 L 33.5 29.1 C 33.6 25.8 35.0 25.1 38.1 25.0 Z " transform="scale(1,-1)" stroke-dasharray="117.43987818536284" stroke-dashoffset="117.43987818536284"><animate attributeName="stroke-dashoffset" from="117.43987818536284" to="0" dur="3.5231963455608852s" begin="anim2.end" fill="freeze" id="anim3" /></path><path d="M 43.0 27.8 L 38.5 27.8 C 37.1 27.8 36.8 28.2 36.8 29.4 L 36.8 31.4 L 43.0 31.4 Z " transform="scale(1,-1)" stroke-dasharray="19.078325286162517" stroke-dashoffset="19.078325286162517"><animate attributeName="stroke-dashoffset" from="19.078325286162517" to="0" dur="0.5723497585848755s" begin="anim3.end" fill="freeze" id="anim4" /></path><path d="M 43.0 34.1 L 36.8 34.1 L 36.8 36.0 C 36.8 37.1 37.1 37.6 38.5 37.6 L 41.4 37.6 C 42.8 37.6 43.0 37.1 43.0 36.0 Z " transform="scale(1,-1)" stroke-dasharray="18.344301185411435" stroke-dashoffset="18.344301185411435"><animate attributeName="stroke-dashoffset" from="18.344301185411435" to="0" dur="0.550329035562343s" begin="anim4.end" fill="freeze" id="anim5" /></path><path d="M 20.9 25.0 L 25.5 25.0 C 28.8 25.0 30.1 26.1 30.1 29.1 L 30.1 36.1 C 30.1 39.2 28.8 40.4 25.5 40.4 L 22.2 40.4 C 18.9 40.4 17.5 39.2 17.5 36.1 L 17.5 -2.6 C 17.5 -3.6 18.4 -4.2 19.2 -4.2 C 20.1 -4.2 20.9 -3.6 20.9 -2.6 Z " transform="scale(1,-1)" stroke-dasharray="108.33498337084433" stroke-dashoffset="108.33498337084433"><animate attributeName="stroke-dashoffset" from="108.33498337084433" to="0" dur="3.25004950112533s" begin="anim5.end" fill="freeze" id="anim6" /></path><path d="M 20.9 27.8 L 20.9 31.4 L 26.8 31.4 L 26.8 29.4 C 26.8 28.1 26.4 27.8 25.1 27.8 Z " transform="scale(1,-1)" stroke-dasharray="18.47940836699815" stroke-dashoffset="18.47940836699815"><animate attributeName="stroke-dashoffset" from="18.47940836699815" to="0" dur="0.5543822510099445s" begin="anim6.end" fill="freeze" id="anim7" /></path><path d="M 26.8 34.1 L 20.9 34.1 L 20.9 36.0 C 20.9 37.1 21.2 37.6 22.6 37.6 L 25.1 37.6 C 26.5 37.6 26.8 37.1 26.8 36.0 Z " transform="scale(1,-1)" stroke-dasharray="17.705730434674297" stroke-dashoffset="17.705730434674297"><animate attributeName="stroke-dashoffset" from="17.705730434674297" to="0" dur="0.5311719130402289s" begin="anim7.end" fill="freeze" id="anim8" /></path><path d="M 10.7 40.3 C 10.7 41.3 9.9 41.8 9.1 41.8 C 8.2 41.8 7.5 41.3 7.5 40.3 L 7.5 24.6 C 7.5 14.0 5.7 5.3 1.8 0.3 C 1.5 -0.2 1.4 -0.6 1.4 -1.0 C 1.4 -1.8 2.0 -2.4 2.8 -2.4 C 3.3 -2.4 3.9 -2.1 4.4 -1.5 C 6.5 1.2 8.0 4.8 9.1 9.1 C 10.4 7.6 11.7 5.8 12.7 4.0 C 13.1 3.2 13.8 2.9 14.3 2.9 C 15.2 2.9 15.9 3.7 15.9 4.7 C 15.9 5.2 15.8 5.7 15.4 6.2 C 14.1 8.2 12.1 10.4 9.8 12.6 C 10.4 16.4 10.7 20.2 10.7 24.1 C 12.8 26.0 14.6 28.1 15.7 29.9 C 15.9 30.2 16.0 30.6 16.0 30.8 C 16.0 31.7 15.3 32.2 14.6 32.2 C 14.1 32.2 13.6 32.0 13.2 31.3 C 12.6 30.1 11.7 28.8 10.7 27.6 Z " transform="scale(1,-1)" stroke-dasharray="125.60310843127694" stroke-dashoffset="125.60310843127694"><animate attributeName="stroke-dashoffset" from="125.60310843127694" to="0" dur="3.768093252938308s" begin="anim8.end" fill="freeze" id="anim9" /></path><path d="M 3.1 29.1 C 2.8 26.7 2.1 24.0 1.5 22.4 C 1.4 22.2 1.4 21.9 1.4 21.7 C 1.4 20.8 2.1 20.2 2.8 20.2 C 3.4 20.2 4.1 20.6 4.5 21.6 C 5.1 23.4 5.7 26.2 6.1 28.7 C 6.2 29.9 5.4 30.5 4.5 30.5 C 3.9 30.5 3.2 30.1 3.1 29.1 Z" transform="scale(1,-1)" stroke-dasharray="24.456023025621384" stroke-dashoffset="24.456023025621384"><animate attributeName="stroke-dashoffset" from="24.456023025621384" to="0" dur="0.7336806907686415s" begin="anim9.end" fill="freeze" id="anim_end" /></path></g></svg>