<?xml version='1.0' encoding='utf-8'?>
<svg viewBox="0 -44.0 50.0 50.0" version="1.1" xmlns="http://www.w3.org/2000/svg"><rect x="-1000" y="-1000" width="2000" height="2000" stroke="white" fill="white" /><g style="fill:none;stroke:#000000;stroke-width:1"><path d="M 39.0 31.2 C 41.2 31.2 41.6 30.8 41.6 29.0 C 41.6 24.1 41.4 19.0 40.9 14.7 C 40.5 11.5 39.6 10.8 38.0 10.8 C 37.2 10.8 36.5 10.9 35.8 11.0 C 34.5 11.2 33.8 10.3 33.8 9.3 C 33.8 8.7 34.1 7.9 35.1 7.7 C 36.0 7.5 37.1 7.4 38.1 7.4 C 41.4 7.4 43.6 8.8 44.2 14.2 C 44.8 18.7 45.1 23.9 45.1 29.4 C 45.1 32.6 43.7 34.4 39.6 34.4 L 27.3 34.4 C 28.1 35.9 28.8 37.5 29.4 39.2 C 29.5 39.4 29.6 39.7 29.6 39.9 C 29.6 40.9 28.7 41.5 27.8 41.5 C 27.1 41.5 26.4 41.2 26.0 40.2 C 24.2 35.1 21.4 30.2 18.4 26.7 C 17.9 26.2 17.8 25.6 17.8 25.2 C 17.8 24.3 18.4 23.7 19.2 23.7 C 19.8 23.7 20.4 24.0 20.9 24.6 C 22.6 26.6 24.2 28.9 25.6 31.2 Z " transform="scale(1,-1)" stroke-dasharray="134.9171082939376" stroke-dashoffset="134.9171082939376"><animate attributeName="stroke-dashoffset" from="134.9171082939376" to="0" dur="4.047513248818127s" begin="0s; 15s; 30s; 45s; 60s" fill="freeze" id="anim0" /></path><path d="M 12.9 39.9 C 12.9 40.9 12.0 41.4 11.2 41.4 C 10.3 41.4 9.5 40.9 9.5 39.9 L 9.5 25.7 C 9.5 14.1 7.1 5.3 2.8 0.1 C 2.4 -0.4 2.2 -0.9 2.2 -1.2 C 2.2 -2.1 3.0 -2.8 3.8 -2.8 C 4.2 -2.8 4.8 -2.5 5.2 -2.0 C 7.5 0.8 9.3 4.2 10.6 8.4 C 12.4 6.8 14.2 4.5 15.5 2.4 C 16.0 1.6 16.6 1.2 17.1 1.2 C 18.0 1.2 18.8 2.1 18.8 3.2 C 18.8 3.6 18.6 4.2 18.2 4.7 C 16.8 6.9 14.1 9.7 11.5 11.8 C 12.4 15.8 12.8 19.9 12.8 24.0 C 15.5 26.4 17.4 28.7 18.9 30.9 C 19.2 31.2 19.2 31.7 19.2 32.0 C 19.2 32.9 18.4 33.5 17.6 33.5 C 17.1 33.5 16.6 33.2 16.2 32.6 C 15.2 30.9 14.2 29.3 12.9 27.8 Z " transform="scale(1,-1)" stroke-dasharray="132.63214939090437" stroke-dashoffset="132.63214939090437"><animate attributeName="stroke-dashoffset" from="132.63214939090437" to="0" dur="3.978964481727131s" begin="anim0.end" fill="freeze" id="anim1" /></path><path d="M 26.2 13.7 L 32.0 13.7 C 35.2 13.7 36.5 15.0 36.5 17.6 L 36.5 22.8 C 36.5 25.3 35.3 26.7 32.0 26.7 L 27.4 26.7 C 24.2 26.7 22.9 25.2 22.9 22.5 L 22.9 3.0 C 22.9 -1.1 24.4 -2.4 34.1 -2.4 C 44.6 -2.4 47.2 -0.8 47.8 4.8 C 48.0 6.0 47.0 6.7 46.1 6.7 C 45.4 6.7 44.6 6.2 44.5 5.2 C 44.0 1.7 42.8 0.9 34.0 0.9 C 27.1 0.9 26.2 1.6 26.2 3.6 Z " transform="scale(1,-1)" stroke-dasharray="125.23921322953959" stroke-dashoffset="125.23921322953959"><animate attributeName="stroke-dashoffset" from="125.23921322953959" to="0" dur="3.7571763968861873s" begin="anim1.end" fill="freeze" id="anim2" /></path><path d="M 26.2 16.7 L 26.2 22.0 C 26.2 23.3 26.6 23.7 28.2 23.7 L 31.2 23.7 C 32.8 23.7 33.1 23.4 33.1 22.2 L 33.1 18.1 C 33.1 16.8 32.5 16.7 31.2 16.7 Z " transform="scale(1,-1)" stroke-dasharray="26.216725577209573" stroke-dashoffset="26.216725577209573"><animate attributeName="stroke-dashoffset" from="26.216725577209573" to="0" dur="0.7865017673162872s" begin="anim2.end" fill="freeze" id="anim3" /></path><path d="M 4.5 29.4 C 4.0 26.8 3.3 24.0 2.6 22.2 C 2.5 21.9 2.5 21.7 2.5 21.5 C 2.5 20.5 3.2 19.9 4.0 19.9 C 4.7 19.9 5.4 20.2 5.7 21.2 C 6.5 23.2 7.2 26.2 7.6 28.8 C 7.7 30.1 6.8 30.8 6.0 30.8 C 5.3 30.8 4.7 30.3 4.5 29.4 Z" transform="scale(1,-1)" stroke-dasharray="25.902633965478334" stroke-dashoffset="25.902633965478334"><animate attributeName="stroke-dashoffset" from="25.902633965478334" to="0" dur="0.7770790189643499s" begin="anim3.end" fill="freeze" id="anim_end" /></path></g></svg>