<?xml version='1.0' encoding='utf-8'?>
<svg viewBox="0 -44.0 50.0 50.0" version="1.1" xmlns="http://www.w3.org/2000/svg"><rect x="-1000" y="-1000" width="2000" height="2000" stroke="white" fill="white" /><g style="fill:none;stroke:#000000;stroke-width:1"><path d="M 34.1 -3.3 C 38.2 -3.3 39.7 -2.0 39.7 0.9 L 39.7 15.1 C 39.7 17.9 38.2 19.2 34.1 19.2 L 16.1 19.2 C 11.9 19.2 10.5 17.9 10.5 15.1 L 10.5 0.9 C 10.6 -2.8 12.9 -3.2 16.1 -3.3 Z " transform="scale(1,-1)" stroke-dasharray="96.59738638797576" stroke-dashoffset="96.59738638797576"><animate attributeName="stroke-dashoffset" from="96.59738638797576" to="0" dur="2.897921591639273s" begin="0s; 15s; 30s; 45s; 60s" fill="freeze" id="anim0" /></path><path d="M 16.7 -0.4 C 14.5 -0.4 14.0 0.1 14.0 1.4 L 14.0 3.6 L 36.2 3.6 L 36.2 1.4 C 36.1 -0.4 35.0 -0.4 33.6 -0.4 Z " transform="scale(1,-1)" stroke-dasharray="50.97515499264865" stroke-dashoffset="50.97515499264865"><animate attributeName="stroke-dashoffset" from="50.97515499264865" to="0" dur="1.5292546497794595s" begin="anim0.end" fill="freeze" id="anim1" /></path><path d="M 36.2 6.4 L 14.0 6.4 L 14.0 10.0 L 36.2 10.0 Z " transform="scale(1,-1)" stroke-dasharray="51.60000000000001" stroke-dashoffset="51.60000000000001"><animate attributeName="stroke-dashoffset" from="51.60000000000001" to="0" dur="1.5480000000000003s" begin="anim1.end" fill="freeze" id="anim2" /></path><path d="M 36.2 12.8 L 14.0 12.8 L 14.0 14.7 C 14.0 15.9 14.5 16.4 16.7 16.4 L 33.6 16.4 C 35.7 16.4 36.2 15.9 36.2 14.7 Z " transform="scale(1,-1)" stroke-dasharray="50.218994338847516" stroke-dashoffset="50.218994338847516"><animate attributeName="stroke-dashoffset" from="50.218994338847516" to="0" dur="1.5065698301654253s" begin="anim2.end" fill="freeze" id="anim3" /></path><path d="M 31.1 30.6 C 35.1 31.6 39.4 33.0 42.9 34.7 C 43.7 35.1 44.1 35.6 44.1 36.2 C 44.1 37.1 43.4 37.8 42.4 37.8 C 42.1 37.8 41.7 37.8 41.4 37.6 C 38.5 36.1 34.6 34.6 31.1 33.6 L 31.1 39.8 C 31.1 40.8 30.2 41.2 29.4 41.2 C 28.5 41.2 27.7 40.8 27.7 39.8 L 27.7 25.9 C 27.7 22.7 28.9 21.7 36.5 21.7 C 44.8 21.7 47.0 23.1 47.5 27.9 C 47.7 29.1 46.8 29.7 45.9 29.7 C 45.1 29.7 44.4 29.2 44.2 28.3 C 43.8 25.4 42.9 24.8 36.4 24.8 C 31.6 24.8 31.1 25.2 31.1 26.8 Z " transform="scale(1,-1)" stroke-dasharray="105.05799613921391" stroke-dashoffset="105.05799613921391"><animate attributeName="stroke-dashoffset" from="105.05799613921391" to="0" dur="3.151739884176417s" begin="anim3.end" fill="freeze" id="anim4" /></path><path d="M 17.7 31.8 L 23.1 31.8 C 24.0 31.8 24.5 32.5 24.5 33.2 C 24.5 34.0 24.0 34.6 23.1 34.6 L 17.7 34.6 L 17.7 39.7 C 17.7 40.8 16.8 41.2 16.0 41.2 C 15.1 41.2 14.2 40.8 14.2 39.7 L 14.2 24.9 C 12.8 24.6 11.4 24.4 10.0 24.1 L 10.0 34.9 C 10.0 35.9 9.1 36.4 8.2 36.4 C 7.4 36.4 6.6 35.9 6.6 34.9 L 6.6 23.6 C 5.5 23.4 4.5 23.2 3.5 23.1 C 2.4 23.0 1.9 22.2 1.9 21.5 C 1.9 20.6 2.7 19.7 4.0 19.9 C 10.6 20.9 18.2 22.4 24.2 24.2 C 25.2 24.6 25.6 25.2 25.6 25.8 C 25.6 26.5 25.0 27.2 24.1 27.2 C 23.9 27.2 23.7 27.2 23.5 27.1 C 21.7 26.6 19.7 26.1 17.7 25.7 Z" transform="scale(1,-1)" stroke-dasharray="118.350501048534" stroke-dashoffset="118.350501048534"><animate attributeName="stroke-dashoffset" from="118.350501048534" to="0" dur="3.55051503145602s" begin="anim4.end" fill="freeze" id="anim_end" /></path></g></svg>