<?xml version='1.0' encoding='utf-8'?>
<svg viewBox="0 -44.0 50.0 50.0" version="1.1" xmlns="http://www.w3.org/2000/svg"><rect x="-1000" y="-1000" width="2000" height="2000" stroke="white" fill="white" /><g style="fill:none;stroke:#000000;stroke-width:1"><path d="M 45.2 9.2 C 46.2 9.2 46.7 9.9 46.7 10.6 C 46.7 11.4 46.2 12.1 45.2 12.1 L 26.6 12.1 L 26.6 19.5 C 26.6 20.5 25.7 21.0 24.9 21.0 C 24.0 21.0 23.2 20.5 23.2 19.5 L 23.2 12.1 L 5.3 12.1 C 4.3 12.1 3.8 11.4 3.8 10.6 C 3.8 9.9 4.3 9.2 5.3 9.2 L 20.1 9.2 C 15.9 5.5 9.8 2.3 3.4 0.4 C 2.4 0.1 2.0 -0.7 2.0 -1.3 C 2.0 -2.1 2.7 -3.0 3.7 -3.0 C 3.9 -3.0 4.1 -2.9 4.3 -2.9 C 11.7 -0.5 18.2 3.2 23.3 8.0 L 23.2 3.2 L 23.2 -3.0 C 23.2 -4.0 24.0 -4.5 24.9 -4.5 C 25.7 -4.5 26.6 -4.0 26.6 -3.0 L 26.6 3.1 L 26.4 8.0 C 31.2 3.6 38.5 -0.5 45.3 -2.6 C 45.6 -2.7 45.8 -2.7 46.1 -2.7 C 47.2 -2.7 47.9 -1.8 47.9 -0.9 C 47.9 -0.1 47.4 0.7 46.3 1.0 C 40.0 2.8 33.6 5.8 29.2 9.2 Z " transform="scale(1,-1)" stroke-dasharray="217.5869268356438" stroke-dashoffset="217.5869268356438"><animate attributeName="stroke-dashoffset" from="217.5869268356438" to="0" dur="6.527607805069313s" begin="0s; 15s; 30s; 45s; 60s" fill="freeze" id="anim0" /></path><path d="M 27.6 37.2 C 26.6 30.7 23.1 25.9 17.7 23.0 C 16.9 22.6 16.6 22.1 16.6 21.5 C 16.6 20.8 17.2 20.0 18.2 20.0 C 18.5 20.0 18.9 20.1 19.2 20.3 C 25.2 23.4 29.9 29.4 30.9 37.2 L 34.6 37.2 C 36.1 37.2 36.6 36.9 36.6 35.8 C 36.6 32.7 36.0 28.9 35.4 26.6 C 35.0 25.1 34.1 24.5 32.9 24.5 C 32.1 24.5 31.1 24.7 30.5 24.8 C 29.2 25.1 28.4 24.2 28.4 23.2 C 28.4 22.6 28.8 21.9 29.7 21.6 C 30.8 21.3 32.0 21.2 33.1 21.2 C 36.0 21.2 37.8 22.4 38.7 25.9 C 39.3 28.3 40.0 32.5 40.1 36.0 C 40.1 38.9 38.8 40.2 35.4 40.2 L 19.5 40.2 C 18.5 40.2 18.0 39.5 18.0 38.8 C 18.0 38.0 18.5 37.2 19.5 37.2 Z " transform="scale(1,-1)" stroke-dasharray="129.72047853824617" stroke-dashoffset="129.72047853824617"><animate attributeName="stroke-dashoffset" from="129.72047853824617" to="0" dur="3.891614356147385s" begin="anim0.end" fill="freeze" id="anim1" /></path><path d="M 44.2 32.0 C 43.8 32.6 43.2 32.8 42.7 32.8 C 41.8 32.8 41.1 32.1 41.1 31.2 C 41.1 31.0 41.2 30.6 41.4 30.2 C 42.6 28.6 43.7 26.6 44.3 25.2 C 44.7 24.3 45.4 24.0 46.0 24.0 C 46.9 24.0 47.7 24.7 47.7 25.7 C 47.7 26.1 47.6 26.4 47.4 26.8 C 46.8 28.2 45.4 30.5 44.2 32.0 Z " transform="scale(1,-1)" stroke-dasharray="23.293152679219176" stroke-dashoffset="23.293152679219176"><animate attributeName="stroke-dashoffset" from="23.293152679219176" to="0" dur="0.6987945803765753s" begin="anim1.end" fill="freeze" id="anim2" /></path><path d="M 10.1 41.5 C 9.7 41.7 9.3 41.8 9.0 41.8 C 8.1 41.8 7.4 41.1 7.4 40.4 C 7.4 39.9 7.6 39.3 8.3 38.9 C 9.4 38.1 10.6 37.2 11.6 36.2 C 12.0 35.9 12.5 35.8 12.9 35.8 C 13.8 35.8 14.5 36.5 14.5 37.3 C 14.5 37.8 14.2 38.3 13.7 38.8 C 12.7 39.8 11.1 40.9 10.1 41.5 Z " transform="scale(1,-1)" stroke-dasharray="19.671630155742164" stroke-dashoffset="19.671630155742164"><animate attributeName="stroke-dashoffset" from="19.671630155742164" to="0" dur="0.5901489046722649s" begin="anim2.end" fill="freeze" id="anim3" /></path><path d="M 10.6 27.1 C 9.0 24.7 7.0 22.5 4.7 20.6 C 4.1 20.1 3.9 19.6 3.9 19.1 C 3.9 18.2 4.6 17.4 5.6 17.4 C 6.1 17.4 6.6 17.6 7.1 18.1 C 9.3 20.0 12.0 22.9 13.5 25.2 C 13.8 25.6 13.9 26.0 13.9 26.3 C 13.9 27.2 13.1 28.0 12.2 28.0 C 11.6 28.0 11.0 27.7 10.6 27.1 Z " transform="scale(1,-1)" stroke-dasharray="30.289280468701786" stroke-dashoffset="30.289280468701786"><animate attributeName="stroke-dashoffset" from="30.289280468701786" to="0" dur="0.9086784140610535s" begin="anim3.end" fill="freeze" id="anim4" /></path><path d="M 5.9 35.4 C 5.5 35.6 5.2 35.6 4.9 35.6 C 4.0 35.6 3.2 35.0 3.2 34.1 C 3.2 33.6 3.6 33.1 4.2 32.6 C 5.1 32.1 6.4 31.1 7.6 30.2 C 8.1 29.8 8.5 29.6 8.9 29.6 C 9.8 29.6 10.6 30.4 10.6 31.2 C 10.6 31.7 10.3 32.2 9.8 32.8 C 8.5 33.7 7.2 34.7 5.9 35.4 Z " transform="scale(1,-1)" stroke-dasharray="20.118644145174926" stroke-dashoffset="20.118644145174926"><animate attributeName="stroke-dashoffset" from="20.118644145174926" to="0" dur="0.6035593243552477s" begin="anim4.end" fill="freeze" id="anim5" /></path><path d="M 34.1 18.7 C 33.4 17.6 32.5 16.2 31.6 15.3 C 31.3 15.0 31.2 14.6 31.2 14.2 C 31.2 13.5 31.9 12.9 32.8 12.9 C 33.2 12.9 33.7 13.1 34.1 13.6 C 35.2 14.7 36.2 16.1 36.9 17.2 C 37.1 17.6 37.1 17.9 37.1 18.2 C 37.1 19.0 36.4 19.6 35.5 19.6 C 35.0 19.6 34.4 19.3 34.1 18.7 Z " transform="scale(1,-1)" stroke-dasharray="18.957643316169268" stroke-dashoffset="18.957643316169268"><animate attributeName="stroke-dashoffset" from="18.957643316169268" to="0" dur="0.568729299485078s" begin="anim5.end" fill="freeze" id="anim6" /></path><path d="M 16.1 18.4 C 15.7 18.8 15.2 18.9 14.8 18.9 C 13.9 18.9 13.2 18.3 13.2 17.5 C 13.2 17.2 13.2 16.8 13.6 16.4 C 14.2 15.7 15.2 14.4 15.8 13.6 C 16.2 13.0 16.7 12.7 17.2 12.7 C 18.1 12.7 18.9 13.4 18.9 14.3 C 18.9 14.7 18.8 15.0 18.6 15.4 C 17.9 16.2 16.8 17.7 16.1 18.4 Z " transform="scale(1,-1)" stroke-dasharray="17.950506732114995" stroke-dashoffset="17.950506732114995"><animate attributeName="stroke-dashoffset" from="17.950506732114995" to="0" dur="0.5385152019634498s" begin="anim6.end" fill="freeze" id="anim7" /></path><path d="M 19.2 33.8 C 18.6 32.3 17.8 30.9 16.9 29.7 C 16.5 29.2 16.4 28.9 16.4 28.5 C 16.4 27.6 17.1 27.0 17.9 27.0 C 18.5 27.0 19.2 27.2 19.7 28.0 C 20.6 29.2 21.6 30.9 22.3 32.6 C 22.4 32.9 22.5 33.1 22.5 33.3 C 22.5 34.2 21.7 35.0 20.8 35.0 C 20.2 35.0 19.6 34.6 19.2 33.8 Z" transform="scale(1,-1)" stroke-dasharray="21.359730196589194" stroke-dashoffset="21.359730196589194"><animate attributeName="stroke-dashoffset" from="21.359730196589194" to="0" dur="0.6407919058976758s" begin="anim7.end" fill="freeze" id="anim_end" /></path></g></svg>