<?xml version='1.0' encoding='utf-8'?>
<svg viewBox="0 -44.0 50.0 50.0" version="1.1" xmlns="http://www.w3.org/2000/svg"><rect x="-1000" y="-1000" width="2000" height="2000" stroke="white" fill="white" /><g style="fill:none;stroke:#000000;stroke-width:1"><path d="M 8.5 24.4 C 8.5 22.4 8.4 20.5 8.2 18.7 C 6.4 17.5 4.4 16.4 2.7 15.7 C 1.6 15.2 1.2 14.6 1.2 13.9 C 1.2 13.1 1.9 12.2 2.9 12.2 C 3.2 12.2 3.5 12.4 3.9 12.6 C 5.2 13.2 6.5 14.0 7.8 14.8 C 6.9 9.2 5.2 4.9 2.7 1.1 C 2.3 0.6 2.1 0.1 2.1 -0.3 C 2.1 -1.2 2.9 -1.9 3.8 -1.9 C 4.4 -1.9 5.0 -1.6 5.5 -0.9 C 9.5 5.5 11.9 13.3 11.9 24.3 L 11.9 32.4 C 11.9 34.1 12.6 34.8 14.9 34.8 L 46.4 34.8 C 47.4 34.8 47.9 35.5 47.9 36.2 C 47.9 37.0 47.4 37.8 46.4 37.8 L 29.9 37.8 L 29.9 41.4 C 29.9 42.3 29.0 42.8 28.1 42.8 C 27.1 42.8 26.2 42.3 26.2 41.4 L 26.2 37.8 L 14.2 37.8 C 10.1 37.8 8.5 36.1 8.5 32.9 L 8.5 26.5 C 8.4 26.7 8.3 26.9 8.2 27.0 C 7.3 28.1 6.2 29.4 5.2 30.2 C 4.8 30.7 4.3 30.9 3.9 30.9 C 3.0 30.9 2.2 30.2 2.2 29.3 C 2.2 28.9 2.4 28.5 2.8 28.1 C 3.6 27.2 4.5 26.0 5.4 24.9 C 5.8 24.2 6.4 24.0 6.9 24.0 C 7.6 24.0 8.2 24.4 8.5 25.0 Z " transform="scale(1,-1)" stroke-dasharray="193.7808338592001" stroke-dashoffset="193.7808338592001"><animate attributeName="stroke-dashoffset" from="193.7808338592001" to="0" dur="5.813425015776003s" begin="0s; 15s; 30s; 45s; 60s" fill="freeze" id="anim0" /></path><path d="M 18.5 23.1 L 14.6 23.1 C 13.6 23.1 13.2 22.4 13.2 21.6 C 13.2 20.9 13.6 20.2 14.6 20.2 L 17.9 20.2 C 16.2 15.0 13.9 10.1 11.1 6.4 C 10.8 6.0 10.7 5.6 10.7 5.2 C 10.7 4.5 11.3 3.9 12.1 3.9 C 12.6 3.9 13.2 4.2 13.6 4.8 C 15.6 7.6 17.4 11.2 18.7 14.6 L 18.5 6.5 L 18.5 -2.8 C 18.5 -3.8 19.3 -4.2 20.1 -4.2 C 20.9 -4.2 21.6 -3.8 21.6 -2.8 L 21.6 12.8 C 22.4 12.0 23.3 11.1 24.1 10.2 C 24.5 9.7 25.0 9.5 25.4 9.5 C 26.2 9.5 26.8 10.1 26.8 10.8 C 26.8 11.2 26.6 11.8 26.1 12.3 C 24.7 13.6 23.2 14.9 21.6 16.0 L 21.6 20.2 L 24.4 20.2 C 25.3 20.2 25.8 20.9 25.8 21.6 C 25.8 22.4 25.3 23.1 24.4 23.1 L 21.6 23.1 L 21.6 28.8 C 22.7 29.2 23.8 29.6 24.8 30.0 C 25.6 30.4 26.0 31.0 26.0 31.6 C 26.0 32.3 25.4 33.0 24.5 33.0 C 24.2 33.0 23.9 32.9 23.6 32.8 C 21.1 31.7 17.8 30.7 14.8 30.2 C 13.9 30.0 13.4 29.4 13.4 28.7 C 13.4 27.9 14.2 27.0 15.5 27.2 C 16.4 27.5 17.4 27.7 18.5 28.0 Z " transform="scale(1,-1)" stroke-dasharray="147.1362643964688" stroke-dashoffset="147.1362643964688"><animate attributeName="stroke-dashoffset" from="147.1362643964688" to="0" dur="4.414087931894064s" begin="anim0.end" fill="freeze" id="anim1" /></path><path d="M 40.9 2.1 C 44.3 2.1 45.4 3.2 45.4 5.7 L 45.4 14.2 C 45.4 16.6 44.3 17.8 40.9 17.8 L 33.2 17.8 C 29.9 17.8 28.8 16.6 28.8 14.2 L 28.8 5.7 C 28.8 2.7 30.6 2.1 33.2 2.1 Z " transform="scale(1,-1)" stroke-dasharray="58.972748267161094" stroke-dashoffset="58.972748267161094"><animate attributeName="stroke-dashoffset" from="58.972748267161094" to="0" dur="1.7691824480148328s" begin="anim1.end" fill="freeze" id="anim2" /></path><path d="M 33.7 4.5 C 32.1 4.5 31.8 5.0 31.8 5.9 L 31.8 6.8 L 42.4 6.8 L 42.4 5.9 C 42.4 4.7 41.6 4.5 40.5 4.5 Z " transform="scale(1,-1)" stroke-dasharray="24.689734378008335" stroke-dashoffset="24.689734378008335"><animate attributeName="stroke-dashoffset" from="24.689734378008335" to="0" dur="0.7406920313402501s" begin="anim2.end" fill="freeze" id="anim3" /></path><path d="M 31.8 11.1 L 42.4 11.1 L 42.4 9.1 L 31.8 9.1 Z " transform="scale(1,-1)" stroke-dasharray="25.199999999999996" stroke-dashoffset="25.199999999999996"><animate attributeName="stroke-dashoffset" from="25.199999999999996" to="0" dur="0.7559999999999999s" begin="anim3.end" fill="freeze" id="anim4" /></path><path d="M 42.4 13.4 L 31.8 13.4 L 31.8 14.0 C 31.8 14.9 32.1 15.3 33.7 15.3 L 40.5 15.3 C 42.1 15.3 42.4 14.9 42.4 14.0 Z " transform="scale(1,-1)" stroke-dasharray="23.989489967443664" stroke-dashoffset="23.989489967443664"><animate attributeName="stroke-dashoffset" from="23.989489967443664" to="0" dur="0.7196846990233099s" begin="anim4.end" fill="freeze" id="anim5" /></path><path d="M 35.2 30.8 L 29.0 30.8 C 28.1 30.8 27.6 30.2 27.6 29.5 C 27.6 28.9 28.1 28.2 29.0 28.2 L 35.2 28.2 L 35.2 26.4 L 30.8 26.4 C 29.9 26.4 29.4 25.8 29.4 25.1 C 29.4 24.5 29.9 23.8 30.8 23.8 L 35.2 23.8 L 35.2 22.0 L 27.7 22.0 C 26.7 22.0 26.2 21.3 26.2 20.7 C 26.2 20.0 26.7 19.4 27.7 19.4 L 46.6 19.4 C 47.6 19.4 48.1 20.0 48.1 20.7 C 48.1 21.3 47.6 22.0 46.6 22.0 L 38.4 22.0 L 38.4 23.8 L 43.1 23.8 C 44.1 23.8 44.6 24.5 44.6 25.1 C 44.6 25.8 44.1 26.4 43.1 26.4 L 38.4 26.4 L 38.4 28.2 L 45.2 28.2 C 46.2 28.2 46.7 28.9 46.7 29.5 C 46.7 30.2 46.2 30.8 45.2 30.8 L 38.4 30.8 L 38.4 32.3 C 38.4 33.2 37.6 33.8 36.8 33.8 C 36.1 33.8 35.2 33.2 35.2 32.3 Z " transform="scale(1,-1)" stroke-dasharray="120.16701541330313" stroke-dashoffset="120.16701541330313"><animate attributeName="stroke-dashoffset" from="120.16701541330313" to="0" dur="3.6050104623990937s" begin="anim5.end" fill="freeze" id="anim6" /></path><path d="M 32.3 1.6 C 30.5 0.5 28.5 -0.5 26.6 -1.1 C 25.8 -1.4 25.4 -2.0 25.4 -2.6 C 25.4 -3.3 26.1 -4.0 27.0 -4.0 C 27.2 -4.0 27.4 -4.0 27.6 -4.0 C 29.8 -3.2 32.4 -2.0 34.1 -0.9 C 34.8 -0.4 35.1 0.1 35.1 0.6 C 35.1 1.4 34.4 2.0 33.5 2.0 C 33.1 2.0 32.7 1.9 32.3 1.6 Z " transform="scale(1,-1)" stroke-dasharray="24.06013178089776" stroke-dashoffset="24.06013178089776"><animate attributeName="stroke-dashoffset" from="24.06013178089776" to="0" dur="0.7218039534269327s" begin="anim6.end" fill="freeze" id="anim7" /></path><path d="M 41.2 1.7 C 40.8 1.9 40.5 2.0 40.2 2.0 C 39.2 2.0 38.6 1.4 38.6 0.7 C 38.6 0.2 38.9 -0.4 39.6 -0.9 C 40.9 -1.7 43.1 -2.8 45.1 -3.5 C 45.4 -3.6 45.7 -3.7 45.9 -3.7 C 46.9 -3.7 47.5 -3.0 47.5 -2.2 C 47.5 -1.6 47.1 -1.0 46.2 -0.6 C 44.3 0.1 42.5 1.0 41.2 1.7 Z" transform="scale(1,-1)" stroke-dasharray="22.381423199148344" stroke-dashoffset="22.381423199148344"><animate attributeName="stroke-dashoffset" from="22.381423199148344" to="0" dur="0.6714426959744503s" begin="anim7.end" fill="freeze" id="anim_end" /></path></g></svg>