<?xml version='1.0' encoding='utf-8'?>
<svg viewBox="0 -44.0 50.0 50.0" version="1.1" xmlns="http://www.w3.org/2000/svg"><rect x="-1000" y="-1000" width="2000" height="2000" stroke="white" fill="white" /><g style="fill:none;stroke:#000000;stroke-width:1"><path d="M 22.2 18.6 L 26.3 18.6 L 26.3 1.0 C 26.3 -0.1 27.1 -0.6 27.9 -0.6 C 28.7 -0.6 29.5 -0.1 29.5 1.0 L 29.5 18.6 L 33.5 18.6 L 33.5 1.0 C 33.5 -0.1 34.3 -0.6 35.1 -0.6 C 35.9 -0.6 36.7 -0.1 36.7 1.0 L 36.7 18.6 L 41.4 18.6 L 41.4 1.6 C 41.4 0.2 41.0 -0.2 40.4 -0.2 C 40.0 -0.2 39.4 -0.2 39.1 -0.2 C 38.0 0.1 37.4 -0.8 37.4 -1.7 C 37.4 -2.4 37.8 -3.2 38.8 -3.4 C 39.3 -3.5 40.0 -3.5 40.6 -3.5 C 43.5 -3.5 44.8 -1.9 44.8 1.2 L 44.8 18.6 L 47.4 18.6 C 48.3 18.6 48.8 19.3 48.8 20.1 C 48.8 20.8 48.3 21.6 47.4 21.6 L 44.8 21.6 L 44.8 35.0 C 44.8 38.2 43.5 39.8 39.9 39.8 L 23.8 39.8 C 20.2 39.8 18.9 38.2 18.9 35.0 L 18.9 21.6 L 16.6 21.6 C 15.7 21.6 15.2 20.8 15.2 20.1 C 15.2 19.3 15.7 18.6 16.6 18.6 L 18.9 18.6 L 18.9 -2.2 C 18.9 -3.3 19.7 -3.9 20.6 -3.9 C 21.4 -3.9 22.2 -3.3 22.2 -2.2 Z " transform="scale(1,-1)" stroke-dasharray="270.2159696304432" stroke-dashoffset="270.2159696304432"><animate attributeName="stroke-dashoffset" from="270.2159696304432" to="0" dur="8.106479088913296s" begin="0s; 15s; 30s; 45s; 60s" fill="freeze" id="anim0" /></path><path d="M 22.2 21.6 L 22.2 34.6 C 22.2 36.3 22.7 36.8 24.2 36.8 L 26.3 36.8 L 26.3 21.6 Z " transform="scale(1,-1)" stroke-dasharray="37.90862643506415" stroke-dashoffset="37.90862643506415"><animate attributeName="stroke-dashoffset" from="37.90862643506415" to="0" dur="1.1372587930519245s" begin="anim0.end" fill="freeze" id="anim1" /></path><path d="M 41.4 21.6 L 36.7 21.6 L 36.7 36.8 L 39.4 36.8 C 41.0 36.8 41.4 36.3 41.4 34.6 Z " transform="scale(1,-1)" stroke-dasharray="39.13553028307644" stroke-dashoffset="39.13553028307644"><animate attributeName="stroke-dashoffset" from="39.13553028307644" to="0" dur="1.1740659084922933s" begin="anim1.end" fill="freeze" id="anim2" /></path><path d="M 33.5 21.6 L 29.5 21.6 L 29.5 36.8 L 33.5 36.8 Z " transform="scale(1,-1)" stroke-dasharray="38.39999999999999" stroke-dashoffset="38.39999999999999"><animate attributeName="stroke-dashoffset" from="38.39999999999999" to="0" dur="1.1519999999999997s" begin="anim2.end" fill="freeze" id="anim3" /></path><path d="M 7.4 35.7 L 7.4 25.5 L 3.9 25.5 C 3.0 25.5 2.5 24.8 2.5 24.0 C 2.5 23.2 3.0 22.5 3.9 22.5 L 7.4 22.5 L 7.4 9.5 C 5.9 9.0 4.4 8.5 3.0 8.1 C 2.0 7.9 1.6 7.2 1.6 6.5 C 1.6 5.4 2.5 4.4 3.8 4.8 C 7.5 5.9 12.2 7.8 15.5 9.5 C 16.2 9.8 16.5 10.4 16.5 11.0 C 16.5 11.7 15.9 12.5 15.0 12.5 C 14.8 12.5 14.5 12.4 14.2 12.2 C 13.1 11.7 11.9 11.2 10.7 10.8 L 10.7 22.5 L 14.0 22.5 C 14.9 22.5 15.4 23.2 15.4 24.0 C 15.4 24.8 14.9 25.5 14.0 25.5 L 10.7 25.5 L 10.7 35.7 L 14.5 35.7 C 15.5 35.7 16.0 36.5 16.0 37.2 C 16.0 38.0 15.5 38.8 14.5 38.8 L 3.5 38.8 C 2.6 38.8 2.1 38.0 2.1 37.2 C 2.1 36.5 2.6 35.7 3.5 35.7 Z" transform="scale(1,-1)" stroke-dasharray="127.83019667365066" stroke-dashoffset="127.83019667365066"><animate attributeName="stroke-dashoffset" from="127.83019667365066" to="0" dur="3.83490590020952s" begin="anim3.end" fill="freeze" id="anim_end" /></path></g></svg>