<?xml version='1.0' encoding='utf-8'?>
<svg viewBox="0 -44.0 50.0 50.0" version="1.1" xmlns="http://www.w3.org/2000/svg"><rect x="-1000" y="-1000" width="2000" height="2000" stroke="white" fill="white" /><g style="fill:none;stroke:#000000;stroke-width:1"><path d="M 46.7 16.5 C 47.6 16.5 48.1 17.2 48.1 18.1 C 48.1 18.8 47.6 19.6 46.7 19.6 L 43.4 19.6 L 43.4 28.0 C 43.4 30.9 41.8 32.4 38.4 32.4 L 33.6 32.4 L 33.6 40.2 C 33.6 41.4 32.8 42.0 31.9 42.0 C 31.0 42.0 30.1 41.4 30.1 40.2 L 30.1 32.4 L 23.6 32.4 C 22.7 32.4 22.2 31.6 22.2 30.9 C 22.2 30.1 22.7 29.3 23.6 29.3 L 30.1 29.3 L 30.1 25.6 C 30.1 23.6 30.0 21.6 29.8 19.6 L 21.6 19.6 C 20.7 19.6 20.2 18.8 20.2 18.1 C 20.2 17.2 20.7 16.5 21.6 16.5 L 29.4 16.5 C 28.0 8.4 24.4 3.1 19.1 -0.8 C 18.4 -1.2 18.2 -1.8 18.2 -2.4 C 18.2 -3.1 18.8 -3.8 19.7 -3.8 C 20.1 -3.8 20.5 -3.7 21.0 -3.3 C 26.4 0.5 30.5 6.2 32.4 14.2 C 34.8 7.3 39.3 0.9 44.8 -2.7 C 45.2 -3.0 45.6 -3.1 45.9 -3.1 C 46.9 -3.1 47.7 -2.2 47.7 -1.2 C 47.7 -0.6 47.4 0.1 46.6 0.7 C 41.2 4.0 36.9 9.9 34.5 16.5 Z " transform="scale(1,-1)" stroke-dasharray="205.93748982479667" stroke-dashoffset="205.93748982479667"><animate attributeName="stroke-dashoffset" from="205.93748982479667" to="0" dur="6.1781246947439s" begin="0s; 15s; 30s; 45s; 60s" fill="freeze" id="anim0" /></path><path d="M 33.3 19.6 C 33.5 21.3 33.6 23.2 33.6 25.1 L 33.6 29.3 L 37.7 29.3 C 39.5 29.3 39.9 28.9 39.9 27.2 L 39.9 19.6 Z " transform="scale(1,-1)" stroke-dasharray="31.661125581531902" stroke-dashoffset="31.661125581531902"><animate attributeName="stroke-dashoffset" from="31.661125581531902" to="0" dur="0.949833767445957s" begin="anim0.end" fill="freeze" id="anim1" /></path><path d="M 13.5 -2.4 C 16.9 -2.4 18.2 -1.1 18.2 1.8 L 18.2 8.0 C 18.2 10.8 16.9 12.1 13.5 12.1 L 8.8 12.1 C 5.5 12.1 4.2 10.8 4.2 8.0 L 4.2 1.8 C 4.2 -1.5 5.9 -2.3 8.8 -2.4 Z " transform="scale(1,-1)" stroke-dasharray="50.68339702943389" stroke-dashoffset="50.68339702943389"><animate attributeName="stroke-dashoffset" from="50.68339702943389" to="0" dur="1.5205019108830167s" begin="anim1.end" fill="freeze" id="anim2" /></path><path d="M 9.4 0.6 C 8.0 0.6 7.6 1.1 7.6 2.2 L 7.6 7.5 C 7.6 8.6 8.0 9.1 9.4 9.1 L 13.0 9.1 C 14.4 9.1 14.8 8.6 14.8 7.5 L 14.8 2.2 C 14.8 1.0 14.2 0.6 13.0 0.6 Z " transform="scale(1,-1)" stroke-dasharray="29.04685861645051" stroke-dashoffset="29.04685861645051"><animate attributeName="stroke-dashoffset" from="29.04685861645051" to="0" dur="0.8714057584935153s" begin="anim2.end" fill="freeze" id="anim3" /></path><path d="M 18.7 29.8 C 19.6 29.8 20.1 30.6 20.1 31.3 C 20.1 32.1 19.6 32.9 18.7 32.9 L 3.0 32.9 C 2.1 32.9 1.6 32.1 1.6 31.3 C 1.6 30.6 2.1 29.8 3.0 29.8 Z " transform="scale(1,-1)" stroke-dasharray="40.71089041493735" stroke-dashoffset="40.71089041493735"><animate attributeName="stroke-dashoffset" from="40.71089041493735" to="0" dur="1.2213267124481206s" begin="anim3.end" fill="freeze" id="anim4" /></path><path d="M 16.2 36.4 C 17.2 36.4 17.7 37.2 17.7 38.0 C 17.7 38.8 17.2 39.5 16.2 39.5 L 5.9 39.5 C 5.0 39.5 4.5 38.8 4.5 38.0 C 4.5 37.2 5.0 36.4 5.9 36.4 Z " transform="scale(1,-1)" stroke-dasharray="30.123758507909596" stroke-dashoffset="30.123758507909596"><animate attributeName="stroke-dashoffset" from="30.123758507909596" to="0" dur="0.9037127552372879s" begin="anim4.end" fill="freeze" id="anim5" /></path><path d="M 16.2 22.8 C 17.2 22.8 17.7 23.6 17.7 24.3 C 17.7 25.1 17.2 25.9 16.2 25.9 L 5.9 25.9 C 5.0 25.9 4.5 25.1 4.5 24.3 C 4.5 23.6 5.0 22.8 5.9 22.8 Z " transform="scale(1,-1)" stroke-dasharray="30.08260729842387" stroke-dashoffset="30.08260729842387"><animate attributeName="stroke-dashoffset" from="30.08260729842387" to="0" dur="0.9024782189527161s" begin="anim5.end" fill="freeze" id="anim6" /></path><path d="M 16.2 16.0 C 17.2 16.0 17.7 16.8 17.7 17.5 C 17.7 18.3 17.2 19.1 16.2 19.1 L 5.9 19.1 C 5.0 19.1 4.5 18.3 4.5 17.5 C 4.5 16.8 5.0 16.0 5.9 16.0 Z" transform="scale(1,-1)" stroke-dasharray="30.082607298423877" stroke-dashoffset="30.082607298423877"><animate attributeName="stroke-dashoffset" from="30.082607298423877" to="0" dur="0.9024782189527163s" begin="anim6.end" fill="freeze" id="anim_end" /></path></g></svg>