<?xml version='1.0' encoding='utf-8'?>
<svg viewBox="0 -44.0 50.0 50.0" version="1.1" xmlns="http://www.w3.org/2000/svg"><rect x="-1000" y="-1000" width="2000" height="2000" stroke="white" fill="white" /><g style="fill:none;stroke:#000000;stroke-width:1"><path d="M 28.7 33.2 C 25.8 29.9 21.9 26.9 18.2 25.0 C 17.6 24.6 17.4 24.1 17.4 23.6 C 17.4 22.8 17.9 22.1 18.8 22.1 C 19.1 22.1 19.3 22.1 19.6 22.2 C 23.8 24.5 27.7 27.6 30.6 30.9 L 30.5 28.4 L 30.5 26.4 C 30.5 25.4 31.3 24.9 32.1 24.9 C 33.0 24.9 33.8 25.4 33.8 26.4 L 33.8 29.1 C 36.9 27.8 40.6 25.7 43.7 23.4 C 44.0 23.1 44.4 23.0 44.8 23.0 C 45.7 23.0 46.4 23.8 46.4 24.7 C 46.4 25.2 46.1 25.8 45.4 26.2 C 41.7 28.8 37.6 30.8 33.8 31.9 L 33.8 33.2 L 44.9 33.2 C 45.9 33.2 46.4 33.9 46.4 34.6 C 46.4 35.3 45.9 36.0 44.9 36.0 L 33.8 36.0 L 33.8 40.3 C 33.8 41.3 33.0 41.8 32.1 41.8 C 31.3 41.8 30.5 41.3 30.5 40.3 L 30.5 36.0 L 20.6 36.0 C 19.6 36.0 19.1 35.3 19.1 34.6 C 19.1 33.9 19.6 33.2 20.6 33.2 Z " transform="scale(1,-1)" stroke-dasharray="138.91494521673712" stroke-dashoffset="138.91494521673712"><animate attributeName="stroke-dashoffset" from="138.91494521673712" to="0" dur="4.167448356502113s" begin="0s; 15s; 30s; 45s; 60s" fill="freeze" id="anim0" /></path><path d="M 31.7 20.2 C 35.6 16.8 41.3 13.6 46.1 11.9 C 46.3 11.8 46.5 11.8 46.7 11.8 C 47.7 11.8 48.4 12.7 48.4 13.6 C 48.4 14.3 48.0 15.1 47.0 15.4 C 42.7 16.7 37.5 19.2 33.5 22.2 C 33.6 22.5 33.6 22.6 33.6 22.8 C 33.6 23.7 32.8 24.4 31.9 24.4 C 31.4 24.4 30.9 24.2 30.5 23.7 C 27.5 20.0 22.2 16.0 18.3 14.0 C 17.7 13.6 17.4 13.1 17.4 12.7 C 17.4 11.9 18.1 11.1 18.9 11.1 C 19.2 11.1 19.4 11.2 19.7 11.3 C 23.6 13.3 28.1 16.6 31.7 20.2 Z " transform="scale(1,-1)" stroke-dasharray="78.08143939101802" stroke-dashoffset="78.08143939101802"><animate attributeName="stroke-dashoffset" from="78.08143939101802" to="0" dur="2.3424431817305407s" begin="anim0.end" fill="freeze" id="anim1" /></path><path d="M 12.7 13.8 L 12.7 2.4 C 12.7 1.2 12.2 0.8 11.3 0.8 C 10.8 0.8 10.2 0.9 9.6 1.0 C 8.4 1.2 7.7 0.3 7.7 -0.7 C 7.7 -1.4 8.2 -2.1 9.1 -2.3 C 9.9 -2.5 10.7 -2.6 11.7 -2.6 C 14.4 -2.6 16.0 -1.2 16.0 2.1 L 16.0 35.4 C 16.0 38.7 14.7 39.9 11.5 39.9 L 8.8 39.9 C 5.7 39.9 4.4 38.7 4.4 35.4 L 4.4 23.7 C 4.4 11.2 3.4 4.7 1.6 0.0 C 1.4 -0.4 1.4 -0.7 1.4 -1.0 C 1.4 -2.0 2.1 -2.6 2.9 -2.6 C 3.6 -2.6 4.3 -2.1 4.7 -1.1 C 6.1 2.5 7.0 7.0 7.4 13.8 Z " transform="scale(1,-1)" stroke-dasharray="143.67615963312522" stroke-dashoffset="143.67615963312522"><animate attributeName="stroke-dashoffset" from="143.67615963312522" to="0" dur="4.310284788993757s" begin="anim1.end" fill="freeze" id="anim2" /></path><path d="M 12.7 28.4 L 7.6 28.4 L 7.6 35.0 C 7.6 36.5 7.9 36.9 9.2 36.9 L 11.1 36.9 C 12.4 36.9 12.7 36.5 12.7 35.0 Z " transform="scale(1,-1)" stroke-dasharray="26.12336394925541" stroke-dashoffset="26.12336394925541"><animate attributeName="stroke-dashoffset" from="26.12336394925541" to="0" dur="0.7837009184776622s" begin="anim2.end" fill="freeze" id="anim3" /></path><path d="M 12.7 25.5 L 12.7 16.7 L 7.5 16.7 C 7.6 19.0 7.6 21.3 7.6 23.6 L 7.6 25.5 Z " transform="scale(1,-1)" stroke-dasharray="27.9013040055936" stroke-dashoffset="27.9013040055936"><animate attributeName="stroke-dashoffset" from="27.9013040055936" to="0" dur="0.837039120167808s" begin="anim3.end" fill="freeze" id="anim4" /></path><path d="M 38.6 12.5 C 37.7 11.7 37.0 11.2 35.9 10.6 C 35.3 10.2 35.1 9.8 35.1 9.3 C 35.1 8.6 35.7 7.9 36.6 7.9 C 36.8 7.9 37.1 7.9 37.4 8.1 C 38.4 8.6 39.6 9.3 40.6 10.1 C 41.1 10.5 41.3 11.0 41.3 11.4 C 41.3 12.2 40.7 12.9 39.8 12.9 C 39.5 12.9 39.0 12.8 38.6 12.5 Z " transform="scale(1,-1)" stroke-dasharray="16.98419761795051" stroke-dashoffset="16.98419761795051"><animate attributeName="stroke-dashoffset" from="16.98419761795051" to="0" dur="0.5095259285385153s" begin="anim4.end" fill="freeze" id="anim5" /></path><path d="M 26.9 6.1 C 24.6 5.0 21.2 4.0 18.8 3.4 C 17.9 3.1 17.4 2.5 17.4 1.8 C 17.4 1.0 18.1 0.2 19.1 0.2 C 19.2 0.2 19.5 0.2 19.7 0.2 C 22.4 1.0 26.0 2.3 28.2 3.3 C 28.9 3.7 29.2 4.2 29.2 4.8 C 29.2 5.5 28.6 6.2 27.7 6.2 C 27.5 6.2 27.2 6.2 26.9 6.1 Z " transform="scale(1,-1)" stroke-dasharray="28.055951030083992" stroke-dashoffset="28.055951030083992"><animate attributeName="stroke-dashoffset" from="28.055951030083992" to="0" dur="0.8416785309025198s" begin="anim5.end" fill="freeze" id="anim6" /></path><path d="M 42.7 -1.0 C 43.1 -1.3 43.5 -1.5 43.9 -1.5 C 44.8 -1.5 45.6 -0.7 45.6 0.3 C 45.6 0.9 45.2 1.5 44.6 2.0 C 42.6 3.5 39.9 5.0 37.9 5.9 C 37.5 6.1 37.2 6.1 37.0 6.1 C 36.0 6.1 35.4 5.4 35.4 4.5 C 35.4 4.0 35.8 3.3 36.6 2.9 C 38.3 2.1 40.8 0.5 42.7 -1.0 Z " transform="scale(1,-1)" stroke-dasharray="26.688216025923936" stroke-dashoffset="26.688216025923936"><animate attributeName="stroke-dashoffset" from="26.688216025923936" to="0" dur="0.800646480777718s" begin="anim6.end" fill="freeze" id="anim7" /></path><path d="M 25.0 12.2 C 24.7 12.5 24.4 12.6 24.1 12.6 C 23.2 12.6 22.5 11.9 22.5 11.1 C 22.5 10.7 22.7 10.2 23.2 9.9 C 24.0 9.2 24.7 8.6 25.5 7.8 C 25.8 7.5 26.2 7.3 26.6 7.3 C 27.4 7.3 28.2 8.0 28.2 8.8 C 28.2 9.2 28.0 9.8 27.5 10.2 C 26.8 10.9 25.9 11.6 25.0 12.2 Z " transform="scale(1,-1)" stroke-dasharray="16.485399451600774" stroke-dashoffset="16.485399451600774"><animate attributeName="stroke-dashoffset" from="16.485399451600774" to="0" dur="0.4945619835480232s" begin="anim7.end" fill="freeze" id="anim8" /></path><path d="M 33.8 14.6 C 33.8 15.6 33.0 16.0 32.1 16.0 C 31.3 16.0 30.5 15.6 30.5 14.6 L 30.5 1.2 C 30.5 0.2 30.0 -0.2 29.4 -0.2 C 28.7 -0.2 27.9 -0.1 27.2 0.1 C 26.1 0.2 25.5 -0.7 25.5 -1.6 C 25.5 -2.2 25.8 -3.0 26.7 -3.1 C 27.7 -3.3 28.5 -3.4 29.6 -3.4 C 32.3 -3.4 33.8 -2.2 33.8 0.9 Z" transform="scale(1,-1)" stroke-dasharray="50.93373324755085" stroke-dashoffset="50.93373324755085"><animate attributeName="stroke-dashoffset" from="50.93373324755085" to="0" dur="1.5280119974265254s" begin="anim8.end" fill="freeze" id="anim_end" /></path></g></svg>