<?xml version='1.0' encoding='utf-8'?>
<svg viewBox="0 -44.0 50.0 50.0" version="1.1" xmlns="http://www.w3.org/2000/svg"><rect x="-1000" y="-1000" width="2000" height="2000" stroke="white" fill="white" /><g style="fill:none;stroke:#000000;stroke-width:1"><path d="M 16.7 31.8 L 21.2 31.8 C 22.1 31.8 22.4 32.4 22.4 33.0 C 22.4 33.6 22.1 34.1 21.2 34.1 L 16.7 34.1 L 16.7 36.1 L 22.9 36.1 C 23.8 36.1 24.2 36.7 24.2 37.3 C 24.2 37.9 23.8 38.5 22.9 38.5 L 17.1 38.5 C 17.2 39.1 17.5 39.6 17.8 40.2 C 17.9 40.5 17.9 40.7 17.9 40.9 C 17.9 41.6 17.2 42.0 16.6 42.0 C 15.9 42.0 15.2 41.7 15.0 40.9 C 14.7 40.0 14.4 39.2 14.1 38.5 L 10.5 38.5 C 10.4 38.5 10.2 38.5 10.2 38.5 C 10.4 39.0 10.7 39.5 11.0 40.0 C 11.2 40.3 11.2 40.7 11.2 40.9 C 11.2 41.8 10.6 42.2 9.8 42.2 C 9.2 42.2 8.5 41.9 8.2 41.2 C 6.8 38.2 4.5 34.9 2.3 32.6 C 1.9 32.1 1.8 31.7 1.8 31.2 C 1.8 30.6 2.3 30.0 3.1 30.0 C 3.5 30.0 4.0 30.2 4.4 30.7 C 5.0 31.3 5.7 32.0 6.2 32.8 L 6.2 26.4 C 6.2 24.0 7.2 23.0 10.5 23.0 L 23.2 23.0 C 24.0 23.0 24.4 23.7 24.4 24.2 C 24.4 24.9 24.0 25.5 23.2 25.5 L 16.7 25.5 L 16.7 27.6 L 21.2 27.6 C 22.1 27.6 22.4 28.2 22.4 28.7 C 22.4 29.3 22.1 29.9 21.2 29.9 L 16.7 29.9 Z " transform="scale(1,-1)" stroke-dasharray="121.48756807570308" stroke-dashoffset="121.48756807570308"><animate attributeName="stroke-dashoffset" from="121.48756807570308" to="0" dur="3.6446270422710922s" begin="0s; 15s; 30s; 45s; 60s" fill="freeze" id="anim0" /></path><path d="M 13.9 31.8 L 13.9 29.9 L 9.2 29.9 L 9.2 31.8 Z " transform="scale(1,-1)" stroke-dasharray="13.200000000000006" stroke-dashoffset="13.200000000000006"><animate attributeName="stroke-dashoffset" from="13.200000000000006" to="0" dur="0.3960000000000002s" begin="anim0.end" fill="freeze" id="anim1" /></path><path d="M 13.9 34.1 L 9.2 34.1 L 9.2 35.1 C 9.2 35.9 9.5 36.1 10.8 36.1 L 13.9 36.1 Z " transform="scale(1,-1)" stroke-dasharray="13.018137156753266" stroke-dashoffset="13.018137156753266"><animate attributeName="stroke-dashoffset" from="13.018137156753266" to="0" dur="0.390544114702598s" begin="anim1.end" fill="freeze" id="anim2" /></path><path d="M 13.9 25.5 L 10.8 25.5 C 9.5 25.5 9.2 25.8 9.2 26.6 L 9.2 27.6 L 13.9 27.6 Z " transform="scale(1,-1)" stroke-dasharray="13.173666071240469" stroke-dashoffset="13.173666071240469"><animate attributeName="stroke-dashoffset" from="13.173666071240469" to="0" dur="0.39520998213721403s" begin="anim2.end" fill="freeze" id="anim3" /></path><path d="M 38.3 31.8 L 43.4 31.8 C 44.2 31.8 44.5 32.4 44.5 33.0 C 44.5 33.6 44.2 34.1 43.4 34.1 L 38.3 34.1 L 38.3 36.1 L 45.5 36.1 C 46.4 36.1 46.8 36.7 46.8 37.3 C 46.8 37.9 46.4 38.5 45.5 38.5 L 38.6 38.5 C 38.8 39.1 39.0 39.6 39.2 40.2 C 39.4 40.5 39.4 40.7 39.4 40.9 C 39.4 41.6 38.7 42.0 38.1 42.0 C 37.4 42.0 36.8 41.7 36.5 40.9 C 36.2 40.0 35.9 39.2 35.6 38.5 L 31.9 38.5 L 31.7 38.5 C 32.0 39.0 32.3 39.5 32.6 40.0 C 32.8 40.3 32.9 40.6 32.9 40.9 C 32.9 41.7 32.1 42.2 31.4 42.2 C 30.8 42.2 30.2 41.9 29.8 41.2 C 28.5 38.3 26.4 35.2 24.2 33.0 C 23.9 32.6 23.7 32.2 23.7 31.9 C 23.7 31.1 24.3 30.6 25.1 30.6 C 25.5 30.6 26.0 30.8 26.4 31.2 C 26.8 31.6 27.2 32.1 27.6 32.6 L 27.6 26.4 C 27.6 24.0 28.6 23.0 31.9 23.0 L 45.6 23.0 C 46.5 23.0 46.9 23.7 46.9 24.2 C 46.9 24.9 46.5 25.5 45.6 25.5 L 38.3 25.5 L 38.3 27.6 L 43.4 27.6 C 44.2 27.6 44.5 28.2 44.5 28.7 C 44.5 29.3 44.2 29.9 43.4 29.9 L 38.3 29.9 Z " transform="scale(1,-1)" stroke-dasharray="125.8702024507407" stroke-dashoffset="125.8702024507407"><animate attributeName="stroke-dashoffset" from="125.8702024507407" to="0" dur="3.776106073522221s" begin="anim3.end" fill="freeze" id="anim4" /></path><path d="M 35.5 31.8 L 35.5 29.9 L 30.5 29.9 L 30.5 31.8 Z " transform="scale(1,-1)" stroke-dasharray="13.800000000000004" stroke-dashoffset="13.800000000000004"><animate attributeName="stroke-dashoffset" from="13.800000000000004" to="0" dur="0.4140000000000001s" begin="anim4.end" fill="freeze" id="anim5" /></path><path d="M 35.5 34.1 L 30.5 34.1 L 30.5 35.1 C 30.5 35.9 30.8 36.1 32.1 36.1 L 35.5 36.1 Z " transform="scale(1,-1)" stroke-dasharray="13.618137156753264" stroke-dashoffset="13.618137156753264"><animate attributeName="stroke-dashoffset" from="13.618137156753264" to="0" dur="0.4085441147025979s" begin="anim5.end" fill="freeze" id="anim6" /></path><path d="M 35.5 25.5 L 32.1 25.5 C 30.8 25.5 30.5 25.8 30.5 26.6 L 30.5 27.6 L 35.5 27.6 Z " transform="scale(1,-1)" stroke-dasharray="13.773666071240466" stroke-dashoffset="13.773666071240466"><animate attributeName="stroke-dashoffset" from="13.773666071240466" to="0" dur="0.413209982137214s" begin="anim6.end" fill="freeze" id="anim7" /></path><path d="M 36.4 -3.5 C 39.2 -3.5 40.4 -2.7 40.4 -0.6 L 40.4 1.3 C 40.4 3.3 39.2 4.1 36.4 4.1 L 13.9 4.1 C 11.0 4.1 9.9 3.3 9.9 1.3 L 9.9 -0.6 C 10.0 -3.1 11.8 -3.4 13.9 -3.5 Z " transform="scale(1,-1)" stroke-dasharray="71.38084176593756" stroke-dashoffset="71.38084176593756"><animate attributeName="stroke-dashoffset" from="71.38084176593756" to="0" dur="2.141425252978127s" begin="anim7.end" fill="freeze" id="anim8" /></path><path d="M 14.6 -1.0 C 13.5 -1.0 13.2 -0.8 13.2 -0.2 L 13.2 0.9 C 13.2 1.4 13.5 1.7 14.6 1.7 L 35.7 1.7 C 36.8 1.7 37.1 1.4 37.1 0.9 L 37.1 -0.2 C 37.1 -1.0 36.4 -1.0 35.7 -1.0 Z " transform="scale(1,-1)" stroke-dasharray="51.78778159509914" stroke-dashoffset="51.78778159509914"><animate attributeName="stroke-dashoffset" from="51.78778159509914" to="0" dur="1.553633447852974s" begin="anim8.end" fill="freeze" id="anim9" /></path><path d="M 46.0 14.2 C 46.9 14.2 47.3 14.9 47.3 15.6 C 47.3 16.2 46.9 16.9 46.0 16.9 L 4.0 16.9 C 3.2 16.9 2.8 16.2 2.8 15.6 C 2.8 14.9 3.2 14.2 4.0 14.2 Z " transform="scale(1,-1)" stroke-dasharray="92.24733441888462" stroke-dashoffset="92.24733441888462"><animate attributeName="stroke-dashoffset" from="92.24733441888462" to="0" dur="2.7674200325665383s" begin="anim9.end" fill="freeze" id="anim10" /></path><path d="M 37.5 10.1 C 38.3 10.1 38.8 10.7 38.8 11.3 C 38.8 12.0 38.3 12.6 37.5 12.6 L 12.8 12.6 C 11.9 12.6 11.5 12.0 11.5 11.3 C 11.5 10.7 11.9 10.1 12.8 10.1 Z " transform="scale(1,-1)" stroke-dasharray="57.49547091410324" stroke-dashoffset="57.49547091410324"><animate attributeName="stroke-dashoffset" from="57.49547091410324" to="0" dur="1.7248641274230971s" begin="anim10.end" fill="freeze" id="anim11" /></path><path d="M 37.5 5.9 C 38.3 5.9 38.8 6.5 38.8 7.1 C 38.8 7.8 38.3 8.3 37.5 8.3 L 12.8 8.3 C 11.9 8.3 11.5 7.8 11.5 7.1 C 11.5 6.5 11.9 5.9 12.8 5.9 Z " transform="scale(1,-1)" stroke-dasharray="57.362387992864214" stroke-dashoffset="57.362387992864214"><animate attributeName="stroke-dashoffset" from="57.362387992864214" to="0" dur="1.7208716397859263s" begin="anim11.end" fill="freeze" id="anim12" /></path><path d="M 38.0 18.6 C 38.8 18.6 39.2 19.2 39.2 19.9 C 39.2 20.6 38.8 21.2 38.0 21.2 L 12.1 21.2 C 11.2 21.2 10.8 20.6 10.8 19.9 C 10.8 19.2 11.2 18.6 12.1 18.6 Z" transform="scale(1,-1)" stroke-dasharray="59.947263877209885" stroke-dashoffset="59.947263877209885"><animate attributeName="stroke-dashoffset" from="59.947263877209885" to="0" dur="1.7984179163162965s" begin="anim12.end" fill="freeze" id="anim_end" /></path></g></svg>