<?xml version='1.0' encoding='utf-8'?>
<svg viewBox="0 -44.0 50.0 50.0" version="1.1" xmlns="http://www.w3.org/2000/svg"><rect x="-1000" y="-1000" width="2000" height="2000" stroke="white" fill="white" /><g style="fill:none;stroke:#000000;stroke-width:1"><path d="M 12.3 25.0 C 15.5 25.0 16.7 26.2 16.7 29.2 L 16.7 35.6 C 16.7 38.7 15.4 40.0 12.1 40.0 L 8.1 40.0 C 4.8 40.0 3.5 38.7 3.5 35.6 L 3.5 29.2 C 3.5 26.2 4.8 25.0 8.0 25.0 L 9.2 25.0 L 9.2 3.4 C 8.4 3.1 7.6 2.9 6.8 2.7 L 6.8 18.8 C 6.8 19.7 6.0 20.2 5.2 20.2 C 4.5 20.2 3.7 19.7 3.7 18.8 L 3.7 2.0 C 3.2 1.9 2.9 1.8 2.5 1.8 C 1.6 1.6 1.2 0.9 1.2 0.2 C 1.2 -0.7 1.9 -1.6 3.0 -1.4 C 7.6 -0.5 12.9 1.1 17.4 3.0 C 18.2 3.2 18.5 3.9 18.5 4.4 C 18.5 5.1 17.9 5.8 17.1 5.8 C 16.9 5.8 16.7 5.8 16.4 5.7 C 15.1 5.2 13.7 4.7 12.3 4.2 L 12.3 14.7 L 16.2 14.7 C 17.2 14.7 17.6 15.5 17.6 16.2 C 17.6 16.9 17.2 17.7 16.2 17.7 L 12.3 17.7 Z " transform="scale(1,-1)" stroke-dasharray="169.4241486515204" stroke-dashoffset="169.4241486515204"><animate attributeName="stroke-dashoffset" from="169.4241486515204" to="0" dur="5.082724459545612s" begin="0s; 15s; 30s; 45s; 60s" fill="freeze" id="anim0" /></path><path d="M 8.4 27.8 C 7.1 27.8 6.7 28.1 6.7 29.6 L 6.7 35.2 C 6.7 36.8 7.1 37.1 8.4 37.1 L 11.8 37.1 C 13.1 37.1 13.5 36.8 13.5 35.2 L 13.5 29.6 C 13.5 28.1 13.1 27.8 11.8 27.8 Z " transform="scale(1,-1)" stroke-dasharray="30.01114601498694" stroke-dashoffset="30.01114601498694"><animate attributeName="stroke-dashoffset" from="30.01114601498694" to="0" dur="0.9003343804496082s" begin="anim0.end" fill="freeze" id="anim1" /></path><path d="M 46.0 7.6 C 47.0 7.6 47.4 8.3 47.4 9.1 C 47.4 9.8 47.0 10.6 46.0 10.6 L 33.2 10.6 C 33.5 11.7 33.6 12.9 33.8 14.1 L 42.5 14.1 C 43.5 14.1 44.0 14.9 44.0 15.6 C 44.0 16.3 43.5 17.0 42.5 17.0 L 33.9 17.0 C 33.9 17.4 33.9 17.9 33.9 18.4 L 33.9 20.5 L 44.8 20.5 C 45.8 20.5 46.2 21.2 46.2 22.0 C 46.2 22.7 45.8 23.4 44.8 23.4 L 37.8 23.4 C 38.4 24.3 38.8 25.2 39.4 26.5 C 39.5 26.8 39.6 27.0 39.6 27.2 C 39.6 28.1 38.8 28.8 37.9 28.8 C 37.3 28.8 36.7 28.4 36.4 27.6 C 35.7 26.0 35.1 24.8 34.4 23.4 L 29.1 23.4 C 29.5 23.7 29.7 24.1 29.7 24.6 C 29.7 24.9 29.6 25.2 29.4 25.6 C 29.0 26.5 28.5 27.2 27.9 28.0 C 27.5 28.5 27.0 28.7 26.5 28.7 C 25.6 28.7 24.9 28.1 24.9 27.2 C 24.9 26.9 25.0 26.5 25.2 26.2 C 25.7 25.4 26.1 24.8 26.6 23.9 C 26.7 23.7 26.9 23.6 27.0 23.4 L 20.6 23.4 C 19.6 23.4 19.1 22.7 19.1 22.0 C 19.1 21.2 19.6 20.5 20.6 20.5 L 30.5 20.5 L 30.5 18.8 C 30.5 18.2 30.5 17.6 30.5 17.0 L 22.8 17.0 C 21.9 17.0 21.4 16.3 21.4 15.6 C 21.4 14.9 21.9 14.1 22.8 14.1 L 30.3 14.1 C 30.2 12.9 30.1 11.7 29.8 10.6 L 18.9 10.6 C 18.0 10.6 17.5 9.8 17.5 9.1 C 17.5 8.3 18.0 7.6 18.9 7.6 L 28.8 7.6 C 28.0 6.0 27.1 4.7 25.8 3.6 C 23.2 1.5 19.6 -0.2 16.1 -1.0 C 15.0 -1.2 14.5 -1.9 14.5 -2.7 C 14.5 -3.6 15.3 -4.5 16.7 -4.2 C 20.6 -3.4 24.9 -1.5 28.0 1.1 C 29.5 2.4 30.6 3.8 31.5 5.5 C 34.7 1.2 40.0 -2.2 45.5 -3.6 C 47.0 -3.9 47.9 -2.9 47.9 -1.9 C 47.9 -1.1 47.4 -0.3 46.3 -0.1 C 41.2 1.2 36.6 3.9 33.6 7.6 Z " transform="scale(1,-1)" stroke-dasharray="264.8865741512522" stroke-dashoffset="264.8865741512522"><animate attributeName="stroke-dashoffset" from="264.8865741512522" to="0" dur="7.946597224537566s" begin="anim1.end" fill="freeze" id="anim2" /></path><path d="M 37.2 32.2 L 37.2 40.0 C 37.2 41.0 36.4 41.5 35.6 41.5 C 34.8 41.5 33.9 41.0 33.9 40.0 L 33.9 32.2 L 30.5 32.2 L 30.5 40.0 C 30.5 41.0 29.7 41.5 28.9 41.5 C 28.1 41.5 27.2 41.0 27.2 40.0 L 27.2 32.2 L 19.4 32.2 C 18.4 32.2 17.9 31.6 17.9 30.8 C 17.9 30.1 18.4 29.4 19.4 29.4 L 46.4 29.4 C 47.3 29.4 47.8 30.1 47.8 30.8 C 47.8 31.6 47.3 32.2 46.4 32.2 Z " transform="scale(1,-1)" stroke-dasharray="97.64688834341426" stroke-dashoffset="97.64688834341426"><animate attributeName="stroke-dashoffset" from="97.64688834341426" to="0" dur="2.9294066503024276s" begin="anim2.end" fill="freeze" id="anim3" /></path><path d="M 23.2 38.9 C 22.9 39.4 22.3 39.6 21.9 39.6 C 21.0 39.6 20.2 39.1 20.2 38.2 C 20.2 38.0 20.4 37.6 20.6 37.4 C 21.2 36.5 22.0 35.3 22.6 34.2 C 22.9 33.6 23.5 33.2 24.0 33.2 C 24.8 33.2 25.6 33.9 25.6 34.9 C 25.6 35.1 25.5 35.5 25.3 35.8 C 24.9 36.8 24.0 38.1 23.2 38.9 Z " transform="scale(1,-1)" stroke-dasharray="17.801389478887145" stroke-dashoffset="17.801389478887145"><animate attributeName="stroke-dashoffset" from="17.801389478887145" to="0" dur="0.5340416843666144s" begin="anim3.end" fill="freeze" id="anim4" /></path><path d="M 41.4 38.7 C 40.8 37.5 40.1 36.2 39.5 35.4 C 39.2 35.1 39.1 34.7 39.1 34.4 C 39.1 33.6 39.7 33.0 40.5 33.0 C 41.0 33.0 41.5 33.2 42.0 33.9 C 42.6 34.8 43.5 36.1 44.1 37.4 C 44.2 37.6 44.4 38.0 44.4 38.2 C 44.4 39.2 43.6 39.8 42.8 39.8 C 42.2 39.8 41.7 39.4 41.4 38.7 Z" transform="scale(1,-1)" stroke-dasharray="18.311715538547414" stroke-dashoffset="18.311715538547414"><animate attributeName="stroke-dashoffset" from="18.311715538547414" to="0" dur="0.5493514661564224s" begin="anim4.end" fill="freeze" id="anim_end" /></path></g></svg>