<?xml version='1.0' encoding='utf-8'?>
<svg viewBox="0 -44.0 50.0 50.0" version="1.1" xmlns="http://www.w3.org/2000/svg"><rect x="-1000" y="-1000" width="2000" height="2000" stroke="white" fill="white" /><g style="fill:none;stroke:#000000;stroke-width:1"><path d="M 44.0 38.2 C 44.8 38.2 45.2 38.9 45.2 39.5 C 45.2 40.1 44.8 40.8 44.0 40.8 L 32.4 40.8 C 29.5 40.8 28.5 39.8 28.5 37.6 L 28.5 34.8 L 26.7 34.8 C 25.9 34.8 25.5 34.2 25.5 33.6 C 25.5 33.0 25.9 32.3 26.7 32.3 L 32.9 32.3 C 31.0 30.5 28.8 29.2 26.2 28.2 C 25.6 27.9 25.2 27.4 25.2 27.0 C 25.2 26.2 25.8 25.6 26.7 25.6 C 26.9 25.6 27.1 25.7 27.3 25.8 C 30.6 27.0 33.7 29.1 36.1 31.9 L 36.1 29.2 C 36.1 27.0 37.0 26.4 41.4 26.4 C 45.7 26.4 47.5 27.5 47.8 30.2 C 47.9 31.2 47.1 31.7 46.4 31.7 C 45.7 31.7 45.1 31.3 45.0 30.6 C 44.8 29.3 44.6 28.9 41.5 28.9 C 39.2 28.9 39.0 29.2 39.0 29.9 L 39.0 32.3 L 45.8 32.3 C 46.7 32.3 47.1 33.0 47.1 33.6 C 47.1 34.2 46.7 34.8 45.8 34.8 L 38.3 34.8 C 39.0 35.9 39.5 37.0 40.0 38.2 Z " transform="scale(1,-1)" stroke-dasharray="117.72017823775069" stroke-dashoffset="117.72017823775069"><animate attributeName="stroke-dashoffset" from="117.72017823775069" to="0" dur="3.5316053471325204s" begin="0s; 15s; 30s; 45s; 60s" fill="freeze" id="anim0" /></path><path d="M 36.8 38.2 C 36.3 37.0 35.7 35.9 35.0 34.8 L 31.4 34.8 L 31.4 37.2 C 31.4 37.9 31.7 38.2 33.0 38.2 Z " transform="scale(1,-1)" stroke-dasharray="15.839833130789929" stroke-dashoffset="15.839833130789929"><animate attributeName="stroke-dashoffset" from="15.839833130789929" to="0" dur="0.47519499392369785s" begin="anim0.end" fill="freeze" id="anim1" /></path><path d="M 12.5 3.5 L 12.5 0.3 C 9.7 0.1 7.0 -0.1 4.5 -0.2 C 3.5 -0.2 3.0 -1.0 3.0 -1.7 C 3.0 -2.5 3.6 -3.3 4.9 -3.2 C 9.6 -2.8 15.2 -2.2 21.0 -1.2 C 21.2 -1.5 21.5 -1.9 21.7 -2.2 C 22.2 -2.9 22.7 -3.1 23.2 -3.1 C 24.0 -3.1 24.6 -2.6 24.6 -1.8 C 24.6 -1.4 24.5 -1.0 24.2 -0.6 C 23.1 0.9 22.0 2.1 20.8 3.4 C 20.7 3.5 20.6 3.5 20.5 3.6 C 22.2 3.8 23.1 4.5 23.1 6.3 L 23.1 8.5 C 23.1 10.3 22.2 11.3 19.2 11.3 L 15.6 11.3 L 15.6 12.4 C 15.6 13.3 14.8 13.8 14.0 13.8 C 13.2 13.8 12.5 13.3 12.5 12.4 L 12.5 11.3 L 8.9 11.3 C 6.0 11.3 5.1 10.3 5.1 8.5 L 5.1 6.3 C 5.1 3.9 6.9 3.6 8.9 3.5 Z " transform="scale(1,-1)" stroke-dasharray="87.34865403000873" stroke-dashoffset="87.34865403000873"><animate attributeName="stroke-dashoffset" from="87.34865403000873" to="0" dur="2.6204596209002617s" begin="anim1.end" fill="freeze" id="anim2" /></path><path d="M 9.4 5.8 C 8.3 5.8 8.1 6.0 8.1 6.7 L 8.1 8.1 C 8.1 8.8 8.3 9.0 9.4 9.0 L 12.5 9.0 L 12.5 5.8 Z " transform="scale(1,-1)" stroke-dasharray="14.551073279153876" stroke-dashoffset="14.551073279153876"><animate attributeName="stroke-dashoffset" from="14.551073279153876" to="0" dur="0.43653219837461626s" begin="anim2.end" fill="freeze" id="anim3" /></path><path d="M 15.6 9.0 L 18.8 9.0 C 19.8 9.0 20.1 8.8 20.1 8.1 L 20.1 6.7 C 20.1 6.0 19.8 5.8 18.8 5.8 L 15.6 5.8 Z " transform="scale(1,-1)" stroke-dasharray="14.70648788313623" stroke-dashoffset="14.70648788313623"><animate attributeName="stroke-dashoffset" from="14.70648788313623" to="0" dur="0.4411946364940869s" begin="anim3.end" fill="freeze" id="anim4" /></path><path d="M 15.6 3.5 L 18.2 3.5 C 18.0 3.3 17.9 3.1 17.9 2.9 C 17.9 2.6 18.1 2.2 18.4 1.9 C 18.7 1.6 18.9 1.3 19.2 1.0 C 18.0 0.9 16.8 0.7 15.6 0.6 Z " transform="scale(1,-1)" stroke-dasharray="12.158909422236896" stroke-dashoffset="12.158909422236896"><animate attributeName="stroke-dashoffset" from="12.158909422236896" to="0" dur="0.36476728266710684s" begin="anim4.end" fill="freeze" id="anim5" /></path><path d="M 34.0 3.5 L 34.0 0.5 C 31.6 0.2 29.2 0.1 27.1 0.1 C 26.0 0.0 25.5 -0.7 25.5 -1.4 C 25.5 -2.1 26.1 -3.0 27.3 -2.9 C 32.1 -2.6 37.9 -2.0 43.5 -1.1 C 43.9 -1.5 44.2 -2.0 44.5 -2.4 C 44.9 -3.1 45.5 -3.3 46.0 -3.3 C 46.7 -3.3 47.4 -2.7 47.4 -1.9 C 47.4 -1.6 47.2 -1.2 47.0 -0.8 C 45.9 0.8 44.5 2.2 43.1 3.5 L 42.9 3.7 C 44.3 4.0 44.9 4.9 45.0 6.3 L 45.0 8.5 C 45.0 10.3 44.0 11.3 41.1 11.3 L 37.1 11.3 L 37.1 12.4 C 37.1 13.4 36.4 13.8 35.6 13.8 C 34.8 13.8 34.0 13.4 34.0 12.4 L 34.0 11.3 L 30.4 11.3 C 27.5 11.3 26.5 10.3 26.5 8.5 L 26.5 6.3 C 26.6 3.9 28.3 3.6 30.4 3.5 Z " transform="scale(1,-1)" stroke-dasharray="86.89445909818677" stroke-dashoffset="86.89445909818677"><animate attributeName="stroke-dashoffset" from="86.89445909818677" to="0" dur="2.606833772945603s" begin="anim5.end" fill="freeze" id="anim6" /></path><path d="M 30.9 5.8 C 29.8 5.8 29.6 6.0 29.6 6.7 L 29.6 8.1 C 29.6 8.8 29.8 9.0 30.9 9.0 L 34.0 9.0 L 34.0 5.8 Z " transform="scale(1,-1)" stroke-dasharray="14.551073279153872" stroke-dashoffset="14.551073279153872"><animate attributeName="stroke-dashoffset" from="14.551073279153872" to="0" dur="0.43653219837461615s" begin="anim6.end" fill="freeze" id="anim7" /></path><path d="M 37.1 9.0 L 40.6 9.0 C 41.7 9.0 41.9 8.8 41.9 8.1 L 41.9 6.7 C 41.9 6.0 41.7 5.8 40.6 5.8 L 37.1 5.8 Z " transform="scale(1,-1)" stroke-dasharray="15.351073279153871" stroke-dashoffset="15.351073279153871"><animate attributeName="stroke-dashoffset" from="15.351073279153871" to="0" dur="0.4605321983746161s" begin="anim7.end" fill="freeze" id="anim8" /></path><path d="M 37.1 3.5 L 40.6 3.5 C 40.5 3.4 40.4 3.1 40.4 2.9 C 40.4 2.6 40.5 2.2 40.9 1.9 C 41.1 1.7 41.3 1.5 41.6 1.2 C 40.1 1.0 38.6 0.9 37.1 0.7 Z " transform="scale(1,-1)" stroke-dasharray="13.622160571792433" stroke-dashoffset="13.622160571792433"><animate attributeName="stroke-dashoffset" from="13.622160571792433" to="0" dur="0.40866481715377295s" begin="anim8.end" fill="freeze" id="anim9" /></path><path d="M 15.1 29.1 C 14.7 29.0 14.3 29.0 14.0 28.9 C 13.0 28.8 12.6 28.2 12.6 27.6 C 12.6 26.9 13.2 26.1 14.5 26.2 C 17.7 26.7 20.3 27.3 23.2 28.2 C 24.1 28.5 24.4 29.0 24.4 29.5 C 24.4 30.2 23.9 30.8 23.1 30.8 C 22.9 30.8 22.7 30.7 22.5 30.7 C 20.9 30.2 19.4 29.8 17.9 29.6 L 17.9 32.3 L 22.8 32.3 C 23.6 32.3 24.0 33.0 24.0 33.6 C 24.0 34.2 23.6 34.8 22.8 34.8 L 16.7 34.8 C 17.3 35.9 17.8 37.0 18.2 38.2 L 21.1 38.2 C 22.0 38.2 22.4 38.9 22.4 39.5 C 22.4 40.1 22.0 40.8 21.1 40.8 L 10.6 40.8 C 7.7 40.8 6.7 39.8 6.7 37.6 L 6.7 34.8 L 4.1 34.8 C 3.3 34.8 2.9 34.2 2.9 33.6 C 2.9 33.0 3.3 32.3 4.1 32.3 L 11.4 32.3 C 9.4 30.2 6.9 28.6 4.0 27.3 C 3.3 27.0 3.1 26.5 3.1 26.0 C 3.1 25.2 3.6 24.6 4.5 24.6 C 4.7 24.6 5.0 24.6 5.2 24.8 C 9.1 26.5 12.6 29.1 15.1 32.3 Z " transform="scale(1,-1)" stroke-dasharray="114.79863646408556" stroke-dashoffset="114.79863646408556"><animate attributeName="stroke-dashoffset" from="114.79863646408556" to="0" dur="3.4439590939225666s" begin="anim9.end" fill="freeze" id="anim10" /></path><path d="M 15.1 38.2 C 14.7 37.0 14.1 35.9 13.4 34.8 L 9.6 34.8 L 9.6 37.2 C 9.6 37.9 9.9 38.2 11.1 38.2 Z " transform="scale(1,-1)" stroke-dasharray="16.106187333357205" stroke-dashoffset="16.106187333357205"><animate attributeName="stroke-dashoffset" from="16.106187333357205" to="0" dur="0.48318562000071613s" begin="anim10.end" fill="freeze" id="anim11" /></path><path d="M 36.6 14.2 C 40.1 14.2 41.1 15.2 41.1 17.5 L 41.1 22.2 C 41.1 24.4 40.1 25.4 36.6 25.4 L 14.2 25.4 C 10.8 25.4 9.8 24.4 9.8 22.2 L 9.8 17.5 C 9.8 14.6 11.7 14.3 14.2 14.2 Z " transform="scale(1,-1)" stroke-dasharray="79.7782223700113" stroke-dashoffset="79.7782223700113"><animate attributeName="stroke-dashoffset" from="79.7782223700113" to="0" dur="2.393346671100339s" begin="anim11.end" fill="freeze" id="anim12" /></path><path d="M 14.6 16.7 C 13.2 16.7 13.0 16.9 13.0 17.7 L 13.0 18.7 L 37.8 18.7 L 37.8 17.7 C 37.8 16.7 37.1 16.7 36.2 16.7 Z " transform="scale(1,-1)" stroke-dasharray="52.84854925908187" stroke-dashoffset="52.84854925908187"><animate attributeName="stroke-dashoffset" from="52.84854925908187" to="0" dur="1.585456477772456s" begin="anim12.end" fill="freeze" id="anim13" /></path><path d="M 37.8 21.0 L 13.0 21.0 L 13.0 22.0 C 13.0 22.8 13.2 23.0 14.6 23.0 L 36.2 23.0 C 37.6 23.0 37.8 22.8 37.8 22.0 Z" transform="scale(1,-1)" stroke-dasharray="52.880108695657945" stroke-dashoffset="52.880108695657945"><animate attributeName="stroke-dashoffset" from="52.880108695657945" to="0" dur="1.5864032608697383s" begin="anim13.end" fill="freeze" id="anim_end" /></path></g></svg>