<?xml version='1.0' encoding='utf-8'?>
<svg viewBox="0 -44.0 50.0 50.0" version="1.1" xmlns="http://www.w3.org/2000/svg"><rect x="-1000" y="-1000" width="2000" height="2000" stroke="white" fill="white" /><g style="fill:none;stroke:#000000;stroke-width:1"><path d="M 39.8 -2.4 C 43.4 -2.4 44.8 -0.9 44.8 2.2 L 44.8 12.3 C 44.8 15.5 43.4 16.9 39.8 16.9 L 34.9 16.9 C 35.1 17.7 35.3 18.6 35.5 19.5 C 35.8 20.9 34.8 21.7 33.8 21.7 C 33.0 21.7 32.1 21.2 32.0 20.0 C 31.8 19.0 31.6 17.9 31.3 16.9 L 28.3 16.9 C 24.8 16.9 23.3 15.5 23.3 12.3 L 23.3 2.2 C 23.4 -1.2 25.1 -2.3 28.3 -2.4 Z " transform="scale(1,-1)" stroke-dasharray="82.82547255318602" stroke-dashoffset="82.82547255318602"><animate attributeName="stroke-dashoffset" from="82.82547255318602" to="0" dur="2.4847641765955806s" begin="0s; 15s; 30s; 45s; 60s" fill="freeze" id="anim0" /></path><path d="M 29.2 0.7 C 27.3 0.7 26.8 1.2 26.8 2.8 L 26.8 6.1 L 41.3 6.1 L 41.3 2.8 C 41.3 1.1 40.6 0.7 39.0 0.7 Z " transform="scale(1,-1)" stroke-dasharray="38.34513465182542" stroke-dashoffset="38.34513465182542"><animate attributeName="stroke-dashoffset" from="38.34513465182542" to="0" dur="1.1503540395547625s" begin="anim0.end" fill="freeze" id="anim1" /></path><path d="M 41.3 9.1 L 26.8 9.1 L 26.8 11.8 C 26.8 13.3 27.3 13.9 29.2 13.9 L 39.0 13.9 C 40.8 13.9 41.3 13.3 41.3 11.8 Z " transform="scale(1,-1)" stroke-dasharray="37.113459213374135" stroke-dashoffset="37.113459213374135"><animate attributeName="stroke-dashoffset" from="37.113459213374135" to="0" dur="1.113403776401224s" begin="anim1.end" fill="freeze" id="anim2" /></path><path d="M 13.5 -2.1 C 16.9 -2.1 18.2 -0.7 18.2 2.1 L 18.2 8.3 C 18.2 11.1 16.9 12.5 13.5 12.5 L 8.8 12.5 C 5.5 12.5 4.2 11.1 4.2 8.3 L 4.2 2.1 C 4.2 -1.1 5.9 -2.0 8.8 -2.1 Z " transform="scale(1,-1)" stroke-dasharray="50.757230831151226" stroke-dashoffset="50.757230831151226"><animate attributeName="stroke-dashoffset" from="50.757230831151226" to="0" dur="1.5227169249345367s" begin="anim2.end" fill="freeze" id="anim3" /></path><path d="M 9.4 1.0 C 8.0 1.0 7.6 1.5 7.6 2.6 L 7.6 7.8 C 7.6 9.0 8.0 9.5 9.4 9.5 L 13.0 9.5 C 14.4 9.5 14.8 9.0 14.8 7.8 L 14.8 2.6 C 14.8 1.4 14.2 1.0 13.0 1.0 Z " transform="scale(1,-1)" stroke-dasharray="29.025467366582685" stroke-dashoffset="29.025467366582685"><animate attributeName="stroke-dashoffset" from="29.025467366582685" to="0" dur="0.8707640209974805s" begin="anim3.end" fill="freeze" id="anim4" /></path><path d="M 26.2 31.5 L 31.9 31.5 C 32.9 31.5 33.4 32.3 33.4 33.1 C 33.4 33.9 32.9 34.6 31.9 34.6 L 26.2 34.6 L 26.2 40.1 C 26.2 41.2 25.4 41.7 24.5 41.7 C 23.7 41.7 22.8 41.2 22.8 40.1 L 22.8 24.5 C 22.2 24.4 21.6 24.2 21.0 24.1 C 19.9 23.9 19.4 23.2 19.4 22.5 C 19.4 21.6 20.2 20.7 21.5 20.9 C 25.3 21.7 29.2 22.8 32.6 24.2 C 33.5 24.5 33.9 25.1 33.9 25.7 C 33.9 26.5 33.2 27.2 32.4 27.2 C 32.1 27.2 32.0 27.2 31.8 27.1 C 30.0 26.5 28.1 25.9 26.2 25.4 Z " transform="scale(1,-1)" stroke-dasharray="78.56462222766147" stroke-dashoffset="78.56462222766147"><animate attributeName="stroke-dashoffset" from="78.56462222766147" to="0" dur="2.356938666829844s" begin="anim4.end" fill="freeze" id="anim5" /></path><path d="M 38.7 30.2 C 41.7 31.6 43.9 32.9 46.4 34.7 C 47.0 35.1 47.2 35.6 47.2 36.2 C 47.2 37.0 46.6 37.8 45.7 37.8 C 45.3 37.8 44.9 37.6 44.5 37.3 C 42.5 35.8 40.9 34.8 38.7 33.6 L 38.7 40.1 C 38.7 41.2 37.9 41.7 37.0 41.7 C 36.1 41.7 35.3 41.2 35.3 40.1 L 35.3 25.2 C 35.3 22.5 36.7 21.6 41.3 21.6 C 46.5 21.6 48.0 22.9 48.5 27.3 C 48.6 28.5 47.7 29.1 46.9 29.1 C 46.2 29.1 45.5 28.7 45.4 27.8 C 45.0 25.3 44.4 24.8 41.4 24.8 C 39.2 24.8 38.7 25.1 38.7 26.4 Z " transform="scale(1,-1)" stroke-dasharray="84.89507946231899" stroke-dashoffset="84.89507946231899"><animate attributeName="stroke-dashoffset" from="84.89507946231899" to="0" dur="2.54685238386957s" begin="anim5.end" fill="freeze" id="anim6" /></path><path d="M 16.2 36.5 C 17.2 36.5 17.7 37.2 17.7 38.0 C 17.7 38.8 17.2 39.6 16.2 39.6 L 5.9 39.6 C 5.0 39.6 4.5 38.8 4.5 38.0 C 4.5 37.2 5.0 36.5 5.9 36.5 Z " transform="scale(1,-1)" stroke-dasharray="30.123758507909596" stroke-dashoffset="30.123758507909596"><animate attributeName="stroke-dashoffset" from="30.123758507909596" to="0" dur="0.9037127552372879s" begin="anim6.end" fill="freeze" id="anim7" /></path><path d="M 18.4 29.8 C 19.4 29.8 19.9 30.6 19.9 31.3 C 19.9 32.1 19.4 32.9 18.4 32.9 L 3.0 32.9 C 2.1 32.9 1.6 32.1 1.6 31.3 C 1.6 30.6 2.1 29.8 3.0 29.8 Z " transform="scale(1,-1)" stroke-dasharray="40.28260729842387" stroke-dashoffset="40.28260729842387"><animate attributeName="stroke-dashoffset" from="40.28260729842387" to="0" dur="1.2084782189527161s" begin="anim7.end" fill="freeze" id="anim8" /></path><path d="M 16.2 22.9 C 17.2 22.9 17.7 23.7 17.7 24.4 C 17.7 25.2 17.2 26.0 16.2 26.0 L 5.9 26.0 C 5.0 26.0 4.5 25.2 4.5 24.4 C 4.5 23.7 5.0 22.9 5.9 22.9 Z " transform="scale(1,-1)" stroke-dasharray="30.082607298423877" stroke-dashoffset="30.082607298423877"><animate attributeName="stroke-dashoffset" from="30.082607298423877" to="0" dur="0.9024782189527163s" begin="anim8.end" fill="freeze" id="anim9" /></path><path d="M 16.2 16.2 C 17.2 16.2 17.7 17.0 17.7 17.8 C 17.7 18.6 17.2 19.3 16.2 19.3 L 5.9 19.3 C 5.0 19.3 4.5 18.6 4.5 17.8 C 4.5 17.0 5.0 16.2 5.9 16.2 Z" transform="scale(1,-1)" stroke-dasharray="30.1237585079096" stroke-dashoffset="30.1237585079096"><animate attributeName="stroke-dashoffset" from="30.1237585079096" to="0" dur="0.9037127552372879s" begin="anim9.end" fill="freeze" id="anim_end" /></path></g></svg>