<?xml version='1.0' encoding='utf-8'?>
<svg viewBox="0 -44.0 50.0 50.0" version="1.1" xmlns="http://www.w3.org/2000/svg"><rect x="-1000" y="-1000" width="2000" height="2000" stroke="white" fill="white" /><g style="fill:none;stroke:#000000;stroke-width:1"><path d="M 39.6 29.3 C 43.1 29.3 44.2 30.5 44.2 32.8 L 44.2 36.2 C 44.2 38.6 43.1 39.7 39.6 39.7 L 10.7 39.7 C 7.2 39.7 6.0 38.6 6.0 36.2 L 6.0 32.8 C 6.1 29.8 8.1 29.4 10.7 29.3 Z " transform="scale(1,-1)" stroke-dasharray="91.47895959741348" stroke-dashoffset="91.47895959741348"><animate attributeName="stroke-dashoffset" from="91.47895959741348" to="0" dur="2.7443687879224044s" begin="0s; 15s; 30s; 45s; 60s" fill="freeze" id="anim0" /></path><path d="M 32.1 32.0 L 32.1 37.1 L 39.1 37.1 C 40.5 37.1 40.9 36.7 40.9 35.7 L 40.9 33.3 C 40.9 32.1 40.1 32.0 39.1 32.0 Z " transform="scale(1,-1)" stroke-dasharray="26.756925236204903" stroke-dashoffset="26.756925236204903"><animate attributeName="stroke-dashoffset" from="26.756925236204903" to="0" dur="0.8027077570861471s" begin="anim0.end" fill="freeze" id="anim1" /></path><path d="M 28.9 37.1 L 28.9 32.0 L 20.8 32.0 L 20.8 37.1 Z " transform="scale(1,-1)" stroke-dasharray="26.4" stroke-dashoffset="26.4"><animate attributeName="stroke-dashoffset" from="26.4" to="0" dur="0.7919999999999999s" begin="anim1.end" fill="freeze" id="anim2" /></path><path d="M 17.4 37.1 L 17.4 32.0 L 11.2 32.0 C 9.8 32.0 9.3 32.3 9.3 33.3 L 9.3 35.7 C 9.3 36.7 9.8 37.1 11.2 37.1 Z " transform="scale(1,-1)" stroke-dasharray="25.316965006185683" stroke-dashoffset="25.316965006185683"><animate attributeName="stroke-dashoffset" from="25.316965006185683" to="0" dur="0.7595089501855704s" begin="anim2.end" fill="freeze" id="anim3" /></path><path d="M 34.1 4.4 C 38.4 4.4 39.9 5.9 39.9 8.8 L 39.9 21.8 C 39.9 24.7 38.4 26.2 34.1 26.2 L 15.8 26.2 C 11.6 26.2 10.1 24.7 10.1 21.8 L 10.1 8.8 C 10.2 5.1 12.6 4.4 15.8 4.4 Z " transform="scale(1,-1)" stroke-dasharray="95.97391804637655" stroke-dashoffset="95.97391804637655"><animate attributeName="stroke-dashoffset" from="95.97391804637655" to="0" dur="2.8792175413912964s" begin="anim3.end" fill="freeze" id="anim4" /></path><path d="M 16.4 7.2 C 14.2 7.2 13.7 7.8 13.7 9.1 L 13.7 10.7 L 36.3 10.7 L 36.3 9.1 C 36.2 7.4 35.1 7.2 33.6 7.2 Z " transform="scale(1,-1)" stroke-dasharray="50.64445281770229" stroke-dashoffset="50.64445281770229"><animate attributeName="stroke-dashoffset" from="50.64445281770229" to="0" dur="1.5193335845310685s" begin="anim4.end" fill="freeze" id="anim5" /></path><path d="M 13.7 17.1 L 36.3 17.1 L 36.3 13.6 L 13.7 13.6 Z " transform="scale(1,-1)" stroke-dasharray="52.2" stroke-dashoffset="52.2"><animate attributeName="stroke-dashoffset" from="52.2" to="0" dur="1.566s" begin="anim5.end" fill="freeze" id="anim6" /></path><path d="M 36.3 19.9 L 13.7 19.9 L 13.7 21.4 C 13.7 22.7 14.2 23.2 16.4 23.2 L 33.6 23.2 C 35.8 23.2 36.3 22.7 36.3 21.4 Z " transform="scale(1,-1)" stroke-dasharray="50.3831401871449" stroke-dashoffset="50.3831401871449"><animate attributeName="stroke-dashoffset" from="50.3831401871449" to="0" dur="1.511494205614347s" begin="anim6.end" fill="freeze" id="anim7" /></path><path d="M 17.4 3.3 C 14.1 1.5 9.2 0.0 5.5 -0.8 C 4.4 -1.0 3.9 -1.7 3.9 -2.4 C 3.9 -3.3 4.7 -4.2 6.1 -3.9 C 10.1 -3.2 15.3 -1.5 19.2 0.6 C 20.0 1.0 20.3 1.6 20.3 2.1 C 20.3 2.9 19.6 3.7 18.6 3.7 C 18.2 3.7 17.9 3.6 17.4 3.3 Z " transform="scale(1,-1)" stroke-dasharray="37.91038006048331" stroke-dashoffset="37.91038006048331"><animate attributeName="stroke-dashoffset" from="37.91038006048331" to="0" dur="1.1373114018144994s" begin="anim7.end" fill="freeze" id="anim8" /></path><path d="M 32.1 3.6 C 31.8 3.8 31.5 3.8 31.1 3.8 C 30.2 3.8 29.4 3.1 29.4 2.4 C 29.4 1.9 29.8 1.3 30.5 0.9 C 34.1 -1.0 39.0 -2.8 43.4 -3.9 C 43.7 -3.9 43.9 -4.0 44.1 -4.0 C 45.2 -4.0 45.9 -3.1 45.9 -2.2 C 45.9 -1.5 45.4 -0.8 44.2 -0.5 C 39.9 0.5 35.6 1.9 32.1 3.6 Z" transform="scale(1,-1)" stroke-dasharray="38.12908888379336" stroke-dashoffset="38.12908888379336"><animate attributeName="stroke-dashoffset" from="38.12908888379336" to="0" dur="1.1438726665138006s" begin="anim8.end" fill="freeze" id="anim_end" /></path></g></svg>