<?xml version='1.0' encoding='utf-8'?>
<svg viewBox="0 -44.0 50.0 50.0" version="1.1" xmlns="http://www.w3.org/2000/svg"><rect x="-1000" y="-1000" width="2000" height="2000" stroke="white" fill="white" /><g style="fill:none;stroke:#000000;stroke-width:1"><path d="M 12.2 -2.6 C 15.6 -2.6 16.7 -1.2 16.7 1.6 L 16.7 7.9 C 16.7 10.7 15.6 12.1 12.2 12.1 L 8.2 12.1 C 5.0 12.1 3.7 10.7 3.7 7.9 L 3.7 1.6 C 3.8 -1.5 5.2 -2.5 8.2 -2.6 Z " transform="scale(1,-1)" stroke-dasharray="49.09967166079196" stroke-dashoffset="49.09967166079196"><animate attributeName="stroke-dashoffset" from="49.09967166079196" to="0" dur="1.4729901498237588s" begin="0s; 15s; 30s; 45s; 60s" fill="freeze" id="anim0" /></path><path d="M 8.7 0.4 C 7.5 0.4 7.0 1.0 7.0 2.1 L 7.0 7.5 C 7.0 8.6 7.5 9.1 8.7 9.1 L 11.7 9.1 C 12.9 9.1 13.4 8.6 13.4 7.5 L 13.4 2.1 C 13.4 0.9 12.9 0.5 11.7 0.4 Z " transform="scale(1,-1)" stroke-dasharray="27.73314543580869" stroke-dashoffset="27.73314543580869"><animate attributeName="stroke-dashoffset" from="27.73314543580869" to="0" dur="0.8319943630742607s" begin="anim0.end" fill="freeze" id="anim1" /></path><path d="M 26.7 3.1 L 26.7 -2.4 C 26.7 -3.4 27.5 -3.8 28.2 -3.8 C 29.0 -3.8 29.8 -3.4 29.8 -2.4 L 29.8 11.6 L 33.9 11.6 L 33.9 -2.3 C 33.9 -3.2 34.6 -3.8 35.5 -3.8 C 36.2 -3.8 37.0 -3.2 37.0 -2.3 L 37.0 3.0 L 36.8 8.7 C 38.7 5.5 41.5 2.2 44.6 -0.2 C 45.0 -0.6 45.4 -0.7 45.8 -0.7 C 46.8 -0.7 47.5 0.1 47.5 1.0 C 47.5 1.6 47.2 2.1 46.5 2.7 C 43.5 4.9 40.2 8.0 38.1 11.6 L 39.6 11.6 C 43.2 11.6 44.5 13.1 44.5 15.6 L 44.5 18.2 L 47.2 18.2 C 48.1 18.2 48.5 18.9 48.5 19.6 C 48.5 20.2 48.1 21.0 47.2 21.0 L 44.5 21.0 L 44.5 23.4 C 44.5 26.0 43.2 27.5 39.6 27.5 L 37.0 27.5 L 37.0 31.0 L 45.6 31.0 C 46.6 31.0 47.0 31.8 47.0 32.5 C 47.0 33.2 46.6 33.9 45.6 33.9 L 36.9 33.9 C 38.1 35.6 39.1 37.4 39.9 39.2 C 40.0 39.5 40.1 39.8 40.1 40.1 C 40.1 41.1 39.2 41.8 38.3 41.8 C 37.6 41.8 37.0 41.4 36.7 40.6 C 35.9 38.4 34.7 36.1 33.4 33.9 L 20.9 33.9 C 20.0 33.9 19.5 33.2 19.5 32.5 C 19.5 31.8 20.0 31.0 20.9 31.0 L 26.7 31.0 L 26.7 27.5 L 22.0 27.5 C 21.1 27.5 20.7 26.8 20.7 26.1 C 20.7 25.4 21.1 24.7 22.0 24.7 L 26.7 24.7 L 26.7 21.0 L 20.0 21.0 C 19.1 21.0 18.7 20.2 18.7 19.6 C 18.7 18.9 19.1 18.2 20.0 18.2 L 26.7 18.2 L 26.7 14.3 L 21.7 14.3 C 20.8 14.3 20.4 13.6 20.4 13.0 C 20.4 12.2 20.8 11.6 21.7 11.6 L 25.5 11.6 C 23.5 7.7 20.9 4.3 18.1 1.9 C 17.5 1.5 17.3 1.0 17.3 0.5 C 17.3 -0.3 17.9 -0.9 18.8 -0.9 C 19.2 -0.9 19.6 -0.8 20.1 -0.4 C 22.5 1.8 25.0 4.7 26.8 7.8 Z " transform="scale(1,-1)" stroke-dasharray="277.73923610027634" stroke-dashoffset="277.73923610027634"><animate attributeName="stroke-dashoffset" from="277.73923610027634" to="0" dur="8.33217708300829s" begin="anim1.end" fill="freeze" id="anim2" /></path><path d="M 33.9 27.5 L 29.8 27.5 L 29.8 31.0 L 33.9 31.0 Z " transform="scale(1,-1)" stroke-dasharray="15.199999999999996" stroke-dashoffset="15.199999999999996"><animate attributeName="stroke-dashoffset" from="15.199999999999996" to="0" dur="0.45599999999999985s" begin="anim2.end" fill="freeze" id="anim3" /></path><path d="M 29.8 24.7 L 33.9 24.7 L 33.9 21.0 L 29.8 21.0 Z " transform="scale(1,-1)" stroke-dasharray="15.599999999999994" stroke-dashoffset="15.599999999999994"><animate attributeName="stroke-dashoffset" from="15.599999999999994" to="0" dur="0.4679999999999998s" begin="anim3.end" fill="freeze" id="anim4" /></path><path d="M 37.0 24.7 L 39.1 24.7 C 41.0 24.7 41.4 24.2 41.4 23.0 L 41.4 21.0 L 37.0 21.0 Z " transform="scale(1,-1)" stroke-dasharray="15.559206974777608" stroke-dashoffset="15.559206974777608"><animate attributeName="stroke-dashoffset" from="15.559206974777608" to="0" dur="0.4667762092433282s" begin="anim4.end" fill="freeze" id="anim5" /></path><path d="M 29.8 18.2 L 33.9 18.2 L 33.9 14.3 L 29.8 14.3 Z " transform="scale(1,-1)" stroke-dasharray="15.999999999999993" stroke-dashoffset="15.999999999999993"><animate attributeName="stroke-dashoffset" from="15.999999999999993" to="0" dur="0.47999999999999976s" begin="anim5.end" fill="freeze" id="anim6" /></path><path d="M 37.0 18.2 L 41.4 18.2 L 41.4 16.0 C 41.4 14.7 41.0 14.3 39.1 14.3 L 37.0 14.3 Z " transform="scale(1,-1)" stroke-dasharray="15.98756844566282" stroke-dashoffset="15.98756844566282"><animate attributeName="stroke-dashoffset" from="15.98756844566282" to="0" dur="0.4796270533698846s" begin="anim6.end" fill="freeze" id="anim7" /></path><path d="M 16.9 29.8 C 17.9 29.8 18.4 30.6 18.4 31.3 C 18.4 32.1 17.9 32.9 16.9 32.9 L 2.9 32.9 C 1.9 32.9 1.5 32.1 1.5 31.3 C 1.5 30.6 1.9 29.8 2.9 29.8 Z " transform="scale(1,-1)" stroke-dasharray="37.532834590612424" stroke-dashoffset="37.532834590612424"><animate attributeName="stroke-dashoffset" from="37.532834590612424" to="0" dur="1.1259850377183727s" begin="anim7.end" fill="freeze" id="anim8" /></path><path d="M 15.0 36.6 C 16.0 36.6 16.4 37.4 16.4 38.1 C 16.4 38.9 16.0 39.7 15.0 39.7 L 5.5 39.7 C 4.5 39.7 4.0 38.9 4.0 38.1 C 4.0 37.4 4.5 36.6 5.5 36.6 Z " transform="scale(1,-1)" stroke-dasharray="28.53283459061243" stroke-dashoffset="28.53283459061243"><animate attributeName="stroke-dashoffset" from="28.53283459061243" to="0" dur="0.8559850377183729s" begin="anim8.end" fill="freeze" id="anim9" /></path><path d="M 15.0 22.7 C 16.0 22.7 16.4 23.5 16.4 24.2 C 16.4 25.1 16.0 25.8 15.0 25.8 L 5.5 25.8 C 4.5 25.8 4.0 25.1 4.0 24.2 C 4.0 23.5 4.5 22.7 5.5 22.7 Z " transform="scale(1,-1)" stroke-dasharray="28.57348956536127" stroke-dashoffset="28.57348956536127"><animate attributeName="stroke-dashoffset" from="28.57348956536127" to="0" dur="0.8572046869608381s" begin="anim9.end" fill="freeze" id="anim10" /></path><path d="M 15.0 16.0 C 16.0 16.0 16.4 16.8 16.4 17.5 C 16.4 18.3 16.0 19.1 15.0 19.1 L 5.5 19.1 C 4.5 19.1 4.0 18.3 4.0 17.5 C 4.0 16.8 4.5 16.0 5.5 16.0 Z " transform="scale(1,-1)" stroke-dasharray="28.53283459061243" stroke-dashoffset="28.53283459061243"><animate attributeName="stroke-dashoffset" from="28.53283459061243" to="0" dur="0.8559850377183729s" begin="anim10.end" fill="freeze" id="anim11" /></path><path d="M 26.8 40.8 C 26.3 41.2 25.9 41.4 25.4 41.4 C 24.5 41.4 23.8 40.7 23.8 39.9 C 23.8 39.5 24.0 39.1 24.3 38.7 C 25.0 38.0 25.6 37.0 26.2 36.0 C 26.7 35.2 27.2 35.0 27.8 35.0 C 28.7 35.0 29.5 35.7 29.5 36.7 C 29.5 37.1 29.4 37.4 29.2 37.8 C 28.4 39.0 27.6 40.0 26.8 40.8 Z" transform="scale(1,-1)" stroke-dasharray="18.284442812755874" stroke-dashoffset="18.284442812755874"><animate attributeName="stroke-dashoffset" from="18.284442812755874" to="0" dur="0.5485332843826762s" begin="anim11.end" fill="freeze" id="anim_end" /></path></g></svg>