<?xml version='1.0' encoding='utf-8'?>
<svg viewBox="0 -44.0 50.0 50.0" version="1.1" xmlns="http://www.w3.org/2000/svg"><rect x="-1000" y="-1000" width="2000" height="2000" stroke="white" fill="white" /><g style="fill:none;stroke:#000000;stroke-width:1"><path d="M 9.9 25.7 L 9.9 4.7 C 9.0 4.4 8.0 4.2 7.1 4.0 L 7.1 19.5 C 7.1 20.5 6.3 20.9 5.5 20.9 C 4.7 20.9 3.9 20.5 3.9 19.5 L 3.9 3.3 C 3.5 3.2 3.1 3.1 2.7 3.1 C 1.8 2.9 1.3 2.1 1.3 1.5 C 1.3 0.6 2.0 -0.4 3.1 -0.2 C 8.1 0.8 14.3 2.6 18.1 4.2 C 18.9 4.5 19.2 5.1 19.2 5.6 C 19.2 6.3 18.6 7.0 17.7 7.0 C 17.4 7.0 17.2 7.0 16.9 6.9 C 15.7 6.4 14.4 6.0 13.0 5.5 L 13.0 15.7 L 16.9 15.7 C 17.9 15.7 18.3 16.4 18.3 17.2 C 18.3 17.9 17.9 18.7 16.9 18.7 L 13.0 18.7 L 13.0 25.7 L 13.2 25.7 C 16.6 25.7 17.9 27.0 17.9 30.1 L 17.9 36.0 C 17.9 39.1 16.6 40.4 13.2 40.4 L 8.5 40.4 C 5.1 40.4 3.8 39.1 3.8 36.0 L 3.8 30.1 C 3.9 26.7 5.4 25.8 8.5 25.7 Z " transform="scale(1,-1)" stroke-dasharray="169.14727654348667" stroke-dashoffset="169.14727654348667"><animate attributeName="stroke-dashoffset" from="169.14727654348667" to="0" dur="5.0744182963046s" begin="0s; 15s; 30s; 45s; 60s" fill="freeze" id="anim0" /></path><path d="M 8.9 28.5 C 7.4 28.5 7.0 28.9 7.0 30.5 L 7.0 35.5 C 7.0 37.1 7.4 37.5 8.9 37.5 L 12.8 37.5 C 14.4 37.5 14.8 37.1 14.8 35.5 L 14.8 30.5 C 14.8 28.9 14.4 28.5 12.8 28.5 Z " transform="scale(1,-1)" stroke-dasharray="31.142293071427062" stroke-dashoffset="31.142293071427062"><animate attributeName="stroke-dashoffset" from="31.142293071427062" to="0" dur="0.9342687921428118s" begin="anim0.end" fill="freeze" id="anim1" /></path><path d="M 21.0 31.2 C 20.1 31.2 19.6 30.6 19.6 29.8 C 19.6 29.1 20.1 28.4 21.0 28.4 L 29.6 28.4 C 27.2 26.0 23.8 23.5 20.2 21.8 C 19.5 21.5 19.2 20.9 19.2 20.4 C 19.2 19.7 19.8 19.0 20.7 19.0 C 20.9 19.0 21.2 19.1 21.5 19.2 C 26.0 21.4 29.8 24.2 33.0 27.7 L 33.0 22.1 C 33.0 21.0 32.5 20.8 31.5 20.8 C 31.2 20.8 30.8 20.9 30.3 21.0 C 29.2 21.2 28.5 20.3 28.5 19.4 C 28.5 18.7 28.9 18.0 29.8 17.8 C 30.3 17.7 30.9 17.6 31.6 17.6 C 34.6 17.6 36.1 18.7 36.1 21.9 L 36.1 28.4 L 42.8 28.4 C 43.3 28.4 43.6 28.2 43.6 27.9 C 43.6 27.8 43.5 27.6 43.4 27.5 C 43.1 27.0 42.5 26.2 41.7 25.4 C 41.3 25.0 41.2 24.6 41.2 24.2 C 41.2 23.4 41.9 22.7 42.8 22.7 C 43.2 22.7 43.8 22.9 44.2 23.4 C 45.2 24.5 46.0 25.5 46.5 26.4 C 47.0 27.2 47.2 28.0 47.2 28.6 C 47.2 30.2 45.9 31.2 43.7 31.2 L 37.0 31.2 C 37.0 31.7 36.8 32.1 36.3 32.6 C 37.9 33.2 39.2 34.0 40.6 34.9 C 42.1 35.9 42.8 37.0 42.8 38.0 C 42.8 39.2 41.5 40.3 38.9 40.3 L 24.4 40.3 C 23.5 40.3 23.0 39.6 23.0 38.9 C 23.0 38.1 23.5 37.4 24.4 37.4 L 38.2 37.4 C 38.6 37.4 38.8 37.3 38.8 37.1 C 38.8 37.1 38.7 36.9 38.4 36.8 C 37.0 35.9 35.5 35.1 33.7 34.4 C 32.8 35.0 31.8 35.5 30.8 36.0 C 30.5 36.1 30.2 36.1 30.0 36.1 C 29.1 36.1 28.5 35.5 28.5 34.6 C 28.5 34.2 28.7 33.8 29.3 33.4 C 30.2 32.9 31.5 32.1 32.6 31.2 Z " transform="scale(1,-1)" stroke-dasharray="186.04088225553824" stroke-dashoffset="186.04088225553824"><animate attributeName="stroke-dashoffset" from="186.04088225553824" to="0" dur="5.581226467666147s" begin="anim1.end" fill="freeze" id="anim2" /></path><path d="M 45.2 10.0 C 46.1 10.0 46.6 10.7 46.6 11.5 C 46.6 12.2 46.1 13.0 45.2 13.0 L 34.3 13.0 L 34.3 15.6 C 34.3 16.6 33.5 17.0 32.7 17.0 C 31.9 17.0 31.1 16.6 31.1 15.6 L 31.1 13.0 L 21.1 13.0 C 20.2 13.0 19.7 12.2 19.7 11.5 C 19.7 10.7 20.2 10.0 21.1 10.0 L 29.1 10.0 C 26.3 6.5 21.6 3.1 17.3 1.2 C 16.4 0.8 16.1 0.2 16.1 -0.5 C 16.1 -1.2 16.7 -2.0 17.7 -2.0 C 17.9 -2.0 18.2 -1.9 18.6 -1.8 C 23.3 0.4 28.1 4.0 31.3 7.8 L 31.1 3.3 L 31.1 -2.5 C 31.1 -3.4 31.9 -3.9 32.7 -3.9 C 33.5 -3.9 34.3 -3.4 34.3 -2.5 L 34.3 3.4 L 34.1 8.0 C 37.2 4.2 41.2 1.1 45.5 -1.0 C 45.9 -1.2 46.2 -1.2 46.6 -1.2 C 47.6 -1.2 48.2 -0.4 48.2 0.5 C 48.2 1.2 47.9 1.9 47.0 2.2 C 42.9 4.0 38.8 6.8 35.9 10.0 Z" transform="scale(1,-1)" stroke-dasharray="153.66104967987008" stroke-dashoffset="153.66104967987008"><animate attributeName="stroke-dashoffset" from="153.66104967987008" to="0" dur="4.609831490396102s" begin="anim2.end" fill="freeze" id="anim_end" /></path></g></svg>