<?xml version='1.0' encoding='utf-8'?>
<svg viewBox="0 -44.0 50.0 50.0" version="1.1" xmlns="http://www.w3.org/2000/svg"><rect x="-1000" y="-1000" width="2000" height="2000" stroke="white" fill="white" /><g style="fill:none;stroke:#000000;stroke-width:1"><path d="M 34.6 14.4 C 38.2 14.4 39.8 15.7 39.8 18.3 L 39.8 26.1 C 39.8 28.7 38.2 30.2 34.6 30.2 L 15.6 30.2 C 11.9 30.2 10.3 28.7 10.3 26.1 L 10.3 18.3 C 10.3 15.7 11.9 14.4 15.6 14.4 L 23.2 14.4 C 22.9 13.1 22.6 11.8 22.1 10.6 L 4.9 10.6 C 4.0 10.6 3.5 9.9 3.5 9.2 C 3.5 8.5 4.0 7.7 4.9 7.7 L 20.5 7.7 C 17.5 3.4 12.3 0.7 4.4 -0.6 C 3.4 -0.7 2.9 -1.4 2.9 -2.1 C 2.9 -3.0 3.6 -3.9 4.9 -3.7 C 13.9 -2.4 20.2 1.1 23.7 6.5 C 28.5 1.3 36.8 -2.4 45.2 -3.2 C 46.5 -3.4 47.2 -2.5 47.2 -1.5 C 47.2 -0.7 46.7 0.2 45.5 0.2 C 37.6 1.1 30.6 3.7 26.6 7.7 L 45.3 7.7 C 46.2 7.7 46.7 8.5 46.7 9.2 C 46.7 9.9 46.2 10.6 45.3 10.6 L 25.7 10.6 C 26.1 11.9 26.4 13.1 26.6 14.4 Z " transform="scale(1,-1)" stroke-dasharray="264.8150849434873" stroke-dashoffset="264.8150849434873"><animate attributeName="stroke-dashoffset" from="264.8150849434873" to="0" dur="7.944452548304619s" begin="0s; 15s; 30s; 45s; 60s" fill="freeze" id="anim0" /></path><path d="M 16.1 17.2 C 14.3 17.2 13.8 17.5 13.8 18.7 L 13.8 21.0 L 36.3 21.0 L 36.3 18.7 C 36.2 17.2 35.3 17.2 34.1 17.2 Z " transform="scale(1,-1)" stroke-dasharray="51.419162135957826" stroke-dashoffset="51.419162135957826"><animate attributeName="stroke-dashoffset" from="51.419162135957826" to="0" dur="1.5425748640787347s" begin="anim0.end" fill="freeze" id="anim1" /></path><path d="M 36.3 23.8 L 13.8 23.8 L 13.8 25.8 C 13.8 27.0 14.3 27.4 16.1 27.4 L 34.1 27.4 C 35.8 27.4 36.3 27.0 36.3 25.8 Z " transform="scale(1,-1)" stroke-dasharray="50.964351303948185" stroke-dashoffset="50.964351303948185"><animate attributeName="stroke-dashoffset" from="50.964351303948185" to="0" dur="1.5289305391184456s" begin="anim1.end" fill="freeze" id="anim2" /></path><path d="M 30.1 37.8 L 19.5 37.8 L 19.5 40.6 C 19.5 41.6 18.7 42.0 17.9 42.0 C 17.0 42.0 16.2 41.6 16.2 40.6 L 16.2 37.8 L 4.5 37.8 C 3.7 37.8 3.2 37.1 3.2 36.4 C 3.2 35.6 3.7 35.0 4.5 35.0 L 16.2 35.0 L 16.2 32.7 C 16.2 31.7 17.0 31.2 17.9 31.2 C 18.7 31.2 19.5 31.7 19.5 32.7 L 19.5 35.0 L 30.1 35.0 L 30.1 32.8 C 30.1 31.8 30.9 31.3 31.8 31.3 C 32.6 31.3 33.4 31.8 33.4 32.8 L 33.4 35.0 L 45.4 35.0 C 46.3 35.0 46.8 35.6 46.8 36.4 C 46.8 37.1 46.3 37.8 45.4 37.8 L 33.4 37.8 L 33.4 40.6 C 33.4 41.6 32.6 42.0 31.8 42.0 C 30.9 42.0 30.1 41.6 30.1 40.6 Z" transform="scale(1,-1)" stroke-dasharray="117.31473399573383" stroke-dashoffset="117.31473399573383"><animate attributeName="stroke-dashoffset" from="117.31473399573383" to="0" dur="3.519442019872015s" begin="anim2.end" fill="freeze" id="anim_end" /></path></g></svg>