<?xml version='1.0' encoding='utf-8'?>
<svg viewBox="0 -44.0 50.0 50.0" version="1.1" xmlns="http://www.w3.org/2000/svg"><rect x="-1000" y="-1000" width="2000" height="2000" stroke="white" fill="white" /><g style="fill:none;stroke:#000000;stroke-width:1"><path d="M 30.1 37.1 L 19.5 37.1 L 19.5 40.4 C 19.5 41.4 18.6 41.9 17.8 41.9 C 16.9 41.9 16.1 41.4 16.1 40.4 L 16.1 37.1 L 4.7 37.1 C 3.8 37.1 3.2 36.4 3.2 35.6 C 3.2 35.0 3.8 34.2 4.7 34.2 L 16.1 34.2 L 16.1 31.4 C 16.1 30.4 16.9 29.9 17.8 29.9 C 18.6 29.9 19.5 30.4 19.5 31.4 L 19.5 34.2 L 30.1 34.2 L 30.1 31.5 C 30.1 30.5 31.0 30.0 31.8 30.0 C 32.6 30.0 33.5 30.5 33.5 31.5 L 33.5 34.2 L 45.3 34.2 C 46.2 34.2 46.7 35.0 46.7 35.6 C 46.7 36.4 46.2 37.1 45.3 37.1 L 33.5 37.1 L 33.5 40.4 C 33.5 41.4 32.6 41.9 31.8 41.9 C 31.0 41.9 30.1 41.4 30.1 40.4 Z " transform="scale(1,-1)" stroke-dasharray="121.19896807068348" stroke-dashoffset="121.19896807068348"><animate attributeName="stroke-dashoffset" from="121.19896807068348" to="0" dur="3.635969042120504s" begin="0s; 15s; 30s; 45s; 60s" fill="freeze" id="anim0" /></path><path d="M 38.1 14.6 C 38.1 12.6 37.5 12.1 35.9 12.1 C 35.1 12.1 34.4 12.2 33.4 12.5 C 32.0 12.8 31.2 11.9 31.2 10.9 C 31.2 10.2 31.6 9.5 32.5 9.2 C 33.8 8.9 34.9 8.8 36.1 8.8 C 39.8 8.8 41.6 10.2 41.6 14.1 L 41.6 22.9 C 41.6 25.8 40.1 27.4 36.1 27.4 L 27.2 27.4 C 23.1 27.4 21.7 25.8 21.7 22.9 L 21.7 2.8 C 21.7 -1.7 23.8 -2.6 33.4 -2.6 C 43.7 -2.6 46.4 -1.6 47.2 4.5 C 47.5 5.8 46.5 6.5 45.5 6.5 C 44.7 6.5 43.9 6.0 43.8 4.9 C 43.2 1.3 42.2 0.7 33.4 0.7 C 26.3 0.7 25.2 1.2 25.2 3.5 L 25.2 22.2 C 25.2 23.7 25.7 24.3 27.9 24.3 L 35.5 24.3 C 37.6 24.3 38.1 23.7 38.1 22.2 Z " transform="scale(1,-1)" stroke-dasharray="180.98455147841318" stroke-dashoffset="180.98455147841318"><animate attributeName="stroke-dashoffset" from="180.98455147841318" to="0" dur="5.429536544352395s" begin="anim0.end" fill="freeze" id="anim1" /></path><path d="M 11.2 29.0 C 10.8 29.3 10.3 29.5 9.9 29.5 C 9.0 29.5 8.2 28.8 8.2 28.0 C 8.2 27.5 8.5 27.0 9.1 26.5 C 10.2 25.7 11.8 24.3 12.8 23.2 C 13.3 22.7 13.8 22.4 14.3 22.4 C 15.2 22.4 16.0 23.2 16.0 24.1 C 16.0 24.6 15.8 25.1 15.4 25.6 C 14.2 26.8 12.4 28.2 11.2 29.0 Z " transform="scale(1,-1)" stroke-dasharray="22.143464693550385" stroke-dashoffset="22.143464693550385"><animate attributeName="stroke-dashoffset" from="22.143464693550385" to="0" dur="0.6643039408065116s" begin="anim1.end" fill="freeze" id="anim2" /></path><path d="M 11.6 9.3 C 10.1 5.8 8.0 2.2 5.8 -0.5 C 5.4 -0.9 5.2 -1.4 5.2 -1.8 C 5.2 -2.8 6.1 -3.5 7.0 -3.5 C 7.6 -3.5 8.2 -3.2 8.8 -2.5 C 11.1 0.4 13.4 4.4 15.0 8.1 C 15.1 8.3 15.2 8.6 15.2 8.8 C 15.2 9.9 14.2 10.6 13.3 10.6 C 12.6 10.6 11.9 10.2 11.6 9.3 Z " transform="scale(1,-1)" stroke-dasharray="36.00141617884836" stroke-dashoffset="36.00141617884836"><animate attributeName="stroke-dashoffset" from="36.00141617884836" to="0" dur="1.0800424853654507s" begin="anim2.end" fill="freeze" id="anim3" /></path><path d="M 6.2 20.8 C 5.9 21.1 5.5 21.2 5.1 21.2 C 4.2 21.2 3.5 20.4 3.5 19.6 C 3.5 19.1 3.8 18.5 4.4 18.1 C 5.7 17.2 7.0 16.1 8.3 14.8 C 8.8 14.4 9.3 14.2 9.8 14.2 C 10.7 14.2 11.5 15.0 11.5 15.9 C 11.5 16.4 11.2 16.9 10.7 17.4 C 9.3 18.6 7.7 19.9 6.2 20.8 Z" transform="scale(1,-1)" stroke-dasharray="22.32726673241278" stroke-dashoffset="22.32726673241278"><animate attributeName="stroke-dashoffset" from="22.32726673241278" to="0" dur="0.6698180019723834s" begin="anim3.end" fill="freeze" id="anim_end" /></path></g></svg>