<?xml version='1.0' encoding='utf-8'?>
<svg viewBox="0 -44.0 50.0 50.0" version="1.1" xmlns="http://www.w3.org/2000/svg"><rect x="-1000" y="-1000" width="2000" height="2000" stroke="white" fill="white" /><g style="fill:none;stroke:#000000;stroke-width:1"><path d="M 13.3 16.4 C 13.3 19.2 12.2 20.4 8.9 20.4 L 4.1 20.4 C 3.1 20.4 2.6 19.6 2.6 18.8 C 2.6 18.0 3.1 17.2 4.1 17.2 L 8.0 17.2 C 9.6 17.2 9.8 17.0 9.8 15.7 L 9.8 6.5 C 7.8 4.1 5.3 2.1 3.1 0.7 C 2.3 0.2 2.0 -0.5 2.0 -1.1 C 2.0 -2.0 2.7 -2.8 3.7 -2.8 C 4.0 -2.8 4.5 -2.7 4.9 -2.4 C 7.6 -0.5 10.1 1.7 11.9 4.0 C 15.5 -0.4 20.9 -1.9 32.6 -1.9 C 38.3 -1.9 42.3 -1.8 46.5 -1.4 C 47.6 -1.3 48.1 -0.5 48.1 0.4 C 48.1 1.4 47.5 2.4 46.1 2.2 C 42.1 1.8 38.1 1.7 32.4 1.7 C 20.0 1.7 16.1 3.1 13.3 7.0 Z " transform="scale(1,-1)" stroke-dasharray="142.93050292992228" stroke-dashoffset="142.93050292992228"><animate attributeName="stroke-dashoffset" from="142.93050292992228" to="0" dur="4.287915087897669s" begin="0s; 15s; 30s; 45s; 60s" fill="freeze" id="anim0" /></path><path d="M 45.5 20.0 C 46.5 20.0 46.9 20.8 46.9 21.6 C 46.9 22.4 46.5 23.1 45.5 23.1 L 32.4 23.1 C 32.8 25.5 33.0 27.9 33.0 30.3 L 42.9 30.3 C 43.9 30.3 44.4 31.1 44.4 31.8 C 44.4 32.6 43.9 33.3 42.9 33.3 L 33.0 33.3 L 33.0 40.4 C 33.0 41.4 32.1 42.0 31.2 42.0 C 30.4 42.0 29.5 41.4 29.5 40.4 L 29.5 33.3 L 23.7 33.3 C 24.2 34.9 24.7 36.5 25.0 37.9 C 25.3 39.2 24.2 40.0 23.2 40.0 C 22.5 40.0 21.8 39.6 21.6 38.7 C 20.7 34.6 18.9 30.0 17.0 27.5 C 16.7 27.1 16.5 26.6 16.5 26.2 C 16.5 25.3 17.3 24.7 18.2 24.7 C 18.8 24.7 19.4 25.0 19.8 25.6 C 20.7 26.9 21.6 28.5 22.4 30.3 L 29.5 30.3 C 29.5 27.9 29.3 25.5 28.9 23.1 L 17.3 23.1 C 16.4 23.1 15.9 22.4 15.9 21.6 C 15.9 20.8 16.4 20.0 17.3 20.0 L 28.2 20.0 C 27.7 18.1 26.9 16.6 26.0 15.2 C 24.0 12.3 21.0 9.6 17.9 7.8 C 17.2 7.4 16.9 6.8 16.9 6.2 C 16.9 5.4 17.6 4.7 18.4 4.7 C 18.9 4.7 19.2 4.8 19.7 5.0 C 23.2 7.1 26.5 10.2 28.8 13.4 C 29.8 14.7 30.6 16.2 31.2 18.0 C 34.0 13.0 38.4 8.5 43.2 5.7 C 43.7 5.4 44.1 5.3 44.6 5.3 C 45.6 5.3 46.4 6.1 46.4 7.0 C 46.4 7.7 45.9 8.5 45.0 9.0 C 40.3 11.5 36.1 15.5 33.4 20.0 Z " transform="scale(1,-1)" stroke-dasharray="242.1740067245679" stroke-dashoffset="242.1740067245679"><animate attributeName="stroke-dashoffset" from="242.1740067245679" to="0" dur="7.265220201737037s" begin="anim0.end" fill="freeze" id="anim1" /></path><path d="M 8.2 39.1 C 7.8 39.3 7.4 39.4 7.0 39.4 C 6.1 39.4 5.3 38.7 5.3 37.8 C 5.3 37.2 5.5 36.8 6.1 36.3 C 7.6 35.3 9.6 33.4 10.9 31.9 C 11.4 31.3 11.9 31.1 12.5 31.1 C 13.4 31.1 14.2 31.9 14.2 32.9 C 14.2 33.4 14.0 34.0 13.5 34.5 C 12.2 36.0 9.8 38.0 8.2 39.1 Z" transform="scale(1,-1)" stroke-dasharray="25.555742286583367" stroke-dashoffset="25.555742286583367"><animate attributeName="stroke-dashoffset" from="25.555742286583367" to="0" dur="0.766672268597501s" begin="anim1.end" fill="freeze" id="anim_end" /></path></g></svg>