<?xml version='1.0' encoding='utf-8'?>
<svg viewBox="0 -44.0 50.0 50.0" version="1.1" xmlns="http://www.w3.org/2000/svg"><rect x="-1000" y="-1000" width="2000" height="2000" stroke="white" fill="white" /><g style="fill:none;stroke:#000000;stroke-width:1"><path d="M 30.1 25.0 L 30.1 22.2 C 30.1 19.2 31.5 18.2 34.1 18.2 L 38.3 18.2 C 40.9 18.2 42.3 19.2 42.3 22.2 L 42.3 25.0 L 46.8 25.0 C 47.7 25.0 48.1 25.7 48.1 26.4 C 48.1 27.1 47.7 27.8 46.8 27.8 L 42.3 27.8 L 42.3 31.0 C 42.3 32.0 41.6 32.5 40.8 32.5 C 40.0 32.5 39.2 32.0 39.2 31.0 L 39.2 27.8 L 33.1 27.8 L 33.1 31.0 C 33.1 32.0 32.4 32.5 31.6 32.5 C 30.9 32.5 30.1 32.0 30.1 31.0 L 30.1 27.8 L 25.0 27.8 L 25.0 31.7 C 25.0 33.4 25.5 33.9 27.6 33.9 L 46.3 33.9 C 47.2 33.9 47.8 34.6 47.8 35.4 C 47.8 36.1 47.2 36.9 46.3 36.9 L 36.3 36.9 L 36.3 40.2 C 36.3 41.2 35.5 41.8 34.6 41.8 C 33.8 41.8 32.9 41.2 32.9 40.2 L 32.9 36.9 L 27.0 36.9 C 22.9 36.9 21.6 35.2 21.6 32.2 L 21.6 24.5 C 21.6 15.2 21.0 9.3 19.5 4.8 C 19.4 5.5 18.8 6.0 18.1 6.0 C 17.9 6.0 17.7 6.0 17.4 5.9 C 16.2 5.5 14.7 5.1 13.0 4.7 L 13.0 17.4 L 18.0 17.4 C 18.9 17.4 19.4 18.2 19.4 18.9 C 19.4 19.6 18.9 20.4 18.0 20.4 L 13.0 20.4 L 13.0 25.0 L 16.5 25.0 C 17.4 25.0 17.9 25.8 17.9 26.5 C 17.9 27.2 17.4 27.9 16.5 27.9 L 7.0 27.9 C 6.0 27.9 5.6 27.2 5.6 26.5 C 5.6 25.8 6.0 25.0 7.0 25.0 L 9.9 25.0 L 9.9 20.4 L 3.6 20.4 C 2.7 20.4 2.1 19.6 2.1 18.9 C 2.1 18.2 2.7 17.4 3.6 17.4 L 9.9 17.4 L 9.9 4.0 C 7.8 3.5 5.7 3.2 3.8 3.0 C 2.7 2.9 2.2 2.1 2.2 1.3 C 2.2 0.5 2.9 -0.5 4.1 -0.3 C 8.8 0.3 14.8 1.7 18.2 3.0 C 18.5 3.1 18.8 3.2 18.9 3.5 C 18.3 1.9 17.6 0.5 16.7 -0.9 C 16.4 -1.3 16.2 -1.7 16.2 -2.1 C 16.2 -3.0 17.0 -3.6 17.8 -3.6 C 18.4 -3.6 18.9 -3.3 19.4 -2.6 C 23.2 3.2 25.0 9.9 25.0 24.5 L 25.0 25.0 Z " transform="scale(1,-1)" stroke-dasharray="335.4941135050222" stroke-dashoffset="335.4941135050222"><animate attributeName="stroke-dashoffset" from="335.4941135050222" to="0" dur="10.064823405150666s" begin="0s; 15s; 30s; 45s; 60s" fill="freeze" id="anim0" /></path><path d="M 33.1 25.0 L 39.2 25.0 L 39.2 22.8 C 39.2 21.5 38.8 21.1 37.7 21.1 L 34.6 21.1 C 33.6 21.1 33.1 21.4 33.1 22.8 Z " transform="scale(1,-1)" stroke-dasharray="18.926903729764664" stroke-dashoffset="18.926903729764664"><animate attributeName="stroke-dashoffset" from="18.926903729764664" to="0" dur="0.5678071118929399s" begin="anim0.end" fill="freeze" id="anim1" /></path><path d="M 29.2 12.3 C 30.4 9.2 32.1 6.5 34.4 4.1 C 31.5 2.1 28.1 0.5 24.6 -0.4 C 23.7 -0.7 23.3 -1.2 23.3 -1.9 C 23.3 -2.9 24.2 -3.8 25.4 -3.5 C 29.4 -2.4 33.3 -0.6 36.8 1.9 C 39.4 -0.4 42.5 -2.1 45.9 -3.2 C 46.1 -3.2 46.4 -3.2 46.6 -3.2 C 47.6 -3.2 48.3 -2.4 48.3 -1.4 C 48.3 -0.7 47.9 0.1 46.8 0.5 C 44.1 1.3 41.6 2.6 39.5 4.0 C 41.3 5.7 42.9 7.6 44.2 9.7 C 44.7 10.6 45.0 11.5 45.0 12.2 C 45.0 14.0 43.5 15.2 41.1 15.2 L 28.0 15.2 C 26.9 15.2 26.4 14.5 26.4 13.8 C 26.4 13.1 26.9 12.3 28.0 12.3 Z " transform="scale(1,-1)" stroke-dasharray="97.9077897369273" stroke-dashoffset="97.9077897369273"><animate attributeName="stroke-dashoffset" from="97.9077897369273" to="0" dur="2.937233692107819s" begin="anim1.end" fill="freeze" id="anim2" /></path><path d="M 40.2 12.3 C 40.9 12.3 41.2 12.2 41.2 11.8 C 41.2 11.6 41.1 11.3 40.9 11.0 C 39.9 9.2 38.5 7.6 36.9 6.2 C 35.0 7.9 33.4 10.0 32.4 12.3 Z " transform="scale(1,-1)" stroke-dasharray="23.85310553046682" stroke-dashoffset="23.85310553046682"><animate attributeName="stroke-dashoffset" from="23.85310553046682" to="0" dur="0.7155931659140046s" begin="anim2.end" fill="freeze" id="anim3" /></path><path d="M 13.8 38.7 C 14.0 39.1 14.1 39.4 14.1 39.8 C 14.1 40.7 13.3 41.2 12.5 41.2 C 11.8 41.2 11.2 41.0 10.8 40.2 C 8.6 36.5 5.2 32.6 2.0 29.9 C 1.5 29.5 1.2 28.9 1.2 28.5 C 1.2 27.6 1.9 27.0 2.8 27.0 C 3.2 27.0 3.6 27.1 4.0 27.5 C 6.8 29.7 9.6 32.6 11.9 35.9 C 13.8 34.4 15.6 32.6 16.9 30.9 C 17.4 30.4 17.9 30.2 18.4 30.2 C 19.3 30.2 20.1 30.8 20.1 31.8 C 20.1 32.1 19.9 32.6 19.5 33.1 C 17.9 34.9 15.7 37.0 13.6 38.4 Z " transform="scale(1,-1)" stroke-dasharray="57.41903045706362" stroke-dashoffset="57.41903045706362"><animate attributeName="stroke-dashoffset" from="57.41903045706362" to="0" dur="1.7225709137119085s" begin="anim3.end" fill="freeze" id="anim4" /></path><path d="M 6.2 13.4 C 5.8 14.0 5.2 14.3 4.7 14.3 C 3.9 14.3 3.2 13.8 3.2 13.0 C 3.2 12.7 3.2 12.5 3.4 12.2 C 4.1 10.8 4.8 9.1 5.1 7.4 C 5.3 6.4 6.0 6.0 6.7 6.0 C 7.6 6.0 8.5 6.8 8.2 8.2 C 7.9 9.9 7.0 12.1 6.2 13.4 Z " transform="scale(1,-1)" stroke-dasharray="20.9914302037332" stroke-dashoffset="20.9914302037332"><animate attributeName="stroke-dashoffset" from="20.9914302037332" to="0" dur="0.6297429061119959s" begin="anim4.end" fill="freeze" id="anim5" /></path><path d="M 16.2 14.1 C 15.8 12.3 15.2 10.8 14.7 9.5 C 14.6 9.2 14.5 9.0 14.5 8.7 C 14.5 7.9 15.1 7.4 15.8 7.4 C 16.4 7.4 16.9 7.7 17.3 8.5 C 17.9 9.7 18.5 11.5 19.0 13.2 C 19.1 13.4 19.1 13.6 19.1 13.8 C 19.1 14.6 18.3 15.2 17.6 15.2 C 16.9 15.2 16.4 14.9 16.2 14.1 Z" transform="scale(1,-1)" stroke-dasharray="19.53069924719856" stroke-dashoffset="19.53069924719856"><animate attributeName="stroke-dashoffset" from="19.53069924719856" to="0" dur="0.5859209774159567s" begin="anim5.end" fill="freeze" id="anim_end" /></path></g></svg>