<?xml version='1.0' encoding='utf-8'?>
<svg viewBox="0 -44.0 50.0 50.0" version="1.1" xmlns="http://www.w3.org/2000/svg"><rect x="-1000" y="-1000" width="2000" height="2000" stroke="white" fill="white" /><g style="fill:none;stroke:#000000;stroke-width:1"><path d="M 18.8 14.2 C 21.9 14.2 22.9 15.2 22.9 17.5 L 22.9 21.3 C 22.9 23.6 21.9 24.7 18.8 24.7 L 15.2 24.7 C 12.1 24.7 11.1 23.6 11.1 21.3 L 11.1 18.4 C 11.1 13.6 10.2 9.6 8.7 6.6 C 8.5 6.2 8.5 5.9 8.5 5.6 C 8.5 4.7 9.2 4.1 9.9 4.1 C 10.5 4.1 11.1 4.5 11.5 5.2 C 11.9 6.1 12.3 7.0 12.7 8.0 C 12.6 7.7 12.6 7.5 12.6 7.2 L 12.6 2.5 C 12.7 -0.2 13.8 -1.2 16.4 -1.2 L 19.5 -1.2 C 22.2 -1.2 23.3 -0.1 23.3 2.5 L 23.3 7.2 C 23.3 9.8 22.2 10.9 19.5 10.9 L 16.4 10.9 C 15.2 10.9 14.0 10.7 13.2 9.7 C 13.6 11.2 14.0 12.7 14.1 14.2 Z " transform="scale(1,-1)" stroke-dasharray="97.04116987080225" stroke-dashoffset="97.04116987080225"><animate attributeName="stroke-dashoffset" from="97.04116987080225" to="0" dur="2.9112350961240674s" begin="0s; 15s; 30s; 45s; 60s" fill="freeze" id="anim0" /></path><path d="M 16.9 1.6 C 16.0 1.6 15.8 1.9 15.8 2.8 L 15.8 7.1 C 15.8 8.0 16.0 8.2 16.9 8.2 L 19.0 8.2 C 19.9 8.2 20.2 8.0 20.2 7.1 L 20.2 2.8 C 20.2 1.9 19.9 1.6 19.0 1.6 Z " transform="scale(1,-1)" stroke-dasharray="20.536587922021344" stroke-dashoffset="20.536587922021344"><animate attributeName="stroke-dashoffset" from="20.536587922021344" to="0" dur="0.6160976376606403s" begin="anim0.end" fill="freeze" id="anim1" /></path><path d="M 14.4 16.9 C 14.4 17.2 14.4 17.7 14.4 18.1 L 14.4 20.9 C 14.4 21.7 14.6 22.0 15.5 22.0 L 18.4 22.0 C 19.4 22.0 19.6 21.7 19.6 20.9 L 19.6 17.9 C 19.6 17.1 19.3 16.9 18.4 16.9 Z " transform="scale(1,-1)" stroke-dasharray="19.52440285448037" stroke-dashoffset="19.52440285448037"><animate attributeName="stroke-dashoffset" from="19.52440285448037" to="0" dur="0.5857320856344111s" begin="anim1.end" fill="freeze" id="anim2" /></path><path d="M 42.5 27.1 L 42.5 1.7 C 42.5 0.2 42.0 -0.2 41.1 -0.2 C 40.5 -0.2 40.0 -0.2 39.2 0.0 C 37.8 0.3 36.9 -0.7 36.9 -1.7 C 36.9 -2.4 37.4 -3.1 38.5 -3.4 C 39.6 -3.6 40.2 -3.7 41.4 -3.7 C 44.7 -3.7 46.0 -2.0 46.0 1.1 L 46.0 36.1 C 46.0 39.1 44.7 40.3 41.0 40.3 L 32.1 40.3 C 28.6 40.3 27.2 38.9 27.2 36.2 L 27.2 31.2 C 27.3 28.2 29.4 27.2 32.1 27.1 Z " transform="scale(1,-1)" stroke-dasharray="127.92906403676095" stroke-dashoffset="127.92906403676095"><animate attributeName="stroke-dashoffset" from="127.92906403676095" to="0" dur="3.8378719211028285s" begin="anim2.end" fill="freeze" id="anim3" /></path><path d="M 42.5 29.8 L 32.7 29.8 C 31.1 29.8 30.7 30.1 30.7 31.2 L 30.7 32.5 L 42.5 32.5 Z " transform="scale(1,-1)" stroke-dasharray="28.48005322486494" stroke-dashoffset="28.48005322486494"><animate attributeName="stroke-dashoffset" from="28.48005322486494" to="0" dur="0.8544015967459482s" begin="anim3.end" fill="freeze" id="anim4" /></path><path d="M 42.5 35.1 L 30.7 35.1 L 30.7 36.1 C 30.7 37.3 31.1 37.6 32.7 37.6 L 40.2 37.6 C 42.1 37.6 42.5 37.2 42.5 36.0 Z " transform="scale(1,-1)" stroke-dasharray="27.467111389436063" stroke-dashoffset="27.467111389436063"><animate attributeName="stroke-dashoffset" from="27.467111389436063" to="0" dur="0.8240133416830818s" begin="anim4.end" fill="freeze" id="anim5" /></path><path d="M 34.0 22.4 L 34.0 24.5 C 34.0 25.5 33.2 26.0 32.4 26.0 C 31.6 26.0 30.7 25.5 30.7 24.5 L 30.7 22.4 L 26.1 22.4 C 25.2 22.4 24.7 21.7 24.7 21.0 C 24.7 20.2 25.2 19.6 26.1 19.6 L 38.8 19.6 C 39.8 19.6 40.2 20.2 40.2 21.0 C 40.2 21.7 39.8 22.4 38.8 22.4 Z " transform="scale(1,-1)" stroke-dasharray="40.22968770550459" stroke-dashoffset="40.22968770550459"><animate attributeName="stroke-dashoffset" from="40.22968770550459" to="0" dur="1.2068906311651375s" begin="anim5.end" fill="freeze" id="anim6" /></path><path d="M 30.7 11.5 L 30.7 7.8 L 26.4 7.8 C 25.5 7.8 25.0 7.1 25.0 6.4 C 25.0 5.7 25.5 5.0 26.4 5.0 L 30.7 5.0 L 30.7 -0.4 C 30.7 -1.4 31.6 -1.8 32.4 -1.8 C 33.2 -1.8 34.0 -1.4 34.0 -0.4 L 34.0 5.0 L 38.6 5.0 C 39.5 5.0 40.0 5.7 40.0 6.4 C 40.0 7.1 39.5 7.8 38.6 7.8 L 34.0 7.8 L 34.0 11.5 L 39.9 11.5 C 40.8 11.5 41.2 12.2 41.2 12.9 C 41.2 13.6 40.8 14.2 39.9 14.2 L 36.5 14.2 C 36.9 15.2 37.4 16.2 37.8 17.2 C 37.9 17.4 38.0 17.6 38.0 17.8 C 38.0 18.7 37.2 19.2 36.5 19.2 C 35.8 19.2 35.2 18.8 34.9 18.1 C 34.4 16.8 33.9 15.5 33.2 14.2 L 30.5 14.2 C 30.8 14.5 31.0 14.8 31.0 15.2 C 31.0 15.5 30.9 15.8 30.8 16.1 C 30.5 16.8 30.1 17.6 29.6 18.3 C 29.2 18.9 28.7 19.1 28.2 19.1 C 27.4 19.1 26.8 18.7 26.8 17.9 C 26.8 17.6 26.9 17.3 27.1 17.0 C 27.4 16.4 27.6 16.1 28.0 15.0 C 28.1 14.7 28.2 14.4 28.5 14.2 L 25.0 14.2 C 24.1 14.2 23.6 13.6 23.6 12.9 C 23.6 12.2 24.1 11.5 25.0 11.5 Z " transform="scale(1,-1)" stroke-dasharray="104.49783623722875" stroke-dashoffset="104.49783623722875"><animate attributeName="stroke-dashoffset" from="104.49783623722875" to="0" dur="3.1349350871168626s" begin="anim6.end" fill="freeze" id="anim7" /></path><path d="M 7.5 27.1 L 17.2 27.1 C 20.7 27.1 22.1 28.5 22.1 31.2 L 22.1 36.2 C 22.1 38.9 20.7 40.3 17.2 40.3 L 9.1 40.3 C 5.3 40.3 4.0 39.1 4.0 36.1 L 4.0 -2.6 C 4.0 -3.6 4.9 -4.0 5.8 -4.0 C 6.7 -4.0 7.5 -3.6 7.5 -2.6 Z " transform="scale(1,-1)" stroke-dasharray="118.67833079256839" stroke-dashoffset="118.67833079256839"><animate attributeName="stroke-dashoffset" from="118.67833079256839" to="0" dur="3.5603499237770517s" begin="anim7.end" fill="freeze" id="anim8" /></path><path d="M 7.5 29.8 L 7.5 32.5 L 18.6 32.5 L 18.6 31.2 C 18.6 29.8 17.8 29.8 16.6 29.8 Z " transform="scale(1,-1)" stroke-dasharray="27.09390034754238" stroke-dashoffset="27.09390034754238"><animate attributeName="stroke-dashoffset" from="27.09390034754238" to="0" dur="0.8128170104262714s" begin="anim8.end" fill="freeze" id="anim9" /></path><path d="M 18.6 35.1 L 7.5 35.1 L 7.5 36.0 C 7.5 37.2 7.9 37.6 9.8 37.6 L 16.6 37.6 C 18.2 37.6 18.6 37.3 18.6 36.1 Z" transform="scale(1,-1)" stroke-dasharray="26.067111389436064" stroke-dashoffset="26.067111389436064"><animate attributeName="stroke-dashoffset" from="26.067111389436064" to="0" dur="0.7820133416830819s" begin="anim9.end" fill="freeze" id="anim_end" /></path></g></svg>