<?xml version='1.0' encoding='utf-8'?>
<svg viewBox="0 -44.0 50.0 50.0" version="1.1" xmlns="http://www.w3.org/2000/svg"><rect x="-1000" y="-1000" width="2000" height="2000" stroke="white" fill="white" /><g style="fill:none;stroke:#000000;stroke-width:1"><path d="M 17.0 30.7 L 17.0 36.1 L 23.0 36.1 C 23.9 36.1 24.4 36.9 24.4 37.6 C 24.4 38.4 23.9 39.2 23.0 39.2 L 3.0 39.2 C 2.1 39.2 1.6 38.4 1.6 37.6 C 1.6 36.9 2.1 36.1 3.0 36.1 L 9.2 36.1 L 9.2 30.7 L 7.8 30.7 C 4.7 30.7 3.2 29.5 3.2 26.0 L 3.2 2.6 C 3.3 -0.7 4.5 -2.2 7.9 -2.2 L 18.4 -2.2 C 21.5 -2.2 23.0 -0.9 23.0 2.6 L 23.0 26.0 C 23.0 29.5 21.6 30.7 18.4 30.7 Z " transform="scale(1,-1)" stroke-dasharray="143.20391639132674" stroke-dashoffset="143.20391639132674"><animate attributeName="stroke-dashoffset" from="143.20391639132674" to="0" dur="4.296117491739802s" begin="0s; 15s; 30s; 45s; 60s" fill="freeze" id="anim0" /></path><path d="M 17.0 27.9 L 18.2 27.9 C 19.5 27.9 19.9 27.4 19.9 25.6 L 19.9 19.2 C 19.2 19.1 18.7 19.1 18.1 19.1 C 17.3 19.1 17.0 19.2 17.0 20.1 Z " transform="scale(1,-1)" stroke-dasharray="22.353204904319657" stroke-dashoffset="22.353204904319657"><animate attributeName="stroke-dashoffset" from="22.353204904319657" to="0" dur="0.6705961471295897s" begin="anim0.end" fill="freeze" id="anim1" /></path><path d="M 19.9 9.6 L 6.4 9.6 L 6.4 25.6 C 6.4 27.4 6.8 27.9 8.1 27.9 L 9.2 27.9 C 9.1 21.7 8.4 18.4 7.2 16.1 C 7.1 15.8 7.0 15.5 7.0 15.2 C 7.0 14.5 7.6 14.0 8.2 14.0 C 8.7 14.0 9.2 14.2 9.5 14.9 C 11.1 17.6 11.9 21.5 12.0 27.9 L 14.2 27.9 L 14.2 19.5 C 14.2 17.2 15.2 16.2 17.9 16.2 C 18.5 16.2 19.2 16.2 19.9 16.3 Z " transform="scale(1,-1)" stroke-dasharray="88.97546806641385" stroke-dashoffset="88.97546806641385"><animate attributeName="stroke-dashoffset" from="88.97546806641385" to="0" dur="2.6692640419924154s" begin="anim1.end" fill="freeze" id="anim2" /></path><path d="M 14.2 30.7 L 12.0 30.7 L 12.0 36.1 L 14.2 36.1 Z " transform="scale(1,-1)" stroke-dasharray="15.200000000000003" stroke-dashoffset="15.200000000000003"><animate attributeName="stroke-dashoffset" from="15.200000000000003" to="0" dur="0.45600000000000007s" begin="anim2.end" fill="freeze" id="anim3" /></path><path d="M 8.4 0.7 C 6.9 0.7 6.4 1.4 6.4 3.0 L 6.4 6.6 L 19.9 6.6 L 19.9 3.0 C 19.9 1.5 19.5 0.8 17.9 0.7 Z " transform="scale(1,-1)" stroke-dasharray="37.275921134069606" stroke-dashoffset="37.275921134069606"><animate attributeName="stroke-dashoffset" from="37.275921134069606" to="0" dur="1.1182776340220881s" begin="anim3.end" fill="freeze" id="anim4" /></path><path d="M 41.0 23.2 C 44.4 23.2 46.0 24.8 46.0 27.4 L 46.0 35.4 C 46.0 38.1 44.4 39.6 41.0 39.6 L 31.9 39.6 C 28.5 39.6 26.9 38.1 26.9 35.4 L 26.9 27.4 C 27.0 24.3 29.0 23.2 31.9 23.2 Z " transform="scale(1,-1)" stroke-dasharray="64.00916680170326" stroke-dashoffset="64.00916680170326"><animate attributeName="stroke-dashoffset" from="64.00916680170326" to="0" dur="1.9202750040510976s" begin="anim4.end" fill="freeze" id="anim5" /></path><path d="M 32.3 26.1 C 30.8 26.1 30.2 26.6 30.2 28.0 L 30.2 30.1 L 42.7 30.1 L 42.7 28.0 C 42.7 26.5 41.9 26.1 40.6 26.1 Z " transform="scale(1,-1)" stroke-dasharray="31.59233237619949" stroke-dashoffset="31.59233237619949"><animate attributeName="stroke-dashoffset" from="31.59233237619949" to="0" dur="0.9477699712859846s" begin="anim5.end" fill="freeze" id="anim6" /></path><path d="M 42.7 33.0 L 30.2 33.0 L 30.2 34.9 C 30.2 36.2 30.8 36.7 32.3 36.7 L 40.6 36.7 C 42.1 36.7 42.7 36.2 42.7 34.9 Z " transform="scale(1,-1)" stroke-dasharray="31.03525818069974" stroke-dashoffset="31.03525818069974"><animate attributeName="stroke-dashoffset" from="31.03525818069974" to="0" dur="0.9310577454209921s" begin="anim6.end" fill="freeze" id="anim7" /></path><path d="M 38.5 1.1 L 38.5 6.1 L 43.7 6.1 C 44.6 6.1 45.1 6.8 45.1 7.5 C 45.1 8.2 44.6 9.0 43.7 9.0 L 38.5 9.0 L 38.5 13.7 L 45.4 13.7 C 46.4 13.7 46.9 14.5 46.9 15.2 C 46.9 15.9 46.4 16.6 45.4 16.6 L 38.5 16.6 L 38.5 20.5 C 38.5 21.5 37.6 22.1 36.8 22.1 C 35.9 22.1 35.1 21.5 35.1 20.5 L 35.1 16.6 L 30.8 16.6 C 31.1 17.4 31.4 18.2 31.7 18.9 C 31.8 19.2 31.8 19.4 31.8 19.7 C 31.8 20.7 30.9 21.3 30.1 21.3 C 29.4 21.3 28.7 21.0 28.5 20.1 C 27.6 17.1 26.2 14.0 24.8 11.8 C 24.5 11.4 24.4 11.0 24.4 10.6 C 24.4 9.8 25.1 9.2 25.9 9.2 C 26.5 9.2 27.2 9.5 27.8 10.3 C 28.4 11.2 29.0 12.5 29.6 13.7 L 35.1 13.7 L 35.1 9.0 L 29.5 9.0 C 28.6 9.0 28.1 8.2 28.1 7.5 C 28.1 6.8 28.6 6.1 29.5 6.1 L 35.1 6.1 L 35.1 1.1 L 25.9 1.1 C 25.0 1.1 24.5 0.3 24.5 -0.5 C 24.5 -1.2 25.0 -2.0 25.9 -2.0 L 46.6 -2.0 C 47.5 -2.0 48.0 -1.2 48.0 -0.5 C 48.0 0.3 47.5 1.1 46.6 1.1 Z" transform="scale(1,-1)" stroke-dasharray="165.4363938119327" stroke-dashoffset="165.4363938119327"><animate attributeName="stroke-dashoffset" from="165.4363938119327" to="0" dur="4.9630918143579805s" begin="anim7.end" fill="freeze" id="anim_end" /></path></g></svg>