<?xml version='1.0' encoding='utf-8'?>
<svg viewBox="0 -44.0 50.0 50.0" version="1.1" xmlns="http://www.w3.org/2000/svg"><rect x="-1000" y="-1000" width="2000" height="2000" stroke="white" fill="white" /><g style="fill:none;stroke:#000000;stroke-width:1"><path d="M 40.4 -2.8 C 43.9 -2.8 45.2 -1.4 45.2 1.8 L 45.2 12.8 C 45.2 16.0 43.9 17.4 40.4 17.4 L 32.6 17.4 C 29.1 17.4 27.8 16.0 27.8 12.8 L 27.8 1.8 C 27.8 -1.7 29.3 -2.8 32.6 -2.8 Z " transform="scale(1,-1)" stroke-dasharray="68.56686447176564" stroke-dashoffset="68.56686447176564"><animate attributeName="stroke-dashoffset" from="68.56686447176564" to="0" dur="2.057005934152969s" begin="0s; 15s; 30s; 45s; 60s" fill="freeze" id="anim0" /></path><path d="M 33.5 0.2 C 31.7 0.2 31.2 0.8 31.2 2.4 L 31.2 6.1 L 41.9 6.1 L 41.9 2.4 C 41.8 0.7 41.1 0.2 39.5 0.2 Z " transform="scale(1,-1)" stroke-dasharray="31.61321751495768" stroke-dashoffset="31.61321751495768"><animate attributeName="stroke-dashoffset" from="31.61321751495768" to="0" dur="0.9483965254487303s" begin="anim0.end" fill="freeze" id="anim1" /></path><path d="M 41.9 9.1 L 31.2 9.1 L 31.2 12.2 C 31.2 13.8 31.7 14.4 33.5 14.4 L 39.5 14.4 C 41.4 14.4 41.9 13.8 41.9 12.2 Z " transform="scale(1,-1)" stroke-dasharray="30.491958365127378" stroke-dashoffset="30.491958365127378"><animate attributeName="stroke-dashoffset" from="30.491958365127378" to="0" dur="0.9147587509538213s" begin="anim1.end" fill="freeze" id="anim2" /></path><path d="M 17.1 30.8 L 17.1 36.1 L 22.8 36.1 C 23.8 36.1 24.2 36.9 24.2 37.7 C 24.2 38.5 23.8 39.2 22.8 39.2 L 3.1 39.2 C 2.1 39.2 1.6 38.5 1.6 37.7 C 1.6 36.9 2.1 36.1 3.1 36.1 L 9.2 36.1 L 9.2 30.8 L 7.9 30.8 C 4.7 30.8 3.3 29.6 3.3 26.0 L 3.3 2.6 C 3.4 -0.7 4.6 -2.2 8.0 -2.2 L 18.4 -2.2 C 21.6 -2.2 23.1 -0.9 23.1 2.6 L 23.1 26.0 C 23.1 29.6 21.7 30.8 18.5 30.8 Z " transform="scale(1,-1)" stroke-dasharray="142.65969320647096" stroke-dashoffset="142.65969320647096"><animate attributeName="stroke-dashoffset" from="142.65969320647096" to="0" dur="4.279790796194129s" begin="anim2.end" fill="freeze" id="anim3" /></path><path d="M 17.1 27.9 L 18.2 27.9 C 19.5 27.9 19.9 27.5 19.9 25.6 L 19.9 19.2 C 19.3 19.1 18.7 19.1 18.2 19.1 C 17.4 19.1 17.1 19.2 17.1 20.1 Z " transform="scale(1,-1)" stroke-dasharray="22.176581041948534" stroke-dashoffset="22.176581041948534"><animate attributeName="stroke-dashoffset" from="22.176581041948534" to="0" dur="0.665297431258456s" begin="anim3.end" fill="freeze" id="anim4" /></path><path d="M 19.9 9.6 L 6.5 9.6 L 6.5 25.6 C 6.5 27.5 6.9 27.9 8.1 27.9 L 9.2 27.9 C 9.2 21.8 8.5 18.4 7.2 16.1 C 7.1 15.8 7.0 15.5 7.0 15.2 C 7.0 14.5 7.6 14.1 8.2 14.1 C 8.7 14.1 9.2 14.3 9.6 14.9 C 11.1 17.6 11.9 21.6 12.0 27.9 L 14.3 27.9 L 14.3 19.5 C 14.3 17.2 15.3 16.2 17.9 16.2 C 18.6 16.2 19.2 16.2 19.9 16.3 Z " transform="scale(1,-1)" stroke-dasharray="88.74102540685658" stroke-dashoffset="88.74102540685658"><animate attributeName="stroke-dashoffset" from="88.74102540685658" to="0" dur="2.6622307622056973s" begin="anim4.end" fill="freeze" id="anim5" /></path><path d="M 14.3 30.8 L 12.0 30.8 L 12.0 36.1 L 14.3 36.1 Z " transform="scale(1,-1)" stroke-dasharray="15.200000000000003" stroke-dashoffset="15.200000000000003"><animate attributeName="stroke-dashoffset" from="15.200000000000003" to="0" dur="0.45600000000000007s" begin="anim5.end" fill="freeze" id="anim6" /></path><path d="M 8.5 0.7 C 6.9 0.7 6.5 1.4 6.5 3.0 L 6.5 6.6 L 19.9 6.6 L 19.9 3.0 C 19.9 1.5 19.6 0.8 17.9 0.7 Z " transform="scale(1,-1)" stroke-dasharray="37.13120748449054" stroke-dashoffset="37.13120748449054"><animate attributeName="stroke-dashoffset" from="37.13120748449054" to="0" dur="1.1139362245347162s" begin="anim6.end" fill="freeze" id="anim7" /></path><path d="M 33.8 34.1 L 33.8 40.2 C 33.8 41.2 33.0 41.8 32.1 41.8 C 31.4 41.8 30.5 41.2 30.5 40.2 L 30.5 34.1 L 26.9 34.1 C 26.0 34.1 25.5 33.4 25.5 32.6 C 25.5 31.9 26.0 31.2 26.9 31.2 L 30.5 31.2 L 30.5 24.4 L 25.9 24.4 C 25.0 24.4 24.5 23.6 24.5 22.9 C 24.5 22.1 25.0 21.4 25.9 21.4 L 47.3 21.4 C 48.2 21.4 48.7 22.1 48.7 22.9 C 48.7 23.6 48.2 24.4 47.3 24.4 L 42.1 24.4 L 42.1 31.2 L 45.9 31.2 C 46.8 31.2 47.2 31.9 47.2 32.6 C 47.2 33.4 46.8 34.1 45.9 34.1 L 42.1 34.1 L 42.1 40.2 C 42.1 41.2 41.2 41.8 40.4 41.8 C 39.6 41.8 38.8 41.2 38.8 40.2 L 38.8 34.1 Z " transform="scale(1,-1)" stroke-dasharray="117.30124913620543" stroke-dashoffset="117.30124913620543"><animate attributeName="stroke-dashoffset" from="117.30124913620543" to="0" dur="3.5190374740861627s" begin="anim7.end" fill="freeze" id="anim8" /></path><path d="M 33.8 24.4 L 33.8 31.2 L 38.8 31.2 L 38.8 24.4 Z" transform="scale(1,-1)" stroke-dasharray="23.6" stroke-dashoffset="23.6"><animate attributeName="stroke-dashoffset" from="23.6" to="0" dur="0.708s" begin="anim8.end" fill="freeze" id="anim_end" /></path></g></svg>