<?xml version='1.0' encoding='utf-8'?>
<svg viewBox="0 -44.0 50.0 50.0" version="1.1" xmlns="http://www.w3.org/2000/svg"><rect x="-1000" y="-1000" width="2000" height="2000" stroke="white" fill="white" /><g style="fill:none;stroke:#000000;stroke-width:1"><path d="M 14.2 22.5 C 10.8 22.5 9.9 21.5 9.9 19.6 L 9.9 13.3 C 9.9 11.4 10.8 10.3 14.2 10.3 L 36.3 10.3 C 39.8 10.3 40.7 11.4 40.7 13.3 L 40.7 19.6 C 40.7 21.5 39.8 22.5 36.3 22.5 L 29.2 22.5 L 29.2 24.0 L 39.2 24.0 C 40.0 24.0 40.4 24.6 40.4 25.1 C 40.4 25.7 40.0 26.2 39.2 26.2 L 10.8 26.2 C 10.0 26.2 9.6 25.7 9.6 25.1 C 9.6 24.6 10.0 24.0 10.8 24.0 L 20.5 24.0 C 20.4 23.5 20.3 23.0 20.2 22.5 Z " transform="scale(1,-1)" stroke-dasharray="130.47332214799258" stroke-dashoffset="130.47332214799258"><animate attributeName="stroke-dashoffset" from="130.47332214799258" to="0" dur="3.914199664439777s" begin="0s; 15s; 30s; 45s; 60s" fill="freeze" id="anim0" /></path><path d="M 19.2 20.5 C 18.5 19.5 17.4 18.9 16.1 18.4 C 15.4 18.2 15.1 17.7 15.1 17.2 C 15.1 16.7 15.6 16.2 16.3 16.2 C 16.4 16.2 16.6 16.2 16.8 16.2 C 19.1 16.9 21.0 18.2 22.1 20.5 L 26.6 20.5 L 26.6 19.2 C 26.6 17.4 27.5 17.0 30.9 17.0 C 34.6 17.0 35.7 17.6 35.9 19.6 C 36.0 20.0 35.6 20.3 35.1 20.5 L 36.0 20.5 C 37.2 20.5 37.6 20.2 37.6 19.2 L 37.6 16.0 L 13.0 16.0 L 13.0 19.2 C 13.0 20.2 13.2 20.5 14.5 20.5 Z " transform="scale(1,-1)" stroke-dasharray="75.22516710727959" stroke-dashoffset="75.22516710727959"><animate attributeName="stroke-dashoffset" from="75.22516710727959" to="0" dur="2.256755013218388s" begin="anim0.end" fill="freeze" id="anim1" /></path><path d="M 22.8 22.5 C 23.0 23.0 23.1 23.5 23.1 24.0 L 26.6 24.0 L 26.6 22.5 Z " transform="scale(1,-1)" stroke-dasharray="10.339090945640267" stroke-dashoffset="10.339090945640267"><animate attributeName="stroke-dashoffset" from="10.339090945640267" to="0" dur="0.310172728369208s" begin="anim1.end" fill="freeze" id="anim2" /></path><path d="M 34.0 20.5 C 33.7 20.4 33.5 20.1 33.5 19.8 C 33.4 19.2 33.1 18.9 31.0 18.9 C 29.5 18.9 29.2 19.1 29.2 19.7 L 29.2 20.5 Z " transform="scale(1,-1)" stroke-dasharray="11.667202479192913" stroke-dashoffset="11.667202479192913"><animate attributeName="stroke-dashoffset" from="11.667202479192913" to="0" dur="0.35001607437578736s" begin="anim2.end" fill="freeze" id="anim3" /></path><path d="M 14.5 12.4 C 13.2 12.4 13.0 12.7 13.0 13.7 L 13.0 14.0 L 37.6 14.0 L 37.6 13.7 C 37.6 12.6 37.0 12.4 36.0 12.4 Z " transform="scale(1,-1)" stroke-dasharray="51.49196327901238" stroke-dashoffset="51.49196327901238"><animate attributeName="stroke-dashoffset" from="51.49196327901238" to="0" dur="1.5447588983703713s" begin="anim3.end" fill="freeze" id="anim4" /></path><path d="M 18.4 29.9 L 11.6 29.9 L 11.5 31.6 L 15.5 31.6 C 16.2 31.6 16.6 32.1 16.6 32.6 C 16.6 33.1 16.2 33.6 15.5 33.6 L 11.4 33.6 L 11.3 35.1 L 15.5 35.1 C 16.2 35.1 16.6 35.6 16.6 36.1 C 16.6 36.6 16.2 37.1 15.5 37.1 L 11.2 37.1 L 11.1 38.7 C 12.6 39.0 14.4 39.4 16.1 39.9 C 16.8 40.1 17.1 40.6 17.1 41.1 C 17.1 41.7 16.6 42.2 15.9 42.2 C 15.7 42.2 15.5 42.2 15.2 42.1 C 13.5 41.6 11.9 41.1 10.5 40.8 C 10.2 41.0 9.9 41.1 9.5 41.1 C 8.8 41.1 8.0 40.6 8.1 39.7 L 8.7 29.9 L 8.6 29.9 C 4.7 29.9 3.3 29.0 3.3 26.4 L 3.3 23.6 C 3.3 22.5 4.2 22.0 5.0 22.0 C 5.9 22.0 6.7 22.5 6.7 23.6 L 6.7 26.1 C 6.7 27.2 7.2 27.6 9.0 27.6 L 41.2 27.6 C 43.1 27.6 43.5 27.2 43.5 26.1 L 43.5 23.8 C 43.5 22.8 44.4 22.2 45.2 22.2 C 46.2 22.2 47.0 22.8 47.0 23.8 L 47.0 26.4 C 47.0 29.0 45.6 29.9 41.7 29.9 L 42.4 37.8 C 42.6 40.4 41.2 41.1 38.4 41.1 L 34.1 41.1 C 33.4 41.1 32.9 40.6 32.9 40.0 C 32.9 39.4 33.4 38.8 34.1 38.8 L 38.0 38.8 C 39.2 38.8 39.4 38.6 39.3 38.0 L 39.2 37.1 L 34.6 37.1 C 33.9 37.1 33.5 36.6 33.5 36.1 C 33.5 35.6 33.9 35.1 34.6 35.1 L 39.1 35.1 L 39.0 33.6 L 34.6 33.6 C 33.9 33.6 33.5 33.1 33.5 32.6 C 33.5 32.1 33.9 31.6 34.6 31.6 L 38.8 31.6 L 38.7 29.9 L 31.8 29.9 L 31.8 38.1 C 31.8 40.8 30.9 41.6 27.9 41.6 L 22.0 41.6 C 19.2 41.6 18.4 40.8 18.4 38.8 Z " transform="scale(1,-1)" stroke-dasharray="234.0516541682188" stroke-dashoffset="234.0516541682188"><animate attributeName="stroke-dashoffset" from="234.0516541682188" to="0" dur="7.021549625046563s" begin="anim4.end" fill="freeze" id="anim5" /></path><path d="M 21.0 29.9 L 21.0 31.0 L 24.1 31.0 C 26.7 31.0 27.2 31.4 27.2 32.6 L 27.2 33.9 C 27.2 34.9 26.7 35.4 24.4 35.4 L 21.0 35.4 L 21.0 36.4 L 26.7 36.4 C 27.3 36.4 27.7 36.9 27.7 37.3 C 27.7 37.7 27.3 38.1 26.7 38.1 L 21.0 38.1 L 21.0 38.7 C 21.0 39.3 21.1 39.5 22.3 39.5 L 27.7 39.5 C 29.0 39.5 29.1 39.2 29.1 38.3 L 29.1 29.9 Z " transform="scale(1,-1)" stroke-dasharray="58.398836606013845" stroke-dashoffset="58.398836606013845"><animate attributeName="stroke-dashoffset" from="58.398836606013845" to="0" dur="1.7519650981804153s" begin="anim5.end" fill="freeze" id="anim6" /></path><path d="M 21.0 32.5 L 21.0 33.8 L 23.8 33.8 C 24.5 33.8 24.6 33.8 24.6 33.4 L 24.6 32.9 C 24.6 32.6 24.5 32.5 23.8 32.5 Z " transform="scale(1,-1)" stroke-dasharray="9.504529851112121" stroke-dashoffset="9.504529851112121"><animate attributeName="stroke-dashoffset" from="9.504529851112121" to="0" dur="0.2851358955333636s" begin="anim6.end" fill="freeze" id="anim7" /></path><path d="M 20.5 2.6 C 18.4 0.2 15.1 -1.3 10.1 -1.9 C 9.2 -2.0 8.7 -2.7 8.7 -3.2 C 8.7 -4.0 9.3 -4.7 10.4 -4.6 C 16.6 -4.0 21.9 -1.0 24.4 2.6 L 31.7 2.6 C 33.0 2.6 33.2 2.2 33.1 1.7 C 33.0 0.9 32.9 0.6 32.6 -0.1 C 32.2 -0.9 31.6 -1.2 30.4 -1.2 C 29.5 -1.2 28.8 -1.1 27.9 -0.9 C 26.8 -0.6 26.1 -1.4 26.1 -2.1 C 26.1 -2.7 26.5 -3.2 27.3 -3.4 C 28.5 -3.7 29.4 -3.8 30.5 -3.8 C 33.2 -3.8 34.8 -3.1 35.6 -1.0 C 36.0 -0.2 36.2 0.6 36.4 1.7 C 36.7 3.6 35.6 4.8 32.3 4.8 L 16.0 4.8 C 15.2 4.8 14.8 4.2 14.8 3.7 C 14.8 3.1 15.2 2.6 16.0 2.6 Z " transform="scale(1,-1)" stroke-dasharray="95.9518542323549" stroke-dashoffset="95.9518542323549"><animate attributeName="stroke-dashoffset" from="95.9518542323549" to="0" dur="2.878555626970647s" begin="anim7.end" fill="freeze" id="anim8" /></path><path d="M 20.4 8.9 C 19.5 8.9 19.1 8.3 19.1 7.8 C 19.1 7.2 19.5 6.6 20.4 6.6 L 31.4 6.6 C 32.9 6.6 33.4 6.5 34.4 5.9 C 37.2 4.1 41.2 2.1 45.4 1.0 C 45.6 1.0 45.8 0.9 46.0 0.9 C 46.9 0.9 47.4 1.6 47.4 2.4 C 47.4 3.0 47.0 3.6 46.1 3.9 C 42.2 4.9 38.4 6.5 35.8 8.0 C 34.5 8.8 33.5 8.9 31.8 8.9 Z " transform="scale(1,-1)" stroke-dasharray="61.838551821673114" stroke-dashoffset="61.838551821673114"><animate attributeName="stroke-dashoffset" from="61.838551821673114" to="0" dur="1.8551565546501934s" begin="anim8.end" fill="freeze" id="anim9" /></path><path d="M 14.1 8.4 C 11.1 6.2 7.2 4.2 4.0 3.2 C 3.2 2.9 2.8 2.2 2.8 1.7 C 2.8 1.0 3.2 0.4 4.0 0.4 C 4.3 0.4 4.5 0.5 4.8 0.6 C 8.7 1.9 13.0 4.1 15.9 6.2 C 16.5 6.6 16.8 7.0 16.8 7.5 C 16.8 8.2 16.1 8.8 15.2 8.8 C 14.8 8.8 14.5 8.7 14.1 8.4 Z" transform="scale(1,-1)" stroke-dasharray="33.86595536274232" stroke-dashoffset="33.86595536274232"><animate attributeName="stroke-dashoffset" from="33.86595536274232" to="0" dur="1.0159786608822696s" begin="anim9.end" fill="freeze" id="anim_end" /></path></g></svg>