<?xml version='1.0' encoding='utf-8'?>
<svg viewBox="0 -44.0 50.0 50.0" version="1.1" xmlns="http://www.w3.org/2000/svg"><rect x="-1000" y="-1000" width="2000" height="2000" stroke="white" fill="white" /><g style="fill:none;stroke:#000000;stroke-width:1"><path d="M 39.8 -2.5 C 44.0 -2.5 45.8 -0.8 45.8 3.0 L 45.8 27.7 C 45.8 31.5 44.0 33.1 39.8 33.1 L 35.2 33.1 C 36.0 34.9 36.9 36.9 37.4 38.6 C 37.5 38.9 37.5 39.1 37.5 39.3 C 37.5 40.5 36.6 41.2 35.6 41.2 C 34.8 41.2 34.1 40.7 33.8 39.7 C 33.1 37.5 32.3 35.3 31.3 33.1 L 30.1 33.1 C 26.0 33.1 24.3 31.5 24.3 27.7 L 24.3 3.0 C 24.4 -1.2 26.4 -2.4 30.2 -2.5 Z " transform="scale(1,-1)" stroke-dasharray="121.29720288040201" stroke-dashoffset="121.29720288040201"><animate attributeName="stroke-dashoffset" from="121.29720288040201" to="0" dur="3.63891608641206s" begin="0s; 15s; 30s; 45s; 60s" fill="freeze" id="anim0" /></path><path d="M 31.2 0.8 C 28.7 0.8 27.9 1.4 27.9 3.6 L 27.9 14.8 L 42.2 14.8 L 42.2 3.6 C 42.2 1.1 41.1 0.8 38.9 0.8 Z " transform="scale(1,-1)" stroke-dasharray="54.64871453276194" stroke-dashoffset="54.64871453276194"><animate attributeName="stroke-dashoffset" from="54.64871453276194" to="0" dur="1.6394614359828583s" begin="anim0.end" fill="freeze" id="anim1" /></path><path d="M 42.2 18.0 L 27.9 18.0 L 27.9 27.1 C 27.9 29.4 28.7 29.9 31.2 29.9 L 38.9 29.9 C 41.4 29.9 42.2 29.4 42.2 27.1 Z " transform="scale(1,-1)" stroke-dasharray="50.48656547093553" stroke-dashoffset="50.48656547093553"><animate attributeName="stroke-dashoffset" from="50.48656547093553" to="0" dur="1.5145969641280659s" begin="anim1.end" fill="freeze" id="anim2" /></path><path d="M 15.0 38.6 C 15.2 39.0 15.4 39.4 15.4 39.7 C 15.4 40.6 14.6 41.2 13.7 41.2 C 13.1 41.2 12.4 41.0 12.0 40.2 C 9.4 36.2 5.8 32.1 2.2 29.4 C 1.6 28.9 1.4 28.4 1.4 27.9 C 1.4 27.0 2.1 26.3 3.0 26.3 C 3.4 26.3 3.8 26.5 4.2 26.8 C 7.4 29.2 10.4 32.4 13.0 35.8 C 15.2 34.1 17.4 32.0 18.9 30.2 C 19.3 29.6 19.9 29.4 20.4 29.4 C 21.2 29.4 22.1 30.1 22.1 31.1 C 22.1 31.5 21.9 32.1 21.5 32.6 C 19.8 34.5 17.2 36.8 14.8 38.4 Z " transform="scale(1,-1)" stroke-dasharray="62.05983202269746" stroke-dashoffset="62.05983202269746"><animate attributeName="stroke-dashoffset" from="62.05983202269746" to="0" dur="1.8617949606809236s" begin="anim2.end" fill="freeze" id="anim3" /></path><path d="M 11.0 24.3 L 11.0 19.9 L 4.0 19.9 C 3.1 19.9 2.7 19.1 2.7 18.4 C 2.7 17.6 3.1 16.9 4.0 16.9 L 11.0 16.9 L 11.0 3.3 C 8.7 2.9 6.4 2.6 4.2 2.4 C 3.2 2.2 2.7 1.5 2.7 0.7 C 2.7 -0.2 3.3 -1.1 4.5 -1.0 C 9.6 -0.4 15.9 0.9 20.6 2.5 C 21.5 2.8 21.9 3.4 21.9 4.0 C 21.9 4.8 21.3 5.5 20.4 5.5 C 20.2 5.5 19.9 5.5 19.7 5.4 C 17.9 4.9 16.1 4.4 14.2 4.0 L 14.2 16.9 L 20.3 16.9 C 21.2 16.9 21.8 17.6 21.8 18.4 C 21.8 19.1 21.2 19.9 20.3 19.9 L 14.2 19.9 L 14.2 24.3 L 17.9 24.3 C 18.9 24.3 19.4 25.1 19.4 25.8 C 19.4 26.6 18.9 27.3 17.9 27.3 L 7.6 27.3 C 6.6 27.3 6.2 26.6 6.2 25.8 C 6.2 25.1 6.6 24.3 7.6 24.3 Z " transform="scale(1,-1)" stroke-dasharray="137.0075132532798" stroke-dashoffset="137.0075132532798"><animate attributeName="stroke-dashoffset" from="137.0075132532798" to="0" dur="4.110225397598394s" begin="anim3.end" fill="freeze" id="anim4" /></path><path d="M 7.0 12.8 C 6.6 13.4 6.0 13.7 5.5 13.7 C 4.6 13.7 3.9 13.1 3.9 12.2 C 3.9 12.0 4.0 11.7 4.2 11.4 C 5.0 10.1 5.7 8.4 6.1 6.8 C 6.3 5.9 7.0 5.5 7.7 5.5 C 8.5 5.5 9.2 6.1 9.2 7.1 C 9.2 7.3 9.2 7.5 9.2 7.7 C 8.8 9.3 7.8 11.5 7.0 12.8 Z " transform="scale(1,-1)" stroke-dasharray="21.001104469319625" stroke-dashoffset="21.001104469319625"><animate attributeName="stroke-dashoffset" from="21.001104469319625" to="0" dur="0.6300331340795887s" begin="anim4.end" fill="freeze" id="anim5" /></path><path d="M 17.9 13.3 C 17.4 11.7 16.8 10.2 16.2 9.0 C 16.0 8.7 15.9 8.3 15.9 8.1 C 15.9 7.2 16.6 6.7 17.2 6.7 C 17.8 6.7 18.4 7.0 18.8 7.8 C 19.5 9.0 20.2 10.8 20.7 12.3 C 20.8 12.6 20.8 12.8 20.8 13.0 C 20.8 13.9 20.1 14.4 19.4 14.4 C 18.8 14.4 18.2 14.1 17.9 13.3 Z" transform="scale(1,-1)" stroke-dasharray="19.57144668644583" stroke-dashoffset="19.57144668644583"><animate attributeName="stroke-dashoffset" from="19.57144668644583" to="0" dur="0.5871434005933749s" begin="anim5.end" fill="freeze" id="anim_end" /></path></g></svg>