<?xml version='1.0' encoding='utf-8'?>
<svg viewBox="0 -44.0 50.0 50.0" version="1.1" xmlns="http://www.w3.org/2000/svg"><rect x="-1000" y="-1000" width="2000" height="2000" stroke="white" fill="white" /><g style="fill:none;stroke:#000000;stroke-width:1"><path d="M 33.9 37.8 C 34.2 38.5 34.6 39.1 34.9 39.7 C 35.0 40.0 35.1 40.2 35.1 40.5 C 35.1 41.3 34.3 41.9 33.6 41.9 C 33.0 41.9 32.4 41.6 32.1 40.9 C 30.8 38.0 28.6 34.8 26.4 32.6 C 26.0 32.2 25.8 31.8 25.8 31.4 C 25.8 30.7 26.5 30.1 27.2 30.1 C 27.7 30.1 28.1 30.2 28.6 30.7 C 29.2 31.2 29.7 31.9 30.3 32.5 C 31.3 31.0 32.5 29.6 33.8 28.3 C 32.0 27.1 29.9 26.1 27.8 25.5 C 26.8 25.2 26.4 24.6 26.4 24.0 C 26.4 23.2 27.0 22.6 28.0 22.6 C 28.2 22.6 28.4 22.6 28.6 22.7 C 31.2 23.4 33.8 24.7 36.1 26.3 C 39.0 24.1 42.4 22.3 45.9 21.2 C 46.1 21.2 46.3 21.2 46.5 21.2 C 47.5 21.2 48.1 22.0 48.1 22.8 C 48.1 23.5 47.7 24.2 46.8 24.5 C 43.8 25.3 41.0 26.7 38.5 28.4 C 40.5 30.2 42.1 32.5 43.2 35.0 L 45.8 35.0 C 46.8 35.0 47.2 35.7 47.2 36.4 C 47.2 37.1 46.8 37.8 45.8 37.8 Z " transform="scale(1,-1)" stroke-dasharray="103.36412494239474" stroke-dashoffset="103.36412494239474"><animate attributeName="stroke-dashoffset" from="103.36412494239474" to="0" dur="3.100923748271842s" begin="0s; 15s; 30s; 45s; 60s" fill="freeze" id="anim0" /></path><path d="M 32.2 35.0 L 39.7 35.0 C 38.9 33.1 37.6 31.6 36.1 30.2 C 34.6 31.5 33.1 33.1 32.1 34.9 Z " transform="scale(1,-1)" stroke-dasharray="19.890488251203212" stroke-dashoffset="19.890488251203212"><animate attributeName="stroke-dashoffset" from="19.890488251203212" to="0" dur="0.5967146475360964s" begin="anim0.end" fill="freeze" id="anim1" /></path><path d="M 13.5 22.5 C 14.5 22.5 15.6 22.6 16.2 23.5 C 16.4 23.0 16.9 22.7 17.4 22.6 C 18.2 22.4 18.9 22.4 19.6 22.4 C 21.8 22.4 23.0 23.2 23.8 25.4 C 24.2 26.9 24.5 29.0 24.5 30.7 C 24.5 32.8 23.4 33.8 20.5 33.8 L 10.5 33.8 C 10.7 34.0 10.7 34.3 10.7 34.6 C 10.7 34.7 10.7 34.9 10.7 35.0 C 10.9 34.8 11.2 34.7 11.6 34.7 C 12.4 34.7 13.1 35.2 13.1 36.1 L 13.1 36.9 L 17.9 36.9 L 17.9 36.3 C 17.9 35.4 18.8 34.9 19.5 34.9 C 20.3 34.9 21.1 35.4 21.1 36.3 L 21.1 36.9 L 26.6 36.9 C 27.5 36.9 28.0 37.5 28.0 38.2 C 28.0 38.9 27.5 39.5 26.6 39.5 L 21.1 39.5 L 21.1 40.7 C 21.1 41.7 20.3 42.2 19.5 42.2 C 18.8 42.2 17.9 41.7 17.9 40.7 L 17.9 39.5 L 13.1 39.5 L 13.1 40.7 C 13.1 41.7 12.4 42.2 11.6 42.2 C 10.8 42.2 10.0 41.7 10.0 40.7 L 10.0 39.5 L 3.9 39.5 C 3.0 39.5 2.6 38.9 2.6 38.2 C 2.6 37.5 3.0 36.9 3.9 36.9 L 10.0 36.9 L 10.0 36.1 C 10.0 36.0 10.1 35.8 10.1 35.6 C 9.9 35.8 9.6 35.9 9.2 35.9 C 8.7 35.9 8.2 35.6 7.8 35.1 C 6.5 32.9 4.5 30.5 2.6 29.0 C 2.1 28.5 1.8 28.0 1.8 27.6 C 1.8 26.9 2.4 26.3 3.2 26.3 C 3.6 26.3 4.1 26.5 4.6 26.9 C 5.9 28.0 7.5 29.6 8.8 31.2 L 19.8 31.2 C 21.0 31.2 21.3 31.0 21.3 30.2 C 21.3 29.1 21.2 27.8 20.7 26.4 C 20.4 25.5 20.1 25.2 19.5 25.2 C 18.9 25.2 18.4 25.3 17.9 25.4 C 17.4 25.5 17.0 25.4 16.7 25.2 L 16.7 26.9 C 16.7 28.6 15.8 29.5 13.5 29.5 L 9.6 29.5 C 7.3 29.5 6.4 28.6 6.4 26.9 L 6.4 25.0 C 6.5 23.0 7.8 22.5 9.6 22.5 Z " transform="scale(1,-1)" stroke-dasharray="171.218155638839" stroke-dashoffset="171.218155638839"><animate attributeName="stroke-dashoffset" from="171.218155638839" to="0" dur="5.136544669165169s" begin="anim1.end" fill="freeze" id="anim2" /></path><path d="M 10.1 24.7 C 9.2 24.7 9.0 24.8 9.0 25.5 L 9.0 26.4 C 9.0 27.1 9.2 27.2 10.1 27.2 L 13.1 27.2 C 13.9 27.2 14.1 27.1 14.1 26.4 L 14.1 25.5 C 14.1 24.7 13.8 24.7 13.1 24.7 Z " transform="scale(1,-1)" stroke-dasharray="14.159380906293444" stroke-dashoffset="14.159380906293444"><animate attributeName="stroke-dashoffset" from="14.159380906293444" to="0" dur="0.4247814271888033s" begin="anim2.end" fill="freeze" id="anim3" /></path><path d="M 27.0 7.5 L 27.0 9.8 L 38.1 9.8 C 39.1 9.8 39.5 10.4 39.5 11.0 C 39.5 11.6 39.1 12.2 38.1 12.2 L 27.0 12.2 L 27.0 14.3 L 38.1 14.3 C 39.0 14.3 39.5 14.9 39.5 15.6 C 39.5 16.2 39.0 16.8 38.1 16.8 L 27.0 16.8 L 27.0 18.9 L 40.8 18.9 C 41.7 18.9 42.2 19.6 42.2 20.2 C 42.2 20.9 41.7 21.5 40.8 21.5 L 15.5 21.5 C 12.0 21.5 10.6 20.2 10.6 17.8 L 10.6 8.3 C 10.6 5.9 12.0 5.0 15.2 5.0 L 32.1 5.0 C 31.8 4.8 31.5 4.5 31.5 4.0 C 31.5 3.7 31.6 3.4 31.9 3.1 C 32.5 2.3 33.1 1.5 33.6 0.6 C 34.0 0.0 34.6 -0.2 35.0 -0.2 C 35.8 -0.2 36.5 0.3 36.5 1.1 C 36.5 1.4 36.4 1.7 36.1 2.0 C 35.6 3.0 34.9 3.8 34.1 4.6 C 33.9 4.8 33.7 4.9 33.5 5.0 L 39.3 5.0 C 40.8 5.0 41.2 4.7 41.2 3.7 C 41.1 2.5 40.9 1.5 40.5 0.3 C 40.1 -0.9 39.6 -1.2 38.4 -1.2 C 37.6 -1.2 36.9 -1.2 36.1 -1.0 C 34.9 -0.7 34.2 -1.5 34.2 -2.3 C 34.2 -3.0 34.6 -3.7 35.6 -3.9 C 36.5 -4.0 37.5 -4.2 38.5 -4.2 C 41.4 -4.2 43.1 -3.2 43.9 -0.6 C 44.2 0.6 44.5 2.1 44.7 3.9 C 44.9 6.1 43.8 7.5 39.9 7.5 Z " transform="scale(1,-1)" stroke-dasharray="213.41518745664172" stroke-dashoffset="213.41518745664172"><animate attributeName="stroke-dashoffset" from="213.41518745664172" to="0" dur="6.402455623699251s" begin="anim3.end" fill="freeze" id="anim4" /></path><path d="M 14.0 12.2 L 14.0 14.3 L 23.8 14.3 L 23.8 12.2 Z " transform="scale(1,-1)" stroke-dasharray="23.800000000000004" stroke-dashoffset="23.800000000000004"><animate attributeName="stroke-dashoffset" from="23.800000000000004" to="0" dur="0.7140000000000001s" begin="anim4.end" fill="freeze" id="anim5" /></path><path d="M 14.0 9.8 L 23.8 9.8 L 23.8 7.5 L 16.0 7.5 C 14.3 7.5 14.0 7.8 14.0 8.8 Z " transform="scale(1,-1)" stroke-dasharray="23.716464895113457" stroke-dashoffset="23.716464895113457"><animate attributeName="stroke-dashoffset" from="23.716464895113457" to="0" dur="0.7114939468534037s" begin="anim5.end" fill="freeze" id="anim6" /></path><path d="M 23.8 18.9 L 23.8 16.8 L 14.0 16.8 L 14.0 17.7 C 14.0 18.7 14.3 18.9 16.0 18.9 Z " transform="scale(1,-1)" stroke-dasharray="23.362062789587277" stroke-dashoffset="23.362062789587277"><animate attributeName="stroke-dashoffset" from="23.362062789587277" to="0" dur="0.7008618836876183s" begin="anim6.end" fill="freeze" id="anim7" /></path><path d="M 7.1 3.7 C 6.4 1.9 5.6 0.2 4.5 -1.2 C 4.2 -1.7 4.0 -2.1 4.0 -2.4 C 4.0 -3.2 4.8 -3.9 5.7 -3.9 C 6.3 -3.9 7.0 -3.6 7.5 -2.9 C 8.4 -1.5 9.5 0.6 10.2 2.7 C 10.3 2.9 10.3 3.1 10.3 3.3 C 10.3 4.2 9.6 4.8 8.8 4.8 C 8.1 4.8 7.5 4.5 7.1 3.7 Z " transform="scale(1,-1)" stroke-dasharray="22.880564746171796" stroke-dashoffset="22.880564746171796"><animate attributeName="stroke-dashoffset" from="22.880564746171796" to="0" dur="0.6864169423851538s" begin="anim7.end" fill="freeze" id="anim8" /></path><path d="M 17.4 3.2 C 17.0 3.9 16.4 4.1 15.9 4.1 C 15.1 4.1 14.4 3.6 14.4 2.8 C 14.4 2.6 14.4 2.3 14.6 2.1 C 15.2 0.9 15.6 -0.4 16.0 -1.8 C 16.2 -2.7 16.9 -3.1 17.6 -3.1 C 18.4 -3.1 19.3 -2.5 19.3 -1.5 C 19.3 -1.3 19.2 -1.1 19.2 -0.9 C 18.8 0.5 18.1 2.0 17.4 3.2 Z " transform="scale(1,-1)" stroke-dasharray="18.885013959892554" stroke-dashoffset="18.885013959892554"><animate attributeName="stroke-dashoffset" from="18.885013959892554" to="0" dur="0.5665504187967766s" begin="anim8.end" fill="freeze" id="anim9" /></path><path d="M 25.9 3.8 C 25.5 4.3 24.9 4.5 24.4 4.5 C 23.7 4.5 23.0 4.0 23.0 3.4 C 23.0 3.1 23.1 2.8 23.3 2.5 C 24.0 1.4 24.5 0.4 25.0 -0.9 C 25.3 -1.6 25.9 -2.0 26.5 -2.0 C 27.3 -2.0 28.1 -1.4 28.1 -0.4 C 28.1 -0.2 28.0 0.1 27.9 0.4 C 27.4 1.6 26.6 2.8 25.9 3.8 Z" transform="scale(1,-1)" stroke-dasharray="17.70895799882041" stroke-dashoffset="17.70895799882041"><animate attributeName="stroke-dashoffset" from="17.70895799882041" to="0" dur="0.5312687399646122s" begin="anim9.end" fill="freeze" id="anim_end" /></path></g></svg>