<?xml version='1.0' encoding='utf-8'?>
<svg viewBox="0 -44.0 50.0 50.0" version="1.1" xmlns="http://www.w3.org/2000/svg"><rect x="-1000" y="-1000" width="2000" height="2000" stroke="white" fill="white" /><g style="fill:none;stroke:#000000;stroke-width:1"><path d="M 32.7 12.4 L 32.7 8.1 L 23.7 8.1 C 22.8 8.1 22.2 7.4 22.2 6.6 C 22.2 5.8 22.8 5.0 23.7 5.0 L 32.7 5.0 L 32.7 -2.5 C 32.7 -3.5 33.6 -4.0 34.4 -4.0 C 35.2 -4.0 36.0 -3.5 36.0 -2.5 L 36.0 5.0 L 46.6 5.0 C 47.6 5.0 48.1 5.8 48.1 6.6 C 48.1 7.4 47.6 8.1 46.6 8.1 L 36.0 8.1 L 36.0 12.4 L 40.1 12.4 C 44.0 12.4 45.5 13.7 45.5 16.7 L 45.5 25.4 C 45.5 28.6 43.8 29.6 40.8 29.7 C 42.2 32.1 43.6 34.9 45.1 38.3 C 45.2 38.6 45.2 38.8 45.2 39.0 C 45.2 39.9 44.4 40.5 43.5 40.5 C 42.8 40.5 42.2 40.2 41.8 39.2 C 40.6 36.0 39.1 32.8 37.5 29.7 L 29.1 29.7 C 25.2 29.7 23.7 28.4 23.7 25.4 L 23.7 16.7 C 23.7 13.1 25.9 12.4 29.1 12.4 Z " transform="scale(1,-1)" stroke-dasharray="167.85989490847442" stroke-dashoffset="167.85989490847442"><animate attributeName="stroke-dashoffset" from="167.85989490847442" to="0" dur="5.0357968472542325s" begin="0s; 15s; 30s; 45s; 60s" fill="freeze" id="anim0" /></path><path d="M 29.4 15.2 C 27.5 15.2 27.0 15.8 27.0 17.2 L 27.0 19.7 L 32.7 19.7 L 32.7 15.2 Z " transform="scale(1,-1)" stroke-dasharray="19.663137032710488" stroke-dashoffset="19.663137032710488"><animate attributeName="stroke-dashoffset" from="19.663137032710488" to="0" dur="0.5898941109813146s" begin="anim0.end" fill="freeze" id="anim1" /></path><path d="M 36.0 15.2 L 36.0 19.7 L 42.2 19.7 L 42.2 17.2 C 42.2 15.5 41.2 15.3 39.8 15.2 Z " transform="scale(1,-1)" stroke-dasharray="20.605684464003037" stroke-dashoffset="20.605684464003037"><animate attributeName="stroke-dashoffset" from="20.605684464003037" to="0" dur="0.6181705339200911s" begin="anim1.end" fill="freeze" id="anim2" /></path><path d="M 42.2 22.6 L 36.0 22.6 L 36.0 26.8 L 39.8 26.8 C 41.7 26.8 42.2 26.3 42.2 24.9 Z " transform="scale(1,-1)" stroke-dasharray="20.102250617974867" stroke-dashoffset="20.102250617974867"><animate attributeName="stroke-dashoffset" from="20.102250617974867" to="0" dur="0.603067518539246s" begin="anim2.end" fill="freeze" id="anim3" /></path><path d="M 32.7 26.8 L 32.7 22.6 L 27.0 22.6 L 27.0 24.9 C 27.0 26.3 27.5 26.8 29.4 26.8 Z " transform="scale(1,-1)" stroke-dasharray="19.102250617974864" stroke-dashoffset="19.102250617974864"><animate attributeName="stroke-dashoffset" from="19.102250617974864" to="0" dur="0.5730675185392459s" begin="anim3.end" fill="freeze" id="anim4" /></path><path d="M 13.9 16.5 L 13.9 22.0 L 18.4 22.0 C 19.2 22.0 19.7 22.7 19.7 23.4 C 19.7 24.0 19.2 24.7 18.4 24.7 L 13.9 24.7 L 13.9 29.4 L 18.4 29.4 C 19.2 29.4 19.7 30.1 19.7 30.8 C 19.7 31.4 19.2 32.1 18.4 32.1 L 13.9 32.1 L 13.9 36.9 L 19.3 36.9 C 20.2 36.9 20.7 37.6 20.7 38.4 C 20.7 39.1 20.2 39.8 19.3 39.8 L 8.2 39.8 C 4.9 39.8 3.6 38.5 3.6 35.5 L 3.6 17.6 C 3.6 14.8 4.8 13.7 7.9 13.7 L 16.1 13.7 C 17.8 13.7 18.1 13.2 18.1 12.2 C 18.0 8.8 17.6 5.0 16.8 2.5 C 16.3 0.8 15.5 0.2 14.1 0.2 C 13.2 0.2 12.5 0.2 12.0 0.4 C 10.8 0.6 10.1 -0.3 10.1 -1.2 C 10.1 -2.0 10.5 -2.7 11.4 -2.9 C 12.2 -3.1 13.1 -3.2 14.2 -3.2 C 16.9 -3.2 18.8 -2.1 19.8 1.5 C 20.6 4.5 21.1 8.4 21.2 12.4 C 21.2 14.9 20.1 16.5 16.8 16.5 Z " transform="scale(1,-1)" stroke-dasharray="158.1342073934812" stroke-dashoffset="158.1342073934812"><animate attributeName="stroke-dashoffset" from="158.1342073934812" to="0" dur="4.744026221804436s" begin="anim4.end" fill="freeze" id="anim5" /></path><path d="M 6.8 24.7 L 6.8 29.4 L 11.0 29.4 L 11.0 24.7 Z " transform="scale(1,-1)" stroke-dasharray="17.799999999999997" stroke-dashoffset="17.799999999999997"><animate attributeName="stroke-dashoffset" from="17.799999999999997" to="0" dur="0.5339999999999999s" begin="anim5.end" fill="freeze" id="anim6" /></path><path d="M 6.8 22.0 L 11.0 22.0 L 11.0 16.5 L 8.5 16.5 C 7.2 16.5 6.8 16.9 6.8 18.2 Z " transform="scale(1,-1)" stroke-dasharray="18.842124447450253" stroke-dashoffset="18.842124447450253"><animate attributeName="stroke-dashoffset" from="18.842124447450253" to="0" dur="0.5652637334235076s" begin="anim6.end" fill="freeze" id="anim7" /></path><path d="M 11.0 36.9 L 11.0 32.1 L 6.8 32.1 L 6.8 34.9 C 6.8 36.4 7.2 36.9 8.8 36.9 Z " transform="scale(1,-1)" stroke-dasharray="17.35453212776746" stroke-dashoffset="17.35453212776746"><animate attributeName="stroke-dashoffset" from="17.35453212776746" to="0" dur="0.5206359638330238s" begin="anim7.end" fill="freeze" id="anim8" /></path><path d="M 31.1 38.8 C 31.9 37.4 32.5 35.9 33.0 34.1 C 33.3 33.1 34.0 32.8 34.6 32.8 C 35.5 32.8 36.4 33.5 36.4 34.6 C 36.4 34.8 36.4 35.0 36.3 35.2 C 35.8 37.0 35.0 38.8 34.1 40.2 C 33.7 40.9 33.0 41.2 32.4 41.2 C 31.6 41.2 30.8 40.7 30.8 39.8 C 30.8 39.5 30.9 39.2 31.1 38.8 Z " transform="scale(1,-1)" stroke-dasharray="21.730035592698314" stroke-dashoffset="21.730035592698314"><animate attributeName="stroke-dashoffset" from="21.730035592698314" to="0" dur="0.6519010677809494s" begin="anim8.end" fill="freeze" id="anim9" /></path><path d="M 23.5 37.2 C 24.2 35.9 25.0 34.5 25.6 33.0 C 26.0 32.0 26.6 31.6 27.2 31.6 C 28.1 31.6 29.0 32.4 29.0 33.4 C 29.0 33.6 28.9 34.0 28.8 34.3 C 28.1 35.9 27.1 37.6 26.4 38.9 C 25.9 39.6 25.2 39.9 24.7 39.9 C 23.8 39.9 23.1 39.2 23.1 38.4 C 23.1 38.0 23.2 37.6 23.5 37.2 Z " transform="scale(1,-1)" stroke-dasharray="21.649859850363637" stroke-dashoffset="21.649859850363637"><animate attributeName="stroke-dashoffset" from="21.649859850363637" to="0" dur="0.6494957955109091s" begin="anim9.end" fill="freeze" id="anim10" /></path><path d="M 2.9 8.5 C 2.6 6.2 2.1 4.0 1.5 2.0 C 1.4 1.8 1.4 1.5 1.4 1.4 C 1.4 0.6 2.0 0.1 2.6 0.1 C 3.2 0.1 3.8 0.4 4.0 1.2 C 4.8 3.1 5.2 5.9 5.5 8.2 C 5.6 9.2 4.9 9.7 4.2 9.7 C 3.6 9.7 2.9 9.3 2.9 8.5 Z " transform="scale(1,-1)" stroke-dasharray="22.591130024755234" stroke-dashoffset="22.591130024755234"><animate attributeName="stroke-dashoffset" from="22.591130024755234" to="0" dur="0.677733900742657s" begin="anim10.end" fill="freeze" id="anim11" /></path><path d="M 8.7 9.2 C 8.5 9.8 8.0 10.1 7.4 10.1 C 6.8 10.1 6.1 9.6 6.3 8.6 C 6.6 7.4 6.9 5.2 7.0 3.4 C 7.0 2.6 7.6 2.1 8.2 2.1 C 8.9 2.1 9.7 2.8 9.6 3.9 C 9.5 5.6 9.1 8.0 8.7 9.2 Z " transform="scale(1,-1)" stroke-dasharray="19.016737946383415" stroke-dashoffset="19.016737946383415"><animate attributeName="stroke-dashoffset" from="19.016737946383415" to="0" dur="0.5705021383915024s" begin="anim11.end" fill="freeze" id="anim12" /></path><path d="M 12.0 10.2 C 11.7 10.8 11.2 11.0 10.8 11.0 C 10.2 11.0 9.7 10.6 9.7 10.0 C 9.7 9.8 9.7 9.6 9.8 9.3 C 10.3 8.2 10.8 6.8 11.2 5.3 C 11.4 4.5 11.9 4.2 12.4 4.2 C 13.1 4.2 13.7 4.7 13.7 5.6 C 13.7 5.8 13.7 6.0 13.6 6.2 C 13.2 7.7 12.6 9.1 12.0 10.2 Z " transform="scale(1,-1)" stroke-dasharray="16.97994640560643" stroke-dashoffset="16.97994640560643"><animate attributeName="stroke-dashoffset" from="16.97994640560643" to="0" dur="0.5093983921681929s" begin="anim12.end" fill="freeze" id="anim13" /></path><path d="M 15.0 11.6 C 14.7 12.0 14.3 12.2 14.0 12.2 C 13.4 12.2 13.0 11.8 13.0 11.2 C 13.0 11.0 13.0 10.8 13.2 10.5 C 13.7 9.7 14.3 8.3 14.8 7.2 C 15.0 6.6 15.5 6.2 15.9 6.2 C 16.5 6.2 17.1 6.8 17.1 7.5 C 17.1 7.8 17.0 8.0 16.9 8.2 C 16.5 9.2 15.7 10.7 15.0 11.6 Z" transform="scale(1,-1)" stroke-dasharray="15.370444643503857" stroke-dashoffset="15.370444643503857"><animate attributeName="stroke-dashoffset" from="15.370444643503857" to="0" dur="0.4611133393051157s" begin="anim13.end" fill="freeze" id="anim_end" /></path></g></svg>