<?xml version='1.0' encoding='utf-8'?>
<svg viewBox="0 -44.0 50.0 50.0" version="1.1" xmlns="http://www.w3.org/2000/svg"><rect x="-1000" y="-1000" width="2000" height="2000" stroke="white" fill="white" /><g style="fill:none;stroke:#000000;stroke-width:1"><path d="M 5.1 1.2 C 4.5 1.1 4.0 1.1 3.6 1.0 C 2.5 0.9 1.9 0.2 1.9 -0.6 C 1.9 -1.5 2.6 -2.3 3.8 -2.2 C 10.2 -1.7 18.4 -0.3 24.1 1.2 C 25.0 1.4 25.4 2.1 25.4 2.7 C 25.4 3.5 24.7 4.2 23.5 4.0 C 23.4 3.9 23.2 3.9 23.1 3.9 L 23.1 9.6 C 23.1 12.5 21.9 13.4 18.9 13.4 L 9.2 13.4 C 6.2 13.4 5.1 12.5 5.1 9.6 Z " transform="scale(1,-1)" stroke-dasharray="69.75071113346067" stroke-dashoffset="69.75071113346067"><animate attributeName="stroke-dashoffset" from="69.75071113346067" to="0" dur="2.09252133400382s" begin="0s; 15s; 30s; 45s; 60s" fill="freeze" id="anim0" /></path><path d="M 8.1 9.3 C 8.1 10.4 8.5 10.7 9.2 10.7 L 10.2 10.7 L 10.2 1.7 C 9.5 1.7 8.8 1.6 8.1 1.5 Z " transform="scale(1,-1)" stroke-dasharray="21.974241278595127" stroke-dashoffset="21.974241278595127"><animate attributeName="stroke-dashoffset" from="21.974241278595127" to="0" dur="0.6592272383578538s" begin="anim0.end" fill="freeze" id="anim1" /></path><path d="M 20.1 3.2 C 19.3 3.1 18.6 3.0 17.8 2.9 L 17.8 10.7 L 18.9 10.7 C 19.7 10.7 20.1 10.4 20.1 9.3 Z " transform="scale(1,-1)" stroke-dasharray="19.470784833057596" stroke-dashoffset="19.470784833057596"><animate attributeName="stroke-dashoffset" from="19.470784833057596" to="0" dur="0.5841235449917279s" begin="anim1.end" fill="freeze" id="anim2" /></path><path d="M 15.1 10.7 L 15.1 2.4 C 14.4 2.3 13.7 2.2 12.9 2.1 L 12.9 10.7 Z " transform="scale(1,-1)" stroke-dasharray="21.32039248634737" stroke-dashoffset="21.32039248634737"><animate attributeName="stroke-dashoffset" from="21.32039248634737" to="0" dur="0.6396117745904211s" begin="anim2.end" fill="freeze" id="anim3" /></path><path d="M 31.2 22.8 L 39.9 22.8 C 43.5 22.8 44.9 24.1 44.9 26.8 L 44.9 33.1 C 44.9 35.7 43.5 37.1 39.9 37.1 L 37.2 37.1 C 37.6 38.1 37.9 39.0 38.1 40.0 C 38.3 41.2 37.4 41.9 36.4 41.9 C 35.6 41.9 35.0 41.4 34.8 40.5 C 34.5 39.4 34.2 38.2 33.9 37.1 L 33.0 37.1 C 29.4 37.1 28.0 35.6 28.0 33.0 L 28.0 14.7 C 28.0 12.2 29.1 10.9 32.2 10.9 L 42.9 10.9 C 44.4 10.9 44.8 10.5 44.8 9.3 C 44.8 7.0 44.2 3.7 43.7 1.9 C 43.2 0.2 42.3 -0.4 41.0 -0.4 C 40.4 -0.4 39.6 -0.2 38.7 -0.1 C 37.6 0.2 36.9 -0.7 36.9 -1.6 C 36.9 -2.4 37.4 -3.1 38.4 -3.3 C 39.2 -3.5 40.2 -3.6 41.2 -3.6 C 44.1 -3.6 45.8 -2.3 46.8 0.9 C 47.6 3.2 48.0 6.7 48.1 9.5 C 48.2 12.2 47.1 13.8 43.7 13.8 L 32.8 13.8 C 31.7 13.8 31.2 14.2 31.2 15.1 L 31.2 16.9 L 47.2 16.9 C 48.1 16.9 48.6 17.7 48.6 18.4 C 48.6 19.1 48.1 19.8 47.2 19.8 L 31.2 19.8 Z " transform="scale(1,-1)" stroke-dasharray="191.11064528912948" stroke-dashoffset="191.11064528912948"><animate attributeName="stroke-dashoffset" from="191.11064528912948" to="0" dur="5.733319358673884s" begin="anim3.end" fill="freeze" id="anim4" /></path><path d="M 31.2 25.6 L 31.2 28.7 L 41.7 28.7 L 41.7 27.2 C 41.6 25.7 40.6 25.6 39.3 25.6 Z " transform="scale(1,-1)" stroke-dasharray="26.51741542253172" stroke-dashoffset="26.51741542253172"><animate attributeName="stroke-dashoffset" from="26.51741542253172" to="0" dur="0.7955224626759515s" begin="anim4.end" fill="freeze" id="anim5" /></path><path d="M 41.7 31.2 L 31.2 31.2 L 31.2 32.6 C 31.2 33.9 31.8 34.3 33.6 34.3 L 39.3 34.3 C 41.1 34.3 41.7 33.9 41.7 32.6 Z " transform="scale(1,-1)" stroke-dasharray="25.870495880554884" stroke-dashoffset="25.870495880554884"><animate attributeName="stroke-dashoffset" from="25.870495880554884" to="0" dur="0.7761148764166464s" begin="anim5.end" fill="freeze" id="anim6" /></path><path d="M 12.1 40.1 C 11.1 40.1 10.6 39.4 10.6 38.6 C 10.6 37.9 11.1 37.1 12.1 37.1 L 15.6 37.1 C 16.6 37.1 17.0 37.0 17.5 36.0 C 18.8 33.6 21.5 30.5 23.5 29.0 C 23.9 28.7 24.4 28.5 24.8 28.5 C 25.8 28.5 26.5 29.3 26.5 30.2 C 26.5 30.7 26.2 31.2 25.7 31.7 C 23.6 33.1 21.5 35.5 20.4 37.5 C 19.2 39.5 18.2 40.1 15.8 40.1 Z " transform="scale(1,-1)" stroke-dasharray="42.99776467847085" stroke-dashoffset="42.99776467847085"><animate attributeName="stroke-dashoffset" from="42.99776467847085" to="0" dur="1.2899329403541255s" begin="anim6.end" fill="freeze" id="anim7" /></path><path d="M 6.6 36.9 C 5.5 34.8 3.8 32.4 2.1 30.6 C 1.7 30.2 1.5 29.8 1.5 29.4 C 1.5 28.6 2.1 27.9 3.0 27.9 C 3.4 27.9 4.0 28.1 4.5 28.7 C 6.2 30.5 8.2 33.2 9.5 35.6 C 9.7 35.9 9.8 36.1 9.8 36.4 C 9.8 37.3 9.0 37.9 8.2 37.9 C 7.6 37.9 7.0 37.6 6.6 36.9 Z " transform="scale(1,-1)" stroke-dasharray="27.088340567397818" stroke-dashoffset="27.088340567397818"><animate attributeName="stroke-dashoffset" from="27.088340567397818" to="0" dur="0.8126502170219345s" begin="anim7.end" fill="freeze" id="anim8" /></path><path d="M 12.2 24.5 C 11.2 24.5 10.8 23.8 10.8 23.0 C 10.8 22.3 11.2 21.6 12.2 21.6 L 15.9 21.6 C 17.0 21.6 17.4 21.4 18.1 20.4 C 19.4 18.2 21.8 15.6 23.6 14.1 C 24.0 13.8 24.5 13.6 24.9 13.6 C 25.8 13.6 26.6 14.4 26.6 15.2 C 26.6 15.8 26.3 16.3 25.7 16.8 C 24.1 18.0 21.8 20.3 20.6 22.2 C 19.5 23.9 18.6 24.5 16.6 24.5 Z " transform="scale(1,-1)" stroke-dasharray="41.945192991081505" stroke-dashoffset="41.945192991081505"><animate attributeName="stroke-dashoffset" from="41.945192991081505" to="0" dur="1.258355789732445s" begin="anim8.end" fill="freeze" id="anim9" /></path><path d="M 7.0 21.7 C 5.6 19.1 3.8 16.7 2.1 15.1 C 1.6 14.6 1.4 14.1 1.4 13.7 C 1.4 12.9 2.0 12.2 2.8 12.2 C 3.2 12.2 3.7 12.4 4.1 12.8 C 6.1 14.6 8.3 17.4 9.8 20.2 C 9.9 20.5 10.0 20.8 10.0 21.1 C 10.0 22.0 9.2 22.6 8.4 22.6 C 7.9 22.6 7.3 22.3 7.0 21.7 Z " transform="scale(1,-1)" stroke-dasharray="28.09592152407003" stroke-dashoffset="28.09592152407003"><animate attributeName="stroke-dashoffset" from="28.09592152407003" to="0" dur="0.8428776457221009s" begin="anim9.end" fill="freeze" id="anim10" /></path><path d="M 26.9 6.6 C 26.7 4.5 26.2 2.3 25.6 0.4 C 25.5 0.2 25.5 -0.1 25.5 -0.2 C 25.5 -1.1 26.1 -1.6 26.9 -1.6 C 27.5 -1.6 28.2 -1.2 28.5 -0.4 C 29.1 1.4 29.7 4.2 29.8 6.3 C 29.9 7.4 29.1 7.9 28.3 7.9 C 27.7 7.9 27.0 7.5 26.9 6.6 Z " transform="scale(1,-1)" stroke-dasharray="22.77270048094907" stroke-dashoffset="22.77270048094907"><animate attributeName="stroke-dashoffset" from="22.77270048094907" to="0" dur="0.683181014428472s" begin="anim10.end" fill="freeze" id="anim11" /></path><path d="M 33.3 7.2 C 33.1 7.8 32.5 8.1 32.0 8.1 C 31.3 8.1 30.7 7.7 30.7 6.9 C 30.7 6.7 30.8 6.6 30.8 6.4 C 31.2 5.2 31.6 3.7 31.9 1.9 C 32.0 1.1 32.6 0.6 33.2 0.6 C 34.1 0.6 35.0 1.3 34.7 2.6 C 34.5 3.9 33.8 6.0 33.3 7.2 Z " transform="scale(1,-1)" stroke-dasharray="18.57614886106437" stroke-dashoffset="18.57614886106437"><animate attributeName="stroke-dashoffset" from="18.57614886106437" to="0" dur="0.5572844658319311s" begin="anim11.end" fill="freeze" id="anim12" /></path><path d="M 40.8 9.6 C 40.5 9.9 40.2 10.0 39.8 10.0 C 39.2 10.0 38.6 9.6 38.6 9.0 C 38.6 8.7 38.7 8.4 38.9 8.1 C 39.6 7.2 40.3 6.1 40.9 5.0 C 41.2 4.4 41.7 4.2 42.1 4.2 C 42.8 4.2 43.4 4.7 43.4 5.5 C 43.4 5.8 43.3 6.1 43.1 6.5 C 42.6 7.3 41.7 8.7 40.8 9.6 Z " transform="scale(1,-1)" stroke-dasharray="15.996876524503977" stroke-dashoffset="15.996876524503977"><animate attributeName="stroke-dashoffset" from="15.996876524503977" to="0" dur="0.4799062957351193s" begin="anim12.end" fill="freeze" id="anim13" /></path><path d="M 18.1 28.2 C 19.1 28.2 19.6 29.0 19.6 29.7 C 19.6 30.4 19.1 31.1 18.1 31.1 L 9.4 31.1 C 8.5 31.1 8.0 30.4 8.0 29.7 C 8.0 29.0 8.5 28.2 9.4 28.2 Z " transform="scale(1,-1)" stroke-dasharray="26.56280813580342" stroke-dashoffset="26.56280813580342"><animate attributeName="stroke-dashoffset" from="26.56280813580342" to="0" dur="0.7968842440741025s" begin="anim13.end" fill="freeze" id="anim14" /></path><path d="M 37.1 8.2 C 36.8 8.8 36.3 9.0 35.9 9.0 C 35.2 9.0 34.6 8.5 34.6 7.8 C 34.6 7.6 34.7 7.3 34.9 7.1 C 35.5 5.9 36.1 4.7 36.6 3.4 C 36.9 2.7 37.4 2.4 37.9 2.4 C 38.6 2.4 39.3 2.9 39.3 3.8 C 39.3 4.0 39.2 4.2 39.2 4.5 C 38.7 5.6 37.9 7.2 37.1 8.2 Z" transform="scale(1,-1)" stroke-dasharray="17.270775575997796" stroke-dashoffset="17.270775575997796"><animate attributeName="stroke-dashoffset" from="17.270775575997796" to="0" dur="0.5181232672799339s" begin="anim14.end" fill="freeze" id="anim_end" /></path></g></svg>