<?xml version='1.0' encoding='utf-8'?>
<svg viewBox="0 -44.0 50.0 50.0" version="1.1" xmlns="http://www.w3.org/2000/svg"><rect x="-1000" y="-1000" width="2000" height="2000" stroke="white" fill="white" /><g style="fill:none;stroke:#000000;stroke-width:1"><path d="M 34.1 21.6 L 38.9 21.6 C 42.7 21.6 44.4 23.1 44.4 26.2 L 44.4 35.1 C 44.4 38.2 42.7 39.8 38.9 39.8 L 26.5 39.8 C 22.7 39.8 21.0 38.5 21.0 35.4 L 21.0 26.4 C 21.1 22.8 23.2 21.6 26.5 21.6 L 30.7 21.6 L 30.7 17.4 L 24.4 17.4 C 20.4 17.4 18.9 15.9 18.9 12.9 L 18.9 -2.1 C 18.9 -3.2 19.8 -3.7 20.7 -3.7 C 21.6 -3.7 22.4 -3.2 22.4 -2.1 L 22.4 12.2 C 22.4 13.8 23.1 14.5 25.2 14.5 L 30.7 14.5 L 30.7 8.1 C 29.1 7.9 27.5 7.8 25.8 7.6 C 24.8 7.5 24.2 6.8 24.2 6.0 C 24.2 5.1 25.0 4.2 26.1 4.3 C 30.5 4.8 34.3 5.5 38.4 6.5 C 38.6 6.0 38.8 5.5 38.9 5.1 C 39.2 4.2 39.8 3.8 40.4 3.8 C 41.2 3.8 42.0 4.4 42.0 5.4 C 42.0 5.6 41.9 5.9 41.8 6.1 C 41.2 7.9 39.9 10.5 38.9 11.9 C 38.5 12.5 37.9 12.7 37.4 12.7 C 36.7 12.7 36.1 12.2 36.1 11.5 C 36.1 11.2 36.1 10.9 36.4 10.6 C 36.7 10.1 37.0 9.6 37.3 9.0 C 36.2 8.8 35.1 8.7 34.1 8.5 L 34.1 14.5 L 40.2 14.5 C 42.3 14.5 43.0 13.8 43.0 12.2 L 43.0 2.1 C 43.0 0.7 42.4 0.2 41.2 0.2 C 40.6 0.2 39.9 0.2 39.2 0.4 C 37.9 0.6 37.1 -0.2 37.1 -1.2 C 37.1 -1.9 37.6 -2.7 38.7 -2.9 C 39.5 -3.1 40.3 -3.2 41.4 -3.2 C 44.6 -3.2 46.4 -1.8 46.4 1.8 L 46.4 12.9 C 46.4 15.9 44.9 17.4 41.0 17.4 L 34.1 17.4 Z " transform="scale(1,-1)" stroke-dasharray="266.00522846355136" stroke-dashoffset="266.00522846355136"><animate attributeName="stroke-dashoffset" from="266.00522846355136" to="0" dur="7.98015685390654s" begin="0s; 15s; 30s; 45s; 60s" fill="freeze" id="anim0" /></path><path d="M 34.1 29.4 L 40.9 29.4 L 40.9 26.7 C 40.9 24.7 40.0 24.6 38.2 24.5 L 34.1 24.5 Z " transform="scale(1,-1)" stroke-dasharray="22.604368574244575" stroke-dashoffset="22.604368574244575"><animate attributeName="stroke-dashoffset" from="22.604368574244575" to="0" dur="0.6781310572273372s" begin="anim0.end" fill="freeze" id="anim1" /></path><path d="M 30.7 29.4 L 30.7 24.5 L 27.1 24.5 C 25.0 24.5 24.4 25.0 24.4 26.7 L 24.4 29.4 Z " transform="scale(1,-1)" stroke-dasharray="21.615831624371538" stroke-dashoffset="21.615831624371538"><animate attributeName="stroke-dashoffset" from="21.615831624371538" to="0" dur="0.6484749487311461s" begin="anim1.end" fill="freeze" id="anim2" /></path><path d="M 34.1 36.9 L 38.2 36.9 C 40.4 36.9 40.9 36.4 40.9 34.7 L 40.9 32.2 L 34.1 32.2 Z " transform="scale(1,-1)" stroke-dasharray="22.23977068414407" stroke-dashoffset="22.23977068414407"><animate attributeName="stroke-dashoffset" from="22.23977068414407" to="0" dur="0.667193120524322s" begin="anim2.end" fill="freeze" id="anim3" /></path><path d="M 30.7 36.9 L 30.7 32.2 L 24.4 32.2 L 24.4 34.7 C 24.4 36.4 25.0 36.9 27.1 36.9 Z " transform="scale(1,-1)" stroke-dasharray="21.215831624371532" stroke-dashoffset="21.215831624371532"><animate attributeName="stroke-dashoffset" from="21.215831624371532" to="0" dur="0.636474948731146s" begin="anim3.end" fill="freeze" id="anim4" /></path><path d="M 8.7 40.2 C 5.2 40.2 4.1 38.8 4.1 35.6 L 4.1 -2.5 C 4.1 -3.5 5.0 -4.0 5.9 -4.0 C 6.8 -4.0 7.6 -3.5 7.6 -2.5 L 7.6 35.1 C 7.6 36.5 8.0 37.1 9.2 37.1 L 12.5 37.1 C 13.3 37.1 13.8 36.8 13.8 36.1 C 13.8 35.8 13.8 35.6 13.7 35.2 C 12.8 32.1 11.2 28.5 9.8 26.0 C 9.3 25.4 9.2 24.8 9.2 24.2 C 9.2 23.4 9.6 22.7 10.3 21.9 C 12.8 19.2 14.1 16.6 14.1 13.6 C 14.1 10.7 13.1 9.7 11.9 9.7 C 11.2 9.7 10.8 9.8 10.2 9.9 C 9.1 10.2 8.4 9.2 8.4 8.2 C 8.4 7.4 8.8 6.7 9.8 6.5 C 10.5 6.2 11.2 6.2 12.2 6.2 C 15.4 6.2 17.4 8.7 17.4 13.6 C 17.4 17.6 16.2 20.6 12.4 24.2 C 14.2 27.4 15.9 31.2 17.1 34.9 C 17.2 35.6 17.4 36.2 17.4 36.8 C 17.4 39.0 15.9 40.2 13.1 40.2 Z" transform="scale(1,-1)" stroke-dasharray="182.50815046676314" stroke-dashoffset="182.50815046676314"><animate attributeName="stroke-dashoffset" from="182.50815046676314" to="0" dur="5.475244514002894s" begin="anim4.end" fill="freeze" id="anim_end" /></path></g></svg>