<?xml version='1.0' encoding='utf-8'?>
<svg viewBox="0 -44.0 50.0 50.0" version="1.1" xmlns="http://www.w3.org/2000/svg"><rect x="-1000" y="-1000" width="2000" height="2000" stroke="white" fill="white" /><g style="fill:none;stroke:#000000;stroke-width:1"><path d="M 14.0 17.2 L 20.0 17.2 C 20.9 17.2 21.4 17.9 21.4 18.7 C 21.4 19.4 20.9 20.2 20.0 20.2 L 14.0 20.2 L 14.0 24.7 L 17.7 24.7 C 18.6 24.7 19.1 25.4 19.1 26.2 C 19.1 26.9 18.6 27.7 17.7 27.7 L 7.5 27.7 C 6.5 27.7 6.1 26.9 6.1 26.2 C 6.1 25.4 6.5 24.7 7.5 24.7 L 10.8 24.7 L 10.8 20.2 L 4.0 20.2 C 3.1 20.2 2.6 19.4 2.6 18.7 C 2.6 17.9 3.1 17.2 4.0 17.2 L 10.8 17.2 L 10.8 3.8 C 8.4 3.4 6.1 3.0 4.1 2.7 C 3.1 2.6 2.6 1.9 2.6 1.2 C 2.6 0.2 3.4 -0.7 4.5 -0.5 C 9.3 0.2 15.9 1.7 20.3 3.2 C 21.2 3.5 21.6 4.1 21.6 4.7 C 21.6 5.5 21.0 6.2 20.1 6.2 C 19.9 6.2 19.7 6.2 19.5 6.1 C 17.7 5.5 15.9 5.0 14.0 4.5 Z " transform="scale(1,-1)" stroke-dasharray="135.4208609324315" stroke-dashoffset="135.4208609324315"><animate attributeName="stroke-dashoffset" from="135.4208609324315" to="0" dur="4.062625827972945s" begin="0s; 15s; 30s; 45s; 60s" fill="freeze" id="anim0" /></path><path d="M 14.7 38.6 C 15.0 39.0 15.1 39.4 15.1 39.7 C 15.1 40.6 14.2 41.2 13.4 41.2 C 12.8 41.2 12.2 41.0 11.7 40.2 C 9.2 36.3 5.7 32.2 2.1 29.5 C 1.6 29.0 1.3 28.5 1.3 28.0 C 1.3 27.1 2.0 26.4 2.9 26.4 C 3.3 26.4 3.8 26.6 4.2 26.9 C 7.2 29.3 10.2 32.4 12.8 35.8 C 14.9 34.1 17.1 32.1 18.5 30.2 C 18.9 29.7 19.5 29.5 20.0 29.5 C 20.9 29.5 21.7 30.2 21.7 31.2 C 21.7 31.6 21.6 32.1 21.1 32.6 C 19.4 34.6 16.9 36.8 14.6 38.4 Z " transform="scale(1,-1)" stroke-dasharray="61.220404965478195" stroke-dashoffset="61.220404965478195"><animate attributeName="stroke-dashoffset" from="61.220404965478195" to="0" dur="1.8366121489643459s" begin="anim0.end" fill="freeze" id="anim1" /></path><path d="M 35.2 1.7 L 35.2 18.6 L 43.1 18.6 C 44.1 18.6 44.6 19.4 44.6 20.2 C 44.6 21.0 44.1 21.8 43.1 21.8 L 35.2 21.8 L 35.2 35.2 L 45.5 35.2 C 46.5 35.2 47.0 36.0 47.0 36.8 C 47.0 37.6 46.5 38.4 45.5 38.4 L 23.0 38.4 C 22.1 38.4 21.6 37.6 21.6 36.8 C 21.6 36.0 22.1 35.2 23.0 35.2 L 31.7 35.2 L 31.7 21.8 L 25.1 21.8 C 24.1 21.8 23.6 21.0 23.6 20.2 C 23.6 19.4 24.1 18.6 25.1 18.6 L 31.7 18.6 L 31.7 1.7 L 21.2 1.7 C 20.3 1.7 19.8 0.9 19.8 0.1 C 19.8 -0.7 20.3 -1.5 21.2 -1.5 L 46.5 -1.5 C 47.5 -1.5 47.9 -0.7 47.9 0.1 C 47.9 0.9 47.5 1.7 46.5 1.7 Z " transform="scale(1,-1)" stroke-dasharray="207.24310425854546" stroke-dashoffset="207.24310425854546"><animate attributeName="stroke-dashoffset" from="207.24310425854546" to="0" dur="6.2172931277563634s" begin="anim1.end" fill="freeze" id="anim2" /></path><path d="M 41.2 14.0 C 40.8 14.6 40.2 14.9 39.6 14.9 C 38.8 14.9 38.0 14.2 38.0 13.3 C 38.0 12.9 38.1 12.5 38.5 12.1 C 39.4 11.0 40.7 8.9 41.5 7.2 C 41.8 6.4 42.4 6.1 43.1 6.1 C 43.9 6.1 44.8 6.8 44.8 7.9 C 44.8 8.2 44.7 8.5 44.6 8.8 C 43.9 10.5 42.4 12.7 41.2 14.0 Z " transform="scale(1,-1)" stroke-dasharray="23.500209980199813" stroke-dashoffset="23.500209980199813"><animate attributeName="stroke-dashoffset" from="23.500209980199813" to="0" dur="0.7050062994059944s" begin="anim2.end" fill="freeze" id="anim3" /></path><path d="M 6.8 13.3 C 6.4 14.0 5.8 14.2 5.2 14.2 C 4.5 14.2 3.8 13.7 3.8 12.9 C 3.8 12.6 3.8 12.3 4.0 12.0 C 4.8 10.7 5.5 9.0 5.9 7.3 C 6.2 6.4 6.8 6.0 7.5 6.0 C 8.4 6.0 9.3 6.8 9.0 8.2 C 8.6 9.8 7.7 12.0 6.8 13.3 Z " transform="scale(1,-1)" stroke-dasharray="20.970191080378175" stroke-dashoffset="20.970191080378175"><animate attributeName="stroke-dashoffset" from="20.970191080378175" to="0" dur="0.6291057324113453s" begin="anim3.end" fill="freeze" id="anim4" /></path><path d="M 17.6 13.9 C 17.1 12.2 16.5 10.8 15.9 9.5 C 15.7 9.2 15.7 8.9 15.7 8.7 C 15.7 7.9 16.2 7.3 16.9 7.3 C 17.5 7.3 18.1 7.6 18.5 8.3 C 19.2 9.6 19.9 11.4 20.4 12.9 C 20.5 13.1 20.5 13.3 20.5 13.5 C 20.5 14.4 19.8 15.0 19.0 15.0 C 18.4 15.0 17.9 14.6 17.6 13.9 Z" transform="scale(1,-1)" stroke-dasharray="19.456075933192928" stroke-dashoffset="19.456075933192928"><animate attributeName="stroke-dashoffset" from="19.456075933192928" to="0" dur="0.5836822779957878s" begin="anim4.end" fill="freeze" id="anim_end" /></path></g></svg>