<?xml version='1.0' encoding='utf-8'?>
<svg viewBox="0 -44.0 50.0 50.0" version="1.1" xmlns="http://www.w3.org/2000/svg"><rect x="-1000" y="-1000" width="2000" height="2000" stroke="white" fill="white" /><g style="fill:none;stroke:#000000;stroke-width:1"><path d="M 8.8 12.2 L 15.6 12.2 C 18.7 12.2 20.2 13.5 20.2 16.2 L 20.2 23.6 C 20.2 26.4 18.8 27.6 15.8 27.6 L 14.5 27.6 L 14.5 30.7 C 14.5 31.7 13.7 32.1 12.9 32.1 C 12.1 32.1 11.2 31.7 11.2 30.7 L 11.2 27.6 L 10.1 27.6 C 7.0 27.6 5.7 26.4 5.7 23.6 L 5.7 2.1 C 5.0 2.0 4.3 1.9 3.6 1.7 C 2.7 1.5 2.2 0.8 2.2 0.1 C 2.2 -0.9 3.0 -1.8 4.2 -1.6 C 8.3 -0.7 12.5 0.7 16.7 2.5 C 16.8 2.2 16.9 2.1 17.1 1.8 C 17.4 1.0 18.1 0.6 18.7 0.6 C 18.9 0.6 19.2 0.7 19.4 0.8 C 19.1 0.3 18.8 -0.2 18.5 -0.7 C 18.2 -1.0 18.2 -1.4 18.2 -1.7 C 18.2 -2.6 18.9 -3.2 19.8 -3.2 C 20.4 -3.2 21.0 -2.9 21.5 -2.1 C 25.4 3.8 27.6 12.0 27.7 24.6 L 30.0 24.6 C 30.5 21.5 31.2 18.5 32.1 15.6 C 33.0 13.0 34.1 10.6 35.4 8.2 C 32.8 4.7 29.6 1.8 25.9 -0.2 C 25.2 -0.7 24.9 -1.2 24.9 -1.9 C 24.9 -2.7 25.5 -3.5 26.5 -3.5 C 26.8 -3.5 27.1 -3.4 27.4 -3.2 C 31.2 -1.2 34.6 1.8 37.4 5.2 C 39.5 2.2 42.1 -0.5 45.1 -2.7 C 45.6 -3.1 46.1 -3.2 46.5 -3.2 C 47.5 -3.2 48.2 -2.4 48.2 -1.4 C 48.2 -0.8 47.9 -0.1 47.2 0.4 C 44.2 2.6 41.6 5.2 39.5 8.2 C 42.2 12.4 44.1 17.2 45.2 22.5 C 45.3 23.0 45.4 23.4 45.4 23.8 C 45.4 26.1 43.9 27.6 40.7 27.6 L 27.7 27.6 L 27.7 34.1 C 27.7 35.6 28.2 36.2 29.9 36.2 L 45.5 36.2 C 46.5 36.2 47.1 37.1 47.1 37.9 C 47.1 38.7 46.5 39.5 45.5 39.5 L 29.2 39.5 C 25.7 39.5 24.2 38.0 24.2 34.8 L 24.2 26.0 C 24.2 15.2 23.0 8.1 20.4 2.6 C 20.4 2.9 20.2 3.2 20.1 3.5 C 18.9 5.6 16.9 8.4 15.3 10.0 C 14.9 10.4 14.4 10.6 13.9 10.6 C 13.0 10.6 12.2 9.9 12.2 9.1 C 12.2 8.8 12.5 8.3 12.8 8.0 C 13.5 7.2 14.4 6.2 15.2 5.1 C 13.1 4.3 11.0 3.7 8.8 3.0 Z " transform="scale(1,-1)" stroke-dasharray="367.54121551821925" stroke-dashoffset="367.54121551821925"><animate attributeName="stroke-dashoffset" from="367.54121551821925" to="0" dur="11.026236465546576s" begin="0s; 15s; 30s; 45s; 60s" fill="freeze" id="anim0" /></path><path d="M 8.8 15.1 L 8.8 18.7 L 16.9 18.7 L 16.9 16.5 C 16.9 15.2 16.3 15.1 15.2 15.1 Z " transform="scale(1,-1)" stroke-dasharray="22.917872534529867" stroke-dashoffset="22.917872534529867"><animate attributeName="stroke-dashoffset" from="22.917872534529867" to="0" dur="0.687536176035896s" begin="anim0.end" fill="freeze" id="anim1" /></path><path d="M 16.9 21.4 L 8.8 21.4 L 8.8 23.2 C 8.8 24.5 9.3 24.8 10.5 24.8 L 15.2 24.8 C 16.5 24.8 16.9 24.5 16.9 23.2 Z " transform="scale(1,-1)" stroke-dasharray="21.93444196848423" stroke-dashoffset="21.93444196848423"><animate attributeName="stroke-dashoffset" from="21.93444196848423" to="0" dur="0.6580332590545268s" begin="anim1.end" fill="freeze" id="anim2" /></path><path d="M 40.0 24.6 C 41.4 24.6 41.9 24.1 41.6 22.7 C 40.9 18.7 39.5 14.9 37.5 11.4 C 36.6 13.1 35.8 14.9 35.1 16.7 C 34.1 19.3 33.6 21.9 33.1 24.6 Z " transform="scale(1,-1)" stroke-dasharray="36.04491241093678" stroke-dashoffset="36.04491241093678"><animate attributeName="stroke-dashoffset" from="36.04491241093678" to="0" dur="1.0813473723281033s" begin="anim2.end" fill="freeze" id="anim3" /></path><path d="M 12.5 35.9 C 14.8 34.4 17.1 32.5 18.5 31.0 C 19.0 30.4 19.6 30.2 20.1 30.2 C 21.0 30.2 21.7 30.9 21.7 31.9 C 21.7 32.5 21.4 33.1 20.9 33.6 C 19.1 35.3 16.6 37.1 14.2 38.4 C 14.2 38.5 14.4 38.7 14.5 38.8 C 14.7 39.2 14.8 39.5 14.8 39.9 C 14.8 40.8 13.9 41.5 13.0 41.5 C 12.5 41.5 11.9 41.2 11.5 40.6 C 9.2 36.6 5.8 32.6 2.5 30.1 C 1.9 29.6 1.7 29.1 1.7 28.6 C 1.7 27.8 2.4 27.1 3.2 27.1 C 3.6 27.1 4.0 27.2 4.4 27.5 C 7.2 29.6 10.1 32.6 12.5 35.9 Z" transform="scale(1,-1)" stroke-dasharray="59.564743464012" stroke-dashoffset="59.564743464012"><animate attributeName="stroke-dashoffset" from="59.564743464012" to="0" dur="1.7869423039203598s" begin="anim3.end" fill="freeze" id="anim_end" /></path></g></svg>