<?xml version='1.0' encoding='utf8'?>
<svg viewBox="0.0 -44.0 50.0 50.0" version="1.1" xmlns="http://www.w3.org/2000/svg">
<rect x="-1000" y="-1000" width="2000" height="2000" stroke="white" fill="white"/>
<g style="fill:none; stroke:#000000;  stroke-width:1">
<path d="M 3.0 19.0 C 6.2 24.1 9.5 32.4 11.1 39.8 M 8.8 -2.7 L 8.8 25.4 M 25.0 27.8 L 36.6 27.8 C 39.2 27.8 40.2 28.9 40.2 30.8 L 40.2 35.5 C 40.2 37.4 39.2 38.5 36.6 38.5 L 25.0 38.5 C 22.4 38.5 21.4 37.4 21.4 35.5 L 21.4 30.8 C 21.4 28.9 22.4 27.8 25.0 27.8 Z M 42.5 20.4 L 19.0 20.4 M 45.6 12.3 L 15.8 12.3 M 15.7 -1.5 C 24.5 2.0 30.1 7.6 30.1 20.3 M 44.6 -0.9 C 38.4 1.1 32.8 5.6 30.1 11.7 " transform="scale(1, -1)" />
</g>
</svg>