<?xml version='1.0' encoding='utf8'?>
<svg viewBox="0.0 -44.0 50.0 50.0" version="1.1" xmlns="http://www.w3.org/2000/svg">
<rect x="-1000" y="-1000" width="2000" height="2000" stroke="white" fill="white"/>
<g style="fill:none; stroke:#000000;  stroke-width:1">
<path d="M 3.0 19.1 C 6.2 24.3 9.5 32.5 11.1 39.9 M 8.8 -2.7 L 8.8 25.6 M 22.6 25.4 L 38.6 25.4 C 41.2 25.4 42.0 26.4 42.0 28.1 L 42.0 33.9 C 42.0 35.7 41.2 36.6 38.6 36.6 L 22.6 36.6 C 20.1 36.6 19.2 35.7 19.2 33.9 L 19.2 28.1 C 19.2 26.4 20.1 25.4 22.6 25.4 Z M 26.7 26.1 L 26.7 40.4 M 34.1 26.1 L 34.1 40.4 M 41.1 31.1 L 20.2 31.1 M 14.0 -1.2 C 16.2 2.8 17.5 8.2 17.5 14.6 L 17.5 17.2 C 17.5 19.6 18.6 20.5 21.3 20.5 L 44.1 20.5 M 46.0 9.8 L 17.5 9.8 M 40.0 15.2 L 24.4 15.2 M 21.1 -1.9 C 24.6 -1.5 29.0 -0.7 32.2 0.3 M 25.4 -0.5 L 25.4 10.2 M 45.4 -1.8 C 39.5 0.1 34.6 3.6 31.9 9.4 M 37.3 2.5 C 39.0 3.6 40.0 4.5 41.5 6.2 " transform="scale(1, -1)" />
</g>
</svg>