<?xml version='1.0' encoding='utf8'?>
<svg viewBox="0.0 -44.0 50.0 50.0" version="1.1" xmlns="http://www.w3.org/2000/svg">
<rect x="-1000" y="-1000" width="2000" height="2000" stroke="white" fill="white"/>
<g style="fill:none; stroke:#000000;  stroke-width:1">
<path d="M 11.4 7.5 L 11.4 40.0 M 5.3 31.9 L 5.3 10.8 C 5.3 8.4 6.4 7.7 8.4 7.7 L 14.6 7.7 C 16.6 7.7 17.6 8.4 17.6 10.8 L 17.6 31.9 M 18.1 -0.6 C 21.9 4.6 24.1 11.5 24.1 24.8 L 24.1 34.2 C 24.1 36.9 25.2 38.0 28.2 38.0 L 46.5 38.0 M 43.9 28.4 L 30.1 28.4 M 36.6 19.8 L 36.6 33.5 M 46.1 19.8 L 28.4 19.8 M 45.0 9.1 L 29.0 9.1 M 36.6 -0.8 L 36.6 14.7 M 47.0 -0.8 L 25.1 -0.8 " transform="scale(1, -1)" />
</g>
</svg>