<?xml version='1.0' encoding='utf8'?>
<svg viewBox="0.0 -44.0 50.0 50.0" version="1.1" xmlns="http://www.w3.org/2000/svg">
<rect x="-1000" y="-1000" width="2000" height="2000" stroke="white" fill="white"/>
<g style="fill:none; stroke:#000000;  stroke-width:1">
<path d="M 9.7 31.6 C 8.3 33.1 6.6 34.8 5.3 35.8 M 4.2 6.8 C 6.8 9.8 9.7 14.8 11.6 19.2 M 29.9 36.6 L 29.9 40.5 M 45.7 36.9 L 14.9 36.9 M 22.6 19.2 L 37.7 19.2 C 40.6 19.2 41.5 20.3 41.5 22.3 L 41.5 28.9 C 41.5 30.9 40.6 32.0 37.7 32.0 L 22.6 32.0 C 19.8 32.0 18.9 30.9 18.9 28.9 L 18.9 22.3 C 18.9 20.3 19.8 19.2 22.6 19.2 Z M 27.9 23.3 L 32.4 23.3 C 34.0 23.3 34.5 23.8 34.5 24.9 L 34.5 26.3 C 34.5 27.4 34.0 27.9 32.4 27.9 L 27.9 27.9 C 26.2 27.9 25.7 27.4 25.7 26.3 L 25.7 24.9 C 25.7 23.8 26.2 23.3 27.9 23.3 Z M 40.5 14.3 L 19.4 14.3 M 45.9 9.2 L 14.3 9.2 M 24.8 -1.9 C 25.6 -2.0 26.2 -2.1 26.9 -2.1 C 29.1 -2.1 30.0 -1.4 30.0 0.9 L 30.0 9.2 M 13.9 -0.8 C 16.5 0.5 19.2 2.4 21.4 4.5 M 44.4 -0.3 C 41.9 1.1 39.8 2.8 38.0 4.5 " transform="scale(1, -1)" />
</g>
</svg>