<?xml version='1.0' encoding='utf8'?>
<svg viewBox="0.0 -44.0 50.0 50.0" version="1.1" xmlns="http://www.w3.org/2000/svg">
<rect x="-1000" y="-1000" width="2000" height="2000" stroke="white" fill="white"/>
<g style="fill:none; stroke:#000000;  stroke-width:1">
<path d="M 17.1 7.1 C 14.2 9.7 9.7 12.3 5.8 13.9 M 5.0 12.4 C 7.2 20.4 9.1 30.0 10.3 40.2 M 4.2 0.3 C 10.8 5.7 15.2 15.6 15.8 26.8 C 15.9 28.9 14.9 29.8 12.7 29.8 L 3.5 29.8 M 44.1 31.2 L 22.6 31.2 M 46.4 20.4 L 20.8 20.4 M 32.7 -2.6 L 32.7 40.2 M 18.4 1.6 C 23.6 6.1 28.6 13.2 31.2 19.5 M 46.5 3.1 C 41.1 7.5 36.0 14.4 33.6 20.7 " transform="scale(1, -1)" />
</g>
</svg>