<?xml version='1.0' encoding='utf8'?>
<svg viewBox="0.0 -44.0 50.0 50.0" version="1.1" xmlns="http://www.w3.org/2000/svg">
<rect x="-1000" y="-1000" width="2000" height="2000" stroke="white" fill="white"/>
<g style="fill:none; stroke:#000000;  stroke-width:1">
<path d="M 28.1 37.4 L 4.5 37.4 M 11.8 23.2 L 20.6 23.2 C 23.4 23.2 24.3 24.0 24.3 25.9 L 24.3 28.3 C 24.3 30.2 23.4 30.9 20.6 30.9 L 11.8 30.9 C 9.0 30.9 8.1 30.2 8.1 28.3 L 8.1 25.9 C 8.1 24.0 9.0 23.2 11.8 23.2 Z M 22.9 16.8 L 9.7 16.8 C 6.7 16.8 5.7 15.9 5.7 13.6 L 5.7 2.8 C 5.7 0.5 6.7 -0.4 9.7 -0.4 L 22.9 -0.4 C 25.9 -0.4 26.9 0.5 26.9 2.8 L 26.9 13.6 C 26.9 15.9 25.9 16.8 22.9 16.8 Z M 15.9 0.1 L 15.9 17.1 M 25.9 8.4 L 6.6 8.4 M 34.8 9.2 L 34.8 36.0 M 37.8 -0.8 C 38.8 -1.1 39.7 -1.1 40.5 -1.1 C 42.9 -1.1 43.8 -0.1 43.8 2.5 L 43.8 39.0 " transform="scale(1, -1)" />
</g>
</svg>