<?xml version='1.0' encoding='utf8'?>
<svg viewBox="0.0 -44.0 50.0 50.0" version="1.1" xmlns="http://www.w3.org/2000/svg">
<rect x="-1000" y="-1000" width="2000" height="2000" stroke="white" fill="white"/>
<g style="fill:none; stroke:#000000;  stroke-width:1">
<path d="M 11.2 35.2 C 10.2 36.5 8.5 38.0 7.3 38.9 M 8.1 23.2 C 6.9 24.6 5.1 26.0 4.0 26.9 M 5.2 -0.5 C 7.3 2.9 9.6 8.2 10.8 12.6 M 44.2 35.5 L 17.2 35.5 M 41.0 29.1 L 19.4 29.1 M 46.0 22.4 L 14.9 22.4 M 15.5 13.1 C 22.8 19.1 28.1 29.6 29.8 40.1 M 46.0 13.9 C 40.6 17.6 36.5 22.6 34.2 28.6 M 36.9 15.3 L 23.5 15.3 M 41.7 8.8 L 18.4 8.8 M 15.1 -2.1 C 24.3 0.3 29.4 5.7 29.6 14.6 M 42.8 -1.6 C 37.1 0.1 32.3 3.5 29.2 8.4 " transform="scale(1, -1)" />
</g>
</svg>