<?xml version='1.0' encoding='utf8'?>
<svg viewBox="0.0 -44.0 50.0 50.0" version="1.1" xmlns="http://www.w3.org/2000/svg">
<rect x="-1000" y="-1000" width="2000" height="2000" stroke="white" fill="white"/>
<g style="fill:none; stroke:#000000;  stroke-width:1">
<path d="M 43.8 35.3 L 6.8 35.3 M 24.9 23.9 L 24.9 41.0 M 4.5 21.2 C 11.6 24.1 18.5 28.9 23.1 34.1 M 45.4 22.3 C 38.8 24.6 31.4 29.1 26.4 34.1 M 5.8 8.5 C 9.3 10.4 13.0 13.4 15.8 16.6 M 44.4 9.2 C 40.0 11.2 35.9 14.2 33.1 17.4 C 31.9 18.7 31.1 19.0 29.2 19.0 L 21.9 19.0 M 9.3 -0.8 C 18.2 -0.6 27.9 0.1 36.8 1.3 M 14.8 -0.5 C 17.6 3.1 20.4 7.8 22.1 11.6 M 39.1 -1.8 C 36.6 1.1 33.2 4.4 30.4 6.5 " transform="scale(1, -1)" />
</g>
</svg>