<?xml version='1.0' encoding='utf8'?>
<svg viewBox="0.0 -44.0 50.0 50.0" version="1.1" xmlns="http://www.w3.org/2000/svg">
<rect x="-1000" y="-1000" width="2000" height="2000" stroke="white" fill="white"/>
<g style="fill:none; stroke:#000000;  stroke-width:1">
<path d="M 10.5 35.4 C 9.4 36.6 7.8 38.1 6.8 39.0 M 7.5 23.3 C 6.4 24.5 4.7 26.0 3.6 26.7 M 4.7 -0.7 C 6.7 2.9 8.8 8.2 9.9 12.4 M 16.2 -2.5 L 16.2 35.9 C 16.2 38.0 17.1 39.0 19.6 39.0 L 23.4 39.0 C 25.9 39.0 26.8 38.0 26.8 35.9 L 26.8 29.5 C 26.8 27.4 25.9 26.4 23.4 26.4 L 16.8 26.4 M 26.2 32.8 L 16.4 32.8 M 38.6 -1.8 C 39.5 -2.0 40.5 -2.0 41.5 -2.0 C 43.8 -2.0 44.7 -1.1 44.7 1.3 L 44.7 35.9 C 44.7 38.0 43.9 39.0 41.4 39.0 L 37.4 39.0 C 34.8 39.0 34.0 38.0 34.0 35.9 L 34.0 29.5 C 34.0 27.4 34.8 26.4 37.4 26.4 L 43.6 26.4 M 44.5 32.8 L 34.5 32.8 M 23.8 19.8 C 28.1 20.1 32.5 21.0 36.0 22.1 M 39.4 14.3 L 21.3 14.3 M 30.2 8.9 L 30.2 20.7 M 27.2 1.2 L 33.3 1.2 C 35.6 1.2 36.2 2.0 36.2 3.9 L 36.2 5.8 C 36.2 7.7 35.6 8.5 33.3 8.5 L 27.2 8.5 C 24.9 8.5 24.2 7.7 24.2 5.8 L 24.2 3.9 C 24.2 2.0 24.9 1.2 27.2 1.2 Z " transform="scale(1, -1)" />
</g>
</svg>