<?xml version='1.0' encoding='utf8'?>
<svg viewBox="0.0 -44.0 50.0 50.0" version="1.1" xmlns="http://www.w3.org/2000/svg">
<rect x="-1000" y="-1000" width="2000" height="2000" stroke="white" fill="white"/>
<g style="fill:none; stroke:#000000;  stroke-width:1">
<path d="M 15.0 29.4 L 3.9 29.4 M 4.5 -1.4 C 5.5 -1.6 6.3 -1.6 7.0 -1.6 C 9.1 -1.6 10.2 -0.8 10.2 1.8 L 10.2 40.0 M 3.8 14.4 C 8.0 15.7 12.2 17.1 15.2 18.6 M 31.8 35.8 L 31.8 40.5 M 44.4 35.3 L 20.4 35.3 M 27.1 27.6 C 26.6 28.7 26.1 30.1 25.5 31.2 M 34.8 23.2 C 36.2 25.9 37.4 28.6 38.4 31.1 M 46.5 23.3 L 18.0 23.3 M 42.5 -1.4 C 37.5 2.5 29.9 6.0 23.9 7.5 M 22.1 5.8 C 25.5 10.1 28.6 15.4 31.0 20.3 M 17.6 -2.1 C 28.1 -0.9 36.0 3.8 39.5 13.8 M 46.8 14.4 L 17.6 14.4 " transform="scale(1, -1)" />
</g>
</svg>