<?xml version='1.0' encoding='utf8'?>
<svg viewBox="0.0 -44.0 50.0 50.0" version="1.1" xmlns="http://www.w3.org/2000/svg">
<rect x="-1000" y="-1000" width="2000" height="2000" stroke="white" fill="white"/>
<g style="fill:none; stroke:#000000;  stroke-width:1">
<path d="M 15.3 29.2 L 3.3 29.2 M 10.1 -2.6 L 10.1 40.5 M 2.7 10.0 C 5.5 14.3 7.8 20.4 8.9 26.3 M 15.8 16.4 C 14.6 18.2 12.8 20.1 10.9 21.6 M 27.1 38.0 C 26.5 38.9 26.0 39.5 25.3 40.4 M 46.0 34.2 L 18.4 34.2 M 34.6 34.5 C 36.0 36.5 36.9 38.2 37.8 40.2 M 24.1 13.6 L 39.8 13.6 C 42.0 13.6 43.0 14.3 43.0 16.3 L 43.0 25.5 C 43.0 27.6 42.1 28.5 39.8 28.5 L 24.1 28.5 C 21.7 28.5 20.8 27.6 20.8 25.5 L 20.8 16.3 C 20.8 14.3 21.8 13.6 24.1 13.6 Z M 25.4 22.1 C 27.6 23.7 28.6 25.8 28.6 29.6 L 28.6 33.3 M 39.6 24.8 C 39.5 23.2 38.8 22.6 36.7 22.6 C 34.8 22.6 34.3 23.0 34.3 24.4 L 34.3 33.1 M 42.5 18.6 L 21.7 18.6 M 46.4 7.3 L 16.1 7.3 M 32.6 -2.2 C 33.5 -2.4 34.0 -2.5 34.6 -2.5 C 36.7 -2.5 37.5 -1.6 37.5 0.7 L 37.5 9.9 M 27.1 0.9 C 26.4 1.9 25.4 2.9 24.6 3.6 " transform="scale(1, -1)" />
</g>
</svg>