<?xml version='1.0' encoding='utf8'?>
<svg viewBox="0.0 -44.0 50.0 50.0" version="1.1" xmlns="http://www.w3.org/2000/svg">
<rect x="-1000" y="-1000" width="2000" height="2000" stroke="white" fill="white"/>
<g style="fill:none; stroke:#000000;  stroke-width:1">
<path d="M 6.9 28.7 C 11.8 31.5 16.8 35.8 19.8 40.4 M 4.7 18.1 C 13.3 21.1 22.0 26.8 26.8 32.8 C 28.2 34.6 27.1 36.0 25.1 36.0 L 16.1 36.0 M 45.2 19.6 C 38.2 22.3 31.6 27.1 27.5 32.8 M 10.7 9.6 C 12.2 11.4 13.4 13.6 14.3 15.6 M 30.7 9.6 C 33.6 11.6 36.4 14.3 37.9 16.4 M 4.8 -2.1 C 16.9 1.4 23.9 7.7 24.8 21.7 M 45.0 -1.2 C 34.8 2.6 27.2 9.2 24.9 20.0 " transform="scale(1, -1)" />
</g>
</svg>