<?xml version='1.0' encoding='utf8'?>
<svg viewBox="0.0 -44.0 50.0 50.0" version="1.1" xmlns="http://www.w3.org/2000/svg">
<rect x="-1000" y="-1000" width="2000" height="2000" stroke="white" fill="white"/>
<g style="fill:none; stroke:#000000;  stroke-width:1">
<path d="M 13.2 35.8 L 13.2 40.6 M 22.1 36.3 L 4.8 36.3 M 9.6 30.6 C 9.2 31.5 8.9 31.9 8.6 32.6 M 15.8 27.7 C 16.8 29.3 17.2 30.3 17.9 32.3 M 22.9 27.6 L 3.0 27.6 M 9.8 11.6 L 17.0 11.6 C 19.4 11.6 20.3 12.3 20.3 14.2 L 20.3 19.8 C 20.3 21.6 19.4 22.4 17.0 22.4 L 9.8 22.4 C 7.5 22.4 6.5 21.6 6.5 19.8 L 6.5 14.2 C 6.5 12.3 7.5 11.6 9.8 11.6 Z M 19.8 17.1 L 6.7 17.1 M 3.8 -1.9 C 7.8 1.1 10.1 5.2 10.4 11.0 M 14.0 1.1 C 16.9 1.9 20.6 3.4 23.8 5.1 M 16.4 2.8 L 16.4 11.4 M 36.1 35.8 L 36.1 40.6 M 45.5 36.3 L 28.2 36.3 M 32.4 30.6 C 32.0 31.5 31.8 31.9 31.4 32.6 M 39.0 27.7 C 39.9 29.3 40.3 30.3 41.0 32.3 M 46.8 27.6 L 27.0 27.6 M 32.4 11.6 L 40.1 11.6 C 42.6 11.6 43.5 12.3 43.5 14.2 L 43.5 19.8 C 43.5 21.6 42.6 22.4 40.1 22.4 L 32.5 22.4 C 30.1 22.4 29.2 21.6 29.2 19.8 L 29.2 14.2 C 29.2 12.3 29.9 11.6 32.4 11.6 Z M 43.0 17.3 L 29.4 17.3 M 23.4 -2.5 C 28.6 -0.1 32.3 4.2 33.0 10.9 M 46.6 3.0 C 46.4 -0.8 44.8 -1.8 41.9 -1.8 C 39.4 -1.8 38.5 -1.1 38.5 0.8 L 38.5 11.4 " transform="scale(1, -1)" />
</g>
</svg>