<?xml version='1.0' encoding='utf8'?>
<svg viewBox="0.0 -44.0 50.0 50.0" version="1.1" xmlns="http://www.w3.org/2000/svg">
<rect x="-1000" y="-1000" width="2000" height="2000" stroke="white" fill="white"/>
<g style="fill:none; stroke:#000000;  stroke-width:1">
<path d="M 4.3 35.6 C 8.0 36.2 12.8 37.6 16.3 39.2 M 17.9 27.3 L 3.5 27.3 M 10.9 -2.7 L 10.9 37.1 M 2.9 8.0 C 6.0 12.8 8.4 18.9 9.8 24.6 M 16.9 16.0 C 15.7 17.4 13.8 19.2 11.9 20.8 M 27.5 24.8 L 38.8 24.8 C 41.7 24.8 42.6 26.0 42.6 28.1 L 42.6 35.4 C 42.6 37.4 41.7 38.6 38.8 38.6 L 27.5 38.6 C 24.6 38.6 23.6 37.4 23.6 35.4 L 23.6 28.1 C 23.6 26.0 24.6 24.8 27.5 24.8 Z M 42.7 31.8 L 23.6 31.8 M 43.6 17.9 L 22.9 17.9 M 46.1 9.8 L 19.6 9.8 M 32.9 -2.4 L 32.9 17.4 " transform="scale(1, -1)" />
</g>
</svg>