<?xml version='1.0' encoding='utf8'?>
<svg viewBox="0.0 -44.0 50.0 50.0" version="1.1" xmlns="http://www.w3.org/2000/svg">
<rect x="-1000" y="-1000" width="2000" height="2000" stroke="white" fill="white"/>
<g style="fill:none; stroke:#000000;  stroke-width:1">
<path d="M 4.3 35.6 C 8.0 36.2 12.8 37.6 16.3 39.2 M 17.4 27.1 L 3.5 27.1 M 10.9 -2.9 L 10.9 37.1 M 2.9 8.0 C 6.0 12.8 8.4 18.9 9.8 24.6 M 16.7 14.7 C 15.4 16.2 13.7 17.9 11.9 19.1 M 41.9 16.2 L 41.9 27.3 C 41.9 29.4 40.9 30.5 38.4 30.5 L 27.1 30.5 C 24.6 30.5 23.6 29.4 23.6 27.3 L 23.6 16.2 M 46.6 16.2 L 20.4 16.2 M 18.2 -1.8 C 27.2 3.0 32.4 10.8 32.4 25.7 L 32.4 39.9 M 45.6 -0.9 C 39.5 2.8 34.9 8.5 32.6 15.5 " transform="scale(1, -1)" />
</g>
</svg>