<?xml version='1.0' encoding='utf8'?>
<svg viewBox="0.0 -44.0 50.0 50.0" version="1.1" xmlns="http://www.w3.org/2000/svg">
<rect x="-1000" y="-1000" width="2000" height="2000" stroke="white" fill="white"/>
<g style="fill:none; stroke:#000000;  stroke-width:1">
<path d="M 4.3 35.6 C 8.0 36.2 12.8 37.6 16.3 39.2 M 3.5 27.3 L 16.9 27.3 M 10.9 -2.9 L 10.9 37.1 M 2.9 8.0 C 6.0 12.8 8.4 18.9 9.8 24.6 M 16.9 15.2 C 15.7 16.8 13.8 18.6 11.9 20.2 M 22.0 35.4 C 28.4 35.8 36.6 37.2 42.2 39.0 M 25.6 26.1 C 24.9 27.6 24.1 29.1 23.2 30.3 M 33.8 27.4 C 33.2 29.1 32.5 30.6 31.8 31.9 M 39.5 24.6 C 41.2 26.9 43.0 30.1 44.2 32.8 M 22.6 -1.6 L 22.6 19.9 M 34.4 -0.9 L 40.0 -0.9 C 42.6 -0.9 43.9 -0.1 43.9 2.4 L 43.9 16.1 C 43.9 18.6 42.6 19.4 40.0 19.4 L 34.4 19.4 C 31.7 19.4 30.5 18.6 30.5 16.1 L 30.5 2.4 C 30.5 -0.1 31.7 -0.9 34.4 -0.9 Z M 30.6 9.7 L 43.7 9.7 " transform="scale(1, -1)" />
</g>
</svg>