<?xml version='1.0' encoding='utf8'?>
<svg viewBox="0.0 -44.0 50.0 50.0" version="1.1" xmlns="http://www.w3.org/2000/svg">
<rect x="-1000" y="-1000" width="2000" height="2000" stroke="white" fill="white"/>
<g style="fill:none; stroke:#000000;  stroke-width:1">
<path d="M 2.8 5.7 C 5.2 10.8 6.9 18.2 6.9 27.7 L 6.9 34.6 C 6.9 36.9 7.9 37.8 10.8 37.8 L 15.4 37.8 C 18.3 37.8 19.2 36.9 19.2 34.6 L 19.2 29.1 C 19.2 26.9 18.3 25.9 15.4 25.9 L 7.5 25.9 M 13.1 0.8 L 16.7 0.8 C 19.2 0.8 20.1 1.6 20.1 3.7 L 20.1 12.2 C 20.1 14.3 19.2 15.2 16.7 15.2 L 13.1 15.2 C 10.6 15.2 9.7 14.3 9.7 12.2 L 9.7 3.7 C 9.7 1.6 10.6 0.8 13.1 0.8 Z M 35.1 33.2 L 35.1 40.2 M 45.2 33.5 L 25.6 33.5 M 31.2 24.4 C 30.8 25.8 30.0 27.4 29.3 28.8 M 37.3 20.4 C 38.6 23.1 40.0 26.3 40.9 29.1 M 46.7 19.6 L 24.2 19.6 M 45.0 10.6 L 26.1 10.6 M 35.1 -2.5 L 35.1 18.8 " transform="scale(1, -1)" />
</g>
</svg>