<?xml version='1.0' encoding='utf8'?>
<svg viewBox="0.0 -44.0 50.0 50.0" version="1.1" xmlns="http://www.w3.org/2000/svg">
<rect x="-1000" y="-1000" width="2000" height="2000" stroke="white" fill="white"/>
<g style="fill:none; stroke:#000000;  stroke-width:1">
<path d="M 15.4 38.1 L 5.6 38.1 M 17.4 31.3 L 2.9 31.3 M 15.4 24.2 L 5.6 24.2 M 15.4 17.5 L 5.6 17.5 M 15.7 1.9 L 15.7 7.7 C 15.7 9.7 14.9 10.6 12.6 10.6 L 8.7 10.6 C 6.4 10.6 5.5 9.7 5.5 7.7 L 5.5 1.9 C 5.5 -0.1 6.4 -1.1 8.7 -1.1 L 12.6 -1.1 C 14.9 -1.1 15.7 -0.1 15.7 1.9 Z M 30.1 32.2 L 30.1 36.5 C 30.1 38.2 29.2 39.0 27.5 39.0 L 25.1 39.0 C 23.4 39.0 22.6 38.2 22.6 36.5 L 22.6 32.2 C 22.6 30.5 23.4 29.6 25.1 29.6 L 27.5 29.6 C 29.2 29.6 30.1 30.5 30.1 32.2 Z M 36.2 36.5 L 36.2 32.2 C 36.2 30.5 37.0 29.6 38.8 29.6 L 41.4 29.6 C 43.1 29.6 44.0 30.5 44.0 32.2 L 44.0 36.5 C 44.0 38.2 43.1 39.0 41.4 39.0 L 38.8 39.0 C 37.0 39.0 36.2 38.2 36.2 36.5 Z M 46.5 16.7 L 20.4 16.7 M 42.1 23.3 L 23.9 23.3 M 33.0 -1.2 C 34.0 -1.4 35.0 -1.6 36.0 -1.6 C 38.0 -1.6 39.3 -0.7 40.0 1.4 C 40.7 3.5 41.0 5.2 41.1 7.2 C 41.2 8.8 40.4 9.8 38.1 9.8 L 26.9 9.8 M 25.3 7.2 C 26.6 9.4 28.0 13.1 29.1 16.6 " transform="scale(1, -1)" />
</g>
</svg>