<?xml version='1.0' encoding='utf8'?>
<svg viewBox="0.0 -44.0 50.0 50.0" version="1.1" xmlns="http://www.w3.org/2000/svg">
<rect x="-1000" y="-1000" width="2000" height="2000" stroke="white" fill="white"/>
<g style="fill:none; stroke:#000000;  stroke-width:1">
<path d="M 10.9 30.6 L 39.3 30.6 C 41.8 30.6 42.5 31.4 42.5 33.0 L 42.5 36.0 C 42.5 37.6 41.8 38.4 39.3 38.4 L 10.9 38.4 C 8.5 38.4 7.7 37.6 7.7 36.0 L 7.7 33.0 C 7.7 31.4 8.5 30.6 10.9 30.6 Z M 19.1 30.4 L 19.1 38.0 M 30.5 30.4 L 30.5 38.0 M 33.9 24.7 L 16.1 24.7 C 12.9 24.7 11.8 23.7 11.8 21.6 L 11.8 8.9 C 11.8 6.8 12.9 5.8 16.1 5.8 L 33.9 5.8 C 37.0 5.8 38.1 6.8 38.1 8.9 L 38.1 21.6 C 38.1 23.7 37.0 24.7 33.9 24.7 Z M 37.3 18.5 L 12.5 18.5 M 37.3 12.2 L 12.5 12.2 M 5.8 -2.4 C 9.7 -1.6 14.7 -0.0 18.4 1.9 M 43.8 -2.1 C 39.5 -1.1 34.9 0.5 31.4 2.2 " transform="scale(1, -1)" />
</g>
</svg>