<?xml version='1.0' encoding='utf8'?>
<svg viewBox="0.0 -44.0 50.0 50.0" version="1.1" xmlns="http://www.w3.org/2000/svg">
<rect x="-1000" y="-1000" width="2000" height="2000" stroke="white" fill="white"/>
<g style="fill:none; stroke:#000000;  stroke-width:1">
<path d="M 12.1 34.5 C 12.7 36.4 13.1 38.0 13.4 39.8 M 13.3 -1.4 C 14.1 -1.5 14.8 -1.6 15.6 -1.6 C 17.6 -1.6 18.7 -0.7 18.7 1.6 L 18.7 30.9 C 18.7 33.1 17.8 34.0 15.4 34.0 L 10.7 34.0 C 8.3 34.0 7.4 33.1 7.4 30.9 L 7.4 22.4 C 7.4 10.2 6.5 3.5 4.5 -1.9 M 13.7 24.6 C 13.3 25.9 12.8 27.1 12.2 28.2 M 13.0 5.4 L 13.0 18.7 M 3.1 17.7 C 9.4 17.9 16.9 19.0 22.0 20.2 M 30.3 -1.2 L 41.0 -1.2 C 43.6 -1.2 44.8 -0.2 44.8 2.5 L 44.8 26.0 C 44.8 28.7 43.6 29.7 41.0 29.7 L 30.3 29.7 C 27.6 29.7 26.4 28.7 26.4 26.0 L 26.4 2.5 C 26.4 -0.2 27.6 -1.2 30.3 -1.2 Z M 35.4 -0.1 L 35.4 39.8 M 44.4 15.2 L 27.2 15.2 " transform="scale(1, -1)" />
</g>
</svg>