<?xml version='1.0' encoding='utf8'?>
<svg viewBox="0.0 -44.0 50.0 50.0" version="1.1" xmlns="http://www.w3.org/2000/svg">
<rect x="-1000" y="-1000" width="2000" height="2000" stroke="white" fill="white"/>
<g style="fill:none; stroke:#000000;  stroke-width:1">
<path d="M 16.9 37.9 L 6.2 37.9 M 19.7 31.2 L 3.1 31.2 M 16.9 24.3 L 6.2 24.3 M 16.9 17.7 L 6.2 17.7 M 9.5 -0.5 L 13.8 -0.5 C 16.2 -0.5 17.1 0.5 17.1 2.4 L 17.1 8.0 C 17.1 10.0 16.2 10.9 13.8 10.9 L 9.5 10.9 C 7.1 10.9 6.2 10.0 6.2 8.0 L 6.2 2.4 C 6.2 0.5 7.1 -0.5 9.5 -0.5 Z M 27.4 35.0 C 32.3 36.0 37.2 37.5 41.9 39.5 M 21.6 -0.4 C 25.4 5.5 26.9 12.2 26.9 24.4 L 26.9 35.7 M 46.3 25.5 L 27.2 25.5 M 38.0 -1.8 L 38.0 24.7 M 45.0 8.1 C 41.3 11.2 36.0 14.6 32.4 16.4 " transform="scale(1, -1)" />
</g>
</svg>