<?xml version='1.0' encoding='utf8'?>
<svg viewBox="0.0 -44.0 50.0 50.0" version="1.1" xmlns="http://www.w3.org/2000/svg">
<rect x="-1000" y="-1000" width="2000" height="2000" stroke="white" fill="white"/>
<g style="fill:none; stroke:#000000;  stroke-width:1">
<path d="M 45.4 36.4 L 4.5 36.4 M 17.9 32.7 L 17.9 40.5 M 31.8 32.8 L 31.8 40.5 M 21.6 27.2 C 22.4 28.7 23.1 30.1 23.5 31.4 M 15.1 14.2 L 35.0 14.2 C 37.8 14.2 38.8 15.0 38.8 17.2 L 38.8 24.4 C 38.8 26.6 37.8 27.4 35.0 27.4 L 15.1 27.4 C 12.3 27.4 11.2 26.6 11.2 24.4 L 11.2 17.2 C 11.2 15.0 12.3 14.2 15.1 14.2 Z M 24.9 15.1 L 24.9 26.8 M 39.1 20.9 L 11.3 20.9 M 4.8 -1.8 C 12.0 0.1 17.1 4.2 18.9 9.9 M 46.4 4.4 C 46.0 0.2 44.6 -1.1 35.1 -1.1 C 27.7 -1.1 26.8 -0.6 26.8 1.8 L 26.8 14.2 M 31.0 3.8 C 33.5 4.0 36.7 4.5 40.0 5.2 M 32.6 3.9 C 33.7 5.8 34.6 8.3 35.2 10.6 M 42.0 3.9 C 41.4 5.2 40.4 6.7 39.5 7.8 " transform="scale(1, -1)" />
</g>
</svg>