<?xml version='1.0' encoding='utf8'?>
<svg viewBox="0.0 -44.0 50.0 50.0" version="1.1" xmlns="http://www.w3.org/2000/svg">
<rect x="-1000" y="-1000" width="2000" height="2000" stroke="white" fill="white"/>
<g style="fill:none; stroke:#000000;  stroke-width:1">
<path d="M 12.7 38.4 L 4.5 38.4 M 14.7 31.6 L 2.5 31.6 M 12.7 24.6 L 4.5 24.6 M 12.7 17.9 L 4.5 17.9 M 12.8 2.0 L 12.8 8.2 C 12.8 10.2 12.2 11.1 10.2 11.1 L 7.0 11.1 C 5.1 11.1 4.3 10.2 4.3 8.2 L 4.3 2.0 C 4.3 0.1 5.1 -0.8 7.0 -0.8 L 10.1 -0.8 C 12.2 -0.8 12.8 0.1 12.8 2.0 Z M 18.2 29.1 C 19.7 31.4 21.2 35.3 21.9 39.0 M 21.2 34.0 C 22.3 33.0 23.2 31.9 24.4 30.4 M 27.4 29.0 C 28.9 31.4 30.2 35.0 31.0 38.6 M 30.4 33.7 C 31.6 32.5 32.6 31.4 33.6 30.2 M 46.1 25.4 L 16.4 25.4 M 22.7 3.0 L 22.7 24.8 M 28.1 4.0 L 28.1 24.8 M 22.8 19.9 L 18.0 19.9 M 22.6 14.2 L 18.2 14.2 M 22.8 8.8 L 17.8 8.8 M 33.5 19.9 L 28.8 19.9 M 33.2 14.8 L 28.9 14.8 M 34.0 9.6 L 29.1 9.6 M 16.9 1.7 C 21.6 2.2 28.6 3.5 33.2 5.0 M 47.2 4.7 C 47.0 0.2 45.7 -1.2 44.4 -1.2 C 42.6 -1.2 40.9 1.4 39.0 11.0 C 37.9 16.9 37.2 26.9 37.2 40.5 M 28.0 -2.7 C 35.5 0.8 41.6 6.4 45.4 17.4 M 45.1 31.2 C 44.4 32.6 43.3 34.5 42.4 35.5 " transform="scale(1, -1)" />
</g>
</svg>