<?xml version='1.0' encoding='utf8'?>
<svg viewBox="0.0 -44.0 50.0 50.0" version="1.1" xmlns="http://www.w3.org/2000/svg">
<rect x="-1000" y="-1000" width="2000" height="2000" stroke="white" fill="white"/>
<g style="fill:none; stroke:#000000;  stroke-width:1">
<path d="M 22.7 37.6 L 3.0 37.6 M 8.2 -0.8 L 18.1 -0.8 C 20.4 -0.8 21.4 0.2 21.4 2.8 L 21.4 25.8 C 21.4 28.4 20.6 29.3 18.4 29.3 L 8.0 29.3 C 5.8 29.3 4.8 28.4 4.8 25.8 L 4.8 2.8 C 4.8 0.2 5.8 -0.8 8.2 -0.8 Z M 8.3 15.5 C 9.8 18.1 10.6 22.1 10.6 29.4 L 10.6 37.6 M 20.9 17.9 C 19.9 17.7 18.9 17.6 18.0 17.6 C 16.3 17.6 15.7 18.2 15.7 19.8 L 15.7 37.6 M 21.4 8.1 L 5.5 8.1 M 35.9 34.7 L 35.9 40.0 M 46.3 33.8 L 26.1 33.8 M 26.2 19.3 C 28.2 21.7 30.2 25.6 31.6 29.2 M 33.8 22.0 C 32.7 23.2 31.6 24.1 30.4 24.9 M 36.9 19.3 C 38.7 21.6 40.8 25.2 42.3 29.2 M 46.1 20.2 C 44.9 21.6 43.0 23.2 41.1 24.4 M 47.0 9.9 L 25.9 9.9 M 35.9 -2.4 L 35.9 14.8 " transform="scale(1, -1)" />
</g>
</svg>