<?xml version='1.0' encoding='utf8'?>
<svg viewBox="0.0 -44.0 50.0 50.0" version="1.1" xmlns="http://www.w3.org/2000/svg">
<rect x="-1000" y="-1000" width="2000" height="2000" stroke="white" fill="white"/>
<g style="fill:none; stroke:#000000;  stroke-width:1">
<path d="M 16.0 29.1 L 34.1 29.1 C 36.8 29.1 37.6 29.9 37.6 31.5 L 37.6 37.1 C 37.6 38.9 36.8 39.6 34.1 39.6 L 16.0 39.6 C 13.3 39.6 12.4 38.9 12.4 37.1 L 12.4 31.5 C 12.4 29.9 13.3 29.1 16.0 29.1 Z M 38.0 34.4 L 13.1 34.4 M 46.4 24.1 L 3.7 24.1 M 15.5 8.6 L 34.4 8.6 C 37.2 8.6 38.0 9.4 38.0 11.2 L 38.0 16.4 C 38.0 18.2 37.2 19.0 34.4 19.0 L 15.5 19.0 C 12.7 19.0 11.8 18.2 11.8 16.4 L 11.8 11.2 C 11.8 9.4 12.7 8.6 15.5 8.6 Z M 37.8 13.8 L 12.5 13.8 M 24.8 -2.4 L 24.8 18.5 M 46.1 -1.6 L 4.0 -1.6 M 41.6 3.6 L 8.6 3.6 " transform="scale(1, -1)" />
</g>
</svg>