<?xml version='1.0' encoding='utf-8'?>
<svg viewBox="0.0 -6.0 50.0 50.0" version="1.1" xmlns="http://www.w3.org/2000/svg"><rect x="-1000" y="-1000" width="2000" height="2000" stroke="white" fill="white" /><g style="fill:none;stroke:#000000;stroke-width:1"><path d="M 10.2 -25.6 L 14.6 -30.1 C 15.4 -31.1 16.6 -31.0 16.6 -29.8 L 16.6 -7.2 " transform="translate(0.0 38.0)" stroke-dasharray="31.74479414114858" stroke-dashoffset="31.74479414114858"><animate attributeName="stroke-dashoffset" from="31.74479414114858" to="0" dur="0.9523438242344574s" begin="0s; 15s; 30s; 45s" fill="freeze" id="anim0" /></path><path d="M 34.5 -31.6 C 31.9 -29.1 25.1 -22.4 25.1 -13.8 C 25.1 -9.3 27.7 -6.5 31.4 -6.5 C 35.0 -6.5 37.6 -9.4 37.7 -13.8 C 37.8 -18.2 35.0 -21.1 31.7 -21.1 C 28.4 -21.1 25.9 -18.3 25.4 -15.7 " transform="translate(0.0 38.0)" stroke-dasharray="61.835230694865245" stroke-dashoffset="61.835230694865245"><animate attributeName="stroke-dashoffset" from="61.835230694865245" to="0" dur="1.8550569208459573s" begin="anim0.end" fill="freeze" id="anim1" /></path><path d="M 25.0 -42.0 C 12.3 -42.0 1.9 -31.8 1.9 -19.0 C 1.9 -6.3 12.3 4.0 25.0 4.0 C 37.8 4.0 48.0 -6.3 48.0 -19.0 C 48.0 -31.8 37.8 -42.0 25.0 -42.0 Z" transform="translate(0.0 38.0)" stroke-dasharray="144.74944890517503" stroke-dashoffset="144.74944890517503"><animate attributeName="stroke-dashoffset" from="144.74944890517503" to="0" dur="4.342483467155251s" begin="anim1.end" fill="freeze" id="anim_end" /></path></g></svg>