<?xml version='1.0' encoding='utf-8'?>
<svg viewBox="0.0 -6.0 50.0 50.0" version="1.1" xmlns="http://www.w3.org/2000/svg"><rect x="-1000" y="-1000" width="2000" height="2000" stroke="white" fill="white" /><g style="fill:none;stroke:#000000;stroke-width:1"><path d="M 33.9 -31.4 C 29.9 -31.4 28.4 -27.6 28.4 -18.9 C 28.4 -10.0 30.1 -6.3 33.9 -6.3 C 37.4 -6.3 39.4 -10.3 39.4 -19.0 C 39.4 -27.6 37.2 -31.4 33.9 -31.4 Z " transform="translate(0.0 38.0)" stroke-dasharray="60.57075827940773" stroke-dashoffset="60.57075827940773"><animate attributeName="stroke-dashoffset" from="60.57075827940773" to="0" dur="1.8171227483822316s" begin="0s; anim_end.end" fill="freeze" id="anim0" /></path><path d="M 11.5 -28.5 C 13.0 -30.6 15.1 -31.6 16.6 -31.6 C 19.8 -31.6 21.6 -28.9 21.6 -25.5 C 21.6 -22.6 20.8 -20.5 18.6 -17.4 C 16.5 -14.3 12.5 -9.9 12.1 -9.3 C 11.4 -8.5 11.2 -7.0 12.6 -7.0 L 22.1 -7.1 " transform="translate(0.0 38.0)" stroke-dasharray="46.81177539874761" stroke-dashoffset="46.81177539874761"><animate attributeName="stroke-dashoffset" from="46.81177539874761" to="0" dur="1.4043532619624284s" begin="anim0.end" fill="freeze" id="anim1" /></path><path d="M 25.0 -42.0 C 12.3 -42.0 1.9 -31.8 1.9 -19.0 C 1.9 -6.3 12.3 4.0 25.0 4.0 C 37.8 4.0 48.0 -6.3 48.0 -19.0 C 48.0 -31.8 37.8 -42.0 25.0 -42.0 Z" transform="translate(0.0 38.0)" stroke-dasharray="144.74944890517503" stroke-dashoffset="144.74944890517503"><animate attributeName="stroke-dashoffset" from="144.74944890517503" to="0" dur="4.342483467155251s" begin="anim1.end" fill="freeze" id="anim_end" /></path></g></svg>