<?xml version='1.0' encoding='utf-8'?>
<svg viewBox="0.0 -6.0 50.0 50.0" version="1.1" xmlns="http://www.w3.org/2000/svg"><rect x="-1000" y="-1000" width="2000" height="2000" stroke="white" fill="white" /><g style="fill:none;stroke:#000000;stroke-width:1"><path d="M 8.9 -42.0 C 4.5 -34.4 2.8 -27.6 2.8 -19.0 C 2.8 -10.4 4.6 -3.6 9.1 4.0 " transform="translate(0.0 38.0)" stroke-dasharray="48.27466542197335" stroke-dashoffset="48.27466542197335"><animate attributeName="stroke-dashoffset" from="48.27466542197335" to="0" dur="1.4482399626592006s" begin="0s; 15s; 30s; 45s" fill="freeze" id="anim0" /></path><path d="M 41.0 -42.0 C 45.4 -34.5 47.2 -27.6 47.2 -19.0 C 47.2 -10.4 45.4 -3.6 40.9 4.0 " transform="translate(0.0 38.0)" stroke-dasharray="48.30439953283786" stroke-dashoffset="48.30439953283786"><animate attributeName="stroke-dashoffset" from="48.30439953283786" to="0" dur="1.449131985985136s" begin="anim0.end" fill="freeze" id="anim1" /></path><path d="M 25.7 -32.4 C 26.8 -34.5 29.0 -35.6 31.2 -35.6 C 34.9 -35.6 37.2 -32.9 37.2 -28.2 C 37.2 -24.2 35.0 -20.1 31.0 -20.1 L 29.3 -20.1 " transform="translate(0.0 38.0)" stroke-dasharray="30.50640262433057" stroke-dashoffset="30.50640262433057"><animate attributeName="stroke-dashoffset" from="30.50640262433057" to="0" dur="0.915192078729917s" begin="anim1.end" fill="freeze" id="anim2" /></path><path d="M 31.1 -20.1 C 35.0 -19.9 38.0 -15.9 38.0 -11.5 C 38.0 -6.2 35.5 -2.2 31.0 -2.2 C 28.9 -2.2 26.7 -3.0 25.1 -5.3 " transform="translate(0.0 38.0)" stroke-dasharray="32.11987611841149" stroke-dashoffset="32.11987611841149"><animate attributeName="stroke-dashoffset" from="32.11987611841149" to="0" dur="0.9635962835523446s" begin="anim2.end" fill="freeze" id="anim3" /></path><path d="M 10.1 -28.7 L 13.9 -34.1 C 14.7 -35.3 16.1 -35.1 16.1 -33.7 L 16.1 -3.0" transform="translate(0.0 38.0)" stroke-dasharray="40.5470729450055" stroke-dashoffset="40.5470729450055"><animate attributeName="stroke-dashoffset" from="40.5470729450055" to="0" dur="1.216412188350165s" begin="anim3.end" fill="freeze" id="anim_end" /></path></g></svg>