<?xml version='1.0' encoding='utf-8'?>
<svg viewBox="0.0 -6.0 50.0 50.0" version="1.1" xmlns="http://www.w3.org/2000/svg"><rect x="-1000" y="-1000" width="2000" height="2000" stroke="white" fill="white" /><g style="fill:none;stroke:#000000;stroke-width:1"><path d="M 8.9 -42.0 C 4.5 -34.4 2.8 -27.6 2.8 -19.0 C 2.8 -10.4 4.6 -3.6 9.1 4.0 " transform="translate(0.0 38.0)" stroke-dasharray="48.27466542197335" stroke-dashoffset="48.27466542197335"><animate attributeName="stroke-dashoffset" from="48.27466542197335" to="0" dur="1.4482399626592006s" begin="0s; 15s; 30s; 45s" fill="freeze" id="anim0" /></path><path d="M 41.0 -42.0 C 45.4 -34.5 47.2 -27.6 47.2 -19.0 C 47.2 -10.4 45.4 -3.6 40.9 4.0 " transform="translate(0.0 38.0)" stroke-dasharray="48.30439953283786" stroke-dashoffset="48.30439953283786"><animate attributeName="stroke-dashoffset" from="48.30439953283786" to="0" dur="1.449131985985136s" begin="anim0.end" fill="freeze" id="anim1" /></path><path d="M 32.5 -17.9 C 31.1 -21.4 27.6 -24.4 24.1 -24.4 C 18.7 -24.4 15.0 -20.6 15.0 -13.5 C 15.0 -6.5 18.2 -2.1 23.9 -2.1 C 27.0 -2.1 31.0 -5.3 31.9 -11.1 " transform="translate(0.0 38.0)" stroke-dasharray="56.610999092795566" stroke-dashoffset="56.610999092795566"><animate attributeName="stroke-dashoffset" from="56.610999092795566" to="0" dur="1.698329972783867s" begin="anim1.end" fill="freeze" id="anim2" /></path><path d="M 32.8 -36.2 C 32.8 -28.1 32.8 -14.9 32.8 -12.0 C 32.8 -9.1 33.3 -4.5 33.6 -2.5" transform="translate(0.0 38.0)" stroke-dasharray="33.73990234682282" stroke-dashoffset="33.73990234682282"><animate attributeName="stroke-dashoffset" from="33.73990234682282" to="0" dur="1.0121970704046845s" begin="anim2.end" fill="freeze" id="anim_end" /></path></g></svg>