<?xml version='1.0' encoding='utf-8'?>
<svg viewBox="0.0 -6.0 50.0 50.0" version="1.1" xmlns="http://www.w3.org/2000/svg"><rect x="-1000" y="-1000" width="2000" height="2000" stroke="white" fill="white" /><g style="fill:none;stroke:#000000;stroke-width:1"><path d="M 39.4 -4.6 C 34.0 -9.8 28.9 -19.6 26.1 -29.9 " transform="translate(0.0 38.0)" stroke-dasharray="28.882494150118564" stroke-dashoffset="28.882494150118564"><animate attributeName="stroke-dashoffset" from="28.882494150118564" to="0" dur="0.8664748245035568s" begin="0s" fill="freeze" /></path><path d="M 8.9 -42.0 C 4.5 -34.4 2.8 -27.6 2.8 -19.0 C 2.8 -10.4 4.6 -3.6 9.1 4.0 " transform="translate(0.0 38.0)" stroke-dasharray="48.27466542197335" stroke-dashoffset="48.27466542197335"><animate attributeName="stroke-dashoffset" from="48.27466542197335" to="0" dur="1.4482399626592006s" begin="0.8664748245035568s" fill="freeze" /></path><path d="M 10.2 -4.0 C 14.6 -9.1 18.9 -17.0 20.0 -24.4 C 20.4 -26.8 19.5 -27.5 18.0 -27.5 L 10.0 -27.5 " transform="translate(0.0 38.0)" stroke-dasharray="35.335016923374944" stroke-dashoffset="35.335016923374944"><animate attributeName="stroke-dashoffset" from="35.335016923374944" to="0" dur="1.0600505077012483s" begin="2.3147147871627576s" fill="freeze" /></path><path d="M 19.6 0.4 C 20.4 0.6 21.6 0.7 22.6 0.7 C 24.6 0.7 25.4 -0.4 25.4 -2.5 L 25.4 -39.6 " transform="translate(0.0 38.0)" stroke-dasharray="45.022310885475676" stroke-dashoffset="45.022310885475676"><animate attributeName="stroke-dashoffset" from="45.022310885475676" to="0" dur="1.3506693265642702s" begin="3.374765294864006s" fill="freeze" /></path><path d="M 29.4 -21.2 C 32.7 -23.8 36.1 -27.1 38.6 -30.6 " transform="translate(0.0 38.0)" stroke-dasharray="13.194868318169272" stroke-dashoffset="13.194868318169272"><animate attributeName="stroke-dashoffset" from="13.194868318169272" to="0" dur="0.3958460495450781s" begin="4.725434621428276s" fill="freeze" /></path><path d="M 41.0 -42.0 C 45.4 -34.5 47.2 -27.6 47.2 -19.0 C 47.2 -10.4 45.4 -3.6 40.9 4.0" transform="translate(0.0 38.0)" stroke-dasharray="48.30439953283786" stroke-dashoffset="48.30439953283786"><animate attributeName="stroke-dashoffset" from="48.30439953283786" to="0" dur="1.449131985985136s" begin="5.121280670973354s" fill="freeze" /></path></g></svg>