<?xml version='1.0' encoding='utf-8'?>
<svg viewBox="0.0 -6.0 50.0 50.0" version="1.1" xmlns="http://www.w3.org/2000/svg"><rect x="-1000" y="-1000" width="2000" height="2000" stroke="white" fill="white" /><g style="fill:none;stroke:#000000;stroke-width:1"><path d="M 16.8 -6.3 L 16.8 -18.1 " transform="translate(0.0 38.0)" stroke-dasharray="11.8" stroke-dashoffset="11.8"><animate attributeName="stroke-dashoffset" from="11.8" to="0" dur="0.354s" begin="0s; anim_end.end" fill="freeze" id="anim0" /></path><path d="M 38.6 -6.4 L 11.6 -6.4 " transform="translate(0.0 38.0)" stroke-dasharray="27.0" stroke-dashoffset="27.0"><animate attributeName="stroke-dashoffset" from="27.0" to="0" dur="0.8099999999999999s" begin="anim0.end" fill="freeze" id="anim1" /></path><path d="M 25.5 -6.2 L 25.5 -24.9 " transform="translate(0.0 38.0)" stroke-dasharray="18.7" stroke-dashoffset="18.7"><animate attributeName="stroke-dashoffset" from="18.7" to="0" dur="0.5609999999999999s" begin="anim1.end" fill="freeze" id="anim2" /></path><path d="M 10.1 -20.8 C 16.0 -24.2 22.1 -29.9 25.1 -35.0 " transform="translate(0.0 38.0)" stroke-dasharray="20.85220888311888" stroke-dashoffset="20.85220888311888"><animate attributeName="stroke-dashoffset" from="20.85220888311888" to="0" dur="0.6255662664935664s" begin="anim2.end" fill="freeze" id="anim3" /></path><path d="M 34.5 -16.8 L 25.6 -16.8 " transform="translate(0.0 38.0)" stroke-dasharray="8.899999999999999" stroke-dashoffset="8.899999999999999"><animate attributeName="stroke-dashoffset" from="8.899999999999999" to="0" dur="0.26699999999999996s" begin="anim3.end" fill="freeze" id="anim4" /></path><path d="M 40.0 -21.4 C 34.2 -24.1 28.7 -29.1 25.0 -34.5 " transform="translate(0.0 38.0)" stroke-dasharray="20.138191671318317" stroke-dashoffset="20.138191671318317"><animate attributeName="stroke-dashoffset" from="20.138191671318317" to="0" dur="0.6041457501395495s" begin="anim4.end" fill="freeze" id="anim5" /></path><path d="M 25.0 4.0 C 12.3 4.0 1.9 -6.3 1.9 -19.1 C 1.9 -31.8 12.3 -42.1 25.0 -42.1 C 37.8 -42.1 48.0 -31.8 48.0 -19.1 C 48.0 -6.3 37.8 4.0 25.0 4.0 Z" transform="translate(0.0 38.0)" stroke-dasharray="144.88245316471753" stroke-dashoffset="144.88245316471753"><animate attributeName="stroke-dashoffset" from="144.88245316471753" to="0" dur="4.346473594941526s" begin="anim5.end" fill="freeze" id="anim_end" /></path></g></svg>