<?xml version='1.0' encoding='utf-8'?>
<svg viewBox="0.0 -6.0 50.0 50.0" version="1.1" xmlns="http://www.w3.org/2000/svg"><rect x="-1000" y="-1000" width="2000" height="2000" stroke="white" fill="white" /><g style="fill:none;stroke:#000000;stroke-width:1"><path d="M 37.4 1.4 C 38.1 1.6 39.0 1.7 39.9 1.7 C 42.5 1.7 43.5 0.8 43.5 -1.4 L 43.5 -22.9 C 43.5 -25.2 42.5 -26.4 39.2 -26.4 L 22.3 -26.4 C 19.1 -26.4 18.0 -25.2 18.0 -22.9 L 18.0 2.3 " transform="translate(0.0 38.0)" stroke-dasharray="84.48978995645984" stroke-dashoffset="84.48978995645984"><animate attributeName="stroke-dashoffset" from="84.48978995645984" to="0" dur="2.534693698693795s" begin="0s" fill="freeze" /></path><path d="M 9.2 2.6 L 9.2 -25.3 " transform="translate(0.0 38.0)" stroke-dasharray="27.900000000000002" stroke-dashoffset="27.900000000000002"><animate attributeName="stroke-dashoffset" from="27.900000000000002" to="0" dur="0.8370000000000001s" begin="2.534693698693795s" fill="freeze" /></path><path d="M 3.0 -18.7 C 6.5 -23.8 9.9 -32.0 11.7 -39.5 " transform="translate(0.0 38.0)" stroke-dasharray="22.65408409329979" stroke-dashoffset="22.65408409329979"><animate attributeName="stroke-dashoffset" from="22.65408409329979" to="0" dur="0.6796225227989937s" begin="3.3716936986937953s" fill="freeze" /></path><path d="M 43.5 -9.6 L 18.4 -9.6 " transform="translate(0.0 38.0)" stroke-dasharray="25.1" stroke-dashoffset="25.1"><animate attributeName="stroke-dashoffset" from="25.1" to="0" dur="0.753s" begin="4.051316221492789s" fill="freeze" /></path><path d="M 30.2 1.4 L 30.2 -25.8 " transform="translate(0.0 38.0)" stroke-dasharray="27.2" stroke-dashoffset="27.2"><animate attributeName="stroke-dashoffset" from="27.2" to="0" dur="0.816s" begin="4.8043162214927895s" fill="freeze" /></path><path d="M 43.5 -18.1 L 18.4 -18.1 " transform="translate(0.0 38.0)" stroke-dasharray="25.1" stroke-dashoffset="25.1"><animate attributeName="stroke-dashoffset" from="25.1" to="0" dur="0.753s" begin="5.620316221492789s" fill="freeze" /></path><path d="M 32.9 -29.1 C 30.9 -30.6 27.9 -32.2 25.9 -33.1 " transform="translate(0.0 38.0)" stroke-dasharray="8.075786832310571" stroke-dashoffset="8.075786832310571"><animate attributeName="stroke-dashoffset" from="8.075786832310571" to="0" dur="0.24227360496931713s" begin="6.373316221492789s" fill="freeze" /></path><path d="M 31.1 -31.1 C 33.6 -32.2 36.1 -33.6 37.9 -34.9 C 39.9 -36.4 39.0 -38.2 36.7 -38.2 L 19.8 -38.2" transform="translate(0.0 38.0)" stroke-dasharray="29.931750181872374" stroke-dashoffset="29.931750181872374"><animate attributeName="stroke-dashoffset" from="29.931750181872374" to="0" dur="0.8979525054561712s" begin="6.615589826462107s" fill="freeze" /></path></g></svg>