<?xml version='1.0' encoding='utf-8'?>
<svg viewBox="0.0 -6.0 50.0 50.0" version="1.1" xmlns="http://www.w3.org/2000/svg"><rect x="-1000" y="-1000" width="2000" height="2000" stroke="white" fill="white" /><g style="fill:none;stroke:#000000;stroke-width:1"><path d="M 45.2 -0.1 C 38.2 -4.8 32.8 -11.6 30.3 -20.1 " transform="translate(0.0 38.0)" stroke-dasharray="25.455124166333597" stroke-dashoffset="25.455124166333597"><animate attributeName="stroke-dashoffset" from="25.455124166333597" to="0" dur="0.7636537249900079s" begin="0s" fill="freeze" /></path><path d="M 8.8 2.7 L 8.8 -25.4 " transform="translate(0.0 38.0)" stroke-dasharray="28.099999999999998" stroke-dashoffset="28.099999999999998"><animate attributeName="stroke-dashoffset" from="28.099999999999998" to="0" dur="0.8429999999999999s" begin="0.7636537249900079s" fill="freeze" /></path><path d="M 17.4 1.1 C 22.6 0.3 28.5 -1.1 33.1 -2.7 " transform="translate(0.0 38.0)" stroke-dasharray="16.173464333063908" stroke-dashoffset="16.173464333063908"><animate attributeName="stroke-dashoffset" from="16.173464333063908" to="0" dur="0.48520392999191725s" begin="1.6066537249900077s" fill="freeze" /></path><path d="M 23.1 -0.5 L 23.1 -10.2 " transform="translate(0.0 38.0)" stroke-dasharray="9.7" stroke-dashoffset="9.7"><animate attributeName="stroke-dashoffset" from="9.7" to="0" dur="0.291s" begin="2.0918576549819248s" fill="freeze" /></path><path d="M 14.4 -7.9 C 19.5 -10.6 25.2 -15.1 28.9 -19.6 " transform="translate(0.0 38.0)" stroke-dasharray="18.739567890042686" stroke-dashoffset="18.739567890042686"><animate attributeName="stroke-dashoffset" from="18.739567890042686" to="0" dur="0.5621870367012806s" begin="2.3828576549819247s" fill="freeze" /></path><path d="M 3.0 -19.0 C 6.2 -24.1 9.5 -32.4 11.1 -39.8 " transform="translate(0.0 38.0)" stroke-dasharray="22.416437606707976" stroke-dashoffset="22.416437606707976"><animate attributeName="stroke-dashoffset" from="22.416437606707976" to="0" dur="0.6724931282012393s" begin="2.945044691683205s" fill="freeze" /></path><path d="M 45.8 -20.8 L 14.9 -20.8 " transform="translate(0.0 38.0)" stroke-dasharray="30.9" stroke-dashoffset="30.9"><animate attributeName="stroke-dashoffset" from="30.9" to="0" dur="0.9269999999999999s" begin="3.6175378198844443s" fill="freeze" /></path><path d="M 36.0 -10.8 C 38.5 -12.2 40.8 -13.9 42.9 -15.8 " transform="translate(0.0 38.0)" stroke-dasharray="8.539159253796235" stroke-dashoffset="8.539159253796235"><animate attributeName="stroke-dashoffset" from="8.539159253796235" to="0" dur="0.2561747776138871s" begin="4.544537819884444s" fill="freeze" /></path><path d="M 40.6 -27.9 L 20.0 -27.9 " transform="translate(0.0 38.0)" stroke-dasharray="20.6" stroke-dashoffset="20.6"><animate attributeName="stroke-dashoffset" from="20.6" to="0" dur="0.618s" begin="4.800712597498331s" fill="freeze" /></path><path d="M 29.9 -20.2 L 29.9 -40.3 " transform="translate(0.0 38.0)" stroke-dasharray="20.099999999999998" stroke-dashoffset="20.099999999999998"><animate attributeName="stroke-dashoffset" from="20.099999999999998" to="0" dur="0.6029999999999999s" begin="5.418712597498331s" fill="freeze" /></path><path d="M 43.6 -34.6 L 17.1 -34.6" transform="translate(0.0 38.0)" stroke-dasharray="26.5" stroke-dashoffset="26.5"><animate attributeName="stroke-dashoffset" from="26.5" to="0" dur="0.7949999999999999s" begin="6.021712597498331s" fill="freeze" /></path></g></svg>