<?xml version='1.0' encoding='utf-8'?>
<svg viewBox="0.0 -6.0 50.0 50.0" version="1.1" xmlns="http://www.w3.org/2000/svg"><rect x="-1000" y="-1000" width="2000" height="2000" stroke="white" fill="white" /><g style="fill:none;stroke:#000000;stroke-width:1"><path d="M 17.1 1.5 C 26.5 -3.5 31.2 -11.7 31.2 -22.8 L 31.2 -26.6 " transform="translate(0.0 38.0)" stroke-dasharray="33.48993198235639" stroke-dashoffset="33.48993198235639"><animate attributeName="stroke-dashoffset" from="33.48993198235639" to="0" dur="1.0046979594706915s" begin="0s" fill="freeze" /></path><path d="M 9.7 2.6 L 9.7 -25.4 " transform="translate(0.0 38.0)" stroke-dasharray="28.0" stroke-dashoffset="28.0"><animate attributeName="stroke-dashoffset" from="28.0" to="0" dur="0.84s" begin="1.0046979594706915s" fill="freeze" /></path><path d="M 3.1 -18.6 C 6.7 -23.6 10.3 -31.9 12.2 -39.4 " transform="translate(0.0 38.0)" stroke-dasharray="22.816741191870754" stroke-dashoffset="22.816741191870754"><animate attributeName="stroke-dashoffset" from="22.816741191870754" to="0" dur="0.6845022357561226s" begin="1.8446979594706914s" fill="freeze" /></path><path d="M 45.9 -4.5 C 45.4 -0.1 43.6 1.3 38.5 1.3 C 33.8 1.3 33.0 0.5 33.0 -1.6 L 33.0 -11.9 " transform="translate(0.0 38.0)" stroke-dasharray="28.248942346025263" stroke-dashoffset="28.248942346025263"><animate attributeName="stroke-dashoffset" from="28.248942346025263" to="0" dur="0.8474682703807579s" begin="2.5292001952268137s" fill="freeze" /></path><path d="M 23.8 -16.7 L 39.6 -16.7 C 42.2 -16.7 43.1 -17.7 43.1 -19.8 L 43.1 -23.6 C 43.1 -25.6 42.2 -26.5 39.6 -26.5 L 23.8 -26.5 C 21.2 -26.5 20.2 -25.6 20.2 -23.6 L 20.2 -19.8 C 20.2 -17.7 21.2 -16.7 23.8 -16.7 Z " transform="translate(0.0 38.0)" stroke-dasharray="60.75752653411187" stroke-dashoffset="60.75752653411187"><animate attributeName="stroke-dashoffset" from="60.75752653411187" to="0" dur="1.822725796023356s" begin="3.3766684656075716s" fill="freeze" /></path><path d="M 16.1 -26.9 C 19.6 -30.2 23.4 -35.3 25.6 -39.8 " transform="translate(0.0 38.0)" stroke-dasharray="16.095634352402637" stroke-dashoffset="16.095634352402637"><animate attributeName="stroke-dashoffset" from="16.095634352402637" to="0" dur="0.4828690305720791s" begin="5.199394261630927s" fill="freeze" /></path><path d="M 30.2 -26.4 C 31.6 -28.2 32.8 -30.0 33.8 -31.9 C 34.9 -33.9 34.0 -35.1 31.6 -35.1 L 23.6 -35.1" transform="translate(0.0 38.0)" stroke-dasharray="19.721814104066052" stroke-dashoffset="19.721814104066052"><animate attributeName="stroke-dashoffset" from="19.721814104066052" to="0" dur="0.5916544231219816s" begin="5.6822632922030065s" fill="freeze" /></path></g></svg>