<?xml version='1.0' encoding='utf-8'?>
<svg viewBox="0.0 -6.0 50.0 50.0" version="1.1" xmlns="http://www.w3.org/2000/svg"><rect x="-1000" y="-1000" width="2000" height="2000" stroke="white" fill="white" /><g style="fill:none;stroke:#000000;stroke-width:1"><path d="M 15.8 0.1 C 27.5 -8.2 37.0 -22.4 41.0 -36.6 " transform="translate(0.0 38.0)" stroke-dasharray="45.321454092169596" stroke-dashoffset="45.321454092169596"><animate attributeName="stroke-dashoffset" from="45.321454092169596" to="0" dur="1.3596436227650879s" begin="0s; 15s; 30s; 45s" fill="freeze" id="anim0" /></path><path d="M 9.7 2.6 L 9.7 -25.6 " transform="translate(0.0 38.0)" stroke-dasharray="28.200000000000003" stroke-dashoffset="28.200000000000003"><animate attributeName="stroke-dashoffset" from="28.200000000000003" to="0" dur="0.8460000000000001s" begin="anim0.end" fill="freeze" id="anim1" /></path><path d="M 16.6 -11.3 C 17.9 -13.8 18.8 -16.8 19.2 -19.8 " transform="translate(0.0 38.0)" stroke-dasharray="8.931897724202013" stroke-dashoffset="8.931897724202013"><animate attributeName="stroke-dashoffset" from="8.931897724202013" to="0" dur="0.2679569317260604s" begin="anim1.end" fill="freeze" id="anim2" /></path><path d="M 3.1 -18.9 C 6.7 -23.9 10.3 -32.2 12.2 -39.6 " transform="translate(0.0 38.0)" stroke-dasharray="22.722432311061223" stroke-dashoffset="22.722432311061223"><animate attributeName="stroke-dashoffset" from="22.722432311061223" to="0" dur="0.6816729693318366s" begin="anim2.end" fill="freeze" id="anim3" /></path><path d="M 40.5 -5.4 C 40.0 -0.7 38.5 0.4 32.2 0.4 C 26.4 0.4 25.6 -0.6 25.6 -3.1 L 25.6 -29.1 " transform="translate(0.0 38.0)" stroke-dasharray="46.40363044195712" stroke-dashoffset="46.40363044195712"><animate attributeName="stroke-dashoffset" from="46.40363044195712" to="0" dur="1.3921089132587134s" begin="anim3.end" fill="freeze" id="anim4" /></path><path d="M 45.8 -12.2 C 44.8 -14.4 43.0 -17.4 41.4 -19.3 " transform="translate(0.0 38.0)" stroke-dasharray="8.374022270204053" stroke-dashoffset="8.374022270204053"><animate attributeName="stroke-dashoffset" from="8.374022270204053" to="0" dur="0.2512206681061216s" begin="anim4.end" fill="freeze" id="anim5" /></path><path d="M 31.9 -34.0 C 30.3 -35.7 28.1 -37.6 26.3 -39.0" transform="translate(0.0 38.0)" stroke-dasharray="7.513972249030637" stroke-dashoffset="7.513972249030637"><animate attributeName="stroke-dashoffset" from="7.513972249030637" to="0" dur="0.22541916747091909s" begin="anim5.end" fill="freeze" id="anim_end" /></path></g></svg>