<?xml version='1.0' encoding='utf-8'?>
<svg viewBox="0.0 -6.0 50.0 50.0" version="1.1" xmlns="http://www.w3.org/2000/svg"><rect x="-1000" y="-1000" width="2000" height="2000" stroke="white" fill="white" /><g style="fill:none;stroke:#000000;stroke-width:1"><path d="M 18.1 2.0 C 24.1 -3.4 27.3 -10.3 27.3 -24.9 L 27.3 -40.1 " transform="translate(0.0 38.0)" stroke-dasharray="44.59845868362596" stroke-dashoffset="44.59845868362596"><animate attributeName="stroke-dashoffset" from="44.59845868362596" to="0" dur="1.3379537605087786s" begin="0s" fill="freeze" /></path><path d="M 9.8 2.7 L 9.8 -19.0 " transform="translate(0.0 38.0)" stroke-dasharray="21.7" stroke-dashoffset="21.7"><animate attributeName="stroke-dashoffset" from="21.7" to="0" dur="0.6509999999999999s" begin="1.3379537605087786s" fill="freeze" /></path><path d="M 3.4 -15.1 C 6.9 -18.3 10.9 -23.9 13.2 -28.5 " transform="translate(0.0 38.0)" stroke-dasharray="16.677822738605578" stroke-dashoffset="16.677822738605578"><animate attributeName="stroke-dashoffset" from="16.677822738605578" to="0" dur="0.5003346821581673s" begin="1.9889537605087786s" fill="freeze" /></path><path d="M 16.6 -10.5 C 19.2 -11.2 22.4 -12.2 25.8 -13.7 " transform="translate(0.0 38.0)" stroke-dasharray="9.750183672927733" stroke-dashoffset="9.750183672927733"><animate attributeName="stroke-dashoffset" from="9.750183672927733" to="0" dur="0.292505510187832s" begin="2.489288442666946s" fill="freeze" /></path><path d="M 3.8 -29.7 C 6.5 -31.9 9.8 -35.8 11.9 -39.6 " transform="translate(0.0 38.0)" stroke-dasharray="12.858058102517232" stroke-dashoffset="12.858058102517232"><animate attributeName="stroke-dashoffset" from="12.858058102517232" to="0" dur="0.38574174307551695s" begin="2.7817939528547777s" fill="freeze" /></path><path d="M 27.4 -22.4 L 18.8 -22.4 " transform="translate(0.0 38.0)" stroke-dasharray="8.599999999999998" stroke-dashoffset="8.599999999999998"><animate attributeName="stroke-dashoffset" from="8.599999999999998" to="0" dur="0.25799999999999995s" begin="3.1675356959302947s" fill="freeze" /></path><path d="M 26.9 -31.9 L 17.9 -31.9 " transform="translate(0.0 38.0)" stroke-dasharray="9.0" stroke-dashoffset="9.0"><animate attributeName="stroke-dashoffset" from="9.0" to="0" dur="0.27s" begin="3.4255356959302947s" fill="freeze" /></path><path d="M 46.5 -11.8 L 36.2 -11.8 " transform="translate(0.0 38.0)" stroke-dasharray="10.299999999999997" stroke-dashoffset="10.299999999999997"><animate attributeName="stroke-dashoffset" from="10.299999999999997" to="0" dur="0.3089999999999999s" begin="3.6955356959302947s" fill="freeze" /></path><path d="M 36.0 2.0 L 36.0 -40.1 " transform="translate(0.0 38.0)" stroke-dasharray="42.1" stroke-dashoffset="42.1"><animate attributeName="stroke-dashoffset" from="42.1" to="0" dur="1.263s" begin="4.0045356959302945s" fill="freeze" /></path><path d="M 44.6 -22.4 L 36.2 -22.4 " transform="translate(0.0 38.0)" stroke-dasharray="8.399999999999999" stroke-dashoffset="8.399999999999999"><animate attributeName="stroke-dashoffset" from="8.399999999999999" to="0" dur="0.25199999999999995s" begin="5.267535695930294s" fill="freeze" /></path><path d="M 45.6 -31.9 L 36.2 -31.9" transform="translate(0.0 38.0)" stroke-dasharray="9.399999999999999" stroke-dashoffset="9.399999999999999"><animate attributeName="stroke-dashoffset" from="9.399999999999999" to="0" dur="0.282s" begin="5.519535695930294s" fill="freeze" /></path></g></svg>