<?xml version='1.0' encoding='utf-8'?>
<svg viewBox="0.0 -6.0 50.0 50.0" version="1.1" xmlns="http://www.w3.org/2000/svg"><rect x="-1000" y="-1000" width="2000" height="2000" stroke="white" fill="white" /><g style="fill:none;stroke:#000000;stroke-width:1"><path d="M 4.1 -0.3 C 10.4 -5.8 14.9 -15.9 15.3 -26.9 C 15.4 -29.0 14.4 -29.9 12.3 -29.9 L 3.5 -29.9 " transform="translate(0.0 38.0)" stroke-dasharray="43.37085885307481" stroke-dashoffset="43.37085885307481"><animate attributeName="stroke-dashoffset" from="43.37085885307481" to="0" dur="1.3011257655922441s" begin="0s" fill="freeze" /></path><path d="M 16.4 -7.5 C 13.6 -9.9 9.4 -12.3 5.8 -13.9 " transform="translate(0.0 38.0)" stroke-dasharray="12.420402389332263" stroke-dashoffset="12.420402389332263"><animate attributeName="stroke-dashoffset" from="12.420402389332263" to="0" dur="0.3726120716799679s" begin="1.3011257655922441s" fill="freeze" /></path><path d="M 18.8 -0.8 C 23.8 -3.0 29.4 -7.0 33.3 -11.2 " transform="translate(0.0 38.0)" stroke-dasharray="17.954955151000956" stroke-dashoffset="17.954955151000956"><animate attributeName="stroke-dashoffset" from="17.954955151000956" to="0" dur="0.5386486545300286s" begin="1.673737837272212s" fill="freeze" /></path><path d="M 4.8 -12.4 C 7.0 -20.3 8.9 -30.3 10.1 -40.2 " transform="translate(0.0 38.0)" stroke-dasharray="28.3256281826431" stroke-dashoffset="28.3256281826431"><animate attributeName="stroke-dashoffset" from="28.3256281826431" to="0" dur="0.849768845479293s" begin="2.2123864918022407s" fill="freeze" /></path><path d="M 20.5 -9.7 C 24.1 -11.3 27.9 -13.8 31.0 -16.8 " transform="translate(0.0 38.0)" stroke-dasharray="12.737233908182313" stroke-dashoffset="12.737233908182313"><animate attributeName="stroke-dashoffset" from="12.737233908182313" to="0" dur="0.38211701724546937s" begin="3.0621553372815336s" fill="freeze" /></path><path d="M 27.5 1.8 C 28.4 2.0 29.3 2.1 30.3 2.1 C 32.9 2.1 34.8 0.3 34.8 -5.9 C 34.8 -11.6 32.5 -17.2 28.0 -21.6 " transform="translate(0.0 38.0)" stroke-dasharray="30.739215250624742" stroke-dashoffset="30.739215250624742"><animate attributeName="stroke-dashoffset" from="30.739215250624742" to="0" dur="0.9221764575187422s" begin="3.444272354527003s" fill="freeze" /></path><path d="M 19.9 -16.6 C 24.2 -18.7 29.0 -22.2 32.4 -25.9 " transform="translate(0.0 38.0)" stroke-dasharray="15.661965855046377" stroke-dashoffset="15.661965855046377"><animate attributeName="stroke-dashoffset" from="15.661965855046377" to="0" dur="0.4698589756513913s" begin="4.366448812045745s" fill="freeze" /></path><path d="M 46.5 -3.5 C 40.9 -8.4 36.6 -17.2 35.3 -26.9 " transform="translate(0.0 38.0)" stroke-dasharray="26.464252875114088" stroke-dashoffset="26.464252875114088"><animate attributeName="stroke-dashoffset" from="26.464252875114088" to="0" dur="0.7939275862534226s" begin="4.8363077876971365s" fill="freeze" /></path><path d="M 40.8 -26.4 L 24.8 -26.4 " transform="translate(0.0 38.0)" stroke-dasharray="15.999999999999996" stroke-dashoffset="15.999999999999996"><animate attributeName="stroke-dashoffset" from="15.999999999999996" to="0" dur="0.47999999999999987s" begin="5.630235373950559s" fill="freeze" /></path><path d="M 38.4 -16.2 C 40.5 -17.4 42.8 -19.2 45.0 -21.4 " transform="translate(0.0 38.0)" stroke-dasharray="8.426087131351496" stroke-dashoffset="8.426087131351496"><animate attributeName="stroke-dashoffset" from="8.426087131351496" to="0" dur="0.25278261394054485s" begin="6.110235373950559s" fill="freeze" /></path><path d="M 45.3 -28.8 L 45.3 -31.6 C 45.3 -33.5 44.4 -34.5 41.6 -34.5 L 24.3 -34.5 C 21.5 -34.5 20.6 -33.5 20.6 -31.7 L 20.6 -28.3 " transform="translate(0.0 38.0)" stroke-dasharray="34.28461884748111" stroke-dashoffset="34.28461884748111"><animate attributeName="stroke-dashoffset" from="34.28461884748111" to="0" dur="1.0285385654244334s" begin="6.363017987891103s" fill="freeze" /></path><path d="M 32.5 -34.6 L 32.5 -40.0" transform="translate(0.0 38.0)" stroke-dasharray="5.399999999999999" stroke-dashoffset="5.399999999999999"><animate attributeName="stroke-dashoffset" from="5.399999999999999" to="0" dur="0.16199999999999995s" begin="7.391556553315537s" fill="freeze" /></path></g></svg>