<?xml version='1.0' encoding='utf-8'?>
<svg viewBox="0.0 -6.0 50.0 50.0" version="1.1" xmlns="http://www.w3.org/2000/svg"><rect x="-1000" y="-1000" width="2000" height="2000" stroke="white" fill="white" /><g style="fill:none;stroke:#000000;stroke-width:1"><path d="M 8.5 -12.8 L 35.4 -12.8 C 38.3 -12.8 39.5 -13.8 39.5 -15.8 L 39.5 -23.4 C 39.5 -25.4 38.3 -26.4 35.4 -26.4 L 8.8 -26.4 " transform="translate(0.0 38.0)" stroke-dasharray="72.74752472926565" stroke-dashoffset="72.74752472926565"><animate attributeName="stroke-dashoffset" from="72.74752472926565" to="0" dur="2.1824257418779696s" begin="0s" fill="freeze" /></path><path d="M 4.1 0.3 C 9.1 -2.4 14.1 -6.8 17.7 -11.9 " transform="translate(0.0 38.0)" stroke-dasharray="18.424057033327536" stroke-dashoffset="18.424057033327536"><animate attributeName="stroke-dashoffset" from="18.424057033327536" to="0" dur="0.552721710999826s" begin="2.1824257418779696s" fill="freeze" /></path><path d="M 19.4 2.5 L 19.4 -32.7 " transform="translate(0.0 38.0)" stroke-dasharray="35.2" stroke-dashoffset="35.2"><animate attributeName="stroke-dashoffset" from="35.2" to="0" dur="1.056s" begin="2.7351474528777957s" fill="freeze" /></path><path d="M 29.0 2.5 L 29.0 -32.7 " transform="translate(0.0 38.0)" stroke-dasharray="35.2" stroke-dashoffset="35.2"><animate attributeName="stroke-dashoffset" from="35.2" to="0" dur="1.056s" begin="3.7911474528777958s" fill="freeze" /></path><path d="M 45.3 -0.4 C 40.0 -2.5 34.3 -6.5 30.6 -11.2 " transform="translate(0.0 38.0)" stroke-dasharray="18.435234716828955" stroke-dashoffset="18.435234716828955"><animate attributeName="stroke-dashoffset" from="18.435234716828955" to="0" dur="0.5530570415048687s" begin="4.847147452877795s" fill="freeze" /></path><path d="M 46.5 -19.6 L 3.5 -19.6 " transform="translate(0.0 38.0)" stroke-dasharray="43.0" stroke-dashoffset="43.0"><animate attributeName="stroke-dashoffset" from="43.0" to="0" dur="1.29s" begin="5.400204494382664s" fill="freeze" /></path><path d="M 18.8 -37.4 C 18.1 -38.4 17.2 -39.4 16.3 -40.4 " transform="translate(0.0 38.0)" stroke-dasharray="3.907590974330238" stroke-dashoffset="3.907590974330238"><animate attributeName="stroke-dashoffset" from="3.907590974330238" to="0" dur="0.11722772922990714s" begin="6.690204494382664s" fill="freeze" /></path><path d="M 45.1 -33.0 L 4.8 -33.0 " transform="translate(0.0 38.0)" stroke-dasharray="40.300000000000004" stroke-dashoffset="40.300000000000004"><animate attributeName="stroke-dashoffset" from="40.300000000000004" to="0" dur="1.209s" begin="6.8074322236125715s" fill="freeze" /></path><path d="M 28.6 -33.7 C 29.8 -35.6 31.1 -37.8 32.1 -40.4" transform="translate(0.0 38.0)" stroke-dasharray="7.571918498838749" stroke-dashoffset="7.571918498838749"><animate attributeName="stroke-dashoffset" from="7.571918498838749" to="0" dur="0.22715755496516246s" begin="8.016432223612572s" fill="freeze" /></path></g></svg>