<?xml version='1.0' encoding='utf-8'?>
<svg viewBox="0.0 -6.0 50.0 50.0" version="1.1" xmlns="http://www.w3.org/2000/svg"><rect x="-1000" y="-1000" width="2000" height="2000" stroke="white" fill="white" /><g style="fill:none;stroke:#000000;stroke-width:1"><path d="M 3.3 -0.6 C 6.6 -6.3 8.3 -14.2 8.3 -24.7 L 8.3 -30.4 C 8.3 -33.1 9.3 -34.4 12.8 -34.4 L 45.0 -34.4 " transform="translate(0.0 38.0)" stroke-dasharray="69.81764726264859" stroke-dashoffset="69.81764726264859"><animate attributeName="stroke-dashoffset" from="69.81764726264859" to="0" dur="2.094529417879458s" begin="0s; 15s; 30s; 45s" fill="freeze" id="anim0" /></path><path d="M 18.6 2.5 L 18.6 -18.3 " transform="translate(0.0 38.0)" stroke-dasharray="20.8" stroke-dashoffset="20.8"><animate attributeName="stroke-dashoffset" from="20.8" to="0" dur="0.624s" begin="anim0.end" fill="freeze" id="anim1" /></path><path d="M 12.8 -14.6 C 16.1 -18.4 18.9 -23.8 20.6 -29.1 " transform="translate(0.0 38.0)" stroke-dasharray="16.569309648961063" stroke-dashoffset="16.569309648961063"><animate attributeName="stroke-dashoffset" from="16.569309648961063" to="0" dur="0.4970792894688319s" begin="anim1.end" fill="freeze" id="anim2" /></path><path d="M 30.4 -9.3 C 29.2 -10.9 27.9 -12.5 26.5 -13.8 " transform="translate(0.0 38.0)" stroke-dasharray="5.962682361497949" stroke-dashoffset="5.962682361497949"><animate attributeName="stroke-dashoffset" from="5.962682361497949" to="0" dur="0.17888047084493847s" begin="anim2.end" fill="freeze" id="anim3" /></path><path d="M 33.1 1.6 C 33.8 1.6 34.7 1.8 35.7 1.8 C 38.0 1.8 39.0 0.8 39.0 -1.4 L 39.0 -29.4 " transform="translate(0.0 38.0)" stroke-dasharray="35.925045193112325" stroke-dashoffset="35.925045193112325"><animate attributeName="stroke-dashoffset" from="35.925045193112325" to="0" dur="1.0777513557933698s" begin="anim3.end" fill="freeze" id="anim4" /></path><path d="M 45.6 -20.9 L 24.1 -20.9 " transform="translate(0.0 38.0)" stroke-dasharray="21.5" stroke-dashoffset="21.5"><animate attributeName="stroke-dashoffset" from="21.5" to="0" dur="0.645s" begin="anim4.end" fill="freeze" id="anim5" /></path><path d="M 26.1 -35.1 L 26.1 -40.9" transform="translate(0.0 38.0)" stroke-dasharray="5.799999999999997" stroke-dashoffset="5.799999999999997"><animate attributeName="stroke-dashoffset" from="5.799999999999997" to="0" dur="0.1739999999999999s" begin="anim5.end" fill="freeze" id="anim_end" /></path></g></svg>