<?xml version='1.0' encoding='utf-8'?>
<svg viewBox="0.0 -6.0 50.0 50.0" version="1.1" xmlns="http://www.w3.org/2000/svg"><rect x="-1000" y="-1000" width="2000" height="2000" stroke="white" fill="white" /><g style="fill:none;stroke:#000000;stroke-width:1"><path d="M 17.1 1.6 C 26.5 -1.6 35.1 -8.0 39.0 -15.4 C 40.2 -17.7 39.1 -18.9 36.9 -18.9 L 19.5 -18.9 " transform="translate(0.0 38.0)" stroke-dasharray="51.08112934339217" stroke-dashoffset="51.08112934339217"><animate attributeName="stroke-dashoffset" from="51.08112934339217" to="0" dur="1.532433880301765s" begin="0s" fill="freeze" /></path><path d="M 10.4 2.7 L 10.4 -18.9 " transform="translate(0.0 38.0)" stroke-dasharray="21.599999999999998" stroke-dashoffset="21.599999999999998"><animate attributeName="stroke-dashoffset" from="21.599999999999998" to="0" dur="0.6479999999999999s" begin="1.532433880301765s" fill="freeze" /></path><path d="M 3.8 -15.0 C 7.2 -18.0 11.6 -23.5 14.1 -28.4 " transform="translate(0.0 38.0)" stroke-dasharray="16.98300725187237" stroke-dashoffset="16.98300725187237"><animate attributeName="stroke-dashoffset" from="16.98300725187237" to="0" dur="0.5094902175561711s" begin="2.1804338803017647s" fill="freeze" /></path><path d="M 4.0 -29.3 C 7.0 -31.6 10.7 -36.0 12.8 -39.5 " transform="translate(0.0 38.0)" stroke-dasharray="13.534924349903582" stroke-dashoffset="13.534924349903582"><animate attributeName="stroke-dashoffset" from="13.534924349903582" to="0" dur="0.40604773049710746s" begin="2.6899240978579355s" fill="freeze" /></path><path d="M 44.5 0.7 C 35.8 -2.5 27.9 -9.1 23.9 -18.4 " transform="translate(0.0 38.0)" stroke-dasharray="28.874134922339447" stroke-dashoffset="28.874134922339447"><animate attributeName="stroke-dashoffset" from="28.874134922339447" to="0" dur="0.8662240476701834s" begin="3.095971828355043s" fill="freeze" /></path><path d="M 20.0 -23.8 C 23.6 -26.4 25.6 -30.3 25.6 -34.8 L 25.6 -36.0 C 25.6 -37.7 26.2 -38.7 28.7 -38.7 L 33.0 -38.7 C 35.4 -38.7 36.0 -37.7 36.0 -36.0 L 36.0 -28.1 C 36.0 -26.2 36.7 -25.4 40.1 -25.4 C 43.8 -25.4 44.9 -26.4 45.1 -29.9" transform="translate(0.0 38.0)" stroke-dasharray="49.31703325263814" stroke-dashoffset="49.31703325263814"><animate attributeName="stroke-dashoffset" from="49.31703325263814" to="0" dur="1.479510997579144s" begin="3.962195876025226s" fill="freeze" /></path></g></svg>