<?xml version='1.0' encoding='utf-8'?>
<svg viewBox="0.0 -6.0 50.0 50.0" version="1.1" xmlns="http://www.w3.org/2000/svg"><rect x="-1000" y="-1000" width="2000" height="2000" stroke="white" fill="white" /><g style="fill:none;stroke:#000000;stroke-width:1"><path d="M 3.8 -3.2 C 11.7 -6.5 18.2 -12.2 22.1 -19.0 " transform="translate(0.0 38.0)" stroke-dasharray="24.606484870335443" stroke-dashoffset="24.606484870335443"><animate attributeName="stroke-dashoffset" from="24.606484870335443" to="0" dur="0.7381945461100633s" begin="0s" fill="freeze" /></path><path d="M 41.5 1.2 L 8.3 1.2 " transform="translate(0.0 38.0)" stroke-dasharray="33.2" stroke-dashoffset="33.2"><animate attributeName="stroke-dashoffset" from="33.2" to="0" dur="0.996s" begin="0.7381945461100633s" fill="freeze" /></path><path d="M 24.9 1.1 L 24.9 -9.8 " transform="translate(0.0 38.0)" stroke-dasharray="10.9" stroke-dashoffset="10.9"><animate attributeName="stroke-dashoffset" from="10.9" to="0" dur="0.327s" begin="1.7341945461100634s" fill="freeze" /></path><path d="M 33.7 -5.9 L 16.4 -5.9 " transform="translate(0.0 38.0)" stroke-dasharray="17.300000000000004" stroke-dashoffset="17.300000000000004"><animate attributeName="stroke-dashoffset" from="17.300000000000004" to="0" dur="0.5190000000000001s" begin="2.0611945461100634s" fill="freeze" /></path><path d="M 46.0 -13.9 L 4.2 -13.9 " transform="translate(0.0 38.0)" stroke-dasharray="41.8" stroke-dashoffset="41.8"><animate attributeName="stroke-dashoffset" from="41.8" to="0" dur="1.2539999999999998s" begin="2.5801945461100635s" fill="freeze" /></path><path d="M 46.2 -4.3 C 40.9 -6.2 35.3 -9.7 32.0 -13.8 " transform="translate(0.0 38.0)" stroke-dasharray="17.280033122171236" stroke-dashoffset="17.280033122171236"><animate attributeName="stroke-dashoffset" from="17.280033122171236" to="0" dur="0.518400993665137s" begin="3.834194546110063s" fill="freeze" /></path><path d="M 16.2 -19.3 L 34.0 -19.3 C 36.6 -19.3 37.5 -20.1 37.5 -21.8 L 37.5 -27.8 C 37.5 -29.4 36.6 -30.3 34.0 -30.3 L 16.2 -30.3 C 13.7 -30.3 12.9 -29.4 12.9 -27.8 L 12.9 -21.8 C 12.9 -20.1 13.7 -19.3 16.2 -19.3 Z " transform="translate(0.0 38.0)" stroke-dasharray="67.06241843660263" stroke-dashoffset="67.06241843660263"><animate attributeName="stroke-dashoffset" from="67.06241843660263" to="0" dur="2.0118725530980788s" begin="4.3525955397752s" fill="freeze" /></path><path d="M 38.0 -24.9 L 13.3 -24.9 " transform="translate(0.0 38.0)" stroke-dasharray="24.7" stroke-dashoffset="24.7"><animate attributeName="stroke-dashoffset" from="24.7" to="0" dur="0.741s" begin="6.364468092873278s" fill="freeze" /></path><path d="M 18.6 -33.9 L 18.6 -40.6 " transform="translate(0.0 38.0)" stroke-dasharray="6.700000000000003" stroke-dashoffset="6.700000000000003"><animate attributeName="stroke-dashoffset" from="6.700000000000003" to="0" dur="0.20100000000000007s" begin="7.105468092873278s" fill="freeze" /></path><path d="M 45.0 -37.0 L 5.3 -37.0 " transform="translate(0.0 38.0)" stroke-dasharray="39.7" stroke-dashoffset="39.7"><animate attributeName="stroke-dashoffset" from="39.7" to="0" dur="1.191s" begin="7.306468092873278s" fill="freeze" /></path><path d="M 31.4 -33.9 L 31.4 -40.6" transform="translate(0.0 38.0)" stroke-dasharray="6.700000000000003" stroke-dashoffset="6.700000000000003"><animate attributeName="stroke-dashoffset" from="6.700000000000003" to="0" dur="0.20100000000000007s" begin="8.497468092873278s" fill="freeze" /></path></g></svg>