<?xml version='1.0' encoding='utf-8'?>
<svg viewBox="0.0 -6.0 50.0 50.0" version="1.1" xmlns="http://www.w3.org/2000/svg"><rect x="-1000" y="-1000" width="2000" height="2000" stroke="white" fill="white" /><g style="fill:none;stroke:#000000;stroke-width:1"><path d="M 4.9 1.7 C 16.9 -0.5 29.1 -5.8 35.0 -13.4 C 36.6 -15.6 35.9 -16.9 33.2 -16.9 L 10.4 -16.9 " transform="translate(0.0 38.0)" stroke-dasharray="62.74790439818715" stroke-dashoffset="62.74790439818715"><animate attributeName="stroke-dashoffset" from="62.74790439818715" to="0" dur="1.8824371319456146s" begin="0s; 15s; 30s; 45s" fill="freeze" id="anim0" /></path><path d="M 44.9 0.8 C 31.9 -1.4 20.7 -6.8 15.1 -16.6 " transform="translate(0.0 38.0)" stroke-dasharray="35.66467425457005" stroke-dashoffset="35.66467425457005"><animate attributeName="stroke-dashoffset" from="35.66467425457005" to="0" dur="1.0699402276371015s" begin="anim0.end" fill="freeze" id="anim1" /></path><path d="M 15.8 -29.0 C 15.3 -29.9 14.7 -31.1 14.1 -31.9 " transform="translate(0.0 38.0)" stroke-dasharray="3.3642916999792805" stroke-dashoffset="3.3642916999792805"><animate attributeName="stroke-dashoffset" from="3.3642916999792805" to="0" dur="0.10092875099937841s" begin="anim1.end" fill="freeze" id="anim2" /></path><path d="M 44.5 -18.6 L 44.5 -22.8 C 44.5 -24.8 43.5 -25.9 40.9 -25.9 L 9.2 -25.9 C 6.5 -25.9 5.5 -24.8 5.5 -22.8 L 5.5 -18.6 " transform="translate(0.0 38.0)" stroke-dasharray="51.13438089153266" stroke-dashoffset="51.13438089153266"><animate attributeName="stroke-dashoffset" from="51.13438089153266" to="0" dur="1.5340314267459796s" begin="anim2.end" fill="freeze" id="anim3" /></path><path d="M 25.6 -29.6 C 25.1 -30.8 24.3 -32.0 23.6 -32.9 " transform="translate(0.0 38.0)" stroke-dasharray="3.869501439259012" stroke-dashoffset="3.869501439259012"><animate attributeName="stroke-dashoffset" from="3.869501439259012" to="0" dur="0.11608504317777035s" begin="anim3.end" fill="freeze" id="anim4" /></path><path d="M 9.3 -35.6 C 18.6 -35.9 29.8 -37.1 38.1 -39.3 " transform="translate(0.0 38.0)" stroke-dasharray="29.091417836207633" stroke-dashoffset="29.091417836207633"><animate attributeName="stroke-dashoffset" from="29.091417836207633" to="0" dur="0.8727425350862289s" begin="anim4.end" fill="freeze" id="anim5" /></path><path d="M 32.1 -26.1 C 33.8 -28.4 35.2 -31.1 36.2 -33.4" transform="translate(0.0 38.0)" stroke-dasharray="8.389708567103721" stroke-dashoffset="8.389708567103721"><animate attributeName="stroke-dashoffset" from="8.389708567103721" to="0" dur="0.2516912570131116s" begin="anim5.end" fill="freeze" id="anim_end" /></path></g></svg>