<?xml version='1.0' encoding='utf-8'?>
<svg viewBox="0.0 -6.0 50.0 50.0" version="1.1" xmlns="http://www.w3.org/2000/svg"><rect x="-1000" y="-1000" width="2000" height="2000" stroke="white" fill="white" /><g style="fill:none;stroke:#000000;stroke-width:1"><path d="M 29.4 -9.8 L 38.5 -9.8 C 41.1 -9.8 42.3 -10.9 42.3 -13.4 L 42.3 -33.5 C 42.3 -36.0 41.1 -37.0 38.5 -37.0 L 29.4 -37.0 C 26.8 -37.0 25.5 -36.0 25.5 -33.5 L 25.5 -13.4 C 25.5 -10.9 26.8 -9.8 29.4 -9.8 Z " transform="translate(0.0 38.0)" stroke-dasharray="82.59762332480926" stroke-dashoffset="82.59762332480926"><animate attributeName="stroke-dashoffset" from="82.59762332480926" to="0" dur="2.477928699744278s" begin="0s; anim_end.end" fill="freeze" id="anim0" /></path><path d="M 18.5 -6.3 C 15.5 -9.2 10.3 -12.3 6.3 -14.1 " transform="translate(0.0 38.0)" stroke-dasharray="14.539607819630898" stroke-dashoffset="14.539607819630898"><animate attributeName="stroke-dashoffset" from="14.539607819630898" to="0" dur="0.4361882345889269s" begin="anim0.end" fill="freeze" id="anim1" /></path><path d="M 4.5 0.2 C 11.8 -5.7 16.7 -15.4 17.4 -26.4 C 17.6 -28.6 16.6 -29.6 14.2 -29.6 L 3.5 -29.6 " transform="translate(0.0 38.0)" stroke-dasharray="46.453058984151404" stroke-dashoffset="46.453058984151404"><animate attributeName="stroke-dashoffset" from="46.453058984151404" to="0" dur="1.3935917695245421s" begin="anim1.end" fill="freeze" id="anim2" /></path><path d="M 46.5 -0.5 L 19.3 -0.5 " transform="translate(0.0 38.0)" stroke-dasharray="27.2" stroke-dashoffset="27.2"><animate attributeName="stroke-dashoffset" from="27.2" to="0" dur="0.816s" begin="anim2.end" fill="freeze" id="anim3" /></path><path d="M 5.5 -12.5 C 8.0 -20.4 10.0 -29.7 11.4 -40.1 " transform="translate(0.0 38.0)" stroke-dasharray="28.257815867059882" stroke-dashoffset="28.257815867059882"><animate attributeName="stroke-dashoffset" from="28.257815867059882" to="0" dur="0.8477344760117964s" begin="anim3.end" fill="freeze" id="anim4" /></path><path d="M 42.1 -23.9 L 25.7 -23.9" transform="translate(0.0 38.0)" stroke-dasharray="16.400000000000002" stroke-dashoffset="16.400000000000002"><animate attributeName="stroke-dashoffset" from="16.400000000000002" to="0" dur="0.49200000000000005s" begin="anim4.end" fill="freeze" id="anim_end" /></path></g></svg>