<?xml version='1.0' encoding='utf-8'?>
<svg viewBox="0.0 -6.0 50.0 50.0" version="1.1" xmlns="http://www.w3.org/2000/svg"><rect x="-1000" y="-1000" width="2000" height="2000" stroke="white" fill="white" /><g style="fill:none;stroke:#000000;stroke-width:1"><path d="M 4.2 -0.2 C 11.2 -5.5 15.9 -15.1 16.6 -26.4 C 16.7 -28.6 15.8 -29.6 13.6 -29.6 L 3.5 -29.6 " transform="translate(0.0 38.0)" stroke-dasharray="45.10512940630693" stroke-dashoffset="45.10512940630693"><animate attributeName="stroke-dashoffset" from="45.10512940630693" to="0" dur="1.3531538821892077s" begin="0s; anim_end.end" fill="freeze" id="anim0" /></path><path d="M 18.0 -6.5 C 15.0 -9.2 10.0 -12.3 6.0 -13.9 " transform="translate(0.0 38.0)" stroke-dasharray="14.157955411273603" stroke-dashoffset="14.157955411273603"><animate attributeName="stroke-dashoffset" from="14.157955411273603" to="0" dur="0.42473866233820806s" begin="anim0.end" fill="freeze" id="anim1" /></path><path d="M 46.6 0.3 L 17.4 0.3 " transform="translate(0.0 38.0)" stroke-dasharray="29.200000000000003" stroke-dashoffset="29.200000000000003"><animate attributeName="stroke-dashoffset" from="29.200000000000003" to="0" dur="0.876s" begin="anim1.end" fill="freeze" id="anim2" /></path><path d="M 5.4 -12.5 C 7.6 -20.4 9.4 -29.6 10.8 -40.2 " transform="translate(0.0 38.0)" stroke-dasharray="28.24416179243936" stroke-dashoffset="28.24416179243936"><animate attributeName="stroke-dashoffset" from="28.24416179243936" to="0" dur="0.8473248537731808s" begin="anim2.end" fill="freeze" id="anim3" /></path><path d="M 32.6 0.5 L 32.6 -17.6 " transform="translate(0.0 38.0)" stroke-dasharray="18.1" stroke-dashoffset="18.1"><animate attributeName="stroke-dashoffset" from="18.1" to="0" dur="0.543s" begin="anim3.end" fill="freeze" id="anim4" /></path><path d="M 43.4 -10.9 L 22.8 -10.9 " transform="translate(0.0 38.0)" stroke-dasharray="20.599999999999998" stroke-dashoffset="20.599999999999998"><animate attributeName="stroke-dashoffset" from="20.599999999999998" to="0" dur="0.6179999999999999s" begin="anim4.end" fill="freeze" id="anim5" /></path><path d="M 22.1 -22.6 C 28.5 -22.9 35.0 -23.6 41.6 -24.9 " transform="translate(0.0 38.0)" stroke-dasharray="19.653144392334127" stroke-dashoffset="19.653144392334127"><animate attributeName="stroke-dashoffset" from="19.653144392334127" to="0" dur="0.5895943317700237s" begin="anim5.end" fill="freeze" id="anim6" /></path><path d="M 26.1 -22.8 C 27.9 -26.9 29.7 -31.6 31.2 -36.5 " transform="translate(0.0 38.0)" stroke-dasharray="14.626602019084125" stroke-dashoffset="14.626602019084125"><animate attributeName="stroke-dashoffset" from="14.626602019084125" to="0" dur="0.43879806057252374s" begin="anim6.end" fill="freeze" id="anim7" /></path><path d="M 43.9 -22.2 C 42.0 -25.1 39.7 -27.9 37.5 -29.9 " transform="translate(0.0 38.0)" stroke-dasharray="10.037334458323675" stroke-dashoffset="10.037334458323675"><animate attributeName="stroke-dashoffset" from="10.037334458323675" to="0" dur="0.30112003374971025s" begin="anim7.end" fill="freeze" id="anim8" /></path><path d="M 45.6 -36.4 L 21.2 -36.4" transform="translate(0.0 38.0)" stroke-dasharray="24.400000000000002" stroke-dashoffset="24.400000000000002"><animate attributeName="stroke-dashoffset" from="24.400000000000002" to="0" dur="0.732s" begin="anim8.end" fill="freeze" id="anim_end" /></path></g></svg>