<?xml version='1.0' encoding='utf-8'?>
<svg viewBox="0.0 -6.0 50.0 50.0" version="1.1" xmlns="http://www.w3.org/2000/svg"><rect x="-1000" y="-1000" width="2000" height="2000" stroke="white" fill="white" /><g style="fill:none;stroke:#000000;stroke-width:1"><path d="M 4.2 0.2 C 11.2 -5.1 15.7 -14.6 16.4 -26.0 C 16.5 -28.2 15.5 -29.1 13.0 -29.1 L 3.5 -29.1 " transform="translate(0.0 38.0)" stroke-dasharray="44.69478208177416" stroke-dashoffset="44.69478208177416"><animate attributeName="stroke-dashoffset" from="44.69478208177416" to="0" dur="1.3408434624532246s" begin="0s; 15s; 30s; 45s" fill="freeze" id="anim0" /></path><path d="M 17.6 -5.8 C 14.8 -8.6 9.9 -11.7 6.0 -13.6 " transform="translate(0.0 38.0)" stroke-dasharray="14.031448792414745" stroke-dashoffset="14.031448792414745"><animate attributeName="stroke-dashoffset" from="14.031448792414745" to="0" dur="0.42094346377244235s" begin="anim0.end" fill="freeze" id="anim1" /></path><path d="M 44.3 0.6 L 22.9 0.6 " transform="translate(0.0 38.0)" stroke-dasharray="21.4" stroke-dashoffset="21.4"><animate attributeName="stroke-dashoffset" from="21.4" to="0" dur="0.6419999999999999s" begin="anim1.end" fill="freeze" id="anim2" /></path><path d="M 5.2 -12.1 C 7.5 -20.0 9.2 -29.1 10.7 -39.8 " transform="translate(0.0 38.0)" stroke-dasharray="28.264700164947374" stroke-dashoffset="28.264700164947374"><animate attributeName="stroke-dashoffset" from="28.264700164947374" to="0" dur="0.8479410049484212s" begin="anim2.end" fill="freeze" id="anim3" /></path><path d="M 33.4 -0.4 L 33.4 -19.2 " transform="translate(0.0 38.0)" stroke-dasharray="18.8" stroke-dashoffset="18.8"><animate attributeName="stroke-dashoffset" from="18.8" to="0" dur="0.564s" begin="anim3.end" fill="freeze" id="anim4" /></path><path d="M 46.2 -9.9 L 21.0 -9.9 " transform="translate(0.0 38.0)" stroke-dasharray="25.200000000000003" stroke-dashoffset="25.200000000000003"><animate attributeName="stroke-dashoffset" from="25.200000000000003" to="0" dur="0.756s" begin="anim4.end" fill="freeze" id="anim5" /></path><path d="M 24.0 -18.4 C 29.6 -18.7 36.5 -19.6 42.1 -21.0 " transform="translate(0.0 38.0)" stroke-dasharray="18.310876579128166" stroke-dashoffset="18.310876579128166"><animate attributeName="stroke-dashoffset" from="18.310876579128166" to="0" dur="0.549326297373845s" begin="anim5.end" fill="freeze" id="anim6" /></path><path d="M 21.4 -25.2 C 23.2 -28.2 24.6 -31.9 25.8 -36.1 " transform="translate(0.0 38.0)" stroke-dasharray="11.787456682669854" stroke-dashoffset="11.787456682669854"><animate attributeName="stroke-dashoffset" from="11.787456682669854" to="0" dur="0.3536237004800956s" begin="anim6.end" fill="freeze" id="anim7" /></path><path d="M 34.4 -27.1 C 33.8 -28.8 33.0 -30.4 32.3 -31.8 " transform="translate(0.0 38.0)" stroke-dasharray="5.151374366951756" stroke-dashoffset="5.151374366951756"><animate attributeName="stroke-dashoffset" from="5.151374366951756" to="0" dur="0.15454123100855266s" begin="anim7.end" fill="freeze" id="anim8" /></path><path d="M 26.1 -35.5 C 31.8 -36.0 37.2 -37.2 42.3 -38.9 " transform="translate(0.0 38.0)" stroke-dasharray="16.59106577735612" stroke-dashoffset="16.59106577735612"><animate attributeName="stroke-dashoffset" from="16.59106577735612" to="0" dur="0.49773197332068364s" begin="anim8.end" fill="freeze" id="anim9" /></path><path d="M 45.6 -27.1 C 44.6 -28.9 42.8 -31.4 41.5 -32.8" transform="translate(0.0 38.0)" stroke-dasharray="7.034413954044512" stroke-dashoffset="7.034413954044512"><animate attributeName="stroke-dashoffset" from="7.034413954044512" to="0" dur="0.21103241862133534s" begin="anim9.end" fill="freeze" id="anim_end" /></path></g></svg>