<?xml version='1.0' encoding='utf-8'?>
<svg viewBox="0.0 -6.0 50.0 50.0" version="1.1" xmlns="http://www.w3.org/2000/svg"><rect x="-1000" y="-1000" width="2000" height="2000" stroke="white" fill="white" /><g style="fill:none;stroke:#000000;stroke-width:1"><path d="M 25.9 -9.4 L 37.6 -9.4 C 40.5 -9.4 41.2 -10.5 41.2 -12.4 L 41.2 -18.1 C 41.2 -19.9 40.3 -20.9 37.5 -20.9 L 26.1 -20.9 C 23.2 -20.9 22.2 -19.9 22.2 -18.1 L 22.2 -12.4 C 22.2 -10.5 23.1 -9.4 25.9 -9.4 Z " transform="translate(0.0 38.0)" stroke-dasharray="56.31117471987599" stroke-dashoffset="56.31117471987599"><animate attributeName="stroke-dashoffset" from="56.31117471987599" to="0" dur="1.6893352415962797s" begin="0s" fill="freeze" /></path><path d="M 3.8 -8.2 C 7.3 -9.2 12.7 -11.4 16.1 -13.3 " transform="translate(0.0 38.0)" stroke-dasharray="13.33819749366701" stroke-dashoffset="13.33819749366701"><animate attributeName="stroke-dashoffset" from="13.33819749366701" to="0" dur="0.4001459248100103s" begin="1.6893352415962797s" fill="freeze" /></path><path d="M 14.7 2.5 C 21.7 1.1 26.4 -2.9 28.0 -9.2 " transform="translate(0.0 38.0)" stroke-dasharray="18.78089429408294" stroke-dashoffset="18.78089429408294"><animate attributeName="stroke-dashoffset" from="18.78089429408294" to="0" dur="0.5634268288224882s" begin="2.08948116640629s" fill="freeze" /></path><path d="M 9.9 -10.2 L 9.9 -39.2 " transform="translate(0.0 38.0)" stroke-dasharray="29.000000000000004" stroke-dashoffset="29.000000000000004"><animate attributeName="stroke-dashoffset" from="29.000000000000004" to="0" dur="0.8700000000000001s" begin="2.652907995228778s" fill="freeze" /></path><path d="M 15.2 -27.7 L 3.9 -27.7 " transform="translate(0.0 38.0)" stroke-dasharray="11.299999999999999" stroke-dashoffset="11.299999999999999"><animate attributeName="stroke-dashoffset" from="11.299999999999999" to="0" dur="0.33899999999999997s" begin="3.522907995228778s" fill="freeze" /></path><path d="M 46.1 -3.0 C 45.9 0.8 44.0 1.8 39.4 1.8 C 35.8 1.8 34.6 1.1 34.6 -0.8 L 34.6 -9.8 " transform="translate(0.0 38.0)" stroke-dasharray="24.74593388318109" stroke-dashoffset="24.74593388318109"><animate attributeName="stroke-dashoffset" from="24.74593388318109" to="0" dur="0.7423780164954328s" begin="3.861907995228778s" fill="freeze" /></path><path d="M 40.4 -15.2 L 23.2 -15.2 " transform="translate(0.0 38.0)" stroke-dasharray="17.2" stroke-dashoffset="17.2"><animate attributeName="stroke-dashoffset" from="17.2" to="0" dur="0.516s" begin="4.604286011724211s" fill="freeze" /></path><path d="M 27.4 -30.0 C 27.0 -30.8 26.4 -31.8 25.9 -32.4 " transform="translate(0.0 38.0)" stroke-dasharray="2.835341740500983" stroke-dashoffset="2.835341740500983"><animate attributeName="stroke-dashoffset" from="2.835341740500983" to="0" dur="0.08506025221502948s" begin="5.120286011724211s" fill="freeze" /></path><path d="M 46.5 -26.9 L 18.9 -26.9 " transform="translate(0.0 38.0)" stroke-dasharray="27.6" stroke-dashoffset="27.6"><animate attributeName="stroke-dashoffset" from="27.6" to="0" dur="0.828s" begin="5.205346263939241s" fill="freeze" /></path><path d="M 34.9 -26.8 C 36.0 -28.4 36.9 -30.2 37.8 -32.3 " transform="translate(0.0 38.0)" stroke-dasharray="6.227967536381277" stroke-dashoffset="6.227967536381277"><animate attributeName="stroke-dashoffset" from="6.227967536381277" to="0" dur="0.1868390260914383s" begin="6.033346263939241s" fill="freeze" /></path><path d="M 44.0 -36.1 L 21.1 -36.1 " transform="translate(0.0 38.0)" stroke-dasharray="22.9" stroke-dashoffset="22.9"><animate attributeName="stroke-dashoffset" from="22.9" to="0" dur="0.6869999999999999s" begin="6.220185290030679s" fill="freeze" /></path><path d="M 31.9 -35.8 L 31.9 -40.5" transform="translate(0.0 38.0)" stroke-dasharray="4.700000000000003" stroke-dashoffset="4.700000000000003"><animate attributeName="stroke-dashoffset" from="4.700000000000003" to="0" dur="0.14100000000000007s" begin="6.90718529003068s" fill="freeze" /></path></g></svg>