<?xml version='1.0' encoding='utf-8'?>
<svg viewBox="0.0 -6.0 50.0 50.0" version="1.1" xmlns="http://www.w3.org/2000/svg"><rect x="-1000" y="-1000" width="2000" height="2000" stroke="white" fill="white" /><g style="fill:none;stroke:#000000;stroke-width:1"><path d="M 44.8 -17.2 L 44.8 -20.5 C 44.8 -22.4 43.9 -23.3 41.0 -23.3 L 9.2 -23.3 C 6.2 -23.3 5.3 -22.4 5.3 -20.5 L 5.3 -16.9 " transform="translate(0.0 38.0)" stroke-dasharray="49.72669621417596" stroke-dashoffset="49.72669621417596"><animate attributeName="stroke-dashoffset" from="49.72669621417596" to="0" dur="1.4918008864252787s" begin="0s; anim_end.end" fill="freeze" id="anim0" /></path><path d="M 19.1 2.4 C 19.9 2.5 20.9 2.6 21.8 2.6 C 24.1 2.6 25.1 1.8 25.1 -0.5 L 25.1 -11.2 " transform="translate(0.0 38.0)" stroke-dasharray="18.68689593681495" stroke-dashoffset="18.68689593681495"><animate attributeName="stroke-dashoffset" from="18.68689593681495" to="0" dur="0.5606068781044484s" begin="anim0.end" fill="freeze" id="anim1" /></path><path d="M 45.7 -7.3 L 4.4 -7.3 " transform="translate(0.0 38.0)" stroke-dasharray="41.300000000000004" stroke-dashoffset="41.300000000000004"><animate attributeName="stroke-dashoffset" from="41.300000000000004" to="0" dur="1.239s" begin="anim1.end" fill="freeze" id="anim2" /></path><path d="M 25.2 -10.7 C 28.0 -11.5 30.6 -12.7 32.9 -14.2 C 34.5 -15.2 34.0 -17.0 31.6 -17.0 L 13.3 -17.0 " transform="translate(0.0 38.0)" stroke-dasharray="31.45285013947523" stroke-dashoffset="31.45285013947523"><animate attributeName="stroke-dashoffset" from="31.45285013947523" to="0" dur="0.9435855041842569s" begin="anim2.end" fill="freeze" id="anim3" /></path><path d="M 10.7 -22.9 L 9.9 -37.9 " transform="translate(0.0 38.0)" stroke-dasharray="15.02131818450032" stroke-dashoffset="15.02131818450032"><animate attributeName="stroke-dashoffset" from="15.02131818450032" to="0" dur="0.45063954553500957s" begin="anim3.end" fill="freeze" id="anim4" /></path><path d="M 16.8 -28.6 L 9.9 -28.6 " transform="translate(0.0 38.0)" stroke-dasharray="6.9" stroke-dashoffset="6.9"><animate attributeName="stroke-dashoffset" from="6.9" to="0" dur="0.207s" begin="anim4.end" fill="freeze" id="anim5" /></path><path d="M 16.6 -33.5 L 9.9 -33.5 " transform="translate(0.0 38.0)" stroke-dasharray="6.700000000000001" stroke-dashoffset="6.700000000000001"><animate attributeName="stroke-dashoffset" from="6.700000000000001" to="0" dur="0.201s" begin="anim5.end" fill="freeze" id="anim6" /></path><path d="M 10.1 -37.6 C 12.2 -38.1 14.7 -39.0 16.6 -39.9 " transform="translate(0.0 38.0)" stroke-dasharray="6.905981271231717" stroke-dashoffset="6.905981271231717"><animate attributeName="stroke-dashoffset" from="6.905981271231717" to="0" dur="0.2071794381369515s" begin="anim6.end" fill="freeze" id="anim7" /></path><path d="M 27.8 -27.0 C 26.2 -28.6 24.1 -30.3 22.6 -31.4 " transform="translate(0.0 38.0)" stroke-dasharray="6.817575986794759" stroke-dashoffset="6.817575986794759"><animate attributeName="stroke-dashoffset" from="6.817575986794759" to="0" dur="0.2045272796038428s" begin="anim7.end" fill="freeze" id="anim8" /></path><path d="M 20.6 -26.3 C 23.2 -27.6 26.9 -30.3 28.9 -32.5 " transform="translate(0.0 38.0)" stroke-dasharray="10.405240487709047" stroke-dashoffset="10.405240487709047"><animate attributeName="stroke-dashoffset" from="10.405240487709047" to="0" dur="0.3121572146312714s" begin="anim8.end" fill="freeze" id="anim9" /></path><path d="M 27.1 -35.5 C 25.6 -37.0 23.9 -38.5 22.4 -39.5 " transform="translate(0.0 38.0)" stroke-dasharray="6.180853590133378" stroke-dashoffset="6.180853590133378"><animate attributeName="stroke-dashoffset" from="6.180853590133378" to="0" dur="0.18542560770400132s" begin="anim9.end" fill="freeze" id="anim10" /></path><path d="M 20.6 -34.7 C 23.0 -35.8 26.2 -38.0 28.5 -40.2 " transform="translate(0.0 38.0)" stroke-dasharray="9.663531639672899" stroke-dashoffset="9.663531639672899"><animate attributeName="stroke-dashoffset" from="9.663531639672899" to="0" dur="0.2899059491901869s" begin="anim10.end" fill="freeze" id="anim11" /></path><path d="M 39.9 -28.6 L 33.0 -28.6 " transform="translate(0.0 38.0)" stroke-dasharray="6.899999999999999" stroke-dashoffset="6.899999999999999"><animate attributeName="stroke-dashoffset" from="6.899999999999999" to="0" dur="0.20699999999999996s" begin="anim11.end" fill="freeze" id="anim12" /></path><path d="M 39.6 -23.7 L 40.5 -36.1 C 40.6 -38.0 39.9 -38.6 37.6 -38.6 L 32.7 -38.6 " transform="translate(0.0 38.0)" stroke-dasharray="21.90323340333478" stroke-dashoffset="21.90323340333478"><animate attributeName="stroke-dashoffset" from="21.90323340333478" to="0" dur="0.6570970021000434s" begin="anim12.end" fill="freeze" id="anim13" /></path><path d="M 39.9 -33.5 L 33.2 -33.5" transform="translate(0.0 38.0)" stroke-dasharray="6.699999999999996" stroke-dashoffset="6.699999999999996"><animate attributeName="stroke-dashoffset" from="6.699999999999996" to="0" dur="0.20099999999999987s" begin="anim13.end" fill="freeze" id="anim_end" /></path></g></svg>