<?xml version='1.0' encoding='utf-8'?>
<svg viewBox="0.0 -6.0 50.0 50.0" version="1.1" xmlns="http://www.w3.org/2000/svg"><rect x="-1000" y="-1000" width="2000" height="2000" stroke="white" fill="white" /><g style="fill:none;stroke:#000000;stroke-width:1"><path d="M 42.9 1.6 L 42.9 -7.9 C 42.9 -10.2 42.0 -11.2 39.5 -11.2 L 25.1 -11.2 C 22.6 -11.2 21.6 -10.2 21.6 -7.9 L 21.6 1.6 " transform="translate(0.0 38.0)" stroke-dasharray="44.50317350715052" stroke-dashoffset="44.50317350715052"><animate attributeName="stroke-dashoffset" from="44.50317350715052" to="0" dur="1.3350952052145155s" begin="0s; 15s; 30s; 45s" fill="freeze" id="anim0" /></path><path d="M 4.0 -6.5 C 7.6 -7.7 12.4 -9.6 15.8 -11.4 " transform="translate(0.0 38.0)" stroke-dasharray="12.789266569741688" stroke-dashoffset="12.789266569741688"><animate attributeName="stroke-dashoffset" from="12.789266569741688" to="0" dur="0.38367799709225064s" begin="anim0.end" fill="freeze" id="anim1" /></path><path d="M 15.4 1.5 L 47.2 1.5 " transform="translate(0.0 38.0)" stroke-dasharray="31.800000000000004" stroke-dashoffset="31.800000000000004"><animate attributeName="stroke-dashoffset" from="31.800000000000004" to="0" dur="0.9540000000000001s" begin="anim1.end" fill="freeze" id="anim2" /></path><path d="M 28.6 1.6 L 28.6 -10.3 " transform="translate(0.0 38.0)" stroke-dasharray="11.9" stroke-dashoffset="11.9"><animate attributeName="stroke-dashoffset" from="11.9" to="0" dur="0.357s" begin="anim2.end" fill="freeze" id="anim3" /></path><path d="M 10.2 -8.0 L 10.2 -39.0 " transform="translate(0.0 38.0)" stroke-dasharray="31.0" stroke-dashoffset="31.0"><animate attributeName="stroke-dashoffset" from="31.0" to="0" dur="0.9299999999999999s" begin="anim3.end" fill="freeze" id="anim4" /></path><path d="M 4.2 -26.2 L 15.4 -26.2 " transform="translate(0.0 38.0)" stroke-dasharray="11.2" stroke-dashoffset="11.2"><animate attributeName="stroke-dashoffset" from="11.2" to="0" dur="0.33599999999999997s" begin="anim4.end" fill="freeze" id="anim5" /></path><path d="M 35.7 1.6 L 35.7 -10.3 " transform="translate(0.0 38.0)" stroke-dasharray="11.9" stroke-dashoffset="11.9"><animate attributeName="stroke-dashoffset" from="11.9" to="0" dur="0.357s" begin="anim5.end" fill="freeze" id="anim6" /></path><path d="M 28.2 -17.9 L 36.9 -17.9 C 39.5 -17.9 40.2 -18.9 40.2 -20.6 L 40.2 -23.6 C 40.2 -25.4 39.5 -26.2 36.9 -26.2 L 28.2 -26.2 C 25.6 -26.2 24.9 -25.4 24.9 -23.6 L 24.9 -20.6 C 24.9 -18.9 25.6 -17.9 28.2 -17.9 Z " transform="translate(0.0 38.0)" stroke-dasharray="43.10467131448732" stroke-dashoffset="43.10467131448732"><animate attributeName="stroke-dashoffset" from="43.10467131448732" to="0" dur="1.2931401394346196s" begin="anim6.end" fill="freeze" id="anim7" /></path><path d="M 19.8 -28.0 C 22.6 -31.1 25.2 -35.2 27.0 -39.5 " transform="translate(0.0 38.0)" stroke-dasharray="13.629608338751598" stroke-dashoffset="13.629608338751598"><animate attributeName="stroke-dashoffset" from="13.629608338751598" to="0" dur="0.40888825016254793s" begin="anim7.end" fill="freeze" id="anim8" /></path><path d="M 24.7 -33.3 L 44.9 -33.3" transform="translate(0.0 38.0)" stroke-dasharray="20.2" stroke-dashoffset="20.2"><animate attributeName="stroke-dashoffset" from="20.2" to="0" dur="0.606s" begin="anim8.end" fill="freeze" id="anim_end" /></path></g></svg>