<?xml version='1.0' encoding='utf-8'?>
<svg viewBox="0.0 -6.0 50.0 50.0" version="1.1" xmlns="http://www.w3.org/2000/svg"><rect x="-1000" y="-1000" width="2000" height="2000" stroke="white" fill="white" /><g style="fill:none;stroke:#000000;stroke-width:1"><path d="M 14.7 -27.8 L 35.5 -27.8 C 38.6 -27.8 39.5 -28.7 39.5 -30.6 L 39.5 -36.1 C 39.5 -38.0 38.6 -39.0 35.5 -39.0 L 14.7 -39.0 C 11.6 -39.0 10.7 -38.0 10.7 -36.1 L 10.7 -30.6 C 10.7 -28.7 11.6 -27.8 14.7 -27.8 Z " transform="translate(0.0 38.0)" stroke-dasharray="75.32308128437232" stroke-dashoffset="75.32308128437232"><animate attributeName="stroke-dashoffset" from="75.32308128437232" to="0" dur="2.2596924385311694s" begin="0s" fill="freeze" /></path><path d="M 6.0 -8.1 C 7.2 -9.4 8.4 -11.2 9.3 -12.9 " transform="translate(0.0 38.0)" stroke-dasharray="5.839795854751085" stroke-dashoffset="5.839795854751085"><animate attributeName="stroke-dashoffset" from="5.839795854751085" to="0" dur="0.17519387564253253s" begin="2.2596924385311694s" fill="freeze" /></path><path d="M 44.9 1.5 L 5.0 1.5 " transform="translate(0.0 38.0)" stroke-dasharray="39.9" stroke-dashoffset="39.9"><animate attributeName="stroke-dashoffset" from="39.9" to="0" dur="1.1969999999999998s" begin="2.434886314173702s" fill="freeze" /></path><path d="M 24.9 1.4 L 24.9 -8.0 " transform="translate(0.0 38.0)" stroke-dasharray="9.4" stroke-dashoffset="9.4"><animate attributeName="stroke-dashoffset" from="9.4" to="0" dur="0.282s" begin="3.631886314173702s" fill="freeze" /></path><path d="M 39.5 -4.5 L 10.5 -4.5 " transform="translate(0.0 38.0)" stroke-dasharray="29.0" stroke-dashoffset="29.0"><animate attributeName="stroke-dashoffset" from="29.0" to="0" dur="0.87s" begin="3.913886314173702s" fill="freeze" /></path><path d="M 19.6 -9.1 C 19.1 -10.8 18.6 -11.8 18.0 -13.0 " transform="translate(0.0 38.0)" stroke-dasharray="4.2224831885926255" stroke-dashoffset="4.2224831885926255"><animate attributeName="stroke-dashoffset" from="4.2224831885926255" to="0" dur="0.12667449565777877s" begin="4.783886314173702s" fill="freeze" /></path><path d="M 45.9 -16.9 L 4.2 -16.9 " transform="translate(0.0 38.0)" stroke-dasharray="41.699999999999996" stroke-dashoffset="41.699999999999996"><animate attributeName="stroke-dashoffset" from="41.699999999999996" to="0" dur="1.251s" begin="4.91056080983148s" fill="freeze" /></path><path d="M 31.9 -9.6 C 31.3 -10.8 30.6 -11.9 29.8 -13.1 " transform="translate(0.0 38.0)" stroke-dasharray="4.084426937319643" stroke-dashoffset="4.084426937319643"><animate attributeName="stroke-dashoffset" from="4.084426937319643" to="0" dur="0.12253280811958928s" begin="6.16156080983148s" fill="freeze" /></path><path d="M 42.0 -22.4 L 8.4 -22.4 " transform="translate(0.0 38.0)" stroke-dasharray="33.6" stroke-dashoffset="33.6"><animate attributeName="stroke-dashoffset" from="33.6" to="0" dur="1.008s" begin="6.284093617951069s" fill="freeze" /></path><path d="M 24.9 -16.6 L 24.9 -38.4 " transform="translate(0.0 38.0)" stroke-dasharray="21.799999999999997" stroke-dashoffset="21.799999999999997"><animate attributeName="stroke-dashoffset" from="21.799999999999997" to="0" dur="0.6539999999999999s" begin="7.292093617951069s" fill="freeze" /></path><path d="M 44.5 -8.8 C 43.4 -10.4 42.1 -11.9 40.9 -13.2 " transform="translate(0.0 38.0)" stroke-dasharray="5.689920178931779" stroke-dashoffset="5.689920178931779"><animate attributeName="stroke-dashoffset" from="5.689920178931779" to="0" dur="0.17069760536795336s" begin="7.946093617951069s" fill="freeze" /></path><path d="M 39.5 -33.4 L 11.7 -33.4" transform="translate(0.0 38.0)" stroke-dasharray="27.8" stroke-dashoffset="27.8"><animate attributeName="stroke-dashoffset" from="27.8" to="0" dur="0.834s" begin="8.116791223319023s" fill="freeze" /></path></g></svg>