<?xml version='1.0' encoding='utf-8'?>
<svg viewBox="0.0 -6.0 50.0 50.0" version="1.1" xmlns="http://www.w3.org/2000/svg"><rect x="-1000" y="-1000" width="2000" height="2000" stroke="white" fill="white" /><g style="fill:none;stroke:#000000;stroke-width:1"><path d="M 4.5 2.6 C 8.6 -1.8 10.8 -7.7 10.8 -14.9 L 10.8 -18.1 C 10.8 -20.6 11.8 -21.5 15.1 -21.5 L 36.9 -21.5 C 39.5 -21.5 40.5 -20.5 40.5 -18.6 L 40.5 -15.3 C 40.5 -13.3 39.6 -12.4 36.9 -12.4 L 10.6 -12.4 " transform="translate(0.0 38.0)" stroke-dasharray="90.77734041129484" stroke-dashoffset="90.77734041129484"><animate attributeName="stroke-dashoffset" from="90.77734041129484" to="0" dur="2.7233202123388454s" begin="0s; 15s; 30s; 45s" fill="freeze" id="anim0" /></path><path d="M 25.2 -12.7 L 25.2 -21.6 " transform="translate(0.0 38.0)" stroke-dasharray="8.900000000000002" stroke-dashoffset="8.900000000000002"><animate attributeName="stroke-dashoffset" from="8.900000000000002" to="0" dur="0.26700000000000007s" begin="anim0.end" fill="freeze" id="anim1" /></path><path d="M 41.0 -28.4 L 9.1 -28.4 " transform="translate(0.0 38.0)" stroke-dasharray="31.9" stroke-dashoffset="31.9"><animate attributeName="stroke-dashoffset" from="31.9" to="0" dur="0.957s" begin="anim1.end" fill="freeze" id="anim2" /></path><path d="M 24.9 -28.7 L 24.9 -40.7 " transform="translate(0.0 38.0)" stroke-dasharray="12.000000000000004" stroke-dashoffset="12.000000000000004"><animate attributeName="stroke-dashoffset" from="12.000000000000004" to="0" dur="0.3600000000000001s" begin="anim2.end" fill="freeze" id="anim3" /></path><path d="M 45.1 -35.6 L 5.0 -35.6" transform="translate(0.0 38.0)" stroke-dasharray="40.1" stroke-dashoffset="40.1"><animate attributeName="stroke-dashoffset" from="40.1" to="0" dur="1.203s" begin="anim3.end" fill="freeze" id="anim_end" /></path></g></svg>