<?xml version='1.0' encoding='utf-8'?>
<svg viewBox="0.0 -6.0 50.0 50.0" version="1.1" xmlns="http://www.w3.org/2000/svg"><rect x="-1000" y="-1000" width="2000" height="2000" stroke="white" fill="white" /><g style="fill:none;stroke:#000000;stroke-width:1"><path d="M 22.5 -16.8 L 22.5 -1.9 C 22.5 0.3 23.6 1.2 26.6 1.2 L 39.8 1.2 C 42.7 1.2 43.6 0.3 43.6 -1.9 L 43.6 -14.5 C 43.6 -16.6 42.7 -17.6 39.8 -17.6 L 35.3 -17.6 " transform="translate(0.0 38.0)" stroke-dasharray="62.5897795646403" stroke-dashoffset="62.5897795646403"><animate attributeName="stroke-dashoffset" from="62.5897795646403" to="0" dur="1.877693386939209s" begin="0s; anim_end.end" fill="freeze" id="anim0" /></path><path d="M 8.6 -11.2 L 11.3 -11.2 C 13.6 -11.2 14.5 -12.1 14.5 -14.3 L 14.5 -32.6 C 14.5 -34.9 13.6 -35.8 11.3 -35.8 L 8.6 -35.8 C 6.3 -35.8 5.4 -34.9 5.4 -32.6 L 5.4 -14.3 C 5.4 -12.1 6.3 -11.2 8.6 -11.2 Z " transform="translate(0.0 38.0)" stroke-dasharray="62.92379482944397" stroke-dashoffset="62.92379482944397"><animate attributeName="stroke-dashoffset" from="62.92379482944397" to="0" dur="1.887713844883319s" begin="anim0.end" fill="freeze" id="anim1" /></path><path d="M 29.9 -8.8 L 22.5 -8.8 " transform="translate(0.0 38.0)" stroke-dasharray="7.399999999999999" stroke-dashoffset="7.399999999999999"><animate attributeName="stroke-dashoffset" from="7.399999999999999" to="0" dur="0.22199999999999995s" begin="anim1.end" fill="freeze" id="anim2" /></path><path d="M 22.7 -16.0 C 25.4 -17.1 28.2 -18.7 30.4 -20.4 " transform="translate(0.0 38.0)" stroke-dasharray="8.893901601199255" stroke-dashoffset="8.893901601199255"><animate attributeName="stroke-dashoffset" from="8.893901601199255" to="0" dur="0.26681704803597767s" begin="anim2.end" fill="freeze" id="anim3" /></path><path d="M 43.7 -8.8 L 35.5 -8.8 " transform="translate(0.0 38.0)" stroke-dasharray="8.200000000000003" stroke-dashoffset="8.200000000000003"><animate attributeName="stroke-dashoffset" from="8.200000000000003" to="0" dur="0.24600000000000008s" begin="anim3.end" fill="freeze" id="anim4" /></path><path d="M 20.8 -24.1 C 24.6 -28.2 27.9 -34.5 29.7 -39.6 " transform="translate(0.0 38.0)" stroke-dasharray="17.982552156149115" stroke-dashoffset="17.982552156149115"><animate attributeName="stroke-dashoffset" from="17.982552156149115" to="0" dur="0.5394765646844735s" begin="anim4.end" fill="freeze" id="anim5" /></path><path d="M 33.9 -24.9 C 34.7 -24.8 35.8 -24.6 36.9 -24.6 C 38.8 -24.6 39.7 -25.4 40.5 -27.3 C 41.2 -28.8 41.5 -30.4 41.8 -32.0 C 42.0 -33.9 41.1 -35.0 38.6 -35.0 L 27.5 -35.0" transform="translate(0.0 38.0)" stroke-dasharray="29.035908548739652" stroke-dashoffset="29.035908548739652"><animate attributeName="stroke-dashoffset" from="29.035908548739652" to="0" dur="0.8710772564621895s" begin="anim5.end" fill="freeze" id="anim_end" /></path></g></svg>