<?xml version='1.0' encoding='utf-8'?>
<svg viewBox="0.0 -6.0 50.0 50.0" version="1.1" xmlns="http://www.w3.org/2000/svg"><rect x="-1000" y="-1000" width="2000" height="2000" stroke="white" fill="white" /><g style="fill:none;stroke:#000000;stroke-width:1"><path d="M 30.5 1.2 C 31.7 1.6 33.0 1.7 34.2 1.7 C 37.2 1.7 39.3 0.4 40.4 -4.2 C 41.8 -10.5 42.8 -20.2 42.8 -28.8 C 42.8 -31.5 41.6 -33.0 38.0 -33.0 L 12.1 -33.0 " transform="translate(0.0 38.0)" stroke-dasharray="71.21537041303675" stroke-dashoffset="71.21537041303675"><animate attributeName="stroke-dashoffset" from="71.21537041303675" to="0" dur="2.1364611123911024s" begin="0s" fill="freeze" /></path><path d="M 31.7 -12.9 C 31.1 -8.2 29.2 -7.3 22.3 -7.3 C 15.6 -7.3 14.4 -8.1 14.4 -10.8 L 14.4 -25.2 " transform="translate(0.0 38.0)" stroke-dasharray="36.81671823623076" stroke-dashoffset="36.81671823623076"><animate attributeName="stroke-dashoffset" from="36.81671823623076" to="0" dur="1.1045015470869228s" begin="2.1364611123911024s" fill="freeze" /></path><path d="M 4.5 -23.0 C 8.5 -26.9 12.8 -33.6 15.2 -40.0 " transform="translate(0.0 38.0)" stroke-dasharray="20.22685392363918" stroke-dashoffset="20.22685392363918"><animate attributeName="stroke-dashoffset" from="20.22685392363918" to="0" dur="0.6068056177091754s" begin="3.240962659478025s" fill="freeze" /></path><path d="M 14.3 -16.8 C 19.1 -18.1 24.2 -20.1 28.7 -22.6" transform="translate(0.0 38.0)" stroke-dasharray="15.560812156434563" stroke-dashoffset="15.560812156434563"><animate attributeName="stroke-dashoffset" from="15.560812156434563" to="0" dur="0.4668243646930369s" begin="3.8477682771872006s" fill="freeze" /></path></g></svg>