<?xml version='1.0' encoding='utf-8'?>
<svg viewBox="0.0 -6.0 50.0 50.0" version="1.1" xmlns="http://www.w3.org/2000/svg"><rect x="-1000" y="-1000" width="2000" height="2000" stroke="white" fill="white" /><g style="fill:none;stroke:#000000;stroke-width:1"><path d="M 14.9 2.5 C 24.6 1.1 33.6 -3.0 37.5 -7.5 C 39.0 -9.4 38.3 -10.9 35.7 -10.9 L 26.4 -10.9 " transform="translate(0.0 38.0)" stroke-dasharray="39.83766908842007" stroke-dashoffset="39.83766908842007"><animate attributeName="stroke-dashoffset" from="39.83766908842007" to="0" dur="1.1951300726526022s" begin="0s" fill="freeze" /></path><path d="M 15.1 -4.8 C 21.1 -7.2 26.9 -11.4 30.1 -16.0 " transform="translate(0.0 38.0)" stroke-dasharray="18.962631306808664" stroke-dashoffset="18.962631306808664"><animate attributeName="stroke-dashoffset" from="18.962631306808664" to="0" dur="0.5688789392042599s" begin="1.1951300726526022s" fill="freeze" /></path><path d="M 14.1 -15.2 L 14.1 -33.0 C 14.1 -35.2 13.1 -36.1 11.1 -36.1 L 8.2 -36.1 C 6.1 -36.1 5.2 -35.2 5.2 -33.0 L 5.2 -15.2 C 5.2 -12.9 6.1 -12.1 8.2 -12.1 L 11.1 -12.1 C 13.1 -12.1 14.1 -12.9 14.1 -15.2 Z " transform="translate(0.0 38.0)" stroke-dasharray="61.43032138629166" stroke-dashoffset="61.43032138629166"><animate attributeName="stroke-dashoffset" from="61.43032138629166" to="0" dur="1.8429096415887498s" begin="1.764009011856862s" fill="freeze" /></path><path d="M 46.1 1.6 C 38.0 0.5 29.6 -3.6 25.6 -9.4 " transform="translate(0.0 38.0)" stroke-dasharray="23.877987759266322" stroke-dashoffset="23.877987759266322"><animate attributeName="stroke-dashoffset" from="23.877987759266322" to="0" dur="0.7163396327779896s" begin="3.6069186534456117s" fill="freeze" /></path><path d="M 40.9 -21.9 L 23.4 -21.9 " transform="translate(0.0 38.0)" stroke-dasharray="17.5" stroke-dashoffset="17.5"><animate attributeName="stroke-dashoffset" from="17.5" to="0" dur="0.525s" begin="4.323258286223601s" fill="freeze" /></path><path d="M 22.4 -29.6 L 22.4 -19.4 C 22.4 -17.4 23.4 -16.4 26.1 -16.4 L 38.2 -16.4 C 41.0 -16.4 42.0 -17.4 42.0 -19.4 L 42.0 -29.6 C 42.0 -31.6 41.0 -32.5 38.2 -32.5 L 26.1 -32.5 C 23.4 -32.5 22.4 -31.6 22.4 -29.6 Z " transform="translate(0.0 38.0)" stroke-dasharray="66.66474010630097" stroke-dashoffset="66.66474010630097"><animate attributeName="stroke-dashoffset" from="66.66474010630097" to="0" dur="1.999942203189029s" begin="4.848258286223602s" fill="freeze" /></path><path d="M 40.9 -27.1 L 23.4 -27.1 " transform="translate(0.0 38.0)" stroke-dasharray="17.5" stroke-dashoffset="17.5"><animate attributeName="stroke-dashoffset" from="17.5" to="0" dur="0.525s" begin="6.848200489412631s" fill="freeze" /></path><path d="M 30.1 -32.9 C 30.7 -34.1 31.5 -35.9 32.2 -37.9 " transform="translate(0.0 38.0)" stroke-dasharray="5.426486419134436" stroke-dashoffset="5.426486419134436"><animate attributeName="stroke-dashoffset" from="5.426486419134436" to="0" dur="0.1627945925740331s" begin="7.373200489412631s" fill="freeze" /></path><path d="M 46.6 -38.5 L 18.6 -38.5" transform="translate(0.0 38.0)" stroke-dasharray="28.0" stroke-dashoffset="28.0"><animate attributeName="stroke-dashoffset" from="28.0" to="0" dur="0.84s" begin="7.535995081986664s" fill="freeze" /></path></g></svg>