<?xml version='1.0' encoding='utf-8'?>
<svg viewBox="0.0 -6.0 50.0 50.0" version="1.1" xmlns="http://www.w3.org/2000/svg"><rect x="-1000" y="-1000" width="2000" height="2000" stroke="white" fill="white" /><g style="fill:none;stroke:#000000;stroke-width:1"><path d="M 35.4 -10.2 C 36.3 -10.1 36.9 -9.9 37.8 -9.9 C 40.1 -9.9 41.1 -10.8 41.1 -13.6 L 41.1 -22.6 C 41.1 -24.8 40.3 -25.6 37.6 -25.6 L 32.8 -25.6 C 30.1 -25.6 29.4 -24.8 29.4 -22.6 L 29.4 -2.0 C 29.4 0.8 30.7 1.4 36.2 1.4 C 43.4 1.4 45.3 0.7 45.9 -3.9 " transform="translate(0.0 38.0)" stroke-dasharray="74.82171320054519" stroke-dashoffset="74.82171320054519"><animate attributeName="stroke-dashoffset" from="74.82171320054519" to="0" dur="2.2446513960163554s" begin="0s" fill="freeze" /></path><path d="M 5.5 2.0 C 13.7 -3.0 20.2 -11.7 22.1 -20.5 C 22.5 -22.6 21.7 -23.6 19.2 -23.6 L 12.6 -23.6 " transform="translate(0.0 38.0)" stroke-dasharray="40.46592961962501" stroke-dashoffset="40.46592961962501"><animate attributeName="stroke-dashoffset" from="40.46592961962501" to="0" dur="1.2139778885887502s" begin="2.2446513960163554s" fill="freeze" /></path><path d="M 16.6 -10.0 C 15.0 -11.4 13.5 -12.4 12.3 -13.1 " transform="translate(0.0 38.0)" stroke-dasharray="5.3089814413848275" stroke-dashoffset="5.3089814413848275"><animate attributeName="stroke-dashoffset" from="5.3089814413848275" to="0" dur="0.15926944324154482s" begin="3.458629284605106s" fill="freeze" /></path><path d="M 5.5 -13.1 C 9.4 -16.9 13.2 -23.3 15.0 -29.1 " transform="translate(0.0 38.0)" stroke-dasharray="18.77463887433104" stroke-dashoffset="18.77463887433104"><animate attributeName="stroke-dashoffset" from="18.77463887433104" to="0" dur="0.5632391662299312s" begin="3.617898727846651s" fill="freeze" /></path><path d="M 44.2 -29.1 L 44.2 -32.4 C 44.2 -34.2 43.3 -35.4 40.5 -35.4 L 9.7 -35.4 C 6.8 -35.4 5.9 -34.2 5.9 -32.5 L 5.9 -28.6 " transform="translate(0.0 38.0)" stroke-dasharray="48.946564778517136" stroke-dashoffset="48.946564778517136"><animate attributeName="stroke-dashoffset" from="48.946564778517136" to="0" dur="1.468396943355514s" begin="4.181137894076582s" fill="freeze" /></path><path d="M 24.9 -35.7 L 24.9 -40.6" transform="translate(0.0 38.0)" stroke-dasharray="4.899999999999999" stroke-dashoffset="4.899999999999999"><animate attributeName="stroke-dashoffset" from="4.899999999999999" to="0" dur="0.14699999999999996s" begin="5.649534837432096s" fill="freeze" /></path></g></svg>