<?xml version='1.0' encoding='utf-8'?>
<svg viewBox="0.0 -6.0 50.0 50.0" version="1.1" xmlns="http://www.w3.org/2000/svg"><rect x="-1000" y="-1000" width="2000" height="2000" stroke="white" fill="white" /><g style="fill:none;stroke:#000000;stroke-width:1"><path d="M 10.5 0.9 L 34.9 0.9 C 37.5 0.9 38.5 -0.1 38.5 -2.1 L 38.5 -11.2 C 38.5 -13.2 37.5 -14.2 34.9 -14.2 L 10.7 -14.2 " transform="translate(0.0 38.0)" stroke-dasharray="68.51953520985582" stroke-dashoffset="68.51953520985582"><animate attributeName="stroke-dashoffset" from="68.51953520985582" to="0" dur="2.0555860562956743s" begin="0s; 15s; 30s; 45s" fill="freeze" id="anim0" /></path><path d="M 45.5 -6.8 L 5.2 -6.8 " transform="translate(0.0 38.0)" stroke-dasharray="40.3" stroke-dashoffset="40.3"><animate attributeName="stroke-dashoffset" from="40.3" to="0" dur="1.2089999999999999s" begin="anim0.end" fill="freeze" id="anim1" /></path><path d="M 4.2 -21.9 C 9.8 -22.4 16.4 -23.4 22.1 -24.6 " transform="translate(0.0 38.0)" stroke-dasharray="18.11219632153555" stroke-dashoffset="18.11219632153555"><animate attributeName="stroke-dashoffset" from="18.11219632153555" to="0" dur="0.5433658896460665s" begin="anim1.end" fill="freeze" id="anim2" /></path><path d="M 14.4 -19.3 L 14.0 -40.4 " transform="translate(0.0 38.0)" stroke-dasharray="21.103791128610045" stroke-dashoffset="21.103791128610045"><animate attributeName="stroke-dashoffset" from="21.103791128610045" to="0" dur="0.6331137338583013s" begin="anim2.end" fill="freeze" id="anim3" /></path><path d="M 21.6 -29.6 L 6.6 -29.6 " transform="translate(0.0 38.0)" stroke-dasharray="15.000000000000002" stroke-dashoffset="15.000000000000002"><animate attributeName="stroke-dashoffset" from="15.000000000000002" to="0" dur="0.45s" begin="anim3.end" fill="freeze" id="anim4" /></path><path d="M 22.7 -36.0 L 4.6 -36.0 " transform="translate(0.0 38.0)" stroke-dasharray="18.1" stroke-dashoffset="18.1"><animate attributeName="stroke-dashoffset" from="18.1" to="0" dur="0.543s" begin="anim4.end" fill="freeze" id="anim5" /></path><path d="M 46.2 -23.1 L 26.5 -23.1 " transform="translate(0.0 38.0)" stroke-dasharray="19.700000000000003" stroke-dashoffset="19.700000000000003"><animate attributeName="stroke-dashoffset" from="19.700000000000003" to="0" dur="0.5910000000000001s" begin="anim5.end" fill="freeze" id="anim6" /></path><path d="M 35.4 -19.1 L 35.4 -40.4 " transform="translate(0.0 38.0)" stroke-dasharray="21.299999999999997" stroke-dashoffset="21.299999999999997"><animate attributeName="stroke-dashoffset" from="21.299999999999997" to="0" dur="0.6389999999999999s" begin="anim6.end" fill="freeze" id="anim7" /></path><path d="M 43.2 -29.6 L 28.4 -29.6 " transform="translate(0.0 38.0)" stroke-dasharray="14.800000000000004" stroke-dashoffset="14.800000000000004"><animate attributeName="stroke-dashoffset" from="14.800000000000004" to="0" dur="0.4440000000000001s" begin="anim7.end" fill="freeze" id="anim8" /></path><path d="M 45.7 -36.0 L 27.1 -36.0" transform="translate(0.0 38.0)" stroke-dasharray="18.6" stroke-dashoffset="18.6"><animate attributeName="stroke-dashoffset" from="18.6" to="0" dur="0.558s" begin="anim8.end" fill="freeze" id="anim_end" /></path></g></svg>