<?xml version='1.0' encoding='utf-8'?>
<svg viewBox="0.0 -6.0 50.0 50.0" version="1.1" xmlns="http://www.w3.org/2000/svg"><rect x="-1000" y="-1000" width="2000" height="2000" stroke="white" fill="white" /><g style="fill:none;stroke:#000000;stroke-width:1"><path d="M 19.4 1.8 C 19.9 1.9 20.8 2.0 21.7 2.0 C 23.9 2.0 24.9 1.1 24.9 -1.1 L 24.9 -23.4 " transform="translate(0.0 38.0)" stroke-dasharray="29.773904069817732" stroke-dashoffset="29.773904069817732"><animate attributeName="stroke-dashoffset" from="29.773904069817732" to="0" dur="0.893217122094532s" begin="0s" fill="freeze" /></path><path d="M 2.7 -10.0 C 5.5 -14.3 7.8 -20.4 8.9 -26.3 " transform="translate(0.0 38.0)" stroke-dasharray="17.5418666739681" stroke-dashoffset="17.5418666739681"><animate attributeName="stroke-dashoffset" from="17.5418666739681" to="0" dur="0.5262560002190431s" begin="0.893217122094532s" fill="freeze" /></path><path d="M 10.1 2.5 L 10.1 -40.4 " transform="translate(0.0 38.0)" stroke-dasharray="42.9" stroke-dashoffset="42.9"><animate attributeName="stroke-dashoffset" from="42.9" to="0" dur="1.287s" begin="1.419473122313575s" fill="freeze" /></path><path d="M 15.5 -6.0 C 18.9 -10.1 22.0 -15.8 23.7 -21.1 " transform="translate(0.0 38.0)" stroke-dasharray="17.27817749223264" stroke-dashoffset="17.27817749223264"><animate attributeName="stroke-dashoffset" from="17.27817749223264" to="0" dur="0.5183453247669791s" begin="2.706473122313575s" fill="freeze" /></path><path d="M 15.8 -16.9 C 14.6 -18.8 12.8 -20.6 10.9 -22.1 " transform="translate(0.0 38.0)" stroke-dasharray="7.177794811024741" stroke-dashoffset="7.177794811024741"><animate attributeName="stroke-dashoffset" from="7.177794811024741" to="0" dur="0.21533384433074224s" begin="3.2248184470805543s" fill="freeze" /></path><path d="M 15.3 -29.2 L 3.3 -29.2 " transform="translate(0.0 38.0)" stroke-dasharray="12.0" stroke-dashoffset="12.0"><animate attributeName="stroke-dashoffset" from="12.0" to="0" dur="0.36s" begin="3.4401522914112967s" fill="freeze" /></path><path d="M 29.6 -17.8 C 30.3 -18.8 30.9 -19.8 31.4 -21.0 C 32.0 -22.6 31.6 -23.9 29.3 -23.9 L 17.8 -23.9 " transform="translate(0.0 38.0)" stroke-dasharray="19.70362910519015" stroke-dashoffset="19.70362910519015"><animate attributeName="stroke-dashoffset" from="19.70362910519015" to="0" dur="0.5911088731557045s" begin="3.8001522914112966s" fill="freeze" /></path><path d="M 32.0 -8.8 C 35.1 -13.9 37.5 -20.6 38.8 -26.5 " transform="translate(0.0 38.0)" stroke-dasharray="19.039883843974348" stroke-dashoffset="19.039883843974348"><animate attributeName="stroke-dashoffset" from="19.039883843974348" to="0" dur="0.5711965153192304s" begin="4.391261164567001s" fill="freeze" /></path><path d="M 25.9 -28.0 C 24.9 -29.4 23.1 -31.2 21.8 -32.3 " transform="translate(0.0 38.0)" stroke-dasharray="5.953577846510363" stroke-dashoffset="5.953577846510363"><animate attributeName="stroke-dashoffset" from="5.953577846510363" to="0" dur="0.1786073353953109s" begin="4.962457679886231s" fill="freeze" /></path><path d="M 40.0 2.5 L 40.0 -40.5 " transform="translate(0.0 38.0)" stroke-dasharray="43.0" stroke-dashoffset="43.0"><animate attributeName="stroke-dashoffset" from="43.0" to="0" dur="1.29s" begin="5.1410650152815425s" fill="freeze" /></path><path d="M 24.4 -30.3 C 26.4 -31.6 28.1 -33.3 29.4 -34.9 C 30.7 -36.6 30.1 -38.1 27.8 -38.1 L 18.2 -38.1 " transform="translate(0.0 38.0)" stroke-dasharray="21.325030950206894" stroke-dashoffset="21.325030950206894"><animate attributeName="stroke-dashoffset" from="21.325030950206894" to="0" dur="0.6397509285062069s" begin="6.4310650152815425s" fill="freeze" /></path><path d="M 47.4 -9.9 C 44.5 -14.9 42.4 -21.1 40.9 -28.1 " transform="translate(0.0 38.0)" stroke-dasharray="19.403835939884402" stroke-dashoffset="19.403835939884402"><animate attributeName="stroke-dashoffset" from="19.403835939884402" to="0" dur="0.5821150781965321s" begin="7.07081594378775s" fill="freeze" /></path><path d="M 46.8 -29.4 L 34.1 -29.4" transform="translate(0.0 38.0)" stroke-dasharray="12.699999999999996" stroke-dashoffset="12.699999999999996"><animate attributeName="stroke-dashoffset" from="12.699999999999996" to="0" dur="0.38099999999999984s" begin="7.652931021984282s" fill="freeze" /></path></g></svg>