<?xml version='1.0' encoding='utf-8'?>
<svg viewBox="0.0 -6.0 50.0 50.0" version="1.1" xmlns="http://www.w3.org/2000/svg"><rect x="-1000" y="-1000" width="2000" height="2000" stroke="white" fill="white" /><g style="fill:none;stroke:#000000;stroke-width:1"><path d="M 23.1 0.7 L 39.5 0.7 C 42.9 0.7 44.1 -0.6 44.1 -3.3 L 44.1 -33.9 C 44.1 -36.5 42.9 -37.9 39.5 -37.9 L 23.1 -37.9 C 19.7 -37.9 18.4 -36.5 18.4 -33.9 L 18.4 -3.3 C 18.4 -0.6 19.7 0.7 23.1 0.7 Z " transform="translate(0.0 38.0)" stroke-dasharray="122.3688050238183" stroke-dashoffset="122.3688050238183"><animate attributeName="stroke-dashoffset" from="122.3688050238183" to="0" dur="3.6710641507145487s" begin="0s; 15s; 30s; 45s" fill="freeze" id="anim0" /></path><path d="M 5.7 0.4 C 8.0 -3.0 10.4 -8.3 11.8 -12.8 " transform="translate(0.0 38.0)" stroke-dasharray="14.585409967392582" stroke-dashoffset="14.585409967392582"><animate attributeName="stroke-dashoffset" from="14.585409967392582" to="0" dur="0.43756229902177746s" begin="anim0.end" fill="freeze" id="anim1" /></path><path d="M 8.7 -23.1 C 7.5 -24.6 5.5 -26.1 4.3 -26.9 " transform="translate(0.0 38.0)" stroke-dasharray="5.8336786267192275" stroke-dashoffset="5.8336786267192275"><animate attributeName="stroke-dashoffset" from="5.8336786267192275" to="0" dur="0.1750103588015768s" begin="anim1.end" fill="freeze" id="anim2" /></path><path d="M 28.9 -7.0 L 33.5 -7.0 C 35.5 -7.0 36.3 -7.8 36.3 -9.8 L 36.3 -15.2 C 36.3 -17.1 35.5 -17.9 33.5 -17.9 L 28.8 -17.9 C 26.8 -17.9 25.9 -17.1 25.9 -15.2 L 25.9 -9.8 C 25.9 -7.8 26.8 -7.0 28.9 -7.0 Z " transform="translate(0.0 38.0)" stroke-dasharray="38.58275618211701" stroke-dashoffset="38.58275618211701"><animate attributeName="stroke-dashoffset" from="38.58275618211701" to="0" dur="1.1574826854635103s" begin="anim2.end" fill="freeze" id="anim3" /></path><path d="M 12.1 -35.0 C 10.9 -36.3 9.2 -38.0 8.0 -38.9 " transform="translate(0.0 38.0)" stroke-dasharray="5.664781075346097" stroke-dashoffset="5.664781075346097"><animate attributeName="stroke-dashoffset" from="5.664781075346097" to="0" dur="0.16994343226038292s" begin="anim3.end" fill="freeze" id="anim4" /></path><path d="M 31.0 -17.6 L 31.0 -32.6 " transform="translate(0.0 38.0)" stroke-dasharray="15.0" stroke-dashoffset="15.0"><animate attributeName="stroke-dashoffset" from="15.0" to="0" dur="0.44999999999999996s" begin="anim4.end" fill="freeze" id="anim5" /></path><path d="M 39.1 -26.0 L 23.6 -26.0" transform="translate(0.0 38.0)" stroke-dasharray="15.5" stroke-dashoffset="15.5"><animate attributeName="stroke-dashoffset" from="15.5" to="0" dur="0.46499999999999997s" begin="anim5.end" fill="freeze" id="anim_end" /></path></g></svg>