<?xml version='1.0' encoding='utf-8'?>
<svg viewBox="0.0 -6.0 50.0 50.0" version="1.1" xmlns="http://www.w3.org/2000/svg"><rect x="-1000" y="-1000" width="2000" height="2000" stroke="white" fill="white" /><g style="fill:none;stroke:#000000;stroke-width:1"><path d="M 16.0 1.2 C 16.8 1.4 17.8 1.5 18.8 1.5 C 20.9 1.5 22.2 0.5 22.2 -2.0 L 22.2 -24.9 C 22.2 -27.1 21.2 -28.1 19.1 -28.1 L 10.7 -28.1 C 8.4 -28.1 7.5 -27.1 7.5 -24.9 L 7.5 -19.1 C 7.5 -9.2 6.5 -3.1 4.5 1.6 " transform="translate(0.0 38.0)" stroke-dasharray="76.96530643707051" stroke-dashoffset="76.96530643707051"><animate attributeName="stroke-dashoffset" from="76.96530643707051" to="0" dur="2.3089591931121154s" begin="0s" fill="freeze" /></path><path d="M 22.1 -11.8 L 8.0 -11.8 " transform="translate(0.0 38.0)" stroke-dasharray="14.100000000000001" stroke-dashoffset="14.100000000000001"><animate attributeName="stroke-dashoffset" from="14.100000000000001" to="0" dur="0.42300000000000004s" begin="2.3089591931121154s" fill="freeze" /></path><path d="M 14.7 -11.8 L 14.7 -27.1 " transform="translate(0.0 38.0)" stroke-dasharray="15.3" stroke-dashoffset="15.3"><animate attributeName="stroke-dashoffset" from="15.3" to="0" dur="0.459s" begin="2.7319591931121154s" fill="freeze" /></path><path d="M 22.1 -20.1 L 8.0 -20.1 " transform="translate(0.0 38.0)" stroke-dasharray="14.100000000000001" stroke-dashoffset="14.100000000000001"><animate attributeName="stroke-dashoffset" from="14.100000000000001" to="0" dur="0.42300000000000004s" begin="3.1909591931121155s" fill="freeze" /></path><path d="M 4.0 -29.1 C 6.5 -31.8 9.3 -35.8 11.1 -39.9 " transform="translate(0.0 38.0)" stroke-dasharray="12.979448667832875" stroke-dashoffset="12.979448667832875"><animate attributeName="stroke-dashoffset" from="12.979448667832875" to="0" dur="0.38938346003498625s" begin="3.6139591931121156s" fill="freeze" /></path><path d="M 13.9 -28.6 C 14.9 -30.1 15.7 -31.6 16.2 -32.9 C 16.9 -34.5 16.1 -35.7 14.2 -35.7 L 8.8 -35.7 " transform="translate(0.0 38.0)" stroke-dasharray="14.592631204048079" stroke-dashoffset="14.592631204048079"><animate attributeName="stroke-dashoffset" from="14.592631204048079" to="0" dur="0.43777893612144236s" begin="4.003342653147102s" fill="freeze" /></path><path d="M 27.1 -9.9 L 46.8 -14.8 " transform="translate(0.0 38.0)" stroke-dasharray="20.30024630392449" stroke-dashoffset="20.30024630392449"><animate attributeName="stroke-dashoffset" from="20.30024630392449" to="0" dur="0.6090073891177347s" begin="4.441121589268544s" fill="freeze" /></path><path d="M 32.6 -19.6 C 31.6 -20.9 30.0 -22.3 28.6 -23.2 " transform="translate(0.0 38.0)" stroke-dasharray="5.40452427931055" stroke-dashoffset="5.40452427931055"><animate attributeName="stroke-dashoffset" from="5.40452427931055" to="0" dur="0.1621357283793165s" begin="5.050128978386279s" fill="freeze" /></path><path d="M 40.1 2.3 L 40.1 -39.9 " transform="translate(0.0 38.0)" stroke-dasharray="42.199999999999996" stroke-dashoffset="42.199999999999996"><animate attributeName="stroke-dashoffset" from="42.199999999999996" to="0" dur="1.2659999999999998s" begin="5.212264706765595s" fill="freeze" /></path><path d="M 34.0 -29.9 C 33.0 -31.2 31.6 -32.5 30.2 -33.6" transform="translate(0.0 38.0)" stroke-dasharray="5.3167122105637965" stroke-dashoffset="5.3167122105637965"><animate attributeName="stroke-dashoffset" from="5.3167122105637965" to="0" dur="0.1595013663169139s" begin="6.478264706765595s" fill="freeze" /></path></g></svg>