<?xml version='1.0' encoding='utf-8'?>
<svg viewBox="0.0 -6.0 50.0 50.0" version="1.1" xmlns="http://www.w3.org/2000/svg"><rect x="-1000" y="-1000" width="2000" height="2000" stroke="white" fill="white" /><g style="fill:none;stroke:#000000;stroke-width:1"><path d="M 35.7 1.6 C 36.6 1.7 37.5 1.8 38.3 1.8 C 40.3 1.8 41.4 0.9 41.4 -1.2 L 41.4 -16.4 C 41.4 -18.4 40.5 -19.4 38.2 -19.4 L 24.9 -19.4 C 22.4 -19.4 21.6 -18.3 21.6 -16.4 L 21.6 2.5 " transform="translate(0.0 38.0)" stroke-dasharray="65.20309463837384" stroke-dashoffset="65.20309463837384"><animate attributeName="stroke-dashoffset" from="65.20309463837384" to="0" dur="1.9560928391512151s" begin="0s" fill="freeze" /></path><path d="M 5.7 0.4 C 8.0 -3.0 10.4 -8.3 11.8 -12.8 " transform="translate(0.0 38.0)" stroke-dasharray="14.585409967392582" stroke-dashoffset="14.585409967392582"><animate attributeName="stroke-dashoffset" from="14.585409967392582" to="0" dur="0.43756229902177746s" begin="1.9560928391512151s" fill="freeze" /></path><path d="M 8.7 -23.1 C 7.5 -24.6 5.5 -26.1 4.3 -26.9 " transform="translate(0.0 38.0)" stroke-dasharray="5.8336786267192275" stroke-dashoffset="5.8336786267192275"><animate attributeName="stroke-dashoffset" from="5.8336786267192275" to="0" dur="0.1750103588015768s" begin="2.3936551381729925s" fill="freeze" /></path><path d="M 40.5 -6.5 L 22.4 -6.5 " transform="translate(0.0 38.0)" stroke-dasharray="18.1" stroke-dashoffset="18.1"><animate attributeName="stroke-dashoffset" from="18.1" to="0" dur="0.543s" begin="2.5686654969745693s" fill="freeze" /></path><path d="M 40.5 -12.9 L 22.4 -12.9 " transform="translate(0.0 38.0)" stroke-dasharray="18.1" stroke-dashoffset="18.1"><animate attributeName="stroke-dashoffset" from="18.1" to="0" dur="0.543s" begin="3.1116654969745694s" fill="freeze" /></path><path d="M 12.1 -35.0 C 10.9 -36.3 9.2 -38.0 8.0 -38.9 " transform="translate(0.0 38.0)" stroke-dasharray="5.664781075346097" stroke-dashoffset="5.664781075346097"><animate attributeName="stroke-dashoffset" from="5.664781075346097" to="0" dur="0.16994343226038292s" begin="3.6546654969745695s" fill="freeze" /></path><path d="M 42.8 -31.9 L 19.2 -31.9 " transform="translate(0.0 38.0)" stroke-dasharray="23.599999999999998" stroke-dashoffset="23.599999999999998"><animate attributeName="stroke-dashoffset" from="23.599999999999998" to="0" dur="0.708s" begin="3.8246089292349525s" fill="freeze" /></path><path d="M 31.1 -25.4 L 31.1 -38.1 " transform="translate(0.0 38.0)" stroke-dasharray="12.700000000000003" stroke-dashoffset="12.700000000000003"><animate attributeName="stroke-dashoffset" from="12.700000000000003" to="0" dur="0.38100000000000006s" begin="4.532608929234953s" fill="freeze" /></path><path d="M 23.2 -25.1 L 39.9 -25.1 C 43.0 -25.1 44.1 -26.2 44.1 -28.4 L 44.1 -35.1 C 44.1 -37.4 43.0 -38.4 39.9 -38.4 L 23.2 -38.4 C 20.1 -38.4 18.9 -37.4 18.9 -35.1 L 18.9 -28.4 C 18.9 -26.2 20.1 -25.1 23.2 -25.1 Z" transform="translate(0.0 38.0)" stroke-dasharray="71.669985927659" stroke-dashoffset="71.669985927659"><animate attributeName="stroke-dashoffset" from="71.669985927659" to="0" dur="2.15009957782977s" begin="4.913608929234953s" fill="freeze" /></path></g></svg>