<?xml version='1.0' encoding='utf-8'?>
<svg viewBox="0.0 -6.0 50.0 50.0" version="1.1" xmlns="http://www.w3.org/2000/svg"><rect x="-1000" y="-1000" width="2000" height="2000" stroke="white" fill="white" /><g style="fill:none;stroke:#000000;stroke-width:1"><path d="M 24.9 0.1 C 33.4 -4.6 39.8 -12.5 42.0 -21.8 C 42.5 -23.9 41.8 -25.1 39.1 -25.1 L 31.6 -25.1 " transform="translate(0.0 38.0)" stroke-dasharray="41.51587548742442" stroke-dashoffset="41.51587548742442"><animate attributeName="stroke-dashoffset" from="41.51587548742442" to="0" dur="1.2454762646227324s" begin="0s; 15s; 30s; 45s" fill="freeze" id="anim0" /></path><path d="M 4.9 0.6 C 7.0 -2.9 9.2 -8.2 10.4 -12.6 " transform="translate(0.0 38.0)" stroke-dasharray="14.33791251835881" stroke-dashoffset="14.33791251835881"><animate attributeName="stroke-dashoffset" from="14.33791251835881" to="0" dur="0.43013737555076426s" begin="anim0.end" fill="freeze" id="anim1" /></path><path d="M 19.6 2.4 L 19.6 -19.4 " transform="translate(0.0 38.0)" stroke-dasharray="21.799999999999997" stroke-dashoffset="21.799999999999997"><animate attributeName="stroke-dashoffset" from="21.799999999999997" to="0" dur="0.6539999999999999s" begin="anim1.end" fill="freeze" id="anim2" /></path><path d="M 8.0 -23.1 C 6.8 -24.4 4.9 -26.1 3.8 -26.8 " transform="translate(0.0 38.0)" stroke-dasharray="5.6082496471477254" stroke-dashoffset="5.6082496471477254"><animate attributeName="stroke-dashoffset" from="5.6082496471477254" to="0" dur="0.16824748941443177s" begin="anim2.end" fill="freeze" id="anim3" /></path><path d="M 14.8 -15.8 C 17.4 -18.9 20.4 -24.4 22.3 -29.5 " transform="translate(0.0 38.0)" stroke-dasharray="15.681314049524142" stroke-dashoffset="15.681314049524142"><animate attributeName="stroke-dashoffset" from="15.681314049524142" to="0" dur="0.4704394214857242s" begin="anim3.end" fill="freeze" id="anim4" /></path><path d="M 10.8 -35.4 C 9.8 -36.6 8.2 -38.1 7.0 -39.0 " transform="translate(0.0 38.0)" stroke-dasharray="5.244048205037015" stroke-dashoffset="5.244048205037015"><animate attributeName="stroke-dashoffset" from="5.244048205037015" to="0" dur="0.15732144615111046s" begin="anim4.end" fill="freeze" id="anim5" /></path><path d="M 45.8 0.3 C 37.8 -3.3 31.4 -10.7 28.9 -19.5 " transform="translate(0.0 38.0)" stroke-dasharray="26.8526534559247" stroke-dashoffset="26.8526534559247"><animate attributeName="stroke-dashoffset" from="26.8526534559247" to="0" dur="0.805579603677741s" begin="anim5.end" fill="freeze" id="anim6" /></path><path d="M 25.4 -15.5 C 28.9 -19.5 31.9 -24.9 33.6 -29.6 " transform="translate(0.0 38.0)" stroke-dasharray="16.396818098959887" stroke-dashoffset="16.396818098959887"><animate attributeName="stroke-dashoffset" from="16.396818098959887" to="0" dur="0.4919045429687966s" begin="anim6.end" fill="freeze" id="anim7" /></path><path d="M 35.7 -17.9 C 35.2 -18.6 34.6 -19.3 34.0 -20.0 " transform="translate(0.0 38.0)" stroke-dasharray="2.702757992417086" stroke-dashoffset="2.702757992417086"><animate attributeName="stroke-dashoffset" from="2.702757992417086" to="0" dur="0.08108273977251257s" begin="anim7.end" fill="freeze" id="anim8" /></path><path d="M 46.2 -34.4 L 16.6 -34.4 " transform="translate(0.0 38.0)" stroke-dasharray="29.6" stroke-dashoffset="29.6"><animate attributeName="stroke-dashoffset" from="29.6" to="0" dur="0.888s" begin="anim8.end" fill="freeze" id="anim9" /></path><path d="M 30.4 -35.0 L 30.4 -40.4" transform="translate(0.0 38.0)" stroke-dasharray="5.399999999999999" stroke-dashoffset="5.399999999999999"><animate attributeName="stroke-dashoffset" from="5.399999999999999" to="0" dur="0.16199999999999995s" begin="anim9.end" fill="freeze" id="anim_end" /></path></g></svg>