<?xml version='1.0' encoding='utf-8'?>
<svg viewBox="0.0 -6.0 50.0 50.0" version="1.1" xmlns="http://www.w3.org/2000/svg"><rect x="-1000" y="-1000" width="2000" height="2000" stroke="white" fill="white" /><g style="fill:none;stroke:#000000;stroke-width:1"><path d="M 15.8 0.7 C 19.8 -5.0 21.6 -11.1 21.6 -24.2 L 21.6 -28.4 C 21.6 -30.9 22.8 -32.0 26.0 -32.0 L 44.9 -32.0 " transform="translate(0.0 38.0)" stroke-dasharray="55.71029606247143" stroke-dashoffset="55.71029606247143"><animate attributeName="stroke-dashoffset" from="55.71029606247143" to="0" dur="1.6713088818741428s" begin="0s" fill="freeze" /></path><path d="M 3.8 -13.4 C 8.2 -14.7 12.7 -16.2 15.8 -17.6 " transform="translate(0.0 38.0)" stroke-dasharray="12.722399939439832" stroke-dashoffset="12.722399939439832"><animate attributeName="stroke-dashoffset" from="12.722399939439832" to="0" dur="0.38167199818319497s" begin="1.6713088818741428s" fill="freeze" /></path><path d="M 4.7 1.4 C 5.6 1.6 6.5 1.6 7.1 1.6 C 9.3 1.6 10.3 0.8 10.3 -1.8 L 10.3 -39.9 " transform="translate(0.0 38.0)" stroke-dasharray="45.96794015228773" stroke-dashoffset="45.96794015228773"><animate attributeName="stroke-dashoffset" from="45.96794015228773" to="0" dur="1.3790382045686318s" begin="2.052980880057338s" fill="freeze" /></path><path d="M 23.6 -0.6 C 30.2 -1.3 36.6 -2.2 43.2 -3.8 " transform="translate(0.0 38.0)" stroke-dasharray="19.87453454721502" stroke-dashoffset="19.87453454721502"><animate attributeName="stroke-dashoffset" from="19.87453454721502" to="0" dur="0.5962360364164506s" begin="3.4320190846259697s" fill="freeze" /></path><path d="M 15.6 -29.4 L 3.9 -29.4 " transform="translate(0.0 38.0)" stroke-dasharray="11.7" stroke-dashoffset="11.7"><animate attributeName="stroke-dashoffset" from="11.7" to="0" dur="0.351s" begin="4.02825512104242s" fill="freeze" /></path><path d="M 27.4 -1.6 C 30.1 -8.3 32.4 -16.2 34.1 -25.0 " transform="translate(0.0 38.0)" stroke-dasharray="24.37705324412343" stroke-dashoffset="24.37705324412343"><animate attributeName="stroke-dashoffset" from="24.37705324412343" to="0" dur="0.7313115973237029s" begin="4.37925512104242s" fill="freeze" /></path><path d="M 44.9 -0.1 C 43.1 -4.0 41.0 -7.5 38.6 -10.4 " transform="translate(0.0 38.0)" stroke-dasharray="12.107304720383922" stroke-dashoffset="12.107304720383922"><animate attributeName="stroke-dashoffset" from="12.107304720383922" to="0" dur="0.36321914161151764s" begin="5.110566718366123s" fill="freeze" /></path><path d="M 33.6 -32.5 L 33.6 -39.9" transform="translate(0.0 38.0)" stroke-dasharray="7.399999999999999" stroke-dashoffset="7.399999999999999"><animate attributeName="stroke-dashoffset" from="7.399999999999999" to="0" dur="0.22199999999999995s" begin="5.473785859977641s" fill="freeze" /></path></g></svg>