<?xml version='1.0' encoding='utf-8'?>
<svg viewBox="0.0 -6.0 50.0 50.0" version="1.1" xmlns="http://www.w3.org/2000/svg"><rect x="-1000" y="-1000" width="2000" height="2000" stroke="white" fill="white" /><g style="fill:none;stroke:#000000;stroke-width:1"><path d="M 46.1 -5.2 C 45.6 -0.6 44.1 1.1 42.4 1.1 C 39.1 1.1 35.0 -3.6 32.7 -12.4 C 31.1 -18.2 30.6 -26.4 30.6 -40.6 " transform="translate(0.0 38.0)" stroke-dasharray="53.83687869551003" stroke-dashoffset="53.83687869551003"><animate attributeName="stroke-dashoffset" from="53.83687869551003" to="0" dur="1.615106360865301s" begin="0s; anim_end.end" fill="freeze" id="anim0" /></path><path d="M 6.2 0.3 C 8.6 -3.1 11.3 -8.4 12.7 -12.9 " transform="translate(0.0 38.0)" stroke-dasharray="14.764501118820874" stroke-dashoffset="14.764501118820874"><animate attributeName="stroke-dashoffset" from="14.764501118820874" to="0" dur="0.4429350335646262s" begin="anim0.end" fill="freeze" id="anim1" /></path><path d="M 9.3 -23.1 C 8.0 -24.6 6.0 -26.1 4.8 -27.0 " transform="translate(0.0 38.0)" stroke-dasharray="5.965654673386671" stroke-dashoffset="5.965654673386671"><animate attributeName="stroke-dashoffset" from="5.965654673386671" to="0" dur="0.1789696402016001s" begin="anim1.end" fill="freeze" id="anim2" /></path><path d="M 16.6 1.4 C 25.4 -0.5 36.1 -5.4 43.0 -12.8 " transform="translate(0.0 38.0)" stroke-dasharray="30.401686308666022" stroke-dashoffset="30.401686308666022"><animate attributeName="stroke-dashoffset" from="30.401686308666022" to="0" dur="0.9120505892599806s" begin="anim2.end" fill="freeze" id="anim3" /></path><path d="M 12.8 -34.8 C 11.7 -36.2 9.8 -37.9 8.6 -38.8 " transform="translate(0.0 38.0)" stroke-dasharray="5.812998091031105" stroke-dashoffset="5.812998091031105"><animate attributeName="stroke-dashoffset" from="5.812998091031105" to="0" dur="0.17438994273093314s" begin="anim3.end" fill="freeze" id="anim4" /></path><path d="M 23.6 -17.5 L 39.0 -17.5 C 41.9 -17.5 42.9 -18.6 42.9 -21.0 L 42.9 -29.6 C 42.9 -32.0 41.9 -33.1 39.0 -33.1 L 23.6 -33.1 C 20.6 -33.1 19.6 -32.0 19.6 -29.6 L 19.6 -21.0 C 19.6 -18.6 20.6 -17.5 23.6 -17.5 Z " transform="translate(0.0 38.0)" stroke-dasharray="72.56536341672555" stroke-dashoffset="72.56536341672555"><animate attributeName="stroke-dashoffset" from="72.56536341672555" to="0" dur="2.1769609025017664s" begin="anim4.end" fill="freeze" id="anim5" /></path><path d="M 20.4 -25.6 L 42.9 -25.6" transform="translate(0.0 38.0)" stroke-dasharray="22.5" stroke-dashoffset="22.5"><animate attributeName="stroke-dashoffset" from="22.5" to="0" dur="0.6749999999999999s" begin="anim5.end" fill="freeze" id="anim_end" /></path></g></svg>