<?xml version='1.0' encoding='utf-8'?>
<svg viewBox="0.0 -6.0 50.0 50.0" version="1.1" xmlns="http://www.w3.org/2000/svg"><rect x="-1000" y="-1000" width="2000" height="2000" stroke="white" fill="white" /><g style="fill:none;stroke:#000000;stroke-width:1"><path d="M 14.2 0.8 C 18.9 -5.6 21.1 -12.7 21.1 -24.2 L 21.1 -33.9 C 21.1 -36.1 22.2 -37.2 25.1 -37.2 L 44.8 -37.2 " transform="translate(0.0 38.0)" stroke-dasharray="61.810973566794765" stroke-dashoffset="61.810973566794765"><animate attributeName="stroke-dashoffset" from="61.810973566794765" to="0" dur="1.8543292070038428s" begin="0s" fill="freeze" /></path><path d="M 6.2 0.3 C 8.6 -3.1 11.2 -8.4 12.7 -12.9 " transform="translate(0.0 38.0)" stroke-dasharray="14.758112978284684" stroke-dashoffset="14.758112978284684"><animate attributeName="stroke-dashoffset" from="14.758112978284684" to="0" dur="0.4427433893485405s" begin="1.8543292070038428s" fill="freeze" /></path><path d="M 9.3 -23.1 C 8.0 -24.6 6.0 -26.1 4.8 -27.0 " transform="translate(0.0 38.0)" stroke-dasharray="5.965654673386671" stroke-dashoffset="5.965654673386671"><animate attributeName="stroke-dashoffset" from="5.965654673386671" to="0" dur="0.1789696402016001s" begin="2.2970725963523835s" fill="freeze" /></path><path d="M 22.1 1.3 C 31.9 -3.7 39.2 -11.8 41.8 -22.6 C 42.3 -24.8 41.1 -26.1 38.5 -26.1 L 21.9 -26.1 " transform="translate(0.0 38.0)" stroke-dasharray="54.36592645718682" stroke-dashoffset="54.36592645718682"><animate attributeName="stroke-dashoffset" from="54.36592645718682" to="0" dur="1.6309777937156047s" begin="2.4760422365539836s" fill="freeze" /></path><path d="M 12.8 -34.8 C 11.7 -36.2 9.8 -37.9 8.6 -38.8 " transform="translate(0.0 38.0)" stroke-dasharray="5.812998091031105" stroke-dashoffset="5.812998091031105"><animate attributeName="stroke-dashoffset" from="5.812998091031105" to="0" dur="0.17438994273093314s" begin="4.107020030269588s" fill="freeze" /></path><path d="M 45.6 0.5 C 35.7 -4.9 29.5 -13.4 27.4 -25.6" transform="translate(0.0 38.0)" stroke-dasharray="33.02492228405715" stroke-dashoffset="33.02492228405715"><animate attributeName="stroke-dashoffset" from="33.02492228405715" to="0" dur="0.9907476685217144s" begin="4.281409973000521s" fill="freeze" /></path></g></svg>