<?xml version='1.0' encoding='utf-8'?>
<svg viewBox="0.0 -6.0 50.0 50.0" version="1.1" xmlns="http://www.w3.org/2000/svg"><rect x="-1000" y="-1000" width="2000" height="2000" stroke="white" fill="white" /><g style="fill:none;stroke:#000000;stroke-width:1"><path d="M 22.4 2.6 L 22.4 -15.7 C 22.4 -17.6 23.2 -18.6 25.6 -18.6 L 44.8 -18.6 " transform="translate(0.0 38.0)" stroke-dasharray="42.50755172898272" stroke-dashoffset="42.50755172898272"><animate attributeName="stroke-dashoffset" from="42.50755172898272" to="0" dur="1.2752265518694814s" begin="0s" fill="freeze" /></path><path d="M 3.6 -13.4 C 7.6 -14.6 11.7 -15.9 15.3 -17.6 " transform="translate(0.0 38.0)" stroke-dasharray="12.442691758518025" stroke-dashoffset="12.442691758518025"><animate attributeName="stroke-dashoffset" from="12.442691758518025" to="0" dur="0.37328075275554073s" begin="1.2752265518694814s" fill="freeze" /></path><path d="M 4.5 1.6 C 5.3 1.9 6.2 1.9 6.8 1.9 C 8.9 1.9 9.9 1.0 9.9 -1.4 L 9.9 -40.0 " transform="translate(0.0 38.0)" stroke-dasharray="46.18356389369724" stroke-dashoffset="46.18356389369724"><animate attributeName="stroke-dashoffset" from="46.18356389369724" to="0" dur="1.385506916810917s" begin="1.648507304625022s" fill="freeze" /></path><path d="M 45.8 -0.2 L 23.1 -0.2 " transform="translate(0.0 38.0)" stroke-dasharray="22.699999999999996" stroke-dashoffset="22.699999999999996"><animate attributeName="stroke-dashoffset" from="22.699999999999996" to="0" dur="0.6809999999999998s" begin="3.034014221435939s" fill="freeze" /></path><path d="M 17.0 -11.7 C 19.6 -14.4 22.8 -19.1 24.5 -22.6 " transform="translate(0.0 38.0)" stroke-dasharray="13.274024174293572" stroke-dashoffset="13.274024174293572"><animate attributeName="stroke-dashoffset" from="13.274024174293572" to="0" dur="0.39822072522880714s" begin="3.715014221435939s" fill="freeze" /></path><path d="M 14.7 -29.4 L 3.8 -29.4 " transform="translate(0.0 38.0)" stroke-dasharray="10.899999999999999" stroke-dashoffset="10.899999999999999"><animate attributeName="stroke-dashoffset" from="10.899999999999999" to="0" dur="0.32699999999999996s" begin="4.113234946664746s" fill="freeze" /></path><path d="M 42.5 -6.5 L 22.6 -6.5 " transform="translate(0.0 38.0)" stroke-dasharray="19.9" stroke-dashoffset="19.9"><animate attributeName="stroke-dashoffset" from="19.9" to="0" dur="0.597s" begin="4.440234946664746s" fill="freeze" /></path><path d="M 33.1 -0.4 L 33.1 -17.9 " transform="translate(0.0 38.0)" stroke-dasharray="17.5" stroke-dashoffset="17.5"><animate attributeName="stroke-dashoffset" from="17.5" to="0" dur="0.525s" begin="5.037234946664746s" fill="freeze" /></path><path d="M 42.5 -12.6 L 22.5 -12.6 " transform="translate(0.0 38.0)" stroke-dasharray="20.0" stroke-dashoffset="20.0"><animate attributeName="stroke-dashoffset" from="20.0" to="0" dur="0.6s" begin="5.562234946664747s" fill="freeze" /></path><path d="M 32.9 -18.9 C 33.5 -20.2 34.0 -21.4 34.5 -22.7 " transform="translate(0.0 38.0)" stroke-dasharray="4.123870783158498" stroke-dashoffset="4.123870783158498"><animate attributeName="stroke-dashoffset" from="4.123870783158498" to="0" dur="0.12371612349475494s" begin="6.162234946664746s" fill="freeze" /></path><path d="M 18.8 -26.7 L 25.3 -26.7 C 27.9 -26.7 28.8 -27.4 28.8 -29.5 L 28.8 -35.8 C 28.8 -37.9 27.9 -38.6 25.3 -38.6 L 18.8 -38.6 " transform="translate(0.0 38.0)" stroke-dasharray="29.794771393628295" stroke-dashoffset="29.794771393628295"><animate attributeName="stroke-dashoffset" from="29.794771393628295" to="0" dur="0.8938431418088488s" begin="6.285951070159501s" fill="freeze" /></path><path d="M 29.2 -32.9 L 20.0 -32.9 " transform="translate(0.0 38.0)" stroke-dasharray="9.2" stroke-dashoffset="9.2"><animate attributeName="stroke-dashoffset" from="9.2" to="0" dur="0.27599999999999997s" begin="7.17979421196835s" fill="freeze" /></path><path d="M 33.9 -26.7 L 40.7 -26.7 C 43.3 -26.7 44.2 -27.4 44.2 -29.6 L 44.2 -35.8 C 44.2 -37.9 43.3 -38.6 40.7 -38.6 L 34.0 -38.6 " transform="translate(0.0 38.0)" stroke-dasharray="30.28188096059109" stroke-dashoffset="30.28188096059109"><animate attributeName="stroke-dashoffset" from="30.28188096059109" to="0" dur="0.9084564288177326s" begin="7.45579421196835s" fill="freeze" /></path><path d="M 44.2 -32.9 L 35.1 -32.9" transform="translate(0.0 38.0)" stroke-dasharray="9.100000000000001" stroke-dashoffset="9.100000000000001"><animate attributeName="stroke-dashoffset" from="9.100000000000001" to="0" dur="0.273s" begin="8.364250640786082s" fill="freeze" /></path></g></svg>