<?xml version='1.0' encoding='utf-8'?>
<svg viewBox="0.0 -6.0 50.0 50.0" version="1.1" xmlns="http://www.w3.org/2000/svg"><rect x="-1000" y="-1000" width="2000" height="2000" stroke="white" fill="white" /><g style="fill:none;stroke:#000000;stroke-width:1"><path d="M 17.6 2.1 C 28.1 0.9 36.0 -3.8 39.5 -13.8 " transform="translate(0.0 38.0)" stroke-dasharray="28.733237336552627" stroke-dashoffset="28.733237336552627"><animate attributeName="stroke-dashoffset" from="28.733237336552627" to="0" dur="0.8619971200965788s" begin="0s; 15s; 30s; 45s" fill="freeze" id="anim0" /></path><path d="M 3.8 -14.4 C 8.0 -15.7 12.2 -17.1 15.2 -18.6 " transform="translate(0.0 38.0)" stroke-dasharray="12.161261997770946" stroke-dashoffset="12.161261997770946"><animate attributeName="stroke-dashoffset" from="12.161261997770946" to="0" dur="0.3648378599331284s" begin="anim0.end" fill="freeze" id="anim1" /></path><path d="M 4.5 1.4 C 5.5 1.6 6.3 1.6 7.0 1.6 C 9.1 1.6 10.2 0.8 10.2 -1.8 L 10.2 -40.0 " transform="translate(0.0 38.0)" stroke-dasharray="46.14252770917276" stroke-dashoffset="46.14252770917276"><animate attributeName="stroke-dashoffset" from="46.14252770917276" to="0" dur="1.3842758312751828s" begin="anim1.end" fill="freeze" id="anim2" /></path><path d="M 42.5 1.4 C 37.5 -2.5 29.9 -6.0 23.9 -7.5 " transform="translate(0.0 38.0)" stroke-dasharray="20.747420463431123" stroke-dashoffset="20.747420463431123"><animate attributeName="stroke-dashoffset" from="20.747420463431123" to="0" dur="0.6224226139029336s" begin="anim2.end" fill="freeze" id="anim3" /></path><path d="M 15.0 -29.4 L 3.9 -29.4 " transform="translate(0.0 38.0)" stroke-dasharray="11.1" stroke-dashoffset="11.1"><animate attributeName="stroke-dashoffset" from="11.1" to="0" dur="0.33299999999999996s" begin="anim3.end" fill="freeze" id="anim4" /></path><path d="M 22.1 -5.8 C 25.5 -10.1 28.6 -15.4 31.0 -20.3 " transform="translate(0.0 38.0)" stroke-dasharray="17.04417992592562" stroke-dashoffset="17.04417992592562"><animate attributeName="stroke-dashoffset" from="17.04417992592562" to="0" dur="0.5113253977777685s" begin="anim4.end" fill="freeze" id="anim5" /></path><path d="M 46.8 -14.4 L 17.6 -14.4 " transform="translate(0.0 38.0)" stroke-dasharray="29.199999999999996" stroke-dashoffset="29.199999999999996"><animate attributeName="stroke-dashoffset" from="29.199999999999996" to="0" dur="0.8759999999999999s" begin="anim5.end" fill="freeze" id="anim6" /></path><path d="M 27.1 -27.6 C 26.6 -28.7 26.1 -30.1 25.5 -31.2 " transform="translate(0.0 38.0)" stroke-dasharray="3.941072294822718" stroke-dashoffset="3.941072294822718"><animate attributeName="stroke-dashoffset" from="3.941072294822718" to="0" dur="0.11823216884468153s" begin="anim6.end" fill="freeze" id="anim7" /></path><path d="M 46.5 -23.3 L 18.0 -23.3 " transform="translate(0.0 38.0)" stroke-dasharray="28.5" stroke-dashoffset="28.5"><animate attributeName="stroke-dashoffset" from="28.5" to="0" dur="0.855s" begin="anim7.end" fill="freeze" id="anim8" /></path><path d="M 34.8 -23.2 C 36.2 -25.9 37.4 -28.6 38.4 -31.1 " transform="translate(0.0 38.0)" stroke-dasharray="8.685025936267522" stroke-dashoffset="8.685025936267522"><animate attributeName="stroke-dashoffset" from="8.685025936267522" to="0" dur="0.2605507780880256s" begin="anim8.end" fill="freeze" id="anim9" /></path><path d="M 44.4 -35.3 L 20.4 -35.3 " transform="translate(0.0 38.0)" stroke-dasharray="24.0" stroke-dashoffset="24.0"><animate attributeName="stroke-dashoffset" from="24.0" to="0" dur="0.72s" begin="anim9.end" fill="freeze" id="anim10" /></path><path d="M 31.8 -35.8 L 31.8 -40.5" transform="translate(0.0 38.0)" stroke-dasharray="4.700000000000003" stroke-dashoffset="4.700000000000003"><animate attributeName="stroke-dashoffset" from="4.700000000000003" to="0" dur="0.14100000000000007s" begin="anim10.end" fill="freeze" id="anim_end" /></path></g></svg>