<?xml version='1.0' encoding='utf-8'?>
<svg viewBox="0.0 -6.0 50.0 50.0" version="1.1" xmlns="http://www.w3.org/2000/svg"><rect x="-1000" y="-1000" width="2000" height="2000" stroke="white" fill="white" /><g style="fill:none;stroke:#000000;stroke-width:1"><path d="M 15.6 1.6 C 22.8 -2.8 26.3 -9.9 26.5 -21.2 " transform="translate(0.0 38.0)" stroke-dasharray="26.506027473501863" stroke-dashoffset="26.506027473501863"><animate attributeName="stroke-dashoffset" from="26.506027473501863" to="0" dur="0.7951808242050559s" begin="0s; 15s; 30s; 45s" fill="freeze" id="anim0" /></path><path d="M 9.4 2.2 L 9.4 -40.1 " transform="translate(0.0 38.0)" stroke-dasharray="42.300000000000004" stroke-dashoffset="42.300000000000004"><animate attributeName="stroke-dashoffset" from="42.300000000000004" to="0" dur="1.2690000000000001s" begin="anim0.end" fill="freeze" id="anim1" /></path><path d="M 3.1 -22.4 C 3.8 -24.1 4.4 -26.9 4.7 -29.4 " transform="translate(0.0 38.0)" stroke-dasharray="7.198522233494235" stroke-dashoffset="7.198522233494235"><animate attributeName="stroke-dashoffset" from="7.198522233494235" to="0" dur="0.21595566700482705s" begin="anim1.end" fill="freeze" id="anim2" /></path><path d="M 15.4 -26.5 C 15.1 -27.9 14.3 -29.7 13.7 -30.8 " transform="translate(0.0 38.0)" stroke-dasharray="4.63709504759617" stroke-dashoffset="4.63709504759617"><animate attributeName="stroke-dashoffset" from="4.63709504759617" to="0" dur="0.1391128514278851s" begin="anim2.end" fill="freeze" id="anim3" /></path><path d="M 45.9 -4.5 C 45.5 -0.4 44.0 0.8 39.5 0.8 C 35.5 0.8 34.5 -0.1 34.5 -2.4 L 34.5 -21.2 " transform="translate(0.0 38.0)" stroke-dasharray="35.283859509529364" stroke-dashoffset="35.283859509529364"><animate attributeName="stroke-dashoffset" from="35.283859509529364" to="0" dur="1.0585157852858809s" begin="anim3.end" fill="freeze" id="anim4" /></path><path d="M 45.5 -21.6 L 17.1 -21.6 " transform="translate(0.0 38.0)" stroke-dasharray="28.4" stroke-dashoffset="28.4"><animate attributeName="stroke-dashoffset" from="28.4" to="0" dur="0.852s" begin="anim4.end" fill="freeze" id="anim5" /></path><path d="M 23.9 -28.2 C 23.1 -30.6 21.9 -33.0 20.6 -34.9 " transform="translate(0.0 38.0)" stroke-dasharray="7.491417782485136" stroke-dashoffset="7.491417782485136"><animate attributeName="stroke-dashoffset" from="7.491417782485136" to="0" dur="0.22474253347455406s" begin="anim5.end" fill="freeze" id="anim6" /></path><path d="M 30.8 -22.4 L 30.8 -40.2 " transform="translate(0.0 38.0)" stroke-dasharray="17.800000000000004" stroke-dashoffset="17.800000000000004"><animate attributeName="stroke-dashoffset" from="17.800000000000004" to="0" dur="0.5340000000000001s" begin="anim6.end" fill="freeze" id="anim7" /></path><path d="M 37.0 -27.3 C 38.5 -29.4 40.0 -32.5 41.1 -35.5" transform="translate(0.0 38.0)" stroke-dasharray="9.19243031542322" stroke-dashoffset="9.19243031542322"><animate attributeName="stroke-dashoffset" from="9.19243031542322" to="0" dur="0.27577290946269656s" begin="anim7.end" fill="freeze" id="anim_end" /></path></g></svg>