<?xml version='1.0' encoding='utf-8'?>
<svg viewBox="0.0 -6.0 50.0 50.0" version="1.1" xmlns="http://www.w3.org/2000/svg"><rect x="-1000" y="-1000" width="2000" height="2000" stroke="white" fill="white" /><g style="fill:none;stroke:#000000;stroke-width:1"><path d="M 47.0 -2.2 C 46.6 0.6 45.5 1.4 41.1 1.4 C 36.6 1.4 35.6 0.8 35.6 -1.6 L 35.6 -20.6 C 35.6 -22.4 36.3 -23.1 38.4 -23.1 L 42.2 -23.1 C 44.5 -23.1 45.4 -23.9 45.4 -25.6 L 45.4 -27.1 C 45.4 -28.8 44.5 -29.6 42.2 -29.6 L 38.4 -29.6 C 36.3 -29.6 35.6 -30.4 35.6 -32.0 L 35.6 -40.2 " transform="translate(0.0 38.0)" stroke-dasharray="69.50827405925175" stroke-dashoffset="69.50827405925175"><animate attributeName="stroke-dashoffset" from="69.50827405925175" to="0" dur="2.0852482217775523s" begin="0s; 15s; 30s; 45s" fill="freeze" id="anim0" /></path><path d="M 13.1 -15.3 L 5.6 -15.3 " transform="translate(0.0 38.0)" stroke-dasharray="7.5" stroke-dashoffset="7.5"><animate attributeName="stroke-dashoffset" from="7.5" to="0" dur="0.22499999999999998s" begin="anim0.end" fill="freeze" id="anim1" /></path><path d="M 8.8 1.4 C 9.4 1.4 10.0 1.6 10.7 1.6 C 12.3 1.6 13.2 0.8 13.2 -1.4 L 13.2 -36.0 C 13.2 -38.3 12.4 -39.0 10.4 -39.0 L 8.6 -39.0 C 6.6 -39.0 5.8 -38.3 5.8 -36.0 L 5.8 -23.2 C 5.8 -10.3 4.8 -3.7 3.2 1.1 " transform="translate(0.0 38.0)" stroke-dasharray="89.77615390913097" stroke-dashoffset="89.77615390913097"><animate attributeName="stroke-dashoffset" from="89.77615390913097" to="0" dur="2.693284617273929s" begin="anim1.end" fill="freeze" id="anim2" /></path><path d="M 29.2 -7.0 L 20.1 -7.0 " transform="translate(0.0 38.0)" stroke-dasharray="9.099999999999998" stroke-dashoffset="9.099999999999998"><animate attributeName="stroke-dashoffset" from="9.099999999999998" to="0" dur="0.2729999999999999s" begin="anim2.end" fill="freeze" id="anim3" /></path><path d="M 24.7 1.6 C 25.4 1.7 25.9 1.8 26.6 1.8 C 28.4 1.8 29.2 0.8 29.2 -1.1 L 29.2 -16.5 C 29.2 -18.5 28.5 -19.1 26.4 -19.1 L 22.6 -19.1 C 20.4 -19.1 19.8 -18.5 19.8 -16.5 L 19.8 2.3 " transform="translate(0.0 38.0)" stroke-dasharray="53.429195102869244" stroke-dashoffset="53.429195102869244"><animate attributeName="stroke-dashoffset" from="53.429195102869244" to="0" dur="1.6028758530860772s" begin="anim3.end" fill="freeze" id="anim4" /></path><path d="M 13.1 -27.2 L 5.8 -27.2 " transform="translate(0.0 38.0)" stroke-dasharray="7.3" stroke-dashoffset="7.3"><animate attributeName="stroke-dashoffset" from="7.3" to="0" dur="0.219s" begin="anim4.end" fill="freeze" id="anim5" /></path><path d="M 29.2 -13.1 L 19.7 -13.1 " transform="translate(0.0 38.0)" stroke-dasharray="9.5" stroke-dashoffset="9.5"><animate attributeName="stroke-dashoffset" from="9.5" to="0" dur="0.285s" begin="anim5.end" fill="freeze" id="anim6" /></path><path d="M 45.1 -5.8 L 36.0 -5.8 " transform="translate(0.0 38.0)" stroke-dasharray="9.100000000000001" stroke-dashoffset="9.100000000000001"><animate attributeName="stroke-dashoffset" from="9.100000000000001" to="0" dur="0.273s" begin="anim6.end" fill="freeze" id="anim7" /></path><path d="M 31.8 -24.9 L 17.4 -24.9 " transform="translate(0.0 38.0)" stroke-dasharray="14.400000000000002" stroke-dashoffset="14.400000000000002"><animate attributeName="stroke-dashoffset" from="14.400000000000002" to="0" dur="0.43200000000000005s" begin="anim7.end" fill="freeze" id="anim8" /></path><path d="M 21.6 -28.6 C 21.2 -29.9 20.9 -30.9 20.5 -31.6 " transform="translate(0.0 38.0)" stroke-dasharray="3.201115767538924" stroke-dashoffset="3.201115767538924"><animate attributeName="stroke-dashoffset" from="3.201115767538924" to="0" dur="0.09603347302616771s" begin="anim8.end" fill="freeze" id="anim9" /></path><path d="M 45.0 -11.5 L 35.9 -11.5 " transform="translate(0.0 38.0)" stroke-dasharray="9.100000000000001" stroke-dashoffset="9.100000000000001"><animate attributeName="stroke-dashoffset" from="9.100000000000001" to="0" dur="0.273s" begin="anim9.end" fill="freeze" id="anim10" /></path><path d="M 25.7 -24.4 C 26.8 -26.9 27.6 -29.1 28.4 -31.8 " transform="translate(0.0 38.0)" stroke-dasharray="7.882902973967217" stroke-dashoffset="7.882902973967217"><animate attributeName="stroke-dashoffset" from="7.882902973967217" to="0" dur="0.23648708921901648s" begin="anim10.end" fill="freeze" id="anim11" /></path><path d="M 44.8 -17.1 L 35.6 -17.1 " transform="translate(0.0 38.0)" stroke-dasharray="9.199999999999996" stroke-dashoffset="9.199999999999996"><animate attributeName="stroke-dashoffset" from="9.199999999999996" to="0" dur="0.27599999999999986s" begin="anim11.end" fill="freeze" id="anim12" /></path><path d="M 30.8 -35.6 L 18.2 -35.6 " transform="translate(0.0 38.0)" stroke-dasharray="12.600000000000001" stroke-dashoffset="12.600000000000001"><animate attributeName="stroke-dashoffset" from="12.600000000000001" to="0" dur="0.378s" begin="anim12.end" fill="freeze" id="anim13" /></path><path d="M 24.4 -34.8 L 24.4 -40.1 " transform="translate(0.0 38.0)" stroke-dasharray="5.300000000000004" stroke-dashoffset="5.300000000000004"><animate attributeName="stroke-dashoffset" from="5.300000000000004" to="0" dur="0.1590000000000001s" begin="anim13.end" fill="freeze" id="anim14" /></path><path d="M 46.6 -35.8 L 35.4 -35.8" transform="translate(0.0 38.0)" stroke-dasharray="11.200000000000003" stroke-dashoffset="11.200000000000003"><animate attributeName="stroke-dashoffset" from="11.200000000000003" to="0" dur="0.3360000000000001s" begin="anim14.end" fill="freeze" id="anim_end" /></path></g></svg>