<?xml version='1.0' encoding='utf-8'?>
<svg viewBox="0.0 -6.0 50.0 50.0" version="1.1" xmlns="http://www.w3.org/2000/svg"><rect x="-1000" y="-1000" width="2000" height="2000" stroke="white" fill="white" /><g style="fill:none;stroke:#000000;stroke-width:1"><path d="M 25.9 -14.0 L 39.5 -14.0 C 42.5 -14.0 43.5 -15.0 43.5 -17.4 L 43.5 -24.0 C 43.5 -26.2 42.5 -27.3 39.5 -27.3 L 25.9 -27.3 C 22.9 -27.3 21.9 -26.2 21.9 -24.0 L 21.9 -17.4 C 21.9 -15.0 22.9 -14.0 25.9 -14.0 Z " transform="translate(0.0 38.0)" stroke-dasharray="64.66862954503662" stroke-dashoffset="64.66862954503662"><animate attributeName="stroke-dashoffset" from="64.66862954503662" to="0" dur="1.9400588863510986s" begin="0s; anim_end.end" fill="freeze" id="anim0" /></path><path d="M 2.9 -9.7 C 5.8 -14.2 8.2 -20.4 9.5 -26.2 " transform="translate(0.0 38.0)" stroke-dasharray="17.854875741272984" stroke-dashoffset="17.854875741272984"><animate attributeName="stroke-dashoffset" from="17.854875741272984" to="0" dur="0.5356462722381895s" begin="anim0.end" fill="freeze" id="anim1" /></path><path d="M 17.1 -0.6 C 22.4 -3.5 27.4 -8.0 30.7 -12.6 " transform="translate(0.0 38.0)" stroke-dasharray="18.279088928706212" stroke-dashoffset="18.279088928706212"><animate attributeName="stroke-dashoffset" from="18.279088928706212" to="0" dur="0.5483726678611863s" begin="anim1.end" fill="freeze" id="anim2" /></path><path d="M 10.6 2.7 L 10.6 -40.4 " transform="translate(0.0 38.0)" stroke-dasharray="43.1" stroke-dashoffset="43.1"><animate attributeName="stroke-dashoffset" from="43.1" to="0" dur="1.293s" begin="anim2.end" fill="freeze" id="anim3" /></path><path d="M 16.5 -16.5 C 15.3 -18.2 13.4 -20.1 11.5 -21.5 " transform="translate(0.0 38.0)" stroke-dasharray="7.098332652281335" stroke-dashoffset="7.098332652281335"><animate attributeName="stroke-dashoffset" from="7.098332652281335" to="0" dur="0.21294997956844003s" begin="anim3.end" fill="freeze" id="anim4" /></path><path d="M 16.3 -29.1 L 3.6 -29.1 " transform="translate(0.0 38.0)" stroke-dasharray="12.700000000000001" stroke-dashoffset="12.700000000000001"><animate attributeName="stroke-dashoffset" from="12.700000000000001" to="0" dur="0.381s" begin="anim4.end" fill="freeze" id="anim5" /></path><path d="M 46.4 -1.1 C 41.6 -4.0 36.6 -8.6 33.6 -13.1 " transform="translate(0.0 38.0)" stroke-dasharray="17.67180355635274" stroke-dashoffset="17.67180355635274"><animate attributeName="stroke-dashoffset" from="17.67180355635274" to="0" dur="0.5301541066905822s" begin="anim5.end" fill="freeze" id="anim6" /></path><path d="M 32.4 2.5 L 32.4 -40.4 " transform="translate(0.0 38.0)" stroke-dasharray="42.9" stroke-dashoffset="42.9"><animate attributeName="stroke-dashoffset" from="42.9" to="0" dur="1.287s" begin="anim6.end" fill="freeze" id="anim7" /></path><path d="M 42.8 -20.7 L 22.5 -20.7 " transform="translate(0.0 38.0)" stroke-dasharray="20.299999999999997" stroke-dashoffset="20.299999999999997"><animate attributeName="stroke-dashoffset" from="20.299999999999997" to="0" dur="0.6089999999999999s" begin="anim7.end" fill="freeze" id="anim8" /></path><path d="M 46.3 -33.9 L 19.6 -33.9" transform="translate(0.0 38.0)" stroke-dasharray="26.699999999999996" stroke-dashoffset="26.699999999999996"><animate attributeName="stroke-dashoffset" from="26.699999999999996" to="0" dur="0.8009999999999998s" begin="anim8.end" fill="freeze" id="anim_end" /></path></g></svg>