<?xml version='1.0' encoding='utf-8'?>
<svg viewBox="0.0 -6.0 50.0 50.0" version="1.1" xmlns="http://www.w3.org/2000/svg"><rect x="-1000" y="-1000" width="2000" height="2000" stroke="white" fill="white" /><g style="fill:none;stroke:#000000;stroke-width:1"><path d="M 22.2 2.6 L 22.2 -26.5 C 22.2 -28.9 23.5 -30.2 26.2 -30.2 L 45.1 -30.2 " transform="translate(0.0 38.0)" stroke-dasharray="54.242515452899" stroke-dashoffset="54.242515452899"><animate attributeName="stroke-dashoffset" from="54.242515452899" to="0" dur="1.62727546358697s" begin="0s; 15s; 30s; 45s" fill="freeze" id="anim0" /></path><path d="M 6.2 0.3 C 8.6 -3.1 11.2 -8.4 12.7 -12.9 " transform="translate(0.0 38.0)" stroke-dasharray="14.758112978284684" stroke-dashoffset="14.758112978284684"><animate attributeName="stroke-dashoffset" from="14.758112978284684" to="0" dur="0.4427433893485405s" begin="anim0.end" fill="freeze" id="anim1" /></path><path d="M 9.3 -23.1 C 8.0 -24.6 6.0 -26.1 4.8 -27.0 " transform="translate(0.0 38.0)" stroke-dasharray="5.965654673386671" stroke-dashoffset="5.965654673386671"><animate attributeName="stroke-dashoffset" from="5.965654673386671" to="0" dur="0.1789696402016001s" begin="anim1.end" fill="freeze" id="anim2" /></path><path d="M 46.0 -0.7 L 22.6 -0.7 " transform="translate(0.0 38.0)" stroke-dasharray="23.4" stroke-dashoffset="23.4"><animate attributeName="stroke-dashoffset" from="23.4" to="0" dur="0.702s" begin="anim2.end" fill="freeze" id="anim3" /></path><path d="M 43.0 -11.2 L 22.1 -11.2 " transform="translate(0.0 38.0)" stroke-dasharray="20.9" stroke-dashoffset="20.9"><animate attributeName="stroke-dashoffset" from="20.9" to="0" dur="0.6269999999999999s" begin="anim3.end" fill="freeze" id="anim4" /></path><path d="M 12.8 -34.8 C 11.7 -36.2 9.8 -37.9 8.6 -38.8 " transform="translate(0.0 38.0)" stroke-dasharray="5.812998091031105" stroke-dashoffset="5.812998091031105"><animate attributeName="stroke-dashoffset" from="5.812998091031105" to="0" dur="0.17438994273093314s" begin="anim4.end" fill="freeze" id="anim5" /></path><path d="M 33.8 0.2 L 33.8 -29.7 " transform="translate(0.0 38.0)" stroke-dasharray="29.9" stroke-dashoffset="29.9"><animate attributeName="stroke-dashoffset" from="29.9" to="0" dur="0.8969999999999999s" begin="anim5.end" fill="freeze" id="anim6" /></path><path d="M 16.4 -22.1 C 20.4 -27.4 23.5 -33.8 25.2 -39.6 " transform="translate(0.0 38.0)" stroke-dasharray="19.68890960627785" stroke-dashoffset="19.68890960627785"><animate attributeName="stroke-dashoffset" from="19.68890960627785" to="0" dur="0.5906672881883355s" begin="anim6.end" fill="freeze" id="anim7" /></path><path d="M 43.0 -20.8 L 22.1 -20.8 " transform="translate(0.0 38.0)" stroke-dasharray="20.9" stroke-dashoffset="20.9"><animate attributeName="stroke-dashoffset" from="20.9" to="0" dur="0.6269999999999999s" begin="anim7.end" fill="freeze" id="anim8" /></path><path d="M 32.9 -30.4 C 34.5 -33.5 35.6 -36.4 36.5 -39.5" transform="translate(0.0 38.0)" stroke-dasharray="9.80229542457617" stroke-dashoffset="9.80229542457617"><animate attributeName="stroke-dashoffset" from="9.80229542457617" to="0" dur="0.2940688627372851s" begin="anim8.end" fill="freeze" id="anim_end" /></path></g></svg>