<?xml version='1.0' encoding='utf-8'?>
<svg viewBox="0.0 -6.0 50.0 50.0" version="1.1" xmlns="http://www.w3.org/2000/svg"><rect x="-1000" y="-1000" width="2000" height="2000" stroke="white" fill="white" /><g style="fill:none;stroke:#000000;stroke-width:1"><path d="M 16.6 -5.8 C 22.2 -11.8 27.2 -20.0 29.4 -26.9 " transform="translate(0.0 38.0)" stroke-dasharray="24.857324697069593" stroke-dashoffset="24.857324697069593"><animate attributeName="stroke-dashoffset" from="24.857324697069593" to="0" dur="0.7457197409120878s" begin="0s; anim_end.end" fill="freeze" id="anim0" /></path><path d="M 5.9 0.3 C 8.2 -3.1 10.8 -8.4 12.2 -12.8 " transform="translate(0.0 38.0)" stroke-dasharray="14.577943560051143" stroke-dashoffset="14.577943560051143"><animate attributeName="stroke-dashoffset" from="14.577943560051143" to="0" dur="0.43733830680153424s" begin="anim0.end" fill="freeze" id="anim1" /></path><path d="M 9.1 -23.1 C 7.8 -24.6 5.8 -26.1 4.5 -27.0 " transform="translate(0.0 38.0)" stroke-dasharray="6.044995348618125" stroke-dashoffset="6.044995348618125"><animate attributeName="stroke-dashoffset" from="6.044995348618125" to="0" dur="0.18134986045854373s" begin="anim1.end" fill="freeze" id="anim2" /></path><path d="M 12.9 -34.7 C 11.7 -36.1 9.8 -37.9 8.6 -38.8 " transform="translate(0.0 38.0)" stroke-dasharray="5.950275392021779" stroke-dashoffset="5.950275392021779"><animate attributeName="stroke-dashoffset" from="5.950275392021779" to="0" dur="0.17850826176065338s" begin="anim2.end" fill="freeze" id="anim3" /></path><path d="M 30.9 2.3 L 30.9 -40.0 " transform="translate(0.0 38.0)" stroke-dasharray="42.3" stroke-dashoffset="42.3"><animate attributeName="stroke-dashoffset" from="42.3" to="0" dur="1.269s" begin="anim3.end" fill="freeze" id="anim4" /></path><path d="M 45.7 -6.5 C 40.5 -11.5 35.1 -18.9 32.2 -26.6 " transform="translate(0.0 38.0)" stroke-dasharray="24.39780264847716" stroke-dashoffset="24.39780264847716"><animate attributeName="stroke-dashoffset" from="24.39780264847716" to="0" dur="0.7319340794543148s" begin="anim4.end" fill="freeze" id="anim5" /></path><path d="M 45.0 -28.4 L 18.2 -28.4" transform="translate(0.0 38.0)" stroke-dasharray="26.8" stroke-dashoffset="26.8"><animate attributeName="stroke-dashoffset" from="26.8" to="0" dur="0.8039999999999999s" begin="anim5.end" fill="freeze" id="anim_end" /></path></g></svg>