<?xml version='1.0' encoding='utf-8'?>
<svg viewBox="0.0 -6.0 50.0 50.0" version="1.1" xmlns="http://www.w3.org/2000/svg"><rect x="-1000" y="-1000" width="2000" height="2000" stroke="white" fill="white" /><g style="fill:none;stroke:#000000;stroke-width:1"><path d="M 37.5 0.9 C 38.4 1.1 39.4 1.2 40.4 1.2 C 42.9 1.2 43.8 0.1 43.8 -2.5 L 43.8 -34.5 C 43.8 -37.0 42.8 -37.9 40.1 -37.9 L 35.5 -37.9 C 32.8 -37.9 31.8 -37.0 31.8 -34.5 L 31.8 -22.2 C 31.8 -10.0 29.4 -3.5 24.2 1.8 " transform="translate(0.0 38.0)" stroke-dasharray="95.3316235858056" stroke-dashoffset="95.3316235858056"><animate attributeName="stroke-dashoffset" from="95.3316235858056" to="0" dur="2.859948707574168s" begin="0s; anim_end.end" fill="freeze" id="anim0" /></path><path d="M 5.2 1.9 C 11.9 -2.5 15.0 -8.3 15.0 -18.7 L 15.0 -28.8 " transform="translate(0.0 38.0)" stroke-dasharray="34.06733862127337" stroke-dashoffset="34.06733862127337"><animate attributeName="stroke-dashoffset" from="34.06733862127337" to="0" dur="1.0220201586382012s" begin="anim0.end" fill="freeze" id="anim1" /></path><path d="M 6.7 -21.3 L 6.7 -13.7 C 6.7 -11.2 7.7 -10.6 9.9 -10.6 L 20.4 -10.6 C 22.7 -10.6 23.7 -11.2 23.7 -13.6 L 23.7 -21.3 " transform="translate(0.0 38.0)" stroke-dasharray="36.283376358145134" stroke-dashoffset="36.283376358145134"><animate attributeName="stroke-dashoffset" from="36.283376358145134" to="0" dur="1.0885012907443539s" begin="anim1.end" fill="freeze" id="anim2" /></path><path d="M 26.5 -28.4 L 3.9 -28.4 " transform="translate(0.0 38.0)" stroke-dasharray="22.6" stroke-dashoffset="22.6"><animate attributeName="stroke-dashoffset" from="22.6" to="0" dur="0.678s" begin="anim2.end" fill="freeze" id="anim3" /></path><path d="M 11.1 -33.6 C 10.4 -35.2 9.2 -37.1 8.2 -38.4 " transform="translate(0.0 38.0)" stroke-dasharray="5.619904683799059" stroke-dashoffset="5.619904683799059"><animate attributeName="stroke-dashoffset" from="5.619904683799059" to="0" dur="0.16859714051397176s" begin="anim3.end" fill="freeze" id="anim4" /></path><path d="M 43.4 -15.2 L 31.9 -15.2 " transform="translate(0.0 38.0)" stroke-dasharray="11.5" stroke-dashoffset="11.5"><animate attributeName="stroke-dashoffset" from="11.5" to="0" dur="0.345s" begin="anim4.end" fill="freeze" id="anim5" /></path><path d="M 17.0 -29.0 C 18.8 -31.6 20.5 -35.0 21.8 -38.6 " transform="translate(0.0 38.0)" stroke-dasharray="10.761520484883027" stroke-dashoffset="10.761520484883027"><animate attributeName="stroke-dashoffset" from="10.761520484883027" to="0" dur="0.3228456145464908s" begin="anim5.end" fill="freeze" id="anim6" /></path><path d="M 43.4 -26.7 L 31.9 -26.7" transform="translate(0.0 38.0)" stroke-dasharray="11.5" stroke-dashoffset="11.5"><animate attributeName="stroke-dashoffset" from="11.5" to="0" dur="0.345s" begin="anim6.end" fill="freeze" id="anim_end" /></path></g></svg>