<?xml version='1.0' encoding='utf-8'?>
<svg viewBox="0.0 -6.0 50.0 50.0" version="1.1" xmlns="http://www.w3.org/2000/svg"><rect x="-1000" y="-1000" width="2000" height="2000" stroke="white" fill="white" /><g style="fill:none;stroke:#000000;stroke-width:1"><path d="M 45.5 -6.2 C 44.7 -1.6 42.8 -0.2 32.5 -0.2 C 23.4 -0.2 21.5 -1.1 21.5 -5.0 L 21.5 -32.2 C 21.5 -35.5 22.8 -36.6 26.4 -36.6 L 37.4 -36.6 C 41.1 -36.6 42.4 -35.5 42.4 -32.2 L 42.4 -25.5 C 42.4 -22.4 41.1 -21.1 37.4 -21.1 L 22.2 -21.1 " transform="translate(0.0 38.0)" stroke-dasharray="113.15599566558966" stroke-dashoffset="113.15599566558966"><animate attributeName="stroke-dashoffset" from="113.15599566558966" to="0" dur="3.3946798699676894s" begin="0s" fill="freeze" /></path><path d="M 6.2 0.3 C 8.6 -3.1 11.2 -8.4 12.7 -12.9 " transform="translate(0.0 38.0)" stroke-dasharray="14.758112978284684" stroke-dashoffset="14.758112978284684"><animate attributeName="stroke-dashoffset" from="14.758112978284684" to="0" dur="0.4427433893485405s" begin="3.3946798699676894s" fill="freeze" /></path><path d="M 9.3 -23.1 C 8.0 -24.6 6.0 -26.1 4.8 -27.0 " transform="translate(0.0 38.0)" stroke-dasharray="5.965654673386671" stroke-dashoffset="5.965654673386671"><animate attributeName="stroke-dashoffset" from="5.965654673386671" to="0" dur="0.1789696402016001s" begin="3.83742325931623s" fill="freeze" /></path><path d="M 12.8 -34.8 C 11.7 -36.2 9.8 -37.9 8.6 -38.8" transform="translate(0.0 38.0)" stroke-dasharray="5.812998091031105" stroke-dashoffset="5.812998091031105"><animate attributeName="stroke-dashoffset" from="5.812998091031105" to="0" dur="0.17438994273093314s" begin="4.016392899517831s" fill="freeze" /></path></g></svg>