<?xml version='1.0' encoding='utf-8'?>
<svg viewBox="0.0 -6.0 50.0 50.0" version="1.1" xmlns="http://www.w3.org/2000/svg"><rect x="-1000" y="-1000" width="2000" height="2000" stroke="white" fill="white" /><g style="fill:none;stroke:#000000;stroke-width:1"><path d="M 14.7 1.1 C 18.3 -4.5 20.3 -11.5 20.3 -21.2 L 20.3 -26.8 C 20.3 -29.6 21.5 -30.7 24.6 -30.7 L 44.7 -30.7 " transform="translate(0.0 38.0)" stroke-dasharray="55.78287913193424" stroke-dashoffset="55.78287913193424"><animate attributeName="stroke-dashoffset" from="55.78287913193424" to="0" dur="1.673486373958027s" begin="0s" fill="freeze" /></path><path d="M 5.5 0.5 C 7.7 -3.0 10.0 -8.3 11.3 -12.7 " transform="translate(0.0 38.0)" stroke-dasharray="14.456242471614317" stroke-dashoffset="14.456242471614317"><animate attributeName="stroke-dashoffset" from="14.456242471614317" to="0" dur="0.4336872741484295s" begin="1.673486373958027s" fill="freeze" /></path><path d="M 8.4 -23.2 C 7.2 -24.6 5.3 -26.1 4.2 -26.9 " transform="translate(0.0 38.0)" stroke-dasharray="5.608257130601457" stroke-dashoffset="5.608257130601457"><animate attributeName="stroke-dashoffset" from="5.608257130601457" to="0" dur="0.1682477139180437s" begin="2.1071736481064565s" fill="freeze" /></path><path d="M 28.6 2.0 L 39.5 2.0 C 41.6 2.0 42.4 1.4 42.4 0.0 L 42.4 -1.5 C 42.4 -3.0 41.6 -3.5 39.5 -3.5 L 28.6 -3.5 C 26.4 -3.5 25.6 -3.0 25.6 -1.5 L 25.6 0.0 C 25.6 1.4 26.4 2.0 28.6 2.0 Z " transform="translate(0.0 38.0)" stroke-dasharray="41.26546064798461" stroke-dashoffset="41.26546064798461"><animate attributeName="stroke-dashoffset" from="41.26546064798461" to="0" dur="1.2379638194395384s" begin="2.2754213620245003s" fill="freeze" /></path><path d="M 41.5 -8.0 L 26.6 -8.0 " transform="translate(0.0 38.0)" stroke-dasharray="14.899999999999999" stroke-dashoffset="14.899999999999999"><animate attributeName="stroke-dashoffset" from="14.899999999999999" to="0" dur="0.44699999999999995s" begin="3.513385181464039s" fill="freeze" /></path><path d="M 11.7 -35.1 C 10.6 -36.5 8.8 -38.0 7.7 -38.9 " transform="translate(0.0 38.0)" stroke-dasharray="5.527400052414648" stroke-dashoffset="5.527400052414648"><animate attributeName="stroke-dashoffset" from="5.527400052414648" to="0" dur="0.16582200157243943s" begin="3.960385181464039s" fill="freeze" /></path><path d="M 41.5 -12.3 L 26.6 -12.3 " transform="translate(0.0 38.0)" stroke-dasharray="14.899999999999999" stroke-dashoffset="14.899999999999999"><animate attributeName="stroke-dashoffset" from="14.899999999999999" to="0" dur="0.44699999999999995s" begin="4.126207183036478s" fill="freeze" /></path><path d="M 45.9 -16.8 L 21.1 -16.8 " transform="translate(0.0 38.0)" stroke-dasharray="24.799999999999997" stroke-dashoffset="24.799999999999997"><animate attributeName="stroke-dashoffset" from="24.799999999999997" to="0" dur="0.7439999999999999s" begin="4.573207183036478s" fill="freeze" /></path><path d="M 24.9 -23.9 C 28.4 -25.0 30.6 -27.4 31.1 -30.4 " transform="translate(0.0 38.0)" stroke-dasharray="9.476087523412142" stroke-dashoffset="9.476087523412142"><animate attributeName="stroke-dashoffset" from="9.476087523412142" to="0" dur="0.28428262570236423s" begin="5.317207183036478s" fill="freeze" /></path><path d="M 40.9 -21.1 L 27.4 -21.1 " transform="translate(0.0 38.0)" stroke-dasharray="13.5" stroke-dashoffset="13.5"><animate attributeName="stroke-dashoffset" from="13.5" to="0" dur="0.40499999999999997s" begin="5.601489808738842s" fill="freeze" /></path><path d="M 16.0 -29.1 C 19.4 -31.9 23.1 -36.4 25.3 -40.3 " transform="translate(0.0 38.0)" stroke-dasharray="14.628561906271653" stroke-dashoffset="14.628561906271653"><animate attributeName="stroke-dashoffset" from="14.628561906271653" to="0" dur="0.43885685718814954s" begin="6.006489808738842s" fill="freeze" /></path><path d="M 31.3 -30.8 C 32.1 -31.7 32.8 -32.5 33.5 -33.5 C 34.5 -35.2 34.0 -36.5 31.6 -36.5 L 23.4 -36.5 " transform="translate(0.0 38.0)" stroke-dasharray="16.442237862099105" stroke-dashoffset="16.442237862099105"><animate attributeName="stroke-dashoffset" from="16.442237862099105" to="0" dur="0.49326713586297316s" begin="6.445346665926992s" fill="freeze" /></path><path d="M 44.8 -27.5 C 44.5 -25.7 43.5 -25.1 40.6 -25.1 C 37.8 -25.1 37.1 -25.6 37.1 -27.0 L 37.1 -30.1" transform="translate(0.0 38.0)" stroke-dasharray="13.102696794765212" stroke-dashoffset="13.102696794765212"><animate attributeName="stroke-dashoffset" from="13.102696794765212" to="0" dur="0.39308090384295635s" begin="6.938613801789964s" fill="freeze" /></path></g></svg>