<?xml version='1.0' encoding='utf-8'?>
<svg viewBox="0.0 -6.0 50.0 50.0" version="1.1" xmlns="http://www.w3.org/2000/svg"><rect x="-1000" y="-1000" width="2000" height="2000" stroke="white" fill="white" /><g style="fill:none;stroke:#000000;stroke-width:1"><path d="M 18.6 -22.7 C 24.3 -26.6 28.7 -32.6 30.9 -40.0 " transform="translate(0.0 38.0)" stroke-dasharray="21.645095220067926" stroke-dashoffset="21.645095220067926"><animate attributeName="stroke-dashoffset" from="21.645095220067926" to="0" dur="0.6493528566020378s" begin="0s" fill="freeze" /></path><path d="M 2.8 -9.8 C 5.6 -14.2 8.0 -20.4 9.2 -26.2 " transform="translate(0.0 38.0)" stroke-dasharray="17.691938281887836" stroke-dashoffset="17.691938281887836"><animate attributeName="stroke-dashoffset" from="17.691938281887836" to="0" dur="0.530758148456635s" begin="0.6493528566020378s" fill="freeze" /></path><path d="M 16.1 -16.2 C 14.9 -17.9 13.2 -19.8 11.2 -21.3 " transform="translate(0.0 38.0)" stroke-dasharray="7.100116049671714" stroke-dashoffset="7.100116049671714"><animate attributeName="stroke-dashoffset" from="7.100116049671714" to="0" dur="0.21300348149015141s" begin="1.1801110050586727s" fill="freeze" /></path><path d="M 24.0 -7.7 C 25.6 -10.4 26.9 -13.3 28.1 -16.6 " transform="translate(0.0 38.0)" stroke-dasharray="9.813414117680125" stroke-dashoffset="9.813414117680125"><animate attributeName="stroke-dashoffset" from="9.813414117680125" to="0" dur="0.29440242353040375s" begin="1.393114486548824s" fill="freeze" /></path><path d="M 32.0 1.1 C 32.9 1.4 33.8 1.5 34.8 1.5 C 36.8 1.5 38.1 0.8 38.9 -1.6 C 39.4 -3.2 39.8 -5.2 40.0 -7.1 C 40.2 -8.9 39.4 -9.9 36.9 -9.9 L 25.1 -9.9 " transform="translate(0.0 38.0)" stroke-dasharray="30.81078805677852" stroke-dashoffset="30.81078805677852"><animate attributeName="stroke-dashoffset" from="30.81078805677852" to="0" dur="0.9243236417033556s" begin="1.6875169100792278s" fill="freeze" /></path><path d="M 15.8 -29.1 L 3.5 -29.1 " transform="translate(0.0 38.0)" stroke-dasharray="12.3" stroke-dashoffset="12.3"><animate attributeName="stroke-dashoffset" from="12.3" to="0" dur="0.369s" begin="2.611840551782583s" fill="freeze" /></path><path d="M 43.7 -17.2 L 20.9 -17.2 " transform="translate(0.0 38.0)" stroke-dasharray="22.800000000000004" stroke-dashoffset="22.800000000000004"><animate attributeName="stroke-dashoffset" from="22.800000000000004" to="0" dur="0.684s" begin="2.980840551782583s" fill="freeze" /></path><path d="M 37.0 -24.0 L 27.1 -24.0 " transform="translate(0.0 38.0)" stroke-dasharray="9.899999999999999" stroke-dashoffset="9.899999999999999"><animate attributeName="stroke-dashoffset" from="9.899999999999999" to="0" dur="0.29699999999999993s" begin="3.664840551782583s" fill="freeze" /></path><path d="M 44.0 -33.8 L 20.1 -33.8 " transform="translate(0.0 38.0)" stroke-dasharray="23.9" stroke-dashoffset="23.9"><animate attributeName="stroke-dashoffset" from="23.9" to="0" dur="0.717s" begin="3.9618405517825828s" fill="freeze" /></path><path d="M 46.0 -23.4 C 41.9 -25.6 38.2 -29.1 35.8 -33.3 " transform="translate(0.0 38.0)" stroke-dasharray="14.396082934177002" stroke-dashoffset="14.396082934177002"><animate attributeName="stroke-dashoffset" from="14.396082934177002" to="0" dur="0.43188248802531004s" begin="4.678840551782582s" fill="freeze" /></path><path d="M 10.3 2.6 L 10.3 -40.5" transform="translate(0.0 38.0)" stroke-dasharray="43.1" stroke-dashoffset="43.1"><animate attributeName="stroke-dashoffset" from="43.1" to="0" dur="1.293s" begin="5.110723039807892s" fill="freeze" /></path></g></svg>