<?xml version='1.0' encoding='utf-8'?>
<svg viewBox="0.0 -6.0 50.0 50.0" version="1.1" xmlns="http://www.w3.org/2000/svg"><rect x="-1000" y="-1000" width="2000" height="2000" stroke="white" fill="white" /><g style="fill:none;stroke:#000000;stroke-width:1"><path d="M 35.1 -17.9 C 36.1 -17.8 37.1 -17.6 38.2 -17.6 C 40.2 -17.6 41.5 -18.4 42.1 -20.9 C 43.0 -24.1 43.6 -28.9 43.6 -33.5 C 43.6 -35.4 42.6 -36.2 40.1 -36.2 L 27.1 -36.2 " transform="translate(0.0 38.0)" stroke-dasharray="39.586750010365165" stroke-dashoffset="39.586750010365165"><animate attributeName="stroke-dashoffset" from="39.586750010365165" to="0" dur="1.187602500310955s" begin="0s; anim_end.end" fill="freeze" id="anim0" /></path><path d="M 5.7 -1.6 C 7.0 -3.3 8.2 -5.7 9.2 -8.0 " transform="translate(0.0 38.0)" stroke-dasharray="7.310987788385884" stroke-dashoffset="7.310987788385884"><animate attributeName="stroke-dashoffset" from="7.310987788385884" to="0" dur="0.2193296336515765s" begin="anim0.end" fill="freeze" id="anim1" /></path><path d="M 16.4 -10.0 L 16.4 -1.6 C 16.4 0.9 17.4 1.6 24.9 1.6 C 33.2 1.6 35.1 0.1 35.6 -4.2 " transform="translate(0.0 38.0)" stroke-dasharray="32.475411316645946" stroke-dashoffset="32.475411316645946"><animate attributeName="stroke-dashoffset" from="32.475411316645946" to="0" dur="0.9742623394993783s" begin="anim1.end" fill="freeze" id="anim2" /></path><path d="M 4.8 -17.6 C 10.4 -18.8 17.7 -21.1 22.9 -23.6 " transform="translate(0.0 38.0)" stroke-dasharray="19.106612738787582" stroke-dashoffset="19.106612738787582"><animate attributeName="stroke-dashoffset" from="19.106612738787582" to="0" dur="0.5731983821636274s" begin="anim2.end" fill="freeze" id="anim3" /></path><path d="M 28.1 -8.0 C 26.8 -9.2 25.4 -10.5 24.1 -11.4 " transform="translate(0.0 38.0)" stroke-dasharray="5.253939005022608" stroke-dashoffset="5.253939005022608"><animate attributeName="stroke-dashoffset" from="5.253939005022608" to="0" dur="0.15761817015067822s" begin="anim3.end" fill="freeze" id="anim4" /></path><path d="M 15.2 -15.2 L 13.2 -39.7 " transform="translate(0.0 38.0)" stroke-dasharray="24.581497106563713" stroke-dashoffset="24.581497106563713"><animate attributeName="stroke-dashoffset" from="24.581497106563713" to="0" dur="0.7374449131969114s" begin="anim4.end" fill="freeze" id="anim5" /></path><path d="M 5.3 -25.4 C 10.8 -26.5 16.9 -28.2 21.9 -30.4 " transform="translate(0.0 38.0)" stroke-dasharray="17.368514378810232" stroke-dashoffset="17.368514378810232"><animate attributeName="stroke-dashoffset" from="17.368514378810232" to="0" dur="0.521055431364307s" begin="anim5.end" fill="freeze" id="anim6" /></path><path d="M 44.5 -3.5 C 43.4 -5.2 41.7 -7.3 40.2 -8.8 " transform="translate(0.0 38.0)" stroke-dasharray="6.835838833636748" stroke-dashoffset="6.835838833636748"><animate attributeName="stroke-dashoffset" from="6.835838833636748" to="0" dur="0.20507516500910242s" begin="anim6.end" fill="freeze" id="anim7" /></path><path d="M 5.8 -32.9 C 10.9 -33.8 16.2 -35.3 20.7 -37.1 " transform="translate(0.0 38.0)" stroke-dasharray="15.506611955560047" stroke-dashoffset="15.506611955560047"><animate attributeName="stroke-dashoffset" from="15.506611955560047" to="0" dur="0.46519835866680137s" begin="anim7.end" fill="freeze" id="anim8" /></path><path d="M 24.6 -16.8 C 30.2 -21.0 33.3 -27.2 33.9 -35.8" transform="translate(0.0 38.0)" stroke-dasharray="21.86740414176899" stroke-dashoffset="21.86740414176899"><animate attributeName="stroke-dashoffset" from="21.86740414176899" to="0" dur="0.6560221242530697s" begin="anim8.end" fill="freeze" id="anim_end" /></path></g></svg>