<?xml version='1.0' encoding='utf-8'?>
<svg viewBox="0.0 -6.0 50.0 50.0" version="1.1" xmlns="http://www.w3.org/2000/svg"><rect x="-1000" y="-1000" width="2000" height="2000" stroke="white" fill="white" /><g style="fill:none;stroke:#000000;stroke-width:1"><path d="M 29.6 -16.3 L 21.9 -16.3 C 19.6 -16.3 18.6 -17.1 18.6 -19.2 L 18.6 -35.9 C 18.6 -38.0 19.6 -38.8 21.9 -38.8 L 29.9 -38.8 " transform="translate(0.0 38.0)" stroke-dasharray="42.603862397506994" stroke-dashoffset="42.603862397506994"><animate attributeName="stroke-dashoffset" from="42.603862397506994" to="0" dur="1.2781158719252097s" begin="0s" fill="freeze" /></path><path d="M 2.5 -10.4 C 5.0 -14.6 7.0 -20.6 8.2 -26.2 " transform="translate(0.0 38.0)" stroke-dasharray="16.863575284085034" stroke-dashoffset="16.863575284085034"><animate attributeName="stroke-dashoffset" from="16.863575284085034" to="0" dur="0.505907258522551s" begin="1.2781158719252097s" fill="freeze" /></path><path d="M 9.2 2.7 L 9.2 -40.5 " transform="translate(0.0 38.0)" stroke-dasharray="43.2" stroke-dashoffset="43.2"><animate attributeName="stroke-dashoffset" from="43.2" to="0" dur="1.296s" begin="1.7840231304477607s" fill="freeze" /></path><path d="M 46.1 0.8 L 16.1 0.8 " transform="translate(0.0 38.0)" stroke-dasharray="30.0" stroke-dashoffset="30.0"><animate attributeName="stroke-dashoffset" from="30.0" to="0" dur="0.8999999999999999s" begin="3.0800231304477608s" fill="freeze" /></path><path d="M 14.9 -15.8 C 13.7 -17.6 11.9 -19.4 10.0 -20.8 " transform="translate(0.0 38.0)" stroke-dasharray="7.033863752236461" stroke-dashoffset="7.033863752236461"><animate attributeName="stroke-dashoffset" from="7.033863752236461" to="0" dur="0.21101591256709382s" begin="3.9800231304477607s" fill="freeze" /></path><path d="M 31.0 1.2 L 31.0 -11.8 " transform="translate(0.0 38.0)" stroke-dasharray="13.0" stroke-dashoffset="13.0"><animate attributeName="stroke-dashoffset" from="13.0" to="0" dur="0.39s" begin="4.191039043014855s" fill="freeze" /></path><path d="M 14.2 -29.4 L 2.9 -29.4 " transform="translate(0.0 38.0)" stroke-dasharray="11.299999999999999" stroke-dashoffset="11.299999999999999"><animate attributeName="stroke-dashoffset" from="11.299999999999999" to="0" dur="0.33899999999999997s" begin="4.581039043014854s" fill="freeze" /></path><path d="M 42.0 -7.6 L 20.4 -7.6 " transform="translate(0.0 38.0)" stroke-dasharray="21.6" stroke-dashoffset="21.6"><animate attributeName="stroke-dashoffset" from="21.6" to="0" dur="0.648s" begin="4.920039043014855s" fill="freeze" /></path><path d="M 25.1 -16.8 L 25.1 -24.6 " transform="translate(0.0 38.0)" stroke-dasharray="7.800000000000001" stroke-dashoffset="7.800000000000001"><animate attributeName="stroke-dashoffset" from="7.800000000000001" to="0" dur="0.234s" begin="5.5680390430148545s" fill="freeze" /></path><path d="M 18.9 -24.6 L 27.3 -24.6 C 29.2 -24.6 29.9 -25.1 29.9 -26.8 L 29.9 -29.1 C 29.9 -30.8 29.2 -31.4 27.3 -31.4 L 18.9 -31.4 " transform="translate(0.0 38.0)" stroke-dasharray="27.16244031729163" stroke-dashoffset="27.16244031729163"><animate attributeName="stroke-dashoffset" from="27.16244031729163" to="0" dur="0.8148732095187489s" begin="5.8020390430148545s" fill="freeze" /></path><path d="M 25.1 -32.1 L 25.1 -38.2 " transform="translate(0.0 38.0)" stroke-dasharray="6.100000000000001" stroke-dashoffset="6.100000000000001"><animate attributeName="stroke-dashoffset" from="6.100000000000001" to="0" dur="0.18300000000000002s" begin="6.616912252533603s" fill="freeze" /></path><path d="M 33.9 -16.9 C 38.8 -20.8 43.2 -27.8 44.5 -34.1 C 44.9 -36.1 44.1 -37.2 42.0 -37.2 L 33.5 -37.2 " transform="translate(0.0 38.0)" stroke-dasharray="33.867746215593684" stroke-dashoffset="33.867746215593684"><animate attributeName="stroke-dashoffset" from="33.867746215593684" to="0" dur="1.0160323864678105s" begin="6.799912252533603s" fill="freeze" /></path><path d="M 46.1 -15.8 C 41.0 -20.6 37.0 -27.8 35.6 -36.4" transform="translate(0.0 38.0)" stroke-dasharray="23.531445652878066" stroke-dashoffset="23.531445652878066"><animate attributeName="stroke-dashoffset" from="23.531445652878066" to="0" dur="0.705943369586342s" begin="7.815944639001414s" fill="freeze" /></path></g></svg>