<?xml version='1.0' encoding='utf-8'?>
<svg viewBox="0.0 -6.0 50.0 50.0" version="1.1" xmlns="http://www.w3.org/2000/svg"><rect x="-1000" y="-1000" width="2000" height="2000" stroke="white" fill="white" /><g style="fill:none;stroke:#000000;stroke-width:1"><path d="M 17.3 0.9 C 21.1 -4.4 23.4 -12.2 23.4 -24.2 L 23.4 -28.7 C 23.4 -31.2 24.4 -32.3 27.6 -32.3 L 45.5 -32.3 " transform="translate(0.0 38.0)" stroke-dasharray="55.09841347866386" stroke-dashoffset="55.09841347866386"><animate attributeName="stroke-dashoffset" from="55.09841347866386" to="0" dur="1.6529524043599158s" begin="0s; anim_end.end" fill="freeze" id="anim0" /></path><path d="M 8.6 -6.2 L 11.9 -6.2 C 14.2 -6.2 15.1 -7.2 15.1 -9.5 L 15.1 -34.0 C 15.1 -36.4 14.2 -37.3 11.9 -37.3 L 8.6 -37.3 C 6.4 -37.3 5.5 -36.4 5.5 -34.0 L 5.5 -9.5 C 5.5 -7.2 6.4 -6.2 8.6 -6.2 Z " transform="translate(0.0 38.0)" stroke-dasharray="76.83416698244683" stroke-dashoffset="76.83416698244683"><animate attributeName="stroke-dashoffset" from="76.83416698244683" to="0" dur="2.305025009473405s" begin="anim0.end" fill="freeze" id="anim1" /></path><path d="M 14.8 -22.6 L 5.7 -22.6 " transform="translate(0.0 38.0)" stroke-dasharray="9.100000000000001" stroke-dashoffset="9.100000000000001"><animate attributeName="stroke-dashoffset" from="9.100000000000001" to="0" dur="0.273s" begin="anim1.end" fill="freeze" id="anim2" /></path><path d="M 25.2 -0.8 C 31.1 -1.4 37.4 -2.5 43.5 -3.9 " transform="translate(0.0 38.0)" stroke-dasharray="18.572339518560064" stroke-dashoffset="18.572339518560064"><animate attributeName="stroke-dashoffset" from="18.572339518560064" to="0" dur="0.5571701855568019s" begin="anim2.end" fill="freeze" id="anim3" /></path><path d="M 28.9 -1.7 C 31.4 -8.5 33.5 -16.4 35.0 -25.2 " transform="translate(0.0 38.0)" stroke-dasharray="24.31236737533999" stroke-dashoffset="24.31236737533999"><animate attributeName="stroke-dashoffset" from="24.31236737533999" to="0" dur="0.7293710212601996s" begin="anim3.end" fill="freeze" id="anim4" /></path><path d="M 45.4 -0.3 C 43.7 -4.3 41.7 -8.0 39.5 -10.9 " transform="translate(0.0 38.0)" stroke-dasharray="12.161037418162085" stroke-dashoffset="12.161037418162085"><animate attributeName="stroke-dashoffset" from="12.161037418162085" to="0" dur="0.36483112254486255s" begin="anim4.end" fill="freeze" id="anim5" /></path><path d="M 34.6 -32.9 L 34.6 -39.9" transform="translate(0.0 38.0)" stroke-dasharray="7.0" stroke-dashoffset="7.0"><animate attributeName="stroke-dashoffset" from="7.0" to="0" dur="0.21s" begin="anim5.end" fill="freeze" id="anim_end" /></path></g></svg>