<?xml version='1.0' encoding='utf-8'?>
<svg viewBox="0.0 -6.0 50.0 50.0" version="1.1" xmlns="http://www.w3.org/2000/svg"><rect x="-1000" y="-1000" width="2000" height="2000" stroke="white" fill="white" /><g style="fill:none;stroke:#000000;stroke-width:1"><path d="M 14.7 1.8 C 20.7 -3.2 24.9 -12.1 25.6 -20.4 C 25.8 -22.6 25.1 -23.6 22.9 -23.6 L 20.1 -23.6 L 18.9 -25.8 C 20.4 -28.3 21.8 -31.2 23.0 -34.3 C 23.7 -36.1 22.9 -37.4 20.8 -37.4 L 16.1 -37.4 " transform="translate(0.0 38.0)" stroke-dasharray="54.50221714349654" stroke-dashoffset="54.50221714349654"><animate attributeName="stroke-dashoffset" from="54.50221714349654" to="0" dur="1.6350665143048961s" begin="0s; 15s; 30s; 45s" fill="freeze" id="anim0" /></path><path d="M 3.5 -13.9 C 7.2 -15.1 11.0 -16.4 14.2 -18.1 " transform="translate(0.0 38.0)" stroke-dasharray="11.509351397045464" stroke-dashoffset="11.509351397045464"><animate attributeName="stroke-dashoffset" from="11.509351397045464" to="0" dur="0.3452805419113639s" begin="anim0.end" fill="freeze" id="anim1" /></path><path d="M 4.2 1.6 C 5.0 1.8 5.8 1.8 6.5 1.8 C 8.4 1.8 9.4 1.0 9.4 -1.4 L 9.4 -40.2 " transform="translate(0.0 38.0)" stroke-dasharray="46.12251457987401" stroke-dashoffset="46.12251457987401"><animate attributeName="stroke-dashoffset" from="46.12251457987401" to="0" dur="1.3836754373962201s" begin="anim1.end" fill="freeze" id="anim2" /></path><path d="M 15.1 -11.8 C 16.6 -13.3 17.9 -15.4 19.1 -17.5 " transform="translate(0.0 38.0)" stroke-dasharray="6.983391327038283" stroke-dashoffset="6.983391327038283"><animate attributeName="stroke-dashoffset" from="6.983391327038283" to="0" dur="0.20950173981114847s" begin="anim2.end" fill="freeze" id="anim3" /></path><path d="M 14.2 -29.8 L 3.7 -29.8 " transform="translate(0.0 38.0)" stroke-dasharray="10.5" stroke-dashoffset="10.5"><animate attributeName="stroke-dashoffset" from="10.5" to="0" dur="0.315s" begin="anim3.end" fill="freeze" id="anim4" /></path><path d="M 46.9 0.1 C 43.8 0.3 41.0 0.5 37.5 0.5 C 25.9 0.5 20.6 -4.5 18.8 -16.3 " transform="translate(0.0 38.0)" stroke-dasharray="37.65223644170295" stroke-dashoffset="37.65223644170295"><animate attributeName="stroke-dashoffset" from="37.65223644170295" to="0" dur="1.1295670932510884s" begin="anim4.end" fill="freeze" id="anim5" /></path><path d="M 46.5 -9.8 L 28.5 -9.8 " transform="translate(0.0 38.0)" stroke-dasharray="18.0" stroke-dashoffset="18.0"><animate attributeName="stroke-dashoffset" from="18.0" to="0" dur="0.54s" begin="anim5.end" fill="freeze" id="anim6" /></path><path d="M 44.6 -16.4 L 30.2 -16.4 " transform="translate(0.0 38.0)" stroke-dasharray="14.400000000000002" stroke-dashoffset="14.400000000000002"><animate attributeName="stroke-dashoffset" from="14.400000000000002" to="0" dur="0.43200000000000005s" begin="anim6.end" fill="freeze" id="anim7" /></path><path d="M 36.5 -4.2 L 36.5 -40.4 " transform="translate(0.0 38.0)" stroke-dasharray="36.199999999999996" stroke-dashoffset="36.199999999999996"><animate attributeName="stroke-dashoffset" from="36.199999999999996" to="0" dur="1.0859999999999999s" begin="anim7.end" fill="freeze" id="anim8" /></path><path d="M 30.2 -22.9 L 40.9 -22.9 C 43.0 -22.9 44.0 -23.8 44.0 -25.6 L 44.0 -33.0 C 44.0 -34.8 43.0 -35.6 40.9 -35.6 L 29.9 -35.6 " transform="translate(0.0 38.0)" stroke-dasharray="38.477106424240716" stroke-dashoffset="38.477106424240716"><animate attributeName="stroke-dashoffset" from="38.477106424240716" to="0" dur="1.1543131927272214s" begin="anim8.end" fill="freeze" id="anim9" /></path><path d="M 47.4 -29.4 L 27.8 -29.4" transform="translate(0.0 38.0)" stroke-dasharray="19.599999999999998" stroke-dashoffset="19.599999999999998"><animate attributeName="stroke-dashoffset" from="19.599999999999998" to="0" dur="0.588s" begin="anim9.end" fill="freeze" id="anim_end" /></path></g></svg>