<?xml version='1.0' encoding='utf-8'?>
<svg viewBox="0.0 -6.0 50.0 50.0" version="1.1" xmlns="http://www.w3.org/2000/svg"><rect x="-1000" y="-1000" width="2000" height="2000" stroke="white" fill="white" /><g style="fill:none;stroke:#000000;stroke-width:1"><path d="M 44.2 -31.1 L 44.2 -34.1 C 44.2 -36.0 43.4 -37.0 40.5 -37.0 L 9.6 -37.0 C 6.7 -37.0 5.8 -36.2 5.8 -34.2 L 5.8 -31.1 " transform="translate(0.0 38.0)" stroke-dasharray="47.95416082413566" stroke-dashoffset="47.95416082413566"><animate attributeName="stroke-dashoffset" from="47.95416082413566" to="0" dur="1.4386248247240698s" begin="0s; anim_end.end" fill="freeze" id="anim0" /></path><path d="M 4.0 -9.2 C 9.3 -11.7 14.9 -16.1 18.2 -20.8 " transform="translate(0.0 38.0)" stroke-dasharray="18.52092590004425" stroke-dashoffset="18.52092590004425"><animate attributeName="stroke-dashoffset" from="18.52092590004425" to="0" dur="0.5556277770013275s" begin="anim0.end" fill="freeze" id="anim1" /></path><path d="M 19.4 2.6 C 20.4 2.8 21.2 2.9 22.1 2.9 C 24.1 2.9 24.9 2.0 24.9 -0.1 L 24.9 -16.1 " transform="translate(0.0 38.0)" stroke-dasharray="23.48676910607849" stroke-dashoffset="23.48676910607849"><animate attributeName="stroke-dashoffset" from="23.48676910607849" to="0" dur="0.7046030731823547s" begin="anim1.end" fill="freeze" id="anim2" /></path><path d="M 42.1 -4.5 L 8.3 -4.5 " transform="translate(0.0 38.0)" stroke-dasharray="33.8" stroke-dashoffset="33.8"><animate attributeName="stroke-dashoffset" from="33.8" to="0" dur="1.0139999999999998s" begin="anim2.end" fill="freeze" id="anim3" /></path><path d="M 36.5 -10.1 L 13.3 -10.1 " transform="translate(0.0 38.0)" stroke-dasharray="23.2" stroke-dashoffset="23.2"><animate attributeName="stroke-dashoffset" from="23.2" to="0" dur="0.696s" begin="anim3.end" fill="freeze" id="anim4" /></path><path d="M 18.8 -15.2 C 22.1 -15.3 26.9 -15.9 29.9 -16.6 " transform="translate(0.0 38.0)" stroke-dasharray="11.20225939315261" stroke-dashoffset="11.20225939315261"><animate attributeName="stroke-dashoffset" from="11.20225939315261" to="0" dur="0.3360677817945783s" begin="anim4.end" fill="freeze" id="anim5" /></path><path d="M 45.5 -21.1 L 4.5 -21.1 " transform="translate(0.0 38.0)" stroke-dasharray="41.0" stroke-dashoffset="41.0"><animate attributeName="stroke-dashoffset" from="41.0" to="0" dur="1.23s" begin="anim5.end" fill="freeze" id="anim6" /></path><path d="M 19.1 -21.4 L 19.1 -33.7 " transform="translate(0.0 38.0)" stroke-dasharray="12.300000000000004" stroke-dashoffset="12.300000000000004"><animate attributeName="stroke-dashoffset" from="12.300000000000004" to="0" dur="0.3690000000000001s" begin="anim6.end" fill="freeze" id="anim7" /></path><path d="M 37.9 -26.0 L 11.9 -26.0 " transform="translate(0.0 38.0)" stroke-dasharray="26.0" stroke-dashoffset="26.0"><animate attributeName="stroke-dashoffset" from="26.0" to="0" dur="0.78s" begin="anim7.end" fill="freeze" id="anim8" /></path><path d="M 45.9 -10.2 C 40.2 -12.3 34.4 -16.6 31.0 -21.2 " transform="translate(0.0 38.0)" stroke-dasharray="18.757044852947182" stroke-dashoffset="18.757044852947182"><animate attributeName="stroke-dashoffset" from="18.757044852947182" to="0" dur="0.5627113455884154s" begin="anim8.end" fill="freeze" id="anim9" /></path><path d="M 39.4 -31.0 L 10.6 -31.0 " transform="translate(0.0 38.0)" stroke-dasharray="28.799999999999997" stroke-dashoffset="28.799999999999997"><animate attributeName="stroke-dashoffset" from="28.799999999999997" to="0" dur="0.8639999999999999s" begin="anim9.end" fill="freeze" id="anim10" /></path><path d="M 30.6 -21.4 L 30.6 -33.7 " transform="translate(0.0 38.0)" stroke-dasharray="12.300000000000004" stroke-dashoffset="12.300000000000004"><animate attributeName="stroke-dashoffset" from="12.300000000000004" to="0" dur="0.3690000000000001s" begin="anim10.end" fill="freeze" id="anim11" /></path><path d="M 24.9 -36.5 L 24.9 -41.0" transform="translate(0.0 38.0)" stroke-dasharray="4.5" stroke-dashoffset="4.5"><animate attributeName="stroke-dashoffset" from="4.5" to="0" dur="0.135s" begin="anim11.end" fill="freeze" id="anim_end" /></path></g></svg>