<?xml version='1.0' encoding='utf-8'?>
<svg viewBox="0.0 -6.0 50.0 50.0" version="1.1" xmlns="http://www.w3.org/2000/svg"><rect x="-1000" y="-1000" width="2000" height="2000" stroke="white" fill="white" /><g style="fill:none;stroke:#000000;stroke-width:1"><path d="M 14.4 1.6 C 25.5 -5.8 30.1 -16.1 30.1 -31.8 L 30.1 -39.8 " transform="translate(0.0 38.0)" stroke-dasharray="46.688391882690496" stroke-dashoffset="46.688391882690496"><animate attributeName="stroke-dashoffset" from="46.688391882690496" to="0" dur="1.4006517564807148s" begin="0s" fill="freeze" /></path><path d="M 5.5 0.5 C 7.7 -3.0 10.0 -8.3 11.3 -12.7 " transform="translate(0.0 38.0)" stroke-dasharray="14.456242471614317" stroke-dashoffset="14.456242471614317"><animate attributeName="stroke-dashoffset" from="14.456242471614317" to="0" dur="0.4336872741484295s" begin="1.4006517564807148s" fill="freeze" /></path><path d="M 8.4 -23.2 C 7.2 -24.6 5.3 -26.1 4.2 -26.9 " transform="translate(0.0 38.0)" stroke-dasharray="5.608257130601457" stroke-dashoffset="5.608257130601457"><animate attributeName="stroke-dashoffset" from="5.608257130601457" to="0" dur="0.1682477139180437s" begin="1.8343390306291443s" fill="freeze" /></path><path d="M 11.7 -35.1 C 10.6 -36.5 8.8 -38.0 7.7 -38.9 " transform="translate(0.0 38.0)" stroke-dasharray="5.527400052414648" stroke-dashoffset="5.527400052414648"><animate attributeName="stroke-dashoffset" from="5.527400052414648" to="0" dur="0.16582200157243943s" begin="2.002586744547188s" fill="freeze" /></path><path d="M 45.9 -5.2 C 45.2 -0.6 43.6 0.9 37.6 0.9 C 33.5 0.9 32.6 0.3 32.6 -1.9 L 32.6 -20.9 " transform="translate(0.0 38.0)" stroke-dasharray="37.436183326497165" stroke-dashoffset="37.436183326497165"><animate attributeName="stroke-dashoffset" from="37.436183326497165" to="0" dur="1.123085499794915s" begin="2.1684087461196273s" fill="freeze" /></path><path d="M 44.0 -24.3 L 44.0 -27.8 C 44.0 -29.6 43.0 -30.8 40.3 -30.8 L 21.9 -30.8 C 19.2 -30.8 18.2 -29.6 18.2 -27.8 L 18.2 -23.8" transform="translate(0.0 38.0)" stroke-dasharray="36.79824281236431" stroke-dashoffset="36.79824281236431"><animate attributeName="stroke-dashoffset" from="36.79824281236431" to="0" dur="1.1039472843709293s" begin="3.291494245914542s" fill="freeze" /></path></g></svg>