<?xml version='1.0' encoding='utf-8'?>
<svg viewBox="0.0 -6.0 50.0 50.0" version="1.1" xmlns="http://www.w3.org/2000/svg"><rect x="-1000" y="-1000" width="2000" height="2000" stroke="white" fill="white" /><g style="fill:none;stroke:#000000;stroke-width:1"><path d="M 17.1 2.1 C 25.9 -0.5 31.2 -5.9 31.6 -15.3 " transform="translate(0.0 38.0)" stroke-dasharray="24.4595298870006" stroke-dashoffset="24.4595298870006"><animate attributeName="stroke-dashoffset" from="24.4595298870006" to="0" dur="0.7337858966100179s" begin="0s; anim_end.end" fill="freeze" id="anim0" /></path><path d="M 2.7 -10.0 C 5.5 -14.3 7.8 -20.4 8.9 -26.3 " transform="translate(0.0 38.0)" stroke-dasharray="17.5418666739681" stroke-dashoffset="17.5418666739681"><animate attributeName="stroke-dashoffset" from="17.5418666739681" to="0" dur="0.5262560002190431s" begin="anim0.end" fill="freeze" id="anim1" /></path><path d="M 10.1 2.6 L 10.1 -40.5 " transform="translate(0.0 38.0)" stroke-dasharray="43.1" stroke-dashoffset="43.1"><animate attributeName="stroke-dashoffset" from="43.1" to="0" dur="1.293s" begin="anim1.end" fill="freeze" id="anim2" /></path><path d="M 15.8 -16.9 C 14.6 -18.8 12.8 -20.6 10.9 -22.1 " transform="translate(0.0 38.0)" stroke-dasharray="7.177794811024741" stroke-dashoffset="7.177794811024741"><animate attributeName="stroke-dashoffset" from="7.177794811024741" to="0" dur="0.21533384433074224s" begin="anim2.end" fill="freeze" id="anim3" /></path><path d="M 15.8 -29.2 L 3.3 -29.2 " transform="translate(0.0 38.0)" stroke-dasharray="12.5" stroke-dashoffset="12.5"><animate attributeName="stroke-dashoffset" from="12.5" to="0" dur="0.375s" begin="anim3.end" fill="freeze" id="anim4" /></path><path d="M 45.9 -9.2 L 17.8 -9.2 " transform="translate(0.0 38.0)" stroke-dasharray="28.099999999999998" stroke-dashoffset="28.099999999999998"><animate attributeName="stroke-dashoffset" from="28.099999999999998" to="0" dur="0.8429999999999999s" begin="anim4.end" fill="freeze" id="anim5" /></path><path d="M 45.6 1.6 C 39.6 0.2 34.5 -3.6 31.6 -8.6 " transform="translate(0.0 38.0)" stroke-dasharray="17.804920501857943" stroke-dashoffset="17.804920501857943"><animate attributeName="stroke-dashoffset" from="17.804920501857943" to="0" dur="0.5341476150557383s" begin="anim5.end" fill="freeze" id="anim6" /></path><path d="M 25.4 -15.6 L 38.2 -15.6 C 40.9 -15.6 41.8 -16.6 41.8 -18.7 L 41.8 -24.8 C 41.8 -26.8 40.9 -27.9 38.2 -27.9 L 25.4 -27.9 C 22.6 -27.9 21.8 -26.8 21.8 -24.8 L 21.8 -18.7 C 21.8 -16.6 22.6 -15.6 25.4 -15.6 Z " transform="translate(0.0 38.0)" stroke-dasharray="59.88086909723202" stroke-dashoffset="59.88086909723202"><animate attributeName="stroke-dashoffset" from="59.88086909723202" to="0" dur="1.7964260729169605s" begin="anim6.end" fill="freeze" id="anim7" /></path><path d="M 42.4 -21.8 L 22.2 -21.8 " transform="translate(0.0 38.0)" stroke-dasharray="20.2" stroke-dashoffset="20.2"><animate attributeName="stroke-dashoffset" from="20.2" to="0" dur="0.606s" begin="anim7.end" fill="freeze" id="anim8" /></path><path d="M 26.8 -31.9 L 26.8 -40.4 " transform="translate(0.0 38.0)" stroke-dasharray="8.5" stroke-dashoffset="8.5"><animate attributeName="stroke-dashoffset" from="8.5" to="0" dur="0.255s" begin="anim8.end" fill="freeze" id="anim9" /></path><path d="M 45.9 -35.9 L 18.6 -35.9 " transform="translate(0.0 38.0)" stroke-dasharray="27.299999999999997" stroke-dashoffset="27.299999999999997"><animate attributeName="stroke-dashoffset" from="27.299999999999997" to="0" dur="0.8189999999999998s" begin="anim9.end" fill="freeze" id="anim10" /></path><path d="M 36.4 -31.9 L 36.4 -40.4" transform="translate(0.0 38.0)" stroke-dasharray="8.5" stroke-dashoffset="8.5"><animate attributeName="stroke-dashoffset" from="8.5" to="0" dur="0.255s" begin="anim10.end" fill="freeze" id="anim_end" /></path></g></svg>