<?xml version='1.0' encoding='utf-8'?>
<svg viewBox="0.0 -6.0 50.0 50.0" version="1.1" xmlns="http://www.w3.org/2000/svg"><rect x="-1000" y="-1000" width="2000" height="2000" stroke="white" fill="white" /><g style="fill:none;stroke:#000000;stroke-width:1"><path d="M 4.5 1.4 C 5.5 1.6 6.3 1.6 7.0 1.6 C 9.1 1.6 10.2 0.8 10.2 -1.8 L 10.2 -40.2 " transform="translate(0.0 38.0)" stroke-dasharray="46.342527709172764" stroke-dashoffset="46.342527709172764"><animate attributeName="stroke-dashoffset" from="46.342527709172764" to="0" dur="1.3902758312751828s" begin="0s; anim_end.end" fill="freeze" id="anim0" /></path><path d="M 3.8 -13.4 C 8.0 -14.7 11.8 -16.0 14.8 -17.4 " transform="translate(0.0 38.0)" stroke-dasharray="11.71324176933255" stroke-dashoffset="11.71324176933255"><animate attributeName="stroke-dashoffset" from="11.71324176933255" to="0" dur="0.3513972530799765s" begin="anim0.end" fill="freeze" id="anim1" /></path><path d="M 15.8 -29.4 L 3.9 -29.4 " transform="translate(0.0 38.0)" stroke-dasharray="11.9" stroke-dashoffset="11.9"><animate attributeName="stroke-dashoffset" from="11.9" to="0" dur="0.357s" begin="anim1.end" fill="freeze" id="anim2" /></path><path d="M 37.1 -2.8 C 37.8 -2.6 38.5 -2.6 39.1 -2.6 C 40.6 -2.6 41.5 -3.4 41.5 -5.3 L 41.5 -10.5 C 41.5 -12.7 40.7 -13.3 38.0 -13.3 L 25.9 -13.3 C 23.4 -13.3 22.6 -12.6 22.6 -10.5 L 22.6 -2.3 " transform="translate(0.0 38.0)" stroke-dasharray="42.043049282805" stroke-dashoffset="42.043049282805"><animate attributeName="stroke-dashoffset" from="42.043049282805" to="0" dur="1.26129147848415s" begin="anim2.end" fill="freeze" id="anim3" /></path><path d="M 31.6 2.6 L 31.6 -20.6 " transform="translate(0.0 38.0)" stroke-dasharray="23.200000000000003" stroke-dashoffset="23.200000000000003"><animate attributeName="stroke-dashoffset" from="23.200000000000003" to="0" dur="0.6960000000000001s" begin="anim3.end" fill="freeze" id="anim4" /></path><path d="M 45.6 -15.8 L 45.6 -18.2 C 45.6 -20.1 44.9 -21.0 42.5 -21.0 L 21.9 -21.0 C 19.6 -21.0 18.8 -20.1 18.8 -18.2 L 18.8 -15.4 " transform="translate(0.0 38.0)" stroke-dasharray="35.53227119958495" stroke-dashoffset="35.53227119958495"><animate attributeName="stroke-dashoffset" from="35.53227119958495" to="0" dur="1.0659681359875484s" begin="anim4.end" fill="freeze" id="anim5" /></path><path d="M 40.4 -33.0 L 23.4 -33.0 " transform="translate(0.0 38.0)" stroke-dasharray="17.0" stroke-dashoffset="17.0"><animate attributeName="stroke-dashoffset" from="17.0" to="0" dur="0.51s" begin="anim5.end" fill="freeze" id="anim6" /></path><path d="M 21.4 -27.1 L 37.5 -27.1 C 40.2 -27.1 41.2 -28.2 41.2 -30.1 L 41.2 -35.9 C 41.2 -37.8 40.2 -38.9 37.5 -38.9 L 21.7 -38.9" transform="translate(0.0 38.0)" stroke-dasharray="48.6492671125698" stroke-dashoffset="48.6492671125698"><animate attributeName="stroke-dashoffset" from="48.6492671125698" to="0" dur="1.459478013377094s" begin="anim6.end" fill="freeze" id="anim_end" /></path></g></svg>