<?xml version='1.0' encoding='utf-8'?>
<svg viewBox="0.0 -6.0 50.0 50.0" version="1.1" xmlns="http://www.w3.org/2000/svg"><rect x="-1000" y="-1000" width="2000" height="2000" stroke="white" fill="white" /><g style="fill:none;stroke:#000000;stroke-width:1"><path d="M 15.8 0.2 C 19.6 -4.0 21.8 -10.1 21.8 -17.6 L 21.8 -20.9 C 21.8 -22.6 22.7 -23.5 25.1 -23.5 L 36.8 -23.5 C 39.2 -23.5 40.0 -22.6 40.0 -20.8 L 40.0 -15.4 C 40.0 -13.6 39.2 -12.6 36.8 -12.6 L 21.8 -12.6 " transform="translate(0.0 38.0)" stroke-dasharray="69.22561052569183" stroke-dashoffset="69.22561052569183"><animate attributeName="stroke-dashoffset" from="69.22561052569183" to="0" dur="2.076768315770755s" begin="0s; anim_end.end" fill="freeze" id="anim0" /></path><path d="M 5.7 0.4 C 8.0 -3.0 10.4 -8.3 11.8 -12.8 " transform="translate(0.0 38.0)" stroke-dasharray="14.585409967392582" stroke-dashoffset="14.585409967392582"><animate attributeName="stroke-dashoffset" from="14.585409967392582" to="0" dur="0.43756229902177746s" begin="anim0.end" fill="freeze" id="anim1" /></path><path d="M 8.7 -23.1 C 7.5 -24.6 5.5 -26.1 4.3 -26.9 " transform="translate(0.0 38.0)" stroke-dasharray="5.8336786267192275" stroke-dashoffset="5.8336786267192275"><animate attributeName="stroke-dashoffset" from="5.8336786267192275" to="0" dur="0.1750103588015768s" begin="anim1.end" fill="freeze" id="anim2" /></path><path d="M 28.2 1.6 L 39.2 1.6 C 41.5 1.6 42.4 0.8 42.4 -0.9 L 42.4 -4.2 C 42.4 -5.8 41.5 -6.7 39.2 -6.7 L 28.2 -6.7 C 25.9 -6.7 25.1 -5.8 25.1 -4.2 L 25.1 -0.9 C 25.1 0.8 25.9 1.6 28.2 1.6 Z " transform="translate(0.0 38.0)" stroke-dasharray="47.14701125384601" stroke-dashoffset="47.14701125384601"><animate attributeName="stroke-dashoffset" from="47.14701125384601" to="0" dur="1.4144103376153803s" begin="anim2.end" fill="freeze" id="anim3" /></path><path d="M 12.1 -35.0 C 10.9 -36.3 9.2 -38.0 8.0 -38.9 " transform="translate(0.0 38.0)" stroke-dasharray="5.664781075346097" stroke-dashoffset="5.664781075346097"><animate attributeName="stroke-dashoffset" from="5.664781075346097" to="0" dur="0.16994343226038292s" begin="anim3.end" fill="freeze" id="anim4" /></path><path d="M 39.2 -18.1 L 22.4 -18.1 " transform="translate(0.0 38.0)" stroke-dasharray="16.800000000000004" stroke-dashoffset="16.800000000000004"><animate attributeName="stroke-dashoffset" from="16.800000000000004" to="0" dur="0.5040000000000001s" begin="anim4.end" fill="freeze" id="anim5" /></path><path d="M 16.2 -26.6 C 21.9 -30.1 27.2 -34.6 30.7 -39.7 " transform="translate(0.0 38.0)" stroke-dasharray="19.679252791200824" stroke-dashoffset="19.679252791200824"><animate attributeName="stroke-dashoffset" from="19.679252791200824" to="0" dur="0.5903775837360247s" begin="anim5.end" fill="freeze" id="anim6" /></path><path d="M 34.9 -28.9 L 27.1 -28.9 " transform="translate(0.0 38.0)" stroke-dasharray="7.799999999999997" stroke-dashoffset="7.799999999999997"><animate attributeName="stroke-dashoffset" from="7.799999999999997" to="0" dur="0.2339999999999999s" begin="anim6.end" fill="freeze" id="anim7" /></path><path d="M 45.8 -27.4 C 40.4 -30.1 34.5 -34.7 30.7 -39.2" transform="translate(0.0 38.0)" stroke-dasharray="19.280281243468973" stroke-dashoffset="19.280281243468973"><animate attributeName="stroke-dashoffset" from="19.280281243468973" to="0" dur="0.5784084373040692s" begin="anim7.end" fill="freeze" id="anim_end" /></path></g></svg>