<?xml version='1.0' encoding='utf-8'?>
<svg viewBox="0.0 -6.0 50.0 50.0" version="1.1" xmlns="http://www.w3.org/2000/svg"><rect x="-1000" y="-1000" width="2000" height="2000" stroke="white" fill="white" /><g style="fill:none;stroke:#000000;stroke-width:1"><path d="M 4.8 1.9 C 7.4 -1.9 8.8 -7.5 8.8 -13.7 L 8.8 -15.8 C 8.8 -18.0 9.8 -18.8 12.9 -18.8 L 44.8 -18.8 " transform="translate(0.0 38.0)" stroke-dasharray="56.25710305605902" stroke-dashoffset="56.25710305605902"><animate attributeName="stroke-dashoffset" from="56.25710305605902" to="0" dur="1.6877130916817706s" begin="0s; 15s; 30s; 45s" fill="freeze" id="anim0" /></path><path d="M 13.8 -1.1 C 14.5 -0.9 15.4 -0.8 16.4 -0.8 C 18.4 -0.8 19.4 -1.6 20.1 -4.0 C 20.4 -5.2 20.8 -6.7 20.9 -8.3 C 21.0 -10.3 20.1 -10.9 17.5 -10.9 L 8.8 -10.9 " transform="translate(0.0 38.0)" stroke-dasharray="26.1558338334127" stroke-dashoffset="26.1558338334127"><animate attributeName="stroke-dashoffset" from="26.1558338334127" to="0" dur="0.784675015002381s" begin="anim0.end" fill="freeze" id="anim1" /></path><path d="M 23.1 1.8 C 30.1 -1.3 37.0 -6.9 40.4 -13.6 " transform="translate(0.0 38.0)" stroke-dasharray="23.58757729096211" stroke-dashoffset="23.58757729096211"><animate attributeName="stroke-dashoffset" from="23.58757729096211" to="0" dur="0.7076273187288632s" begin="anim1.end" fill="freeze" id="anim2" /></path><path d="M 45.8 -3.7 C 45.4 -0.1 44.1 1.5 42.0 1.5 C 39.1 1.5 36.1 -0.7 33.0 -6.2 C 30.4 -10.8 28.6 -17.1 28.3 -23.3 " transform="translate(0.0 38.0)" stroke-dasharray="37.40810191794557" stroke-dashoffset="37.40810191794557"><animate attributeName="stroke-dashoffset" from="37.40810191794557" to="0" dur="1.122243057538367s" begin="anim2.end" fill="freeze" id="anim3" /></path><path d="M 34.8 -39.2 L 15.4 -39.2 C 12.7 -39.2 11.7 -38.5 11.7 -36.6 L 11.7 -29.9 C 11.7 -28.1 12.7 -27.3 15.4 -27.3 L 34.8 -27.3 C 37.5 -27.3 38.4 -28.1 38.4 -29.9 L 38.4 -36.6 C 38.4 -38.5 37.5 -39.2 34.8 -39.2 Z " transform="translate(0.0 38.0)" stroke-dasharray="72.95301957064652" stroke-dashoffset="72.95301957064652"><animate attributeName="stroke-dashoffset" from="72.95301957064652" to="0" dur="2.1885905871193954s" begin="anim3.end" fill="freeze" id="anim4" /></path><path d="M 37.8 -21.6 C 37.0 -22.4 36.0 -23.1 35.1 -23.6 " transform="translate(0.0 38.0)" stroke-dasharray="3.3703448713792077" stroke-dashoffset="3.3703448713792077"><animate attributeName="stroke-dashoffset" from="3.3703448713792077" to="0" dur="0.10111034614137622s" begin="anim4.end" fill="freeze" id="anim5" /></path><path d="M 38.7 -33.4 L 12.4 -33.4" transform="translate(0.0 38.0)" stroke-dasharray="26.300000000000004" stroke-dashoffset="26.300000000000004"><animate attributeName="stroke-dashoffset" from="26.300000000000004" to="0" dur="0.7890000000000001s" begin="anim5.end" fill="freeze" id="anim_end" /></path></g></svg>