<?xml version='1.0' encoding='utf-8'?>
<svg viewBox="0.0 -6.0 50.0 50.0" version="1.1" xmlns="http://www.w3.org/2000/svg"><rect x="-1000" y="-1000" width="2000" height="2000" stroke="white" fill="white" /><g style="fill:none;stroke:#000000;stroke-width:1"><path d="M 16.2 -8.6 L 16.2 -1.4 C 16.2 1.0 17.2 1.6 24.8 1.6 C 33.4 1.6 35.0 0.7 35.5 -3.4 " transform="translate(0.0 38.0)" stroke-dasharray="30.843580348164082" stroke-dashoffset="30.843580348164082"><animate attributeName="stroke-dashoffset" from="30.843580348164082" to="0" dur="0.9253074104449224s" begin="0s" fill="freeze" /></path><path d="M 5.5 -0.9 C 6.8 -2.6 8.1 -4.8 8.9 -7.0 " transform="translate(0.0 38.0)" stroke-dasharray="7.008890027508229" stroke-dashoffset="7.008890027508229"><animate attributeName="stroke-dashoffset" from="7.008890027508229" to="0" dur="0.21026670082524684s" begin="0.9253074104449224s" fill="freeze" /></path><path d="M 5.8 -13.9 C 11.1 -14.1 16.4 -14.6 21.8 -15.5 " transform="translate(0.0 38.0)" stroke-dasharray="16.090780708487692" stroke-dashoffset="16.090780708487692"><animate attributeName="stroke-dashoffset" from="16.090780708487692" to="0" dur="0.48272342125463075s" begin="1.1355741112701692s" fill="freeze" /></path><path d="M 27.6 -6.7 C 26.4 -7.8 25.2 -8.8 24.1 -9.6 " transform="translate(0.0 38.0)" stroke-dasharray="4.547663771494459" stroke-dashoffset="4.547663771494459"><animate attributeName="stroke-dashoffset" from="4.547663771494459" to="0" dur="0.13642991314483377s" begin="1.6182975325248s" fill="freeze" /></path><path d="M 13.9 -20.5 C 11.9 -22.8 9.9 -24.6 8.1 -26.1 " transform="translate(0.0 38.0)" stroke-dasharray="8.07125538870167" stroke-dashoffset="8.07125538870167"><animate attributeName="stroke-dashoffset" from="8.07125538870167" to="0" dur="0.2421376616610501s" begin="1.7547274456696336s" fill="freeze" /></path><path d="M 10.0 -14.9 C 12.8 -17.8 16.1 -22.1 18.4 -25.9 " transform="translate(0.0 38.0)" stroke-dasharray="13.865529123703114" stroke-dashoffset="13.865529123703114"><animate attributeName="stroke-dashoffset" from="13.865529123703114" to="0" dur="0.4159658737110934s" begin="1.9968651073306836s" fill="freeze" /></path><path d="M 22.5 -14.1 C 21.6 -15.8 20.4 -17.6 19.4 -18.9 " transform="translate(0.0 38.0)" stroke-dasharray="5.720149404618979" stroke-dashoffset="5.720149404618979"><animate attributeName="stroke-dashoffset" from="5.720149404618979" to="0" dur="0.17160448213856938s" begin="2.412830981041777s" fill="freeze" /></path><path d="M 10.6 -25.8 C 11.8 -27.2 13.1 -29.0 14.0 -30.6 " transform="translate(0.0 38.0)" stroke-dasharray="5.890694265731795" stroke-dashoffset="5.890694265731795"><animate attributeName="stroke-dashoffset" from="5.890694265731795" to="0" dur="0.17672082797195382s" begin="2.5844354631803466s" fill="freeze" /></path><path d="M 44.5 -2.7 C 43.4 -4.3 41.8 -6.3 40.3 -7.8 " transform="translate(0.0 38.0)" stroke-dasharray="6.6149745458567555" stroke-dashoffset="6.6149745458567555"><animate attributeName="stroke-dashoffset" from="6.6149745458567555" to="0" dur="0.19844923637570266s" begin="2.7611562911523s" fill="freeze" /></path><path d="M 27.3 -14.2 C 32.5 -14.4 37.2 -14.9 42.7 -15.8 " transform="translate(0.0 38.0)" stroke-dasharray="15.493446439868945" stroke-dashoffset="15.493446439868945"><animate attributeName="stroke-dashoffset" from="15.493446439868945" to="0" dur="0.46480339319606834s" begin="2.959605527528003s" fill="freeze" /></path><path d="M 33.4 -20.6 C 31.4 -22.9 29.4 -24.8 27.5 -26.2 " transform="translate(0.0 38.0)" stroke-dasharray="8.15040016130523" stroke-dashoffset="8.15040016130523"><animate attributeName="stroke-dashoffset" from="8.15040016130523" to="0" dur="0.2445120048391569s" begin="3.4244089207240713s" fill="freeze" /></path><path d="M 29.6 -14.9 C 32.5 -17.9 36.2 -22.6 38.6 -26.3 " transform="translate(0.0 38.0)" stroke-dasharray="14.542989209042819" stroke-dashoffset="14.542989209042819"><animate attributeName="stroke-dashoffset" from="14.542989209042819" to="0" dur="0.43628967627128457s" begin="3.6689209255632282s" fill="freeze" /></path><path d="M 19.1 -37.4 C 18.6 -38.2 17.8 -39.5 17.1 -40.4 " transform="translate(0.0 38.0)" stroke-dasharray="3.6070640178145386" stroke-dashoffset="3.6070640178145386"><animate attributeName="stroke-dashoffset" from="3.6070640178145386" to="0" dur="0.10821192053443615s" begin="4.1052106018345125s" fill="freeze" /></path><path d="M 43.5 -13.8 C 42.5 -15.9 40.9 -18.1 39.8 -19.4 " transform="translate(0.0 38.0)" stroke-dasharray="6.728239752186131" stroke-dashoffset="6.728239752186131"><animate attributeName="stroke-dashoffset" from="6.728239752186131" to="0" dur="0.20184719256558392s" begin="4.2134225223689485s" fill="freeze" /></path><path d="M 45.5 -34.1 L 4.5 -34.1 " transform="translate(0.0 38.0)" stroke-dasharray="41.0" stroke-dashoffset="41.0"><animate attributeName="stroke-dashoffset" from="41.0" to="0" dur="1.23s" begin="4.415269714934532s" fill="freeze" /></path><path d="M 30.1 -25.8 C 31.4 -27.2 32.5 -29.0 33.5 -30.6 " transform="translate(0.0 38.0)" stroke-dasharray="5.891347525563104" stroke-dashoffset="5.891347525563104"><animate attributeName="stroke-dashoffset" from="5.891347525563104" to="0" dur="0.1767404257668931s" begin="5.645269714934532s" fill="freeze" /></path><path d="M 29.4 -34.5 C 30.6 -36.5 31.6 -38.1 32.5 -40.2" transform="translate(0.0 38.0)" stroke-dasharray="6.4943725531379135" stroke-dashoffset="6.4943725531379135"><animate attributeName="stroke-dashoffset" from="6.4943725531379135" to="0" dur="0.1948311765941374s" begin="5.822010140701425s" fill="freeze" /></path></g></svg>