<?xml version='1.0' encoding='utf-8'?>
<svg viewBox="0.0 -6.0 50.0 50.0" version="1.1" xmlns="http://www.w3.org/2000/svg"><rect x="-1000" y="-1000" width="2000" height="2000" stroke="white" fill="white" /><g style="fill:none;stroke:#000000;stroke-width:1"><path d="M 15.1 -4.2 L 15.1 -34.4 C 15.1 -36.8 14.2 -37.7 11.9 -37.7 L 8.5 -37.7 C 6.2 -37.7 5.3 -36.8 5.3 -34.4 L 5.3 -4.2 C 5.3 -1.8 6.2 -0.8 8.5 -0.8 L 11.9 -0.8 C 14.2 -0.8 15.1 -1.8 15.1 -4.2 Z " transform="translate(0.0 38.0)" stroke-dasharray="88.79190964706628" stroke-dashoffset="88.79190964706628"><animate attributeName="stroke-dashoffset" from="88.79190964706628" to="0" dur="2.663757289411988s" begin="0s" fill="freeze" /></path><path d="M 15.8 -14.4 L 5.5 -14.4 " transform="translate(0.0 38.0)" stroke-dasharray="10.3" stroke-dashoffset="10.3"><animate attributeName="stroke-dashoffset" from="10.3" to="0" dur="0.309s" begin="2.663757289411988s" fill="freeze" /></path><path d="M 17.1 2.5 C 24.2 0.0 28.2 -5.7 28.8 -15.8 " transform="translate(0.0 38.0)" stroke-dasharray="23.2232552215278" stroke-dashoffset="23.2232552215278"><animate attributeName="stroke-dashoffset" from="23.2232552215278" to="0" dur="0.6966976566458339s" begin="2.9727572894119882s" fill="freeze" /></path><path d="M 15.8 -25.7 L 5.5 -25.7 " transform="translate(0.0 38.0)" stroke-dasharray="10.3" stroke-dashoffset="10.3"><animate attributeName="stroke-dashoffset" from="10.3" to="0" dur="0.309s" begin="3.6694549460578223s" fill="freeze" /></path><path d="M 46.5 -3.7 C 46.1 0.2 44.4 1.4 40.6 1.4 C 37.4 1.4 36.4 0.8 36.4 -1.2 L 36.4 -16.1 " transform="translate(0.0 38.0)" stroke-dasharray="29.546143955487043" stroke-dashoffset="29.546143955487043"><animate attributeName="stroke-dashoffset" from="29.546143955487043" to="0" dur="0.8863843186646113s" begin="3.9784549460578225s" fill="freeze" /></path><path d="M 45.9 -16.6 L 20.8 -16.6 " transform="translate(0.0 38.0)" stroke-dasharray="25.099999999999998" stroke-dashoffset="25.099999999999998"><animate attributeName="stroke-dashoffset" from="25.099999999999998" to="0" dur="0.7529999999999999s" begin="4.864839264722434s" fill="freeze" /></path><path d="M 40.6 -25.1 L 26.0 -25.1 " transform="translate(0.0 38.0)" stroke-dasharray="14.600000000000001" stroke-dashoffset="14.600000000000001"><animate attributeName="stroke-dashoffset" from="14.600000000000001" to="0" dur="0.438s" begin="5.617839264722434s" fill="freeze" /></path><path d="M 45.4 -28.3 L 45.4 -31.4 C 45.4 -33.2 44.5 -34.2 41.8 -34.2 L 25.1 -34.2 C 22.4 -34.2 21.4 -33.2 21.4 -31.4 L 21.4 -27.8 " transform="translate(0.0 38.0)" stroke-dasharray="33.9841521056735" stroke-dashoffset="33.9841521056735"><animate attributeName="stroke-dashoffset" from="33.9841521056735" to="0" dur="1.019524563170205s" begin="6.055839264722434s" fill="freeze" /></path><path d="M 33.2 -33.9 L 33.2 -40.1" transform="translate(0.0 38.0)" stroke-dasharray="6.200000000000003" stroke-dashoffset="6.200000000000003"><animate attributeName="stroke-dashoffset" from="6.200000000000003" to="0" dur="0.18600000000000008s" begin="7.075363827892639s" fill="freeze" /></path></g></svg>