<?xml version='1.0' encoding='utf-8'?>
<svg viewBox="0.0 -6.0 50.0 50.0" version="1.1" xmlns="http://www.w3.org/2000/svg"><rect x="-1000" y="-1000" width="2000" height="2000" stroke="white" fill="white" /><g style="fill:none;stroke:#000000;stroke-width:1"><path d="M 15.6 -21.1 L 34.8 -21.1 C 37.6 -21.1 38.8 -22.1 38.8 -24.2 L 38.8 -32.9 C 38.8 -35.0 37.6 -36.0 34.8 -36.0 L 15.6 -36.0 C 12.6 -36.0 11.6 -35.0 11.6 -32.9 L 11.6 -24.2 C 11.6 -22.1 12.6 -21.1 15.6 -21.1 Z " transform="translate(0.0 38.0)" stroke-dasharray="79.15873722450382" stroke-dashoffset="79.15873722450382"><animate attributeName="stroke-dashoffset" from="79.15873722450382" to="0" dur="2.3747621167351145s" begin="0s; anim_end.end" fill="freeze" id="anim0" /></path><path d="M 45.9 0.9 L 4.2 0.9 " transform="translate(0.0 38.0)" stroke-dasharray="41.699999999999996" stroke-dashoffset="41.699999999999996"><animate attributeName="stroke-dashoffset" from="41.699999999999996" to="0" dur="1.251s" begin="anim0.end" fill="freeze" id="anim1" /></path><path d="M 24.8 0.7 L 24.8 -14.1 " transform="translate(0.0 38.0)" stroke-dasharray="14.799999999999999" stroke-dashoffset="14.799999999999999"><animate attributeName="stroke-dashoffset" from="14.799999999999999" to="0" dur="0.44399999999999995s" begin="anim1.end" fill="freeze" id="anim2" /></path><path d="M 39.6 -6.8 L 10.4 -6.8 " transform="translate(0.0 38.0)" stroke-dasharray="29.200000000000003" stroke-dashoffset="29.200000000000003"><animate attributeName="stroke-dashoffset" from="29.200000000000003" to="0" dur="0.876s" begin="anim2.end" fill="freeze" id="anim3" /></path><path d="M 43.2 -14.0 L 7.0 -14.0 " transform="translate(0.0 38.0)" stroke-dasharray="36.2" stroke-dashoffset="36.2"><animate attributeName="stroke-dashoffset" from="36.2" to="0" dur="1.086s" begin="anim3.end" fill="freeze" id="anim4" /></path><path d="M 37.9 -28.8 L 11.9 -28.8 " transform="translate(0.0 38.0)" stroke-dasharray="26.0" stroke-dashoffset="26.0"><animate attributeName="stroke-dashoffset" from="26.0" to="0" dur="0.78s" begin="anim4.end" fill="freeze" id="anim5" /></path><path d="M 22.9 -36.4 C 23.6 -37.8 24.1 -39.1 24.6 -40.6" transform="translate(0.0 38.0)" stroke-dasharray="4.535082209372332" stroke-dashoffset="4.535082209372332"><animate attributeName="stroke-dashoffset" from="4.535082209372332" to="0" dur="0.13605246628116996s" begin="anim5.end" fill="freeze" id="anim_end" /></path></g></svg>