<?xml version='1.0' encoding='utf-8'?>
<svg viewBox="0.0 -6.0 50.0 50.0" version="1.1" xmlns="http://www.w3.org/2000/svg"><rect x="-1000" y="-1000" width="2000" height="2000" stroke="white" fill="white" /><g style="fill:none;stroke:#000000;stroke-width:1"><path d="M 4.2 -0.2 C 8.2 -6.2 10.2 -13.6 10.2 -24.6 L 10.2 -33.3 C 10.2 -35.8 11.4 -36.9 14.6 -36.9 L 46.3 -36.9 " transform="translate(0.0 38.0)" stroke-dasharray="72.50062450738021" stroke-dashoffset="72.50062450738021"><animate attributeName="stroke-dashoffset" from="72.50062450738021" to="0" dur="2.175018735221406s" begin="0s" fill="freeze" /></path><path d="M 3.0 -14.2 C 5.3 -15.3 7.8 -16.6 10.3 -18.3 " transform="translate(0.0 38.0)" stroke-dasharray="8.380818854244177" stroke-dashoffset="8.380818854244177"><animate attributeName="stroke-dashoffset" from="8.380818854244177" to="0" dur="0.2514245656273253s" begin="2.175018735221406s" fill="freeze" /></path><path d="M 14.8 -6.8 C 17.6 -9.2 20.5 -12.8 22.4 -15.7 " transform="translate(0.0 38.0)" stroke-dasharray="11.737503911907286" stroke-dashoffset="11.737503911907286"><animate attributeName="stroke-dashoffset" from="11.737503911907286" to="0" dur="0.3521251173572186s" begin="2.4264433008487316s" fill="freeze" /></path><path d="M 45.4 1.4 L 20.4 1.4 " transform="translate(0.0 38.0)" stroke-dasharray="25.0" stroke-dashoffset="25.0"><animate attributeName="stroke-dashoffset" from="25.0" to="0" dur="0.75s" begin="2.7785684182059502s" fill="freeze" /></path><path d="M 6.7 -26.1 C 5.8 -27.1 4.8 -28.4 4.0 -29.2 " transform="translate(0.0 38.0)" stroke-dasharray="4.111861427757037" stroke-dashoffset="4.111861427757037"><animate attributeName="stroke-dashoffset" from="4.111861427757037" to="0" dur="0.12335584283271112s" begin="3.5285684182059502s" fill="freeze" /></path><path d="M 42.0 -3.3 L 20.3 -3.3 " transform="translate(0.0 38.0)" stroke-dasharray="21.7" stroke-dashoffset="21.7"><animate attributeName="stroke-dashoffset" from="21.7" to="0" dur="0.6509999999999999s" begin="3.6519242610386615s" fill="freeze" /></path><path d="M 19.9 3.4 L 19.9 -9.8 C 19.9 -11.6 20.6 -12.6 23.1 -12.6 L 44.2 -12.6 " transform="translate(0.0 38.0)" stroke-dasharray="39.24286642237966" stroke-dashoffset="39.24286642237966"><animate attributeName="stroke-dashoffset" from="39.24286642237966" to="0" dur="1.17728599267139s" begin="4.302924261038662s" fill="freeze" /></path><path d="M 31.2 1.1 L 31.2 -12.6 " transform="translate(0.0 38.0)" stroke-dasharray="13.7" stroke-dashoffset="13.7"><animate attributeName="stroke-dashoffset" from="13.7" to="0" dur="0.411s" begin="5.480210253710052s" fill="freeze" /></path><path d="M 42.0 -7.9 L 20.3 -7.9 " transform="translate(0.0 38.0)" stroke-dasharray="21.7" stroke-dashoffset="21.7"><animate attributeName="stroke-dashoffset" from="21.7" to="0" dur="0.6509999999999999s" begin="5.891210253710051s" fill="freeze" /></path><path d="M 25.8 -19.4 L 19.6 -19.4 " transform="translate(0.0 38.0)" stroke-dasharray="6.199999999999999" stroke-dashoffset="6.199999999999999"><animate attributeName="stroke-dashoffset" from="6.199999999999999" to="0" dur="0.18599999999999997s" begin="6.542210253710051s" fill="freeze" /></path><path d="M 30.6 -11.9 C 31.3 -13.2 31.8 -14.3 32.3 -15.6 " transform="translate(0.0 38.0)" stroke-dasharray="4.074831483386435" stroke-dashoffset="4.074831483386435"><animate attributeName="stroke-dashoffset" from="4.074831483386435" to="0" dur="0.12224494450159305s" begin="6.728210253710051s" fill="freeze" /></path><path d="M 25.8 -23.4 L 20.7 -23.4 " transform="translate(0.0 38.0)" stroke-dasharray="5.100000000000001" stroke-dashoffset="5.100000000000001"><animate attributeName="stroke-dashoffset" from="5.100000000000001" to="0" dur="0.15300000000000002s" begin="6.850455198211644s" fill="freeze" /></path><path d="M 30.4 -18.9 L 30.4 -31.6 " transform="translate(0.0 38.0)" stroke-dasharray="12.700000000000003" stroke-dashoffset="12.700000000000003"><animate attributeName="stroke-dashoffset" from="12.700000000000003" to="0" dur="0.38100000000000006s" begin="7.003455198211643s" fill="freeze" /></path><path d="M 45.7 -22.1 L 45.7 -24.9 C 45.7 -26.6 45.0 -27.5 42.6 -27.5 L 18.6 -27.5 C 16.4 -27.5 15.7 -26.6 15.7 -24.9 L 15.7 -21.9 " transform="translate(0.0 38.0)" stroke-dasharray="39.02129226304743" stroke-dashoffset="39.02129226304743"><animate attributeName="stroke-dashoffset" from="39.02129226304743" to="0" dur="1.1706387678914227s" begin="7.3844551982116435s" fill="freeze" /></path><path d="M 42.0 -19.4 L 35.1 -19.4 " transform="translate(0.0 38.0)" stroke-dasharray="6.899999999999999" stroke-dashoffset="6.899999999999999"><animate attributeName="stroke-dashoffset" from="6.899999999999999" to="0" dur="0.20699999999999996s" begin="8.555093966103065s" fill="freeze" /></path><path d="M 40.6 -23.4 L 35.1 -23.4 " transform="translate(0.0 38.0)" stroke-dasharray="5.5" stroke-dashoffset="5.5"><animate attributeName="stroke-dashoffset" from="5.5" to="0" dur="0.16499999999999998s" begin="8.762093966103066s" fill="freeze" /></path><path d="M 42.4 -32.0 L 19.0 -32.0 " transform="translate(0.0 38.0)" stroke-dasharray="23.4" stroke-dashoffset="23.4"><animate attributeName="stroke-dashoffset" from="23.4" to="0" dur="0.702s" begin="8.927093966103065s" fill="freeze" /></path><path d="M 27.9 -36.4 L 27.9 -41.4" transform="translate(0.0 38.0)" stroke-dasharray="5.0" stroke-dashoffset="5.0"><animate attributeName="stroke-dashoffset" from="5.0" to="0" dur="0.15s" begin="9.629093966103065s" fill="freeze" /></path></g></svg>