<?xml version='1.0' encoding='utf-8'?>
<svg viewBox="0.0 -6.0 50.0 50.0" version="1.1" xmlns="http://www.w3.org/2000/svg"><rect x="-1000" y="-1000" width="2000" height="2000" stroke="white" fill="white" /><g style="fill:none;stroke:#000000;stroke-width:1"><path d="M 19.4 -12.2 C 28.9 -17.6 38.7 -27.6 44.0 -37.6 " transform="translate(0.0 38.0)" stroke-dasharray="35.781526999862024" stroke-dashoffset="35.781526999862024"><animate attributeName="stroke-dashoffset" from="35.781526999862024" to="0" dur="1.0734458099958606s" begin="0s; 15s; 30s; 45s" fill="freeze" id="anim0" /></path><path d="M 4.1 -10.0 C 7.5 -12.9 10.8 -17.6 13.0 -22.9 " transform="translate(0.0 38.0)" stroke-dasharray="15.807167604242212" stroke-dashoffset="15.807167604242212"><animate attributeName="stroke-dashoffset" from="15.807167604242212" to="0" dur="0.47421502812726635s" begin="anim0.end" fill="freeze" id="anim1" /></path><path d="M 6.0 1.1 C 6.7 1.4 7.7 1.5 8.6 1.5 C 12.0 1.5 14.4 -1.2 14.4 -11.8 C 14.4 -22.8 11.6 -29.9 5.3 -37.0 " transform="translate(0.0 38.0)" stroke-dasharray="46.235516685962466" stroke-dashoffset="46.235516685962466"><animate attributeName="stroke-dashoffset" from="46.235516685962466" to="0" dur="1.387065500578874s" begin="anim1.end" fill="freeze" id="anim2" /></path><path d="M 30.4 1.4 L 38.5 1.4 C 41.4 1.4 42.4 0.3 42.4 -1.9 L 42.4 -13.1 C 42.4 -15.3 41.4 -16.4 38.5 -16.4 L 30.4 -16.4 C 27.6 -16.4 26.6 -15.2 26.6 -13.1 L 26.6 -1.9 C 26.6 0.3 27.6 1.4 30.4 1.4 Z " transform="translate(0.0 38.0)" stroke-dasharray="62.071587296946404" stroke-dashoffset="62.071587296946404"><animate attributeName="stroke-dashoffset" from="62.071587296946404" to="0" dur="1.862147618908392s" begin="anim2.end" fill="freeze" id="anim3" /></path><path d="M 41.4 -7.8 L 27.1 -7.8 " transform="translate(0.0 38.0)" stroke-dasharray="14.299999999999997" stroke-dashoffset="14.299999999999997"><animate attributeName="stroke-dashoffset" from="14.299999999999997" to="0" dur="0.4289999999999999s" begin="anim3.end" fill="freeze" id="anim4" /></path><path d="M 4.2 -25.4 C 8.6 -28.8 13.2 -34.5 15.9 -39.9 " transform="translate(0.0 38.0)" stroke-dasharray="18.769858454617136" stroke-dashoffset="18.769858454617136"><animate attributeName="stroke-dashoffset" from="18.769858454617136" to="0" dur="0.563095753638514s" begin="anim4.end" fill="freeze" id="anim5" /></path><path d="M 46.0 -25.0 L 18.6 -25.0 " transform="translate(0.0 38.0)" stroke-dasharray="27.4" stroke-dashoffset="27.4"><animate attributeName="stroke-dashoffset" from="27.4" to="0" dur="0.822s" begin="anim5.end" fill="freeze" id="anim6" /></path><path d="M 36.5 -33.5 L 22.0 -33.5 " transform="translate(0.0 38.0)" stroke-dasharray="14.5" stroke-dashoffset="14.5"><animate attributeName="stroke-dashoffset" from="14.5" to="0" dur="0.435s" begin="anim6.end" fill="freeze" id="anim7" /></path><path d="M 29.9 -26.2 L 29.9 -40.2" transform="translate(0.0 38.0)" stroke-dasharray="14.000000000000004" stroke-dashoffset="14.000000000000004"><animate attributeName="stroke-dashoffset" from="14.000000000000004" to="0" dur="0.4200000000000001s" begin="anim7.end" fill="freeze" id="anim_end" /></path></g></svg>