<?xml version='1.0' encoding='utf-8'?>
<svg viewBox="0.0 -6.0 50.0 50.0" version="1.1" xmlns="http://www.w3.org/2000/svg"><rect x="-1000" y="-1000" width="2000" height="2000" stroke="white" fill="white" /><g style="fill:none;stroke:#000000;stroke-width:1"><path d="M 45.9 -5.7 L 11.7 -5.7 C 8.6 -5.7 7.4 -6.8 7.4 -9.1 L 7.4 -24.8 " transform="translate(0.0 38.0)" stroke-dasharray="56.22538421006483" stroke-dashoffset="56.22538421006483"><animate attributeName="stroke-dashoffset" from="56.22538421006483" to="0" dur="1.6867615263019449s" begin="0s; 15s; 30s; 45s" fill="freeze" id="anim0" /></path><path d="M 5.8 2.6 C 9.8 1.6 14.7 -0.1 18.2 -2.0 " transform="translate(0.0 38.0)" stroke-dasharray="13.256410576853488" stroke-dashoffset="13.256410576853488"><animate attributeName="stroke-dashoffset" from="13.256410576853488" to="0" dur="0.3976923173056046s" begin="anim0.end" fill="freeze" id="anim1" /></path><path d="M 43.6 2.2 C 39.2 1.1 34.7 -0.6 31.6 -2.0 " transform="translate(0.0 38.0)" stroke-dasharray="12.729295766479542" stroke-dashoffset="12.729295766479542"><animate attributeName="stroke-dashoffset" from="12.729295766479542" to="0" dur="0.3818788729943862s" begin="anim1.end" fill="freeze" id="anim2" /></path><path d="M 37.1 -15.7 L 17.9 -15.7 " transform="translate(0.0 38.0)" stroke-dasharray="19.200000000000003" stroke-dashoffset="19.200000000000003"><animate attributeName="stroke-dashoffset" from="19.200000000000003" to="0" dur="0.5760000000000001s" begin="anim2.end" fill="freeze" id="anim3" /></path><path d="M 20.5 -10.7 L 34.7 -10.7 C 37.2 -10.7 37.9 -11.6 37.9 -13.0 L 37.9 -23.1 C 37.9 -24.5 37.2 -25.3 34.7 -25.3 L 20.5 -25.3 C 17.9 -25.3 17.2 -24.5 17.2 -23.1 L 17.2 -13.0 C 17.2 -11.6 17.9 -10.7 20.5 -10.7 Z " transform="translate(0.0 38.0)" stroke-dasharray="66.77728980781997" stroke-dashoffset="66.77728980781997"><animate attributeName="stroke-dashoffset" from="66.77728980781997" to="0" dur="2.003318694234599s" begin="anim3.end" fill="freeze" id="anim4" /></path><path d="M 37.1 -20.4 L 17.9 -20.4 " transform="translate(0.0 38.0)" stroke-dasharray="19.200000000000003" stroke-dashoffset="19.200000000000003"><animate attributeName="stroke-dashoffset" from="19.200000000000003" to="0" dur="0.5760000000000001s" begin="anim4.end" fill="freeze" id="anim5" /></path><path d="M 11.7 -36.0 C 19.1 -36.4 28.0 -37.5 35.1 -39.1 " transform="translate(0.0 38.0)" stroke-dasharray="23.62920239229429" stroke-dashoffset="23.62920239229429"><animate attributeName="stroke-dashoffset" from="23.62920239229429" to="0" dur="0.7088760717688286s" begin="anim5.end" fill="freeze" id="anim6" /></path><path d="M 11.2 -39.8 L 11.2 -33.4 C 11.2 -30.9 12.2 -30.4 24.6 -30.4 C 40.2 -30.4 41.9 -31.1 42.7 -36.4" transform="translate(0.0 38.0)" stroke-dasharray="42.541485065240636" stroke-dashoffset="42.541485065240636"><animate attributeName="stroke-dashoffset" from="42.541485065240636" to="0" dur="1.276244551957219s" begin="anim6.end" fill="freeze" id="anim_end" /></path></g></svg>