<?xml version='1.0' encoding='utf-8'?>
<svg viewBox="0.0 -6.0 50.0 50.0" version="1.1" xmlns="http://www.w3.org/2000/svg"><rect x="-1000" y="-1000" width="2000" height="2000" stroke="white" fill="white" /><g style="fill:none;stroke:#000000;stroke-width:1"><path d="M 19.6 -14.7 C 27.8 -17.9 35.8 -24.0 39.7 -30.6 C 41.0 -32.9 40.2 -34.4 37.5 -34.4 L 28.0 -34.4 " transform="translate(0.0 38.0)" stroke-dasharray="41.40056661749885" stroke-dashoffset="41.40056661749885"><animate attributeName="stroke-dashoffset" from="41.40056661749885" to="0" dur="1.2420169985249656s" begin="0s; anim_end.end" fill="freeze" id="anim0" /></path><path d="M 17.1 -3.9 C 15.6 -6.2 13.2 -8.8 10.8 -10.7 " transform="translate(0.0 38.0)" stroke-dasharray="9.30598499482528" stroke-dashoffset="9.30598499482528"><animate attributeName="stroke-dashoffset" from="9.30598499482528" to="0" dur="0.2791795498447584s" begin="anim0.end" fill="freeze" id="anim1" /></path><path d="M 4.2 0.5 C 8.8 -5.1 11.4 -14.1 11.4 -25.6 L 11.4 -39.8 " transform="translate(0.0 38.0)" stroke-dasharray="41.78554776129852" stroke-dashoffset="41.78554776129852"><animate attributeName="stroke-dashoffset" from="41.78554776129852" to="0" dur="1.2535664328389555s" begin="anim1.end" fill="freeze" id="anim2" /></path><path d="M 4.3 -21.1 C 5.1 -23.0 5.8 -25.9 6.2 -28.6 " transform="translate(0.0 38.0)" stroke-dasharray="7.7543263578963435" stroke-dashoffset="7.7543263578963435"><animate attributeName="stroke-dashoffset" from="7.7543263578963435" to="0" dur="0.2326297907368903s" begin="anim2.end" fill="freeze" id="anim3" /></path><path d="M 29.1 1.1 L 38.0 1.1 C 40.7 1.1 41.8 0.1 41.8 -2.1 L 41.8 -9.1 C 41.8 -11.3 40.8 -12.4 38.0 -12.4 L 29.1 -12.4 C 26.4 -12.4 25.4 -11.3 25.4 -9.1 L 25.4 -2.1 C 25.4 0.1 26.4 1.1 29.1 1.1 Z " transform="translate(0.0 38.0)" stroke-dasharray="54.78797016915193" stroke-dashoffset="54.78797016915193"><animate attributeName="stroke-dashoffset" from="54.78797016915193" to="0" dur="1.643639105074558s" begin="anim3.end" fill="freeze" id="anim4" /></path><path d="M 12.2 -23.8 C 14.7 -26.1 16.6 -28.3 18.0 -30.7 " transform="translate(0.0 38.0)" stroke-dasharray="9.048094218578278" stroke-dashoffset="9.048094218578278"><animate attributeName="stroke-dashoffset" from="9.048094218578278" to="0" dur="0.2714428265573483s" begin="anim4.end" fill="freeze" id="anim5" /></path><path d="M 21.8 -26.8 C 24.9 -30.1 28.1 -35.1 29.9 -39.4 " transform="translate(0.0 38.0)" stroke-dasharray="15.048281100677276" stroke-dashoffset="15.048281100677276"><animate attributeName="stroke-dashoffset" from="15.048281100677276" to="0" dur="0.45144843302031823s" begin="anim5.end" fill="freeze" id="anim6" /></path><path d="M 46.0 -16.1 C 38.4 -19.1 31.1 -25.1 27.2 -32.3" transform="translate(0.0 38.0)" stroke-dasharray="25.296155851382316" stroke-dashoffset="25.296155851382316"><animate attributeName="stroke-dashoffset" from="25.296155851382316" to="0" dur="0.7588846755414694s" begin="anim6.end" fill="freeze" id="anim_end" /></path></g></svg>