<?xml version='1.0' encoding='utf-8'?>
<svg viewBox="0.0 -6.0 50.0 50.0" version="1.1" xmlns="http://www.w3.org/2000/svg"><rect x="-1000" y="-1000" width="2000" height="2000" stroke="white" fill="white" /><g style="fill:none;stroke:#000000;stroke-width:1"><path d="M 39.9 2.2 C 40.4 2.3 40.9 2.4 41.4 2.4 C 43.0 2.4 43.9 1.5 43.9 -0.4 L 43.9 -8.1 C 43.9 -10.1 43.0 -11.0 40.3 -11.0 L 25.2 -11.0 C 22.6 -11.0 21.8 -10.1 21.8 -8.1 L 21.8 2.6 " transform="translate(0.0 38.0)" stroke-dasharray="49.895635801872984" stroke-dashoffset="49.895635801872984"><animate attributeName="stroke-dashoffset" from="49.895635801872984" to="0" dur="1.4968690740561894s" begin="0s; 15s; 30s; 45s" fill="freeze" id="anim0" /></path><path d="M 3.4 -2.5 C 4.3 -5.0 5.1 -8.9 5.3 -11.8 " transform="translate(0.0 38.0)" stroke-dasharray="9.516567583868405" stroke-dashoffset="9.516567583868405"><animate attributeName="stroke-dashoffset" from="9.516567583868405" to="0" dur="0.2854970275160521s" begin="anim0.end" fill="freeze" id="anim1" /></path><path d="M 10.3 2.8 L 10.3 -18.7 " transform="translate(0.0 38.0)" stroke-dasharray="21.5" stroke-dashoffset="21.5"><animate attributeName="stroke-dashoffset" from="21.5" to="0" dur="0.645s" begin="anim1.end" fill="freeze" id="anim2" /></path><path d="M 17.1 -6.5 C 16.6 -8.7 15.7 -11.2 14.8 -12.7 " transform="translate(0.0 38.0)" stroke-dasharray="6.635785365036109" stroke-dashoffset="6.635785365036109"><animate attributeName="stroke-dashoffset" from="6.635785365036109" to="0" dur="0.19907356095108328s" begin="anim2.end" fill="freeze" id="anim3" /></path><path d="M 3.0 -18.5 C 7.2 -18.6 11.9 -19.1 15.8 -19.7 " transform="translate(0.0 38.0)" stroke-dasharray="12.864403116659778" stroke-dashoffset="12.864403116659778"><animate attributeName="stroke-dashoffset" from="12.864403116659778" to="0" dur="0.38593209349979335s" begin="anim3.end" fill="freeze" id="anim4" /></path><path d="M 29.1 1.4 L 29.1 -10.7 " transform="translate(0.0 38.0)" stroke-dasharray="12.1" stroke-dashoffset="12.1"><animate attributeName="stroke-dashoffset" from="12.1" to="0" dur="0.363s" begin="anim4.end" fill="freeze" id="anim5" /></path><path d="M 17.0 -17.6 C 16.3 -19.6 15.1 -21.9 13.9 -23.4 " transform="translate(0.0 38.0)" stroke-dasharray="6.603607778949258" stroke-dashoffset="6.603607778949258"><animate attributeName="stroke-dashoffset" from="6.603607778949258" to="0" dur="0.19810823336847774s" begin="anim5.end" fill="freeze" id="anim6" /></path><path d="M 9.9 -26.2 C 7.8 -29.2 5.8 -31.4 4.3 -32.7 " transform="translate(0.0 38.0)" stroke-dasharray="8.599136721205223" stroke-dashoffset="8.599136721205223"><animate attributeName="stroke-dashoffset" from="8.599136721205223" to="0" dur="0.2579741016361567s" begin="anim6.end" fill="freeze" id="anim7" /></path><path d="M 6.2 -19.1 C 9.2 -23.1 12.7 -28.8 14.8 -33.3 " transform="translate(0.0 38.0)" stroke-dasharray="16.626191188678884" stroke-dashoffset="16.626191188678884"><animate attributeName="stroke-dashoffset" from="16.626191188678884" to="0" dur="0.4987857356603665s" begin="anim7.end" fill="freeze" id="anim8" /></path><path d="M 36.1 1.2 L 36.1 -10.7 " transform="translate(0.0 38.0)" stroke-dasharray="11.899999999999999" stroke-dashoffset="11.899999999999999"><animate attributeName="stroke-dashoffset" from="11.899999999999999" to="0" dur="0.35699999999999993s" begin="anim8.end" fill="freeze" id="anim9" /></path><path d="M 6.7 -31.2 C 8.2 -33.9 9.6 -36.9 10.7 -40.0 " transform="translate(0.0 38.0)" stroke-dasharray="9.67738417451832" stroke-dashoffset="9.67738417451832"><animate attributeName="stroke-dashoffset" from="9.67738417451832" to="0" dur="0.2903215252355496s" begin="anim9.end" fill="freeze" id="anim10" /></path><path d="M 30.6 -11.4 C 31.4 -13.2 32.2 -15.2 32.8 -17.1 " transform="translate(0.0 38.0)" stroke-dasharray="6.112927498012814" stroke-dashoffset="6.112927498012814"><animate attributeName="stroke-dashoffset" from="6.112927498012814" to="0" dur="0.18338782494038441s" begin="anim10.end" fill="freeze" id="anim11" /></path><path d="M 28.0 -23.0 L 22.5 -23.0 " transform="translate(0.0 38.0)" stroke-dasharray="5.5" stroke-dashoffset="5.5"><animate attributeName="stroke-dashoffset" from="5.5" to="0" dur="0.16499999999999998s" begin="anim11.end" fill="freeze" id="anim12" /></path><path d="M 46.7 -16.9 L 20.7 -16.9 " transform="translate(0.0 38.0)" stroke-dasharray="26.000000000000004" stroke-dashoffset="26.000000000000004"><animate attributeName="stroke-dashoffset" from="26.000000000000004" to="0" dur="0.78s" begin="anim12.end" fill="freeze" id="anim13" /></path><path d="M 28.0 -28.1 L 24.3 -28.1 " transform="translate(0.0 38.0)" stroke-dasharray="3.6999999999999993" stroke-dashoffset="3.6999999999999993"><animate attributeName="stroke-dashoffset" from="3.6999999999999993" to="0" dur="0.11099999999999997s" begin="anim13.end" fill="freeze" id="anim14" /></path><path d="M 32.4 -20.9 L 32.4 -38.8 " transform="translate(0.0 38.0)" stroke-dasharray="17.9" stroke-dashoffset="17.9"><animate attributeName="stroke-dashoffset" from="17.9" to="0" dur="0.5369999999999999s" begin="anim14.end" fill="freeze" id="anim15" /></path><path d="M 42.6 -23.0 L 36.8 -23.0 " transform="translate(0.0 38.0)" stroke-dasharray="5.800000000000004" stroke-dashoffset="5.800000000000004"><animate attributeName="stroke-dashoffset" from="5.800000000000004" to="0" dur="0.17400000000000013s" begin="anim15.end" fill="freeze" id="anim16" /></path><path d="M 45.4 -28.7 L 45.4 -30.8 C 45.4 -32.6 44.5 -33.5 41.7 -33.5 L 23.8 -33.5 C 21.1 -33.5 20.1 -32.6 20.1 -30.8 L 20.1 -28.4 " transform="translate(0.0 38.0)" stroke-dasharray="32.95647184283692" stroke-dashoffset="32.95647184283692"><animate attributeName="stroke-dashoffset" from="32.95647184283692" to="0" dur="0.9886941552851075s" begin="anim16.end" fill="freeze" id="anim17" /></path><path d="M 41.1 -28.1 L 36.8 -28.1 " transform="translate(0.0 38.0)" stroke-dasharray="4.300000000000004" stroke-dashoffset="4.300000000000004"><animate attributeName="stroke-dashoffset" from="4.300000000000004" to="0" dur="0.12900000000000011s" begin="anim17.end" fill="freeze" id="anim18" /></path><path d="M 43.7 -39.0 L 22.3 -39.0" transform="translate(0.0 38.0)" stroke-dasharray="21.400000000000002" stroke-dashoffset="21.400000000000002"><animate attributeName="stroke-dashoffset" from="21.400000000000002" to="0" dur="0.642s" begin="anim18.end" fill="freeze" id="anim_end" /></path></g></svg>