<?xml version='1.0' encoding='utf-8'?>
<svg viewBox="0.0 -6.0 50.0 50.0" version="1.1" xmlns="http://www.w3.org/2000/svg"><rect x="-1000" y="-1000" width="2000" height="2000" stroke="white" fill="white" /><g style="fill:none;stroke:#000000;stroke-width:1"><path d="M 26.9 2.5 C 27.8 2.6 28.6 2.8 29.4 2.8 C 31.6 2.8 32.7 1.9 32.7 -0.3 L 32.7 -13.3 " transform="translate(0.0 38.0)" stroke-dasharray="20.748777744230548" stroke-dashoffset="20.748777744230548"><animate attributeName="stroke-dashoffset" from="20.748777744230548" to="0" dur="0.6224633323269164s" begin="0s; anim_end.end" fill="freeze" id="anim0" /></path><path d="M 19.4 -1.1 C 18.4 -2.2 16.6 -3.6 15.8 -4.3 " transform="translate(0.0 38.0)" stroke-dasharray="4.819882503891669" stroke-dashoffset="4.819882503891669"><animate attributeName="stroke-dashoffset" from="4.819882503891669" to="0" dur="0.14459647511675006s" begin="anim0.end" fill="freeze" id="anim1" /></path><path d="M 44.2 -9.2 L 6.5 -9.2 " transform="translate(0.0 38.0)" stroke-dasharray="37.7" stroke-dashoffset="37.7"><animate attributeName="stroke-dashoffset" from="37.7" to="0" dur="1.131s" begin="anim1.end" fill="freeze" id="anim2" /></path><path d="M 45.9 -17.4 L 4.0 -17.4 " transform="translate(0.0 38.0)" stroke-dasharray="41.9" stroke-dashoffset="41.9"><animate attributeName="stroke-dashoffset" from="41.9" to="0" dur="1.257s" begin="anim2.end" fill="freeze" id="anim3" /></path><path d="M 4.8 -29.7 C 7.5 -32.5 9.8 -36.2 11.4 -40.0 " transform="translate(0.0 38.0)" stroke-dasharray="12.299762602873335" stroke-dashoffset="12.299762602873335"><animate attributeName="stroke-dashoffset" from="12.299762602873335" to="0" dur="0.3689928780862s" begin="anim3.end" fill="freeze" id="anim4" /></path><path d="M 17.0 -30.1 C 16.2 -31.8 15.3 -33.4 14.2 -34.9 " transform="translate(0.0 38.0)" stroke-dasharray="5.565727500776744" stroke-dashoffset="5.565727500776744"><animate attributeName="stroke-dashoffset" from="5.565727500776744" to="0" dur="0.16697182502330232s" begin="anim4.end" fill="freeze" id="anim5" /></path><path d="M 24.8 -17.6 L 24.8 -28.1 " transform="translate(0.0 38.0)" stroke-dasharray="10.5" stroke-dashoffset="10.5"><animate attributeName="stroke-dashoffset" from="10.5" to="0" dur="0.315s" begin="anim5.end" fill="freeze" id="anim6" /></path><path d="M 40.5 -24.6 L 10.4 -24.6 " transform="translate(0.0 38.0)" stroke-dasharray="30.1" stroke-dashoffset="30.1"><animate attributeName="stroke-dashoffset" from="30.1" to="0" dur="0.903s" begin="anim6.end" fill="freeze" id="anim7" /></path><path d="M 22.2 -35.0 L 9.3 -35.0 " transform="translate(0.0 38.0)" stroke-dasharray="12.899999999999999" stroke-dashoffset="12.899999999999999"><animate attributeName="stroke-dashoffset" from="12.899999999999999" to="0" dur="0.38699999999999996s" begin="anim7.end" fill="freeze" id="anim8" /></path><path d="M 25.4 -31.9 C 27.4 -34.1 29.6 -37.4 30.9 -40.1 " transform="translate(0.0 38.0)" stroke-dasharray="9.902953285073915" stroke-dashoffset="9.902953285073915"><animate attributeName="stroke-dashoffset" from="9.902953285073915" to="0" dur="0.2970885985522174s" begin="anim8.end" fill="freeze" id="anim9" /></path><path d="M 37.0 -30.2 C 36.3 -31.6 35.1 -33.5 34.0 -35.0 " transform="translate(0.0 38.0)" stroke-dasharray="5.666076943941506" stroke-dashoffset="5.666076943941506"><animate attributeName="stroke-dashoffset" from="5.666076943941506" to="0" dur="0.16998230831824518s" begin="anim9.end" fill="freeze" id="anim10" /></path><path d="M 45.4 -35.0 L 28.2 -35.0" transform="translate(0.0 38.0)" stroke-dasharray="17.2" stroke-dashoffset="17.2"><animate attributeName="stroke-dashoffset" from="17.2" to="0" dur="0.516s" begin="anim10.end" fill="freeze" id="anim_end" /></path></g></svg>