<?xml version='1.0' encoding='utf-8'?>
<svg viewBox="0.0 -6.0 50.0 50.0" version="1.1" xmlns="http://www.w3.org/2000/svg"><rect x="-1000" y="-1000" width="2000" height="2000" stroke="white" fill="white" /><g style="fill:none;stroke:#000000;stroke-width:1"><path d="M 21.8 1.7 C 24.6 -0.2 27.6 -3.0 29.4 -5.3 " transform="translate(0.0 38.0)" stroke-dasharray="10.368104905456734" stroke-dashoffset="10.368104905456734"><animate attributeName="stroke-dashoffset" from="10.368104905456734" to="0" dur="0.311043147163702s" begin="0s" fill="freeze" /></path><path d="M 4.0 -2.4 C 5.2 -5.8 5.8 -10.1 5.8 -16.6 L 5.8 -22.9 " transform="translate(0.0 38.0)" stroke-dasharray="20.68072400788142" stroke-dashoffset="20.68072400788142"><animate attributeName="stroke-dashoffset" from="20.68072400788142" to="0" dur="0.6204217202364426s" begin="0.311043147163702s" fill="freeze" /></path><path d="M 11.8 2.6 L 11.8 -29.4 " transform="translate(0.0 38.0)" stroke-dasharray="32.0" stroke-dashoffset="32.0"><animate attributeName="stroke-dashoffset" from="32.0" to="0" dur="0.96s" begin="0.9314648674001447s" fill="freeze" /></path><path d="M 18.0 -5.2 L 18.0 -22.9 " transform="translate(0.0 38.0)" stroke-dasharray="17.7" stroke-dashoffset="17.7"><animate attributeName="stroke-dashoffset" from="17.7" to="0" dur="0.5309999999999999s" begin="1.8914648674001446s" fill="freeze" /></path><path d="M 19.1 -29.6 L 3.9 -29.6 " transform="translate(0.0 38.0)" stroke-dasharray="15.200000000000001" stroke-dashoffset="15.200000000000001"><animate attributeName="stroke-dashoffset" from="15.200000000000001" to="0" dur="0.456s" begin="2.4224648674001443s" fill="freeze" /></path><path d="M 45.0 1.2 C 43.0 -0.6 40.4 -3.3 38.9 -5.4 " transform="translate(0.0 38.0)" stroke-dasharray="9.001733542428095" stroke-dashoffset="9.001733542428095"><animate attributeName="stroke-dashoffset" from="9.001733542428095" to="0" dur="0.2700520062728428s" begin="2.8784648674001443s" fill="freeze" /></path><path d="M 47.1 -10.6 L 22.8 -10.6 " transform="translate(0.0 38.0)" stroke-dasharray="24.3" stroke-dashoffset="24.3"><animate attributeName="stroke-dashoffset" from="24.3" to="0" dur="0.729s" begin="3.148516873672987s" fill="freeze" /></path><path d="M 17.8 -37.6 L 5.3 -37.6 " transform="translate(0.0 38.0)" stroke-dasharray="12.5" stroke-dashoffset="12.5"><animate attributeName="stroke-dashoffset" from="12.5" to="0" dur="0.375s" begin="3.8775168736729873s" fill="freeze" /></path><path d="M 39.4 -18.2 L 29.4 -18.2 " transform="translate(0.0 38.0)" stroke-dasharray="10.0" stroke-dashoffset="10.0"><animate attributeName="stroke-dashoffset" from="10.0" to="0" dur="0.3s" begin="4.252516873672987s" fill="freeze" /></path><path d="M 28.6 -11.2 L 28.6 -40.0 " transform="translate(0.0 38.0)" stroke-dasharray="28.8" stroke-dashoffset="28.8"><animate attributeName="stroke-dashoffset" from="28.8" to="0" dur="0.864s" begin="4.552516873672987s" fill="freeze" /></path><path d="M 39.4 -25.3 L 29.4 -25.3 " transform="translate(0.0 38.0)" stroke-dasharray="10.0" stroke-dashoffset="10.0"><animate attributeName="stroke-dashoffset" from="10.0" to="0" dur="0.3s" begin="5.416516873672987s" fill="freeze" /></path><path d="M 40.3 -11.2 L 40.3 -40.0 " transform="translate(0.0 38.0)" stroke-dasharray="28.8" stroke-dashoffset="28.8"><animate attributeName="stroke-dashoffset" from="28.8" to="0" dur="0.864s" begin="5.716516873672987s" fill="freeze" /></path><path d="M 46.1 -32.5 L 23.1 -32.5" transform="translate(0.0 38.0)" stroke-dasharray="23.0" stroke-dashoffset="23.0"><animate attributeName="stroke-dashoffset" from="23.0" to="0" dur="0.69s" begin="6.580516873672987s" fill="freeze" /></path></g></svg>