<?xml version='1.0' encoding='utf-8'?>
<svg viewBox="0.0 -6.0 50.0 50.0" version="1.1" xmlns="http://www.w3.org/2000/svg"><rect x="-1000" y="-1000" width="2000" height="2000" stroke="white" fill="white" /><g style="fill:none;stroke:#000000;stroke-width:1"><path d="M 18.2 0.7 C 20.4 -2.6 22.9 -7.9 24.3 -12.2 " transform="translate(0.0 38.0)" stroke-dasharray="14.306125749365984" stroke-dashoffset="14.306125749365984"><animate attributeName="stroke-dashoffset" from="14.306125749365984" to="0" dur="0.4291837724809795s" begin="0s; anim_end.end" fill="freeze" id="anim0" /></path><path d="M 3.5 -6.8 C 7.4 -7.8 12.4 -9.7 15.8 -11.3 " transform="translate(0.0 38.0)" stroke-dasharray="13.113598819057966" stroke-dashoffset="13.113598819057966"><animate attributeName="stroke-dashoffset" from="13.113598819057966" to="0" dur="0.393407964571739s" begin="anim0.end" fill="freeze" id="anim1" /></path><path d="M 9.6 -8.2 L 9.6 -37.0 " transform="translate(0.0 38.0)" stroke-dasharray="28.8" stroke-dashoffset="28.8"><animate attributeName="stroke-dashoffset" from="28.8" to="0" dur="0.864s" begin="anim1.end" fill="freeze" id="anim2" /></path><path d="M 14.8 -24.1 L 4.2 -24.1 " transform="translate(0.0 38.0)" stroke-dasharray="10.600000000000001" stroke-dashoffset="10.600000000000001"><animate attributeName="stroke-dashoffset" from="10.600000000000001" to="0" dur="0.318s" begin="anim2.end" fill="freeze" id="anim3" /></path><path d="M 27.2 -0.3 C 32.8 -0.8 38.5 -1.8 44.4 -3.1 " transform="translate(0.0 38.0)" stroke-dasharray="17.438336631362937" stroke-dashoffset="17.438336631362937"><animate attributeName="stroke-dashoffset" from="17.438336631362937" to="0" dur="0.523150098940888s" begin="anim3.end" fill="freeze" id="anim4" /></path><path d="M 31.4 -1.1 C 33.8 -6.7 35.6 -12.2 37.1 -18.2 " transform="translate(0.0 38.0)" stroke-dasharray="18.044828234967344" stroke-dashoffset="18.044828234967344"><animate attributeName="stroke-dashoffset" from="18.044828234967344" to="0" dur="0.5413448470490203s" begin="anim4.end" fill="freeze" id="anim5" /></path><path d="M 22.6 -23.2 C 21.4 -24.6 19.6 -26.0 18.5 -26.9 " transform="translate(0.0 38.0)" stroke-dasharray="5.530145808110437" stroke-dashoffset="5.530145808110437"><animate attributeName="stroke-dashoffset" from="5.530145808110437" to="0" dur="0.1659043742433131s" begin="anim5.end" fill="freeze" id="anim6" /></path><path d="M 15.3 -37.0 L 3.6 -37.0 " transform="translate(0.0 38.0)" stroke-dasharray="11.700000000000001" stroke-dashoffset="11.700000000000001"><animate attributeName="stroke-dashoffset" from="11.700000000000001" to="0" dur="0.35100000000000003s" begin="anim6.end" fill="freeze" id="anim7" /></path><path d="M 46.6 -0.2 C 45.5 -3.0 44.0 -6.1 42.2 -8.4 " transform="translate(0.0 38.0)" stroke-dasharray="9.336408162064782" stroke-dashoffset="9.336408162064782"><animate attributeName="stroke-dashoffset" from="9.336408162064782" to="0" dur="0.28009224486194345s" begin="anim7.end" fill="freeze" id="anim8" /></path><path d="M 47.0 -19.1 L 28.3 -19.1 " transform="translate(0.0 38.0)" stroke-dasharray="18.7" stroke-dashoffset="18.7"><animate attributeName="stroke-dashoffset" from="18.7" to="0" dur="0.5609999999999999s" begin="anim8.end" fill="freeze" id="anim9" /></path><path d="M 25.4 -35.2 C 24.4 -36.5 22.7 -38.0 21.6 -38.9 " transform="translate(0.0 38.0)" stroke-dasharray="5.3137059189670515" stroke-dashoffset="5.3137059189670515"><animate attributeName="stroke-dashoffset" from="5.3137059189670515" to="0" dur="0.15941117756901155s" begin="anim9.end" fill="freeze" id="anim10" /></path><path d="M 37.4 -19.4 L 37.4 -40.0 " transform="translate(0.0 38.0)" stroke-dasharray="20.6" stroke-dashoffset="20.6"><animate attributeName="stroke-dashoffset" from="20.6" to="0" dur="0.618s" begin="anim10.end" fill="freeze" id="anim11" /></path><path d="M 45.0 -31.2 L 30.4 -31.2" transform="translate(0.0 38.0)" stroke-dasharray="14.600000000000001" stroke-dashoffset="14.600000000000001"><animate attributeName="stroke-dashoffset" from="14.600000000000001" to="0" dur="0.438s" begin="anim11.end" fill="freeze" id="anim_end" /></path></g></svg>