<?xml version='1.0' encoding='utf-8'?>
<svg viewBox="0.0 -6.0 50.0 50.0" version="1.1" xmlns="http://www.w3.org/2000/svg"><rect x="-1000" y="-1000" width="2000" height="2000" stroke="white" fill="white" /><g style="fill:none;stroke:#000000;stroke-width:1"><path d="M 36.8 1.4 C 37.6 1.6 38.5 1.7 39.5 1.7 C 41.4 1.7 42.6 0.8 43.3 -1.6 C 44.0 -3.6 44.4 -6.5 44.5 -9.1 C 44.7 -10.8 44.0 -12.0 41.5 -12.0 L 22.4 -12.0 " transform="translate(0.0 38.0)" stroke-dasharray="39.86893908513727" stroke-dashoffset="39.86893908513727"><animate attributeName="stroke-dashoffset" from="39.86893908513727" to="0" dur="1.196068172554118s" begin="0s" fill="freeze" /></path><path d="M 5.2 0.5 C 7.5 -3.0 9.8 -8.2 11.2 -12.7 " transform="translate(0.0 38.0)" stroke-dasharray="14.54059051124759" stroke-dashoffset="14.54059051124759"><animate attributeName="stroke-dashoffset" from="14.54059051124759" to="0" dur="0.4362177153374277s" begin="1.196068172554118s" fill="freeze" /></path><path d="M 19.4 -0.1 C 20.2 -1.7 20.9 -3.6 21.4 -5.6 " transform="translate(0.0 38.0)" stroke-dasharray="5.863669938892182" stroke-dashoffset="5.863669938892182"><animate attributeName="stroke-dashoffset" from="5.863669938892182" to="0" dur="0.17591009816676545s" begin="1.6322858878915456s" fill="freeze" /></path><path d="M 27.6 -1.6 C 27.3 -3.1 26.8 -4.8 26.4 -6.1 " transform="translate(0.0 38.0)" stroke-dasharray="4.659149838574819" stroke-dashoffset="4.659149838574819"><animate attributeName="stroke-dashoffset" from="4.659149838574819" to="0" dur="0.13977449515724455s" begin="1.808195986058311s" fill="freeze" /></path><path d="M 8.3 -23.1 C 7.1 -24.4 5.2 -26.0 4.0 -26.9 " transform="translate(0.0 38.0)" stroke-dasharray="5.744811570040422" stroke-dashoffset="5.744811570040422"><animate attributeName="stroke-dashoffset" from="5.744811570040422" to="0" dur="0.17234434710121266s" begin="1.9479704812155556s" fill="freeze" /></path><path d="M 15.6 -6.5 C 20.0 -9.2 24.1 -13.0 27.2 -17.4 " transform="translate(0.0 38.0)" stroke-dasharray="16.02491175686715" stroke-dashoffset="16.02491175686715"><animate attributeName="stroke-dashoffset" from="16.02491175686715" to="0" dur="0.48074735270601454s" begin="2.120314828316768s" fill="freeze" /></path><path d="M 33.5 -3.0 C 33.0 -4.4 32.4 -5.8 31.6 -6.8 " transform="translate(0.0 38.0)" stroke-dasharray="4.267099697506004" stroke-dashoffset="4.267099697506004"><animate attributeName="stroke-dashoffset" from="4.267099697506004" to="0" dur="0.12801299092518012s" begin="2.6010621810227827s" fill="freeze" /></path><path d="M 38.6 -5.2 C 38.0 -6.1 37.2 -7.2 36.6 -8.0 " transform="translate(0.0 38.0)" stroke-dasharray="3.4413200089921596" stroke-dashoffset="3.4413200089921596"><animate attributeName="stroke-dashoffset" from="3.4413200089921596" to="0" dur="0.10323960026976478s" begin="2.729075171947963s" fill="freeze" /></path><path d="M 11.2 -35.2 C 10.2 -36.5 8.5 -38.0 7.3 -38.9 " transform="translate(0.0 38.0)" stroke-dasharray="5.389574209665458" stroke-dashoffset="5.389574209665458"><animate attributeName="stroke-dashoffset" from="5.389574209665458" to="0" dur="0.16168722628996374s" begin="2.8323147722177278s" fill="freeze" /></path><path d="M 28.1 -23.9 L 21.8 -23.9 " transform="translate(0.0 38.0)" stroke-dasharray="6.300000000000001" stroke-dashoffset="6.300000000000001"><animate attributeName="stroke-dashoffset" from="6.300000000000001" to="0" dur="0.189s" begin="2.9940019985076916s" fill="freeze" /></path><path d="M 21.6 -29.1 L 21.6 -20.6 C 21.6 -18.4 22.4 -17.8 25.0 -17.8 L 37.2 -17.8 C 39.8 -17.8 40.7 -18.4 40.7 -20.6 L 40.7 -26.6 C 40.7 -28.8 39.9 -29.6 37.3 -29.6 L 33.4 -29.6 " transform="translate(0.0 38.0)" stroke-dasharray="46.41015983689928" stroke-dashoffset="46.41015983689928"><animate attributeName="stroke-dashoffset" from="46.41015983689928" to="0" dur="1.3923047951069785s" begin="3.1830019985076916s" fill="freeze" /></path><path d="M 21.8 -28.5 C 24.1 -29.3 26.1 -30.1 28.2 -31.2 " transform="translate(0.0 38.0)" stroke-dasharray="6.952956594122999" stroke-dashoffset="6.952956594122999"><animate attributeName="stroke-dashoffset" from="6.952956594122999" to="0" dur="0.20858869782368997s" begin="4.57530679361467s" fill="freeze" /></path><path d="M 40.1 -23.9 L 33.6 -23.9 " transform="translate(0.0 38.0)" stroke-dasharray="6.5" stroke-dashoffset="6.5"><animate attributeName="stroke-dashoffset" from="6.5" to="0" dur="0.195s" begin="4.7838954914383605s" fill="freeze" /></path><path d="M 44.5 -31.1 L 44.5 -33.1 C 44.5 -35.0 44.0 -36.1 41.2 -36.1 L 20.7 -36.1 C 17.9 -36.1 17.4 -35.0 17.4 -33.1 L 17.4 -30.9 " transform="translate(0.0 38.0)" stroke-dasharray="35.17584183505103" stroke-dashoffset="35.17584183505103"><animate attributeName="stroke-dashoffset" from="35.17584183505103" to="0" dur="1.055275255051531s" begin="4.978895491438361s" fill="freeze" /></path><path d="M 30.6 -35.2 L 30.6 -40.3" transform="translate(0.0 38.0)" stroke-dasharray="5.099999999999994" stroke-dashoffset="5.099999999999994"><animate attributeName="stroke-dashoffset" from="5.099999999999994" to="0" dur="0.15299999999999983s" begin="6.034170746489892s" fill="freeze" /></path></g></svg>