<?xml version='1.0' encoding='utf-8'?>
<svg viewBox="0.0 -6.0 50.0 50.0" version="1.1" xmlns="http://www.w3.org/2000/svg"><rect x="-1000" y="-1000" width="2000" height="2000" stroke="white" fill="white" /><g style="fill:none;stroke:#000000;stroke-width:1"><path d="M 16.6 0.5 C 19.8 -5.2 21.9 -12.8 21.9 -25.0 L 21.9 -32.1 C 21.9 -34.4 22.9 -35.4 25.8 -35.4 L 45.8 -35.4 " transform="translate(0.0 38.0)" stroke-dasharray="59.3800505515307" stroke-dashoffset="59.3800505515307"><animate attributeName="stroke-dashoffset" from="59.3800505515307" to="0" dur="1.781401516545921s" begin="0s; 15s; 30s; 45s" fill="freeze" id="anim0" /></path><path d="M 2.8 -6.7 C 5.4 -10.2 7.9 -15.7 9.4 -21.0 " transform="translate(0.0 38.0)" stroke-dasharray="15.825548973926457" stroke-dashoffset="15.825548973926457"><animate attributeName="stroke-dashoffset" from="15.825548973926457" to="0" dur="0.4747664692177937s" begin="anim0.end" fill="freeze" id="anim1" /></path><path d="M 15.8 -13.2 C 14.3 -14.8 12.5 -16.2 10.7 -17.3 " transform="translate(0.0 38.0)" stroke-dasharray="6.562978072642081" stroke-dashoffset="6.562978072642081"><animate attributeName="stroke-dashoffset" from="6.562978072642081" to="0" dur="0.19688934217926243s" begin="anim1.end" fill="freeze" id="anim2" /></path><path d="M 10.2 2.8 L 10.2 -40.5 " transform="translate(0.0 38.0)" stroke-dasharray="43.3" stroke-dashoffset="43.3"><animate attributeName="stroke-dashoffset" from="43.3" to="0" dur="1.299s" begin="anim2.end" fill="freeze" id="anim3" /></path><path d="M 22.8 -1.1 C 25.4 -2.2 28.1 -3.8 30.1 -5.3 " transform="translate(0.0 38.0)" stroke-dasharray="8.44101709617609" stroke-dashoffset="8.44101709617609"><animate attributeName="stroke-dashoffset" from="8.44101709617609" to="0" dur="0.2532305128852827s" begin="anim3.end" fill="freeze" id="anim4" /></path><path d="M 16.6 -23.6 L 3.2 -23.6 " transform="translate(0.0 38.0)" stroke-dasharray="13.400000000000002" stroke-dashoffset="13.400000000000002"><animate attributeName="stroke-dashoffset" from="13.400000000000002" to="0" dur="0.402s" begin="anim4.end" fill="freeze" id="anim5" /></path><path d="M 5.7 -29.2 C 5.2 -30.8 4.5 -32.8 4.0 -34.1 " transform="translate(0.0 38.0)" stroke-dasharray="5.187256334974096" stroke-dashoffset="5.187256334974096"><animate attributeName="stroke-dashoffset" from="5.187256334974096" to="0" dur="0.15561769004922288s" begin="anim5.end" fill="freeze" id="anim6" /></path><path d="M 29.0 -9.6 C 28.4 -10.2 27.5 -11.1 26.8 -11.6 " transform="translate(0.0 38.0)" stroke-dasharray="2.9761740507999823" stroke-dashoffset="2.9761740507999823"><animate attributeName="stroke-dashoffset" from="2.9761740507999823" to="0" dur="0.08928522152399947s" begin="anim6.end" fill="freeze" id="anim7" /></path><path d="M 29.1 1.8 C 29.8 1.9 30.7 2.0 31.4 2.0 C 33.3 2.0 34.4 1.2 34.4 -0.8 L 34.4 -31.6 " transform="translate(0.0 38.0)" stroke-dasharray="37.82960511021718" stroke-dashoffset="37.82960511021718"><animate attributeName="stroke-dashoffset" from="37.82960511021718" to="0" dur="1.1348881533065154s" begin="anim7.end" fill="freeze" id="anim8" /></path><path d="M 14.8 -28.9 C 15.5 -30.4 16.5 -32.6 17.1 -34.5 " transform="translate(0.0 38.0)" stroke-dasharray="6.05800093933289" stroke-dashoffset="6.05800093933289"><animate attributeName="stroke-dashoffset" from="6.05800093933289" to="0" dur="0.18174002817998672s" begin="anim8.end" fill="freeze" id="anim9" /></path><path d="M 46.1 -0.6 C 41.4 -3.7 37.2 -9.2 35.2 -15.3 " transform="translate(0.0 38.0)" stroke-dasharray="18.625068718232818" stroke-dashoffset="18.625068718232818"><animate attributeName="stroke-dashoffset" from="18.625068718232818" to="0" dur="0.5587520615469845s" begin="anim9.end" fill="freeze" id="anim10" /></path><path d="M 39.7 -7.7 C 41.3 -8.8 42.9 -10.1 44.5 -11.8 " transform="translate(0.0 38.0)" stroke-dasharray="6.325031882946417" stroke-dashoffset="6.325031882946417"><animate attributeName="stroke-dashoffset" from="6.325031882946417" to="0" dur="0.18975095648839252s" begin="anim10.end" fill="freeze" id="anim11" /></path><path d="M 27.4 -16.4 L 39.4 -16.4 C 42.0 -16.4 42.9 -17.2 42.9 -19.2 L 42.9 -25.2 C 42.9 -27.2 42.0 -28.1 39.4 -28.1 L 27.4 -28.1 " transform="translate(0.0 38.0)" stroke-dasharray="40.50022743328529" stroke-dashoffset="40.50022743328529"><animate attributeName="stroke-dashoffset" from="40.50022743328529" to="0" dur="1.2150068229985587s" begin="anim11.end" fill="freeze" id="anim12" /></path><path d="M 46.9 -22.3 L 22.6 -22.3 " transform="translate(0.0 38.0)" stroke-dasharray="24.299999999999997" stroke-dashoffset="24.299999999999997"><animate attributeName="stroke-dashoffset" from="24.299999999999997" to="0" dur="0.7289999999999999s" begin="anim12.end" fill="freeze" id="anim13" /></path><path d="M 33.8 -35.4 L 33.8 -40.4" transform="translate(0.0 38.0)" stroke-dasharray="5.0" stroke-dashoffset="5.0"><animate attributeName="stroke-dashoffset" from="5.0" to="0" dur="0.15s" begin="anim13.end" fill="freeze" id="anim_end" /></path></g></svg>