<?xml version='1.0' encoding='utf-8'?>
<svg viewBox="0.0 -6.0 50.0 50.0" version="1.1" xmlns="http://www.w3.org/2000/svg"><rect x="-1000" y="-1000" width="2000" height="2000" stroke="white" fill="white" /><g style="fill:none;stroke:#000000;stroke-width:1"><path d="M 3.5 -6.2 C 6.5 -9.8 9.2 -15.4 10.9 -20.6 " transform="translate(0.0 38.0)" stroke-dasharray="16.27601050301505" stroke-dashoffset="16.27601050301505"><animate attributeName="stroke-dashoffset" from="16.27601050301505" to="0" dur="0.4882803150904515s" begin="0s; 15s; 30s; 45s" fill="freeze" id="anim0" /></path><path d="M 19.4 -11.8 C 17.8 -13.4 15.6 -15.2 13.2 -16.4 " transform="translate(0.0 38.0)" stroke-dasharray="7.7518789798485335" stroke-dashoffset="7.7518789798485335"><animate attributeName="stroke-dashoffset" from="7.7518789798485335" to="0" dur="0.232556369395456s" begin="anim0.end" fill="freeze" id="anim1" /></path><path d="M 11.9 2.8 L 11.9 -40.5 " transform="translate(0.0 38.0)" stroke-dasharray="43.3" stroke-dashoffset="43.3"><animate attributeName="stroke-dashoffset" from="43.3" to="0" dur="1.299s" begin="anim1.end" fill="freeze" id="anim2" /></path><path d="M 19.6 -23.1 L 3.6 -23.1 " transform="translate(0.0 38.0)" stroke-dasharray="16.0" stroke-dashoffset="16.0"><animate attributeName="stroke-dashoffset" from="16.0" to="0" dur="0.48s" begin="anim2.end" fill="freeze" id="anim3" /></path><path d="M 6.7 -29.4 C 6.3 -30.9 5.5 -33.1 4.8 -34.5 " transform="translate(0.0 38.0)" stroke-dasharray="5.44976166577689" stroke-dashoffset="5.44976166577689"><animate attributeName="stroke-dashoffset" from="5.44976166577689" to="0" dur="0.1634928499733067s" begin="anim3.end" fill="freeze" id="anim4" /></path><path d="M 17.1 -29.0 C 17.9 -30.6 18.9 -32.9 19.5 -34.9 " transform="translate(0.0 38.0)" stroke-dasharray="6.376431757613098" stroke-dashoffset="6.376431757613098"><animate attributeName="stroke-dashoffset" from="6.376431757613098" to="0" dur="0.19129295272839292s" begin="anim4.end" fill="freeze" id="anim5" /></path><path d="M 34.4 2.0 L 34.4 -36.4 " transform="translate(0.0 38.0)" stroke-dasharray="38.4" stroke-dashoffset="38.4"><animate attributeName="stroke-dashoffset" from="38.4" to="0" dur="1.152s" begin="anim5.end" fill="freeze" id="anim6" /></path><path d="M 46.8 -20.9 L 23.7 -20.9 " transform="translate(0.0 38.0)" stroke-dasharray="23.099999999999998" stroke-dashoffset="23.099999999999998"><animate attributeName="stroke-dashoffset" from="23.099999999999998" to="0" dur="0.693s" begin="anim6.end" fill="freeze" id="anim7" /></path><path d="M 25.5 -34.8 C 31.2 -35.4 38.1 -36.9 43.0 -38.7" transform="translate(0.0 38.0)" stroke-dasharray="17.968661002927195" stroke-dashoffset="17.968661002927195"><animate attributeName="stroke-dashoffset" from="17.968661002927195" to="0" dur="0.5390598300878159s" begin="anim7.end" fill="freeze" id="anim_end" /></path></g></svg>