<?xml version='1.0' encoding='utf-8'?>
<svg viewBox="0.0 -6.0 50.0 50.0" version="1.1" xmlns="http://www.w3.org/2000/svg"><rect x="-1000" y="-1000" width="2000" height="2000" stroke="white" fill="white" /><g style="fill:none;stroke:#000000;stroke-width:1"><path d="M 38.8 1.8 C 39.6 1.9 40.2 1.9 40.9 1.9 C 42.9 1.9 43.9 1.4 44.5 -0.7 C 45.0 -2.6 45.3 -4.9 45.4 -7.3 C 45.5 -9.1 44.8 -9.8 42.5 -9.8 L 30.6 -9.8 C 28.3 -9.8 27.5 -10.3 27.5 -12.2 L 27.5 -24.4 C 27.5 -26.1 28.4 -26.7 30.6 -26.7 L 44.5 -26.7 " transform="translate(0.0 38.0)" stroke-dasharray="65.32240809649332" stroke-dashoffset="65.32240809649332"><animate attributeName="stroke-dashoffset" from="65.32240809649332" to="0" dur="1.9596722428947995s" begin="0s; anim_end.end" fill="freeze" id="anim0" /></path><path d="M 21.6 -3.5 L 3.8 -3.5 " transform="translate(0.0 38.0)" stroke-dasharray="17.8" stroke-dashoffset="17.8"><animate attributeName="stroke-dashoffset" from="17.8" to="0" dur="0.534s" begin="anim0.end" fill="freeze" id="anim1" /></path><path d="M 13.3 2.6 L 13.3 -18.6 " transform="translate(0.0 38.0)" stroke-dasharray="21.200000000000003" stroke-dashoffset="21.200000000000003"><animate attributeName="stroke-dashoffset" from="21.200000000000003" to="0" dur="0.636s" begin="anim1.end" fill="freeze" id="anim2" /></path><path d="M 8.7 -8.7 L 18.2 -8.7 C 20.1 -8.7 20.8 -9.2 20.8 -10.6 L 20.8 -12.3 C 20.8 -13.7 20.1 -14.2 18.2 -14.2 L 8.7 -14.2 C 6.7 -14.2 6.1 -13.7 6.1 -12.3 L 6.1 -10.6 C 6.1 -9.2 6.7 -8.7 8.7 -8.7 Z " transform="translate(0.0 38.0)" stroke-dasharray="37.40922412792695" stroke-dashoffset="37.40922412792695"><animate attributeName="stroke-dashoffset" from="37.40922412792695" to="0" dur="1.1222767238378084s" begin="anim2.end" fill="freeze" id="anim3" /></path><path d="M 24.9 0.8 C 25.6 -0.8 26.1 -2.5 26.5 -4.5 " transform="translate(0.0 38.0)" stroke-dasharray="5.547197542157056" stroke-dashoffset="5.547197542157056"><animate attributeName="stroke-dashoffset" from="5.547197542157056" to="0" dur="0.16641592626471166s" begin="anim3.end" fill="freeze" id="anim4" /></path><path d="M 31.9 -0.7 C 31.7 -2.1 31.4 -3.4 30.9 -4.6 " transform="translate(0.0 38.0)" stroke-dasharray="4.0370154408299195" stroke-dashoffset="4.0370154408299195"><animate attributeName="stroke-dashoffset" from="4.0370154408299195" to="0" dur="0.12111046322489757s" begin="anim4.end" fill="freeze" id="anim5" /></path><path d="M 8.9 -27.8 L 8.9 -21.1 C 8.9 -19.5 9.6 -19.1 11.2 -19.1 L 15.3 -19.1 C 17.0 -19.1 17.7 -19.5 17.7 -21.1 L 17.7 -27.8 " transform="translate(0.0 38.0)" stroke-dasharray="24.750893695891303" stroke-dashoffset="24.750893695891303"><animate attributeName="stroke-dashoffset" from="24.750893695891303" to="0" dur="0.7425268108767391s" begin="anim5.end" fill="freeze" id="anim6" /></path><path d="M 22.6 -24.1 L 4.0 -24.1 " transform="translate(0.0 38.0)" stroke-dasharray="18.6" stroke-dashoffset="18.6"><animate attributeName="stroke-dashoffset" from="18.6" to="0" dur="0.558s" begin="anim6.end" fill="freeze" id="anim7" /></path><path d="M 36.9 -2.1 C 36.5 -3.5 36.0 -4.4 35.5 -5.3 " transform="translate(0.0 38.0)" stroke-dasharray="3.5021390785327897" stroke-dashoffset="3.5021390785327897"><animate attributeName="stroke-dashoffset" from="3.5021390785327897" to="0" dur="0.10506417235598368s" begin="anim7.end" fill="freeze" id="anim8" /></path><path d="M 41.3 -3.8 C 41.0 -4.5 40.4 -5.5 39.9 -6.2 " transform="translate(0.0 38.0)" stroke-dasharray="2.7827866266089907" stroke-dashoffset="2.7827866266089907"><animate attributeName="stroke-dashoffset" from="2.7827866266089907" to="0" dur="0.08348359879826972s" begin="anim8.end" fill="freeze" id="anim9" /></path><path d="M 43.1 -15.4 L 27.4 -15.4 " transform="translate(0.0 38.0)" stroke-dasharray="15.700000000000003" stroke-dashoffset="15.700000000000003"><animate attributeName="stroke-dashoffset" from="15.700000000000003" to="0" dur="0.4710000000000001s" begin="anim9.end" fill="freeze" id="anim10" /></path><path d="M 35.6 -9.3 L 35.6 -26.5 " transform="translate(0.0 38.0)" stroke-dasharray="17.2" stroke-dashoffset="17.2"><animate attributeName="stroke-dashoffset" from="17.2" to="0" dur="0.516s" begin="anim10.end" fill="freeze" id="anim11" /></path><path d="M 18.9 -31.8 L 18.9 -38.6 " transform="translate(0.0 38.0)" stroke-dasharray="6.800000000000001" stroke-dashoffset="6.800000000000001"><animate attributeName="stroke-dashoffset" from="6.800000000000001" to="0" dur="0.20400000000000001s" begin="anim11.end" fill="freeze" id="anim12" /></path><path d="M 43.1 -21.0 L 27.4 -21.0 " transform="translate(0.0 38.0)" stroke-dasharray="15.700000000000003" stroke-dashoffset="15.700000000000003"><animate attributeName="stroke-dashoffset" from="15.700000000000003" to="0" dur="0.4710000000000001s" begin="anim12.end" fill="freeze" id="anim13" /></path><path d="M 10.9 -32.0 L 39.4 -32.0 C 41.8 -32.0 42.5 -32.6 42.5 -34.2 L 42.5 -36.7 C 42.5 -38.2 41.8 -39.0 39.4 -39.0 L 10.9 -39.0 C 8.5 -39.0 7.8 -38.2 7.8 -36.7 L 7.8 -34.2 C 7.8 -32.6 8.5 -32.0 10.9 -32.0 Z " transform="translate(0.0 38.0)" stroke-dasharray="79.79281100326462" stroke-dashoffset="79.79281100326462"><animate attributeName="stroke-dashoffset" from="79.79281100326462" to="0" dur="2.3937843300979385s" begin="anim13.end" fill="freeze" id="anim14" /></path><path d="M 30.6 -31.8 L 30.6 -38.6" transform="translate(0.0 38.0)" stroke-dasharray="6.800000000000001" stroke-dashoffset="6.800000000000001"><animate attributeName="stroke-dashoffset" from="6.800000000000001" to="0" dur="0.20400000000000001s" begin="anim14.end" fill="freeze" id="anim_end" /></path></g></svg>