<?xml version='1.0' encoding='utf-8'?>
<svg viewBox="0.0 -6.0 50.0 50.0" version="1.1" xmlns="http://www.w3.org/2000/svg"><rect x="-1000" y="-1000" width="2000" height="2000" stroke="white" fill="white" /><g style="fill:none;stroke:#000000;stroke-width:1"><path d="M 20.4 -7.7 C 26.6 -15.6 30.9 -27.8 32.3 -40.0 " transform="translate(0.0 38.0)" stroke-dasharray="34.82328216507477" stroke-dashoffset="34.82328216507477"><animate attributeName="stroke-dashoffset" from="34.82328216507477" to="0" dur="1.044698464952243s" begin="0s; anim_end.end" fill="freeze" id="anim0" /></path><path d="M 10.7 2.5 L 10.7 -19.8 " transform="translate(0.0 38.0)" stroke-dasharray="22.3" stroke-dashoffset="22.3"><animate attributeName="stroke-dashoffset" from="22.3" to="0" dur="0.669s" begin="anim0.end" fill="freeze" id="anim1" /></path><path d="M 17.6 -14.4 C 15.8 -15.9 13.9 -17.1 11.8 -18.0 " transform="translate(0.0 38.0)" stroke-dasharray="6.850812272062045" stroke-dashoffset="6.850812272062045"><animate attributeName="stroke-dashoffset" from="6.850812272062045" to="0" dur="0.20552436816186134s" begin="anim1.end" fill="freeze" id="anim2" /></path><path d="M 3.3 -12.8 C 8.5 -16.5 14.1 -23.2 16.4 -28.5 C 17.2 -30.4 16.5 -31.6 14.3 -31.6 L 3.9 -31.6 " transform="translate(0.0 38.0)" stroke-dasharray="35.83448155267418" stroke-dashoffset="35.83448155267418"><animate attributeName="stroke-dashoffset" from="35.83448155267418" to="0" dur="1.0750344465802253s" begin="anim2.end" fill="freeze" id="anim3" /></path><path d="M 31.6 1.1 L 39.4 1.1 C 42.1 1.1 43.2 0.1 43.2 -2.1 L 43.2 -12.4 C 43.2 -14.7 42.1 -15.7 39.4 -15.7 L 31.6 -15.7 C 28.9 -15.7 27.9 -14.7 27.9 -12.4 L 27.9 -2.1 C 27.9 0.1 28.9 1.1 31.6 1.1 Z " transform="translate(0.0 38.0)" stroke-dasharray="59.216006295849" stroke-dashoffset="59.216006295849"><animate attributeName="stroke-dashoffset" from="59.216006295849" to="0" dur="1.77648018887547s" begin="anim3.end" fill="freeze" id="anim4" /></path><path d="M 10.7 -31.5 L 10.7 -40.3 " transform="translate(0.0 38.0)" stroke-dasharray="8.799999999999997" stroke-dashoffset="8.799999999999997"><animate attributeName="stroke-dashoffset" from="8.799999999999997" to="0" dur="0.2639999999999999s" begin="anim4.end" fill="freeze" id="anim5" /></path><path d="M 46.0 -30.0 L 22.3 -30.0" transform="translate(0.0 38.0)" stroke-dasharray="23.7" stroke-dashoffset="23.7"><animate attributeName="stroke-dashoffset" from="23.7" to="0" dur="0.711s" begin="anim5.end" fill="freeze" id="anim_end" /></path></g></svg>