<?xml version='1.0' encoding='utf-8'?>
<svg viewBox="0.0 -6.0 50.0 50.0" version="1.1" xmlns="http://www.w3.org/2000/svg"><rect x="-1000" y="-1000" width="2000" height="2000" stroke="white" fill="white" /><g style="fill:none;stroke:#000000;stroke-width:1"><path d="M 35.4 1.4 C 36.5 1.6 37.7 1.8 38.7 1.8 C 41.2 1.8 42.7 0.5 43.5 -3.2 C 44.2 -6.7 44.5 -11.9 44.6 -15.6 C 44.6 -17.9 43.6 -19.2 40.4 -19.2 L 25.9 -19.2 " transform="translate(0.0 38.0)" stroke-dasharray="44.345088607176244" stroke-dashoffset="44.345088607176244"><animate attributeName="stroke-dashoffset" from="44.345088607176244" to="0" dur="1.3303526582152874s" begin="0s; anim_end.end" fill="freeze" id="anim0" /></path><path d="M 15.9 -6.2 L 15.9 -20.5 C 15.9 -22.6 15.1 -23.2 13.2 -23.2 L 10.3 -23.2 C 8.6 -23.2 7.7 -22.3 7.7 -20.5 L 7.7 -6.2 C 7.7 -4.2 8.6 -3.5 10.3 -3.5 L 13.2 -3.5 C 15.1 -3.5 15.9 -4.2 15.9 -6.2 Z " transform="translate(0.0 38.0)" stroke-dasharray="51.973673958259354" stroke-dashoffset="51.973673958259354"><animate attributeName="stroke-dashoffset" from="51.973673958259354" to="0" dur="1.5592102187477805s" begin="anim0.end" fill="freeze" id="anim1" /></path><path d="M 3.0 -15.8 C 6.3 -20.9 9.1 -29.7 9.9 -36.8 " transform="translate(0.0 38.0)" stroke-dasharray="22.265571669052907" stroke-dashoffset="22.265571669052907"><animate attributeName="stroke-dashoffset" from="22.265571669052907" to="0" dur="0.6679671500715871s" begin="anim1.end" fill="freeze" id="anim2" /></path><path d="M 37.5 -4.0 L 27.1 -4.0 C 24.6 -4.0 23.8 -4.8 23.8 -6.8 L 23.8 -11.3 " transform="translate(0.0 38.0)" stroke-dasharray="19.960668983373875" stroke-dashoffset="19.960668983373875"><animate attributeName="stroke-dashoffset" from="19.960668983373875" to="0" dur="0.5988200695012162s" begin="anim2.end" fill="freeze" id="anim3" /></path><path d="M 29.1 -8.5 C 30.7 -10.2 32.5 -12.8 33.8 -15.4 " transform="translate(0.0 38.0)" stroke-dasharray="8.37501233312499" stroke-dashoffset="8.37501233312499"><animate attributeName="stroke-dashoffset" from="8.37501233312499" to="0" dur="0.2512503699937497s" begin="anim3.end" fill="freeze" id="anim4" /></path><path d="M 20.5 -13.9 C 24.3 -16.8 27.6 -20.9 30.0 -25.1 " transform="translate(0.0 38.0)" stroke-dasharray="14.780599768119616" stroke-dashoffset="14.780599768119616"><animate attributeName="stroke-dashoffset" from="14.780599768119616" to="0" dur="0.4434179930435885s" begin="anim4.end" fill="freeze" id="anim5" /></path><path d="M 37.3 -8.9 C 36.1 -10.1 34.5 -11.3 32.9 -12.2 " transform="translate(0.0 38.0)" stroke-dasharray="5.515976407468334" stroke-dashoffset="5.515976407468334"><animate attributeName="stroke-dashoffset" from="5.515976407468334" to="0" dur="0.16547929222405s" begin="anim5.end" fill="freeze" id="anim6" /></path><path d="M 17.2 -37.2 L 3.4 -37.2 " transform="translate(0.0 38.0)" stroke-dasharray="13.799999999999999" stroke-dashoffset="13.799999999999999"><animate attributeName="stroke-dashoffset" from="13.799999999999999" to="0" dur="0.414s" begin="anim6.end" fill="freeze" id="anim7" /></path><path d="M 37.9 -38.9 L 27.2 -38.9 C 24.8 -38.9 23.6 -37.9 23.6 -35.9 L 23.6 -29.0 C 23.6 -26.9 24.8 -26.0 27.2 -26.0 L 37.9 -26.0 C 40.4 -26.0 41.5 -26.9 41.5 -29.0 L 41.5 -35.9 C 41.5 -37.9 40.4 -38.9 37.9 -38.9 Z " transform="translate(0.0 38.0)" stroke-dasharray="56.75785248884533" stroke-dashoffset="56.75785248884533"><animate attributeName="stroke-dashoffset" from="56.75785248884533" to="0" dur="1.7027355746653599s" begin="anim7.end" fill="freeze" id="anim8" /></path><path d="M 41.0 -32.5 L 24.1 -32.5" transform="translate(0.0 38.0)" stroke-dasharray="16.9" stroke-dashoffset="16.9"><animate attributeName="stroke-dashoffset" from="16.9" to="0" dur="0.5069999999999999s" begin="anim8.end" fill="freeze" id="anim_end" /></path></g></svg>