<?xml version='1.0' encoding='utf-8'?>
<svg viewBox="0.0 -6.0 50.0 50.0" version="1.1" xmlns="http://www.w3.org/2000/svg"><rect x="-1000" y="-1000" width="2000" height="2000" stroke="white" fill="white" /><g style="fill:none;stroke:#000000;stroke-width:1"><path d="M 16.2 -15.9 C 16.9 -15.8 17.6 -15.8 18.2 -15.8 C 20.1 -15.8 21.0 -16.5 21.0 -18.6 L 21.0 -34.5 C 21.0 -36.5 20.1 -37.1 18.1 -37.1 L 11.6 -37.1 C 9.6 -37.1 8.7 -36.5 8.7 -34.5 L 8.7 -30.5 C 8.7 -22.9 7.6 -18.9 5.1 -15.3 " transform="translate(0.0 38.0)" stroke-dasharray="58.0057163431895" stroke-dashoffset="58.0057163431895"><animate attributeName="stroke-dashoffset" from="58.0057163431895" to="0" dur="1.7401714902956849s" begin="0s" fill="freeze" /></path><path d="M 4.1 -1.1 C 9.4 -3.0 15.0 -6.5 19.0 -10.8 " transform="translate(0.0 38.0)" stroke-dasharray="17.93781965918643" stroke-dashoffset="17.93781965918643"><animate attributeName="stroke-dashoffset" from="17.93781965918643" to="0" dur="0.5381345897755929s" begin="1.7401714902956849s" fill="freeze" /></path><path d="M 18.1 2.0 L 36.0 2.0 C 38.2 2.0 39.1 1.4 39.1 -0.3 L 39.1 -2.5 C 39.1 -4.2 38.2 -4.8 36.0 -4.8 L 18.1 -4.8 C 15.9 -4.8 15.1 -4.2 15.1 -2.5 L 15.1 -0.3 C 15.1 1.4 15.9 2.0 18.1 2.0 Z " transform="translate(0.0 38.0)" stroke-dasharray="57.96076698847336" stroke-dashoffset="57.96076698847336"><animate attributeName="stroke-dashoffset" from="57.96076698847336" to="0" dur="1.7388230096542008s" begin="2.2783060800712778s" fill="freeze" /></path><path d="M 45.5 -11.2 L 4.5 -11.2 " transform="translate(0.0 38.0)" stroke-dasharray="41.0" stroke-dashoffset="41.0"><animate attributeName="stroke-dashoffset" from="41.0" to="0" dur="1.23s" begin="4.017129089725478s" fill="freeze" /></path><path d="M 14.6 -20.4 L 14.6 -26.9 " transform="translate(0.0 38.0)" stroke-dasharray="6.5" stroke-dashoffset="6.5"><animate attributeName="stroke-dashoffset" from="6.5" to="0" dur="0.195s" begin="5.247129089725478s" fill="freeze" /></path><path d="M 4.0 -26.4 C 10.4 -26.8 18.1 -27.3 23.6 -28.2 " transform="translate(0.0 38.0)" stroke-dasharray="19.689789318900583" stroke-dashoffset="19.689789318900583"><animate attributeName="stroke-dashoffset" from="19.689789318900583" to="0" dur="0.5906936795670175s" begin="5.442129089725478s" fill="freeze" /></path><path d="M 15.8 -31.1 C 15.1 -32.1 14.5 -32.6 13.7 -33.4 " transform="translate(0.0 38.0)" stroke-dasharray="3.120196556073002" stroke-dashoffset="3.120196556073002"><animate attributeName="stroke-dashoffset" from="3.120196556073002" to="0" dur="0.09360589668219005s" begin="6.032822769292496s" fill="freeze" /></path><path d="M 13.9 -37.1 C 14.6 -38.6 14.9 -39.5 15.2 -40.9 " transform="translate(0.0 38.0)" stroke-dasharray="4.026822235019442" stroke-dashoffset="4.026822235019442"><animate attributeName="stroke-dashoffset" from="4.026822235019442" to="0" dur="0.12080466705058326s" begin="6.126428665974686s" fill="freeze" /></path><path d="M 26.4 -15.6 C 31.7 -16.9 37.5 -20.2 40.9 -24.2 C 42.4 -25.9 41.8 -27.2 39.5 -27.2 L 28.1 -27.2 " transform="translate(0.0 38.0)" stroke-dasharray="33.2997207683412" stroke-dashoffset="33.2997207683412"><animate attributeName="stroke-dashoffset" from="33.2997207683412" to="0" dur="0.998991623050236s" begin="6.247233333025269s" fill="freeze" /></path><path d="M 46.0 -15.6 C 39.1 -17.2 33.5 -20.9 30.4 -26.9 " transform="translate(0.0 38.0)" stroke-dasharray="19.904620457054634" stroke-dashoffset="19.904620457054634"><animate attributeName="stroke-dashoffset" from="19.904620457054634" to="0" dur="0.597138613711639s" begin="7.246224956075505s" fill="freeze" /></path><path d="M 27.5 -30.5 C 29.6 -32.1 30.9 -34.5 30.9 -37.2 C 30.9 -38.9 31.5 -39.5 33.4 -39.5 L 36.3 -39.5 C 38.2 -39.5 38.9 -39.0 38.9 -37.5 L 38.9 -34.0 C 38.9 -32.4 39.5 -31.8 42.1 -31.8 C 45.0 -31.8 45.9 -32.6 46.1 -35.0" transform="translate(0.0 38.0)" stroke-dasharray="32.474111312953326" stroke-dashoffset="32.474111312953326"><animate attributeName="stroke-dashoffset" from="32.474111312953326" to="0" dur="0.9742233393885997s" begin="7.843363569787144s" fill="freeze" /></path></g></svg>