<?xml version='1.0' encoding='utf-8'?>
<svg viewBox="0.0 -6.0 50.0 50.0" version="1.1" xmlns="http://www.w3.org/2000/svg"><rect x="-1000" y="-1000" width="2000" height="2000" stroke="white" fill="white" /><g style="fill:none;stroke:#000000;stroke-width:1"><path d="M 25.2 2.4 L 25.2 -20.1 C 25.2 -22.1 26.2 -23.2 28.8 -23.2 L 45.4 -23.2 " transform="translate(0.0 38.0)" stroke-dasharray="44.572003543728556" stroke-dashoffset="44.572003543728556"><animate attributeName="stroke-dashoffset" from="44.572003543728556" to="0" dur="1.3371601063118566s" begin="0s; anim_end.end" fill="freeze" id="anim0" /></path><path d="M 10.2 -3.3 L 12.9 -3.3 C 14.8 -3.3 15.7 -4.0 15.7 -6.0 L 15.7 -20.2 C 15.7 -22.3 14.8 -23.0 12.9 -23.0 L 10.2 -23.0 C 8.4 -23.0 7.5 -22.1 7.5 -20.2 L 7.5 -6.0 C 7.5 -4.0 8.4 -3.3 10.2 -3.3 Z " transform="translate(0.0 38.0)" stroke-dasharray="51.83654935710438" stroke-dashoffset="51.83654935710438"><animate attributeName="stroke-dashoffset" from="51.83654935710438" to="0" dur="1.5550964807131313s" begin="anim0.end" fill="freeze" id="anim1" /></path><path d="M 3.0 -15.8 C 6.2 -20.9 8.9 -29.5 9.8 -36.5 " transform="translate(0.0 38.0)" stroke-dasharray="21.928378255608358" stroke-dashoffset="21.928378255608358"><animate attributeName="stroke-dashoffset" from="21.928378255608358" to="0" dur="0.6578513476682507s" begin="anim1.end" fill="freeze" id="anim2" /></path><path d="M 46.0 -0.7 L 25.1 -0.7 " transform="translate(0.0 38.0)" stroke-dasharray="20.9" stroke-dashoffset="20.9"><animate attributeName="stroke-dashoffset" from="20.9" to="0" dur="0.6269999999999999s" begin="anim2.end" fill="freeze" id="anim3" /></path><path d="M 43.4 -8.6 L 24.4 -8.6 " transform="translate(0.0 38.0)" stroke-dasharray="19.0" stroke-dashoffset="19.0"><animate attributeName="stroke-dashoffset" from="19.0" to="0" dur="0.57s" begin="anim3.end" fill="freeze" id="anim4" /></path><path d="M 35.0 -0.7 L 35.0 -22.9 " transform="translate(0.0 38.0)" stroke-dasharray="22.2" stroke-dashoffset="22.2"><animate attributeName="stroke-dashoffset" from="22.2" to="0" dur="0.6659999999999999s" begin="anim4.end" fill="freeze" id="anim5" /></path><path d="M 17.0 -37.0 L 3.3 -37.0 " transform="translate(0.0 38.0)" stroke-dasharray="13.7" stroke-dashoffset="13.7"><animate attributeName="stroke-dashoffset" from="13.7" to="0" dur="0.411s" begin="anim5.end" fill="freeze" id="anim6" /></path><path d="M 43.4 -15.8 L 24.4 -15.8 " transform="translate(0.0 38.0)" stroke-dasharray="19.0" stroke-dashoffset="19.0"><animate attributeName="stroke-dashoffset" from="19.0" to="0" dur="0.57s" begin="anim6.end" fill="freeze" id="anim7" /></path><path d="M 20.5 -17.5 C 25.8 -23.5 30.1 -32.1 32.1 -40.1 " transform="translate(0.0 38.0)" stroke-dasharray="25.626442895297682" stroke-dashoffset="25.626442895297682"><animate attributeName="stroke-dashoffset" from="25.626442895297682" to="0" dur="0.7687932868589304s" begin="anim7.end" fill="freeze" id="anim8" /></path><path d="M 34.4 -24.1 C 35.1 -25.8 35.8 -27.3 36.2 -28.9 " transform="translate(0.0 38.0)" stroke-dasharray="5.131623612988954" stroke-dashoffset="5.131623612988954"><animate attributeName="stroke-dashoffset" from="5.131623612988954" to="0" dur="0.15394870838966862s" begin="anim8.end" fill="freeze" id="anim9" /></path><path d="M 45.4 -28.9 L 45.4 -31.8 C 45.4 -33.7 44.5 -34.5 42.1 -34.5 L 24.4 -34.5 C 21.9 -34.5 21.1 -33.7 21.1 -31.9 L 21.1 -28.8" transform="translate(0.0 38.0)" stroke-dasharray="33.53514710628042" stroke-dashoffset="33.53514710628042"><animate attributeName="stroke-dashoffset" from="33.53514710628042" to="0" dur="1.0060544131884126s" begin="anim9.end" fill="freeze" id="anim_end" /></path></g></svg>