<?xml version='1.0' encoding='utf-8'?>
<svg viewBox="0.0 -6.0 50.0 50.0" version="1.1" xmlns="http://www.w3.org/2000/svg"><rect x="-1000" y="-1000" width="2000" height="2000" stroke="white" fill="white" /><g style="fill:none;stroke:#000000;stroke-width:1"><path d="M 20.7 1.8 C 30.1 -1.1 38.7 -8.3 42.8 -17.6 " transform="translate(0.0 38.0)" stroke-dasharray="30.288727095752257" stroke-dashoffset="30.288727095752257"><animate attributeName="stroke-dashoffset" from="30.288727095752257" to="0" dur="0.9086618128725676s" begin="0s" fill="freeze" /></path><path d="M 16.3 -15.4 L 6.0 -15.4 " transform="translate(0.0 38.0)" stroke-dasharray="10.3" stroke-dashoffset="10.3"><animate attributeName="stroke-dashoffset" from="10.3" to="0" dur="0.309s" begin="0.9086618128725676s" fill="freeze" /></path><path d="M 9.0 -1.8 L 12.4 -1.8 C 14.7 -1.8 15.6 -2.8 15.6 -5.2 L 15.6 -35.4 C 15.6 -37.8 14.7 -38.7 12.4 -38.7 L 9.0 -38.7 C 6.7 -38.7 5.8 -37.8 5.8 -35.4 L 5.8 -5.2 C 5.8 -2.8 6.7 -1.8 9.0 -1.8 Z " transform="translate(0.0 38.0)" stroke-dasharray="88.79190964706628" stroke-dashoffset="88.79190964706628"><animate attributeName="stroke-dashoffset" from="88.79190964706628" to="0" dur="2.663757289411988s" begin="1.2176618128725676s" fill="freeze" /></path><path d="M 16.3 -26.7 L 6.0 -26.7 " transform="translate(0.0 38.0)" stroke-dasharray="10.3" stroke-dashoffset="10.3"><animate attributeName="stroke-dashoffset" from="10.3" to="0" dur="0.309s" begin="3.8814191022845557s" fill="freeze" /></path><path d="M 21.1 -20.9 C 23.2 -23.4 25.1 -27.1 26.3 -30.4 " transform="translate(0.0 38.0)" stroke-dasharray="10.879506429175837" stroke-dashoffset="10.879506429175837"><animate attributeName="stroke-dashoffset" from="10.879506429175837" to="0" dur="0.3263851928752751s" begin="4.190419102284555s" fill="freeze" /></path><path d="M 27.8 -14.2 C 28.8 -14.1 29.6 -13.9 30.4 -13.9 C 32.2 -13.9 33.6 -14.8 33.6 -17.1 L 33.6 -39.9 " transform="translate(0.0 38.0)" stroke-dasharray="30.57746122821734" stroke-dashoffset="30.57746122821734"><animate attributeName="stroke-dashoffset" from="30.57746122821734" to="0" dur="0.9173238368465202s" begin="4.51680429515983s" fill="freeze" /></path><path d="M 46.2 -25.1 C 44.5 -27.4 42.4 -29.6 40.6 -31.1" transform="translate(0.0 38.0)" stroke-dasharray="8.225246249646936" stroke-dashoffset="8.225246249646936"><animate attributeName="stroke-dashoffset" from="8.225246249646936" to="0" dur="0.2467573874894081s" begin="5.43412813200635s" fill="freeze" /></path></g></svg>