<?xml version='1.0' encoding='utf-8'?>
<svg viewBox="0.0 -6.0 50.0 50.0" version="1.1" xmlns="http://www.w3.org/2000/svg"><rect x="-1000" y="-1000" width="2000" height="2000" stroke="white" fill="white" /><g style="fill:none;stroke:#000000;stroke-width:1"><path d="M 5.0 0.3 C 9.1 -5.7 11.2 -13.2 11.2 -23.6 L 11.2 -31.7 C 11.2 -34.1 12.4 -35.4 15.7 -35.4 L 46.1 -35.4 " transform="translate(0.0 38.0)" stroke-dasharray="70.29618134279183" stroke-dashoffset="70.29618134279183"><animate attributeName="stroke-dashoffset" from="70.29618134279183" to="0" dur="2.1088854402837547s" begin="0s" fill="freeze" /></path><path d="M 3.5 -13.4 C 5.8 -14.5 8.3 -15.8 10.8 -17.6 " transform="translate(0.0 38.0)" stroke-dasharray="8.433674930976027" stroke-dashoffset="8.433674930976027"><animate attributeName="stroke-dashoffset" from="8.433674930976027" to="0" dur="0.2530102479292808s" begin="2.1088854402837547s" fill="freeze" /></path><path d="M 7.2 -25.4 C 6.3 -26.6 5.2 -27.9 4.3 -28.8 " transform="translate(0.0 38.0)" stroke-dasharray="4.472077936494141" stroke-dashoffset="4.472077936494141"><animate attributeName="stroke-dashoffset" from="4.472077936494141" to="0" dur="0.13416233809482425s" begin="2.3618956882130355s" fill="freeze" /></path><path d="M 46.0 -7.1 L 15.7 -7.1 " transform="translate(0.0 38.0)" stroke-dasharray="30.3" stroke-dashoffset="30.3"><animate attributeName="stroke-dashoffset" from="30.3" to="0" dur="0.909s" begin="2.4960580263078596s" fill="freeze" /></path><path d="M 30.3 2.9 L 30.3 -23.6 " transform="translate(0.0 38.0)" stroke-dasharray="26.5" stroke-dashoffset="26.5"><animate attributeName="stroke-dashoffset" from="26.5" to="0" dur="0.7949999999999999s" begin="3.4050580263078594s" fill="freeze" /></path><path d="M 41.2 -15.4 L 19.6 -15.4 " transform="translate(0.0 38.0)" stroke-dasharray="21.6" stroke-dashoffset="21.6"><animate attributeName="stroke-dashoffset" from="21.6" to="0" dur="0.648s" begin="4.200058026307859s" fill="freeze" /></path><path d="M 25.6 -27.4 C 24.9 -28.4 24.1 -29.6 23.1 -30.6 " transform="translate(0.0 38.0)" stroke-dasharray="4.066543530525069" stroke-dashoffset="4.066543530525069"><animate attributeName="stroke-dashoffset" from="4.066543530525069" to="0" dur="0.12199630591575206s" begin="4.848058026307859s" fill="freeze" /></path><path d="M 44.0 -23.4 L 17.6 -23.4 " transform="translate(0.0 38.0)" stroke-dasharray="26.4" stroke-dashoffset="26.4"><animate attributeName="stroke-dashoffset" from="26.4" to="0" dur="0.7919999999999999s" begin="4.9700543322236115s" fill="freeze" /></path><path d="M 32.2 -22.9 C 34.0 -25.1 35.7 -28.0 37.0 -30.7 " transform="translate(0.0 38.0)" stroke-dasharray="9.178527143630108" stroke-dashoffset="9.178527143630108"><animate attributeName="stroke-dashoffset" from="9.178527143630108" to="0" dur="0.2753558143089032s" begin="5.762054332223611s" fill="freeze" /></path><path d="M 28.3 -35.6 L 28.3 -41.0" transform="translate(0.0 38.0)" stroke-dasharray="5.399999999999999" stroke-dashoffset="5.399999999999999"><animate attributeName="stroke-dashoffset" from="5.399999999999999" to="0" dur="0.16199999999999995s" begin="6.0374101465325145s" fill="freeze" /></path></g></svg>