<?xml version='1.0' encoding='utf-8'?>
<svg viewBox="0.0 -6.0 50.0 50.0" version="1.1" xmlns="http://www.w3.org/2000/svg"><rect x="-1000" y="-1000" width="2000" height="2000" stroke="white" fill="white" /><g style="fill:none;stroke:#000000;stroke-width:1"><path d="M 6.3 2.5 C 13.3 -0.6 18.9 -5.8 21.4 -11.0 C 22.2 -12.7 21.6 -13.8 19.4 -13.8 L 11.5 -13.8 " transform="translate(0.0 38.0)" stroke-dasharray="33.02781580315643" stroke-dashoffset="33.02781580315643"><animate attributeName="stroke-dashoffset" from="33.02781580315643" to="0" dur="0.9908344740946928s" begin="0s" fill="freeze" /></path><path d="M 16.1 -4.8 C 14.9 -6.0 13.8 -7.0 12.9 -7.7 " transform="translate(0.0 38.0)" stroke-dasharray="4.321125674784711" stroke-dashoffset="4.321125674784711"><animate attributeName="stroke-dashoffset" from="4.321125674784711" to="0" dur="0.12963377024354134s" begin="0.9908344740946928s" fill="freeze" /></path><path d="M 5.7 -7.5 C 8.9 -9.9 12.4 -13.8 14.5 -17.4 " transform="translate(0.0 38.0)" stroke-dasharray="13.322561429300892" stroke-dashoffset="13.322561429300892"><animate attributeName="stroke-dashoffset" from="13.322561429300892" to="0" dur="0.3996768428790268s" begin="1.120468244338234s" fill="freeze" /></path><path d="M 25.2 -2.3 C 26.3 -4.5 27.0 -6.7 27.5 -8.8 " transform="translate(0.0 38.0)" stroke-dasharray="6.9104222754067255" stroke-dashoffset="6.9104222754067255"><animate attributeName="stroke-dashoffset" from="6.9104222754067255" to="0" dur="0.20731266826220177s" begin="1.5201450872172608s" fill="freeze" /></path><path d="M 15.8 -23.8 C 15.2 -24.8 14.7 -25.4 14.1 -26.2 " transform="translate(0.0 38.0)" stroke-dasharray="2.942960783633006" stroke-dashoffset="2.942960783633006"><animate attributeName="stroke-dashoffset" from="2.942960783633006" to="0" dur="0.08828882350899017s" begin="1.7274577554794626s" fill="freeze" /></path><path d="M 45.1 -5.1 L 26.7 -5.1 " transform="translate(0.0 38.0)" stroke-dasharray="18.400000000000002" stroke-dashoffset="18.400000000000002"><animate attributeName="stroke-dashoffset" from="18.400000000000002" to="0" dur="0.552s" begin="1.8157465789884528s" fill="freeze" /></path><path d="M 36.2 2.6 L 36.2 -17.6 " transform="translate(0.0 38.0)" stroke-dasharray="20.200000000000003" stroke-dashoffset="20.200000000000003"><animate attributeName="stroke-dashoffset" from="20.200000000000003" to="0" dur="0.6060000000000001s" begin="2.367746578988453s" fill="freeze" /></path><path d="M 44.2 -17.2 L 44.2 -19.1 C 44.2 -21.0 43.4 -21.8 40.5 -21.8 L 9.5 -21.8 C 6.7 -21.8 5.8 -21.0 5.8 -19.1 L 5.8 -16.8 " transform="translate(0.0 38.0)" stroke-dasharray="45.855687478804306" stroke-dashoffset="45.855687478804306"><animate attributeName="stroke-dashoffset" from="45.855687478804306" to="0" dur="1.3756706243641292s" begin="2.973746578988453s" fill="freeze" /></path><path d="M 42.9 -13.2 L 26.9 -13.2 " transform="translate(0.0 38.0)" stroke-dasharray="16.0" stroke-dashoffset="16.0"><animate attributeName="stroke-dashoffset" from="16.0" to="0" dur="0.48s" begin="4.349417203352582s" fill="freeze" /></path><path d="M 25.1 -24.2 C 24.6 -25.1 24.2 -25.9 23.6 -26.7 " transform="translate(0.0 38.0)" stroke-dasharray="2.9182310072139814" stroke-dashoffset="2.9182310072139814"><animate attributeName="stroke-dashoffset" from="2.9182310072139814" to="0" dur="0.08754693021641943s" begin="4.829417203352582s" fill="freeze" /></path><path d="M 10.1 -29.5 C 19.6 -29.6 28.4 -30.2 37.2 -31.8 " transform="translate(0.0 38.0)" stroke-dasharray="27.23077229554166" stroke-dashoffset="27.23077229554166"><animate attributeName="stroke-dashoffset" from="27.23077229554166" to="0" dur="0.8169231688662497s" begin="4.916964133569001s" fill="freeze" /></path><path d="M 17.9 -34.0 L 17.9 -40.8 " transform="translate(0.0 38.0)" stroke-dasharray="6.799999999999997" stroke-dashoffset="6.799999999999997"><animate attributeName="stroke-dashoffset" from="6.799999999999997" to="0" dur="0.2039999999999999s" begin="5.733887302435251s" fill="freeze" /></path><path d="M 32.8 -22.4 C 34.1 -24.1 35.2 -25.9 36.1 -27.8 " transform="translate(0.0 38.0)" stroke-dasharray="6.340253801943068" stroke-dashoffset="6.340253801943068"><animate attributeName="stroke-dashoffset" from="6.340253801943068" to="0" dur="0.19020761405829203s" begin="5.937887302435251s" fill="freeze" /></path><path d="M 45.4 -37.1 L 4.5 -37.1 " transform="translate(0.0 38.0)" stroke-dasharray="40.9" stroke-dashoffset="40.9"><animate attributeName="stroke-dashoffset" from="40.9" to="0" dur="1.2269999999999999s" begin="6.128094916493543s" fill="freeze" /></path><path d="M 31.6 -34.5 L 31.6 -40.8" transform="translate(0.0 38.0)" stroke-dasharray="6.299999999999997" stroke-dashoffset="6.299999999999997"><animate attributeName="stroke-dashoffset" from="6.299999999999997" to="0" dur="0.18899999999999992s" begin="7.3550949164935435s" fill="freeze" /></path></g></svg>