<?xml version='1.0' encoding='utf-8'?>
<svg viewBox="0.0 -6.0 50.0 50.0" version="1.1" xmlns="http://www.w3.org/2000/svg"><rect x="-1000" y="-1000" width="2000" height="2000" stroke="white" fill="white" /><g style="fill:none;stroke:#000000;stroke-width:1"><path d="M 8.0 2.6 L 8.0 -25.0 C 8.0 -26.9 8.8 -27.8 11.4 -27.8 L 17.4 -27.8 C 19.6 -27.8 20.4 -27.0 20.4 -25.3 L 20.4 -21.4 C 20.4 -19.8 19.6 -18.9 17.4 -18.9 L 8.6 -18.9 " transform="translate(0.0 38.0)" stroke-dasharray="60.448014786493616" stroke-dashoffset="60.448014786493616"><animate attributeName="stroke-dashoffset" from="60.448014786493616" to="0" dur="1.8134404435948084s" begin="0s; anim_end.end" fill="freeze" id="anim0" /></path><path d="M 21.1 -4.1 L 8.2 -4.1 " transform="translate(0.0 38.0)" stroke-dasharray="12.900000000000002" stroke-dashoffset="12.900000000000002"><animate attributeName="stroke-dashoffset" from="12.900000000000002" to="0" dur="0.38700000000000007s" begin="anim0.end" fill="freeze" id="anim1" /></path><path d="M 20.9 -11.7 L 8.1 -11.7 " transform="translate(0.0 38.0)" stroke-dasharray="12.799999999999999" stroke-dashoffset="12.799999999999999"><animate attributeName="stroke-dashoffset" from="12.799999999999999" to="0" dur="0.38399999999999995s" begin="anim1.end" fill="freeze" id="anim2" /></path><path d="M 23.7 2.0 C 31.1 0.2 38.5 -4.5 41.7 -9.4 C 42.9 -11.2 42.3 -12.6 40.0 -12.6 L 26.6 -12.6 " transform="translate(0.0 38.0)" stroke-dasharray="40.04322004993976" stroke-dashoffset="40.04322004993976"><animate attributeName="stroke-dashoffset" from="40.04322004993976" to="0" dur="1.2012966014981927s" begin="anim2.end" fill="freeze" id="anim3" /></path><path d="M 45.5 1.4 C 38.1 -1.4 32.4 -5.8 29.4 -12.2 " transform="translate(0.0 38.0)" stroke-dasharray="21.62529676141138" stroke-dashoffset="21.62529676141138"><animate attributeName="stroke-dashoffset" from="21.62529676141138" to="0" dur="0.6487589028423414s" begin="anim3.end" fill="freeze" id="anim4" /></path><path d="M 17.8 -32.2 L 17.8 -40.5 " transform="translate(0.0 38.0)" stroke-dasharray="8.299999999999997" stroke-dashoffset="8.299999999999997"><animate attributeName="stroke-dashoffset" from="8.299999999999997" to="0" dur="0.24899999999999992s" begin="anim4.end" fill="freeze" id="anim5" /></path><path d="M 27.5 -19.2 L 38.9 -19.2 C 41.1 -19.2 42.0 -20.0 42.0 -21.6 L 42.0 -25.1 C 42.0 -26.8 41.1 -27.6 38.9 -27.6 L 27.5 -27.6 " transform="translate(0.0 38.0)" stroke-dasharray="35.39935841271385" stroke-dashoffset="35.39935841271385"><animate attributeName="stroke-dashoffset" from="35.39935841271385" to="0" dur="1.0619807523814155s" begin="anim5.end" fill="freeze" id="anim6" /></path><path d="M 45.9 -36.1 L 4.0 -36.1 " transform="translate(0.0 38.0)" stroke-dasharray="41.9" stroke-dashoffset="41.9"><animate attributeName="stroke-dashoffset" from="41.9" to="0" dur="1.257s" begin="anim6.end" fill="freeze" id="anim7" /></path><path d="M 31.8 -32.4 L 31.8 -40.5" transform="translate(0.0 38.0)" stroke-dasharray="8.100000000000001" stroke-dashoffset="8.100000000000001"><animate attributeName="stroke-dashoffset" from="8.100000000000001" to="0" dur="0.24300000000000002s" begin="anim7.end" fill="freeze" id="anim_end" /></path></g></svg>