<?xml version='1.0' encoding='utf-8'?>
<svg viewBox="0.0 -6.0 50.0 50.0" version="1.1" xmlns="http://www.w3.org/2000/svg"><rect x="-1000" y="-1000" width="2000" height="2000" stroke="white" fill="white" /><g style="fill:none;stroke:#000000;stroke-width:1"><path d="M 24.9 -35.1 L 24.9 -20.9 C 24.9 -18.6 26.1 -17.9 28.6 -17.9 L 40.1 -17.9 C 42.8 -17.9 43.9 -18.6 43.9 -20.9 L 43.9 -32.4 C 43.9 -34.6 42.9 -35.5 40.3 -35.5 L 36.3 -35.5 " transform="translate(0.0 38.0)" stroke-dasharray="57.913848592849504" stroke-dashoffset="57.913848592849504"><animate attributeName="stroke-dashoffset" from="57.913848592849504" to="0" dur="1.737415457785485s" begin="0s; anim_end.end" fill="freeze" id="anim0" /></path><path d="M 3.5 -2.9 C 8.2 -4.8 13.3 -8.4 16.9 -12.7 " transform="translate(0.0 38.0)" stroke-dasharray="16.755164156180992" stroke-dashoffset="16.755164156180992"><animate attributeName="stroke-dashoffset" from="16.755164156180992" to="0" dur="0.5026549246854297s" begin="anim0.end" fill="freeze" id="anim1" /></path><path d="M 4.1 -11.5 C 8.0 -13.3 11.8 -16.1 14.8 -19.4 " transform="translate(0.0 38.0)" stroke-dasharray="13.386500218319592" stroke-dashoffset="13.386500218319592"><animate attributeName="stroke-dashoffset" from="13.386500218319592" to="0" dur="0.40159500654958774s" begin="anim1.end" fill="freeze" id="anim2" /></path><path d="M 9.8 1.1 C 10.7 1.4 11.8 1.6 12.8 1.6 C 16.1 1.6 18.2 -0.8 18.2 -8.9 C 18.2 -13.9 16.4 -19.4 12.4 -24.1 " transform="translate(0.0 38.0)" stroke-dasharray="32.9243539542201" stroke-dashoffset="32.9243539542201"><animate attributeName="stroke-dashoffset" from="32.9243539542201" to="0" dur="0.987730618626603s" begin="anim2.end" fill="freeze" id="anim3" /></path><path d="M 20.8 2.0 C 26.8 -1.7 30.1 -8.2 30.5 -16.9 " transform="translate(0.0 38.0)" stroke-dasharray="22.154888076627888" stroke-dashoffset="22.154888076627888"><animate attributeName="stroke-dashoffset" from="22.154888076627888" to="0" dur="0.6646466422988366s" begin="anim3.end" fill="freeze" id="anim4" /></path><path d="M 7.6 -26.8 C 7.1 -27.8 6.1 -29.4 5.5 -30.1 " transform="translate(0.0 38.0)" stroke-dasharray="3.9179875226660204" stroke-dashoffset="3.9179875226660204"><animate attributeName="stroke-dashoffset" from="3.9179875226660204" to="0" dur="0.11753962567998061s" begin="anim4.end" fill="freeze" id="anim5" /></path><path d="M 4.0 -19.7 C 8.9 -21.9 15.7 -26.6 19.6 -31.4 " transform="translate(0.0 38.0)" stroke-dasharray="19.64600234694742" stroke-dashoffset="19.64600234694742"><animate attributeName="stroke-dashoffset" from="19.64600234694742" to="0" dur="0.5893800704084226s" begin="anim5.end" fill="freeze" id="anim6" /></path><path d="M 12.7 -30.4 C 12.3 -31.0 11.7 -32.0 11.1 -32.6 " transform="translate(0.0 38.0)" stroke-dasharray="2.7249003399615797" stroke-dashoffset="2.7249003399615797"><animate attributeName="stroke-dashoffset" from="2.7249003399615797" to="0" dur="0.08174701019884739s" begin="anim6.end" fill="freeze" id="anim7" /></path><path d="M 3.8 -34.4 C 7.7 -35.2 13.0 -37.1 16.5 -39.3 " transform="translate(0.0 38.0)" stroke-dasharray="13.673468613643763" stroke-dashoffset="13.673468613643763"><animate attributeName="stroke-dashoffset" from="13.673468613643763" to="0" dur="0.4102040584093129s" begin="anim7.end" fill="freeze" id="anim8" /></path><path d="M 46.6 -4.0 C 46.3 0.1 45.0 1.4 41.4 1.4 C 38.4 1.4 37.5 0.6 37.5 -1.4 L 37.5 -17.3 " transform="translate(0.0 38.0)" stroke-dasharray="30.14786396025101" stroke-dashoffset="30.14786396025101"><animate attributeName="stroke-dashoffset" from="30.14786396025101" to="0" dur="0.9044359188075303s" begin="anim8.end" fill="freeze" id="anim9" /></path><path d="M 31.4 -27.4 L 24.4 -27.4 " transform="translate(0.0 38.0)" stroke-dasharray="7.0" stroke-dashoffset="7.0"><animate attributeName="stroke-dashoffset" from="7.0" to="0" dur="0.21s" begin="anim9.end" fill="freeze" id="anim10" /></path><path d="M 44.0 -27.4 L 37.0 -27.4 " transform="translate(0.0 38.0)" stroke-dasharray="7.0" stroke-dashoffset="7.0"><animate attributeName="stroke-dashoffset" from="7.0" to="0" dur="0.21s" begin="anim10.end" fill="freeze" id="anim11" /></path><path d="M 25.2 -34.5 C 27.7 -35.8 30.0 -37.4 31.9 -39.1" transform="translate(0.0 38.0)" stroke-dasharray="8.14790155940647" stroke-dashoffset="8.14790155940647"><animate attributeName="stroke-dashoffset" from="8.14790155940647" to="0" dur="0.2444370467821941s" begin="anim11.end" fill="freeze" id="anim_end" /></path></g></svg>