<?xml version='1.0' encoding='utf-8'?>
<svg viewBox="0.0 -6.0 50.0 50.0" version="1.1" xmlns="http://www.w3.org/2000/svg"><rect x="-1000" y="-1000" width="2000" height="2000" stroke="white" fill="white" /><g style="fill:none;stroke:#000000;stroke-width:1"><path d="M 45.9 -18.1 C 38.2 -20.7 32.8 -26.1 30.1 -33.1 " transform="translate(0.0 38.0)" stroke-dasharray="22.52894441925457" stroke-dashoffset="22.52894441925457"><animate attributeName="stroke-dashoffset" from="22.52894441925457" to="0" dur="0.6758683325776371s" begin="0s; 15s; 30s; 45s" fill="freeze" id="anim0" /></path><path d="M 6.3 1.8 C 15.2 1.6 28.9 0.5 37.9 -0.9 " transform="translate(0.0 38.0)" stroke-dasharray="31.732952215529664" stroke-dashoffset="31.732952215529664"><animate attributeName="stroke-dashoffset" from="31.732952215529664" to="0" dur="0.9519885664658899s" begin="anim0.end" fill="freeze" id="anim1" /></path><path d="M 3.6 -16.2 C 8.1 -18.2 11.3 -21.9 12.8 -27.5 " transform="translate(0.0 38.0)" stroke-dasharray="15.101166447373814" stroke-dashoffset="15.101166447373814"><animate attributeName="stroke-dashoffset" from="15.101166447373814" to="0" dur="0.4530349934212144s" begin="anim1.end" fill="freeze" id="anim2" /></path><path d="M 24.9 1.1 L 24.9 -16.4 " transform="translate(0.0 38.0)" stroke-dasharray="17.5" stroke-dashoffset="17.5"><animate attributeName="stroke-dashoffset" from="17.5" to="0" dur="0.525s" begin="anim2.end" fill="freeze" id="anim3" /></path><path d="M 11.5 -10.4 L 11.5 -8.3 C 11.5 -6.8 12.2 -6.0 14.8 -6.0 L 35.5 -6.0 C 38.1 -6.0 38.9 -6.8 38.9 -8.3 L 38.9 -10.4 C 38.9 -12.1 38.1 -12.8 35.5 -12.8 L 14.8 -12.8 C 12.2 -12.8 11.5 -12.1 11.5 -10.4 Z " transform="translate(0.0 38.0)" stroke-dasharray="64.55791231361171" stroke-dashoffset="64.55791231361171"><animate attributeName="stroke-dashoffset" from="64.55791231361171" to="0" dur="1.9367373694083512s" begin="anim3.end" fill="freeze" id="anim4" /></path><path d="M 15.8 -17.4 C 16.4 -17.3 17.1 -17.2 17.8 -17.2 C 19.7 -17.2 20.6 -17.7 20.9 -19.1 C 21.1 -19.7 21.3 -20.4 21.4 -21.2 C 21.4 -22.4 20.9 -23.1 18.8 -23.1 L 11.3 -23.1 " transform="translate(0.0 38.0)" stroke-dasharray="19.431075602217888" stroke-dashoffset="19.431075602217888"><animate attributeName="stroke-dashoffset" from="19.431075602217888" to="0" dur="0.5829322680665366s" begin="anim4.end" fill="freeze" id="anim5" /></path><path d="M 42.5 2.1 C 40.3 -0.1 37.6 -2.1 35.4 -3.6 " transform="translate(0.0 38.0)" stroke-dasharray="9.11775721723664" stroke-dashoffset="9.11775721723664"><animate attributeName="stroke-dashoffset" from="9.11775721723664" to="0" dur="0.2735327165170992s" begin="anim5.end" fill="freeze" id="anim6" /></path><path d="M 23.6 -27.9 L 4.2 -27.9 " transform="translate(0.0 38.0)" stroke-dasharray="19.400000000000002" stroke-dashoffset="19.400000000000002"><animate attributeName="stroke-dashoffset" from="19.400000000000002" to="0" dur="0.5820000000000001s" begin="anim6.end" fill="freeze" id="anim7" /></path><path d="M 24.2 -32.8 L 3.8 -32.8 " transform="translate(0.0 38.0)" stroke-dasharray="20.4" stroke-dashoffset="20.4"><animate attributeName="stroke-dashoffset" from="20.4" to="0" dur="0.612s" begin="anim7.end" fill="freeze" id="anim8" /></path><path d="M 21.8 -37.6 L 6.5 -37.6 " transform="translate(0.0 38.0)" stroke-dasharray="15.3" stroke-dashoffset="15.3"><animate attributeName="stroke-dashoffset" from="15.3" to="0" dur="0.459s" begin="anim8.end" fill="freeze" id="anim9" /></path><path d="M 14.1 -32.5 L 14.1 -40.6 " transform="translate(0.0 38.0)" stroke-dasharray="8.100000000000001" stroke-dashoffset="8.100000000000001"><animate attributeName="stroke-dashoffset" from="8.100000000000001" to="0" dur="0.24300000000000002s" begin="anim9.end" fill="freeze" id="anim10" /></path><path d="M 27.5 -19.3 C 33.9 -21.8 39.1 -26.6 40.9 -34.0 " transform="translate(0.0 38.0)" stroke-dasharray="20.719349918626317" stroke-dashoffset="20.719349918626317"><animate attributeName="stroke-dashoffset" from="20.719349918626317" to="0" dur="0.6215804975587895s" begin="anim10.end" fill="freeze" id="anim11" /></path><path d="M 27.5 -29.5 C 29.6 -32.5 31.6 -36.6 32.7 -40.0 " transform="translate(0.0 38.0)" stroke-dasharray="11.755187729342452" stroke-dashoffset="11.755187729342452"><animate attributeName="stroke-dashoffset" from="11.755187729342452" to="0" dur="0.35265563188027355s" begin="anim11.end" fill="freeze" id="anim12" /></path><path d="M 45.1 -34.6 L 30.9 -34.6 " transform="translate(0.0 38.0)" stroke-dasharray="14.200000000000003" stroke-dashoffset="14.200000000000003"><animate attributeName="stroke-dashoffset" from="14.200000000000003" to="0" dur="0.42600000000000005s" begin="anim12.end" fill="freeze" id="anim13" /></path><path d="M 14.1 -31.8 L 14.1 -28.2" transform="translate(0.0 38.0)" stroke-dasharray="3.6000000000000014" stroke-dashoffset="3.6000000000000014"><animate attributeName="stroke-dashoffset" from="3.6000000000000014" to="0" dur="0.10800000000000004s" begin="anim13.end" fill="freeze" id="anim_end" /></path></g></svg>