<?xml version='1.0' encoding='utf-8'?>
<svg viewBox="0.0 -6.0 50.0 50.0" version="1.1" xmlns="http://www.w3.org/2000/svg"><rect x="-1000" y="-1000" width="2000" height="2000" stroke="white" fill="white" /><g style="fill:none;stroke:#000000;stroke-width:1"><path d="M 11.2 -8.8 L 18.8 -8.8 C 21.6 -8.8 22.4 -9.6 22.4 -11.8 L 22.4 -18.6 C 22.4 -20.6 21.6 -21.5 18.8 -21.5 L 11.3 -21.5 C 8.6 -21.5 7.7 -20.6 7.7 -18.6 L 7.7 -11.8 C 7.7 -9.6 8.4 -8.8 11.2 -8.8 Z " transform="translate(0.0 38.0)" stroke-dasharray="50.41857607977746" stroke-dashoffset="50.41857607977746"><animate attributeName="stroke-dashoffset" from="50.41857607977746" to="0" dur="1.5125572823933238s" begin="0s" fill="freeze" /></path><path d="M 4.6 2.0 C 5.7 0.1 6.6 -2.0 7.2 -4.1 " transform="translate(0.0 38.0)" stroke-dasharray="6.647455447037099" stroke-dashoffset="6.647455447037099"><animate attributeName="stroke-dashoffset" from="6.647455447037099" to="0" dur="0.19942366341111295s" begin="1.5125572823933238s" fill="freeze" /></path><path d="M 12.3 1.3 C 12.2 -0.6 12.1 -2.4 11.8 -3.9 " transform="translate(0.0 38.0)" stroke-dasharray="5.228423685467712" stroke-dashoffset="5.228423685467712"><animate attributeName="stroke-dashoffset" from="5.228423685467712" to="0" dur="0.15685271056403136s" begin="1.7119809458044366s" fill="freeze" /></path><path d="M 18.2 0.2 C 17.9 -1.4 17.4 -3.0 16.9 -4.3 " transform="translate(0.0 38.0)" stroke-dasharray="4.690206873963244" stroke-dashoffset="4.690206873963244"><animate attributeName="stroke-dashoffset" from="4.690206873963244" to="0" dur="0.14070620621889732s" begin="1.868833656368468s" fill="freeze" /></path><path d="M 24.0 -0.9 C 23.4 -2.4 22.8 -3.8 22.0 -5.0 " transform="translate(0.0 38.0)" stroke-dasharray="4.570130959775125" stroke-dashoffset="4.570130959775125"><animate attributeName="stroke-dashoffset" from="4.570130959775125" to="0" dur="0.13710392879325375s" begin="2.0095398625873653s" fill="freeze" /></path><path d="M 21.8 -15.2 L 8.1 -15.2 " transform="translate(0.0 38.0)" stroke-dasharray="13.700000000000001" stroke-dashoffset="13.700000000000001"><animate attributeName="stroke-dashoffset" from="13.700000000000001" to="0" dur="0.41100000000000003s" begin="2.146643791380619s" fill="freeze" /></path><path d="M 14.9 -9.1 L 14.9 -21.1 " transform="translate(0.0 38.0)" stroke-dasharray="12.000000000000002" stroke-dashoffset="12.000000000000002"><animate attributeName="stroke-dashoffset" from="12.000000000000002" to="0" dur="0.36000000000000004s" begin="2.557643791380619s" fill="freeze" /></path><path d="M 4.0 -21.6 C 6.6 -24.1 9.6 -27.9 11.6 -31.7 " transform="translate(0.0 38.0)" stroke-dasharray="12.688641761288988" stroke-dashoffset="12.688641761288988"><animate attributeName="stroke-dashoffset" from="12.688641761288988" to="0" dur="0.38065925283866964s" begin="2.917643791380619s" fill="freeze" /></path><path d="M 15.0 -22.2 C 15.7 -23.4 16.2 -24.4 16.7 -25.4 C 17.3 -26.9 16.7 -28.1 14.6 -28.1 L 9.4 -28.1 " transform="translate(0.0 38.0)" stroke-dasharray="13.112312033280869" stroke-dashoffset="13.112312033280869"><animate attributeName="stroke-dashoffset" from="13.112312033280869" to="0" dur="0.39336936099842607s" begin="3.2983030442192884s" fill="freeze" /></path><path d="M 27.1 -5.5 C 29.9 -8.6 32.4 -13.0 34.1 -17.6 " transform="translate(0.0 38.0)" stroke-dasharray="14.058166845910838" stroke-dashoffset="14.058166845910838"><animate attributeName="stroke-dashoffset" from="14.058166845910838" to="0" dur="0.4217450053773251s" begin="3.6916724052177146s" fill="freeze" /></path><path d="M 35.6 2.6 L 35.6 -28.5 " transform="translate(0.0 38.0)" stroke-dasharray="31.1" stroke-dashoffset="31.1"><animate attributeName="stroke-dashoffset" from="31.1" to="0" dur="0.933s" begin="4.11341741059504s" fill="freeze" /></path><path d="M 45.6 -5.1 C 42.2 -8.3 38.7 -13.4 36.8 -18.1 " transform="translate(0.0 38.0)" stroke-dasharray="15.80546191975959" stroke-dashoffset="15.80546191975959"><animate attributeName="stroke-dashoffset" from="15.80546191975959" to="0" dur="0.4741638575927877s" begin="5.04641741059504s" fill="freeze" /></path><path d="M 17.9 -33.1 L 17.9 -40.6 " transform="translate(0.0 38.0)" stroke-dasharray="7.5" stroke-dashoffset="7.5"><animate attributeName="stroke-dashoffset" from="7.5" to="0" dur="0.22499999999999998s" begin="5.5205812681878275s" fill="freeze" /></path><path d="M 44.7 -19.3 L 27.4 -19.3 " transform="translate(0.0 38.0)" stroke-dasharray="17.300000000000004" stroke-dashoffset="17.300000000000004"><animate attributeName="stroke-dashoffset" from="17.300000000000004" to="0" dur="0.5190000000000001s" begin="5.745581268187827s" fill="freeze" /></path><path d="M 45.9 -36.6 L 4.0 -36.6 " transform="translate(0.0 38.0)" stroke-dasharray="41.9" stroke-dashoffset="41.9"><animate attributeName="stroke-dashoffset" from="41.9" to="0" dur="1.257s" begin="6.264581268187827s" fill="freeze" /></path><path d="M 28.5 -27.4 C 33.0 -27.9 38.2 -29.0 42.3 -30.4 " transform="translate(0.0 38.0)" stroke-dasharray="14.147684821349763" stroke-dashoffset="14.147684821349763"><animate attributeName="stroke-dashoffset" from="14.147684821349763" to="0" dur="0.4244305446404929s" begin="7.521581268187827s" fill="freeze" /></path><path d="M 31.7 -33.2 L 31.7 -40.6" transform="translate(0.0 38.0)" stroke-dasharray="7.399999999999999" stroke-dashoffset="7.399999999999999"><animate attributeName="stroke-dashoffset" from="7.399999999999999" to="0" dur="0.22199999999999995s" begin="7.94601181282832s" fill="freeze" /></path></g></svg>