<?xml version='1.0' encoding='utf-8'?>
<svg viewBox="0.0 -6.0 50.0 50.0" version="1.1" xmlns="http://www.w3.org/2000/svg"><rect x="-1000" y="-1000" width="2000" height="2000" stroke="white" fill="white" /><g style="fill:none;stroke:#000000;stroke-width:1"><path d="M 19.7 2.0 C 26.6 -1.0 30.8 -6.7 31.8 -15.0 " transform="translate(0.0 38.0)" stroke-dasharray="21.9389868951761" stroke-dashoffset="21.9389868951761"><animate attributeName="stroke-dashoffset" from="21.9389868951761" to="0" dur="0.658169606855283s" begin="0s; anim_end.end" fill="freeze" id="anim0" /></path><path d="M 15.3 -1.9 L 15.3 -7.7 C 15.3 -9.7 14.5 -10.6 12.2 -10.6 L 8.4 -10.6 C 6.2 -10.6 5.3 -9.7 5.3 -7.7 L 5.3 -1.9 C 5.3 0.1 6.2 1.1 8.4 1.1 L 12.2 1.1 C 14.5 1.1 15.3 0.1 15.3 -1.9 Z " transform="translate(0.0 38.0)" stroke-dasharray="39.0521301716851" stroke-dashoffset="39.0521301716851"><animate attributeName="stroke-dashoffset" from="39.0521301716851" to="0" dur="1.1715639051505529s" begin="anim0.end" fill="freeze" id="anim1" /></path><path d="M 15.0 -17.5 L 5.5 -17.5 " transform="translate(0.0 38.0)" stroke-dasharray="9.5" stroke-dashoffset="9.5"><animate attributeName="stroke-dashoffset" from="9.5" to="0" dur="0.285s" begin="anim1.end" fill="freeze" id="anim2" /></path><path d="M 15.0 -24.2 L 5.5 -24.2 " transform="translate(0.0 38.0)" stroke-dasharray="9.5" stroke-dashoffset="9.5"><animate attributeName="stroke-dashoffset" from="9.5" to="0" dur="0.285s" begin="anim2.end" fill="freeze" id="anim3" /></path><path d="M 34.0 0.8 C 35.0 1.1 36.0 1.2 36.9 1.2 C 39.2 1.2 40.4 0.6 41.1 -1.6 C 41.7 -3.1 42.0 -4.7 42.0 -6.5 C 42.2 -8.2 41.3 -9.2 39.0 -9.2 L 31.1 -9.2 " transform="translate(0.0 38.0)" stroke-dasharray="26.134761636022805" stroke-dashoffset="26.134761636022805"><animate attributeName="stroke-dashoffset" from="26.134761636022805" to="0" dur="0.7840428490806841s" begin="anim3.end" fill="freeze" id="anim4" /></path><path d="M 17.2 -31.3 L 2.9 -31.3 " transform="translate(0.0 38.0)" stroke-dasharray="14.299999999999999" stroke-dashoffset="14.299999999999999"><animate attributeName="stroke-dashoffset" from="14.299999999999999" to="0" dur="0.42899999999999994s" begin="anim4.end" fill="freeze" id="anim5" /></path><path d="M 15.0 -38.1 L 5.5 -38.1 " transform="translate(0.0 38.0)" stroke-dasharray="9.5" stroke-dashoffset="9.5"><animate attributeName="stroke-dashoffset" from="9.5" to="0" dur="0.285s" begin="anim5.end" fill="freeze" id="anim6" /></path><path d="M 46.0 -15.9 L 21.0 -15.9 " transform="translate(0.0 38.0)" stroke-dasharray="25.0" stroke-dashoffset="25.0"><animate attributeName="stroke-dashoffset" from="25.0" to="0" dur="0.75s" begin="anim6.end" fill="freeze" id="anim7" /></path><path d="M 33.0 -15.8 L 33.0 -20.9 " transform="translate(0.0 38.0)" stroke-dasharray="5.099999999999998" stroke-dashoffset="5.099999999999998"><animate attributeName="stroke-dashoffset" from="5.099999999999998" to="0" dur="0.15299999999999994s" begin="anim7.end" fill="freeze" id="anim8" /></path><path d="M 46.1 -20.9 L 46.1 -23.3 C 46.1 -24.9 45.4 -25.9 42.8 -25.9 L 24.4 -25.9 C 22.0 -25.9 21.2 -24.9 21.2 -23.3 L 21.2 -20.6 " transform="translate(0.0 38.0)" stroke-dasharray="33.0974385988115" stroke-dashoffset="33.0974385988115"><animate attributeName="stroke-dashoffset" from="33.0974385988115" to="0" dur="0.9929231579643449s" begin="anim8.end" fill="freeze" id="anim9" /></path><path d="M 29.1 -29.6 C 28.6 -30.5 28.1 -31.2 27.4 -32.0 " transform="translate(0.0 38.0)" stroke-dasharray="2.9471627974073122" stroke-dashoffset="2.9471627974073122"><animate attributeName="stroke-dashoffset" from="2.9471627974073122" to="0" dur="0.08841488392221937s" begin="anim9.end" fill="freeze" id="anim10" /></path><path d="M 36.0 -26.5 C 37.0 -28.0 37.9 -29.8 38.7 -31.8 " transform="translate(0.0 38.0)" stroke-dasharray="5.958560000381133" stroke-dashoffset="5.958560000381133"><animate attributeName="stroke-dashoffset" from="5.958560000381133" to="0" dur="0.17875680001143399s" begin="anim10.end" fill="freeze" id="anim11" /></path><path d="M 45.0 -35.9 L 22.5 -35.9 " transform="translate(0.0 38.0)" stroke-dasharray="22.5" stroke-dashoffset="22.5"><animate attributeName="stroke-dashoffset" from="22.5" to="0" dur="0.6749999999999999s" begin="anim11.end" fill="freeze" id="anim12" /></path><path d="M 33.2 -35.8 L 33.2 -40.5" transform="translate(0.0 38.0)" stroke-dasharray="4.700000000000003" stroke-dashoffset="4.700000000000003"><animate attributeName="stroke-dashoffset" from="4.700000000000003" to="0" dur="0.14100000000000007s" begin="anim12.end" fill="freeze" id="anim_end" /></path></g></svg>