<?xml version='1.0' encoding='utf-8'?>
<svg viewBox="0.0 -6.0 50.0 50.0" version="1.1" xmlns="http://www.w3.org/2000/svg"><rect x="-1000" y="-1000" width="2000" height="2000" stroke="white" fill="white" /><g style="fill:none;stroke:#000000;stroke-width:1"><path d="M 29.6 -19.1 C 30.6 -18.9 31.7 -18.8 32.7 -18.8 C 34.7 -18.8 35.8 -19.5 36.5 -21.4 C 37.1 -22.9 37.5 -24.5 37.6 -26.1 C 37.8 -27.7 37.0 -28.6 34.8 -28.6 L 9.8 -28.6 " transform="translate(0.0 38.0)" stroke-dasharray="42.40086696573241" stroke-dashoffset="42.40086696573241"><animate attributeName="stroke-dashoffset" from="42.40086696573241" to="0" dur="1.2720260089719724s" begin="0s; 15s; 30s; 45s" fill="freeze" id="anim0" /></path><path d="M 4.2 1.9 C 8.8 -1.1 11.9 -6.5 12.6 -12.7 " transform="translate(0.0 38.0)" stroke-dasharray="17.392847785294627" stroke-dashoffset="17.392847785294627"><animate attributeName="stroke-dashoffset" from="17.392847785294627" to="0" dur="0.5217854335588388s" begin="anim0.end" fill="freeze" id="anim1" /></path><path d="M 13.9 1.0 C 14.8 1.2 15.7 1.3 16.8 1.3 C 18.9 1.3 20.1 0.5 20.8 -2.1 C 21.4 -4.3 21.9 -7.3 22.0 -10.1 C 22.1 -12.2 21.2 -12.9 18.6 -12.9 L 4.7 -12.9 " transform="translate(0.0 38.0)" stroke-dasharray="35.92772132692194" stroke-dashoffset="35.92772132692194"><animate attributeName="stroke-dashoffset" from="35.92772132692194" to="0" dur="1.0778316398076582s" begin="anim1.end" fill="freeze" id="anim2" /></path><path d="M 26.1 1.9 C 30.8 -1.1 34.0 -6.5 34.5 -12.7 " transform="translate(0.0 38.0)" stroke-dasharray="17.449965317610296" stroke-dashoffset="17.449965317610296"><animate attributeName="stroke-dashoffset" from="17.449965317610296" to="0" dur="0.5234989595283088s" begin="anim2.end" fill="freeze" id="anim3" /></path><path d="M 8.9 -17.0 C 16.0 -19.0 20.8 -22.6 23.2 -28.8 " transform="translate(0.0 38.0)" stroke-dasharray="19.29819698819612" stroke-dashoffset="19.29819698819612"><animate attributeName="stroke-dashoffset" from="19.29819698819612" to="0" dur="0.5789459096458837s" begin="anim3.end" fill="freeze" id="anim4" /></path><path d="M 36.0 1.0 C 36.9 1.2 37.8 1.3 38.9 1.3 C 41.0 1.3 42.3 0.5 43.0 -2.1 C 43.5 -4.3 44.0 -7.3 44.1 -10.1 C 44.2 -12.2 43.3 -12.9 40.8 -12.9 L 27.6 -12.9 " transform="translate(0.0 38.0)" stroke-dasharray="35.19115696128936" stroke-dashoffset="35.19115696128936"><animate attributeName="stroke-dashoffset" from="35.19115696128936" to="0" dur="1.0557347088386808s" begin="anim4.end" fill="freeze" id="anim5" /></path><path d="M 17.9 -33.1 L 17.9 -40.6 " transform="translate(0.0 38.0)" stroke-dasharray="7.5" stroke-dashoffset="7.5"><animate attributeName="stroke-dashoffset" from="7.5" to="0" dur="0.22499999999999998s" begin="anim5.end" fill="freeze" id="anim6" /></path><path d="M 45.4 -36.6 L 4.5 -36.6 " transform="translate(0.0 38.0)" stroke-dasharray="40.9" stroke-dashoffset="40.9"><animate attributeName="stroke-dashoffset" from="40.9" to="0" dur="1.2269999999999999s" begin="anim6.end" fill="freeze" id="anim7" /></path><path d="M 31.7 -33.2 L 31.7 -40.6" transform="translate(0.0 38.0)" stroke-dasharray="7.399999999999999" stroke-dashoffset="7.399999999999999"><animate attributeName="stroke-dashoffset" from="7.399999999999999" to="0" dur="0.22199999999999995s" begin="anim7.end" fill="freeze" id="anim_end" /></path></g></svg>