<?xml version='1.0' encoding='utf-8'?>
<svg viewBox="0.0 -6.0 50.0 50.0" version="1.1" xmlns="http://www.w3.org/2000/svg"><rect x="-1000" y="-1000" width="2000" height="2000" stroke="white" fill="white" /><g style="fill:none;stroke:#000000;stroke-width:1"><path d="M 4.1 -0.1 C 7.1 -5.8 8.8 -13.2 8.8 -23.4 L 8.8 -28.1 C 8.8 -30.7 9.9 -31.9 13.1 -31.9 L 39.6 -31.9 C 42.2 -31.9 43.0 -31.0 43.0 -29.1 L 43.0 -26.9 " transform="translate(0.0 38.0)" stroke-dasharray="69.20084797873807" stroke-dashoffset="69.20084797873807"><animate attributeName="stroke-dashoffset" from="69.20084797873807" to="0" dur="2.076025439362142s" begin="0s" fill="freeze" /></path><path d="M 40.7 1.2 L 20.3 1.2 C 17.2 1.2 16.3 0.3 16.3 -1.9 L 16.3 -9.4 C 16.3 -11.6 17.2 -12.4 20.3 -12.4 L 40.2 -12.4 " transform="translate(0.0 38.0)" stroke-dasharray="59.56400296689862" stroke-dashoffset="59.56400296689862"><animate attributeName="stroke-dashoffset" from="59.56400296689862" to="0" dur="1.7869200890069585s" begin="2.076025439362142s" fill="freeze" /></path><path d="M 43.5 -5.7 L 16.5 -5.7 " transform="translate(0.0 38.0)" stroke-dasharray="27.0" stroke-dashoffset="27.0"><animate attributeName="stroke-dashoffset" from="27.0" to="0" dur="0.8099999999999999s" begin="3.8629455283691003s" fill="freeze" /></path><path d="M 14.5 -23.5 L 35.0 -25.3 " transform="translate(0.0 38.0)" stroke-dasharray="20.57887266105702" stroke-dashoffset="20.57887266105702"><animate attributeName="stroke-dashoffset" from="20.57887266105702" to="0" dur="0.6173661798317106s" begin="4.6729455283691s" fill="freeze" /></path><path d="M 39.9 -22.4 C 39.3 -19.1 37.9 -18.2 30.3 -18.2 C 23.2 -18.2 22.4 -18.8 22.4 -21.0 L 22.4 -28.1 " transform="translate(0.0 38.0)" stroke-dasharray="28.249328394871988" stroke-dashoffset="28.249328394871988"><animate attributeName="stroke-dashoffset" from="28.249328394871988" to="0" dur="0.8474798518461596s" begin="5.290311708200811s" fill="freeze" /></path><path d="M 24.9 -31.8 L 24.9 -41.2 " transform="translate(0.0 38.0)" stroke-dasharray="9.400000000000002" stroke-dashoffset="9.400000000000002"><animate attributeName="stroke-dashoffset" from="9.400000000000002" to="0" dur="0.28200000000000003s" begin="6.137791560046971s" fill="freeze" /></path><path d="M 39.3 -37.6 L 25.2 -37.6" transform="translate(0.0 38.0)" stroke-dasharray="14.099999999999998" stroke-dashoffset="14.099999999999998"><animate attributeName="stroke-dashoffset" from="14.099999999999998" to="0" dur="0.42299999999999993s" begin="6.419791560046971s" fill="freeze" /></path></g></svg>