<?xml version='1.0' encoding='utf-8'?>
<svg viewBox="0.0 -6.0 50.0 50.0" version="1.1" xmlns="http://www.w3.org/2000/svg"><rect x="-1000" y="-1000" width="2000" height="2000" stroke="white" fill="white" /><g style="fill:none;stroke:#000000;stroke-width:1"><path d="M 15.4 -11.2 L 34.9 -11.2 C 37.9 -11.2 38.9 -12.2 38.9 -14.2 L 38.9 -21.3 C 38.9 -23.4 37.9 -24.3 34.9 -24.3 L 15.4 -24.3 C 12.3 -24.3 11.3 -23.4 11.3 -21.3 L 11.3 -14.2 C 11.3 -12.2 12.3 -11.2 15.4 -11.2 Z " transform="translate(0.0 38.0)" stroke-dasharray="76.53757470802678" stroke-dashoffset="76.53757470802678"><animate attributeName="stroke-dashoffset" from="76.53757470802678" to="0" dur="2.296127241240803s" begin="0s; anim_end.end" fill="freeze" id="anim0" /></path><path d="M 45.7 -4.7 L 4.4 -4.7 " transform="translate(0.0 38.0)" stroke-dasharray="41.300000000000004" stroke-dashoffset="41.300000000000004"><animate attributeName="stroke-dashoffset" from="41.300000000000004" to="0" dur="1.239s" begin="anim0.end" fill="freeze" id="anim1" /></path><path d="M 24.9 3.0 L 24.9 -34.3 " transform="translate(0.0 38.0)" stroke-dasharray="37.3" stroke-dashoffset="37.3"><animate attributeName="stroke-dashoffset" from="37.3" to="0" dur="1.1189999999999998s" begin="anim1.end" fill="freeze" id="anim2" /></path><path d="M 38.5 -17.9 L 12.4 -17.9 " transform="translate(0.0 38.0)" stroke-dasharray="26.1" stroke-dashoffset="26.1"><animate attributeName="stroke-dashoffset" from="26.1" to="0" dur="0.783s" begin="anim2.end" fill="freeze" id="anim3" /></path><path d="M 38.2 -30.6 L 11.9 -30.6 " transform="translate(0.0 38.0)" stroke-dasharray="26.300000000000004" stroke-dashoffset="26.300000000000004"><animate attributeName="stroke-dashoffset" from="26.300000000000004" to="0" dur="0.7890000000000001s" begin="anim3.end" fill="freeze" id="anim4" /></path><path d="M 44.0 -31.9 L 44.0 -35.6 C 44.0 -37.5 43.0 -38.4 40.5 -38.4 L 9.7 -38.4 C 7.1 -38.4 6.2 -37.5 6.2 -35.6 L 6.2 -31.5" transform="translate(0.0 38.0)" stroke-dasharray="48.9633432906344" stroke-dashoffset="48.9633432906344"><animate attributeName="stroke-dashoffset" from="48.9633432906344" to="0" dur="1.4689002987190318s" begin="anim4.end" fill="freeze" id="anim_end" /></path></g></svg>