<?xml version='1.0' encoding='utf-8'?>
<svg viewBox="0.0 -6.0 50.0 50.0" version="1.1" xmlns="http://www.w3.org/2000/svg"><rect x="-1000" y="-1000" width="2000" height="2000" stroke="white" fill="white" /><g style="fill:none;stroke:#000000;stroke-width:1"><path d="M 13.0 1.1 L 37.2 1.1 C 41.1 1.1 42.4 -0.2 42.4 -3.2 L 42.4 -25.4 C 42.4 -28.5 41.1 -29.8 37.2 -29.8 L 13.0 -29.8 C 9.1 -29.8 7.8 -28.5 7.8 -25.4 L 7.8 -3.2 C 7.8 -0.2 9.1 1.1 13.0 1.1 Z " transform="translate(0.0 38.0)" stroke-dasharray="124.40015238994539" stroke-dashoffset="124.40015238994539"><animate attributeName="stroke-dashoffset" from="124.40015238994539" to="0" dur="3.7320045716983614s" begin="0s; 15s; 30s; 45s" fill="freeze" id="anim0" /></path><path d="M 13.3 -3.6 C 17.4 -5.3 21.7 -8.1 24.1 -10.8 " transform="translate(0.0 38.0)" stroke-dasharray="13.074906688059361" stroke-dashoffset="13.074906688059361"><animate attributeName="stroke-dashoffset" from="13.074906688059361" to="0" dur="0.3922472006417808s" begin="anim0.end" fill="freeze" id="anim1" /></path><path d="M 24.9 -2.4 L 24.9 -10.8 " transform="translate(0.0 38.0)" stroke-dasharray="8.4" stroke-dashoffset="8.4"><animate attributeName="stroke-dashoffset" from="8.4" to="0" dur="0.252s" begin="anim1.end" fill="freeze" id="anim2" /></path><path d="M 35.9 -3.5 C 32.5 -5.4 29.0 -7.0 25.1 -8.2 " transform="translate(0.0 38.0)" stroke-dasharray="11.800848276355024" stroke-dashoffset="11.800848276355024"><animate attributeName="stroke-dashoffset" from="11.800848276355024" to="0" dur="0.35402544829065075s" begin="anim2.end" fill="freeze" id="anim3" /></path><path d="M 19.3 -11.3 L 31.1 -11.3 C 32.6 -11.3 33.3 -11.8 33.3 -13.1 L 33.3 -14.7 C 33.3 -16.1 32.6 -16.4 31.1 -16.4 L 19.3 -16.4 C 17.7 -16.4 17.0 -16.1 17.0 -14.7 L 17.0 -13.1 C 17.0 -11.8 17.7 -11.3 19.3 -11.3 Z " transform="translate(0.0 38.0)" stroke-dasharray="40.073653419961566" stroke-dashoffset="40.073653419961566"><animate attributeName="stroke-dashoffset" from="40.073653419961566" to="0" dur="1.202209602598847s" begin="anim3.end" fill="freeze" id="anim4" /></path><path d="M 30.9 -6.2 C 32.9 -7.3 34.7 -8.7 36.0 -9.8 " transform="translate(0.0 38.0)" stroke-dasharray="6.252787739748682" stroke-dashoffset="6.252787739748682"><animate attributeName="stroke-dashoffset" from="6.252787739748682" to="0" dur="0.18758363219246046s" begin="anim4.end" fill="freeze" id="anim5" /></path><path d="M 37.3 -20.6 L 12.8 -20.6 " transform="translate(0.0 38.0)" stroke-dasharray="24.499999999999996" stroke-dashoffset="24.499999999999996"><animate attributeName="stroke-dashoffset" from="24.499999999999996" to="0" dur="0.7349999999999999s" begin="anim5.end" fill="freeze" id="anim6" /></path><path d="M 34.2 -25.0 L 15.8 -25.0 " transform="translate(0.0 38.0)" stroke-dasharray="18.400000000000002" stroke-dashoffset="18.400000000000002"><animate attributeName="stroke-dashoffset" from="18.400000000000002" to="0" dur="0.552s" begin="anim6.end" fill="freeze" id="anim7" /></path><path d="M 24.9 -20.6 L 24.9 -28.9 " transform="translate(0.0 38.0)" stroke-dasharray="8.299999999999997" stroke-dashoffset="8.299999999999997"><animate attributeName="stroke-dashoffset" from="8.299999999999997" to="0" dur="0.24899999999999992s" begin="anim7.end" fill="freeze" id="anim8" /></path><path d="M 17.9 -33.4 L 17.9 -40.6 " transform="translate(0.0 38.0)" stroke-dasharray="7.200000000000003" stroke-dashoffset="7.200000000000003"><animate attributeName="stroke-dashoffset" from="7.200000000000003" to="0" dur="0.21600000000000008s" begin="anim8.end" fill="freeze" id="anim9" /></path><path d="M 45.9 -36.6 L 4.0 -36.6 " transform="translate(0.0 38.0)" stroke-dasharray="41.9" stroke-dashoffset="41.9"><animate attributeName="stroke-dashoffset" from="41.9" to="0" dur="1.257s" begin="anim9.end" fill="freeze" id="anim10" /></path><path d="M 31.7 -33.4 L 31.7 -40.6" transform="translate(0.0 38.0)" stroke-dasharray="7.200000000000003" stroke-dashoffset="7.200000000000003"><animate attributeName="stroke-dashoffset" from="7.200000000000003" to="0" dur="0.21600000000000008s" begin="anim10.end" fill="freeze" id="anim_end" /></path></g></svg>