<?xml version='1.0' encoding='utf-8'?>
<svg viewBox="0.0 -6.0 50.0 50.0" version="1.1" xmlns="http://www.w3.org/2000/svg"><rect x="-1000" y="-1000" width="2000" height="2000" stroke="white" fill="white" /><g style="fill:none;stroke:#000000;stroke-width:1"><path d="M 10.1 1.1 C 10.8 1.3 11.5 1.4 12.2 1.4 C 14.2 1.4 15.2 0.5 15.2 -1.8 L 15.2 -35.4 C 15.2 -37.8 14.3 -38.5 12.1 -38.5 L 9.7 -38.5 C 7.3 -38.5 6.6 -37.8 6.6 -35.4 L 6.6 -23.1 C 6.6 -10.6 5.5 -3.9 3.6 1.1 " transform="translate(0.0 38.0)" stroke-dasharray="90.35855689374826" stroke-dashoffset="90.35855689374826"><animate attributeName="stroke-dashoffset" from="90.35855689374826" to="0" dur="2.7107567068124476s" begin="0s" fill="freeze" /></path><path d="M 14.8 -14.9 L 6.1 -14.9 " transform="translate(0.0 38.0)" stroke-dasharray="8.700000000000001" stroke-dashoffset="8.700000000000001"><animate attributeName="stroke-dashoffset" from="8.700000000000001" to="0" dur="0.261s" begin="2.7107567068124476s" fill="freeze" /></path><path d="M 14.8 -26.6 L 6.3 -26.6 " transform="translate(0.0 38.0)" stroke-dasharray="8.5" stroke-dashoffset="8.5"><animate attributeName="stroke-dashoffset" from="8.5" to="0" dur="0.255s" begin="2.9717567068124477s" fill="freeze" /></path><path d="M 23.9 1.1 L 37.5 1.1 C 40.2 1.1 41.4 0.2 41.4 -1.9 L 41.4 -11.1 C 41.4 -13.1 40.2 -13.9 37.5 -13.9 L 24.1 -13.9 " transform="translate(0.0 38.0)" stroke-dasharray="47.391016354700426" stroke-dashoffset="47.391016354700426"><animate attributeName="stroke-dashoffset" from="47.391016354700426" to="0" dur="1.4217304906410126s" begin="3.2267567068124476s" fill="freeze" /></path><path d="M 46.5 -6.8 L 20.0 -6.8 " transform="translate(0.0 38.0)" stroke-dasharray="26.5" stroke-dashoffset="26.5"><animate attributeName="stroke-dashoffset" from="26.5" to="0" dur="0.7949999999999999s" begin="4.64848719745346s" fill="freeze" /></path><path d="M 28.2 -20.9 L 23.1 -20.9 " transform="translate(0.0 38.0)" stroke-dasharray="5.099999999999998" stroke-dashoffset="5.099999999999998"><animate attributeName="stroke-dashoffset" from="5.099999999999998" to="0" dur="0.15299999999999994s" begin="5.44348719745346s" fill="freeze" /></path><path d="M 28.2 -26.4 L 24.8 -26.4 " transform="translate(0.0 38.0)" stroke-dasharray="3.3999999999999986" stroke-dashoffset="3.3999999999999986"><animate attributeName="stroke-dashoffset" from="3.3999999999999986" to="0" dur="0.10199999999999995s" begin="5.59648719745346s" fill="freeze" /></path><path d="M 32.8 -18.6 L 32.8 -38.4 " transform="translate(0.0 38.0)" stroke-dasharray="19.799999999999997" stroke-dashoffset="19.799999999999997"><animate attributeName="stroke-dashoffset" from="19.799999999999997" to="0" dur="0.5939999999999999s" begin="5.69848719745346s" fill="freeze" /></path><path d="M 42.9 -20.9 L 37.2 -20.9 " transform="translate(0.0 38.0)" stroke-dasharray="5.699999999999996" stroke-dashoffset="5.699999999999996"><animate attributeName="stroke-dashoffset" from="5.699999999999996" to="0" dur="0.17099999999999987s" begin="6.292487197453459s" fill="freeze" /></path><path d="M 45.4 -27.4 L 45.4 -29.9 C 45.4 -31.4 44.5 -32.4 42.1 -32.4 L 23.9 -32.4 C 21.5 -32.4 20.6 -31.4 20.6 -29.9 L 20.6 -27.2 " transform="translate(0.0 38.0)" stroke-dasharray="32.84583182003993" stroke-dashoffset="32.84583182003993"><animate attributeName="stroke-dashoffset" from="32.84583182003993" to="0" dur="0.985374954601198s" begin="6.46348719745346s" fill="freeze" /></path><path d="M 41.2 -26.4 L 37.2 -26.4 " transform="translate(0.0 38.0)" stroke-dasharray="4.0" stroke-dashoffset="4.0"><animate attributeName="stroke-dashoffset" from="4.0" to="0" dur="0.12s" begin="7.448862152054658s" fill="freeze" /></path><path d="M 43.7 -38.5 L 22.6 -38.5" transform="translate(0.0 38.0)" stroke-dasharray="21.1" stroke-dashoffset="21.1"><animate attributeName="stroke-dashoffset" from="21.1" to="0" dur="0.633s" begin="7.568862152054658s" fill="freeze" /></path></g></svg>