<?xml version='1.0' encoding='utf-8'?>
<svg viewBox="0.0 -6.0 50.0 50.0" version="1.1" xmlns="http://www.w3.org/2000/svg"><rect x="-1000" y="-1000" width="2000" height="2000" stroke="white" fill="white" /><g style="fill:none;stroke:#000000;stroke-width:1"><path d="M 41.5 0.6 L 41.5 -34.1 C 41.5 -36.9 40.3 -37.8 37.2 -37.8 L 31.2 -37.8 C 28.2 -37.8 27.0 -36.9 27.0 -34.1 L 27.0 0.7 " transform="translate(0.0 38.0)" stroke-dasharray="88.6905753487917" stroke-dashoffset="88.6905753487917"><animate attributeName="stroke-dashoffset" from="88.6905753487917" to="0" dur="2.660717260463751s" begin="0s" fill="freeze" /></path><path d="M 4.2 -2.8 C 8.9 -3.6 14.2 -5.1 19.5 -7.2 " transform="translate(0.0 38.0)" stroke-dasharray="15.94803389370764" stroke-dashoffset="15.94803389370764"><animate attributeName="stroke-dashoffset" from="15.94803389370764" to="0" dur="0.4784410168112292s" begin="2.660717260463751s" fill="freeze" /></path><path d="M 20.6 -4.5 C 19.9 -6.7 18.6 -9.3 17.6 -10.9 " transform="translate(0.0 38.0)" stroke-dasharray="7.083743802286356" stroke-dashoffset="7.083743802286356"><animate attributeName="stroke-dashoffset" from="7.083743802286356" to="0" dur="0.21251231406859067s" begin="3.13915827727498s" fill="freeze" /></path><path d="M 47.0 0.6 L 19.6 0.6 " transform="translate(0.0 38.0)" stroke-dasharray="27.4" stroke-dashoffset="27.4"><animate attributeName="stroke-dashoffset" from="27.4" to="0" dur="0.822s" begin="3.3516705913435705s" fill="freeze" /></path><path d="M 11.9 -4.3 L 11.9 -40.1 " transform="translate(0.0 38.0)" stroke-dasharray="35.800000000000004" stroke-dashoffset="35.800000000000004"><animate attributeName="stroke-dashoffset" from="35.800000000000004" to="0" dur="1.074s" begin="4.17367059134357s" fill="freeze" /></path><path d="M 8.8 -16.9 L 15.2 -16.9 C 17.6 -16.9 18.6 -17.8 18.6 -20.1 L 18.6 -28.4 C 18.6 -30.8 17.6 -31.7 15.2 -31.7 L 8.8 -31.7 C 6.3 -31.7 5.5 -30.8 5.5 -28.4 L 5.5 -20.1 C 5.5 -17.8 6.3 -16.9 8.8 -16.9 Z " transform="translate(0.0 38.0)" stroke-dasharray="51.220181331990446" stroke-dashoffset="51.220181331990446"><animate attributeName="stroke-dashoffset" from="51.220181331990446" to="0" dur="1.5366054399597133s" begin="5.24767059134357s" fill="freeze" /></path><path d="M 41.1 -12.6 L 27.1 -12.6 " transform="translate(0.0 38.0)" stroke-dasharray="14.0" stroke-dashoffset="14.0"><animate attributeName="stroke-dashoffset" from="14.0" to="0" dur="0.42s" begin="6.784276031303284s" fill="freeze" /></path><path d="M 41.1 -25.2 L 27.1 -25.2" transform="translate(0.0 38.0)" stroke-dasharray="14.0" stroke-dashoffset="14.0"><animate attributeName="stroke-dashoffset" from="14.0" to="0" dur="0.42s" begin="7.204276031303284s" fill="freeze" /></path></g></svg>