<?xml version='1.0' encoding='utf-8'?>
<svg viewBox="0.0 -6.0 50.0 50.0" version="1.1" xmlns="http://www.w3.org/2000/svg"><rect x="-1000" y="-1000" width="2000" height="2000" stroke="white" fill="white" /><g style="fill:none;stroke:#000000;stroke-width:1"><path d="M 37.8 2.2 C 38.4 2.4 39.0 2.5 39.6 2.5 C 41.5 2.5 42.4 1.7 42.4 -0.4 L 42.4 -15.1 C 42.4 -17.2 41.2 -18.1 38.8 -18.1 L 27.3 -18.1 C 24.8 -18.1 23.6 -17.3 23.6 -15.2 L 23.6 2.9 " transform="translate(0.0 38.0)" stroke-dasharray="61.623472648586684" stroke-dashoffset="61.623472648586684"><animate attributeName="stroke-dashoffset" from="61.623472648586684" to="0" dur="1.8487041794576005s" begin="0s" fill="freeze" /></path><path d="M 8.2 1.1 L 11.9 1.1 C 14.1 1.1 14.9 0.2 14.9 -1.8 L 14.9 -7.7 C 14.9 -9.7 14.1 -10.6 11.9 -10.6 L 8.2 -10.6 C 6.0 -10.6 5.2 -9.7 5.2 -7.7 L 5.2 -1.8 C 5.2 0.2 6.0 1.1 8.2 1.1 Z " transform="translate(0.0 38.0)" stroke-dasharray="38.61344136732697" stroke-dashoffset="38.61344136732697"><animate attributeName="stroke-dashoffset" from="38.61344136732697" to="0" dur="1.158403241019809s" begin="1.8487041794576005s" fill="freeze" /></path><path d="M 14.7 -17.5 L 5.3 -17.5 " transform="translate(0.0 38.0)" stroke-dasharray="9.399999999999999" stroke-dashoffset="9.399999999999999"><animate attributeName="stroke-dashoffset" from="9.399999999999999" to="0" dur="0.282s" begin="3.0071074204774098s" fill="freeze" /></path><path d="M 14.7 -24.4 L 5.3 -24.4 " transform="translate(0.0 38.0)" stroke-dasharray="9.399999999999999" stroke-dashoffset="9.399999999999999"><animate attributeName="stroke-dashoffset" from="9.399999999999999" to="0" dur="0.282s" begin="3.28910742047741s" fill="freeze" /></path><path d="M 47.4 -5.8 L 19.2 -5.8 " transform="translate(0.0 38.0)" stroke-dasharray="28.2" stroke-dashoffset="28.2"><animate attributeName="stroke-dashoffset" from="28.2" to="0" dur="0.846s" begin="3.57110742047741s" fill="freeze" /></path><path d="M 16.5 -31.4 L 2.8 -31.4 " transform="translate(0.0 38.0)" stroke-dasharray="13.7" stroke-dashoffset="13.7"><animate attributeName="stroke-dashoffset" from="13.7" to="0" dur="0.411s" begin="4.41710742047741s" fill="freeze" /></path><path d="M 42.2 -11.9 L 23.8 -11.9 " transform="translate(0.0 38.0)" stroke-dasharray="18.400000000000002" stroke-dashoffset="18.400000000000002"><animate attributeName="stroke-dashoffset" from="18.400000000000002" to="0" dur="0.552s" begin="4.8281074204774095s" fill="freeze" /></path><path d="M 32.8 -6.0 L 32.8 -23.4 " transform="translate(0.0 38.0)" stroke-dasharray="17.4" stroke-dashoffset="17.4"><animate attributeName="stroke-dashoffset" from="17.4" to="0" dur="0.5219999999999999s" begin="5.38010742047741s" fill="freeze" /></path><path d="M 14.7 -38.2 L 5.3 -38.2 " transform="translate(0.0 38.0)" stroke-dasharray="9.399999999999999" stroke-dashoffset="9.399999999999999"><animate attributeName="stroke-dashoffset" from="9.399999999999999" to="0" dur="0.282s" begin="5.90210742047741s" fill="freeze" /></path><path d="M 46.9 -23.7 L 19.8 -23.7 " transform="translate(0.0 38.0)" stroke-dasharray="27.099999999999998" stroke-dashoffset="27.099999999999998"><animate attributeName="stroke-dashoffset" from="27.099999999999998" to="0" dur="0.813s" begin="6.18410742047741s" fill="freeze" /></path><path d="M 28.2 -23.7 L 28.2 -40.4 " transform="translate(0.0 38.0)" stroke-dasharray="16.7" stroke-dashoffset="16.7"><animate attributeName="stroke-dashoffset" from="16.7" to="0" dur="0.501s" begin="6.99710742047741s" fill="freeze" /></path><path d="M 43.3 -29.6 L 22.6 -29.6 " transform="translate(0.0 38.0)" stroke-dasharray="20.699999999999996" stroke-dashoffset="20.699999999999996"><animate attributeName="stroke-dashoffset" from="20.699999999999996" to="0" dur="0.6209999999999999s" begin="7.49810742047741s" fill="freeze" /></path><path d="M 45.3 -35.5 L 21.1 -35.5 " transform="translate(0.0 38.0)" stroke-dasharray="24.199999999999996" stroke-dashoffset="24.199999999999996"><animate attributeName="stroke-dashoffset" from="24.199999999999996" to="0" dur="0.7259999999999999s" begin="8.11910742047741s" fill="freeze" /></path><path d="M 37.4 -23.7 L 37.4 -40.4" transform="translate(0.0 38.0)" stroke-dasharray="16.7" stroke-dashoffset="16.7"><animate attributeName="stroke-dashoffset" from="16.7" to="0" dur="0.501s" begin="8.84510742047741s" fill="freeze" /></path></g></svg>