<?xml version='1.0' encoding='utf-8'?>
<svg viewBox="0.0 -6.0 50.0 50.0" version="1.1" xmlns="http://www.w3.org/2000/svg"><rect x="-1000" y="-1000" width="2000" height="2000" stroke="white" fill="white" /><g style="fill:none;stroke:#000000;stroke-width:1"><path d="M 24.1 -13.2 L 10.2 -13.2 C 7.8 -13.2 7.2 -13.9 7.2 -15.8 L 7.2 -26.8 C 7.2 -28.6 7.8 -29.4 10.2 -29.4 L 24.0 -29.4 " transform="translate(0.0 38.0)" stroke-dasharray="48.04754591969581" stroke-dashoffset="48.04754591969581"><animate attributeName="stroke-dashoffset" from="48.04754591969581" to="0" dur="1.4414263775908742s" begin="0s; anim_end.end" fill="freeze" id="anim0" /></path><path d="M 19.9 0.8 L 19.9 -7.8 " transform="translate(0.0 38.0)" stroke-dasharray="8.6" stroke-dashoffset="8.6"><animate attributeName="stroke-dashoffset" from="8.6" to="0" dur="0.258s" begin="anim0.end" fill="freeze" id="anim1" /></path><path d="M 45.8 1.2 L 4.2 1.2 " transform="translate(0.0 38.0)" stroke-dasharray="41.599999999999994" stroke-dashoffset="41.599999999999994"><animate attributeName="stroke-dashoffset" from="41.599999999999994" to="0" dur="1.2479999999999998s" begin="anim1.end" fill="freeze" id="anim2" /></path><path d="M 40.0 1.3 L 40.0 -4.8 C 40.0 -6.7 39.2 -7.7 36.5 -7.7 L 13.7 -7.7 C 11.0 -7.7 10.2 -6.7 10.2 -4.8 L 10.2 1.1 " transform="translate(0.0 38.0)" stroke-dasharray="45.355245094690666" stroke-dashoffset="45.355245094690666"><animate attributeName="stroke-dashoffset" from="45.355245094690666" to="0" dur="1.36065735284072s" begin="anim2.end" fill="freeze" id="anim3" /></path><path d="M 29.9 0.8 L 29.9 -7.8 " transform="translate(0.0 38.0)" stroke-dasharray="8.6" stroke-dashoffset="8.6"><animate attributeName="stroke-dashoffset" from="8.6" to="0" dur="0.258s" begin="anim3.end" fill="freeze" id="anim4" /></path><path d="M 7.2 -18.6 L 20.2 -18.6 C 21.8 -18.6 22.4 -19.2 22.4 -20.4 L 22.4 -22.3 C 22.4 -23.4 21.8 -24.0 20.2 -24.0 L 7.2 -24.0 " transform="translate(0.0 38.0)" stroke-dasharray="34.37727611525469" stroke-dashoffset="34.37727611525469"><animate attributeName="stroke-dashoffset" from="34.37727611525469" to="0" dur="1.0313182834576406s" begin="anim4.end" fill="freeze" id="anim5" /></path><path d="M 15.4 -24.1 L 15.4 -29.1 " transform="translate(0.0 38.0)" stroke-dasharray="5.0" stroke-dashoffset="5.0"><animate attributeName="stroke-dashoffset" from="5.0" to="0" dur="0.15s" begin="anim5.end" fill="freeze" id="anim6" /></path><path d="M 41.9 -15.9 L 31.2 -15.9 " transform="translate(0.0 38.0)" stroke-dasharray="10.7" stroke-dashoffset="10.7"><animate attributeName="stroke-dashoffset" from="10.7" to="0" dur="0.32099999999999995s" begin="anim6.end" fill="freeze" id="anim7" /></path><path d="M 27.6 -19.9 C 29.9 -22.6 31.9 -26.1 33.1 -29.4 " transform="translate(0.0 38.0)" stroke-dasharray="11.031735892017242" stroke-dashoffset="11.031735892017242"><animate attributeName="stroke-dashoffset" from="11.031735892017242" to="0" dur="0.33095207676051724s" begin="anim7.end" fill="freeze" id="anim8" /></path><path d="M 17.9 -33.1 L 17.9 -40.6 " transform="translate(0.0 38.0)" stroke-dasharray="7.5" stroke-dashoffset="7.5"><animate attributeName="stroke-dashoffset" from="7.5" to="0" dur="0.22499999999999998s" begin="anim8.end" fill="freeze" id="anim9" /></path><path d="M 45.6 -36.6 L 4.2 -36.6 " transform="translate(0.0 38.0)" stroke-dasharray="41.4" stroke-dashoffset="41.4"><animate attributeName="stroke-dashoffset" from="41.4" to="0" dur="1.242s" begin="anim9.end" fill="freeze" id="anim10" /></path><path d="M 45.0 -24.1 L 30.4 -24.1 " transform="translate(0.0 38.0)" stroke-dasharray="14.600000000000001" stroke-dashoffset="14.600000000000001"><animate attributeName="stroke-dashoffset" from="14.600000000000001" to="0" dur="0.438s" begin="anim10.end" fill="freeze" id="anim11" /></path><path d="M 31.7 -33.4 L 31.7 -40.6 " transform="translate(0.0 38.0)" stroke-dasharray="7.200000000000003" stroke-dashoffset="7.200000000000003"><animate attributeName="stroke-dashoffset" from="7.200000000000003" to="0" dur="0.21600000000000008s" begin="anim11.end" fill="freeze" id="anim12" /></path><path d="M 15.4 -13.9 L 15.4 -18.1" transform="translate(0.0 38.0)" stroke-dasharray="4.200000000000001" stroke-dashoffset="4.200000000000001"><animate attributeName="stroke-dashoffset" from="4.200000000000001" to="0" dur="0.12600000000000003s" begin="anim12.end" fill="freeze" id="anim_end" /></path></g></svg>