<?xml version='1.0' encoding='utf-8'?>
<svg viewBox="0.0 -6.0 50.0 50.0" version="1.1" xmlns="http://www.w3.org/2000/svg"><rect x="-1000" y="-1000" width="2000" height="2000" stroke="white" fill="white" /><g style="fill:none;stroke:#000000;stroke-width:1"><path d="M 9.7 -10.2 L 13.8 -10.2 C 16.2 -10.2 17.2 -11.0 17.2 -13.4 L 17.2 -34.6 C 17.2 -37.0 16.2 -38.0 13.8 -38.0 L 9.7 -38.0 C 7.3 -38.0 6.3 -37.0 6.3 -34.6 L 6.3 -13.4 C 6.3 -11.0 7.3 -10.2 9.7 -10.2 Z " transform="translate(0.0 38.0)" stroke-dasharray="72.68062641527935" stroke-dashoffset="72.68062641527935"><animate attributeName="stroke-dashoffset" from="72.68062641527935" to="0" dur="2.18041879245838s" begin="0s" fill="freeze" /></path><path d="M 4.0 1.4 C 5.6 -0.6 7.2 -3.0 8.3 -5.0 " transform="translate(0.0 38.0)" stroke-dasharray="7.71897561344807" stroke-dashoffset="7.71897561344807"><animate attributeName="stroke-dashoffset" from="7.71897561344807" to="0" dur="0.23156926840344208s" begin="2.18041879245838s" fill="freeze" /></path><path d="M 18.1 -0.6 C 17.3 -2.2 16.1 -4.2 14.9 -5.6 " transform="translate(0.0 38.0)" stroke-dasharray="5.949429128309495" stroke-dashoffset="5.949429128309495"><animate attributeName="stroke-dashoffset" from="5.949429128309495" to="0" dur="0.17848287384928485s" begin="2.4119880608618223s" fill="freeze" /></path><path d="M 16.6 -19.7 L 6.3 -19.7 " transform="translate(0.0 38.0)" stroke-dasharray="10.3" stroke-dashoffset="10.3"><animate attributeName="stroke-dashoffset" from="10.3" to="0" dur="0.309s" begin="2.590470934711107s" fill="freeze" /></path><path d="M 16.6 -28.9 L 6.3 -28.9 " transform="translate(0.0 38.0)" stroke-dasharray="10.3" stroke-dashoffset="10.3"><animate attributeName="stroke-dashoffset" from="10.3" to="0" dur="0.309s" begin="2.899470934711107s" fill="freeze" /></path><path d="M 28.9 0.8 L 39.6 0.8 C 42.3 0.8 43.5 -0.2 43.5 -2.5 L 43.5 -12.1 C 43.5 -14.3 42.4 -15.5 39.7 -15.5 L 28.9 -15.5 C 26.2 -15.5 25.1 -14.3 25.1 -12.1 L 25.1 -2.5 C 25.1 -0.2 26.3 0.8 28.9 0.8 Z " transform="translate(0.0 38.0)" stroke-dasharray="64.1460577344368" stroke-dashoffset="64.1460577344368"><animate attributeName="stroke-dashoffset" from="64.1460577344368" to="0" dur="1.9243817320331038s" begin="3.2084709347111073s" fill="freeze" /></path><path d="M 33.8 -15.3 L 33.8 -39.8 " transform="translate(0.0 38.0)" stroke-dasharray="24.499999999999996" stroke-dashoffset="24.499999999999996"><animate attributeName="stroke-dashoffset" from="24.499999999999996" to="0" dur="0.7349999999999999s" begin="5.132852666744212s" fill="freeze" /></path><path d="M 46.5 -28.8 L 33.8 -28.8" transform="translate(0.0 38.0)" stroke-dasharray="12.700000000000003" stroke-dashoffset="12.700000000000003"><animate attributeName="stroke-dashoffset" from="12.700000000000003" to="0" dur="0.38100000000000006s" begin="5.867852666744211s" fill="freeze" /></path></g></svg>