<?xml version='1.0' encoding='utf-8'?>
<svg viewBox="0.0 -6.0 50.0 50.0" version="1.1" xmlns="http://www.w3.org/2000/svg"><rect x="-1000" y="-1000" width="2000" height="2000" stroke="white" fill="white" /><g style="fill:none;stroke:#000000;stroke-width:1"><path d="M 10.3 0.6 C 11.0 0.7 11.7 0.8 12.5 0.8 C 14.6 0.8 15.6 -0.2 15.6 -2.6 L 15.6 -34.8 C 15.6 -37.2 14.8 -38.0 12.3 -38.0 L 9.5 -38.0 C 7.0 -38.0 6.2 -37.2 6.2 -34.8 L 6.2 -23.7 C 6.2 -11.2 5.3 -4.7 3.5 0.5 " transform="translate(0.0 38.0)" stroke-dasharray="88.918333305686" stroke-dashoffset="88.918333305686"><animate attributeName="stroke-dashoffset" from="88.918333305686" to="0" dur="2.66754999917058s" begin="0s; anim_end.end" fill="freeze" id="anim0" /></path><path d="M 15.2 -15.2 L 5.9 -15.2 " transform="translate(0.0 38.0)" stroke-dasharray="9.299999999999999" stroke-dashoffset="9.299999999999999"><animate attributeName="stroke-dashoffset" from="9.299999999999999" to="0" dur="0.27899999999999997s" begin="anim0.end" fill="freeze" id="anim1" /></path><path d="M 25.0 -0.1 C 31.2 -0.7 36.8 -1.4 42.9 -2.8 " transform="translate(0.0 38.0)" stroke-dasharray="18.116011520606524" stroke-dashoffset="18.116011520606524"><animate attributeName="stroke-dashoffset" from="18.116011520606524" to="0" dur="0.5434803456181957s" begin="anim1.end" fill="freeze" id="anim2" /></path><path d="M 15.2 -26.7 L 5.9 -26.7 " transform="translate(0.0 38.0)" stroke-dasharray="9.299999999999999" stroke-dashoffset="9.299999999999999"><animate attributeName="stroke-dashoffset" from="9.299999999999999" to="0" dur="0.27899999999999997s" begin="anim2.end" fill="freeze" id="anim3" /></path><path d="M 28.9 -0.5 C 32.1 -6.9 34.6 -14.7 36.1 -21.9 " transform="translate(0.0 38.0)" stroke-dasharray="22.637707001693652" stroke-dashoffset="22.637707001693652"><animate attributeName="stroke-dashoffset" from="22.637707001693652" to="0" dur="0.6791312100508096s" begin="anim3.end" fill="freeze" id="anim4" /></path><path d="M 44.6 0.2 C 43.5 -2.8 41.6 -6.2 39.7 -8.9 " transform="translate(0.0 38.0)" stroke-dasharray="10.362144298223361" stroke-dashoffset="10.362144298223361"><animate attributeName="stroke-dashoffset" from="10.362144298223361" to="0" dur="0.31086432894670085s" begin="anim4.end" fill="freeze" id="anim5" /></path><path d="M 20.4 -5.1 C 26.1 -13.9 29.8 -26.9 30.7 -39.5 " transform="translate(0.0 38.0)" stroke-dasharray="36.25584363842345" stroke-dashoffset="36.25584363842345"><animate attributeName="stroke-dashoffset" from="36.25584363842345" to="0" dur="1.0876753091527034s" begin="anim5.end" fill="freeze" id="anim6" /></path><path d="M 45.4 -30.6 L 21.3 -30.6" transform="translate(0.0 38.0)" stroke-dasharray="24.099999999999998" stroke-dashoffset="24.099999999999998"><animate attributeName="stroke-dashoffset" from="24.099999999999998" to="0" dur="0.7229999999999999s" begin="anim6.end" fill="freeze" id="anim_end" /></path></g></svg>