<?xml version='1.0' encoding='utf-8'?>
<svg viewBox="0.0 -6.0 50.0 50.0" version="1.1" xmlns="http://www.w3.org/2000/svg"><rect x="-1000" y="-1000" width="2000" height="2000" stroke="white" fill="white" /><g style="fill:none;stroke:#000000;stroke-width:1"><path d="M 37.6 1.2 C 38.7 1.4 39.6 1.6 40.9 1.6 C 43.4 1.6 44.6 0.5 44.6 -1.9 L 44.6 -34.4 C 44.6 -37.0 43.5 -38.2 40.5 -38.2 L 27.6 -38.2 C 24.6 -38.2 23.4 -37.0 23.4 -34.4 L 23.4 -20.2 C 23.4 -9.9 22.1 -3.4 19.4 1.6 " transform="translate(0.0 38.0)" stroke-dasharray="104.24070571660556" stroke-dashoffset="104.24070571660556"><animate attributeName="stroke-dashoffset" from="104.24070571660556" to="0" dur="3.127221171498167s" begin="0s; anim_end.end" fill="freeze" id="anim0" /></path><path d="M 3.3 -1.6 C 7.7 -2.7 12.8 -4.4 17.4 -6.5 " transform="translate(0.0 38.0)" stroke-dasharray="14.94689960077402" stroke-dashoffset="14.94689960077402"><animate attributeName="stroke-dashoffset" from="14.94689960077402" to="0" dur="0.44840698802322054s" begin="anim0.end" fill="freeze" id="anim1" /></path><path d="M 18.4 -4.2 C 17.8 -6.5 16.6 -9.3 15.8 -10.9 " transform="translate(0.0 38.0)" stroke-dasharray="7.197663511739208" stroke-dashoffset="7.197663511739208"><animate attributeName="stroke-dashoffset" from="7.197663511739208" to="0" dur="0.21592990535217624s" begin="anim1.end" fill="freeze" id="anim2" /></path><path d="M 10.7 -3.8 L 10.7 -40.0 " transform="translate(0.0 38.0)" stroke-dasharray="36.2" stroke-dashoffset="36.2"><animate attributeName="stroke-dashoffset" from="36.2" to="0" dur="1.086s" begin="anim2.end" fill="freeze" id="anim3" /></path><path d="M 7.8 -16.0 L 13.7 -16.0 C 15.8 -16.0 16.7 -16.9 16.7 -19.1 L 16.7 -28.2 C 16.7 -30.4 15.8 -31.4 13.7 -31.4 L 7.8 -31.4 C 5.6 -31.4 4.7 -30.4 4.7 -28.2 L 4.7 -19.1 C 4.7 -16.9 5.6 -16.0 7.8 -16.0 Z " transform="translate(0.0 38.0)" stroke-dasharray="50.340019215985585" stroke-dashoffset="50.340019215985585"><animate attributeName="stroke-dashoffset" from="50.340019215985585" to="0" dur="1.5102005764795674s" begin="anim3.end" fill="freeze" id="anim4" /></path><path d="M 32.2 -5.5 L 35.6 -5.5 C 37.5 -5.5 38.3 -6.3 38.3 -8.0 L 38.3 -12.1 C 38.3 -13.7 37.5 -14.6 35.6 -14.6 L 32.2 -14.6 C 30.3 -14.6 29.5 -13.7 29.5 -12.1 L 29.5 -8.0 C 29.5 -6.3 30.3 -5.5 32.2 -5.5 Z " transform="translate(0.0 38.0)" stroke-dasharray="31.963572112462128" stroke-dashoffset="31.963572112462128"><animate attributeName="stroke-dashoffset" from="31.963572112462128" to="0" dur="0.9589071633738638s" begin="anim4.end" fill="freeze" id="anim5" /></path><path d="M 39.9 -23.0 L 28.2 -23.0 " transform="translate(0.0 38.0)" stroke-dasharray="11.7" stroke-dashoffset="11.7"><animate attributeName="stroke-dashoffset" from="11.7" to="0" dur="0.351s" begin="anim5.end" fill="freeze" id="anim6" /></path><path d="M 33.9 -19.1 L 33.9 -33.7 " transform="translate(0.0 38.0)" stroke-dasharray="14.600000000000001" stroke-dashoffset="14.600000000000001"><animate attributeName="stroke-dashoffset" from="14.600000000000001" to="0" dur="0.438s" begin="anim6.end" fill="freeze" id="anim7" /></path><path d="M 39.1 -29.6 L 29.1 -29.6" transform="translate(0.0 38.0)" stroke-dasharray="10.0" stroke-dashoffset="10.0"><animate attributeName="stroke-dashoffset" from="10.0" to="0" dur="0.3s" begin="anim7.end" fill="freeze" id="anim_end" /></path></g></svg>