<?xml version='1.0' encoding='utf-8'?>
<svg viewBox="0.0 -6.0 50.0 50.0" version="1.1" xmlns="http://www.w3.org/2000/svg"><rect x="-1000" y="-1000" width="2000" height="2000" stroke="white" fill="white" /><g style="fill:none;stroke:#000000;stroke-width:1"><path d="M 8.6 -9.8 L 11.5 -9.8 C 13.8 -9.8 14.6 -10.6 14.6 -12.9 L 14.6 -35.2 C 14.6 -37.6 13.8 -38.4 11.5 -38.4 L 8.6 -38.4 C 6.3 -38.4 5.5 -37.6 5.5 -35.2 L 5.5 -12.9 C 5.5 -10.6 6.3 -9.8 8.6 -9.8 Z " transform="translate(0.0 38.0)" stroke-dasharray="71.16632580294056" stroke-dashoffset="71.16632580294056"><animate attributeName="stroke-dashoffset" from="71.16632580294056" to="0" dur="2.1349897740882167s" begin="0s; 15s; 30s; 45s" fill="freeze" id="anim0" /></path><path d="M 3.5 1.3 C 4.8 -0.7 6.2 -3.0 7.0 -5.0 " transform="translate(0.0 38.0)" stroke-dasharray="7.217602764913145" stroke-dashoffset="7.217602764913145"><animate attributeName="stroke-dashoffset" from="7.217602764913145" to="0" dur="0.21652808294739434s" begin="anim0.end" fill="freeze" id="anim1" /></path><path d="M 14.7 -1.9 C 14.1 -3.2 13.5 -4.3 12.8 -5.5 " transform="translate(0.0 38.0)" stroke-dasharray="4.072296567705315" stroke-dashoffset="4.072296567705315"><animate attributeName="stroke-dashoffset" from="4.072296567705315" to="0" dur="0.12216889703115946s" begin="anim1.end" fill="freeze" id="anim2" /></path><path d="M 18.1 -0.6 C 21.6 -3.9 24.5 -8.1 26.2 -11.9 " transform="translate(0.0 38.0)" stroke-dasharray="13.987646362943625" stroke-dashoffset="13.987646362943625"><animate attributeName="stroke-dashoffset" from="13.987646362943625" to="0" dur="0.41962939088830875s" begin="anim2.end" fill="freeze" id="anim3" /></path><path d="M 14.1 -19.9 L 5.5 -19.9 " transform="translate(0.0 38.0)" stroke-dasharray="8.6" stroke-dashoffset="8.6"><animate attributeName="stroke-dashoffset" from="8.6" to="0" dur="0.258s" begin="anim3.end" fill="freeze" id="anim4" /></path><path d="M 14.1 -29.1 L 5.5 -29.1 " transform="translate(0.0 38.0)" stroke-dasharray="8.6" stroke-dashoffset="8.6"><animate attributeName="stroke-dashoffset" from="8.6" to="0" dur="0.258s" begin="anim4.end" fill="freeze" id="anim5" /></path><path d="M 27.6 2.6 L 27.6 -37.6 " transform="translate(0.0 38.0)" stroke-dasharray="40.2" stroke-dashoffset="40.2"><animate attributeName="stroke-dashoffset" from="40.2" to="0" dur="1.206s" begin="anim5.end" fill="freeze" id="anim6" /></path><path d="M 45.7 -1.6 C 42.1 -4.2 38.8 -8.0 36.5 -12.0 " transform="translate(0.0 38.0)" stroke-dasharray="13.98407932276729" stroke-dashoffset="13.98407932276729"><animate attributeName="stroke-dashoffset" from="13.98407932276729" to="0" dur="0.4195223796830187s" begin="anim6.end" fill="freeze" id="anim7" /></path><path d="M 21.1 -13.1 L 39.4 -13.1 C 42.1 -13.1 42.9 -13.8 42.9 -15.8 L 42.9 -22.9 C 42.9 -24.9 42.1 -25.7 39.4 -25.7 L 21.3 -25.7 " transform="translate(0.0 38.0)" stroke-dasharray="53.92596772523646" stroke-dashoffset="53.92596772523646"><animate attributeName="stroke-dashoffset" from="53.92596772523646" to="0" dur="1.6177790317570937s" begin="anim7.end" fill="freeze" id="anim8" /></path><path d="M 47.1 -19.4 L 18.8 -19.4 " transform="translate(0.0 38.0)" stroke-dasharray="28.3" stroke-dashoffset="28.3"><animate attributeName="stroke-dashoffset" from="28.3" to="0" dur="0.849s" begin="anim8.end" fill="freeze" id="anim9" /></path><path d="M 35.3 2.6 L 35.3 -36.8 " transform="translate(0.0 38.0)" stroke-dasharray="39.4" stroke-dashoffset="39.4"><animate attributeName="stroke-dashoffset" from="39.4" to="0" dur="1.182s" begin="anim9.end" fill="freeze" id="anim10" /></path><path d="M 46.2 -31.6 L 19.4 -31.6 " transform="translate(0.0 38.0)" stroke-dasharray="26.800000000000004" stroke-dashoffset="26.800000000000004"><animate attributeName="stroke-dashoffset" from="26.800000000000004" to="0" dur="0.804s" begin="anim10.end" fill="freeze" id="anim11" /></path><path d="M 21.9 -36.1 C 24.8 -36.9 28.3 -38.2 31.1 -39.6 " transform="translate(0.0 38.0)" stroke-dasharray="9.857208631516746" stroke-dashoffset="9.857208631516746"><animate attributeName="stroke-dashoffset" from="9.857208631516746" to="0" dur="0.2957162589455024s" begin="anim11.end" fill="freeze" id="anim12" /></path><path d="M 35.4 -36.2 C 37.6 -37.0 40.0 -38.0 42.2 -39.2" transform="translate(0.0 38.0)" stroke-dasharray="7.439246993372735" stroke-dashoffset="7.439246993372735"><animate attributeName="stroke-dashoffset" from="7.439246993372735" to="0" dur="0.22317740980118203s" begin="anim12.end" fill="freeze" id="anim_end" /></path></g></svg>