<?xml version='1.0' encoding='utf-8'?>
<svg viewBox="0.0 -6.0 50.0 50.0" version="1.1" xmlns="http://www.w3.org/2000/svg"><rect x="-1000" y="-1000" width="2000" height="2000" stroke="white" fill="white" /><g style="fill:none;stroke:#000000;stroke-width:1"><path d="M 38.8 1.9 C 39.6 2.1 40.2 2.1 40.9 2.1 C 42.9 2.1 43.9 1.6 44.5 -0.6 C 45.0 -2.4 45.3 -4.0 45.4 -6.3 C 45.5 -8.1 44.8 -8.8 42.5 -8.8 L 30.6 -8.8 C 28.2 -8.8 27.5 -9.3 27.5 -11.2 L 27.5 -22.5 C 27.5 -24.1 28.3 -24.8 30.6 -24.8 L 44.5 -24.8 " transform="translate(0.0 38.0)" stroke-dasharray="63.64209921206194" stroke-dashoffset="63.64209921206194"><animate attributeName="stroke-dashoffset" from="63.64209921206194" to="0" dur="1.9092629763618583s" begin="0s" fill="freeze" /></path><path d="M 22.1 -3.0 L 3.8 -3.0 " transform="translate(0.0 38.0)" stroke-dasharray="18.3" stroke-dashoffset="18.3"><animate attributeName="stroke-dashoffset" from="18.3" to="0" dur="0.549s" begin="1.9092629763618583s" fill="freeze" /></path><path d="M 13.3 2.9 L 13.3 -17.5 " transform="translate(0.0 38.0)" stroke-dasharray="20.4" stroke-dashoffset="20.4"><animate attributeName="stroke-dashoffset" from="20.4" to="0" dur="0.612s" begin="2.4582629763618584s" fill="freeze" /></path><path d="M 8.7 -8.0 L 18.2 -8.0 C 20.1 -8.0 20.8 -8.5 20.8 -9.8 L 20.8 -11.4 C 20.8 -12.8 20.1 -13.3 18.2 -13.3 L 8.7 -13.3 C 6.7 -13.3 6.1 -12.8 6.1 -11.4 L 6.1 -9.8 C 6.1 -8.5 6.7 -8.0 8.7 -8.0 Z " transform="translate(0.0 38.0)" stroke-dasharray="37.037927111966795" stroke-dashoffset="37.037927111966795"><animate attributeName="stroke-dashoffset" from="37.037927111966795" to="0" dur="1.1111378133590037s" begin="3.0702629763618585s" fill="freeze" /></path><path d="M 24.9 1.0 C 25.6 -0.6 26.1 -2.2 26.5 -4.2 " transform="translate(0.0 38.0)" stroke-dasharray="5.451704492411282" stroke-dashoffset="5.451704492411282"><animate attributeName="stroke-dashoffset" from="5.451704492411282" to="0" dur="0.16355113477233846s" begin="4.181400789720862s" fill="freeze" /></path><path d="M 31.9 -0.5 C 31.7 -1.9 31.4 -3.0 31.0 -4.2 " transform="translate(0.0 38.0)" stroke-dasharray="3.813551415551557" stroke-dashoffset="3.813551415551557"><animate attributeName="stroke-dashoffset" from="3.813551415551557" to="0" dur="0.1144065424665467s" begin="4.3449519244932s" fill="freeze" /></path><path d="M 8.9 -25.8 L 8.9 -20.1 C 8.9 -18.4 9.6 -18.1 11.2 -18.1 L 15.3 -18.1 C 17.0 -18.1 17.7 -18.4 17.7 -20.1 L 17.7 -25.8 " transform="translate(0.0 38.0)" stroke-dasharray="22.808046056123086" stroke-dashoffset="22.808046056123086"><animate attributeName="stroke-dashoffset" from="22.808046056123086" to="0" dur="0.6842413816836925s" begin="4.459358466959747s" fill="freeze" /></path><path d="M 22.6 -22.9 L 4.0 -22.9 " transform="translate(0.0 38.0)" stroke-dasharray="18.6" stroke-dashoffset="18.6"><animate attributeName="stroke-dashoffset" from="18.6" to="0" dur="0.558s" begin="5.14359984864344s" fill="freeze" /></path><path d="M 36.9 -1.9 C 36.5 -3.1 36.0 -4.0 35.5 -5.0 " transform="translate(0.0 38.0)" stroke-dasharray="3.405129327787742" stroke-dashoffset="3.405129327787742"><animate attributeName="stroke-dashoffset" from="3.405129327787742" to="0" dur="0.10215387983363225s" begin="5.70159984864344s" fill="freeze" /></path><path d="M 41.3 -3.5 C 41.0 -4.3 40.5 -5.1 40.0 -5.8 " transform="translate(0.0 38.0)" stroke-dasharray="2.649286226532498" stroke-dashoffset="2.649286226532498"><animate attributeName="stroke-dashoffset" from="2.649286226532498" to="0" dur="0.07947858679597494s" begin="5.803753728477072s" fill="freeze" /></path><path d="M 43.1 -14.2 L 27.4 -14.2 " transform="translate(0.0 38.0)" stroke-dasharray="15.700000000000003" stroke-dashoffset="15.700000000000003"><animate attributeName="stroke-dashoffset" from="15.700000000000003" to="0" dur="0.4710000000000001s" begin="5.883232315273047s" fill="freeze" /></path><path d="M 35.9 -9.1 L 35.9 -24.6 " transform="translate(0.0 38.0)" stroke-dasharray="15.500000000000002" stroke-dashoffset="15.500000000000002"><animate attributeName="stroke-dashoffset" from="15.500000000000002" to="0" dur="0.465s" begin="6.354232315273047s" fill="freeze" /></path><path d="M 43.1 -19.4 L 27.4 -19.4 " transform="translate(0.0 38.0)" stroke-dasharray="15.700000000000003" stroke-dashoffset="15.700000000000003"><animate attributeName="stroke-dashoffset" from="15.700000000000003" to="0" dur="0.4710000000000001s" begin="6.819232315273047s" fill="freeze" /></path><path d="M 42.5 -29.1 L 42.5 -32.0 C 42.5 -33.8 41.8 -34.5 39.0 -34.5 L 11.2 -34.5 C 8.4 -34.5 7.7 -33.8 7.7 -32.0 L 7.7 -29.1 " transform="translate(0.0 38.0)" stroke-dasharray="43.66458177039352" stroke-dashoffset="43.66458177039352"><animate attributeName="stroke-dashoffset" from="43.66458177039352" to="0" dur="1.3099374531118055s" begin="7.290232315273047s" fill="freeze" /></path><path d="M 19.1 -39.1 L 19.1 -31.5 C 19.1 -29.9 19.8 -29.5 21.8 -29.5 L 28.0 -29.5 C 30.0 -29.5 30.8 -29.9 30.8 -31.5 L 30.8 -39.1 " transform="translate(0.0 38.0)" stroke-dasharray="29.36944855577048" stroke-dashoffset="29.36944855577048"><animate attributeName="stroke-dashoffset" from="29.36944855577048" to="0" dur="0.8810834566731144s" begin="8.600169768384852s" fill="freeze" /></path><path d="M 45.6 -39.1 L 4.5 -39.1" transform="translate(0.0 38.0)" stroke-dasharray="41.1" stroke-dashoffset="41.1"><animate attributeName="stroke-dashoffset" from="41.1" to="0" dur="1.233s" begin="9.481253225057966s" fill="freeze" /></path></g></svg>