<?xml version='1.0' encoding='utf-8'?>
<svg viewBox="0.0 -6.0 50.0 50.0" version="1.1" xmlns="http://www.w3.org/2000/svg"><rect x="-1000" y="-1000" width="2000" height="2000" stroke="white" fill="white" /><g style="fill:none;stroke:#000000;stroke-width:1"><path d="M 21.9 1.8 C 29.5 -4.8 33.4 -15.4 33.4 -31.2 L 33.4 -39.8 " transform="translate(0.0 38.0)" stroke-dasharray="44.66380518007344" stroke-dashoffset="44.66380518007344"><animate attributeName="stroke-dashoffset" from="44.66380518007344" to="0" dur="1.3399141554022032s" begin="0s; 15s; 30s; 45s" fill="freeze" id="anim0" /></path><path d="M 3.1 -6.9 C 7.2 -7.6 11.9 -8.8 16.4 -10.2 " transform="translate(0.0 38.0)" stroke-dasharray="13.712766466411649" stroke-dashoffset="13.712766466411649"><animate attributeName="stroke-dashoffset" from="13.712766466411649" to="0" dur="0.41138299399234945s" begin="anim0.end" fill="freeze" id="anim1" /></path><path d="M 7.5 -8.7 L 7.5 -36.8 " transform="translate(0.0 38.0)" stroke-dasharray="28.099999999999998" stroke-dashoffset="28.099999999999998"><animate attributeName="stroke-dashoffset" from="28.099999999999998" to="0" dur="0.8429999999999999s" begin="anim1.end" fill="freeze" id="anim2" /></path><path d="M 16.8 -18.8 L 8.0 -18.8 " transform="translate(0.0 38.0)" stroke-dasharray="8.8" stroke-dashoffset="8.8"><animate attributeName="stroke-dashoffset" from="8.8" to="0" dur="0.264s" begin="anim2.end" fill="freeze" id="anim3" /></path><path d="M 16.9 2.2 L 16.9 -37.0 " transform="translate(0.0 38.0)" stroke-dasharray="39.2" stroke-dashoffset="39.2"><animate attributeName="stroke-dashoffset" from="39.2" to="0" dur="1.176s" begin="anim3.end" fill="freeze" id="anim4" /></path><path d="M 16.8 -28.1 L 8.0 -28.1 " transform="translate(0.0 38.0)" stroke-dasharray="8.8" stroke-dashoffset="8.8"><animate attributeName="stroke-dashoffset" from="8.8" to="0" dur="0.264s" begin="anim4.end" fill="freeze" id="anim5" /></path><path d="M 21.6 -37.3 L 3.5 -37.3 " transform="translate(0.0 38.0)" stroke-dasharray="18.1" stroke-dashoffset="18.1"><animate attributeName="stroke-dashoffset" from="18.1" to="0" dur="0.543s" begin="anim5.end" fill="freeze" id="anim6" /></path><path d="M 46.5 -3.8 C 46.2 0.3 44.6 1.2 40.2 1.2 C 37.0 1.2 36.1 0.7 36.1 -1.5 L 36.1 -20.6 " transform="translate(0.0 38.0)" stroke-dasharray="34.22662729753483" stroke-dashoffset="34.22662729753483"><animate attributeName="stroke-dashoffset" from="34.22662729753483" to="0" dur="1.0267988189260449s" begin="anim6.end" fill="freeze" id="anim7" /></path><path d="M 45.1 -24.6 L 45.1 -27.9 C 45.1 -29.8 44.2 -30.8 41.6 -30.8 L 27.4 -30.8 C 24.9 -30.8 23.9 -29.8 23.9 -27.9 L 23.9 -24.1" transform="translate(0.0 38.0)" stroke-dasharray="31.785622679290523" stroke-dashoffset="31.785622679290523"><animate attributeName="stroke-dashoffset" from="31.785622679290523" to="0" dur="0.9535686803787157s" begin="anim7.end" fill="freeze" id="anim_end" /></path></g></svg>