<?xml version='1.0' encoding='utf-8'?>
<svg viewBox="0.0 -6.0 50.0 50.0" version="1.1" xmlns="http://www.w3.org/2000/svg"><rect x="-1000" y="-1000" width="2000" height="2000" stroke="white" fill="white" /><g style="fill:none;stroke:#000000;stroke-width:1"><path d="M 4.3 -10.4 C 17.1 -15.3 32.7 -26.4 40.4 -37.2 " transform="translate(0.0 38.0)" stroke-dasharray="45.49128634405496" stroke-dashoffset="45.49128634405496"><animate attributeName="stroke-dashoffset" from="45.49128634405496" to="0" dur="1.364738590321649s" begin="0s" fill="freeze" /></path><path d="M 20.9 1.3 L 35.1 1.3 C 38.2 1.3 39.4 0.2 39.4 -2.0 L 39.4 -12.6 C 39.4 -14.8 38.2 -15.8 35.1 -15.8 L 20.9 -15.8 C 17.9 -15.8 16.8 -14.8 16.8 -12.6 L 16.8 -2.0 C 16.8 0.2 17.9 1.3 20.9 1.3 Z " transform="translate(0.0 38.0)" stroke-dasharray="74.11418083792155" stroke-dashoffset="74.11418083792155"><animate attributeName="stroke-dashoffset" from="74.11418083792155" to="0" dur="2.2234254251376466s" begin="1.364738590321649s" fill="freeze" /></path><path d="M 39.0 -7.5 L 17.5 -7.5 " transform="translate(0.0 38.0)" stroke-dasharray="21.5" stroke-dashoffset="21.5"><animate attributeName="stroke-dashoffset" from="21.5" to="0" dur="0.645s" begin="3.5881640154592955s" fill="freeze" /></path><path d="M 45.5 -25.4 L 4.3 -25.4 " transform="translate(0.0 38.0)" stroke-dasharray="41.2" stroke-dashoffset="41.2"><animate attributeName="stroke-dashoffset" from="41.2" to="0" dur="1.236s" begin="4.2331640154592955s" fill="freeze" /></path><path d="M 32.0 -34.0 L 9.8 -34.0 " transform="translate(0.0 38.0)" stroke-dasharray="22.2" stroke-dashoffset="22.2"><animate attributeName="stroke-dashoffset" from="22.2" to="0" dur="0.6659999999999999s" begin="5.469164015459295s" fill="freeze" /></path><path d="M 23.6 -25.8 L 23.6 -40.5" transform="translate(0.0 38.0)" stroke-dasharray="14.7" stroke-dashoffset="14.7"><animate attributeName="stroke-dashoffset" from="14.7" to="0" dur="0.44099999999999995s" begin="6.135164015459296s" fill="freeze" /></path></g></svg>