<?xml version='1.0' encoding='utf-8'?>
<svg viewBox="0.0 -6.0 50.0 50.0" version="1.1" xmlns="http://www.w3.org/2000/svg"><rect x="-1000" y="-1000" width="2000" height="2000" stroke="white" fill="white" /><g style="fill:none;stroke:#000000;stroke-width:1"><path d="M 36.9 1.9 C 37.8 2.1 38.6 2.1 39.5 2.1 C 41.4 2.1 42.5 1.3 42.5 -0.8 L 42.5 -16.4 C 42.5 -18.2 41.6 -19.3 39.4 -19.3 L 28.8 -19.3 C 26.4 -19.3 25.6 -18.2 25.6 -16.3 L 25.6 2.6 " transform="translate(0.0 38.0)" stroke-dasharray="62.4626597368224" stroke-dashoffset="62.4626597368224"><animate attributeName="stroke-dashoffset" from="62.4626597368224" to="0" dur="1.873879792104672s" begin="0s" fill="freeze" /></path><path d="M 8.9 1.1 L 12.9 1.1 C 15.2 1.1 16.1 0.2 16.1 -1.8 L 16.1 -7.7 C 16.1 -9.7 15.2 -10.6 12.9 -10.6 L 8.9 -10.6 C 6.6 -10.6 5.7 -9.7 5.7 -7.7 L 5.7 -1.8 C 5.7 0.2 6.6 1.1 8.9 1.1 Z " transform="translate(0.0 38.0)" stroke-dasharray="39.83482130018839" stroke-dashoffset="39.83482130018839"><animate attributeName="stroke-dashoffset" from="39.83482130018839" to="0" dur="1.1950446390056515s" begin="1.873879792104672s" fill="freeze" /></path><path d="M 5.8 -17.4 L 15.8 -17.4 " transform="translate(0.0 38.0)" stroke-dasharray="10.0" stroke-dashoffset="10.0"><animate attributeName="stroke-dashoffset" from="10.0" to="0" dur="0.3s" begin="3.0689244311103234s" fill="freeze" /></path><path d="M 5.8 -24.2 L 15.8 -24.2 " transform="translate(0.0 38.0)" stroke-dasharray="10.0" stroke-dashoffset="10.0"><animate attributeName="stroke-dashoffset" from="10.0" to="0" dur="0.3s" begin="3.3689244311103232s" fill="freeze" /></path><path d="M 26.4 -6.5 L 41.6 -6.5 " transform="translate(0.0 38.0)" stroke-dasharray="15.200000000000003" stroke-dashoffset="15.200000000000003"><animate attributeName="stroke-dashoffset" from="15.200000000000003" to="0" dur="0.45600000000000007s" begin="3.668924431110323s" fill="freeze" /></path><path d="M 3.0 -31.2 L 18.2 -31.2 " transform="translate(0.0 38.0)" stroke-dasharray="15.2" stroke-dashoffset="15.2"><animate attributeName="stroke-dashoffset" from="15.2" to="0" dur="0.45599999999999996s" begin="4.1249244311103235s" fill="freeze" /></path><path d="M 26.4 -12.8 L 41.6 -12.8 " transform="translate(0.0 38.0)" stroke-dasharray="15.200000000000003" stroke-dashoffset="15.200000000000003"><animate attributeName="stroke-dashoffset" from="15.200000000000003" to="0" dur="0.45600000000000007s" begin="4.580924431110324s" fill="freeze" /></path><path d="M 5.8 -38.0 L 15.8 -38.0 " transform="translate(0.0 38.0)" stroke-dasharray="10.0" stroke-dashoffset="10.0"><animate attributeName="stroke-dashoffset" from="10.0" to="0" dur="0.3s" begin="5.036924431110324s" fill="freeze" /></path><path d="M 33.8 -25.2 L 33.8 -38.5 " transform="translate(0.0 38.0)" stroke-dasharray="13.3" stroke-dashoffset="13.3"><animate attributeName="stroke-dashoffset" from="13.3" to="0" dur="0.399s" begin="5.336924431110324s" fill="freeze" /></path><path d="M 23.6 -32.1 L 43.5 -32.1 " transform="translate(0.0 38.0)" stroke-dasharray="19.9" stroke-dashoffset="19.9"><animate attributeName="stroke-dashoffset" from="19.9" to="0" dur="0.597s" begin="5.735924431110324s" fill="freeze" /></path><path d="M 27.3 -25.2 L 40.6 -25.2 C 43.6 -25.2 44.7 -26.2 44.7 -28.6 L 44.7 -35.5 C 44.7 -37.8 43.6 -38.8 40.6 -38.8 L 27.3 -38.8 C 24.4 -38.8 23.2 -37.8 23.2 -35.5 L 23.2 -28.6 C 23.2 -26.2 24.4 -25.2 27.3 -25.2 Z" transform="translate(0.0 38.0)" stroke-dasharray="64.94862460463258" stroke-dashoffset="64.94862460463258"><animate attributeName="stroke-dashoffset" from="64.94862460463258" to="0" dur="1.9484587381389775s" begin="6.3329244311103245s" fill="freeze" /></path></g></svg>