<?xml version='1.0' encoding='utf-8'?>
<svg viewBox="0.0 -6.0 50.0 50.0" version="1.1" xmlns="http://www.w3.org/2000/svg"><rect x="-1000" y="-1000" width="2000" height="2000" stroke="white" fill="white" /><g style="fill:none;stroke:#000000;stroke-width:1"><path d="M 45.0 1.6 C 37.9 -0.6 29.8 -5.3 25.2 -10.8 " transform="translate(0.0 38.0)" stroke-dasharray="23.64538196481728" stroke-dashoffset="23.64538196481728"><animate attributeName="stroke-dashoffset" from="23.64538196481728" to="0" dur="0.7093614589445183s" begin="0s; anim_end.end" fill="freeze" id="anim0" /></path><path d="M 11.3 2.1 C 17.5 1.6 23.8 0.8 29.3 -0.4 " transform="translate(0.0 38.0)" stroke-dasharray="18.18590436867812" stroke-dashoffset="18.18590436867812"><animate attributeName="stroke-dashoffset" from="18.18590436867812" to="0" dur="0.5455771310603436s" begin="anim0.end" fill="freeze" id="anim1" /></path><path d="M 17.6 1.7 L 17.6 -4.5 " transform="translate(0.0 38.0)" stroke-dasharray="6.2" stroke-dashoffset="6.2"><animate attributeName="stroke-dashoffset" from="6.2" to="0" dur="0.186s" begin="anim1.end" fill="freeze" id="anim2" /></path><path d="M 4.2 -2.5 C 11.8 -4.3 19.6 -7.6 25.4 -11.6 " transform="translate(0.0 38.0)" stroke-dasharray="23.194073331079753" stroke-dashoffset="23.194073331079753"><animate attributeName="stroke-dashoffset" from="23.194073331079753" to="0" dur="0.6958221999323926s" begin="anim2.end" fill="freeze" id="anim3" /></path><path d="M 4.8 -13.9 C 11.2 -15.9 18.1 -19.3 22.9 -23.1 " transform="translate(0.0 38.0)" stroke-dasharray="20.406960376730154" stroke-dashoffset="20.406960376730154"><animate attributeName="stroke-dashoffset" from="20.406960376730154" to="0" dur="0.6122088113019046s" begin="anim3.end" fill="freeze" id="anim4" /></path><path d="M 20.3 -15.3 C 21.1 -15.2 21.8 -15.1 22.6 -15.1 C 24.7 -15.1 25.5 -15.8 25.5 -17.8 L 25.5 -23.9 " transform="translate(0.0 38.0)" stroke-dasharray="13.046692886927852" stroke-dashoffset="13.046692886927852"><animate attributeName="stroke-dashoffset" from="13.046692886927852" to="0" dur="0.39140078660783556s" begin="anim4.end" fill="freeze" id="anim5" /></path><path d="M 31.7 -5.5 C 34.0 -6.9 36.1 -8.6 38.0 -10.4 " transform="translate(0.0 38.0)" stroke-dasharray="7.996117327710289" stroke-dashoffset="7.996117327710289"><animate attributeName="stroke-dashoffset" from="7.996117327710289" to="0" dur="0.23988351983130865s" begin="anim5.end" fill="freeze" id="anim6" /></path><path d="M 39.8 -18.4 C 41.0 -19.4 42.0 -20.3 42.6 -21.1 C 43.7 -22.6 43.2 -23.8 40.9 -23.8 L 5.5 -23.8 " transform="translate(0.0 38.0)" stroke-dasharray="43.732738034852645" stroke-dashoffset="43.732738034852645"><animate attributeName="stroke-dashoffset" from="43.732738034852645" to="0" dur="1.3119821410455792s" begin="anim6.end" fill="freeze" id="anim7" /></path><path d="M 26.1 -24.4 C 23.6 -26.1 21.9 -26.9 19.8 -27.9 " transform="translate(0.0 38.0)" stroke-dasharray="7.215954754248113" stroke-dashoffset="7.215954754248113"><animate attributeName="stroke-dashoffset" from="7.215954754248113" to="0" dur="0.21647864262744337s" begin="anim7.end" fill="freeze" id="anim8" /></path><path d="M 23.1 -24.6 C 26.6 -25.6 30.1 -27.1 32.8 -28.6 C 35.0 -29.9 34.5 -31.6 31.8 -31.6 L 12.6 -31.6 " transform="translate(0.0 38.0)" stroke-dasharray="34.98978990221269" stroke-dashoffset="34.98978990221269"><animate attributeName="stroke-dashoffset" from="34.98978990221269" to="0" dur="1.0496936970663808s" begin="anim8.end" fill="freeze" id="anim9" /></path><path d="M 45.8 -36.8 L 4.4 -36.8 " transform="translate(0.0 38.0)" stroke-dasharray="41.4" stroke-dashoffset="41.4"><animate attributeName="stroke-dashoffset" from="41.4" to="0" dur="1.242s" begin="anim9.end" fill="freeze" id="anim10" /></path><path d="M 24.8 -36.7 L 24.8 -41.1" transform="translate(0.0 38.0)" stroke-dasharray="4.399999999999999" stroke-dashoffset="4.399999999999999"><animate attributeName="stroke-dashoffset" from="4.399999999999999" to="0" dur="0.13199999999999995s" begin="anim10.end" fill="freeze" id="anim_end" /></path></g></svg>