<?xml version='1.0' encoding='utf-8'?>
<svg viewBox="0.0 -6.0 50.0 50.0" version="1.1" xmlns="http://www.w3.org/2000/svg"><rect x="-1000" y="-1000" width="2000" height="2000" stroke="white" fill="white" /><g style="fill:none;stroke:#000000;stroke-width:1"><path d="M 6.2 1.6 C 11.4 0.2 16.8 -2.9 19.8 -6.2 C 23.3 -10.2 24.8 -14.3 24.8 -23.3 L 24.8 -29.1 " transform="translate(0.0 38.0)" stroke-dasharray="39.94326995899882" stroke-dashoffset="39.94326995899882"><animate attributeName="stroke-dashoffset" from="39.94326995899882" to="0" dur="1.1982980987699645s" begin="0s" fill="freeze" /></path><path d="M 46.2 -13.1 L 4.0 -13.1 " transform="translate(0.0 38.0)" stroke-dasharray="42.2" stroke-dashoffset="42.2"><animate attributeName="stroke-dashoffset" from="42.2" to="0" dur="1.266s" begin="1.1982980987699645s" fill="freeze" /></path><path d="M 43.8 0.9 C 36.5 -0.8 28.9 -5.4 24.9 -11.8 " transform="translate(0.0 38.0)" stroke-dasharray="23.322171753401562" stroke-dashoffset="23.322171753401562"><animate attributeName="stroke-dashoffset" from="23.322171753401562" to="0" dur="0.6996651526020469s" begin="2.4642980987699645s" fill="freeze" /></path><path d="M 38.1 -13.5 L 38.1 -20.9 C 38.1 -23.1 37.0 -24.2 34.2 -24.2 L 15.8 -24.2 C 13.2 -24.2 12.1 -23.1 12.1 -20.9 L 12.1 -13.5 " transform="translate(0.0 38.0)" stroke-dasharray="44.81170732237769" stroke-dashoffset="44.81170732237769"><animate attributeName="stroke-dashoffset" from="44.81170732237769" to="0" dur="1.3443512196713308s" begin="3.1639632513720115s" fill="freeze" /></path><path d="M 17.7 -30.9 L 17.7 -40.2 " transform="translate(0.0 38.0)" stroke-dasharray="9.300000000000004" stroke-dashoffset="9.300000000000004"><animate attributeName="stroke-dashoffset" from="9.300000000000004" to="0" dur="0.27900000000000014s" begin="4.5083144710433425s" fill="freeze" /></path><path d="M 45.0 -35.4 L 4.9 -35.4 " transform="translate(0.0 38.0)" stroke-dasharray="40.1" stroke-dashoffset="40.1"><animate attributeName="stroke-dashoffset" from="40.1" to="0" dur="1.203s" begin="4.787314471043342s" fill="freeze" /></path><path d="M 31.8 -31.1 L 31.8 -40.2" transform="translate(0.0 38.0)" stroke-dasharray="9.100000000000001" stroke-dashoffset="9.100000000000001"><animate attributeName="stroke-dashoffset" from="9.100000000000001" to="0" dur="0.273s" begin="5.990314471043343s" fill="freeze" /></path></g></svg>