<?xml version='1.0' encoding='utf-8'?>
<svg viewBox="0.0 -6.0 50.0 50.0" version="1.1" xmlns="http://www.w3.org/2000/svg"><rect x="-1000" y="-1000" width="2000" height="2000" stroke="white" fill="white" /><g style="fill:none;stroke:#000000;stroke-width:1"><path d="M 46.0 -5.7 C 45.4 -0.8 43.4 0.7 34.8 0.7 C 27.9 0.7 26.1 -0.7 26.1 -3.5 C 26.1 -6.1 28.0 -10.3 38.0 -18.9 C 39.8 -20.4 39.0 -21.9 37.2 -21.9 L 27.2 -21.9 " transform="translate(0.0 38.0)" stroke-dasharray="60.01906970788006" stroke-dashoffset="60.01906970788006"><animate attributeName="stroke-dashoffset" from="60.01906970788006" to="0" dur="1.8005720912364016s" begin="0s" fill="freeze" /></path><path d="M 17.1 -2.0 L 17.1 -7.5 C 17.1 -9.6 16.3 -10.5 13.8 -10.5 L 9.5 -10.5 C 7.1 -10.5 6.2 -9.6 6.2 -7.5 L 6.2 -2.0 C 6.2 -0.1 7.1 0.8 9.5 0.8 L 13.8 0.8 C 16.3 0.8 17.1 -0.1 17.1 -2.0 Z " transform="translate(0.0 38.0)" stroke-dasharray="40.044334651106375" stroke-dashoffset="40.044334651106375"><animate attributeName="stroke-dashoffset" from="40.044334651106375" to="0" dur="1.2013300395331912s" begin="1.8005720912364016s" fill="freeze" /></path><path d="M 16.9 -17.4 L 6.2 -17.4 " transform="translate(0.0 38.0)" stroke-dasharray="10.7" stroke-dashoffset="10.7"><animate attributeName="stroke-dashoffset" from="10.7" to="0" dur="0.32099999999999995s" begin="3.001902130769593s" fill="freeze" /></path><path d="M 16.9 -24.1 L 6.2 -24.1 " transform="translate(0.0 38.0)" stroke-dasharray="10.7" stroke-dashoffset="10.7"><animate attributeName="stroke-dashoffset" from="10.7" to="0" dur="0.32099999999999995s" begin="3.3229021307695925s" fill="freeze" /></path><path d="M 19.2 -31.1 L 3.1 -31.1 " transform="translate(0.0 38.0)" stroke-dasharray="16.099999999999998" stroke-dashoffset="16.099999999999998"><animate attributeName="stroke-dashoffset" from="16.099999999999998" to="0" dur="0.48299999999999993s" begin="3.6439021307695922s" fill="freeze" /></path><path d="M 16.9 -37.8 L 6.2 -37.8 " transform="translate(0.0 38.0)" stroke-dasharray="10.7" stroke-dashoffset="10.7"><animate attributeName="stroke-dashoffset" from="10.7" to="0" dur="0.32099999999999995s" begin="4.126902130769592s" fill="freeze" /></path><path d="M 22.6 -24.8 C 25.9 -28.4 28.9 -34.0 30.8 -39.0 " transform="translate(0.0 38.0)" stroke-dasharray="16.484703586799597" stroke-dashoffset="16.484703586799597"><animate attributeName="stroke-dashoffset" from="16.484703586799597" to="0" dur="0.4945411076039879s" begin="4.447902130769592s" fill="freeze" /></path><path d="M 45.5 -31.4 L 27.7 -31.4" transform="translate(0.0 38.0)" stroke-dasharray="17.8" stroke-dashoffset="17.8"><animate attributeName="stroke-dashoffset" from="17.8" to="0" dur="0.534s" begin="4.9424432383735795s" fill="freeze" /></path></g></svg>