<?xml version='1.0' encoding='utf-8'?>
<svg viewBox="0.0 -6.0 50.0 50.0" version="1.1" xmlns="http://www.w3.org/2000/svg"><rect x="-1000" y="-1000" width="2000" height="2000" stroke="white" fill="white" /><g style="fill:none;stroke:#000000;stroke-width:1"><path d="M 37.2 1.1 C 38.3 1.3 39.3 1.4 40.5 1.4 C 43.0 1.4 44.2 0.3 44.2 -2.0 L 44.2 -34.2 C 44.2 -36.9 43.1 -38.0 40.2 -38.0 L 27.1 -38.0 C 24.0 -38.0 22.9 -36.9 22.9 -34.2 L 22.9 -24.1 C 22.9 -10.2 21.8 -3.5 19.2 1.7 " transform="translate(0.0 38.0)" stroke-dasharray="103.82248995743083" stroke-dashoffset="103.82248995743083"><animate attributeName="stroke-dashoffset" from="103.82248995743083" to="0" dur="3.114674698722925s" begin="0s" fill="freeze" /></path><path d="M 8.7 0.7 L 12.3 0.7 C 14.7 0.7 15.5 -0.3 15.5 -2.3 L 15.5 -8.1 C 15.5 -10.1 14.7 -11.0 12.4 -11.0 L 8.7 -11.0 C 6.4 -11.0 5.5 -10.1 5.5 -8.1 L 5.5 -2.3 C 5.5 -0.3 6.4 0.7 8.7 0.7 Z " transform="translate(0.0 38.0)" stroke-dasharray="39.02076725317767" stroke-dashoffset="39.02076725317767"><animate attributeName="stroke-dashoffset" from="39.02076725317767" to="0" dur="1.17062301759533s" begin="3.114674698722925s" fill="freeze" /></path><path d="M 15.2 -17.8 L 5.6 -17.8 " transform="translate(0.0 38.0)" stroke-dasharray="9.6" stroke-dashoffset="9.6"><animate attributeName="stroke-dashoffset" from="9.6" to="0" dur="0.288s" begin="4.285297716318254s" fill="freeze" /></path><path d="M 15.2 -24.4 L 5.6 -24.4 " transform="translate(0.0 38.0)" stroke-dasharray="9.6" stroke-dashoffset="9.6"><animate attributeName="stroke-dashoffset" from="9.6" to="0" dur="0.288s" begin="4.573297716318255s" fill="freeze" /></path><path d="M 17.5 -31.4 L 2.9 -31.4 " transform="translate(0.0 38.0)" stroke-dasharray="14.6" stroke-dashoffset="14.6"><animate attributeName="stroke-dashoffset" from="14.6" to="0" dur="0.438s" begin="4.861297716318255s" fill="freeze" /></path><path d="M 31.8 -6.1 L 35.0 -6.1 C 37.0 -6.1 37.8 -7.0 37.8 -8.7 L 37.8 -13.2 C 37.8 -14.9 37.0 -15.8 35.0 -15.8 L 31.8 -15.8 C 29.8 -15.8 28.9 -14.9 28.9 -13.2 L 28.9 -8.7 C 28.9 -7.0 29.8 -6.1 31.8 -6.1 Z " transform="translate(0.0 38.0)" stroke-dasharray="33.160508711684855" stroke-dashoffset="33.160508711684855"><animate attributeName="stroke-dashoffset" from="33.160508711684855" to="0" dur="0.9948152613505457s" begin="5.299297716318255s" fill="freeze" /></path><path d="M 15.2 -38.1 L 5.6 -38.1 " transform="translate(0.0 38.0)" stroke-dasharray="9.6" stroke-dashoffset="9.6"><animate attributeName="stroke-dashoffset" from="9.6" to="0" dur="0.288s" begin="6.2941129776688s" fill="freeze" /></path><path d="M 39.9 -22.1 L 27.4 -22.1 " transform="translate(0.0 38.0)" stroke-dasharray="12.5" stroke-dashoffset="12.5"><animate attributeName="stroke-dashoffset" from="12.5" to="0" dur="0.375s" begin="6.5821129776688005s" fill="freeze" /></path><path d="M 38.9 -29.8 L 28.4 -29.8 " transform="translate(0.0 38.0)" stroke-dasharray="10.5" stroke-dashoffset="10.5"><animate attributeName="stroke-dashoffset" from="10.5" to="0" dur="0.315s" begin="6.9571129776688005s" fill="freeze" /></path><path d="M 33.4 -22.1 L 33.4 -36.8" transform="translate(0.0 38.0)" stroke-dasharray="14.699999999999996" stroke-dashoffset="14.699999999999996"><animate attributeName="stroke-dashoffset" from="14.699999999999996" to="0" dur="0.44099999999999984s" begin="7.272112977668801s" fill="freeze" /></path></g></svg>