<?xml version='1.0' encoding='utf-8'?>
<svg viewBox="0.0 -6.0 50.0 50.0" version="1.1" xmlns="http://www.w3.org/2000/svg"><rect x="-1000" y="-1000" width="2000" height="2000" stroke="white" fill="white" /><g style="fill:none;stroke:#000000;stroke-width:1"><path d="M 38.8 1.9 C 39.6 2.1 40.5 2.2 41.3 2.2 C 43.4 2.2 44.7 1.3 45.5 -1.1 C 46.1 -3.4 46.6 -6.8 46.7 -9.5 C 46.7 -11.4 46.0 -12.3 43.5 -12.3 L 33.0 -12.3 C 30.9 -12.3 30.2 -13.2 30.2 -14.8 L 30.2 -32.6 C 30.2 -34.7 31.2 -35.6 33.9 -35.6 L 40.0 -35.6 C 42.7 -35.6 43.6 -34.8 43.6 -32.8 L 43.6 -26.9 C 43.6 -24.9 42.7 -24.1 40.0 -24.1 L 31.6 -24.1 " transform="translate(0.0 38.0)" stroke-dasharray="90.99064497677934" stroke-dashoffset="90.99064497677934"><animate attributeName="stroke-dashoffset" from="90.99064497677934" to="0" dur="2.72971934930338s" begin="0s" fill="freeze" /></path><path d="M 23.8 0.1 L 7.8 0.1 " transform="translate(0.0 38.0)" stroke-dasharray="16.0" stroke-dashoffset="16.0"><animate attributeName="stroke-dashoffset" from="16.0" to="0" dur="0.48s" begin="2.72971934930338s" fill="freeze" /></path><path d="M 3.4 -10.2 C 5.5 -12.9 7.9 -17.1 9.2 -20.4 " transform="translate(0.0 38.0)" stroke-dasharray="11.766713267963286" stroke-dashoffset="11.766713267963286"><animate attributeName="stroke-dashoffset" from="11.766713267963286" to="0" dur="0.3530013980388986s" begin="3.2097193493033798s" fill="freeze" /></path><path d="M 22.9 -5.7 L 8.4 -5.7 " transform="translate(0.0 38.0)" stroke-dasharray="14.499999999999998" stroke-dashoffset="14.499999999999998"><animate attributeName="stroke-dashoffset" from="14.499999999999998" to="0" dur="0.43499999999999994s" begin="3.5627207473422784s" fill="freeze" /></path><path d="M 7.7 2.5 L 7.7 -13.9 C 7.7 -15.7 8.3 -16.6 10.8 -16.6 L 24.2 -16.6 " transform="translate(0.0 38.0)" stroke-dasharray="34.61398322453779" stroke-dashoffset="34.61398322453779"><animate attributeName="stroke-dashoffset" from="34.61398322453779" to="0" dur="1.0384194967361338s" begin="3.9977207473422784s" fill="freeze" /></path><path d="M 15.8 0.1 L 15.8 -16.0 " transform="translate(0.0 38.0)" stroke-dasharray="16.1" stroke-dashoffset="16.1"><animate attributeName="stroke-dashoffset" from="16.1" to="0" dur="0.48300000000000004s" begin="5.036140244078412s" fill="freeze" /></path><path d="M 22.9 -11.1 L 8.4 -11.1 " transform="translate(0.0 38.0)" stroke-dasharray="14.499999999999998" stroke-dashoffset="14.499999999999998"><animate attributeName="stroke-dashoffset" from="14.499999999999998" to="0" dur="0.43499999999999994s" begin="5.519140244078412s" fill="freeze" /></path><path d="M 27.6 0.0 C 28.2 -1.9 28.8 -4.3 28.9 -6.5 " transform="translate(0.0 38.0)" stroke-dasharray="6.646518670810073" stroke-dashoffset="6.646518670810073"><animate attributeName="stroke-dashoffset" from="6.646518670810073" to="0" dur="0.19939556012430218s" begin="5.9541402440784115s" fill="freeze" /></path><path d="M 12.2 -26.1 L 12.2 -28.1 C 12.2 -29.6 11.4 -30.4 10.1 -30.4 L 7.3 -30.4 C 6.0 -30.4 5.2 -29.6 5.2 -28.1 L 5.2 -26.1 C 5.2 -24.6 6.0 -23.9 7.3 -23.9 L 10.1 -23.9 C 11.4 -23.9 12.2 -24.6 12.2 -26.1 Z " transform="translate(0.0 38.0)" stroke-dasharray="23.62906948901201" stroke-dashoffset="23.62906948901201"><animate attributeName="stroke-dashoffset" from="23.62906948901201" to="0" dur="0.7088720846703603s" begin="6.153535804202714s" fill="freeze" /></path><path d="M 15.4 -16.6 C 16.1 -18.0 16.5 -19.1 16.9 -20.4 " transform="translate(0.0 38.0)" stroke-dasharray="4.090613358655249" stroke-dashoffset="4.090613358655249"><animate attributeName="stroke-dashoffset" from="4.090613358655249" to="0" dur="0.12271840075965747s" begin="6.862407888873074s" fill="freeze" /></path><path d="M 33.8 -2.3 C 33.5 -3.9 33.0 -5.5 32.5 -6.8 " transform="translate(0.0 38.0)" stroke-dasharray="4.690206873963244" stroke-dashoffset="4.690206873963244"><animate attributeName="stroke-dashoffset" from="4.690206873963244" to="0" dur="0.14070620621889732s" begin="6.985126289632731s" fill="freeze" /></path><path d="M 38.2 -4.0 C 37.8 -5.2 37.1 -6.6 36.4 -7.7 " transform="translate(0.0 38.0)" stroke-dasharray="4.123838113578971" stroke-dashoffset="4.123838113578971"><animate attributeName="stroke-dashoffset" from="4.123838113578971" to="0" dur="0.12371514340736914s" begin="7.125832495851629s" fill="freeze" /></path><path d="M 10.1 -34.0 L 10.1 -40.3 " transform="translate(0.0 38.0)" stroke-dasharray="6.299999999999997" stroke-dashoffset="6.299999999999997"><animate attributeName="stroke-dashoffset" from="6.299999999999997" to="0" dur="0.18899999999999992s" begin="7.249547639258998s" fill="freeze" /></path><path d="M 17.5 -28.1 L 17.5 -26.1 C 17.5 -24.6 18.2 -23.9 19.6 -23.9 L 22.6 -23.9 C 23.9 -23.9 24.6 -24.6 24.6 -26.1 L 24.6 -28.1 C 24.6 -29.6 23.9 -30.4 22.6 -30.4 L 19.6 -30.4 C 18.2 -30.4 17.5 -29.6 17.5 -28.1 Z " transform="translate(0.0 38.0)" stroke-dasharray="23.95020530633226" stroke-dashoffset="23.95020530633226"><animate attributeName="stroke-dashoffset" from="23.95020530633226" to="0" dur="0.7185061591899679s" begin="7.438547639258998s" fill="freeze" /></path><path d="M 42.2 -5.8 C 41.8 -6.8 40.9 -8.0 40.1 -8.9 " transform="translate(0.0 38.0)" stroke-dasharray="3.7604312816800194" stroke-dashoffset="3.7604312816800194"><animate attributeName="stroke-dashoffset" from="3.7604312816800194" to="0" dur="0.11281293845040058s" begin="8.157053798448967s" fill="freeze" /></path><path d="M 26.1 -36.9 L 3.6 -36.9 " transform="translate(0.0 38.0)" stroke-dasharray="22.5" stroke-dashoffset="22.5"><animate attributeName="stroke-dashoffset" from="22.5" to="0" dur="0.6749999999999999s" begin="8.269866736899367s" fill="freeze" /></path><path d="M 18.9 -34.0 L 18.9 -40.3 " transform="translate(0.0 38.0)" stroke-dasharray="6.299999999999997" stroke-dashoffset="6.299999999999997"><animate attributeName="stroke-dashoffset" from="6.299999999999997" to="0" dur="0.18899999999999992s" begin="8.944866736899368s" fill="freeze" /></path><path d="M 47.4 -18.3 L 30.9 -18.3 " transform="translate(0.0 38.0)" stroke-dasharray="16.5" stroke-dashoffset="16.5"><animate attributeName="stroke-dashoffset" from="16.5" to="0" dur="0.495s" begin="9.133866736899368s" fill="freeze" /></path><path d="M 43.0 -29.9 L 30.9 -29.9 " transform="translate(0.0 38.0)" stroke-dasharray="12.100000000000001" stroke-dashoffset="12.100000000000001"><animate attributeName="stroke-dashoffset" from="12.100000000000001" to="0" dur="0.36300000000000004s" begin="9.628866736899367s" fill="freeze" /></path><path d="M 35.7 -35.9 C 36.2 -37.4 36.6 -38.8 36.9 -40.2" transform="translate(0.0 38.0)" stroke-dasharray="4.466612338691537" stroke-dashoffset="4.466612338691537"><animate attributeName="stroke-dashoffset" from="4.466612338691537" to="0" dur="0.1339983701607461s" begin="9.991866736899366s" fill="freeze" /></path></g></svg>