<?xml version='1.0' encoding='utf-8'?>
<svg viewBox="0.0 -6.0 50.0 50.0" version="1.1" xmlns="http://www.w3.org/2000/svg"><rect x="-1000" y="-1000" width="2000" height="2000" stroke="white" fill="white" /><g style="fill:none;stroke:#000000;stroke-width:1"><path d="M 16.7 1.1 C 20.6 -4.8 22.6 -12.2 22.6 -23.7 L 22.6 -33.1 C 22.6 -35.7 23.7 -37.0 27.0 -37.0 L 45.3 -37.0 " transform="translate(0.0 38.0)" stroke-dasharray="60.39950535457586" stroke-dashoffset="60.39950535457586"><animate attributeName="stroke-dashoffset" from="60.39950535457586" to="0" dur="1.8119851606372757s" begin="0s; anim_end.end" fill="freeze" id="anim0" /></path><path d="M 10.1 -8.4 C 10.7 -8.3 11.2 -8.2 12.1 -8.2 C 14.4 -8.2 15.9 -10.0 15.9 -13.8 C 15.9 -17.6 14.4 -20.7 10.9 -23.8 L 11.0 -24.6 C 12.7 -27.4 14.4 -31.3 15.4 -34.8 C 16.1 -37.1 15.2 -38.4 12.8 -38.4 L 9.1 -38.4 C 6.8 -38.4 6.0 -37.4 6.0 -35.1 L 6.0 2.4 " transform="translate(0.0 38.0)" stroke-dasharray="85.12874223573503" stroke-dashoffset="85.12874223573503"><animate attributeName="stroke-dashoffset" from="85.12874223573503" to="0" dur="2.5538622670720508s" begin="anim0.end" fill="freeze" id="anim1" /></path><path d="M 36.6 -11.4 C 37.4 -11.2 38.1 -11.2 38.9 -11.2 C 41.1 -11.2 42.0 -12.1 42.0 -14.7 L 42.0 -24.3 C 42.0 -26.5 41.1 -27.3 38.7 -27.3 L 33.6 -27.3 C 31.2 -27.3 30.3 -26.5 30.3 -24.3 L 30.3 -3.0 C 30.3 0.3 31.6 1.1 37.0 1.1 C 43.6 1.1 45.4 -0.1 45.9 -4.8" transform="translate(0.0 38.0)" stroke-dasharray="75.71360079490852" stroke-dashoffset="75.71360079490852"><animate attributeName="stroke-dashoffset" from="75.71360079490852" to="0" dur="2.2714080238472554s" begin="anim1.end" fill="freeze" id="anim_end" /></path></g></svg>