<?xml version='1.0' encoding='utf-8'?>
<svg viewBox="0.0 -6.0 50.0 50.0" version="1.1" xmlns="http://www.w3.org/2000/svg"><rect x="-1000" y="-1000" width="2000" height="2000" stroke="white" fill="white" /><g style="fill:none;stroke:#000000;stroke-width:1"><path d="M 15.5 -8.6 L 34.4 -8.6 C 37.2 -8.6 38.0 -9.4 38.0 -11.2 L 38.0 -16.4 C 38.0 -18.2 37.2 -19.0 34.4 -19.0 L 15.5 -19.0 C 12.7 -19.0 11.8 -18.2 11.8 -16.4 L 11.8 -11.2 C 11.8 -9.4 12.7 -8.6 15.5 -8.6 Z " transform="translate(0.0 38.0)" stroke-dasharray="68.98216120890517" stroke-dashoffset="68.98216120890517"><animate attributeName="stroke-dashoffset" from="68.98216120890517" to="0" dur="2.069464836267155s" begin="0s" fill="freeze" /></path><path d="M 46.1 1.6 L 4.0 1.6 " transform="translate(0.0 38.0)" stroke-dasharray="42.1" stroke-dashoffset="42.1"><animate attributeName="stroke-dashoffset" from="42.1" to="0" dur="1.263s" begin="2.069464836267155s" fill="freeze" /></path><path d="M 41.6 -3.6 L 8.6 -3.6 " transform="translate(0.0 38.0)" stroke-dasharray="33.0" stroke-dashoffset="33.0"><animate attributeName="stroke-dashoffset" from="33.0" to="0" dur="0.99s" begin="3.332464836267155s" fill="freeze" /></path><path d="M 24.8 2.4 L 24.8 -18.5 " transform="translate(0.0 38.0)" stroke-dasharray="20.9" stroke-dashoffset="20.9"><animate attributeName="stroke-dashoffset" from="20.9" to="0" dur="0.6269999999999999s" begin="4.322464836267155s" fill="freeze" /></path><path d="M 37.8 -13.8 L 12.5 -13.8 " transform="translate(0.0 38.0)" stroke-dasharray="25.299999999999997" stroke-dashoffset="25.299999999999997"><animate attributeName="stroke-dashoffset" from="25.299999999999997" to="0" dur="0.7589999999999999s" begin="4.949464836267155s" fill="freeze" /></path><path d="M 46.4 -24.1 L 3.7 -24.1 " transform="translate(0.0 38.0)" stroke-dasharray="42.699999999999996" stroke-dashoffset="42.699999999999996"><animate attributeName="stroke-dashoffset" from="42.699999999999996" to="0" dur="1.281s" begin="5.708464836267154s" fill="freeze" /></path><path d="M 16.0 -29.1 L 34.1 -29.1 C 36.8 -29.1 37.6 -29.9 37.6 -31.5 L 37.6 -37.1 C 37.6 -38.9 36.8 -39.6 34.1 -39.6 L 16.0 -39.6 C 13.3 -39.6 12.4 -38.9 12.4 -37.1 L 12.4 -31.5 C 12.4 -29.9 13.3 -29.1 16.0 -29.1 Z " transform="translate(0.0 38.0)" stroke-dasharray="67.35424087999483" stroke-dashoffset="67.35424087999483"><animate attributeName="stroke-dashoffset" from="67.35424087999483" to="0" dur="2.020627226399845s" begin="6.989464836267154s" fill="freeze" /></path><path d="M 38.0 -34.4 L 13.1 -34.4" transform="translate(0.0 38.0)" stroke-dasharray="24.9" stroke-dashoffset="24.9"><animate attributeName="stroke-dashoffset" from="24.9" to="0" dur="0.7469999999999999s" begin="9.010092062666999s" fill="freeze" /></path></g></svg>