<?xml version='1.0' encoding='utf-8'?>
<svg viewBox="0.0 -6.0 50.0 50.0" version="1.1" xmlns="http://www.w3.org/2000/svg"><rect x="-1000" y="-1000" width="2000" height="2000" stroke="white" fill="white" /><g style="fill:none;stroke:#000000;stroke-width:1"><path d="M 44.2 -29.1 L 44.2 -32.1 C 44.2 -33.5 43.6 -34.5 41.2 -34.5 L 8.8 -34.5 C 6.4 -34.5 5.7 -33.5 5.7 -32.1 L 5.7 -28.9 " transform="translate(0.0 38.0)" stroke-dasharray="47.53027029398969" stroke-dashoffset="47.53027029398969"><animate attributeName="stroke-dashoffset" from="47.53027029398969" to="0" dur="1.4259081088196905s" begin="0s" fill="freeze" /></path><path d="M 6.7 1.9 C 9.1 -0.6 11.3 -3.8 12.9 -6.8 " transform="translate(0.0 38.0)" stroke-dasharray="10.71486284464143" stroke-dashoffset="10.71486284464143"><animate attributeName="stroke-dashoffset" from="10.71486284464143" to="0" dur="0.3214458853392429s" begin="1.4259081088196905s" fill="freeze" /></path><path d="M 8.9 -11.8 C 7.8 -12.8 6.3 -13.9 5.2 -14.7 " transform="translate(0.0 38.0)" stroke-dasharray="4.703268433596951" stroke-dashoffset="4.703268433596951"><animate attributeName="stroke-dashoffset" from="4.703268433596951" to="0" dur="0.1410980530079085s" begin="1.7473539941589333s" fill="freeze" /></path><path d="M 42.5 1.6 L 20.6 1.6 " transform="translate(0.0 38.0)" stroke-dasharray="21.9" stroke-dashoffset="21.9"><animate attributeName="stroke-dashoffset" from="21.9" to="0" dur="0.6569999999999999s" begin="1.8884520471668418s" fill="freeze" /></path><path d="M 12.7 -18.6 C 11.7 -19.7 10.5 -20.8 9.4 -21.6 " transform="translate(0.0 38.0)" stroke-dasharray="4.467000279407561" stroke-dashoffset="4.467000279407561"><animate attributeName="stroke-dashoffset" from="4.467000279407561" to="0" dur="0.13401000838222682s" begin="2.5454520471668416s" fill="freeze" /></path><path d="M 31.4 1.8 L 31.4 -10.4 " transform="translate(0.0 38.0)" stroke-dasharray="12.200000000000001" stroke-dashoffset="12.200000000000001"><animate attributeName="stroke-dashoffset" from="12.200000000000001" to="0" dur="0.366s" begin="2.6794620555490685s" fill="freeze" /></path><path d="M 44.5 -4.7 L 17.9 -4.7 " transform="translate(0.0 38.0)" stroke-dasharray="26.6" stroke-dashoffset="26.6"><animate attributeName="stroke-dashoffset" from="26.6" to="0" dur="0.798s" begin="3.0454620555490686s" fill="freeze" /></path><path d="M 17.9 -12.4 C 19.8 -14.3 21.6 -16.9 22.8 -19.4 " transform="translate(0.0 38.0)" stroke-dasharray="8.582253153499716" stroke-dashoffset="8.582253153499716"><animate attributeName="stroke-dashoffset" from="8.582253153499716" to="0" dur="0.25746759460499147s" begin="3.8434620555490686s" fill="freeze" /></path><path d="M 19.2 -25.8 L 10.7 -25.8 " transform="translate(0.0 38.0)" stroke-dasharray="8.5" stroke-dashoffset="8.5"><animate attributeName="stroke-dashoffset" from="8.5" to="0" dur="0.255s" begin="4.10092965015406s" fill="freeze" /></path><path d="M 23.0 -10.1 C 28.1 -10.2 34.5 -10.8 39.1 -11.9 " transform="translate(0.0 38.0)" stroke-dasharray="16.22710461155975" stroke-dashoffset="16.22710461155975"><animate attributeName="stroke-dashoffset" from="16.22710461155975" to="0" dur="0.48681313834679246s" begin="4.35592965015406s" fill="freeze" /></path><path d="M 19.2 -30.1 L 11.4 -30.1 " transform="translate(0.0 38.0)" stroke-dasharray="7.799999999999999" stroke-dashoffset="7.799999999999999"><animate attributeName="stroke-dashoffset" from="7.799999999999999" to="0" dur="0.23399999999999996s" begin="4.8427427885008525s" fill="freeze" /></path><path d="M 32.5 -14.7 C 32.0 -15.6 31.4 -16.4 30.7 -17.2 " transform="translate(0.0 38.0)" stroke-dasharray="3.0865101541758038" stroke-dashoffset="3.0865101541758038"><animate attributeName="stroke-dashoffset" from="3.0865101541758038" to="0" dur="0.09259530462527411s" begin="5.0767427885008525s" fill="freeze" /></path><path d="M 23.4 -19.0 C 29.2 -19.4 34.6 -20.0 39.5 -21.2 " transform="translate(0.0 38.0)" stroke-dasharray="16.26938923590491" stroke-dashoffset="16.26938923590491"><animate attributeName="stroke-dashoffset" from="16.26938923590491" to="0" dur="0.4880816770771473s" begin="5.169338093126127s" fill="freeze" /></path><path d="M 24.9 -24.3 L 24.9 -39.0 " transform="translate(0.0 38.0)" stroke-dasharray="14.7" stroke-dashoffset="14.7"><animate attributeName="stroke-dashoffset" from="14.7" to="0" dur="0.44099999999999995s" begin="5.6574197702032745s" fill="freeze" /></path><path d="M 44.6 -13.7 C 43.5 -15.2 42.2 -16.4 40.8 -17.6 " transform="translate(0.0 38.0)" stroke-dasharray="5.457839678588303" stroke-dashoffset="5.457839678588303"><animate attributeName="stroke-dashoffset" from="5.457839678588303" to="0" dur="0.16373519035764908s" begin="6.098419770203274s" fill="freeze" /></path><path d="M 39.3 -25.8 L 30.4 -25.8 " transform="translate(0.0 38.0)" stroke-dasharray="8.899999999999999" stroke-dashoffset="8.899999999999999"><animate attributeName="stroke-dashoffset" from="8.899999999999999" to="0" dur="0.26699999999999996s" begin="6.262154960560923s" fill="freeze" /></path><path d="M 38.1 -30.1 L 30.4 -30.1 " transform="translate(0.0 38.0)" stroke-dasharray="7.700000000000003" stroke-dashoffset="7.700000000000003"><animate attributeName="stroke-dashoffset" from="7.700000000000003" to="0" dur="0.23100000000000007s" begin="6.529154960560923s" fill="freeze" /></path><path d="M 41.4 -39.1 L 9.2 -39.1" transform="translate(0.0 38.0)" stroke-dasharray="32.2" stroke-dashoffset="32.2"><animate attributeName="stroke-dashoffset" from="32.2" to="0" dur="0.9660000000000001s" begin="6.760154960560923s" fill="freeze" /></path></g></svg>