<?xml version='1.0' encoding='utf-8'?>
<svg viewBox="0.0 -6.0 50.0 50.0" version="1.1" xmlns="http://www.w3.org/2000/svg"><rect x="-1000" y="-1000" width="2000" height="2000" stroke="white" fill="white" /><g style="fill:none;stroke:#000000;stroke-width:1"><path d="M 19.6 -13.8 L 19.6 -24.5 C 19.6 -26.4 18.8 -27.5 16.4 -27.5 L 9.1 -27.5 C 6.8 -27.5 5.9 -26.4 5.9 -24.5 L 5.9 -13.8 C 5.9 -11.9 6.8 -10.8 9.1 -10.8 L 16.4 -10.8 C 18.8 -10.8 19.6 -11.9 19.6 -13.8 Z " transform="translate(0.0 38.0)" stroke-dasharray="56.24082970946445" stroke-dashoffset="56.24082970946445"><animate attributeName="stroke-dashoffset" from="56.24082970946445" to="0" dur="1.6872248912839334s" begin="0s" fill="freeze" /></path><path d="M 3.5 1.5 C 4.6 -0.8 5.5 -3.5 5.9 -5.8 " transform="translate(0.0 38.0)" stroke-dasharray="7.706464306401037" stroke-dashoffset="7.706464306401037"><animate attributeName="stroke-dashoffset" from="7.706464306401037" to="0" dur="0.2311939291920311s" begin="1.6872248912839334s" fill="freeze" /></path><path d="M 10.8 0.2 C 10.8 -1.8 10.6 -4.2 10.2 -5.7 " transform="translate(0.0 38.0)" stroke-dasharray="5.944063821119391" stroke-dashoffset="5.944063821119391"><animate attributeName="stroke-dashoffset" from="5.944063821119391" to="0" dur="0.1783219146335817s" begin="1.9184188204759645s" fill="freeze" /></path><path d="M 16.4 -0.7 C 16.0 -2.6 15.3 -4.7 14.7 -6.2 " transform="translate(0.0 38.0)" stroke-dasharray="5.763209731445283" stroke-dashoffset="5.763209731445283"><animate attributeName="stroke-dashoffset" from="5.763209731445283" to="0" dur="0.17289629194335848s" begin="2.096740735109546s" fill="freeze" /></path><path d="M 21.4 -2.0 C 20.9 -3.7 19.9 -5.8 19.2 -6.9 " transform="translate(0.0 38.0)" stroke-dasharray="5.384935579455305" stroke-dashoffset="5.384935579455305"><animate attributeName="stroke-dashoffset" from="5.384935579455305" to="0" dur="0.16154806738365912s" begin="2.2696370270529047s" fill="freeze" /></path><path d="M 12.7 -11.8 L 12.7 -26.6 " transform="translate(0.0 38.0)" stroke-dasharray="14.8" stroke-dashoffset="14.8"><animate attributeName="stroke-dashoffset" from="14.8" to="0" dur="0.444s" begin="2.4311850944365636s" fill="freeze" /></path><path d="M 18.9 -19.5 L 6.2 -19.5 " transform="translate(0.0 38.0)" stroke-dasharray="12.7" stroke-dashoffset="12.7"><animate attributeName="stroke-dashoffset" from="12.7" to="0" dur="0.38099999999999995s" begin="2.8751850944365636s" fill="freeze" /></path><path d="M 35.1 2.6 L 35.1 -11.2 " transform="translate(0.0 38.0)" stroke-dasharray="13.799999999999999" stroke-dashoffset="13.799999999999999"><animate attributeName="stroke-dashoffset" from="13.799999999999999" to="0" dur="0.414s" begin="3.2561850944365633s" fill="freeze" /></path><path d="M 46.6 -4.8 L 24.6 -4.8 " transform="translate(0.0 38.0)" stroke-dasharray="22.0" stroke-dashoffset="22.0"><animate attributeName="stroke-dashoffset" from="22.0" to="0" dur="0.6599999999999999s" begin="3.6701850944365635s" fill="freeze" /></path><path d="M 3.0 -28.6 C 5.5 -31.5 8.1 -36.0 9.7 -40.2 " transform="translate(0.0 38.0)" stroke-dasharray="13.455073532598064" stroke-dashoffset="13.455073532598064"><animate attributeName="stroke-dashoffset" from="13.455073532598064" to="0" dur="0.4036522059779419s" begin="4.330185094436564s" fill="freeze" /></path><path d="M 12.9 -28.1 C 13.8 -29.9 14.6 -31.4 14.9 -32.5 C 15.4 -34.1 14.8 -35.1 12.7 -35.1 L 7.4 -35.1 " transform="translate(0.0 38.0)" stroke-dasharray="14.38469360696444" stroke-dashoffset="14.38469360696444"><animate attributeName="stroke-dashoffset" from="14.38469360696444" to="0" dur="0.4315408082089332s" begin="4.733837300414505s" fill="freeze" /></path><path d="M 43.5 -13.9 L 43.5 -19.4 C 43.5 -21.3 42.6 -22.2 39.9 -22.2 L 30.6 -22.2 C 27.9 -22.2 26.9 -21.3 26.9 -19.4 L 26.9 -13.9 C 26.9 -11.9 27.9 -10.9 30.6 -10.9 L 39.9 -10.9 C 42.6 -10.9 43.5 -11.9 43.5 -13.9 Z " transform="translate(0.0 38.0)" stroke-dasharray="51.17131296787584" stroke-dashoffset="51.17131296787584"><animate attributeName="stroke-dashoffset" from="51.17131296787584" to="0" dur="1.5351393890362752s" begin="5.165378108623439s" fill="freeze" /></path><path d="M 42.8 -16.6 L 27.9 -16.6 " transform="translate(0.0 38.0)" stroke-dasharray="14.899999999999999" stroke-dashoffset="14.899999999999999"><animate attributeName="stroke-dashoffset" from="14.899999999999999" to="0" dur="0.44699999999999995s" begin="6.700517497659714s" fill="freeze" /></path><path d="M 30.8 -30.5 C 30.5 -31.2 30.1 -31.9 29.6 -32.7 " transform="translate(0.0 38.0)" stroke-dasharray="2.5084800388807063" stroke-dashoffset="2.5084800388807063"><animate attributeName="stroke-dashoffset" from="2.5084800388807063" to="0" dur="0.07525440116642118s" begin="7.147517497659714s" fill="freeze" /></path><path d="M 47.2 -27.6 L 23.1 -27.6 " transform="translate(0.0 38.0)" stroke-dasharray="24.1" stroke-dashoffset="24.1"><animate attributeName="stroke-dashoffset" from="24.1" to="0" dur="0.723s" begin="7.222771898826135s" fill="freeze" /></path><path d="M 37.9 -27.7 C 38.6 -29.1 39.4 -30.9 40.1 -32.8 " transform="translate(0.0 38.0)" stroke-dasharray="5.556974024561639" stroke-dashoffset="5.556974024561639"><animate attributeName="stroke-dashoffset" from="5.556974024561639" to="0" dur="0.16670922073684918s" begin="7.945771898826135s" fill="freeze" /></path><path d="M 45.2 -36.5 L 25.1 -36.5 " transform="translate(0.0 38.0)" stroke-dasharray="20.1" stroke-dashoffset="20.1"><animate attributeName="stroke-dashoffset" from="20.1" to="0" dur="0.603s" begin="8.112481119562984s" fill="freeze" /></path><path d="M 35.1 -36.2 L 35.1 -40.8" transform="translate(0.0 38.0)" stroke-dasharray="4.599999999999994" stroke-dashoffset="4.599999999999994"><animate attributeName="stroke-dashoffset" from="4.599999999999994" to="0" dur="0.13799999999999982s" begin="8.715481119562984s" fill="freeze" /></path></g></svg>