<?xml version='1.0' encoding='utf-8'?>
<svg viewBox="0.0 -6.0 50.0 50.0" version="1.1" xmlns="http://www.w3.org/2000/svg"><rect x="-1000" y="-1000" width="2000" height="2000" stroke="white" fill="white" /><g style="fill:none;stroke:#000000;stroke-width:1"><path d="M 11.7 -3.0 C 12.3 -2.8 12.8 -2.8 13.5 -2.8 C 15.2 -2.8 16.4 -3.9 16.4 -6.5 C 16.4 -9.1 14.9 -11.2 11.9 -13.1 L 11.9 -13.7 C 13.3 -15.6 14.3 -17.4 15.3 -19.4 C 16.4 -21.2 15.5 -22.4 13.3 -22.4 L 9.7 -22.4 C 7.8 -22.4 7.1 -21.8 7.1 -20.1 L 7.1 3.0 " transform="translate(0.0 38.0)" stroke-dasharray="58.32587040435251" stroke-dashoffset="58.32587040435251"><animate attributeName="stroke-dashoffset" from="58.32587040435251" to="0" dur="1.749776112130575s" begin="0s" fill="freeze" /></path><path d="M 20.7 -3.7 C 22.1 -5.2 23.3 -7.4 24.1 -9.3 " transform="translate(0.0 38.0)" stroke-dasharray="6.5823242990938535" stroke-dashoffset="6.5823242990938535"><animate attributeName="stroke-dashoffset" from="6.5823242990938535" to="0" dur="0.1974697289728156s" begin="1.749776112130575s" fill="freeze" /></path><path d="M 45.1 1.9 L 18.7 1.9 " transform="translate(0.0 38.0)" stroke-dasharray="26.400000000000002" stroke-dashoffset="26.400000000000002"><animate attributeName="stroke-dashoffset" from="26.400000000000002" to="0" dur="0.792s" begin="1.9472458411033906s" fill="freeze" /></path><path d="M 40.2 -2.4 L 24.9 -2.4 " transform="translate(0.0 38.0)" stroke-dasharray="15.300000000000004" stroke-dashoffset="15.300000000000004"><animate attributeName="stroke-dashoffset" from="15.300000000000004" to="0" dur="0.45900000000000013s" begin="2.739245841103391s" fill="freeze" /></path><path d="M 32.6 2.2 L 32.6 -10.7 " transform="translate(0.0 38.0)" stroke-dasharray="12.899999999999999" stroke-dashoffset="12.899999999999999"><animate attributeName="stroke-dashoffset" from="12.899999999999999" to="0" dur="0.38699999999999996s" begin="3.198245841103391s" fill="freeze" /></path><path d="M 43.0 -6.8 L 22.8 -6.8 " transform="translate(0.0 38.0)" stroke-dasharray="20.2" stroke-dashoffset="20.2"><animate attributeName="stroke-dashoffset" from="20.2" to="0" dur="0.606s" begin="3.585245841103391s" fill="freeze" /></path><path d="M 19.2 -26.9 L 10.8 -26.9 " transform="translate(0.0 38.0)" stroke-dasharray="8.399999999999999" stroke-dashoffset="8.399999999999999"><animate attributeName="stroke-dashoffset" from="8.399999999999999" to="0" dur="0.25199999999999995s" begin="4.191245841103391s" fill="freeze" /></path><path d="M 37.1 -11.2 L 28.4 -11.2 " transform="translate(0.0 38.0)" stroke-dasharray="8.700000000000003" stroke-dashoffset="8.700000000000003"><animate attributeName="stroke-dashoffset" from="8.700000000000003" to="0" dur="0.26100000000000007s" begin="4.443245841103391s" fill="freeze" /></path><path d="M 21.2 -17.4 C 23.9 -18.8 27.1 -21.1 29.3 -23.6 " transform="translate(0.0 38.0)" stroke-dasharray="10.253099581136476" stroke-dashoffset="10.253099581136476"><animate attributeName="stroke-dashoffset" from="10.253099581136476" to="0" dur="0.3075929874340943s" begin="4.704245841103391s" fill="freeze" /></path><path d="M 20.2 -11.9 C 26.3 -13.0 33.9 -15.8 37.5 -18.6 C 39.2 -19.9 38.6 -21.3 36.4 -21.3 L 27.6 -21.3 " transform="translate(0.0 38.0)" stroke-dasharray="31.998820188203485" stroke-dashoffset="31.998820188203485"><animate attributeName="stroke-dashoffset" from="31.998820188203485" to="0" dur="0.9599646056461045s" begin="5.011838828537485s" fill="freeze" /></path><path d="M 19.2 -30.9 L 11.3 -30.9 " transform="translate(0.0 38.0)" stroke-dasharray="7.899999999999999" stroke-dashoffset="7.899999999999999"><animate attributeName="stroke-dashoffset" from="7.899999999999999" to="0" dur="0.23699999999999996s" begin="5.971803434183589s" fill="freeze" /></path><path d="M 45.2 -12.7 C 38.3 -13.5 31.3 -16.0 26.8 -19.8 " transform="translate(0.0 38.0)" stroke-dasharray="19.983729162850896" stroke-dashoffset="19.983729162850896"><animate attributeName="stroke-dashoffset" from="19.983729162850896" to="0" dur="0.5995118748855268s" begin="6.208803434183589s" fill="freeze" /></path><path d="M 24.9 -25.9 L 24.9 -39.1 " transform="translate(0.0 38.0)" stroke-dasharray="13.200000000000003" stroke-dashoffset="13.200000000000003"><animate attributeName="stroke-dashoffset" from="13.200000000000003" to="0" dur="0.3960000000000001s" begin="6.8083153090691155s" fill="freeze" /></path><path d="M 44.2 -29.8 L 44.2 -32.6 C 44.2 -34.0 43.6 -34.9 41.3 -34.9 L 8.7 -34.9 C 6.3 -34.9 5.7 -34.0 5.7 -32.6 L 5.7 -29.6 " transform="translate(0.0 38.0)" stroke-dasharray="47.047428076249396" stroke-dashoffset="47.047428076249396"><animate attributeName="stroke-dashoffset" from="47.047428076249396" to="0" dur="1.411422842287482s" begin="7.204315309069115s" fill="freeze" /></path><path d="M 39.1 -26.9 L 30.4 -26.9 " transform="translate(0.0 38.0)" stroke-dasharray="8.700000000000003" stroke-dashoffset="8.700000000000003"><animate attributeName="stroke-dashoffset" from="8.700000000000003" to="0" dur="0.26100000000000007s" begin="8.615738151356597s" fill="freeze" /></path><path d="M 41.4 -39.2 L 9.2 -39.2 " transform="translate(0.0 38.0)" stroke-dasharray="32.2" stroke-dashoffset="32.2"><animate attributeName="stroke-dashoffset" from="32.2" to="0" dur="0.9660000000000001s" begin="8.876738151356596s" fill="freeze" /></path><path d="M 38.2 -30.9 L 30.4 -30.9" transform="translate(0.0 38.0)" stroke-dasharray="7.800000000000004" stroke-dashoffset="7.800000000000004"><animate attributeName="stroke-dashoffset" from="7.800000000000004" to="0" dur="0.23400000000000012s" begin="9.842738151356595s" fill="freeze" /></path></g></svg>