<?xml version='1.0' encoding='utf-8'?>
<svg viewBox="0.0 -6.0 50.0 50.0" version="1.1" xmlns="http://www.w3.org/2000/svg"><rect x="-1000" y="-1000" width="2000" height="2000" stroke="white" fill="white" /><g style="fill:none;stroke:#000000;stroke-width:1"><path d="M 46.8 0.2 C 42.3 0.6 37.9 0.7 32.4 0.7 C 19.8 0.7 12.9 -3.6 9.9 -10.9 " transform="translate(0.0 38.0)" stroke-dasharray="41.432221003186946" stroke-dashoffset="41.432221003186946"><animate attributeName="stroke-dashoffset" from="41.432221003186946" to="0" dur="1.2429666300956084s" begin="0s; 15s; 30s; 45s" fill="freeze" id="anim0" /></path><path d="M 4.4 2.0 C 10.2 -0.1 16.6 -4.5 19.4 -9.8 C 20.2 -11.5 19.6 -12.8 17.4 -12.8 L 10.8 -12.8 " transform="translate(0.0 38.0)" stroke-dasharray="30.70000563007317" stroke-dashoffset="30.70000563007317"><animate attributeName="stroke-dashoffset" from="30.70000563007317" to="0" dur="0.9210001689021952s" begin="anim0.end" fill="freeze" id="anim1" /></path><path d="M 5.2 -6.8 C 8.0 -8.9 11.1 -12.7 12.7 -15.8 " transform="translate(0.0 38.0)" stroke-dasharray="11.797380858370783" stroke-dashoffset="11.797380858370783"><animate attributeName="stroke-dashoffset" from="11.797380858370783" to="0" dur="0.35392142575112345s" begin="anim1.end" fill="freeze" id="anim2" /></path><path d="M 4.1 -15.3 C 7.6 -17.6 11.5 -21.4 14.3 -25.6 " transform="translate(0.0 38.0)" stroke-dasharray="14.584949363615676" stroke-dashoffset="14.584949363615676"><animate attributeName="stroke-dashoffset" from="14.584949363615676" to="0" dur="0.43754848090847026s" begin="anim2.end" fill="freeze" id="anim3" /></path><path d="M 4.2 -23.9 C 5.8 -26.0 7.4 -28.8 8.6 -31.6 " transform="translate(0.0 38.0)" stroke-dasharray="8.889286096800095" stroke-dashoffset="8.889286096800095"><animate attributeName="stroke-dashoffset" from="8.889286096800095" to="0" dur="0.26667858290400287s" begin="anim3.end" fill="freeze" id="anim4" /></path><path d="M 10.4 -26.4 C 9.8 -26.9 8.8 -27.6 7.9 -28.1 " transform="translate(0.0 38.0)" stroke-dasharray="3.0269506953415495" stroke-dashoffset="3.0269506953415495"><animate attributeName="stroke-dashoffset" from="3.0269506953415495" to="0" dur="0.09080852086024647s" begin="anim4.end" fill="freeze" id="anim5" /></path><path d="M 22.9 -17.9 C 20.9 -19.7 17.9 -21.8 15.4 -23.2 " transform="translate(0.0 38.0)" stroke-dasharray="9.199792451404647" stroke-dashoffset="9.199792451404647"><animate attributeName="stroke-dashoffset" from="9.199792451404647" to="0" dur="0.2759937735421394s" begin="anim5.end" fill="freeze" id="anim6" /></path><path d="M 14.4 -19.1 L 14.4 -40.5 " transform="translate(0.0 38.0)" stroke-dasharray="21.4" stroke-dashoffset="21.4"><animate attributeName="stroke-dashoffset" from="21.4" to="0" dur="0.6419999999999999s" begin="anim6.end" fill="freeze" id="anim7" /></path><path d="M 18.2 -25.9 C 19.6 -27.5 20.8 -29.9 21.6 -31.9 " transform="translate(0.0 38.0)" stroke-dasharray="6.926073122950571" stroke-dashoffset="6.926073122950571"><animate attributeName="stroke-dashoffset" from="6.926073122950571" to="0" dur="0.20778219368851714s" begin="anim7.end" fill="freeze" id="anim8" /></path><path d="M 23.9 -25.8 C 23.2 -26.6 22.2 -27.4 20.9 -28.3 " transform="translate(0.0 38.0)" stroke-dasharray="3.9145256809695375" stroke-dashoffset="3.9145256809695375"><animate attributeName="stroke-dashoffset" from="3.9145256809695375" to="0" dur="0.11743577042908612s" begin="anim8.end" fill="freeze" id="anim9" /></path><path d="M 24.1 -35.4 L 4.8 -35.4 " transform="translate(0.0 38.0)" stroke-dasharray="19.3" stroke-dashoffset="19.3"><animate attributeName="stroke-dashoffset" from="19.3" to="0" dur="0.579s" begin="anim9.end" fill="freeze" id="anim10" /></path><path d="M 44.5 -6.8 C 42.0 -10.7 38.4 -14.9 34.9 -17.9 " transform="translate(0.0 38.0)" stroke-dasharray="14.722862219856506" stroke-dashoffset="14.722862219856506"><animate attributeName="stroke-dashoffset" from="14.722862219856506" to="0" dur="0.44168586659569514s" begin="anim10.end" fill="freeze" id="anim11" /></path><path d="M 26.6 -5.5 C 33.1 -10.8 36.5 -17.9 36.5 -31.6 L 36.5 -40.0 " transform="translate(0.0 38.0)" stroke-dasharray="37.38480515576824" stroke-dashoffset="37.38480515576824"><animate attributeName="stroke-dashoffset" from="37.38480515576824" to="0" dur="1.1215441546730471s" begin="anim11.end" fill="freeze" id="anim12" /></path><path d="M 46.2 -22.2 L 27.6 -22.2 " transform="translate(0.0 38.0)" stroke-dasharray="18.6" stroke-dashoffset="18.6"><animate attributeName="stroke-dashoffset" from="18.6" to="0" dur="0.558s" begin="anim12.end" fill="freeze" id="anim13" /></path><path d="M 44.8 -32.2 L 28.9 -32.2" transform="translate(0.0 38.0)" stroke-dasharray="15.899999999999999" stroke-dashoffset="15.899999999999999"><animate attributeName="stroke-dashoffset" from="15.899999999999999" to="0" dur="0.4769999999999999s" begin="anim13.end" fill="freeze" id="anim_end" /></path></g></svg>