<?xml version='1.0' encoding='utf-8'?>
<svg viewBox="0.0 -6.0 50.0 50.0" version="1.1" xmlns="http://www.w3.org/2000/svg"><rect x="-1000" y="-1000" width="2000" height="2000" stroke="white" fill="white" /><g style="fill:none;stroke:#000000;stroke-width:1"><path d="M 46.5 -22.6 C 41.1 -26.7 36.9 -32.8 35.0 -39.2 " transform="translate(0.0 38.0)" stroke-dasharray="20.521642867200782" stroke-dashoffset="20.521642867200782"><animate attributeName="stroke-dashoffset" from="20.521642867200782" to="0" dur="0.6156492860160234s" begin="0s; 15s; 30s; 45s" fill="freeze" id="anim0" /></path><path d="M 4.0 -1.1 C 8.4 -1.6 13.8 -2.9 17.8 -4.2 " transform="translate(0.0 38.0)" stroke-dasharray="14.164707312660457" stroke-dashoffset="14.164707312660457"><animate attributeName="stroke-dashoffset" from="14.164707312660457" to="0" dur="0.4249412193798137s" begin="anim0.end" fill="freeze" id="anim1" /></path><path d="M 6.5 -7.3 C 6.2 -9.1 5.4 -11.1 4.7 -12.3 " transform="translate(0.0 38.0)" stroke-dasharray="5.338983522739733" stroke-dashoffset="5.338983522739733"><animate attributeName="stroke-dashoffset" from="5.338983522739733" to="0" dur="0.160169505682192s" begin="anim1.end" fill="freeze" id="anim2" /></path><path d="M 11.2 -3.0 L 11.2 -26.6 " transform="translate(0.0 38.0)" stroke-dasharray="23.6" stroke-dashoffset="23.6"><animate attributeName="stroke-dashoffset" from="23.6" to="0" dur="0.708s" begin="anim2.end" fill="freeze" id="anim3" /></path><path d="M 15.7 -8.8 C 16.2 -10.1 16.9 -11.7 17.3 -13.6 " transform="translate(0.0 38.0)" stroke-dasharray="5.066458465567247" stroke-dashoffset="5.066458465567247"><animate attributeName="stroke-dashoffset" from="5.066458465567247" to="0" dur="0.1519937539670174s" begin="anim3.end" fill="freeze" id="anim4" /></path><path d="M 17.6 -18.9 L 3.5 -18.9 " transform="translate(0.0 38.0)" stroke-dasharray="14.100000000000001" stroke-dashoffset="14.100000000000001"><animate attributeName="stroke-dashoffset" from="14.100000000000001" to="0" dur="0.42300000000000004s" begin="anim4.end" fill="freeze" id="anim5" /></path><path d="M 45.4 0.9 L 20.7 0.9 " transform="translate(0.0 38.0)" stroke-dasharray="24.7" stroke-dashoffset="24.7"><animate attributeName="stroke-dashoffset" from="24.7" to="0" dur="0.741s" begin="anim5.end" fill="freeze" id="anim6" /></path><path d="M 29.6 -2.8 C 29.1 -3.8 28.6 -4.6 28.0 -5.5 " transform="translate(0.0 38.0)" stroke-dasharray="3.1407009627416085" stroke-dashoffset="3.1407009627416085"><animate attributeName="stroke-dashoffset" from="3.1407009627416085" to="0" dur="0.09422102888224825s" begin="anim6.end" fill="freeze" id="anim7" /></path><path d="M 16.2 -26.6 L 6.8 -26.6 " transform="translate(0.0 38.0)" stroke-dasharray="9.399999999999999" stroke-dashoffset="9.399999999999999"><animate attributeName="stroke-dashoffset" from="9.399999999999999" to="0" dur="0.282s" begin="anim7.end" fill="freeze" id="anim8" /></path><path d="M 35.6 0.2 C 36.6 -1.6 37.5 -3.5 38.2 -5.4 " transform="translate(0.0 38.0)" stroke-dasharray="6.180168889559179" stroke-dashoffset="6.180168889559179"><animate attributeName="stroke-dashoffset" from="6.180168889559179" to="0" dur="0.18540506668677537s" begin="anim8.end" fill="freeze" id="anim9" /></path><path d="M 3.0 -28.9 C 6.2 -31.6 9.5 -35.6 11.8 -39.5 " transform="translate(0.0 38.0)" stroke-dasharray="13.836144581889453" stroke-dashoffset="13.836144581889453"><animate attributeName="stroke-dashoffset" from="13.836144581889453" to="0" dur="0.41508433745668355s" begin="anim9.end" fill="freeze" id="anim10" /></path><path d="M 28.9 -9.8 L 37.9 -9.8 C 40.2 -9.8 41.1 -10.6 41.1 -12.3 L 41.1 -15.1 C 41.1 -16.9 40.2 -17.6 37.9 -17.6 L 28.9 -17.6 C 26.6 -17.6 25.7 -16.9 25.7 -15.1 L 25.7 -12.3 C 25.7 -10.6 26.6 -9.8 28.9 -9.8 Z " transform="translate(0.0 38.0)" stroke-dasharray="42.39253466522587" stroke-dashoffset="42.39253466522587"><animate attributeName="stroke-dashoffset" from="42.39253466522587" to="0" dur="1.271776039956776s" begin="anim10.end" fill="freeze" id="anim11" /></path><path d="M 17.4 -32.3 C 15.8 -34.2 13.6 -36.3 11.6 -37.8 " transform="translate(0.0 38.0)" stroke-dasharray="8.008547440056812" stroke-dashoffset="8.008547440056812"><animate attributeName="stroke-dashoffset" from="8.008547440056812" to="0" dur="0.24025642320170437s" begin="anim11.end" fill="freeze" id="anim12" /></path><path d="M 26.1 -28.4 C 24.6 -30.1 23.4 -31.1 22.1 -32.1 " transform="translate(0.0 38.0)" stroke-dasharray="5.458573242240758" stroke-dashoffset="5.458573242240758"><animate attributeName="stroke-dashoffset" from="5.458573242240758" to="0" dur="0.1637571972672227s" begin="anim12.end" fill="freeze" id="anim13" /></path><path d="M 21.2 -21.8 C 24.9 -25.2 28.7 -30.6 30.4 -35.2 C 31.0 -37.1 30.4 -38.2 28.0 -38.2 L 23.8 -38.2 " transform="translate(0.0 38.0)" stroke-dasharray="25.42381940644052" stroke-dashoffset="25.42381940644052"><animate attributeName="stroke-dashoffset" from="25.42381940644052" to="0" dur="0.7627145821932155s" begin="anim13.end" fill="freeze" id="anim14" /></path><path d="M 37.8 -24.1 L 28.9 -24.1 " transform="translate(0.0 38.0)" stroke-dasharray="8.899999999999999" stroke-dashoffset="8.899999999999999"><animate attributeName="stroke-dashoffset" from="8.899999999999999" to="0" dur="0.26699999999999996s" begin="anim14.end" fill="freeze" id="anim15" /></path><path d="M 37.7 -33.6 C 39.2 -34.8 41.5 -36.6 42.4 -37.2 " transform="translate(0.0 38.0)" stroke-dasharray="5.921319492576865" stroke-dashoffset="5.921319492576865"><animate attributeName="stroke-dashoffset" from="5.921319492576865" to="0" dur="0.17763958477730596s" begin="anim15.end" fill="freeze" id="anim16" /></path><path d="M 41.0 -28.4 C 42.5 -29.5 44.1 -30.6 45.3 -31.6" transform="translate(0.0 38.0)" stroke-dasharray="5.360998900443985" stroke-dashoffset="5.360998900443985"><animate attributeName="stroke-dashoffset" from="5.360998900443985" to="0" dur="0.16082996701331953s" begin="anim16.end" fill="freeze" id="anim_end" /></path></g></svg>