<?xml version='1.0' encoding='utf-8'?>
<svg viewBox="0.0 -6.0 50.0 50.0" version="1.1" xmlns="http://www.w3.org/2000/svg"><rect x="-1000" y="-1000" width="2000" height="2000" stroke="white" fill="white" /><g style="fill:none;stroke:#000000;stroke-width:1"><path d="M 12.7 1.2 C 13.3 1.4 14.1 1.4 15.1 1.4 C 17.1 1.4 18.5 0.6 19.3 -2.0 C 20.1 -4.8 20.6 -8.6 20.6 -12.1 C 20.6 -13.9 19.9 -15.1 17.4 -15.1 L 8.6 -15.1 C 6.3 -15.1 5.5 -15.8 5.5 -17.9 L 5.5 -35.1 C 5.5 -37.3 6.4 -38.2 8.8 -38.2 L 20.3 -38.2 " transform="translate(0.0 38.0)" stroke-dasharray="71.28119959392029" stroke-dashoffset="71.28119959392029"><animate attributeName="stroke-dashoffset" from="71.28119959392029" to="0" dur="2.1384359878176085s" begin="0s" fill="freeze" /></path><path d="M 3.0 -1.4 C 3.8 -3.4 4.2 -5.8 4.5 -8.2 " transform="translate(0.0 38.0)" stroke-dasharray="6.982121796530397" stroke-dashoffset="6.982121796530397"><animate attributeName="stroke-dashoffset" from="6.982121796530397" to="0" dur="0.20946365389591193s" begin="2.1384359878176085s" fill="freeze" /></path><path d="M 8.8 -3.5 C 8.7 -5.2 8.3 -7.5 8.0 -8.7 " transform="translate(0.0 38.0)" stroke-dasharray="5.266964554961334" stroke-dashoffset="5.266964554961334"><animate attributeName="stroke-dashoffset" from="5.266964554961334" to="0" dur="0.15800893664884003s" begin="2.3478996417135205s" fill="freeze" /></path><path d="M 13.1 -5.7 C 12.7 -7.0 12.1 -8.6 11.4 -9.7 " transform="translate(0.0 38.0)" stroke-dasharray="4.357817982456079" stroke-dashoffset="4.357817982456079"><animate attributeName="stroke-dashoffset" from="4.357817982456079" to="0" dur="0.13073453947368235s" begin="2.5059085783623605s" fill="freeze" /></path><path d="M 16.6 -7.7 C 16.2 -8.8 15.4 -10.1 14.8 -11.0 " transform="translate(0.0 38.0)" stroke-dasharray="3.7669982488642475" stroke-dashoffset="3.7669982488642475"><animate attributeName="stroke-dashoffset" from="3.7669982488642475" to="0" dur="0.11300994746592742s" begin="2.636643117836043s" fill="freeze" /></path><path d="M 19.3 -23.2 L 6.3 -23.2 " transform="translate(0.0 38.0)" stroke-dasharray="13.0" stroke-dashoffset="13.0"><animate attributeName="stroke-dashoffset" from="13.0" to="0" dur="0.39s" begin="2.7496530653019704s" fill="freeze" /></path><path d="M 23.2 1.7 C 30.1 -0.6 37.1 -5.8 40.3 -11.5 C 41.5 -13.6 40.8 -15.1 38.3 -15.1 L 30.4 -15.1 " transform="translate(0.0 38.0)" stroke-dasharray="35.39028749644732" stroke-dashoffset="35.39028749644732"><animate attributeName="stroke-dashoffset" from="35.39028749644732" to="0" dur="1.0617086248934196s" begin="3.1396530653019705s" fill="freeze" /></path><path d="M 13.0 -15.0 L 13.0 -37.9 " transform="translate(0.0 38.0)" stroke-dasharray="22.9" stroke-dashoffset="22.9"><animate attributeName="stroke-dashoffset" from="22.9" to="0" dur="0.6869999999999999s" begin="4.20136169019539s" fill="freeze" /></path><path d="M 25.4 -8.7 C 28.1 -10.9 31.3 -15.3 32.8 -18.9 " transform="translate(0.0 38.0)" stroke-dasharray="12.703010323886966" stroke-dashoffset="12.703010323886966"><animate attributeName="stroke-dashoffset" from="12.703010323886966" to="0" dur="0.38109030971660895s" begin="4.88836169019539s" fill="freeze" /></path><path d="M 45.9 0.9 C 38.9 -1.4 32.6 -6.5 29.8 -13.2 " transform="translate(0.0 38.0)" stroke-dasharray="22.04993170568018" stroke-dashoffset="22.04993170568018"><animate attributeName="stroke-dashoffset" from="22.04993170568018" to="0" dur="0.6614979511704053s" begin="5.2694519999119995s" fill="freeze" /></path><path d="M 19.3 -30.6 L 6.3 -30.6 " transform="translate(0.0 38.0)" stroke-dasharray="13.0" stroke-dashoffset="13.0"><animate attributeName="stroke-dashoffset" from="13.0" to="0" dur="0.39s" begin="5.930949951082405s" fill="freeze" /></path><path d="M 24.0 -19.1 C 27.4 -20.8 29.5 -23.6 30.3 -26.9 " transform="translate(0.0 38.0)" stroke-dasharray="10.362765545025308" stroke-dashoffset="10.362765545025308"><animate attributeName="stroke-dashoffset" from="10.362765545025308" to="0" dur="0.31088296635075924s" begin="6.3209499510824045s" fill="freeze" /></path><path d="M 24.6 -30.9 C 30.8 -31.1 36.6 -31.4 42.9 -32.3 " transform="translate(0.0 38.0)" stroke-dasharray="18.363340020047545" stroke-dashoffset="18.363340020047545"><animate attributeName="stroke-dashoffset" from="18.363340020047545" to="0" dur="0.5509002006014263s" begin="6.631832917433163s" fill="freeze" /></path><path d="M 28.6 -31.6 C 30.3 -34.2 31.6 -36.6 32.8 -39.5 " transform="translate(0.0 38.0)" stroke-dasharray="8.961036085943006" stroke-dashoffset="8.961036085943006"><animate attributeName="stroke-dashoffset" from="8.961036085943006" to="0" dur="0.26883108257829014s" begin="7.18273311803459s" fill="freeze" /></path><path d="M 46.0 -25.3 C 45.8 -22.6 44.6 -21.8 41.2 -21.8 C 38.3 -21.8 37.6 -22.2 37.6 -24.1 L 37.6 -30.7 " transform="translate(0.0 38.0)" stroke-dasharray="18.490098436860645" stroke-dashoffset="18.490098436860645"><animate attributeName="stroke-dashoffset" from="18.490098436860645" to="0" dur="0.5547029531058193s" begin="7.45156420061288s" fill="freeze" /></path><path d="M 44.4 -30.7 C 42.9 -32.6 41.0 -34.4 39.5 -35.7" transform="translate(0.0 38.0)" stroke-dasharray="7.010573335536199" stroke-dashoffset="7.010573335536199"><animate attributeName="stroke-dashoffset" from="7.010573335536199" to="0" dur="0.21031720006608595s" begin="8.0062671537187s" fill="freeze" /></path></g></svg>