<?xml version='1.0' encoding='utf-8'?>
<svg viewBox="0.0 -6.0 50.0 50.0" version="1.1" xmlns="http://www.w3.org/2000/svg"><rect x="-1000" y="-1000" width="2000" height="2000" stroke="white" fill="white" /><g style="fill:none;stroke:#000000;stroke-width:1"><path d="M 38.2 -5.5 C 39.2 -5.2 40.1 -5.0 41.2 -5.0 C 44.0 -5.0 45.6 -7.0 45.6 -11.1 C 45.6 -15.2 43.9 -18.5 39.0 -22.2 L 39.1 -23.1 C 41.0 -26.6 42.6 -30.4 43.8 -34.0 C 44.5 -36.4 43.6 -37.8 40.9 -37.8 L 35.5 -37.8 C 33.1 -37.8 32.2 -36.9 32.2 -34.7 L 32.2 2.4 " transform="translate(0.0 38.0)" stroke-dasharray="91.53170648924385" stroke-dashoffset="91.53170648924385"><animate attributeName="stroke-dashoffset" from="91.53170648924385" to="0" dur="2.7459511946773154s" begin="0s; anim_end.end" fill="freeze" id="anim0" /></path><path d="M 23.1 -3.3 L 23.1 -9.3 C 23.1 -11.7 22.1 -12.6 19.7 -12.6 L 11.9 -12.6 C 9.6 -12.6 8.6 -11.7 8.6 -9.3 L 8.6 -3.3 C 8.6 -0.9 9.6 0.0 11.9 0.0 L 19.7 0.0 C 22.1 0.0 23.1 -0.9 23.1 -3.3 Z " transform="translate(0.0 38.0)" stroke-dasharray="49.498556699710996" stroke-dashoffset="49.498556699710996"><animate attributeName="stroke-dashoffset" from="49.498556699710996" to="0" dur="1.4849567009913298s" begin="anim0.end" fill="freeze" id="anim1" /></path><path d="M 3.9 -15.3 C 8.0 -18.3 12.6 -22.9 15.6 -27.4 " transform="translate(0.0 38.0)" stroke-dasharray="16.908705791979983" stroke-dashoffset="16.908705791979983"><animate attributeName="stroke-dashoffset" from="16.908705791979983" to="0" dur="0.5072611737593995s" begin="anim1.end" fill="freeze" id="anim2" /></path><path d="M 25.2 -17.9 C 22.9 -20.5 18.9 -23.6 15.4 -25.8 " transform="translate(0.0 38.0)" stroke-dasharray="12.623430206585395" stroke-dashoffset="12.623430206585395"><animate attributeName="stroke-dashoffset" from="12.623430206585395" to="0" dur="0.37870290619756186s" begin="anim2.end" fill="freeze" id="anim3" /></path><path d="M 5.0 -28.8 C 8.4 -31.1 12.6 -35.0 15.8 -39.2 " transform="translate(0.0 38.0)" stroke-dasharray="15.051992703977065" stroke-dashoffset="15.051992703977065"><animate attributeName="stroke-dashoffset" from="15.051992703977065" to="0" dur="0.45155978111931194s" begin="anim3.end" fill="freeze" id="anim4" /></path><path d="M 24.4 -31.2 C 22.0 -33.5 19.0 -35.6 15.7 -37.3" transform="translate(0.0 38.0)" stroke-dasharray="10.661504316216535" stroke-dashoffset="10.661504316216535"><animate attributeName="stroke-dashoffset" from="10.661504316216535" to="0" dur="0.319845129486496s" begin="anim4.end" fill="freeze" id="anim_end" /></path></g></svg>