<?xml version='1.0' encoding='utf-8'?>
<svg viewBox="0.0 -6.0 50.0 50.0" version="1.1" xmlns="http://www.w3.org/2000/svg"><rect x="-1000" y="-1000" width="2000" height="2000" stroke="white" fill="white" /><g style="fill:none;stroke:#000000;stroke-width:1"><path d="M 38.9 1.7 C 39.8 1.9 40.4 1.9 41.2 1.9 C 43.4 1.9 44.2 0.9 44.2 -1.4 L 44.2 -36.1 C 44.2 -38.1 43.4 -39.0 40.6 -39.0 L 32.4 -39.0 C 29.8 -39.0 28.9 -38.1 28.9 -36.2 L 28.9 -31.2 C 28.9 -29.4 29.9 -28.4 32.4 -28.4 L 43.7 -28.4 " transform="translate(0.0 38.0)" stroke-dasharray="82.43583228111042" stroke-dashoffset="82.43583228111042"><animate attributeName="stroke-dashoffset" from="82.43583228111042" to="0" dur="2.4730749684333126s" begin="0s" fill="freeze" /></path><path d="M 11.7 0.8 C 12.4 -0.8 13.3 -2.9 13.8 -4.8 " transform="translate(0.0 38.0)" stroke-dasharray="5.986675292895298" stroke-dashoffset="5.986675292895298"><animate attributeName="stroke-dashoffset" from="5.986675292895298" to="0" dur="0.17960025878685895s" begin="2.4730749684333126s" fill="freeze" /></path><path d="M 20.0 -0.5 C 19.7 -1.9 19.2 -3.3 18.6 -4.6 " transform="translate(0.0 38.0)" stroke-dasharray="4.3411490650658315" stroke-dashoffset="4.3411490650658315"><animate attributeName="stroke-dashoffset" from="4.3411490650658315" to="0" dur="0.13023447195197493s" begin="2.6526752272201715s" fill="freeze" /></path><path d="M 25.8 -1.9 C 25.4 -2.9 24.9 -4.0 24.2 -5.0 " transform="translate(0.0 38.0)" stroke-dasharray="3.496401704532229" stroke-dashoffset="3.496401704532229"><animate attributeName="stroke-dashoffset" from="3.496401704532229" to="0" dur="0.10489205113596686s" begin="2.7829096991721465s" fill="freeze" /></path><path d="M 5.8 2.5 L 5.8 -36.1 C 5.8 -38.1 6.6 -39.0 9.4 -39.0 L 16.9 -39.0 C 19.4 -39.0 20.4 -38.1 20.4 -36.2 L 20.4 -31.2 C 20.4 -29.3 19.4 -28.4 16.9 -28.4 L 6.0 -28.4 " transform="translate(0.0 38.0)" stroke-dasharray="77.73559655296616" stroke-dashoffset="77.73559655296616"><animate attributeName="stroke-dashoffset" from="77.73559655296616" to="0" dur="2.3320678965889847s" begin="2.8878017503081135s" fill="freeze" /></path><path d="M 31.1 -3.6 C 30.4 -4.5 30.1 -4.9 29.4 -5.8 " transform="translate(0.0 38.0)" stroke-dasharray="2.7802917515831815" stroke-dashoffset="2.7802917515831815"><animate attributeName="stroke-dashoffset" from="2.7802917515831815" to="0" dur="0.08340875254749544s" begin="5.219869646897099s" fill="freeze" /></path><path d="M 29.9 0.8 C 30.8 0.9 31.4 1.0 32.1 1.0 C 34.0 1.0 35.1 0.3 35.6 -1.5 C 36.0 -3.0 36.4 -4.8 36.4 -6.8 C 36.4 -8.2 35.6 -8.8 33.1 -8.8 L 18.5 -8.8 C 15.7 -8.8 15.1 -9.5 15.1 -11.3 L 15.1 -21.1 C 15.1 -22.9 15.7 -23.6 18.5 -23.6 L 35.8 -23.6 " transform="translate(0.0 38.0)" stroke-dasharray="68.35442328729316" stroke-dashoffset="68.35442328729316"><animate attributeName="stroke-dashoffset" from="68.35442328729316" to="0" dur="2.0506326986187946s" begin="5.3032783994445944s" fill="freeze" /></path><path d="M 34.0 -13.8 L 15.2 -13.8 " transform="translate(0.0 38.0)" stroke-dasharray="18.8" stroke-dashoffset="18.8"><animate attributeName="stroke-dashoffset" from="18.8" to="0" dur="0.564s" begin="7.353911098063389s" fill="freeze" /></path><path d="M 25.0 -8.7 L 25.0 -23.2 " transform="translate(0.0 38.0)" stroke-dasharray="14.5" stroke-dashoffset="14.5"><animate attributeName="stroke-dashoffset" from="14.5" to="0" dur="0.435s" begin="7.917911098063389s" fill="freeze" /></path><path d="M 33.7 -18.6 L 15.2 -18.6 " transform="translate(0.0 38.0)" stroke-dasharray="18.500000000000004" stroke-dashoffset="18.500000000000004"><animate attributeName="stroke-dashoffset" from="18.500000000000004" to="0" dur="0.555s" begin="8.35291109806339s" fill="freeze" /></path><path d="M 19.8 -33.8 L 6.4 -33.8 " transform="translate(0.0 38.0)" stroke-dasharray="13.4" stroke-dashoffset="13.4"><animate attributeName="stroke-dashoffset" from="13.4" to="0" dur="0.40199999999999997s" begin="8.907911098063389s" fill="freeze" /></path><path d="M 43.6 -33.8 L 29.6 -33.8" transform="translate(0.0 38.0)" stroke-dasharray="14.0" stroke-dashoffset="14.0"><animate attributeName="stroke-dashoffset" from="14.0" to="0" dur="0.42s" begin="9.309911098063388s" fill="freeze" /></path></g></svg>