<?xml version='1.0' encoding='utf-8'?>
<svg viewBox="0.0 -6.0 50.0 50.0" version="1.1" xmlns="http://www.w3.org/2000/svg"><rect x="-1000" y="-1000" width="2000" height="2000" stroke="white" fill="white" /><g style="fill:none;stroke:#000000;stroke-width:1"><path d="M 18.3 -14.2 L 18.3 -25.0 C 18.3 -26.9 17.5 -27.9 15.3 -27.9 L 8.7 -27.9 C 6.5 -27.9 5.7 -26.9 5.7 -25.0 L 5.7 -14.2 C 5.7 -12.4 6.5 -11.4 8.7 -11.4 L 15.3 -11.4 C 17.5 -11.4 18.3 -12.4 18.3 -14.2 Z " transform="translate(0.0 38.0)" stroke-dasharray="53.93691640824864" stroke-dashoffset="53.93691640824864"><animate attributeName="stroke-dashoffset" from="53.93691640824864" to="0" dur="1.6181074922474592s" begin="0s; anim_end.end" fill="freeze" id="anim0" /></path><path d="M 3.4 1.1 C 4.4 -1.1 5.2 -3.8 5.6 -6.2 " transform="translate(0.0 38.0)" stroke-dasharray="7.644360703941869" stroke-dashoffset="7.644360703941869"><animate attributeName="stroke-dashoffset" from="7.644360703941869" to="0" dur="0.22933082111825606s" begin="anim0.end" fill="freeze" id="anim1" /></path><path d="M 10.3 -0.5 C 10.2 -2.4 9.9 -4.7 9.6 -6.2 " transform="translate(0.0 38.0)" stroke-dasharray="5.747009063779692" stroke-dashoffset="5.747009063779692"><animate attributeName="stroke-dashoffset" from="5.747009063779692" to="0" dur="0.17241027191339076s" begin="anim1.end" fill="freeze" id="anim2" /></path><path d="M 15.3 -1.6 C 15.0 -3.4 14.3 -5.3 13.8 -6.8 " transform="translate(0.0 38.0)" stroke-dasharray="5.418159234582668" stroke-dashoffset="5.418159234582668"><animate attributeName="stroke-dashoffset" from="5.418159234582668" to="0" dur="0.16254477703748005s" begin="anim2.end" fill="freeze" id="anim3" /></path><path d="M 19.9 -3.1 C 19.4 -4.7 18.6 -6.5 17.9 -7.5 " transform="translate(0.0 38.0)" stroke-dasharray="4.848548664842819" stroke-dashoffset="4.848548664842819"><animate attributeName="stroke-dashoffset" from="4.848548664842819" to="0" dur="0.14545645994528456s" begin="anim3.end" fill="freeze" id="anim4" /></path><path d="M 11.9 -12.1 L 11.9 -27.1 " transform="translate(0.0 38.0)" stroke-dasharray="15.000000000000002" stroke-dashoffset="15.000000000000002"><animate attributeName="stroke-dashoffset" from="15.000000000000002" to="0" dur="0.45s" begin="anim4.end" fill="freeze" id="anim5" /></path><path d="M 17.5 -19.9 L 6.1 -19.9 " transform="translate(0.0 38.0)" stroke-dasharray="11.4" stroke-dashoffset="11.4"><animate attributeName="stroke-dashoffset" from="11.4" to="0" dur="0.34199999999999997s" begin="anim5.end" fill="freeze" id="anim6" /></path><path d="M 25.0 2.4 C 31.4 1.1 38.0 -1.5 43.3 -5.1 " transform="translate(0.0 38.0)" stroke-dasharray="19.901460333824147" stroke-dashoffset="19.901460333824147"><animate attributeName="stroke-dashoffset" from="19.901460333824147" to="0" dur="0.5970438100147244s" begin="anim6.end" fill="freeze" id="anim7" /></path><path d="M 26.5 -4.0 C 30.7 -5.2 35.1 -7.2 38.6 -9.8 " transform="translate(0.0 38.0)" stroke-dasharray="13.487695535127825" stroke-dashoffset="13.487695535127825"><animate attributeName="stroke-dashoffset" from="13.487695535127825" to="0" dur="0.40463086605383475s" begin="anim7.end" fill="freeze" id="anim8" /></path><path d="M 2.9 -29.0 C 5.3 -31.9 7.5 -35.9 8.9 -39.9 " transform="translate(0.0 38.0)" stroke-dasharray="12.502992255780294" stroke-dashoffset="12.502992255780294"><animate attributeName="stroke-dashoffset" from="12.502992255780294" to="0" dur="0.3750897676734088s" begin="anim8.end" fill="freeze" id="anim9" /></path><path d="M 25.6 -9.4 C 28.6 -10.5 31.6 -12.1 34.0 -14.0 " transform="translate(0.0 38.0)" stroke-dasharray="9.615859977217715" stroke-dashoffset="9.615859977217715"><animate attributeName="stroke-dashoffset" from="9.615859977217715" to="0" dur="0.28847579931653144s" begin="anim9.end" fill="freeze" id="anim10" /></path><path d="M 11.8 -28.6 C 12.7 -30.3 13.4 -31.9 13.8 -32.9 C 14.3 -34.4 13.5 -35.4 11.6 -35.4 L 7.2 -35.4 " transform="translate(0.0 38.0)" stroke-dasharray="13.234780992506847" stroke-dashoffset="13.234780992506847"><animate attributeName="stroke-dashoffset" from="13.234780992506847" to="0" dur="0.3970434297752054s" begin="anim10.end" fill="freeze" id="anim11" /></path><path d="M 22.7 -13.9 C 26.8 -15.8 31.2 -18.8 34.2 -22.0 " transform="translate(0.0 38.0)" stroke-dasharray="14.144924277767677" stroke-dashoffset="14.144924277767677"><animate attributeName="stroke-dashoffset" from="14.144924277767677" to="0" dur="0.4243477283330303s" begin="anim11.end" fill="freeze" id="anim12" /></path><path d="M 22.6 -23.6 C 25.5 -23.9 29.1 -24.4 31.8 -24.9 " transform="translate(0.0 38.0)" stroke-dasharray="9.29353676977897" stroke-dashoffset="9.29353676977897"><animate attributeName="stroke-dashoffset" from="9.29353676977897" to="0" dur="0.2788061030933691s" begin="anim12.end" fill="freeze" id="anim13" /></path><path d="M 23.7 -23.9 C 24.8 -25.8 25.6 -27.6 26.2 -29.6 " transform="translate(0.0 38.0)" stroke-dasharray="6.238928045837183" stroke-dashoffset="6.238928045837183"><animate attributeName="stroke-dashoffset" from="6.238928045837183" to="0" dur="0.1871678413751155s" begin="anim13.end" fill="freeze" id="anim14" /></path><path d="M 32.5 -24.4 C 32.0 -25.6 31.0 -27.2 30.1 -28.2 " transform="translate(0.0 38.0)" stroke-dasharray="4.51184992859985" stroke-dashoffset="4.51184992859985"><animate attributeName="stroke-dashoffset" from="4.51184992859985" to="0" dur="0.1353554978579955s" begin="anim14.end" fill="freeze" id="anim15" /></path><path d="M 46.5 -13.3 C 42.2 -15.0 37.3 -17.9 34.4 -20.8 " transform="translate(0.0 38.0)" stroke-dasharray="14.320961252778039" stroke-dashoffset="14.320961252778039"><animate attributeName="stroke-dashoffset" from="14.320961252778039" to="0" dur="0.42962883758334114s" begin="anim15.end" fill="freeze" id="anim16" /></path><path d="M 36.5 -24.4 C 39.5 -24.6 42.6 -25.1 45.4 -25.6 " transform="translate(0.0 38.0)" stroke-dasharray="8.985104591784024" stroke-dashoffset="8.985104591784024"><animate attributeName="stroke-dashoffset" from="8.985104591784024" to="0" dur="0.26955313775352074s" begin="anim16.end" fill="freeze" id="anim17" /></path><path d="M 24.9 -33.7 C 30.9 -33.9 36.0 -34.2 41.7 -35.1 " transform="translate(0.0 38.0)" stroke-dasharray="16.86987178281374" stroke-dashoffset="16.86987178281374"><animate attributeName="stroke-dashoffset" from="16.86987178281374" to="0" dur="0.5060961534844122s" begin="anim17.end" fill="freeze" id="anim18" /></path><path d="M 36.9 -24.6 C 38.0 -26.4 38.8 -28.3 39.5 -30.4 " transform="translate(0.0 38.0)" stroke-dasharray="6.370141210701337" stroke-dashoffset="6.370141210701337"><animate attributeName="stroke-dashoffset" from="6.370141210701337" to="0" dur="0.1911042363210401s" begin="anim18.end" fill="freeze" id="anim19" /></path><path d="M 28.2 -33.6 C 29.5 -35.6 30.3 -37.3 31.3 -39.8 " transform="translate(0.0 38.0)" stroke-dasharray="6.944576509806032" stroke-dashoffset="6.944576509806032"><animate attributeName="stroke-dashoffset" from="6.944576509806032" to="0" dur="0.20833729529418094s" begin="anim19.end" fill="freeze" id="anim20" /></path><path d="M 46.5 -23.9 C 45.6 -25.5 44.5 -27.4 43.7 -28.4 " transform="translate(0.0 38.0)" stroke-dasharray="5.304484631373829" stroke-dashoffset="5.304484631373829"><animate attributeName="stroke-dashoffset" from="5.304484631373829" to="0" dur="0.15913453894121488s" begin="anim20.end" fill="freeze" id="anim21" /></path><path d="M 42.8 -33.4 C 41.4 -35.2 39.8 -37.0 38.4 -38.1" transform="translate(0.0 38.0)" stroke-dasharray="6.452255362135865" stroke-dashoffset="6.452255362135865"><animate attributeName="stroke-dashoffset" from="6.452255362135865" to="0" dur="0.19356766086407595s" begin="anim21.end" fill="freeze" id="anim_end" /></path></g></svg>