<?xml version='1.0' encoding='utf-8'?>
<svg viewBox="0.0 -6.0 50.0 50.0" version="1.1" xmlns="http://www.w3.org/2000/svg"><rect x="-1000" y="-1000" width="2000" height="2000" stroke="white" fill="white" /><g style="fill:none;stroke:#000000;stroke-width:1"><path d="M 46.8 -4.0 C 46.5 0.2 44.9 1.5 36.9 1.5 C 30.8 1.5 29.6 0.9 29.6 -1.9 L 29.6 -20.2 C 29.6 -22.2 30.3 -23.1 33.1 -23.1 L 40.2 -23.1 C 42.6 -23.1 43.6 -23.6 43.6 -25.4 L 43.6 -27.2 C 43.6 -29.0 42.6 -29.5 40.2 -29.5 L 33.2 -29.5 C 30.9 -29.5 30.1 -30.1 30.1 -32.1 L 30.1 -40.6 " transform="translate(0.0 38.0)" stroke-dasharray="84.61764933764891" stroke-dashoffset="84.61764933764891"><animate attributeName="stroke-dashoffset" from="84.61764933764891" to="0" dur="2.5385294801294673s" begin="0s" fill="freeze" /></path><path d="M 19.6 -7.2 L 8.2 -7.2 " transform="translate(0.0 38.0)" stroke-dasharray="11.400000000000002" stroke-dashoffset="11.400000000000002"><animate attributeName="stroke-dashoffset" from="11.400000000000002" to="0" dur="0.342s" begin="2.5385294801294673s" fill="freeze" /></path><path d="M 14.9 1.5 C 15.8 1.6 16.7 1.7 17.5 1.7 C 19.4 1.7 20.5 0.8 20.5 -1.3 L 20.5 -17.6 C 20.5 -19.5 19.7 -20.3 17.4 -20.3 L 10.6 -20.3 C 8.3 -20.3 7.5 -19.4 7.5 -17.5 L 7.5 2.5 " transform="translate(0.0 38.0)" stroke-dasharray="60.22433145406186" stroke-dashoffset="60.22433145406186"><animate attributeName="stroke-dashoffset" from="60.22433145406186" to="0" dur="1.8067299436218558s" begin="2.8805294801294674s" fill="freeze" /></path><path d="M 19.6 -13.7 L 8.2 -13.7 " transform="translate(0.0 38.0)" stroke-dasharray="11.400000000000002" stroke-dashoffset="11.400000000000002"><animate attributeName="stroke-dashoffset" from="11.400000000000002" to="0" dur="0.342s" begin="4.687259423751323s" fill="freeze" /></path><path d="M 24.4 -26.3 L 3.4 -26.3 " transform="translate(0.0 38.0)" stroke-dasharray="21.0" stroke-dashoffset="21.0"><animate attributeName="stroke-dashoffset" from="21.0" to="0" dur="0.63s" begin="5.029259423751323s" fill="freeze" /></path><path d="M 10.2 -29.9 C 9.8 -30.9 9.5 -31.6 8.9 -32.5 " transform="translate(0.0 38.0)" stroke-dasharray="2.913221212090033" stroke-dashoffset="2.913221212090033"><animate attributeName="stroke-dashoffset" from="2.913221212090033" to="0" dur="0.087396636362701s" begin="5.6592594237513225s" fill="freeze" /></path><path d="M 41.8 -5.5 L 29.9 -5.5 " transform="translate(0.0 38.0)" stroke-dasharray="11.899999999999999" stroke-dashoffset="11.899999999999999"><animate attributeName="stroke-dashoffset" from="11.899999999999999" to="0" dur="0.35699999999999993s" begin="5.746656060114024s" fill="freeze" /></path><path d="M 42.1 -11.2 L 29.9 -11.2 " transform="translate(0.0 38.0)" stroke-dasharray="12.200000000000003" stroke-dashoffset="12.200000000000003"><animate attributeName="stroke-dashoffset" from="12.200000000000003" to="0" dur="0.36600000000000005s" begin="6.103656060114024s" fill="freeze" /></path><path d="M 16.2 -26.5 C 17.2 -28.3 18.1 -30.4 18.8 -32.3 " transform="translate(0.0 38.0)" stroke-dasharray="6.36207660901952" stroke-dashoffset="6.36207660901952"><animate attributeName="stroke-dashoffset" from="6.36207660901952" to="0" dur="0.1908622982705856s" begin="6.469656060114024s" fill="freeze" /></path><path d="M 22.6 -36.0 L 5.4 -36.0 " transform="translate(0.0 38.0)" stroke-dasharray="17.200000000000003" stroke-dashoffset="17.200000000000003"><animate attributeName="stroke-dashoffset" from="17.200000000000003" to="0" dur="0.516s" begin="6.660518358384609s" fill="freeze" /></path><path d="M 13.9 -36.4 L 13.9 -40.6 " transform="translate(0.0 38.0)" stroke-dasharray="4.200000000000003" stroke-dashoffset="4.200000000000003"><animate attributeName="stroke-dashoffset" from="4.200000000000003" to="0" dur="0.12600000000000008s" begin="7.176518358384609s" fill="freeze" /></path><path d="M 42.1 -16.9 L 29.9 -16.9 " transform="translate(0.0 38.0)" stroke-dasharray="12.200000000000003" stroke-dashoffset="12.200000000000003"><animate attributeName="stroke-dashoffset" from="12.200000000000003" to="0" dur="0.36600000000000005s" begin="7.302518358384609s" fill="freeze" /></path><path d="M 45.5 -35.9 L 30.6 -35.9" transform="translate(0.0 38.0)" stroke-dasharray="14.899999999999999" stroke-dashoffset="14.899999999999999"><animate attributeName="stroke-dashoffset" from="14.899999999999999" to="0" dur="0.44699999999999995s" begin="7.668518358384609s" fill="freeze" /></path></g></svg>