<?xml version='1.0' encoding='utf-8'?>
<svg viewBox="0.0 -6.0 50.0 50.0" version="1.1" xmlns="http://www.w3.org/2000/svg"><rect x="-1000" y="-1000" width="2000" height="2000" stroke="white" fill="white" /><g style="fill:none;stroke:#000000;stroke-width:1"><path d="M 44.3 -26.9 L 44.3 -30.4 C 44.3 -31.9 43.5 -32.9 40.9 -32.9 L 9.2 -32.9 C 6.5 -32.9 5.7 -31.9 5.7 -30.4 L 5.7 -26.7 " transform="translate(0.0 38.0)" stroke-dasharray="48.66330285637774" stroke-dashoffset="48.66330285637774"><animate attributeName="stroke-dashoffset" from="48.66330285637774" to="0" dur="1.459899085691332s" begin="0s" fill="freeze" /></path><path d="M 24.4 3.0 L 24.4 -14.8 " transform="translate(0.0 38.0)" stroke-dasharray="17.8" stroke-dashoffset="17.8"><animate attributeName="stroke-dashoffset" from="17.8" to="0" dur="0.534s" begin="1.459899085691332s" fill="freeze" /></path><path d="M 19.1 -22.1 L 10.1 -22.1 " transform="translate(0.0 38.0)" stroke-dasharray="9.000000000000002" stroke-dashoffset="9.000000000000002"><animate attributeName="stroke-dashoffset" from="9.000000000000002" to="0" dur="0.27s" begin="1.9938990856913321s" fill="freeze" /></path><path d="M 37.9 -4.3 C 34.2 -6.5 29.4 -8.7 25.3 -9.9 " transform="translate(0.0 38.0)" stroke-dasharray="13.820894426165134" stroke-dashoffset="13.820894426165134"><animate attributeName="stroke-dashoffset" from="13.820894426165134" to="0" dur="0.414626832784954s" begin="2.263899085691332s" fill="freeze" /></path><path d="M 46.1 -15.3 L 4.1 -15.3 " transform="translate(0.0 38.0)" stroke-dasharray="42.0" stroke-dashoffset="42.0"><animate attributeName="stroke-dashoffset" from="42.0" to="0" dur="1.26s" begin="2.678525918476286s" fill="freeze" /></path><path d="M 19.1 -27.5 L 11.5 -27.5 " transform="translate(0.0 38.0)" stroke-dasharray="7.600000000000001" stroke-dashoffset="7.600000000000001"><animate attributeName="stroke-dashoffset" from="7.600000000000001" to="0" dur="0.22800000000000004s" begin="3.9385259184762864s" fill="freeze" /></path><path d="M 24.9 -20.2 L 24.9 -38.5 " transform="translate(0.0 38.0)" stroke-dasharray="18.3" stroke-dashoffset="18.3"><animate attributeName="stroke-dashoffset" from="18.3" to="0" dur="0.549s" begin="4.166525918476286s" fill="freeze" /></path><path d="M 40.1 -22.1 L 30.4 -22.1 " transform="translate(0.0 38.0)" stroke-dasharray="9.700000000000003" stroke-dashoffset="9.700000000000003"><animate attributeName="stroke-dashoffset" from="9.700000000000003" to="0" dur="0.2910000000000001s" begin="4.7155259184762865s" fill="freeze" /></path><path d="M 38.1 -27.5 L 30.4 -27.5 " transform="translate(0.0 38.0)" stroke-dasharray="7.700000000000003" stroke-dashoffset="7.700000000000003"><animate attributeName="stroke-dashoffset" from="7.700000000000003" to="0" dur="0.23100000000000007s" begin="5.006525918476287s" fill="freeze" /></path><path d="M 41.5 -38.5 L 9.1 -38.5" transform="translate(0.0 38.0)" stroke-dasharray="32.4" stroke-dashoffset="32.4"><animate attributeName="stroke-dashoffset" from="32.4" to="0" dur="0.972s" begin="5.237525918476287s" fill="freeze" /></path></g></svg>