<?xml version='1.0' encoding='utf-8'?>
<svg viewBox="0.0 -6.0 50.0 50.0" version="1.1" xmlns="http://www.w3.org/2000/svg"><rect x="-1000" y="-1000" width="2000" height="2000" stroke="white" fill="white" /><g style="fill:none;stroke:#000000;stroke-width:1"><path d="M 20.4 2.2 C 28.8 0.2 36.4 -5.2 39.8 -10.9 C 40.9 -12.8 40.0 -13.9 37.9 -13.9 L 29.6 -13.9 " transform="translate(0.0 38.0)" stroke-dasharray="36.99982398138152" stroke-dashoffset="36.99982398138152"><animate attributeName="stroke-dashoffset" from="36.99982398138152" to="0" dur="1.1099947194414455s" begin="0s" fill="freeze" /></path><path d="M 3.5 -0.9 C 8.2 -1.6 14.2 -2.9 18.4 -4.5 " transform="translate(0.0 38.0)" stroke-dasharray="15.35424746147699" stroke-dashoffset="15.35424746147699"><animate attributeName="stroke-dashoffset" from="15.35424746147699" to="0" dur="0.4606274238443097s" begin="1.1099947194414455s" fill="freeze" /></path><path d="M 6.7 -7.2 C 6.3 -9.1 5.3 -11.5 4.5 -12.8 " transform="translate(0.0 38.0)" stroke-dasharray="6.039919901498271" stroke-dashoffset="6.039919901498271"><animate attributeName="stroke-dashoffset" from="6.039919901498271" to="0" dur="0.18119759704494812s" begin="1.5706221432857552s" fill="freeze" /></path><path d="M 11.3 -2.9 L 11.3 -26.4 " transform="translate(0.0 38.0)" stroke-dasharray="23.5" stroke-dashoffset="23.5"><animate attributeName="stroke-dashoffset" from="23.5" to="0" dur="0.705s" begin="1.7518197403307034s" fill="freeze" /></path><path d="M 15.8 -8.5 C 16.5 -9.8 17.2 -11.7 17.8 -13.6 " transform="translate(0.0 38.0)" stroke-dasharray="5.485229250696166" stroke-dashoffset="5.485229250696166"><animate attributeName="stroke-dashoffset" from="5.485229250696166" to="0" dur="0.164556877520885s" begin="2.4568197403307033s" fill="freeze" /></path><path d="M 18.5 -18.8 L 3.3 -18.8 " transform="translate(0.0 38.0)" stroke-dasharray="15.2" stroke-dashoffset="15.2"><animate attributeName="stroke-dashoffset" from="15.2" to="0" dur="0.45599999999999996s" begin="2.6213766178515883s" fill="freeze" /></path><path d="M 16.8 -26.4 L 6.5 -26.4 " transform="translate(0.0 38.0)" stroke-dasharray="10.3" stroke-dashoffset="10.3"><animate attributeName="stroke-dashoffset" from="10.3" to="0" dur="0.309s" begin="3.0773766178515882s" fill="freeze" /></path><path d="M 23.1 -6.5 C 26.1 -8.9 29.6 -13.5 31.3 -17.4 " transform="translate(0.0 38.0)" stroke-dasharray="13.74904328853759" stroke-dashoffset="13.74904328853759"><animate attributeName="stroke-dashoffset" from="13.74904328853759" to="0" dur="0.4124712986561277s" begin="3.3863766178515884s" fill="freeze" /></path><path d="M 3.0 -28.8 C 6.3 -31.5 9.7 -35.5 12.1 -39.5 " transform="translate(0.0 38.0)" stroke-dasharray="14.110058523447723" stroke-dashoffset="14.110058523447723"><animate attributeName="stroke-dashoffset" from="14.110058523447723" to="0" dur="0.42330175570343165s" begin="3.7988479165077162s" fill="freeze" /></path><path d="M 45.8 1.2 C 38.9 -0.7 31.9 -5.7 28.6 -11.8 " transform="translate(0.0 38.0)" stroke-dasharray="22.10080462799893" stroke-dashoffset="22.10080462799893"><animate attributeName="stroke-dashoffset" from="22.10080462799893" to="0" dur="0.6630241388399678s" begin="4.222149672211148s" fill="freeze" /></path><path d="M 23.4 -17.6 C 26.6 -19.4 29.2 -22.8 30.1 -27.1 " transform="translate(0.0 38.0)" stroke-dasharray="11.979275525323322" stroke-dashoffset="11.979275525323322"><animate attributeName="stroke-dashoffset" from="11.979275525323322" to="0" dur="0.35937826575969967s" begin="4.885173811051116s" fill="freeze" /></path><path d="M 18.1 -31.9 C 16.6 -33.9 14.2 -36.0 12.2 -37.5 " transform="translate(0.0 38.0)" stroke-dasharray="8.158806309616923" stroke-dashoffset="8.158806309616923"><animate attributeName="stroke-dashoffset" from="8.158806309616923" to="0" dur="0.24476418928850766s" begin="5.244552076810816s" fill="freeze" /></path><path d="M 46.2 -28.0 L 21.9 -28.0 " transform="translate(0.0 38.0)" stroke-dasharray="24.300000000000004" stroke-dashoffset="24.300000000000004"><animate attributeName="stroke-dashoffset" from="24.300000000000004" to="0" dur="0.7290000000000001s" begin="5.4893162660993235s" fill="freeze" /></path><path d="M 45.9 -23.3 C 45.5 -20.7 44.4 -19.9 41.1 -19.9 C 38.2 -19.9 37.5 -20.4 37.5 -22.4 L 37.5 -27.4 " transform="translate(0.0 38.0)" stroke-dasharray="16.864387012092863" stroke-dashoffset="16.864387012092863"><animate attributeName="stroke-dashoffset" from="16.864387012092863" to="0" dur="0.5059316103627859s" begin="6.218316266099324s" fill="freeze" /></path><path d="M 42.9 -35.1 L 25.2 -35.1 " transform="translate(0.0 38.0)" stroke-dasharray="17.7" stroke-dashoffset="17.7"><animate attributeName="stroke-dashoffset" from="17.7" to="0" dur="0.5309999999999999s" begin="6.724247876462109s" fill="freeze" /></path><path d="M 33.6 -28.6 L 33.6 -40.5" transform="translate(0.0 38.0)" stroke-dasharray="11.899999999999999" stroke-dashoffset="11.899999999999999"><animate attributeName="stroke-dashoffset" from="11.899999999999999" to="0" dur="0.35699999999999993s" begin="7.255247876462109s" fill="freeze" /></path></g></svg>