<?xml version='1.0' encoding='utf-8'?>
<svg viewBox="0.0 -6.0 50.0 50.0" version="1.1" xmlns="http://www.w3.org/2000/svg"><rect x="-1000" y="-1000" width="2000" height="2000" stroke="white" fill="white" /><g style="fill:none;stroke:#000000;stroke-width:1"><path d="M 25.1 -19.8 L 25.1 -2.5 C 25.1 -0.2 26.1 0.8 28.6 0.8 L 41.0 0.8 C 43.5 0.8 44.5 -0.2 44.5 -2.5 L 44.5 -19.8 C 44.5 -22.0 43.6 -23.1 41.1 -23.1 L 28.4 -23.1 C 26.0 -23.1 25.1 -22.0 25.1 -19.8 Z " transform="translate(0.0 38.0)" stroke-dasharray="81.76838815995913" stroke-dashoffset="81.76838815995913"><animate attributeName="stroke-dashoffset" from="81.76838815995913" to="0" dur="2.453051644798774s" begin="0s; anim_end.end" fill="freeze" id="anim0" /></path><path d="M 3.5 1.4 C 4.5 -0.9 5.3 -3.6 5.7 -6.0 " transform="translate(0.0 38.0)" stroke-dasharray="7.738110792866375" stroke-dashoffset="7.738110792866375"><animate attributeName="stroke-dashoffset" from="7.738110792866375" to="0" dur="0.23214332378599123s" begin="anim0.end" fill="freeze" id="anim1" /></path><path d="M 10.5 -0.1 C 10.4 -2.0 10.2 -4.3 9.8 -5.8 " transform="translate(0.0 38.0)" stroke-dasharray="5.751485850233394" stroke-dashoffset="5.751485850233394"><animate attributeName="stroke-dashoffset" from="5.751485850233394" to="0" dur="0.1725445755070018s" begin="anim1.end" fill="freeze" id="anim2" /></path><path d="M 15.7 -1.0 C 15.3 -2.9 14.7 -4.9 14.1 -6.3 " transform="translate(0.0 38.0)" stroke-dasharray="5.544167123640347" stroke-dashoffset="5.544167123640347"><animate attributeName="stroke-dashoffset" from="5.544167123640347" to="0" dur="0.1663250137092104s" begin="anim2.end" fill="freeze" id="anim3" /></path><path d="M 20.4 -2.4 C 19.9 -4.0 19.0 -6.0 18.4 -7.2 " transform="translate(0.0 38.0)" stroke-dasharray="5.204721837126336" stroke-dashoffset="5.204721837126336"><animate attributeName="stroke-dashoffset" from="5.204721837126336" to="0" dur="0.15614165511379008s" begin="anim3.end" fill="freeze" id="anim4" /></path><path d="M 18.8 -14.0 L 18.8 -24.7 C 18.8 -26.6 17.9 -27.6 15.7 -27.6 L 8.8 -27.6 C 6.5 -27.6 5.8 -26.6 5.8 -24.7 L 5.8 -14.0 C 5.8 -12.1 6.5 -11.1 8.8 -11.1 L 15.7 -11.1 C 17.9 -11.1 18.8 -12.1 18.8 -14.0 Z " transform="translate(0.0 38.0)" stroke-dasharray="54.69580333800485" stroke-dashoffset="54.69580333800485"><animate attributeName="stroke-dashoffset" from="54.69580333800485" to="0" dur="1.6408741001401455s" begin="anim4.end" fill="freeze" id="anim5" /></path><path d="M 12.2 -11.9 L 12.2 -26.8 " transform="translate(0.0 38.0)" stroke-dasharray="14.9" stroke-dashoffset="14.9"><animate attributeName="stroke-dashoffset" from="14.9" to="0" dur="0.447s" begin="anim5.end" fill="freeze" id="anim6" /></path><path d="M 18.0 -19.6 L 6.2 -19.6 " transform="translate(0.0 38.0)" stroke-dasharray="11.8" stroke-dashoffset="11.8"><animate attributeName="stroke-dashoffset" from="11.8" to="0" dur="0.354s" begin="anim6.end" fill="freeze" id="anim7" /></path><path d="M 3.0 -28.7 C 5.3 -31.6 7.5 -35.8 9.1 -39.9 " transform="translate(0.0 38.0)" stroke-dasharray="12.796340780905735" stroke-dashoffset="12.796340780905735"><animate attributeName="stroke-dashoffset" from="12.796340780905735" to="0" dur="0.38389022342717205s" begin="anim7.end" fill="freeze" id="anim8" /></path><path d="M 44.2 -7.1 L 25.6 -7.1 " transform="translate(0.0 38.0)" stroke-dasharray="18.6" stroke-dashoffset="18.6"><animate attributeName="stroke-dashoffset" from="18.6" to="0" dur="0.558s" begin="anim8.end" fill="freeze" id="anim9" /></path><path d="M 12.5 -28.3 C 13.4 -30.0 14.2 -31.6 14.5 -32.7 C 15.0 -34.2 14.2 -35.2 12.3 -35.2 L 7.2 -35.2 " transform="translate(0.0 38.0)" stroke-dasharray="14.031443042270952" stroke-dashoffset="14.031443042270952"><animate attributeName="stroke-dashoffset" from="14.031443042270952" to="0" dur="0.42094329126812857s" begin="anim9.end" fill="freeze" id="anim10" /></path><path d="M 28.9 -12.8 C 30.8 -15.2 31.7 -18.2 31.7 -25.9 L 31.7 -30.4 " transform="translate(0.0 38.0)" stroke-dasharray="18.154881580560584" stroke-dashoffset="18.154881580560584"><animate attributeName="stroke-dashoffset" from="18.154881580560584" to="0" dur="0.5446464474168174s" begin="anim10.end" fill="freeze" id="anim11" /></path><path d="M 22.8 -28.7 C 25.0 -30.8 27.5 -34.3 28.8 -37.1 " transform="translate(0.0 38.0)" stroke-dasharray="10.372309621575045" stroke-dashoffset="10.372309621575045"><animate attributeName="stroke-dashoffset" from="10.372309621575045" to="0" dur="0.31116928864725135s" begin="anim11.end" fill="freeze" id="anim12" /></path><path d="M 42.0 -17.0 C 41.9 -14.8 41.2 -14.1 39.4 -14.1 C 37.8 -14.1 37.1 -14.4 37.1 -16.0 L 37.1 -30.4 " transform="translate(0.0 38.0)" stroke-dasharray="22.434762329300856" stroke-dashoffset="22.434762329300856"><animate attributeName="stroke-dashoffset" from="22.434762329300856" to="0" dur="0.6730428698790256s" begin="anim12.end" fill="freeze" id="anim13" /></path><path d="M 40.1 -30.4 L 29.2 -30.4 " transform="translate(0.0 38.0)" stroke-dasharray="10.900000000000002" stroke-dashoffset="10.900000000000002"><animate attributeName="stroke-dashoffset" from="10.900000000000002" to="0" dur="0.32700000000000007s" begin="anim13.end" fill="freeze" id="anim14" /></path><path d="M 46.4 -29.8 C 44.3 -31.6 42.1 -34.4 40.9 -36.6 C 40.0 -38.0 39.1 -38.5 37.5 -38.5 L 33.7 -38.5" transform="translate(0.0 38.0)" stroke-dasharray="16.697908646934582" stroke-dashoffset="16.697908646934582"><animate attributeName="stroke-dashoffset" from="16.697908646934582" to="0" dur="0.5009372594080375s" begin="anim14.end" fill="freeze" id="anim_end" /></path></g></svg>