<?xml version='1.0' encoding='utf-8'?>
<svg viewBox="0.0 -6.0 50.0 50.0" version="1.1" xmlns="http://www.w3.org/2000/svg"><rect x="-1000" y="-1000" width="2000" height="2000" stroke="white" fill="white" /><g style="fill:none;stroke:#000000;stroke-width:1"><path d="M 38.1 1.1 C 39.0 1.3 40.0 1.4 40.8 1.4 C 42.9 1.4 44.0 0.6 44.0 -1.6 L 44.0 -20.8 C 44.0 -22.9 42.9 -23.9 40.2 -23.9 L 28.6 -23.9 C 26.0 -23.9 24.9 -22.9 24.9 -20.8 L 24.9 2.2 " transform="translate(0.0 38.0)" stroke-dasharray="72.81964926742624" stroke-dashoffset="72.81964926742624"><animate attributeName="stroke-dashoffset" from="72.81964926742624" to="0" dur="2.184589478022787s" begin="0s; 15s; 30s; 45s" fill="freeze" id="anim0" /></path><path d="M 4.1 -0.8 C 8.8 -1.4 14.7 -3.0 18.6 -4.3 " transform="translate(0.0 38.0)" stroke-dasharray="14.936597283324907" stroke-dashoffset="14.936597283324907"><animate attributeName="stroke-dashoffset" from="14.936597283324907" to="0" dur="0.4480979184997472s" begin="anim0.end" fill="freeze" id="anim1" /></path><path d="M 7.0 -7.3 C 6.7 -9.1 5.9 -11.0 5.1 -12.3 " transform="translate(0.0 38.0)" stroke-dasharray="5.378920899485571" stroke-dashoffset="5.378920899485571"><animate attributeName="stroke-dashoffset" from="5.378920899485571" to="0" dur="0.16136762698456714s" begin="anim1.end" fill="freeze" id="anim2" /></path><path d="M 11.9 -2.8 L 11.9 -26.2 " transform="translate(0.0 38.0)" stroke-dasharray="23.4" stroke-dashoffset="23.4"><animate attributeName="stroke-dashoffset" from="23.4" to="0" dur="0.702s" begin="anim2.end" fill="freeze" id="anim3" /></path><path d="M 16.6 -8.8 C 17.2 -10.1 17.8 -11.7 18.3 -13.4 " transform="translate(0.0 38.0)" stroke-dasharray="4.908265456390705" stroke-dashoffset="4.908265456390705"><animate attributeName="stroke-dashoffset" from="4.908265456390705" to="0" dur="0.14724796369172113s" begin="anim3.end" fill="freeze" id="anim4" /></path><path d="M 18.8 -18.6 L 3.8 -18.6 " transform="translate(0.0 38.0)" stroke-dasharray="15.0" stroke-dashoffset="15.0"><animate attributeName="stroke-dashoffset" from="15.0" to="0" dur="0.44999999999999996s" begin="anim4.end" fill="freeze" id="anim5" /></path><path d="M 17.1 -26.1 L 7.2 -26.1 " transform="translate(0.0 38.0)" stroke-dasharray="9.900000000000002" stroke-dashoffset="9.900000000000002"><animate attributeName="stroke-dashoffset" from="9.900000000000002" to="0" dur="0.29700000000000004s" begin="anim5.end" fill="freeze" id="anim6" /></path><path d="M 3.1 -28.4 C 6.7 -31.3 10.2 -35.4 12.7 -39.5 " transform="translate(0.0 38.0)" stroke-dasharray="14.743480756846328" stroke-dashoffset="14.743480756846328"><animate attributeName="stroke-dashoffset" from="14.743480756846328" to="0" dur="0.44230442270538983s" begin="anim6.end" fill="freeze" id="anim7" /></path><path d="M 43.2 -9.0 L 25.7 -9.0 " transform="translate(0.0 38.0)" stroke-dasharray="17.500000000000004" stroke-dashoffset="17.500000000000004"><animate attributeName="stroke-dashoffset" from="17.500000000000004" to="0" dur="0.5250000000000001s" begin="anim7.end" fill="freeze" id="anim8" /></path><path d="M 19.1 -31.6 C 17.5 -33.6 15.1 -35.8 12.8 -37.4 " transform="translate(0.0 38.0)" stroke-dasharray="8.589881603654437" stroke-dashoffset="8.589881603654437"><animate attributeName="stroke-dashoffset" from="8.589881603654437" to="0" dur="0.2576964481096331s" begin="anim8.end" fill="freeze" id="anim9" /></path><path d="M 43.2 -16.4 L 25.7 -16.4 " transform="translate(0.0 38.0)" stroke-dasharray="17.500000000000004" stroke-dashoffset="17.500000000000004"><animate attributeName="stroke-dashoffset" from="17.500000000000004" to="0" dur="0.5250000000000001s" begin="anim9.end" fill="freeze" id="anim10" /></path><path d="M 29.8 -30.4 L 39.0 -30.4 C 41.5 -30.4 42.5 -31.4 42.5 -33.1 L 42.5 -36.0 C 42.5 -37.8 41.5 -38.7 39.0 -38.7 L 29.8 -38.7 C 27.2 -38.7 26.2 -37.8 26.2 -36.0 L 26.2 -33.1 C 26.2 -31.4 27.2 -30.4 29.8 -30.4 Z" transform="translate(0.0 38.0)" stroke-dasharray="44.66512175103929" stroke-dashoffset="44.66512175103929"><animate attributeName="stroke-dashoffset" from="44.66512175103929" to="0" dur="1.3399536525311786s" begin="anim10.end" fill="freeze" id="anim_end" /></path></g></svg>