<?xml version='1.0' encoding='utf-8'?>
<svg viewBox="0.0 -6.0 50.0 50.0" version="1.1" xmlns="http://www.w3.org/2000/svg"><rect x="-1000" y="-1000" width="2000" height="2000" stroke="white" fill="white" /><g style="fill:none;stroke:#000000;stroke-width:1"><path d="M 22.8 -12.6 C 31.0 -17.8 39.3 -27.1 44.2 -38.1 " transform="translate(0.0 38.0)" stroke-dasharray="33.73805790238166" stroke-dashoffset="33.73805790238166"><animate attributeName="stroke-dashoffset" from="33.73805790238166" to="0" dur="1.0121417370714498s" begin="0s" fill="freeze" /></path><path d="M 4.3 -0.2 C 9.1 -0.8 15.4 -2.4 19.5 -3.7 " transform="translate(0.0 38.0)" stroke-dasharray="15.615810817430335" stroke-dashoffset="15.615810817430335"><animate attributeName="stroke-dashoffset" from="15.615810817430335" to="0" dur="0.46847432452291005s" begin="1.0121417370714498s" fill="freeze" /></path><path d="M 7.2 -7.0 C 6.8 -8.7 6.0 -10.6 5.2 -11.9 " transform="translate(0.0 38.0)" stroke-dasharray="5.312366148894571" stroke-dashoffset="5.312366148894571"><animate attributeName="stroke-dashoffset" from="5.312366148894571" to="0" dur="0.15937098446683715s" begin="1.4806160615943598s" fill="freeze" /></path><path d="M 12.1 -2.3 L 12.1 -26.1 " transform="translate(0.0 38.0)" stroke-dasharray="23.8" stroke-dashoffset="23.8"><animate attributeName="stroke-dashoffset" from="23.8" to="0" dur="0.714s" begin="1.639987046061197s" fill="freeze" /></path><path d="M 16.9 -8.2 C 17.5 -9.5 18.1 -11.2 18.6 -12.8 " transform="translate(0.0 38.0)" stroke-dasharray="4.907203981661063" stroke-dashoffset="4.907203981661063"><animate attributeName="stroke-dashoffset" from="4.907203981661063" to="0" dur="0.14721611944983187s" begin="2.3539870460611967s" fill="freeze" /></path><path d="M 19.7 -18.2 L 3.9 -18.2 " transform="translate(0.0 38.0)" stroke-dasharray="15.799999999999999" stroke-dashoffset="15.799999999999999"><animate attributeName="stroke-dashoffset" from="15.799999999999999" to="0" dur="0.474s" begin="2.5012031655110287s" fill="freeze" /></path><path d="M 29.8 1.6 C 30.9 1.9 31.5 1.9 32.1 1.9 C 34.9 1.9 35.6 0.8 35.6 -1.9 L 35.6 -13.1 " transform="translate(0.0 38.0)" stroke-dasharray="19.615528995759515" stroke-dashoffset="19.615528995759515"><animate attributeName="stroke-dashoffset" from="19.615528995759515" to="0" dur="0.5884658698727855s" begin="2.9752031655110285s" fill="freeze" /></path><path d="M 17.4 -25.9 L 7.2 -25.9 " transform="translate(0.0 38.0)" stroke-dasharray="10.2" stroke-dashoffset="10.2"><animate attributeName="stroke-dashoffset" from="10.2" to="0" dur="0.306s" begin="3.563669035383814s" fill="freeze" /></path><path d="M 3.1 -28.4 C 6.7 -31.3 10.2 -35.4 12.7 -39.5 " transform="translate(0.0 38.0)" stroke-dasharray="14.743480756846328" stroke-dashoffset="14.743480756846328"><animate attributeName="stroke-dashoffset" from="14.743480756846328" to="0" dur="0.44230442270538983s" begin="3.869669035383814s" fill="freeze" /></path><path d="M 46.4 -8.3 L 24.9 -8.3 " transform="translate(0.0 38.0)" stroke-dasharray="21.5" stroke-dashoffset="21.5"><animate attributeName="stroke-dashoffset" from="21.5" to="0" dur="0.645s" begin="4.311973458089204s" fill="freeze" /></path><path d="M 19.1 -31.6 C 17.5 -33.6 15.1 -35.8 12.8 -37.4 " transform="translate(0.0 38.0)" stroke-dasharray="8.589881603654437" stroke-dashoffset="8.589881603654437"><animate attributeName="stroke-dashoffset" from="8.589881603654437" to="0" dur="0.2576964481096331s" begin="4.9569734580892035s" fill="freeze" /></path><path d="M 35.5 -12.3 C 37.5 -13.4 39.4 -14.8 40.9 -16.4 C 42.4 -17.8 41.7 -19.4 39.5 -19.4 L 26.7 -19.4 " transform="translate(0.0 38.0)" stroke-dasharray="24.323568960486647" stroke-dashoffset="24.323568960486647"><animate attributeName="stroke-dashoffset" from="24.323568960486647" to="0" dur="0.7297070688145993s" begin="5.214669906198837s" fill="freeze" /></path><path d="M 46.7 -26.8 L 22.1 -26.8 " transform="translate(0.0 38.0)" stroke-dasharray="24.6" stroke-dashoffset="24.6"><animate attributeName="stroke-dashoffset" from="24.6" to="0" dur="0.738s" begin="5.944376975013436s" fill="freeze" /></path><path d="M 37.6 -34.4 L 25.1 -34.4 " transform="translate(0.0 38.0)" stroke-dasharray="12.5" stroke-dashoffset="12.5"><animate attributeName="stroke-dashoffset" from="12.5" to="0" dur="0.375s" begin="6.682376975013437s" fill="freeze" /></path><path d="M 31.8 -26.2 L 31.8 -40.2" transform="translate(0.0 38.0)" stroke-dasharray="14.000000000000004" stroke-dashoffset="14.000000000000004"><animate attributeName="stroke-dashoffset" from="14.000000000000004" to="0" dur="0.4200000000000001s" begin="7.057376975013437s" fill="freeze" /></path></g></svg>