<?xml version='1.0' encoding='utf-8'?>
<svg viewBox="0.0 -6.0 50.0 50.0" version="1.1" xmlns="http://www.w3.org/2000/svg"><rect x="-1000" y="-1000" width="2000" height="2000" stroke="white" fill="white" /><g style="fill:none;stroke:#000000;stroke-width:1"><path d="M 6.0 -35.5 L 12.8 -4.5 C 13.2 -3.1 13.9 -2.8 14.8 -2.8 C 15.8 -2.8 16.5 -3.5 16.7 -4.6 C 19.2 -15.7 20.9 -23.4 23.1 -33.3 C 23.4 -34.5 24.1 -34.9 24.9 -34.9 C 25.6 -34.9 26.2 -34.5 26.4 -33.3 C 28.7 -23.1 30.5 -15.4 33.0 -4.6 C 33.2 -3.1 34.0 -2.6 35.0 -2.6 C 36.2 -2.6 36.8 -3.5 37.0 -4.7 L 44.4 -35.5" transform="translate(0.0 38.0)" stroke-dasharray="139.41052588968444" stroke-dashoffset="139.41052588968444"><animate attributeName="stroke-dashoffset" from="139.41052588968444" to="0" dur="4.182315776690533s" begin="0s" fill="freeze" /></path></g></svg>